<?xml version="1.0" encoding="UTF-8" standalone="no"?>
<!DOCTYPE svg PUBLIC "-//W3C//DTD SVG 1.1//EN"
 "http://www.w3.org/Graphics/SVG/1.1/DTD/svg11.dtd">
<!-- Generated by graphviz version 5.0.0 (0)
 -->
<!-- Title: proof Pages: 1 -->
<svg width="296pt" height="160pt"
 viewBox="0.00 0.00 296.00 160.00" xmlns="http://www.w3.org/2000/svg" xmlns:xlink="http://www.w3.org/1999/xlink">
<g id="graph0" class="graph" transform="scale(1 1) rotate(0) translate(4 156)">
<title>proof</title>
<g id="clust1" class="cluster">
<title>cluster_0</title>
<polygon fill="transparent" stroke="black" stroke-dasharray="1,5" points="87,-112 87,-144 201,-144 201,-112 87,-112"/>
</g>
<g id="clust2" class="cluster">
<title>cluster_1</title>
<polygon fill="transparent" stroke="black" stroke-width="2" points="8,-60 8,-92 280,-92 280,-60 8,-60"/>
</g>
<g id="clust3" class="cluster">
<title>cluster_2</title>
<polygon fill="transparent" stroke="black" stroke-dasharray="1,5" points="34,-8 34,-40 254,-40 254,-8 34,-8"/>
</g>
<!-- t24_fib_num2 -->
<g id="node1" class="node">
<title>t24_fib_num2</title>
<g id="a_node1"><a xlink:href="t24_fib_num2.html" xlink:title="t24_fib_num2" target="_vizar">
<polygon fill="#69d2e7" stroke="#7f7542" points="95.5,-120.5 95.5,-135.5 192.5,-135.5 192.5,-120.5 95.5,-120.5"/>
<text text-anchor="middle" x="144" y="-124.3" font-family="Times,serif" font-size="14.00">t24_fib_num2</text>
</a>
</g>
</g>
<!-- c_0_103 -->
<g id="node2" class="node">
<title>c_0_103</title>
<g id="a_node2"><a xlink:href="c_0_103.html" xlink:title="{Fib(N₁ + 2) = Fib(N₁) + Fib(N₁ + 1)}" target="_vizar">
<polygon fill="#f8edd1" stroke="#7f7542" points="16,-68.5 16,-83.5 272,-83.5 272,-68.5 16,-68.5"/>
<text text-anchor="middle" x="144" y="-72.3" font-family="Times,serif" font-size="14.00">Fib(N₁ + 2) = Fib(N₁) + Fib(N₁ + 1)</text>
</a>
</g>
</g>
<!-- t24_fib_num2&#45;&gt;c_0_103 -->
<g id="edge1" class="edge">
<title>t24_fib_num2&#45;&gt;c_0_103</title>
<path fill="none" stroke="black" d="M144,-120.33C144,-120.33 144,-93.7 144,-93.7"/>
<polygon fill="black" stroke="black" points="147.5,-93.7 144,-83.7 140.5,-93.7 147.5,-93.7"/>
</g>
<!-- c_0_157 -->
<g id="node3" class="node">
<title>c_0_157</title>
<g id="a_node3"><a xlink:href="c_0_157.html" xlink:title="{Fib(Ø + 2) = Ø + Fib(Ø + 1)}" target="_vizar">
<polygon fill="#f8edd1" stroke="#7f7542" points="42,-16.5 42,-31.5 246,-31.5 246,-16.5 42,-16.5"/>
<text text-anchor="middle" x="144" y="-20.3" font-family="Times,serif" font-size="14.00">Fib(Ø + 2) = Ø + Fib(Ø + 1)</text>
</a>
</g>
</g>
<!-- c_0_103&#45;&gt;c_0_157 -->
<g id="edge2" class="edge">
<title>c_0_103&#45;&gt;c_0_157</title>
<path fill="none" stroke="black" stroke-dasharray="5,2" d="M144,-68.33C144,-68.33 144,-41.7 144,-41.7"/>
<polygon fill="black" stroke="black" points="147.5,-41.7 144,-31.7 140.5,-41.7 147.5,-41.7"/>
</g>
</g>
</svg>
