<?xml version="1.0" encoding="UTF-8" standalone="no"?>
<!DOCTYPE svg PUBLIC "-//W3C//DTD SVG 1.1//EN"
 "http://www.w3.org/Graphics/SVG/1.1/DTD/svg11.dtd">
<!-- Generated by graphviz version 5.0.0 (0)
 -->
<!-- Title: proof Pages: 1 -->
<svg width="252pt" height="250pt"
 viewBox="0.00 0.00 252.00 250.00" xmlns="http://www.w3.org/2000/svg" xmlns:xlink="http://www.w3.org/1999/xlink">
<g id="graph0" class="graph" transform="scale(1 1) rotate(0) translate(4 246)">
<title>proof</title>
<g id="clust1" class="cluster">
<title>cluster_0</title>
<polygon fill="transparent" stroke="black" stroke-dasharray="1,5" points="8,-157 8,-234 236,-234 236,-157 8,-157"/>
</g>
<g id="clust2" class="cluster">
<title>cluster_1</title>
<polygon fill="transparent" stroke="black" stroke-width="2" points="38,-60 38,-137 190,-137 190,-60 38,-60"/>
</g>
<g id="clust3" class="cluster">
<title>cluster_2</title>
<polygon fill="transparent" stroke="black" stroke-dasharray="1,5" points="44,-8 44,-40 184,-40 184,-8 44,-8"/>
</g>
<!-- c_0_149 -->
<g id="node1" class="node">
<title>c_0_149</title>
<g id="a_node1"><a xlink:href="c_0_149.html" xlink:title="{rel&#45;prime(sk₂,sk₃)|sk₁₂(sk₂,sk₃) । sk₂}" target="_vizar">
<polygon fill="#fa6900" stroke="#7f7542" points="104,-180.5 104,-210.5 228,-210.5 228,-180.5 104,-180.5"/>
<text text-anchor="middle" x="166" y="-199.3" font-family="Times,serif" font-size="14.00">rel&#45;prime(sk₂,sk₃)</text>
<polyline fill="none" stroke="#7f7542" points="104,-195.5 228,-195.5 "/>
<text text-anchor="middle" x="166" y="-184.3" font-family="Times,serif" font-size="14.00">sk₁₂(sk₂,sk₃) । sk₂</text>
</a>
</g>
</g>
<!-- c_0_173 -->
<g id="node3" class="node">
<title>c_0_173</title>
<g id="a_node3"><a xlink:href="c_0_173.html" xlink:title="{prime(sk₁₂(sk₂,sk₃))|sk₁₂(sk₂,sk₃) । sk₃|⇊|rel&#45;prime(sk₂,sk₃)}" target="_vizar">
<polygon fill="#fa6900" stroke="#7f7542" points="46,-68.5 46,-128.5 182,-128.5 182,-68.5 46,-68.5"/>
<text text-anchor="middle" x="114" y="-117.3" font-family="Times,serif" font-size="14.00">prime(sk₁₂(sk₂,sk₃))</text>
<polyline fill="none" stroke="#7f7542" points="46,-113.5 182,-113.5 "/>
<text text-anchor="middle" x="114" y="-102.3" font-family="Times,serif" font-size="14.00">sk₁₂(sk₂,sk₃) । sk₃</text>
<polyline fill="none" stroke="#7f7542" points="46,-98.5 182,-98.5 "/>
<text text-anchor="middle" x="114" y="-87.3" font-family="Times,serif" font-size="14.00">⇊</text>
<polyline fill="none" stroke="#7f7542" points="46,-83.5 182,-83.5 "/>
<text text-anchor="middle" x="114" y="-72.3" font-family="Times,serif" font-size="14.00">rel&#45;prime(sk₂,sk₃)</text>
</a>
</g>
</g>
<!-- c_0_149&#45;&gt;c_0_173 -->
<g id="edge1" class="edge">
<title>c_0_149&#45;&gt;c_0_173</title>
<path fill="none" stroke="black" d="M143,-180.34C143,-180.34 143,-138.79 143,-138.79"/>
<polygon fill="black" stroke="black" points="146.5,-138.79 143,-128.79 139.5,-138.79 146.5,-138.79"/>
</g>
<!-- c_0_148 -->
<g id="node2" class="node">
<title>c_0_148</title>
<g id="a_node2"><a xlink:href="c_0_148.html" xlink:title="{N₁ । sk₃|prime(N₁)|⇊|N₁ ∤ sk₂}" target="_vizar">
<polygon fill="#fa6900" stroke="#7f7542" points="16,-165.5 16,-225.5 86,-225.5 86,-165.5 16,-165.5"/>
<text text-anchor="middle" x="51" y="-214.3" font-family="Times,serif" font-size="14.00">N₁ । sk₃</text>
<polyline fill="none" stroke="#7f7542" points="16,-210.5 86,-210.5 "/>
<text text-anchor="middle" x="51" y="-199.3" font-family="Times,serif" font-size="14.00">prime(N₁)</text>
<polyline fill="none" stroke="#7f7542" points="16,-195.5 86,-195.5 "/>
<text text-anchor="middle" x="51" y="-184.3" font-family="Times,serif" font-size="14.00">⇊</text>
<polyline fill="none" stroke="#7f7542" points="16,-180.5 86,-180.5 "/>
<text text-anchor="middle" x="51" y="-169.3" font-family="Times,serif" font-size="14.00">N₁ ∤ sk₂</text>
</a>
</g>
</g>
<!-- c_0_148&#45;&gt;c_0_173 -->
<g id="edge2" class="edge">
<title>c_0_148&#45;&gt;c_0_173</title>
<path fill="none" stroke="black" d="M66,-165.34C66,-165.34 66,-138.64 66,-138.64"/>
<polygon fill="black" stroke="black" points="69.5,-138.64 66,-128.64 62.5,-138.64 69.5,-138.64"/>
</g>
<!-- c_0_192 -->
<g id="node4" class="node">
<title>c_0_192</title>
<g id="a_node4"><a xlink:href="c_0_192.html" xlink:title="{rel&#45;prime(sk₂,sk₃)}" target="_vizar">
<polygon fill="#fa6900" stroke="#7f7542" points="52,-16.5 52,-31.5 176,-31.5 176,-16.5 52,-16.5"/>
<text text-anchor="middle" x="114" y="-20.3" font-family="Times,serif" font-size="14.00">rel&#45;prime(sk₂,sk₃)</text>
</a>
</g>
</g>
<!-- c_0_173&#45;&gt;c_0_192 -->
<g id="edge3" class="edge">
<title>c_0_173&#45;&gt;c_0_192</title>
<path fill="none" stroke="black" stroke-dasharray="5,2" d="M114,-68.2C114,-68.2 114,-41.59 114,-41.59"/>
<polygon fill="black" stroke="black" points="117.5,-41.59 114,-31.59 110.5,-41.59 117.5,-41.59"/>
</g>
</g>
</svg>
