<?xml version="1.0" encoding="UTF-8" standalone="no"?>
<!DOCTYPE svg PUBLIC "-//W3C//DTD SVG 1.1//EN"
 "http://www.w3.org/Graphics/SVG/1.1/DTD/svg11.dtd">
<!-- Generated by graphviz version 5.0.0 (0)
 -->
<!-- Title: proof Pages: 1 -->
<svg width="414pt" height="250pt"
 viewBox="0.00 0.00 414.00 250.00" xmlns="http://www.w3.org/2000/svg" xmlns:xlink="http://www.w3.org/1999/xlink">
<g id="graph0" class="graph" transform="scale(1 1) rotate(0) translate(4 246)">
<title>proof</title>
<g id="clust1" class="cluster">
<title>cluster_0</title>
<polygon fill="transparent" stroke="black" stroke-dasharray="1,5" points="8,-172 8,-234 398,-234 398,-172 8,-172"/>
</g>
<g id="clust2" class="cluster">
<title>cluster_1</title>
<polygon fill="transparent" stroke="black" stroke-width="2" points="109,-120 109,-152 249,-152 249,-120 109,-120"/>
</g>
<g id="clust3" class="cluster">
<title>cluster_2</title>
<polygon fill="transparent" stroke="black" stroke-dasharray="1,5" points="136,-8 136,-100 222,-100 222,-8 136,-8"/>
</g>
<!-- c_0_90 -->
<g id="node1" class="node">
<title>c_0_90</title>
<g id="a_node1"><a xlink:href="c_0_90.html" xlink:title="{N₁ = Ø|rel&#45;prime(N₁,sk₂)|sk₂ ≤ N₁}" target="_vizar">
<polygon fill="#fa6900" stroke="#7f7542" points="270,-180.5 270,-225.5 390,-225.5 390,-180.5 270,-180.5"/>
<text text-anchor="middle" x="330" y="-214.3" font-family="Times,serif" font-size="14.00">N₁ = Ø</text>
<polyline fill="none" stroke="#7f7542" points="270,-210.5 390,-210.5 "/>
<text text-anchor="middle" x="330" y="-199.3" font-family="Times,serif" font-size="14.00">rel&#45;prime(N₁,sk₂)</text>
<polyline fill="none" stroke="#7f7542" points="270,-195.5 390,-195.5 "/>
<text text-anchor="middle" x="330" y="-184.3" font-family="Times,serif" font-size="14.00">sk₂ ≤ N₁</text>
</a>
</g>
</g>
<!-- c_0_120 -->
<g id="node5" class="node">
<title>c_0_120</title>
<g id="a_node5"><a xlink:href="c_0_120.html" xlink:title="{rel&#45;prime(sk₃,sk₂)}" target="_vizar">
<polygon fill="#fa6900" stroke="#7f7542" points="117,-128.5 117,-143.5 241,-143.5 241,-128.5 117,-128.5"/>
<text text-anchor="middle" x="179" y="-132.3" font-family="Times,serif" font-size="14.00">rel&#45;prime(sk₃,sk₂)</text>
</a>
</g>
</g>
<!-- c_0_90&#45;&gt;c_0_120 -->
<g id="edge1" class="edge">
<title>c_0_90&#45;&gt;c_0_120</title>
<path fill="none" stroke="black" d="M269.89,-187C247.16,-187 226.67,-187 226.67,-187 226.67,-187 226.67,-153.53 226.67,-153.53"/>
<polygon fill="black" stroke="black" points="230.17,-153.53 226.67,-143.53 223.17,-153.53 230.17,-153.53"/>
</g>
<!-- c_0_92 -->
<g id="node2" class="node">
<title>c_0_92</title>
<g id="a_node2"><a xlink:href="c_0_92.html" xlink:title="{sk₃ ≠ Ø}" target="_vizar">
<polygon fill="#fa6900" stroke="#7f7542" points="198,-195.5 198,-210.5 252,-210.5 252,-195.5 198,-195.5"/>
<text text-anchor="middle" x="225" y="-199.3" font-family="Times,serif" font-size="14.00">sk₃ ≠ Ø</text>
</a>
</g>
</g>
<!-- c_0_92&#45;&gt;c_0_120 -->
<g id="edge2" class="edge">
<title>c_0_92&#45;&gt;c_0_120</title>
<path fill="none" stroke="black" d="M212.33,-195.31C212.33,-195.31 212.33,-153.6 212.33,-153.6"/>
<polygon fill="black" stroke="black" points="215.83,-153.6 212.33,-143.6 208.83,-153.6 215.83,-153.6"/>
</g>
<!-- c_0_68 -->
<g id="node3" class="node">
<title>c_0_68</title>
<g id="a_node3"><a xlink:href="c_0_68.html" xlink:title="{¬ (sk₂ ≤ sk₃)}" target="_vizar">
<polygon fill="#fa6900" stroke="#7f7542" points="88.5,-195.5 88.5,-210.5 179.5,-210.5 179.5,-195.5 88.5,-195.5"/>
<text text-anchor="middle" x="134" y="-199.3" font-family="Times,serif" font-size="14.00">¬ (sk₂ ≤ sk₃)</text>
</a>
</g>
</g>
<!-- c_0_68&#45;&gt;c_0_120 -->
<g id="edge3" class="edge">
<title>c_0_68&#45;&gt;c_0_120</title>
<path fill="none" stroke="black" d="M148.25,-195.31C148.25,-195.31 148.25,-153.6 148.25,-153.6"/>
<polygon fill="black" stroke="black" points="151.75,-153.6 148.25,-143.6 144.75,-153.6 151.75,-153.6"/>
</g>
<!-- c_0_66 -->
<g id="node4" class="node">
<title>c_0_66</title>
<g id="a_node4"><a xlink:href="c_0_66.html" xlink:title="{sk₃ ∈ ℕ}" target="_vizar">
<polygon fill="#fa6900" stroke="#7f7542" points="16,-195.5 16,-210.5 70,-210.5 70,-195.5 16,-195.5"/>
<text text-anchor="middle" x="43" y="-199.3" font-family="Times,serif" font-size="14.00">sk₃ ∈ ℕ</text>
</a>
</g>
</g>
<!-- c_0_66&#45;&gt;c_0_120 -->
<g id="edge4" class="edge">
<title>c_0_66&#45;&gt;c_0_120</title>
<path fill="none" stroke="black" d="M43,-195.31C43,-177.72 43,-136 43,-136 43,-136 106.97,-136 106.97,-136"/>
<polygon fill="black" stroke="black" points="106.97,-139.5 116.97,-136 106.97,-132.5 106.97,-139.5"/>
</g>
<!-- c_0_148 -->
<g id="node6" class="node">
<title>c_0_148</title>
<g id="a_node6"><a xlink:href="c_0_148.html" xlink:title="{N₁ । sk₂|N₁ । sk₃|prime(N₁)|⇊|⊥}" target="_vizar">
<polygon fill="#fa6900" stroke="#7f7542" points="144,-16.5 144,-91.5 214,-91.5 214,-16.5 144,-16.5"/>
<text text-anchor="middle" x="179" y="-80.3" font-family="Times,serif" font-size="14.00">N₁ । sk₂</text>
<polyline fill="none" stroke="#7f7542" points="144,-76.5 214,-76.5 "/>
<text text-anchor="middle" x="179" y="-65.3" font-family="Times,serif" font-size="14.00">N₁ । sk₃</text>
<polyline fill="none" stroke="#7f7542" points="144,-61.5 214,-61.5 "/>
<text text-anchor="middle" x="179" y="-50.3" font-family="Times,serif" font-size="14.00">prime(N₁)</text>
<polyline fill="none" stroke="#7f7542" points="144,-46.5 214,-46.5 "/>
<text text-anchor="middle" x="179" y="-35.3" font-family="Times,serif" font-size="14.00">⇊</text>
<polyline fill="none" stroke="#7f7542" points="144,-31.5 214,-31.5 "/>
<text text-anchor="middle" x="179" y="-20.3" font-family="Times,serif" font-size="14.00">⊥</text>
</a>
</g>
</g>
<!-- c_0_120&#45;&gt;c_0_148 -->
<g id="edge5" class="edge">
<title>c_0_120&#45;&gt;c_0_148</title>
<path fill="none" stroke="black" stroke-dasharray="5,2" d="M179,-128.43C179,-128.43 179,-101.67 179,-101.67"/>
<polygon fill="black" stroke="black" points="182.5,-101.67 179,-91.67 175.5,-101.67 182.5,-101.67"/>
</g>
</g>
</svg>
