<?xml version="1.0" encoding="UTF-8" standalone="no"?>
<!DOCTYPE svg PUBLIC "-//W3C//DTD SVG 1.1//EN"
 "http://www.w3.org/Graphics/SVG/1.1/DTD/svg11.dtd">
<!-- Generated by graphviz version 5.0.0 (0)
 -->
<!-- Title: proof Pages: 1 -->
<svg width="296pt" height="205pt"
 viewBox="0.00 0.00 296.00 205.00" xmlns="http://www.w3.org/2000/svg" xmlns:xlink="http://www.w3.org/1999/xlink">
<g id="graph0" class="graph" transform="scale(1 1) rotate(0) translate(4 201)">
<title>proof</title>
<g id="clust1" class="cluster">
<title>cluster_0</title>
<polygon fill="transparent" stroke="black" stroke-dasharray="1,5" points="8,-157 8,-189 280,-189 280,-157 8,-157"/>
</g>
<g id="clust2" class="cluster">
<title>cluster_1</title>
<polygon fill="transparent" stroke="black" stroke-width="2" points="59,-105 59,-137 209,-137 209,-105 59,-105"/>
</g>
<g id="clust3" class="cluster">
<title>cluster_2</title>
<polygon fill="transparent" stroke="black" stroke-dasharray="1,5" points="8,-8 8,-85 272,-85 272,-8 8,-8"/>
</g>
<!-- c_0_180 -->
<g id="node1" class="node">
<title>c_0_180</title>
<g id="a_node1"><a xlink:href="c_0_180.html" xlink:title="{fib(Ø + 2) = 1 + Ø}" target="_vizar">
<polygon fill="#f8edd1" stroke="#7f7542" points="138.5,-165.5 138.5,-180.5 271.5,-180.5 271.5,-165.5 138.5,-165.5"/>
<text text-anchor="middle" x="205" y="-169.3" font-family="Times,serif" font-size="14.00">fib(Ø + 2) = 1 + Ø</text>
</a>
</g>
</g>
<!-- c_0_197 -->
<g id="node3" class="node">
<title>c_0_197</title>
<g id="a_node3"><a xlink:href="c_0_197.html" xlink:title="{1 + Ø = fib(Ø + 2)}" target="_vizar">
<polygon fill="#f8edd1" stroke="#7f7542" points="67.5,-113.5 67.5,-128.5 200.5,-128.5 200.5,-113.5 67.5,-113.5"/>
<text text-anchor="middle" x="134" y="-117.3" font-family="Times,serif" font-size="14.00">1 + Ø = fib(Ø + 2)</text>
</a>
</g>
</g>
<!-- c_0_180&#45;&gt;c_0_197 -->
<g id="edge1" class="edge">
<title>c_0_180&#45;&gt;c_0_197</title>
<path fill="none" stroke="black" d="M169.5,-165.33C169.5,-165.33 169.5,-138.7 169.5,-138.7"/>
<polygon fill="black" stroke="black" points="173,-138.7 169.5,-128.7 166,-138.7 173,-138.7"/>
</g>
<!-- c_0_181 -->
<g id="node2" class="node">
<title>c_0_181</title>
<g id="a_node2"><a xlink:href="c_0_181.html" xlink:title="{Ø + 2 = Ø + 2}" target="_vizar">
<polygon fill="#f8edd1" stroke="#7f7542" points="16,-165.5 16,-180.5 120,-180.5 120,-165.5 16,-165.5"/>
<text text-anchor="middle" x="68" y="-169.3" font-family="Times,serif" font-size="14.00">Ø + 2 = Ø + 2</text>
</a>
</g>
</g>
<!-- c_0_181&#45;&gt;c_0_197 -->
<g id="edge2" class="edge">
<title>c_0_181&#45;&gt;c_0_197</title>
<path fill="none" stroke="black" d="M93.75,-165.33C93.75,-165.33 93.75,-138.7 93.75,-138.7"/>
<polygon fill="black" stroke="black" points="97.25,-138.7 93.75,-128.7 90.25,-138.7 97.25,-138.7"/>
</g>
<!-- c_0_205 -->
<g id="node4" class="node">
<title>c_0_205</title>
<g id="a_node4"><a xlink:href="c_0_205.html" xlink:title="{N₁ । fib(fib(Ø + 2))|prime(N₁)|⇊|⊥}" target="_vizar">
<polygon fill="#f8edd1" stroke="#7f7542" points="134,-16.5 134,-76.5 264,-76.5 264,-16.5 134,-16.5"/>
<text text-anchor="middle" x="199" y="-65.3" font-family="Times,serif" font-size="14.00">N₁ । fib(fib(Ø + 2))</text>
<polyline fill="none" stroke="#7f7542" points="134,-61.5 264,-61.5 "/>
<text text-anchor="middle" x="199" y="-50.3" font-family="Times,serif" font-size="14.00">prime(N₁)</text>
<polyline fill="none" stroke="#7f7542" points="134,-46.5 264,-46.5 "/>
<text text-anchor="middle" x="199" y="-35.3" font-family="Times,serif" font-size="14.00">⇊</text>
<polyline fill="none" stroke="#7f7542" points="134,-31.5 264,-31.5 "/>
<text text-anchor="middle" x="199" y="-20.3" font-family="Times,serif" font-size="14.00">⊥</text>
</a>
</g>
</g>
<!-- c_0_197&#45;&gt;c_0_205 -->
<g id="edge3" class="edge">
<title>c_0_197&#45;&gt;c_0_205</title>
<path fill="none" stroke="black" stroke-dasharray="5,2" d="M167.25,-113.31C167.25,-113.31 167.25,-86.51 167.25,-86.51"/>
<polygon fill="black" stroke="black" points="170.75,-86.51 167.25,-76.51 163.75,-86.51 170.75,-86.51"/>
</g>
<!-- c_0_206 -->
<g id="node5" class="node">
<title>c_0_206</title>
<g id="a_node5"><a xlink:href="c_0_206.html" xlink:title="{fib(Ø + 2) = 1}" target="_vizar">
<polygon fill="#f8edd1" stroke="#7f7542" points="16,-39 16,-54 116,-54 116,-39 16,-39"/>
<text text-anchor="middle" x="66" y="-42.8" font-family="Times,serif" font-size="14.00">fib(Ø + 2) = 1</text>
</a>
</g>
</g>
<!-- c_0_197&#45;&gt;c_0_206 -->
<g id="edge4" class="edge">
<title>c_0_197&#45;&gt;c_0_206</title>
<path fill="none" stroke="black" stroke-dasharray="5,2" d="M91.75,-113.31C91.75,-113.31 91.75,-64.26 91.75,-64.26"/>
<polygon fill="black" stroke="black" points="95.25,-64.26 91.75,-54.26 88.25,-64.26 95.25,-64.26"/>
</g>
</g>
</svg>
