<?xml version="1.0" encoding="UTF-8" standalone="no"?>
<!DOCTYPE svg PUBLIC "-//W3C//DTD SVG 1.1//EN"
 "http://www.w3.org/Graphics/SVG/1.1/DTD/svg11.dtd">
<!-- Generated by graphviz version 5.0.0 (0)
 -->
<!-- Title: proof Pages: 1 -->
<svg width="165pt" height="160pt"
 viewBox="0.00 0.00 165.00 160.00" xmlns="http://www.w3.org/2000/svg" xmlns:xlink="http://www.w3.org/1999/xlink">
<g id="graph0" class="graph" transform="scale(1 1) rotate(0) translate(4 156)">
<title>proof</title>
<g id="clust1" class="cluster">
<title>cluster_0</title>
<polygon fill="transparent" stroke="black" stroke-dasharray="1,5" points="13,-112 13,-144 149,-144 149,-112 13,-112"/>
</g>
<g id="clust2" class="cluster">
<title>cluster_1</title>
<polygon fill="transparent" stroke="black" stroke-width="2" points="39,-60 39,-92 107,-92 107,-60 39,-60"/>
</g>
<g id="clust3" class="cluster">
<title>cluster_2</title>
<polygon fill="transparent" stroke="black" stroke-dasharray="1,5" points="8,-8 8,-40 138,-40 138,-8 8,-8"/>
</g>
<!-- c_0_47 -->
<g id="node1" class="node">
<title>c_0_47</title>
<g id="a_node1"><a xlink:href="c_0_47.html" xlink:title="{sk₂ ∈ ℕ}" target="_vizar">
<polygon fill="#fa6900" stroke="#7f7542" points="87,-120.5 87,-135.5 141,-135.5 141,-120.5 87,-120.5"/>
<text text-anchor="middle" x="114" y="-124.3" font-family="Times,serif" font-size="14.00">sk₂ ∈ ℕ</text>
</a>
</g>
</g>
<!-- c_0_195 -->
<g id="node3" class="node">
<title>c_0_195</title>
<g id="a_node3"><a xlink:href="c_0_195.html" xlink:title="{sk₂ ∈ ℤ}" target="_vizar">
<polygon fill="#fa6900" stroke="#7f7542" points="47,-68.5 47,-83.5 99,-83.5 99,-68.5 47,-68.5"/>
<text text-anchor="middle" x="73" y="-72.3" font-family="Times,serif" font-size="14.00">sk₂ ∈ ℤ</text>
</a>
</g>
</g>
<!-- c_0_47&#45;&gt;c_0_195 -->
<g id="edge1" class="edge">
<title>c_0_47&#45;&gt;c_0_195</title>
<path fill="none" stroke="black" d="M93,-120.33C93,-120.33 93,-93.7 93,-93.7"/>
<polygon fill="black" stroke="black" points="96.5,-93.7 93,-83.7 89.5,-93.7 96.5,-93.7"/>
</g>
<!-- c_0_154 -->
<g id="node2" class="node">
<title>c_0_154</title>
<g id="a_node2"><a xlink:href="c_0_154.html" xlink:title="{N₁ ∈ ℤ}" target="_vizar">
<polygon fill="#f8edd1" stroke="#7f7542" points="21,-120.5 21,-135.5 69,-135.5 69,-120.5 21,-120.5"/>
<text text-anchor="middle" x="45" y="-124.3" font-family="Times,serif" font-size="14.00">N₁ ∈ ℤ</text>
</a>
</g>
</g>
<!-- c_0_154&#45;&gt;c_0_195 -->
<g id="edge2" class="edge">
<title>c_0_154&#45;&gt;c_0_195</title>
<path fill="none" stroke="black" d="M58,-120.33C58,-120.33 58,-93.7 58,-93.7"/>
<polygon fill="black" stroke="black" points="61.5,-93.7 58,-83.7 54.5,-93.7 61.5,-93.7"/>
</g>
<!-- c_0_204 -->
<g id="node4" class="node">
<title>c_0_204</title>
<g id="a_node4"><a xlink:href="c_0_204.html" xlink:title="{gcd(sk₂,sk₃) = 1}" target="_vizar">
<polygon fill="#fa6900" stroke="#7f7542" points="16.5,-16.5 16.5,-31.5 129.5,-31.5 129.5,-16.5 16.5,-16.5"/>
<text text-anchor="middle" x="73" y="-20.3" font-family="Times,serif" font-size="14.00">gcd(sk₂,sk₃) = 1</text>
</a>
</g>
</g>
<!-- c_0_195&#45;&gt;c_0_204 -->
<g id="edge3" class="edge">
<title>c_0_195&#45;&gt;c_0_204</title>
<path fill="none" stroke="black" stroke-dasharray="5,2" d="M73,-68.33C73,-68.33 73,-41.7 73,-41.7"/>
<polygon fill="black" stroke="black" points="76.5,-41.7 73,-31.7 69.5,-41.7 76.5,-41.7"/>
</g>
</g>
</svg>
