<?xml version="1.0" encoding="UTF-8" standalone="no"?>
<!DOCTYPE svg PUBLIC "-//W3C//DTD SVG 1.1//EN"
 "http://www.w3.org/Graphics/SVG/1.1/DTD/svg11.dtd">
<!-- Generated by graphviz version 5.0.0 (0)
 -->
<!-- Title: proof Pages: 1 -->
<svg width="160pt" height="160pt"
 viewBox="0.00 0.00 160.00 160.00" xmlns="http://www.w3.org/2000/svg" xmlns:xlink="http://www.w3.org/1999/xlink">
<g id="graph0" class="graph" transform="scale(1 1) rotate(0) translate(4 156)">
<title>proof</title>
<g id="clust1" class="cluster">
<title>cluster_0</title>
<polygon fill="transparent" stroke="black" stroke-dasharray="1,5" points="8,-112 8,-144 132,-144 132,-112 8,-112"/>
</g>
<g id="clust2" class="cluster">
<title>cluster_1</title>
<polygon fill="transparent" stroke="black" stroke-width="2" points="47,-60 47,-92 107,-92 107,-60 47,-60"/>
</g>
<g id="clust3" class="cluster">
<title>cluster_2</title>
<polygon fill="transparent" stroke="black" stroke-dasharray="1,5" points="10,-8 10,-40 144,-40 144,-8 10,-8"/>
</g>
<!-- c_0_115 -->
<g id="node1" class="node">
<title>c_0_115</title>
<g id="a_node1"><a xlink:href="c_0_115.html" xlink:title="{ω = ℕ}" target="_parent">
<polygon fill="#f8edd1" stroke="#7f7542" points="78,-120.5 78,-135.5 124,-135.5 124,-120.5 78,-120.5"/>
<text text-anchor="middle" x="101" y="-124.3" font-family="Times,serif" font-size="14.00">ω = ℕ</text>
</a>
</g>
</g>
<!-- c_0_162 -->
<g id="node3" class="node">
<title>c_0_162</title>
<g id="a_node3"><a xlink:href="c_0_162.html" xlink:title="{Ø ∈ ℕ}" target="_parent">
<polygon fill="#f8edd1" stroke="#7f7542" points="55,-68.5 55,-83.5 99,-83.5 99,-68.5 55,-68.5"/>
<text text-anchor="middle" x="77" y="-72.3" font-family="Times,serif" font-size="14.00">Ø ∈ ℕ</text>
</a>
</g>
</g>
<!-- c_0_115&#45;&gt;c_0_162 -->
<g id="edge1" class="edge">
<title>c_0_115&#45;&gt;c_0_162</title>
<path fill="none" stroke="black" d="M88.5,-120.33C88.5,-120.33 88.5,-93.7 88.5,-93.7"/>
<polygon fill="black" stroke="black" points="92,-93.7 88.5,-83.7 85,-93.7 92,-93.7"/>
</g>
<!-- c_0_110 -->
<g id="node2" class="node">
<title>c_0_110</title>
<g id="a_node2"><a xlink:href="c_0_110.html" xlink:title="{Ø ∈ ω}" target="_parent">
<polygon fill="#f8edd1" stroke="#7f7542" points="16.5,-120.5 16.5,-135.5 59.5,-135.5 59.5,-120.5 16.5,-120.5"/>
<text text-anchor="middle" x="38" y="-124.3" font-family="Times,serif" font-size="14.00">Ø ∈ ω</text>
</a>
</g>
</g>
<!-- c_0_110&#45;&gt;c_0_162 -->
<g id="edge2" class="edge">
<title>c_0_110&#45;&gt;c_0_162</title>
<path fill="none" stroke="black" d="M59.69,-128C64.78,-128 68.75,-128 68.75,-128 68.75,-128 68.75,-93.67 68.75,-93.67"/>
<polygon fill="black" stroke="black" points="72.25,-93.67 68.75,-83.67 65.25,-93.67 72.25,-93.67"/>
</g>
<!-- c_0_182 -->
<g id="node4" class="node">
<title>c_0_182</title>
<g id="a_node4"><a xlink:href="c_0_182.html" xlink:title="{Ø + C₁ = Ø + C₁}" target="_parent">
<polygon fill="#f8edd1" stroke="#7f7542" points="18,-16.5 18,-31.5 136,-31.5 136,-16.5 18,-16.5"/>
<text text-anchor="middle" x="77" y="-20.3" font-family="Times,serif" font-size="14.00">Ø + C₁ = Ø + C₁</text>
</a>
</g>
</g>
<!-- c_0_162&#45;&gt;c_0_182 -->
<g id="edge3" class="edge">
<title>c_0_162&#45;&gt;c_0_182</title>
<path fill="none" stroke="black" stroke-dasharray="5,2" d="M77,-68.33C77,-68.33 77,-41.7 77,-41.7"/>
<polygon fill="black" stroke="black" points="80.5,-41.7 77,-31.7 73.5,-41.7 80.5,-41.7"/>
</g>
</g>
</svg>
