<?xml version="1.0" encoding="UTF-8" standalone="no"?>
<!DOCTYPE svg PUBLIC "-//W3C//DTD SVG 1.1//EN"
 "http://www.w3.org/Graphics/SVG/1.1/DTD/svg11.dtd">
<!-- Generated by graphviz version 5.0.0 (0)
 -->
<!-- Title: proof Pages: 1 -->
<svg width="388pt" height="190pt"
 viewBox="0.00 0.00 388.00 190.00" xmlns="http://www.w3.org/2000/svg" xmlns:xlink="http://www.w3.org/1999/xlink">
<g id="graph0" class="graph" transform="scale(1 1) rotate(0) translate(4 186)">
<title>proof</title>
<g id="clust1" class="cluster">
<title>cluster_0</title>
<polygon fill="transparent" stroke="black" stroke-dasharray="1,5" points="8,-112 8,-174 372,-174 372,-112 8,-112"/>
</g>
<g id="clust2" class="cluster">
<title>cluster_1</title>
<polygon fill="transparent" stroke="black" stroke-width="2" points="123,-60 123,-92 315,-92 315,-60 123,-60"/>
</g>
<g id="clust3" class="cluster">
<title>cluster_2</title>
<polygon fill="transparent" stroke="black" stroke-dasharray="1,5" points="188,-8 188,-40 250,-40 250,-8 188,-8"/>
</g>
<!-- c_0_185 -->
<g id="node1" class="node">
<title>c_0_185</title>
<g id="a_node1"><a xlink:href="c_0_185.html" xlink:title="{sk₁ । fib(sk₂)}" target="_vizar">
<polygon fill="#fa6900" stroke="#7f7542" points="278.5,-135.5 278.5,-150.5 363.5,-150.5 363.5,-135.5 278.5,-135.5"/>
<text text-anchor="middle" x="321" y="-139.3" font-family="Times,serif" font-size="14.00">sk₁ । fib(sk₂)</text>
</a>
</g>
</g>
<!-- c_0_207 -->
<g id="node4" class="node">
<title>c_0_207</title>
<g id="a_node4"><a xlink:href="c_0_207.html" xlink:title="{sk₁ । gcd(fib(sk₂),fib(sk₃))}" target="_vizar">
<polygon fill="#fa6900" stroke="#7f7542" points="131.5,-68.5 131.5,-83.5 306.5,-83.5 306.5,-68.5 131.5,-68.5"/>
<text text-anchor="middle" x="219" y="-72.3" font-family="Times,serif" font-size="14.00">sk₁ । gcd(fib(sk₂),fib(sk₃))</text>
</a>
</g>
</g>
<!-- c_0_185&#45;&gt;c_0_207 -->
<g id="edge1" class="edge">
<title>c_0_185&#45;&gt;c_0_207</title>
<path fill="none" stroke="black" d="M292.5,-135.31C292.5,-135.31 292.5,-93.6 292.5,-93.6"/>
<polygon fill="black" stroke="black" points="296,-93.6 292.5,-83.6 289,-93.6 296,-93.6"/>
</g>
<!-- c_0_171 -->
<g id="node2" class="node">
<title>c_0_171</title>
<g id="a_node2"><a xlink:href="c_0_171.html" xlink:title="{fib(sk₂) ∈ ℕ}" target="_vizar">
<polygon fill="#fa6900" stroke="#7f7542" points="178,-135.5 178,-150.5 260,-150.5 260,-135.5 178,-135.5"/>
<text text-anchor="middle" x="219" y="-139.3" font-family="Times,serif" font-size="14.00">fib(sk₂) ∈ ℕ</text>
</a>
</g>
</g>
<!-- c_0_171&#45;&gt;c_0_207 -->
<g id="edge2" class="edge">
<title>c_0_171&#45;&gt;c_0_207</title>
<path fill="none" stroke="black" d="M219,-135.31C219,-135.31 219,-93.6 219,-93.6"/>
<polygon fill="black" stroke="black" points="222.5,-93.6 219,-83.6 215.5,-93.6 222.5,-93.6"/>
</g>
<!-- c_0_184 -->
<g id="node3" class="node">
<title>c_0_184</title>
<g id="a_node3"><a xlink:href="c_0_184.html" xlink:title="{sk₁ । N₁|⇊|sk₁ । gcd(N₁,fib(sk₃))}" target="_vizar">
<polygon fill="#fa6900" stroke="#7f7542" points="16.5,-120.5 16.5,-165.5 159.5,-165.5 159.5,-120.5 16.5,-120.5"/>
<text text-anchor="middle" x="88" y="-154.3" font-family="Times,serif" font-size="14.00">sk₁ । N₁</text>
<polyline fill="none" stroke="#7f7542" points="16.5,-150.5 159.5,-150.5 "/>
<text text-anchor="middle" x="88" y="-139.3" font-family="Times,serif" font-size="14.00">⇊</text>
<polyline fill="none" stroke="#7f7542" points="16.5,-135.5 159.5,-135.5 "/>
<text text-anchor="middle" x="88" y="-124.3" font-family="Times,serif" font-size="14.00">sk₁ । gcd(N₁,fib(sk₃))</text>
</a>
</g>
</g>
<!-- c_0_184&#45;&gt;c_0_207 -->
<g id="edge3" class="edge">
<title>c_0_184&#45;&gt;c_0_207</title>
<path fill="none" stroke="black" d="M145.5,-120.32C145.5,-120.32 145.5,-93.59 145.5,-93.59"/>
<polygon fill="black" stroke="black" points="149,-93.59 145.5,-83.59 142,-93.59 149,-93.59"/>
</g>
<!-- c_0_211 -->
<g id="node5" class="node">
<title>c_0_211</title>
<g id="a_node5"><a xlink:href="c_0_211.html" xlink:title="{sk₁ । 1}" target="_vizar">
<polygon fill="#fa6900" stroke="#7f7542" points="196.5,-16.5 196.5,-31.5 241.5,-31.5 241.5,-16.5 196.5,-16.5"/>
<text text-anchor="middle" x="219" y="-20.3" font-family="Times,serif" font-size="14.00">sk₁ । 1</text>
</a>
</g>
</g>
<!-- c_0_207&#45;&gt;c_0_211 -->
<g id="edge4" class="edge">
<title>c_0_207&#45;&gt;c_0_211</title>
<path fill="none" stroke="black" stroke-dasharray="5,2" d="M219,-68.33C219,-68.33 219,-41.7 219,-41.7"/>
<polygon fill="black" stroke="black" points="222.5,-41.7 219,-31.7 215.5,-41.7 222.5,-41.7"/>
</g>
</g>
</svg>
