<?xml version="1.0" encoding="UTF-8" standalone="no"?>
<!DOCTYPE svg PUBLIC "-//W3C//DTD SVG 1.1//EN"
 "http://www.w3.org/Graphics/SVG/1.1/DTD/svg11.dtd">
<!-- Generated by graphviz version 5.0.0 (0)
 -->
<!-- Title: proof Pages: 1 -->
<svg width="387pt" height="160pt"
 viewBox="0.00 0.00 387.00 160.00" xmlns="http://www.w3.org/2000/svg" xmlns:xlink="http://www.w3.org/1999/xlink">
<g id="graph0" class="graph" transform="scale(1 1) rotate(0) translate(4 156)">
<title>proof</title>
<g id="clust1" class="cluster">
<title>cluster_0</title>
<polygon fill="transparent" stroke="black" stroke-dasharray="1,5" points="19,-112 19,-144 371,-144 371,-112 19,-112"/>
</g>
<g id="clust2" class="cluster">
<title>cluster_1</title>
<polygon fill="transparent" stroke="black" stroke-width="2" points="8,-60 8,-92 326,-92 326,-60 8,-60"/>
</g>
<g id="clust3" class="cluster">
<title>cluster_2</title>
<polygon fill="transparent" stroke="black" stroke-dasharray="1,5" points="74,-8 74,-40 260,-40 260,-8 74,-8"/>
</g>
<!-- c_0_189 -->
<g id="node1" class="node">
<title>c_0_189</title>
<g id="a_node1"><a xlink:href="c_0_189.html" xlink:title="{gcd(N₁,fib(sk₃)) = gcd(N₁,fib(sk₃))}" target="_vizar">
<polygon fill="#fa6900" stroke="#7f7542" points="127,-120.5 127,-135.5 363,-135.5 363,-120.5 127,-120.5"/>
<text text-anchor="middle" x="245" y="-124.3" font-family="Times,serif" font-size="14.00">gcd(N₁,fib(sk₃)) = gcd(N₁,fib(sk₃))</text>
</a>
</g>
</g>
<!-- c_0_203 -->
<g id="node3" class="node">
<title>c_0_203</title>
<g id="a_node3"><a xlink:href="c_0_203.html" xlink:title="{gcd(fib(sk₂),fib(sk₃)) = gcd(fib(sk₂),fib(sk₃))}" target="_vizar">
<polygon fill="#fa6900" stroke="#7f7542" points="16.5,-68.5 16.5,-83.5 317.5,-83.5 317.5,-68.5 16.5,-68.5"/>
<text text-anchor="middle" x="167" y="-72.3" font-family="Times,serif" font-size="14.00">gcd(fib(sk₂),fib(sk₃)) = gcd(fib(sk₂),fib(sk₃))</text>
</a>
</g>
</g>
<!-- c_0_189&#45;&gt;c_0_203 -->
<g id="edge1" class="edge">
<title>c_0_189&#45;&gt;c_0_203</title>
<path fill="none" stroke="black" d="M222.25,-120.33C222.25,-120.33 222.25,-93.7 222.25,-93.7"/>
<polygon fill="black" stroke="black" points="225.75,-93.7 222.25,-83.7 218.75,-93.7 225.75,-93.7"/>
</g>
<!-- c_0_171 -->
<g id="node2" class="node">
<title>c_0_171</title>
<g id="a_node2"><a xlink:href="c_0_171.html" xlink:title="{fib(sk₂) ∈ ℕ}" target="_vizar">
<polygon fill="#fa6900" stroke="#7f7542" points="27,-120.5 27,-135.5 109,-135.5 109,-120.5 27,-120.5"/>
<text text-anchor="middle" x="68" y="-124.3" font-family="Times,serif" font-size="14.00">fib(sk₂) ∈ ℕ</text>
</a>
</g>
</g>
<!-- c_0_171&#45;&gt;c_0_203 -->
<g id="edge2" class="edge">
<title>c_0_171&#45;&gt;c_0_203</title>
<path fill="none" stroke="black" d="M68,-120.33C68,-120.33 68,-93.7 68,-93.7"/>
<polygon fill="black" stroke="black" points="71.5,-93.7 68,-83.7 64.5,-93.7 71.5,-93.7"/>
</g>
<!-- c_0_208 -->
<g id="node4" class="node">
<title>c_0_208</title>
<g id="a_node4"><a xlink:href="c_0_208.html" xlink:title="{gcd(fib(sk₂),fib(sk₃)) = 1}" target="_vizar">
<polygon fill="#fa6900" stroke="#7f7542" points="82,-16.5 82,-31.5 252,-31.5 252,-16.5 82,-16.5"/>
<text text-anchor="middle" x="167" y="-20.3" font-family="Times,serif" font-size="14.00">gcd(fib(sk₂),fib(sk₃)) = 1</text>
</a>
</g>
</g>
<!-- c_0_203&#45;&gt;c_0_208 -->
<g id="edge3" class="edge">
<title>c_0_203&#45;&gt;c_0_208</title>
<path fill="none" stroke="black" stroke-dasharray="5,2" d="M167,-68.33C167,-68.33 167,-41.7 167,-41.7"/>
<polygon fill="black" stroke="black" points="170.5,-41.7 167,-31.7 163.5,-41.7 170.5,-41.7"/>
</g>
</g>
</svg>
