<?xml version="1.0" encoding="UTF-8" standalone="no"?>
<!DOCTYPE svg PUBLIC "-//W3C//DTD SVG 1.1//EN"
 "http://www.w3.org/Graphics/SVG/1.1/DTD/svg11.dtd">
<!-- Generated by graphviz version 5.0.0 (0)
 -->
<!-- Title: proof Pages: 1 -->
<svg width="225pt" height="160pt"
 viewBox="0.00 0.00 225.00 160.00" xmlns="http://www.w3.org/2000/svg" xmlns:xlink="http://www.w3.org/1999/xlink">
<g id="graph0" class="graph" transform="scale(1 1) rotate(0) translate(4 156)">
<title>proof</title>
<g id="clust1" class="cluster">
<title>cluster_0</title>
<polygon fill="transparent" stroke="black" stroke-dasharray="1,5" points="8,-112 8,-144 134,-144 134,-112 8,-112"/>
</g>
<g id="clust2" class="cluster">
<title>cluster_1</title>
<polygon fill="transparent" stroke="black" stroke-width="2" points="49,-60 49,-92 113,-92 113,-60 49,-60"/>
</g>
<g id="clust3" class="cluster">
<title>cluster_2</title>
<polygon fill="transparent" stroke="black" stroke-dasharray="1,5" points="11,-8 11,-40 209,-40 209,-8 11,-8"/>
</g>
<!-- c_0_115 -->
<g id="node1" class="node">
<title>c_0_115</title>
<g id="a_node1"><a xlink:href="c_0_115.html" xlink:title="{ω = ℕ}" target="_vizar">
<polygon fill="#f8edd1" stroke="#7f7542" points="80,-120.5 80,-135.5 126,-135.5 126,-120.5 80,-120.5"/>
<text text-anchor="middle" x="103" y="-124.3" font-family="Times,serif" font-size="14.00">ω = ℕ</text>
</a>
</g>
</g>
<!-- c_0_146 -->
<g id="node3" class="node">
<title>c_0_146</title>
<g id="a_node3"><a xlink:href="c_0_146.html" xlink:title="{ℕ ⊆ ℕ}" target="_vizar">
<polygon fill="#f8edd1" stroke="#7f7542" points="57.5,-68.5 57.5,-83.5 104.5,-83.5 104.5,-68.5 57.5,-68.5"/>
<text text-anchor="middle" x="81" y="-72.3" font-family="Times,serif" font-size="14.00">ℕ ⊆ ℕ</text>
</a>
</g>
</g>
<!-- c_0_115&#45;&gt;c_0_146 -->
<g id="edge1" class="edge">
<title>c_0_115&#45;&gt;c_0_146</title>
<path fill="none" stroke="black" d="M92.25,-120.33C92.25,-120.33 92.25,-93.7 92.25,-93.7"/>
<polygon fill="black" stroke="black" points="95.75,-93.7 92.25,-83.7 88.75,-93.7 95.75,-93.7"/>
</g>
<!-- c_0_88 -->
<g id="node2" class="node">
<title>c_0_88</title>
<g id="a_node2"><a xlink:href="c_0_88.html" xlink:title="{ω ⊆ ℕ}" target="_vizar">
<polygon fill="#f8edd1" stroke="#7f7542" points="16,-120.5 16,-135.5 62,-135.5 62,-120.5 16,-120.5"/>
<text text-anchor="middle" x="39" y="-124.3" font-family="Times,serif" font-size="14.00">ω ⊆ ℕ</text>
</a>
</g>
</g>
<!-- c_0_88&#45;&gt;c_0_146 -->
<g id="edge2" class="edge">
<title>c_0_88&#45;&gt;c_0_146</title>
<path fill="none" stroke="black" d="M62.26,-128C67.22,-128 71,-128 71,-128 71,-128 71,-93.67 71,-93.67"/>
<polygon fill="black" stroke="black" points="74.5,-93.67 71,-83.67 67.5,-93.67 74.5,-93.67"/>
</g>
<!-- c_0_171 -->
<g id="node4" class="node">
<title>c_0_171</title>
<g id="a_node4"><a xlink:href="c_0_171.html" xlink:title="{fib(sk₂) ∈ ℕ}" target="_vizar">
<polygon fill="#fa6900" stroke="#7f7542" points="119,-16.5 119,-31.5 201,-31.5 201,-16.5 119,-16.5"/>
<text text-anchor="middle" x="160" y="-20.3" font-family="Times,serif" font-size="14.00">fib(sk₂) ∈ ℕ</text>
</a>
</g>
</g>
<!-- c_0_146&#45;&gt;c_0_171 -->
<g id="edge3" class="edge">
<title>c_0_146&#45;&gt;c_0_171</title>
<path fill="none" stroke="black" stroke-dasharray="5,2" d="M104.66,-76C113.98,-76 122.5,-76 122.5,-76 122.5,-76 122.5,-41.67 122.5,-41.67"/>
<polygon fill="black" stroke="black" points="126,-41.67 122.5,-31.67 119,-41.67 126,-41.67"/>
</g>
<!-- c_0_145 -->
<g id="node5" class="node">
<title>c_0_145</title>
<g id="a_node5"><a xlink:href="c_0_145.html" xlink:title="{fib(sk₃) ∈ ℕ}" target="_vizar">
<polygon fill="#fa6900" stroke="#7f7542" points="19,-16.5 19,-31.5 101,-31.5 101,-16.5 19,-16.5"/>
<text text-anchor="middle" x="60" y="-20.3" font-family="Times,serif" font-size="14.00">fib(sk₃) ∈ ℕ</text>
</a>
</g>
</g>
<!-- c_0_146&#45;&gt;c_0_145 -->
<g id="edge4" class="edge">
<title>c_0_146&#45;&gt;c_0_145</title>
<path fill="none" stroke="black" stroke-dasharray="5,2" d="M79.25,-68.33C79.25,-68.33 79.25,-41.7 79.25,-41.7"/>
<polygon fill="black" stroke="black" points="82.75,-41.7 79.25,-31.7 75.75,-41.7 82.75,-41.7"/>
</g>
</g>
</svg>
