<?xml version="1.0" encoding="UTF-8" standalone="no"?>
<!DOCTYPE svg PUBLIC "-//W3C//DTD SVG 1.1//EN"
 "http://www.w3.org/Graphics/SVG/1.1/DTD/svg11.dtd">
<!-- Generated by graphviz version 5.0.0 (0)
 -->
<!-- Title: proof Pages: 1 -->
<svg width="228pt" height="205pt"
 viewBox="0.00 0.00 228.00 205.00" xmlns="http://www.w3.org/2000/svg" xmlns:xlink="http://www.w3.org/1999/xlink">
<g id="graph0" class="graph" transform="scale(1 1) rotate(0) translate(4 201)">
<title>proof</title>
<g id="clust1" class="cluster">
<title>cluster_0</title>
<polygon fill="transparent" stroke="black" stroke-dasharray="1,5" points="8,-142 8,-189 212,-189 212,-142 8,-142"/>
</g>
<g id="clust2" class="cluster">
<title>cluster_1</title>
<polygon fill="transparent" stroke="black" stroke-width="2" points="33,-75 33,-122 169,-122 169,-75 33,-75"/>
</g>
<g id="clust3" class="cluster">
<title>cluster_2</title>
<polygon fill="transparent" stroke="black" stroke-dasharray="1,5" points="31,-8 31,-55 171,-55 171,-8 31,-8"/>
</g>
<!-- c_0_97 -->
<g id="node1" class="node">
<title>c_0_97</title>
<g id="a_node1"><a xlink:href="c_0_97.html" xlink:title="{rel&#45;prime(N₁,N₂)|sk₁₂(N₁,N₂) । N₂}" target="_vizar">
<polygon fill="#f8edd1" stroke="#7f7542" points="88,-150.5 88,-180.5 204,-180.5 204,-150.5 88,-150.5"/>
<text text-anchor="middle" x="146" y="-169.3" font-family="Times,serif" font-size="14.00">rel&#45;prime(N₁,N₂)</text>
<polyline fill="none" stroke="#7f7542" points="88,-165.5 204,-165.5 "/>
<text text-anchor="middle" x="146" y="-154.3" font-family="Times,serif" font-size="14.00">sk₁₂(N₁,N₂) । N₂</text>
</a>
</g>
</g>
<!-- c_0_152 -->
<g id="node3" class="node">
<title>c_0_152</title>
<g id="a_node3"><a xlink:href="c_0_152.html" xlink:title="{rel&#45;prime(N₁,sk₃)|sk₁₂(N₁,sk₃) । sk₃}" target="_vizar">
<polygon fill="#fa6900" stroke="#7f7542" points="41,-83.5 41,-113.5 161,-113.5 161,-83.5 41,-83.5"/>
<text text-anchor="middle" x="101" y="-102.3" font-family="Times,serif" font-size="14.00">rel&#45;prime(N₁,sk₃)</text>
<polyline fill="none" stroke="#7f7542" points="41,-98.5 161,-98.5 "/>
<text text-anchor="middle" x="101" y="-87.3" font-family="Times,serif" font-size="14.00">sk₁₂(N₁,sk₃) । sk₃</text>
</a>
</g>
</g>
<!-- c_0_97&#45;&gt;c_0_152 -->
<g id="edge1" class="edge">
<title>c_0_97&#45;&gt;c_0_152</title>
<path fill="none" stroke="black" d="M124.5,-150.3C124.5,-150.3 124.5,-123.64 124.5,-123.64"/>
<polygon fill="black" stroke="black" points="128,-123.64 124.5,-113.64 121,-123.64 128,-123.64"/>
</g>
<!-- c_0_66 -->
<g id="node2" class="node">
<title>c_0_66</title>
<g id="a_node2"><a xlink:href="c_0_66.html" xlink:title="{sk₃ ∈ ℕ}" target="_vizar">
<polygon fill="#fa6900" stroke="#7f7542" points="16,-158 16,-173 70,-173 70,-158 16,-158"/>
<text text-anchor="middle" x="43" y="-161.8" font-family="Times,serif" font-size="14.00">sk₃ ∈ ℕ</text>
</a>
</g>
</g>
<!-- c_0_66&#45;&gt;c_0_152 -->
<g id="edge2" class="edge">
<title>c_0_66&#45;&gt;c_0_152</title>
<path fill="none" stroke="black" d="M55.5,-157.81C55.5,-157.81 55.5,-123.67 55.5,-123.67"/>
<polygon fill="black" stroke="black" points="59,-123.67 55.5,-113.67 52,-123.67 59,-123.67"/>
</g>
<!-- c_0_176 -->
<g id="node4" class="node">
<title>c_0_176</title>
<g id="a_node4"><a xlink:href="c_0_176.html" xlink:title="{rel&#45;prime(sk₂,sk₃)|sk₁₂(sk₂,sk₃) । sk₃}" target="_vizar">
<polygon fill="#fa6900" stroke="#7f7542" points="39,-16.5 39,-46.5 163,-46.5 163,-16.5 39,-16.5"/>
<text text-anchor="middle" x="101" y="-35.3" font-family="Times,serif" font-size="14.00">rel&#45;prime(sk₂,sk₃)</text>
<polyline fill="none" stroke="#7f7542" points="39,-31.5 163,-31.5 "/>
<text text-anchor="middle" x="101" y="-20.3" font-family="Times,serif" font-size="14.00">sk₁₂(sk₂,sk₃) । sk₃</text>
</a>
</g>
</g>
<!-- c_0_152&#45;&gt;c_0_176 -->
<g id="edge3" class="edge">
<title>c_0_152&#45;&gt;c_0_176</title>
<path fill="none" stroke="black" stroke-dasharray="5,2" d="M101,-83.3C101,-83.3 101,-56.64 101,-56.64"/>
<polygon fill="black" stroke="black" points="104.5,-56.64 101,-46.64 97.5,-56.64 104.5,-56.64"/>
</g>
</g>
</svg>
