<?xml version="1.0" encoding="UTF-8" standalone="no"?>
<!DOCTYPE svg PUBLIC "-//W3C//DTD SVG 1.1//EN"
 "http://www.w3.org/Graphics/SVG/1.1/DTD/svg11.dtd">
<!-- Generated by graphviz version 5.0.0 (0)
 -->
<!-- Title: proof Pages: 1 -->
<svg width="284pt" height="190pt"
 viewBox="0.00 0.00 284.00 190.00" xmlns="http://www.w3.org/2000/svg" xmlns:xlink="http://www.w3.org/1999/xlink">
<g id="graph0" class="graph" transform="scale(1 1) rotate(0) translate(4 186)">
<title>proof</title>
<g id="clust1" class="cluster">
<title>cluster_0</title>
<polygon fill="transparent" stroke="black" stroke-dasharray="1,5" points="107,-142 107,-174 169,-174 169,-142 107,-142"/>
</g>
<g id="clust2" class="cluster">
<title>cluster_1</title>
<polygon fill="transparent" stroke="black" stroke-width="2" points="107,-90 107,-122 169,-122 169,-90 107,-90"/>
</g>
<g id="clust3" class="cluster">
<title>cluster_2</title>
<polygon fill="transparent" stroke="black" stroke-dasharray="1,5" points="8,-8 8,-70 268,-70 268,-8 8,-8"/>
</g>
<!-- c_0_85 -->
<g id="node1" class="node">
<title>c_0_85</title>
<g id="a_node1"><a xlink:href="c_0_85.html" xlink:title="{ℕ = ω}" target="_vizar">
<polygon fill="#f8edd1" stroke="#7f7542" points="115,-150.5 115,-165.5 161,-165.5 161,-150.5 115,-150.5"/>
<text text-anchor="middle" x="138" y="-154.3" font-family="Times,serif" font-size="14.00">ℕ = ω</text>
</a>
</g>
</g>
<!-- c_0_115 -->
<g id="node2" class="node">
<title>c_0_115</title>
<g id="a_node2"><a xlink:href="c_0_115.html" xlink:title="{ω = ℕ}" target="_vizar">
<polygon fill="#f8edd1" stroke="#7f7542" points="115,-98.5 115,-113.5 161,-113.5 161,-98.5 115,-98.5"/>
<text text-anchor="middle" x="138" y="-102.3" font-family="Times,serif" font-size="14.00">ω = ℕ</text>
</a>
</g>
</g>
<!-- c_0_85&#45;&gt;c_0_115 -->
<g id="edge1" class="edge">
<title>c_0_85&#45;&gt;c_0_115</title>
<path fill="none" stroke="black" d="M138,-150.33C138,-150.33 138,-123.7 138,-123.7"/>
<polygon fill="black" stroke="black" points="141.5,-123.7 138,-113.7 134.5,-123.7 141.5,-123.7"/>
</g>
<!-- c_0_163 -->
<g id="node3" class="node">
<title>c_0_163</title>
<g id="a_node3"><a xlink:href="c_0_163.html" xlink:title="{X₁ ∈ ℕ|⇊|X₁ ∈ ℕ}" target="_vizar">
<polygon fill="#f8edd1" stroke="#7f7542" points="212,-16.5 212,-61.5 260,-61.5 260,-16.5 212,-16.5"/>
<text text-anchor="middle" x="236" y="-50.3" font-family="Times,serif" font-size="14.00">X₁ ∈ ℕ</text>
<polyline fill="none" stroke="#7f7542" points="212,-46.5 260,-46.5 "/>
<text text-anchor="middle" x="236" y="-35.3" font-family="Times,serif" font-size="14.00">⇊</text>
<polyline fill="none" stroke="#7f7542" points="212,-31.5 260,-31.5 "/>
<text text-anchor="middle" x="236" y="-20.3" font-family="Times,serif" font-size="14.00">X₁ ∈ ℕ</text>
</a>
</g>
</g>
<!-- c_0_115&#45;&gt;c_0_163 -->
<g id="edge2" class="edge">
<title>c_0_115&#45;&gt;c_0_163</title>
<path fill="none" stroke="black" stroke-dasharray="5,2" d="M156.17,-98.33C156.17,-83.86 156.17,-54 156.17,-54 156.17,-54 201.61,-54 201.61,-54"/>
<polygon fill="black" stroke="black" points="201.61,-57.5 211.61,-54 201.61,-50.5 201.61,-57.5"/>
</g>
<!-- c_0_146 -->
<g id="node4" class="node">
<title>c_0_146</title>
<g id="a_node4"><a xlink:href="c_0_146.html" xlink:title="{ℕ ⊆ ℕ}" target="_vizar">
<polygon fill="#f8edd1" stroke="#7f7542" points="146.5,-31.5 146.5,-46.5 193.5,-46.5 193.5,-31.5 146.5,-31.5"/>
<text text-anchor="middle" x="170" y="-35.3" font-family="Times,serif" font-size="14.00">ℕ ⊆ ℕ</text>
</a>
</g>
</g>
<!-- c_0_115&#45;&gt;c_0_146 -->
<g id="edge3" class="edge">
<title>c_0_115&#45;&gt;c_0_146</title>
<path fill="none" stroke="black" stroke-dasharray="5,2" d="M151.33,-98.31C151.33,-98.31 151.33,-56.6 151.33,-56.6"/>
<polygon fill="black" stroke="black" points="154.83,-56.6 151.33,-46.6 147.83,-56.6 154.83,-56.6"/>
</g>
<!-- c_0_162 -->
<g id="node5" class="node">
<title>c_0_162</title>
<g id="a_node5"><a xlink:href="c_0_162.html" xlink:title="{Ø ∈ ℕ}" target="_vizar">
<polygon fill="#f8edd1" stroke="#7f7542" points="84,-31.5 84,-46.5 128,-46.5 128,-31.5 84,-31.5"/>
<text text-anchor="middle" x="106" y="-35.3" font-family="Times,serif" font-size="14.00">Ø ∈ ℕ</text>
</a>
</g>
</g>
<!-- c_0_115&#45;&gt;c_0_162 -->
<g id="edge4" class="edge">
<title>c_0_115&#45;&gt;c_0_162</title>
<path fill="none" stroke="black" stroke-dasharray="5,2" d="M121.5,-98.31C121.5,-98.31 121.5,-56.6 121.5,-56.6"/>
<polygon fill="black" stroke="black" points="125,-56.6 121.5,-46.6 118,-56.6 125,-56.6"/>
</g>
<!-- c_0_143 -->
<g id="node6" class="node">
<title>c_0_143</title>
<g id="a_node6"><a xlink:href="c_0_143.html" xlink:title="{N₁ ∈ ℕ}" target="_vizar">
<polygon fill="#f8edd1" stroke="#7f7542" points="16,-31.5 16,-46.5 66,-46.5 66,-31.5 16,-31.5"/>
<text text-anchor="middle" x="41" y="-35.3" font-family="Times,serif" font-size="14.00">N₁ ∈ ℕ</text>
</a>
</g>
</g>
<!-- c_0_115&#45;&gt;c_0_143 -->
<g id="edge5" class="edge">
<title>c_0_115&#45;&gt;c_0_143</title>
<path fill="none" stroke="black" stroke-dasharray="5,2" d="M114.52,-106C85.81,-106 41,-106 41,-106 41,-106 41,-56.69 41,-56.69"/>
<polygon fill="black" stroke="black" points="44.5,-56.69 41,-46.69 37.5,-56.69 44.5,-56.69"/>
</g>
</g>
</svg>
