<?xml version="1.0" encoding="UTF-8" standalone="no"?>
<!DOCTYPE svg PUBLIC "-//W3C//DTD SVG 1.1//EN"
 "http://www.w3.org/Graphics/SVG/1.1/DTD/svg11.dtd">
<!-- Generated by graphviz version 5.0.0 (0)
 -->
<!-- Title: proof Pages: 1 -->
<svg width="240pt" height="190pt"
 viewBox="0.00 0.00 240.00 190.00" xmlns="http://www.w3.org/2000/svg" xmlns:xlink="http://www.w3.org/1999/xlink">
<g id="graph0" class="graph" transform="scale(1 1) rotate(0) translate(4 186)">
<title>proof</title>
<g id="clust1" class="cluster">
<title>cluster_0</title>
<polygon fill="transparent" stroke="black" stroke-dasharray="1,5" points="59,-142 59,-174 173,-174 173,-142 59,-142"/>
</g>
<g id="clust2" class="cluster">
<title>cluster_1</title>
<polygon fill="transparent" stroke="black" stroke-width="2" points="8,-60 8,-122 224,-122 224,-60 8,-60"/>
</g>
<g id="clust3" class="cluster">
<title>cluster_2</title>
<polygon fill="transparent" stroke="black" stroke-dasharray="1,5" points="27,-8 27,-40 205,-40 205,-8 27,-8"/>
</g>
<!-- t67_fib_num2 -->
<g id="node1" class="node">
<title>t67_fib_num2</title>
<g id="a_node1"><a xlink:href="t67_fib_num2.html" xlink:title="t67_fib_num2" target="_vizar">
<polygon fill="#69d2e7" stroke="#7f7542" points="67.5,-150.5 67.5,-165.5 164.5,-165.5 164.5,-150.5 67.5,-150.5"/>
<text text-anchor="middle" x="116" y="-154.3" font-family="Times,serif" font-size="14.00">t67_fib_num2</text>
</a>
</g>
</g>
<!-- c_0_70 -->
<g id="node2" class="node">
<title>c_0_70</title>
<g id="a_node2"><a xlink:href="c_0_70.html" xlink:title="{X₁ ∈ ℕ ⊆ ℝ|⇊|rel&#45;prime(fib(X₁),fib(X₁ + 1))}" target="_vizar">
<polygon fill="#f8edd1" stroke="#7f7542" points="16.5,-68.5 16.5,-113.5 215.5,-113.5 215.5,-68.5 16.5,-68.5"/>
<text text-anchor="middle" x="116" y="-102.3" font-family="Times,serif" font-size="14.00">X₁ ∈ ℕ ⊆ ℝ</text>
<polyline fill="none" stroke="#7f7542" points="16.5,-98.5 215.5,-98.5 "/>
<text text-anchor="middle" x="116" y="-87.3" font-family="Times,serif" font-size="14.00">⇊</text>
<polyline fill="none" stroke="#7f7542" points="16.5,-83.5 215.5,-83.5 "/>
<text text-anchor="middle" x="116" y="-72.3" font-family="Times,serif" font-size="14.00">rel&#45;prime(fib(X₁),fib(X₁ + 1))</text>
</a>
</g>
</g>
<!-- t67_fib_num2&#45;&gt;c_0_70 -->
<g id="edge1" class="edge">
<title>t67_fib_num2&#45;&gt;c_0_70</title>
<path fill="none" stroke="black" d="M116,-150.31C116,-150.31 116,-123.76 116,-123.76"/>
<polygon fill="black" stroke="black" points="119.5,-123.76 116,-113.76 112.5,-123.76 119.5,-123.76"/>
</g>
<!-- c_0_127 -->
<g id="node3" class="node">
<title>c_0_127</title>
<g id="a_node3"><a xlink:href="c_0_127.html" xlink:title="{rel&#45;prime(Ø,fib(Ø + 1))}" target="_vizar">
<polygon fill="#f8edd1" stroke="#7f7542" points="35,-16.5 35,-31.5 197,-31.5 197,-16.5 35,-16.5"/>
<text text-anchor="middle" x="116" y="-20.3" font-family="Times,serif" font-size="14.00">rel&#45;prime(Ø,fib(Ø + 1))</text>
</a>
</g>
</g>
<!-- c_0_70&#45;&gt;c_0_127 -->
<g id="edge2" class="edge">
<title>c_0_70&#45;&gt;c_0_127</title>
<path fill="none" stroke="black" stroke-dasharray="5,2" d="M116,-68.32C116,-68.32 116,-41.59 116,-41.59"/>
<polygon fill="black" stroke="black" points="119.5,-41.59 116,-31.59 112.5,-41.59 119.5,-41.59"/>
</g>
</g>
</svg>
