<?xml version="1.0" encoding="UTF-8" standalone="no"?>
<!DOCTYPE svg PUBLIC "-//W3C//DTD SVG 1.1//EN"
 "http://www.w3.org/Graphics/SVG/1.1/DTD/svg11.dtd">
<!-- Generated by graphviz version 5.0.0 (0)
 -->
<!-- Title: proof Pages: 1 -->
<svg width="426pt" height="160pt"
 viewBox="0.00 0.00 426.00 160.00" xmlns="http://www.w3.org/2000/svg" xmlns:xlink="http://www.w3.org/1999/xlink">
<g id="graph0" class="graph" transform="scale(1 1) rotate(0) translate(4 156)">
<title>proof</title>
<g id="clust1" class="cluster">
<title>cluster_0</title>
<polygon fill="transparent" stroke="black" stroke-dasharray="1,5" points="8,-112 8,-144 410,-144 410,-112 8,-112"/>
</g>
<g id="clust2" class="cluster">
<title>cluster_1</title>
<polygon fill="transparent" stroke="black" stroke-width="2" points="177,-60 177,-92 239,-92 239,-60 177,-60"/>
</g>
<g id="clust3" class="cluster">
<title>cluster_2</title>
<polygon fill="transparent" stroke="black" stroke-dasharray="1,5" points="193,-8 193,-40 223,-40 223,-8 193,-8"/>
</g>
<!-- c_0_207 -->
<g id="node1" class="node">
<title>c_0_207</title>
<g id="a_node1"><a xlink:href="c_0_207.html" xlink:title="{sk₁ । gcd(Fib(sk₂),Fib(sk₃))}" target="_parent">
<polygon fill="#fa6900" stroke="#7f7542" points="216,-120.5 216,-135.5 402,-135.5 402,-120.5 216,-120.5"/>
<text text-anchor="middle" x="309" y="-124.3" font-family="Times,serif" font-size="14.00">sk₁ । gcd(Fib(sk₂),Fib(sk₃))</text>
</a>
</g>
</g>
<!-- c_0_211 -->
<g id="node3" class="node">
<title>c_0_211</title>
<g id="a_node3"><a xlink:href="c_0_211.html" xlink:title="{sk₁ । 1}" target="_parent">
<polygon fill="#fa6900" stroke="#7f7542" points="185.5,-68.5 185.5,-83.5 230.5,-83.5 230.5,-68.5 185.5,-68.5"/>
<text text-anchor="middle" x="208" y="-72.3" font-family="Times,serif" font-size="14.00">sk₁ । 1</text>
</a>
</g>
</g>
<!-- c_0_207&#45;&gt;c_0_211 -->
<g id="edge1" class="edge">
<title>c_0_207&#45;&gt;c_0_211</title>
<path fill="none" stroke="black" d="M223.25,-120.33C223.25,-120.33 223.25,-93.7 223.25,-93.7"/>
<polygon fill="black" stroke="black" points="226.75,-93.7 223.25,-83.7 219.75,-93.7 226.75,-93.7"/>
</g>
<!-- c_0_208 -->
<g id="node2" class="node">
<title>c_0_208</title>
<g id="a_node2"><a xlink:href="c_0_208.html" xlink:title="{gcd(Fib(sk₂),Fib(sk₃)) = 1}" target="_parent">
<polygon fill="#fa6900" stroke="#7f7542" points="16.5,-120.5 16.5,-135.5 197.5,-135.5 197.5,-120.5 16.5,-120.5"/>
<text text-anchor="middle" x="107" y="-124.3" font-family="Times,serif" font-size="14.00">gcd(Fib(sk₂),Fib(sk₃)) = 1</text>
</a>
</g>
</g>
<!-- c_0_208&#45;&gt;c_0_211 -->
<g id="edge2" class="edge">
<title>c_0_208&#45;&gt;c_0_211</title>
<path fill="none" stroke="black" d="M191.5,-120.33C191.5,-120.33 191.5,-93.7 191.5,-93.7"/>
<polygon fill="black" stroke="black" points="195,-93.7 191.5,-83.7 188,-93.7 195,-93.7"/>
</g>
<!-- c_0_213 -->
<g id="node4" class="node">
<title>c_0_213</title>
<g id="a_node4"><a xlink:href="c_0_213.html" xlink:title="⊥" target="_parent">
<polygon fill="#fa6900" stroke="#7f7542" points="201,-16.5 201,-31.5 215,-31.5 215,-16.5 201,-16.5"/>
<text text-anchor="middle" x="208" y="-20.3" font-family="Times,serif" font-size="14.00">⊥</text>
</a>
</g>
</g>
<!-- c_0_211&#45;&gt;c_0_213 -->
<g id="edge3" class="edge">
<title>c_0_211&#45;&gt;c_0_213</title>
<path fill="none" stroke="black" stroke-dasharray="5,2" d="M208,-68.33C208,-68.33 208,-41.7 208,-41.7"/>
<polygon fill="black" stroke="black" points="211.5,-41.7 208,-31.7 204.5,-41.7 211.5,-41.7"/>
</g>
</g>
</svg>
