<?xml version="1.0" encoding="UTF-8" standalone="no"?>
<!DOCTYPE svg PUBLIC "-//W3C//DTD SVG 1.1//EN"
 "http://www.w3.org/Graphics/SVG/1.1/DTD/svg11.dtd">
<!-- Generated by graphviz version 5.0.0 (0)
 -->
<!-- Title: proof Pages: 1 -->
<svg width="216pt" height="160pt"
 viewBox="0.00 0.00 216.00 160.00" xmlns="http://www.w3.org/2000/svg" xmlns:xlink="http://www.w3.org/1999/xlink">
<g id="graph0" class="graph" transform="scale(1 1) rotate(0) translate(4 156)">
<title>proof</title>
<g id="clust1" class="cluster">
<title>cluster_0</title>
<polygon fill="transparent" stroke="black" stroke-dasharray="1,5" points="47,-112 47,-144 161,-144 161,-112 47,-112"/>
</g>
<g id="clust2" class="cluster">
<title>cluster_1</title>
<polygon fill="transparent" stroke="black" stroke-width="2" points="53,-60 53,-92 155,-92 155,-60 53,-60"/>
</g>
<g id="clust3" class="cluster">
<title>cluster_2</title>
<polygon fill="transparent" stroke="black" stroke-dasharray="1,5" points="8,-8 8,-40 200,-40 200,-8 8,-8"/>
</g>
<!-- t69_fib_num2 -->
<g id="node1" class="node">
<title>t69_fib_num2</title>
<g id="a_node1"><a xlink:href="t69_fib_num2.html" xlink:title="t69_fib_num2" target="_vizar">
<polygon fill="#fa6900" stroke="#7f7542" points="55.5,-120.5 55.5,-135.5 152.5,-135.5 152.5,-120.5 55.5,-120.5"/>
<text text-anchor="middle" x="104" y="-124.3" font-family="Times,serif" font-size="14.00">t69_fib_num2</text>
</a>
</g>
</g>
<!-- c_0_185 -->
<g id="node2" class="node">
<title>c_0_185</title>
<g id="a_node2"><a xlink:href="c_0_185.html" xlink:title="{sk₁ । fib(sk₂)}" target="_vizar">
<polygon fill="#fa6900" stroke="#7f7542" points="61.5,-68.5 61.5,-83.5 146.5,-83.5 146.5,-68.5 61.5,-68.5"/>
<text text-anchor="middle" x="104" y="-72.3" font-family="Times,serif" font-size="14.00">sk₁ । fib(sk₂)</text>
</a>
</g>
</g>
<!-- t69_fib_num2&#45;&gt;c_0_185 -->
<g id="edge1" class="edge">
<title>t69_fib_num2&#45;&gt;c_0_185</title>
<path fill="none" stroke="black" d="M104,-120.33C104,-120.33 104,-93.7 104,-93.7"/>
<polygon fill="black" stroke="black" points="107.5,-93.7 104,-83.7 100.5,-93.7 107.5,-93.7"/>
</g>
<!-- c_0_207 -->
<g id="node3" class="node">
<title>c_0_207</title>
<g id="a_node3"><a xlink:href="c_0_207.html" xlink:title="{sk₁ । gcd(fib(sk₂),fib(sk₃))}" target="_vizar">
<polygon fill="#fa6900" stroke="#7f7542" points="16.5,-16.5 16.5,-31.5 191.5,-31.5 191.5,-16.5 16.5,-16.5"/>
<text text-anchor="middle" x="104" y="-20.3" font-family="Times,serif" font-size="14.00">sk₁ । gcd(fib(sk₂),fib(sk₃))</text>
</a>
</g>
</g>
<!-- c_0_185&#45;&gt;c_0_207 -->
<g id="edge2" class="edge">
<title>c_0_185&#45;&gt;c_0_207</title>
<path fill="none" stroke="black" stroke-dasharray="5,2" d="M104,-68.33C104,-68.33 104,-41.7 104,-41.7"/>
<polygon fill="black" stroke="black" points="107.5,-41.7 104,-31.7 100.5,-41.7 107.5,-41.7"/>
</g>
</g>
</svg>
