<?xml version="1.0" encoding="UTF-8" standalone="no"?>
<!DOCTYPE svg PUBLIC "-//W3C//DTD SVG 1.1//EN"
 "http://www.w3.org/Graphics/SVG/1.1/DTD/svg11.dtd">
<!-- Generated by graphviz version 5.0.0 (0)
 -->
<!-- Title: proof Pages: 1 -->
<svg width="824pt" height="250pt"
 viewBox="0.00 0.00 824.00 250.00" xmlns="http://www.w3.org/2000/svg" xmlns:xlink="http://www.w3.org/1999/xlink">
<g id="graph0" class="graph" transform="scale(1 1) rotate(0) translate(4 246)">
<title>proof</title>
<g id="clust1" class="cluster">
<title>cluster_0</title>
<polygon fill="transparent" stroke="black" stroke-dasharray="1,5" points="336,-172 336,-234 462,-234 462,-172 336,-172"/>
</g>
<g id="clust2" class="cluster">
<title>cluster_1</title>
<polygon fill="transparent" stroke="black" stroke-width="2" points="370,-120 370,-152 430,-152 430,-120 370,-120"/>
</g>
<g id="clust3" class="cluster">
<title>cluster_2</title>
<polygon fill="transparent" stroke="black" stroke-dasharray="1,5" points="8,-8 8,-100 808,-100 808,-8 8,-8"/>
</g>
<!-- c_0_59 -->
<g id="node1" class="node">
<title>c_0_59</title>
<g id="a_node1"><a xlink:href="c_0_59.html" xlink:title="{Ø = Ø}" target="_parent">
<polygon fill="#f8edd1" stroke="#7f7542" points="410,-195.5 410,-210.5 454,-210.5 454,-195.5 410,-195.5"/>
<text text-anchor="middle" x="432" y="-199.3" font-family="Times,serif" font-size="14.00">Ø = Ø</text>
</a>
</g>
</g>
<!-- c_0_107 -->
<g id="node3" class="node">
<title>c_0_107</title>
<g id="a_node3"><a xlink:href="c_0_107.html" xlink:title="{Ø ∈ ℕ}" target="_parent">
<polygon fill="#f8edd1" stroke="#7f7542" points="378,-128.5 378,-143.5 422,-143.5 422,-128.5 378,-128.5"/>
<text text-anchor="middle" x="400" y="-132.3" font-family="Times,serif" font-size="14.00">Ø ∈ ℕ</text>
</a>
</g>
</g>
<!-- c_0_59&#45;&gt;c_0_107 -->
<g id="edge1" class="edge">
<title>c_0_59&#45;&gt;c_0_107</title>
<path fill="none" stroke="black" d="M416,-195.31C416,-195.31 416,-153.6 416,-153.6"/>
<polygon fill="black" stroke="black" points="419.5,-153.6 416,-143.6 412.5,-153.6 419.5,-153.6"/>
</g>
<!-- c_0_58 -->
<g id="node2" class="node">
<title>c_0_58</title>
<g id="a_node2"><a xlink:href="c_0_58.html" xlink:title="{X₁ = Ø|⇊|X₁ ∈ ℕ}" target="_parent">
<polygon fill="#f8edd1" stroke="#7f7542" points="344,-180.5 344,-225.5 392,-225.5 392,-180.5 344,-180.5"/>
<text text-anchor="middle" x="368" y="-214.3" font-family="Times,serif" font-size="14.00">X₁ = Ø</text>
<polyline fill="none" stroke="#7f7542" points="344,-210.5 392,-210.5 "/>
<text text-anchor="middle" x="368" y="-199.3" font-family="Times,serif" font-size="14.00">⇊</text>
<polyline fill="none" stroke="#7f7542" points="344,-195.5 392,-195.5 "/>
<text text-anchor="middle" x="368" y="-184.3" font-family="Times,serif" font-size="14.00">X₁ ∈ ℕ</text>
</a>
</g>
</g>
<!-- c_0_58&#45;&gt;c_0_107 -->
<g id="edge2" class="edge">
<title>c_0_58&#45;&gt;c_0_107</title>
<path fill="none" stroke="black" d="M385,-180.32C385,-180.32 385,-153.59 385,-153.59"/>
<polygon fill="black" stroke="black" points="388.5,-153.59 385,-143.59 381.5,-153.59 388.5,-153.59"/>
</g>
<!-- c_0_134 -->
<g id="node4" class="node">
<title>c_0_134</title>
<g id="a_node4"><a xlink:href="c_0_134.html" xlink:title="{1 + Ø = Ø + 1}" target="_parent">
<polygon fill="#f8edd1" stroke="#7f7542" points="696,-46.5 696,-61.5 800,-61.5 800,-46.5 696,-46.5"/>
<text text-anchor="middle" x="748" y="-50.3" font-family="Times,serif" font-size="14.00">1 + Ø = Ø + 1</text>
</a>
</g>
</g>
<!-- c_0_107&#45;&gt;c_0_134 -->
<g id="edge3" class="edge">
<title>c_0_107&#45;&gt;c_0_134</title>
<path fill="none" stroke="black" stroke-dasharray="5,2" d="M422.03,-138C498.53,-138 748,-138 748,-138 748,-138 748,-71.75 748,-71.75"/>
<polygon fill="black" stroke="black" points="751.5,-71.75 748,-61.75 744.5,-71.75 751.5,-71.75"/>
</g>
<!-- c_0_131 -->
<g id="node5" class="node">
<title>c_0_131</title>
<g id="a_node5"><a xlink:href="c_0_131.html" xlink:title="{Ø + 1 = 1}" target="_parent">
<polygon fill="#f8edd1" stroke="#7f7542" points="606,-46.5 606,-61.5 678,-61.5 678,-46.5 606,-46.5"/>
<text text-anchor="middle" x="642" y="-50.3" font-family="Times,serif" font-size="14.00">Ø + 1 = 1</text>
</a>
</g>
</g>
<!-- c_0_107&#45;&gt;c_0_131 -->
<g id="edge4" class="edge">
<title>c_0_107&#45;&gt;c_0_131</title>
<path fill="none" stroke="black" stroke-dasharray="5,2" d="M422.33,-133C482.24,-133 642,-133 642,-133 642,-133 642,-71.57 642,-71.57"/>
<polygon fill="black" stroke="black" points="645.5,-71.57 642,-61.57 638.5,-71.57 645.5,-71.57"/>
</g>
<!-- c_0_157 -->
<g id="node6" class="node">
<title>c_0_157</title>
<g id="a_node6"><a xlink:href="c_0_157.html" xlink:title="{Fib(Ø + 2) = Ø + Fib(Ø + 1)}" target="_parent">
<polygon fill="#f8edd1" stroke="#7f7542" points="384,-46.5 384,-61.5 588,-61.5 588,-46.5 384,-46.5"/>
<text text-anchor="middle" x="486" y="-50.3" font-family="Times,serif" font-size="14.00">Fib(Ø + 2) = Ø + Fib(Ø + 1)</text>
</a>
</g>
</g>
<!-- c_0_107&#45;&gt;c_0_157 -->
<g id="edge5" class="edge">
<title>c_0_107&#45;&gt;c_0_157</title>
<path fill="none" stroke="black" stroke-dasharray="5,2" d="M409.33,-128.43C409.33,-128.43 409.33,-71.79 409.33,-71.79"/>
<polygon fill="black" stroke="black" points="412.83,-71.79 409.33,-61.79 405.83,-71.79 412.83,-71.79"/>
</g>
<!-- c_0_133 -->
<g id="node7" class="node">
<title>c_0_133</title>
<g id="a_node7"><a xlink:href="c_0_133.html" xlink:title="{1 + Ø = 1 + Ø}" target="_parent">
<polygon fill="#f8edd1" stroke="#7f7542" points="262,-46.5 262,-61.5 366,-61.5 366,-46.5 262,-46.5"/>
<text text-anchor="middle" x="314" y="-50.3" font-family="Times,serif" font-size="14.00">1 + Ø = 1 + Ø</text>
</a>
</g>
</g>
<!-- c_0_107&#45;&gt;c_0_133 -->
<g id="edge6" class="edge">
<title>c_0_107&#45;&gt;c_0_133</title>
<path fill="none" stroke="black" stroke-dasharray="5,2" d="M377.76,-133C366.43,-133 355,-133 355,-133 355,-133 355,-71.57 355,-71.57"/>
<polygon fill="black" stroke="black" points="358.5,-71.57 355,-61.57 351.5,-71.57 358.5,-71.57"/>
</g>
<!-- c_0_155 -->
<g id="node8" class="node">
<title>c_0_155</title>
<g id="a_node8"><a xlink:href="c_0_155.html" xlink:title="{C₁ । Fib(Ø + 1)|C₁ । Ø|prime(C₁)|⇊|⊥}" target="_parent">
<polygon fill="#f8edd1" stroke="#7f7542" points="138,-16.5 138,-91.5 244,-91.5 244,-16.5 138,-16.5"/>
<text text-anchor="middle" x="191" y="-80.3" font-family="Times,serif" font-size="14.00">C₁ । Fib(Ø + 1)</text>
<polyline fill="none" stroke="#7f7542" points="138,-76.5 244,-76.5 "/>
<text text-anchor="middle" x="191" y="-65.3" font-family="Times,serif" font-size="14.00">C₁ । Ø</text>
<polyline fill="none" stroke="#7f7542" points="138,-61.5 244,-61.5 "/>
<text text-anchor="middle" x="191" y="-50.3" font-family="Times,serif" font-size="14.00">prime(C₁)</text>
<polyline fill="none" stroke="#7f7542" points="138,-46.5 244,-46.5 "/>
<text text-anchor="middle" x="191" y="-35.3" font-family="Times,serif" font-size="14.00">⇊</text>
<polyline fill="none" stroke="#7f7542" points="138,-31.5 244,-31.5 "/>
<text text-anchor="middle" x="191" y="-20.3" font-family="Times,serif" font-size="14.00">⊥</text>
</a>
</g>
</g>
<!-- c_0_107&#45;&gt;c_0_155 -->
<g id="edge7" class="edge">
<title>c_0_107&#45;&gt;c_0_155</title>
<path fill="none" stroke="black" stroke-dasharray="5,2" d="M396.67,-128.29C396.67,-112.29 396.67,-77 396.67,-77 396.67,-77 254.23,-77 254.23,-77"/>
<polygon fill="black" stroke="black" points="254.23,-73.5 244.23,-77 254.23,-80.5 254.23,-73.5"/>
</g>
<!-- c_0_181 -->
<g id="node9" class="node">
<title>c_0_181</title>
<g id="a_node9"><a xlink:href="c_0_181.html" xlink:title="{Ø + 2 = Ø + 2}" target="_parent">
<polygon fill="#f8edd1" stroke="#7f7542" points="16,-46.5 16,-61.5 120,-61.5 120,-46.5 16,-46.5"/>
<text text-anchor="middle" x="68" y="-50.3" font-family="Times,serif" font-size="14.00">Ø + 2 = Ø + 2</text>
</a>
</g>
</g>
<!-- c_0_107&#45;&gt;c_0_181 -->
<g id="edge8" class="edge">
<title>c_0_107&#45;&gt;c_0_181</title>
<path fill="none" stroke="black" stroke-dasharray="5,2" d="M377.96,-138C303.81,-138 68,-138 68,-138 68,-138 68,-71.75 68,-71.75"/>
<polygon fill="black" stroke="black" points="71.5,-71.75 68,-61.75 64.5,-71.75 71.5,-71.75"/>
</g>
</g>
</svg>
