<?xml version="1.0" encoding="UTF-8" standalone="no"?>
<!DOCTYPE svg PUBLIC "-//W3C//DTD SVG 1.1//EN"
 "http://www.w3.org/Graphics/SVG/1.1/DTD/svg11.dtd">
<!-- Generated by graphviz version 5.0.0 (0)
 -->
<!-- Title: proof Pages: 1 -->
<svg width="566pt" height="160pt"
 viewBox="0.00 0.00 566.00 160.00" xmlns="http://www.w3.org/2000/svg" xmlns:xlink="http://www.w3.org/1999/xlink">
<g id="graph0" class="graph" transform="scale(1 1) rotate(0) translate(4 156)">
<title>proof</title>
<g id="clust1" class="cluster">
<title>cluster_0</title>
<polygon fill="transparent" stroke="black" stroke-dasharray="1,5" points="8,-112 8,-144 550,-144 550,-112 8,-112"/>
</g>
<g id="clust2" class="cluster">
<title>cluster_1</title>
<polygon fill="transparent" stroke="black" stroke-width="2" points="199,-60 199,-92 287,-92 287,-60 199,-60"/>
</g>
<g id="clust3" class="cluster">
<title>cluster_2</title>
<polygon fill="transparent" stroke="black" stroke-dasharray="1,5" points="113,-8 113,-40 381,-40 381,-8 113,-8"/>
</g>
<!-- c_0_77 -->
<g id="node1" class="node">
<title>c_0_77</title>
<g id="a_node1"><a xlink:href="c_0_77.html" xlink:title="{0 + 1 = 1}" target="_vizar">
<polygon fill="#f8edd1" stroke="#7f7542" points="472,-120.5 472,-135.5 542,-135.5 542,-120.5 472,-120.5"/>
<text text-anchor="middle" x="507" y="-124.3" font-family="Times,serif" font-size="14.00">0 + 1 = 1</text>
</a>
</g>
</g>
<!-- c_0_131 -->
<g id="node7" class="node">
<title>c_0_131</title>
<g id="a_node7"><a xlink:href="c_0_131.html" xlink:title="{Ø + 1 = 1}" target="_vizar">
<polygon fill="#f8edd1" stroke="#7f7542" points="207,-68.5 207,-83.5 279,-83.5 279,-68.5 207,-68.5"/>
<text text-anchor="middle" x="243" y="-72.3" font-family="Times,serif" font-size="14.00">Ø + 1 = 1</text>
</a>
</g>
</g>
<!-- c_0_77&#45;&gt;c_0_131 -->
<g id="edge1" class="edge">
<title>c_0_77&#45;&gt;c_0_131</title>
<path fill="none" stroke="black" d="M507,-120.35C507,-105.24 507,-73 507,-73 507,-73 289.15,-73 289.15,-73"/>
<polygon fill="black" stroke="black" points="289.15,-69.5 279.15,-73 289.15,-76.5 289.15,-69.5"/>
</g>
<!-- c_0_182 -->
<g id="node2" class="node">
<title>c_0_182</title>
<g id="a_node2"><a xlink:href="c_0_182.html" xlink:title="{Ø + N₁ = Ø + N₁}" target="_vizar">
<polygon fill="#f8edd1" stroke="#7f7542" points="332.5,-120.5 332.5,-135.5 453.5,-135.5 453.5,-120.5 332.5,-120.5"/>
<text text-anchor="middle" x="393" y="-124.3" font-family="Times,serif" font-size="14.00">Ø + N₁ = Ø + N₁</text>
</a>
</g>
</g>
<!-- c_0_182&#45;&gt;c_0_131 -->
<g id="edge2" class="edge">
<title>c_0_182&#45;&gt;c_0_131</title>
<path fill="none" stroke="black" d="M352.75,-120.19C352.75,-106.12 352.75,-78 352.75,-78 352.75,-78 289.24,-78 289.24,-78"/>
<polygon fill="black" stroke="black" points="289.24,-74.5 279.24,-78 289.24,-81.5 289.24,-74.5"/>
</g>
<!-- c_0_107 -->
<g id="node3" class="node">
<title>c_0_107</title>
<g id="a_node3"><a xlink:href="c_0_107.html" xlink:title="{Ø ∈ ℕ}" target="_vizar">
<polygon fill="#f8edd1" stroke="#7f7542" points="270,-120.5 270,-135.5 314,-135.5 314,-120.5 270,-120.5"/>
<text text-anchor="middle" x="292" y="-124.3" font-family="Times,serif" font-size="14.00">Ø ∈ ℕ</text>
</a>
</g>
</g>
<!-- c_0_107&#45;&gt;c_0_131 -->
<g id="edge3" class="edge">
<title>c_0_107&#45;&gt;c_0_131</title>
<path fill="none" stroke="black" d="M274.5,-120.33C274.5,-120.33 274.5,-93.7 274.5,-93.7"/>
<polygon fill="black" stroke="black" points="278,-93.7 274.5,-83.7 271,-93.7 278,-93.7"/>
</g>
<!-- c_0_130 -->
<g id="node4" class="node">
<title>c_0_130</title>
<g id="a_node4"><a xlink:href="c_0_130.html" xlink:title="{N₁ + 1 = N₁ + 1}" target="_vizar">
<polygon fill="#f8edd1" stroke="#7f7542" points="136,-120.5 136,-135.5 252,-135.5 252,-120.5 136,-120.5"/>
<text text-anchor="middle" x="194" y="-124.3" font-family="Times,serif" font-size="14.00">N₁ + 1 = N₁ + 1</text>
</a>
</g>
</g>
<!-- c_0_130&#45;&gt;c_0_131 -->
<g id="edge4" class="edge">
<title>c_0_130&#45;&gt;c_0_131</title>
<path fill="none" stroke="black" d="M229.5,-120.33C229.5,-120.33 229.5,-93.7 229.5,-93.7"/>
<polygon fill="black" stroke="black" points="233,-93.7 229.5,-83.7 226,-93.7 233,-93.7"/>
</g>
<!-- c_0_57 -->
<g id="node5" class="node">
<title>c_0_57</title>
<g id="a_node5"><a xlink:href="c_0_57.html" xlink:title="{1 ∈ ℕ}" target="_vizar">
<polygon fill="#f8edd1" stroke="#7f7542" points="76,-120.5 76,-135.5 118,-135.5 118,-120.5 76,-120.5"/>
<text text-anchor="middle" x="97" y="-124.3" font-family="Times,serif" font-size="14.00">1 ∈ ℕ</text>
</a>
</g>
</g>
<!-- c_0_57&#45;&gt;c_0_131 -->
<g id="edge5" class="edge">
<title>c_0_57&#45;&gt;c_0_131</title>
<path fill="none" stroke="black" d="M97,-120.19C97,-106.12 97,-78 97,-78 97,-78 196.91,-78 196.91,-78"/>
<polygon fill="black" stroke="black" points="196.91,-81.5 206.91,-78 196.91,-74.5 196.91,-81.5"/>
</g>
<!-- c_0_39 -->
<g id="node6" class="node">
<title>c_0_39</title>
<g id="a_node6"><a xlink:href="c_0_39.html" xlink:title="{0 = Ø}" target="_vizar">
<polygon fill="#f8edd1" stroke="#7f7542" points="16,-120.5 16,-135.5 58,-135.5 58,-120.5 16,-120.5"/>
<text text-anchor="middle" x="37" y="-124.3" font-family="Times,serif" font-size="14.00">0 = Ø</text>
</a>
</g>
</g>
<!-- c_0_39&#45;&gt;c_0_131 -->
<g id="edge6" class="edge">
<title>c_0_39&#45;&gt;c_0_131</title>
<path fill="none" stroke="black" d="M37,-120.35C37,-105.24 37,-73 37,-73 37,-73 196.65,-73 196.65,-73"/>
<polygon fill="black" stroke="black" points="196.65,-76.5 206.65,-73 196.65,-69.5 196.65,-76.5"/>
</g>
<!-- c_0_206 -->
<g id="node8" class="node">
<title>c_0_206</title>
<g id="a_node8"><a xlink:href="c_0_206.html" xlink:title="{fib(Ø + 2) = 1}" target="_vizar">
<polygon fill="#f8edd1" stroke="#7f7542" points="273,-16.5 273,-31.5 373,-31.5 373,-16.5 273,-16.5"/>
<text text-anchor="middle" x="323" y="-20.3" font-family="Times,serif" font-size="14.00">fib(Ø + 2) = 1</text>
</a>
</g>
</g>
<!-- c_0_131&#45;&gt;c_0_206 -->
<g id="edge7" class="edge">
<title>c_0_131&#45;&gt;c_0_206</title>
<path fill="none" stroke="black" stroke-dasharray="5,2" d="M263.75,-68.33C263.75,-53.86 263.75,-24 263.75,-24 263.75,-24 264.65,-24 264.65,-24"/>
<polygon fill="black" stroke="black" points="262.75,-27.5 272.75,-24 262.75,-20.5 262.75,-27.5"/>
</g>
<!-- c_0_180 -->
<g id="node9" class="node">
<title>c_0_180</title>
<g id="a_node9"><a xlink:href="c_0_180.html" xlink:title="{fib(Ø + 2) = 1 + Ø}" target="_vizar">
<polygon fill="#f8edd1" stroke="#7f7542" points="121.5,-16.5 121.5,-31.5 254.5,-31.5 254.5,-16.5 121.5,-16.5"/>
<text text-anchor="middle" x="188" y="-20.3" font-family="Times,serif" font-size="14.00">fib(Ø + 2) = 1 + Ø</text>
</a>
</g>
</g>
<!-- c_0_131&#45;&gt;c_0_180 -->
<g id="edge8" class="edge">
<title>c_0_131&#45;&gt;c_0_180</title>
<path fill="none" stroke="black" stroke-dasharray="5,2" d="M230.75,-68.33C230.75,-68.33 230.75,-41.7 230.75,-41.7"/>
<polygon fill="black" stroke="black" points="234.25,-41.7 230.75,-31.7 227.25,-41.7 234.25,-41.7"/>
</g>
</g>
</svg>
