<?xml version="1.0" encoding="UTF-8" standalone="no"?>
<!DOCTYPE svg PUBLIC "-//W3C//DTD SVG 1.1//EN"
 "http://www.w3.org/Graphics/SVG/1.1/DTD/svg11.dtd">
<!-- Generated by graphviz version 5.0.0 (0)
 -->
<!-- Title: proof Pages: 1 -->
<svg width="320pt" height="265pt"
 viewBox="0.00 0.00 320.00 265.00" xmlns="http://www.w3.org/2000/svg" xmlns:xlink="http://www.w3.org/1999/xlink">
<g id="graph0" class="graph" transform="scale(1 1) rotate(0) translate(4 261)">
<title>proof</title>
<g id="clust1" class="cluster">
<title>cluster_0</title>
<polygon fill="transparent" stroke="black" stroke-dasharray="1,5" points="8,-157 8,-249 304,-249 304,-157 8,-157"/>
</g>
<g id="clust2" class="cluster">
<title>cluster_1</title>
<polygon fill="transparent" stroke="black" stroke-width="2" points="52,-60 52,-137 260,-137 260,-60 52,-60"/>
</g>
<g id="clust3" class="cluster">
<title>cluster_2</title>
<polygon fill="transparent" stroke="black" stroke-dasharray="1,5" points="52,-8 52,-40 260,-40 260,-8 52,-8"/>
</g>
<!-- c_0_148 -->
<g id="node1" class="node">
<title>c_0_148</title>
<g id="a_node1"><a xlink:href="c_0_148.html" xlink:title="{N₁ । sk₂|N₁ । sk₃|prime(N₁)|⇊|⊥}" target="_vizar">
<polygon fill="#fa6900" stroke="#7f7542" points="226,-165.5 226,-240.5 296,-240.5 296,-165.5 226,-165.5"/>
<text text-anchor="middle" x="261" y="-229.3" font-family="Times,serif" font-size="14.00">N₁ । sk₂</text>
<polyline fill="none" stroke="#7f7542" points="226,-225.5 296,-225.5 "/>
<text text-anchor="middle" x="261" y="-214.3" font-family="Times,serif" font-size="14.00">N₁ । sk₃</text>
<polyline fill="none" stroke="#7f7542" points="226,-210.5 296,-210.5 "/>
<text text-anchor="middle" x="261" y="-199.3" font-family="Times,serif" font-size="14.00">prime(N₁)</text>
<polyline fill="none" stroke="#7f7542" points="226,-195.5 296,-195.5 "/>
<text text-anchor="middle" x="261" y="-184.3" font-family="Times,serif" font-size="14.00">⇊</text>
<polyline fill="none" stroke="#7f7542" points="226,-180.5 296,-180.5 "/>
<text text-anchor="middle" x="261" y="-169.3" font-family="Times,serif" font-size="14.00">⊥</text>
</a>
</g>
</g>
<!-- c_0_173 -->
<g id="node3" class="node">
<title>c_0_173</title>
<g id="a_node3"><a xlink:href="c_0_173.html" xlink:title="{prime(sk₁₂(sk₂,sk₃))|sk₁₂(sk₂,sk₃) । sk₃|⇊|are_relative_prime(sk₂,sk₃)}" target="_vizar">
<polygon fill="#fa6900" stroke="#7f7542" points="60.5,-68.5 60.5,-128.5 251.5,-128.5 251.5,-68.5 60.5,-68.5"/>
<text text-anchor="middle" x="156" y="-117.3" font-family="Times,serif" font-size="14.00">prime(sk₁₂(sk₂,sk₃))</text>
<polyline fill="none" stroke="#7f7542" points="60.5,-113.5 251.5,-113.5 "/>
<text text-anchor="middle" x="156" y="-102.3" font-family="Times,serif" font-size="14.00">sk₁₂(sk₂,sk₃) । sk₃</text>
<polyline fill="none" stroke="#7f7542" points="60.5,-98.5 251.5,-98.5 "/>
<text text-anchor="middle" x="156" y="-87.3" font-family="Times,serif" font-size="14.00">⇊</text>
<polyline fill="none" stroke="#7f7542" points="60.5,-83.5 251.5,-83.5 "/>
<text text-anchor="middle" x="156" y="-72.3" font-family="Times,serif" font-size="14.00">are_relative_prime(sk₂,sk₃)</text>
</a>
</g>
</g>
<!-- c_0_148&#45;&gt;c_0_173 -->
<g id="edge1" class="edge">
<title>c_0_148&#45;&gt;c_0_173</title>
<path fill="none" stroke="black" d="M238.75,-165.27C238.75,-165.27 238.75,-138.64 238.75,-138.64"/>
<polygon fill="black" stroke="black" points="242.25,-138.64 238.75,-128.64 235.25,-138.64 242.25,-138.64"/>
</g>
<!-- c_0_149 -->
<g id="node2" class="node">
<title>c_0_149</title>
<g id="a_node2"><a xlink:href="c_0_149.html" xlink:title="{are_relative_prime(sk₂,sk₃)|sk₁₂(sk₂,sk₃) । sk₂}" target="_vizar">
<polygon fill="#fa6900" stroke="#7f7542" points="16.5,-188 16.5,-218 207.5,-218 207.5,-188 16.5,-188"/>
<text text-anchor="middle" x="112" y="-206.8" font-family="Times,serif" font-size="14.00">are_relative_prime(sk₂,sk₃)</text>
<polyline fill="none" stroke="#7f7542" points="16.5,-203 207.5,-203 "/>
<text text-anchor="middle" x="112" y="-191.8" font-family="Times,serif" font-size="14.00">sk₁₂(sk₂,sk₃) । sk₂</text>
</a>
</g>
</g>
<!-- c_0_149&#45;&gt;c_0_173 -->
<g id="edge2" class="edge">
<title>c_0_149&#45;&gt;c_0_173</title>
<path fill="none" stroke="black" d="M134,-187.58C134,-187.58 134,-138.69 134,-138.69"/>
<polygon fill="black" stroke="black" points="137.5,-138.69 134,-128.69 130.5,-138.69 137.5,-138.69"/>
</g>
<!-- c_0_192 -->
<g id="node4" class="node">
<title>c_0_192</title>
<g id="a_node4"><a xlink:href="c_0_192.html" xlink:title="{are_relative_prime(sk₂,sk₃)}" target="_vizar">
<polygon fill="#fa6900" stroke="#7f7542" points="60.5,-16.5 60.5,-31.5 251.5,-31.5 251.5,-16.5 60.5,-16.5"/>
<text text-anchor="middle" x="156" y="-20.3" font-family="Times,serif" font-size="14.00">are_relative_prime(sk₂,sk₃)</text>
</a>
</g>
</g>
<!-- c_0_173&#45;&gt;c_0_192 -->
<g id="edge3" class="edge">
<title>c_0_173&#45;&gt;c_0_192</title>
<path fill="none" stroke="black" stroke-dasharray="5,2" d="M156,-68.2C156,-68.2 156,-41.59 156,-41.59"/>
<polygon fill="black" stroke="black" points="159.5,-41.59 156,-31.59 152.5,-41.59 159.5,-41.59"/>
</g>
</g>
</svg>
