<?xml version="1.0" encoding="UTF-8" standalone="no"?>
<!DOCTYPE svg PUBLIC "-//W3C//DTD SVG 1.1//EN"
 "http://www.w3.org/Graphics/SVG/1.1/DTD/svg11.dtd">
<!-- Generated by graphviz version 5.0.0 (0)
 -->
<!-- Title: proof Pages: 1 -->
<svg width="1120pt" height="160pt"
 viewBox="0.00 0.00 1120.00 160.00" xmlns="http://www.w3.org/2000/svg" xmlns:xlink="http://www.w3.org/1999/xlink">
<g id="graph0" class="graph" transform="scale(1 1) rotate(0) translate(4 156)">
<title>proof</title>
<g id="clust1" class="cluster">
<title>cluster_0</title>
<polygon fill="transparent" stroke="black" stroke-dasharray="1,5" points="8,-112 8,-144 1104,-144 1104,-112 8,-112"/>
</g>
<g id="clust2" class="cluster">
<title>cluster_1</title>
<polygon fill="transparent" stroke="black" stroke-width="2" points="663,-60 663,-92 849,-92 849,-60 663,-60"/>
</g>
<g id="clust3" class="cluster">
<title>cluster_2</title>
<polygon fill="transparent" stroke="black" stroke-dasharray="1,5" points="725,-8 725,-40 787,-40 787,-8 725,-8"/>
</g>
<!-- c_0_204 -->
<g id="node1" class="node">
<title>c_0_204</title>
<g id="a_node1"><a xlink:href="c_0_204.html" xlink:title="{gcd(sk₂,sk₃) = 1}" target="_vizar">
<polygon fill="#fa6900" stroke="#7f7542" points="982.5,-120.5 982.5,-135.5 1095.5,-135.5 1095.5,-120.5 982.5,-120.5"/>
<text text-anchor="middle" x="1039" y="-124.3" font-family="Times,serif" font-size="14.00">gcd(sk₂,sk₃) = 1</text>
</a>
</g>
</g>
<!-- c_0_208 -->
<g id="node7" class="node">
<title>c_0_208</title>
<g id="a_node7"><a xlink:href="c_0_208.html" xlink:title="{gcd(fib(sk₂),fib(sk₃)) = 1}" target="_vizar">
<polygon fill="#fa6900" stroke="#7f7542" points="671,-68.5 671,-83.5 841,-83.5 841,-68.5 671,-68.5"/>
<text text-anchor="middle" x="756" y="-72.3" font-family="Times,serif" font-size="14.00">gcd(fib(sk₂),fib(sk₃)) = 1</text>
</a>
</g>
</g>
<!-- c_0_204&#45;&gt;c_0_208 -->
<g id="edge1" class="edge">
<title>c_0_204&#45;&gt;c_0_208</title>
<path fill="none" stroke="black" d="M1039,-120.35C1039,-105.24 1039,-73 1039,-73 1039,-73 851.29,-73 851.29,-73"/>
<polygon fill="black" stroke="black" points="851.29,-69.5 841.29,-73 851.29,-76.5 851.29,-69.5"/>
</g>
<!-- c_0_47 -->
<g id="node2" class="node">
<title>c_0_47</title>
<g id="a_node2"><a xlink:href="c_0_47.html" xlink:title="{sk₂ ∈ ℕ}" target="_vizar">
<polygon fill="#fa6900" stroke="#7f7542" points="910,-120.5 910,-135.5 964,-135.5 964,-120.5 910,-120.5"/>
<text text-anchor="middle" x="937" y="-124.3" font-family="Times,serif" font-size="14.00">sk₂ ∈ ℕ</text>
</a>
</g>
</g>
<!-- c_0_47&#45;&gt;c_0_208 -->
<g id="edge2" class="edge">
<title>c_0_47&#45;&gt;c_0_208</title>
<path fill="none" stroke="black" d="M937,-120.19C937,-106.12 937,-78 937,-78 937,-78 851.2,-78 851.2,-78"/>
<polygon fill="black" stroke="black" points="851.2,-74.5 841.2,-78 851.2,-81.5 851.2,-74.5"/>
</g>
<!-- c_0_132 -->
<g id="node3" class="node">
<title>c_0_132</title>
<g id="a_node3"><a xlink:href="c_0_132.html" xlink:title="{fib(1) = 1}" target="_vizar">
<polygon fill="#f8edd1" stroke="#7f7542" points="824,-120.5 824,-135.5 892,-135.5 892,-120.5 824,-120.5"/>
<text text-anchor="middle" x="858" y="-124.3" font-family="Times,serif" font-size="14.00">fib(1) = 1</text>
</a>
</g>
</g>
<!-- c_0_132&#45;&gt;c_0_208 -->
<g id="edge3" class="edge">
<title>c_0_132&#45;&gt;c_0_208</title>
<path fill="none" stroke="black" d="M832.5,-120.33C832.5,-120.33 832.5,-93.7 832.5,-93.7"/>
<polygon fill="black" stroke="black" points="836,-93.7 832.5,-83.7 829,-93.7 836,-93.7"/>
</g>
<!-- c_0_203 -->
<g id="node4" class="node">
<title>c_0_203</title>
<g id="a_node4"><a xlink:href="c_0_203.html" xlink:title="{gcd(fib(sk₂),fib(sk₃)) = gcd(fib(sk₂),fib(sk₃))}" target="_vizar">
<polygon fill="#fa6900" stroke="#7f7542" points="504.5,-120.5 504.5,-135.5 805.5,-135.5 805.5,-120.5 504.5,-120.5"/>
<text text-anchor="middle" x="655" y="-124.3" font-family="Times,serif" font-size="14.00">gcd(fib(sk₂),fib(sk₃)) = gcd(fib(sk₂),fib(sk₃))</text>
</a>
</g>
</g>
<!-- c_0_203&#45;&gt;c_0_208 -->
<g id="edge4" class="edge">
<title>c_0_203&#45;&gt;c_0_208</title>
<path fill="none" stroke="black" d="M738.25,-120.33C738.25,-120.33 738.25,-93.7 738.25,-93.7"/>
<polygon fill="black" stroke="black" points="741.75,-93.7 738.25,-83.7 734.75,-93.7 741.75,-93.7"/>
</g>
<!-- c_0_193 -->
<g id="node5" class="node">
<title>c_0_193</title>
<g id="a_node5"><a xlink:href="c_0_193.html" xlink:title="{gcd(sk₂,sk₃) = gcd(sk₂,sk₃)}" target="_vizar">
<polygon fill="#fa6900" stroke="#7f7542" points="299.5,-120.5 299.5,-135.5 486.5,-135.5 486.5,-120.5 299.5,-120.5"/>
<text text-anchor="middle" x="393" y="-124.3" font-family="Times,serif" font-size="14.00">gcd(sk₂,sk₃) = gcd(sk₂,sk₃)</text>
</a>
</g>
</g>
<!-- c_0_193&#45;&gt;c_0_208 -->
<g id="edge5" class="edge">
<title>c_0_193&#45;&gt;c_0_208</title>
<path fill="none" stroke="black" d="M393,-120.19C393,-106.12 393,-78 393,-78 393,-78 660.89,-78 660.89,-78"/>
<polygon fill="black" stroke="black" points="660.89,-81.5 670.89,-78 660.89,-74.5 660.89,-81.5"/>
</g>
<!-- c_0_201 -->
<g id="node6" class="node">
<title>c_0_201</title>
<g id="a_node6"><a xlink:href="c_0_201.html" xlink:title="{gcd(fib(N₁),fib(sk₃)) = fib(gcd(N₁,sk₃))}" target="_vizar">
<polygon fill="#fa6900" stroke="#7f7542" points="16.5,-120.5 16.5,-135.5 281.5,-135.5 281.5,-120.5 16.5,-120.5"/>
<text text-anchor="middle" x="149" y="-124.3" font-family="Times,serif" font-size="14.00">gcd(fib(N₁),fib(sk₃)) = fib(gcd(N₁,sk₃))</text>
</a>
</g>
</g>
<!-- c_0_201&#45;&gt;c_0_208 -->
<g id="edge6" class="edge">
<title>c_0_201&#45;&gt;c_0_208</title>
<path fill="none" stroke="black" d="M149,-120.35C149,-105.24 149,-73 149,-73 149,-73 660.96,-73 660.96,-73"/>
<polygon fill="black" stroke="black" points="660.96,-76.5 670.96,-73 660.96,-69.5 660.96,-76.5"/>
</g>
<!-- c_0_211 -->
<g id="node8" class="node">
<title>c_0_211</title>
<g id="a_node8"><a xlink:href="c_0_211.html" xlink:title="{sk₁ । 1}" target="_vizar">
<polygon fill="#fa6900" stroke="#7f7542" points="733.5,-16.5 733.5,-31.5 778.5,-31.5 778.5,-16.5 733.5,-16.5"/>
<text text-anchor="middle" x="756" y="-20.3" font-family="Times,serif" font-size="14.00">sk₁ । 1</text>
</a>
</g>
</g>
<!-- c_0_208&#45;&gt;c_0_211 -->
<g id="edge7" class="edge">
<title>c_0_208&#45;&gt;c_0_211</title>
<path fill="none" stroke="black" stroke-dasharray="5,2" d="M756,-68.33C756,-68.33 756,-41.7 756,-41.7"/>
<polygon fill="black" stroke="black" points="759.5,-41.7 756,-31.7 752.5,-41.7 759.5,-41.7"/>
</g>
</g>
</svg>
