<?xml version="1.0" encoding="UTF-8" standalone="no"?>
<!DOCTYPE svg PUBLIC "-//W3C//DTD SVG 1.1//EN"
 "http://www.w3.org/Graphics/SVG/1.1/DTD/svg11.dtd">
<!-- Generated by graphviz version 5.0.0 (0)
 -->
<!-- Title: proof Pages: 1 -->
<svg width="230pt" height="295pt"
 viewBox="0.00 0.00 230.00 295.00" xmlns="http://www.w3.org/2000/svg" xmlns:xlink="http://www.w3.org/1999/xlink">
<g id="graph0" class="graph" transform="scale(1 1) rotate(0) translate(4 291)">
<title>proof</title>
<g id="clust1" class="cluster">
<title>cluster_0</title>
<polygon fill="transparent" stroke="black" stroke-dasharray="1,5" points="55,-247 55,-279 155,-279 155,-247 55,-247"/>
</g>
<g id="clust2" class="cluster">
<title>cluster_1</title>
<polygon fill="transparent" stroke="black" stroke-width="2" points="39,-120 39,-227 171,-227 171,-120 39,-120"/>
</g>
<g id="clust3" class="cluster">
<title>cluster_2</title>
<polygon fill="transparent" stroke="black" stroke-dasharray="1,5" points="8,-8 8,-100 214,-100 214,-8 8,-8"/>
</g>
<!-- d2_pythtrip -->
<g id="node1" class="node">
<title>d2_pythtrip</title>
<g id="a_node1"><a xlink:href="d2_pythtrip.html" xlink:title="d2_pythtrip" target="_vizar">
<polygon fill="#69d2e7" stroke="#7f7542" points="63,-255.5 63,-270.5 147,-270.5 147,-255.5 63,-255.5"/>
<text text-anchor="middle" x="105" y="-259.3" font-family="Times,serif" font-size="14.00">d2_pythtrip</text>
</a>
</g>
</g>
<!-- c_0_89 -->
<g id="node2" class="node">
<title>c_0_89</title>
<g id="a_node2"><a xlink:href="c_0_89.html" xlink:title="{N₃ । N₁|N₃ । N₂|prime(N₃)|rel&#45;prime(N₁,N₂)|⇊|⊥}" target="_vizar">
<polygon fill="#f8edd1" stroke="#7f7542" points="47,-128.5 47,-218.5 163,-218.5 163,-128.5 47,-128.5"/>
<text text-anchor="middle" x="105" y="-207.3" font-family="Times,serif" font-size="14.00">N₃ । N₁</text>
<polyline fill="none" stroke="#7f7542" points="47,-203.5 163,-203.5 "/>
<text text-anchor="middle" x="105" y="-192.3" font-family="Times,serif" font-size="14.00">N₃ । N₂</text>
<polyline fill="none" stroke="#7f7542" points="47,-188.5 163,-188.5 "/>
<text text-anchor="middle" x="105" y="-177.3" font-family="Times,serif" font-size="14.00">prime(N₃)</text>
<polyline fill="none" stroke="#7f7542" points="47,-173.5 163,-173.5 "/>
<text text-anchor="middle" x="105" y="-162.3" font-family="Times,serif" font-size="14.00">rel&#45;prime(N₁,N₂)</text>
<polyline fill="none" stroke="#7f7542" points="47,-158.5 163,-158.5 "/>
<text text-anchor="middle" x="105" y="-147.3" font-family="Times,serif" font-size="14.00">⇊</text>
<polyline fill="none" stroke="#7f7542" points="47,-143.5 163,-143.5 "/>
<text text-anchor="middle" x="105" y="-132.3" font-family="Times,serif" font-size="14.00">⊥</text>
</a>
</g>
</g>
<!-- d2_pythtrip&#45;&gt;c_0_89 -->
<g id="edge1" class="edge">
<title>d2_pythtrip&#45;&gt;c_0_89</title>
<path fill="none" stroke="black" d="M105,-255.37C105,-255.37 105,-228.66 105,-228.66"/>
<polygon fill="black" stroke="black" points="108.5,-228.66 105,-218.66 101.5,-228.66 108.5,-228.66"/>
</g>
<!-- c_0_155 -->
<g id="node3" class="node">
<title>c_0_155</title>
<g id="a_node3"><a xlink:href="c_0_155.html" xlink:title="{N₁ । fib(Ø + 1)|N₁ । Ø|prime(N₁)|⇊|⊥}" target="_vizar">
<polygon fill="#f8edd1" stroke="#7f7542" points="104,-16.5 104,-91.5 206,-91.5 206,-16.5 104,-16.5"/>
<text text-anchor="middle" x="155" y="-80.3" font-family="Times,serif" font-size="14.00">N₁ । fib(Ø + 1)</text>
<polyline fill="none" stroke="#7f7542" points="104,-76.5 206,-76.5 "/>
<text text-anchor="middle" x="155" y="-65.3" font-family="Times,serif" font-size="14.00">N₁ । Ø</text>
<polyline fill="none" stroke="#7f7542" points="104,-61.5 206,-61.5 "/>
<text text-anchor="middle" x="155" y="-50.3" font-family="Times,serif" font-size="14.00">prime(N₁)</text>
<polyline fill="none" stroke="#7f7542" points="104,-46.5 206,-46.5 "/>
<text text-anchor="middle" x="155" y="-35.3" font-family="Times,serif" font-size="14.00">⇊</text>
<polyline fill="none" stroke="#7f7542" points="104,-31.5 206,-31.5 "/>
<text text-anchor="middle" x="155" y="-20.3" font-family="Times,serif" font-size="14.00">⊥</text>
</a>
</g>
</g>
<!-- c_0_89&#45;&gt;c_0_155 -->
<g id="edge2" class="edge">
<title>c_0_89&#45;&gt;c_0_155</title>
<path fill="none" stroke="black" stroke-dasharray="5,2" d="M133.5,-128.32C133.5,-128.32 133.5,-101.83 133.5,-101.83"/>
<polygon fill="black" stroke="black" points="137,-101.83 133.5,-91.83 130,-101.83 137,-101.83"/>
</g>
<!-- c_0_148 -->
<g id="node4" class="node">
<title>c_0_148</title>
<g id="a_node4"><a xlink:href="c_0_148.html" xlink:title="{N₁ । sk₂|N₁ । sk₃|prime(N₁)|⇊|⊥}" target="_vizar">
<polygon fill="#fa6900" stroke="#7f7542" points="16,-16.5 16,-91.5 86,-91.5 86,-16.5 16,-16.5"/>
<text text-anchor="middle" x="51" y="-80.3" font-family="Times,serif" font-size="14.00">N₁ । sk₂</text>
<polyline fill="none" stroke="#7f7542" points="16,-76.5 86,-76.5 "/>
<text text-anchor="middle" x="51" y="-65.3" font-family="Times,serif" font-size="14.00">N₁ । sk₃</text>
<polyline fill="none" stroke="#7f7542" points="16,-61.5 86,-61.5 "/>
<text text-anchor="middle" x="51" y="-50.3" font-family="Times,serif" font-size="14.00">prime(N₁)</text>
<polyline fill="none" stroke="#7f7542" points="16,-46.5 86,-46.5 "/>
<text text-anchor="middle" x="51" y="-35.3" font-family="Times,serif" font-size="14.00">⇊</text>
<polyline fill="none" stroke="#7f7542" points="16,-31.5 86,-31.5 "/>
<text text-anchor="middle" x="51" y="-20.3" font-family="Times,serif" font-size="14.00">⊥</text>
</a>
</g>
</g>
<!-- c_0_89&#45;&gt;c_0_148 -->
<g id="edge3" class="edge">
<title>c_0_89&#45;&gt;c_0_148</title>
<path fill="none" stroke="black" stroke-dasharray="5,2" d="M66.5,-128.32C66.5,-128.32 66.5,-101.83 66.5,-101.83"/>
<polygon fill="black" stroke="black" points="70,-101.83 66.5,-91.83 63,-101.83 70,-101.83"/>
</g>
</g>
</svg>
