<?xml version="1.0" encoding="UTF-8" standalone="no"?>
<!DOCTYPE svg PUBLIC "-//W3C//DTD SVG 1.1//EN"
 "http://www.w3.org/Graphics/SVG/1.1/DTD/svg11.dtd">
<!-- Generated by graphviz version 5.0.0 (0)
 -->
<!-- Title: proof Pages: 1 -->
<svg width="1765pt" height="250pt"
 viewBox="0.00 0.00 1765.00 250.00" xmlns="http://www.w3.org/2000/svg" xmlns:xlink="http://www.w3.org/1999/xlink">
<g id="graph0" class="graph" transform="scale(1 1) rotate(0) translate(4 246)">
<title>proof</title>
<g id="clust1" class="cluster">
<title>cluster_0</title>
<polygon fill="transparent" stroke="black" stroke-dasharray="1,5" points="843,-172 843,-234 1092,-234 1092,-172 843,-172"/>
</g>
<g id="clust2" class="cluster">
<title>cluster_1</title>
<polygon fill="transparent" stroke="black" stroke-width="2" points="933,-120 933,-152 1003,-152 1003,-120 933,-120"/>
</g>
<g id="clust3" class="cluster">
<title>cluster_2</title>
<polygon fill="transparent" stroke="black" stroke-dasharray="1,5" points="8,-8 8,-100 1749,-100 1749,-8 8,-8"/>
</g>
<!-- c_0_143 -->
<g id="node1" class="node">
<title>c_0_143</title>
<g id="a_node1"><a xlink:href="c_0_143.html" xlink:title="{C₁ ∈ ℕ}" target="_parent">
<polygon fill="#f8edd1" stroke="#7f7542" points="1034.5,-195.5 1034.5,-210.5 1083.5,-210.5 1083.5,-195.5 1034.5,-195.5"/>
<text text-anchor="middle" x="1059" y="-199.3" font-family="Times,serif" font-size="14.00">C₁ ∈ ℕ</text>
</a>
</g>
</g>
<!-- c_0_47 -->
<g id="node4" class="node">
<title>c_0_47</title>
<g id="a_node4"><a xlink:href="c_0_47.html" xlink:title="{sk₂ ∈ ℕ}" target="_parent">
<polygon fill="#fa6900" stroke="#7f7542" points="941,-128.5 941,-143.5 995,-143.5 995,-128.5 941,-128.5"/>
<text text-anchor="middle" x="968" y="-132.3" font-family="Times,serif" font-size="14.00">sk₂ ∈ ℕ</text>
</a>
</g>
</g>
<!-- c_0_143&#45;&gt;c_0_47 -->
<g id="edge1" class="edge">
<title>c_0_143&#45;&gt;c_0_47</title>
<path fill="none" stroke="black" d="M1059,-195.27C1059,-178.45 1059,-140 1059,-140 1059,-140 1005.3,-140 1005.3,-140"/>
<polygon fill="black" stroke="black" points="1005.3,-136.5 995.3,-140 1005.3,-143.5 1005.3,-136.5"/>
</g>
<!-- t69_fib_num2 -->
<g id="node2" class="node">
<title>t69_fib_num2</title>
<g id="a_node2"><a xlink:href="t69_fib_num2.html" xlink:title="t69_fib_num2" target="_parent">
<polygon fill="#fa6900" stroke="#7f7542" points="919.5,-195.5 919.5,-210.5 1016.5,-210.5 1016.5,-195.5 919.5,-195.5"/>
<text text-anchor="middle" x="968" y="-199.3" font-family="Times,serif" font-size="14.00">t69_fib_num2</text>
</a>
</g>
</g>
<!-- t69_fib_num2&#45;&gt;c_0_47 -->
<g id="edge2" class="edge">
<title>t69_fib_num2&#45;&gt;c_0_47</title>
<path fill="none" stroke="black" d="M968,-195.31C968,-195.31 968,-153.6 968,-153.6"/>
<polygon fill="black" stroke="black" points="971.5,-153.6 968,-143.6 964.5,-153.6 971.5,-153.6"/>
</g>
<!-- c_0_142 -->
<g id="node3" class="node">
<title>c_0_142</title>
<g id="a_node3"><a xlink:href="c_0_142.html" xlink:title="{X₁ ∈ X₂|⇊|X₁ ∈ X₂}" target="_parent">
<polygon fill="#f8edd1" stroke="#7f7542" points="851,-180.5 851,-225.5 901,-225.5 901,-180.5 851,-180.5"/>
<text text-anchor="middle" x="876" y="-214.3" font-family="Times,serif" font-size="14.00">X₁ ∈ X₂</text>
<polyline fill="none" stroke="#7f7542" points="851,-210.5 901,-210.5 "/>
<text text-anchor="middle" x="876" y="-199.3" font-family="Times,serif" font-size="14.00">⇊</text>
<polyline fill="none" stroke="#7f7542" points="851,-195.5 901,-195.5 "/>
<text text-anchor="middle" x="876" y="-184.3" font-family="Times,serif" font-size="14.00">X₁ ∈ X₂</text>
</a>
</g>
</g>
<!-- c_0_142&#45;&gt;c_0_47 -->
<g id="edge3" class="edge">
<title>c_0_142&#45;&gt;c_0_47</title>
<path fill="none" stroke="black" d="M876,-180.26C876,-162.21 876,-140 876,-140 876,-140 930.89,-140 930.89,-140"/>
<polygon fill="black" stroke="black" points="930.89,-143.5 940.89,-140 930.89,-136.5 930.89,-143.5"/>
</g>
<!-- c_0_176 -->
<g id="node5" class="node">
<title>c_0_176</title>
<g id="a_node5"><a xlink:href="c_0_176.html" xlink:title="{are_relative_prime(sk₂,sk₃)|sk₁₂(sk₂,sk₃) । sk₃}" target="_parent">
<polygon fill="#fa6900" stroke="#7f7542" points="1549.5,-39 1549.5,-69 1740.5,-69 1740.5,-39 1549.5,-39"/>
<text text-anchor="middle" x="1645" y="-57.8" font-family="Times,serif" font-size="14.00">are_relative_prime(sk₂,sk₃)</text>
<polyline fill="none" stroke="#7f7542" points="1549.5,-54 1740.5,-54 "/>
<text text-anchor="middle" x="1645" y="-42.8" font-family="Times,serif" font-size="14.00">sk₁₂(sk₂,sk₃) । sk₃</text>
</a>
</g>
</g>
<!-- c_0_47&#45;&gt;c_0_176 -->
<g id="edge4" class="edge">
<title>c_0_47&#45;&gt;c_0_176</title>
<path fill="none" stroke="black" stroke-dasharray="5,2" d="M995.38,-137C1122.03,-137 1645,-137 1645,-137 1645,-137 1645,-79.22 1645,-79.22"/>
<polygon fill="black" stroke="black" points="1648.5,-79.22 1645,-69.22 1641.5,-79.22 1648.5,-79.22"/>
</g>
<!-- c_0_148 -->
<g id="node6" class="node">
<title>c_0_148</title>
<g id="a_node6"><a xlink:href="c_0_148.html" xlink:title="{C₁ । sk₂|C₁ । sk₃|prime(C₁)|⇊|⊥}" target="_parent">
<polygon fill="#fa6900" stroke="#7f7542" points="1462.5,-16.5 1462.5,-91.5 1531.5,-91.5 1531.5,-16.5 1462.5,-16.5"/>
<text text-anchor="middle" x="1497" y="-80.3" font-family="Times,serif" font-size="14.00">C₁ । sk₂</text>
<polyline fill="none" stroke="#7f7542" points="1462.5,-76.5 1531.5,-76.5 "/>
<text text-anchor="middle" x="1497" y="-65.3" font-family="Times,serif" font-size="14.00">C₁ । sk₃</text>
<polyline fill="none" stroke="#7f7542" points="1462.5,-61.5 1531.5,-61.5 "/>
<text text-anchor="middle" x="1497" y="-50.3" font-family="Times,serif" font-size="14.00">prime(C₁)</text>
<polyline fill="none" stroke="#7f7542" points="1462.5,-46.5 1531.5,-46.5 "/>
<text text-anchor="middle" x="1497" y="-35.3" font-family="Times,serif" font-size="14.00">⇊</text>
<polyline fill="none" stroke="#7f7542" points="1462.5,-31.5 1531.5,-31.5 "/>
<text text-anchor="middle" x="1497" y="-20.3" font-family="Times,serif" font-size="14.00">⊥</text>
</a>
</g>
</g>
<!-- c_0_47&#45;&gt;c_0_148 -->
<g id="edge5" class="edge">
<title>c_0_47&#45;&gt;c_0_148</title>
<path fill="none" stroke="black" stroke-dasharray="5,2" d="M980.5,-128.33C980.5,-113.86 980.5,-84 980.5,-84 980.5,-84 1452.31,-84 1452.31,-84"/>
<polygon fill="black" stroke="black" points="1452.31,-87.5 1462.31,-84 1452.31,-80.5 1452.31,-87.5"/>
</g>
<!-- c_0_195 -->
<g id="node7" class="node">
<title>c_0_195</title>
<g id="a_node7"><a xlink:href="c_0_195.html" xlink:title="{integer(sk₂)}" target="_parent">
<polygon fill="#fa6900" stroke="#7f7542" points="1360,-46.5 1360,-61.5 1444,-61.5 1444,-46.5 1360,-46.5"/>
<text text-anchor="middle" x="1402" y="-50.3" font-family="Times,serif" font-size="14.00">integer(sk₂)</text>
</a>
</g>
</g>
<!-- c_0_47&#45;&gt;c_0_195 -->
<g id="edge6" class="edge">
<title>c_0_47&#45;&gt;c_0_195</title>
<path fill="none" stroke="black" stroke-dasharray="5,2" d="M995.15,-134C1090.16,-134 1402,-134 1402,-134 1402,-134 1402,-71.67 1402,-71.67"/>
<polygon fill="black" stroke="black" points="1405.5,-71.67 1402,-61.67 1398.5,-71.67 1405.5,-71.67"/>
</g>
<!-- c_0_208 -->
<g id="node8" class="node">
<title>c_0_208</title>
<g id="a_node8"><a xlink:href="c_0_208.html" xlink:title="{gcd(Fib(sk₂),Fib(sk₃)) = 1}" target="_parent">
<polygon fill="#fa6900" stroke="#7f7542" points="1160.5,-46.5 1160.5,-61.5 1341.5,-61.5 1341.5,-46.5 1160.5,-46.5"/>
<text text-anchor="middle" x="1251" y="-50.3" font-family="Times,serif" font-size="14.00">gcd(Fib(sk₂),Fib(sk₃)) = 1</text>
</a>
</g>
</g>
<!-- c_0_47&#45;&gt;c_0_208 -->
<g id="edge7" class="edge">
<title>c_0_47&#45;&gt;c_0_208</title>
<path fill="none" stroke="black" stroke-dasharray="5,2" d="M995.14,-131C1065.97,-131 1251,-131 1251,-131 1251,-131 1251,-71.66 1251,-71.66"/>
<polygon fill="black" stroke="black" points="1254.5,-71.66 1251,-61.66 1247.5,-71.66 1254.5,-71.66"/>
</g>
<!-- c_0_174 -->
<g id="node9" class="node">
<title>c_0_174</title>
<g id="a_node9"><a xlink:href="c_0_174.html" xlink:title="{are_relative_prime(sk₂,sk₃)|sk₁₂(sk₂,sk₃) ∈ ℕ}" target="_parent">
<polygon fill="#fa6900" stroke="#7f7542" points="951.5,-39 951.5,-69 1142.5,-69 1142.5,-39 951.5,-39"/>
<text text-anchor="middle" x="1047" y="-57.8" font-family="Times,serif" font-size="14.00">are_relative_prime(sk₂,sk₃)</text>
<polyline fill="none" stroke="#7f7542" points="951.5,-54 1142.5,-54 "/>
<text text-anchor="middle" x="1047" y="-42.8" font-family="Times,serif" font-size="14.00">sk₁₂(sk₂,sk₃) ∈ ℕ</text>
</a>
</g>
</g>
<!-- c_0_47&#45;&gt;c_0_174 -->
<g id="edge8" class="edge">
<title>c_0_47&#45;&gt;c_0_174</title>
<path fill="none" stroke="black" stroke-dasharray="5,2" d="M966,-128.43C966,-128.43 966,-79.3 966,-79.3"/>
<polygon fill="black" stroke="black" points="969.5,-79.3 966,-69.3 962.5,-79.3 969.5,-79.3"/>
</g>
<!-- c_0_171 -->
<g id="node10" class="node">
<title>c_0_171</title>
<g id="a_node10"><a xlink:href="c_0_171.html" xlink:title="{Fib(sk₂) ∈ ℕ}" target="_parent">
<polygon fill="#fa6900" stroke="#7f7542" points="845,-46.5 845,-61.5 933,-61.5 933,-46.5 845,-46.5"/>
<text text-anchor="middle" x="889" y="-50.3" font-family="Times,serif" font-size="14.00">Fib(sk₂) ∈ ℕ</text>
</a>
</g>
</g>
<!-- c_0_47&#45;&gt;c_0_171 -->
<g id="edge9" class="edge">
<title>c_0_47&#45;&gt;c_0_171</title>
<path fill="none" stroke="black" stroke-dasharray="5,2" d="M948.88,-128.43C948.88,-108.13 948.88,-54 948.88,-54 948.88,-54 943.14,-54 943.14,-54"/>
<polygon fill="black" stroke="black" points="943.14,-50.5 933.14,-54 943.14,-57.5 943.14,-50.5"/>
</g>
<!-- c_0_149 -->
<g id="node11" class="node">
<title>c_0_149</title>
<g id="a_node11"><a xlink:href="c_0_149.html" xlink:title="{are_relative_prime(sk₂,sk₃)|sk₁₂(sk₂,sk₃) । sk₂}" target="_parent">
<polygon fill="#fa6900" stroke="#7f7542" points="635.5,-39 635.5,-69 826.5,-69 826.5,-39 635.5,-39"/>
<text text-anchor="middle" x="731" y="-57.8" font-family="Times,serif" font-size="14.00">are_relative_prime(sk₂,sk₃)</text>
<polyline fill="none" stroke="#7f7542" points="635.5,-54 826.5,-54 "/>
<text text-anchor="middle" x="731" y="-42.8" font-family="Times,serif" font-size="14.00">sk₁₂(sk₂,sk₃) । sk₂</text>
</a>
</g>
</g>
<!-- c_0_47&#45;&gt;c_0_149 -->
<g id="edge10" class="edge">
<title>c_0_47&#45;&gt;c_0_149</title>
<path fill="none" stroke="black" stroke-dasharray="5,2" d="M946.25,-128.4C946.25,-110.09 946.25,-65 946.25,-65 946.25,-65 836.67,-65 836.67,-65"/>
<polygon fill="black" stroke="black" points="836.67,-61.5 826.67,-65 836.67,-68.5 836.67,-61.5"/>
</g>
<!-- c_0_175 -->
<g id="node12" class="node">
<title>c_0_175</title>
<g id="a_node12"><a xlink:href="c_0_175.html" xlink:title="{are_relative_prime(sk₂,sk₃)|prime(sk₁₂(sk₂,sk₃))}" target="_parent">
<polygon fill="#fa6900" stroke="#7f7542" points="426.5,-39 426.5,-69 617.5,-69 617.5,-39 426.5,-39"/>
<text text-anchor="middle" x="522" y="-57.8" font-family="Times,serif" font-size="14.00">are_relative_prime(sk₂,sk₃)</text>
<polyline fill="none" stroke="#7f7542" points="426.5,-54 617.5,-54 "/>
<text text-anchor="middle" x="522" y="-42.8" font-family="Times,serif" font-size="14.00">prime(sk₁₂(sk₂,sk₃))</text>
</a>
</g>
</g>
<!-- c_0_47&#45;&gt;c_0_175 -->
<g id="edge11" class="edge">
<title>c_0_47&#45;&gt;c_0_175</title>
<path fill="none" stroke="black" stroke-dasharray="5,2" d="M940.77,-132C843.94,-132 522,-132 522,-132 522,-132 522,-79.04 522,-79.04"/>
<polygon fill="black" stroke="black" points="525.5,-79.04 522,-69.04 518.5,-79.04 525.5,-79.04"/>
</g>
<!-- c_0_90 -->
<g id="node13" class="node">
<title>c_0_90</title>
<g id="a_node13"><a xlink:href="c_0_90.html" xlink:title="{C₁ = Ø|are_relative_prime(C₁,sk₂)|sk₂ ≤ C₁}" target="_parent">
<polygon fill="#fa6900" stroke="#7f7542" points="222,-31.5 222,-76.5 408,-76.5 408,-31.5 222,-31.5"/>
<text text-anchor="middle" x="315" y="-65.3" font-family="Times,serif" font-size="14.00">C₁ = Ø</text>
<polyline fill="none" stroke="#7f7542" points="222,-61.5 408,-61.5 "/>
<text text-anchor="middle" x="315" y="-50.3" font-family="Times,serif" font-size="14.00">are_relative_prime(C₁,sk₂)</text>
<polyline fill="none" stroke="#7f7542" points="222,-46.5 408,-46.5 "/>
<text text-anchor="middle" x="315" y="-35.3" font-family="Times,serif" font-size="14.00">sk₂ ≤ C₁</text>
</a>
</g>
</g>
<!-- c_0_47&#45;&gt;c_0_90 -->
<g id="edge12" class="edge">
<title>c_0_47&#45;&gt;c_0_90</title>
<path fill="none" stroke="black" stroke-dasharray="5,2" d="M943.62,-128.27C943.62,-111.45 943.62,-73 943.62,-73 943.62,-73 418.09,-73 418.09,-73"/>
<polygon fill="black" stroke="black" points="418.09,-69.5 408.09,-73 418.09,-76.5 418.09,-69.5"/>
</g>
<!-- c_0_193 -->
<g id="node14" class="node">
<title>c_0_193</title>
<g id="a_node14"><a xlink:href="c_0_193.html" xlink:title="{gcd(sk₂,sk₃) = gcd(sk₂,sk₃)}" target="_parent">
<polygon fill="#fa6900" stroke="#7f7542" points="16.5,-46.5 16.5,-61.5 203.5,-61.5 203.5,-46.5 16.5,-46.5"/>
<text text-anchor="middle" x="110" y="-50.3" font-family="Times,serif" font-size="14.00">gcd(sk₂,sk₃) = gcd(sk₂,sk₃)</text>
</a>
</g>
</g>
<!-- c_0_47&#45;&gt;c_0_193 -->
<g id="edge13" class="edge">
<title>c_0_47&#45;&gt;c_0_193</title>
<path fill="none" stroke="black" stroke-dasharray="5,2" d="M940.9,-136C795.06,-136 110,-136 110,-136 110,-136 110,-71.57 110,-71.57"/>
<polygon fill="black" stroke="black" points="113.5,-71.57 110,-61.57 106.5,-71.57 113.5,-71.57"/>
</g>
</g>
</svg>
