<?xml version="1.0" encoding="UTF-8" standalone="no"?>
<!DOCTYPE svg PUBLIC "-//W3C//DTD SVG 1.1//EN"
 "http://www.w3.org/Graphics/SVG/1.1/DTD/svg11.dtd">
<!-- Generated by graphviz version 5.0.0 (0)
 -->
<!-- Title: proof Pages: 1 -->
<svg width="223pt" height="160pt"
 viewBox="0.00 0.00 223.00 160.00" xmlns="http://www.w3.org/2000/svg" xmlns:xlink="http://www.w3.org/1999/xlink">
<g id="graph0" class="graph" transform="scale(1 1) rotate(0) translate(4 156)">
<title>proof</title>
<g id="clust1" class="cluster">
<title>cluster_0</title>
<polygon fill="transparent" stroke="black" stroke-dasharray="1,5" points="13,-112 13,-144 207,-144 207,-112 13,-112"/>
</g>
<g id="clust2" class="cluster">
<title>cluster_1</title>
<polygon fill="transparent" stroke="black" stroke-width="2" points="23,-60 23,-92 143,-92 143,-60 23,-60"/>
</g>
<g id="clust3" class="cluster">
<title>cluster_2</title>
<polygon fill="transparent" stroke="black" stroke-dasharray="1,5" points="8,-8 8,-40 158,-40 158,-8 8,-8"/>
</g>
<!-- c_0_107 -->
<g id="node1" class="node">
<title>c_0_107</title>
<g id="a_node1"><a xlink:href="c_0_107.html" xlink:title="{Ø ∈ ℕ}" target="_vizar">
<polygon fill="#f8edd1" stroke="#7f7542" points="155,-120.5 155,-135.5 199,-135.5 199,-120.5 155,-120.5"/>
<text text-anchor="middle" x="177" y="-124.3" font-family="Times,serif" font-size="14.00">Ø ∈ ℕ</text>
</a>
</g>
</g>
<!-- c_0_181 -->
<g id="node3" class="node">
<title>c_0_181</title>
<g id="a_node3"><a xlink:href="c_0_181.html" xlink:title="{Ø + 2 = Ø + 2}" target="_vizar">
<polygon fill="#f8edd1" stroke="#7f7542" points="31,-68.5 31,-83.5 135,-83.5 135,-68.5 31,-68.5"/>
<text text-anchor="middle" x="83" y="-72.3" font-family="Times,serif" font-size="14.00">Ø + 2 = Ø + 2</text>
</a>
</g>
</g>
<!-- c_0_107&#45;&gt;c_0_181 -->
<g id="edge1" class="edge">
<title>c_0_107&#45;&gt;c_0_181</title>
<path fill="none" stroke="black" d="M177,-120.33C177,-105.86 177,-76 177,-76 177,-76 145.22,-76 145.22,-76"/>
<polygon fill="black" stroke="black" points="145.22,-72.5 135.22,-76 145.22,-79.5 145.22,-72.5"/>
</g>
<!-- c_0_161 -->
<g id="node2" class="node">
<title>c_0_161</title>
<g id="a_node2"><a xlink:href="c_0_161.html" xlink:title="{N₁ + 2 = N₁ + 2}" target="_vizar">
<polygon fill="#f8edd1" stroke="#7f7542" points="21,-120.5 21,-135.5 137,-135.5 137,-120.5 21,-120.5"/>
<text text-anchor="middle" x="79" y="-124.3" font-family="Times,serif" font-size="14.00">N₁ + 2 = N₁ + 2</text>
</a>
</g>
</g>
<!-- c_0_161&#45;&gt;c_0_181 -->
<g id="edge2" class="edge">
<title>c_0_161&#45;&gt;c_0_181</title>
<path fill="none" stroke="black" d="M83,-120.33C83,-120.33 83,-93.7 83,-93.7"/>
<polygon fill="black" stroke="black" points="86.5,-93.7 83,-83.7 79.5,-93.7 86.5,-93.7"/>
</g>
<!-- c_0_197 -->
<g id="node4" class="node">
<title>c_0_197</title>
<g id="a_node4"><a xlink:href="c_0_197.html" xlink:title="{1 + Ø = fib(Ø + 2)}" target="_vizar">
<polygon fill="#f8edd1" stroke="#7f7542" points="16.5,-16.5 16.5,-31.5 149.5,-31.5 149.5,-16.5 16.5,-16.5"/>
<text text-anchor="middle" x="83" y="-20.3" font-family="Times,serif" font-size="14.00">1 + Ø = fib(Ø + 2)</text>
</a>
</g>
</g>
<!-- c_0_181&#45;&gt;c_0_197 -->
<g id="edge3" class="edge">
<title>c_0_181&#45;&gt;c_0_197</title>
<path fill="none" stroke="black" stroke-dasharray="5,2" d="M83,-68.33C83,-68.33 83,-41.7 83,-41.7"/>
<polygon fill="black" stroke="black" points="86.5,-41.7 83,-31.7 79.5,-41.7 86.5,-41.7"/>
</g>
</g>
</svg>
