<?xml version="1.0" encoding="UTF-8" standalone="no"?>
<!DOCTYPE svg PUBLIC "-//W3C//DTD SVG 1.1//EN"
 "http://www.w3.org/Graphics/SVG/1.1/DTD/svg11.dtd">
<!-- Generated by graphviz version 5.0.0 (0)
 -->
<!-- Title: proof Pages: 1 -->
<svg width="209pt" height="310pt"
 viewBox="0.00 0.00 209.00 310.00" xmlns="http://www.w3.org/2000/svg" xmlns:xlink="http://www.w3.org/1999/xlink">
<g id="graph0" class="graph" transform="scale(1 1) rotate(0) translate(4 306)">
<title>proof</title>
<g id="clust1" class="cluster">
<title>cluster_0</title>
<polygon fill="transparent" stroke="black" stroke-dasharray="1,5" points="8,-202 8,-294 193,-294 193,-202 8,-202"/>
</g>
<g id="clust2" class="cluster">
<title>cluster_1</title>
<polygon fill="transparent" stroke="black" stroke-width="2" points="30,-105 30,-182 154,-182 154,-105 30,-105"/>
</g>
<g id="clust3" class="cluster">
<title>cluster_2</title>
<polygon fill="transparent" stroke="black" stroke-dasharray="1,5" points="30,-8 30,-85 154,-85 154,-8 30,-8"/>
</g>
<!-- c_0_155 -->
<g id="node1" class="node">
<title>c_0_155</title>
<g id="a_node1"><a xlink:href="c_0_155.html" xlink:title="{N₁ । Fib(Ø + 1)|N₁ । Ø|prime(N₁)|⇊|⊥}" target="_vizar">
<polygon fill="#f8edd1" stroke="#7f7542" points="77.5,-210.5 77.5,-285.5 184.5,-285.5 184.5,-210.5 77.5,-210.5"/>
<text text-anchor="middle" x="131" y="-274.3" font-family="Times,serif" font-size="14.00">N₁ । Fib(Ø + 1)</text>
<polyline fill="none" stroke="#7f7542" points="77.5,-270.5 184.5,-270.5 "/>
<text text-anchor="middle" x="131" y="-259.3" font-family="Times,serif" font-size="14.00">N₁ । Ø</text>
<polyline fill="none" stroke="#7f7542" points="77.5,-255.5 184.5,-255.5 "/>
<text text-anchor="middle" x="131" y="-244.3" font-family="Times,serif" font-size="14.00">prime(N₁)</text>
<polyline fill="none" stroke="#7f7542" points="77.5,-240.5 184.5,-240.5 "/>
<text text-anchor="middle" x="131" y="-229.3" font-family="Times,serif" font-size="14.00">⇊</text>
<polyline fill="none" stroke="#7f7542" points="77.5,-225.5 184.5,-225.5 "/>
<text text-anchor="middle" x="131" y="-214.3" font-family="Times,serif" font-size="14.00">⊥</text>
</a>
</g>
</g>
<!-- c_0_179 -->
<g id="node3" class="node">
<title>c_0_179</title>
<g id="a_node3"><a xlink:href="c_0_179.html" xlink:title="{N₁ । Fib(Ø + 1)|prime(N₁)|⇊|⊥}" target="_vizar">
<polygon fill="#f8edd1" stroke="#7f7542" points="38.5,-113.5 38.5,-173.5 145.5,-173.5 145.5,-113.5 38.5,-113.5"/>
<text text-anchor="middle" x="92" y="-162.3" font-family="Times,serif" font-size="14.00">N₁ । Fib(Ø + 1)</text>
<polyline fill="none" stroke="#7f7542" points="38.5,-158.5 145.5,-158.5 "/>
<text text-anchor="middle" x="92" y="-147.3" font-family="Times,serif" font-size="14.00">prime(N₁)</text>
<polyline fill="none" stroke="#7f7542" points="38.5,-143.5 145.5,-143.5 "/>
<text text-anchor="middle" x="92" y="-132.3" font-family="Times,serif" font-size="14.00">⇊</text>
<polyline fill="none" stroke="#7f7542" points="38.5,-128.5 145.5,-128.5 "/>
<text text-anchor="middle" x="92" y="-117.3" font-family="Times,serif" font-size="14.00">⊥</text>
</a>
</g>
</g>
<!-- c_0_155&#45;&gt;c_0_179 -->
<g id="edge1" class="edge">
<title>c_0_155&#45;&gt;c_0_179</title>
<path fill="none" stroke="black" d="M111.5,-210.27C111.5,-210.27 111.5,-183.64 111.5,-183.64"/>
<polygon fill="black" stroke="black" points="115,-183.64 111.5,-173.64 108,-183.64 115,-183.64"/>
</g>
<!-- c_0_156 -->
<g id="node2" class="node">
<title>c_0_156</title>
<g id="a_node2"><a xlink:href="c_0_156.html" xlink:title="{N₁ । Ø}" target="_vizar">
<polygon fill="#f8edd1" stroke="#7f7542" points="16.5,-240.5 16.5,-255.5 59.5,-255.5 59.5,-240.5 16.5,-240.5"/>
<text text-anchor="middle" x="38" y="-244.3" font-family="Times,serif" font-size="14.00">N₁ । Ø</text>
</a>
</g>
</g>
<!-- c_0_156&#45;&gt;c_0_179 -->
<g id="edge2" class="edge">
<title>c_0_156&#45;&gt;c_0_179</title>
<path fill="none" stroke="black" d="M49,-240.48C49,-240.48 49,-183.79 49,-183.79"/>
<polygon fill="black" stroke="black" points="52.5,-183.79 49,-173.79 45.5,-183.79 52.5,-183.79"/>
</g>
<!-- c_0_196 -->
<g id="node4" class="node">
<title>c_0_196</title>
<g id="a_node4"><a xlink:href="c_0_196.html" xlink:title="{N₁ । Fib(1 + Ø)|prime(N₁)|⇊|⊥}" target="_vizar">
<polygon fill="#f8edd1" stroke="#7f7542" points="38.5,-16.5 38.5,-76.5 145.5,-76.5 145.5,-16.5 38.5,-16.5"/>
<text text-anchor="middle" x="92" y="-65.3" font-family="Times,serif" font-size="14.00">N₁ । Fib(1 + Ø)</text>
<polyline fill="none" stroke="#7f7542" points="38.5,-61.5 145.5,-61.5 "/>
<text text-anchor="middle" x="92" y="-50.3" font-family="Times,serif" font-size="14.00">prime(N₁)</text>
<polyline fill="none" stroke="#7f7542" points="38.5,-46.5 145.5,-46.5 "/>
<text text-anchor="middle" x="92" y="-35.3" font-family="Times,serif" font-size="14.00">⇊</text>
<polyline fill="none" stroke="#7f7542" points="38.5,-31.5 145.5,-31.5 "/>
<text text-anchor="middle" x="92" y="-20.3" font-family="Times,serif" font-size="14.00">⊥</text>
</a>
</g>
</g>
<!-- c_0_179&#45;&gt;c_0_196 -->
<g id="edge3" class="edge">
<title>c_0_179&#45;&gt;c_0_196</title>
<path fill="none" stroke="black" stroke-dasharray="5,2" d="M92,-113.34C92,-113.34 92,-86.64 92,-86.64"/>
<polygon fill="black" stroke="black" points="95.5,-86.64 92,-76.64 88.5,-86.64 95.5,-86.64"/>
</g>
</g>
</svg>
