<?xml version="1.0" encoding="UTF-8" standalone="no"?>
<!DOCTYPE svg PUBLIC "-//W3C//DTD SVG 1.1//EN"
 "http://www.w3.org/Graphics/SVG/1.1/DTD/svg11.dtd">
<!-- Generated by graphviz version 5.0.0 (0)
 -->
<!-- Title: proof Pages: 1 -->
<svg width="242pt" height="205pt"
 viewBox="0.00 0.00 242.00 205.00" xmlns="http://www.w3.org/2000/svg" xmlns:xlink="http://www.w3.org/1999/xlink">
<g id="graph0" class="graph" transform="scale(1 1) rotate(0) translate(4 201)">
<title>proof</title>
<g id="clust1" class="cluster">
<title>cluster_0</title>
<polygon fill="transparent" stroke="black" stroke-dasharray="1,5" points="8,-157 8,-189 142,-189 142,-157 8,-157"/>
</g>
<g id="clust2" class="cluster">
<title>cluster_1</title>
<polygon fill="transparent" stroke="black" stroke-width="2" points="42,-60 42,-137 108,-137 108,-60 42,-60"/>
</g>
<g id="clust3" class="cluster">
<title>cluster_2</title>
<polygon fill="transparent" stroke="black" stroke-dasharray="1,5" points="16,-8 16,-40 226,-40 226,-8 16,-8"/>
</g>
<!-- cc17_membered -->
<g id="node1" class="node">
<title>cc17_membered</title>
<g id="a_node1"><a xlink:href="cc17_membered.html" xlink:title="cc17_membered" target="_parent">
<polygon fill="#69d2e7" stroke="#7f7542" points="16.5,-165.5 16.5,-180.5 133.5,-180.5 133.5,-165.5 16.5,-165.5"/>
<text text-anchor="middle" x="75" y="-169.3" font-family="Times,serif" font-size="14.00">cc17_membered</text>
</a>
</g>
</g>
<!-- c_0_116 -->
<g id="node2" class="node">
<title>c_0_116</title>
<g id="a_node2"><a xlink:href="c_0_116.html" xlink:title="{X₁ ⊆ ℕ|X₂ ∈ X₁|⇊|X₂ ∈ ℕ}" target="_parent">
<polygon fill="#f8edd1" stroke="#7f7542" points="50,-68.5 50,-128.5 100,-128.5 100,-68.5 50,-68.5"/>
<text text-anchor="middle" x="75" y="-117.3" font-family="Times,serif" font-size="14.00">X₁ ⊆ ℕ</text>
<polyline fill="none" stroke="#7f7542" points="50,-113.5 100,-113.5 "/>
<text text-anchor="middle" x="75" y="-102.3" font-family="Times,serif" font-size="14.00">X₂ ∈ X₁</text>
<polyline fill="none" stroke="#7f7542" points="50,-98.5 100,-98.5 "/>
<text text-anchor="middle" x="75" y="-87.3" font-family="Times,serif" font-size="14.00">⇊</text>
<polyline fill="none" stroke="#7f7542" points="50,-83.5 100,-83.5 "/>
<text text-anchor="middle" x="75" y="-72.3" font-family="Times,serif" font-size="14.00">X₂ ∈ ℕ</text>
</a>
</g>
</g>
<!-- cc17_membered&#45;&gt;c_0_116 -->
<g id="edge1" class="edge">
<title>cc17_membered&#45;&gt;c_0_116</title>
<path fill="none" stroke="black" d="M75,-165.31C75,-165.31 75,-138.51 75,-138.51"/>
<polygon fill="black" stroke="black" points="78.5,-138.51 75,-128.51 71.5,-138.51 78.5,-138.51"/>
</g>
<!-- c_0_145 -->
<g id="node3" class="node">
<title>c_0_145</title>
<g id="a_node3"><a xlink:href="c_0_145.html" xlink:title="{Fib(sk₃) ∈ ℕ}" target="_parent">
<polygon fill="#fa6900" stroke="#7f7542" points="130,-16.5 130,-31.5 218,-31.5 218,-16.5 130,-16.5"/>
<text text-anchor="middle" x="174" y="-20.3" font-family="Times,serif" font-size="14.00">Fib(sk₃) ∈ ℕ</text>
</a>
</g>
</g>
<!-- c_0_116&#45;&gt;c_0_145 -->
<g id="edge2" class="edge">
<title>c_0_116&#45;&gt;c_0_145</title>
<path fill="none" stroke="black" stroke-dasharray="5,2" d="M100.16,-98C130.01,-98 175.75,-98 175.75,-98 175.75,-98 175.75,-41.64 175.75,-41.64"/>
<polygon fill="black" stroke="black" points="179.25,-41.64 175.75,-31.64 172.25,-41.64 179.25,-41.64"/>
</g>
<!-- c_0_171 -->
<g id="node4" class="node">
<title>c_0_171</title>
<g id="a_node4"><a xlink:href="c_0_171.html" xlink:title="{Fib(sk₂) ∈ ℕ}" target="_parent">
<polygon fill="#fa6900" stroke="#7f7542" points="24,-16.5 24,-31.5 112,-31.5 112,-16.5 24,-16.5"/>
<text text-anchor="middle" x="68" y="-20.3" font-family="Times,serif" font-size="14.00">Fib(sk₂) ∈ ℕ</text>
</a>
</g>
</g>
<!-- c_0_116&#45;&gt;c_0_171 -->
<g id="edge3" class="edge">
<title>c_0_116&#45;&gt;c_0_171</title>
<path fill="none" stroke="black" stroke-dasharray="5,2" d="M75,-68.2C75,-68.2 75,-41.59 75,-41.59"/>
<polygon fill="black" stroke="black" points="78.5,-41.59 75,-31.59 71.5,-41.59 78.5,-41.59"/>
</g>
</g>
</svg>
