<?xml version="1.0" encoding="UTF-8" standalone="no"?>
<!DOCTYPE svg PUBLIC "-//W3C//DTD SVG 1.1//EN"
 "http://www.w3.org/Graphics/SVG/1.1/DTD/svg11.dtd">
<!-- Generated by graphviz version 5.0.0 (0)
 -->
<!-- Title: proof Pages: 1 -->
<svg width="228pt" height="190pt"
 viewBox="0.00 0.00 228.00 190.00" xmlns="http://www.w3.org/2000/svg" xmlns:xlink="http://www.w3.org/1999/xlink">
<g id="graph0" class="graph" transform="scale(1 1) rotate(0) translate(4 186)">
<title>proof</title>
<g id="clust1" class="cluster">
<title>cluster_0</title>
<polygon fill="transparent" stroke="black" stroke-dasharray="1,5" points="8,-112 8,-174 212,-174 212,-112 8,-112"/>
</g>
<g id="clust2" class="cluster">
<title>cluster_1</title>
<polygon fill="transparent" stroke="black" stroke-width="2" points="47,-60 47,-92 179,-92 179,-60 47,-60"/>
</g>
<g id="clust3" class="cluster">
<title>cluster_2</title>
<polygon fill="transparent" stroke="black" stroke-dasharray="1,5" points="53,-8 53,-40 173,-40 173,-8 53,-8"/>
</g>
<!-- c_0_109 -->
<g id="node1" class="node">
<title>c_0_109</title>
<g id="a_node1"><a xlink:href="c_0_109.html" xlink:title="{2 ∈ ℕ}" target="_vizar">
<polygon fill="#f8edd1" stroke="#7f7542" points="162,-135.5 162,-150.5 204,-150.5 204,-135.5 162,-135.5"/>
<text text-anchor="middle" x="183" y="-139.3" font-family="Times,serif" font-size="14.00">2 ∈ ℕ</text>
</a>
</g>
</g>
<!-- c_0_161 -->
<g id="node3" class="node">
<title>c_0_161</title>
<g id="a_node3"><a xlink:href="c_0_161.html" xlink:title="{N₁ + 2 = N₁ + 2}" target="_vizar">
<polygon fill="#f8edd1" stroke="#7f7542" points="55,-68.5 55,-83.5 171,-83.5 171,-68.5 55,-68.5"/>
<text text-anchor="middle" x="113" y="-72.3" font-family="Times,serif" font-size="14.00">N₁ + 2 = N₁ + 2</text>
</a>
</g>
</g>
<!-- c_0_109&#45;&gt;c_0_161 -->
<g id="edge1" class="edge">
<title>c_0_109&#45;&gt;c_0_161</title>
<path fill="none" stroke="black" d="M166.5,-135.31C166.5,-135.31 166.5,-93.6 166.5,-93.6"/>
<polygon fill="black" stroke="black" points="170,-93.6 166.5,-83.6 163,-93.6 170,-93.6"/>
</g>
<!-- c_0_76 -->
<g id="node2" class="node">
<title>c_0_76</title>
<g id="a_node2"><a xlink:href="c_0_76.html" xlink:title="{X₂ ∈ ℕ|⇊|N₁ + X₂ = N₁ + X₂}" target="_vizar">
<polygon fill="#f8edd1" stroke="#7f7542" points="16,-120.5 16,-165.5 144,-165.5 144,-120.5 16,-120.5"/>
<text text-anchor="middle" x="80" y="-154.3" font-family="Times,serif" font-size="14.00">X₂ ∈ ℕ</text>
<polyline fill="none" stroke="#7f7542" points="16,-150.5 144,-150.5 "/>
<text text-anchor="middle" x="80" y="-139.3" font-family="Times,serif" font-size="14.00">⇊</text>
<polyline fill="none" stroke="#7f7542" points="16,-135.5 144,-135.5 "/>
<text text-anchor="middle" x="80" y="-124.3" font-family="Times,serif" font-size="14.00">N₁ + X₂ = N₁ + X₂</text>
</a>
</g>
</g>
<!-- c_0_76&#45;&gt;c_0_161 -->
<g id="edge2" class="edge">
<title>c_0_76&#45;&gt;c_0_161</title>
<path fill="none" stroke="black" d="M99.5,-120.32C99.5,-120.32 99.5,-93.59 99.5,-93.59"/>
<polygon fill="black" stroke="black" points="103,-93.59 99.5,-83.59 96,-93.59 103,-93.59"/>
</g>
<!-- c_0_181 -->
<g id="node4" class="node">
<title>c_0_181</title>
<g id="a_node4"><a xlink:href="c_0_181.html" xlink:title="{Ø + 2 = Ø + 2}" target="_vizar">
<polygon fill="#f8edd1" stroke="#7f7542" points="61,-16.5 61,-31.5 165,-31.5 165,-16.5 61,-16.5"/>
<text text-anchor="middle" x="113" y="-20.3" font-family="Times,serif" font-size="14.00">Ø + 2 = Ø + 2</text>
</a>
</g>
</g>
<!-- c_0_161&#45;&gt;c_0_181 -->
<g id="edge3" class="edge">
<title>c_0_161&#45;&gt;c_0_181</title>
<path fill="none" stroke="black" stroke-dasharray="5,2" d="M113,-68.33C113,-68.33 113,-41.7 113,-41.7"/>
<polygon fill="black" stroke="black" points="116.5,-41.7 113,-31.7 109.5,-41.7 116.5,-41.7"/>
</g>
</g>
</svg>
