<?xml version="1.0" encoding="UTF-8" standalone="no"?>
<!DOCTYPE svg PUBLIC "-//W3C//DTD SVG 1.1//EN"
 "http://www.w3.org/Graphics/SVG/1.1/DTD/svg11.dtd">
<!-- Generated by graphviz version 5.0.0 (0)
 -->
<!-- Title: proof Pages: 1 -->
<svg width="298pt" height="190pt"
 viewBox="0.00 0.00 298.00 190.00" xmlns="http://www.w3.org/2000/svg" xmlns:xlink="http://www.w3.org/1999/xlink">
<g id="graph0" class="graph" transform="scale(1 1) rotate(0) translate(4 186)">
<title>proof</title>
<g id="clust1" class="cluster">
<title>cluster_0</title>
<polygon fill="transparent" stroke="black" stroke-dasharray="1,5" points="8,-127 8,-174 282,-174 282,-127 8,-127"/>
</g>
<g id="clust2" class="cluster">
<title>cluster_1</title>
<polygon fill="transparent" stroke="black" stroke-width="2" points="24,-60 24,-107 232,-107 232,-60 24,-60"/>
</g>
<g id="clust3" class="cluster">
<title>cluster_2</title>
<polygon fill="transparent" stroke="black" stroke-dasharray="1,5" points="24,-8 24,-40 232,-40 232,-8 24,-8"/>
</g>
<!-- c_0_152 -->
<g id="node1" class="node">
<title>c_0_152</title>
<g id="a_node1"><a xlink:href="c_0_152.html" xlink:title="{are_relative_prime(C₁,sk₃)|sk₁₂(C₁,sk₃) । sk₃}" target="_parent">
<polygon fill="#fa6900" stroke="#7f7542" points="88,-135.5 88,-165.5 274,-165.5 274,-135.5 88,-135.5"/>
<text text-anchor="middle" x="181" y="-154.3" font-family="Times,serif" font-size="14.00">are_relative_prime(C₁,sk₃)</text>
<polyline fill="none" stroke="#7f7542" points="88,-150.5 274,-150.5 "/>
<text text-anchor="middle" x="181" y="-139.3" font-family="Times,serif" font-size="14.00">sk₁₂(C₁,sk₃) । sk₃</text>
</a>
</g>
</g>
<!-- c_0_176 -->
<g id="node3" class="node">
<title>c_0_176</title>
<g id="a_node3"><a xlink:href="c_0_176.html" xlink:title="{are_relative_prime(sk₂,sk₃)|sk₁₂(sk₂,sk₃) । sk₃}" target="_parent">
<polygon fill="#fa6900" stroke="#7f7542" points="32.5,-68.5 32.5,-98.5 223.5,-98.5 223.5,-68.5 32.5,-68.5"/>
<text text-anchor="middle" x="128" y="-87.3" font-family="Times,serif" font-size="14.00">are_relative_prime(sk₂,sk₃)</text>
<polyline fill="none" stroke="#7f7542" points="32.5,-83.5 223.5,-83.5 "/>
<text text-anchor="middle" x="128" y="-72.3" font-family="Times,serif" font-size="14.00">sk₁₂(sk₂,sk₃) । sk₃</text>
</a>
</g>
</g>
<!-- c_0_152&#45;&gt;c_0_176 -->
<g id="edge1" class="edge">
<title>c_0_152&#45;&gt;c_0_176</title>
<path fill="none" stroke="black" d="M155.75,-135.3C155.75,-135.3 155.75,-108.64 155.75,-108.64"/>
<polygon fill="black" stroke="black" points="159.25,-108.64 155.75,-98.64 152.25,-108.64 159.25,-108.64"/>
</g>
<!-- c_0_47 -->
<g id="node2" class="node">
<title>c_0_47</title>
<g id="a_node2"><a xlink:href="c_0_47.html" xlink:title="{sk₂ ∈ ℕ}" target="_parent">
<polygon fill="#fa6900" stroke="#7f7542" points="16,-143 16,-158 70,-158 70,-143 16,-143"/>
<text text-anchor="middle" x="43" y="-146.8" font-family="Times,serif" font-size="14.00">sk₂ ∈ ℕ</text>
</a>
</g>
</g>
<!-- c_0_47&#45;&gt;c_0_176 -->
<g id="edge2" class="edge">
<title>c_0_47&#45;&gt;c_0_176</title>
<path fill="none" stroke="black" d="M51.25,-142.81C51.25,-142.81 51.25,-108.67 51.25,-108.67"/>
<polygon fill="black" stroke="black" points="54.75,-108.67 51.25,-98.67 47.75,-108.67 54.75,-108.67"/>
</g>
<!-- c_0_192 -->
<g id="node4" class="node">
<title>c_0_192</title>
<g id="a_node4"><a xlink:href="c_0_192.html" xlink:title="{are_relative_prime(sk₂,sk₃)}" target="_parent">
<polygon fill="#fa6900" stroke="#7f7542" points="32.5,-16.5 32.5,-31.5 223.5,-31.5 223.5,-16.5 32.5,-16.5"/>
<text text-anchor="middle" x="128" y="-20.3" font-family="Times,serif" font-size="14.00">are_relative_prime(sk₂,sk₃)</text>
</a>
</g>
</g>
<!-- c_0_176&#45;&gt;c_0_192 -->
<g id="edge3" class="edge">
<title>c_0_176&#45;&gt;c_0_192</title>
<path fill="none" stroke="black" stroke-dasharray="5,2" d="M128,-68.49C128,-68.49 128,-41.73 128,-41.73"/>
<polygon fill="black" stroke="black" points="131.5,-41.73 128,-31.73 124.5,-41.73 131.5,-41.73"/>
</g>
</g>
</svg>
