<?xml version="1.0" encoding="UTF-8" standalone="no"?>
<!DOCTYPE svg PUBLIC "-//W3C//DTD SVG 1.1//EN"
 "http://www.w3.org/Graphics/SVG/1.1/DTD/svg11.dtd">
<!-- Generated by graphviz version 5.0.0 (0)
 -->
<!-- Title: proof Pages: 1 -->
<svg width="208pt" height="190pt"
 viewBox="0.00 0.00 208.00 190.00" xmlns="http://www.w3.org/2000/svg" xmlns:xlink="http://www.w3.org/1999/xlink">
<g id="graph0" class="graph" transform="scale(1 1) rotate(0) translate(4 186)">
<title>proof</title>
<g id="clust1" class="cluster">
<title>cluster_0</title>
<polygon fill="transparent" stroke="black" stroke-dasharray="1,5" points="17,-112 17,-174 179,-174 179,-112 17,-112"/>
</g>
<g id="clust2" class="cluster">
<title>cluster_1</title>
<polygon fill="transparent" stroke="black" stroke-width="2" points="28,-60 28,-92 86,-92 86,-60 28,-60"/>
</g>
<g id="clust3" class="cluster">
<title>cluster_2</title>
<polygon fill="transparent" stroke="black" stroke-dasharray="1,5" points="8,-8 8,-40 192,-40 192,-8 8,-8"/>
</g>
<!-- spc0_boole -->
<g id="node1" class="node">
<title>spc0_boole</title>
<g id="a_node1"><a xlink:href="spc0_boole.html" xlink:title="spc0_boole" target="_parent">
<polygon fill="#69d2e7" stroke="#7f7542" points="91.5,-135.5 91.5,-150.5 170.5,-150.5 170.5,-135.5 91.5,-135.5"/>
<text text-anchor="middle" x="131" y="-139.3" font-family="Times,serif" font-size="14.00">spc0_boole</text>
</a>
</g>
</g>
<!-- c_0_39 -->
<g id="node3" class="node">
<title>c_0_39</title>
<g id="a_node3"><a xlink:href="c_0_39.html" xlink:title="{0 = Ø}" target="_parent">
<polygon fill="#f8edd1" stroke="#7f7542" points="36,-68.5 36,-83.5 78,-83.5 78,-68.5 36,-68.5"/>
<text text-anchor="middle" x="57" y="-72.3" font-family="Times,serif" font-size="14.00">0 = Ø</text>
</a>
</g>
</g>
<!-- spc0_boole&#45;&gt;c_0_39 -->
<g id="edge1" class="edge">
<title>spc0_boole&#45;&gt;c_0_39</title>
<path fill="none" stroke="black" d="M99,-135.29C99,-118.07 99,-78 99,-78 99,-78 88.49,-78 88.49,-78"/>
<polygon fill="black" stroke="black" points="88.49,-74.5 78.49,-78 88.49,-81.5 88.49,-74.5"/>
</g>
<!-- c_0_38 -->
<g id="node2" class="node">
<title>c_0_38</title>
<g id="a_node2"><a xlink:href="c_0_38.html" xlink:title="{X₁ = Ø|⇊|X₁ = Ø}" target="_parent">
<polygon fill="#f8edd1" stroke="#7f7542" points="25,-120.5 25,-165.5 73,-165.5 73,-120.5 25,-120.5"/>
<text text-anchor="middle" x="49" y="-154.3" font-family="Times,serif" font-size="14.00">X₁ = Ø</text>
<polyline fill="none" stroke="#7f7542" points="25,-150.5 73,-150.5 "/>
<text text-anchor="middle" x="49" y="-139.3" font-family="Times,serif" font-size="14.00">⇊</text>
<polyline fill="none" stroke="#7f7542" points="25,-135.5 73,-135.5 "/>
<text text-anchor="middle" x="49" y="-124.3" font-family="Times,serif" font-size="14.00">X₁ = Ø</text>
</a>
</g>
</g>
<!-- c_0_38&#45;&gt;c_0_39 -->
<g id="edge2" class="edge">
<title>c_0_38&#45;&gt;c_0_39</title>
<path fill="none" stroke="black" d="M54.5,-120.32C54.5,-120.32 54.5,-93.59 54.5,-93.59"/>
<polygon fill="black" stroke="black" points="58,-93.59 54.5,-83.59 51,-93.59 58,-93.59"/>
</g>
<!-- c_0_100 -->
<g id="node4" class="node">
<title>c_0_100</title>
<g id="a_node4"><a xlink:href="c_0_100.html" xlink:title="{Ø ∈ ℕ ⊆ ℝ}" target="_parent">
<polygon fill="#f8edd1" stroke="#7f7542" points="106.5,-16.5 106.5,-31.5 183.5,-31.5 183.5,-16.5 106.5,-16.5"/>
<text text-anchor="middle" x="145" y="-20.3" font-family="Times,serif" font-size="14.00">Ø ∈ ℕ ⊆ ℝ</text>
</a>
</g>
</g>
<!-- c_0_39&#45;&gt;c_0_100 -->
<g id="edge3" class="edge">
<title>c_0_39&#45;&gt;c_0_100</title>
<path fill="none" stroke="black" stroke-dasharray="5,2" d="M78.41,-73C102.56,-73 138.5,-73 138.5,-73 138.5,-73 138.5,-41.66 138.5,-41.66"/>
<polygon fill="black" stroke="black" points="142,-41.66 138.5,-31.66 135,-41.66 142,-41.66"/>
</g>
<!-- c_0_131 -->
<g id="node5" class="node">
<title>c_0_131</title>
<g id="a_node5"><a xlink:href="c_0_131.html" xlink:title="{Ø + 1 = 1}" target="_parent">
<polygon fill="#f8edd1" stroke="#7f7542" points="16,-16.5 16,-31.5 88,-31.5 88,-16.5 16,-16.5"/>
<text text-anchor="middle" x="52" y="-20.3" font-family="Times,serif" font-size="14.00">Ø + 1 = 1</text>
</a>
</g>
</g>
<!-- c_0_39&#45;&gt;c_0_131 -->
<g id="edge4" class="edge">
<title>c_0_39&#45;&gt;c_0_131</title>
<path fill="none" stroke="black" stroke-dasharray="5,2" d="M57,-68.33C57,-68.33 57,-41.7 57,-41.7"/>
<polygon fill="black" stroke="black" points="60.5,-41.7 57,-31.7 53.5,-41.7 60.5,-41.7"/>
</g>
</g>
</svg>
