<?xml version="1.0" encoding="UTF-8" standalone="no"?>
<!DOCTYPE svg PUBLIC "-//W3C//DTD SVG 1.1//EN"
 "http://www.w3.org/Graphics/SVG/1.1/DTD/svg11.dtd">
<!-- Generated by graphviz version 5.0.0 (0)
 -->
<!-- Title: proof Pages: 1 -->
<svg width="300pt" height="235pt"
 viewBox="0.00 0.00 300.00 235.00" xmlns="http://www.w3.org/2000/svg" xmlns:xlink="http://www.w3.org/1999/xlink">
<g id="graph0" class="graph" transform="scale(1 1) rotate(0) translate(4 231)">
<title>proof</title>
<g id="clust1" class="cluster">
<title>cluster_0</title>
<polygon fill="transparent" stroke="black" stroke-dasharray="1,5" points="98,-187 98,-219 194,-219 194,-187 98,-187"/>
</g>
<g id="clust2" class="cluster">
<title>cluster_1</title>
<polygon fill="transparent" stroke="black" stroke-width="2" points="14,-90 14,-167 278,-167 278,-90 14,-90"/>
</g>
<g id="clust3" class="cluster">
<title>cluster_2</title>
<polygon fill="transparent" stroke="black" stroke-dasharray="1,5" points="8,-8 8,-70 284,-70 284,-8 8,-8"/>
</g>
<!-- t5_fib_num -->
<g id="node1" class="node">
<title>t5_fib_num</title>
<g id="a_node1"><a xlink:href="t5_fib_num.html" xlink:title="t5_fib_num" target="_vizar">
<polygon fill="#69d2e7" stroke="#7f7542" points="106.5,-195.5 106.5,-210.5 185.5,-210.5 185.5,-195.5 106.5,-195.5"/>
<text text-anchor="middle" x="146" y="-199.3" font-family="Times,serif" font-size="14.00">t5_fib_num</text>
</a>
</g>
</g>
<!-- c_0_167 -->
<g id="node2" class="node">
<title>c_0_167</title>
<g id="a_node2"><a xlink:href="c_0_167.html" xlink:title="{X₁ ∈ ℕ|X₂ ∈ ℕ|⇊|gcd(fib(X₁),fib(X₂)) = fib(gcd(X₁,X₂))}" target="_vizar">
<polygon fill="#f8edd1" stroke="#7f7542" points="22,-98.5 22,-158.5 270,-158.5 270,-98.5 22,-98.5"/>
<text text-anchor="middle" x="146" y="-147.3" font-family="Times,serif" font-size="14.00">X₁ ∈ ℕ</text>
<polyline fill="none" stroke="#7f7542" points="22,-143.5 270,-143.5 "/>
<text text-anchor="middle" x="146" y="-132.3" font-family="Times,serif" font-size="14.00">X₂ ∈ ℕ</text>
<polyline fill="none" stroke="#7f7542" points="22,-128.5 270,-128.5 "/>
<text text-anchor="middle" x="146" y="-117.3" font-family="Times,serif" font-size="14.00">⇊</text>
<polyline fill="none" stroke="#7f7542" points="22,-113.5 270,-113.5 "/>
<text text-anchor="middle" x="146" y="-102.3" font-family="Times,serif" font-size="14.00">gcd(fib(X₁),fib(X₂)) = fib(gcd(X₁,X₂))</text>
</a>
</g>
</g>
<!-- t5_fib_num&#45;&gt;c_0_167 -->
<g id="edge1" class="edge">
<title>t5_fib_num&#45;&gt;c_0_167</title>
<path fill="none" stroke="black" d="M146,-195.31C146,-195.31 146,-168.51 146,-168.51"/>
<polygon fill="black" stroke="black" points="149.5,-168.51 146,-158.51 142.5,-168.51 149.5,-168.51"/>
</g>
<!-- c_0_201 -->
<g id="node3" class="node">
<title>c_0_201</title>
<g id="a_node3"><a xlink:href="c_0_201.html" xlink:title="{X₁ ∈ ℕ|⇊|gcd(fib(X₁),fib(sk₃)) = fib(gcd(X₁,sk₃))}" target="_vizar">
<polygon fill="#fa6900" stroke="#7f7542" points="16,-16.5 16,-61.5 276,-61.5 276,-16.5 16,-16.5"/>
<text text-anchor="middle" x="146" y="-50.3" font-family="Times,serif" font-size="14.00">X₁ ∈ ℕ</text>
<polyline fill="none" stroke="#7f7542" points="16,-46.5 276,-46.5 "/>
<text text-anchor="middle" x="146" y="-35.3" font-family="Times,serif" font-size="14.00">⇊</text>
<polyline fill="none" stroke="#7f7542" points="16,-31.5 276,-31.5 "/>
<text text-anchor="middle" x="146" y="-20.3" font-family="Times,serif" font-size="14.00">gcd(fib(X₁),fib(sk₃)) = fib(gcd(X₁,sk₃))</text>
</a>
</g>
</g>
<!-- c_0_167&#45;&gt;c_0_201 -->
<g id="edge2" class="edge">
<title>c_0_167&#45;&gt;c_0_201</title>
<path fill="none" stroke="black" stroke-dasharray="5,2" d="M146,-98.2C146,-98.2 146,-71.63 146,-71.63"/>
<polygon fill="black" stroke="black" points="149.5,-71.63 146,-61.63 142.5,-71.63 149.5,-71.63"/>
</g>
</g>
</svg>
