<?xml version="1.0" encoding="UTF-8" standalone="no"?>
<!DOCTYPE svg PUBLIC "-//W3C//DTD SVG 1.1//EN"
 "http://www.w3.org/Graphics/SVG/1.1/DTD/svg11.dtd">
<!-- Generated by graphviz version 5.0.0 (0)
 -->
<!-- Title: proof Pages: 1 -->
<svg width="404pt" height="160pt"
 viewBox="0.00 0.00 404.00 160.00" xmlns="http://www.w3.org/2000/svg" xmlns:xlink="http://www.w3.org/1999/xlink">
<g id="graph0" class="graph" transform="scale(1 1) rotate(0) translate(4 156)">
<title>proof</title>
<g id="clust1" class="cluster">
<title>cluster_0</title>
<polygon fill="transparent" stroke="black" stroke-dasharray="1,5" points="8,-112 8,-144 388,-144 388,-112 8,-112"/>
</g>
<g id="clust2" class="cluster">
<title>cluster_1</title>
<polygon fill="transparent" stroke="black" stroke-width="2" points="165,-60 165,-92 227,-92 227,-60 165,-60"/>
</g>
<g id="clust3" class="cluster">
<title>cluster_2</title>
<polygon fill="transparent" stroke="black" stroke-dasharray="1,5" points="181,-8 181,-40 211,-40 211,-8 181,-8"/>
</g>
<!-- c_0_207 -->
<g id="node1" class="node">
<title>c_0_207</title>
<g id="a_node1"><a xlink:href="c_0_207.html" xlink:title="{sk₁ । gcd(fib(sk₂),fib(sk₃))}" target="_vizar">
<polygon fill="#fa6900" stroke="#7f7542" points="204.5,-120.5 204.5,-135.5 379.5,-135.5 379.5,-120.5 204.5,-120.5"/>
<text text-anchor="middle" x="292" y="-124.3" font-family="Times,serif" font-size="14.00">sk₁ । gcd(fib(sk₂),fib(sk₃))</text>
</a>
</g>
</g>
<!-- c_0_211 -->
<g id="node3" class="node">
<title>c_0_211</title>
<g id="a_node3"><a xlink:href="c_0_211.html" xlink:title="{sk₁ । 1}" target="_vizar">
<polygon fill="#fa6900" stroke="#7f7542" points="173.5,-68.5 173.5,-83.5 218.5,-83.5 218.5,-68.5 173.5,-68.5"/>
<text text-anchor="middle" x="196" y="-72.3" font-family="Times,serif" font-size="14.00">sk₁ । 1</text>
</a>
</g>
</g>
<!-- c_0_207&#45;&gt;c_0_211 -->
<g id="edge1" class="edge">
<title>c_0_207&#45;&gt;c_0_211</title>
<path fill="none" stroke="black" d="M211.5,-120.33C211.5,-120.33 211.5,-93.7 211.5,-93.7"/>
<polygon fill="black" stroke="black" points="215,-93.7 211.5,-83.7 208,-93.7 215,-93.7"/>
</g>
<!-- c_0_208 -->
<g id="node2" class="node">
<title>c_0_208</title>
<g id="a_node2"><a xlink:href="c_0_208.html" xlink:title="{gcd(fib(sk₂),fib(sk₃)) = 1}" target="_vizar">
<polygon fill="#fa6900" stroke="#7f7542" points="16,-120.5 16,-135.5 186,-135.5 186,-120.5 16,-120.5"/>
<text text-anchor="middle" x="101" y="-124.3" font-family="Times,serif" font-size="14.00">gcd(fib(sk₂),fib(sk₃)) = 1</text>
</a>
</g>
</g>
<!-- c_0_208&#45;&gt;c_0_211 -->
<g id="edge2" class="edge">
<title>c_0_208&#45;&gt;c_0_211</title>
<path fill="none" stroke="black" d="M179.75,-120.33C179.75,-120.33 179.75,-93.7 179.75,-93.7"/>
<polygon fill="black" stroke="black" points="183.25,-93.7 179.75,-83.7 176.25,-93.7 183.25,-93.7"/>
</g>
<!-- c_0_213 -->
<g id="node4" class="node">
<title>c_0_213</title>
<g id="a_node4"><a xlink:href="c_0_213.html" xlink:title="⊥" target="_vizar">
<polygon fill="#fa6900" stroke="#7f7542" points="189,-16.5 189,-31.5 203,-31.5 203,-16.5 189,-16.5"/>
<text text-anchor="middle" x="196" y="-20.3" font-family="Times,serif" font-size="14.00">⊥</text>
</a>
</g>
</g>
<!-- c_0_211&#45;&gt;c_0_213 -->
<g id="edge3" class="edge">
<title>c_0_211&#45;&gt;c_0_213</title>
<path fill="none" stroke="black" stroke-dasharray="5,2" d="M196,-68.33C196,-68.33 196,-41.7 196,-41.7"/>
<polygon fill="black" stroke="black" points="199.5,-41.7 196,-31.7 192.5,-41.7 199.5,-41.7"/>
</g>
</g>
</svg>
