<?xml version="1.0" encoding="UTF-8" standalone="no"?>
<!DOCTYPE svg PUBLIC "-//W3C//DTD SVG 1.1//EN"
 "http://www.w3.org/Graphics/SVG/1.1/DTD/svg11.dtd">
<!-- Generated by graphviz version 5.0.0 (0)
 -->
<!-- Title: proof Pages: 1 -->
<svg width="540pt" height="340pt"
 viewBox="0.00 0.00 540.00 340.00" xmlns="http://www.w3.org/2000/svg" xmlns:xlink="http://www.w3.org/1999/xlink">
<g id="graph0" class="graph" transform="scale(1 1) rotate(0) translate(4 336)">
<title>proof</title>
<g id="clust1" class="cluster">
<title>cluster_0</title>
<polygon fill="transparent" stroke="black" stroke-dasharray="1,5" points="8,-217 8,-324 524,-324 524,-217 8,-217"/>
</g>
<g id="clust2" class="cluster">
<title>cluster_1</title>
<polygon fill="transparent" stroke="black" stroke-width="2" points="178,-105 178,-197 302,-197 302,-105 178,-105"/>
</g>
<g id="clust3" class="cluster">
<title>cluster_2</title>
<polygon fill="transparent" stroke="black" stroke-dasharray="1,5" points="178,-8 178,-85 302,-85 302,-8 178,-8"/>
</g>
<!-- c_0_127 -->
<g id="node1" class="node">
<title>c_0_127</title>
<g id="a_node1"><a xlink:href="c_0_127.html" xlink:title="{are_relative_prime(Ø,Fib(Ø + 1))}" target="_vizar">
<polygon fill="#f8edd1" stroke="#7f7542" points="280.5,-263 280.5,-278 515.5,-278 515.5,-263 280.5,-263"/>
<text text-anchor="middle" x="398" y="-266.8" font-family="Times,serif" font-size="14.00">are_relative_prime(Ø,Fib(Ø + 1))</text>
</a>
</g>
</g>
<!-- c_0_155 -->
<g id="node4" class="node">
<title>c_0_155</title>
<g id="a_node4"><a xlink:href="c_0_155.html" xlink:title="{N₁ । Fib(Ø + 1)|N₁ । Ø|prime(N₁)|⇊|⊥}" target="_vizar">
<polygon fill="#f8edd1" stroke="#7f7542" points="186.5,-113.5 186.5,-188.5 293.5,-188.5 293.5,-113.5 186.5,-113.5"/>
<text text-anchor="middle" x="240" y="-177.3" font-family="Times,serif" font-size="14.00">N₁ । Fib(Ø + 1)</text>
<polyline fill="none" stroke="#7f7542" points="186.5,-173.5 293.5,-173.5 "/>
<text text-anchor="middle" x="240" y="-162.3" font-family="Times,serif" font-size="14.00">N₁ । Ø</text>
<polyline fill="none" stroke="#7f7542" points="186.5,-158.5 293.5,-158.5 "/>
<text text-anchor="middle" x="240" y="-147.3" font-family="Times,serif" font-size="14.00">prime(N₁)</text>
<polyline fill="none" stroke="#7f7542" points="186.5,-143.5 293.5,-143.5 "/>
<text text-anchor="middle" x="240" y="-132.3" font-family="Times,serif" font-size="14.00">⇊</text>
<polyline fill="none" stroke="#7f7542" points="186.5,-128.5 293.5,-128.5 "/>
<text text-anchor="middle" x="240" y="-117.3" font-family="Times,serif" font-size="14.00">⊥</text>
</a>
</g>
</g>
<!-- c_0_127&#45;&gt;c_0_155 -->
<g id="edge1" class="edge">
<title>c_0_127&#45;&gt;c_0_155</title>
<path fill="none" stroke="black" d="M287,-262.66C287,-262.66 287,-198.66 287,-198.66"/>
<polygon fill="black" stroke="black" points="290.5,-198.66 287,-188.66 283.5,-198.66 290.5,-198.66"/>
</g>
<!-- c_0_107 -->
<g id="node2" class="node">
<title>c_0_107</title>
<g id="a_node2"><a xlink:href="c_0_107.html" xlink:title="{Ø ∈ ℕ}" target="_vizar">
<polygon fill="#f8edd1" stroke="#7f7542" points="218,-263 218,-278 262,-278 262,-263 218,-263"/>
<text text-anchor="middle" x="240" y="-266.8" font-family="Times,serif" font-size="14.00">Ø ∈ ℕ</text>
</a>
</g>
</g>
<!-- c_0_107&#45;&gt;c_0_155 -->
<g id="edge2" class="edge">
<title>c_0_107&#45;&gt;c_0_155</title>
<path fill="none" stroke="black" d="M240,-262.66C240,-262.66 240,-198.66 240,-198.66"/>
<polygon fill="black" stroke="black" points="243.5,-198.66 240,-188.66 236.5,-198.66 243.5,-198.66"/>
</g>
<!-- c_0_89 -->
<g id="node3" class="node">
<title>c_0_89</title>
<g id="a_node3"><a xlink:href="c_0_89.html" xlink:title="{N₃ । N₁|N₃ । N₂|are_relative_prime(N₁,N₂)|prime(N₃)|⇊|⊥}" target="_vizar">
<polygon fill="#f8edd1" stroke="#7f7542" points="16,-225.5 16,-315.5 200,-315.5 200,-225.5 16,-225.5"/>
<text text-anchor="middle" x="108" y="-304.3" font-family="Times,serif" font-size="14.00">N₃ । N₁</text>
<polyline fill="none" stroke="#7f7542" points="16,-300.5 200,-300.5 "/>
<text text-anchor="middle" x="108" y="-289.3" font-family="Times,serif" font-size="14.00">N₃ । N₂</text>
<polyline fill="none" stroke="#7f7542" points="16,-285.5 200,-285.5 "/>
<text text-anchor="middle" x="108" y="-274.3" font-family="Times,serif" font-size="14.00">are_relative_prime(N₁,N₂)</text>
<polyline fill="none" stroke="#7f7542" points="16,-270.5 200,-270.5 "/>
<text text-anchor="middle" x="108" y="-259.3" font-family="Times,serif" font-size="14.00">prime(N₃)</text>
<polyline fill="none" stroke="#7f7542" points="16,-255.5 200,-255.5 "/>
<text text-anchor="middle" x="108" y="-244.3" font-family="Times,serif" font-size="14.00">⇊</text>
<polyline fill="none" stroke="#7f7542" points="16,-240.5 200,-240.5 "/>
<text text-anchor="middle" x="108" y="-229.3" font-family="Times,serif" font-size="14.00">⊥</text>
</a>
</g>
</g>
<!-- c_0_89&#45;&gt;c_0_155 -->
<g id="edge3" class="edge">
<title>c_0_89&#45;&gt;c_0_155</title>
<path fill="none" stroke="black" d="M193.25,-225.32C193.25,-225.32 193.25,-198.83 193.25,-198.83"/>
<polygon fill="black" stroke="black" points="196.75,-198.83 193.25,-188.83 189.75,-198.83 196.75,-198.83"/>
</g>
<!-- c_0_179 -->
<g id="node5" class="node">
<title>c_0_179</title>
<g id="a_node5"><a xlink:href="c_0_179.html" xlink:title="{N₁ । Fib(Ø + 1)|prime(N₁)|⇊|⊥}" target="_vizar">
<polygon fill="#f8edd1" stroke="#7f7542" points="186.5,-16.5 186.5,-76.5 293.5,-76.5 293.5,-16.5 186.5,-16.5"/>
<text text-anchor="middle" x="240" y="-65.3" font-family="Times,serif" font-size="14.00">N₁ । Fib(Ø + 1)</text>
<polyline fill="none" stroke="#7f7542" points="186.5,-61.5 293.5,-61.5 "/>
<text text-anchor="middle" x="240" y="-50.3" font-family="Times,serif" font-size="14.00">prime(N₁)</text>
<polyline fill="none" stroke="#7f7542" points="186.5,-46.5 293.5,-46.5 "/>
<text text-anchor="middle" x="240" y="-35.3" font-family="Times,serif" font-size="14.00">⇊</text>
<polyline fill="none" stroke="#7f7542" points="186.5,-31.5 293.5,-31.5 "/>
<text text-anchor="middle" x="240" y="-20.3" font-family="Times,serif" font-size="14.00">⊥</text>
</a>
</g>
</g>
<!-- c_0_155&#45;&gt;c_0_179 -->
<g id="edge4" class="edge">
<title>c_0_155&#45;&gt;c_0_179</title>
<path fill="none" stroke="black" stroke-dasharray="5,2" d="M240,-113.27C240,-113.27 240,-86.64 240,-86.64"/>
<polygon fill="black" stroke="black" points="243.5,-86.64 240,-76.64 236.5,-86.64 243.5,-86.64"/>
</g>
</g>
</svg>
