<?xml version="1.0" encoding="UTF-8" standalone="no"?>
<!DOCTYPE svg PUBLIC "-//W3C//DTD SVG 1.1//EN"
 "http://www.w3.org/Graphics/SVG/1.1/DTD/svg11.dtd">
<!-- Generated by graphviz version 5.0.0 (0)
 -->
<!-- Title: proof Pages: 1 -->
<svg width="188pt" height="235pt"
 viewBox="0.00 0.00 188.00 235.00" xmlns="http://www.w3.org/2000/svg" xmlns:xlink="http://www.w3.org/1999/xlink">
<g id="graph0" class="graph" transform="scale(1 1) rotate(0) translate(4 231)">
<title>proof</title>
<g id="clust1" class="cluster">
<title>cluster_0</title>
<polygon fill="transparent" stroke="black" stroke-dasharray="1,5" points="40,-187 40,-219 140,-219 140,-187 40,-187"/>
</g>
<g id="clust2" class="cluster">
<title>cluster_1</title>
<polygon fill="transparent" stroke="black" stroke-width="2" points="30,-90 30,-167 150,-167 150,-90 30,-90"/>
</g>
<g id="clust3" class="cluster">
<title>cluster_2</title>
<polygon fill="transparent" stroke="black" stroke-dasharray="1,5" points="8,-8 8,-70 172,-70 172,-8 8,-8"/>
</g>
<!-- t50_newton -->
<g id="node1" class="node">
<title>t50_newton</title>
<g id="a_node1"><a xlink:href="t50_newton.html" xlink:title="t50_newton" target="_parent">
<polygon fill="#69d2e7" stroke="#7f7542" points="48,-195.5 48,-210.5 132,-210.5 132,-195.5 48,-195.5"/>
<text text-anchor="middle" x="90" y="-199.3" font-family="Times,serif" font-size="14.00">t50_newton</text>
</a>
</g>
</g>
<!-- c_0_138 -->
<g id="node2" class="node">
<title>c_0_138</title>
<g id="a_node2"><a xlink:href="c_0_138.html" xlink:title="{C₁ । C₂|C₁ । C₃|⇊|C₁ । gcd(C₂,C₃)}" target="_parent">
<polygon fill="#f8edd1" stroke="#7f7542" points="38.5,-98.5 38.5,-158.5 141.5,-158.5 141.5,-98.5 38.5,-98.5"/>
<text text-anchor="middle" x="90" y="-147.3" font-family="Times,serif" font-size="14.00">C₁ । C₂</text>
<polyline fill="none" stroke="#7f7542" points="38.5,-143.5 141.5,-143.5 "/>
<text text-anchor="middle" x="90" y="-132.3" font-family="Times,serif" font-size="14.00">C₁ । C₃</text>
<polyline fill="none" stroke="#7f7542" points="38.5,-128.5 141.5,-128.5 "/>
<text text-anchor="middle" x="90" y="-117.3" font-family="Times,serif" font-size="14.00">⇊</text>
<polyline fill="none" stroke="#7f7542" points="38.5,-113.5 141.5,-113.5 "/>
<text text-anchor="middle" x="90" y="-102.3" font-family="Times,serif" font-size="14.00">C₁ । gcd(C₂,C₃)</text>
</a>
</g>
</g>
<!-- t50_newton&#45;&gt;c_0_138 -->
<g id="edge1" class="edge">
<title>t50_newton&#45;&gt;c_0_138</title>
<path fill="none" stroke="black" d="M90,-195.31C90,-195.31 90,-168.51 90,-168.51"/>
<polygon fill="black" stroke="black" points="93.5,-168.51 90,-158.51 86.5,-168.51 93.5,-168.51"/>
</g>
<!-- c_0_184 -->
<g id="node3" class="node">
<title>c_0_184</title>
<g id="a_node3"><a xlink:href="c_0_184.html" xlink:title="{sk₁ । C₁|⇊|sk₁ । gcd(C₁,Fib(sk₃))}" target="_parent">
<polygon fill="#fa6900" stroke="#7f7542" points="16.5,-16.5 16.5,-61.5 163.5,-61.5 163.5,-16.5 16.5,-16.5"/>
<text text-anchor="middle" x="90" y="-50.3" font-family="Times,serif" font-size="14.00">sk₁ । C₁</text>
<polyline fill="none" stroke="#7f7542" points="16.5,-46.5 163.5,-46.5 "/>
<text text-anchor="middle" x="90" y="-35.3" font-family="Times,serif" font-size="14.00">⇊</text>
<polyline fill="none" stroke="#7f7542" points="16.5,-31.5 163.5,-31.5 "/>
<text text-anchor="middle" x="90" y="-20.3" font-family="Times,serif" font-size="14.00">sk₁ । gcd(C₁,Fib(sk₃))</text>
</a>
</g>
</g>
<!-- c_0_138&#45;&gt;c_0_184 -->
<g id="edge2" class="edge">
<title>c_0_138&#45;&gt;c_0_184</title>
<path fill="none" stroke="black" stroke-dasharray="5,2" d="M90,-98.2C90,-98.2 90,-71.63 90,-71.63"/>
<polygon fill="black" stroke="black" points="93.5,-71.63 90,-61.63 86.5,-71.63 93.5,-71.63"/>
</g>
</g>
</svg>
