<?xml version="1.0" encoding="UTF-8" standalone="no"?>
<!DOCTYPE svg PUBLIC "-//W3C//DTD SVG 1.1//EN"
 "http://www.w3.org/Graphics/SVG/1.1/DTD/svg11.dtd">
<!-- Generated by graphviz version 5.0.0 (0)
 -->
<!-- Title: proof Pages: 1 -->
<svg width="286pt" height="160pt"
 viewBox="0.00 0.00 286.00 160.00" xmlns="http://www.w3.org/2000/svg" xmlns:xlink="http://www.w3.org/1999/xlink">
<g id="graph0" class="graph" transform="scale(1 1) rotate(0) translate(4 156)">
<title>proof</title>
<g id="clust1" class="cluster">
<title>cluster_0</title>
<polygon fill="transparent" stroke="black" stroke-dasharray="1,5" points="111,-112 111,-144 173,-144 173,-112 111,-112"/>
</g>
<g id="clust2" class="cluster">
<title>cluster_1</title>
<polygon fill="transparent" stroke="black" stroke-width="2" points="111,-60 111,-92 173,-92 173,-60 111,-60"/>
</g>
<g id="clust3" class="cluster">
<title>cluster_2</title>
<polygon fill="transparent" stroke="black" stroke-dasharray="1,5" points="8,-8 8,-40 270,-40 270,-8 8,-8"/>
</g>
<!-- c_0_85 -->
<g id="node1" class="node">
<title>c_0_85</title>
<g id="a_node1"><a xlink:href="c_0_85.html" xlink:title="{ℕ = ω}" target="_vizar">
<polygon fill="#f8edd1" stroke="#7f7542" points="119,-120.5 119,-135.5 165,-135.5 165,-120.5 119,-120.5"/>
<text text-anchor="middle" x="142" y="-124.3" font-family="Times,serif" font-size="14.00">ℕ = ω</text>
</a>
</g>
</g>
<!-- c_0_115 -->
<g id="node2" class="node">
<title>c_0_115</title>
<g id="a_node2"><a xlink:href="c_0_115.html" xlink:title="{ω = ℕ}" target="_vizar">
<polygon fill="#f8edd1" stroke="#7f7542" points="119,-68.5 119,-83.5 165,-83.5 165,-68.5 119,-68.5"/>
<text text-anchor="middle" x="142" y="-72.3" font-family="Times,serif" font-size="14.00">ω = ℕ</text>
</a>
</g>
</g>
<!-- c_0_85&#45;&gt;c_0_115 -->
<g id="edge1" class="edge">
<title>c_0_85&#45;&gt;c_0_115</title>
<path fill="none" stroke="black" d="M142,-120.33C142,-120.33 142,-93.7 142,-93.7"/>
<polygon fill="black" stroke="black" points="145.5,-93.7 142,-83.7 138.5,-93.7 145.5,-93.7"/>
</g>
<!-- c_0_162 -->
<g id="node3" class="node">
<title>c_0_162</title>
<g id="a_node3"><a xlink:href="c_0_162.html" xlink:title="{Ø ∈ ℕ}" target="_vizar">
<polygon fill="#f8edd1" stroke="#7f7542" points="218,-16.5 218,-31.5 262,-31.5 262,-16.5 218,-16.5"/>
<text text-anchor="middle" x="240" y="-20.3" font-family="Times,serif" font-size="14.00">Ø ∈ ℕ</text>
</a>
</g>
</g>
<!-- c_0_115&#45;&gt;c_0_162 -->
<g id="edge2" class="edge">
<title>c_0_115&#45;&gt;c_0_162</title>
<path fill="none" stroke="black" stroke-dasharray="5,2" d="M165.22,-76C194.2,-76 240,-76 240,-76 240,-76 240,-41.67 240,-41.67"/>
<polygon fill="black" stroke="black" points="243.5,-41.67 240,-31.67 236.5,-41.67 243.5,-41.67"/>
</g>
<!-- c_0_146 -->
<g id="node4" class="node">
<title>c_0_146</title>
<g id="a_node4"><a xlink:href="c_0_146.html" xlink:title="{ℕ ⊆ ℕ}" target="_vizar">
<polygon fill="#f8edd1" stroke="#7f7542" points="152.5,-16.5 152.5,-31.5 199.5,-31.5 199.5,-16.5 152.5,-16.5"/>
<text text-anchor="middle" x="176" y="-20.3" font-family="Times,serif" font-size="14.00">ℕ ⊆ ℕ</text>
</a>
</g>
</g>
<!-- c_0_115&#45;&gt;c_0_146 -->
<g id="edge3" class="edge">
<title>c_0_115&#45;&gt;c_0_146</title>
<path fill="none" stroke="black" stroke-dasharray="5,2" d="M158.75,-68.33C158.75,-68.33 158.75,-41.7 158.75,-41.7"/>
<polygon fill="black" stroke="black" points="162.25,-41.7 158.75,-31.7 155.25,-41.7 162.25,-41.7"/>
</g>
<!-- c_0_163 -->
<g id="node5" class="node">
<title>c_0_163</title>
<g id="a_node5"><a xlink:href="c_0_163.html" xlink:title="{N₁ ∈ ℕ}" target="_vizar">
<polygon fill="#f8edd1" stroke="#7f7542" points="84,-16.5 84,-31.5 134,-31.5 134,-16.5 84,-16.5"/>
<text text-anchor="middle" x="109" y="-20.3" font-family="Times,serif" font-size="14.00">N₁ ∈ ℕ</text>
</a>
</g>
</g>
<!-- c_0_115&#45;&gt;c_0_163 -->
<g id="edge4" class="edge">
<title>c_0_115&#45;&gt;c_0_163</title>
<path fill="none" stroke="black" stroke-dasharray="5,2" d="M126.5,-68.33C126.5,-68.33 126.5,-41.7 126.5,-41.7"/>
<polygon fill="black" stroke="black" points="130,-41.7 126.5,-31.7 123,-41.7 130,-41.7"/>
</g>
<!-- c_0_143 -->
<g id="node6" class="node">
<title>c_0_143</title>
<g id="a_node6"><a xlink:href="c_0_143.html" xlink:title="{N₁ ∈ ℕ}" target="_vizar">
<polygon fill="#f8edd1" stroke="#7f7542" points="16,-16.5 16,-31.5 66,-31.5 66,-16.5 16,-16.5"/>
<text text-anchor="middle" x="41" y="-20.3" font-family="Times,serif" font-size="14.00">N₁ ∈ ℕ</text>
</a>
</g>
</g>
<!-- c_0_115&#45;&gt;c_0_143 -->
<g id="edge5" class="edge">
<title>c_0_115&#45;&gt;c_0_143</title>
<path fill="none" stroke="black" stroke-dasharray="5,2" d="M118.83,-76C89.01,-76 41,-76 41,-76 41,-76 41,-41.67 41,-41.67"/>
<polygon fill="black" stroke="black" points="44.5,-41.67 41,-31.67 37.5,-41.67 44.5,-41.67"/>
</g>
</g>
</svg>
