<?xml version="1.0" encoding="UTF-8" standalone="no"?>
<!DOCTYPE svg PUBLIC "-//W3C//DTD SVG 1.1//EN"
 "http://www.w3.org/Graphics/SVG/1.1/DTD/svg11.dtd">
<!-- Generated by graphviz version 5.0.0 (0)
 -->
<!-- Title: proof Pages: 1 -->
<svg width="214pt" height="108pt"
 viewBox="0.00 0.00 214.00 108.00" xmlns="http://www.w3.org/2000/svg" xmlns:xlink="http://www.w3.org/1999/xlink">
<g id="graph0" class="graph" transform="scale(1 1) rotate(0) translate(4 104)">
<title>proof</title>
<g id="clust1" class="cluster">
<title>cluster_1</title>
<polygon fill="transparent" stroke="black" stroke-width="2" points="8,-60 8,-92 198,-92 198,-60 8,-60"/>
</g>
<g id="clust2" class="cluster">
<title>cluster_2</title>
<polygon fill="transparent" stroke="black" stroke-dasharray="1,5" points="28,-8 28,-40 178,-40 178,-8 28,-8"/>
</g>
<!-- commutativity_k2_nat_1 -->
<g id="node1" class="node">
<title>commutativity_k2_nat_1</title>
<g id="a_node1"><a xlink:href="commutativity_k2_nat_1.html" xlink:title="commutativity_k2_nat_1" target="_vizar">
<polygon fill="#69d2e7" stroke="#7f7542" points="16,-68.5 16,-83.5 190,-83.5 190,-68.5 16,-68.5"/>
<text text-anchor="middle" x="103" y="-72.3" font-family="Times,serif" font-size="14.00">commutativity_k2_nat_1</text>
</a>
</g>
</g>
<!-- c_0_60 -->
<g id="node2" class="node">
<title>c_0_60</title>
<g id="a_node2"><a xlink:href="c_0_60.html" xlink:title="{N₁ + N₂ = N₂ + N₁}" target="_vizar">
<polygon fill="#f8edd1" stroke="#7f7542" points="36.5,-16.5 36.5,-31.5 169.5,-31.5 169.5,-16.5 36.5,-16.5"/>
<text text-anchor="middle" x="103" y="-20.3" font-family="Times,serif" font-size="14.00">N₁ + N₂ = N₂ + N₁</text>
</a>
</g>
</g>
<!-- commutativity_k2_nat_1&#45;&gt;c_0_60 -->
<g id="edge1" class="edge">
<title>commutativity_k2_nat_1&#45;&gt;c_0_60</title>
<path fill="none" stroke="black" d="M103,-68.33C103,-68.33 103,-41.7 103,-41.7"/>
<polygon fill="black" stroke="black" points="106.5,-41.7 103,-31.7 99.5,-41.7 106.5,-41.7"/>
</g>
</g>
</svg>
