<?xml version="1.0" encoding="UTF-8" standalone="no"?>
<!DOCTYPE svg PUBLIC "-//W3C//DTD SVG 1.1//EN"
 "http://www.w3.org/Graphics/SVG/1.1/DTD/svg11.dtd">
<!-- Generated by graphviz version 5.0.0 (0)
 -->
<!-- Title: proof Pages: 1 -->
<svg width="148pt" height="153pt"
 viewBox="0.00 0.00 148.00 153.00" xmlns="http://www.w3.org/2000/svg" xmlns:xlink="http://www.w3.org/1999/xlink">
<g id="graph0" class="graph" transform="scale(1 1) rotate(0) translate(4 149)">
<title>proof</title>
<g id="clust1" class="cluster">
<title>cluster_1</title>
<polygon fill="transparent" stroke="black" stroke-width="2" points="20,-105 20,-137 120,-137 120,-105 20,-105"/>
</g>
<g id="clust2" class="cluster">
<title>cluster_2</title>
<polygon fill="transparent" stroke="black" stroke-dasharray="1,5" points="8,-8 8,-85 132,-85 132,-8 8,-8"/>
</g>
<!-- t50_newton -->
<g id="node1" class="node">
<title>t50_newton</title>
<g id="a_node1"><a xlink:href="t50_newton.html" xlink:title="t50_newton" target="_vizar">
<polygon fill="#69d2e7" stroke="#7f7542" points="28,-113.5 28,-128.5 112,-128.5 112,-113.5 28,-113.5"/>
<text text-anchor="middle" x="70" y="-117.3" font-family="Times,serif" font-size="14.00">t50_newton</text>
</a>
</g>
</g>
<!-- c_0_138 -->
<g id="node2" class="node">
<title>c_0_138</title>
<g id="a_node2"><a xlink:href="c_0_138.html" xlink:title="{N₁ । N₂|N₁ । N₃|⇊|N₁ । gcd(N₂,N₃)}" target="_vizar">
<polygon fill="#f8edd1" stroke="#7f7542" points="16.5,-16.5 16.5,-76.5 123.5,-76.5 123.5,-16.5 16.5,-16.5"/>
<text text-anchor="middle" x="70" y="-65.3" font-family="Times,serif" font-size="14.00">N₁ । N₂</text>
<polyline fill="none" stroke="#7f7542" points="16.5,-61.5 123.5,-61.5 "/>
<text text-anchor="middle" x="70" y="-50.3" font-family="Times,serif" font-size="14.00">N₁ । N₃</text>
<polyline fill="none" stroke="#7f7542" points="16.5,-46.5 123.5,-46.5 "/>
<text text-anchor="middle" x="70" y="-35.3" font-family="Times,serif" font-size="14.00">⇊</text>
<polyline fill="none" stroke="#7f7542" points="16.5,-31.5 123.5,-31.5 "/>
<text text-anchor="middle" x="70" y="-20.3" font-family="Times,serif" font-size="14.00">N₁ । gcd(N₂,N₃)</text>
</a>
</g>
</g>
<!-- t50_newton&#45;&gt;c_0_138 -->
<g id="edge1" class="edge">
<title>t50_newton&#45;&gt;c_0_138</title>
<path fill="none" stroke="black" d="M70,-113.31C70,-113.31 70,-86.51 70,-86.51"/>
<polygon fill="black" stroke="black" points="73.5,-86.51 70,-76.51 66.5,-86.51 73.5,-86.51"/>
</g>
</g>
</svg>
