<?xml version="1.0" encoding="UTF-8" standalone="no"?>
<!DOCTYPE svg PUBLIC "-//W3C//DTD SVG 1.1//EN"
 "http://www.w3.org/Graphics/SVG/1.1/DTD/svg11.dtd">
<!-- Generated by graphviz version 5.0.0 (0)
 -->
<!-- Title: proof Pages: 1 -->
<svg width="326pt" height="310pt"
 viewBox="0.00 0.00 326.00 310.00" xmlns="http://www.w3.org/2000/svg" xmlns:xlink="http://www.w3.org/1999/xlink">
<g id="graph0" class="graph" transform="scale(1 1) rotate(0) translate(4 306)">
<title>proof</title>
<g id="clust1" class="cluster">
<title>cluster_0</title>
<polygon fill="transparent" stroke="black" stroke-dasharray="1,5" points="8,-217 8,-294 310,-294 310,-217 8,-217"/>
</g>
<g id="clust2" class="cluster">
<title>cluster_1</title>
<polygon fill="transparent" stroke="black" stroke-width="2" points="69,-90 69,-197 221,-197 221,-90 69,-90"/>
</g>
<g id="clust3" class="cluster">
<title>cluster_2</title>
<polygon fill="transparent" stroke="black" stroke-dasharray="1,5" points="15,-8 15,-70 275,-70 275,-8 15,-8"/>
</g>
<!-- c_0_58 -->
<g id="node1" class="node">
<title>c_0_58</title>
<g id="a_node1"><a xlink:href="c_0_58.html" xlink:title="{X₁ ∈ X₂|⇊|&amp;lt;X₁&amp;gt; ∈ fin&#45;seq(X₂)|X₂ = Ø}" target="_vizar">
<polygon fill="#f8edd1" stroke="#7f7542" points="170,-225.5 170,-285.5 302,-285.5 302,-225.5 170,-225.5"/>
<text text-anchor="middle" x="236" y="-274.3" font-family="Times,serif" font-size="14.00">X₁ ∈ X₂</text>
<polyline fill="none" stroke="#7f7542" points="170,-270.5 302,-270.5 "/>
<text text-anchor="middle" x="236" y="-259.3" font-family="Times,serif" font-size="14.00">⇊</text>
<polyline fill="none" stroke="#7f7542" points="170,-255.5 302,-255.5 "/>
<text text-anchor="middle" x="236" y="-244.3" font-family="Times,serif" font-size="14.00">&lt;X₁&gt; ∈ fin&#45;seq(X₂)</text>
<polyline fill="none" stroke="#7f7542" points="170,-240.5 302,-240.5 "/>
<text text-anchor="middle" x="236" y="-229.3" font-family="Times,serif" font-size="14.00">X₂ = Ø</text>
</a>
</g>
</g>
<!-- c_0_69 -->
<g id="node3" class="node">
<title>c_0_69</title>
<g id="a_node3"><a xlink:href="c_0_69.html" xlink:title="{X₁ ∈ \{&amp;lt;z&amp;gt;: z ∈ X₃\}|sk₉(X₁,X₃) ∈ X₂|⇊|X₁ ∈ fin&#45;seq(X₂)|X₂ = Ø|X₃ = Ø}" target="_vizar">
<polygon fill="#f8edd1" stroke="#7f7542" points="77,-98.5 77,-188.5 213,-188.5 213,-98.5 77,-98.5"/>
<text text-anchor="middle" x="145" y="-177.3" font-family="Times,serif" font-size="14.00">X₁ ∈ {&lt;z&gt;: z ∈ X₃}</text>
<polyline fill="none" stroke="#7f7542" points="77,-173.5 213,-173.5 "/>
<text text-anchor="middle" x="145" y="-162.3" font-family="Times,serif" font-size="14.00">sk₉(X₁,X₃) ∈ X₂</text>
<polyline fill="none" stroke="#7f7542" points="77,-158.5 213,-158.5 "/>
<text text-anchor="middle" x="145" y="-147.3" font-family="Times,serif" font-size="14.00">⇊</text>
<polyline fill="none" stroke="#7f7542" points="77,-143.5 213,-143.5 "/>
<text text-anchor="middle" x="145" y="-132.3" font-family="Times,serif" font-size="14.00">X₁ ∈ fin&#45;seq(X₂)</text>
<polyline fill="none" stroke="#7f7542" points="77,-128.5 213,-128.5 "/>
<text text-anchor="middle" x="145" y="-117.3" font-family="Times,serif" font-size="14.00">X₂ = Ø</text>
<polyline fill="none" stroke="#7f7542" points="77,-113.5 213,-113.5 "/>
<text text-anchor="middle" x="145" y="-102.3" font-family="Times,serif" font-size="14.00">X₃ = Ø</text>
</a>
</g>
</g>
<!-- c_0_58&#45;&gt;c_0_69 -->
<g id="edge1" class="edge">
<title>c_0_58&#45;&gt;c_0_69</title>
<path fill="none" stroke="black" d="M191.5,-225.49C191.5,-225.49 191.5,-198.77 191.5,-198.77"/>
<polygon fill="black" stroke="black" points="195,-198.77 191.5,-188.77 188,-198.77 195,-198.77"/>
</g>
<!-- c_0_59 -->
<g id="node2" class="node">
<title>c_0_59</title>
<g id="a_node2"><a xlink:href="c_0_59.html" xlink:title="{X₁ ∈ \{&amp;lt;z&amp;gt;: z ∈ X₂\}|⇊|&amp;lt;sk₉(X₁,X₂)&amp;gt; = X₁|X₂ = Ø}" target="_vizar">
<polygon fill="#f8edd1" stroke="#7f7542" points="16,-225.5 16,-285.5 152,-285.5 152,-225.5 16,-225.5"/>
<text text-anchor="middle" x="84" y="-274.3" font-family="Times,serif" font-size="14.00">X₁ ∈ {&lt;z&gt;: z ∈ X₂}</text>
<polyline fill="none" stroke="#7f7542" points="16,-270.5 152,-270.5 "/>
<text text-anchor="middle" x="84" y="-259.3" font-family="Times,serif" font-size="14.00">⇊</text>
<polyline fill="none" stroke="#7f7542" points="16,-255.5 152,-255.5 "/>
<text text-anchor="middle" x="84" y="-244.3" font-family="Times,serif" font-size="14.00">&lt;sk₉(X₁,X₂)&gt; = X₁</text>
<polyline fill="none" stroke="#7f7542" points="16,-240.5 152,-240.5 "/>
<text text-anchor="middle" x="84" y="-229.3" font-family="Times,serif" font-size="14.00">X₂ = Ø</text>
</a>
</g>
</g>
<!-- c_0_59&#45;&gt;c_0_69 -->
<g id="edge2" class="edge">
<title>c_0_59&#45;&gt;c_0_69</title>
<path fill="none" stroke="black" d="M114.5,-225.49C114.5,-225.49 114.5,-198.77 114.5,-198.77"/>
<polygon fill="black" stroke="black" points="118,-198.77 114.5,-188.77 111,-198.77 118,-198.77"/>
</g>
<!-- c_0_78 -->
<g id="node4" class="node">
<title>c_0_78</title>
<g id="a_node4"><a xlink:href="c_0_78.html" xlink:title="{X₁ = Ø|\{&amp;lt;z&amp;gt;: z ∈ X₁\} ⊆ X₂|sk₅(\{&amp;lt;z&amp;gt;: z ∈ X₁\},X₂) ∈ fin&#45;seq(X₁)}" target="_vizar">
<polygon fill="#f8edd1" stroke="#7f7542" points="23,-16.5 23,-61.5 267,-61.5 267,-16.5 23,-16.5"/>
<text text-anchor="middle" x="145" y="-50.3" font-family="Times,serif" font-size="14.00">X₁ = Ø</text>
<polyline fill="none" stroke="#7f7542" points="23,-46.5 267,-46.5 "/>
<text text-anchor="middle" x="145" y="-35.3" font-family="Times,serif" font-size="14.00">{&lt;z&gt;: z ∈ X₁} ⊆ X₂</text>
<polyline fill="none" stroke="#7f7542" points="23,-31.5 267,-31.5 "/>
<text text-anchor="middle" x="145" y="-20.3" font-family="Times,serif" font-size="14.00">sk₅({&lt;z&gt;: z ∈ X₁},X₂) ∈ fin&#45;seq(X₁)</text>
</a>
</g>
</g>
<!-- c_0_69&#45;&gt;c_0_78 -->
<g id="edge3" class="edge">
<title>c_0_69&#45;&gt;c_0_78</title>
<path fill="none" stroke="black" stroke-dasharray="5,2" d="M145,-98.27C145,-98.27 145,-71.59 145,-71.59"/>
<polygon fill="black" stroke="black" points="148.5,-71.59 145,-61.59 141.5,-71.59 148.5,-71.59"/>
</g>
</g>
</svg>
