<?xml version="1.0" encoding="UTF-8" standalone="no"?>
<!DOCTYPE svg PUBLIC "-//W3C//DTD SVG 1.1//EN"
 "http://www.w3.org/Graphics/SVG/1.1/DTD/svg11.dtd">
<!-- Generated by graphviz version 5.0.0 (0)
 -->
<!-- Title: proof Pages: 1 -->
<svg width="206pt" height="265pt"
 viewBox="0.00 0.00 206.00 265.00" xmlns="http://www.w3.org/2000/svg" xmlns:xlink="http://www.w3.org/1999/xlink">
<g id="graph0" class="graph" transform="scale(1 1) rotate(0) translate(4 261)">
<title>proof</title>
<g id="clust1" class="cluster">
<title>cluster_0</title>
<polygon fill="transparent" stroke="black" stroke-dasharray="1,5" points="56,-217 56,-249 142,-249 142,-217 56,-217"/>
</g>
<g id="clust2" class="cluster">
<title>cluster_1</title>
<polygon fill="transparent" stroke="black" stroke-width="2" points="66,-135 66,-197 132,-197 132,-135 66,-135"/>
</g>
<g id="clust3" class="cluster">
<title>cluster_2</title>
<polygon fill="transparent" stroke="black" stroke-dasharray="1,5" points="8,-8 8,-115 190,-115 190,-8 8,-8"/>
</g>
<!-- t1_subset -->
<g id="node1" class="node">
<title>t1_subset</title>
<g id="a_node1"><a xlink:href="t1_subset.html" xlink:title="t1_subset" target="_vizar">
<polygon fill="#69d2e7" stroke="#7f7542" points="64,-225.5 64,-240.5 134,-240.5 134,-225.5 64,-225.5"/>
<text text-anchor="middle" x="99" y="-229.3" font-family="Times,serif" font-size="14.00">t1_subset</text>
</a>
</g>
</g>
<!-- c_0_65 -->
<g id="node2" class="node">
<title>c_0_65</title>
<g id="a_node2"><a xlink:href="c_0_65.html" xlink:title="{X₁ ∈ X₂|⇊|X₁ ∈ X₂}" target="_vizar">
<polygon fill="#f8edd1" stroke="#7f7542" points="74,-143.5 74,-188.5 124,-188.5 124,-143.5 74,-143.5"/>
<text text-anchor="middle" x="99" y="-177.3" font-family="Times,serif" font-size="14.00">X₁ ∈ X₂</text>
<polyline fill="none" stroke="#7f7542" points="74,-173.5 124,-173.5 "/>
<text text-anchor="middle" x="99" y="-162.3" font-family="Times,serif" font-size="14.00">⇊</text>
<polyline fill="none" stroke="#7f7542" points="74,-158.5 124,-158.5 "/>
<text text-anchor="middle" x="99" y="-147.3" font-family="Times,serif" font-size="14.00">X₁ ∈ X₂</text>
</a>
</g>
</g>
<!-- t1_subset&#45;&gt;c_0_65 -->
<g id="edge1" class="edge">
<title>t1_subset&#45;&gt;c_0_65</title>
<path fill="none" stroke="black" d="M99,-225.31C99,-225.31 99,-198.76 99,-198.76"/>
<polygon fill="black" stroke="black" points="102.5,-198.76 99,-188.76 95.5,-198.76 102.5,-198.76"/>
</g>
<!-- c_0_47 -->
<g id="node3" class="node">
<title>c_0_47</title>
<g id="a_node3"><a xlink:href="c_0_47.html" xlink:title="{X₂ = proj₂(X₁)|X₃ ∈ X₂|function(X₁)|relation(X₁)|⇊|sk₂(X₁,X₂,X₃) ∈ proj₁(X₁)}" target="_vizar">
<polygon fill="#f8edd1" stroke="#7f7542" points="16.5,-16.5 16.5,-106.5 181.5,-106.5 181.5,-16.5 16.5,-16.5"/>
<text text-anchor="middle" x="99" y="-95.3" font-family="Times,serif" font-size="14.00">X₂ = proj₂(X₁)</text>
<polyline fill="none" stroke="#7f7542" points="16.5,-91.5 181.5,-91.5 "/>
<text text-anchor="middle" x="99" y="-80.3" font-family="Times,serif" font-size="14.00">X₃ ∈ X₂</text>
<polyline fill="none" stroke="#7f7542" points="16.5,-76.5 181.5,-76.5 "/>
<text text-anchor="middle" x="99" y="-65.3" font-family="Times,serif" font-size="14.00">function(X₁)</text>
<polyline fill="none" stroke="#7f7542" points="16.5,-61.5 181.5,-61.5 "/>
<text text-anchor="middle" x="99" y="-50.3" font-family="Times,serif" font-size="14.00">relation(X₁)</text>
<polyline fill="none" stroke="#7f7542" points="16.5,-46.5 181.5,-46.5 "/>
<text text-anchor="middle" x="99" y="-35.3" font-family="Times,serif" font-size="14.00">⇊</text>
<polyline fill="none" stroke="#7f7542" points="16.5,-31.5 181.5,-31.5 "/>
<text text-anchor="middle" x="99" y="-20.3" font-family="Times,serif" font-size="14.00">sk₂(X₁,X₂,X₃) ∈ proj₁(X₁)</text>
</a>
</g>
</g>
<!-- c_0_65&#45;&gt;c_0_47 -->
<g id="edge2" class="edge">
<title>c_0_65&#45;&gt;c_0_47</title>
<path fill="none" stroke="black" stroke-dasharray="5,2" d="M99,-143.33C99,-143.33 99,-116.89 99,-116.89"/>
<polygon fill="black" stroke="black" points="102.5,-116.89 99,-106.89 95.5,-116.89 102.5,-116.89"/>
</g>
</g>
</svg>
