<?xml version="1.0" encoding="UTF-8" standalone="no"?>
<!DOCTYPE svg PUBLIC "-//W3C//DTD SVG 1.1//EN"
 "http://www.w3.org/Graphics/SVG/1.1/DTD/svg11.dtd">
<!-- Generated by graphviz version 5.0.0 (0)
 -->
<!-- Title: proof Pages: 1 -->
<svg width="184pt" height="325pt"
 viewBox="0.00 0.00 184.00 325.00" xmlns="http://www.w3.org/2000/svg" xmlns:xlink="http://www.w3.org/1999/xlink">
<g id="graph0" class="graph" transform="scale(1 1) rotate(0) translate(4 321)">
<title>proof</title>
<g id="clust1" class="cluster">
<title>cluster_0</title>
<polygon fill="transparent" stroke="black" stroke-dasharray="1,5" points="12,-217 12,-309 164,-309 164,-217 12,-217"/>
</g>
<g id="clust2" class="cluster">
<title>cluster_1</title>
<polygon fill="transparent" stroke="black" stroke-width="2" points="8,-120 8,-197 168,-197 168,-120 8,-120"/>
</g>
<g id="clust3" class="cluster">
<title>cluster_2</title>
<polygon fill="transparent" stroke="black" stroke-dasharray="1,5" points="8,-8 8,-100 168,-100 168,-8 8,-8"/>
</g>
<!-- c_0_75 -->
<g id="node1" class="node">
<title>c_0_75</title>
<g id="a_node1"><a xlink:href="c_0_75.html" xlink:title="{X₁ = &#160;&amp;lt;*..*&amp;gt; X₄|X₂ = proj2(sk₈₃(X₃))|in(X₄,X₃)|⇊|in(X₁,X₂)}" target="_parent">
<polygon fill="#f8edd1" stroke="#7f7542" points="20,-225.5 20,-300.5 156,-300.5 156,-225.5 20,-225.5"/>
<text text-anchor="middle" x="88" y="-289.3" font-family="Times,serif" font-size="14.00">X₁ = &lt;*..*&gt; X₄</text>
<polyline fill="none" stroke="#7f7542" points="20,-285.5 156,-285.5 "/>
<text text-anchor="middle" x="88" y="-274.3" font-family="Times,serif" font-size="14.00">X₂ = proj2(sk₈₃(X₃))</text>
<polyline fill="none" stroke="#7f7542" points="20,-270.5 156,-270.5 "/>
<text text-anchor="middle" x="88" y="-259.3" font-family="Times,serif" font-size="14.00">in(X₄,X₃)</text>
<polyline fill="none" stroke="#7f7542" points="20,-255.5 156,-255.5 "/>
<text text-anchor="middle" x="88" y="-244.3" font-family="Times,serif" font-size="14.00">⇊</text>
<polyline fill="none" stroke="#7f7542" points="20,-240.5 156,-240.5 "/>
<text text-anchor="middle" x="88" y="-229.3" font-family="Times,serif" font-size="14.00">in(X₁,X₂)</text>
</a>
</g>
</g>
<!-- c_0_82 -->
<g id="node2" class="node">
<title>c_0_82</title>
<g id="a_node2"><a xlink:href="c_0_82.html" xlink:title="{X₁ = &#160;&amp;lt;*..*&amp;gt; X₃|in(X₃,X₂)|⇊|in(X₁,proj2(sk₈₃(X₂)))}" target="_parent">
<polygon fill="#f8edd1" stroke="#7f7542" points="16,-128.5 16,-188.5 160,-188.5 160,-128.5 16,-128.5"/>
<text text-anchor="middle" x="88" y="-177.3" font-family="Times,serif" font-size="14.00">X₁ = &lt;*..*&gt; X₃</text>
<polyline fill="none" stroke="#7f7542" points="16,-173.5 160,-173.5 "/>
<text text-anchor="middle" x="88" y="-162.3" font-family="Times,serif" font-size="14.00">in(X₃,X₂)</text>
<polyline fill="none" stroke="#7f7542" points="16,-158.5 160,-158.5 "/>
<text text-anchor="middle" x="88" y="-147.3" font-family="Times,serif" font-size="14.00">⇊</text>
<polyline fill="none" stroke="#7f7542" points="16,-143.5 160,-143.5 "/>
<text text-anchor="middle" x="88" y="-132.3" font-family="Times,serif" font-size="14.00">in(X₁,proj2(sk₈₃(X₂)))</text>
</a>
</g>
</g>
<!-- c_0_75&#45;&gt;c_0_82 -->
<g id="edge1" class="edge">
<title>c_0_75&#45;&gt;c_0_82</title>
<path fill="none" stroke="black" d="M88,-225.27C88,-225.27 88,-198.64 88,-198.64"/>
<polygon fill="black" stroke="black" points="91.5,-198.64 88,-188.64 84.5,-198.64 91.5,-198.64"/>
</g>
<!-- c_0_89 -->
<g id="node3" class="node">
<title>c_0_89</title>
<g id="a_node3"><a xlink:href="c_0_89.html" xlink:title="{X₁ = &#160;&amp;lt;*..*&amp;gt; X₃|X₃ ∈ X₂|⇊|X₂ = Ø|in(X₁,proj2(sk₈₃(X₂)))}" target="_parent">
<polygon fill="#f8edd1" stroke="#7f7542" points="16,-16.5 16,-91.5 160,-91.5 160,-16.5 16,-16.5"/>
<text text-anchor="middle" x="88" y="-80.3" font-family="Times,serif" font-size="14.00">X₁ = &lt;*..*&gt; X₃</text>
<polyline fill="none" stroke="#7f7542" points="16,-76.5 160,-76.5 "/>
<text text-anchor="middle" x="88" y="-65.3" font-family="Times,serif" font-size="14.00">X₃ ∈ X₂</text>
<polyline fill="none" stroke="#7f7542" points="16,-61.5 160,-61.5 "/>
<text text-anchor="middle" x="88" y="-50.3" font-family="Times,serif" font-size="14.00">⇊</text>
<polyline fill="none" stroke="#7f7542" points="16,-46.5 160,-46.5 "/>
<text text-anchor="middle" x="88" y="-35.3" font-family="Times,serif" font-size="14.00">X₂ = Ø</text>
<polyline fill="none" stroke="#7f7542" points="16,-31.5 160,-31.5 "/>
<text text-anchor="middle" x="88" y="-20.3" font-family="Times,serif" font-size="14.00">in(X₁,proj2(sk₈₃(X₂)))</text>
</a>
</g>
</g>
<!-- c_0_82&#45;&gt;c_0_89 -->
<g id="edge2" class="edge">
<title>c_0_82&#45;&gt;c_0_89</title>
<path fill="none" stroke="black" stroke-dasharray="5,2" d="M88,-128.27C88,-128.27 88,-101.59 88,-101.59"/>
<polygon fill="black" stroke="black" points="91.5,-101.59 88,-91.59 84.5,-101.59 91.5,-101.59"/>
</g>
</g>
</svg>
