<?xml version="1.0" encoding="UTF-8" standalone="no"?>
<!DOCTYPE svg PUBLIC "-//W3C//DTD SVG 1.1//EN"
 "http://www.w3.org/Graphics/SVG/1.1/DTD/svg11.dtd">
<!-- Generated by graphviz version 5.0.0 (0)
 -->
<!-- Title: proof Pages: 1 -->
<svg width="309pt" height="250pt"
 viewBox="0.00 0.00 309.00 250.00" xmlns="http://www.w3.org/2000/svg" xmlns:xlink="http://www.w3.org/1999/xlink">
<g id="graph0" class="graph" transform="scale(1 1) rotate(0) translate(4 246)">
<title>proof</title>
<g id="clust1" class="cluster">
<title>cluster_0</title>
<polygon fill="transparent" stroke="black" stroke-dasharray="1,5" points="26,-157 26,-234 293,-234 293,-157 26,-157"/>
</g>
<g id="clust2" class="cluster">
<title>cluster_1</title>
<polygon fill="transparent" stroke="black" stroke-width="2" points="8,-75 8,-137 274,-137 274,-75 8,-75"/>
</g>
<g id="clust3" class="cluster">
<title>cluster_2</title>
<polygon fill="transparent" stroke="black" stroke-dasharray="1,5" points="32,-8 32,-55 250,-55 250,-8 32,-8"/>
</g>
<!-- c_0_94 -->
<g id="node1" class="node">
<title>c_0_94</title>
<g id="a_node1"><a xlink:href="c_0_94.html" xlink:title="{X₁ ∈ proj₂(sk₁₀(X₂))|⇊|X₁ ∈ 1&#45;tuples(X₂)|X₂ = Ø}" target="_parent">
<polygon fill="#f8edd1" stroke="#7f7542" points="153.5,-165.5 153.5,-225.5 284.5,-225.5 284.5,-165.5 153.5,-165.5"/>
<text text-anchor="middle" x="219" y="-214.3" font-family="Times,serif" font-size="14.00">X₁ ∈ proj₂(sk₁₀(X₂))</text>
<polyline fill="none" stroke="#7f7542" points="153.5,-210.5 284.5,-210.5 "/>
<text text-anchor="middle" x="219" y="-199.3" font-family="Times,serif" font-size="14.00">⇊</text>
<polyline fill="none" stroke="#7f7542" points="153.5,-195.5 284.5,-195.5 "/>
<text text-anchor="middle" x="219" y="-184.3" font-family="Times,serif" font-size="14.00">X₁ ∈ 1&#45;tuples(X₂)</text>
<polyline fill="none" stroke="#7f7542" points="153.5,-180.5 284.5,-180.5 "/>
<text text-anchor="middle" x="219" y="-169.3" font-family="Times,serif" font-size="14.00">X₂ = Ø</text>
</a>
</g>
</g>
<!-- c_0_104 -->
<g id="node3" class="node">
<title>c_0_104</title>
<g id="a_node3"><a xlink:href="c_0_104.html" xlink:title="{X₁ = Ø|proj₂(sk₁₀(X₁)) ⊆ X₂|sk₅(proj₂(sk₁₀(X₁)),X₂) ∈ 1&#45;tuples(X₁)}" target="_parent">
<polygon fill="#f8edd1" stroke="#7f7542" points="16,-83.5 16,-128.5 266,-128.5 266,-83.5 16,-83.5"/>
<text text-anchor="middle" x="141" y="-117.3" font-family="Times,serif" font-size="14.00">X₁ = Ø</text>
<polyline fill="none" stroke="#7f7542" points="16,-113.5 266,-113.5 "/>
<text text-anchor="middle" x="141" y="-102.3" font-family="Times,serif" font-size="14.00">proj₂(sk₁₀(X₁)) ⊆ X₂</text>
<polyline fill="none" stroke="#7f7542" points="16,-98.5 266,-98.5 "/>
<text text-anchor="middle" x="141" y="-87.3" font-family="Times,serif" font-size="14.00">sk₅(proj₂(sk₁₀(X₁)),X₂) ∈ 1&#45;tuples(X₁)</text>
</a>
</g>
</g>
<!-- c_0_94&#45;&gt;c_0_104 -->
<g id="edge1" class="edge">
<title>c_0_94&#45;&gt;c_0_104</title>
<path fill="none" stroke="black" d="M209.75,-165.2C209.75,-165.2 209.75,-138.63 209.75,-138.63"/>
<polygon fill="black" stroke="black" points="213.25,-138.63 209.75,-128.63 206.25,-138.63 213.25,-138.63"/>
</g>
<!-- c_0_60 -->
<g id="node2" class="node">
<title>c_0_60</title>
<g id="a_node2"><a xlink:href="c_0_60.html" xlink:title="{X₁ ⊆ X₂|sk₅(X₁,X₂) ∈ X₁}" target="_parent">
<polygon fill="#f8edd1" stroke="#7f7542" points="34.5,-180.5 34.5,-210.5 135.5,-210.5 135.5,-180.5 34.5,-180.5"/>
<text text-anchor="middle" x="85" y="-199.3" font-family="Times,serif" font-size="14.00">X₁ ⊆ X₂</text>
<polyline fill="none" stroke="#7f7542" points="34.5,-195.5 135.5,-195.5 "/>
<text text-anchor="middle" x="85" y="-184.3" font-family="Times,serif" font-size="14.00">sk₅(X₁,X₂) ∈ X₁</text>
</a>
</g>
</g>
<!-- c_0_60&#45;&gt;c_0_104 -->
<g id="edge2" class="edge">
<title>c_0_60&#45;&gt;c_0_104</title>
<path fill="none" stroke="black" d="M85,-180.32C85,-180.32 85,-138.66 85,-138.66"/>
<polygon fill="black" stroke="black" points="88.5,-138.66 85,-128.66 81.5,-138.66 88.5,-138.66"/>
</g>
<!-- c_0_113 -->
<g id="node4" class="node">
<title>c_0_113</title>
<g id="a_node4"><a xlink:href="c_0_113.html" xlink:title="{X₁ = Ø|proj₂(sk₁₀(X₁)) ⊆ 1&#45;tuples(X₁)}" target="_parent">
<polygon fill="#f8edd1" stroke="#7f7542" points="40.5,-16.5 40.5,-46.5 241.5,-46.5 241.5,-16.5 40.5,-16.5"/>
<text text-anchor="middle" x="141" y="-35.3" font-family="Times,serif" font-size="14.00">X₁ = Ø</text>
<polyline fill="none" stroke="#7f7542" points="40.5,-31.5 241.5,-31.5 "/>
<text text-anchor="middle" x="141" y="-20.3" font-family="Times,serif" font-size="14.00">proj₂(sk₁₀(X₁)) ⊆ 1&#45;tuples(X₁)</text>
</a>
</g>
</g>
<!-- c_0_104&#45;&gt;c_0_113 -->
<g id="edge3" class="edge">
<title>c_0_104&#45;&gt;c_0_113</title>
<path fill="none" stroke="black" stroke-dasharray="5,2" d="M141,-83.24C141,-83.24 141,-56.82 141,-56.82"/>
<polygon fill="black" stroke="black" points="144.5,-56.82 141,-46.82 137.5,-56.82 144.5,-56.82"/>
</g>
</g>
</svg>
