<?xml version="1.0" encoding="UTF-8" standalone="no"?>
<!DOCTYPE svg PUBLIC "-//W3C//DTD SVG 1.1//EN"
 "http://www.w3.org/Graphics/SVG/1.1/DTD/svg11.dtd">
<!-- Generated by graphviz version 5.0.0 (0)
 -->
<!-- Title: proof Pages: 1 -->
<svg width="488pt" height="235pt"
 viewBox="0.00 0.00 488.00 235.00" xmlns="http://www.w3.org/2000/svg" xmlns:xlink="http://www.w3.org/1999/xlink">
<g id="graph0" class="graph" transform="scale(1 1) rotate(0) translate(4 231)">
<title>proof</title>
<g id="clust1" class="cluster">
<title>cluster_0</title>
<polygon fill="transparent" stroke="black" stroke-dasharray="1,5" points="8,-157 8,-219 472,-219 472,-157 8,-157"/>
</g>
<g id="clust2" class="cluster">
<title>cluster_1</title>
<polygon fill="transparent" stroke="black" stroke-width="2" points="163,-75 163,-137 367,-137 367,-75 163,-75"/>
</g>
<g id="clust3" class="cluster">
<title>cluster_2</title>
<polygon fill="transparent" stroke="black" stroke-dasharray="1,5" points="188,-8 188,-55 342,-55 342,-8 188,-8"/>
</g>
<!-- c_0_67 -->
<g id="node1" class="node">
<title>c_0_67</title>
<g id="a_node1"><a xlink:href="c_0_67.html" xlink:title="{( &amp;lt;*..*&amp;gt; X₁) . 1 = X₁}" target="_parent">
<polygon fill="#f8edd1" stroke="#7f7542" points="324,-180.5 324,-195.5 464,-195.5 464,-180.5 324,-180.5"/>
<text text-anchor="middle" x="394" y="-184.3" font-family="Times,serif" font-size="14.00">( &lt;*..*&gt; X₁) . 1 = X₁</text>
</a>
</g>
</g>
<!-- c_0_121 -->
<g id="node3" class="node">
<title>c_0_121</title>
<g id="a_node3"><a xlink:href="c_0_121.html" xlink:title="{X₁ = Ø|one&#45;to&#45;one(sk₈₃(X₁))|sk₇(sk₈₃(X₁)) = sk₆(sk₈₃(X₁))}" target="_parent">
<polygon fill="#f8edd1" stroke="#7f7542" points="171,-83.5 171,-128.5 359,-128.5 359,-83.5 171,-83.5"/>
<text text-anchor="middle" x="265" y="-117.3" font-family="Times,serif" font-size="14.00">X₁ = Ø</text>
<polyline fill="none" stroke="#7f7542" points="171,-113.5 359,-113.5 "/>
<text text-anchor="middle" x="265" y="-102.3" font-family="Times,serif" font-size="14.00">one&#45;to&#45;one(sk₈₃(X₁))</text>
<polyline fill="none" stroke="#7f7542" points="171,-98.5 359,-98.5 "/>
<text text-anchor="middle" x="265" y="-87.3" font-family="Times,serif" font-size="14.00">sk₇(sk₈₃(X₁)) = sk₆(sk₈₃(X₁))</text>
</a>
</g>
</g>
<!-- c_0_67&#45;&gt;c_0_121 -->
<g id="edge1" class="edge">
<title>c_0_67&#45;&gt;c_0_121</title>
<path fill="none" stroke="black" d="M341.5,-180.43C341.5,-180.43 341.5,-138.65 341.5,-138.65"/>
<polygon fill="black" stroke="black" points="345,-138.65 341.5,-128.65 338,-138.65 345,-138.65"/>
</g>
<!-- c_0_115 -->
<g id="node2" class="node">
<title>c_0_115</title>
<g id="a_node2"><a xlink:href="c_0_115.html" xlink:title="{ &amp;lt;*..*&amp;gt; sk₇(sk₈₃(X₁)) = &#160;&amp;lt;*..*&amp;gt; sk₆(sk₈₃(X₁))|X₁ = Ø|one&#45;to&#45;one(sk₈₃(X₁))}" target="_parent">
<polygon fill="#f8edd1" stroke="#7f7542" points="16,-165.5 16,-210.5 306,-210.5 306,-165.5 16,-165.5"/>
<text text-anchor="middle" x="161" y="-199.3" font-family="Times,serif" font-size="14.00">&lt;*..*&gt; sk₇(sk₈₃(X₁)) = &lt;*..*&gt; sk₆(sk₈₃(X₁))</text>
<polyline fill="none" stroke="#7f7542" points="16,-195.5 306,-195.5 "/>
<text text-anchor="middle" x="161" y="-184.3" font-family="Times,serif" font-size="14.00">X₁ = Ø</text>
<polyline fill="none" stroke="#7f7542" points="16,-180.5 306,-180.5 "/>
<text text-anchor="middle" x="161" y="-169.3" font-family="Times,serif" font-size="14.00">one&#45;to&#45;one(sk₈₃(X₁))</text>
</a>
</g>
</g>
<!-- c_0_115&#45;&gt;c_0_121 -->
<g id="edge2" class="edge">
<title>c_0_115&#45;&gt;c_0_121</title>
<path fill="none" stroke="black" d="M238.5,-165.16C238.5,-165.16 238.5,-138.72 238.5,-138.72"/>
<polygon fill="black" stroke="black" points="242,-138.72 238.5,-128.72 235,-138.72 242,-138.72"/>
</g>
<!-- c_0_126 -->
<g id="node4" class="node">
<title>c_0_126</title>
<g id="a_node4"><a xlink:href="c_0_126.html" xlink:title="{X₁ = Ø|one&#45;to&#45;one(sk₈₃(X₁))}" target="_parent">
<polygon fill="#f8edd1" stroke="#7f7542" points="196.5,-16.5 196.5,-46.5 333.5,-46.5 333.5,-16.5 196.5,-16.5"/>
<text text-anchor="middle" x="265" y="-35.3" font-family="Times,serif" font-size="14.00">X₁ = Ø</text>
<polyline fill="none" stroke="#7f7542" points="196.5,-31.5 333.5,-31.5 "/>
<text text-anchor="middle" x="265" y="-20.3" font-family="Times,serif" font-size="14.00">one&#45;to&#45;one(sk₈₃(X₁))</text>
</a>
</g>
</g>
<!-- c_0_121&#45;&gt;c_0_126 -->
<g id="edge3" class="edge">
<title>c_0_121&#45;&gt;c_0_126</title>
<path fill="none" stroke="black" stroke-dasharray="5,2" d="M265,-83.24C265,-83.24 265,-56.82 265,-56.82"/>
<polygon fill="black" stroke="black" points="268.5,-56.82 265,-46.82 261.5,-56.82 268.5,-56.82"/>
</g>
</g>
</svg>
