<?xml version="1.0" encoding="UTF-8" standalone="no"?>
<!DOCTYPE svg PUBLIC "-//W3C//DTD SVG 1.1//EN"
 "http://www.w3.org/Graphics/SVG/1.1/DTD/svg11.dtd">
<!-- Generated by graphviz version 5.0.0 (0)
 -->
<!-- Title: proof Pages: 1 -->
<svg width="408pt" height="280pt"
 viewBox="0.00 0.00 408.00 280.00" xmlns="http://www.w3.org/2000/svg" xmlns:xlink="http://www.w3.org/1999/xlink">
<g id="graph0" class="graph" transform="scale(1 1) rotate(0) translate(4 276)">
<title>proof</title>
<g id="clust1" class="cluster">
<title>cluster_0</title>
<polygon fill="transparent" stroke="black" stroke-dasharray="1,5" points="16,-187 16,-264 392,-264 392,-187 16,-187"/>
</g>
<g id="clust2" class="cluster">
<title>cluster_1</title>
<polygon fill="transparent" stroke="black" stroke-width="2" points="32,-90 32,-167 166,-167 166,-90 32,-90"/>
</g>
<g id="clust3" class="cluster">
<title>cluster_2</title>
<polygon fill="transparent" stroke="black" stroke-dasharray="1,5" points="8,-8 8,-70 190,-70 190,-8 8,-8"/>
</g>
<!-- c_0_44 -->
<g id="node1" class="node">
<title>c_0_44</title>
<g id="a_node1"><a xlink:href="c_0_44.html" xlink:title="{1&#45;tuples(X₁) = \{&amp;lt;z&amp;gt;: z ∈ X₁\}|X₁ = Ø}" target="_vizar">
<polygon fill="#f8edd1" stroke="#7f7542" points="178.5,-210.5 178.5,-240.5 383.5,-240.5 383.5,-210.5 178.5,-210.5"/>
<text text-anchor="middle" x="281" y="-229.3" font-family="Times,serif" font-size="14.00">1&#45;tuples(X₁) = {&lt;z&gt;: z ∈ X₁}</text>
<polyline fill="none" stroke="#7f7542" points="178.5,-225.5 383.5,-225.5 "/>
<text text-anchor="middle" x="281" y="-214.3" font-family="Times,serif" font-size="14.00">X₁ = Ø</text>
</a>
</g>
</g>
<!-- c_0_79 -->
<g id="node3" class="node">
<title>c_0_79</title>
<g id="a_node3"><a xlink:href="c_0_79.html" xlink:title="{X₁ ∈ 1&#45;tuples(X₂)|⇊|X₂ = Ø|\|X₁\|=1}" target="_vizar">
<polygon fill="#f8edd1" stroke="#7f7542" points="40,-98.5 40,-158.5 158,-158.5 158,-98.5 40,-98.5"/>
<text text-anchor="middle" x="99" y="-147.3" font-family="Times,serif" font-size="14.00">X₁ ∈ 1&#45;tuples(X₂)</text>
<polyline fill="none" stroke="#7f7542" points="40,-143.5 158,-143.5 "/>
<text text-anchor="middle" x="99" y="-132.3" font-family="Times,serif" font-size="14.00">⇊</text>
<polyline fill="none" stroke="#7f7542" points="40,-128.5 158,-128.5 "/>
<text text-anchor="middle" x="99" y="-117.3" font-family="Times,serif" font-size="14.00">X₂ = Ø</text>
<polyline fill="none" stroke="#7f7542" points="40,-113.5 158,-113.5 "/>
<text text-anchor="middle" x="99" y="-102.3" font-family="Times,serif" font-size="14.00">|X₁|=1</text>
</a>
</g>
</g>
<!-- c_0_44&#45;&gt;c_0_79 -->
<g id="edge1" class="edge">
<title>c_0_44&#45;&gt;c_0_79</title>
<path fill="none" stroke="black" d="M282.5,-210.27C282.5,-182.84 282.5,-128 282.5,-128 282.5,-128 168.07,-128 168.07,-128"/>
<polygon fill="black" stroke="black" points="168.07,-124.5 158.07,-128 168.07,-131.5 168.07,-124.5"/>
</g>
<!-- c_0_71 -->
<g id="node2" class="node">
<title>c_0_71</title>
<g id="a_node2"><a xlink:href="c_0_71.html" xlink:title="{X₁ ∈ \{&amp;lt;z&amp;gt;: z ∈ X₂\}|⇊|X₂ = Ø|\|X₁\|=1}" target="_vizar">
<polygon fill="#f8edd1" stroke="#7f7542" points="24,-195.5 24,-255.5 160,-255.5 160,-195.5 24,-195.5"/>
<text text-anchor="middle" x="92" y="-244.3" font-family="Times,serif" font-size="14.00">X₁ ∈ {&lt;z&gt;: z ∈ X₂}</text>
<polyline fill="none" stroke="#7f7542" points="24,-240.5 160,-240.5 "/>
<text text-anchor="middle" x="92" y="-229.3" font-family="Times,serif" font-size="14.00">⇊</text>
<polyline fill="none" stroke="#7f7542" points="24,-225.5 160,-225.5 "/>
<text text-anchor="middle" x="92" y="-214.3" font-family="Times,serif" font-size="14.00">X₂ = Ø</text>
<polyline fill="none" stroke="#7f7542" points="24,-210.5 160,-210.5 "/>
<text text-anchor="middle" x="92" y="-199.3" font-family="Times,serif" font-size="14.00">|X₁|=1</text>
</a>
</g>
</g>
<!-- c_0_71&#45;&gt;c_0_79 -->
<g id="edge2" class="edge">
<title>c_0_71&#45;&gt;c_0_79</title>
<path fill="none" stroke="black" d="M99,-195.34C99,-195.34 99,-168.64 99,-168.64"/>
<polygon fill="black" stroke="black" points="102.5,-168.64 99,-158.64 95.5,-168.64 102.5,-168.64"/>
</g>
<!-- c_0_86 -->
<g id="node4" class="node">
<title>c_0_86</title>
<g id="a_node4"><a xlink:href="c_0_86.html" xlink:title="{1&#45;tuples(X₁) ⊆ X₂|X₁ = Ø|\|sk₅(1&#45;tuples(X₁),X₂)\|=1}" target="_vizar">
<polygon fill="#f8edd1" stroke="#7f7542" points="16.5,-16.5 16.5,-61.5 181.5,-61.5 181.5,-16.5 16.5,-16.5"/>
<text text-anchor="middle" x="99" y="-50.3" font-family="Times,serif" font-size="14.00">1&#45;tuples(X₁) ⊆ X₂</text>
<polyline fill="none" stroke="#7f7542" points="16.5,-46.5 181.5,-46.5 "/>
<text text-anchor="middle" x="99" y="-35.3" font-family="Times,serif" font-size="14.00">X₁ = Ø</text>
<polyline fill="none" stroke="#7f7542" points="16.5,-31.5 181.5,-31.5 "/>
<text text-anchor="middle" x="99" y="-20.3" font-family="Times,serif" font-size="14.00">|sk₅(1&#45;tuples(X₁),X₂)|=1</text>
</a>
</g>
</g>
<!-- c_0_79&#45;&gt;c_0_86 -->
<g id="edge3" class="edge">
<title>c_0_79&#45;&gt;c_0_86</title>
<path fill="none" stroke="black" stroke-dasharray="5,2" d="M99,-98.2C99,-98.2 99,-71.63 99,-71.63"/>
<polygon fill="black" stroke="black" points="102.5,-71.63 99,-61.63 95.5,-71.63 102.5,-71.63"/>
</g>
</g>
</svg>
