<?xml version="1.0" encoding="UTF-8" standalone="no"?>
<!DOCTYPE svg PUBLIC "-//W3C//DTD SVG 1.1//EN"
 "http://www.w3.org/Graphics/SVG/1.1/DTD/svg11.dtd">
<!-- Generated by graphviz version 5.0.0 (0)
 -->
<!-- Title: proof Pages: 1 -->
<svg width="309pt" height="340pt"
 viewBox="0.00 0.00 309.00 340.00" xmlns="http://www.w3.org/2000/svg" xmlns:xlink="http://www.w3.org/1999/xlink">
<g id="graph0" class="graph" transform="scale(1 1) rotate(0) translate(4 336)">
<title>proof</title>
<g id="clust1" class="cluster">
<title>cluster_0</title>
<polygon fill="transparent" stroke="black" stroke-dasharray="1,5" points="31,-232 31,-324 293,-324 293,-232 31,-232"/>
</g>
<g id="clust2" class="cluster">
<title>cluster_1</title>
<polygon fill="transparent" stroke="black" stroke-width="2" points="78,-120 78,-212 222,-212 222,-120 78,-120"/>
</g>
<g id="clust3" class="cluster">
<title>cluster_2</title>
<polygon fill="transparent" stroke="black" stroke-dasharray="1,5" points="8,-8 8,-100 258,-100 258,-8 8,-8"/>
</g>
<!-- c_0_67 -->
<g id="node1" class="node">
<title>c_0_67</title>
<g id="a_node1"><a xlink:href="c_0_67.html" xlink:title="{&amp;lt;X₁&amp;gt;(1) = X₁}" target="_vizar">
<polygon fill="#f8edd1" stroke="#7f7542" points="189.5,-270.5 189.5,-285.5 284.5,-285.5 284.5,-270.5 189.5,-270.5"/>
<text text-anchor="middle" x="237" y="-274.3" font-family="Times,serif" font-size="14.00">&lt;X₁&gt;(1) = X₁</text>
</a>
</g>
</g>
<!-- c_0_77 -->
<g id="node3" class="node">
<title>c_0_77</title>
<g id="a_node3"><a xlink:href="c_0_77.html" xlink:title="{X₂ ∈ fin&#45;seq(X₁)|\|X₂\|=1|⇊|X₁ = Ø|sk₁₁(X₁,X₂) = X₂(1)}" target="_vizar">
<polygon fill="#f8edd1" stroke="#7f7542" points="86.5,-128.5 86.5,-203.5 213.5,-203.5 213.5,-128.5 86.5,-128.5"/>
<text text-anchor="middle" x="150" y="-192.3" font-family="Times,serif" font-size="14.00">X₂ ∈ fin&#45;seq(X₁)</text>
<polyline fill="none" stroke="#7f7542" points="86.5,-188.5 213.5,-188.5 "/>
<text text-anchor="middle" x="150" y="-177.3" font-family="Times,serif" font-size="14.00">|X₂|=1</text>
<polyline fill="none" stroke="#7f7542" points="86.5,-173.5 213.5,-173.5 "/>
<text text-anchor="middle" x="150" y="-162.3" font-family="Times,serif" font-size="14.00">⇊</text>
<polyline fill="none" stroke="#7f7542" points="86.5,-158.5 213.5,-158.5 "/>
<text text-anchor="middle" x="150" y="-147.3" font-family="Times,serif" font-size="14.00">X₁ = Ø</text>
<polyline fill="none" stroke="#7f7542" points="86.5,-143.5 213.5,-143.5 "/>
<text text-anchor="middle" x="150" y="-132.3" font-family="Times,serif" font-size="14.00">sk₁₁(X₁,X₂) = X₂(1)</text>
</a>
</g>
</g>
<!-- c_0_67&#45;&gt;c_0_77 -->
<g id="edge1" class="edge">
<title>c_0_67&#45;&gt;c_0_77</title>
<path fill="none" stroke="black" d="M201.5,-270.3C201.5,-270.3 201.5,-213.62 201.5,-213.62"/>
<polygon fill="black" stroke="black" points="205,-213.62 201.5,-203.62 198,-213.62 205,-213.62"/>
</g>
<!-- c_0_68 -->
<g id="node2" class="node">
<title>c_0_68</title>
<g id="a_node2"><a xlink:href="c_0_68.html" xlink:title="{X₂ ∈ fin&#45;seq(X₁)|\|X₂\|=1|⇊|&amp;lt;sk₁₁(X₁,X₂)&amp;gt; = X₂|X₁ = Ø}" target="_vizar">
<polygon fill="#f8edd1" stroke="#7f7542" points="39,-240.5 39,-315.5 171,-315.5 171,-240.5 39,-240.5"/>
<text text-anchor="middle" x="105" y="-304.3" font-family="Times,serif" font-size="14.00">X₂ ∈ fin&#45;seq(X₁)</text>
<polyline fill="none" stroke="#7f7542" points="39,-300.5 171,-300.5 "/>
<text text-anchor="middle" x="105" y="-289.3" font-family="Times,serif" font-size="14.00">|X₂|=1</text>
<polyline fill="none" stroke="#7f7542" points="39,-285.5 171,-285.5 "/>
<text text-anchor="middle" x="105" y="-274.3" font-family="Times,serif" font-size="14.00">⇊</text>
<polyline fill="none" stroke="#7f7542" points="39,-270.5 171,-270.5 "/>
<text text-anchor="middle" x="105" y="-259.3" font-family="Times,serif" font-size="14.00">&lt;sk₁₁(X₁,X₂)&gt; = X₂</text>
<polyline fill="none" stroke="#7f7542" points="39,-255.5 171,-255.5 "/>
<text text-anchor="middle" x="105" y="-244.3" font-family="Times,serif" font-size="14.00">X₁ = Ø</text>
</a>
</g>
</g>
<!-- c_0_68&#45;&gt;c_0_77 -->
<g id="edge2" class="edge">
<title>c_0_68&#45;&gt;c_0_77</title>
<path fill="none" stroke="black" d="M128.75,-240.39C128.75,-240.39 128.75,-213.7 128.75,-213.7"/>
<polygon fill="black" stroke="black" points="132.25,-213.7 128.75,-203.7 125.25,-213.7 132.25,-213.7"/>
</g>
<!-- c_0_91 -->
<g id="node4" class="node">
<title>c_0_91</title>
<g id="a_node4"><a xlink:href="c_0_91.html" xlink:title="{X₁ ∈ fin&#45;seq(X₂)|\|X₁\|=1|⇊|&amp;lt;(X₁(1))&amp;gt; = X₁|X₂ = Ø}" target="_vizar">
<polygon fill="#f8edd1" stroke="#7f7542" points="142,-16.5 142,-91.5 250,-91.5 250,-16.5 142,-16.5"/>
<text text-anchor="middle" x="196" y="-80.3" font-family="Times,serif" font-size="14.00">X₁ ∈ fin&#45;seq(X₂)</text>
<polyline fill="none" stroke="#7f7542" points="142,-76.5 250,-76.5 "/>
<text text-anchor="middle" x="196" y="-65.3" font-family="Times,serif" font-size="14.00">|X₁|=1</text>
<polyline fill="none" stroke="#7f7542" points="142,-61.5 250,-61.5 "/>
<text text-anchor="middle" x="196" y="-50.3" font-family="Times,serif" font-size="14.00">⇊</text>
<polyline fill="none" stroke="#7f7542" points="142,-46.5 250,-46.5 "/>
<text text-anchor="middle" x="196" y="-35.3" font-family="Times,serif" font-size="14.00">&lt;(X₁(1))&gt; = X₁</text>
<polyline fill="none" stroke="#7f7542" points="142,-31.5 250,-31.5 "/>
<text text-anchor="middle" x="196" y="-20.3" font-family="Times,serif" font-size="14.00">X₂ = Ø</text>
</a>
</g>
</g>
<!-- c_0_77&#45;&gt;c_0_91 -->
<g id="edge3" class="edge">
<title>c_0_77&#45;&gt;c_0_91</title>
<path fill="none" stroke="black" stroke-dasharray="5,2" d="M177.75,-128.39C177.75,-128.39 177.75,-101.7 177.75,-101.7"/>
<polygon fill="black" stroke="black" points="181.25,-101.7 177.75,-91.7 174.25,-101.7 181.25,-101.7"/>
</g>
<!-- c_0_84 -->
<g id="node5" class="node">
<title>c_0_84</title>
<g id="a_node5"><a xlink:href="c_0_84.html" xlink:title="{X₁ ∈ fin&#45;seq(X₂)|\|X₁\|=1|⇊|X₁(1) ∈ X₂|X₂ = Ø}" target="_vizar">
<polygon fill="#f8edd1" stroke="#7f7542" points="16,-16.5 16,-91.5 124,-91.5 124,-16.5 16,-16.5"/>
<text text-anchor="middle" x="70" y="-80.3" font-family="Times,serif" font-size="14.00">X₁ ∈ fin&#45;seq(X₂)</text>
<polyline fill="none" stroke="#7f7542" points="16,-76.5 124,-76.5 "/>
<text text-anchor="middle" x="70" y="-65.3" font-family="Times,serif" font-size="14.00">|X₁|=1</text>
<polyline fill="none" stroke="#7f7542" points="16,-61.5 124,-61.5 "/>
<text text-anchor="middle" x="70" y="-50.3" font-family="Times,serif" font-size="14.00">⇊</text>
<polyline fill="none" stroke="#7f7542" points="16,-46.5 124,-46.5 "/>
<text text-anchor="middle" x="70" y="-35.3" font-family="Times,serif" font-size="14.00">X₁(1) ∈ X₂</text>
<polyline fill="none" stroke="#7f7542" points="16,-31.5 124,-31.5 "/>
<text text-anchor="middle" x="70" y="-20.3" font-family="Times,serif" font-size="14.00">X₂ = Ø</text>
</a>
</g>
</g>
<!-- c_0_77&#45;&gt;c_0_84 -->
<g id="edge4" class="edge">
<title>c_0_77&#45;&gt;c_0_84</title>
<path fill="none" stroke="black" stroke-dasharray="5,2" d="M105.25,-128.39C105.25,-128.39 105.25,-101.7 105.25,-101.7"/>
<polygon fill="black" stroke="black" points="108.75,-101.7 105.25,-91.7 101.75,-101.7 108.75,-101.7"/>
</g>
</g>
</svg>
