<?xml version="1.0" encoding="UTF-8" standalone="no"?>
<!DOCTYPE svg PUBLIC "-//W3C//DTD SVG 1.1//EN"
 "http://www.w3.org/Graphics/SVG/1.1/DTD/svg11.dtd">
<!-- Generated by graphviz version 5.0.0 (0)
 -->
<!-- Title: proof Pages: 1 -->
<svg width="541pt" height="205pt"
 viewBox="0.00 0.00 541.00 205.00" xmlns="http://www.w3.org/2000/svg" xmlns:xlink="http://www.w3.org/1999/xlink">
<g id="graph0" class="graph" transform="scale(1 1) rotate(0) translate(4 201)">
<title>proof</title>
<g id="clust1" class="cluster">
<title>cluster_0</title>
<polygon fill="transparent" stroke="black" stroke-dasharray="1,5" points="224,-157 224,-189 308,-189 308,-157 224,-157"/>
</g>
<g id="clust2" class="cluster">
<title>cluster_1</title>
<polygon fill="transparent" stroke="black" stroke-width="2" points="203,-75 203,-137 329,-137 329,-75 203,-75"/>
</g>
<g id="clust3" class="cluster">
<title>cluster_2</title>
<polygon fill="transparent" stroke="black" stroke-dasharray="1,5" points="8,-8 8,-55 525,-55 525,-8 8,-8"/>
</g>
<!-- d3_tarski -->
<g id="node1" class="node">
<title>d3_tarski</title>
<g id="a_node1"><a xlink:href="d3_tarski.html" xlink:title="d3_tarski" target="_parent">
<polygon fill="#69d2e7" stroke="#7f7542" points="232.5,-165.5 232.5,-180.5 299.5,-180.5 299.5,-165.5 232.5,-165.5"/>
<text text-anchor="middle" x="266" y="-169.3" font-family="Times,serif" font-size="14.00">d3_tarski</text>
</a>
</g>
</g>
<!-- c_0_103 -->
<g id="node2" class="node">
<title>c_0_103</title>
<g id="a_node2"><a xlink:href="c_0_103.html" xlink:title="{in(sk₅(X₁,X₂),X₂)|⇊|X₁ c= X₂}" target="_parent">
<polygon fill="#f8edd1" stroke="#7f7542" points="211,-83.5 211,-128.5 321,-128.5 321,-83.5 211,-83.5"/>
<text text-anchor="middle" x="266" y="-117.3" font-family="Times,serif" font-size="14.00">in(sk₅(X₁,X₂),X₂)</text>
<polyline fill="none" stroke="#7f7542" points="211,-113.5 321,-113.5 "/>
<text text-anchor="middle" x="266" y="-102.3" font-family="Times,serif" font-size="14.00">⇊</text>
<polyline fill="none" stroke="#7f7542" points="211,-98.5 321,-98.5 "/>
<text text-anchor="middle" x="266" y="-87.3" font-family="Times,serif" font-size="14.00">X₁ c= X₂</text>
</a>
</g>
</g>
<!-- d3_tarski&#45;&gt;c_0_103 -->
<g id="edge1" class="edge">
<title>d3_tarski&#45;&gt;c_0_103</title>
<path fill="none" stroke="black" d="M266,-165.31C266,-165.31 266,-138.76 266,-138.76"/>
<polygon fill="black" stroke="black" points="269.5,-138.76 266,-128.76 262.5,-138.76 269.5,-138.76"/>
</g>
<!-- c_0_119 -->
<g id="node3" class="node">
<title>c_0_119</title>
<g id="a_node3"><a xlink:href="c_0_119.html" xlink:title="{&#45;tuples_on(1,X₁) c= proj2(sk₈₃(X₁))|X₁ = Ø}" target="_parent">
<polygon fill="#f8edd1" stroke="#7f7542" points="275.5,-16.5 275.5,-46.5 516.5,-46.5 516.5,-16.5 275.5,-16.5"/>
<text text-anchor="middle" x="396" y="-35.3" font-family="Times,serif" font-size="14.00">&#45;tuples_on(1,X₁) c= proj2(sk₈₃(X₁))</text>
<polyline fill="none" stroke="#7f7542" points="275.5,-31.5 516.5,-31.5 "/>
<text text-anchor="middle" x="396" y="-20.3" font-family="Times,serif" font-size="14.00">X₁ = Ø</text>
</a>
</g>
</g>
<!-- c_0_103&#45;&gt;c_0_119 -->
<g id="edge2" class="edge">
<title>c_0_103&#45;&gt;c_0_119</title>
<path fill="none" stroke="black" stroke-dasharray="5,2" d="M298.25,-83.24C298.25,-83.24 298.25,-56.82 298.25,-56.82"/>
<polygon fill="black" stroke="black" points="301.75,-56.82 298.25,-46.82 294.75,-56.82 301.75,-56.82"/>
</g>
<!-- c_0_113 -->
<g id="node4" class="node">
<title>c_0_113</title>
<g id="a_node4"><a xlink:href="c_0_113.html" xlink:title="{X₁ = Ø|proj2(sk₈₃(X₁)) c= &#45;tuples_on(1,X₁)}" target="_parent">
<polygon fill="#f8edd1" stroke="#7f7542" points="16.5,-16.5 16.5,-46.5 257.5,-46.5 257.5,-16.5 16.5,-16.5"/>
<text text-anchor="middle" x="137" y="-35.3" font-family="Times,serif" font-size="14.00">X₁ = Ø</text>
<polyline fill="none" stroke="#7f7542" points="16.5,-31.5 257.5,-31.5 "/>
<text text-anchor="middle" x="137" y="-20.3" font-family="Times,serif" font-size="14.00">proj2(sk₈₃(X₁)) c= &#45;tuples_on(1,X₁)</text>
</a>
</g>
</g>
<!-- c_0_103&#45;&gt;c_0_113 -->
<g id="edge3" class="edge">
<title>c_0_103&#45;&gt;c_0_113</title>
<path fill="none" stroke="black" stroke-dasharray="5,2" d="M234.25,-83.24C234.25,-83.24 234.25,-56.82 234.25,-56.82"/>
<polygon fill="black" stroke="black" points="237.75,-56.82 234.25,-46.82 230.75,-56.82 237.75,-56.82"/>
</g>
</g>
</svg>
