<?xml version="1.0" encoding="UTF-8" standalone="no"?>
<!DOCTYPE svg PUBLIC "-//W3C//DTD SVG 1.1//EN"
 "http://www.w3.org/Graphics/SVG/1.1/DTD/svg11.dtd">
<!-- Generated by graphviz version 5.0.0 (0)
 -->
<!-- Title: proof Pages: 1 -->
<svg width="636pt" height="265pt"
 viewBox="0.00 0.00 636.00 265.00" xmlns="http://www.w3.org/2000/svg" xmlns:xlink="http://www.w3.org/1999/xlink">
<g id="graph0" class="graph" transform="scale(1 1) rotate(0) translate(4 261)">
<title>proof</title>
<g id="clust1" class="cluster">
<title>cluster_0</title>
<polygon fill="transparent" stroke="black" stroke-dasharray="1,5" points="177,-217 177,-249 493,-249 493,-217 177,-217"/>
</g>
<g id="clust2" class="cluster">
<title>cluster_1</title>
<polygon fill="transparent" stroke="black" stroke-width="2" points="257,-120 257,-197 373,-197 373,-120 257,-120"/>
</g>
<g id="clust3" class="cluster">
<title>cluster_2</title>
<polygon fill="transparent" stroke="black" stroke-dasharray="1,5" points="8,-8 8,-100 620,-100 620,-8 8,-8"/>
</g>
<!-- redefinition_k12_finseq_1 -->
<g id="node1" class="node">
<title>redefinition_k12_finseq_1</title>
<g id="a_node1"><a xlink:href="redefinition_k12_finseq_1.html" xlink:title="redefinition_k12_finseq_1" target="_vizar">
<polygon fill="#69d2e7" stroke="#7f7542" points="303.5,-225.5 303.5,-240.5 484.5,-240.5 484.5,-225.5 303.5,-225.5"/>
<text text-anchor="middle" x="394" y="-229.3" font-family="Times,serif" font-size="14.00">redefinition_k12_finseq_1</text>
</a>
</g>
</g>
<!-- c_0_26 -->
<g id="node3" class="node">
<title>c_0_26</title>
<g id="a_node3"><a xlink:href="c_0_26.html" xlink:title="{X₂ ∈ X₁|⇊|&amp;lt;X₂&amp;gt; = &amp;lt;X₂&amp;gt;|X₁ = Ø}" target="_vizar">
<polygon fill="#f8edd1" stroke="#7f7542" points="265,-128.5 265,-188.5 365,-188.5 365,-128.5 265,-128.5"/>
<text text-anchor="middle" x="315" y="-177.3" font-family="Times,serif" font-size="14.00">X₂ ∈ X₁</text>
<polyline fill="none" stroke="#7f7542" points="265,-173.5 365,-173.5 "/>
<text text-anchor="middle" x="315" y="-162.3" font-family="Times,serif" font-size="14.00">⇊</text>
<polyline fill="none" stroke="#7f7542" points="265,-158.5 365,-158.5 "/>
<text text-anchor="middle" x="315" y="-147.3" font-family="Times,serif" font-size="14.00">&lt;X₂&gt; = &lt;X₂&gt;</text>
<polyline fill="none" stroke="#7f7542" points="265,-143.5 365,-143.5 "/>
<text text-anchor="middle" x="315" y="-132.3" font-family="Times,serif" font-size="14.00">X₁ = Ø</text>
</a>
</g>
</g>
<!-- redefinition_k12_finseq_1&#45;&gt;c_0_26 -->
<g id="edge1" class="edge">
<title>redefinition_k12_finseq_1&#45;&gt;c_0_26</title>
<path fill="none" stroke="black" d="M334.25,-225.31C334.25,-225.31 334.25,-198.51 334.25,-198.51"/>
<polygon fill="black" stroke="black" points="337.75,-198.51 334.25,-188.51 330.75,-198.51 337.75,-198.51"/>
</g>
<!-- c_0_27 -->
<g id="node2" class="node">
<title>c_0_27</title>
<g id="a_node2"><a xlink:href="c_0_27.html" xlink:title="{&amp;lt;X₁&amp;gt; = &amp;lt;X₁&amp;gt;}" target="_vizar">
<polygon fill="#f8edd1" stroke="#7f7542" points="185,-225.5 185,-240.5 285,-240.5 285,-225.5 185,-225.5"/>
<text text-anchor="middle" x="235" y="-229.3" font-family="Times,serif" font-size="14.00">&lt;X₁&gt; = &lt;X₁&gt;</text>
</a>
</g>
</g>
<!-- c_0_27&#45;&gt;c_0_26 -->
<g id="edge2" class="edge">
<title>c_0_27&#45;&gt;c_0_26</title>
<path fill="none" stroke="black" d="M275,-225.31C275,-225.31 275,-198.51 275,-198.51"/>
<polygon fill="black" stroke="black" points="278.5,-198.51 275,-188.51 271.5,-198.51 278.5,-198.51"/>
</g>
<!-- c_0_58 -->
<g id="node4" class="node">
<title>c_0_58</title>
<g id="a_node4"><a xlink:href="c_0_58.html" xlink:title="{X₁ ∈ X₂|⇊|&amp;lt;X₁&amp;gt; ∈ fin&#45;seq(X₂)|X₂ = Ø}" target="_vizar">
<polygon fill="#f8edd1" stroke="#7f7542" points="480,-24 480,-84 612,-84 612,-24 480,-24"/>
<text text-anchor="middle" x="546" y="-72.8" font-family="Times,serif" font-size="14.00">X₁ ∈ X₂</text>
<polyline fill="none" stroke="#7f7542" points="480,-69 612,-69 "/>
<text text-anchor="middle" x="546" y="-57.8" font-family="Times,serif" font-size="14.00">⇊</text>
<polyline fill="none" stroke="#7f7542" points="480,-54 612,-54 "/>
<text text-anchor="middle" x="546" y="-42.8" font-family="Times,serif" font-size="14.00">&lt;X₁&gt; ∈ fin&#45;seq(X₂)</text>
<polyline fill="none" stroke="#7f7542" points="480,-39 612,-39 "/>
<text text-anchor="middle" x="546" y="-27.8" font-family="Times,serif" font-size="14.00">X₂ = Ø</text>
</a>
</g>
</g>
<!-- c_0_26&#45;&gt;c_0_58 -->
<g id="edge3" class="edge">
<title>c_0_26&#45;&gt;c_0_58</title>
<path fill="none" stroke="black" stroke-dasharray="5,2" d="M365.04,-158C433.57,-158 548.25,-158 548.25,-158 548.25,-158 548.25,-94.08 548.25,-94.08"/>
<polygon fill="black" stroke="black" points="551.75,-94.08 548.25,-84.08 544.75,-94.08 551.75,-94.08"/>
</g>
<!-- c_0_59 -->
<g id="node5" class="node">
<title>c_0_59</title>
<g id="a_node5"><a xlink:href="c_0_59.html" xlink:title="{X₁ ∈ \{&amp;lt;z&amp;gt;: z ∈ X₂\}|⇊|&amp;lt;sk₉(X₁,X₂)&amp;gt; = X₁|X₂ = Ø}" target="_vizar">
<polygon fill="#f8edd1" stroke="#7f7542" points="326,-24 326,-84 462,-84 462,-24 326,-24"/>
<text text-anchor="middle" x="394" y="-72.8" font-family="Times,serif" font-size="14.00">X₁ ∈ {&lt;z&gt;: z ∈ X₂}</text>
<polyline fill="none" stroke="#7f7542" points="326,-69 462,-69 "/>
<text text-anchor="middle" x="394" y="-57.8" font-family="Times,serif" font-size="14.00">⇊</text>
<polyline fill="none" stroke="#7f7542" points="326,-54 462,-54 "/>
<text text-anchor="middle" x="394" y="-42.8" font-family="Times,serif" font-size="14.00">&lt;sk₉(X₁,X₂)&gt; = X₁</text>
<polyline fill="none" stroke="#7f7542" points="326,-39 462,-39 "/>
<text text-anchor="middle" x="394" y="-27.8" font-family="Times,serif" font-size="14.00">X₂ = Ø</text>
</a>
</g>
</g>
<!-- c_0_26&#45;&gt;c_0_59 -->
<g id="edge4" class="edge">
<title>c_0_26&#45;&gt;c_0_59</title>
<path fill="none" stroke="black" stroke-dasharray="5,2" d="M345.5,-128.27C345.5,-128.27 345.5,-94.16 345.5,-94.16"/>
<polygon fill="black" stroke="black" points="349,-94.16 345.5,-84.16 342,-94.16 349,-94.16"/>
</g>
<!-- c_0_72 -->
<g id="node6" class="node">
<title>c_0_72</title>
<g id="a_node6"><a xlink:href="c_0_72.html" xlink:title="{X₁ ∈ X₂|⇊|&amp;lt;X₁&amp;gt; ∈ 1&#45;tuples(X₂)|X₂ = Ø}" target="_vizar">
<polygon fill="#f8edd1" stroke="#7f7542" points="166,-24 166,-84 308,-84 308,-24 166,-24"/>
<text text-anchor="middle" x="237" y="-72.8" font-family="Times,serif" font-size="14.00">X₁ ∈ X₂</text>
<polyline fill="none" stroke="#7f7542" points="166,-69 308,-69 "/>
<text text-anchor="middle" x="237" y="-57.8" font-family="Times,serif" font-size="14.00">⇊</text>
<polyline fill="none" stroke="#7f7542" points="166,-54 308,-54 "/>
<text text-anchor="middle" x="237" y="-42.8" font-family="Times,serif" font-size="14.00">&lt;X₁&gt; ∈ 1&#45;tuples(X₂)</text>
<polyline fill="none" stroke="#7f7542" points="166,-39 308,-39 "/>
<text text-anchor="middle" x="237" y="-27.8" font-family="Times,serif" font-size="14.00">X₂ = Ø</text>
</a>
</g>
</g>
<!-- c_0_26&#45;&gt;c_0_72 -->
<g id="edge5" class="edge">
<title>c_0_26&#45;&gt;c_0_72</title>
<path fill="none" stroke="black" stroke-dasharray="5,2" d="M293.67,-128.27C293.67,-128.27 293.67,-94.16 293.67,-94.16"/>
<polygon fill="black" stroke="black" points="297.17,-94.16 293.67,-84.16 290.17,-94.16 297.17,-94.16"/>
</g>
<!-- c_0_68 -->
<g id="node7" class="node">
<title>c_0_68</title>
<g id="a_node7"><a xlink:href="c_0_68.html" xlink:title="{X₂ ∈ fin&#45;seq(X₁)|\|X₂\|=1|⇊|&amp;lt;sk₁₁(X₁,X₂)&amp;gt; = X₂|X₁ = Ø}" target="_vizar">
<polygon fill="#f8edd1" stroke="#7f7542" points="16,-16.5 16,-91.5 148,-91.5 148,-16.5 16,-16.5"/>
<text text-anchor="middle" x="82" y="-80.3" font-family="Times,serif" font-size="14.00">X₂ ∈ fin&#45;seq(X₁)</text>
<polyline fill="none" stroke="#7f7542" points="16,-76.5 148,-76.5 "/>
<text text-anchor="middle" x="82" y="-65.3" font-family="Times,serif" font-size="14.00">|X₂|=1</text>
<polyline fill="none" stroke="#7f7542" points="16,-61.5 148,-61.5 "/>
<text text-anchor="middle" x="82" y="-50.3" font-family="Times,serif" font-size="14.00">⇊</text>
<polyline fill="none" stroke="#7f7542" points="16,-46.5 148,-46.5 "/>
<text text-anchor="middle" x="82" y="-35.3" font-family="Times,serif" font-size="14.00">&lt;sk₁₁(X₁,X₂)&gt; = X₂</text>
<polyline fill="none" stroke="#7f7542" points="16,-31.5 148,-31.5 "/>
<text text-anchor="middle" x="82" y="-20.3" font-family="Times,serif" font-size="14.00">X₁ = Ø</text>
</a>
</g>
</g>
<!-- c_0_26&#45;&gt;c_0_68 -->
<g id="edge6" class="edge">
<title>c_0_26&#45;&gt;c_0_68</title>
<path fill="none" stroke="black" stroke-dasharray="5,2" d="M279.33,-128.19C279.33,-109.08 279.33,-88 279.33,-88 279.33,-88 158.26,-88 158.26,-88"/>
<polygon fill="black" stroke="black" points="158.26,-84.5 148.26,-88 158.26,-91.5 158.26,-84.5"/>
</g>
</g>
</svg>
