<?xml version="1.0" encoding="UTF-8" standalone="no"?>
<!DOCTYPE svg PUBLIC "-//W3C//DTD SVG 1.1//EN"
 "http://www.w3.org/Graphics/SVG/1.1/DTD/svg11.dtd">
<!-- Generated by graphviz version 5.0.0 (0)
 -->
<!-- Title: proof Pages: 1 -->
<svg width="429pt" height="280pt"
 viewBox="0.00 0.00 429.00 280.00" xmlns="http://www.w3.org/2000/svg" xmlns:xlink="http://www.w3.org/1999/xlink">
<g id="graph0" class="graph" transform="scale(1 1) rotate(0) translate(4 276)">
<title>proof</title>
<g id="clust1" class="cluster">
<title>cluster_0</title>
<polygon fill="transparent" stroke="black" stroke-dasharray="1,5" points="8,-172 8,-264 361,-264 361,-172 8,-172"/>
</g>
<g id="clust2" class="cluster">
<title>cluster_1</title>
<polygon fill="transparent" stroke="black" stroke-width="2" points="130,-120 130,-152 242,-152 242,-120 130,-120"/>
</g>
<g id="clust3" class="cluster">
<title>cluster_2</title>
<polygon fill="transparent" stroke="black" stroke-dasharray="1,5" points="63,-8 63,-100 413,-100 413,-8 63,-8"/>
</g>
<!-- c_0_55 -->
<g id="node1" class="node">
<title>c_0_55</title>
<g id="a_node1"><a xlink:href="c_0_55.html" xlink:title="{relation(&amp;lt;X₁&amp;gt;)}" target="_vizar">
<polygon fill="#f8edd1" stroke="#7f7542" points="247,-210.5 247,-225.5 353,-225.5 353,-210.5 247,-210.5"/>
<text text-anchor="middle" x="300" y="-214.3" font-family="Times,serif" font-size="14.00">relation(&lt;X₁&gt;)</text>
</a>
</g>
</g>
<!-- c_0_67 -->
<g id="node4" class="node">
<title>c_0_67</title>
<g id="a_node4"><a xlink:href="c_0_67.html" xlink:title="{&amp;lt;X₁&amp;gt;(1) = X₁}" target="_vizar">
<polygon fill="#f8edd1" stroke="#7f7542" points="138.5,-128.5 138.5,-143.5 233.5,-143.5 233.5,-128.5 138.5,-128.5"/>
<text text-anchor="middle" x="186" y="-132.3" font-family="Times,serif" font-size="14.00">&lt;X₁&gt;(1) = X₁</text>
</a>
</g>
</g>
<!-- c_0_55&#45;&gt;c_0_67 -->
<g id="edge1" class="edge">
<title>c_0_55&#45;&gt;c_0_67</title>
<path fill="none" stroke="black" d="M300,-210.43C300,-190.13 300,-136 300,-136 300,-136 243.69,-136 243.69,-136"/>
<polygon fill="black" stroke="black" points="243.69,-132.5 233.69,-136 243.69,-139.5 243.69,-132.5"/>
</g>
<!-- c_0_53 -->
<g id="node2" class="node">
<title>c_0_53</title>
<g id="a_node2"><a xlink:href="c_0_53.html" xlink:title="{X₁ = &amp;lt;X₂&amp;gt;|function(X₁)|relation(X₁)|⇊|X₁(1) = X₂}" target="_vizar">
<polygon fill="#f8edd1" stroke="#7f7542" points="143.5,-180.5 143.5,-255.5 228.5,-255.5 228.5,-180.5 143.5,-180.5"/>
<text text-anchor="middle" x="186" y="-244.3" font-family="Times,serif" font-size="14.00">X₁ = &lt;X₂&gt;</text>
<polyline fill="none" stroke="#7f7542" points="143.5,-240.5 228.5,-240.5 "/>
<text text-anchor="middle" x="186" y="-229.3" font-family="Times,serif" font-size="14.00">function(X₁)</text>
<polyline fill="none" stroke="#7f7542" points="143.5,-225.5 228.5,-225.5 "/>
<text text-anchor="middle" x="186" y="-214.3" font-family="Times,serif" font-size="14.00">relation(X₁)</text>
<polyline fill="none" stroke="#7f7542" points="143.5,-210.5 228.5,-210.5 "/>
<text text-anchor="middle" x="186" y="-199.3" font-family="Times,serif" font-size="14.00">⇊</text>
<polyline fill="none" stroke="#7f7542" points="143.5,-195.5 228.5,-195.5 "/>
<text text-anchor="middle" x="186" y="-184.3" font-family="Times,serif" font-size="14.00">X₁(1) = X₂</text>
</a>
</g>
</g>
<!-- c_0_53&#45;&gt;c_0_67 -->
<g id="edge2" class="edge">
<title>c_0_53&#45;&gt;c_0_67</title>
<path fill="none" stroke="black" d="M186,-180.36C186,-180.36 186,-153.72 186,-153.72"/>
<polygon fill="black" stroke="black" points="189.5,-153.72 186,-143.72 182.5,-153.72 189.5,-153.72"/>
</g>
<!-- c_0_54 -->
<g id="node3" class="node">
<title>c_0_54</title>
<g id="a_node3"><a xlink:href="c_0_54.html" xlink:title="{function(&amp;lt;X₁&amp;gt;)}" target="_vizar">
<polygon fill="#f8edd1" stroke="#7f7542" points="16.5,-210.5 16.5,-225.5 125.5,-225.5 125.5,-210.5 16.5,-210.5"/>
<text text-anchor="middle" x="71" y="-214.3" font-family="Times,serif" font-size="14.00">function(&lt;X₁&gt;)</text>
</a>
</g>
</g>
<!-- c_0_54&#45;&gt;c_0_67 -->
<g id="edge3" class="edge">
<title>c_0_54&#45;&gt;c_0_67</title>
<path fill="none" stroke="black" d="M98.5,-210.43C98.5,-190.13 98.5,-136 98.5,-136 98.5,-136 128.41,-136 128.41,-136"/>
<polygon fill="black" stroke="black" points="128.41,-139.5 138.41,-136 128.41,-132.5 128.41,-139.5"/>
</g>
<!-- c_0_121 -->
<g id="node5" class="node">
<title>c_0_121</title>
<g id="a_node5"><a xlink:href="c_0_121.html" xlink:title="{X₁ = Ø|function(sk₁₀(X₁))|sk₇(sk₁₀(X₁)) = sk₆(sk₁₀(X₁))}" target="_vizar">
<polygon fill="#f8edd1" stroke="#7f7542" points="217,-31.5 217,-76.5 405,-76.5 405,-31.5 217,-31.5"/>
<text text-anchor="middle" x="311" y="-65.3" font-family="Times,serif" font-size="14.00">X₁ = Ø</text>
<polyline fill="none" stroke="#7f7542" points="217,-61.5 405,-61.5 "/>
<text text-anchor="middle" x="311" y="-50.3" font-family="Times,serif" font-size="14.00">function(sk₁₀(X₁))</text>
<polyline fill="none" stroke="#7f7542" points="217,-46.5 405,-46.5 "/>
<text text-anchor="middle" x="311" y="-35.3" font-family="Times,serif" font-size="14.00">sk₇(sk₁₀(X₁)) = sk₆(sk₁₀(X₁))</text>
</a>
</g>
</g>
<!-- c_0_67&#45;&gt;c_0_121 -->
<g id="edge4" class="edge">
<title>c_0_67&#45;&gt;c_0_121</title>
<path fill="none" stroke="black" stroke-dasharray="5,2" d="M225.25,-128.43C225.25,-128.43 225.25,-86.65 225.25,-86.65"/>
<polygon fill="black" stroke="black" points="228.75,-86.65 225.25,-76.65 221.75,-86.65 228.75,-86.65"/>
</g>
<!-- c_0_77 -->
<g id="node6" class="node">
<title>c_0_77</title>
<g id="a_node6"><a xlink:href="c_0_77.html" xlink:title="{X₂ ∈ fin&#45;seq(X₁)|\|X₂\|=1|⇊|X₁ = Ø|sk₁₁(X₁,X₂) = X₂(1)}" target="_vizar">
<polygon fill="#f8edd1" stroke="#7f7542" points="71.5,-16.5 71.5,-91.5 198.5,-91.5 198.5,-16.5 71.5,-16.5"/>
<text text-anchor="middle" x="135" y="-80.3" font-family="Times,serif" font-size="14.00">X₂ ∈ fin&#45;seq(X₁)</text>
<polyline fill="none" stroke="#7f7542" points="71.5,-76.5 198.5,-76.5 "/>
<text text-anchor="middle" x="135" y="-65.3" font-family="Times,serif" font-size="14.00">|X₂|=1</text>
<polyline fill="none" stroke="#7f7542" points="71.5,-61.5 198.5,-61.5 "/>
<text text-anchor="middle" x="135" y="-50.3" font-family="Times,serif" font-size="14.00">⇊</text>
<polyline fill="none" stroke="#7f7542" points="71.5,-46.5 198.5,-46.5 "/>
<text text-anchor="middle" x="135" y="-35.3" font-family="Times,serif" font-size="14.00">X₁ = Ø</text>
<polyline fill="none" stroke="#7f7542" points="71.5,-31.5 198.5,-31.5 "/>
<text text-anchor="middle" x="135" y="-20.3" font-family="Times,serif" font-size="14.00">sk₁₁(X₁,X₂) = X₂(1)</text>
</a>
</g>
</g>
<!-- c_0_67&#45;&gt;c_0_77 -->
<g id="edge5" class="edge">
<title>c_0_67&#45;&gt;c_0_77</title>
<path fill="none" stroke="black" stroke-dasharray="5,2" d="M168.5,-128.43C168.5,-128.43 168.5,-101.67 168.5,-101.67"/>
<polygon fill="black" stroke="black" points="172,-101.67 168.5,-91.67 165,-101.67 172,-101.67"/>
</g>
</g>
</svg>
