<?xml version="1.0" encoding="UTF-8" standalone="no"?>
<!DOCTYPE svg PUBLIC "-//W3C//DTD SVG 1.1//EN"
 "http://www.w3.org/Graphics/SVG/1.1/DTD/svg11.dtd">
<!-- Generated by graphviz version 5.0.0 (0)
 -->
<!-- Title: proof Pages: 1 -->
<svg width="269pt" height="325pt"
 viewBox="0.00 0.00 269.00 325.00" xmlns="http://www.w3.org/2000/svg" xmlns:xlink="http://www.w3.org/1999/xlink">
<g id="graph0" class="graph" transform="scale(1 1) rotate(0) translate(4 321)">
<title>proof</title>
<g id="clust1" class="cluster">
<title>cluster_0</title>
<polygon fill="transparent" stroke="black" stroke-dasharray="1,5" points="8,-232 8,-309 224,-309 224,-232 8,-232"/>
</g>
<g id="clust2" class="cluster">
<title>cluster_1</title>
<polygon fill="transparent" stroke="black" stroke-width="2" points="58,-120 58,-212 206,-212 206,-120 58,-120"/>
</g>
<g id="clust3" class="cluster">
<title>cluster_2</title>
<polygon fill="transparent" stroke="black" stroke-dasharray="1,5" points="11,-8 11,-100 253,-100 253,-8 11,-8"/>
</g>
<!-- c_0_83 -->
<g id="node1" class="node">
<title>c_0_83</title>
<g id="a_node1"><a xlink:href="c_0_83.html" xlink:title="{X₁ ∈ X₂|⇊|X₁ ∈ X₂|X₂ = Ø}" target="_vizar">
<polygon fill="#f8edd1" stroke="#7f7542" points="166,-240.5 166,-300.5 216,-300.5 216,-240.5 166,-240.5"/>
<text text-anchor="middle" x="191" y="-289.3" font-family="Times,serif" font-size="14.00">X₁ ∈ X₂</text>
<polyline fill="none" stroke="#7f7542" points="166,-285.5 216,-285.5 "/>
<text text-anchor="middle" x="191" y="-274.3" font-family="Times,serif" font-size="14.00">⇊</text>
<polyline fill="none" stroke="#7f7542" points="166,-270.5 216,-270.5 "/>
<text text-anchor="middle" x="191" y="-259.3" font-family="Times,serif" font-size="14.00">X₁ ∈ X₂</text>
<polyline fill="none" stroke="#7f7542" points="166,-255.5 216,-255.5 "/>
<text text-anchor="middle" x="191" y="-244.3" font-family="Times,serif" font-size="14.00">X₂ = Ø</text>
</a>
</g>
</g>
<!-- c_0_89 -->
<g id="node3" class="node">
<title>c_0_89</title>
<g id="a_node3"><a xlink:href="c_0_89.html" xlink:title="{X₁ = &amp;lt;X₃&amp;gt;|X₃ ∈ X₂|⇊|X₁ ∈ proj₂(sk₁₀(X₂))|X₂ = Ø}" target="_vizar">
<polygon fill="#f8edd1" stroke="#7f7542" points="66.5,-128.5 66.5,-203.5 197.5,-203.5 197.5,-128.5 66.5,-128.5"/>
<text text-anchor="middle" x="132" y="-192.3" font-family="Times,serif" font-size="14.00">X₁ = &lt;X₃&gt;</text>
<polyline fill="none" stroke="#7f7542" points="66.5,-188.5 197.5,-188.5 "/>
<text text-anchor="middle" x="132" y="-177.3" font-family="Times,serif" font-size="14.00">X₃ ∈ X₂</text>
<polyline fill="none" stroke="#7f7542" points="66.5,-173.5 197.5,-173.5 "/>
<text text-anchor="middle" x="132" y="-162.3" font-family="Times,serif" font-size="14.00">⇊</text>
<polyline fill="none" stroke="#7f7542" points="66.5,-158.5 197.5,-158.5 "/>
<text text-anchor="middle" x="132" y="-147.3" font-family="Times,serif" font-size="14.00">X₁ ∈ proj₂(sk₁₀(X₂))</text>
<polyline fill="none" stroke="#7f7542" points="66.5,-143.5 197.5,-143.5 "/>
<text text-anchor="middle" x="132" y="-132.3" font-family="Times,serif" font-size="14.00">X₂ = Ø</text>
</a>
</g>
</g>
<!-- c_0_83&#45;&gt;c_0_89 -->
<g id="edge1" class="edge">
<title>c_0_83&#45;&gt;c_0_89</title>
<path fill="none" stroke="black" d="M181.75,-240.27C181.75,-240.27 181.75,-213.59 181.75,-213.59"/>
<polygon fill="black" stroke="black" points="185.25,-213.59 181.75,-203.59 178.25,-213.59 185.25,-213.59"/>
</g>
<!-- c_0_82 -->
<g id="node2" class="node">
<title>c_0_82</title>
<g id="a_node2"><a xlink:href="c_0_82.html" xlink:title="{X₁ = &amp;lt;X₃&amp;gt;|X₃ ∈ X₂|⇊|X₁ ∈ proj₂(sk₁₀(X₂))}" target="_vizar">
<polygon fill="#f8edd1" stroke="#7f7542" points="16.5,-240.5 16.5,-300.5 147.5,-300.5 147.5,-240.5 16.5,-240.5"/>
<text text-anchor="middle" x="82" y="-289.3" font-family="Times,serif" font-size="14.00">X₁ = &lt;X₃&gt;</text>
<polyline fill="none" stroke="#7f7542" points="16.5,-285.5 147.5,-285.5 "/>
<text text-anchor="middle" x="82" y="-274.3" font-family="Times,serif" font-size="14.00">X₃ ∈ X₂</text>
<polyline fill="none" stroke="#7f7542" points="16.5,-270.5 147.5,-270.5 "/>
<text text-anchor="middle" x="82" y="-259.3" font-family="Times,serif" font-size="14.00">⇊</text>
<polyline fill="none" stroke="#7f7542" points="16.5,-255.5 147.5,-255.5 "/>
<text text-anchor="middle" x="82" y="-244.3" font-family="Times,serif" font-size="14.00">X₁ ∈ proj₂(sk₁₀(X₂))</text>
</a>
</g>
</g>
<!-- c_0_82&#45;&gt;c_0_89 -->
<g id="edge2" class="edge">
<title>c_0_82&#45;&gt;c_0_89</title>
<path fill="none" stroke="black" d="M107,-240.27C107,-240.27 107,-213.59 107,-213.59"/>
<polygon fill="black" stroke="black" points="110.5,-213.59 107,-203.59 103.5,-213.59 110.5,-213.59"/>
</g>
<!-- c_0_95 -->
<g id="node4" class="node">
<title>c_0_95</title>
<g id="a_node4"><a xlink:href="c_0_95.html" xlink:title="{X₃ = &amp;lt;(sk₅(1&#45;tuples(X₁),X₂)(1))&amp;gt;|⇊|1&#45;tuples(X₁) ⊆ X₂|X₁ = Ø|X₃ ∈ proj₂(sk₁₀(X₁))}" target="_vizar">
<polygon fill="#f8edd1" stroke="#7f7542" points="19.5,-16.5 19.5,-91.5 244.5,-91.5 244.5,-16.5 19.5,-16.5"/>
<text text-anchor="middle" x="132" y="-80.3" font-family="Times,serif" font-size="14.00">X₃ = &lt;(sk₅(1&#45;tuples(X₁),X₂)(1))&gt;</text>
<polyline fill="none" stroke="#7f7542" points="19.5,-76.5 244.5,-76.5 "/>
<text text-anchor="middle" x="132" y="-65.3" font-family="Times,serif" font-size="14.00">⇊</text>
<polyline fill="none" stroke="#7f7542" points="19.5,-61.5 244.5,-61.5 "/>
<text text-anchor="middle" x="132" y="-50.3" font-family="Times,serif" font-size="14.00">1&#45;tuples(X₁) ⊆ X₂</text>
<polyline fill="none" stroke="#7f7542" points="19.5,-46.5 244.5,-46.5 "/>
<text text-anchor="middle" x="132" y="-35.3" font-family="Times,serif" font-size="14.00">X₁ = Ø</text>
<polyline fill="none" stroke="#7f7542" points="19.5,-31.5 244.5,-31.5 "/>
<text text-anchor="middle" x="132" y="-20.3" font-family="Times,serif" font-size="14.00">X₃ ∈ proj₂(sk₁₀(X₁))</text>
</a>
</g>
</g>
<!-- c_0_89&#45;&gt;c_0_95 -->
<g id="edge3" class="edge">
<title>c_0_89&#45;&gt;c_0_95</title>
<path fill="none" stroke="black" stroke-dasharray="5,2" d="M132,-128.39C132,-128.39 132,-101.7 132,-101.7"/>
<polygon fill="black" stroke="black" points="135.5,-101.7 132,-91.7 128.5,-101.7 135.5,-101.7"/>
</g>
</g>
</svg>
