<?xml version="1.0" encoding="UTF-8" standalone="no"?>
<!DOCTYPE svg PUBLIC "-//W3C//DTD SVG 1.1//EN"
 "http://www.w3.org/Graphics/SVG/1.1/DTD/svg11.dtd">
<!-- Generated by graphviz version 5.0.0 (0)
 -->
<!-- Title: proof Pages: 1 -->
<svg width="334pt" height="310pt"
 viewBox="0.00 0.00 334.00 310.00" xmlns="http://www.w3.org/2000/svg" xmlns:xlink="http://www.w3.org/1999/xlink">
<g id="graph0" class="graph" transform="scale(1 1) rotate(0) translate(4 306)">
<title>proof</title>
<g id="clust1" class="cluster">
<title>cluster_0</title>
<polygon fill="transparent" stroke="black" stroke-dasharray="1,5" points="8,-202 8,-294 318,-294 318,-202 8,-202"/>
</g>
<g id="clust2" class="cluster">
<title>cluster_1</title>
<polygon fill="transparent" stroke="black" stroke-width="2" points="76,-90 76,-182 230,-182 230,-90 76,-90"/>
</g>
<g id="clust3" class="cluster">
<title>cluster_2</title>
<polygon fill="transparent" stroke="black" stroke-dasharray="1,5" points="35,-8 35,-70 271,-70 271,-8 35,-8"/>
</g>
<!-- c_0_57 -->
<g id="node1" class="node">
<title>c_0_57</title>
<g id="a_node1"><a xlink:href="c_0_57.html" xlink:title="{&#45;element(X₂,1)|FinSequence(X₂,X₁)|⇊|X₁ = Ø|sk₈₅(X₁,X₂) ∈ X₁}" target="_parent">
<polygon fill="#f8edd1" stroke="#7f7542" points="172,-210.5 172,-285.5 310,-285.5 310,-210.5 172,-210.5"/>
<text text-anchor="middle" x="241" y="-274.3" font-family="Times,serif" font-size="14.00">&#45;element(X₂,1)</text>
<polyline fill="none" stroke="#7f7542" points="172,-270.5 310,-270.5 "/>
<text text-anchor="middle" x="241" y="-259.3" font-family="Times,serif" font-size="14.00">FinSequence(X₂,X₁)</text>
<polyline fill="none" stroke="#7f7542" points="172,-255.5 310,-255.5 "/>
<text text-anchor="middle" x="241" y="-244.3" font-family="Times,serif" font-size="14.00">⇊</text>
<polyline fill="none" stroke="#7f7542" points="172,-240.5 310,-240.5 "/>
<text text-anchor="middle" x="241" y="-229.3" font-family="Times,serif" font-size="14.00">X₁ = Ø</text>
<polyline fill="none" stroke="#7f7542" points="172,-225.5 310,-225.5 "/>
<text text-anchor="middle" x="241" y="-214.3" font-family="Times,serif" font-size="14.00">sk₈₅(X₁,X₂) ∈ X₁</text>
</a>
</g>
</g>
<!-- c_0_84 -->
<g id="node3" class="node">
<title>c_0_84</title>
<g id="a_node3"><a xlink:href="c_0_84.html" xlink:title="{&#45;element(X₁,1)|FinSequence(X₁,X₂)|⇊|X₁ . 1 ∈ X₂|X₂ = Ø}" target="_parent">
<polygon fill="#f8edd1" stroke="#7f7542" points="84,-98.5 84,-173.5 222,-173.5 222,-98.5 84,-98.5"/>
<text text-anchor="middle" x="153" y="-162.3" font-family="Times,serif" font-size="14.00">&#45;element(X₁,1)</text>
<polyline fill="none" stroke="#7f7542" points="84,-158.5 222,-158.5 "/>
<text text-anchor="middle" x="153" y="-147.3" font-family="Times,serif" font-size="14.00">FinSequence(X₁,X₂)</text>
<polyline fill="none" stroke="#7f7542" points="84,-143.5 222,-143.5 "/>
<text text-anchor="middle" x="153" y="-132.3" font-family="Times,serif" font-size="14.00">⇊</text>
<polyline fill="none" stroke="#7f7542" points="84,-128.5 222,-128.5 "/>
<text text-anchor="middle" x="153" y="-117.3" font-family="Times,serif" font-size="14.00">X₁ . 1 ∈ X₂</text>
<polyline fill="none" stroke="#7f7542" points="84,-113.5 222,-113.5 "/>
<text text-anchor="middle" x="153" y="-102.3" font-family="Times,serif" font-size="14.00">X₂ = Ø</text>
</a>
</g>
</g>
<!-- c_0_57&#45;&gt;c_0_84 -->
<g id="edge1" class="edge">
<title>c_0_57&#45;&gt;c_0_84</title>
<path fill="none" stroke="black" d="M197,-210.39C197,-210.39 197,-183.7 197,-183.7"/>
<polygon fill="black" stroke="black" points="200.5,-183.7 197,-173.7 193.5,-183.7 200.5,-183.7"/>
</g>
<!-- c_0_77 -->
<g id="node2" class="node">
<title>c_0_77</title>
<g id="a_node2"><a xlink:href="c_0_77.html" xlink:title="{&#45;element(X₂,1)|FinSequence(X₂,X₁)|⇊|X₁ = Ø|sk₈₅(X₁,X₂) = X₂ . 1}" target="_parent">
<polygon fill="#f8edd1" stroke="#7f7542" points="16,-210.5 16,-285.5 154,-285.5 154,-210.5 16,-210.5"/>
<text text-anchor="middle" x="85" y="-274.3" font-family="Times,serif" font-size="14.00">&#45;element(X₂,1)</text>
<polyline fill="none" stroke="#7f7542" points="16,-270.5 154,-270.5 "/>
<text text-anchor="middle" x="85" y="-259.3" font-family="Times,serif" font-size="14.00">FinSequence(X₂,X₁)</text>
<polyline fill="none" stroke="#7f7542" points="16,-255.5 154,-255.5 "/>
<text text-anchor="middle" x="85" y="-244.3" font-family="Times,serif" font-size="14.00">⇊</text>
<polyline fill="none" stroke="#7f7542" points="16,-240.5 154,-240.5 "/>
<text text-anchor="middle" x="85" y="-229.3" font-family="Times,serif" font-size="14.00">X₁ = Ø</text>
<polyline fill="none" stroke="#7f7542" points="16,-225.5 154,-225.5 "/>
<text text-anchor="middle" x="85" y="-214.3" font-family="Times,serif" font-size="14.00">sk₈₅(X₁,X₂) = X₂ . 1</text>
</a>
</g>
</g>
<!-- c_0_77&#45;&gt;c_0_84 -->
<g id="edge2" class="edge">
<title>c_0_77&#45;&gt;c_0_84</title>
<path fill="none" stroke="black" d="M119,-210.39C119,-210.39 119,-183.7 119,-183.7"/>
<polygon fill="black" stroke="black" points="122.5,-183.7 119,-173.7 115.5,-183.7 122.5,-183.7"/>
</g>
<!-- c_0_90 -->
<g id="node4" class="node">
<title>c_0_90</title>
<g id="a_node4"><a xlink:href="c_0_90.html" xlink:title="{&#45;tuples_on(1,X₁) c= X₂|X₁ = Ø|sk₅(&#45;tuples_on(1,X₁),X₂) . 1 ∈ X₁}" target="_parent">
<polygon fill="#f8edd1" stroke="#7f7542" points="43,-16.5 43,-61.5 263,-61.5 263,-16.5 43,-16.5"/>
<text text-anchor="middle" x="153" y="-50.3" font-family="Times,serif" font-size="14.00">&#45;tuples_on(1,X₁) c= X₂</text>
<polyline fill="none" stroke="#7f7542" points="43,-46.5 263,-46.5 "/>
<text text-anchor="middle" x="153" y="-35.3" font-family="Times,serif" font-size="14.00">X₁ = Ø</text>
<polyline fill="none" stroke="#7f7542" points="43,-31.5 263,-31.5 "/>
<text text-anchor="middle" x="153" y="-20.3" font-family="Times,serif" font-size="14.00">sk₅(&#45;tuples_on(1,X₁),X₂) . 1 ∈ X₁</text>
</a>
</g>
</g>
<!-- c_0_84&#45;&gt;c_0_90 -->
<g id="edge3" class="edge">
<title>c_0_84&#45;&gt;c_0_90</title>
<path fill="none" stroke="black" stroke-dasharray="5,2" d="M153,-98.5C153,-98.5 153,-71.54 153,-71.54"/>
<polygon fill="black" stroke="black" points="156.5,-71.54 153,-61.54 149.5,-71.54 156.5,-71.54"/>
</g>
</g>
</svg>
