<?xml version="1.0" encoding="UTF-8" standalone="no"?>
<!DOCTYPE svg PUBLIC "-//W3C//DTD SVG 1.1//EN"
 "http://www.w3.org/Graphics/SVG/1.1/DTD/svg11.dtd">
<!-- Generated by graphviz version 5.0.0 (0)
 -->
<!-- Title: proof Pages: 1 -->
<svg width="773pt" height="310pt"
 viewBox="0.00 0.00 773.00 310.00" xmlns="http://www.w3.org/2000/svg" xmlns:xlink="http://www.w3.org/1999/xlink">
<g id="graph0" class="graph" transform="scale(1 1) rotate(0) translate(4 306)">
<title>proof</title>
<g id="clust1" class="cluster">
<title>cluster_0</title>
<polygon fill="transparent" stroke="black" stroke-dasharray="1,5" points="8,-202 8,-294 757,-294 757,-202 8,-202"/>
</g>
<g id="clust2" class="cluster">
<title>cluster_1</title>
<polygon fill="transparent" stroke="black" stroke-width="2" points="309,-90 309,-182 525,-182 525,-90 309,-90"/>
</g>
<g id="clust3" class="cluster">
<title>cluster_2</title>
<polygon fill="transparent" stroke="black" stroke-dasharray="1,5" points="263,-8 263,-70 571,-70 571,-8 263,-8"/>
</g>
<!-- c_0_95 -->
<g id="node1" class="node">
<title>c_0_95</title>
<g id="a_node1"><a xlink:href="c_0_95.html" xlink:title="{X₃ = &#160;&amp;lt;*..*&amp;gt; (sk₅(&#45;tuples_on(1,X₁),X₂) . 1)|⇊|&#45;tuples_on(1,X₁) c= X₂|X₁ = Ø|in(X₃,proj2(sk₈₃(X₁)))}" target="_parent">
<polygon fill="#f8edd1" stroke="#7f7542" points="465.5,-210.5 465.5,-285.5 748.5,-285.5 748.5,-210.5 465.5,-210.5"/>
<text text-anchor="middle" x="607" y="-274.3" font-family="Times,serif" font-size="14.00">X₃ = &lt;*..*&gt; (sk₅(&#45;tuples_on(1,X₁),X₂) . 1)</text>
<polyline fill="none" stroke="#7f7542" points="465.5,-270.5 748.5,-270.5 "/>
<text text-anchor="middle" x="607" y="-259.3" font-family="Times,serif" font-size="14.00">⇊</text>
<polyline fill="none" stroke="#7f7542" points="465.5,-255.5 748.5,-255.5 "/>
<text text-anchor="middle" x="607" y="-244.3" font-family="Times,serif" font-size="14.00">&#45;tuples_on(1,X₁) c= X₂</text>
<polyline fill="none" stroke="#7f7542" points="465.5,-240.5 748.5,-240.5 "/>
<text text-anchor="middle" x="607" y="-229.3" font-family="Times,serif" font-size="14.00">X₁ = Ø</text>
<polyline fill="none" stroke="#7f7542" points="465.5,-225.5 748.5,-225.5 "/>
<text text-anchor="middle" x="607" y="-214.3" font-family="Times,serif" font-size="14.00">in(X₃,proj2(sk₈₃(X₁)))</text>
</a>
</g>
</g>
<!-- c_0_105 -->
<g id="node3" class="node">
<title>c_0_105</title>
<g id="a_node3"><a xlink:href="c_0_105.html" xlink:title="{X₃ = sk₅(&#45;tuples_on(1,X₁),X₂)|⇊|&#45;tuples_on(1,X₁) c= X₂|X₁ = Ø|in(X₃,proj2(sk₈₃(X₁)))}" target="_parent">
<polygon fill="#f8edd1" stroke="#7f7542" points="317.5,-98.5 317.5,-173.5 516.5,-173.5 516.5,-98.5 317.5,-98.5"/>
<text text-anchor="middle" x="417" y="-162.3" font-family="Times,serif" font-size="14.00">X₃ = sk₅(&#45;tuples_on(1,X₁),X₂)</text>
<polyline fill="none" stroke="#7f7542" points="317.5,-158.5 516.5,-158.5 "/>
<text text-anchor="middle" x="417" y="-147.3" font-family="Times,serif" font-size="14.00">⇊</text>
<polyline fill="none" stroke="#7f7542" points="317.5,-143.5 516.5,-143.5 "/>
<text text-anchor="middle" x="417" y="-132.3" font-family="Times,serif" font-size="14.00">&#45;tuples_on(1,X₁) c= X₂</text>
<polyline fill="none" stroke="#7f7542" points="317.5,-128.5 516.5,-128.5 "/>
<text text-anchor="middle" x="417" y="-117.3" font-family="Times,serif" font-size="14.00">X₁ = Ø</text>
<polyline fill="none" stroke="#7f7542" points="317.5,-113.5 516.5,-113.5 "/>
<text text-anchor="middle" x="417" y="-102.3" font-family="Times,serif" font-size="14.00">in(X₃,proj2(sk₈₃(X₁)))</text>
</a>
</g>
</g>
<!-- c_0_95&#45;&gt;c_0_105 -->
<g id="edge1" class="edge">
<title>c_0_95&#45;&gt;c_0_105</title>
<path fill="none" stroke="black" d="M491,-210.39C491,-210.39 491,-183.7 491,-183.7"/>
<polygon fill="black" stroke="black" points="494.5,-183.7 491,-173.7 487.5,-183.7 494.5,-183.7"/>
</g>
<!-- c_0_96 -->
<g id="node2" class="node">
<title>c_0_96</title>
<g id="a_node2"><a xlink:href="c_0_96.html" xlink:title="{ &amp;lt;*..*&amp;gt; (sk₅(&#45;tuples_on(1,X₁),X₂) . 1) = sk₅(&#45;tuples_on(1,X₁),X₂)|&#45;tuples_on(1,X₁) c= X₂|X₁ = Ø}" target="_parent">
<polygon fill="#f8edd1" stroke="#7f7542" points="16.5,-225.5 16.5,-270.5 447.5,-270.5 447.5,-225.5 16.5,-225.5"/>
<text text-anchor="middle" x="232" y="-259.3" font-family="Times,serif" font-size="14.00">&lt;*..*&gt; (sk₅(&#45;tuples_on(1,X₁),X₂) . 1) = sk₅(&#45;tuples_on(1,X₁),X₂)</text>
<polyline fill="none" stroke="#7f7542" points="16.5,-255.5 447.5,-255.5 "/>
<text text-anchor="middle" x="232" y="-244.3" font-family="Times,serif" font-size="14.00">&#45;tuples_on(1,X₁) c= X₂</text>
<polyline fill="none" stroke="#7f7542" points="16.5,-240.5 447.5,-240.5 "/>
<text text-anchor="middle" x="232" y="-229.3" font-family="Times,serif" font-size="14.00">X₁ = Ø</text>
</a>
</g>
</g>
<!-- c_0_96&#45;&gt;c_0_105 -->
<g id="edge2" class="edge">
<title>c_0_96&#45;&gt;c_0_105</title>
<path fill="none" stroke="black" d="M382.5,-225.34C382.5,-225.34 382.5,-183.63 382.5,-183.63"/>
<polygon fill="black" stroke="black" points="386,-183.63 382.5,-173.63 379,-183.63 386,-183.63"/>
</g>
<!-- c_0_114 -->
<g id="node4" class="node">
<title>c_0_114</title>
<g id="a_node4"><a xlink:href="c_0_114.html" xlink:title="{&#45;tuples_on(1,X₁) c= X₂|X₁ = Ø|in(sk₅(&#45;tuples_on(1,X₁),X₂),proj2(sk₈₃(X₁)))}" target="_parent">
<polygon fill="#f8edd1" stroke="#7f7542" points="271,-16.5 271,-61.5 563,-61.5 563,-16.5 271,-16.5"/>
<text text-anchor="middle" x="417" y="-50.3" font-family="Times,serif" font-size="14.00">&#45;tuples_on(1,X₁) c= X₂</text>
<polyline fill="none" stroke="#7f7542" points="271,-46.5 563,-46.5 "/>
<text text-anchor="middle" x="417" y="-35.3" font-family="Times,serif" font-size="14.00">X₁ = Ø</text>
<polyline fill="none" stroke="#7f7542" points="271,-31.5 563,-31.5 "/>
<text text-anchor="middle" x="417" y="-20.3" font-family="Times,serif" font-size="14.00">in(sk₅(&#45;tuples_on(1,X₁),X₂),proj2(sk₈₃(X₁)))</text>
</a>
</g>
</g>
<!-- c_0_105&#45;&gt;c_0_114 -->
<g id="edge3" class="edge">
<title>c_0_105&#45;&gt;c_0_114</title>
<path fill="none" stroke="black" stroke-dasharray="5,2" d="M417,-98.5C417,-98.5 417,-71.54 417,-71.54"/>
<polygon fill="black" stroke="black" points="420.5,-71.54 417,-61.54 413.5,-71.54 420.5,-71.54"/>
</g>
</g>
</svg>
