<?xml version="1.0" encoding="UTF-8" standalone="no"?>
<!DOCTYPE svg PUBLIC "-//W3C//DTD SVG 1.1//EN"
 "http://www.w3.org/Graphics/SVG/1.1/DTD/svg11.dtd">
<!-- Generated by graphviz version 5.0.0 (0)
 -->
<!-- Title: proof Pages: 1 -->
<svg width="178pt" height="235pt"
 viewBox="0.00 0.00 178.00 235.00" xmlns="http://www.w3.org/2000/svg" xmlns:xlink="http://www.w3.org/1999/xlink">
<g id="graph0" class="graph" transform="scale(1 1) rotate(0) translate(4 231)">
<title>proof</title>
<g id="clust1" class="cluster">
<title>cluster_0</title>
<polygon fill="transparent" stroke="black" stroke-dasharray="1,5" points="38,-187 38,-219 132,-219 132,-187 38,-187"/>
</g>
<g id="clust2" class="cluster">
<title>cluster_1</title>
<polygon fill="transparent" stroke="black" stroke-width="2" points="17,-75 17,-167 153,-167 153,-75 17,-75"/>
</g>
<g id="clust3" class="cluster">
<title>cluster_2</title>
<polygon fill="transparent" stroke="black" stroke-dasharray="1,5" points="8,-8 8,-55 162,-55 162,-8 8,-8"/>
</g>
<!-- d4_funct_1 -->
<g id="node1" class="node">
<title>d4_funct_1</title>
<g id="a_node1"><a xlink:href="d4_funct_1.html" xlink:title="d4_funct_1" target="_parent">
<polygon fill="#69d2e7" stroke="#7f7542" points="46,-195.5 46,-210.5 124,-210.5 124,-195.5 46,-195.5"/>
<text text-anchor="middle" x="85" y="-199.3" font-family="Times,serif" font-size="14.00">d4_funct_1</text>
</a>
</g>
</g>
<!-- c_0_120 -->
<g id="node2" class="node">
<title>c_0_120</title>
<g id="a_node2"><a xlink:href="c_0_120.html" xlink:title="{Function&#45;like(X₁)|Relation&#45;like(X₁)|sk₆(X₁) = sk₇(X₁)|⇊|one&#45;to&#45;one(X₁)}" target="_parent">
<polygon fill="#f8edd1" stroke="#7f7542" points="25.5,-83.5 25.5,-158.5 144.5,-158.5 144.5,-83.5 25.5,-83.5"/>
<text text-anchor="middle" x="85" y="-147.3" font-family="Times,serif" font-size="14.00">Function&#45;like(X₁)</text>
<polyline fill="none" stroke="#7f7542" points="25.5,-143.5 144.5,-143.5 "/>
<text text-anchor="middle" x="85" y="-132.3" font-family="Times,serif" font-size="14.00">Relation&#45;like(X₁)</text>
<polyline fill="none" stroke="#7f7542" points="25.5,-128.5 144.5,-128.5 "/>
<text text-anchor="middle" x="85" y="-117.3" font-family="Times,serif" font-size="14.00">sk₆(X₁) = sk₇(X₁)</text>
<polyline fill="none" stroke="#7f7542" points="25.5,-113.5 144.5,-113.5 "/>
<text text-anchor="middle" x="85" y="-102.3" font-family="Times,serif" font-size="14.00">⇊</text>
<polyline fill="none" stroke="#7f7542" points="25.5,-98.5 144.5,-98.5 "/>
<text text-anchor="middle" x="85" y="-87.3" font-family="Times,serif" font-size="14.00">one&#45;to&#45;one(X₁)</text>
</a>
</g>
</g>
<!-- d4_funct_1&#45;&gt;c_0_120 -->
<g id="edge1" class="edge">
<title>d4_funct_1&#45;&gt;c_0_120</title>
<path fill="none" stroke="black" d="M85,-195.43C85,-195.43 85,-168.67 85,-168.67"/>
<polygon fill="black" stroke="black" points="88.5,-168.67 85,-158.67 81.5,-168.67 88.5,-168.67"/>
</g>
<!-- c_0_126 -->
<g id="node3" class="node">
<title>c_0_126</title>
<g id="a_node3"><a xlink:href="c_0_126.html" xlink:title="{X₁ = Ø|one&#45;to&#45;one(sk₈₃(X₁))}" target="_parent">
<polygon fill="#f8edd1" stroke="#7f7542" points="16.5,-16.5 16.5,-46.5 153.5,-46.5 153.5,-16.5 16.5,-16.5"/>
<text text-anchor="middle" x="85" y="-35.3" font-family="Times,serif" font-size="14.00">X₁ = Ø</text>
<polyline fill="none" stroke="#7f7542" points="16.5,-31.5 153.5,-31.5 "/>
<text text-anchor="middle" x="85" y="-20.3" font-family="Times,serif" font-size="14.00">one&#45;to&#45;one(sk₈₃(X₁))</text>
</a>
</g>
</g>
<!-- c_0_120&#45;&gt;c_0_126 -->
<g id="edge2" class="edge">
<title>c_0_120&#45;&gt;c_0_126</title>
<path fill="none" stroke="black" stroke-dasharray="5,2" d="M85,-83.3C85,-83.3 85,-56.86 85,-56.86"/>
<polygon fill="black" stroke="black" points="88.5,-56.86 85,-46.86 81.5,-56.86 88.5,-56.86"/>
</g>
</g>
</svg>
