<?xml version="1.0" encoding="UTF-8" standalone="no"?>
<!DOCTYPE svg PUBLIC "-//W3C//DTD SVG 1.1//EN"
 "http://www.w3.org/Graphics/SVG/1.1/DTD/svg11.dtd">
<!-- Generated by graphviz version 5.0.0 (0)
 -->
<!-- Title: proof Pages: 1 -->
<svg width="675pt" height="400pt"
 viewBox="0.00 0.00 675.00 400.00" xmlns="http://www.w3.org/2000/svg" xmlns:xlink="http://www.w3.org/1999/xlink">
<g id="graph0" class="graph" transform="scale(1 1) rotate(0) translate(4 396)">
<title>proof</title>
<g id="clust1" class="cluster">
<title>cluster_0</title>
<polygon fill="transparent" stroke="black" stroke-dasharray="1,5" points="8,-262 8,-384 659,-384 659,-262 8,-262"/>
</g>
<g id="clust2" class="cluster">
<title>cluster_1</title>
<polygon fill="transparent" stroke="black" stroke-width="2" points="235,-150 235,-242 435,-242 435,-150 235,-150"/>
</g>
<g id="clust3" class="cluster">
<title>cluster_2</title>
<polygon fill="transparent" stroke="black" stroke-dasharray="1,5" points="248,-8 248,-130 422,-130 422,-8 248,-8"/>
</g>
<!-- c_0_50 -->
<g id="node1" class="node">
<title>c_0_50</title>
<g id="a_node1"><a xlink:href="c_0_50.html" xlink:title="{X₁ = Ø|function(sk₁₀(X₁))}" target="_parent">
<polygon fill="#f8edd1" stroke="#7f7542" points="529.5,-308 529.5,-338 650.5,-338 650.5,-308 529.5,-308"/>
<text text-anchor="middle" x="590" y="-326.8" font-family="Times,serif" font-size="14.00">X₁ = Ø</text>
<polyline fill="none" stroke="#7f7542" points="529.5,-323 650.5,-323 "/>
<text text-anchor="middle" x="590" y="-311.8" font-family="Times,serif" font-size="14.00">function(sk₁₀(X₁))</text>
</a>
</g>
</g>
<!-- c_0_73 -->
<g id="node5" class="node">
<title>c_0_73</title>
<g id="a_node5"><a xlink:href="c_0_73.html" xlink:title="{X₂ = proj₂(sk₁₀(X₁))|X₃ ∈ X₂|⇊|&amp;lt;sk₂(sk₁₀(X₁),X₂,X₃)&amp;gt; = X₃|X₁ = Ø}" target="_parent">
<polygon fill="#f8edd1" stroke="#7f7542" points="243.5,-158.5 243.5,-233.5 426.5,-233.5 426.5,-158.5 243.5,-158.5"/>
<text text-anchor="middle" x="335" y="-222.3" font-family="Times,serif" font-size="14.00">X₂ = proj₂(sk₁₀(X₁))</text>
<polyline fill="none" stroke="#7f7542" points="243.5,-218.5 426.5,-218.5 "/>
<text text-anchor="middle" x="335" y="-207.3" font-family="Times,serif" font-size="14.00">X₃ ∈ X₂</text>
<polyline fill="none" stroke="#7f7542" points="243.5,-203.5 426.5,-203.5 "/>
<text text-anchor="middle" x="335" y="-192.3" font-family="Times,serif" font-size="14.00">⇊</text>
<polyline fill="none" stroke="#7f7542" points="243.5,-188.5 426.5,-188.5 "/>
<text text-anchor="middle" x="335" y="-177.3" font-family="Times,serif" font-size="14.00">&lt;sk₂(sk₁₀(X₁),X₂,X₃)&gt; = X₃</text>
<polyline fill="none" stroke="#7f7542" points="243.5,-173.5 426.5,-173.5 "/>
<text text-anchor="middle" x="335" y="-162.3" font-family="Times,serif" font-size="14.00">X₁ = Ø</text>
</a>
</g>
</g>
<!-- c_0_50&#45;&gt;c_0_73 -->
<g id="edge1" class="edge">
<title>c_0_50&#45;&gt;c_0_73</title>
<path fill="none" stroke="black" d="M590,-307.93C590,-274.29 590,-196 590,-196 590,-196 436.7,-196 436.7,-196"/>
<polygon fill="black" stroke="black" points="436.7,-192.5 426.7,-196 436.7,-199.5 436.7,-192.5"/>
</g>
<!-- c_0_63 -->
<g id="node2" class="node">
<title>c_0_63</title>
<g id="a_node2"><a xlink:href="c_0_63.html" xlink:title="{X₂ = proj₂(sk₁₀(X₁))|X₃ ∈ X₂|function(sk₁₀(X₁))|relation(sk₁₀(X₁))|sk₂(sk₁₀(X₁),X₂,X₃) ∈ X₁|⇊|&amp;lt;sk₂(sk₁₀(X₁),X₂,X₃)&amp;gt; = X₃}" target="_parent">
<polygon fill="#f8edd1" stroke="#7f7542" points="328.5,-270.5 328.5,-375.5 511.5,-375.5 511.5,-270.5 328.5,-270.5"/>
<text text-anchor="middle" x="420" y="-364.3" font-family="Times,serif" font-size="14.00">X₂ = proj₂(sk₁₀(X₁))</text>
<polyline fill="none" stroke="#7f7542" points="328.5,-360.5 511.5,-360.5 "/>
<text text-anchor="middle" x="420" y="-349.3" font-family="Times,serif" font-size="14.00">X₃ ∈ X₂</text>
<polyline fill="none" stroke="#7f7542" points="328.5,-345.5 511.5,-345.5 "/>
<text text-anchor="middle" x="420" y="-334.3" font-family="Times,serif" font-size="14.00">function(sk₁₀(X₁))</text>
<polyline fill="none" stroke="#7f7542" points="328.5,-330.5 511.5,-330.5 "/>
<text text-anchor="middle" x="420" y="-319.3" font-family="Times,serif" font-size="14.00">relation(sk₁₀(X₁))</text>
<polyline fill="none" stroke="#7f7542" points="328.5,-315.5 511.5,-315.5 "/>
<text text-anchor="middle" x="420" y="-304.3" font-family="Times,serif" font-size="14.00">sk₂(sk₁₀(X₁),X₂,X₃) ∈ X₁</text>
<polyline fill="none" stroke="#7f7542" points="328.5,-300.5 511.5,-300.5 "/>
<text text-anchor="middle" x="420" y="-289.3" font-family="Times,serif" font-size="14.00">⇊</text>
<polyline fill="none" stroke="#7f7542" points="328.5,-285.5 511.5,-285.5 "/>
<text text-anchor="middle" x="420" y="-274.3" font-family="Times,serif" font-size="14.00">&lt;sk₂(sk₁₀(X₁),X₂,X₃)&gt; = X₃</text>
</a>
</g>
</g>
<!-- c_0_63&#45;&gt;c_0_73 -->
<g id="edge2" class="edge">
<title>c_0_63&#45;&gt;c_0_73</title>
<path fill="none" stroke="black" d="M377.5,-270.24C377.5,-270.24 377.5,-243.69 377.5,-243.69"/>
<polygon fill="black" stroke="black" points="381,-243.69 377.5,-233.69 374,-243.69 381,-243.69"/>
</g>
<!-- c_0_49 -->
<g id="node3" class="node">
<title>c_0_49</title>
<g id="a_node3"><a xlink:href="c_0_49.html" xlink:title="{X₁ = Ø|relation(sk₁₀(X₁))}" target="_parent">
<polygon fill="#f8edd1" stroke="#7f7542" points="192,-308 192,-338 310,-338 310,-308 192,-308"/>
<text text-anchor="middle" x="251" y="-326.8" font-family="Times,serif" font-size="14.00">X₁ = Ø</text>
<polyline fill="none" stroke="#7f7542" points="192,-323 310,-323 "/>
<text text-anchor="middle" x="251" y="-311.8" font-family="Times,serif" font-size="14.00">relation(sk₁₀(X₁))</text>
</a>
</g>
</g>
<!-- c_0_49&#45;&gt;c_0_73 -->
<g id="edge3" class="edge">
<title>c_0_49&#45;&gt;c_0_73</title>
<path fill="none" stroke="black" d="M287.83,-307.93C287.83,-307.93 287.83,-243.59 287.83,-243.59"/>
<polygon fill="black" stroke="black" points="291.33,-243.59 287.83,-233.59 284.33,-243.59 291.33,-243.59"/>
</g>
<!-- c_0_64 -->
<g id="node4" class="node">
<title>c_0_64</title>
<g id="a_node4"><a xlink:href="c_0_64.html" xlink:title="{X₂ = proj₂(sk₁₀(X₁))|X₃ ∈ X₂|⇊|X₁ = Ø|sk₂(sk₁₀(X₁),X₂,X₃) ∈ X₁}" target="_parent">
<polygon fill="#f8edd1" stroke="#7f7542" points="16.5,-285.5 16.5,-360.5 173.5,-360.5 173.5,-285.5 16.5,-285.5"/>
<text text-anchor="middle" x="95" y="-349.3" font-family="Times,serif" font-size="14.00">X₂ = proj₂(sk₁₀(X₁))</text>
<polyline fill="none" stroke="#7f7542" points="16.5,-345.5 173.5,-345.5 "/>
<text text-anchor="middle" x="95" y="-334.3" font-family="Times,serif" font-size="14.00">X₃ ∈ X₂</text>
<polyline fill="none" stroke="#7f7542" points="16.5,-330.5 173.5,-330.5 "/>
<text text-anchor="middle" x="95" y="-319.3" font-family="Times,serif" font-size="14.00">⇊</text>
<polyline fill="none" stroke="#7f7542" points="16.5,-315.5 173.5,-315.5 "/>
<text text-anchor="middle" x="95" y="-304.3" font-family="Times,serif" font-size="14.00">X₁ = Ø</text>
<polyline fill="none" stroke="#7f7542" points="16.5,-300.5 173.5,-300.5 "/>
<text text-anchor="middle" x="95" y="-289.3" font-family="Times,serif" font-size="14.00">sk₂(sk₁₀(X₁),X₂,X₃) ∈ X₁</text>
</a>
</g>
</g>
<!-- c_0_64&#45;&gt;c_0_73 -->
<g id="edge4" class="edge">
<title>c_0_64&#45;&gt;c_0_73</title>
<path fill="none" stroke="black" d="M173.84,-296C218.56,-296 265.67,-296 265.67,-296 265.67,-296 265.67,-243.52 265.67,-243.52"/>
<polygon fill="black" stroke="black" points="269.17,-243.52 265.67,-233.52 262.17,-243.52 269.17,-243.52"/>
</g>
<!-- c_0_80 -->
<g id="node6" class="node">
<title>c_0_80</title>
<g id="a_node6"><a xlink:href="c_0_80.html" xlink:title="{X₁ ∈ X₄|X₄ = proj₂(sk₁₀(X₃))|sk₂(sk₁₀(X₃),X₄,X₁) ∈ X₂|⇊|X₁ ∈ 1&#45;tuples(X₂)|X₂ = Ø|X₃ = Ø}" target="_parent">
<polygon fill="#f8edd1" stroke="#7f7542" points="256.5,-16.5 256.5,-121.5 413.5,-121.5 413.5,-16.5 256.5,-16.5"/>
<text text-anchor="middle" x="335" y="-110.3" font-family="Times,serif" font-size="14.00">X₁ ∈ X₄</text>
<polyline fill="none" stroke="#7f7542" points="256.5,-106.5 413.5,-106.5 "/>
<text text-anchor="middle" x="335" y="-95.3" font-family="Times,serif" font-size="14.00">X₄ = proj₂(sk₁₀(X₃))</text>
<polyline fill="none" stroke="#7f7542" points="256.5,-91.5 413.5,-91.5 "/>
<text text-anchor="middle" x="335" y="-80.3" font-family="Times,serif" font-size="14.00">sk₂(sk₁₀(X₃),X₄,X₁) ∈ X₂</text>
<polyline fill="none" stroke="#7f7542" points="256.5,-76.5 413.5,-76.5 "/>
<text text-anchor="middle" x="335" y="-65.3" font-family="Times,serif" font-size="14.00">⇊</text>
<polyline fill="none" stroke="#7f7542" points="256.5,-61.5 413.5,-61.5 "/>
<text text-anchor="middle" x="335" y="-50.3" font-family="Times,serif" font-size="14.00">X₁ ∈ 1&#45;tuples(X₂)</text>
<polyline fill="none" stroke="#7f7542" points="256.5,-46.5 413.5,-46.5 "/>
<text text-anchor="middle" x="335" y="-35.3" font-family="Times,serif" font-size="14.00">X₂ = Ø</text>
<polyline fill="none" stroke="#7f7542" points="256.5,-31.5 413.5,-31.5 "/>
<text text-anchor="middle" x="335" y="-20.3" font-family="Times,serif" font-size="14.00">X₃ = Ø</text>
</a>
</g>
</g>
<!-- c_0_73&#45;&gt;c_0_80 -->
<g id="edge5" class="edge">
<title>c_0_73&#45;&gt;c_0_80</title>
<path fill="none" stroke="black" stroke-dasharray="5,2" d="M335,-158.24C335,-158.24 335,-131.89 335,-131.89"/>
<polygon fill="black" stroke="black" points="338.5,-131.89 335,-121.89 331.5,-131.89 338.5,-131.89"/>
</g>
</g>
</svg>
