<?xml version="1.0" encoding="UTF-8" standalone="no"?>
<!DOCTYPE svg PUBLIC "-//W3C//DTD SVG 1.1//EN"
 "http://www.w3.org/Graphics/SVG/1.1/DTD/svg11.dtd">
<!-- Generated by graphviz version 5.0.0 (0)
 -->
<!-- Title: proof Pages: 1 -->
<svg width="632pt" height="355pt"
 viewBox="0.00 0.00 632.00 355.00" xmlns="http://www.w3.org/2000/svg" xmlns:xlink="http://www.w3.org/1999/xlink">
<g id="graph0" class="graph" transform="scale(1 1) rotate(0) translate(4 351)">
<title>proof</title>
<g id="clust1" class="cluster">
<title>cluster_0</title>
<polygon fill="transparent" stroke="black" stroke-dasharray="1,5" points="8,-232 8,-339 616,-339 616,-232 8,-232"/>
</g>
<g id="clust2" class="cluster">
<title>cluster_1</title>
<polygon fill="transparent" stroke="black" stroke-width="2" points="218,-120 218,-212 392,-212 392,-120 218,-120"/>
</g>
<g id="clust3" class="cluster">
<title>cluster_2</title>
<polygon fill="transparent" stroke="black" stroke-dasharray="1,5" points="205,-8 205,-100 405,-100 405,-8 205,-8"/>
</g>
<!-- c_0_49 -->
<g id="node1" class="node">
<title>c_0_49</title>
<g id="a_node1"><a xlink:href="c_0_49.html" xlink:title="{X₁ = Ø|relation(sk₁₀(X₁))}" target="_vizar">
<polygon fill="#f8edd1" stroke="#7f7542" points="490,-270.5 490,-300.5 608,-300.5 608,-270.5 490,-270.5"/>
<text text-anchor="middle" x="549" y="-289.3" font-family="Times,serif" font-size="14.00">X₁ = Ø</text>
<polyline fill="none" stroke="#7f7542" points="490,-285.5 608,-285.5 "/>
<text text-anchor="middle" x="549" y="-274.3" font-family="Times,serif" font-size="14.00">relation(sk₁₀(X₁))</text>
</a>
</g>
</g>
<!-- c_0_64 -->
<g id="node5" class="node">
<title>c_0_64</title>
<g id="a_node5"><a xlink:href="c_0_64.html" xlink:title="{X₂ = proj₂(sk₁₀(X₁))|X₃ ∈ X₂|⇊|X₁ = Ø|sk₂(sk₁₀(X₁),X₂,X₃) ∈ X₁}" target="_vizar">
<polygon fill="#f8edd1" stroke="#7f7542" points="226.5,-128.5 226.5,-203.5 383.5,-203.5 383.5,-128.5 226.5,-128.5"/>
<text text-anchor="middle" x="305" y="-192.3" font-family="Times,serif" font-size="14.00">X₂ = proj₂(sk₁₀(X₁))</text>
<polyline fill="none" stroke="#7f7542" points="226.5,-188.5 383.5,-188.5 "/>
<text text-anchor="middle" x="305" y="-177.3" font-family="Times,serif" font-size="14.00">X₃ ∈ X₂</text>
<polyline fill="none" stroke="#7f7542" points="226.5,-173.5 383.5,-173.5 "/>
<text text-anchor="middle" x="305" y="-162.3" font-family="Times,serif" font-size="14.00">⇊</text>
<polyline fill="none" stroke="#7f7542" points="226.5,-158.5 383.5,-158.5 "/>
<text text-anchor="middle" x="305" y="-147.3" font-family="Times,serif" font-size="14.00">X₁ = Ø</text>
<polyline fill="none" stroke="#7f7542" points="226.5,-143.5 383.5,-143.5 "/>
<text text-anchor="middle" x="305" y="-132.3" font-family="Times,serif" font-size="14.00">sk₂(sk₁₀(X₁),X₂,X₃) ∈ X₁</text>
</a>
</g>
</g>
<!-- c_0_49&#45;&gt;c_0_64 -->
<g id="edge1" class="edge">
<title>c_0_49&#45;&gt;c_0_64</title>
<path fill="none" stroke="black" d="M549,-270.37C549,-238.21 549,-166 549,-166 549,-166 393.55,-166 393.55,-166"/>
<polygon fill="black" stroke="black" points="393.55,-162.5 383.55,-166 393.55,-169.5 393.55,-162.5"/>
</g>
<!-- c_0_47 -->
<g id="node2" class="node">
<title>c_0_47</title>
<g id="a_node2"><a xlink:href="c_0_47.html" xlink:title="{X₂ = proj₂(X₁)|X₃ ∈ X₂|function(X₁)|relation(X₁)|⇊|sk₂(X₁,X₂,X₃) ∈ proj₁(X₁)}" target="_vizar">
<polygon fill="#f8edd1" stroke="#7f7542" points="306.5,-240.5 306.5,-330.5 471.5,-330.5 471.5,-240.5 306.5,-240.5"/>
<text text-anchor="middle" x="389" y="-319.3" font-family="Times,serif" font-size="14.00">X₂ = proj₂(X₁)</text>
<polyline fill="none" stroke="#7f7542" points="306.5,-315.5 471.5,-315.5 "/>
<text text-anchor="middle" x="389" y="-304.3" font-family="Times,serif" font-size="14.00">X₃ ∈ X₂</text>
<polyline fill="none" stroke="#7f7542" points="306.5,-300.5 471.5,-300.5 "/>
<text text-anchor="middle" x="389" y="-289.3" font-family="Times,serif" font-size="14.00">function(X₁)</text>
<polyline fill="none" stroke="#7f7542" points="306.5,-285.5 471.5,-285.5 "/>
<text text-anchor="middle" x="389" y="-274.3" font-family="Times,serif" font-size="14.00">relation(X₁)</text>
<polyline fill="none" stroke="#7f7542" points="306.5,-270.5 471.5,-270.5 "/>
<text text-anchor="middle" x="389" y="-259.3" font-family="Times,serif" font-size="14.00">⇊</text>
<polyline fill="none" stroke="#7f7542" points="306.5,-255.5 471.5,-255.5 "/>
<text text-anchor="middle" x="389" y="-244.3" font-family="Times,serif" font-size="14.00">sk₂(X₁,X₂,X₃) ∈ proj₁(X₁)</text>
</a>
</g>
</g>
<!-- c_0_47&#45;&gt;c_0_64 -->
<g id="edge2" class="edge">
<title>c_0_47&#45;&gt;c_0_64</title>
<path fill="none" stroke="black" d="M345,-240.32C345,-240.32 345,-213.83 345,-213.83"/>
<polygon fill="black" stroke="black" points="348.5,-213.83 345,-203.83 341.5,-213.83 348.5,-213.83"/>
</g>
<!-- c_0_48 -->
<g id="node3" class="node">
<title>c_0_48</title>
<g id="a_node3"><a xlink:href="c_0_48.html" xlink:title="{X₁ = Ø|proj₁(sk₁₀(X₁)) = X₁}" target="_vizar">
<polygon fill="#f8edd1" stroke="#7f7542" points="155.5,-270.5 155.5,-300.5 288.5,-300.5 288.5,-270.5 155.5,-270.5"/>
<text text-anchor="middle" x="222" y="-289.3" font-family="Times,serif" font-size="14.00">X₁ = Ø</text>
<polyline fill="none" stroke="#7f7542" points="155.5,-285.5 288.5,-285.5 "/>
<text text-anchor="middle" x="222" y="-274.3" font-family="Times,serif" font-size="14.00">proj₁(sk₁₀(X₁)) = X₁</text>
</a>
</g>
</g>
<!-- c_0_48&#45;&gt;c_0_64 -->
<g id="edge3" class="edge">
<title>c_0_48&#45;&gt;c_0_64</title>
<path fill="none" stroke="black" d="M257.5,-270.37C257.5,-270.37 257.5,-213.56 257.5,-213.56"/>
<polygon fill="black" stroke="black" points="261,-213.56 257.5,-203.56 254,-213.56 261,-213.56"/>
</g>
<!-- c_0_50 -->
<g id="node4" class="node">
<title>c_0_50</title>
<g id="a_node4"><a xlink:href="c_0_50.html" xlink:title="{X₁ = Ø|function(sk₁₀(X₁))}" target="_vizar">
<polygon fill="#f8edd1" stroke="#7f7542" points="16.5,-270.5 16.5,-300.5 137.5,-300.5 137.5,-270.5 16.5,-270.5"/>
<text text-anchor="middle" x="77" y="-289.3" font-family="Times,serif" font-size="14.00">X₁ = Ø</text>
<polyline fill="none" stroke="#7f7542" points="16.5,-285.5 137.5,-285.5 "/>
<text text-anchor="middle" x="77" y="-274.3" font-family="Times,serif" font-size="14.00">function(sk₁₀(X₁))</text>
</a>
</g>
</g>
<!-- c_0_50&#45;&gt;c_0_64 -->
<g id="edge4" class="edge">
<title>c_0_50&#45;&gt;c_0_64</title>
<path fill="none" stroke="black" d="M77,-270.37C77,-238.21 77,-166 77,-166 77,-166 216.22,-166 216.22,-166"/>
<polygon fill="black" stroke="black" points="216.22,-169.5 226.22,-166 216.22,-162.5 216.22,-169.5"/>
</g>
<!-- c_0_73 -->
<g id="node6" class="node">
<title>c_0_73</title>
<g id="a_node6"><a xlink:href="c_0_73.html" xlink:title="{X₂ = proj₂(sk₁₀(X₁))|X₃ ∈ X₂|⇊|&amp;lt;sk₂(sk₁₀(X₁),X₂,X₃)&amp;gt; = X₃|X₁ = Ø}" target="_vizar">
<polygon fill="#f8edd1" stroke="#7f7542" points="213.5,-16.5 213.5,-91.5 396.5,-91.5 396.5,-16.5 213.5,-16.5"/>
<text text-anchor="middle" x="305" y="-80.3" font-family="Times,serif" font-size="14.00">X₂ = proj₂(sk₁₀(X₁))</text>
<polyline fill="none" stroke="#7f7542" points="213.5,-76.5 396.5,-76.5 "/>
<text text-anchor="middle" x="305" y="-65.3" font-family="Times,serif" font-size="14.00">X₃ ∈ X₂</text>
<polyline fill="none" stroke="#7f7542" points="213.5,-61.5 396.5,-61.5 "/>
<text text-anchor="middle" x="305" y="-50.3" font-family="Times,serif" font-size="14.00">⇊</text>
<polyline fill="none" stroke="#7f7542" points="213.5,-46.5 396.5,-46.5 "/>
<text text-anchor="middle" x="305" y="-35.3" font-family="Times,serif" font-size="14.00">&lt;sk₂(sk₁₀(X₁),X₂,X₃)&gt; = X₃</text>
<polyline fill="none" stroke="#7f7542" points="213.5,-31.5 396.5,-31.5 "/>
<text text-anchor="middle" x="305" y="-20.3" font-family="Times,serif" font-size="14.00">X₁ = Ø</text>
</a>
</g>
</g>
<!-- c_0_64&#45;&gt;c_0_73 -->
<g id="edge5" class="edge">
<title>c_0_64&#45;&gt;c_0_73</title>
<path fill="none" stroke="black" stroke-dasharray="5,2" d="M305,-128.39C305,-128.39 305,-101.7 305,-101.7"/>
<polygon fill="black" stroke="black" points="308.5,-101.7 305,-91.7 301.5,-101.7 308.5,-101.7"/>
</g>
</g>
</svg>
