<?xml version="1.0" encoding="UTF-8" standalone="no"?>
<!DOCTYPE svg PUBLIC "-//W3C//DTD SVG 1.1//EN"
 "http://www.w3.org/Graphics/SVG/1.1/DTD/svg11.dtd">
<!-- Generated by graphviz version 5.0.0 (0)
 -->
<!-- Title: proof Pages: 1 -->
<svg width="604pt" height="325pt"
 viewBox="0.00 0.00 604.00 325.00" xmlns="http://www.w3.org/2000/svg" xmlns:xlink="http://www.w3.org/1999/xlink">
<g id="graph0" class="graph" transform="scale(1 1) rotate(0) translate(4 321)">
<title>proof</title>
<g id="clust1" class="cluster">
<title>cluster_0</title>
<polygon fill="transparent" stroke="black" stroke-dasharray="1,5" points="8,-232 8,-309 587,-309 587,-232 8,-232"/>
</g>
<g id="clust2" class="cluster">
<title>cluster_1</title>
<polygon fill="transparent" stroke="black" stroke-width="2" points="204,-135 204,-212 396,-212 396,-135 204,-135"/>
</g>
<g id="clust3" class="cluster">
<title>cluster_2</title>
<polygon fill="transparent" stroke="black" stroke-dasharray="1,5" points="203,-8 203,-115 588,-115 588,-8 203,-8"/>
</g>
<!-- c_0_26 -->
<g id="node1" class="node">
<title>c_0_26</title>
<g id="a_node1"><a xlink:href="c_0_26.html" xlink:title="{X₂ ∈ X₁|⇊|X₁ &amp;lt;*..*&amp;gt; X₂ = &#160;&amp;lt;*..*&amp;gt; X₂|X₁ = Ø}" target="_parent">
<polygon fill="#f8edd1" stroke="#7f7542" points="405.5,-240.5 405.5,-300.5 578.5,-300.5 578.5,-240.5 405.5,-240.5"/>
<text text-anchor="middle" x="492" y="-289.3" font-family="Times,serif" font-size="14.00">X₂ ∈ X₁</text>
<polyline fill="none" stroke="#7f7542" points="405.5,-285.5 578.5,-285.5 "/>
<text text-anchor="middle" x="492" y="-274.3" font-family="Times,serif" font-size="14.00">⇊</text>
<polyline fill="none" stroke="#7f7542" points="405.5,-270.5 578.5,-270.5 "/>
<text text-anchor="middle" x="492" y="-259.3" font-family="Times,serif" font-size="14.00">X₁ &lt;*..*&gt; X₂ = &lt;*..*&gt; X₂</text>
<polyline fill="none" stroke="#7f7542" points="405.5,-255.5 578.5,-255.5 "/>
<text text-anchor="middle" x="492" y="-244.3" font-family="Times,serif" font-size="14.00">X₁ = Ø</text>
</a>
</g>
</g>
<!-- c_0_59 -->
<g id="node4" class="node">
<title>c_0_59</title>
<g id="a_node4"><a xlink:href="c_0_59.html" xlink:title="{in(X₁,a_1_0_finseq_2(X₂))|⇊| &amp;lt;*..*&amp;gt; sk₁₆(X₁,X₂) = X₁|X₂ = Ø}" target="_parent">
<polygon fill="#f8edd1" stroke="#7f7542" points="212.5,-143.5 212.5,-203.5 387.5,-203.5 387.5,-143.5 212.5,-143.5"/>
<text text-anchor="middle" x="300" y="-192.3" font-family="Times,serif" font-size="14.00">in(X₁,a_1_0_finseq_2(X₂))</text>
<polyline fill="none" stroke="#7f7542" points="212.5,-188.5 387.5,-188.5 "/>
<text text-anchor="middle" x="300" y="-177.3" font-family="Times,serif" font-size="14.00">⇊</text>
<polyline fill="none" stroke="#7f7542" points="212.5,-173.5 387.5,-173.5 "/>
<text text-anchor="middle" x="300" y="-162.3" font-family="Times,serif" font-size="14.00">&lt;*..*&gt; sk₁₆(X₁,X₂) = X₁</text>
<polyline fill="none" stroke="#7f7542" points="212.5,-158.5 387.5,-158.5 "/>
<text text-anchor="middle" x="300" y="-147.3" font-family="Times,serif" font-size="14.00">X₂ = Ø</text>
</a>
</g>
</g>
<!-- c_0_26&#45;&gt;c_0_59 -->
<g id="edge1" class="edge">
<title>c_0_26&#45;&gt;c_0_59</title>
<path fill="none" stroke="black" d="M492,-240.45C492,-211.8 492,-173 492,-173 492,-173 397.57,-173 397.57,-173"/>
<polygon fill="black" stroke="black" points="397.57,-169.5 387.57,-173 397.57,-176.5 397.57,-169.5"/>
</g>
<!-- c_0_40 -->
<g id="node2" class="node">
<title>c_0_40</title>
<g id="a_node2"><a xlink:href="c_0_40.html" xlink:title="{in(X₁,a_1_0_finseq_2(X₂))|⇊|X₂ = Ø|sk₁₆(X₁,X₂) ∈ X₂}" target="_parent">
<polygon fill="#f8edd1" stroke="#7f7542" points="212.5,-240.5 212.5,-300.5 387.5,-300.5 387.5,-240.5 212.5,-240.5"/>
<text text-anchor="middle" x="300" y="-289.3" font-family="Times,serif" font-size="14.00">in(X₁,a_1_0_finseq_2(X₂))</text>
<polyline fill="none" stroke="#7f7542" points="212.5,-285.5 387.5,-285.5 "/>
<text text-anchor="middle" x="300" y="-274.3" font-family="Times,serif" font-size="14.00">⇊</text>
<polyline fill="none" stroke="#7f7542" points="212.5,-270.5 387.5,-270.5 "/>
<text text-anchor="middle" x="300" y="-259.3" font-family="Times,serif" font-size="14.00">X₂ = Ø</text>
<polyline fill="none" stroke="#7f7542" points="212.5,-255.5 387.5,-255.5 "/>
<text text-anchor="middle" x="300" y="-244.3" font-family="Times,serif" font-size="14.00">sk₁₆(X₁,X₂) ∈ X₂</text>
</a>
</g>
</g>
<!-- c_0_40&#45;&gt;c_0_59 -->
<g id="edge2" class="edge">
<title>c_0_40&#45;&gt;c_0_59</title>
<path fill="none" stroke="black" d="M300,-240.34C300,-240.34 300,-213.64 300,-213.64"/>
<polygon fill="black" stroke="black" points="303.5,-213.64 300,-203.64 296.5,-213.64 303.5,-213.64"/>
</g>
<!-- c_0_39 -->
<g id="node3" class="node">
<title>c_0_39</title>
<g id="a_node3"><a xlink:href="c_0_39.html" xlink:title="{in(X₁,a_1_0_finseq_2(X₂))|⇊|X₁ = X₂ &amp;lt;*..*&amp;gt; sk₁₆(X₁,X₂)|X₂ = Ø}" target="_parent">
<polygon fill="#f8edd1" stroke="#7f7542" points="16,-240.5 16,-300.5 194,-300.5 194,-240.5 16,-240.5"/>
<text text-anchor="middle" x="105" y="-289.3" font-family="Times,serif" font-size="14.00">in(X₁,a_1_0_finseq_2(X₂))</text>
<polyline fill="none" stroke="#7f7542" points="16,-285.5 194,-285.5 "/>
<text text-anchor="middle" x="105" y="-274.3" font-family="Times,serif" font-size="14.00">⇊</text>
<polyline fill="none" stroke="#7f7542" points="16,-270.5 194,-270.5 "/>
<text text-anchor="middle" x="105" y="-259.3" font-family="Times,serif" font-size="14.00">X₁ = X₂ &lt;*..*&gt; sk₁₆(X₁,X₂)</text>
<polyline fill="none" stroke="#7f7542" points="16,-255.5 194,-255.5 "/>
<text text-anchor="middle" x="105" y="-244.3" font-family="Times,serif" font-size="14.00">X₂ = Ø</text>
</a>
</g>
</g>
<!-- c_0_39&#45;&gt;c_0_59 -->
<g id="edge3" class="edge">
<title>c_0_39&#45;&gt;c_0_59</title>
<path fill="none" stroke="black" d="M105,-240.45C105,-211.8 105,-173 105,-173 105,-173 202.48,-173 202.48,-173"/>
<polygon fill="black" stroke="black" points="202.48,-176.5 212.48,-173 202.48,-169.5 202.48,-176.5"/>
</g>
<!-- c_0_69 -->
<g id="node5" class="node">
<title>c_0_69</title>
<g id="a_node5"><a xlink:href="c_0_69.html" xlink:title="{in(X₁,a_1_0_finseq_2(X₃))|sk₁₆(X₁,X₃) ∈ X₂|⇊|FinSequence(X₁,X₂)|X₂ = Ø|X₃ = Ø}" target="_parent">
<polygon fill="#f8edd1" stroke="#7f7542" points="404.5,-16.5 404.5,-106.5 579.5,-106.5 579.5,-16.5 404.5,-16.5"/>
<text text-anchor="middle" x="492" y="-95.3" font-family="Times,serif" font-size="14.00">in(X₁,a_1_0_finseq_2(X₃))</text>
<polyline fill="none" stroke="#7f7542" points="404.5,-91.5 579.5,-91.5 "/>
<text text-anchor="middle" x="492" y="-80.3" font-family="Times,serif" font-size="14.00">sk₁₆(X₁,X₃) ∈ X₂</text>
<polyline fill="none" stroke="#7f7542" points="404.5,-76.5 579.5,-76.5 "/>
<text text-anchor="middle" x="492" y="-65.3" font-family="Times,serif" font-size="14.00">⇊</text>
<polyline fill="none" stroke="#7f7542" points="404.5,-61.5 579.5,-61.5 "/>
<text text-anchor="middle" x="492" y="-50.3" font-family="Times,serif" font-size="14.00">FinSequence(X₁,X₂)</text>
<polyline fill="none" stroke="#7f7542" points="404.5,-46.5 579.5,-46.5 "/>
<text text-anchor="middle" x="492" y="-35.3" font-family="Times,serif" font-size="14.00">X₂ = Ø</text>
<polyline fill="none" stroke="#7f7542" points="404.5,-31.5 579.5,-31.5 "/>
<text text-anchor="middle" x="492" y="-20.3" font-family="Times,serif" font-size="14.00">X₃ = Ø</text>
</a>
</g>
</g>
<!-- c_0_59&#45;&gt;c_0_69 -->
<g id="edge4" class="edge">
<title>c_0_59&#45;&gt;c_0_69</title>
<path fill="none" stroke="black" stroke-dasharray="5,2" d="M328.5,-143.2C328.5,-122.57 328.5,-99 328.5,-99 328.5,-99 394.03,-99 394.03,-99"/>
<polygon fill="black" stroke="black" points="394.03,-102.5 404.03,-99 394.03,-95.5 394.03,-102.5"/>
</g>
<!-- c_0_71 -->
<g id="node6" class="node">
<title>c_0_71</title>
<g id="a_node6"><a xlink:href="c_0_71.html" xlink:title="{in(X₁,a_1_0_finseq_2(X₂))|⇊|&#45;element(X₁,1)|X₂ = Ø}" target="_parent">
<polygon fill="#f8edd1" stroke="#7f7542" points="211.5,-31.5 211.5,-91.5 386.5,-91.5 386.5,-31.5 211.5,-31.5"/>
<text text-anchor="middle" x="299" y="-80.3" font-family="Times,serif" font-size="14.00">in(X₁,a_1_0_finseq_2(X₂))</text>
<polyline fill="none" stroke="#7f7542" points="211.5,-76.5 386.5,-76.5 "/>
<text text-anchor="middle" x="299" y="-65.3" font-family="Times,serif" font-size="14.00">⇊</text>
<polyline fill="none" stroke="#7f7542" points="211.5,-61.5 386.5,-61.5 "/>
<text text-anchor="middle" x="299" y="-50.3" font-family="Times,serif" font-size="14.00">&#45;element(X₁,1)</text>
<polyline fill="none" stroke="#7f7542" points="211.5,-46.5 386.5,-46.5 "/>
<text text-anchor="middle" x="299" y="-35.3" font-family="Times,serif" font-size="14.00">X₂ = Ø</text>
</a>
</g>
</g>
<!-- c_0_59&#45;&gt;c_0_71 -->
<g id="edge5" class="edge">
<title>c_0_59&#45;&gt;c_0_71</title>
<path fill="none" stroke="black" stroke-dasharray="5,2" d="M270.5,-143.49C270.5,-143.49 270.5,-101.6 270.5,-101.6"/>
<polygon fill="black" stroke="black" points="274,-101.6 270.5,-91.6 267,-101.6 274,-101.6"/>
</g>
</g>
</svg>
