<?xml version="1.0" encoding="UTF-8" standalone="no"?>
<!DOCTYPE svg PUBLIC "-//W3C//DTD SVG 1.1//EN"
 "http://www.w3.org/Graphics/SVG/1.1/DTD/svg11.dtd">
<!-- Generated by graphviz version 5.0.0 (0)
 -->
<!-- Title: proof Pages: 1 -->
<svg width="1583pt" height="295pt"
 viewBox="0.00 0.00 1583.00 295.00" xmlns="http://www.w3.org/2000/svg" xmlns:xlink="http://www.w3.org/1999/xlink">
<g id="graph0" class="graph" transform="scale(1 1) rotate(0) translate(4 291)">
<title>proof</title>
<g id="clust1" class="cluster">
<title>cluster_0</title>
<polygon fill="transparent" stroke="black" stroke-dasharray="1,5" points="432,-187 432,-279 1108,-279 1108,-187 432,-187"/>
</g>
<g id="clust2" class="cluster">
<title>cluster_1</title>
<polygon fill="transparent" stroke="black" stroke-width="2" points="752,-120 752,-167 890,-167 890,-120 752,-120"/>
</g>
<g id="clust3" class="cluster">
<title>cluster_2</title>
<polygon fill="transparent" stroke="black" stroke-dasharray="1,5" points="8,-8 8,-100 1567,-100 1567,-8 8,-8"/>
</g>
<!-- c_0_120 -->
<g id="node1" class="node">
<title>c_0_120</title>
<g id="a_node1"><a xlink:href="c_0_120.html" xlink:title="{function(X₁)|relation(X₁)|sk₆(X₁) = sk₇(X₁)|⇊|function(X₁)}" target="_vizar">
<polygon fill="#f8edd1" stroke="#7f7542" points="984.5,-195.5 984.5,-270.5 1099.5,-270.5 1099.5,-195.5 984.5,-195.5"/>
<text text-anchor="middle" x="1042" y="-259.3" font-family="Times,serif" font-size="14.00">function(X₁)</text>
<polyline fill="none" stroke="#7f7542" points="984.5,-255.5 1099.5,-255.5 "/>
<text text-anchor="middle" x="1042" y="-244.3" font-family="Times,serif" font-size="14.00">relation(X₁)</text>
<polyline fill="none" stroke="#7f7542" points="984.5,-240.5 1099.5,-240.5 "/>
<text text-anchor="middle" x="1042" y="-229.3" font-family="Times,serif" font-size="14.00">sk₆(X₁) = sk₇(X₁)</text>
<polyline fill="none" stroke="#7f7542" points="984.5,-225.5 1099.5,-225.5 "/>
<text text-anchor="middle" x="1042" y="-214.3" font-family="Times,serif" font-size="14.00">⇊</text>
<polyline fill="none" stroke="#7f7542" points="984.5,-210.5 1099.5,-210.5 "/>
<text text-anchor="middle" x="1042" y="-199.3" font-family="Times,serif" font-size="14.00">function(X₁)</text>
</a>
</g>
</g>
<!-- c_0_50 -->
<g id="node5" class="node">
<title>c_0_50</title>
<g id="a_node5"><a xlink:href="c_0_50.html" xlink:title="{X₁ = Ø|function(sk₁₀(X₁))}" target="_vizar">
<polygon fill="#f8edd1" stroke="#7f7542" points="760.5,-128.5 760.5,-158.5 881.5,-158.5 881.5,-128.5 760.5,-128.5"/>
<text text-anchor="middle" x="821" y="-147.3" font-family="Times,serif" font-size="14.00">X₁ = Ø</text>
<polyline fill="none" stroke="#7f7542" points="760.5,-143.5 881.5,-143.5 "/>
<text text-anchor="middle" x="821" y="-132.3" font-family="Times,serif" font-size="14.00">function(sk₁₀(X₁))</text>
</a>
</g>
</g>
<!-- c_0_120&#45;&gt;c_0_50 -->
<g id="edge1" class="edge">
<title>c_0_120&#45;&gt;c_0_50</title>
<path fill="none" stroke="black" d="M984.36,-202C934.49,-202 870.33,-202 870.33,-202 870.33,-202 870.33,-168.57 870.33,-168.57"/>
<polygon fill="black" stroke="black" points="873.83,-168.57 870.33,-158.57 866.83,-168.57 873.83,-168.57"/>
</g>
<!-- c_0_49 -->
<g id="node2" class="node">
<title>c_0_49</title>
<g id="a_node2"><a xlink:href="c_0_49.html" xlink:title="{X₁ = Ø|relation(sk₁₀(X₁))}" target="_vizar">
<polygon fill="#f8edd1" stroke="#7f7542" points="848,-218 848,-248 966,-248 966,-218 848,-218"/>
<text text-anchor="middle" x="907" y="-236.8" font-family="Times,serif" font-size="14.00">X₁ = Ø</text>
<polyline fill="none" stroke="#7f7542" points="848,-233 966,-233 "/>
<text text-anchor="middle" x="907" y="-221.8" font-family="Times,serif" font-size="14.00">relation(sk₁₀(X₁))</text>
</a>
</g>
</g>
<!-- c_0_49&#45;&gt;c_0_50 -->
<g id="edge2" class="edge">
<title>c_0_49&#45;&gt;c_0_50</title>
<path fill="none" stroke="black" d="M859.17,-217.82C859.17,-217.82 859.17,-168.76 859.17,-168.76"/>
<polygon fill="black" stroke="black" points="862.67,-168.76 859.17,-158.76 855.67,-168.76 862.67,-168.76"/>
</g>
<!-- c_0_121 -->
<g id="node3" class="node">
<title>c_0_121</title>
<g id="a_node3"><a xlink:href="c_0_121.html" xlink:title="{X₁ = Ø|function(sk₁₀(X₁))|sk₇(sk₁₀(X₁)) = sk₆(sk₁₀(X₁))}" target="_vizar">
<polygon fill="#f8edd1" stroke="#7f7542" points="642,-210.5 642,-255.5 830,-255.5 830,-210.5 642,-210.5"/>
<text text-anchor="middle" x="736" y="-244.3" font-family="Times,serif" font-size="14.00">X₁ = Ø</text>
<polyline fill="none" stroke="#7f7542" points="642,-240.5 830,-240.5 "/>
<text text-anchor="middle" x="736" y="-229.3" font-family="Times,serif" font-size="14.00">function(sk₁₀(X₁))</text>
<polyline fill="none" stroke="#7f7542" points="642,-225.5 830,-225.5 "/>
<text text-anchor="middle" x="736" y="-214.3" font-family="Times,serif" font-size="14.00">sk₇(sk₁₀(X₁)) = sk₆(sk₁₀(X₁))</text>
</a>
</g>
</g>
<!-- c_0_121&#45;&gt;c_0_50 -->
<g id="edge3" class="edge">
<title>c_0_121&#45;&gt;c_0_50</title>
<path fill="none" stroke="black" d="M795.25,-210.42C795.25,-210.42 795.25,-168.76 795.25,-168.76"/>
<polygon fill="black" stroke="black" points="798.75,-168.76 795.25,-158.76 791.75,-168.76 798.75,-168.76"/>
</g>
<!-- s3_funct_1__e1_7__card_4 -->
<g id="node4" class="node">
<title>s3_funct_1__e1_7__card_4</title>
<g id="a_node4"><a xlink:href="s3_funct_1__e1_7__card_4.html" xlink:title="s3_funct_1__e1_7__card_4" target="_vizar">
<polygon fill="#69d2e7" stroke="#7f7542" points="440,-225.5 440,-240.5 624,-240.5 624,-225.5 440,-225.5"/>
<text text-anchor="middle" x="532" y="-229.3" font-family="Times,serif" font-size="14.00">s3_funct_1__e1_7__card_4</text>
</a>
</g>
</g>
<!-- s3_funct_1__e1_7__card_4&#45;&gt;c_0_50 -->
<g id="edge4" class="edge">
<title>s3_funct_1__e1_7__card_4&#45;&gt;c_0_50</title>
<path fill="none" stroke="black" d="M604.75,-225.33C604.75,-205.31 604.75,-153 604.75,-153 604.75,-153 750.47,-153 750.47,-153"/>
<polygon fill="black" stroke="black" points="750.47,-156.5 760.47,-153 750.47,-149.5 750.47,-156.5"/>
</g>
<!-- c_0_128 -->
<g id="node6" class="node">
<title>c_0_128</title>
<g id="a_node6"><a xlink:href="c_0_128.html" xlink:title="{X₁ = Ø|\|1&#45;tuples(X₁)\| = \|X₁\|}" target="_vizar">
<polygon fill="#f8edd1" stroke="#7f7542" points="1421,-39 1421,-69 1559,-69 1559,-39 1421,-39"/>
<text text-anchor="middle" x="1490" y="-57.8" font-family="Times,serif" font-size="14.00">X₁ = Ø</text>
<polyline fill="none" stroke="#7f7542" points="1421,-54 1559,-54 "/>
<text text-anchor="middle" x="1490" y="-42.8" font-family="Times,serif" font-size="14.00">|1&#45;tuples(X₁)| = |X₁|</text>
</a>
</g>
</g>
<!-- c_0_50&#45;&gt;c_0_128 -->
<g id="edge5" class="edge">
<title>c_0_50&#45;&gt;c_0_128</title>
<path fill="none" stroke="black" stroke-dasharray="5,2" d="M881.55,-152C1046.23,-152 1490,-152 1490,-152 1490,-152 1490,-79.31 1490,-79.31"/>
<polygon fill="black" stroke="black" points="1493.5,-79.31 1490,-69.31 1486.5,-79.31 1493.5,-79.31"/>
</g>
<!-- c_0_64 -->
<g id="node7" class="node">
<title>c_0_64</title>
<g id="a_node7"><a xlink:href="c_0_64.html" xlink:title="{X₂ = proj₂(sk₁₀(X₁))|X₃ ∈ X₂|⇊|X₁ = Ø|sk₂(sk₁₀(X₁),X₂,X₃) ∈ X₁}" target="_vizar">
<polygon fill="#f8edd1" stroke="#7f7542" points="1245.5,-16.5 1245.5,-91.5 1402.5,-91.5 1402.5,-16.5 1245.5,-16.5"/>
<text text-anchor="middle" x="1324" y="-80.3" font-family="Times,serif" font-size="14.00">X₂ = proj₂(sk₁₀(X₁))</text>
<polyline fill="none" stroke="#7f7542" points="1245.5,-76.5 1402.5,-76.5 "/>
<text text-anchor="middle" x="1324" y="-65.3" font-family="Times,serif" font-size="14.00">X₃ ∈ X₂</text>
<polyline fill="none" stroke="#7f7542" points="1245.5,-61.5 1402.5,-61.5 "/>
<text text-anchor="middle" x="1324" y="-50.3" font-family="Times,serif" font-size="14.00">⇊</text>
<polyline fill="none" stroke="#7f7542" points="1245.5,-46.5 1402.5,-46.5 "/>
<text text-anchor="middle" x="1324" y="-35.3" font-family="Times,serif" font-size="14.00">X₁ = Ø</text>
<polyline fill="none" stroke="#7f7542" points="1245.5,-31.5 1402.5,-31.5 "/>
<text text-anchor="middle" x="1324" y="-20.3" font-family="Times,serif" font-size="14.00">sk₂(sk₁₀(X₁),X₂,X₃) ∈ X₁</text>
</a>
</g>
</g>
<!-- c_0_50&#45;&gt;c_0_64 -->
<g id="edge6" class="edge">
<title>c_0_50&#45;&gt;c_0_64</title>
<path fill="none" stroke="black" stroke-dasharray="5,2" d="M881.67,-146C1015.46,-146 1324,-146 1324,-146 1324,-146 1324,-101.69 1324,-101.69"/>
<polygon fill="black" stroke="black" points="1327.5,-101.69 1324,-91.69 1320.5,-101.69 1327.5,-101.69"/>
</g>
<!-- c_0_107 -->
<g id="node8" class="node">
<title>c_0_107</title>
<g id="a_node8"><a xlink:href="c_0_107.html" xlink:title="{X₁ = Ø|function(sk₁₀(X₁))|sk₇(sk₁₀(X₁)) ∈ X₁}" target="_vizar">
<polygon fill="#f8edd1" stroke="#7f7542" points="1106.5,-31.5 1106.5,-76.5 1227.5,-76.5 1227.5,-31.5 1106.5,-31.5"/>
<text text-anchor="middle" x="1167" y="-65.3" font-family="Times,serif" font-size="14.00">X₁ = Ø</text>
<polyline fill="none" stroke="#7f7542" points="1106.5,-61.5 1227.5,-61.5 "/>
<text text-anchor="middle" x="1167" y="-50.3" font-family="Times,serif" font-size="14.00">function(sk₁₀(X₁))</text>
<polyline fill="none" stroke="#7f7542" points="1106.5,-46.5 1227.5,-46.5 "/>
<text text-anchor="middle" x="1167" y="-35.3" font-family="Times,serif" font-size="14.00">sk₇(sk₁₀(X₁)) ∈ X₁</text>
</a>
</g>
</g>
<!-- c_0_50&#45;&gt;c_0_107 -->
<g id="edge7" class="edge">
<title>c_0_50&#45;&gt;c_0_107</title>
<path fill="none" stroke="black" stroke-dasharray="5,2" d="M881.66,-140C980.9,-140 1167,-140 1167,-140 1167,-140 1167,-86.6 1167,-86.6"/>
<polygon fill="black" stroke="black" points="1170.5,-86.6 1167,-76.6 1163.5,-86.6 1170.5,-86.6"/>
</g>
<!-- c_0_73 -->
<g id="node9" class="node">
<title>c_0_73</title>
<g id="a_node9"><a xlink:href="c_0_73.html" xlink:title="{X₂ = proj₂(sk₁₀(X₁))|X₃ ∈ X₂|⇊|&amp;lt;sk₂(sk₁₀(X₁),X₂,X₃)&amp;gt; = X₃|X₁ = Ø}" target="_vizar">
<polygon fill="#f8edd1" stroke="#7f7542" points="905.5,-16.5 905.5,-91.5 1088.5,-91.5 1088.5,-16.5 905.5,-16.5"/>
<text text-anchor="middle" x="997" y="-80.3" font-family="Times,serif" font-size="14.00">X₂ = proj₂(sk₁₀(X₁))</text>
<polyline fill="none" stroke="#7f7542" points="905.5,-76.5 1088.5,-76.5 "/>
<text text-anchor="middle" x="997" y="-65.3" font-family="Times,serif" font-size="14.00">X₃ ∈ X₂</text>
<polyline fill="none" stroke="#7f7542" points="905.5,-61.5 1088.5,-61.5 "/>
<text text-anchor="middle" x="997" y="-50.3" font-family="Times,serif" font-size="14.00">⇊</text>
<polyline fill="none" stroke="#7f7542" points="905.5,-46.5 1088.5,-46.5 "/>
<text text-anchor="middle" x="997" y="-35.3" font-family="Times,serif" font-size="14.00">&lt;sk₂(sk₁₀(X₁),X₂,X₃)&gt; = X₃</text>
<polyline fill="none" stroke="#7f7542" points="905.5,-31.5 1088.5,-31.5 "/>
<text text-anchor="middle" x="997" y="-20.3" font-family="Times,serif" font-size="14.00">X₁ = Ø</text>
</a>
</g>
</g>
<!-- c_0_50&#45;&gt;c_0_73 -->
<g id="edge8" class="edge">
<title>c_0_50&#45;&gt;c_0_73</title>
<path fill="none" stroke="black" stroke-dasharray="5,2" d="M881.74,-134C909.26,-134 935.75,-134 935.75,-134 935.75,-134 935.75,-101.66 935.75,-101.66"/>
<polygon fill="black" stroke="black" points="939.25,-101.66 935.75,-91.66 932.25,-101.66 939.25,-101.66"/>
</g>
<!-- c_0_66 -->
<g id="node10" class="node">
<title>c_0_66</title>
<g id="a_node10"><a xlink:href="c_0_66.html" xlink:title="{X₁ = sk₁₀(X₃)(X₄)|X₂ = proj₂(sk₁₀(X₃))|X₄ ∈ X₃|⇊|X₁ ∈ X₂}" target="_vizar">
<polygon fill="#f8edd1" stroke="#7f7542" points="754.5,-16.5 754.5,-91.5 887.5,-91.5 887.5,-16.5 754.5,-16.5"/>
<text text-anchor="middle" x="821" y="-80.3" font-family="Times,serif" font-size="14.00">X₁ = sk₁₀(X₃)(X₄)</text>
<polyline fill="none" stroke="#7f7542" points="754.5,-76.5 887.5,-76.5 "/>
<text text-anchor="middle" x="821" y="-65.3" font-family="Times,serif" font-size="14.00">X₂ = proj₂(sk₁₀(X₃))</text>
<polyline fill="none" stroke="#7f7542" points="754.5,-61.5 887.5,-61.5 "/>
<text text-anchor="middle" x="821" y="-50.3" font-family="Times,serif" font-size="14.00">X₄ ∈ X₃</text>
<polyline fill="none" stroke="#7f7542" points="754.5,-46.5 887.5,-46.5 "/>
<text text-anchor="middle" x="821" y="-35.3" font-family="Times,serif" font-size="14.00">⇊</text>
<polyline fill="none" stroke="#7f7542" points="754.5,-31.5 887.5,-31.5 "/>
<text text-anchor="middle" x="821" y="-20.3" font-family="Times,serif" font-size="14.00">X₁ ∈ X₂</text>
</a>
</g>
</g>
<!-- c_0_50&#45;&gt;c_0_66 -->
<g id="edge9" class="edge">
<title>c_0_50&#45;&gt;c_0_66</title>
<path fill="none" stroke="black" stroke-dasharray="5,2" d="M821,-128.32C821,-128.32 821,-101.66 821,-101.66"/>
<polygon fill="black" stroke="black" points="824.5,-101.66 821,-91.66 817.5,-101.66 824.5,-101.66"/>
</g>
<!-- c_0_124 -->
<g id="node11" class="node">
<title>c_0_124</title>
<g id="a_node11"><a xlink:href="c_0_124.html" xlink:title="{function(sk₁₀(X₁))|⇊|X₁ = Ø|\|proj₂(sk₁₀(X₁))\| = \|X₁\|}" target="_vizar">
<polygon fill="#f8edd1" stroke="#7f7542" points="585.5,-24 585.5,-84 736.5,-84 736.5,-24 585.5,-24"/>
<text text-anchor="middle" x="661" y="-72.8" font-family="Times,serif" font-size="14.00">function(sk₁₀(X₁))</text>
<polyline fill="none" stroke="#7f7542" points="585.5,-69 736.5,-69 "/>
<text text-anchor="middle" x="661" y="-57.8" font-family="Times,serif" font-size="14.00">⇊</text>
<polyline fill="none" stroke="#7f7542" points="585.5,-54 736.5,-54 "/>
<text text-anchor="middle" x="661" y="-42.8" font-family="Times,serif" font-size="14.00">X₁ = Ø</text>
<polyline fill="none" stroke="#7f7542" points="585.5,-39 736.5,-39 "/>
<text text-anchor="middle" x="661" y="-27.8" font-family="Times,serif" font-size="14.00">|proj₂(sk₁₀(X₁))| = |X₁|</text>
</a>
</g>
</g>
<!-- c_0_50&#45;&gt;c_0_124 -->
<g id="edge10" class="edge">
<title>c_0_50&#45;&gt;c_0_124</title>
<path fill="none" stroke="black" stroke-dasharray="5,2" d="M760.14,-133C725.62,-133 689.25,-133 689.25,-133 689.25,-133 689.25,-94.32 689.25,-94.32"/>
<polygon fill="black" stroke="black" points="692.75,-94.32 689.25,-84.32 685.75,-94.32 692.75,-94.32"/>
</g>
<!-- c_0_108 -->
<g id="node12" class="node">
<title>c_0_108</title>
<g id="a_node12"><a xlink:href="c_0_108.html" xlink:title="{X₁ = Ø|function(sk₁₀(X₁))|sk₆(sk₁₀(X₁)) ∈ X₁}" target="_vizar">
<polygon fill="#f8edd1" stroke="#7f7542" points="446.5,-31.5 446.5,-76.5 567.5,-76.5 567.5,-31.5 446.5,-31.5"/>
<text text-anchor="middle" x="507" y="-65.3" font-family="Times,serif" font-size="14.00">X₁ = Ø</text>
<polyline fill="none" stroke="#7f7542" points="446.5,-61.5 567.5,-61.5 "/>
<text text-anchor="middle" x="507" y="-50.3" font-family="Times,serif" font-size="14.00">function(sk₁₀(X₁))</text>
<polyline fill="none" stroke="#7f7542" points="446.5,-46.5 567.5,-46.5 "/>
<text text-anchor="middle" x="507" y="-35.3" font-family="Times,serif" font-size="14.00">sk₆(sk₁₀(X₁)) ∈ X₁</text>
</a>
</g>
</g>
<!-- c_0_50&#45;&gt;c_0_108 -->
<g id="edge11" class="edge">
<title>c_0_50&#45;&gt;c_0_108</title>
<path fill="none" stroke="black" stroke-dasharray="5,2" d="M760.46,-138C669.21,-138 507,-138 507,-138 507,-138 507,-86.51 507,-86.51"/>
<polygon fill="black" stroke="black" points="510.5,-86.51 507,-76.51 503.5,-86.51 510.5,-86.51"/>
</g>
<!-- c_0_115 -->
<g id="node13" class="node">
<title>c_0_115</title>
<g id="a_node13"><a xlink:href="c_0_115.html" xlink:title="{&amp;lt;sk₇(sk₁₀(X₁))&amp;gt; = &amp;lt;sk₆(sk₁₀(X₁))&amp;gt;|X₁ = Ø|function(sk₁₀(X₁))}" target="_vizar">
<polygon fill="#f8edd1" stroke="#7f7542" points="192,-31.5 192,-76.5 428,-76.5 428,-31.5 192,-31.5"/>
<text text-anchor="middle" x="310" y="-65.3" font-family="Times,serif" font-size="14.00">&lt;sk₇(sk₁₀(X₁))&gt; = &lt;sk₆(sk₁₀(X₁))&gt;</text>
<polyline fill="none" stroke="#7f7542" points="192,-61.5 428,-61.5 "/>
<text text-anchor="middle" x="310" y="-50.3" font-family="Times,serif" font-size="14.00">X₁ = Ø</text>
<polyline fill="none" stroke="#7f7542" points="192,-46.5 428,-46.5 "/>
<text text-anchor="middle" x="310" y="-35.3" font-family="Times,serif" font-size="14.00">function(sk₁₀(X₁))</text>
</a>
</g>
</g>
<!-- c_0_50&#45;&gt;c_0_115 -->
<g id="edge12" class="edge">
<title>c_0_50&#45;&gt;c_0_115</title>
<path fill="none" stroke="black" stroke-dasharray="5,2" d="M760.37,-143C625.02,-143 310,-143 310,-143 310,-143 310,-86.92 310,-86.92"/>
<polygon fill="black" stroke="black" points="313.5,-86.92 310,-76.92 306.5,-86.92 313.5,-86.92"/>
</g>
<!-- c_0_81 -->
<g id="node14" class="node">
<title>c_0_81</title>
<g id="a_node14"><a xlink:href="c_0_81.html" xlink:title="{X₂ = proj₂(sk₁₀(X₁))|X₃ ∈ X₂|⇊|X₁ = Ø|sk₂(sk₁₀(X₁),X₂,X₃) ∈ X₁}" target="_vizar">
<polygon fill="#f8edd1" stroke="#7f7542" points="16.5,-16.5 16.5,-91.5 173.5,-91.5 173.5,-16.5 16.5,-16.5"/>
<text text-anchor="middle" x="95" y="-80.3" font-family="Times,serif" font-size="14.00">X₂ = proj₂(sk₁₀(X₁))</text>
<polyline fill="none" stroke="#7f7542" points="16.5,-76.5 173.5,-76.5 "/>
<text text-anchor="middle" x="95" y="-65.3" font-family="Times,serif" font-size="14.00">X₃ ∈ X₂</text>
<polyline fill="none" stroke="#7f7542" points="16.5,-61.5 173.5,-61.5 "/>
<text text-anchor="middle" x="95" y="-50.3" font-family="Times,serif" font-size="14.00">⇊</text>
<polyline fill="none" stroke="#7f7542" points="16.5,-46.5 173.5,-46.5 "/>
<text text-anchor="middle" x="95" y="-35.3" font-family="Times,serif" font-size="14.00">X₁ = Ø</text>
<polyline fill="none" stroke="#7f7542" points="16.5,-31.5 173.5,-31.5 "/>
<text text-anchor="middle" x="95" y="-20.3" font-family="Times,serif" font-size="14.00">sk₂(sk₁₀(X₁),X₂,X₃) ∈ X₁</text>
</a>
</g>
</g>
<!-- c_0_50&#45;&gt;c_0_81 -->
<g id="edge13" class="edge">
<title>c_0_50&#45;&gt;c_0_81</title>
<path fill="none" stroke="black" stroke-dasharray="5,2" d="M760.35,-148C585.86,-148 95,-148 95,-148 95,-148 95,-101.69 95,-101.69"/>
<polygon fill="black" stroke="black" points="98.5,-101.69 95,-91.69 91.5,-101.69 98.5,-101.69"/>
</g>
</g>
</svg>
