<?xml version="1.0" encoding="UTF-8" standalone="no"?>
<!DOCTYPE svg PUBLIC "-//W3C//DTD SVG 1.1//EN"
 "http://www.w3.org/Graphics/SVG/1.1/DTD/svg11.dtd">
<!-- Generated by graphviz version 5.0.0 (0)
 -->
<!-- Title: proof Pages: 1 -->
<svg width="286pt" height="340pt"
 viewBox="0.00 0.00 286.00 340.00" xmlns="http://www.w3.org/2000/svg" xmlns:xlink="http://www.w3.org/1999/xlink">
<g id="graph0" class="graph" transform="scale(1 1) rotate(0) translate(4 336)">
<title>proof</title>
<g id="clust1" class="cluster">
<title>cluster_0</title>
<polygon fill="transparent" stroke="black" stroke-dasharray="1,5" points="8,-232 8,-324 270,-324 270,-232 8,-232"/>
</g>
<g id="clust2" class="cluster">
<title>cluster_1</title>
<polygon fill="transparent" stroke="black" stroke-width="2" points="58,-120 58,-212 202,-212 202,-120 58,-120"/>
</g>
<g id="clust3" class="cluster">
<title>cluster_2</title>
<polygon fill="transparent" stroke="black" stroke-dasharray="1,5" points="10,-8 10,-100 260,-100 260,-8 10,-8"/>
</g>
<!-- c_0_68 -->
<g id="node1" class="node">
<title>c_0_68</title>
<g id="a_node1"><a xlink:href="c_0_68.html" xlink:title="{X₂ ∈ fin&#45;seq(X₁)|\|X₂\|=1|⇊|&amp;lt;sk₁₁(X₁,X₂)&amp;gt; = X₂|X₁ = Ø}" target="_vizar">
<polygon fill="#f8edd1" stroke="#7f7542" points="130,-240.5 130,-315.5 262,-315.5 262,-240.5 130,-240.5"/>
<text text-anchor="middle" x="196" y="-304.3" font-family="Times,serif" font-size="14.00">X₂ ∈ fin&#45;seq(X₁)</text>
<polyline fill="none" stroke="#7f7542" points="130,-300.5 262,-300.5 "/>
<text text-anchor="middle" x="196" y="-289.3" font-family="Times,serif" font-size="14.00">|X₂|=1</text>
<polyline fill="none" stroke="#7f7542" points="130,-285.5 262,-285.5 "/>
<text text-anchor="middle" x="196" y="-274.3" font-family="Times,serif" font-size="14.00">⇊</text>
<polyline fill="none" stroke="#7f7542" points="130,-270.5 262,-270.5 "/>
<text text-anchor="middle" x="196" y="-259.3" font-family="Times,serif" font-size="14.00">&lt;sk₁₁(X₁,X₂)&gt; = X₂</text>
<polyline fill="none" stroke="#7f7542" points="130,-255.5 262,-255.5 "/>
<text text-anchor="middle" x="196" y="-244.3" font-family="Times,serif" font-size="14.00">X₁ = Ø</text>
</a>
</g>
</g>
<!-- c_0_77 -->
<g id="node3" class="node">
<title>c_0_77</title>
<g id="a_node3"><a xlink:href="c_0_77.html" xlink:title="{X₂ ∈ fin&#45;seq(X₁)|\|X₂\|=1|⇊|X₁ = Ø|sk₁₁(X₁,X₂) = X₂(1)}" target="_vizar">
<polygon fill="#f8edd1" stroke="#7f7542" points="66.5,-128.5 66.5,-203.5 193.5,-203.5 193.5,-128.5 66.5,-128.5"/>
<text text-anchor="middle" x="130" y="-192.3" font-family="Times,serif" font-size="14.00">X₂ ∈ fin&#45;seq(X₁)</text>
<polyline fill="none" stroke="#7f7542" points="66.5,-188.5 193.5,-188.5 "/>
<text text-anchor="middle" x="130" y="-177.3" font-family="Times,serif" font-size="14.00">|X₂|=1</text>
<polyline fill="none" stroke="#7f7542" points="66.5,-173.5 193.5,-173.5 "/>
<text text-anchor="middle" x="130" y="-162.3" font-family="Times,serif" font-size="14.00">⇊</text>
<polyline fill="none" stroke="#7f7542" points="66.5,-158.5 193.5,-158.5 "/>
<text text-anchor="middle" x="130" y="-147.3" font-family="Times,serif" font-size="14.00">X₁ = Ø</text>
<polyline fill="none" stroke="#7f7542" points="66.5,-143.5 193.5,-143.5 "/>
<text text-anchor="middle" x="130" y="-132.3" font-family="Times,serif" font-size="14.00">sk₁₁(X₁,X₂) = X₂(1)</text>
</a>
</g>
</g>
<!-- c_0_68&#45;&gt;c_0_77 -->
<g id="edge1" class="edge">
<title>c_0_68&#45;&gt;c_0_77</title>
<path fill="none" stroke="black" d="M161.75,-240.39C161.75,-240.39 161.75,-213.7 161.75,-213.7"/>
<polygon fill="black" stroke="black" points="165.25,-213.7 161.75,-203.7 158.25,-213.7 165.25,-213.7"/>
</g>
<!-- c_0_67 -->
<g id="node2" class="node">
<title>c_0_67</title>
<g id="a_node2"><a xlink:href="c_0_67.html" xlink:title="{&amp;lt;X₁&amp;gt;(1) = X₁}" target="_vizar">
<polygon fill="#f8edd1" stroke="#7f7542" points="16.5,-270.5 16.5,-285.5 111.5,-285.5 111.5,-270.5 16.5,-270.5"/>
<text text-anchor="middle" x="64" y="-274.3" font-family="Times,serif" font-size="14.00">&lt;X₁&gt;(1) = X₁</text>
</a>
</g>
</g>
<!-- c_0_67&#45;&gt;c_0_77 -->
<g id="edge2" class="edge">
<title>c_0_67&#45;&gt;c_0_77</title>
<path fill="none" stroke="black" d="M89,-270.3C89,-270.3 89,-213.62 89,-213.62"/>
<polygon fill="black" stroke="black" points="92.5,-213.62 89,-203.62 85.5,-213.62 92.5,-213.62"/>
</g>
<!-- c_0_91 -->
<g id="node4" class="node">
<title>c_0_91</title>
<g id="a_node4"><a xlink:href="c_0_91.html" xlink:title="{X₁ ∈ fin&#45;seq(X₂)|\|X₁\|=1|⇊|&amp;lt;(X₁(1))&amp;gt; = X₁|X₂ = Ø}" target="_vizar">
<polygon fill="#f8edd1" stroke="#7f7542" points="144,-16.5 144,-91.5 252,-91.5 252,-16.5 144,-16.5"/>
<text text-anchor="middle" x="198" y="-80.3" font-family="Times,serif" font-size="14.00">X₁ ∈ fin&#45;seq(X₂)</text>
<polyline fill="none" stroke="#7f7542" points="144,-76.5 252,-76.5 "/>
<text text-anchor="middle" x="198" y="-65.3" font-family="Times,serif" font-size="14.00">|X₁|=1</text>
<polyline fill="none" stroke="#7f7542" points="144,-61.5 252,-61.5 "/>
<text text-anchor="middle" x="198" y="-50.3" font-family="Times,serif" font-size="14.00">⇊</text>
<polyline fill="none" stroke="#7f7542" points="144,-46.5 252,-46.5 "/>
<text text-anchor="middle" x="198" y="-35.3" font-family="Times,serif" font-size="14.00">&lt;(X₁(1))&gt; = X₁</text>
<polyline fill="none" stroke="#7f7542" points="144,-31.5 252,-31.5 "/>
<text text-anchor="middle" x="198" y="-20.3" font-family="Times,serif" font-size="14.00">X₂ = Ø</text>
</a>
</g>
</g>
<!-- c_0_77&#45;&gt;c_0_91 -->
<g id="edge3" class="edge">
<title>c_0_77&#45;&gt;c_0_91</title>
<path fill="none" stroke="black" stroke-dasharray="5,2" d="M168.75,-128.39C168.75,-128.39 168.75,-101.7 168.75,-101.7"/>
<polygon fill="black" stroke="black" points="172.25,-101.7 168.75,-91.7 165.25,-101.7 172.25,-101.7"/>
</g>
<!-- c_0_84 -->
<g id="node5" class="node">
<title>c_0_84</title>
<g id="a_node5"><a xlink:href="c_0_84.html" xlink:title="{X₁ ∈ fin&#45;seq(X₂)|\|X₁\|=1|⇊|X₁(1) ∈ X₂|X₂ = Ø}" target="_vizar">
<polygon fill="#f8edd1" stroke="#7f7542" points="18,-16.5 18,-91.5 126,-91.5 126,-16.5 18,-16.5"/>
<text text-anchor="middle" x="72" y="-80.3" font-family="Times,serif" font-size="14.00">X₁ ∈ fin&#45;seq(X₂)</text>
<polyline fill="none" stroke="#7f7542" points="18,-76.5 126,-76.5 "/>
<text text-anchor="middle" x="72" y="-65.3" font-family="Times,serif" font-size="14.00">|X₁|=1</text>
<polyline fill="none" stroke="#7f7542" points="18,-61.5 126,-61.5 "/>
<text text-anchor="middle" x="72" y="-50.3" font-family="Times,serif" font-size="14.00">⇊</text>
<polyline fill="none" stroke="#7f7542" points="18,-46.5 126,-46.5 "/>
<text text-anchor="middle" x="72" y="-35.3" font-family="Times,serif" font-size="14.00">X₁(1) ∈ X₂</text>
<polyline fill="none" stroke="#7f7542" points="18,-31.5 126,-31.5 "/>
<text text-anchor="middle" x="72" y="-20.3" font-family="Times,serif" font-size="14.00">X₂ = Ø</text>
</a>
</g>
</g>
<!-- c_0_77&#45;&gt;c_0_84 -->
<g id="edge4" class="edge">
<title>c_0_77&#45;&gt;c_0_84</title>
<path fill="none" stroke="black" stroke-dasharray="5,2" d="M96.25,-128.39C96.25,-128.39 96.25,-101.7 96.25,-101.7"/>
<polygon fill="black" stroke="black" points="99.75,-101.7 96.25,-91.7 92.75,-101.7 99.75,-101.7"/>
</g>
</g>
</svg>
