<?xml version="1.0" encoding="UTF-8" standalone="no"?>
<!DOCTYPE svg PUBLIC "-//W3C//DTD SVG 1.1//EN"
 "http://www.w3.org/Graphics/SVG/1.1/DTD/svg11.dtd">
<!-- Generated by graphviz version 5.0.0 (0)
 -->
<!-- Title: proof Pages: 1 -->
<svg width="1566pt" height="235pt"
 viewBox="0.00 0.00 1566.00 235.00" xmlns="http://www.w3.org/2000/svg" xmlns:xlink="http://www.w3.org/1999/xlink">
<g id="graph0" class="graph" transform="scale(1 1) rotate(0) translate(4 231)">
<title>proof</title>
<g id="clust1" class="cluster">
<title>cluster_0</title>
<polygon fill="transparent" stroke="black" stroke-dasharray="1,5" points="693,-187 693,-219 893,-219 893,-187 693,-187"/>
</g>
<g id="clust2" class="cluster">
<title>cluster_1</title>
<polygon fill="transparent" stroke="black" stroke-width="2" points="726,-120 726,-167 860,-167 860,-120 726,-120"/>
</g>
<g id="clust3" class="cluster">
<title>cluster_2</title>
<polygon fill="transparent" stroke="black" stroke-dasharray="1,5" points="8,-8 8,-100 1550,-100 1550,-8 8,-8"/>
</g>
<!-- s3_funct_1__e1_7__card_4 -->
<g id="node1" class="node">
<title>s3_funct_1__e1_7__card_4</title>
<g id="a_node1"><a xlink:href="s3_funct_1__e1_7__card_4.html" xlink:title="s3_funct_1__e1_7__card_4" target="_parent">
<polygon fill="#69d2e7" stroke="#7f7542" points="701,-195.5 701,-210.5 885,-210.5 885,-195.5 701,-195.5"/>
<text text-anchor="middle" x="793" y="-199.3" font-family="Times,serif" font-size="14.00">s3_funct_1__e1_7__card_4</text>
</a>
</g>
</g>
<!-- c_0_49 -->
<g id="node2" class="node">
<title>c_0_49</title>
<g id="a_node2"><a xlink:href="c_0_49.html" xlink:title="{X₁ = Ø|relation(sk₁₀(X₁))}" target="_parent">
<polygon fill="#f8edd1" stroke="#7f7542" points="734,-128.5 734,-158.5 852,-158.5 852,-128.5 734,-128.5"/>
<text text-anchor="middle" x="793" y="-147.3" font-family="Times,serif" font-size="14.00">X₁ = Ø</text>
<polyline fill="none" stroke="#7f7542" points="734,-143.5 852,-143.5 "/>
<text text-anchor="middle" x="793" y="-132.3" font-family="Times,serif" font-size="14.00">relation(sk₁₀(X₁))</text>
</a>
</g>
</g>
<!-- s3_funct_1__e1_7__card_4&#45;&gt;c_0_49 -->
<g id="edge1" class="edge">
<title>s3_funct_1__e1_7__card_4&#45;&gt;c_0_49</title>
<path fill="none" stroke="black" d="M793,-195.22C793,-195.22 793,-168.85 793,-168.85"/>
<polygon fill="black" stroke="black" points="796.5,-168.85 793,-158.85 789.5,-168.85 796.5,-168.85"/>
</g>
<!-- c_0_50 -->
<g id="node3" class="node">
<title>c_0_50</title>
<g id="a_node3"><a xlink:href="c_0_50.html" xlink:title="{X₁ = Ø|function(sk₁₀(X₁))}" target="_parent">
<polygon fill="#f8edd1" stroke="#7f7542" points="1420.5,-39 1420.5,-69 1541.5,-69 1541.5,-39 1420.5,-39"/>
<text text-anchor="middle" x="1481" y="-57.8" font-family="Times,serif" font-size="14.00">X₁ = Ø</text>
<polyline fill="none" stroke="#7f7542" points="1420.5,-54 1541.5,-54 "/>
<text text-anchor="middle" x="1481" y="-42.8" font-family="Times,serif" font-size="14.00">function(sk₁₀(X₁))</text>
</a>
</g>
</g>
<!-- c_0_49&#45;&gt;c_0_50 -->
<g id="edge2" class="edge">
<title>c_0_49&#45;&gt;c_0_50</title>
<path fill="none" stroke="black" stroke-dasharray="5,2" d="M852.25,-151C1019.14,-151 1481,-151 1481,-151 1481,-151 1481,-79.16 1481,-79.16"/>
<polygon fill="black" stroke="black" points="1484.5,-79.16 1481,-69.16 1477.5,-79.16 1484.5,-79.16"/>
</g>
<!-- c_0_73 -->
<g id="node4" class="node">
<title>c_0_73</title>
<g id="a_node4"><a xlink:href="c_0_73.html" xlink:title="{X₂ = proj₂(sk₁₀(X₁))|X₃ ∈ X₂|⇊|&amp;lt;sk₂(sk₁₀(X₁),X₂,X₃)&amp;gt; = X₃|X₁ = Ø}" target="_parent">
<polygon fill="#f8edd1" stroke="#7f7542" points="1219.5,-16.5 1219.5,-91.5 1402.5,-91.5 1402.5,-16.5 1219.5,-16.5"/>
<text text-anchor="middle" x="1311" y="-80.3" font-family="Times,serif" font-size="14.00">X₂ = proj₂(sk₁₀(X₁))</text>
<polyline fill="none" stroke="#7f7542" points="1219.5,-76.5 1402.5,-76.5 "/>
<text text-anchor="middle" x="1311" y="-65.3" font-family="Times,serif" font-size="14.00">X₃ ∈ X₂</text>
<polyline fill="none" stroke="#7f7542" points="1219.5,-61.5 1402.5,-61.5 "/>
<text text-anchor="middle" x="1311" y="-50.3" font-family="Times,serif" font-size="14.00">⇊</text>
<polyline fill="none" stroke="#7f7542" points="1219.5,-46.5 1402.5,-46.5 "/>
<text text-anchor="middle" x="1311" y="-35.3" font-family="Times,serif" font-size="14.00">&lt;sk₂(sk₁₀(X₁),X₂,X₃)&gt; = X₃</text>
<polyline fill="none" stroke="#7f7542" points="1219.5,-31.5 1402.5,-31.5 "/>
<text text-anchor="middle" x="1311" y="-20.3" font-family="Times,serif" font-size="14.00">X₁ = Ø</text>
</a>
</g>
</g>
<!-- c_0_49&#45;&gt;c_0_73 -->
<g id="edge3" class="edge">
<title>c_0_49&#45;&gt;c_0_73</title>
<path fill="none" stroke="black" stroke-dasharray="5,2" d="M852.17,-143C988.08,-143 1311,-143 1311,-143 1311,-143 1311,-101.74 1311,-101.74"/>
<polygon fill="black" stroke="black" points="1314.5,-101.74 1311,-91.74 1307.5,-101.74 1314.5,-101.74"/>
</g>
<!-- c_0_66 -->
<g id="node5" class="node">
<title>c_0_66</title>
<g id="a_node5"><a xlink:href="c_0_66.html" xlink:title="{X₁ = sk₁₀(X₃)(X₄)|X₂ = proj₂(sk₁₀(X₃))|X₄ ∈ X₃|⇊|X₁ ∈ X₂}" target="_parent">
<polygon fill="#f8edd1" stroke="#7f7542" points="1068.5,-16.5 1068.5,-91.5 1201.5,-91.5 1201.5,-16.5 1068.5,-16.5"/>
<text text-anchor="middle" x="1135" y="-80.3" font-family="Times,serif" font-size="14.00">X₁ = sk₁₀(X₃)(X₄)</text>
<polyline fill="none" stroke="#7f7542" points="1068.5,-76.5 1201.5,-76.5 "/>
<text text-anchor="middle" x="1135" y="-65.3" font-family="Times,serif" font-size="14.00">X₂ = proj₂(sk₁₀(X₃))</text>
<polyline fill="none" stroke="#7f7542" points="1068.5,-61.5 1201.5,-61.5 "/>
<text text-anchor="middle" x="1135" y="-50.3" font-family="Times,serif" font-size="14.00">X₄ ∈ X₃</text>
<polyline fill="none" stroke="#7f7542" points="1068.5,-46.5 1201.5,-46.5 "/>
<text text-anchor="middle" x="1135" y="-35.3" font-family="Times,serif" font-size="14.00">⇊</text>
<polyline fill="none" stroke="#7f7542" points="1068.5,-31.5 1201.5,-31.5 "/>
<text text-anchor="middle" x="1135" y="-20.3" font-family="Times,serif" font-size="14.00">X₁ ∈ X₂</text>
</a>
</g>
</g>
<!-- c_0_49&#45;&gt;c_0_66 -->
<g id="edge4" class="edge">
<title>c_0_49&#45;&gt;c_0_66</title>
<path fill="none" stroke="black" stroke-dasharray="5,2" d="M822.5,-128.33C822.5,-111.9 822.5,-88 822.5,-88 822.5,-88 1058.34,-88 1058.34,-88"/>
<polygon fill="black" stroke="black" points="1058.34,-91.5 1068.34,-88 1058.34,-84.5 1058.34,-91.5"/>
</g>
<!-- c_0_107 -->
<g id="node6" class="node">
<title>c_0_107</title>
<g id="a_node6"><a xlink:href="c_0_107.html" xlink:title="{X₁ = Ø|function(sk₁₀(X₁))|sk₇(sk₁₀(X₁)) ∈ X₁}" target="_parent">
<polygon fill="#f8edd1" stroke="#7f7542" points="929.5,-31.5 929.5,-76.5 1050.5,-76.5 1050.5,-31.5 929.5,-31.5"/>
<text text-anchor="middle" x="990" y="-65.3" font-family="Times,serif" font-size="14.00">X₁ = Ø</text>
<polyline fill="none" stroke="#7f7542" points="929.5,-61.5 1050.5,-61.5 "/>
<text text-anchor="middle" x="990" y="-50.3" font-family="Times,serif" font-size="14.00">function(sk₁₀(X₁))</text>
<polyline fill="none" stroke="#7f7542" points="929.5,-46.5 1050.5,-46.5 "/>
<text text-anchor="middle" x="990" y="-35.3" font-family="Times,serif" font-size="14.00">sk₇(sk₁₀(X₁)) ∈ X₁</text>
</a>
</g>
</g>
<!-- c_0_49&#45;&gt;c_0_107 -->
<g id="edge5" class="edge">
<title>c_0_49&#45;&gt;c_0_107</title>
<path fill="none" stroke="black" stroke-dasharray="5,2" d="M852.11,-135C910.13,-135 990,-135 990,-135 990,-135 990,-86.56 990,-86.56"/>
<polygon fill="black" stroke="black" points="993.5,-86.56 990,-76.56 986.5,-86.56 993.5,-86.56"/>
</g>
<!-- c_0_115 -->
<g id="node7" class="node">
<title>c_0_115</title>
<g id="a_node7"><a xlink:href="c_0_115.html" xlink:title="{&amp;lt;sk₇(sk₁₀(X₁))&amp;gt; = &amp;lt;sk₆(sk₁₀(X₁))&amp;gt;|X₁ = Ø|function(sk₁₀(X₁))}" target="_parent">
<polygon fill="#f8edd1" stroke="#7f7542" points="675,-31.5 675,-76.5 911,-76.5 911,-31.5 675,-31.5"/>
<text text-anchor="middle" x="793" y="-65.3" font-family="Times,serif" font-size="14.00">&lt;sk₇(sk₁₀(X₁))&gt; = &lt;sk₆(sk₁₀(X₁))&gt;</text>
<polyline fill="none" stroke="#7f7542" points="675,-61.5 911,-61.5 "/>
<text text-anchor="middle" x="793" y="-50.3" font-family="Times,serif" font-size="14.00">X₁ = Ø</text>
<polyline fill="none" stroke="#7f7542" points="675,-46.5 911,-46.5 "/>
<text text-anchor="middle" x="793" y="-35.3" font-family="Times,serif" font-size="14.00">function(sk₁₀(X₁))</text>
</a>
</g>
</g>
<!-- c_0_49&#45;&gt;c_0_115 -->
<g id="edge6" class="edge">
<title>c_0_49&#45;&gt;c_0_115</title>
<path fill="none" stroke="black" stroke-dasharray="5,2" d="M793,-128.32C793,-128.32 793,-86.66 793,-86.66"/>
<polygon fill="black" stroke="black" points="796.5,-86.66 793,-76.66 789.5,-86.66 796.5,-86.66"/>
</g>
<!-- c_0_124 -->
<g id="node8" class="node">
<title>c_0_124</title>
<g id="a_node8"><a xlink:href="c_0_124.html" xlink:title="{function(sk₁₀(X₁))|⇊|X₁ = Ø|\|proj₂(sk₁₀(X₁))\| = \|X₁\|}" target="_parent">
<polygon fill="#f8edd1" stroke="#7f7542" points="505.5,-24 505.5,-84 656.5,-84 656.5,-24 505.5,-24"/>
<text text-anchor="middle" x="581" y="-72.8" font-family="Times,serif" font-size="14.00">function(sk₁₀(X₁))</text>
<polyline fill="none" stroke="#7f7542" points="505.5,-69 656.5,-69 "/>
<text text-anchor="middle" x="581" y="-57.8" font-family="Times,serif" font-size="14.00">⇊</text>
<polyline fill="none" stroke="#7f7542" points="505.5,-54 656.5,-54 "/>
<text text-anchor="middle" x="581" y="-42.8" font-family="Times,serif" font-size="14.00">X₁ = Ø</text>
<polyline fill="none" stroke="#7f7542" points="505.5,-39 656.5,-39 "/>
<text text-anchor="middle" x="581" y="-27.8" font-family="Times,serif" font-size="14.00">|proj₂(sk₁₀(X₁))| = |X₁|</text>
</a>
</g>
</g>
<!-- c_0_49&#45;&gt;c_0_124 -->
<g id="edge7" class="edge">
<title>c_0_49&#45;&gt;c_0_124</title>
<path fill="none" stroke="black" stroke-dasharray="5,2" d="M763.5,-128.45C763.5,-109.67 763.5,-80 763.5,-80 763.5,-80 666.55,-80 666.55,-80"/>
<polygon fill="black" stroke="black" points="666.55,-76.5 656.55,-80 666.55,-83.5 666.55,-76.5"/>
</g>
<!-- c_0_81 -->
<g id="node9" class="node">
<title>c_0_81</title>
<g id="a_node9"><a xlink:href="c_0_81.html" xlink:title="{X₂ = proj₂(sk₁₀(X₁))|X₃ ∈ X₂|⇊|X₁ = Ø|sk₂(sk₁₀(X₁),X₂,X₃) ∈ X₁}" target="_parent">
<polygon fill="#f8edd1" stroke="#7f7542" points="330.5,-16.5 330.5,-91.5 487.5,-91.5 487.5,-16.5 330.5,-16.5"/>
<text text-anchor="middle" x="409" y="-80.3" font-family="Times,serif" font-size="14.00">X₂ = proj₂(sk₁₀(X₁))</text>
<polyline fill="none" stroke="#7f7542" points="330.5,-76.5 487.5,-76.5 "/>
<text text-anchor="middle" x="409" y="-65.3" font-family="Times,serif" font-size="14.00">X₃ ∈ X₂</text>
<polyline fill="none" stroke="#7f7542" points="330.5,-61.5 487.5,-61.5 "/>
<text text-anchor="middle" x="409" y="-50.3" font-family="Times,serif" font-size="14.00">⇊</text>
<polyline fill="none" stroke="#7f7542" points="330.5,-46.5 487.5,-46.5 "/>
<text text-anchor="middle" x="409" y="-35.3" font-family="Times,serif" font-size="14.00">X₁ = Ø</text>
<polyline fill="none" stroke="#7f7542" points="330.5,-31.5 487.5,-31.5 "/>
<text text-anchor="middle" x="409" y="-20.3" font-family="Times,serif" font-size="14.00">sk₂(sk₁₀(X₁),X₂,X₃) ∈ X₁</text>
</a>
</g>
</g>
<!-- c_0_49&#45;&gt;c_0_81 -->
<g id="edge8" class="edge">
<title>c_0_49&#45;&gt;c_0_81</title>
<path fill="none" stroke="black" stroke-dasharray="5,2" d="M733.84,-135C626.13,-135 409,-135 409,-135 409,-135 409,-101.65 409,-101.65"/>
<polygon fill="black" stroke="black" points="412.5,-101.65 409,-91.65 405.5,-101.65 412.5,-101.65"/>
</g>
<!-- c_0_64 -->
<g id="node10" class="node">
<title>c_0_64</title>
<g id="a_node10"><a xlink:href="c_0_64.html" xlink:title="{X₂ = proj₂(sk₁₀(X₁))|X₃ ∈ X₂|⇊|X₁ = Ø|sk₂(sk₁₀(X₁),X₂,X₃) ∈ X₁}" target="_parent">
<polygon fill="#f8edd1" stroke="#7f7542" points="155.5,-16.5 155.5,-91.5 312.5,-91.5 312.5,-16.5 155.5,-16.5"/>
<text text-anchor="middle" x="234" y="-80.3" font-family="Times,serif" font-size="14.00">X₂ = proj₂(sk₁₀(X₁))</text>
<polyline fill="none" stroke="#7f7542" points="155.5,-76.5 312.5,-76.5 "/>
<text text-anchor="middle" x="234" y="-65.3" font-family="Times,serif" font-size="14.00">X₃ ∈ X₂</text>
<polyline fill="none" stroke="#7f7542" points="155.5,-61.5 312.5,-61.5 "/>
<text text-anchor="middle" x="234" y="-50.3" font-family="Times,serif" font-size="14.00">⇊</text>
<polyline fill="none" stroke="#7f7542" points="155.5,-46.5 312.5,-46.5 "/>
<text text-anchor="middle" x="234" y="-35.3" font-family="Times,serif" font-size="14.00">X₁ = Ø</text>
<polyline fill="none" stroke="#7f7542" points="155.5,-31.5 312.5,-31.5 "/>
<text text-anchor="middle" x="234" y="-20.3" font-family="Times,serif" font-size="14.00">sk₂(sk₁₀(X₁),X₂,X₃) ∈ X₁</text>
</a>
</g>
</g>
<!-- c_0_49&#45;&gt;c_0_64 -->
<g id="edge9" class="edge">
<title>c_0_49&#45;&gt;c_0_64</title>
<path fill="none" stroke="black" stroke-dasharray="5,2" d="M733.97,-143C590.28,-143 234,-143 234,-143 234,-143 234,-101.74 234,-101.74"/>
<polygon fill="black" stroke="black" points="237.5,-101.74 234,-91.74 230.5,-101.74 237.5,-101.74"/>
</g>
<!-- c_0_108 -->
<g id="node11" class="node">
<title>c_0_108</title>
<g id="a_node11"><a xlink:href="c_0_108.html" xlink:title="{X₁ = Ø|function(sk₁₀(X₁))|sk₆(sk₁₀(X₁)) ∈ X₁}" target="_parent">
<polygon fill="#f8edd1" stroke="#7f7542" points="16.5,-31.5 16.5,-76.5 137.5,-76.5 137.5,-31.5 16.5,-31.5"/>
<text text-anchor="middle" x="77" y="-65.3" font-family="Times,serif" font-size="14.00">X₁ = Ø</text>
<polyline fill="none" stroke="#7f7542" points="16.5,-61.5 137.5,-61.5 "/>
<text text-anchor="middle" x="77" y="-50.3" font-family="Times,serif" font-size="14.00">function(sk₁₀(X₁))</text>
<polyline fill="none" stroke="#7f7542" points="16.5,-46.5 137.5,-46.5 "/>
<text text-anchor="middle" x="77" y="-35.3" font-family="Times,serif" font-size="14.00">sk₆(sk₁₀(X₁)) ∈ X₁</text>
</a>
</g>
</g>
<!-- c_0_49&#45;&gt;c_0_108 -->
<g id="edge10" class="edge">
<title>c_0_49&#45;&gt;c_0_108</title>
<path fill="none" stroke="black" stroke-dasharray="5,2" d="M733.8,-151C562.25,-151 77,-151 77,-151 77,-151 77,-86.99 77,-86.99"/>
<polygon fill="black" stroke="black" points="80.5,-86.99 77,-76.99 73.5,-86.99 80.5,-86.99"/>
</g>
</g>
</svg>
