<?xml version="1.0" encoding="UTF-8" standalone="no"?>
<!DOCTYPE svg PUBLIC "-//W3C//DTD SVG 1.1//EN"
 "http://www.w3.org/Graphics/SVG/1.1/DTD/svg11.dtd">
<!-- Generated by graphviz version 5.0.0 (0)
 -->
<!-- Title: proof Pages: 1 -->
<svg width="507pt" height="250pt"
 viewBox="0.00 0.00 507.00 250.00" xmlns="http://www.w3.org/2000/svg" xmlns:xlink="http://www.w3.org/1999/xlink">
<g id="graph0" class="graph" transform="scale(1 1) rotate(0) translate(4 246)">
<title>proof</title>
<g id="clust1" class="cluster">
<title>cluster_0</title>
<polygon fill="transparent" stroke="black" stroke-dasharray="1,5" points="131,-202 131,-234 319,-234 319,-202 131,-202"/>
</g>
<g id="clust2" class="cluster">
<title>cluster_1</title>
<polygon fill="transparent" stroke="black" stroke-width="2" points="129,-105 129,-182 321,-182 321,-105 129,-105"/>
</g>
<g id="clust3" class="cluster">
<title>cluster_2</title>
<polygon fill="transparent" stroke="black" stroke-dasharray="1,5" points="8,-8 8,-85 491,-85 491,-8 8,-8"/>
</g>
<!-- fraenkel_a_1_0_finseq_2 -->
<g id="node1" class="node">
<title>fraenkel_a_1_0_finseq_2</title>
<g id="a_node1"><a xlink:href="fraenkel_a_1_0_finseq_2.html" xlink:title="fraenkel_a_1_0_finseq_2" target="_parent">
<polygon fill="#69d2e7" stroke="#7f7542" points="139.5,-210.5 139.5,-225.5 310.5,-225.5 310.5,-210.5 139.5,-210.5"/>
<text text-anchor="middle" x="225" y="-214.3" font-family="Times,serif" font-size="14.00">fraenkel_a_1_0_finseq_2</text>
</a>
</g>
</g>
<!-- c_0_40 -->
<g id="node2" class="node">
<title>c_0_40</title>
<g id="a_node2"><a xlink:href="c_0_40.html" xlink:title="{in(X₁,a_1_0_finseq_2(X₂))|⇊|X₂ = Ø|sk₁₆(X₁,X₂) ∈ X₂}" target="_parent">
<polygon fill="#f8edd1" stroke="#7f7542" points="137.5,-113.5 137.5,-173.5 312.5,-173.5 312.5,-113.5 137.5,-113.5"/>
<text text-anchor="middle" x="225" y="-162.3" font-family="Times,serif" font-size="14.00">in(X₁,a_1_0_finseq_2(X₂))</text>
<polyline fill="none" stroke="#7f7542" points="137.5,-158.5 312.5,-158.5 "/>
<text text-anchor="middle" x="225" y="-147.3" font-family="Times,serif" font-size="14.00">⇊</text>
<polyline fill="none" stroke="#7f7542" points="137.5,-143.5 312.5,-143.5 "/>
<text text-anchor="middle" x="225" y="-132.3" font-family="Times,serif" font-size="14.00">X₂ = Ø</text>
<polyline fill="none" stroke="#7f7542" points="137.5,-128.5 312.5,-128.5 "/>
<text text-anchor="middle" x="225" y="-117.3" font-family="Times,serif" font-size="14.00">sk₁₆(X₁,X₂) ∈ X₂</text>
</a>
</g>
</g>
<!-- fraenkel_a_1_0_finseq_2&#45;&gt;c_0_40 -->
<g id="edge1" class="edge">
<title>fraenkel_a_1_0_finseq_2&#45;&gt;c_0_40</title>
<path fill="none" stroke="black" d="M225,-210.31C225,-210.31 225,-183.51 225,-183.51"/>
<polygon fill="black" stroke="black" points="228.5,-183.51 225,-173.51 221.5,-183.51 228.5,-183.51"/>
</g>
<!-- c_0_70 -->
<g id="node3" class="node">
<title>c_0_70</title>
<g id="a_node3"><a xlink:href="c_0_70.html" xlink:title="{X₁ = Ø|a_1_0_finseq_2(X₁) c= X₂|sk₁₆(sk₅(a_1_0_finseq_2(X₁),X₂),X₁) ∈ X₁}" target="_parent">
<polygon fill="#f8edd1" stroke="#7f7542" points="209.5,-24 209.5,-69 482.5,-69 482.5,-24 209.5,-24"/>
<text text-anchor="middle" x="346" y="-57.8" font-family="Times,serif" font-size="14.00">X₁ = Ø</text>
<polyline fill="none" stroke="#7f7542" points="209.5,-54 482.5,-54 "/>
<text text-anchor="middle" x="346" y="-42.8" font-family="Times,serif" font-size="14.00">a_1_0_finseq_2(X₁) c= X₂</text>
<polyline fill="none" stroke="#7f7542" points="209.5,-39 482.5,-39 "/>
<text text-anchor="middle" x="346" y="-27.8" font-family="Times,serif" font-size="14.00">sk₁₆(sk₅(a_1_0_finseq_2(X₁),X₂),X₁) ∈ X₁</text>
</a>
</g>
</g>
<!-- c_0_40&#45;&gt;c_0_70 -->
<g id="edge2" class="edge">
<title>c_0_40&#45;&gt;c_0_70</title>
<path fill="none" stroke="black" stroke-dasharray="5,2" d="M261,-113.34C261,-113.34 261,-79.24 261,-79.24"/>
<polygon fill="black" stroke="black" points="264.5,-79.24 261,-69.24 257.5,-79.24 264.5,-79.24"/>
</g>
<!-- c_0_59 -->
<g id="node4" class="node">
<title>c_0_59</title>
<g id="a_node4"><a xlink:href="c_0_59.html" xlink:title="{in(X₁,a_1_0_finseq_2(X₂))|⇊| &amp;lt;*..*&amp;gt; sk₁₆(X₁,X₂) = X₁|X₂ = Ø}" target="_parent">
<polygon fill="#f8edd1" stroke="#7f7542" points="16.5,-16.5 16.5,-76.5 191.5,-76.5 191.5,-16.5 16.5,-16.5"/>
<text text-anchor="middle" x="104" y="-65.3" font-family="Times,serif" font-size="14.00">in(X₁,a_1_0_finseq_2(X₂))</text>
<polyline fill="none" stroke="#7f7542" points="16.5,-61.5 191.5,-61.5 "/>
<text text-anchor="middle" x="104" y="-50.3" font-family="Times,serif" font-size="14.00">⇊</text>
<polyline fill="none" stroke="#7f7542" points="16.5,-46.5 191.5,-46.5 "/>
<text text-anchor="middle" x="104" y="-35.3" font-family="Times,serif" font-size="14.00">&lt;*..*&gt; sk₁₆(X₁,X₂) = X₁</text>
<polyline fill="none" stroke="#7f7542" points="16.5,-31.5 191.5,-31.5 "/>
<text text-anchor="middle" x="104" y="-20.3" font-family="Times,serif" font-size="14.00">X₂ = Ø</text>
</a>
</g>
</g>
<!-- c_0_40&#45;&gt;c_0_59 -->
<g id="edge3" class="edge">
<title>c_0_40&#45;&gt;c_0_59</title>
<path fill="none" stroke="black" stroke-dasharray="5,2" d="M164.5,-113.34C164.5,-113.34 164.5,-86.64 164.5,-86.64"/>
<polygon fill="black" stroke="black" points="168,-86.64 164.5,-76.64 161,-86.64 168,-86.64"/>
</g>
</g>
</svg>
