<?xml version="1.0" encoding="UTF-8" standalone="no"?>
<!DOCTYPE svg PUBLIC "-//W3C//DTD SVG 1.1//EN"
 "http://www.w3.org/Graphics/SVG/1.1/DTD/svg11.dtd">
<!-- Generated by graphviz version 5.0.0 (0)
 -->
<!-- Title: proof Pages: 1 -->
<svg width="577pt" height="310pt"
 viewBox="0.00 0.00 577.00 310.00" xmlns="http://www.w3.org/2000/svg" xmlns:xlink="http://www.w3.org/1999/xlink">
<g id="graph0" class="graph" transform="scale(1 1) rotate(0) translate(4 306)">
<title>proof</title>
<g id="clust1" class="cluster">
<title>cluster_0</title>
<polygon fill="transparent" stroke="black" stroke-dasharray="1,5" points="8,-202 8,-294 561,-294 561,-202 8,-202"/>
</g>
<g id="clust2" class="cluster">
<title>cluster_1</title>
<polygon fill="transparent" stroke="black" stroke-width="2" points="153,-120 153,-182 359,-182 359,-120 153,-120"/>
</g>
<g id="clust3" class="cluster">
<title>cluster_2</title>
<polygon fill="transparent" stroke="black" stroke-dasharray="1,5" points="135,-8 135,-100 377,-100 377,-8 135,-8"/>
</g>
<!-- c_0_86 -->
<g id="node1" class="node">
<title>c_0_86</title>
<g id="a_node1"><a xlink:href="c_0_86.html" xlink:title="{1&#45;tuples(X₁) ⊆ X₂|X₁ = Ø|\|sk₅(1&#45;tuples(X₁),X₂)\|=1}" target="_vizar">
<polygon fill="#f8edd1" stroke="#7f7542" points="387.5,-225.5 387.5,-270.5 552.5,-270.5 552.5,-225.5 387.5,-225.5"/>
<text text-anchor="middle" x="470" y="-259.3" font-family="Times,serif" font-size="14.00">1&#45;tuples(X₁) ⊆ X₂</text>
<polyline fill="none" stroke="#7f7542" points="387.5,-255.5 552.5,-255.5 "/>
<text text-anchor="middle" x="470" y="-244.3" font-family="Times,serif" font-size="14.00">X₁ = Ø</text>
<polyline fill="none" stroke="#7f7542" points="387.5,-240.5 552.5,-240.5 "/>
<text text-anchor="middle" x="470" y="-229.3" font-family="Times,serif" font-size="14.00">|sk₅(1&#45;tuples(X₁),X₂)|=1</text>
</a>
</g>
</g>
<!-- c_0_90 -->
<g id="node4" class="node">
<title>c_0_90</title>
<g id="a_node4"><a xlink:href="c_0_90.html" xlink:title="{1&#45;tuples(X₁) ⊆ X₂|X₁ = Ø|sk₅(1&#45;tuples(X₁),X₂)(1) ∈ X₁}" target="_vizar">
<polygon fill="#f8edd1" stroke="#7f7542" points="161.5,-128.5 161.5,-173.5 350.5,-173.5 350.5,-128.5 161.5,-128.5"/>
<text text-anchor="middle" x="256" y="-162.3" font-family="Times,serif" font-size="14.00">1&#45;tuples(X₁) ⊆ X₂</text>
<polyline fill="none" stroke="#7f7542" points="161.5,-158.5 350.5,-158.5 "/>
<text text-anchor="middle" x="256" y="-147.3" font-family="Times,serif" font-size="14.00">X₁ = Ø</text>
<polyline fill="none" stroke="#7f7542" points="161.5,-143.5 350.5,-143.5 "/>
<text text-anchor="middle" x="256" y="-132.3" font-family="Times,serif" font-size="14.00">sk₅(1&#45;tuples(X₁),X₂)(1) ∈ X₁</text>
</a>
</g>
</g>
<!-- c_0_86&#45;&gt;c_0_90 -->
<g id="edge1" class="edge">
<title>c_0_86&#45;&gt;c_0_90</title>
<path fill="none" stroke="black" d="M470,-225.01C470,-196.33 470,-151 470,-151 470,-151 360.8,-151 360.8,-151"/>
<polygon fill="black" stroke="black" points="360.8,-147.5 350.8,-151 360.8,-154.5 360.8,-147.5"/>
</g>
<!-- c_0_85 -->
<g id="node2" class="node">
<title>c_0_85</title>
<g id="a_node2"><a xlink:href="c_0_85.html" xlink:title="{1&#45;tuples(X₁) ⊆ X₂|X₁ = Ø|sk₅(1&#45;tuples(X₁),X₂) ∈ fin&#45;seq(X₁)}" target="_vizar">
<polygon fill="#f8edd1" stroke="#7f7542" points="142.5,-225.5 142.5,-270.5 369.5,-270.5 369.5,-225.5 142.5,-225.5"/>
<text text-anchor="middle" x="256" y="-259.3" font-family="Times,serif" font-size="14.00">1&#45;tuples(X₁) ⊆ X₂</text>
<polyline fill="none" stroke="#7f7542" points="142.5,-255.5 369.5,-255.5 "/>
<text text-anchor="middle" x="256" y="-244.3" font-family="Times,serif" font-size="14.00">X₁ = Ø</text>
<polyline fill="none" stroke="#7f7542" points="142.5,-240.5 369.5,-240.5 "/>
<text text-anchor="middle" x="256" y="-229.3" font-family="Times,serif" font-size="14.00">sk₅(1&#45;tuples(X₁),X₂) ∈ fin&#45;seq(X₁)</text>
</a>
</g>
</g>
<!-- c_0_85&#45;&gt;c_0_90 -->
<g id="edge2" class="edge">
<title>c_0_85&#45;&gt;c_0_90</title>
<path fill="none" stroke="black" d="M256,-225.01C256,-225.01 256,-183.82 256,-183.82"/>
<polygon fill="black" stroke="black" points="259.5,-183.82 256,-173.82 252.5,-183.82 259.5,-183.82"/>
</g>
<!-- c_0_84 -->
<g id="node3" class="node">
<title>c_0_84</title>
<g id="a_node3"><a xlink:href="c_0_84.html" xlink:title="{X₁ ∈ fin&#45;seq(X₂)|\|X₁\|=1|⇊|X₁(1) ∈ X₂|X₂ = Ø}" target="_vizar">
<polygon fill="#f8edd1" stroke="#7f7542" points="16,-210.5 16,-285.5 124,-285.5 124,-210.5 16,-210.5"/>
<text text-anchor="middle" x="70" y="-274.3" font-family="Times,serif" font-size="14.00">X₁ ∈ fin&#45;seq(X₂)</text>
<polyline fill="none" stroke="#7f7542" points="16,-270.5 124,-270.5 "/>
<text text-anchor="middle" x="70" y="-259.3" font-family="Times,serif" font-size="14.00">|X₁|=1</text>
<polyline fill="none" stroke="#7f7542" points="16,-255.5 124,-255.5 "/>
<text text-anchor="middle" x="70" y="-244.3" font-family="Times,serif" font-size="14.00">⇊</text>
<polyline fill="none" stroke="#7f7542" points="16,-240.5 124,-240.5 "/>
<text text-anchor="middle" x="70" y="-229.3" font-family="Times,serif" font-size="14.00">X₁(1) ∈ X₂</text>
<polyline fill="none" stroke="#7f7542" points="16,-225.5 124,-225.5 "/>
<text text-anchor="middle" x="70" y="-214.3" font-family="Times,serif" font-size="14.00">X₂ = Ø</text>
</a>
</g>
</g>
<!-- c_0_84&#45;&gt;c_0_90 -->
<g id="edge3" class="edge">
<title>c_0_84&#45;&gt;c_0_90</title>
<path fill="none" stroke="black" d="M70,-210.5C70,-183.2 70,-151 70,-151 70,-151 151.37,-151 151.37,-151"/>
<polygon fill="black" stroke="black" points="151.37,-154.5 161.37,-151 151.37,-147.5 151.37,-154.5"/>
</g>
<!-- c_0_95 -->
<g id="node5" class="node">
<title>c_0_95</title>
<g id="a_node5"><a xlink:href="c_0_95.html" xlink:title="{X₃ = &amp;lt;(sk₅(1&#45;tuples(X₁),X₂)(1))&amp;gt;|⇊|1&#45;tuples(X₁) ⊆ X₂|X₁ = Ø|X₃ ∈ proj₂(sk₁₀(X₁))}" target="_vizar">
<polygon fill="#f8edd1" stroke="#7f7542" points="143.5,-16.5 143.5,-91.5 368.5,-91.5 368.5,-16.5 143.5,-16.5"/>
<text text-anchor="middle" x="256" y="-80.3" font-family="Times,serif" font-size="14.00">X₃ = &lt;(sk₅(1&#45;tuples(X₁),X₂)(1))&gt;</text>
<polyline fill="none" stroke="#7f7542" points="143.5,-76.5 368.5,-76.5 "/>
<text text-anchor="middle" x="256" y="-65.3" font-family="Times,serif" font-size="14.00">⇊</text>
<polyline fill="none" stroke="#7f7542" points="143.5,-61.5 368.5,-61.5 "/>
<text text-anchor="middle" x="256" y="-50.3" font-family="Times,serif" font-size="14.00">1&#45;tuples(X₁) ⊆ X₂</text>
<polyline fill="none" stroke="#7f7542" points="143.5,-46.5 368.5,-46.5 "/>
<text text-anchor="middle" x="256" y="-35.3" font-family="Times,serif" font-size="14.00">X₁ = Ø</text>
<polyline fill="none" stroke="#7f7542" points="143.5,-31.5 368.5,-31.5 "/>
<text text-anchor="middle" x="256" y="-20.3" font-family="Times,serif" font-size="14.00">X₃ ∈ proj₂(sk₁₀(X₁))</text>
</a>
</g>
</g>
<!-- c_0_90&#45;&gt;c_0_95 -->
<g id="edge4" class="edge">
<title>c_0_90&#45;&gt;c_0_95</title>
<path fill="none" stroke="black" stroke-dasharray="5,2" d="M256,-128.01C256,-128.01 256,-101.61 256,-101.61"/>
<polygon fill="black" stroke="black" points="259.5,-101.61 256,-91.61 252.5,-101.61 259.5,-101.61"/>
</g>
</g>
</svg>
