<?xml version="1.0" encoding="UTF-8" standalone="no"?>
<!DOCTYPE svg PUBLIC "-//W3C//DTD SVG 1.1//EN"
 "http://www.w3.org/Graphics/SVG/1.1/DTD/svg11.dtd">
<!-- Generated by graphviz version 5.0.0 (0)
 -->
<!-- Title: proof Pages: 1 -->
<svg width="710pt" height="250pt"
 viewBox="0.00 0.00 710.00 250.00" xmlns="http://www.w3.org/2000/svg" xmlns:xlink="http://www.w3.org/1999/xlink">
<g id="graph0" class="graph" transform="scale(1 1) rotate(0) translate(4 246)">
<title>proof</title>
<g id="clust1" class="cluster">
<title>cluster_0</title>
<polygon fill="transparent" stroke="black" stroke-dasharray="1,5" points="8,-142 8,-234 694,-234 694,-142 8,-142"/>
</g>
<g id="clust2" class="cluster">
<title>cluster_1</title>
<polygon fill="transparent" stroke="black" stroke-width="2" points="301,-75 301,-122 455,-122 455,-75 301,-75"/>
</g>
<g id="clust3" class="cluster">
<title>cluster_2</title>
<polygon fill="transparent" stroke="black" stroke-dasharray="1,5" points="287,-8 287,-55 469,-55 469,-8 287,-8"/>
</g>
<!-- c_0_49 -->
<g id="node1" class="node">
<title>c_0_49</title>
<g id="a_node1"><a xlink:href="c_0_49.html" xlink:title="{Relation&#45;like(sk₈₃(X₁))|X₁ = Ø}" target="_parent">
<polygon fill="#f8edd1" stroke="#7f7542" points="534,-173 534,-203 686,-203 686,-173 534,-173"/>
<text text-anchor="middle" x="610" y="-191.8" font-family="Times,serif" font-size="14.00">Relation&#45;like(sk₈₃(X₁))</text>
<polyline fill="none" stroke="#7f7542" points="534,-188 686,-188 "/>
<text text-anchor="middle" x="610" y="-176.8" font-family="Times,serif" font-size="14.00">X₁ = Ø</text>
</a>
</g>
</g>
<!-- c_0_126 -->
<g id="node5" class="node">
<title>c_0_126</title>
<g id="a_node5"><a xlink:href="c_0_126.html" xlink:title="{X₁ = Ø|one&#45;to&#45;one(sk₈₃(X₁))}" target="_parent">
<polygon fill="#f8edd1" stroke="#7f7542" points="309.5,-83.5 309.5,-113.5 446.5,-113.5 446.5,-83.5 309.5,-83.5"/>
<text text-anchor="middle" x="378" y="-102.3" font-family="Times,serif" font-size="14.00">X₁ = Ø</text>
<polyline fill="none" stroke="#7f7542" points="309.5,-98.5 446.5,-98.5 "/>
<text text-anchor="middle" x="378" y="-87.3" font-family="Times,serif" font-size="14.00">one&#45;to&#45;one(sk₈₃(X₁))</text>
</a>
</g>
</g>
<!-- c_0_49&#45;&gt;c_0_126 -->
<g id="edge1" class="edge">
<title>c_0_49&#45;&gt;c_0_126</title>
<path fill="none" stroke="black" d="M610,-172.73C610,-147.06 610,-98 610,-98 610,-98 456.67,-98 456.67,-98"/>
<polygon fill="black" stroke="black" points="456.67,-94.5 446.67,-98 456.67,-101.5 456.67,-94.5"/>
</g>
<!-- c_0_120 -->
<g id="node2" class="node">
<title>c_0_120</title>
<g id="a_node2"><a xlink:href="c_0_120.html" xlink:title="{Function&#45;like(X₁)|Relation&#45;like(X₁)|sk₆(X₁) = sk₇(X₁)|⇊|one&#45;to&#45;one(X₁)}" target="_parent">
<polygon fill="#f8edd1" stroke="#7f7542" points="396.5,-150.5 396.5,-225.5 515.5,-225.5 515.5,-150.5 396.5,-150.5"/>
<text text-anchor="middle" x="456" y="-214.3" font-family="Times,serif" font-size="14.00">Function&#45;like(X₁)</text>
<polyline fill="none" stroke="#7f7542" points="396.5,-210.5 515.5,-210.5 "/>
<text text-anchor="middle" x="456" y="-199.3" font-family="Times,serif" font-size="14.00">Relation&#45;like(X₁)</text>
<polyline fill="none" stroke="#7f7542" points="396.5,-195.5 515.5,-195.5 "/>
<text text-anchor="middle" x="456" y="-184.3" font-family="Times,serif" font-size="14.00">sk₆(X₁) = sk₇(X₁)</text>
<polyline fill="none" stroke="#7f7542" points="396.5,-180.5 515.5,-180.5 "/>
<text text-anchor="middle" x="456" y="-169.3" font-family="Times,serif" font-size="14.00">⇊</text>
<polyline fill="none" stroke="#7f7542" points="396.5,-165.5 515.5,-165.5 "/>
<text text-anchor="middle" x="456" y="-154.3" font-family="Times,serif" font-size="14.00">one&#45;to&#45;one(X₁)</text>
</a>
</g>
</g>
<!-- c_0_120&#45;&gt;c_0_126 -->
<g id="edge2" class="edge">
<title>c_0_120&#45;&gt;c_0_126</title>
<path fill="none" stroke="black" d="M421.5,-150.3C421.5,-150.3 421.5,-123.86 421.5,-123.86"/>
<polygon fill="black" stroke="black" points="425,-123.86 421.5,-113.86 418,-123.86 425,-123.86"/>
</g>
<!-- c_0_50 -->
<g id="node3" class="node">
<title>c_0_50</title>
<g id="a_node3"><a xlink:href="c_0_50.html" xlink:title="{Function&#45;like(sk₈₃(X₁))|X₁ = Ø}" target="_parent">
<polygon fill="#f8edd1" stroke="#7f7542" points="222,-173 222,-203 378,-203 378,-173 222,-173"/>
<text text-anchor="middle" x="300" y="-191.8" font-family="Times,serif" font-size="14.00">Function&#45;like(sk₈₃(X₁))</text>
<polyline fill="none" stroke="#7f7542" points="222,-188 378,-188 "/>
<text text-anchor="middle" x="300" y="-176.8" font-family="Times,serif" font-size="14.00">X₁ = Ø</text>
</a>
</g>
</g>
<!-- c_0_50&#45;&gt;c_0_126 -->
<g id="edge3" class="edge">
<title>c_0_50&#45;&gt;c_0_126</title>
<path fill="none" stroke="black" d="M355.17,-172.82C355.17,-172.82 355.17,-123.76 355.17,-123.76"/>
<polygon fill="black" stroke="black" points="358.67,-123.76 355.17,-113.76 351.67,-123.76 358.67,-123.76"/>
</g>
<!-- c_0_121 -->
<g id="node4" class="node">
<title>c_0_121</title>
<g id="a_node4"><a xlink:href="c_0_121.html" xlink:title="{X₁ = Ø|one&#45;to&#45;one(sk₈₃(X₁))|sk₇(sk₈₃(X₁)) = sk₆(sk₈₃(X₁))}" target="_parent">
<polygon fill="#f8edd1" stroke="#7f7542" points="16,-165.5 16,-210.5 204,-210.5 204,-165.5 16,-165.5"/>
<text text-anchor="middle" x="110" y="-199.3" font-family="Times,serif" font-size="14.00">X₁ = Ø</text>
<polyline fill="none" stroke="#7f7542" points="16,-195.5 204,-195.5 "/>
<text text-anchor="middle" x="110" y="-184.3" font-family="Times,serif" font-size="14.00">one&#45;to&#45;one(sk₈₃(X₁))</text>
<polyline fill="none" stroke="#7f7542" points="16,-180.5 204,-180.5 "/>
<text text-anchor="middle" x="110" y="-169.3" font-family="Times,serif" font-size="14.00">sk₇(sk₈₃(X₁)) = sk₆(sk₈₃(X₁))</text>
</a>
</g>
</g>
<!-- c_0_121&#45;&gt;c_0_126 -->
<g id="edge4" class="edge">
<title>c_0_121&#45;&gt;c_0_126</title>
<path fill="none" stroke="black" d="M204.29,-168C264.89,-168 332.33,-168 332.33,-168 332.33,-168 332.33,-123.58 332.33,-123.58"/>
<polygon fill="black" stroke="black" points="335.83,-123.58 332.33,-113.58 328.83,-123.58 335.83,-123.58"/>
</g>
<!-- c_0_128 -->
<g id="node6" class="node">
<title>c_0_128</title>
<g id="a_node6"><a xlink:href="c_0_128.html" xlink:title="{X₁ = Ø|\|&#45;tuples_on(1,X₁)\| = \|X₁\|}" target="_parent">
<polygon fill="#f8edd1" stroke="#7f7542" points="295,-16.5 295,-46.5 461,-46.5 461,-16.5 295,-16.5"/>
<text text-anchor="middle" x="378" y="-35.3" font-family="Times,serif" font-size="14.00">X₁ = Ø</text>
<polyline fill="none" stroke="#7f7542" points="295,-31.5 461,-31.5 "/>
<text text-anchor="middle" x="378" y="-20.3" font-family="Times,serif" font-size="14.00">|&#45;tuples_on(1,X₁)| = |X₁|</text>
</a>
</g>
</g>
<!-- c_0_126&#45;&gt;c_0_128 -->
<g id="edge5" class="edge">
<title>c_0_126&#45;&gt;c_0_128</title>
<path fill="none" stroke="black" stroke-dasharray="5,2" d="M378,-83.3C378,-83.3 378,-56.64 378,-56.64"/>
<polygon fill="black" stroke="black" points="381.5,-56.64 378,-46.64 374.5,-56.64 381.5,-56.64"/>
</g>
</g>
</svg>
