<?xml version="1.0" encoding="UTF-8" standalone="no"?>
<!DOCTYPE svg PUBLIC "-//W3C//DTD SVG 1.1//EN"
 "http://www.w3.org/Graphics/SVG/1.1/DTD/svg11.dtd">
<!-- Generated by graphviz version 5.0.0 (0)
 -->
<!-- Title: proof Pages: 1 -->
<svg width="578pt" height="310pt"
 viewBox="0.00 0.00 578.00 310.00" xmlns="http://www.w3.org/2000/svg" xmlns:xlink="http://www.w3.org/1999/xlink">
<g id="graph0" class="graph" transform="scale(1 1) rotate(0) translate(4 306)">
<title>proof</title>
<g id="clust1" class="cluster">
<title>cluster_0</title>
<polygon fill="transparent" stroke="black" stroke-dasharray="1,5" points="8,-202 8,-294 562,-294 562,-202 8,-202"/>
</g>
<g id="clust2" class="cluster">
<title>cluster_1</title>
<polygon fill="transparent" stroke="black" stroke-width="2" points="213,-120 213,-182 419,-182 419,-120 213,-120"/>
</g>
<g id="clust3" class="cluster">
<title>cluster_2</title>
<polygon fill="transparent" stroke="black" stroke-dasharray="1,5" points="195,-8 195,-100 437,-100 437,-8 195,-8"/>
</g>
<!-- c_0_86 -->
<g id="node1" class="node">
<title>c_0_86</title>
<g id="a_node1"><a xlink:href="c_0_86.html" xlink:title="{1&#45;tuples(X₁) ⊆ X₂|X₁ = Ø|\|sk₅(1&#45;tuples(X₁),X₂)\|=1}" target="_vizar">
<polygon fill="#f8edd1" stroke="#7f7542" points="388.5,-225.5 388.5,-270.5 553.5,-270.5 553.5,-225.5 388.5,-225.5"/>
<text text-anchor="middle" x="471" y="-259.3" font-family="Times,serif" font-size="14.00">1&#45;tuples(X₁) ⊆ X₂</text>
<polyline fill="none" stroke="#7f7542" points="388.5,-255.5 553.5,-255.5 "/>
<text text-anchor="middle" x="471" y="-244.3" font-family="Times,serif" font-size="14.00">X₁ = Ø</text>
<polyline fill="none" stroke="#7f7542" points="388.5,-240.5 553.5,-240.5 "/>
<text text-anchor="middle" x="471" y="-229.3" font-family="Times,serif" font-size="14.00">|sk₅(1&#45;tuples(X₁),X₂)|=1</text>
</a>
</g>
</g>
<!-- c_0_90 -->
<g id="node4" class="node">
<title>c_0_90</title>
<g id="a_node4"><a xlink:href="c_0_90.html" xlink:title="{1&#45;tuples(X₁) ⊆ X₂|X₁ = Ø|sk₅(1&#45;tuples(X₁),X₂)(1) ∈ X₁}" target="_vizar">
<polygon fill="#f8edd1" stroke="#7f7542" points="221.5,-128.5 221.5,-173.5 410.5,-173.5 410.5,-128.5 221.5,-128.5"/>
<text text-anchor="middle" x="316" y="-162.3" font-family="Times,serif" font-size="14.00">1&#45;tuples(X₁) ⊆ X₂</text>
<polyline fill="none" stroke="#7f7542" points="221.5,-158.5 410.5,-158.5 "/>
<text text-anchor="middle" x="316" y="-147.3" font-family="Times,serif" font-size="14.00">X₁ = Ø</text>
<polyline fill="none" stroke="#7f7542" points="221.5,-143.5 410.5,-143.5 "/>
<text text-anchor="middle" x="316" y="-132.3" font-family="Times,serif" font-size="14.00">sk₅(1&#45;tuples(X₁),X₂)(1) ∈ X₁</text>
</a>
</g>
</g>
<!-- c_0_86&#45;&gt;c_0_90 -->
<g id="edge1" class="edge">
<title>c_0_86&#45;&gt;c_0_90</title>
<path fill="none" stroke="black" d="M399.5,-225.01C399.5,-225.01 399.5,-183.82 399.5,-183.82"/>
<polygon fill="black" stroke="black" points="403,-183.82 399.5,-173.82 396,-183.82 403,-183.82"/>
</g>
<!-- c_0_84 -->
<g id="node2" class="node">
<title>c_0_84</title>
<g id="a_node2"><a xlink:href="c_0_84.html" xlink:title="{X₁ ∈ fin&#45;seq(X₂)|\|X₁\|=1|⇊|X₁(1) ∈ X₂|X₂ = Ø}" target="_vizar">
<polygon fill="#f8edd1" stroke="#7f7542" points="262,-210.5 262,-285.5 370,-285.5 370,-210.5 262,-210.5"/>
<text text-anchor="middle" x="316" y="-274.3" font-family="Times,serif" font-size="14.00">X₁ ∈ fin&#45;seq(X₂)</text>
<polyline fill="none" stroke="#7f7542" points="262,-270.5 370,-270.5 "/>
<text text-anchor="middle" x="316" y="-259.3" font-family="Times,serif" font-size="14.00">|X₁|=1</text>
<polyline fill="none" stroke="#7f7542" points="262,-255.5 370,-255.5 "/>
<text text-anchor="middle" x="316" y="-244.3" font-family="Times,serif" font-size="14.00">⇊</text>
<polyline fill="none" stroke="#7f7542" points="262,-240.5 370,-240.5 "/>
<text text-anchor="middle" x="316" y="-229.3" font-family="Times,serif" font-size="14.00">X₁(1) ∈ X₂</text>
<polyline fill="none" stroke="#7f7542" points="262,-225.5 370,-225.5 "/>
<text text-anchor="middle" x="316" y="-214.3" font-family="Times,serif" font-size="14.00">X₂ = Ø</text>
</a>
</g>
</g>
<!-- c_0_84&#45;&gt;c_0_90 -->
<g id="edge2" class="edge">
<title>c_0_84&#45;&gt;c_0_90</title>
<path fill="none" stroke="black" d="M316,-210.5C316,-210.5 316,-183.54 316,-183.54"/>
<polygon fill="black" stroke="black" points="319.5,-183.54 316,-173.54 312.5,-183.54 319.5,-183.54"/>
</g>
<!-- c_0_85 -->
<g id="node3" class="node">
<title>c_0_85</title>
<g id="a_node3"><a xlink:href="c_0_85.html" xlink:title="{1&#45;tuples(X₁) ⊆ X₂|X₁ = Ø|sk₅(1&#45;tuples(X₁),X₂) ∈ fin&#45;seq(X₁)}" target="_vizar">
<polygon fill="#f8edd1" stroke="#7f7542" points="16.5,-225.5 16.5,-270.5 243.5,-270.5 243.5,-225.5 16.5,-225.5"/>
<text text-anchor="middle" x="130" y="-259.3" font-family="Times,serif" font-size="14.00">1&#45;tuples(X₁) ⊆ X₂</text>
<polyline fill="none" stroke="#7f7542" points="16.5,-255.5 243.5,-255.5 "/>
<text text-anchor="middle" x="130" y="-244.3" font-family="Times,serif" font-size="14.00">X₁ = Ø</text>
<polyline fill="none" stroke="#7f7542" points="16.5,-240.5 243.5,-240.5 "/>
<text text-anchor="middle" x="130" y="-229.3" font-family="Times,serif" font-size="14.00">sk₅(1&#45;tuples(X₁),X₂) ∈ fin&#45;seq(X₁)</text>
</a>
</g>
</g>
<!-- c_0_85&#45;&gt;c_0_90 -->
<g id="edge3" class="edge">
<title>c_0_85&#45;&gt;c_0_90</title>
<path fill="none" stroke="black" d="M232.5,-225.01C232.5,-225.01 232.5,-183.82 232.5,-183.82"/>
<polygon fill="black" stroke="black" points="236,-183.82 232.5,-173.82 229,-183.82 236,-183.82"/>
</g>
<!-- c_0_95 -->
<g id="node5" class="node">
<title>c_0_95</title>
<g id="a_node5"><a xlink:href="c_0_95.html" xlink:title="{X₃ = &amp;lt;(sk₅(1&#45;tuples(X₁),X₂)(1))&amp;gt;|⇊|1&#45;tuples(X₁) ⊆ X₂|X₁ = Ø|X₃ ∈ proj₂(sk₁₀(X₁))}" target="_vizar">
<polygon fill="#f8edd1" stroke="#7f7542" points="203.5,-16.5 203.5,-91.5 428.5,-91.5 428.5,-16.5 203.5,-16.5"/>
<text text-anchor="middle" x="316" y="-80.3" font-family="Times,serif" font-size="14.00">X₃ = &lt;(sk₅(1&#45;tuples(X₁),X₂)(1))&gt;</text>
<polyline fill="none" stroke="#7f7542" points="203.5,-76.5 428.5,-76.5 "/>
<text text-anchor="middle" x="316" y="-65.3" font-family="Times,serif" font-size="14.00">⇊</text>
<polyline fill="none" stroke="#7f7542" points="203.5,-61.5 428.5,-61.5 "/>
<text text-anchor="middle" x="316" y="-50.3" font-family="Times,serif" font-size="14.00">1&#45;tuples(X₁) ⊆ X₂</text>
<polyline fill="none" stroke="#7f7542" points="203.5,-46.5 428.5,-46.5 "/>
<text text-anchor="middle" x="316" y="-35.3" font-family="Times,serif" font-size="14.00">X₁ = Ø</text>
<polyline fill="none" stroke="#7f7542" points="203.5,-31.5 428.5,-31.5 "/>
<text text-anchor="middle" x="316" y="-20.3" font-family="Times,serif" font-size="14.00">X₃ ∈ proj₂(sk₁₀(X₁))</text>
</a>
</g>
</g>
<!-- c_0_90&#45;&gt;c_0_95 -->
<g id="edge4" class="edge">
<title>c_0_90&#45;&gt;c_0_95</title>
<path fill="none" stroke="black" stroke-dasharray="5,2" d="M316,-128.01C316,-128.01 316,-101.61 316,-101.61"/>
<polygon fill="black" stroke="black" points="319.5,-101.61 316,-91.61 312.5,-101.61 319.5,-101.61"/>
</g>
</g>
</svg>
