<?xml version="1.0" encoding="UTF-8" standalone="no"?>
<!DOCTYPE svg PUBLIC "-//W3C//DTD SVG 1.1//EN"
 "http://www.w3.org/Graphics/SVG/1.1/DTD/svg11.dtd">
<!-- Generated by graphviz version 5.0.0 (0)
 -->
<!-- Title: proof Pages: 1 -->
<svg width="418pt" height="123pt"
 viewBox="0.00 0.00 418.00 123.00" xmlns="http://www.w3.org/2000/svg" xmlns:xlink="http://www.w3.org/1999/xlink">
<g id="graph0" class="graph" transform="scale(1 1) rotate(0) translate(4 119)">
<title>proof</title>
<g id="clust1" class="cluster">
<title>cluster_0</title>
<polygon fill="transparent" stroke="black" stroke-dasharray="1,5" points="8,-60 8,-107 402,-107 402,-60 8,-60"/>
</g>
<g id="clust2" class="cluster">
<title>cluster_1</title>
<polygon fill="transparent" stroke="black" stroke-width="2" points="238,-8 238,-40 268,-40 268,-8 238,-8"/>
</g>
<!-- c_0_129 -->
<g id="node1" class="node">
<title>c_0_129</title>
<g id="a_node1"><a xlink:href="c_0_129.html" xlink:title="{sk₁ ≠ Ø}" target="_vizar">
<polygon fill="#fa6900" stroke="#7f7542" points="340,-76 340,-91 394,-91 394,-76 340,-76"/>
<text text-anchor="middle" x="367" y="-79.8" font-family="Times,serif" font-size="14.00">sk₁ ≠ Ø</text>
</a>
</g>
</g>
<!-- c_0_130 -->
<g id="node4" class="node">
<title>c_0_130</title>
<g id="a_node4"><a xlink:href="c_0_130.html" xlink:title="⊥" target="_vizar">
<polygon fill="#fa6900" stroke="#7f7542" points="246,-16.5 246,-31.5 260,-31.5 260,-16.5 246,-16.5"/>
<text text-anchor="middle" x="253" y="-20.3" font-family="Times,serif" font-size="14.00">⊥</text>
</a>
</g>
</g>
<!-- c_0_129&#45;&gt;c_0_130 -->
<g id="edge1" class="edge">
<title>c_0_129&#45;&gt;c_0_130</title>
<path fill="none" stroke="black" d="M367,-75.72C367,-59.59 367,-24 367,-24 367,-24 270.13,-24 270.13,-24"/>
<polygon fill="black" stroke="black" points="270.13,-20.5 260.13,-24 270.13,-27.5 270.13,-20.5"/>
</g>
<!-- c_0_128 -->
<g id="node2" class="node">
<title>c_0_128</title>
<g id="a_node2"><a xlink:href="c_0_128.html" xlink:title="{X₁ = Ø|\|1&#45;tuples(X₁)\| = \|X₁\|}" target="_vizar">
<polygon fill="#f8edd1" stroke="#7f7542" points="184,-68.5 184,-98.5 322,-98.5 322,-68.5 184,-68.5"/>
<text text-anchor="middle" x="253" y="-87.3" font-family="Times,serif" font-size="14.00">X₁ = Ø</text>
<polyline fill="none" stroke="#7f7542" points="184,-83.5 322,-83.5 "/>
<text text-anchor="middle" x="253" y="-72.3" font-family="Times,serif" font-size="14.00">|1&#45;tuples(X₁)| = |X₁|</text>
</a>
</g>
</g>
<!-- c_0_128&#45;&gt;c_0_130 -->
<g id="edge2" class="edge">
<title>c_0_128&#45;&gt;c_0_130</title>
<path fill="none" stroke="black" d="M253,-68.49C253,-68.49 253,-41.73 253,-41.73"/>
<polygon fill="black" stroke="black" points="256.5,-41.73 253,-31.73 249.5,-41.73 256.5,-41.73"/>
</g>
<!-- c_0_122 -->
<g id="node3" class="node">
<title>c_0_122</title>
<g id="a_node3"><a xlink:href="c_0_122.html" xlink:title="{\|1&#45;tuples(sk₁)\| ≠ \|sk₁\|}" target="_vizar">
<polygon fill="#fa6900" stroke="#7f7542" points="16,-76 16,-91 166,-91 166,-76 16,-76"/>
<text text-anchor="middle" x="91" y="-79.8" font-family="Times,serif" font-size="14.00">|1&#45;tuples(sk₁)| ≠ |sk₁|</text>
</a>
</g>
</g>
<!-- c_0_122&#45;&gt;c_0_130 -->
<g id="edge3" class="edge">
<title>c_0_122&#45;&gt;c_0_130</title>
<path fill="none" stroke="black" d="M91,-75.72C91,-59.59 91,-24 91,-24 91,-24 235.62,-24 235.62,-24"/>
<polygon fill="black" stroke="black" points="235.62,-27.5 245.62,-24 235.62,-20.5 235.62,-27.5"/>
</g>
</g>
</svg>
