<?xml version="1.0" encoding="UTF-8" standalone="no"?>
<!DOCTYPE svg PUBLIC "-//W3C//DTD SVG 1.1//EN"
 "http://www.w3.org/Graphics/SVG/1.1/DTD/svg11.dtd">
<!-- Generated by graphviz version 5.0.0 (0)
 -->
<!-- Title: proof Pages: 1 -->
<svg width="136pt" height="220pt"
 viewBox="0.00 0.00 136.00 220.00" xmlns="http://www.w3.org/2000/svg" xmlns:xlink="http://www.w3.org/1999/xlink">
<g id="graph0" class="graph" transform="scale(1 1) rotate(0) translate(4 216)">
<title>proof</title>
<g id="clust1" class="cluster">
<title>cluster_0</title>
<polygon fill="transparent" stroke="black" stroke-dasharray="1,5" points="14,-172 14,-204 114,-204 114,-172 14,-172"/>
</g>
<g id="clust2" class="cluster">
<title>cluster_1</title>
<polygon fill="transparent" stroke="black" stroke-width="2" points="13,-60 13,-152 115,-152 115,-60 13,-60"/>
</g>
<g id="clust3" class="cluster">
<title>cluster_2</title>
<polygon fill="transparent" stroke="black" stroke-dasharray="1,5" points="8,-8 8,-40 120,-40 120,-8 8,-8"/>
</g>
<!-- d8_finseq_1 -->
<g id="node1" class="node">
<title>d8_finseq_1</title>
<g id="a_node1"><a xlink:href="d8_finseq_1.html" xlink:title="d8_finseq_1" target="_vizar">
<polygon fill="#69d2e7" stroke="#7f7542" points="22,-180.5 22,-195.5 106,-195.5 106,-180.5 22,-180.5"/>
<text text-anchor="middle" x="64" y="-184.3" font-family="Times,serif" font-size="14.00">d8_finseq_1</text>
</a>
</g>
</g>
<!-- c_0_53 -->
<g id="node2" class="node">
<title>c_0_53</title>
<g id="a_node2"><a xlink:href="c_0_53.html" xlink:title="{X₁ = &amp;lt;X₂&amp;gt;|function(X₁)|relation(X₁)|⇊|X₁(1) = X₂}" target="_vizar">
<polygon fill="#f8edd1" stroke="#7f7542" points="21.5,-68.5 21.5,-143.5 106.5,-143.5 106.5,-68.5 21.5,-68.5"/>
<text text-anchor="middle" x="64" y="-132.3" font-family="Times,serif" font-size="14.00">X₁ = &lt;X₂&gt;</text>
<polyline fill="none" stroke="#7f7542" points="21.5,-128.5 106.5,-128.5 "/>
<text text-anchor="middle" x="64" y="-117.3" font-family="Times,serif" font-size="14.00">function(X₁)</text>
<polyline fill="none" stroke="#7f7542" points="21.5,-113.5 106.5,-113.5 "/>
<text text-anchor="middle" x="64" y="-102.3" font-family="Times,serif" font-size="14.00">relation(X₁)</text>
<polyline fill="none" stroke="#7f7542" points="21.5,-98.5 106.5,-98.5 "/>
<text text-anchor="middle" x="64" y="-87.3" font-family="Times,serif" font-size="14.00">⇊</text>
<polyline fill="none" stroke="#7f7542" points="21.5,-83.5 106.5,-83.5 "/>
<text text-anchor="middle" x="64" y="-72.3" font-family="Times,serif" font-size="14.00">X₁(1) = X₂</text>
</a>
</g>
</g>
<!-- d8_finseq_1&#45;&gt;c_0_53 -->
<g id="edge1" class="edge">
<title>d8_finseq_1&#45;&gt;c_0_53</title>
<path fill="none" stroke="black" d="M64,-180.43C64,-180.43 64,-153.67 64,-153.67"/>
<polygon fill="black" stroke="black" points="67.5,-153.67 64,-143.67 60.5,-153.67 67.5,-153.67"/>
</g>
<!-- c_0_67 -->
<g id="node3" class="node">
<title>c_0_67</title>
<g id="a_node3"><a xlink:href="c_0_67.html" xlink:title="{&amp;lt;X₁&amp;gt;(1) = X₁}" target="_vizar">
<polygon fill="#f8edd1" stroke="#7f7542" points="16.5,-16.5 16.5,-31.5 111.5,-31.5 111.5,-16.5 16.5,-16.5"/>
<text text-anchor="middle" x="64" y="-20.3" font-family="Times,serif" font-size="14.00">&lt;X₁&gt;(1) = X₁</text>
</a>
</g>
</g>
<!-- c_0_53&#45;&gt;c_0_67 -->
<g id="edge2" class="edge">
<title>c_0_53&#45;&gt;c_0_67</title>
<path fill="none" stroke="black" stroke-dasharray="5,2" d="M64,-68.36C64,-68.36 64,-41.72 64,-41.72"/>
<polygon fill="black" stroke="black" points="67.5,-41.72 64,-31.72 60.5,-41.72 67.5,-41.72"/>
</g>
</g>
</svg>
