<?xml version="1.0" encoding="UTF-8" standalone="no"?>
<!DOCTYPE svg PUBLIC "-//W3C//DTD SVG 1.1//EN"
 "http://www.w3.org/Graphics/SVG/1.1/DTD/svg11.dtd">
<!-- Generated by graphviz version 5.0.0 (0)
 -->
<!-- Title: proof Pages: 1 -->
<svg width="554pt" height="295pt"
 viewBox="0.00 0.00 554.00 295.00" xmlns="http://www.w3.org/2000/svg" xmlns:xlink="http://www.w3.org/1999/xlink">
<g id="graph0" class="graph" transform="scale(1 1) rotate(0) translate(4 291)">
<title>proof</title>
<g id="clust1" class="cluster">
<title>cluster_0</title>
<polygon fill="transparent" stroke="black" stroke-dasharray="1,5" points="8,-172 8,-279 538,-279 538,-172 8,-172"/>
</g>
<g id="clust2" class="cluster">
<title>cluster_1</title>
<polygon fill="transparent" stroke="black" stroke-width="2" points="73,-90 73,-152 335,-152 335,-90 73,-90"/>
</g>
<g id="clust3" class="cluster">
<title>cluster_2</title>
<polygon fill="transparent" stroke="black" stroke-dasharray="1,5" points="82,-8 82,-70 326,-70 326,-8 82,-8"/>
</g>
<!-- c_0_70 -->
<g id="node1" class="node">
<title>c_0_70</title>
<g id="a_node1"><a xlink:href="c_0_70.html" xlink:title="{X₁ = Ø|\{&amp;lt;x&amp;gt;: x ∈ X₁\} ⊆ X₂|sk₉(sk₅(\{&amp;lt;x&amp;gt;: x ∈ X₁\},X₂),X₁) ∈ X₁}" target="_parent">
<polygon fill="#f8edd1" stroke="#7f7542" points="290.5,-203 290.5,-248 529.5,-248 529.5,-203 290.5,-203"/>
<text text-anchor="middle" x="410" y="-236.8" font-family="Times,serif" font-size="14.00">X₁ = Ø</text>
<polyline fill="none" stroke="#7f7542" points="290.5,-233 529.5,-233 "/>
<text text-anchor="middle" x="410" y="-221.8" font-family="Times,serif" font-size="14.00">{&lt;x&gt;: x ∈ X₁} ⊆ X₂</text>
<polyline fill="none" stroke="#7f7542" points="290.5,-218 529.5,-218 "/>
<text text-anchor="middle" x="410" y="-206.8" font-family="Times,serif" font-size="14.00">sk₉(sk₅({&lt;x&gt;: x ∈ X₁},X₂),X₁) ∈ X₁</text>
</a>
</g>
</g>
<!-- c_0_78 -->
<g id="node4" class="node">
<title>c_0_78</title>
<g id="a_node4"><a xlink:href="c_0_78.html" xlink:title="{X₁ = Ø|\{&amp;lt;x&amp;gt;: x ∈ X₁\} ⊆ X₂|sk₅(\{&amp;lt;x&amp;gt;: x ∈ X₁\},X₂) ∈ fin&#45;seq(X₁)}" target="_parent">
<polygon fill="#f8edd1" stroke="#7f7542" points="81,-98.5 81,-143.5 327,-143.5 327,-98.5 81,-98.5"/>
<text text-anchor="middle" x="204" y="-132.3" font-family="Times,serif" font-size="14.00">X₁ = Ø</text>
<polyline fill="none" stroke="#7f7542" points="81,-128.5 327,-128.5 "/>
<text text-anchor="middle" x="204" y="-117.3" font-family="Times,serif" font-size="14.00">{&lt;x&gt;: x ∈ X₁} ⊆ X₂</text>
<polyline fill="none" stroke="#7f7542" points="81,-113.5 327,-113.5 "/>
<text text-anchor="middle" x="204" y="-102.3" font-family="Times,serif" font-size="14.00">sk₅({&lt;x&gt;: x ∈ X₁},X₂) ∈ fin&#45;seq(X₁)</text>
</a>
</g>
</g>
<!-- c_0_70&#45;&gt;c_0_78 -->
<g id="edge1" class="edge">
<title>c_0_70&#45;&gt;c_0_78</title>
<path fill="none" stroke="black" d="M308.75,-202.83C308.75,-202.83 308.75,-153.63 308.75,-153.63"/>
<polygon fill="black" stroke="black" points="312.25,-153.63 308.75,-143.63 305.25,-153.63 312.25,-153.63"/>
</g>
<!-- c_0_69 -->
<g id="node2" class="node">
<title>c_0_69</title>
<g id="a_node2"><a xlink:href="c_0_69.html" xlink:title="{X₁ ∈ \{&amp;lt;x&amp;gt;: x ∈ X₃\}|sk₉(X₁,X₃) ∈ X₂|⇊|X₁ ∈ fin&#45;seq(X₂)|X₂ = Ø|X₃ = Ø}" target="_parent">
<polygon fill="#f8edd1" stroke="#7f7542" points="135.5,-180.5 135.5,-270.5 272.5,-270.5 272.5,-180.5 135.5,-180.5"/>
<text text-anchor="middle" x="204" y="-259.3" font-family="Times,serif" font-size="14.00">X₁ ∈ {&lt;x&gt;: x ∈ X₃}</text>
<polyline fill="none" stroke="#7f7542" points="135.5,-255.5 272.5,-255.5 "/>
<text text-anchor="middle" x="204" y="-244.3" font-family="Times,serif" font-size="14.00">sk₉(X₁,X₃) ∈ X₂</text>
<polyline fill="none" stroke="#7f7542" points="135.5,-240.5 272.5,-240.5 "/>
<text text-anchor="middle" x="204" y="-229.3" font-family="Times,serif" font-size="14.00">⇊</text>
<polyline fill="none" stroke="#7f7542" points="135.5,-225.5 272.5,-225.5 "/>
<text text-anchor="middle" x="204" y="-214.3" font-family="Times,serif" font-size="14.00">X₁ ∈ fin&#45;seq(X₂)</text>
<polyline fill="none" stroke="#7f7542" points="135.5,-210.5 272.5,-210.5 "/>
<text text-anchor="middle" x="204" y="-199.3" font-family="Times,serif" font-size="14.00">X₂ = Ø</text>
<polyline fill="none" stroke="#7f7542" points="135.5,-195.5 272.5,-195.5 "/>
<text text-anchor="middle" x="204" y="-184.3" font-family="Times,serif" font-size="14.00">X₃ = Ø</text>
</a>
</g>
</g>
<!-- c_0_69&#45;&gt;c_0_78 -->
<g id="edge2" class="edge">
<title>c_0_69&#45;&gt;c_0_78</title>
<path fill="none" stroke="black" d="M204,-180.27C204,-180.27 204,-153.59 204,-153.59"/>
<polygon fill="black" stroke="black" points="207.5,-153.59 204,-143.59 200.5,-153.59 207.5,-153.59"/>
</g>
<!-- c_0_60 -->
<g id="node3" class="node">
<title>c_0_60</title>
<g id="a_node3"><a xlink:href="c_0_60.html" xlink:title="{X₁ ⊆ X₂|sk₅(X₁,X₂) ∈ X₁}" target="_parent">
<polygon fill="#f8edd1" stroke="#7f7542" points="16.5,-210.5 16.5,-240.5 117.5,-240.5 117.5,-210.5 16.5,-210.5"/>
<text text-anchor="middle" x="67" y="-229.3" font-family="Times,serif" font-size="14.00">X₁ ⊆ X₂</text>
<polyline fill="none" stroke="#7f7542" points="16.5,-225.5 117.5,-225.5 "/>
<text text-anchor="middle" x="67" y="-214.3" font-family="Times,serif" font-size="14.00">sk₅(X₁,X₂) ∈ X₁</text>
</a>
</g>
</g>
<!-- c_0_60&#45;&gt;c_0_78 -->
<g id="edge3" class="edge">
<title>c_0_60&#45;&gt;c_0_78</title>
<path fill="none" stroke="black" d="M99.25,-210.08C99.25,-210.08 99.25,-153.83 99.25,-153.83"/>
<polygon fill="black" stroke="black" points="102.75,-153.83 99.25,-143.83 95.75,-153.83 102.75,-153.83"/>
</g>
<!-- c_0_85 -->
<g id="node5" class="node">
<title>c_0_85</title>
<g id="a_node5"><a xlink:href="c_0_85.html" xlink:title="{1&#45;tuples(X₁) ⊆ X₂|X₁ = Ø|sk₅(1&#45;tuples(X₁),X₂) ∈ fin&#45;seq(X₁)}" target="_parent">
<polygon fill="#f8edd1" stroke="#7f7542" points="90.5,-16.5 90.5,-61.5 317.5,-61.5 317.5,-16.5 90.5,-16.5"/>
<text text-anchor="middle" x="204" y="-50.3" font-family="Times,serif" font-size="14.00">1&#45;tuples(X₁) ⊆ X₂</text>
<polyline fill="none" stroke="#7f7542" points="90.5,-46.5 317.5,-46.5 "/>
<text text-anchor="middle" x="204" y="-35.3" font-family="Times,serif" font-size="14.00">X₁ = Ø</text>
<polyline fill="none" stroke="#7f7542" points="90.5,-31.5 317.5,-31.5 "/>
<text text-anchor="middle" x="204" y="-20.3" font-family="Times,serif" font-size="14.00">sk₅(1&#45;tuples(X₁),X₂) ∈ fin&#45;seq(X₁)</text>
</a>
</g>
</g>
<!-- c_0_78&#45;&gt;c_0_85 -->
<g id="edge4" class="edge">
<title>c_0_78&#45;&gt;c_0_85</title>
<path fill="none" stroke="black" stroke-dasharray="5,2" d="M204,-98.16C204,-98.16 204,-71.72 204,-71.72"/>
<polygon fill="black" stroke="black" points="207.5,-71.72 204,-61.72 200.5,-71.72 207.5,-71.72"/>
</g>
</g>
</svg>
