<?xml version="1.0" encoding="UTF-8" standalone="no"?>
<!DOCTYPE svg PUBLIC "-//W3C//DTD SVG 1.1//EN"
 "http://www.w3.org/Graphics/SVG/1.1/DTD/svg11.dtd">
<!-- Generated by graphviz version 5.0.0 (0)
 -->
<!-- Title: proof Pages: 1 -->
<svg width="596pt" height="250pt"
 viewBox="0.00 0.00 596.00 250.00" xmlns="http://www.w3.org/2000/svg" xmlns:xlink="http://www.w3.org/1999/xlink">
<g id="graph0" class="graph" transform="scale(1 1) rotate(0) translate(4 246)">
<title>proof</title>
<g id="clust1" class="cluster">
<title>cluster_0</title>
<polygon fill="transparent" stroke="black" stroke-dasharray="1,5" points="8,-172 8,-234 492,-234 492,-172 8,-172"/>
</g>
<g id="clust2" class="cluster">
<title>cluster_1</title>
<polygon fill="transparent" stroke="black" stroke-width="2" points="121,-90 121,-152 365,-152 365,-90 121,-90"/>
</g>
<g id="clust3" class="cluster">
<title>cluster_2</title>
<polygon fill="transparent" stroke="black" stroke-dasharray="1,5" points="12,-8 12,-70 580,-70 580,-8 12,-8"/>
</g>
<!-- c_0_78 -->
<g id="node1" class="node">
<title>c_0_78</title>
<g id="a_node1"><a xlink:href="c_0_78.html" xlink:title="{X₁ = Ø|\{&amp;lt;z&amp;gt;: z ∈ X₁\} ⊆ X₂|sk₅(\{&amp;lt;z&amp;gt;: z ∈ X₁\},X₂) ∈ fin&#45;seq(X₁)}" target="_vizar">
<polygon fill="#f8edd1" stroke="#7f7542" points="240,-180.5 240,-225.5 484,-225.5 484,-180.5 240,-180.5"/>
<text text-anchor="middle" x="362" y="-214.3" font-family="Times,serif" font-size="14.00">X₁ = Ø</text>
<polyline fill="none" stroke="#7f7542" points="240,-210.5 484,-210.5 "/>
<text text-anchor="middle" x="362" y="-199.3" font-family="Times,serif" font-size="14.00">{&lt;z&gt;: z ∈ X₁} ⊆ X₂</text>
<polyline fill="none" stroke="#7f7542" points="240,-195.5 484,-195.5 "/>
<text text-anchor="middle" x="362" y="-184.3" font-family="Times,serif" font-size="14.00">sk₅({&lt;z&gt;: z ∈ X₁},X₂) ∈ fin&#45;seq(X₁)</text>
</a>
</g>
</g>
<!-- c_0_85 -->
<g id="node3" class="node">
<title>c_0_85</title>
<g id="a_node3"><a xlink:href="c_0_85.html" xlink:title="{1&#45;tuples(X₁) ⊆ X₂|X₁ = Ø|sk₅(1&#45;tuples(X₁),X₂) ∈ fin&#45;seq(X₁)}" target="_vizar">
<polygon fill="#f8edd1" stroke="#7f7542" points="129.5,-98.5 129.5,-143.5 356.5,-143.5 356.5,-98.5 129.5,-98.5"/>
<text text-anchor="middle" x="243" y="-132.3" font-family="Times,serif" font-size="14.00">1&#45;tuples(X₁) ⊆ X₂</text>
<polyline fill="none" stroke="#7f7542" points="129.5,-128.5 356.5,-128.5 "/>
<text text-anchor="middle" x="243" y="-117.3" font-family="Times,serif" font-size="14.00">X₁ = Ø</text>
<polyline fill="none" stroke="#7f7542" points="129.5,-113.5 356.5,-113.5 "/>
<text text-anchor="middle" x="243" y="-102.3" font-family="Times,serif" font-size="14.00">sk₅(1&#45;tuples(X₁),X₂) ∈ fin&#45;seq(X₁)</text>
</a>
</g>
</g>
<!-- c_0_78&#45;&gt;c_0_85 -->
<g id="edge1" class="edge">
<title>c_0_78&#45;&gt;c_0_85</title>
<path fill="none" stroke="black" d="M298.25,-180.16C298.25,-180.16 298.25,-153.72 298.25,-153.72"/>
<polygon fill="black" stroke="black" points="301.75,-153.72 298.25,-143.72 294.75,-153.72 301.75,-153.72"/>
</g>
<!-- c_0_44 -->
<g id="node2" class="node">
<title>c_0_44</title>
<g id="a_node2"><a xlink:href="c_0_44.html" xlink:title="{1&#45;tuples(X₁) = \{&amp;lt;z&amp;gt;: z ∈ X₁\}|X₁ = Ø}" target="_vizar">
<polygon fill="#f8edd1" stroke="#7f7542" points="16.5,-188 16.5,-218 221.5,-218 221.5,-188 16.5,-188"/>
<text text-anchor="middle" x="119" y="-206.8" font-family="Times,serif" font-size="14.00">1&#45;tuples(X₁) = {&lt;z&gt;: z ∈ X₁}</text>
<polyline fill="none" stroke="#7f7542" points="16.5,-203 221.5,-203 "/>
<text text-anchor="middle" x="119" y="-191.8" font-family="Times,serif" font-size="14.00">X₁ = Ø</text>
</a>
</g>
</g>
<!-- c_0_44&#45;&gt;c_0_85 -->
<g id="edge2" class="edge">
<title>c_0_44&#45;&gt;c_0_85</title>
<path fill="none" stroke="black" d="M175.5,-187.96C175.5,-187.96 175.5,-153.69 175.5,-153.69"/>
<polygon fill="black" stroke="black" points="179,-153.69 175.5,-143.69 172,-153.69 179,-153.69"/>
</g>
<!-- c_0_96 -->
<g id="node4" class="node">
<title>c_0_96</title>
<g id="a_node4"><a xlink:href="c_0_96.html" xlink:title="{&amp;lt;(sk₅(1&#45;tuples(X₁),X₂)(1))&amp;gt; = sk₅(1&#45;tuples(X₁),X₂)|1&#45;tuples(X₁) ⊆ X₂|X₁ = Ø}" target="_vizar">
<polygon fill="#f8edd1" stroke="#7f7542" points="228,-16.5 228,-61.5 572,-61.5 572,-16.5 228,-16.5"/>
<text text-anchor="middle" x="400" y="-50.3" font-family="Times,serif" font-size="14.00">&lt;(sk₅(1&#45;tuples(X₁),X₂)(1))&gt; = sk₅(1&#45;tuples(X₁),X₂)</text>
<polyline fill="none" stroke="#7f7542" points="228,-46.5 572,-46.5 "/>
<text text-anchor="middle" x="400" y="-35.3" font-family="Times,serif" font-size="14.00">1&#45;tuples(X₁) ⊆ X₂</text>
<polyline fill="none" stroke="#7f7542" points="228,-31.5 572,-31.5 "/>
<text text-anchor="middle" x="400" y="-20.3" font-family="Times,serif" font-size="14.00">X₁ = Ø</text>
</a>
</g>
</g>
<!-- c_0_85&#45;&gt;c_0_96 -->
<g id="edge3" class="edge">
<title>c_0_85&#45;&gt;c_0_96</title>
<path fill="none" stroke="black" stroke-dasharray="5,2" d="M292.25,-98.16C292.25,-98.16 292.25,-71.72 292.25,-71.72"/>
<polygon fill="black" stroke="black" points="295.75,-71.72 292.25,-61.72 288.75,-71.72 295.75,-71.72"/>
</g>
<!-- c_0_90 -->
<g id="node5" class="node">
<title>c_0_90</title>
<g id="a_node5"><a xlink:href="c_0_90.html" xlink:title="{1&#45;tuples(X₁) ⊆ X₂|X₁ = Ø|sk₅(1&#45;tuples(X₁),X₂)(1) ∈ X₁}" target="_vizar">
<polygon fill="#f8edd1" stroke="#7f7542" points="20.5,-16.5 20.5,-61.5 209.5,-61.5 209.5,-16.5 20.5,-16.5"/>
<text text-anchor="middle" x="115" y="-50.3" font-family="Times,serif" font-size="14.00">1&#45;tuples(X₁) ⊆ X₂</text>
<polyline fill="none" stroke="#7f7542" points="20.5,-46.5 209.5,-46.5 "/>
<text text-anchor="middle" x="115" y="-35.3" font-family="Times,serif" font-size="14.00">X₁ = Ø</text>
<polyline fill="none" stroke="#7f7542" points="20.5,-31.5 209.5,-31.5 "/>
<text text-anchor="middle" x="115" y="-20.3" font-family="Times,serif" font-size="14.00">sk₅(1&#45;tuples(X₁),X₂)(1) ∈ X₁</text>
</a>
</g>
</g>
<!-- c_0_85&#45;&gt;c_0_90 -->
<g id="edge4" class="edge">
<title>c_0_85&#45;&gt;c_0_90</title>
<path fill="none" stroke="black" stroke-dasharray="5,2" d="M169.5,-98.16C169.5,-98.16 169.5,-71.72 169.5,-71.72"/>
<polygon fill="black" stroke="black" points="173,-71.72 169.5,-61.72 166,-71.72 173,-71.72"/>
</g>
</g>
</svg>
