<?xml version="1.0" encoding="UTF-8" standalone="no"?>
<!DOCTYPE svg PUBLIC "-//W3C//DTD SVG 1.1//EN"
 "http://www.w3.org/Graphics/SVG/1.1/DTD/svg11.dtd">
<!-- Generated by graphviz version 5.0.0 (0)
 -->
<!-- Title: proof Pages: 1 -->
<svg width="628pt" height="168pt"
 viewBox="0.00 0.00 628.00 168.00" xmlns="http://www.w3.org/2000/svg" xmlns:xlink="http://www.w3.org/1999/xlink">
<g id="graph0" class="graph" transform="scale(1 1) rotate(0) translate(4 164)">
<title>proof</title>
<g id="clust1" class="cluster">
<title>cluster_1</title>
<polygon fill="transparent" stroke="black" stroke-width="2" points="248,-120 248,-152 342,-152 342,-120 248,-120"/>
</g>
<g id="clust2" class="cluster">
<title>cluster_2</title>
<polygon fill="transparent" stroke="black" stroke-dasharray="1,5" points="8,-8 8,-100 612,-100 612,-8 8,-8"/>
</g>
<!-- d4_funct_1 -->
<g id="node1" class="node">
<title>d4_funct_1</title>
<g id="a_node1"><a xlink:href="d4_funct_1.html" xlink:title="d4_funct_1" target="_vizar">
<polygon fill="#69d2e7" stroke="#7f7542" points="256,-128.5 256,-143.5 334,-143.5 334,-128.5 256,-128.5"/>
<text text-anchor="middle" x="295" y="-132.3" font-family="Times,serif" font-size="14.00">d4_funct_1</text>
</a>
</g>
</g>
<!-- c_0_99 -->
<g id="node2" class="node">
<title>c_0_99</title>
<g id="a_node2"><a xlink:href="c_0_99.html" xlink:title="{function(X₁)|relation(X₁)|⇊|function(X₁)|sk₆(X₁) ∈ proj₁(X₁)}" target="_vizar">
<polygon fill="#f8edd1" stroke="#7f7542" points="478,-16.5 478,-91.5 604,-91.5 604,-16.5 478,-16.5"/>
<text text-anchor="middle" x="541" y="-80.3" font-family="Times,serif" font-size="14.00">function(X₁)</text>
<polyline fill="none" stroke="#7f7542" points="478,-76.5 604,-76.5 "/>
<text text-anchor="middle" x="541" y="-65.3" font-family="Times,serif" font-size="14.00">relation(X₁)</text>
<polyline fill="none" stroke="#7f7542" points="478,-61.5 604,-61.5 "/>
<text text-anchor="middle" x="541" y="-50.3" font-family="Times,serif" font-size="14.00">⇊</text>
<polyline fill="none" stroke="#7f7542" points="478,-46.5 604,-46.5 "/>
<text text-anchor="middle" x="541" y="-35.3" font-family="Times,serif" font-size="14.00">function(X₁)</text>
<polyline fill="none" stroke="#7f7542" points="478,-31.5 604,-31.5 "/>
<text text-anchor="middle" x="541" y="-20.3" font-family="Times,serif" font-size="14.00">sk₆(X₁) ∈ proj₁(X₁)</text>
</a>
</g>
</g>
<!-- d4_funct_1&#45;&gt;c_0_99 -->
<g id="edge1" class="edge">
<title>d4_funct_1&#45;&gt;c_0_99</title>
<path fill="none" stroke="black" d="M334.25,-136C403.7,-136 541,-136 541,-136 541,-136 541,-101.64 541,-101.64"/>
<polygon fill="black" stroke="black" points="544.5,-101.64 541,-91.64 537.5,-101.64 544.5,-101.64"/>
</g>
<!-- c_0_92 -->
<g id="node3" class="node">
<title>c_0_92</title>
<g id="a_node3"><a xlink:href="c_0_92.html" xlink:title="{function(X₁)|relation(X₁)|⇊|X₁(sk₆(X₁)) = X₁(sk₇(X₁))|function(X₁)}" target="_vizar">
<polygon fill="#f8edd1" stroke="#7f7542" points="294,-16.5 294,-91.5 460,-91.5 460,-16.5 294,-16.5"/>
<text text-anchor="middle" x="377" y="-80.3" font-family="Times,serif" font-size="14.00">function(X₁)</text>
<polyline fill="none" stroke="#7f7542" points="294,-76.5 460,-76.5 "/>
<text text-anchor="middle" x="377" y="-65.3" font-family="Times,serif" font-size="14.00">relation(X₁)</text>
<polyline fill="none" stroke="#7f7542" points="294,-61.5 460,-61.5 "/>
<text text-anchor="middle" x="377" y="-50.3" font-family="Times,serif" font-size="14.00">⇊</text>
<polyline fill="none" stroke="#7f7542" points="294,-46.5 460,-46.5 "/>
<text text-anchor="middle" x="377" y="-35.3" font-family="Times,serif" font-size="14.00">X₁(sk₆(X₁)) = X₁(sk₇(X₁))</text>
<polyline fill="none" stroke="#7f7542" points="294,-31.5 460,-31.5 "/>
<text text-anchor="middle" x="377" y="-20.3" font-family="Times,serif" font-size="14.00">function(X₁)</text>
</a>
</g>
</g>
<!-- d4_funct_1&#45;&gt;c_0_92 -->
<g id="edge2" class="edge">
<title>d4_funct_1&#45;&gt;c_0_92</title>
<path fill="none" stroke="black" d="M314,-128.43C314,-128.43 314,-101.67 314,-101.67"/>
<polygon fill="black" stroke="black" points="317.5,-101.67 314,-91.67 310.5,-101.67 317.5,-101.67"/>
</g>
<!-- c_0_98 -->
<g id="node4" class="node">
<title>c_0_98</title>
<g id="a_node4"><a xlink:href="c_0_98.html" xlink:title="{function(X₁)|relation(X₁)|⇊|function(X₁)|sk₇(X₁) ∈ proj₁(X₁)}" target="_vizar">
<polygon fill="#f8edd1" stroke="#7f7542" points="150,-16.5 150,-91.5 276,-91.5 276,-16.5 150,-16.5"/>
<text text-anchor="middle" x="213" y="-80.3" font-family="Times,serif" font-size="14.00">function(X₁)</text>
<polyline fill="none" stroke="#7f7542" points="150,-76.5 276,-76.5 "/>
<text text-anchor="middle" x="213" y="-65.3" font-family="Times,serif" font-size="14.00">relation(X₁)</text>
<polyline fill="none" stroke="#7f7542" points="150,-61.5 276,-61.5 "/>
<text text-anchor="middle" x="213" y="-50.3" font-family="Times,serif" font-size="14.00">⇊</text>
<polyline fill="none" stroke="#7f7542" points="150,-46.5 276,-46.5 "/>
<text text-anchor="middle" x="213" y="-35.3" font-family="Times,serif" font-size="14.00">function(X₁)</text>
<polyline fill="none" stroke="#7f7542" points="150,-31.5 276,-31.5 "/>
<text text-anchor="middle" x="213" y="-20.3" font-family="Times,serif" font-size="14.00">sk₇(X₁) ∈ proj₁(X₁)</text>
</a>
</g>
</g>
<!-- d4_funct_1&#45;&gt;c_0_98 -->
<g id="edge3" class="edge">
<title>d4_funct_1&#45;&gt;c_0_98</title>
<path fill="none" stroke="black" d="M266,-128.43C266,-128.43 266,-101.67 266,-101.67"/>
<polygon fill="black" stroke="black" points="269.5,-101.67 266,-91.67 262.5,-101.67 269.5,-101.67"/>
</g>
<!-- c_0_120 -->
<g id="node5" class="node">
<title>c_0_120</title>
<g id="a_node5"><a xlink:href="c_0_120.html" xlink:title="{function(X₁)|relation(X₁)|sk₆(X₁) = sk₇(X₁)|⇊|function(X₁)}" target="_vizar">
<polygon fill="#f8edd1" stroke="#7f7542" points="16.5,-16.5 16.5,-91.5 131.5,-91.5 131.5,-16.5 16.5,-16.5"/>
<text text-anchor="middle" x="74" y="-80.3" font-family="Times,serif" font-size="14.00">function(X₁)</text>
<polyline fill="none" stroke="#7f7542" points="16.5,-76.5 131.5,-76.5 "/>
<text text-anchor="middle" x="74" y="-65.3" font-family="Times,serif" font-size="14.00">relation(X₁)</text>
<polyline fill="none" stroke="#7f7542" points="16.5,-61.5 131.5,-61.5 "/>
<text text-anchor="middle" x="74" y="-50.3" font-family="Times,serif" font-size="14.00">sk₆(X₁) = sk₇(X₁)</text>
<polyline fill="none" stroke="#7f7542" points="16.5,-46.5 131.5,-46.5 "/>
<text text-anchor="middle" x="74" y="-35.3" font-family="Times,serif" font-size="14.00">⇊</text>
<polyline fill="none" stroke="#7f7542" points="16.5,-31.5 131.5,-31.5 "/>
<text text-anchor="middle" x="74" y="-20.3" font-family="Times,serif" font-size="14.00">function(X₁)</text>
</a>
</g>
</g>
<!-- d4_funct_1&#45;&gt;c_0_120 -->
<g id="edge4" class="edge">
<title>d4_funct_1&#45;&gt;c_0_120</title>
<path fill="none" stroke="black" d="M256,-136C192.55,-136 74,-136 74,-136 74,-136 74,-101.64 74,-101.64"/>
<polygon fill="black" stroke="black" points="77.5,-101.64 74,-91.64 70.5,-101.64 77.5,-101.64"/>
</g>
</g>
</svg>
