<?xml version="1.0" encoding="UTF-8" standalone="no"?>
<!DOCTYPE svg PUBLIC "-//W3C//DTD SVG 1.1//EN"
 "http://www.w3.org/Graphics/SVG/1.1/DTD/svg11.dtd">
<!-- Generated by graphviz version 5.0.0 (0)
 -->
<!-- Title: proof Pages: 1 -->
<svg width="605pt" height="168pt"
 viewBox="0.00 0.00 605.00 168.00" xmlns="http://www.w3.org/2000/svg" xmlns:xlink="http://www.w3.org/1999/xlink">
<g id="graph0" class="graph" transform="scale(1 1) rotate(0) translate(4 164)">
<title>proof</title>
<g id="clust1" class="cluster">
<title>cluster_1</title>
<polygon fill="transparent" stroke="black" stroke-width="2" points="206,-120 206,-152 394,-152 394,-120 206,-120"/>
</g>
<g id="clust2" class="cluster">
<title>cluster_2</title>
<polygon fill="transparent" stroke="black" stroke-dasharray="1,5" points="8,-8 8,-100 589,-100 589,-8 8,-8"/>
</g>
<!-- fraenkel_a_1_0_finseq_2 -->
<g id="node1" class="node">
<title>fraenkel_a_1_0_finseq_2</title>
<g id="a_node1"><a xlink:href="fraenkel_a_1_0_finseq_2.html" xlink:title="fraenkel_a_1_0_finseq_2" target="_parent">
<polygon fill="#69d2e7" stroke="#7f7542" points="214.5,-128.5 214.5,-143.5 385.5,-143.5 385.5,-128.5 214.5,-128.5"/>
<text text-anchor="middle" x="300" y="-132.3" font-family="Times,serif" font-size="14.00">fraenkel_a_1_0_finseq_2</text>
</a>
</g>
</g>
<!-- c_0_29 -->
<g id="node2" class="node">
<title>c_0_29</title>
<g id="a_node2"><a xlink:href="c_0_29.html" xlink:title="{X₁ ∈ X₂|X₃ = X₂ &amp;lt;*..*&amp;gt; X₁|⇊|X₂ = Ø|in(X₃,a_1_0_finseq_2(X₂))}" target="_parent">
<polygon fill="#f8edd1" stroke="#7f7542" points="405.5,-16.5 405.5,-91.5 580.5,-91.5 580.5,-16.5 405.5,-16.5"/>
<text text-anchor="middle" x="493" y="-80.3" font-family="Times,serif" font-size="14.00">X₁ ∈ X₂</text>
<polyline fill="none" stroke="#7f7542" points="405.5,-76.5 580.5,-76.5 "/>
<text text-anchor="middle" x="493" y="-65.3" font-family="Times,serif" font-size="14.00">X₃ = X₂ &lt;*..*&gt; X₁</text>
<polyline fill="none" stroke="#7f7542" points="405.5,-61.5 580.5,-61.5 "/>
<text text-anchor="middle" x="493" y="-50.3" font-family="Times,serif" font-size="14.00">⇊</text>
<polyline fill="none" stroke="#7f7542" points="405.5,-46.5 580.5,-46.5 "/>
<text text-anchor="middle" x="493" y="-35.3" font-family="Times,serif" font-size="14.00">X₂ = Ø</text>
<polyline fill="none" stroke="#7f7542" points="405.5,-31.5 580.5,-31.5 "/>
<text text-anchor="middle" x="493" y="-20.3" font-family="Times,serif" font-size="14.00">in(X₃,a_1_0_finseq_2(X₂))</text>
</a>
</g>
</g>
<!-- fraenkel_a_1_0_finseq_2&#45;&gt;c_0_29 -->
<g id="edge1" class="edge">
<title>fraenkel_a_1_0_finseq_2&#45;&gt;c_0_29</title>
<path fill="none" stroke="black" d="M328.5,-128.07C328.5,-114.44 328.5,-88 328.5,-88 328.5,-88 395.45,-88 395.45,-88"/>
<polygon fill="black" stroke="black" points="395.45,-91.5 405.45,-88 395.45,-84.5 395.45,-91.5"/>
</g>
<!-- c_0_40 -->
<g id="node3" class="node">
<title>c_0_40</title>
<g id="a_node3"><a xlink:href="c_0_40.html" xlink:title="{in(X₁,a_1_0_finseq_2(X₂))|⇊|X₂ = Ø|sk₁₆(X₁,X₂) ∈ X₂}" target="_parent">
<polygon fill="#f8edd1" stroke="#7f7542" points="212.5,-24 212.5,-84 387.5,-84 387.5,-24 212.5,-24"/>
<text text-anchor="middle" x="300" y="-72.8" font-family="Times,serif" font-size="14.00">in(X₁,a_1_0_finseq_2(X₂))</text>
<polyline fill="none" stroke="#7f7542" points="212.5,-69 387.5,-69 "/>
<text text-anchor="middle" x="300" y="-57.8" font-family="Times,serif" font-size="14.00">⇊</text>
<polyline fill="none" stroke="#7f7542" points="212.5,-54 387.5,-54 "/>
<text text-anchor="middle" x="300" y="-42.8" font-family="Times,serif" font-size="14.00">X₂ = Ø</text>
<polyline fill="none" stroke="#7f7542" points="212.5,-39 387.5,-39 "/>
<text text-anchor="middle" x="300" y="-27.8" font-family="Times,serif" font-size="14.00">sk₁₆(X₁,X₂) ∈ X₂</text>
</a>
</g>
</g>
<!-- fraenkel_a_1_0_finseq_2&#45;&gt;c_0_40 -->
<g id="edge2" class="edge">
<title>fraenkel_a_1_0_finseq_2&#45;&gt;c_0_40</title>
<path fill="none" stroke="black" d="M271.5,-128.43C271.5,-128.43 271.5,-94.36 271.5,-94.36"/>
<polygon fill="black" stroke="black" points="275,-94.36 271.5,-84.36 268,-94.36 275,-94.36"/>
</g>
<!-- c_0_39 -->
<g id="node4" class="node">
<title>c_0_39</title>
<g id="a_node4"><a xlink:href="c_0_39.html" xlink:title="{in(X₁,a_1_0_finseq_2(X₂))|⇊|X₁ = X₂ &amp;lt;*..*&amp;gt; sk₁₆(X₁,X₂)|X₂ = Ø}" target="_parent">
<polygon fill="#f8edd1" stroke="#7f7542" points="16,-24 16,-84 194,-84 194,-24 16,-24"/>
<text text-anchor="middle" x="105" y="-72.8" font-family="Times,serif" font-size="14.00">in(X₁,a_1_0_finseq_2(X₂))</text>
<polyline fill="none" stroke="#7f7542" points="16,-69 194,-69 "/>
<text text-anchor="middle" x="105" y="-57.8" font-family="Times,serif" font-size="14.00">⇊</text>
<polyline fill="none" stroke="#7f7542" points="16,-54 194,-54 "/>
<text text-anchor="middle" x="105" y="-42.8" font-family="Times,serif" font-size="14.00">X₁ = X₂ &lt;*..*&gt; sk₁₆(X₁,X₂)</text>
<polyline fill="none" stroke="#7f7542" points="16,-39 194,-39 "/>
<text text-anchor="middle" x="105" y="-27.8" font-family="Times,serif" font-size="14.00">X₂ = Ø</text>
</a>
</g>
</g>
<!-- fraenkel_a_1_0_finseq_2&#45;&gt;c_0_39 -->
<g id="edge3" class="edge">
<title>fraenkel_a_1_0_finseq_2&#45;&gt;c_0_39</title>
<path fill="none" stroke="black" d="M214.47,-136C162.08,-136 105,-136 105,-136 105,-136 105,-94.07 105,-94.07"/>
<polygon fill="black" stroke="black" points="108.5,-94.07 105,-84.07 101.5,-94.07 108.5,-94.07"/>
</g>
</g>
</svg>
