<?xml version="1.0" encoding="UTF-8" standalone="no"?>
<!DOCTYPE svg PUBLIC "-//W3C//DTD SVG 1.1//EN"
 "http://www.w3.org/Graphics/SVG/1.1/DTD/svg11.dtd">
<!-- Generated by graphviz version 5.0.0 (0)
 -->
<!-- Title: proof Pages: 1 -->
<svg width="484pt" height="168pt"
 viewBox="0.00 0.00 484.00 168.00" xmlns="http://www.w3.org/2000/svg" xmlns:xlink="http://www.w3.org/1999/xlink">
<g id="graph0" class="graph" transform="scale(1 1) rotate(0) translate(4 164)">
<title>proof</title>
<g id="clust1" class="cluster">
<title>cluster_1</title>
<polygon fill="transparent" stroke="black" stroke-width="2" points="144,-120 144,-152 332,-152 332,-120 144,-120"/>
</g>
<g id="clust2" class="cluster">
<title>cluster_2</title>
<polygon fill="transparent" stroke="black" stroke-dasharray="1,5" points="8,-8 8,-100 468,-100 468,-8 8,-8"/>
</g>
<!-- fraenkel_a_1_0_finseq_2 -->
<g id="node1" class="node">
<title>fraenkel_a_1_0_finseq_2</title>
<g id="a_node1"><a xlink:href="fraenkel_a_1_0_finseq_2.html" xlink:title="fraenkel_a_1_0_finseq_2" target="_vizar">
<polygon fill="#69d2e7" stroke="#7f7542" points="152.5,-128.5 152.5,-143.5 323.5,-143.5 323.5,-128.5 152.5,-128.5"/>
<text text-anchor="middle" x="238" y="-132.3" font-family="Times,serif" font-size="14.00">fraenkel_a_1_0_finseq_2</text>
</a>
</g>
</g>
<!-- c_0_29 -->
<g id="node2" class="node">
<title>c_0_29</title>
<g id="a_node2"><a xlink:href="c_0_29.html" xlink:title="{X₁ ∈ X₂|X₃ = &amp;lt;X₁&amp;gt;|⇊|X₂ = Ø|X₃ ∈ \{&amp;lt;z&amp;gt;: z ∈ X₂\}}" target="_vizar">
<polygon fill="#f8edd1" stroke="#7f7542" points="324,-16.5 324,-91.5 460,-91.5 460,-16.5 324,-16.5"/>
<text text-anchor="middle" x="392" y="-80.3" font-family="Times,serif" font-size="14.00">X₁ ∈ X₂</text>
<polyline fill="none" stroke="#7f7542" points="324,-76.5 460,-76.5 "/>
<text text-anchor="middle" x="392" y="-65.3" font-family="Times,serif" font-size="14.00">X₃ = &lt;X₁&gt;</text>
<polyline fill="none" stroke="#7f7542" points="324,-61.5 460,-61.5 "/>
<text text-anchor="middle" x="392" y="-50.3" font-family="Times,serif" font-size="14.00">⇊</text>
<polyline fill="none" stroke="#7f7542" points="324,-46.5 460,-46.5 "/>
<text text-anchor="middle" x="392" y="-35.3" font-family="Times,serif" font-size="14.00">X₂ = Ø</text>
<polyline fill="none" stroke="#7f7542" points="324,-31.5 460,-31.5 "/>
<text text-anchor="middle" x="392" y="-20.3" font-family="Times,serif" font-size="14.00">X₃ ∈ {&lt;z&gt;: z ∈ X₂}</text>
</a>
</g>
</g>
<!-- fraenkel_a_1_0_finseq_2&#45;&gt;c_0_29 -->
<g id="edge1" class="edge">
<title>fraenkel_a_1_0_finseq_2&#45;&gt;c_0_29</title>
<path fill="none" stroke="black" d="M314.75,-128.07C314.75,-114.44 314.75,-88 314.75,-88 314.75,-88 315.67,-88 315.67,-88"/>
<polygon fill="black" stroke="black" points="313.91,-91.5 323.91,-88 313.91,-84.5 313.91,-91.5"/>
</g>
<!-- c_0_40 -->
<g id="node3" class="node">
<title>c_0_40</title>
<g id="a_node3"><a xlink:href="c_0_40.html" xlink:title="{X₁ ∈ \{&amp;lt;z&amp;gt;: z ∈ X₂\}|⇊|X₂ = Ø|sk₉(X₁,X₂) ∈ X₂}" target="_vizar">
<polygon fill="#f8edd1" stroke="#7f7542" points="170,-24 170,-84 306,-84 306,-24 170,-24"/>
<text text-anchor="middle" x="238" y="-72.8" font-family="Times,serif" font-size="14.00">X₁ ∈ {&lt;z&gt;: z ∈ X₂}</text>
<polyline fill="none" stroke="#7f7542" points="170,-69 306,-69 "/>
<text text-anchor="middle" x="238" y="-57.8" font-family="Times,serif" font-size="14.00">⇊</text>
<polyline fill="none" stroke="#7f7542" points="170,-54 306,-54 "/>
<text text-anchor="middle" x="238" y="-42.8" font-family="Times,serif" font-size="14.00">X₂ = Ø</text>
<polyline fill="none" stroke="#7f7542" points="170,-39 306,-39 "/>
<text text-anchor="middle" x="238" y="-27.8" font-family="Times,serif" font-size="14.00">sk₉(X₁,X₂) ∈ X₂</text>
</a>
</g>
</g>
<!-- fraenkel_a_1_0_finseq_2&#45;&gt;c_0_40 -->
<g id="edge2" class="edge">
<title>fraenkel_a_1_0_finseq_2&#45;&gt;c_0_40</title>
<path fill="none" stroke="black" d="M238,-128.43C238,-128.43 238,-94.36 238,-94.36"/>
<polygon fill="black" stroke="black" points="241.5,-94.36 238,-84.36 234.5,-94.36 241.5,-94.36"/>
</g>
<!-- c_0_39 -->
<g id="node4" class="node">
<title>c_0_39</title>
<g id="a_node4"><a xlink:href="c_0_39.html" xlink:title="{X₁ ∈ \{&amp;lt;z&amp;gt;: z ∈ X₂\}|⇊|X₁ = &amp;lt;sk₉(X₁,X₂)&amp;gt;|X₂ = Ø}" target="_vizar">
<polygon fill="#f8edd1" stroke="#7f7542" points="16,-24 16,-84 152,-84 152,-24 16,-24"/>
<text text-anchor="middle" x="84" y="-72.8" font-family="Times,serif" font-size="14.00">X₁ ∈ {&lt;z&gt;: z ∈ X₂}</text>
<polyline fill="none" stroke="#7f7542" points="16,-69 152,-69 "/>
<text text-anchor="middle" x="84" y="-57.8" font-family="Times,serif" font-size="14.00">⇊</text>
<polyline fill="none" stroke="#7f7542" points="16,-54 152,-54 "/>
<text text-anchor="middle" x="84" y="-42.8" font-family="Times,serif" font-size="14.00">X₁ = &lt;sk₉(X₁,X₂)&gt;</text>
<polyline fill="none" stroke="#7f7542" points="16,-39 152,-39 "/>
<text text-anchor="middle" x="84" y="-27.8" font-family="Times,serif" font-size="14.00">X₂ = Ø</text>
</a>
</g>
</g>
<!-- fraenkel_a_1_0_finseq_2&#45;&gt;c_0_39 -->
<g id="edge3" class="edge">
<title>fraenkel_a_1_0_finseq_2&#45;&gt;c_0_39</title>
<path fill="none" stroke="black" d="M161.25,-128.43C161.25,-108.13 161.25,-54 161.25,-54 161.25,-54 160.33,-54 160.33,-54"/>
<polygon fill="black" stroke="black" points="162.09,-50.5 152.09,-54 162.09,-57.5 162.09,-50.5"/>
</g>
</g>
</svg>
