<?xml version="1.0" encoding="UTF-8" standalone="no"?>
<!DOCTYPE svg PUBLIC "-//W3C//DTD SVG 1.1//EN"
 "http://www.w3.org/Graphics/SVG/1.1/DTD/svg11.dtd">
<!-- Generated by graphviz version 5.0.0 (0)
 -->
<!-- Title: proof Pages: 1 -->
<svg width="290pt" height="108pt"
 viewBox="0.00 0.00 290.00 108.00" xmlns="http://www.w3.org/2000/svg" xmlns:xlink="http://www.w3.org/1999/xlink">
<g id="graph0" class="graph" transform="scale(1 1) rotate(0) translate(4 104)">
<title>proof</title>
<g id="clust1" class="cluster">
<title>cluster_1</title>
<polygon fill="transparent" stroke="black" stroke-width="2" points="69,-60 69,-92 155,-92 155,-60 69,-60"/>
</g>
<g id="clust2" class="cluster">
<title>cluster_2</title>
<polygon fill="transparent" stroke="black" stroke-dasharray="1,5" points="8,-8 8,-40 274,-40 274,-8 8,-8"/>
</g>
<!-- t8_card_4 -->
<g id="node1" class="node">
<title>t8_card_4</title>
<g id="a_node1"><a xlink:href="t8_card_4.html" xlink:title="t8_card_4" target="_parent">
<polygon fill="#fa6900" stroke="#7f7542" points="77,-68.5 77,-83.5 147,-83.5 147,-68.5 77,-68.5"/>
<text text-anchor="middle" x="112" y="-72.3" font-family="Times,serif" font-size="14.00">t8_card_4</text>
</a>
</g>
</g>
<!-- c_0_122 -->
<g id="node2" class="node">
<title>c_0_122</title>
<g id="a_node2"><a xlink:href="c_0_122.html" xlink:title="{\|&#45;tuples_on(1,sk₁)\| ≠ \|sk₁\|}" target="_parent">
<polygon fill="#fa6900" stroke="#7f7542" points="88,-16.5 88,-31.5 266,-31.5 266,-16.5 88,-16.5"/>
<text text-anchor="middle" x="177" y="-20.3" font-family="Times,serif" font-size="14.00">|&#45;tuples_on(1,sk₁)| ≠ |sk₁|</text>
</a>
</g>
</g>
<!-- t8_card_4&#45;&gt;c_0_122 -->
<g id="edge1" class="edge">
<title>t8_card_4&#45;&gt;c_0_122</title>
<path fill="none" stroke="black" stroke-dasharray="5,2" d="M117.5,-68.33C117.5,-68.33 117.5,-41.7 117.5,-41.7"/>
<polygon fill="black" stroke="black" points="121,-41.7 117.5,-31.7 114,-41.7 121,-41.7"/>
</g>
<!-- c_0_129 -->
<g id="node3" class="node">
<title>c_0_129</title>
<g id="a_node3"><a xlink:href="c_0_129.html" xlink:title="{sk₁ ≠ Ø}" target="_parent">
<polygon fill="#fa6900" stroke="#7f7542" points="16,-16.5 16,-31.5 70,-31.5 70,-16.5 16,-16.5"/>
<text text-anchor="middle" x="43" y="-20.3" font-family="Times,serif" font-size="14.00">sk₁ ≠ Ø</text>
</a>
</g>
</g>
<!-- t8_card_4&#45;&gt;c_0_129 -->
<g id="edge2" class="edge">
<title>t8_card_4&#45;&gt;c_0_129</title>
<path fill="none" stroke="black" stroke-dasharray="5,2" d="M82.5,-68.33C82.5,-53.86 82.5,-24 82.5,-24 82.5,-24 80,-24 80,-24"/>
<polygon fill="black" stroke="black" points="80,-20.5 70,-24 80,-27.5 80,-20.5"/>
</g>
</g>
</svg>
