<?xml version="1.0" encoding="UTF-8" standalone="no"?>
<!DOCTYPE svg PUBLIC "-//W3C//DTD SVG 1.1//EN"
 "http://www.w3.org/Graphics/SVG/1.1/DTD/svg11.dtd">
<!-- Generated by graphviz version 5.0.0 (0)
 -->
<!-- Title: proof Pages: 1 -->
<svg width="1578pt" height="415pt"
 viewBox="0.00 0.00 1578.00 415.00" xmlns="http://www.w3.org/2000/svg" xmlns:xlink="http://www.w3.org/1999/xlink">
<g id="graph0" class="graph" transform="scale(1 1) rotate(0) translate(4 411)">
<title>proof</title>
<g id="clust1" class="cluster">
<title>cluster_0</title>
<polygon fill="transparent" stroke="black" stroke-dasharray="1,5" points="8,-217 8,-399 1562,-399 1562,-217 8,-217"/>
</g>
<g id="clust2" class="cluster">
<title>cluster_1</title>
<polygon fill="transparent" stroke="black" stroke-width="2" points="798,-90 798,-197 1130,-197 1130,-90 798,-90"/>
</g>
<g id="clust3" class="cluster">
<title>cluster_2</title>
<polygon fill="transparent" stroke="black" stroke-dasharray="1,5" points="803,-8 803,-70 1125,-70 1125,-8 803,-8"/>
</g>
<!-- c_0_43 -->
<g id="node1" class="node">
<title>c_0_43</title>
<g id="a_node1"><a xlink:href="c_0_43.html" xlink:title="{carrier(R^1) = ℝ}" target="_parent">
<polygon fill="#f8edd1" stroke="#7f7542" points="1430,-300.5 1430,-315.5 1554,-315.5 1554,-300.5 1430,-300.5"/>
<text text-anchor="middle" x="1492" y="-304.3" font-family="Times,serif" font-size="14.00">carrier(R^1) = ℝ</text>
</a>
</g>
</g>
<!-- c_0_116 -->
<g id="node9" class="node">
<title>c_0_116</title>
<g id="a_node9"><a xlink:href="c_0_116.html" xlink:title="{X₁ = sk₂|carrier(sk₁) &#45;&#45;&amp;gt; X₁ ∈ bool(carrier(sk₁) × ℝ)|function(carrier(sk₁) &#45;&#45;&amp;gt; X₁)|quasi_total(carrier(sk₁) &#45;&#45;&amp;gt; X₁,carrier(sk₁),ℝ)|⇊|carrier(sk₁) = Ø}" target="_parent">
<polygon fill="#fa6900" stroke="#7f7542" points="806,-98.5 806,-188.5 1122,-188.5 1122,-98.5 806,-98.5"/>
<text text-anchor="middle" x="964" y="-177.3" font-family="Times,serif" font-size="14.00">X₁ = sk₂</text>
<polyline fill="none" stroke="#7f7542" points="806,-173.5 1122,-173.5 "/>
<text text-anchor="middle" x="964" y="-162.3" font-family="Times,serif" font-size="14.00">carrier(sk₁) &#45;&#45;&gt; X₁ ∈ bool(carrier(sk₁) × ℝ)</text>
<polyline fill="none" stroke="#7f7542" points="806,-158.5 1122,-158.5 "/>
<text text-anchor="middle" x="964" y="-147.3" font-family="Times,serif" font-size="14.00">function(carrier(sk₁) &#45;&#45;&gt; X₁)</text>
<polyline fill="none" stroke="#7f7542" points="806,-143.5 1122,-143.5 "/>
<text text-anchor="middle" x="964" y="-132.3" font-family="Times,serif" font-size="14.00">quasi_total(carrier(sk₁) &#45;&#45;&gt; X₁,carrier(sk₁),ℝ)</text>
<polyline fill="none" stroke="#7f7542" points="806,-128.5 1122,-128.5 "/>
<text text-anchor="middle" x="964" y="-117.3" font-family="Times,serif" font-size="14.00">⇊</text>
<polyline fill="none" stroke="#7f7542" points="806,-113.5 1122,-113.5 "/>
<text text-anchor="middle" x="964" y="-102.3" font-family="Times,serif" font-size="14.00">carrier(sk₁) = Ø</text>
</a>
</g>
</g>
<!-- c_0_43&#45;&gt;c_0_116 -->
<g id="edge1" class="edge">
<title>c_0_43&#45;&gt;c_0_116</title>
<path fill="none" stroke="black" d="M1492,-300.4C1492,-265.23 1492,-120 1492,-120 1492,-120 1132.06,-120 1132.06,-120"/>
<polygon fill="black" stroke="black" points="1132.06,-116.5 1122.06,-120 1132.06,-123.5 1132.06,-116.5"/>
</g>
<!-- c_0_111 -->
<g id="node2" class="node">
<title>c_0_111</title>
<g id="a_node2"><a xlink:href="c_0_111.html" xlink:title="{¬ (empty(R^1))}" target="_parent">
<polygon fill="#f8edd1" stroke="#7f7542" points="1296.5,-300.5 1296.5,-315.5 1411.5,-315.5 1411.5,-300.5 1296.5,-300.5"/>
<text text-anchor="middle" x="1354" y="-304.3" font-family="Times,serif" font-size="14.00">¬ (empty(R^1))</text>
</a>
</g>
</g>
<!-- c_0_111&#45;&gt;c_0_116 -->
<g id="edge2" class="edge">
<title>c_0_111&#45;&gt;c_0_116</title>
<path fill="none" stroke="black" d="M1354,-300.48C1354,-268.2 1354,-143 1354,-143 1354,-143 1132.07,-143 1132.07,-143"/>
<polygon fill="black" stroke="black" points="1132.07,-139.5 1122.07,-143 1132.07,-146.5 1132.07,-139.5"/>
</g>
<!-- c_0_110 -->
<g id="node3" class="node">
<title>c_0_110</title>
<g id="a_node3"><a xlink:href="c_0_110.html" xlink:title="{TopSpace&#45;like(sk₁)}" target="_parent">
<polygon fill="#fa6900" stroke="#7f7542" points="1148,-300.5 1148,-315.5 1278,-315.5 1278,-300.5 1148,-300.5"/>
<text text-anchor="middle" x="1213" y="-304.3" font-family="Times,serif" font-size="14.00">TopSpace&#45;like(sk₁)</text>
</a>
</g>
</g>
<!-- c_0_110&#45;&gt;c_0_116 -->
<g id="edge3" class="edge">
<title>c_0_110&#45;&gt;c_0_116</title>
<path fill="none" stroke="black" d="M1213,-300.37C1213,-270.87 1213,-166 1213,-166 1213,-166 1132.05,-166 1132.05,-166"/>
<polygon fill="black" stroke="black" points="1132.05,-162.5 1122.05,-166 1132.05,-169.5 1132.05,-162.5"/>
</g>
<!-- c_0_108 -->
<g id="node4" class="node">
<title>c_0_108</title>
<g id="a_node4"><a xlink:href="c_0_108.html" xlink:title="{TopStruct(sk₁)}" target="_parent">
<polygon fill="#fa6900" stroke="#7f7542" points="1026.5,-300.5 1026.5,-315.5 1129.5,-315.5 1129.5,-300.5 1026.5,-300.5"/>
<text text-anchor="middle" x="1078" y="-304.3" font-family="Times,serif" font-size="14.00">TopStruct(sk₁)</text>
</a>
</g>
</g>
<!-- c_0_108&#45;&gt;c_0_116 -->
<g id="edge4" class="edge">
<title>c_0_108&#45;&gt;c_0_116</title>
<path fill="none" stroke="black" d="M1074.25,-300.07C1074.25,-300.07 1074.25,-198.84 1074.25,-198.84"/>
<polygon fill="black" stroke="black" points="1077.75,-198.84 1074.25,-188.84 1070.75,-198.84 1077.75,-198.84"/>
</g>
<!-- c_0_105 -->
<g id="node5" class="node">
<title>c_0_105</title>
<g id="a_node5"><a xlink:href="c_0_105.html" xlink:title="{X₁ = sk₂|carrier(sk₁) &#45;&#45;&amp;gt; X₁ ∈ bool(carrier(sk₁) × ℝ)|continuous(carrier(sk₁) &#45;&#45;&amp;gt; X₁,sk₁,R^1)|function(carrier(sk₁) &#45;&#45;&amp;gt; X₁)|quasi_total(carrier(sk₁) &#45;&#45;&amp;gt; X₁,carrier(sk₁),ℝ)|⇊|carrier(sk₁) = Ø}" target="_parent">
<polygon fill="#fa6900" stroke="#7f7542" points="692,-255.5 692,-360.5 1008,-360.5 1008,-255.5 692,-255.5"/>
<text text-anchor="middle" x="850" y="-349.3" font-family="Times,serif" font-size="14.00">X₁ = sk₂</text>
<polyline fill="none" stroke="#7f7542" points="692,-345.5 1008,-345.5 "/>
<text text-anchor="middle" x="850" y="-334.3" font-family="Times,serif" font-size="14.00">carrier(sk₁) &#45;&#45;&gt; X₁ ∈ bool(carrier(sk₁) × ℝ)</text>
<polyline fill="none" stroke="#7f7542" points="692,-330.5 1008,-330.5 "/>
<text text-anchor="middle" x="850" y="-319.3" font-family="Times,serif" font-size="14.00">continuous(carrier(sk₁) &#45;&#45;&gt; X₁,sk₁,R^1)</text>
<polyline fill="none" stroke="#7f7542" points="692,-315.5 1008,-315.5 "/>
<text text-anchor="middle" x="850" y="-304.3" font-family="Times,serif" font-size="14.00">function(carrier(sk₁) &#45;&#45;&gt; X₁)</text>
<polyline fill="none" stroke="#7f7542" points="692,-300.5 1008,-300.5 "/>
<text text-anchor="middle" x="850" y="-289.3" font-family="Times,serif" font-size="14.00">quasi_total(carrier(sk₁) &#45;&#45;&gt; X₁,carrier(sk₁),ℝ)</text>
<polyline fill="none" stroke="#7f7542" points="692,-285.5 1008,-285.5 "/>
<text text-anchor="middle" x="850" y="-274.3" font-family="Times,serif" font-size="14.00">⇊</text>
<polyline fill="none" stroke="#7f7542" points="692,-270.5 1008,-270.5 "/>
<text text-anchor="middle" x="850" y="-259.3" font-family="Times,serif" font-size="14.00">carrier(sk₁) = Ø</text>
</a>
</g>
</g>
<!-- c_0_105&#45;&gt;c_0_116 -->
<g id="edge5" class="edge">
<title>c_0_105&#45;&gt;c_0_116</title>
<path fill="none" stroke="black" d="M940.67,-255.5C940.67,-255.5 940.67,-198.59 940.67,-198.59"/>
<polygon fill="black" stroke="black" points="944.17,-198.59 940.67,-188.59 937.17,-198.59 944.17,-198.59"/>
</g>
<!-- c_0_109 -->
<g id="node6" class="node">
<title>c_0_109</title>
<g id="a_node6"><a xlink:href="c_0_109.html" xlink:title="{TopSpace&#45;like(R^1)}" target="_parent">
<polygon fill="#f8edd1" stroke="#7f7542" points="532.5,-300.5 532.5,-315.5 673.5,-315.5 673.5,-300.5 532.5,-300.5"/>
<text text-anchor="middle" x="603" y="-304.3" font-family="Times,serif" font-size="14.00">TopSpace&#45;like(R^1)</text>
</a>
</g>
</g>
<!-- c_0_109&#45;&gt;c_0_116 -->
<g id="edge6" class="edge">
<title>c_0_109&#45;&gt;c_0_116</title>
<path fill="none" stroke="black" d="M603,-300.36C603,-269.79 603,-158 603,-158 603,-158 795.92,-158 795.92,-158"/>
<polygon fill="black" stroke="black" points="795.92,-161.5 805.92,-158 795.92,-154.5 795.92,-161.5"/>
</g>
<!-- c_0_106 -->
<g id="node7" class="node">
<title>c_0_106</title>
<g id="a_node7"><a xlink:href="c_0_106.html" xlink:title="{TopSpace&#45;like(X₁)|TopSpace&#45;like(X₃)|TopStruct(X₁)|TopStruct(X₃)|carrier(X₁) &#45;&#45;&amp;gt; X₂ ∈ bool(carrier(X₁) × carrier(X₃))|function(carrier(X₁) &#45;&#45;&amp;gt; X₂)|quasi_total(carrier(X₁) &#45;&#45;&amp;gt; X₂,carrier(X₁),carrier(X₃))|⇊|carrier(X₁) = Ø|continuous(carrier(X₁) &#45;&#45;&amp;gt; X₂,X₁,X₃)|empty(X₃)}" target="_parent">
<polygon fill="#f8edd1" stroke="#7f7542" points="148,-225.5 148,-390.5 514,-390.5 514,-225.5 148,-225.5"/>
<text text-anchor="middle" x="331" y="-379.3" font-family="Times,serif" font-size="14.00">TopSpace&#45;like(X₁)</text>
<polyline fill="none" stroke="#7f7542" points="148,-375.5 514,-375.5 "/>
<text text-anchor="middle" x="331" y="-364.3" font-family="Times,serif" font-size="14.00">TopSpace&#45;like(X₃)</text>
<polyline fill="none" stroke="#7f7542" points="148,-360.5 514,-360.5 "/>
<text text-anchor="middle" x="331" y="-349.3" font-family="Times,serif" font-size="14.00">TopStruct(X₁)</text>
<polyline fill="none" stroke="#7f7542" points="148,-345.5 514,-345.5 "/>
<text text-anchor="middle" x="331" y="-334.3" font-family="Times,serif" font-size="14.00">TopStruct(X₃)</text>
<polyline fill="none" stroke="#7f7542" points="148,-330.5 514,-330.5 "/>
<text text-anchor="middle" x="331" y="-319.3" font-family="Times,serif" font-size="14.00">carrier(X₁) &#45;&#45;&gt; X₂ ∈ bool(carrier(X₁) × carrier(X₃))</text>
<polyline fill="none" stroke="#7f7542" points="148,-315.5 514,-315.5 "/>
<text text-anchor="middle" x="331" y="-304.3" font-family="Times,serif" font-size="14.00">function(carrier(X₁) &#45;&#45;&gt; X₂)</text>
<polyline fill="none" stroke="#7f7542" points="148,-300.5 514,-300.5 "/>
<text text-anchor="middle" x="331" y="-289.3" font-family="Times,serif" font-size="14.00">quasi_total(carrier(X₁) &#45;&#45;&gt; X₂,carrier(X₁),carrier(X₃))</text>
<polyline fill="none" stroke="#7f7542" points="148,-285.5 514,-285.5 "/>
<text text-anchor="middle" x="331" y="-274.3" font-family="Times,serif" font-size="14.00">⇊</text>
<polyline fill="none" stroke="#7f7542" points="148,-270.5 514,-270.5 "/>
<text text-anchor="middle" x="331" y="-259.3" font-family="Times,serif" font-size="14.00">carrier(X₁) = Ø</text>
<polyline fill="none" stroke="#7f7542" points="148,-255.5 514,-255.5 "/>
<text text-anchor="middle" x="331" y="-244.3" font-family="Times,serif" font-size="14.00">continuous(carrier(X₁) &#45;&#45;&gt; X₂,X₁,X₃)</text>
<polyline fill="none" stroke="#7f7542" points="148,-240.5 514,-240.5 "/>
<text text-anchor="middle" x="331" y="-229.3" font-family="Times,serif" font-size="14.00">empty(X₃)</text>
</a>
</g>
</g>
<!-- c_0_106&#45;&gt;c_0_116 -->
<g id="edge7" class="edge">
<title>c_0_106&#45;&gt;c_0_116</title>
<path fill="none" stroke="black" d="M514.23,-240C671.62,-240 873.33,-240 873.33,-240 873.33,-240 873.33,-198.64 873.33,-198.64"/>
<polygon fill="black" stroke="black" points="876.83,-198.64 873.33,-188.64 869.83,-198.64 876.83,-198.64"/>
</g>
<!-- c_0_107 -->
<g id="node8" class="node">
<title>c_0_107</title>
<g id="a_node8"><a xlink:href="c_0_107.html" xlink:title="{TopStruct(R^1)}" target="_parent">
<polygon fill="#f8edd1" stroke="#7f7542" points="16.5,-300.5 16.5,-315.5 129.5,-315.5 129.5,-300.5 16.5,-300.5"/>
<text text-anchor="middle" x="73" y="-304.3" font-family="Times,serif" font-size="14.00">TopStruct(R^1)</text>
</a>
</g>
</g>
<!-- c_0_107&#45;&gt;c_0_116 -->
<g id="edge8" class="edge">
<title>c_0_107&#45;&gt;c_0_116</title>
<path fill="none" stroke="black" d="M73,-300.27C73,-265.81 73,-128 73,-128 73,-128 795.99,-128 795.99,-128"/>
<polygon fill="black" stroke="black" points="795.99,-131.5 805.99,-128 795.99,-124.5 795.99,-131.5"/>
</g>
<!-- c_0_120 -->
<g id="node10" class="node">
<title>c_0_120</title>
<g id="a_node10"><a xlink:href="c_0_120.html" xlink:title="{carrier(sk₁) &#45;&#45;&amp;gt; sk₂ ∈ bool(carrier(sk₁) × ℝ)|⇊|carrier(sk₁) = Ø}" target="_parent">
<polygon fill="#fa6900" stroke="#7f7542" points="811.5,-16.5 811.5,-61.5 1116.5,-61.5 1116.5,-16.5 811.5,-16.5"/>
<text text-anchor="middle" x="964" y="-50.3" font-family="Times,serif" font-size="14.00">carrier(sk₁) &#45;&#45;&gt; sk₂ ∈ bool(carrier(sk₁) × ℝ)</text>
<polyline fill="none" stroke="#7f7542" points="811.5,-46.5 1116.5,-46.5 "/>
<text text-anchor="middle" x="964" y="-35.3" font-family="Times,serif" font-size="14.00">⇊</text>
<polyline fill="none" stroke="#7f7542" points="811.5,-31.5 1116.5,-31.5 "/>
<text text-anchor="middle" x="964" y="-20.3" font-family="Times,serif" font-size="14.00">carrier(sk₁) = Ø</text>
</a>
</g>
</g>
<!-- c_0_116&#45;&gt;c_0_120 -->
<g id="edge9" class="edge">
<title>c_0_116&#45;&gt;c_0_120</title>
<path fill="none" stroke="black" stroke-dasharray="5,2" d="M964,-98.27C964,-98.27 964,-71.59 964,-71.59"/>
<polygon fill="black" stroke="black" points="967.5,-71.59 964,-61.59 960.5,-71.59 967.5,-71.59"/>
</g>
</g>
</svg>
