<?xml version="1.0" encoding="UTF-8" standalone="no"?>
<!DOCTYPE svg PUBLIC "-//W3C//DTD SVG 1.1//EN"
 "http://www.w3.org/Graphics/SVG/1.1/DTD/svg11.dtd">
<!-- Generated by graphviz version 5.0.0 (0)
 -->
<!-- Title: proof Pages: 1 -->
<svg width="132pt" height="190pt"
 viewBox="0.00 0.00 132.00 190.00" xmlns="http://www.w3.org/2000/svg" xmlns:xlink="http://www.w3.org/1999/xlink">
<g id="graph0" class="graph" transform="scale(1 1) rotate(0) translate(4 186)">
<title>proof</title>
<g id="clust1" class="cluster">
<title>cluster_0</title>
<polygon fill="transparent" stroke="black" stroke-dasharray="1,5" points="19,-142 19,-174 105,-174 105,-142 19,-142"/>
</g>
<g id="clust2" class="cluster">
<title>cluster_1</title>
<polygon fill="transparent" stroke="black" stroke-width="2" points="8,-60 8,-122 116,-122 116,-60 8,-60"/>
</g>
<g id="clust3" class="cluster">
<title>cluster_2</title>
<polygon fill="transparent" stroke="black" stroke-dasharray="1,5" points="8,-8 8,-40 116,-40 116,-8 8,-8"/>
</g>
<!-- t3_subset -->
<g id="node1" class="node">
<title>t3_subset</title>
<g id="a_node1"><a xlink:href="t3_subset.html" xlink:title="t3_subset" target="_vizar">
<polygon fill="#69d2e7" stroke="#7f7542" points="27,-150.5 27,-165.5 97,-165.5 97,-150.5 27,-150.5"/>
<text text-anchor="middle" x="62" y="-154.3" font-family="Times,serif" font-size="14.00">t3_subset</text>
</a>
</g>
</g>
<!-- c_0_84 -->
<g id="node2" class="node">
<title>c_0_84</title>
<g id="a_node2"><a xlink:href="c_0_84.html" xlink:title="{X₁ ⊆ X₂|⇊|X₁ ∈ bool(X₂)}" target="_vizar">
<polygon fill="#f8edd1" stroke="#7f7542" points="16.5,-68.5 16.5,-113.5 107.5,-113.5 107.5,-68.5 16.5,-68.5"/>
<text text-anchor="middle" x="62" y="-102.3" font-family="Times,serif" font-size="14.00">X₁ ⊆ X₂</text>
<polyline fill="none" stroke="#7f7542" points="16.5,-98.5 107.5,-98.5 "/>
<text text-anchor="middle" x="62" y="-87.3" font-family="Times,serif" font-size="14.00">⇊</text>
<polyline fill="none" stroke="#7f7542" points="16.5,-83.5 107.5,-83.5 "/>
<text text-anchor="middle" x="62" y="-72.3" font-family="Times,serif" font-size="14.00">X₁ ∈ bool(X₂)</text>
</a>
</g>
</g>
<!-- t3_subset&#45;&gt;c_0_84 -->
<g id="edge1" class="edge">
<title>t3_subset&#45;&gt;c_0_84</title>
<path fill="none" stroke="black" d="M62,-150.31C62,-150.31 62,-123.76 62,-123.76"/>
<polygon fill="black" stroke="black" points="65.5,-123.76 62,-113.76 58.5,-123.76 65.5,-123.76"/>
</g>
<!-- c_0_97 -->
<g id="node3" class="node">
<title>c_0_97</title>
<g id="a_node3"><a xlink:href="c_0_97.html" xlink:title="{X₁ ∈ bool(X₁)}" target="_vizar">
<polygon fill="#f8edd1" stroke="#7f7542" points="16.5,-16.5 16.5,-31.5 107.5,-31.5 107.5,-16.5 16.5,-16.5"/>
<text text-anchor="middle" x="62" y="-20.3" font-family="Times,serif" font-size="14.00">X₁ ∈ bool(X₁)</text>
</a>
</g>
</g>
<!-- c_0_84&#45;&gt;c_0_97 -->
<g id="edge2" class="edge">
<title>c_0_84&#45;&gt;c_0_97</title>
<path fill="none" stroke="black" stroke-dasharray="5,2" d="M62,-68.32C62,-68.32 62,-41.59 62,-41.59"/>
<polygon fill="black" stroke="black" points="65.5,-41.59 62,-31.59 58.5,-41.59 65.5,-41.59"/>
</g>
</g>
</svg>
