<?xml version="1.0" encoding="UTF-8" standalone="no"?>
<!DOCTYPE svg PUBLIC "-//W3C//DTD SVG 1.1//EN"
 "http://www.w3.org/Graphics/SVG/1.1/DTD/svg11.dtd">
<!-- Generated by graphviz version 5.0.0 (0)
 -->
<!-- Title: proof Pages: 1 -->
<svg width="836pt" height="250pt"
 viewBox="0.00 0.00 836.00 250.00" xmlns="http://www.w3.org/2000/svg" xmlns:xlink="http://www.w3.org/1999/xlink">
<g id="graph0" class="graph" transform="scale(1 1) rotate(0) translate(4 246)">
<title>proof</title>
<g id="clust1" class="cluster">
<title>cluster_0</title>
<polygon fill="transparent" stroke="black" stroke-dasharray="1,5" points="377,-202 377,-234 483,-234 483,-202 377,-202"/>
</g>
<g id="clust2" class="cluster">
<title>cluster_1</title>
<polygon fill="transparent" stroke="black" stroke-width="2" points="360,-150 360,-182 500,-182 500,-150 360,-150"/>
</g>
<g id="clust3" class="cluster">
<title>cluster_2</title>
<polygon fill="transparent" stroke="black" stroke-dasharray="1,5" points="8,-8 8,-130 820,-130 820,-8 8,-8"/>
</g>
<!-- t17_topmetr -->
<g id="node1" class="node">
<title>t17_topmetr</title>
<g id="a_node1"><a xlink:href="t17_topmetr.html" xlink:title="t17_topmetr" target="_parent">
<polygon fill="#69d2e7" stroke="#7f7542" points="385.5,-210.5 385.5,-225.5 474.5,-225.5 474.5,-210.5 385.5,-210.5"/>
<text text-anchor="middle" x="430" y="-214.3" font-family="Times,serif" font-size="14.00">t17_topmetr</text>
</a>
</g>
</g>
<!-- c_0_43 -->
<g id="node2" class="node">
<title>c_0_43</title>
<g id="a_node2"><a xlink:href="c_0_43.html" xlink:title="{carrier(R^1) = ℝ}" target="_parent">
<polygon fill="#f8edd1" stroke="#7f7542" points="368,-158.5 368,-173.5 492,-173.5 492,-158.5 368,-158.5"/>
<text text-anchor="middle" x="430" y="-162.3" font-family="Times,serif" font-size="14.00">carrier(R^1) = ℝ</text>
</a>
</g>
</g>
<!-- t17_topmetr&#45;&gt;c_0_43 -->
<g id="edge1" class="edge">
<title>t17_topmetr&#45;&gt;c_0_43</title>
<path fill="none" stroke="black" d="M430,-210.33C430,-210.33 430,-183.7 430,-183.7"/>
<polygon fill="black" stroke="black" points="433.5,-183.7 430,-173.7 426.5,-183.7 433.5,-183.7"/>
</g>
<!-- c_0_53 -->
<g id="node3" class="node">
<title>c_0_53</title>
<g id="a_node3"><a xlink:href="c_0_53.html" xlink:title="{X₁ ∈ bool(carrier(sk₁) × ℝ)|continuous(X₁,sk₁,R^1)|function(X₁)|quasi_total(X₁,carrier(sk₁),ℝ)|⇊|sk₃(X₁) ∈ carrier(sk₁)}" target="_parent">
<polygon fill="#fa6900" stroke="#7f7542" points="606.5,-24 606.5,-114 811.5,-114 811.5,-24 606.5,-24"/>
<text text-anchor="middle" x="709" y="-102.8" font-family="Times,serif" font-size="14.00">X₁ ∈ bool(carrier(sk₁) × ℝ)</text>
<polyline fill="none" stroke="#7f7542" points="606.5,-99 811.5,-99 "/>
<text text-anchor="middle" x="709" y="-87.8" font-family="Times,serif" font-size="14.00">continuous(X₁,sk₁,R^1)</text>
<polyline fill="none" stroke="#7f7542" points="606.5,-84 811.5,-84 "/>
<text text-anchor="middle" x="709" y="-72.8" font-family="Times,serif" font-size="14.00">function(X₁)</text>
<polyline fill="none" stroke="#7f7542" points="606.5,-69 811.5,-69 "/>
<text text-anchor="middle" x="709" y="-57.8" font-family="Times,serif" font-size="14.00">quasi_total(X₁,carrier(sk₁),ℝ)</text>
<polyline fill="none" stroke="#7f7542" points="606.5,-54 811.5,-54 "/>
<text text-anchor="middle" x="709" y="-42.8" font-family="Times,serif" font-size="14.00">⇊</text>
<polyline fill="none" stroke="#7f7542" points="606.5,-39 811.5,-39 "/>
<text text-anchor="middle" x="709" y="-27.8" font-family="Times,serif" font-size="14.00">sk₃(X₁) ∈ carrier(sk₁)</text>
</a>
</g>
</g>
<!-- c_0_43&#45;&gt;c_0_53 -->
<g id="edge2" class="edge">
<title>c_0_43&#45;&gt;c_0_53</title>
<path fill="none" stroke="black" stroke-dasharray="5,2" d="M492.27,-166C574.49,-166 709,-166 709,-166 709,-166 709,-124.09 709,-124.09"/>
<polygon fill="black" stroke="black" points="712.5,-124.09 709,-114.09 705.5,-124.09 712.5,-124.09"/>
</g>
<!-- c_0_116 -->
<g id="node4" class="node">
<title>c_0_116</title>
<g id="a_node4"><a xlink:href="c_0_116.html" xlink:title="{X₁ = sk₂|carrier(sk₁) &#45;&#45;&amp;gt; X₁ ∈ bool(carrier(sk₁) × ℝ)|function(carrier(sk₁) &#45;&#45;&amp;gt; X₁)|quasi_total(carrier(sk₁) &#45;&#45;&amp;gt; X₁,carrier(sk₁),ℝ)|⇊|carrier(sk₁) = Ø}" target="_parent">
<polygon fill="#fa6900" stroke="#7f7542" points="272,-24 272,-114 588,-114 588,-24 272,-24"/>
<text text-anchor="middle" x="430" y="-102.8" font-family="Times,serif" font-size="14.00">X₁ = sk₂</text>
<polyline fill="none" stroke="#7f7542" points="272,-99 588,-99 "/>
<text text-anchor="middle" x="430" y="-87.8" font-family="Times,serif" font-size="14.00">carrier(sk₁) &#45;&#45;&gt; X₁ ∈ bool(carrier(sk₁) × ℝ)</text>
<polyline fill="none" stroke="#7f7542" points="272,-84 588,-84 "/>
<text text-anchor="middle" x="430" y="-72.8" font-family="Times,serif" font-size="14.00">function(carrier(sk₁) &#45;&#45;&gt; X₁)</text>
<polyline fill="none" stroke="#7f7542" points="272,-69 588,-69 "/>
<text text-anchor="middle" x="430" y="-57.8" font-family="Times,serif" font-size="14.00">quasi_total(carrier(sk₁) &#45;&#45;&gt; X₁,carrier(sk₁),ℝ)</text>
<polyline fill="none" stroke="#7f7542" points="272,-54 588,-54 "/>
<text text-anchor="middle" x="430" y="-42.8" font-family="Times,serif" font-size="14.00">⇊</text>
<polyline fill="none" stroke="#7f7542" points="272,-39 588,-39 "/>
<text text-anchor="middle" x="430" y="-27.8" font-family="Times,serif" font-size="14.00">carrier(sk₁) = Ø</text>
</a>
</g>
</g>
<!-- c_0_43&#45;&gt;c_0_116 -->
<g id="edge3" class="edge">
<title>c_0_43&#45;&gt;c_0_116</title>
<path fill="none" stroke="black" stroke-dasharray="5,2" d="M450.67,-158.39C450.67,-158.39 450.67,-124.41 450.67,-124.41"/>
<polygon fill="black" stroke="black" points="454.17,-124.41 450.67,-114.41 447.17,-124.41 454.17,-124.41"/>
</g>
<!-- c_0_52 -->
<g id="node5" class="node">
<title>c_0_52</title>
<g id="a_node5"><a xlink:href="c_0_52.html" xlink:title="{X₁ ∈ bool(carrier(sk₁) × ℝ)|carrier(sk₁) . ℝ . X₁ . sk₃(X₁) = sk₂|continuous(X₁,sk₁,R^1)|function(X₁)|quasi_total(X₁,carrier(sk₁),ℝ)|⇊|⊥}" target="_parent">
<polygon fill="#fa6900" stroke="#7f7542" points="16.5,-16.5 16.5,-121.5 253.5,-121.5 253.5,-16.5 16.5,-16.5"/>
<text text-anchor="middle" x="135" y="-110.3" font-family="Times,serif" font-size="14.00">X₁ ∈ bool(carrier(sk₁) × ℝ)</text>
<polyline fill="none" stroke="#7f7542" points="16.5,-106.5 253.5,-106.5 "/>
<text text-anchor="middle" x="135" y="-95.3" font-family="Times,serif" font-size="14.00">carrier(sk₁) . ℝ . X₁ . sk₃(X₁) = sk₂</text>
<polyline fill="none" stroke="#7f7542" points="16.5,-91.5 253.5,-91.5 "/>
<text text-anchor="middle" x="135" y="-80.3" font-family="Times,serif" font-size="14.00">continuous(X₁,sk₁,R^1)</text>
<polyline fill="none" stroke="#7f7542" points="16.5,-76.5 253.5,-76.5 "/>
<text text-anchor="middle" x="135" y="-65.3" font-family="Times,serif" font-size="14.00">function(X₁)</text>
<polyline fill="none" stroke="#7f7542" points="16.5,-61.5 253.5,-61.5 "/>
<text text-anchor="middle" x="135" y="-50.3" font-family="Times,serif" font-size="14.00">quasi_total(X₁,carrier(sk₁),ℝ)</text>
<polyline fill="none" stroke="#7f7542" points="16.5,-46.5 253.5,-46.5 "/>
<text text-anchor="middle" x="135" y="-35.3" font-family="Times,serif" font-size="14.00">⇊</text>
<polyline fill="none" stroke="#7f7542" points="16.5,-31.5 253.5,-31.5 "/>
<text text-anchor="middle" x="135" y="-20.3" font-family="Times,serif" font-size="14.00">⊥</text>
</a>
</g>
</g>
<!-- c_0_43&#45;&gt;c_0_52 -->
<g id="edge4" class="edge">
<title>c_0_43&#45;&gt;c_0_52</title>
<path fill="none" stroke="black" stroke-dasharray="5,2" d="M409.33,-158.07C409.33,-144.44 409.33,-118 409.33,-118 409.33,-118 263.73,-118 263.73,-118"/>
<polygon fill="black" stroke="black" points="263.73,-114.5 253.73,-118 263.73,-121.5 263.73,-114.5"/>
</g>
</g>
</svg>
