<?xml version="1.0" encoding="UTF-8" standalone="no"?>
<!DOCTYPE svg PUBLIC "-//W3C//DTD SVG 1.1//EN"
 "http://www.w3.org/Graphics/SVG/1.1/DTD/svg11.dtd">
<!-- Generated by graphviz version 5.0.0 (0)
 -->
<!-- Title: proof Pages: 1 -->
<svg width="406pt" height="340pt"
 viewBox="0.00 0.00 406.00 340.00" xmlns="http://www.w3.org/2000/svg" xmlns:xlink="http://www.w3.org/1999/xlink">
<g id="graph0" class="graph" transform="scale(1 1) rotate(0) translate(4 336)">
<title>proof</title>
<g id="clust1" class="cluster">
<title>cluster_0</title>
<polygon fill="transparent" stroke="black" stroke-dasharray="1,5" points="120,-262 120,-324 298,-324 298,-262 120,-262"/>
</g>
<g id="clust2" class="cluster">
<title>cluster_1</title>
<polygon fill="transparent" stroke="black" stroke-width="2" points="145,-210 145,-242 253,-242 253,-210 145,-210"/>
</g>
<g id="clust3" class="cluster">
<title>cluster_2</title>
<polygon fill="transparent" stroke="black" stroke-dasharray="1,5" points="8,-8 8,-190 390,-190 390,-8 8,-8"/>
</g>
<!-- c_0_84 -->
<g id="node1" class="node">
<title>c_0_84</title>
<g id="a_node1"><a xlink:href="c_0_84.html" xlink:title="{X₁ ⊆ X₂|⇊|X₁ ∈ bool(X₂)}" target="_parent">
<polygon fill="#f8edd1" stroke="#7f7542" points="198.5,-270.5 198.5,-315.5 289.5,-315.5 289.5,-270.5 198.5,-270.5"/>
<text text-anchor="middle" x="244" y="-304.3" font-family="Times,serif" font-size="14.00">X₁ ⊆ X₂</text>
<polyline fill="none" stroke="#7f7542" points="198.5,-300.5 289.5,-300.5 "/>
<text text-anchor="middle" x="244" y="-289.3" font-family="Times,serif" font-size="14.00">⇊</text>
<polyline fill="none" stroke="#7f7542" points="198.5,-285.5 289.5,-285.5 "/>
<text text-anchor="middle" x="244" y="-274.3" font-family="Times,serif" font-size="14.00">X₁ ∈ bool(X₂)</text>
</a>
</g>
</g>
<!-- c_0_97 -->
<g id="node3" class="node">
<title>c_0_97</title>
<g id="a_node3"><a xlink:href="c_0_97.html" xlink:title="{X₁ ∈ bool(X₁)}" target="_parent">
<polygon fill="#f8edd1" stroke="#7f7542" points="153.5,-218.5 153.5,-233.5 244.5,-233.5 244.5,-218.5 153.5,-218.5"/>
<text text-anchor="middle" x="199" y="-222.3" font-family="Times,serif" font-size="14.00">X₁ ∈ bool(X₁)</text>
</a>
</g>
</g>
<!-- c_0_84&#45;&gt;c_0_97 -->
<g id="edge1" class="edge">
<title>c_0_84&#45;&gt;c_0_97</title>
<path fill="none" stroke="black" d="M221.5,-270.32C221.5,-270.32 221.5,-243.59 221.5,-243.59"/>
<polygon fill="black" stroke="black" points="225,-243.59 221.5,-233.59 218,-243.59 225,-243.59"/>
</g>
<!-- c_0_85 -->
<g id="node2" class="node">
<title>c_0_85</title>
<g id="a_node2"><a xlink:href="c_0_85.html" xlink:title="{X₁ ⊆ X₁}" target="_parent">
<polygon fill="#f8edd1" stroke="#7f7542" points="128,-285.5 128,-300.5 180,-300.5 180,-285.5 128,-285.5"/>
<text text-anchor="middle" x="154" y="-289.3" font-family="Times,serif" font-size="14.00">X₁ ⊆ X₁</text>
</a>
</g>
</g>
<!-- c_0_85&#45;&gt;c_0_97 -->
<g id="edge2" class="edge">
<title>c_0_85&#45;&gt;c_0_97</title>
<path fill="none" stroke="black" d="M166.75,-285.31C166.75,-285.31 166.75,-243.6 166.75,-243.6"/>
<polygon fill="black" stroke="black" points="170.25,-243.6 166.75,-233.6 163.25,-243.6 170.25,-243.6"/>
</g>
<!-- c_0_106 -->
<g id="node4" class="node">
<title>c_0_106</title>
<g id="a_node4"><a xlink:href="c_0_106.html" xlink:title="{TopSpace&#45;like(X₁)|TopSpace&#45;like(X₃)|TopStruct(X₁)|TopStruct(X₃)|carrier(X₁) &#45;&#45;&amp;gt; X₂ ∈ bool(carrier(X₁) × carrier(X₃))|function(carrier(X₁) &#45;&#45;&amp;gt; X₂)|quasi_total(carrier(X₁) &#45;&#45;&amp;gt; X₂,carrier(X₁),carrier(X₃))|⇊|carrier(X₁) = Ø|continuous(carrier(X₁) &#45;&#45;&amp;gt; X₂,X₁,X₃)|empty(X₃)}" target="_parent">
<polygon fill="#f8edd1" stroke="#7f7542" points="16,-16.5 16,-181.5 382,-181.5 382,-16.5 16,-16.5"/>
<text text-anchor="middle" x="199" y="-170.3" font-family="Times,serif" font-size="14.00">TopSpace&#45;like(X₁)</text>
<polyline fill="none" stroke="#7f7542" points="16,-166.5 382,-166.5 "/>
<text text-anchor="middle" x="199" y="-155.3" font-family="Times,serif" font-size="14.00">TopSpace&#45;like(X₃)</text>
<polyline fill="none" stroke="#7f7542" points="16,-151.5 382,-151.5 "/>
<text text-anchor="middle" x="199" y="-140.3" font-family="Times,serif" font-size="14.00">TopStruct(X₁)</text>
<polyline fill="none" stroke="#7f7542" points="16,-136.5 382,-136.5 "/>
<text text-anchor="middle" x="199" y="-125.3" font-family="Times,serif" font-size="14.00">TopStruct(X₃)</text>
<polyline fill="none" stroke="#7f7542" points="16,-121.5 382,-121.5 "/>
<text text-anchor="middle" x="199" y="-110.3" font-family="Times,serif" font-size="14.00">carrier(X₁) &#45;&#45;&gt; X₂ ∈ bool(carrier(X₁) × carrier(X₃))</text>
<polyline fill="none" stroke="#7f7542" points="16,-106.5 382,-106.5 "/>
<text text-anchor="middle" x="199" y="-95.3" font-family="Times,serif" font-size="14.00">function(carrier(X₁) &#45;&#45;&gt; X₂)</text>
<polyline fill="none" stroke="#7f7542" points="16,-91.5 382,-91.5 "/>
<text text-anchor="middle" x="199" y="-80.3" font-family="Times,serif" font-size="14.00">quasi_total(carrier(X₁) &#45;&#45;&gt; X₂,carrier(X₁),carrier(X₃))</text>
<polyline fill="none" stroke="#7f7542" points="16,-76.5 382,-76.5 "/>
<text text-anchor="middle" x="199" y="-65.3" font-family="Times,serif" font-size="14.00">⇊</text>
<polyline fill="none" stroke="#7f7542" points="16,-61.5 382,-61.5 "/>
<text text-anchor="middle" x="199" y="-50.3" font-family="Times,serif" font-size="14.00">carrier(X₁) = Ø</text>
<polyline fill="none" stroke="#7f7542" points="16,-46.5 382,-46.5 "/>
<text text-anchor="middle" x="199" y="-35.3" font-family="Times,serif" font-size="14.00">continuous(carrier(X₁) &#45;&#45;&gt; X₂,X₁,X₃)</text>
<polyline fill="none" stroke="#7f7542" points="16,-31.5 382,-31.5 "/>
<text text-anchor="middle" x="199" y="-20.3" font-family="Times,serif" font-size="14.00">empty(X₃)</text>
</a>
</g>
</g>
<!-- c_0_97&#45;&gt;c_0_106 -->
<g id="edge3" class="edge">
<title>c_0_97&#45;&gt;c_0_106</title>
<path fill="none" stroke="black" stroke-dasharray="5,2" d="M199,-218.44C199,-218.44 199,-191.68 199,-191.68"/>
<polygon fill="black" stroke="black" points="202.5,-191.68 199,-181.68 195.5,-191.68 202.5,-191.68"/>
</g>
</g>
</svg>
