<?xml version="1.0" encoding="UTF-8" standalone="no"?>
<!DOCTYPE svg PUBLIC "-//W3C//DTD SVG 1.1//EN"
 "http://www.w3.org/Graphics/SVG/1.1/DTD/svg11.dtd">
<!-- Generated by graphviz version 5.0.0 (0)
 -->
<!-- Title: proof Pages: 1 -->
<svg width="1404pt" height="610pt"
 viewBox="0.00 0.00 1404.00 610.00" xmlns="http://www.w3.org/2000/svg" xmlns:xlink="http://www.w3.org/1999/xlink">
<g id="graph0" class="graph" transform="scale(1 1) rotate(0) translate(4 606)">
<title>proof</title>
<g id="clust1" class="cluster">
<title>cluster_0</title>
<polygon fill="transparent" stroke="black" stroke-dasharray="1,5" points="8,-337 8,-594 1388,-594 1388,-337 8,-337"/>
</g>
<g id="clust2" class="cluster">
<title>cluster_1</title>
<polygon fill="transparent" stroke="black" stroke-width="2" points="462,-135 462,-317 844,-317 844,-135 462,-135"/>
</g>
<g id="clust3" class="cluster">
<title>cluster_2</title>
<polygon fill="transparent" stroke="black" stroke-dasharray="1,5" points="487,-8 487,-115 819,-115 819,-8 487,-8"/>
</g>
<!-- c_0_96 -->
<g id="node1" class="node">
<title>c_0_96</title>
<g id="a_node1"><a xlink:href="c_0_96.html" xlink:title="{TopSpace&#45;like(X₁)|TopSpace&#45;like(X₃)|TopStruct(X₁)|TopStruct(X₃)|carrier(X₁) &#45;&#45;&amp;gt; X₂ ∈ bool(carrier(X₁) × carrier(X₃))|function(carrier(X₁) &#45;&#45;&amp;gt; X₂)|quasi_total(carrier(X₁) &#45;&#45;&amp;gt; X₂,carrier(X₁),carrier(X₃))|⇊|X₂ ∈ sk₁₀(X₁,X₃,carrier(X₁) &#45;&#45;&amp;gt; X₂)|carrier(X₁) = Ø|continuous(carrier(X₁) &#45;&#45;&amp;gt; X₂,X₁,X₃)|empty(X₃)}" target="_vizar">
<polygon fill="#f8edd1" stroke="#7f7542" points="1014,-375.5 1014,-555.5 1380,-555.5 1380,-375.5 1014,-375.5"/>
<text text-anchor="middle" x="1197" y="-544.3" font-family="Times,serif" font-size="14.00">TopSpace&#45;like(X₁)</text>
<polyline fill="none" stroke="#7f7542" points="1014,-540.5 1380,-540.5 "/>
<text text-anchor="middle" x="1197" y="-529.3" font-family="Times,serif" font-size="14.00">TopSpace&#45;like(X₃)</text>
<polyline fill="none" stroke="#7f7542" points="1014,-525.5 1380,-525.5 "/>
<text text-anchor="middle" x="1197" y="-514.3" font-family="Times,serif" font-size="14.00">TopStruct(X₁)</text>
<polyline fill="none" stroke="#7f7542" points="1014,-510.5 1380,-510.5 "/>
<text text-anchor="middle" x="1197" y="-499.3" font-family="Times,serif" font-size="14.00">TopStruct(X₃)</text>
<polyline fill="none" stroke="#7f7542" points="1014,-495.5 1380,-495.5 "/>
<text text-anchor="middle" x="1197" y="-484.3" font-family="Times,serif" font-size="14.00">carrier(X₁) &#45;&#45;&gt; X₂ ∈ bool(carrier(X₁) × carrier(X₃))</text>
<polyline fill="none" stroke="#7f7542" points="1014,-480.5 1380,-480.5 "/>
<text text-anchor="middle" x="1197" y="-469.3" font-family="Times,serif" font-size="14.00">function(carrier(X₁) &#45;&#45;&gt; X₂)</text>
<polyline fill="none" stroke="#7f7542" points="1014,-465.5 1380,-465.5 "/>
<text text-anchor="middle" x="1197" y="-454.3" font-family="Times,serif" font-size="14.00">quasi_total(carrier(X₁) &#45;&#45;&gt; X₂,carrier(X₁),carrier(X₃))</text>
<polyline fill="none" stroke="#7f7542" points="1014,-450.5 1380,-450.5 "/>
<text text-anchor="middle" x="1197" y="-439.3" font-family="Times,serif" font-size="14.00">⇊</text>
<polyline fill="none" stroke="#7f7542" points="1014,-435.5 1380,-435.5 "/>
<text text-anchor="middle" x="1197" y="-424.3" font-family="Times,serif" font-size="14.00">X₂ ∈ sk₁₀(X₁,X₃,carrier(X₁) &#45;&#45;&gt; X₂)</text>
<polyline fill="none" stroke="#7f7542" points="1014,-420.5 1380,-420.5 "/>
<text text-anchor="middle" x="1197" y="-409.3" font-family="Times,serif" font-size="14.00">carrier(X₁) = Ø</text>
<polyline fill="none" stroke="#7f7542" points="1014,-405.5 1380,-405.5 "/>
<text text-anchor="middle" x="1197" y="-394.3" font-family="Times,serif" font-size="14.00">continuous(carrier(X₁) &#45;&#45;&gt; X₂,X₁,X₃)</text>
<polyline fill="none" stroke="#7f7542" points="1014,-390.5 1380,-390.5 "/>
<text text-anchor="middle" x="1197" y="-379.3" font-family="Times,serif" font-size="14.00">empty(X₃)</text>
</a>
</g>
</g>
<!-- c_0_106 -->
<g id="node7" class="node">
<title>c_0_106</title>
<g id="a_node7"><a xlink:href="c_0_106.html" xlink:title="{TopSpace&#45;like(X₁)|TopSpace&#45;like(X₃)|TopStruct(X₁)|TopStruct(X₃)|carrier(X₁) &#45;&#45;&amp;gt; X₂ ∈ bool(carrier(X₁) × carrier(X₃))|function(carrier(X₁) &#45;&#45;&amp;gt; X₂)|quasi_total(carrier(X₁) &#45;&#45;&amp;gt; X₂,carrier(X₁),carrier(X₃))|⇊|carrier(X₁) = Ø|continuous(carrier(X₁) &#45;&#45;&amp;gt; X₂,X₁,X₃)|empty(X₃)}" target="_vizar">
<polygon fill="#f8edd1" stroke="#7f7542" points="470,-143.5 470,-308.5 836,-308.5 836,-143.5 470,-143.5"/>
<text text-anchor="middle" x="653" y="-297.3" font-family="Times,serif" font-size="14.00">TopSpace&#45;like(X₁)</text>
<polyline fill="none" stroke="#7f7542" points="470,-293.5 836,-293.5 "/>
<text text-anchor="middle" x="653" y="-282.3" font-family="Times,serif" font-size="14.00">TopSpace&#45;like(X₃)</text>
<polyline fill="none" stroke="#7f7542" points="470,-278.5 836,-278.5 "/>
<text text-anchor="middle" x="653" y="-267.3" font-family="Times,serif" font-size="14.00">TopStruct(X₁)</text>
<polyline fill="none" stroke="#7f7542" points="470,-263.5 836,-263.5 "/>
<text text-anchor="middle" x="653" y="-252.3" font-family="Times,serif" font-size="14.00">TopStruct(X₃)</text>
<polyline fill="none" stroke="#7f7542" points="470,-248.5 836,-248.5 "/>
<text text-anchor="middle" x="653" y="-237.3" font-family="Times,serif" font-size="14.00">carrier(X₁) &#45;&#45;&gt; X₂ ∈ bool(carrier(X₁) × carrier(X₃))</text>
<polyline fill="none" stroke="#7f7542" points="470,-233.5 836,-233.5 "/>
<text text-anchor="middle" x="653" y="-222.3" font-family="Times,serif" font-size="14.00">function(carrier(X₁) &#45;&#45;&gt; X₂)</text>
<polyline fill="none" stroke="#7f7542" points="470,-218.5 836,-218.5 "/>
<text text-anchor="middle" x="653" y="-207.3" font-family="Times,serif" font-size="14.00">quasi_total(carrier(X₁) &#45;&#45;&gt; X₂,carrier(X₁),carrier(X₃))</text>
<polyline fill="none" stroke="#7f7542" points="470,-203.5 836,-203.5 "/>
<text text-anchor="middle" x="653" y="-192.3" font-family="Times,serif" font-size="14.00">⇊</text>
<polyline fill="none" stroke="#7f7542" points="470,-188.5 836,-188.5 "/>
<text text-anchor="middle" x="653" y="-177.3" font-family="Times,serif" font-size="14.00">carrier(X₁) = Ø</text>
<polyline fill="none" stroke="#7f7542" points="470,-173.5 836,-173.5 "/>
<text text-anchor="middle" x="653" y="-162.3" font-family="Times,serif" font-size="14.00">continuous(carrier(X₁) &#45;&#45;&gt; X₂,X₁,X₃)</text>
<polyline fill="none" stroke="#7f7542" points="470,-158.5 836,-158.5 "/>
<text text-anchor="middle" x="653" y="-147.3" font-family="Times,serif" font-size="14.00">empty(X₃)</text>
</a>
</g>
</g>
<!-- c_0_96&#45;&gt;c_0_106 -->
<g id="edge1" class="edge">
<title>c_0_96&#45;&gt;c_0_106</title>
<path fill="none" stroke="black" d="M1197,-375.31C1197,-297.65 1197,-198 1197,-198 1197,-198 846.04,-198 846.04,-198"/>
<polygon fill="black" stroke="black" points="846.04,-194.5 836.04,-198 846.04,-201.5 846.04,-194.5"/>
</g>
<!-- c_0_97 -->
<g id="node2" class="node">
<title>c_0_97</title>
<g id="a_node2"><a xlink:href="c_0_97.html" xlink:title="{X₁ ∈ bool(X₁)}" target="_vizar">
<polygon fill="#f8edd1" stroke="#7f7542" points="904.5,-458 904.5,-473 995.5,-473 995.5,-458 904.5,-458"/>
<text text-anchor="middle" x="950" y="-461.8" font-family="Times,serif" font-size="14.00">X₁ ∈ bool(X₁)</text>
</a>
</g>
</g>
<!-- c_0_97&#45;&gt;c_0_106 -->
<g id="edge2" class="edge">
<title>c_0_97&#45;&gt;c_0_106</title>
<path fill="none" stroke="black" d="M950,-457.94C950,-420.08 950,-253 950,-253 950,-253 846.02,-253 846.02,-253"/>
<polygon fill="black" stroke="black" points="846.02,-249.5 836.02,-253 846.02,-256.5 846.02,-249.5"/>
</g>
<!-- c_0_50 -->
<g id="node3" class="node">
<title>c_0_50</title>
<g id="a_node3"><a xlink:href="c_0_50.html" xlink:title="{TopSpace&#45;like(X₁)|TopSpace&#45;like(X₂)|TopStruct(X₁)|TopStruct(X₂)|X₃ ∈ bool(carrier(X₁) × carrier(X₂))|function(X₃)|quasi_total(X₃,carrier(X₁),carrier(X₂))|⇊|continuous(X₃,X₁,X₂)|empty(X₁)|empty(X₂)|sk₉(X₁,X₂,X₃) ∈ carrier(X₁)}" target="_vizar">
<polygon fill="#f8edd1" stroke="#7f7542" points="624,-375.5 624,-555.5 886,-555.5 886,-375.5 624,-375.5"/>
<text text-anchor="middle" x="755" y="-544.3" font-family="Times,serif" font-size="14.00">TopSpace&#45;like(X₁)</text>
<polyline fill="none" stroke="#7f7542" points="624,-540.5 886,-540.5 "/>
<text text-anchor="middle" x="755" y="-529.3" font-family="Times,serif" font-size="14.00">TopSpace&#45;like(X₂)</text>
<polyline fill="none" stroke="#7f7542" points="624,-525.5 886,-525.5 "/>
<text text-anchor="middle" x="755" y="-514.3" font-family="Times,serif" font-size="14.00">TopStruct(X₁)</text>
<polyline fill="none" stroke="#7f7542" points="624,-510.5 886,-510.5 "/>
<text text-anchor="middle" x="755" y="-499.3" font-family="Times,serif" font-size="14.00">TopStruct(X₂)</text>
<polyline fill="none" stroke="#7f7542" points="624,-495.5 886,-495.5 "/>
<text text-anchor="middle" x="755" y="-484.3" font-family="Times,serif" font-size="14.00">X₃ ∈ bool(carrier(X₁) × carrier(X₂))</text>
<polyline fill="none" stroke="#7f7542" points="624,-480.5 886,-480.5 "/>
<text text-anchor="middle" x="755" y="-469.3" font-family="Times,serif" font-size="14.00">function(X₃)</text>
<polyline fill="none" stroke="#7f7542" points="624,-465.5 886,-465.5 "/>
<text text-anchor="middle" x="755" y="-454.3" font-family="Times,serif" font-size="14.00">quasi_total(X₃,carrier(X₁),carrier(X₂))</text>
<polyline fill="none" stroke="#7f7542" points="624,-450.5 886,-450.5 "/>
<text text-anchor="middle" x="755" y="-439.3" font-family="Times,serif" font-size="14.00">⇊</text>
<polyline fill="none" stroke="#7f7542" points="624,-435.5 886,-435.5 "/>
<text text-anchor="middle" x="755" y="-424.3" font-family="Times,serif" font-size="14.00">continuous(X₃,X₁,X₂)</text>
<polyline fill="none" stroke="#7f7542" points="624,-420.5 886,-420.5 "/>
<text text-anchor="middle" x="755" y="-409.3" font-family="Times,serif" font-size="14.00">empty(X₁)</text>
<polyline fill="none" stroke="#7f7542" points="624,-405.5 886,-405.5 "/>
<text text-anchor="middle" x="755" y="-394.3" font-family="Times,serif" font-size="14.00">empty(X₂)</text>
<polyline fill="none" stroke="#7f7542" points="624,-390.5 886,-390.5 "/>
<text text-anchor="middle" x="755" y="-379.3" font-family="Times,serif" font-size="14.00">sk₉(X₁,X₂,X₃) ∈ carrier(X₁)</text>
</a>
</g>
</g>
<!-- c_0_50&#45;&gt;c_0_106 -->
<g id="edge3" class="edge">
<title>c_0_50&#45;&gt;c_0_106</title>
<path fill="none" stroke="black" d="M730,-375.3C730,-375.3 730,-318.63 730,-318.63"/>
<polygon fill="black" stroke="black" points="733.5,-318.63 730,-308.63 726.5,-318.63 733.5,-318.63"/>
</g>
<!-- c_0_51 -->
<g id="node4" class="node">
<title>c_0_51</title>
<g id="a_node4"><a xlink:href="c_0_51.html" xlink:title="{TopStruct(X₁)|empty(X₁)|⇊|carrier(X₁) = Ø}" target="_vizar">
<polygon fill="#f8edd1" stroke="#7f7542" points="498.5,-435.5 498.5,-495.5 605.5,-495.5 605.5,-435.5 498.5,-435.5"/>
<text text-anchor="middle" x="552" y="-484.3" font-family="Times,serif" font-size="14.00">TopStruct(X₁)</text>
<polyline fill="none" stroke="#7f7542" points="498.5,-480.5 605.5,-480.5 "/>
<text text-anchor="middle" x="552" y="-469.3" font-family="Times,serif" font-size="14.00">empty(X₁)</text>
<polyline fill="none" stroke="#7f7542" points="498.5,-465.5 605.5,-465.5 "/>
<text text-anchor="middle" x="552" y="-454.3" font-family="Times,serif" font-size="14.00">⇊</text>
<polyline fill="none" stroke="#7f7542" points="498.5,-450.5 605.5,-450.5 "/>
<text text-anchor="middle" x="552" y="-439.3" font-family="Times,serif" font-size="14.00">carrier(X₁) = Ø</text>
</a>
</g>
</g>
<!-- c_0_51&#45;&gt;c_0_106 -->
<g id="edge4" class="edge">
<title>c_0_51&#45;&gt;c_0_106</title>
<path fill="none" stroke="black" d="M552,-435.17C552,-435.17 552,-318.76 552,-318.76"/>
<polygon fill="black" stroke="black" points="555.5,-318.76 552,-308.76 548.5,-318.76 555.5,-318.76"/>
</g>
<!-- c_0_98 -->
<g id="node5" class="node">
<title>c_0_98</title>
<g id="a_node5"><a xlink:href="c_0_98.html" xlink:title="{TopSpace&#45;like(X₁)|TopStruct(X₁)|⇊|open(carrier(X₁),X₁)}" target="_vizar">
<polygon fill="#f8edd1" stroke="#7f7542" points="341.5,-435.5 341.5,-495.5 480.5,-495.5 480.5,-435.5 341.5,-435.5"/>
<text text-anchor="middle" x="411" y="-484.3" font-family="Times,serif" font-size="14.00">TopSpace&#45;like(X₁)</text>
<polyline fill="none" stroke="#7f7542" points="341.5,-480.5 480.5,-480.5 "/>
<text text-anchor="middle" x="411" y="-469.3" font-family="Times,serif" font-size="14.00">TopStruct(X₁)</text>
<polyline fill="none" stroke="#7f7542" points="341.5,-465.5 480.5,-465.5 "/>
<text text-anchor="middle" x="411" y="-454.3" font-family="Times,serif" font-size="14.00">⇊</text>
<polyline fill="none" stroke="#7f7542" points="341.5,-450.5 480.5,-450.5 "/>
<text text-anchor="middle" x="411" y="-439.3" font-family="Times,serif" font-size="14.00">open(carrier(X₁),X₁)</text>
</a>
</g>
</g>
<!-- c_0_98&#45;&gt;c_0_106 -->
<g id="edge5" class="edge">
<title>c_0_98&#45;&gt;c_0_106</title>
<path fill="none" stroke="black" d="M477,-435.17C477,-435.17 477,-318.76 477,-318.76"/>
<polygon fill="black" stroke="black" points="480.5,-318.76 477,-308.76 473.5,-318.76 480.5,-318.76"/>
</g>
<!-- c_0_95 -->
<g id="node6" class="node">
<title>c_0_95</title>
<g id="a_node6"><a xlink:href="c_0_95.html" xlink:title="{TopSpace&#45;like(X₃)|TopSpace&#45;like(X₄)|TopStruct(X₃)|TopStruct(X₄)|X₁ &#45;&#45;&amp;gt; X₂ ∈ bool(carrier(X₃) × carrier(X₄))|X₁ ∈ bool(carrier(X₃))|X₂ ∈ sk₁₀(X₃,X₄,X₁ &#45;&#45;&amp;gt; X₂)|function(X₁ &#45;&#45;&amp;gt; X₂)|open(X₁,X₃)|quasi_total(X₁ &#45;&#45;&amp;gt; X₂,carrier(X₃),carrier(X₄))|sk₉(X₃,X₄,X₁ &#45;&#45;&amp;gt; X₂) ∈ X₁|⇊|X₁ = Ø|continuous(X₁ &#45;&#45;&amp;gt; X₂,X₃,X₄)|empty(X₃)|empty(X₄)}" target="_vizar">
<polygon fill="#f8edd1" stroke="#7f7542" points="16.5,-345.5 16.5,-585.5 323.5,-585.5 323.5,-345.5 16.5,-345.5"/>
<text text-anchor="middle" x="170" y="-574.3" font-family="Times,serif" font-size="14.00">TopSpace&#45;like(X₃)</text>
<polyline fill="none" stroke="#7f7542" points="16.5,-570.5 323.5,-570.5 "/>
<text text-anchor="middle" x="170" y="-559.3" font-family="Times,serif" font-size="14.00">TopSpace&#45;like(X₄)</text>
<polyline fill="none" stroke="#7f7542" points="16.5,-555.5 323.5,-555.5 "/>
<text text-anchor="middle" x="170" y="-544.3" font-family="Times,serif" font-size="14.00">TopStruct(X₃)</text>
<polyline fill="none" stroke="#7f7542" points="16.5,-540.5 323.5,-540.5 "/>
<text text-anchor="middle" x="170" y="-529.3" font-family="Times,serif" font-size="14.00">TopStruct(X₄)</text>
<polyline fill="none" stroke="#7f7542" points="16.5,-525.5 323.5,-525.5 "/>
<text text-anchor="middle" x="170" y="-514.3" font-family="Times,serif" font-size="14.00">X₁ &#45;&#45;&gt; X₂ ∈ bool(carrier(X₃) × carrier(X₄))</text>
<polyline fill="none" stroke="#7f7542" points="16.5,-510.5 323.5,-510.5 "/>
<text text-anchor="middle" x="170" y="-499.3" font-family="Times,serif" font-size="14.00">X₁ ∈ bool(carrier(X₃))</text>
<polyline fill="none" stroke="#7f7542" points="16.5,-495.5 323.5,-495.5 "/>
<text text-anchor="middle" x="170" y="-484.3" font-family="Times,serif" font-size="14.00">X₂ ∈ sk₁₀(X₃,X₄,X₁ &#45;&#45;&gt; X₂)</text>
<polyline fill="none" stroke="#7f7542" points="16.5,-480.5 323.5,-480.5 "/>
<text text-anchor="middle" x="170" y="-469.3" font-family="Times,serif" font-size="14.00">function(X₁ &#45;&#45;&gt; X₂)</text>
<polyline fill="none" stroke="#7f7542" points="16.5,-465.5 323.5,-465.5 "/>
<text text-anchor="middle" x="170" y="-454.3" font-family="Times,serif" font-size="14.00">open(X₁,X₃)</text>
<polyline fill="none" stroke="#7f7542" points="16.5,-450.5 323.5,-450.5 "/>
<text text-anchor="middle" x="170" y="-439.3" font-family="Times,serif" font-size="14.00">quasi_total(X₁ &#45;&#45;&gt; X₂,carrier(X₃),carrier(X₄))</text>
<polyline fill="none" stroke="#7f7542" points="16.5,-435.5 323.5,-435.5 "/>
<text text-anchor="middle" x="170" y="-424.3" font-family="Times,serif" font-size="14.00">sk₉(X₃,X₄,X₁ &#45;&#45;&gt; X₂) ∈ X₁</text>
<polyline fill="none" stroke="#7f7542" points="16.5,-420.5 323.5,-420.5 "/>
<text text-anchor="middle" x="170" y="-409.3" font-family="Times,serif" font-size="14.00">⇊</text>
<polyline fill="none" stroke="#7f7542" points="16.5,-405.5 323.5,-405.5 "/>
<text text-anchor="middle" x="170" y="-394.3" font-family="Times,serif" font-size="14.00">X₁ = Ø</text>
<polyline fill="none" stroke="#7f7542" points="16.5,-390.5 323.5,-390.5 "/>
<text text-anchor="middle" x="170" y="-379.3" font-family="Times,serif" font-size="14.00">continuous(X₁ &#45;&#45;&gt; X₂,X₃,X₄)</text>
<polyline fill="none" stroke="#7f7542" points="16.5,-375.5 323.5,-375.5 "/>
<text text-anchor="middle" x="170" y="-364.3" font-family="Times,serif" font-size="14.00">empty(X₃)</text>
<polyline fill="none" stroke="#7f7542" points="16.5,-360.5 323.5,-360.5 "/>
<text text-anchor="middle" x="170" y="-349.3" font-family="Times,serif" font-size="14.00">empty(X₄)</text>
</a>
</g>
</g>
<!-- c_0_95&#45;&gt;c_0_106 -->
<g id="edge6" class="edge">
<title>c_0_95&#45;&gt;c_0_106</title>
<path fill="none" stroke="black" d="M323.53,-360C398.81,-360 473.5,-360 473.5,-360 473.5,-360 473.5,-318.58 473.5,-318.58"/>
<polygon fill="black" stroke="black" points="477,-318.58 473.5,-308.58 470,-318.58 477,-318.58"/>
</g>
<!-- c_0_116 -->
<g id="node8" class="node">
<title>c_0_116</title>
<g id="a_node8"><a xlink:href="c_0_116.html" xlink:title="{X₁ = sk₂|carrier(sk₁) &#45;&#45;&amp;gt; X₁ ∈ bool(carrier(sk₁) × ℝ)|function(carrier(sk₁) &#45;&#45;&amp;gt; X₁)|quasi_total(carrier(sk₁) &#45;&#45;&amp;gt; X₁,carrier(sk₁),ℝ)|⇊|carrier(sk₁) = Ø}" target="_vizar">
<polygon fill="#fa6900" stroke="#7f7542" points="495,-16.5 495,-106.5 811,-106.5 811,-16.5 495,-16.5"/>
<text text-anchor="middle" x="653" y="-95.3" font-family="Times,serif" font-size="14.00">X₁ = sk₂</text>
<polyline fill="none" stroke="#7f7542" points="495,-91.5 811,-91.5 "/>
<text text-anchor="middle" x="653" y="-80.3" font-family="Times,serif" font-size="14.00">carrier(sk₁) &#45;&#45;&gt; X₁ ∈ bool(carrier(sk₁) × ℝ)</text>
<polyline fill="none" stroke="#7f7542" points="495,-76.5 811,-76.5 "/>
<text text-anchor="middle" x="653" y="-65.3" font-family="Times,serif" font-size="14.00">function(carrier(sk₁) &#45;&#45;&gt; X₁)</text>
<polyline fill="none" stroke="#7f7542" points="495,-61.5 811,-61.5 "/>
<text text-anchor="middle" x="653" y="-50.3" font-family="Times,serif" font-size="14.00">quasi_total(carrier(sk₁) &#45;&#45;&gt; X₁,carrier(sk₁),ℝ)</text>
<polyline fill="none" stroke="#7f7542" points="495,-46.5 811,-46.5 "/>
<text text-anchor="middle" x="653" y="-35.3" font-family="Times,serif" font-size="14.00">⇊</text>
<polyline fill="none" stroke="#7f7542" points="495,-31.5 811,-31.5 "/>
<text text-anchor="middle" x="653" y="-20.3" font-family="Times,serif" font-size="14.00">carrier(sk₁) = Ø</text>
</a>
</g>
</g>
<!-- c_0_106&#45;&gt;c_0_116 -->
<g id="edge7" class="edge">
<title>c_0_106&#45;&gt;c_0_116</title>
<path fill="none" stroke="black" stroke-dasharray="5,2" d="M653,-143.27C653,-143.27 653,-116.58 653,-116.58"/>
<polygon fill="black" stroke="black" points="656.5,-116.58 653,-106.58 649.5,-116.58 656.5,-116.58"/>
</g>
</g>
</svg>
