<?xml version="1.0" encoding="UTF-8" standalone="no"?>
<!DOCTYPE svg PUBLIC "-//W3C//DTD SVG 1.1//EN"
 "http://www.w3.org/Graphics/SVG/1.1/DTD/svg11.dtd">
<!-- Generated by graphviz version 5.0.0 (0)
 -->
<!-- Title: proof Pages: 1 -->
<svg width="184pt" height="265pt"
 viewBox="0.00 0.00 184.00 265.00" xmlns="http://www.w3.org/2000/svg" xmlns:xlink="http://www.w3.org/1999/xlink">
<g id="graph0" class="graph" transform="scale(1 1) rotate(0) translate(4 261)">
<title>proof</title>
<g id="clust1" class="cluster">
<title>cluster_0</title>
<polygon fill="transparent" stroke="black" stroke-dasharray="1,5" points="38,-217 38,-249 138,-249 138,-217 38,-217"/>
</g>
<g id="clust2" class="cluster">
<title>cluster_1</title>
<polygon fill="transparent" stroke="black" stroke-width="2" points="8,-105 8,-197 168,-197 168,-105 8,-105"/>
</g>
<g id="clust3" class="cluster">
<title>cluster_2</title>
<polygon fill="transparent" stroke="black" stroke-dasharray="1,5" points="18,-8 18,-85 158,-85 158,-8 18,-8"/>
</g>
<!-- cc3_funct_2 -->
<g id="node1" class="node">
<title>cc3_funct_2</title>
<g id="a_node1"><a xlink:href="cc3_funct_2.html" xlink:title="cc3_funct_2" target="_parent">
<polygon fill="#69d2e7" stroke="#7f7542" points="46,-225.5 46,-240.5 130,-240.5 130,-225.5 46,-225.5"/>
<text text-anchor="middle" x="88" y="-229.3" font-family="Times,serif" font-size="14.00">cc3_funct_2</text>
</a>
</g>
</g>
<!-- c_0_88 -->
<g id="node2" class="node">
<title>c_0_88</title>
<g id="a_node2"><a xlink:href="c_0_88.html" xlink:title="{X₂ ∈ bool(X₃ × X₁)|quasi_total(X₂,X₃,X₁)|⇊|X₁ = Ø|total(X₂,X₃)}" target="_parent">
<polygon fill="#f8edd1" stroke="#7f7542" points="16.5,-113.5 16.5,-188.5 159.5,-188.5 159.5,-113.5 16.5,-113.5"/>
<text text-anchor="middle" x="88" y="-177.3" font-family="Times,serif" font-size="14.00">X₂ ∈ bool(X₃ × X₁)</text>
<polyline fill="none" stroke="#7f7542" points="16.5,-173.5 159.5,-173.5 "/>
<text text-anchor="middle" x="88" y="-162.3" font-family="Times,serif" font-size="14.00">quasi_total(X₂,X₃,X₁)</text>
<polyline fill="none" stroke="#7f7542" points="16.5,-158.5 159.5,-158.5 "/>
<text text-anchor="middle" x="88" y="-147.3" font-family="Times,serif" font-size="14.00">⇊</text>
<polyline fill="none" stroke="#7f7542" points="16.5,-143.5 159.5,-143.5 "/>
<text text-anchor="middle" x="88" y="-132.3" font-family="Times,serif" font-size="14.00">X₁ = Ø</text>
<polyline fill="none" stroke="#7f7542" points="16.5,-128.5 159.5,-128.5 "/>
<text text-anchor="middle" x="88" y="-117.3" font-family="Times,serif" font-size="14.00">total(X₂,X₃)</text>
</a>
</g>
</g>
<!-- cc3_funct_2&#45;&gt;c_0_88 -->
<g id="edge1" class="edge">
<title>cc3_funct_2&#45;&gt;c_0_88</title>
<path fill="none" stroke="black" d="M88,-225.43C88,-225.43 88,-198.67 88,-198.67"/>
<polygon fill="black" stroke="black" points="91.5,-198.67 88,-188.67 84.5,-198.67 91.5,-198.67"/>
</g>
<!-- c_0_101 -->
<g id="node3" class="node">
<title>c_0_101</title>
<g id="a_node3"><a xlink:href="c_0_101.html" xlink:title="{X₃ ∈ X₁|⇊|X₁ = Ø|total(X₂ &#45;&#45;&amp;gt; X₃,X₂)}" target="_parent">
<polygon fill="#f8edd1" stroke="#7f7542" points="26,-16.5 26,-76.5 150,-76.5 150,-16.5 26,-16.5"/>
<text text-anchor="middle" x="88" y="-65.3" font-family="Times,serif" font-size="14.00">X₃ ∈ X₁</text>
<polyline fill="none" stroke="#7f7542" points="26,-61.5 150,-61.5 "/>
<text text-anchor="middle" x="88" y="-50.3" font-family="Times,serif" font-size="14.00">⇊</text>
<polyline fill="none" stroke="#7f7542" points="26,-46.5 150,-46.5 "/>
<text text-anchor="middle" x="88" y="-35.3" font-family="Times,serif" font-size="14.00">X₁ = Ø</text>
<polyline fill="none" stroke="#7f7542" points="26,-31.5 150,-31.5 "/>
<text text-anchor="middle" x="88" y="-20.3" font-family="Times,serif" font-size="14.00">total(X₂ &#45;&#45;&gt; X₃,X₂)</text>
</a>
</g>
</g>
<!-- c_0_88&#45;&gt;c_0_101 -->
<g id="edge2" class="edge">
<title>c_0_88&#45;&gt;c_0_101</title>
<path fill="none" stroke="black" stroke-dasharray="5,2" d="M88,-113.27C88,-113.27 88,-86.64 88,-86.64"/>
<polygon fill="black" stroke="black" points="91.5,-86.64 88,-76.64 84.5,-86.64 91.5,-86.64"/>
</g>
</g>
</svg>
