<?xml version="1.0" encoding="UTF-8" standalone="no"?>
<!DOCTYPE svg PUBLIC "-//W3C//DTD SVG 1.1//EN"
 "http://www.w3.org/Graphics/SVG/1.1/DTD/svg11.dtd">
<!-- Generated by graphviz version 5.0.0 (0)
 -->
<!-- Title: proof Pages: 1 -->
<svg width="180pt" height="235pt"
 viewBox="0.00 0.00 180.00 235.00" xmlns="http://www.w3.org/2000/svg" xmlns:xlink="http://www.w3.org/1999/xlink">
<g id="graph0" class="graph" transform="scale(1 1) rotate(0) translate(4 231)">
<title>proof</title>
<g id="clust1" class="cluster">
<title>cluster_0</title>
<polygon fill="transparent" stroke="black" stroke-dasharray="1,5" points="36,-187 36,-219 136,-219 136,-187 36,-187"/>
</g>
<g id="clust2" class="cluster">
<title>cluster_1</title>
<polygon fill="transparent" stroke="black" stroke-width="2" points="9,-105 9,-167 163,-167 163,-105 9,-105"/>
</g>
<g id="clust3" class="cluster">
<title>cluster_2</title>
<polygon fill="transparent" stroke="black" stroke-dasharray="1,5" points="8,-8 8,-85 164,-85 164,-8 8,-8"/>
</g>
<!-- d3_struct_0 -->
<g id="node1" class="node">
<title>d3_struct_0</title>
<g id="a_node1"><a xlink:href="d3_struct_0.html" xlink:title="d3_struct_0" target="_vizar">
<polygon fill="#69d2e7" stroke="#7f7542" points="44,-195.5 44,-210.5 128,-210.5 128,-195.5 44,-195.5"/>
<text text-anchor="middle" x="86" y="-199.3" font-family="Times,serif" font-size="14.00">d3_struct_0</text>
</a>
</g>
</g>
<!-- c_0_87 -->
<g id="node2" class="node">
<title>c_0_87</title>
<g id="a_node2"><a xlink:href="c_0_87.html" xlink:title="{1&#45;sorted(X₁)|⇊| [#] X₁ = carrier(X₁)}" target="_vizar">
<polygon fill="#f8edd1" stroke="#7f7542" points="17,-113.5 17,-158.5 155,-158.5 155,-113.5 17,-113.5"/>
<text text-anchor="middle" x="86" y="-147.3" font-family="Times,serif" font-size="14.00">1&#45;sorted(X₁)</text>
<polyline fill="none" stroke="#7f7542" points="17,-143.5 155,-143.5 "/>
<text text-anchor="middle" x="86" y="-132.3" font-family="Times,serif" font-size="14.00">⇊</text>
<polyline fill="none" stroke="#7f7542" points="17,-128.5 155,-128.5 "/>
<text text-anchor="middle" x="86" y="-117.3" font-family="Times,serif" font-size="14.00">[#] X₁ = carrier(X₁)</text>
</a>
</g>
</g>
<!-- d3_struct_0&#45;&gt;c_0_87 -->
<g id="edge1" class="edge">
<title>d3_struct_0&#45;&gt;c_0_87</title>
<path fill="none" stroke="black" d="M86,-195.31C86,-195.31 86,-168.76 86,-168.76"/>
<polygon fill="black" stroke="black" points="89.5,-168.76 86,-158.76 82.5,-168.76 89.5,-168.76"/>
</g>
<!-- c_0_98 -->
<g id="node3" class="node">
<title>c_0_98</title>
<g id="a_node3"><a xlink:href="c_0_98.html" xlink:title="{TopSpace&#45;like(X₁)|TopStruct(X₁)|⇊|open(carrier(X₁),X₁)}" target="_vizar">
<polygon fill="#f8edd1" stroke="#7f7542" points="16.5,-16.5 16.5,-76.5 155.5,-76.5 155.5,-16.5 16.5,-16.5"/>
<text text-anchor="middle" x="86" y="-65.3" font-family="Times,serif" font-size="14.00">TopSpace&#45;like(X₁)</text>
<polyline fill="none" stroke="#7f7542" points="16.5,-61.5 155.5,-61.5 "/>
<text text-anchor="middle" x="86" y="-50.3" font-family="Times,serif" font-size="14.00">TopStruct(X₁)</text>
<polyline fill="none" stroke="#7f7542" points="16.5,-46.5 155.5,-46.5 "/>
<text text-anchor="middle" x="86" y="-35.3" font-family="Times,serif" font-size="14.00">⇊</text>
<polyline fill="none" stroke="#7f7542" points="16.5,-31.5 155.5,-31.5 "/>
<text text-anchor="middle" x="86" y="-20.3" font-family="Times,serif" font-size="14.00">open(carrier(X₁),X₁)</text>
</a>
</g>
</g>
<!-- c_0_87&#45;&gt;c_0_98 -->
<g id="edge2" class="edge">
<title>c_0_87&#45;&gt;c_0_98</title>
<path fill="none" stroke="black" stroke-dasharray="5,2" d="M86,-113.42C86,-113.42 86,-86.52 86,-86.52"/>
<polygon fill="black" stroke="black" points="89.5,-86.52 86,-76.52 82.5,-86.52 89.5,-86.52"/>
</g>
</g>
</svg>
