<?xml version="1.0" encoding="UTF-8" standalone="no"?>
<!DOCTYPE svg PUBLIC "-//W3C//DTD SVG 1.1//EN"
 "http://www.w3.org/Graphics/SVG/1.1/DTD/svg11.dtd">
<!-- Generated by graphviz version 5.0.0 (0)
 -->
<!-- Title: proof Pages: 1 -->
<svg width="670pt" height="205pt"
 viewBox="0.00 0.00 670.00 205.00" xmlns="http://www.w3.org/2000/svg" xmlns:xlink="http://www.w3.org/1999/xlink">
<g id="graph0" class="graph" transform="scale(1 1) rotate(0) translate(4 201)">
<title>proof</title>
<g id="clust1" class="cluster">
<title>cluster_0</title>
<polygon fill="transparent" stroke="black" stroke-dasharray="1,5" points="8,-112 8,-189 654,-189 654,-112 8,-112"/>
</g>
<g id="clust2" class="cluster">
<title>cluster_1</title>
<polygon fill="transparent" stroke="black" stroke-width="2" points="141,-60 141,-92 271,-92 271,-60 141,-60"/>
</g>
<g id="clust3" class="cluster">
<title>cluster_2</title>
<polygon fill="transparent" stroke="black" stroke-dasharray="1,5" points="191,-8 191,-40 221,-40 221,-8 191,-8"/>
</g>
<!-- c_0_90 -->
<g id="node1" class="node">
<title>c_0_90</title>
<g id="a_node1"><a xlink:href="c_0_90.html" xlink:title="{X₃ ∈ X₁|⇊|X₁ = Ø|X₂ &#45;&#45;&amp;gt; X₃ ∈ bool(X₂ × X₁)}" target="_parent">
<polygon fill="#f8edd1" stroke="#7f7542" points="474,-120.5 474,-180.5 646,-180.5 646,-120.5 474,-120.5"/>
<text text-anchor="middle" x="560" y="-169.3" font-family="Times,serif" font-size="14.00">X₃ ∈ X₁</text>
<polyline fill="none" stroke="#7f7542" points="474,-165.5 646,-165.5 "/>
<text text-anchor="middle" x="560" y="-154.3" font-family="Times,serif" font-size="14.00">⇊</text>
<polyline fill="none" stroke="#7f7542" points="474,-150.5 646,-150.5 "/>
<text text-anchor="middle" x="560" y="-139.3" font-family="Times,serif" font-size="14.00">X₁ = Ø</text>
<polyline fill="none" stroke="#7f7542" points="474,-135.5 646,-135.5 "/>
<text text-anchor="middle" x="560" y="-124.3" font-family="Times,serif" font-size="14.00">X₂ &#45;&#45;&gt; X₃ ∈ bool(X₂ × X₁)</text>
</a>
</g>
</g>
<!-- c_0_122 -->
<g id="node5" class="node">
<title>c_0_122</title>
<g id="a_node5"><a xlink:href="c_0_122.html" xlink:title="{carrier(sk₁) = Ø}" target="_parent">
<polygon fill="#fa6900" stroke="#7f7542" points="149.5,-68.5 149.5,-83.5 262.5,-83.5 262.5,-68.5 149.5,-68.5"/>
<text text-anchor="middle" x="206" y="-72.3" font-family="Times,serif" font-size="14.00">carrier(sk₁) = Ø</text>
</a>
</g>
</g>
<!-- c_0_90&#45;&gt;c_0_122 -->
<g id="edge1" class="edge">
<title>c_0_90&#45;&gt;c_0_122</title>
<path fill="none" stroke="black" d="M473.77,-123C374.56,-123 225.17,-123 225.17,-123 225.17,-123 225.17,-93.76 225.17,-93.76"/>
<polygon fill="black" stroke="black" points="228.67,-93.76 225.17,-83.76 221.67,-93.76 228.67,-93.76"/>
</g>
<!-- c_0_120 -->
<g id="node2" class="node">
<title>c_0_120</title>
<g id="a_node2"><a xlink:href="c_0_120.html" xlink:title="{carrier(sk₁) &#45;&#45;&amp;gt; sk₂ ∈ bool(carrier(sk₁) × ℝ)|⇊|carrier(sk₁) = Ø}" target="_parent">
<polygon fill="#fa6900" stroke="#7f7542" points="150.5,-128 150.5,-173 455.5,-173 455.5,-128 150.5,-128"/>
<text text-anchor="middle" x="303" y="-161.8" font-family="Times,serif" font-size="14.00">carrier(sk₁) &#45;&#45;&gt; sk₂ ∈ bool(carrier(sk₁) × ℝ)</text>
<polyline fill="none" stroke="#7f7542" points="150.5,-158 455.5,-158 "/>
<text text-anchor="middle" x="303" y="-146.8" font-family="Times,serif" font-size="14.00">⇊</text>
<polyline fill="none" stroke="#7f7542" points="150.5,-143 455.5,-143 "/>
<text text-anchor="middle" x="303" y="-131.8" font-family="Times,serif" font-size="14.00">carrier(sk₁) = Ø</text>
</a>
</g>
</g>
<!-- c_0_120&#45;&gt;c_0_122 -->
<g id="edge2" class="edge">
<title>c_0_120&#45;&gt;c_0_122</title>
<path fill="none" stroke="black" d="M187.83,-127.74C187.83,-127.74 187.83,-93.59 187.83,-93.59"/>
<polygon fill="black" stroke="black" points="191.33,-93.59 187.83,-83.59 184.33,-93.59 191.33,-93.59"/>
</g>
<!-- c_0_103 -->
<g id="node3" class="node">
<title>c_0_103</title>
<g id="a_node3"><a xlink:href="c_0_103.html" xlink:title="{ℝ ≠ Ø}" target="_parent">
<polygon fill="#f8edd1" stroke="#7f7542" points="87.5,-143 87.5,-158 132.5,-158 132.5,-143 87.5,-143"/>
<text text-anchor="middle" x="110" y="-146.8" font-family="Times,serif" font-size="14.00">ℝ ≠ Ø</text>
</a>
</g>
</g>
<!-- c_0_103&#45;&gt;c_0_122 -->
<g id="edge3" class="edge">
<title>c_0_103&#45;&gt;c_0_122</title>
<path fill="none" stroke="black" d="M110,-142.74C110,-124.04 110,-78 110,-78 110,-78 139.32,-78 139.32,-78"/>
<polygon fill="black" stroke="black" points="139.32,-81.5 149.32,-78 139.32,-74.5 139.32,-81.5"/>
</g>
<!-- c_0_80 -->
<g id="node4" class="node">
<title>c_0_80</title>
<g id="a_node4"><a xlink:href="c_0_80.html" xlink:title="{sk₂ ∈ ℝ}" target="_parent">
<polygon fill="#fa6900" stroke="#7f7542" points="16.5,-143 16.5,-158 69.5,-158 69.5,-143 16.5,-143"/>
<text text-anchor="middle" x="43" y="-146.8" font-family="Times,serif" font-size="14.00">sk₂ ∈ ℝ</text>
</a>
</g>
</g>
<!-- c_0_80&#45;&gt;c_0_122 -->
<g id="edge4" class="edge">
<title>c_0_80&#45;&gt;c_0_122</title>
<path fill="none" stroke="black" d="M43,-142.79C43,-123.18 43,-73 43,-73 43,-73 139.45,-73 139.45,-73"/>
<polygon fill="black" stroke="black" points="139.45,-76.5 149.45,-73 139.45,-69.5 139.45,-76.5"/>
</g>
<!-- c_0_124 -->
<g id="node6" class="node">
<title>c_0_124</title>
<g id="a_node6"><a xlink:href="c_0_124.html" xlink:title="⊥" target="_parent">
<polygon fill="#fa6900" stroke="#7f7542" points="199,-16.5 199,-31.5 213,-31.5 213,-16.5 199,-16.5"/>
<text text-anchor="middle" x="206" y="-20.3" font-family="Times,serif" font-size="14.00">⊥</text>
</a>
</g>
</g>
<!-- c_0_122&#45;&gt;c_0_124 -->
<g id="edge5" class="edge">
<title>c_0_122&#45;&gt;c_0_124</title>
<path fill="none" stroke="black" stroke-dasharray="5,2" d="M206,-68.33C206,-68.33 206,-41.7 206,-41.7"/>
<polygon fill="black" stroke="black" points="209.5,-41.7 206,-31.7 202.5,-41.7 209.5,-41.7"/>
</g>
</g>
</svg>
