<?xml version="1.0" encoding="UTF-8" standalone="no"?>
<!DOCTYPE svg PUBLIC "-//W3C//DTD SVG 1.1//EN"
 "http://www.w3.org/Graphics/SVG/1.1/DTD/svg11.dtd">
<!-- Generated by graphviz version 5.0.0 (0)
 -->
<!-- Title: proof Pages: 1 -->
<svg width="454pt" height="700pt"
 viewBox="0.00 0.00 454.00 700.00" xmlns="http://www.w3.org/2000/svg" xmlns:xlink="http://www.w3.org/1999/xlink">
<g id="graph0" class="graph" transform="scale(1 1) rotate(0) translate(4 696)">
<title>proof</title>
<g id="clust1" class="cluster">
<title>cluster_0</title>
<polygon fill="transparent" stroke="black" stroke-dasharray="1,5" points="8,-487 8,-684 438,-684 438,-487 8,-487"/>
</g>
<g id="clust2" class="cluster">
<title>cluster_1</title>
<polygon fill="transparent" stroke="black" stroke-width="2" points="39,-255 39,-467 363,-467 363,-255 39,-255"/>
</g>
<g id="clust3" class="cluster">
<title>cluster_2</title>
<polygon fill="transparent" stroke="black" stroke-dasharray="1,5" points="39,-8 39,-235 363,-235 363,-8 39,-8"/>
</g>
<!-- c_0_59 -->
<g id="node1" class="node">
<title>c_0_59</title>
<g id="a_node1"><a xlink:href="c_0_59.html" xlink:title="{TopSpace&#45;like(X₁)|TopSpace&#45;like(X₃)|TopStruct(X₁)|TopStruct(X₃)|X₂ ∈ bool(carrier(X₁) × carrier(X₃))|function(X₂)|quasi_total(X₂,carrier(X₁),carrier(X₃))|⇊|X₂(sk₉(X₁,X₃,X₂)) ∈ sk₁₀(X₁,X₃,X₂)|carrier(X₁) = Ø|continuous(X₂,X₁,X₃)|empty(X₃)}" target="_parent">
<polygon fill="#f8edd1" stroke="#7f7542" points="168,-495.5 168,-675.5 430,-675.5 430,-495.5 168,-495.5"/>
<text text-anchor="middle" x="299" y="-664.3" font-family="Times,serif" font-size="14.00">TopSpace&#45;like(X₁)</text>
<polyline fill="none" stroke="#7f7542" points="168,-660.5 430,-660.5 "/>
<text text-anchor="middle" x="299" y="-649.3" font-family="Times,serif" font-size="14.00">TopSpace&#45;like(X₃)</text>
<polyline fill="none" stroke="#7f7542" points="168,-645.5 430,-645.5 "/>
<text text-anchor="middle" x="299" y="-634.3" font-family="Times,serif" font-size="14.00">TopStruct(X₁)</text>
<polyline fill="none" stroke="#7f7542" points="168,-630.5 430,-630.5 "/>
<text text-anchor="middle" x="299" y="-619.3" font-family="Times,serif" font-size="14.00">TopStruct(X₃)</text>
<polyline fill="none" stroke="#7f7542" points="168,-615.5 430,-615.5 "/>
<text text-anchor="middle" x="299" y="-604.3" font-family="Times,serif" font-size="14.00">X₂ ∈ bool(carrier(X₁) × carrier(X₃))</text>
<polyline fill="none" stroke="#7f7542" points="168,-600.5 430,-600.5 "/>
<text text-anchor="middle" x="299" y="-589.3" font-family="Times,serif" font-size="14.00">function(X₂)</text>
<polyline fill="none" stroke="#7f7542" points="168,-585.5 430,-585.5 "/>
<text text-anchor="middle" x="299" y="-574.3" font-family="Times,serif" font-size="14.00">quasi_total(X₂,carrier(X₁),carrier(X₃))</text>
<polyline fill="none" stroke="#7f7542" points="168,-570.5 430,-570.5 "/>
<text text-anchor="middle" x="299" y="-559.3" font-family="Times,serif" font-size="14.00">⇊</text>
<polyline fill="none" stroke="#7f7542" points="168,-555.5 430,-555.5 "/>
<text text-anchor="middle" x="299" y="-544.3" font-family="Times,serif" font-size="14.00">X₂(sk₉(X₁,X₃,X₂)) ∈ sk₁₀(X₁,X₃,X₂)</text>
<polyline fill="none" stroke="#7f7542" points="168,-540.5 430,-540.5 "/>
<text text-anchor="middle" x="299" y="-529.3" font-family="Times,serif" font-size="14.00">carrier(X₁) = Ø</text>
<polyline fill="none" stroke="#7f7542" points="168,-525.5 430,-525.5 "/>
<text text-anchor="middle" x="299" y="-514.3" font-family="Times,serif" font-size="14.00">continuous(X₂,X₁,X₃)</text>
<polyline fill="none" stroke="#7f7542" points="168,-510.5 430,-510.5 "/>
<text text-anchor="middle" x="299" y="-499.3" font-family="Times,serif" font-size="14.00">empty(X₃)</text>
</a>
</g>
</g>
<!-- c_0_68 -->
<g id="node3" class="node">
<title>c_0_68</title>
<g id="a_node3"><a xlink:href="c_0_68.html" xlink:title="{TopSpace&#45;like(X₁)|TopSpace&#45;like(X₃)|TopStruct(X₁)|TopStruct(X₃)|X₄ &#45;&#45;&amp;gt; X₂ ∈ bool(carrier(X₁) × carrier(X₃))|function(X₄ &#45;&#45;&amp;gt; X₂)|quasi_total(X₄ &#45;&#45;&amp;gt; X₂,carrier(X₁),carrier(X₃))|sk₉(X₁,X₃,X₄ &#45;&#45;&amp;gt; X₂) ∈ X₄|⇊|X₂ ∈ sk₁₀(X₁,X₃,X₄ &#45;&#45;&amp;gt; X₂)|carrier(X₁) = Ø|continuous(X₄ &#45;&#45;&amp;gt; X₂,X₁,X₃)|empty(X₃)}" target="_parent">
<polygon fill="#f8edd1" stroke="#7f7542" points="47.5,-263.5 47.5,-458.5 354.5,-458.5 354.5,-263.5 47.5,-263.5"/>
<text text-anchor="middle" x="201" y="-447.3" font-family="Times,serif" font-size="14.00">TopSpace&#45;like(X₁)</text>
<polyline fill="none" stroke="#7f7542" points="47.5,-443.5 354.5,-443.5 "/>
<text text-anchor="middle" x="201" y="-432.3" font-family="Times,serif" font-size="14.00">TopSpace&#45;like(X₃)</text>
<polyline fill="none" stroke="#7f7542" points="47.5,-428.5 354.5,-428.5 "/>
<text text-anchor="middle" x="201" y="-417.3" font-family="Times,serif" font-size="14.00">TopStruct(X₁)</text>
<polyline fill="none" stroke="#7f7542" points="47.5,-413.5 354.5,-413.5 "/>
<text text-anchor="middle" x="201" y="-402.3" font-family="Times,serif" font-size="14.00">TopStruct(X₃)</text>
<polyline fill="none" stroke="#7f7542" points="47.5,-398.5 354.5,-398.5 "/>
<text text-anchor="middle" x="201" y="-387.3" font-family="Times,serif" font-size="14.00">X₄ &#45;&#45;&gt; X₂ ∈ bool(carrier(X₁) × carrier(X₃))</text>
<polyline fill="none" stroke="#7f7542" points="47.5,-383.5 354.5,-383.5 "/>
<text text-anchor="middle" x="201" y="-372.3" font-family="Times,serif" font-size="14.00">function(X₄ &#45;&#45;&gt; X₂)</text>
<polyline fill="none" stroke="#7f7542" points="47.5,-368.5 354.5,-368.5 "/>
<text text-anchor="middle" x="201" y="-357.3" font-family="Times,serif" font-size="14.00">quasi_total(X₄ &#45;&#45;&gt; X₂,carrier(X₁),carrier(X₃))</text>
<polyline fill="none" stroke="#7f7542" points="47.5,-353.5 354.5,-353.5 "/>
<text text-anchor="middle" x="201" y="-342.3" font-family="Times,serif" font-size="14.00">sk₉(X₁,X₃,X₄ &#45;&#45;&gt; X₂) ∈ X₄</text>
<polyline fill="none" stroke="#7f7542" points="47.5,-338.5 354.5,-338.5 "/>
<text text-anchor="middle" x="201" y="-327.3" font-family="Times,serif" font-size="14.00">⇊</text>
<polyline fill="none" stroke="#7f7542" points="47.5,-323.5 354.5,-323.5 "/>
<text text-anchor="middle" x="201" y="-312.3" font-family="Times,serif" font-size="14.00">X₂ ∈ sk₁₀(X₁,X₃,X₄ &#45;&#45;&gt; X₂)</text>
<polyline fill="none" stroke="#7f7542" points="47.5,-308.5 354.5,-308.5 "/>
<text text-anchor="middle" x="201" y="-297.3" font-family="Times,serif" font-size="14.00">carrier(X₁) = Ø</text>
<polyline fill="none" stroke="#7f7542" points="47.5,-293.5 354.5,-293.5 "/>
<text text-anchor="middle" x="201" y="-282.3" font-family="Times,serif" font-size="14.00">continuous(X₄ &#45;&#45;&gt; X₂,X₁,X₃)</text>
<polyline fill="none" stroke="#7f7542" points="47.5,-278.5 354.5,-278.5 "/>
<text text-anchor="middle" x="201" y="-267.3" font-family="Times,serif" font-size="14.00">empty(X₃)</text>
</a>
</g>
</g>
<!-- c_0_59&#45;&gt;c_0_68 -->
<g id="edge1" class="edge">
<title>c_0_59&#45;&gt;c_0_68</title>
<path fill="none" stroke="black" d="M261.25,-495.48C261.25,-495.48 261.25,-468.77 261.25,-468.77"/>
<polygon fill="black" stroke="black" points="264.75,-468.77 261.25,-458.77 257.75,-468.77 264.75,-468.77"/>
</g>
<!-- c_0_28 -->
<g id="node2" class="node">
<title>c_0_28</title>
<g id="a_node2"><a xlink:href="c_0_28.html" xlink:title="{X₁ ∈ X₂|⇊|(X₂ &#45;&#45;&amp;gt; X₃)(X₁) = X₃}" target="_parent">
<polygon fill="#f8edd1" stroke="#7f7542" points="16.5,-563 16.5,-608 149.5,-608 149.5,-563 16.5,-563"/>
<text text-anchor="middle" x="83" y="-596.8" font-family="Times,serif" font-size="14.00">X₁ ∈ X₂</text>
<polyline fill="none" stroke="#7f7542" points="16.5,-593 149.5,-593 "/>
<text text-anchor="middle" x="83" y="-581.8" font-family="Times,serif" font-size="14.00">⇊</text>
<polyline fill="none" stroke="#7f7542" points="16.5,-578 149.5,-578 "/>
<text text-anchor="middle" x="83" y="-566.8" font-family="Times,serif" font-size="14.00">(X₂ &#45;&#45;&gt; X₃)(X₁) = X₃</text>
</a>
</g>
</g>
<!-- c_0_28&#45;&gt;c_0_68 -->
<g id="edge2" class="edge">
<title>c_0_28&#45;&gt;c_0_68</title>
<path fill="none" stroke="black" d="M98.5,-562.74C98.5,-562.74 98.5,-468.55 98.5,-468.55"/>
<polygon fill="black" stroke="black" points="102,-468.55 98.5,-458.55 95,-468.55 102,-468.55"/>
</g>
<!-- c_0_83 -->
<g id="node4" class="node">
<title>c_0_83</title>
<g id="a_node4"><a xlink:href="c_0_83.html" xlink:title="{TopSpace&#45;like(X₁)|TopSpace&#45;like(X₄)|TopStruct(X₁)|TopStruct(X₄)|X₂ &#45;&#45;&amp;gt; X₃ ∈ bool(carrier(X₁) × carrier(X₄))|function(X₂ &#45;&#45;&amp;gt; X₃)|quasi_total(X₂ &#45;&#45;&amp;gt; X₃,carrier(X₁),carrier(X₄))|sk₉(X₁,X₄,X₂ &#45;&#45;&amp;gt; X₃) ∈ X₂|⇊|X₂ = Ø|X₃ ∈ sk₁₀(X₁,X₄,X₂ &#45;&#45;&amp;gt; X₃)|carrier(X₁) = Ø|continuous(X₂ &#45;&#45;&amp;gt; X₃,X₁,X₄)|empty(X₄)}" target="_parent">
<polygon fill="#f8edd1" stroke="#7f7542" points="47.5,-16.5 47.5,-226.5 354.5,-226.5 354.5,-16.5 47.5,-16.5"/>
<text text-anchor="middle" x="201" y="-215.3" font-family="Times,serif" font-size="14.00">TopSpace&#45;like(X₁)</text>
<polyline fill="none" stroke="#7f7542" points="47.5,-211.5 354.5,-211.5 "/>
<text text-anchor="middle" x="201" y="-200.3" font-family="Times,serif" font-size="14.00">TopSpace&#45;like(X₄)</text>
<polyline fill="none" stroke="#7f7542" points="47.5,-196.5 354.5,-196.5 "/>
<text text-anchor="middle" x="201" y="-185.3" font-family="Times,serif" font-size="14.00">TopStruct(X₁)</text>
<polyline fill="none" stroke="#7f7542" points="47.5,-181.5 354.5,-181.5 "/>
<text text-anchor="middle" x="201" y="-170.3" font-family="Times,serif" font-size="14.00">TopStruct(X₄)</text>
<polyline fill="none" stroke="#7f7542" points="47.5,-166.5 354.5,-166.5 "/>
<text text-anchor="middle" x="201" y="-155.3" font-family="Times,serif" font-size="14.00">X₂ &#45;&#45;&gt; X₃ ∈ bool(carrier(X₁) × carrier(X₄))</text>
<polyline fill="none" stroke="#7f7542" points="47.5,-151.5 354.5,-151.5 "/>
<text text-anchor="middle" x="201" y="-140.3" font-family="Times,serif" font-size="14.00">function(X₂ &#45;&#45;&gt; X₃)</text>
<polyline fill="none" stroke="#7f7542" points="47.5,-136.5 354.5,-136.5 "/>
<text text-anchor="middle" x="201" y="-125.3" font-family="Times,serif" font-size="14.00">quasi_total(X₂ &#45;&#45;&gt; X₃,carrier(X₁),carrier(X₄))</text>
<polyline fill="none" stroke="#7f7542" points="47.5,-121.5 354.5,-121.5 "/>
<text text-anchor="middle" x="201" y="-110.3" font-family="Times,serif" font-size="14.00">sk₉(X₁,X₄,X₂ &#45;&#45;&gt; X₃) ∈ X₂</text>
<polyline fill="none" stroke="#7f7542" points="47.5,-106.5 354.5,-106.5 "/>
<text text-anchor="middle" x="201" y="-95.3" font-family="Times,serif" font-size="14.00">⇊</text>
<polyline fill="none" stroke="#7f7542" points="47.5,-91.5 354.5,-91.5 "/>
<text text-anchor="middle" x="201" y="-80.3" font-family="Times,serif" font-size="14.00">X₂ = Ø</text>
<polyline fill="none" stroke="#7f7542" points="47.5,-76.5 354.5,-76.5 "/>
<text text-anchor="middle" x="201" y="-65.3" font-family="Times,serif" font-size="14.00">X₃ ∈ sk₁₀(X₁,X₄,X₂ &#45;&#45;&gt; X₃)</text>
<polyline fill="none" stroke="#7f7542" points="47.5,-61.5 354.5,-61.5 "/>
<text text-anchor="middle" x="201" y="-50.3" font-family="Times,serif" font-size="14.00">carrier(X₁) = Ø</text>
<polyline fill="none" stroke="#7f7542" points="47.5,-46.5 354.5,-46.5 "/>
<text text-anchor="middle" x="201" y="-35.3" font-family="Times,serif" font-size="14.00">continuous(X₂ &#45;&#45;&gt; X₃,X₁,X₄)</text>
<polyline fill="none" stroke="#7f7542" points="47.5,-31.5 354.5,-31.5 "/>
<text text-anchor="middle" x="201" y="-20.3" font-family="Times,serif" font-size="14.00">empty(X₄)</text>
</a>
</g>
</g>
<!-- c_0_68&#45;&gt;c_0_83 -->
<g id="edge3" class="edge">
<title>c_0_68&#45;&gt;c_0_83</title>
<path fill="none" stroke="black" stroke-dasharray="5,2" d="M201,-263.24C201,-263.24 201,-236.74 201,-236.74"/>
<polygon fill="black" stroke="black" points="204.5,-236.74 201,-226.74 197.5,-236.74 204.5,-236.74"/>
</g>
</g>
</svg>
