<?xml version="1.0" encoding="UTF-8" standalone="no"?>
<!DOCTYPE svg PUBLIC "-//W3C//DTD SVG 1.1//EN"
 "http://www.w3.org/Graphics/SVG/1.1/DTD/svg11.dtd">
<!-- Generated by graphviz version 5.0.0 (0)
 -->
<!-- Title: proof Pages: 1 -->
<svg width="384pt" height="385pt"
 viewBox="0.00 0.00 384.00 385.00" xmlns="http://www.w3.org/2000/svg" xmlns:xlink="http://www.w3.org/1999/xlink">
<g id="graph0" class="graph" transform="scale(1 1) rotate(0) translate(4 381)">
<title>proof</title>
<g id="clust1" class="cluster">
<title>cluster_0</title>
<polygon fill="transparent" stroke="black" stroke-dasharray="1,5" points="8,-247 8,-369 368,-369 368,-247 8,-247"/>
</g>
<g id="clust2" class="cluster">
<title>cluster_1</title>
<polygon fill="transparent" stroke="black" stroke-width="2" points="98,-120 98,-227 254,-227 254,-120 98,-120"/>
</g>
<g id="clust3" class="cluster">
<title>cluster_2</title>
<polygon fill="transparent" stroke="black" stroke-dasharray="1,5" points="98,-8 98,-100 254,-100 254,-8 98,-8"/>
</g>
<!-- c_0_31 -->
<g id="node1" class="node">
<title>c_0_31</title>
<g id="a_node1"><a xlink:href="c_0_31.html" xlink:title="{X₁ ∈ X₃|X₃ = (X₄ &#45;&#45;&amp;gt; X₂) .: X₅|function(X₄ &#45;&#45;&amp;gt; X₂)|relation(X₄ &#45;&#45;&amp;gt; X₂)|sk₅(X₄ &#45;&#45;&amp;gt; X₂,X₅,X₃,X₁) ∈ X₄|⇊|X₁ = X₂}" target="_vizar">
<polygon fill="#f8edd1" stroke="#7f7542" points="174.5,-255.5 174.5,-360.5 359.5,-360.5 359.5,-255.5 174.5,-255.5"/>
<text text-anchor="middle" x="267" y="-349.3" font-family="Times,serif" font-size="14.00">X₁ ∈ X₃</text>
<polyline fill="none" stroke="#7f7542" points="174.5,-345.5 359.5,-345.5 "/>
<text text-anchor="middle" x="267" y="-334.3" font-family="Times,serif" font-size="14.00">X₃ = (X₄ &#45;&#45;&gt; X₂) .: X₅</text>
<polyline fill="none" stroke="#7f7542" points="174.5,-330.5 359.5,-330.5 "/>
<text text-anchor="middle" x="267" y="-319.3" font-family="Times,serif" font-size="14.00">function(X₄ &#45;&#45;&gt; X₂)</text>
<polyline fill="none" stroke="#7f7542" points="174.5,-315.5 359.5,-315.5 "/>
<text text-anchor="middle" x="267" y="-304.3" font-family="Times,serif" font-size="14.00">relation(X₄ &#45;&#45;&gt; X₂)</text>
<polyline fill="none" stroke="#7f7542" points="174.5,-300.5 359.5,-300.5 "/>
<text text-anchor="middle" x="267" y="-289.3" font-family="Times,serif" font-size="14.00">sk₅(X₄ &#45;&#45;&gt; X₂,X₅,X₃,X₁) ∈ X₄</text>
<polyline fill="none" stroke="#7f7542" points="174.5,-285.5 359.5,-285.5 "/>
<text text-anchor="middle" x="267" y="-274.3" font-family="Times,serif" font-size="14.00">⇊</text>
<polyline fill="none" stroke="#7f7542" points="174.5,-270.5 359.5,-270.5 "/>
<text text-anchor="middle" x="267" y="-259.3" font-family="Times,serif" font-size="14.00">X₁ = X₂</text>
</a>
</g>
</g>
<!-- c_0_36 -->
<g id="node3" class="node">
<title>c_0_36</title>
<g id="a_node3"><a xlink:href="c_0_36.html" xlink:title="{X₁ ∈ X₃|X₃ = (X₄ &#45;&#45;&amp;gt; X₂) .: X₄|function(X₄ &#45;&#45;&amp;gt; X₂)|relation(X₄ &#45;&#45;&amp;gt; X₂)|⇊|X₁ = X₂}" target="_vizar">
<polygon fill="#f8edd1" stroke="#7f7542" points="106,-128.5 106,-218.5 246,-218.5 246,-128.5 106,-128.5"/>
<text text-anchor="middle" x="176" y="-207.3" font-family="Times,serif" font-size="14.00">X₁ ∈ X₃</text>
<polyline fill="none" stroke="#7f7542" points="106,-203.5 246,-203.5 "/>
<text text-anchor="middle" x="176" y="-192.3" font-family="Times,serif" font-size="14.00">X₃ = (X₄ &#45;&#45;&gt; X₂) .: X₄</text>
<polyline fill="none" stroke="#7f7542" points="106,-188.5 246,-188.5 "/>
<text text-anchor="middle" x="176" y="-177.3" font-family="Times,serif" font-size="14.00">function(X₄ &#45;&#45;&gt; X₂)</text>
<polyline fill="none" stroke="#7f7542" points="106,-173.5 246,-173.5 "/>
<text text-anchor="middle" x="176" y="-162.3" font-family="Times,serif" font-size="14.00">relation(X₄ &#45;&#45;&gt; X₂)</text>
<polyline fill="none" stroke="#7f7542" points="106,-158.5 246,-158.5 "/>
<text text-anchor="middle" x="176" y="-147.3" font-family="Times,serif" font-size="14.00">⇊</text>
<polyline fill="none" stroke="#7f7542" points="106,-143.5 246,-143.5 "/>
<text text-anchor="middle" x="176" y="-132.3" font-family="Times,serif" font-size="14.00">X₁ = X₂</text>
</a>
</g>
</g>
<!-- c_0_31&#45;&gt;c_0_36 -->
<g id="edge1" class="edge">
<title>c_0_31&#45;&gt;c_0_36</title>
<path fill="none" stroke="black" d="M210.25,-255.23C210.25,-255.23 210.25,-228.72 210.25,-228.72"/>
<polygon fill="black" stroke="black" points="213.75,-228.72 210.25,-218.72 206.75,-228.72 213.75,-228.72"/>
</g>
<!-- c_0_32 -->
<g id="node2" class="node">
<title>c_0_32</title>
<g id="a_node2"><a xlink:href="c_0_32.html" xlink:title="{X₃ = X₁ .: X₂|X₄ ∈ X₃|function(X₁)|relation(X₁)|⇊|sk₅(X₁,X₂,X₃,X₄) ∈ X₂}" target="_vizar">
<polygon fill="#f8edd1" stroke="#7f7542" points="16,-263 16,-353 156,-353 156,-263 16,-263"/>
<text text-anchor="middle" x="86" y="-341.8" font-family="Times,serif" font-size="14.00">X₃ = X₁ .: X₂</text>
<polyline fill="none" stroke="#7f7542" points="16,-338 156,-338 "/>
<text text-anchor="middle" x="86" y="-326.8" font-family="Times,serif" font-size="14.00">X₄ ∈ X₃</text>
<polyline fill="none" stroke="#7f7542" points="16,-323 156,-323 "/>
<text text-anchor="middle" x="86" y="-311.8" font-family="Times,serif" font-size="14.00">function(X₁)</text>
<polyline fill="none" stroke="#7f7542" points="16,-308 156,-308 "/>
<text text-anchor="middle" x="86" y="-296.8" font-family="Times,serif" font-size="14.00">relation(X₁)</text>
<polyline fill="none" stroke="#7f7542" points="16,-293 156,-293 "/>
<text text-anchor="middle" x="86" y="-281.8" font-family="Times,serif" font-size="14.00">⇊</text>
<polyline fill="none" stroke="#7f7542" points="16,-278 156,-278 "/>
<text text-anchor="middle" x="86" y="-266.8" font-family="Times,serif" font-size="14.00">sk₅(X₁,X₂,X₃,X₄) ∈ X₂</text>
</a>
</g>
</g>
<!-- c_0_32&#45;&gt;c_0_36 -->
<g id="edge2" class="edge">
<title>c_0_32&#45;&gt;c_0_36</title>
<path fill="none" stroke="black" d="M131,-262.84C131,-262.84 131,-228.77 131,-228.77"/>
<polygon fill="black" stroke="black" points="134.5,-228.77 131,-218.77 127.5,-228.77 134.5,-228.77"/>
</g>
<!-- c_0_46 -->
<g id="node4" class="node">
<title>c_0_46</title>
<g id="a_node4"><a xlink:href="c_0_46.html" xlink:title="{X₁ ∈ (X₃ &#45;&#45;&amp;gt; X₂) .: X₃|function(X₃ &#45;&#45;&amp;gt; X₂)|relation(X₃ &#45;&#45;&amp;gt; X₂)|⇊|X₁ = X₂}" target="_vizar">
<polygon fill="#f8edd1" stroke="#7f7542" points="106.5,-16.5 106.5,-91.5 245.5,-91.5 245.5,-16.5 106.5,-16.5"/>
<text text-anchor="middle" x="176" y="-80.3" font-family="Times,serif" font-size="14.00">X₁ ∈ (X₃ &#45;&#45;&gt; X₂) .: X₃</text>
<polyline fill="none" stroke="#7f7542" points="106.5,-76.5 245.5,-76.5 "/>
<text text-anchor="middle" x="176" y="-65.3" font-family="Times,serif" font-size="14.00">function(X₃ &#45;&#45;&gt; X₂)</text>
<polyline fill="none" stroke="#7f7542" points="106.5,-61.5 245.5,-61.5 "/>
<text text-anchor="middle" x="176" y="-50.3" font-family="Times,serif" font-size="14.00">relation(X₃ &#45;&#45;&gt; X₂)</text>
<polyline fill="none" stroke="#7f7542" points="106.5,-46.5 245.5,-46.5 "/>
<text text-anchor="middle" x="176" y="-35.3" font-family="Times,serif" font-size="14.00">⇊</text>
<polyline fill="none" stroke="#7f7542" points="106.5,-31.5 245.5,-31.5 "/>
<text text-anchor="middle" x="176" y="-20.3" font-family="Times,serif" font-size="14.00">X₁ = X₂</text>
</a>
</g>
</g>
<!-- c_0_36&#45;&gt;c_0_46 -->
<g id="edge3" class="edge">
<title>c_0_36&#45;&gt;c_0_46</title>
<path fill="none" stroke="black" stroke-dasharray="5,2" d="M176,-128.32C176,-128.32 176,-101.83 176,-101.83"/>
<polygon fill="black" stroke="black" points="179.5,-101.83 176,-91.83 172.5,-101.83 179.5,-101.83"/>
</g>
</g>
</svg>
