<?xml version="1.0" encoding="UTF-8" standalone="no"?>
<!DOCTYPE svg PUBLIC "-//W3C//DTD SVG 1.1//EN"
 "http://www.w3.org/Graphics/SVG/1.1/DTD/svg11.dtd">
<!-- Generated by graphviz version 5.0.0 (0)
 -->
<!-- Title: proof Pages: 1 -->
<svg width="1027pt" height="670pt"
 viewBox="0.00 0.00 1027.00 670.00" xmlns="http://www.w3.org/2000/svg" xmlns:xlink="http://www.w3.org/1999/xlink">
<g id="graph0" class="graph" transform="scale(1 1) rotate(0) translate(4 666)">
<title>proof</title>
<g id="clust1" class="cluster">
<title>cluster_0</title>
<polygon fill="transparent" stroke="black" stroke-dasharray="1,5" points="8,-457 8,-654 1011,-654 1011,-457 8,-457"/>
</g>
<g id="clust2" class="cluster">
<title>cluster_1</title>
<polygon fill="transparent" stroke="black" stroke-width="2" points="234,-240 234,-437 512,-437 512,-240 234,-240"/>
</g>
<g id="clust3" class="cluster">
<title>cluster_2</title>
<polygon fill="transparent" stroke="black" stroke-dasharray="1,5" points="211,-8 211,-220 535,-220 535,-8 211,-8"/>
</g>
<!-- c_0_50 -->
<g id="node1" class="node">
<title>c_0_50</title>
<g id="a_node1"><a xlink:href="c_0_50.html" xlink:title="{TopSpace&#45;like(X₁)|TopSpace&#45;like(X₂)|TopStruct(X₁)|TopStruct(X₂)|X₃ ∈ bool(carrier(X₁) × carrier(X₂))|function(X₃)|quasi_total(X₃,carrier(X₁),carrier(X₂))|⇊|continuous(X₃,X₁,X₂)|empty(X₁)|empty(X₂)|sk₉(X₁,X₂,X₃) ∈ carrier(X₁)}" target="_parent">
<polygon fill="#f8edd1" stroke="#7f7542" points="741,-465.5 741,-645.5 1003,-645.5 1003,-465.5 741,-465.5"/>
<text text-anchor="middle" x="872" y="-634.3" font-family="Times,serif" font-size="14.00">TopSpace&#45;like(X₁)</text>
<polyline fill="none" stroke="#7f7542" points="741,-630.5 1003,-630.5 "/>
<text text-anchor="middle" x="872" y="-619.3" font-family="Times,serif" font-size="14.00">TopSpace&#45;like(X₂)</text>
<polyline fill="none" stroke="#7f7542" points="741,-615.5 1003,-615.5 "/>
<text text-anchor="middle" x="872" y="-604.3" font-family="Times,serif" font-size="14.00">TopStruct(X₁)</text>
<polyline fill="none" stroke="#7f7542" points="741,-600.5 1003,-600.5 "/>
<text text-anchor="middle" x="872" y="-589.3" font-family="Times,serif" font-size="14.00">TopStruct(X₂)</text>
<polyline fill="none" stroke="#7f7542" points="741,-585.5 1003,-585.5 "/>
<text text-anchor="middle" x="872" y="-574.3" font-family="Times,serif" font-size="14.00">X₃ ∈ bool(carrier(X₁) × carrier(X₂))</text>
<polyline fill="none" stroke="#7f7542" points="741,-570.5 1003,-570.5 "/>
<text text-anchor="middle" x="872" y="-559.3" font-family="Times,serif" font-size="14.00">function(X₃)</text>
<polyline fill="none" stroke="#7f7542" points="741,-555.5 1003,-555.5 "/>
<text text-anchor="middle" x="872" y="-544.3" font-family="Times,serif" font-size="14.00">quasi_total(X₃,carrier(X₁),carrier(X₂))</text>
<polyline fill="none" stroke="#7f7542" points="741,-540.5 1003,-540.5 "/>
<text text-anchor="middle" x="872" y="-529.3" font-family="Times,serif" font-size="14.00">⇊</text>
<polyline fill="none" stroke="#7f7542" points="741,-525.5 1003,-525.5 "/>
<text text-anchor="middle" x="872" y="-514.3" font-family="Times,serif" font-size="14.00">continuous(X₃,X₁,X₂)</text>
<polyline fill="none" stroke="#7f7542" points="741,-510.5 1003,-510.5 "/>
<text text-anchor="middle" x="872" y="-499.3" font-family="Times,serif" font-size="14.00">empty(X₁)</text>
<polyline fill="none" stroke="#7f7542" points="741,-495.5 1003,-495.5 "/>
<text text-anchor="middle" x="872" y="-484.3" font-family="Times,serif" font-size="14.00">empty(X₂)</text>
<polyline fill="none" stroke="#7f7542" points="741,-480.5 1003,-480.5 "/>
<text text-anchor="middle" x="872" y="-469.3" font-family="Times,serif" font-size="14.00">sk₉(X₁,X₂,X₃) ∈ carrier(X₁)</text>
</a>
</g>
</g>
<!-- c_0_59 -->
<g id="node5" class="node">
<title>c_0_59</title>
<g id="a_node5"><a xlink:href="c_0_59.html" xlink:title="{TopSpace&#45;like(X₁)|TopSpace&#45;like(X₃)|TopStruct(X₁)|TopStruct(X₃)|X₂ ∈ bool(carrier(X₁) × carrier(X₃))|function(X₂)|quasi_total(X₂,carrier(X₁),carrier(X₃))|⇊|X₂(sk₉(X₁,X₃,X₂)) ∈ sk₁₀(X₁,X₃,X₂)|carrier(X₁) = Ø|continuous(X₂,X₁,X₃)|empty(X₃)}" target="_parent">
<polygon fill="#f8edd1" stroke="#7f7542" points="242,-248.5 242,-428.5 504,-428.5 504,-248.5 242,-248.5"/>
<text text-anchor="middle" x="373" y="-417.3" font-family="Times,serif" font-size="14.00">TopSpace&#45;like(X₁)</text>
<polyline fill="none" stroke="#7f7542" points="242,-413.5 504,-413.5 "/>
<text text-anchor="middle" x="373" y="-402.3" font-family="Times,serif" font-size="14.00">TopSpace&#45;like(X₃)</text>
<polyline fill="none" stroke="#7f7542" points="242,-398.5 504,-398.5 "/>
<text text-anchor="middle" x="373" y="-387.3" font-family="Times,serif" font-size="14.00">TopStruct(X₁)</text>
<polyline fill="none" stroke="#7f7542" points="242,-383.5 504,-383.5 "/>
<text text-anchor="middle" x="373" y="-372.3" font-family="Times,serif" font-size="14.00">TopStruct(X₃)</text>
<polyline fill="none" stroke="#7f7542" points="242,-368.5 504,-368.5 "/>
<text text-anchor="middle" x="373" y="-357.3" font-family="Times,serif" font-size="14.00">X₂ ∈ bool(carrier(X₁) × carrier(X₃))</text>
<polyline fill="none" stroke="#7f7542" points="242,-353.5 504,-353.5 "/>
<text text-anchor="middle" x="373" y="-342.3" font-family="Times,serif" font-size="14.00">function(X₂)</text>
<polyline fill="none" stroke="#7f7542" points="242,-338.5 504,-338.5 "/>
<text text-anchor="middle" x="373" y="-327.3" font-family="Times,serif" font-size="14.00">quasi_total(X₂,carrier(X₁),carrier(X₃))</text>
<polyline fill="none" stroke="#7f7542" points="242,-323.5 504,-323.5 "/>
<text text-anchor="middle" x="373" y="-312.3" font-family="Times,serif" font-size="14.00">⇊</text>
<polyline fill="none" stroke="#7f7542" points="242,-308.5 504,-308.5 "/>
<text text-anchor="middle" x="373" y="-297.3" font-family="Times,serif" font-size="14.00">X₂(sk₉(X₁,X₃,X₂)) ∈ sk₁₀(X₁,X₃,X₂)</text>
<polyline fill="none" stroke="#7f7542" points="242,-293.5 504,-293.5 "/>
<text text-anchor="middle" x="373" y="-282.3" font-family="Times,serif" font-size="14.00">carrier(X₁) = Ø</text>
<polyline fill="none" stroke="#7f7542" points="242,-278.5 504,-278.5 "/>
<text text-anchor="middle" x="373" y="-267.3" font-family="Times,serif" font-size="14.00">continuous(X₂,X₁,X₃)</text>
<polyline fill="none" stroke="#7f7542" points="242,-263.5 504,-263.5 "/>
<text text-anchor="middle" x="373" y="-252.3" font-family="Times,serif" font-size="14.00">empty(X₃)</text>
</a>
</g>
</g>
<!-- c_0_50&#45;&gt;c_0_59 -->
<g id="edge1" class="edge">
<title>c_0_50&#45;&gt;c_0_59</title>
<path fill="none" stroke="black" d="M872,-465.46C872,-405.63 872,-338 872,-338 872,-338 514.11,-338 514.11,-338"/>
<polygon fill="black" stroke="black" points="514.11,-334.5 504.11,-338 514.11,-341.5 514.11,-334.5"/>
</g>
<!-- c_0_48 -->
<g id="node2" class="node">
<title>c_0_48</title>
<g id="a_node2"><a xlink:href="c_0_48.html" xlink:title="{TopSpace&#45;like(X₁)|TopSpace&#45;like(X₂)|TopStruct(X₁)|TopStruct(X₂)|X₃ ∈ bool(carrier(X₁) × carrier(X₂))|function(X₃)|quasi_total(X₃,carrier(X₁),carrier(X₂))|⇊|carrier(X₁) . carrier(X₂) . X₃ . sk₉(X₁,X₂,X₃) ∈ sk₁₀(X₁,X₂,X₃)|continuous(X₃,X₁,X₂)|empty(X₁)|empty(X₂)}" target="_parent">
<polygon fill="#f8edd1" stroke="#7f7542" points="323,-465.5 323,-645.5 723,-645.5 723,-465.5 323,-465.5"/>
<text text-anchor="middle" x="523" y="-634.3" font-family="Times,serif" font-size="14.00">TopSpace&#45;like(X₁)</text>
<polyline fill="none" stroke="#7f7542" points="323,-630.5 723,-630.5 "/>
<text text-anchor="middle" x="523" y="-619.3" font-family="Times,serif" font-size="14.00">TopSpace&#45;like(X₂)</text>
<polyline fill="none" stroke="#7f7542" points="323,-615.5 723,-615.5 "/>
<text text-anchor="middle" x="523" y="-604.3" font-family="Times,serif" font-size="14.00">TopStruct(X₁)</text>
<polyline fill="none" stroke="#7f7542" points="323,-600.5 723,-600.5 "/>
<text text-anchor="middle" x="523" y="-589.3" font-family="Times,serif" font-size="14.00">TopStruct(X₂)</text>
<polyline fill="none" stroke="#7f7542" points="323,-585.5 723,-585.5 "/>
<text text-anchor="middle" x="523" y="-574.3" font-family="Times,serif" font-size="14.00">X₃ ∈ bool(carrier(X₁) × carrier(X₂))</text>
<polyline fill="none" stroke="#7f7542" points="323,-570.5 723,-570.5 "/>
<text text-anchor="middle" x="523" y="-559.3" font-family="Times,serif" font-size="14.00">function(X₃)</text>
<polyline fill="none" stroke="#7f7542" points="323,-555.5 723,-555.5 "/>
<text text-anchor="middle" x="523" y="-544.3" font-family="Times,serif" font-size="14.00">quasi_total(X₃,carrier(X₁),carrier(X₂))</text>
<polyline fill="none" stroke="#7f7542" points="323,-540.5 723,-540.5 "/>
<text text-anchor="middle" x="523" y="-529.3" font-family="Times,serif" font-size="14.00">⇊</text>
<polyline fill="none" stroke="#7f7542" points="323,-525.5 723,-525.5 "/>
<text text-anchor="middle" x="523" y="-514.3" font-family="Times,serif" font-size="14.00">carrier(X₁) . carrier(X₂) . X₃ . sk₉(X₁,X₂,X₃) ∈ sk₁₀(X₁,X₂,X₃)</text>
<polyline fill="none" stroke="#7f7542" points="323,-510.5 723,-510.5 "/>
<text text-anchor="middle" x="523" y="-499.3" font-family="Times,serif" font-size="14.00">continuous(X₃,X₁,X₂)</text>
<polyline fill="none" stroke="#7f7542" points="323,-495.5 723,-495.5 "/>
<text text-anchor="middle" x="523" y="-484.3" font-family="Times,serif" font-size="14.00">empty(X₁)</text>
<polyline fill="none" stroke="#7f7542" points="323,-480.5 723,-480.5 "/>
<text text-anchor="middle" x="523" y="-469.3" font-family="Times,serif" font-size="14.00">empty(X₂)</text>
</a>
</g>
</g>
<!-- c_0_48&#45;&gt;c_0_59 -->
<g id="edge2" class="edge">
<title>c_0_48&#45;&gt;c_0_59</title>
<path fill="none" stroke="black" d="M413.5,-465.36C413.5,-465.36 413.5,-438.71 413.5,-438.71"/>
<polygon fill="black" stroke="black" points="417,-438.71 413.5,-428.71 410,-438.71 417,-438.71"/>
</g>
<!-- c_0_49 -->
<g id="node3" class="node">
<title>c_0_49</title>
<g id="a_node3"><a xlink:href="c_0_49.html" xlink:title="{X₂ ∈ bool(X₁ × X₃)|X₄ ∈ X₁|function(X₂)|quasi_total(X₂,X₁,X₃)|⇊|X₁ . X₃ . X₂ . X₄ = X₂(X₄)|X₁ = Ø}" target="_parent">
<polygon fill="#f8edd1" stroke="#7f7542" points="141.5,-503 141.5,-608 304.5,-608 304.5,-503 141.5,-503"/>
<text text-anchor="middle" x="223" y="-596.8" font-family="Times,serif" font-size="14.00">X₂ ∈ bool(X₁ × X₃)</text>
<polyline fill="none" stroke="#7f7542" points="141.5,-593 304.5,-593 "/>
<text text-anchor="middle" x="223" y="-581.8" font-family="Times,serif" font-size="14.00">X₄ ∈ X₁</text>
<polyline fill="none" stroke="#7f7542" points="141.5,-578 304.5,-578 "/>
<text text-anchor="middle" x="223" y="-566.8" font-family="Times,serif" font-size="14.00">function(X₂)</text>
<polyline fill="none" stroke="#7f7542" points="141.5,-563 304.5,-563 "/>
<text text-anchor="middle" x="223" y="-551.8" font-family="Times,serif" font-size="14.00">quasi_total(X₂,X₁,X₃)</text>
<polyline fill="none" stroke="#7f7542" points="141.5,-548 304.5,-548 "/>
<text text-anchor="middle" x="223" y="-536.8" font-family="Times,serif" font-size="14.00">⇊</text>
<polyline fill="none" stroke="#7f7542" points="141.5,-533 304.5,-533 "/>
<text text-anchor="middle" x="223" y="-521.8" font-family="Times,serif" font-size="14.00">X₁ . X₃ . X₂ . X₄ = X₂(X₄)</text>
<polyline fill="none" stroke="#7f7542" points="141.5,-518 304.5,-518 "/>
<text text-anchor="middle" x="223" y="-506.8" font-family="Times,serif" font-size="14.00">X₁ = Ø</text>
</a>
</g>
</g>
<!-- c_0_49&#45;&gt;c_0_59 -->
<g id="edge3" class="edge">
<title>c_0_49&#45;&gt;c_0_59</title>
<path fill="none" stroke="black" d="M273.25,-502.97C273.25,-502.97 273.25,-438.65 273.25,-438.65"/>
<polygon fill="black" stroke="black" points="276.75,-438.65 273.25,-428.65 269.75,-438.65 276.75,-438.65"/>
</g>
<!-- c_0_51 -->
<g id="node4" class="node">
<title>c_0_51</title>
<g id="a_node4"><a xlink:href="c_0_51.html" xlink:title="{TopStruct(X₁)|empty(X₁)|⇊|carrier(X₁) = Ø}" target="_parent">
<polygon fill="#f8edd1" stroke="#7f7542" points="16.5,-525.5 16.5,-585.5 123.5,-585.5 123.5,-525.5 16.5,-525.5"/>
<text text-anchor="middle" x="70" y="-574.3" font-family="Times,serif" font-size="14.00">TopStruct(X₁)</text>
<polyline fill="none" stroke="#7f7542" points="16.5,-570.5 123.5,-570.5 "/>
<text text-anchor="middle" x="70" y="-559.3" font-family="Times,serif" font-size="14.00">empty(X₁)</text>
<polyline fill="none" stroke="#7f7542" points="16.5,-555.5 123.5,-555.5 "/>
<text text-anchor="middle" x="70" y="-544.3" font-family="Times,serif" font-size="14.00">⇊</text>
<polyline fill="none" stroke="#7f7542" points="16.5,-540.5 123.5,-540.5 "/>
<text text-anchor="middle" x="70" y="-529.3" font-family="Times,serif" font-size="14.00">carrier(X₁) = Ø</text>
</a>
</g>
</g>
<!-- c_0_51&#45;&gt;c_0_59 -->
<g id="edge4" class="edge">
<title>c_0_51&#45;&gt;c_0_59</title>
<path fill="none" stroke="black" d="M70,-525.26C70,-465.49 70,-338 70,-338 70,-338 231.86,-338 231.86,-338"/>
<polygon fill="black" stroke="black" points="231.86,-341.5 241.86,-338 231.86,-334.5 231.86,-341.5"/>
</g>
<!-- c_0_68 -->
<g id="node6" class="node">
<title>c_0_68</title>
<g id="a_node6"><a xlink:href="c_0_68.html" xlink:title="{TopSpace&#45;like(X₁)|TopSpace&#45;like(X₃)|TopStruct(X₁)|TopStruct(X₃)|X₄ &#45;&#45;&amp;gt; X₂ ∈ bool(carrier(X₁) × carrier(X₃))|function(X₄ &#45;&#45;&amp;gt; X₂)|quasi_total(X₄ &#45;&#45;&amp;gt; X₂,carrier(X₁),carrier(X₃))|sk₉(X₁,X₃,X₄ &#45;&#45;&amp;gt; X₂) ∈ X₄|⇊|X₂ ∈ sk₁₀(X₁,X₃,X₄ &#45;&#45;&amp;gt; X₂)|carrier(X₁) = Ø|continuous(X₄ &#45;&#45;&amp;gt; X₂,X₁,X₃)|empty(X₃)}" target="_parent">
<polygon fill="#f8edd1" stroke="#7f7542" points="219.5,-16.5 219.5,-211.5 526.5,-211.5 526.5,-16.5 219.5,-16.5"/>
<text text-anchor="middle" x="373" y="-200.3" font-family="Times,serif" font-size="14.00">TopSpace&#45;like(X₁)</text>
<polyline fill="none" stroke="#7f7542" points="219.5,-196.5 526.5,-196.5 "/>
<text text-anchor="middle" x="373" y="-185.3" font-family="Times,serif" font-size="14.00">TopSpace&#45;like(X₃)</text>
<polyline fill="none" stroke="#7f7542" points="219.5,-181.5 526.5,-181.5 "/>
<text text-anchor="middle" x="373" y="-170.3" font-family="Times,serif" font-size="14.00">TopStruct(X₁)</text>
<polyline fill="none" stroke="#7f7542" points="219.5,-166.5 526.5,-166.5 "/>
<text text-anchor="middle" x="373" y="-155.3" font-family="Times,serif" font-size="14.00">TopStruct(X₃)</text>
<polyline fill="none" stroke="#7f7542" points="219.5,-151.5 526.5,-151.5 "/>
<text text-anchor="middle" x="373" y="-140.3" font-family="Times,serif" font-size="14.00">X₄ &#45;&#45;&gt; X₂ ∈ bool(carrier(X₁) × carrier(X₃))</text>
<polyline fill="none" stroke="#7f7542" points="219.5,-136.5 526.5,-136.5 "/>
<text text-anchor="middle" x="373" y="-125.3" font-family="Times,serif" font-size="14.00">function(X₄ &#45;&#45;&gt; X₂)</text>
<polyline fill="none" stroke="#7f7542" points="219.5,-121.5 526.5,-121.5 "/>
<text text-anchor="middle" x="373" y="-110.3" font-family="Times,serif" font-size="14.00">quasi_total(X₄ &#45;&#45;&gt; X₂,carrier(X₁),carrier(X₃))</text>
<polyline fill="none" stroke="#7f7542" points="219.5,-106.5 526.5,-106.5 "/>
<text text-anchor="middle" x="373" y="-95.3" font-family="Times,serif" font-size="14.00">sk₉(X₁,X₃,X₄ &#45;&#45;&gt; X₂) ∈ X₄</text>
<polyline fill="none" stroke="#7f7542" points="219.5,-91.5 526.5,-91.5 "/>
<text text-anchor="middle" x="373" y="-80.3" font-family="Times,serif" font-size="14.00">⇊</text>
<polyline fill="none" stroke="#7f7542" points="219.5,-76.5 526.5,-76.5 "/>
<text text-anchor="middle" x="373" y="-65.3" font-family="Times,serif" font-size="14.00">X₂ ∈ sk₁₀(X₁,X₃,X₄ &#45;&#45;&gt; X₂)</text>
<polyline fill="none" stroke="#7f7542" points="219.5,-61.5 526.5,-61.5 "/>
<text text-anchor="middle" x="373" y="-50.3" font-family="Times,serif" font-size="14.00">carrier(X₁) = Ø</text>
<polyline fill="none" stroke="#7f7542" points="219.5,-46.5 526.5,-46.5 "/>
<text text-anchor="middle" x="373" y="-35.3" font-family="Times,serif" font-size="14.00">continuous(X₄ &#45;&#45;&gt; X₂,X₁,X₃)</text>
<polyline fill="none" stroke="#7f7542" points="219.5,-31.5 526.5,-31.5 "/>
<text text-anchor="middle" x="373" y="-20.3" font-family="Times,serif" font-size="14.00">empty(X₃)</text>
</a>
</g>
</g>
<!-- c_0_59&#45;&gt;c_0_68 -->
<g id="edge5" class="edge">
<title>c_0_59&#45;&gt;c_0_68</title>
<path fill="none" stroke="black" stroke-dasharray="5,2" d="M373,-248.48C373,-248.48 373,-221.77 373,-221.77"/>
<polygon fill="black" stroke="black" points="376.5,-221.77 373,-211.77 369.5,-221.77 376.5,-221.77"/>
</g>
</g>
</svg>
