<?xml version="1.0" encoding="UTF-8" standalone="no"?>
<!DOCTYPE svg PUBLIC "-//W3C//DTD SVG 1.1//EN"
 "http://www.w3.org/Graphics/SVG/1.1/DTD/svg11.dtd">
<!-- Generated by graphviz version 5.0.0 (0)
 -->
<!-- Title: proof Pages: 1 -->
<svg width="820pt" height="370pt"
 viewBox="0.00 0.00 820.00 370.00" xmlns="http://www.w3.org/2000/svg" xmlns:xlink="http://www.w3.org/1999/xlink">
<g id="graph0" class="graph" transform="scale(1 1) rotate(0) translate(4 366)">
<title>proof</title>
<g id="clust1" class="cluster">
<title>cluster_0</title>
<polygon fill="transparent" stroke="black" stroke-dasharray="1,5" points="294,-322 294,-354 396,-354 396,-322 294,-322"/>
</g>
<g id="clust2" class="cluster">
<title>cluster_1</title>
<polygon fill="transparent" stroke="black" stroke-width="2" points="270,-240 270,-302 420,-302 420,-240 270,-240"/>
</g>
<g id="clust3" class="cluster">
<title>cluster_2</title>
<polygon fill="transparent" stroke="black" stroke-dasharray="1,5" points="8,-8 8,-220 804,-220 804,-8 8,-8"/>
</g>
<!-- t7_funcop_1 -->
<g id="node1" class="node">
<title>t7_funcop_1</title>
<g id="a_node1"><a xlink:href="t7_funcop_1.html" xlink:title="t7_funcop_1" target="_vizar">
<polygon fill="#69d2e7" stroke="#7f7542" points="302,-330.5 302,-345.5 388,-345.5 388,-330.5 302,-330.5"/>
<text text-anchor="middle" x="345" y="-334.3" font-family="Times,serif" font-size="14.00">t7_funcop_1</text>
</a>
</g>
</g>
<!-- c_0_28 -->
<g id="node2" class="node">
<title>c_0_28</title>
<g id="a_node2"><a xlink:href="c_0_28.html" xlink:title="{X₁ ∈ X₂|⇊|(X₂ &#45;&#45;&amp;gt; X₃)(X₁) = X₃}" target="_vizar">
<polygon fill="#f8edd1" stroke="#7f7542" points="278.5,-248.5 278.5,-293.5 411.5,-293.5 411.5,-248.5 278.5,-248.5"/>
<text text-anchor="middle" x="345" y="-282.3" font-family="Times,serif" font-size="14.00">X₁ ∈ X₂</text>
<polyline fill="none" stroke="#7f7542" points="278.5,-278.5 411.5,-278.5 "/>
<text text-anchor="middle" x="345" y="-267.3" font-family="Times,serif" font-size="14.00">⇊</text>
<polyline fill="none" stroke="#7f7542" points="278.5,-263.5 411.5,-263.5 "/>
<text text-anchor="middle" x="345" y="-252.3" font-family="Times,serif" font-size="14.00">(X₂ &#45;&#45;&gt; X₃)(X₁) = X₃</text>
</a>
</g>
</g>
<!-- t7_funcop_1&#45;&gt;c_0_28 -->
<g id="edge1" class="edge">
<title>t7_funcop_1&#45;&gt;c_0_28</title>
<path fill="none" stroke="black" d="M345,-330.31C345,-330.31 345,-303.76 345,-303.76"/>
<polygon fill="black" stroke="black" points="348.5,-303.76 345,-293.76 341.5,-303.76 348.5,-303.76"/>
</g>
<!-- c_0_68 -->
<g id="node3" class="node">
<title>c_0_68</title>
<g id="a_node3"><a xlink:href="c_0_68.html" xlink:title="{TopSpace&#45;like(X₁)|TopSpace&#45;like(X₃)|TopStruct(X₁)|TopStruct(X₃)|X₄ &#45;&#45;&amp;gt; X₂ ∈ bool(carrier(X₁) × carrier(X₃))|function(X₄ &#45;&#45;&amp;gt; X₂)|quasi_total(X₄ &#45;&#45;&amp;gt; X₂,carrier(X₁),carrier(X₃))|sk₉(X₁,X₃,X₄ &#45;&#45;&amp;gt; X₂) ∈ X₄|⇊|X₂ ∈ sk₁₀(X₁,X₃,X₄ &#45;&#45;&amp;gt; X₂)|carrier(X₁) = Ø|continuous(X₄ &#45;&#45;&amp;gt; X₂,X₁,X₃)|empty(X₃)}" target="_vizar">
<polygon fill="#f8edd1" stroke="#7f7542" points="488.5,-16.5 488.5,-211.5 795.5,-211.5 795.5,-16.5 488.5,-16.5"/>
<text text-anchor="middle" x="642" y="-200.3" font-family="Times,serif" font-size="14.00">TopSpace&#45;like(X₁)</text>
<polyline fill="none" stroke="#7f7542" points="488.5,-196.5 795.5,-196.5 "/>
<text text-anchor="middle" x="642" y="-185.3" font-family="Times,serif" font-size="14.00">TopSpace&#45;like(X₃)</text>
<polyline fill="none" stroke="#7f7542" points="488.5,-181.5 795.5,-181.5 "/>
<text text-anchor="middle" x="642" y="-170.3" font-family="Times,serif" font-size="14.00">TopStruct(X₁)</text>
<polyline fill="none" stroke="#7f7542" points="488.5,-166.5 795.5,-166.5 "/>
<text text-anchor="middle" x="642" y="-155.3" font-family="Times,serif" font-size="14.00">TopStruct(X₃)</text>
<polyline fill="none" stroke="#7f7542" points="488.5,-151.5 795.5,-151.5 "/>
<text text-anchor="middle" x="642" y="-140.3" font-family="Times,serif" font-size="14.00">X₄ &#45;&#45;&gt; X₂ ∈ bool(carrier(X₁) × carrier(X₃))</text>
<polyline fill="none" stroke="#7f7542" points="488.5,-136.5 795.5,-136.5 "/>
<text text-anchor="middle" x="642" y="-125.3" font-family="Times,serif" font-size="14.00">function(X₄ &#45;&#45;&gt; X₂)</text>
<polyline fill="none" stroke="#7f7542" points="488.5,-121.5 795.5,-121.5 "/>
<text text-anchor="middle" x="642" y="-110.3" font-family="Times,serif" font-size="14.00">quasi_total(X₄ &#45;&#45;&gt; X₂,carrier(X₁),carrier(X₃))</text>
<polyline fill="none" stroke="#7f7542" points="488.5,-106.5 795.5,-106.5 "/>
<text text-anchor="middle" x="642" y="-95.3" font-family="Times,serif" font-size="14.00">sk₉(X₁,X₃,X₄ &#45;&#45;&gt; X₂) ∈ X₄</text>
<polyline fill="none" stroke="#7f7542" points="488.5,-91.5 795.5,-91.5 "/>
<text text-anchor="middle" x="642" y="-80.3" font-family="Times,serif" font-size="14.00">⇊</text>
<polyline fill="none" stroke="#7f7542" points="488.5,-76.5 795.5,-76.5 "/>
<text text-anchor="middle" x="642" y="-65.3" font-family="Times,serif" font-size="14.00">X₂ ∈ sk₁₀(X₁,X₃,X₄ &#45;&#45;&gt; X₂)</text>
<polyline fill="none" stroke="#7f7542" points="488.5,-61.5 795.5,-61.5 "/>
<text text-anchor="middle" x="642" y="-50.3" font-family="Times,serif" font-size="14.00">carrier(X₁) = Ø</text>
<polyline fill="none" stroke="#7f7542" points="488.5,-46.5 795.5,-46.5 "/>
<text text-anchor="middle" x="642" y="-35.3" font-family="Times,serif" font-size="14.00">continuous(X₄ &#45;&#45;&gt; X₂,X₁,X₃)</text>
<polyline fill="none" stroke="#7f7542" points="488.5,-31.5 795.5,-31.5 "/>
<text text-anchor="middle" x="642" y="-20.3" font-family="Times,serif" font-size="14.00">empty(X₃)</text>
</a>
</g>
</g>
<!-- c_0_28&#45;&gt;c_0_68 -->
<g id="edge2" class="edge">
<title>c_0_28&#45;&gt;c_0_68</title>
<path fill="none" stroke="black" stroke-dasharray="5,2" d="M367.17,-248.44C367.17,-225.4 367.17,-193 367.17,-193 367.17,-193 478.11,-193 478.11,-193"/>
<polygon fill="black" stroke="black" points="478.11,-196.5 488.11,-193 478.11,-189.5 478.11,-196.5"/>
</g>
<!-- c_0_81 -->
<g id="node4" class="node">
<title>c_0_81</title>
<g id="a_node4"><a xlink:href="c_0_81.html" xlink:title="{X₁ = sk₂|X₂ &#45;&#45;&amp;gt; X₁ ∈ bool(carrier(sk₁) × ℝ)|continuous(X₂ &#45;&#45;&amp;gt; X₁,sk₁,R^1)|function(X₂ &#45;&#45;&amp;gt; X₁)|quasi_total(X₂ &#45;&#45;&amp;gt; X₁,carrier(sk₁),ℝ)|sk₃(X₂ &#45;&#45;&amp;gt; X₁) ∈ X₂|⇊|carrier(sk₁) = Ø}" target="_vizar">
<polygon fill="#fa6900" stroke="#7f7542" points="220,-54 220,-174 470,-174 470,-54 220,-54"/>
<text text-anchor="middle" x="345" y="-162.8" font-family="Times,serif" font-size="14.00">X₁ = sk₂</text>
<polyline fill="none" stroke="#7f7542" points="220,-159 470,-159 "/>
<text text-anchor="middle" x="345" y="-147.8" font-family="Times,serif" font-size="14.00">X₂ &#45;&#45;&gt; X₁ ∈ bool(carrier(sk₁) × ℝ)</text>
<polyline fill="none" stroke="#7f7542" points="220,-144 470,-144 "/>
<text text-anchor="middle" x="345" y="-132.8" font-family="Times,serif" font-size="14.00">continuous(X₂ &#45;&#45;&gt; X₁,sk₁,R^1)</text>
<polyline fill="none" stroke="#7f7542" points="220,-129 470,-129 "/>
<text text-anchor="middle" x="345" y="-117.8" font-family="Times,serif" font-size="14.00">function(X₂ &#45;&#45;&gt; X₁)</text>
<polyline fill="none" stroke="#7f7542" points="220,-114 470,-114 "/>
<text text-anchor="middle" x="345" y="-102.8" font-family="Times,serif" font-size="14.00">quasi_total(X₂ &#45;&#45;&gt; X₁,carrier(sk₁),ℝ)</text>
<polyline fill="none" stroke="#7f7542" points="220,-99 470,-99 "/>
<text text-anchor="middle" x="345" y="-87.8" font-family="Times,serif" font-size="14.00">sk₃(X₂ &#45;&#45;&gt; X₁) ∈ X₂</text>
<polyline fill="none" stroke="#7f7542" points="220,-84 470,-84 "/>
<text text-anchor="middle" x="345" y="-72.8" font-family="Times,serif" font-size="14.00">⇊</text>
<polyline fill="none" stroke="#7f7542" points="220,-69 470,-69 "/>
<text text-anchor="middle" x="345" y="-57.8" font-family="Times,serif" font-size="14.00">carrier(sk₁) = Ø</text>
</a>
</g>
</g>
<!-- c_0_28&#45;&gt;c_0_81 -->
<g id="edge3" class="edge">
<title>c_0_28&#45;&gt;c_0_81</title>
<path fill="none" stroke="black" stroke-dasharray="5,2" d="M322.83,-248.17C322.83,-248.17 322.83,-184.15 322.83,-184.15"/>
<polygon fill="black" stroke="black" points="326.33,-184.15 322.83,-174.15 319.33,-184.15 326.33,-184.15"/>
</g>
<!-- c_0_31 -->
<g id="node5" class="node">
<title>c_0_31</title>
<g id="a_node5"><a xlink:href="c_0_31.html" xlink:title="{X₁ ∈ X₃|X₃ = (X₄ &#45;&#45;&amp;gt; X₂) .: X₅|function(X₄ &#45;&#45;&amp;gt; X₂)|relation(X₄ &#45;&#45;&amp;gt; X₂)|sk₅(X₄ &#45;&#45;&amp;gt; X₂,X₅,X₃,X₁) ∈ X₄|⇊|X₁ = X₂}" target="_vizar">
<polygon fill="#f8edd1" stroke="#7f7542" points="16.5,-61.5 16.5,-166.5 201.5,-166.5 201.5,-61.5 16.5,-61.5"/>
<text text-anchor="middle" x="109" y="-155.3" font-family="Times,serif" font-size="14.00">X₁ ∈ X₃</text>
<polyline fill="none" stroke="#7f7542" points="16.5,-151.5 201.5,-151.5 "/>
<text text-anchor="middle" x="109" y="-140.3" font-family="Times,serif" font-size="14.00">X₃ = (X₄ &#45;&#45;&gt; X₂) .: X₅</text>
<polyline fill="none" stroke="#7f7542" points="16.5,-136.5 201.5,-136.5 "/>
<text text-anchor="middle" x="109" y="-125.3" font-family="Times,serif" font-size="14.00">function(X₄ &#45;&#45;&gt; X₂)</text>
<polyline fill="none" stroke="#7f7542" points="16.5,-121.5 201.5,-121.5 "/>
<text text-anchor="middle" x="109" y="-110.3" font-family="Times,serif" font-size="14.00">relation(X₄ &#45;&#45;&gt; X₂)</text>
<polyline fill="none" stroke="#7f7542" points="16.5,-106.5 201.5,-106.5 "/>
<text text-anchor="middle" x="109" y="-95.3" font-family="Times,serif" font-size="14.00">sk₅(X₄ &#45;&#45;&gt; X₂,X₅,X₃,X₁) ∈ X₄</text>
<polyline fill="none" stroke="#7f7542" points="16.5,-91.5 201.5,-91.5 "/>
<text text-anchor="middle" x="109" y="-80.3" font-family="Times,serif" font-size="14.00">⇊</text>
<polyline fill="none" stroke="#7f7542" points="16.5,-76.5 201.5,-76.5 "/>
<text text-anchor="middle" x="109" y="-65.3" font-family="Times,serif" font-size="14.00">X₁ = X₂</text>
</a>
</g>
</g>
<!-- c_0_28&#45;&gt;c_0_31 -->
<g id="edge4" class="edge">
<title>c_0_28&#45;&gt;c_0_31</title>
<path fill="none" stroke="black" stroke-dasharray="5,2" d="M278.32,-271C208.53,-271 109,-271 109,-271 109,-271 109,-176.72 109,-176.72"/>
<polygon fill="black" stroke="black" points="112.5,-176.72 109,-166.72 105.5,-176.72 112.5,-176.72"/>
</g>
</g>
</svg>
