<?xml version="1.0" encoding="UTF-8" standalone="no"?>
<!DOCTYPE svg PUBLIC "-//W3C//DTD SVG 1.1//EN"
 "http://www.w3.org/Graphics/SVG/1.1/DTD/svg11.dtd">
<!-- Generated by graphviz version 5.0.0 (0)
 -->
<!-- Title: proof Pages: 1 -->
<svg width="566pt" height="250pt"
 viewBox="0.00 0.00 566.00 250.00" xmlns="http://www.w3.org/2000/svg" xmlns:xlink="http://www.w3.org/1999/xlink">
<g id="graph0" class="graph" transform="scale(1 1) rotate(0) translate(4 246)">
<title>proof</title>
<g id="clust1" class="cluster">
<title>cluster_0</title>
<polygon fill="transparent" stroke="black" stroke-dasharray="1,5" points="211,-202 211,-234 405,-234 405,-202 211,-202"/>
</g>
<g id="clust2" class="cluster">
<title>cluster_1</title>
<polygon fill="transparent" stroke="black" stroke-width="2" points="206,-105 206,-182 410,-182 410,-105 206,-105"/>
</g>
<g id="clust3" class="cluster">
<title>cluster_2</title>
<polygon fill="transparent" stroke="black" stroke-dasharray="1,5" points="8,-8 8,-85 550,-85 550,-8 8,-8"/>
</g>
<!-- redefinition_k8_funcop_1 -->
<g id="node1" class="node">
<title>redefinition_k8_funcop_1</title>
<g id="a_node1"><a xlink:href="redefinition_k8_funcop_1.html" xlink:title="redefinition_k8_funcop_1" target="_parent">
<polygon fill="#69d2e7" stroke="#7f7542" points="219,-210.5 219,-225.5 397,-225.5 397,-210.5 219,-210.5"/>
<text text-anchor="middle" x="308" y="-214.3" font-family="Times,serif" font-size="14.00">redefinition_k8_funcop_1</text>
</a>
</g>
</g>
<!-- c_0_76 -->
<g id="node2" class="node">
<title>c_0_76</title>
<g id="a_node2"><a xlink:href="c_0_76.html" xlink:title="{X₂ ∈ X₁|⇊|X₁ &#45;&#45;&amp;gt; X₃ &#45;&#45;&amp;gt; X₂ = X₃ &#45;&#45;&amp;gt; X₂|X₁ = Ø}" target="_parent">
<polygon fill="#f8edd1" stroke="#7f7542" points="214.5,-113.5 214.5,-173.5 401.5,-173.5 401.5,-113.5 214.5,-113.5"/>
<text text-anchor="middle" x="308" y="-162.3" font-family="Times,serif" font-size="14.00">X₂ ∈ X₁</text>
<polyline fill="none" stroke="#7f7542" points="214.5,-158.5 401.5,-158.5 "/>
<text text-anchor="middle" x="308" y="-147.3" font-family="Times,serif" font-size="14.00">⇊</text>
<polyline fill="none" stroke="#7f7542" points="214.5,-143.5 401.5,-143.5 "/>
<text text-anchor="middle" x="308" y="-132.3" font-family="Times,serif" font-size="14.00">X₁ &#45;&#45;&gt; X₃ &#45;&#45;&gt; X₂ = X₃ &#45;&#45;&gt; X₂</text>
<polyline fill="none" stroke="#7f7542" points="214.5,-128.5 401.5,-128.5 "/>
<text text-anchor="middle" x="308" y="-117.3" font-family="Times,serif" font-size="14.00">X₁ = Ø</text>
</a>
</g>
</g>
<!-- redefinition_k8_funcop_1&#45;&gt;c_0_76 -->
<g id="edge1" class="edge">
<title>redefinition_k8_funcop_1&#45;&gt;c_0_76</title>
<path fill="none" stroke="black" d="M308,-210.31C308,-210.31 308,-183.51 308,-183.51"/>
<polygon fill="black" stroke="black" points="311.5,-183.51 308,-173.51 304.5,-183.51 311.5,-183.51"/>
</g>
<!-- c_0_114 -->
<g id="node3" class="node">
<title>c_0_114</title>
<g id="a_node3"><a xlink:href="c_0_114.html" xlink:title="{X₃ ∈ X₁|⇊|X₁ = Ø|function(X₂ &#45;&#45;&amp;gt; X₃)}" target="_parent">
<polygon fill="#f8edd1" stroke="#7f7542" points="412,-16.5 412,-76.5 542,-76.5 542,-16.5 412,-16.5"/>
<text text-anchor="middle" x="477" y="-65.3" font-family="Times,serif" font-size="14.00">X₃ ∈ X₁</text>
<polyline fill="none" stroke="#7f7542" points="412,-61.5 542,-61.5 "/>
<text text-anchor="middle" x="477" y="-50.3" font-family="Times,serif" font-size="14.00">⇊</text>
<polyline fill="none" stroke="#7f7542" points="412,-46.5 542,-46.5 "/>
<text text-anchor="middle" x="477" y="-35.3" font-family="Times,serif" font-size="14.00">X₁ = Ø</text>
<polyline fill="none" stroke="#7f7542" points="412,-31.5 542,-31.5 "/>
<text text-anchor="middle" x="477" y="-20.3" font-family="Times,serif" font-size="14.00">function(X₂ &#45;&#45;&gt; X₃)</text>
</a>
</g>
</g>
<!-- c_0_76&#45;&gt;c_0_114 -->
<g id="edge2" class="edge">
<title>c_0_76&#45;&gt;c_0_114</title>
<path fill="none" stroke="black" stroke-dasharray="5,2" d="M397.75,-113.45C397.75,-84.8 397.75,-46 397.75,-46 397.75,-46 401.92,-46 401.92,-46"/>
<polygon fill="black" stroke="black" points="401.92,-49.5 411.92,-46 401.92,-42.5 401.92,-49.5"/>
</g>
<!-- c_0_90 -->
<g id="node4" class="node">
<title>c_0_90</title>
<g id="a_node4"><a xlink:href="c_0_90.html" xlink:title="{X₃ ∈ X₁|⇊|X₁ = Ø|X₂ &#45;&#45;&amp;gt; X₃ ∈ bool(X₂ × X₁)}" target="_parent">
<polygon fill="#f8edd1" stroke="#7f7542" points="222,-16.5 222,-76.5 394,-76.5 394,-16.5 222,-16.5"/>
<text text-anchor="middle" x="308" y="-65.3" font-family="Times,serif" font-size="14.00">X₃ ∈ X₁</text>
<polyline fill="none" stroke="#7f7542" points="222,-61.5 394,-61.5 "/>
<text text-anchor="middle" x="308" y="-50.3" font-family="Times,serif" font-size="14.00">⇊</text>
<polyline fill="none" stroke="#7f7542" points="222,-46.5 394,-46.5 "/>
<text text-anchor="middle" x="308" y="-35.3" font-family="Times,serif" font-size="14.00">X₁ = Ø</text>
<polyline fill="none" stroke="#7f7542" points="222,-31.5 394,-31.5 "/>
<text text-anchor="middle" x="308" y="-20.3" font-family="Times,serif" font-size="14.00">X₂ &#45;&#45;&gt; X₃ ∈ bool(X₂ × X₁)</text>
</a>
</g>
</g>
<!-- c_0_76&#45;&gt;c_0_90 -->
<g id="edge3" class="edge">
<title>c_0_76&#45;&gt;c_0_90</title>
<path fill="none" stroke="black" stroke-dasharray="5,2" d="M308,-113.34C308,-113.34 308,-86.64 308,-86.64"/>
<polygon fill="black" stroke="black" points="311.5,-86.64 308,-76.64 304.5,-86.64 311.5,-86.64"/>
</g>
<!-- c_0_89 -->
<g id="node5" class="node">
<title>c_0_89</title>
<g id="a_node5"><a xlink:href="c_0_89.html" xlink:title="{X₃ ∈ X₁|⇊|X₁ = Ø|quasi_total(X₂ &#45;&#45;&amp;gt; X₃,X₂,X₁)}" target="_parent">
<polygon fill="#f8edd1" stroke="#7f7542" points="16,-16.5 16,-76.5 204,-76.5 204,-16.5 16,-16.5"/>
<text text-anchor="middle" x="110" y="-65.3" font-family="Times,serif" font-size="14.00">X₃ ∈ X₁</text>
<polyline fill="none" stroke="#7f7542" points="16,-61.5 204,-61.5 "/>
<text text-anchor="middle" x="110" y="-50.3" font-family="Times,serif" font-size="14.00">⇊</text>
<polyline fill="none" stroke="#7f7542" points="16,-46.5 204,-46.5 "/>
<text text-anchor="middle" x="110" y="-35.3" font-family="Times,serif" font-size="14.00">X₁ = Ø</text>
<polyline fill="none" stroke="#7f7542" points="16,-31.5 204,-31.5 "/>
<text text-anchor="middle" x="110" y="-20.3" font-family="Times,serif" font-size="14.00">quasi_total(X₂ &#45;&#45;&gt; X₃,X₂,X₁)</text>
</a>
</g>
</g>
<!-- c_0_76&#45;&gt;c_0_89 -->
<g id="edge4" class="edge">
<title>c_0_76&#45;&gt;c_0_89</title>
<path fill="none" stroke="black" stroke-dasharray="5,2" d="M218.25,-113.45C218.25,-84.8 218.25,-46 218.25,-46 218.25,-46 214.1,-46 214.1,-46"/>
<polygon fill="black" stroke="black" points="214.1,-42.5 204.1,-46 214.1,-49.5 214.1,-42.5"/>
</g>
</g>
</svg>
