<?xml version="1.0" encoding="UTF-8" standalone="no"?>
<!DOCTYPE svg PUBLIC "-//W3C//DTD SVG 1.1//EN"
 "http://www.w3.org/Graphics/SVG/1.1/DTD/svg11.dtd">
<!-- Generated by graphviz version 5.0.0 (0)
 -->
<!-- Title: proof Pages: 1 -->
<svg width="941pt" height="430pt"
 viewBox="0.00 0.00 941.00 430.00" xmlns="http://www.w3.org/2000/svg" xmlns:xlink="http://www.w3.org/1999/xlink">
<g id="graph0" class="graph" transform="scale(1 1) rotate(0) translate(4 426)">
<title>proof</title>
<g id="clust1" class="cluster">
<title>cluster_0</title>
<polygon fill="transparent" stroke="black" stroke-dasharray="1,5" points="395,-382 395,-414 481,-414 481,-382 395,-382"/>
</g>
<g id="clust2" class="cluster">
<title>cluster_1</title>
<polygon fill="transparent" stroke="black" stroke-width="2" points="405,-285 405,-362 471,-362 471,-285 405,-285"/>
</g>
<g id="clust3" class="cluster">
<title>cluster_2</title>
<polygon fill="transparent" stroke="black" stroke-dasharray="1,5" points="8,-8 8,-265 925,-265 925,-8 8,-8"/>
</g>
<!-- t2_subset -->
<g id="node1" class="node">
<title>t2_subset</title>
<g id="a_node1"><a xlink:href="t2_subset.html" xlink:title="t2_subset" target="_parent">
<polygon fill="#69d2e7" stroke="#7f7542" points="403,-390.5 403,-405.5 473,-405.5 473,-390.5 403,-390.5"/>
<text text-anchor="middle" x="438" y="-394.3" font-family="Times,serif" font-size="14.00">t2_subset</text>
</a>
</g>
</g>
<!-- c_0_69 -->
<g id="node2" class="node">
<title>c_0_69</title>
<g id="a_node2"><a xlink:href="c_0_69.html" xlink:title="{X₁ ∈ X₂|⇊|X₁ ∈ X₂|X₂ = Ø}" target="_parent">
<polygon fill="#f8edd1" stroke="#7f7542" points="413,-293.5 413,-353.5 463,-353.5 463,-293.5 413,-293.5"/>
<text text-anchor="middle" x="438" y="-342.3" font-family="Times,serif" font-size="14.00">X₁ ∈ X₂</text>
<polyline fill="none" stroke="#7f7542" points="413,-338.5 463,-338.5 "/>
<text text-anchor="middle" x="438" y="-327.3" font-family="Times,serif" font-size="14.00">⇊</text>
<polyline fill="none" stroke="#7f7542" points="413,-323.5 463,-323.5 "/>
<text text-anchor="middle" x="438" y="-312.3" font-family="Times,serif" font-size="14.00">X₁ ∈ X₂</text>
<polyline fill="none" stroke="#7f7542" points="413,-308.5 463,-308.5 "/>
<text text-anchor="middle" x="438" y="-297.3" font-family="Times,serif" font-size="14.00">X₂ = Ø</text>
</a>
</g>
</g>
<!-- t2_subset&#45;&gt;c_0_69 -->
<g id="edge1" class="edge">
<title>t2_subset&#45;&gt;c_0_69</title>
<path fill="none" stroke="black" d="M438,-390.31C438,-390.31 438,-363.51 438,-363.51"/>
<polygon fill="black" stroke="black" points="441.5,-363.51 438,-353.51 434.5,-363.51 441.5,-363.51"/>
</g>
<!-- c_0_95 -->
<g id="node3" class="node">
<title>c_0_95</title>
<g id="a_node3"><a xlink:href="c_0_95.html" xlink:title="{TopSpace&#45;like(X₃)|TopSpace&#45;like(X₄)|TopStruct(X₃)|TopStruct(X₄)|X₁ &#45;&#45;&amp;gt; X₂ ∈ bool(carrier(X₃) × carrier(X₄))|X₁ ∈ bool(carrier(X₃))|X₂ ∈ sk₁₀(X₃,X₄,X₁ &#45;&#45;&amp;gt; X₂)|function(X₁ &#45;&#45;&amp;gt; X₂)|open(X₁,X₃)|quasi_total(X₁ &#45;&#45;&amp;gt; X₂,carrier(X₃),carrier(X₄))|sk₉(X₃,X₄,X₁ &#45;&#45;&amp;gt; X₂) ∈ X₁|⇊|X₁ = Ø|continuous(X₁ &#45;&#45;&amp;gt; X₂,X₃,X₄)|empty(X₃)|empty(X₄)}" target="_parent">
<polygon fill="#f8edd1" stroke="#7f7542" points="609.5,-16.5 609.5,-256.5 916.5,-256.5 916.5,-16.5 609.5,-16.5"/>
<text text-anchor="middle" x="763" y="-245.3" font-family="Times,serif" font-size="14.00">TopSpace&#45;like(X₃)</text>
<polyline fill="none" stroke="#7f7542" points="609.5,-241.5 916.5,-241.5 "/>
<text text-anchor="middle" x="763" y="-230.3" font-family="Times,serif" font-size="14.00">TopSpace&#45;like(X₄)</text>
<polyline fill="none" stroke="#7f7542" points="609.5,-226.5 916.5,-226.5 "/>
<text text-anchor="middle" x="763" y="-215.3" font-family="Times,serif" font-size="14.00">TopStruct(X₃)</text>
<polyline fill="none" stroke="#7f7542" points="609.5,-211.5 916.5,-211.5 "/>
<text text-anchor="middle" x="763" y="-200.3" font-family="Times,serif" font-size="14.00">TopStruct(X₄)</text>
<polyline fill="none" stroke="#7f7542" points="609.5,-196.5 916.5,-196.5 "/>
<text text-anchor="middle" x="763" y="-185.3" font-family="Times,serif" font-size="14.00">X₁ &#45;&#45;&gt; X₂ ∈ bool(carrier(X₃) × carrier(X₄))</text>
<polyline fill="none" stroke="#7f7542" points="609.5,-181.5 916.5,-181.5 "/>
<text text-anchor="middle" x="763" y="-170.3" font-family="Times,serif" font-size="14.00">X₁ ∈ bool(carrier(X₃))</text>
<polyline fill="none" stroke="#7f7542" points="609.5,-166.5 916.5,-166.5 "/>
<text text-anchor="middle" x="763" y="-155.3" font-family="Times,serif" font-size="14.00">X₂ ∈ sk₁₀(X₃,X₄,X₁ &#45;&#45;&gt; X₂)</text>
<polyline fill="none" stroke="#7f7542" points="609.5,-151.5 916.5,-151.5 "/>
<text text-anchor="middle" x="763" y="-140.3" font-family="Times,serif" font-size="14.00">function(X₁ &#45;&#45;&gt; X₂)</text>
<polyline fill="none" stroke="#7f7542" points="609.5,-136.5 916.5,-136.5 "/>
<text text-anchor="middle" x="763" y="-125.3" font-family="Times,serif" font-size="14.00">open(X₁,X₃)</text>
<polyline fill="none" stroke="#7f7542" points="609.5,-121.5 916.5,-121.5 "/>
<text text-anchor="middle" x="763" y="-110.3" font-family="Times,serif" font-size="14.00">quasi_total(X₁ &#45;&#45;&gt; X₂,carrier(X₃),carrier(X₄))</text>
<polyline fill="none" stroke="#7f7542" points="609.5,-106.5 916.5,-106.5 "/>
<text text-anchor="middle" x="763" y="-95.3" font-family="Times,serif" font-size="14.00">sk₉(X₃,X₄,X₁ &#45;&#45;&gt; X₂) ∈ X₁</text>
<polyline fill="none" stroke="#7f7542" points="609.5,-91.5 916.5,-91.5 "/>
<text text-anchor="middle" x="763" y="-80.3" font-family="Times,serif" font-size="14.00">⇊</text>
<polyline fill="none" stroke="#7f7542" points="609.5,-76.5 916.5,-76.5 "/>
<text text-anchor="middle" x="763" y="-65.3" font-family="Times,serif" font-size="14.00">X₁ = Ø</text>
<polyline fill="none" stroke="#7f7542" points="609.5,-61.5 916.5,-61.5 "/>
<text text-anchor="middle" x="763" y="-50.3" font-family="Times,serif" font-size="14.00">continuous(X₁ &#45;&#45;&gt; X₂,X₃,X₄)</text>
<polyline fill="none" stroke="#7f7542" points="609.5,-46.5 916.5,-46.5 "/>
<text text-anchor="middle" x="763" y="-35.3" font-family="Times,serif" font-size="14.00">empty(X₃)</text>
<polyline fill="none" stroke="#7f7542" points="609.5,-31.5 916.5,-31.5 "/>
<text text-anchor="middle" x="763" y="-20.3" font-family="Times,serif" font-size="14.00">empty(X₄)</text>
</a>
</g>
</g>
<!-- c_0_69&#45;&gt;c_0_95 -->
<g id="edge2" class="edge">
<title>c_0_69&#45;&gt;c_0_95</title>
<path fill="none" stroke="black" stroke-dasharray="5,2" d="M446.33,-293.2C446.33,-272.57 446.33,-249 446.33,-249 446.33,-249 599.3,-249 599.3,-249"/>
<polygon fill="black" stroke="black" points="599.3,-252.5 609.3,-249 599.3,-245.5 599.3,-252.5"/>
</g>
<!-- c_0_83 -->
<g id="node4" class="node">
<title>c_0_83</title>
<g id="a_node4"><a xlink:href="c_0_83.html" xlink:title="{TopSpace&#45;like(X₁)|TopSpace&#45;like(X₄)|TopStruct(X₁)|TopStruct(X₄)|X₂ &#45;&#45;&amp;gt; X₃ ∈ bool(carrier(X₁) × carrier(X₄))|function(X₂ &#45;&#45;&amp;gt; X₃)|quasi_total(X₂ &#45;&#45;&amp;gt; X₃,carrier(X₁),carrier(X₄))|sk₉(X₁,X₄,X₂ &#45;&#45;&amp;gt; X₃) ∈ X₂|⇊|X₂ = Ø|X₃ ∈ sk₁₀(X₁,X₄,X₂ &#45;&#45;&amp;gt; X₃)|carrier(X₁) = Ø|continuous(X₂ &#45;&#45;&amp;gt; X₃,X₁,X₄)|empty(X₄)}" target="_parent">
<polygon fill="#f8edd1" stroke="#7f7542" points="284.5,-31.5 284.5,-241.5 591.5,-241.5 591.5,-31.5 284.5,-31.5"/>
<text text-anchor="middle" x="438" y="-230.3" font-family="Times,serif" font-size="14.00">TopSpace&#45;like(X₁)</text>
<polyline fill="none" stroke="#7f7542" points="284.5,-226.5 591.5,-226.5 "/>
<text text-anchor="middle" x="438" y="-215.3" font-family="Times,serif" font-size="14.00">TopSpace&#45;like(X₄)</text>
<polyline fill="none" stroke="#7f7542" points="284.5,-211.5 591.5,-211.5 "/>
<text text-anchor="middle" x="438" y="-200.3" font-family="Times,serif" font-size="14.00">TopStruct(X₁)</text>
<polyline fill="none" stroke="#7f7542" points="284.5,-196.5 591.5,-196.5 "/>
<text text-anchor="middle" x="438" y="-185.3" font-family="Times,serif" font-size="14.00">TopStruct(X₄)</text>
<polyline fill="none" stroke="#7f7542" points="284.5,-181.5 591.5,-181.5 "/>
<text text-anchor="middle" x="438" y="-170.3" font-family="Times,serif" font-size="14.00">X₂ &#45;&#45;&gt; X₃ ∈ bool(carrier(X₁) × carrier(X₄))</text>
<polyline fill="none" stroke="#7f7542" points="284.5,-166.5 591.5,-166.5 "/>
<text text-anchor="middle" x="438" y="-155.3" font-family="Times,serif" font-size="14.00">function(X₂ &#45;&#45;&gt; X₃)</text>
<polyline fill="none" stroke="#7f7542" points="284.5,-151.5 591.5,-151.5 "/>
<text text-anchor="middle" x="438" y="-140.3" font-family="Times,serif" font-size="14.00">quasi_total(X₂ &#45;&#45;&gt; X₃,carrier(X₁),carrier(X₄))</text>
<polyline fill="none" stroke="#7f7542" points="284.5,-136.5 591.5,-136.5 "/>
<text text-anchor="middle" x="438" y="-125.3" font-family="Times,serif" font-size="14.00">sk₉(X₁,X₄,X₂ &#45;&#45;&gt; X₃) ∈ X₂</text>
<polyline fill="none" stroke="#7f7542" points="284.5,-121.5 591.5,-121.5 "/>
<text text-anchor="middle" x="438" y="-110.3" font-family="Times,serif" font-size="14.00">⇊</text>
<polyline fill="none" stroke="#7f7542" points="284.5,-106.5 591.5,-106.5 "/>
<text text-anchor="middle" x="438" y="-95.3" font-family="Times,serif" font-size="14.00">X₂ = Ø</text>
<polyline fill="none" stroke="#7f7542" points="284.5,-91.5 591.5,-91.5 "/>
<text text-anchor="middle" x="438" y="-80.3" font-family="Times,serif" font-size="14.00">X₃ ∈ sk₁₀(X₁,X₄,X₂ &#45;&#45;&gt; X₃)</text>
<polyline fill="none" stroke="#7f7542" points="284.5,-76.5 591.5,-76.5 "/>
<text text-anchor="middle" x="438" y="-65.3" font-family="Times,serif" font-size="14.00">carrier(X₁) = Ø</text>
<polyline fill="none" stroke="#7f7542" points="284.5,-61.5 591.5,-61.5 "/>
<text text-anchor="middle" x="438" y="-50.3" font-family="Times,serif" font-size="14.00">continuous(X₂ &#45;&#45;&gt; X₃,X₁,X₄)</text>
<polyline fill="none" stroke="#7f7542" points="284.5,-46.5 591.5,-46.5 "/>
<text text-anchor="middle" x="438" y="-35.3" font-family="Times,serif" font-size="14.00">empty(X₄)</text>
</a>
</g>
</g>
<!-- c_0_69&#45;&gt;c_0_83 -->
<g id="edge3" class="edge">
<title>c_0_69&#45;&gt;c_0_83</title>
<path fill="none" stroke="black" stroke-dasharray="5,2" d="M429.67,-293.46C429.67,-293.46 429.67,-251.78 429.67,-251.78"/>
<polygon fill="black" stroke="black" points="433.17,-251.78 429.67,-241.78 426.17,-251.78 433.17,-251.78"/>
</g>
<!-- c_0_94 -->
<g id="node5" class="node">
<title>c_0_94</title>
<g id="a_node5"><a xlink:href="c_0_94.html" xlink:title="{X₁ &#45;&#45;&amp;gt; X₂ ∈ bool(carrier(sk₁) × ℝ)|X₂ = sk₂|continuous(X₁ &#45;&#45;&amp;gt; X₂,sk₁,R^1)|function(X₁ &#45;&#45;&amp;gt; X₂)|quasi_total(X₁ &#45;&#45;&amp;gt; X₂,carrier(sk₁),ℝ)|sk₃(X₁ &#45;&#45;&amp;gt; X₂) ∈ X₁|⇊|X₁ = Ø|carrier(sk₁) = Ø}" target="_parent">
<polygon fill="#fa6900" stroke="#7f7542" points="16,-69 16,-204 266,-204 266,-69 16,-69"/>
<text text-anchor="middle" x="141" y="-192.8" font-family="Times,serif" font-size="14.00">X₁ &#45;&#45;&gt; X₂ ∈ bool(carrier(sk₁) × ℝ)</text>
<polyline fill="none" stroke="#7f7542" points="16,-189 266,-189 "/>
<text text-anchor="middle" x="141" y="-177.8" font-family="Times,serif" font-size="14.00">X₂ = sk₂</text>
<polyline fill="none" stroke="#7f7542" points="16,-174 266,-174 "/>
<text text-anchor="middle" x="141" y="-162.8" font-family="Times,serif" font-size="14.00">continuous(X₁ &#45;&#45;&gt; X₂,sk₁,R^1)</text>
<polyline fill="none" stroke="#7f7542" points="16,-159 266,-159 "/>
<text text-anchor="middle" x="141" y="-147.8" font-family="Times,serif" font-size="14.00">function(X₁ &#45;&#45;&gt; X₂)</text>
<polyline fill="none" stroke="#7f7542" points="16,-144 266,-144 "/>
<text text-anchor="middle" x="141" y="-132.8" font-family="Times,serif" font-size="14.00">quasi_total(X₁ &#45;&#45;&gt; X₂,carrier(sk₁),ℝ)</text>
<polyline fill="none" stroke="#7f7542" points="16,-129 266,-129 "/>
<text text-anchor="middle" x="141" y="-117.8" font-family="Times,serif" font-size="14.00">sk₃(X₁ &#45;&#45;&gt; X₂) ∈ X₁</text>
<polyline fill="none" stroke="#7f7542" points="16,-114 266,-114 "/>
<text text-anchor="middle" x="141" y="-102.8" font-family="Times,serif" font-size="14.00">⇊</text>
<polyline fill="none" stroke="#7f7542" points="16,-99 266,-99 "/>
<text text-anchor="middle" x="141" y="-87.8" font-family="Times,serif" font-size="14.00">X₁ = Ø</text>
<polyline fill="none" stroke="#7f7542" points="16,-84 266,-84 "/>
<text text-anchor="middle" x="141" y="-72.8" font-family="Times,serif" font-size="14.00">carrier(sk₁) = Ø</text>
</a>
</g>
</g>
<!-- c_0_69&#45;&gt;c_0_94 -->
<g id="edge4" class="edge">
<title>c_0_69&#45;&gt;c_0_94</title>
<path fill="none" stroke="black" stroke-dasharray="5,2" d="M412.93,-323C341.33,-323 141,-323 141,-323 141,-323 141,-214.09 141,-214.09"/>
<polygon fill="black" stroke="black" points="144.5,-214.09 141,-204.09 137.5,-214.09 144.5,-214.09"/>
</g>
</g>
</svg>
