<?xml version="1.0" encoding="UTF-8" standalone="no"?>
<!DOCTYPE svg PUBLIC "-//W3C//DTD SVG 1.1//EN"
 "http://www.w3.org/Graphics/SVG/1.1/DTD/svg11.dtd">
<!-- Generated by graphviz version 5.0.0 (0)
 -->
<!-- Title: proof Pages: 1 -->
<svg width="258pt" height="250pt"
 viewBox="0.00 0.00 258.00 250.00" xmlns="http://www.w3.org/2000/svg" xmlns:xlink="http://www.w3.org/1999/xlink">
<g id="graph0" class="graph" transform="scale(1 1) rotate(0) translate(4 246)">
<title>proof</title>
<g id="clust1" class="cluster">
<title>cluster_0</title>
<polygon fill="transparent" stroke="black" stroke-dasharray="1,5" points="62,-202 62,-234 188,-234 188,-202 62,-202"/>
</g>
<g id="clust2" class="cluster">
<title>cluster_1</title>
<polygon fill="transparent" stroke="black" stroke-width="2" points="8,-105 8,-182 242,-182 242,-105 8,-105"/>
</g>
<g id="clust3" class="cluster">
<title>cluster_2</title>
<polygon fill="transparent" stroke="black" stroke-dasharray="1,5" points="31,-8 31,-85 219,-85 219,-8 31,-8"/>
</g>
<!-- dt_k8_funcop_1 -->
<g id="node1" class="node">
<title>dt_k8_funcop_1</title>
<g id="a_node1"><a xlink:href="dt_k8_funcop_1.html" xlink:title="dt_k8_funcop_1" target="_parent">
<polygon fill="#69d2e7" stroke="#7f7542" points="70,-210.5 70,-225.5 180,-225.5 180,-210.5 70,-210.5"/>
<text text-anchor="middle" x="125" y="-214.3" font-family="Times,serif" font-size="14.00">dt_k8_funcop_1</text>
</a>
</g>
</g>
<!-- c_0_77 -->
<g id="node2" class="node">
<title>c_0_77</title>
<g id="a_node2"><a xlink:href="c_0_77.html" xlink:title="{X₃ ∈ X₁|⇊|X₁ &#45;&#45;&amp;gt; X₂ &#45;&#45;&amp;gt; X₃ ∈ bool(X₂ × X₁)|X₁ = Ø}" target="_parent">
<polygon fill="#f8edd1" stroke="#7f7542" points="16.5,-113.5 16.5,-173.5 233.5,-173.5 233.5,-113.5 16.5,-113.5"/>
<text text-anchor="middle" x="125" y="-162.3" font-family="Times,serif" font-size="14.00">X₃ ∈ X₁</text>
<polyline fill="none" stroke="#7f7542" points="16.5,-158.5 233.5,-158.5 "/>
<text text-anchor="middle" x="125" y="-147.3" font-family="Times,serif" font-size="14.00">⇊</text>
<polyline fill="none" stroke="#7f7542" points="16.5,-143.5 233.5,-143.5 "/>
<text text-anchor="middle" x="125" y="-132.3" font-family="Times,serif" font-size="14.00">X₁ &#45;&#45;&gt; X₂ &#45;&#45;&gt; X₃ ∈ bool(X₂ × X₁)</text>
<polyline fill="none" stroke="#7f7542" points="16.5,-128.5 233.5,-128.5 "/>
<text text-anchor="middle" x="125" y="-117.3" font-family="Times,serif" font-size="14.00">X₁ = Ø</text>
</a>
</g>
</g>
<!-- dt_k8_funcop_1&#45;&gt;c_0_77 -->
<g id="edge1" class="edge">
<title>dt_k8_funcop_1&#45;&gt;c_0_77</title>
<path fill="none" stroke="black" d="M125,-210.31C125,-210.31 125,-183.51 125,-183.51"/>
<polygon fill="black" stroke="black" points="128.5,-183.51 125,-173.51 121.5,-183.51 128.5,-183.51"/>
</g>
<!-- c_0_90 -->
<g id="node3" class="node">
<title>c_0_90</title>
<g id="a_node3"><a xlink:href="c_0_90.html" xlink:title="{X₃ ∈ X₁|⇊|X₁ = Ø|X₂ &#45;&#45;&amp;gt; X₃ ∈ bool(X₂ × X₁)}" target="_parent">
<polygon fill="#f8edd1" stroke="#7f7542" points="39,-16.5 39,-76.5 211,-76.5 211,-16.5 39,-16.5"/>
<text text-anchor="middle" x="125" y="-65.3" font-family="Times,serif" font-size="14.00">X₃ ∈ X₁</text>
<polyline fill="none" stroke="#7f7542" points="39,-61.5 211,-61.5 "/>
<text text-anchor="middle" x="125" y="-50.3" font-family="Times,serif" font-size="14.00">⇊</text>
<polyline fill="none" stroke="#7f7542" points="39,-46.5 211,-46.5 "/>
<text text-anchor="middle" x="125" y="-35.3" font-family="Times,serif" font-size="14.00">X₁ = Ø</text>
<polyline fill="none" stroke="#7f7542" points="39,-31.5 211,-31.5 "/>
<text text-anchor="middle" x="125" y="-20.3" font-family="Times,serif" font-size="14.00">X₂ &#45;&#45;&gt; X₃ ∈ bool(X₂ × X₁)</text>
</a>
</g>
</g>
<!-- c_0_77&#45;&gt;c_0_90 -->
<g id="edge2" class="edge">
<title>c_0_77&#45;&gt;c_0_90</title>
<path fill="none" stroke="black" stroke-dasharray="5,2" d="M125,-113.34C125,-113.34 125,-86.64 125,-86.64"/>
<polygon fill="black" stroke="black" points="128.5,-86.64 125,-76.64 121.5,-86.64 128.5,-86.64"/>
</g>
</g>
</svg>
