<?xml version="1.0" encoding="UTF-8" standalone="no"?>
<!DOCTYPE svg PUBLIC "-//W3C//DTD SVG 1.1//EN"
 "http://www.w3.org/Graphics/SVG/1.1/DTD/svg11.dtd">
<!-- Generated by graphviz version 5.0.0 (0)
 -->
<!-- Title: proof Pages: 1 -->
<svg width="313pt" height="108pt"
 viewBox="0.00 0.00 313.00 108.00" xmlns="http://www.w3.org/2000/svg" xmlns:xlink="http://www.w3.org/1999/xlink">
<g id="graph0" class="graph" transform="scale(1 1) rotate(0) translate(4 104)">
<title>proof</title>
<g id="clust1" class="cluster">
<title>cluster_1</title>
<polygon fill="transparent" stroke="black" stroke-width="2" points="99,-60 99,-92 219,-92 219,-60 99,-60"/>
</g>
<g id="clust2" class="cluster">
<title>cluster_2</title>
<polygon fill="transparent" stroke="black" stroke-dasharray="1,5" points="8,-8 8,-40 297,-40 297,-8 8,-8"/>
</g>
<!-- dt_k3_topmetr -->
<g id="node1" class="node">
<title>dt_k3_topmetr</title>
<g id="a_node1"><a xlink:href="dt_k3_topmetr.html" xlink:title="dt_k3_topmetr" target="_parent">
<polygon fill="#69d2e7" stroke="#7f7542" points="107,-68.5 107,-83.5 211,-83.5 211,-68.5 107,-68.5"/>
<text text-anchor="middle" x="159" y="-72.3" font-family="Times,serif" font-size="14.00">dt_k3_topmetr</text>
</a>
</g>
</g>
<!-- c_0_107 -->
<g id="node2" class="node">
<title>c_0_107</title>
<g id="a_node2"><a xlink:href="c_0_107.html" xlink:title="{TopStruct(R^1)}" target="_parent">
<polygon fill="#f8edd1" stroke="#7f7542" points="175.5,-16.5 175.5,-31.5 288.5,-31.5 288.5,-16.5 175.5,-16.5"/>
<text text-anchor="middle" x="232" y="-20.3" font-family="Times,serif" font-size="14.00">TopStruct(R^1)</text>
</a>
</g>
</g>
<!-- dt_k3_topmetr&#45;&gt;c_0_107 -->
<g id="edge1" class="edge">
<title>dt_k3_topmetr&#45;&gt;c_0_107</title>
<path fill="none" stroke="black" d="M193.25,-68.33C193.25,-68.33 193.25,-41.7 193.25,-41.7"/>
<polygon fill="black" stroke="black" points="196.75,-41.7 193.25,-31.7 189.75,-41.7 196.75,-41.7"/>
</g>
<!-- c_0_109 -->
<g id="node3" class="node">
<title>c_0_109</title>
<g id="a_node3"><a xlink:href="c_0_109.html" xlink:title="{TopSpace&#45;like(R^1)}" target="_parent">
<polygon fill="#f8edd1" stroke="#7f7542" points="16.5,-16.5 16.5,-31.5 157.5,-31.5 157.5,-16.5 16.5,-16.5"/>
<text text-anchor="middle" x="87" y="-20.3" font-family="Times,serif" font-size="14.00">TopSpace&#45;like(R^1)</text>
</a>
</g>
</g>
<!-- dt_k3_topmetr&#45;&gt;c_0_109 -->
<g id="edge2" class="edge">
<title>dt_k3_topmetr&#45;&gt;c_0_109</title>
<path fill="none" stroke="black" d="M132.25,-68.33C132.25,-68.33 132.25,-41.7 132.25,-41.7"/>
<polygon fill="black" stroke="black" points="135.75,-41.7 132.25,-31.7 128.75,-41.7 135.75,-41.7"/>
</g>
</g>
</svg>
