<?xml version="1.0" encoding="UTF-8" standalone="no"?>
<!DOCTYPE svg PUBLIC "-//W3C//DTD SVG 1.1//EN"
 "http://www.w3.org/Graphics/SVG/1.1/DTD/svg11.dtd">
<!-- Generated by graphviz version 5.0.0 (0)
 -->
<!-- Title: proof Pages: 1 -->
<svg width="144pt" height="138pt"
 viewBox="0.00 0.00 144.00 138.00" xmlns="http://www.w3.org/2000/svg" xmlns:xlink="http://www.w3.org/1999/xlink">
<g id="graph0" class="graph" transform="scale(1 1) rotate(0) translate(4 134)">
<title>proof</title>
<g id="clust1" class="cluster">
<title>cluster_1</title>
<polygon fill="transparent" stroke="black" stroke-width="2" points="8,-90 8,-122 128,-122 128,-90 8,-90"/>
</g>
<g id="clust2" class="cluster">
<title>cluster_2</title>
<polygon fill="transparent" stroke="black" stroke-dasharray="1,5" points="11,-8 11,-70 125,-70 125,-8 11,-8"/>
</g>
<!-- dt_l1_pre_topc -->
<g id="node1" class="node">
<title>dt_l1_pre_topc</title>
<g id="a_node1"><a xlink:href="dt_l1_pre_topc.html" xlink:title="dt_l1_pre_topc" target="_vizar">
<polygon fill="#69d2e7" stroke="#7f7542" points="16,-98.5 16,-113.5 120,-113.5 120,-98.5 16,-98.5"/>
<text text-anchor="middle" x="68" y="-102.3" font-family="Times,serif" font-size="14.00">dt_l1_pre_topc</text>
</a>
</g>
</g>
<!-- c_0_41 -->
<g id="node2" class="node">
<title>c_0_41</title>
<g id="a_node2"><a xlink:href="c_0_41.html" xlink:title="{TopStruct(X₁)|⇊|1&#45;sorted(X₁)}" target="_vizar">
<polygon fill="#f8edd1" stroke="#7f7542" points="19.5,-16.5 19.5,-61.5 116.5,-61.5 116.5,-16.5 19.5,-16.5"/>
<text text-anchor="middle" x="68" y="-50.3" font-family="Times,serif" font-size="14.00">TopStruct(X₁)</text>
<polyline fill="none" stroke="#7f7542" points="19.5,-46.5 116.5,-46.5 "/>
<text text-anchor="middle" x="68" y="-35.3" font-family="Times,serif" font-size="14.00">⇊</text>
<polyline fill="none" stroke="#7f7542" points="19.5,-31.5 116.5,-31.5 "/>
<text text-anchor="middle" x="68" y="-20.3" font-family="Times,serif" font-size="14.00">1&#45;sorted(X₁)</text>
</a>
</g>
</g>
<!-- dt_l1_pre_topc&#45;&gt;c_0_41 -->
<g id="edge1" class="edge">
<title>dt_l1_pre_topc&#45;&gt;c_0_41</title>
<path fill="none" stroke="black" d="M68,-98.31C68,-98.31 68,-71.76 68,-71.76"/>
<polygon fill="black" stroke="black" points="71.5,-71.76 68,-61.76 64.5,-71.76 71.5,-71.76"/>
</g>
</g>
</svg>
