<?xml version="1.0" encoding="UTF-8" standalone="no"?>
<!DOCTYPE svg PUBLIC "-//W3C//DTD SVG 1.1//EN"
 "http://www.w3.org/Graphics/SVG/1.1/DTD/svg11.dtd">
<!-- Generated by graphviz version 5.0.0 (0)
 -->
<!-- Title: proof Pages: 1 -->
<svg width="184pt" height="108pt"
 viewBox="0.00 0.00 184.00 108.00" xmlns="http://www.w3.org/2000/svg" xmlns:xlink="http://www.w3.org/1999/xlink">
<g id="graph0" class="graph" transform="scale(1 1) rotate(0) translate(4 104)">
<title>proof</title>
<g id="clust1" class="cluster">
<title>cluster_1</title>
<polygon fill="transparent" stroke="black" stroke-width="2" points="8,-60 8,-92 168,-92 168,-60 8,-60"/>
</g>
<g id="clust2" class="cluster">
<title>cluster_2</title>
<polygon fill="transparent" stroke="black" stroke-dasharray="1,5" points="54,-8 54,-40 122,-40 122,-8 54,-8"/>
</g>
<!-- reflexivity_r1_tarski -->
<g id="node1" class="node">
<title>reflexivity_r1_tarski</title>
<g id="a_node1"><a xlink:href="reflexivity_r1_tarski.html" xlink:title="reflexivity_r1_tarski" target="_vizar">
<polygon fill="#69d2e7" stroke="#7f7542" points="16.5,-68.5 16.5,-83.5 159.5,-83.5 159.5,-68.5 16.5,-68.5"/>
<text text-anchor="middle" x="88" y="-72.3" font-family="Times,serif" font-size="14.00">reflexivity_r1_tarski</text>
</a>
</g>
</g>
<!-- c_0_85 -->
<g id="node2" class="node">
<title>c_0_85</title>
<g id="a_node2"><a xlink:href="c_0_85.html" xlink:title="{X₁ ⊆ X₁}" target="_vizar">
<polygon fill="#f8edd1" stroke="#7f7542" points="62,-16.5 62,-31.5 114,-31.5 114,-16.5 62,-16.5"/>
<text text-anchor="middle" x="88" y="-20.3" font-family="Times,serif" font-size="14.00">X₁ ⊆ X₁</text>
</a>
</g>
</g>
<!-- reflexivity_r1_tarski&#45;&gt;c_0_85 -->
<g id="edge1" class="edge">
<title>reflexivity_r1_tarski&#45;&gt;c_0_85</title>
<path fill="none" stroke="black" d="M88,-68.33C88,-68.33 88,-41.7 88,-41.7"/>
<polygon fill="black" stroke="black" points="91.5,-41.7 88,-31.7 84.5,-41.7 91.5,-41.7"/>
</g>
</g>
</svg>
