<?xml version="1.0" encoding="UTF-8" standalone="no"?>
<!DOCTYPE svg PUBLIC "-//W3C//DTD SVG 1.1//EN"
 "http://www.w3.org/Graphics/SVG/1.1/DTD/svg11.dtd">
<!-- Generated by graphviz version 5.0.0 (0)
 -->
<!-- Title: proof Pages: 1 -->
<svg width="424pt" height="205pt"
 viewBox="0.00 0.00 424.00 205.00" xmlns="http://www.w3.org/2000/svg" xmlns:xlink="http://www.w3.org/1999/xlink">
<g id="graph0" class="graph" transform="scale(1 1) rotate(0) translate(4 201)">
<title>proof</title>
<g id="clust1" class="cluster">
<title>cluster_0</title>
<polygon fill="transparent" stroke="black" stroke-dasharray="1,5" points="160,-157 160,-189 256,-189 256,-157 160,-157"/>
</g>
<g id="clust2" class="cluster">
<title>cluster_1</title>
<polygon fill="transparent" stroke="black" stroke-width="2" points="8,-105 8,-137 408,-137 408,-105 8,-105"/>
</g>
<g id="clust3" class="cluster">
<title>cluster_2</title>
<polygon fill="transparent" stroke="black" stroke-dasharray="1,5" points="24,-8 24,-85 392,-85 392,-8 24,-8"/>
</g>
<!-- t22_dynkin -->
<g id="node1" class="node">
<title>t22_dynkin</title>
<g id="a_node1"><a xlink:href="t22_dynkin.html" xlink:title="t22_dynkin" target="_parent">
<polygon fill="#fa6900" stroke="#7f7542" points="168.5,-165.5 168.5,-180.5 247.5,-180.5 247.5,-165.5 168.5,-165.5"/>
<text text-anchor="middle" x="208" y="-169.3" font-family="Times,serif" font-size="14.00">t22_dynkin</text>
</a>
</g>
</g>
<!-- c_0_117 -->
<g id="node2" class="node">
<title>c_0_117</title>
<g id="a_node2"><a xlink:href="c_0_117.html" xlink:title="{¬ (sk₁ /\ sk₃ /\ sk₄ ∈ generated_Dynkin_System(sk₁,sk₂))}" target="_parent">
<polygon fill="#fa6900" stroke="#7f7542" points="16,-113.5 16,-128.5 400,-128.5 400,-113.5 16,-113.5"/>
<text text-anchor="middle" x="208" y="-117.3" font-family="Times,serif" font-size="14.00">¬ (sk₁ / sk₃ / sk₄ ∈ generated_Dynkin_System(sk₁,sk₂))</text>
</a>
</g>
</g>
<!-- t22_dynkin&#45;&gt;c_0_117 -->
<g id="edge1" class="edge">
<title>t22_dynkin&#45;&gt;c_0_117</title>
<path fill="none" stroke="black" d="M208,-165.33C208,-165.33 208,-138.7 208,-138.7"/>
<polygon fill="black" stroke="black" points="211.5,-138.7 208,-128.7 204.5,-138.7 211.5,-138.7"/>
</g>
<!-- c_0_120 -->
<g id="node3" class="node">
<title>c_0_120</title>
<g id="a_node3"><a xlink:href="c_0_120.html" xlink:title="{X₁ /\ sk₃ /\ sk₄ ∈ generated_Dynkin_System(sk₁,sk₂)|sk₄ ∈ bool(X₁)|⇊|⊥}" target="_parent">
<polygon fill="#fa6900" stroke="#7f7542" points="32.5,-16.5 32.5,-76.5 383.5,-76.5 383.5,-16.5 32.5,-16.5"/>
<text text-anchor="middle" x="208" y="-65.3" font-family="Times,serif" font-size="14.00">X₁ / sk₃ / sk₄ ∈ generated_Dynkin_System(sk₁,sk₂)</text>
<polyline fill="none" stroke="#7f7542" points="32.5,-61.5 383.5,-61.5 "/>
<text text-anchor="middle" x="208" y="-50.3" font-family="Times,serif" font-size="14.00">sk₄ ∈ bool(X₁)</text>
<polyline fill="none" stroke="#7f7542" points="32.5,-46.5 383.5,-46.5 "/>
<text text-anchor="middle" x="208" y="-35.3" font-family="Times,serif" font-size="14.00">⇊</text>
<polyline fill="none" stroke="#7f7542" points="32.5,-31.5 383.5,-31.5 "/>
<text text-anchor="middle" x="208" y="-20.3" font-family="Times,serif" font-size="14.00">⊥</text>
</a>
</g>
</g>
<!-- c_0_117&#45;&gt;c_0_120 -->
<g id="edge2" class="edge">
<title>c_0_117&#45;&gt;c_0_120</title>
<path fill="none" stroke="black" stroke-dasharray="5,2" d="M208,-113.31C208,-113.31 208,-86.51 208,-86.51"/>
<polygon fill="black" stroke="black" points="211.5,-86.51 208,-76.51 204.5,-86.51 211.5,-86.51"/>
</g>
</g>
</svg>
