<?xml version="1.0" encoding="UTF-8" standalone="no"?>
<!DOCTYPE svg PUBLIC "-//W3C//DTD SVG 1.1//EN"
 "http://www.w3.org/Graphics/SVG/1.1/DTD/svg11.dtd">
<!-- Generated by graphviz version 5.0.0 (0)
 -->
<!-- Title: proof Pages: 1 -->
<svg width="614pt" height="250pt"
 viewBox="0.00 0.00 614.00 250.00" xmlns="http://www.w3.org/2000/svg" xmlns:xlink="http://www.w3.org/1999/xlink">
<g id="graph0" class="graph" transform="scale(1 1) rotate(0) translate(4 246)">
<title>proof</title>
<g id="clust1" class="cluster">
<title>cluster_0</title>
<polygon fill="transparent" stroke="black" stroke-dasharray="1,5" points="171,-172 171,-234 335,-234 335,-172 171,-172"/>
</g>
<g id="clust2" class="cluster">
<title>cluster_1</title>
<polygon fill="transparent" stroke="black" stroke-width="2" points="109,-120 109,-152 413,-152 413,-120 109,-120"/>
</g>
<g id="clust3" class="cluster">
<title>cluster_2</title>
<polygon fill="transparent" stroke="black" stroke-dasharray="1,5" points="8,-8 8,-100 598,-100 598,-8 8,-8"/>
</g>
<!-- c_0_44 -->
<g id="node1" class="node">
<title>c_0_44</title>
<g id="a_node1"><a xlink:href="c_0_44.html" xlink:title="{X₁ ∈ X₂|⇊|X₁ ∈ X₂}" target="_parent">
<polygon fill="#f8edd1" stroke="#7f7542" points="277,-180.5 277,-225.5 327,-225.5 327,-180.5 277,-180.5"/>
<text text-anchor="middle" x="302" y="-214.3" font-family="Times,serif" font-size="14.00">X₁ ∈ X₂</text>
<polyline fill="none" stroke="#7f7542" points="277,-210.5 327,-210.5 "/>
<text text-anchor="middle" x="302" y="-199.3" font-family="Times,serif" font-size="14.00">⇊</text>
<polyline fill="none" stroke="#7f7542" points="277,-195.5 327,-195.5 "/>
<text text-anchor="middle" x="302" y="-184.3" font-family="Times,serif" font-size="14.00">X₁ ∈ X₂</text>
</a>
</g>
</g>
<!-- c_0_64 -->
<g id="node3" class="node">
<title>c_0_64</title>
<g id="a_node3"><a xlink:href="c_0_64.html" xlink:title="{sk₄ ∈ generated_Dynkin_System(sk₁,sk₂)}" target="_parent">
<polygon fill="#fa6900" stroke="#7f7542" points="117,-128.5 117,-143.5 405,-143.5 405,-128.5 117,-128.5"/>
<text text-anchor="middle" x="261" y="-132.3" font-family="Times,serif" font-size="14.00">sk₄ ∈ generated_Dynkin_System(sk₁,sk₂)</text>
</a>
</g>
</g>
<!-- c_0_44&#45;&gt;c_0_64 -->
<g id="edge1" class="edge">
<title>c_0_44&#45;&gt;c_0_64</title>
<path fill="none" stroke="black" d="M302,-180.32C302,-180.32 302,-153.59 302,-153.59"/>
<polygon fill="black" stroke="black" points="305.5,-153.59 302,-143.59 298.5,-153.59 305.5,-153.59"/>
</g>
<!-- t22_dynkin -->
<g id="node2" class="node">
<title>t22_dynkin</title>
<g id="a_node2"><a xlink:href="t22_dynkin.html" xlink:title="t22_dynkin" target="_parent">
<polygon fill="#fa6900" stroke="#7f7542" points="179.5,-195.5 179.5,-210.5 258.5,-210.5 258.5,-195.5 179.5,-195.5"/>
<text text-anchor="middle" x="219" y="-199.3" font-family="Times,serif" font-size="14.00">t22_dynkin</text>
</a>
</g>
</g>
<!-- t22_dynkin&#45;&gt;c_0_64 -->
<g id="edge2" class="edge">
<title>t22_dynkin&#45;&gt;c_0_64</title>
<path fill="none" stroke="black" d="M219,-195.31C219,-195.31 219,-153.6 219,-153.6"/>
<polygon fill="black" stroke="black" points="222.5,-153.6 219,-143.6 215.5,-153.6 222.5,-153.6"/>
</g>
<!-- c_0_123 -->
<g id="node4" class="node">
<title>c_0_123</title>
<g id="a_node4"><a xlink:href="c_0_123.html" xlink:title="{Dynkin_System(generated_Dynkin_System(sk₁,sk₂),sk₁)|sk₂ ⊆ generated_Dynkin_System(sk₁,sk₂)|⇊|⊥}" target="_parent">
<polygon fill="#fa6900" stroke="#7f7542" points="196,-24 196,-84 590,-84 590,-24 196,-24"/>
<text text-anchor="middle" x="393" y="-72.8" font-family="Times,serif" font-size="14.00">Dynkin_System(generated_Dynkin_System(sk₁,sk₂),sk₁)</text>
<polyline fill="none" stroke="#7f7542" points="196,-69 590,-69 "/>
<text text-anchor="middle" x="393" y="-57.8" font-family="Times,serif" font-size="14.00">sk₂ ⊆ generated_Dynkin_System(sk₁,sk₂)</text>
<polyline fill="none" stroke="#7f7542" points="196,-54 590,-54 "/>
<text text-anchor="middle" x="393" y="-42.8" font-family="Times,serif" font-size="14.00">⇊</text>
<polyline fill="none" stroke="#7f7542" points="196,-39 590,-39 "/>
<text text-anchor="middle" x="393" y="-27.8" font-family="Times,serif" font-size="14.00">⊥</text>
</a>
</g>
</g>
<!-- c_0_64&#45;&gt;c_0_123 -->
<g id="edge3" class="edge">
<title>c_0_64&#45;&gt;c_0_123</title>
<path fill="none" stroke="black" stroke-dasharray="5,2" d="M300.5,-128.43C300.5,-128.43 300.5,-94.36 300.5,-94.36"/>
<polygon fill="black" stroke="black" points="304,-94.36 300.5,-84.36 297,-94.36 304,-94.36"/>
</g>
<!-- c_0_75 -->
<g id="node5" class="node">
<title>c_0_75</title>
<g id="a_node5"><a xlink:href="c_0_75.html" xlink:title="{Dynkin_System(X₂,sk₁)|X₁ ∈ sk₂|sk₂ ⊆ X₂|⇊|sk₁ /\ X₁ /\ sk₄ ∈ X₂}" target="_parent">
<polygon fill="#fa6900" stroke="#7f7542" points="16,-16.5 16,-91.5 178,-91.5 178,-16.5 16,-16.5"/>
<text text-anchor="middle" x="97" y="-80.3" font-family="Times,serif" font-size="14.00">Dynkin_System(X₂,sk₁)</text>
<polyline fill="none" stroke="#7f7542" points="16,-76.5 178,-76.5 "/>
<text text-anchor="middle" x="97" y="-65.3" font-family="Times,serif" font-size="14.00">X₁ ∈ sk₂</text>
<polyline fill="none" stroke="#7f7542" points="16,-61.5 178,-61.5 "/>
<text text-anchor="middle" x="97" y="-50.3" font-family="Times,serif" font-size="14.00">sk₂ ⊆ X₂</text>
<polyline fill="none" stroke="#7f7542" points="16,-46.5 178,-46.5 "/>
<text text-anchor="middle" x="97" y="-35.3" font-family="Times,serif" font-size="14.00">⇊</text>
<polyline fill="none" stroke="#7f7542" points="16,-31.5 178,-31.5 "/>
<text text-anchor="middle" x="97" y="-20.3" font-family="Times,serif" font-size="14.00">sk₁ / X₁ / sk₄ ∈ X₂</text>
</a>
</g>
</g>
<!-- c_0_64&#45;&gt;c_0_75 -->
<g id="edge4" class="edge">
<title>c_0_64&#45;&gt;c_0_75</title>
<path fill="none" stroke="black" stroke-dasharray="5,2" d="M147.5,-128.43C147.5,-128.43 147.5,-101.67 147.5,-101.67"/>
<polygon fill="black" stroke="black" points="151,-101.67 147.5,-91.67 144,-101.67 151,-101.67"/>
</g>
</g>
</svg>
