<?xml version="1.0" encoding="UTF-8" standalone="no"?>
<!DOCTYPE svg PUBLIC "-//W3C//DTD SVG 1.1//EN"
 "http://www.w3.org/Graphics/SVG/1.1/DTD/svg11.dtd">
<!-- Generated by graphviz version 5.0.0 (0)
 -->
<!-- Title: proof Pages: 1 -->
<svg width="1046pt" height="220pt"
 viewBox="0.00 0.00 1046.00 220.00" xmlns="http://www.w3.org/2000/svg" xmlns:xlink="http://www.w3.org/1999/xlink">
<g id="graph0" class="graph" transform="scale(1 1) rotate(0) translate(4 216)">
<title>proof</title>
<g id="clust1" class="cluster">
<title>cluster_0</title>
<polygon fill="transparent" stroke="black" stroke-dasharray="1,5" points="273,-172 273,-204 369,-204 369,-172 273,-172"/>
</g>
<g id="clust2" class="cluster">
<title>cluster_1</title>
<polygon fill="transparent" stroke="black" stroke-width="2" points="241,-120 241,-152 401,-152 401,-120 241,-120"/>
</g>
<g id="clust3" class="cluster">
<title>cluster_2</title>
<polygon fill="transparent" stroke="black" stroke-dasharray="1,5" points="8,-8 8,-100 1030,-100 1030,-8 8,-8"/>
</g>
<!-- t22_dynkin -->
<g id="node1" class="node">
<title>t22_dynkin</title>
<g id="a_node1"><a xlink:href="t22_dynkin.html" xlink:title="t22_dynkin" target="_vizar">
<polygon fill="#fa6900" stroke="#7f7542" points="281.5,-180.5 281.5,-195.5 360.5,-195.5 360.5,-180.5 281.5,-180.5"/>
<text text-anchor="middle" x="321" y="-184.3" font-family="Times,serif" font-size="14.00">t22_dynkin</text>
</a>
</g>
</g>
<!-- c_0_49 -->
<g id="node2" class="node">
<title>c_0_49</title>
<g id="a_node2"><a xlink:href="c_0_49.html" xlink:title="{sk₂ ∈ bool(bool(sk₁))}" target="_vizar">
<polygon fill="#fa6900" stroke="#7f7542" points="249.5,-128.5 249.5,-143.5 392.5,-143.5 392.5,-128.5 249.5,-128.5"/>
<text text-anchor="middle" x="321" y="-132.3" font-family="Times,serif" font-size="14.00">sk₂ ∈ bool(bool(sk₁))</text>
</a>
</g>
</g>
<!-- t22_dynkin&#45;&gt;c_0_49 -->
<g id="edge1" class="edge">
<title>t22_dynkin&#45;&gt;c_0_49</title>
<path fill="none" stroke="black" d="M321,-180.33C321,-180.33 321,-153.7 321,-153.7"/>
<polygon fill="black" stroke="black" points="324.5,-153.7 321,-143.7 317.5,-153.7 324.5,-153.7"/>
</g>
<!-- c_0_75 -->
<g id="node3" class="node">
<title>c_0_75</title>
<g id="a_node3"><a xlink:href="c_0_75.html" xlink:title="{Dynkin_System(X₂,sk₁)|X₁ ∈ sk₂|sk₂ ⊆ X₂|⇊|sk₁ /\ X₁ /\ sk₄ ∈ X₂}" target="_vizar">
<polygon fill="#fa6900" stroke="#7f7542" points="860,-16.5 860,-91.5 1022,-91.5 1022,-16.5 860,-16.5"/>
<text text-anchor="middle" x="941" y="-80.3" font-family="Times,serif" font-size="14.00">Dynkin_System(X₂,sk₁)</text>
<polyline fill="none" stroke="#7f7542" points="860,-76.5 1022,-76.5 "/>
<text text-anchor="middle" x="941" y="-65.3" font-family="Times,serif" font-size="14.00">X₁ ∈ sk₂</text>
<polyline fill="none" stroke="#7f7542" points="860,-61.5 1022,-61.5 "/>
<text text-anchor="middle" x="941" y="-50.3" font-family="Times,serif" font-size="14.00">sk₂ ⊆ X₂</text>
<polyline fill="none" stroke="#7f7542" points="860,-46.5 1022,-46.5 "/>
<text text-anchor="middle" x="941" y="-35.3" font-family="Times,serif" font-size="14.00">⇊</text>
<polyline fill="none" stroke="#7f7542" points="860,-31.5 1022,-31.5 "/>
<text text-anchor="middle" x="941" y="-20.3" font-family="Times,serif" font-size="14.00">sk₁ / X₁ / sk₄ ∈ X₂</text>
</a>
</g>
</g>
<!-- c_0_49&#45;&gt;c_0_75 -->
<g id="edge2" class="edge">
<title>c_0_49&#45;&gt;c_0_75</title>
<path fill="none" stroke="black" stroke-dasharray="5,2" d="M344.83,-128.07C344.83,-114.44 344.83,-88 344.83,-88 344.83,-88 849.98,-88 849.98,-88"/>
<polygon fill="black" stroke="black" points="849.98,-91.5 859.98,-88 849.98,-84.5 849.98,-91.5"/>
</g>
<!-- c_0_124 -->
<g id="node4" class="node">
<title>c_0_124</title>
<g id="a_node4"><a xlink:href="c_0_124.html" xlink:title="{¬ (Dynkin_System(generated_Dynkin_System(sk₁,sk₂),sk₁))}" target="_vizar">
<polygon fill="#fa6900" stroke="#7f7542" points="420.5,-46.5 420.5,-61.5 841.5,-61.5 841.5,-46.5 420.5,-46.5"/>
<text text-anchor="middle" x="631" y="-50.3" font-family="Times,serif" font-size="14.00">¬ (Dynkin_System(generated_Dynkin_System(sk₁,sk₂),sk₁))</text>
</a>
</g>
</g>
<!-- c_0_49&#45;&gt;c_0_124 -->
<g id="edge3" class="edge">
<title>c_0_49&#45;&gt;c_0_124</title>
<path fill="none" stroke="black" stroke-dasharray="5,2" d="M392.51,-136C484.06,-136 631,-136 631,-136 631,-136 631,-71.57 631,-71.57"/>
<polygon fill="black" stroke="black" points="634.5,-71.57 631,-61.57 627.5,-71.57 634.5,-71.57"/>
</g>
<!-- c_0_59 -->
<g id="node5" class="node">
<title>c_0_59</title>
<g id="a_node5"><a xlink:href="c_0_59.html" xlink:title="{Dynkin_System(X₁,sk₁)|sk₂ ⊆ X₁|⇊|sk₃ ∈ X₁}" target="_vizar">
<polygon fill="#fa6900" stroke="#7f7542" points="240,-24 240,-84 402,-84 402,-24 240,-24"/>
<text text-anchor="middle" x="321" y="-72.8" font-family="Times,serif" font-size="14.00">Dynkin_System(X₁,sk₁)</text>
<polyline fill="none" stroke="#7f7542" points="240,-69 402,-69 "/>
<text text-anchor="middle" x="321" y="-57.8" font-family="Times,serif" font-size="14.00">sk₂ ⊆ X₁</text>
<polyline fill="none" stroke="#7f7542" points="240,-54 402,-54 "/>
<text text-anchor="middle" x="321" y="-42.8" font-family="Times,serif" font-size="14.00">⇊</text>
<polyline fill="none" stroke="#7f7542" points="240,-39 402,-39 "/>
<text text-anchor="middle" x="321" y="-27.8" font-family="Times,serif" font-size="14.00">sk₃ ∈ X₁</text>
</a>
</g>
</g>
<!-- c_0_49&#45;&gt;c_0_59 -->
<g id="edge4" class="edge">
<title>c_0_49&#45;&gt;c_0_59</title>
<path fill="none" stroke="black" stroke-dasharray="5,2" d="M297.17,-128.43C297.17,-128.43 297.17,-94.36 297.17,-94.36"/>
<polygon fill="black" stroke="black" points="300.67,-94.36 297.17,-84.36 293.67,-94.36 300.67,-94.36"/>
</g>
<!-- c_0_125 -->
<g id="node6" class="node">
<title>c_0_125</title>
<g id="a_node6"><a xlink:href="c_0_125.html" xlink:title="⊥" target="_vizar">
<polygon fill="#fa6900" stroke="#7f7542" points="208,-46.5 208,-61.5 222,-61.5 222,-46.5 208,-46.5"/>
<text text-anchor="middle" x="215" y="-50.3" font-family="Times,serif" font-size="14.00">⊥</text>
</a>
</g>
</g>
<!-- c_0_49&#45;&gt;c_0_125 -->
<g id="edge5" class="edge">
<title>c_0_49&#45;&gt;c_0_125</title>
<path fill="none" stroke="black" stroke-dasharray="5,2" d="M249.42,-133C230.38,-133 215,-133 215,-133 215,-133 215,-71.57 215,-71.57"/>
<polygon fill="black" stroke="black" points="218.5,-71.57 215,-61.57 211.5,-71.57 218.5,-71.57"/>
</g>
<!-- c_0_111 -->
<g id="node7" class="node">
<title>c_0_111</title>
<g id="a_node7"><a xlink:href="c_0_111.html" xlink:title="{Dynkin_System(X₁,sk₁)|sk₂ ⊆ X₁|⇊|sk₂ ⊆ DynSys(sk₁,X₁,sk₄)}" target="_vizar">
<polygon fill="#fa6900" stroke="#7f7542" points="16.5,-24 16.5,-84 189.5,-84 189.5,-24 16.5,-24"/>
<text text-anchor="middle" x="103" y="-72.8" font-family="Times,serif" font-size="14.00">Dynkin_System(X₁,sk₁)</text>
<polyline fill="none" stroke="#7f7542" points="16.5,-69 189.5,-69 "/>
<text text-anchor="middle" x="103" y="-57.8" font-family="Times,serif" font-size="14.00">sk₂ ⊆ X₁</text>
<polyline fill="none" stroke="#7f7542" points="16.5,-54 189.5,-54 "/>
<text text-anchor="middle" x="103" y="-42.8" font-family="Times,serif" font-size="14.00">⇊</text>
<polyline fill="none" stroke="#7f7542" points="16.5,-39 189.5,-39 "/>
<text text-anchor="middle" x="103" y="-27.8" font-family="Times,serif" font-size="14.00">sk₂ ⊆ DynSys(sk₁,X₁,sk₄)</text>
</a>
</g>
</g>
<!-- c_0_49&#45;&gt;c_0_111 -->
<g id="edge6" class="edge">
<title>c_0_49&#45;&gt;c_0_111</title>
<path fill="none" stroke="black" stroke-dasharray="5,2" d="M249.32,-138C185.78,-138 103,-138 103,-138 103,-138 103,-94.33 103,-94.33"/>
<polygon fill="black" stroke="black" points="106.5,-94.33 103,-84.33 99.5,-94.33 106.5,-94.33"/>
</g>
</g>
</svg>
