<?xml version="1.0" encoding="UTF-8" standalone="no"?>
<!DOCTYPE svg PUBLIC "-//W3C//DTD SVG 1.1//EN"
 "http://www.w3.org/Graphics/SVG/1.1/DTD/svg11.dtd">
<!-- Generated by graphviz version 5.0.0 (0)
 -->
<!-- Title: proof Pages: 1 -->
<svg width="1590pt" height="280pt"
 viewBox="0.00 0.00 1590.00 280.00" xmlns="http://www.w3.org/2000/svg" xmlns:xlink="http://www.w3.org/1999/xlink">
<g id="graph0" class="graph" transform="scale(1 1) rotate(0) translate(4 276)">
<title>proof</title>
<g id="clust1" class="cluster">
<title>cluster_0</title>
<polygon fill="transparent" stroke="black" stroke-dasharray="1,5" points="845,-232 845,-264 955,-264 955,-232 845,-232"/>
</g>
<g id="clust2" class="cluster">
<title>cluster_1</title>
<polygon fill="transparent" stroke="black" stroke-width="2" points="704,-135 704,-212 1096,-212 1096,-135 704,-135"/>
</g>
<g id="clust3" class="cluster">
<title>cluster_2</title>
<polygon fill="transparent" stroke="black" stroke-dasharray="1,5" points="8,-8 8,-115 1574,-115 1574,-8 8,-8"/>
</g>
<!-- dt_k5_dynkin -->
<g id="node1" class="node">
<title>dt_k5_dynkin</title>
<g id="a_node1"><a xlink:href="dt_k5_dynkin.html" xlink:title="dt_k5_dynkin" target="_vizar">
<polygon fill="#69d2e7" stroke="#7f7542" points="853,-240.5 853,-255.5 947,-255.5 947,-240.5 853,-240.5"/>
<text text-anchor="middle" x="900" y="-244.3" font-family="Times,serif" font-size="14.00">dt_k5_dynkin</text>
</a>
</g>
</g>
<!-- c_0_26 -->
<g id="node2" class="node">
<title>c_0_26</title>
<g id="a_node2"><a xlink:href="c_0_26.html" xlink:title="{X₂ ∈ bool(bool(X₁))|⇊|Dynkin_System(generated_Dynkin_System(X₁,X₂),X₁)|X₁ = Ø}" target="_vizar">
<polygon fill="#f8edd1" stroke="#7f7542" points="712,-143.5 712,-203.5 1088,-203.5 1088,-143.5 712,-143.5"/>
<text text-anchor="middle" x="900" y="-192.3" font-family="Times,serif" font-size="14.00">X₂ ∈ bool(bool(X₁))</text>
<polyline fill="none" stroke="#7f7542" points="712,-188.5 1088,-188.5 "/>
<text text-anchor="middle" x="900" y="-177.3" font-family="Times,serif" font-size="14.00">⇊</text>
<polyline fill="none" stroke="#7f7542" points="712,-173.5 1088,-173.5 "/>
<text text-anchor="middle" x="900" y="-162.3" font-family="Times,serif" font-size="14.00">Dynkin_System(generated_Dynkin_System(X₁,X₂),X₁)</text>
<polyline fill="none" stroke="#7f7542" points="712,-158.5 1088,-158.5 "/>
<text text-anchor="middle" x="900" y="-147.3" font-family="Times,serif" font-size="14.00">X₁ = Ø</text>
</a>
</g>
</g>
<!-- dt_k5_dynkin&#45;&gt;c_0_26 -->
<g id="edge1" class="edge">
<title>dt_k5_dynkin&#45;&gt;c_0_26</title>
<path fill="none" stroke="black" d="M900,-240.31C900,-240.31 900,-213.51 900,-213.51"/>
<polygon fill="black" stroke="black" points="903.5,-213.51 900,-203.51 896.5,-213.51 903.5,-213.51"/>
</g>
<!-- c_0_32 -->
<g id="node3" class="node">
<title>c_0_32</title>
<g id="a_node3"><a xlink:href="c_0_32.html" xlink:title="{Dynkin_System(X₃,X₁)|X₂ ∈ bool(bool(X₁))|X₂ ⊆ X₃|⇊|X₁ = Ø|generated_Dynkin_System(X₁,X₂) ⊆ X₃}" target="_vizar">
<polygon fill="#f8edd1" stroke="#7f7542" points="1294.5,-16.5 1294.5,-106.5 1565.5,-106.5 1565.5,-16.5 1294.5,-16.5"/>
<text text-anchor="middle" x="1430" y="-95.3" font-family="Times,serif" font-size="14.00">Dynkin_System(X₃,X₁)</text>
<polyline fill="none" stroke="#7f7542" points="1294.5,-91.5 1565.5,-91.5 "/>
<text text-anchor="middle" x="1430" y="-80.3" font-family="Times,serif" font-size="14.00">X₂ ∈ bool(bool(X₁))</text>
<polyline fill="none" stroke="#7f7542" points="1294.5,-76.5 1565.5,-76.5 "/>
<text text-anchor="middle" x="1430" y="-65.3" font-family="Times,serif" font-size="14.00">X₂ ⊆ X₃</text>
<polyline fill="none" stroke="#7f7542" points="1294.5,-61.5 1565.5,-61.5 "/>
<text text-anchor="middle" x="1430" y="-50.3" font-family="Times,serif" font-size="14.00">⇊</text>
<polyline fill="none" stroke="#7f7542" points="1294.5,-46.5 1565.5,-46.5 "/>
<text text-anchor="middle" x="1430" y="-35.3" font-family="Times,serif" font-size="14.00">X₁ = Ø</text>
<polyline fill="none" stroke="#7f7542" points="1294.5,-31.5 1565.5,-31.5 "/>
<text text-anchor="middle" x="1430" y="-20.3" font-family="Times,serif" font-size="14.00">generated_Dynkin_System(X₁,X₂) ⊆ X₃</text>
</a>
</g>
</g>
<!-- c_0_26&#45;&gt;c_0_32 -->
<g id="edge2" class="edge">
<title>c_0_26&#45;&gt;c_0_32</title>
<path fill="none" stroke="black" stroke-dasharray="5,2" d="M1022.83,-143.2C1022.83,-122.57 1022.83,-99 1022.83,-99 1022.83,-99 1284.42,-99 1284.42,-99"/>
<polygon fill="black" stroke="black" points="1284.42,-102.5 1294.42,-99 1284.42,-95.5 1284.42,-102.5"/>
</g>
<!-- c_0_125 -->
<g id="node4" class="node">
<title>c_0_125</title>
<g id="a_node4"><a xlink:href="c_0_125.html" xlink:title="⊥" target="_vizar">
<polygon fill="#fa6900" stroke="#7f7542" points="1262,-54 1262,-69 1276,-69 1276,-54 1262,-54"/>
<text text-anchor="middle" x="1269" y="-57.8" font-family="Times,serif" font-size="14.00">⊥</text>
</a>
</g>
</g>
<!-- c_0_26&#45;&gt;c_0_125 -->
<g id="edge3" class="edge">
<title>c_0_26&#45;&gt;c_0_125</title>
<path fill="none" stroke="black" stroke-dasharray="5,2" d="M1088.01,-173C1179.08,-173 1269,-173 1269,-173 1269,-173 1269,-79.16 1269,-79.16"/>
<polygon fill="black" stroke="black" points="1272.5,-79.16 1269,-69.16 1265.5,-79.16 1272.5,-79.16"/>
</g>
<!-- c_0_72 -->
<g id="node5" class="node">
<title>c_0_72</title>
<g id="a_node5"><a xlink:href="c_0_72.html" xlink:title="{X₂ ∈ bool(bool(X₁))|⇊|X₁ = Ø|generated_Dynkin_System(X₁,X₂) ∈ bool(bool(X₁))}" target="_vizar">
<polygon fill="#f8edd1" stroke="#7f7542" points="892.5,-31.5 892.5,-91.5 1243.5,-91.5 1243.5,-31.5 892.5,-31.5"/>
<text text-anchor="middle" x="1068" y="-80.3" font-family="Times,serif" font-size="14.00">X₂ ∈ bool(bool(X₁))</text>
<polyline fill="none" stroke="#7f7542" points="892.5,-76.5 1243.5,-76.5 "/>
<text text-anchor="middle" x="1068" y="-65.3" font-family="Times,serif" font-size="14.00">⇊</text>
<polyline fill="none" stroke="#7f7542" points="892.5,-61.5 1243.5,-61.5 "/>
<text text-anchor="middle" x="1068" y="-50.3" font-family="Times,serif" font-size="14.00">X₁ = Ø</text>
<polyline fill="none" stroke="#7f7542" points="892.5,-46.5 1243.5,-46.5 "/>
<text text-anchor="middle" x="1068" y="-35.3" font-family="Times,serif" font-size="14.00">generated_Dynkin_System(X₁,X₂) ∈ bool(bool(X₁))</text>
</a>
</g>
</g>
<!-- c_0_26&#45;&gt;c_0_72 -->
<g id="edge4" class="edge">
<title>c_0_26&#45;&gt;c_0_72</title>
<path fill="none" stroke="black" stroke-dasharray="5,2" d="M957.67,-143.49C957.67,-143.49 957.67,-101.6 957.67,-101.6"/>
<polygon fill="black" stroke="black" points="961.17,-101.6 957.67,-91.6 954.17,-101.6 961.17,-101.6"/>
</g>
<!-- c_0_81 -->
<g id="node6" class="node">
<title>c_0_81</title>
<g id="a_node6"><a xlink:href="c_0_81.html" xlink:title="{X₁ ∈ bool(bool(sk₁))|sk₂ ⊆ X₁|⇊|sk₃ ∈ generated_Dynkin_System(sk₁,X₁)}" target="_vizar">
<polygon fill="#fa6900" stroke="#7f7542" points="592,-31.5 592,-91.5 874,-91.5 874,-31.5 592,-31.5"/>
<text text-anchor="middle" x="733" y="-80.3" font-family="Times,serif" font-size="14.00">X₁ ∈ bool(bool(sk₁))</text>
<polyline fill="none" stroke="#7f7542" points="592,-76.5 874,-76.5 "/>
<text text-anchor="middle" x="733" y="-65.3" font-family="Times,serif" font-size="14.00">sk₂ ⊆ X₁</text>
<polyline fill="none" stroke="#7f7542" points="592,-61.5 874,-61.5 "/>
<text text-anchor="middle" x="733" y="-50.3" font-family="Times,serif" font-size="14.00">⇊</text>
<polyline fill="none" stroke="#7f7542" points="592,-46.5 874,-46.5 "/>
<text text-anchor="middle" x="733" y="-35.3" font-family="Times,serif" font-size="14.00">sk₃ ∈ generated_Dynkin_System(sk₁,X₁)</text>
</a>
</g>
</g>
<!-- c_0_26&#45;&gt;c_0_81 -->
<g id="edge5" class="edge">
<title>c_0_26&#45;&gt;c_0_81</title>
<path fill="none" stroke="black" stroke-dasharray="5,2" d="M793,-143.49C793,-143.49 793,-101.6 793,-101.6"/>
<polygon fill="black" stroke="black" points="796.5,-101.6 793,-91.6 789.5,-101.6 796.5,-101.6"/>
</g>
<!-- c_0_52 -->
<g id="node7" class="node">
<title>c_0_52</title>
<g id="a_node7"><a xlink:href="c_0_52.html" xlink:title="{X₁ ∈ bool(bool(X₂))|⇊|X₁ ⊆ generated_Dynkin_System(X₂,X₁)|X₂ = Ø}" target="_vizar">
<polygon fill="#f8edd1" stroke="#7f7542" points="302.5,-31.5 302.5,-91.5 573.5,-91.5 573.5,-31.5 302.5,-31.5"/>
<text text-anchor="middle" x="438" y="-80.3" font-family="Times,serif" font-size="14.00">X₁ ∈ bool(bool(X₂))</text>
<polyline fill="none" stroke="#7f7542" points="302.5,-76.5 573.5,-76.5 "/>
<text text-anchor="middle" x="438" y="-65.3" font-family="Times,serif" font-size="14.00">⇊</text>
<polyline fill="none" stroke="#7f7542" points="302.5,-61.5 573.5,-61.5 "/>
<text text-anchor="middle" x="438" y="-50.3" font-family="Times,serif" font-size="14.00">X₁ ⊆ generated_Dynkin_System(X₂,X₁)</text>
<polyline fill="none" stroke="#7f7542" points="302.5,-46.5 573.5,-46.5 "/>
<text text-anchor="middle" x="438" y="-35.3" font-family="Times,serif" font-size="14.00">X₂ = Ø</text>
</a>
</g>
</g>
<!-- c_0_26&#45;&gt;c_0_52 -->
<g id="edge6" class="edge">
<title>c_0_26&#45;&gt;c_0_52</title>
<path fill="none" stroke="black" stroke-dasharray="5,2" d="M711.75,-163C583.93,-163 438,-163 438,-163 438,-163 438,-101.68 438,-101.68"/>
<polygon fill="black" stroke="black" points="441.5,-101.68 438,-91.68 434.5,-101.68 441.5,-101.68"/>
</g>
<!-- c_0_43 -->
<g id="node8" class="node">
<title>c_0_43</title>
<g id="a_node8"><a xlink:href="c_0_43.html" xlink:title="{X₂ ∈ bool(bool(X₁))|generated_Dynkin_System(X₁,X₂) = Ø|⇊|X₁ = Ø}" target="_vizar">
<polygon fill="#f8edd1" stroke="#7f7542" points="16,-31.5 16,-91.5 284,-91.5 284,-31.5 16,-31.5"/>
<text text-anchor="middle" x="150" y="-80.3" font-family="Times,serif" font-size="14.00">X₂ ∈ bool(bool(X₁))</text>
<polyline fill="none" stroke="#7f7542" points="16,-76.5 284,-76.5 "/>
<text text-anchor="middle" x="150" y="-65.3" font-family="Times,serif" font-size="14.00">generated_Dynkin_System(X₁,X₂) = Ø</text>
<polyline fill="none" stroke="#7f7542" points="16,-61.5 284,-61.5 "/>
<text text-anchor="middle" x="150" y="-50.3" font-family="Times,serif" font-size="14.00">⇊</text>
<polyline fill="none" stroke="#7f7542" points="16,-46.5 284,-46.5 "/>
<text text-anchor="middle" x="150" y="-35.3" font-family="Times,serif" font-size="14.00">X₁ = Ø</text>
</a>
</g>
</g>
<!-- c_0_26&#45;&gt;c_0_43 -->
<g id="edge7" class="edge">
<title>c_0_26&#45;&gt;c_0_43</title>
<path fill="none" stroke="black" stroke-dasharray="5,2" d="M711.71,-183C489.55,-183 150,-183 150,-183 150,-183 150,-101.53 150,-101.53"/>
<polygon fill="black" stroke="black" points="153.5,-101.53 150,-91.53 146.5,-101.53 153.5,-101.53"/>
</g>
</g>
</svg>
