<?xml version="1.0" encoding="UTF-8" standalone="no"?>
<!DOCTYPE svg PUBLIC "-//W3C//DTD SVG 1.1//EN"
 "http://www.w3.org/Graphics/SVG/1.1/DTD/svg11.dtd">
<!-- Generated by graphviz version 5.0.0 (0)
 -->
<!-- Title: proof Pages: 1 -->
<svg width="120pt" height="190pt"
 viewBox="0.00 0.00 120.00 190.00" xmlns="http://www.w3.org/2000/svg" xmlns:xlink="http://www.w3.org/1999/xlink">
<g id="graph0" class="graph" transform="scale(1 1) rotate(0) translate(4 186)">
<title>proof</title>
<g id="clust1" class="cluster">
<title>cluster_0</title>
<polygon fill="transparent" stroke="black" stroke-dasharray="1,5" points="17,-142 17,-174 95,-174 95,-142 17,-142"/>
</g>
<g id="clust2" class="cluster">
<title>cluster_1</title>
<polygon fill="transparent" stroke="black" stroke-width="2" points="24,-60 24,-122 88,-122 88,-60 24,-60"/>
</g>
<g id="clust3" class="cluster">
<title>cluster_2</title>
<polygon fill="transparent" stroke="black" stroke-dasharray="1,5" points="8,-8 8,-40 104,-40 104,-8 8,-8"/>
</g>
<!-- t6_boole -->
<g id="node1" class="node">
<title>t6_boole</title>
<g id="a_node1"><a xlink:href="t6_boole.html" xlink:title="t6_boole" target="_vizar">
<polygon fill="#69d2e7" stroke="#7f7542" points="25.5,-150.5 25.5,-165.5 86.5,-165.5 86.5,-150.5 25.5,-150.5"/>
<text text-anchor="middle" x="56" y="-154.3" font-family="Times,serif" font-size="14.00">t6_boole</text>
</a>
</g>
</g>
<!-- c_0_78 -->
<g id="node2" class="node">
<title>c_0_78</title>
<g id="a_node2"><a xlink:href="c_0_78.html" xlink:title="{X₁ = Ø|⇊|X₁ = Ø}" target="_vizar">
<polygon fill="#f8edd1" stroke="#7f7542" points="32,-68.5 32,-113.5 80,-113.5 80,-68.5 32,-68.5"/>
<text text-anchor="middle" x="56" y="-102.3" font-family="Times,serif" font-size="14.00">X₁ = Ø</text>
<polyline fill="none" stroke="#7f7542" points="32,-98.5 80,-98.5 "/>
<text text-anchor="middle" x="56" y="-87.3" font-family="Times,serif" font-size="14.00">⇊</text>
<polyline fill="none" stroke="#7f7542" points="32,-83.5 80,-83.5 "/>
<text text-anchor="middle" x="56" y="-72.3" font-family="Times,serif" font-size="14.00">X₁ = Ø</text>
</a>
</g>
</g>
<!-- t6_boole&#45;&gt;c_0_78 -->
<g id="edge1" class="edge">
<title>t6_boole&#45;&gt;c_0_78</title>
<path fill="none" stroke="black" d="M56,-150.31C56,-150.31 56,-123.76 56,-123.76"/>
<polygon fill="black" stroke="black" points="59.5,-123.76 56,-113.76 52.5,-123.76 59.5,-123.76"/>
</g>
<!-- c_0_79 -->
<g id="node3" class="node">
<title>c_0_79</title>
<g id="a_node3"><a xlink:href="c_0_79.html" xlink:title="{sk₈(X₁) = Ø}" target="_vizar">
<polygon fill="#f8edd1" stroke="#7f7542" points="16.5,-16.5 16.5,-31.5 95.5,-31.5 95.5,-16.5 16.5,-16.5"/>
<text text-anchor="middle" x="56" y="-20.3" font-family="Times,serif" font-size="14.00">sk₈(X₁) = Ø</text>
</a>
</g>
</g>
<!-- c_0_78&#45;&gt;c_0_79 -->
<g id="edge2" class="edge">
<title>c_0_78&#45;&gt;c_0_79</title>
<path fill="none" stroke="black" stroke-dasharray="5,2" d="M56,-68.32C56,-68.32 56,-41.59 56,-41.59"/>
<polygon fill="black" stroke="black" points="59.5,-41.59 56,-31.59 52.5,-41.59 59.5,-41.59"/>
</g>
</g>
</svg>
