<?xml version="1.0" encoding="UTF-8" standalone="no"?>
<!DOCTYPE svg PUBLIC "-//W3C//DTD SVG 1.1//EN"
 "http://www.w3.org/Graphics/SVG/1.1/DTD/svg11.dtd">
<!-- Generated by graphviz version 5.0.0 (0)
 -->
<!-- Title: proof Pages: 1 -->
<svg width="492pt" height="340pt"
 viewBox="0.00 0.00 492.00 340.00" xmlns="http://www.w3.org/2000/svg" xmlns:xlink="http://www.w3.org/1999/xlink">
<g id="graph0" class="graph" transform="scale(1 1) rotate(0) translate(4 336)">
<title>proof</title>
<g id="clust1" class="cluster">
<title>cluster_0</title>
<polygon fill="transparent" stroke="black" stroke-dasharray="1,5" points="8,-232 8,-324 476,-324 476,-232 8,-232"/>
</g>
<g id="clust2" class="cluster">
<title>cluster_1</title>
<polygon fill="transparent" stroke="black" stroke-width="2" points="15,-105 15,-212 413,-212 413,-105 15,-105"/>
</g>
<g id="clust3" class="cluster">
<title>cluster_2</title>
<polygon fill="transparent" stroke="black" stroke-dasharray="1,5" points="65,-8 65,-85 363,-85 363,-8 65,-8"/>
</g>
<!-- c_0_60 -->
<g id="node1" class="node">
<title>c_0_60</title>
<g id="a_node1"><a xlink:href="c_0_60.html" xlink:title="{X₁ ⊆ X₃|X₃ ∈ bool(bool(X₂))|⇊|X₁ ⊆ generated_Dynkin_System(X₂,X₃)|X₂ = Ø}" target="_vizar">
<polygon fill="#f8edd1" stroke="#7f7542" points="196.5,-240.5 196.5,-315.5 467.5,-315.5 467.5,-240.5 196.5,-240.5"/>
<text text-anchor="middle" x="332" y="-304.3" font-family="Times,serif" font-size="14.00">X₁ ⊆ X₃</text>
<polyline fill="none" stroke="#7f7542" points="196.5,-300.5 467.5,-300.5 "/>
<text text-anchor="middle" x="332" y="-289.3" font-family="Times,serif" font-size="14.00">X₃ ∈ bool(bool(X₂))</text>
<polyline fill="none" stroke="#7f7542" points="196.5,-285.5 467.5,-285.5 "/>
<text text-anchor="middle" x="332" y="-274.3" font-family="Times,serif" font-size="14.00">⇊</text>
<polyline fill="none" stroke="#7f7542" points="196.5,-270.5 467.5,-270.5 "/>
<text text-anchor="middle" x="332" y="-259.3" font-family="Times,serif" font-size="14.00">X₁ ⊆ generated_Dynkin_System(X₂,X₃)</text>
<polyline fill="none" stroke="#7f7542" points="196.5,-255.5 467.5,-255.5 "/>
<text text-anchor="middle" x="332" y="-244.3" font-family="Times,serif" font-size="14.00">X₂ = Ø</text>
</a>
</g>
</g>
<!-- c_0_73 -->
<g id="node3" class="node">
<title>c_0_73</title>
<g id="a_node3"><a xlink:href="c_0_73.html" xlink:title="{Dynkin_System(generated_Dynkin_System(X₁,X₂),sk₁)|X₂ ∈ bool(bool(X₁))|sk₂ ⊆ X₂|⇊|X₁ = Ø|sk₃ ∈ generated_Dynkin_System(X₁,X₂)}" target="_vizar">
<polygon fill="#fa6900" stroke="#7f7542" points="23,-113.5 23,-203.5 405,-203.5 405,-113.5 23,-113.5"/>
<text text-anchor="middle" x="214" y="-192.3" font-family="Times,serif" font-size="14.00">Dynkin_System(generated_Dynkin_System(X₁,X₂),sk₁)</text>
<polyline fill="none" stroke="#7f7542" points="23,-188.5 405,-188.5 "/>
<text text-anchor="middle" x="214" y="-177.3" font-family="Times,serif" font-size="14.00">X₂ ∈ bool(bool(X₁))</text>
<polyline fill="none" stroke="#7f7542" points="23,-173.5 405,-173.5 "/>
<text text-anchor="middle" x="214" y="-162.3" font-family="Times,serif" font-size="14.00">sk₂ ⊆ X₂</text>
<polyline fill="none" stroke="#7f7542" points="23,-158.5 405,-158.5 "/>
<text text-anchor="middle" x="214" y="-147.3" font-family="Times,serif" font-size="14.00">⇊</text>
<polyline fill="none" stroke="#7f7542" points="23,-143.5 405,-143.5 "/>
<text text-anchor="middle" x="214" y="-132.3" font-family="Times,serif" font-size="14.00">X₁ = Ø</text>
<polyline fill="none" stroke="#7f7542" points="23,-128.5 405,-128.5 "/>
<text text-anchor="middle" x="214" y="-117.3" font-family="Times,serif" font-size="14.00">sk₃ ∈ generated_Dynkin_System(X₁,X₂)</text>
</a>
</g>
</g>
<!-- c_0_60&#45;&gt;c_0_73 -->
<g id="edge1" class="edge">
<title>c_0_60&#45;&gt;c_0_73</title>
<path fill="none" stroke="black" d="M300.75,-240.19C300.75,-240.19 300.75,-213.59 300.75,-213.59"/>
<polygon fill="black" stroke="black" points="304.25,-213.59 300.75,-203.59 297.25,-213.59 304.25,-213.59"/>
</g>
<!-- c_0_59 -->
<g id="node2" class="node">
<title>c_0_59</title>
<g id="a_node2"><a xlink:href="c_0_59.html" xlink:title="{Dynkin_System(X₁,sk₁)|sk₂ ⊆ X₁|⇊|sk₃ ∈ X₁}" target="_vizar">
<polygon fill="#fa6900" stroke="#7f7542" points="16,-248 16,-308 178,-308 178,-248 16,-248"/>
<text text-anchor="middle" x="97" y="-296.8" font-family="Times,serif" font-size="14.00">Dynkin_System(X₁,sk₁)</text>
<polyline fill="none" stroke="#7f7542" points="16,-293 178,-293 "/>
<text text-anchor="middle" x="97" y="-281.8" font-family="Times,serif" font-size="14.00">sk₂ ⊆ X₁</text>
<polyline fill="none" stroke="#7f7542" points="16,-278 178,-278 "/>
<text text-anchor="middle" x="97" y="-266.8" font-family="Times,serif" font-size="14.00">⇊</text>
<polyline fill="none" stroke="#7f7542" points="16,-263 178,-263 "/>
<text text-anchor="middle" x="97" y="-251.8" font-family="Times,serif" font-size="14.00">sk₃ ∈ X₁</text>
</a>
</g>
</g>
<!-- c_0_59&#45;&gt;c_0_73 -->
<g id="edge2" class="edge">
<title>c_0_59&#45;&gt;c_0_73</title>
<path fill="none" stroke="black" d="M100.5,-247.85C100.5,-247.85 100.5,-213.56 100.5,-213.56"/>
<polygon fill="black" stroke="black" points="104,-213.56 100.5,-203.56 97,-213.56 104,-213.56"/>
</g>
<!-- c_0_81 -->
<g id="node4" class="node">
<title>c_0_81</title>
<g id="a_node4"><a xlink:href="c_0_81.html" xlink:title="{X₁ ∈ bool(bool(sk₁))|sk₂ ⊆ X₁|⇊|sk₃ ∈ generated_Dynkin_System(sk₁,X₁)}" target="_vizar">
<polygon fill="#fa6900" stroke="#7f7542" points="73,-16.5 73,-76.5 355,-76.5 355,-16.5 73,-16.5"/>
<text text-anchor="middle" x="214" y="-65.3" font-family="Times,serif" font-size="14.00">X₁ ∈ bool(bool(sk₁))</text>
<polyline fill="none" stroke="#7f7542" points="73,-61.5 355,-61.5 "/>
<text text-anchor="middle" x="214" y="-50.3" font-family="Times,serif" font-size="14.00">sk₂ ⊆ X₁</text>
<polyline fill="none" stroke="#7f7542" points="73,-46.5 355,-46.5 "/>
<text text-anchor="middle" x="214" y="-35.3" font-family="Times,serif" font-size="14.00">⇊</text>
<polyline fill="none" stroke="#7f7542" points="73,-31.5 355,-31.5 "/>
<text text-anchor="middle" x="214" y="-20.3" font-family="Times,serif" font-size="14.00">sk₃ ∈ generated_Dynkin_System(sk₁,X₁)</text>
</a>
</g>
</g>
<!-- c_0_73&#45;&gt;c_0_81 -->
<g id="edge3" class="edge">
<title>c_0_73&#45;&gt;c_0_81</title>
<path fill="none" stroke="black" stroke-dasharray="5,2" d="M214,-113.27C214,-113.27 214,-86.8 214,-86.8"/>
<polygon fill="black" stroke="black" points="217.5,-86.8 214,-76.8 210.5,-86.8 217.5,-86.8"/>
</g>
</g>
</svg>
