<?xml version="1.0" encoding="UTF-8" standalone="no"?>
<!DOCTYPE svg PUBLIC "-//W3C//DTD SVG 1.1//EN"
 "http://www.w3.org/Graphics/SVG/1.1/DTD/svg11.dtd">
<!-- Generated by graphviz version 5.0.0 (0)
 -->
<!-- Title: proof Pages: 1 -->
<svg width="312pt" height="280pt"
 viewBox="0.00 0.00 312.00 280.00" xmlns="http://www.w3.org/2000/svg" xmlns:xlink="http://www.w3.org/1999/xlink">
<g id="graph0" class="graph" transform="scale(1 1) rotate(0) translate(4 276)">
<title>proof</title>
<g id="clust1" class="cluster">
<title>cluster_0</title>
<polygon fill="transparent" stroke="black" stroke-dasharray="1,5" points="107,-232 107,-264 197,-264 197,-232 107,-232"/>
</g>
<g id="clust2" class="cluster">
<title>cluster_1</title>
<polygon fill="transparent" stroke="black" stroke-width="2" points="8,-105 8,-212 296,-212 296,-105 8,-105"/>
</g>
<g id="clust3" class="cluster">
<title>cluster_2</title>
<polygon fill="transparent" stroke="black" stroke-dasharray="1,5" points="8,-8 8,-85 296,-85 296,-8 8,-8"/>
</g>
<!-- d6_dynkin -->
<g id="node1" class="node">
<title>d6_dynkin</title>
<g id="a_node1"><a xlink:href="d6_dynkin.html" xlink:title="d6_dynkin" target="_vizar">
<polygon fill="#69d2e7" stroke="#7f7542" points="115.5,-240.5 115.5,-255.5 188.5,-255.5 188.5,-240.5 115.5,-240.5"/>
<text text-anchor="middle" x="152" y="-244.3" font-family="Times,serif" font-size="14.00">d6_dynkin</text>
</a>
</g>
</g>
<!-- c_0_40 -->
<g id="node2" class="node">
<title>c_0_40</title>
<g id="a_node2"><a xlink:href="c_0_40.html" xlink:title="{Dynkin_System(X₂,X₃)|X₁ ∈ bool(bool(X₃))|X₂ = generated_Dynkin_System(X₃,X₁)|⇊|X₁ ⊆ X₂|X₃ = Ø}" target="_vizar">
<polygon fill="#f8edd1" stroke="#7f7542" points="16.5,-113.5 16.5,-203.5 287.5,-203.5 287.5,-113.5 16.5,-113.5"/>
<text text-anchor="middle" x="152" y="-192.3" font-family="Times,serif" font-size="14.00">Dynkin_System(X₂,X₃)</text>
<polyline fill="none" stroke="#7f7542" points="16.5,-188.5 287.5,-188.5 "/>
<text text-anchor="middle" x="152" y="-177.3" font-family="Times,serif" font-size="14.00">X₁ ∈ bool(bool(X₃))</text>
<polyline fill="none" stroke="#7f7542" points="16.5,-173.5 287.5,-173.5 "/>
<text text-anchor="middle" x="152" y="-162.3" font-family="Times,serif" font-size="14.00">X₂ = generated_Dynkin_System(X₃,X₁)</text>
<polyline fill="none" stroke="#7f7542" points="16.5,-158.5 287.5,-158.5 "/>
<text text-anchor="middle" x="152" y="-147.3" font-family="Times,serif" font-size="14.00">⇊</text>
<polyline fill="none" stroke="#7f7542" points="16.5,-143.5 287.5,-143.5 "/>
<text text-anchor="middle" x="152" y="-132.3" font-family="Times,serif" font-size="14.00">X₁ ⊆ X₂</text>
<polyline fill="none" stroke="#7f7542" points="16.5,-128.5 287.5,-128.5 "/>
<text text-anchor="middle" x="152" y="-117.3" font-family="Times,serif" font-size="14.00">X₃ = Ø</text>
</a>
</g>
</g>
<!-- d6_dynkin&#45;&gt;c_0_40 -->
<g id="edge1" class="edge">
<title>d6_dynkin&#45;&gt;c_0_40</title>
<path fill="none" stroke="black" d="M152,-240.37C152,-240.37 152,-213.66 152,-213.66"/>
<polygon fill="black" stroke="black" points="155.5,-213.66 152,-203.66 148.5,-213.66 155.5,-213.66"/>
</g>
<!-- c_0_52 -->
<g id="node3" class="node">
<title>c_0_52</title>
<g id="a_node3"><a xlink:href="c_0_52.html" xlink:title="{X₁ ∈ bool(bool(X₂))|⇊|X₁ ⊆ generated_Dynkin_System(X₂,X₁)|X₂ = Ø}" target="_vizar">
<polygon fill="#f8edd1" stroke="#7f7542" points="16.5,-16.5 16.5,-76.5 287.5,-76.5 287.5,-16.5 16.5,-16.5"/>
<text text-anchor="middle" x="152" y="-65.3" font-family="Times,serif" font-size="14.00">X₁ ∈ bool(bool(X₂))</text>
<polyline fill="none" stroke="#7f7542" points="16.5,-61.5 287.5,-61.5 "/>
<text text-anchor="middle" x="152" y="-50.3" font-family="Times,serif" font-size="14.00">⇊</text>
<polyline fill="none" stroke="#7f7542" points="16.5,-46.5 287.5,-46.5 "/>
<text text-anchor="middle" x="152" y="-35.3" font-family="Times,serif" font-size="14.00">X₁ ⊆ generated_Dynkin_System(X₂,X₁)</text>
<polyline fill="none" stroke="#7f7542" points="16.5,-31.5 287.5,-31.5 "/>
<text text-anchor="middle" x="152" y="-20.3" font-family="Times,serif" font-size="14.00">X₂ = Ø</text>
</a>
</g>
</g>
<!-- c_0_40&#45;&gt;c_0_52 -->
<g id="edge2" class="edge">
<title>c_0_40&#45;&gt;c_0_52</title>
<path fill="none" stroke="black" stroke-dasharray="5,2" d="M152,-113.27C152,-113.27 152,-86.8 152,-86.8"/>
<polygon fill="black" stroke="black" points="155.5,-86.8 152,-76.8 148.5,-86.8 155.5,-86.8"/>
</g>
</g>
</svg>
