<?xml version="1.0" encoding="UTF-8" standalone="no"?>
<!DOCTYPE svg PUBLIC "-//W3C//DTD SVG 1.1//EN"
 "http://www.w3.org/Graphics/SVG/1.1/DTD/svg11.dtd">
<!-- Generated by graphviz version 5.0.0 (0)
 -->
<!-- Title: proof Pages: 1 -->
<svg width="301pt" height="295pt"
 viewBox="0.00 0.00 301.00 295.00" xmlns="http://www.w3.org/2000/svg" xmlns:xlink="http://www.w3.org/1999/xlink">
<g id="graph0" class="graph" transform="scale(1 1) rotate(0) translate(4 291)">
<title>proof</title>
<g id="clust1" class="cluster">
<title>cluster_0</title>
<polygon fill="transparent" stroke="black" stroke-dasharray="1,5" points="11,-202 11,-279 285,-279 285,-202 11,-202"/>
</g>
<g id="clust2" class="cluster">
<title>cluster_1</title>
<polygon fill="transparent" stroke="black" stroke-width="2" points="33,-105 33,-182 157,-182 157,-105 33,-105"/>
</g>
<g id="clust3" class="cluster">
<title>cluster_2</title>
<polygon fill="transparent" stroke="black" stroke-dasharray="1,5" points="8,-8 8,-85 182,-85 182,-8 8,-8"/>
</g>
<!-- c_0_76 -->
<g id="node1" class="node">
<title>c_0_76</title>
<g id="a_node1"><a xlink:href="c_0_76.html" xlink:title="{X₁ ∈ X₃|X₃ ∈ bool(X₂)|⇊|X₁ ∈ X₂}" target="_vizar">
<polygon fill="#f8edd1" stroke="#7f7542" points="185.5,-210.5 185.5,-270.5 276.5,-270.5 276.5,-210.5 185.5,-210.5"/>
<text text-anchor="middle" x="231" y="-259.3" font-family="Times,serif" font-size="14.00">X₁ ∈ X₃</text>
<polyline fill="none" stroke="#7f7542" points="185.5,-255.5 276.5,-255.5 "/>
<text text-anchor="middle" x="231" y="-244.3" font-family="Times,serif" font-size="14.00">X₃ ∈ bool(X₂)</text>
<polyline fill="none" stroke="#7f7542" points="185.5,-240.5 276.5,-240.5 "/>
<text text-anchor="middle" x="231" y="-229.3" font-family="Times,serif" font-size="14.00">⇊</text>
<polyline fill="none" stroke="#7f7542" points="185.5,-225.5 276.5,-225.5 "/>
<text text-anchor="middle" x="231" y="-214.3" font-family="Times,serif" font-size="14.00">X₁ ∈ X₂</text>
</a>
</g>
</g>
<!-- c_0_84 -->
<g id="node3" class="node">
<title>c_0_84</title>
<g id="a_node3"><a xlink:href="c_0_84.html" xlink:title="{X₁ ∈ X₂ /\ X₃ /\ X₄|X₄ ∈ bool(X₂)|⇊|X₁ ∈ X₂}" target="_vizar">
<polygon fill="#f8edd1" stroke="#7f7542" points="41.5,-113.5 41.5,-173.5 148.5,-173.5 148.5,-113.5 41.5,-113.5"/>
<text text-anchor="middle" x="95" y="-162.3" font-family="Times,serif" font-size="14.00">X₁ ∈ X₂ / X₃ / X₄</text>
<polyline fill="none" stroke="#7f7542" points="41.5,-158.5 148.5,-158.5 "/>
<text text-anchor="middle" x="95" y="-147.3" font-family="Times,serif" font-size="14.00">X₄ ∈ bool(X₂)</text>
<polyline fill="none" stroke="#7f7542" points="41.5,-143.5 148.5,-143.5 "/>
<text text-anchor="middle" x="95" y="-132.3" font-family="Times,serif" font-size="14.00">⇊</text>
<polyline fill="none" stroke="#7f7542" points="41.5,-128.5 148.5,-128.5 "/>
<text text-anchor="middle" x="95" y="-117.3" font-family="Times,serif" font-size="14.00">X₁ ∈ X₂</text>
</a>
</g>
</g>
<!-- c_0_76&#45;&gt;c_0_84 -->
<g id="edge1" class="edge">
<title>c_0_76&#45;&gt;c_0_84</title>
<path fill="none" stroke="black" d="M185.31,-213C152.06,-213 112.83,-213 112.83,-213 112.83,-213 112.83,-183.78 112.83,-183.78"/>
<polygon fill="black" stroke="black" points="116.33,-183.78 112.83,-173.78 109.33,-183.78 116.33,-183.78"/>
</g>
<!-- c_0_77 -->
<g id="node2" class="node">
<title>c_0_77</title>
<g id="a_node2"><a xlink:href="c_0_77.html" xlink:title="{X₁ ∈ bool(X₂)|⇊|X₂ /\ X₃ /\ X₁ ∈ bool(X₂)}" target="_vizar">
<polygon fill="#f8edd1" stroke="#7f7542" points="19,-218 19,-263 167,-263 167,-218 19,-218"/>
<text text-anchor="middle" x="93" y="-251.8" font-family="Times,serif" font-size="14.00">X₁ ∈ bool(X₂)</text>
<polyline fill="none" stroke="#7f7542" points="19,-248 167,-248 "/>
<text text-anchor="middle" x="93" y="-236.8" font-family="Times,serif" font-size="14.00">⇊</text>
<polyline fill="none" stroke="#7f7542" points="19,-233 167,-233 "/>
<text text-anchor="middle" x="93" y="-221.8" font-family="Times,serif" font-size="14.00">X₂ / X₃ / X₁ ∈ bool(X₂)</text>
</a>
</g>
</g>
<!-- c_0_77&#45;&gt;c_0_84 -->
<g id="edge2" class="edge">
<title>c_0_77&#45;&gt;c_0_84</title>
<path fill="none" stroke="black" d="M77.17,-217.51C77.17,-217.51 77.17,-183.67 77.17,-183.67"/>
<polygon fill="black" stroke="black" points="80.67,-183.67 77.17,-173.67 73.67,-183.67 80.67,-183.67"/>
</g>
<!-- c_0_96 -->
<g id="node4" class="node">
<title>c_0_96</title>
<g id="a_node4"><a xlink:href="c_0_96.html" xlink:title="{X₃ ∈ bool(X₁)|⇊|X₁ /\ X₂ /\ X₃ ⊆ X₄|sk₆(X₁ /\ X₂ /\ X₃,X₄) ∈ X₁}" target="_vizar">
<polygon fill="#f8edd1" stroke="#7f7542" points="16,-16.5 16,-76.5 174,-76.5 174,-16.5 16,-16.5"/>
<text text-anchor="middle" x="95" y="-65.3" font-family="Times,serif" font-size="14.00">X₃ ∈ bool(X₁)</text>
<polyline fill="none" stroke="#7f7542" points="16,-61.5 174,-61.5 "/>
<text text-anchor="middle" x="95" y="-50.3" font-family="Times,serif" font-size="14.00">⇊</text>
<polyline fill="none" stroke="#7f7542" points="16,-46.5 174,-46.5 "/>
<text text-anchor="middle" x="95" y="-35.3" font-family="Times,serif" font-size="14.00">X₁ / X₂ / X₃ ⊆ X₄</text>
<polyline fill="none" stroke="#7f7542" points="16,-31.5 174,-31.5 "/>
<text text-anchor="middle" x="95" y="-20.3" font-family="Times,serif" font-size="14.00">sk₆(X₁ / X₂ / X₃,X₄) ∈ X₁</text>
</a>
</g>
</g>
<!-- c_0_84&#45;&gt;c_0_96 -->
<g id="edge3" class="edge">
<title>c_0_84&#45;&gt;c_0_96</title>
<path fill="none" stroke="black" stroke-dasharray="5,2" d="M95,-113.34C95,-113.34 95,-86.64 95,-86.64"/>
<polygon fill="black" stroke="black" points="98.5,-86.64 95,-76.64 91.5,-86.64 98.5,-86.64"/>
</g>
</g>
</svg>
