<?xml version="1.0" encoding="UTF-8" standalone="no"?>
<!DOCTYPE svg PUBLIC "-//W3C//DTD SVG 1.1//EN"
 "http://www.w3.org/Graphics/SVG/1.1/DTD/svg11.dtd">
<!-- Generated by graphviz version 5.0.0 (0)
 -->
<!-- Title: proof Pages: 1 -->
<svg width="416pt" height="445pt"
 viewBox="0.00 0.00 416.00 445.00" xmlns="http://www.w3.org/2000/svg" xmlns:xlink="http://www.w3.org/1999/xlink">
<g id="graph0" class="graph" transform="scale(1 1) rotate(0) translate(4 441)">
<title>proof</title>
<g id="clust1" class="cluster">
<title>cluster_0</title>
<polygon fill="transparent" stroke="black" stroke-dasharray="1,5" points="64,-292 64,-429 345,-429 345,-292 64,-292"/>
</g>
<g id="clust2" class="cluster">
<title>cluster_1</title>
<polygon fill="transparent" stroke="black" stroke-width="2" points="118,-150 118,-272 290,-272 290,-150 118,-150"/>
</g>
<g id="clust3" class="cluster">
<title>cluster_2</title>
<polygon fill="transparent" stroke="black" stroke-dasharray="1,5" points="8,-8 8,-130 400,-130 400,-8 8,-8"/>
</g>
<!-- c_0_57 -->
<g id="node1" class="node">
<title>c_0_57</title>
<g id="a_node1"><a xlink:href="c_0_57.html" xlink:title="{X₁ ∈ X₂|X₁ ∈ bool(X₃)|X₂ = DynSys(X₃,X₅,X₄)|X₂ ∈ bool(bool(X₃))|X₄ ∈ bool(X₃)|⇊|X₃ /\ X₁ /\ X₄ ∈ X₅|X₃ = Ø}" target="_parent">
<polygon fill="#f8edd1" stroke="#7f7542" points="181.5,-300.5 181.5,-420.5 336.5,-420.5 336.5,-300.5 181.5,-300.5"/>
<text text-anchor="middle" x="259" y="-409.3" font-family="Times,serif" font-size="14.00">X₁ ∈ X₂</text>
<polyline fill="none" stroke="#7f7542" points="181.5,-405.5 336.5,-405.5 "/>
<text text-anchor="middle" x="259" y="-394.3" font-family="Times,serif" font-size="14.00">X₁ ∈ bool(X₃)</text>
<polyline fill="none" stroke="#7f7542" points="181.5,-390.5 336.5,-390.5 "/>
<text text-anchor="middle" x="259" y="-379.3" font-family="Times,serif" font-size="14.00">X₂ = DynSys(X₃,X₅,X₄)</text>
<polyline fill="none" stroke="#7f7542" points="181.5,-375.5 336.5,-375.5 "/>
<text text-anchor="middle" x="259" y="-364.3" font-family="Times,serif" font-size="14.00">X₂ ∈ bool(bool(X₃))</text>
<polyline fill="none" stroke="#7f7542" points="181.5,-360.5 336.5,-360.5 "/>
<text text-anchor="middle" x="259" y="-349.3" font-family="Times,serif" font-size="14.00">X₄ ∈ bool(X₃)</text>
<polyline fill="none" stroke="#7f7542" points="181.5,-345.5 336.5,-345.5 "/>
<text text-anchor="middle" x="259" y="-334.3" font-family="Times,serif" font-size="14.00">⇊</text>
<polyline fill="none" stroke="#7f7542" points="181.5,-330.5 336.5,-330.5 "/>
<text text-anchor="middle" x="259" y="-319.3" font-family="Times,serif" font-size="14.00">X₃ / X₁ / X₄ ∈ X₅</text>
<polyline fill="none" stroke="#7f7542" points="181.5,-315.5 336.5,-315.5 "/>
<text text-anchor="middle" x="259" y="-304.3" font-family="Times,serif" font-size="14.00">X₃ = Ø</text>
</a>
</g>
</g>
<!-- c_0_71 -->
<g id="node3" class="node">
<title>c_0_71</title>
<g id="a_node3"><a xlink:href="c_0_71.html" xlink:title="{X₂ ∈ X₅|X₃ ∈ bool(X₁)|X₅ = DynSys(X₁,X₄,X₃)|X₅ ∈ bool(bool(X₁))|⇊|X₁ /\ X₂ /\ X₃ ∈ X₄|X₁ = Ø}" target="_parent">
<polygon fill="#f8edd1" stroke="#7f7542" points="126.5,-158.5 126.5,-263.5 281.5,-263.5 281.5,-158.5 126.5,-158.5"/>
<text text-anchor="middle" x="204" y="-252.3" font-family="Times,serif" font-size="14.00">X₂ ∈ X₅</text>
<polyline fill="none" stroke="#7f7542" points="126.5,-248.5 281.5,-248.5 "/>
<text text-anchor="middle" x="204" y="-237.3" font-family="Times,serif" font-size="14.00">X₃ ∈ bool(X₁)</text>
<polyline fill="none" stroke="#7f7542" points="126.5,-233.5 281.5,-233.5 "/>
<text text-anchor="middle" x="204" y="-222.3" font-family="Times,serif" font-size="14.00">X₅ = DynSys(X₁,X₄,X₃)</text>
<polyline fill="none" stroke="#7f7542" points="126.5,-218.5 281.5,-218.5 "/>
<text text-anchor="middle" x="204" y="-207.3" font-family="Times,serif" font-size="14.00">X₅ ∈ bool(bool(X₁))</text>
<polyline fill="none" stroke="#7f7542" points="126.5,-203.5 281.5,-203.5 "/>
<text text-anchor="middle" x="204" y="-192.3" font-family="Times,serif" font-size="14.00">⇊</text>
<polyline fill="none" stroke="#7f7542" points="126.5,-188.5 281.5,-188.5 "/>
<text text-anchor="middle" x="204" y="-177.3" font-family="Times,serif" font-size="14.00">X₁ / X₂ / X₃ ∈ X₄</text>
<polyline fill="none" stroke="#7f7542" points="126.5,-173.5 281.5,-173.5 "/>
<text text-anchor="middle" x="204" y="-162.3" font-family="Times,serif" font-size="14.00">X₁ = Ø</text>
</a>
</g>
</g>
<!-- c_0_57&#45;&gt;c_0_71 -->
<g id="edge1" class="edge">
<title>c_0_57&#45;&gt;c_0_71</title>
<path fill="none" stroke="black" d="M231.5,-300.12C231.5,-300.12 231.5,-273.9 231.5,-273.9"/>
<polygon fill="black" stroke="black" points="235,-273.9 231.5,-263.9 228,-273.9 235,-273.9"/>
</g>
<!-- c_0_37 -->
<g id="node2" class="node">
<title>c_0_37</title>
<g id="a_node2"><a xlink:href="c_0_37.html" xlink:title="{X₁ ∈ X₂|X₂ ∈ bool(X₃)|⇊|X₁ ∈ X₃}" target="_parent">
<polygon fill="#f8edd1" stroke="#7f7542" points="72.5,-330.5 72.5,-390.5 163.5,-390.5 163.5,-330.5 72.5,-330.5"/>
<text text-anchor="middle" x="118" y="-379.3" font-family="Times,serif" font-size="14.00">X₁ ∈ X₂</text>
<polyline fill="none" stroke="#7f7542" points="72.5,-375.5 163.5,-375.5 "/>
<text text-anchor="middle" x="118" y="-364.3" font-family="Times,serif" font-size="14.00">X₂ ∈ bool(X₃)</text>
<polyline fill="none" stroke="#7f7542" points="72.5,-360.5 163.5,-360.5 "/>
<text text-anchor="middle" x="118" y="-349.3" font-family="Times,serif" font-size="14.00">⇊</text>
<polyline fill="none" stroke="#7f7542" points="72.5,-345.5 163.5,-345.5 "/>
<text text-anchor="middle" x="118" y="-334.3" font-family="Times,serif" font-size="14.00">X₁ ∈ X₃</text>
</a>
</g>
</g>
<!-- c_0_37&#45;&gt;c_0_71 -->
<g id="edge2" class="edge">
<title>c_0_37&#45;&gt;c_0_71</title>
<path fill="none" stroke="black" d="M145,-330.25C145,-330.25 145,-273.6 145,-273.6"/>
<polygon fill="black" stroke="black" points="148.5,-273.6 145,-263.6 141.5,-273.6 148.5,-273.6"/>
</g>
<!-- c_0_80 -->
<g id="node4" class="node">
<title>c_0_80</title>
<g id="a_node4"><a xlink:href="c_0_80.html" xlink:title="{X₂ ∈ generated_Dynkin_System(X₁,X₅)|X₃ ∈ bool(X₁)|X₅ ∈ bool(bool(X₁))|generated_Dynkin_System(X₁,X₅) = DynSys(X₁,X₄,X₃)|⇊|X₁ /\ X₂ /\ X₃ ∈ X₄|X₁ = Ø}" target="_parent">
<polygon fill="#f8edd1" stroke="#7f7542" points="16.5,-16.5 16.5,-121.5 391.5,-121.5 391.5,-16.5 16.5,-16.5"/>
<text text-anchor="middle" x="204" y="-110.3" font-family="Times,serif" font-size="14.00">X₂ ∈ generated_Dynkin_System(X₁,X₅)</text>
<polyline fill="none" stroke="#7f7542" points="16.5,-106.5 391.5,-106.5 "/>
<text text-anchor="middle" x="204" y="-95.3" font-family="Times,serif" font-size="14.00">X₃ ∈ bool(X₁)</text>
<polyline fill="none" stroke="#7f7542" points="16.5,-91.5 391.5,-91.5 "/>
<text text-anchor="middle" x="204" y="-80.3" font-family="Times,serif" font-size="14.00">X₅ ∈ bool(bool(X₁))</text>
<polyline fill="none" stroke="#7f7542" points="16.5,-76.5 391.5,-76.5 "/>
<text text-anchor="middle" x="204" y="-65.3" font-family="Times,serif" font-size="14.00">generated_Dynkin_System(X₁,X₅) = DynSys(X₁,X₄,X₃)</text>
<polyline fill="none" stroke="#7f7542" points="16.5,-61.5 391.5,-61.5 "/>
<text text-anchor="middle" x="204" y="-50.3" font-family="Times,serif" font-size="14.00">⇊</text>
<polyline fill="none" stroke="#7f7542" points="16.5,-46.5 391.5,-46.5 "/>
<text text-anchor="middle" x="204" y="-35.3" font-family="Times,serif" font-size="14.00">X₁ / X₂ / X₃ ∈ X₄</text>
<polyline fill="none" stroke="#7f7542" points="16.5,-31.5 391.5,-31.5 "/>
<text text-anchor="middle" x="204" y="-20.3" font-family="Times,serif" font-size="14.00">X₁ = Ø</text>
</a>
</g>
</g>
<!-- c_0_71&#45;&gt;c_0_80 -->
<g id="edge3" class="edge">
<title>c_0_71&#45;&gt;c_0_80</title>
<path fill="none" stroke="black" stroke-dasharray="5,2" d="M204,-158.12C204,-158.12 204,-131.92 204,-131.92"/>
<polygon fill="black" stroke="black" points="207.5,-131.92 204,-121.92 200.5,-131.92 207.5,-131.92"/>
</g>
</g>
</svg>
