<?xml version="1.0" encoding="UTF-8" standalone="no"?>
<!DOCTYPE svg PUBLIC "-//W3C//DTD SVG 1.1//EN"
 "http://www.w3.org/Graphics/SVG/1.1/DTD/svg11.dtd">
<!-- Generated by graphviz version 5.0.0 (0)
 -->
<!-- Title: proof Pages: 1 -->
<svg width="331pt" height="370pt"
 viewBox="0.00 0.00 331.00 370.00" xmlns="http://www.w3.org/2000/svg" xmlns:xlink="http://www.w3.org/1999/xlink">
<g id="graph0" class="graph" transform="scale(1 1) rotate(0) translate(4 366)">
<title>proof</title>
<g id="clust1" class="cluster">
<title>cluster_0</title>
<polygon fill="transparent" stroke="black" stroke-dasharray="1,5" points="13,-247 13,-354 315,-354 315,-247 13,-247"/>
</g>
<g id="clust2" class="cluster">
<title>cluster_1</title>
<polygon fill="transparent" stroke="black" stroke-width="2" points="11,-120 11,-227 291,-227 291,-120 11,-120"/>
</g>
<g id="clust3" class="cluster">
<title>cluster_2</title>
<polygon fill="transparent" stroke="black" stroke-dasharray="1,5" points="8,-8 8,-100 294,-100 294,-8 8,-8"/>
</g>
<!-- c_0_94 -->
<g id="node1" class="node">
<title>c_0_94</title>
<g id="a_node1"><a xlink:href="c_0_94.html" xlink:title="{sk₆(X₁,X₂) ∈ X₂|⇊|X₁ ⊆ X₂}" target="_parent">
<polygon fill="#f8edd1" stroke="#7f7542" points="205.5,-278 205.5,-323 306.5,-323 306.5,-278 205.5,-278"/>
<text text-anchor="middle" x="256" y="-311.8" font-family="Times,serif" font-size="14.00">sk₆(X₁,X₂) ∈ X₂</text>
<polyline fill="none" stroke="#7f7542" points="205.5,-308 306.5,-308 "/>
<text text-anchor="middle" x="256" y="-296.8" font-family="Times,serif" font-size="14.00">⇊</text>
<polyline fill="none" stroke="#7f7542" points="205.5,-293 306.5,-293 "/>
<text text-anchor="middle" x="256" y="-281.8" font-family="Times,serif" font-size="14.00">X₁ ⊆ X₂</text>
</a>
</g>
</g>
<!-- c_0_101 -->
<g id="node3" class="node">
<title>c_0_101</title>
<g id="a_node3"><a xlink:href="c_0_101.html" xlink:title="{Dynkin_System(X₂,sk₁)|sk₂ ⊆ X₂|sk₆(X₁,DynSys(sk₁,X₂,sk₄)) ∈ bool(sk₁)|sk₆(X₁,DynSys(sk₁,X₂,sk₄)) ∈ sk₂|⇊|X₁ ⊆ DynSys(sk₁,X₂,sk₄)}" target="_parent">
<polygon fill="#fa6900" stroke="#7f7542" points="19.5,-128.5 19.5,-218.5 282.5,-218.5 282.5,-128.5 19.5,-128.5"/>
<text text-anchor="middle" x="151" y="-207.3" font-family="Times,serif" font-size="14.00">Dynkin_System(X₂,sk₁)</text>
<polyline fill="none" stroke="#7f7542" points="19.5,-203.5 282.5,-203.5 "/>
<text text-anchor="middle" x="151" y="-192.3" font-family="Times,serif" font-size="14.00">sk₂ ⊆ X₂</text>
<polyline fill="none" stroke="#7f7542" points="19.5,-188.5 282.5,-188.5 "/>
<text text-anchor="middle" x="151" y="-177.3" font-family="Times,serif" font-size="14.00">sk₆(X₁,DynSys(sk₁,X₂,sk₄)) ∈ bool(sk₁)</text>
<polyline fill="none" stroke="#7f7542" points="19.5,-173.5 282.5,-173.5 "/>
<text text-anchor="middle" x="151" y="-162.3" font-family="Times,serif" font-size="14.00">sk₆(X₁,DynSys(sk₁,X₂,sk₄)) ∈ sk₂</text>
<polyline fill="none" stroke="#7f7542" points="19.5,-158.5 282.5,-158.5 "/>
<text text-anchor="middle" x="151" y="-147.3" font-family="Times,serif" font-size="14.00">⇊</text>
<polyline fill="none" stroke="#7f7542" points="19.5,-143.5 282.5,-143.5 "/>
<text text-anchor="middle" x="151" y="-132.3" font-family="Times,serif" font-size="14.00">X₁ ⊆ DynSys(sk₁,X₂,sk₄)</text>
</a>
</g>
</g>
<!-- c_0_94&#45;&gt;c_0_101 -->
<g id="edge1" class="edge">
<title>c_0_94&#45;&gt;c_0_101</title>
<path fill="none" stroke="black" d="M244,-277.79C244,-277.79 244,-228.63 244,-228.63"/>
<polygon fill="black" stroke="black" points="247.5,-228.63 244,-218.63 240.5,-228.63 247.5,-228.63"/>
</g>
<!-- c_0_95 -->
<g id="node2" class="node">
<title>c_0_95</title>
<g id="a_node2"><a xlink:href="c_0_95.html" xlink:title="{Dynkin_System(X₂,sk₁)|X₁ ∈ bool(sk₁)|X₁ ∈ sk₂|sk₂ ⊆ X₂|⇊|X₁ ∈ DynSys(sk₁,X₂,sk₄)}" target="_parent">
<polygon fill="#fa6900" stroke="#7f7542" points="21,-255.5 21,-345.5 187,-345.5 187,-255.5 21,-255.5"/>
<text text-anchor="middle" x="104" y="-334.3" font-family="Times,serif" font-size="14.00">Dynkin_System(X₂,sk₁)</text>
<polyline fill="none" stroke="#7f7542" points="21,-330.5 187,-330.5 "/>
<text text-anchor="middle" x="104" y="-319.3" font-family="Times,serif" font-size="14.00">X₁ ∈ bool(sk₁)</text>
<polyline fill="none" stroke="#7f7542" points="21,-315.5 187,-315.5 "/>
<text text-anchor="middle" x="104" y="-304.3" font-family="Times,serif" font-size="14.00">X₁ ∈ sk₂</text>
<polyline fill="none" stroke="#7f7542" points="21,-300.5 187,-300.5 "/>
<text text-anchor="middle" x="104" y="-289.3" font-family="Times,serif" font-size="14.00">sk₂ ⊆ X₂</text>
<polyline fill="none" stroke="#7f7542" points="21,-285.5 187,-285.5 "/>
<text text-anchor="middle" x="104" y="-274.3" font-family="Times,serif" font-size="14.00">⇊</text>
<polyline fill="none" stroke="#7f7542" points="21,-270.5 187,-270.5 "/>
<text text-anchor="middle" x="104" y="-259.3" font-family="Times,serif" font-size="14.00">X₁ ∈ DynSys(sk₁,X₂,sk₄)</text>
</a>
</g>
</g>
<!-- c_0_95&#45;&gt;c_0_101 -->
<g id="edge2" class="edge">
<title>c_0_95&#45;&gt;c_0_101</title>
<path fill="none" stroke="black" d="M104,-255.37C104,-255.37 104,-228.92 104,-228.92"/>
<polygon fill="black" stroke="black" points="107.5,-228.92 104,-218.92 100.5,-228.92 107.5,-228.92"/>
</g>
<!-- c_0_105 -->
<g id="node4" class="node">
<title>c_0_105</title>
<g id="a_node4"><a xlink:href="c_0_105.html" xlink:title="{Dynkin_System(X₁,sk₁)|sk₂ ⊆ X₁|sk₆(sk₂,DynSys(sk₁,X₁,sk₄)) ∈ bool(sk₁)|⇊|sk₂ ⊆ DynSys(sk₁,X₁,sk₄)}" target="_parent">
<polygon fill="#fa6900" stroke="#7f7542" points="16.5,-16.5 16.5,-91.5 285.5,-91.5 285.5,-16.5 16.5,-16.5"/>
<text text-anchor="middle" x="151" y="-80.3" font-family="Times,serif" font-size="14.00">Dynkin_System(X₁,sk₁)</text>
<polyline fill="none" stroke="#7f7542" points="16.5,-76.5 285.5,-76.5 "/>
<text text-anchor="middle" x="151" y="-65.3" font-family="Times,serif" font-size="14.00">sk₂ ⊆ X₁</text>
<polyline fill="none" stroke="#7f7542" points="16.5,-61.5 285.5,-61.5 "/>
<text text-anchor="middle" x="151" y="-50.3" font-family="Times,serif" font-size="14.00">sk₆(sk₂,DynSys(sk₁,X₁,sk₄)) ∈ bool(sk₁)</text>
<polyline fill="none" stroke="#7f7542" points="16.5,-46.5 285.5,-46.5 "/>
<text text-anchor="middle" x="151" y="-35.3" font-family="Times,serif" font-size="14.00">⇊</text>
<polyline fill="none" stroke="#7f7542" points="16.5,-31.5 285.5,-31.5 "/>
<text text-anchor="middle" x="151" y="-20.3" font-family="Times,serif" font-size="14.00">sk₂ ⊆ DynSys(sk₁,X₁,sk₄)</text>
</a>
</g>
</g>
<!-- c_0_101&#45;&gt;c_0_105 -->
<g id="edge3" class="edge">
<title>c_0_101&#45;&gt;c_0_105</title>
<path fill="none" stroke="black" stroke-dasharray="5,2" d="M151,-128.32C151,-128.32 151,-101.83 151,-101.83"/>
<polygon fill="black" stroke="black" points="154.5,-101.83 151,-91.83 147.5,-101.83 154.5,-101.83"/>
</g>
</g>
</svg>
