<?xml version="1.0" encoding="UTF-8" standalone="no"?>
<!DOCTYPE svg PUBLIC "-//W3C//DTD SVG 1.1//EN"
 "http://www.w3.org/Graphics/SVG/1.1/DTD/svg11.dtd">
<!-- Generated by graphviz version 5.0.0 (0)
 -->
<!-- Title: proof Pages: 1 -->
<svg width="162pt" height="160pt"
 viewBox="0.00 0.00 162.00 160.00" xmlns="http://www.w3.org/2000/svg" xmlns:xlink="http://www.w3.org/1999/xlink">
<g id="graph0" class="graph" transform="scale(1 1) rotate(0) translate(4 156)">
<title>proof</title>
<g id="clust1" class="cluster">
<title>cluster_0</title>
<polygon fill="transparent" stroke="black" stroke-dasharray="1,5" points="22,-112 22,-144 132,-144 132,-112 22,-112"/>
</g>
<g id="clust2" class="cluster">
<title>cluster_1</title>
<polygon fill="transparent" stroke="black" stroke-width="2" points="8,-60 8,-92 146,-92 146,-60 8,-60"/>
</g>
<g id="clust3" class="cluster">
<title>cluster_2</title>
<polygon fill="transparent" stroke="black" stroke-dasharray="1,5" points="25,-8 25,-40 129,-40 129,-8 25,-8"/>
</g>
<!-- rc2_subset_1 -->
<g id="node1" class="node">
<title>rc2_subset_1</title>
<g id="a_node1"><a xlink:href="rc2_subset_1.html" xlink:title="rc2_subset_1" target="_parent">
<polygon fill="#69d2e7" stroke="#7f7542" points="30,-120.5 30,-135.5 124,-135.5 124,-120.5 30,-120.5"/>
<text text-anchor="middle" x="77" y="-124.3" font-family="Times,serif" font-size="14.00">rc2_subset_1</text>
</a>
</g>
</g>
<!-- c_0_87 -->
<g id="node2" class="node">
<title>c_0_87</title>
<g id="a_node2"><a xlink:href="c_0_87.html" xlink:title="{sk₈(X₁) ∈ bool(X₁)}" target="_parent">
<polygon fill="#f8edd1" stroke="#7f7542" points="16,-68.5 16,-83.5 138,-83.5 138,-68.5 16,-68.5"/>
<text text-anchor="middle" x="77" y="-72.3" font-family="Times,serif" font-size="14.00">sk₈(X₁) ∈ bool(X₁)</text>
</a>
</g>
</g>
<!-- rc2_subset_1&#45;&gt;c_0_87 -->
<g id="edge1" class="edge">
<title>rc2_subset_1&#45;&gt;c_0_87</title>
<path fill="none" stroke="black" d="M77,-120.33C77,-120.33 77,-93.7 77,-93.7"/>
<polygon fill="black" stroke="black" points="80.5,-93.7 77,-83.7 73.5,-93.7 80.5,-93.7"/>
</g>
<!-- c_0_98 -->
<g id="node3" class="node">
<title>c_0_98</title>
<g id="a_node3"><a xlink:href="c_0_98.html" xlink:title="{Ø ∈ bool(X₁)}" target="_parent">
<polygon fill="#f8edd1" stroke="#7f7542" points="33.5,-16.5 33.5,-31.5 120.5,-31.5 120.5,-16.5 33.5,-16.5"/>
<text text-anchor="middle" x="77" y="-20.3" font-family="Times,serif" font-size="14.00">Ø ∈ bool(X₁)</text>
</a>
</g>
</g>
<!-- c_0_87&#45;&gt;c_0_98 -->
<g id="edge2" class="edge">
<title>c_0_87&#45;&gt;c_0_98</title>
<path fill="none" stroke="black" stroke-dasharray="5,2" d="M77,-68.33C77,-68.33 77,-41.7 77,-41.7"/>
<polygon fill="black" stroke="black" points="80.5,-41.7 77,-31.7 73.5,-41.7 80.5,-41.7"/>
</g>
</g>
</svg>
