<?xml version="1.0" encoding="UTF-8" standalone="no"?>
<!DOCTYPE svg PUBLIC "-//W3C//DTD SVG 1.1//EN"
 "http://www.w3.org/Graphics/SVG/1.1/DTD/svg11.dtd">
<!-- Generated by graphviz version 5.0.0 (0)
 -->
<!-- Title: proof Pages: 1 -->
<svg width="300pt" height="280pt"
 viewBox="0.00 0.00 300.00 280.00" xmlns="http://www.w3.org/2000/svg" xmlns:xlink="http://www.w3.org/1999/xlink">
<g id="graph0" class="graph" transform="scale(1 1) rotate(0) translate(4 276)">
<title>proof</title>
<g id="clust1" class="cluster">
<title>cluster_0</title>
<polygon fill="transparent" stroke="black" stroke-dasharray="1,5" points="57,-232 57,-264 235,-264 235,-232 57,-232"/>
</g>
<g id="clust2" class="cluster">
<title>cluster_1</title>
<polygon fill="transparent" stroke="black" stroke-width="2" points="8,-120 8,-212 284,-212 284,-120 8,-120"/>
</g>
<g id="clust3" class="cluster">
<title>cluster_2</title>
<polygon fill="transparent" stroke="black" stroke-dasharray="1,5" points="8,-8 8,-100 284,-100 284,-8 8,-8"/>
</g>
<!-- redefinition_k7_dynkin -->
<g id="node1" class="node">
<title>redefinition_k7_dynkin</title>
<g id="a_node1"><a xlink:href="redefinition_k7_dynkin.html" xlink:title="redefinition_k7_dynkin" target="_parent">
<polygon fill="#69d2e7" stroke="#7f7542" points="65,-240.5 65,-255.5 227,-255.5 227,-240.5 65,-240.5"/>
<text text-anchor="middle" x="146" y="-244.3" font-family="Times,serif" font-size="14.00">redefinition_k7_dynkin</text>
</a>
</g>
</g>
<!-- c_0_113 -->
<g id="node2" class="node">
<title>c_0_113</title>
<g id="a_node2"><a xlink:href="c_0_113.html" xlink:title="{Dynkin_System(X₂,X₁)|X₃ ∈ X₂|⇊|DynSys(X₁,X₂,X₃) = DynSys(X₁,X₂,X₃)|X₁ = Ø}" target="_parent">
<polygon fill="#f8edd1" stroke="#7f7542" points="16.5,-128.5 16.5,-203.5 275.5,-203.5 275.5,-128.5 16.5,-128.5"/>
<text text-anchor="middle" x="146" y="-192.3" font-family="Times,serif" font-size="14.00">Dynkin_System(X₂,X₁)</text>
<polyline fill="none" stroke="#7f7542" points="16.5,-188.5 275.5,-188.5 "/>
<text text-anchor="middle" x="146" y="-177.3" font-family="Times,serif" font-size="14.00">X₃ ∈ X₂</text>
<polyline fill="none" stroke="#7f7542" points="16.5,-173.5 275.5,-173.5 "/>
<text text-anchor="middle" x="146" y="-162.3" font-family="Times,serif" font-size="14.00">⇊</text>
<polyline fill="none" stroke="#7f7542" points="16.5,-158.5 275.5,-158.5 "/>
<text text-anchor="middle" x="146" y="-147.3" font-family="Times,serif" font-size="14.00">DynSys(X₁,X₂,X₃) = DynSys(X₁,X₂,X₃)</text>
<polyline fill="none" stroke="#7f7542" points="16.5,-143.5 275.5,-143.5 "/>
<text text-anchor="middle" x="146" y="-132.3" font-family="Times,serif" font-size="14.00">X₁ = Ø</text>
</a>
</g>
</g>
<!-- redefinition_k7_dynkin&#45;&gt;c_0_113 -->
<g id="edge1" class="edge">
<title>redefinition_k7_dynkin&#45;&gt;c_0_113</title>
<path fill="none" stroke="black" d="M146,-240.43C146,-240.43 146,-213.67 146,-213.67"/>
<polygon fill="black" stroke="black" points="149.5,-213.67 146,-203.67 142.5,-213.67 149.5,-213.67"/>
</g>
<!-- c_0_112 -->
<g id="node3" class="node">
<title>c_0_112</title>
<g id="a_node3"><a xlink:href="c_0_112.html" xlink:title="{Dynkin_System(X₂,X₁)|X₃ ∈ X₂|⇊|Dynkin_System(DynSys(X₁,X₂,X₃),X₁)|X₁ = Ø}" target="_parent">
<polygon fill="#f8edd1" stroke="#7f7542" points="16.5,-16.5 16.5,-91.5 275.5,-91.5 275.5,-16.5 16.5,-16.5"/>
<text text-anchor="middle" x="146" y="-80.3" font-family="Times,serif" font-size="14.00">Dynkin_System(X₂,X₁)</text>
<polyline fill="none" stroke="#7f7542" points="16.5,-76.5 275.5,-76.5 "/>
<text text-anchor="middle" x="146" y="-65.3" font-family="Times,serif" font-size="14.00">X₃ ∈ X₂</text>
<polyline fill="none" stroke="#7f7542" points="16.5,-61.5 275.5,-61.5 "/>
<text text-anchor="middle" x="146" y="-50.3" font-family="Times,serif" font-size="14.00">⇊</text>
<polyline fill="none" stroke="#7f7542" points="16.5,-46.5 275.5,-46.5 "/>
<text text-anchor="middle" x="146" y="-35.3" font-family="Times,serif" font-size="14.00">Dynkin_System(DynSys(X₁,X₂,X₃),X₁)</text>
<polyline fill="none" stroke="#7f7542" points="16.5,-31.5 275.5,-31.5 "/>
<text text-anchor="middle" x="146" y="-20.3" font-family="Times,serif" font-size="14.00">X₁ = Ø</text>
</a>
</g>
</g>
<!-- c_0_113&#45;&gt;c_0_112 -->
<g id="edge2" class="edge">
<title>c_0_113&#45;&gt;c_0_112</title>
<path fill="none" stroke="black" stroke-dasharray="5,2" d="M146,-128.39C146,-128.39 146,-101.7 146,-101.7"/>
<polygon fill="black" stroke="black" points="149.5,-101.7 146,-91.7 142.5,-101.7 149.5,-101.7"/>
</g>
</g>
</svg>
