<?xml version="1.0" encoding="UTF-8" standalone="no"?>
<!DOCTYPE svg PUBLIC "-//W3C//DTD SVG 1.1//EN"
 "http://www.w3.org/Graphics/SVG/1.1/DTD/svg11.dtd">
<!-- Generated by graphviz version 5.0.0 (0)
 -->
<!-- Title: proof Pages: 1 -->
<svg width="706pt" height="430pt"
 viewBox="0.00 0.00 706.00 430.00" xmlns="http://www.w3.org/2000/svg" xmlns:xlink="http://www.w3.org/1999/xlink">
<g id="graph0" class="graph" transform="scale(1 1) rotate(0) translate(4 426)">
<title>proof</title>
<g id="clust1" class="cluster">
<title>cluster_0</title>
<polygon fill="transparent" stroke="black" stroke-dasharray="1,5" points="8,-277 8,-414 690,-414 690,-277 8,-277"/>
</g>
<g id="clust2" class="cluster">
<title>cluster_1</title>
<polygon fill="transparent" stroke="black" stroke-width="2" points="231,-150 231,-257 519,-257 519,-150 231,-150"/>
</g>
<g id="clust3" class="cluster">
<title>cluster_2</title>
<polygon fill="transparent" stroke="black" stroke-dasharray="1,5" points="232,-8 232,-130 518,-130 518,-8 232,-8"/>
</g>
<!-- c_0_25 -->
<g id="node1" class="node">
<title>c_0_25</title>
<g id="a_node1"><a xlink:href="c_0_25.html" xlink:title="{Dynkin_System(X₁,X₂)|Dynkin_System(X₄,X₂)|X₃ ∈ bool(bool(X₂))|X₃ ⊆ X₁|X₄ = generated_Dynkin_System(X₂,X₃)|⇊|X₂ = Ø|X₄ ⊆ X₁}" target="_vizar">
<polygon fill="#f8edd1" stroke="#7f7542" points="410.5,-285.5 410.5,-405.5 681.5,-405.5 681.5,-285.5 410.5,-285.5"/>
<text text-anchor="middle" x="546" y="-394.3" font-family="Times,serif" font-size="14.00">Dynkin_System(X₁,X₂)</text>
<polyline fill="none" stroke="#7f7542" points="410.5,-390.5 681.5,-390.5 "/>
<text text-anchor="middle" x="546" y="-379.3" font-family="Times,serif" font-size="14.00">Dynkin_System(X₄,X₂)</text>
<polyline fill="none" stroke="#7f7542" points="410.5,-375.5 681.5,-375.5 "/>
<text text-anchor="middle" x="546" y="-364.3" font-family="Times,serif" font-size="14.00">X₃ ∈ bool(bool(X₂))</text>
<polyline fill="none" stroke="#7f7542" points="410.5,-360.5 681.5,-360.5 "/>
<text text-anchor="middle" x="546" y="-349.3" font-family="Times,serif" font-size="14.00">X₃ ⊆ X₁</text>
<polyline fill="none" stroke="#7f7542" points="410.5,-345.5 681.5,-345.5 "/>
<text text-anchor="middle" x="546" y="-334.3" font-family="Times,serif" font-size="14.00">X₄ = generated_Dynkin_System(X₂,X₃)</text>
<polyline fill="none" stroke="#7f7542" points="410.5,-330.5 681.5,-330.5 "/>
<text text-anchor="middle" x="546" y="-319.3" font-family="Times,serif" font-size="14.00">⇊</text>
<polyline fill="none" stroke="#7f7542" points="410.5,-315.5 681.5,-315.5 "/>
<text text-anchor="middle" x="546" y="-304.3" font-family="Times,serif" font-size="14.00">X₂ = Ø</text>
<polyline fill="none" stroke="#7f7542" points="410.5,-300.5 681.5,-300.5 "/>
<text text-anchor="middle" x="546" y="-289.3" font-family="Times,serif" font-size="14.00">X₄ ⊆ X₁</text>
</a>
</g>
</g>
<!-- c_0_32 -->
<g id="node3" class="node">
<title>c_0_32</title>
<g id="a_node3"><a xlink:href="c_0_32.html" xlink:title="{Dynkin_System(X₃,X₁)|X₂ ∈ bool(bool(X₁))|X₂ ⊆ X₃|⇊|X₁ = Ø|generated_Dynkin_System(X₁,X₂) ⊆ X₃}" target="_vizar">
<polygon fill="#f8edd1" stroke="#7f7542" points="239.5,-158.5 239.5,-248.5 510.5,-248.5 510.5,-158.5 239.5,-158.5"/>
<text text-anchor="middle" x="375" y="-237.3" font-family="Times,serif" font-size="14.00">Dynkin_System(X₃,X₁)</text>
<polyline fill="none" stroke="#7f7542" points="239.5,-233.5 510.5,-233.5 "/>
<text text-anchor="middle" x="375" y="-222.3" font-family="Times,serif" font-size="14.00">X₂ ∈ bool(bool(X₁))</text>
<polyline fill="none" stroke="#7f7542" points="239.5,-218.5 510.5,-218.5 "/>
<text text-anchor="middle" x="375" y="-207.3" font-family="Times,serif" font-size="14.00">X₂ ⊆ X₃</text>
<polyline fill="none" stroke="#7f7542" points="239.5,-203.5 510.5,-203.5 "/>
<text text-anchor="middle" x="375" y="-192.3" font-family="Times,serif" font-size="14.00">⇊</text>
<polyline fill="none" stroke="#7f7542" points="239.5,-188.5 510.5,-188.5 "/>
<text text-anchor="middle" x="375" y="-177.3" font-family="Times,serif" font-size="14.00">X₁ = Ø</text>
<polyline fill="none" stroke="#7f7542" points="239.5,-173.5 510.5,-173.5 "/>
<text text-anchor="middle" x="375" y="-162.3" font-family="Times,serif" font-size="14.00">generated_Dynkin_System(X₁,X₂) ⊆ X₃</text>
</a>
</g>
</g>
<!-- c_0_25&#45;&gt;c_0_32 -->
<g id="edge1" class="edge">
<title>c_0_25&#45;&gt;c_0_32</title>
<path fill="none" stroke="black" d="M460.5,-285.28C460.5,-285.28 460.5,-258.73 460.5,-258.73"/>
<polygon fill="black" stroke="black" points="464,-258.73 460.5,-248.73 457,-258.73 464,-258.73"/>
</g>
<!-- c_0_26 -->
<g id="node2" class="node">
<title>c_0_26</title>
<g id="a_node2"><a xlink:href="c_0_26.html" xlink:title="{X₂ ∈ bool(bool(X₁))|⇊|Dynkin_System(generated_Dynkin_System(X₁,X₂),X₁)|X₁ = Ø}" target="_vizar">
<polygon fill="#f8edd1" stroke="#7f7542" points="16,-315.5 16,-375.5 392,-375.5 392,-315.5 16,-315.5"/>
<text text-anchor="middle" x="204" y="-364.3" font-family="Times,serif" font-size="14.00">X₂ ∈ bool(bool(X₁))</text>
<polyline fill="none" stroke="#7f7542" points="16,-360.5 392,-360.5 "/>
<text text-anchor="middle" x="204" y="-349.3" font-family="Times,serif" font-size="14.00">⇊</text>
<polyline fill="none" stroke="#7f7542" points="16,-345.5 392,-345.5 "/>
<text text-anchor="middle" x="204" y="-334.3" font-family="Times,serif" font-size="14.00">Dynkin_System(generated_Dynkin_System(X₁,X₂),X₁)</text>
<polyline fill="none" stroke="#7f7542" points="16,-330.5 392,-330.5 "/>
<text text-anchor="middle" x="204" y="-319.3" font-family="Times,serif" font-size="14.00">X₁ = Ø</text>
</a>
</g>
</g>
<!-- c_0_26&#45;&gt;c_0_32 -->
<g id="edge2" class="edge">
<title>c_0_26&#45;&gt;c_0_32</title>
<path fill="none" stroke="black" d="M315.75,-315.39C315.75,-315.39 315.75,-258.69 315.75,-258.69"/>
<polygon fill="black" stroke="black" points="319.25,-258.69 315.75,-248.69 312.25,-258.69 319.25,-258.69"/>
</g>
<!-- c_0_41 -->
<g id="node4" class="node">
<title>c_0_41</title>
<g id="a_node4"><a xlink:href="c_0_41.html" xlink:title="{Dynkin_System(X₂,X₃)|X₁ ∈ generated_Dynkin_System(X₃,X₄)|X₄ ∈ bool(bool(X₃))|X₄ ⊆ X₂|⇊|X₁ ∈ X₂|X₃ = Ø}" target="_vizar">
<polygon fill="#f8edd1" stroke="#7f7542" points="240,-16.5 240,-121.5 510,-121.5 510,-16.5 240,-16.5"/>
<text text-anchor="middle" x="375" y="-110.3" font-family="Times,serif" font-size="14.00">Dynkin_System(X₂,X₃)</text>
<polyline fill="none" stroke="#7f7542" points="240,-106.5 510,-106.5 "/>
<text text-anchor="middle" x="375" y="-95.3" font-family="Times,serif" font-size="14.00">X₁ ∈ generated_Dynkin_System(X₃,X₄)</text>
<polyline fill="none" stroke="#7f7542" points="240,-91.5 510,-91.5 "/>
<text text-anchor="middle" x="375" y="-80.3" font-family="Times,serif" font-size="14.00">X₄ ∈ bool(bool(X₃))</text>
<polyline fill="none" stroke="#7f7542" points="240,-76.5 510,-76.5 "/>
<text text-anchor="middle" x="375" y="-65.3" font-family="Times,serif" font-size="14.00">X₄ ⊆ X₂</text>
<polyline fill="none" stroke="#7f7542" points="240,-61.5 510,-61.5 "/>
<text text-anchor="middle" x="375" y="-50.3" font-family="Times,serif" font-size="14.00">⇊</text>
<polyline fill="none" stroke="#7f7542" points="240,-46.5 510,-46.5 "/>
<text text-anchor="middle" x="375" y="-35.3" font-family="Times,serif" font-size="14.00">X₁ ∈ X₂</text>
<polyline fill="none" stroke="#7f7542" points="240,-31.5 510,-31.5 "/>
<text text-anchor="middle" x="375" y="-20.3" font-family="Times,serif" font-size="14.00">X₃ = Ø</text>
</a>
</g>
</g>
<!-- c_0_32&#45;&gt;c_0_41 -->
<g id="edge3" class="edge">
<title>c_0_32&#45;&gt;c_0_41</title>
<path fill="none" stroke="black" stroke-dasharray="5,2" d="M375,-158.34C375,-158.34 375,-131.72 375,-131.72"/>
<polygon fill="black" stroke="black" points="378.5,-131.72 375,-121.72 371.5,-131.72 378.5,-131.72"/>
</g>
</g>
</svg>
