<?xml version="1.0" encoding="UTF-8" standalone="no"?>
<!DOCTYPE svg PUBLIC "-//W3C//DTD SVG 1.1//EN"
 "http://www.w3.org/Graphics/SVG/1.1/DTD/svg11.dtd">
<!-- Generated by graphviz version 5.0.0 (0)
 -->
<!-- Title: proof Pages: 1 -->
<svg width="188pt" height="138pt"
 viewBox="0.00 0.00 188.00 138.00" xmlns="http://www.w3.org/2000/svg" xmlns:xlink="http://www.w3.org/1999/xlink">
<g id="graph0" class="graph" transform="scale(1 1) rotate(0) translate(4 134)">
<title>proof</title>
<g id="clust1" class="cluster">
<title>cluster_1</title>
<polygon fill="transparent" stroke="black" stroke-width="2" points="27,-90 27,-122 153,-122 153,-90 27,-90"/>
</g>
<g id="clust2" class="cluster">
<title>cluster_2</title>
<polygon fill="transparent" stroke="black" stroke-dasharray="1,5" points="8,-8 8,-70 172,-70 172,-8 8,-8"/>
</g>
<!-- dt_k9_subset_1 -->
<g id="node1" class="node">
<title>dt_k9_subset_1</title>
<g id="a_node1"><a xlink:href="dt_k9_subset_1.html" xlink:title="dt_k9_subset_1" target="_vizar">
<polygon fill="#69d2e7" stroke="#7f7542" points="35.5,-98.5 35.5,-113.5 144.5,-113.5 144.5,-98.5 35.5,-98.5"/>
<text text-anchor="middle" x="90" y="-102.3" font-family="Times,serif" font-size="14.00">dt_k9_subset_1</text>
</a>
</g>
</g>
<!-- c_0_77 -->
<g id="node2" class="node">
<title>c_0_77</title>
<g id="a_node2"><a xlink:href="c_0_77.html" xlink:title="{X₁ ∈ bool(X₂)|⇊|X₂ /\ X₃ /\ X₁ ∈ bool(X₂)}" target="_vizar">
<polygon fill="#f8edd1" stroke="#7f7542" points="16,-16.5 16,-61.5 164,-61.5 164,-16.5 16,-16.5"/>
<text text-anchor="middle" x="90" y="-50.3" font-family="Times,serif" font-size="14.00">X₁ ∈ bool(X₂)</text>
<polyline fill="none" stroke="#7f7542" points="16,-46.5 164,-46.5 "/>
<text text-anchor="middle" x="90" y="-35.3" font-family="Times,serif" font-size="14.00">⇊</text>
<polyline fill="none" stroke="#7f7542" points="16,-31.5 164,-31.5 "/>
<text text-anchor="middle" x="90" y="-20.3" font-family="Times,serif" font-size="14.00">X₂ / X₃ / X₁ ∈ bool(X₂)</text>
</a>
</g>
</g>
<!-- dt_k9_subset_1&#45;&gt;c_0_77 -->
<g id="edge1" class="edge">
<title>dt_k9_subset_1&#45;&gt;c_0_77</title>
<path fill="none" stroke="black" d="M90,-98.31C90,-98.31 90,-71.76 90,-71.76"/>
<polygon fill="black" stroke="black" points="93.5,-71.76 90,-61.76 86.5,-71.76 93.5,-71.76"/>
</g>
</g>
</svg>
