<?xml version="1.0" encoding="UTF-8" standalone="no"?>
<!DOCTYPE svg PUBLIC "-//W3C//DTD SVG 1.1//EN"
 "http://www.w3.org/Graphics/SVG/1.1/DTD/svg11.dtd">
<!-- Generated by graphviz version 5.0.0 (0)
 -->
<!-- Title: proof Pages: 1 -->
<svg width="416pt" height="153pt"
 viewBox="0.00 0.00 416.00 153.00" xmlns="http://www.w3.org/2000/svg" xmlns:xlink="http://www.w3.org/1999/xlink">
<g id="graph0" class="graph" transform="scale(1 1) rotate(0) translate(4 149)">
<title>proof</title>
<g id="clust1" class="cluster">
<title>cluster_1</title>
<polygon fill="transparent" stroke="black" stroke-width="2" points="149,-105 149,-137 259,-137 259,-105 149,-105"/>
</g>
<g id="clust2" class="cluster">
<title>cluster_2</title>
<polygon fill="transparent" stroke="black" stroke-dasharray="1,5" points="8,-8 8,-85 400,-85 400,-8 8,-8"/>
</g>
<!-- dt_k5_dynkin -->
<g id="node1" class="node">
<title>dt_k5_dynkin</title>
<g id="a_node1"><a xlink:href="dt_k5_dynkin.html" xlink:title="dt_k5_dynkin" target="_vizar">
<polygon fill="#69d2e7" stroke="#7f7542" points="157,-113.5 157,-128.5 251,-128.5 251,-113.5 157,-113.5"/>
<text text-anchor="middle" x="204" y="-117.3" font-family="Times,serif" font-size="14.00">dt_k5_dynkin</text>
</a>
</g>
</g>
<!-- c_0_26 -->
<g id="node2" class="node">
<title>c_0_26</title>
<g id="a_node2"><a xlink:href="c_0_26.html" xlink:title="{X₂ ∈ bool(bool(X₁))|⇊|Dynkin_System(generated_Dynkin_System(X₁,X₂),X₁)|X₁ = Ø}" target="_vizar">
<polygon fill="#f8edd1" stroke="#7f7542" points="16,-16.5 16,-76.5 392,-76.5 392,-16.5 16,-16.5"/>
<text text-anchor="middle" x="204" y="-65.3" font-family="Times,serif" font-size="14.00">X₂ ∈ bool(bool(X₁))</text>
<polyline fill="none" stroke="#7f7542" points="16,-61.5 392,-61.5 "/>
<text text-anchor="middle" x="204" y="-50.3" font-family="Times,serif" font-size="14.00">⇊</text>
<polyline fill="none" stroke="#7f7542" points="16,-46.5 392,-46.5 "/>
<text text-anchor="middle" x="204" y="-35.3" font-family="Times,serif" font-size="14.00">Dynkin_System(generated_Dynkin_System(X₁,X₂),X₁)</text>
<polyline fill="none" stroke="#7f7542" points="16,-31.5 392,-31.5 "/>
<text text-anchor="middle" x="204" y="-20.3" font-family="Times,serif" font-size="14.00">X₁ = Ø</text>
</a>
</g>
</g>
<!-- dt_k5_dynkin&#45;&gt;c_0_26 -->
<g id="edge1" class="edge">
<title>dt_k5_dynkin&#45;&gt;c_0_26</title>
<path fill="none" stroke="black" d="M204,-113.31C204,-113.31 204,-86.51 204,-86.51"/>
<polygon fill="black" stroke="black" points="207.5,-86.51 204,-76.51 200.5,-86.51 207.5,-86.51"/>
</g>
</g>
</svg>
