<?xml version="1.0" encoding="UTF-8" standalone="no"?>
<!DOCTYPE svg PUBLIC "-//W3C//DTD SVG 1.1//EN"
 "http://www.w3.org/Graphics/SVG/1.1/DTD/svg11.dtd">
<!-- Generated by graphviz version 5.0.0 (0)
 -->
<!-- Title: proof Pages: 1 -->
<svg width="402pt" height="370pt"
 viewBox="0.00 0.00 402.00 370.00" xmlns="http://www.w3.org/2000/svg" xmlns:xlink="http://www.w3.org/1999/xlink">
<g id="graph0" class="graph" transform="scale(1 1) rotate(0) translate(4 366)">
<title>proof</title>
<g id="clust1" class="cluster">
<title>cluster_0</title>
<polygon fill="transparent" stroke="black" stroke-dasharray="1,5" points="140,-322 140,-354 254,-354 254,-322 140,-322"/>
</g>
<g id="clust2" class="cluster">
<title>cluster_1</title>
<polygon fill="transparent" stroke="black" stroke-width="2" points="8,-180 8,-302 386,-302 386,-180 8,-180"/>
</g>
<g id="clust3" class="cluster">
<title>cluster_2</title>
<polygon fill="transparent" stroke="black" stroke-dasharray="1,5" points="68,-8 68,-160 326,-160 326,-8 68,-8"/>
</g>
<!-- t11_topgen_2 -->
<g id="node1" class="node">
<title>t11_topgen_2</title>
<g id="a_node1"><a xlink:href="t11_topgen_2.html" xlink:title="t11_topgen_2" target="_parent">
<polygon fill="#69d2e7" stroke="#7f7542" points="148.5,-330.5 148.5,-345.5 245.5,-345.5 245.5,-330.5 148.5,-330.5"/>
<text text-anchor="middle" x="197" y="-334.3" font-family="Times,serif" font-size="14.00">t11_topgen_2</text>
</a>
</g>
</g>
<!-- c_0_20 -->
<g id="node2" class="node">
<title>c_0_20</title>
<g id="a_node2"><a xlink:href="c_0_20.html" xlink:title="{TopSpace&#45;like(X₁)|TopStruct(X₁)|X₂ ∈ bool(bool(carrier(X₁)))|open(X₂,X₁)|⇊|empty(X₁)|union(carrier(X₁),sk₃(X₁,X₂)) = union(carrier(X₁),X₂)}" target="_parent">
<polygon fill="#f8edd1" stroke="#7f7542" points="16.5,-188.5 16.5,-293.5 377.5,-293.5 377.5,-188.5 16.5,-188.5"/>
<text text-anchor="middle" x="197" y="-282.3" font-family="Times,serif" font-size="14.00">TopSpace&#45;like(X₁)</text>
<polyline fill="none" stroke="#7f7542" points="16.5,-278.5 377.5,-278.5 "/>
<text text-anchor="middle" x="197" y="-267.3" font-family="Times,serif" font-size="14.00">TopStruct(X₁)</text>
<polyline fill="none" stroke="#7f7542" points="16.5,-263.5 377.5,-263.5 "/>
<text text-anchor="middle" x="197" y="-252.3" font-family="Times,serif" font-size="14.00">X₂ ∈ bool(bool(carrier(X₁)))</text>
<polyline fill="none" stroke="#7f7542" points="16.5,-248.5 377.5,-248.5 "/>
<text text-anchor="middle" x="197" y="-237.3" font-family="Times,serif" font-size="14.00">open(X₂,X₁)</text>
<polyline fill="none" stroke="#7f7542" points="16.5,-233.5 377.5,-233.5 "/>
<text text-anchor="middle" x="197" y="-222.3" font-family="Times,serif" font-size="14.00">⇊</text>
<polyline fill="none" stroke="#7f7542" points="16.5,-218.5 377.5,-218.5 "/>
<text text-anchor="middle" x="197" y="-207.3" font-family="Times,serif" font-size="14.00">empty(X₁)</text>
<polyline fill="none" stroke="#7f7542" points="16.5,-203.5 377.5,-203.5 "/>
<text text-anchor="middle" x="197" y="-192.3" font-family="Times,serif" font-size="14.00">union(carrier(X₁),sk₃(X₁,X₂)) = union(carrier(X₁),X₂)</text>
</a>
</g>
</g>
<!-- t11_topgen_2&#45;&gt;c_0_20 -->
<g id="edge1" class="edge">
<title>t11_topgen_2&#45;&gt;c_0_20</title>
<path fill="none" stroke="black" d="M197,-330.39C197,-330.39 197,-303.93 197,-303.93"/>
<polygon fill="black" stroke="black" points="200.5,-303.93 197,-293.93 193.5,-303.93 200.5,-303.93"/>
</g>
<!-- c_0_37 -->
<g id="node3" class="node">
<title>c_0_37</title>
<g id="a_node3"><a xlink:href="c_0_37.html" xlink:title="{TopSpace&#45;like(X₁)|TopStruct(X₁)|X₂ ∈ bool(bool(carrier(X₁)))|open(X₂,X₁)|sk₃(X₁,X₂) ∈ bool(bool(carrier(X₁)))|union(carrier(X₁),X₂) = carrier(X₁)|⇊|Cover(sk₃(X₁,X₂),carrier(X₁))|empty(X₁)}" target="_parent">
<polygon fill="#f8edd1" stroke="#7f7542" points="76.5,-16.5 76.5,-151.5 317.5,-151.5 317.5,-16.5 76.5,-16.5"/>
<text text-anchor="middle" x="197" y="-140.3" font-family="Times,serif" font-size="14.00">TopSpace&#45;like(X₁)</text>
<polyline fill="none" stroke="#7f7542" points="76.5,-136.5 317.5,-136.5 "/>
<text text-anchor="middle" x="197" y="-125.3" font-family="Times,serif" font-size="14.00">TopStruct(X₁)</text>
<polyline fill="none" stroke="#7f7542" points="76.5,-121.5 317.5,-121.5 "/>
<text text-anchor="middle" x="197" y="-110.3" font-family="Times,serif" font-size="14.00">X₂ ∈ bool(bool(carrier(X₁)))</text>
<polyline fill="none" stroke="#7f7542" points="76.5,-106.5 317.5,-106.5 "/>
<text text-anchor="middle" x="197" y="-95.3" font-family="Times,serif" font-size="14.00">open(X₂,X₁)</text>
<polyline fill="none" stroke="#7f7542" points="76.5,-91.5 317.5,-91.5 "/>
<text text-anchor="middle" x="197" y="-80.3" font-family="Times,serif" font-size="14.00">sk₃(X₁,X₂) ∈ bool(bool(carrier(X₁)))</text>
<polyline fill="none" stroke="#7f7542" points="76.5,-76.5 317.5,-76.5 "/>
<text text-anchor="middle" x="197" y="-65.3" font-family="Times,serif" font-size="14.00">union(carrier(X₁),X₂) = carrier(X₁)</text>
<polyline fill="none" stroke="#7f7542" points="76.5,-61.5 317.5,-61.5 "/>
<text text-anchor="middle" x="197" y="-50.3" font-family="Times,serif" font-size="14.00">⇊</text>
<polyline fill="none" stroke="#7f7542" points="76.5,-46.5 317.5,-46.5 "/>
<text text-anchor="middle" x="197" y="-35.3" font-family="Times,serif" font-size="14.00">Cover(sk₃(X₁,X₂),carrier(X₁))</text>
<polyline fill="none" stroke="#7f7542" points="76.5,-31.5 317.5,-31.5 "/>
<text text-anchor="middle" x="197" y="-20.3" font-family="Times,serif" font-size="14.00">empty(X₁)</text>
</a>
</g>
</g>
<!-- c_0_20&#45;&gt;c_0_37 -->
<g id="edge2" class="edge">
<title>c_0_20&#45;&gt;c_0_37</title>
<path fill="none" stroke="black" stroke-dasharray="5,2" d="M197,-188.28C197,-188.28 197,-161.63 197,-161.63"/>
<polygon fill="black" stroke="black" points="200.5,-161.63 197,-151.63 193.5,-161.63 200.5,-161.63"/>
</g>
</g>
</svg>
