<?xml version="1.0" encoding="UTF-8" standalone="no"?>
<!DOCTYPE svg PUBLIC "-//W3C//DTD SVG 1.1//EN"
 "http://www.w3.org/Graphics/SVG/1.1/DTD/svg11.dtd">
<!-- Generated by graphviz version 5.0.0 (0)
 -->
<!-- Title: proof Pages: 1 -->
<svg width="1277pt" height="151pt"
 viewBox="0.00 0.00 1277.00 151.00" xmlns="http://www.w3.org/2000/svg" xmlns:xlink="http://www.w3.org/1999/xlink">
<g id="graph0" class="graph" transform="scale(1 1) rotate(0) translate(4 147)">
<title>proof</title>
<!-- t34_compl_sp -->
<g id="node1" class="node">
<title>t34_compl_sp</title>
<g id="a_node1"><a xlink:href="t34_compl_sp.html" xlink:title="t34_compl_sp" target="_parent">
<polygon fill="#fa6900" stroke="#7f7542" points="617,-127.5 617,-142.5 714,-142.5 714,-127.5 617,-127.5"/>
<text text-anchor="middle" x="665.5" y="-131.3" font-family="Times,serif" font-size="14.00">t34_compl_sp</text>
</a>
</g>
</g>
<!-- c_0_39 -->
<g id="node2" class="node">
<title>c_0_39</title>
<g id="a_node2"><a xlink:href="c_0_39.html" xlink:title="{TopStruct(sk₁)}" target="_parent">
<polygon fill="#fa6900" stroke="#7f7542" points="0,-38 0,-53 103,-53 103,-38 0,-38"/>
<text text-anchor="middle" x="51.5" y="-41.8" font-family="Times,serif" font-size="14.00">TopStruct(sk₁)</text>
</a>
</g>
</g>
<!-- t34_compl_sp&#45;&gt;c_0_39 -->
<g id="edge1" class="edge">
<title>t34_compl_sp&#45;&gt;c_0_39</title>
<path fill="none" stroke="black" d="M616.81,-137C471.58,-137 51.5,-137 51.5,-137 51.5,-137 51.5,-63.3 51.5,-63.3"/>
<polygon fill="black" stroke="black" points="55,-63.3 51.5,-53.3 48,-63.3 55,-63.3"/>
</g>
<!-- c_0_36 -->
<g id="node3" class="node">
<title>c_0_36</title>
<g id="a_node3"><a xlink:href="c_0_36.html" xlink:title="{Cover(X₁,carrier(sk₁))|X₁ ∈ bool(bool(carrier(sk₁)))|X₁ ⊆ sk₂|countable(X₁)|⇊|⊥}" target="_parent">
<polygon fill="#fa6900" stroke="#7f7542" points="121.5,-0.5 121.5,-90.5 317.5,-90.5 317.5,-0.5 121.5,-0.5"/>
<text text-anchor="middle" x="219.5" y="-79.3" font-family="Times,serif" font-size="14.00">Cover(X₁,carrier(sk₁))</text>
<polyline fill="none" stroke="#7f7542" points="121.5,-75.5 317.5,-75.5 "/>
<text text-anchor="middle" x="219.5" y="-64.3" font-family="Times,serif" font-size="14.00">X₁ ∈ bool(bool(carrier(sk₁)))</text>
<polyline fill="none" stroke="#7f7542" points="121.5,-60.5 317.5,-60.5 "/>
<text text-anchor="middle" x="219.5" y="-49.3" font-family="Times,serif" font-size="14.00">X₁ ⊆ sk₂</text>
<polyline fill="none" stroke="#7f7542" points="121.5,-45.5 317.5,-45.5 "/>
<text text-anchor="middle" x="219.5" y="-34.3" font-family="Times,serif" font-size="14.00">countable(X₁)</text>
<polyline fill="none" stroke="#7f7542" points="121.5,-30.5 317.5,-30.5 "/>
<text text-anchor="middle" x="219.5" y="-19.3" font-family="Times,serif" font-size="14.00">⇊</text>
<polyline fill="none" stroke="#7f7542" points="121.5,-15.5 317.5,-15.5 "/>
<text text-anchor="middle" x="219.5" y="-4.3" font-family="Times,serif" font-size="14.00">⊥</text>
</a>
</g>
</g>
<!-- t34_compl_sp&#45;&gt;c_0_36 -->
<g id="edge2" class="edge">
<title>t34_compl_sp&#45;&gt;c_0_36</title>
<path fill="none" stroke="black" d="M627.17,-127.27C627.17,-110.45 627.17,-72 627.17,-72 627.17,-72 327.67,-72 327.67,-72"/>
<polygon fill="black" stroke="black" points="327.67,-68.5 317.67,-72 327.67,-75.5 327.67,-68.5"/>
</g>
<!-- c_0_52 -->
<g id="node4" class="node">
<title>c_0_52</title>
<g id="a_node4"><a xlink:href="c_0_52.html" xlink:title="{sk₂ ∈ bool(bool(carrier(sk₁)))}" target="_parent">
<polygon fill="#fa6900" stroke="#7f7542" points="335.5,-38 335.5,-53 537.5,-53 537.5,-38 335.5,-38"/>
<text text-anchor="middle" x="436.5" y="-41.8" font-family="Times,serif" font-size="14.00">sk₂ ∈ bool(bool(carrier(sk₁)))</text>
</a>
</g>
</g>
<!-- t34_compl_sp&#45;&gt;c_0_52 -->
<g id="edge3" class="edge">
<title>t34_compl_sp&#45;&gt;c_0_52</title>
<path fill="none" stroke="black" d="M616.93,-132C549.71,-132 436.5,-132 436.5,-132 436.5,-132 436.5,-63.18 436.5,-63.18"/>
<polygon fill="black" stroke="black" points="440,-63.18 436.5,-53.18 433,-63.18 440,-63.18"/>
</g>
<!-- c_0_51 -->
<g id="node5" class="node">
<title>c_0_51</title>
<g id="a_node5"><a xlink:href="c_0_51.html" xlink:title="{open(sk₂,sk₁)}" target="_parent">
<polygon fill="#fa6900" stroke="#7f7542" points="555.5,-38 555.5,-53 647.5,-53 647.5,-38 555.5,-38"/>
<text text-anchor="middle" x="601.5" y="-41.8" font-family="Times,serif" font-size="14.00">open(sk₂,sk₁)</text>
</a>
</g>
</g>
<!-- t34_compl_sp&#45;&gt;c_0_51 -->
<g id="edge4" class="edge">
<title>t34_compl_sp&#45;&gt;c_0_51</title>
<path fill="none" stroke="black" d="M637.33,-127.37C637.33,-127.37 637.33,-63.11 637.33,-63.11"/>
<polygon fill="black" stroke="black" points="640.83,-63.11 637.33,-53.11 633.83,-63.11 640.83,-63.11"/>
</g>
<!-- c_0_40 -->
<g id="node6" class="node">
<title>c_0_40</title>
<g id="a_node6"><a xlink:href="c_0_40.html" xlink:title="{TopSpace&#45;like(sk₁)}" target="_parent">
<polygon fill="#fa6900" stroke="#7f7542" points="665.5,-38 665.5,-53 795.5,-53 795.5,-38 665.5,-38"/>
<text text-anchor="middle" x="730.5" y="-41.8" font-family="Times,serif" font-size="14.00">TopSpace&#45;like(sk₁)</text>
</a>
</g>
</g>
<!-- t34_compl_sp&#45;&gt;c_0_40 -->
<g id="edge5" class="edge">
<title>t34_compl_sp&#45;&gt;c_0_40</title>
<path fill="none" stroke="black" d="M689.75,-127.37C689.75,-127.37 689.75,-63.11 689.75,-63.11"/>
<polygon fill="black" stroke="black" points="693.25,-63.11 689.75,-53.11 686.25,-63.11 693.25,-63.11"/>
</g>
<!-- c_0_66 -->
<g id="node7" class="node">
<title>c_0_66</title>
<g id="a_node7"><a xlink:href="c_0_66.html" xlink:title="{second&#45;countable(sk₁)}" target="_parent">
<polygon fill="#fa6900" stroke="#7f7542" points="813.5,-38 813.5,-53 969.5,-53 969.5,-38 813.5,-38"/>
<text text-anchor="middle" x="891.5" y="-41.8" font-family="Times,serif" font-size="14.00">second&#45;countable(sk₁)</text>
</a>
</g>
</g>
<!-- t34_compl_sp&#45;&gt;c_0_66 -->
<g id="edge6" class="edge">
<title>t34_compl_sp&#45;&gt;c_0_66</title>
<path fill="none" stroke="black" d="M714.26,-131C780.7,-131 891.5,-131 891.5,-131 891.5,-131 891.5,-63.09 891.5,-63.09"/>
<polygon fill="black" stroke="black" points="895,-63.09 891.5,-53.09 888,-63.09 895,-63.09"/>
</g>
<!-- c_0_41 -->
<g id="node8" class="node">
<title>c_0_41</title>
<g id="a_node8"><a xlink:href="c_0_41.html" xlink:title="{¬ (empty(sk₁))}" target="_parent">
<polygon fill="#fa6900" stroke="#7f7542" points="987.5,-38 987.5,-53 1091.5,-53 1091.5,-38 987.5,-38"/>
<text text-anchor="middle" x="1039.5" y="-41.8" font-family="Times,serif" font-size="14.00">¬ (empty(sk₁))</text>
</a>
</g>
</g>
<!-- t34_compl_sp&#45;&gt;c_0_41 -->
<g id="edge7" class="edge">
<title>t34_compl_sp&#45;&gt;c_0_41</title>
<path fill="none" stroke="black" d="M714.01,-135C815.21,-135 1039.5,-135 1039.5,-135 1039.5,-135 1039.5,-63.13 1039.5,-63.13"/>
<polygon fill="black" stroke="black" points="1043,-63.13 1039.5,-53.13 1036,-63.13 1043,-63.13"/>
</g>
<!-- c_0_72 -->
<g id="node9" class="node">
<title>c_0_72</title>
<g id="a_node9"><a xlink:href="c_0_72.html" xlink:title="{Cover(sk₂,carrier(sk₁))}" target="_parent">
<polygon fill="#fa6900" stroke="#7f7542" points="1110,-38 1110,-53 1269,-53 1269,-38 1110,-38"/>
<text text-anchor="middle" x="1189.5" y="-41.8" font-family="Times,serif" font-size="14.00">Cover(sk₂,carrier(sk₁))</text>
</a>
</g>
</g>
<!-- t34_compl_sp&#45;&gt;c_0_72 -->
<g id="edge8" class="edge">
<title>t34_compl_sp&#45;&gt;c_0_72</title>
<path fill="none" stroke="black" d="M714.33,-139C844.41,-139 1189.5,-139 1189.5,-139 1189.5,-139 1189.5,-63.15 1189.5,-63.15"/>
<polygon fill="black" stroke="black" points="1193,-63.15 1189.5,-53.15 1186,-63.15 1193,-63.15"/>
</g>
</g>
</svg>
