<?xml version="1.0" encoding="UTF-8" standalone="no"?>
<!DOCTYPE svg PUBLIC "-//W3C//DTD SVG 1.1//EN"
 "http://www.w3.org/Graphics/SVG/1.1/DTD/svg11.dtd">
<!-- Generated by graphviz version 5.0.0 (0)
 -->
<!-- Title: proof Pages: 1 -->
<svg width="270pt" height="160pt"
 viewBox="0.00 0.00 270.00 160.00" xmlns="http://www.w3.org/2000/svg" xmlns:xlink="http://www.w3.org/1999/xlink">
<g id="graph0" class="graph" transform="scale(1 1) rotate(0) translate(4 156)">
<title>proof</title>
<g id="clust1" class="cluster">
<title>cluster_0</title>
<polygon fill="transparent" stroke="black" stroke-dasharray="1,5" points="22,-112 22,-144 240,-144 240,-112 22,-112"/>
</g>
<g id="clust2" class="cluster">
<title>cluster_1</title>
<polygon fill="transparent" stroke="black" stroke-width="2" points="65,-60 65,-92 197,-92 197,-60 65,-60"/>
</g>
<g id="clust3" class="cluster">
<title>cluster_2</title>
<polygon fill="transparent" stroke="black" stroke-dasharray="1,5" points="8,-8 8,-40 254,-40 254,-8 8,-8"/>
</g>
<!-- commutativity_k3_xcmplx_0 -->
<g id="node1" class="node">
<title>commutativity_k3_xcmplx_0</title>
<g id="a_node1"><a xlink:href="commutativity_k3_xcmplx_0.html" xlink:title="commutativity_k3_xcmplx_0" target="_vizar">
<polygon fill="#69d2e7" stroke="#7f7542" points="30,-120.5 30,-135.5 232,-135.5 232,-120.5 30,-120.5"/>
<text text-anchor="middle" x="131" y="-124.3" font-family="Times,serif" font-size="14.00">commutativity_k3_xcmplx_0</text>
</a>
</g>
</g>
<!-- c_0_111 -->
<g id="node2" class="node">
<title>c_0_111</title>
<g id="a_node2"><a xlink:href="c_0_111.html" xlink:title="{C₁ * C₂ = C₂ * C₁}" target="_vizar">
<polygon fill="#f8edd1" stroke="#7f7542" points="73,-68.5 73,-83.5 189,-83.5 189,-68.5 73,-68.5"/>
<text text-anchor="middle" x="131" y="-72.3" font-family="Times,serif" font-size="14.00">C₁ * C₂ = C₂ * C₁</text>
</a>
</g>
</g>
<!-- commutativity_k3_xcmplx_0&#45;&gt;c_0_111 -->
<g id="edge1" class="edge">
<title>commutativity_k3_xcmplx_0&#45;&gt;c_0_111</title>
<path fill="none" stroke="black" d="M131,-120.33C131,-120.33 131,-93.7 131,-93.7"/>
<polygon fill="black" stroke="black" points="134.5,-93.7 131,-83.7 127.5,-93.7 134.5,-93.7"/>
</g>
<!-- c_0_123 -->
<g id="node3" class="node">
<title>c_0_123</title>
<g id="a_node3"><a xlink:href="c_0_123.html" xlink:title="{lucas(sk₁) * fib(sk₁) ≠ fib(2 * sk₁)}" target="_vizar">
<polygon fill="#fa6900" stroke="#7f7542" points="16.5,-16.5 16.5,-31.5 245.5,-31.5 245.5,-16.5 16.5,-16.5"/>
<text text-anchor="middle" x="131" y="-20.3" font-family="Times,serif" font-size="14.00">lucas(sk₁) * fib(sk₁) ≠ fib(2 * sk₁)</text>
</a>
</g>
</g>
<!-- c_0_111&#45;&gt;c_0_123 -->
<g id="edge2" class="edge">
<title>c_0_111&#45;&gt;c_0_123</title>
<path fill="none" stroke="black" stroke-dasharray="5,2" d="M131,-68.33C131,-68.33 131,-41.7 131,-41.7"/>
<polygon fill="black" stroke="black" points="134.5,-41.7 131,-31.7 127.5,-41.7 134.5,-41.7"/>
</g>
</g>
</svg>
