<?xml version="1.0" encoding="UTF-8" standalone="no"?>
<!DOCTYPE svg PUBLIC "-//W3C//DTD SVG 1.1//EN"
 "http://www.w3.org/Graphics/SVG/1.1/DTD/svg11.dtd">
<!-- Generated by graphviz version 5.0.0 (0)
 -->
<!-- Title: proof Pages: 1 -->
<svg width="289pt" height="160pt"
 viewBox="0.00 0.00 289.00 160.00" xmlns="http://www.w3.org/2000/svg" xmlns:xlink="http://www.w3.org/1999/xlink">
<g id="graph0" class="graph" transform="scale(1 1) rotate(0) translate(4 156)">
<title>proof</title>
<g id="clust1" class="cluster">
<title>cluster_0</title>
<polygon fill="transparent" stroke="black" stroke-dasharray="1,5" points="8,-112 8,-144 202,-144 202,-112 8,-112"/>
</g>
<g id="clust2" class="cluster">
<title>cluster_1</title>
<polygon fill="transparent" stroke="black" stroke-width="2" points="74,-60 74,-92 136,-92 136,-60 74,-60"/>
</g>
<g id="clust3" class="cluster">
<title>cluster_2</title>
<polygon fill="transparent" stroke="black" stroke-dasharray="1,5" points="9,-8 9,-40 273,-40 273,-8 9,-8"/>
</g>
<!-- redefinition_k5_numbers -->
<g id="node1" class="node">
<title>redefinition_k5_numbers</title>
<g id="a_node1"><a xlink:href="redefinition_k5_numbers.html" xlink:title="redefinition_k5_numbers" target="_vizar">
<polygon fill="#69d2e7" stroke="#7f7542" points="16.5,-120.5 16.5,-135.5 193.5,-135.5 193.5,-120.5 16.5,-120.5"/>
<text text-anchor="middle" x="105" y="-124.3" font-family="Times,serif" font-size="14.00">redefinition_k5_numbers</text>
</a>
</g>
</g>
<!-- c_0_58 -->
<g id="node2" class="node">
<title>c_0_58</title>
<g id="a_node2"><a xlink:href="c_0_58.html" xlink:title="{ℕ = ω}" target="_vizar">
<polygon fill="#f8edd1" stroke="#7f7542" points="82,-68.5 82,-83.5 128,-83.5 128,-68.5 82,-68.5"/>
<text text-anchor="middle" x="105" y="-72.3" font-family="Times,serif" font-size="14.00">ℕ = ω</text>
</a>
</g>
</g>
<!-- redefinition_k5_numbers&#45;&gt;c_0_58 -->
<g id="edge1" class="edge">
<title>redefinition_k5_numbers&#45;&gt;c_0_58</title>
<path fill="none" stroke="black" d="M105,-120.33C105,-120.33 105,-93.7 105,-93.7"/>
<polygon fill="black" stroke="black" points="108.5,-93.7 105,-83.7 101.5,-93.7 108.5,-93.7"/>
</g>
<!-- c_0_106 -->
<g id="node3" class="node">
<title>c_0_106</title>
<g id="a_node3"><a xlink:href="c_0_106.html" xlink:title="{N₁ ∈ ℕ}" target="_vizar">
<polygon fill="#f8edd1" stroke="#7f7542" points="215,-16.5 215,-31.5 265,-31.5 265,-16.5 215,-16.5"/>
<text text-anchor="middle" x="240" y="-20.3" font-family="Times,serif" font-size="14.00">N₁ ∈ ℕ</text>
</a>
</g>
</g>
<!-- c_0_58&#45;&gt;c_0_106 -->
<g id="edge2" class="edge">
<title>c_0_58&#45;&gt;c_0_106</title>
<path fill="none" stroke="black" stroke-dasharray="5,2" d="M128.21,-78C166.81,-78 240,-78 240,-78 240,-78 240,-41.51 240,-41.51"/>
<polygon fill="black" stroke="black" points="243.5,-41.51 240,-31.51 236.5,-41.51 243.5,-41.51"/>
</g>
<!-- c_0_66 -->
<g id="node4" class="node">
<title>c_0_66</title>
<g id="a_node4"><a xlink:href="c_0_66.html" xlink:title="{N₁ ∈ ℕ}" target="_vizar">
<polygon fill="#f8edd1" stroke="#7f7542" points="147,-16.5 147,-31.5 197,-31.5 197,-16.5 147,-16.5"/>
<text text-anchor="middle" x="172" y="-20.3" font-family="Times,serif" font-size="14.00">N₁ ∈ ℕ</text>
</a>
</g>
</g>
<!-- c_0_58&#45;&gt;c_0_66 -->
<g id="edge3" class="edge">
<title>c_0_58&#45;&gt;c_0_66</title>
<path fill="none" stroke="black" stroke-dasharray="5,2" d="M128.19,-73C146.94,-73 170.25,-73 170.25,-73 170.25,-73 170.25,-41.66 170.25,-41.66"/>
<polygon fill="black" stroke="black" points="173.75,-41.66 170.25,-31.66 166.75,-41.66 173.75,-41.66"/>
</g>
<!-- c_0_127 -->
<g id="node5" class="node">
<title>c_0_127</title>
<g id="a_node5"><a xlink:href="c_0_127.html" xlink:title="{ℕ ⊆ ℕ}" target="_vizar">
<polygon fill="#f8edd1" stroke="#7f7542" points="81.5,-16.5 81.5,-31.5 128.5,-31.5 128.5,-16.5 81.5,-16.5"/>
<text text-anchor="middle" x="105" y="-20.3" font-family="Times,serif" font-size="14.00">ℕ ⊆ ℕ</text>
</a>
</g>
</g>
<!-- c_0_58&#45;&gt;c_0_127 -->
<g id="edge4" class="edge">
<title>c_0_58&#45;&gt;c_0_127</title>
<path fill="none" stroke="black" stroke-dasharray="5,2" d="M105,-68.33C105,-68.33 105,-41.7 105,-41.7"/>
<polygon fill="black" stroke="black" points="108.5,-41.7 105,-31.7 101.5,-41.7 108.5,-41.7"/>
</g>
<!-- c_0_132 -->
<g id="node6" class="node">
<title>c_0_132</title>
<g id="a_node6"><a xlink:href="c_0_132.html" xlink:title="{ℕ ≠ Ø}" target="_vizar">
<polygon fill="#f8edd1" stroke="#7f7542" points="17,-16.5 17,-31.5 63,-31.5 63,-16.5 17,-16.5"/>
<text text-anchor="middle" x="40" y="-20.3" font-family="Times,serif" font-size="14.00">ℕ ≠ Ø</text>
</a>
</g>
</g>
<!-- c_0_58&#45;&gt;c_0_132 -->
<g id="edge5" class="edge">
<title>c_0_58&#45;&gt;c_0_132</title>
<path fill="none" stroke="black" stroke-dasharray="5,2" d="M81.9,-76C63.22,-76 40,-76 40,-76 40,-76 40,-41.67 40,-41.67"/>
<polygon fill="black" stroke="black" points="43.5,-41.67 40,-31.67 36.5,-41.67 43.5,-41.67"/>
</g>
</g>
</svg>
