<?xml version="1.0" encoding="UTF-8" standalone="no"?>
<!DOCTYPE svg PUBLIC "-//W3C//DTD SVG 1.1//EN"
 "http://www.w3.org/Graphics/SVG/1.1/DTD/svg11.dtd">
<!-- Generated by graphviz version 5.0.0 (0)
 -->
<!-- Title: proof Pages: 1 -->
<svg width="946pt" height="280pt"
 viewBox="0.00 0.00 946.00 280.00" xmlns="http://www.w3.org/2000/svg" xmlns:xlink="http://www.w3.org/1999/xlink">
<g id="graph0" class="graph" transform="scale(1 1) rotate(0) translate(4 276)">
<title>proof</title>
<g id="clust1" class="cluster">
<title>cluster_0</title>
<polygon fill="transparent" stroke="black" stroke-dasharray="1,5" points="8,-187 8,-264 930,-264 930,-187 8,-187"/>
</g>
<g id="clust2" class="cluster">
<title>cluster_1</title>
<polygon fill="transparent" stroke="black" stroke-width="2" points="216,-90 216,-167 790,-167 790,-90 216,-90"/>
</g>
<g id="clust3" class="cluster">
<title>cluster_2</title>
<polygon fill="transparent" stroke="black" stroke-dasharray="1,5" points="216,-8 216,-70 790,-70 790,-8 216,-8"/>
</g>
<!-- c_0_53 -->
<g id="node1" class="node">
<title>c_0_53</title>
<g id="a_node1"><a xlink:href="c_0_53.html" xlink:title="{X₁ ∈ ℕ|⇊|R₂ = Ø|to_power(to_power(R₂,X₁),2) = to_power(R₂,2 * X₁)}" target="_vizar">
<polygon fill="#f8edd1" stroke="#7f7542" points="564,-195.5 564,-255.5 922,-255.5 922,-195.5 564,-195.5"/>
<text text-anchor="middle" x="743" y="-244.3" font-family="Times,serif" font-size="14.00">X₁ ∈ ℕ</text>
<polyline fill="none" stroke="#7f7542" points="564,-240.5 922,-240.5 "/>
<text text-anchor="middle" x="743" y="-229.3" font-family="Times,serif" font-size="14.00">⇊</text>
<polyline fill="none" stroke="#7f7542" points="564,-225.5 922,-225.5 "/>
<text text-anchor="middle" x="743" y="-214.3" font-family="Times,serif" font-size="14.00">R₂ = Ø</text>
<polyline fill="none" stroke="#7f7542" points="564,-210.5 922,-210.5 "/>
<text text-anchor="middle" x="743" y="-199.3" font-family="Times,serif" font-size="14.00">to_power(to_power(R₂,X₁),2) = to_power(R₂,2 * X₁)</text>
</a>
</g>
</g>
<!-- c_0_62 -->
<g id="node4" class="node">
<title>c_0_62</title>
<g id="a_node4"><a xlink:href="c_0_62.html" xlink:title="{X₁ ∈ ℕ|⇊|&#45;(to_power(tau,2 * X₁),to_power(to_power(tau_bar,X₁),2)) / sqrt(5) = Fib(2 * X₁)|tau_bar = Ø}" target="_vizar">
<polygon fill="#f8edd1" stroke="#7f7542" points="224.5,-98.5 224.5,-158.5 781.5,-158.5 781.5,-98.5 224.5,-98.5"/>
<text text-anchor="middle" x="503" y="-147.3" font-family="Times,serif" font-size="14.00">X₁ ∈ ℕ</text>
<polyline fill="none" stroke="#7f7542" points="224.5,-143.5 781.5,-143.5 "/>
<text text-anchor="middle" x="503" y="-132.3" font-family="Times,serif" font-size="14.00">⇊</text>
<polyline fill="none" stroke="#7f7542" points="224.5,-128.5 781.5,-128.5 "/>
<text text-anchor="middle" x="503" y="-117.3" font-family="Times,serif" font-size="14.00">&#45;(to_power(tau,2 * X₁),to_power(to_power(tau_bar,X₁),2)) / sqrt(5) = Fib(2 * X₁)</text>
<polyline fill="none" stroke="#7f7542" points="224.5,-113.5 781.5,-113.5 "/>
<text text-anchor="middle" x="503" y="-102.3" font-family="Times,serif" font-size="14.00">tau_bar = Ø</text>
</a>
</g>
</g>
<!-- c_0_53&#45;&gt;c_0_62 -->
<g id="edge1" class="edge">
<title>c_0_53&#45;&gt;c_0_62</title>
<path fill="none" stroke="black" d="M672.75,-195.34C672.75,-195.34 672.75,-168.64 672.75,-168.64"/>
<polygon fill="black" stroke="black" points="676.25,-168.64 672.75,-158.64 669.25,-168.64 676.25,-168.64"/>
</g>
<!-- c_0_54 -->
<g id="node2" class="node">
<title>c_0_54</title>
<g id="a_node2"><a xlink:href="c_0_54.html" xlink:title="{tau_bar ∈ ℝ}" target="_vizar">
<polygon fill="#f8edd1" stroke="#7f7542" points="460,-218 460,-233 546,-233 546,-218 460,-218"/>
<text text-anchor="middle" x="503" y="-221.8" font-family="Times,serif" font-size="14.00">tau_bar ∈ ℝ</text>
</a>
</g>
</g>
<!-- c_0_54&#45;&gt;c_0_62 -->
<g id="edge2" class="edge">
<title>c_0_54&#45;&gt;c_0_62</title>
<path fill="none" stroke="black" d="M503,-217.89C503,-217.89 503,-168.78 503,-168.78"/>
<polygon fill="black" stroke="black" points="506.5,-168.78 503,-158.78 499.5,-168.78 506.5,-168.78"/>
</g>
<!-- c_0_52 -->
<g id="node3" class="node">
<title>c_0_52</title>
<g id="a_node3"><a xlink:href="c_0_52.html" xlink:title="{Fib(N₁) = &#45;(to_power(tau,N₁),to_power(tau_bar,N₁)) / sqrt(5)}" target="_vizar">
<polygon fill="#f8edd1" stroke="#7f7542" points="16.5,-218 16.5,-233 441.5,-233 441.5,-218 16.5,-218"/>
<text text-anchor="middle" x="229" y="-221.8" font-family="Times,serif" font-size="14.00">Fib(N₁) = &#45;(to_power(tau,N₁),to_power(tau_bar,N₁)) / sqrt(5)</text>
</a>
</g>
</g>
<!-- c_0_52&#45;&gt;c_0_62 -->
<g id="edge3" class="edge">
<title>c_0_52&#45;&gt;c_0_62</title>
<path fill="none" stroke="black" d="M333,-217.89C333,-217.89 333,-168.78 333,-168.78"/>
<polygon fill="black" stroke="black" points="336.5,-168.78 333,-158.78 329.5,-168.78 336.5,-168.78"/>
</g>
<!-- c_0_70 -->
<g id="node5" class="node">
<title>c_0_70</title>
<g id="a_node5"><a xlink:href="c_0_70.html" xlink:title="{X₁ ∈ ℕ|⇊|&#45;(to_power(tau,X₁ * 2),to_power(to_power(tau_bar,X₁),2)) / sqrt(5) = Fib(X₁ * 2)}" target="_vizar">
<polygon fill="#f8edd1" stroke="#7f7542" points="224.5,-16.5 224.5,-61.5 781.5,-61.5 781.5,-16.5 224.5,-16.5"/>
<text text-anchor="middle" x="503" y="-50.3" font-family="Times,serif" font-size="14.00">X₁ ∈ ℕ</text>
<polyline fill="none" stroke="#7f7542" points="224.5,-46.5 781.5,-46.5 "/>
<text text-anchor="middle" x="503" y="-35.3" font-family="Times,serif" font-size="14.00">⇊</text>
<polyline fill="none" stroke="#7f7542" points="224.5,-31.5 781.5,-31.5 "/>
<text text-anchor="middle" x="503" y="-20.3" font-family="Times,serif" font-size="14.00">&#45;(to_power(tau,X₁ * 2),to_power(to_power(tau_bar,X₁),2)) / sqrt(5) = Fib(X₁ * 2)</text>
</a>
</g>
</g>
<!-- c_0_62&#45;&gt;c_0_70 -->
<g id="edge4" class="edge">
<title>c_0_62&#45;&gt;c_0_70</title>
<path fill="none" stroke="black" stroke-dasharray="5,2" d="M503,-98.2C503,-98.2 503,-71.63 503,-71.63"/>
<polygon fill="black" stroke="black" points="506.5,-71.63 503,-61.63 499.5,-71.63 506.5,-71.63"/>
</g>
</g>
</svg>
