<?xml version="1.0" encoding="UTF-8" standalone="no"?>
<!DOCTYPE svg PUBLIC "-//W3C//DTD SVG 1.1//EN"
 "http://www.w3.org/Graphics/SVG/1.1/DTD/svg11.dtd">
<!-- Generated by graphviz version 5.0.0 (0)
 -->
<!-- Title: proof Pages: 1 -->
<svg width="416pt" height="160pt"
 viewBox="0.00 0.00 416.00 160.00" xmlns="http://www.w3.org/2000/svg" xmlns:xlink="http://www.w3.org/1999/xlink">
<g id="graph0" class="graph" transform="scale(1 1) rotate(0) translate(4 156)">
<title>proof</title>
<g id="clust1" class="cluster">
<title>cluster_0</title>
<polygon fill="transparent" stroke="black" stroke-dasharray="1,5" points="147,-112 147,-144 261,-144 261,-112 147,-112"/>
</g>
<g id="clust2" class="cluster">
<title>cluster_1</title>
<polygon fill="transparent" stroke="black" stroke-width="2" points="98,-60 98,-92 310,-92 310,-60 98,-60"/>
</g>
<g id="clust3" class="cluster">
<title>cluster_2</title>
<polygon fill="transparent" stroke="black" stroke-dasharray="1,5" points="8,-8 8,-40 400,-40 400,-8 8,-8"/>
</g>
<!-- t74_xcmplx_1 -->
<g id="node1" class="node">
<title>t74_xcmplx_1</title>
<g id="a_node1"><a xlink:href="t74_xcmplx_1.html" xlink:title="t74_xcmplx_1" target="_vizar">
<polygon fill="#69d2e7" stroke="#7f7542" points="155,-120.5 155,-135.5 253,-135.5 253,-120.5 155,-120.5"/>
<text text-anchor="middle" x="204" y="-124.3" font-family="Times,serif" font-size="14.00">t74_xcmplx_1</text>
</a>
</g>
</g>
<!-- c_0_92 -->
<g id="node2" class="node">
<title>c_0_92</title>
<g id="a_node2"><a xlink:href="c_0_92.html" xlink:title="{C₁ * (C₂ / C₃) = (C₁ * C₂) / C₃}" target="_vizar">
<polygon fill="#f8edd1" stroke="#7f7542" points="106,-68.5 106,-83.5 302,-83.5 302,-68.5 106,-68.5"/>
<text text-anchor="middle" x="204" y="-72.3" font-family="Times,serif" font-size="14.00">C₁ * (C₂ / C₃) = (C₁ * C₂) / C₃</text>
</a>
</g>
</g>
<!-- t74_xcmplx_1&#45;&gt;c_0_92 -->
<g id="edge1" class="edge">
<title>t74_xcmplx_1&#45;&gt;c_0_92</title>
<path fill="none" stroke="black" d="M204,-120.33C204,-120.33 204,-93.7 204,-93.7"/>
<polygon fill="black" stroke="black" points="207.5,-93.7 204,-83.7 200.5,-93.7 207.5,-93.7"/>
</g>
<!-- c_0_102 -->
<g id="node3" class="node">
<title>c_0_102</title>
<g id="a_node3"><a xlink:href="c_0_102.html" xlink:title="{lucas(N₁) * (((τ⁺ ^ N₁) &#45; (τ⁻ ^ N₁)) / (√5)) = fib(N₁ * 2)}" target="_vizar">
<polygon fill="#f8edd1" stroke="#7f7542" points="16,-16.5 16,-31.5 392,-31.5 392,-16.5 16,-16.5"/>
<text text-anchor="middle" x="204" y="-20.3" font-family="Times,serif" font-size="14.00">lucas(N₁) * (((τ⁺ ^ N₁) &#45; (τ⁻ ^ N₁)) / (√5)) = fib(N₁ * 2)</text>
</a>
</g>
</g>
<!-- c_0_92&#45;&gt;c_0_102 -->
<g id="edge2" class="edge">
<title>c_0_92&#45;&gt;c_0_102</title>
<path fill="none" stroke="black" stroke-dasharray="5,2" d="M204,-68.33C204,-68.33 204,-41.7 204,-41.7"/>
<polygon fill="black" stroke="black" points="207.5,-41.7 204,-31.7 200.5,-41.7 207.5,-41.7"/>
</g>
</g>
</svg>
