<?xml version="1.0" encoding="UTF-8" standalone="no"?>
<!DOCTYPE svg PUBLIC "-//W3C//DTD SVG 1.1//EN"
 "http://www.w3.org/Graphics/SVG/1.1/DTD/svg11.dtd">
<!-- Generated by graphviz version 5.0.0 (0)
 -->
<!-- Title: proof Pages: 1 -->
<svg width="271pt" height="160pt"
 viewBox="0.00 0.00 271.00 160.00" xmlns="http://www.w3.org/2000/svg" xmlns:xlink="http://www.w3.org/1999/xlink">
<g id="graph0" class="graph" transform="scale(1 1) rotate(0) translate(4 156)">
<title>proof</title>
<g id="clust1" class="cluster">
<title>cluster_0</title>
<polygon fill="transparent" stroke="black" stroke-dasharray="1,5" points="73,-112 73,-144 255,-144 255,-112 73,-112"/>
</g>
<g id="clust2" class="cluster">
<title>cluster_1</title>
<polygon fill="transparent" stroke="black" stroke-width="2" points="98,-60 98,-92 164,-92 164,-60 98,-60"/>
</g>
<g id="clust3" class="cluster">
<title>cluster_2</title>
<polygon fill="transparent" stroke="black" stroke-dasharray="1,5" points="8,-8 8,-40 254,-40 254,-8 8,-8"/>
</g>
<!-- c_0_66 -->
<g id="node1" class="node">
<title>c_0_66</title>
<g id="a_node1"><a xlink:href="c_0_66.html" xlink:title="{N₁ ∈ ℕ}" target="_vizar">
<polygon fill="#f8edd1" stroke="#7f7542" points="197,-120.5 197,-135.5 247,-135.5 247,-120.5 197,-120.5"/>
<text text-anchor="middle" x="222" y="-124.3" font-family="Times,serif" font-size="14.00">N₁ ∈ ℕ</text>
</a>
</g>
</g>
<!-- c_0_101 -->
<g id="node3" class="node">
<title>c_0_101</title>
<g id="a_node3"><a xlink:href="c_0_101.html" xlink:title="{N₁ ∈ ℂ}" target="_vizar">
<polygon fill="#f8edd1" stroke="#7f7542" points="106.5,-68.5 106.5,-83.5 155.5,-83.5 155.5,-68.5 106.5,-68.5"/>
<text text-anchor="middle" x="131" y="-72.3" font-family="Times,serif" font-size="14.00">N₁ ∈ ℂ</text>
</a>
</g>
</g>
<!-- c_0_66&#45;&gt;c_0_101 -->
<g id="edge1" class="edge">
<title>c_0_66&#45;&gt;c_0_101</title>
<path fill="none" stroke="black" d="M221.25,-120.33C221.25,-105.86 221.25,-76 221.25,-76 221.25,-76 165.66,-76 165.66,-76"/>
<polygon fill="black" stroke="black" points="165.66,-72.5 155.66,-76 165.66,-79.5 165.66,-72.5"/>
</g>
<!-- cc2_xcmplx_0 -->
<g id="node2" class="node">
<title>cc2_xcmplx_0</title>
<g id="a_node2"><a xlink:href="cc2_xcmplx_0.html" xlink:title="cc2_xcmplx_0" target="_vizar">
<polygon fill="#69d2e7" stroke="#7f7542" points="81,-120.5 81,-135.5 179,-135.5 179,-120.5 81,-120.5"/>
<text text-anchor="middle" x="130" y="-124.3" font-family="Times,serif" font-size="14.00">cc2_xcmplx_0</text>
</a>
</g>
</g>
<!-- cc2_xcmplx_0&#45;&gt;c_0_101 -->
<g id="edge2" class="edge">
<title>cc2_xcmplx_0&#45;&gt;c_0_101</title>
<path fill="none" stroke="black" d="M131,-120.33C131,-120.33 131,-93.7 131,-93.7"/>
<polygon fill="black" stroke="black" points="134.5,-93.7 131,-83.7 127.5,-93.7 134.5,-93.7"/>
</g>
<!-- c_0_123 -->
<g id="node4" class="node">
<title>c_0_123</title>
<g id="a_node4"><a xlink:href="c_0_123.html" xlink:title="{lucas(sk₁) * fib(sk₁) ≠ fib(2 * sk₁)}" target="_vizar">
<polygon fill="#fa6900" stroke="#7f7542" points="16.5,-16.5 16.5,-31.5 245.5,-31.5 245.5,-16.5 16.5,-16.5"/>
<text text-anchor="middle" x="131" y="-20.3" font-family="Times,serif" font-size="14.00">lucas(sk₁) * fib(sk₁) ≠ fib(2 * sk₁)</text>
</a>
</g>
</g>
<!-- c_0_101&#45;&gt;c_0_123 -->
<g id="edge3" class="edge">
<title>c_0_101&#45;&gt;c_0_123</title>
<path fill="none" stroke="black" stroke-dasharray="5,2" d="M131,-68.33C131,-68.33 131,-41.7 131,-41.7"/>
<polygon fill="black" stroke="black" points="134.5,-41.7 131,-31.7 127.5,-41.7 134.5,-41.7"/>
</g>
</g>
</svg>
