<?xml version="1.0" encoding="UTF-8" standalone="no"?>
<!DOCTYPE svg PUBLIC "-//W3C//DTD SVG 1.1//EN"
 "http://www.w3.org/Graphics/SVG/1.1/DTD/svg11.dtd">
<!-- Generated by graphviz version 5.0.0 (0)
 -->
<!-- Title: proof Pages: 1 -->
<svg width="418pt" height="280pt"
 viewBox="0.00 0.00 418.00 280.00" xmlns="http://www.w3.org/2000/svg" xmlns:xlink="http://www.w3.org/1999/xlink">
<g id="graph0" class="graph" transform="scale(1 1) rotate(0) translate(4 276)">
<title>proof</title>
<g id="clust1" class="cluster">
<title>cluster_0</title>
<polygon fill="transparent" stroke="black" stroke-dasharray="1,5" points="8,-202 8,-264 402,-264 402,-202 8,-202"/>
</g>
<g id="clust2" class="cluster">
<title>cluster_1</title>
<polygon fill="transparent" stroke="black" stroke-width="2" points="75,-105 75,-182 335,-182 335,-105 75,-105"/>
</g>
<g id="clust3" class="cluster">
<title>cluster_2</title>
<polygon fill="transparent" stroke="black" stroke-dasharray="1,5" points="75,-8 75,-85 335,-85 335,-8 75,-8"/>
</g>
<!-- c_0_99 -->
<g id="node1" class="node">
<title>c_0_99</title>
<g id="a_node1"><a xlink:href="c_0_99.html" xlink:title="{X₁ ∈ ℕ|⇊|X₁ * C₂ = X₁ * C₂}" target="_parent">
<polygon fill="#f8edd1" stroke="#7f7542" points="278.5,-210.5 278.5,-255.5 393.5,-255.5 393.5,-210.5 278.5,-210.5"/>
<text text-anchor="middle" x="336" y="-244.3" font-family="Times,serif" font-size="14.00">X₁ ∈ ℕ</text>
<polyline fill="none" stroke="#7f7542" points="278.5,-240.5 393.5,-240.5 "/>
<text text-anchor="middle" x="336" y="-229.3" font-family="Times,serif" font-size="14.00">⇊</text>
<polyline fill="none" stroke="#7f7542" points="278.5,-225.5 393.5,-225.5 "/>
<text text-anchor="middle" x="336" y="-214.3" font-family="Times,serif" font-size="14.00">X₁ * C₂ = X₁ * C₂</text>
</a>
</g>
</g>
<!-- c_0_110 -->
<g id="node3" class="node">
<title>c_0_110</title>
<g id="a_node3"><a xlink:href="c_0_110.html" xlink:title="{Fib(sk₁) * Lucas(sk₁) = Fib(2 * sk₁)|Fib(sk₁) ∈ ℕ|⇊|⊥}" target="_parent">
<polygon fill="#fa6900" stroke="#7f7542" points="83,-113.5 83,-173.5 327,-173.5 327,-113.5 83,-113.5"/>
<text text-anchor="middle" x="205" y="-162.3" font-family="Times,serif" font-size="14.00">Fib(sk₁) * Lucas(sk₁) = Fib(2 * sk₁)</text>
<polyline fill="none" stroke="#7f7542" points="83,-158.5 327,-158.5 "/>
<text text-anchor="middle" x="205" y="-147.3" font-family="Times,serif" font-size="14.00">Fib(sk₁) ∈ ℕ</text>
<polyline fill="none" stroke="#7f7542" points="83,-143.5 327,-143.5 "/>
<text text-anchor="middle" x="205" y="-132.3" font-family="Times,serif" font-size="14.00">⇊</text>
<polyline fill="none" stroke="#7f7542" points="83,-128.5 327,-128.5 "/>
<text text-anchor="middle" x="205" y="-117.3" font-family="Times,serif" font-size="14.00">⊥</text>
</a>
</g>
</g>
<!-- c_0_99&#45;&gt;c_0_110 -->
<g id="edge1" class="edge">
<title>c_0_99&#45;&gt;c_0_110</title>
<path fill="none" stroke="black" d="M302.75,-210.42C302.75,-210.42 302.75,-183.52 302.75,-183.52"/>
<polygon fill="black" stroke="black" points="306.25,-183.52 302.75,-173.52 299.25,-183.52 306.25,-183.52"/>
</g>
<!-- c_0_98 -->
<g id="node2" class="node">
<title>c_0_98</title>
<g id="a_node2"><a xlink:href="c_0_98.html" xlink:title="{Fib(2 * sk₁) ≠ Fib(sk₁) * Lucas(sk₁)}" target="_parent">
<polygon fill="#fa6900" stroke="#7f7542" points="16,-225.5 16,-240.5 260,-240.5 260,-225.5 16,-225.5"/>
<text text-anchor="middle" x="138" y="-229.3" font-family="Times,serif" font-size="14.00">Fib(2 * sk₁) ≠ Fib(sk₁) * Lucas(sk₁)</text>
</a>
</g>
</g>
<!-- c_0_98&#45;&gt;c_0_110 -->
<g id="edge2" class="edge">
<title>c_0_98&#45;&gt;c_0_110</title>
<path fill="none" stroke="black" d="M171.5,-225.37C171.5,-225.37 171.5,-183.84 171.5,-183.84"/>
<polygon fill="black" stroke="black" points="175,-183.84 171.5,-173.84 168,-183.84 175,-183.84"/>
</g>
<!-- c_0_123 -->
<g id="node4" class="node">
<title>c_0_123</title>
<g id="a_node4"><a xlink:href="c_0_123.html" xlink:title="{Fib(sk₁) ∈ ℕ|Lucas(sk₁) * Fib(sk₁) = Fib(2 * sk₁)|⇊|⊥}" target="_parent">
<polygon fill="#fa6900" stroke="#7f7542" points="83,-16.5 83,-76.5 327,-76.5 327,-16.5 83,-16.5"/>
<text text-anchor="middle" x="205" y="-65.3" font-family="Times,serif" font-size="14.00">Fib(sk₁) ∈ ℕ</text>
<polyline fill="none" stroke="#7f7542" points="83,-61.5 327,-61.5 "/>
<text text-anchor="middle" x="205" y="-50.3" font-family="Times,serif" font-size="14.00">Lucas(sk₁) * Fib(sk₁) = Fib(2 * sk₁)</text>
<polyline fill="none" stroke="#7f7542" points="83,-46.5 327,-46.5 "/>
<text text-anchor="middle" x="205" y="-35.3" font-family="Times,serif" font-size="14.00">⇊</text>
<polyline fill="none" stroke="#7f7542" points="83,-31.5 327,-31.5 "/>
<text text-anchor="middle" x="205" y="-20.3" font-family="Times,serif" font-size="14.00">⊥</text>
</a>
</g>
</g>
<!-- c_0_110&#45;&gt;c_0_123 -->
<g id="edge3" class="edge">
<title>c_0_110&#45;&gt;c_0_123</title>
<path fill="none" stroke="black" stroke-dasharray="5,2" d="M205,-113.34C205,-113.34 205,-86.64 205,-86.64"/>
<polygon fill="black" stroke="black" points="208.5,-86.64 205,-76.64 201.5,-86.64 208.5,-86.64"/>
</g>
</g>
</svg>
