<?xml version="1.0" encoding="UTF-8" standalone="no"?>
<!DOCTYPE svg PUBLIC "-//W3C//DTD SVG 1.1//EN"
 "http://www.w3.org/Graphics/SVG/1.1/DTD/svg11.dtd">
<!-- Generated by graphviz version 5.0.0 (0)
 -->
<!-- Title: proof Pages: 1 -->
<svg width="369pt" height="108pt"
 viewBox="0.00 0.00 369.00 108.00" xmlns="http://www.w3.org/2000/svg" xmlns:xlink="http://www.w3.org/1999/xlink">
<g id="graph0" class="graph" transform="scale(1 1) rotate(0) translate(4 104)">
<title>proof</title>
<g id="clust1" class="cluster">
<title>cluster_0</title>
<polygon fill="transparent" stroke="black" stroke-dasharray="1,5" points="8,-60 8,-92 353,-92 353,-60 8,-60"/>
</g>
<g id="clust2" class="cluster">
<title>cluster_1</title>
<polygon fill="transparent" stroke="black" stroke-width="2" points="137,-8 137,-40 167,-40 167,-8 137,-8"/>
</g>
<!-- c_0_154 -->
<g id="node1" class="node">
<title>c_0_154</title>
<g id="a_node1"><a xlink:href="c_0_154.html" xlink:title="{R₁ ^ R₂ ∈ ℝ}" target="_vizar">
<polygon fill="#f8edd1" stroke="#7f7542" points="259.5,-68.5 259.5,-83.5 344.5,-83.5 344.5,-68.5 259.5,-68.5"/>
<text text-anchor="middle" x="302" y="-72.3" font-family="Times,serif" font-size="14.00">R₁ ^ R₂ ∈ ℝ</text>
</a>
</g>
</g>
<!-- c_0_157 -->
<g id="node5" class="node">
<title>c_0_157</title>
<g id="a_node5"><a xlink:href="c_0_157.html" xlink:title="⊥" target="_vizar">
<polygon fill="#fa6900" stroke="#7f7542" points="145,-16.5 145,-31.5 159,-31.5 159,-16.5 145,-16.5"/>
<text text-anchor="middle" x="152" y="-20.3" font-family="Times,serif" font-size="14.00">⊥</text>
</a>
</g>
</g>
<!-- c_0_154&#45;&gt;c_0_157 -->
<g id="edge1" class="edge">
<title>c_0_154&#45;&gt;c_0_157</title>
<path fill="none" stroke="black" d="M302,-68.33C302,-53.86 302,-24 302,-24 302,-24 169.23,-24 169.23,-24"/>
<polygon fill="black" stroke="black" points="169.23,-20.5 159.23,-24 169.23,-27.5 169.23,-20.5"/>
</g>
<!-- c_0_156 -->
<g id="node2" class="node">
<title>c_0_156</title>
<g id="a_node2"><a xlink:href="c_0_156.html" xlink:title="{τ⁺ ^ sk₁ ∉ ℝ}" target="_vizar">
<polygon fill="#fa6900" stroke="#7f7542" points="152.5,-68.5 152.5,-83.5 241.5,-83.5 241.5,-68.5 152.5,-68.5"/>
<text text-anchor="middle" x="197" y="-72.3" font-family="Times,serif" font-size="14.00">τ⁺ ^ sk₁ ∉ ℝ</text>
</a>
</g>
</g>
<!-- c_0_156&#45;&gt;c_0_157 -->
<g id="edge2" class="edge">
<title>c_0_156&#45;&gt;c_0_157</title>
<path fill="none" stroke="black" d="M152.27,-78C150.83,-78 150,-78 150,-78 150,-78 150,-41.51 150,-41.51"/>
<polygon fill="black" stroke="black" points="153.5,-41.51 150,-31.51 146.5,-41.51 153.5,-41.51"/>
</g>
<!-- c_0_155 -->
<g id="node3" class="node">
<title>c_0_155</title>
<g id="a_node3"><a xlink:href="c_0_155.html" xlink:title="{sk₁ ∈ ℝ}" target="_vizar">
<polygon fill="#fa6900" stroke="#7f7542" points="81.5,-68.5 81.5,-83.5 134.5,-83.5 134.5,-68.5 81.5,-68.5"/>
<text text-anchor="middle" x="108" y="-72.3" font-family="Times,serif" font-size="14.00">sk₁ ∈ ℝ</text>
</a>
</g>
</g>
<!-- c_0_155&#45;&gt;c_0_157 -->
<g id="edge3" class="edge">
<title>c_0_155&#45;&gt;c_0_157</title>
<path fill="none" stroke="black" d="M134.57,-73C141.71,-73 147.5,-73 147.5,-73 147.5,-73 147.5,-41.66 147.5,-41.66"/>
<polygon fill="black" stroke="black" points="151,-41.66 147.5,-31.66 144,-41.66 151,-41.66"/>
</g>
<!-- c_0_72 -->
<g id="node4" class="node">
<title>c_0_72</title>
<g id="a_node4"><a xlink:href="c_0_72.html" xlink:title="{τ⁺ ∈ ℝ}" target="_vizar">
<polygon fill="#f8edd1" stroke="#7f7542" points="16.5,-68.5 16.5,-83.5 63.5,-83.5 63.5,-68.5 16.5,-68.5"/>
<text text-anchor="middle" x="40" y="-72.3" font-family="Times,serif" font-size="14.00">τ⁺ ∈ ℝ</text>
</a>
</g>
</g>
<!-- c_0_72&#45;&gt;c_0_157 -->
<g id="edge4" class="edge">
<title>c_0_72&#45;&gt;c_0_157</title>
<path fill="none" stroke="black" d="M40,-68.33C40,-53.86 40,-24 40,-24 40,-24 134.99,-24 134.99,-24"/>
<polygon fill="black" stroke="black" points="134.99,-27.5 144.99,-24 134.99,-20.5 134.99,-27.5"/>
</g>
</g>
</svg>
