<?xml version="1.0" encoding="UTF-8" standalone="no"?>
<!DOCTYPE svg PUBLIC "-//W3C//DTD SVG 1.1//EN"
 "http://www.w3.org/Graphics/SVG/1.1/DTD/svg11.dtd">
<!-- Generated by graphviz version 5.0.0 (0)
 -->
<!-- Title: proof Pages: 1 -->
<svg width="286pt" height="205pt"
 viewBox="0.00 0.00 286.00 205.00" xmlns="http://www.w3.org/2000/svg" xmlns:xlink="http://www.w3.org/1999/xlink">
<g id="graph0" class="graph" transform="scale(1 1) rotate(0) translate(4 201)">
<title>proof</title>
<g id="clust1" class="cluster">
<title>cluster_0</title>
<polygon fill="transparent" stroke="black" stroke-dasharray="1,5" points="8,-112 8,-189 270,-189 270,-112 8,-112"/>
</g>
<g id="clust2" class="cluster">
<title>cluster_1</title>
<polygon fill="transparent" stroke="black" stroke-width="2" points="113,-60 113,-92 227,-92 227,-60 113,-60"/>
</g>
<g id="clust3" class="cluster">
<title>cluster_2</title>
<polygon fill="transparent" stroke="black" stroke-dasharray="1,5" points="155,-8 155,-40 185,-40 185,-8 155,-8"/>
</g>
<!-- c_0_126 -->
<g id="node1" class="node">
<title>c_0_126</title>
<g id="a_node1"><a xlink:href="c_0_126.html" xlink:title="{X₁ ⊆ ℕ|X₂ ∈ X₁|⇊|X₂ ∈ ℕ}" target="_vizar">
<polygon fill="#f8edd1" stroke="#7f7542" points="212,-120.5 212,-180.5 262,-180.5 262,-120.5 212,-120.5"/>
<text text-anchor="middle" x="237" y="-169.3" font-family="Times,serif" font-size="14.00">X₁ ⊆ ℕ</text>
<polyline fill="none" stroke="#7f7542" points="212,-165.5 262,-165.5 "/>
<text text-anchor="middle" x="237" y="-154.3" font-family="Times,serif" font-size="14.00">X₂ ∈ X₁</text>
<polyline fill="none" stroke="#7f7542" points="212,-150.5 262,-150.5 "/>
<text text-anchor="middle" x="237" y="-139.3" font-family="Times,serif" font-size="14.00">⇊</text>
<polyline fill="none" stroke="#7f7542" points="212,-135.5 262,-135.5 "/>
<text text-anchor="middle" x="237" y="-124.3" font-family="Times,serif" font-size="14.00">X₂ ∈ ℕ</text>
</a>
</g>
</g>
<!-- c_0_135 -->
<g id="node4" class="node">
<title>c_0_135</title>
<g id="a_node4"><a xlink:href="c_0_135.html" xlink:title="{lucas(N₁) ∈ ℕ}" target="_vizar">
<polygon fill="#f8edd1" stroke="#7f7542" points="121.5,-68.5 121.5,-83.5 218.5,-83.5 218.5,-68.5 121.5,-68.5"/>
<text text-anchor="middle" x="170" y="-72.3" font-family="Times,serif" font-size="14.00">lucas(N₁) ∈ ℕ</text>
</a>
</g>
</g>
<!-- c_0_126&#45;&gt;c_0_135 -->
<g id="edge1" class="edge">
<title>c_0_126&#45;&gt;c_0_135</title>
<path fill="none" stroke="black" d="M211.75,-131C206.62,-131 202.75,-131 202.75,-131 202.75,-131 202.75,-93.65 202.75,-93.65"/>
<polygon fill="black" stroke="black" points="206.25,-93.65 202.75,-83.65 199.25,-93.65 206.25,-93.65"/>
</g>
<!-- c_0_127 -->
<g id="node2" class="node">
<title>c_0_127</title>
<g id="a_node2"><a xlink:href="c_0_127.html" xlink:title="{ℕ ⊆ ℕ}" target="_vizar">
<polygon fill="#f8edd1" stroke="#7f7542" points="146.5,-143 146.5,-158 193.5,-158 193.5,-143 146.5,-143"/>
<text text-anchor="middle" x="170" y="-146.8" font-family="Times,serif" font-size="14.00">ℕ ⊆ ℕ</text>
</a>
</g>
</g>
<!-- c_0_127&#45;&gt;c_0_135 -->
<g id="edge2" class="edge">
<title>c_0_127&#45;&gt;c_0_135</title>
<path fill="none" stroke="black" d="M170,-142.81C170,-142.81 170,-93.76 170,-93.76"/>
<polygon fill="black" stroke="black" points="173.5,-93.76 170,-83.76 166.5,-93.76 173.5,-93.76"/>
</g>
<!-- dt_k1_fib_num3 -->
<g id="node3" class="node">
<title>dt_k1_fib_num3</title>
<g id="a_node3"><a xlink:href="dt_k1_fib_num3.html" xlink:title="dt_k1_fib_num3" target="_vizar">
<polygon fill="#69d2e7" stroke="#7f7542" points="16,-143 16,-158 128,-158 128,-143 16,-143"/>
<text text-anchor="middle" x="72" y="-146.8" font-family="Times,serif" font-size="14.00">dt_k1_fib_num3</text>
</a>
</g>
</g>
<!-- dt_k1_fib_num3&#45;&gt;c_0_135 -->
<g id="edge3" class="edge">
<title>dt_k1_fib_num3&#45;&gt;c_0_135</title>
<path fill="none" stroke="black" d="M128.18,-150C133.67,-150 137.25,-150 137.25,-150 137.25,-150 137.25,-93.64 137.25,-93.64"/>
<polygon fill="black" stroke="black" points="140.75,-93.64 137.25,-83.64 133.75,-93.64 140.75,-93.64"/>
</g>
<!-- c_0_157 -->
<g id="node5" class="node">
<title>c_0_157</title>
<g id="a_node5"><a xlink:href="c_0_157.html" xlink:title="⊥" target="_vizar">
<polygon fill="#fa6900" stroke="#7f7542" points="163,-16.5 163,-31.5 177,-31.5 177,-16.5 163,-16.5"/>
<text text-anchor="middle" x="170" y="-20.3" font-family="Times,serif" font-size="14.00">⊥</text>
</a>
</g>
</g>
<!-- c_0_135&#45;&gt;c_0_157 -->
<g id="edge4" class="edge">
<title>c_0_135&#45;&gt;c_0_157</title>
<path fill="none" stroke="black" stroke-dasharray="5,2" d="M170,-68.33C170,-68.33 170,-41.7 170,-41.7"/>
<polygon fill="black" stroke="black" points="173.5,-41.7 170,-31.7 166.5,-41.7 173.5,-41.7"/>
</g>
</g>
</svg>
