<?xml version="1.0" encoding="UTF-8" standalone="no"?>
<!DOCTYPE svg PUBLIC "-//W3C//DTD SVG 1.1//EN"
 "http://www.w3.org/Graphics/SVG/1.1/DTD/svg11.dtd">
<!-- Generated by graphviz version 5.0.0 (0)
 -->
<!-- Title: proof Pages: 1 -->
<svg width="130pt" height="205pt"
 viewBox="0.00 0.00 130.00 205.00" xmlns="http://www.w3.org/2000/svg" xmlns:xlink="http://www.w3.org/1999/xlink">
<g id="graph0" class="graph" transform="scale(1 1) rotate(0) translate(4 201)">
<title>proof</title>
<g id="clust1" class="cluster">
<title>cluster_0</title>
<polygon fill="transparent" stroke="black" stroke-dasharray="1,5" points="9,-157 9,-189 113,-189 113,-157 9,-157"/>
</g>
<g id="clust2" class="cluster">
<title>cluster_1</title>
<polygon fill="transparent" stroke="black" stroke-width="2" points="13,-105 13,-137 109,-137 109,-105 13,-105"/>
</g>
<g id="clust3" class="cluster">
<title>cluster_2</title>
<polygon fill="transparent" stroke="black" stroke-dasharray="1,5" points="8,-8 8,-85 114,-85 114,-8 8,-8"/>
</g>
<!-- dt_k1_pre_ff -->
<g id="node1" class="node">
<title>dt_k1_pre_ff</title>
<g id="a_node1"><a xlink:href="dt_k1_pre_ff.html" xlink:title="dt_k1_pre_ff" target="_vizar">
<polygon fill="#69d2e7" stroke="#7f7542" points="17.5,-165.5 17.5,-180.5 104.5,-180.5 104.5,-165.5 17.5,-165.5"/>
<text text-anchor="middle" x="61" y="-169.3" font-family="Times,serif" font-size="14.00">dt_k1_pre_ff</text>
</a>
</g>
</g>
<!-- c_0_146 -->
<g id="node2" class="node">
<title>c_0_146</title>
<g id="a_node2"><a xlink:href="c_0_146.html" xlink:title="{fib(N₁) ∈ ℕ}" target="_vizar">
<polygon fill="#f8edd1" stroke="#7f7542" points="21.5,-113.5 21.5,-128.5 100.5,-128.5 100.5,-113.5 21.5,-113.5"/>
<text text-anchor="middle" x="61" y="-117.3" font-family="Times,serif" font-size="14.00">fib(N₁) ∈ ℕ</text>
</a>
</g>
</g>
<!-- dt_k1_pre_ff&#45;&gt;c_0_146 -->
<g id="edge1" class="edge">
<title>dt_k1_pre_ff&#45;&gt;c_0_146</title>
<path fill="none" stroke="black" d="M61,-165.33C61,-165.33 61,-138.7 61,-138.7"/>
<polygon fill="black" stroke="black" points="64.5,-138.7 61,-128.7 57.5,-138.7 64.5,-138.7"/>
</g>
<!-- c_0_149 -->
<g id="node3" class="node">
<title>c_0_149</title>
<g id="a_node3"><a xlink:href="c_0_149.html" xlink:title="{τ⁻ ^ sk₁ ∈ ℝ|√5 ∈ ℂ|⇊|τ⁺ ^ sk₁ ∉ ℝ}" target="_vizar">
<polygon fill="#fa6900" stroke="#7f7542" points="16.5,-16.5 16.5,-76.5 105.5,-76.5 105.5,-16.5 16.5,-16.5"/>
<text text-anchor="middle" x="61" y="-65.3" font-family="Times,serif" font-size="14.00">τ⁻ ^ sk₁ ∈ ℝ</text>
<polyline fill="none" stroke="#7f7542" points="16.5,-61.5 105.5,-61.5 "/>
<text text-anchor="middle" x="61" y="-50.3" font-family="Times,serif" font-size="14.00">√5 ∈ ℂ</text>
<polyline fill="none" stroke="#7f7542" points="16.5,-46.5 105.5,-46.5 "/>
<text text-anchor="middle" x="61" y="-35.3" font-family="Times,serif" font-size="14.00">⇊</text>
<polyline fill="none" stroke="#7f7542" points="16.5,-31.5 105.5,-31.5 "/>
<text text-anchor="middle" x="61" y="-20.3" font-family="Times,serif" font-size="14.00">τ⁺ ^ sk₁ ∉ ℝ</text>
</a>
</g>
</g>
<!-- c_0_146&#45;&gt;c_0_149 -->
<g id="edge2" class="edge">
<title>c_0_146&#45;&gt;c_0_149</title>
<path fill="none" stroke="black" stroke-dasharray="5,2" d="M61,-113.31C61,-113.31 61,-86.51 61,-86.51"/>
<polygon fill="black" stroke="black" points="64.5,-86.51 61,-76.51 57.5,-86.51 64.5,-86.51"/>
</g>
</g>
</svg>
