<?xml version="1.0" encoding="UTF-8" standalone="no"?>
<!DOCTYPE svg PUBLIC "-//W3C//DTD SVG 1.1//EN"
 "http://www.w3.org/Graphics/SVG/1.1/DTD/svg11.dtd">
<!-- Generated by graphviz version 5.0.0 (0)
 -->
<!-- Title: proof Pages: 1 -->
<svg width="712pt" height="190pt"
 viewBox="0.00 0.00 712.00 190.00" xmlns="http://www.w3.org/2000/svg" xmlns:xlink="http://www.w3.org/1999/xlink">
<g id="graph0" class="graph" transform="scale(1 1) rotate(0) translate(4 186)">
<title>proof</title>
<g id="clust1" class="cluster">
<title>cluster_0</title>
<polygon fill="transparent" stroke="black" stroke-dasharray="1,5" points="8,-142 8,-174 648,-174 648,-142 8,-142"/>
</g>
<g id="clust2" class="cluster">
<title>cluster_1</title>
<polygon fill="transparent" stroke="black" stroke-width="2" points="28,-90 28,-122 696,-122 696,-90 28,-90"/>
</g>
<g id="clust3" class="cluster">
<title>cluster_2</title>
<polygon fill="transparent" stroke="black" stroke-dasharray="1,5" points="126,-8 126,-70 598,-70 598,-8 126,-8"/>
</g>
<!-- c_0_79 -->
<g id="node1" class="node">
<title>c_0_79</title>
<g id="a_node1"><a xlink:href="c_0_79.html" xlink:title="{lucas(N₁) = (½(1+√5) ^ N₁) + (½(1&#45;√5) ^ N₁)}" target="_vizar">
<polygon fill="#f8edd1" stroke="#7f7542" points="316.5,-150.5 316.5,-165.5 639.5,-165.5 639.5,-150.5 316.5,-150.5"/>
<text text-anchor="middle" x="478" y="-154.3" font-family="Times,serif" font-size="14.00">lucas(N₁) = (½(1+√5) ^ N₁) + (½(1&#45;√5) ^ N₁)</text>
</a>
</g>
</g>
<!-- c_0_85 -->
<g id="node3" class="node">
<title>c_0_85</title>
<g id="a_node3"><a xlink:href="c_0_85.html" xlink:title="{lucas(N₁) * ((½(1+√5) ^ N₁) &#45; (½(1&#45;√5) ^ N₁)) = ((½(1+√5) ^ N₁) ^ 2) &#45; ((½(1&#45;√5) ^ N₁) ^ 2)}" target="_vizar">
<polygon fill="#f8edd1" stroke="#7f7542" points="36,-98.5 36,-113.5 688,-113.5 688,-98.5 36,-98.5"/>
<text text-anchor="middle" x="362" y="-102.3" font-family="Times,serif" font-size="14.00">lucas(N₁) * ((½(1+√5) ^ N₁) &#45; (½(1&#45;√5) ^ N₁)) = ((½(1+√5) ^ N₁) ^ 2) &#45; ((½(1&#45;√5) ^ N₁) ^ 2)</text>
</a>
</g>
</g>
<!-- c_0_79&#45;&gt;c_0_85 -->
<g id="edge1" class="edge">
<title>c_0_79&#45;&gt;c_0_85</title>
<path fill="none" stroke="black" d="M478,-150.33C478,-150.33 478,-123.7 478,-123.7"/>
<polygon fill="black" stroke="black" points="481.5,-123.7 478,-113.7 474.5,-123.7 481.5,-123.7"/>
</g>
<!-- c_0_78 -->
<g id="node2" class="node">
<title>c_0_78</title>
<g id="a_node2"><a xlink:href="c_0_78.html" xlink:title="{(R₁ + R₂) * (R₁ &#45; R₂) = (R₁ ^ 2) &#45; (R₂ ^ 2)}" target="_vizar">
<polygon fill="#f8edd1" stroke="#7f7542" points="16,-150.5 16,-165.5 298,-165.5 298,-150.5 16,-150.5"/>
<text text-anchor="middle" x="157" y="-154.3" font-family="Times,serif" font-size="14.00">(R₁ + R₂) * (R₁ &#45; R₂) = (R₁ ^ 2) &#45; (R₂ ^ 2)</text>
</a>
</g>
</g>
<!-- c_0_78&#45;&gt;c_0_85 -->
<g id="edge2" class="edge">
<title>c_0_78&#45;&gt;c_0_85</title>
<path fill="none" stroke="black" d="M167,-150.33C167,-150.33 167,-123.7 167,-123.7"/>
<polygon fill="black" stroke="black" points="170.5,-123.7 167,-113.7 163.5,-123.7 170.5,-123.7"/>
</g>
<!-- c_0_93 -->
<g id="node4" class="node">
<title>c_0_93</title>
<g id="a_node4"><a xlink:href="c_0_93.html" xlink:title="{X₁ ∈ ℕ|⇊|(lucas(X₁) * ((½(1+√5) ^ X₁) &#45; (½(1&#45;√5) ^ X₁))) / (√5) = fib(X₁ * 2)}" target="_vizar">
<polygon fill="#f8edd1" stroke="#7f7542" points="134,-16.5 134,-61.5 590,-61.5 590,-16.5 134,-16.5"/>
<text text-anchor="middle" x="362" y="-50.3" font-family="Times,serif" font-size="14.00">X₁ ∈ ℕ</text>
<polyline fill="none" stroke="#7f7542" points="134,-46.5 590,-46.5 "/>
<text text-anchor="middle" x="362" y="-35.3" font-family="Times,serif" font-size="14.00">⇊</text>
<polyline fill="none" stroke="#7f7542" points="134,-31.5 590,-31.5 "/>
<text text-anchor="middle" x="362" y="-20.3" font-family="Times,serif" font-size="14.00">(lucas(X₁) * ((½(1+√5) ^ X₁) &#45; (½(1&#45;√5) ^ X₁))) / (√5) = fib(X₁ * 2)</text>
</a>
</g>
</g>
<!-- c_0_85&#45;&gt;c_0_93 -->
<g id="edge3" class="edge">
<title>c_0_85&#45;&gt;c_0_93</title>
<path fill="none" stroke="black" stroke-dasharray="5,2" d="M362,-98.31C362,-98.31 362,-71.76 362,-71.76"/>
<polygon fill="black" stroke="black" points="365.5,-71.76 362,-61.76 358.5,-71.76 365.5,-71.76"/>
</g>
</g>
</svg>
