<?xml version="1.0" encoding="UTF-8" standalone="no"?>
<!DOCTYPE svg PUBLIC "-//W3C//DTD SVG 1.1//EN"
 "http://www.w3.org/Graphics/SVG/1.1/DTD/svg11.dtd">
<!-- Generated by graphviz version 5.0.0 (0)
 -->
<!-- Title: proof Pages: 1 -->
<svg width="1282pt" height="265pt"
 viewBox="0.00 0.00 1282.00 265.00" xmlns="http://www.w3.org/2000/svg" xmlns:xlink="http://www.w3.org/1999/xlink">
<g id="graph0" class="graph" transform="scale(1 1) rotate(0) translate(4 261)">
<title>proof</title>
<g id="clust1" class="cluster">
<title>cluster_0</title>
<polygon fill="transparent" stroke="black" stroke-dasharray="1,5" points="8,-187 8,-249 1266,-249 1266,-187 8,-187"/>
</g>
<g id="clust2" class="cluster">
<title>cluster_1</title>
<polygon fill="transparent" stroke="black" stroke-width="2" points="181,-105 181,-167 409,-167 409,-105 181,-105"/>
</g>
<g id="clust3" class="cluster">
<title>cluster_2</title>
<polygon fill="transparent" stroke="black" stroke-dasharray="1,5" points="202,-8 202,-85 388,-85 388,-8 202,-8"/>
</g>
<!-- c_0_102 -->
<g id="node1" class="node">
<title>c_0_102</title>
<g id="a_node1"><a xlink:href="c_0_102.html" xlink:title="{X₁ ∈ ℕ|⇊|lucas(X₁) * (((½(1+√5) ^ X₁) &#45; (½(1&#45;√5) ^ X₁)) / (√5)) = fib(X₁ * 2)}" target="_vizar">
<polygon fill="#f8edd1" stroke="#7f7542" points="802,-195.5 802,-240.5 1258,-240.5 1258,-195.5 802,-195.5"/>
<text text-anchor="middle" x="1030" y="-229.3" font-family="Times,serif" font-size="14.00">X₁ ∈ ℕ</text>
<polyline fill="none" stroke="#7f7542" points="802,-225.5 1258,-225.5 "/>
<text text-anchor="middle" x="1030" y="-214.3" font-family="Times,serif" font-size="14.00">⇊</text>
<polyline fill="none" stroke="#7f7542" points="802,-210.5 1258,-210.5 "/>
<text text-anchor="middle" x="1030" y="-199.3" font-family="Times,serif" font-size="14.00">lucas(X₁) * (((½(1+√5) ^ X₁) &#45; (½(1&#45;√5) ^ X₁)) / (√5)) = fib(X₁ * 2)</text>
</a>
</g>
</g>
<!-- c_0_113 -->
<g id="node8" class="node">
<title>c_0_113</title>
<g id="a_node8"><a xlink:href="c_0_113.html" xlink:title="{X₁ ∈ ℕ|⇊|lucas(X₁) * fib(X₁) = fib(X₁ * 2)}" target="_vizar">
<polygon fill="#f8edd1" stroke="#7f7542" points="189.5,-113.5 189.5,-158.5 400.5,-158.5 400.5,-113.5 189.5,-113.5"/>
<text text-anchor="middle" x="295" y="-147.3" font-family="Times,serif" font-size="14.00">X₁ ∈ ℕ</text>
<polyline fill="none" stroke="#7f7542" points="189.5,-143.5 400.5,-143.5 "/>
<text text-anchor="middle" x="295" y="-132.3" font-family="Times,serif" font-size="14.00">⇊</text>
<polyline fill="none" stroke="#7f7542" points="189.5,-128.5 400.5,-128.5 "/>
<text text-anchor="middle" x="295" y="-117.3" font-family="Times,serif" font-size="14.00">lucas(X₁) * fib(X₁) = fib(X₁ * 2)</text>
</a>
</g>
</g>
<!-- c_0_102&#45;&gt;c_0_113 -->
<g id="edge1" class="edge">
<title>c_0_102&#45;&gt;c_0_113</title>
<path fill="none" stroke="black" d="M801.57,-202C614.14,-202 379.5,-202 379.5,-202 379.5,-202 379.5,-168.71 379.5,-168.71"/>
<polygon fill="black" stroke="black" points="383,-168.71 379.5,-158.71 376,-168.71 383,-168.71"/>
</g>
<!-- c_0_114 -->
<g id="node2" class="node">
<title>c_0_114</title>
<g id="a_node2"><a xlink:href="c_0_114.html" xlink:title="{R₁ * R₂ ∈ ℂ}" target="_vizar">
<polygon fill="#f8edd1" stroke="#7f7542" points="704.5,-210.5 704.5,-225.5 783.5,-225.5 783.5,-210.5 704.5,-210.5"/>
<text text-anchor="middle" x="744" y="-214.3" font-family="Times,serif" font-size="14.00">R₁ * R₂ ∈ ℂ</text>
</a>
</g>
</g>
<!-- c_0_114&#45;&gt;c_0_113 -->
<g id="edge2" class="edge">
<title>c_0_114&#45;&gt;c_0_113</title>
<path fill="none" stroke="black" d="M744,-210.43C744,-190.13 744,-136 744,-136 744,-136 410.55,-136 410.55,-136"/>
<polygon fill="black" stroke="black" points="410.55,-132.5 400.55,-136 410.55,-139.5 410.55,-132.5"/>
</g>
<!-- c_0_103 -->
<g id="node3" class="node">
<title>c_0_103</title>
<g id="a_node3"><a xlink:href="c_0_103.html" xlink:title="{((½(1+√5) ^ N₁) &#45; (½(1&#45;√5) ^ N₁)) / (√5) = fib(N₁)}" target="_vizar">
<polygon fill="#f8edd1" stroke="#7f7542" points="337.5,-210.5 337.5,-225.5 686.5,-225.5 686.5,-210.5 337.5,-210.5"/>
<text text-anchor="middle" x="512" y="-214.3" font-family="Times,serif" font-size="14.00">((½(1+√5) ^ N₁) &#45; (½(1&#45;√5) ^ N₁)) / (√5) = fib(N₁)</text>
</a>
</g>
</g>
<!-- c_0_103&#45;&gt;c_0_113 -->
<g id="edge3" class="edge">
<title>c_0_103&#45;&gt;c_0_113</title>
<path fill="none" stroke="black" d="M358.5,-210.43C358.5,-210.43 358.5,-168.65 358.5,-168.65"/>
<polygon fill="black" stroke="black" points="362,-168.65 358.5,-158.65 355,-168.65 362,-168.65"/>
</g>
<!-- c_0_66 -->
<g id="node4" class="node">
<title>c_0_66</title>
<g id="a_node4"><a xlink:href="c_0_66.html" xlink:title="{X₁ ∈ ℕ|⇊|X₁ ∈ ℕ}" target="_vizar">
<polygon fill="#f8edd1" stroke="#7f7542" points="271,-195.5 271,-240.5 319,-240.5 319,-195.5 271,-195.5"/>
<text text-anchor="middle" x="295" y="-229.3" font-family="Times,serif" font-size="14.00">X₁ ∈ ℕ</text>
<polyline fill="none" stroke="#7f7542" points="271,-225.5 319,-225.5 "/>
<text text-anchor="middle" x="295" y="-214.3" font-family="Times,serif" font-size="14.00">⇊</text>
<polyline fill="none" stroke="#7f7542" points="271,-210.5 319,-210.5 "/>
<text text-anchor="middle" x="295" y="-199.3" font-family="Times,serif" font-size="14.00">X₁ ∈ ℕ</text>
</a>
</g>
</g>
<!-- c_0_66&#45;&gt;c_0_113 -->
<g id="edge4" class="edge">
<title>c_0_66&#45;&gt;c_0_113</title>
<path fill="none" stroke="black" d="M295,-195.16C295,-195.16 295,-168.72 295,-168.72"/>
<polygon fill="black" stroke="black" points="298.5,-168.72 295,-158.72 291.5,-168.72 298.5,-168.72"/>
</g>
<!-- c_0_86 -->
<g id="node5" class="node">
<title>c_0_86</title>
<g id="a_node5"><a xlink:href="c_0_86.html" xlink:title="{R₁ ∈ ℂ}" target="_vizar">
<polygon fill="#f8edd1" stroke="#7f7542" points="205.5,-210.5 205.5,-225.5 252.5,-225.5 252.5,-210.5 205.5,-210.5"/>
<text text-anchor="middle" x="229" y="-214.3" font-family="Times,serif" font-size="14.00">R₁ ∈ ℂ</text>
</a>
</g>
</g>
<!-- c_0_86&#45;&gt;c_0_113 -->
<g id="edge5" class="edge">
<title>c_0_86&#45;&gt;c_0_113</title>
<path fill="none" stroke="black" d="M229,-210.43C229,-210.43 229,-168.65 229,-168.65"/>
<polygon fill="black" stroke="black" points="232.5,-168.65 229,-158.65 225.5,-168.65 232.5,-168.65"/>
</g>
<!-- c_0_87 -->
<g id="node6" class="node">
<title>c_0_87</title>
<g id="a_node6"><a xlink:href="c_0_87.html" xlink:title="{R₁ &#45; R₂ ∈ ℝ}" target="_vizar">
<polygon fill="#f8edd1" stroke="#7f7542" points="110.5,-210.5 110.5,-225.5 187.5,-225.5 187.5,-210.5 110.5,-210.5"/>
<text text-anchor="middle" x="149" y="-214.3" font-family="Times,serif" font-size="14.00">R₁ &#45; R₂ ∈ ℝ</text>
</a>
</g>
</g>
<!-- c_0_87&#45;&gt;c_0_113 -->
<g id="edge6" class="edge">
<title>c_0_87&#45;&gt;c_0_113</title>
<path fill="none" stroke="black" d="M187.69,-218C193.45,-218 197.5,-218 197.5,-218 197.5,-218 197.5,-168.84 197.5,-168.84"/>
<polygon fill="black" stroke="black" points="201,-168.84 197.5,-158.84 194,-168.84 201,-168.84"/>
</g>
<!-- c_0_94 -->
<g id="node7" class="node">
<title>c_0_94</title>
<g id="a_node7"><a xlink:href="c_0_94.html" xlink:title="{R₁ &#45; R₂ ∈ ℂ}" target="_vizar">
<polygon fill="#f8edd1" stroke="#7f7542" points="16,-210.5 16,-225.5 92,-225.5 92,-210.5 16,-210.5"/>
<text text-anchor="middle" x="54" y="-214.3" font-family="Times,serif" font-size="14.00">R₁ &#45; R₂ ∈ ℂ</text>
</a>
</g>
</g>
<!-- c_0_94&#45;&gt;c_0_113 -->
<g id="edge7" class="edge">
<title>c_0_94&#45;&gt;c_0_113</title>
<path fill="none" stroke="black" d="M54,-210.43C54,-190.13 54,-136 54,-136 54,-136 179.29,-136 179.29,-136"/>
<polygon fill="black" stroke="black" points="179.29,-139.5 189.29,-136 179.29,-132.5 179.29,-139.5"/>
</g>
<!-- c_0_133 -->
<g id="node9" class="node">
<title>c_0_133</title>
<g id="a_node9"><a xlink:href="c_0_133.html" xlink:title="{fib(sk₁ * 2) = fib(2 * sk₁)|fib(sk₁) ∈ ℕ|⇊|⊥}" target="_vizar">
<polygon fill="#fa6900" stroke="#7f7542" points="210,-16.5 210,-76.5 380,-76.5 380,-16.5 210,-16.5"/>
<text text-anchor="middle" x="295" y="-65.3" font-family="Times,serif" font-size="14.00">fib(sk₁ * 2) = fib(2 * sk₁)</text>
<polyline fill="none" stroke="#7f7542" points="210,-61.5 380,-61.5 "/>
<text text-anchor="middle" x="295" y="-50.3" font-family="Times,serif" font-size="14.00">fib(sk₁) ∈ ℕ</text>
<polyline fill="none" stroke="#7f7542" points="210,-46.5 380,-46.5 "/>
<text text-anchor="middle" x="295" y="-35.3" font-family="Times,serif" font-size="14.00">⇊</text>
<polyline fill="none" stroke="#7f7542" points="210,-31.5 380,-31.5 "/>
<text text-anchor="middle" x="295" y="-20.3" font-family="Times,serif" font-size="14.00">⊥</text>
</a>
</g>
</g>
<!-- c_0_113&#45;&gt;c_0_133 -->
<g id="edge8" class="edge">
<title>c_0_113&#45;&gt;c_0_133</title>
<path fill="none" stroke="black" stroke-dasharray="5,2" d="M295,-113.42C295,-113.42 295,-86.52 295,-86.52"/>
<polygon fill="black" stroke="black" points="298.5,-86.52 295,-76.52 291.5,-86.52 298.5,-86.52"/>
</g>
</g>
</svg>
