<?xml version="1.0" encoding="UTF-8" standalone="no"?>
<!DOCTYPE svg PUBLIC "-//W3C//DTD SVG 1.1//EN"
 "http://www.w3.org/Graphics/SVG/1.1/DTD/svg11.dtd">
<!-- Generated by graphviz version 5.0.0 (0)
 -->
<!-- Title: proof Pages: 1 -->
<svg width="902pt" height="138pt"
 viewBox="0.00 0.00 902.00 138.00" xmlns="http://www.w3.org/2000/svg" xmlns:xlink="http://www.w3.org/1999/xlink">
<g id="graph0" class="graph" transform="scale(1 1) rotate(0) translate(4 134)">
<title>proof</title>
<g id="clust1" class="cluster">
<title>cluster_0</title>
<polygon fill="transparent" stroke="black" stroke-dasharray="1,5" points="8,-60 8,-122 886,-122 886,-60 8,-60"/>
</g>
<g id="clust2" class="cluster">
<title>cluster_1</title>
<polygon fill="transparent" stroke="black" stroke-width="2" points="443,-8 443,-40 473,-40 473,-8 443,-8"/>
</g>
<!-- c_0_155 -->
<g id="node1" class="node">
<title>c_0_155</title>
<g id="a_node1"><a xlink:href="c_0_155.html" xlink:title="{sk₁ ∈ ℝ}" target="_parent">
<polygon fill="#fa6900" stroke="#7f7542" points="824.5,-83.5 824.5,-98.5 877.5,-98.5 877.5,-83.5 824.5,-83.5"/>
<text text-anchor="middle" x="851" y="-87.3" font-family="Times,serif" font-size="14.00">sk₁ ∈ ℝ</text>
</a>
</g>
</g>
<!-- c_0_157 -->
<g id="node10" class="node">
<title>c_0_157</title>
<g id="a_node10"><a xlink:href="c_0_157.html" xlink:title="⊥" target="_parent">
<polygon fill="#fa6900" stroke="#7f7542" points="451,-16.5 451,-31.5 465,-31.5 465,-16.5 451,-16.5"/>
<text text-anchor="middle" x="458" y="-20.3" font-family="Times,serif" font-size="14.00">⊥</text>
</a>
</g>
</g>
<!-- c_0_155&#45;&gt;c_0_157 -->
<g id="edge1" class="edge">
<title>c_0_155&#45;&gt;c_0_157</title>
<path fill="none" stroke="black" d="M851,-83.29C851,-64.72 851,-19 851,-19 851,-19 475.16,-19 475.16,-19"/>
<polygon fill="black" stroke="black" points="475.16,-15.5 465.16,-19 475.16,-22.5 475.16,-15.5"/>
</g>
<!-- c_0_137 -->
<g id="node2" class="node">
<title>c_0_137</title>
<g id="a_node2"><a xlink:href="c_0_137.html" xlink:title="{¬ (Fib(sk₁) ∈ ℕ)}" target="_parent">
<polygon fill="#fa6900" stroke="#7f7542" points="691.5,-83.5 691.5,-98.5 806.5,-98.5 806.5,-83.5 691.5,-83.5"/>
<text text-anchor="middle" x="749" y="-87.3" font-family="Times,serif" font-size="14.00">¬ (Fib(sk₁) ∈ ℕ)</text>
</a>
</g>
</g>
<!-- c_0_137&#45;&gt;c_0_157 -->
<g id="edge2" class="edge">
<title>c_0_137&#45;&gt;c_0_157</title>
<path fill="none" stroke="black" d="M749,-83.35C749,-65.39 749,-22 749,-22 749,-22 475.19,-22 475.19,-22"/>
<polygon fill="black" stroke="black" points="475.19,-18.5 465.19,-22 475.19,-25.5 475.19,-18.5"/>
</g>
<!-- c_0_146 -->
<g id="node3" class="node">
<title>c_0_146</title>
<g id="a_node3"><a xlink:href="c_0_146.html" xlink:title="{Fib(C₁) ∈ ℕ}" target="_parent">
<polygon fill="#f8edd1" stroke="#7f7542" points="591,-83.5 591,-98.5 673,-98.5 673,-83.5 591,-83.5"/>
<text text-anchor="middle" x="632" y="-87.3" font-family="Times,serif" font-size="14.00">Fib(C₁) ∈ ℕ</text>
</a>
</g>
</g>
<!-- c_0_146&#45;&gt;c_0_157 -->
<g id="edge3" class="edge">
<title>c_0_146&#45;&gt;c_0_157</title>
<path fill="none" stroke="black" d="M632,-83.43C632,-66.09 632,-25 632,-25 632,-25 475.04,-25 475.04,-25"/>
<polygon fill="black" stroke="black" points="475.04,-21.5 465.04,-25 475.04,-28.5 475.04,-21.5"/>
</g>
<!-- c_0_116 -->
<g id="node4" class="node">
<title>c_0_116</title>
<g id="a_node4"><a xlink:href="c_0_116.html" xlink:title="{sk₁ ∈ ℕ}" target="_parent">
<polygon fill="#fa6900" stroke="#7f7542" points="519,-83.5 519,-98.5 573,-98.5 573,-83.5 519,-83.5"/>
<text text-anchor="middle" x="546" y="-87.3" font-family="Times,serif" font-size="14.00">sk₁ ∈ ℕ</text>
</a>
</g>
</g>
<!-- c_0_116&#45;&gt;c_0_157 -->
<g id="edge4" class="edge">
<title>c_0_116&#45;&gt;c_0_157</title>
<path fill="none" stroke="black" d="M546,-83.27C546,-66.45 546,-28 546,-28 546,-28 475.2,-28 475.2,-28"/>
<polygon fill="black" stroke="black" points="475.2,-24.5 465.2,-28 475.2,-31.5 475.2,-24.5"/>
</g>
<!-- c_0_54 -->
<g id="node5" class="node">
<title>c_0_54</title>
<g id="a_node5"><a xlink:href="c_0_54.html" xlink:title="{tau_bar ∈ ℝ}" target="_parent">
<polygon fill="#f8edd1" stroke="#7f7542" points="415,-83.5 415,-98.5 501,-98.5 501,-83.5 415,-83.5"/>
<text text-anchor="middle" x="458" y="-87.3" font-family="Times,serif" font-size="14.00">tau_bar ∈ ℝ</text>
</a>
</g>
</g>
<!-- c_0_54&#45;&gt;c_0_157 -->
<g id="edge5" class="edge">
<title>c_0_54&#45;&gt;c_0_157</title>
<path fill="none" stroke="black" d="M460.33,-83.31C460.33,-83.31 460.33,-41.6 460.33,-41.6"/>
<polygon fill="black" stroke="black" points="463.83,-41.6 460.33,-31.6 456.83,-41.6 463.83,-41.6"/>
</g>
<!-- c_0_72 -->
<g id="node6" class="node">
<title>c_0_72</title>
<g id="a_node6"><a xlink:href="c_0_72.html" xlink:title="{tau ∈ ℝ}" target="_parent">
<polygon fill="#f8edd1" stroke="#7f7542" points="341.5,-83.5 341.5,-98.5 396.5,-98.5 396.5,-83.5 341.5,-83.5"/>
<text text-anchor="middle" x="369" y="-87.3" font-family="Times,serif" font-size="14.00">tau ∈ ℝ</text>
</a>
</g>
</g>
<!-- c_0_72&#45;&gt;c_0_157 -->
<g id="edge6" class="edge">
<title>c_0_72&#45;&gt;c_0_157</title>
<path fill="none" stroke="black" d="M369,-83.27C369,-66.45 369,-28 369,-28 369,-28 440.72,-28 440.72,-28"/>
<polygon fill="black" stroke="black" points="440.72,-31.5 450.72,-28 440.72,-24.5 440.72,-31.5"/>
</g>
<!-- c_0_151 -->
<g id="node7" class="node">
<title>c_0_151</title>
<g id="a_node7"><a xlink:href="c_0_151.html" xlink:title="{5 ∈ ℝ}" target="_parent">
<polygon fill="#f8edd1" stroke="#7f7542" points="282.5,-83.5 282.5,-98.5 323.5,-98.5 323.5,-83.5 282.5,-83.5"/>
<text text-anchor="middle" x="303" y="-87.3" font-family="Times,serif" font-size="14.00">5 ∈ ℝ</text>
</a>
</g>
</g>
<!-- c_0_151&#45;&gt;c_0_157 -->
<g id="edge7" class="edge">
<title>c_0_151&#45;&gt;c_0_157</title>
<path fill="none" stroke="black" d="M303,-83.31C303,-65.72 303,-24 303,-24 303,-24 440.94,-24 440.94,-24"/>
<polygon fill="black" stroke="black" points="440.94,-27.5 450.94,-24 440.94,-20.5 440.94,-27.5"/>
</g>
<!-- c_0_150 -->
<g id="node8" class="node">
<title>c_0_150</title>
<g id="a_node8"><a xlink:href="c_0_150.html" xlink:title="{X₁ ∈ ℝ|⇊|sqrt(X₁) ∈ ℂ}" target="_parent">
<polygon fill="#f8edd1" stroke="#7f7542" points="178,-68.5 178,-113.5 264,-113.5 264,-68.5 178,-68.5"/>
<text text-anchor="middle" x="221" y="-102.3" font-family="Times,serif" font-size="14.00">X₁ ∈ ℝ</text>
<polyline fill="none" stroke="#7f7542" points="178,-98.5 264,-98.5 "/>
<text text-anchor="middle" x="221" y="-87.3" font-family="Times,serif" font-size="14.00">⇊</text>
<polyline fill="none" stroke="#7f7542" points="178,-83.5 264,-83.5 "/>
<text text-anchor="middle" x="221" y="-72.3" font-family="Times,serif" font-size="14.00">sqrt(X₁) ∈ ℂ</text>
</a>
</g>
</g>
<!-- c_0_150&#45;&gt;c_0_157 -->
<g id="edge8" class="edge">
<title>c_0_150&#45;&gt;c_0_157</title>
<path fill="none" stroke="black" d="M264.04,-75C331.79,-75 455.67,-75 455.67,-75 455.67,-75 455.67,-41.53 455.67,-41.53"/>
<polygon fill="black" stroke="black" points="459.17,-41.53 455.67,-31.53 452.17,-41.53 459.17,-41.53"/>
</g>
<!-- c_0_154 -->
<g id="node9" class="node">
<title>c_0_154</title>
<g id="a_node9"><a xlink:href="c_0_154.html" xlink:title="{to_power(R₁,R₂) ∈ ℝ}" target="_parent">
<polygon fill="#f8edd1" stroke="#7f7542" points="16,-83.5 16,-98.5 160,-98.5 160,-83.5 16,-83.5"/>
<text text-anchor="middle" x="88" y="-87.3" font-family="Times,serif" font-size="14.00">to_power(R₁,R₂) ∈ ℝ</text>
</a>
</g>
</g>
<!-- c_0_154&#45;&gt;c_0_157 -->
<g id="edge9" class="edge">
<title>c_0_154&#45;&gt;c_0_157</title>
<path fill="none" stroke="black" d="M88,-83.4C88,-65.09 88,-20 88,-20 88,-20 440.94,-20 440.94,-20"/>
<polygon fill="black" stroke="black" points="440.94,-23.5 450.94,-20 440.94,-16.5 440.94,-23.5"/>
</g>
</g>
</svg>
