<?xml version="1.0" encoding="UTF-8" standalone="no"?>
<!DOCTYPE svg PUBLIC "-//W3C//DTD SVG 1.1//EN"
 "http://www.w3.org/Graphics/SVG/1.1/DTD/svg11.dtd">
<!-- Generated by graphviz version 5.0.0 (0)
 -->
<!-- Title: proof Pages: 1 -->
<svg width="154pt" height="220pt"
 viewBox="0.00 0.00 154.00 220.00" xmlns="http://www.w3.org/2000/svg" xmlns:xlink="http://www.w3.org/1999/xlink">
<g id="graph0" class="graph" transform="scale(1 1) rotate(0) translate(4 216)">
<title>proof</title>
<g id="clust1" class="cluster">
<title>cluster_0</title>
<polygon fill="transparent" stroke="black" stroke-dasharray="1,5" points="13,-172 13,-204 121,-204 121,-172 13,-172"/>
</g>
<g id="clust2" class="cluster">
<title>cluster_1</title>
<polygon fill="transparent" stroke="black" stroke-width="2" points="35,-90 35,-152 99,-152 99,-90 35,-90"/>
</g>
<g id="clust3" class="cluster">
<title>cluster_2</title>
<polygon fill="transparent" stroke="black" stroke-dasharray="1,5" points="8,-8 8,-70 138,-70 138,-8 8,-8"/>
</g>
<!-- cc7_ordinal1 -->
<g id="node1" class="node">
<title>cc7_ordinal1</title>
<g id="a_node1"><a xlink:href="cc7_ordinal1.html" xlink:title="cc7_ordinal1" target="_vizar">
<polygon fill="#69d2e7" stroke="#7f7542" points="21.5,-180.5 21.5,-195.5 112.5,-195.5 112.5,-180.5 21.5,-180.5"/>
<text text-anchor="middle" x="67" y="-184.3" font-family="Times,serif" font-size="14.00">cc7_ordinal1</text>
</a>
</g>
</g>
<!-- c_0_51 -->
<g id="node2" class="node">
<title>c_0_51</title>
<g id="a_node2"><a xlink:href="c_0_51.html" xlink:title="{X₁ = Ø|⇊|X₁ ∈ ℕ}" target="_vizar">
<polygon fill="#f8edd1" stroke="#7f7542" points="43,-98.5 43,-143.5 91,-143.5 91,-98.5 43,-98.5"/>
<text text-anchor="middle" x="67" y="-132.3" font-family="Times,serif" font-size="14.00">X₁ = Ø</text>
<polyline fill="none" stroke="#7f7542" points="43,-128.5 91,-128.5 "/>
<text text-anchor="middle" x="67" y="-117.3" font-family="Times,serif" font-size="14.00">⇊</text>
<polyline fill="none" stroke="#7f7542" points="43,-113.5 91,-113.5 "/>
<text text-anchor="middle" x="67" y="-102.3" font-family="Times,serif" font-size="14.00">X₁ ∈ ℕ</text>
</a>
</g>
</g>
<!-- cc7_ordinal1&#45;&gt;c_0_51 -->
<g id="edge1" class="edge">
<title>cc7_ordinal1&#45;&gt;c_0_51</title>
<path fill="none" stroke="black" d="M67,-180.31C67,-180.31 67,-153.76 67,-153.76"/>
<polygon fill="black" stroke="black" points="70.5,-153.76 67,-143.76 63.5,-153.76 70.5,-153.76"/>
</g>
<!-- c_0_65 -->
<g id="node3" class="node">
<title>c_0_65</title>
<g id="a_node3"><a xlink:href="c_0_65.html" xlink:title="{τ⁻ ≠ Ø}" target="_vizar">
<polygon fill="#f8edd1" stroke="#7f7542" points="82,-31.5 82,-46.5 130,-46.5 130,-31.5 82,-31.5"/>
<text text-anchor="middle" x="106" y="-35.3" font-family="Times,serif" font-size="14.00">τ⁻ ≠ Ø</text>
</a>
</g>
</g>
<!-- c_0_51&#45;&gt;c_0_65 -->
<g id="edge2" class="edge">
<title>c_0_51&#45;&gt;c_0_65</title>
<path fill="none" stroke="black" stroke-dasharray="5,2" d="M86.5,-98.16C86.5,-98.16 86.5,-56.65 86.5,-56.65"/>
<polygon fill="black" stroke="black" points="90,-56.65 86.5,-46.65 83,-56.65 90,-56.65"/>
</g>
<!-- c_0_61 -->
<g id="node4" class="node">
<title>c_0_61</title>
<g id="a_node4"><a xlink:href="c_0_61.html" xlink:title="{X₁ = Ø|⇊|X₁ ∈ ℝ}" target="_vizar">
<polygon fill="#f8edd1" stroke="#7f7542" points="16,-16.5 16,-61.5 64,-61.5 64,-16.5 16,-16.5"/>
<text text-anchor="middle" x="40" y="-50.3" font-family="Times,serif" font-size="14.00">X₁ = Ø</text>
<polyline fill="none" stroke="#7f7542" points="16,-46.5 64,-46.5 "/>
<text text-anchor="middle" x="40" y="-35.3" font-family="Times,serif" font-size="14.00">⇊</text>
<polyline fill="none" stroke="#7f7542" points="16,-31.5 64,-31.5 "/>
<text text-anchor="middle" x="40" y="-20.3" font-family="Times,serif" font-size="14.00">X₁ ∈ ℝ</text>
</a>
</g>
</g>
<!-- c_0_51&#45;&gt;c_0_61 -->
<g id="edge3" class="edge">
<title>c_0_51&#45;&gt;c_0_61</title>
<path fill="none" stroke="black" stroke-dasharray="5,2" d="M53.5,-98.16C53.5,-98.16 53.5,-71.72 53.5,-71.72"/>
<polygon fill="black" stroke="black" points="57,-71.72 53.5,-61.72 50,-71.72 57,-71.72"/>
</g>
</g>
</svg>
