<?xml version="1.0" encoding="UTF-8" standalone="no"?>
<!DOCTYPE svg PUBLIC "-//W3C//DTD SVG 1.1//EN"
 "http://www.w3.org/Graphics/SVG/1.1/DTD/svg11.dtd">
<!-- Generated by graphviz version 5.0.0 (0)
 -->
<!-- Title: proof Pages: 1 -->
<svg width="132pt" height="220pt"
 viewBox="0.00 0.00 132.00 220.00" xmlns="http://www.w3.org/2000/svg" xmlns:xlink="http://www.w3.org/1999/xlink">
<g id="graph0" class="graph" transform="scale(1 1) rotate(0) translate(4 216)">
<title>proof</title>
<g id="clust1" class="cluster">
<title>cluster_0</title>
<polygon fill="transparent" stroke="black" stroke-dasharray="1,5" points="8,-172 8,-204 116,-204 116,-172 8,-172"/>
</g>
<g id="clust2" class="cluster">
<title>cluster_1</title>
<polygon fill="transparent" stroke="black" stroke-width="2" points="30,-90 30,-152 94,-152 94,-90 30,-90"/>
</g>
<g id="clust3" class="cluster">
<title>cluster_2</title>
<polygon fill="transparent" stroke="black" stroke-dasharray="1,5" points="30,-8 30,-70 94,-70 94,-8 30,-8"/>
</g>
<!-- cc8_ordinal1 -->
<g id="node1" class="node">
<title>cc8_ordinal1</title>
<g id="a_node1"><a xlink:href="cc8_ordinal1.html" xlink:title="cc8_ordinal1" target="_parent">
<polygon fill="#69d2e7" stroke="#7f7542" points="16.5,-180.5 16.5,-195.5 107.5,-195.5 107.5,-180.5 16.5,-180.5"/>
<text text-anchor="middle" x="62" y="-184.3" font-family="Times,serif" font-size="14.00">cc8_ordinal1</text>
</a>
</g>
</g>
<!-- c_0_57 -->
<g id="node2" class="node">
<title>c_0_57</title>
<g id="a_node2"><a xlink:href="c_0_57.html" xlink:title="{X₁ ∈ ω|⇊|X₁ ∈ ℕ}" target="_parent">
<polygon fill="#f8edd1" stroke="#7f7542" points="38,-98.5 38,-143.5 86,-143.5 86,-98.5 38,-98.5"/>
<text text-anchor="middle" x="62" y="-132.3" font-family="Times,serif" font-size="14.00">X₁ ∈ ω</text>
<polyline fill="none" stroke="#7f7542" points="38,-128.5 86,-128.5 "/>
<text text-anchor="middle" x="62" y="-117.3" font-family="Times,serif" font-size="14.00">⇊</text>
<polyline fill="none" stroke="#7f7542" points="38,-113.5 86,-113.5 "/>
<text text-anchor="middle" x="62" y="-102.3" font-family="Times,serif" font-size="14.00">X₁ ∈ ℕ</text>
</a>
</g>
</g>
<!-- cc8_ordinal1&#45;&gt;c_0_57 -->
<g id="edge1" class="edge">
<title>cc8_ordinal1&#45;&gt;c_0_57</title>
<path fill="none" stroke="black" d="M62,-180.31C62,-180.31 62,-153.76 62,-153.76"/>
<polygon fill="black" stroke="black" points="65.5,-153.76 62,-143.76 58.5,-153.76 65.5,-153.76"/>
</g>
<!-- c_0_66 -->
<g id="node3" class="node">
<title>c_0_66</title>
<g id="a_node3"><a xlink:href="c_0_66.html" xlink:title="{X₁ ∈ ℕ|⇊|X₁ ∈ ℕ}" target="_parent">
<polygon fill="#f8edd1" stroke="#7f7542" points="38,-16.5 38,-61.5 86,-61.5 86,-16.5 38,-16.5"/>
<text text-anchor="middle" x="62" y="-50.3" font-family="Times,serif" font-size="14.00">X₁ ∈ ℕ</text>
<polyline fill="none" stroke="#7f7542" points="38,-46.5 86,-46.5 "/>
<text text-anchor="middle" x="62" y="-35.3" font-family="Times,serif" font-size="14.00">⇊</text>
<polyline fill="none" stroke="#7f7542" points="38,-31.5 86,-31.5 "/>
<text text-anchor="middle" x="62" y="-20.3" font-family="Times,serif" font-size="14.00">X₁ ∈ ℕ</text>
</a>
</g>
</g>
<!-- c_0_57&#45;&gt;c_0_66 -->
<g id="edge2" class="edge">
<title>c_0_57&#45;&gt;c_0_66</title>
<path fill="none" stroke="black" stroke-dasharray="5,2" d="M62,-98.16C62,-98.16 62,-71.72 62,-71.72"/>
<polygon fill="black" stroke="black" points="65.5,-71.72 62,-61.72 58.5,-71.72 65.5,-71.72"/>
</g>
</g>
</svg>
