<?xml version="1.0" encoding="UTF-8" standalone="no"?>
<!DOCTYPE svg PUBLIC "-//W3C//DTD SVG 1.1//EN"
 "http://www.w3.org/Graphics/SVG/1.1/DTD/svg11.dtd">
<!-- Generated by graphviz version 5.0.0 (0)
 -->
<!-- Title: proof Pages: 1 -->
<svg width="134pt" height="160pt"
 viewBox="0.00 0.00 134.00 160.00" xmlns="http://www.w3.org/2000/svg" xmlns:xlink="http://www.w3.org/1999/xlink">
<g id="graph0" class="graph" transform="scale(1 1) rotate(0) translate(4 156)">
<title>proof</title>
<g id="clust1" class="cluster">
<title>cluster_0</title>
<polygon fill="transparent" stroke="black" stroke-dasharray="1,5" points="8,-112 8,-144 118,-144 118,-112 8,-112"/>
</g>
<g id="clust2" class="cluster">
<title>cluster_1</title>
<polygon fill="transparent" stroke="black" stroke-width="2" points="32,-60 32,-92 94,-92 94,-60 32,-60"/>
</g>
<g id="clust3" class="cluster">
<title>cluster_2</title>
<polygon fill="transparent" stroke="black" stroke-dasharray="1,5" points="31,-8 31,-40 95,-40 95,-8 31,-8"/>
</g>
<!-- fc1_fib_num3 -->
<g id="node1" class="node">
<title>fc1_fib_num3</title>
<g id="a_node1"><a xlink:href="fc1_fib_num3.html" xlink:title="fc1_fib_num3" target="_vizar">
<polygon fill="#69d2e7" stroke="#7f7542" points="16,-120.5 16,-135.5 110,-135.5 110,-120.5 16,-120.5"/>
<text text-anchor="middle" x="63" y="-124.3" font-family="Times,serif" font-size="14.00">fc1_fib_num3</text>
</a>
</g>
</g>
<!-- c_0_68 -->
<g id="node2" class="node">
<title>c_0_68</title>
<g id="a_node2"><a xlink:href="c_0_68.html" xlink:title="{τ⁺ &amp;gt; 0}" target="_vizar">
<polygon fill="#f8edd1" stroke="#7f7542" points="40,-68.5 40,-83.5 86,-83.5 86,-68.5 40,-68.5"/>
<text text-anchor="middle" x="63" y="-72.3" font-family="Times,serif" font-size="14.00">τ⁺ &gt; 0</text>
</a>
</g>
</g>
<!-- fc1_fib_num3&#45;&gt;c_0_68 -->
<g id="edge1" class="edge">
<title>fc1_fib_num3&#45;&gt;c_0_68</title>
<path fill="none" stroke="black" d="M63,-120.33C63,-120.33 63,-93.7 63,-93.7"/>
<polygon fill="black" stroke="black" points="66.5,-93.7 63,-83.7 59.5,-93.7 66.5,-93.7"/>
</g>
<!-- c_0_73 -->
<g id="node3" class="node">
<title>c_0_73</title>
<g id="a_node3"><a xlink:href="c_0_73.html" xlink:title="{τ⁺ ≠ Ø}" target="_vizar">
<polygon fill="#f8edd1" stroke="#7f7542" points="39,-16.5 39,-31.5 87,-31.5 87,-16.5 39,-16.5"/>
<text text-anchor="middle" x="63" y="-20.3" font-family="Times,serif" font-size="14.00">τ⁺ ≠ Ø</text>
</a>
</g>
</g>
<!-- c_0_68&#45;&gt;c_0_73 -->
<g id="edge2" class="edge">
<title>c_0_68&#45;&gt;c_0_73</title>
<path fill="none" stroke="black" stroke-dasharray="5,2" d="M63,-68.33C63,-68.33 63,-41.7 63,-41.7"/>
<polygon fill="black" stroke="black" points="66.5,-41.7 63,-31.7 59.5,-41.7 66.5,-41.7"/>
</g>
</g>
</svg>
