<?xml version="1.0" encoding="UTF-8" standalone="no"?>
<!DOCTYPE svg PUBLIC "-//W3C//DTD SVG 1.1//EN"
 "http://www.w3.org/Graphics/SVG/1.1/DTD/svg11.dtd">
<!-- Generated by graphviz version 5.0.0 (0)
 -->
<!-- Title: proof Pages: 1 -->
<svg width="1838pt" height="265pt"
 viewBox="0.00 0.00 1838.00 265.00" xmlns="http://www.w3.org/2000/svg" xmlns:xlink="http://www.w3.org/1999/xlink">
<g id="graph0" class="graph" transform="scale(1 1) rotate(0) translate(4 261)">
<title>proof</title>
<g id="clust1" class="cluster">
<title>cluster_0</title>
<polygon fill="transparent" stroke="black" stroke-dasharray="1,5" points="851,-187 851,-249 979,-249 979,-187 851,-187"/>
</g>
<g id="clust2" class="cluster">
<title>cluster_1</title>
<polygon fill="transparent" stroke="black" stroke-width="2" points="883,-105 883,-167 947,-167 947,-105 883,-105"/>
</g>
<g id="clust3" class="cluster">
<title>cluster_2</title>
<polygon fill="transparent" stroke="black" stroke-dasharray="1,5" points="8,-8 8,-85 1822,-85 1822,-8 8,-8"/>
</g>
<!-- c_0_57 -->
<g id="node1" class="node">
<title>c_0_57</title>
<g id="a_node1"><a xlink:href="c_0_57.html" xlink:title="{X₁ ∈ ω|⇊|X₁ ∈ ℕ}" target="_parent">
<polygon fill="#f8edd1" stroke="#7f7542" points="923,-195.5 923,-240.5 971,-240.5 971,-195.5 923,-195.5"/>
<text text-anchor="middle" x="947" y="-229.3" font-family="Times,serif" font-size="14.00">X₁ ∈ ω</text>
<polyline fill="none" stroke="#7f7542" points="923,-225.5 971,-225.5 "/>
<text text-anchor="middle" x="947" y="-214.3" font-family="Times,serif" font-size="14.00">⇊</text>
<polyline fill="none" stroke="#7f7542" points="923,-210.5 971,-210.5 "/>
<text text-anchor="middle" x="947" y="-199.3" font-family="Times,serif" font-size="14.00">X₁ ∈ ℕ</text>
</a>
</g>
</g>
<!-- c_0_66 -->
<g id="node3" class="node">
<title>c_0_66</title>
<g id="a_node3"><a xlink:href="c_0_66.html" xlink:title="{X₁ ∈ ℕ|⇊|X₁ ∈ ℕ}" target="_parent">
<polygon fill="#f8edd1" stroke="#7f7542" points="891,-113.5 891,-158.5 939,-158.5 939,-113.5 891,-113.5"/>
<text text-anchor="middle" x="915" y="-147.3" font-family="Times,serif" font-size="14.00">X₁ ∈ ℕ</text>
<polyline fill="none" stroke="#7f7542" points="891,-143.5 939,-143.5 "/>
<text text-anchor="middle" x="915" y="-132.3" font-family="Times,serif" font-size="14.00">⇊</text>
<polyline fill="none" stroke="#7f7542" points="891,-128.5 939,-128.5 "/>
<text text-anchor="middle" x="915" y="-117.3" font-family="Times,serif" font-size="14.00">X₁ ∈ ℕ</text>
</a>
</g>
</g>
<!-- c_0_57&#45;&gt;c_0_66 -->
<g id="edge1" class="edge">
<title>c_0_57&#45;&gt;c_0_66</title>
<path fill="none" stroke="black" d="M931,-195.16C931,-195.16 931,-168.72 931,-168.72"/>
<polygon fill="black" stroke="black" points="934.5,-168.72 931,-158.72 927.5,-168.72 934.5,-168.72"/>
</g>
<!-- c_0_58 -->
<g id="node2" class="node">
<title>c_0_58</title>
<g id="a_node2"><a xlink:href="c_0_58.html" xlink:title="{ℕ = ω}" target="_parent">
<polygon fill="#f8edd1" stroke="#7f7542" points="859,-210.5 859,-225.5 905,-225.5 905,-210.5 859,-210.5"/>
<text text-anchor="middle" x="882" y="-214.3" font-family="Times,serif" font-size="14.00">ℕ = ω</text>
</a>
</g>
</g>
<!-- c_0_58&#45;&gt;c_0_66 -->
<g id="edge2" class="edge">
<title>c_0_58&#45;&gt;c_0_66</title>
<path fill="none" stroke="black" d="M898,-210.43C898,-210.43 898,-168.65 898,-168.65"/>
<polygon fill="black" stroke="black" points="901.5,-168.65 898,-158.65 894.5,-168.65 901.5,-168.65"/>
</g>
<!-- c_0_112 -->
<g id="node4" class="node">
<title>c_0_112</title>
<g id="a_node4"><a xlink:href="c_0_112.html" xlink:title="{X₁ ∈ ℕ|⇊|X₁ ∈ ℂ}" target="_parent">
<polygon fill="#f8edd1" stroke="#7f7542" points="1766,-24 1766,-69 1814,-69 1814,-24 1766,-24"/>
<text text-anchor="middle" x="1790" y="-57.8" font-family="Times,serif" font-size="14.00">X₁ ∈ ℕ</text>
<polyline fill="none" stroke="#7f7542" points="1766,-54 1814,-54 "/>
<text text-anchor="middle" x="1790" y="-42.8" font-family="Times,serif" font-size="14.00">⇊</text>
<polyline fill="none" stroke="#7f7542" points="1766,-39 1814,-39 "/>
<text text-anchor="middle" x="1790" y="-27.8" font-family="Times,serif" font-size="14.00">X₁ ∈ ℂ</text>
</a>
</g>
</g>
<!-- c_0_66&#45;&gt;c_0_112 -->
<g id="edge3" class="edge">
<title>c_0_66&#45;&gt;c_0_112</title>
<path fill="none" stroke="black" stroke-dasharray="5,2" d="M939.32,-143C1080.63,-143 1790,-143 1790,-143 1790,-143 1790,-79.37 1790,-79.37"/>
<polygon fill="black" stroke="black" points="1793.5,-79.37 1790,-69.37 1786.5,-79.37 1793.5,-79.37"/>
</g>
<!-- c_0_93 -->
<g id="node5" class="node">
<title>c_0_93</title>
<g id="a_node5"><a xlink:href="c_0_93.html" xlink:title="{X₁ ∈ ℕ|⇊|(Lucas(X₁) * &#45;(to_power(tau,X₁),to_power(tau_bar,X₁))) / sqrt(5) = Fib(X₁ * 2)}" target="_parent">
<polygon fill="#f8edd1" stroke="#7f7542" points="1212,-24 1212,-69 1748,-69 1748,-24 1212,-24"/>
<text text-anchor="middle" x="1480" y="-57.8" font-family="Times,serif" font-size="14.00">X₁ ∈ ℕ</text>
<polyline fill="none" stroke="#7f7542" points="1212,-54 1748,-54 "/>
<text text-anchor="middle" x="1480" y="-42.8" font-family="Times,serif" font-size="14.00">⇊</text>
<polyline fill="none" stroke="#7f7542" points="1212,-39 1748,-39 "/>
<text text-anchor="middle" x="1480" y="-27.8" font-family="Times,serif" font-size="14.00">(Lucas(X₁) * &#45;(to_power(tau,X₁),to_power(tau_bar,X₁))) / sqrt(5) = Fib(X₁ * 2)</text>
</a>
</g>
</g>
<!-- c_0_66&#45;&gt;c_0_93 -->
<g id="edge4" class="edge">
<title>c_0_66&#45;&gt;c_0_93</title>
<path fill="none" stroke="black" stroke-dasharray="5,2" d="M939.28,-128C1047.42,-128 1480,-128 1480,-128 1480,-128 1480,-79.2 1480,-79.2"/>
<polygon fill="black" stroke="black" points="1483.5,-79.2 1480,-69.2 1476.5,-79.2 1483.5,-79.2"/>
</g>
<!-- c_0_70 -->
<g id="node6" class="node">
<title>c_0_70</title>
<g id="a_node6"><a xlink:href="c_0_70.html" xlink:title="{X₁ ∈ ℕ|⇊|&#45;(to_power(tau,X₁ * 2),to_power(to_power(tau_bar,X₁),2)) / sqrt(5) = Fib(X₁ * 2)}" target="_parent">
<polygon fill="#f8edd1" stroke="#7f7542" points="636.5,-24 636.5,-69 1193.5,-69 1193.5,-24 636.5,-24"/>
<text text-anchor="middle" x="915" y="-57.8" font-family="Times,serif" font-size="14.00">X₁ ∈ ℕ</text>
<polyline fill="none" stroke="#7f7542" points="636.5,-54 1193.5,-54 "/>
<text text-anchor="middle" x="915" y="-42.8" font-family="Times,serif" font-size="14.00">⇊</text>
<polyline fill="none" stroke="#7f7542" points="636.5,-39 1193.5,-39 "/>
<text text-anchor="middle" x="915" y="-27.8" font-family="Times,serif" font-size="14.00">&#45;(to_power(tau,X₁ * 2),to_power(to_power(tau_bar,X₁),2)) / sqrt(5) = Fib(X₁ * 2)</text>
</a>
</g>
</g>
<!-- c_0_66&#45;&gt;c_0_70 -->
<g id="edge5" class="edge">
<title>c_0_66&#45;&gt;c_0_70</title>
<path fill="none" stroke="black" stroke-dasharray="5,2" d="M923,-113.42C923,-113.42 923,-79.08 923,-79.08"/>
<polygon fill="black" stroke="black" points="926.5,-79.08 923,-69.08 919.5,-79.08 926.5,-79.08"/>
</g>
<!-- c_0_71 -->
<g id="node7" class="node">
<title>c_0_71</title>
<g id="a_node7"><a xlink:href="c_0_71.html" xlink:title="{X₂ ∈ ℕ|⇊|R₁ = Ø|to_power(R₁,X₂ * 2) = to_power(to_power(R₁,X₂),2)}" target="_parent">
<polygon fill="#f8edd1" stroke="#7f7542" points="260,-16.5 260,-76.5 618,-76.5 618,-16.5 260,-16.5"/>
<text text-anchor="middle" x="439" y="-65.3" font-family="Times,serif" font-size="14.00">X₂ ∈ ℕ</text>
<polyline fill="none" stroke="#7f7542" points="260,-61.5 618,-61.5 "/>
<text text-anchor="middle" x="439" y="-50.3" font-family="Times,serif" font-size="14.00">⇊</text>
<polyline fill="none" stroke="#7f7542" points="260,-46.5 618,-46.5 "/>
<text text-anchor="middle" x="439" y="-35.3" font-family="Times,serif" font-size="14.00">R₁ = Ø</text>
<polyline fill="none" stroke="#7f7542" points="260,-31.5 618,-31.5 "/>
<text text-anchor="middle" x="439" y="-20.3" font-family="Times,serif" font-size="14.00">to_power(R₁,X₂ * 2) = to_power(to_power(R₁,X₂),2)</text>
</a>
</g>
</g>
<!-- c_0_66&#45;&gt;c_0_71 -->
<g id="edge6" class="edge">
<title>c_0_66&#45;&gt;c_0_71</title>
<path fill="none" stroke="black" stroke-dasharray="5,2" d="M907,-113.26C907,-95.21 907,-73 907,-73 907,-73 628.27,-73 628.27,-73"/>
<polygon fill="black" stroke="black" points="628.27,-69.5 618.27,-73 628.27,-76.5 628.27,-69.5"/>
</g>
<!-- c_0_113 -->
<g id="node8" class="node">
<title>c_0_113</title>
<g id="a_node8"><a xlink:href="c_0_113.html" xlink:title="{X₁ ∈ ℕ|⇊|Lucas(X₁) * Fib(X₁) = Fib(X₁ * 2)}" target="_parent">
<polygon fill="#f8edd1" stroke="#7f7542" points="16,-24 16,-69 242,-69 242,-24 16,-24"/>
<text text-anchor="middle" x="129" y="-57.8" font-family="Times,serif" font-size="14.00">X₁ ∈ ℕ</text>
<polyline fill="none" stroke="#7f7542" points="16,-54 242,-54 "/>
<text text-anchor="middle" x="129" y="-42.8" font-family="Times,serif" font-size="14.00">⇊</text>
<polyline fill="none" stroke="#7f7542" points="16,-39 242,-39 "/>
<text text-anchor="middle" x="129" y="-27.8" font-family="Times,serif" font-size="14.00">Lucas(X₁) * Fib(X₁) = Fib(X₁ * 2)</text>
</a>
</g>
</g>
<!-- c_0_66&#45;&gt;c_0_113 -->
<g id="edge7" class="edge">
<title>c_0_66&#45;&gt;c_0_113</title>
<path fill="none" stroke="black" stroke-dasharray="5,2" d="M890.61,-136C757.95,-136 129,-136 129,-136 129,-136 129,-79.08 129,-79.08"/>
<polygon fill="black" stroke="black" points="132.5,-79.08 129,-69.08 125.5,-79.08 132.5,-79.08"/>
</g>
</g>
</svg>
