<?xml version="1.0" encoding="UTF-8" standalone="no"?>
<!DOCTYPE svg PUBLIC "-//W3C//DTD SVG 1.1//EN"
 "http://www.w3.org/Graphics/SVG/1.1/DTD/svg11.dtd">
<!-- Generated by graphviz version 5.0.0 (0)
 -->
<!-- Title: proof Pages: 1 -->
<svg width="1117pt" height="160pt"
 viewBox="0.00 0.00 1117.00 160.00" xmlns="http://www.w3.org/2000/svg" xmlns:xlink="http://www.w3.org/1999/xlink">
<g id="graph0" class="graph" transform="scale(1 1) rotate(0) translate(4 156)">
<title>proof</title>
<g id="clust1" class="cluster">
<title>cluster_0</title>
<polygon fill="transparent" stroke="black" stroke-dasharray="1,5" points="8,-112 8,-144 1101,-144 1101,-112 8,-112"/>
</g>
<g id="clust2" class="cluster">
<title>cluster_1</title>
<polygon fill="transparent" stroke="black" stroke-width="2" points="481,-60 481,-92 715,-92 715,-60 481,-60"/>
</g>
<g id="clust3" class="cluster">
<title>cluster_2</title>
<polygon fill="transparent" stroke="black" stroke-dasharray="1,5" points="505,-8 505,-40 691,-40 691,-8 505,-8"/>
</g>
<!-- c_0_103 -->
<g id="node1" class="node">
<title>c_0_103</title>
<g id="a_node1"><a xlink:href="c_0_103.html" xlink:title="{((τ⁺ ^ N₁) &#45; (τ⁻ ^ N₁)) / (√5) = fib(N₁)}" target="_vizar">
<polygon fill="#f8edd1" stroke="#7f7542" points="831.5,-120.5 831.5,-135.5 1092.5,-135.5 1092.5,-120.5 831.5,-120.5"/>
<text text-anchor="middle" x="962" y="-124.3" font-family="Times,serif" font-size="14.00">((τ⁺ ^ N₁) &#45; (τ⁻ ^ N₁)) / (√5) = fib(N₁)</text>
</a>
</g>
</g>
<!-- c_0_113 -->
<g id="node8" class="node">
<title>c_0_113</title>
<g id="a_node8"><a xlink:href="c_0_113.html" xlink:title="{lucas(N₁) * fib(N₁) = fib(N₁ * 2)}" target="_vizar">
<polygon fill="#f8edd1" stroke="#7f7542" points="489,-68.5 489,-83.5 707,-83.5 707,-68.5 489,-68.5"/>
<text text-anchor="middle" x="598" y="-72.3" font-family="Times,serif" font-size="14.00">lucas(N₁) * fib(N₁) = fib(N₁ * 2)</text>
</a>
</g>
</g>
<!-- c_0_103&#45;&gt;c_0_113 -->
<g id="edge1" class="edge">
<title>c_0_103&#45;&gt;c_0_113</title>
<path fill="none" stroke="black" d="M962,-120.35C962,-105.24 962,-73 962,-73 962,-73 717.21,-73 717.21,-73"/>
<polygon fill="black" stroke="black" points="717.21,-69.5 707.21,-73 717.21,-76.5 717.21,-69.5"/>
</g>
<!-- c_0_94 -->
<g id="node2" class="node">
<title>c_0_94</title>
<g id="a_node2"><a xlink:href="c_0_94.html" xlink:title="{R₁ &#45; R₂ ∈ ℂ}" target="_vizar">
<polygon fill="#f8edd1" stroke="#7f7542" points="737,-120.5 737,-135.5 813,-135.5 813,-120.5 737,-120.5"/>
<text text-anchor="middle" x="775" y="-124.3" font-family="Times,serif" font-size="14.00">R₁ &#45; R₂ ∈ ℂ</text>
</a>
</g>
</g>
<!-- c_0_94&#45;&gt;c_0_113 -->
<g id="edge2" class="edge">
<title>c_0_94&#45;&gt;c_0_113</title>
<path fill="none" stroke="black" d="M775,-120.19C775,-106.12 775,-78 775,-78 775,-78 717.07,-78 717.07,-78"/>
<polygon fill="black" stroke="black" points="717.07,-74.5 707.07,-78 717.07,-81.5 717.07,-74.5"/>
</g>
<!-- c_0_87 -->
<g id="node3" class="node">
<title>c_0_87</title>
<g id="a_node3"><a xlink:href="c_0_87.html" xlink:title="{R₁ &#45; R₂ ∈ ℝ}" target="_vizar">
<polygon fill="#f8edd1" stroke="#7f7542" points="641.5,-120.5 641.5,-135.5 718.5,-135.5 718.5,-120.5 641.5,-120.5"/>
<text text-anchor="middle" x="680" y="-124.3" font-family="Times,serif" font-size="14.00">R₁ &#45; R₂ ∈ ℝ</text>
</a>
</g>
</g>
<!-- c_0_87&#45;&gt;c_0_113 -->
<g id="edge3" class="edge">
<title>c_0_87&#45;&gt;c_0_113</title>
<path fill="none" stroke="black" d="M674.25,-120.33C674.25,-120.33 674.25,-93.7 674.25,-93.7"/>
<polygon fill="black" stroke="black" points="677.75,-93.7 674.25,-83.7 670.75,-93.7 677.75,-93.7"/>
</g>
<!-- c_0_66 -->
<g id="node4" class="node">
<title>c_0_66</title>
<g id="a_node4"><a xlink:href="c_0_66.html" xlink:title="{N₁ ∈ ℕ}" target="_vizar">
<polygon fill="#f8edd1" stroke="#7f7542" points="573,-120.5 573,-135.5 623,-135.5 623,-120.5 573,-120.5"/>
<text text-anchor="middle" x="598" y="-124.3" font-family="Times,serif" font-size="14.00">N₁ ∈ ℕ</text>
</a>
</g>
</g>
<!-- c_0_66&#45;&gt;c_0_113 -->
<g id="edge4" class="edge">
<title>c_0_66&#45;&gt;c_0_113</title>
<path fill="none" stroke="black" d="M598,-120.33C598,-120.33 598,-93.7 598,-93.7"/>
<polygon fill="black" stroke="black" points="601.5,-93.7 598,-83.7 594.5,-93.7 601.5,-93.7"/>
</g>
<!-- c_0_102 -->
<g id="node5" class="node">
<title>c_0_102</title>
<g id="a_node5"><a xlink:href="c_0_102.html" xlink:title="{lucas(N₁) * (((τ⁺ ^ N₁) &#45; (τ⁻ ^ N₁)) / (√5)) = fib(N₁ * 2)}" target="_vizar">
<polygon fill="#f8edd1" stroke="#7f7542" points="179,-120.5 179,-135.5 555,-135.5 555,-120.5 179,-120.5"/>
<text text-anchor="middle" x="367" y="-124.3" font-family="Times,serif" font-size="14.00">lucas(N₁) * (((τ⁺ ^ N₁) &#45; (τ⁻ ^ N₁)) / (√5)) = fib(N₁ * 2)</text>
</a>
</g>
</g>
<!-- c_0_102&#45;&gt;c_0_113 -->
<g id="edge5" class="edge">
<title>c_0_102&#45;&gt;c_0_113</title>
<path fill="none" stroke="black" d="M522,-120.33C522,-120.33 522,-93.7 522,-93.7"/>
<polygon fill="black" stroke="black" points="525.5,-93.7 522,-83.7 518.5,-93.7 525.5,-93.7"/>
</g>
<!-- c_0_114 -->
<g id="node6" class="node">
<title>c_0_114</title>
<g id="a_node6"><a xlink:href="c_0_114.html" xlink:title="{R₁ * R₂ ∈ ℂ}" target="_vizar">
<polygon fill="#f8edd1" stroke="#7f7542" points="81.5,-120.5 81.5,-135.5 160.5,-135.5 160.5,-120.5 81.5,-120.5"/>
<text text-anchor="middle" x="121" y="-124.3" font-family="Times,serif" font-size="14.00">R₁ * R₂ ∈ ℂ</text>
</a>
</g>
</g>
<!-- c_0_114&#45;&gt;c_0_113 -->
<g id="edge6" class="edge">
<title>c_0_114&#45;&gt;c_0_113</title>
<path fill="none" stroke="black" d="M121,-120.19C121,-106.12 121,-78 121,-78 121,-78 478.87,-78 478.87,-78"/>
<polygon fill="black" stroke="black" points="478.87,-81.5 488.87,-78 478.87,-74.5 478.87,-81.5"/>
</g>
<!-- c_0_86 -->
<g id="node7" class="node">
<title>c_0_86</title>
<g id="a_node7"><a xlink:href="c_0_86.html" xlink:title="{R₁ ∈ ℂ}" target="_vizar">
<polygon fill="#f8edd1" stroke="#7f7542" points="16.5,-120.5 16.5,-135.5 63.5,-135.5 63.5,-120.5 16.5,-120.5"/>
<text text-anchor="middle" x="40" y="-124.3" font-family="Times,serif" font-size="14.00">R₁ ∈ ℂ</text>
</a>
</g>
</g>
<!-- c_0_86&#45;&gt;c_0_113 -->
<g id="edge7" class="edge">
<title>c_0_86&#45;&gt;c_0_113</title>
<path fill="none" stroke="black" d="M40,-120.35C40,-105.24 40,-73 40,-73 40,-73 478.76,-73 478.76,-73"/>
<polygon fill="black" stroke="black" points="478.76,-76.5 488.76,-73 478.76,-69.5 478.76,-76.5"/>
</g>
<!-- c_0_133 -->
<g id="node9" class="node">
<title>c_0_133</title>
<g id="a_node9"><a xlink:href="c_0_133.html" xlink:title="{fib(sk₁ * 2) ≠ fib(2 * sk₁)}" target="_vizar">
<polygon fill="#fa6900" stroke="#7f7542" points="513,-16.5 513,-31.5 683,-31.5 683,-16.5 513,-16.5"/>
<text text-anchor="middle" x="598" y="-20.3" font-family="Times,serif" font-size="14.00">fib(sk₁ * 2) ≠ fib(2 * sk₁)</text>
</a>
</g>
</g>
<!-- c_0_113&#45;&gt;c_0_133 -->
<g id="edge8" class="edge">
<title>c_0_113&#45;&gt;c_0_133</title>
<path fill="none" stroke="black" stroke-dasharray="5,2" d="M598,-68.33C598,-68.33 598,-41.7 598,-41.7"/>
<polygon fill="black" stroke="black" points="601.5,-41.7 598,-31.7 594.5,-41.7 601.5,-41.7"/>
</g>
</g>
</svg>
