<?xml version="1.0" encoding="UTF-8" standalone="no"?>
<!DOCTYPE svg PUBLIC "-//W3C//DTD SVG 1.1//EN"
 "http://www.w3.org/Graphics/SVG/1.1/DTD/svg11.dtd">
<!-- Generated by graphviz version 5.0.0 (0)
 -->
<!-- Title: proof Pages: 1 -->
<svg width="1116pt" height="160pt"
 viewBox="0.00 0.00 1116.00 160.00" xmlns="http://www.w3.org/2000/svg" xmlns:xlink="http://www.w3.org/1999/xlink">
<g id="graph0" class="graph" transform="scale(1 1) rotate(0) translate(4 156)">
<title>proof</title>
<g id="clust1" class="cluster">
<title>cluster_0</title>
<polygon fill="transparent" stroke="black" stroke-dasharray="1,5" points="8,-112 8,-144 1100,-144 1100,-112 8,-112"/>
</g>
<g id="clust2" class="cluster">
<title>cluster_1</title>
<polygon fill="transparent" stroke="black" stroke-width="2" points="706,-60 706,-92 940,-92 940,-60 706,-60"/>
</g>
<g id="clust3" class="cluster">
<title>cluster_2</title>
<polygon fill="transparent" stroke="black" stroke-dasharray="1,5" points="730,-8 730,-40 916,-40 916,-8 730,-8"/>
</g>
<!-- c_0_66 -->
<g id="node1" class="node">
<title>c_0_66</title>
<g id="a_node1"><a xlink:href="c_0_66.html" xlink:title="{N₁ ∈ ℕ}" target="_vizar">
<polygon fill="#f8edd1" stroke="#7f7542" points="1042,-120.5 1042,-135.5 1092,-135.5 1092,-120.5 1042,-120.5"/>
<text text-anchor="middle" x="1067" y="-124.3" font-family="Times,serif" font-size="14.00">N₁ ∈ ℕ</text>
</a>
</g>
</g>
<!-- c_0_113 -->
<g id="node8" class="node">
<title>c_0_113</title>
<g id="a_node8"><a xlink:href="c_0_113.html" xlink:title="{lucas(N₁) * fib(N₁) = fib(N₁ * 2)}" target="_vizar">
<polygon fill="#f8edd1" stroke="#7f7542" points="714,-68.5 714,-83.5 932,-83.5 932,-68.5 714,-68.5"/>
<text text-anchor="middle" x="823" y="-72.3" font-family="Times,serif" font-size="14.00">lucas(N₁) * fib(N₁) = fib(N₁ * 2)</text>
</a>
</g>
</g>
<!-- c_0_66&#45;&gt;c_0_113 -->
<g id="edge1" class="edge">
<title>c_0_66&#45;&gt;c_0_113</title>
<path fill="none" stroke="black" d="M1067,-120.35C1067,-105.24 1067,-73 1067,-73 1067,-73 942.15,-73 942.15,-73"/>
<polygon fill="black" stroke="black" points="942.15,-69.5 932.15,-73 942.15,-76.5 942.15,-69.5"/>
</g>
<!-- c_0_86 -->
<g id="node2" class="node">
<title>c_0_86</title>
<g id="a_node2"><a xlink:href="c_0_86.html" xlink:title="{R₁ ∈ ℂ}" target="_vizar">
<polygon fill="#f8edd1" stroke="#7f7542" points="976.5,-120.5 976.5,-135.5 1023.5,-135.5 1023.5,-120.5 976.5,-120.5"/>
<text text-anchor="middle" x="1000" y="-124.3" font-family="Times,serif" font-size="14.00">R₁ ∈ ℂ</text>
</a>
</g>
</g>
<!-- c_0_86&#45;&gt;c_0_113 -->
<g id="edge2" class="edge">
<title>c_0_86&#45;&gt;c_0_113</title>
<path fill="none" stroke="black" d="M1000,-120.19C1000,-106.12 1000,-78 1000,-78 1000,-78 942.07,-78 942.07,-78"/>
<polygon fill="black" stroke="black" points="942.07,-74.5 932.07,-78 942.07,-81.5 942.07,-74.5"/>
</g>
<!-- c_0_114 -->
<g id="node3" class="node">
<title>c_0_114</title>
<g id="a_node3"><a xlink:href="c_0_114.html" xlink:title="{R₁ * R₂ ∈ ℂ}" target="_vizar">
<polygon fill="#f8edd1" stroke="#7f7542" points="879.5,-120.5 879.5,-135.5 958.5,-135.5 958.5,-120.5 879.5,-120.5"/>
<text text-anchor="middle" x="919" y="-124.3" font-family="Times,serif" font-size="14.00">R₁ * R₂ ∈ ℂ</text>
</a>
</g>
</g>
<!-- c_0_114&#45;&gt;c_0_113 -->
<g id="edge3" class="edge">
<title>c_0_114&#45;&gt;c_0_113</title>
<path fill="none" stroke="black" d="M905.75,-120.33C905.75,-120.33 905.75,-93.7 905.75,-93.7"/>
<polygon fill="black" stroke="black" points="909.25,-93.7 905.75,-83.7 902.25,-93.7 909.25,-93.7"/>
</g>
<!-- c_0_94 -->
<g id="node4" class="node">
<title>c_0_94</title>
<g id="a_node4"><a xlink:href="c_0_94.html" xlink:title="{R₁ &#45; R₂ ∈ ℂ}" target="_vizar">
<polygon fill="#f8edd1" stroke="#7f7542" points="785,-120.5 785,-135.5 861,-135.5 861,-120.5 785,-120.5"/>
<text text-anchor="middle" x="823" y="-124.3" font-family="Times,serif" font-size="14.00">R₁ &#45; R₂ ∈ ℂ</text>
</a>
</g>
</g>
<!-- c_0_94&#45;&gt;c_0_113 -->
<g id="edge4" class="edge">
<title>c_0_94&#45;&gt;c_0_113</title>
<path fill="none" stroke="black" d="M823,-120.33C823,-120.33 823,-93.7 823,-93.7"/>
<polygon fill="black" stroke="black" points="826.5,-93.7 823,-83.7 819.5,-93.7 826.5,-93.7"/>
</g>
<!-- c_0_102 -->
<g id="node5" class="node">
<title>c_0_102</title>
<g id="a_node5"><a xlink:href="c_0_102.html" xlink:title="{lucas(N₁) * (((τ⁺ ^ N₁) &#45; (τ⁻ ^ N₁)) / (√5)) = fib(N₁ * 2)}" target="_vizar">
<polygon fill="#f8edd1" stroke="#7f7542" points="391,-120.5 391,-135.5 767,-135.5 767,-120.5 391,-120.5"/>
<text text-anchor="middle" x="579" y="-124.3" font-family="Times,serif" font-size="14.00">lucas(N₁) * (((τ⁺ ^ N₁) &#45; (τ⁻ ^ N₁)) / (√5)) = fib(N₁ * 2)</text>
</a>
</g>
</g>
<!-- c_0_102&#45;&gt;c_0_113 -->
<g id="edge5" class="edge">
<title>c_0_102&#45;&gt;c_0_113</title>
<path fill="none" stroke="black" d="M740.5,-120.33C740.5,-120.33 740.5,-93.7 740.5,-93.7"/>
<polygon fill="black" stroke="black" points="744,-93.7 740.5,-83.7 737,-93.7 744,-93.7"/>
</g>
<!-- c_0_103 -->
<g id="node6" class="node">
<title>c_0_103</title>
<g id="a_node6"><a xlink:href="c_0_103.html" xlink:title="{((τ⁺ ^ N₁) &#45; (τ⁻ ^ N₁)) / (√5) = fib(N₁)}" target="_vizar">
<polygon fill="#f8edd1" stroke="#7f7542" points="111.5,-120.5 111.5,-135.5 372.5,-135.5 372.5,-120.5 111.5,-120.5"/>
<text text-anchor="middle" x="242" y="-124.3" font-family="Times,serif" font-size="14.00">((τ⁺ ^ N₁) &#45; (τ⁻ ^ N₁)) / (√5) = fib(N₁)</text>
</a>
</g>
</g>
<!-- c_0_103&#45;&gt;c_0_113 -->
<g id="edge6" class="edge">
<title>c_0_103&#45;&gt;c_0_113</title>
<path fill="none" stroke="black" d="M242,-120.19C242,-106.12 242,-78 242,-78 242,-78 703.72,-78 703.72,-78"/>
<polygon fill="black" stroke="black" points="703.72,-81.5 713.72,-78 703.72,-74.5 703.72,-81.5"/>
</g>
<!-- c_0_87 -->
<g id="node7" class="node">
<title>c_0_87</title>
<g id="a_node7"><a xlink:href="c_0_87.html" xlink:title="{R₁ &#45; R₂ ∈ ℝ}" target="_vizar">
<polygon fill="#f8edd1" stroke="#7f7542" points="16.5,-120.5 16.5,-135.5 93.5,-135.5 93.5,-120.5 16.5,-120.5"/>
<text text-anchor="middle" x="55" y="-124.3" font-family="Times,serif" font-size="14.00">R₁ &#45; R₂ ∈ ℝ</text>
</a>
</g>
</g>
<!-- c_0_87&#45;&gt;c_0_113 -->
<g id="edge7" class="edge">
<title>c_0_87&#45;&gt;c_0_113</title>
<path fill="none" stroke="black" d="M55,-120.35C55,-105.24 55,-73 55,-73 55,-73 703.78,-73 703.78,-73"/>
<polygon fill="black" stroke="black" points="703.78,-76.5 713.78,-73 703.78,-69.5 703.78,-76.5"/>
</g>
<!-- c_0_133 -->
<g id="node9" class="node">
<title>c_0_133</title>
<g id="a_node9"><a xlink:href="c_0_133.html" xlink:title="{fib(sk₁ * 2) ≠ fib(2 * sk₁)}" target="_vizar">
<polygon fill="#fa6900" stroke="#7f7542" points="738,-16.5 738,-31.5 908,-31.5 908,-16.5 738,-16.5"/>
<text text-anchor="middle" x="823" y="-20.3" font-family="Times,serif" font-size="14.00">fib(sk₁ * 2) ≠ fib(2 * sk₁)</text>
</a>
</g>
</g>
<!-- c_0_113&#45;&gt;c_0_133 -->
<g id="edge8" class="edge">
<title>c_0_113&#45;&gt;c_0_133</title>
<path fill="none" stroke="black" stroke-dasharray="5,2" d="M823,-68.33C823,-68.33 823,-41.7 823,-41.7"/>
<polygon fill="black" stroke="black" points="826.5,-41.7 823,-31.7 819.5,-41.7 826.5,-41.7"/>
</g>
</g>
</svg>
