<?xml version="1.0" encoding="UTF-8" standalone="no"?>
<!DOCTYPE svg PUBLIC "-//W3C//DTD SVG 1.1//EN"
 "http://www.w3.org/Graphics/SVG/1.1/DTD/svg11.dtd">
<!-- Generated by graphviz version 5.0.0 (0)
 -->
<!-- Title: proof Pages: 1 -->
<svg width="496pt" height="190pt"
 viewBox="0.00 0.00 496.00 190.00" xmlns="http://www.w3.org/2000/svg" xmlns:xlink="http://www.w3.org/1999/xlink">
<g id="graph0" class="graph" transform="scale(1 1) rotate(0) translate(4 186)">
<title>proof</title>
<g id="clust1" class="cluster">
<title>cluster_0</title>
<polygon fill="transparent" stroke="black" stroke-dasharray="1,5" points="187,-142 187,-174 301,-174 301,-142 187,-142"/>
</g>
<g id="clust2" class="cluster">
<title>cluster_1</title>
<polygon fill="transparent" stroke="black" stroke-width="2" points="138,-90 138,-122 350,-122 350,-90 138,-90"/>
</g>
<g id="clust3" class="cluster">
<title>cluster_2</title>
<polygon fill="transparent" stroke="black" stroke-dasharray="1,5" points="8,-8 8,-70 480,-70 480,-8 8,-8"/>
</g>
<!-- t74_xcmplx_1 -->
<g id="node1" class="node">
<title>t74_xcmplx_1</title>
<g id="a_node1"><a xlink:href="t74_xcmplx_1.html" xlink:title="t74_xcmplx_1" target="_vizar">
<polygon fill="#69d2e7" stroke="#7f7542" points="195,-150.5 195,-165.5 293,-165.5 293,-150.5 195,-150.5"/>
<text text-anchor="middle" x="244" y="-154.3" font-family="Times,serif" font-size="14.00">t74_xcmplx_1</text>
</a>
</g>
</g>
<!-- c_0_92 -->
<g id="node2" class="node">
<title>c_0_92</title>
<g id="a_node2"><a xlink:href="c_0_92.html" xlink:title="{C₁ * (C₂ / C₃) = (C₁ * C₂) / C₃}" target="_vizar">
<polygon fill="#f8edd1" stroke="#7f7542" points="146,-98.5 146,-113.5 342,-113.5 342,-98.5 146,-98.5"/>
<text text-anchor="middle" x="244" y="-102.3" font-family="Times,serif" font-size="14.00">C₁ * (C₂ / C₃) = (C₁ * C₂) / C₃</text>
</a>
</g>
</g>
<!-- t74_xcmplx_1&#45;&gt;c_0_92 -->
<g id="edge1" class="edge">
<title>t74_xcmplx_1&#45;&gt;c_0_92</title>
<path fill="none" stroke="black" d="M244,-150.33C244,-150.33 244,-123.7 244,-123.7"/>
<polygon fill="black" stroke="black" points="247.5,-123.7 244,-113.7 240.5,-123.7 247.5,-123.7"/>
</g>
<!-- c_0_102 -->
<g id="node3" class="node">
<title>c_0_102</title>
<g id="a_node3"><a xlink:href="c_0_102.html" xlink:title="{X₁ ∈ ℕ|⇊|lucas(X₁) * (((½(1+√5) ^ X₁) &#45; (½(1&#45;√5) ^ X₁)) / (√5)) = fib(X₁ * 2)}" target="_vizar">
<polygon fill="#f8edd1" stroke="#7f7542" points="16,-16.5 16,-61.5 472,-61.5 472,-16.5 16,-16.5"/>
<text text-anchor="middle" x="244" y="-50.3" font-family="Times,serif" font-size="14.00">X₁ ∈ ℕ</text>
<polyline fill="none" stroke="#7f7542" points="16,-46.5 472,-46.5 "/>
<text text-anchor="middle" x="244" y="-35.3" font-family="Times,serif" font-size="14.00">⇊</text>
<polyline fill="none" stroke="#7f7542" points="16,-31.5 472,-31.5 "/>
<text text-anchor="middle" x="244" y="-20.3" font-family="Times,serif" font-size="14.00">lucas(X₁) * (((½(1+√5) ^ X₁) &#45; (½(1&#45;√5) ^ X₁)) / (√5)) = fib(X₁ * 2)</text>
</a>
</g>
</g>
<!-- c_0_92&#45;&gt;c_0_102 -->
<g id="edge2" class="edge">
<title>c_0_92&#45;&gt;c_0_102</title>
<path fill="none" stroke="black" stroke-dasharray="5,2" d="M244,-98.31C244,-98.31 244,-71.76 244,-71.76"/>
<polygon fill="black" stroke="black" points="247.5,-71.76 244,-61.76 240.5,-71.76 247.5,-71.76"/>
</g>
</g>
</svg>
