<?xml version="1.0" encoding="UTF-8" standalone="no"?>
<!DOCTYPE svg PUBLIC "-//W3C//DTD SVG 1.1//EN"
 "http://www.w3.org/Graphics/SVG/1.1/DTD/svg11.dtd">
<!-- Generated by graphviz version 5.0.0 (0)
 -->
<!-- Title: proof Pages: 1 -->
<svg width="348pt" height="205pt"
 viewBox="0.00 0.00 348.00 205.00" xmlns="http://www.w3.org/2000/svg" xmlns:xlink="http://www.w3.org/1999/xlink">
<g id="graph0" class="graph" transform="scale(1 1) rotate(0) translate(4 201)">
<title>proof</title>
<g id="clust1" class="cluster">
<title>cluster_0</title>
<polygon fill="transparent" stroke="black" stroke-dasharray="1,5" points="62,-157 62,-189 162,-189 162,-157 62,-157"/>
</g>
<g id="clust2" class="cluster">
<title>cluster_1</title>
<polygon fill="transparent" stroke="black" stroke-width="2" points="79,-105 79,-137 145,-137 145,-105 79,-105"/>
</g>
<g id="clust3" class="cluster">
<title>cluster_2</title>
<polygon fill="transparent" stroke="black" stroke-dasharray="1,5" points="8,-8 8,-85 332,-85 332,-8 8,-8"/>
</g>
<!-- cc2_xreal_0 -->
<g id="node1" class="node">
<title>cc2_xreal_0</title>
<g id="a_node1"><a xlink:href="cc2_xreal_0.html" xlink:title="cc2_xreal_0" target="_vizar">
<polygon fill="#69d2e7" stroke="#7f7542" points="70.5,-165.5 70.5,-180.5 153.5,-180.5 153.5,-165.5 70.5,-165.5"/>
<text text-anchor="middle" x="112" y="-169.3" font-family="Times,serif" font-size="14.00">cc2_xreal_0</text>
</a>
</g>
</g>
<!-- c_0_50 -->
<g id="node2" class="node">
<title>c_0_50</title>
<g id="a_node2"><a xlink:href="c_0_50.html" xlink:title="{N₁ ∈ ℝ}" target="_vizar">
<polygon fill="#f8edd1" stroke="#7f7542" points="87.5,-113.5 87.5,-128.5 136.5,-128.5 136.5,-113.5 87.5,-113.5"/>
<text text-anchor="middle" x="112" y="-117.3" font-family="Times,serif" font-size="14.00">N₁ ∈ ℝ</text>
</a>
</g>
</g>
<!-- cc2_xreal_0&#45;&gt;c_0_50 -->
<g id="edge1" class="edge">
<title>cc2_xreal_0&#45;&gt;c_0_50</title>
<path fill="none" stroke="black" d="M112,-165.33C112,-165.33 112,-138.7 112,-138.7"/>
<polygon fill="black" stroke="black" points="115.5,-138.7 112,-128.7 108.5,-138.7 115.5,-138.7"/>
</g>
<!-- c_0_133 -->
<g id="node3" class="node">
<title>c_0_133</title>
<g id="a_node3"><a xlink:href="c_0_133.html" xlink:title="{fib(sk₁ * 2) = fib(2 * sk₁)|fib(sk₁) ∈ ℕ|⇊|⊥}" target="_vizar">
<polygon fill="#fa6900" stroke="#7f7542" points="154,-16.5 154,-76.5 324,-76.5 324,-16.5 154,-16.5"/>
<text text-anchor="middle" x="239" y="-65.3" font-family="Times,serif" font-size="14.00">fib(sk₁ * 2) = fib(2 * sk₁)</text>
<polyline fill="none" stroke="#7f7542" points="154,-61.5 324,-61.5 "/>
<text text-anchor="middle" x="239" y="-50.3" font-family="Times,serif" font-size="14.00">fib(sk₁) ∈ ℕ</text>
<polyline fill="none" stroke="#7f7542" points="154,-46.5 324,-46.5 "/>
<text text-anchor="middle" x="239" y="-35.3" font-family="Times,serif" font-size="14.00">⇊</text>
<polyline fill="none" stroke="#7f7542" points="154,-31.5 324,-31.5 "/>
<text text-anchor="middle" x="239" y="-20.3" font-family="Times,serif" font-size="14.00">⊥</text>
</a>
</g>
</g>
<!-- c_0_50&#45;&gt;c_0_133 -->
<g id="edge2" class="edge">
<title>c_0_50&#45;&gt;c_0_133</title>
<path fill="none" stroke="black" stroke-dasharray="5,2" d="M120,-113.07C120,-99.44 120,-73 120,-73 120,-73 143.78,-73 143.78,-73"/>
<polygon fill="black" stroke="black" points="143.78,-76.5 153.78,-73 143.78,-69.5 143.78,-76.5"/>
</g>
<!-- c_0_61 -->
<g id="node4" class="node">
<title>c_0_61</title>
<g id="a_node4"><a xlink:href="c_0_61.html" xlink:title="{X₁ = Ø|⇊|X₁ ∈ ℝ}" target="_vizar">
<polygon fill="#f8edd1" stroke="#7f7542" points="88,-24 88,-69 136,-69 136,-24 88,-24"/>
<text text-anchor="middle" x="112" y="-57.8" font-family="Times,serif" font-size="14.00">X₁ = Ø</text>
<polyline fill="none" stroke="#7f7542" points="88,-54 136,-54 "/>
<text text-anchor="middle" x="112" y="-42.8" font-family="Times,serif" font-size="14.00">⇊</text>
<polyline fill="none" stroke="#7f7542" points="88,-39 136,-39 "/>
<text text-anchor="middle" x="112" y="-27.8" font-family="Times,serif" font-size="14.00">X₁ ∈ ℝ</text>
</a>
</g>
</g>
<!-- c_0_50&#45;&gt;c_0_61 -->
<g id="edge3" class="edge">
<title>c_0_50&#45;&gt;c_0_61</title>
<path fill="none" stroke="black" stroke-dasharray="5,2" d="M104,-113.31C104,-113.31 104,-79.13 104,-79.13"/>
<polygon fill="black" stroke="black" points="107.5,-79.13 104,-69.13 100.5,-79.13 107.5,-79.13"/>
</g>
<!-- c_0_155 -->
<g id="node5" class="node">
<title>c_0_155</title>
<g id="a_node5"><a xlink:href="c_0_155.html" xlink:title="{sk₁ ∈ ℝ}" target="_vizar">
<polygon fill="#fa6900" stroke="#7f7542" points="16.5,-39 16.5,-54 69.5,-54 69.5,-39 16.5,-39"/>
<text text-anchor="middle" x="43" y="-42.8" font-family="Times,serif" font-size="14.00">sk₁ ∈ ℝ</text>
</a>
</g>
</g>
<!-- c_0_50&#45;&gt;c_0_155 -->
<g id="edge4" class="edge">
<title>c_0_50&#45;&gt;c_0_155</title>
<path fill="none" stroke="black" stroke-dasharray="5,2" d="M87.48,-121C67.65,-121 43,-121 43,-121 43,-121 43,-64.19 43,-64.19"/>
<polygon fill="black" stroke="black" points="46.5,-64.19 43,-54.19 39.5,-64.19 46.5,-64.19"/>
</g>
</g>
</svg>
