<?xml version="1.0" encoding="UTF-8" standalone="no"?>
<!DOCTYPE svg PUBLIC "-//W3C//DTD SVG 1.1//EN"
 "http://www.w3.org/Graphics/SVG/1.1/DTD/svg11.dtd">
<!-- Generated by graphviz version 5.0.0 (0)
 -->
<!-- Title: proof Pages: 1 -->
<svg width="598pt" height="190pt"
 viewBox="0.00 0.00 598.00 190.00" xmlns="http://www.w3.org/2000/svg" xmlns:xlink="http://www.w3.org/1999/xlink">
<g id="graph0" class="graph" transform="scale(1 1) rotate(0) translate(4 186)">
<title>proof</title>
<g id="clust1" class="cluster">
<title>cluster_0</title>
<polygon fill="transparent" stroke="black" stroke-dasharray="1,5" points="8,-142 8,-174 582,-174 582,-142 8,-142"/>
</g>
<g id="clust2" class="cluster">
<title>cluster_1</title>
<polygon fill="transparent" stroke="black" stroke-width="2" points="38,-90 38,-122 476,-122 476,-90 38,-90"/>
</g>
<g id="clust3" class="cluster">
<title>cluster_2</title>
<polygon fill="transparent" stroke="black" stroke-dasharray="1,5" points="136,-8 136,-70 378,-70 378,-8 136,-8"/>
</g>
<!-- c_0_52 -->
<g id="node1" class="node">
<title>c_0_52</title>
<g id="a_node1"><a xlink:href="c_0_52.html" xlink:title="{Fib(C₁) = &#45;(to_power(tau,C₁),to_power(tau_bar,C₁)) / sqrt(5)}" target="_parent">
<polygon fill="#f8edd1" stroke="#7f7542" points="152.5,-150.5 152.5,-165.5 573.5,-165.5 573.5,-150.5 152.5,-150.5"/>
<text text-anchor="middle" x="363" y="-154.3" font-family="Times,serif" font-size="14.00">Fib(C₁) = &#45;(to_power(tau,C₁),to_power(tau_bar,C₁)) / sqrt(5)</text>
</a>
</g>
</g>
<!-- c_0_103 -->
<g id="node3" class="node">
<title>c_0_103</title>
<g id="a_node3"><a xlink:href="c_0_103.html" xlink:title="{&#45;(to_power(tau,C₁),to_power(tau_bar,C₁)) / sqrt(5) = Fib(C₁)}" target="_parent">
<polygon fill="#f8edd1" stroke="#7f7542" points="46.5,-98.5 46.5,-113.5 467.5,-113.5 467.5,-98.5 46.5,-98.5"/>
<text text-anchor="middle" x="257" y="-102.3" font-family="Times,serif" font-size="14.00">&#45;(to_power(tau,C₁),to_power(tau_bar,C₁)) / sqrt(5) = Fib(C₁)</text>
</a>
</g>
</g>
<!-- c_0_52&#45;&gt;c_0_103 -->
<g id="edge1" class="edge">
<title>c_0_52&#45;&gt;c_0_103</title>
<path fill="none" stroke="black" d="M310,-150.33C310,-150.33 310,-123.7 310,-123.7"/>
<polygon fill="black" stroke="black" points="313.5,-123.7 310,-113.7 306.5,-123.7 313.5,-123.7"/>
</g>
<!-- c_0_76 -->
<g id="node2" class="node">
<title>c_0_76</title>
<g id="a_node2"><a xlink:href="c_0_76.html" xlink:title="{N₁ / N₂ = N₁ / N₂}" target="_parent">
<polygon fill="#f8edd1" stroke="#7f7542" points="16,-150.5 16,-165.5 134,-165.5 134,-150.5 16,-150.5"/>
<text text-anchor="middle" x="75" y="-154.3" font-family="Times,serif" font-size="14.00">N₁ / N₂ = N₁ / N₂</text>
</a>
</g>
</g>
<!-- c_0_76&#45;&gt;c_0_103 -->
<g id="edge2" class="edge">
<title>c_0_76&#45;&gt;c_0_103</title>
<path fill="none" stroke="black" d="M90.25,-150.33C90.25,-150.33 90.25,-123.7 90.25,-123.7"/>
<polygon fill="black" stroke="black" points="93.75,-123.7 90.25,-113.7 86.75,-123.7 93.75,-123.7"/>
</g>
<!-- c_0_113 -->
<g id="node4" class="node">
<title>c_0_113</title>
<g id="a_node4"><a xlink:href="c_0_113.html" xlink:title="{X₁ ∈ ℕ|⇊|Lucas(X₁) * Fib(X₁) = Fib(X₁ * 2)}" target="_parent">
<polygon fill="#f8edd1" stroke="#7f7542" points="144,-16.5 144,-61.5 370,-61.5 370,-16.5 144,-16.5"/>
<text text-anchor="middle" x="257" y="-50.3" font-family="Times,serif" font-size="14.00">X₁ ∈ ℕ</text>
<polyline fill="none" stroke="#7f7542" points="144,-46.5 370,-46.5 "/>
<text text-anchor="middle" x="257" y="-35.3" font-family="Times,serif" font-size="14.00">⇊</text>
<polyline fill="none" stroke="#7f7542" points="144,-31.5 370,-31.5 "/>
<text text-anchor="middle" x="257" y="-20.3" font-family="Times,serif" font-size="14.00">Lucas(X₁) * Fib(X₁) = Fib(X₁ * 2)</text>
</a>
</g>
</g>
<!-- c_0_103&#45;&gt;c_0_113 -->
<g id="edge3" class="edge">
<title>c_0_103&#45;&gt;c_0_113</title>
<path fill="none" stroke="black" stroke-dasharray="5,2" d="M257,-98.31C257,-98.31 257,-71.76 257,-71.76"/>
<polygon fill="black" stroke="black" points="260.5,-71.76 257,-61.76 253.5,-71.76 260.5,-71.76"/>
</g>
</g>
</svg>
