<?xml version="1.0" encoding="UTF-8" standalone="no"?>
<!DOCTYPE svg PUBLIC "-//W3C//DTD SVG 1.1//EN"
 "http://www.w3.org/Graphics/SVG/1.1/DTD/svg11.dtd">
<!-- Generated by graphviz version 5.0.0 (0)
 -->
<!-- Title: proof Pages: 1 -->
<svg width="220pt" height="190pt"
 viewBox="0.00 0.00 220.00 190.00" xmlns="http://www.w3.org/2000/svg" xmlns:xlink="http://www.w3.org/1999/xlink">
<g id="graph0" class="graph" transform="scale(1 1) rotate(0) translate(4 186)">
<title>proof</title>
<g id="clust1" class="cluster">
<title>cluster_0</title>
<polygon fill="transparent" stroke="black" stroke-dasharray="1,5" points="8,-112 8,-174 204,-174 204,-112 8,-112"/>
</g>
<g id="clust2" class="cluster">
<title>cluster_1</title>
<polygon fill="transparent" stroke="black" stroke-width="2" points="71,-60 71,-92 137,-92 137,-60 71,-60"/>
</g>
<g id="clust3" class="cluster">
<title>cluster_2</title>
<polygon fill="transparent" stroke="black" stroke-dasharray="1,5" points="69,-8 69,-40 139,-40 139,-8 69,-8"/>
</g>
<!-- c_0_105 -->
<g id="node1" class="node">
<title>c_0_105</title>
<g id="a_node1"><a xlink:href="c_0_105.html" xlink:title="{X₁ ∈ X₂|⇊|X₁ ∈ X₂}" target="_parent">
<polygon fill="#f8edd1" stroke="#7f7542" points="146,-120.5 146,-165.5 196,-165.5 196,-120.5 146,-120.5"/>
<text text-anchor="middle" x="171" y="-154.3" font-family="Times,serif" font-size="14.00">X₁ ∈ X₂</text>
<polyline fill="none" stroke="#7f7542" points="146,-150.5 196,-150.5 "/>
<text text-anchor="middle" x="171" y="-139.3" font-family="Times,serif" font-size="14.00">⇊</text>
<polyline fill="none" stroke="#7f7542" points="146,-135.5 196,-135.5 "/>
<text text-anchor="middle" x="171" y="-124.3" font-family="Times,serif" font-size="14.00">X₁ ∈ X₂</text>
</a>
</g>
</g>
<!-- c_0_106 -->
<g id="node4" class="node">
<title>c_0_106</title>
<g id="a_node4"><a xlink:href="c_0_106.html" xlink:title="{C₁ ∈ ℕ}" target="_parent">
<polygon fill="#f8edd1" stroke="#7f7542" points="79.5,-68.5 79.5,-83.5 128.5,-83.5 128.5,-68.5 79.5,-68.5"/>
<text text-anchor="middle" x="104" y="-72.3" font-family="Times,serif" font-size="14.00">C₁ ∈ ℕ</text>
</a>
</g>
</g>
<!-- c_0_105&#45;&gt;c_0_106 -->
<g id="edge1" class="edge">
<title>c_0_105&#45;&gt;c_0_106</title>
<path fill="none" stroke="black" d="M145.91,-127C129.78,-127 111.83,-127 111.83,-127 111.83,-127 111.83,-93.53 111.83,-93.53"/>
<polygon fill="black" stroke="black" points="115.33,-93.53 111.83,-83.53 108.33,-93.53 115.33,-93.53"/>
</g>
<!-- c_0_97 -->
<g id="node2" class="node">
<title>c_0_97</title>
<g id="a_node2"><a xlink:href="c_0_97.html" xlink:title="{C₁ ∈ ω}" target="_parent">
<polygon fill="#f8edd1" stroke="#7f7542" points="80.5,-135.5 80.5,-150.5 127.5,-150.5 127.5,-135.5 80.5,-135.5"/>
<text text-anchor="middle" x="104" y="-139.3" font-family="Times,serif" font-size="14.00">C₁ ∈ ω</text>
</a>
</g>
</g>
<!-- c_0_97&#45;&gt;c_0_106 -->
<g id="edge2" class="edge">
<title>c_0_97&#45;&gt;c_0_106</title>
<path fill="none" stroke="black" d="M96.17,-135.31C96.17,-135.31 96.17,-93.6 96.17,-93.6"/>
<polygon fill="black" stroke="black" points="99.67,-93.6 96.17,-83.6 92.67,-93.6 99.67,-93.6"/>
</g>
<!-- c_0_58 -->
<g id="node3" class="node">
<title>c_0_58</title>
<g id="a_node3"><a xlink:href="c_0_58.html" xlink:title="{ℕ = ω}" target="_parent">
<polygon fill="#f8edd1" stroke="#7f7542" points="16,-135.5 16,-150.5 62,-150.5 62,-135.5 16,-135.5"/>
<text text-anchor="middle" x="39" y="-139.3" font-family="Times,serif" font-size="14.00">ℕ = ω</text>
</a>
</g>
</g>
<!-- c_0_58&#45;&gt;c_0_106 -->
<g id="edge3" class="edge">
<title>c_0_58&#45;&gt;c_0_106</title>
<path fill="none" stroke="black" d="M39,-135.31C39,-117.72 39,-76 39,-76 39,-76 69.43,-76 69.43,-76"/>
<polygon fill="black" stroke="black" points="69.43,-79.5 79.43,-76 69.43,-72.5 69.43,-79.5"/>
</g>
<!-- c_0_116 -->
<g id="node5" class="node">
<title>c_0_116</title>
<g id="a_node5"><a xlink:href="c_0_116.html" xlink:title="{sk₁ ∈ ℕ}" target="_parent">
<polygon fill="#fa6900" stroke="#7f7542" points="77,-16.5 77,-31.5 131,-31.5 131,-16.5 77,-16.5"/>
<text text-anchor="middle" x="104" y="-20.3" font-family="Times,serif" font-size="14.00">sk₁ ∈ ℕ</text>
</a>
</g>
</g>
<!-- c_0_106&#45;&gt;c_0_116 -->
<g id="edge4" class="edge">
<title>c_0_106&#45;&gt;c_0_116</title>
<path fill="none" stroke="black" stroke-dasharray="5,2" d="M104,-68.33C104,-68.33 104,-41.7 104,-41.7"/>
<polygon fill="black" stroke="black" points="107.5,-41.7 104,-31.7 100.5,-41.7 107.5,-41.7"/>
</g>
</g>
</svg>
