<?xml version="1.0" encoding="UTF-8" standalone="no"?>
<!DOCTYPE svg PUBLIC "-//W3C//DTD SVG 1.1//EN"
 "http://www.w3.org/Graphics/SVG/1.1/DTD/svg11.dtd">
<!-- Generated by graphviz version 5.0.0 (0)
 -->
<!-- Title: proof Pages: 1 -->
<svg width="1107pt" height="250pt"
 viewBox="0.00 0.00 1107.00 250.00" xmlns="http://www.w3.org/2000/svg" xmlns:xlink="http://www.w3.org/1999/xlink">
<g id="graph0" class="graph" transform="scale(1 1) rotate(0) translate(4 246)">
<title>proof</title>
<g id="clust1" class="cluster">
<title>cluster_0</title>
<polygon fill="transparent" stroke="black" stroke-dasharray="1,5" points="512,-157 512,-234 770,-234 770,-157 512,-157"/>
</g>
<g id="clust2" class="cluster">
<title>cluster_1</title>
<polygon fill="transparent" stroke="black" stroke-width="2" points="642,-105 642,-137 700,-137 700,-105 642,-105"/>
</g>
<g id="clust3" class="cluster">
<title>cluster_2</title>
<polygon fill="transparent" stroke="black" stroke-dasharray="1,5" points="8,-8 8,-85 1091,-85 1091,-8 8,-8"/>
</g>
<!-- c_0_127 -->
<g id="node1" class="node">
<title>c_0_127</title>
<g id="a_node1"><a xlink:href="c_0_127.html" xlink:title="{ℕ ⊆ ℕ}" target="_parent">
<polygon fill="#f8edd1" stroke="#7f7542" points="714.5,-188 714.5,-203 761.5,-203 761.5,-188 714.5,-188"/>
<text text-anchor="middle" x="738" y="-191.8" font-family="Times,serif" font-size="14.00">ℕ ⊆ ℕ</text>
</a>
</g>
</g>
<!-- c_0_64 -->
<g id="node4" class="node">
<title>c_0_64</title>
<g id="a_node4"><a xlink:href="c_0_64.html" xlink:title="{2 ∈ ℕ}" target="_parent">
<polygon fill="#f8edd1" stroke="#7f7542" points="650,-113.5 650,-128.5 692,-128.5 692,-113.5 650,-113.5"/>
<text text-anchor="middle" x="671" y="-117.3" font-family="Times,serif" font-size="14.00">2 ∈ ℕ</text>
</a>
</g>
</g>
<!-- c_0_127&#45;&gt;c_0_64 -->
<g id="edge1" class="edge">
<title>c_0_127&#45;&gt;c_0_64</title>
<path fill="none" stroke="black" d="M738,-187.74C738,-169.04 738,-123 738,-123 738,-123 702.2,-123 702.2,-123"/>
<polygon fill="black" stroke="black" points="702.2,-119.5 692.2,-123 702.2,-126.5 702.2,-119.5"/>
</g>
<!-- c_0_126 -->
<g id="node2" class="node">
<title>c_0_126</title>
<g id="a_node2"><a xlink:href="c_0_126.html" xlink:title="{X₁ ⊆ ℕ|X₂ ∈ X₁|⇊|X₂ ∈ ℕ}" target="_parent">
<polygon fill="#f8edd1" stroke="#7f7542" points="646,-165.5 646,-225.5 696,-225.5 696,-165.5 646,-165.5"/>
<text text-anchor="middle" x="671" y="-214.3" font-family="Times,serif" font-size="14.00">X₁ ⊆ ℕ</text>
<polyline fill="none" stroke="#7f7542" points="646,-210.5 696,-210.5 "/>
<text text-anchor="middle" x="671" y="-199.3" font-family="Times,serif" font-size="14.00">X₂ ∈ X₁</text>
<polyline fill="none" stroke="#7f7542" points="646,-195.5 696,-195.5 "/>
<text text-anchor="middle" x="671" y="-184.3" font-family="Times,serif" font-size="14.00">⇊</text>
<polyline fill="none" stroke="#7f7542" points="646,-180.5 696,-180.5 "/>
<text text-anchor="middle" x="671" y="-169.3" font-family="Times,serif" font-size="14.00">X₂ ∈ ℕ</text>
</a>
</g>
</g>
<!-- c_0_126&#45;&gt;c_0_64 -->
<g id="edge2" class="edge">
<title>c_0_126&#45;&gt;c_0_64</title>
<path fill="none" stroke="black" d="M671,-165.2C671,-165.2 671,-138.59 671,-138.59"/>
<polygon fill="black" stroke="black" points="674.5,-138.59 671,-128.59 667.5,-138.59 674.5,-138.59"/>
</g>
<!-- spc2_numerals -->
<g id="node3" class="node">
<title>spc2_numerals</title>
<g id="a_node3"><a xlink:href="spc2_numerals.html" xlink:title="spc2_numerals" target="_parent">
<polygon fill="#69d2e7" stroke="#7f7542" points="520.5,-188 520.5,-203 627.5,-203 627.5,-188 520.5,-188"/>
<text text-anchor="middle" x="574" y="-191.8" font-family="Times,serif" font-size="14.00">spc2_numerals</text>
</a>
</g>
</g>
<!-- spc2_numerals&#45;&gt;c_0_64 -->
<g id="edge3" class="edge">
<title>spc2_numerals&#45;&gt;c_0_64</title>
<path fill="none" stroke="black" d="M574,-187.81C574,-168.77 574,-121 574,-121 574,-121 639.95,-121 639.95,-121"/>
<polygon fill="black" stroke="black" points="639.95,-124.5 649.95,-121 639.95,-117.5 639.95,-124.5"/>
</g>
<!-- c_0_137 -->
<g id="node5" class="node">
<title>c_0_137</title>
<g id="a_node5"><a xlink:href="c_0_137.html" xlink:title="{¬ (Fib(sk₁) ∈ ℕ)}" target="_parent">
<polygon fill="#fa6900" stroke="#7f7542" points="967.5,-39 967.5,-54 1082.5,-54 1082.5,-39 967.5,-39"/>
<text text-anchor="middle" x="1025" y="-42.8" font-family="Times,serif" font-size="14.00">¬ (Fib(sk₁) ∈ ℕ)</text>
</a>
</g>
</g>
<!-- c_0_64&#45;&gt;c_0_137 -->
<g id="edge4" class="edge">
<title>c_0_64&#45;&gt;c_0_137</title>
<path fill="none" stroke="black" stroke-dasharray="5,2" d="M692.08,-118C768.29,-118 1025,-118 1025,-118 1025,-118 1025,-64.15 1025,-64.15"/>
<polygon fill="black" stroke="black" points="1028.5,-64.15 1025,-54.15 1021.5,-64.15 1028.5,-64.15"/>
</g>
<!-- c_0_70 -->
<g id="node6" class="node">
<title>c_0_70</title>
<g id="a_node6"><a xlink:href="c_0_70.html" xlink:title="{X₁ ∈ ℕ|⇊|&#45;(to_power(tau,X₁ * 2),to_power(to_power(tau_bar,X₁),2)) / sqrt(5) = Fib(X₁ * 2)}" target="_parent">
<polygon fill="#f8edd1" stroke="#7f7542" points="392.5,-24 392.5,-69 949.5,-69 949.5,-24 392.5,-24"/>
<text text-anchor="middle" x="671" y="-57.8" font-family="Times,serif" font-size="14.00">X₁ ∈ ℕ</text>
<polyline fill="none" stroke="#7f7542" points="392.5,-54 949.5,-54 "/>
<text text-anchor="middle" x="671" y="-42.8" font-family="Times,serif" font-size="14.00">⇊</text>
<polyline fill="none" stroke="#7f7542" points="392.5,-39 949.5,-39 "/>
<text text-anchor="middle" x="671" y="-27.8" font-family="Times,serif" font-size="14.00">&#45;(to_power(tau,X₁ * 2),to_power(to_power(tau_bar,X₁),2)) / sqrt(5) = Fib(X₁ * 2)</text>
</a>
</g>
</g>
<!-- c_0_64&#45;&gt;c_0_70 -->
<g id="edge5" class="edge">
<title>c_0_64&#45;&gt;c_0_70</title>
<path fill="none" stroke="black" stroke-dasharray="5,2" d="M678,-113.31C678,-113.31 678,-79.13 678,-79.13"/>
<polygon fill="black" stroke="black" points="681.5,-79.13 678,-69.13 674.5,-79.13 681.5,-79.13"/>
</g>
<!-- c_0_71 -->
<g id="node7" class="node">
<title>c_0_71</title>
<g id="a_node7"><a xlink:href="c_0_71.html" xlink:title="{X₂ ∈ ℕ|⇊|R₁ = Ø|to_power(R₁,X₂ * 2) = to_power(to_power(R₁,X₂),2)}" target="_parent">
<polygon fill="#f8edd1" stroke="#7f7542" points="16,-16.5 16,-76.5 374,-76.5 374,-16.5 16,-16.5"/>
<text text-anchor="middle" x="195" y="-65.3" font-family="Times,serif" font-size="14.00">X₂ ∈ ℕ</text>
<polyline fill="none" stroke="#7f7542" points="16,-61.5 374,-61.5 "/>
<text text-anchor="middle" x="195" y="-50.3" font-family="Times,serif" font-size="14.00">⇊</text>
<polyline fill="none" stroke="#7f7542" points="16,-46.5 374,-46.5 "/>
<text text-anchor="middle" x="195" y="-35.3" font-family="Times,serif" font-size="14.00">R₁ = Ø</text>
<polyline fill="none" stroke="#7f7542" points="16,-31.5 374,-31.5 "/>
<text text-anchor="middle" x="195" y="-20.3" font-family="Times,serif" font-size="14.00">to_power(R₁,X₂ * 2) = to_power(to_power(R₁,X₂),2)</text>
</a>
</g>
</g>
<!-- c_0_64&#45;&gt;c_0_71 -->
<g id="edge6" class="edge">
<title>c_0_64&#45;&gt;c_0_71</title>
<path fill="none" stroke="black" stroke-dasharray="5,2" d="M664,-113.07C664,-99.44 664,-73 664,-73 664,-73 384.32,-73 384.32,-73"/>
<polygon fill="black" stroke="black" points="384.32,-69.5 374.32,-73 384.32,-76.5 384.32,-69.5"/>
</g>
</g>
</svg>
