<?xml version="1.0" encoding="UTF-8" standalone="no"?>
<!DOCTYPE svg PUBLIC "-//W3C//DTD SVG 1.1//EN"
 "http://www.w3.org/Graphics/SVG/1.1/DTD/svg11.dtd">
<!-- Generated by graphviz version 5.0.0 (0)
 -->
<!-- Title: proof Pages: 1 -->
<svg width="488pt" height="235pt"
 viewBox="0.00 0.00 488.00 235.00" xmlns="http://www.w3.org/2000/svg" xmlns:xlink="http://www.w3.org/1999/xlink">
<g id="graph0" class="graph" transform="scale(1 1) rotate(0) translate(4 231)">
<title>proof</title>
<g id="clust1" class="cluster">
<title>cluster_0</title>
<polygon fill="transparent" stroke="black" stroke-dasharray="1,5" points="140,-142 140,-219 316,-219 316,-142 140,-142"/>
</g>
<g id="clust2" class="cluster">
<title>cluster_1</title>
<polygon fill="transparent" stroke="black" stroke-width="2" points="184,-90 184,-122 296,-122 296,-90 184,-90"/>
</g>
<g id="clust3" class="cluster">
<title>cluster_2</title>
<polygon fill="transparent" stroke="black" stroke-dasharray="1,5" points="8,-8 8,-70 472,-70 472,-8 8,-8"/>
</g>
<!-- c_0_67 -->
<g id="node1" class="node">
<title>c_0_67</title>
<g id="a_node1"><a xlink:href="c_0_67.html" xlink:title="{X₁ &amp;gt; 0|X₁ = Ø|⇊|⊥}" target="_vizar">
<polygon fill="#f8edd1" stroke="#7f7542" points="260,-150.5 260,-210.5 308,-210.5 308,-150.5 260,-150.5"/>
<text text-anchor="middle" x="284" y="-199.3" font-family="Times,serif" font-size="14.00">X₁ &gt; 0</text>
<polyline fill="none" stroke="#7f7542" points="260,-195.5 308,-195.5 "/>
<text text-anchor="middle" x="284" y="-184.3" font-family="Times,serif" font-size="14.00">X₁ = Ø</text>
<polyline fill="none" stroke="#7f7542" points="260,-180.5 308,-180.5 "/>
<text text-anchor="middle" x="284" y="-169.3" font-family="Times,serif" font-size="14.00">⇊</text>
<polyline fill="none" stroke="#7f7542" points="260,-165.5 308,-165.5 "/>
<text text-anchor="middle" x="284" y="-154.3" font-family="Times,serif" font-size="14.00">⊥</text>
</a>
</g>
</g>
<!-- c_0_73 -->
<g id="node3" class="node">
<title>c_0_73</title>
<g id="a_node3"><a xlink:href="c_0_73.html" xlink:title="{½(1+√5) ≠ Ø}" target="_vizar">
<polygon fill="#f8edd1" stroke="#7f7542" points="192,-98.5 192,-113.5 288,-113.5 288,-98.5 192,-98.5"/>
<text text-anchor="middle" x="240" y="-102.3" font-family="Times,serif" font-size="14.00">½(1+√5) ≠ Ø</text>
</a>
</g>
</g>
<!-- c_0_67&#45;&gt;c_0_73 -->
<g id="edge1" class="edge">
<title>c_0_67&#45;&gt;c_0_73</title>
<path fill="none" stroke="black" d="M274,-150.2C274,-150.2 274,-123.59 274,-123.59"/>
<polygon fill="black" stroke="black" points="277.5,-123.59 274,-113.59 270.5,-123.59 277.5,-123.59"/>
</g>
<!-- c_0_68 -->
<g id="node2" class="node">
<title>c_0_68</title>
<g id="a_node2"><a xlink:href="c_0_68.html" xlink:title="{½(1+√5) &amp;gt; 0}" target="_vizar">
<polygon fill="#f8edd1" stroke="#7f7542" points="148,-173 148,-188 242,-188 242,-173 148,-173"/>
<text text-anchor="middle" x="195" y="-176.8" font-family="Times,serif" font-size="14.00">½(1+√5) &gt; 0</text>
</a>
</g>
</g>
<!-- c_0_68&#45;&gt;c_0_73 -->
<g id="edge2" class="edge">
<title>c_0_68&#45;&gt;c_0_73</title>
<path fill="none" stroke="black" d="M217,-172.81C217,-172.81 217,-123.76 217,-123.76"/>
<polygon fill="black" stroke="black" points="220.5,-123.76 217,-113.76 213.5,-123.76 220.5,-123.76"/>
</g>
<!-- c_0_77 -->
<g id="node4" class="node">
<title>c_0_77</title>
<g id="a_node4"><a xlink:href="c_0_77.html" xlink:title="{X₁ ∈ ℕ|⇊|(((½(1+√5) ^ X₁) ^ 2) &#45; ((½(1&#45;√5) ^ X₁) ^ 2)) / (√5) = fib(X₁ * 2)}" target="_vizar">
<polygon fill="#f8edd1" stroke="#7f7542" points="16,-16.5 16,-61.5 464,-61.5 464,-16.5 16,-16.5"/>
<text text-anchor="middle" x="240" y="-50.3" font-family="Times,serif" font-size="14.00">X₁ ∈ ℕ</text>
<polyline fill="none" stroke="#7f7542" points="16,-46.5 464,-46.5 "/>
<text text-anchor="middle" x="240" y="-35.3" font-family="Times,serif" font-size="14.00">⇊</text>
<polyline fill="none" stroke="#7f7542" points="16,-31.5 464,-31.5 "/>
<text text-anchor="middle" x="240" y="-20.3" font-family="Times,serif" font-size="14.00">(((½(1+√5) ^ X₁) ^ 2) &#45; ((½(1&#45;√5) ^ X₁) ^ 2)) / (√5) = fib(X₁ * 2)</text>
</a>
</g>
</g>
<!-- c_0_73&#45;&gt;c_0_77 -->
<g id="edge3" class="edge">
<title>c_0_73&#45;&gt;c_0_77</title>
<path fill="none" stroke="black" stroke-dasharray="5,2" d="M240,-98.31C240,-98.31 240,-71.76 240,-71.76"/>
<polygon fill="black" stroke="black" points="243.5,-71.76 240,-61.76 236.5,-71.76 243.5,-71.76"/>
</g>
</g>
</svg>
