<?xml version="1.0" encoding="UTF-8" standalone="no"?>
<!DOCTYPE svg PUBLIC "-//W3C//DTD SVG 1.1//EN"
 "http://www.w3.org/Graphics/SVG/1.1/DTD/svg11.dtd">
<!-- Generated by graphviz version 5.0.0 (0)
 -->
<!-- Title: proof Pages: 1 -->
<svg width="683pt" height="280pt"
 viewBox="0.00 0.00 683.00 280.00" xmlns="http://www.w3.org/2000/svg" xmlns:xlink="http://www.w3.org/1999/xlink">
<g id="graph0" class="graph" transform="scale(1 1) rotate(0) translate(4 276)">
<title>proof</title>
<g id="clust1" class="cluster">
<title>cluster_0</title>
<polygon fill="transparent" stroke="black" stroke-dasharray="1,5" points="8,-172 8,-264 667,-264 667,-172 8,-172"/>
</g>
<g id="clust2" class="cluster">
<title>cluster_1</title>
<polygon fill="transparent" stroke="black" stroke-width="2" points="332,-120 332,-152 432,-152 432,-120 332,-120"/>
</g>
<g id="clust3" class="cluster">
<title>cluster_2</title>
<polygon fill="transparent" stroke="black" stroke-dasharray="1,5" points="329,-8 329,-100 435,-100 435,-8 329,-8"/>
</g>
<!-- c_0_126 -->
<g id="node1" class="node">
<title>c_0_126</title>
<g id="a_node1"><a xlink:href="c_0_126.html" xlink:title="{Xâ‚ âŠ† â„•|Xâ‚‚ âˆˆ Xâ‚|â‡Š|Xâ‚‚ âˆˆ â„•}" target="_vizar">
<polygon fill="#f8edd1" stroke="#7f7542" points="609,-188 609,-248 659,-248 659,-188 609,-188"/>
<text text-anchor="middle" x="634" y="-236.8" font-family="Times,serif" font-size="14.00">Xâ‚ âŠ† â„•</text>
<polyline fill="none" stroke="#7f7542" points="609,-233 659,-233 "/>
<text text-anchor="middle" x="634" y="-221.8" font-family="Times,serif" font-size="14.00">Xâ‚‚ âˆˆ Xâ‚</text>
<polyline fill="none" stroke="#7f7542" points="609,-218 659,-218 "/>
<text text-anchor="middle" x="634" y="-206.8" font-family="Times,serif" font-size="14.00">â‡Š</text>
<polyline fill="none" stroke="#7f7542" points="609,-203 659,-203 "/>
<text text-anchor="middle" x="634" y="-191.8" font-family="Times,serif" font-size="14.00">Xâ‚‚ âˆˆ â„•</text>
</a>
</g>
</g>
<!-- c_0_136 -->
<g id="node8" class="node">
<title>c_0_136</title>
<g id="a_node8"><a xlink:href="c_0_136.html" xlink:title="{Nâ‚ * Nâ‚‚ âˆˆ â„•}" target="_vizar">
<polygon fill="#f8edd1" stroke="#7f7542" points="340.5,-128.5 340.5,-143.5 423.5,-143.5 423.5,-128.5 340.5,-128.5"/>
<text text-anchor="middle" x="382" y="-132.3" font-family="Times,serif" font-size="14.00">Nâ‚ * Nâ‚‚ âˆˆ â„•</text>
</a>
</g>
</g>
<!-- c_0_126&#45;&gt;c_0_136 -->
<g id="edge1" class="edge">
<title>c_0_126&#45;&gt;c_0_136</title>
<path fill="none" stroke="black" d="M634,-187.92C634,-163.12 634,-132 634,-132 634,-132 433.61,-132 433.61,-132"/>
<polygon fill="black" stroke="black" points="433.61,-128.5 423.61,-132 433.61,-135.5 433.61,-128.5"/>
</g>
<!-- c_0_131 -->
<g id="node2" class="node">
<title>c_0_131</title>
<g id="a_node2"><a xlink:href="c_0_131.html" xlink:title="{â„• âˆˆ ğ’«(â„)}" target="_vizar">
<polygon fill="#f8edd1" stroke="#7f7542" points="523.5,-210.5 523.5,-225.5 590.5,-225.5 590.5,-210.5 523.5,-210.5"/>
<text text-anchor="middle" x="557" y="-214.3" font-family="Times,serif" font-size="14.00">â„• âˆˆ ğ’«(â„)</text>
</a>
</g>
</g>
<!-- c_0_131&#45;&gt;c_0_136 -->
<g id="edge2" class="edge">
<title>c_0_131&#45;&gt;c_0_136</title>
<path fill="none" stroke="black" d="M557,-210.43C557,-190.13 557,-136 557,-136 557,-136 433.92,-136 433.92,-136"/>
<polygon fill="black" stroke="black" points="433.92,-132.5 423.92,-136 433.92,-139.5 433.92,-132.5"/>
</g>
<!-- c_0_127 -->
<g id="node3" class="node">
<title>c_0_127</title>
<g id="a_node3"><a xlink:href="c_0_127.html" xlink:title="{â„• âŠ† â„•}" target="_vizar">
<polygon fill="#f8edd1" stroke="#7f7542" points="458.5,-210.5 458.5,-225.5 505.5,-225.5 505.5,-210.5 458.5,-210.5"/>
<text text-anchor="middle" x="482" y="-214.3" font-family="Times,serif" font-size="14.00">â„• âŠ† â„•</text>
</a>
</g>
</g>
<!-- c_0_127&#45;&gt;c_0_136 -->
<g id="edge3" class="edge">
<title>c_0_127&#45;&gt;c_0_136</title>
<path fill="none" stroke="black" d="M482,-210.24C482,-190.51 482,-140 482,-140 482,-140 433.54,-140 433.54,-140"/>
<polygon fill="black" stroke="black" points="433.54,-136.5 423.54,-140 433.54,-143.5 433.54,-136.5"/>
</g>
<!-- c_0_130 -->
<g id="node4" class="node">
<title>c_0_130</title>
<g id="a_node4"><a xlink:href="c_0_130.html" xlink:title="{Nâ‚ * Nâ‚‚ âˆˆ â„• âŠ† â„}" target="_vizar">
<polygon fill="#f8edd1" stroke="#7f7542" points="324,-210.5 324,-225.5 440,-225.5 440,-210.5 324,-210.5"/>
<text text-anchor="middle" x="382" y="-214.3" font-family="Times,serif" font-size="14.00">Nâ‚ * Nâ‚‚ âˆˆ â„• âŠ† â„</text>
</a>
</g>
</g>
<!-- c_0_130&#45;&gt;c_0_136 -->
<g id="edge4" class="edge">
<title>c_0_130&#45;&gt;c_0_136</title>
<path fill="none" stroke="black" d="M395.83,-210.43C395.83,-210.43 395.83,-153.79 395.83,-153.79"/>
<polygon fill="black" stroke="black" points="399.33,-153.79 395.83,-143.79 392.33,-153.79 399.33,-153.79"/>
</g>
<!-- c_0_132 -->
<g id="node5" class="node">
<title>c_0_132</title>
<g id="a_node5"><a xlink:href="c_0_132.html" xlink:title="{â„• â‰  Ã˜}" target="_vizar">
<polygon fill="#f8edd1" stroke="#7f7542" points="260,-210.5 260,-225.5 306,-225.5 306,-210.5 260,-210.5"/>
<text text-anchor="middle" x="283" y="-214.3" font-family="Times,serif" font-size="14.00">â„• â‰  Ã˜</text>
</a>
</g>
</g>
<!-- c_0_132&#45;&gt;c_0_136 -->
<g id="edge5" class="edge">
<title>c_0_132&#45;&gt;c_0_136</title>
<path fill="none" stroke="black" d="M283,-210.33C283,-190.31 283,-138 283,-138 283,-138 330.3,-138 330.3,-138"/>
<polygon fill="black" stroke="black" points="330.3,-141.5 340.3,-138 330.3,-134.5 330.3,-141.5"/>
</g>
<!-- c_0_63 -->
<g id="node6" class="node">
<title>c_0_63</title>
<g id="a_node6"><a xlink:href="c_0_63.html" xlink:title="{Nâ‚ * Nâ‚‚ = Nâ‚‚ * Nâ‚}" target="_vizar">
<polygon fill="#f8edd1" stroke="#7f7542" points="120,-210.5 120,-225.5 242,-225.5 242,-210.5 120,-210.5"/>
<text text-anchor="middle" x="181" y="-214.3" font-family="Times,serif" font-size="14.00">Nâ‚ * Nâ‚‚ = Nâ‚‚ * Nâ‚</text>
</a>
</g>
</g>
<!-- c_0_63&#45;&gt;c_0_136 -->
<g id="edge6" class="edge">
<title>c_0_63&#45;&gt;c_0_136</title>
<path fill="none" stroke="black" d="M181,-210.46C181,-189.65 181,-133 181,-133 181,-133 330.35,-133 330.35,-133"/>
<polygon fill="black" stroke="black" points="330.35,-136.5 340.35,-133 330.35,-129.5 330.35,-136.5"/>
</g>
<!-- c_0_129 -->
<g id="node7" class="node">
<title>c_0_129</title>
<g id="a_node7"><a xlink:href="c_0_129.html" xlink:title="{Xâ‚ âˆˆ ğ’«(Xâ‚ƒ)|Xâ‚‚ âˆˆ Xâ‚ âŠ† Xâ‚ƒ|â‡Š|Xâ‚ = Ã˜|Xâ‚‚ âˆˆ Xâ‚}" target="_vizar">
<polygon fill="#f8edd1" stroke="#7f7542" points="16,-180.5 16,-255.5 102,-255.5 102,-180.5 16,-180.5"/>
<text text-anchor="middle" x="59" y="-244.3" font-family="Times,serif" font-size="14.00">Xâ‚ âˆˆ ğ’«(Xâ‚ƒ)</text>
<polyline fill="none" stroke="#7f7542" points="16,-240.5 102,-240.5 "/>
<text text-anchor="middle" x="59" y="-229.3" font-family="Times,serif" font-size="14.00">Xâ‚‚ âˆˆ Xâ‚ âŠ† Xâ‚ƒ</text>
<polyline fill="none" stroke="#7f7542" points="16,-225.5 102,-225.5 "/>
<text text-anchor="middle" x="59" y="-214.3" font-family="Times,serif" font-size="14.00">â‡Š</text>
<polyline fill="none" stroke="#7f7542" points="16,-210.5 102,-210.5 "/>
<text text-anchor="middle" x="59" y="-199.3" font-family="Times,serif" font-size="14.00">Xâ‚ = Ã˜</text>
<polyline fill="none" stroke="#7f7542" points="16,-195.5 102,-195.5 "/>
<text text-anchor="middle" x="59" y="-184.3" font-family="Times,serif" font-size="14.00">Xâ‚‚ âˆˆ Xâ‚</text>
</a>
</g>
</g>
<!-- c_0_129&#45;&gt;c_0_136 -->
<g id="edge7" class="edge">
<title>c_0_129&#45;&gt;c_0_136</title>
<path fill="none" stroke="black" d="M102.31,-183C187.4,-183 368.17,-183 368.17,-183 368.17,-183 368.17,-153.76 368.17,-153.76"/>
<polygon fill="black" stroke="black" points="371.67,-153.76 368.17,-143.76 364.67,-153.76 371.67,-153.76"/>
</g>
<!-- c_0_145 -->
<g id="node9" class="node">
<title>c_0_145</title>
<g id="a_node9"><a xlink:href="c_0_145.html" xlink:title="{Ï„âº ^ skâ‚ âˆˆ â„|Ï„â» ^ skâ‚ âˆˆ â„|âˆš5 âˆˆ â„‚|â‡Š|fib(skâ‚) âˆ‰ â„•}" target="_vizar">
<polygon fill="#fa6900" stroke="#7f7542" points="337.5,-16.5 337.5,-91.5 426.5,-91.5 426.5,-16.5 337.5,-16.5"/>
<text text-anchor="middle" x="382" y="-80.3" font-family="Times,serif" font-size="14.00">Ï„âº ^ skâ‚ âˆˆ â„</text>
<polyline fill="none" stroke="#7f7542" points="337.5,-76.5 426.5,-76.5 "/>
<text text-anchor="middle" x="382" y="-65.3" font-family="Times,serif" font-size="14.00">Ï„â» ^ skâ‚ âˆˆ â„</text>
<polyline fill="none" stroke="#7f7542" points="337.5,-61.5 426.5,-61.5 "/>
<text text-anchor="middle" x="382" y="-50.3" font-family="Times,serif" font-size="14.00">âˆš5 âˆˆ â„‚</text>
<polyline fill="none" stroke="#7f7542" points="337.5,-46.5 426.5,-46.5 "/>
<text text-anchor="middle" x="382" y="-35.3" font-family="Times,serif" font-size="14.00">â‡Š</text>
<polyline fill="none" stroke="#7f7542" points="337.5,-31.5 426.5,-31.5 "/>
<text text-anchor="middle" x="382" y="-20.3" font-family="Times,serif" font-size="14.00">fib(skâ‚) âˆ‰ â„•</text>
</a>
</g>
</g>
<!-- c_0_136&#45;&gt;c_0_145 -->
<g id="edge8" class="edge">
<title>c_0_136&#45;&gt;c_0_145</title>
<path fill="none" stroke="black" stroke-dasharray="5,2" d="M382,-128.43C382,-128.43 382,-101.67 382,-101.67"/>
<polygon fill="black" stroke="black" points="385.5,-101.67 382,-91.67 378.5,-101.67 385.5,-101.67"/>
</g>
</g>
</svg>
