<?xml version="1.0" encoding="UTF-8" standalone="no"?>
<!DOCTYPE svg PUBLIC "-//W3C//DTD SVG 1.1//EN"
 "http://www.w3.org/Graphics/SVG/1.1/DTD/svg11.dtd">
<!-- Generated by graphviz version 5.0.0 (0)
 -->
<!-- Title: proof Pages: 1 -->
<svg width="576pt" height="190pt"
 viewBox="0.00 0.00 576.00 190.00" xmlns="http://www.w3.org/2000/svg" xmlns:xlink="http://www.w3.org/1999/xlink">
<g id="graph0" class="graph" transform="scale(1 1) rotate(0) translate(4 186)">
<title>proof</title>
<g id="clust1" class="cluster">
<title>cluster_0</title>
<polygon fill="transparent" stroke="black" stroke-dasharray="1,5" points="227,-142 227,-174 341,-174 341,-142 227,-142"/>
</g>
<g id="clust2" class="cluster">
<title>cluster_1</title>
<polygon fill="transparent" stroke="black" stroke-width="2" points="173,-90 173,-122 395,-122 395,-90 173,-90"/>
</g>
<g id="clust3" class="cluster">
<title>cluster_2</title>
<polygon fill="transparent" stroke="black" stroke-dasharray="1,5" points="8,-8 8,-70 560,-70 560,-8 8,-8"/>
</g>
<!-- t74_xcmplx_1 -->
<g id="node1" class="node">
<title>t74_xcmplx_1</title>
<g id="a_node1"><a xlink:href="t74_xcmplx_1.html" xlink:title="t74_xcmplx_1" target="_parent">
<polygon fill="#69d2e7" stroke="#7f7542" points="235,-150.5 235,-165.5 333,-165.5 333,-150.5 235,-150.5"/>
<text text-anchor="middle" x="284" y="-154.3" font-family="Times,serif" font-size="14.00">t74_xcmplx_1</text>
</a>
</g>
</g>
<!-- c_0_92 -->
<g id="node2" class="node">
<title>c_0_92</title>
<g id="a_node2"><a xlink:href="c_0_92.html" xlink:title="{N₁ * (N₂ / N₃) = (N₁ * N₂) / N₃}" target="_parent">
<polygon fill="#f8edd1" stroke="#7f7542" points="181.5,-98.5 181.5,-113.5 386.5,-113.5 386.5,-98.5 181.5,-98.5"/>
<text text-anchor="middle" x="284" y="-102.3" font-family="Times,serif" font-size="14.00">N₁ * (N₂ / N₃) = (N₁ * N₂) / N₃</text>
</a>
</g>
</g>
<!-- t74_xcmplx_1&#45;&gt;c_0_92 -->
<g id="edge1" class="edge">
<title>t74_xcmplx_1&#45;&gt;c_0_92</title>
<path fill="none" stroke="black" d="M284,-150.33C284,-150.33 284,-123.7 284,-123.7"/>
<polygon fill="black" stroke="black" points="287.5,-123.7 284,-113.7 280.5,-123.7 287.5,-123.7"/>
</g>
<!-- c_0_102 -->
<g id="node3" class="node">
<title>c_0_102</title>
<g id="a_node3"><a xlink:href="c_0_102.html" xlink:title="{X₁ ∈ ℕ|⇊|Lucas(X₁) * (&#45;(to_power(tau,X₁),to_power(tau_bar,X₁)) / sqrt(5)) = Fib(X₁ * 2)}" target="_parent">
<polygon fill="#f8edd1" stroke="#7f7542" points="16,-16.5 16,-61.5 552,-61.5 552,-16.5 16,-16.5"/>
<text text-anchor="middle" x="284" y="-50.3" font-family="Times,serif" font-size="14.00">X₁ ∈ ℕ</text>
<polyline fill="none" stroke="#7f7542" points="16,-46.5 552,-46.5 "/>
<text text-anchor="middle" x="284" y="-35.3" font-family="Times,serif" font-size="14.00">⇊</text>
<polyline fill="none" stroke="#7f7542" points="16,-31.5 552,-31.5 "/>
<text text-anchor="middle" x="284" y="-20.3" font-family="Times,serif" font-size="14.00">Lucas(X₁) * (&#45;(to_power(tau,X₁),to_power(tau_bar,X₁)) / sqrt(5)) = Fib(X₁ * 2)</text>
</a>
</g>
</g>
<!-- c_0_92&#45;&gt;c_0_102 -->
<g id="edge2" class="edge">
<title>c_0_92&#45;&gt;c_0_102</title>
<path fill="none" stroke="black" stroke-dasharray="5,2" d="M284,-98.31C284,-98.31 284,-71.76 284,-71.76"/>
<polygon fill="black" stroke="black" points="287.5,-71.76 284,-61.76 280.5,-71.76 287.5,-71.76"/>
</g>
</g>
</svg>
