<?xml version="1.0" encoding="UTF-8" standalone="no"?>
<!DOCTYPE svg PUBLIC "-//W3C//DTD SVG 1.1//EN"
 "http://www.w3.org/Graphics/SVG/1.1/DTD/svg11.dtd">
<!-- Generated by graphviz version 5.0.0 (0)
 -->
<!-- Title: proof Pages: 1 -->
<svg width="350pt" height="205pt"
 viewBox="0.00 0.00 350.00 205.00" xmlns="http://www.w3.org/2000/svg" xmlns:xlink="http://www.w3.org/1999/xlink">
<g id="graph0" class="graph" transform="scale(1 1) rotate(0) translate(4 201)">
<title>proof</title>
<g id="clust1" class="cluster">
<title>cluster_0</title>
<polygon fill="transparent" stroke="black" stroke-dasharray="1,5" points="150,-157 150,-189 264,-189 264,-157 150,-157"/>
</g>
<g id="clust2" class="cluster">
<title>cluster_1</title>
<polygon fill="transparent" stroke="black" stroke-width="2" points="174,-105 174,-137 240,-137 240,-105 174,-105"/>
</g>
<g id="clust3" class="cluster">
<title>cluster_2</title>
<polygon fill="transparent" stroke="black" stroke-dasharray="1,5" points="8,-8 8,-85 334,-85 334,-8 8,-8"/>
</g>
<!-- cc2_xcmplx_0 -->
<g id="node1" class="node">
<title>cc2_xcmplx_0</title>
<g id="a_node1"><a xlink:href="cc2_xcmplx_0.html" xlink:title="cc2_xcmplx_0" target="_vizar">
<polygon fill="#69d2e7" stroke="#7f7542" points="158,-165.5 158,-180.5 256,-180.5 256,-165.5 158,-165.5"/>
<text text-anchor="middle" x="207" y="-169.3" font-family="Times,serif" font-size="14.00">cc2_xcmplx_0</text>
</a>
</g>
</g>
<!-- c_0_101 -->
<g id="node2" class="node">
<title>c_0_101</title>
<g id="a_node2"><a xlink:href="c_0_101.html" xlink:title="{N₁ ∈ ℂ}" target="_vizar">
<polygon fill="#f8edd1" stroke="#7f7542" points="182.5,-113.5 182.5,-128.5 231.5,-128.5 231.5,-113.5 182.5,-113.5"/>
<text text-anchor="middle" x="207" y="-117.3" font-family="Times,serif" font-size="14.00">N₁ ∈ ℂ</text>
</a>
</g>
</g>
<!-- cc2_xcmplx_0&#45;&gt;c_0_101 -->
<g id="edge1" class="edge">
<title>cc2_xcmplx_0&#45;&gt;c_0_101</title>
<path fill="none" stroke="black" d="M207,-165.33C207,-165.33 207,-138.7 207,-138.7"/>
<polygon fill="black" stroke="black" points="210.5,-138.7 207,-128.7 203.5,-138.7 210.5,-138.7"/>
</g>
<!-- c_0_112 -->
<g id="node3" class="node">
<title>c_0_112</title>
<g id="a_node3"><a xlink:href="c_0_112.html" xlink:title="{X₁ ∈ ℕ|⇊|X₁ ∈ ℂ}" target="_vizar">
<polygon fill="#f8edd1" stroke="#7f7542" points="278,-24 278,-69 326,-69 326,-24 278,-24"/>
<text text-anchor="middle" x="302" y="-57.8" font-family="Times,serif" font-size="14.00">X₁ ∈ ℕ</text>
<polyline fill="none" stroke="#7f7542" points="278,-54 326,-54 "/>
<text text-anchor="middle" x="302" y="-42.8" font-family="Times,serif" font-size="14.00">⇊</text>
<polyline fill="none" stroke="#7f7542" points="278,-39 326,-39 "/>
<text text-anchor="middle" x="302" y="-27.8" font-family="Times,serif" font-size="14.00">X₁ ∈ ℂ</text>
</a>
</g>
</g>
<!-- c_0_101&#45;&gt;c_0_112 -->
<g id="edge2" class="edge">
<title>c_0_101&#45;&gt;c_0_112</title>
<path fill="none" stroke="black" stroke-dasharray="5,2" d="M231.96,-121C260.11,-121 302,-121 302,-121 302,-121 302,-79.26 302,-79.26"/>
<polygon fill="black" stroke="black" points="305.5,-79.26 302,-69.26 298.5,-79.26 305.5,-79.26"/>
</g>
<!-- c_0_123 -->
<g id="node4" class="node">
<title>c_0_123</title>
<g id="a_node4"><a xlink:href="c_0_123.html" xlink:title="{Fib(sk₁) ∈ ℕ|Lucas(sk₁) * Fib(sk₁) = Fib(2 * sk₁)|⇊|⊥}" target="_vizar">
<polygon fill="#fa6900" stroke="#7f7542" points="16,-16.5 16,-76.5 260,-76.5 260,-16.5 16,-16.5"/>
<text text-anchor="middle" x="138" y="-65.3" font-family="Times,serif" font-size="14.00">Fib(sk₁) ∈ ℕ</text>
<polyline fill="none" stroke="#7f7542" points="16,-61.5 260,-61.5 "/>
<text text-anchor="middle" x="138" y="-50.3" font-family="Times,serif" font-size="14.00">Lucas(sk₁) * Fib(sk₁) = Fib(2 * sk₁)</text>
<polyline fill="none" stroke="#7f7542" points="16,-46.5 260,-46.5 "/>
<text text-anchor="middle" x="138" y="-35.3" font-family="Times,serif" font-size="14.00">⇊</text>
<polyline fill="none" stroke="#7f7542" points="16,-31.5 260,-31.5 "/>
<text text-anchor="middle" x="138" y="-20.3" font-family="Times,serif" font-size="14.00">⊥</text>
</a>
</g>
</g>
<!-- c_0_101&#45;&gt;c_0_123 -->
<g id="edge3" class="edge">
<title>c_0_101&#45;&gt;c_0_123</title>
<path fill="none" stroke="black" stroke-dasharray="5,2" d="M207,-113.31C207,-113.31 207,-86.51 207,-86.51"/>
<polygon fill="black" stroke="black" points="210.5,-86.51 207,-76.51 203.5,-86.51 210.5,-86.51"/>
</g>
</g>
</svg>
