<?xml version="1.0" encoding="UTF-8" standalone="no"?>
<!DOCTYPE svg PUBLIC "-//W3C//DTD SVG 1.1//EN"
 "http://www.w3.org/Graphics/SVG/1.1/DTD/svg11.dtd">
<!-- Generated by graphviz version 5.0.0 (0)
 -->
<!-- Title: proof Pages: 1 -->
<svg width="134pt" height="108pt"
 viewBox="0.00 0.00 134.00 108.00" xmlns="http://www.w3.org/2000/svg" xmlns:xlink="http://www.w3.org/1999/xlink">
<g id="graph0" class="graph" transform="scale(1 1) rotate(0) translate(4 104)">
<title>proof</title>
<g id="clust1" class="cluster">
<title>cluster_1</title>
<polygon fill="transparent" stroke="black" stroke-width="2" points="8,-60 8,-92 118,-92 118,-60 8,-60"/>
</g>
<g id="clust2" class="cluster">
<title>cluster_2</title>
<polygon fill="transparent" stroke="black" stroke-dasharray="1,5" points="31,-8 31,-40 95,-40 95,-8 31,-8"/>
</g>
<!-- d12_ordinal1 -->
<g id="node1" class="node">
<title>d12_ordinal1</title>
<g id="a_node1"><a xlink:href="d12_ordinal1.html" xlink:title="d12_ordinal1" target="_parent">
<polygon fill="#69d2e7" stroke="#7f7542" points="16,-68.5 16,-83.5 110,-83.5 110,-68.5 16,-68.5"/>
<text text-anchor="middle" x="63" y="-72.3" font-family="Times,serif" font-size="14.00">d12_ordinal1</text>
</a>
</g>
</g>
<!-- c_0_97 -->
<g id="node2" class="node">
<title>c_0_97</title>
<g id="a_node2"><a xlink:href="c_0_97.html" xlink:title="{C₁ ∈ ω}" target="_parent">
<polygon fill="#f8edd1" stroke="#7f7542" points="39.5,-16.5 39.5,-31.5 86.5,-31.5 86.5,-16.5 39.5,-16.5"/>
<text text-anchor="middle" x="63" y="-20.3" font-family="Times,serif" font-size="14.00">C₁ ∈ ω</text>
</a>
</g>
</g>
<!-- d12_ordinal1&#45;&gt;c_0_97 -->
<g id="edge1" class="edge">
<title>d12_ordinal1&#45;&gt;c_0_97</title>
<path fill="none" stroke="black" d="M63,-68.33C63,-68.33 63,-41.7 63,-41.7"/>
<polygon fill="black" stroke="black" points="66.5,-41.7 63,-31.7 59.5,-41.7 66.5,-41.7"/>
</g>
</g>
</svg>
