<?xml version="1.0" encoding="UTF-8" standalone="no"?>
<!DOCTYPE svg PUBLIC "-//W3C//DTD SVG 1.1//EN"
 "http://www.w3.org/Graphics/SVG/1.1/DTD/svg11.dtd">
<!-- Generated by graphviz version 5.0.0 (0)
 -->
<!-- Title: proof Pages: 1 -->
<svg width="152pt" height="138pt"
 viewBox="0.00 0.00 152.00 138.00" xmlns="http://www.w3.org/2000/svg" xmlns:xlink="http://www.w3.org/1999/xlink">
<g id="graph0" class="graph" transform="scale(1 1) rotate(0) translate(4 134)">
<title>proof</title>
<g id="clust1" class="cluster">
<title>cluster_1</title>
<polygon fill="transparent" stroke="black" stroke-width="2" points="21,-90 21,-122 123,-122 123,-90 21,-90"/>
</g>
<g id="clust2" class="cluster">
<title>cluster_2</title>
<polygon fill="transparent" stroke="black" stroke-dasharray="1,5" points="8,-8 8,-70 136,-70 136,-8 8,-8"/>
</g>
<!-- dt_k4_nat_1 -->
<g id="node1" class="node">
<title>dt_k4_nat_1</title>
<g id="a_node1"><a xlink:href="dt_k4_nat_1.html" xlink:title="dt_k4_nat_1" target="_parent">
<polygon fill="#69d2e7" stroke="#7f7542" points="29.5,-98.5 29.5,-113.5 114.5,-113.5 114.5,-98.5 29.5,-98.5"/>
<text text-anchor="middle" x="72" y="-102.3" font-family="Times,serif" font-size="14.00">dt_k4_nat_1</text>
</a>
</g>
</g>
<!-- c_0_130 -->
<g id="node2" class="node">
<title>c_0_130</title>
<g id="a_node2"><a xlink:href="c_0_130.html" xlink:title="{X₁ ∈ ℕ|⇊|X₁ * C₂ ∈ ℕ ⊆ ℝ}" target="_parent">
<polygon fill="#f8edd1" stroke="#7f7542" points="16,-16.5 16,-61.5 128,-61.5 128,-16.5 16,-16.5"/>
<text text-anchor="middle" x="72" y="-50.3" font-family="Times,serif" font-size="14.00">X₁ ∈ ℕ</text>
<polyline fill="none" stroke="#7f7542" points="16,-46.5 128,-46.5 "/>
<text text-anchor="middle" x="72" y="-35.3" font-family="Times,serif" font-size="14.00">⇊</text>
<polyline fill="none" stroke="#7f7542" points="16,-31.5 128,-31.5 "/>
<text text-anchor="middle" x="72" y="-20.3" font-family="Times,serif" font-size="14.00">X₁ * C₂ ∈ ℕ ⊆ ℝ</text>
</a>
</g>
</g>
<!-- dt_k4_nat_1&#45;&gt;c_0_130 -->
<g id="edge1" class="edge">
<title>dt_k4_nat_1&#45;&gt;c_0_130</title>
<path fill="none" stroke="black" d="M72,-98.31C72,-98.31 72,-71.76 72,-71.76"/>
<polygon fill="black" stroke="black" points="75.5,-71.76 72,-61.76 68.5,-71.76 75.5,-71.76"/>
</g>
</g>
</svg>
