<?xml version="1.0" encoding="UTF-8" standalone="no"?>
<!DOCTYPE svg PUBLIC "-//W3C//DTD SVG 1.1//EN"
 "http://www.w3.org/Graphics/SVG/1.1/DTD/svg11.dtd">
<!-- Generated by graphviz version 5.0.0 (0)
 -->
<!-- Title: proof Pages: 1 -->
<svg width="184pt" height="108pt"
 viewBox="0.00 0.00 184.00 108.00" xmlns="http://www.w3.org/2000/svg" xmlns:xlink="http://www.w3.org/1999/xlink">
<g id="graph0" class="graph" transform="scale(1 1) rotate(0) translate(4 104)">
<title>proof</title>
<g id="clust1" class="cluster">
<title>cluster_1</title>
<polygon fill="transparent" stroke="black" stroke-width="2" points="34,-60 34,-92 142,-92 142,-60 34,-60"/>
</g>
<g id="clust2" class="cluster">
<title>cluster_2</title>
<polygon fill="transparent" stroke="black" stroke-dasharray="1,5" points="8,-8 8,-40 168,-40 168,-8 8,-8"/>
</g>
<!-- dt_k3_power -->
<g id="node1" class="node">
<title>dt_k3_power</title>
<g id="a_node1"><a xlink:href="dt_k3_power.html" xlink:title="dt_k3_power" target="_parent">
<polygon fill="#69d2e7" stroke="#7f7542" points="42.5,-68.5 42.5,-83.5 133.5,-83.5 133.5,-68.5 42.5,-68.5"/>
<text text-anchor="middle" x="88" y="-72.3" font-family="Times,serif" font-size="14.00">dt_k3_power</text>
</a>
</g>
</g>
<!-- c_0_154 -->
<g id="node2" class="node">
<title>c_0_154</title>
<g id="a_node2"><a xlink:href="c_0_154.html" xlink:title="{to_power(R₁,R₂) ∈ ℝ}" target="_parent">
<polygon fill="#f8edd1" stroke="#7f7542" points="16,-16.5 16,-31.5 160,-31.5 160,-16.5 16,-16.5"/>
<text text-anchor="middle" x="88" y="-20.3" font-family="Times,serif" font-size="14.00">to_power(R₁,R₂) ∈ ℝ</text>
</a>
</g>
</g>
<!-- dt_k3_power&#45;&gt;c_0_154 -->
<g id="edge1" class="edge">
<title>dt_k3_power&#45;&gt;c_0_154</title>
<path fill="none" stroke="black" d="M88,-68.33C88,-68.33 88,-41.7 88,-41.7"/>
<polygon fill="black" stroke="black" points="91.5,-41.7 88,-31.7 84.5,-41.7 91.5,-41.7"/>
</g>
</g>
</svg>
