<?xml version="1.0" encoding="UTF-8" standalone="no"?>
<!DOCTYPE svg PUBLIC "-//W3C//DTD SVG 1.1//EN"
 "http://www.w3.org/Graphics/SVG/1.1/DTD/svg11.dtd">
<!-- Generated by graphviz version 5.0.0 (0)
 -->
<!-- Title: proof Pages: 1 -->
<svg width="152pt" height="108pt"
 viewBox="0.00 0.00 152.00 108.00" xmlns="http://www.w3.org/2000/svg" xmlns:xlink="http://www.w3.org/1999/xlink">
<g id="graph0" class="graph" transform="scale(1 1) rotate(0) translate(4 104)">
<title>proof</title>
<g id="clust1" class="cluster">
<title>cluster_1</title>
<polygon fill="transparent" stroke="black" stroke-width="2" points="8,-60 8,-92 136,-92 136,-60 8,-60"/>
</g>
<g id="clust2" class="cluster">
<title>cluster_2</title>
<polygon fill="transparent" stroke="black" stroke-dasharray="1,5" points="14,-8 14,-40 130,-40 130,-8 14,-8"/>
</g>
<!-- dt_k1_fib_num3 -->
<g id="node1" class="node">
<title>dt_k1_fib_num3</title>
<g id="a_node1"><a xlink:href="dt_k1_fib_num3.html" xlink:title="dt_k1_fib_num3" target="_parent">
<polygon fill="#69d2e7" stroke="#7f7542" points="16,-68.5 16,-83.5 128,-83.5 128,-68.5 16,-68.5"/>
<text text-anchor="middle" x="72" y="-72.3" font-family="Times,serif" font-size="14.00">dt_k1_fib_num3</text>
</a>
</g>
</g>
<!-- c_0_135 -->
<g id="node2" class="node">
<title>c_0_135</title>
<g id="a_node2"><a xlink:href="c_0_135.html" xlink:title="{Lucas(C₁) ∈ ℕ}" target="_parent">
<polygon fill="#f8edd1" stroke="#7f7542" points="22,-16.5 22,-31.5 122,-31.5 122,-16.5 22,-16.5"/>
<text text-anchor="middle" x="72" y="-20.3" font-family="Times,serif" font-size="14.00">Lucas(C₁) ∈ ℕ</text>
</a>
</g>
</g>
<!-- dt_k1_fib_num3&#45;&gt;c_0_135 -->
<g id="edge1" class="edge">
<title>dt_k1_fib_num3&#45;&gt;c_0_135</title>
<path fill="none" stroke="black" d="M72,-68.33C72,-68.33 72,-41.7 72,-41.7"/>
<polygon fill="black" stroke="black" points="75.5,-41.7 72,-31.7 68.5,-41.7 75.5,-41.7"/>
</g>
</g>
</svg>
