<?xml version="1.0" encoding="UTF-8" standalone="no"?>
<!DOCTYPE svg PUBLIC "-//W3C//DTD SVG 1.1//EN"
 "http://www.w3.org/Graphics/SVG/1.1/DTD/svg11.dtd">
<!-- Generated by graphviz version 5.0.0 (0)
 -->
<!-- Title: proof Pages: 1 -->
<svg width="248pt" height="108pt"
 viewBox="0.00 0.00 248.00 108.00" xmlns="http://www.w3.org/2000/svg" xmlns:xlink="http://www.w3.org/1999/xlink">
<g id="graph0" class="graph" transform="scale(1 1) rotate(0) translate(4 104)">
<title>proof</title>
<g id="clust1" class="cluster">
<title>cluster_1</title>
<polygon fill="transparent" stroke="black" stroke-width="2" points="64,-60 64,-92 174,-92 174,-60 64,-60"/>
</g>
<g id="clust2" class="cluster">
<title>cluster_2</title>
<polygon fill="transparent" stroke="black" stroke-dasharray="1,5" points="8,-8 8,-40 232,-40 232,-8 8,-8"/>
</g>
<!-- fc1_fib_num3 -->
<g id="node1" class="node">
<title>fc1_fib_num3</title>
<g id="a_node1"><a xlink:href="fc1_fib_num3.html" xlink:title="fc1_fib_num3" target="_vizar">
<polygon fill="#69d2e7" stroke="#7f7542" points="72,-68.5 72,-83.5 166,-83.5 166,-68.5 72,-68.5"/>
<text text-anchor="middle" x="119" y="-72.3" font-family="Times,serif" font-size="14.00">fc1_fib_num3</text>
</a>
</g>
</g>
<!-- c_0_72 -->
<g id="node2" class="node">
<title>c_0_72</title>
<g id="a_node2"><a xlink:href="c_0_72.html" xlink:title="{½(1+√5) ∈ ℝ}" target="_vizar">
<polygon fill="#f8edd1" stroke="#7f7542" points="128.5,-16.5 128.5,-31.5 223.5,-31.5 223.5,-16.5 128.5,-16.5"/>
<text text-anchor="middle" x="176" y="-20.3" font-family="Times,serif" font-size="14.00">½(1+√5) ∈ ℝ</text>
</a>
</g>
</g>
<!-- fc1_fib_num3&#45;&gt;c_0_72 -->
<g id="edge1" class="edge">
<title>fc1_fib_num3&#45;&gt;c_0_72</title>
<path fill="none" stroke="black" d="M147.25,-68.33C147.25,-68.33 147.25,-41.7 147.25,-41.7"/>
<polygon fill="black" stroke="black" points="150.75,-41.7 147.25,-31.7 143.75,-41.7 150.75,-41.7"/>
</g>
<!-- c_0_68 -->
<g id="node3" class="node">
<title>c_0_68</title>
<g id="a_node3"><a xlink:href="c_0_68.html" xlink:title="{½(1+√5) &amp;gt; 0}" target="_vizar">
<polygon fill="#f8edd1" stroke="#7f7542" points="16,-16.5 16,-31.5 110,-31.5 110,-16.5 16,-16.5"/>
<text text-anchor="middle" x="63" y="-20.3" font-family="Times,serif" font-size="14.00">½(1+√5) &gt; 0</text>
</a>
</g>
</g>
<!-- fc1_fib_num3&#45;&gt;c_0_68 -->
<g id="edge2" class="edge">
<title>fc1_fib_num3&#45;&gt;c_0_68</title>
<path fill="none" stroke="black" d="M91,-68.33C91,-68.33 91,-41.7 91,-41.7"/>
<polygon fill="black" stroke="black" points="94.5,-41.7 91,-31.7 87.5,-41.7 94.5,-41.7"/>
</g>
</g>
</svg>
