<?xml version="1.0" encoding="UTF-8" standalone="no"?>
<!DOCTYPE svg PUBLIC "-//W3C//DTD SVG 1.1//EN"
 "http://www.w3.org/Graphics/SVG/1.1/DTD/svg11.dtd">
<!-- Generated by graphviz version 5.0.0 (0)
 -->
<!-- Title: proof Pages: 1 -->
<svg width="152pt" height="108pt"
 viewBox="0.00 0.00 152.00 108.00" xmlns="http://www.w3.org/2000/svg" xmlns:xlink="http://www.w3.org/1999/xlink">
<g id="graph0" class="graph" transform="scale(1 1) rotate(0) translate(4 104)">
<title>proof</title>
<g id="clust1" class="cluster">
<title>cluster_1</title>
<polygon fill="transparent" stroke="black" stroke-width="2" points="11,-60 11,-92 121,-92 121,-60 11,-60"/>
</g>
<g id="clust2" class="cluster">
<title>cluster_2</title>
<polygon fill="transparent" stroke="black" stroke-dasharray="1,5" points="8,-8 8,-40 136,-40 136,-8 8,-8"/>
</g>
<!-- fc1_fib_num3 -->
<g id="node1" class="node">
<title>fc1_fib_num3</title>
<g id="a_node1"><a xlink:href="fc1_fib_num3.html" xlink:title="fc1_fib_num3" target="_vizar">
<polygon fill="#69d2e7" stroke="#7f7542" points="19,-68.5 19,-83.5 113,-83.5 113,-68.5 19,-68.5"/>
<text text-anchor="middle" x="66" y="-72.3" font-family="Times,serif" font-size="14.00">fc1_fib_num3</text>
</a>
</g>
</g>
<!-- c_0_68 -->
<g id="node2" class="node">
<title>c_0_68</title>
<g id="a_node2"><a xlink:href="c_0_68.html" xlink:title="{τ⁺ &amp;gt; 0}" target="_vizar">
<polygon fill="#f8edd1" stroke="#7f7542" points="82,-16.5 82,-31.5 128,-31.5 128,-16.5 82,-16.5"/>
<text text-anchor="middle" x="105" y="-20.3" font-family="Times,serif" font-size="14.00">τ⁺ &gt; 0</text>
</a>
</g>
</g>
<!-- fc1_fib_num3&#45;&gt;c_0_68 -->
<g id="edge1" class="edge">
<title>fc1_fib_num3&#45;&gt;c_0_68</title>
<path fill="none" stroke="black" d="M97.5,-68.33C97.5,-68.33 97.5,-41.7 97.5,-41.7"/>
<polygon fill="black" stroke="black" points="101,-41.7 97.5,-31.7 94,-41.7 101,-41.7"/>
</g>
<!-- c_0_72 -->
<g id="node3" class="node">
<title>c_0_72</title>
<g id="a_node3"><a xlink:href="c_0_72.html" xlink:title="{τ⁺ ∈ ℝ}" target="_vizar">
<polygon fill="#f8edd1" stroke="#7f7542" points="16.5,-16.5 16.5,-31.5 63.5,-31.5 63.5,-16.5 16.5,-16.5"/>
<text text-anchor="middle" x="40" y="-20.3" font-family="Times,serif" font-size="14.00">τ⁺ ∈ ℝ</text>
</a>
</g>
</g>
<!-- fc1_fib_num3&#45;&gt;c_0_72 -->
<g id="edge2" class="edge">
<title>fc1_fib_num3&#45;&gt;c_0_72</title>
<path fill="none" stroke="black" d="M41.25,-68.33C41.25,-68.33 41.25,-41.7 41.25,-41.7"/>
<polygon fill="black" stroke="black" points="44.75,-41.7 41.25,-31.7 37.75,-41.7 44.75,-41.7"/>
</g>
</g>
</svg>
