<?xml version="1.0" encoding="UTF-8" standalone="no"?>
<!DOCTYPE svg PUBLIC "-//W3C//DTD SVG 1.1//EN"
 "http://www.w3.org/Graphics/SVG/1.1/DTD/svg11.dtd">
<!-- Generated by graphviz version 5.0.0 (0)
 -->
<!-- Title: proof Pages: 1 -->
<svg width="242pt" height="153pt"
 viewBox="0.00 0.00 242.00 153.00" xmlns="http://www.w3.org/2000/svg" xmlns:xlink="http://www.w3.org/1999/xlink">
<g id="graph0" class="graph" transform="scale(1 1) rotate(0) translate(4 149)">
<title>proof</title>
<g id="clust1" class="cluster">
<title>cluster_1</title>
<polygon fill="transparent" stroke="black" stroke-width="2" points="65,-105 65,-137 169,-137 169,-105 65,-105"/>
</g>
<g id="clust2" class="cluster">
<title>cluster_2</title>
<polygon fill="transparent" stroke="black" stroke-dasharray="1,5" points="8,-8 8,-85 226,-85 226,-8 8,-8"/>
</g>
<!-- t6_fib_num3 -->
<g id="node1" class="node">
<title>t6_fib_num3</title>
<g id="a_node1"><a xlink:href="t6_fib_num3.html" xlink:title="t6_fib_num3" target="_vizar">
<polygon fill="#69d2e7" stroke="#7f7542" points="73,-113.5 73,-128.5 161,-128.5 161,-113.5 73,-113.5"/>
<text text-anchor="middle" x="117" y="-117.3" font-family="Times,serif" font-size="14.00">t6_fib_num3</text>
</a>
</g>
</g>
<!-- c_0_53 -->
<g id="node2" class="node">
<title>c_0_53</title>
<g id="a_node2"><a xlink:href="c_0_53.html" xlink:title="{X₁ ∈ ℕ|⇊|(R₂ ^ X₁) ^ 2 = R₂ ^ (2 * X₁)|R₂ = Ø}" target="_vizar">
<polygon fill="#f8edd1" stroke="#7f7542" points="16.5,-16.5 16.5,-76.5 217.5,-76.5 217.5,-16.5 16.5,-16.5"/>
<text text-anchor="middle" x="117" y="-65.3" font-family="Times,serif" font-size="14.00">X₁ ∈ ℕ</text>
<polyline fill="none" stroke="#7f7542" points="16.5,-61.5 217.5,-61.5 "/>
<text text-anchor="middle" x="117" y="-50.3" font-family="Times,serif" font-size="14.00">⇊</text>
<polyline fill="none" stroke="#7f7542" points="16.5,-46.5 217.5,-46.5 "/>
<text text-anchor="middle" x="117" y="-35.3" font-family="Times,serif" font-size="14.00">(R₂ ^ X₁) ^ 2 = R₂ ^ (2 * X₁)</text>
<polyline fill="none" stroke="#7f7542" points="16.5,-31.5 217.5,-31.5 "/>
<text text-anchor="middle" x="117" y="-20.3" font-family="Times,serif" font-size="14.00">R₂ = Ø</text>
</a>
</g>
</g>
<!-- t6_fib_num3&#45;&gt;c_0_53 -->
<g id="edge1" class="edge">
<title>t6_fib_num3&#45;&gt;c_0_53</title>
<path fill="none" stroke="black" d="M117,-113.31C117,-113.31 117,-86.51 117,-86.51"/>
<polygon fill="black" stroke="black" points="120.5,-86.51 117,-76.51 113.5,-86.51 120.5,-86.51"/>
</g>
</g>
</svg>
