<?xml version="1.0" encoding="UTF-8" standalone="no"?>
<!DOCTYPE svg PUBLIC "-//W3C//DTD SVG 1.1//EN"
 "http://www.w3.org/Graphics/SVG/1.1/DTD/svg11.dtd">
<!-- Generated by graphviz version 5.0.0 (0)
 -->
<!-- Title: proof Pages: 1 -->
<svg width="302pt" height="108pt"
 viewBox="0.00 0.00 302.00 108.00" xmlns="http://www.w3.org/2000/svg" xmlns:xlink="http://www.w3.org/1999/xlink">
<g id="graph0" class="graph" transform="scale(1 1) rotate(0) translate(4 104)">
<title>proof</title>
<g id="clust1" class="cluster">
<title>cluster_1</title>
<polygon fill="transparent" stroke="black" stroke-width="2" points="99,-60 99,-92 195,-92 195,-60 99,-60"/>
</g>
<g id="clust2" class="cluster">
<title>cluster_2</title>
<polygon fill="transparent" stroke="black" stroke-dasharray="1,5" points="8,-8 8,-40 286,-40 286,-8 8,-8"/>
</g>
<!-- t7_fib_num -->
<g id="node1" class="node">
<title>t7_fib_num</title>
<g id="a_node1"><a xlink:href="t7_fib_num.html" xlink:title="t7_fib_num" target="_vizar">
<polygon fill="#69d2e7" stroke="#7f7542" points="107.5,-68.5 107.5,-83.5 186.5,-83.5 186.5,-68.5 107.5,-68.5"/>
<text text-anchor="middle" x="147" y="-72.3" font-family="Times,serif" font-size="14.00">t7_fib_num</text>
</a>
</g>
</g>
<!-- c_0_52 -->
<g id="node2" class="node">
<title>c_0_52</title>
<g id="a_node2"><a xlink:href="c_0_52.html" xlink:title="{fib(N₁) = ((τ⁺ ^ N₁) &#45; (τ⁻ ^ N₁)) / (√5)}" target="_vizar">
<polygon fill="#f8edd1" stroke="#7f7542" points="16.5,-16.5 16.5,-31.5 277.5,-31.5 277.5,-16.5 16.5,-16.5"/>
<text text-anchor="middle" x="147" y="-20.3" font-family="Times,serif" font-size="14.00">fib(N₁) = ((τ⁺ ^ N₁) &#45; (τ⁻ ^ N₁)) / (√5)</text>
</a>
</g>
</g>
<!-- t7_fib_num&#45;&gt;c_0_52 -->
<g id="edge1" class="edge">
<title>t7_fib_num&#45;&gt;c_0_52</title>
<path fill="none" stroke="black" d="M147,-68.33C147,-68.33 147,-41.7 147,-41.7"/>
<polygon fill="black" stroke="black" points="150.5,-41.7 147,-31.7 143.5,-41.7 150.5,-41.7"/>
</g>
</g>
</svg>
