<?xml version="1.0" encoding="UTF-8" standalone="no"?>
<!DOCTYPE svg PUBLIC "-//W3C//DTD SVG 1.1//EN"
 "http://www.w3.org/Graphics/SVG/1.1/DTD/svg11.dtd">
<!-- Generated by graphviz version 5.0.0 (0)
 -->
<!-- Title: proof Pages: 1 -->
<svg width="276pt" height="175pt"
 viewBox="0.00 0.00 276.00 175.00" xmlns="http://www.w3.org/2000/svg" xmlns:xlink="http://www.w3.org/1999/xlink">
<g id="graph0" class="graph" transform="scale(1 1) rotate(0) translate(4 171)">
<title>proof</title>
<g id="clust1" class="cluster">
<title>cluster_0</title>
<polygon fill="transparent" stroke="black" stroke-dasharray="1,5" points="8,-127 8,-159 260,-159 260,-127 8,-127"/>
</g>
<g id="clust2" class="cluster">
<title>cluster_1</title>
<polygon fill="transparent" stroke="black" stroke-width="2" points="119,-75 119,-107 177,-107 177,-75 119,-75"/>
</g>
<g id="clust3" class="cluster">
<title>cluster_2</title>
<polygon fill="transparent" stroke="black" stroke-dasharray="1,5" points="96,-8 96,-55 200,-55 200,-8 96,-8"/>
</g>
<!-- c_0_108 -->
<g id="node1" class="node">
<title>c_0_108</title>
<g id="a_node1"><a xlink:href="c_0_108.html" xlink:title="{1 ∈ ℕ}" target="_vizar">
<polygon fill="#fa6900" stroke="#7f7542" points="210,-135.5 210,-150.5 252,-150.5 252,-135.5 210,-135.5"/>
<text text-anchor="middle" x="231" y="-139.3" font-family="Times,serif" font-size="14.00">1 ∈ ℕ</text>
</a>
</g>
</g>
<!-- c_0_120 -->
<g id="node4" class="node">
<title>c_0_120</title>
<g id="a_node4"><a xlink:href="c_0_120.html" xlink:title="{2 ∈ ℕ}" target="_vizar">
<polygon fill="#f8edd1" stroke="#7f7542" points="127,-83.5 127,-98.5 169,-98.5 169,-83.5 127,-83.5"/>
<text text-anchor="middle" x="148" y="-87.3" font-family="Times,serif" font-size="14.00">2 ∈ ℕ</text>
</a>
</g>
</g>
<!-- c_0_108&#45;&gt;c_0_120 -->
<g id="edge1" class="edge">
<title>c_0_108&#45;&gt;c_0_120</title>
<path fill="none" stroke="black" d="M231,-135.33C231,-120.86 231,-91 231,-91 231,-91 179.37,-91 179.37,-91"/>
<polygon fill="black" stroke="black" points="179.37,-87.5 169.37,-91 179.37,-94.5 179.37,-87.5"/>
</g>
<!-- c_0_107 -->
<g id="node2" class="node">
<title>c_0_107</title>
<g id="a_node2"><a xlink:href="c_0_107.html" xlink:title="{N₁ + N₂ ∈ ℕ}" target="_vizar">
<polygon fill="#f8edd1" stroke="#7f7542" points="104,-135.5 104,-150.5 192,-150.5 192,-135.5 104,-135.5"/>
<text text-anchor="middle" x="148" y="-139.3" font-family="Times,serif" font-size="14.00">N₁ + N₂ ∈ ℕ</text>
</a>
</g>
</g>
<!-- c_0_107&#45;&gt;c_0_120 -->
<g id="edge2" class="edge">
<title>c_0_107&#45;&gt;c_0_120</title>
<path fill="none" stroke="black" d="M148,-135.33C148,-135.33 148,-108.7 148,-108.7"/>
<polygon fill="black" stroke="black" points="151.5,-108.7 148,-98.7 144.5,-108.7 151.5,-108.7"/>
</g>
<!-- c_0_109 -->
<g id="node3" class="node">
<title>c_0_109</title>
<g id="a_node3"><a xlink:href="c_0_109.html" xlink:title="{1 + 1 = 2}" target="_vizar">
<polygon fill="#f8edd1" stroke="#7f7542" points="16,-135.5 16,-150.5 86,-150.5 86,-135.5 16,-135.5"/>
<text text-anchor="middle" x="51" y="-139.3" font-family="Times,serif" font-size="14.00">1 + 1 = 2</text>
</a>
</g>
</g>
<!-- c_0_109&#45;&gt;c_0_120 -->
<g id="edge3" class="edge">
<title>c_0_109&#45;&gt;c_0_120</title>
<path fill="none" stroke="black" d="M51,-135.33C51,-120.86 51,-91 51,-91 51,-91 116.95,-91 116.95,-91"/>
<polygon fill="black" stroke="black" points="116.95,-94.5 126.95,-91 116.95,-87.5 116.95,-94.5"/>
</g>
<!-- c_0_134 -->
<g id="node5" class="node">
<title>c_0_134</title>
<g id="a_node5"><a xlink:href="c_0_134.html" xlink:title="{3 ∈ bool(N₁)|N₁ ≤ 2}" target="_vizar">
<polygon fill="#f8edd1" stroke="#7f7542" points="104.5,-16.5 104.5,-46.5 191.5,-46.5 191.5,-16.5 104.5,-16.5"/>
<text text-anchor="middle" x="148" y="-35.3" font-family="Times,serif" font-size="14.00">3 ∈ bool(N₁)</text>
<polyline fill="none" stroke="#7f7542" points="104.5,-31.5 191.5,-31.5 "/>
<text text-anchor="middle" x="148" y="-20.3" font-family="Times,serif" font-size="14.00">N₁ ≤ 2</text>
</a>
</g>
</g>
<!-- c_0_120&#45;&gt;c_0_134 -->
<g id="edge4" class="edge">
<title>c_0_120&#45;&gt;c_0_134</title>
<path fill="none" stroke="black" stroke-dasharray="5,2" d="M148,-83.22C148,-83.22 148,-56.85 148,-56.85"/>
<polygon fill="black" stroke="black" points="151.5,-56.85 148,-46.85 144.5,-56.85 151.5,-56.85"/>
</g>
</g>
</svg>
