<?xml version="1.0" encoding="UTF-8" standalone="no"?>
<!DOCTYPE svg PUBLIC "-//W3C//DTD SVG 1.1//EN"
 "http://www.w3.org/Graphics/SVG/1.1/DTD/svg11.dtd">
<!-- Generated by graphviz version 5.0.0 (0)
 -->
<!-- Title: proof Pages: 1 -->
<svg width="676pt" height="250pt"
 viewBox="0.00 0.00 676.00 250.00" xmlns="http://www.w3.org/2000/svg" xmlns:xlink="http://www.w3.org/1999/xlink">
<g id="graph0" class="graph" transform="scale(1 1) rotate(0) translate(4 246)">
<title>proof</title>
<g id="clust1" class="cluster">
<title>cluster_0</title>
<polygon fill="transparent" stroke="black" stroke-dasharray="1,5" points="196,-157 196,-234 440,-234 440,-157 196,-157"/>
</g>
<g id="clust2" class="cluster">
<title>cluster_1</title>
<polygon fill="transparent" stroke="black" stroke-width="2" points="291,-105 291,-137 377,-137 377,-105 291,-105"/>
</g>
<g id="clust3" class="cluster">
<title>cluster_2</title>
<polygon fill="transparent" stroke="black" stroke-dasharray="1,5" points="8,-8 8,-85 660,-85 660,-8 8,-8"/>
</g>
<!-- c_0_149 -->
<g id="node1" class="node">
<title>c_0_149</title>
<g id="a_node1"><a xlink:href="c_0_149.html" xlink:title="{3 ∈ ℕ}" target="_vizar">
<polygon fill="#f8edd1" stroke="#7f7542" points="390,-188 390,-203 432,-203 432,-188 390,-188"/>
<text text-anchor="middle" x="411" y="-191.8" font-family="Times,serif" font-size="14.00">3 ∈ ℕ</text>
</a>
</g>
</g>
<!-- c_0_162 -->
<g id="node4" class="node">
<title>c_0_162</title>
<g id="a_node4"><a xlink:href="c_0_162.html" xlink:title="{ordinal(3)}" target="_vizar">
<polygon fill="#f8edd1" stroke="#7f7542" points="299,-113.5 299,-128.5 369,-128.5 369,-113.5 299,-113.5"/>
<text text-anchor="middle" x="334" y="-117.3" font-family="Times,serif" font-size="14.00">ordinal(3)</text>
</a>
</g>
</g>
<!-- c_0_149&#45;&gt;c_0_162 -->
<g id="edge1" class="edge">
<title>c_0_149&#45;&gt;c_0_162</title>
<path fill="none" stroke="black" d="M400.5,-187.96C400.5,-169.77 400.5,-125 400.5,-125 400.5,-125 379.2,-125 379.2,-125"/>
<polygon fill="black" stroke="black" points="379.2,-121.5 369.2,-125 379.2,-128.5 379.2,-121.5"/>
</g>
<!-- c_0_148 -->
<g id="node2" class="node">
<title>c_0_148</title>
<g id="a_node2"><a xlink:href="c_0_148.html" xlink:title="{X₂ ∈ X₁|ordinal(X₁)|⇊|ordinal(X₂)}" target="_vizar">
<polygon fill="#f8edd1" stroke="#7f7542" points="296,-165.5 296,-225.5 372,-225.5 372,-165.5 296,-165.5"/>
<text text-anchor="middle" x="334" y="-214.3" font-family="Times,serif" font-size="14.00">X₂ ∈ X₁</text>
<polyline fill="none" stroke="#7f7542" points="296,-210.5 372,-210.5 "/>
<text text-anchor="middle" x="334" y="-199.3" font-family="Times,serif" font-size="14.00">ordinal(X₁)</text>
<polyline fill="none" stroke="#7f7542" points="296,-195.5 372,-195.5 "/>
<text text-anchor="middle" x="334" y="-184.3" font-family="Times,serif" font-size="14.00">⇊</text>
<polyline fill="none" stroke="#7f7542" points="296,-180.5 372,-180.5 "/>
<text text-anchor="middle" x="334" y="-169.3" font-family="Times,serif" font-size="14.00">ordinal(X₂)</text>
</a>
</g>
</g>
<!-- c_0_148&#45;&gt;c_0_162 -->
<g id="edge2" class="edge">
<title>c_0_148&#45;&gt;c_0_162</title>
<path fill="none" stroke="black" d="M334,-165.2C334,-165.2 334,-138.59 334,-138.59"/>
<polygon fill="black" stroke="black" points="337.5,-138.59 334,-128.59 330.5,-138.59 337.5,-138.59"/>
</g>
<!-- c_0_150 -->
<g id="node3" class="node">
<title>c_0_150</title>
<g id="a_node3"><a xlink:href="c_0_150.html" xlink:title="{ordinal(ℕ)}" target="_vizar">
<polygon fill="#f8edd1" stroke="#7f7542" points="204,-188 204,-203 278,-203 278,-188 204,-188"/>
<text text-anchor="middle" x="241" y="-191.8" font-family="Times,serif" font-size="14.00">ordinal(ℕ)</text>
</a>
</g>
</g>
<!-- c_0_150&#45;&gt;c_0_162 -->
<g id="edge3" class="edge">
<title>c_0_150&#45;&gt;c_0_162</title>
<path fill="none" stroke="black" d="M267.5,-187.96C267.5,-169.77 267.5,-125 267.5,-125 267.5,-125 288.8,-125 288.8,-125"/>
<polygon fill="black" stroke="black" points="288.8,-128.5 298.8,-125 288.8,-121.5 288.8,-128.5"/>
</g>
<!-- c_0_166 -->
<g id="node5" class="node">
<title>c_0_166</title>
<g id="a_node5"><a xlink:href="c_0_166.html" xlink:title="{3 ∈ bool(\|X₁\|)|⇊|sk₄(X₁,X₂) ∈ X₁}" target="_vizar">
<polygon fill="#f8edd1" stroke="#7f7542" points="550.5,-24 550.5,-69 651.5,-69 651.5,-24 550.5,-24"/>
<text text-anchor="middle" x="601" y="-57.8" font-family="Times,serif" font-size="14.00">3 ∈ bool(|X₁|)</text>
<polyline fill="none" stroke="#7f7542" points="550.5,-54 651.5,-54 "/>
<text text-anchor="middle" x="601" y="-42.8" font-family="Times,serif" font-size="14.00">⇊</text>
<polyline fill="none" stroke="#7f7542" points="550.5,-39 651.5,-39 "/>
<text text-anchor="middle" x="601" y="-27.8" font-family="Times,serif" font-size="14.00">sk₄(X₁,X₂) ∈ X₁</text>
</a>
</g>
</g>
<!-- c_0_162&#45;&gt;c_0_166 -->
<g id="edge4" class="edge">
<title>c_0_162&#45;&gt;c_0_166</title>
<path fill="none" stroke="black" stroke-dasharray="5,2" d="M369.18,-121C441.68,-121 601,-121 601,-121 601,-121 601,-79.26 601,-79.26"/>
<polygon fill="black" stroke="black" points="604.5,-79.26 601,-69.26 597.5,-79.26 604.5,-79.26"/>
</g>
<!-- c_0_176 -->
<g id="node6" class="node">
<title>c_0_176</title>
<g id="a_node6"><a xlink:href="c_0_176.html" xlink:title="{3 ∈ bool(\|X₁\|)|sk₄(X₁,X₂) = X₂|⇊|⊥}" target="_vizar">
<polygon fill="#f8edd1" stroke="#7f7542" points="429.5,-16.5 429.5,-76.5 532.5,-76.5 532.5,-16.5 429.5,-16.5"/>
<text text-anchor="middle" x="481" y="-65.3" font-family="Times,serif" font-size="14.00">3 ∈ bool(|X₁|)</text>
<polyline fill="none" stroke="#7f7542" points="429.5,-61.5 532.5,-61.5 "/>
<text text-anchor="middle" x="481" y="-50.3" font-family="Times,serif" font-size="14.00">sk₄(X₁,X₂) = X₂</text>
<polyline fill="none" stroke="#7f7542" points="429.5,-46.5 532.5,-46.5 "/>
<text text-anchor="middle" x="481" y="-35.3" font-family="Times,serif" font-size="14.00">⇊</text>
<polyline fill="none" stroke="#7f7542" points="429.5,-31.5 532.5,-31.5 "/>
<text text-anchor="middle" x="481" y="-20.3" font-family="Times,serif" font-size="14.00">⊥</text>
</a>
</g>
</g>
<!-- c_0_162&#45;&gt;c_0_176 -->
<g id="edge5" class="edge">
<title>c_0_162&#45;&gt;c_0_176</title>
<path fill="none" stroke="black" stroke-dasharray="5,2" d="M369.13,-117C412.97,-117 482.25,-117 482.25,-117 482.25,-117 482.25,-86.81 482.25,-86.81"/>
<polygon fill="black" stroke="black" points="485.75,-86.81 482.25,-76.81 478.75,-86.81 485.75,-86.81"/>
</g>
<!-- c_0_172 -->
<g id="node7" class="node">
<title>c_0_172</title>
<g id="a_node7"><a xlink:href="c_0_172.html" xlink:title="{3 ∈ bool(\|X₁\|)|sk₄(X₁,X₂) = sk₃(X₁,X₂)|⇊|⊥}" target="_vizar">
<polygon fill="#f8edd1" stroke="#7f7542" points="257,-16.5 257,-76.5 411,-76.5 411,-16.5 257,-16.5"/>
<text text-anchor="middle" x="334" y="-65.3" font-family="Times,serif" font-size="14.00">3 ∈ bool(|X₁|)</text>
<polyline fill="none" stroke="#7f7542" points="257,-61.5 411,-61.5 "/>
<text text-anchor="middle" x="334" y="-50.3" font-family="Times,serif" font-size="14.00">sk₄(X₁,X₂) = sk₃(X₁,X₂)</text>
<polyline fill="none" stroke="#7f7542" points="257,-46.5 411,-46.5 "/>
<text text-anchor="middle" x="334" y="-35.3" font-family="Times,serif" font-size="14.00">⇊</text>
<polyline fill="none" stroke="#7f7542" points="257,-31.5 411,-31.5 "/>
<text text-anchor="middle" x="334" y="-20.3" font-family="Times,serif" font-size="14.00">⊥</text>
</a>
</g>
</g>
<!-- c_0_162&#45;&gt;c_0_172 -->
<g id="edge6" class="edge">
<title>c_0_162&#45;&gt;c_0_172</title>
<path fill="none" stroke="black" stroke-dasharray="5,2" d="M334,-113.31C334,-113.31 334,-86.51 334,-86.51"/>
<polygon fill="black" stroke="black" points="337.5,-86.51 334,-76.51 330.5,-86.51 337.5,-86.51"/>
</g>
<!-- c_0_171 -->
<g id="node8" class="node">
<title>c_0_171</title>
<g id="a_node8"><a xlink:href="c_0_171.html" xlink:title="{3 ∈ bool(\|X₁\|)|⇊|sk₃(X₁,X₂) ∈ X₁}" target="_vizar">
<polygon fill="#f8edd1" stroke="#7f7542" points="137.5,-24 137.5,-69 238.5,-69 238.5,-24 137.5,-24"/>
<text text-anchor="middle" x="188" y="-57.8" font-family="Times,serif" font-size="14.00">3 ∈ bool(|X₁|)</text>
<polyline fill="none" stroke="#7f7542" points="137.5,-54 238.5,-54 "/>
<text text-anchor="middle" x="188" y="-42.8" font-family="Times,serif" font-size="14.00">⇊</text>
<polyline fill="none" stroke="#7f7542" points="137.5,-39 238.5,-39 "/>
<text text-anchor="middle" x="188" y="-27.8" font-family="Times,serif" font-size="14.00">sk₃(X₁,X₂) ∈ X₁</text>
</a>
</g>
</g>
<!-- c_0_162&#45;&gt;c_0_171 -->
<g id="edge7" class="edge">
<title>c_0_162&#45;&gt;c_0_171</title>
<path fill="none" stroke="black" stroke-dasharray="5,2" d="M298.94,-117C265.85,-117 221.25,-117 221.25,-117 221.25,-117 221.25,-79.19 221.25,-79.19"/>
<polygon fill="black" stroke="black" points="224.75,-79.19 221.25,-69.19 217.75,-79.19 224.75,-79.19"/>
</g>
<!-- c_0_181 -->
<g id="node9" class="node">
<title>c_0_181</title>
<g id="a_node9"><a xlink:href="c_0_181.html" xlink:title="{3 ∈ bool(\|X₁\|)|sk₃(X₁,X₂) = X₂|⇊|⊥}" target="_vizar">
<polygon fill="#f8edd1" stroke="#7f7542" points="16.5,-16.5 16.5,-76.5 119.5,-76.5 119.5,-16.5 16.5,-16.5"/>
<text text-anchor="middle" x="68" y="-65.3" font-family="Times,serif" font-size="14.00">3 ∈ bool(|X₁|)</text>
<polyline fill="none" stroke="#7f7542" points="16.5,-61.5 119.5,-61.5 "/>
<text text-anchor="middle" x="68" y="-50.3" font-family="Times,serif" font-size="14.00">sk₃(X₁,X₂) = X₂</text>
<polyline fill="none" stroke="#7f7542" points="16.5,-46.5 119.5,-46.5 "/>
<text text-anchor="middle" x="68" y="-35.3" font-family="Times,serif" font-size="14.00">⇊</text>
<polyline fill="none" stroke="#7f7542" points="16.5,-31.5 119.5,-31.5 "/>
<text text-anchor="middle" x="68" y="-20.3" font-family="Times,serif" font-size="14.00">⊥</text>
</a>
</g>
</g>
<!-- c_0_162&#45;&gt;c_0_181 -->
<g id="edge8" class="edge">
<title>c_0_162&#45;&gt;c_0_181</title>
<path fill="none" stroke="black" stroke-dasharray="5,2" d="M298.95,-121C226.72,-121 68,-121 68,-121 68,-121 68,-86.8 68,-86.8"/>
<polygon fill="black" stroke="black" points="71.5,-86.8 68,-76.8 64.5,-86.8 71.5,-86.8"/>
</g>
</g>
</svg>
