<?xml version="1.0" encoding="UTF-8" standalone="no"?>
<!DOCTYPE svg PUBLIC "-//W3C//DTD SVG 1.1//EN"
 "http://www.w3.org/Graphics/SVG/1.1/DTD/svg11.dtd">
<!-- Generated by graphviz version 5.0.0 (0)
 -->
<!-- Title: proof Pages: 1 -->
<svg width="234pt" height="250pt"
 viewBox="0.00 0.00 234.00 250.00" xmlns="http://www.w3.org/2000/svg" xmlns:xlink="http://www.w3.org/1999/xlink">
<g id="graph0" class="graph" transform="scale(1 1) rotate(0) translate(4 246)">
<title>proof</title>
<g id="clust1" class="cluster">
<title>cluster_0</title>
<polygon fill="transparent" stroke="black" stroke-dasharray="1,5" points="61,-202 61,-234 165,-234 165,-202 61,-202"/>
</g>
<g id="clust2" class="cluster">
<title>cluster_1</title>
<polygon fill="transparent" stroke="black" stroke-width="2" points="8,-105 8,-182 218,-182 218,-105 8,-105"/>
</g>
<g id="clust3" class="cluster">
<title>cluster_2</title>
<polygon fill="transparent" stroke="black" stroke-dasharray="1,5" points="25,-8 25,-85 201,-85 201,-8 25,-8"/>
</g>
<!-- d6_scmyciel -->
<g id="node1" class="node">
<title>d6_scmyciel</title>
<g id="a_node1"><a xlink:href="d6_scmyciel.html" xlink:title="d6_scmyciel" target="_vizar">
<polygon fill="#69d2e7" stroke="#7f7542" points="69.5,-210.5 69.5,-225.5 156.5,-225.5 156.5,-210.5 69.5,-210.5"/>
<text text-anchor="middle" x="113" y="-214.3" font-family="Times,serif" font-size="14.00">d6_scmyciel</text>
</a>
</g>
</g>
<!-- c_0_156 -->
<g id="node2" class="node">
<title>c_0_156</title>
<g id="a_node2"><a xlink:href="c_0_156.html" xlink:title="{finite(X₁)|finite&#45;membered(X₁)|⇊|order(X₁) = card(union(X₁))}" target="_vizar">
<polygon fill="#f8edd1" stroke="#7f7542" points="16.5,-113.5 16.5,-173.5 209.5,-173.5 209.5,-113.5 16.5,-113.5"/>
<text text-anchor="middle" x="113" y="-162.3" font-family="Times,serif" font-size="14.00">finite(X₁)</text>
<polyline fill="none" stroke="#7f7542" points="16.5,-158.5 209.5,-158.5 "/>
<text text-anchor="middle" x="113" y="-147.3" font-family="Times,serif" font-size="14.00">finite&#45;membered(X₁)</text>
<polyline fill="none" stroke="#7f7542" points="16.5,-143.5 209.5,-143.5 "/>
<text text-anchor="middle" x="113" y="-132.3" font-family="Times,serif" font-size="14.00">⇊</text>
<polyline fill="none" stroke="#7f7542" points="16.5,-128.5 209.5,-128.5 "/>
<text text-anchor="middle" x="113" y="-117.3" font-family="Times,serif" font-size="14.00">order(X₁) = card(union(X₁))</text>
</a>
</g>
</g>
<!-- d6_scmyciel&#45;&gt;c_0_156 -->
<g id="edge1" class="edge">
<title>d6_scmyciel&#45;&gt;c_0_156</title>
<path fill="none" stroke="black" d="M113,-210.31C113,-210.31 113,-183.51 113,-183.51"/>
<polygon fill="black" stroke="black" points="116.5,-183.51 113,-173.51 109.5,-183.51 116.5,-183.51"/>
</g>
<!-- c_0_164 -->
<g id="node3" class="node">
<title>c_0_164</title>
<g id="a_node3"><a xlink:href="c_0_164.html" xlink:title="{finite(X₁)|finite&#45;membered(X₁)|⇊|order(X₁) = \|union(X₁)\|}" target="_vizar">
<polygon fill="#f8edd1" stroke="#7f7542" points="33,-16.5 33,-76.5 193,-76.5 193,-16.5 33,-16.5"/>
<text text-anchor="middle" x="113" y="-65.3" font-family="Times,serif" font-size="14.00">finite(X₁)</text>
<polyline fill="none" stroke="#7f7542" points="33,-61.5 193,-61.5 "/>
<text text-anchor="middle" x="113" y="-50.3" font-family="Times,serif" font-size="14.00">finite&#45;membered(X₁)</text>
<polyline fill="none" stroke="#7f7542" points="33,-46.5 193,-46.5 "/>
<text text-anchor="middle" x="113" y="-35.3" font-family="Times,serif" font-size="14.00">⇊</text>
<polyline fill="none" stroke="#7f7542" points="33,-31.5 193,-31.5 "/>
<text text-anchor="middle" x="113" y="-20.3" font-family="Times,serif" font-size="14.00">order(X₁) = |union(X₁)|</text>
</a>
</g>
</g>
<!-- c_0_156&#45;&gt;c_0_164 -->
<g id="edge2" class="edge">
<title>c_0_156&#45;&gt;c_0_164</title>
<path fill="none" stroke="black" stroke-dasharray="5,2" d="M113,-113.34C113,-113.34 113,-86.64 113,-86.64"/>
<polygon fill="black" stroke="black" points="116.5,-86.64 113,-76.64 109.5,-86.64 116.5,-86.64"/>
</g>
</g>
</svg>
