<?xml version="1.0" encoding="UTF-8" standalone="no"?>
<!DOCTYPE svg PUBLIC "-//W3C//DTD SVG 1.1//EN"
 "http://www.w3.org/Graphics/SVG/1.1/DTD/svg11.dtd">
<!-- Generated by graphviz version 5.0.0 (0)
 -->
<!-- Title: proof Pages: 1 -->
<svg width="692pt" height="205pt"
 viewBox="0.00 0.00 692.00 205.00" xmlns="http://www.w3.org/2000/svg" xmlns:xlink="http://www.w3.org/1999/xlink">
<g id="graph0" class="graph" transform="scale(1 1) rotate(0) translate(4 201)">
<title>proof</title>
<g id="clust1" class="cluster">
<title>cluster_0</title>
<polygon fill="transparent" stroke="black" stroke-dasharray="1,5" points="8,-112 8,-189 676,-189 676,-112 8,-112"/>
</g>
<g id="clust2" class="cluster">
<title>cluster_1</title>
<polygon fill="transparent" stroke="black" stroke-width="2" points="281,-60 281,-92 437,-92 437,-60 281,-60"/>
</g>
<g id="clust3" class="cluster">
<title>cluster_2</title>
<polygon fill="transparent" stroke="black" stroke-dasharray="1,5" points="276,-8 276,-40 442,-40 442,-8 276,-8"/>
</g>
<!-- c_0_134 -->
<g id="node1" class="node">
<title>c_0_134</title>
<g id="a_node1"><a xlink:href="c_0_134.html" xlink:title="{3 ∈ bool(N₁)|N₁ ≤ 2}" target="_vizar">
<polygon fill="#f8edd1" stroke="#7f7542" points="580.5,-135.5 580.5,-165.5 667.5,-165.5 667.5,-135.5 580.5,-135.5"/>
<text text-anchor="middle" x="624" y="-154.3" font-family="Times,serif" font-size="14.00">3 ∈ bool(N₁)</text>
<polyline fill="none" stroke="#7f7542" points="580.5,-150.5 667.5,-150.5 "/>
<text text-anchor="middle" x="624" y="-139.3" font-family="Times,serif" font-size="14.00">N₁ ≤ 2</text>
</a>
</g>
</g>
<!-- c_0_151 -->
<g id="node6" class="node">
<title>c_0_151</title>
<g id="a_node6"><a xlink:href="c_0_151.html" xlink:title="{3 ∈ bool(order(sk₂))}" target="_vizar">
<polygon fill="#fa6900" stroke="#7f7542" points="289,-68.5 289,-83.5 429,-83.5 429,-68.5 289,-68.5"/>
<text text-anchor="middle" x="359" y="-72.3" font-family="Times,serif" font-size="14.00">3 ∈ bool(order(sk₂))</text>
</a>
</g>
</g>
<!-- c_0_134&#45;&gt;c_0_151 -->
<g id="edge1" class="edge">
<title>c_0_134&#45;&gt;c_0_151</title>
<path fill="none" stroke="black" d="M580.46,-138C521.44,-138 423.33,-138 423.33,-138 423.33,-138 423.33,-93.6 423.33,-93.6"/>
<polygon fill="black" stroke="black" points="426.83,-93.6 423.33,-83.6 419.83,-93.6 426.83,-93.6"/>
</g>
<!-- c_0_153 -->
<g id="node2" class="node">
<title>c_0_153</title>
<g id="a_node2"><a xlink:href="c_0_153.html" xlink:title="{finite&#45;membered(sk₂)}" target="_vizar">
<polygon fill="#fa6900" stroke="#7f7542" points="412,-143 412,-158 562,-158 562,-143 412,-143"/>
<text text-anchor="middle" x="487" y="-146.8" font-family="Times,serif" font-size="14.00">finite&#45;membered(sk₂)</text>
</a>
</g>
</g>
<!-- c_0_153&#45;&gt;c_0_151 -->
<g id="edge2" class="edge">
<title>c_0_153&#45;&gt;c_0_151</title>
<path fill="none" stroke="black" d="M417.67,-142.81C417.67,-142.81 417.67,-93.76 417.67,-93.76"/>
<polygon fill="black" stroke="black" points="421.17,-93.76 417.67,-83.76 414.17,-93.76 421.17,-93.76"/>
</g>
<!-- c_0_154 -->
<g id="node3" class="node">
<title>c_0_154</title>
<g id="a_node3"><a xlink:href="c_0_154.html" xlink:title="{finite(sk₂)}" target="_vizar">
<polygon fill="#fa6900" stroke="#7f7542" points="324.5,-143 324.5,-158 393.5,-158 393.5,-143 324.5,-143"/>
<text text-anchor="middle" x="359" y="-146.8" font-family="Times,serif" font-size="14.00">finite(sk₂)</text>
</a>
</g>
</g>
<!-- c_0_154&#45;&gt;c_0_151 -->
<g id="edge3" class="edge">
<title>c_0_154&#45;&gt;c_0_151</title>
<path fill="none" stroke="black" d="M359,-142.81C359,-142.81 359,-93.76 359,-93.76"/>
<polygon fill="black" stroke="black" points="362.5,-93.76 359,-83.76 355.5,-93.76 362.5,-93.76"/>
</g>
<!-- c_0_133 -->
<g id="node4" class="node">
<title>c_0_133</title>
<g id="a_node4"><a xlink:href="c_0_133.html" xlink:title="{¬ (order(sk₂) ≤ 2)}" target="_vizar">
<polygon fill="#fa6900" stroke="#7f7542" points="178,-143 178,-158 306,-158 306,-143 178,-143"/>
<text text-anchor="middle" x="242" y="-146.8" font-family="Times,serif" font-size="14.00">¬ (order(sk₂) ≤ 2)</text>
</a>
</g>
</g>
<!-- c_0_133&#45;&gt;c_0_151 -->
<g id="edge4" class="edge">
<title>c_0_133&#45;&gt;c_0_151</title>
<path fill="none" stroke="black" d="M300.33,-142.81C300.33,-142.81 300.33,-93.76 300.33,-93.76"/>
<polygon fill="black" stroke="black" points="303.83,-93.76 300.33,-83.76 296.83,-93.76 303.83,-93.76"/>
</g>
<!-- c_0_152 -->
<g id="node5" class="node">
<title>c_0_152</title>
<g id="a_node5"><a xlink:href="c_0_152.html" xlink:title="{finite(X₁)|finite&#45;membered(X₁)|⇊|order(X₁) ∈ ℕ}" target="_vizar">
<polygon fill="#f8edd1" stroke="#7f7542" points="16,-120.5 16,-180.5 160,-180.5 160,-120.5 16,-120.5"/>
<text text-anchor="middle" x="88" y="-169.3" font-family="Times,serif" font-size="14.00">finite(X₁)</text>
<polyline fill="none" stroke="#7f7542" points="16,-165.5 160,-165.5 "/>
<text text-anchor="middle" x="88" y="-154.3" font-family="Times,serif" font-size="14.00">finite&#45;membered(X₁)</text>
<polyline fill="none" stroke="#7f7542" points="16,-150.5 160,-150.5 "/>
<text text-anchor="middle" x="88" y="-139.3" font-family="Times,serif" font-size="14.00">⇊</text>
<polyline fill="none" stroke="#7f7542" points="16,-135.5 160,-135.5 "/>
<text text-anchor="middle" x="88" y="-124.3" font-family="Times,serif" font-size="14.00">order(X₁) ∈ ℕ</text>
</a>
</g>
</g>
<!-- c_0_152&#45;&gt;c_0_151 -->
<g id="edge5" class="edge">
<title>c_0_152&#45;&gt;c_0_151</title>
<path fill="none" stroke="black" d="M160.28,-127C219.88,-127 294.67,-127 294.67,-127 294.67,-127 294.67,-93.53 294.67,-93.53"/>
<polygon fill="black" stroke="black" points="298.17,-93.53 294.67,-83.53 291.17,-93.53 298.17,-93.53"/>
</g>
<!-- c_0_167 -->
<g id="node7" class="node">
<title>c_0_167</title>
<g id="a_node7"><a xlink:href="c_0_167.html" xlink:title="{3 ∈ bool(\|union(sk₂)\|)}" target="_vizar">
<polygon fill="#fa6900" stroke="#7f7542" points="284,-16.5 284,-31.5 434,-31.5 434,-16.5 284,-16.5"/>
<text text-anchor="middle" x="359" y="-20.3" font-family="Times,serif" font-size="14.00">3 ∈ bool(|union(sk₂)|)</text>
</a>
</g>
</g>
<!-- c_0_151&#45;&gt;c_0_167 -->
<g id="edge6" class="edge">
<title>c_0_151&#45;&gt;c_0_167</title>
<path fill="none" stroke="black" stroke-dasharray="5,2" d="M359,-68.33C359,-68.33 359,-41.7 359,-41.7"/>
<polygon fill="black" stroke="black" points="362.5,-41.7 359,-31.7 355.5,-41.7 362.5,-41.7"/>
</g>
</g>
</svg>
