<?xml version="1.0" encoding="UTF-8" standalone="no"?>
<!DOCTYPE svg PUBLIC "-//W3C//DTD SVG 1.1//EN"
 "http://www.w3.org/Graphics/SVG/1.1/DTD/svg11.dtd">
<!-- Generated by graphviz version 5.0.0 (0)
 -->
<!-- Title: proof Pages: 1 -->
<svg width="190pt" height="205pt"
 viewBox="0.00 0.00 190.00 205.00" xmlns="http://www.w3.org/2000/svg" xmlns:xlink="http://www.w3.org/1999/xlink">
<g id="graph0" class="graph" transform="scale(1 1) rotate(0) translate(4 201)">
<title>proof</title>
<g id="clust1" class="cluster">
<title>cluster_0</title>
<polygon fill="transparent" stroke="black" stroke-dasharray="1,5" points="36,-157 36,-189 146,-189 146,-157 36,-157"/>
</g>
<g id="clust2" class="cluster">
<title>cluster_1</title>
<polygon fill="transparent" stroke="black" stroke-width="2" points="37,-60 37,-137 145,-137 145,-60 37,-60"/>
</g>
<g id="clust3" class="cluster">
<title>cluster_2</title>
<polygon fill="transparent" stroke="black" stroke-dasharray="1,5" points="8,-8 8,-40 174,-40 174,-8 8,-8"/>
</g>
<!-- cc1_subset_1 -->
<g id="node1" class="node">
<title>cc1_subset_1</title>
<g id="a_node1"><a xlink:href="cc1_subset_1.html" xlink:title="cc1_subset_1" target="_parent">
<polygon fill="#69d2e7" stroke="#7f7542" points="44,-165.5 44,-180.5 138,-180.5 138,-165.5 44,-165.5"/>
<text text-anchor="middle" x="91" y="-169.3" font-family="Times,serif" font-size="14.00">cc1_subset_1</text>
</a>
</g>
</g>
<!-- c_0_102 -->
<g id="node2" class="node">
<title>c_0_102</title>
<g id="a_node2"><a xlink:href="c_0_102.html" xlink:title="{X₁ = Ø|X₂ ∈ bool(X₁)|⇊|X₂ = Ø}" target="_parent">
<polygon fill="#f8edd1" stroke="#7f7542" points="45.5,-68.5 45.5,-128.5 136.5,-128.5 136.5,-68.5 45.5,-68.5"/>
<text text-anchor="middle" x="91" y="-117.3" font-family="Times,serif" font-size="14.00">X₁ = Ø</text>
<polyline fill="none" stroke="#7f7542" points="45.5,-113.5 136.5,-113.5 "/>
<text text-anchor="middle" x="91" y="-102.3" font-family="Times,serif" font-size="14.00">X₂ ∈ bool(X₁)</text>
<polyline fill="none" stroke="#7f7542" points="45.5,-98.5 136.5,-98.5 "/>
<text text-anchor="middle" x="91" y="-87.3" font-family="Times,serif" font-size="14.00">⇊</text>
<polyline fill="none" stroke="#7f7542" points="45.5,-83.5 136.5,-83.5 "/>
<text text-anchor="middle" x="91" y="-72.3" font-family="Times,serif" font-size="14.00">X₂ = Ø</text>
</a>
</g>
</g>
<!-- cc1_subset_1&#45;&gt;c_0_102 -->
<g id="edge1" class="edge">
<title>cc1_subset_1&#45;&gt;c_0_102</title>
<path fill="none" stroke="black" d="M91,-165.31C91,-165.31 91,-138.51 91,-138.51"/>
<polygon fill="black" stroke="black" points="94.5,-138.51 91,-128.51 87.5,-138.51 94.5,-138.51"/>
</g>
<!-- c_0_114 -->
<g id="node3" class="node">
<title>c_0_114</title>
<g id="a_node3"><a xlink:href="c_0_114.html" xlink:title="{Mycielskian(sk₁) ≠ Ø}" target="_parent">
<polygon fill="#fa6900" stroke="#7f7542" points="16.5,-16.5 16.5,-31.5 165.5,-31.5 165.5,-16.5 16.5,-16.5"/>
<text text-anchor="middle" x="91" y="-20.3" font-family="Times,serif" font-size="14.00">Mycielskian(sk₁) ≠ Ø</text>
</a>
</g>
</g>
<!-- c_0_102&#45;&gt;c_0_114 -->
<g id="edge2" class="edge">
<title>c_0_102&#45;&gt;c_0_114</title>
<path fill="none" stroke="black" stroke-dasharray="5,2" d="M91,-68.2C91,-68.2 91,-41.59 91,-41.59"/>
<polygon fill="black" stroke="black" points="94.5,-41.59 91,-31.59 87.5,-41.59 94.5,-41.59"/>
</g>
</g>
</svg>
