<?xml version="1.0" encoding="UTF-8" standalone="no"?>
<!DOCTYPE svg PUBLIC "-//W3C//DTD SVG 1.1//EN"
 "http://www.w3.org/Graphics/SVG/1.1/DTD/svg11.dtd">
<!-- Generated by graphviz version 5.0.0 (0)
 -->
<!-- Title: proof Pages: 1 -->
<svg width="486pt" height="235pt"
 viewBox="0.00 0.00 486.00 235.00" xmlns="http://www.w3.org/2000/svg" xmlns:xlink="http://www.w3.org/1999/xlink">
<g id="graph0" class="graph" transform="scale(1 1) rotate(0) translate(4 231)">
<title>proof</title>
<g id="clust1" class="cluster">
<title>cluster_0</title>
<polygon fill="transparent" stroke="black" stroke-dasharray="1,5" points="197,-187 197,-219 281,-219 281,-187 197,-187"/>
</g>
<g id="clust2" class="cluster">
<title>cluster_1</title>
<polygon fill="transparent" stroke="black" stroke-width="2" points="118,-135 118,-167 360,-167 360,-135 118,-135"/>
</g>
<g id="clust3" class="cluster">
<title>cluster_2</title>
<polygon fill="transparent" stroke="black" stroke-dasharray="1,5" points="8,-8 8,-115 470,-115 470,-8 8,-8"/>
</g>
<!-- d5_tarski -->
<g id="node1" class="node">
<title>d5_tarski</title>
<g id="a_node1"><a xlink:href="d5_tarski.html" xlink:title="d5_tarski" target="_parent">
<polygon fill="#69d2e7" stroke="#7f7542" points="205.5,-195.5 205.5,-210.5 272.5,-210.5 272.5,-195.5 205.5,-195.5"/>
<text text-anchor="middle" x="239" y="-199.3" font-family="Times,serif" font-size="14.00">d5_tarski</text>
</a>
</g>
</g>
<!-- c_0_44 -->
<g id="node2" class="node">
<title>c_0_44</title>
<g id="a_node2"><a xlink:href="c_0_44.html" xlink:title="{X₁ [..] X₂ = (X₁ \{..\} X₂) \{..\} \{X₁\}}" target="_parent">
<polygon fill="#f8edd1" stroke="#7f7542" points="126,-143.5 126,-158.5 352,-158.5 352,-143.5 126,-143.5"/>
<text text-anchor="middle" x="239" y="-147.3" font-family="Times,serif" font-size="14.00">X₁ [..] X₂ = (X₁ {..} X₂) {..} {X₁}</text>
</a>
</g>
</g>
<!-- d5_tarski&#45;&gt;c_0_44 -->
<g id="edge1" class="edge">
<title>d5_tarski&#45;&gt;c_0_44</title>
<path fill="none" stroke="black" d="M239,-195.33C239,-195.33 239,-168.7 239,-168.7"/>
<polygon fill="black" stroke="black" points="242.5,-168.7 239,-158.7 235.5,-168.7 242.5,-168.7"/>
</g>
<!-- c_0_48 -->
<g id="node3" class="node">
<title>c_0_48</title>
<g id="a_node3"><a xlink:href="c_0_48.html" xlink:title="{SimpleGraph&#45;like(X₂)|X₁ ∈ PairsOf(Mycielskian(X₂))|⇊|X₁ = union(X₂) \{..\} ((sk₇(X₂,X₁) \{..\} union(X₂)) \{..\} \{sk₇(X₂,X₁)\})|X₁ ∈ PairsOf(X₂)|sk₅(X₂,X₁) \{..\} sk₆(X₂,X₁) ∈ PairsOf(X₂)}" target="_parent">
<polygon fill="#f8edd1" stroke="#7f7542" points="16,-16.5 16,-106.5 462,-106.5 462,-16.5 16,-16.5"/>
<text text-anchor="middle" x="239" y="-95.3" font-family="Times,serif" font-size="14.00">SimpleGraph&#45;like(X₂)</text>
<polyline fill="none" stroke="#7f7542" points="16,-91.5 462,-91.5 "/>
<text text-anchor="middle" x="239" y="-80.3" font-family="Times,serif" font-size="14.00">X₁ ∈ PairsOf(Mycielskian(X₂))</text>
<polyline fill="none" stroke="#7f7542" points="16,-76.5 462,-76.5 "/>
<text text-anchor="middle" x="239" y="-65.3" font-family="Times,serif" font-size="14.00">⇊</text>
<polyline fill="none" stroke="#7f7542" points="16,-61.5 462,-61.5 "/>
<text text-anchor="middle" x="239" y="-50.3" font-family="Times,serif" font-size="14.00">X₁ = union(X₂) {..} ((sk₇(X₂,X₁) {..} union(X₂)) {..} {sk₇(X₂,X₁)})</text>
<polyline fill="none" stroke="#7f7542" points="16,-46.5 462,-46.5 "/>
<text text-anchor="middle" x="239" y="-35.3" font-family="Times,serif" font-size="14.00">X₁ ∈ PairsOf(X₂)</text>
<polyline fill="none" stroke="#7f7542" points="16,-31.5 462,-31.5 "/>
<text text-anchor="middle" x="239" y="-20.3" font-family="Times,serif" font-size="14.00">sk₅(X₂,X₁) {..} sk₆(X₂,X₁) ∈ PairsOf(X₂)</text>
</a>
</g>
</g>
<!-- c_0_44&#45;&gt;c_0_48 -->
<g id="edge2" class="edge">
<title>c_0_44&#45;&gt;c_0_48</title>
<path fill="none" stroke="black" stroke-dasharray="5,2" d="M239,-143.37C239,-143.37 239,-116.66 239,-116.66"/>
<polygon fill="black" stroke="black" points="242.5,-116.66 239,-106.66 235.5,-116.66 242.5,-116.66"/>
</g>
</g>
</svg>
