<?xml version="1.0" encoding="UTF-8" standalone="no"?>
<!DOCTYPE svg PUBLIC "-//W3C//DTD SVG 1.1//EN"
 "http://www.w3.org/Graphics/SVG/1.1/DTD/svg11.dtd">
<!-- Generated by graphviz version 5.0.0 (0)
 -->
<!-- Title: proof Pages: 1 -->
<svg width="310pt" height="190pt"
 viewBox="0.00 0.00 310.00 190.00" xmlns="http://www.w3.org/2000/svg" xmlns:xlink="http://www.w3.org/1999/xlink">
<g id="graph0" class="graph" transform="scale(1 1) rotate(0) translate(4 186)">
<title>proof</title>
<g id="clust1" class="cluster">
<title>cluster_0</title>
<polygon fill="transparent" stroke="black" stroke-dasharray="1,5" points="8,-127 8,-174 294,-174 294,-127 8,-127"/>
</g>
<g id="clust2" class="cluster">
<title>cluster_1</title>
<polygon fill="transparent" stroke="black" stroke-width="2" points="74,-60 74,-107 176,-107 176,-60 74,-60"/>
</g>
<g id="clust3" class="cluster">
<title>cluster_2</title>
<polygon fill="transparent" stroke="black" stroke-dasharray="1,5" points="47,-8 47,-40 203,-40 203,-8 47,-8"/>
</g>
<!-- c_0_106 -->
<g id="node1" class="node">
<title>c_0_106</title>
<g id="a_node1"><a xlink:href="c_0_106.html" xlink:title="{C₁ ≤ C₂|C₂ + 1 ∈ bool(C₁)}" target="_parent">
<polygon fill="#f8edd1" stroke="#7f7542" points="164,-135.5 164,-165.5 286,-165.5 286,-135.5 164,-135.5"/>
<text text-anchor="middle" x="225" y="-154.3" font-family="Times,serif" font-size="14.00">C₁ ≤ C₂</text>
<polyline fill="none" stroke="#7f7542" points="164,-150.5 286,-150.5 "/>
<text text-anchor="middle" x="225" y="-139.3" font-family="Times,serif" font-size="14.00">C₂ + 1 ∈ bool(C₁)</text>
</a>
</g>
</g>
<!-- c_0_134 -->
<g id="node4" class="node">
<title>c_0_134</title>
<g id="a_node4"><a xlink:href="c_0_134.html" xlink:title="{3 ∈ bool(C₁)|C₁ ≤ 2}" target="_parent">
<polygon fill="#f8edd1" stroke="#7f7542" points="82.5,-68.5 82.5,-98.5 167.5,-98.5 167.5,-68.5 82.5,-68.5"/>
<text text-anchor="middle" x="125" y="-87.3" font-family="Times,serif" font-size="14.00">3 ∈ bool(C₁)</text>
<polyline fill="none" stroke="#7f7542" points="82.5,-83.5 167.5,-83.5 "/>
<text text-anchor="middle" x="125" y="-72.3" font-family="Times,serif" font-size="14.00">C₁ ≤ 2</text>
</a>
</g>
</g>
<!-- c_0_106&#45;&gt;c_0_134 -->
<g id="edge1" class="edge">
<title>c_0_106&#45;&gt;c_0_134</title>
<path fill="none" stroke="black" d="M163.87,-138C158.47,-138 155,-138 155,-138 155,-138 155,-108.68 155,-108.68"/>
<polygon fill="black" stroke="black" points="158.5,-108.68 155,-98.68 151.5,-108.68 158.5,-108.68"/>
</g>
<!-- c_0_120 -->
<g id="node2" class="node">
<title>c_0_120</title>
<g id="a_node2"><a xlink:href="c_0_120.html" xlink:title="{2 ∈ ℕ}" target="_parent">
<polygon fill="#f8edd1" stroke="#7f7542" points="104,-143 104,-158 146,-158 146,-143 104,-143"/>
<text text-anchor="middle" x="125" y="-146.8" font-family="Times,serif" font-size="14.00">2 ∈ ℕ</text>
</a>
</g>
</g>
<!-- c_0_120&#45;&gt;c_0_134 -->
<g id="edge2" class="edge">
<title>c_0_120&#45;&gt;c_0_134</title>
<path fill="none" stroke="black" d="M125,-142.81C125,-142.81 125,-108.67 125,-108.67"/>
<polygon fill="black" stroke="black" points="128.5,-108.67 125,-98.67 121.5,-108.67 128.5,-108.67"/>
</g>
<!-- c_0_119 -->
<g id="node3" class="node">
<title>c_0_119</title>
<g id="a_node3"><a xlink:href="c_0_119.html" xlink:title="{2 + 1 = 3}" target="_parent">
<polygon fill="#f8edd1" stroke="#7f7542" points="16,-143 16,-158 86,-158 86,-143 16,-143"/>
<text text-anchor="middle" x="51" y="-146.8" font-family="Times,serif" font-size="14.00">2 + 1 = 3</text>
</a>
</g>
</g>
<!-- c_0_119&#45;&gt;c_0_134 -->
<g id="edge3" class="edge">
<title>c_0_119&#45;&gt;c_0_134</title>
<path fill="none" stroke="black" d="M86.1,-150C91.32,-150 95,-150 95,-150 95,-150 95,-108.59 95,-108.59"/>
<polygon fill="black" stroke="black" points="98.5,-108.59 95,-98.59 91.5,-108.59 98.5,-108.59"/>
</g>
<!-- c_0_151 -->
<g id="node5" class="node">
<title>c_0_151</title>
<g id="a_node5"><a xlink:href="c_0_151.html" xlink:title="{3 ∈ bool(order(sk₂))}" target="_parent">
<polygon fill="#fa6900" stroke="#7f7542" points="55,-16.5 55,-31.5 195,-31.5 195,-16.5 55,-16.5"/>
<text text-anchor="middle" x="125" y="-20.3" font-family="Times,serif" font-size="14.00">3 ∈ bool(order(sk₂))</text>
</a>
</g>
</g>
<!-- c_0_134&#45;&gt;c_0_151 -->
<g id="edge4" class="edge">
<title>c_0_134&#45;&gt;c_0_151</title>
<path fill="none" stroke="black" stroke-dasharray="5,2" d="M125,-68.49C125,-68.49 125,-41.73 125,-41.73"/>
<polygon fill="black" stroke="black" points="128.5,-41.73 125,-31.73 121.5,-41.73 128.5,-41.73"/>
</g>
</g>
</svg>
