<?xml version="1.0" encoding="UTF-8" standalone="no"?>
<!DOCTYPE svg PUBLIC "-//W3C//DTD SVG 1.1//EN"
 "http://www.w3.org/Graphics/SVG/1.1/DTD/svg11.dtd">
<!-- Generated by graphviz version 5.0.0 (0)
 -->
<!-- Title: proof Pages: 1 -->
<svg width="136pt" height="190pt"
 viewBox="0.00 0.00 136.00 190.00" xmlns="http://www.w3.org/2000/svg" xmlns:xlink="http://www.w3.org/1999/xlink">
<g id="graph0" class="graph" transform="scale(1 1) rotate(0) translate(4 186)">
<title>proof</title>
<g id="clust1" class="cluster">
<title>cluster_0</title>
<polygon fill="transparent" stroke="black" stroke-dasharray="1,5" points="21,-142 21,-174 107,-174 107,-142 21,-142"/>
</g>
<g id="clust2" class="cluster">
<title>cluster_1</title>
<polygon fill="transparent" stroke="black" stroke-width="2" points="16,-90 16,-122 112,-122 112,-90 16,-90"/>
</g>
<g id="clust3" class="cluster">
<title>cluster_2</title>
<polygon fill="transparent" stroke="black" stroke-dasharray="1,5" points="8,-8 8,-70 120,-70 120,-8 8,-8"/>
</g>
<!-- cc1_nat_1 -->
<g id="node1" class="node">
<title>cc1_nat_1</title>
<g id="a_node1"><a xlink:href="cc1_nat_1.html" xlink:title="cc1_nat_1" target="_vizar">
<polygon fill="#69d2e7" stroke="#7f7542" points="29,-150.5 29,-165.5 99,-165.5 99,-150.5 29,-150.5"/>
<text text-anchor="middle" x="64" y="-154.3" font-family="Times,serif" font-size="14.00">cc1_nat_1</text>
</a>
</g>
</g>
<!-- c_0_80 -->
<g id="node2" class="node">
<title>c_0_80</title>
<g id="a_node2"><a xlink:href="c_0_80.html" xlink:title="{ordinal(N₁)}" target="_vizar">
<polygon fill="#f8edd1" stroke="#7f7542" points="24.5,-98.5 24.5,-113.5 103.5,-113.5 103.5,-98.5 24.5,-98.5"/>
<text text-anchor="middle" x="64" y="-102.3" font-family="Times,serif" font-size="14.00">ordinal(N₁)</text>
</a>
</g>
</g>
<!-- cc1_nat_1&#45;&gt;c_0_80 -->
<g id="edge1" class="edge">
<title>cc1_nat_1&#45;&gt;c_0_80</title>
<path fill="none" stroke="black" d="M64,-150.33C64,-150.33 64,-123.7 64,-123.7"/>
<polygon fill="black" stroke="black" points="67.5,-123.7 64,-113.7 60.5,-123.7 67.5,-123.7"/>
</g>
<!-- c_0_92 -->
<g id="node3" class="node">
<title>c_0_92</title>
<g id="a_node3"><a xlink:href="c_0_92.html" xlink:title="{N₁ ≤ N₂|⇊|N₁ ∈ bool(N₂)}" target="_vizar">
<polygon fill="#f8edd1" stroke="#7f7542" points="16.5,-16.5 16.5,-61.5 111.5,-61.5 111.5,-16.5 16.5,-16.5"/>
<text text-anchor="middle" x="64" y="-50.3" font-family="Times,serif" font-size="14.00">N₁ ≤ N₂</text>
<polyline fill="none" stroke="#7f7542" points="16.5,-46.5 111.5,-46.5 "/>
<text text-anchor="middle" x="64" y="-35.3" font-family="Times,serif" font-size="14.00">⇊</text>
<polyline fill="none" stroke="#7f7542" points="16.5,-31.5 111.5,-31.5 "/>
<text text-anchor="middle" x="64" y="-20.3" font-family="Times,serif" font-size="14.00">N₁ ∈ bool(N₂)</text>
</a>
</g>
</g>
<!-- c_0_80&#45;&gt;c_0_92 -->
<g id="edge2" class="edge">
<title>c_0_80&#45;&gt;c_0_92</title>
<path fill="none" stroke="black" stroke-dasharray="5,2" d="M64,-98.31C64,-98.31 64,-71.76 64,-71.76"/>
<polygon fill="black" stroke="black" points="67.5,-71.76 64,-61.76 60.5,-71.76 67.5,-71.76"/>
</g>
</g>
</svg>
