<?xml version="1.0" encoding="UTF-8" standalone="no"?>
<!DOCTYPE svg PUBLIC "-//W3C//DTD SVG 1.1//EN"
 "http://www.w3.org/Graphics/SVG/1.1/DTD/svg11.dtd">
<!-- Generated by graphviz version 5.0.0 (0)
 -->
<!-- Title: proof Pages: 1 -->
<svg width="296pt" height="160pt"
 viewBox="0.00 0.00 296.00 160.00" xmlns="http://www.w3.org/2000/svg" xmlns:xlink="http://www.w3.org/1999/xlink">
<g id="graph0" class="graph" transform="scale(1 1) rotate(0) translate(4 156)">
<title>proof</title>
<g id="clust1" class="cluster">
<title>cluster_0</title>
<polygon fill="transparent" stroke="black" stroke-dasharray="1,5" points="8,-112 8,-144 280,-144 280,-112 8,-112"/>
</g>
<g id="clust2" class="cluster">
<title>cluster_1</title>
<polygon fill="transparent" stroke="black" stroke-width="2" points="102,-60 102,-92 186,-92 186,-60 102,-60"/>
</g>
<g id="clust3" class="cluster">
<title>cluster_2</title>
<polygon fill="transparent" stroke="black" stroke-dasharray="1,5" points="77,-8 77,-40 211,-40 211,-8 77,-8"/>
</g>
<!-- rqLessOrEqual__r1_xxreal_0__r2_r1 -->
<g id="node1" class="node">
<title>rqLessOrEqual__r1_xxreal_0__r2_r1</title>
<g id="a_node1"><a xlink:href="rqLessOrEqual__r1_xxreal_0__r2_r1.html" xlink:title="rqLessOrEqual__r1_xxreal_0__r2_r1" target="_vizar">
<polygon fill="#69d2e7" stroke="#7f7542" points="16,-120.5 16,-135.5 272,-135.5 272,-120.5 16,-120.5"/>
<text text-anchor="middle" x="144" y="-124.3" font-family="Times,serif" font-size="14.00">rqLessOrEqual__r1_xxreal_0__r2_r1</text>
</a>
</g>
</g>
<!-- c_0_60 -->
<g id="node2" class="node">
<title>c_0_60</title>
<g id="a_node2"><a xlink:href="c_0_60.html" xlink:title="{¬ (2 ≤ 1)}" target="_vizar">
<polygon fill="#f8edd1" stroke="#7f7542" points="110.5,-68.5 110.5,-83.5 177.5,-83.5 177.5,-68.5 110.5,-68.5"/>
<text text-anchor="middle" x="144" y="-72.3" font-family="Times,serif" font-size="14.00">¬ (2 ≤ 1)</text>
</a>
</g>
</g>
<!-- rqLessOrEqual__r1_xxreal_0__r2_r1&#45;&gt;c_0_60 -->
<g id="edge1" class="edge">
<title>rqLessOrEqual__r1_xxreal_0__r2_r1&#45;&gt;c_0_60</title>
<path fill="none" stroke="black" d="M144,-120.33C144,-120.33 144,-93.7 144,-93.7"/>
<polygon fill="black" stroke="black" points="147.5,-93.7 144,-83.7 140.5,-93.7 147.5,-93.7"/>
</g>
<!-- c_0_66 -->
<g id="node3" class="node">
<title>c_0_66</title>
<g id="a_node3"><a xlink:href="c_0_66.html" xlink:title="{PairsOf(sk₁) = Ø}" target="_vizar">
<polygon fill="#fa6900" stroke="#7f7542" points="85.5,-16.5 85.5,-31.5 202.5,-31.5 202.5,-16.5 85.5,-16.5"/>
<text text-anchor="middle" x="144" y="-20.3" font-family="Times,serif" font-size="14.00">PairsOf(sk₁) = Ø</text>
</a>
</g>
</g>
<!-- c_0_60&#45;&gt;c_0_66 -->
<g id="edge2" class="edge">
<title>c_0_60&#45;&gt;c_0_66</title>
<path fill="none" stroke="black" stroke-dasharray="5,2" d="M144,-68.33C144,-68.33 144,-41.7 144,-41.7"/>
<polygon fill="black" stroke="black" points="147.5,-41.7 144,-31.7 140.5,-41.7 147.5,-41.7"/>
</g>
</g>
</svg>
