<?xml version="1.0" encoding="UTF-8" standalone="no"?>
<!DOCTYPE svg PUBLIC "-//W3C//DTD SVG 1.1//EN"
 "http://www.w3.org/Graphics/SVG/1.1/DTD/svg11.dtd">
<!-- Generated by graphviz version 5.0.0 (0)
 -->
<!-- Title: proof Pages: 1 -->
<svg width="689pt" height="205pt"
 viewBox="0.00 0.00 689.00 205.00" xmlns="http://www.w3.org/2000/svg" xmlns:xlink="http://www.w3.org/1999/xlink">
<g id="graph0" class="graph" transform="scale(1 1) rotate(0) translate(4 201)">
<title>proof</title>
<g id="clust1" class="cluster">
<title>cluster_0</title>
<polygon fill="transparent" stroke="black" stroke-dasharray="1,5" points="8,-112 8,-189 673,-189 673,-112 8,-112"/>
</g>
<g id="clust2" class="cluster">
<title>cluster_1</title>
<polygon fill="transparent" stroke="black" stroke-width="2" points="236,-60 236,-92 392,-92 392,-60 236,-60"/>
</g>
<g id="clust3" class="cluster">
<title>cluster_2</title>
<polygon fill="transparent" stroke="black" stroke-dasharray="1,5" points="231,-8 231,-40 397,-40 397,-8 231,-8"/>
</g>
<!-- c_0_133 -->
<g id="node1" class="node">
<title>c_0_133</title>
<g id="a_node1"><a xlink:href="c_0_133.html" xlink:title="{¬ (order(sk₂) ≤ 2)}" target="_parent">
<polygon fill="#fa6900" stroke="#7f7542" points="537,-143 537,-158 665,-158 665,-143 537,-143"/>
<text text-anchor="middle" x="601" y="-146.8" font-family="Times,serif" font-size="14.00">¬ (order(sk₂) ≤ 2)</text>
</a>
</g>
</g>
<!-- c_0_151 -->
<g id="node6" class="node">
<title>c_0_151</title>
<g id="a_node6"><a xlink:href="c_0_151.html" xlink:title="{3 ∈ bool(order(sk₂))}" target="_parent">
<polygon fill="#fa6900" stroke="#7f7542" points="244,-68.5 244,-83.5 384,-83.5 384,-68.5 244,-68.5"/>
<text text-anchor="middle" x="314" y="-72.3" font-family="Times,serif" font-size="14.00">3 ∈ bool(order(sk₂))</text>
</a>
</g>
</g>
<!-- c_0_133&#45;&gt;c_0_151 -->
<g id="edge1" class="edge">
<title>c_0_133&#45;&gt;c_0_151</title>
<path fill="none" stroke="black" d="M601,-142.81C601,-123.77 601,-76 601,-76 601,-76 394.21,-76 394.21,-76"/>
<polygon fill="black" stroke="black" points="394.21,-72.5 384.21,-76 394.21,-79.5 394.21,-72.5"/>
</g>
<!-- c_0_152 -->
<g id="node2" class="node">
<title>c_0_152</title>
<g id="a_node2"><a xlink:href="c_0_152.html" xlink:title="{finite(X₁)|finite&#45;membered(X₁)|⇊|order(X₁) ∈ ℕ}" target="_parent">
<polygon fill="#f8edd1" stroke="#7f7542" points="375,-120.5 375,-180.5 519,-180.5 519,-120.5 375,-120.5"/>
<text text-anchor="middle" x="447" y="-169.3" font-family="Times,serif" font-size="14.00">finite(X₁)</text>
<polyline fill="none" stroke="#7f7542" points="375,-165.5 519,-165.5 "/>
<text text-anchor="middle" x="447" y="-154.3" font-family="Times,serif" font-size="14.00">finite&#45;membered(X₁)</text>
<polyline fill="none" stroke="#7f7542" points="375,-150.5 519,-150.5 "/>
<text text-anchor="middle" x="447" y="-139.3" font-family="Times,serif" font-size="14.00">⇊</text>
<polyline fill="none" stroke="#7f7542" points="375,-135.5 519,-135.5 "/>
<text text-anchor="middle" x="447" y="-124.3" font-family="Times,serif" font-size="14.00">order(X₁) ∈ ℕ</text>
</a>
</g>
</g>
<!-- c_0_152&#45;&gt;c_0_151 -->
<g id="edge2" class="edge">
<title>c_0_152&#45;&gt;c_0_151</title>
<path fill="none" stroke="black" d="M379.5,-120.2C379.5,-120.2 379.5,-93.59 379.5,-93.59"/>
<polygon fill="black" stroke="black" points="383,-93.59 379.5,-83.59 376,-93.59 383,-93.59"/>
</g>
<!-- c_0_134 -->
<g id="node3" class="node">
<title>c_0_134</title>
<g id="a_node3"><a xlink:href="c_0_134.html" xlink:title="{3 ∈ bool(C₁)|C₁ ≤ 2}" target="_parent">
<polygon fill="#f8edd1" stroke="#7f7542" points="271.5,-135.5 271.5,-165.5 356.5,-165.5 356.5,-135.5 271.5,-135.5"/>
<text text-anchor="middle" x="314" y="-154.3" font-family="Times,serif" font-size="14.00">3 ∈ bool(C₁)</text>
<polyline fill="none" stroke="#7f7542" points="271.5,-150.5 356.5,-150.5 "/>
<text text-anchor="middle" x="314" y="-139.3" font-family="Times,serif" font-size="14.00">C₁ ≤ 2</text>
</a>
</g>
</g>
<!-- c_0_134&#45;&gt;c_0_151 -->
<g id="edge3" class="edge">
<title>c_0_134&#45;&gt;c_0_151</title>
<path fill="none" stroke="black" d="M314,-135.42C314,-135.42 314,-93.74 314,-93.74"/>
<polygon fill="black" stroke="black" points="317.5,-93.74 314,-83.74 310.5,-93.74 317.5,-93.74"/>
</g>
<!-- c_0_154 -->
<g id="node4" class="node">
<title>c_0_154</title>
<g id="a_node4"><a xlink:href="c_0_154.html" xlink:title="{finite(sk₂)}" target="_parent">
<polygon fill="#fa6900" stroke="#7f7542" points="184.5,-143 184.5,-158 253.5,-158 253.5,-143 184.5,-143"/>
<text text-anchor="middle" x="219" y="-146.8" font-family="Times,serif" font-size="14.00">finite(sk₂)</text>
</a>
</g>
</g>
<!-- c_0_154&#45;&gt;c_0_151 -->
<g id="edge4" class="edge">
<title>c_0_154&#45;&gt;c_0_151</title>
<path fill="none" stroke="black" d="M248.75,-142.81C248.75,-142.81 248.75,-93.76 248.75,-93.76"/>
<polygon fill="black" stroke="black" points="252.25,-93.76 248.75,-83.76 245.25,-93.76 252.25,-93.76"/>
</g>
<!-- c_0_153 -->
<g id="node5" class="node">
<title>c_0_153</title>
<g id="a_node5"><a xlink:href="c_0_153.html" xlink:title="{finite&#45;membered(sk₂)}" target="_parent">
<polygon fill="#fa6900" stroke="#7f7542" points="16,-143 16,-158 166,-158 166,-143 16,-143"/>
<text text-anchor="middle" x="91" y="-146.8" font-family="Times,serif" font-size="14.00">finite&#45;membered(sk₂)</text>
</a>
</g>
</g>
<!-- c_0_153&#45;&gt;c_0_151 -->
<g id="edge5" class="edge">
<title>c_0_153&#45;&gt;c_0_151</title>
<path fill="none" stroke="black" d="M91,-142.81C91,-123.77 91,-76 91,-76 91,-76 233.75,-76 233.75,-76"/>
<polygon fill="black" stroke="black" points="233.75,-79.5 243.75,-76 233.75,-72.5 233.75,-79.5"/>
</g>
<!-- c_0_167 -->
<g id="node7" class="node">
<title>c_0_167</title>
<g id="a_node7"><a xlink:href="c_0_167.html" xlink:title="{3 ∈ bool(\|union(sk₂)\|)}" target="_parent">
<polygon fill="#fa6900" stroke="#7f7542" points="239,-16.5 239,-31.5 389,-31.5 389,-16.5 239,-16.5"/>
<text text-anchor="middle" x="314" y="-20.3" font-family="Times,serif" font-size="14.00">3 ∈ bool(|union(sk₂)|)</text>
</a>
</g>
</g>
<!-- c_0_151&#45;&gt;c_0_167 -->
<g id="edge6" class="edge">
<title>c_0_151&#45;&gt;c_0_167</title>
<path fill="none" stroke="black" stroke-dasharray="5,2" d="M314,-68.33C314,-68.33 314,-41.7 314,-41.7"/>
<polygon fill="black" stroke="black" points="317.5,-41.7 314,-31.7 310.5,-41.7 317.5,-41.7"/>
</g>
</g>
</svg>
