<?xml version="1.0" encoding="UTF-8" standalone="no"?>
<!DOCTYPE svg PUBLIC "-//W3C//DTD SVG 1.1//EN"
 "http://www.w3.org/Graphics/SVG/1.1/DTD/svg11.dtd">
<!-- Generated by graphviz version 5.0.0 (0)
 -->
<!-- Title: proof Pages: 1 -->
<svg width="478pt" height="385pt"
 viewBox="0.00 0.00 478.00 385.00" xmlns="http://www.w3.org/2000/svg" xmlns:xlink="http://www.w3.org/1999/xlink">
<g id="graph0" class="graph" transform="scale(1 1) rotate(0) translate(4 381)">
<title>proof</title>
<g id="clust1" class="cluster">
<title>cluster_0</title>
<polygon fill="transparent" stroke="black" stroke-dasharray="1,5" points="8,-262 8,-369 462,-369 462,-262 8,-262"/>
</g>
<g id="clust2" class="cluster">
<title>cluster_1</title>
<polygon fill="transparent" stroke="black" stroke-width="2" points="202,-135 202,-242 420,-242 420,-135 202,-135"/>
</g>
<g id="clust3" class="cluster">
<title>cluster_2</title>
<polygon fill="transparent" stroke="black" stroke-dasharray="1,5" points="249,-8 249,-115 373,-115 373,-8 249,-8"/>
</g>
<!-- c_0_113 -->
<g id="node1" class="node">
<title>c_0_113</title>
<g id="a_node1"><a xlink:href="c_0_113.html" xlink:title="{X₁ ∈ X₂|⇊|X₁ ∈ X₂|X₂ = Ø}" target="_vizar">
<polygon fill="#f8edd1" stroke="#7f7542" points="404,-285.5 404,-345.5 454,-345.5 454,-285.5 404,-285.5"/>
<text text-anchor="middle" x="429" y="-334.3" font-family="Times,serif" font-size="14.00">X₁ ∈ X₂</text>
<polyline fill="none" stroke="#7f7542" points="404,-330.5 454,-330.5 "/>
<text text-anchor="middle" x="429" y="-319.3" font-family="Times,serif" font-size="14.00">⇊</text>
<polyline fill="none" stroke="#7f7542" points="404,-315.5 454,-315.5 "/>
<text text-anchor="middle" x="429" y="-304.3" font-family="Times,serif" font-size="14.00">X₁ ∈ X₂</text>
<polyline fill="none" stroke="#7f7542" points="404,-300.5 454,-300.5 "/>
<text text-anchor="middle" x="429" y="-289.3" font-family="Times,serif" font-size="14.00">X₂ = Ø</text>
</a>
</g>
</g>
<!-- c_0_124 -->
<g id="node4" class="node">
<title>c_0_124</title>
<g id="a_node4"><a xlink:href="c_0_124.html" xlink:title="{X₁ \{..\} X₂ ∈ Mycielskian(sk₁)|⇊|X₁ = X₂|X₁ \{..\} X₂ ∈ 0|union(sk₁) = X₁|union(sk₁) = X₂}" target="_vizar">
<polygon fill="#fa6900" stroke="#7f7542" points="210,-143.5 210,-233.5 412,-233.5 412,-143.5 210,-143.5"/>
<text text-anchor="middle" x="311" y="-222.3" font-family="Times,serif" font-size="14.00">X₁ {..} X₂ ∈ Mycielskian(sk₁)</text>
<polyline fill="none" stroke="#7f7542" points="210,-218.5 412,-218.5 "/>
<text text-anchor="middle" x="311" y="-207.3" font-family="Times,serif" font-size="14.00">⇊</text>
<polyline fill="none" stroke="#7f7542" points="210,-203.5 412,-203.5 "/>
<text text-anchor="middle" x="311" y="-192.3" font-family="Times,serif" font-size="14.00">X₁ = X₂</text>
<polyline fill="none" stroke="#7f7542" points="210,-188.5 412,-188.5 "/>
<text text-anchor="middle" x="311" y="-177.3" font-family="Times,serif" font-size="14.00">X₁ {..} X₂ ∈ 0</text>
<polyline fill="none" stroke="#7f7542" points="210,-173.5 412,-173.5 "/>
<text text-anchor="middle" x="311" y="-162.3" font-family="Times,serif" font-size="14.00">union(sk₁) = X₁</text>
<polyline fill="none" stroke="#7f7542" points="210,-158.5 412,-158.5 "/>
<text text-anchor="middle" x="311" y="-147.3" font-family="Times,serif" font-size="14.00">union(sk₁) = X₂</text>
</a>
</g>
</g>
<!-- c_0_113&#45;&gt;c_0_124 -->
<g id="edge1" class="edge">
<title>c_0_113&#45;&gt;c_0_124</title>
<path fill="none" stroke="black" d="M408,-285.4C408,-285.4 408,-243.79 408,-243.79"/>
<polygon fill="black" stroke="black" points="411.5,-243.79 408,-233.79 404.5,-243.79 411.5,-243.79"/>
</g>
<!-- c_0_114 -->
<g id="node2" class="node">
<title>c_0_114</title>
<g id="a_node2"><a xlink:href="c_0_114.html" xlink:title="{Mycielskian(sk₁) ≠ Ø}" target="_vizar">
<polygon fill="#fa6900" stroke="#7f7542" points="236.5,-308 236.5,-323 385.5,-323 385.5,-308 236.5,-308"/>
<text text-anchor="middle" x="311" y="-311.8" font-family="Times,serif" font-size="14.00">Mycielskian(sk₁) ≠ Ø</text>
</a>
</g>
</g>
<!-- c_0_114&#45;&gt;c_0_124 -->
<g id="edge2" class="edge">
<title>c_0_114&#45;&gt;c_0_124</title>
<path fill="none" stroke="black" d="M311,-307.94C311,-307.94 311,-243.66 311,-243.66"/>
<polygon fill="black" stroke="black" points="314.5,-243.66 311,-233.66 307.5,-243.66 314.5,-243.66"/>
</g>
<!-- c_0_112 -->
<g id="node3" class="node">
<title>c_0_112</title>
<g id="a_node3"><a xlink:href="c_0_112.html" xlink:title="{X₂ \{..\} X₁ ∈ Mycielskian(sk₁)|⇊|X₂ = X₁|X₂ \{..\} X₁ ∈ 0|union(sk₁) = X₁|union(sk₁) = X₂}" target="_vizar">
<polygon fill="#fa6900" stroke="#7f7542" points="16,-270.5 16,-360.5 218,-360.5 218,-270.5 16,-270.5"/>
<text text-anchor="middle" x="117" y="-349.3" font-family="Times,serif" font-size="14.00">X₂ {..} X₁ ∈ Mycielskian(sk₁)</text>
<polyline fill="none" stroke="#7f7542" points="16,-345.5 218,-345.5 "/>
<text text-anchor="middle" x="117" y="-334.3" font-family="Times,serif" font-size="14.00">⇊</text>
<polyline fill="none" stroke="#7f7542" points="16,-330.5 218,-330.5 "/>
<text text-anchor="middle" x="117" y="-319.3" font-family="Times,serif" font-size="14.00">X₂ = X₁</text>
<polyline fill="none" stroke="#7f7542" points="16,-315.5 218,-315.5 "/>
<text text-anchor="middle" x="117" y="-304.3" font-family="Times,serif" font-size="14.00">X₂ {..} X₁ ∈ 0</text>
<polyline fill="none" stroke="#7f7542" points="16,-300.5 218,-300.5 "/>
<text text-anchor="middle" x="117" y="-289.3" font-family="Times,serif" font-size="14.00">union(sk₁) = X₁</text>
<polyline fill="none" stroke="#7f7542" points="16,-285.5 218,-285.5 "/>
<text text-anchor="middle" x="117" y="-274.3" font-family="Times,serif" font-size="14.00">union(sk₁) = X₂</text>
</a>
</g>
</g>
<!-- c_0_112&#45;&gt;c_0_124 -->
<g id="edge3" class="edge">
<title>c_0_112&#45;&gt;c_0_124</title>
<path fill="none" stroke="black" d="M214,-270.37C214,-270.37 214,-243.92 214,-243.92"/>
<polygon fill="black" stroke="black" points="217.5,-243.92 214,-233.92 210.5,-243.92 217.5,-243.92"/>
</g>
<!-- c_0_141 -->
<g id="node5" class="node">
<title>c_0_141</title>
<g id="a_node5"><a xlink:href="c_0_141.html" xlink:title="{X₂ \{..\} X₁ ∈ sk₂|⇊|X₂ = X₁|X₂ \{..\} X₁ ∈ 0|union(sk₁) = X₁|union(sk₁) = X₂}" target="_vizar">
<polygon fill="#fa6900" stroke="#7f7542" points="257,-16.5 257,-106.5 365,-106.5 365,-16.5 257,-16.5"/>
<text text-anchor="middle" x="311" y="-95.3" font-family="Times,serif" font-size="14.00">X₂ {..} X₁ ∈ sk₂</text>
<polyline fill="none" stroke="#7f7542" points="257,-91.5 365,-91.5 "/>
<text text-anchor="middle" x="311" y="-80.3" font-family="Times,serif" font-size="14.00">⇊</text>
<polyline fill="none" stroke="#7f7542" points="257,-76.5 365,-76.5 "/>
<text text-anchor="middle" x="311" y="-65.3" font-family="Times,serif" font-size="14.00">X₂ = X₁</text>
<polyline fill="none" stroke="#7f7542" points="257,-61.5 365,-61.5 "/>
<text text-anchor="middle" x="311" y="-50.3" font-family="Times,serif" font-size="14.00">X₂ {..} X₁ ∈ 0</text>
<polyline fill="none" stroke="#7f7542" points="257,-46.5 365,-46.5 "/>
<text text-anchor="middle" x="311" y="-35.3" font-family="Times,serif" font-size="14.00">union(sk₁) = X₁</text>
<polyline fill="none" stroke="#7f7542" points="257,-31.5 365,-31.5 "/>
<text text-anchor="middle" x="311" y="-20.3" font-family="Times,serif" font-size="14.00">union(sk₁) = X₂</text>
</a>
</g>
</g>
<!-- c_0_124&#45;&gt;c_0_141 -->
<g id="edge4" class="edge">
<title>c_0_124&#45;&gt;c_0_141</title>
<path fill="none" stroke="black" stroke-dasharray="5,2" d="M311,-143.37C311,-143.37 311,-116.92 311,-116.92"/>
<polygon fill="black" stroke="black" points="314.5,-116.92 311,-106.92 307.5,-116.92 314.5,-116.92"/>
</g>
</g>
</svg>
