<?xml version="1.0" encoding="UTF-8" standalone="no"?>
<!DOCTYPE svg PUBLIC "-//W3C//DTD SVG 1.1//EN"
 "http://www.w3.org/Graphics/SVG/1.1/DTD/svg11.dtd">
<!-- Generated by graphviz version 5.0.0 (0)
 -->
<!-- Title: proof Pages: 1 -->
<svg width="242pt" height="280pt"
 viewBox="0.00 0.00 242.00 280.00" xmlns="http://www.w3.org/2000/svg" xmlns:xlink="http://www.w3.org/1999/xlink">
<g id="graph0" class="graph" transform="scale(1 1) rotate(0) translate(4 276)">
<title>proof</title>
<g id="clust1" class="cluster">
<title>cluster_0</title>
<polygon fill="transparent" stroke="black" stroke-dasharray="1,5" points="74,-232 74,-264 160,-264 160,-232 74,-232"/>
</g>
<g id="clust2" class="cluster">
<title>cluster_1</title>
<polygon fill="transparent" stroke="black" stroke-width="2" points="84,-135 84,-212 150,-212 150,-135 84,-135"/>
</g>
<g id="clust3" class="cluster">
<title>cluster_2</title>
<polygon fill="transparent" stroke="black" stroke-dasharray="1,5" points="8,-8 8,-115 226,-115 226,-8 8,-8"/>
</g>
<!-- t2_subset -->
<g id="node1" class="node">
<title>t2_subset</title>
<g id="a_node1"><a xlink:href="t2_subset.html" xlink:title="t2_subset" target="_vizar">
<polygon fill="#69d2e7" stroke="#7f7542" points="82,-240.5 82,-255.5 152,-255.5 152,-240.5 82,-240.5"/>
<text text-anchor="middle" x="117" y="-244.3" font-family="Times,serif" font-size="14.00">t2_subset</text>
</a>
</g>
</g>
<!-- c_0_113 -->
<g id="node2" class="node">
<title>c_0_113</title>
<g id="a_node2"><a xlink:href="c_0_113.html" xlink:title="{X₁ ∈ X₂|⇊|X₁ ∈ X₂|X₂ = Ø}" target="_vizar">
<polygon fill="#f8edd1" stroke="#7f7542" points="92,-143.5 92,-203.5 142,-203.5 142,-143.5 92,-143.5"/>
<text text-anchor="middle" x="117" y="-192.3" font-family="Times,serif" font-size="14.00">X₁ ∈ X₂</text>
<polyline fill="none" stroke="#7f7542" points="92,-188.5 142,-188.5 "/>
<text text-anchor="middle" x="117" y="-177.3" font-family="Times,serif" font-size="14.00">⇊</text>
<polyline fill="none" stroke="#7f7542" points="92,-173.5 142,-173.5 "/>
<text text-anchor="middle" x="117" y="-162.3" font-family="Times,serif" font-size="14.00">X₁ ∈ X₂</text>
<polyline fill="none" stroke="#7f7542" points="92,-158.5 142,-158.5 "/>
<text text-anchor="middle" x="117" y="-147.3" font-family="Times,serif" font-size="14.00">X₂ = Ø</text>
</a>
</g>
</g>
<!-- t2_subset&#45;&gt;c_0_113 -->
<g id="edge1" class="edge">
<title>t2_subset&#45;&gt;c_0_113</title>
<path fill="none" stroke="black" d="M117,-240.31C117,-240.31 117,-213.51 117,-213.51"/>
<polygon fill="black" stroke="black" points="120.5,-213.51 117,-203.51 113.5,-213.51 120.5,-213.51"/>
</g>
<!-- c_0_124 -->
<g id="node3" class="node">
<title>c_0_124</title>
<g id="a_node3"><a xlink:href="c_0_124.html" xlink:title="{X₁ \{..\} X₂ ∈ Mycielskian(sk₁)|⇊|X₁ = X₂|X₁ \{..\} X₂ ∈ 0|union(sk₁) = X₁|union(sk₁) = X₂}" target="_vizar">
<polygon fill="#fa6900" stroke="#7f7542" points="16,-16.5 16,-106.5 218,-106.5 218,-16.5 16,-16.5"/>
<text text-anchor="middle" x="117" y="-95.3" font-family="Times,serif" font-size="14.00">X₁ {..} X₂ ∈ Mycielskian(sk₁)</text>
<polyline fill="none" stroke="#7f7542" points="16,-91.5 218,-91.5 "/>
<text text-anchor="middle" x="117" y="-80.3" font-family="Times,serif" font-size="14.00">⇊</text>
<polyline fill="none" stroke="#7f7542" points="16,-76.5 218,-76.5 "/>
<text text-anchor="middle" x="117" y="-65.3" font-family="Times,serif" font-size="14.00">X₁ = X₂</text>
<polyline fill="none" stroke="#7f7542" points="16,-61.5 218,-61.5 "/>
<text text-anchor="middle" x="117" y="-50.3" font-family="Times,serif" font-size="14.00">X₁ {..} X₂ ∈ 0</text>
<polyline fill="none" stroke="#7f7542" points="16,-46.5 218,-46.5 "/>
<text text-anchor="middle" x="117" y="-35.3" font-family="Times,serif" font-size="14.00">union(sk₁) = X₁</text>
<polyline fill="none" stroke="#7f7542" points="16,-31.5 218,-31.5 "/>
<text text-anchor="middle" x="117" y="-20.3" font-family="Times,serif" font-size="14.00">union(sk₁) = X₂</text>
</a>
</g>
</g>
<!-- c_0_113&#45;&gt;c_0_124 -->
<g id="edge2" class="edge">
<title>c_0_113&#45;&gt;c_0_124</title>
<path fill="none" stroke="black" stroke-dasharray="5,2" d="M117,-143.49C117,-143.49 117,-116.77 117,-116.77"/>
<polygon fill="black" stroke="black" points="120.5,-116.77 117,-106.77 113.5,-116.77 120.5,-116.77"/>
</g>
</g>
</svg>
