<?xml version="1.0" encoding="UTF-8" standalone="no"?>
<!DOCTYPE svg PUBLIC "-//W3C//DTD SVG 1.1//EN"
 "http://www.w3.org/Graphics/SVG/1.1/DTD/svg11.dtd">
<!-- Generated by graphviz version 5.0.0 (0)
 -->
<!-- Title: proof Pages: 1 -->
<svg width="420pt" height="280pt"
 viewBox="0.00 0.00 420.00 280.00" xmlns="http://www.w3.org/2000/svg" xmlns:xlink="http://www.w3.org/1999/xlink">
<g id="graph0" class="graph" transform="scale(1 1) rotate(0) translate(4 276)">
<title>proof</title>
<g id="clust1" class="cluster">
<title>cluster_0</title>
<polygon fill="transparent" stroke="black" stroke-dasharray="1,5" points="8,-187 8,-264 404,-264 404,-187 8,-187"/>
</g>
<g id="clust2" class="cluster">
<title>cluster_1</title>
<polygon fill="transparent" stroke="black" stroke-width="2" points="104,-135 104,-167 270,-167 270,-135 104,-135"/>
</g>
<g id="clust3" class="cluster">
<title>cluster_2</title>
<polygon fill="transparent" stroke="black" stroke-dasharray="1,5" points="78,-8 78,-115 296,-115 296,-8 78,-8"/>
</g>
<!-- c_0_102 -->
<g id="node1" class="node">
<title>c_0_102</title>
<g id="a_node1"><a xlink:href="c_0_102.html" xlink:title="{X₁ = Ø|X₂ ∈ bool(X₁)|⇊|X₂ = Ø}" target="_vizar">
<polygon fill="#f8edd1" stroke="#7f7542" points="304.5,-195.5 304.5,-255.5 395.5,-255.5 395.5,-195.5 304.5,-195.5"/>
<text text-anchor="middle" x="350" y="-244.3" font-family="Times,serif" font-size="14.00">X₁ = Ø</text>
<polyline fill="none" stroke="#7f7542" points="304.5,-240.5 395.5,-240.5 "/>
<text text-anchor="middle" x="350" y="-229.3" font-family="Times,serif" font-size="14.00">X₂ ∈ bool(X₁)</text>
<polyline fill="none" stroke="#7f7542" points="304.5,-225.5 395.5,-225.5 "/>
<text text-anchor="middle" x="350" y="-214.3" font-family="Times,serif" font-size="14.00">⇊</text>
<polyline fill="none" stroke="#7f7542" points="304.5,-210.5 395.5,-210.5 "/>
<text text-anchor="middle" x="350" y="-199.3" font-family="Times,serif" font-size="14.00">X₂ = Ø</text>
</a>
</g>
</g>
<!-- c_0_114 -->
<g id="node4" class="node">
<title>c_0_114</title>
<g id="a_node4"><a xlink:href="c_0_114.html" xlink:title="{Mycielskian(sk₁) ≠ Ø}" target="_vizar">
<polygon fill="#fa6900" stroke="#7f7542" points="112.5,-143.5 112.5,-158.5 261.5,-158.5 261.5,-143.5 112.5,-143.5"/>
<text text-anchor="middle" x="187" y="-147.3" font-family="Times,serif" font-size="14.00">Mycielskian(sk₁) ≠ Ø</text>
</a>
</g>
</g>
<!-- c_0_102&#45;&gt;c_0_114 -->
<g id="edge1" class="edge">
<title>c_0_102&#45;&gt;c_0_114</title>
<path fill="none" stroke="black" d="M350,-195.2C350,-174.57 350,-151 350,-151 350,-151 271.82,-151 271.82,-151"/>
<polygon fill="black" stroke="black" points="271.82,-147.5 261.82,-151 271.82,-154.5 271.82,-147.5"/>
</g>
<!-- c_0_103 -->
<g id="node2" class="node">
<title>c_0_103</title>
<g id="a_node2"><a xlink:href="c_0_103.html" xlink:title="{sk₂ ∈ bool(Mycielskian(sk₁))}" target="_vizar">
<polygon fill="#fa6900" stroke="#7f7542" points="88,-218 88,-233 286,-233 286,-218 88,-218"/>
<text text-anchor="middle" x="187" y="-221.8" font-family="Times,serif" font-size="14.00">sk₂ ∈ bool(Mycielskian(sk₁))</text>
</a>
</g>
</g>
<!-- c_0_103&#45;&gt;c_0_114 -->
<g id="edge2" class="edge">
<title>c_0_103&#45;&gt;c_0_114</title>
<path fill="none" stroke="black" d="M187,-217.81C187,-217.81 187,-168.76 187,-168.76"/>
<polygon fill="black" stroke="black" points="190.5,-168.76 187,-158.76 183.5,-168.76 190.5,-168.76"/>
</g>
<!-- c_0_104 -->
<g id="node3" class="node">
<title>c_0_104</title>
<g id="a_node3"><a xlink:href="c_0_104.html" xlink:title="{sk₂ ≠ Ø}" target="_vizar">
<polygon fill="#fa6900" stroke="#7f7542" points="16,-218 16,-233 70,-233 70,-218 16,-218"/>
<text text-anchor="middle" x="43" y="-221.8" font-family="Times,serif" font-size="14.00">sk₂ ≠ Ø</text>
</a>
</g>
</g>
<!-- c_0_104&#45;&gt;c_0_114 -->
<g id="edge3" class="edge">
<title>c_0_104&#45;&gt;c_0_114</title>
<path fill="none" stroke="black" d="M43,-217.81C43,-198.77 43,-151 43,-151 43,-151 102.47,-151 102.47,-151"/>
<polygon fill="black" stroke="black" points="102.47,-154.5 112.47,-151 102.47,-147.5 102.47,-154.5"/>
</g>
<!-- c_0_124 -->
<g id="node5" class="node">
<title>c_0_124</title>
<g id="a_node5"><a xlink:href="c_0_124.html" xlink:title="{X₁ \{..\} X₂ ∈ Mycielskian(sk₁)|⇊|X₁ = X₂|X₁ \{..\} X₂ ∈ 0|union(sk₁) = X₁|union(sk₁) = X₂}" target="_vizar">
<polygon fill="#fa6900" stroke="#7f7542" points="86,-16.5 86,-106.5 288,-106.5 288,-16.5 86,-16.5"/>
<text text-anchor="middle" x="187" y="-95.3" font-family="Times,serif" font-size="14.00">X₁ {..} X₂ ∈ Mycielskian(sk₁)</text>
<polyline fill="none" stroke="#7f7542" points="86,-91.5 288,-91.5 "/>
<text text-anchor="middle" x="187" y="-80.3" font-family="Times,serif" font-size="14.00">⇊</text>
<polyline fill="none" stroke="#7f7542" points="86,-76.5 288,-76.5 "/>
<text text-anchor="middle" x="187" y="-65.3" font-family="Times,serif" font-size="14.00">X₁ = X₂</text>
<polyline fill="none" stroke="#7f7542" points="86,-61.5 288,-61.5 "/>
<text text-anchor="middle" x="187" y="-50.3" font-family="Times,serif" font-size="14.00">X₁ {..} X₂ ∈ 0</text>
<polyline fill="none" stroke="#7f7542" points="86,-46.5 288,-46.5 "/>
<text text-anchor="middle" x="187" y="-35.3" font-family="Times,serif" font-size="14.00">union(sk₁) = X₁</text>
<polyline fill="none" stroke="#7f7542" points="86,-31.5 288,-31.5 "/>
<text text-anchor="middle" x="187" y="-20.3" font-family="Times,serif" font-size="14.00">union(sk₁) = X₂</text>
</a>
</g>
</g>
<!-- c_0_114&#45;&gt;c_0_124 -->
<g id="edge4" class="edge">
<title>c_0_114&#45;&gt;c_0_124</title>
<path fill="none" stroke="black" stroke-dasharray="5,2" d="M187,-143.37C187,-143.37 187,-116.66 187,-116.66"/>
<polygon fill="black" stroke="black" points="190.5,-116.66 187,-106.66 183.5,-116.66 190.5,-116.66"/>
</g>
</g>
</svg>
