<?xml version="1.0" encoding="UTF-8" standalone="no"?>
<!DOCTYPE svg PUBLIC "-//W3C//DTD SVG 1.1//EN"
 "http://www.w3.org/Graphics/SVG/1.1/DTD/svg11.dtd">
<!-- Generated by graphviz version 5.0.0 (0)
 -->
<!-- Title: proof Pages: 1 -->
<svg width="126pt" height="123pt"
 viewBox="0.00 0.00 126.00 123.00" xmlns="http://www.w3.org/2000/svg" xmlns:xlink="http://www.w3.org/1999/xlink">
<g id="graph0" class="graph" transform="scale(1 1) rotate(0) translate(4 119)">
<title>proof</title>
<g id="clust1" class="cluster">
<title>cluster_1</title>
<polygon fill="transparent" stroke="black" stroke-width="2" points="16,-75 16,-107 102,-107 102,-75 16,-75"/>
</g>
<g id="clust2" class="cluster">
<title>cluster_2</title>
<polygon fill="transparent" stroke="black" stroke-dasharray="1,5" points="8,-8 8,-55 110,-55 110,-8 8,-8"/>
</g>
<!-- t13_nat_1 -->
<g id="node1" class="node">
<title>t13_nat_1</title>
<g id="a_node1"><a xlink:href="t13_nat_1.html" xlink:title="t13_nat_1" target="_vizar">
<polygon fill="#69d2e7" stroke="#7f7542" points="24,-83.5 24,-98.5 94,-98.5 94,-83.5 24,-83.5"/>
<text text-anchor="middle" x="59" y="-87.3" font-family="Times,serif" font-size="14.00">t13_nat_1</text>
</a>
</g>
</g>
<!-- c_0_81 -->
<g id="node2" class="node">
<title>c_0_81</title>
<g id="a_node2"><a xlink:href="c_0_81.html" xlink:title="{N₁ + 1 ≤ N₂|N₂ ≤ N₁}" target="_vizar">
<polygon fill="#f8edd1" stroke="#7f7542" points="16,-16.5 16,-46.5 102,-46.5 102,-16.5 16,-16.5"/>
<text text-anchor="middle" x="59" y="-35.3" font-family="Times,serif" font-size="14.00">N₁ + 1 ≤ N₂</text>
<polyline fill="none" stroke="#7f7542" points="16,-31.5 102,-31.5 "/>
<text text-anchor="middle" x="59" y="-20.3" font-family="Times,serif" font-size="14.00">N₂ ≤ N₁</text>
</a>
</g>
</g>
<!-- t13_nat_1&#45;&gt;c_0_81 -->
<g id="edge1" class="edge">
<title>t13_nat_1&#45;&gt;c_0_81</title>
<path fill="none" stroke="black" d="M59,-83.22C59,-83.22 59,-56.85 59,-56.85"/>
<polygon fill="black" stroke="black" points="62.5,-56.85 59,-46.85 55.5,-56.85 62.5,-56.85"/>
</g>
</g>
</svg>
