<?xml version="1.0" encoding="UTF-8" standalone="no"?>
<!DOCTYPE svg PUBLIC "-//W3C//DTD SVG 1.1//EN"
 "http://www.w3.org/Graphics/SVG/1.1/DTD/svg11.dtd">
<!-- Generated by graphviz version 5.0.0 (0)
 -->
<!-- Title: proof Pages: 1 -->
<svg width="190pt" height="183pt"
 viewBox="0.00 0.00 190.00 183.00" xmlns="http://www.w3.org/2000/svg" xmlns:xlink="http://www.w3.org/1999/xlink">
<g id="graph0" class="graph" transform="scale(1 1) rotate(0) translate(4 179)">
<title>proof</title>
<g id="clust1" class="cluster">
<title>cluster_1</title>
<polygon fill="transparent" stroke="black" stroke-width="2" points="36,-135 36,-167 146,-167 146,-135 36,-135"/>
</g>
<g id="clust2" class="cluster">
<title>cluster_2</title>
<polygon fill="transparent" stroke="black" stroke-dasharray="1,5" points="8,-8 8,-115 174,-115 174,-8 8,-8"/>
</g>
<!-- t53_scmyciel -->
<g id="node1" class="node">
<title>t53_scmyciel</title>
<g id="a_node1"><a xlink:href="t53_scmyciel.html" xlink:title="t53_scmyciel" target="_parent">
<polygon fill="#69d2e7" stroke="#7f7542" points="44.5,-143.5 44.5,-158.5 137.5,-158.5 137.5,-143.5 44.5,-143.5"/>
<text text-anchor="middle" x="91" y="-147.3" font-family="Times,serif" font-size="14.00">t53_scmyciel</text>
</a>
</g>
</g>
<!-- c_0_126 -->
<g id="node2" class="node">
<title>c_0_126</title>
<g id="a_node2"><a xlink:href="c_0_126.html" xlink:title="{SimpleGraph&#45;like(X₁)|X₂ ∈ union(X₁)|X₃ ∈ union(X₁)|clique(X₁)|⇊|X₂ \{..\} X₃ ∈ X₁}" target="_parent">
<polygon fill="#f8edd1" stroke="#7f7542" points="16,-16.5 16,-106.5 166,-106.5 166,-16.5 16,-16.5"/>
<text text-anchor="middle" x="91" y="-95.3" font-family="Times,serif" font-size="14.00">SimpleGraph&#45;like(X₁)</text>
<polyline fill="none" stroke="#7f7542" points="16,-91.5 166,-91.5 "/>
<text text-anchor="middle" x="91" y="-80.3" font-family="Times,serif" font-size="14.00">X₂ ∈ union(X₁)</text>
<polyline fill="none" stroke="#7f7542" points="16,-76.5 166,-76.5 "/>
<text text-anchor="middle" x="91" y="-65.3" font-family="Times,serif" font-size="14.00">X₃ ∈ union(X₁)</text>
<polyline fill="none" stroke="#7f7542" points="16,-61.5 166,-61.5 "/>
<text text-anchor="middle" x="91" y="-50.3" font-family="Times,serif" font-size="14.00">clique(X₁)</text>
<polyline fill="none" stroke="#7f7542" points="16,-46.5 166,-46.5 "/>
<text text-anchor="middle" x="91" y="-35.3" font-family="Times,serif" font-size="14.00">⇊</text>
<polyline fill="none" stroke="#7f7542" points="16,-31.5 166,-31.5 "/>
<text text-anchor="middle" x="91" y="-20.3" font-family="Times,serif" font-size="14.00">X₂ {..} X₃ ∈ X₁</text>
</a>
</g>
</g>
<!-- t53_scmyciel&#45;&gt;c_0_126 -->
<g id="edge1" class="edge">
<title>t53_scmyciel&#45;&gt;c_0_126</title>
<path fill="none" stroke="black" d="M91,-143.37C91,-143.37 91,-116.66 91,-116.66"/>
<polygon fill="black" stroke="black" points="94.5,-116.66 91,-106.66 87.5,-116.66 94.5,-116.66"/>
</g>
</g>
</svg>
