<?xml version="1.0" encoding="UTF-8" standalone="no"?>
<!DOCTYPE svg PUBLIC "-//W3C//DTD SVG 1.1//EN"
 "http://www.w3.org/Graphics/SVG/1.1/DTD/svg11.dtd">
<!-- Generated by graphviz version 5.0.0 (0)
 -->
<!-- Title: proof Pages: 1 -->
<svg width="1158pt" height="160pt"
 viewBox="0.00 0.00 1158.00 160.00" xmlns="http://www.w3.org/2000/svg" xmlns:xlink="http://www.w3.org/1999/xlink">
<g id="graph0" class="graph" transform="scale(1 1) rotate(0) translate(4 156)">
<title>proof</title>
<g id="clust1" class="cluster">
<title>cluster_0</title>
<polygon fill="transparent" stroke="black" stroke-dasharray="1,5" points="510,-112 510,-144 606,-144 606,-112 510,-112"/>
</g>
<g id="clust2" class="cluster">
<title>cluster_1</title>
<polygon fill="transparent" stroke="black" stroke-width="2" points="512,-60 512,-92 604,-92 604,-60 512,-60"/>
</g>
<g id="clust3" class="cluster">
<title>cluster_2</title>
<polygon fill="transparent" stroke="black" stroke-dasharray="1,5" points="8,-8 8,-40 1142,-40 1142,-8 8,-8"/>
</g>
<!-- t28_card_2 -->
<g id="node1" class="node">
<title>t28_card_2</title>
<g id="a_node1"><a xlink:href="t28_card_2.html" xlink:title="t28_card_2" target="_vizar">
<polygon fill="#fa6900" stroke="#7f7542" points="518.5,-120.5 518.5,-135.5 597.5,-135.5 597.5,-120.5 518.5,-120.5"/>
<text text-anchor="middle" x="558" y="-124.3" font-family="Times,serif" font-size="14.00">t28_card_2</text>
</a>
</g>
</g>
<!-- c_0_48 -->
<g id="node2" class="node">
<title>c_0_48</title>
<g id="a_node2"><a xlink:href="c_0_48.html" xlink:title="{sk₁ ∈ Card}" target="_vizar">
<polygon fill="#fa6900" stroke="#7f7542" points="520,-68.5 520,-83.5 596,-83.5 596,-68.5 520,-68.5"/>
<text text-anchor="middle" x="558" y="-72.3" font-family="Times,serif" font-size="14.00">sk₁ ∈ Card</text>
</a>
</g>
</g>
<!-- t28_card_2&#45;&gt;c_0_48 -->
<g id="edge1" class="edge">
<title>t28_card_2&#45;&gt;c_0_48</title>
<path fill="none" stroke="black" d="M558,-120.33C558,-120.33 558,-93.7 558,-93.7"/>
<polygon fill="black" stroke="black" points="561.5,-93.7 558,-83.7 554.5,-93.7 561.5,-93.7"/>
</g>
<!-- c_0_66 -->
<g id="node3" class="node">
<title>c_0_66</title>
<g id="a_node3"><a xlink:href="c_0_66.html" xlink:title="{sk₁ ^ (sk₂ + sk₃) ≠ \|(\{f:sk₂ → sk₁\} × \{f:sk₃ → sk₁\})\|}" target="_vizar">
<polygon fill="#fa6900" stroke="#7f7542" points="774.5,-16.5 774.5,-31.5 1133.5,-31.5 1133.5,-16.5 774.5,-16.5"/>
<text text-anchor="middle" x="954" y="-20.3" font-family="Times,serif" font-size="14.00">sk₁ ^ (sk₂ + sk₃) ≠ |({f:sk₂ → sk₁} × {f:sk₃ → sk₁})|</text>
</a>
</g>
</g>
<!-- c_0_48&#45;&gt;c_0_66 -->
<g id="edge2" class="edge">
<title>c_0_48&#45;&gt;c_0_66</title>
<path fill="none" stroke="black" stroke-dasharray="5,2" d="M596.33,-76C695.71,-76 954,-76 954,-76 954,-76 954,-41.67 954,-41.67"/>
<polygon fill="black" stroke="black" points="957.5,-41.67 954,-31.67 950.5,-41.67 957.5,-41.67"/>
</g>
<!-- c_0_69 -->
<g id="node4" class="node">
<title>c_0_69</title>
<g id="a_node4"><a xlink:href="c_0_69.html" xlink:title="{\|\{f:(sk₂ + sk₃) → sk₁\}\| ≠ \|(\{f:sk₂ → sk₁\} × \{f:sk₃ → sk₁\})\|}" target="_vizar">
<polygon fill="#fa6900" stroke="#7f7542" points="360,-16.5 360,-31.5 756,-31.5 756,-16.5 360,-16.5"/>
<text text-anchor="middle" x="558" y="-20.3" font-family="Times,serif" font-size="14.00">|{f:(sk₂ + sk₃) → sk₁}| ≠ |({f:sk₂ → sk₁} × {f:sk₃ → sk₁})|</text>
</a>
</g>
</g>
<!-- c_0_48&#45;&gt;c_0_69 -->
<g id="edge3" class="edge">
<title>c_0_48&#45;&gt;c_0_69</title>
<path fill="none" stroke="black" stroke-dasharray="5,2" d="M558,-68.33C558,-68.33 558,-41.7 558,-41.7"/>
<polygon fill="black" stroke="black" points="561.5,-41.7 558,-31.7 554.5,-41.7 561.5,-41.7"/>
</g>
<!-- c_0_55 -->
<g id="node5" class="node">
<title>c_0_55</title>
<g id="a_node5"><a xlink:href="c_0_55.html" xlink:title="{\|\{f:sk₂ → sk₁\}\| * (sk₁ ^ sk₃) ≠ sk₁ ^ (sk₂ + sk₃)}" target="_vizar">
<polygon fill="#fa6900" stroke="#7f7542" points="16,-16.5 16,-31.5 342,-31.5 342,-16.5 16,-16.5"/>
<text text-anchor="middle" x="179" y="-20.3" font-family="Times,serif" font-size="14.00">|{f:sk₂ → sk₁}| * (sk₁ ^ sk₃) ≠ sk₁ ^ (sk₂ + sk₃)</text>
</a>
</g>
</g>
<!-- c_0_48&#45;&gt;c_0_55 -->
<g id="edge4" class="edge">
<title>c_0_48&#45;&gt;c_0_55</title>
<path fill="none" stroke="black" stroke-dasharray="5,2" d="M519.92,-76C423.82,-76 179,-76 179,-76 179,-76 179,-41.67 179,-41.67"/>
<polygon fill="black" stroke="black" points="182.5,-41.67 179,-31.67 175.5,-41.67 182.5,-41.67"/>
</g>
</g>
</svg>
