<?xml version="1.0" encoding="UTF-8" standalone="no"?>
<!DOCTYPE svg PUBLIC "-//W3C//DTD SVG 1.1//EN"
 "http://www.w3.org/Graphics/SVG/1.1/DTD/svg11.dtd">
<!-- Generated by graphviz version 5.0.0 (0)
 -->
<!-- Title: proof Pages: 1 -->
<svg width="438pt" height="205pt"
 viewBox="0.00 0.00 438.00 205.00" xmlns="http://www.w3.org/2000/svg" xmlns:xlink="http://www.w3.org/1999/xlink">
<g id="graph0" class="graph" transform="scale(1 1) rotate(0) translate(4 201)">
<title>proof</title>
<g id="clust1" class="cluster">
<title>cluster_0</title>
<polygon fill="transparent" stroke="black" stroke-dasharray="1,5" points="8,-142 8,-189 422,-189 422,-142 8,-142"/>
</g>
<g id="clust2" class="cluster">
<title>cluster_1</title>
<polygon fill="transparent" stroke="black" stroke-width="2" points="153,-75 153,-122 309,-122 309,-75 153,-75"/>
</g>
<g id="clust3" class="cluster">
<title>cluster_2</title>
<polygon fill="transparent" stroke="black" stroke-dasharray="1,5" points="111,-8 111,-55 351,-55 351,-8 111,-8"/>
</g>
<!-- c_0_29 -->
<g id="node1" class="node">
<title>c_0_29</title>
<g id="a_node1"><a xlink:href="c_0_29.html" xlink:title="{\|(\|X₁\|)\| = \|X₁\|}" target="_parent">
<polygon fill="#f8edd1" stroke="#7f7542" points="324.5,-158 324.5,-173 413.5,-173 413.5,-158 324.5,-158"/>
<text text-anchor="middle" x="369" y="-161.8" font-family="Times,serif" font-size="14.00">|(|X₁|)| = |X₁|</text>
</a>
</g>
</g>
<!-- c_0_39 -->
<g id="node3" class="node">
<title>c_0_39</title>
<g id="a_node3"><a xlink:href="c_0_39.html" xlink:title="{X₃ = X₄|\|(κ₁ + κ₂)\| = κ₁ + κ₂}" target="_parent">
<polygon fill="#f8edd1" stroke="#7f7542" points="161,-83.5 161,-113.5 301,-113.5 301,-83.5 161,-83.5"/>
<text text-anchor="middle" x="231" y="-102.3" font-family="Times,serif" font-size="14.00">X₃ = X₄</text>
<polyline fill="none" stroke="#7f7542" points="161,-98.5 301,-98.5 "/>
<text text-anchor="middle" x="231" y="-87.3" font-family="Times,serif" font-size="14.00">|(κ₁ + κ₂)| = κ₁ + κ₂</text>
</a>
</g>
</g>
<!-- c_0_29&#45;&gt;c_0_39 -->
<g id="edge1" class="edge">
<title>c_0_29&#45;&gt;c_0_39</title>
<path fill="none" stroke="black" d="M333.5,-157.76C333.5,-140.03 333.5,-98 333.5,-98 333.5,-98 311.07,-98 311.07,-98"/>
<polygon fill="black" stroke="black" points="311.07,-94.5 301.07,-98 311.07,-101.5 311.07,-94.5"/>
</g>
<!-- c_0_30 -->
<g id="node2" class="node">
<title>c_0_30</title>
<g id="a_node2"><a xlink:href="c_0_30.html" xlink:title="{X₃ = X₄|κ₁ + κ₂ = \|((κ₁ × (\{X₃\})) ∪ (κ₂ × (\{X₄\})))\|}" target="_parent">
<polygon fill="#f8edd1" stroke="#7f7542" points="16,-150.5 16,-180.5 306,-180.5 306,-150.5 16,-150.5"/>
<text text-anchor="middle" x="161" y="-169.3" font-family="Times,serif" font-size="14.00">X₃ = X₄</text>
<polyline fill="none" stroke="#7f7542" points="16,-165.5 306,-165.5 "/>
<text text-anchor="middle" x="161" y="-154.3" font-family="Times,serif" font-size="14.00">κ₁ + κ₂ = |((κ₁ × ({X₃})) ∪ (κ₂ × ({X₄})))|</text>
</a>
</g>
</g>
<!-- c_0_30&#45;&gt;c_0_39 -->
<g id="edge2" class="edge">
<title>c_0_30&#45;&gt;c_0_39</title>
<path fill="none" stroke="black" d="M231,-150.3C231,-150.3 231,-123.64 231,-123.64"/>
<polygon fill="black" stroke="black" points="234.5,-123.64 231,-113.64 227.5,-123.64 234.5,-123.64"/>
</g>
<!-- c_0_49 -->
<g id="node4" class="node">
<title>c_0_49</title>
<g id="a_node4"><a xlink:href="c_0_49.html" xlink:title="{X₂ = X₃|\|(κ₁ + skolem₃)\| = κ₁ + skolem₃}" target="_parent">
<polygon fill="#fa6900" stroke="#7f7542" points="119.5,-16.5 119.5,-46.5 342.5,-46.5 342.5,-16.5 119.5,-16.5"/>
<text text-anchor="middle" x="231" y="-35.3" font-family="Times,serif" font-size="14.00">X₂ = X₃</text>
<polyline fill="none" stroke="#7f7542" points="119.5,-31.5 342.5,-31.5 "/>
<text text-anchor="middle" x="231" y="-20.3" font-family="Times,serif" font-size="14.00">|(κ₁ + skolem₃)| = κ₁ + skolem₃</text>
</a>
</g>
</g>
<!-- c_0_39&#45;&gt;c_0_49 -->
<g id="edge3" class="edge">
<title>c_0_39&#45;&gt;c_0_49</title>
<path fill="none" stroke="black" stroke-dasharray="5,2" d="M231,-83.3C231,-83.3 231,-56.64 231,-56.64"/>
<polygon fill="black" stroke="black" points="234.5,-56.64 231,-46.64 227.5,-56.64 234.5,-56.64"/>
</g>
</g>
</svg>
