<?xml version="1.0" encoding="UTF-8" standalone="no"?>
<!DOCTYPE svg PUBLIC "-//W3C//DTD SVG 1.1//EN"
 "http://www.w3.org/Graphics/SVG/1.1/DTD/svg11.dtd">
<!-- Generated by graphviz version 5.0.0 (0)
 -->
<!-- Title: proof Pages: 1 -->
<svg width="607pt" height="250pt"
 viewBox="0.00 0.00 607.00 250.00" xmlns="http://www.w3.org/2000/svg" xmlns:xlink="http://www.w3.org/1999/xlink">
<g id="graph0" class="graph" transform="scale(1 1) rotate(0) translate(4 246)">
<title>proof</title>
<g id="clust1" class="cluster">
<title>cluster_0</title>
<polygon fill="transparent" stroke="black" stroke-dasharray="1,5" points="8,-172 8,-234 591,-234 591,-172 8,-172"/>
</g>
<g id="clust2" class="cluster">
<title>cluster_1</title>
<polygon fill="transparent" stroke="black" stroke-width="2" points="89,-90 89,-152 491,-152 491,-90 89,-90"/>
</g>
<g id="clust3" class="cluster">
<title>cluster_2</title>
<polygon fill="transparent" stroke="black" stroke-dasharray="1,5" points="52,-8 52,-70 528,-70 528,-8 52,-8"/>
</g>
<!-- c_0_53 -->
<g id="node1" class="node">
<title>c_0_53</title>
<g id="a_node1"><a xlink:href="c_0_53.html" xlink:title="{\|(X₁ × X₂)\| = \|(X₂ × X₁)\|}" target="_parent">
<polygon fill="#f8edd1" stroke="#7f7542" points="419.5,-195.5 419.5,-210.5 582.5,-210.5 582.5,-195.5 419.5,-195.5"/>
<text text-anchor="middle" x="501" y="-199.3" font-family="Times,serif" font-size="14.00">|(X₁ × X₂)| = |(X₂ × X₁)|</text>
</a>
</g>
</g>
<!-- c_0_58 -->
<g id="node3" class="node">
<title>c_0_58</title>
<g id="a_node3"><a xlink:href="c_0_58.html" xlink:title="{X₃ ∩ X₁ = Ø|⇊|\|((\{f:X₁ → X₂\}) × (\{f:X₃ → X₂\}))\| = \|(\{f:(X₃ ∪ X₁) → X₂\})\|}" target="_parent">
<polygon fill="#f8edd1" stroke="#7f7542" points="97.5,-98.5 97.5,-143.5 482.5,-143.5 482.5,-98.5 97.5,-98.5"/>
<text text-anchor="middle" x="290" y="-132.3" font-family="Times,serif" font-size="14.00">X₃ ∩ X₁ = Ø</text>
<polyline fill="none" stroke="#7f7542" points="97.5,-128.5 482.5,-128.5 "/>
<text text-anchor="middle" x="290" y="-117.3" font-family="Times,serif" font-size="14.00">⇊</text>
<polyline fill="none" stroke="#7f7542" points="97.5,-113.5 482.5,-113.5 "/>
<text text-anchor="middle" x="290" y="-102.3" font-family="Times,serif" font-size="14.00">|(({f:X₁ → X₂}) × ({f:X₃ → X₂}))| = |({f:(X₃ ∪ X₁) → X₂})|</text>
</a>
</g>
</g>
<!-- c_0_53&#45;&gt;c_0_58 -->
<g id="edge1" class="edge">
<title>c_0_53&#45;&gt;c_0_58</title>
<path fill="none" stroke="black" d="M451,-195.43C451,-195.43 451,-153.65 451,-153.65"/>
<polygon fill="black" stroke="black" points="454.5,-153.65 451,-143.65 447.5,-153.65 454.5,-153.65"/>
</g>
<!-- c_0_52 -->
<g id="node2" class="node">
<title>c_0_52</title>
<g id="a_node2"><a xlink:href="c_0_52.html" xlink:title="{X₁ ∩ X₂ = Ø|⇊|\|(\{f:(X₁ ∪ X₂) → X₃\})\| = \|((\{f:X₁ → X₃\}) × (\{f:X₂ → X₃\}))\|}" target="_parent">
<polygon fill="#f8edd1" stroke="#7f7542" points="16.5,-180.5 16.5,-225.5 401.5,-225.5 401.5,-180.5 16.5,-180.5"/>
<text text-anchor="middle" x="209" y="-214.3" font-family="Times,serif" font-size="14.00">X₁ ∩ X₂ = Ø</text>
<polyline fill="none" stroke="#7f7542" points="16.5,-210.5 401.5,-210.5 "/>
<text text-anchor="middle" x="209" y="-199.3" font-family="Times,serif" font-size="14.00">⇊</text>
<polyline fill="none" stroke="#7f7542" points="16.5,-195.5 401.5,-195.5 "/>
<text text-anchor="middle" x="209" y="-184.3" font-family="Times,serif" font-size="14.00">|({f:(X₁ ∪ X₂) → X₃})| = |(({f:X₁ → X₃}) × ({f:X₂ → X₃}))|</text>
</a>
</g>
</g>
<!-- c_0_52&#45;&gt;c_0_58 -->
<g id="edge2" class="edge">
<title>c_0_52&#45;&gt;c_0_58</title>
<path fill="none" stroke="black" d="M249.5,-180.16C249.5,-180.16 249.5,-153.72 249.5,-153.72"/>
<polygon fill="black" stroke="black" points="253,-153.72 249.5,-143.72 246,-153.72 253,-153.72"/>
</g>
<!-- c_0_64 -->
<g id="node4" class="node">
<title>c_0_64</title>
<g id="a_node4"><a xlink:href="c_0_64.html" xlink:title="{X₁ ∩ X₃ × (\{X₄\}) = Ø|⇊|\|((\{f:X₁ → X₂\}) × (\{f:X₃ → X₂\}))\| = \|(\{f:(X₁ ∪ (X₃ × (\{X₄\}))) → X₂\})\|}" target="_parent">
<polygon fill="#f8edd1" stroke="#7f7542" points="60,-16.5 60,-61.5 520,-61.5 520,-16.5 60,-16.5"/>
<text text-anchor="middle" x="290" y="-50.3" font-family="Times,serif" font-size="14.00">X₁ ∩ X₃ × ({X₄}) = Ø</text>
<polyline fill="none" stroke="#7f7542" points="60,-46.5 520,-46.5 "/>
<text text-anchor="middle" x="290" y="-35.3" font-family="Times,serif" font-size="14.00">⇊</text>
<polyline fill="none" stroke="#7f7542" points="60,-31.5 520,-31.5 "/>
<text text-anchor="middle" x="290" y="-20.3" font-family="Times,serif" font-size="14.00">|(({f:X₁ → X₂}) × ({f:X₃ → X₂}))| = |({f:(X₁ ∪ (X₃ × ({X₄}))) → X₂})|</text>
</a>
</g>
</g>
<!-- c_0_58&#45;&gt;c_0_64 -->
<g id="edge3" class="edge">
<title>c_0_58&#45;&gt;c_0_64</title>
<path fill="none" stroke="black" stroke-dasharray="5,2" d="M290,-98.16C290,-98.16 290,-71.72 290,-71.72"/>
<polygon fill="black" stroke="black" points="293.5,-71.72 290,-61.72 286.5,-71.72 293.5,-71.72"/>
</g>
</g>
</svg>
