<?xml version="1.0" encoding="UTF-8" standalone="no"?>
<!DOCTYPE svg PUBLIC "-//W3C//DTD SVG 1.1//EN"
 "http://www.w3.org/Graphics/SVG/1.1/DTD/svg11.dtd">
<!-- Generated by graphviz version 5.0.0 (0)
 -->
<!-- Title: proof Pages: 1 -->
<svg width="1612pt" height="220pt"
 viewBox="0.00 0.00 1612.00 220.00" xmlns="http://www.w3.org/2000/svg" xmlns:xlink="http://www.w3.org/1999/xlink">
<g id="graph0" class="graph" transform="scale(1 1) rotate(0) translate(4 216)">
<title>proof</title>
<g id="clust1" class="cluster">
<title>cluster_0</title>
<polygon fill="transparent" stroke="black" stroke-dasharray="1,5" points="8,-142 8,-204 1596,-204 1596,-142 8,-142"/>
</g>
<g id="clust2" class="cluster">
<title>cluster_1</title>
<polygon fill="transparent" stroke="black" stroke-width="2" points="498,-75 498,-122 896,-122 896,-75 498,-75"/>
</g>
<g id="clust3" class="cluster">
<title>cluster_2</title>
<polygon fill="transparent" stroke="black" stroke-dasharray="1,5" points="456,-8 456,-55 938,-55 938,-8 456,-8"/>
</g>
<!-- c_0_64 -->
<g id="node1" class="node">
<title>c_0_64</title>
<g id="a_node1"><a xlink:href="c_0_64.html" xlink:title="{X₁ ∩ X₃ × (\{X₄\}) = Ø|⇊|\|((\{f:X₁ → X₂\}) × (\{f:X₃ → X₂\}))\| = \|(\{f:(X₁ ∪ (X₃ × (\{X₄\}))) → X₂\})\|}" target="_parent">
<polygon fill="#f8edd1" stroke="#7f7542" points="1128,-150.5 1128,-195.5 1588,-195.5 1588,-150.5 1128,-150.5"/>
<text text-anchor="middle" x="1358" y="-184.3" font-family="Times,serif" font-size="14.00">X₁ ∩ X₃ × ({X₄}) = Ø</text>
<polyline fill="none" stroke="#7f7542" points="1128,-180.5 1588,-180.5 "/>
<text text-anchor="middle" x="1358" y="-169.3" font-family="Times,serif" font-size="14.00">⇊</text>
<polyline fill="none" stroke="#7f7542" points="1128,-165.5 1588,-165.5 "/>
<text text-anchor="middle" x="1358" y="-154.3" font-family="Times,serif" font-size="14.00">|(({f:X₁ → X₂}) × ({f:X₃ → X₂}))| = |({f:(X₁ ∪ (X₃ × ({X₄}))) → X₂})|</text>
</a>
</g>
</g>
<!-- c_0_68 -->
<g id="node5" class="node">
<title>c_0_68</title>
<g id="a_node5"><a xlink:href="c_0_68.html" xlink:title="{X₄ = X₅|\|((\{f:κ₁ → X₂\}) × (\{f:κ₃ → X₂\}))\| = \|(\{f:(κ₁ + κ₃) → X₂\})\|}" target="_parent">
<polygon fill="#f8edd1" stroke="#7f7542" points="506,-83.5 506,-113.5 888,-113.5 888,-83.5 506,-83.5"/>
<text text-anchor="middle" x="697" y="-102.3" font-family="Times,serif" font-size="14.00">X₄ = X₅</text>
<polyline fill="none" stroke="#7f7542" points="506,-98.5 888,-98.5 "/>
<text text-anchor="middle" x="697" y="-87.3" font-family="Times,serif" font-size="14.00">|(({f:κ₁ → X₂}) × ({f:κ₃ → X₂}))| = |({f:(κ₁ + κ₃) → X₂})|</text>
</a>
</g>
</g>
<!-- c_0_64&#45;&gt;c_0_68 -->
<g id="edge1" class="edge">
<title>c_0_64&#45;&gt;c_0_68</title>
<path fill="none" stroke="black" d="M1127.87,-153C986.9,-153 833.33,-153 833.33,-153 833.33,-153 833.33,-123.68 833.33,-123.68"/>
<polygon fill="black" stroke="black" points="836.83,-123.68 833.33,-113.68 829.83,-123.68 836.83,-123.68"/>
</g>
<!-- c_0_59 -->
<g id="node2" class="node">
<title>c_0_59</title>
<g id="a_node2"><a xlink:href="c_0_59.html" xlink:title="{\|((\{f:(X₁ × (\{X₂\})) → X₃\}) × X₄)\| = \|(X₄ × (\{f:X₁ → X₃\}))\|}" target="_parent">
<polygon fill="#f8edd1" stroke="#7f7542" points="724,-165.5 724,-180.5 1110,-180.5 1110,-165.5 724,-165.5"/>
<text text-anchor="middle" x="917" y="-169.3" font-family="Times,serif" font-size="14.00">|(({f:(X₁ × ({X₂})) → X₃}) × X₄)| = |(X₄ × ({f:X₁ → X₃}))|</text>
</a>
</g>
</g>
<!-- c_0_59&#45;&gt;c_0_68 -->
<g id="edge2" class="edge">
<title>c_0_59&#45;&gt;c_0_68</title>
<path fill="none" stroke="black" d="M778.67,-165.31C778.67,-165.31 778.67,-123.75 778.67,-123.75"/>
<polygon fill="black" stroke="black" points="782.17,-123.75 778.67,-113.75 775.17,-123.75 782.17,-123.75"/>
</g>
<!-- c_0_63 -->
<g id="node3" class="node">
<title>c_0_63</title>
<g id="a_node3"><a xlink:href="c_0_63.html" xlink:title="{X₂ = X₄|\|(\{f:((κ₁ × (\{X₂\})) ∪ (κ₃ × (\{X₄\}))) → X₅\})\| = \|(\{f:(κ₃ + κ₁) → X₅\})\|}" target="_parent">
<polygon fill="#f8edd1" stroke="#7f7542" points="248,-158 248,-188 706,-188 706,-158 248,-158"/>
<text text-anchor="middle" x="477" y="-176.8" font-family="Times,serif" font-size="14.00">X₂ = X₄</text>
<polyline fill="none" stroke="#7f7542" points="248,-173 706,-173 "/>
<text text-anchor="middle" x="477" y="-161.8" font-family="Times,serif" font-size="14.00">|({f:((κ₁ × ({X₂})) ∪ (κ₃ × ({X₄}))) → X₅})| = |({f:(κ₃ + κ₁) → X₅})|</text>
</a>
</g>
</g>
<!-- c_0_63&#45;&gt;c_0_68 -->
<g id="edge3" class="edge">
<title>c_0_63&#45;&gt;c_0_68</title>
<path fill="none" stroke="black" d="M606,-157.92C606,-157.92 606,-123.55 606,-123.55"/>
<polygon fill="black" stroke="black" points="609.5,-123.55 606,-113.55 602.5,-123.55 609.5,-123.55"/>
</g>
<!-- c_0_65 -->
<g id="node4" class="node">
<title>c_0_65</title>
<g id="a_node4"><a xlink:href="c_0_65.html" xlink:title="{X₁ × (\{X₂\}) ∩ X₃ × (\{X₄\}) = Ø|X₂ = X₄}" target="_parent">
<polygon fill="#f8edd1" stroke="#7f7542" points="16.5,-158 16.5,-188 229.5,-188 229.5,-158 16.5,-158"/>
<text text-anchor="middle" x="123" y="-176.8" font-family="Times,serif" font-size="14.00">X₁ × ({X₂}) ∩ X₃ × ({X₄}) = Ø</text>
<polyline fill="none" stroke="#7f7542" points="16.5,-173 229.5,-173 "/>
<text text-anchor="middle" x="123" y="-161.8" font-family="Times,serif" font-size="14.00">X₂ = X₄</text>
</a>
</g>
</g>
<!-- c_0_65&#45;&gt;c_0_68 -->
<g id="edge4" class="edge">
<title>c_0_65&#45;&gt;c_0_68</title>
<path fill="none" stroke="black" d="M123,-157.82C123,-135.91 123,-98 123,-98 123,-98 495.87,-98 495.87,-98"/>
<polygon fill="black" stroke="black" points="495.87,-101.5 505.87,-98 495.87,-94.5 495.87,-101.5"/>
</g>
<!-- c_0_71 -->
<g id="node6" class="node">
<title>c_0_71</title>
<g id="a_node6"><a xlink:href="c_0_71.html" xlink:title="{X₃ = X₄|\|((\{f:skolem₂ → X₁\}) × (\{f:κ₂ → X₁\}))\| = \|(\{f:(skolem₂ + κ₂) → X₁\})\|}" target="_parent">
<polygon fill="#fa6900" stroke="#7f7542" points="464.5,-16.5 464.5,-46.5 929.5,-46.5 929.5,-16.5 464.5,-16.5"/>
<text text-anchor="middle" x="697" y="-35.3" font-family="Times,serif" font-size="14.00">X₃ = X₄</text>
<polyline fill="none" stroke="#7f7542" points="464.5,-31.5 929.5,-31.5 "/>
<text text-anchor="middle" x="697" y="-20.3" font-family="Times,serif" font-size="14.00">|(({f:skolem₂ → X₁}) × ({f:κ₂ → X₁}))| = |({f:(skolem₂ + κ₂) → X₁})|</text>
</a>
</g>
</g>
<!-- c_0_68&#45;&gt;c_0_71 -->
<g id="edge5" class="edge">
<title>c_0_68&#45;&gt;c_0_71</title>
<path fill="none" stroke="black" stroke-dasharray="5,2" d="M697,-83.3C697,-83.3 697,-56.64 697,-56.64"/>
<polygon fill="black" stroke="black" points="700.5,-56.64 697,-46.64 693.5,-56.64 700.5,-56.64"/>
</g>
</g>
</svg>
