<?xml version="1.0" encoding="UTF-8" standalone="no"?>
<!DOCTYPE svg PUBLIC "-//W3C//DTD SVG 1.1//EN"
 "http://www.w3.org/Graphics/SVG/1.1/DTD/svg11.dtd">
<!-- Generated by graphviz version 5.0.0 (0)
 -->
<!-- Title: proof Pages: 1 -->
<svg width="1476pt" height="220pt"
 viewBox="0.00 0.00 1476.00 220.00" xmlns="http://www.w3.org/2000/svg" xmlns:xlink="http://www.w3.org/1999/xlink">
<g id="graph0" class="graph" transform="scale(1 1) rotate(0) translate(4 216)">
<title>proof</title>
<g id="clust1" class="cluster">
<title>cluster_0</title>
<polygon fill="transparent" stroke="black" stroke-dasharray="1,5" points="8,-142 8,-204 1460,-204 1460,-142 8,-142"/>
</g>
<g id="clust2" class="cluster">
<title>cluster_1</title>
<polygon fill="transparent" stroke="black" stroke-width="2" points="508,-75 508,-122 876,-122 876,-75 508,-75"/>
</g>
<g id="clust3" class="cluster">
<title>cluster_2</title>
<polygon fill="transparent" stroke="black" stroke-dasharray="1,5" points="502,-8 502,-55 882,-55 882,-8 502,-8"/>
</g>
<!-- c_0_64 -->
<g id="node1" class="node">
<title>c_0_64</title>
<g id="a_node1"><a xlink:href="c_0_64.html" xlink:title="{X₁ ∩ X₃ × \{X₄\} = Ø|⇊|\|(\{f:X₁ → X₂\} × \{f:X₃ → X₂\})\| = \|\{f:(X₁ ∪ (X₃ × \{X₄\})) → X₂\}\|}" target="_parent">
<polygon fill="#f8edd1" stroke="#7f7542" points="1034,-150.5 1034,-195.5 1452,-195.5 1452,-150.5 1034,-150.5"/>
<text text-anchor="middle" x="1243" y="-184.3" font-family="Times,serif" font-size="14.00">X₁ ∩ X₃ × {X₄} = Ø</text>
<polyline fill="none" stroke="#7f7542" points="1034,-180.5 1452,-180.5 "/>
<text text-anchor="middle" x="1243" y="-169.3" font-family="Times,serif" font-size="14.00">⇊</text>
<polyline fill="none" stroke="#7f7542" points="1034,-165.5 1452,-165.5 "/>
<text text-anchor="middle" x="1243" y="-154.3" font-family="Times,serif" font-size="14.00">|({f:X₁ → X₂} × {f:X₃ → X₂})| = |{f:(X₁ ∪ (X₃ × {X₄})) → X₂}|</text>
</a>
</g>
</g>
<!-- c_0_68 -->
<g id="node5" class="node">
<title>c_0_68</title>
<g id="a_node5"><a xlink:href="c_0_68.html" xlink:title="{X₄ = X₅|\|(\{f:κ₁ → X₂\} × \{f:κ₃ → X₂\})\| = \|\{f:(κ₁ + κ₃) → X₂\}\|}" target="_parent">
<polygon fill="#f8edd1" stroke="#7f7542" points="516.5,-83.5 516.5,-113.5 867.5,-113.5 867.5,-83.5 516.5,-83.5"/>
<text text-anchor="middle" x="692" y="-102.3" font-family="Times,serif" font-size="14.00">X₄ = X₅</text>
<polyline fill="none" stroke="#7f7542" points="516.5,-98.5 867.5,-98.5 "/>
<text text-anchor="middle" x="692" y="-87.3" font-family="Times,serif" font-size="14.00">|({f:κ₁ → X₂} × {f:κ₃ → X₂})| = |{f:(κ₁ + κ₃) → X₂}|</text>
</a>
</g>
</g>
<!-- c_0_64&#45;&gt;c_0_68 -->
<g id="edge1" class="edge">
<title>c_0_64&#45;&gt;c_0_68</title>
<path fill="none" stroke="black" d="M1033.77,-153C918.48,-153 798.5,-153 798.5,-153 798.5,-153 798.5,-123.68 798.5,-123.68"/>
<polygon fill="black" stroke="black" points="802,-123.68 798.5,-113.68 795,-123.68 802,-123.68"/>
</g>
<!-- c_0_59 -->
<g id="node2" class="node">
<title>c_0_59</title>
<g id="a_node2"><a xlink:href="c_0_59.html" xlink:title="{\|(\{f:(X₁ × \{X₂\}) → X₃\} × X₄)\| = \|(X₄ × \{f:X₁ → X₃\})\|}" target="_parent">
<polygon fill="#f8edd1" stroke="#7f7542" points="660.5,-165.5 660.5,-180.5 1015.5,-180.5 1015.5,-165.5 660.5,-165.5"/>
<text text-anchor="middle" x="838" y="-169.3" font-family="Times,serif" font-size="14.00">|({f:(X₁ × {X₂}) → X₃} × X₄)| = |(X₄ × {f:X₁ → X₃})|</text>
</a>
</g>
</g>
<!-- c_0_59&#45;&gt;c_0_68 -->
<g id="edge2" class="edge">
<title>c_0_59&#45;&gt;c_0_68</title>
<path fill="none" stroke="black" d="M729.5,-165.31C729.5,-165.31 729.5,-123.75 729.5,-123.75"/>
<polygon fill="black" stroke="black" points="733,-123.75 729.5,-113.75 726,-123.75 733,-123.75"/>
</g>
<!-- c_0_65 -->
<g id="node3" class="node">
<title>c_0_65</title>
<g id="a_node3"><a xlink:href="c_0_65.html" xlink:title="{X₁ × \{X₂\} ∩ X₃ × \{X₄\} = Ø|X₂ = X₄}" target="_parent">
<polygon fill="#f8edd1" stroke="#7f7542" points="450,-158 450,-188 642,-188 642,-158 450,-158"/>
<text text-anchor="middle" x="546" y="-176.8" font-family="Times,serif" font-size="14.00">X₁ × {X₂} ∩ X₃ × {X₄} = Ø</text>
<polyline fill="none" stroke="#7f7542" points="450,-173 642,-173 "/>
<text text-anchor="middle" x="546" y="-161.8" font-family="Times,serif" font-size="14.00">X₂ = X₄</text>
</a>
</g>
</g>
<!-- c_0_65&#45;&gt;c_0_68 -->
<g id="edge3" class="edge">
<title>c_0_65&#45;&gt;c_0_68</title>
<path fill="none" stroke="black" d="M579.25,-157.92C579.25,-157.92 579.25,-123.55 579.25,-123.55"/>
<polygon fill="black" stroke="black" points="582.75,-123.55 579.25,-113.55 575.75,-123.55 582.75,-123.55"/>
</g>
<!-- c_0_63 -->
<g id="node4" class="node">
<title>c_0_63</title>
<g id="a_node4"><a xlink:href="c_0_63.html" xlink:title="{X₂ = X₄|\|\{f:((κ₁ × \{X₂\}) ∪ (κ₃ × \{X₄\})) → X₅\}\| = \|\{f:(κ₃ + κ₁) → X₅\}\|}" target="_parent">
<polygon fill="#f8edd1" stroke="#7f7542" points="16,-158 16,-188 432,-188 432,-158 16,-158"/>
<text text-anchor="middle" x="224" y="-176.8" font-family="Times,serif" font-size="14.00">X₂ = X₄</text>
<polyline fill="none" stroke="#7f7542" points="16,-173 432,-173 "/>
<text text-anchor="middle" x="224" y="-161.8" font-family="Times,serif" font-size="14.00">|{f:((κ₁ × {X₂}) ∪ (κ₃ × {X₄})) → X₅}| = |{f:(κ₃ + κ₁) → X₅}|</text>
</a>
</g>
</g>
<!-- c_0_63&#45;&gt;c_0_68 -->
<g id="edge4" class="edge">
<title>c_0_63&#45;&gt;c_0_68</title>
<path fill="none" stroke="black" d="M224,-157.82C224,-135.91 224,-98 224,-98 224,-98 506.4,-98 506.4,-98"/>
<polygon fill="black" stroke="black" points="506.4,-101.5 516.4,-98 506.4,-94.5 506.4,-101.5"/>
</g>
<!-- c_0_71 -->
<g id="node6" class="node">
<title>c_0_71</title>
<g id="a_node6"><a xlink:href="c_0_71.html" xlink:title="{X₃ = X₄|\|(\{f:sk₂ → X₁\} × \{f:κ₂ → X₁\})\| = \|\{f:(sk₂ + κ₂) → X₁\}\|}" target="_parent">
<polygon fill="#fa6900" stroke="#7f7542" points="510,-16.5 510,-46.5 874,-46.5 874,-16.5 510,-16.5"/>
<text text-anchor="middle" x="692" y="-35.3" font-family="Times,serif" font-size="14.00">X₃ = X₄</text>
<polyline fill="none" stroke="#7f7542" points="510,-31.5 874,-31.5 "/>
<text text-anchor="middle" x="692" y="-20.3" font-family="Times,serif" font-size="14.00">|({f:sk₂ → X₁} × {f:κ₂ → X₁})| = |{f:(sk₂ + κ₂) → X₁}|</text>
</a>
</g>
</g>
<!-- c_0_68&#45;&gt;c_0_71 -->
<g id="edge5" class="edge">
<title>c_0_68&#45;&gt;c_0_71</title>
<path fill="none" stroke="black" stroke-dasharray="5,2" d="M692,-83.3C692,-83.3 692,-56.64 692,-56.64"/>
<polygon fill="black" stroke="black" points="695.5,-56.64 692,-46.64 688.5,-56.64 695.5,-56.64"/>
</g>
</g>
</svg>
