<?xml version="1.0" encoding="UTF-8" standalone="no"?>
<!DOCTYPE svg PUBLIC "-//W3C//DTD SVG 1.1//EN"
 "http://www.w3.org/Graphics/SVG/1.1/DTD/svg11.dtd">
<!-- Generated by graphviz version 5.0.0 (0)
 -->
<!-- Title: proof Pages: 1 -->
<svg width="200pt" height="175pt"
 viewBox="0.00 0.00 200.00 175.00" xmlns="http://www.w3.org/2000/svg" xmlns:xlink="http://www.w3.org/1999/xlink">
<g id="graph0" class="graph" transform="scale(1 1) rotate(0) translate(4 171)">
<title>proof</title>
<g id="clust1" class="cluster">
<title>cluster_0</title>
<polygon fill="transparent" stroke="black" stroke-dasharray="1,5" points="8,-127 8,-159 184,-159 184,-127 8,-127"/>
</g>
<g id="clust2" class="cluster">
<title>cluster_1</title>
<polygon fill="transparent" stroke="black" stroke-width="2" points="48,-75 48,-107 144,-107 144,-75 48,-75"/>
</g>
<g id="clust3" class="cluster">
<title>cluster_2</title>
<polygon fill="transparent" stroke="black" stroke-dasharray="1,5" points="18,-8 18,-55 174,-55 174,-8 18,-8"/>
</g>
<!-- projectivity_k1_card_1 -->
<g id="node1" class="node">
<title>projectivity_k1_card_1</title>
<g id="a_node1"><a xlink:href="projectivity_k1_card_1.html" xlink:title="projectivity_k1_card_1" target="_parent">
<polygon fill="#69d2e7" stroke="#7f7542" points="16,-135.5 16,-150.5 176,-150.5 176,-135.5 16,-135.5"/>
<text text-anchor="middle" x="96" y="-139.3" font-family="Times,serif" font-size="14.00">projectivity_k1_card_1</text>
</a>
</g>
</g>
<!-- c_0_29 -->
<g id="node2" class="node">
<title>c_0_29</title>
<g id="a_node2"><a xlink:href="c_0_29.html" xlink:title="{\|\|X₁\|\| = \|X₁\|}" target="_parent">
<polygon fill="#f8edd1" stroke="#7f7542" points="56.5,-83.5 56.5,-98.5 135.5,-98.5 135.5,-83.5 56.5,-83.5"/>
<text text-anchor="middle" x="96" y="-87.3" font-family="Times,serif" font-size="14.00">||X₁|| = |X₁|</text>
</a>
</g>
</g>
<!-- projectivity_k1_card_1&#45;&gt;c_0_29 -->
<g id="edge1" class="edge">
<title>projectivity_k1_card_1&#45;&gt;c_0_29</title>
<path fill="none" stroke="black" d="M96,-135.33C96,-135.33 96,-108.7 96,-108.7"/>
<polygon fill="black" stroke="black" points="99.5,-108.7 96,-98.7 92.5,-108.7 99.5,-108.7"/>
</g>
<!-- c_0_39 -->
<g id="node3" class="node">
<title>c_0_39</title>
<g id="a_node3"><a xlink:href="c_0_39.html" xlink:title="{X₃ = X₄|\|(κ₁ + κ₂)\| = κ₁ + κ₂}" target="_parent">
<polygon fill="#f8edd1" stroke="#7f7542" points="26,-16.5 26,-46.5 166,-46.5 166,-16.5 26,-16.5"/>
<text text-anchor="middle" x="96" y="-35.3" font-family="Times,serif" font-size="14.00">X₃ = X₄</text>
<polyline fill="none" stroke="#7f7542" points="26,-31.5 166,-31.5 "/>
<text text-anchor="middle" x="96" y="-20.3" font-family="Times,serif" font-size="14.00">|(κ₁ + κ₂)| = κ₁ + κ₂</text>
</a>
</g>
</g>
<!-- c_0_29&#45;&gt;c_0_39 -->
<g id="edge2" class="edge">
<title>c_0_29&#45;&gt;c_0_39</title>
<path fill="none" stroke="black" stroke-dasharray="5,2" d="M96,-83.22C96,-83.22 96,-56.85 96,-56.85"/>
<polygon fill="black" stroke="black" points="99.5,-56.85 96,-46.85 92.5,-56.85 99.5,-56.85"/>
</g>
</g>
</svg>
