<?xml version="1.0" encoding="UTF-8" standalone="no"?>
<!DOCTYPE svg PUBLIC "-//W3C//DTD SVG 1.1//EN"
 "http://www.w3.org/Graphics/SVG/1.1/DTD/svg11.dtd">
<!-- Generated by graphviz version 5.0.0 (0)
 -->
<!-- Title: proof Pages: 1 -->
<svg width="486pt" height="205pt"
 viewBox="0.00 0.00 486.00 205.00" xmlns="http://www.w3.org/2000/svg" xmlns:xlink="http://www.w3.org/1999/xlink">
<g id="graph0" class="graph" transform="scale(1 1) rotate(0) translate(4 201)">
<title>proof</title>
<g id="clust1" class="cluster">
<title>cluster_0</title>
<polygon fill="transparent" stroke="black" stroke-dasharray="1,5" points="8,-142 8,-189 470,-189 470,-142 8,-142"/>
</g>
<g id="clust2" class="cluster">
<title>cluster_1</title>
<polygon fill="transparent" stroke="black" stroke-width="2" points="46,-75 46,-122 426,-122 426,-75 46,-75"/>
</g>
<g id="clust3" class="cluster">
<title>cluster_2</title>
<polygon fill="transparent" stroke="black" stroke-dasharray="1,5" points="39,-8 39,-55 433,-55 433,-8 39,-8"/>
</g>
<!-- c_0_47 -->
<g id="node1" class="node">
<title>c_0_47</title>
<g id="a_node1"><a xlink:href="c_0_47.html" xlink:title="{sk₂ ∈ Card}" target="_vizar">
<polygon fill="#fa6900" stroke="#7f7542" points="386,-158 386,-173 462,-173 462,-158 386,-158"/>
<text text-anchor="middle" x="424" y="-161.8" font-family="Times,serif" font-size="14.00">sk₂ ∈ Card</text>
</a>
</g>
</g>
<!-- c_0_71 -->
<g id="node3" class="node">
<title>c_0_71</title>
<g id="a_node3"><a xlink:href="c_0_71.html" xlink:title="{X₃ = X₄|\|(\{f:sk₂ → X₁\} × \{f:κ₂ → X₁\})\| = \|\{f:(sk₂ + κ₂) → X₁\}\|}" target="_vizar">
<polygon fill="#fa6900" stroke="#7f7542" points="54,-83.5 54,-113.5 418,-113.5 418,-83.5 54,-83.5"/>
<text text-anchor="middle" x="236" y="-102.3" font-family="Times,serif" font-size="14.00">X₃ = X₄</text>
<polyline fill="none" stroke="#7f7542" points="54,-98.5 418,-98.5 "/>
<text text-anchor="middle" x="236" y="-87.3" font-family="Times,serif" font-size="14.00">|({f:sk₂ → X₁} × {f:κ₂ → X₁})| = |{f:(sk₂ + κ₂) → X₁}|</text>
</a>
</g>
</g>
<!-- c_0_47&#45;&gt;c_0_71 -->
<g id="edge1" class="edge">
<title>c_0_47&#45;&gt;c_0_71</title>
<path fill="none" stroke="black" d="M402,-157.81C402,-157.81 402,-123.67 402,-123.67"/>
<polygon fill="black" stroke="black" points="405.5,-123.67 402,-113.67 398.5,-123.67 405.5,-123.67"/>
</g>
<!-- c_0_68 -->
<g id="node2" class="node">
<title>c_0_68</title>
<g id="a_node2"><a xlink:href="c_0_68.html" xlink:title="{X₄ = X₅|\|(\{f:κ₁ → X₂\} × \{f:κ₃ → X₂\})\| = \|\{f:(κ₁ + κ₃) → X₂\}\|}" target="_vizar">
<polygon fill="#f8edd1" stroke="#7f7542" points="16.5,-150.5 16.5,-180.5 367.5,-180.5 367.5,-150.5 16.5,-150.5"/>
<text text-anchor="middle" x="192" y="-169.3" font-family="Times,serif" font-size="14.00">X₄ = X₅</text>
<polyline fill="none" stroke="#7f7542" points="16.5,-165.5 367.5,-165.5 "/>
<text text-anchor="middle" x="192" y="-154.3" font-family="Times,serif" font-size="14.00">|({f:κ₁ → X₂} × {f:κ₃ → X₂})| = |{f:(κ₁ + κ₃) → X₂}|</text>
</a>
</g>
</g>
<!-- c_0_68&#45;&gt;c_0_71 -->
<g id="edge2" class="edge">
<title>c_0_68&#45;&gt;c_0_71</title>
<path fill="none" stroke="black" d="M210.75,-150.3C210.75,-150.3 210.75,-123.64 210.75,-123.64"/>
<polygon fill="black" stroke="black" points="214.25,-123.64 210.75,-113.64 207.25,-123.64 214.25,-123.64"/>
</g>
<!-- c_0_73 -->
<g id="node4" class="node">
<title>c_0_73</title>
<g id="a_node4"><a xlink:href="c_0_73.html" xlink:title="{X₂ = X₃|\|(\{f:sk₂ → X₁\} × \{f:sk₃ → X₁\})\| = \|\{f:(sk₂ + sk₃) → X₁\}\|}" target="_vizar">
<polygon fill="#fa6900" stroke="#7f7542" points="47,-16.5 47,-46.5 425,-46.5 425,-16.5 47,-16.5"/>
<text text-anchor="middle" x="236" y="-35.3" font-family="Times,serif" font-size="14.00">X₂ = X₃</text>
<polyline fill="none" stroke="#7f7542" points="47,-31.5 425,-31.5 "/>
<text text-anchor="middle" x="236" y="-20.3" font-family="Times,serif" font-size="14.00">|({f:sk₂ → X₁} × {f:sk₃ → X₁})| = |{f:(sk₂ + sk₃) → X₁}|</text>
</a>
</g>
</g>
<!-- c_0_71&#45;&gt;c_0_73 -->
<g id="edge3" class="edge">
<title>c_0_71&#45;&gt;c_0_73</title>
<path fill="none" stroke="black" stroke-dasharray="5,2" d="M236,-83.3C236,-83.3 236,-56.64 236,-56.64"/>
<polygon fill="black" stroke="black" points="239.5,-56.64 236,-46.64 232.5,-56.64 239.5,-56.64"/>
</g>
</g>
</svg>
