<?xml version="1.0" encoding="UTF-8" standalone="no"?>
<!DOCTYPE svg PUBLIC "-//W3C//DTD SVG 1.1//EN"
 "http://www.w3.org/Graphics/SVG/1.1/DTD/svg11.dtd">
<!-- Generated by graphviz version 5.0.0 (0)
 -->
<!-- Title: proof Pages: 1 -->
<svg width="743pt" height="160pt"
 viewBox="0.00 0.00 743.00 160.00" xmlns="http://www.w3.org/2000/svg" xmlns:xlink="http://www.w3.org/1999/xlink">
<g id="graph0" class="graph" transform="scale(1 1) rotate(0) translate(4 156)">
<title>proof</title>
<g id="clust1" class="cluster">
<title>cluster_0</title>
<polygon fill="transparent" stroke="black" stroke-dasharray="1,5" points="235,-112 235,-144 321,-144 321,-112 235,-112"/>
</g>
<g id="clust2" class="cluster">
<title>cluster_1</title>
<polygon fill="transparent" stroke="black" stroke-width="2" points="184,-60 184,-92 372,-92 372,-60 184,-60"/>
</g>
<g id="clust3" class="cluster">
<title>cluster_2</title>
<polygon fill="transparent" stroke="black" stroke-dasharray="1,5" points="8,-8 8,-40 727,-40 727,-8 8,-8"/>
</g>
<!-- t7_card_2 -->
<g id="node1" class="node">
<title>t7_card_2</title>
<g id="a_node1"><a xlink:href="t7_card_2.html" xlink:title="t7_card_2" target="_vizar">
<polygon fill="#69d2e7" stroke="#7f7542" points="243,-120.5 243,-135.5 313,-135.5 313,-120.5 243,-120.5"/>
<text text-anchor="middle" x="278" y="-124.3" font-family="Times,serif" font-size="14.00">t7_card_2</text>
</a>
</g>
</g>
<!-- c_0_32 -->
<g id="node2" class="node">
<title>c_0_32</title>
<g id="a_node2"><a xlink:href="c_0_32.html" xlink:title="{\|(X₁ × X₂)\| = \|(\|X₁\| × X₂)\|}" target="_vizar">
<polygon fill="#f8edd1" stroke="#7f7542" points="192,-68.5 192,-83.5 364,-83.5 364,-68.5 192,-68.5"/>
<text text-anchor="middle" x="278" y="-72.3" font-family="Times,serif" font-size="14.00">|(X₁ × X₂)| = |(|X₁| × X₂)|</text>
</a>
</g>
</g>
<!-- t7_card_2&#45;&gt;c_0_32 -->
<g id="edge1" class="edge">
<title>t7_card_2&#45;&gt;c_0_32</title>
<path fill="none" stroke="black" d="M278,-120.33C278,-120.33 278,-93.7 278,-93.7"/>
<polygon fill="black" stroke="black" points="281.5,-93.7 278,-83.7 274.5,-93.7 281.5,-93.7"/>
</g>
<!-- c_0_61 -->
<g id="node3" class="node">
<title>c_0_61</title>
<g id="a_node3"><a xlink:href="c_0_61.html" xlink:title="{\|(\{f:sk₂ → sk₁\} × (sk₁ ^ sk₃))\| ≠ sk₁ ^ (sk₂ + sk₃)}" target="_vizar">
<polygon fill="#fa6900" stroke="#7f7542" points="377,-16.5 377,-31.5 719,-31.5 719,-16.5 377,-16.5"/>
<text text-anchor="middle" x="548" y="-20.3" font-family="Times,serif" font-size="14.00">|({f:sk₂ → sk₁} × (sk₁ ^ sk₃))| ≠ sk₁ ^ (sk₂ + sk₃)</text>
</a>
</g>
</g>
<!-- c_0_32&#45;&gt;c_0_61 -->
<g id="edge2" class="edge">
<title>c_0_32&#45;&gt;c_0_61</title>
<path fill="none" stroke="black" stroke-dasharray="5,2" d="M364.17,-76C443.19,-76 548,-76 548,-76 548,-76 548,-41.67 548,-41.67"/>
<polygon fill="black" stroke="black" points="551.5,-41.67 548,-31.67 544.5,-41.67 551.5,-41.67"/>
</g>
<!-- c_0_43 -->
<g id="node4" class="node">
<title>c_0_43</title>
<g id="a_node4"><a xlink:href="c_0_43.html" xlink:title="{\|(κ₁ × X₂)\| = \|(X₂ × κ₁)\|}" target="_vizar">
<polygon fill="#f8edd1" stroke="#7f7542" points="197.5,-16.5 197.5,-31.5 358.5,-31.5 358.5,-16.5 197.5,-16.5"/>
<text text-anchor="middle" x="278" y="-20.3" font-family="Times,serif" font-size="14.00">|(κ₁ × X₂)| = |(X₂ × κ₁)|</text>
</a>
</g>
</g>
<!-- c_0_32&#45;&gt;c_0_43 -->
<g id="edge3" class="edge">
<title>c_0_32&#45;&gt;c_0_43</title>
<path fill="none" stroke="black" stroke-dasharray="5,2" d="M278,-68.33C278,-68.33 278,-41.7 278,-41.7"/>
<polygon fill="black" stroke="black" points="281.5,-41.7 278,-31.7 274.5,-41.7 281.5,-41.7"/>
</g>
<!-- c_0_53 -->
<g id="node5" class="node">
<title>c_0_53</title>
<g id="a_node5"><a xlink:href="c_0_53.html" xlink:title="{\|(X₁ × X₂)\| = \|(X₂ × X₁)\|}" target="_vizar">
<polygon fill="#f8edd1" stroke="#7f7542" points="16.5,-16.5 16.5,-31.5 179.5,-31.5 179.5,-16.5 16.5,-16.5"/>
<text text-anchor="middle" x="98" y="-20.3" font-family="Times,serif" font-size="14.00">|(X₁ × X₂)| = |(X₂ × X₁)|</text>
</a>
</g>
</g>
<!-- c_0_32&#45;&gt;c_0_53 -->
<g id="edge4" class="edge">
<title>c_0_32&#45;&gt;c_0_53</title>
<path fill="none" stroke="black" stroke-dasharray="5,2" d="M191.95,-76C145.68,-76 98,-76 98,-76 98,-76 98,-41.67 98,-41.67"/>
<polygon fill="black" stroke="black" points="101.5,-41.67 98,-31.67 94.5,-41.67 101.5,-41.67"/>
</g>
</g>
</svg>
