<?xml version="1.0" encoding="UTF-8" standalone="no"?>
<!DOCTYPE svg PUBLIC "-//W3C//DTD SVG 1.1//EN"
 "http://www.w3.org/Graphics/SVG/1.1/DTD/svg11.dtd">
<!-- Generated by graphviz version 5.0.0 (0)
 -->
<!-- Title: proof Pages: 1 -->
<svg width="808pt" height="160pt"
 viewBox="0.00 0.00 808.00 160.00" xmlns="http://www.w3.org/2000/svg" xmlns:xlink="http://www.w3.org/1999/xlink">
<g id="graph0" class="graph" transform="scale(1 1) rotate(0) translate(4 156)">
<title>proof</title>
<g id="clust1" class="cluster">
<title>cluster_0</title>
<polygon fill="transparent" stroke="black" stroke-dasharray="1,5" points="8,-112 8,-144 792,-144 792,-112 8,-112"/>
</g>
<g id="clust2" class="cluster">
<title>cluster_1</title>
<polygon fill="transparent" stroke="black" stroke-width="2" points="231,-60 231,-92 589,-92 589,-60 231,-60"/>
</g>
<g id="clust3" class="cluster">
<title>cluster_2</title>
<polygon fill="transparent" stroke="black" stroke-dasharray="1,5" points="222,-8 222,-40 598,-40 598,-8 222,-8"/>
</g>
<!-- c_0_17 -->
<g id="node1" class="node">
<title>c_0_17</title>
<g id="a_node1"><a xlink:href="c_0_17.html" xlink:title="{κ₁ * κ₂ = \|(κ₁ × κ₂)\|}" target="_vizar">
<polygon fill="#f8edd1" stroke="#7f7542" points="648.5,-120.5 648.5,-135.5 783.5,-135.5 783.5,-120.5 648.5,-120.5"/>
<text text-anchor="middle" x="716" y="-124.3" font-family="Times,serif" font-size="14.00">κ₁ * κ₂ = |(κ₁ × κ₂)|</text>
</a>
</g>
</g>
<!-- c_0_61 -->
<g id="node5" class="node">
<title>c_0_61</title>
<g id="a_node5"><a xlink:href="c_0_61.html" xlink:title="{\|(\{f:sk₂ → sk₁\} × (sk₁ ^ sk₃))\| ≠ sk₁ ^ (sk₂ + sk₃)}" target="_vizar">
<polygon fill="#fa6900" stroke="#7f7542" points="239,-68.5 239,-83.5 581,-83.5 581,-68.5 239,-68.5"/>
<text text-anchor="middle" x="410" y="-72.3" font-family="Times,serif" font-size="14.00">|({f:sk₂ → sk₁} × (sk₁ ^ sk₃))| ≠ sk₁ ^ (sk₂ + sk₃)</text>
</a>
</g>
</g>
<!-- c_0_17&#45;&gt;c_0_61 -->
<g id="edge1" class="edge">
<title>c_0_17&#45;&gt;c_0_61</title>
<path fill="none" stroke="black" d="M716,-120.33C716,-105.86 716,-76 716,-76 716,-76 591.34,-76 591.34,-76"/>
<polygon fill="black" stroke="black" points="591.34,-72.5 581.34,-76 591.34,-79.5 591.34,-72.5"/>
</g>
<!-- c_0_32 -->
<g id="node2" class="node">
<title>c_0_32</title>
<g id="a_node2"><a xlink:href="c_0_32.html" xlink:title="{\|(X₁ × X₂)\| = \|(\|X₁\| × X₂)\|}" target="_vizar">
<polygon fill="#f8edd1" stroke="#7f7542" points="458,-120.5 458,-135.5 630,-135.5 630,-120.5 458,-120.5"/>
<text text-anchor="middle" x="544" y="-124.3" font-family="Times,serif" font-size="14.00">|(X₁ × X₂)| = |(|X₁| × X₂)|</text>
</a>
</g>
</g>
<!-- c_0_32&#45;&gt;c_0_61 -->
<g id="edge2" class="edge">
<title>c_0_32&#45;&gt;c_0_61</title>
<path fill="none" stroke="black" d="M519.5,-120.33C519.5,-120.33 519.5,-93.7 519.5,-93.7"/>
<polygon fill="black" stroke="black" points="523,-93.7 519.5,-83.7 516,-93.7 523,-93.7"/>
</g>
<!-- c_0_55 -->
<g id="node3" class="node">
<title>c_0_55</title>
<g id="a_node3"><a xlink:href="c_0_55.html" xlink:title="{\|\{f:sk₂ → sk₁\}\| * (sk₁ ^ sk₃) ≠ sk₁ ^ (sk₂ + sk₃)}" target="_vizar">
<polygon fill="#fa6900" stroke="#7f7542" points="114,-120.5 114,-135.5 440,-135.5 440,-120.5 114,-120.5"/>
<text text-anchor="middle" x="277" y="-124.3" font-family="Times,serif" font-size="14.00">|{f:sk₂ → sk₁}| * (sk₁ ^ sk₃) ≠ sk₁ ^ (sk₂ + sk₃)</text>
</a>
</g>
</g>
<!-- c_0_55&#45;&gt;c_0_61 -->
<g id="edge3" class="edge">
<title>c_0_55&#45;&gt;c_0_61</title>
<path fill="none" stroke="black" d="M339.5,-120.33C339.5,-120.33 339.5,-93.7 339.5,-93.7"/>
<polygon fill="black" stroke="black" points="343,-93.7 339.5,-83.7 336,-93.7 343,-93.7"/>
</g>
<!-- c_0_35 -->
<g id="node4" class="node">
<title>c_0_35</title>
<g id="a_node4"><a xlink:href="c_0_35.html" xlink:title="{\|X₁\| ∈ Card}" target="_vizar">
<polygon fill="#f8edd1" stroke="#7f7542" points="16.5,-120.5 16.5,-135.5 95.5,-135.5 95.5,-120.5 16.5,-120.5"/>
<text text-anchor="middle" x="56" y="-124.3" font-family="Times,serif" font-size="14.00">|X₁| ∈ Card</text>
</a>
</g>
</g>
<!-- c_0_35&#45;&gt;c_0_61 -->
<g id="edge4" class="edge">
<title>c_0_35&#45;&gt;c_0_61</title>
<path fill="none" stroke="black" d="M56,-120.33C56,-105.86 56,-76 56,-76 56,-76 228.96,-76 228.96,-76"/>
<polygon fill="black" stroke="black" points="228.96,-79.5 238.96,-76 228.96,-72.5 228.96,-79.5"/>
</g>
<!-- c_0_66 -->
<g id="node6" class="node">
<title>c_0_66</title>
<g id="a_node6"><a xlink:href="c_0_66.html" xlink:title="{sk₁ ^ (sk₂ + sk₃) ≠ \|(\{f:sk₂ → sk₁\} × \{f:sk₃ → sk₁\})\|}" target="_vizar">
<polygon fill="#fa6900" stroke="#7f7542" points="230.5,-16.5 230.5,-31.5 589.5,-31.5 589.5,-16.5 230.5,-16.5"/>
<text text-anchor="middle" x="410" y="-20.3" font-family="Times,serif" font-size="14.00">sk₁ ^ (sk₂ + sk₃) ≠ |({f:sk₂ → sk₁} × {f:sk₃ → sk₁})|</text>
</a>
</g>
</g>
<!-- c_0_61&#45;&gt;c_0_66 -->
<g id="edge5" class="edge">
<title>c_0_61&#45;&gt;c_0_66</title>
<path fill="none" stroke="black" stroke-dasharray="5,2" d="M410,-68.33C410,-68.33 410,-41.7 410,-41.7"/>
<polygon fill="black" stroke="black" points="413.5,-41.7 410,-31.7 406.5,-41.7 413.5,-41.7"/>
</g>
</g>
</svg>
