<?xml version="1.0" encoding="UTF-8" standalone="no"?>
<!DOCTYPE svg PUBLIC "-//W3C//DTD SVG 1.1//EN"
 "http://www.w3.org/Graphics/SVG/1.1/DTD/svg11.dtd">
<!-- Generated by graphviz version 5.0.0 (0)
 -->
<!-- Title: proof Pages: 1 -->
<svg width="469pt" height="205pt"
 viewBox="0.00 0.00 469.00 205.00" xmlns="http://www.w3.org/2000/svg" xmlns:xlink="http://www.w3.org/1999/xlink">
<g id="graph0" class="graph" transform="scale(1 1) rotate(0) translate(4 201)">
<title>proof</title>
<g id="clust1" class="cluster">
<title>cluster_0</title>
<polygon fill="transparent" stroke="black" stroke-dasharray="1,5" points="8,-142 8,-189 432,-189 432,-142 8,-142"/>
</g>
<g id="clust2" class="cluster">
<title>cluster_1</title>
<polygon fill="transparent" stroke="black" stroke-width="2" points="95,-75 95,-122 379,-122 379,-75 95,-75"/>
</g>
<g id="clust3" class="cluster">
<title>cluster_2</title>
<polygon fill="transparent" stroke="black" stroke-dasharray="1,5" points="21,-8 21,-55 453,-55 453,-8 21,-8"/>
</g>
<!-- c_0_50 -->
<g id="node1" class="node">
<title>c_0_50</title>
<g id="a_node1"><a xlink:href="c_0_50.html" xlink:title="{X₃ = X₄|\|κ₁ + κ₂\| = \|(κ₁ × \{X₃\}) ∪ (κ₂ × \{X₄\})\|}" target="_parent">
<polygon fill="#f8edd1" stroke="#7f7542" points="156,-150.5 156,-180.5 424,-180.5 424,-150.5 156,-150.5"/>
<text text-anchor="middle" x="290" y="-169.3" font-family="Times,serif" font-size="14.00">X₃ = X₄</text>
<polyline fill="none" stroke="#7f7542" points="156,-165.5 424,-165.5 "/>
<text text-anchor="middle" x="290" y="-154.3" font-family="Times,serif" font-size="14.00">|κ₁ + κ₂| = |(κ₁ × {X₃}) ∪ (κ₂ × {X₄})|</text>
</a>
</g>
</g>
<!-- c_0_57 -->
<g id="node3" class="node">
<title>c_0_57</title>
<g id="a_node3"><a xlink:href="c_0_57.html" xlink:title="{X₁ = X₂|\|κ₃ + κ₄\| = \|(κ₄ × \{X₁\}) ∪ (κ₃ × \{X₂\})\|}" target="_parent">
<polygon fill="#f8edd1" stroke="#7f7542" points="103,-83.5 103,-113.5 371,-113.5 371,-83.5 103,-83.5"/>
<text text-anchor="middle" x="237" y="-102.3" font-family="Times,serif" font-size="14.00">X₁ = X₂</text>
<polyline fill="none" stroke="#7f7542" points="103,-98.5 371,-98.5 "/>
<text text-anchor="middle" x="237" y="-87.3" font-family="Times,serif" font-size="14.00">|κ₃ + κ₄| = |(κ₄ × {X₁}) ∪ (κ₃ × {X₂})|</text>
</a>
</g>
</g>
<!-- c_0_50&#45;&gt;c_0_57 -->
<g id="edge1" class="edge">
<title>c_0_50&#45;&gt;c_0_57</title>
<path fill="none" stroke="black" d="M263.5,-150.3C263.5,-150.3 263.5,-123.64 263.5,-123.64"/>
<polygon fill="black" stroke="black" points="267,-123.64 263.5,-113.64 260,-123.64 267,-123.64"/>
</g>
<!-- c_0_51 -->
<g id="node2" class="node">
<title>c_0_51</title>
<g id="a_node2"><a xlink:href="c_0_51.html" xlink:title="{κ₁ + κ₂ = κ₂ + κ₁}" target="_parent">
<polygon fill="#f8edd1" stroke="#7f7542" points="16.5,-158 16.5,-173 137.5,-173 137.5,-158 16.5,-158"/>
<text text-anchor="middle" x="77" y="-161.8" font-family="Times,serif" font-size="14.00">κ₁ + κ₂ = κ₂ + κ₁</text>
</a>
</g>
</g>
<!-- c_0_51&#45;&gt;c_0_57 -->
<g id="edge2" class="edge">
<title>c_0_51&#45;&gt;c_0_57</title>
<path fill="none" stroke="black" d="M120.25,-157.81C120.25,-157.81 120.25,-123.67 120.25,-123.67"/>
<polygon fill="black" stroke="black" points="123.75,-123.67 120.25,-113.67 116.75,-123.67 123.75,-123.67"/>
</g>
<!-- c_0_63 -->
<g id="node4" class="node">
<title>c_0_63</title>
<g id="a_node4"><a xlink:href="c_0_63.html" xlink:title="{X₂ = X₄|\|\{f:((κ₁ × \{X₂\}) ∪ (κ₃ × \{X₄\})) → X₅\}\| = \|\{f:(κ₃ + κ₁) → X₅\}\|}" target="_parent">
<polygon fill="#f8edd1" stroke="#7f7542" points="29,-16.5 29,-46.5 445,-46.5 445,-16.5 29,-16.5"/>
<text text-anchor="middle" x="237" y="-35.3" font-family="Times,serif" font-size="14.00">X₂ = X₄</text>
<polyline fill="none" stroke="#7f7542" points="29,-31.5 445,-31.5 "/>
<text text-anchor="middle" x="237" y="-20.3" font-family="Times,serif" font-size="14.00">|{f:((κ₁ × {X₂}) ∪ (κ₃ × {X₄})) → X₅}| = |{f:(κ₃ + κ₁) → X₅}|</text>
</a>
</g>
</g>
<!-- c_0_57&#45;&gt;c_0_63 -->
<g id="edge3" class="edge">
<title>c_0_57&#45;&gt;c_0_63</title>
<path fill="none" stroke="black" stroke-dasharray="5,2" d="M237,-83.3C237,-83.3 237,-56.64 237,-56.64"/>
<polygon fill="black" stroke="black" points="240.5,-56.64 237,-46.64 233.5,-56.64 240.5,-56.64"/>
</g>
</g>
</svg>
