<?xml version="1.0" encoding="UTF-8" standalone="no"?>
<!DOCTYPE svg PUBLIC "-//W3C//DTD SVG 1.1//EN"
 "http://www.w3.org/Graphics/SVG/1.1/DTD/svg11.dtd">
<!-- Generated by graphviz version 5.0.0 (0)
 -->
<!-- Title: proof Pages: 1 -->
<svg width="1383pt" height="250pt"
 viewBox="0.00 0.00 1383.00 250.00" xmlns="http://www.w3.org/2000/svg" xmlns:xlink="http://www.w3.org/1999/xlink">
<g id="graph0" class="graph" transform="scale(1 1) rotate(0) translate(4 246)">
<title>proof</title>
<g id="clust1" class="cluster">
<title>cluster_0</title>
<polygon fill="transparent" stroke="black" stroke-dasharray="1,5" points="17,-157 17,-234 1367,-234 1367,-157 17,-157"/>
</g>
<g id="clust2" class="cluster">
<title>cluster_1</title>
<polygon fill="transparent" stroke="black" stroke-width="2" points="32,-105 32,-137 670,-137 670,-105 32,-105"/>
</g>
<g id="clust3" class="cluster">
<title>cluster_2</title>
<polygon fill="transparent" stroke="black" stroke-dasharray="1,5" points="8,-8 8,-85 694,-85 694,-8 8,-8"/>
</g>
<!-- c_0_40 -->
<g id="node1" class="node">
<title>c_0_40</title>
<g id="a_node1"><a xlink:href="c_0_40.html" xlink:title="{skolem₃ ∈ Card}" target="_parent">
<polygon fill="#fa6900" stroke="#7f7542" points="1249,-188 1249,-203 1359,-203 1359,-188 1249,-188"/>
<text text-anchor="middle" x="1304" y="-191.8" font-family="Times,serif" font-size="14.00">skolem₃ ∈ Card</text>
</a>
</g>
</g>
<!-- c_0_66 -->
<g id="node7" class="node">
<title>c_0_66</title>
<g id="a_node7"><a xlink:href="c_0_66.html" xlink:title="{skolem₁ ^ (skolem₂ + skolem₃) ≠ \|((\{f:skolem₂ → skolem₁\}) × (\{f:skolem₃ → skolem₁\}))\|}" target="_parent">
<polygon fill="#fa6900" stroke="#7f7542" points="40,-113.5 40,-128.5 662,-128.5 662,-113.5 40,-113.5"/>
<text text-anchor="middle" x="351" y="-117.3" font-family="Times,serif" font-size="14.00">skolem₁ ^ (skolem₂ + skolem₃) ≠ |(({f:skolem₂ → skolem₁}) × ({f:skolem₃ → skolem₁}))|</text>
</a>
</g>
</g>
<!-- c_0_40&#45;&gt;c_0_66 -->
<g id="edge1" class="edge">
<title>c_0_40&#45;&gt;c_0_66</title>
<path fill="none" stroke="black" d="M1304,-187.81C1304,-168.77 1304,-121 1304,-121 1304,-121 672.06,-121 672.06,-121"/>
<polygon fill="black" stroke="black" points="672.06,-117.5 662.06,-121 672.06,-124.5 672.06,-117.5"/>
</g>
<!-- c_0_61 -->
<g id="node2" class="node">
<title>c_0_61</title>
<g id="a_node2"><a xlink:href="c_0_61.html" xlink:title="{\|((\{f:skolem₂ → skolem₁\}) × (skolem₁ ^ skolem₃))\| = skolem₁ ^ (skolem₂ + skolem₃)|skolem₁ ^ skolem₃ ∈ Card|⇊|⊥}" target="_parent">
<polygon fill="#fa6900" stroke="#7f7542" points="637,-165.5 637,-225.5 1231,-225.5 1231,-165.5 637,-165.5"/>
<text text-anchor="middle" x="934" y="-214.3" font-family="Times,serif" font-size="14.00">|(({f:skolem₂ → skolem₁}) × (skolem₁ ^ skolem₃))| = skolem₁ ^ (skolem₂ + skolem₃)</text>
<polyline fill="none" stroke="#7f7542" points="637,-210.5 1231,-210.5 "/>
<text text-anchor="middle" x="934" y="-199.3" font-family="Times,serif" font-size="14.00">skolem₁ ^ skolem₃ ∈ Card</text>
<polyline fill="none" stroke="#7f7542" points="637,-195.5 1231,-195.5 "/>
<text text-anchor="middle" x="934" y="-184.3" font-family="Times,serif" font-size="14.00">⇊</text>
<polyline fill="none" stroke="#7f7542" points="637,-180.5 1231,-180.5 "/>
<text text-anchor="middle" x="934" y="-169.3" font-family="Times,serif" font-size="14.00">⊥</text>
</a>
</g>
</g>
<!-- c_0_61&#45;&gt;c_0_66 -->
<g id="edge2" class="edge">
<title>c_0_61&#45;&gt;c_0_66</title>
<path fill="none" stroke="black" d="M649.5,-165.2C649.5,-165.2 649.5,-138.59 649.5,-138.59"/>
<polygon fill="black" stroke="black" points="653,-138.59 649.5,-128.59 646,-138.59 653,-138.59"/>
</g>
<!-- c_0_46 -->
<g id="node3" class="node">
<title>c_0_46</title>
<g id="a_node3"><a xlink:href="c_0_46.html" xlink:title="{κ₁ ^ κ₂ = \|(\{f:κ₂ → κ₁\})\|}" target="_parent">
<polygon fill="#f8edd1" stroke="#7f7542" points="451,-188 451,-203 619,-203 619,-188 451,-188"/>
<text text-anchor="middle" x="535" y="-191.8" font-family="Times,serif" font-size="14.00">κ₁ ^ κ₂ = |({f:κ₂ → κ₁})|</text>
</a>
</g>
</g>
<!-- c_0_46&#45;&gt;c_0_66 -->
<g id="edge3" class="edge">
<title>c_0_46&#45;&gt;c_0_66</title>
<path fill="none" stroke="black" d="M535,-187.81C535,-187.81 535,-138.76 535,-138.76"/>
<polygon fill="black" stroke="black" points="538.5,-138.76 535,-128.76 531.5,-138.76 538.5,-138.76"/>
</g>
<!-- c_0_34 -->
<g id="node4" class="node">
<title>c_0_34</title>
<g id="a_node4"><a xlink:href="c_0_34.html" xlink:title="{\|(X₁ × X₂)\| = \|(X₁ × (\|X₂\|))\|}" target="_parent">
<polygon fill="#f8edd1" stroke="#7f7542" points="251,-188 251,-203 433,-203 433,-188 251,-188"/>
<text text-anchor="middle" x="342" y="-191.8" font-family="Times,serif" font-size="14.00">|(X₁ × X₂)| = |(X₁ × (|X₂|))|</text>
</a>
</g>
</g>
<!-- c_0_34&#45;&gt;c_0_66 -->
<g id="edge4" class="edge">
<title>c_0_34&#45;&gt;c_0_66</title>
<path fill="none" stroke="black" d="M342,-187.81C342,-187.81 342,-138.76 342,-138.76"/>
<polygon fill="black" stroke="black" points="345.5,-138.76 342,-128.76 338.5,-138.76 345.5,-138.76"/>
</g>
<!-- c_0_48 -->
<g id="node5" class="node">
<title>c_0_48</title>
<g id="a_node5"><a xlink:href="c_0_48.html" xlink:title="{skolem₁ ∈ Card}" target="_parent">
<polygon fill="#fa6900" stroke="#7f7542" points="123,-188 123,-203 233,-203 233,-188 123,-188"/>
<text text-anchor="middle" x="178" y="-191.8" font-family="Times,serif" font-size="14.00">skolem₁ ∈ Card</text>
</a>
</g>
</g>
<!-- c_0_48&#45;&gt;c_0_66 -->
<g id="edge5" class="edge">
<title>c_0_48&#45;&gt;c_0_66</title>
<path fill="none" stroke="black" d="M178,-187.81C178,-187.81 178,-138.76 178,-138.76"/>
<polygon fill="black" stroke="black" points="181.5,-138.76 178,-128.76 174.5,-138.76 181.5,-138.76"/>
</g>
<!-- c_0_35 -->
<g id="node6" class="node">
<title>c_0_35</title>
<g id="a_node6"><a xlink:href="c_0_35.html" xlink:title="{\|X₁\| ∈ Card}" target="_parent">
<polygon fill="#f8edd1" stroke="#7f7542" points="25.5,-188 25.5,-203 104.5,-203 104.5,-188 25.5,-188"/>
<text text-anchor="middle" x="65" y="-191.8" font-family="Times,serif" font-size="14.00">|X₁| ∈ Card</text>
</a>
</g>
</g>
<!-- c_0_35&#45;&gt;c_0_66 -->
<g id="edge6" class="edge">
<title>c_0_35&#45;&gt;c_0_66</title>
<path fill="none" stroke="black" d="M72.25,-187.81C72.25,-187.81 72.25,-138.76 72.25,-138.76"/>
<polygon fill="black" stroke="black" points="75.75,-138.76 72.25,-128.76 68.75,-138.76 75.75,-138.76"/>
</g>
<!-- c_0_69 -->
<g id="node8" class="node">
<title>c_0_69</title>
<g id="a_node8"><a xlink:href="c_0_69.html" xlink:title="{\|(\{f:(skolem₂ + skolem₃) → skolem₁\})\| = \|((\{f:skolem₂ → skolem₁\}) × (\{f:skolem₃ → skolem₁\}))\||skolem₂ + skolem₃ ∈ Card|⇊|⊥}" target="_parent">
<polygon fill="#fa6900" stroke="#7f7542" points="16.5,-16.5 16.5,-76.5 685.5,-76.5 685.5,-16.5 16.5,-16.5"/>
<text text-anchor="middle" x="351" y="-65.3" font-family="Times,serif" font-size="14.00">|({f:(skolem₂ + skolem₃) → skolem₁})| = |(({f:skolem₂ → skolem₁}) × ({f:skolem₃ → skolem₁}))|</text>
<polyline fill="none" stroke="#7f7542" points="16.5,-61.5 685.5,-61.5 "/>
<text text-anchor="middle" x="351" y="-50.3" font-family="Times,serif" font-size="14.00">skolem₂ + skolem₃ ∈ Card</text>
<polyline fill="none" stroke="#7f7542" points="16.5,-46.5 685.5,-46.5 "/>
<text text-anchor="middle" x="351" y="-35.3" font-family="Times,serif" font-size="14.00">⇊</text>
<polyline fill="none" stroke="#7f7542" points="16.5,-31.5 685.5,-31.5 "/>
<text text-anchor="middle" x="351" y="-20.3" font-family="Times,serif" font-size="14.00">⊥</text>
</a>
</g>
</g>
<!-- c_0_66&#45;&gt;c_0_69 -->
<g id="edge7" class="edge">
<title>c_0_66&#45;&gt;c_0_69</title>
<path fill="none" stroke="black" stroke-dasharray="5,2" d="M351,-113.31C351,-113.31 351,-86.51 351,-86.51"/>
<polygon fill="black" stroke="black" points="354.5,-86.51 351,-76.51 347.5,-86.51 354.5,-86.51"/>
</g>
</g>
</svg>
