<?xml version="1.0" encoding="UTF-8" standalone="no"?>
<!DOCTYPE svg PUBLIC "-//W3C//DTD SVG 1.1//EN"
 "http://www.w3.org/Graphics/SVG/1.1/DTD/svg11.dtd">
<!-- Generated by graphviz version 5.0.0 (0)
 -->
<!-- Title: proof Pages: 1 -->
<svg width="874pt" height="190pt"
 viewBox="0.00 0.00 874.00 190.00" xmlns="http://www.w3.org/2000/svg" xmlns:xlink="http://www.w3.org/1999/xlink">
<g id="graph0" class="graph" transform="scale(1 1) rotate(0) translate(4 186)">
<title>proof</title>
<g id="clust1" class="cluster">
<title>cluster_0</title>
<polygon fill="transparent" stroke="black" stroke-dasharray="1,5" points="8,-142 8,-174 561,-174 561,-142 8,-142"/>
</g>
<g id="clust2" class="cluster">
<title>cluster_1</title>
<polygon fill="transparent" stroke="black" stroke-width="2" points="185,-90 185,-122 557,-122 557,-90 185,-90"/>
</g>
<g id="clust3" class="cluster">
<title>cluster_2</title>
<polygon fill="transparent" stroke="black" stroke-dasharray="1,5" points="54,-8 54,-70 858,-70 858,-8 54,-8"/>
</g>
<!-- c_0_53 -->
<g id="node1" class="node">
<title>c_0_53</title>
<g id="a_node1"><a xlink:href="c_0_53.html" xlink:title="{\|(X₁ × X₂)\| = \|(X₂ × X₁)\|}" target="_parent">
<polygon fill="#f8edd1" stroke="#7f7542" points="389.5,-150.5 389.5,-165.5 552.5,-165.5 552.5,-150.5 389.5,-150.5"/>
<text text-anchor="middle" x="471" y="-154.3" font-family="Times,serif" font-size="14.00">|(X₁ × X₂)| = |(X₂ × X₁)|</text>
</a>
</g>
</g>
<!-- c_0_59 -->
<g id="node3" class="node">
<title>c_0_59</title>
<g id="a_node3"><a xlink:href="c_0_59.html" xlink:title="{\|(\{f:(X₁ × \{X₂\}) → X₃\} × X₄)\| = \|(X₄ × \{f:X₁ → X₃\})\|}" target="_parent">
<polygon fill="#f8edd1" stroke="#7f7542" points="193.5,-98.5 193.5,-113.5 548.5,-113.5 548.5,-98.5 193.5,-98.5"/>
<text text-anchor="middle" x="371" y="-102.3" font-family="Times,serif" font-size="14.00">|({f:(X₁ × {X₂}) → X₃} × X₄)| = |(X₄ × {f:X₁ → X₃})|</text>
</a>
</g>
</g>
<!-- c_0_53&#45;&gt;c_0_59 -->
<g id="edge1" class="edge">
<title>c_0_53&#45;&gt;c_0_59</title>
<path fill="none" stroke="black" d="M469,-150.33C469,-150.33 469,-123.7 469,-123.7"/>
<polygon fill="black" stroke="black" points="472.5,-123.7 469,-113.7 465.5,-123.7 472.5,-123.7"/>
</g>
<!-- c_0_54 -->
<g id="node2" class="node">
<title>c_0_54</title>
<g id="a_node2"><a xlink:href="c_0_54.html" xlink:title="{\|(X₁ × \{f:(X₂ × \{X₃\}) → X₄\})\| = \|(X₁ × \{f:X₂ → X₄\})\|}" target="_parent">
<polygon fill="#f8edd1" stroke="#7f7542" points="16.5,-150.5 16.5,-165.5 371.5,-165.5 371.5,-150.5 16.5,-150.5"/>
<text text-anchor="middle" x="194" y="-154.3" font-family="Times,serif" font-size="14.00">|(X₁ × {f:(X₂ × {X₃}) → X₄})| = |(X₁ × {f:X₂ → X₄})|</text>
</a>
</g>
</g>
<!-- c_0_54&#45;&gt;c_0_59 -->
<g id="edge2" class="edge">
<title>c_0_54&#45;&gt;c_0_59</title>
<path fill="none" stroke="black" d="M282.5,-150.33C282.5,-150.33 282.5,-123.7 282.5,-123.7"/>
<polygon fill="black" stroke="black" points="286,-123.7 282.5,-113.7 279,-123.7 286,-123.7"/>
</g>
<!-- c_0_68 -->
<g id="node4" class="node">
<title>c_0_68</title>
<g id="a_node4"><a xlink:href="c_0_68.html" xlink:title="{X₄ = X₅|\|(\{f:κ₁ → X₂\} × \{f:κ₃ → X₂\})\| = \|\{f:(κ₁ + κ₃) → X₂\}\|}" target="_parent">
<polygon fill="#f8edd1" stroke="#7f7542" points="498.5,-24 498.5,-54 849.5,-54 849.5,-24 498.5,-24"/>
<text text-anchor="middle" x="674" y="-42.8" font-family="Times,serif" font-size="14.00">X₄ = X₅</text>
<polyline fill="none" stroke="#7f7542" points="498.5,-39 849.5,-39 "/>
<text text-anchor="middle" x="674" y="-27.8" font-family="Times,serif" font-size="14.00">|({f:κ₁ → X₂} × {f:κ₃ → X₂})| = |{f:(κ₁ + κ₃) → X₂}|</text>
</a>
</g>
</g>
<!-- c_0_59&#45;&gt;c_0_68 -->
<g id="edge3" class="edge">
<title>c_0_59&#45;&gt;c_0_68</title>
<path fill="none" stroke="black" stroke-dasharray="5,2" d="M523.5,-98.31C523.5,-98.31 523.5,-64.17 523.5,-64.17"/>
<polygon fill="black" stroke="black" points="527,-64.17 523.5,-54.17 520,-64.17 527,-64.17"/>
</g>
<!-- c_0_64 -->
<g id="node5" class="node">
<title>c_0_64</title>
<g id="a_node5"><a xlink:href="c_0_64.html" xlink:title="{X₁ ∩ X₃ × \{X₄\} = Ø|⇊|\|(\{f:X₁ → X₂\} × \{f:X₃ → X₂\})\| = \|\{f:(X₁ ∪ (X₃ × \{X₄\})) → X₂\}\|}" target="_parent">
<polygon fill="#f8edd1" stroke="#7f7542" points="62,-16.5 62,-61.5 480,-61.5 480,-16.5 62,-16.5"/>
<text text-anchor="middle" x="271" y="-50.3" font-family="Times,serif" font-size="14.00">X₁ ∩ X₃ × {X₄} = Ø</text>
<polyline fill="none" stroke="#7f7542" points="62,-46.5 480,-46.5 "/>
<text text-anchor="middle" x="271" y="-35.3" font-family="Times,serif" font-size="14.00">⇊</text>
<polyline fill="none" stroke="#7f7542" points="62,-31.5 480,-31.5 "/>
<text text-anchor="middle" x="271" y="-20.3" font-family="Times,serif" font-size="14.00">|({f:X₁ → X₂} × {f:X₃ → X₂})| = |{f:(X₁ ∪ (X₃ × {X₄})) → X₂}|</text>
</a>
</g>
</g>
<!-- c_0_59&#45;&gt;c_0_64 -->
<g id="edge4" class="edge">
<title>c_0_59&#45;&gt;c_0_64</title>
<path fill="none" stroke="black" stroke-dasharray="5,2" d="M336.75,-98.31C336.75,-98.31 336.75,-71.76 336.75,-71.76"/>
<polygon fill="black" stroke="black" points="340.25,-71.76 336.75,-61.76 333.25,-71.76 340.25,-71.76"/>
</g>
</g>
</svg>
