<?xml version="1.0" encoding="UTF-8" standalone="no"?>
<!DOCTYPE svg PUBLIC "-//W3C//DTD SVG 1.1//EN"
 "http://www.w3.org/Graphics/SVG/1.1/DTD/svg11.dtd">
<!-- Generated by graphviz version 5.0.0 (0)
 -->
<!-- Title: proof Pages: 1 -->
<svg width="966pt" height="108pt"
 viewBox="0.00 0.00 966.00 108.00" xmlns="http://www.w3.org/2000/svg" xmlns:xlink="http://www.w3.org/1999/xlink">
<g id="graph0" class="graph" transform="scale(1 1) rotate(0) translate(4 104)">
<title>proof</title>
<g id="clust1" class="cluster">
<title>cluster_1</title>
<polygon fill="transparent" stroke="black" stroke-width="2" points="215,-60 215,-92 311,-92 311,-60 215,-60"/>
</g>
<g id="clust2" class="cluster">
<title>cluster_2</title>
<polygon fill="transparent" stroke="black" stroke-dasharray="1,5" points="8,-8 8,-40 950,-40 950,-8 8,-8"/>
</g>
<!-- t28_card_2 -->
<g id="node1" class="node">
<title>t28_card_2</title>
<g id="a_node1"><a xlink:href="t28_card_2.html" xlink:title="t28_card_2" target="_parent">
<polygon fill="#fa6900" stroke="#7f7542" points="223.5,-68.5 223.5,-83.5 302.5,-83.5 302.5,-68.5 223.5,-68.5"/>
<text text-anchor="middle" x="263" y="-72.3" font-family="Times,serif" font-size="14.00">t28_card_2</text>
</a>
</g>
</g>
<!-- c_0_45 -->
<g id="node2" class="node">
<title>c_0_45</title>
<g id="a_node2"><a xlink:href="c_0_45.html" xlink:title="{skolem₁ ^ (skolem₂ + skolem₃) ≠ (skolem₁ ^ skolem₂) * (skolem₁ ^ skolem₃)}" target="_parent">
<polygon fill="#fa6900" stroke="#7f7542" points="400.5,-16.5 400.5,-31.5 941.5,-31.5 941.5,-16.5 400.5,-16.5"/>
<text text-anchor="middle" x="671" y="-20.3" font-family="Times,serif" font-size="14.00">skolem₁ ^ (skolem₂ + skolem₃) ≠ (skolem₁ ^ skolem₂) * (skolem₁ ^ skolem₃)</text>
</a>
</g>
</g>
<!-- t28_card_2&#45;&gt;c_0_45 -->
<g id="edge1" class="edge">
<title>t28_card_2&#45;&gt;c_0_45</title>
<path fill="none" stroke="black" stroke-dasharray="5,2" d="M302.86,-76C405.53,-76 671,-76 671,-76 671,-76 671,-41.67 671,-41.67"/>
<polygon fill="black" stroke="black" points="674.5,-41.67 671,-31.67 667.5,-41.67 674.5,-41.67"/>
</g>
<!-- c_0_47 -->
<g id="node3" class="node">
<title>c_0_47</title>
<g id="a_node3"><a xlink:href="c_0_47.html" xlink:title="{skolem₂ ∈ Card}" target="_parent">
<polygon fill="#fa6900" stroke="#7f7542" points="272,-16.5 272,-31.5 382,-31.5 382,-16.5 272,-16.5"/>
<text text-anchor="middle" x="327" y="-20.3" font-family="Times,serif" font-size="14.00">skolem₂ ∈ Card</text>
</a>
</g>
</g>
<!-- t28_card_2&#45;&gt;c_0_47 -->
<g id="edge2" class="edge">
<title>t28_card_2&#45;&gt;c_0_47</title>
<path fill="none" stroke="black" stroke-dasharray="5,2" d="M287.25,-68.33C287.25,-68.33 287.25,-41.7 287.25,-41.7"/>
<polygon fill="black" stroke="black" points="290.75,-41.7 287.25,-31.7 283.75,-41.7 290.75,-41.7"/>
</g>
<!-- c_0_40 -->
<g id="node4" class="node">
<title>c_0_40</title>
<g id="a_node4"><a xlink:href="c_0_40.html" xlink:title="{skolem₃ ∈ Card}" target="_parent">
<polygon fill="#fa6900" stroke="#7f7542" points="144,-16.5 144,-31.5 254,-31.5 254,-16.5 144,-16.5"/>
<text text-anchor="middle" x="199" y="-20.3" font-family="Times,serif" font-size="14.00">skolem₃ ∈ Card</text>
</a>
</g>
</g>
<!-- t28_card_2&#45;&gt;c_0_40 -->
<g id="edge3" class="edge">
<title>t28_card_2&#45;&gt;c_0_40</title>
<path fill="none" stroke="black" stroke-dasharray="5,2" d="M238.75,-68.33C238.75,-68.33 238.75,-41.7 238.75,-41.7"/>
<polygon fill="black" stroke="black" points="242.25,-41.7 238.75,-31.7 235.25,-41.7 242.25,-41.7"/>
</g>
<!-- c_0_48 -->
<g id="node5" class="node">
<title>c_0_48</title>
<g id="a_node5"><a xlink:href="c_0_48.html" xlink:title="{skolem₁ ∈ Card}" target="_parent">
<polygon fill="#fa6900" stroke="#7f7542" points="16,-16.5 16,-31.5 126,-31.5 126,-16.5 16,-16.5"/>
<text text-anchor="middle" x="71" y="-20.3" font-family="Times,serif" font-size="14.00">skolem₁ ∈ Card</text>
</a>
</g>
</g>
<!-- t28_card_2&#45;&gt;c_0_48 -->
<g id="edge4" class="edge">
<title>t28_card_2&#45;&gt;c_0_48</title>
<path fill="none" stroke="black" stroke-dasharray="5,2" d="M223.22,-76C166.98,-76 71,-76 71,-76 71,-76 71,-41.67 71,-41.67"/>
<polygon fill="black" stroke="black" points="74.5,-41.67 71,-31.67 67.5,-41.67 74.5,-41.67"/>
</g>
</g>
</svg>
