<?xml version="1.0" encoding="UTF-8" standalone="no"?>
<!DOCTYPE svg PUBLIC "-//W3C//DTD SVG 1.1//EN"
 "http://www.w3.org/Graphics/SVG/1.1/DTD/svg11.dtd">
<!-- Generated by graphviz version 5.0.0 (0)
 -->
<!-- Title: proof Pages: 1 -->
<svg width="394pt" height="138pt"
 viewBox="0.00 0.00 394.00 138.00" xmlns="http://www.w3.org/2000/svg" xmlns:xlink="http://www.w3.org/1999/xlink">
<g id="graph0" class="graph" transform="scale(1 1) rotate(0) translate(4 134)">
<title>proof</title>
<g id="clust1" class="cluster">
<title>cluster_1</title>
<polygon fill="transparent" stroke="black" stroke-width="2" points="143,-90 143,-122 243,-122 243,-90 143,-90"/>
</g>
<g id="clust2" class="cluster">
<title>cluster_2</title>
<polygon fill="transparent" stroke="black" stroke-dasharray="1,5" points="8,-8 8,-70 378,-70 378,-8 8,-8"/>
</g>
<!-- t62_funct_5 -->
<g id="node1" class="node">
<title>t62_funct_5</title>
<g id="a_node1"><a xlink:href="t62_funct_5.html" xlink:title="t62_funct_5" target="_vizar">
<polygon fill="#69d2e7" stroke="#7f7542" points="151,-98.5 151,-113.5 235,-113.5 235,-98.5 151,-98.5"/>
<text text-anchor="middle" x="193" y="-102.3" font-family="Times,serif" font-size="14.00">t62_funct_5</text>
</a>
</g>
</g>
<!-- c_0_52 -->
<g id="node2" class="node">
<title>c_0_52</title>
<g id="a_node2"><a xlink:href="c_0_52.html" xlink:title="{X₁ ∩ X₂ = Ø|⇊|\|\{f:(X₁ ∪ X₂) → X₃\}\| = \|(\{f:X₁ → X₃\} × \{f:X₂ → X₃\})\|}" target="_vizar">
<polygon fill="#f8edd1" stroke="#7f7542" points="16,-16.5 16,-61.5 370,-61.5 370,-16.5 16,-16.5"/>
<text text-anchor="middle" x="193" y="-50.3" font-family="Times,serif" font-size="14.00">X₁ ∩ X₂ = Ø</text>
<polyline fill="none" stroke="#7f7542" points="16,-46.5 370,-46.5 "/>
<text text-anchor="middle" x="193" y="-35.3" font-family="Times,serif" font-size="14.00">⇊</text>
<polyline fill="none" stroke="#7f7542" points="16,-31.5 370,-31.5 "/>
<text text-anchor="middle" x="193" y="-20.3" font-family="Times,serif" font-size="14.00">|{f:(X₁ ∪ X₂) → X₃}| = |({f:X₁ → X₃} × {f:X₂ → X₃})|</text>
</a>
</g>
</g>
<!-- t62_funct_5&#45;&gt;c_0_52 -->
<g id="edge1" class="edge">
<title>t62_funct_5&#45;&gt;c_0_52</title>
<path fill="none" stroke="black" d="M193,-98.31C193,-98.31 193,-71.76 193,-71.76"/>
<polygon fill="black" stroke="black" points="196.5,-71.76 193,-61.76 189.5,-71.76 196.5,-71.76"/>
</g>
</g>
</svg>
