<?xml version="1.0" encoding="UTF-8" standalone="no"?>
<!DOCTYPE svg PUBLIC "-//W3C//DTD SVG 1.1//EN"
 "http://www.w3.org/Graphics/SVG/1.1/DTD/svg11.dtd">
<!-- Generated by graphviz version 5.0.0 (0)
 -->
<!-- Title: proof Pages: 1 -->
<svg width="712pt" height="385pt"
 viewBox="0.00 0.00 712.00 385.00" xmlns="http://www.w3.org/2000/svg" xmlns:xlink="http://www.w3.org/1999/xlink">
<g id="graph0" class="graph" transform="scale(1 1) rotate(0) translate(4 381)">
<title>proof</title>
<g id="clust1" class="cluster">
<title>cluster_0</title>
<polygon fill="transparent" stroke="black" stroke-dasharray="1,5" points="8,-232 8,-369 696,-369 696,-232 8,-232"/>
</g>
<g id="clust2" class="cluster">
<title>cluster_1</title>
<polygon fill="transparent" stroke="black" stroke-width="2" points="233,-90 233,-212 557,-212 557,-90 233,-90"/>
</g>
<g id="clust3" class="cluster">
<title>cluster_2</title>
<polygon fill="transparent" stroke="black" stroke-dasharray="1,5" points="230,-8 230,-70 560,-70 560,-8 230,-8"/>
</g>
<!-- c_0_40 -->
<g id="node1" class="node">
<title>c_0_40</title>
<g id="a_node1"><a xlink:href="c_0_40.html" xlink:title="{X₁ ∈ bool(X₂)|⇊|X₂ ` X₁ ∈ bool(X₂)}" target="_vizar">
<polygon fill="#f8edd1" stroke="#7f7542" points="566.5,-278 566.5,-323 687.5,-323 687.5,-278 566.5,-278"/>
<text text-anchor="middle" x="627" y="-311.8" font-family="Times,serif" font-size="14.00">X₁ ∈ bool(X₂)</text>
<polyline fill="none" stroke="#7f7542" points="566.5,-308 687.5,-308 "/>
<text text-anchor="middle" x="627" y="-296.8" font-family="Times,serif" font-size="14.00">⇊</text>
<polyline fill="none" stroke="#7f7542" points="566.5,-293 687.5,-293 "/>
<text text-anchor="middle" x="627" y="-281.8" font-family="Times,serif" font-size="14.00">X₂ ` X₁ ∈ bool(X₂)</text>
</a>
</g>
</g>
<!-- c_0_128 -->
<g id="node4" class="node">
<title>c_0_128</title>
<g id="a_node4"><a xlink:href="c_0_128.html" xlink:title="{FinSequenceSet(COMPLEX(X₁),COMPLEX)|X₁ ∈ ℕ ⊆ ℝ|X₂ ∈ bool(COMPLEX(X₁))|open(COMPLEX(X₁) ` X₂,X₁)|⇊|COMPLEX(X₁) = Ø|closed(X₂,X₁)}" target="_vizar">
<polygon fill="#f8edd1" stroke="#7f7542" points="241.5,-98.5 241.5,-203.5 548.5,-203.5 548.5,-98.5 241.5,-98.5"/>
<text text-anchor="middle" x="395" y="-192.3" font-family="Times,serif" font-size="14.00">FinSequenceSet(COMPLEX(X₁),COMPLEX)</text>
<polyline fill="none" stroke="#7f7542" points="241.5,-188.5 548.5,-188.5 "/>
<text text-anchor="middle" x="395" y="-177.3" font-family="Times,serif" font-size="14.00">X₁ ∈ ℕ ⊆ ℝ</text>
<polyline fill="none" stroke="#7f7542" points="241.5,-173.5 548.5,-173.5 "/>
<text text-anchor="middle" x="395" y="-162.3" font-family="Times,serif" font-size="14.00">X₂ ∈ bool(COMPLEX(X₁))</text>
<polyline fill="none" stroke="#7f7542" points="241.5,-158.5 548.5,-158.5 "/>
<text text-anchor="middle" x="395" y="-147.3" font-family="Times,serif" font-size="14.00">open(COMPLEX(X₁) ` X₂,X₁)</text>
<polyline fill="none" stroke="#7f7542" points="241.5,-143.5 548.5,-143.5 "/>
<text text-anchor="middle" x="395" y="-132.3" font-family="Times,serif" font-size="14.00">⇊</text>
<polyline fill="none" stroke="#7f7542" points="241.5,-128.5 548.5,-128.5 "/>
<text text-anchor="middle" x="395" y="-117.3" font-family="Times,serif" font-size="14.00">COMPLEX(X₁) = Ø</text>
<polyline fill="none" stroke="#7f7542" points="241.5,-113.5 548.5,-113.5 "/>
<text text-anchor="middle" x="395" y="-102.3" font-family="Times,serif" font-size="14.00">closed(X₂,X₁)</text>
</a>
</g>
</g>
<!-- c_0_40&#45;&gt;c_0_128 -->
<g id="edge1" class="edge">
<title>c_0_40&#45;&gt;c_0_128</title>
<path fill="none" stroke="black" d="M627,-277.79C627,-235.97 627,-151 627,-151 627,-151 558.78,-151 558.78,-151"/>
<polygon fill="black" stroke="black" points="558.78,-147.5 548.78,-151 558.78,-154.5 558.78,-147.5"/>
</g>
<!-- c_0_121 -->
<g id="node2" class="node">
<title>c_0_121</title>
<g id="a_node2"><a xlink:href="c_0_121.html" xlink:title="{FinSequenceSet(COMPLEX(X₁),COMPLEX)|X₁ ∈ ℕ ⊆ ℝ|X₂ ∈ bool(COMPLEX(X₁))|⇊|COMPLEX(X₁) = Ø|closed(X₂,X₁)|sk₇(X₁,X₂) ∈ COMPLEX(X₁) ` X₂}" target="_vizar">
<polygon fill="#f8edd1" stroke="#7f7542" points="241.5,-248 241.5,-353 548.5,-353 548.5,-248 241.5,-248"/>
<text text-anchor="middle" x="395" y="-341.8" font-family="Times,serif" font-size="14.00">FinSequenceSet(COMPLEX(X₁),COMPLEX)</text>
<polyline fill="none" stroke="#7f7542" points="241.5,-338 548.5,-338 "/>
<text text-anchor="middle" x="395" y="-326.8" font-family="Times,serif" font-size="14.00">X₁ ∈ ℕ ⊆ ℝ</text>
<polyline fill="none" stroke="#7f7542" points="241.5,-323 548.5,-323 "/>
<text text-anchor="middle" x="395" y="-311.8" font-family="Times,serif" font-size="14.00">X₂ ∈ bool(COMPLEX(X₁))</text>
<polyline fill="none" stroke="#7f7542" points="241.5,-308 548.5,-308 "/>
<text text-anchor="middle" x="395" y="-296.8" font-family="Times,serif" font-size="14.00">⇊</text>
<polyline fill="none" stroke="#7f7542" points="241.5,-293 548.5,-293 "/>
<text text-anchor="middle" x="395" y="-281.8" font-family="Times,serif" font-size="14.00">COMPLEX(X₁) = Ø</text>
<polyline fill="none" stroke="#7f7542" points="241.5,-278 548.5,-278 "/>
<text text-anchor="middle" x="395" y="-266.8" font-family="Times,serif" font-size="14.00">closed(X₂,X₁)</text>
<polyline fill="none" stroke="#7f7542" points="241.5,-263 548.5,-263 "/>
<text text-anchor="middle" x="395" y="-251.8" font-family="Times,serif" font-size="14.00">sk₇(X₁,X₂) ∈ COMPLEX(X₁) ` X₂</text>
</a>
</g>
</g>
<!-- c_0_121&#45;&gt;c_0_128 -->
<g id="edge2" class="edge">
<title>c_0_121&#45;&gt;c_0_128</title>
<path fill="none" stroke="black" d="M395,-247.79C395,-247.79 395,-213.74 395,-213.74"/>
<polygon fill="black" stroke="black" points="398.5,-213.74 395,-203.74 391.5,-213.74 398.5,-213.74"/>
</g>
<!-- c_0_120 -->
<g id="node3" class="node">
<title>c_0_120</title>
<g id="a_node3"><a xlink:href="c_0_120.html" xlink:title="{X₁ ∈ bool(COMPLEX(X₂))|X₁ ∈ bool(X₃)|X₂ ∈ ℕ ⊆ ℝ|X₃ ` X₁ ∈ bool(COMPLEX(X₂))|open(X₃ ` X₁,X₂)|sk₇(X₂,X₁) ∈ X₃ ` X₁|⇊|closed(X₁,X₂)}" target="_vizar">
<polygon fill="#f8edd1" stroke="#7f7542" points="16.5,-240.5 16.5,-360.5 223.5,-360.5 223.5,-240.5 16.5,-240.5"/>
<text text-anchor="middle" x="120" y="-349.3" font-family="Times,serif" font-size="14.00">X₁ ∈ bool(COMPLEX(X₂))</text>
<polyline fill="none" stroke="#7f7542" points="16.5,-345.5 223.5,-345.5 "/>
<text text-anchor="middle" x="120" y="-334.3" font-family="Times,serif" font-size="14.00">X₁ ∈ bool(X₃)</text>
<polyline fill="none" stroke="#7f7542" points="16.5,-330.5 223.5,-330.5 "/>
<text text-anchor="middle" x="120" y="-319.3" font-family="Times,serif" font-size="14.00">X₂ ∈ ℕ ⊆ ℝ</text>
<polyline fill="none" stroke="#7f7542" points="16.5,-315.5 223.5,-315.5 "/>
<text text-anchor="middle" x="120" y="-304.3" font-family="Times,serif" font-size="14.00">X₃ ` X₁ ∈ bool(COMPLEX(X₂))</text>
<polyline fill="none" stroke="#7f7542" points="16.5,-300.5 223.5,-300.5 "/>
<text text-anchor="middle" x="120" y="-289.3" font-family="Times,serif" font-size="14.00">open(X₃ ` X₁,X₂)</text>
<polyline fill="none" stroke="#7f7542" points="16.5,-285.5 223.5,-285.5 "/>
<text text-anchor="middle" x="120" y="-274.3" font-family="Times,serif" font-size="14.00">sk₇(X₂,X₁) ∈ X₃ ` X₁</text>
<polyline fill="none" stroke="#7f7542" points="16.5,-270.5 223.5,-270.5 "/>
<text text-anchor="middle" x="120" y="-259.3" font-family="Times,serif" font-size="14.00">⇊</text>
<polyline fill="none" stroke="#7f7542" points="16.5,-255.5 223.5,-255.5 "/>
<text text-anchor="middle" x="120" y="-244.3" font-family="Times,serif" font-size="14.00">closed(X₁,X₂)</text>
</a>
</g>
</g>
<!-- c_0_120&#45;&gt;c_0_128 -->
<g id="edge3" class="edge">
<title>c_0_120&#45;&gt;c_0_128</title>
<path fill="none" stroke="black" d="M120,-240.12C120,-198.63 120,-151 120,-151 120,-151 231.42,-151 231.42,-151"/>
<polygon fill="black" stroke="black" points="231.42,-154.5 241.42,-151 231.42,-147.5 231.42,-154.5"/>
</g>
<!-- c_0_136 -->
<g id="node5" class="node">
<title>c_0_136</title>
<g id="a_node5"><a xlink:href="c_0_136.html" xlink:title="{FinSequenceSet(COMPLEX(sk₁),COMPLEX)|⇊|closed(sk₂,sk₁)}" target="_vizar">
<polygon fill="#fa6900" stroke="#7f7542" points="238.5,-16.5 238.5,-61.5 551.5,-61.5 551.5,-16.5 238.5,-16.5"/>
<text text-anchor="middle" x="395" y="-50.3" font-family="Times,serif" font-size="14.00">FinSequenceSet(COMPLEX(sk₁),COMPLEX)</text>
<polyline fill="none" stroke="#7f7542" points="238.5,-46.5 551.5,-46.5 "/>
<text text-anchor="middle" x="395" y="-35.3" font-family="Times,serif" font-size="14.00">⇊</text>
<polyline fill="none" stroke="#7f7542" points="238.5,-31.5 551.5,-31.5 "/>
<text text-anchor="middle" x="395" y="-20.3" font-family="Times,serif" font-size="14.00">closed(sk₂,sk₁)</text>
</a>
</g>
</g>
<!-- c_0_128&#45;&gt;c_0_136 -->
<g id="edge4" class="edge">
<title>c_0_128&#45;&gt;c_0_136</title>
<path fill="none" stroke="black" stroke-dasharray="5,2" d="M395,-98.28C395,-98.28 395,-71.54 395,-71.54"/>
<polygon fill="black" stroke="black" points="398.5,-71.54 395,-61.54 391.5,-71.54 398.5,-71.54"/>
</g>
</g>
</svg>
