<?xml version="1.0" encoding="UTF-8" standalone="no"?>
<!DOCTYPE svg PUBLIC "-//W3C//DTD SVG 1.1//EN"
 "http://www.w3.org/Graphics/SVG/1.1/DTD/svg11.dtd">
<!-- Generated by graphviz version 5.0.0 (0)
 -->
<!-- Title: proof Pages: 1 -->
<svg width="132pt" height="280pt"
 viewBox="0.00 0.00 132.00 280.00" xmlns="http://www.w3.org/2000/svg" xmlns:xlink="http://www.w3.org/1999/xlink">
<g id="graph0" class="graph" transform="scale(1 1) rotate(0) translate(4 276)">
<title>proof</title>
<g id="clust1" class="cluster">
<title>cluster_0</title>
<polygon fill="transparent" stroke="black" stroke-dasharray="1,5" points="10,-232 10,-264 114,-264 114,-232 10,-232"/>
</g>
<g id="clust2" class="cluster">
<title>cluster_1</title>
<polygon fill="transparent" stroke="black" stroke-width="2" points="16,-120 16,-212 108,-212 108,-120 16,-120"/>
</g>
<g id="clust3" class="cluster">
<title>cluster_2</title>
<polygon fill="transparent" stroke="black" stroke-dasharray="1,5" points="8,-8 8,-100 116,-100 116,-8 8,-8"/>
</g>
<!-- d5_xboole_0 -->
<g id="node1" class="node">
<title>d5_xboole_0</title>
<g id="a_node1"><a xlink:href="d5_xboole_0.html" xlink:title="d5_xboole_0" target="_vizar">
<polygon fill="#69d2e7" stroke="#7f7542" points="18,-240.5 18,-255.5 106,-255.5 106,-240.5 18,-240.5"/>
<text text-anchor="middle" x="62" y="-244.3" font-family="Times,serif" font-size="14.00">d5_xboole_0</text>
</a>
</g>
</g>
<!-- c_0_43 -->
<g id="node2" class="node">
<title>c_0_43</title>
<g id="a_node2"><a xlink:href="c_0_43.html" xlink:title="{X₁ ∈ X₂|X₁ ∈ X₃|X₃ = X₄ \ X₂|⇊|⊥}" target="_vizar">
<polygon fill="#f8edd1" stroke="#7f7542" points="24,-128.5 24,-203.5 100,-203.5 100,-128.5 24,-128.5"/>
<text text-anchor="middle" x="62" y="-192.3" font-family="Times,serif" font-size="14.00">X₁ ∈ X₂</text>
<polyline fill="none" stroke="#7f7542" points="24,-188.5 100,-188.5 "/>
<text text-anchor="middle" x="62" y="-177.3" font-family="Times,serif" font-size="14.00">X₁ ∈ X₃</text>
<polyline fill="none" stroke="#7f7542" points="24,-173.5 100,-173.5 "/>
<text text-anchor="middle" x="62" y="-162.3" font-family="Times,serif" font-size="14.00">X₃ = X₄ &#160;X₂</text>
<polyline fill="none" stroke="#7f7542" points="24,-158.5 100,-158.5 "/>
<text text-anchor="middle" x="62" y="-147.3" font-family="Times,serif" font-size="14.00">⇊</text>
<polyline fill="none" stroke="#7f7542" points="24,-143.5 100,-143.5 "/>
<text text-anchor="middle" x="62" y="-132.3" font-family="Times,serif" font-size="14.00">⊥</text>
</a>
</g>
</g>
<!-- d5_xboole_0&#45;&gt;c_0_43 -->
<g id="edge1" class="edge">
<title>d5_xboole_0&#45;&gt;c_0_43</title>
<path fill="none" stroke="black" d="M62,-240.43C62,-240.43 62,-213.67 62,-213.67"/>
<polygon fill="black" stroke="black" points="65.5,-213.67 62,-203.67 58.5,-213.67 65.5,-213.67"/>
</g>
<!-- c_0_49 -->
<g id="node3" class="node">
<title>c_0_49</title>
<g id="a_node3"><a xlink:href="c_0_49.html" xlink:title="{X₁ ∈ X₂ ` X₃|X₁ ∈ X₃|X₃ ∈ bool(X₂)|⇊|⊥}" target="_vizar">
<polygon fill="#f8edd1" stroke="#7f7542" points="16.5,-16.5 16.5,-91.5 107.5,-91.5 107.5,-16.5 16.5,-16.5"/>
<text text-anchor="middle" x="62" y="-80.3" font-family="Times,serif" font-size="14.00">X₁ ∈ X₂ ` X₃</text>
<polyline fill="none" stroke="#7f7542" points="16.5,-76.5 107.5,-76.5 "/>
<text text-anchor="middle" x="62" y="-65.3" font-family="Times,serif" font-size="14.00">X₁ ∈ X₃</text>
<polyline fill="none" stroke="#7f7542" points="16.5,-61.5 107.5,-61.5 "/>
<text text-anchor="middle" x="62" y="-50.3" font-family="Times,serif" font-size="14.00">X₃ ∈ bool(X₂)</text>
<polyline fill="none" stroke="#7f7542" points="16.5,-46.5 107.5,-46.5 "/>
<text text-anchor="middle" x="62" y="-35.3" font-family="Times,serif" font-size="14.00">⇊</text>
<polyline fill="none" stroke="#7f7542" points="16.5,-31.5 107.5,-31.5 "/>
<text text-anchor="middle" x="62" y="-20.3" font-family="Times,serif" font-size="14.00">⊥</text>
</a>
</g>
</g>
<!-- c_0_43&#45;&gt;c_0_49 -->
<g id="edge2" class="edge">
<title>c_0_43&#45;&gt;c_0_49</title>
<path fill="none" stroke="black" stroke-dasharray="5,2" d="M62,-128.39C62,-128.39 62,-101.7 62,-101.7"/>
<polygon fill="black" stroke="black" points="65.5,-101.7 62,-91.7 58.5,-101.7 65.5,-101.7"/>
</g>
</g>
</svg>
