<?xml version="1.0" encoding="UTF-8" standalone="no"?>
<!DOCTYPE svg PUBLIC "-//W3C//DTD SVG 1.1//EN"
 "http://www.w3.org/Graphics/SVG/1.1/DTD/svg11.dtd">
<!-- Generated by graphviz version 5.0.0 (0)
 -->
<!-- Title: proof Pages: 1 -->
<svg width="356pt" height="445pt"
 viewBox="0.00 0.00 356.00 445.00" xmlns="http://www.w3.org/2000/svg" xmlns:xlink="http://www.w3.org/1999/xlink">
<g id="graph0" class="graph" transform="scale(1 1) rotate(0) translate(4 441)">
<title>proof</title>
<g id="clust1" class="cluster">
<title>cluster_0</title>
<polygon fill="transparent" stroke="black" stroke-dasharray="1,5" points="8,-307 8,-429 300,-429 300,-307 8,-307"/>
</g>
<g id="clust2" class="cluster">
<title>cluster_1</title>
<polygon fill="transparent" stroke="black" stroke-width="2" points="66,-150 66,-287 290,-287 290,-150 66,-150"/>
</g>
<g id="clust3" class="cluster">
<title>cluster_2</title>
<polygon fill="transparent" stroke="black" stroke-dasharray="1,5" points="16,-8 16,-130 340,-130 340,-8 16,-8"/>
</g>
<!-- c_0_77 -->
<g id="node1" class="node">
<title>c_0_77</title>
<g id="a_node1"><a xlink:href="c_0_77.html" xlink:title="{X₁ ∈ X₂|⇊|X₁ ∈ X₂|X₂ = Ø}" target="_vizar">
<polygon fill="#f8edd1" stroke="#7f7542" points="242,-338 242,-398 292,-398 292,-338 242,-338"/>
<text text-anchor="middle" x="267" y="-386.8" font-family="Times,serif" font-size="14.00">X₁ ∈ X₂</text>
<polyline fill="none" stroke="#7f7542" points="242,-383 292,-383 "/>
<text text-anchor="middle" x="267" y="-371.8" font-family="Times,serif" font-size="14.00">⇊</text>
<polyline fill="none" stroke="#7f7542" points="242,-368 292,-368 "/>
<text text-anchor="middle" x="267" y="-356.8" font-family="Times,serif" font-size="14.00">X₁ ∈ X₂</text>
<polyline fill="none" stroke="#7f7542" points="242,-353 292,-353 "/>
<text text-anchor="middle" x="267" y="-341.8" font-family="Times,serif" font-size="14.00">X₂ = Ø</text>
</a>
</g>
</g>
<!-- c_0_92 -->
<g id="node3" class="node">
<title>c_0_92</title>
<g id="a_node3"><a xlink:href="c_0_92.html" xlink:title="{X₁ ` X₃ ∈ bool(COMPLEX(X₂))|X₂ ∈ ℕ ⊆ ℝ|X₃ ∈ bool(X₁)|sk₇(X₂,X₁ ` X₃) ∈ X₁|⇊|X₁ = Ø|closed(X₁ ` X₃,X₂)|sk₇(X₂,X₁ ` X₃) ∈ X₃}" target="_vizar">
<polygon fill="#f8edd1" stroke="#7f7542" points="74.5,-158.5 74.5,-278.5 281.5,-278.5 281.5,-158.5 74.5,-158.5"/>
<text text-anchor="middle" x="178" y="-267.3" font-family="Times,serif" font-size="14.00">X₁ ` X₃ ∈ bool(COMPLEX(X₂))</text>
<polyline fill="none" stroke="#7f7542" points="74.5,-263.5 281.5,-263.5 "/>
<text text-anchor="middle" x="178" y="-252.3" font-family="Times,serif" font-size="14.00">X₂ ∈ ℕ ⊆ ℝ</text>
<polyline fill="none" stroke="#7f7542" points="74.5,-248.5 281.5,-248.5 "/>
<text text-anchor="middle" x="178" y="-237.3" font-family="Times,serif" font-size="14.00">X₃ ∈ bool(X₁)</text>
<polyline fill="none" stroke="#7f7542" points="74.5,-233.5 281.5,-233.5 "/>
<text text-anchor="middle" x="178" y="-222.3" font-family="Times,serif" font-size="14.00">sk₇(X₂,X₁ ` X₃) ∈ X₁</text>
<polyline fill="none" stroke="#7f7542" points="74.5,-218.5 281.5,-218.5 "/>
<text text-anchor="middle" x="178" y="-207.3" font-family="Times,serif" font-size="14.00">⇊</text>
<polyline fill="none" stroke="#7f7542" points="74.5,-203.5 281.5,-203.5 "/>
<text text-anchor="middle" x="178" y="-192.3" font-family="Times,serif" font-size="14.00">X₁ = Ø</text>
<polyline fill="none" stroke="#7f7542" points="74.5,-188.5 281.5,-188.5 "/>
<text text-anchor="middle" x="178" y="-177.3" font-family="Times,serif" font-size="14.00">closed(X₁ ` X₃,X₂)</text>
<polyline fill="none" stroke="#7f7542" points="74.5,-173.5 281.5,-173.5 "/>
<text text-anchor="middle" x="178" y="-162.3" font-family="Times,serif" font-size="14.00">sk₇(X₂,X₁ ` X₃) ∈ X₃</text>
</a>
</g>
</g>
<!-- c_0_77&#45;&gt;c_0_92 -->
<g id="edge1" class="edge">
<title>c_0_77&#45;&gt;c_0_92</title>
<path fill="none" stroke="black" d="M261.75,-337.75C261.75,-337.75 261.75,-288.67 261.75,-288.67"/>
<polygon fill="black" stroke="black" points="265.25,-288.67 261.75,-278.67 258.25,-288.67 265.25,-288.67"/>
</g>
<!-- c_0_76 -->
<g id="node2" class="node">
<title>c_0_76</title>
<g id="a_node2"><a xlink:href="c_0_76.html" xlink:title="{X₁ ∈ ℕ ⊆ ℝ|X₂ ` X₃ ∈ bool(COMPLEX(X₁))|X₃ ∈ bool(X₂)|sk₇(X₁,X₂ ` X₃) ∈ X₂|⇊|closed(X₂ ` X₃,X₁)|sk₇(X₁,X₂ ` X₃) ∈ X₃}" target="_vizar">
<polygon fill="#f8edd1" stroke="#7f7542" points="16.5,-315.5 16.5,-420.5 223.5,-420.5 223.5,-315.5 16.5,-315.5"/>
<text text-anchor="middle" x="120" y="-409.3" font-family="Times,serif" font-size="14.00">X₁ ∈ ℕ ⊆ ℝ</text>
<polyline fill="none" stroke="#7f7542" points="16.5,-405.5 223.5,-405.5 "/>
<text text-anchor="middle" x="120" y="-394.3" font-family="Times,serif" font-size="14.00">X₂ ` X₃ ∈ bool(COMPLEX(X₁))</text>
<polyline fill="none" stroke="#7f7542" points="16.5,-390.5 223.5,-390.5 "/>
<text text-anchor="middle" x="120" y="-379.3" font-family="Times,serif" font-size="14.00">X₃ ∈ bool(X₂)</text>
<polyline fill="none" stroke="#7f7542" points="16.5,-375.5 223.5,-375.5 "/>
<text text-anchor="middle" x="120" y="-364.3" font-family="Times,serif" font-size="14.00">sk₇(X₁,X₂ ` X₃) ∈ X₂</text>
<polyline fill="none" stroke="#7f7542" points="16.5,-360.5 223.5,-360.5 "/>
<text text-anchor="middle" x="120" y="-349.3" font-family="Times,serif" font-size="14.00">⇊</text>
<polyline fill="none" stroke="#7f7542" points="16.5,-345.5 223.5,-345.5 "/>
<text text-anchor="middle" x="120" y="-334.3" font-family="Times,serif" font-size="14.00">closed(X₂ ` X₃,X₁)</text>
<polyline fill="none" stroke="#7f7542" points="16.5,-330.5 223.5,-330.5 "/>
<text text-anchor="middle" x="120" y="-319.3" font-family="Times,serif" font-size="14.00">sk₇(X₁,X₂ ` X₃) ∈ X₃</text>
</a>
</g>
</g>
<!-- c_0_76&#45;&gt;c_0_92 -->
<g id="edge2" class="edge">
<title>c_0_76&#45;&gt;c_0_92</title>
<path fill="none" stroke="black" d="M149,-315.29C149,-315.29 149,-288.64 149,-288.64"/>
<polygon fill="black" stroke="black" points="152.5,-288.64 149,-278.64 145.5,-288.64 152.5,-288.64"/>
</g>
<!-- c_0_110 -->
<g id="node4" class="node">
<title>c_0_110</title>
<g id="a_node4"><a xlink:href="c_0_110.html" xlink:title="{FinSequenceSet(COMPLEX(X₁),COMPLEX)|X₁ ∈ ℕ ⊆ ℝ|X₂ ∈ bool(COMPLEX(X₁))|⇊|COMPLEX(X₁) = Ø|closed(COMPLEX(X₁) ` X₂,X₁)|sk₇(X₁,COMPLEX(X₁) ` X₂) ∈ X₂}" target="_vizar">
<polygon fill="#f8edd1" stroke="#7f7542" points="24.5,-16.5 24.5,-121.5 331.5,-121.5 331.5,-16.5 24.5,-16.5"/>
<text text-anchor="middle" x="178" y="-110.3" font-family="Times,serif" font-size="14.00">FinSequenceSet(COMPLEX(X₁),COMPLEX)</text>
<polyline fill="none" stroke="#7f7542" points="24.5,-106.5 331.5,-106.5 "/>
<text text-anchor="middle" x="178" y="-95.3" font-family="Times,serif" font-size="14.00">X₁ ∈ ℕ ⊆ ℝ</text>
<polyline fill="none" stroke="#7f7542" points="24.5,-91.5 331.5,-91.5 "/>
<text text-anchor="middle" x="178" y="-80.3" font-family="Times,serif" font-size="14.00">X₂ ∈ bool(COMPLEX(X₁))</text>
<polyline fill="none" stroke="#7f7542" points="24.5,-76.5 331.5,-76.5 "/>
<text text-anchor="middle" x="178" y="-65.3" font-family="Times,serif" font-size="14.00">⇊</text>
<polyline fill="none" stroke="#7f7542" points="24.5,-61.5 331.5,-61.5 "/>
<text text-anchor="middle" x="178" y="-50.3" font-family="Times,serif" font-size="14.00">COMPLEX(X₁) = Ø</text>
<polyline fill="none" stroke="#7f7542" points="24.5,-46.5 331.5,-46.5 "/>
<text text-anchor="middle" x="178" y="-35.3" font-family="Times,serif" font-size="14.00">closed(COMPLEX(X₁) ` X₂,X₁)</text>
<polyline fill="none" stroke="#7f7542" points="24.5,-31.5 331.5,-31.5 "/>
<text text-anchor="middle" x="178" y="-20.3" font-family="Times,serif" font-size="14.00">sk₇(X₁,COMPLEX(X₁) ` X₂) ∈ X₂</text>
</a>
</g>
</g>
<!-- c_0_92&#45;&gt;c_0_110 -->
<g id="edge3" class="edge">
<title>c_0_92&#45;&gt;c_0_110</title>
<path fill="none" stroke="black" stroke-dasharray="5,2" d="M178,-158.12C178,-158.12 178,-131.9 178,-131.9"/>
<polygon fill="black" stroke="black" points="181.5,-131.9 178,-121.9 174.5,-131.9 181.5,-131.9"/>
</g>
</g>
</svg>
