<?xml version="1.0" encoding="UTF-8" standalone="no"?>
<!DOCTYPE svg PUBLIC "-//W3C//DTD SVG 1.1//EN"
 "http://www.w3.org/Graphics/SVG/1.1/DTD/svg11.dtd">
<!-- Generated by graphviz version 5.0.0 (0)
 -->
<!-- Title: proof Pages: 1 -->
<svg width="376pt" height="205pt"
 viewBox="0.00 0.00 376.00 205.00" xmlns="http://www.w3.org/2000/svg" xmlns:xlink="http://www.w3.org/1999/xlink">
<g id="graph0" class="graph" transform="scale(1 1) rotate(0) translate(4 201)">
<title>proof</title>
<g id="clust1" class="cluster">
<title>cluster_0</title>
<polygon fill="transparent" stroke="black" stroke-dasharray="1,5" points="8,-112 8,-189 360,-189 360,-112 8,-112"/>
</g>
<g id="clust2" class="cluster">
<title>cluster_1</title>
<polygon fill="transparent" stroke="black" stroke-width="2" points="38,-60 38,-92 296,-92 296,-60 38,-60"/>
</g>
<g id="clust3" class="cluster">
<title>cluster_2</title>
<polygon fill="transparent" stroke="black" stroke-dasharray="1,5" points="152,-8 152,-40 182,-40 182,-8 152,-8"/>
</g>
<!-- c_0_139 -->
<g id="node1" class="node">
<title>c_0_139</title>
<g id="a_node1"><a xlink:href="c_0_139.html" xlink:title="{closed(sk₂,sk₁)|open(COMPLEX(sk₁) ` sk₂,sk₁)|⇊|⊥}" target="_parent">
<polygon fill="#fa6900" stroke="#7f7542" points="138,-120.5 138,-180.5 352,-180.5 352,-120.5 138,-120.5"/>
<text text-anchor="middle" x="245" y="-169.3" font-family="Times,serif" font-size="14.00">closed(sk₂,sk₁)</text>
<polyline fill="none" stroke="#7f7542" points="138,-165.5 352,-165.5 "/>
<text text-anchor="middle" x="245" y="-154.3" font-family="Times,serif" font-size="14.00">open(COMPLEX(sk₁) ` sk₂,sk₁)</text>
<polyline fill="none" stroke="#7f7542" points="138,-150.5 352,-150.5 "/>
<text text-anchor="middle" x="245" y="-139.3" font-family="Times,serif" font-size="14.00">⇊</text>
<polyline fill="none" stroke="#7f7542" points="138,-135.5 352,-135.5 "/>
<text text-anchor="middle" x="245" y="-124.3" font-family="Times,serif" font-size="14.00">⊥</text>
</a>
</g>
</g>
<!-- c_0_142 -->
<g id="node3" class="node">
<title>c_0_142</title>
<g id="a_node3"><a xlink:href="c_0_142.html" xlink:title="{¬ (open(COMPLEX(sk₁) ` sk₂,sk₁))}" target="_parent">
<polygon fill="#fa6900" stroke="#7f7542" points="46.5,-68.5 46.5,-83.5 287.5,-83.5 287.5,-68.5 46.5,-68.5"/>
<text text-anchor="middle" x="167" y="-72.3" font-family="Times,serif" font-size="14.00">¬ (open(COMPLEX(sk₁) ` sk₂,sk₁))</text>
</a>
</g>
</g>
<!-- c_0_139&#45;&gt;c_0_142 -->
<g id="edge1" class="edge">
<title>c_0_139&#45;&gt;c_0_142</title>
<path fill="none" stroke="black" d="M212.75,-120.2C212.75,-120.2 212.75,-93.59 212.75,-93.59"/>
<polygon fill="black" stroke="black" points="216.25,-93.59 212.75,-83.59 209.25,-93.59 216.25,-93.59"/>
</g>
<!-- c_0_140 -->
<g id="node2" class="node">
<title>c_0_140</title>
<g id="a_node2"><a xlink:href="c_0_140.html" xlink:title="{closed(sk₂,sk₁)}" target="_parent">
<polygon fill="#fa6900" stroke="#7f7542" points="16.5,-143 16.5,-158 119.5,-158 119.5,-143 16.5,-143"/>
<text text-anchor="middle" x="68" y="-146.8" font-family="Times,serif" font-size="14.00">closed(sk₂,sk₁)</text>
</a>
</g>
</g>
<!-- c_0_140&#45;&gt;c_0_142 -->
<g id="edge2" class="edge">
<title>c_0_140&#45;&gt;c_0_142</title>
<path fill="none" stroke="black" d="M83,-142.81C83,-142.81 83,-93.76 83,-93.76"/>
<polygon fill="black" stroke="black" points="86.5,-93.76 83,-83.76 79.5,-93.76 86.5,-93.76"/>
</g>
<!-- c_0_144 -->
<g id="node4" class="node">
<title>c_0_144</title>
<g id="a_node4"><a xlink:href="c_0_144.html" xlink:title="⊥" target="_parent">
<polygon fill="#fa6900" stroke="#7f7542" points="160,-16.5 160,-31.5 174,-31.5 174,-16.5 160,-16.5"/>
<text text-anchor="middle" x="167" y="-20.3" font-family="Times,serif" font-size="14.00">⊥</text>
</a>
</g>
</g>
<!-- c_0_142&#45;&gt;c_0_144 -->
<g id="edge3" class="edge">
<title>c_0_142&#45;&gt;c_0_144</title>
<path fill="none" stroke="black" stroke-dasharray="5,2" d="M167,-68.33C167,-68.33 167,-41.7 167,-41.7"/>
<polygon fill="black" stroke="black" points="170.5,-41.7 167,-31.7 163.5,-41.7 170.5,-41.7"/>
</g>
</g>
</svg>
