<?xml version="1.0" encoding="UTF-8" standalone="no"?>
<!DOCTYPE svg PUBLIC "-//W3C//DTD SVG 1.1//EN"
 "http://www.w3.org/Graphics/SVG/1.1/DTD/svg11.dtd">
<!-- Generated by graphviz version 5.0.0 (0)
 -->
<!-- Title: proof Pages: 1 -->
<svg width="224pt" height="280pt"
 viewBox="0.00 0.00 224.00 280.00" xmlns="http://www.w3.org/2000/svg" xmlns:xlink="http://www.w3.org/1999/xlink">
<g id="graph0" class="graph" transform="scale(1 1) rotate(0) translate(4 276)">
<title>proof</title>
<g id="clust1" class="cluster">
<title>cluster_0</title>
<polygon fill="transparent" stroke="black" stroke-dasharray="1,5" points="57,-232 57,-264 161,-264 161,-232 57,-232"/>
</g>
<g id="clust2" class="cluster">
<title>cluster_1</title>
<polygon fill="transparent" stroke="black" stroke-width="2" points="63,-120 63,-212 155,-212 155,-120 63,-120"/>
</g>
<g id="clust3" class="cluster">
<title>cluster_2</title>
<polygon fill="transparent" stroke="black" stroke-dasharray="1,5" points="8,-8 8,-100 208,-100 208,-8 8,-8"/>
</g>
<!-- d5_xboole_0 -->
<g id="node1" class="node">
<title>d5_xboole_0</title>
<g id="a_node1"><a xlink:href="d5_xboole_0.html" xlink:title="d5_xboole_0" target="_vizar">
<polygon fill="#69d2e7" stroke="#7f7542" points="65,-240.5 65,-255.5 153,-255.5 153,-240.5 65,-240.5"/>
<text text-anchor="middle" x="109" y="-244.3" font-family="Times,serif" font-size="14.00">d5_xboole_0</text>
</a>
</g>
</g>
<!-- c_0_37 -->
<g id="node2" class="node">
<title>c_0_37</title>
<g id="a_node2"><a xlink:href="c_0_37.html" xlink:title="{X₁ ∈ X₂|X₄ = X₂ \ X₃|⇊|X₁ ∈ X₃|X₁ ∈ X₄}" target="_vizar">
<polygon fill="#f8edd1" stroke="#7f7542" points="71,-128.5 71,-203.5 147,-203.5 147,-128.5 71,-128.5"/>
<text text-anchor="middle" x="109" y="-192.3" font-family="Times,serif" font-size="14.00">X₁ ∈ X₂</text>
<polyline fill="none" stroke="#7f7542" points="71,-188.5 147,-188.5 "/>
<text text-anchor="middle" x="109" y="-177.3" font-family="Times,serif" font-size="14.00">X₄ = X₂ &#160;X₃</text>
<polyline fill="none" stroke="#7f7542" points="71,-173.5 147,-173.5 "/>
<text text-anchor="middle" x="109" y="-162.3" font-family="Times,serif" font-size="14.00">⇊</text>
<polyline fill="none" stroke="#7f7542" points="71,-158.5 147,-158.5 "/>
<text text-anchor="middle" x="109" y="-147.3" font-family="Times,serif" font-size="14.00">X₁ ∈ X₃</text>
<polyline fill="none" stroke="#7f7542" points="71,-143.5 147,-143.5 "/>
<text text-anchor="middle" x="109" y="-132.3" font-family="Times,serif" font-size="14.00">X₁ ∈ X₄</text>
</a>
</g>
</g>
<!-- d5_xboole_0&#45;&gt;c_0_37 -->
<g id="edge1" class="edge">
<title>d5_xboole_0&#45;&gt;c_0_37</title>
<path fill="none" stroke="black" d="M109,-240.43C109,-240.43 109,-213.67 109,-213.67"/>
<polygon fill="black" stroke="black" points="112.5,-213.67 109,-203.67 105.5,-213.67 112.5,-213.67"/>
</g>
<!-- c_0_42 -->
<g id="node3" class="node">
<title>c_0_42</title>
<g id="a_node3"><a xlink:href="c_0_42.html" xlink:title="{X₁ ∈ X₂|⇊|X₁ ∈ X₂ \ X₃|X₁ ∈ X₃}" target="_vizar">
<polygon fill="#f8edd1" stroke="#7f7542" points="126,-24 126,-84 200,-84 200,-24 126,-24"/>
<text text-anchor="middle" x="163" y="-72.8" font-family="Times,serif" font-size="14.00">X₁ ∈ X₂</text>
<polyline fill="none" stroke="#7f7542" points="126,-69 200,-69 "/>
<text text-anchor="middle" x="163" y="-57.8" font-family="Times,serif" font-size="14.00">⇊</text>
<polyline fill="none" stroke="#7f7542" points="126,-54 200,-54 "/>
<text text-anchor="middle" x="163" y="-42.8" font-family="Times,serif" font-size="14.00">X₁ ∈ X₂ &#160;X₃</text>
<polyline fill="none" stroke="#7f7542" points="126,-39 200,-39 "/>
<text text-anchor="middle" x="163" y="-27.8" font-family="Times,serif" font-size="14.00">X₁ ∈ X₃</text>
</a>
</g>
</g>
<!-- c_0_37&#45;&gt;c_0_42 -->
<g id="edge2" class="edge">
<title>c_0_37&#45;&gt;c_0_42</title>
<path fill="none" stroke="black" stroke-dasharray="5,2" d="M136.5,-128.39C136.5,-128.39 136.5,-94.26 136.5,-94.26"/>
<polygon fill="black" stroke="black" points="140,-94.26 136.5,-84.26 133,-94.26 140,-94.26"/>
</g>
<!-- c_0_62 -->
<g id="node4" class="node">
<title>c_0_62</title>
<g id="a_node4"><a xlink:href="c_0_62.html" xlink:title="{X₁ ∈ X₂|X₃ ∈ bool(X₂)|⇊|X₁ ∈ X₂ ` X₃|X₁ ∈ X₃}" target="_vizar">
<polygon fill="#f8edd1" stroke="#7f7542" points="16.5,-16.5 16.5,-91.5 107.5,-91.5 107.5,-16.5 16.5,-16.5"/>
<text text-anchor="middle" x="62" y="-80.3" font-family="Times,serif" font-size="14.00">X₁ ∈ X₂</text>
<polyline fill="none" stroke="#7f7542" points="16.5,-76.5 107.5,-76.5 "/>
<text text-anchor="middle" x="62" y="-65.3" font-family="Times,serif" font-size="14.00">X₃ ∈ bool(X₂)</text>
<polyline fill="none" stroke="#7f7542" points="16.5,-61.5 107.5,-61.5 "/>
<text text-anchor="middle" x="62" y="-50.3" font-family="Times,serif" font-size="14.00">⇊</text>
<polyline fill="none" stroke="#7f7542" points="16.5,-46.5 107.5,-46.5 "/>
<text text-anchor="middle" x="62" y="-35.3" font-family="Times,serif" font-size="14.00">X₁ ∈ X₂ ` X₃</text>
<polyline fill="none" stroke="#7f7542" points="16.5,-31.5 107.5,-31.5 "/>
<text text-anchor="middle" x="62" y="-20.3" font-family="Times,serif" font-size="14.00">X₁ ∈ X₃</text>
</a>
</g>
</g>
<!-- c_0_37&#45;&gt;c_0_62 -->
<g id="edge3" class="edge">
<title>c_0_37&#45;&gt;c_0_62</title>
<path fill="none" stroke="black" stroke-dasharray="5,2" d="M89.25,-128.39C89.25,-128.39 89.25,-101.7 89.25,-101.7"/>
<polygon fill="black" stroke="black" points="92.75,-101.7 89.25,-91.7 85.75,-101.7 92.75,-101.7"/>
</g>
</g>
</svg>
