<?xml version="1.0" encoding="UTF-8" standalone="no"?>
<!DOCTYPE svg PUBLIC "-//W3C//DTD SVG 1.1//EN"
 "http://www.w3.org/Graphics/SVG/1.1/DTD/svg11.dtd">
<!-- Generated by graphviz version 5.0.0 (0)
 -->
<!-- Title: proof Pages: 1 -->
<svg width="342pt" height="280pt"
 viewBox="0.00 0.00 342.00 280.00" xmlns="http://www.w3.org/2000/svg" xmlns:xlink="http://www.w3.org/1999/xlink">
<g id="graph0" class="graph" transform="scale(1 1) rotate(0) translate(4 276)">
<title>proof</title>
<g id="clust1" class="cluster">
<title>cluster_0</title>
<polygon fill="transparent" stroke="black" stroke-dasharray="1,5" points="111,-232 111,-264 223,-264 223,-232 111,-232"/>
</g>
<g id="clust2" class="cluster">
<title>cluster_1</title>
<polygon fill="transparent" stroke="black" stroke-width="2" points="8,-120 8,-212 326,-212 326,-120 8,-120"/>
</g>
<g id="clust3" class="cluster">
<title>cluster_2</title>
<polygon fill="transparent" stroke="black" stroke-dasharray="1,5" points="55,-8 55,-100 279,-100 279,-8 55,-8"/>
</g>
<!-- dt_k15_seq_4 -->
<g id="node1" class="node">
<title>dt_k15_seq_4</title>
<g id="a_node1"><a xlink:href="dt_k15_seq_4.html" xlink:title="dt_k15_seq_4" target="_parent">
<polygon fill="#69d2e7" stroke="#7f7542" points="119,-240.5 119,-255.5 215,-255.5 215,-240.5 119,-240.5"/>
<text text-anchor="middle" x="167" y="-244.3" font-family="Times,serif" font-size="14.00">dt_k15_seq_4</text>
</a>
</g>
</g>
<!-- c_0_85 -->
<g id="node2" class="node">
<title>c_0_85</title>
<g id="a_node2"><a xlink:href="c_0_85.html" xlink:title="{X₁ ∈ ℕ|X₂ ∈ COMPLEX(X₁)|X₃ ∈ COMPLEX(X₁)|⇊|X₁ + X₂ + X₃ ∈ COMPLEX ∈ COMPLEX(X₁)}" target="_parent">
<polygon fill="#f8edd1" stroke="#7f7542" points="16,-128.5 16,-203.5 318,-203.5 318,-128.5 16,-128.5"/>
<text text-anchor="middle" x="167" y="-192.3" font-family="Times,serif" font-size="14.00">X₁ ∈ ℕ</text>
<polyline fill="none" stroke="#7f7542" points="16,-188.5 318,-188.5 "/>
<text text-anchor="middle" x="167" y="-177.3" font-family="Times,serif" font-size="14.00">X₂ ∈ COMPLEX(X₁)</text>
<polyline fill="none" stroke="#7f7542" points="16,-173.5 318,-173.5 "/>
<text text-anchor="middle" x="167" y="-162.3" font-family="Times,serif" font-size="14.00">X₃ ∈ COMPLEX(X₁)</text>
<polyline fill="none" stroke="#7f7542" points="16,-158.5 318,-158.5 "/>
<text text-anchor="middle" x="167" y="-147.3" font-family="Times,serif" font-size="14.00">⇊</text>
<polyline fill="none" stroke="#7f7542" points="16,-143.5 318,-143.5 "/>
<text text-anchor="middle" x="167" y="-132.3" font-family="Times,serif" font-size="14.00">X₁ + X₂ + X₃ ∈ COMPLEX ∈ COMPLEX(X₁)</text>
</a>
</g>
</g>
<!-- dt_k15_seq_4&#45;&gt;c_0_85 -->
<g id="edge1" class="edge">
<title>dt_k15_seq_4&#45;&gt;c_0_85</title>
<path fill="none" stroke="black" d="M167,-240.43C167,-240.43 167,-213.67 167,-213.67"/>
<polygon fill="black" stroke="black" points="170.5,-213.67 167,-203.67 163.5,-213.67 170.5,-213.67"/>
</g>
<!-- c_0_104 -->
<g id="node3" class="node">
<title>c_0_104</title>
<g id="a_node3"><a xlink:href="c_0_104.html" xlink:title="{X₁ ∈ ℕ|X₂ ∈ COMPLEX(X₁)|X₃ ∈ COMPLEX(X₁)|⇊|X₁ + X₂ + X₃ ∈ COMPLEX(X₁)}" target="_parent">
<polygon fill="#f8edd1" stroke="#7f7542" points="63,-16.5 63,-91.5 271,-91.5 271,-16.5 63,-16.5"/>
<text text-anchor="middle" x="167" y="-80.3" font-family="Times,serif" font-size="14.00">X₁ ∈ ℕ</text>
<polyline fill="none" stroke="#7f7542" points="63,-76.5 271,-76.5 "/>
<text text-anchor="middle" x="167" y="-65.3" font-family="Times,serif" font-size="14.00">X₂ ∈ COMPLEX(X₁)</text>
<polyline fill="none" stroke="#7f7542" points="63,-61.5 271,-61.5 "/>
<text text-anchor="middle" x="167" y="-50.3" font-family="Times,serif" font-size="14.00">X₃ ∈ COMPLEX(X₁)</text>
<polyline fill="none" stroke="#7f7542" points="63,-46.5 271,-46.5 "/>
<text text-anchor="middle" x="167" y="-35.3" font-family="Times,serif" font-size="14.00">⇊</text>
<polyline fill="none" stroke="#7f7542" points="63,-31.5 271,-31.5 "/>
<text text-anchor="middle" x="167" y="-20.3" font-family="Times,serif" font-size="14.00">X₁ + X₂ + X₃ ∈ COMPLEX(X₁)</text>
</a>
</g>
</g>
<!-- c_0_85&#45;&gt;c_0_104 -->
<g id="edge2" class="edge">
<title>c_0_85&#45;&gt;c_0_104</title>
<path fill="none" stroke="black" stroke-dasharray="5,2" d="M167,-128.39C167,-128.39 167,-101.7 167,-101.7"/>
<polygon fill="black" stroke="black" points="170.5,-101.7 167,-91.7 163.5,-101.7 170.5,-101.7"/>
</g>
</g>
</svg>
