<?xml version="1.0" encoding="UTF-8" standalone="no"?>
<!DOCTYPE svg PUBLIC "-//W3C//DTD SVG 1.1//EN"
 "http://www.w3.org/Graphics/SVG/1.1/DTD/svg11.dtd">
<!-- Generated by graphviz version 5.0.0 (0)
 -->
<!-- Title: proof Pages: 1 -->
<svg width="960pt" height="595pt"
 viewBox="0.00 0.00 960.00 595.00" xmlns="http://www.w3.org/2000/svg" xmlns:xlink="http://www.w3.org/1999/xlink">
<g id="graph0" class="graph" transform="scale(1 1) rotate(0) translate(4 591)">
<title>proof</title>
<g id="clust1" class="cluster">
<title>cluster_0</title>
<polygon fill="transparent" stroke="black" stroke-dasharray="1,5" points="8,-427 8,-579 944,-579 944,-427 8,-427"/>
</g>
<g id="clust2" class="cluster">
<title>cluster_1</title>
<polygon fill="transparent" stroke="black" stroke-width="2" points="268,-225 268,-407 656,-407 656,-225 268,-225"/>
</g>
<g id="clust3" class="cluster">
<title>cluster_2</title>
<polygon fill="transparent" stroke="black" stroke-dasharray="1,5" points="256,-8 256,-205 668,-205 668,-8 256,-8"/>
</g>
<!-- c_0_34 -->
<g id="node1" class="node">
<title>c_0_34</title>
<g id="a_node1"><a xlink:href="c_0_34.html" xlink:title="{X₁ ∈ COMPLEX ∈ COMPLEX(X₂)|X₂ + X₄ + X₁ ∈ X₃|X₂ ∈ ℕ ⊆ ℝ|X₃ ∈ bool(COMPLEX(X₂))|X₄ ∈ COMPLEX ∈ COMPLEX(X₂)|closed(X₃,X₂)|⇊|X₄ ∈ X₃|sk₆(X₂,X₃,X₄) ≤ &#160;\|....\| X₁}" target="_parent">
<polygon fill="#f8edd1" stroke="#7f7542" points="706,-435.5 706,-570.5 936,-570.5 936,-435.5 706,-435.5"/>
<text text-anchor="middle" x="821" y="-559.3" font-family="Times,serif" font-size="14.00">X₁ ∈ COMPLEX ∈ COMPLEX(X₂)</text>
<polyline fill="none" stroke="#7f7542" points="706,-555.5 936,-555.5 "/>
<text text-anchor="middle" x="821" y="-544.3" font-family="Times,serif" font-size="14.00">X₂ + X₄ + X₁ ∈ X₃</text>
<polyline fill="none" stroke="#7f7542" points="706,-540.5 936,-540.5 "/>
<text text-anchor="middle" x="821" y="-529.3" font-family="Times,serif" font-size="14.00">X₂ ∈ ℕ ⊆ ℝ</text>
<polyline fill="none" stroke="#7f7542" points="706,-525.5 936,-525.5 "/>
<text text-anchor="middle" x="821" y="-514.3" font-family="Times,serif" font-size="14.00">X₃ ∈ bool(COMPLEX(X₂))</text>
<polyline fill="none" stroke="#7f7542" points="706,-510.5 936,-510.5 "/>
<text text-anchor="middle" x="821" y="-499.3" font-family="Times,serif" font-size="14.00">X₄ ∈ COMPLEX ∈ COMPLEX(X₂)</text>
<polyline fill="none" stroke="#7f7542" points="706,-495.5 936,-495.5 "/>
<text text-anchor="middle" x="821" y="-484.3" font-family="Times,serif" font-size="14.00">closed(X₃,X₂)</text>
<polyline fill="none" stroke="#7f7542" points="706,-480.5 936,-480.5 "/>
<text text-anchor="middle" x="821" y="-469.3" font-family="Times,serif" font-size="14.00">⇊</text>
<polyline fill="none" stroke="#7f7542" points="706,-465.5 936,-465.5 "/>
<text text-anchor="middle" x="821" y="-454.3" font-family="Times,serif" font-size="14.00">X₄ ∈ X₃</text>
<polyline fill="none" stroke="#7f7542" points="706,-450.5 936,-450.5 "/>
<text text-anchor="middle" x="821" y="-439.3" font-family="Times,serif" font-size="14.00">sk₆(X₂,X₃,X₄) ≤ |....| X₁</text>
</a>
</g>
</g>
<!-- c_0_41 -->
<g id="node5" class="node">
<title>c_0_41</title>
<g id="a_node5"><a xlink:href="c_0_41.html" xlink:title="{X₁ ∈ COMPLEX ∈ COMPLEX(X₅)|X₂ ∈ bool(COMPLEX(X₅))|X₃ ∈ bool(COMPLEX(X₄))|X₄ ∈ ℕ ⊆ ℝ|X₅ + X₁ + sk₅(X₄,X₃,sk₆(X₅,X₂,X₁)) ∈ X₂|X₅ ∈ ℕ ⊆ ℝ|closed(X₂,X₅)|sk₅(X₄,X₃,sk₆(X₅,X₂,X₁)) ∈ COMPLEX ∈ COMPLEX(X₅)|⇊|X₁ ∈ X₂|open(X₃,X₄)}" target="_parent">
<polygon fill="#f8edd1" stroke="#7f7542" points="276.5,-233.5 276.5,-398.5 647.5,-398.5 647.5,-233.5 276.5,-233.5"/>
<text text-anchor="middle" x="462" y="-387.3" font-family="Times,serif" font-size="14.00">X₁ ∈ COMPLEX ∈ COMPLEX(X₅)</text>
<polyline fill="none" stroke="#7f7542" points="276.5,-383.5 647.5,-383.5 "/>
<text text-anchor="middle" x="462" y="-372.3" font-family="Times,serif" font-size="14.00">X₂ ∈ bool(COMPLEX(X₅))</text>
<polyline fill="none" stroke="#7f7542" points="276.5,-368.5 647.5,-368.5 "/>
<text text-anchor="middle" x="462" y="-357.3" font-family="Times,serif" font-size="14.00">X₃ ∈ bool(COMPLEX(X₄))</text>
<polyline fill="none" stroke="#7f7542" points="276.5,-353.5 647.5,-353.5 "/>
<text text-anchor="middle" x="462" y="-342.3" font-family="Times,serif" font-size="14.00">X₄ ∈ ℕ ⊆ ℝ</text>
<polyline fill="none" stroke="#7f7542" points="276.5,-338.5 647.5,-338.5 "/>
<text text-anchor="middle" x="462" y="-327.3" font-family="Times,serif" font-size="14.00">X₅ + X₁ + sk₅(X₄,X₃,sk₆(X₅,X₂,X₁)) ∈ X₂</text>
<polyline fill="none" stroke="#7f7542" points="276.5,-323.5 647.5,-323.5 "/>
<text text-anchor="middle" x="462" y="-312.3" font-family="Times,serif" font-size="14.00">X₅ ∈ ℕ ⊆ ℝ</text>
<polyline fill="none" stroke="#7f7542" points="276.5,-308.5 647.5,-308.5 "/>
<text text-anchor="middle" x="462" y="-297.3" font-family="Times,serif" font-size="14.00">closed(X₂,X₅)</text>
<polyline fill="none" stroke="#7f7542" points="276.5,-293.5 647.5,-293.5 "/>
<text text-anchor="middle" x="462" y="-282.3" font-family="Times,serif" font-size="14.00">sk₅(X₄,X₃,sk₆(X₅,X₂,X₁)) ∈ COMPLEX ∈ COMPLEX(X₅)</text>
<polyline fill="none" stroke="#7f7542" points="276.5,-278.5 647.5,-278.5 "/>
<text text-anchor="middle" x="462" y="-267.3" font-family="Times,serif" font-size="14.00">⇊</text>
<polyline fill="none" stroke="#7f7542" points="276.5,-263.5 647.5,-263.5 "/>
<text text-anchor="middle" x="462" y="-252.3" font-family="Times,serif" font-size="14.00">X₁ ∈ X₂</text>
<polyline fill="none" stroke="#7f7542" points="276.5,-248.5 647.5,-248.5 "/>
<text text-anchor="middle" x="462" y="-237.3" font-family="Times,serif" font-size="14.00">open(X₃,X₄)</text>
</a>
</g>
</g>
<!-- c_0_34&#45;&gt;c_0_41 -->
<g id="edge1" class="edge">
<title>c_0_34&#45;&gt;c_0_41</title>
<path fill="none" stroke="black" d="M705.79,-442C645.6,-442 584.33,-442 584.33,-442 584.33,-442 584.33,-408.64 584.33,-408.64"/>
<polygon fill="black" stroke="black" points="587.83,-408.64 584.33,-398.64 580.83,-408.64 587.83,-408.64"/>
</g>
<!-- c_0_35 -->
<g id="node2" class="node">
<title>c_0_35</title>
<g id="a_node2"><a xlink:href="c_0_35.html" xlink:title="{X₁ ∈ ℕ ⊆ ℝ|X₂ ∈ bool(COMPLEX(X₁))|X₃ ∈ COMPLEX ∈ COMPLEX(X₁)|closed(X₂,X₁)|⇊|X₃ ∈ X₂|sk₆(X₁,X₂,X₃) ∈ ℝ}" target="_parent">
<polygon fill="#f8edd1" stroke="#7f7542" points="458,-450.5 458,-555.5 688,-555.5 688,-450.5 458,-450.5"/>
<text text-anchor="middle" x="573" y="-544.3" font-family="Times,serif" font-size="14.00">X₁ ∈ ℕ ⊆ ℝ</text>
<polyline fill="none" stroke="#7f7542" points="458,-540.5 688,-540.5 "/>
<text text-anchor="middle" x="573" y="-529.3" font-family="Times,serif" font-size="14.00">X₂ ∈ bool(COMPLEX(X₁))</text>
<polyline fill="none" stroke="#7f7542" points="458,-525.5 688,-525.5 "/>
<text text-anchor="middle" x="573" y="-514.3" font-family="Times,serif" font-size="14.00">X₃ ∈ COMPLEX ∈ COMPLEX(X₁)</text>
<polyline fill="none" stroke="#7f7542" points="458,-510.5 688,-510.5 "/>
<text text-anchor="middle" x="573" y="-499.3" font-family="Times,serif" font-size="14.00">closed(X₂,X₁)</text>
<polyline fill="none" stroke="#7f7542" points="458,-495.5 688,-495.5 "/>
<text text-anchor="middle" x="573" y="-484.3" font-family="Times,serif" font-size="14.00">⇊</text>
<polyline fill="none" stroke="#7f7542" points="458,-480.5 688,-480.5 "/>
<text text-anchor="middle" x="573" y="-469.3" font-family="Times,serif" font-size="14.00">X₃ ∈ X₂</text>
<polyline fill="none" stroke="#7f7542" points="458,-465.5 688,-465.5 "/>
<text text-anchor="middle" x="573" y="-454.3" font-family="Times,serif" font-size="14.00">sk₆(X₁,X₂,X₃) ∈ ℝ</text>
</a>
</g>
</g>
<!-- c_0_35&#45;&gt;c_0_41 -->
<g id="edge2" class="edge">
<title>c_0_35&#45;&gt;c_0_41</title>
<path fill="none" stroke="black" d="M521.17,-450.41C521.17,-450.41 521.17,-408.62 521.17,-408.62"/>
<polygon fill="black" stroke="black" points="524.67,-408.62 521.17,-398.62 517.67,-408.62 524.67,-408.62"/>
</g>
<!-- c_0_33 -->
<g id="node3" class="node">
<title>c_0_33</title>
<g id="a_node3"><a xlink:href="c_0_33.html" xlink:title="{X₁ ∈ ℝ|X₁ ≤ &#160;\|....\| sk₅(X₃,X₂,X₁)|X₂ ∈ bool(COMPLEX(X₃))|X₃ ∈ ℕ ⊆ ℝ|⇊|X₁ ≤ Ø|open(X₂,X₃)}" target="_parent">
<polygon fill="#f8edd1" stroke="#7f7542" points="264,-450.5 264,-555.5 440,-555.5 440,-450.5 264,-450.5"/>
<text text-anchor="middle" x="352" y="-544.3" font-family="Times,serif" font-size="14.00">X₁ ∈ ℝ</text>
<polyline fill="none" stroke="#7f7542" points="264,-540.5 440,-540.5 "/>
<text text-anchor="middle" x="352" y="-529.3" font-family="Times,serif" font-size="14.00">X₁ ≤ |....| sk₅(X₃,X₂,X₁)</text>
<polyline fill="none" stroke="#7f7542" points="264,-525.5 440,-525.5 "/>
<text text-anchor="middle" x="352" y="-514.3" font-family="Times,serif" font-size="14.00">X₂ ∈ bool(COMPLEX(X₃))</text>
<polyline fill="none" stroke="#7f7542" points="264,-510.5 440,-510.5 "/>
<text text-anchor="middle" x="352" y="-499.3" font-family="Times,serif" font-size="14.00">X₃ ∈ ℕ ⊆ ℝ</text>
<polyline fill="none" stroke="#7f7542" points="264,-495.5 440,-495.5 "/>
<text text-anchor="middle" x="352" y="-484.3" font-family="Times,serif" font-size="14.00">⇊</text>
<polyline fill="none" stroke="#7f7542" points="264,-480.5 440,-480.5 "/>
<text text-anchor="middle" x="352" y="-469.3" font-family="Times,serif" font-size="14.00">X₁ ≤ Ø</text>
<polyline fill="none" stroke="#7f7542" points="264,-465.5 440,-465.5 "/>
<text text-anchor="middle" x="352" y="-454.3" font-family="Times,serif" font-size="14.00">open(X₂,X₃)</text>
</a>
</g>
</g>
<!-- c_0_33&#45;&gt;c_0_41 -->
<g id="edge3" class="edge">
<title>c_0_33&#45;&gt;c_0_41</title>
<path fill="none" stroke="black" d="M358.25,-450.41C358.25,-450.41 358.25,-408.62 358.25,-408.62"/>
<polygon fill="black" stroke="black" points="361.75,-408.62 358.25,-398.62 354.75,-408.62 361.75,-408.62"/>
</g>
<!-- c_0_36 -->
<g id="node4" class="node">
<title>c_0_36</title>
<g id="a_node4"><a xlink:href="c_0_36.html" xlink:title="{X₁ ∈ COMPLEX ∈ COMPLEX(X₃)|X₂ ∈ bool(COMPLEX(X₃))|X₃ ∈ ℕ ⊆ ℝ|closed(X₂,X₃)|sk₆(X₃,X₂,X₁) ≤ Ø|⇊|X₁ ∈ X₂}" target="_parent">
<polygon fill="#f8edd1" stroke="#7f7542" points="16,-450.5 16,-555.5 246,-555.5 246,-450.5 16,-450.5"/>
<text text-anchor="middle" x="131" y="-544.3" font-family="Times,serif" font-size="14.00">X₁ ∈ COMPLEX ∈ COMPLEX(X₃)</text>
<polyline fill="none" stroke="#7f7542" points="16,-540.5 246,-540.5 "/>
<text text-anchor="middle" x="131" y="-529.3" font-family="Times,serif" font-size="14.00">X₂ ∈ bool(COMPLEX(X₃))</text>
<polyline fill="none" stroke="#7f7542" points="16,-525.5 246,-525.5 "/>
<text text-anchor="middle" x="131" y="-514.3" font-family="Times,serif" font-size="14.00">X₃ ∈ ℕ ⊆ ℝ</text>
<polyline fill="none" stroke="#7f7542" points="16,-510.5 246,-510.5 "/>
<text text-anchor="middle" x="131" y="-499.3" font-family="Times,serif" font-size="14.00">closed(X₂,X₃)</text>
<polyline fill="none" stroke="#7f7542" points="16,-495.5 246,-495.5 "/>
<text text-anchor="middle" x="131" y="-484.3" font-family="Times,serif" font-size="14.00">sk₆(X₃,X₂,X₁) ≤ Ø</text>
<polyline fill="none" stroke="#7f7542" points="16,-480.5 246,-480.5 "/>
<text text-anchor="middle" x="131" y="-469.3" font-family="Times,serif" font-size="14.00">⇊</text>
<polyline fill="none" stroke="#7f7542" points="16,-465.5 246,-465.5 "/>
<text text-anchor="middle" x="131" y="-454.3" font-family="Times,serif" font-size="14.00">X₁ ∈ X₂</text>
</a>
</g>
</g>
<!-- c_0_36&#45;&gt;c_0_41 -->
<g id="edge4" class="edge">
<title>c_0_36&#45;&gt;c_0_41</title>
<path fill="none" stroke="black" d="M131,-450.41C131,-395.1 131,-316 131,-316 131,-316 266.18,-316 266.18,-316"/>
<polygon fill="black" stroke="black" points="266.18,-319.5 276.18,-316 266.18,-312.5 266.18,-319.5"/>
</g>
<!-- c_0_48 -->
<g id="node6" class="node">
<title>c_0_48</title>
<g id="a_node6"><a xlink:href="c_0_48.html" xlink:title="{X₁ + X₂ + sk₅(X₃,X₄,sk₆(X₁,X₅ \ X₆,X₂)) ∈ X₅|X₁ ∈ ℕ ⊆ ℝ|X₂ ∈ COMPLEX ∈ COMPLEX(X₁)|X₃ ∈ ℕ ⊆ ℝ|X₄ ∈ bool(COMPLEX(X₃))|X₅ \ X₆ ∈ bool(COMPLEX(X₁))|closed(X₅ \ X₆,X₁)|sk₅(X₃,X₄,sk₆(X₁,X₅ \ X₆,X₂)) ∈ COMPLEX ∈ COMPLEX(X₁)|⇊|X₁ + X₂ + sk₅(X₃,X₄,sk₆(X₁,X₅ \ X₆,X₂)) ∈ X₆|X₂ ∈ X₅ \ X₆|open(X₄,X₃)}" target="_parent">
<polygon fill="#f8edd1" stroke="#7f7542" points="264.5,-16.5 264.5,-196.5 659.5,-196.5 659.5,-16.5 264.5,-16.5"/>
<text text-anchor="middle" x="462" y="-185.3" font-family="Times,serif" font-size="14.00">X₁ + X₂ + sk₅(X₃,X₄,sk₆(X₁,X₅ &#160;X₆,X₂)) ∈ X₅</text>
<polyline fill="none" stroke="#7f7542" points="264.5,-181.5 659.5,-181.5 "/>
<text text-anchor="middle" x="462" y="-170.3" font-family="Times,serif" font-size="14.00">X₁ ∈ ℕ ⊆ ℝ</text>
<polyline fill="none" stroke="#7f7542" points="264.5,-166.5 659.5,-166.5 "/>
<text text-anchor="middle" x="462" y="-155.3" font-family="Times,serif" font-size="14.00">X₂ ∈ COMPLEX ∈ COMPLEX(X₁)</text>
<polyline fill="none" stroke="#7f7542" points="264.5,-151.5 659.5,-151.5 "/>
<text text-anchor="middle" x="462" y="-140.3" font-family="Times,serif" font-size="14.00">X₃ ∈ ℕ ⊆ ℝ</text>
<polyline fill="none" stroke="#7f7542" points="264.5,-136.5 659.5,-136.5 "/>
<text text-anchor="middle" x="462" y="-125.3" font-family="Times,serif" font-size="14.00">X₄ ∈ bool(COMPLEX(X₃))</text>
<polyline fill="none" stroke="#7f7542" points="264.5,-121.5 659.5,-121.5 "/>
<text text-anchor="middle" x="462" y="-110.3" font-family="Times,serif" font-size="14.00">X₅ &#160;X₆ ∈ bool(COMPLEX(X₁))</text>
<polyline fill="none" stroke="#7f7542" points="264.5,-106.5 659.5,-106.5 "/>
<text text-anchor="middle" x="462" y="-95.3" font-family="Times,serif" font-size="14.00">closed(X₅ &#160;X₆,X₁)</text>
<polyline fill="none" stroke="#7f7542" points="264.5,-91.5 659.5,-91.5 "/>
<text text-anchor="middle" x="462" y="-80.3" font-family="Times,serif" font-size="14.00">sk₅(X₃,X₄,sk₆(X₁,X₅ &#160;X₆,X₂)) ∈ COMPLEX ∈ COMPLEX(X₁)</text>
<polyline fill="none" stroke="#7f7542" points="264.5,-76.5 659.5,-76.5 "/>
<text text-anchor="middle" x="462" y="-65.3" font-family="Times,serif" font-size="14.00">⇊</text>
<polyline fill="none" stroke="#7f7542" points="264.5,-61.5 659.5,-61.5 "/>
<text text-anchor="middle" x="462" y="-50.3" font-family="Times,serif" font-size="14.00">X₁ + X₂ + sk₅(X₃,X₄,sk₆(X₁,X₅ &#160;X₆,X₂)) ∈ X₆</text>
<polyline fill="none" stroke="#7f7542" points="264.5,-46.5 659.5,-46.5 "/>
<text text-anchor="middle" x="462" y="-35.3" font-family="Times,serif" font-size="14.00">X₂ ∈ X₅ &#160;X₆</text>
<polyline fill="none" stroke="#7f7542" points="264.5,-31.5 659.5,-31.5 "/>
<text text-anchor="middle" x="462" y="-20.3" font-family="Times,serif" font-size="14.00">open(X₄,X₃)</text>
</a>
</g>
</g>
<!-- c_0_41&#45;&gt;c_0_48 -->
<g id="edge5" class="edge">
<title>c_0_41&#45;&gt;c_0_48</title>
<path fill="none" stroke="black" stroke-dasharray="5,2" d="M462,-233.2C462,-233.2 462,-206.63 462,-206.63"/>
<polygon fill="black" stroke="black" points="465.5,-206.63 462,-196.63 458.5,-206.63 465.5,-206.63"/>
</g>
</g>
</svg>
