<?xml version="1.0" encoding="UTF-8" standalone="no"?>
<!DOCTYPE svg PUBLIC "-//W3C//DTD SVG 1.1//EN"
 "http://www.w3.org/Graphics/SVG/1.1/DTD/svg11.dtd">
<!-- Generated by graphviz version 5.0.0 (0)
 -->
<!-- Title: proof Pages: 1 -->
<svg width="1034pt" height="475pt"
 viewBox="0.00 0.00 1034.00 475.00" xmlns="http://www.w3.org/2000/svg" xmlns:xlink="http://www.w3.org/1999/xlink">
<g id="graph0" class="graph" transform="scale(1 1) rotate(0) translate(4 471)">
<title>proof</title>
<g id="clust1" class="cluster">
<title>cluster_0</title>
<polygon fill="transparent" stroke="black" stroke-dasharray="1,5" points="8,-307 8,-459 1018,-459 1018,-307 8,-307"/>
</g>
<g id="clust2" class="cluster">
<title>cluster_1</title>
<polygon fill="transparent" stroke="black" stroke-width="2" points="302,-150 302,-287 622,-287 622,-150 302,-150"/>
</g>
<g id="clust3" class="cluster">
<title>cluster_2</title>
<polygon fill="transparent" stroke="black" stroke-dasharray="1,5" points="345,-8 345,-130 579,-130 579,-8 345,-8"/>
</g>
<!-- c_0_132 -->
<g id="node1" class="node">
<title>c_0_132</title>
<g id="a_node1"><a xlink:href="c_0_132.html" xlink:title="{X₁ ∈ ℕ|X₁ ∈ ℕ ⊆ ℝ|X₂ ∈ bool(COMPLEX(X₁))|closed(X₂,X₁)|sk₄(X₁,COMPLEX(X₁) ` X₂) ∈ COMPLEX(X₁)|sk₆(X₁,X₂,sk₄(X₁,COMPLEX(X₁) ` X₂)) ∈ ℝ|⇊|open(COMPLEX(X₁) ` X₂,X₁)|sk₆(X₁,X₂,sk₄(X₁,COMPLEX(X₁) ` X₂)) ≤ Ø}" target="_parent">
<polygon fill="#f8edd1" stroke="#7f7542" points="706.5,-315.5 706.5,-450.5 1009.5,-450.5 1009.5,-315.5 706.5,-315.5"/>
<text text-anchor="middle" x="858" y="-439.3" font-family="Times,serif" font-size="14.00">X₁ ∈ ℕ</text>
<polyline fill="none" stroke="#7f7542" points="706.5,-435.5 1009.5,-435.5 "/>
<text text-anchor="middle" x="858" y="-424.3" font-family="Times,serif" font-size="14.00">X₁ ∈ ℕ ⊆ ℝ</text>
<polyline fill="none" stroke="#7f7542" points="706.5,-420.5 1009.5,-420.5 "/>
<text text-anchor="middle" x="858" y="-409.3" font-family="Times,serif" font-size="14.00">X₂ ∈ bool(COMPLEX(X₁))</text>
<polyline fill="none" stroke="#7f7542" points="706.5,-405.5 1009.5,-405.5 "/>
<text text-anchor="middle" x="858" y="-394.3" font-family="Times,serif" font-size="14.00">closed(X₂,X₁)</text>
<polyline fill="none" stroke="#7f7542" points="706.5,-390.5 1009.5,-390.5 "/>
<text text-anchor="middle" x="858" y="-379.3" font-family="Times,serif" font-size="14.00">sk₄(X₁,COMPLEX(X₁) ` X₂) ∈ COMPLEX(X₁)</text>
<polyline fill="none" stroke="#7f7542" points="706.5,-375.5 1009.5,-375.5 "/>
<text text-anchor="middle" x="858" y="-364.3" font-family="Times,serif" font-size="14.00">sk₆(X₁,X₂,sk₄(X₁,COMPLEX(X₁) ` X₂)) ∈ ℝ</text>
<polyline fill="none" stroke="#7f7542" points="706.5,-360.5 1009.5,-360.5 "/>
<text text-anchor="middle" x="858" y="-349.3" font-family="Times,serif" font-size="14.00">⇊</text>
<polyline fill="none" stroke="#7f7542" points="706.5,-345.5 1009.5,-345.5 "/>
<text text-anchor="middle" x="858" y="-334.3" font-family="Times,serif" font-size="14.00">open(COMPLEX(X₁) ` X₂,X₁)</text>
<polyline fill="none" stroke="#7f7542" points="706.5,-330.5 1009.5,-330.5 "/>
<text text-anchor="middle" x="858" y="-319.3" font-family="Times,serif" font-size="14.00">sk₆(X₁,X₂,sk₄(X₁,COMPLEX(X₁) ` X₂)) ≤ Ø</text>
</a>
</g>
</g>
<!-- c_0_137 -->
<g id="node5" class="node">
<title>c_0_137</title>
<g id="a_node5"><a xlink:href="c_0_137.html" xlink:title="{X₁ ∈ ℕ|X₁ ∈ ℕ ⊆ ℝ|X₂ ∈ bool(COMPLEX(X₁))|closed(X₂,X₁)|sk₄(X₁,COMPLEX(X₁) ` X₂) ∈ COMPLEX(X₁)|⇊|open(COMPLEX(X₁) ` X₂,X₁)|sk₄(X₁,COMPLEX(X₁) ` X₂) ∈ X₂}" target="_parent">
<polygon fill="#f8edd1" stroke="#7f7542" points="310.5,-158.5 310.5,-278.5 613.5,-278.5 613.5,-158.5 310.5,-158.5"/>
<text text-anchor="middle" x="462" y="-267.3" font-family="Times,serif" font-size="14.00">X₁ ∈ ℕ</text>
<polyline fill="none" stroke="#7f7542" points="310.5,-263.5 613.5,-263.5 "/>
<text text-anchor="middle" x="462" y="-252.3" font-family="Times,serif" font-size="14.00">X₁ ∈ ℕ ⊆ ℝ</text>
<polyline fill="none" stroke="#7f7542" points="310.5,-248.5 613.5,-248.5 "/>
<text text-anchor="middle" x="462" y="-237.3" font-family="Times,serif" font-size="14.00">X₂ ∈ bool(COMPLEX(X₁))</text>
<polyline fill="none" stroke="#7f7542" points="310.5,-233.5 613.5,-233.5 "/>
<text text-anchor="middle" x="462" y="-222.3" font-family="Times,serif" font-size="14.00">closed(X₂,X₁)</text>
<polyline fill="none" stroke="#7f7542" points="310.5,-218.5 613.5,-218.5 "/>
<text text-anchor="middle" x="462" y="-207.3" font-family="Times,serif" font-size="14.00">sk₄(X₁,COMPLEX(X₁) ` X₂) ∈ COMPLEX(X₁)</text>
<polyline fill="none" stroke="#7f7542" points="310.5,-203.5 613.5,-203.5 "/>
<text text-anchor="middle" x="462" y="-192.3" font-family="Times,serif" font-size="14.00">⇊</text>
<polyline fill="none" stroke="#7f7542" points="310.5,-188.5 613.5,-188.5 "/>
<text text-anchor="middle" x="462" y="-177.3" font-family="Times,serif" font-size="14.00">open(COMPLEX(X₁) ` X₂,X₁)</text>
<polyline fill="none" stroke="#7f7542" points="310.5,-173.5 613.5,-173.5 "/>
<text text-anchor="middle" x="462" y="-162.3" font-family="Times,serif" font-size="14.00">sk₄(X₁,COMPLEX(X₁) ` X₂) ∈ X₂</text>
</a>
</g>
</g>
<!-- c_0_132&#45;&gt;c_0_137 -->
<g id="edge1" class="edge">
<title>c_0_132&#45;&gt;c_0_137</title>
<path fill="none" stroke="black" d="M706.36,-318C633.45,-318 561.67,-318 561.67,-318 561.67,-318 561.67,-288.67 561.67,-288.67"/>
<polygon fill="black" stroke="black" points="565.17,-288.67 561.67,-278.67 558.17,-288.68 565.17,-288.67"/>
</g>
<!-- c_0_36 -->
<g id="node2" class="node">
<title>c_0_36</title>
<g id="a_node2"><a xlink:href="c_0_36.html" xlink:title="{X₁ ∈ COMPLEX ∈ COMPLEX(X₃)|X₂ ∈ bool(COMPLEX(X₃))|X₃ ∈ ℕ ⊆ ℝ|closed(X₂,X₃)|sk₆(X₃,X₂,X₁) ≤ Ø|⇊|X₁ ∈ X₂}" target="_parent">
<polygon fill="#f8edd1" stroke="#7f7542" points="458,-330.5 458,-435.5 688,-435.5 688,-330.5 458,-330.5"/>
<text text-anchor="middle" x="573" y="-424.3" font-family="Times,serif" font-size="14.00">X₁ ∈ COMPLEX ∈ COMPLEX(X₃)</text>
<polyline fill="none" stroke="#7f7542" points="458,-420.5 688,-420.5 "/>
<text text-anchor="middle" x="573" y="-409.3" font-family="Times,serif" font-size="14.00">X₂ ∈ bool(COMPLEX(X₃))</text>
<polyline fill="none" stroke="#7f7542" points="458,-405.5 688,-405.5 "/>
<text text-anchor="middle" x="573" y="-394.3" font-family="Times,serif" font-size="14.00">X₃ ∈ ℕ ⊆ ℝ</text>
<polyline fill="none" stroke="#7f7542" points="458,-390.5 688,-390.5 "/>
<text text-anchor="middle" x="573" y="-379.3" font-family="Times,serif" font-size="14.00">closed(X₂,X₃)</text>
<polyline fill="none" stroke="#7f7542" points="458,-375.5 688,-375.5 "/>
<text text-anchor="middle" x="573" y="-364.3" font-family="Times,serif" font-size="14.00">sk₆(X₃,X₂,X₁) ≤ Ø</text>
<polyline fill="none" stroke="#7f7542" points="458,-360.5 688,-360.5 "/>
<text text-anchor="middle" x="573" y="-349.3" font-family="Times,serif" font-size="14.00">⇊</text>
<polyline fill="none" stroke="#7f7542" points="458,-345.5 688,-345.5 "/>
<text text-anchor="middle" x="573" y="-334.3" font-family="Times,serif" font-size="14.00">X₁ ∈ X₂</text>
</a>
</g>
</g>
<!-- c_0_36&#45;&gt;c_0_137 -->
<g id="edge2" class="edge">
<title>c_0_36&#45;&gt;c_0_137</title>
<path fill="none" stroke="black" d="M509.83,-330.5C509.83,-330.5 509.83,-288.51 509.83,-288.51"/>
<polygon fill="black" stroke="black" points="513.33,-288.51 509.83,-278.51 506.33,-288.51 513.33,-288.51"/>
</g>
<!-- c_0_133 -->
<g id="node3" class="node">
<title>c_0_133</title>
<g id="a_node3"><a xlink:href="c_0_133.html" xlink:title="{X₁ ∈ COMPLEX(X₃)|X₂ ∈ bool(COMPLEX(X₃))|X₃ ∈ ℕ|X₃ ∈ ℕ ⊆ ℝ|closed(X₂,X₃)|⇊|X₁ ∈ X₂|sk₆(X₃,X₂,X₁) ∈ ℝ}" target="_parent">
<polygon fill="#f8edd1" stroke="#7f7542" points="264,-323 264,-443 440,-443 440,-323 264,-323"/>
<text text-anchor="middle" x="352" y="-431.8" font-family="Times,serif" font-size="14.00">X₁ ∈ COMPLEX(X₃)</text>
<polyline fill="none" stroke="#7f7542" points="264,-428 440,-428 "/>
<text text-anchor="middle" x="352" y="-416.8" font-family="Times,serif" font-size="14.00">X₂ ∈ bool(COMPLEX(X₃))</text>
<polyline fill="none" stroke="#7f7542" points="264,-413 440,-413 "/>
<text text-anchor="middle" x="352" y="-401.8" font-family="Times,serif" font-size="14.00">X₃ ∈ ℕ</text>
<polyline fill="none" stroke="#7f7542" points="264,-398 440,-398 "/>
<text text-anchor="middle" x="352" y="-386.8" font-family="Times,serif" font-size="14.00">X₃ ∈ ℕ ⊆ ℝ</text>
<polyline fill="none" stroke="#7f7542" points="264,-383 440,-383 "/>
<text text-anchor="middle" x="352" y="-371.8" font-family="Times,serif" font-size="14.00">closed(X₂,X₃)</text>
<polyline fill="none" stroke="#7f7542" points="264,-368 440,-368 "/>
<text text-anchor="middle" x="352" y="-356.8" font-family="Times,serif" font-size="14.00">⇊</text>
<polyline fill="none" stroke="#7f7542" points="264,-353 440,-353 "/>
<text text-anchor="middle" x="352" y="-341.8" font-family="Times,serif" font-size="14.00">X₁ ∈ X₂</text>
<polyline fill="none" stroke="#7f7542" points="264,-338 440,-338 "/>
<text text-anchor="middle" x="352" y="-326.8" font-family="Times,serif" font-size="14.00">sk₆(X₃,X₂,X₁) ∈ ℝ</text>
</a>
</g>
</g>
<!-- c_0_133&#45;&gt;c_0_137 -->
<g id="edge3" class="edge">
<title>c_0_133&#45;&gt;c_0_137</title>
<path fill="none" stroke="black" d="M375.25,-322.68C375.25,-322.68 375.25,-288.54 375.25,-288.54"/>
<polygon fill="black" stroke="black" points="378.75,-288.54 375.25,-278.54 371.75,-288.54 378.75,-288.54"/>
</g>
<!-- c_0_105 -->
<g id="node4" class="node">
<title>c_0_105</title>
<g id="a_node4"><a xlink:href="c_0_105.html" xlink:title="{X₁ ∈ COMPLEX(X₂)|X₂ ∈ ℕ|⇊|X₁ ∈ COMPLEX ∈ COMPLEX(X₂)}" target="_parent">
<polygon fill="#f8edd1" stroke="#7f7542" points="16,-353 16,-413 246,-413 246,-353 16,-353"/>
<text text-anchor="middle" x="131" y="-401.8" font-family="Times,serif" font-size="14.00">X₁ ∈ COMPLEX(X₂)</text>
<polyline fill="none" stroke="#7f7542" points="16,-398 246,-398 "/>
<text text-anchor="middle" x="131" y="-386.8" font-family="Times,serif" font-size="14.00">X₂ ∈ ℕ</text>
<polyline fill="none" stroke="#7f7542" points="16,-383 246,-383 "/>
<text text-anchor="middle" x="131" y="-371.8" font-family="Times,serif" font-size="14.00">⇊</text>
<polyline fill="none" stroke="#7f7542" points="16,-368 246,-368 "/>
<text text-anchor="middle" x="131" y="-356.8" font-family="Times,serif" font-size="14.00">X₁ ∈ COMPLEX ∈ COMPLEX(X₂)</text>
</a>
</g>
</g>
<!-- c_0_105&#45;&gt;c_0_137 -->
<g id="edge4" class="edge">
<title>c_0_105&#45;&gt;c_0_137</title>
<path fill="none" stroke="black" d="M131,-352.74C131,-305.1 131,-218 131,-218 131,-218 300.06,-218 300.06,-218"/>
<polygon fill="black" stroke="black" points="300.06,-221.5 310.06,-218 300.06,-214.5 300.06,-221.5"/>
</g>
<!-- c_0_141 -->
<g id="node6" class="node">
<title>c_0_141</title>
<g id="a_node6"><a xlink:href="c_0_141.html" xlink:title="{X₁ ∈ ℕ|X₁ ∈ ℕ ⊆ ℝ|X₂ ∈ bool(COMPLEX(X₁))|closed(X₂,X₁)|⇊|open(COMPLEX(X₁) ` X₂,X₁)|sk₄(X₁,COMPLEX(X₁) ` X₂) ∈ X₂}" target="_parent">
<polygon fill="#f8edd1" stroke="#7f7542" points="353.5,-16.5 353.5,-121.5 570.5,-121.5 570.5,-16.5 353.5,-16.5"/>
<text text-anchor="middle" x="462" y="-110.3" font-family="Times,serif" font-size="14.00">X₁ ∈ ℕ</text>
<polyline fill="none" stroke="#7f7542" points="353.5,-106.5 570.5,-106.5 "/>
<text text-anchor="middle" x="462" y="-95.3" font-family="Times,serif" font-size="14.00">X₁ ∈ ℕ ⊆ ℝ</text>
<polyline fill="none" stroke="#7f7542" points="353.5,-91.5 570.5,-91.5 "/>
<text text-anchor="middle" x="462" y="-80.3" font-family="Times,serif" font-size="14.00">X₂ ∈ bool(COMPLEX(X₁))</text>
<polyline fill="none" stroke="#7f7542" points="353.5,-76.5 570.5,-76.5 "/>
<text text-anchor="middle" x="462" y="-65.3" font-family="Times,serif" font-size="14.00">closed(X₂,X₁)</text>
<polyline fill="none" stroke="#7f7542" points="353.5,-61.5 570.5,-61.5 "/>
<text text-anchor="middle" x="462" y="-50.3" font-family="Times,serif" font-size="14.00">⇊</text>
<polyline fill="none" stroke="#7f7542" points="353.5,-46.5 570.5,-46.5 "/>
<text text-anchor="middle" x="462" y="-35.3" font-family="Times,serif" font-size="14.00">open(COMPLEX(X₁) ` X₂,X₁)</text>
<polyline fill="none" stroke="#7f7542" points="353.5,-31.5 570.5,-31.5 "/>
<text text-anchor="middle" x="462" y="-20.3" font-family="Times,serif" font-size="14.00">sk₄(X₁,COMPLEX(X₁) ` X₂) ∈ X₂</text>
</a>
</g>
</g>
<!-- c_0_137&#45;&gt;c_0_141 -->
<g id="edge5" class="edge">
<title>c_0_137&#45;&gt;c_0_141</title>
<path fill="none" stroke="black" stroke-dasharray="5,2" d="M462,-158.12C462,-158.12 462,-131.9 462,-131.9"/>
<polygon fill="black" stroke="black" points="465.5,-131.9 462,-121.9 458.5,-131.9 465.5,-131.9"/>
</g>
</g>
</svg>
