<?xml version="1.0" encoding="UTF-8" standalone="no"?>
<!DOCTYPE svg PUBLIC "-//W3C//DTD SVG 1.1//EN"
 "http://www.w3.org/Graphics/SVG/1.1/DTD/svg11.dtd">
<!-- Generated by graphviz version 5.0.0 (0)
 -->
<!-- Title: proof Pages: 1 -->
<svg width="524pt" height="355pt"
 viewBox="0.00 0.00 524.00 355.00" xmlns="http://www.w3.org/2000/svg" xmlns:xlink="http://www.w3.org/1999/xlink">
<g id="graph0" class="graph" transform="scale(1 1) rotate(0) translate(4 351)">
<title>proof</title>
<g id="clust1" class="cluster">
<title>cluster_0</title>
<polygon fill="transparent" stroke="black" stroke-dasharray="1,5" points="212,-307 212,-339 304,-339 304,-307 212,-307"/>
</g>
<g id="clust2" class="cluster">
<title>cluster_1</title>
<polygon fill="transparent" stroke="black" stroke-width="2" points="109,-195 109,-287 407,-287 407,-195 109,-195"/>
</g>
<g id="clust3" class="cluster">
<title>cluster_2</title>
<polygon fill="transparent" stroke="black" stroke-dasharray="1,5" points="8,-8 8,-175 508,-175 508,-8 8,-8"/>
</g>
<!-- d14_seq_4 -->
<g id="node1" class="node">
<title>d14_seq_4</title>
<g id="a_node1"><a xlink:href="d14_seq_4.html" xlink:title="d14_seq_4" target="_vizar">
<polygon fill="#69d2e7" stroke="#7f7542" points="220.5,-315.5 220.5,-330.5 295.5,-330.5 295.5,-315.5 220.5,-315.5"/>
<text text-anchor="middle" x="258" y="-319.3" font-family="Times,serif" font-size="14.00">d14_seq_4</text>
</a>
</g>
</g>
<!-- c_0_57 -->
<g id="node2" class="node">
<title>c_0_57</title>
<g id="a_node2"><a xlink:href="c_0_57.html" xlink:title="{X₁ ∈ ℕ ⊆ ℝ|X₂ ∈ bool(COMPLEX(X₁))|⇊|open(X₂,X₁)|sk₄(X₁,X₂) ∈ COMPLEX ∈ COMPLEX(X₁)}" target="_vizar">
<polygon fill="#f8edd1" stroke="#7f7542" points="117.5,-203.5 117.5,-278.5 398.5,-278.5 398.5,-203.5 117.5,-203.5"/>
<text text-anchor="middle" x="258" y="-267.3" font-family="Times,serif" font-size="14.00">X₁ ∈ ℕ ⊆ ℝ</text>
<polyline fill="none" stroke="#7f7542" points="117.5,-263.5 398.5,-263.5 "/>
<text text-anchor="middle" x="258" y="-252.3" font-family="Times,serif" font-size="14.00">X₂ ∈ bool(COMPLEX(X₁))</text>
<polyline fill="none" stroke="#7f7542" points="117.5,-248.5 398.5,-248.5 "/>
<text text-anchor="middle" x="258" y="-237.3" font-family="Times,serif" font-size="14.00">⇊</text>
<polyline fill="none" stroke="#7f7542" points="117.5,-233.5 398.5,-233.5 "/>
<text text-anchor="middle" x="258" y="-222.3" font-family="Times,serif" font-size="14.00">open(X₂,X₁)</text>
<polyline fill="none" stroke="#7f7542" points="117.5,-218.5 398.5,-218.5 "/>
<text text-anchor="middle" x="258" y="-207.3" font-family="Times,serif" font-size="14.00">sk₄(X₁,X₂) ∈ COMPLEX ∈ COMPLEX(X₁)</text>
</a>
</g>
</g>
<!-- d14_seq_4&#45;&gt;c_0_57 -->
<g id="edge1" class="edge">
<title>d14_seq_4&#45;&gt;c_0_57</title>
<path fill="none" stroke="black" d="M258,-315.43C258,-315.43 258,-288.67 258,-288.67"/>
<polygon fill="black" stroke="black" points="261.5,-288.67 258,-278.67 254.5,-288.67 261.5,-288.67"/>
</g>
<!-- c_0_69 -->
<g id="node3" class="node">
<title>c_0_69</title>
<g id="a_node3"><a xlink:href="c_0_69.html" xlink:title="{X₁ + sk₄(X₁,X₃ ` X₂) + sk₅(X₁,X₃ ` X₂,sk₆(X₁,X₂,sk₄(X₁,X₃ ` X₂))) ∈ X₃|X₁ ∈ ℕ ⊆ ℝ|X₂ ∈ bool(COMPLEX(X₁))|X₂ ∈ bool(X₃)|X₃ ` X₂ ∈ bool(COMPLEX(X₁))|closed(X₂,X₁)|sk₅(X₁,X₃ ` X₂,sk₆(X₁,X₂,sk₄(X₁,X₃ ` X₂))) ∈ COMPLEX ∈ COMPLEX(X₁)|⇊|open(X₃ ` X₂,X₁)|sk₆(X₁,X₂,sk₄(X₁,X₃ ` X₂)) ≤ Ø}" target="_vizar">
<polygon fill="#f8edd1" stroke="#7f7542" points="16,-16.5 16,-166.5 500,-166.5 500,-16.5 16,-16.5"/>
<text text-anchor="middle" x="258" y="-155.3" font-family="Times,serif" font-size="14.00">X₁ + sk₄(X₁,X₃ ` X₂) + sk₅(X₁,X₃ ` X₂,sk₆(X₁,X₂,sk₄(X₁,X₃ ` X₂))) ∈ X₃</text>
<polyline fill="none" stroke="#7f7542" points="16,-151.5 500,-151.5 "/>
<text text-anchor="middle" x="258" y="-140.3" font-family="Times,serif" font-size="14.00">X₁ ∈ ℕ ⊆ ℝ</text>
<polyline fill="none" stroke="#7f7542" points="16,-136.5 500,-136.5 "/>
<text text-anchor="middle" x="258" y="-125.3" font-family="Times,serif" font-size="14.00">X₂ ∈ bool(COMPLEX(X₁))</text>
<polyline fill="none" stroke="#7f7542" points="16,-121.5 500,-121.5 "/>
<text text-anchor="middle" x="258" y="-110.3" font-family="Times,serif" font-size="14.00">X₂ ∈ bool(X₃)</text>
<polyline fill="none" stroke="#7f7542" points="16,-106.5 500,-106.5 "/>
<text text-anchor="middle" x="258" y="-95.3" font-family="Times,serif" font-size="14.00">X₃ ` X₂ ∈ bool(COMPLEX(X₁))</text>
<polyline fill="none" stroke="#7f7542" points="16,-91.5 500,-91.5 "/>
<text text-anchor="middle" x="258" y="-80.3" font-family="Times,serif" font-size="14.00">closed(X₂,X₁)</text>
<polyline fill="none" stroke="#7f7542" points="16,-76.5 500,-76.5 "/>
<text text-anchor="middle" x="258" y="-65.3" font-family="Times,serif" font-size="14.00">sk₅(X₁,X₃ ` X₂,sk₆(X₁,X₂,sk₄(X₁,X₃ ` X₂))) ∈ COMPLEX ∈ COMPLEX(X₁)</text>
<polyline fill="none" stroke="#7f7542" points="16,-61.5 500,-61.5 "/>
<text text-anchor="middle" x="258" y="-50.3" font-family="Times,serif" font-size="14.00">⇊</text>
<polyline fill="none" stroke="#7f7542" points="16,-46.5 500,-46.5 "/>
<text text-anchor="middle" x="258" y="-35.3" font-family="Times,serif" font-size="14.00">open(X₃ ` X₂,X₁)</text>
<polyline fill="none" stroke="#7f7542" points="16,-31.5 500,-31.5 "/>
<text text-anchor="middle" x="258" y="-20.3" font-family="Times,serif" font-size="14.00">sk₆(X₁,X₂,sk₄(X₁,X₃ ` X₂)) ≤ Ø</text>
</a>
</g>
</g>
<!-- c_0_57&#45;&gt;c_0_69 -->
<g id="edge2" class="edge">
<title>c_0_57&#45;&gt;c_0_69</title>
<path fill="none" stroke="black" stroke-dasharray="5,2" d="M258,-203.27C258,-203.27 258,-176.54 258,-176.54"/>
<polygon fill="black" stroke="black" points="261.5,-176.54 258,-166.54 254.5,-176.54 261.5,-176.54"/>
</g>
</g>
</svg>
