<?xml version="1.0" encoding="UTF-8" standalone="no"?>
<!DOCTYPE svg PUBLIC "-//W3C//DTD SVG 1.1//EN"
 "http://www.w3.org/Graphics/SVG/1.1/DTD/svg11.dtd">
<!-- Generated by graphviz version 5.0.0 (0)
 -->
<!-- Title: proof Pages: 1 -->
<svg width="132pt" height="250pt"
 viewBox="0.00 0.00 132.00 250.00" xmlns="http://www.w3.org/2000/svg" xmlns:xlink="http://www.w3.org/1999/xlink">
<g id="graph0" class="graph" transform="scale(1 1) rotate(0) translate(4 246)">
<title>proof</title>
<g id="clust1" class="cluster">
<title>cluster_0</title>
<polygon fill="transparent" stroke="black" stroke-dasharray="1,5" points="10,-202 10,-234 114,-234 114,-202 10,-202"/>
</g>
<g id="clust2" class="cluster">
<title>cluster_1</title>
<polygon fill="transparent" stroke="black" stroke-width="2" points="16,-105 16,-182 108,-182 108,-105 16,-105"/>
</g>
<g id="clust3" class="cluster">
<title>cluster_2</title>
<polygon fill="transparent" stroke="black" stroke-dasharray="1,5" points="8,-8 8,-85 116,-85 116,-8 8,-8"/>
</g>
<!-- d5_xboole_0 -->
<g id="node1" class="node">
<title>d5_xboole_0</title>
<g id="a_node1"><a xlink:href="d5_xboole_0.html" xlink:title="d5_xboole_0" target="_parent">
<polygon fill="#69d2e7" stroke="#7f7542" points="18,-210.5 18,-225.5 106,-225.5 106,-210.5 18,-210.5"/>
<text text-anchor="middle" x="62" y="-214.3" font-family="Times,serif" font-size="14.00">d5_xboole_0</text>
</a>
</g>
</g>
<!-- c_0_89 -->
<g id="node2" class="node">
<title>c_0_89</title>
<g id="a_node2"><a xlink:href="c_0_89.html" xlink:title="{X₁ ∈ X₃|X₃ = X₂ \ X₄|⇊|X₁ ∈ X₂}" target="_parent">
<polygon fill="#f8edd1" stroke="#7f7542" points="24,-113.5 24,-173.5 100,-173.5 100,-113.5 24,-113.5"/>
<text text-anchor="middle" x="62" y="-162.3" font-family="Times,serif" font-size="14.00">X₁ ∈ X₃</text>
<polyline fill="none" stroke="#7f7542" points="24,-158.5 100,-158.5 "/>
<text text-anchor="middle" x="62" y="-147.3" font-family="Times,serif" font-size="14.00">X₃ = X₂ &#160;X₄</text>
<polyline fill="none" stroke="#7f7542" points="24,-143.5 100,-143.5 "/>
<text text-anchor="middle" x="62" y="-132.3" font-family="Times,serif" font-size="14.00">⇊</text>
<polyline fill="none" stroke="#7f7542" points="24,-128.5 100,-128.5 "/>
<text text-anchor="middle" x="62" y="-117.3" font-family="Times,serif" font-size="14.00">X₁ ∈ X₂</text>
</a>
</g>
</g>
<!-- d5_xboole_0&#45;&gt;c_0_89 -->
<g id="edge1" class="edge">
<title>d5_xboole_0&#45;&gt;c_0_89</title>
<path fill="none" stroke="black" d="M62,-210.31C62,-210.31 62,-183.51 62,-183.51"/>
<polygon fill="black" stroke="black" points="65.5,-183.51 62,-173.51 58.5,-183.51 65.5,-183.51"/>
</g>
<!-- c_0_108 -->
<g id="node3" class="node">
<title>c_0_108</title>
<g id="a_node3"><a xlink:href="c_0_108.html" xlink:title="{X₁ ∈ X₃|X₃ ∈ bool(X₂)|⇊|X₁ ∈ X₂}" target="_parent">
<polygon fill="#f8edd1" stroke="#7f7542" points="16.5,-16.5 16.5,-76.5 107.5,-76.5 107.5,-16.5 16.5,-16.5"/>
<text text-anchor="middle" x="62" y="-65.3" font-family="Times,serif" font-size="14.00">X₁ ∈ X₃</text>
<polyline fill="none" stroke="#7f7542" points="16.5,-61.5 107.5,-61.5 "/>
<text text-anchor="middle" x="62" y="-50.3" font-family="Times,serif" font-size="14.00">X₃ ∈ bool(X₂)</text>
<polyline fill="none" stroke="#7f7542" points="16.5,-46.5 107.5,-46.5 "/>
<text text-anchor="middle" x="62" y="-35.3" font-family="Times,serif" font-size="14.00">⇊</text>
<polyline fill="none" stroke="#7f7542" points="16.5,-31.5 107.5,-31.5 "/>
<text text-anchor="middle" x="62" y="-20.3" font-family="Times,serif" font-size="14.00">X₁ ∈ X₂</text>
</a>
</g>
</g>
<!-- c_0_89&#45;&gt;c_0_108 -->
<g id="edge2" class="edge">
<title>c_0_89&#45;&gt;c_0_108</title>
<path fill="none" stroke="black" stroke-dasharray="5,2" d="M62,-113.34C62,-113.34 62,-86.64 62,-86.64"/>
<polygon fill="black" stroke="black" points="65.5,-86.64 62,-76.64 58.5,-86.64 65.5,-86.64"/>
</g>
</g>
</svg>
