<?xml version="1.0" encoding="UTF-8" standalone="no"?>
<!DOCTYPE svg PUBLIC "-//W3C//DTD SVG 1.1//EN"
 "http://www.w3.org/Graphics/SVG/1.1/DTD/svg11.dtd">
<!-- Generated by graphviz version 5.0.0 (0)
 -->
<!-- Title: proof Pages: 1 -->
<svg width="1390pt" height="505pt"
 viewBox="0.00 0.00 1390.00 505.00" xmlns="http://www.w3.org/2000/svg" xmlns:xlink="http://www.w3.org/1999/xlink">
<g id="graph0" class="graph" transform="scale(1 1) rotate(0) translate(4 501)">
<title>proof</title>
<g id="clust1" class="cluster">
<title>cluster_0</title>
<polygon fill="transparent" stroke="black" stroke-dasharray="1,5" points="8,-337 8,-489 1374,-489 1374,-337 8,-337"/>
</g>
<g id="clust2" class="cluster">
<title>cluster_1</title>
<polygon fill="transparent" stroke="black" stroke-width="2" points="750,-165 750,-317 1070,-317 1070,-165 750,-165"/>
</g>
<g id="clust3" class="cluster">
<title>cluster_2</title>
<polygon fill="transparent" stroke="black" stroke-dasharray="1,5" points="750,-8 750,-145 1070,-145 1070,-8 750,-8"/>
</g>
<!-- c_0_40 -->
<g id="node1" class="node">
<title>c_0_40</title>
<g id="a_node1"><a xlink:href="c_0_40.html" xlink:title="{X₁ ∈ bool(X₂)|⇊|X₂ ` X₁ ∈ bool(X₂)}" target="_vizar">
<polygon fill="#f8edd1" stroke="#7f7542" points="1244.5,-390.5 1244.5,-435.5 1365.5,-435.5 1365.5,-390.5 1244.5,-390.5"/>
<text text-anchor="middle" x="1305" y="-424.3" font-family="Times,serif" font-size="14.00">X₁ ∈ bool(X₂)</text>
<polyline fill="none" stroke="#7f7542" points="1244.5,-420.5 1365.5,-420.5 "/>
<text text-anchor="middle" x="1305" y="-409.3" font-family="Times,serif" font-size="14.00">⇊</text>
<polyline fill="none" stroke="#7f7542" points="1244.5,-405.5 1365.5,-405.5 "/>
<text text-anchor="middle" x="1305" y="-394.3" font-family="Times,serif" font-size="14.00">X₂ ` X₁ ∈ bool(X₂)</text>
</a>
</g>
</g>
<!-- c_0_132 -->
<g id="node5" class="node">
<title>c_0_132</title>
<g id="a_node5"><a xlink:href="c_0_132.html" xlink:title="{X₁ ∈ ℕ|X₁ ∈ ℕ ⊆ ℝ|X₂ ∈ bool(COMPLEX(X₁))|closed(X₂,X₁)|sk₄(X₁,COMPLEX(X₁) ` X₂) ∈ COMPLEX(X₁)|sk₆(X₁,X₂,sk₄(X₁,COMPLEX(X₁) ` X₂)) ∈ ℝ|⇊|open(COMPLEX(X₁) ` X₂,X₁)|sk₆(X₁,X₂,sk₄(X₁,COMPLEX(X₁) ` X₂)) ≤ Ø}" target="_vizar">
<polygon fill="#f8edd1" stroke="#7f7542" points="758.5,-173.5 758.5,-308.5 1061.5,-308.5 1061.5,-173.5 758.5,-173.5"/>
<text text-anchor="middle" x="910" y="-297.3" font-family="Times,serif" font-size="14.00">X₁ ∈ ℕ</text>
<polyline fill="none" stroke="#7f7542" points="758.5,-293.5 1061.5,-293.5 "/>
<text text-anchor="middle" x="910" y="-282.3" font-family="Times,serif" font-size="14.00">X₁ ∈ ℕ ⊆ ℝ</text>
<polyline fill="none" stroke="#7f7542" points="758.5,-278.5 1061.5,-278.5 "/>
<text text-anchor="middle" x="910" y="-267.3" font-family="Times,serif" font-size="14.00">X₂ ∈ bool(COMPLEX(X₁))</text>
<polyline fill="none" stroke="#7f7542" points="758.5,-263.5 1061.5,-263.5 "/>
<text text-anchor="middle" x="910" y="-252.3" font-family="Times,serif" font-size="14.00">closed(X₂,X₁)</text>
<polyline fill="none" stroke="#7f7542" points="758.5,-248.5 1061.5,-248.5 "/>
<text text-anchor="middle" x="910" y="-237.3" font-family="Times,serif" font-size="14.00">sk₄(X₁,COMPLEX(X₁) ` X₂) ∈ COMPLEX(X₁)</text>
<polyline fill="none" stroke="#7f7542" points="758.5,-233.5 1061.5,-233.5 "/>
<text text-anchor="middle" x="910" y="-222.3" font-family="Times,serif" font-size="14.00">sk₆(X₁,X₂,sk₄(X₁,COMPLEX(X₁) ` X₂)) ∈ ℝ</text>
<polyline fill="none" stroke="#7f7542" points="758.5,-218.5 1061.5,-218.5 "/>
<text text-anchor="middle" x="910" y="-207.3" font-family="Times,serif" font-size="14.00">⇊</text>
<polyline fill="none" stroke="#7f7542" points="758.5,-203.5 1061.5,-203.5 "/>
<text text-anchor="middle" x="910" y="-192.3" font-family="Times,serif" font-size="14.00">open(COMPLEX(X₁) ` X₂,X₁)</text>
<polyline fill="none" stroke="#7f7542" points="758.5,-188.5 1061.5,-188.5 "/>
<text text-anchor="middle" x="910" y="-177.3" font-family="Times,serif" font-size="14.00">sk₆(X₁,X₂,sk₄(X₁,COMPLEX(X₁) ` X₂)) ≤ Ø</text>
</a>
</g>
</g>
<!-- c_0_40&#45;&gt;c_0_132 -->
<g id="edge1" class="edge">
<title>c_0_40&#45;&gt;c_0_132</title>
<path fill="none" stroke="black" d="M1305,-390.16C1305,-343.37 1305,-241 1305,-241 1305,-241 1071.59,-241 1071.59,-241"/>
<polygon fill="black" stroke="black" points="1071.59,-237.5 1061.59,-241 1071.59,-244.5 1071.59,-237.5"/>
</g>
<!-- c_0_125 -->
<g id="node2" class="node">
<title>c_0_125</title>
<g id="a_node2"><a xlink:href="c_0_125.html" xlink:title="{FinSequenceSet(COMPLEX(X₃),COMPLEX)|X₁ ∈ ℝ|X₂ ∈ bool(COMPLEX(X₃))|X₃ ∈ ℕ ⊆ ℝ|⇊|X₁ ≤ Ø|open(X₂,X₃)|sk₅(X₃,X₂,X₁) ∈ COMPLEX(X₃)}" target="_vizar">
<polygon fill="#f8edd1" stroke="#7f7542" points="919.5,-353 919.5,-473 1226.5,-473 1226.5,-353 919.5,-353"/>
<text text-anchor="middle" x="1073" y="-461.8" font-family="Times,serif" font-size="14.00">FinSequenceSet(COMPLEX(X₃),COMPLEX)</text>
<polyline fill="none" stroke="#7f7542" points="919.5,-458 1226.5,-458 "/>
<text text-anchor="middle" x="1073" y="-446.8" font-family="Times,serif" font-size="14.00">X₁ ∈ ℝ</text>
<polyline fill="none" stroke="#7f7542" points="919.5,-443 1226.5,-443 "/>
<text text-anchor="middle" x="1073" y="-431.8" font-family="Times,serif" font-size="14.00">X₂ ∈ bool(COMPLEX(X₃))</text>
<polyline fill="none" stroke="#7f7542" points="919.5,-428 1226.5,-428 "/>
<text text-anchor="middle" x="1073" y="-416.8" font-family="Times,serif" font-size="14.00">X₃ ∈ ℕ ⊆ ℝ</text>
<polyline fill="none" stroke="#7f7542" points="919.5,-413 1226.5,-413 "/>
<text text-anchor="middle" x="1073" y="-401.8" font-family="Times,serif" font-size="14.00">⇊</text>
<polyline fill="none" stroke="#7f7542" points="919.5,-398 1226.5,-398 "/>
<text text-anchor="middle" x="1073" y="-386.8" font-family="Times,serif" font-size="14.00">X₁ ≤ Ø</text>
<polyline fill="none" stroke="#7f7542" points="919.5,-383 1226.5,-383 "/>
<text text-anchor="middle" x="1073" y="-371.8" font-family="Times,serif" font-size="14.00">open(X₂,X₃)</text>
<polyline fill="none" stroke="#7f7542" points="919.5,-368 1226.5,-368 "/>
<text text-anchor="middle" x="1073" y="-356.8" font-family="Times,serif" font-size="14.00">sk₅(X₃,X₂,X₁) ∈ COMPLEX(X₃)</text>
</a>
</g>
</g>
<!-- c_0_125&#45;&gt;c_0_132 -->
<g id="edge2" class="edge">
<title>c_0_125&#45;&gt;c_0_132</title>
<path fill="none" stroke="black" d="M990.5,-352.84C990.5,-352.84 990.5,-318.77 990.5,-318.77"/>
<polygon fill="black" stroke="black" points="994,-318.77 990.5,-308.77 987,-318.77 994,-318.77"/>
</g>
<!-- c_0_86 -->
<g id="node3" class="node">
<title>c_0_86</title>
<g id="a_node3"><a xlink:href="c_0_86.html" xlink:title="{X₁ ∈ ℕ|⇊|FinSequenceSet(COMPLEX(X₁),COMPLEX)}" target="_vizar">
<polygon fill="#f8edd1" stroke="#7f7542" points="594.5,-390.5 594.5,-435.5 901.5,-435.5 901.5,-390.5 594.5,-390.5"/>
<text text-anchor="middle" x="748" y="-424.3" font-family="Times,serif" font-size="14.00">X₁ ∈ ℕ</text>
<polyline fill="none" stroke="#7f7542" points="594.5,-420.5 901.5,-420.5 "/>
<text text-anchor="middle" x="748" y="-409.3" font-family="Times,serif" font-size="14.00">⇊</text>
<polyline fill="none" stroke="#7f7542" points="594.5,-405.5 901.5,-405.5 "/>
<text text-anchor="middle" x="748" y="-394.3" font-family="Times,serif" font-size="14.00">FinSequenceSet(COMPLEX(X₁),COMPLEX)</text>
</a>
</g>
</g>
<!-- c_0_86&#45;&gt;c_0_132 -->
<g id="edge3" class="edge">
<title>c_0_86&#45;&gt;c_0_132</title>
<path fill="none" stroke="black" d="M853.83,-390.16C853.83,-390.16 853.83,-318.54 853.83,-318.54"/>
<polygon fill="black" stroke="black" points="857.33,-318.54 853.83,-308.54 850.33,-318.54 857.33,-318.54"/>
</g>
<!-- c_0_124 -->
<g id="node4" class="node">
<title>c_0_124</title>
<g id="a_node4"><a xlink:href="c_0_124.html" xlink:title="{X₁ ∈ ℕ|X₁ ∈ ℕ ⊆ ℝ|X₂ ∈ bool(COMPLEX(X₁))|closed(X₂,X₁)|sk₄(X₁,COMPLEX(X₁) ` X₂) ∈ COMPLEX(X₁)|sk₅(X₁,COMPLEX(X₁) ` X₂,sk₆(X₁,X₂,sk₄(X₁,COMPLEX(X₁) ` X₂))) ∈ COMPLEX(X₁)|⇊|open(COMPLEX(X₁) ` X₂,X₁)|sk₆(X₁,X₂,sk₄(X₁,COMPLEX(X₁) ` X₂)) ≤ Ø}" target="_vizar">
<polygon fill="#f8edd1" stroke="#7f7542" points="16,-345.5 16,-480.5 576,-480.5 576,-345.5 16,-345.5"/>
<text text-anchor="middle" x="296" y="-469.3" font-family="Times,serif" font-size="14.00">X₁ ∈ ℕ</text>
<polyline fill="none" stroke="#7f7542" points="16,-465.5 576,-465.5 "/>
<text text-anchor="middle" x="296" y="-454.3" font-family="Times,serif" font-size="14.00">X₁ ∈ ℕ ⊆ ℝ</text>
<polyline fill="none" stroke="#7f7542" points="16,-450.5 576,-450.5 "/>
<text text-anchor="middle" x="296" y="-439.3" font-family="Times,serif" font-size="14.00">X₂ ∈ bool(COMPLEX(X₁))</text>
<polyline fill="none" stroke="#7f7542" points="16,-435.5 576,-435.5 "/>
<text text-anchor="middle" x="296" y="-424.3" font-family="Times,serif" font-size="14.00">closed(X₂,X₁)</text>
<polyline fill="none" stroke="#7f7542" points="16,-420.5 576,-420.5 "/>
<text text-anchor="middle" x="296" y="-409.3" font-family="Times,serif" font-size="14.00">sk₄(X₁,COMPLEX(X₁) ` X₂) ∈ COMPLEX(X₁)</text>
<polyline fill="none" stroke="#7f7542" points="16,-405.5 576,-405.5 "/>
<text text-anchor="middle" x="296" y="-394.3" font-family="Times,serif" font-size="14.00">sk₅(X₁,COMPLEX(X₁) ` X₂,sk₆(X₁,X₂,sk₄(X₁,COMPLEX(X₁) ` X₂))) ∈ COMPLEX(X₁)</text>
<polyline fill="none" stroke="#7f7542" points="16,-390.5 576,-390.5 "/>
<text text-anchor="middle" x="296" y="-379.3" font-family="Times,serif" font-size="14.00">⇊</text>
<polyline fill="none" stroke="#7f7542" points="16,-375.5 576,-375.5 "/>
<text text-anchor="middle" x="296" y="-364.3" font-family="Times,serif" font-size="14.00">open(COMPLEX(X₁) ` X₂,X₁)</text>
<polyline fill="none" stroke="#7f7542" points="16,-360.5 576,-360.5 "/>
<text text-anchor="middle" x="296" y="-349.3" font-family="Times,serif" font-size="14.00">sk₆(X₁,X₂,sk₄(X₁,COMPLEX(X₁) ` X₂)) ≤ Ø</text>
</a>
</g>
</g>
<!-- c_0_124&#45;&gt;c_0_132 -->
<g id="edge4" class="edge">
<title>c_0_124&#45;&gt;c_0_132</title>
<path fill="none" stroke="black" d="M576.08,-348C694.77,-348 806.17,-348 806.17,-348 806.17,-348 806.17,-318.76 806.17,-318.76"/>
<polygon fill="black" stroke="black" points="809.67,-318.76 806.17,-308.76 802.67,-318.76 809.67,-318.76"/>
</g>
<!-- c_0_137 -->
<g id="node6" class="node">
<title>c_0_137</title>
<g id="a_node6"><a xlink:href="c_0_137.html" xlink:title="{X₁ ∈ ℕ|X₁ ∈ ℕ ⊆ ℝ|X₂ ∈ bool(COMPLEX(X₁))|closed(X₂,X₁)|sk₄(X₁,COMPLEX(X₁) ` X₂) ∈ COMPLEX(X₁)|⇊|open(COMPLEX(X₁) ` X₂,X₁)|sk₄(X₁,COMPLEX(X₁) ` X₂) ∈ X₂}" target="_vizar">
<polygon fill="#f8edd1" stroke="#7f7542" points="758.5,-16.5 758.5,-136.5 1061.5,-136.5 1061.5,-16.5 758.5,-16.5"/>
<text text-anchor="middle" x="910" y="-125.3" font-family="Times,serif" font-size="14.00">X₁ ∈ ℕ</text>
<polyline fill="none" stroke="#7f7542" points="758.5,-121.5 1061.5,-121.5 "/>
<text text-anchor="middle" x="910" y="-110.3" font-family="Times,serif" font-size="14.00">X₁ ∈ ℕ ⊆ ℝ</text>
<polyline fill="none" stroke="#7f7542" points="758.5,-106.5 1061.5,-106.5 "/>
<text text-anchor="middle" x="910" y="-95.3" font-family="Times,serif" font-size="14.00">X₂ ∈ bool(COMPLEX(X₁))</text>
<polyline fill="none" stroke="#7f7542" points="758.5,-91.5 1061.5,-91.5 "/>
<text text-anchor="middle" x="910" y="-80.3" font-family="Times,serif" font-size="14.00">closed(X₂,X₁)</text>
<polyline fill="none" stroke="#7f7542" points="758.5,-76.5 1061.5,-76.5 "/>
<text text-anchor="middle" x="910" y="-65.3" font-family="Times,serif" font-size="14.00">sk₄(X₁,COMPLEX(X₁) ` X₂) ∈ COMPLEX(X₁)</text>
<polyline fill="none" stroke="#7f7542" points="758.5,-61.5 1061.5,-61.5 "/>
<text text-anchor="middle" x="910" y="-50.3" font-family="Times,serif" font-size="14.00">⇊</text>
<polyline fill="none" stroke="#7f7542" points="758.5,-46.5 1061.5,-46.5 "/>
<text text-anchor="middle" x="910" y="-35.3" font-family="Times,serif" font-size="14.00">open(COMPLEX(X₁) ` X₂,X₁)</text>
<polyline fill="none" stroke="#7f7542" points="758.5,-31.5 1061.5,-31.5 "/>
<text text-anchor="middle" x="910" y="-20.3" font-family="Times,serif" font-size="14.00">sk₄(X₁,COMPLEX(X₁) ` X₂) ∈ X₂</text>
</a>
</g>
</g>
<!-- c_0_132&#45;&gt;c_0_137 -->
<g id="edge5" class="edge">
<title>c_0_132&#45;&gt;c_0_137</title>
<path fill="none" stroke="black" stroke-dasharray="5,2" d="M910,-173.14C910,-173.14 910,-146.57 910,-146.57"/>
<polygon fill="black" stroke="black" points="913.5,-146.57 910,-136.57 906.5,-146.57 913.5,-146.57"/>
</g>
</g>
</svg>
