<?xml version="1.0" encoding="UTF-8" standalone="no"?>
<!DOCTYPE svg PUBLIC "-//W3C//DTD SVG 1.1//EN"
 "http://www.w3.org/Graphics/SVG/1.1/DTD/svg11.dtd">
<!-- Generated by graphviz version 5.0.0 (0)
 -->
<!-- Title: proof Pages: 1 -->
<svg width="504pt" height="655pt"
 viewBox="0.00 0.00 504.00 655.00" xmlns="http://www.w3.org/2000/svg" xmlns:xlink="http://www.w3.org/1999/xlink">
<g id="graph0" class="graph" transform="scale(1 1) rotate(0) translate(4 651)">
<title>proof</title>
<g id="clust1" class="cluster">
<title>cluster_0</title>
<polygon fill="transparent" stroke="black" stroke-dasharray="1,5" points="8,-457 8,-639 488,-639 488,-457 8,-457"/>
</g>
<g id="clust2" class="cluster">
<title>cluster_1</title>
<polygon fill="transparent" stroke="black" stroke-width="2" points="39,-240 39,-437 451,-437 451,-240 39,-240"/>
</g>
<g id="clust3" class="cluster">
<title>cluster_2</title>
<polygon fill="transparent" stroke="black" stroke-dasharray="1,5" points="51,-8 51,-220 439,-220 439,-8 51,-8"/>
</g>
<!-- c_0_42 -->
<g id="node1" class="node">
<title>c_0_42</title>
<g id="a_node1"><a xlink:href="c_0_42.html" xlink:title="{X₁ ∈ X₂|⇊|X₁ ∈ X₂ \ X₃|X₁ ∈ X₃}" target="_vizar">
<polygon fill="#f8edd1" stroke="#7f7542" points="406,-518 406,-578 480,-578 480,-518 406,-518"/>
<text text-anchor="middle" x="443" y="-566.8" font-family="Times,serif" font-size="14.00">X₁ ∈ X₂</text>
<polyline fill="none" stroke="#7f7542" points="406,-563 480,-563 "/>
<text text-anchor="middle" x="443" y="-551.8" font-family="Times,serif" font-size="14.00">⇊</text>
<polyline fill="none" stroke="#7f7542" points="406,-548 480,-548 "/>
<text text-anchor="middle" x="443" y="-536.8" font-family="Times,serif" font-size="14.00">X₁ ∈ X₂ &#160;X₃</text>
<polyline fill="none" stroke="#7f7542" points="406,-533 480,-533 "/>
<text text-anchor="middle" x="443" y="-521.8" font-family="Times,serif" font-size="14.00">X₁ ∈ X₃</text>
</a>
</g>
</g>
<!-- c_0_48 -->
<g id="node3" class="node">
<title>c_0_48</title>
<g id="a_node3"><a xlink:href="c_0_48.html" xlink:title="{X₁ + X₂ + sk₅(X₃,X₄,sk₆(X₁,X₅ \ X₆,X₂)) ∈ X₅|X₁ ∈ ℕ ⊆ ℝ|X₂ ∈ COMPLEX ∈ COMPLEX(X₁)|X₃ ∈ ℕ ⊆ ℝ|X₄ ∈ bool(COMPLEX(X₃))|X₅ \ X₆ ∈ bool(COMPLEX(X₁))|closed(X₅ \ X₆,X₁)|sk₅(X₃,X₄,sk₆(X₁,X₅ \ X₆,X₂)) ∈ COMPLEX ∈ COMPLEX(X₁)|⇊|X₁ + X₂ + sk₅(X₃,X₄,sk₆(X₁,X₅ \ X₆,X₂)) ∈ X₆|X₂ ∈ X₅ \ X₆|open(X₄,X₃)}" target="_vizar">
<polygon fill="#f8edd1" stroke="#7f7542" points="47.5,-248.5 47.5,-428.5 442.5,-428.5 442.5,-248.5 47.5,-248.5"/>
<text text-anchor="middle" x="245" y="-417.3" font-family="Times,serif" font-size="14.00">X₁ + X₂ + sk₅(X₃,X₄,sk₆(X₁,X₅ &#160;X₆,X₂)) ∈ X₅</text>
<polyline fill="none" stroke="#7f7542" points="47.5,-413.5 442.5,-413.5 "/>
<text text-anchor="middle" x="245" y="-402.3" font-family="Times,serif" font-size="14.00">X₁ ∈ ℕ ⊆ ℝ</text>
<polyline fill="none" stroke="#7f7542" points="47.5,-398.5 442.5,-398.5 "/>
<text text-anchor="middle" x="245" y="-387.3" font-family="Times,serif" font-size="14.00">X₂ ∈ COMPLEX ∈ COMPLEX(X₁)</text>
<polyline fill="none" stroke="#7f7542" points="47.5,-383.5 442.5,-383.5 "/>
<text text-anchor="middle" x="245" y="-372.3" font-family="Times,serif" font-size="14.00">X₃ ∈ ℕ ⊆ ℝ</text>
<polyline fill="none" stroke="#7f7542" points="47.5,-368.5 442.5,-368.5 "/>
<text text-anchor="middle" x="245" y="-357.3" font-family="Times,serif" font-size="14.00">X₄ ∈ bool(COMPLEX(X₃))</text>
<polyline fill="none" stroke="#7f7542" points="47.5,-353.5 442.5,-353.5 "/>
<text text-anchor="middle" x="245" y="-342.3" font-family="Times,serif" font-size="14.00">X₅ &#160;X₆ ∈ bool(COMPLEX(X₁))</text>
<polyline fill="none" stroke="#7f7542" points="47.5,-338.5 442.5,-338.5 "/>
<text text-anchor="middle" x="245" y="-327.3" font-family="Times,serif" font-size="14.00">closed(X₅ &#160;X₆,X₁)</text>
<polyline fill="none" stroke="#7f7542" points="47.5,-323.5 442.5,-323.5 "/>
<text text-anchor="middle" x="245" y="-312.3" font-family="Times,serif" font-size="14.00">sk₅(X₃,X₄,sk₆(X₁,X₅ &#160;X₆,X₂)) ∈ COMPLEX ∈ COMPLEX(X₁)</text>
<polyline fill="none" stroke="#7f7542" points="47.5,-308.5 442.5,-308.5 "/>
<text text-anchor="middle" x="245" y="-297.3" font-family="Times,serif" font-size="14.00">⇊</text>
<polyline fill="none" stroke="#7f7542" points="47.5,-293.5 442.5,-293.5 "/>
<text text-anchor="middle" x="245" y="-282.3" font-family="Times,serif" font-size="14.00">X₁ + X₂ + sk₅(X₃,X₄,sk₆(X₁,X₅ &#160;X₆,X₂)) ∈ X₆</text>
<polyline fill="none" stroke="#7f7542" points="47.5,-278.5 442.5,-278.5 "/>
<text text-anchor="middle" x="245" y="-267.3" font-family="Times,serif" font-size="14.00">X₂ ∈ X₅ &#160;X₆</text>
<polyline fill="none" stroke="#7f7542" points="47.5,-263.5 442.5,-263.5 "/>
<text text-anchor="middle" x="245" y="-252.3" font-family="Times,serif" font-size="14.00">open(X₄,X₃)</text>
</a>
</g>
</g>
<!-- c_0_42&#45;&gt;c_0_48 -->
<g id="edge1" class="edge">
<title>c_0_42&#45;&gt;c_0_48</title>
<path fill="none" stroke="black" d="M424.25,-517.98C424.25,-517.98 424.25,-438.76 424.25,-438.76"/>
<polygon fill="black" stroke="black" points="427.75,-438.76 424.25,-428.76 420.75,-438.76 427.75,-438.76"/>
</g>
<!-- c_0_41 -->
<g id="node2" class="node">
<title>c_0_41</title>
<g id="a_node2"><a xlink:href="c_0_41.html" xlink:title="{X₁ ∈ COMPLEX ∈ COMPLEX(X₅)|X₂ ∈ bool(COMPLEX(X₅))|X₃ ∈ bool(COMPLEX(X₄))|X₄ ∈ ℕ ⊆ ℝ|X₅ + X₁ + sk₅(X₄,X₃,sk₆(X₅,X₂,X₁)) ∈ X₂|X₅ ∈ ℕ ⊆ ℝ|closed(X₂,X₅)|sk₅(X₄,X₃,sk₆(X₅,X₂,X₁)) ∈ COMPLEX ∈ COMPLEX(X₅)|⇊|X₁ ∈ X₂|open(X₃,X₄)}" target="_vizar">
<polygon fill="#f8edd1" stroke="#7f7542" points="16.5,-465.5 16.5,-630.5 387.5,-630.5 387.5,-465.5 16.5,-465.5"/>
<text text-anchor="middle" x="202" y="-619.3" font-family="Times,serif" font-size="14.00">X₁ ∈ COMPLEX ∈ COMPLEX(X₅)</text>
<polyline fill="none" stroke="#7f7542" points="16.5,-615.5 387.5,-615.5 "/>
<text text-anchor="middle" x="202" y="-604.3" font-family="Times,serif" font-size="14.00">X₂ ∈ bool(COMPLEX(X₅))</text>
<polyline fill="none" stroke="#7f7542" points="16.5,-600.5 387.5,-600.5 "/>
<text text-anchor="middle" x="202" y="-589.3" font-family="Times,serif" font-size="14.00">X₃ ∈ bool(COMPLEX(X₄))</text>
<polyline fill="none" stroke="#7f7542" points="16.5,-585.5 387.5,-585.5 "/>
<text text-anchor="middle" x="202" y="-574.3" font-family="Times,serif" font-size="14.00">X₄ ∈ ℕ ⊆ ℝ</text>
<polyline fill="none" stroke="#7f7542" points="16.5,-570.5 387.5,-570.5 "/>
<text text-anchor="middle" x="202" y="-559.3" font-family="Times,serif" font-size="14.00">X₅ + X₁ + sk₅(X₄,X₃,sk₆(X₅,X₂,X₁)) ∈ X₂</text>
<polyline fill="none" stroke="#7f7542" points="16.5,-555.5 387.5,-555.5 "/>
<text text-anchor="middle" x="202" y="-544.3" font-family="Times,serif" font-size="14.00">X₅ ∈ ℕ ⊆ ℝ</text>
<polyline fill="none" stroke="#7f7542" points="16.5,-540.5 387.5,-540.5 "/>
<text text-anchor="middle" x="202" y="-529.3" font-family="Times,serif" font-size="14.00">closed(X₂,X₅)</text>
<polyline fill="none" stroke="#7f7542" points="16.5,-525.5 387.5,-525.5 "/>
<text text-anchor="middle" x="202" y="-514.3" font-family="Times,serif" font-size="14.00">sk₅(X₄,X₃,sk₆(X₅,X₂,X₁)) ∈ COMPLEX ∈ COMPLEX(X₅)</text>
<polyline fill="none" stroke="#7f7542" points="16.5,-510.5 387.5,-510.5 "/>
<text text-anchor="middle" x="202" y="-499.3" font-family="Times,serif" font-size="14.00">⇊</text>
<polyline fill="none" stroke="#7f7542" points="16.5,-495.5 387.5,-495.5 "/>
<text text-anchor="middle" x="202" y="-484.3" font-family="Times,serif" font-size="14.00">X₁ ∈ X₂</text>
<polyline fill="none" stroke="#7f7542" points="16.5,-480.5 387.5,-480.5 "/>
<text text-anchor="middle" x="202" y="-469.3" font-family="Times,serif" font-size="14.00">open(X₃,X₄)</text>
</a>
</g>
</g>
<!-- c_0_41&#45;&gt;c_0_48 -->
<g id="edge2" class="edge">
<title>c_0_41&#45;&gt;c_0_48</title>
<path fill="none" stroke="black" d="M217.5,-465.2C217.5,-465.2 217.5,-438.63 217.5,-438.63"/>
<polygon fill="black" stroke="black" points="221,-438.63 217.5,-428.63 214,-438.63 221,-438.63"/>
</g>
<!-- c_0_56 -->
<g id="node4" class="node">
<title>c_0_56</title>
<g id="a_node4"><a xlink:href="c_0_56.html" xlink:title="{X₁ + X₂ + sk₅(X₃,X₄,sk₆(X₁,X₅,X₂)) ∈ X₆|X₁ ∈ ℕ ⊆ ℝ|X₂ ∈ COMPLEX ∈ COMPLEX(X₁)|X₃ ∈ ℕ ⊆ ℝ|X₄ ∈ bool(COMPLEX(X₃))|X₅ ∈ bool(COMPLEX(X₁))|X₅ ∈ bool(X₆)|closed(X₅,X₁)|sk₅(X₃,X₄,sk₆(X₁,X₅,X₂)) ∈ COMPLEX ∈ COMPLEX(X₁)|⇊|X₁ + X₂ + sk₅(X₃,X₄,sk₆(X₁,X₅,X₂)) ∈ X₆ ` X₅|X₂ ∈ X₅|open(X₄,X₃)}" target="_vizar">
<polygon fill="#f8edd1" stroke="#7f7542" points="59.5,-16.5 59.5,-211.5 430.5,-211.5 430.5,-16.5 59.5,-16.5"/>
<text text-anchor="middle" x="245" y="-200.3" font-family="Times,serif" font-size="14.00">X₁ + X₂ + sk₅(X₃,X₄,sk₆(X₁,X₅,X₂)) ∈ X₆</text>
<polyline fill="none" stroke="#7f7542" points="59.5,-196.5 430.5,-196.5 "/>
<text text-anchor="middle" x="245" y="-185.3" font-family="Times,serif" font-size="14.00">X₁ ∈ ℕ ⊆ ℝ</text>
<polyline fill="none" stroke="#7f7542" points="59.5,-181.5 430.5,-181.5 "/>
<text text-anchor="middle" x="245" y="-170.3" font-family="Times,serif" font-size="14.00">X₂ ∈ COMPLEX ∈ COMPLEX(X₁)</text>
<polyline fill="none" stroke="#7f7542" points="59.5,-166.5 430.5,-166.5 "/>
<text text-anchor="middle" x="245" y="-155.3" font-family="Times,serif" font-size="14.00">X₃ ∈ ℕ ⊆ ℝ</text>
<polyline fill="none" stroke="#7f7542" points="59.5,-151.5 430.5,-151.5 "/>
<text text-anchor="middle" x="245" y="-140.3" font-family="Times,serif" font-size="14.00">X₄ ∈ bool(COMPLEX(X₃))</text>
<polyline fill="none" stroke="#7f7542" points="59.5,-136.5 430.5,-136.5 "/>
<text text-anchor="middle" x="245" y="-125.3" font-family="Times,serif" font-size="14.00">X₅ ∈ bool(COMPLEX(X₁))</text>
<polyline fill="none" stroke="#7f7542" points="59.5,-121.5 430.5,-121.5 "/>
<text text-anchor="middle" x="245" y="-110.3" font-family="Times,serif" font-size="14.00">X₅ ∈ bool(X₆)</text>
<polyline fill="none" stroke="#7f7542" points="59.5,-106.5 430.5,-106.5 "/>
<text text-anchor="middle" x="245" y="-95.3" font-family="Times,serif" font-size="14.00">closed(X₅,X₁)</text>
<polyline fill="none" stroke="#7f7542" points="59.5,-91.5 430.5,-91.5 "/>
<text text-anchor="middle" x="245" y="-80.3" font-family="Times,serif" font-size="14.00">sk₅(X₃,X₄,sk₆(X₁,X₅,X₂)) ∈ COMPLEX ∈ COMPLEX(X₁)</text>
<polyline fill="none" stroke="#7f7542" points="59.5,-76.5 430.5,-76.5 "/>
<text text-anchor="middle" x="245" y="-65.3" font-family="Times,serif" font-size="14.00">⇊</text>
<polyline fill="none" stroke="#7f7542" points="59.5,-61.5 430.5,-61.5 "/>
<text text-anchor="middle" x="245" y="-50.3" font-family="Times,serif" font-size="14.00">X₁ + X₂ + sk₅(X₃,X₄,sk₆(X₁,X₅,X₂)) ∈ X₆ ` X₅</text>
<polyline fill="none" stroke="#7f7542" points="59.5,-46.5 430.5,-46.5 "/>
<text text-anchor="middle" x="245" y="-35.3" font-family="Times,serif" font-size="14.00">X₂ ∈ X₅</text>
<polyline fill="none" stroke="#7f7542" points="59.5,-31.5 430.5,-31.5 "/>
<text text-anchor="middle" x="245" y="-20.3" font-family="Times,serif" font-size="14.00">open(X₄,X₃)</text>
</a>
</g>
</g>
<!-- c_0_48&#45;&gt;c_0_56 -->
<g id="edge3" class="edge">
<title>c_0_48&#45;&gt;c_0_56</title>
<path fill="none" stroke="black" stroke-dasharray="5,2" d="M245,-248.48C245,-248.48 245,-221.77 245,-221.77"/>
<polygon fill="black" stroke="black" points="248.5,-221.77 245,-211.77 241.5,-221.77 248.5,-221.77"/>
</g>
</g>
</svg>
