<?xml version="1.0" encoding="UTF-8" standalone="no"?>
<!DOCTYPE svg PUBLIC "-//W3C//DTD SVG 1.1//EN"
 "http://www.w3.org/Graphics/SVG/1.1/DTD/svg11.dtd">
<!-- Generated by graphviz version 5.0.0 (0)
 -->
<!-- Title: proof Pages: 1 -->
<svg width="758pt" height="400pt"
 viewBox="0.00 0.00 758.00 400.00" xmlns="http://www.w3.org/2000/svg" xmlns:xlink="http://www.w3.org/1999/xlink">
<g id="graph0" class="graph" transform="scale(1 1) rotate(0) translate(4 396)">
<title>proof</title>
<g id="clust1" class="cluster">
<title>cluster_0</title>
<polygon fill="transparent" stroke="black" stroke-dasharray="1,5" points="8,-322 8,-384 412,-384 412,-322 8,-322"/>
</g>
<g id="clust2" class="cluster">
<title>cluster_1</title>
<polygon fill="transparent" stroke="black" stroke-width="2" points="142,-240 142,-302 276,-302 276,-240 142,-240"/>
</g>
<g id="clust3" class="cluster">
<title>cluster_2</title>
<polygon fill="transparent" stroke="black" stroke-dasharray="1,5" points="27,-8 27,-220 742,-220 742,-8 27,-8"/>
</g>
<!-- c_0_39 -->
<g id="node1" class="node">
<title>c_0_39</title>
<g id="a_node1"><a xlink:href="c_0_39.html" xlink:title="{X₁ ∈ bool(X₂)|⇊|X₂ ` (X₂ ` X₁) = X₁}" target="_parent">
<polygon fill="#f8edd1" stroke="#7f7542" points="280,-330.5 280,-375.5 404,-375.5 404,-330.5 280,-330.5"/>
<text text-anchor="middle" x="342" y="-364.3" font-family="Times,serif" font-size="14.00">X₁ ∈ bool(X₂)</text>
<polyline fill="none" stroke="#7f7542" points="280,-360.5 404,-360.5 "/>
<text text-anchor="middle" x="342" y="-349.3" font-family="Times,serif" font-size="14.00">⇊</text>
<polyline fill="none" stroke="#7f7542" points="280,-345.5 404,-345.5 "/>
<text text-anchor="middle" x="342" y="-334.3" font-family="Times,serif" font-size="14.00">X₂ ` (X₂ ` X₁) = X₁</text>
</a>
</g>
</g>
<!-- c_0_44 -->
<g id="node4" class="node">
<title>c_0_44</title>
<g id="a_node4"><a xlink:href="c_0_44.html" xlink:title="{X₂ ∈ bool(X₁)|⇊|X₁ \ (X₁ ` X₂) = X₂}" target="_parent">
<polygon fill="#f8edd1" stroke="#7f7542" points="150.5,-248.5 150.5,-293.5 267.5,-293.5 267.5,-248.5 150.5,-248.5"/>
<text text-anchor="middle" x="209" y="-282.3" font-family="Times,serif" font-size="14.00">X₂ ∈ bool(X₁)</text>
<polyline fill="none" stroke="#7f7542" points="150.5,-278.5 267.5,-278.5 "/>
<text text-anchor="middle" x="209" y="-267.3" font-family="Times,serif" font-size="14.00">⇊</text>
<polyline fill="none" stroke="#7f7542" points="150.5,-263.5 267.5,-263.5 "/>
<text text-anchor="middle" x="209" y="-252.3" font-family="Times,serif" font-size="14.00">X₁ &#160;(X₁ ` X₂) = X₂</text>
</a>
</g>
</g>
<!-- c_0_39&#45;&gt;c_0_44 -->
<g id="edge1" class="edge">
<title>c_0_39&#45;&gt;c_0_44</title>
<path fill="none" stroke="black" d="M342,-330.5C342,-308.41 342,-278 342,-278 342,-278 277.72,-278 277.72,-278"/>
<polygon fill="black" stroke="black" points="277.72,-274.5 267.72,-278 277.72,-281.5 277.72,-274.5"/>
</g>
<!-- c_0_38 -->
<g id="node2" class="node">
<title>c_0_38</title>
<g id="a_node2"><a xlink:href="c_0_38.html" xlink:title="{X₁ ∈ bool(X₂)|⇊|X₂ ` X₁ = X₂ \ X₁}" target="_parent">
<polygon fill="#f8edd1" stroke="#7f7542" points="156,-330.5 156,-375.5 262,-375.5 262,-330.5 156,-330.5"/>
<text text-anchor="middle" x="209" y="-364.3" font-family="Times,serif" font-size="14.00">X₁ ∈ bool(X₂)</text>
<polyline fill="none" stroke="#7f7542" points="156,-360.5 262,-360.5 "/>
<text text-anchor="middle" x="209" y="-349.3" font-family="Times,serif" font-size="14.00">⇊</text>
<polyline fill="none" stroke="#7f7542" points="156,-345.5 262,-345.5 "/>
<text text-anchor="middle" x="209" y="-334.3" font-family="Times,serif" font-size="14.00">X₂ ` X₁ = X₂ &#160;X₁</text>
</a>
</g>
</g>
<!-- c_0_38&#45;&gt;c_0_44 -->
<g id="edge2" class="edge">
<title>c_0_38&#45;&gt;c_0_44</title>
<path fill="none" stroke="black" d="M209,-330.16C209,-330.16 209,-303.72 209,-303.72"/>
<polygon fill="black" stroke="black" points="212.5,-303.72 209,-293.72 205.5,-303.72 212.5,-303.72"/>
</g>
<!-- c_0_40 -->
<g id="node3" class="node">
<title>c_0_40</title>
<g id="a_node3"><a xlink:href="c_0_40.html" xlink:title="{X₁ ∈ bool(X₂)|⇊|X₂ ` X₁ ∈ bool(X₂)}" target="_parent">
<polygon fill="#f8edd1" stroke="#7f7542" points="16.5,-330.5 16.5,-375.5 137.5,-375.5 137.5,-330.5 16.5,-330.5"/>
<text text-anchor="middle" x="77" y="-364.3" font-family="Times,serif" font-size="14.00">X₁ ∈ bool(X₂)</text>
<polyline fill="none" stroke="#7f7542" points="16.5,-360.5 137.5,-360.5 "/>
<text text-anchor="middle" x="77" y="-349.3" font-family="Times,serif" font-size="14.00">⇊</text>
<polyline fill="none" stroke="#7f7542" points="16.5,-345.5 137.5,-345.5 "/>
<text text-anchor="middle" x="77" y="-334.3" font-family="Times,serif" font-size="14.00">X₂ ` X₁ ∈ bool(X₂)</text>
</a>
</g>
</g>
<!-- c_0_40&#45;&gt;c_0_44 -->
<g id="edge3" class="edge">
<title>c_0_40&#45;&gt;c_0_44</title>
<path fill="none" stroke="black" d="M132,-330.5C132,-308.41 132,-278 132,-278 132,-278 140.25,-278 140.25,-278"/>
<polygon fill="black" stroke="black" points="140.25,-281.5 150.25,-278 140.25,-274.5 140.25,-281.5"/>
</g>
<!-- c_0_49 -->
<g id="node5" class="node">
<title>c_0_49</title>
<g id="a_node5"><a xlink:href="c_0_49.html" xlink:title="{X₁ ∈ X₂ ` X₃|X₁ ∈ X₃|X₃ ∈ bool(X₂)|⇊|⊥}" target="_parent">
<polygon fill="#f8edd1" stroke="#7f7542" points="642.5,-76.5 642.5,-151.5 733.5,-151.5 733.5,-76.5 642.5,-76.5"/>
<text text-anchor="middle" x="688" y="-140.3" font-family="Times,serif" font-size="14.00">X₁ ∈ X₂ ` X₃</text>
<polyline fill="none" stroke="#7f7542" points="642.5,-136.5 733.5,-136.5 "/>
<text text-anchor="middle" x="688" y="-125.3" font-family="Times,serif" font-size="14.00">X₁ ∈ X₃</text>
<polyline fill="none" stroke="#7f7542" points="642.5,-121.5 733.5,-121.5 "/>
<text text-anchor="middle" x="688" y="-110.3" font-family="Times,serif" font-size="14.00">X₃ ∈ bool(X₂)</text>
<polyline fill="none" stroke="#7f7542" points="642.5,-106.5 733.5,-106.5 "/>
<text text-anchor="middle" x="688" y="-95.3" font-family="Times,serif" font-size="14.00">⇊</text>
<polyline fill="none" stroke="#7f7542" points="642.5,-91.5 733.5,-91.5 "/>
<text text-anchor="middle" x="688" y="-80.3" font-family="Times,serif" font-size="14.00">⊥</text>
</a>
</g>
</g>
<!-- c_0_44&#45;&gt;c_0_49 -->
<g id="edge4" class="edge">
<title>c_0_44&#45;&gt;c_0_49</title>
<path fill="none" stroke="black" stroke-dasharray="5,2" d="M267.73,-263C395.64,-263 688,-263 688,-263 688,-263 688,-161.6 688,-161.6"/>
<polygon fill="black" stroke="black" points="691.5,-161.6 688,-151.6 684.5,-161.6 691.5,-161.6"/>
</g>
<!-- c_0_56 -->
<g id="node6" class="node">
<title>c_0_56</title>
<g id="a_node6"><a xlink:href="c_0_56.html" xlink:title="{X₁ + X₂ + sk₅(X₃,X₄,sk₆(X₁,X₅,X₂)) ∈ X₆|X₁ ∈ ℕ ⊆ ℝ|X₂ ∈ COMPLEX ∈ COMPLEX(X₁)|X₃ ∈ ℕ ⊆ ℝ|X₄ ∈ bool(COMPLEX(X₃))|X₅ ∈ bool(COMPLEX(X₁))|X₅ ∈ bool(X₆)|closed(X₅,X₁)|sk₅(X₃,X₄,sk₆(X₁,X₅,X₂)) ∈ COMPLEX ∈ COMPLEX(X₁)|⇊|X₁ + X₂ + sk₅(X₃,X₄,sk₆(X₁,X₅,X₂)) ∈ X₆ ` X₅|X₂ ∈ X₅|open(X₄,X₃)}" target="_parent">
<polygon fill="#f8edd1" stroke="#7f7542" points="253.5,-16.5 253.5,-211.5 624.5,-211.5 624.5,-16.5 253.5,-16.5"/>
<text text-anchor="middle" x="439" y="-200.3" font-family="Times,serif" font-size="14.00">X₁ + X₂ + sk₅(X₃,X₄,sk₆(X₁,X₅,X₂)) ∈ X₆</text>
<polyline fill="none" stroke="#7f7542" points="253.5,-196.5 624.5,-196.5 "/>
<text text-anchor="middle" x="439" y="-185.3" font-family="Times,serif" font-size="14.00">X₁ ∈ ℕ ⊆ ℝ</text>
<polyline fill="none" stroke="#7f7542" points="253.5,-181.5 624.5,-181.5 "/>
<text text-anchor="middle" x="439" y="-170.3" font-family="Times,serif" font-size="14.00">X₂ ∈ COMPLEX ∈ COMPLEX(X₁)</text>
<polyline fill="none" stroke="#7f7542" points="253.5,-166.5 624.5,-166.5 "/>
<text text-anchor="middle" x="439" y="-155.3" font-family="Times,serif" font-size="14.00">X₃ ∈ ℕ ⊆ ℝ</text>
<polyline fill="none" stroke="#7f7542" points="253.5,-151.5 624.5,-151.5 "/>
<text text-anchor="middle" x="439" y="-140.3" font-family="Times,serif" font-size="14.00">X₄ ∈ bool(COMPLEX(X₃))</text>
<polyline fill="none" stroke="#7f7542" points="253.5,-136.5 624.5,-136.5 "/>
<text text-anchor="middle" x="439" y="-125.3" font-family="Times,serif" font-size="14.00">X₅ ∈ bool(COMPLEX(X₁))</text>
<polyline fill="none" stroke="#7f7542" points="253.5,-121.5 624.5,-121.5 "/>
<text text-anchor="middle" x="439" y="-110.3" font-family="Times,serif" font-size="14.00">X₅ ∈ bool(X₆)</text>
<polyline fill="none" stroke="#7f7542" points="253.5,-106.5 624.5,-106.5 "/>
<text text-anchor="middle" x="439" y="-95.3" font-family="Times,serif" font-size="14.00">closed(X₅,X₁)</text>
<polyline fill="none" stroke="#7f7542" points="253.5,-91.5 624.5,-91.5 "/>
<text text-anchor="middle" x="439" y="-80.3" font-family="Times,serif" font-size="14.00">sk₅(X₃,X₄,sk₆(X₁,X₅,X₂)) ∈ COMPLEX ∈ COMPLEX(X₁)</text>
<polyline fill="none" stroke="#7f7542" points="253.5,-76.5 624.5,-76.5 "/>
<text text-anchor="middle" x="439" y="-65.3" font-family="Times,serif" font-size="14.00">⇊</text>
<polyline fill="none" stroke="#7f7542" points="253.5,-61.5 624.5,-61.5 "/>
<text text-anchor="middle" x="439" y="-50.3" font-family="Times,serif" font-size="14.00">X₁ + X₂ + sk₅(X₃,X₄,sk₆(X₁,X₅,X₂)) ∈ X₆ ` X₅</text>
<polyline fill="none" stroke="#7f7542" points="253.5,-46.5 624.5,-46.5 "/>
<text text-anchor="middle" x="439" y="-35.3" font-family="Times,serif" font-size="14.00">X₂ ∈ X₅</text>
<polyline fill="none" stroke="#7f7542" points="253.5,-31.5 624.5,-31.5 "/>
<text text-anchor="middle" x="439" y="-20.3" font-family="Times,serif" font-size="14.00">open(X₄,X₃)</text>
</a>
</g>
</g>
<!-- c_0_44&#45;&gt;c_0_56 -->
<g id="edge5" class="edge">
<title>c_0_44&#45;&gt;c_0_56</title>
<path fill="none" stroke="black" stroke-dasharray="5,2" d="M260.5,-248.17C260.5,-248.17 260.5,-221.57 260.5,-221.57"/>
<polygon fill="black" stroke="black" points="264,-221.57 260.5,-211.57 257,-221.57 264,-221.57"/>
</g>
<!-- c_0_62 -->
<g id="node7" class="node">
<title>c_0_62</title>
<g id="a_node7"><a xlink:href="c_0_62.html" xlink:title="{X₁ ∈ X₂|X₃ ∈ bool(X₂)|⇊|X₁ ∈ X₂ ` X₃|X₁ ∈ X₃}" target="_parent">
<polygon fill="#f8edd1" stroke="#7f7542" points="144.5,-76.5 144.5,-151.5 235.5,-151.5 235.5,-76.5 144.5,-76.5"/>
<text text-anchor="middle" x="190" y="-140.3" font-family="Times,serif" font-size="14.00">X₁ ∈ X₂</text>
<polyline fill="none" stroke="#7f7542" points="144.5,-136.5 235.5,-136.5 "/>
<text text-anchor="middle" x="190" y="-125.3" font-family="Times,serif" font-size="14.00">X₃ ∈ bool(X₂)</text>
<polyline fill="none" stroke="#7f7542" points="144.5,-121.5 235.5,-121.5 "/>
<text text-anchor="middle" x="190" y="-110.3" font-family="Times,serif" font-size="14.00">⇊</text>
<polyline fill="none" stroke="#7f7542" points="144.5,-106.5 235.5,-106.5 "/>
<text text-anchor="middle" x="190" y="-95.3" font-family="Times,serif" font-size="14.00">X₁ ∈ X₂ ` X₃</text>
<polyline fill="none" stroke="#7f7542" points="144.5,-91.5 235.5,-91.5 "/>
<text text-anchor="middle" x="190" y="-80.3" font-family="Times,serif" font-size="14.00">X₁ ∈ X₃</text>
</a>
</g>
</g>
<!-- c_0_44&#45;&gt;c_0_62 -->
<g id="edge6" class="edge">
<title>c_0_44&#45;&gt;c_0_62</title>
<path fill="none" stroke="black" stroke-dasharray="5,2" d="M193,-248.17C193,-248.17 193,-161.75 193,-161.75"/>
<polygon fill="black" stroke="black" points="196.5,-161.75 193,-151.75 189.5,-161.75 196.5,-161.75"/>
</g>
<!-- c_0_108 -->
<g id="node8" class="node">
<title>c_0_108</title>
<g id="a_node8"><a xlink:href="c_0_108.html" xlink:title="{X₁ ∈ X₃|X₃ ∈ bool(X₂)|⇊|X₁ ∈ X₂}" target="_parent">
<polygon fill="#f8edd1" stroke="#7f7542" points="35.5,-84 35.5,-144 126.5,-144 126.5,-84 35.5,-84"/>
<text text-anchor="middle" x="81" y="-132.8" font-family="Times,serif" font-size="14.00">X₁ ∈ X₃</text>
<polyline fill="none" stroke="#7f7542" points="35.5,-129 126.5,-129 "/>
<text text-anchor="middle" x="81" y="-117.8" font-family="Times,serif" font-size="14.00">X₃ ∈ bool(X₂)</text>
<polyline fill="none" stroke="#7f7542" points="35.5,-114 126.5,-114 "/>
<text text-anchor="middle" x="81" y="-102.8" font-family="Times,serif" font-size="14.00">⇊</text>
<polyline fill="none" stroke="#7f7542" points="35.5,-99 126.5,-99 "/>
<text text-anchor="middle" x="81" y="-87.8" font-family="Times,serif" font-size="14.00">X₁ ∈ X₂</text>
</a>
</g>
</g>
<!-- c_0_44&#45;&gt;c_0_108 -->
<g id="edge7" class="edge">
<title>c_0_44&#45;&gt;c_0_108</title>
<path fill="none" stroke="black" stroke-dasharray="5,2" d="M150.24,-263C116.6,-263 81,-263 81,-263 81,-263 81,-154.15 81,-154.15"/>
<polygon fill="black" stroke="black" points="84.5,-154.15 81,-144.15 77.5,-154.15 84.5,-154.15"/>
</g>
</g>
</svg>
