<?xml version="1.0" encoding="UTF-8" standalone="no"?>
<!DOCTYPE svg PUBLIC "-//W3C//DTD SVG 1.1//EN"
 "http://www.w3.org/Graphics/SVG/1.1/DTD/svg11.dtd">
<!-- Generated by graphviz version 5.0.0 (0)
 -->
<!-- Title: proof Pages: 1 -->
<svg width="739pt" height="400pt"
 viewBox="0.00 0.00 739.00 400.00" xmlns="http://www.w3.org/2000/svg" xmlns:xlink="http://www.w3.org/1999/xlink">
<g id="graph0" class="graph" transform="scale(1 1) rotate(0) translate(4 396)">
<title>proof</title>
<g id="clust1" class="cluster">
<title>cluster_0</title>
<polygon fill="transparent" stroke="black" stroke-dasharray="1,5" points="213,-322 213,-384 617,-384 617,-322 213,-322"/>
</g>
<g id="clust2" class="cluster">
<title>cluster_1</title>
<polygon fill="transparent" stroke="black" stroke-width="2" points="349,-240 349,-302 483,-302 483,-240 349,-240"/>
</g>
<g id="clust3" class="cluster">
<title>cluster_2</title>
<polygon fill="transparent" stroke="black" stroke-dasharray="1,5" points="8,-8 8,-220 723,-220 723,-8 8,-8"/>
</g>
<!-- c_0_40 -->
<g id="node1" class="node">
<title>c_0_40</title>
<g id="a_node1"><a xlink:href="c_0_40.html" xlink:title="{X₁ ∈ bool(X₂)|⇊|X₂ ` X₁ ∈ bool(X₂)}" target="_vizar">
<polygon fill="#f8edd1" stroke="#7f7542" points="487.5,-330.5 487.5,-375.5 608.5,-375.5 608.5,-330.5 487.5,-330.5"/>
<text text-anchor="middle" x="548" y="-364.3" font-family="Times,serif" font-size="14.00">X₁ ∈ bool(X₂)</text>
<polyline fill="none" stroke="#7f7542" points="487.5,-360.5 608.5,-360.5 "/>
<text text-anchor="middle" x="548" y="-349.3" font-family="Times,serif" font-size="14.00">⇊</text>
<polyline fill="none" stroke="#7f7542" points="487.5,-345.5 608.5,-345.5 "/>
<text text-anchor="middle" x="548" y="-334.3" font-family="Times,serif" font-size="14.00">X₂ ` X₁ ∈ bool(X₂)</text>
</a>
</g>
</g>
<!-- c_0_44 -->
<g id="node4" class="node">
<title>c_0_44</title>
<g id="a_node4"><a xlink:href="c_0_44.html" xlink:title="{X₂ ∈ bool(X₁)|⇊|X₁ \ (X₁ ` X₂) = X₂}" target="_vizar">
<polygon fill="#f8edd1" stroke="#7f7542" points="357.5,-248.5 357.5,-293.5 474.5,-293.5 474.5,-248.5 357.5,-248.5"/>
<text text-anchor="middle" x="416" y="-282.3" font-family="Times,serif" font-size="14.00">X₂ ∈ bool(X₁)</text>
<polyline fill="none" stroke="#7f7542" points="357.5,-278.5 474.5,-278.5 "/>
<text text-anchor="middle" x="416" y="-267.3" font-family="Times,serif" font-size="14.00">⇊</text>
<polyline fill="none" stroke="#7f7542" points="357.5,-263.5 474.5,-263.5 "/>
<text text-anchor="middle" x="416" y="-252.3" font-family="Times,serif" font-size="14.00">X₁ &#160;(X₁ ` X₂) = X₂</text>
</a>
</g>
</g>
<!-- c_0_40&#45;&gt;c_0_44 -->
<g id="edge1" class="edge">
<title>c_0_40&#45;&gt;c_0_44</title>
<path fill="none" stroke="black" d="M492,-330.14C492,-309.39 492,-282 492,-282 492,-282 484.75,-282 484.75,-282"/>
<polygon fill="black" stroke="black" points="484.75,-278.5 474.75,-282 484.75,-285.5 484.75,-278.5"/>
</g>
<!-- c_0_38 -->
<g id="node2" class="node">
<title>c_0_38</title>
<g id="a_node2"><a xlink:href="c_0_38.html" xlink:title="{X₁ ∈ bool(X₂)|⇊|X₂ ` X₁ = X₂ \ X₁}" target="_vizar">
<polygon fill="#f8edd1" stroke="#7f7542" points="363,-330.5 363,-375.5 469,-375.5 469,-330.5 363,-330.5"/>
<text text-anchor="middle" x="416" y="-364.3" font-family="Times,serif" font-size="14.00">X₁ ∈ bool(X₂)</text>
<polyline fill="none" stroke="#7f7542" points="363,-360.5 469,-360.5 "/>
<text text-anchor="middle" x="416" y="-349.3" font-family="Times,serif" font-size="14.00">⇊</text>
<polyline fill="none" stroke="#7f7542" points="363,-345.5 469,-345.5 "/>
<text text-anchor="middle" x="416" y="-334.3" font-family="Times,serif" font-size="14.00">X₂ ` X₁ = X₂ &#160;X₁</text>
</a>
</g>
</g>
<!-- c_0_38&#45;&gt;c_0_44 -->
<g id="edge2" class="edge">
<title>c_0_38&#45;&gt;c_0_44</title>
<path fill="none" stroke="black" d="M416,-330.16C416,-330.16 416,-303.72 416,-303.72"/>
<polygon fill="black" stroke="black" points="419.5,-303.72 416,-293.72 412.5,-303.72 419.5,-303.72"/>
</g>
<!-- c_0_39 -->
<g id="node3" class="node">
<title>c_0_39</title>
<g id="a_node3"><a xlink:href="c_0_39.html" xlink:title="{X₁ ∈ bool(X₂)|⇊|X₂ ` (X₂ ` X₁) = X₁}" target="_vizar">
<polygon fill="#f8edd1" stroke="#7f7542" points="221,-330.5 221,-375.5 345,-375.5 345,-330.5 221,-330.5"/>
<text text-anchor="middle" x="283" y="-364.3" font-family="Times,serif" font-size="14.00">X₁ ∈ bool(X₂)</text>
<polyline fill="none" stroke="#7f7542" points="221,-360.5 345,-360.5 "/>
<text text-anchor="middle" x="283" y="-349.3" font-family="Times,serif" font-size="14.00">⇊</text>
<polyline fill="none" stroke="#7f7542" points="221,-345.5 345,-345.5 "/>
<text text-anchor="middle" x="283" y="-334.3" font-family="Times,serif" font-size="14.00">X₂ ` (X₂ ` X₁) = X₁</text>
</a>
</g>
</g>
<!-- c_0_39&#45;&gt;c_0_44 -->
<g id="edge3" class="edge">
<title>c_0_39&#45;&gt;c_0_44</title>
<path fill="none" stroke="black" d="M283,-330.5C283,-308.41 283,-278 283,-278 283,-278 347.28,-278 347.28,-278"/>
<polygon fill="black" stroke="black" points="347.28,-281.5 357.28,-278 347.28,-274.5 347.28,-281.5"/>
</g>
<!-- c_0_62 -->
<g id="node5" class="node">
<title>c_0_62</title>
<g id="a_node5"><a xlink:href="c_0_62.html" xlink:title="{X₁ ∈ X₂|X₃ ∈ bool(X₂)|⇊|X₁ ∈ X₂ ` X₃|X₁ ∈ X₃}" target="_vizar">
<polygon fill="#f8edd1" stroke="#7f7542" points="623.5,-76.5 623.5,-151.5 714.5,-151.5 714.5,-76.5 623.5,-76.5"/>
<text text-anchor="middle" x="669" y="-140.3" font-family="Times,serif" font-size="14.00">X₁ ∈ X₂</text>
<polyline fill="none" stroke="#7f7542" points="623.5,-136.5 714.5,-136.5 "/>
<text text-anchor="middle" x="669" y="-125.3" font-family="Times,serif" font-size="14.00">X₃ ∈ bool(X₂)</text>
<polyline fill="none" stroke="#7f7542" points="623.5,-121.5 714.5,-121.5 "/>
<text text-anchor="middle" x="669" y="-110.3" font-family="Times,serif" font-size="14.00">⇊</text>
<polyline fill="none" stroke="#7f7542" points="623.5,-106.5 714.5,-106.5 "/>
<text text-anchor="middle" x="669" y="-95.3" font-family="Times,serif" font-size="14.00">X₁ ∈ X₂ ` X₃</text>
<polyline fill="none" stroke="#7f7542" points="623.5,-91.5 714.5,-91.5 "/>
<text text-anchor="middle" x="669" y="-80.3" font-family="Times,serif" font-size="14.00">X₁ ∈ X₃</text>
</a>
</g>
</g>
<!-- c_0_44&#45;&gt;c_0_62 -->
<g id="edge4" class="edge">
<title>c_0_44&#45;&gt;c_0_62</title>
<path fill="none" stroke="black" stroke-dasharray="5,2" d="M474.68,-271C549.42,-271 669,-271 669,-271 669,-271 669,-161.61 669,-161.61"/>
<polygon fill="black" stroke="black" points="672.5,-161.61 669,-151.61 665.5,-161.61 672.5,-161.61"/>
</g>
<!-- c_0_49 -->
<g id="node6" class="node">
<title>c_0_49</title>
<g id="a_node6"><a xlink:href="c_0_49.html" xlink:title="{X₁ ∈ X₂ ` X₃|X₁ ∈ X₃|X₃ ∈ bool(X₂)|⇊|⊥}" target="_vizar">
<polygon fill="#f8edd1" stroke="#7f7542" points="514.5,-76.5 514.5,-151.5 605.5,-151.5 605.5,-76.5 514.5,-76.5"/>
<text text-anchor="middle" x="560" y="-140.3" font-family="Times,serif" font-size="14.00">X₁ ∈ X₂ ` X₃</text>
<polyline fill="none" stroke="#7f7542" points="514.5,-136.5 605.5,-136.5 "/>
<text text-anchor="middle" x="560" y="-125.3" font-family="Times,serif" font-size="14.00">X₁ ∈ X₃</text>
<polyline fill="none" stroke="#7f7542" points="514.5,-121.5 605.5,-121.5 "/>
<text text-anchor="middle" x="560" y="-110.3" font-family="Times,serif" font-size="14.00">X₃ ∈ bool(X₂)</text>
<polyline fill="none" stroke="#7f7542" points="514.5,-106.5 605.5,-106.5 "/>
<text text-anchor="middle" x="560" y="-95.3" font-family="Times,serif" font-size="14.00">⇊</text>
<polyline fill="none" stroke="#7f7542" points="514.5,-91.5 605.5,-91.5 "/>
<text text-anchor="middle" x="560" y="-80.3" font-family="Times,serif" font-size="14.00">⊥</text>
</a>
</g>
</g>
<!-- c_0_44&#45;&gt;c_0_49 -->
<g id="edge5" class="edge">
<title>c_0_44&#45;&gt;c_0_49</title>
<path fill="none" stroke="black" stroke-dasharray="5,2" d="M474.57,-259C514.44,-259 560,-259 560,-259 560,-259 560,-161.72 560,-161.72"/>
<polygon fill="black" stroke="black" points="563.5,-161.72 560,-151.72 556.5,-161.72 563.5,-161.72"/>
</g>
<!-- c_0_56 -->
<g id="node7" class="node">
<title>c_0_56</title>
<g id="a_node7"><a xlink:href="c_0_56.html" xlink:title="{X₁ + X₂ + sk₅(X₃,X₄,sk₆(X₁,X₅,X₂)) ∈ X₆|X₁ ∈ ℕ ⊆ ℝ|X₂ ∈ COMPLEX ∈ COMPLEX(X₁)|X₃ ∈ ℕ ⊆ ℝ|X₄ ∈ bool(COMPLEX(X₃))|X₅ ∈ bool(COMPLEX(X₁))|X₅ ∈ bool(X₆)|closed(X₅,X₁)|sk₅(X₃,X₄,sk₆(X₁,X₅,X₂)) ∈ COMPLEX ∈ COMPLEX(X₁)|⇊|X₁ + X₂ + sk₅(X₃,X₄,sk₆(X₁,X₅,X₂)) ∈ X₆ ` X₅|X₂ ∈ X₅|open(X₄,X₃)}" target="_vizar">
<polygon fill="#f8edd1" stroke="#7f7542" points="125.5,-16.5 125.5,-211.5 496.5,-211.5 496.5,-16.5 125.5,-16.5"/>
<text text-anchor="middle" x="311" y="-200.3" font-family="Times,serif" font-size="14.00">X₁ + X₂ + sk₅(X₃,X₄,sk₆(X₁,X₅,X₂)) ∈ X₆</text>
<polyline fill="none" stroke="#7f7542" points="125.5,-196.5 496.5,-196.5 "/>
<text text-anchor="middle" x="311" y="-185.3" font-family="Times,serif" font-size="14.00">X₁ ∈ ℕ ⊆ ℝ</text>
<polyline fill="none" stroke="#7f7542" points="125.5,-181.5 496.5,-181.5 "/>
<text text-anchor="middle" x="311" y="-170.3" font-family="Times,serif" font-size="14.00">X₂ ∈ COMPLEX ∈ COMPLEX(X₁)</text>
<polyline fill="none" stroke="#7f7542" points="125.5,-166.5 496.5,-166.5 "/>
<text text-anchor="middle" x="311" y="-155.3" font-family="Times,serif" font-size="14.00">X₃ ∈ ℕ ⊆ ℝ</text>
<polyline fill="none" stroke="#7f7542" points="125.5,-151.5 496.5,-151.5 "/>
<text text-anchor="middle" x="311" y="-140.3" font-family="Times,serif" font-size="14.00">X₄ ∈ bool(COMPLEX(X₃))</text>
<polyline fill="none" stroke="#7f7542" points="125.5,-136.5 496.5,-136.5 "/>
<text text-anchor="middle" x="311" y="-125.3" font-family="Times,serif" font-size="14.00">X₅ ∈ bool(COMPLEX(X₁))</text>
<polyline fill="none" stroke="#7f7542" points="125.5,-121.5 496.5,-121.5 "/>
<text text-anchor="middle" x="311" y="-110.3" font-family="Times,serif" font-size="14.00">X₅ ∈ bool(X₆)</text>
<polyline fill="none" stroke="#7f7542" points="125.5,-106.5 496.5,-106.5 "/>
<text text-anchor="middle" x="311" y="-95.3" font-family="Times,serif" font-size="14.00">closed(X₅,X₁)</text>
<polyline fill="none" stroke="#7f7542" points="125.5,-91.5 496.5,-91.5 "/>
<text text-anchor="middle" x="311" y="-80.3" font-family="Times,serif" font-size="14.00">sk₅(X₃,X₄,sk₆(X₁,X₅,X₂)) ∈ COMPLEX ∈ COMPLEX(X₁)</text>
<polyline fill="none" stroke="#7f7542" points="125.5,-76.5 496.5,-76.5 "/>
<text text-anchor="middle" x="311" y="-65.3" font-family="Times,serif" font-size="14.00">⇊</text>
<polyline fill="none" stroke="#7f7542" points="125.5,-61.5 496.5,-61.5 "/>
<text text-anchor="middle" x="311" y="-50.3" font-family="Times,serif" font-size="14.00">X₁ + X₂ + sk₅(X₃,X₄,sk₆(X₁,X₅,X₂)) ∈ X₆ ` X₅</text>
<polyline fill="none" stroke="#7f7542" points="125.5,-46.5 496.5,-46.5 "/>
<text text-anchor="middle" x="311" y="-35.3" font-family="Times,serif" font-size="14.00">X₂ ∈ X₅</text>
<polyline fill="none" stroke="#7f7542" points="125.5,-31.5 496.5,-31.5 "/>
<text text-anchor="middle" x="311" y="-20.3" font-family="Times,serif" font-size="14.00">open(X₄,X₃)</text>
</a>
</g>
</g>
<!-- c_0_44&#45;&gt;c_0_56 -->
<g id="edge6" class="edge">
<title>c_0_44&#45;&gt;c_0_56</title>
<path fill="none" stroke="black" stroke-dasharray="5,2" d="M416,-248.17C416,-248.17 416,-221.57 416,-221.57"/>
<polygon fill="black" stroke="black" points="419.5,-221.57 416,-211.57 412.5,-221.57 419.5,-221.57"/>
</g>
<!-- c_0_108 -->
<g id="node8" class="node">
<title>c_0_108</title>
<g id="a_node8"><a xlink:href="c_0_108.html" xlink:title="{X₁ ∈ X₃|X₃ ∈ bool(X₂)|⇊|X₁ ∈ X₂}" target="_vizar">
<polygon fill="#f8edd1" stroke="#7f7542" points="16.5,-84 16.5,-144 107.5,-144 107.5,-84 16.5,-84"/>
<text text-anchor="middle" x="62" y="-132.8" font-family="Times,serif" font-size="14.00">X₁ ∈ X₃</text>
<polyline fill="none" stroke="#7f7542" points="16.5,-129 107.5,-129 "/>
<text text-anchor="middle" x="62" y="-117.8" font-family="Times,serif" font-size="14.00">X₃ ∈ bool(X₂)</text>
<polyline fill="none" stroke="#7f7542" points="16.5,-114 107.5,-114 "/>
<text text-anchor="middle" x="62" y="-102.8" font-family="Times,serif" font-size="14.00">⇊</text>
<polyline fill="none" stroke="#7f7542" points="16.5,-99 107.5,-99 "/>
<text text-anchor="middle" x="62" y="-87.8" font-family="Times,serif" font-size="14.00">X₁ ∈ X₂</text>
</a>
</g>
</g>
<!-- c_0_44&#45;&gt;c_0_108 -->
<g id="edge7" class="edge">
<title>c_0_44&#45;&gt;c_0_108</title>
<path fill="none" stroke="black" stroke-dasharray="5,2" d="M357.15,-263C256.49,-263 62,-263 62,-263 62,-263 62,-154.15 62,-154.15"/>
<polygon fill="black" stroke="black" points="65.5,-154.15 62,-144.15 58.5,-154.15 65.5,-154.15"/>
</g>
</g>
</svg>
