<?xml version="1.0" encoding="UTF-8" standalone="no"?>
<!DOCTYPE svg PUBLIC "-//W3C//DTD SVG 1.1//EN"
 "http://www.w3.org/Graphics/SVG/1.1/DTD/svg11.dtd">
<!-- Generated by graphviz version 5.0.0 (0)
 -->
<!-- Title: proof Pages: 1 -->
<svg width="960pt" height="595pt"
 viewBox="0.00 0.00 960.00 595.00" xmlns="http://www.w3.org/2000/svg" xmlns:xlink="http://www.w3.org/1999/xlink">
<g id="graph0" class="graph" transform="scale(1 1) rotate(0) translate(4 591)">
<title>proof</title>
<g id="clust1" class="cluster">
<title>cluster_0</title>
<polygon fill="transparent" stroke="black" stroke-dasharray="1,5" points="8,-427 8,-579 944,-579 944,-427 8,-427"/>
</g>
<g id="clust2" class="cluster">
<title>cluster_1</title>
<polygon fill="transparent" stroke="black" stroke-width="2" points="295,-225 295,-407 683,-407 683,-225 295,-225"/>
</g>
<g id="clust3" class="cluster">
<title>cluster_2</title>
<polygon fill="transparent" stroke="black" stroke-dasharray="1,5" points="280,-8 280,-205 698,-205 698,-8 280,-8"/>
</g>
<!-- c_0_54 -->
<g id="node1" class="node">
<title>c_0_54</title>
<g id="a_node1"><a xlink:href="c_0_54.html" xlink:title="{X₁ ∈ COMPLEX ∈ COMPLEX(X₂)|X₁ ∈ X₃|X₂ ∈ ℕ ⊆ ℝ|X₃ ∈ bool(COMPLEX(X₂))|open(X₃,X₂)|sk₃(X₂,X₃,X₁) ≤ Ø|⇊|⊥}" target="_vizar">
<polygon fill="#f8edd1" stroke="#7f7542" points="706,-443 706,-563 936,-563 936,-443 706,-443"/>
<text text-anchor="middle" x="821" y="-551.8" font-family="Times,serif" font-size="14.00">X₁ ∈ COMPLEX ∈ COMPLEX(X₂)</text>
<polyline fill="none" stroke="#7f7542" points="706,-548 936,-548 "/>
<text text-anchor="middle" x="821" y="-536.8" font-family="Times,serif" font-size="14.00">X₁ ∈ X₃</text>
<polyline fill="none" stroke="#7f7542" points="706,-533 936,-533 "/>
<text text-anchor="middle" x="821" y="-521.8" font-family="Times,serif" font-size="14.00">X₂ ∈ ℕ ⊆ ℝ</text>
<polyline fill="none" stroke="#7f7542" points="706,-518 936,-518 "/>
<text text-anchor="middle" x="821" y="-506.8" font-family="Times,serif" font-size="14.00">X₃ ∈ bool(COMPLEX(X₂))</text>
<polyline fill="none" stroke="#7f7542" points="706,-503 936,-503 "/>
<text text-anchor="middle" x="821" y="-491.8" font-family="Times,serif" font-size="14.00">open(X₃,X₂)</text>
<polyline fill="none" stroke="#7f7542" points="706,-488 936,-488 "/>
<text text-anchor="middle" x="821" y="-476.8" font-family="Times,serif" font-size="14.00">sk₃(X₂,X₃,X₁) ≤ Ø</text>
<polyline fill="none" stroke="#7f7542" points="706,-473 936,-473 "/>
<text text-anchor="middle" x="821" y="-461.8" font-family="Times,serif" font-size="14.00">⇊</text>
<polyline fill="none" stroke="#7f7542" points="706,-458 936,-458 "/>
<text text-anchor="middle" x="821" y="-446.8" font-family="Times,serif" font-size="14.00">⊥</text>
</a>
</g>
</g>
<!-- c_0_59 -->
<g id="node5" class="node">
<title>c_0_59</title>
<g id="a_node5"><a xlink:href="c_0_59.html" xlink:title="{X₁ ∈ ℕ ⊆ ℝ|X₂ ∈ COMPLEX ∈ COMPLEX(X₁)|X₂ ∈ X₅|X₃ ∈ ℕ ⊆ ℝ|X₄ ∈ bool(COMPLEX(X₃))|X₅ ∈ bool(COMPLEX(X₁))|open(X₅,X₁)|sk₈(X₃,X₄,sk₃(X₁,X₅,X₂)) ∈ COMPLEX ∈ COMPLEX(X₁)|⇊|X₁ + X₂ + sk₈(X₃,X₄,sk₃(X₁,X₅,X₂)) ∈ X₅|closed(X₄,X₃)}" target="_vizar">
<polygon fill="#f8edd1" stroke="#7f7542" points="303.5,-233.5 303.5,-398.5 674.5,-398.5 674.5,-233.5 303.5,-233.5"/>
<text text-anchor="middle" x="489" y="-387.3" font-family="Times,serif" font-size="14.00">X₁ ∈ ℕ ⊆ ℝ</text>
<polyline fill="none" stroke="#7f7542" points="303.5,-383.5 674.5,-383.5 "/>
<text text-anchor="middle" x="489" y="-372.3" font-family="Times,serif" font-size="14.00">X₂ ∈ COMPLEX ∈ COMPLEX(X₁)</text>
<polyline fill="none" stroke="#7f7542" points="303.5,-368.5 674.5,-368.5 "/>
<text text-anchor="middle" x="489" y="-357.3" font-family="Times,serif" font-size="14.00">X₂ ∈ X₅</text>
<polyline fill="none" stroke="#7f7542" points="303.5,-353.5 674.5,-353.5 "/>
<text text-anchor="middle" x="489" y="-342.3" font-family="Times,serif" font-size="14.00">X₃ ∈ ℕ ⊆ ℝ</text>
<polyline fill="none" stroke="#7f7542" points="303.5,-338.5 674.5,-338.5 "/>
<text text-anchor="middle" x="489" y="-327.3" font-family="Times,serif" font-size="14.00">X₄ ∈ bool(COMPLEX(X₃))</text>
<polyline fill="none" stroke="#7f7542" points="303.5,-323.5 674.5,-323.5 "/>
<text text-anchor="middle" x="489" y="-312.3" font-family="Times,serif" font-size="14.00">X₅ ∈ bool(COMPLEX(X₁))</text>
<polyline fill="none" stroke="#7f7542" points="303.5,-308.5 674.5,-308.5 "/>
<text text-anchor="middle" x="489" y="-297.3" font-family="Times,serif" font-size="14.00">open(X₅,X₁)</text>
<polyline fill="none" stroke="#7f7542" points="303.5,-293.5 674.5,-293.5 "/>
<text text-anchor="middle" x="489" y="-282.3" font-family="Times,serif" font-size="14.00">sk₈(X₃,X₄,sk₃(X₁,X₅,X₂)) ∈ COMPLEX ∈ COMPLEX(X₁)</text>
<polyline fill="none" stroke="#7f7542" points="303.5,-278.5 674.5,-278.5 "/>
<text text-anchor="middle" x="489" y="-267.3" font-family="Times,serif" font-size="14.00">⇊</text>
<polyline fill="none" stroke="#7f7542" points="303.5,-263.5 674.5,-263.5 "/>
<text text-anchor="middle" x="489" y="-252.3" font-family="Times,serif" font-size="14.00">X₁ + X₂ + sk₈(X₃,X₄,sk₃(X₁,X₅,X₂)) ∈ X₅</text>
<polyline fill="none" stroke="#7f7542" points="303.5,-248.5 674.5,-248.5 "/>
<text text-anchor="middle" x="489" y="-237.3" font-family="Times,serif" font-size="14.00">closed(X₄,X₃)</text>
</a>
</g>
</g>
<!-- c_0_54&#45;&gt;c_0_59 -->
<g id="edge1" class="edge">
<title>c_0_54&#45;&gt;c_0_59</title>
<path fill="none" stroke="black" d="M705.73,-446C661,-446 620.33,-446 620.33,-446 620.33,-446 620.33,-408.7 620.33,-408.7"/>
<polygon fill="black" stroke="black" points="623.83,-408.7 620.33,-398.7 616.83,-408.7 623.83,-408.7"/>
</g>
<!-- c_0_51 -->
<g id="node2" class="node">
<title>c_0_51</title>
<g id="a_node2"><a xlink:href="c_0_51.html" xlink:title="{X₁ ∈ ℝ|X₁ ≤ &#160;\|....\| sk₈(X₃,X₂,X₁)|X₂ ∈ bool(COMPLEX(X₃))|X₃ ∈ ℕ ⊆ ℝ|⇊|X₁ ≤ Ø|closed(X₂,X₃)}" target="_vizar">
<polygon fill="#f8edd1" stroke="#7f7542" points="512,-450.5 512,-555.5 688,-555.5 688,-450.5 512,-450.5"/>
<text text-anchor="middle" x="600" y="-544.3" font-family="Times,serif" font-size="14.00">X₁ ∈ ℝ</text>
<polyline fill="none" stroke="#7f7542" points="512,-540.5 688,-540.5 "/>
<text text-anchor="middle" x="600" y="-529.3" font-family="Times,serif" font-size="14.00">X₁ ≤ |....| sk₈(X₃,X₂,X₁)</text>
<polyline fill="none" stroke="#7f7542" points="512,-525.5 688,-525.5 "/>
<text text-anchor="middle" x="600" y="-514.3" font-family="Times,serif" font-size="14.00">X₂ ∈ bool(COMPLEX(X₃))</text>
<polyline fill="none" stroke="#7f7542" points="512,-510.5 688,-510.5 "/>
<text text-anchor="middle" x="600" y="-499.3" font-family="Times,serif" font-size="14.00">X₃ ∈ ℕ ⊆ ℝ</text>
<polyline fill="none" stroke="#7f7542" points="512,-495.5 688,-495.5 "/>
<text text-anchor="middle" x="600" y="-484.3" font-family="Times,serif" font-size="14.00">⇊</text>
<polyline fill="none" stroke="#7f7542" points="512,-480.5 688,-480.5 "/>
<text text-anchor="middle" x="600" y="-469.3" font-family="Times,serif" font-size="14.00">X₁ ≤ Ø</text>
<polyline fill="none" stroke="#7f7542" points="512,-465.5 688,-465.5 "/>
<text text-anchor="middle" x="600" y="-454.3" font-family="Times,serif" font-size="14.00">closed(X₂,X₃)</text>
</a>
</g>
</g>
<!-- c_0_51&#45;&gt;c_0_59 -->
<g id="edge2" class="edge">
<title>c_0_51&#45;&gt;c_0_59</title>
<path fill="none" stroke="black" d="M566.17,-450.41C566.17,-450.41 566.17,-408.62 566.17,-408.62"/>
<polygon fill="black" stroke="black" points="569.67,-408.62 566.17,-398.62 562.67,-408.62 569.67,-408.62"/>
</g>
<!-- c_0_53 -->
<g id="node3" class="node">
<title>c_0_53</title>
<g id="a_node3"><a xlink:href="c_0_53.html" xlink:title="{X₁ ∈ ℕ ⊆ ℝ|X₂ ∈ bool(COMPLEX(X₁))|X₃ ∈ COMPLEX ∈ COMPLEX(X₁)|X₃ ∈ X₂|open(X₂,X₁)|⇊|sk₃(X₁,X₂,X₃) ∈ ℝ}" target="_vizar">
<polygon fill="#f8edd1" stroke="#7f7542" points="264,-450.5 264,-555.5 494,-555.5 494,-450.5 264,-450.5"/>
<text text-anchor="middle" x="379" y="-544.3" font-family="Times,serif" font-size="14.00">X₁ ∈ ℕ ⊆ ℝ</text>
<polyline fill="none" stroke="#7f7542" points="264,-540.5 494,-540.5 "/>
<text text-anchor="middle" x="379" y="-529.3" font-family="Times,serif" font-size="14.00">X₂ ∈ bool(COMPLEX(X₁))</text>
<polyline fill="none" stroke="#7f7542" points="264,-525.5 494,-525.5 "/>
<text text-anchor="middle" x="379" y="-514.3" font-family="Times,serif" font-size="14.00">X₃ ∈ COMPLEX ∈ COMPLEX(X₁)</text>
<polyline fill="none" stroke="#7f7542" points="264,-510.5 494,-510.5 "/>
<text text-anchor="middle" x="379" y="-499.3" font-family="Times,serif" font-size="14.00">X₃ ∈ X₂</text>
<polyline fill="none" stroke="#7f7542" points="264,-495.5 494,-495.5 "/>
<text text-anchor="middle" x="379" y="-484.3" font-family="Times,serif" font-size="14.00">open(X₂,X₁)</text>
<polyline fill="none" stroke="#7f7542" points="264,-480.5 494,-480.5 "/>
<text text-anchor="middle" x="379" y="-469.3" font-family="Times,serif" font-size="14.00">⇊</text>
<polyline fill="none" stroke="#7f7542" points="264,-465.5 494,-465.5 "/>
<text text-anchor="middle" x="379" y="-454.3" font-family="Times,serif" font-size="14.00">sk₃(X₁,X₂,X₃) ∈ ℝ</text>
</a>
</g>
</g>
<!-- c_0_53&#45;&gt;c_0_59 -->
<g id="edge3" class="edge">
<title>c_0_53&#45;&gt;c_0_59</title>
<path fill="none" stroke="black" d="M430.5,-450.41C430.5,-450.41 430.5,-408.62 430.5,-408.62"/>
<polygon fill="black" stroke="black" points="434,-408.62 430.5,-398.62 427,-408.62 434,-408.62"/>
</g>
<!-- c_0_52 -->
<g id="node4" class="node">
<title>c_0_52</title>
<g id="a_node4"><a xlink:href="c_0_52.html" xlink:title="{X₁ ∈ COMPLEX ∈ COMPLEX(X₂)|X₂ ∈ ℕ ⊆ ℝ|X₃ ∈ bool(COMPLEX(X₂))|X₄ ∈ COMPLEX ∈ COMPLEX(X₂)|X₄ ∈ X₃|open(X₃,X₂)|⇊|X₂ + X₄ + X₁ ∈ X₃|sk₃(X₂,X₃,X₄) ≤ &#160;\|....\| X₁}" target="_vizar">
<polygon fill="#f8edd1" stroke="#7f7542" points="16,-435.5 16,-570.5 246,-570.5 246,-435.5 16,-435.5"/>
<text text-anchor="middle" x="131" y="-559.3" font-family="Times,serif" font-size="14.00">X₁ ∈ COMPLEX ∈ COMPLEX(X₂)</text>
<polyline fill="none" stroke="#7f7542" points="16,-555.5 246,-555.5 "/>
<text text-anchor="middle" x="131" y="-544.3" font-family="Times,serif" font-size="14.00">X₂ ∈ ℕ ⊆ ℝ</text>
<polyline fill="none" stroke="#7f7542" points="16,-540.5 246,-540.5 "/>
<text text-anchor="middle" x="131" y="-529.3" font-family="Times,serif" font-size="14.00">X₃ ∈ bool(COMPLEX(X₂))</text>
<polyline fill="none" stroke="#7f7542" points="16,-525.5 246,-525.5 "/>
<text text-anchor="middle" x="131" y="-514.3" font-family="Times,serif" font-size="14.00">X₄ ∈ COMPLEX ∈ COMPLEX(X₂)</text>
<polyline fill="none" stroke="#7f7542" points="16,-510.5 246,-510.5 "/>
<text text-anchor="middle" x="131" y="-499.3" font-family="Times,serif" font-size="14.00">X₄ ∈ X₃</text>
<polyline fill="none" stroke="#7f7542" points="16,-495.5 246,-495.5 "/>
<text text-anchor="middle" x="131" y="-484.3" font-family="Times,serif" font-size="14.00">open(X₃,X₂)</text>
<polyline fill="none" stroke="#7f7542" points="16,-480.5 246,-480.5 "/>
<text text-anchor="middle" x="131" y="-469.3" font-family="Times,serif" font-size="14.00">⇊</text>
<polyline fill="none" stroke="#7f7542" points="16,-465.5 246,-465.5 "/>
<text text-anchor="middle" x="131" y="-454.3" font-family="Times,serif" font-size="14.00">X₂ + X₄ + X₁ ∈ X₃</text>
<polyline fill="none" stroke="#7f7542" points="16,-450.5 246,-450.5 "/>
<text text-anchor="middle" x="131" y="-439.3" font-family="Times,serif" font-size="14.00">sk₃(X₂,X₃,X₄) ≤ |....| X₁</text>
</a>
</g>
</g>
<!-- c_0_52&#45;&gt;c_0_59 -->
<g id="edge4" class="edge">
<title>c_0_52&#45;&gt;c_0_59</title>
<path fill="none" stroke="black" d="M246.23,-438C306.14,-438 367,-438 367,-438 367,-438 367,-408.73 367,-408.73"/>
<polygon fill="black" stroke="black" points="370.5,-408.73 367,-398.73 363.5,-408.73 370.5,-408.73"/>
</g>
<!-- c_0_72 -->
<g id="node6" class="node">
<title>c_0_72</title>
<g id="a_node6"><a xlink:href="c_0_72.html" xlink:title="{X₁ ∈ bool(COMPLEX(X₂))|X₂ ∈ ℕ ⊆ ℝ|X₃ + X₆ + sk₈(X₂,X₁,sk₃(X₃,X₄ ` X₅,X₆)) ∈ X₅|X₃ ∈ ℕ ⊆ ℝ|X₄ ` X₅ ∈ bool(COMPLEX(X₃))|X₅ ∈ bool(X₄)|X₆ ∈ COMPLEX ∈ COMPLEX(X₃)|X₆ ∈ X₄ ` X₅|open(X₄ ` X₅,X₃)|sk₈(X₂,X₁,sk₃(X₃,X₄ ` X₅,X₆)) ∈ COMPLEX ∈ COMPLEX(X₃)|⇊|closed(X₁,X₂)}" target="_vizar">
<polygon fill="#f8edd1" stroke="#7f7542" points="288,-16.5 288,-196.5 690,-196.5 690,-16.5 288,-16.5"/>
<text text-anchor="middle" x="489" y="-185.3" font-family="Times,serif" font-size="14.00">X₁ ∈ bool(COMPLEX(X₂))</text>
<polyline fill="none" stroke="#7f7542" points="288,-181.5 690,-181.5 "/>
<text text-anchor="middle" x="489" y="-170.3" font-family="Times,serif" font-size="14.00">X₂ ∈ ℕ ⊆ ℝ</text>
<polyline fill="none" stroke="#7f7542" points="288,-166.5 690,-166.5 "/>
<text text-anchor="middle" x="489" y="-155.3" font-family="Times,serif" font-size="14.00">X₃ + X₆ + sk₈(X₂,X₁,sk₃(X₃,X₄ ` X₅,X₆)) ∈ X₅</text>
<polyline fill="none" stroke="#7f7542" points="288,-151.5 690,-151.5 "/>
<text text-anchor="middle" x="489" y="-140.3" font-family="Times,serif" font-size="14.00">X₃ ∈ ℕ ⊆ ℝ</text>
<polyline fill="none" stroke="#7f7542" points="288,-136.5 690,-136.5 "/>
<text text-anchor="middle" x="489" y="-125.3" font-family="Times,serif" font-size="14.00">X₄ ` X₅ ∈ bool(COMPLEX(X₃))</text>
<polyline fill="none" stroke="#7f7542" points="288,-121.5 690,-121.5 "/>
<text text-anchor="middle" x="489" y="-110.3" font-family="Times,serif" font-size="14.00">X₅ ∈ bool(X₄)</text>
<polyline fill="none" stroke="#7f7542" points="288,-106.5 690,-106.5 "/>
<text text-anchor="middle" x="489" y="-95.3" font-family="Times,serif" font-size="14.00">X₆ ∈ COMPLEX ∈ COMPLEX(X₃)</text>
<polyline fill="none" stroke="#7f7542" points="288,-91.5 690,-91.5 "/>
<text text-anchor="middle" x="489" y="-80.3" font-family="Times,serif" font-size="14.00">X₆ ∈ X₄ ` X₅</text>
<polyline fill="none" stroke="#7f7542" points="288,-76.5 690,-76.5 "/>
<text text-anchor="middle" x="489" y="-65.3" font-family="Times,serif" font-size="14.00">open(X₄ ` X₅,X₃)</text>
<polyline fill="none" stroke="#7f7542" points="288,-61.5 690,-61.5 "/>
<text text-anchor="middle" x="489" y="-50.3" font-family="Times,serif" font-size="14.00">sk₈(X₂,X₁,sk₃(X₃,X₄ ` X₅,X₆)) ∈ COMPLEX ∈ COMPLEX(X₃)</text>
<polyline fill="none" stroke="#7f7542" points="288,-46.5 690,-46.5 "/>
<text text-anchor="middle" x="489" y="-35.3" font-family="Times,serif" font-size="14.00">⇊</text>
<polyline fill="none" stroke="#7f7542" points="288,-31.5 690,-31.5 "/>
<text text-anchor="middle" x="489" y="-20.3" font-family="Times,serif" font-size="14.00">closed(X₁,X₂)</text>
</a>
</g>
</g>
<!-- c_0_59&#45;&gt;c_0_72 -->
<g id="edge5" class="edge">
<title>c_0_59&#45;&gt;c_0_72</title>
<path fill="none" stroke="black" stroke-dasharray="5,2" d="M489,-233.2C489,-233.2 489,-206.63 489,-206.63"/>
<polygon fill="black" stroke="black" points="492.5,-206.63 489,-196.63 485.5,-206.63 492.5,-206.63"/>
</g>
</g>
</svg>
