<?xml version="1.0" encoding="UTF-8" standalone="no"?>
<!DOCTYPE svg PUBLIC "-//W3C//DTD SVG 1.1//EN"
 "http://www.w3.org/Graphics/SVG/1.1/DTD/svg11.dtd">
<!-- Generated by graphviz version 5.0.0 (0)
 -->
<!-- Title: proof Pages: 1 -->
<svg width="354pt" height="205pt"
 viewBox="0.00 0.00 354.00 205.00" xmlns="http://www.w3.org/2000/svg" xmlns:xlink="http://www.w3.org/1999/xlink">
<g id="graph0" class="graph" transform="scale(1 1) rotate(0) translate(4 201)">
<title>proof</title>
<g id="clust1" class="cluster">
<title>cluster_0</title>
<polygon fill="transparent" stroke="black" stroke-dasharray="1,5" points="124,-157 124,-189 222,-189 222,-157 124,-157"/>
</g>
<g id="clust2" class="cluster">
<title>cluster_1</title>
<polygon fill="transparent" stroke="black" stroke-width="2" points="58,-90 58,-137 288,-137 288,-90 58,-90"/>
</g>
<g id="clust3" class="cluster">
<title>cluster_2</title>
<polygon fill="transparent" stroke="black" stroke-dasharray="1,5" points="8,-8 8,-70 338,-70 338,-8 8,-8"/>
</g>
<!-- t132_seq_4 -->
<g id="node1" class="node">
<title>t132_seq_4</title>
<g id="a_node1"><a xlink:href="t132_seq_4.html" xlink:title="t132_seq_4" target="_vizar">
<polygon fill="#fa6900" stroke="#7f7542" points="132.5,-165.5 132.5,-180.5 213.5,-180.5 213.5,-165.5 132.5,-165.5"/>
<text text-anchor="middle" x="173" y="-169.3" font-family="Times,serif" font-size="14.00">t132_seq_4</text>
</a>
</g>
</g>
<!-- c_0_129 -->
<g id="node2" class="node">
<title>c_0_129</title>
<g id="a_node2"><a xlink:href="c_0_129.html" xlink:title="{closed(sk₂,sk₁)|open(COMPLEX(sk₁) ` sk₂,sk₁)}" target="_vizar">
<polygon fill="#fa6900" stroke="#7f7542" points="66,-98.5 66,-128.5 280,-128.5 280,-98.5 66,-98.5"/>
<text text-anchor="middle" x="173" y="-117.3" font-family="Times,serif" font-size="14.00">closed(sk₂,sk₁)</text>
<polyline fill="none" stroke="#7f7542" points="66,-113.5 280,-113.5 "/>
<text text-anchor="middle" x="173" y="-102.3" font-family="Times,serif" font-size="14.00">open(COMPLEX(sk₁) ` sk₂,sk₁)</text>
</a>
</g>
</g>
<!-- t132_seq_4&#45;&gt;c_0_129 -->
<g id="edge1" class="edge">
<title>t132_seq_4&#45;&gt;c_0_129</title>
<path fill="none" stroke="black" d="M173,-165.22C173,-165.22 173,-138.85 173,-138.85"/>
<polygon fill="black" stroke="black" points="176.5,-138.85 173,-128.85 169.5,-138.85 176.5,-138.85"/>
</g>
<!-- c_0_136 -->
<g id="node3" class="node">
<title>c_0_136</title>
<g id="a_node3"><a xlink:href="c_0_136.html" xlink:title="{FinSequenceSet(COMPLEX(sk₁),COMPLEX)|⇊|closed(sk₂,sk₁)}" target="_vizar">
<polygon fill="#fa6900" stroke="#7f7542" points="16.5,-16.5 16.5,-61.5 329.5,-61.5 329.5,-16.5 16.5,-16.5"/>
<text text-anchor="middle" x="173" y="-50.3" font-family="Times,serif" font-size="14.00">FinSequenceSet(COMPLEX(sk₁),COMPLEX)</text>
<polyline fill="none" stroke="#7f7542" points="16.5,-46.5 329.5,-46.5 "/>
<text text-anchor="middle" x="173" y="-35.3" font-family="Times,serif" font-size="14.00">⇊</text>
<polyline fill="none" stroke="#7f7542" points="16.5,-31.5 329.5,-31.5 "/>
<text text-anchor="middle" x="173" y="-20.3" font-family="Times,serif" font-size="14.00">closed(sk₂,sk₁)</text>
</a>
</g>
</g>
<!-- c_0_129&#45;&gt;c_0_136 -->
<g id="edge2" class="edge">
<title>c_0_129&#45;&gt;c_0_136</title>
<path fill="none" stroke="black" stroke-dasharray="5,2" d="M173,-98.42C173,-98.42 173,-71.69 173,-71.69"/>
<polygon fill="black" stroke="black" points="176.5,-71.69 173,-61.69 169.5,-71.69 176.5,-71.69"/>
</g>
</g>
</svg>
