<?xml version="1.0" encoding="UTF-8" standalone="no"?>
<!DOCTYPE svg PUBLIC "-//W3C//DTD SVG 1.1//EN"
 "http://www.w3.org/Graphics/SVG/1.1/DTD/svg11.dtd">
<!-- Generated by graphviz version 5.0.0 (0)
 -->
<!-- Title: proof Pages: 1 -->
<svg width="593pt" height="640pt"
 viewBox="0.00 0.00 593.00 640.00" xmlns="http://www.w3.org/2000/svg" xmlns:xlink="http://www.w3.org/1999/xlink">
<g id="graph0" class="graph" transform="scale(1 1) rotate(0) translate(4 636)">
<title>proof</title>
<g id="clust1" class="cluster">
<title>cluster_0</title>
<polygon fill="transparent" stroke="black" stroke-dasharray="1,5" points="30,-427 30,-624 577,-624 577,-427 30,-427"/>
</g>
<g id="clust2" class="cluster">
<title>cluster_1</title>
<polygon fill="transparent" stroke="black" stroke-width="2" points="64,-195 64,-407 452,-407 452,-195 64,-195"/>
</g>
<g id="clust3" class="cluster">
<title>cluster_2</title>
<polygon fill="transparent" stroke="black" stroke-dasharray="1,5" points="8,-8 8,-175 508,-175 508,-8 8,-8"/>
</g>
<!-- c_0_48 -->
<g id="node1" class="node">
<title>c_0_48</title>
<g id="a_node1"><a xlink:href="c_0_48.html" xlink:title="{X₁ + X₂ + sk₅(X₃,X₄,sk₆(X₁,X₅ \ X₆,X₂)) ∈ X₅|X₁ ∈ ℕ ⊆ ℝ|X₂ ∈ COMPLEX ∈ COMPLEX(X₁)|X₃ ∈ ℕ ⊆ ℝ|X₄ ∈ bool(COMPLEX(X₃))|X₅ \ X₆ ∈ bool(COMPLEX(X₁))|closed(X₅ \ X₆,X₁)|sk₅(X₃,X₄,sk₆(X₁,X₅ \ X₆,X₂)) ∈ COMPLEX ∈ COMPLEX(X₁)|⇊|X₁ + X₂ + sk₅(X₃,X₄,sk₆(X₁,X₅ \ X₆,X₂)) ∈ X₆|X₂ ∈ X₅ \ X₆|open(X₄,X₃)}" target="_parent">
<polygon fill="#f8edd1" stroke="#7f7542" points="173.5,-435.5 173.5,-615.5 568.5,-615.5 568.5,-435.5 173.5,-435.5"/>
<text text-anchor="middle" x="371" y="-604.3" font-family="Times,serif" font-size="14.00">X₁ + X₂ + sk₅(X₃,X₄,sk₆(X₁,X₅ &#160;X₆,X₂)) ∈ X₅</text>
<polyline fill="none" stroke="#7f7542" points="173.5,-600.5 568.5,-600.5 "/>
<text text-anchor="middle" x="371" y="-589.3" font-family="Times,serif" font-size="14.00">X₁ ∈ ℕ ⊆ ℝ</text>
<polyline fill="none" stroke="#7f7542" points="173.5,-585.5 568.5,-585.5 "/>
<text text-anchor="middle" x="371" y="-574.3" font-family="Times,serif" font-size="14.00">X₂ ∈ COMPLEX ∈ COMPLEX(X₁)</text>
<polyline fill="none" stroke="#7f7542" points="173.5,-570.5 568.5,-570.5 "/>
<text text-anchor="middle" x="371" y="-559.3" font-family="Times,serif" font-size="14.00">X₃ ∈ ℕ ⊆ ℝ</text>
<polyline fill="none" stroke="#7f7542" points="173.5,-555.5 568.5,-555.5 "/>
<text text-anchor="middle" x="371" y="-544.3" font-family="Times,serif" font-size="14.00">X₄ ∈ bool(COMPLEX(X₃))</text>
<polyline fill="none" stroke="#7f7542" points="173.5,-540.5 568.5,-540.5 "/>
<text text-anchor="middle" x="371" y="-529.3" font-family="Times,serif" font-size="14.00">X₅ &#160;X₆ ∈ bool(COMPLEX(X₁))</text>
<polyline fill="none" stroke="#7f7542" points="173.5,-525.5 568.5,-525.5 "/>
<text text-anchor="middle" x="371" y="-514.3" font-family="Times,serif" font-size="14.00">closed(X₅ &#160;X₆,X₁)</text>
<polyline fill="none" stroke="#7f7542" points="173.5,-510.5 568.5,-510.5 "/>
<text text-anchor="middle" x="371" y="-499.3" font-family="Times,serif" font-size="14.00">sk₅(X₃,X₄,sk₆(X₁,X₅ &#160;X₆,X₂)) ∈ COMPLEX ∈ COMPLEX(X₁)</text>
<polyline fill="none" stroke="#7f7542" points="173.5,-495.5 568.5,-495.5 "/>
<text text-anchor="middle" x="371" y="-484.3" font-family="Times,serif" font-size="14.00">⇊</text>
<polyline fill="none" stroke="#7f7542" points="173.5,-480.5 568.5,-480.5 "/>
<text text-anchor="middle" x="371" y="-469.3" font-family="Times,serif" font-size="14.00">X₁ + X₂ + sk₅(X₃,X₄,sk₆(X₁,X₅ &#160;X₆,X₂)) ∈ X₆</text>
<polyline fill="none" stroke="#7f7542" points="173.5,-465.5 568.5,-465.5 "/>
<text text-anchor="middle" x="371" y="-454.3" font-family="Times,serif" font-size="14.00">X₂ ∈ X₅ &#160;X₆</text>
<polyline fill="none" stroke="#7f7542" points="173.5,-450.5 568.5,-450.5 "/>
<text text-anchor="middle" x="371" y="-439.3" font-family="Times,serif" font-size="14.00">open(X₄,X₃)</text>
</a>
</g>
</g>
<!-- c_0_56 -->
<g id="node3" class="node">
<title>c_0_56</title>
<g id="a_node3"><a xlink:href="c_0_56.html" xlink:title="{X₁ + X₂ + sk₅(X₃,X₄,sk₆(X₁,X₅,X₂)) ∈ X₆|X₁ ∈ ℕ ⊆ ℝ|X₂ ∈ COMPLEX ∈ COMPLEX(X₁)|X₃ ∈ ℕ ⊆ ℝ|X₄ ∈ bool(COMPLEX(X₃))|X₅ ∈ bool(COMPLEX(X₁))|X₅ ∈ bool(X₆)|closed(X₅,X₁)|sk₅(X₃,X₄,sk₆(X₁,X₅,X₂)) ∈ COMPLEX ∈ COMPLEX(X₁)|⇊|X₁ + X₂ + sk₅(X₃,X₄,sk₆(X₁,X₅,X₂)) ∈ X₆ ` X₅|X₂ ∈ X₅|open(X₄,X₃)}" target="_parent">
<polygon fill="#f8edd1" stroke="#7f7542" points="72.5,-203.5 72.5,-398.5 443.5,-398.5 443.5,-203.5 72.5,-203.5"/>
<text text-anchor="middle" x="258" y="-387.3" font-family="Times,serif" font-size="14.00">X₁ + X₂ + sk₅(X₃,X₄,sk₆(X₁,X₅,X₂)) ∈ X₆</text>
<polyline fill="none" stroke="#7f7542" points="72.5,-383.5 443.5,-383.5 "/>
<text text-anchor="middle" x="258" y="-372.3" font-family="Times,serif" font-size="14.00">X₁ ∈ ℕ ⊆ ℝ</text>
<polyline fill="none" stroke="#7f7542" points="72.5,-368.5 443.5,-368.5 "/>
<text text-anchor="middle" x="258" y="-357.3" font-family="Times,serif" font-size="14.00">X₂ ∈ COMPLEX ∈ COMPLEX(X₁)</text>
<polyline fill="none" stroke="#7f7542" points="72.5,-353.5 443.5,-353.5 "/>
<text text-anchor="middle" x="258" y="-342.3" font-family="Times,serif" font-size="14.00">X₃ ∈ ℕ ⊆ ℝ</text>
<polyline fill="none" stroke="#7f7542" points="72.5,-338.5 443.5,-338.5 "/>
<text text-anchor="middle" x="258" y="-327.3" font-family="Times,serif" font-size="14.00">X₄ ∈ bool(COMPLEX(X₃))</text>
<polyline fill="none" stroke="#7f7542" points="72.5,-323.5 443.5,-323.5 "/>
<text text-anchor="middle" x="258" y="-312.3" font-family="Times,serif" font-size="14.00">X₅ ∈ bool(COMPLEX(X₁))</text>
<polyline fill="none" stroke="#7f7542" points="72.5,-308.5 443.5,-308.5 "/>
<text text-anchor="middle" x="258" y="-297.3" font-family="Times,serif" font-size="14.00">X₅ ∈ bool(X₆)</text>
<polyline fill="none" stroke="#7f7542" points="72.5,-293.5 443.5,-293.5 "/>
<text text-anchor="middle" x="258" y="-282.3" font-family="Times,serif" font-size="14.00">closed(X₅,X₁)</text>
<polyline fill="none" stroke="#7f7542" points="72.5,-278.5 443.5,-278.5 "/>
<text text-anchor="middle" x="258" y="-267.3" font-family="Times,serif" font-size="14.00">sk₅(X₃,X₄,sk₆(X₁,X₅,X₂)) ∈ COMPLEX ∈ COMPLEX(X₁)</text>
<polyline fill="none" stroke="#7f7542" points="72.5,-263.5 443.5,-263.5 "/>
<text text-anchor="middle" x="258" y="-252.3" font-family="Times,serif" font-size="14.00">⇊</text>
<polyline fill="none" stroke="#7f7542" points="72.5,-248.5 443.5,-248.5 "/>
<text text-anchor="middle" x="258" y="-237.3" font-family="Times,serif" font-size="14.00">X₁ + X₂ + sk₅(X₃,X₄,sk₆(X₁,X₅,X₂)) ∈ X₆ ` X₅</text>
<polyline fill="none" stroke="#7f7542" points="72.5,-233.5 443.5,-233.5 "/>
<text text-anchor="middle" x="258" y="-222.3" font-family="Times,serif" font-size="14.00">X₂ ∈ X₅</text>
<polyline fill="none" stroke="#7f7542" points="72.5,-218.5 443.5,-218.5 "/>
<text text-anchor="middle" x="258" y="-207.3" font-family="Times,serif" font-size="14.00">open(X₄,X₃)</text>
</a>
</g>
</g>
<!-- c_0_48&#45;&gt;c_0_56 -->
<g id="edge1" class="edge">
<title>c_0_48&#45;&gt;c_0_56</title>
<path fill="none" stroke="black" d="M308.5,-435.48C308.5,-435.48 308.5,-408.77 308.5,-408.77"/>
<polygon fill="black" stroke="black" points="312,-408.77 308.5,-398.77 305,-408.77 312,-408.77"/>
</g>
<!-- c_0_44 -->
<g id="node2" class="node">
<title>c_0_44</title>
<g id="a_node2"><a xlink:href="c_0_44.html" xlink:title="{X₂ ∈ bool(X₁)|⇊|X₁ \ (X₁ ` X₂) = X₂}" target="_parent">
<polygon fill="#f8edd1" stroke="#7f7542" points="38.5,-503 38.5,-548 155.5,-548 155.5,-503 38.5,-503"/>
<text text-anchor="middle" x="97" y="-536.8" font-family="Times,serif" font-size="14.00">X₂ ∈ bool(X₁)</text>
<polyline fill="none" stroke="#7f7542" points="38.5,-533 155.5,-533 "/>
<text text-anchor="middle" x="97" y="-521.8" font-family="Times,serif" font-size="14.00">⇊</text>
<polyline fill="none" stroke="#7f7542" points="38.5,-518 155.5,-518 "/>
<text text-anchor="middle" x="97" y="-506.8" font-family="Times,serif" font-size="14.00">X₁ &#160;(X₁ ` X₂) = X₂</text>
</a>
</g>
</g>
<!-- c_0_44&#45;&gt;c_0_56 -->
<g id="edge2" class="edge">
<title>c_0_44&#45;&gt;c_0_56</title>
<path fill="none" stroke="black" d="M114,-502.74C114,-502.74 114,-408.55 114,-408.55"/>
<polygon fill="black" stroke="black" points="117.5,-408.55 114,-398.55 110.5,-408.55 117.5,-408.55"/>
</g>
<!-- c_0_69 -->
<g id="node4" class="node">
<title>c_0_69</title>
<g id="a_node4"><a xlink:href="c_0_69.html" xlink:title="{X₁ + sk₄(X₁,X₃ ` X₂) + sk₅(X₁,X₃ ` X₂,sk₆(X₁,X₂,sk₄(X₁,X₃ ` X₂))) ∈ X₃|X₁ ∈ ℕ ⊆ ℝ|X₂ ∈ bool(COMPLEX(X₁))|X₂ ∈ bool(X₃)|X₃ ` X₂ ∈ bool(COMPLEX(X₁))|closed(X₂,X₁)|sk₅(X₁,X₃ ` X₂,sk₆(X₁,X₂,sk₄(X₁,X₃ ` X₂))) ∈ COMPLEX ∈ COMPLEX(X₁)|⇊|open(X₃ ` X₂,X₁)|sk₆(X₁,X₂,sk₄(X₁,X₃ ` X₂)) ≤ Ø}" target="_parent">
<polygon fill="#f8edd1" stroke="#7f7542" points="16,-16.5 16,-166.5 500,-166.5 500,-16.5 16,-16.5"/>
<text text-anchor="middle" x="258" y="-155.3" font-family="Times,serif" font-size="14.00">X₁ + sk₄(X₁,X₃ ` X₂) + sk₅(X₁,X₃ ` X₂,sk₆(X₁,X₂,sk₄(X₁,X₃ ` X₂))) ∈ X₃</text>
<polyline fill="none" stroke="#7f7542" points="16,-151.5 500,-151.5 "/>
<text text-anchor="middle" x="258" y="-140.3" font-family="Times,serif" font-size="14.00">X₁ ∈ ℕ ⊆ ℝ</text>
<polyline fill="none" stroke="#7f7542" points="16,-136.5 500,-136.5 "/>
<text text-anchor="middle" x="258" y="-125.3" font-family="Times,serif" font-size="14.00">X₂ ∈ bool(COMPLEX(X₁))</text>
<polyline fill="none" stroke="#7f7542" points="16,-121.5 500,-121.5 "/>
<text text-anchor="middle" x="258" y="-110.3" font-family="Times,serif" font-size="14.00">X₂ ∈ bool(X₃)</text>
<polyline fill="none" stroke="#7f7542" points="16,-106.5 500,-106.5 "/>
<text text-anchor="middle" x="258" y="-95.3" font-family="Times,serif" font-size="14.00">X₃ ` X₂ ∈ bool(COMPLEX(X₁))</text>
<polyline fill="none" stroke="#7f7542" points="16,-91.5 500,-91.5 "/>
<text text-anchor="middle" x="258" y="-80.3" font-family="Times,serif" font-size="14.00">closed(X₂,X₁)</text>
<polyline fill="none" stroke="#7f7542" points="16,-76.5 500,-76.5 "/>
<text text-anchor="middle" x="258" y="-65.3" font-family="Times,serif" font-size="14.00">sk₅(X₁,X₃ ` X₂,sk₆(X₁,X₂,sk₄(X₁,X₃ ` X₂))) ∈ COMPLEX ∈ COMPLEX(X₁)</text>
<polyline fill="none" stroke="#7f7542" points="16,-61.5 500,-61.5 "/>
<text text-anchor="middle" x="258" y="-50.3" font-family="Times,serif" font-size="14.00">⇊</text>
<polyline fill="none" stroke="#7f7542" points="16,-46.5 500,-46.5 "/>
<text text-anchor="middle" x="258" y="-35.3" font-family="Times,serif" font-size="14.00">open(X₃ ` X₂,X₁)</text>
<polyline fill="none" stroke="#7f7542" points="16,-31.5 500,-31.5 "/>
<text text-anchor="middle" x="258" y="-20.3" font-family="Times,serif" font-size="14.00">sk₆(X₁,X₂,sk₄(X₁,X₃ ` X₂)) ≤ Ø</text>
</a>
</g>
</g>
<!-- c_0_56&#45;&gt;c_0_69 -->
<g id="edge3" class="edge">
<title>c_0_56&#45;&gt;c_0_69</title>
<path fill="none" stroke="black" stroke-dasharray="5,2" d="M258,-203.3C258,-203.3 258,-176.79 258,-176.79"/>
<polygon fill="black" stroke="black" points="261.5,-176.79 258,-166.79 254.5,-176.79 261.5,-176.79"/>
</g>
</g>
</svg>
