<?xml version="1.0" encoding="UTF-8" standalone="no"?>
<!DOCTYPE svg PUBLIC "-//W3C//DTD SVG 1.1//EN"
 "http://www.w3.org/Graphics/SVG/1.1/DTD/svg11.dtd">
<!-- Generated by graphviz version 5.0.0 (0)
 -->
<!-- Title: proof Pages: 1 -->
<svg width="238pt" height="138pt"
 viewBox="0.00 0.00 238.00 138.00" xmlns="http://www.w3.org/2000/svg" xmlns:xlink="http://www.w3.org/1999/xlink">
<g id="graph0" class="graph" transform="scale(1 1) rotate(0) translate(4 134)">
<title>proof</title>
<g id="clust1" class="cluster">
<title>cluster_1</title>
<polygon fill="transparent" stroke="black" stroke-width="2" points="8,-90 8,-122 222,-122 222,-90 8,-90"/>
</g>
<g id="clust2" class="cluster">
<title>cluster_2</title>
<polygon fill="transparent" stroke="black" stroke-dasharray="1,5" points="45,-8 45,-70 185,-70 185,-8 45,-8"/>
</g>
<!-- involutiveness_k3_subset_1 -->
<g id="node1" class="node">
<title>involutiveness_k3_subset_1</title>
<g id="a_node1"><a xlink:href="involutiveness_k3_subset_1.html" xlink:title="involutiveness_k3_subset_1" target="_parent">
<polygon fill="#69d2e7" stroke="#7f7542" points="16.5,-98.5 16.5,-113.5 213.5,-113.5 213.5,-98.5 16.5,-98.5"/>
<text text-anchor="middle" x="115" y="-102.3" font-family="Times,serif" font-size="14.00">involutiveness_k3_subset_1</text>
</a>
</g>
</g>
<!-- c_0_39 -->
<g id="node2" class="node">
<title>c_0_39</title>
<g id="a_node2"><a xlink:href="c_0_39.html" xlink:title="{X₁ ∈ bool(X₂)|⇊|X₂ ` (X₂ ` X₁) = X₁}" target="_parent">
<polygon fill="#f8edd1" stroke="#7f7542" points="53,-16.5 53,-61.5 177,-61.5 177,-16.5 53,-16.5"/>
<text text-anchor="middle" x="115" y="-50.3" font-family="Times,serif" font-size="14.00">X₁ ∈ bool(X₂)</text>
<polyline fill="none" stroke="#7f7542" points="53,-46.5 177,-46.5 "/>
<text text-anchor="middle" x="115" y="-35.3" font-family="Times,serif" font-size="14.00">⇊</text>
<polyline fill="none" stroke="#7f7542" points="53,-31.5 177,-31.5 "/>
<text text-anchor="middle" x="115" y="-20.3" font-family="Times,serif" font-size="14.00">X₂ ` (X₂ ` X₁) = X₁</text>
</a>
</g>
</g>
<!-- involutiveness_k3_subset_1&#45;&gt;c_0_39 -->
<g id="edge1" class="edge">
<title>involutiveness_k3_subset_1&#45;&gt;c_0_39</title>
<path fill="none" stroke="black" d="M115,-98.31C115,-98.31 115,-71.76 115,-71.76"/>
<polygon fill="black" stroke="black" points="118.5,-71.76 115,-61.76 111.5,-71.76 118.5,-71.76"/>
</g>
</g>
</svg>
