<?xml version="1.0" encoding="UTF-8" standalone="no"?>
<!DOCTYPE svg PUBLIC "-//W3C//DTD SVG 1.1//EN"
 "http://www.w3.org/Graphics/SVG/1.1/DTD/svg11.dtd">
<!-- Generated by graphviz version 5.0.0 (0)
 -->
<!-- Title: proof Pages: 1 -->
<svg width="236pt" height="250pt"
 viewBox="0.00 0.00 236.00 250.00" xmlns="http://www.w3.org/2000/svg" xmlns:xlink="http://www.w3.org/1999/xlink">
<g id="graph0" class="graph" transform="scale(1 1) rotate(0) translate(4 246)">
<title>proof</title>
<g id="clust1" class="cluster">
<title>cluster_0</title>
<polygon fill="transparent" stroke="black" stroke-dasharray="1,5" points="71,-202 71,-234 157,-234 157,-202 71,-202"/>
</g>
<g id="clust2" class="cluster">
<title>cluster_1</title>
<polygon fill="transparent" stroke="black" stroke-width="2" points="60,-105 60,-182 168,-182 168,-105 60,-105"/>
</g>
<g id="clust3" class="cluster">
<title>cluster_2</title>
<polygon fill="transparent" stroke="black" stroke-dasharray="1,5" points="8,-8 8,-85 220,-85 220,-8 8,-8"/>
</g>
<!-- t4_subset -->
<g id="node1" class="node">
<title>t4_subset</title>
<g id="a_node1"><a xlink:href="t4_subset.html" xlink:title="t4_subset" target="_vizar">
<polygon fill="#69d2e7" stroke="#7f7542" points="79,-210.5 79,-225.5 149,-225.5 149,-210.5 79,-210.5"/>
<text text-anchor="middle" x="114" y="-214.3" font-family="Times,serif" font-size="14.00">t4_subset</text>
</a>
</g>
</g>
<!-- c_0_35 -->
<g id="node2" class="node">
<title>c_0_35</title>
<g id="a_node2"><a xlink:href="c_0_35.html" xlink:title="{X₁ ∈ X₂|X₂ ∈ bool(X₃)|⇊|X₁ ∈ X₃}" target="_vizar">
<polygon fill="#f8edd1" stroke="#7f7542" points="68.5,-113.5 68.5,-173.5 159.5,-173.5 159.5,-113.5 68.5,-113.5"/>
<text text-anchor="middle" x="114" y="-162.3" font-family="Times,serif" font-size="14.00">X₁ ∈ X₂</text>
<polyline fill="none" stroke="#7f7542" points="68.5,-158.5 159.5,-158.5 "/>
<text text-anchor="middle" x="114" y="-147.3" font-family="Times,serif" font-size="14.00">X₂ ∈ bool(X₃)</text>
<polyline fill="none" stroke="#7f7542" points="68.5,-143.5 159.5,-143.5 "/>
<text text-anchor="middle" x="114" y="-132.3" font-family="Times,serif" font-size="14.00">⇊</text>
<polyline fill="none" stroke="#7f7542" points="68.5,-128.5 159.5,-128.5 "/>
<text text-anchor="middle" x="114" y="-117.3" font-family="Times,serif" font-size="14.00">X₁ ∈ X₃</text>
</a>
</g>
</g>
<!-- t4_subset&#45;&gt;c_0_35 -->
<g id="edge1" class="edge">
<title>t4_subset&#45;&gt;c_0_35</title>
<path fill="none" stroke="black" d="M114,-210.31C114,-210.31 114,-183.51 114,-183.51"/>
<polygon fill="black" stroke="black" points="117.5,-183.51 114,-173.51 110.5,-183.51 117.5,-183.51"/>
</g>
<!-- c_0_42 -->
<g id="node3" class="node">
<title>c_0_42</title>
<g id="a_node3"><a xlink:href="c_0_42.html" xlink:title="{X₁ ∈ Sphere(N₂,X₃,R₄)|X₃ ∈ carrier(TOP&#45;REAL(N₂))|⇊|X₁ ∈ carrier(TOP&#45;REAL(N₂))}" target="_vizar">
<polygon fill="#f8edd1" stroke="#7f7542" points="16,-16.5 16,-76.5 212,-76.5 212,-16.5 16,-16.5"/>
<text text-anchor="middle" x="114" y="-65.3" font-family="Times,serif" font-size="14.00">X₁ ∈ Sphere(N₂,X₃,R₄)</text>
<polyline fill="none" stroke="#7f7542" points="16,-61.5 212,-61.5 "/>
<text text-anchor="middle" x="114" y="-50.3" font-family="Times,serif" font-size="14.00">X₃ ∈ carrier(TOP&#45;REAL(N₂))</text>
<polyline fill="none" stroke="#7f7542" points="16,-46.5 212,-46.5 "/>
<text text-anchor="middle" x="114" y="-35.3" font-family="Times,serif" font-size="14.00">⇊</text>
<polyline fill="none" stroke="#7f7542" points="16,-31.5 212,-31.5 "/>
<text text-anchor="middle" x="114" y="-20.3" font-family="Times,serif" font-size="14.00">X₁ ∈ carrier(TOP&#45;REAL(N₂))</text>
</a>
</g>
</g>
<!-- c_0_35&#45;&gt;c_0_42 -->
<g id="edge2" class="edge">
<title>c_0_35&#45;&gt;c_0_42</title>
<path fill="none" stroke="black" stroke-dasharray="5,2" d="M114,-113.34C114,-113.34 114,-86.64 114,-86.64"/>
<polygon fill="black" stroke="black" points="117.5,-86.64 114,-76.64 110.5,-86.64 117.5,-86.64"/>
</g>
</g>
</svg>
