<?xml version="1.0" encoding="UTF-8" standalone="no"?>
<!DOCTYPE svg PUBLIC "-//W3C//DTD SVG 1.1//EN"
 "http://www.w3.org/Graphics/SVG/1.1/DTD/svg11.dtd">
<!-- Generated by graphviz version 5.0.0 (0)
 -->
<!-- Title: proof Pages: 1 -->
<svg width="492pt" height="295pt"
 viewBox="0.00 0.00 492.00 295.00" xmlns="http://www.w3.org/2000/svg" xmlns:xlink="http://www.w3.org/1999/xlink">
<g id="graph0" class="graph" transform="scale(1 1) rotate(0) translate(4 291)">
<title>proof</title>
<g id="clust1" class="cluster">
<title>cluster_0</title>
<polygon fill="transparent" stroke="black" stroke-dasharray="1,5" points="68,-217 68,-279 378,-279 378,-217 68,-217"/>
</g>
<g id="clust2" class="cluster">
<title>cluster_1</title>
<polygon fill="transparent" stroke="black" stroke-width="2" points="140,-135 140,-197 344,-197 344,-135 140,-135"/>
</g>
<g id="clust3" class="cluster">
<title>cluster_2</title>
<polygon fill="transparent" stroke="black" stroke-dasharray="1,5" points="8,-8 8,-115 476,-115 476,-8 8,-8"/>
</g>
<!-- c_0_47 -->
<g id="node1" class="node">
<title>c_0_47</title>
<g id="a_node1"><a xlink:href="c_0_47.html" xlink:title="{abs(R₂) ≤ R₁|⇊|&#45;(R₁) ≤ R₂}" target="_vizar">
<polygon fill="#f8edd1" stroke="#7f7542" points="282,-225.5 282,-270.5 370,-270.5 370,-225.5 282,-225.5"/>
<text text-anchor="middle" x="326" y="-259.3" font-family="Times,serif" font-size="14.00">abs(R₂) ≤ R₁</text>
<polyline fill="none" stroke="#7f7542" points="282,-255.5 370,-255.5 "/>
<text text-anchor="middle" x="326" y="-244.3" font-family="Times,serif" font-size="14.00">⇊</text>
<polyline fill="none" stroke="#7f7542" points="282,-240.5 370,-240.5 "/>
<text text-anchor="middle" x="326" y="-229.3" font-family="Times,serif" font-size="14.00">&#45;(R₁) ≤ R₂</text>
</a>
</g>
</g>
<!-- c_0_68 -->
<g id="node3" class="node">
<title>c_0_68</title>
<g id="a_node3"><a xlink:href="c_0_68.html" xlink:title="{X₁ ∈ carrier(TOP&#45;REAL(2))|⇊|&#45;( \|....\| X₁) ≤ &#160;`1 X₁}" target="_vizar">
<polygon fill="#f8edd1" stroke="#7f7542" points="148.5,-143.5 148.5,-188.5 335.5,-188.5 335.5,-143.5 148.5,-143.5"/>
<text text-anchor="middle" x="242" y="-177.3" font-family="Times,serif" font-size="14.00">X₁ ∈ carrier(TOP&#45;REAL(2))</text>
<polyline fill="none" stroke="#7f7542" points="148.5,-173.5 335.5,-173.5 "/>
<text text-anchor="middle" x="242" y="-162.3" font-family="Times,serif" font-size="14.00">⇊</text>
<polyline fill="none" stroke="#7f7542" points="148.5,-158.5 335.5,-158.5 "/>
<text text-anchor="middle" x="242" y="-147.3" font-family="Times,serif" font-size="14.00">&#45;( |....| X₁) ≤ `1 X₁</text>
</a>
</g>
</g>
<!-- c_0_47&#45;&gt;c_0_68 -->
<g id="edge1" class="edge">
<title>c_0_47&#45;&gt;c_0_68</title>
<path fill="none" stroke="black" d="M308.75,-225.16C308.75,-225.16 308.75,-198.72 308.75,-198.72"/>
<polygon fill="black" stroke="black" points="312.25,-198.72 308.75,-188.72 305.25,-198.72 312.25,-198.72"/>
</g>
<!-- c_0_60 -->
<g id="node2" class="node">
<title>c_0_60</title>
<g id="a_node2"><a xlink:href="c_0_60.html" xlink:title="{X₁ ∈ carrier(TOP&#45;REAL(2))|⇊|abs( `1 X₁) ≤ &#160;\|....\| X₁}" target="_vizar">
<polygon fill="#f8edd1" stroke="#7f7542" points="76.5,-225.5 76.5,-270.5 263.5,-270.5 263.5,-225.5 76.5,-225.5"/>
<text text-anchor="middle" x="170" y="-259.3" font-family="Times,serif" font-size="14.00">X₁ ∈ carrier(TOP&#45;REAL(2))</text>
<polyline fill="none" stroke="#7f7542" points="76.5,-255.5 263.5,-255.5 "/>
<text text-anchor="middle" x="170" y="-244.3" font-family="Times,serif" font-size="14.00">⇊</text>
<polyline fill="none" stroke="#7f7542" points="76.5,-240.5 263.5,-240.5 "/>
<text text-anchor="middle" x="170" y="-229.3" font-family="Times,serif" font-size="14.00">abs( `1 X₁) ≤ |....| X₁</text>
</a>
</g>
</g>
<!-- c_0_60&#45;&gt;c_0_68 -->
<g id="edge2" class="edge">
<title>c_0_60&#45;&gt;c_0_68</title>
<path fill="none" stroke="black" d="M206,-225.16C206,-225.16 206,-198.72 206,-198.72"/>
<polygon fill="black" stroke="black" points="209.5,-198.72 206,-188.72 202.5,-198.72 209.5,-198.72"/>
</g>
<!-- c_0_76 -->
<g id="node4" class="node">
<title>c_0_76</title>
<g id="a_node4"><a xlink:href="c_0_76.html" xlink:title="{ 0. TOP&#45;REAL(N₁) ∈ carrier(TOP&#45;REAL(N₁))|N₁ ∈ ℕ|sk₂(Sphere(N₁, 0. TOP&#45;REAL(N₁),R₂),X₃) ∈ carrier(TOP&#45;REAL(2))|⇊|&#45;(R₂) ≤ &#160;`1 sk₂(Sphere(N₁, 0. TOP&#45;REAL(N₁),R₂),X₃)|Sphere(N₁, 0. TOP&#45;REAL(N₁),R₂) ⊆ X₃}" target="_vizar">
<polygon fill="#f8edd1" stroke="#7f7542" points="16.5,-16.5 16.5,-106.5 467.5,-106.5 467.5,-16.5 16.5,-16.5"/>
<text text-anchor="middle" x="242" y="-95.3" font-family="Times,serif" font-size="14.00">0. TOP&#45;REAL(N₁) ∈ carrier(TOP&#45;REAL(N₁))</text>
<polyline fill="none" stroke="#7f7542" points="16.5,-91.5 467.5,-91.5 "/>
<text text-anchor="middle" x="242" y="-80.3" font-family="Times,serif" font-size="14.00">N₁ ∈ ℕ</text>
<polyline fill="none" stroke="#7f7542" points="16.5,-76.5 467.5,-76.5 "/>
<text text-anchor="middle" x="242" y="-65.3" font-family="Times,serif" font-size="14.00">sk₂(Sphere(N₁, 0. TOP&#45;REAL(N₁),R₂),X₃) ∈ carrier(TOP&#45;REAL(2))</text>
<polyline fill="none" stroke="#7f7542" points="16.5,-61.5 467.5,-61.5 "/>
<text text-anchor="middle" x="242" y="-50.3" font-family="Times,serif" font-size="14.00">⇊</text>
<polyline fill="none" stroke="#7f7542" points="16.5,-46.5 467.5,-46.5 "/>
<text text-anchor="middle" x="242" y="-35.3" font-family="Times,serif" font-size="14.00">&#45;(R₂) ≤ `1 sk₂(Sphere(N₁, 0. TOP&#45;REAL(N₁),R₂),X₃)</text>
<polyline fill="none" stroke="#7f7542" points="16.5,-31.5 467.5,-31.5 "/>
<text text-anchor="middle" x="242" y="-20.3" font-family="Times,serif" font-size="14.00">Sphere(N₁, 0. TOP&#45;REAL(N₁),R₂) ⊆ X₃</text>
</a>
</g>
</g>
<!-- c_0_68&#45;&gt;c_0_76 -->
<g id="edge3" class="edge">
<title>c_0_68&#45;&gt;c_0_76</title>
<path fill="none" stroke="black" stroke-dasharray="5,2" d="M242,-143.33C242,-143.33 242,-116.89 242,-116.89"/>
<polygon fill="black" stroke="black" points="245.5,-116.89 242,-106.89 238.5,-116.89 245.5,-116.89"/>
</g>
</g>
</svg>
