<?xml version="1.0" encoding="UTF-8" standalone="no"?>
<!DOCTYPE svg PUBLIC "-//W3C//DTD SVG 1.1//EN"
 "http://www.w3.org/Graphics/SVG/1.1/DTD/svg11.dtd">
<!-- Generated by graphviz version 5.0.0 (0)
 -->
<!-- Title: proof Pages: 1 -->
<svg width="1778pt" height="280pt"
 viewBox="0.00 0.00 1778.00 280.00" xmlns="http://www.w3.org/2000/svg" xmlns:xlink="http://www.w3.org/1999/xlink">
<g id="graph0" class="graph" transform="scale(1 1) rotate(0) translate(4 276)">
<title>proof</title>
<g id="clust1" class="cluster">
<title>cluster_0</title>
<polygon fill="transparent" stroke="black" stroke-dasharray="1,5" points="848,-187 848,-264 1105,-264 1105,-187 848,-187"/>
</g>
<g id="clust2" class="cluster">
<title>cluster_1</title>
<polygon fill="transparent" stroke="black" stroke-width="2" points="976,-135 976,-167 1034,-167 1034,-135 976,-135"/>
</g>
<g id="clust3" class="cluster">
<title>cluster_2</title>
<polygon fill="transparent" stroke="black" stroke-dasharray="1,5" points="8,-8 8,-115 1762,-115 1762,-8 8,-8"/>
</g>
<!-- c_0_101 -->
<g id="node1" class="node">
<title>c_0_101</title>
<g id="a_node1"><a xlink:href="c_0_101.html" xlink:title="{X₁ ⊆ ℕ|X₂ ∈ X₁|⇊|X₂ ∈ ℕ}" target="_vizar">
<polygon fill="#f8edd1" stroke="#7f7542" points="1047,-195.5 1047,-255.5 1097,-255.5 1097,-195.5 1047,-195.5"/>
<text text-anchor="middle" x="1072" y="-244.3" font-family="Times,serif" font-size="14.00">X₁ ⊆ ℕ</text>
<polyline fill="none" stroke="#7f7542" points="1047,-240.5 1097,-240.5 "/>
<text text-anchor="middle" x="1072" y="-229.3" font-family="Times,serif" font-size="14.00">X₂ ∈ X₁</text>
<polyline fill="none" stroke="#7f7542" points="1047,-225.5 1097,-225.5 "/>
<text text-anchor="middle" x="1072" y="-214.3" font-family="Times,serif" font-size="14.00">⇊</text>
<polyline fill="none" stroke="#7f7542" points="1047,-210.5 1097,-210.5 "/>
<text text-anchor="middle" x="1072" y="-199.3" font-family="Times,serif" font-size="14.00">X₂ ∈ ℕ</text>
</a>
</g>
</g>
<!-- c_0_102 -->
<g id="node4" class="node">
<title>c_0_102</title>
<g id="a_node4"><a xlink:href="c_0_102.html" xlink:title="{2 ∈ ℕ}" target="_vizar">
<polygon fill="#f8edd1" stroke="#7f7542" points="984,-143.5 984,-158.5 1026,-158.5 1026,-143.5 984,-143.5"/>
<text text-anchor="middle" x="1005" y="-147.3" font-family="Times,serif" font-size="14.00">2 ∈ ℕ</text>
</a>
</g>
</g>
<!-- c_0_101&#45;&gt;c_0_102 -->
<g id="edge1" class="edge">
<title>c_0_101&#45;&gt;c_0_102</title>
<path fill="none" stroke="black" d="M1046.9,-206C1030.46,-206 1012,-206 1012,-206 1012,-206 1012,-168.65 1012,-168.65"/>
<polygon fill="black" stroke="black" points="1015.5,-168.65 1012,-158.65 1008.5,-168.65 1015.5,-168.65"/>
</g>
<!-- c_0_103 -->
<g id="node2" class="node">
<title>c_0_103</title>
<g id="a_node2"><a xlink:href="c_0_103.html" xlink:title="{ℕ ⊆ ℕ}" target="_vizar">
<polygon fill="#f8edd1" stroke="#7f7542" points="981.5,-218 981.5,-233 1028.5,-233 1028.5,-218 981.5,-218"/>
<text text-anchor="middle" x="1005" y="-221.8" font-family="Times,serif" font-size="14.00">ℕ ⊆ ℕ</text>
</a>
</g>
</g>
<!-- c_0_103&#45;&gt;c_0_102 -->
<g id="edge2" class="edge">
<title>c_0_103&#45;&gt;c_0_102</title>
<path fill="none" stroke="black" d="M998,-217.81C998,-217.81 998,-168.76 998,-168.76"/>
<polygon fill="black" stroke="black" points="1001.5,-168.76 998,-158.76 994.5,-168.76 1001.5,-168.76"/>
</g>
<!-- spc2_numerals -->
<g id="node3" class="node">
<title>spc2_numerals</title>
<g id="a_node3"><a xlink:href="spc2_numerals.html" xlink:title="spc2_numerals" target="_vizar">
<polygon fill="#69d2e7" stroke="#7f7542" points="856.5,-218 856.5,-233 963.5,-233 963.5,-218 856.5,-218"/>
<text text-anchor="middle" x="910" y="-221.8" font-family="Times,serif" font-size="14.00">spc2_numerals</text>
</a>
</g>
</g>
<!-- spc2_numerals&#45;&gt;c_0_102 -->
<g id="edge3" class="edge">
<title>spc2_numerals&#45;&gt;c_0_102</title>
<path fill="none" stroke="black" d="M910,-217.74C910,-199.04 910,-153 910,-153 910,-153 973.92,-153 973.92,-153"/>
<polygon fill="black" stroke="black" points="973.92,-156.5 983.92,-153 973.92,-149.5 973.92,-156.5"/>
</g>
<!-- c_0_115 -->
<g id="node5" class="node">
<title>c_0_115</title>
<g id="a_node5"><a xlink:href="c_0_115.html" xlink:title="{ 0. TOP&#45;REAL(2) ∈ carrier(TOP&#45;REAL(2))|SubSpace(Tcircle(2, 0. TOP&#45;REAL(2),R₁),TOP&#45;REAL(2))|TopSpace&#45;like(TOP&#45;REAL(2))|TopStruct(TOP&#45;REAL(2))|⇊|SubSpace(Tcircle(2, 0. TOP&#45;REAL(2),R₁),Trectangle(&#45;(R₁),R₁,&#45;(R₁),R₁))}" target="_vizar">
<polygon fill="#f8edd1" stroke="#7f7542" points="1266.5,-16.5 1266.5,-106.5 1753.5,-106.5 1753.5,-16.5 1266.5,-16.5"/>
<text text-anchor="middle" x="1510" y="-95.3" font-family="Times,serif" font-size="14.00">0. TOP&#45;REAL(2) ∈ carrier(TOP&#45;REAL(2))</text>
<polyline fill="none" stroke="#7f7542" points="1266.5,-91.5 1753.5,-91.5 "/>
<text text-anchor="middle" x="1510" y="-80.3" font-family="Times,serif" font-size="14.00">SubSpace(Tcircle(2, 0. TOP&#45;REAL(2),R₁),TOP&#45;REAL(2))</text>
<polyline fill="none" stroke="#7f7542" points="1266.5,-76.5 1753.5,-76.5 "/>
<text text-anchor="middle" x="1510" y="-65.3" font-family="Times,serif" font-size="14.00">TopSpace&#45;like(TOP&#45;REAL(2))</text>
<polyline fill="none" stroke="#7f7542" points="1266.5,-61.5 1753.5,-61.5 "/>
<text text-anchor="middle" x="1510" y="-50.3" font-family="Times,serif" font-size="14.00">TopStruct(TOP&#45;REAL(2))</text>
<polyline fill="none" stroke="#7f7542" points="1266.5,-46.5 1753.5,-46.5 "/>
<text text-anchor="middle" x="1510" y="-35.3" font-family="Times,serif" font-size="14.00">⇊</text>
<polyline fill="none" stroke="#7f7542" points="1266.5,-31.5 1753.5,-31.5 "/>
<text text-anchor="middle" x="1510" y="-20.3" font-family="Times,serif" font-size="14.00">SubSpace(Tcircle(2, 0. TOP&#45;REAL(2),R₁),Trectangle(&#45;(R₁),R₁,&#45;(R₁),R₁))</text>
</a>
</g>
</g>
<!-- c_0_102&#45;&gt;c_0_115 -->
<g id="edge4" class="edge">
<title>c_0_102&#45;&gt;c_0_115</title>
<path fill="none" stroke="black" stroke-dasharray="5,2" d="M1022,-143.07C1022,-129.44 1022,-103 1022,-103 1022,-103 1256.36,-103 1256.36,-103"/>
<polygon fill="black" stroke="black" points="1256.36,-106.5 1266.36,-103 1256.36,-99.5 1256.36,-106.5"/>
</g>
<!-- c_0_135 -->
<g id="node6" class="node">
<title>c_0_135</title>
<g id="a_node6"><a xlink:href="c_0_135.html" xlink:title="⊥" target="_vizar">
<polygon fill="#fa6900" stroke="#7f7542" points="1234,-54 1234,-69 1248,-69 1248,-54 1234,-54"/>
<text text-anchor="middle" x="1241" y="-57.8" font-family="Times,serif" font-size="14.00">⊥</text>
</a>
</g>
</g>
<!-- c_0_102&#45;&gt;c_0_135 -->
<g id="edge5" class="edge">
<title>c_0_102&#45;&gt;c_0_135</title>
<path fill="none" stroke="black" stroke-dasharray="5,2" d="M1026.36,-151C1084.45,-151 1241,-151 1241,-151 1241,-151 1241,-79.13 1241,-79.13"/>
<polygon fill="black" stroke="black" points="1244.5,-79.13 1241,-69.13 1237.5,-79.13 1244.5,-79.13"/>
</g>
<!-- c_0_132 -->
<g id="node7" class="node">
<title>c_0_132</title>
<g id="a_node7"><a xlink:href="c_0_132.html" xlink:title="{TopSpace&#45;like(TOP&#45;REAL(2))|TopStruct(TOP&#45;REAL(2))|⇊|⊥}" target="_vizar">
<polygon fill="#fa6900" stroke="#7f7542" points="1014,-31.5 1014,-91.5 1216,-91.5 1216,-31.5 1014,-31.5"/>
<text text-anchor="middle" x="1115" y="-80.3" font-family="Times,serif" font-size="14.00">TopSpace&#45;like(TOP&#45;REAL(2))</text>
<polyline fill="none" stroke="#7f7542" points="1014,-76.5 1216,-76.5 "/>
<text text-anchor="middle" x="1115" y="-65.3" font-family="Times,serif" font-size="14.00">TopStruct(TOP&#45;REAL(2))</text>
<polyline fill="none" stroke="#7f7542" points="1014,-61.5 1216,-61.5 "/>
<text text-anchor="middle" x="1115" y="-50.3" font-family="Times,serif" font-size="14.00">⇊</text>
<polyline fill="none" stroke="#7f7542" points="1014,-46.5 1216,-46.5 "/>
<text text-anchor="middle" x="1115" y="-35.3" font-family="Times,serif" font-size="14.00">⊥</text>
</a>
</g>
</g>
<!-- c_0_102&#45;&gt;c_0_132 -->
<g id="edge6" class="edge">
<title>c_0_102&#45;&gt;c_0_132</title>
<path fill="none" stroke="black" stroke-dasharray="5,2" d="M1018,-143.37C1018,-143.37 1018,-101.84 1018,-101.84"/>
<polygon fill="black" stroke="black" points="1021.5,-101.84 1018,-91.84 1014.5,-101.84 1021.5,-101.84"/>
</g>
<!-- c_0_134 -->
<g id="node8" class="node">
<title>c_0_134</title>
<g id="a_node8"><a xlink:href="c_0_134.html" xlink:title="{¬ (TopStruct(TOP&#45;REAL(2)))}" target="_vizar">
<polygon fill="#fa6900" stroke="#7f7542" points="794,-54 794,-69 996,-69 996,-54 794,-54"/>
<text text-anchor="middle" x="895" y="-57.8" font-family="Times,serif" font-size="14.00">¬ (TopStruct(TOP&#45;REAL(2)))</text>
</a>
</g>
</g>
<!-- c_0_102&#45;&gt;c_0_134 -->
<g id="edge7" class="edge">
<title>c_0_102&#45;&gt;c_0_134</title>
<path fill="none" stroke="black" stroke-dasharray="5,2" d="M992,-143.37C992,-143.37 992,-79.11 992,-79.11"/>
<polygon fill="black" stroke="black" points="995.5,-79.11 992,-69.11 988.5,-79.11 995.5,-79.11"/>
</g>
<!-- c_0_125 -->
<g id="node9" class="node">
<title>c_0_125</title>
<g id="a_node9"><a xlink:href="c_0_125.html" xlink:title="{ 0. TOP&#45;REAL(2) ∈ carrier(TOP&#45;REAL(2))|TopSpace&#45;like(TOP&#45;REAL(2))|TopStruct(TOP&#45;REAL(2))|⇊|⊥}" target="_vizar">
<polygon fill="#fa6900" stroke="#7f7542" points="492.5,-24 492.5,-99 775.5,-99 775.5,-24 492.5,-24"/>
<text text-anchor="middle" x="634" y="-87.8" font-family="Times,serif" font-size="14.00">0. TOP&#45;REAL(2) ∈ carrier(TOP&#45;REAL(2))</text>
<polyline fill="none" stroke="#7f7542" points="492.5,-84 775.5,-84 "/>
<text text-anchor="middle" x="634" y="-72.8" font-family="Times,serif" font-size="14.00">TopSpace&#45;like(TOP&#45;REAL(2))</text>
<polyline fill="none" stroke="#7f7542" points="492.5,-69 775.5,-69 "/>
<text text-anchor="middle" x="634" y="-57.8" font-family="Times,serif" font-size="14.00">TopStruct(TOP&#45;REAL(2))</text>
<polyline fill="none" stroke="#7f7542" points="492.5,-54 775.5,-54 "/>
<text text-anchor="middle" x="634" y="-42.8" font-family="Times,serif" font-size="14.00">⇊</text>
<polyline fill="none" stroke="#7f7542" points="492.5,-39 775.5,-39 "/>
<text text-anchor="middle" x="634" y="-27.8" font-family="Times,serif" font-size="14.00">⊥</text>
</a>
</g>
</g>
<!-- c_0_102&#45;&gt;c_0_125 -->
<g id="edge8" class="edge">
<title>c_0_102&#45;&gt;c_0_125</title>
<path fill="none" stroke="black" stroke-dasharray="5,2" d="M988,-143.21C988,-127.83 988,-95 988,-95 988,-95 785.69,-95 785.69,-95"/>
<polygon fill="black" stroke="black" points="785.69,-91.5 775.69,-95 785.69,-98.5 785.69,-91.5"/>
</g>
<!-- c_0_112 -->
<g id="node10" class="node">
<title>c_0_112</title>
<g id="a_node10"><a xlink:href="c_0_112.html" xlink:title="{ 0. TOP&#45;REAL(2) ∈ carrier(TOP&#45;REAL(2))|⇊|Sphere(2, 0. TOP&#45;REAL(2),R₁) ⊆ a_4_1_jgraph_6(&#45;(R₁),R₁,&#45;(R₁),R₁)}" target="_vizar">
<polygon fill="#f8edd1" stroke="#7f7542" points="16,-39 16,-84 474,-84 474,-39 16,-39"/>
<text text-anchor="middle" x="245" y="-72.8" font-family="Times,serif" font-size="14.00">0. TOP&#45;REAL(2) ∈ carrier(TOP&#45;REAL(2))</text>
<polyline fill="none" stroke="#7f7542" points="16,-69 474,-69 "/>
<text text-anchor="middle" x="245" y="-57.8" font-family="Times,serif" font-size="14.00">⇊</text>
<polyline fill="none" stroke="#7f7542" points="16,-54 474,-54 "/>
<text text-anchor="middle" x="245" y="-42.8" font-family="Times,serif" font-size="14.00">Sphere(2, 0. TOP&#45;REAL(2),R₁) ⊆ a_4_1_jgraph_6(&#45;(R₁),R₁,&#45;(R₁),R₁)</text>
</a>
</g>
</g>
<!-- c_0_102&#45;&gt;c_0_112 -->
<g id="edge9" class="edge">
<title>c_0_102&#45;&gt;c_0_112</title>
<path fill="none" stroke="black" stroke-dasharray="5,2" d="M983.88,-148C861.13,-148 245,-148 245,-148 245,-148 245,-94.23 245,-94.23"/>
<polygon fill="black" stroke="black" points="248.5,-94.23 245,-84.23 241.5,-94.23 248.5,-94.23"/>
</g>
</g>
</svg>
