<?xml version="1.0" encoding="UTF-8" standalone="no"?>
<!DOCTYPE svg PUBLIC "-//W3C//DTD SVG 1.1//EN"
 "http://www.w3.org/Graphics/SVG/1.1/DTD/svg11.dtd">
<!-- Generated by graphviz version 5.0.0 (0)
 -->
<!-- Title: proof Pages: 1 -->
<svg width="492pt" height="340pt"
 viewBox="0.00 0.00 492.00 340.00" xmlns="http://www.w3.org/2000/svg" xmlns:xlink="http://www.w3.org/1999/xlink">
<g id="graph0" class="graph" transform="scale(1 1) rotate(0) translate(4 336)">
<title>proof</title>
<g id="clust1" class="cluster">
<title>cluster_0</title>
<polygon fill="transparent" stroke="black" stroke-dasharray="1,5" points="39,-232 39,-324 433,-324 433,-232 39,-232"/>
</g>
<g id="clust2" class="cluster">
<title>cluster_1</title>
<polygon fill="transparent" stroke="black" stroke-width="2" points="8,-120 8,-212 476,-212 476,-120 8,-120"/>
</g>
<g id="clust3" class="cluster">
<title>cluster_2</title>
<polygon fill="transparent" stroke="black" stroke-dasharray="1,5" points="60,-8 60,-100 424,-100 424,-8 60,-8"/>
</g>
<!-- c_0_40 -->
<g id="node1" class="node">
<title>c_0_40</title>
<g id="a_node1"><a xlink:href="c_0_40.html" xlink:title="{X₁ ∈ ℕ|X₃ ∈ Sphere(X₁, 0. TOP&#45;REAL(X₁),R₂)|X₃ ∈ carrier(TOP&#45;REAL(X₁))|⇊| \|....\| X₃ = R₂}" target="_vizar">
<polygon fill="#f8edd1" stroke="#7f7542" points="167,-240.5 167,-315.5 425,-315.5 425,-240.5 167,-240.5"/>
<text text-anchor="middle" x="296" y="-304.3" font-family="Times,serif" font-size="14.00">X₁ ∈ ℕ</text>
<polyline fill="none" stroke="#7f7542" points="167,-300.5 425,-300.5 "/>
<text text-anchor="middle" x="296" y="-289.3" font-family="Times,serif" font-size="14.00">X₃ ∈ Sphere(X₁, 0. TOP&#45;REAL(X₁),R₂)</text>
<polyline fill="none" stroke="#7f7542" points="167,-285.5 425,-285.5 "/>
<text text-anchor="middle" x="296" y="-274.3" font-family="Times,serif" font-size="14.00">X₃ ∈ carrier(TOP&#45;REAL(X₁))</text>
<polyline fill="none" stroke="#7f7542" points="167,-270.5 425,-270.5 "/>
<text text-anchor="middle" x="296" y="-259.3" font-family="Times,serif" font-size="14.00">⇊</text>
<polyline fill="none" stroke="#7f7542" points="167,-255.5 425,-255.5 "/>
<text text-anchor="middle" x="296" y="-244.3" font-family="Times,serif" font-size="14.00">|....| X₃ = R₂</text>
</a>
</g>
</g>
<!-- c_0_49 -->
<g id="node3" class="node">
<title>c_0_49</title>
<g id="a_node3"><a xlink:href="c_0_49.html" xlink:title="{X₁ ∈ ℕ|sk₂(Sphere(X₁, 0. TOP&#45;REAL(X₁),R₂),X₃) ∈ carrier(TOP&#45;REAL(X₁))|⇊| \|....\| sk₂(Sphere(X₁, 0. TOP&#45;REAL(X₁),R₂),X₃) = R₂|Sphere(X₁, 0. TOP&#45;REAL(X₁),R₂) ⊆ X₃}" target="_vizar">
<polygon fill="#f8edd1" stroke="#7f7542" points="16,-128.5 16,-203.5 468,-203.5 468,-128.5 16,-128.5"/>
<text text-anchor="middle" x="242" y="-192.3" font-family="Times,serif" font-size="14.00">X₁ ∈ ℕ</text>
<polyline fill="none" stroke="#7f7542" points="16,-188.5 468,-188.5 "/>
<text text-anchor="middle" x="242" y="-177.3" font-family="Times,serif" font-size="14.00">sk₂(Sphere(X₁, 0. TOP&#45;REAL(X₁),R₂),X₃) ∈ carrier(TOP&#45;REAL(X₁))</text>
<polyline fill="none" stroke="#7f7542" points="16,-173.5 468,-173.5 "/>
<text text-anchor="middle" x="242" y="-162.3" font-family="Times,serif" font-size="14.00">⇊</text>
<polyline fill="none" stroke="#7f7542" points="16,-158.5 468,-158.5 "/>
<text text-anchor="middle" x="242" y="-147.3" font-family="Times,serif" font-size="14.00">|....| sk₂(Sphere(X₁, 0. TOP&#45;REAL(X₁),R₂),X₃) = R₂</text>
<polyline fill="none" stroke="#7f7542" points="16,-143.5 468,-143.5 "/>
<text text-anchor="middle" x="242" y="-132.3" font-family="Times,serif" font-size="14.00">Sphere(X₁, 0. TOP&#45;REAL(X₁),R₂) ⊆ X₃</text>
</a>
</g>
</g>
<!-- c_0_40&#45;&gt;c_0_49 -->
<g id="edge1" class="edge">
<title>c_0_40&#45;&gt;c_0_49</title>
<path fill="none" stroke="black" d="M296,-240.39C296,-240.39 296,-213.7 296,-213.7"/>
<polygon fill="black" stroke="black" points="299.5,-213.7 296,-203.7 292.5,-213.7 299.5,-213.7"/>
</g>
<!-- c_0_41 -->
<g id="node2" class="node">
<title>c_0_41</title>
<g id="a_node2"><a xlink:href="c_0_41.html" xlink:title="{X₁ ⊆ X₂|sk₂(X₁,X₂) ∈ X₁}" target="_vizar">
<polygon fill="#f8edd1" stroke="#7f7542" points="47.5,-263 47.5,-293 148.5,-293 148.5,-263 47.5,-263"/>
<text text-anchor="middle" x="98" y="-281.8" font-family="Times,serif" font-size="14.00">X₁ ⊆ X₂</text>
<polyline fill="none" stroke="#7f7542" points="47.5,-278 148.5,-278 "/>
<text text-anchor="middle" x="98" y="-266.8" font-family="Times,serif" font-size="14.00">sk₂(X₁,X₂) ∈ X₁</text>
</a>
</g>
</g>
<!-- c_0_41&#45;&gt;c_0_49 -->
<g id="edge2" class="edge">
<title>c_0_41&#45;&gt;c_0_49</title>
<path fill="none" stroke="black" d="M98,-262.9C98,-262.9 98,-213.94 98,-213.94"/>
<polygon fill="black" stroke="black" points="101.5,-213.94 98,-203.94 94.5,-213.94 101.5,-213.94"/>
</g>
<!-- c_0_58 -->
<g id="node4" class="node">
<title>c_0_58</title>
<g id="a_node4"><a xlink:href="c_0_58.html" xlink:title="{ 0. TOP&#45;REAL(N₁) ∈ carrier(TOP&#45;REAL(N₁))|N₁ ∈ ℕ|⇊| \|....\| sk₂(Sphere(N₁, 0. TOP&#45;REAL(N₁),R₂),X₃) = R₂|Sphere(N₁, 0. TOP&#45;REAL(N₁),R₂) ⊆ X₃}" target="_vizar">
<polygon fill="#f8edd1" stroke="#7f7542" points="68.5,-16.5 68.5,-91.5 415.5,-91.5 415.5,-16.5 68.5,-16.5"/>
<text text-anchor="middle" x="242" y="-80.3" font-family="Times,serif" font-size="14.00">0. TOP&#45;REAL(N₁) ∈ carrier(TOP&#45;REAL(N₁))</text>
<polyline fill="none" stroke="#7f7542" points="68.5,-76.5 415.5,-76.5 "/>
<text text-anchor="middle" x="242" y="-65.3" font-family="Times,serif" font-size="14.00">N₁ ∈ ℕ</text>
<polyline fill="none" stroke="#7f7542" points="68.5,-61.5 415.5,-61.5 "/>
<text text-anchor="middle" x="242" y="-50.3" font-family="Times,serif" font-size="14.00">⇊</text>
<polyline fill="none" stroke="#7f7542" points="68.5,-46.5 415.5,-46.5 "/>
<text text-anchor="middle" x="242" y="-35.3" font-family="Times,serif" font-size="14.00">|....| sk₂(Sphere(N₁, 0. TOP&#45;REAL(N₁),R₂),X₃) = R₂</text>
<polyline fill="none" stroke="#7f7542" points="68.5,-31.5 415.5,-31.5 "/>
<text text-anchor="middle" x="242" y="-20.3" font-family="Times,serif" font-size="14.00">Sphere(N₁, 0. TOP&#45;REAL(N₁),R₂) ⊆ X₃</text>
</a>
</g>
</g>
<!-- c_0_49&#45;&gt;c_0_58 -->
<g id="edge3" class="edge">
<title>c_0_49&#45;&gt;c_0_58</title>
<path fill="none" stroke="black" stroke-dasharray="5,2" d="M242,-128.39C242,-128.39 242,-101.7 242,-101.7"/>
<polygon fill="black" stroke="black" points="245.5,-101.7 242,-91.7 238.5,-101.7 245.5,-101.7"/>
</g>
</g>
</svg>
