<?xml version="1.0" encoding="UTF-8" standalone="no"?>
<!DOCTYPE svg PUBLIC "-//W3C//DTD SVG 1.1//EN"
 "http://www.w3.org/Graphics/SVG/1.1/DTD/svg11.dtd">
<!-- Generated by graphviz version 5.0.0 (0)
 -->
<!-- Title: proof Pages: 1 -->
<svg width="433pt" height="235pt"
 viewBox="0.00 0.00 433.00 235.00" xmlns="http://www.w3.org/2000/svg" xmlns:xlink="http://www.w3.org/1999/xlink">
<g id="graph0" class="graph" transform="scale(1 1) rotate(0) translate(4 231)">
<title>proof</title>
<g id="clust1" class="cluster">
<title>cluster_0</title>
<polygon fill="transparent" stroke="black" stroke-dasharray="1,5" points="145,-187 145,-219 279,-219 279,-187 145,-187"/>
</g>
<g id="clust2" class="cluster">
<title>cluster_1</title>
<polygon fill="transparent" stroke="black" stroke-width="2" points="179,-90 179,-167 245,-167 245,-90 179,-90"/>
</g>
<g id="clust3" class="cluster">
<title>cluster_2</title>
<polygon fill="transparent" stroke="black" stroke-dasharray="1,5" points="8,-8 8,-70 417,-70 417,-8 8,-8"/>
</g>
<!-- cc14_membered -->
<g id="node1" class="node">
<title>cc14_membered</title>
<g id="a_node1"><a xlink:href="cc14_membered.html" xlink:title="cc14_membered" target="_vizar">
<polygon fill="#69d2e7" stroke="#7f7542" points="153.5,-195.5 153.5,-210.5 270.5,-210.5 270.5,-195.5 153.5,-195.5"/>
<text text-anchor="middle" x="212" y="-199.3" font-family="Times,serif" font-size="14.00">cc14_membered</text>
</a>
</g>
</g>
<!-- c_0_78 -->
<g id="node2" class="node">
<title>c_0_78</title>
<g id="a_node2"><a xlink:href="c_0_78.html" xlink:title="{X₁ ⊆ ℝ|X₂ ∈ X₁|⇊|X₂ ∈ ℝ}" target="_vizar">
<polygon fill="#f8edd1" stroke="#7f7542" points="187,-98.5 187,-158.5 237,-158.5 237,-98.5 187,-98.5"/>
<text text-anchor="middle" x="212" y="-147.3" font-family="Times,serif" font-size="14.00">X₁ ⊆ ℝ</text>
<polyline fill="none" stroke="#7f7542" points="187,-143.5 237,-143.5 "/>
<text text-anchor="middle" x="212" y="-132.3" font-family="Times,serif" font-size="14.00">X₂ ∈ X₁</text>
<polyline fill="none" stroke="#7f7542" points="187,-128.5 237,-128.5 "/>
<text text-anchor="middle" x="212" y="-117.3" font-family="Times,serif" font-size="14.00">⇊</text>
<polyline fill="none" stroke="#7f7542" points="187,-113.5 237,-113.5 "/>
<text text-anchor="middle" x="212" y="-102.3" font-family="Times,serif" font-size="14.00">X₂ ∈ ℝ</text>
</a>
</g>
</g>
<!-- cc14_membered&#45;&gt;c_0_78 -->
<g id="edge1" class="edge">
<title>cc14_membered&#45;&gt;c_0_78</title>
<path fill="none" stroke="black" d="M212,-195.31C212,-195.31 212,-168.51 212,-168.51"/>
<polygon fill="black" stroke="black" points="215.5,-168.51 212,-158.51 208.5,-168.51 215.5,-168.51"/>
</g>
<!-- c_0_79 -->
<g id="node3" class="node">
<title>c_0_79</title>
<g id="a_node3"><a xlink:href="c_0_79.html" xlink:title="{X₁ ∈ carrier(TOP&#45;REAL(2))|⇊| `1 X₁ ∈ ℝ}" target="_vizar">
<polygon fill="#f8edd1" stroke="#7f7542" points="221.5,-16.5 221.5,-61.5 408.5,-61.5 408.5,-16.5 221.5,-16.5"/>
<text text-anchor="middle" x="315" y="-50.3" font-family="Times,serif" font-size="14.00">X₁ ∈ carrier(TOP&#45;REAL(2))</text>
<polyline fill="none" stroke="#7f7542" points="221.5,-46.5 408.5,-46.5 "/>
<text text-anchor="middle" x="315" y="-35.3" font-family="Times,serif" font-size="14.00">⇊</text>
<polyline fill="none" stroke="#7f7542" points="221.5,-31.5 408.5,-31.5 "/>
<text text-anchor="middle" x="315" y="-20.3" font-family="Times,serif" font-size="14.00">`1 X₁ ∈ ℝ</text>
</a>
</g>
</g>
<!-- c_0_78&#45;&gt;c_0_79 -->
<g id="edge2" class="edge">
<title>c_0_78&#45;&gt;c_0_79</title>
<path fill="none" stroke="black" stroke-dasharray="5,2" d="M229.25,-98.2C229.25,-98.2 229.25,-71.63 229.25,-71.63"/>
<polygon fill="black" stroke="black" points="232.75,-71.63 229.25,-61.63 225.75,-71.63 232.75,-71.63"/>
</g>
<!-- c_0_81 -->
<g id="node4" class="node">
<title>c_0_81</title>
<g id="a_node4"><a xlink:href="c_0_81.html" xlink:title="{X₁ ∈ carrier(TOP&#45;REAL(2))|⇊| `2 X₁ ∈ ℝ}" target="_vizar">
<polygon fill="#f8edd1" stroke="#7f7542" points="16.5,-16.5 16.5,-61.5 203.5,-61.5 203.5,-16.5 16.5,-16.5"/>
<text text-anchor="middle" x="110" y="-50.3" font-family="Times,serif" font-size="14.00">X₁ ∈ carrier(TOP&#45;REAL(2))</text>
<polyline fill="none" stroke="#7f7542" points="16.5,-46.5 203.5,-46.5 "/>
<text text-anchor="middle" x="110" y="-35.3" font-family="Times,serif" font-size="14.00">⇊</text>
<polyline fill="none" stroke="#7f7542" points="16.5,-31.5 203.5,-31.5 "/>
<text text-anchor="middle" x="110" y="-20.3" font-family="Times,serif" font-size="14.00">`2 X₁ ∈ ℝ</text>
</a>
</g>
</g>
<!-- c_0_78&#45;&gt;c_0_81 -->
<g id="edge3" class="edge">
<title>c_0_78&#45;&gt;c_0_81</title>
<path fill="none" stroke="black" stroke-dasharray="5,2" d="M195.25,-98.2C195.25,-98.2 195.25,-71.63 195.25,-71.63"/>
<polygon fill="black" stroke="black" points="198.75,-71.63 195.25,-61.63 191.75,-71.63 198.75,-71.63"/>
</g>
</g>
</svg>
