<?xml version="1.0" encoding="UTF-8" standalone="no"?>
<!DOCTYPE svg PUBLIC "-//W3C//DTD SVG 1.1//EN"
 "http://www.w3.org/Graphics/SVG/1.1/DTD/svg11.dtd">
<!-- Generated by graphviz version 5.0.0 (0)
 -->
<!-- Title: proof Pages: 1 -->
<svg width="532pt" height="205pt"
 viewBox="0.00 0.00 532.00 205.00" xmlns="http://www.w3.org/2000/svg" xmlns:xlink="http://www.w3.org/1999/xlink">
<g id="graph0" class="graph" transform="scale(1 1) rotate(0) translate(4 201)">
<title>proof</title>
<g id="clust1" class="cluster">
<title>cluster_0</title>
<polygon fill="transparent" stroke="black" stroke-dasharray="1,5" points="8,-112 8,-189 516,-189 516,-112 8,-112"/>
</g>
<g id="clust2" class="cluster">
<title>cluster_1</title>
<polygon fill="transparent" stroke="black" stroke-width="2" points="148,-60 148,-92 366,-92 366,-60 148,-60"/>
</g>
<g id="clust3" class="cluster">
<title>cluster_2</title>
<polygon fill="transparent" stroke="black" stroke-dasharray="1,5" points="242,-8 242,-40 272,-40 272,-8 242,-8"/>
</g>
<!-- c_0_133 -->
<g id="node1" class="node">
<title>c_0_133</title>
<g id="a_node1"><a xlink:href="c_0_133.html" xlink:title="{TopSpace&#45;like(TOP&#45;REAL(N₁))}" target="_vizar">
<polygon fill="#f8edd1" stroke="#7f7542" points="296.5,-143 296.5,-158 507.5,-158 507.5,-143 296.5,-143"/>
<text text-anchor="middle" x="402" y="-146.8" font-family="Times,serif" font-size="14.00">TopSpace&#45;like(TOP&#45;REAL(N₁))</text>
</a>
</g>
</g>
<!-- c_0_134 -->
<g id="node4" class="node">
<title>c_0_134</title>
<g id="a_node4"><a xlink:href="c_0_134.html" xlink:title="{¬ (TopStruct(TOP&#45;REAL(2)))}" target="_vizar">
<polygon fill="#fa6900" stroke="#7f7542" points="156,-68.5 156,-83.5 358,-83.5 358,-68.5 156,-68.5"/>
<text text-anchor="middle" x="257" y="-72.3" font-family="Times,serif" font-size="14.00">¬ (TopStruct(TOP&#45;REAL(2)))</text>
</a>
</g>
</g>
<!-- c_0_133&#45;&gt;c_0_134 -->
<g id="edge1" class="edge">
<title>c_0_133&#45;&gt;c_0_134</title>
<path fill="none" stroke="black" d="M327.25,-142.81C327.25,-142.81 327.25,-93.76 327.25,-93.76"/>
<polygon fill="black" stroke="black" points="330.75,-93.76 327.25,-83.76 323.75,-93.76 330.75,-93.76"/>
</g>
<!-- c_0_102 -->
<g id="node2" class="node">
<title>c_0_102</title>
<g id="a_node2"><a xlink:href="c_0_102.html" xlink:title="{2 ∈ ℕ}" target="_vizar">
<polygon fill="#f8edd1" stroke="#7f7542" points="236,-143 236,-158 278,-158 278,-143 236,-143"/>
<text text-anchor="middle" x="257" y="-146.8" font-family="Times,serif" font-size="14.00">2 ∈ ℕ</text>
</a>
</g>
</g>
<!-- c_0_102&#45;&gt;c_0_134 -->
<g id="edge2" class="edge">
<title>c_0_102&#45;&gt;c_0_134</title>
<path fill="none" stroke="black" d="M257,-142.81C257,-142.81 257,-93.76 257,-93.76"/>
<polygon fill="black" stroke="black" points="260.5,-93.76 257,-83.76 253.5,-93.76 260.5,-93.76"/>
</g>
<!-- c_0_132 -->
<g id="node3" class="node">
<title>c_0_132</title>
<g id="a_node3"><a xlink:href="c_0_132.html" xlink:title="{TopSpace&#45;like(TOP&#45;REAL(2))|TopStruct(TOP&#45;REAL(2))|⇊|⊥}" target="_vizar">
<polygon fill="#fa6900" stroke="#7f7542" points="16,-120.5 16,-180.5 218,-180.5 218,-120.5 16,-120.5"/>
<text text-anchor="middle" x="117" y="-169.3" font-family="Times,serif" font-size="14.00">TopSpace&#45;like(TOP&#45;REAL(2))</text>
<polyline fill="none" stroke="#7f7542" points="16,-165.5 218,-165.5 "/>
<text text-anchor="middle" x="117" y="-154.3" font-family="Times,serif" font-size="14.00">TopStruct(TOP&#45;REAL(2))</text>
<polyline fill="none" stroke="#7f7542" points="16,-150.5 218,-150.5 "/>
<text text-anchor="middle" x="117" y="-139.3" font-family="Times,serif" font-size="14.00">⇊</text>
<polyline fill="none" stroke="#7f7542" points="16,-135.5 218,-135.5 "/>
<text text-anchor="middle" x="117" y="-124.3" font-family="Times,serif" font-size="14.00">⊥</text>
</a>
</g>
</g>
<!-- c_0_132&#45;&gt;c_0_134 -->
<g id="edge3" class="edge">
<title>c_0_132&#45;&gt;c_0_134</title>
<path fill="none" stroke="black" d="M187,-120.2C187,-120.2 187,-93.59 187,-93.59"/>
<polygon fill="black" stroke="black" points="190.5,-93.59 187,-83.59 183.5,-93.59 190.5,-93.59"/>
</g>
<!-- c_0_135 -->
<g id="node5" class="node">
<title>c_0_135</title>
<g id="a_node5"><a xlink:href="c_0_135.html" xlink:title="⊥" target="_vizar">
<polygon fill="#fa6900" stroke="#7f7542" points="250,-16.5 250,-31.5 264,-31.5 264,-16.5 250,-16.5"/>
<text text-anchor="middle" x="257" y="-20.3" font-family="Times,serif" font-size="14.00">⊥</text>
</a>
</g>
</g>
<!-- c_0_134&#45;&gt;c_0_135 -->
<g id="edge4" class="edge">
<title>c_0_134&#45;&gt;c_0_135</title>
<path fill="none" stroke="black" stroke-dasharray="5,2" d="M257,-68.33C257,-68.33 257,-41.7 257,-41.7"/>
<polygon fill="black" stroke="black" points="260.5,-41.7 257,-31.7 253.5,-41.7 260.5,-41.7"/>
</g>
</g>
</svg>
