<?xml version="1.0" encoding="UTF-8" standalone="no"?>
<!DOCTYPE svg PUBLIC "-//W3C//DTD SVG 1.1//EN"
 "http://www.w3.org/Graphics/SVG/1.1/DTD/svg11.dtd">
<!-- Generated by graphviz version 5.0.0 (0)
 -->
<!-- Title: proof Pages: 1 -->
<svg width="434pt" height="160pt"
 viewBox="0.00 0.00 434.00 160.00" xmlns="http://www.w3.org/2000/svg" xmlns:xlink="http://www.w3.org/1999/xlink">
<g id="graph0" class="graph" transform="scale(1 1) rotate(0) translate(4 156)">
<title>proof</title>
<g id="clust1" class="cluster">
<title>cluster_0</title>
<polygon fill="transparent" stroke="black" stroke-dasharray="1,5" points="155,-112 155,-144 269,-144 269,-112 155,-112"/>
</g>
<g id="clust2" class="cluster">
<title>cluster_1</title>
<polygon fill="transparent" stroke="black" stroke-width="2" points="104,-60 104,-92 320,-92 320,-60 104,-60"/>
</g>
<g id="clust3" class="cluster">
<title>cluster_2</title>
<polygon fill="transparent" stroke="black" stroke-dasharray="1,5" points="8,-8 8,-40 418,-40 418,-8 8,-8"/>
</g>
<!-- dt_k15_euclid -->
<g id="node1" class="node">
<title>dt_k15_euclid</title>
<g id="a_node1"><a xlink:href="dt_k15_euclid.html" xlink:title="dt_k15_euclid" target="_parent">
<polygon fill="#69d2e7" stroke="#7f7542" points="163,-120.5 163,-135.5 261,-135.5 261,-120.5 163,-120.5"/>
<text text-anchor="middle" x="212" y="-124.3" font-family="Times,serif" font-size="14.00">dt_k15_euclid</text>
</a>
</g>
</g>
<!-- c_0_98 -->
<g id="node2" class="node">
<title>c_0_98</title>
<g id="a_node2"><a xlink:href="c_0_98.html" xlink:title="{RLTopStruct(TOP&#45;REAL(C₁))}" target="_parent">
<polygon fill="#f8edd1" stroke="#7f7542" points="112,-68.5 112,-83.5 312,-83.5 312,-68.5 112,-68.5"/>
<text text-anchor="middle" x="212" y="-72.3" font-family="Times,serif" font-size="14.00">RLTopStruct(TOP&#45;REAL(C₁))</text>
</a>
</g>
</g>
<!-- dt_k15_euclid&#45;&gt;c_0_98 -->
<g id="edge1" class="edge">
<title>dt_k15_euclid&#45;&gt;c_0_98</title>
<path fill="none" stroke="black" d="M212,-120.33C212,-120.33 212,-93.7 212,-93.7"/>
<polygon fill="black" stroke="black" points="215.5,-93.7 212,-83.7 208.5,-93.7 215.5,-93.7"/>
</g>
<!-- c_0_107 -->
<g id="node3" class="node">
<title>c_0_107</title>
<g id="a_node3"><a xlink:href="c_0_107.html" xlink:title="{TopStruct(TOP&#45;REAL(C₁))}" target="_parent">
<polygon fill="#f8edd1" stroke="#7f7542" points="228.5,-16.5 228.5,-31.5 409.5,-31.5 409.5,-16.5 228.5,-16.5"/>
<text text-anchor="middle" x="319" y="-20.3" font-family="Times,serif" font-size="14.00">TopStruct(TOP&#45;REAL(C₁))</text>
</a>
</g>
</g>
<!-- c_0_98&#45;&gt;c_0_107 -->
<g id="edge2" class="edge">
<title>c_0_98&#45;&gt;c_0_107</title>
<path fill="none" stroke="black" stroke-dasharray="5,2" d="M270.25,-68.33C270.25,-68.33 270.25,-41.7 270.25,-41.7"/>
<polygon fill="black" stroke="black" points="273.75,-41.7 270.25,-31.7 266.75,-41.7 273.75,-41.7"/>
</g>
<!-- c_0_128 -->
<g id="node4" class="node">
<title>c_0_128</title>
<g id="a_node4"><a xlink:href="c_0_128.html" xlink:title="{addLoopStr(TOP&#45;REAL(C₁))}" target="_parent">
<polygon fill="#f8edd1" stroke="#7f7542" points="16,-16.5 16,-31.5 210,-31.5 210,-16.5 16,-16.5"/>
<text text-anchor="middle" x="113" y="-20.3" font-family="Times,serif" font-size="14.00">addLoopStr(TOP&#45;REAL(C₁))</text>
</a>
</g>
</g>
<!-- c_0_98&#45;&gt;c_0_128 -->
<g id="edge3" class="edge">
<title>c_0_98&#45;&gt;c_0_128</title>
<path fill="none" stroke="black" stroke-dasharray="5,2" d="M161,-68.33C161,-68.33 161,-41.7 161,-41.7"/>
<polygon fill="black" stroke="black" points="164.5,-41.7 161,-31.7 157.5,-41.7 164.5,-41.7"/>
</g>
</g>
</svg>
