<?xml version="1.0" encoding="UTF-8" standalone="no"?>
<!DOCTYPE svg PUBLIC "-//W3C//DTD SVG 1.1//EN"
 "http://www.w3.org/Graphics/SVG/1.1/DTD/svg11.dtd">
<!-- Generated by graphviz version 5.0.0 (0)
 -->
<!-- Title: proof Pages: 1 -->
<svg width="272pt" height="355pt"
 viewBox="0.00 0.00 272.00 355.00" xmlns="http://www.w3.org/2000/svg" xmlns:xlink="http://www.w3.org/1999/xlink">
<g id="graph0" class="graph" transform="scale(1 1) rotate(0) translate(4 351)">
<title>proof</title>
<g id="clust1" class="cluster">
<title>cluster_0</title>
<polygon fill="transparent" stroke="black" stroke-dasharray="1,5" points="36,-307 36,-339 228,-339 228,-307 36,-307"/>
</g>
<g id="clust2" class="cluster">
<title>cluster_1</title>
<polygon fill="transparent" stroke="black" stroke-width="2" points="8,-150 8,-287 256,-287 256,-150 8,-150"/>
</g>
<g id="clust3" class="cluster">
<title>cluster_2</title>
<polygon fill="transparent" stroke="black" stroke-dasharray="1,5" points="8,-8 8,-130 256,-130 256,-8 8,-8"/>
</g>
<!-- fraenkel_a_4_1_jgraph_6 -->
<g id="node1" class="node">
<title>fraenkel_a_4_1_jgraph_6</title>
<g id="a_node1"><a xlink:href="fraenkel_a_4_1_jgraph_6.html" xlink:title="fraenkel_a_4_1_jgraph_6" target="_vizar">
<polygon fill="#69d2e7" stroke="#7f7542" points="44.5,-315.5 44.5,-330.5 219.5,-330.5 219.5,-315.5 44.5,-315.5"/>
<text text-anchor="middle" x="132" y="-319.3" font-family="Times,serif" font-size="14.00">fraenkel_a_4_1_jgraph_6</text>
</a>
</g>
</g>
<!-- c_0_46 -->
<g id="node2" class="node">
<title>c_0_46</title>
<g id="a_node2"><a xlink:href="c_0_46.html" xlink:title="{ `1 X₁ ≤ R₄| `2 X₁ ≤ R₆|R₃ ≤ &#160;`1 X₁|R₅ ≤ &#160;`2 X₁|X₁ ∈ carrier(TOP&#45;REAL(2))|X₂ = X₁|⇊|X₂ ∈ a_4_1_jgraph_6(R₃,R₄,R₅,R₆)}" target="_vizar">
<polygon fill="#f8edd1" stroke="#7f7542" points="16.5,-158.5 16.5,-278.5 247.5,-278.5 247.5,-158.5 16.5,-158.5"/>
<text text-anchor="middle" x="132" y="-267.3" font-family="Times,serif" font-size="14.00">`1 X₁ ≤ R₄</text>
<polyline fill="none" stroke="#7f7542" points="16.5,-263.5 247.5,-263.5 "/>
<text text-anchor="middle" x="132" y="-252.3" font-family="Times,serif" font-size="14.00">`2 X₁ ≤ R₆</text>
<polyline fill="none" stroke="#7f7542" points="16.5,-248.5 247.5,-248.5 "/>
<text text-anchor="middle" x="132" y="-237.3" font-family="Times,serif" font-size="14.00">R₃ ≤ `1 X₁</text>
<polyline fill="none" stroke="#7f7542" points="16.5,-233.5 247.5,-233.5 "/>
<text text-anchor="middle" x="132" y="-222.3" font-family="Times,serif" font-size="14.00">R₅ ≤ `2 X₁</text>
<polyline fill="none" stroke="#7f7542" points="16.5,-218.5 247.5,-218.5 "/>
<text text-anchor="middle" x="132" y="-207.3" font-family="Times,serif" font-size="14.00">X₁ ∈ carrier(TOP&#45;REAL(2))</text>
<polyline fill="none" stroke="#7f7542" points="16.5,-203.5 247.5,-203.5 "/>
<text text-anchor="middle" x="132" y="-192.3" font-family="Times,serif" font-size="14.00">X₂ = X₁</text>
<polyline fill="none" stroke="#7f7542" points="16.5,-188.5 247.5,-188.5 "/>
<text text-anchor="middle" x="132" y="-177.3" font-family="Times,serif" font-size="14.00">⇊</text>
<polyline fill="none" stroke="#7f7542" points="16.5,-173.5 247.5,-173.5 "/>
<text text-anchor="middle" x="132" y="-162.3" font-family="Times,serif" font-size="14.00">X₂ ∈ a_4_1_jgraph_6(R₃,R₄,R₅,R₆)</text>
</a>
</g>
</g>
<!-- fraenkel_a_4_1_jgraph_6&#45;&gt;c_0_46 -->
<g id="edge1" class="edge">
<title>fraenkel_a_4_1_jgraph_6&#45;&gt;c_0_46</title>
<path fill="none" stroke="black" d="M132,-315.48C132,-315.48 132,-288.59 132,-288.59"/>
<polygon fill="black" stroke="black" points="135.5,-288.59 132,-278.59 128.5,-288.6 135.5,-288.59"/>
</g>
<!-- c_0_56 -->
<g id="node3" class="node">
<title>c_0_56</title>
<g id="a_node3"><a xlink:href="c_0_56.html" xlink:title="{ `1 X₁ ≤ R₃| `2 X₁ ≤ R₅|R₂ ≤ &#160;`1 X₁|R₄ ≤ &#160;`2 X₁|X₁ ∈ carrier(TOP&#45;REAL(2))|⇊|X₁ ∈ a_4_1_jgraph_6(R₂,R₃,R₄,R₅)}" target="_vizar">
<polygon fill="#f8edd1" stroke="#7f7542" points="16.5,-16.5 16.5,-121.5 247.5,-121.5 247.5,-16.5 16.5,-16.5"/>
<text text-anchor="middle" x="132" y="-110.3" font-family="Times,serif" font-size="14.00">`1 X₁ ≤ R₃</text>
<polyline fill="none" stroke="#7f7542" points="16.5,-106.5 247.5,-106.5 "/>
<text text-anchor="middle" x="132" y="-95.3" font-family="Times,serif" font-size="14.00">`2 X₁ ≤ R₅</text>
<polyline fill="none" stroke="#7f7542" points="16.5,-91.5 247.5,-91.5 "/>
<text text-anchor="middle" x="132" y="-80.3" font-family="Times,serif" font-size="14.00">R₂ ≤ `1 X₁</text>
<polyline fill="none" stroke="#7f7542" points="16.5,-76.5 247.5,-76.5 "/>
<text text-anchor="middle" x="132" y="-65.3" font-family="Times,serif" font-size="14.00">R₄ ≤ `2 X₁</text>
<polyline fill="none" stroke="#7f7542" points="16.5,-61.5 247.5,-61.5 "/>
<text text-anchor="middle" x="132" y="-50.3" font-family="Times,serif" font-size="14.00">X₁ ∈ carrier(TOP&#45;REAL(2))</text>
<polyline fill="none" stroke="#7f7542" points="16.5,-46.5 247.5,-46.5 "/>
<text text-anchor="middle" x="132" y="-35.3" font-family="Times,serif" font-size="14.00">⇊</text>
<polyline fill="none" stroke="#7f7542" points="16.5,-31.5 247.5,-31.5 "/>
<text text-anchor="middle" x="132" y="-20.3" font-family="Times,serif" font-size="14.00">X₁ ∈ a_4_1_jgraph_6(R₂,R₃,R₄,R₅)</text>
</a>
</g>
</g>
<!-- c_0_46&#45;&gt;c_0_56 -->
<g id="edge2" class="edge">
<title>c_0_46&#45;&gt;c_0_56</title>
<path fill="none" stroke="black" stroke-dasharray="5,2" d="M132,-158.12C132,-158.12 132,-131.9 132,-131.9"/>
<polygon fill="black" stroke="black" points="135.5,-131.9 132,-121.9 128.5,-131.9 135.5,-131.9"/>
</g>
</g>
</svg>
