<?xml version="1.0" encoding="UTF-8" standalone="no"?>
<!DOCTYPE svg PUBLIC "-//W3C//DTD SVG 1.1//EN"
 "http://www.w3.org/Graphics/SVG/1.1/DTD/svg11.dtd">
<!-- Generated by graphviz version 5.0.0 (0)
 -->
<!-- Title: proof Pages: 1 -->
<svg width="488pt" height="295pt"
 viewBox="0.00 0.00 488.00 295.00" xmlns="http://www.w3.org/2000/svg" xmlns:xlink="http://www.w3.org/1999/xlink">
<g id="graph0" class="graph" transform="scale(1 1) rotate(0) translate(4 291)">
<title>proof</title>
<g id="clust1" class="cluster">
<title>cluster_0</title>
<polygon fill="transparent" stroke="black" stroke-dasharray="1,5" points="66,-217 66,-279 376,-279 376,-217 66,-217"/>
</g>
<g id="clust2" class="cluster">
<title>cluster_1</title>
<polygon fill="transparent" stroke="black" stroke-width="2" points="138,-135 138,-197 342,-197 342,-135 138,-135"/>
</g>
<g id="clust3" class="cluster">
<title>cluster_2</title>
<polygon fill="transparent" stroke="black" stroke-dasharray="1,5" points="8,-8 8,-115 472,-115 472,-8 8,-8"/>
</g>
<!-- c_0_69 -->
<g id="node1" class="node">
<title>c_0_69</title>
<g id="a_node1"><a xlink:href="c_0_69.html" xlink:title="{abs(R₁) ≤ R₂|⇊|R₁ ≤ R₂}" target="_parent">
<polygon fill="#f8edd1" stroke="#7f7542" points="280,-225.5 280,-270.5 368,-270.5 368,-225.5 280,-225.5"/>
<text text-anchor="middle" x="324" y="-259.3" font-family="Times,serif" font-size="14.00">abs(R₁) ≤ R₂</text>
<polyline fill="none" stroke="#7f7542" points="280,-255.5 368,-255.5 "/>
<text text-anchor="middle" x="324" y="-244.3" font-family="Times,serif" font-size="14.00">⇊</text>
<polyline fill="none" stroke="#7f7542" points="280,-240.5 368,-240.5 "/>
<text text-anchor="middle" x="324" y="-229.3" font-family="Times,serif" font-size="14.00">R₁ ≤ R₂</text>
</a>
</g>
</g>
<!-- c_0_77 -->
<g id="node3" class="node">
<title>c_0_77</title>
<g id="a_node3"><a xlink:href="c_0_77.html" xlink:title="{X₁ ∈ carrier(TOP&#45;REAL(2))|⇊| `1 X₁ ≤ &#160;\|....\| X₁}" target="_parent">
<polygon fill="#f8edd1" stroke="#7f7542" points="146.5,-143.5 146.5,-188.5 333.5,-188.5 333.5,-143.5 146.5,-143.5"/>
<text text-anchor="middle" x="240" y="-177.3" font-family="Times,serif" font-size="14.00">X₁ ∈ carrier(TOP&#45;REAL(2))</text>
<polyline fill="none" stroke="#7f7542" points="146.5,-173.5 333.5,-173.5 "/>
<text text-anchor="middle" x="240" y="-162.3" font-family="Times,serif" font-size="14.00">⇊</text>
<polyline fill="none" stroke="#7f7542" points="146.5,-158.5 333.5,-158.5 "/>
<text text-anchor="middle" x="240" y="-147.3" font-family="Times,serif" font-size="14.00">`1 X₁ ≤ |....| X₁</text>
</a>
</g>
</g>
<!-- c_0_69&#45;&gt;c_0_77 -->
<g id="edge1" class="edge">
<title>c_0_69&#45;&gt;c_0_77</title>
<path fill="none" stroke="black" d="M306.75,-225.16C306.75,-225.16 306.75,-198.72 306.75,-198.72"/>
<polygon fill="black" stroke="black" points="310.25,-198.72 306.75,-188.72 303.25,-198.72 310.25,-198.72"/>
</g>
<!-- c_0_60 -->
<g id="node2" class="node">
<title>c_0_60</title>
<g id="a_node2"><a xlink:href="c_0_60.html" xlink:title="{X₁ ∈ carrier(TOP&#45;REAL(2))|⇊|abs( `1 X₁) ≤ &#160;\|....\| X₁}" target="_parent">
<polygon fill="#f8edd1" stroke="#7f7542" points="74.5,-225.5 74.5,-270.5 261.5,-270.5 261.5,-225.5 74.5,-225.5"/>
<text text-anchor="middle" x="168" y="-259.3" font-family="Times,serif" font-size="14.00">X₁ ∈ carrier(TOP&#45;REAL(2))</text>
<polyline fill="none" stroke="#7f7542" points="74.5,-255.5 261.5,-255.5 "/>
<text text-anchor="middle" x="168" y="-244.3" font-family="Times,serif" font-size="14.00">⇊</text>
<polyline fill="none" stroke="#7f7542" points="74.5,-240.5 261.5,-240.5 "/>
<text text-anchor="middle" x="168" y="-229.3" font-family="Times,serif" font-size="14.00">abs( `1 X₁) ≤ |....| X₁</text>
</a>
</g>
</g>
<!-- c_0_60&#45;&gt;c_0_77 -->
<g id="edge2" class="edge">
<title>c_0_60&#45;&gt;c_0_77</title>
<path fill="none" stroke="black" d="M204,-225.16C204,-225.16 204,-198.72 204,-198.72"/>
<polygon fill="black" stroke="black" points="207.5,-198.72 204,-188.72 200.5,-198.72 207.5,-198.72"/>
</g>
<!-- c_0_87 -->
<g id="node4" class="node">
<title>c_0_87</title>
<g id="a_node4"><a xlink:href="c_0_87.html" xlink:title="{ 0. TOP&#45;REAL(C₁) ∈ carrier(TOP&#45;REAL(C₁))|C₁ ∈ ℕ|sk₂(Sphere(C₁, 0. TOP&#45;REAL(C₁),R₂),X₃) ∈ carrier(TOP&#45;REAL(2))|⇊| `1 sk₂(Sphere(C₁, 0. TOP&#45;REAL(C₁),R₂),X₃) ≤ R₂|Sphere(C₁, 0. TOP&#45;REAL(C₁),R₂) ⊆ X₃}" target="_parent">
<polygon fill="#f8edd1" stroke="#7f7542" points="16,-16.5 16,-106.5 464,-106.5 464,-16.5 16,-16.5"/>
<text text-anchor="middle" x="240" y="-95.3" font-family="Times,serif" font-size="14.00">0. TOP&#45;REAL(C₁) ∈ carrier(TOP&#45;REAL(C₁))</text>
<polyline fill="none" stroke="#7f7542" points="16,-91.5 464,-91.5 "/>
<text text-anchor="middle" x="240" y="-80.3" font-family="Times,serif" font-size="14.00">C₁ ∈ ℕ</text>
<polyline fill="none" stroke="#7f7542" points="16,-76.5 464,-76.5 "/>
<text text-anchor="middle" x="240" y="-65.3" font-family="Times,serif" font-size="14.00">sk₂(Sphere(C₁, 0. TOP&#45;REAL(C₁),R₂),X₃) ∈ carrier(TOP&#45;REAL(2))</text>
<polyline fill="none" stroke="#7f7542" points="16,-61.5 464,-61.5 "/>
<text text-anchor="middle" x="240" y="-50.3" font-family="Times,serif" font-size="14.00">⇊</text>
<polyline fill="none" stroke="#7f7542" points="16,-46.5 464,-46.5 "/>
<text text-anchor="middle" x="240" y="-35.3" font-family="Times,serif" font-size="14.00">`1 sk₂(Sphere(C₁, 0. TOP&#45;REAL(C₁),R₂),X₃) ≤ R₂</text>
<polyline fill="none" stroke="#7f7542" points="16,-31.5 464,-31.5 "/>
<text text-anchor="middle" x="240" y="-20.3" font-family="Times,serif" font-size="14.00">Sphere(C₁, 0. TOP&#45;REAL(C₁),R₂) ⊆ X₃</text>
</a>
</g>
</g>
<!-- c_0_77&#45;&gt;c_0_87 -->
<g id="edge3" class="edge">
<title>c_0_77&#45;&gt;c_0_87</title>
<path fill="none" stroke="black" stroke-dasharray="5,2" d="M240,-143.33C240,-143.33 240,-116.89 240,-116.89"/>
<polygon fill="black" stroke="black" points="243.5,-116.89 240,-106.89 236.5,-116.89 243.5,-116.89"/>
</g>
</g>
</svg>
