<?xml version="1.0" encoding="UTF-8" standalone="no"?>
<!DOCTYPE svg PUBLIC "-//W3C//DTD SVG 1.1//EN"
 "http://www.w3.org/Graphics/SVG/1.1/DTD/svg11.dtd">
<!-- Generated by graphviz version 5.0.0 (0)
 -->
<!-- Title: proof Pages: 1 -->
<svg width="860pt" height="310pt"
 viewBox="0.00 0.00 860.00 310.00" xmlns="http://www.w3.org/2000/svg" xmlns:xlink="http://www.w3.org/1999/xlink">
<g id="graph0" class="graph" transform="scale(1 1) rotate(0) translate(4 306)">
<title>proof</title>
<g id="clust1" class="cluster">
<title>cluster_0</title>
<polygon fill="transparent" stroke="black" stroke-dasharray="1,5" points="45,-217 45,-294 375,-294 375,-217 45,-217"/>
</g>
<g id="clust2" class="cluster">
<title>cluster_1</title>
<polygon fill="transparent" stroke="black" stroke-width="2" points="70,-120 70,-197 434,-197 434,-120 70,-120"/>
</g>
<g id="clust3" class="cluster">
<title>cluster_2</title>
<polygon fill="transparent" stroke="black" stroke-dasharray="1,5" points="8,-8 8,-100 844,-100 844,-8 8,-8"/>
</g>
<!-- c_0_41 -->
<g id="node1" class="node">
<title>c_0_41</title>
<g id="a_node1"><a xlink:href="c_0_41.html" xlink:title="{X₁ ⊆ X₂|sk₂(X₁,X₂) ∈ X₁}" target="_parent">
<polygon fill="#f8edd1" stroke="#7f7542" points="265.5,-240.5 265.5,-270.5 366.5,-270.5 366.5,-240.5 265.5,-240.5"/>
<text text-anchor="middle" x="316" y="-259.3" font-family="Times,serif" font-size="14.00">X₁ ⊆ X₂</text>
<polyline fill="none" stroke="#7f7542" points="265.5,-255.5 366.5,-255.5 "/>
<text text-anchor="middle" x="316" y="-244.3" font-family="Times,serif" font-size="14.00">sk₂(X₁,X₂) ∈ X₁</text>
</a>
</g>
</g>
<!-- c_0_50 -->
<g id="node3" class="node">
<title>c_0_50</title>
<g id="a_node3"><a xlink:href="c_0_50.html" xlink:title="{X₂ ∈ carrier(TOP&#45;REAL(C₁))|⇊|Sphere(C₁,X₂,R₃) ⊆ X₄|sk₂(Sphere(C₁,X₂,R₃),X₄) ∈ carrier(TOP&#45;REAL(C₁))}" target="_parent">
<polygon fill="#f8edd1" stroke="#7f7542" points="78.5,-128.5 78.5,-188.5 425.5,-188.5 425.5,-128.5 78.5,-128.5"/>
<text text-anchor="middle" x="252" y="-177.3" font-family="Times,serif" font-size="14.00">X₂ ∈ carrier(TOP&#45;REAL(C₁))</text>
<polyline fill="none" stroke="#7f7542" points="78.5,-173.5 425.5,-173.5 "/>
<text text-anchor="middle" x="252" y="-162.3" font-family="Times,serif" font-size="14.00">⇊</text>
<polyline fill="none" stroke="#7f7542" points="78.5,-158.5 425.5,-158.5 "/>
<text text-anchor="middle" x="252" y="-147.3" font-family="Times,serif" font-size="14.00">Sphere(C₁,X₂,R₃) ⊆ X₄</text>
<polyline fill="none" stroke="#7f7542" points="78.5,-143.5 425.5,-143.5 "/>
<text text-anchor="middle" x="252" y="-132.3" font-family="Times,serif" font-size="14.00">sk₂(Sphere(C₁,X₂,R₃),X₄) ∈ carrier(TOP&#45;REAL(C₁))</text>
</a>
</g>
</g>
<!-- c_0_41&#45;&gt;c_0_50 -->
<g id="edge1" class="edge">
<title>c_0_41&#45;&gt;c_0_50</title>
<path fill="none" stroke="black" d="M316,-240.34C316,-240.34 316,-198.79 316,-198.79"/>
<polygon fill="black" stroke="black" points="319.5,-198.79 316,-188.79 312.5,-198.79 319.5,-198.79"/>
</g>
<!-- c_0_42 -->
<g id="node2" class="node">
<title>c_0_42</title>
<g id="a_node2"><a xlink:href="c_0_42.html" xlink:title="{X₁ ∈ Sphere(C₂,X₃,R₄)|X₃ ∈ carrier(TOP&#45;REAL(C₂))|⇊|X₁ ∈ carrier(TOP&#45;REAL(C₂))}" target="_parent">
<polygon fill="#f8edd1" stroke="#7f7542" points="53,-225.5 53,-285.5 247,-285.5 247,-225.5 53,-225.5"/>
<text text-anchor="middle" x="150" y="-274.3" font-family="Times,serif" font-size="14.00">X₁ ∈ Sphere(C₂,X₃,R₄)</text>
<polyline fill="none" stroke="#7f7542" points="53,-270.5 247,-270.5 "/>
<text text-anchor="middle" x="150" y="-259.3" font-family="Times,serif" font-size="14.00">X₃ ∈ carrier(TOP&#45;REAL(C₂))</text>
<polyline fill="none" stroke="#7f7542" points="53,-255.5 247,-255.5 "/>
<text text-anchor="middle" x="150" y="-244.3" font-family="Times,serif" font-size="14.00">⇊</text>
<polyline fill="none" stroke="#7f7542" points="53,-240.5 247,-240.5 "/>
<text text-anchor="middle" x="150" y="-229.3" font-family="Times,serif" font-size="14.00">X₁ ∈ carrier(TOP&#45;REAL(C₂))</text>
</a>
</g>
</g>
<!-- c_0_42&#45;&gt;c_0_50 -->
<g id="edge2" class="edge">
<title>c_0_42&#45;&gt;c_0_50</title>
<path fill="none" stroke="black" d="M162.75,-225.34C162.75,-225.34 162.75,-198.64 162.75,-198.64"/>
<polygon fill="black" stroke="black" points="166.25,-198.64 162.75,-188.64 159.25,-198.64 166.25,-198.64"/>
</g>
<!-- c_0_112 -->
<g id="node4" class="node">
<title>c_0_112</title>
<g id="a_node4"><a xlink:href="c_0_112.html" xlink:title="{ 0. TOP&#45;REAL(2) ∈ carrier(TOP&#45;REAL(2))|⇊|Sphere(2, 0. TOP&#45;REAL(2),R₁) ⊆ a_4_1_jgraph_6(&#45;(R₁),R₁,&#45;(R₁),R₁)}" target="_parent">
<polygon fill="#f8edd1" stroke="#7f7542" points="378,-31.5 378,-76.5 836,-76.5 836,-31.5 378,-31.5"/>
<text text-anchor="middle" x="607" y="-65.3" font-family="Times,serif" font-size="14.00">0. TOP&#45;REAL(2) ∈ carrier(TOP&#45;REAL(2))</text>
<polyline fill="none" stroke="#7f7542" points="378,-61.5 836,-61.5 "/>
<text text-anchor="middle" x="607" y="-50.3" font-family="Times,serif" font-size="14.00">⇊</text>
<polyline fill="none" stroke="#7f7542" points="378,-46.5 836,-46.5 "/>
<text text-anchor="middle" x="607" y="-35.3" font-family="Times,serif" font-size="14.00">Sphere(2, 0. TOP&#45;REAL(2),R₁) ⊆ a_4_1_jgraph_6(&#45;(R₁),R₁,&#45;(R₁),R₁)</text>
</a>
</g>
</g>
<!-- c_0_50&#45;&gt;c_0_112 -->
<g id="edge3" class="edge">
<title>c_0_50&#45;&gt;c_0_112</title>
<path fill="none" stroke="black" stroke-dasharray="5,2" d="M401.75,-128.27C401.75,-128.27 401.75,-86.52 401.75,-86.52"/>
<polygon fill="black" stroke="black" points="405.25,-86.52 401.75,-76.52 398.25,-86.52 405.25,-86.52"/>
</g>
<!-- c_0_58 -->
<g id="node5" class="node">
<title>c_0_58</title>
<g id="a_node5"><a xlink:href="c_0_58.html" xlink:title="{ 0. TOP&#45;REAL(C₁) ∈ carrier(TOP&#45;REAL(C₁))|C₁ ∈ ℕ|⇊| \|....\| sk₂(Sphere(C₁, 0. TOP&#45;REAL(C₁),R₂),X₃) = R₂|Sphere(C₁, 0. TOP&#45;REAL(C₁),R₂) ⊆ X₃}" target="_parent">
<polygon fill="#f8edd1" stroke="#7f7542" points="16,-16.5 16,-91.5 360,-91.5 360,-16.5 16,-16.5"/>
<text text-anchor="middle" x="188" y="-80.3" font-family="Times,serif" font-size="14.00">0. TOP&#45;REAL(C₁) ∈ carrier(TOP&#45;REAL(C₁))</text>
<polyline fill="none" stroke="#7f7542" points="16,-76.5 360,-76.5 "/>
<text text-anchor="middle" x="188" y="-65.3" font-family="Times,serif" font-size="14.00">C₁ ∈ ℕ</text>
<polyline fill="none" stroke="#7f7542" points="16,-61.5 360,-61.5 "/>
<text text-anchor="middle" x="188" y="-50.3" font-family="Times,serif" font-size="14.00">⇊</text>
<polyline fill="none" stroke="#7f7542" points="16,-46.5 360,-46.5 "/>
<text text-anchor="middle" x="188" y="-35.3" font-family="Times,serif" font-size="14.00">|....| sk₂(Sphere(C₁, 0. TOP&#45;REAL(C₁),R₂),X₃) = R₂</text>
<polyline fill="none" stroke="#7f7542" points="16,-31.5 360,-31.5 "/>
<text text-anchor="middle" x="188" y="-20.3" font-family="Times,serif" font-size="14.00">Sphere(C₁, 0. TOP&#45;REAL(C₁),R₂) ⊆ X₃</text>
</a>
</g>
</g>
<!-- c_0_50&#45;&gt;c_0_58 -->
<g id="edge4" class="edge">
<title>c_0_50&#45;&gt;c_0_58</title>
<path fill="none" stroke="black" stroke-dasharray="5,2" d="M219.25,-128.27C219.25,-128.27 219.25,-101.59 219.25,-101.59"/>
<polygon fill="black" stroke="black" points="222.75,-101.59 219.25,-91.59 215.75,-101.59 222.75,-101.59"/>
</g>
</g>
</svg>
