<?xml version="1.0" encoding="UTF-8" standalone="no"?>
<!DOCTYPE svg PUBLIC "-//W3C//DTD SVG 1.1//EN"
 "http://www.w3.org/Graphics/SVG/1.1/DTD/svg11.dtd">
<!-- Generated by graphviz version 5.0.0 (0)
 -->
<!-- Title: proof Pages: 1 -->
<svg width="224pt" height="190pt"
 viewBox="0.00 0.00 224.00 190.00" xmlns="http://www.w3.org/2000/svg" xmlns:xlink="http://www.w3.org/1999/xlink">
<g id="graph0" class="graph" transform="scale(1 1) rotate(0) translate(4 186)">
<title>proof</title>
<g id="clust1" class="cluster">
<title>cluster_0</title>
<polygon fill="transparent" stroke="black" stroke-dasharray="1,5" points="48,-142 48,-174 168,-174 168,-142 48,-142"/>
</g>
<g id="clust2" class="cluster">
<title>cluster_1</title>
<polygon fill="transparent" stroke="black" stroke-width="2" points="42,-60 42,-122 174,-122 174,-60 42,-60"/>
</g>
<g id="clust3" class="cluster">
<title>cluster_2</title>
<polygon fill="transparent" stroke="black" stroke-dasharray="1,5" points="8,-8 8,-40 208,-40 208,-8 8,-8"/>
</g>
<!-- dt_l1_rltopsp1 -->
<g id="node1" class="node">
<title>dt_l1_rltopsp1</title>
<g id="a_node1"><a xlink:href="dt_l1_rltopsp1.html" xlink:title="dt_l1_rltopsp1" target="_vizar">
<polygon fill="#69d2e7" stroke="#7f7542" points="56.5,-150.5 56.5,-165.5 159.5,-165.5 159.5,-150.5 56.5,-150.5"/>
<text text-anchor="middle" x="108" y="-154.3" font-family="Times,serif" font-size="14.00">dt_l1_rltopsp1</text>
</a>
</g>
</g>
<!-- c_0_97 -->
<g id="node2" class="node">
<title>c_0_97</title>
<g id="a_node2"><a xlink:href="c_0_97.html" xlink:title="{RLTopStruct(X₁)|⇊|TopStruct(X₁)}" target="_vizar">
<polygon fill="#f8edd1" stroke="#7f7542" points="50.5,-68.5 50.5,-113.5 165.5,-113.5 165.5,-68.5 50.5,-68.5"/>
<text text-anchor="middle" x="108" y="-102.3" font-family="Times,serif" font-size="14.00">RLTopStruct(X₁)</text>
<polyline fill="none" stroke="#7f7542" points="50.5,-98.5 165.5,-98.5 "/>
<text text-anchor="middle" x="108" y="-87.3" font-family="Times,serif" font-size="14.00">⇊</text>
<polyline fill="none" stroke="#7f7542" points="50.5,-83.5 165.5,-83.5 "/>
<text text-anchor="middle" x="108" y="-72.3" font-family="Times,serif" font-size="14.00">TopStruct(X₁)</text>
</a>
</g>
</g>
<!-- dt_l1_rltopsp1&#45;&gt;c_0_97 -->
<g id="edge1" class="edge">
<title>dt_l1_rltopsp1&#45;&gt;c_0_97</title>
<path fill="none" stroke="black" d="M108,-150.31C108,-150.31 108,-123.76 108,-123.76"/>
<polygon fill="black" stroke="black" points="111.5,-123.76 108,-113.76 104.5,-123.76 111.5,-123.76"/>
</g>
<!-- c_0_107 -->
<g id="node3" class="node">
<title>c_0_107</title>
<g id="a_node3"><a xlink:href="c_0_107.html" xlink:title="{TopStruct(TOP&#45;REAL(N₁))}" target="_vizar">
<polygon fill="#f8edd1" stroke="#7f7542" points="16.5,-16.5 16.5,-31.5 199.5,-31.5 199.5,-16.5 16.5,-16.5"/>
<text text-anchor="middle" x="108" y="-20.3" font-family="Times,serif" font-size="14.00">TopStruct(TOP&#45;REAL(N₁))</text>
</a>
</g>
</g>
<!-- c_0_97&#45;&gt;c_0_107 -->
<g id="edge2" class="edge">
<title>c_0_97&#45;&gt;c_0_107</title>
<path fill="none" stroke="black" stroke-dasharray="5,2" d="M108,-68.32C108,-68.32 108,-41.59 108,-41.59"/>
<polygon fill="black" stroke="black" points="111.5,-41.59 108,-31.59 104.5,-41.59 111.5,-41.59"/>
</g>
</g>
</svg>
