<?xml version="1.0" encoding="UTF-8" standalone="no"?>
<!DOCTYPE svg PUBLIC "-//W3C//DTD SVG 1.1//EN"
 "http://www.w3.org/Graphics/SVG/1.1/DTD/svg11.dtd">
<!-- Generated by graphviz version 5.0.0 (0)
 -->
<!-- Title: proof Pages: 1 -->
<svg width="733pt" height="235pt"
 viewBox="0.00 0.00 733.00 235.00" xmlns="http://www.w3.org/2000/svg" xmlns:xlink="http://www.w3.org/1999/xlink">
<g id="graph0" class="graph" transform="scale(1 1) rotate(0) translate(4 231)">
<title>proof</title>
<g id="clust1" class="cluster">
<title>cluster_0</title>
<polygon fill="transparent" stroke="black" stroke-dasharray="1,5" points="335,-187 335,-219 443,-219 443,-187 335,-187"/>
</g>
<g id="clust2" class="cluster">
<title>cluster_1</title>
<polygon fill="transparent" stroke="black" stroke-width="2" points="354,-135 354,-167 424,-167 424,-135 354,-135"/>
</g>
<g id="clust3" class="cluster">
<title>cluster_2</title>
<polygon fill="transparent" stroke="black" stroke-dasharray="1,5" points="8,-8 8,-115 717,-115 717,-8 8,-8"/>
</g>
<!-- t10_toprealb -->
<g id="node1" class="node">
<title>t10_toprealb</title>
<g id="a_node1"><a xlink:href="t10_toprealb.html" xlink:title="t10_toprealb" target="_parent">
<polygon fill="#fa6900" stroke="#7f7542" points="343.5,-195.5 343.5,-210.5 434.5,-210.5 434.5,-195.5 343.5,-195.5"/>
<text text-anchor="middle" x="389" y="-199.3" font-family="Times,serif" font-size="14.00">t10_toprealb</text>
</a>
</g>
</g>
<!-- c_0_116 -->
<g id="node2" class="node">
<title>c_0_116</title>
<g id="a_node2"><a xlink:href="c_0_116.html" xlink:title="{sk₁ ∈ ℝ}" target="_parent">
<polygon fill="#fa6900" stroke="#7f7542" points="362.5,-143.5 362.5,-158.5 415.5,-158.5 415.5,-143.5 362.5,-143.5"/>
<text text-anchor="middle" x="389" y="-147.3" font-family="Times,serif" font-size="14.00">sk₁ ∈ ℝ</text>
</a>
</g>
</g>
<!-- t10_toprealb&#45;&gt;c_0_116 -->
<g id="edge1" class="edge">
<title>t10_toprealb&#45;&gt;c_0_116</title>
<path fill="none" stroke="black" d="M389,-195.33C389,-195.33 389,-168.7 389,-168.7"/>
<polygon fill="black" stroke="black" points="392.5,-168.7 389,-158.7 385.5,-168.7 392.5,-168.7"/>
</g>
<!-- c_0_125 -->
<g id="node3" class="node">
<title>c_0_125</title>
<g id="a_node3"><a xlink:href="c_0_125.html" xlink:title="{ 0. TOP&#45;REAL(2) ∈ carrier(TOP&#45;REAL(2))|TopSpace&#45;like(TOP&#45;REAL(2))|TopStruct(TOP&#45;REAL(2))|⇊|⊥}" target="_parent">
<polygon fill="#fa6900" stroke="#7f7542" points="425.5,-24 425.5,-99 708.5,-99 708.5,-24 425.5,-24"/>
<text text-anchor="middle" x="567" y="-87.8" font-family="Times,serif" font-size="14.00">0. TOP&#45;REAL(2) ∈ carrier(TOP&#45;REAL(2))</text>
<polyline fill="none" stroke="#7f7542" points="425.5,-84 708.5,-84 "/>
<text text-anchor="middle" x="567" y="-72.8" font-family="Times,serif" font-size="14.00">TopSpace&#45;like(TOP&#45;REAL(2))</text>
<polyline fill="none" stroke="#7f7542" points="425.5,-69 708.5,-69 "/>
<text text-anchor="middle" x="567" y="-57.8" font-family="Times,serif" font-size="14.00">TopStruct(TOP&#45;REAL(2))</text>
<polyline fill="none" stroke="#7f7542" points="425.5,-54 708.5,-54 "/>
<text text-anchor="middle" x="567" y="-42.8" font-family="Times,serif" font-size="14.00">⇊</text>
<polyline fill="none" stroke="#7f7542" points="425.5,-39 708.5,-39 "/>
<text text-anchor="middle" x="567" y="-27.8" font-family="Times,serif" font-size="14.00">⊥</text>
</a>
</g>
</g>
<!-- c_0_116&#45;&gt;c_0_125 -->
<g id="edge2" class="edge">
<title>c_0_116&#45;&gt;c_0_125</title>
<path fill="none" stroke="black" stroke-dasharray="5,2" d="M415.66,-151C423.49,-151 430,-151 430,-151 430,-151 430,-109.2 430,-109.2"/>
<polygon fill="black" stroke="black" points="433.5,-109.2 430,-99.2 426.5,-109.2 433.5,-109.2"/>
</g>
<!-- c_0_120 -->
<g id="node4" class="node">
<title>c_0_120</title>
<g id="a_node4"><a xlink:href="c_0_120.html" xlink:title="{ 0. TOP&#45;REAL(2) ∈ carrier(TOP&#45;REAL(2))|SubSpace(Tcircle(2, 0. TOP&#45;REAL(2),sk₁),TOP&#45;REAL(2))|TopSpace&#45;like(TOP&#45;REAL(2))|TopStruct(TOP&#45;REAL(2))|⇊|⊥}" target="_parent">
<polygon fill="#fa6900" stroke="#7f7542" points="16.5,-16.5 16.5,-106.5 407.5,-106.5 407.5,-16.5 16.5,-16.5"/>
<text text-anchor="middle" x="212" y="-95.3" font-family="Times,serif" font-size="14.00">0. TOP&#45;REAL(2) ∈ carrier(TOP&#45;REAL(2))</text>
<polyline fill="none" stroke="#7f7542" points="16.5,-91.5 407.5,-91.5 "/>
<text text-anchor="middle" x="212" y="-80.3" font-family="Times,serif" font-size="14.00">SubSpace(Tcircle(2, 0. TOP&#45;REAL(2),sk₁),TOP&#45;REAL(2))</text>
<polyline fill="none" stroke="#7f7542" points="16.5,-76.5 407.5,-76.5 "/>
<text text-anchor="middle" x="212" y="-65.3" font-family="Times,serif" font-size="14.00">TopSpace&#45;like(TOP&#45;REAL(2))</text>
<polyline fill="none" stroke="#7f7542" points="16.5,-61.5 407.5,-61.5 "/>
<text text-anchor="middle" x="212" y="-50.3" font-family="Times,serif" font-size="14.00">TopStruct(TOP&#45;REAL(2))</text>
<polyline fill="none" stroke="#7f7542" points="16.5,-46.5 407.5,-46.5 "/>
<text text-anchor="middle" x="212" y="-35.3" font-family="Times,serif" font-size="14.00">⇊</text>
<polyline fill="none" stroke="#7f7542" points="16.5,-31.5 407.5,-31.5 "/>
<text text-anchor="middle" x="212" y="-20.3" font-family="Times,serif" font-size="14.00">⊥</text>
</a>
</g>
</g>
<!-- c_0_116&#45;&gt;c_0_120 -->
<g id="edge3" class="edge">
<title>c_0_116&#45;&gt;c_0_120</title>
<path fill="none" stroke="black" stroke-dasharray="5,2" d="M385,-143.37C385,-143.37 385,-116.66 385,-116.66"/>
<polygon fill="black" stroke="black" points="388.5,-116.66 385,-106.66 381.5,-116.66 388.5,-116.66"/>
</g>
</g>
</svg>
