<?xml version="1.0" encoding="UTF-8" standalone="no"?>
<!DOCTYPE svg PUBLIC "-//W3C//DTD SVG 1.1//EN"
 "http://www.w3.org/Graphics/SVG/1.1/DTD/svg11.dtd">
<!-- Generated by graphviz version 5.0.0 (0)
 -->
<!-- Title: proof Pages: 1 -->
<svg width="955pt" height="160pt"
 viewBox="0.00 0.00 955.00 160.00" xmlns="http://www.w3.org/2000/svg" xmlns:xlink="http://www.w3.org/1999/xlink">
<g id="graph0" class="graph" transform="scale(1 1) rotate(0) translate(4 156)">
<title>proof</title>
<g id="clust1" class="cluster">
<title>cluster_0</title>
<polygon fill="transparent" stroke="black" stroke-dasharray="1,5" points="411,-112 411,-144 515,-144 515,-112 411,-112"/>
</g>
<g id="clust2" class="cluster">
<title>cluster_1</title>
<polygon fill="transparent" stroke="black" stroke-width="2" points="208,-60 208,-92 718,-92 718,-60 208,-60"/>
</g>
<g id="clust3" class="cluster">
<title>cluster_2</title>
<polygon fill="transparent" stroke="black" stroke-dasharray="1,5" points="8,-8 8,-40 939,-40 939,-8 8,-8"/>
</g>
<!-- d2_jgraph_6 -->
<g id="node1" class="node">
<title>d2_jgraph_6</title>
<g id="a_node1"><a xlink:href="d2_jgraph_6.html" xlink:title="d2_jgraph_6" target="_parent">
<polygon fill="#69d2e7" stroke="#7f7542" points="419,-120.5 419,-135.5 507,-135.5 507,-120.5 419,-120.5"/>
<text text-anchor="middle" x="463" y="-124.3" font-family="Times,serif" font-size="14.00">d2_jgraph_6</text>
</a>
</g>
</g>
<!-- c_0_53 -->
<g id="node2" class="node">
<title>c_0_53</title>
<g id="a_node2"><a xlink:href="c_0_53.html" xlink:title="{closed_inside_of_rectangle(R₁,R₂,R₃,R₄) = a_4_1_jgraph_6(R₁,R₂,R₃,R₄)}" target="_parent">
<polygon fill="#f8edd1" stroke="#7f7542" points="216.5,-68.5 216.5,-83.5 709.5,-83.5 709.5,-68.5 216.5,-68.5"/>
<text text-anchor="middle" x="463" y="-72.3" font-family="Times,serif" font-size="14.00">closed_inside_of_rectangle(R₁,R₂,R₃,R₄) = a_4_1_jgraph_6(R₁,R₂,R₃,R₄)</text>
</a>
</g>
</g>
<!-- d2_jgraph_6&#45;&gt;c_0_53 -->
<g id="edge1" class="edge">
<title>d2_jgraph_6&#45;&gt;c_0_53</title>
<path fill="none" stroke="black" d="M463,-120.33C463,-120.33 463,-93.7 463,-93.7"/>
<polygon fill="black" stroke="black" points="466.5,-93.7 463,-83.7 459.5,-93.7 466.5,-93.7"/>
</g>
<!-- c_0_63 -->
<g id="node3" class="node">
<title>c_0_63</title>
<g id="a_node3"><a xlink:href="c_0_63.html" xlink:title="{TOP&#45;REAL(2) \| a_4_1_jgraph_6(R₁,R₂,R₃,R₄) = Trectangle(R₁,R₂,R₃,R₄)}" target="_parent">
<polygon fill="#f8edd1" stroke="#7f7542" points="443.5,-16.5 443.5,-31.5 930.5,-31.5 930.5,-16.5 443.5,-16.5"/>
<text text-anchor="middle" x="687" y="-20.3" font-family="Times,serif" font-size="14.00">TOP&#45;REAL(2) | a_4_1_jgraph_6(R₁,R₂,R₃,R₄) = Trectangle(R₁,R₂,R₃,R₄)</text>
</a>
</g>
</g>
<!-- c_0_53&#45;&gt;c_0_63 -->
<g id="edge2" class="edge">
<title>c_0_53&#45;&gt;c_0_63</title>
<path fill="none" stroke="black" stroke-dasharray="5,2" d="M576.5,-68.33C576.5,-68.33 576.5,-41.7 576.5,-41.7"/>
<polygon fill="black" stroke="black" points="580,-41.7 576.5,-31.7 573,-41.7 580,-41.7"/>
</g>
<!-- c_0_64 -->
<g id="node4" class="node">
<title>c_0_64</title>
<g id="a_node4"><a xlink:href="c_0_64.html" xlink:title="{a_4_1_jgraph_6(R₁,R₂,R₃,R₄) ∈ bool(carrier(TOP&#45;REAL(2)))}" target="_parent">
<polygon fill="#f8edd1" stroke="#7f7542" points="16.5,-16.5 16.5,-31.5 425.5,-31.5 425.5,-16.5 16.5,-16.5"/>
<text text-anchor="middle" x="221" y="-20.3" font-family="Times,serif" font-size="14.00">a_4_1_jgraph_6(R₁,R₂,R₃,R₄) ∈ bool(carrier(TOP&#45;REAL(2)))</text>
</a>
</g>
</g>
<!-- c_0_53&#45;&gt;c_0_64 -->
<g id="edge3" class="edge">
<title>c_0_53&#45;&gt;c_0_64</title>
<path fill="none" stroke="black" stroke-dasharray="5,2" d="M321,-68.33C321,-68.33 321,-41.7 321,-41.7"/>
<polygon fill="black" stroke="black" points="324.5,-41.7 321,-31.7 317.5,-41.7 324.5,-41.7"/>
</g>
</g>
</svg>
