<?xml version="1.0" encoding="UTF-8" standalone="no"?>
<!DOCTYPE svg PUBLIC "-//W3C//DTD SVG 1.1//EN"
 "http://www.w3.org/Graphics/SVG/1.1/DTD/svg11.dtd">
<!-- Generated by graphviz version 5.0.0 (0)
 -->
<!-- Title: proof Pages: 1 -->
<svg width="376pt" height="190pt"
 viewBox="0.00 0.00 376.00 190.00" xmlns="http://www.w3.org/2000/svg" xmlns:xlink="http://www.w3.org/1999/xlink">
<g id="graph0" class="graph" transform="scale(1 1) rotate(0) translate(4 186)">
<title>proof</title>
<g id="clust1" class="cluster">
<title>cluster_0</title>
<polygon fill="transparent" stroke="black" stroke-dasharray="1,5" points="8,-112 8,-174 360,-174 360,-112 8,-112"/>
</g>
<g id="clust2" class="cluster">
<title>cluster_1</title>
<polygon fill="transparent" stroke="black" stroke-width="2" points="79,-60 79,-92 291,-92 291,-60 79,-60"/>
</g>
<g id="clust3" class="cluster">
<title>cluster_2</title>
<polygon fill="transparent" stroke="black" stroke-dasharray="1,5" points="93,-8 93,-40 277,-40 277,-8 93,-8"/>
</g>
<!-- c_0_124 -->
<g id="node1" class="node">
<title>c_0_124</title>
<g id="a_node1"><a xlink:href="c_0_124.html" xlink:title="{RLTopStruct(X₁)|⇊|addLoopStr(X₁)}" target="_vizar">
<polygon fill="#f8edd1" stroke="#7f7542" points="236.5,-120.5 236.5,-165.5 351.5,-165.5 351.5,-120.5 236.5,-120.5"/>
<text text-anchor="middle" x="294" y="-154.3" font-family="Times,serif" font-size="14.00">RLTopStruct(X₁)</text>
<polyline fill="none" stroke="#7f7542" points="236.5,-150.5 351.5,-150.5 "/>
<text text-anchor="middle" x="294" y="-139.3" font-family="Times,serif" font-size="14.00">⇊</text>
<polyline fill="none" stroke="#7f7542" points="236.5,-135.5 351.5,-135.5 "/>
<text text-anchor="middle" x="294" y="-124.3" font-family="Times,serif" font-size="14.00">addLoopStr(X₁)</text>
</a>
</g>
</g>
<!-- c_0_128 -->
<g id="node3" class="node">
<title>c_0_128</title>
<g id="a_node3"><a xlink:href="c_0_128.html" xlink:title="{addLoopStr(TOP&#45;REAL(N₁))}" target="_vizar">
<polygon fill="#f8edd1" stroke="#7f7542" points="87,-68.5 87,-83.5 283,-83.5 283,-68.5 87,-68.5"/>
<text text-anchor="middle" x="185" y="-72.3" font-family="Times,serif" font-size="14.00">addLoopStr(TOP&#45;REAL(N₁))</text>
</a>
</g>
</g>
<!-- c_0_124&#45;&gt;c_0_128 -->
<g id="edge1" class="edge">
<title>c_0_124&#45;&gt;c_0_128</title>
<path fill="none" stroke="black" d="M259.75,-120.32C259.75,-120.32 259.75,-93.59 259.75,-93.59"/>
<polygon fill="black" stroke="black" points="263.25,-93.59 259.75,-83.59 256.25,-93.59 263.25,-93.59"/>
</g>
<!-- c_0_98 -->
<g id="node2" class="node">
<title>c_0_98</title>
<g id="a_node2"><a xlink:href="c_0_98.html" xlink:title="{RLTopStruct(TOP&#45;REAL(N₁))}" target="_vizar">
<polygon fill="#f8edd1" stroke="#7f7542" points="16,-135.5 16,-150.5 218,-150.5 218,-135.5 16,-135.5"/>
<text text-anchor="middle" x="117" y="-139.3" font-family="Times,serif" font-size="14.00">RLTopStruct(TOP&#45;REAL(N₁))</text>
</a>
</g>
</g>
<!-- c_0_98&#45;&gt;c_0_128 -->
<g id="edge2" class="edge">
<title>c_0_98&#45;&gt;c_0_128</title>
<path fill="none" stroke="black" d="M152.5,-135.31C152.5,-135.31 152.5,-93.6 152.5,-93.6"/>
<polygon fill="black" stroke="black" points="156,-93.6 152.5,-83.6 149,-93.6 156,-93.6"/>
</g>
<!-- c_0_130 -->
<g id="node4" class="node">
<title>c_0_130</title>
<g id="a_node4"><a xlink:href="c_0_130.html" xlink:title="{ZeroStr(TOP&#45;REAL(N₁))}" target="_vizar">
<polygon fill="#f8edd1" stroke="#7f7542" points="101,-16.5 101,-31.5 269,-31.5 269,-16.5 101,-16.5"/>
<text text-anchor="middle" x="185" y="-20.3" font-family="Times,serif" font-size="14.00">ZeroStr(TOP&#45;REAL(N₁))</text>
</a>
</g>
</g>
<!-- c_0_128&#45;&gt;c_0_130 -->
<g id="edge3" class="edge">
<title>c_0_128&#45;&gt;c_0_130</title>
<path fill="none" stroke="black" stroke-dasharray="5,2" d="M185,-68.33C185,-68.33 185,-41.7 185,-41.7"/>
<polygon fill="black" stroke="black" points="188.5,-41.7 185,-31.7 181.5,-41.7 188.5,-41.7"/>
</g>
</g>
</svg>
