<?xml version="1.0" encoding="UTF-8" standalone="no"?>
<!DOCTYPE svg PUBLIC "-//W3C//DTD SVG 1.1//EN"
 "http://www.w3.org/Graphics/SVG/1.1/DTD/svg11.dtd">
<!-- Generated by graphviz version 5.0.0 (0)
 -->
<!-- Title: proof Pages: 1 -->
<svg width="1865pt" height="265pt"
 viewBox="0.00 0.00 1865.00 265.00" xmlns="http://www.w3.org/2000/svg" xmlns:xlink="http://www.w3.org/1999/xlink">
<g id="graph0" class="graph" transform="scale(1 1) rotate(0) translate(4 261)">
<title>proof</title>
<g id="clust1" class="cluster">
<title>cluster_0</title>
<polygon fill="transparent" stroke="black" stroke-dasharray="1,5" points="887,-217 887,-249 985,-249 985,-217 887,-217"/>
</g>
<g id="clust2" class="cluster">
<title>cluster_1</title>
<polygon fill="transparent" stroke="black" stroke-width="2" points="896,-165 896,-197 976,-197 976,-165 896,-165"/>
</g>
<g id="clust3" class="cluster">
<title>cluster_2</title>
<polygon fill="transparent" stroke="black" stroke-dasharray="1,5" points="8,-8 8,-145 1849,-145 1849,-8 8,-8"/>
</g>
<!-- fc3_xreal_0 -->
<g id="node1" class="node">
<title>fc3_xreal_0</title>
<g id="a_node1"><a xlink:href="fc3_xreal_0.html" xlink:title="fc3_xreal_0" target="_parent">
<polygon fill="#69d2e7" stroke="#7f7542" points="895.5,-225.5 895.5,-240.5 976.5,-240.5 976.5,-225.5 895.5,-225.5"/>
<text text-anchor="middle" x="936" y="-229.3" font-family="Times,serif" font-size="14.00">fc3_xreal_0</text>
</a>
</g>
</g>
<!-- c_0_67 -->
<g id="node2" class="node">
<title>c_0_67</title>
<g id="a_node2"><a xlink:href="c_0_67.html" xlink:title="{&#45;(R₁) ∈ ℝ}" target="_parent">
<polygon fill="#f8edd1" stroke="#7f7542" points="904.5,-173.5 904.5,-188.5 967.5,-188.5 967.5,-173.5 904.5,-173.5"/>
<text text-anchor="middle" x="936" y="-177.3" font-family="Times,serif" font-size="14.00">&#45;(R₁) ∈ ℝ</text>
</a>
</g>
</g>
<!-- fc3_xreal_0&#45;&gt;c_0_67 -->
<g id="edge1" class="edge">
<title>fc3_xreal_0&#45;&gt;c_0_67</title>
<path fill="none" stroke="black" d="M936,-225.33C936,-225.33 936,-198.7 936,-198.7"/>
<polygon fill="black" stroke="black" points="939.5,-198.7 936,-188.7 932.5,-198.7 939.5,-198.7"/>
</g>
<!-- c_0_75 -->
<g id="node3" class="node">
<title>c_0_75</title>
<g id="a_node3"><a xlink:href="c_0_75.html" xlink:title="{ 0. TOP&#45;REAL(C₁) ∈ carrier(TOP&#45;REAL(C₁))| `1 sk₂(Sphere(C₁, 0. TOP&#45;REAL(C₁),R₂),a_4_1_jgraph_6(R₃,R₄,&#45;(R₂),R₅)) ≤ R₄| `2 sk₂(Sphere(C₁, 0. TOP&#45;REAL(C₁),R₂),a_4_1_jgraph_6(R₃,R₄,&#45;(R₂),R₅)) ≤ R₅|C₁ ∈ ℕ|R₃ ≤ &#160;`1 sk₂(Sphere(C₁, 0. TOP&#45;REAL(C₁),R₂),a_4_1_jgraph_6(R₃,R₄,&#45;(R₂),R₅))|sk₂(Sphere(C₁, 0. TOP&#45;REAL(C₁),R₂),a_4_1_jgraph_6(R₃,R₄,&#45;(R₂),R₅)) ∈ carrier(TOP&#45;REAL(2))|⇊|Sphere(C₁, 0. TOP&#45;REAL(C₁),R₂) ⊆ a_4_1_jgraph_6(R₃,R₄,&#45;(R₂),R₅)}" target="_parent">
<polygon fill="#f8edd1" stroke="#7f7542" points="1197.5,-16.5 1197.5,-136.5 1840.5,-136.5 1840.5,-16.5 1197.5,-16.5"/>
<text text-anchor="middle" x="1519" y="-125.3" font-family="Times,serif" font-size="14.00">0. TOP&#45;REAL(C₁) ∈ carrier(TOP&#45;REAL(C₁))</text>
<polyline fill="none" stroke="#7f7542" points="1197.5,-121.5 1840.5,-121.5 "/>
<text text-anchor="middle" x="1519" y="-110.3" font-family="Times,serif" font-size="14.00">`1 sk₂(Sphere(C₁, 0. TOP&#45;REAL(C₁),R₂),a_4_1_jgraph_6(R₃,R₄,&#45;(R₂),R₅)) ≤ R₄</text>
<polyline fill="none" stroke="#7f7542" points="1197.5,-106.5 1840.5,-106.5 "/>
<text text-anchor="middle" x="1519" y="-95.3" font-family="Times,serif" font-size="14.00">`2 sk₂(Sphere(C₁, 0. TOP&#45;REAL(C₁),R₂),a_4_1_jgraph_6(R₃,R₄,&#45;(R₂),R₅)) ≤ R₅</text>
<polyline fill="none" stroke="#7f7542" points="1197.5,-91.5 1840.5,-91.5 "/>
<text text-anchor="middle" x="1519" y="-80.3" font-family="Times,serif" font-size="14.00">C₁ ∈ ℕ</text>
<polyline fill="none" stroke="#7f7542" points="1197.5,-76.5 1840.5,-76.5 "/>
<text text-anchor="middle" x="1519" y="-65.3" font-family="Times,serif" font-size="14.00">R₃ ≤ `1 sk₂(Sphere(C₁, 0. TOP&#45;REAL(C₁),R₂),a_4_1_jgraph_6(R₃,R₄,&#45;(R₂),R₅))</text>
<polyline fill="none" stroke="#7f7542" points="1197.5,-61.5 1840.5,-61.5 "/>
<text text-anchor="middle" x="1519" y="-50.3" font-family="Times,serif" font-size="14.00">sk₂(Sphere(C₁, 0. TOP&#45;REAL(C₁),R₂),a_4_1_jgraph_6(R₃,R₄,&#45;(R₂),R₅)) ∈ carrier(TOP&#45;REAL(2))</text>
<polyline fill="none" stroke="#7f7542" points="1197.5,-46.5 1840.5,-46.5 "/>
<text text-anchor="middle" x="1519" y="-35.3" font-family="Times,serif" font-size="14.00">⇊</text>
<polyline fill="none" stroke="#7f7542" points="1197.5,-31.5 1840.5,-31.5 "/>
<text text-anchor="middle" x="1519" y="-20.3" font-family="Times,serif" font-size="14.00">Sphere(C₁, 0. TOP&#45;REAL(C₁),R₂) ⊆ a_4_1_jgraph_6(R₃,R₄,&#45;(R₂),R₅)</text>
</a>
</g>
</g>
<!-- c_0_67&#45;&gt;c_0_75 -->
<g id="edge2" class="edge">
<title>c_0_67&#45;&gt;c_0_75</title>
<path fill="none" stroke="black" stroke-dasharray="5,2" d="M951.75,-173.07C951.75,-159.44 951.75,-133 951.75,-133 951.75,-133 1187.25,-133 1187.25,-133"/>
<polygon fill="black" stroke="black" points="1187.25,-136.5 1197.25,-133 1187.25,-129.5 1187.25,-136.5"/>
</g>
<!-- c_0_115 -->
<g id="node4" class="node">
<title>c_0_115</title>
<g id="a_node4"><a xlink:href="c_0_115.html" xlink:title="{ 0. TOP&#45;REAL(2) ∈ carrier(TOP&#45;REAL(2))|SubSpace(Tcircle(2, 0. TOP&#45;REAL(2),R₁),TOP&#45;REAL(2))|TopSpace&#45;like(TOP&#45;REAL(2))|TopStruct(TOP&#45;REAL(2))|⇊|SubSpace(Tcircle(2, 0. TOP&#45;REAL(2),R₁),Trectangle(&#45;(R₁),R₁,&#45;(R₁),R₁))}" target="_parent">
<polygon fill="#f8edd1" stroke="#7f7542" points="692.5,-31.5 692.5,-121.5 1179.5,-121.5 1179.5,-31.5 692.5,-31.5"/>
<text text-anchor="middle" x="936" y="-110.3" font-family="Times,serif" font-size="14.00">0. TOP&#45;REAL(2) ∈ carrier(TOP&#45;REAL(2))</text>
<polyline fill="none" stroke="#7f7542" points="692.5,-106.5 1179.5,-106.5 "/>
<text text-anchor="middle" x="936" y="-95.3" font-family="Times,serif" font-size="14.00">SubSpace(Tcircle(2, 0. TOP&#45;REAL(2),R₁),TOP&#45;REAL(2))</text>
<polyline fill="none" stroke="#7f7542" points="692.5,-91.5 1179.5,-91.5 "/>
<text text-anchor="middle" x="936" y="-80.3" font-family="Times,serif" font-size="14.00">TopSpace&#45;like(TOP&#45;REAL(2))</text>
<polyline fill="none" stroke="#7f7542" points="692.5,-76.5 1179.5,-76.5 "/>
<text text-anchor="middle" x="936" y="-65.3" font-family="Times,serif" font-size="14.00">TopStruct(TOP&#45;REAL(2))</text>
<polyline fill="none" stroke="#7f7542" points="692.5,-61.5 1179.5,-61.5 "/>
<text text-anchor="middle" x="936" y="-50.3" font-family="Times,serif" font-size="14.00">⇊</text>
<polyline fill="none" stroke="#7f7542" points="692.5,-46.5 1179.5,-46.5 "/>
<text text-anchor="middle" x="936" y="-35.3" font-family="Times,serif" font-size="14.00">SubSpace(Tcircle(2, 0. TOP&#45;REAL(2),R₁),Trectangle(&#45;(R₁),R₁,&#45;(R₁),R₁))</text>
</a>
</g>
</g>
<!-- c_0_67&#45;&gt;c_0_115 -->
<g id="edge3" class="edge">
<title>c_0_67&#45;&gt;c_0_115</title>
<path fill="none" stroke="black" stroke-dasharray="5,2" d="M936,-173.48C936,-173.48 936,-131.54 936,-131.54"/>
<polygon fill="black" stroke="black" points="939.5,-131.54 936,-121.54 932.5,-131.54 939.5,-131.54"/>
</g>
<!-- c_0_86 -->
<g id="node5" class="node">
<title>c_0_86</title>
<g id="a_node5"><a xlink:href="c_0_86.html" xlink:title="{ 0. TOP&#45;REAL(C₁) ∈ carrier(TOP&#45;REAL(C₁))| `1 sk₂(Sphere(C₁, 0. TOP&#45;REAL(C₁),R₂),a_4_1_jgraph_6(&#45;(R₂),R₃,&#45;(R₂),R₄)) ≤ R₃| `2 sk₂(Sphere(C₁, 0. TOP&#45;REAL(C₁),R₂),a_4_1_jgraph_6(&#45;(R₂),R₃,&#45;(R₂),R₄)) ≤ R₄|C₁ ∈ ℕ|sk₂(Sphere(C₁, 0. TOP&#45;REAL(C₁),R₂),a_4_1_jgraph_6(&#45;(R₂),R₃,&#45;(R₂),R₄)) ∈ carrier(TOP&#45;REAL(2))|⇊|Sphere(C₁, 0. TOP&#45;REAL(C₁),R₂) ⊆ a_4_1_jgraph_6(&#45;(R₂),R₃,&#45;(R₂),R₄)}" target="_parent">
<polygon fill="#f8edd1" stroke="#7f7542" points="16,-24 16,-129 674,-129 674,-24 16,-24"/>
<text text-anchor="middle" x="345" y="-117.8" font-family="Times,serif" font-size="14.00">0. TOP&#45;REAL(C₁) ∈ carrier(TOP&#45;REAL(C₁))</text>
<polyline fill="none" stroke="#7f7542" points="16,-114 674,-114 "/>
<text text-anchor="middle" x="345" y="-102.8" font-family="Times,serif" font-size="14.00">`1 sk₂(Sphere(C₁, 0. TOP&#45;REAL(C₁),R₂),a_4_1_jgraph_6(&#45;(R₂),R₃,&#45;(R₂),R₄)) ≤ R₃</text>
<polyline fill="none" stroke="#7f7542" points="16,-99 674,-99 "/>
<text text-anchor="middle" x="345" y="-87.8" font-family="Times,serif" font-size="14.00">`2 sk₂(Sphere(C₁, 0. TOP&#45;REAL(C₁),R₂),a_4_1_jgraph_6(&#45;(R₂),R₃,&#45;(R₂),R₄)) ≤ R₄</text>
<polyline fill="none" stroke="#7f7542" points="16,-84 674,-84 "/>
<text text-anchor="middle" x="345" y="-72.8" font-family="Times,serif" font-size="14.00">C₁ ∈ ℕ</text>
<polyline fill="none" stroke="#7f7542" points="16,-69 674,-69 "/>
<text text-anchor="middle" x="345" y="-57.8" font-family="Times,serif" font-size="14.00">sk₂(Sphere(C₁, 0. TOP&#45;REAL(C₁),R₂),a_4_1_jgraph_6(&#45;(R₂),R₃,&#45;(R₂),R₄)) ∈ carrier(TOP&#45;REAL(2))</text>
<polyline fill="none" stroke="#7f7542" points="16,-54 674,-54 "/>
<text text-anchor="middle" x="345" y="-42.8" font-family="Times,serif" font-size="14.00">⇊</text>
<polyline fill="none" stroke="#7f7542" points="16,-39 674,-39 "/>
<text text-anchor="middle" x="345" y="-27.8" font-family="Times,serif" font-size="14.00">Sphere(C₁, 0. TOP&#45;REAL(C₁),R₂) ⊆ a_4_1_jgraph_6(&#45;(R₂),R₃,&#45;(R₂),R₄)</text>
</a>
</g>
</g>
<!-- c_0_67&#45;&gt;c_0_86 -->
<g id="edge4" class="edge">
<title>c_0_67&#45;&gt;c_0_86</title>
<path fill="none" stroke="black" stroke-dasharray="5,2" d="M920.25,-173.21C920.25,-157.83 920.25,-125 920.25,-125 920.25,-125 684.21,-125 684.21,-125"/>
<polygon fill="black" stroke="black" points="684.21,-121.5 674.21,-125 684.21,-128.5 684.21,-121.5"/>
</g>
</g>
</svg>
