<?xml version="1.0" encoding="UTF-8" standalone="no"?>
<!DOCTYPE svg PUBLIC "-//W3C//DTD SVG 1.1//EN"
 "http://www.w3.org/Graphics/SVG/1.1/DTD/svg11.dtd">
<!-- Generated by graphviz version 5.0.0 (0)
 -->
<!-- Title: proof Pages: 1 -->
<svg width="1777pt" height="280pt"
 viewBox="0.00 0.00 1777.00 280.00" xmlns="http://www.w3.org/2000/svg" xmlns:xlink="http://www.w3.org/1999/xlink">
<g id="graph0" class="graph" transform="scale(1 1) rotate(0) translate(4 276)">
<title>proof</title>
<g id="clust1" class="cluster">
<title>cluster_0</title>
<polygon fill="transparent" stroke="black" stroke-dasharray="1,5" points="860,-187 860,-264 1117,-264 1117,-187 860,-187"/>
</g>
<g id="clust2" class="cluster">
<title>cluster_1</title>
<polygon fill="transparent" stroke="black" stroke-width="2" points="958,-135 958,-167 1016,-167 1016,-135 958,-135"/>
</g>
<g id="clust3" class="cluster">
<title>cluster_2</title>
<polygon fill="transparent" stroke="black" stroke-dasharray="1,5" points="8,-8 8,-115 1761,-115 1761,-8 8,-8"/>
</g>
<!-- c_0_101 -->
<g id="node1" class="node">
<title>c_0_101</title>
<g id="a_node1"><a xlink:href="c_0_101.html" xlink:title="{X₁ ⊆ ℕ|X₂ ∈ X₁|⇊|X₂ ∈ ℕ}" target="_parent">
<polygon fill="#f8edd1" stroke="#7f7542" points="1059,-195.5 1059,-255.5 1109,-255.5 1109,-195.5 1059,-195.5"/>
<text text-anchor="middle" x="1084" y="-244.3" font-family="Times,serif" font-size="14.00">X₁ ⊆ ℕ</text>
<polyline fill="none" stroke="#7f7542" points="1059,-240.5 1109,-240.5 "/>
<text text-anchor="middle" x="1084" y="-229.3" font-family="Times,serif" font-size="14.00">X₂ ∈ X₁</text>
<polyline fill="none" stroke="#7f7542" points="1059,-225.5 1109,-225.5 "/>
<text text-anchor="middle" x="1084" y="-214.3" font-family="Times,serif" font-size="14.00">⇊</text>
<polyline fill="none" stroke="#7f7542" points="1059,-210.5 1109,-210.5 "/>
<text text-anchor="middle" x="1084" y="-199.3" font-family="Times,serif" font-size="14.00">X₂ ∈ ℕ</text>
</a>
</g>
</g>
<!-- c_0_102 -->
<g id="node4" class="node">
<title>c_0_102</title>
<g id="a_node4"><a xlink:href="c_0_102.html" xlink:title="{2 ∈ ℕ}" target="_parent">
<polygon fill="#f8edd1" stroke="#7f7542" points="966,-143.5 966,-158.5 1008,-158.5 1008,-143.5 966,-143.5"/>
<text text-anchor="middle" x="987" y="-147.3" font-family="Times,serif" font-size="14.00">2 ∈ ℕ</text>
</a>
</g>
</g>
<!-- c_0_101&#45;&gt;c_0_102 -->
<g id="edge1" class="edge">
<title>c_0_101&#45;&gt;c_0_102</title>
<path fill="none" stroke="black" d="M1067,-195.19C1067,-176.08 1067,-155 1067,-155 1067,-155 1018.02,-155 1018.02,-155"/>
<polygon fill="black" stroke="black" points="1018.02,-151.5 1008.02,-155 1018.02,-158.5 1018.02,-151.5"/>
</g>
<!-- spc2_numerals -->
<g id="node2" class="node">
<title>spc2_numerals</title>
<g id="a_node2"><a xlink:href="spc2_numerals.html" xlink:title="spc2_numerals" target="_parent">
<polygon fill="#69d2e7" stroke="#7f7542" points="933.5,-218 933.5,-233 1040.5,-233 1040.5,-218 933.5,-218"/>
<text text-anchor="middle" x="987" y="-221.8" font-family="Times,serif" font-size="14.00">spc2_numerals</text>
</a>
</g>
</g>
<!-- spc2_numerals&#45;&gt;c_0_102 -->
<g id="edge2" class="edge">
<title>spc2_numerals&#45;&gt;c_0_102</title>
<path fill="none" stroke="black" d="M987,-217.81C987,-217.81 987,-168.76 987,-168.76"/>
<polygon fill="black" stroke="black" points="990.5,-168.76 987,-158.76 983.5,-168.76 990.5,-168.76"/>
</g>
<!-- c_0_103 -->
<g id="node3" class="node">
<title>c_0_103</title>
<g id="a_node3"><a xlink:href="c_0_103.html" xlink:title="{ℕ ⊆ ℕ}" target="_parent">
<polygon fill="#f8edd1" stroke="#7f7542" points="868.5,-218 868.5,-233 915.5,-233 915.5,-218 868.5,-218"/>
<text text-anchor="middle" x="892" y="-221.8" font-family="Times,serif" font-size="14.00">ℕ ⊆ ℕ</text>
</a>
</g>
</g>
<!-- c_0_103&#45;&gt;c_0_102 -->
<g id="edge3" class="edge">
<title>c_0_103&#45;&gt;c_0_102</title>
<path fill="none" stroke="black" d="M892,-217.74C892,-199.04 892,-153 892,-153 892,-153 955.92,-153 955.92,-153"/>
<polygon fill="black" stroke="black" points="955.92,-156.5 965.92,-153 955.92,-149.5 955.92,-156.5"/>
</g>
<!-- c_0_112 -->
<g id="node5" class="node">
<title>c_0_112</title>
<g id="a_node5"><a xlink:href="c_0_112.html" xlink:title="{ 0. TOP&#45;REAL(2) ∈ carrier(TOP&#45;REAL(2))|⇊|Sphere(2, 0. TOP&#45;REAL(2),R₁) ⊆ a_4_1_jgraph_6(&#45;(R₁),R₁,&#45;(R₁),R₁)}" target="_parent">
<polygon fill="#f8edd1" stroke="#7f7542" points="1295,-39 1295,-84 1753,-84 1753,-39 1295,-39"/>
<text text-anchor="middle" x="1524" y="-72.8" font-family="Times,serif" font-size="14.00">0. TOP&#45;REAL(2) ∈ carrier(TOP&#45;REAL(2))</text>
<polyline fill="none" stroke="#7f7542" points="1295,-69 1753,-69 "/>
<text text-anchor="middle" x="1524" y="-57.8" font-family="Times,serif" font-size="14.00">⇊</text>
<polyline fill="none" stroke="#7f7542" points="1295,-54 1753,-54 "/>
<text text-anchor="middle" x="1524" y="-42.8" font-family="Times,serif" font-size="14.00">Sphere(2, 0. TOP&#45;REAL(2),R₁) ⊆ a_4_1_jgraph_6(&#45;(R₁),R₁,&#45;(R₁),R₁)</text>
</a>
</g>
</g>
<!-- c_0_102&#45;&gt;c_0_112 -->
<g id="edge4" class="edge">
<title>c_0_102&#45;&gt;c_0_112</title>
<path fill="none" stroke="black" stroke-dasharray="5,2" d="M1008.05,-152C1107.33,-152 1524,-152 1524,-152 1524,-152 1524,-94.34 1524,-94.34"/>
<polygon fill="black" stroke="black" points="1527.5,-94.34 1524,-84.34 1520.5,-94.34 1527.5,-94.34"/>
</g>
<!-- c_0_132 -->
<g id="node6" class="node">
<title>c_0_132</title>
<g id="a_node6"><a xlink:href="c_0_132.html" xlink:title="{TopSpace&#45;like(TOP&#45;REAL(2))|TopStruct(TOP&#45;REAL(2))|⇊|⊥}" target="_parent">
<polygon fill="#fa6900" stroke="#7f7542" points="1075,-31.5 1075,-91.5 1277,-91.5 1277,-31.5 1075,-31.5"/>
<text text-anchor="middle" x="1176" y="-80.3" font-family="Times,serif" font-size="14.00">TopSpace&#45;like(TOP&#45;REAL(2))</text>
<polyline fill="none" stroke="#7f7542" points="1075,-76.5 1277,-76.5 "/>
<text text-anchor="middle" x="1176" y="-65.3" font-family="Times,serif" font-size="14.00">TopStruct(TOP&#45;REAL(2))</text>
<polyline fill="none" stroke="#7f7542" points="1075,-61.5 1277,-61.5 "/>
<text text-anchor="middle" x="1176" y="-50.3" font-family="Times,serif" font-size="14.00">⇊</text>
<polyline fill="none" stroke="#7f7542" points="1075,-46.5 1277,-46.5 "/>
<text text-anchor="middle" x="1176" y="-35.3" font-family="Times,serif" font-size="14.00">⊥</text>
</a>
</g>
</g>
<!-- c_0_102&#45;&gt;c_0_132 -->
<g id="edge5" class="edge">
<title>c_0_102&#45;&gt;c_0_132</title>
<path fill="none" stroke="black" stroke-dasharray="5,2" d="M1008.25,-149C1038.93,-149 1092,-149 1092,-149 1092,-149 1092,-101.61 1092,-101.61"/>
<polygon fill="black" stroke="black" points="1095.5,-101.61 1092,-91.61 1088.5,-101.61 1095.5,-101.61"/>
</g>
<!-- c_0_135 -->
<g id="node7" class="node">
<title>c_0_135</title>
<g id="a_node7"><a xlink:href="c_0_135.html" xlink:title="⊥" target="_parent">
<polygon fill="#fa6900" stroke="#7f7542" points="1043,-54 1043,-69 1057,-69 1057,-54 1043,-54"/>
<text text-anchor="middle" x="1050" y="-57.8" font-family="Times,serif" font-size="14.00">⊥</text>
</a>
</g>
</g>
<!-- c_0_102&#45;&gt;c_0_135 -->
<g id="edge6" class="edge">
<title>c_0_102&#45;&gt;c_0_135</title>
<path fill="none" stroke="black" stroke-dasharray="5,2" d="M1008.33,-146C1026.61,-146 1050,-146 1050,-146 1050,-146 1050,-79.3 1050,-79.3"/>
<polygon fill="black" stroke="black" points="1053.5,-79.3 1050,-69.3 1046.5,-79.3 1053.5,-79.3"/>
</g>
<!-- c_0_134 -->
<g id="node8" class="node">
<title>c_0_134</title>
<g id="a_node8"><a xlink:href="c_0_134.html" xlink:title="{¬ (TopStruct(TOP&#45;REAL(2)))}" target="_parent">
<polygon fill="#fa6900" stroke="#7f7542" points="823,-54 823,-69 1025,-69 1025,-54 823,-54"/>
<text text-anchor="middle" x="924" y="-57.8" font-family="Times,serif" font-size="14.00">¬ (TopStruct(TOP&#45;REAL(2)))</text>
</a>
</g>
</g>
<!-- c_0_102&#45;&gt;c_0_134 -->
<g id="edge7" class="edge">
<title>c_0_102&#45;&gt;c_0_134</title>
<path fill="none" stroke="black" stroke-dasharray="5,2" d="M994,-143.37C994,-143.37 994,-79.11 994,-79.11"/>
<polygon fill="black" stroke="black" points="997.5,-79.11 994,-69.11 990.5,-79.11 997.5,-79.11"/>
</g>
<!-- c_0_115 -->
<g id="node9" class="node">
<title>c_0_115</title>
<g id="a_node9"><a xlink:href="c_0_115.html" xlink:title="{ 0. TOP&#45;REAL(2) ∈ carrier(TOP&#45;REAL(2))|SubSpace(Tcircle(2, 0. TOP&#45;REAL(2),R₁),TOP&#45;REAL(2))|TopSpace&#45;like(TOP&#45;REAL(2))|TopStruct(TOP&#45;REAL(2))|⇊|SubSpace(Tcircle(2, 0. TOP&#45;REAL(2),R₁),Trectangle(&#45;(R₁),R₁,&#45;(R₁),R₁))}" target="_parent">
<polygon fill="#f8edd1" stroke="#7f7542" points="317.5,-16.5 317.5,-106.5 804.5,-106.5 804.5,-16.5 317.5,-16.5"/>
<text text-anchor="middle" x="561" y="-95.3" font-family="Times,serif" font-size="14.00">0. TOP&#45;REAL(2) ∈ carrier(TOP&#45;REAL(2))</text>
<polyline fill="none" stroke="#7f7542" points="317.5,-91.5 804.5,-91.5 "/>
<text text-anchor="middle" x="561" y="-80.3" font-family="Times,serif" font-size="14.00">SubSpace(Tcircle(2, 0. TOP&#45;REAL(2),R₁),TOP&#45;REAL(2))</text>
<polyline fill="none" stroke="#7f7542" points="317.5,-76.5 804.5,-76.5 "/>
<text text-anchor="middle" x="561" y="-65.3" font-family="Times,serif" font-size="14.00">TopSpace&#45;like(TOP&#45;REAL(2))</text>
<polyline fill="none" stroke="#7f7542" points="317.5,-61.5 804.5,-61.5 "/>
<text text-anchor="middle" x="561" y="-50.3" font-family="Times,serif" font-size="14.00">TopStruct(TOP&#45;REAL(2))</text>
<polyline fill="none" stroke="#7f7542" points="317.5,-46.5 804.5,-46.5 "/>
<text text-anchor="middle" x="561" y="-35.3" font-family="Times,serif" font-size="14.00">⇊</text>
<polyline fill="none" stroke="#7f7542" points="317.5,-31.5 804.5,-31.5 "/>
<text text-anchor="middle" x="561" y="-20.3" font-family="Times,serif" font-size="14.00">SubSpace(Tcircle(2, 0. TOP&#45;REAL(2),R₁),Trectangle(&#45;(R₁),R₁,&#45;(R₁),R₁))</text>
</a>
</g>
</g>
<!-- c_0_102&#45;&gt;c_0_115 -->
<g id="edge8" class="edge">
<title>c_0_102&#45;&gt;c_0_115</title>
<path fill="none" stroke="black" stroke-dasharray="5,2" d="M980,-143.33C980,-128.86 980,-99 980,-99 980,-99 814.73,-99 814.73,-99"/>
<polygon fill="black" stroke="black" points="814.73,-95.5 804.73,-99 814.73,-102.5 814.73,-95.5"/>
</g>
<!-- c_0_125 -->
<g id="node10" class="node">
<title>c_0_125</title>
<g id="a_node10"><a xlink:href="c_0_125.html" xlink:title="{ 0. TOP&#45;REAL(2) ∈ carrier(TOP&#45;REAL(2))|TopSpace&#45;like(TOP&#45;REAL(2))|TopStruct(TOP&#45;REAL(2))|⇊|⊥}" target="_parent">
<polygon fill="#fa6900" stroke="#7f7542" points="16.5,-24 16.5,-99 299.5,-99 299.5,-24 16.5,-24"/>
<text text-anchor="middle" x="158" y="-87.8" font-family="Times,serif" font-size="14.00">0. TOP&#45;REAL(2) ∈ carrier(TOP&#45;REAL(2))</text>
<polyline fill="none" stroke="#7f7542" points="16.5,-84 299.5,-84 "/>
<text text-anchor="middle" x="158" y="-72.8" font-family="Times,serif" font-size="14.00">TopSpace&#45;like(TOP&#45;REAL(2))</text>
<polyline fill="none" stroke="#7f7542" points="16.5,-69 299.5,-69 "/>
<text text-anchor="middle" x="158" y="-57.8" font-family="Times,serif" font-size="14.00">TopStruct(TOP&#45;REAL(2))</text>
<polyline fill="none" stroke="#7f7542" points="16.5,-54 299.5,-54 "/>
<text text-anchor="middle" x="158" y="-42.8" font-family="Times,serif" font-size="14.00">⇊</text>
<polyline fill="none" stroke="#7f7542" points="16.5,-39 299.5,-39 "/>
<text text-anchor="middle" x="158" y="-27.8" font-family="Times,serif" font-size="14.00">⊥</text>
</a>
</g>
</g>
<!-- c_0_102&#45;&gt;c_0_125 -->
<g id="edge9" class="edge">
<title>c_0_102&#45;&gt;c_0_125</title>
<path fill="none" stroke="black" stroke-dasharray="5,2" d="M965.67,-148C835.92,-148 158,-148 158,-148 158,-148 158,-109.19 158,-109.19"/>
<polygon fill="black" stroke="black" points="161.5,-109.19 158,-99.19 154.5,-109.19 161.5,-109.19"/>
</g>
</g>
</svg>
