<?xml version="1.0" encoding="UTF-8" standalone="no"?>
<!DOCTYPE svg PUBLIC "-//W3C//DTD SVG 1.1//EN"
 "http://www.w3.org/Graphics/SVG/1.1/DTD/svg11.dtd">
<!-- Generated by graphviz version 5.0.0 (0)
 -->
<!-- Title: proof Pages: 1 -->
<svg width="342pt" height="138pt"
 viewBox="0.00 0.00 342.00 138.00" xmlns="http://www.w3.org/2000/svg" xmlns:xlink="http://www.w3.org/1999/xlink">
<g id="graph0" class="graph" transform="scale(1 1) rotate(0) translate(4 134)">
<title>proof</title>
<g id="clust1" class="cluster">
<title>cluster_1</title>
<polygon fill="transparent" stroke="black" stroke-width="2" points="106,-90 106,-122 228,-122 228,-90 106,-90"/>
</g>
<g id="clust2" class="cluster">
<title>cluster_2</title>
<polygon fill="transparent" stroke="black" stroke-dasharray="1,5" points="8,-8 8,-70 326,-70 326,-8 8,-8"/>
</g>
<!-- dt_k7_toprealb -->
<g id="node1" class="node">
<title>dt_k7_toprealb</title>
<g id="a_node1"><a xlink:href="dt_k7_toprealb.html" xlink:title="dt_k7_toprealb" target="_vizar">
<polygon fill="#69d2e7" stroke="#7f7542" points="114,-98.5 114,-113.5 220,-113.5 220,-98.5 114,-98.5"/>
<text text-anchor="middle" x="167" y="-102.3" font-family="Times,serif" font-size="14.00">dt_k7_toprealb</text>
</a>
</g>
</g>
<!-- c_0_121 -->
<g id="node2" class="node">
<title>c_0_121</title>
<g id="a_node2"><a xlink:href="c_0_121.html" xlink:title="{X₂ ∈ carrier(TOP&#45;REAL(N₁))|⇊|SubSpace(Tcircle(N₁,X₂,R₃),TOP&#45;REAL(N₁))}" target="_vizar">
<polygon fill="#f8edd1" stroke="#7f7542" points="16,-16.5 16,-61.5 318,-61.5 318,-16.5 16,-16.5"/>
<text text-anchor="middle" x="167" y="-50.3" font-family="Times,serif" font-size="14.00">X₂ ∈ carrier(TOP&#45;REAL(N₁))</text>
<polyline fill="none" stroke="#7f7542" points="16,-46.5 318,-46.5 "/>
<text text-anchor="middle" x="167" y="-35.3" font-family="Times,serif" font-size="14.00">⇊</text>
<polyline fill="none" stroke="#7f7542" points="16,-31.5 318,-31.5 "/>
<text text-anchor="middle" x="167" y="-20.3" font-family="Times,serif" font-size="14.00">SubSpace(Tcircle(N₁,X₂,R₃),TOP&#45;REAL(N₁))</text>
</a>
</g>
</g>
<!-- dt_k7_toprealb&#45;&gt;c_0_121 -->
<g id="edge1" class="edge">
<title>dt_k7_toprealb&#45;&gt;c_0_121</title>
<path fill="none" stroke="black" d="M167,-98.31C167,-98.31 167,-71.76 167,-71.76"/>
<polygon fill="black" stroke="black" points="170.5,-71.76 167,-61.76 163.5,-71.76 170.5,-71.76"/>
</g>
</g>
</svg>
