<?xml version="1.0" encoding="UTF-8" standalone="no"?>
<!DOCTYPE svg PUBLIC "-//W3C//DTD SVG 1.1//EN"
 "http://www.w3.org/Graphics/SVG/1.1/DTD/svg11.dtd">
<!-- Generated by graphviz version 5.0.0 (0)
 -->
<!-- Title: proof Pages: 1 -->
<svg width="482pt" height="138pt"
 viewBox="0.00 0.00 482.00 138.00" xmlns="http://www.w3.org/2000/svg" xmlns:xlink="http://www.w3.org/1999/xlink">
<g id="graph0" class="graph" transform="scale(1 1) rotate(0) translate(4 134)">
<title>proof</title>
<g id="clust1" class="cluster">
<title>cluster_0</title>
<polygon fill="transparent" stroke="black" stroke-dasharray="1,5" points="8,-60 8,-122 466,-122 466,-60 8,-60"/>
</g>
<g id="clust2" class="cluster">
<title>cluster_1</title>
<polygon fill="transparent" stroke="black" stroke-width="2" points="229,-8 229,-40 259,-40 259,-8 229,-8"/>
</g>
<!-- c_0_115 -->
<g id="node1" class="node">
<title>c_0_115</title>
<g id="a_node1"><a xlink:href="c_0_115.html" xlink:title="{¬ (sk₁ \|&#45; sk₂ \|&#45; sk₃)}" target="_vizar">
<polygon fill="#fa6900" stroke="#7f7542" points="330.5,-83.5 330.5,-98.5 457.5,-98.5 457.5,-83.5 330.5,-83.5"/>
<text text-anchor="middle" x="394" y="-87.3" font-family="Times,serif" font-size="14.00">¬ (sk₁ |&#45; sk₂ |&#45; sk₃)</text>
</a>
</g>
</g>
<!-- c_0_118 -->
<g id="node4" class="node">
<title>c_0_118</title>
<g id="a_node4"><a xlink:href="c_0_118.html" xlink:title="⊥" target="_vizar">
<polygon fill="#fa6900" stroke="#7f7542" points="237,-16.5 237,-31.5 251,-31.5 251,-16.5 237,-16.5"/>
<text text-anchor="middle" x="244" y="-20.3" font-family="Times,serif" font-size="14.00">⊥</text>
</a>
</g>
</g>
<!-- c_0_115&#45;&gt;c_0_118 -->
<g id="edge1" class="edge">
<title>c_0_115&#45;&gt;c_0_118</title>
<path fill="none" stroke="black" d="M394,-83.31C394,-65.72 394,-24 394,-24 394,-24 261.23,-24 261.23,-24"/>
<polygon fill="black" stroke="black" points="261.23,-20.5 251.23,-24 261.23,-27.5 261.23,-20.5"/>
</g>
<!-- c_0_116 -->
<g id="node2" class="node">
<title>c_0_116</title>
<g id="a_node2"><a xlink:href="c_0_116.html" xlink:title="{X₁ ∈ CQC&#45;WFF(sk₁)|⇊|sk₁ \|&#45; sk₂ \|&#45; X₁}" target="_vizar">
<polygon fill="#fa6900" stroke="#7f7542" points="176,-68.5 176,-113.5 312,-113.5 312,-68.5 176,-68.5"/>
<text text-anchor="middle" x="244" y="-102.3" font-family="Times,serif" font-size="14.00">X₁ ∈ CQC&#45;WFF(sk₁)</text>
<polyline fill="none" stroke="#7f7542" points="176,-98.5 312,-98.5 "/>
<text text-anchor="middle" x="244" y="-87.3" font-family="Times,serif" font-size="14.00">⇊</text>
<polyline fill="none" stroke="#7f7542" points="176,-83.5 312,-83.5 "/>
<text text-anchor="middle" x="244" y="-72.3" font-family="Times,serif" font-size="14.00">sk₁ |&#45; sk₂ |&#45; X₁</text>
</a>
</g>
</g>
<!-- c_0_116&#45;&gt;c_0_118 -->
<g id="edge2" class="edge">
<title>c_0_116&#45;&gt;c_0_118</title>
<path fill="none" stroke="black" d="M244,-68.32C244,-68.32 244,-41.59 244,-41.59"/>
<polygon fill="black" stroke="black" points="247.5,-41.59 244,-31.59 240.5,-41.59 247.5,-41.59"/>
</g>
<!-- c_0_117 -->
<g id="node3" class="node">
<title>c_0_117</title>
<g id="a_node3"><a xlink:href="c_0_117.html" xlink:title="{sk₃ ∈ CQC&#45;WFF(sk₁)}" target="_vizar">
<polygon fill="#fa6900" stroke="#7f7542" points="16,-83.5 16,-98.5 158,-98.5 158,-83.5 16,-83.5"/>
<text text-anchor="middle" x="87" y="-87.3" font-family="Times,serif" font-size="14.00">sk₃ ∈ CQC&#45;WFF(sk₁)</text>
</a>
</g>
</g>
<!-- c_0_117&#45;&gt;c_0_118 -->
<g id="edge3" class="edge">
<title>c_0_117&#45;&gt;c_0_118</title>
<path fill="none" stroke="black" d="M87,-83.31C87,-65.72 87,-24 87,-24 87,-24 226.85,-24 226.85,-24"/>
<polygon fill="black" stroke="black" points="226.85,-27.5 236.85,-24 226.85,-20.5 226.85,-27.5"/>
</g>
</g>
</svg>
