<?xml version="1.0" encoding="UTF-8" standalone="no"?>
<!DOCTYPE svg PUBLIC "-//W3C//DTD SVG 1.1//EN"
 "http://www.w3.org/Graphics/SVG/1.1/DTD/svg11.dtd">
<!-- Generated by graphviz version 5.0.0 (0)
 -->
<!-- Title: proof Pages: 1 -->
<svg width="362pt" height="175pt"
 viewBox="0.00 0.00 362.00 175.00" xmlns="http://www.w3.org/2000/svg" xmlns:xlink="http://www.w3.org/1999/xlink">
<g id="graph0" class="graph" transform="scale(1 1) rotate(0) translate(4 171)">
<title>proof</title>
<g id="clust1" class="cluster">
<title>cluster_0</title>
<polygon fill="transparent" stroke="black" stroke-dasharray="1,5" points="8,-112 8,-159 346,-159 346,-112 8,-112"/>
</g>
<g id="clust2" class="cluster">
<title>cluster_1</title>
<polygon fill="transparent" stroke="black" stroke-width="2" points="103,-60 103,-92 261,-92 261,-60 103,-60"/>
</g>
<g id="clust3" class="cluster">
<title>cluster_2</title>
<polygon fill="transparent" stroke="black" stroke-dasharray="1,5" points="167,-8 167,-40 197,-40 197,-8 167,-8"/>
</g>
<!-- c_0_114 -->
<g id="node1" class="node">
<title>c_0_114</title>
<g id="a_node1"><a xlink:href="c_0_114.html" xlink:title="{Consistent(sk₂,sk₁)|sk₃ ∈ CQC&#45;WFF(sk₁)}" target="_vizar">
<polygon fill="#fa6900" stroke="#7f7542" points="196,-120.5 196,-150.5 338,-150.5 338,-120.5 196,-120.5"/>
<text text-anchor="middle" x="267" y="-139.3" font-family="Times,serif" font-size="14.00">Consistent(sk₂,sk₁)</text>
<polyline fill="none" stroke="#7f7542" points="196,-135.5 338,-135.5 "/>
<text text-anchor="middle" x="267" y="-124.3" font-family="Times,serif" font-size="14.00">sk₃ ∈ CQC&#45;WFF(sk₁)</text>
</a>
</g>
</g>
<!-- c_0_117 -->
<g id="node3" class="node">
<title>c_0_117</title>
<g id="a_node3"><a xlink:href="c_0_117.html" xlink:title="{sk₃ ∈ CQC&#45;WFF(sk₁)}" target="_vizar">
<polygon fill="#fa6900" stroke="#7f7542" points="111,-68.5 111,-83.5 253,-83.5 253,-68.5 111,-68.5"/>
<text text-anchor="middle" x="182" y="-72.3" font-family="Times,serif" font-size="14.00">sk₃ ∈ CQC&#45;WFF(sk₁)</text>
</a>
</g>
</g>
<!-- c_0_114&#45;&gt;c_0_117 -->
<g id="edge1" class="edge">
<title>c_0_114&#45;&gt;c_0_117</title>
<path fill="none" stroke="black" d="M224.5,-120.49C224.5,-120.49 224.5,-93.73 224.5,-93.73"/>
<polygon fill="black" stroke="black" points="228,-93.73 224.5,-83.73 221,-93.73 228,-93.73"/>
</g>
<!-- c_0_111 -->
<g id="node2" class="node">
<title>c_0_111</title>
<g id="a_node2"><a xlink:href="c_0_111.html" xlink:title="{¬ (Consistent(sk₂,sk₁))}" target="_vizar">
<polygon fill="#fa6900" stroke="#7f7542" points="16.5,-128 16.5,-143 177.5,-143 177.5,-128 16.5,-128"/>
<text text-anchor="middle" x="97" y="-131.8" font-family="Times,serif" font-size="14.00">¬ (Consistent(sk₂,sk₁))</text>
</a>
</g>
</g>
<!-- c_0_111&#45;&gt;c_0_117 -->
<g id="edge2" class="edge">
<title>c_0_111&#45;&gt;c_0_117</title>
<path fill="none" stroke="black" d="M144.25,-127.72C144.25,-127.72 144.25,-93.59 144.25,-93.59"/>
<polygon fill="black" stroke="black" points="147.75,-93.59 144.25,-83.59 140.75,-93.59 147.75,-93.59"/>
</g>
<!-- c_0_118 -->
<g id="node4" class="node">
<title>c_0_118</title>
<g id="a_node4"><a xlink:href="c_0_118.html" xlink:title="⊥" target="_vizar">
<polygon fill="#fa6900" stroke="#7f7542" points="175,-16.5 175,-31.5 189,-31.5 189,-16.5 175,-16.5"/>
<text text-anchor="middle" x="182" y="-20.3" font-family="Times,serif" font-size="14.00">⊥</text>
</a>
</g>
</g>
<!-- c_0_117&#45;&gt;c_0_118 -->
<g id="edge3" class="edge">
<title>c_0_117&#45;&gt;c_0_118</title>
<path fill="none" stroke="black" stroke-dasharray="5,2" d="M182,-68.33C182,-68.33 182,-41.7 182,-41.7"/>
<polygon fill="black" stroke="black" points="185.5,-41.7 182,-31.7 178.5,-41.7 185.5,-41.7"/>
</g>
</g>
</svg>
