<?xml version="1.0" encoding="UTF-8" standalone="no"?>
<!DOCTYPE svg PUBLIC "-//W3C//DTD SVG 1.1//EN"
 "http://www.w3.org/Graphics/SVG/1.1/DTD/svg11.dtd">
<!-- Generated by graphviz version 5.0.0 (0)
 -->
<!-- Title: proof Pages: 1 -->
<svg width="928pt" height="715pt"
 viewBox="0.00 0.00 928.00 715.00" xmlns="http://www.w3.org/2000/svg" xmlns:xlink="http://www.w3.org/1999/xlink">
<g id="graph0" class="graph" transform="scale(1 1) rotate(0) translate(4 711)">
<title>proof</title>
<g id="clust1" class="cluster">
<title>cluster_0</title>
<polygon fill="transparent" stroke="black" stroke-dasharray="1,5" points="8,-487 8,-699 912,-699 912,-487 8,-487"/>
</g>
<g id="clust2" class="cluster">
<title>cluster_1</title>
<polygon fill="transparent" stroke="black" stroke-width="2" points="282,-255 282,-467 764,-467 764,-255 282,-255"/>
</g>
<g id="clust3" class="cluster">
<title>cluster_2</title>
<polygon fill="transparent" stroke="black" stroke-dasharray="1,5" points="340,-8 340,-235 706,-235 706,-8 340,-8"/>
</g>
<!-- c_0_42 -->
<g id="node1" class="node">
<title>c_0_42</title>
<g id="a_node1"><a xlink:href="c_0_42.html" xlink:title="{&#45;valued(X₁,X₂)|relation(X₁)|⇊|rng(X₂,X₁) = proj₂(X₁)}" target="_parent">
<polygon fill="#f8edd1" stroke="#7f7542" points="752.5,-563 752.5,-623 903.5,-623 903.5,-563 752.5,-563"/>
<text text-anchor="middle" x="828" y="-611.8" font-family="Times,serif" font-size="14.00">&#45;valued(X₁,X₂)</text>
<polyline fill="none" stroke="#7f7542" points="752.5,-608 903.5,-608 "/>
<text text-anchor="middle" x="828" y="-596.8" font-family="Times,serif" font-size="14.00">relation(X₁)</text>
<polyline fill="none" stroke="#7f7542" points="752.5,-593 903.5,-593 "/>
<text text-anchor="middle" x="828" y="-581.8" font-family="Times,serif" font-size="14.00">⇊</text>
<polyline fill="none" stroke="#7f7542" points="752.5,-578 903.5,-578 "/>
<text text-anchor="middle" x="828" y="-566.8" font-family="Times,serif" font-size="14.00">rng(X₂,X₁) = proj₂(X₁)</text>
</a>
</g>
</g>
<!-- c_0_48 -->
<g id="node5" class="node">
<title>c_0_48</title>
<g id="a_node5"><a xlink:href="c_0_48.html" xlink:title="{CQC&#45;WFF(X₁) ^ sk₄(X₁,X₆,X₁ &#39;not&#39; X₅) ^ X₄ ∈ fin&#45;seq(CQC&#45;WFF(X₁))|QC&#45;alphabet(X₁)|X₁ &#39;not&#39; X₅ ∈ CQC&#45;WFF(X₁) ⊆ QC&#45;WFF(X₁)|X₁ \|&#45; CQC&#45;WFF(X₁) ^ X₄ ^ &amp;lt;X₅&amp;gt;|X₁ \|&#45; X₆ \|&#45; X₁ &#39;not&#39; X₅|X₂ ∈ bool(CQC&#45;WFF(X₁))|X₃ ∈ CQC&#45;WFF(X₁) ⊆ QC&#45;WFF(X₁)|X₄ ∈ fin&#45;seq(CQC&#45;WFF(X₁))|X₅ ∈ CQC&#45;WFF(X₁) ⊆ QC&#45;WFF(X₁)|X₆ ∈ bool(CQC&#45;WFF(X₁))|proj₂(CQC&#45;WFF(X₁) ^ sk₄(X₁,X₆,X₁ &#39;not&#39; X₅) ^ X₄) ⊆ X₂|⇊|X₁ \|&#45; X₂ \|&#45; X₃}" target="_parent">
<polygon fill="#f8edd1" stroke="#7f7542" points="290,-263.5 290,-458.5 756,-458.5 756,-263.5 290,-263.5"/>
<text text-anchor="middle" x="523" y="-447.3" font-family="Times,serif" font-size="14.00">CQC&#45;WFF(X₁) ^ sk₄(X₁,X₆,X₁ &#39;not&#39; X₅) ^ X₄ ∈ fin&#45;seq(CQC&#45;WFF(X₁))</text>
<polyline fill="none" stroke="#7f7542" points="290,-443.5 756,-443.5 "/>
<text text-anchor="middle" x="523" y="-432.3" font-family="Times,serif" font-size="14.00">QC&#45;alphabet(X₁)</text>
<polyline fill="none" stroke="#7f7542" points="290,-428.5 756,-428.5 "/>
<text text-anchor="middle" x="523" y="-417.3" font-family="Times,serif" font-size="14.00">X₁ &#39;not&#39; X₅ ∈ CQC&#45;WFF(X₁) ⊆ QC&#45;WFF(X₁)</text>
<polyline fill="none" stroke="#7f7542" points="290,-413.5 756,-413.5 "/>
<text text-anchor="middle" x="523" y="-402.3" font-family="Times,serif" font-size="14.00">X₁ |&#45; CQC&#45;WFF(X₁) ^ X₄ ^ &lt;X₅&gt;</text>
<polyline fill="none" stroke="#7f7542" points="290,-398.5 756,-398.5 "/>
<text text-anchor="middle" x="523" y="-387.3" font-family="Times,serif" font-size="14.00">X₁ |&#45; X₆ |&#45; X₁ &#39;not&#39; X₅</text>
<polyline fill="none" stroke="#7f7542" points="290,-383.5 756,-383.5 "/>
<text text-anchor="middle" x="523" y="-372.3" font-family="Times,serif" font-size="14.00">X₂ ∈ bool(CQC&#45;WFF(X₁))</text>
<polyline fill="none" stroke="#7f7542" points="290,-368.5 756,-368.5 "/>
<text text-anchor="middle" x="523" y="-357.3" font-family="Times,serif" font-size="14.00">X₃ ∈ CQC&#45;WFF(X₁) ⊆ QC&#45;WFF(X₁)</text>
<polyline fill="none" stroke="#7f7542" points="290,-353.5 756,-353.5 "/>
<text text-anchor="middle" x="523" y="-342.3" font-family="Times,serif" font-size="14.00">X₄ ∈ fin&#45;seq(CQC&#45;WFF(X₁))</text>
<polyline fill="none" stroke="#7f7542" points="290,-338.5 756,-338.5 "/>
<text text-anchor="middle" x="523" y="-327.3" font-family="Times,serif" font-size="14.00">X₅ ∈ CQC&#45;WFF(X₁) ⊆ QC&#45;WFF(X₁)</text>
<polyline fill="none" stroke="#7f7542" points="290,-323.5 756,-323.5 "/>
<text text-anchor="middle" x="523" y="-312.3" font-family="Times,serif" font-size="14.00">X₆ ∈ bool(CQC&#45;WFF(X₁))</text>
<polyline fill="none" stroke="#7f7542" points="290,-308.5 756,-308.5 "/>
<text text-anchor="middle" x="523" y="-297.3" font-family="Times,serif" font-size="14.00">proj₂(CQC&#45;WFF(X₁) ^ sk₄(X₁,X₆,X₁ &#39;not&#39; X₅) ^ X₄) ⊆ X₂</text>
<polyline fill="none" stroke="#7f7542" points="290,-293.5 756,-293.5 "/>
<text text-anchor="middle" x="523" y="-282.3" font-family="Times,serif" font-size="14.00">⇊</text>
<polyline fill="none" stroke="#7f7542" points="290,-278.5 756,-278.5 "/>
<text text-anchor="middle" x="523" y="-267.3" font-family="Times,serif" font-size="14.00">X₁ |&#45; X₂ |&#45; X₃</text>
</a>
</g>
</g>
<!-- c_0_42&#45;&gt;c_0_48 -->
<g id="edge1" class="edge">
<title>c_0_42&#45;&gt;c_0_48</title>
<path fill="none" stroke="black" d="M752.32,-566C746.75,-566 743.25,-566 743.25,-566 743.25,-566 743.25,-468.7 743.25,-468.7"/>
<polygon fill="black" stroke="black" points="746.75,-468.7 743.25,-458.7 739.75,-468.7 746.75,-468.7"/>
</g>
<!-- c_0_44 -->
<g id="node2" class="node">
<title>c_0_44</title>
<g id="a_node2"><a xlink:href="c_0_44.html" xlink:title="{X₁ ∈ fin&#45;seq(X₂)|⇊|&#45;valued(X₁,X₂)}" target="_parent">
<polygon fill="#f8edd1" stroke="#7f7542" points="626,-570.5 626,-615.5 734,-615.5 734,-570.5 626,-570.5"/>
<text text-anchor="middle" x="680" y="-604.3" font-family="Times,serif" font-size="14.00">X₁ ∈ fin&#45;seq(X₂)</text>
<polyline fill="none" stroke="#7f7542" points="626,-600.5 734,-600.5 "/>
<text text-anchor="middle" x="680" y="-589.3" font-family="Times,serif" font-size="14.00">⇊</text>
<polyline fill="none" stroke="#7f7542" points="626,-585.5 734,-585.5 "/>
<text text-anchor="middle" x="680" y="-574.3" font-family="Times,serif" font-size="14.00">&#45;valued(X₁,X₂)</text>
</a>
</g>
</g>
<!-- c_0_44&#45;&gt;c_0_48 -->
<g id="edge2" class="edge">
<title>c_0_44&#45;&gt;c_0_48</title>
<path fill="none" stroke="black" d="M680,-570.33C680,-570.33 680,-468.5 680,-468.5"/>
<polygon fill="black" stroke="black" points="683.5,-468.5 680,-458.5 676.5,-468.5 683.5,-468.5"/>
</g>
<!-- c_0_41 -->
<g id="node3" class="node">
<title>c_0_41</title>
<g id="a_node3"><a xlink:href="c_0_41.html" xlink:title="{CQC&#45;WFF(X₁) ^ sk₄(X₁,X₆,X₁ &#39;not&#39; X₅) ^ X₄ ∈ fin&#45;seq(CQC&#45;WFF(X₁))|QC&#45;alphabet(X₁)|X₁ &#39;not&#39; X₅ ∈ CQC&#45;WFF(X₁) ⊆ QC&#45;WFF(X₁)|X₁ \|&#45; CQC&#45;WFF(X₁) ^ X₄ ^ &amp;lt;X₅&amp;gt;|X₁ \|&#45; X₆ \|&#45; X₁ &#39;not&#39; X₅|X₂ ∈ bool(CQC&#45;WFF(X₁))|X₃ ∈ CQC&#45;WFF(X₁) ⊆ QC&#45;WFF(X₁)|X₄ ∈ fin&#45;seq(CQC&#45;WFF(X₁))|X₅ ∈ CQC&#45;WFF(X₁) ⊆ QC&#45;WFF(X₁)|X₆ ∈ bool(CQC&#45;WFF(X₁))|rng(CQC&#45;WFF(X₁),CQC&#45;WFF(X₁) ^ sk₄(X₁,X₆,X₁ &#39;not&#39; X₅) ^ X₄) ⊆ X₂|⇊|X₁ \|&#45; X₂ \|&#45; X₃}" target="_parent">
<polygon fill="#f8edd1" stroke="#7f7542" points="142,-495.5 142,-690.5 608,-690.5 608,-495.5 142,-495.5"/>
<text text-anchor="middle" x="375" y="-679.3" font-family="Times,serif" font-size="14.00">CQC&#45;WFF(X₁) ^ sk₄(X₁,X₆,X₁ &#39;not&#39; X₅) ^ X₄ ∈ fin&#45;seq(CQC&#45;WFF(X₁))</text>
<polyline fill="none" stroke="#7f7542" points="142,-675.5 608,-675.5 "/>
<text text-anchor="middle" x="375" y="-664.3" font-family="Times,serif" font-size="14.00">QC&#45;alphabet(X₁)</text>
<polyline fill="none" stroke="#7f7542" points="142,-660.5 608,-660.5 "/>
<text text-anchor="middle" x="375" y="-649.3" font-family="Times,serif" font-size="14.00">X₁ &#39;not&#39; X₅ ∈ CQC&#45;WFF(X₁) ⊆ QC&#45;WFF(X₁)</text>
<polyline fill="none" stroke="#7f7542" points="142,-645.5 608,-645.5 "/>
<text text-anchor="middle" x="375" y="-634.3" font-family="Times,serif" font-size="14.00">X₁ |&#45; CQC&#45;WFF(X₁) ^ X₄ ^ &lt;X₅&gt;</text>
<polyline fill="none" stroke="#7f7542" points="142,-630.5 608,-630.5 "/>
<text text-anchor="middle" x="375" y="-619.3" font-family="Times,serif" font-size="14.00">X₁ |&#45; X₆ |&#45; X₁ &#39;not&#39; X₅</text>
<polyline fill="none" stroke="#7f7542" points="142,-615.5 608,-615.5 "/>
<text text-anchor="middle" x="375" y="-604.3" font-family="Times,serif" font-size="14.00">X₂ ∈ bool(CQC&#45;WFF(X₁))</text>
<polyline fill="none" stroke="#7f7542" points="142,-600.5 608,-600.5 "/>
<text text-anchor="middle" x="375" y="-589.3" font-family="Times,serif" font-size="14.00">X₃ ∈ CQC&#45;WFF(X₁) ⊆ QC&#45;WFF(X₁)</text>
<polyline fill="none" stroke="#7f7542" points="142,-585.5 608,-585.5 "/>
<text text-anchor="middle" x="375" y="-574.3" font-family="Times,serif" font-size="14.00">X₄ ∈ fin&#45;seq(CQC&#45;WFF(X₁))</text>
<polyline fill="none" stroke="#7f7542" points="142,-570.5 608,-570.5 "/>
<text text-anchor="middle" x="375" y="-559.3" font-family="Times,serif" font-size="14.00">X₅ ∈ CQC&#45;WFF(X₁) ⊆ QC&#45;WFF(X₁)</text>
<polyline fill="none" stroke="#7f7542" points="142,-555.5 608,-555.5 "/>
<text text-anchor="middle" x="375" y="-544.3" font-family="Times,serif" font-size="14.00">X₆ ∈ bool(CQC&#45;WFF(X₁))</text>
<polyline fill="none" stroke="#7f7542" points="142,-540.5 608,-540.5 "/>
<text text-anchor="middle" x="375" y="-529.3" font-family="Times,serif" font-size="14.00">rng(CQC&#45;WFF(X₁),CQC&#45;WFF(X₁) ^ sk₄(X₁,X₆,X₁ &#39;not&#39; X₅) ^ X₄) ⊆ X₂</text>
<polyline fill="none" stroke="#7f7542" points="142,-525.5 608,-525.5 "/>
<text text-anchor="middle" x="375" y="-514.3" font-family="Times,serif" font-size="14.00">⇊</text>
<polyline fill="none" stroke="#7f7542" points="142,-510.5 608,-510.5 "/>
<text text-anchor="middle" x="375" y="-499.3" font-family="Times,serif" font-size="14.00">X₁ |&#45; X₂ |&#45; X₃</text>
</a>
</g>
</g>
<!-- c_0_41&#45;&gt;c_0_48 -->
<g id="edge3" class="edge">
<title>c_0_41&#45;&gt;c_0_48</title>
<path fill="none" stroke="black" d="M449,-495.28C449,-495.28 449,-468.6 449,-468.6"/>
<polygon fill="black" stroke="black" points="452.5,-468.6 449,-458.6 445.5,-468.6 452.5,-468.6"/>
</g>
<!-- c_0_43 -->
<g id="node4" class="node">
<title>c_0_43</title>
<g id="a_node4"><a xlink:href="c_0_43.html" xlink:title="{X₁ ∈ fin&#45;seq(X₂)|⇊|relation(X₁)}" target="_parent">
<polygon fill="#f8edd1" stroke="#7f7542" points="16,-570.5 16,-615.5 124,-615.5 124,-570.5 16,-570.5"/>
<text text-anchor="middle" x="70" y="-604.3" font-family="Times,serif" font-size="14.00">X₁ ∈ fin&#45;seq(X₂)</text>
<polyline fill="none" stroke="#7f7542" points="16,-600.5 124,-600.5 "/>
<text text-anchor="middle" x="70" y="-589.3" font-family="Times,serif" font-size="14.00">⇊</text>
<polyline fill="none" stroke="#7f7542" points="16,-585.5 124,-585.5 "/>
<text text-anchor="middle" x="70" y="-574.3" font-family="Times,serif" font-size="14.00">relation(X₁)</text>
</a>
</g>
</g>
<!-- c_0_43&#45;&gt;c_0_48 -->
<g id="edge4" class="edge">
<title>c_0_43&#45;&gt;c_0_48</title>
<path fill="none" stroke="black" d="M70,-570.33C70,-511.96 70,-361 70,-361 70,-361 279.87,-361 279.87,-361"/>
<polygon fill="black" stroke="black" points="279.87,-364.5 289.87,-361 279.87,-357.5 279.87,-364.5"/>
</g>
<!-- c_0_54 -->
<g id="node6" class="node">
<title>c_0_54</title>
<g id="a_node6"><a xlink:href="c_0_54.html" xlink:title="{FinSequence(sk₄(X₁,X₆,X₁ &#39;not&#39; X₅),CQC&#45;WFF(X₁))|QC&#45;alphabet(X₁)|X₁ &#39;not&#39; X₅ ∈ CQC&#45;WFF(X₁) ⊆ QC&#45;WFF(X₁)|X₁ \|&#45; CQC&#45;WFF(X₁) ^ X₄ ^ &amp;lt;X₅&amp;gt;|X₁ \|&#45; X₆ \|&#45; X₁ &#39;not&#39; X₅|X₂ ∈ bool(CQC&#45;WFF(X₁))|X₃ ∈ CQC&#45;WFF(X₁) ⊆ QC&#45;WFF(X₁)|X₄ ∈ fin&#45;seq(CQC&#45;WFF(X₁))|X₅ ∈ CQC&#45;WFF(X₁) ⊆ QC&#45;WFF(X₁)|X₆ ∈ bool(CQC&#45;WFF(X₁))|proj₂(sk₄(X₁,X₆,X₁ &#39;not&#39; X₅) ^ X₄) ⊆ X₂|sk₄(X₁,X₆,X₁ &#39;not&#39; X₅) ^ X₄ ∈ fin&#45;seq(CQC&#45;WFF(X₁))|⇊|X₁ \|&#45; X₂ \|&#45; X₃}" target="_parent">
<polygon fill="#f8edd1" stroke="#7f7542" points="348.5,-16.5 348.5,-226.5 697.5,-226.5 697.5,-16.5 348.5,-16.5"/>
<text text-anchor="middle" x="523" y="-215.3" font-family="Times,serif" font-size="14.00">FinSequence(sk₄(X₁,X₆,X₁ &#39;not&#39; X₅),CQC&#45;WFF(X₁))</text>
<polyline fill="none" stroke="#7f7542" points="348.5,-211.5 697.5,-211.5 "/>
<text text-anchor="middle" x="523" y="-200.3" font-family="Times,serif" font-size="14.00">QC&#45;alphabet(X₁)</text>
<polyline fill="none" stroke="#7f7542" points="348.5,-196.5 697.5,-196.5 "/>
<text text-anchor="middle" x="523" y="-185.3" font-family="Times,serif" font-size="14.00">X₁ &#39;not&#39; X₅ ∈ CQC&#45;WFF(X₁) ⊆ QC&#45;WFF(X₁)</text>
<polyline fill="none" stroke="#7f7542" points="348.5,-181.5 697.5,-181.5 "/>
<text text-anchor="middle" x="523" y="-170.3" font-family="Times,serif" font-size="14.00">X₁ |&#45; CQC&#45;WFF(X₁) ^ X₄ ^ &lt;X₅&gt;</text>
<polyline fill="none" stroke="#7f7542" points="348.5,-166.5 697.5,-166.5 "/>
<text text-anchor="middle" x="523" y="-155.3" font-family="Times,serif" font-size="14.00">X₁ |&#45; X₆ |&#45; X₁ &#39;not&#39; X₅</text>
<polyline fill="none" stroke="#7f7542" points="348.5,-151.5 697.5,-151.5 "/>
<text text-anchor="middle" x="523" y="-140.3" font-family="Times,serif" font-size="14.00">X₂ ∈ bool(CQC&#45;WFF(X₁))</text>
<polyline fill="none" stroke="#7f7542" points="348.5,-136.5 697.5,-136.5 "/>
<text text-anchor="middle" x="523" y="-125.3" font-family="Times,serif" font-size="14.00">X₃ ∈ CQC&#45;WFF(X₁) ⊆ QC&#45;WFF(X₁)</text>
<polyline fill="none" stroke="#7f7542" points="348.5,-121.5 697.5,-121.5 "/>
<text text-anchor="middle" x="523" y="-110.3" font-family="Times,serif" font-size="14.00">X₄ ∈ fin&#45;seq(CQC&#45;WFF(X₁))</text>
<polyline fill="none" stroke="#7f7542" points="348.5,-106.5 697.5,-106.5 "/>
<text text-anchor="middle" x="523" y="-95.3" font-family="Times,serif" font-size="14.00">X₅ ∈ CQC&#45;WFF(X₁) ⊆ QC&#45;WFF(X₁)</text>
<polyline fill="none" stroke="#7f7542" points="348.5,-91.5 697.5,-91.5 "/>
<text text-anchor="middle" x="523" y="-80.3" font-family="Times,serif" font-size="14.00">X₆ ∈ bool(CQC&#45;WFF(X₁))</text>
<polyline fill="none" stroke="#7f7542" points="348.5,-76.5 697.5,-76.5 "/>
<text text-anchor="middle" x="523" y="-65.3" font-family="Times,serif" font-size="14.00">proj₂(sk₄(X₁,X₆,X₁ &#39;not&#39; X₅) ^ X₄) ⊆ X₂</text>
<polyline fill="none" stroke="#7f7542" points="348.5,-61.5 697.5,-61.5 "/>
<text text-anchor="middle" x="523" y="-50.3" font-family="Times,serif" font-size="14.00">sk₄(X₁,X₆,X₁ &#39;not&#39; X₅) ^ X₄ ∈ fin&#45;seq(CQC&#45;WFF(X₁))</text>
<polyline fill="none" stroke="#7f7542" points="348.5,-46.5 697.5,-46.5 "/>
<text text-anchor="middle" x="523" y="-35.3" font-family="Times,serif" font-size="14.00">⇊</text>
<polyline fill="none" stroke="#7f7542" points="348.5,-31.5 697.5,-31.5 "/>
<text text-anchor="middle" x="523" y="-20.3" font-family="Times,serif" font-size="14.00">X₁ |&#45; X₂ |&#45; X₃</text>
</a>
</g>
</g>
<!-- c_0_48&#45;&gt;c_0_54 -->
<g id="edge5" class="edge">
<title>c_0_48&#45;&gt;c_0_54</title>
<path fill="none" stroke="black" stroke-dasharray="5,2" d="M523,-263.24C523,-263.24 523,-236.74 523,-236.74"/>
<polygon fill="black" stroke="black" points="526.5,-236.74 523,-226.74 519.5,-236.74 526.5,-236.74"/>
</g>
</g>
</svg>
