<?xml version="1.0" encoding="UTF-8" standalone="no"?>
<!DOCTYPE svg PUBLIC "-//W3C//DTD SVG 1.1//EN"
 "http://www.w3.org/Graphics/SVG/1.1/DTD/svg11.dtd">
<!-- Generated by graphviz version 5.0.0 (0)
 -->
<!-- Title: proof Pages: 1 -->
<svg width="467pt" height="415pt"
 viewBox="0.00 0.00 467.00 415.00" xmlns="http://www.w3.org/2000/svg" xmlns:xlink="http://www.w3.org/1999/xlink">
<g id="graph0" class="graph" transform="scale(1 1) rotate(0) translate(4 411)">
<title>proof</title>
<g id="clust1" class="cluster">
<title>cluster_0</title>
<polygon fill="transparent" stroke="black" stroke-dasharray="1,5" points="8,-292 8,-399 451,-399 451,-292 8,-292"/>
</g>
<g id="clust2" class="cluster">
<title>cluster_1</title>
<polygon fill="transparent" stroke="black" stroke-width="2" points="100,-135 100,-272 364,-272 364,-135 100,-135"/>
</g>
<g id="clust3" class="cluster">
<title>cluster_2</title>
<polygon fill="transparent" stroke="black" stroke-dasharray="1,5" points="106,-8 106,-115 358,-115 358,-8 106,-8"/>
</g>
<!-- c_0_42 -->
<g id="node1" class="node">
<title>c_0_42</title>
<g id="a_node1"><a xlink:href="c_0_42.html" xlink:title="{&#45;valued(X₁,X₂)|relation(X₁)|⇊|rng(X₂,X₁) = proj₂(X₁)}" target="_vizar">
<polygon fill="#f8edd1" stroke="#7f7542" points="291.5,-315.5 291.5,-375.5 442.5,-375.5 442.5,-315.5 291.5,-315.5"/>
<text text-anchor="middle" x="367" y="-364.3" font-family="Times,serif" font-size="14.00">&#45;valued(X₁,X₂)</text>
<polyline fill="none" stroke="#7f7542" points="291.5,-360.5 442.5,-360.5 "/>
<text text-anchor="middle" x="367" y="-349.3" font-family="Times,serif" font-size="14.00">relation(X₁)</text>
<polyline fill="none" stroke="#7f7542" points="291.5,-345.5 442.5,-345.5 "/>
<text text-anchor="middle" x="367" y="-334.3" font-family="Times,serif" font-size="14.00">⇊</text>
<polyline fill="none" stroke="#7f7542" points="291.5,-330.5 442.5,-330.5 "/>
<text text-anchor="middle" x="367" y="-319.3" font-family="Times,serif" font-size="14.00">rng(X₂,X₁) = proj₂(X₁)</text>
</a>
</g>
</g>
<!-- c_0_67 -->
<g id="node3" class="node">
<title>c_0_67</title>
<g id="a_node3"><a xlink:href="c_0_67.html" xlink:title="{&#45;valued(sk₄(X₁,X₂,X₃),CQC&#45;WFF(X₁))|QC&#45;alphabet(X₁)|X₁ \|&#45; X₂ \|&#45; X₃|X₂ ∈ bool(CQC&#45;WFF(X₁))|X₃ ∈ CQC&#45;WFF(X₁) ⊆ QC&#45;WFF(X₁)|relation(sk₄(X₁,X₂,X₃))|⇊|proj₂(sk₄(X₁,X₂,X₃)) ⊆ X₂}" target="_vizar">
<polygon fill="#f8edd1" stroke="#7f7542" points="108,-143.5 108,-263.5 356,-263.5 356,-143.5 108,-143.5"/>
<text text-anchor="middle" x="232" y="-252.3" font-family="Times,serif" font-size="14.00">&#45;valued(sk₄(X₁,X₂,X₃),CQC&#45;WFF(X₁))</text>
<polyline fill="none" stroke="#7f7542" points="108,-248.5 356,-248.5 "/>
<text text-anchor="middle" x="232" y="-237.3" font-family="Times,serif" font-size="14.00">QC&#45;alphabet(X₁)</text>
<polyline fill="none" stroke="#7f7542" points="108,-233.5 356,-233.5 "/>
<text text-anchor="middle" x="232" y="-222.3" font-family="Times,serif" font-size="14.00">X₁ |&#45; X₂ |&#45; X₃</text>
<polyline fill="none" stroke="#7f7542" points="108,-218.5 356,-218.5 "/>
<text text-anchor="middle" x="232" y="-207.3" font-family="Times,serif" font-size="14.00">X₂ ∈ bool(CQC&#45;WFF(X₁))</text>
<polyline fill="none" stroke="#7f7542" points="108,-203.5 356,-203.5 "/>
<text text-anchor="middle" x="232" y="-192.3" font-family="Times,serif" font-size="14.00">X₃ ∈ CQC&#45;WFF(X₁) ⊆ QC&#45;WFF(X₁)</text>
<polyline fill="none" stroke="#7f7542" points="108,-188.5 356,-188.5 "/>
<text text-anchor="middle" x="232" y="-177.3" font-family="Times,serif" font-size="14.00">relation(sk₄(X₁,X₂,X₃))</text>
<polyline fill="none" stroke="#7f7542" points="108,-173.5 356,-173.5 "/>
<text text-anchor="middle" x="232" y="-162.3" font-family="Times,serif" font-size="14.00">⇊</text>
<polyline fill="none" stroke="#7f7542" points="108,-158.5 356,-158.5 "/>
<text text-anchor="middle" x="232" y="-147.3" font-family="Times,serif" font-size="14.00">proj₂(sk₄(X₁,X₂,X₃)) ⊆ X₂</text>
</a>
</g>
</g>
<!-- c_0_42&#45;&gt;c_0_67 -->
<g id="edge1" class="edge">
<title>c_0_42&#45;&gt;c_0_67</title>
<path fill="none" stroke="black" d="M323.75,-315.39C323.75,-315.39 323.75,-273.69 323.75,-273.69"/>
<polygon fill="black" stroke="black" points="327.25,-273.69 323.75,-263.69 320.25,-273.69 327.25,-273.69"/>
</g>
<!-- c_0_61 -->
<g id="node2" class="node">
<title>c_0_61</title>
<g id="a_node2"><a xlink:href="c_0_61.html" xlink:title="{QC&#45;alphabet(X₁)|X₁ \|&#45; X₂ \|&#45; X₃|X₂ ∈ bool(CQC&#45;WFF(X₁))|X₃ ∈ CQC&#45;WFF(X₁) ⊆ QC&#45;WFF(X₁)|⇊|rng(CQC&#45;WFF(X₁),sk₄(X₁,X₂,X₃)) ⊆ X₂}" target="_vizar">
<polygon fill="#f8edd1" stroke="#7f7542" points="16.5,-300.5 16.5,-390.5 273.5,-390.5 273.5,-300.5 16.5,-300.5"/>
<text text-anchor="middle" x="145" y="-379.3" font-family="Times,serif" font-size="14.00">QC&#45;alphabet(X₁)</text>
<polyline fill="none" stroke="#7f7542" points="16.5,-375.5 273.5,-375.5 "/>
<text text-anchor="middle" x="145" y="-364.3" font-family="Times,serif" font-size="14.00">X₁ |&#45; X₂ |&#45; X₃</text>
<polyline fill="none" stroke="#7f7542" points="16.5,-360.5 273.5,-360.5 "/>
<text text-anchor="middle" x="145" y="-349.3" font-family="Times,serif" font-size="14.00">X₂ ∈ bool(CQC&#45;WFF(X₁))</text>
<polyline fill="none" stroke="#7f7542" points="16.5,-345.5 273.5,-345.5 "/>
<text text-anchor="middle" x="145" y="-334.3" font-family="Times,serif" font-size="14.00">X₃ ∈ CQC&#45;WFF(X₁) ⊆ QC&#45;WFF(X₁)</text>
<polyline fill="none" stroke="#7f7542" points="16.5,-330.5 273.5,-330.5 "/>
<text text-anchor="middle" x="145" y="-319.3" font-family="Times,serif" font-size="14.00">⇊</text>
<polyline fill="none" stroke="#7f7542" points="16.5,-315.5 273.5,-315.5 "/>
<text text-anchor="middle" x="145" y="-304.3" font-family="Times,serif" font-size="14.00">rng(CQC&#45;WFF(X₁),sk₄(X₁,X₂,X₃)) ⊆ X₂</text>
</a>
</g>
</g>
<!-- c_0_61&#45;&gt;c_0_67 -->
<g id="edge2" class="edge">
<title>c_0_61&#45;&gt;c_0_67</title>
<path fill="none" stroke="black" d="M190.75,-300.18C190.75,-300.18 190.75,-273.68 190.75,-273.68"/>
<polygon fill="black" stroke="black" points="194.25,-273.68 190.75,-263.68 187.25,-273.68 194.25,-273.68"/>
</g>
<!-- c_0_76 -->
<g id="node4" class="node">
<title>c_0_76</title>
<g id="a_node4"><a xlink:href="c_0_76.html" xlink:title="{QC&#45;alphabet(X₁)|X₁ \|&#45; X₂ \|&#45; X₃|X₂ ∈ bool(CQC&#45;WFF(X₁))|X₃ ∈ CQC&#45;WFF(X₁) ⊆ QC&#45;WFF(X₁)|⇊|proj₂(sk₄(X₁,X₂,X₃)) ⊆ X₂}" target="_vizar">
<polygon fill="#f8edd1" stroke="#7f7542" points="114,-16.5 114,-106.5 350,-106.5 350,-16.5 114,-16.5"/>
<text text-anchor="middle" x="232" y="-95.3" font-family="Times,serif" font-size="14.00">QC&#45;alphabet(X₁)</text>
<polyline fill="none" stroke="#7f7542" points="114,-91.5 350,-91.5 "/>
<text text-anchor="middle" x="232" y="-80.3" font-family="Times,serif" font-size="14.00">X₁ |&#45; X₂ |&#45; X₃</text>
<polyline fill="none" stroke="#7f7542" points="114,-76.5 350,-76.5 "/>
<text text-anchor="middle" x="232" y="-65.3" font-family="Times,serif" font-size="14.00">X₂ ∈ bool(CQC&#45;WFF(X₁))</text>
<polyline fill="none" stroke="#7f7542" points="114,-61.5 350,-61.5 "/>
<text text-anchor="middle" x="232" y="-50.3" font-family="Times,serif" font-size="14.00">X₃ ∈ CQC&#45;WFF(X₁) ⊆ QC&#45;WFF(X₁)</text>
<polyline fill="none" stroke="#7f7542" points="114,-46.5 350,-46.5 "/>
<text text-anchor="middle" x="232" y="-35.3" font-family="Times,serif" font-size="14.00">⇊</text>
<polyline fill="none" stroke="#7f7542" points="114,-31.5 350,-31.5 "/>
<text text-anchor="middle" x="232" y="-20.3" font-family="Times,serif" font-size="14.00">proj₂(sk₄(X₁,X₂,X₃)) ⊆ X₂</text>
</a>
</g>
</g>
<!-- c_0_67&#45;&gt;c_0_76 -->
<g id="edge3" class="edge">
<title>c_0_67&#45;&gt;c_0_76</title>
<path fill="none" stroke="black" stroke-dasharray="5,2" d="M232,-143.28C232,-143.28 232,-116.73 232,-116.73"/>
<polygon fill="black" stroke="black" points="235.5,-116.73 232,-106.73 228.5,-116.73 235.5,-116.73"/>
</g>
</g>
</svg>
