<?xml version="1.0" encoding="UTF-8" standalone="no"?>
<!DOCTYPE svg PUBLIC "-//W3C//DTD SVG 1.1//EN"
 "http://www.w3.org/Graphics/SVG/1.1/DTD/svg11.dtd">
<!-- Generated by graphviz version 5.0.0 (0)
 -->
<!-- Title: proof Pages: 1 -->
<svg width="444pt" height="445pt"
 viewBox="0.00 0.00 444.00 445.00" xmlns="http://www.w3.org/2000/svg" xmlns:xlink="http://www.w3.org/1999/xlink">
<g id="graph0" class="graph" transform="scale(1 1) rotate(0) translate(4 441)">
<title>proof</title>
<g id="clust1" class="cluster">
<title>cluster_0</title>
<polygon fill="transparent" stroke="black" stroke-dasharray="1,5" points="54,-352 54,-429 428,-429 428,-352 54,-352"/>
</g>
<g id="clust2" class="cluster">
<title>cluster_1</title>
<polygon fill="transparent" stroke="black" stroke-width="2" points="108,-255 108,-332 268,-332 268,-255 108,-255"/>
</g>
<g id="clust3" class="cluster">
<title>cluster_2</title>
<polygon fill="transparent" stroke="black" stroke-dasharray="1,5" points="8,-8 8,-235 368,-235 368,-8 8,-8"/>
</g>
<!-- c_0_60 -->
<g id="node1" class="node">
<title>c_0_60</title>
<g id="a_node1"><a xlink:href="c_0_60.html" xlink:title="{FinSequence(X₁,X₂)|FinSequence(X₃,X₂)|⇊|X₂ ^ X₁ ^ X₃ ∈ fin&#45;seq(X₂)}" target="_vizar">
<polygon fill="#f8edd1" stroke="#7f7542" points="240,-360.5 240,-420.5 420,-420.5 420,-360.5 240,-360.5"/>
<text text-anchor="middle" x="330" y="-409.3" font-family="Times,serif" font-size="14.00">FinSequence(X₁,X₂)</text>
<polyline fill="none" stroke="#7f7542" points="240,-405.5 420,-405.5 "/>
<text text-anchor="middle" x="330" y="-394.3" font-family="Times,serif" font-size="14.00">FinSequence(X₃,X₂)</text>
<polyline fill="none" stroke="#7f7542" points="240,-390.5 420,-390.5 "/>
<text text-anchor="middle" x="330" y="-379.3" font-family="Times,serif" font-size="14.00">⇊</text>
<polyline fill="none" stroke="#7f7542" points="240,-375.5 420,-375.5 "/>
<text text-anchor="middle" x="330" y="-364.3" font-family="Times,serif" font-size="14.00">X₂ ^ X₁ ^ X₃ ∈ fin&#45;seq(X₂)</text>
</a>
</g>
</g>
<!-- c_0_66 -->
<g id="node3" class="node">
<title>c_0_66</title>
<g id="a_node3"><a xlink:href="c_0_66.html" xlink:title="{FinSequence(X₁,X₃)|FinSequence(X₂,X₃)|⇊|X₁ ^ X₂ ∈ fin&#45;seq(X₃)}" target="_vizar">
<polygon fill="#f8edd1" stroke="#7f7542" points="116,-263.5 116,-323.5 260,-323.5 260,-263.5 116,-263.5"/>
<text text-anchor="middle" x="188" y="-312.3" font-family="Times,serif" font-size="14.00">FinSequence(X₁,X₃)</text>
<polyline fill="none" stroke="#7f7542" points="116,-308.5 260,-308.5 "/>
<text text-anchor="middle" x="188" y="-297.3" font-family="Times,serif" font-size="14.00">FinSequence(X₂,X₃)</text>
<polyline fill="none" stroke="#7f7542" points="116,-293.5 260,-293.5 "/>
<text text-anchor="middle" x="188" y="-282.3" font-family="Times,serif" font-size="14.00">⇊</text>
<polyline fill="none" stroke="#7f7542" points="116,-278.5 260,-278.5 "/>
<text text-anchor="middle" x="188" y="-267.3" font-family="Times,serif" font-size="14.00">X₁ ^ X₂ ∈ fin&#45;seq(X₃)</text>
</a>
</g>
</g>
<!-- c_0_60&#45;&gt;c_0_66 -->
<g id="edge1" class="edge">
<title>c_0_60&#45;&gt;c_0_66</title>
<path fill="none" stroke="black" d="M250,-360.34C250,-360.34 250,-333.64 250,-333.64"/>
<polygon fill="black" stroke="black" points="253.5,-333.64 250,-323.64 246.5,-333.64 253.5,-333.64"/>
</g>
<!-- c_0_49 -->
<g id="node2" class="node">
<title>c_0_49</title>
<g id="a_node2"><a xlink:href="c_0_49.html" xlink:title="{FinSequence(X₁,X₂)|FinSequence(X₃,X₂)|⇊|X₂ ^ X₁ ^ X₃ = X₁ ^ X₃}" target="_vizar">
<polygon fill="#f8edd1" stroke="#7f7542" points="62,-360.5 62,-420.5 222,-420.5 222,-360.5 62,-360.5"/>
<text text-anchor="middle" x="142" y="-409.3" font-family="Times,serif" font-size="14.00">FinSequence(X₁,X₂)</text>
<polyline fill="none" stroke="#7f7542" points="62,-405.5 222,-405.5 "/>
<text text-anchor="middle" x="142" y="-394.3" font-family="Times,serif" font-size="14.00">FinSequence(X₃,X₂)</text>
<polyline fill="none" stroke="#7f7542" points="62,-390.5 222,-390.5 "/>
<text text-anchor="middle" x="142" y="-379.3" font-family="Times,serif" font-size="14.00">⇊</text>
<polyline fill="none" stroke="#7f7542" points="62,-375.5 222,-375.5 "/>
<text text-anchor="middle" x="142" y="-364.3" font-family="Times,serif" font-size="14.00">X₂ ^ X₁ ^ X₃ = X₁ ^ X₃</text>
</a>
</g>
</g>
<!-- c_0_49&#45;&gt;c_0_66 -->
<g id="edge2" class="edge">
<title>c_0_49&#45;&gt;c_0_66</title>
<path fill="none" stroke="black" d="M169,-360.34C169,-360.34 169,-333.64 169,-333.64"/>
<polygon fill="black" stroke="black" points="172.5,-333.64 169,-323.64 165.5,-333.64 172.5,-333.64"/>
</g>
<!-- c_0_75 -->
<g id="node4" class="node">
<title>c_0_75</title>
<g id="a_node4"><a xlink:href="c_0_75.html" xlink:title="{FinSequence(sk₄(X₁,X₆,X₁ &#39;not&#39; X₅),CQC&#45;WFF(X₁))|QC&#45;alphabet(X₁)|X₁ &#39;not&#39; X₅ ∈ CQC&#45;WFF(X₁) ⊆ QC&#45;WFF(X₁)|X₁ \|&#45; CQC&#45;WFF(X₁) ^ X₄ ^ &amp;lt;X₅&amp;gt;|X₁ \|&#45; X₆ \|&#45; X₁ &#39;not&#39; X₅|X₂ ∈ bool(CQC&#45;WFF(X₁))|X₃ ∈ CQC&#45;WFF(X₁) ⊆ QC&#45;WFF(X₁)|X₄ ∈ fin&#45;seq(CQC&#45;WFF(X₁))|X₅ ∈ CQC&#45;WFF(X₁) ⊆ QC&#45;WFF(X₁)|X₆ ∈ bool(CQC&#45;WFF(X₁))|proj₂(X₄) ⊆ X₂|proj₂(sk₄(X₁,X₆,X₁ &#39;not&#39; X₅)) ⊆ X₂|⇊|X₁ \|&#45; X₂ \|&#45; X₃}" target="_vizar">
<polygon fill="#f8edd1" stroke="#7f7542" points="16.5,-16.5 16.5,-226.5 359.5,-226.5 359.5,-16.5 16.5,-16.5"/>
<text text-anchor="middle" x="188" y="-215.3" font-family="Times,serif" font-size="14.00">FinSequence(sk₄(X₁,X₆,X₁ &#39;not&#39; X₅),CQC&#45;WFF(X₁))</text>
<polyline fill="none" stroke="#7f7542" points="16.5,-211.5 359.5,-211.5 "/>
<text text-anchor="middle" x="188" y="-200.3" font-family="Times,serif" font-size="14.00">QC&#45;alphabet(X₁)</text>
<polyline fill="none" stroke="#7f7542" points="16.5,-196.5 359.5,-196.5 "/>
<text text-anchor="middle" x="188" y="-185.3" font-family="Times,serif" font-size="14.00">X₁ &#39;not&#39; X₅ ∈ CQC&#45;WFF(X₁) ⊆ QC&#45;WFF(X₁)</text>
<polyline fill="none" stroke="#7f7542" points="16.5,-181.5 359.5,-181.5 "/>
<text text-anchor="middle" x="188" y="-170.3" font-family="Times,serif" font-size="14.00">X₁ |&#45; CQC&#45;WFF(X₁) ^ X₄ ^ &lt;X₅&gt;</text>
<polyline fill="none" stroke="#7f7542" points="16.5,-166.5 359.5,-166.5 "/>
<text text-anchor="middle" x="188" y="-155.3" font-family="Times,serif" font-size="14.00">X₁ |&#45; X₆ |&#45; X₁ &#39;not&#39; X₅</text>
<polyline fill="none" stroke="#7f7542" points="16.5,-151.5 359.5,-151.5 "/>
<text text-anchor="middle" x="188" y="-140.3" font-family="Times,serif" font-size="14.00">X₂ ∈ bool(CQC&#45;WFF(X₁))</text>
<polyline fill="none" stroke="#7f7542" points="16.5,-136.5 359.5,-136.5 "/>
<text text-anchor="middle" x="188" y="-125.3" font-family="Times,serif" font-size="14.00">X₃ ∈ CQC&#45;WFF(X₁) ⊆ QC&#45;WFF(X₁)</text>
<polyline fill="none" stroke="#7f7542" points="16.5,-121.5 359.5,-121.5 "/>
<text text-anchor="middle" x="188" y="-110.3" font-family="Times,serif" font-size="14.00">X₄ ∈ fin&#45;seq(CQC&#45;WFF(X₁))</text>
<polyline fill="none" stroke="#7f7542" points="16.5,-106.5 359.5,-106.5 "/>
<text text-anchor="middle" x="188" y="-95.3" font-family="Times,serif" font-size="14.00">X₅ ∈ CQC&#45;WFF(X₁) ⊆ QC&#45;WFF(X₁)</text>
<polyline fill="none" stroke="#7f7542" points="16.5,-91.5 359.5,-91.5 "/>
<text text-anchor="middle" x="188" y="-80.3" font-family="Times,serif" font-size="14.00">X₆ ∈ bool(CQC&#45;WFF(X₁))</text>
<polyline fill="none" stroke="#7f7542" points="16.5,-76.5 359.5,-76.5 "/>
<text text-anchor="middle" x="188" y="-65.3" font-family="Times,serif" font-size="14.00">proj₂(X₄) ⊆ X₂</text>
<polyline fill="none" stroke="#7f7542" points="16.5,-61.5 359.5,-61.5 "/>
<text text-anchor="middle" x="188" y="-50.3" font-family="Times,serif" font-size="14.00">proj₂(sk₄(X₁,X₆,X₁ &#39;not&#39; X₅)) ⊆ X₂</text>
<polyline fill="none" stroke="#7f7542" points="16.5,-46.5 359.5,-46.5 "/>
<text text-anchor="middle" x="188" y="-35.3" font-family="Times,serif" font-size="14.00">⇊</text>
<polyline fill="none" stroke="#7f7542" points="16.5,-31.5 359.5,-31.5 "/>
<text text-anchor="middle" x="188" y="-20.3" font-family="Times,serif" font-size="14.00">X₁ |&#45; X₂ |&#45; X₃</text>
</a>
</g>
</g>
<!-- c_0_66&#45;&gt;c_0_75 -->
<g id="edge3" class="edge">
<title>c_0_66&#45;&gt;c_0_75</title>
<path fill="none" stroke="black" stroke-dasharray="5,2" d="M188,-263.15C188,-263.15 188,-236.72 188,-236.72"/>
<polygon fill="black" stroke="black" points="191.5,-236.72 188,-226.72 184.5,-236.72 191.5,-236.72"/>
</g>
</g>
</svg>
