<?xml version="1.0" encoding="UTF-8" standalone="no"?>
<!DOCTYPE svg PUBLIC "-//W3C//DTD SVG 1.1//EN"
 "http://www.w3.org/Graphics/SVG/1.1/DTD/svg11.dtd">
<!-- Generated by graphviz version 5.0.0 (0)
 -->
<!-- Title: proof Pages: 1 -->
<svg width="573pt" height="700pt"
 viewBox="0.00 0.00 573.00 700.00" xmlns="http://www.w3.org/2000/svg" xmlns:xlink="http://www.w3.org/1999/xlink">
<g id="graph0" class="graph" transform="scale(1 1) rotate(0) translate(4 696)">
<title>proof</title>
<g id="clust1" class="cluster">
<title>cluster_0</title>
<polygon fill="transparent" stroke="black" stroke-dasharray="1,5" points="8,-457 8,-684 557,-684 557,-457 8,-457"/>
</g>
<g id="clust2" class="cluster">
<title>cluster_1</title>
<polygon fill="transparent" stroke="black" stroke-width="2" points="102,-225 102,-437 462,-437 462,-225 102,-225"/>
</g>
<g id="clust3" class="cluster">
<title>cluster_2</title>
<polygon fill="transparent" stroke="black" stroke-dasharray="1,5" points="128,-8 128,-205 436,-205 436,-8 128,-8"/>
</g>
<!-- c_0_82 -->
<g id="node1" class="node">
<title>c_0_82</title>
<g id="a_node1"><a xlink:href="c_0_82.html" xlink:title="{QC&#45;alphabet(X₁)|X₁ \|&#45; X₂ \|&#45; X₃|X₂ ∈ bool(CQC&#45;WFF(X₁))|X₃ ∈ CQC&#45;WFF(X₁)|⇊|proj₂(sk₄(X₁,X₂,X₃)) ⊆ X₂}" target="_vizar">
<polygon fill="#f8edd1" stroke="#7f7542" points="377.5,-525.5 377.5,-615.5 548.5,-615.5 548.5,-525.5 377.5,-525.5"/>
<text text-anchor="middle" x="463" y="-604.3" font-family="Times,serif" font-size="14.00">QC&#45;alphabet(X₁)</text>
<polyline fill="none" stroke="#7f7542" points="377.5,-600.5 548.5,-600.5 "/>
<text text-anchor="middle" x="463" y="-589.3" font-family="Times,serif" font-size="14.00">X₁ |&#45; X₂ |&#45; X₃</text>
<polyline fill="none" stroke="#7f7542" points="377.5,-585.5 548.5,-585.5 "/>
<text text-anchor="middle" x="463" y="-574.3" font-family="Times,serif" font-size="14.00">X₂ ∈ bool(CQC&#45;WFF(X₁))</text>
<polyline fill="none" stroke="#7f7542" points="377.5,-570.5 548.5,-570.5 "/>
<text text-anchor="middle" x="463" y="-559.3" font-family="Times,serif" font-size="14.00">X₃ ∈ CQC&#45;WFF(X₁)</text>
<polyline fill="none" stroke="#7f7542" points="377.5,-555.5 548.5,-555.5 "/>
<text text-anchor="middle" x="463" y="-544.3" font-family="Times,serif" font-size="14.00">⇊</text>
<polyline fill="none" stroke="#7f7542" points="377.5,-540.5 548.5,-540.5 "/>
<text text-anchor="middle" x="463" y="-529.3" font-family="Times,serif" font-size="14.00">proj₂(sk₄(X₁,X₂,X₃)) ⊆ X₂</text>
</a>
</g>
</g>
<!-- c_0_86 -->
<g id="node3" class="node">
<title>c_0_86</title>
<g id="a_node3"><a xlink:href="c_0_86.html" xlink:title="{FinSequence(sk₄(X₁,X₂,X₁ &#39;not&#39; X₅),CQC&#45;WFF(X₁))|QC&#45;alphabet(X₁)|X₁ &#39;not&#39; X₅ ∈ CQC&#45;WFF(X₁)|X₁ &#39;not&#39; X₅ ∈ CQC&#45;WFF(X₁) ⊆ QC&#45;WFF(X₁)|X₁ \|&#45; X₂ \|&#45; X₁ &#39;not&#39; X₅|X₁ \|&#45; X₄ \|&#45; X₅|X₂ ∈ bool(CQC&#45;WFF(X₁))|X₃ ∈ CQC&#45;WFF(X₁) ⊆ QC&#45;WFF(X₁)|X₄ ∈ bool(CQC&#45;WFF(X₁))|X₅ ∈ CQC&#45;WFF(X₁) ⊆ QC&#45;WFF(X₁)|proj₂(sk₄(X₁,X₄,X₅)) ⊆ X₂|⇊|X₁ \|&#45; X₂ \|&#45; X₃}" target="_vizar">
<polygon fill="#f8edd1" stroke="#7f7542" points="110.5,-233.5 110.5,-428.5 453.5,-428.5 453.5,-233.5 110.5,-233.5"/>
<text text-anchor="middle" x="282" y="-417.3" font-family="Times,serif" font-size="14.00">FinSequence(sk₄(X₁,X₂,X₁ &#39;not&#39; X₅),CQC&#45;WFF(X₁))</text>
<polyline fill="none" stroke="#7f7542" points="110.5,-413.5 453.5,-413.5 "/>
<text text-anchor="middle" x="282" y="-402.3" font-family="Times,serif" font-size="14.00">QC&#45;alphabet(X₁)</text>
<polyline fill="none" stroke="#7f7542" points="110.5,-398.5 453.5,-398.5 "/>
<text text-anchor="middle" x="282" y="-387.3" font-family="Times,serif" font-size="14.00">X₁ &#39;not&#39; X₅ ∈ CQC&#45;WFF(X₁)</text>
<polyline fill="none" stroke="#7f7542" points="110.5,-383.5 453.5,-383.5 "/>
<text text-anchor="middle" x="282" y="-372.3" font-family="Times,serif" font-size="14.00">X₁ &#39;not&#39; X₅ ∈ CQC&#45;WFF(X₁) ⊆ QC&#45;WFF(X₁)</text>
<polyline fill="none" stroke="#7f7542" points="110.5,-368.5 453.5,-368.5 "/>
<text text-anchor="middle" x="282" y="-357.3" font-family="Times,serif" font-size="14.00">X₁ |&#45; X₂ |&#45; X₁ &#39;not&#39; X₅</text>
<polyline fill="none" stroke="#7f7542" points="110.5,-353.5 453.5,-353.5 "/>
<text text-anchor="middle" x="282" y="-342.3" font-family="Times,serif" font-size="14.00">X₁ |&#45; X₄ |&#45; X₅</text>
<polyline fill="none" stroke="#7f7542" points="110.5,-338.5 453.5,-338.5 "/>
<text text-anchor="middle" x="282" y="-327.3" font-family="Times,serif" font-size="14.00">X₂ ∈ bool(CQC&#45;WFF(X₁))</text>
<polyline fill="none" stroke="#7f7542" points="110.5,-323.5 453.5,-323.5 "/>
<text text-anchor="middle" x="282" y="-312.3" font-family="Times,serif" font-size="14.00">X₃ ∈ CQC&#45;WFF(X₁) ⊆ QC&#45;WFF(X₁)</text>
<polyline fill="none" stroke="#7f7542" points="110.5,-308.5 453.5,-308.5 "/>
<text text-anchor="middle" x="282" y="-297.3" font-family="Times,serif" font-size="14.00">X₄ ∈ bool(CQC&#45;WFF(X₁))</text>
<polyline fill="none" stroke="#7f7542" points="110.5,-293.5 453.5,-293.5 "/>
<text text-anchor="middle" x="282" y="-282.3" font-family="Times,serif" font-size="14.00">X₅ ∈ CQC&#45;WFF(X₁) ⊆ QC&#45;WFF(X₁)</text>
<polyline fill="none" stroke="#7f7542" points="110.5,-278.5 453.5,-278.5 "/>
<text text-anchor="middle" x="282" y="-267.3" font-family="Times,serif" font-size="14.00">proj₂(sk₄(X₁,X₄,X₅)) ⊆ X₂</text>
<polyline fill="none" stroke="#7f7542" points="110.5,-263.5 453.5,-263.5 "/>
<text text-anchor="middle" x="282" y="-252.3" font-family="Times,serif" font-size="14.00">⇊</text>
<polyline fill="none" stroke="#7f7542" points="110.5,-248.5 453.5,-248.5 "/>
<text text-anchor="middle" x="282" y="-237.3" font-family="Times,serif" font-size="14.00">X₁ |&#45; X₂ |&#45; X₃</text>
</a>
</g>
</g>
<!-- c_0_82&#45;&gt;c_0_86 -->
<g id="edge1" class="edge">
<title>c_0_82&#45;&gt;c_0_86</title>
<path fill="none" stroke="black" d="M415.5,-525.45C415.5,-525.45 415.5,-438.93 415.5,-438.93"/>
<polygon fill="black" stroke="black" points="419,-438.93 415.5,-428.93 412,-438.93 419,-438.93"/>
</g>
<!-- c_0_81 -->
<g id="node2" class="node">
<title>c_0_81</title>
<g id="a_node2"><a xlink:href="c_0_81.html" xlink:title="{FinSequence(sk₄(X₁,X₄,X₁ &#39;not&#39; X₅),CQC&#45;WFF(X₁))|QC&#45;alphabet(X₁)|X₁ &#39;not&#39; X₅ ∈ CQC&#45;WFF(X₁) ⊆ QC&#45;WFF(X₁)|X₁ \|&#45; X₄ \|&#45; X₁ &#39;not&#39; X₅|X₁ \|&#45; X₆ \|&#45; X₅|X₂ ∈ bool(CQC&#45;WFF(X₁))|X₃ ∈ CQC&#45;WFF(X₁) ⊆ QC&#45;WFF(X₁)|X₄ ∈ bool(CQC&#45;WFF(X₁))|X₅ ∈ CQC&#45;WFF(X₁) ⊆ QC&#45;WFF(X₁)|X₆ ∈ bool(CQC&#45;WFF(X₁))|proj₂(sk₄(X₁,X₄,X₁ &#39;not&#39; X₅)) ⊆ X₂|proj₂(sk₄(X₁,X₆,X₅)) ⊆ X₂|⇊|X₁ \|&#45; X₂ \|&#45; X₃}" target="_vizar">
<polygon fill="#f8edd1" stroke="#7f7542" points="16.5,-465.5 16.5,-675.5 359.5,-675.5 359.5,-465.5 16.5,-465.5"/>
<text text-anchor="middle" x="188" y="-664.3" font-family="Times,serif" font-size="14.00">FinSequence(sk₄(X₁,X₄,X₁ &#39;not&#39; X₅),CQC&#45;WFF(X₁))</text>
<polyline fill="none" stroke="#7f7542" points="16.5,-660.5 359.5,-660.5 "/>
<text text-anchor="middle" x="188" y="-649.3" font-family="Times,serif" font-size="14.00">QC&#45;alphabet(X₁)</text>
<polyline fill="none" stroke="#7f7542" points="16.5,-645.5 359.5,-645.5 "/>
<text text-anchor="middle" x="188" y="-634.3" font-family="Times,serif" font-size="14.00">X₁ &#39;not&#39; X₅ ∈ CQC&#45;WFF(X₁) ⊆ QC&#45;WFF(X₁)</text>
<polyline fill="none" stroke="#7f7542" points="16.5,-630.5 359.5,-630.5 "/>
<text text-anchor="middle" x="188" y="-619.3" font-family="Times,serif" font-size="14.00">X₁ |&#45; X₄ |&#45; X₁ &#39;not&#39; X₅</text>
<polyline fill="none" stroke="#7f7542" points="16.5,-615.5 359.5,-615.5 "/>
<text text-anchor="middle" x="188" y="-604.3" font-family="Times,serif" font-size="14.00">X₁ |&#45; X₆ |&#45; X₅</text>
<polyline fill="none" stroke="#7f7542" points="16.5,-600.5 359.5,-600.5 "/>
<text text-anchor="middle" x="188" y="-589.3" font-family="Times,serif" font-size="14.00">X₂ ∈ bool(CQC&#45;WFF(X₁))</text>
<polyline fill="none" stroke="#7f7542" points="16.5,-585.5 359.5,-585.5 "/>
<text text-anchor="middle" x="188" y="-574.3" font-family="Times,serif" font-size="14.00">X₃ ∈ CQC&#45;WFF(X₁) ⊆ QC&#45;WFF(X₁)</text>
<polyline fill="none" stroke="#7f7542" points="16.5,-570.5 359.5,-570.5 "/>
<text text-anchor="middle" x="188" y="-559.3" font-family="Times,serif" font-size="14.00">X₄ ∈ bool(CQC&#45;WFF(X₁))</text>
<polyline fill="none" stroke="#7f7542" points="16.5,-555.5 359.5,-555.5 "/>
<text text-anchor="middle" x="188" y="-544.3" font-family="Times,serif" font-size="14.00">X₅ ∈ CQC&#45;WFF(X₁) ⊆ QC&#45;WFF(X₁)</text>
<polyline fill="none" stroke="#7f7542" points="16.5,-540.5 359.5,-540.5 "/>
<text text-anchor="middle" x="188" y="-529.3" font-family="Times,serif" font-size="14.00">X₆ ∈ bool(CQC&#45;WFF(X₁))</text>
<polyline fill="none" stroke="#7f7542" points="16.5,-525.5 359.5,-525.5 "/>
<text text-anchor="middle" x="188" y="-514.3" font-family="Times,serif" font-size="14.00">proj₂(sk₄(X₁,X₄,X₁ &#39;not&#39; X₅)) ⊆ X₂</text>
<polyline fill="none" stroke="#7f7542" points="16.5,-510.5 359.5,-510.5 "/>
<text text-anchor="middle" x="188" y="-499.3" font-family="Times,serif" font-size="14.00">proj₂(sk₄(X₁,X₆,X₅)) ⊆ X₂</text>
<polyline fill="none" stroke="#7f7542" points="16.5,-495.5 359.5,-495.5 "/>
<text text-anchor="middle" x="188" y="-484.3" font-family="Times,serif" font-size="14.00">⇊</text>
<polyline fill="none" stroke="#7f7542" points="16.5,-480.5 359.5,-480.5 "/>
<text text-anchor="middle" x="188" y="-469.3" font-family="Times,serif" font-size="14.00">X₁ |&#45; X₂ |&#45; X₃</text>
</a>
</g>
</g>
<!-- c_0_81&#45;&gt;c_0_86 -->
<g id="edge2" class="edge">
<title>c_0_81&#45;&gt;c_0_86</title>
<path fill="none" stroke="black" d="M235,-465.45C235,-465.45 235,-438.77 235,-438.77"/>
<polygon fill="black" stroke="black" points="238.5,-438.77 235,-428.77 231.5,-438.77 238.5,-438.77"/>
</g>
<!-- c_0_91 -->
<g id="node4" class="node">
<title>c_0_91</title>
<g id="a_node4"><a xlink:href="c_0_91.html" xlink:title="{QC&#45;alphabet(X₁)|X₁ &#39;not&#39; X₅ ∈ CQC&#45;WFF(X₁)|X₁ &#39;not&#39; X₅ ∈ CQC&#45;WFF(X₁) ⊆ QC&#45;WFF(X₁)|X₁ \|&#45; X₂ \|&#45; X₁ &#39;not&#39; X₅|X₁ \|&#45; X₄ \|&#45; X₅|X₂ ∈ bool(CQC&#45;WFF(X₁))|X₃ ∈ CQC&#45;WFF(X₁) ⊆ QC&#45;WFF(X₁)|X₄ ∈ bool(CQC&#45;WFF(X₁))|X₅ ∈ CQC&#45;WFF(X₁) ⊆ QC&#45;WFF(X₁)|proj₂(sk₄(X₁,X₄,X₅)) ⊆ X₂|⇊|X₁ \|&#45; X₂ \|&#45; X₃}" target="_vizar">
<polygon fill="#f8edd1" stroke="#7f7542" points="136.5,-16.5 136.5,-196.5 427.5,-196.5 427.5,-16.5 136.5,-16.5"/>
<text text-anchor="middle" x="282" y="-185.3" font-family="Times,serif" font-size="14.00">QC&#45;alphabet(X₁)</text>
<polyline fill="none" stroke="#7f7542" points="136.5,-181.5 427.5,-181.5 "/>
<text text-anchor="middle" x="282" y="-170.3" font-family="Times,serif" font-size="14.00">X₁ &#39;not&#39; X₅ ∈ CQC&#45;WFF(X₁)</text>
<polyline fill="none" stroke="#7f7542" points="136.5,-166.5 427.5,-166.5 "/>
<text text-anchor="middle" x="282" y="-155.3" font-family="Times,serif" font-size="14.00">X₁ &#39;not&#39; X₅ ∈ CQC&#45;WFF(X₁) ⊆ QC&#45;WFF(X₁)</text>
<polyline fill="none" stroke="#7f7542" points="136.5,-151.5 427.5,-151.5 "/>
<text text-anchor="middle" x="282" y="-140.3" font-family="Times,serif" font-size="14.00">X₁ |&#45; X₂ |&#45; X₁ &#39;not&#39; X₅</text>
<polyline fill="none" stroke="#7f7542" points="136.5,-136.5 427.5,-136.5 "/>
<text text-anchor="middle" x="282" y="-125.3" font-family="Times,serif" font-size="14.00">X₁ |&#45; X₄ |&#45; X₅</text>
<polyline fill="none" stroke="#7f7542" points="136.5,-121.5 427.5,-121.5 "/>
<text text-anchor="middle" x="282" y="-110.3" font-family="Times,serif" font-size="14.00">X₂ ∈ bool(CQC&#45;WFF(X₁))</text>
<polyline fill="none" stroke="#7f7542" points="136.5,-106.5 427.5,-106.5 "/>
<text text-anchor="middle" x="282" y="-95.3" font-family="Times,serif" font-size="14.00">X₃ ∈ CQC&#45;WFF(X₁) ⊆ QC&#45;WFF(X₁)</text>
<polyline fill="none" stroke="#7f7542" points="136.5,-91.5 427.5,-91.5 "/>
<text text-anchor="middle" x="282" y="-80.3" font-family="Times,serif" font-size="14.00">X₄ ∈ bool(CQC&#45;WFF(X₁))</text>
<polyline fill="none" stroke="#7f7542" points="136.5,-76.5 427.5,-76.5 "/>
<text text-anchor="middle" x="282" y="-65.3" font-family="Times,serif" font-size="14.00">X₅ ∈ CQC&#45;WFF(X₁) ⊆ QC&#45;WFF(X₁)</text>
<polyline fill="none" stroke="#7f7542" points="136.5,-61.5 427.5,-61.5 "/>
<text text-anchor="middle" x="282" y="-50.3" font-family="Times,serif" font-size="14.00">proj₂(sk₄(X₁,X₄,X₅)) ⊆ X₂</text>
<polyline fill="none" stroke="#7f7542" points="136.5,-46.5 427.5,-46.5 "/>
<text text-anchor="middle" x="282" y="-35.3" font-family="Times,serif" font-size="14.00">⇊</text>
<polyline fill="none" stroke="#7f7542" points="136.5,-31.5 427.5,-31.5 "/>
<text text-anchor="middle" x="282" y="-20.3" font-family="Times,serif" font-size="14.00">X₁ |&#45; X₂ |&#45; X₃</text>
</a>
</g>
</g>
<!-- c_0_86&#45;&gt;c_0_91 -->
<g id="edge3" class="edge">
<title>c_0_86&#45;&gt;c_0_91</title>
<path fill="none" stroke="black" stroke-dasharray="5,2" d="M282,-233.18C282,-233.18 282,-206.57 282,-206.57"/>
<polygon fill="black" stroke="black" points="285.5,-206.57 282,-196.57 278.5,-206.57 285.5,-206.57"/>
</g>
</g>
</svg>
