<?xml version="1.0" encoding="UTF-8" standalone="no"?>
<!DOCTYPE svg PUBLIC "-//W3C//DTD SVG 1.1//EN"
 "http://www.w3.org/Graphics/SVG/1.1/DTD/svg11.dtd">
<!-- Generated by graphviz version 5.0.0 (0)
 -->
<!-- Title: proof Pages: 1 -->
<svg width="977pt" height="370pt"
 viewBox="0.00 0.00 977.00 370.00" xmlns="http://www.w3.org/2000/svg" xmlns:xlink="http://www.w3.org/1999/xlink">
<g id="graph0" class="graph" transform="scale(1 1) rotate(0) translate(4 366)">
<title>proof</title>
<g id="clust1" class="cluster">
<title>cluster_0</title>
<polygon fill="transparent" stroke="black" stroke-dasharray="1,5" points="8,-217 8,-354 961,-354 961,-217 8,-217"/>
</g>
<g id="clust2" class="cluster">
<title>cluster_1</title>
<polygon fill="transparent" stroke="black" stroke-width="2" points="357,-90 357,-197 545,-197 545,-90 357,-90"/>
</g>
<g id="clust3" class="cluster">
<title>cluster_2</title>
<polygon fill="transparent" stroke="black" stroke-dasharray="1,5" points="375,-8 375,-70 527,-70 527,-8 375,-8"/>
</g>
<!-- c_0_108 -->
<g id="node1" class="node">
<title>c_0_108</title>
<g id="a_node1"><a xlink:href="c_0_108.html" xlink:title="{QC&#45;alphabet(X₁)|X₂ ∈ bool(CQC&#45;WFF(X₁))|⇊|Consistent(X₂,X₁)|sk₅(X₁,X₂) ∈ CQC&#45;WFF(X₁) ⊆ QC&#45;WFF(X₁)}" target="_parent">
<polygon fill="#f8edd1" stroke="#7f7542" points="665.5,-248 665.5,-323 952.5,-323 952.5,-248 665.5,-248"/>
<text text-anchor="middle" x="809" y="-311.8" font-family="Times,serif" font-size="14.00">QC&#45;alphabet(X₁)</text>
<polyline fill="none" stroke="#7f7542" points="665.5,-308 952.5,-308 "/>
<text text-anchor="middle" x="809" y="-296.8" font-family="Times,serif" font-size="14.00">X₂ ∈ bool(CQC&#45;WFF(X₁))</text>
<polyline fill="none" stroke="#7f7542" points="665.5,-293 952.5,-293 "/>
<text text-anchor="middle" x="809" y="-281.8" font-family="Times,serif" font-size="14.00">⇊</text>
<polyline fill="none" stroke="#7f7542" points="665.5,-278 952.5,-278 "/>
<text text-anchor="middle" x="809" y="-266.8" font-family="Times,serif" font-size="14.00">Consistent(X₂,X₁)</text>
<polyline fill="none" stroke="#7f7542" points="665.5,-263 952.5,-263 "/>
<text text-anchor="middle" x="809" y="-251.8" font-family="Times,serif" font-size="14.00">sk₅(X₁,X₂) ∈ CQC&#45;WFF(X₁) ⊆ QC&#45;WFF(X₁)</text>
</a>
</g>
</g>
<!-- c_0_113 -->
<g id="node5" class="node">
<title>c_0_113</title>
<g id="a_node5"><a xlink:href="c_0_113.html" xlink:title="{QC&#45;alphabet(X₁)|X₂ ∈ bool(CQC&#45;WFF(X₁))|X₃ ∈ CQC&#45;WFF(X₁)|⇊|Consistent(X₂,X₁)|X₁ \|&#45; X₂ \|&#45; X₃}" target="_parent">
<polygon fill="#f8edd1" stroke="#7f7542" points="365.5,-98.5 365.5,-188.5 536.5,-188.5 536.5,-98.5 365.5,-98.5"/>
<text text-anchor="middle" x="451" y="-177.3" font-family="Times,serif" font-size="14.00">QC&#45;alphabet(X₁)</text>
<polyline fill="none" stroke="#7f7542" points="365.5,-173.5 536.5,-173.5 "/>
<text text-anchor="middle" x="451" y="-162.3" font-family="Times,serif" font-size="14.00">X₂ ∈ bool(CQC&#45;WFF(X₁))</text>
<polyline fill="none" stroke="#7f7542" points="365.5,-158.5 536.5,-158.5 "/>
<text text-anchor="middle" x="451" y="-147.3" font-family="Times,serif" font-size="14.00">X₃ ∈ CQC&#45;WFF(X₁)</text>
<polyline fill="none" stroke="#7f7542" points="365.5,-143.5 536.5,-143.5 "/>
<text text-anchor="middle" x="451" y="-132.3" font-family="Times,serif" font-size="14.00">⇊</text>
<polyline fill="none" stroke="#7f7542" points="365.5,-128.5 536.5,-128.5 "/>
<text text-anchor="middle" x="451" y="-117.3" font-family="Times,serif" font-size="14.00">Consistent(X₂,X₁)</text>
<polyline fill="none" stroke="#7f7542" points="365.5,-113.5 536.5,-113.5 "/>
<text text-anchor="middle" x="451" y="-102.3" font-family="Times,serif" font-size="14.00">X₁ |&#45; X₂ |&#45; X₃</text>
</a>
</g>
</g>
<!-- c_0_108&#45;&gt;c_0_113 -->
<g id="edge1" class="edge">
<title>c_0_108&#45;&gt;c_0_113</title>
<path fill="none" stroke="black" d="M809,-247.69C809,-205.47 809,-143 809,-143 809,-143 546.75,-143 546.75,-143"/>
<polygon fill="black" stroke="black" points="546.75,-139.5 536.75,-143 546.75,-146.5 546.75,-139.5"/>
</g>
<!-- c_0_109 -->
<g id="node2" class="node">
<title>c_0_109</title>
<g id="a_node2"><a xlink:href="c_0_109.html" xlink:title="{QC&#45;alphabet(X₁)|X₂ ∈ bool(CQC&#45;WFF(X₁))|⇊|Consistent(X₂,X₁)|X₁ \|&#45; X₂ \|&#45; sk₅(X₁,X₂)}" target="_parent">
<polygon fill="#f8edd1" stroke="#7f7542" points="476.5,-248 476.5,-323 647.5,-323 647.5,-248 476.5,-248"/>
<text text-anchor="middle" x="562" y="-311.8" font-family="Times,serif" font-size="14.00">QC&#45;alphabet(X₁)</text>
<polyline fill="none" stroke="#7f7542" points="476.5,-308 647.5,-308 "/>
<text text-anchor="middle" x="562" y="-296.8" font-family="Times,serif" font-size="14.00">X₂ ∈ bool(CQC&#45;WFF(X₁))</text>
<polyline fill="none" stroke="#7f7542" points="476.5,-293 647.5,-293 "/>
<text text-anchor="middle" x="562" y="-281.8" font-family="Times,serif" font-size="14.00">⇊</text>
<polyline fill="none" stroke="#7f7542" points="476.5,-278 647.5,-278 "/>
<text text-anchor="middle" x="562" y="-266.8" font-family="Times,serif" font-size="14.00">Consistent(X₂,X₁)</text>
<polyline fill="none" stroke="#7f7542" points="476.5,-263 647.5,-263 "/>
<text text-anchor="middle" x="562" y="-251.8" font-family="Times,serif" font-size="14.00">X₁ |&#45; X₂ |&#45; sk₅(X₁,X₂)</text>
</a>
</g>
</g>
<!-- c_0_109&#45;&gt;c_0_113 -->
<g id="edge2" class="edge">
<title>c_0_109&#45;&gt;c_0_113</title>
<path fill="none" stroke="black" d="M506.5,-247.82C506.5,-247.82 506.5,-198.69 506.5,-198.69"/>
<polygon fill="black" stroke="black" points="510,-198.69 506.5,-188.69 503,-198.69 510,-198.69"/>
</g>
<!-- c_0_106 -->
<g id="node3" class="node">
<title>c_0_106</title>
<g id="a_node3"><a xlink:href="c_0_106.html" xlink:title="{QC&#45;alphabet(X₁)|X₁ \|&#45; X₂ \|&#45; X₁ &#39;not&#39; X₄|X₁ \|&#45; X₂ \|&#45; X₄|X₂ ∈ bool(CQC&#45;WFF(X₁))|X₃ ∈ CQC&#45;WFF(X₁)|X₄ ∈ CQC&#45;WFF(X₁) ⊆ QC&#45;WFF(X₁)|⇊|X₁ \|&#45; X₂ \|&#45; X₃}" target="_parent">
<polygon fill="#f8edd1" stroke="#7f7542" points="222,-225.5 222,-345.5 458,-345.5 458,-225.5 222,-225.5"/>
<text text-anchor="middle" x="340" y="-334.3" font-family="Times,serif" font-size="14.00">QC&#45;alphabet(X₁)</text>
<polyline fill="none" stroke="#7f7542" points="222,-330.5 458,-330.5 "/>
<text text-anchor="middle" x="340" y="-319.3" font-family="Times,serif" font-size="14.00">X₁ |&#45; X₂ |&#45; X₁ &#39;not&#39; X₄</text>
<polyline fill="none" stroke="#7f7542" points="222,-315.5 458,-315.5 "/>
<text text-anchor="middle" x="340" y="-304.3" font-family="Times,serif" font-size="14.00">X₁ |&#45; X₂ |&#45; X₄</text>
<polyline fill="none" stroke="#7f7542" points="222,-300.5 458,-300.5 "/>
<text text-anchor="middle" x="340" y="-289.3" font-family="Times,serif" font-size="14.00">X₂ ∈ bool(CQC&#45;WFF(X₁))</text>
<polyline fill="none" stroke="#7f7542" points="222,-285.5 458,-285.5 "/>
<text text-anchor="middle" x="340" y="-274.3" font-family="Times,serif" font-size="14.00">X₃ ∈ CQC&#45;WFF(X₁)</text>
<polyline fill="none" stroke="#7f7542" points="222,-270.5 458,-270.5 "/>
<text text-anchor="middle" x="340" y="-259.3" font-family="Times,serif" font-size="14.00">X₄ ∈ CQC&#45;WFF(X₁) ⊆ QC&#45;WFF(X₁)</text>
<polyline fill="none" stroke="#7f7542" points="222,-255.5 458,-255.5 "/>
<text text-anchor="middle" x="340" y="-244.3" font-family="Times,serif" font-size="14.00">⇊</text>
<polyline fill="none" stroke="#7f7542" points="222,-240.5 458,-240.5 "/>
<text text-anchor="middle" x="340" y="-229.3" font-family="Times,serif" font-size="14.00">X₁ |&#45; X₂ |&#45; X₃</text>
</a>
</g>
</g>
<!-- c_0_106&#45;&gt;c_0_113 -->
<g id="edge3" class="edge">
<title>c_0_106&#45;&gt;c_0_113</title>
<path fill="none" stroke="black" d="M411.75,-225.28C411.75,-225.28 411.75,-198.73 411.75,-198.73"/>
<polygon fill="black" stroke="black" points="415.25,-198.73 411.75,-188.73 408.25,-198.73 415.25,-198.73"/>
</g>
<!-- c_0_107 -->
<g id="node4" class="node">
<title>c_0_107</title>
<g id="a_node4"><a xlink:href="c_0_107.html" xlink:title="{QC&#45;alphabet(X₁)|X₂ ∈ bool(CQC&#45;WFF(X₁))|⇊|Consistent(X₂,X₁)|X₁ \|&#45; X₂ \|&#45; X₁ &#39;not&#39; sk₅(X₁,X₂)}" target="_parent">
<polygon fill="#f8edd1" stroke="#7f7542" points="16.5,-248 16.5,-323 203.5,-323 203.5,-248 16.5,-248"/>
<text text-anchor="middle" x="110" y="-311.8" font-family="Times,serif" font-size="14.00">QC&#45;alphabet(X₁)</text>
<polyline fill="none" stroke="#7f7542" points="16.5,-308 203.5,-308 "/>
<text text-anchor="middle" x="110" y="-296.8" font-family="Times,serif" font-size="14.00">X₂ ∈ bool(CQC&#45;WFF(X₁))</text>
<polyline fill="none" stroke="#7f7542" points="16.5,-293 203.5,-293 "/>
<text text-anchor="middle" x="110" y="-281.8" font-family="Times,serif" font-size="14.00">⇊</text>
<polyline fill="none" stroke="#7f7542" points="16.5,-278 203.5,-278 "/>
<text text-anchor="middle" x="110" y="-266.8" font-family="Times,serif" font-size="14.00">Consistent(X₂,X₁)</text>
<polyline fill="none" stroke="#7f7542" points="16.5,-263 203.5,-263 "/>
<text text-anchor="middle" x="110" y="-251.8" font-family="Times,serif" font-size="14.00">X₁ |&#45; X₂ |&#45; X₁ &#39;not&#39; sk₅(X₁,X₂)</text>
</a>
</g>
</g>
<!-- c_0_107&#45;&gt;c_0_113 -->
<g id="edge4" class="edge">
<title>c_0_107&#45;&gt;c_0_113</title>
<path fill="none" stroke="black" d="M110,-247.69C110,-205.47 110,-143 110,-143 110,-143 355.39,-143 355.39,-143"/>
<polygon fill="black" stroke="black" points="355.39,-146.5 365.39,-143 355.39,-139.5 355.39,-146.5"/>
</g>
<!-- c_0_116 -->
<g id="node6" class="node">
<title>c_0_116</title>
<g id="a_node6"><a xlink:href="c_0_116.html" xlink:title="{X₁ ∈ CQC&#45;WFF(sk₁)|⇊|sk₁ \|&#45; sk₂ \|&#45; X₁}" target="_parent">
<polygon fill="#fa6900" stroke="#7f7542" points="383,-16.5 383,-61.5 519,-61.5 519,-16.5 383,-16.5"/>
<text text-anchor="middle" x="451" y="-50.3" font-family="Times,serif" font-size="14.00">X₁ ∈ CQC&#45;WFF(sk₁)</text>
<polyline fill="none" stroke="#7f7542" points="383,-46.5 519,-46.5 "/>
<text text-anchor="middle" x="451" y="-35.3" font-family="Times,serif" font-size="14.00">⇊</text>
<polyline fill="none" stroke="#7f7542" points="383,-31.5 519,-31.5 "/>
<text text-anchor="middle" x="451" y="-20.3" font-family="Times,serif" font-size="14.00">sk₁ |&#45; sk₂ |&#45; X₁</text>
</a>
</g>
</g>
<!-- c_0_113&#45;&gt;c_0_116 -->
<g id="edge5" class="edge">
<title>c_0_113&#45;&gt;c_0_116</title>
<path fill="none" stroke="black" stroke-dasharray="5,2" d="M451,-98.27C451,-98.27 451,-71.59 451,-71.59"/>
<polygon fill="black" stroke="black" points="454.5,-71.59 451,-61.59 447.5,-71.59 454.5,-71.59"/>
</g>
</g>
</svg>
