<?xml version="1.0" encoding="UTF-8" standalone="no"?>
<!DOCTYPE svg PUBLIC "-//W3C//DTD SVG 1.1//EN"
 "http://www.w3.org/Graphics/SVG/1.1/DTD/svg11.dtd">
<!-- Generated by graphviz version 5.0.0 (0)
 -->
<!-- Title: proof Pages: 1 -->
<svg width="294pt" height="220pt"
 viewBox="0.00 0.00 294.00 220.00" xmlns="http://www.w3.org/2000/svg" xmlns:xlink="http://www.w3.org/1999/xlink">
<g id="graph0" class="graph" transform="scale(1 1) rotate(0) translate(4 216)">
<title>proof</title>
<g id="clust1" class="cluster">
<title>cluster_0</title>
<polygon fill="transparent" stroke="black" stroke-dasharray="1,5" points="89,-172 89,-204 197,-204 197,-172 89,-172"/>
</g>
<g id="clust2" class="cluster">
<title>cluster_1</title>
<polygon fill="transparent" stroke="black" stroke-width="2" points="8,-105 8,-152 278,-152 278,-105 8,-105"/>
</g>
<g id="clust3" class="cluster">
<title>cluster_2</title>
<polygon fill="transparent" stroke="black" stroke-dasharray="1,5" points="8,-8 8,-85 278,-85 278,-8 8,-8"/>
</g>
<!-- t6_henmodel -->
<g id="node1" class="node">
<title>t6_henmodel</title>
<g id="a_node1"><a xlink:href="t6_henmodel.html" xlink:title="t6_henmodel" target="_parent">
<polygon fill="#fa6900" stroke="#7f7542" points="97,-180.5 97,-195.5 189,-195.5 189,-180.5 97,-180.5"/>
<text text-anchor="middle" x="143" y="-184.3" font-family="Times,serif" font-size="14.00">t6_henmodel</text>
</a>
</g>
</g>
<!-- c_0_103 -->
<g id="node2" class="node">
<title>c_0_103</title>
<g id="a_node2"><a xlink:href="c_0_103.html" xlink:title="{Consistent(sk₂,sk₁)|sk₃ ∈ CQC&#45;WFF(sk₁) ⊆ QC&#45;WFF(sk₁)}" target="_parent">
<polygon fill="#fa6900" stroke="#7f7542" points="16,-113.5 16,-143.5 270,-143.5 270,-113.5 16,-113.5"/>
<text text-anchor="middle" x="143" y="-132.3" font-family="Times,serif" font-size="14.00">Consistent(sk₂,sk₁)</text>
<polyline fill="none" stroke="#7f7542" points="16,-128.5 270,-128.5 "/>
<text text-anchor="middle" x="143" y="-117.3" font-family="Times,serif" font-size="14.00">sk₃ ∈ CQC&#45;WFF(sk₁) ⊆ QC&#45;WFF(sk₁)</text>
</a>
</g>
</g>
<!-- t6_henmodel&#45;&gt;c_0_103 -->
<g id="edge1" class="edge">
<title>t6_henmodel&#45;&gt;c_0_103</title>
<path fill="none" stroke="black" d="M143,-180.22C143,-180.22 143,-153.85 143,-153.85"/>
<polygon fill="black" stroke="black" points="146.5,-153.85 143,-143.85 139.5,-153.85 146.5,-153.85"/>
</g>
<!-- c_0_110 -->
<g id="node3" class="node">
<title>c_0_110</title>
<g id="a_node3"><a xlink:href="c_0_110.html" xlink:title="{CQC&#45;WFF(sk₁) ∈ bool(QC&#45;WFF(sk₁))|⇊|Consistent(sk₂,sk₁)|sk₃ ∈ CQC&#45;WFF(sk₁)}" target="_parent">
<polygon fill="#fa6900" stroke="#7f7542" points="16.5,-16.5 16.5,-76.5 269.5,-76.5 269.5,-16.5 16.5,-16.5"/>
<text text-anchor="middle" x="143" y="-65.3" font-family="Times,serif" font-size="14.00">CQC&#45;WFF(sk₁) ∈ bool(QC&#45;WFF(sk₁))</text>
<polyline fill="none" stroke="#7f7542" points="16.5,-61.5 269.5,-61.5 "/>
<text text-anchor="middle" x="143" y="-50.3" font-family="Times,serif" font-size="14.00">⇊</text>
<polyline fill="none" stroke="#7f7542" points="16.5,-46.5 269.5,-46.5 "/>
<text text-anchor="middle" x="143" y="-35.3" font-family="Times,serif" font-size="14.00">Consistent(sk₂,sk₁)</text>
<polyline fill="none" stroke="#7f7542" points="16.5,-31.5 269.5,-31.5 "/>
<text text-anchor="middle" x="143" y="-20.3" font-family="Times,serif" font-size="14.00">sk₃ ∈ CQC&#45;WFF(sk₁)</text>
</a>
</g>
</g>
<!-- c_0_103&#45;&gt;c_0_110 -->
<g id="edge2" class="edge">
<title>c_0_103&#45;&gt;c_0_110</title>
<path fill="none" stroke="black" stroke-dasharray="5,2" d="M143,-113.46C143,-113.46 143,-86.73 143,-86.73"/>
<polygon fill="black" stroke="black" points="146.5,-86.73 143,-76.73 139.5,-86.73 146.5,-86.73"/>
</g>
</g>
</svg>
