<?xml version="1.0" encoding="UTF-8" standalone="no"?>
<!DOCTYPE svg PUBLIC "-//W3C//DTD SVG 1.1//EN"
 "http://www.w3.org/Graphics/SVG/1.1/DTD/svg11.dtd">
<!-- Generated by graphviz version 5.0.0 (0)
 -->
<!-- Title: proof Pages: 1 -->
<svg width="750pt" height="265pt"
 viewBox="0.00 0.00 750.00 265.00" xmlns="http://www.w3.org/2000/svg" xmlns:xlink="http://www.w3.org/1999/xlink">
<g id="graph0" class="graph" transform="scale(1 1) rotate(0) translate(4 261)">
<title>proof</title>
<g id="clust1" class="cluster">
<title>cluster_0</title>
<polygon fill="transparent" stroke="black" stroke-dasharray="1,5" points="8,-157 8,-249 734,-249 734,-157 8,-157"/>
</g>
<g id="clust2" class="cluster">
<title>cluster_1</title>
<polygon fill="transparent" stroke="black" stroke-width="2" points="349,-60 349,-137 575,-137 575,-60 349,-60"/>
</g>
<g id="clust3" class="cluster">
<title>cluster_2</title>
<polygon fill="transparent" stroke="black" stroke-dasharray="1,5" points="373,-8 373,-40 551,-40 551,-8 373,-8"/>
</g>
<!-- c_0_80 -->
<g id="node1" class="node">
<title>c_0_80</title>
<g id="a_node1"><a xlink:href="c_0_80.html" xlink:title="{QC&#45;alphabet(sk₁)}" target="_vizar">
<polygon fill="#fa6900" stroke="#7f7542" points="604.5,-195.5 604.5,-210.5 725.5,-210.5 725.5,-195.5 604.5,-195.5"/>
<text text-anchor="middle" x="665" y="-199.3" font-family="Times,serif" font-size="14.00">QC&#45;alphabet(sk₁)</text>
</a>
</g>
</g>
<!-- c_0_104 -->
<g id="node4" class="node">
<title>c_0_104</title>
<g id="a_node4"><a xlink:href="c_0_104.html" xlink:title="{Consistent(sk₂,sk₁)|VERUM(sk₁) ∈ CQC&#45;WFF(sk₁)|⇊|⊥}" target="_vizar">
<polygon fill="#fa6900" stroke="#7f7542" points="357,-68.5 357,-128.5 567,-128.5 567,-68.5 357,-68.5"/>
<text text-anchor="middle" x="462" y="-117.3" font-family="Times,serif" font-size="14.00">Consistent(sk₂,sk₁)</text>
<polyline fill="none" stroke="#7f7542" points="357,-113.5 567,-113.5 "/>
<text text-anchor="middle" x="462" y="-102.3" font-family="Times,serif" font-size="14.00">VERUM(sk₁) ∈ CQC&#45;WFF(sk₁)</text>
<polyline fill="none" stroke="#7f7542" points="357,-98.5 567,-98.5 "/>
<text text-anchor="middle" x="462" y="-87.3" font-family="Times,serif" font-size="14.00">⇊</text>
<polyline fill="none" stroke="#7f7542" points="357,-83.5 567,-83.5 "/>
<text text-anchor="middle" x="462" y="-72.3" font-family="Times,serif" font-size="14.00">⊥</text>
</a>
</g>
</g>
<!-- c_0_80&#45;&gt;c_0_104 -->
<g id="edge1" class="edge">
<title>c_0_80&#45;&gt;c_0_104</title>
<path fill="none" stroke="black" d="M665,-195.45C665,-171.37 665,-98 665,-98 665,-98 577.07,-98 577.07,-98"/>
<polygon fill="black" stroke="black" points="577.07,-94.5 567.07,-98 577.07,-101.5 577.07,-94.5"/>
</g>
<!-- c_0_100 -->
<g id="node2" class="node">
<title>c_0_100</title>
<g id="a_node2"><a xlink:href="c_0_100.html" xlink:title="{Consistent(sk₂,sk₁)|X₁ ∈ CQC&#45;WFF(sk₁)|X₁ ∈ CQC&#45;WFF(sk₁) ⊆ QC&#45;WFF(sk₁)|⇊|⊥}" target="_vizar">
<polygon fill="#fa6900" stroke="#7f7542" points="338,-165.5 338,-240.5 586,-240.5 586,-165.5 338,-165.5"/>
<text text-anchor="middle" x="462" y="-229.3" font-family="Times,serif" font-size="14.00">Consistent(sk₂,sk₁)</text>
<polyline fill="none" stroke="#7f7542" points="338,-225.5 586,-225.5 "/>
<text text-anchor="middle" x="462" y="-214.3" font-family="Times,serif" font-size="14.00">X₁ ∈ CQC&#45;WFF(sk₁)</text>
<polyline fill="none" stroke="#7f7542" points="338,-210.5 586,-210.5 "/>
<text text-anchor="middle" x="462" y="-199.3" font-family="Times,serif" font-size="14.00">X₁ ∈ CQC&#45;WFF(sk₁) ⊆ QC&#45;WFF(sk₁)</text>
<polyline fill="none" stroke="#7f7542" points="338,-195.5 586,-195.5 "/>
<text text-anchor="middle" x="462" y="-184.3" font-family="Times,serif" font-size="14.00">⇊</text>
<polyline fill="none" stroke="#7f7542" points="338,-180.5 586,-180.5 "/>
<text text-anchor="middle" x="462" y="-169.3" font-family="Times,serif" font-size="14.00">⊥</text>
</a>
</g>
</g>
<!-- c_0_100&#45;&gt;c_0_104 -->
<g id="edge2" class="edge">
<title>c_0_100&#45;&gt;c_0_104</title>
<path fill="none" stroke="black" d="M462,-165.27C462,-165.27 462,-138.64 462,-138.64"/>
<polygon fill="black" stroke="black" points="465.5,-138.64 462,-128.64 458.5,-138.64 465.5,-138.64"/>
</g>
<!-- c_0_101 -->
<g id="node3" class="node">
<title>c_0_101</title>
<g id="a_node3"><a xlink:href="c_0_101.html" xlink:title="{QC&#45;alphabet(X₁)|⇊|VERUM(X₁) ∈ CQC&#45;WFF(X₁) ⊆ QC&#45;WFF(X₁)}" target="_vizar">
<polygon fill="#f8edd1" stroke="#7f7542" points="16,-180.5 16,-225.5 320,-225.5 320,-180.5 16,-180.5"/>
<text text-anchor="middle" x="168" y="-214.3" font-family="Times,serif" font-size="14.00">QC&#45;alphabet(X₁)</text>
<polyline fill="none" stroke="#7f7542" points="16,-210.5 320,-210.5 "/>
<text text-anchor="middle" x="168" y="-199.3" font-family="Times,serif" font-size="14.00">⇊</text>
<polyline fill="none" stroke="#7f7542" points="16,-195.5 320,-195.5 "/>
<text text-anchor="middle" x="168" y="-184.3" font-family="Times,serif" font-size="14.00">VERUM(X₁) ∈ CQC&#45;WFF(X₁) ⊆ QC&#45;WFF(X₁)</text>
</a>
</g>
</g>
<!-- c_0_101&#45;&gt;c_0_104 -->
<g id="edge3" class="edge">
<title>c_0_101&#45;&gt;c_0_104</title>
<path fill="none" stroke="black" d="M168,-180.47C168,-149.62 168,-98 168,-98 168,-98 346.69,-98 346.69,-98"/>
<polygon fill="black" stroke="black" points="346.69,-101.5 356.69,-98 346.69,-94.5 346.69,-101.5"/>
</g>
<!-- c_0_111 -->
<g id="node5" class="node">
<title>c_0_111</title>
<g id="a_node5"><a xlink:href="c_0_111.html" xlink:title="{¬ (Consistent(sk₂,sk₁))}" target="_vizar">
<polygon fill="#fa6900" stroke="#7f7542" points="381.5,-16.5 381.5,-31.5 542.5,-31.5 542.5,-16.5 381.5,-16.5"/>
<text text-anchor="middle" x="462" y="-20.3" font-family="Times,serif" font-size="14.00">¬ (Consistent(sk₂,sk₁))</text>
</a>
</g>
</g>
<!-- c_0_104&#45;&gt;c_0_111 -->
<g id="edge4" class="edge">
<title>c_0_104&#45;&gt;c_0_111</title>
<path fill="none" stroke="black" stroke-dasharray="5,2" d="M462,-68.2C462,-68.2 462,-41.59 462,-41.59"/>
<polygon fill="black" stroke="black" points="465.5,-41.59 462,-31.59 458.5,-41.59 465.5,-41.59"/>
</g>
</g>
</svg>
