<?xml version="1.0" encoding="UTF-8" standalone="no"?>
<!DOCTYPE svg PUBLIC "-//W3C//DTD SVG 1.1//EN"
 "http://www.w3.org/Graphics/SVG/1.1/DTD/svg11.dtd">
<!-- Generated by graphviz version 5.0.0 (0)
 -->
<!-- Title: proof Pages: 1 -->
<svg width="1314pt" height="385pt"
 viewBox="0.00 0.00 1314.00 385.00" xmlns="http://www.w3.org/2000/svg" xmlns:xlink="http://www.w3.org/1999/xlink">
<g id="graph0" class="graph" transform="scale(1 1) rotate(0) translate(4 381)">
<title>proof</title>
<g id="clust1" class="cluster">
<title>cluster_0</title>
<polygon fill="transparent" stroke="black" stroke-dasharray="1,5" points="530,-337 530,-369 724,-369 724,-337 530,-337"/>
</g>
<g id="clust2" class="cluster">
<title>cluster_1</title>
<polygon fill="transparent" stroke="black" stroke-width="2" points="550,-255 550,-317 704,-317 704,-255 550,-255"/>
</g>
<g id="clust3" class="cluster">
<title>cluster_2</title>
<polygon fill="transparent" stroke="black" stroke-dasharray="1,5" points="8,-8 8,-235 1298,-235 1298,-8 8,-8"/>
</g>
<!-- redefinition_m2_finseq_1 -->
<g id="node1" class="node">
<title>redefinition_m2_finseq_1</title>
<g id="a_node1"><a xlink:href="redefinition_m2_finseq_1.html" xlink:title="redefinition_m2_finseq_1" target="_parent">
<polygon fill="#69d2e7" stroke="#7f7542" points="538,-345.5 538,-360.5 716,-360.5 716,-345.5 538,-345.5"/>
<text text-anchor="middle" x="627" y="-349.3" font-family="Times,serif" font-size="14.00">redefinition_m2_finseq_1</text>
</a>
</g>
</g>
<!-- c_0_39 -->
<g id="node2" class="node">
<title>c_0_39</title>
<g id="a_node2"><a xlink:href="c_0_39.html" xlink:title="{X₁ ∈ fin&#45;seq(X₂)|⇊|FinSequence(X₁,X₂)}" target="_parent">
<polygon fill="#f8edd1" stroke="#7f7542" points="558,-263.5 558,-308.5 696,-308.5 696,-263.5 558,-263.5"/>
<text text-anchor="middle" x="627" y="-297.3" font-family="Times,serif" font-size="14.00">X₁ ∈ fin&#45;seq(X₂)</text>
<polyline fill="none" stroke="#7f7542" points="558,-293.5 696,-293.5 "/>
<text text-anchor="middle" x="627" y="-282.3" font-family="Times,serif" font-size="14.00">⇊</text>
<polyline fill="none" stroke="#7f7542" points="558,-278.5 696,-278.5 "/>
<text text-anchor="middle" x="627" y="-267.3" font-family="Times,serif" font-size="14.00">FinSequence(X₁,X₂)</text>
</a>
</g>
</g>
<!-- redefinition_m2_finseq_1&#45;&gt;c_0_39 -->
<g id="edge1" class="edge">
<title>redefinition_m2_finseq_1&#45;&gt;c_0_39</title>
<path fill="none" stroke="black" d="M627,-345.31C627,-345.31 627,-318.76 627,-318.76"/>
<polygon fill="black" stroke="black" points="630.5,-318.76 627,-308.76 623.5,-318.76 630.5,-318.76"/>
</g>
<!-- c_0_75 -->
<g id="node3" class="node">
<title>c_0_75</title>
<g id="a_node3"><a xlink:href="c_0_75.html" xlink:title="{FinSequence(sk₄(X₁,X₆,X₁ &#39;not&#39; X₅),CQC&#45;WFF(X₁))|QC&#45;alphabet(X₁)|X₁ &#39;not&#39; X₅ ∈ CQC&#45;WFF(X₁) ⊆ QC&#45;WFF(X₁)|X₁ \|&#45; CQC&#45;WFF(X₁) ^ X₄ ^ &amp;lt;X₅&amp;gt;|X₁ \|&#45; X₆ \|&#45; X₁ &#39;not&#39; X₅|X₂ ∈ bool(CQC&#45;WFF(X₁))|X₃ ∈ CQC&#45;WFF(X₁) ⊆ QC&#45;WFF(X₁)|X₄ ∈ fin&#45;seq(CQC&#45;WFF(X₁))|X₅ ∈ CQC&#45;WFF(X₁) ⊆ QC&#45;WFF(X₁)|X₆ ∈ bool(CQC&#45;WFF(X₁))|proj₂(X₄) ⊆ X₂|proj₂(sk₄(X₁,X₆,X₁ &#39;not&#39; X₅)) ⊆ X₂|⇊|X₁ \|&#45; X₂ \|&#45; X₃}" target="_parent">
<polygon fill="#f8edd1" stroke="#7f7542" points="946.5,-16.5 946.5,-226.5 1289.5,-226.5 1289.5,-16.5 946.5,-16.5"/>
<text text-anchor="middle" x="1118" y="-215.3" font-family="Times,serif" font-size="14.00">FinSequence(sk₄(X₁,X₆,X₁ &#39;not&#39; X₅),CQC&#45;WFF(X₁))</text>
<polyline fill="none" stroke="#7f7542" points="946.5,-211.5 1289.5,-211.5 "/>
<text text-anchor="middle" x="1118" y="-200.3" font-family="Times,serif" font-size="14.00">QC&#45;alphabet(X₁)</text>
<polyline fill="none" stroke="#7f7542" points="946.5,-196.5 1289.5,-196.5 "/>
<text text-anchor="middle" x="1118" y="-185.3" font-family="Times,serif" font-size="14.00">X₁ &#39;not&#39; X₅ ∈ CQC&#45;WFF(X₁) ⊆ QC&#45;WFF(X₁)</text>
<polyline fill="none" stroke="#7f7542" points="946.5,-181.5 1289.5,-181.5 "/>
<text text-anchor="middle" x="1118" y="-170.3" font-family="Times,serif" font-size="14.00">X₁ |&#45; CQC&#45;WFF(X₁) ^ X₄ ^ &lt;X₅&gt;</text>
<polyline fill="none" stroke="#7f7542" points="946.5,-166.5 1289.5,-166.5 "/>
<text text-anchor="middle" x="1118" y="-155.3" font-family="Times,serif" font-size="14.00">X₁ |&#45; X₆ |&#45; X₁ &#39;not&#39; X₅</text>
<polyline fill="none" stroke="#7f7542" points="946.5,-151.5 1289.5,-151.5 "/>
<text text-anchor="middle" x="1118" y="-140.3" font-family="Times,serif" font-size="14.00">X₂ ∈ bool(CQC&#45;WFF(X₁))</text>
<polyline fill="none" stroke="#7f7542" points="946.5,-136.5 1289.5,-136.5 "/>
<text text-anchor="middle" x="1118" y="-125.3" font-family="Times,serif" font-size="14.00">X₃ ∈ CQC&#45;WFF(X₁) ⊆ QC&#45;WFF(X₁)</text>
<polyline fill="none" stroke="#7f7542" points="946.5,-121.5 1289.5,-121.5 "/>
<text text-anchor="middle" x="1118" y="-110.3" font-family="Times,serif" font-size="14.00">X₄ ∈ fin&#45;seq(CQC&#45;WFF(X₁))</text>
<polyline fill="none" stroke="#7f7542" points="946.5,-106.5 1289.5,-106.5 "/>
<text text-anchor="middle" x="1118" y="-95.3" font-family="Times,serif" font-size="14.00">X₅ ∈ CQC&#45;WFF(X₁) ⊆ QC&#45;WFF(X₁)</text>
<polyline fill="none" stroke="#7f7542" points="946.5,-91.5 1289.5,-91.5 "/>
<text text-anchor="middle" x="1118" y="-80.3" font-family="Times,serif" font-size="14.00">X₆ ∈ bool(CQC&#45;WFF(X₁))</text>
<polyline fill="none" stroke="#7f7542" points="946.5,-76.5 1289.5,-76.5 "/>
<text text-anchor="middle" x="1118" y="-65.3" font-family="Times,serif" font-size="14.00">proj₂(X₄) ⊆ X₂</text>
<polyline fill="none" stroke="#7f7542" points="946.5,-61.5 1289.5,-61.5 "/>
<text text-anchor="middle" x="1118" y="-50.3" font-family="Times,serif" font-size="14.00">proj₂(sk₄(X₁,X₆,X₁ &#39;not&#39; X₅)) ⊆ X₂</text>
<polyline fill="none" stroke="#7f7542" points="946.5,-46.5 1289.5,-46.5 "/>
<text text-anchor="middle" x="1118" y="-35.3" font-family="Times,serif" font-size="14.00">⇊</text>
<polyline fill="none" stroke="#7f7542" points="946.5,-31.5 1289.5,-31.5 "/>
<text text-anchor="middle" x="1118" y="-20.3" font-family="Times,serif" font-size="14.00">X₁ |&#45; X₂ |&#45; X₃</text>
</a>
</g>
</g>
<!-- c_0_39&#45;&gt;c_0_75 -->
<g id="edge2" class="edge">
<title>c_0_39&#45;&gt;c_0_75</title>
<path fill="none" stroke="black" stroke-dasharray="5,2" d="M696.05,-293C831.29,-293 1118,-293 1118,-293 1118,-293 1118,-236.69 1118,-236.69"/>
<polygon fill="black" stroke="black" points="1121.5,-236.69 1118,-226.69 1114.5,-236.69 1121.5,-236.69"/>
</g>
<!-- c_0_43 -->
<g id="node4" class="node">
<title>c_0_43</title>
<g id="a_node4"><a xlink:href="c_0_43.html" xlink:title="{X₁ ∈ fin&#45;seq(X₂)|⇊|relation(X₁)}" target="_parent">
<polygon fill="#f8edd1" stroke="#7f7542" points="820,-99 820,-144 928,-144 928,-99 820,-99"/>
<text text-anchor="middle" x="874" y="-132.8" font-family="Times,serif" font-size="14.00">X₁ ∈ fin&#45;seq(X₂)</text>
<polyline fill="none" stroke="#7f7542" points="820,-129 928,-129 "/>
<text text-anchor="middle" x="874" y="-117.8" font-family="Times,serif" font-size="14.00">⇊</text>
<polyline fill="none" stroke="#7f7542" points="820,-114 928,-114 "/>
<text text-anchor="middle" x="874" y="-102.8" font-family="Times,serif" font-size="14.00">relation(X₁)</text>
</a>
</g>
</g>
<!-- c_0_39&#45;&gt;c_0_43 -->
<g id="edge3" class="edge">
<title>c_0_39&#45;&gt;c_0_43</title>
<path fill="none" stroke="black" stroke-dasharray="5,2" d="M696.13,-278C769.2,-278 874,-278 874,-278 874,-278 874,-154.26 874,-154.26"/>
<polygon fill="black" stroke="black" points="877.5,-154.26 874,-144.26 870.5,-154.26 877.5,-154.26"/>
</g>
<!-- c_0_54 -->
<g id="node5" class="node">
<title>c_0_54</title>
<g id="a_node5"><a xlink:href="c_0_54.html" xlink:title="{FinSequence(sk₄(X₁,X₆,X₁ &#39;not&#39; X₅),CQC&#45;WFF(X₁))|QC&#45;alphabet(X₁)|X₁ &#39;not&#39; X₅ ∈ CQC&#45;WFF(X₁) ⊆ QC&#45;WFF(X₁)|X₁ \|&#45; CQC&#45;WFF(X₁) ^ X₄ ^ &amp;lt;X₅&amp;gt;|X₁ \|&#45; X₆ \|&#45; X₁ &#39;not&#39; X₅|X₂ ∈ bool(CQC&#45;WFF(X₁))|X₃ ∈ CQC&#45;WFF(X₁) ⊆ QC&#45;WFF(X₁)|X₄ ∈ fin&#45;seq(CQC&#45;WFF(X₁))|X₅ ∈ CQC&#45;WFF(X₁) ⊆ QC&#45;WFF(X₁)|X₆ ∈ bool(CQC&#45;WFF(X₁))|proj₂(sk₄(X₁,X₆,X₁ &#39;not&#39; X₅) ^ X₄) ⊆ X₂|sk₄(X₁,X₆,X₁ &#39;not&#39; X₅) ^ X₄ ∈ fin&#45;seq(CQC&#45;WFF(X₁))|⇊|X₁ \|&#45; X₂ \|&#45; X₃}" target="_parent">
<polygon fill="#f8edd1" stroke="#7f7542" points="452.5,-16.5 452.5,-226.5 801.5,-226.5 801.5,-16.5 452.5,-16.5"/>
<text text-anchor="middle" x="627" y="-215.3" font-family="Times,serif" font-size="14.00">FinSequence(sk₄(X₁,X₆,X₁ &#39;not&#39; X₅),CQC&#45;WFF(X₁))</text>
<polyline fill="none" stroke="#7f7542" points="452.5,-211.5 801.5,-211.5 "/>
<text text-anchor="middle" x="627" y="-200.3" font-family="Times,serif" font-size="14.00">QC&#45;alphabet(X₁)</text>
<polyline fill="none" stroke="#7f7542" points="452.5,-196.5 801.5,-196.5 "/>
<text text-anchor="middle" x="627" y="-185.3" font-family="Times,serif" font-size="14.00">X₁ &#39;not&#39; X₅ ∈ CQC&#45;WFF(X₁) ⊆ QC&#45;WFF(X₁)</text>
<polyline fill="none" stroke="#7f7542" points="452.5,-181.5 801.5,-181.5 "/>
<text text-anchor="middle" x="627" y="-170.3" font-family="Times,serif" font-size="14.00">X₁ |&#45; CQC&#45;WFF(X₁) ^ X₄ ^ &lt;X₅&gt;</text>
<polyline fill="none" stroke="#7f7542" points="452.5,-166.5 801.5,-166.5 "/>
<text text-anchor="middle" x="627" y="-155.3" font-family="Times,serif" font-size="14.00">X₁ |&#45; X₆ |&#45; X₁ &#39;not&#39; X₅</text>
<polyline fill="none" stroke="#7f7542" points="452.5,-151.5 801.5,-151.5 "/>
<text text-anchor="middle" x="627" y="-140.3" font-family="Times,serif" font-size="14.00">X₂ ∈ bool(CQC&#45;WFF(X₁))</text>
<polyline fill="none" stroke="#7f7542" points="452.5,-136.5 801.5,-136.5 "/>
<text text-anchor="middle" x="627" y="-125.3" font-family="Times,serif" font-size="14.00">X₃ ∈ CQC&#45;WFF(X₁) ⊆ QC&#45;WFF(X₁)</text>
<polyline fill="none" stroke="#7f7542" points="452.5,-121.5 801.5,-121.5 "/>
<text text-anchor="middle" x="627" y="-110.3" font-family="Times,serif" font-size="14.00">X₄ ∈ fin&#45;seq(CQC&#45;WFF(X₁))</text>
<polyline fill="none" stroke="#7f7542" points="452.5,-106.5 801.5,-106.5 "/>
<text text-anchor="middle" x="627" y="-95.3" font-family="Times,serif" font-size="14.00">X₅ ∈ CQC&#45;WFF(X₁) ⊆ QC&#45;WFF(X₁)</text>
<polyline fill="none" stroke="#7f7542" points="452.5,-91.5 801.5,-91.5 "/>
<text text-anchor="middle" x="627" y="-80.3" font-family="Times,serif" font-size="14.00">X₆ ∈ bool(CQC&#45;WFF(X₁))</text>
<polyline fill="none" stroke="#7f7542" points="452.5,-76.5 801.5,-76.5 "/>
<text text-anchor="middle" x="627" y="-65.3" font-family="Times,serif" font-size="14.00">proj₂(sk₄(X₁,X₆,X₁ &#39;not&#39; X₅) ^ X₄) ⊆ X₂</text>
<polyline fill="none" stroke="#7f7542" points="452.5,-61.5 801.5,-61.5 "/>
<text text-anchor="middle" x="627" y="-50.3" font-family="Times,serif" font-size="14.00">sk₄(X₁,X₆,X₁ &#39;not&#39; X₅) ^ X₄ ∈ fin&#45;seq(CQC&#45;WFF(X₁))</text>
<polyline fill="none" stroke="#7f7542" points="452.5,-46.5 801.5,-46.5 "/>
<text text-anchor="middle" x="627" y="-35.3" font-family="Times,serif" font-size="14.00">⇊</text>
<polyline fill="none" stroke="#7f7542" points="452.5,-31.5 801.5,-31.5 "/>
<text text-anchor="middle" x="627" y="-20.3" font-family="Times,serif" font-size="14.00">X₁ |&#45; X₂ |&#45; X₃</text>
</a>
</g>
</g>
<!-- c_0_39&#45;&gt;c_0_54 -->
<g id="edge4" class="edge">
<title>c_0_39&#45;&gt;c_0_54</title>
<path fill="none" stroke="black" stroke-dasharray="5,2" d="M627,-263.47C627,-263.47 627,-236.59 627,-236.59"/>
<polygon fill="black" stroke="black" points="630.5,-236.59 627,-226.59 623.5,-236.59 630.5,-236.59"/>
</g>
<!-- c_0_44 -->
<g id="node6" class="node">
<title>c_0_44</title>
<g id="a_node6"><a xlink:href="c_0_44.html" xlink:title="{X₁ ∈ fin&#45;seq(X₂)|⇊|&#45;valued(X₁,X₂)}" target="_parent">
<polygon fill="#f8edd1" stroke="#7f7542" points="326,-99 326,-144 434,-144 434,-99 326,-99"/>
<text text-anchor="middle" x="380" y="-132.8" font-family="Times,serif" font-size="14.00">X₁ ∈ fin&#45;seq(X₂)</text>
<polyline fill="none" stroke="#7f7542" points="326,-129 434,-129 "/>
<text text-anchor="middle" x="380" y="-117.8" font-family="Times,serif" font-size="14.00">⇊</text>
<polyline fill="none" stroke="#7f7542" points="326,-114 434,-114 "/>
<text text-anchor="middle" x="380" y="-102.8" font-family="Times,serif" font-size="14.00">&#45;valued(X₁,X₂)</text>
</a>
</g>
</g>
<!-- c_0_39&#45;&gt;c_0_44 -->
<g id="edge5" class="edge">
<title>c_0_39&#45;&gt;c_0_44</title>
<path fill="none" stroke="black" stroke-dasharray="5,2" d="M557.87,-278C484.8,-278 380,-278 380,-278 380,-278 380,-154.26 380,-154.26"/>
<polygon fill="black" stroke="black" points="383.5,-154.26 380,-144.26 376.5,-154.26 383.5,-154.26"/>
</g>
<!-- c_0_91 -->
<g id="node7" class="node">
<title>c_0_91</title>
<g id="a_node7"><a xlink:href="c_0_91.html" xlink:title="{QC&#45;alphabet(X₁)|X₁ &#39;not&#39; X₅ ∈ CQC&#45;WFF(X₁)|X₁ &#39;not&#39; X₅ ∈ CQC&#45;WFF(X₁) ⊆ QC&#45;WFF(X₁)|X₁ \|&#45; X₂ \|&#45; X₁ &#39;not&#39; X₅|X₁ \|&#45; X₄ \|&#45; X₅|X₂ ∈ bool(CQC&#45;WFF(X₁))|X₃ ∈ CQC&#45;WFF(X₁) ⊆ QC&#45;WFF(X₁)|X₄ ∈ bool(CQC&#45;WFF(X₁))|X₅ ∈ CQC&#45;WFF(X₁) ⊆ QC&#45;WFF(X₁)|proj₂(sk₄(X₁,X₄,X₅)) ⊆ X₂|⇊|X₁ \|&#45; X₂ \|&#45; X₃}" target="_parent">
<polygon fill="#f8edd1" stroke="#7f7542" points="16.5,-31.5 16.5,-211.5 307.5,-211.5 307.5,-31.5 16.5,-31.5"/>
<text text-anchor="middle" x="162" y="-200.3" font-family="Times,serif" font-size="14.00">QC&#45;alphabet(X₁)</text>
<polyline fill="none" stroke="#7f7542" points="16.5,-196.5 307.5,-196.5 "/>
<text text-anchor="middle" x="162" y="-185.3" font-family="Times,serif" font-size="14.00">X₁ &#39;not&#39; X₅ ∈ CQC&#45;WFF(X₁)</text>
<polyline fill="none" stroke="#7f7542" points="16.5,-181.5 307.5,-181.5 "/>
<text text-anchor="middle" x="162" y="-170.3" font-family="Times,serif" font-size="14.00">X₁ &#39;not&#39; X₅ ∈ CQC&#45;WFF(X₁) ⊆ QC&#45;WFF(X₁)</text>
<polyline fill="none" stroke="#7f7542" points="16.5,-166.5 307.5,-166.5 "/>
<text text-anchor="middle" x="162" y="-155.3" font-family="Times,serif" font-size="14.00">X₁ |&#45; X₂ |&#45; X₁ &#39;not&#39; X₅</text>
<polyline fill="none" stroke="#7f7542" points="16.5,-151.5 307.5,-151.5 "/>
<text text-anchor="middle" x="162" y="-140.3" font-family="Times,serif" font-size="14.00">X₁ |&#45; X₄ |&#45; X₅</text>
<polyline fill="none" stroke="#7f7542" points="16.5,-136.5 307.5,-136.5 "/>
<text text-anchor="middle" x="162" y="-125.3" font-family="Times,serif" font-size="14.00">X₂ ∈ bool(CQC&#45;WFF(X₁))</text>
<polyline fill="none" stroke="#7f7542" points="16.5,-121.5 307.5,-121.5 "/>
<text text-anchor="middle" x="162" y="-110.3" font-family="Times,serif" font-size="14.00">X₃ ∈ CQC&#45;WFF(X₁) ⊆ QC&#45;WFF(X₁)</text>
<polyline fill="none" stroke="#7f7542" points="16.5,-106.5 307.5,-106.5 "/>
<text text-anchor="middle" x="162" y="-95.3" font-family="Times,serif" font-size="14.00">X₄ ∈ bool(CQC&#45;WFF(X₁))</text>
<polyline fill="none" stroke="#7f7542" points="16.5,-91.5 307.5,-91.5 "/>
<text text-anchor="middle" x="162" y="-80.3" font-family="Times,serif" font-size="14.00">X₅ ∈ CQC&#45;WFF(X₁) ⊆ QC&#45;WFF(X₁)</text>
<polyline fill="none" stroke="#7f7542" points="16.5,-76.5 307.5,-76.5 "/>
<text text-anchor="middle" x="162" y="-65.3" font-family="Times,serif" font-size="14.00">proj₂(sk₄(X₁,X₄,X₅)) ⊆ X₂</text>
<polyline fill="none" stroke="#7f7542" points="16.5,-61.5 307.5,-61.5 "/>
<text text-anchor="middle" x="162" y="-50.3" font-family="Times,serif" font-size="14.00">⇊</text>
<polyline fill="none" stroke="#7f7542" points="16.5,-46.5 307.5,-46.5 "/>
<text text-anchor="middle" x="162" y="-35.3" font-family="Times,serif" font-size="14.00">X₁ |&#45; X₂ |&#45; X₃</text>
</a>
</g>
</g>
<!-- c_0_39&#45;&gt;c_0_91 -->
<g id="edge6" class="edge">
<title>c_0_39&#45;&gt;c_0_91</title>
<path fill="none" stroke="black" stroke-dasharray="5,2" d="M557.89,-293C428.35,-293 162,-293 162,-293 162,-293 162,-221.52 162,-221.52"/>
<polygon fill="black" stroke="black" points="165.5,-221.52 162,-211.52 158.5,-221.52 165.5,-221.52"/>
</g>
</g>
</svg>
