<?xml version="1.0" encoding="UTF-8" standalone="no"?>
<!DOCTYPE svg PUBLIC "-//W3C//DTD SVG 1.1//EN"
 "http://www.w3.org/Graphics/SVG/1.1/DTD/svg11.dtd">
<!-- Generated by graphviz version 5.0.0 (0)
 -->
<!-- Title: proof Pages: 1 -->
<svg width="426pt" height="385pt"
 viewBox="0.00 0.00 426.00 385.00" xmlns="http://www.w3.org/2000/svg" xmlns:xlink="http://www.w3.org/1999/xlink">
<g id="graph0" class="graph" transform="scale(1 1) rotate(0) translate(4 381)">
<title>proof</title>
<g id="clust1" class="cluster">
<title>cluster_0</title>
<polygon fill="transparent" stroke="black" stroke-dasharray="1,5" points="8,-262 8,-369 410,-369 410,-262 8,-262"/>
</g>
<g id="clust2" class="cluster">
<title>cluster_1</title>
<polygon fill="transparent" stroke="black" stroke-width="2" points="80,-135 80,-242 344,-242 344,-135 80,-135"/>
</g>
<g id="clust3" class="cluster">
<title>cluster_2</title>
<polygon fill="transparent" stroke="black" stroke-dasharray="1,5" points="86,-8 86,-115 338,-115 338,-8 86,-8"/>
</g>
<!-- c_0_44 -->
<g id="node1" class="node">
<title>c_0_44</title>
<g id="a_node1"><a xlink:href="c_0_44.html" xlink:title="{X₁ ∈ fin&#45;seq(X₂)|⇊|&#45;valued(X₁,X₂)}" target="_vizar">
<polygon fill="#f8edd1" stroke="#7f7542" points="294,-293 294,-338 402,-338 402,-293 294,-293"/>
<text text-anchor="middle" x="348" y="-326.8" font-family="Times,serif" font-size="14.00">X₁ ∈ fin&#45;seq(X₂)</text>
<polyline fill="none" stroke="#7f7542" points="294,-323 402,-323 "/>
<text text-anchor="middle" x="348" y="-311.8" font-family="Times,serif" font-size="14.00">⇊</text>
<polyline fill="none" stroke="#7f7542" points="294,-308 402,-308 "/>
<text text-anchor="middle" x="348" y="-296.8" font-family="Times,serif" font-size="14.00">&#45;valued(X₁,X₂)</text>
</a>
</g>
</g>
<!-- c_0_68 -->
<g id="node3" class="node">
<title>c_0_68</title>
<g id="a_node3"><a xlink:href="c_0_68.html" xlink:title="{QC&#45;alphabet(X₁)|X₁ \|&#45; X₂ \|&#45; X₃|X₂ ∈ bool(CQC&#45;WFF(X₁))|X₃ ∈ CQC&#45;WFF(X₁) ⊆ QC&#45;WFF(X₁)|⇊|&#45;valued(sk₄(X₁,X₂,X₃),CQC&#45;WFF(X₁))}" target="_vizar">
<polygon fill="#f8edd1" stroke="#7f7542" points="88,-143.5 88,-233.5 336,-233.5 336,-143.5 88,-143.5"/>
<text text-anchor="middle" x="212" y="-222.3" font-family="Times,serif" font-size="14.00">QC&#45;alphabet(X₁)</text>
<polyline fill="none" stroke="#7f7542" points="88,-218.5 336,-218.5 "/>
<text text-anchor="middle" x="212" y="-207.3" font-family="Times,serif" font-size="14.00">X₁ |&#45; X₂ |&#45; X₃</text>
<polyline fill="none" stroke="#7f7542" points="88,-203.5 336,-203.5 "/>
<text text-anchor="middle" x="212" y="-192.3" font-family="Times,serif" font-size="14.00">X₂ ∈ bool(CQC&#45;WFF(X₁))</text>
<polyline fill="none" stroke="#7f7542" points="88,-188.5 336,-188.5 "/>
<text text-anchor="middle" x="212" y="-177.3" font-family="Times,serif" font-size="14.00">X₃ ∈ CQC&#45;WFF(X₁) ⊆ QC&#45;WFF(X₁)</text>
<polyline fill="none" stroke="#7f7542" points="88,-173.5 336,-173.5 "/>
<text text-anchor="middle" x="212" y="-162.3" font-family="Times,serif" font-size="14.00">⇊</text>
<polyline fill="none" stroke="#7f7542" points="88,-158.5 336,-158.5 "/>
<text text-anchor="middle" x="212" y="-147.3" font-family="Times,serif" font-size="14.00">&#45;valued(sk₄(X₁,X₂,X₃),CQC&#45;WFF(X₁))</text>
</a>
</g>
</g>
<!-- c_0_44&#45;&gt;c_0_68 -->
<g id="edge1" class="edge">
<title>c_0_44&#45;&gt;c_0_68</title>
<path fill="none" stroke="black" d="M315,-292.79C315,-292.79 315,-243.63 315,-243.63"/>
<polygon fill="black" stroke="black" points="318.5,-243.63 315,-233.63 311.5,-243.63 318.5,-243.63"/>
</g>
<!-- c_0_31 -->
<g id="node2" class="node">
<title>c_0_31</title>
<g id="a_node2"><a xlink:href="c_0_31.html" xlink:title="{QC&#45;alphabet(X₁)|X₁ \|&#45; X₂ \|&#45; X₃|X₂ ∈ bool(CQC&#45;WFF(X₁))|X₃ ∈ CQC&#45;WFF(X₁) ⊆ QC&#45;WFF(X₁)|⇊|sk₄(X₁,X₂,X₃) ∈ fin&#45;seq(CQC&#45;WFF(X₁))}" target="_vizar">
<polygon fill="#f8edd1" stroke="#7f7542" points="16.5,-270.5 16.5,-360.5 275.5,-360.5 275.5,-270.5 16.5,-270.5"/>
<text text-anchor="middle" x="146" y="-349.3" font-family="Times,serif" font-size="14.00">QC&#45;alphabet(X₁)</text>
<polyline fill="none" stroke="#7f7542" points="16.5,-345.5 275.5,-345.5 "/>
<text text-anchor="middle" x="146" y="-334.3" font-family="Times,serif" font-size="14.00">X₁ |&#45; X₂ |&#45; X₃</text>
<polyline fill="none" stroke="#7f7542" points="16.5,-330.5 275.5,-330.5 "/>
<text text-anchor="middle" x="146" y="-319.3" font-family="Times,serif" font-size="14.00">X₂ ∈ bool(CQC&#45;WFF(X₁))</text>
<polyline fill="none" stroke="#7f7542" points="16.5,-315.5 275.5,-315.5 "/>
<text text-anchor="middle" x="146" y="-304.3" font-family="Times,serif" font-size="14.00">X₃ ∈ CQC&#45;WFF(X₁) ⊆ QC&#45;WFF(X₁)</text>
<polyline fill="none" stroke="#7f7542" points="16.5,-300.5 275.5,-300.5 "/>
<text text-anchor="middle" x="146" y="-289.3" font-family="Times,serif" font-size="14.00">⇊</text>
<polyline fill="none" stroke="#7f7542" points="16.5,-285.5 275.5,-285.5 "/>
<text text-anchor="middle" x="146" y="-274.3" font-family="Times,serif" font-size="14.00">sk₄(X₁,X₂,X₃) ∈ fin&#45;seq(CQC&#45;WFF(X₁))</text>
</a>
</g>
</g>
<!-- c_0_31&#45;&gt;c_0_68 -->
<g id="edge2" class="edge">
<title>c_0_31&#45;&gt;c_0_68</title>
<path fill="none" stroke="black" d="M181.75,-270.37C181.75,-270.37 181.75,-243.92 181.75,-243.92"/>
<polygon fill="black" stroke="black" points="185.25,-243.92 181.75,-233.92 178.25,-243.92 185.25,-243.92"/>
</g>
<!-- c_0_76 -->
<g id="node4" class="node">
<title>c_0_76</title>
<g id="a_node4"><a xlink:href="c_0_76.html" xlink:title="{QC&#45;alphabet(X₁)|X₁ \|&#45; X₂ \|&#45; X₃|X₂ ∈ bool(CQC&#45;WFF(X₁))|X₃ ∈ CQC&#45;WFF(X₁) ⊆ QC&#45;WFF(X₁)|⇊|proj₂(sk₄(X₁,X₂,X₃)) ⊆ X₂}" target="_vizar">
<polygon fill="#f8edd1" stroke="#7f7542" points="94,-16.5 94,-106.5 330,-106.5 330,-16.5 94,-16.5"/>
<text text-anchor="middle" x="212" y="-95.3" font-family="Times,serif" font-size="14.00">QC&#45;alphabet(X₁)</text>
<polyline fill="none" stroke="#7f7542" points="94,-91.5 330,-91.5 "/>
<text text-anchor="middle" x="212" y="-80.3" font-family="Times,serif" font-size="14.00">X₁ |&#45; X₂ |&#45; X₃</text>
<polyline fill="none" stroke="#7f7542" points="94,-76.5 330,-76.5 "/>
<text text-anchor="middle" x="212" y="-65.3" font-family="Times,serif" font-size="14.00">X₂ ∈ bool(CQC&#45;WFF(X₁))</text>
<polyline fill="none" stroke="#7f7542" points="94,-61.5 330,-61.5 "/>
<text text-anchor="middle" x="212" y="-50.3" font-family="Times,serif" font-size="14.00">X₃ ∈ CQC&#45;WFF(X₁) ⊆ QC&#45;WFF(X₁)</text>
<polyline fill="none" stroke="#7f7542" points="94,-46.5 330,-46.5 "/>
<text text-anchor="middle" x="212" y="-35.3" font-family="Times,serif" font-size="14.00">⇊</text>
<polyline fill="none" stroke="#7f7542" points="94,-31.5 330,-31.5 "/>
<text text-anchor="middle" x="212" y="-20.3" font-family="Times,serif" font-size="14.00">proj₂(sk₄(X₁,X₂,X₃)) ⊆ X₂</text>
</a>
</g>
</g>
<!-- c_0_68&#45;&gt;c_0_76 -->
<g id="edge3" class="edge">
<title>c_0_68&#45;&gt;c_0_76</title>
<path fill="none" stroke="black" stroke-dasharray="5,2" d="M212,-143.37C212,-143.37 212,-116.92 212,-116.92"/>
<polygon fill="black" stroke="black" points="215.5,-116.92 212,-106.92 208.5,-116.92 215.5,-116.92"/>
</g>
</g>
</svg>
