<?xml version="1.0" encoding="UTF-8" standalone="no"?>
<!DOCTYPE svg PUBLIC "-//W3C//DTD SVG 1.1//EN"
 "http://www.w3.org/Graphics/SVG/1.1/DTD/svg11.dtd">
<!-- Generated by graphviz version 5.0.0 (0)
 -->
<!-- Title: proof Pages: 1 -->
<svg width="1147pt" height="1004pt"
 viewBox="0.00 0.00 1147.00 1004.00" xmlns="http://www.w3.org/2000/svg" xmlns:xlink="http://www.w3.org/1999/xlink">
<g id="graph0" class="graph" transform="scale(1 1) rotate(0) translate(4 1000)">
<title>proof</title>
<g id="clust1" class="cluster">
<title>cluster_0</title>
<polygon fill="#ffc233" stroke="#ffc233" points="19,-8 19,-988 693,-988 693,-8 19,-8"/>
</g>
<!-- t6_henmodel -->
<g id="node1" class="node">
<title>t6_henmodel</title>
<g id="a_node1"><a xlink:href="t6_henmodel.html" xlink:title="t6_henmodel" target="_vizar">
<polygon fill="#fa6900" stroke="#7f7542" points="194,-964.5 194,-979.5 286,-979.5 286,-964.5 194,-964.5"/>
<text text-anchor="middle" x="240" y="-968.3" font-family="Times,serif" font-size="14.00">t6_henmodel</text>
</a>
</g>
</g>
<!-- c_0_80 -->
<g id="node2" class="node">
<title>c_0_80</title>
<g id="a_node2"><a xlink:href="c_0_80.html" xlink:title="{QC&#45;alphabet(sk₁)}" target="_vizar">
<polygon fill="#fa6900" stroke="#7f7542" points="91.5,-890 91.5,-905 212.5,-905 212.5,-890 91.5,-890"/>
<text text-anchor="middle" x="152" y="-893.8" font-family="Times,serif" font-size="14.00">QC&#45;alphabet(sk₁)</text>
</a>
</g>
</g>
<!-- t6_henmodel&#45;&gt;c_0_80 -->
<g id="edge1" class="edge">
<title>t6_henmodel&#45;&gt;c_0_80</title>
<path fill="none" stroke="black" d="M203.25,-964.31C203.25,-964.31 203.25,-915.26 203.25,-915.26"/>
<polygon fill="black" stroke="black" points="206.75,-915.26 203.25,-905.26 199.75,-915.26 206.75,-915.26"/>
</g>
<!-- c_0_84 -->
<g id="node3" class="node">
<title>c_0_84</title>
<g id="a_node3"><a xlink:href="c_0_84.html" xlink:title="{Consistent(sk₂,sk₁)|X₁ ∈ CQC&#45;WFF(sk₁) ⊆ QC&#45;WFF(sk₁)|⇊|sk₁ \|&#45; sk₂ \|&#45; X₁}" target="_vizar">
<polygon fill="#fa6900" stroke="#7f7542" points="259,-867.5 259,-927.5 507,-927.5 507,-867.5 259,-867.5"/>
<text text-anchor="middle" x="383" y="-916.3" font-family="Times,serif" font-size="14.00">Consistent(sk₂,sk₁)</text>
<polyline fill="none" stroke="#7f7542" points="259,-912.5 507,-912.5 "/>
<text text-anchor="middle" x="383" y="-901.3" font-family="Times,serif" font-size="14.00">X₁ ∈ CQC&#45;WFF(sk₁) ⊆ QC&#45;WFF(sk₁)</text>
<polyline fill="none" stroke="#7f7542" points="259,-897.5 507,-897.5 "/>
<text text-anchor="middle" x="383" y="-886.3" font-family="Times,serif" font-size="14.00">⇊</text>
<polyline fill="none" stroke="#7f7542" points="259,-882.5 507,-882.5 "/>
<text text-anchor="middle" x="383" y="-871.3" font-family="Times,serif" font-size="14.00">sk₁ |&#45; sk₂ |&#45; X₁</text>
</a>
</g>
</g>
<!-- t6_henmodel&#45;&gt;c_0_84 -->
<g id="edge2" class="edge">
<title>t6_henmodel&#45;&gt;c_0_84</title>
<path fill="none" stroke="black" d="M272.5,-964.31C272.5,-964.31 272.5,-937.51 272.5,-937.51"/>
<polygon fill="black" stroke="black" points="276,-937.51 272.5,-927.51 269,-937.51 276,-937.51"/>
</g>
<!-- c_0_95 -->
<g id="node7" class="node">
<title>c_0_95</title>
<g id="a_node7"><a xlink:href="c_0_95.html" xlink:title="{sk₂ ∈ bool(CQC&#45;WFF(sk₁))}" target="_vizar">
<polygon fill="#fa6900" stroke="#7f7542" points="294.5,-539 294.5,-554 477.5,-554 477.5,-539 294.5,-539"/>
<text text-anchor="middle" x="386" y="-542.8" font-family="Times,serif" font-size="14.00">sk₂ ∈ bool(CQC&#45;WFF(sk₁))</text>
</a>
</g>
</g>
<!-- t6_henmodel&#45;&gt;c_0_95 -->
<g id="edge8" class="edge">
<title>t6_henmodel&#45;&gt;c_0_95</title>
<path fill="none" stroke="black" d="M249.5,-964.31C249.5,-937.38 249.5,-849 249.5,-849 249.5,-849 417.88,-849 417.88,-849 417.88,-849 417.88,-564.28 417.88,-564.28"/>
<polygon fill="black" stroke="black" points="421.38,-564.28 417.88,-554.28 414.38,-564.28 421.38,-564.28"/>
</g>
<!-- c_0_103 -->
<g id="node10" class="node">
<title>c_0_103</title>
<g id="a_node10"><a xlink:href="c_0_103.html" xlink:title="{Consistent(sk₂,sk₁)|sk₃ ∈ CQC&#45;WFF(sk₁) ⊆ QC&#45;WFF(sk₁)}" target="_vizar">
<polygon fill="#fa6900" stroke="#7f7542" points="431,-778 431,-808 685,-808 685,-778 431,-778"/>
<text text-anchor="middle" x="558" y="-796.8" font-family="Times,serif" font-size="14.00">Consistent(sk₂,sk₁)</text>
<polyline fill="none" stroke="#7f7542" points="431,-793 685,-793 "/>
<text text-anchor="middle" x="558" y="-781.8" font-family="Times,serif" font-size="14.00">sk₃ ∈ CQC&#45;WFF(sk₁) ⊆ QC&#45;WFF(sk₁)</text>
</a>
</g>
</g>
<!-- t6_henmodel&#45;&gt;c_0_103 -->
<g id="edge15" class="edge">
<title>t6_henmodel&#45;&gt;c_0_103</title>
<path fill="none" stroke="black" d="M240,-964.34C240,-931.48 240,-804 240,-804 240,-804 420.95,-804 420.95,-804"/>
<polygon fill="black" stroke="black" points="420.95,-807.5 430.95,-804 420.95,-800.5 420.95,-807.5"/>
</g>
<!-- c_0_112 -->
<g id="node14" class="node">
<title>c_0_112</title>
<g id="a_node14"><a xlink:href="c_0_112.html" xlink:title="{sk₁ \|&#45; sk₂ \|&#45; sk₃|⇊|Consistent(sk₂,sk₁)}" target="_vizar">
<polygon fill="#fa6900" stroke="#7f7542" points="27,-389.5 27,-434.5 161,-434.5 161,-389.5 27,-389.5"/>
<text text-anchor="middle" x="94" y="-423.3" font-family="Times,serif" font-size="14.00">sk₁ |&#45; sk₂ |&#45; sk₃</text>
<polyline fill="none" stroke="#7f7542" points="27,-419.5 161,-419.5 "/>
<text text-anchor="middle" x="94" y="-408.3" font-family="Times,serif" font-size="14.00">⇊</text>
<polyline fill="none" stroke="#7f7542" points="27,-404.5 161,-404.5 "/>
<text text-anchor="middle" x="94" y="-393.3" font-family="Times,serif" font-size="14.00">Consistent(sk₂,sk₁)</text>
</a>
</g>
</g>
<!-- t6_henmodel&#45;&gt;c_0_112 -->
<g id="edge22" class="edge">
<title>t6_henmodel&#45;&gt;c_0_112</title>
<path fill="none" stroke="black" d="M193.94,-972C134.04,-972 37,-972 37,-972 37,-972 37,-444.65 37,-444.65"/>
<polygon fill="black" stroke="black" points="40.5,-444.65 37,-434.65 33.5,-444.65 40.5,-444.65"/>
</g>
<!-- c_0_85 -->
<g id="node4" class="node">
<title>c_0_85</title>
<g id="a_node4"><a xlink:href="c_0_85.html" xlink:title="{CQC&#45;WFF(sk₁) ≠ Ø}" target="_vizar">
<polygon fill="#fa6900" stroke="#7f7542" points="279,-785.5 279,-800.5 413,-800.5 413,-785.5 279,-785.5"/>
<text text-anchor="middle" x="346" y="-789.3" font-family="Times,serif" font-size="14.00">CQC&#45;WFF(sk₁) ≠ Ø</text>
</a>
</g>
</g>
<!-- c_0_80&#45;&gt;c_0_85 -->
<g id="edge3" class="edge">
<title>c_0_80&#45;&gt;c_0_85</title>
<path fill="none" stroke="black" d="M212.69,-897C223.02,-897 230.5,-897 230.5,-897 230.5,-897 230.5,-793 230.5,-793 230.5,-793 268.81,-793 268.81,-793"/>
<polygon fill="black" stroke="black" points="268.81,-796.5 278.81,-793 268.81,-789.5 268.81,-796.5"/>
</g>
<!-- c_0_94 -->
<g id="node6" class="node">
<title>c_0_94</title>
<g id="a_node6"><a xlink:href="c_0_94.html" xlink:title="{Consistent(sk₂,sk₁)|X₁ ∈ CQC&#45;WFF(sk₁)|⇊|sk₁ \|&#45; sk₂ \|&#45; sk₁ &#39;not&#39; X₁}" target="_vizar">
<polygon fill="#fa6900" stroke="#7f7542" points="67,-763 67,-823 221,-823 221,-763 67,-763"/>
<text text-anchor="middle" x="144" y="-811.8" font-family="Times,serif" font-size="14.00">Consistent(sk₂,sk₁)</text>
<polyline fill="none" stroke="#7f7542" points="67,-808 221,-808 "/>
<text text-anchor="middle" x="144" y="-796.8" font-family="Times,serif" font-size="14.00">X₁ ∈ CQC&#45;WFF(sk₁)</text>
<polyline fill="none" stroke="#7f7542" points="67,-793 221,-793 "/>
<text text-anchor="middle" x="144" y="-781.8" font-family="Times,serif" font-size="14.00">⇊</text>
<polyline fill="none" stroke="#7f7542" points="67,-778 221,-778 "/>
<text text-anchor="middle" x="144" y="-766.8" font-family="Times,serif" font-size="14.00">sk₁ |&#45; sk₂ |&#45; sk₁ &#39;not&#39; X₁</text>
</a>
</g>
</g>
<!-- c_0_80&#45;&gt;c_0_94 -->
<g id="edge7" class="edge">
<title>c_0_80&#45;&gt;c_0_94</title>
<path fill="none" stroke="black" d="M131.83,-889.98C131.83,-889.98 131.83,-833.29 131.83,-833.29"/>
<polygon fill="black" stroke="black" points="135.33,-833.29 131.83,-823.29 128.33,-833.29 135.33,-833.29"/>
</g>
<!-- c_0_96 -->
<g id="node8" class="node">
<title>c_0_96</title>
<g id="a_node8"><a xlink:href="c_0_96.html" xlink:title="{Consistent(sk₂,sk₁)|X₁ ∈ CQC&#45;WFF(sk₁)|⇊|sk₁ \|&#45; sk₂ \|&#45; X₁}" target="_vizar">
<polygon fill="#fa6900" stroke="#7f7542" points="140,-516.5 140,-576.5 276,-576.5 276,-516.5 140,-516.5"/>
<text text-anchor="middle" x="208" y="-565.3" font-family="Times,serif" font-size="14.00">Consistent(sk₂,sk₁)</text>
<polyline fill="none" stroke="#7f7542" points="140,-561.5 276,-561.5 "/>
<text text-anchor="middle" x="208" y="-550.3" font-family="Times,serif" font-size="14.00">X₁ ∈ CQC&#45;WFF(sk₁)</text>
<polyline fill="none" stroke="#7f7542" points="140,-546.5 276,-546.5 "/>
<text text-anchor="middle" x="208" y="-535.3" font-family="Times,serif" font-size="14.00">⇊</text>
<polyline fill="none" stroke="#7f7542" points="140,-531.5 276,-531.5 "/>
<text text-anchor="middle" x="208" y="-520.3" font-family="Times,serif" font-size="14.00">sk₁ |&#45; sk₂ |&#45; X₁</text>
</a>
</g>
</g>
<!-- c_0_80&#45;&gt;c_0_96 -->
<g id="edge10" class="edge">
<title>c_0_80&#45;&gt;c_0_96</title>
<path fill="none" stroke="black" d="M91.3,-892C72.68,-892 57,-892 57,-892 57,-892 57,-546 57,-546 57,-546 129.57,-546 129.57,-546"/>
<polygon fill="black" stroke="black" points="129.57,-549.5 139.57,-546 129.57,-542.5 129.57,-549.5"/>
</g>
<!-- c_0_100 -->
<g id="node9" class="node">
<title>c_0_100</title>
<g id="a_node9"><a xlink:href="c_0_100.html" xlink:title="{Consistent(sk₂,sk₁)|X₁ ∈ CQC&#45;WFF(sk₁)|X₁ ∈ CQC&#45;WFF(sk₁) ⊆ QC&#45;WFF(sk₁)|⇊|⊥}" target="_vizar">
<polygon fill="#fa6900" stroke="#7f7542" points="199,-374.5 199,-449.5 447,-449.5 447,-374.5 199,-374.5"/>
<text text-anchor="middle" x="323" y="-438.3" font-family="Times,serif" font-size="14.00">Consistent(sk₂,sk₁)</text>
<polyline fill="none" stroke="#7f7542" points="199,-434.5 447,-434.5 "/>
<text text-anchor="middle" x="323" y="-423.3" font-family="Times,serif" font-size="14.00">X₁ ∈ CQC&#45;WFF(sk₁)</text>
<polyline fill="none" stroke="#7f7542" points="199,-419.5 447,-419.5 "/>
<text text-anchor="middle" x="323" y="-408.3" font-family="Times,serif" font-size="14.00">X₁ ∈ CQC&#45;WFF(sk₁) ⊆ QC&#45;WFF(sk₁)</text>
<polyline fill="none" stroke="#7f7542" points="199,-404.5 447,-404.5 "/>
<text text-anchor="middle" x="323" y="-393.3" font-family="Times,serif" font-size="14.00">⇊</text>
<polyline fill="none" stroke="#7f7542" points="199,-389.5 447,-389.5 "/>
<text text-anchor="middle" x="323" y="-378.3" font-family="Times,serif" font-size="14.00">⊥</text>
</a>
</g>
</g>
<!-- c_0_80&#45;&gt;c_0_100 -->
<g id="edge14" class="edge">
<title>c_0_80&#45;&gt;c_0_100</title>
<path fill="none" stroke="black" d="M91.23,-894C68,-894 47,-894 47,-894 47,-894 47,-440 47,-440 47,-440 188.73,-440 188.73,-440"/>
<polygon fill="black" stroke="black" points="188.73,-443.5 198.73,-440 188.73,-436.5 188.73,-443.5"/>
</g>
<!-- c_0_104 -->
<g id="node11" class="node">
<title>c_0_104</title>
<g id="a_node11"><a xlink:href="c_0_104.html" xlink:title="{Consistent(sk₂,sk₁)|VERUM(sk₁) ∈ CQC&#45;WFF(sk₁)|⇊|⊥}" target="_vizar">
<polygon fill="#fa6900" stroke="#7f7542" points="167,-277.5 167,-337.5 377,-337.5 377,-277.5 167,-277.5"/>
<text text-anchor="middle" x="272" y="-326.3" font-family="Times,serif" font-size="14.00">Consistent(sk₂,sk₁)</text>
<polyline fill="none" stroke="#7f7542" points="167,-322.5 377,-322.5 "/>
<text text-anchor="middle" x="272" y="-311.3" font-family="Times,serif" font-size="14.00">VERUM(sk₁) ∈ CQC&#45;WFF(sk₁)</text>
<polyline fill="none" stroke="#7f7542" points="167,-307.5 377,-307.5 "/>
<text text-anchor="middle" x="272" y="-296.3" font-family="Times,serif" font-size="14.00">⇊</text>
<polyline fill="none" stroke="#7f7542" points="167,-292.5 377,-292.5 "/>
<text text-anchor="middle" x="272" y="-281.3" font-family="Times,serif" font-size="14.00">⊥</text>
</a>
</g>
</g>
<!-- c_0_80&#45;&gt;c_0_104 -->
<g id="edge16" class="edge">
<title>c_0_80&#45;&gt;c_0_104</title>
<path fill="none" stroke="black" d="M91.27,-897C55.82,-897 18,-897 18,-897 18,-897 18,-307 18,-307 18,-307 156.85,-307 156.85,-307"/>
<polygon fill="black" stroke="black" points="156.86,-310.5 166.85,-307 156.85,-303.5 156.86,-310.5"/>
</g>
<!-- c_0_111 -->
<g id="node13" class="node">
<title>c_0_111</title>
<g id="a_node13"><a xlink:href="c_0_111.html" xlink:title="{¬ (Consistent(sk₂,sk₁))}" target="_vizar">
<polygon fill="#fa6900" stroke="#7f7542" points="67.5,-188 67.5,-203 228.5,-203 228.5,-188 67.5,-188"/>
<text text-anchor="middle" x="148" y="-191.8" font-family="Times,serif" font-size="14.00">¬ (Consistent(sk₂,sk₁))</text>
</a>
</g>
</g>
<!-- c_0_80&#45;&gt;c_0_111 -->
<g id="edge21" class="edge">
<title>c_0_80&#45;&gt;c_0_111</title>
<path fill="none" stroke="black" d="M91.36,-900C52.38,-900 9,-900 9,-900 9,-900 9,-195 9,-195 9,-195 57.14,-195 57.14,-195"/>
<polygon fill="black" stroke="black" points="57.14,-198.5 67.14,-195 57.14,-191.5 57.14,-198.5"/>
</g>
<!-- c_0_114 -->
<g id="node15" class="node">
<title>c_0_114</title>
<g id="a_node15"><a xlink:href="c_0_114.html" xlink:title="{Consistent(sk₂,sk₁)|sk₃ ∈ CQC&#45;WFF(sk₁)}" target="_vizar">
<polygon fill="#fa6900" stroke="#7f7542" points="496,-531.5 496,-561.5 638,-561.5 638,-531.5 496,-531.5"/>
<text text-anchor="middle" x="567" y="-550.3" font-family="Times,serif" font-size="14.00">Consistent(sk₂,sk₁)</text>
<polyline fill="none" stroke="#7f7542" points="496,-546.5 638,-546.5 "/>
<text text-anchor="middle" x="567" y="-535.3" font-family="Times,serif" font-size="14.00">sk₃ ∈ CQC&#45;WFF(sk₁)</text>
</a>
</g>
</g>
<!-- c_0_80&#45;&gt;c_0_114 -->
<g id="edge23" class="edge">
<title>c_0_80&#45;&gt;c_0_114</title>
<path fill="none" stroke="black" d="M172.17,-889.98C172.17,-874.4 172.17,-840 172.17,-840 172.17,-840 422.25,-840 422.25,-840 422.25,-840 422.25,-558 422.25,-558 422.25,-558 485.9,-558 485.9,-558"/>
<polygon fill="black" stroke="black" points="485.9,-561.5 495.9,-558 485.9,-554.5 485.9,-561.5"/>
</g>
<!-- c_0_116 -->
<g id="node17" class="node">
<title>c_0_116</title>
<g id="a_node17"><a xlink:href="c_0_116.html" xlink:title="{X₁ ∈ CQC&#45;WFF(sk₁)|⇊|sk₁ \|&#45; sk₂ \|&#45; X₁}" target="_vizar">
<polygon fill="#fa6900" stroke="#7f7542" points="201,-68.5 201,-113.5 337,-113.5 337,-68.5 201,-68.5"/>
<text text-anchor="middle" x="269" y="-102.3" font-family="Times,serif" font-size="14.00">X₁ ∈ CQC&#45;WFF(sk₁)</text>
<polyline fill="none" stroke="#7f7542" points="201,-98.5 337,-98.5 "/>
<text text-anchor="middle" x="269" y="-87.3" font-family="Times,serif" font-size="14.00">⇊</text>
<polyline fill="none" stroke="#7f7542" points="201,-83.5 337,-83.5 "/>
<text text-anchor="middle" x="269" y="-72.3" font-family="Times,serif" font-size="14.00">sk₁ |&#45; sk₂ |&#45; X₁</text>
</a>
</g>
</g>
<!-- c_0_80&#45;&gt;c_0_116 -->
<g id="edge29" class="edge">
<title>c_0_80&#45;&gt;c_0_116</title>
<path fill="none" stroke="black" d="M91.49,-902C49.1,-902 0,-902 0,-902 0,-902 0,-106 0,-106 0,-106 190.77,-106 190.77,-106"/>
<polygon fill="black" stroke="black" points="190.77,-109.5 200.77,-106 190.77,-102.5 190.77,-109.5"/>
</g>
<!-- c_0_90 -->
<g id="node5" class="node">
<title>c_0_90</title>
<g id="a_node5"><a xlink:href="c_0_90.html" xlink:title="{CQC&#45;WFF(sk₁) ∈ bool(QC&#45;WFF(sk₁))|Consistent(sk₂,sk₁)|X₁ ∈ CQC&#45;WFF(sk₁)|⇊|sk₁ \|&#45; sk₂ \|&#45; X₁}" target="_vizar">
<polygon fill="#fa6900" stroke="#7f7542" points="160.5,-643.5 160.5,-718.5 413.5,-718.5 413.5,-643.5 160.5,-643.5"/>
<text text-anchor="middle" x="287" y="-707.3" font-family="Times,serif" font-size="14.00">CQC&#45;WFF(sk₁) ∈ bool(QC&#45;WFF(sk₁))</text>
<polyline fill="none" stroke="#7f7542" points="160.5,-703.5 413.5,-703.5 "/>
<text text-anchor="middle" x="287" y="-692.3" font-family="Times,serif" font-size="14.00">Consistent(sk₂,sk₁)</text>
<polyline fill="none" stroke="#7f7542" points="160.5,-688.5 413.5,-688.5 "/>
<text text-anchor="middle" x="287" y="-677.3" font-family="Times,serif" font-size="14.00">X₁ ∈ CQC&#45;WFF(sk₁)</text>
<polyline fill="none" stroke="#7f7542" points="160.5,-673.5 413.5,-673.5 "/>
<text text-anchor="middle" x="287" y="-662.3" font-family="Times,serif" font-size="14.00">⇊</text>
<polyline fill="none" stroke="#7f7542" points="160.5,-658.5 413.5,-658.5 "/>
<text text-anchor="middle" x="287" y="-647.3" font-family="Times,serif" font-size="14.00">sk₁ |&#45; sk₂ |&#45; X₁</text>
</a>
</g>
</g>
<!-- c_0_84&#45;&gt;c_0_90 -->
<g id="edge4" class="edge">
<title>c_0_84&#45;&gt;c_0_90</title>
<path fill="none" stroke="black" d="M269,-867.4C269,-867.4 269,-728.85 269,-728.85"/>
<polygon fill="black" stroke="black" points="272.5,-728.85 269,-718.85 265.5,-728.85 272.5,-728.85"/>
</g>
<!-- c_0_84&#45;&gt;c_0_94 -->
<g id="edge6" class="edge">
<title>c_0_84&#45;&gt;c_0_94</title>
<path fill="none" stroke="black" d="M258.7,-878C234.65,-878 216.75,-878 216.75,-878 216.75,-878 216.75,-833.21 216.75,-833.21"/>
<polygon fill="black" stroke="black" points="220.25,-833.21 216.75,-823.21 213.25,-833.21 220.25,-833.21"/>
</g>
<!-- c_0_85&#45;&gt;c_0_90 -->
<g id="edge5" class="edge">
<title>c_0_85&#45;&gt;c_0_90</title>
<path fill="none" stroke="black" d="M346,-785.3C346,-785.3 346,-728.62 346,-728.62"/>
<polygon fill="black" stroke="black" points="349.5,-728.62 346,-718.62 342.5,-728.62 349.5,-728.62"/>
</g>
<!-- c_0_110 -->
<g id="node12" class="node">
<title>c_0_110</title>
<g id="a_node12"><a xlink:href="c_0_110.html" xlink:title="{CQC&#45;WFF(sk₁) ∈ bool(QC&#45;WFF(sk₁))|⇊|Consistent(sk₂,sk₁)|sk₃ ∈ CQC&#45;WFF(sk₁)}" target="_vizar">
<polygon fill="#fa6900" stroke="#7f7542" points="431.5,-651 431.5,-711 684.5,-711 684.5,-651 431.5,-651"/>
<text text-anchor="middle" x="558" y="-699.8" font-family="Times,serif" font-size="14.00">CQC&#45;WFF(sk₁) ∈ bool(QC&#45;WFF(sk₁))</text>
<polyline fill="none" stroke="#7f7542" points="431.5,-696 684.5,-696 "/>
<text text-anchor="middle" x="558" y="-684.8" font-family="Times,serif" font-size="14.00">⇊</text>
<polyline fill="none" stroke="#7f7542" points="431.5,-681 684.5,-681 "/>
<text text-anchor="middle" x="558" y="-669.8" font-family="Times,serif" font-size="14.00">Consistent(sk₂,sk₁)</text>
<polyline fill="none" stroke="#7f7542" points="431.5,-666 684.5,-666 "/>
<text text-anchor="middle" x="558" y="-654.8" font-family="Times,serif" font-size="14.00">sk₃ ∈ CQC&#45;WFF(sk₁)</text>
</a>
</g>
</g>
<!-- c_0_85&#45;&gt;c_0_110 -->
<g id="edge19" class="edge">
<title>c_0_85&#45;&gt;c_0_110</title>
<path fill="none" stroke="black" d="M413.31,-793C421.27,-793 426.62,-793 426.62,-793 426.62,-793 426.62,-681 426.62,-681 426.62,-681 427.09,-681 427.09,-681"/>
<polygon fill="black" stroke="black" points="421.3,-684.5 431.3,-681 421.3,-677.5 421.3,-684.5"/>
</g>
<!-- c_0_90&#45;&gt;c_0_96 -->
<g id="edge9" class="edge">
<title>c_0_90&#45;&gt;c_0_96</title>
<path fill="none" stroke="black" d="M218.25,-643.18C218.25,-643.18 218.25,-586.82 218.25,-586.82"/>
<polygon fill="black" stroke="black" points="221.75,-586.82 218.25,-576.82 214.75,-586.82 221.75,-586.82"/>
</g>
<!-- c_0_94&#45;&gt;c_0_100 -->
<g id="edge12" class="edge">
<title>c_0_94&#45;&gt;c_0_100</title>
<path fill="none" stroke="black" d="M103.5,-762.73C103.5,-678.06 103.5,-445 103.5,-445 103.5,-445 188.82,-445 188.82,-445"/>
<polygon fill="black" stroke="black" points="188.82,-448.5 198.82,-445 188.82,-441.5 188.82,-448.5"/>
</g>
<!-- c_0_95&#45;&gt;c_0_100 -->
<g id="edge11" class="edge">
<title>c_0_95&#45;&gt;c_0_100</title>
<path fill="none" stroke="black" d="M345.33,-538.88C345.33,-538.88 345.33,-459.75 345.33,-459.75"/>
<polygon fill="black" stroke="black" points="348.83,-459.75 345.33,-449.75 341.83,-459.75 348.83,-459.75"/>
</g>
<!-- c_0_95&#45;&gt;c_0_116 -->
<g id="edge27" class="edge">
<title>c_0_95&#45;&gt;c_0_116</title>
<path fill="none" stroke="black" d="M462.25,-538.85C462.25,-480.36 462.25,-106 462.25,-106 462.25,-106 347.13,-106 347.13,-106"/>
<polygon fill="black" stroke="black" points="347.13,-102.5 337.13,-106 347.13,-109.5 347.13,-102.5"/>
</g>
<!-- c_0_96&#45;&gt;c_0_100 -->
<g id="edge13" class="edge">
<title>c_0_96&#45;&gt;c_0_100</title>
<path fill="none" stroke="black" d="M237.5,-516.32C237.5,-516.32 237.5,-459.78 237.5,-459.78"/>
<polygon fill="black" stroke="black" points="241,-459.78 237.5,-449.78 234,-459.78 241,-459.78"/>
</g>
<!-- c_0_100&#45;&gt;c_0_104 -->
<g id="edge17" class="edge">
<title>c_0_100&#45;&gt;c_0_104</title>
<path fill="none" stroke="black" d="M288,-374.27C288,-374.27 288,-347.64 288,-347.64"/>
<polygon fill="black" stroke="black" points="291.5,-347.64 288,-337.64 284.5,-347.64 291.5,-347.64"/>
</g>
<!-- c_0_103&#45;&gt;c_0_110 -->
<g id="edge18" class="edge">
<title>c_0_103&#45;&gt;c_0_110</title>
<path fill="none" stroke="black" d="M558,-777.9C558,-777.9 558,-721.44 558,-721.44"/>
<polygon fill="black" stroke="black" points="561.5,-721.44 558,-711.44 554.5,-721.44 561.5,-721.44"/>
</g>
<!-- c_0_104&#45;&gt;c_0_111 -->
<g id="edge20" class="edge">
<title>c_0_104&#45;&gt;c_0_111</title>
<path fill="none" stroke="black" d="M197.75,-277.49C197.75,-277.49 197.75,-213.17 197.75,-213.17"/>
<polygon fill="black" stroke="black" points="201.25,-213.17 197.75,-203.17 194.25,-213.17 201.25,-213.17"/>
</g>
<!-- c_0_110&#45;&gt;c_0_114 -->
<g id="edge24" class="edge">
<title>c_0_110&#45;&gt;c_0_114</title>
<path fill="none" stroke="black" d="M567,-650.82C567,-650.82 567,-571.61 567,-571.61"/>
<polygon fill="black" stroke="black" points="570.5,-571.61 567,-561.61 563.5,-571.61 570.5,-571.61"/>
</g>
<!-- c_0_115 -->
<g id="node16" class="node">
<title>c_0_115</title>
<g id="a_node16"><a xlink:href="c_0_115.html" xlink:title="{¬ (sk₁ \|&#45; sk₂ \|&#45; sk₃)}" target="_vizar">
<polygon fill="#fa6900" stroke="#7f7542" points="55.5,-83.5 55.5,-98.5 182.5,-98.5 182.5,-83.5 55.5,-83.5"/>
<text text-anchor="middle" x="119" y="-87.3" font-family="Times,serif" font-size="14.00">¬ (sk₁ |&#45; sk₂ |&#45; sk₃)</text>
</a>
</g>
</g>
<!-- c_0_111&#45;&gt;c_0_115 -->
<g id="edge25" class="edge">
<title>c_0_111&#45;&gt;c_0_115</title>
<path fill="none" stroke="black" d="M125,-187.98C125,-187.98 125,-108.73 125,-108.73"/>
<polygon fill="black" stroke="black" points="128.5,-108.73 125,-98.73 121.5,-108.73 128.5,-108.73"/>
</g>
<!-- c_0_111&#45;&gt;c_0_116 -->
<g id="edge28" class="edge">
<title>c_0_111&#45;&gt;c_0_116</title>
<path fill="none" stroke="black" d="M214.75,-187.98C214.75,-187.98 214.75,-123.63 214.75,-123.63"/>
<polygon fill="black" stroke="black" points="218.25,-123.63 214.75,-113.63 211.25,-123.63 218.25,-123.63"/>
</g>
<!-- c_0_117 -->
<g id="node18" class="node">
<title>c_0_117</title>
<g id="a_node18"><a xlink:href="c_0_117.html" xlink:title="{sk₃ ∈ CQC&#45;WFF(sk₁)}" target="_vizar">
<polygon fill="#fa6900" stroke="#7f7542" points="355,-83.5 355,-98.5 497,-98.5 497,-83.5 355,-83.5"/>
<text text-anchor="middle" x="426" y="-87.3" font-family="Times,serif" font-size="14.00">sk₃ ∈ CQC&#45;WFF(sk₁)</text>
</a>
</g>
</g>
<!-- c_0_111&#45;&gt;c_0_117 -->
<g id="edge31" class="edge">
<title>c_0_111&#45;&gt;c_0_117</title>
<path fill="none" stroke="black" d="M228.56,-192C290.66,-192 366,-192 366,-192 366,-192 366,-108.59 366,-108.59"/>
<polygon fill="black" stroke="black" points="369.5,-108.59 366,-98.59 362.5,-108.59 369.5,-108.59"/>
</g>
<!-- c_0_112&#45;&gt;c_0_115 -->
<g id="edge26" class="edge">
<title>c_0_112&#45;&gt;c_0_115</title>
<path fill="none" stroke="black" d="M61.5,-389.43C61.5,-389.43 61.5,-108.59 61.5,-108.59"/>
<polygon fill="black" stroke="black" points="65,-108.59 61.5,-98.59 58,-108.59 65,-108.59"/>
</g>
<!-- c_0_114&#45;&gt;c_0_117 -->
<g id="edge30" class="edge">
<title>c_0_114&#45;&gt;c_0_117</title>
<path fill="none" stroke="black" d="M495.96,-534C490.32,-534 486.75,-534 486.75,-534 486.75,-534 486.75,-108.69 486.75,-108.69"/>
<polygon fill="black" stroke="black" points="490.25,-108.69 486.75,-98.69 483.25,-108.69 490.25,-108.69"/>
</g>
<!-- c_0_118 -->
<g id="node19" class="node">
<title>c_0_118</title>
<g id="a_node19"><a xlink:href="c_0_118.html" xlink:title="⊥" target="_vizar">
<polygon fill="#fa6900" stroke="#7f7542" points="262,-16.5 262,-31.5 276,-31.5 276,-16.5 262,-16.5"/>
<text text-anchor="middle" x="269" y="-20.3" font-family="Times,serif" font-size="14.00">⊥</text>
</a>
</g>
</g>
<!-- c_0_115&#45;&gt;c_0_118 -->
<g id="edge33" class="edge">
<title>c_0_115&#45;&gt;c_0_118</title>
<path fill="none" stroke="black" d="M119,-83.31C119,-65.72 119,-24 119,-24 119,-24 251.77,-24 251.77,-24"/>
<polygon fill="black" stroke="black" points="251.77,-27.5 261.77,-24 251.77,-20.5 251.77,-27.5"/>
</g>
<!-- c_0_116&#45;&gt;c_0_118 -->
<g id="edge34" class="edge">
<title>c_0_116&#45;&gt;c_0_118</title>
<path fill="none" stroke="black" d="M269,-68.32C269,-68.32 269,-41.59 269,-41.59"/>
<polygon fill="black" stroke="black" points="272.5,-41.59 269,-31.59 265.5,-41.59 272.5,-41.59"/>
</g>
<!-- c_0_117&#45;&gt;c_0_118 -->
<g id="edge32" class="edge">
<title>c_0_117&#45;&gt;c_0_118</title>
<path fill="none" stroke="black" d="M426,-83.31C426,-65.72 426,-24 426,-24 426,-24 286.15,-24 286.15,-24"/>
<polygon fill="black" stroke="black" points="286.15,-20.5 276.15,-24 286.15,-27.5 286.15,-20.5"/>
</g>
<!-- c_0_79 -->
<g id="node20" class="node">
<title>c_0_79</title>
<g id="a_node20"><a xlink:href="c_0_79.html" xlink:title="{CQC&#45;WFF(X₁) = Ø|QC&#45;alphabet(X₁)|⇊|⊥}" target="_vizar">
<polygon fill="#f8edd1" stroke="#7f7542" points="1011,-867.5 1011,-927.5 1139,-927.5 1139,-867.5 1011,-867.5"/>
<text text-anchor="middle" x="1075" y="-916.3" font-family="Times,serif" font-size="14.00">CQC&#45;WFF(X₁) = Ø</text>
<polyline fill="none" stroke="#7f7542" points="1011,-912.5 1139,-912.5 "/>
<text text-anchor="middle" x="1075" y="-901.3" font-family="Times,serif" font-size="14.00">QC&#45;alphabet(X₁)</text>
<polyline fill="none" stroke="#7f7542" points="1011,-897.5 1139,-897.5 "/>
<text text-anchor="middle" x="1075" y="-886.3" font-family="Times,serif" font-size="14.00">⇊</text>
<polyline fill="none" stroke="#7f7542" points="1011,-882.5 1139,-882.5 "/>
<text text-anchor="middle" x="1075" y="-871.3" font-family="Times,serif" font-size="14.00">⊥</text>
</a>
</g>
</g>
<!-- c_0_79&#45;&gt;c_0_85 -->
<g id="edge35" class="edge">
<title>c_0_79&#45;&gt;c_0_85</title>
<path fill="none" stroke="black" stroke-dasharray="5,2" d="M1075,-867.16C1075,-861.86 1075,-858 1075,-858 1075,-858 346,-858 346,-858 346,-858 346,-810.71 346,-810.71"/>
<polygon fill="black" stroke="black" points="349.5,-810.71 346,-800.71 342.5,-810.71 349.5,-810.71"/>
</g>
<!-- c_0_93 -->
<g id="node21" class="node">
<title>c_0_93</title>
<g id="a_node21"><a xlink:href="c_0_93.html" xlink:title="{Consistent(X₁,X₂)|QC&#45;alphabet(X₂)|X₁ ∈ bool(CQC&#45;WFF(X₂))|X₂ \|&#45; X₁ \|&#45; X₂ &#39;not&#39; X₃|X₂ \|&#45; X₁ \|&#45; X₃|X₃ ∈ CQC&#45;WFF(X₂) ⊆ QC&#45;WFF(X₂)|⇊|⊥}" target="_vizar">
<polygon fill="#f8edd1" stroke="#7f7542" points="701,-486.5 701,-606.5 937,-606.5 937,-486.5 701,-486.5"/>
<text text-anchor="middle" x="819" y="-595.3" font-family="Times,serif" font-size="14.00">Consistent(X₁,X₂)</text>
<polyline fill="none" stroke="#7f7542" points="701,-591.5 937,-591.5 "/>
<text text-anchor="middle" x="819" y="-580.3" font-family="Times,serif" font-size="14.00">QC&#45;alphabet(X₂)</text>
<polyline fill="none" stroke="#7f7542" points="701,-576.5 937,-576.5 "/>
<text text-anchor="middle" x="819" y="-565.3" font-family="Times,serif" font-size="14.00">X₁ ∈ bool(CQC&#45;WFF(X₂))</text>
<polyline fill="none" stroke="#7f7542" points="701,-561.5 937,-561.5 "/>
<text text-anchor="middle" x="819" y="-550.3" font-family="Times,serif" font-size="14.00">X₂ |&#45; X₁ |&#45; X₂ &#39;not&#39; X₃</text>
<polyline fill="none" stroke="#7f7542" points="701,-546.5 937,-546.5 "/>
<text text-anchor="middle" x="819" y="-535.3" font-family="Times,serif" font-size="14.00">X₂ |&#45; X₁ |&#45; X₃</text>
<polyline fill="none" stroke="#7f7542" points="701,-531.5 937,-531.5 "/>
<text text-anchor="middle" x="819" y="-520.3" font-family="Times,serif" font-size="14.00">X₃ ∈ CQC&#45;WFF(X₂) ⊆ QC&#45;WFF(X₂)</text>
<polyline fill="none" stroke="#7f7542" points="701,-516.5 937,-516.5 "/>
<text text-anchor="middle" x="819" y="-505.3" font-family="Times,serif" font-size="14.00">⇊</text>
<polyline fill="none" stroke="#7f7542" points="701,-501.5 937,-501.5 "/>
<text text-anchor="middle" x="819" y="-490.3" font-family="Times,serif" font-size="14.00">⊥</text>
</a>
</g>
</g>
<!-- c_0_93&#45;&gt;c_0_100 -->
<g id="edge36" class="edge">
<title>c_0_93&#45;&gt;c_0_100</title>
<path fill="none" stroke="black" stroke-dasharray="5,2" d="M700.94,-501C575.84,-501 396.17,-501 396.17,-501 396.17,-501 396.17,-459.74 396.17,-459.74"/>
<polygon fill="black" stroke="black" points="399.67,-459.74 396.17,-449.74 392.67,-459.74 399.67,-459.74"/>
</g>
<!-- c_0_77 -->
<g id="node22" class="node">
<title>c_0_77</title>
<g id="a_node22"><a xlink:href="c_0_77.html" xlink:title="{X₁ ∈ bool(X₃)|X₂ ∈ X₁|⇊|X₁ = Ø|X₂ ∈ X₁ ⊆ X₃}" target="_vizar">
<polygon fill="#f8edd1" stroke="#7f7542" points="703.5,-755.5 703.5,-830.5 794.5,-830.5 794.5,-755.5 703.5,-755.5"/>
<text text-anchor="middle" x="749" y="-819.3" font-family="Times,serif" font-size="14.00">X₁ ∈ bool(X₃)</text>
<polyline fill="none" stroke="#7f7542" points="703.5,-815.5 794.5,-815.5 "/>
<text text-anchor="middle" x="749" y="-804.3" font-family="Times,serif" font-size="14.00">X₂ ∈ X₁</text>
<polyline fill="none" stroke="#7f7542" points="703.5,-800.5 794.5,-800.5 "/>
<text text-anchor="middle" x="749" y="-789.3" font-family="Times,serif" font-size="14.00">⇊</text>
<polyline fill="none" stroke="#7f7542" points="703.5,-785.5 794.5,-785.5 "/>
<text text-anchor="middle" x="749" y="-774.3" font-family="Times,serif" font-size="14.00">X₁ = Ø</text>
<polyline fill="none" stroke="#7f7542" points="703.5,-770.5 794.5,-770.5 "/>
<text text-anchor="middle" x="749" y="-759.3" font-family="Times,serif" font-size="14.00">X₂ ∈ X₁ ⊆ X₃</text>
</a>
</g>
</g>
<!-- c_0_77&#45;&gt;c_0_90 -->
<g id="edge37" class="edge">
<title>c_0_77&#45;&gt;c_0_90</title>
<path fill="none" stroke="black" stroke-dasharray="5,2" d="M749,-755.37C749,-735.42 749,-715 749,-715 749,-715 423.55,-715 423.55,-715"/>
<polygon fill="black" stroke="black" points="423.55,-711.5 413.55,-715 423.55,-718.5 423.55,-711.5"/>
</g>
<!-- c_0_105 -->
<g id="node23" class="node">
<title>c_0_105</title>
<g id="a_node23"><a xlink:href="c_0_105.html" xlink:title="{QC&#45;alphabet(X₁)|⇊|VERUM(X₁) ∈ CQC&#45;WFF(X₁)}" target="_vizar">
<polygon fill="#f8edd1" stroke="#7f7542" points="701,-285 701,-330 899,-330 899,-285 701,-285"/>
<text text-anchor="middle" x="800" y="-318.8" font-family="Times,serif" font-size="14.00">QC&#45;alphabet(X₁)</text>
<polyline fill="none" stroke="#7f7542" points="701,-315 899,-315 "/>
<text text-anchor="middle" x="800" y="-303.8" font-family="Times,serif" font-size="14.00">⇊</text>
<polyline fill="none" stroke="#7f7542" points="701,-300 899,-300 "/>
<text text-anchor="middle" x="800" y="-288.8" font-family="Times,serif" font-size="14.00">VERUM(X₁) ∈ CQC&#45;WFF(X₁)</text>
</a>
</g>
</g>
<!-- c_0_105&#45;&gt;c_0_111 -->
<g id="edge38" class="edge">
<title>c_0_105&#45;&gt;c_0_111</title>
<path fill="none" stroke="black" stroke-dasharray="5,2" d="M700.72,-307C637.53,-307 567.5,-307 567.5,-307 567.5,-307 567.5,-198 567.5,-198 567.5,-198 238.88,-198 238.88,-198"/>
<polygon fill="black" stroke="black" points="238.88,-194.5 228.88,-198 238.88,-201.5 238.88,-194.5"/>
</g>
<!-- c_0_78 -->
<g id="node24" class="node">
<title>c_0_78</title>
<g id="a_node24"><a xlink:href="c_0_78.html" xlink:title="{QC&#45;alphabet(X₁)|⇊|CQC&#45;WFF(X₁) ∈ bool(QC&#45;WFF(X₁))}" target="_vizar">
<polygon fill="#f8edd1" stroke="#7f7542" points="702.5,-658.5 702.5,-703.5 943.5,-703.5 943.5,-658.5 702.5,-658.5"/>
<text text-anchor="middle" x="823" y="-692.3" font-family="Times,serif" font-size="14.00">QC&#45;alphabet(X₁)</text>
<polyline fill="none" stroke="#7f7542" points="702.5,-688.5 943.5,-688.5 "/>
<text text-anchor="middle" x="823" y="-677.3" font-family="Times,serif" font-size="14.00">⇊</text>
<polyline fill="none" stroke="#7f7542" points="702.5,-673.5 943.5,-673.5 "/>
<text text-anchor="middle" x="823" y="-662.3" font-family="Times,serif" font-size="14.00">CQC&#45;WFF(X₁) ∈ bool(QC&#45;WFF(X₁))</text>
</a>
</g>
</g>
<!-- c_0_78&#45;&gt;c_0_96 -->
<g id="edge39" class="edge">
<title>c_0_78&#45;&gt;c_0_96</title>
<path fill="none" stroke="black" stroke-dasharray="5,2" d="M702.35,-688C696.5,-688 693,-688 693,-688 693,-688 693,-569 693,-569 693,-569 286.2,-569 286.2,-569"/>
<polygon fill="black" stroke="black" points="286.2,-565.5 276.2,-569 286.2,-572.5 286.2,-565.5"/>
</g>
<!-- c_0_78&#45;&gt;c_0_114 -->
<g id="edge40" class="edge">
<title>c_0_78&#45;&gt;c_0_114</title>
<path fill="none" stroke="black" stroke-dasharray="5,2" d="M702.41,-673C698.97,-673 697,-673 697,-673 697,-673 697,-546 697,-546 697,-546 648.09,-546 648.09,-546"/>
<polygon fill="black" stroke="black" points="648.09,-542.5 638.09,-546 648.09,-549.5 648.09,-542.5"/>
</g>
<!-- c_0_113 -->
<g id="node25" class="node">
<title>c_0_113</title>
<g id="a_node25"><a xlink:href="c_0_113.html" xlink:title="{QC&#45;alphabet(X₁)|X₂ ∈ bool(CQC&#45;WFF(X₁))|X₃ ∈ CQC&#45;WFF(X₁)|⇊|Consistent(X₂,X₁)|X₁ \|&#45; X₂ \|&#45; X₃}" target="_vizar">
<polygon fill="#f8edd1" stroke="#7f7542" points="701.5,-150.5 701.5,-240.5 872.5,-240.5 872.5,-150.5 701.5,-150.5"/>
<text text-anchor="middle" x="787" y="-229.3" font-family="Times,serif" font-size="14.00">QC&#45;alphabet(X₁)</text>
<polyline fill="none" stroke="#7f7542" points="701.5,-225.5 872.5,-225.5 "/>
<text text-anchor="middle" x="787" y="-214.3" font-family="Times,serif" font-size="14.00">X₂ ∈ bool(CQC&#45;WFF(X₁))</text>
<polyline fill="none" stroke="#7f7542" points="701.5,-210.5 872.5,-210.5 "/>
<text text-anchor="middle" x="787" y="-199.3" font-family="Times,serif" font-size="14.00">X₃ ∈ CQC&#45;WFF(X₁)</text>
<polyline fill="none" stroke="#7f7542" points="701.5,-195.5 872.5,-195.5 "/>
<text text-anchor="middle" x="787" y="-184.3" font-family="Times,serif" font-size="14.00">⇊</text>
<polyline fill="none" stroke="#7f7542" points="701.5,-180.5 872.5,-180.5 "/>
<text text-anchor="middle" x="787" y="-169.3" font-family="Times,serif" font-size="14.00">Consistent(X₂,X₁)</text>
<polyline fill="none" stroke="#7f7542" points="701.5,-165.5 872.5,-165.5 "/>
<text text-anchor="middle" x="787" y="-154.3" font-family="Times,serif" font-size="14.00">X₁ |&#45; X₂ |&#45; X₃</text>
</a>
</g>
</g>
<!-- c_0_113&#45;&gt;c_0_116 -->
<g id="edge41" class="edge">
<title>c_0_113&#45;&gt;c_0_116</title>
<path fill="none" stroke="black" stroke-dasharray="5,2" d="M701.46,-168C557.6,-168 282.75,-168 282.75,-168 282.75,-168 282.75,-123.69 282.75,-123.69"/>
<polygon fill="black" stroke="black" points="286.25,-123.69 282.75,-113.69 279.25,-123.69 286.25,-123.69"/>
</g>
<!-- c_0_101 -->
<g id="node26" class="node">
<title>c_0_101</title>
<g id="a_node26"><a xlink:href="c_0_101.html" xlink:title="{QC&#45;alphabet(X₁)|⇊|VERUM(X₁) ∈ CQC&#45;WFF(X₁) ⊆ QC&#45;WFF(X₁)}" target="_vizar">
<polygon fill="#f8edd1" stroke="#7f7542" points="701,-389.5 701,-434.5 1005,-434.5 1005,-389.5 701,-389.5"/>
<text text-anchor="middle" x="853" y="-423.3" font-family="Times,serif" font-size="14.00">QC&#45;alphabet(X₁)</text>
<polyline fill="none" stroke="#7f7542" points="701,-419.5 1005,-419.5 "/>
<text text-anchor="middle" x="853" y="-408.3" font-family="Times,serif" font-size="14.00">⇊</text>
<polyline fill="none" stroke="#7f7542" points="701,-404.5 1005,-404.5 "/>
<text text-anchor="middle" x="853" y="-393.3" font-family="Times,serif" font-size="14.00">VERUM(X₁) ∈ CQC&#45;WFF(X₁) ⊆ QC&#45;WFF(X₁)</text>
</a>
</g>
</g>
<!-- c_0_101&#45;&gt;c_0_104 -->
<g id="edge42" class="edge">
<title>c_0_101&#45;&gt;c_0_104</title>
<path fill="none" stroke="black" stroke-dasharray="5,2" d="M800,-389.44C800,-366.4 800,-334 800,-334 800,-334 387.26,-334 387.26,-334"/>
<polygon fill="black" stroke="black" points="387.26,-330.5 377.26,-334 387.26,-337.5 387.26,-330.5"/>
</g>
<!-- c_0_92 -->
<g id="node27" class="node">
<title>c_0_92</title>
<g id="a_node27"><a xlink:href="c_0_92.html" xlink:title="{X₁ ∈ bool(X₃)|X₂ ∈ X₁ ⊆ X₃|⇊|X₁ = Ø|X₂ ∈ X₁}" target="_vizar">
<polygon fill="#f8edd1" stroke="#7f7542" points="812.5,-755.5 812.5,-830.5 903.5,-830.5 903.5,-755.5 812.5,-755.5"/>
<text text-anchor="middle" x="858" y="-819.3" font-family="Times,serif" font-size="14.00">X₁ ∈ bool(X₃)</text>
<polyline fill="none" stroke="#7f7542" points="812.5,-815.5 903.5,-815.5 "/>
<text text-anchor="middle" x="858" y="-804.3" font-family="Times,serif" font-size="14.00">X₂ ∈ X₁ ⊆ X₃</text>
<polyline fill="none" stroke="#7f7542" points="812.5,-800.5 903.5,-800.5 "/>
<text text-anchor="middle" x="858" y="-789.3" font-family="Times,serif" font-size="14.00">⇊</text>
<polyline fill="none" stroke="#7f7542" points="812.5,-785.5 903.5,-785.5 "/>
<text text-anchor="middle" x="858" y="-774.3" font-family="Times,serif" font-size="14.00">X₁ = Ø</text>
<polyline fill="none" stroke="#7f7542" points="812.5,-770.5 903.5,-770.5 "/>
<text text-anchor="middle" x="858" y="-759.3" font-family="Times,serif" font-size="14.00">X₂ ∈ X₁</text>
</a>
</g>
</g>
<!-- c_0_92&#45;&gt;c_0_110 -->
<g id="edge43" class="edge">
<title>c_0_92&#45;&gt;c_0_110</title>
<path fill="none" stroke="black" stroke-dasharray="5,2" d="M858,-755.28C858,-732.17 858,-707 858,-707 858,-707 694.79,-707 694.79,-707"/>
<polygon fill="black" stroke="black" points="694.79,-703.5 684.79,-707 694.79,-710.5 694.79,-703.5"/>
</g>
<!-- c_0_89 -->
<g id="node28" class="node">
<title>c_0_89</title>
<g id="a_node28"><a xlink:href="c_0_89.html" xlink:title="{QC&#45;alphabet(X₁)|X₂ ∈ CQC&#45;WFF(X₁)|⇊|X₁ &#39;not&#39; X₂ ∈ CQC&#45;WFF(X₁) ⊆ QC&#45;WFF(X₁)}" target="_vizar">
<polygon fill="#f8edd1" stroke="#7f7542" points="701.5,-867.5 701.5,-927.5 992.5,-927.5 992.5,-867.5 701.5,-867.5"/>
<text text-anchor="middle" x="847" y="-916.3" font-family="Times,serif" font-size="14.00">QC&#45;alphabet(X₁)</text>
<polyline fill="none" stroke="#7f7542" points="701.5,-912.5 992.5,-912.5 "/>
<text text-anchor="middle" x="847" y="-901.3" font-family="Times,serif" font-size="14.00">X₂ ∈ CQC&#45;WFF(X₁)</text>
<polyline fill="none" stroke="#7f7542" points="701.5,-897.5 992.5,-897.5 "/>
<text text-anchor="middle" x="847" y="-886.3" font-family="Times,serif" font-size="14.00">⇊</text>
<polyline fill="none" stroke="#7f7542" points="701.5,-882.5 992.5,-882.5 "/>
<text text-anchor="middle" x="847" y="-871.3" font-family="Times,serif" font-size="14.00">X₁ &#39;not&#39; X₂ ∈ CQC&#45;WFF(X₁) ⊆ QC&#45;WFF(X₁)</text>
</a>
</g>
</g>
<!-- c_0_89&#45;&gt;c_0_94 -->
<g id="edge44" class="edge">
<title>c_0_89&#45;&gt;c_0_94</title>
<path fill="none" stroke="black" stroke-dasharray="5,2" d="M701.4,-897C693.67,-897 689,-897 689,-897 689,-897 689,-816 689,-816 689,-816 231.22,-816 231.22,-816"/>
<polygon fill="black" stroke="black" points="231.22,-812.5 221.22,-816 231.22,-819.5 231.22,-812.5"/>
</g>
</g>
</svg>
