<?xml version="1.0" encoding="UTF-8" standalone="no"?>
<!DOCTYPE svg PUBLIC "-//W3C//DTD SVG 1.1//EN"
 "http://www.w3.org/Graphics/SVG/1.1/DTD/svg11.dtd">
<!-- Generated by graphviz version 5.0.0 (0)
 -->
<!-- Title: proof Pages: 1 -->
<svg width="330pt" height="213pt"
 viewBox="0.00 0.00 330.00 213.00" xmlns="http://www.w3.org/2000/svg" xmlns:xlink="http://www.w3.org/1999/xlink">
<g id="graph0" class="graph" transform="scale(1 1) rotate(0) translate(4 209)">
<title>proof</title>
<g id="clust1" class="cluster">
<title>cluster_1</title>
<polygon fill="transparent" stroke="black" stroke-width="2" points="109,-165 109,-197 213,-197 213,-165 109,-165"/>
</g>
<g id="clust2" class="cluster">
<title>cluster_2</title>
<polygon fill="transparent" stroke="black" stroke-dasharray="1,5" points="8,-8 8,-145 314,-145 314,-8 8,-8"/>
</g>
<!-- t25_calcul_2 -->
<g id="node1" class="node">
<title>t25_calcul_2</title>
<g id="a_node1"><a xlink:href="t25_calcul_2.html" xlink:title="t25_calcul_2" target="_parent">
<polygon fill="#69d2e7" stroke="#7f7542" points="117,-173.5 117,-188.5 205,-188.5 205,-173.5 117,-173.5"/>
<text text-anchor="middle" x="161" y="-177.3" font-family="Times,serif" font-size="14.00">t25_calcul_2</text>
</a>
</g>
</g>
<!-- c_0_23 -->
<g id="node2" class="node">
<title>c_0_23</title>
<g id="a_node2"><a xlink:href="c_0_23.html" xlink:title="{QC&#45;alphabet(X₁)|X₁ \|&#45; CQC&#45;WFF(X₁) ^ X₄ ^ &amp;lt;(X₁ &#39;not&#39; X₂)&amp;gt;|X₁ \|&#45; CQC&#45;WFF(X₁) ^ X₄ ^ &amp;lt;X₂&amp;gt;|X₂ ∈ CQC&#45;WFF(X₁) ⊆ QC&#45;WFF(X₁)|X₃ ∈ CQC&#45;WFF(X₁) ⊆ QC&#45;WFF(X₁)|X₄ ∈ fin&#45;seq(CQC&#45;WFF(X₁))|⇊|X₁ \|&#45; CQC&#45;WFF(X₁) ^ X₄ ^ &amp;lt;X₃&amp;gt;}" target="_parent">
<polygon fill="#f8edd1" stroke="#7f7542" points="16,-16.5 16,-136.5 306,-136.5 306,-16.5 16,-16.5"/>
<text text-anchor="middle" x="161" y="-125.3" font-family="Times,serif" font-size="14.00">QC&#45;alphabet(X₁)</text>
<polyline fill="none" stroke="#7f7542" points="16,-121.5 306,-121.5 "/>
<text text-anchor="middle" x="161" y="-110.3" font-family="Times,serif" font-size="14.00">X₁ |&#45; CQC&#45;WFF(X₁) ^ X₄ ^ &lt;(X₁ &#39;not&#39; X₂)&gt;</text>
<polyline fill="none" stroke="#7f7542" points="16,-106.5 306,-106.5 "/>
<text text-anchor="middle" x="161" y="-95.3" font-family="Times,serif" font-size="14.00">X₁ |&#45; CQC&#45;WFF(X₁) ^ X₄ ^ &lt;X₂&gt;</text>
<polyline fill="none" stroke="#7f7542" points="16,-91.5 306,-91.5 "/>
<text text-anchor="middle" x="161" y="-80.3" font-family="Times,serif" font-size="14.00">X₂ ∈ CQC&#45;WFF(X₁) ⊆ QC&#45;WFF(X₁)</text>
<polyline fill="none" stroke="#7f7542" points="16,-76.5 306,-76.5 "/>
<text text-anchor="middle" x="161" y="-65.3" font-family="Times,serif" font-size="14.00">X₃ ∈ CQC&#45;WFF(X₁) ⊆ QC&#45;WFF(X₁)</text>
<polyline fill="none" stroke="#7f7542" points="16,-61.5 306,-61.5 "/>
<text text-anchor="middle" x="161" y="-50.3" font-family="Times,serif" font-size="14.00">X₄ ∈ fin&#45;seq(CQC&#45;WFF(X₁))</text>
<polyline fill="none" stroke="#7f7542" points="16,-46.5 306,-46.5 "/>
<text text-anchor="middle" x="161" y="-35.3" font-family="Times,serif" font-size="14.00">⇊</text>
<polyline fill="none" stroke="#7f7542" points="16,-31.5 306,-31.5 "/>
<text text-anchor="middle" x="161" y="-20.3" font-family="Times,serif" font-size="14.00">X₁ |&#45; CQC&#45;WFF(X₁) ^ X₄ ^ &lt;X₃&gt;</text>
</a>
</g>
</g>
<!-- t25_calcul_2&#45;&gt;c_0_23 -->
<g id="edge1" class="edge">
<title>t25_calcul_2&#45;&gt;c_0_23</title>
<path fill="none" stroke="black" d="M161,-173.48C161,-173.48 161,-146.59 161,-146.59"/>
<polygon fill="black" stroke="black" points="164.5,-146.59 161,-136.59 157.5,-146.6 164.5,-146.59"/>
</g>
</g>
</svg>
