<?xml version="1.0" encoding="UTF-8" standalone="no"?>
<!DOCTYPE svg PUBLIC "-//W3C//DTD SVG 1.1//EN"
 "http://www.w3.org/Graphics/SVG/1.1/DTD/svg11.dtd">
<!-- Generated by graphviz version 5.0.0 (0)
 -->
<!-- Title: proof Pages: 1 -->
<svg width="570pt" height="265pt"
 viewBox="0.00 0.00 570.00 265.00" xmlns="http://www.w3.org/2000/svg" xmlns:xlink="http://www.w3.org/1999/xlink">
<g id="graph0" class="graph" transform="scale(1 1) rotate(0) translate(4 261)">
<title>proof</title>
<g id="clust1" class="cluster">
<title>cluster_0</title>
<polygon fill="transparent" stroke="black" stroke-dasharray="1,5" points="243,-217 243,-249 377,-249 377,-217 243,-217"/>
</g>
<g id="clust2" class="cluster">
<title>cluster_1</title>
<polygon fill="transparent" stroke="black" stroke-width="2" points="178,-120 178,-197 442,-197 442,-120 178,-120"/>
</g>
<g id="clust3" class="cluster">
<title>cluster_2</title>
<polygon fill="transparent" stroke="black" stroke-dasharray="1,5" points="8,-8 8,-100 554,-100 554,-8 8,-8"/>
</g>
<!-- dt_k10_metric_1 -->
<g id="node1" class="node">
<title>dt_k10_metric_1</title>
<g id="a_node1"><a xlink:href="dt_k10_metric_1.html" xlink:title="dt_k10_metric_1" target="_vizar">
<polygon fill="#69d2e7" stroke="#7f7542" points="251,-225.5 251,-240.5 369,-240.5 369,-225.5 251,-225.5"/>
<text text-anchor="middle" x="310" y="-229.3" font-family="Times,serif" font-size="14.00">dt_k10_metric_1</text>
</a>
</g>
</g>
<!-- c_0_26 -->
<g id="node2" class="node">
<title>c_0_26</title>
<g id="a_node2"><a xlink:href="c_0_26.html" xlink:title="{MetrStruct(X₁)|X₂ ∈ carrier(X₁)|⇊|cl_Ball(X₁,X₂,R₃) ∈ bool(carrier(X₁))}" target="_vizar">
<polygon fill="#f8edd1" stroke="#7f7542" points="186.5,-128.5 186.5,-188.5 433.5,-188.5 433.5,-128.5 186.5,-128.5"/>
<text text-anchor="middle" x="310" y="-177.3" font-family="Times,serif" font-size="14.00">MetrStruct(X₁)</text>
<polyline fill="none" stroke="#7f7542" points="186.5,-173.5 433.5,-173.5 "/>
<text text-anchor="middle" x="310" y="-162.3" font-family="Times,serif" font-size="14.00">X₂ ∈ carrier(X₁)</text>
<polyline fill="none" stroke="#7f7542" points="186.5,-158.5 433.5,-158.5 "/>
<text text-anchor="middle" x="310" y="-147.3" font-family="Times,serif" font-size="14.00">⇊</text>
<polyline fill="none" stroke="#7f7542" points="186.5,-143.5 433.5,-143.5 "/>
<text text-anchor="middle" x="310" y="-132.3" font-family="Times,serif" font-size="14.00">cl_Ball(X₁,X₂,R₃) ∈ bool(carrier(X₁))</text>
</a>
</g>
</g>
<!-- dt_k10_metric_1&#45;&gt;c_0_26 -->
<g id="edge1" class="edge">
<title>dt_k10_metric_1&#45;&gt;c_0_26</title>
<path fill="none" stroke="black" d="M310,-225.31C310,-225.31 310,-198.51 310,-198.51"/>
<polygon fill="black" stroke="black" points="313.5,-198.51 310,-188.51 306.5,-198.51 313.5,-198.51"/>
</g>
<!-- c_0_32 -->
<g id="node3" class="node">
<title>c_0_32</title>
<g id="a_node3"><a xlink:href="c_0_32.html" xlink:title="{MetrStruct(X₂)|X₁ ∈ cl_Ball(X₂,X₃,R₄)|X₃ ∈ carrier(X₂)|⇊|X₁ ∈ carrier(X₂)}" target="_vizar">
<polygon fill="#f8edd1" stroke="#7f7542" points="398.5,-16.5 398.5,-91.5 545.5,-91.5 545.5,-16.5 398.5,-16.5"/>
<text text-anchor="middle" x="472" y="-80.3" font-family="Times,serif" font-size="14.00">MetrStruct(X₂)</text>
<polyline fill="none" stroke="#7f7542" points="398.5,-76.5 545.5,-76.5 "/>
<text text-anchor="middle" x="472" y="-65.3" font-family="Times,serif" font-size="14.00">X₁ ∈ cl_Ball(X₂,X₃,R₄)</text>
<polyline fill="none" stroke="#7f7542" points="398.5,-61.5 545.5,-61.5 "/>
<text text-anchor="middle" x="472" y="-50.3" font-family="Times,serif" font-size="14.00">X₃ ∈ carrier(X₂)</text>
<polyline fill="none" stroke="#7f7542" points="398.5,-46.5 545.5,-46.5 "/>
<text text-anchor="middle" x="472" y="-35.3" font-family="Times,serif" font-size="14.00">⇊</text>
<polyline fill="none" stroke="#7f7542" points="398.5,-31.5 545.5,-31.5 "/>
<text text-anchor="middle" x="472" y="-20.3" font-family="Times,serif" font-size="14.00">X₁ ∈ carrier(X₂)</text>
</a>
</g>
</g>
<!-- c_0_26&#45;&gt;c_0_32 -->
<g id="edge2" class="edge">
<title>c_0_26&#45;&gt;c_0_32</title>
<path fill="none" stroke="black" stroke-dasharray="5,2" d="M416,-128.27C416,-128.27 416,-101.59 416,-101.59"/>
<polygon fill="black" stroke="black" points="419.5,-101.59 416,-91.59 412.5,-101.59 419.5,-101.59"/>
</g>
<!-- c_0_92 -->
<g id="node4" class="node">
<title>c_0_92</title>
<g id="a_node4"><a xlink:href="c_0_92.html" xlink:title="{MetrStruct(X₁)|X₂ ∈ carrier(X₁)|⇊|cl_Ball(X₁,X₂,R₃) ⊆ Sphere(X₁,X₂,R₃) ∪ Ball(X₁,X₂,R₃)}" target="_vizar">
<polygon fill="#f8edd1" stroke="#7f7542" points="16,-24 16,-84 380,-84 380,-24 16,-24"/>
<text text-anchor="middle" x="198" y="-72.8" font-family="Times,serif" font-size="14.00">MetrStruct(X₁)</text>
<polyline fill="none" stroke="#7f7542" points="16,-69 380,-69 "/>
<text text-anchor="middle" x="198" y="-57.8" font-family="Times,serif" font-size="14.00">X₂ ∈ carrier(X₁)</text>
<polyline fill="none" stroke="#7f7542" points="16,-54 380,-54 "/>
<text text-anchor="middle" x="198" y="-42.8" font-family="Times,serif" font-size="14.00">⇊</text>
<polyline fill="none" stroke="#7f7542" points="16,-39 380,-39 "/>
<text text-anchor="middle" x="198" y="-27.8" font-family="Times,serif" font-size="14.00">cl_Ball(X₁,X₂,R₃) ⊆ Sphere(X₁,X₂,R₃) ∪ Ball(X₁,X₂,R₃)</text>
</a>
</g>
</g>
<!-- c_0_26&#45;&gt;c_0_92 -->
<g id="edge3" class="edge">
<title>c_0_26&#45;&gt;c_0_92</title>
<path fill="none" stroke="black" stroke-dasharray="5,2" d="M283.25,-128.27C283.25,-128.27 283.25,-94.16 283.25,-94.16"/>
<polygon fill="black" stroke="black" points="286.75,-94.16 283.25,-84.16 279.75,-94.16 286.75,-94.16"/>
</g>
</g>
</svg>
