<?xml version="1.0" encoding="UTF-8" standalone="no"?>
<!DOCTYPE svg PUBLIC "-//W3C//DTD SVG 1.1//EN"
 "http://www.w3.org/Graphics/SVG/1.1/DTD/svg11.dtd">
<!-- Generated by graphviz version 5.0.0 (0)
 -->
<!-- Title: proof Pages: 1 -->
<svg width="1185pt" height="340pt"
 viewBox="0.00 0.00 1185.00 340.00" xmlns="http://www.w3.org/2000/svg" xmlns:xlink="http://www.w3.org/1999/xlink">
<g id="graph0" class="graph" transform="scale(1 1) rotate(0) translate(4 336)">
<title>proof</title>
<g id="clust1" class="cluster">
<title>cluster_0</title>
<polygon fill="transparent" stroke="black" stroke-dasharray="1,5" points="8,-202 8,-324 1169,-324 1169,-202 8,-202"/>
</g>
<g id="clust2" class="cluster">
<title>cluster_1</title>
<polygon fill="transparent" stroke="black" stroke-width="2" points="467,-105 467,-182 847,-182 847,-105 467,-105"/>
</g>
<g id="clust3" class="cluster">
<title>cluster_2</title>
<polygon fill="transparent" stroke="black" stroke-dasharray="1,5" points="467,-8 467,-85 847,-85 847,-8 467,-8"/>
</g>
<!-- c_0_86 -->
<g id="node1" class="node">
<title>c_0_86</title>
<g id="a_node1"><a xlink:href="c_0_86.html" xlink:title="{MetrStruct(X₁)|X₂ ∈ carrier(X₁)|⇊|Ball(X₁,X₂,R₃) ∈ bool(carrier(X₁))}" target="_vizar">
<polygon fill="#f8edd1" stroke="#7f7542" points="933,-233 933,-293 1161,-293 1161,-233 933,-233"/>
<text text-anchor="middle" x="1047" y="-281.8" font-family="Times,serif" font-size="14.00">MetrStruct(X₁)</text>
<polyline fill="none" stroke="#7f7542" points="933,-278 1161,-278 "/>
<text text-anchor="middle" x="1047" y="-266.8" font-family="Times,serif" font-size="14.00">X₂ ∈ carrier(X₁)</text>
<polyline fill="none" stroke="#7f7542" points="933,-263 1161,-263 "/>
<text text-anchor="middle" x="1047" y="-251.8" font-family="Times,serif" font-size="14.00">⇊</text>
<polyline fill="none" stroke="#7f7542" points="933,-248 1161,-248 "/>
<text text-anchor="middle" x="1047" y="-236.8" font-family="Times,serif" font-size="14.00">Ball(X₁,X₂,R₃) ∈ bool(carrier(X₁))</text>
</a>
</g>
</g>
<!-- c_0_92 -->
<g id="node5" class="node">
<title>c_0_92</title>
<g id="a_node5"><a xlink:href="c_0_92.html" xlink:title="{MetrStruct(X₁)|X₂ ∈ carrier(X₁)|⇊|cl_Ball(X₁,X₂,R₃) ⊆ Sphere(X₁,X₂,R₃) ∪ Ball(X₁,X₂,R₃)}" target="_vizar">
<polygon fill="#f8edd1" stroke="#7f7542" points="475,-113.5 475,-173.5 839,-173.5 839,-113.5 475,-113.5"/>
<text text-anchor="middle" x="657" y="-162.3" font-family="Times,serif" font-size="14.00">MetrStruct(X₁)</text>
<polyline fill="none" stroke="#7f7542" points="475,-158.5 839,-158.5 "/>
<text text-anchor="middle" x="657" y="-147.3" font-family="Times,serif" font-size="14.00">X₂ ∈ carrier(X₁)</text>
<polyline fill="none" stroke="#7f7542" points="475,-143.5 839,-143.5 "/>
<text text-anchor="middle" x="657" y="-132.3" font-family="Times,serif" font-size="14.00">⇊</text>
<polyline fill="none" stroke="#7f7542" points="475,-128.5 839,-128.5 "/>
<text text-anchor="middle" x="657" y="-117.3" font-family="Times,serif" font-size="14.00">cl_Ball(X₁,X₂,R₃) ⊆ Sphere(X₁,X₂,R₃) ∪ Ball(X₁,X₂,R₃)</text>
</a>
</g>
</g>
<!-- c_0_86&#45;&gt;c_0_92 -->
<g id="edge1" class="edge">
<title>c_0_86&#45;&gt;c_0_92</title>
<path fill="none" stroke="black" d="M1047,-232.72C1047,-197.17 1047,-143 1047,-143 1047,-143 849.15,-143 849.15,-143"/>
<polygon fill="black" stroke="black" points="849.15,-139.5 839.15,-143 849.15,-146.5 849.15,-139.5"/>
</g>
<!-- c_0_26 -->
<g id="node2" class="node">
<title>c_0_26</title>
<g id="a_node2"><a xlink:href="c_0_26.html" xlink:title="{MetrStruct(X₁)|X₂ ∈ carrier(X₁)|⇊|cl_Ball(X₁,X₂,R₃) ∈ bool(carrier(X₁))}" target="_vizar">
<polygon fill="#f8edd1" stroke="#7f7542" points="667.5,-233 667.5,-293 914.5,-293 914.5,-233 667.5,-233"/>
<text text-anchor="middle" x="791" y="-281.8" font-family="Times,serif" font-size="14.00">MetrStruct(X₁)</text>
<polyline fill="none" stroke="#7f7542" points="667.5,-278 914.5,-278 "/>
<text text-anchor="middle" x="791" y="-266.8" font-family="Times,serif" font-size="14.00">X₂ ∈ carrier(X₁)</text>
<polyline fill="none" stroke="#7f7542" points="667.5,-263 914.5,-263 "/>
<text text-anchor="middle" x="791" y="-251.8" font-family="Times,serif" font-size="14.00">⇊</text>
<polyline fill="none" stroke="#7f7542" points="667.5,-248 914.5,-248 "/>
<text text-anchor="middle" x="791" y="-236.8" font-family="Times,serif" font-size="14.00">cl_Ball(X₁,X₂,R₃) ∈ bool(carrier(X₁))</text>
</a>
</g>
</g>
<!-- c_0_26&#45;&gt;c_0_92 -->
<g id="edge2" class="edge">
<title>c_0_26&#45;&gt;c_0_92</title>
<path fill="none" stroke="black" d="M753.25,-232.85C753.25,-232.85 753.25,-183.65 753.25,-183.65"/>
<polygon fill="black" stroke="black" points="756.75,-183.65 753.25,-173.65 749.75,-183.65 756.75,-183.65"/>
</g>
<!-- c_0_87 -->
<g id="node3" class="node">
<title>c_0_87</title>
<g id="a_node3"><a xlink:href="c_0_87.html" xlink:title="{MetrStruct(X₁)|X₂ ∈ carrier(X₁)|⇊|Sphere(X₁,X₂,R₃) ∈ bool(carrier(X₁))}" target="_vizar">
<polygon fill="#f8edd1" stroke="#7f7542" points="398.5,-233 398.5,-293 649.5,-293 649.5,-233 398.5,-233"/>
<text text-anchor="middle" x="524" y="-281.8" font-family="Times,serif" font-size="14.00">MetrStruct(X₁)</text>
<polyline fill="none" stroke="#7f7542" points="398.5,-278 649.5,-278 "/>
<text text-anchor="middle" x="524" y="-266.8" font-family="Times,serif" font-size="14.00">X₂ ∈ carrier(X₁)</text>
<polyline fill="none" stroke="#7f7542" points="398.5,-263 649.5,-263 "/>
<text text-anchor="middle" x="524" y="-251.8" font-family="Times,serif" font-size="14.00">⇊</text>
<polyline fill="none" stroke="#7f7542" points="398.5,-248 649.5,-248 "/>
<text text-anchor="middle" x="524" y="-236.8" font-family="Times,serif" font-size="14.00">Sphere(X₁,X₂,R₃) ∈ bool(carrier(X₁))</text>
</a>
</g>
</g>
<!-- c_0_87&#45;&gt;c_0_92 -->
<g id="edge3" class="edge">
<title>c_0_87&#45;&gt;c_0_92</title>
<path fill="none" stroke="black" d="M591.33,-232.85C591.33,-232.85 591.33,-183.65 591.33,-183.65"/>
<polygon fill="black" stroke="black" points="594.83,-183.65 591.33,-173.65 587.83,-183.65 594.83,-183.65"/>
</g>
<!-- c_0_85 -->
<g id="node4" class="node">
<title>c_0_85</title>
<g id="a_node4"><a xlink:href="c_0_85.html" xlink:title="{Ball(X₁,X₂,R₃) ∈ bool(X₄)|MetrStruct(X₁)|Sphere(X₁,X₂,R₃) ∈ bool(X₄)|X₂ ∈ carrier(X₁)|cl_Ball(X₁,X₂,R₃) ∈ bool(X₄)|⇊|cl_Ball(X₁,X₂,R₃) ⊆ Sphere(X₁,X₂,R₃) ∪ Ball(X₁,X₂,R₃)}" target="_vizar">
<polygon fill="#f8edd1" stroke="#7f7542" points="16,-210.5 16,-315.5 380,-315.5 380,-210.5 16,-210.5"/>
<text text-anchor="middle" x="198" y="-304.3" font-family="Times,serif" font-size="14.00">Ball(X₁,X₂,R₃) ∈ bool(X₄)</text>
<polyline fill="none" stroke="#7f7542" points="16,-300.5 380,-300.5 "/>
<text text-anchor="middle" x="198" y="-289.3" font-family="Times,serif" font-size="14.00">MetrStruct(X₁)</text>
<polyline fill="none" stroke="#7f7542" points="16,-285.5 380,-285.5 "/>
<text text-anchor="middle" x="198" y="-274.3" font-family="Times,serif" font-size="14.00">Sphere(X₁,X₂,R₃) ∈ bool(X₄)</text>
<polyline fill="none" stroke="#7f7542" points="16,-270.5 380,-270.5 "/>
<text text-anchor="middle" x="198" y="-259.3" font-family="Times,serif" font-size="14.00">X₂ ∈ carrier(X₁)</text>
<polyline fill="none" stroke="#7f7542" points="16,-255.5 380,-255.5 "/>
<text text-anchor="middle" x="198" y="-244.3" font-family="Times,serif" font-size="14.00">cl_Ball(X₁,X₂,R₃) ∈ bool(X₄)</text>
<polyline fill="none" stroke="#7f7542" points="16,-240.5 380,-240.5 "/>
<text text-anchor="middle" x="198" y="-229.3" font-family="Times,serif" font-size="14.00">⇊</text>
<polyline fill="none" stroke="#7f7542" points="16,-225.5 380,-225.5 "/>
<text text-anchor="middle" x="198" y="-214.3" font-family="Times,serif" font-size="14.00">cl_Ball(X₁,X₂,R₃) ⊆ Sphere(X₁,X₂,R₃) ∪ Ball(X₁,X₂,R₃)</text>
</a>
</g>
</g>
<!-- c_0_85&#45;&gt;c_0_92 -->
<g id="edge4" class="edge">
<title>c_0_85&#45;&gt;c_0_92</title>
<path fill="none" stroke="black" d="M380.3,-221C458.91,-221 533.17,-221 533.17,-221 533.17,-221 533.17,-183.69 533.17,-183.69"/>
<polygon fill="black" stroke="black" points="536.67,-183.69 533.17,-173.69 529.67,-183.69 536.67,-183.69"/>
</g>
<!-- c_0_96 -->
<g id="node6" class="node">
<title>c_0_96</title>
<g id="a_node6"><a xlink:href="c_0_96.html" xlink:title="{MetrStruct(X₁)|X₂ ∈ carrier(X₁)|⇊|Sphere(X₁,X₂,R₃) ∪ Ball(X₁,X₂,R₃) = cl_Ball(X₁,X₂,R₃)}" target="_vizar">
<polygon fill="#f8edd1" stroke="#7f7542" points="475,-16.5 475,-76.5 839,-76.5 839,-16.5 475,-16.5"/>
<text text-anchor="middle" x="657" y="-65.3" font-family="Times,serif" font-size="14.00">MetrStruct(X₁)</text>
<polyline fill="none" stroke="#7f7542" points="475,-61.5 839,-61.5 "/>
<text text-anchor="middle" x="657" y="-50.3" font-family="Times,serif" font-size="14.00">X₂ ∈ carrier(X₁)</text>
<polyline fill="none" stroke="#7f7542" points="475,-46.5 839,-46.5 "/>
<text text-anchor="middle" x="657" y="-35.3" font-family="Times,serif" font-size="14.00">⇊</text>
<polyline fill="none" stroke="#7f7542" points="475,-31.5 839,-31.5 "/>
<text text-anchor="middle" x="657" y="-20.3" font-family="Times,serif" font-size="14.00">Sphere(X₁,X₂,R₃) ∪ Ball(X₁,X₂,R₃) = cl_Ball(X₁,X₂,R₃)</text>
</a>
</g>
</g>
<!-- c_0_92&#45;&gt;c_0_96 -->
<g id="edge5" class="edge">
<title>c_0_92&#45;&gt;c_0_96</title>
<path fill="none" stroke="black" stroke-dasharray="5,2" d="M657,-113.34C657,-113.34 657,-86.64 657,-86.64"/>
<polygon fill="black" stroke="black" points="660.5,-86.64 657,-76.64 653.5,-86.64 660.5,-86.64"/>
</g>
</g>
</svg>
