<?xml version="1.0" encoding="UTF-8" standalone="no"?>
<!DOCTYPE svg PUBLIC "-//W3C//DTD SVG 1.1//EN"
 "http://www.w3.org/Graphics/SVG/1.1/DTD/svg11.dtd">
<!-- Generated by graphviz version 5.0.0 (0)
 -->
<!-- Title: proof Pages: 1 -->
<svg width="622pt" height="415pt"
 viewBox="0.00 0.00 622.00 415.00" xmlns="http://www.w3.org/2000/svg" xmlns:xlink="http://www.w3.org/1999/xlink">
<g id="graph0" class="graph" transform="scale(1 1) rotate(0) translate(4 411)">
<title>proof</title>
<g id="clust1" class="cluster">
<title>cluster_0</title>
<polygon fill="transparent" stroke="black" stroke-dasharray="1,5" points="8,-277 8,-399 606,-399 606,-277 8,-277"/>
</g>
<g id="clust2" class="cluster">
<title>cluster_1</title>
<polygon fill="transparent" stroke="black" stroke-width="2" points="136,-135 136,-257 322,-257 322,-135 136,-135"/>
</g>
<g id="clust3" class="cluster">
<title>cluster_2</title>
<polygon fill="transparent" stroke="black" stroke-dasharray="1,5" points="39,-8 39,-115 419,-115 419,-8 39,-8"/>
</g>
<!-- c_0_66 -->
<g id="node1" class="node">
<title>c_0_66</title>
<g id="a_node1"><a xlink:href="c_0_66.html" xlink:title="{MetrStruct(Xâ‚)|Xâ‚‚ âˆˆ carrier(Xâ‚)|Xâ‚„ âˆˆ ğ’«(Xâ‚…)|cl_Ball(Xâ‚,Xâ‚‚,Râ‚ƒ) âˆˆ ğ’«(Xâ‚…)|â‡Š|cl_Ball(Xâ‚,Xâ‚‚,Râ‚ƒ) âŠ† Xâ‚„|skâ‚…(Xâ‚…,cl_Ball(Xâ‚,Xâ‚‚,Râ‚ƒ),Xâ‚„) âˆˆ carrier(Xâ‚)}" target="_vizar">
<polygon fill="#f8edd1" stroke="#7f7542" points="320.5,-285.5 320.5,-390.5 597.5,-390.5 597.5,-285.5 320.5,-285.5"/>
<text text-anchor="middle" x="459" y="-379.3" font-family="Times,serif" font-size="14.00">MetrStruct(Xâ‚)</text>
<polyline fill="none" stroke="#7f7542" points="320.5,-375.5 597.5,-375.5 "/>
<text text-anchor="middle" x="459" y="-364.3" font-family="Times,serif" font-size="14.00">Xâ‚‚ âˆˆ carrier(Xâ‚)</text>
<polyline fill="none" stroke="#7f7542" points="320.5,-360.5 597.5,-360.5 "/>
<text text-anchor="middle" x="459" y="-349.3" font-family="Times,serif" font-size="14.00">Xâ‚„ âˆˆ ğ’«(Xâ‚…)</text>
<polyline fill="none" stroke="#7f7542" points="320.5,-345.5 597.5,-345.5 "/>
<text text-anchor="middle" x="459" y="-334.3" font-family="Times,serif" font-size="14.00">cl_Ball(Xâ‚,Xâ‚‚,Râ‚ƒ) âˆˆ ğ’«(Xâ‚…)</text>
<polyline fill="none" stroke="#7f7542" points="320.5,-330.5 597.5,-330.5 "/>
<text text-anchor="middle" x="459" y="-319.3" font-family="Times,serif" font-size="14.00">â‡Š</text>
<polyline fill="none" stroke="#7f7542" points="320.5,-315.5 597.5,-315.5 "/>
<text text-anchor="middle" x="459" y="-304.3" font-family="Times,serif" font-size="14.00">cl_Ball(Xâ‚,Xâ‚‚,Râ‚ƒ) âŠ† Xâ‚„</text>
<polyline fill="none" stroke="#7f7542" points="320.5,-300.5 597.5,-300.5 "/>
<text text-anchor="middle" x="459" y="-289.3" font-family="Times,serif" font-size="14.00">skâ‚…(Xâ‚…,cl_Ball(Xâ‚,Xâ‚‚,Râ‚ƒ),Xâ‚„) âˆˆ carrier(Xâ‚)</text>
</a>
</g>
</g>
<!-- c_0_72 -->
<g id="node4" class="node">
<title>c_0_72</title>
<g id="a_node4"><a xlink:href="c_0_72.html" xlink:title="{MetrStruct(Xâ‚)|Xâ‚ = Ã˜|Xâ‚‚ âˆˆ carrier(Xâ‚)|Xâ‚„ âˆˆ ğ’«(Xâ‚…)|cl_Ball(Xâ‚,Xâ‚‚,Râ‚ƒ) âˆˆ ğ’«(Xâ‚…)|â‡Š|cl_Ball(Xâ‚,Xâ‚‚,Râ‚ƒ) âŠ† Xâ‚„}" target="_vizar">
<polygon fill="#f8edd1" stroke="#7f7542" points="144.5,-143.5 144.5,-248.5 313.5,-248.5 313.5,-143.5 144.5,-143.5"/>
<text text-anchor="middle" x="229" y="-237.3" font-family="Times,serif" font-size="14.00">MetrStruct(Xâ‚)</text>
<polyline fill="none" stroke="#7f7542" points="144.5,-233.5 313.5,-233.5 "/>
<text text-anchor="middle" x="229" y="-222.3" font-family="Times,serif" font-size="14.00">Xâ‚ = Ã˜</text>
<polyline fill="none" stroke="#7f7542" points="144.5,-218.5 313.5,-218.5 "/>
<text text-anchor="middle" x="229" y="-207.3" font-family="Times,serif" font-size="14.00">Xâ‚‚ âˆˆ carrier(Xâ‚)</text>
<polyline fill="none" stroke="#7f7542" points="144.5,-203.5 313.5,-203.5 "/>
<text text-anchor="middle" x="229" y="-192.3" font-family="Times,serif" font-size="14.00">Xâ‚„ âˆˆ ğ’«(Xâ‚…)</text>
<polyline fill="none" stroke="#7f7542" points="144.5,-188.5 313.5,-188.5 "/>
<text text-anchor="middle" x="229" y="-177.3" font-family="Times,serif" font-size="14.00">cl_Ball(Xâ‚,Xâ‚‚,Râ‚ƒ) âˆˆ ğ’«(Xâ‚…)</text>
<polyline fill="none" stroke="#7f7542" points="144.5,-173.5 313.5,-173.5 "/>
<text text-anchor="middle" x="229" y="-162.3" font-family="Times,serif" font-size="14.00">â‡Š</text>
<polyline fill="none" stroke="#7f7542" points="144.5,-158.5 313.5,-158.5 "/>
<text text-anchor="middle" x="229" y="-147.3" font-family="Times,serif" font-size="14.00">cl_Ball(Xâ‚,Xâ‚‚,Râ‚ƒ) âŠ† Xâ‚„</text>
</a>
</g>
</g>
<!-- c_0_66&#45;&gt;c_0_72 -->
<g id="edge1" class="edge">
<title>c_0_66&#45;&gt;c_0_72</title>
<path fill="none" stroke="black" d="M320.36,-338C312.67,-338 308,-338 308,-338 308,-338 308,-258.88 308,-258.88"/>
<polygon fill="black" stroke="black" points="311.5,-258.88 308,-248.88 304.5,-258.88 311.5,-258.88"/>
</g>
<!-- c_0_40 -->
<g id="node2" class="node">
<title>c_0_40</title>
<g id="a_node2"><a xlink:href="c_0_40.html" xlink:title="{MetrStruct(Xâ‚)|Xâ‚ = Ã˜|Xâ‚‚ âˆˆ carrier(Xâ‚)|Xâ‚‚ âˆˆ cl_Ball(Xâ‚,Xâ‚ƒ,Râ‚„)|Xâ‚ƒ âˆˆ carrier(Xâ‚)|â‡Š|âŠ¥}" target="_vizar">
<polygon fill="#f8edd1" stroke="#7f7542" points="155.5,-285.5 155.5,-390.5 302.5,-390.5 302.5,-285.5 155.5,-285.5"/>
<text text-anchor="middle" x="229" y="-379.3" font-family="Times,serif" font-size="14.00">MetrStruct(Xâ‚)</text>
<polyline fill="none" stroke="#7f7542" points="155.5,-375.5 302.5,-375.5 "/>
<text text-anchor="middle" x="229" y="-364.3" font-family="Times,serif" font-size="14.00">Xâ‚ = Ã˜</text>
<polyline fill="none" stroke="#7f7542" points="155.5,-360.5 302.5,-360.5 "/>
<text text-anchor="middle" x="229" y="-349.3" font-family="Times,serif" font-size="14.00">Xâ‚‚ âˆˆ carrier(Xâ‚)</text>
<polyline fill="none" stroke="#7f7542" points="155.5,-345.5 302.5,-345.5 "/>
<text text-anchor="middle" x="229" y="-334.3" font-family="Times,serif" font-size="14.00">Xâ‚‚ âˆˆ cl_Ball(Xâ‚,Xâ‚ƒ,Râ‚„)</text>
<polyline fill="none" stroke="#7f7542" points="155.5,-330.5 302.5,-330.5 "/>
<text text-anchor="middle" x="229" y="-319.3" font-family="Times,serif" font-size="14.00">Xâ‚ƒ âˆˆ carrier(Xâ‚)</text>
<polyline fill="none" stroke="#7f7542" points="155.5,-315.5 302.5,-315.5 "/>
<text text-anchor="middle" x="229" y="-304.3" font-family="Times,serif" font-size="14.00">â‡Š</text>
<polyline fill="none" stroke="#7f7542" points="155.5,-300.5 302.5,-300.5 "/>
<text text-anchor="middle" x="229" y="-289.3" font-family="Times,serif" font-size="14.00">âŠ¥</text>
</a>
</g>
</g>
<!-- c_0_40&#45;&gt;c_0_72 -->
<g id="edge2" class="edge">
<title>c_0_40&#45;&gt;c_0_72</title>
<path fill="none" stroke="black" d="M229,-285.12C229,-285.12 229,-258.92 229,-258.92"/>
<polygon fill="black" stroke="black" points="232.5,-258.92 229,-248.92 225.5,-258.92 232.5,-258.92"/>
</g>
<!-- c_0_54 -->
<g id="node3" class="node">
<title>c_0_54</title>
<g id="a_node3"><a xlink:href="c_0_54.html" xlink:title="{Xâ‚‚ âˆˆ ğ’«(Xâ‚)|Xâ‚ƒ âˆˆ ğ’«(Xâ‚)|â‡Š|Xâ‚‚ âŠ† Xâ‚ƒ|skâ‚…(Xâ‚,Xâ‚‚,Xâ‚ƒ) âˆˆ Xâ‚‚}" target="_vizar">
<polygon fill="#f8edd1" stroke="#7f7542" points="16.5,-300.5 16.5,-375.5 137.5,-375.5 137.5,-300.5 16.5,-300.5"/>
<text text-anchor="middle" x="77" y="-364.3" font-family="Times,serif" font-size="14.00">Xâ‚‚ âˆˆ ğ’«(Xâ‚)</text>
<polyline fill="none" stroke="#7f7542" points="16.5,-360.5 137.5,-360.5 "/>
<text text-anchor="middle" x="77" y="-349.3" font-family="Times,serif" font-size="14.00">Xâ‚ƒ âˆˆ ğ’«(Xâ‚)</text>
<polyline fill="none" stroke="#7f7542" points="16.5,-345.5 137.5,-345.5 "/>
<text text-anchor="middle" x="77" y="-334.3" font-family="Times,serif" font-size="14.00">â‡Š</text>
<polyline fill="none" stroke="#7f7542" points="16.5,-330.5 137.5,-330.5 "/>
<text text-anchor="middle" x="77" y="-319.3" font-family="Times,serif" font-size="14.00">Xâ‚‚ âŠ† Xâ‚ƒ</text>
<polyline fill="none" stroke="#7f7542" points="16.5,-315.5 137.5,-315.5 "/>
<text text-anchor="middle" x="77" y="-304.3" font-family="Times,serif" font-size="14.00">skâ‚…(Xâ‚,Xâ‚‚,Xâ‚ƒ) âˆˆ Xâ‚‚</text>
</a>
</g>
</g>
<!-- c_0_54&#45;&gt;c_0_72 -->
<g id="edge3" class="edge">
<title>c_0_54&#45;&gt;c_0_72</title>
<path fill="none" stroke="black" d="M137.62,-338C145,-338 150,-338 150,-338 150,-338 150,-258.88 150,-258.88"/>
<polygon fill="black" stroke="black" points="153.5,-258.88 150,-248.88 146.5,-258.88 153.5,-258.88"/>
</g>
<!-- c_0_78 -->
<g id="node5" class="node">
<title>c_0_78</title>
<g id="a_node5"><a xlink:href="c_0_78.html" xlink:title="{MetrStruct(Xâ‚)|Sphere(Xâ‚,Xâ‚‚,Râ‚ƒ) âˆª Ball(Xâ‚,Xâ‚‚,Râ‚ƒ) âˆˆ ğ’«(Xâ‚„)|Xâ‚‚ âˆˆ carrier(Xâ‚)|cl_Ball(Xâ‚,Xâ‚‚,Râ‚ƒ) âˆˆ ğ’«(Xâ‚„)|â‡Š|cl_Ball(Xâ‚,Xâ‚‚,Râ‚ƒ) âŠ† Sphere(Xâ‚,Xâ‚‚,Râ‚ƒ) âˆª Ball(Xâ‚,Xâ‚‚,Râ‚ƒ)}" target="_vizar">
<polygon fill="#f8edd1" stroke="#7f7542" points="47,-16.5 47,-106.5 411,-106.5 411,-16.5 47,-16.5"/>
<text text-anchor="middle" x="229" y="-95.3" font-family="Times,serif" font-size="14.00">MetrStruct(Xâ‚)</text>
<polyline fill="none" stroke="#7f7542" points="47,-91.5 411,-91.5 "/>
<text text-anchor="middle" x="229" y="-80.3" font-family="Times,serif" font-size="14.00">Sphere(Xâ‚,Xâ‚‚,Râ‚ƒ) âˆª Ball(Xâ‚,Xâ‚‚,Râ‚ƒ) âˆˆ ğ’«(Xâ‚„)</text>
<polyline fill="none" stroke="#7f7542" points="47,-76.5 411,-76.5 "/>
<text text-anchor="middle" x="229" y="-65.3" font-family="Times,serif" font-size="14.00">Xâ‚‚ âˆˆ carrier(Xâ‚)</text>
<polyline fill="none" stroke="#7f7542" points="47,-61.5 411,-61.5 "/>
<text text-anchor="middle" x="229" y="-50.3" font-family="Times,serif" font-size="14.00">cl_Ball(Xâ‚,Xâ‚‚,Râ‚ƒ) âˆˆ ğ’«(Xâ‚„)</text>
<polyline fill="none" stroke="#7f7542" points="47,-46.5 411,-46.5 "/>
<text text-anchor="middle" x="229" y="-35.3" font-family="Times,serif" font-size="14.00">â‡Š</text>
<polyline fill="none" stroke="#7f7542" points="47,-31.5 411,-31.5 "/>
<text text-anchor="middle" x="229" y="-20.3" font-family="Times,serif" font-size="14.00">cl_Ball(Xâ‚,Xâ‚‚,Râ‚ƒ) âŠ† Sphere(Xâ‚,Xâ‚‚,Râ‚ƒ) âˆª Ball(Xâ‚,Xâ‚‚,Râ‚ƒ)</text>
</a>
</g>
</g>
<!-- c_0_72&#45;&gt;c_0_78 -->
<g id="edge4" class="edge">
<title>c_0_72&#45;&gt;c_0_78</title>
<path fill="none" stroke="black" stroke-dasharray="5,2" d="M229,-143.23C229,-143.23 229,-116.72 229,-116.72"/>
<polygon fill="black" stroke="black" points="232.5,-116.72 229,-106.72 225.5,-116.72 232.5,-116.72"/>
</g>
</g>
</svg>
