<?xml version="1.0" encoding="UTF-8" standalone="no"?>
<!DOCTYPE svg PUBLIC "-//W3C//DTD SVG 1.1//EN"
 "http://www.w3.org/Graphics/SVG/1.1/DTD/svg11.dtd">
<!-- Generated by graphviz version 5.0.0 (0)
 -->
<!-- Title: proof Pages: 1 -->
<svg width="1306pt" height="445pt"
 viewBox="0.00 0.00 1306.00 445.00" xmlns="http://www.w3.org/2000/svg" xmlns:xlink="http://www.w3.org/1999/xlink">
<g id="graph0" class="graph" transform="scale(1 1) rotate(0) translate(4 441)">
<title>proof</title>
<g id="clust1" class="cluster">
<title>cluster_0</title>
<polygon fill="transparent" stroke="black" stroke-dasharray="1,5" points="8,-277 8,-429 1290,-429 1290,-277 8,-277"/>
</g>
<g id="clust2" class="cluster">
<title>cluster_1</title>
<polygon fill="transparent" stroke="black" stroke-width="2" points="585,-150 585,-257 965,-257 965,-150 585,-150"/>
</g>
<g id="clust3" class="cluster">
<title>cluster_2</title>
<polygon fill="transparent" stroke="black" stroke-dasharray="1,5" points="585,-8 585,-130 965,-130 965,-8 585,-8"/>
</g>
<!-- c_0_72 -->
<g id="node1" class="node">
<title>c_0_72</title>
<g id="a_node1"><a xlink:href="c_0_72.html" xlink:title="{MetrStruct(X₁)|X₂ ∈ carrier(X₁)|X₄ ∈ bool(X₅)|cl_Ball(X₁,X₂,R₃) ∈ bool(X₅)|empty(X₁)|⇊|cl_Ball(X₁,X₂,R₃) ⊆ X₄}" target="_vizar">
<polygon fill="#f8edd1" stroke="#7f7542" points="1094.5,-300.5 1094.5,-405.5 1281.5,-405.5 1281.5,-300.5 1094.5,-300.5"/>
<text text-anchor="middle" x="1188" y="-394.3" font-family="Times,serif" font-size="14.00">MetrStruct(X₁)</text>
<polyline fill="none" stroke="#7f7542" points="1094.5,-390.5 1281.5,-390.5 "/>
<text text-anchor="middle" x="1188" y="-379.3" font-family="Times,serif" font-size="14.00">X₂ ∈ carrier(X₁)</text>
<polyline fill="none" stroke="#7f7542" points="1094.5,-375.5 1281.5,-375.5 "/>
<text text-anchor="middle" x="1188" y="-364.3" font-family="Times,serif" font-size="14.00">X₄ ∈ bool(X₅)</text>
<polyline fill="none" stroke="#7f7542" points="1094.5,-360.5 1281.5,-360.5 "/>
<text text-anchor="middle" x="1188" y="-349.3" font-family="Times,serif" font-size="14.00">cl_Ball(X₁,X₂,R₃) ∈ bool(X₅)</text>
<polyline fill="none" stroke="#7f7542" points="1094.5,-345.5 1281.5,-345.5 "/>
<text text-anchor="middle" x="1188" y="-334.3" font-family="Times,serif" font-size="14.00">empty(X₁)</text>
<polyline fill="none" stroke="#7f7542" points="1094.5,-330.5 1281.5,-330.5 "/>
<text text-anchor="middle" x="1188" y="-319.3" font-family="Times,serif" font-size="14.00">⇊</text>
<polyline fill="none" stroke="#7f7542" points="1094.5,-315.5 1281.5,-315.5 "/>
<text text-anchor="middle" x="1188" y="-304.3" font-family="Times,serif" font-size="14.00">cl_Ball(X₁,X₂,R₃) ⊆ X₄</text>
</a>
</g>
</g>
<!-- c_0_78 -->
<g id="node5" class="node">
<title>c_0_78</title>
<g id="a_node5"><a xlink:href="c_0_78.html" xlink:title="{MetrStruct(X₁)|Sphere(X₁,X₂,R₃) ∪ Ball(X₁,X₂,R₃) ∈ bool(X₄)|X₂ ∈ carrier(X₁)|cl_Ball(X₁,X₂,R₃) ∈ bool(X₄)|⇊|cl_Ball(X₁,X₂,R₃) ⊆ Sphere(X₁,X₂,R₃) ∪ Ball(X₁,X₂,R₃)}" target="_vizar">
<polygon fill="#f8edd1" stroke="#7f7542" points="593,-158.5 593,-248.5 957,-248.5 957,-158.5 593,-158.5"/>
<text text-anchor="middle" x="775" y="-237.3" font-family="Times,serif" font-size="14.00">MetrStruct(X₁)</text>
<polyline fill="none" stroke="#7f7542" points="593,-233.5 957,-233.5 "/>
<text text-anchor="middle" x="775" y="-222.3" font-family="Times,serif" font-size="14.00">Sphere(X₁,X₂,R₃) ∪ Ball(X₁,X₂,R₃) ∈ bool(X₄)</text>
<polyline fill="none" stroke="#7f7542" points="593,-218.5 957,-218.5 "/>
<text text-anchor="middle" x="775" y="-207.3" font-family="Times,serif" font-size="14.00">X₂ ∈ carrier(X₁)</text>
<polyline fill="none" stroke="#7f7542" points="593,-203.5 957,-203.5 "/>
<text text-anchor="middle" x="775" y="-192.3" font-family="Times,serif" font-size="14.00">cl_Ball(X₁,X₂,R₃) ∈ bool(X₄)</text>
<polyline fill="none" stroke="#7f7542" points="593,-188.5 957,-188.5 "/>
<text text-anchor="middle" x="775" y="-177.3" font-family="Times,serif" font-size="14.00">⇊</text>
<polyline fill="none" stroke="#7f7542" points="593,-173.5 957,-173.5 "/>
<text text-anchor="middle" x="775" y="-162.3" font-family="Times,serif" font-size="14.00">cl_Ball(X₁,X₂,R₃) ⊆ Sphere(X₁,X₂,R₃) ∪ Ball(X₁,X₂,R₃)</text>
</a>
</g>
</g>
<!-- c_0_72&#45;&gt;c_0_78 -->
<g id="edge1" class="edge">
<title>c_0_72&#45;&gt;c_0_78</title>
<path fill="none" stroke="black" d="M1188,-300.12C1188,-256.93 1188,-203 1188,-203 1188,-203 967.05,-203 967.05,-203"/>
<polygon fill="black" stroke="black" points="967.05,-199.5 957.05,-203 967.05,-206.5 967.05,-199.5"/>
</g>
<!-- c_0_66 -->
<g id="node2" class="node">
<title>c_0_66</title>
<g id="a_node2"><a xlink:href="c_0_66.html" xlink:title="{MetrStruct(X₁)|X₂ ∈ carrier(X₁)|X₄ ∈ bool(X₅)|cl_Ball(X₁,X₂,R₃) ∈ bool(X₅)|⇊|cl_Ball(X₁,X₂,R₃) ⊆ X₄|sk₅(X₅,cl_Ball(X₁,X₂,R₃),X₄) ∈ carrier(X₁)}" target="_vizar">
<polygon fill="#f8edd1" stroke="#7f7542" points="799.5,-300.5 799.5,-405.5 1076.5,-405.5 1076.5,-300.5 799.5,-300.5"/>
<text text-anchor="middle" x="938" y="-394.3" font-family="Times,serif" font-size="14.00">MetrStruct(X₁)</text>
<polyline fill="none" stroke="#7f7542" points="799.5,-390.5 1076.5,-390.5 "/>
<text text-anchor="middle" x="938" y="-379.3" font-family="Times,serif" font-size="14.00">X₂ ∈ carrier(X₁)</text>
<polyline fill="none" stroke="#7f7542" points="799.5,-375.5 1076.5,-375.5 "/>
<text text-anchor="middle" x="938" y="-364.3" font-family="Times,serif" font-size="14.00">X₄ ∈ bool(X₅)</text>
<polyline fill="none" stroke="#7f7542" points="799.5,-360.5 1076.5,-360.5 "/>
<text text-anchor="middle" x="938" y="-349.3" font-family="Times,serif" font-size="14.00">cl_Ball(X₁,X₂,R₃) ∈ bool(X₅)</text>
<polyline fill="none" stroke="#7f7542" points="799.5,-345.5 1076.5,-345.5 "/>
<text text-anchor="middle" x="938" y="-334.3" font-family="Times,serif" font-size="14.00">⇊</text>
<polyline fill="none" stroke="#7f7542" points="799.5,-330.5 1076.5,-330.5 "/>
<text text-anchor="middle" x="938" y="-319.3" font-family="Times,serif" font-size="14.00">cl_Ball(X₁,X₂,R₃) ⊆ X₄</text>
<polyline fill="none" stroke="#7f7542" points="799.5,-315.5 1076.5,-315.5 "/>
<text text-anchor="middle" x="938" y="-304.3" font-family="Times,serif" font-size="14.00">sk₅(X₅,cl_Ball(X₁,X₂,R₃),X₄) ∈ carrier(X₁)</text>
</a>
</g>
</g>
<!-- c_0_66&#45;&gt;c_0_78 -->
<g id="edge2" class="edge">
<title>c_0_66&#45;&gt;c_0_78</title>
<path fill="none" stroke="black" d="M878.25,-300.29C878.25,-300.29 878.25,-258.79 878.25,-258.79"/>
<polygon fill="black" stroke="black" points="881.75,-258.79 878.25,-248.79 874.75,-258.79 881.75,-258.79"/>
</g>
<!-- c_0_70 -->
<g id="node3" class="node">
<title>c_0_70</title>
<g id="a_node3"><a xlink:href="c_0_70.html" xlink:title="{MetrStruct(X₁)|Sphere(X₁,X₃,R₄) ∪ X₅ ∈ bool(X₆)|X₂ ∈ bool(X₆)|X₃ ∈ carrier(X₁)|dist(X₁,X₃,sk₅(X₆,X₂,Sphere(X₁,X₃,R₄) ∪ X₅)) = R₄|sk₅(X₆,X₂,Sphere(X₁,X₃,R₄) ∪ X₅) ∈ carrier(X₁)|⇊|X₂ ⊆ Sphere(X₁,X₃,R₄) ∪ X₅|empty(X₁)}" target="_vizar">
<polygon fill="#f8edd1" stroke="#7f7542" points="444.5,-285.5 444.5,-420.5 781.5,-420.5 781.5,-285.5 444.5,-285.5"/>
<text text-anchor="middle" x="613" y="-409.3" font-family="Times,serif" font-size="14.00">MetrStruct(X₁)</text>
<polyline fill="none" stroke="#7f7542" points="444.5,-405.5 781.5,-405.5 "/>
<text text-anchor="middle" x="613" y="-394.3" font-family="Times,serif" font-size="14.00">Sphere(X₁,X₃,R₄) ∪ X₅ ∈ bool(X₆)</text>
<polyline fill="none" stroke="#7f7542" points="444.5,-390.5 781.5,-390.5 "/>
<text text-anchor="middle" x="613" y="-379.3" font-family="Times,serif" font-size="14.00">X₂ ∈ bool(X₆)</text>
<polyline fill="none" stroke="#7f7542" points="444.5,-375.5 781.5,-375.5 "/>
<text text-anchor="middle" x="613" y="-364.3" font-family="Times,serif" font-size="14.00">X₃ ∈ carrier(X₁)</text>
<polyline fill="none" stroke="#7f7542" points="444.5,-360.5 781.5,-360.5 "/>
<text text-anchor="middle" x="613" y="-349.3" font-family="Times,serif" font-size="14.00">dist(X₁,X₃,sk₅(X₆,X₂,Sphere(X₁,X₃,R₄) ∪ X₅)) = R₄</text>
<polyline fill="none" stroke="#7f7542" points="444.5,-345.5 781.5,-345.5 "/>
<text text-anchor="middle" x="613" y="-334.3" font-family="Times,serif" font-size="14.00">sk₅(X₆,X₂,Sphere(X₁,X₃,R₄) ∪ X₅) ∈ carrier(X₁)</text>
<polyline fill="none" stroke="#7f7542" points="444.5,-330.5 781.5,-330.5 "/>
<text text-anchor="middle" x="613" y="-319.3" font-family="Times,serif" font-size="14.00">⇊</text>
<polyline fill="none" stroke="#7f7542" points="444.5,-315.5 781.5,-315.5 "/>
<text text-anchor="middle" x="613" y="-304.3" font-family="Times,serif" font-size="14.00">X₂ ⊆ Sphere(X₁,X₃,R₄) ∪ X₅</text>
<polyline fill="none" stroke="#7f7542" points="444.5,-300.5 781.5,-300.5 "/>
<text text-anchor="middle" x="613" y="-289.3" font-family="Times,serif" font-size="14.00">empty(X₁)</text>
</a>
</g>
</g>
<!-- c_0_70&#45;&gt;c_0_78 -->
<g id="edge3" class="edge">
<title>c_0_70&#45;&gt;c_0_78</title>
<path fill="none" stroke="black" d="M687.25,-285.25C687.25,-285.25 687.25,-258.76 687.25,-258.76"/>
<polygon fill="black" stroke="black" points="690.75,-258.76 687.25,-248.76 683.75,-258.76 690.75,-258.76"/>
</g>
<!-- c_0_71 -->
<g id="node4" class="node">
<title>c_0_71</title>
<g id="a_node4"><a xlink:href="c_0_71.html" xlink:title="{MetrStruct(X₁)|X₂ ∈ carrier(X₁)|X₅ ∪ Ball(X₁,X₂,R₄) ∈ bool(X₃)|cl_Ball(X₁,X₂,R₄) ∈ bool(X₃)|⇊|cl_Ball(X₁,X₂,R₄) ⊆ X₅ ∪ Ball(X₁,X₂,R₄)|dist(X₁,X₂,sk₅(X₃,cl_Ball(X₁,X₂,R₄),X₅ ∪ Ball(X₁,X₂,R₄))) = R₄}" target="_vizar">
<polygon fill="#f8edd1" stroke="#7f7542" points="16,-300.5 16,-405.5 426,-405.5 426,-300.5 16,-300.5"/>
<text text-anchor="middle" x="221" y="-394.3" font-family="Times,serif" font-size="14.00">MetrStruct(X₁)</text>
<polyline fill="none" stroke="#7f7542" points="16,-390.5 426,-390.5 "/>
<text text-anchor="middle" x="221" y="-379.3" font-family="Times,serif" font-size="14.00">X₂ ∈ carrier(X₁)</text>
<polyline fill="none" stroke="#7f7542" points="16,-375.5 426,-375.5 "/>
<text text-anchor="middle" x="221" y="-364.3" font-family="Times,serif" font-size="14.00">X₅ ∪ Ball(X₁,X₂,R₄) ∈ bool(X₃)</text>
<polyline fill="none" stroke="#7f7542" points="16,-360.5 426,-360.5 "/>
<text text-anchor="middle" x="221" y="-349.3" font-family="Times,serif" font-size="14.00">cl_Ball(X₁,X₂,R₄) ∈ bool(X₃)</text>
<polyline fill="none" stroke="#7f7542" points="16,-345.5 426,-345.5 "/>
<text text-anchor="middle" x="221" y="-334.3" font-family="Times,serif" font-size="14.00">⇊</text>
<polyline fill="none" stroke="#7f7542" points="16,-330.5 426,-330.5 "/>
<text text-anchor="middle" x="221" y="-319.3" font-family="Times,serif" font-size="14.00">cl_Ball(X₁,X₂,R₄) ⊆ X₅ ∪ Ball(X₁,X₂,R₄)</text>
<polyline fill="none" stroke="#7f7542" points="16,-315.5 426,-315.5 "/>
<text text-anchor="middle" x="221" y="-304.3" font-family="Times,serif" font-size="14.00">dist(X₁,X₂,sk₅(X₃,cl_Ball(X₁,X₂,R₄),X₅ ∪ Ball(X₁,X₂,R₄))) = R₄</text>
</a>
</g>
</g>
<!-- c_0_71&#45;&gt;c_0_78 -->
<g id="edge4" class="edge">
<title>c_0_71&#45;&gt;c_0_78</title>
<path fill="none" stroke="black" d="M221,-300.12C221,-256.93 221,-203 221,-203 221,-203 582.83,-203 582.83,-203"/>
<polygon fill="black" stroke="black" points="582.83,-206.5 592.83,-203 582.83,-199.5 582.83,-206.5"/>
</g>
<!-- c_0_85 -->
<g id="node6" class="node">
<title>c_0_85</title>
<g id="a_node6"><a xlink:href="c_0_85.html" xlink:title="{Ball(X₁,X₂,R₃) ∈ bool(X₄)|MetrStruct(X₁)|Sphere(X₁,X₂,R₃) ∈ bool(X₄)|X₂ ∈ carrier(X₁)|cl_Ball(X₁,X₂,R₃) ∈ bool(X₄)|⇊|cl_Ball(X₁,X₂,R₃) ⊆ Sphere(X₁,X₂,R₃) ∪ Ball(X₁,X₂,R₃)}" target="_vizar">
<polygon fill="#f8edd1" stroke="#7f7542" points="593,-16.5 593,-121.5 957,-121.5 957,-16.5 593,-16.5"/>
<text text-anchor="middle" x="775" y="-110.3" font-family="Times,serif" font-size="14.00">Ball(X₁,X₂,R₃) ∈ bool(X₄)</text>
<polyline fill="none" stroke="#7f7542" points="593,-106.5 957,-106.5 "/>
<text text-anchor="middle" x="775" y="-95.3" font-family="Times,serif" font-size="14.00">MetrStruct(X₁)</text>
<polyline fill="none" stroke="#7f7542" points="593,-91.5 957,-91.5 "/>
<text text-anchor="middle" x="775" y="-80.3" font-family="Times,serif" font-size="14.00">Sphere(X₁,X₂,R₃) ∈ bool(X₄)</text>
<polyline fill="none" stroke="#7f7542" points="593,-76.5 957,-76.5 "/>
<text text-anchor="middle" x="775" y="-65.3" font-family="Times,serif" font-size="14.00">X₂ ∈ carrier(X₁)</text>
<polyline fill="none" stroke="#7f7542" points="593,-61.5 957,-61.5 "/>
<text text-anchor="middle" x="775" y="-50.3" font-family="Times,serif" font-size="14.00">cl_Ball(X₁,X₂,R₃) ∈ bool(X₄)</text>
<polyline fill="none" stroke="#7f7542" points="593,-46.5 957,-46.5 "/>
<text text-anchor="middle" x="775" y="-35.3" font-family="Times,serif" font-size="14.00">⇊</text>
<polyline fill="none" stroke="#7f7542" points="593,-31.5 957,-31.5 "/>
<text text-anchor="middle" x="775" y="-20.3" font-family="Times,serif" font-size="14.00">cl_Ball(X₁,X₂,R₃) ⊆ Sphere(X₁,X₂,R₃) ∪ Ball(X₁,X₂,R₃)</text>
</a>
</g>
</g>
<!-- c_0_78&#45;&gt;c_0_85 -->
<g id="edge5" class="edge">
<title>c_0_78&#45;&gt;c_0_85</title>
<path fill="none" stroke="black" stroke-dasharray="5,2" d="M775,-158.34C775,-158.34 775,-131.72 775,-131.72"/>
<polygon fill="black" stroke="black" points="778.5,-131.72 775,-121.72 771.5,-131.72 778.5,-131.72"/>
</g>
</g>
</svg>
