<?xml version="1.0" encoding="UTF-8" standalone="no"?>
<!DOCTYPE svg PUBLIC "-//W3C//DTD SVG 1.1//EN"
 "http://www.w3.org/Graphics/SVG/1.1/DTD/svg11.dtd">
<!-- Generated by graphviz version 5.0.0 (0)
 -->
<!-- Title: proof Pages: 1 -->
<svg width="951pt" height="310pt"
 viewBox="0.00 0.00 951.00 310.00" xmlns="http://www.w3.org/2000/svg" xmlns:xlink="http://www.w3.org/1999/xlink">
<g id="graph0" class="graph" transform="scale(1 1) rotate(0) translate(4 306)">
<title>proof</title>
<g id="clust1" class="cluster">
<title>cluster_0</title>
<polygon fill="transparent" stroke="black" stroke-dasharray="1,5" points="487,-262 487,-294 589,-294 589,-262 487,-262"/>
</g>
<g id="clust2" class="cluster">
<title>cluster_1</title>
<polygon fill="transparent" stroke="black" stroke-width="2" points="469,-150 469,-242 607,-242 607,-150 469,-150"/>
</g>
<g id="clust3" class="cluster">
<title>cluster_2</title>
<polygon fill="transparent" stroke="black" stroke-dasharray="1,5" points="8,-8 8,-130 935,-130 935,-8 8,-8"/>
</g>
<!-- t2_subset_1 -->
<g id="node1" class="node">
<title>t2_subset_1</title>
<g id="a_node1"><a xlink:href="t2_subset_1.html" xlink:title="t2_subset_1" target="_parent">
<polygon fill="#69d2e7" stroke="#7f7542" points="495.5,-270.5 495.5,-285.5 580.5,-285.5 580.5,-270.5 495.5,-270.5"/>
<text text-anchor="middle" x="538" y="-274.3" font-family="Times,serif" font-size="14.00">t2_subset_1</text>
</a>
</g>
</g>
<!-- c_0_54 -->
<g id="node2" class="node">
<title>c_0_54</title>
<g id="a_node2"><a xlink:href="c_0_54.html" xlink:title="{X₂ ∈ bool(X₁)|X₃ ∈ bool(X₁)|⇊|X₂ ⊆ X₃|sk₅(X₁,X₂,X₃) ∈ X₂}" target="_parent">
<polygon fill="#f8edd1" stroke="#7f7542" points="477.5,-158.5 477.5,-233.5 598.5,-233.5 598.5,-158.5 477.5,-158.5"/>
<text text-anchor="middle" x="538" y="-222.3" font-family="Times,serif" font-size="14.00">X₂ ∈ bool(X₁)</text>
<polyline fill="none" stroke="#7f7542" points="477.5,-218.5 598.5,-218.5 "/>
<text text-anchor="middle" x="538" y="-207.3" font-family="Times,serif" font-size="14.00">X₃ ∈ bool(X₁)</text>
<polyline fill="none" stroke="#7f7542" points="477.5,-203.5 598.5,-203.5 "/>
<text text-anchor="middle" x="538" y="-192.3" font-family="Times,serif" font-size="14.00">⇊</text>
<polyline fill="none" stroke="#7f7542" points="477.5,-188.5 598.5,-188.5 "/>
<text text-anchor="middle" x="538" y="-177.3" font-family="Times,serif" font-size="14.00">X₂ ⊆ X₃</text>
<polyline fill="none" stroke="#7f7542" points="477.5,-173.5 598.5,-173.5 "/>
<text text-anchor="middle" x="538" y="-162.3" font-family="Times,serif" font-size="14.00">sk₅(X₁,X₂,X₃) ∈ X₂</text>
</a>
</g>
</g>
<!-- t2_subset_1&#45;&gt;c_0_54 -->
<g id="edge1" class="edge">
<title>t2_subset_1&#45;&gt;c_0_54</title>
<path fill="none" stroke="black" d="M538,-270.43C538,-270.43 538,-243.67 538,-243.67"/>
<polygon fill="black" stroke="black" points="541.5,-243.67 538,-233.67 534.5,-243.67 541.5,-243.67"/>
</g>
<!-- c_0_66 -->
<g id="node3" class="node">
<title>c_0_66</title>
<g id="a_node3"><a xlink:href="c_0_66.html" xlink:title="{MetrStruct(X₁)|X₂ ∈ carrier(X₁)|X₄ ∈ bool(X₅)|cl_Ball(X₁,X₂,R₃) ∈ bool(X₅)|⇊|cl_Ball(X₁,X₂,R₃) ⊆ X₄|sk₅(X₅,cl_Ball(X₁,X₂,R₃),X₄) ∈ carrier(X₁)}" target="_parent">
<polygon fill="#f8edd1" stroke="#7f7542" points="649.5,-16.5 649.5,-121.5 926.5,-121.5 926.5,-16.5 649.5,-16.5"/>
<text text-anchor="middle" x="788" y="-110.3" font-family="Times,serif" font-size="14.00">MetrStruct(X₁)</text>
<polyline fill="none" stroke="#7f7542" points="649.5,-106.5 926.5,-106.5 "/>
<text text-anchor="middle" x="788" y="-95.3" font-family="Times,serif" font-size="14.00">X₂ ∈ carrier(X₁)</text>
<polyline fill="none" stroke="#7f7542" points="649.5,-91.5 926.5,-91.5 "/>
<text text-anchor="middle" x="788" y="-80.3" font-family="Times,serif" font-size="14.00">X₄ ∈ bool(X₅)</text>
<polyline fill="none" stroke="#7f7542" points="649.5,-76.5 926.5,-76.5 "/>
<text text-anchor="middle" x="788" y="-65.3" font-family="Times,serif" font-size="14.00">cl_Ball(X₁,X₂,R₃) ∈ bool(X₅)</text>
<polyline fill="none" stroke="#7f7542" points="649.5,-61.5 926.5,-61.5 "/>
<text text-anchor="middle" x="788" y="-50.3" font-family="Times,serif" font-size="14.00">⇊</text>
<polyline fill="none" stroke="#7f7542" points="649.5,-46.5 926.5,-46.5 "/>
<text text-anchor="middle" x="788" y="-35.3" font-family="Times,serif" font-size="14.00">cl_Ball(X₁,X₂,R₃) ⊆ X₄</text>
<polyline fill="none" stroke="#7f7542" points="649.5,-31.5 926.5,-31.5 "/>
<text text-anchor="middle" x="788" y="-20.3" font-family="Times,serif" font-size="14.00">sk₅(X₅,cl_Ball(X₁,X₂,R₃),X₄) ∈ carrier(X₁)</text>
</a>
</g>
</g>
<!-- c_0_54&#45;&gt;c_0_66 -->
<g id="edge2" class="edge">
<title>c_0_54&#45;&gt;c_0_66</title>
<path fill="none" stroke="black" stroke-dasharray="5,2" d="M598.52,-196C672.51,-196 788,-196 788,-196 788,-196 788,-131.76 788,-131.76"/>
<polygon fill="black" stroke="black" points="791.5,-131.76 788,-121.76 784.5,-131.76 791.5,-131.76"/>
</g>
<!-- c_0_72 -->
<g id="node4" class="node">
<title>c_0_72</title>
<g id="a_node4"><a xlink:href="c_0_72.html" xlink:title="{MetrStruct(X₁)|X₂ ∈ carrier(X₁)|X₄ ∈ bool(X₅)|cl_Ball(X₁,X₂,R₃) ∈ bool(X₅)|empty(X₁)|⇊|cl_Ball(X₁,X₂,R₃) ⊆ X₄}" target="_parent">
<polygon fill="#f8edd1" stroke="#7f7542" points="444.5,-16.5 444.5,-121.5 631.5,-121.5 631.5,-16.5 444.5,-16.5"/>
<text text-anchor="middle" x="538" y="-110.3" font-family="Times,serif" font-size="14.00">MetrStruct(X₁)</text>
<polyline fill="none" stroke="#7f7542" points="444.5,-106.5 631.5,-106.5 "/>
<text text-anchor="middle" x="538" y="-95.3" font-family="Times,serif" font-size="14.00">X₂ ∈ carrier(X₁)</text>
<polyline fill="none" stroke="#7f7542" points="444.5,-91.5 631.5,-91.5 "/>
<text text-anchor="middle" x="538" y="-80.3" font-family="Times,serif" font-size="14.00">X₄ ∈ bool(X₅)</text>
<polyline fill="none" stroke="#7f7542" points="444.5,-76.5 631.5,-76.5 "/>
<text text-anchor="middle" x="538" y="-65.3" font-family="Times,serif" font-size="14.00">cl_Ball(X₁,X₂,R₃) ∈ bool(X₅)</text>
<polyline fill="none" stroke="#7f7542" points="444.5,-61.5 631.5,-61.5 "/>
<text text-anchor="middle" x="538" y="-50.3" font-family="Times,serif" font-size="14.00">empty(X₁)</text>
<polyline fill="none" stroke="#7f7542" points="444.5,-46.5 631.5,-46.5 "/>
<text text-anchor="middle" x="538" y="-35.3" font-family="Times,serif" font-size="14.00">⇊</text>
<polyline fill="none" stroke="#7f7542" points="444.5,-31.5 631.5,-31.5 "/>
<text text-anchor="middle" x="538" y="-20.3" font-family="Times,serif" font-size="14.00">cl_Ball(X₁,X₂,R₃) ⊆ X₄</text>
</a>
</g>
</g>
<!-- c_0_54&#45;&gt;c_0_72 -->
<g id="edge3" class="edge">
<title>c_0_54&#45;&gt;c_0_72</title>
<path fill="none" stroke="black" stroke-dasharray="5,2" d="M538,-158.24C538,-158.24 538,-131.89 538,-131.89"/>
<polygon fill="black" stroke="black" points="541.5,-131.89 538,-121.89 534.5,-131.89 541.5,-131.89"/>
</g>
<!-- c_0_57 -->
<g id="node5" class="node">
<title>c_0_57</title>
<g id="a_node5"><a xlink:href="c_0_57.html" xlink:title="{MetrStruct(X₁)|X₂ ∈ carrier(X₁)|X₅ ∪ Ball(X₁,X₂,R₄) ∈ bool(X₃)|cl_Ball(X₁,X₂,R₄) ∈ bool(X₃)|⇊|cl_Ball(X₁,X₂,R₄) ⊆ X₅ ∪ Ball(X₁,X₂,R₄)|dist(X₁,X₂,sk₅(X₃,cl_Ball(X₁,X₂,R₄),X₅ ∪ Ball(X₁,X₂,R₄))) = R₄}" target="_parent">
<polygon fill="#f8edd1" stroke="#7f7542" points="16,-16.5 16,-121.5 426,-121.5 426,-16.5 16,-16.5"/>
<text text-anchor="middle" x="221" y="-110.3" font-family="Times,serif" font-size="14.00">MetrStruct(X₁)</text>
<polyline fill="none" stroke="#7f7542" points="16,-106.5 426,-106.5 "/>
<text text-anchor="middle" x="221" y="-95.3" font-family="Times,serif" font-size="14.00">X₂ ∈ carrier(X₁)</text>
<polyline fill="none" stroke="#7f7542" points="16,-91.5 426,-91.5 "/>
<text text-anchor="middle" x="221" y="-80.3" font-family="Times,serif" font-size="14.00">X₅ ∪ Ball(X₁,X₂,R₄) ∈ bool(X₃)</text>
<polyline fill="none" stroke="#7f7542" points="16,-76.5 426,-76.5 "/>
<text text-anchor="middle" x="221" y="-65.3" font-family="Times,serif" font-size="14.00">cl_Ball(X₁,X₂,R₄) ∈ bool(X₃)</text>
<polyline fill="none" stroke="#7f7542" points="16,-61.5 426,-61.5 "/>
<text text-anchor="middle" x="221" y="-50.3" font-family="Times,serif" font-size="14.00">⇊</text>
<polyline fill="none" stroke="#7f7542" points="16,-46.5 426,-46.5 "/>
<text text-anchor="middle" x="221" y="-35.3" font-family="Times,serif" font-size="14.00">cl_Ball(X₁,X₂,R₄) ⊆ X₅ ∪ Ball(X₁,X₂,R₄)</text>
<polyline fill="none" stroke="#7f7542" points="16,-31.5 426,-31.5 "/>
<text text-anchor="middle" x="221" y="-20.3" font-family="Times,serif" font-size="14.00">dist(X₁,X₂,sk₅(X₃,cl_Ball(X₁,X₂,R₄),X₅ ∪ Ball(X₁,X₂,R₄))) = R₄</text>
</a>
</g>
</g>
<!-- c_0_54&#45;&gt;c_0_57 -->
<g id="edge4" class="edge">
<title>c_0_54&#45;&gt;c_0_57</title>
<path fill="none" stroke="black" stroke-dasharray="5,2" d="M477.25,-196C385.21,-196 221,-196 221,-196 221,-196 221,-131.76 221,-131.76"/>
<polygon fill="black" stroke="black" points="224.5,-131.76 221,-121.76 217.5,-131.76 224.5,-131.76"/>
</g>
</g>
</svg>
