<?xml version="1.0" encoding="UTF-8" standalone="no"?>
<!DOCTYPE svg PUBLIC "-//W3C//DTD SVG 1.1//EN"
 "http://www.w3.org/Graphics/SVG/1.1/DTD/svg11.dtd">
<!-- Generated by graphviz version 5.0.0 (0)
 -->
<!-- Title: proof Pages: 1 -->
<svg width="622pt" height="415pt"
 viewBox="0.00 0.00 622.00 415.00" xmlns="http://www.w3.org/2000/svg" xmlns:xlink="http://www.w3.org/1999/xlink">
<g id="graph0" class="graph" transform="scale(1 1) rotate(0) translate(4 411)">
<title>proof</title>
<g id="clust1" class="cluster">
<title>cluster_0</title>
<polygon fill="transparent" stroke="black" stroke-dasharray="1,5" points="8,-277 8,-399 606,-399 606,-277 8,-277"/>
</g>
<g id="clust2" class="cluster">
<title>cluster_1</title>
<polygon fill="transparent" stroke="black" stroke-width="2" points="140,-135 140,-257 344,-257 344,-135 140,-135"/>
</g>
<g id="clust3" class="cluster">
<title>cluster_2</title>
<polygon fill="transparent" stroke="black" stroke-dasharray="1,5" points="52,-8 52,-115 432,-115 432,-8 52,-8"/>
</g>
<!-- c_0_66 -->
<g id="node1" class="node">
<title>c_0_66</title>
<g id="a_node1"><a xlink:href="c_0_66.html" xlink:title="{MetrStruct(X₁)|X₂ ∈ carrier(X₁)|X₄ ∈ bool(X₅)|cl_Ball(X₁,X₂,R₃) ∈ bool(X₅)|⇊|cl_Ball(X₁,X₂,R₃) ⊆ X₄|sk₅(X₅,cl_Ball(X₁,X₂,R₃),X₄) ∈ carrier(X₁)}" target="_vizar">
<polygon fill="#f8edd1" stroke="#7f7542" points="320.5,-285.5 320.5,-390.5 597.5,-390.5 597.5,-285.5 320.5,-285.5"/>
<text text-anchor="middle" x="459" y="-379.3" font-family="Times,serif" font-size="14.00">MetrStruct(X₁)</text>
<polyline fill="none" stroke="#7f7542" points="320.5,-375.5 597.5,-375.5 "/>
<text text-anchor="middle" x="459" y="-364.3" font-family="Times,serif" font-size="14.00">X₂ ∈ carrier(X₁)</text>
<polyline fill="none" stroke="#7f7542" points="320.5,-360.5 597.5,-360.5 "/>
<text text-anchor="middle" x="459" y="-349.3" font-family="Times,serif" font-size="14.00">X₄ ∈ bool(X₅)</text>
<polyline fill="none" stroke="#7f7542" points="320.5,-345.5 597.5,-345.5 "/>
<text text-anchor="middle" x="459" y="-334.3" font-family="Times,serif" font-size="14.00">cl_Ball(X₁,X₂,R₃) ∈ bool(X₅)</text>
<polyline fill="none" stroke="#7f7542" points="320.5,-330.5 597.5,-330.5 "/>
<text text-anchor="middle" x="459" y="-319.3" font-family="Times,serif" font-size="14.00">⇊</text>
<polyline fill="none" stroke="#7f7542" points="320.5,-315.5 597.5,-315.5 "/>
<text text-anchor="middle" x="459" y="-304.3" font-family="Times,serif" font-size="14.00">cl_Ball(X₁,X₂,R₃) ⊆ X₄</text>
<polyline fill="none" stroke="#7f7542" points="320.5,-300.5 597.5,-300.5 "/>
<text text-anchor="middle" x="459" y="-289.3" font-family="Times,serif" font-size="14.00">sk₅(X₅,cl_Ball(X₁,X₂,R₃),X₄) ∈ carrier(X₁)</text>
</a>
</g>
</g>
<!-- c_0_72 -->
<g id="node4" class="node">
<title>c_0_72</title>
<g id="a_node4"><a xlink:href="c_0_72.html" xlink:title="{MetrStruct(X₁)|X₂ ∈ carrier(X₁)|X₄ ∈ bool(X₅)|cl_Ball(X₁,X₂,R₃) ∈ bool(X₅)|empty(X₁)|⇊|cl_Ball(X₁,X₂,R₃) ⊆ X₄}" target="_vizar">
<polygon fill="#f8edd1" stroke="#7f7542" points="148.5,-143.5 148.5,-248.5 335.5,-248.5 335.5,-143.5 148.5,-143.5"/>
<text text-anchor="middle" x="242" y="-237.3" font-family="Times,serif" font-size="14.00">MetrStruct(X₁)</text>
<polyline fill="none" stroke="#7f7542" points="148.5,-233.5 335.5,-233.5 "/>
<text text-anchor="middle" x="242" y="-222.3" font-family="Times,serif" font-size="14.00">X₂ ∈ carrier(X₁)</text>
<polyline fill="none" stroke="#7f7542" points="148.5,-218.5 335.5,-218.5 "/>
<text text-anchor="middle" x="242" y="-207.3" font-family="Times,serif" font-size="14.00">X₄ ∈ bool(X₅)</text>
<polyline fill="none" stroke="#7f7542" points="148.5,-203.5 335.5,-203.5 "/>
<text text-anchor="middle" x="242" y="-192.3" font-family="Times,serif" font-size="14.00">cl_Ball(X₁,X₂,R₃) ∈ bool(X₅)</text>
<polyline fill="none" stroke="#7f7542" points="148.5,-188.5 335.5,-188.5 "/>
<text text-anchor="middle" x="242" y="-177.3" font-family="Times,serif" font-size="14.00">empty(X₁)</text>
<polyline fill="none" stroke="#7f7542" points="148.5,-173.5 335.5,-173.5 "/>
<text text-anchor="middle" x="242" y="-162.3" font-family="Times,serif" font-size="14.00">⇊</text>
<polyline fill="none" stroke="#7f7542" points="148.5,-158.5 335.5,-158.5 "/>
<text text-anchor="middle" x="242" y="-147.3" font-family="Times,serif" font-size="14.00">cl_Ball(X₁,X₂,R₃) ⊆ X₄</text>
</a>
</g>
</g>
<!-- c_0_66&#45;&gt;c_0_72 -->
<g id="edge1" class="edge">
<title>c_0_66&#45;&gt;c_0_72</title>
<path fill="none" stroke="black" d="M328,-285.12C328,-285.12 328,-258.92 328,-258.92"/>
<polygon fill="black" stroke="black" points="331.5,-258.92 328,-248.92 324.5,-258.92 331.5,-258.92"/>
</g>
<!-- c_0_54 -->
<g id="node2" class="node">
<title>c_0_54</title>
<g id="a_node2"><a xlink:href="c_0_54.html" xlink:title="{X₂ ∈ bool(X₁)|X₃ ∈ bool(X₁)|⇊|X₂ ⊆ X₃|sk₅(X₁,X₂,X₃) ∈ X₂}" target="_vizar">
<polygon fill="#f8edd1" stroke="#7f7542" points="181.5,-300.5 181.5,-375.5 302.5,-375.5 302.5,-300.5 181.5,-300.5"/>
<text text-anchor="middle" x="242" y="-364.3" font-family="Times,serif" font-size="14.00">X₂ ∈ bool(X₁)</text>
<polyline fill="none" stroke="#7f7542" points="181.5,-360.5 302.5,-360.5 "/>
<text text-anchor="middle" x="242" y="-349.3" font-family="Times,serif" font-size="14.00">X₃ ∈ bool(X₁)</text>
<polyline fill="none" stroke="#7f7542" points="181.5,-345.5 302.5,-345.5 "/>
<text text-anchor="middle" x="242" y="-334.3" font-family="Times,serif" font-size="14.00">⇊</text>
<polyline fill="none" stroke="#7f7542" points="181.5,-330.5 302.5,-330.5 "/>
<text text-anchor="middle" x="242" y="-319.3" font-family="Times,serif" font-size="14.00">X₂ ⊆ X₃</text>
<polyline fill="none" stroke="#7f7542" points="181.5,-315.5 302.5,-315.5 "/>
<text text-anchor="middle" x="242" y="-304.3" font-family="Times,serif" font-size="14.00">sk₅(X₁,X₂,X₃) ∈ X₂</text>
</a>
</g>
</g>
<!-- c_0_54&#45;&gt;c_0_72 -->
<g id="edge2" class="edge">
<title>c_0_54&#45;&gt;c_0_72</title>
<path fill="none" stroke="black" d="M242,-300.32C242,-300.32 242,-258.56 242,-258.56"/>
<polygon fill="black" stroke="black" points="245.5,-258.56 242,-248.56 238.5,-258.56 245.5,-258.56"/>
</g>
<!-- c_0_40 -->
<g id="node3" class="node">
<title>c_0_40</title>
<g id="a_node3"><a xlink:href="c_0_40.html" xlink:title="{MetrStruct(X₁)|X₂ ∈ carrier(X₁)|X₂ ∈ cl_Ball(X₁,X₃,R₄)|X₃ ∈ carrier(X₁)|empty(X₁)|⇊|⊥}" target="_vizar">
<polygon fill="#f8edd1" stroke="#7f7542" points="16.5,-285.5 16.5,-390.5 163.5,-390.5 163.5,-285.5 16.5,-285.5"/>
<text text-anchor="middle" x="90" y="-379.3" font-family="Times,serif" font-size="14.00">MetrStruct(X₁)</text>
<polyline fill="none" stroke="#7f7542" points="16.5,-375.5 163.5,-375.5 "/>
<text text-anchor="middle" x="90" y="-364.3" font-family="Times,serif" font-size="14.00">X₂ ∈ carrier(X₁)</text>
<polyline fill="none" stroke="#7f7542" points="16.5,-360.5 163.5,-360.5 "/>
<text text-anchor="middle" x="90" y="-349.3" font-family="Times,serif" font-size="14.00">X₂ ∈ cl_Ball(X₁,X₃,R₄)</text>
<polyline fill="none" stroke="#7f7542" points="16.5,-345.5 163.5,-345.5 "/>
<text text-anchor="middle" x="90" y="-334.3" font-family="Times,serif" font-size="14.00">X₃ ∈ carrier(X₁)</text>
<polyline fill="none" stroke="#7f7542" points="16.5,-330.5 163.5,-330.5 "/>
<text text-anchor="middle" x="90" y="-319.3" font-family="Times,serif" font-size="14.00">empty(X₁)</text>
<polyline fill="none" stroke="#7f7542" points="16.5,-315.5 163.5,-315.5 "/>
<text text-anchor="middle" x="90" y="-304.3" font-family="Times,serif" font-size="14.00">⇊</text>
<polyline fill="none" stroke="#7f7542" points="16.5,-300.5 163.5,-300.5 "/>
<text text-anchor="middle" x="90" y="-289.3" font-family="Times,serif" font-size="14.00">⊥</text>
</a>
</g>
</g>
<!-- c_0_40&#45;&gt;c_0_72 -->
<g id="edge3" class="edge">
<title>c_0_40&#45;&gt;c_0_72</title>
<path fill="none" stroke="black" d="M156,-285.12C156,-285.12 156,-258.92 156,-258.92"/>
<polygon fill="black" stroke="black" points="159.5,-258.92 156,-248.92 152.5,-258.92 159.5,-258.92"/>
</g>
<!-- c_0_78 -->
<g id="node5" class="node">
<title>c_0_78</title>
<g id="a_node5"><a xlink:href="c_0_78.html" xlink:title="{MetrStruct(X₁)|Sphere(X₁,X₂,R₃) ∪ Ball(X₁,X₂,R₃) ∈ bool(X₄)|X₂ ∈ carrier(X₁)|cl_Ball(X₁,X₂,R₃) ∈ bool(X₄)|⇊|cl_Ball(X₁,X₂,R₃) ⊆ Sphere(X₁,X₂,R₃) ∪ Ball(X₁,X₂,R₃)}" target="_vizar">
<polygon fill="#f8edd1" stroke="#7f7542" points="60,-16.5 60,-106.5 424,-106.5 424,-16.5 60,-16.5"/>
<text text-anchor="middle" x="242" y="-95.3" font-family="Times,serif" font-size="14.00">MetrStruct(X₁)</text>
<polyline fill="none" stroke="#7f7542" points="60,-91.5 424,-91.5 "/>
<text text-anchor="middle" x="242" y="-80.3" font-family="Times,serif" font-size="14.00">Sphere(X₁,X₂,R₃) ∪ Ball(X₁,X₂,R₃) ∈ bool(X₄)</text>
<polyline fill="none" stroke="#7f7542" points="60,-76.5 424,-76.5 "/>
<text text-anchor="middle" x="242" y="-65.3" font-family="Times,serif" font-size="14.00">X₂ ∈ carrier(X₁)</text>
<polyline fill="none" stroke="#7f7542" points="60,-61.5 424,-61.5 "/>
<text text-anchor="middle" x="242" y="-50.3" font-family="Times,serif" font-size="14.00">cl_Ball(X₁,X₂,R₃) ∈ bool(X₄)</text>
<polyline fill="none" stroke="#7f7542" points="60,-46.5 424,-46.5 "/>
<text text-anchor="middle" x="242" y="-35.3" font-family="Times,serif" font-size="14.00">⇊</text>
<polyline fill="none" stroke="#7f7542" points="60,-31.5 424,-31.5 "/>
<text text-anchor="middle" x="242" y="-20.3" font-family="Times,serif" font-size="14.00">cl_Ball(X₁,X₂,R₃) ⊆ Sphere(X₁,X₂,R₃) ∪ Ball(X₁,X₂,R₃)</text>
</a>
</g>
</g>
<!-- c_0_72&#45;&gt;c_0_78 -->
<g id="edge4" class="edge">
<title>c_0_72&#45;&gt;c_0_78</title>
<path fill="none" stroke="black" stroke-dasharray="5,2" d="M242,-143.23C242,-143.23 242,-116.72 242,-116.72"/>
<polygon fill="black" stroke="black" points="245.5,-116.72 242,-106.72 238.5,-116.72 245.5,-116.72"/>
</g>
</g>
</svg>
