<?xml version="1.0" encoding="UTF-8" standalone="no"?>
<!DOCTYPE svg PUBLIC "-//W3C//DTD SVG 1.1//EN"
 "http://www.w3.org/Graphics/SVG/1.1/DTD/svg11.dtd">
<!-- Generated by graphviz version 5.0.0 (0)
 -->
<!-- Title: proof Pages: 1 -->
<svg width="378pt" height="400pt"
 viewBox="0.00 0.00 378.00 400.00" xmlns="http://www.w3.org/2000/svg" xmlns:xlink="http://www.w3.org/1999/xlink">
<g id="graph0" class="graph" transform="scale(1 1) rotate(0) translate(4 396)">
<title>proof</title>
<g id="clust1" class="cluster">
<title>cluster_0</title>
<polygon fill="transparent" stroke="black" stroke-dasharray="1,5" points="58,-292 58,-384 300,-384 300,-292 58,-292"/>
</g>
<g id="clust2" class="cluster">
<title>cluster_1</title>
<polygon fill="transparent" stroke="black" stroke-width="2" points="98,-180 98,-272 272,-272 272,-180 98,-180"/>
</g>
<g id="clust3" class="cluster">
<title>cluster_2</title>
<polygon fill="transparent" stroke="black" stroke-dasharray="1,5" points="8,-8 8,-160 362,-160 362,-8 8,-8"/>
</g>
<!-- c_0_43 -->
<g id="node1" class="node">
<title>c_0_43</title>
<g id="a_node1"><a xlink:href="c_0_43.html" xlink:title="{Xâ‚ âˆˆ Xâ‚‚|â‡Š|Xâ‚ âˆˆ Xâ‚‚ âˆª Xâ‚ƒ}" target="_vizar">
<polygon fill="#f8edd1" stroke="#7f7542" points="206,-315.5 206,-360.5 292,-360.5 292,-315.5 206,-315.5"/>
<text text-anchor="middle" x="249" y="-349.3" font-family="Times,serif" font-size="14.00">Xâ‚ âˆˆ Xâ‚‚</text>
<polyline fill="none" stroke="#7f7542" points="206,-345.5 292,-345.5 "/>
<text text-anchor="middle" x="249" y="-334.3" font-family="Times,serif" font-size="14.00">â‡Š</text>
<polyline fill="none" stroke="#7f7542" points="206,-330.5 292,-330.5 "/>
<text text-anchor="middle" x="249" y="-319.3" font-family="Times,serif" font-size="14.00">Xâ‚ âˆˆ Xâ‚‚ âˆª Xâ‚ƒ</text>
</a>
</g>
</g>
<!-- c_0_62 -->
<g id="node3" class="node">
<title>c_0_62</title>
<g id="a_node3"><a xlink:href="c_0_62.html" xlink:title="{Xâ‚ âˆˆ ğ’«(Xâ‚„)|Xâ‚‚ âˆª Xâ‚ƒ âˆˆ ğ’«(Xâ‚„)|skâ‚…(Xâ‚„,Xâ‚,Xâ‚‚ âˆª Xâ‚ƒ) âˆˆ Xâ‚‚|â‡Š|Xâ‚ âŠ† Xâ‚‚ âˆª Xâ‚ƒ}" target="_vizar">
<polygon fill="#f8edd1" stroke="#7f7542" points="106.5,-188.5 106.5,-263.5 263.5,-263.5 263.5,-188.5 106.5,-188.5"/>
<text text-anchor="middle" x="185" y="-252.3" font-family="Times,serif" font-size="14.00">Xâ‚ âˆˆ ğ’«(Xâ‚„)</text>
<polyline fill="none" stroke="#7f7542" points="106.5,-248.5 263.5,-248.5 "/>
<text text-anchor="middle" x="185" y="-237.3" font-family="Times,serif" font-size="14.00">Xâ‚‚ âˆª Xâ‚ƒ âˆˆ ğ’«(Xâ‚„)</text>
<polyline fill="none" stroke="#7f7542" points="106.5,-233.5 263.5,-233.5 "/>
<text text-anchor="middle" x="185" y="-222.3" font-family="Times,serif" font-size="14.00">skâ‚…(Xâ‚„,Xâ‚,Xâ‚‚ âˆª Xâ‚ƒ) âˆˆ Xâ‚‚</text>
<polyline fill="none" stroke="#7f7542" points="106.5,-218.5 263.5,-218.5 "/>
<text text-anchor="middle" x="185" y="-207.3" font-family="Times,serif" font-size="14.00">â‡Š</text>
<polyline fill="none" stroke="#7f7542" points="106.5,-203.5 263.5,-203.5 "/>
<text text-anchor="middle" x="185" y="-192.3" font-family="Times,serif" font-size="14.00">Xâ‚ âŠ† Xâ‚‚ âˆª Xâ‚ƒ</text>
</a>
</g>
</g>
<!-- c_0_43&#45;&gt;c_0_62 -->
<g id="edge1" class="edge">
<title>c_0_43&#45;&gt;c_0_62</title>
<path fill="none" stroke="black" d="M234.75,-315.34C234.75,-315.34 234.75,-273.63 234.75,-273.63"/>
<polygon fill="black" stroke="black" points="238.25,-273.63 234.75,-263.63 231.25,-273.63 238.25,-273.63"/>
</g>
<!-- c_0_48 -->
<g id="node2" class="node">
<title>c_0_48</title>
<g id="a_node2"><a xlink:href="c_0_48.html" xlink:title="{Xâ‚‚ âˆˆ ğ’«(Xâ‚)|Xâ‚ƒ âˆˆ ğ’«(Xâ‚)|skâ‚…(Xâ‚,Xâ‚‚,Xâ‚ƒ) âˆˆ Xâ‚ƒ|â‡Š|Xâ‚‚ âŠ† Xâ‚ƒ}" target="_vizar">
<polygon fill="#f8edd1" stroke="#7f7542" points="66.5,-300.5 66.5,-375.5 187.5,-375.5 187.5,-300.5 66.5,-300.5"/>
<text text-anchor="middle" x="127" y="-364.3" font-family="Times,serif" font-size="14.00">Xâ‚‚ âˆˆ ğ’«(Xâ‚)</text>
<polyline fill="none" stroke="#7f7542" points="66.5,-360.5 187.5,-360.5 "/>
<text text-anchor="middle" x="127" y="-349.3" font-family="Times,serif" font-size="14.00">Xâ‚ƒ âˆˆ ğ’«(Xâ‚)</text>
<polyline fill="none" stroke="#7f7542" points="66.5,-345.5 187.5,-345.5 "/>
<text text-anchor="middle" x="127" y="-334.3" font-family="Times,serif" font-size="14.00">skâ‚…(Xâ‚,Xâ‚‚,Xâ‚ƒ) âˆˆ Xâ‚ƒ</text>
<polyline fill="none" stroke="#7f7542" points="66.5,-330.5 187.5,-330.5 "/>
<text text-anchor="middle" x="127" y="-319.3" font-family="Times,serif" font-size="14.00">â‡Š</text>
<polyline fill="none" stroke="#7f7542" points="66.5,-315.5 187.5,-315.5 "/>
<text text-anchor="middle" x="127" y="-304.3" font-family="Times,serif" font-size="14.00">Xâ‚‚ âŠ† Xâ‚ƒ</text>
</a>
</g>
</g>
<!-- c_0_48&#45;&gt;c_0_62 -->
<g id="edge2" class="edge">
<title>c_0_48&#45;&gt;c_0_62</title>
<path fill="none" stroke="black" d="M147,-300.39C147,-300.39 147,-273.7 147,-273.7"/>
<polygon fill="black" stroke="black" points="150.5,-273.7 147,-263.7 143.5,-273.7 150.5,-273.7"/>
</g>
<!-- c_0_70 -->
<g id="node4" class="node">
<title>c_0_70</title>
<g id="a_node4"><a xlink:href="c_0_70.html" xlink:title="{MetrStruct(Xâ‚)|Sphere(Xâ‚,Xâ‚ƒ,Râ‚„) âˆª Xâ‚… âˆˆ ğ’«(Xâ‚†)|Xâ‚‚ âˆˆ ğ’«(Xâ‚†)|Xâ‚ƒ âˆˆ carrier(Xâ‚)|dist(Xâ‚,Xâ‚ƒ,skâ‚…(Xâ‚†,Xâ‚‚,Sphere(Xâ‚,Xâ‚ƒ,Râ‚„) âˆª Xâ‚…)) = Râ‚„|skâ‚…(Xâ‚†,Xâ‚‚,Sphere(Xâ‚,Xâ‚ƒ,Râ‚„) âˆª Xâ‚…) âˆˆ carrier(Xâ‚)|â‡Š|Xâ‚ = Ã˜|Xâ‚‚ âŠ† Sphere(Xâ‚,Xâ‚ƒ,Râ‚„) âˆª Xâ‚…}" target="_vizar">
<polygon fill="#f8edd1" stroke="#7f7542" points="16.5,-16.5 16.5,-151.5 353.5,-151.5 353.5,-16.5 16.5,-16.5"/>
<text text-anchor="middle" x="185" y="-140.3" font-family="Times,serif" font-size="14.00">MetrStruct(Xâ‚)</text>
<polyline fill="none" stroke="#7f7542" points="16.5,-136.5 353.5,-136.5 "/>
<text text-anchor="middle" x="185" y="-125.3" font-family="Times,serif" font-size="14.00">Sphere(Xâ‚,Xâ‚ƒ,Râ‚„) âˆª Xâ‚… âˆˆ ğ’«(Xâ‚†)</text>
<polyline fill="none" stroke="#7f7542" points="16.5,-121.5 353.5,-121.5 "/>
<text text-anchor="middle" x="185" y="-110.3" font-family="Times,serif" font-size="14.00">Xâ‚‚ âˆˆ ğ’«(Xâ‚†)</text>
<polyline fill="none" stroke="#7f7542" points="16.5,-106.5 353.5,-106.5 "/>
<text text-anchor="middle" x="185" y="-95.3" font-family="Times,serif" font-size="14.00">Xâ‚ƒ âˆˆ carrier(Xâ‚)</text>
<polyline fill="none" stroke="#7f7542" points="16.5,-91.5 353.5,-91.5 "/>
<text text-anchor="middle" x="185" y="-80.3" font-family="Times,serif" font-size="14.00">dist(Xâ‚,Xâ‚ƒ,skâ‚…(Xâ‚†,Xâ‚‚,Sphere(Xâ‚,Xâ‚ƒ,Râ‚„) âˆª Xâ‚…)) = Râ‚„</text>
<polyline fill="none" stroke="#7f7542" points="16.5,-76.5 353.5,-76.5 "/>
<text text-anchor="middle" x="185" y="-65.3" font-family="Times,serif" font-size="14.00">skâ‚…(Xâ‚†,Xâ‚‚,Sphere(Xâ‚,Xâ‚ƒ,Râ‚„) âˆª Xâ‚…) âˆˆ carrier(Xâ‚)</text>
<polyline fill="none" stroke="#7f7542" points="16.5,-61.5 353.5,-61.5 "/>
<text text-anchor="middle" x="185" y="-50.3" font-family="Times,serif" font-size="14.00">â‡Š</text>
<polyline fill="none" stroke="#7f7542" points="16.5,-46.5 353.5,-46.5 "/>
<text text-anchor="middle" x="185" y="-35.3" font-family="Times,serif" font-size="14.00">Xâ‚ = Ã˜</text>
<polyline fill="none" stroke="#7f7542" points="16.5,-31.5 353.5,-31.5 "/>
<text text-anchor="middle" x="185" y="-20.3" font-family="Times,serif" font-size="14.00">Xâ‚‚ âŠ† Sphere(Xâ‚,Xâ‚ƒ,Râ‚„) âˆª Xâ‚…</text>
</a>
</g>
</g>
<!-- c_0_62&#45;&gt;c_0_70 -->
<g id="edge3" class="edge">
<title>c_0_62&#45;&gt;c_0_70</title>
<path fill="none" stroke="black" stroke-dasharray="5,2" d="M185,-188.32C185,-188.32 185,-161.52 185,-161.52"/>
<polygon fill="black" stroke="black" points="188.5,-161.52 185,-151.52 181.5,-161.52 188.5,-161.52"/>
</g>
</g>
</svg>
