<?xml version="1.0" encoding="UTF-8" standalone="no"?>
<!DOCTYPE svg PUBLIC "-//W3C//DTD SVG 1.1//EN"
 "http://www.w3.org/Graphics/SVG/1.1/DTD/svg11.dtd">
<!-- Generated by graphviz version 5.0.0 (0)
 -->
<!-- Title: proof Pages: 1 -->
<svg width="268pt" height="280pt"
 viewBox="0.00 0.00 268.00 280.00" xmlns="http://www.w3.org/2000/svg" xmlns:xlink="http://www.w3.org/1999/xlink">
<g id="graph0" class="graph" transform="scale(1 1) rotate(0) translate(4 276)">
<title>proof</title>
<g id="clust1" class="cluster">
<title>cluster_0</title>
<polygon fill="transparent" stroke="black" stroke-dasharray="1,5" points="8,-202 8,-264 252,-264 252,-202 8,-202"/>
</g>
<g id="clust2" class="cluster">
<title>cluster_1</title>
<polygon fill="transparent" stroke="black" stroke-width="2" points="70,-120 70,-182 172,-182 172,-120 70,-120"/>
</g>
<g id="clust3" class="cluster">
<title>cluster_2</title>
<polygon fill="transparent" stroke="black" stroke-dasharray="1,5" points="34,-8 34,-100 208,-100 208,-8 34,-8"/>
</g>
<!-- c_0_44 -->
<g id="node1" class="node">
<title>c_0_44</title>
<g id="a_node1"><a xlink:href="c_0_44.html" xlink:title="{Xâ‚ âˆª Xâ‚‚ = Xâ‚‚ âˆª Xâ‚}" target="_vizar">
<polygon fill="#f8edd1" stroke="#7f7542" points="120,-225.5 120,-240.5 244,-240.5 244,-225.5 120,-225.5"/>
<text text-anchor="middle" x="182" y="-229.3" font-family="Times,serif" font-size="14.00">Xâ‚ âˆª Xâ‚‚ = Xâ‚‚ âˆª Xâ‚</text>
</a>
</g>
</g>
<!-- c_0_49 -->
<g id="node3" class="node">
<title>c_0_49</title>
<g id="a_node3"><a xlink:href="c_0_49.html" xlink:title="{Xâ‚ âˆˆ Xâ‚ƒ|â‡Š|Xâ‚ âˆˆ Xâ‚‚ âˆª Xâ‚ƒ}" target="_vizar">
<polygon fill="#f8edd1" stroke="#7f7542" points="78,-128.5 78,-173.5 164,-173.5 164,-128.5 78,-128.5"/>
<text text-anchor="middle" x="121" y="-162.3" font-family="Times,serif" font-size="14.00">Xâ‚ âˆˆ Xâ‚ƒ</text>
<polyline fill="none" stroke="#7f7542" points="78,-158.5 164,-158.5 "/>
<text text-anchor="middle" x="121" y="-147.3" font-family="Times,serif" font-size="14.00">â‡Š</text>
<polyline fill="none" stroke="#7f7542" points="78,-143.5 164,-143.5 "/>
<text text-anchor="middle" x="121" y="-132.3" font-family="Times,serif" font-size="14.00">Xâ‚ âˆˆ Xâ‚‚ âˆª Xâ‚ƒ</text>
</a>
</g>
</g>
<!-- c_0_44&#45;&gt;c_0_49 -->
<g id="edge1" class="edge">
<title>c_0_44&#45;&gt;c_0_49</title>
<path fill="none" stroke="black" d="M142,-225.43C142,-225.43 142,-183.65 142,-183.65"/>
<polygon fill="black" stroke="black" points="145.5,-183.65 142,-173.65 138.5,-183.65 145.5,-183.65"/>
</g>
<!-- c_0_43 -->
<g id="node2" class="node">
<title>c_0_43</title>
<g id="a_node2"><a xlink:href="c_0_43.html" xlink:title="{Xâ‚ âˆˆ Xâ‚‚|â‡Š|Xâ‚ âˆˆ Xâ‚‚ âˆª Xâ‚ƒ}" target="_vizar">
<polygon fill="#f8edd1" stroke="#7f7542" points="16,-210.5 16,-255.5 102,-255.5 102,-210.5 16,-210.5"/>
<text text-anchor="middle" x="59" y="-244.3" font-family="Times,serif" font-size="14.00">Xâ‚ âˆˆ Xâ‚‚</text>
<polyline fill="none" stroke="#7f7542" points="16,-240.5 102,-240.5 "/>
<text text-anchor="middle" x="59" y="-229.3" font-family="Times,serif" font-size="14.00">â‡Š</text>
<polyline fill="none" stroke="#7f7542" points="16,-225.5 102,-225.5 "/>
<text text-anchor="middle" x="59" y="-214.3" font-family="Times,serif" font-size="14.00">Xâ‚ âˆˆ Xâ‚‚ âˆª Xâ‚ƒ</text>
</a>
</g>
</g>
<!-- c_0_43&#45;&gt;c_0_49 -->
<g id="edge2" class="edge">
<title>c_0_43&#45;&gt;c_0_49</title>
<path fill="none" stroke="black" d="M90,-210.16C90,-210.16 90,-183.72 90,-183.72"/>
<polygon fill="black" stroke="black" points="93.5,-183.72 90,-173.72 86.5,-183.72 93.5,-183.72"/>
</g>
<!-- c_0_51 -->
<g id="node4" class="node">
<title>c_0_51</title>
<g id="a_node4"><a xlink:href="c_0_51.html" xlink:title="{Xâ‚ âˆˆ ğ’«(Xâ‚„)|Xâ‚‚ âˆª Xâ‚ƒ âˆˆ ğ’«(Xâ‚„)|skâ‚…(Xâ‚„,Xâ‚,Xâ‚‚ âˆª Xâ‚ƒ) âˆˆ Xâ‚ƒ|â‡Š|Xâ‚ âŠ† Xâ‚‚ âˆª Xâ‚ƒ}" target="_vizar">
<polygon fill="#f8edd1" stroke="#7f7542" points="42.5,-16.5 42.5,-91.5 199.5,-91.5 199.5,-16.5 42.5,-16.5"/>
<text text-anchor="middle" x="121" y="-80.3" font-family="Times,serif" font-size="14.00">Xâ‚ âˆˆ ğ’«(Xâ‚„)</text>
<polyline fill="none" stroke="#7f7542" points="42.5,-76.5 199.5,-76.5 "/>
<text text-anchor="middle" x="121" y="-65.3" font-family="Times,serif" font-size="14.00">Xâ‚‚ âˆª Xâ‚ƒ âˆˆ ğ’«(Xâ‚„)</text>
<polyline fill="none" stroke="#7f7542" points="42.5,-61.5 199.5,-61.5 "/>
<text text-anchor="middle" x="121" y="-50.3" font-family="Times,serif" font-size="14.00">skâ‚…(Xâ‚„,Xâ‚,Xâ‚‚ âˆª Xâ‚ƒ) âˆˆ Xâ‚ƒ</text>
<polyline fill="none" stroke="#7f7542" points="42.5,-46.5 199.5,-46.5 "/>
<text text-anchor="middle" x="121" y="-35.3" font-family="Times,serif" font-size="14.00">â‡Š</text>
<polyline fill="none" stroke="#7f7542" points="42.5,-31.5 199.5,-31.5 "/>
<text text-anchor="middle" x="121" y="-20.3" font-family="Times,serif" font-size="14.00">Xâ‚ âŠ† Xâ‚‚ âˆª Xâ‚ƒ</text>
</a>
</g>
</g>
<!-- c_0_49&#45;&gt;c_0_51 -->
<g id="edge3" class="edge">
<title>c_0_49&#45;&gt;c_0_51</title>
<path fill="none" stroke="black" stroke-dasharray="5,2" d="M121,-128.01C121,-128.01 121,-101.61 121,-101.61"/>
<polygon fill="black" stroke="black" points="124.5,-101.61 121,-91.61 117.5,-101.61 124.5,-101.61"/>
</g>
</g>
</svg>
