<?xml version="1.0" encoding="UTF-8" standalone="no"?>
<!DOCTYPE svg PUBLIC "-//W3C//DTD SVG 1.1//EN"
 "http://www.w3.org/Graphics/SVG/1.1/DTD/svg11.dtd">
<!-- Generated by graphviz version 5.0.0 (0)
 -->
<!-- Title: proof Pages: 1 -->
<svg width="851pt" height="76pt"
 viewBox="0.00 0.00 850.50 76.00" xmlns="http://www.w3.org/2000/svg" xmlns:xlink="http://www.w3.org/1999/xlink">
<g id="graph0" class="graph" transform="scale(1 1) rotate(0) translate(4 72)">
<title>proof</title>
<!-- t16_metric_1 -->
<g id="node1" class="node">
<title>t16_metric_1</title>
<g id="a_node1"><a xlink:href="t16_metric_1.html" xlink:title="t16_metric_1" target="_parent">
<polygon fill="#fa6900" stroke="#7f7542" points="249.5,-52.5 249.5,-67.5 343.5,-67.5 343.5,-52.5 249.5,-52.5"/>
<text text-anchor="middle" x="296.5" y="-56.3" font-family="Times,serif" font-size="14.00">t16_metric_1</text>
</a>
</g>
</g>
<!-- c_0_99 -->
<g id="node2" class="node">
<title>c_0_99</title>
<g id="a_node2"><a xlink:href="c_0_99.html" xlink:title="{sk₁ ∈ ℝ}" target="_parent">
<polygon fill="#fa6900" stroke="#7f7542" points="0,-0.5 0,-15.5 53,-15.5 53,-0.5 0,-0.5"/>
<text text-anchor="middle" x="26.5" y="-4.3" font-family="Times,serif" font-size="14.00">sk₁ ∈ ℝ</text>
</a>
</g>
</g>
<!-- t16_metric_1&#45;&gt;c_0_99 -->
<g id="edge1" class="edge">
<title>t16_metric_1&#45;&gt;c_0_99</title>
<path fill="none" stroke="black" d="M249.47,-62C172.11,-62 26.5,-62 26.5,-62 26.5,-62 26.5,-25.51 26.5,-25.51"/>
<polygon fill="black" stroke="black" points="30,-25.51 26.5,-15.51 23,-25.51 30,-25.51"/>
</g>
<!-- c_0_97 -->
<g id="node3" class="node">
<title>c_0_97</title>
<g id="a_node3"><a xlink:href="c_0_97.html" xlink:title="{sk₃ ∈ carrier(sk₂)}" target="_parent">
<polygon fill="#fa6900" stroke="#7f7542" points="71,-0.5 71,-15.5 192,-15.5 192,-0.5 71,-0.5"/>
<text text-anchor="middle" x="131.5" y="-4.3" font-family="Times,serif" font-size="14.00">sk₃ ∈ carrier(sk₂)</text>
</a>
</g>
</g>
<!-- t16_metric_1&#45;&gt;c_0_97 -->
<g id="edge2" class="edge">
<title>t16_metric_1&#45;&gt;c_0_97</title>
<path fill="none" stroke="black" d="M249.22,-57C200.46,-57 131.5,-57 131.5,-57 131.5,-57 131.5,-25.66 131.5,-25.66"/>
<polygon fill="black" stroke="black" points="135,-25.66 131.5,-15.66 128,-25.66 135,-25.66"/>
</g>
<!-- c_0_90 -->
<g id="node4" class="node">
<title>c_0_90</title>
<g id="a_node4"><a xlink:href="c_0_90.html" xlink:title="{carrier(sk₂) \/ Sphere(sk₂,sk₃,sk₁) \/ Ball(sk₂,sk₃,sk₁) ≠ cl_Ball(sk₂,sk₃,sk₁)}" target="_parent">
<polygon fill="#fa6900" stroke="#7f7542" points="210.5,-0.5 210.5,-15.5 712.5,-15.5 712.5,-0.5 210.5,-0.5"/>
<text text-anchor="middle" x="461.5" y="-4.3" font-family="Times,serif" font-size="14.00">carrier(sk₂) / Sphere(sk₂,sk₃,sk₁) / Ball(sk₂,sk₃,sk₁) ≠ cl_Ball(sk₂,sk₃,sk₁)</text>
</a>
</g>
</g>
<!-- t16_metric_1&#45;&gt;c_0_90 -->
<g id="edge3" class="edge">
<title>t16_metric_1&#45;&gt;c_0_90</title>
<path fill="none" stroke="black" d="M296.5,-52.33C296.5,-52.33 296.5,-25.7 296.5,-25.7"/>
<polygon fill="black" stroke="black" points="300,-25.7 296.5,-15.7 293,-25.7 300,-25.7"/>
</g>
<!-- c_0_98 -->
<g id="node5" class="node">
<title>c_0_98</title>
<g id="a_node5"><a xlink:href="c_0_98.html" xlink:title="{MetrStruct(sk₂)}" target="_parent">
<polygon fill="#fa6900" stroke="#7f7542" points="730.5,-0.5 730.5,-15.5 842.5,-15.5 842.5,-0.5 730.5,-0.5"/>
<text text-anchor="middle" x="786.5" y="-4.3" font-family="Times,serif" font-size="14.00">MetrStruct(sk₂)</text>
</a>
</g>
</g>
<!-- t16_metric_1&#45;&gt;c_0_98 -->
<g id="edge4" class="edge">
<title>t16_metric_1&#45;&gt;c_0_98</title>
<path fill="none" stroke="black" d="M343.93,-60C466.9,-60 786.5,-60 786.5,-60 786.5,-60 786.5,-25.67 786.5,-25.67"/>
<polygon fill="black" stroke="black" points="790,-25.67 786.5,-15.67 783,-25.67 790,-25.67"/>
</g>
</g>
</svg>
