<?xml version="1.0" encoding="UTF-8" standalone="no"?>
<!DOCTYPE svg PUBLIC "-//W3C//DTD SVG 1.1//EN"
 "http://www.w3.org/Graphics/SVG/1.1/DTD/svg11.dtd">
<!-- Generated by graphviz version 5.0.0 (0)
 -->
<!-- Title: proof Pages: 1 -->
<svg width="766pt" height="280pt"
 viewBox="0.00 0.00 766.00 280.00" xmlns="http://www.w3.org/2000/svg" xmlns:xlink="http://www.w3.org/1999/xlink">
<g id="graph0" class="graph" transform="scale(1 1) rotate(0) translate(4 276)">
<title>proof</title>
<g id="clust1" class="cluster">
<title>cluster_0</title>
<polygon fill="transparent" stroke="black" stroke-dasharray="1,5" points="364,-232 364,-264 452,-264 452,-232 364,-232"/>
</g>
<g id="clust2" class="cluster">
<title>cluster_1</title>
<polygon fill="transparent" stroke="black" stroke-width="2" points="336,-180 336,-212 480,-212 480,-180 336,-180"/>
</g>
<g id="clust3" class="cluster">
<title>cluster_2</title>
<polygon fill="transparent" stroke="black" stroke-dasharray="1,5" points="8,-8 8,-160 750,-160 750,-8 8,-8"/>
</g>
<!-- t20_seq_2 -->
<g id="node1" class="node">
<title>t20_seq_2</title>
<g id="a_node1"><a xlink:href="t20_seq_2.html" xlink:title="t20_seq_2" target="_parent">
<polygon fill="#fa6900" stroke="#7f7542" points="372,-240.5 372,-255.5 444,-255.5 444,-240.5 372,-240.5"/>
<text text-anchor="middle" x="408" y="-244.3" font-family="Times,serif" font-size="14.00">t20_seq_2</text>
</a>
</g>
</g>
<!-- c_0_15 -->
<g id="node2" class="node">
<title>c_0_15</title>
<g id="a_node2"><a xlink:href="c_0_15.html" xlink:title="{sk₂ ∈ bool(ℕ × ℝ)}" target="_parent">
<polygon fill="#fa6900" stroke="#7f7542" points="344.5,-188.5 344.5,-203.5 471.5,-203.5 471.5,-188.5 344.5,-188.5"/>
<text text-anchor="middle" x="408" y="-192.3" font-family="Times,serif" font-size="14.00">sk₂ ∈ bool(ℕ × ℝ)</text>
</a>
</g>
</g>
<!-- t20_seq_2&#45;&gt;c_0_15 -->
<g id="edge1" class="edge">
<title>t20_seq_2&#45;&gt;c_0_15</title>
<path fill="none" stroke="black" d="M408,-240.33C408,-240.33 408,-213.7 408,-213.7"/>
<polygon fill="black" stroke="black" points="411.5,-213.7 408,-203.7 404.5,-213.7 411.5,-213.7"/>
</g>
<!-- c_0_79 -->
<g id="node3" class="node">
<title>c_0_79</title>
<g id="a_node3"><a xlink:href="c_0_79.html" xlink:title="⊥" target="_parent">
<polygon fill="#fa6900" stroke="#7f7542" points="728,-76.5 728,-91.5 742,-91.5 742,-76.5 728,-76.5"/>
<text text-anchor="middle" x="735" y="-80.3" font-family="Times,serif" font-size="14.00">⊥</text>
</a>
</g>
</g>
<!-- c_0_15&#45;&gt;c_0_79 -->
<g id="edge2" class="edge">
<title>c_0_15&#45;&gt;c_0_79</title>
<path fill="none" stroke="black" stroke-dasharray="5,2" d="M471.83,-198C566.99,-198 735,-198 735,-198 735,-198 735,-101.84 735,-101.84"/>
<polygon fill="black" stroke="black" points="738.5,-101.84 735,-91.84 731.5,-101.84 738.5,-101.84"/>
</g>
<!-- c_0_39 -->
<g id="node4" class="node">
<title>c_0_39</title>
<g id="a_node4"><a xlink:href="c_0_39.html" xlink:title="{convergent(sk₃)|sk₅(sk₃,sk₂) ∈ ℕ ⊆ ℝ|⇊|lim(sk₃) ≤ lim(sk₁)}" target="_parent">
<polygon fill="#fa6900" stroke="#7f7542" points="566,-54 566,-114 710,-114 710,-54 566,-54"/>
<text text-anchor="middle" x="638" y="-102.8" font-family="Times,serif" font-size="14.00">convergent(sk₃)</text>
<polyline fill="none" stroke="#7f7542" points="566,-99 710,-99 "/>
<text text-anchor="middle" x="638" y="-87.8" font-family="Times,serif" font-size="14.00">sk₅(sk₃,sk₂) ∈ ℕ ⊆ ℝ</text>
<polyline fill="none" stroke="#7f7542" points="566,-84 710,-84 "/>
<text text-anchor="middle" x="638" y="-72.8" font-family="Times,serif" font-size="14.00">⇊</text>
<polyline fill="none" stroke="#7f7542" points="566,-69 710,-69 "/>
<text text-anchor="middle" x="638" y="-57.8" font-family="Times,serif" font-size="14.00">lim(sk₃) ≤ lim(sk₁)</text>
</a>
</g>
</g>
<!-- c_0_15&#45;&gt;c_0_39 -->
<g id="edge3" class="edge">
<title>c_0_15&#45;&gt;c_0_39</title>
<path fill="none" stroke="black" stroke-dasharray="5,2" d="M471.76,-193C539.83,-193 638,-193 638,-193 638,-193 638,-124.07 638,-124.07"/>
<polygon fill="black" stroke="black" points="641.5,-124.07 638,-114.07 634.5,-124.07 641.5,-124.07"/>
</g>
<!-- c_0_73 -->
<g id="node5" class="node">
<title>c_0_73</title>
<g id="a_node5"><a xlink:href="c_0_73.html" xlink:title="{X₁ . sk₄(X₁,sk₂,sk₃) ≤ sk₃ . sk₄(X₁,sk₂,sk₃)|X₁ ∈ bool(ℕ × ℝ)|convergent(X₁)|function(X₁)|lim(X₁) = lim(sk₁)|quasi_total(X₁,ℕ,ℝ)|sk₄(X₁,sk₂,sk₃) ∈ ℕ ⊆ ℝ|⇊|convergent(sk₃)}" target="_parent">
<polygon fill="#fa6900" stroke="#7f7542" points="268,-16.5 268,-151.5 548,-151.5 548,-16.5 268,-16.5"/>
<text text-anchor="middle" x="408" y="-140.3" font-family="Times,serif" font-size="14.00">X₁ . sk₄(X₁,sk₂,sk₃) ≤ sk₃ . sk₄(X₁,sk₂,sk₃)</text>
<polyline fill="none" stroke="#7f7542" points="268,-136.5 548,-136.5 "/>
<text text-anchor="middle" x="408" y="-125.3" font-family="Times,serif" font-size="14.00">X₁ ∈ bool(ℕ × ℝ)</text>
<polyline fill="none" stroke="#7f7542" points="268,-121.5 548,-121.5 "/>
<text text-anchor="middle" x="408" y="-110.3" font-family="Times,serif" font-size="14.00">convergent(X₁)</text>
<polyline fill="none" stroke="#7f7542" points="268,-106.5 548,-106.5 "/>
<text text-anchor="middle" x="408" y="-95.3" font-family="Times,serif" font-size="14.00">function(X₁)</text>
<polyline fill="none" stroke="#7f7542" points="268,-91.5 548,-91.5 "/>
<text text-anchor="middle" x="408" y="-80.3" font-family="Times,serif" font-size="14.00">lim(X₁) = lim(sk₁)</text>
<polyline fill="none" stroke="#7f7542" points="268,-76.5 548,-76.5 "/>
<text text-anchor="middle" x="408" y="-65.3" font-family="Times,serif" font-size="14.00">quasi_total(X₁,ℕ,ℝ)</text>
<polyline fill="none" stroke="#7f7542" points="268,-61.5 548,-61.5 "/>
<text text-anchor="middle" x="408" y="-50.3" font-family="Times,serif" font-size="14.00">sk₄(X₁,sk₂,sk₃) ∈ ℕ ⊆ ℝ</text>
<polyline fill="none" stroke="#7f7542" points="268,-46.5 548,-46.5 "/>
<text text-anchor="middle" x="408" y="-35.3" font-family="Times,serif" font-size="14.00">⇊</text>
<polyline fill="none" stroke="#7f7542" points="268,-31.5 548,-31.5 "/>
<text text-anchor="middle" x="408" y="-20.3" font-family="Times,serif" font-size="14.00">convergent(sk₃)</text>
</a>
</g>
</g>
<!-- c_0_15&#45;&gt;c_0_73 -->
<g id="edge4" class="edge">
<title>c_0_15&#45;&gt;c_0_73</title>
<path fill="none" stroke="black" stroke-dasharray="5,2" d="M408,-188.3C408,-188.3 408,-161.55 408,-161.55"/>
<polygon fill="black" stroke="black" points="411.5,-161.55 408,-151.55 404.5,-161.55 411.5,-161.55"/>
</g>
<!-- c_0_50 -->
<g id="node6" class="node">
<title>c_0_50</title>
<g id="a_node6"><a xlink:href="c_0_50.html" xlink:title="{convergent(sk₃)|⇊|lim(sk₃) ≤ lim(sk₁)}" target="_parent">
<polygon fill="#fa6900" stroke="#7f7542" points="120,-61.5 120,-106.5 250,-106.5 250,-61.5 120,-61.5"/>
<text text-anchor="middle" x="185" y="-95.3" font-family="Times,serif" font-size="14.00">convergent(sk₃)</text>
<polyline fill="none" stroke="#7f7542" points="120,-91.5 250,-91.5 "/>
<text text-anchor="middle" x="185" y="-80.3" font-family="Times,serif" font-size="14.00">⇊</text>
<polyline fill="none" stroke="#7f7542" points="120,-76.5 250,-76.5 "/>
<text text-anchor="middle" x="185" y="-65.3" font-family="Times,serif" font-size="14.00">lim(sk₃) ≤ lim(sk₁)</text>
</a>
</g>
</g>
<!-- c_0_15&#45;&gt;c_0_50 -->
<g id="edge5" class="edge">
<title>c_0_15&#45;&gt;c_0_50</title>
<path fill="none" stroke="black" stroke-dasharray="5,2" d="M344.4,-193C278.48,-193 185,-193 185,-193 185,-193 185,-116.58 185,-116.58"/>
<polygon fill="black" stroke="black" points="188.5,-116.58 185,-106.58 181.5,-116.58 188.5,-116.58"/>
</g>
<!-- c_0_62 -->
<g id="node7" class="node">
<title>c_0_62</title>
<g id="a_node7"><a xlink:href="c_0_62.html" xlink:title="{lim(sk₁) ∈ ℝ}" target="_parent">
<polygon fill="#fa6900" stroke="#7f7542" points="16,-76.5 16,-91.5 102,-91.5 102,-76.5 16,-76.5"/>
<text text-anchor="middle" x="59" y="-80.3" font-family="Times,serif" font-size="14.00">lim(sk₁) ∈ ℝ</text>
</a>
</g>
</g>
<!-- c_0_15&#45;&gt;c_0_62 -->
<g id="edge6" class="edge">
<title>c_0_15&#45;&gt;c_0_62</title>
<path fill="none" stroke="black" stroke-dasharray="5,2" d="M344.39,-198C243.73,-198 59,-198 59,-198 59,-198 59,-101.84 59,-101.84"/>
<polygon fill="black" stroke="black" points="62.5,-101.84 59,-91.84 55.5,-101.84 62.5,-101.84"/>
</g>
</g>
</svg>
