<?xml version="1.0" encoding="UTF-8" standalone="no"?>
<!DOCTYPE svg PUBLIC "-//W3C//DTD SVG 1.1//EN"
 "http://www.w3.org/Graphics/SVG/1.1/DTD/svg11.dtd">
<!-- Generated by graphviz version 5.0.0 (0)
 -->
<!-- Title: proof Pages: 1 -->
<svg width="320pt" height="505pt"
 viewBox="0.00 0.00 320.00 505.00" xmlns="http://www.w3.org/2000/svg" xmlns:xlink="http://www.w3.org/1999/xlink">
<g id="graph0" class="graph" transform="scale(1 1) rotate(0) translate(4 501)">
<title>proof</title>
<g id="clust1" class="cluster">
<title>cluster_0</title>
<polygon fill="transparent" stroke="black" stroke-dasharray="1,5" points="112,-457 112,-489 200,-489 200,-457 112,-457"/>
</g>
<g id="clust2" class="cluster">
<title>cluster_1</title>
<polygon fill="transparent" stroke="black" stroke-width="2" points="23,-180 23,-437 289,-437 289,-180 23,-180"/>
</g>
<g id="clust3" class="cluster">
<title>cluster_2</title>
<polygon fill="transparent" stroke="black" stroke-dasharray="1,5" points="8,-8 8,-160 304,-160 304,-8 8,-8"/>
</g>
<!-- t19_seq_2 -->
<g id="node1" class="node">
<title>t19_seq_2</title>
<g id="a_node1"><a xlink:href="t19_seq_2.html" xlink:title="t19_seq_2" target="_vizar">
<polygon fill="#69d2e7" stroke="#7f7542" points="120,-465.5 120,-480.5 192,-480.5 192,-465.5 120,-465.5"/>
<text text-anchor="middle" x="156" y="-469.3" font-family="Times,serif" font-size="14.00">t19_seq_2</text>
</a>
</g>
</g>
<!-- c_0_64 -->
<g id="node2" class="node">
<title>c_0_64</title>
<g id="a_node2"><a xlink:href="c_0_64.html" xlink:title="{X₁ . sk₄(X₁,X₂,X₃) ≤ X₃ . sk₄(X₁,X₂,X₃)|X₁ ∈ bool(ℕ × ℝ)|X₂ ∈ bool(ℕ × ℝ)|X₃ . sk₄(X₁,X₂,X₃) ≤ X₂ . sk₄(X₁,X₂,X₃)|X₃ ∈ bool(ℕ × ℝ)|convergent(X₁)|convergent(X₂)|function(X₁)|function(X₂)|function(X₃)|lim(X₁) = lim(X₂)|quasi_total(X₁,ℕ,ℝ)|quasi_total(X₂,ℕ,ℝ)|quasi_total(X₃,ℕ,ℝ)|⇊|convergent(X₃)}" target="_vizar">
<polygon fill="#f8edd1" stroke="#7f7542" points="31,-188.5 31,-428.5 281,-428.5 281,-188.5 31,-188.5"/>
<text text-anchor="middle" x="156" y="-417.3" font-family="Times,serif" font-size="14.00">X₁ . sk₄(X₁,X₂,X₃) ≤ X₃ . sk₄(X₁,X₂,X₃)</text>
<polyline fill="none" stroke="#7f7542" points="31,-413.5 281,-413.5 "/>
<text text-anchor="middle" x="156" y="-402.3" font-family="Times,serif" font-size="14.00">X₁ ∈ bool(ℕ × ℝ)</text>
<polyline fill="none" stroke="#7f7542" points="31,-398.5 281,-398.5 "/>
<text text-anchor="middle" x="156" y="-387.3" font-family="Times,serif" font-size="14.00">X₂ ∈ bool(ℕ × ℝ)</text>
<polyline fill="none" stroke="#7f7542" points="31,-383.5 281,-383.5 "/>
<text text-anchor="middle" x="156" y="-372.3" font-family="Times,serif" font-size="14.00">X₃ . sk₄(X₁,X₂,X₃) ≤ X₂ . sk₄(X₁,X₂,X₃)</text>
<polyline fill="none" stroke="#7f7542" points="31,-368.5 281,-368.5 "/>
<text text-anchor="middle" x="156" y="-357.3" font-family="Times,serif" font-size="14.00">X₃ ∈ bool(ℕ × ℝ)</text>
<polyline fill="none" stroke="#7f7542" points="31,-353.5 281,-353.5 "/>
<text text-anchor="middle" x="156" y="-342.3" font-family="Times,serif" font-size="14.00">convergent(X₁)</text>
<polyline fill="none" stroke="#7f7542" points="31,-338.5 281,-338.5 "/>
<text text-anchor="middle" x="156" y="-327.3" font-family="Times,serif" font-size="14.00">convergent(X₂)</text>
<polyline fill="none" stroke="#7f7542" points="31,-323.5 281,-323.5 "/>
<text text-anchor="middle" x="156" y="-312.3" font-family="Times,serif" font-size="14.00">function(X₁)</text>
<polyline fill="none" stroke="#7f7542" points="31,-308.5 281,-308.5 "/>
<text text-anchor="middle" x="156" y="-297.3" font-family="Times,serif" font-size="14.00">function(X₂)</text>
<polyline fill="none" stroke="#7f7542" points="31,-293.5 281,-293.5 "/>
<text text-anchor="middle" x="156" y="-282.3" font-family="Times,serif" font-size="14.00">function(X₃)</text>
<polyline fill="none" stroke="#7f7542" points="31,-278.5 281,-278.5 "/>
<text text-anchor="middle" x="156" y="-267.3" font-family="Times,serif" font-size="14.00">lim(X₁) = lim(X₂)</text>
<polyline fill="none" stroke="#7f7542" points="31,-263.5 281,-263.5 "/>
<text text-anchor="middle" x="156" y="-252.3" font-family="Times,serif" font-size="14.00">quasi_total(X₁,ℕ,ℝ)</text>
<polyline fill="none" stroke="#7f7542" points="31,-248.5 281,-248.5 "/>
<text text-anchor="middle" x="156" y="-237.3" font-family="Times,serif" font-size="14.00">quasi_total(X₂,ℕ,ℝ)</text>
<polyline fill="none" stroke="#7f7542" points="31,-233.5 281,-233.5 "/>
<text text-anchor="middle" x="156" y="-222.3" font-family="Times,serif" font-size="14.00">quasi_total(X₃,ℕ,ℝ)</text>
<polyline fill="none" stroke="#7f7542" points="31,-218.5 281,-218.5 "/>
<text text-anchor="middle" x="156" y="-207.3" font-family="Times,serif" font-size="14.00">⇊</text>
<polyline fill="none" stroke="#7f7542" points="31,-203.5 281,-203.5 "/>
<text text-anchor="middle" x="156" y="-192.3" font-family="Times,serif" font-size="14.00">convergent(X₃)</text>
</a>
</g>
</g>
<!-- t19_seq_2&#45;&gt;c_0_64 -->
<g id="edge1" class="edge">
<title>t19_seq_2&#45;&gt;c_0_64</title>
<path fill="none" stroke="black" d="M156,-465.07C156,-465.07 156,-438.63 156,-438.63"/>
<polygon fill="black" stroke="black" points="159.5,-438.63 156,-428.63 152.5,-438.63 159.5,-438.63"/>
</g>
<!-- c_0_73 -->
<g id="node3" class="node">
<title>c_0_73</title>
<g id="a_node3"><a xlink:href="c_0_73.html" xlink:title="{X₁ . sk₄(X₁,sk₂,sk₃) ≤ sk₃ . sk₄(X₁,sk₂,sk₃)|X₁ ∈ bool(ℕ × ℝ)|convergent(X₁)|function(X₁)|lim(X₁) = lim(sk₁)|quasi_total(X₁,ℕ,ℝ)|sk₄(X₁,sk₂,sk₃) ∈ ℕ ⊆ ℝ|⇊|convergent(sk₃)}" target="_vizar">
<polygon fill="#fa6900" stroke="#7f7542" points="16,-16.5 16,-151.5 296,-151.5 296,-16.5 16,-16.5"/>
<text text-anchor="middle" x="156" y="-140.3" font-family="Times,serif" font-size="14.00">X₁ . sk₄(X₁,sk₂,sk₃) ≤ sk₃ . sk₄(X₁,sk₂,sk₃)</text>
<polyline fill="none" stroke="#7f7542" points="16,-136.5 296,-136.5 "/>
<text text-anchor="middle" x="156" y="-125.3" font-family="Times,serif" font-size="14.00">X₁ ∈ bool(ℕ × ℝ)</text>
<polyline fill="none" stroke="#7f7542" points="16,-121.5 296,-121.5 "/>
<text text-anchor="middle" x="156" y="-110.3" font-family="Times,serif" font-size="14.00">convergent(X₁)</text>
<polyline fill="none" stroke="#7f7542" points="16,-106.5 296,-106.5 "/>
<text text-anchor="middle" x="156" y="-95.3" font-family="Times,serif" font-size="14.00">function(X₁)</text>
<polyline fill="none" stroke="#7f7542" points="16,-91.5 296,-91.5 "/>
<text text-anchor="middle" x="156" y="-80.3" font-family="Times,serif" font-size="14.00">lim(X₁) = lim(sk₁)</text>
<polyline fill="none" stroke="#7f7542" points="16,-76.5 296,-76.5 "/>
<text text-anchor="middle" x="156" y="-65.3" font-family="Times,serif" font-size="14.00">quasi_total(X₁,ℕ,ℝ)</text>
<polyline fill="none" stroke="#7f7542" points="16,-61.5 296,-61.5 "/>
<text text-anchor="middle" x="156" y="-50.3" font-family="Times,serif" font-size="14.00">sk₄(X₁,sk₂,sk₃) ∈ ℕ ⊆ ℝ</text>
<polyline fill="none" stroke="#7f7542" points="16,-46.5 296,-46.5 "/>
<text text-anchor="middle" x="156" y="-35.3" font-family="Times,serif" font-size="14.00">⇊</text>
<polyline fill="none" stroke="#7f7542" points="16,-31.5 296,-31.5 "/>
<text text-anchor="middle" x="156" y="-20.3" font-family="Times,serif" font-size="14.00">convergent(sk₃)</text>
</a>
</g>
</g>
<!-- c_0_64&#45;&gt;c_0_73 -->
<g id="edge2" class="edge">
<title>c_0_64&#45;&gt;c_0_73</title>
<path fill="none" stroke="black" stroke-dasharray="5,2" d="M156,-188.36C156,-188.36 156,-161.56 156,-161.56"/>
<polygon fill="black" stroke="black" points="159.5,-161.56 156,-151.56 152.5,-161.56 159.5,-161.56"/>
</g>
</g>
</svg>
