<?xml version="1.0" encoding="UTF-8" standalone="no"?>
<!DOCTYPE svg PUBLIC "-//W3C//DTD SVG 1.1//EN"
 "http://www.w3.org/Graphics/SVG/1.1/DTD/svg11.dtd">
<!-- Generated by graphviz version 5.0.0 (0)
 -->
<!-- Title: proof Pages: 1 -->
<svg width="482pt" height="310pt"
 viewBox="0.00 0.00 482.00 310.00" xmlns="http://www.w3.org/2000/svg" xmlns:xlink="http://www.w3.org/1999/xlink">
<g id="graph0" class="graph" transform="scale(1 1) rotate(0) translate(4 306)">
<title>proof</title>
<g id="clust1" class="cluster">
<title>cluster_0</title>
<polygon fill="transparent" stroke="black" stroke-dasharray="1,5" points="159,-262 159,-294 247,-294 247,-262 159,-262"/>
</g>
<g id="clust2" class="cluster">
<title>cluster_1</title>
<polygon fill="transparent" stroke="black" stroke-width="2" points="134,-180 134,-242 272,-242 272,-180 134,-180"/>
</g>
<g id="clust3" class="cluster">
<title>cluster_2</title>
<polygon fill="transparent" stroke="black" stroke-dasharray="1,5" points="8,-8 8,-160 466,-160 466,-8 8,-8"/>
</g>
<!-- t20_seq_2 -->
<g id="node1" class="node">
<title>t20_seq_2</title>
<g id="a_node1"><a xlink:href="t20_seq_2.html" xlink:title="t20_seq_2" target="_parent">
<polygon fill="#fa6900" stroke="#7f7542" points="167,-270.5 167,-285.5 239,-285.5 239,-270.5 167,-270.5"/>
<text text-anchor="middle" x="203" y="-274.3" font-family="Times,serif" font-size="14.00">t20_seq_2</text>
</a>
</g>
</g>
<!-- c_0_12 -->
<g id="node2" class="node">
<title>c_0_12</title>
<g id="a_node2"><a xlink:href="c_0_12.html" xlink:title="{X₁ ∈ ℕ ⊆ ℝ|⇊|sk₃ . X₁ ≤ sk₂ . X₁}" target="_parent">
<polygon fill="#fa6900" stroke="#7f7542" points="142.5,-188.5 142.5,-233.5 263.5,-233.5 263.5,-188.5 142.5,-188.5"/>
<text text-anchor="middle" x="203" y="-222.3" font-family="Times,serif" font-size="14.00">X₁ ∈ ℕ ⊆ ℝ</text>
<polyline fill="none" stroke="#7f7542" points="142.5,-218.5 263.5,-218.5 "/>
<text text-anchor="middle" x="203" y="-207.3" font-family="Times,serif" font-size="14.00">⇊</text>
<polyline fill="none" stroke="#7f7542" points="142.5,-203.5 263.5,-203.5 "/>
<text text-anchor="middle" x="203" y="-192.3" font-family="Times,serif" font-size="14.00">sk₃ . X₁ ≤ sk₂ . X₁</text>
</a>
</g>
</g>
<!-- t20_seq_2&#45;&gt;c_0_12 -->
<g id="edge1" class="edge">
<title>t20_seq_2&#45;&gt;c_0_12</title>
<path fill="none" stroke="black" d="M203,-270.31C203,-270.31 203,-243.76 203,-243.76"/>
<polygon fill="black" stroke="black" points="206.5,-243.76 203,-233.76 199.5,-243.76 206.5,-243.76"/>
</g>
<!-- c_0_73 -->
<g id="node3" class="node">
<title>c_0_73</title>
<g id="a_node3"><a xlink:href="c_0_73.html" xlink:title="{X₁ . sk₄(X₁,sk₂,sk₃) ≤ sk₃ . sk₄(X₁,sk₂,sk₃)|X₁ ∈ bool(ℕ × ℝ)|convergent(X₁)|function(X₁)|lim(X₁) = lim(sk₁)|quasi_total(X₁,ℕ,ℝ)|sk₄(X₁,sk₂,sk₃) ∈ ℕ ⊆ ℝ|⇊|convergent(sk₃)}" target="_parent">
<polygon fill="#fa6900" stroke="#7f7542" points="178,-16.5 178,-151.5 458,-151.5 458,-16.5 178,-16.5"/>
<text text-anchor="middle" x="318" y="-140.3" font-family="Times,serif" font-size="14.00">X₁ . sk₄(X₁,sk₂,sk₃) ≤ sk₃ . sk₄(X₁,sk₂,sk₃)</text>
<polyline fill="none" stroke="#7f7542" points="178,-136.5 458,-136.5 "/>
<text text-anchor="middle" x="318" y="-125.3" font-family="Times,serif" font-size="14.00">X₁ ∈ bool(ℕ × ℝ)</text>
<polyline fill="none" stroke="#7f7542" points="178,-121.5 458,-121.5 "/>
<text text-anchor="middle" x="318" y="-110.3" font-family="Times,serif" font-size="14.00">convergent(X₁)</text>
<polyline fill="none" stroke="#7f7542" points="178,-106.5 458,-106.5 "/>
<text text-anchor="middle" x="318" y="-95.3" font-family="Times,serif" font-size="14.00">function(X₁)</text>
<polyline fill="none" stroke="#7f7542" points="178,-91.5 458,-91.5 "/>
<text text-anchor="middle" x="318" y="-80.3" font-family="Times,serif" font-size="14.00">lim(X₁) = lim(sk₁)</text>
<polyline fill="none" stroke="#7f7542" points="178,-76.5 458,-76.5 "/>
<text text-anchor="middle" x="318" y="-65.3" font-family="Times,serif" font-size="14.00">quasi_total(X₁,ℕ,ℝ)</text>
<polyline fill="none" stroke="#7f7542" points="178,-61.5 458,-61.5 "/>
<text text-anchor="middle" x="318" y="-50.3" font-family="Times,serif" font-size="14.00">sk₄(X₁,sk₂,sk₃) ∈ ℕ ⊆ ℝ</text>
<polyline fill="none" stroke="#7f7542" points="178,-46.5 458,-46.5 "/>
<text text-anchor="middle" x="318" y="-35.3" font-family="Times,serif" font-size="14.00">⇊</text>
<polyline fill="none" stroke="#7f7542" points="178,-31.5 458,-31.5 "/>
<text text-anchor="middle" x="318" y="-20.3" font-family="Times,serif" font-size="14.00">convergent(sk₃)</text>
</a>
</g>
</g>
<!-- c_0_12&#45;&gt;c_0_73 -->
<g id="edge2" class="edge">
<title>c_0_12&#45;&gt;c_0_73</title>
<path fill="none" stroke="black" stroke-dasharray="5,2" d="M220.75,-188.29C220.75,-188.29 220.75,-161.72 220.75,-161.72"/>
<polygon fill="black" stroke="black" points="224.25,-161.72 220.75,-151.72 217.25,-161.72 224.25,-161.72"/>
</g>
<!-- c_0_39 -->
<g id="node4" class="node">
<title>c_0_39</title>
<g id="a_node4"><a xlink:href="c_0_39.html" xlink:title="{convergent(sk₃)|sk₅(sk₃,sk₂) ∈ ℕ ⊆ ℝ|⇊|lim(sk₃) ≤ lim(sk₁)}" target="_parent">
<polygon fill="#fa6900" stroke="#7f7542" points="16,-54 16,-114 160,-114 160,-54 16,-54"/>
<text text-anchor="middle" x="88" y="-102.8" font-family="Times,serif" font-size="14.00">convergent(sk₃)</text>
<polyline fill="none" stroke="#7f7542" points="16,-99 160,-99 "/>
<text text-anchor="middle" x="88" y="-87.8" font-family="Times,serif" font-size="14.00">sk₅(sk₃,sk₂) ∈ ℕ ⊆ ℝ</text>
<polyline fill="none" stroke="#7f7542" points="16,-84 160,-84 "/>
<text text-anchor="middle" x="88" y="-72.8" font-family="Times,serif" font-size="14.00">⇊</text>
<polyline fill="none" stroke="#7f7542" points="16,-69 160,-69 "/>
<text text-anchor="middle" x="88" y="-57.8" font-family="Times,serif" font-size="14.00">lim(sk₃) ≤ lim(sk₁)</text>
</a>
</g>
</g>
<!-- c_0_12&#45;&gt;c_0_39 -->
<g id="edge3" class="edge">
<title>c_0_12&#45;&gt;c_0_39</title>
<path fill="none" stroke="black" stroke-dasharray="5,2" d="M151.25,-188.29C151.25,-188.29 151.25,-124.15 151.25,-124.15"/>
<polygon fill="black" stroke="black" points="154.75,-124.15 151.25,-114.15 147.75,-124.15 154.75,-124.15"/>
</g>
</g>
</svg>
