<?xml version="1.0" encoding="UTF-8" standalone="no"?>
<!DOCTYPE svg PUBLIC "-//W3C//DTD SVG 1.1//EN"
 "http://www.w3.org/Graphics/SVG/1.1/DTD/svg11.dtd">
<!-- Generated by graphviz version 5.0.0 (0)
 -->
<!-- Title: proof Pages: 1 -->
<svg width="202pt" height="190pt"
 viewBox="0.00 0.00 202.00 190.00" xmlns="http://www.w3.org/2000/svg" xmlns:xlink="http://www.w3.org/1999/xlink">
<g id="graph0" class="graph" transform="scale(1 1) rotate(0) translate(4 186)">
<title>proof</title>
<g id="clust1" class="cluster">
<title>cluster_0</title>
<polygon fill="transparent" stroke="black" stroke-dasharray="1,5" points="35,-142 35,-174 159,-174 159,-142 35,-142"/>
</g>
<g id="clust2" class="cluster">
<title>cluster_1</title>
<polygon fill="transparent" stroke="black" stroke-width="2" points="8,-60 8,-122 186,-122 186,-60 8,-60"/>
</g>
<g id="clust3" class="cluster">
<title>cluster_2</title>
<polygon fill="transparent" stroke="black" stroke-dasharray="1,5" points="19,-8 19,-40 175,-40 175,-8 19,-8"/>
</g>
<!-- cc4_membered -->
<g id="node1" class="node">
<title>cc4_membered</title>
<g id="a_node1"><a xlink:href="cc4_membered.html" xlink:title="cc4_membered" target="_vizar">
<polygon fill="#69d2e7" stroke="#7f7542" points="43,-150.5 43,-165.5 151,-165.5 151,-150.5 43,-150.5"/>
<text text-anchor="middle" x="97" y="-154.3" font-family="Times,serif" font-size="14.00">cc4_membered</text>
</a>
</g>
</g>
<!-- c_0_67 -->
<g id="node2" class="node">
<title>c_0_67</title>
<g id="a_node2"><a xlink:href="c_0_67.html" xlink:title="{X₁ ⊆ ℝ|⇊|ext&#45;real&#45;membered(X₁)}" target="_vizar">
<polygon fill="#f8edd1" stroke="#7f7542" points="16,-68.5 16,-113.5 178,-113.5 178,-68.5 16,-68.5"/>
<text text-anchor="middle" x="97" y="-102.3" font-family="Times,serif" font-size="14.00">X₁ ⊆ ℝ</text>
<polyline fill="none" stroke="#7f7542" points="16,-98.5 178,-98.5 "/>
<text text-anchor="middle" x="97" y="-87.3" font-family="Times,serif" font-size="14.00">⇊</text>
<polyline fill="none" stroke="#7f7542" points="16,-83.5 178,-83.5 "/>
<text text-anchor="middle" x="97" y="-72.3" font-family="Times,serif" font-size="14.00">ext&#45;real&#45;membered(X₁)</text>
</a>
</g>
</g>
<!-- cc4_membered&#45;&gt;c_0_67 -->
<g id="edge1" class="edge">
<title>cc4_membered&#45;&gt;c_0_67</title>
<path fill="none" stroke="black" d="M97,-150.31C97,-150.31 97,-123.76 97,-123.76"/>
<polygon fill="black" stroke="black" points="100.5,-123.76 97,-113.76 93.5,-123.76 100.5,-123.76"/>
</g>
<!-- c_0_74 -->
<g id="node3" class="node">
<title>c_0_74</title>
<g id="a_node3"><a xlink:href="c_0_74.html" xlink:title="{¬ (convergent(sk₃))}" target="_vizar">
<polygon fill="#fa6900" stroke="#7f7542" points="27.5,-16.5 27.5,-31.5 166.5,-31.5 166.5,-16.5 27.5,-16.5"/>
<text text-anchor="middle" x="97" y="-20.3" font-family="Times,serif" font-size="14.00">¬ (convergent(sk₃))</text>
</a>
</g>
</g>
<!-- c_0_67&#45;&gt;c_0_74 -->
<g id="edge2" class="edge">
<title>c_0_67&#45;&gt;c_0_74</title>
<path fill="none" stroke="black" stroke-dasharray="5,2" d="M97,-68.32C97,-68.32 97,-41.59 97,-41.59"/>
<polygon fill="black" stroke="black" points="100.5,-41.59 97,-31.59 93.5,-41.59 100.5,-41.59"/>
</g>
</g>
</svg>
