<?xml version="1.0" encoding="UTF-8" standalone="no"?>
<!DOCTYPE svg PUBLIC "-//W3C//DTD SVG 1.1//EN"
 "http://www.w3.org/Graphics/SVG/1.1/DTD/svg11.dtd">
<!-- Generated by graphviz version 5.0.0 (0)
 -->
<!-- Title: proof Pages: 1 -->
<svg width="1007pt" height="280pt"
 viewBox="0.00 0.00 1007.00 280.00" xmlns="http://www.w3.org/2000/svg" xmlns:xlink="http://www.w3.org/1999/xlink">
<g id="graph0" class="graph" transform="scale(1 1) rotate(0) translate(4 276)">
<title>proof</title>
<g id="clust1" class="cluster">
<title>cluster_0</title>
<polygon fill="transparent" stroke="black" stroke-dasharray="1,5" points="8,-112 8,-264 991,-264 991,-112 8,-112"/>
</g>
<g id="clust2" class="cluster">
<title>cluster_1</title>
<polygon fill="transparent" stroke="black" stroke-width="2" points="326,-60 326,-92 538,-92 538,-60 326,-60"/>
</g>
<g id="clust3" class="cluster">
<title>cluster_2</title>
<polygon fill="transparent" stroke="black" stroke-dasharray="1,5" points="417,-8 417,-40 447,-40 447,-8 417,-8"/>
</g>
<!-- c_0_75 -->
<g id="node1" class="node">
<title>c_0_75</title>
<g id="a_node1"><a xlink:href="c_0_75.html" xlink:title="{X₁ . sk₄(X₁,sk₂,sk₃) ≤ sk₃ . sk₄(X₁,sk₂,sk₃)|X₁ ∈ bool(ℕ × ℝ)|convergent(X₁)|function(X₁)|lim(X₁) = lim(sk₁)|quasi_total(X₁,ℕ,ℝ)|sk₄(X₁,sk₂,sk₃) ∈ ℕ ⊆ ℝ|⇊|⊥}" target="_parent">
<polygon fill="#fa6900" stroke="#7f7542" points="703,-120.5 703,-255.5 983,-255.5 983,-120.5 703,-120.5"/>
<text text-anchor="middle" x="843" y="-244.3" font-family="Times,serif" font-size="14.00">X₁ . sk₄(X₁,sk₂,sk₃) ≤ sk₃ . sk₄(X₁,sk₂,sk₃)</text>
<polyline fill="none" stroke="#7f7542" points="703,-240.5 983,-240.5 "/>
<text text-anchor="middle" x="843" y="-229.3" font-family="Times,serif" font-size="14.00">X₁ ∈ bool(ℕ × ℝ)</text>
<polyline fill="none" stroke="#7f7542" points="703,-225.5 983,-225.5 "/>
<text text-anchor="middle" x="843" y="-214.3" font-family="Times,serif" font-size="14.00">convergent(X₁)</text>
<polyline fill="none" stroke="#7f7542" points="703,-210.5 983,-210.5 "/>
<text text-anchor="middle" x="843" y="-199.3" font-family="Times,serif" font-size="14.00">function(X₁)</text>
<polyline fill="none" stroke="#7f7542" points="703,-195.5 983,-195.5 "/>
<text text-anchor="middle" x="843" y="-184.3" font-family="Times,serif" font-size="14.00">lim(X₁) = lim(sk₁)</text>
<polyline fill="none" stroke="#7f7542" points="703,-180.5 983,-180.5 "/>
<text text-anchor="middle" x="843" y="-169.3" font-family="Times,serif" font-size="14.00">quasi_total(X₁,ℕ,ℝ)</text>
<polyline fill="none" stroke="#7f7542" points="703,-165.5 983,-165.5 "/>
<text text-anchor="middle" x="843" y="-154.3" font-family="Times,serif" font-size="14.00">sk₄(X₁,sk₂,sk₃) ∈ ℕ ⊆ ℝ</text>
<polyline fill="none" stroke="#7f7542" points="703,-150.5 983,-150.5 "/>
<text text-anchor="middle" x="843" y="-139.3" font-family="Times,serif" font-size="14.00">⇊</text>
<polyline fill="none" stroke="#7f7542" points="703,-135.5 983,-135.5 "/>
<text text-anchor="middle" x="843" y="-124.3" font-family="Times,serif" font-size="14.00">⊥</text>
</a>
</g>
</g>
<!-- c_0_77 -->
<g id="node7" class="node">
<title>c_0_77</title>
<g id="a_node7"><a xlink:href="c_0_77.html" xlink:title="{¬ (sk₄(sk₁,sk₂,sk₃) ∈ ℕ ⊆ ℝ)}" target="_parent">
<polygon fill="#fa6900" stroke="#7f7542" points="334,-68.5 334,-83.5 530,-83.5 530,-68.5 334,-68.5"/>
<text text-anchor="middle" x="432" y="-72.3" font-family="Times,serif" font-size="14.00">¬ (sk₄(sk₁,sk₂,sk₃) ∈ ℕ ⊆ ℝ)</text>
</a>
</g>
</g>
<!-- c_0_75&#45;&gt;c_0_77 -->
<g id="edge1" class="edge">
<title>c_0_75&#45;&gt;c_0_77</title>
<path fill="none" stroke="black" d="M702.74,-142C612.16,-142 511.12,-142 511.12,-142 511.12,-142 511.12,-93.57 511.12,-93.57"/>
<polygon fill="black" stroke="black" points="514.63,-93.57 511.12,-83.57 507.63,-93.57 514.63,-93.57"/>
</g>
<!-- c_0_33 -->
<g id="node2" class="node">
<title>c_0_33</title>
<g id="a_node2"><a xlink:href="c_0_33.html" xlink:title="{X₁ ∈ ℕ ⊆ ℝ|⇊|sk₁ . X₁ ≤ sk₃ . X₁}" target="_parent">
<polygon fill="#fa6900" stroke="#7f7542" points="563.5,-165.5 563.5,-210.5 684.5,-210.5 684.5,-165.5 563.5,-165.5"/>
<text text-anchor="middle" x="624" y="-199.3" font-family="Times,serif" font-size="14.00">X₁ ∈ ℕ ⊆ ℝ</text>
<polyline fill="none" stroke="#7f7542" points="563.5,-195.5 684.5,-195.5 "/>
<text text-anchor="middle" x="624" y="-184.3" font-family="Times,serif" font-size="14.00">⇊</text>
<polyline fill="none" stroke="#7f7542" points="563.5,-180.5 684.5,-180.5 "/>
<text text-anchor="middle" x="624" y="-169.3" font-family="Times,serif" font-size="14.00">sk₁ . X₁ ≤ sk₃ . X₁</text>
</a>
</g>
</g>
<!-- c_0_33&#45;&gt;c_0_77 -->
<g id="edge2" class="edge">
<title>c_0_33&#45;&gt;c_0_77</title>
<path fill="none" stroke="black" d="M563.14,-172C528.62,-172 492.25,-172 492.25,-172 492.25,-172 492.25,-93.53 492.25,-93.53"/>
<polygon fill="black" stroke="black" points="495.75,-93.53 492.25,-83.53 488.75,-93.53 495.75,-93.53"/>
</g>
<!-- c_0_37 -->
<g id="node3" class="node">
<title>c_0_37</title>
<g id="a_node3"><a xlink:href="c_0_37.html" xlink:title="{function(sk₁)}" target="_parent">
<polygon fill="#fa6900" stroke="#7f7542" points="454.5,-180.5 454.5,-195.5 545.5,-195.5 545.5,-180.5 454.5,-180.5"/>
<text text-anchor="middle" x="500" y="-184.3" font-family="Times,serif" font-size="14.00">function(sk₁)</text>
</a>
</g>
</g>
<!-- c_0_37&#45;&gt;c_0_77 -->
<g id="edge3" class="edge">
<title>c_0_37&#45;&gt;c_0_77</title>
<path fill="none" stroke="black" d="M473.38,-180.3C473.38,-180.3 473.38,-93.75 473.38,-93.75"/>
<polygon fill="black" stroke="black" points="476.88,-93.75 473.38,-83.75 469.88,-93.75 476.88,-93.75"/>
</g>
<!-- c_0_36 -->
<g id="node4" class="node">
<title>c_0_36</title>
<g id="a_node4"><a xlink:href="c_0_36.html" xlink:title="{quasi_total(sk₁,ℕ,ℝ)}" target="_parent">
<polygon fill="#fa6900" stroke="#7f7542" points="292,-180.5 292,-195.5 436,-195.5 436,-180.5 292,-180.5"/>
<text text-anchor="middle" x="364" y="-184.3" font-family="Times,serif" font-size="14.00">quasi_total(sk₁,ℕ,ℝ)</text>
</a>
</g>
</g>
<!-- c_0_36&#45;&gt;c_0_77 -->
<g id="edge4" class="edge">
<title>c_0_36&#45;&gt;c_0_77</title>
<path fill="none" stroke="black" d="M385,-180.3C385,-180.3 385,-93.75 385,-93.75"/>
<polygon fill="black" stroke="black" points="388.5,-93.75 385,-83.75 381.5,-93.75 388.5,-93.75"/>
</g>
<!-- c_0_34 -->
<g id="node5" class="node">
<title>c_0_34</title>
<g id="a_node5"><a xlink:href="c_0_34.html" xlink:title="{convergent(sk₁)}" target="_parent">
<polygon fill="#fa6900" stroke="#7f7542" points="162,-180.5 162,-195.5 274,-195.5 274,-180.5 162,-180.5"/>
<text text-anchor="middle" x="218" y="-184.3" font-family="Times,serif" font-size="14.00">convergent(sk₁)</text>
</a>
</g>
</g>
<!-- c_0_34&#45;&gt;c_0_77 -->
<g id="edge5" class="edge">
<title>c_0_34&#45;&gt;c_0_77</title>
<path fill="none" stroke="black" d="M218,-180.44C218,-155.59 218,-78 218,-78 218,-78 323.77,-78 323.77,-78"/>
<polygon fill="black" stroke="black" points="323.77,-81.5 333.77,-78 323.77,-74.5 323.77,-81.5"/>
</g>
<!-- c_0_35 -->
<g id="node6" class="node">
<title>c_0_35</title>
<g id="a_node6"><a xlink:href="c_0_35.html" xlink:title="{sk₁ ∈ bool(ℕ × ℝ)}" target="_parent">
<polygon fill="#fa6900" stroke="#7f7542" points="16.5,-180.5 16.5,-195.5 143.5,-195.5 143.5,-180.5 16.5,-180.5"/>
<text text-anchor="middle" x="80" y="-184.3" font-family="Times,serif" font-size="14.00">sk₁ ∈ bool(ℕ × ℝ)</text>
</a>
</g>
</g>
<!-- c_0_35&#45;&gt;c_0_77 -->
<g id="edge6" class="edge">
<title>c_0_35&#45;&gt;c_0_77</title>
<path fill="none" stroke="black" d="M80,-180.45C80,-154.87 80,-73 80,-73 80,-73 323.95,-73 323.95,-73"/>
<polygon fill="black" stroke="black" points="323.95,-76.5 333.95,-73 323.95,-69.5 323.95,-76.5"/>
</g>
<!-- c_0_79 -->
<g id="node8" class="node">
<title>c_0_79</title>
<g id="a_node8"><a xlink:href="c_0_79.html" xlink:title="⊥" target="_parent">
<polygon fill="#fa6900" stroke="#7f7542" points="425,-16.5 425,-31.5 439,-31.5 439,-16.5 425,-16.5"/>
<text text-anchor="middle" x="432" y="-20.3" font-family="Times,serif" font-size="14.00">⊥</text>
</a>
</g>
</g>
<!-- c_0_77&#45;&gt;c_0_79 -->
<g id="edge7" class="edge">
<title>c_0_77&#45;&gt;c_0_79</title>
<path fill="none" stroke="black" stroke-dasharray="5,2" d="M432,-68.33C432,-68.33 432,-41.7 432,-41.7"/>
<polygon fill="black" stroke="black" points="435.5,-41.7 432,-31.7 428.5,-41.7 435.5,-41.7"/>
</g>
</g>
</svg>
