<?xml version="1.0" encoding="UTF-8" standalone="no"?>
<!DOCTYPE svg PUBLIC "-//W3C//DTD SVG 1.1//EN"
 "http://www.w3.org/Graphics/SVG/1.1/DTD/svg11.dtd">
<!-- Generated by graphviz version 5.0.0 (0)
 -->
<!-- Title: proof Pages: 1 -->
<svg width="766pt" height="280pt"
 viewBox="0.00 0.00 766.00 280.00" xmlns="http://www.w3.org/2000/svg" xmlns:xlink="http://www.w3.org/1999/xlink">
<g id="graph0" class="graph" transform="scale(1 1) rotate(0) translate(4 276)">
<title>proof</title>
<g id="clust1" class="cluster">
<title>cluster_0</title>
<polygon fill="transparent" stroke="black" stroke-dasharray="1,5" points="144,-232 144,-264 290,-264 290,-232 144,-232"/>
</g>
<g id="clust2" class="cluster">
<title>cluster_1</title>
<polygon fill="transparent" stroke="black" stroke-width="2" points="144,-180 144,-212 290,-212 290,-180 144,-180"/>
</g>
<g id="clust3" class="cluster">
<title>cluster_2</title>
<polygon fill="transparent" stroke="black" stroke-dasharray="1,5" points="8,-8 8,-160 750,-160 750,-8 8,-8"/>
</g>
<!-- c_0_13 -->
<g id="node1" class="node">
<title>c_0_13</title>
<g id="a_node1"><a xlink:href="c_0_13.html" xlink:title="{lim(sk₁) = lim(sk₂)}" target="_parent">
<polygon fill="#fa6900" stroke="#7f7542" points="152,-240.5 152,-255.5 282,-255.5 282,-240.5 152,-240.5"/>
<text text-anchor="middle" x="217" y="-244.3" font-family="Times,serif" font-size="14.00">lim(sk₁) = lim(sk₂)</text>
</a>
</g>
</g>
<!-- c_0_24 -->
<g id="node2" class="node">
<title>c_0_24</title>
<g id="a_node2"><a xlink:href="c_0_24.html" xlink:title="{lim(sk₂) = lim(sk₁)}" target="_parent">
<polygon fill="#fa6900" stroke="#7f7542" points="152,-188.5 152,-203.5 282,-203.5 282,-188.5 152,-188.5"/>
<text text-anchor="middle" x="217" y="-192.3" font-family="Times,serif" font-size="14.00">lim(sk₂) = lim(sk₁)</text>
</a>
</g>
</g>
<!-- c_0_13&#45;&gt;c_0_24 -->
<g id="edge1" class="edge">
<title>c_0_13&#45;&gt;c_0_24</title>
<path fill="none" stroke="black" d="M217,-240.33C217,-240.33 217,-213.7 217,-213.7"/>
<polygon fill="black" stroke="black" points="220.5,-213.7 217,-203.7 213.5,-213.7 220.5,-213.7"/>
</g>
<!-- c_0_39 -->
<g id="node3" class="node">
<title>c_0_39</title>
<g id="a_node3"><a xlink:href="c_0_39.html" xlink:title="{convergent(sk₃)|sk₅(sk₃,sk₂) ∈ ℕ ⊆ ℝ|⇊|lim(sk₃) ≤ lim(sk₁)}" target="_parent">
<polygon fill="#fa6900" stroke="#7f7542" points="598,-54 598,-114 742,-114 742,-54 598,-54"/>
<text text-anchor="middle" x="670" y="-102.8" font-family="Times,serif" font-size="14.00">convergent(sk₃)</text>
<polyline fill="none" stroke="#7f7542" points="598,-99 742,-99 "/>
<text text-anchor="middle" x="670" y="-87.8" font-family="Times,serif" font-size="14.00">sk₅(sk₃,sk₂) ∈ ℕ ⊆ ℝ</text>
<polyline fill="none" stroke="#7f7542" points="598,-84 742,-84 "/>
<text text-anchor="middle" x="670" y="-72.8" font-family="Times,serif" font-size="14.00">⇊</text>
<polyline fill="none" stroke="#7f7542" points="598,-69 742,-69 "/>
<text text-anchor="middle" x="670" y="-57.8" font-family="Times,serif" font-size="14.00">lim(sk₃) ≤ lim(sk₁)</text>
</a>
</g>
</g>
<!-- c_0_24&#45;&gt;c_0_39 -->
<g id="edge2" class="edge">
<title>c_0_24&#45;&gt;c_0_39</title>
<path fill="none" stroke="black" stroke-dasharray="5,2" d="M282.39,-196C407.84,-196 670,-196 670,-196 670,-196 670,-124.01 670,-124.01"/>
<polygon fill="black" stroke="black" points="673.5,-124.01 670,-114.01 666.5,-124.01 673.5,-124.01"/>
</g>
<!-- c_0_73 -->
<g id="node4" class="node">
<title>c_0_73</title>
<g id="a_node4"><a xlink:href="c_0_73.html" xlink:title="{X₁ . sk₄(X₁,sk₂,sk₃) ≤ sk₃ . sk₄(X₁,sk₂,sk₃)|X₁ ∈ bool(ℕ × ℝ)|convergent(X₁)|function(X₁)|lim(X₁) = lim(sk₁)|quasi_total(X₁,ℕ,ℝ)|sk₄(X₁,sk₂,sk₃) ∈ ℕ ⊆ ℝ|⇊|convergent(sk₃)}" target="_parent">
<polygon fill="#fa6900" stroke="#7f7542" points="300,-16.5 300,-151.5 580,-151.5 580,-16.5 300,-16.5"/>
<text text-anchor="middle" x="440" y="-140.3" font-family="Times,serif" font-size="14.00">X₁ . sk₄(X₁,sk₂,sk₃) ≤ sk₃ . sk₄(X₁,sk₂,sk₃)</text>
<polyline fill="none" stroke="#7f7542" points="300,-136.5 580,-136.5 "/>
<text text-anchor="middle" x="440" y="-125.3" font-family="Times,serif" font-size="14.00">X₁ ∈ bool(ℕ × ℝ)</text>
<polyline fill="none" stroke="#7f7542" points="300,-121.5 580,-121.5 "/>
<text text-anchor="middle" x="440" y="-110.3" font-family="Times,serif" font-size="14.00">convergent(X₁)</text>
<polyline fill="none" stroke="#7f7542" points="300,-106.5 580,-106.5 "/>
<text text-anchor="middle" x="440" y="-95.3" font-family="Times,serif" font-size="14.00">function(X₁)</text>
<polyline fill="none" stroke="#7f7542" points="300,-91.5 580,-91.5 "/>
<text text-anchor="middle" x="440" y="-80.3" font-family="Times,serif" font-size="14.00">lim(X₁) = lim(sk₁)</text>
<polyline fill="none" stroke="#7f7542" points="300,-76.5 580,-76.5 "/>
<text text-anchor="middle" x="440" y="-65.3" font-family="Times,serif" font-size="14.00">quasi_total(X₁,ℕ,ℝ)</text>
<polyline fill="none" stroke="#7f7542" points="300,-61.5 580,-61.5 "/>
<text text-anchor="middle" x="440" y="-50.3" font-family="Times,serif" font-size="14.00">sk₄(X₁,sk₂,sk₃) ∈ ℕ ⊆ ℝ</text>
<polyline fill="none" stroke="#7f7542" points="300,-46.5 580,-46.5 "/>
<text text-anchor="middle" x="440" y="-35.3" font-family="Times,serif" font-size="14.00">⇊</text>
<polyline fill="none" stroke="#7f7542" points="300,-31.5 580,-31.5 "/>
<text text-anchor="middle" x="440" y="-20.3" font-family="Times,serif" font-size="14.00">convergent(sk₃)</text>
</a>
</g>
</g>
<!-- c_0_24&#45;&gt;c_0_73 -->
<g id="edge3" class="edge">
<title>c_0_24&#45;&gt;c_0_73</title>
<path fill="none" stroke="black" stroke-dasharray="5,2" d="M238.67,-188.31C238.67,-170.72 238.67,-129 238.67,-129 238.67,-129 289.89,-129 289.89,-129"/>
<polygon fill="black" stroke="black" points="289.89,-132.5 299.89,-129 289.89,-125.5 289.89,-132.5"/>
</g>
<!-- c_0_50 -->
<g id="node5" class="node">
<title>c_0_50</title>
<g id="a_node5"><a xlink:href="c_0_50.html" xlink:title="{convergent(sk₃)|⇊|lim(sk₃) ≤ lim(sk₁)}" target="_parent">
<polygon fill="#fa6900" stroke="#7f7542" points="152,-61.5 152,-106.5 282,-106.5 282,-61.5 152,-61.5"/>
<text text-anchor="middle" x="217" y="-95.3" font-family="Times,serif" font-size="14.00">convergent(sk₃)</text>
<polyline fill="none" stroke="#7f7542" points="152,-91.5 282,-91.5 "/>
<text text-anchor="middle" x="217" y="-80.3" font-family="Times,serif" font-size="14.00">⇊</text>
<polyline fill="none" stroke="#7f7542" points="152,-76.5 282,-76.5 "/>
<text text-anchor="middle" x="217" y="-65.3" font-family="Times,serif" font-size="14.00">lim(sk₃) ≤ lim(sk₁)</text>
</a>
</g>
</g>
<!-- c_0_24&#45;&gt;c_0_50 -->
<g id="edge4" class="edge">
<title>c_0_24&#45;&gt;c_0_50</title>
<path fill="none" stroke="black" stroke-dasharray="5,2" d="M195.33,-188.3C195.33,-188.3 195.33,-116.61 195.33,-116.61"/>
<polygon fill="black" stroke="black" points="198.83,-116.61 195.33,-106.61 191.83,-116.61 198.83,-116.61"/>
</g>
<!-- c_0_62 -->
<g id="node6" class="node">
<title>c_0_62</title>
<g id="a_node6"><a xlink:href="c_0_62.html" xlink:title="{lim(sk₁) ∈ ℝ}" target="_parent">
<polygon fill="#fa6900" stroke="#7f7542" points="48,-76.5 48,-91.5 134,-91.5 134,-76.5 48,-76.5"/>
<text text-anchor="middle" x="91" y="-80.3" font-family="Times,serif" font-size="14.00">lim(sk₁) ∈ ℝ</text>
</a>
</g>
</g>
<!-- c_0_24&#45;&gt;c_0_62 -->
<g id="edge5" class="edge">
<title>c_0_24&#45;&gt;c_0_62</title>
<path fill="none" stroke="black" stroke-dasharray="5,2" d="M151.79,-193C121.04,-193 91,-193 91,-193 91,-193 91,-101.84 91,-101.84"/>
<polygon fill="black" stroke="black" points="94.5,-101.84 91,-91.84 87.5,-101.84 94.5,-101.84"/>
</g>
<!-- c_0_79 -->
<g id="node7" class="node">
<title>c_0_79</title>
<g id="a_node7"><a xlink:href="c_0_79.html" xlink:title="⊥" target="_parent">
<polygon fill="#fa6900" stroke="#7f7542" points="16,-76.5 16,-91.5 30,-91.5 30,-76.5 16,-76.5"/>
<text text-anchor="middle" x="23" y="-80.3" font-family="Times,serif" font-size="14.00">⊥</text>
</a>
</g>
</g>
<!-- c_0_24&#45;&gt;c_0_79 -->
<g id="edge6" class="edge">
<title>c_0_24&#45;&gt;c_0_79</title>
<path fill="none" stroke="black" stroke-dasharray="5,2" d="M151.86,-198C95.5,-198 23,-198 23,-198 23,-198 23,-101.84 23,-101.84"/>
<polygon fill="black" stroke="black" points="26.5,-101.84 23,-91.84 19.5,-101.84 26.5,-101.84"/>
</g>
</g>
</svg>
