<?xml version="1.0" encoding="UTF-8" standalone="no"?>
<!DOCTYPE svg PUBLIC "-//W3C//DTD SVG 1.1//EN"
 "http://www.w3.org/Graphics/SVG/1.1/DTD/svg11.dtd">
<!-- Generated by graphviz version 5.0.0 (0)
 -->
<!-- Title: proof Pages: 1 -->
<svg width="1355pt" height="385pt"
 viewBox="0.00 0.00 1355.00 385.00" xmlns="http://www.w3.org/2000/svg" xmlns:xlink="http://www.w3.org/1999/xlink">
<g id="graph0" class="graph" transform="scale(1 1) rotate(0) translate(4 381)">
<title>proof</title>
<g id="clust1" class="cluster">
<title>cluster_0</title>
<polygon fill="transparent" stroke="black" stroke-dasharray="1,5" points="8,-187 8,-369 1339,-369 1339,-187 8,-187"/>
</g>
<g id="clust2" class="cluster">
<title>cluster_1</title>
<polygon fill="transparent" stroke="black" stroke-width="2" points="529,-90 529,-167 689,-167 689,-90 529,-90"/>
</g>
<g id="clust3" class="cluster">
<title>cluster_2</title>
<polygon fill="transparent" stroke="black" stroke-dasharray="1,5" points="536,-8 536,-70 682,-70 682,-8 536,-8"/>
</g>
<!-- c_0_16 -->
<g id="node1" class="node">
<title>c_0_16</title>
<g id="a_node1"><a xlink:href="c_0_16.html" xlink:title="{sk₃ ∈ bool(ℕ × ℝ)}" target="_parent">
<polygon fill="#fa6900" stroke="#7f7542" points="1203.5,-270.5 1203.5,-285.5 1330.5,-285.5 1330.5,-270.5 1203.5,-270.5"/>
<text text-anchor="middle" x="1267" y="-274.3" font-family="Times,serif" font-size="14.00">sk₃ ∈ bool(ℕ × ℝ)</text>
</a>
</g>
</g>
<!-- c_0_52 -->
<g id="node10" class="node">
<title>c_0_52</title>
<g id="a_node10"><a xlink:href="c_0_52.html" xlink:title="{convergent(sk₃)|sk₅(sk₁,sk₃) ∈ ℕ ⊆ ℝ|⇊|lim(sk₁) ≤ lim(sk₃)}" target="_parent">
<polygon fill="#fa6900" stroke="#7f7542" points="537,-98.5 537,-158.5 681,-158.5 681,-98.5 537,-98.5"/>
<text text-anchor="middle" x="609" y="-147.3" font-family="Times,serif" font-size="14.00">convergent(sk₃)</text>
<polyline fill="none" stroke="#7f7542" points="537,-143.5 681,-143.5 "/>
<text text-anchor="middle" x="609" y="-132.3" font-family="Times,serif" font-size="14.00">sk₅(sk₁,sk₃) ∈ ℕ ⊆ ℝ</text>
<polyline fill="none" stroke="#7f7542" points="537,-128.5 681,-128.5 "/>
<text text-anchor="middle" x="609" y="-117.3" font-family="Times,serif" font-size="14.00">⇊</text>
<polyline fill="none" stroke="#7f7542" points="537,-113.5 681,-113.5 "/>
<text text-anchor="middle" x="609" y="-102.3" font-family="Times,serif" font-size="14.00">lim(sk₁) ≤ lim(sk₃)</text>
</a>
</g>
</g>
<!-- c_0_16&#45;&gt;c_0_52 -->
<g id="edge1" class="edge">
<title>c_0_16&#45;&gt;c_0_52</title>
<path fill="none" stroke="black" d="M1267,-270.28C1267,-238.32 1267,-118 1267,-118 1267,-118 691.3,-118 691.3,-118"/>
<polygon fill="black" stroke="black" points="691.3,-114.5 681.3,-118 691.3,-121.5 691.3,-114.5"/>
</g>
<!-- c_0_33 -->
<g id="node2" class="node">
<title>c_0_33</title>
<g id="a_node2"><a xlink:href="c_0_33.html" xlink:title="{X₁ ∈ ℕ ⊆ ℝ|⇊|sk₁ . X₁ ≤ sk₃ . X₁}" target="_parent">
<polygon fill="#fa6900" stroke="#7f7542" points="1064.5,-255.5 1064.5,-300.5 1185.5,-300.5 1185.5,-255.5 1064.5,-255.5"/>
<text text-anchor="middle" x="1125" y="-289.3" font-family="Times,serif" font-size="14.00">X₁ ∈ ℕ ⊆ ℝ</text>
<polyline fill="none" stroke="#7f7542" points="1064.5,-285.5 1185.5,-285.5 "/>
<text text-anchor="middle" x="1125" y="-274.3" font-family="Times,serif" font-size="14.00">⇊</text>
<polyline fill="none" stroke="#7f7542" points="1064.5,-270.5 1185.5,-270.5 "/>
<text text-anchor="middle" x="1125" y="-259.3" font-family="Times,serif" font-size="14.00">sk₁ . X₁ ≤ sk₃ . X₁</text>
</a>
</g>
</g>
<!-- c_0_33&#45;&gt;c_0_52 -->
<g id="edge2" class="edge">
<title>c_0_33&#45;&gt;c_0_52</title>
<path fill="none" stroke="black" d="M1125,-255.19C1125,-215.52 1125,-138 1125,-138 1125,-138 691.02,-138 691.02,-138"/>
<polygon fill="black" stroke="black" points="691.02,-134.5 681.02,-138 691.02,-141.5 691.02,-134.5"/>
</g>
<!-- c_0_11 -->
<g id="node3" class="node">
<title>c_0_11</title>
<g id="a_node3"><a xlink:href="c_0_11.html" xlink:title="{X₁ . sk₅(X₁,X₂) ≤ X₂ . sk₅(X₁,X₂)|X₁ ∈ bool(ℕ × ℝ)|X₂ ∈ bool(ℕ × ℝ)|convergent(X₁)|convergent(X₂)|function(X₁)|function(X₂)|quasi_total(X₁,ℕ,ℝ)|quasi_total(X₂,ℕ,ℝ)|⇊|lim(X₁) ≤ lim(X₂)}" target="_parent">
<polygon fill="#f8edd1" stroke="#7f7542" points="835.5,-195.5 835.5,-360.5 1046.5,-360.5 1046.5,-195.5 835.5,-195.5"/>
<text text-anchor="middle" x="941" y="-349.3" font-family="Times,serif" font-size="14.00">X₁ . sk₅(X₁,X₂) ≤ X₂ . sk₅(X₁,X₂)</text>
<polyline fill="none" stroke="#7f7542" points="835.5,-345.5 1046.5,-345.5 "/>
<text text-anchor="middle" x="941" y="-334.3" font-family="Times,serif" font-size="14.00">X₁ ∈ bool(ℕ × ℝ)</text>
<polyline fill="none" stroke="#7f7542" points="835.5,-330.5 1046.5,-330.5 "/>
<text text-anchor="middle" x="941" y="-319.3" font-family="Times,serif" font-size="14.00">X₂ ∈ bool(ℕ × ℝ)</text>
<polyline fill="none" stroke="#7f7542" points="835.5,-315.5 1046.5,-315.5 "/>
<text text-anchor="middle" x="941" y="-304.3" font-family="Times,serif" font-size="14.00">convergent(X₁)</text>
<polyline fill="none" stroke="#7f7542" points="835.5,-300.5 1046.5,-300.5 "/>
<text text-anchor="middle" x="941" y="-289.3" font-family="Times,serif" font-size="14.00">convergent(X₂)</text>
<polyline fill="none" stroke="#7f7542" points="835.5,-285.5 1046.5,-285.5 "/>
<text text-anchor="middle" x="941" y="-274.3" font-family="Times,serif" font-size="14.00">function(X₁)</text>
<polyline fill="none" stroke="#7f7542" points="835.5,-270.5 1046.5,-270.5 "/>
<text text-anchor="middle" x="941" y="-259.3" font-family="Times,serif" font-size="14.00">function(X₂)</text>
<polyline fill="none" stroke="#7f7542" points="835.5,-255.5 1046.5,-255.5 "/>
<text text-anchor="middle" x="941" y="-244.3" font-family="Times,serif" font-size="14.00">quasi_total(X₁,ℕ,ℝ)</text>
<polyline fill="none" stroke="#7f7542" points="835.5,-240.5 1046.5,-240.5 "/>
<text text-anchor="middle" x="941" y="-229.3" font-family="Times,serif" font-size="14.00">quasi_total(X₂,ℕ,ℝ)</text>
<polyline fill="none" stroke="#7f7542" points="835.5,-225.5 1046.5,-225.5 "/>
<text text-anchor="middle" x="941" y="-214.3" font-family="Times,serif" font-size="14.00">⇊</text>
<polyline fill="none" stroke="#7f7542" points="835.5,-210.5 1046.5,-210.5 "/>
<text text-anchor="middle" x="941" y="-199.3" font-family="Times,serif" font-size="14.00">lim(X₁) ≤ lim(X₂)</text>
</a>
</g>
</g>
<!-- c_0_11&#45;&gt;c_0_52 -->
<g id="edge3" class="edge">
<title>c_0_11&#45;&gt;c_0_52</title>
<path fill="none" stroke="black" d="M835.3,-232C762.31,-232 678.33,-232 678.33,-232 678.33,-232 678.33,-168.71 678.33,-168.71"/>
<polygon fill="black" stroke="black" points="681.83,-168.71 678.33,-158.71 674.83,-168.71 681.83,-168.71"/>
</g>
<!-- c_0_18 -->
<g id="node4" class="node">
<title>c_0_18</title>
<g id="a_node4"><a xlink:href="c_0_18.html" xlink:title="{quasi_total(sk₃,ℕ,ℝ)}" target="_parent">
<polygon fill="#fa6900" stroke="#7f7542" points="673,-270.5 673,-285.5 817,-285.5 817,-270.5 673,-270.5"/>
<text text-anchor="middle" x="745" y="-274.3" font-family="Times,serif" font-size="14.00">quasi_total(sk₃,ℕ,ℝ)</text>
</a>
</g>
</g>
<!-- c_0_18&#45;&gt;c_0_52 -->
<g id="edge4" class="edge">
<title>c_0_18&#45;&gt;c_0_52</title>
<path fill="none" stroke="black" d="M675.67,-270.38C675.67,-270.38 675.67,-168.62 675.67,-168.62"/>
<polygon fill="black" stroke="black" points="679.17,-168.62 675.67,-158.62 672.17,-168.62 679.17,-168.62"/>
</g>
<!-- c_0_37 -->
<g id="node5" class="node">
<title>c_0_37</title>
<g id="a_node5"><a xlink:href="c_0_37.html" xlink:title="{function(sk₁)}" target="_parent">
<polygon fill="#fa6900" stroke="#7f7542" points="563.5,-270.5 563.5,-285.5 654.5,-285.5 654.5,-270.5 563.5,-270.5"/>
<text text-anchor="middle" x="609" y="-274.3" font-family="Times,serif" font-size="14.00">function(sk₁)</text>
</a>
</g>
</g>
<!-- c_0_37&#45;&gt;c_0_52 -->
<g id="edge5" class="edge">
<title>c_0_37&#45;&gt;c_0_52</title>
<path fill="none" stroke="black" d="M609,-270.38C609,-270.38 609,-168.62 609,-168.62"/>
<polygon fill="black" stroke="black" points="612.5,-168.62 609,-158.62 605.5,-168.62 612.5,-168.62"/>
</g>
<!-- c_0_36 -->
<g id="node6" class="node">
<title>c_0_36</title>
<g id="a_node6"><a xlink:href="c_0_36.html" xlink:title="{quasi_total(sk₁,ℕ,ℝ)}" target="_parent">
<polygon fill="#fa6900" stroke="#7f7542" points="401,-270.5 401,-285.5 545,-285.5 545,-270.5 401,-270.5"/>
<text text-anchor="middle" x="473" y="-274.3" font-family="Times,serif" font-size="14.00">quasi_total(sk₁,ℕ,ℝ)</text>
</a>
</g>
</g>
<!-- c_0_36&#45;&gt;c_0_52 -->
<g id="edge6" class="edge">
<title>c_0_36&#45;&gt;c_0_52</title>
<path fill="none" stroke="black" d="M541,-270.38C541,-270.38 541,-168.62 541,-168.62"/>
<polygon fill="black" stroke="black" points="544.5,-168.62 541,-158.62 537.5,-168.62 544.5,-168.62"/>
</g>
<!-- c_0_34 -->
<g id="node7" class="node">
<title>c_0_34</title>
<g id="a_node7"><a xlink:href="c_0_34.html" xlink:title="{convergent(sk₁)}" target="_parent">
<polygon fill="#fa6900" stroke="#7f7542" points="271,-270.5 271,-285.5 383,-285.5 383,-270.5 271,-270.5"/>
<text text-anchor="middle" x="327" y="-274.3" font-family="Times,serif" font-size="14.00">convergent(sk₁)</text>
</a>
</g>
</g>
<!-- c_0_34&#45;&gt;c_0_52 -->
<g id="edge7" class="edge">
<title>c_0_34&#45;&gt;c_0_52</title>
<path fill="none" stroke="black" d="M327,-270.36C327,-241.8 327,-143 327,-143 327,-143 526.74,-143 526.74,-143"/>
<polygon fill="black" stroke="black" points="526.74,-146.5 536.74,-143 526.74,-139.5 526.74,-146.5"/>
</g>
<!-- c_0_20 -->
<g id="node8" class="node">
<title>c_0_20</title>
<g id="a_node8"><a xlink:href="c_0_20.html" xlink:title="{function(sk₃)}" target="_parent">
<polygon fill="#fa6900" stroke="#7f7542" points="161.5,-270.5 161.5,-285.5 252.5,-285.5 252.5,-270.5 161.5,-270.5"/>
<text text-anchor="middle" x="207" y="-274.3" font-family="Times,serif" font-size="14.00">function(sk₃)</text>
</a>
</g>
</g>
<!-- c_0_20&#45;&gt;c_0_52 -->
<g id="edge8" class="edge">
<title>c_0_20&#45;&gt;c_0_52</title>
<path fill="none" stroke="black" d="M207,-270.36C207,-239.79 207,-128 207,-128 207,-128 526.67,-128 526.67,-128"/>
<polygon fill="black" stroke="black" points="526.67,-131.5 536.67,-128 526.67,-124.5 526.67,-131.5"/>
</g>
<!-- c_0_35 -->
<g id="node9" class="node">
<title>c_0_35</title>
<g id="a_node9"><a xlink:href="c_0_35.html" xlink:title="{sk₁ ∈ bool(ℕ × ℝ)}" target="_parent">
<polygon fill="#fa6900" stroke="#7f7542" points="16.5,-270.5 16.5,-285.5 143.5,-285.5 143.5,-270.5 16.5,-270.5"/>
<text text-anchor="middle" x="80" y="-274.3" font-family="Times,serif" font-size="14.00">sk₁ ∈ bool(ℕ × ℝ)</text>
</a>
</g>
</g>
<!-- c_0_35&#45;&gt;c_0_52 -->
<g id="edge9" class="edge">
<title>c_0_35&#45;&gt;c_0_52</title>
<path fill="none" stroke="black" d="M80,-270.48C80,-238.2 80,-113 80,-113 80,-113 526.83,-113 526.83,-113"/>
<polygon fill="black" stroke="black" points="526.83,-116.5 536.83,-113 526.83,-109.5 526.83,-116.5"/>
</g>
<!-- c_0_56 -->
<g id="node11" class="node">
<title>c_0_56</title>
<g id="a_node11"><a xlink:href="c_0_56.html" xlink:title="{convergent(sk₃)|⇊|lim(sk₁) ≤ lim(sk₃)}" target="_parent">
<polygon fill="#fa6900" stroke="#7f7542" points="544,-16.5 544,-61.5 674,-61.5 674,-16.5 544,-16.5"/>
<text text-anchor="middle" x="609" y="-50.3" font-family="Times,serif" font-size="14.00">convergent(sk₃)</text>
<polyline fill="none" stroke="#7f7542" points="544,-46.5 674,-46.5 "/>
<text text-anchor="middle" x="609" y="-35.3" font-family="Times,serif" font-size="14.00">⇊</text>
<polyline fill="none" stroke="#7f7542" points="544,-31.5 674,-31.5 "/>
<text text-anchor="middle" x="609" y="-20.3" font-family="Times,serif" font-size="14.00">lim(sk₁) ≤ lim(sk₃)</text>
</a>
</g>
</g>
<!-- c_0_52&#45;&gt;c_0_56 -->
<g id="edge10" class="edge">
<title>c_0_52&#45;&gt;c_0_56</title>
<path fill="none" stroke="black" stroke-dasharray="5,2" d="M609,-98.2C609,-98.2 609,-71.63 609,-71.63"/>
<polygon fill="black" stroke="black" points="612.5,-71.63 609,-61.63 605.5,-71.63 612.5,-71.63"/>
</g>
</g>
</svg>
