<?xml version="1.0" encoding="UTF-8" standalone="no"?>
<!DOCTYPE svg PUBLIC "-//W3C//DTD SVG 1.1//EN"
 "http://www.w3.org/Graphics/SVG/1.1/DTD/svg11.dtd">
<!-- Generated by graphviz version 5.0.0 (0)
 -->
<!-- Title: proof Pages: 1 -->
<svg width="1504pt" height="385pt"
 viewBox="0.00 0.00 1504.00 385.00" xmlns="http://www.w3.org/2000/svg" xmlns:xlink="http://www.w3.org/1999/xlink">
<g id="graph0" class="graph" transform="scale(1 1) rotate(0) translate(4 381)">
<title>proof</title>
<g id="clust1" class="cluster">
<title>cluster_0</title>
<polygon fill="transparent" stroke="black" stroke-dasharray="1,5" points="8,-187 8,-369 1488,-369 1488,-187 8,-187"/>
</g>
<g id="clust2" class="cluster">
<title>cluster_1</title>
<polygon fill="transparent" stroke="black" stroke-width="2" points="718,-90 718,-167 878,-167 878,-90 718,-90"/>
</g>
<g id="clust3" class="cluster">
<title>cluster_2</title>
<polygon fill="transparent" stroke="black" stroke-dasharray="1,5" points="725,-8 725,-70 871,-70 871,-8 725,-8"/>
</g>
<!-- c_0_15 -->
<g id="node1" class="node">
<title>c_0_15</title>
<g id="a_node1"><a xlink:href="c_0_15.html" xlink:title="{sk₂ ∈ bool(ℕ × ℝ)}" target="_parent">
<polygon fill="#fa6900" stroke="#7f7542" points="1352.5,-270.5 1352.5,-285.5 1479.5,-285.5 1479.5,-270.5 1352.5,-270.5"/>
<text text-anchor="middle" x="1416" y="-274.3" font-family="Times,serif" font-size="14.00">sk₂ ∈ bool(ℕ × ℝ)</text>
</a>
</g>
</g>
<!-- c_0_39 -->
<g id="node11" class="node">
<title>c_0_39</title>
<g id="a_node11"><a xlink:href="c_0_39.html" xlink:title="{convergent(sk₃)|sk₅(sk₃,sk₂) ∈ ℕ ⊆ ℝ|⇊|lim(sk₃) ≤ lim(sk₁)}" target="_parent">
<polygon fill="#fa6900" stroke="#7f7542" points="726,-98.5 726,-158.5 870,-158.5 870,-98.5 726,-98.5"/>
<text text-anchor="middle" x="798" y="-147.3" font-family="Times,serif" font-size="14.00">convergent(sk₃)</text>
<polyline fill="none" stroke="#7f7542" points="726,-143.5 870,-143.5 "/>
<text text-anchor="middle" x="798" y="-132.3" font-family="Times,serif" font-size="14.00">sk₅(sk₃,sk₂) ∈ ℕ ⊆ ℝ</text>
<polyline fill="none" stroke="#7f7542" points="726,-128.5 870,-128.5 "/>
<text text-anchor="middle" x="798" y="-117.3" font-family="Times,serif" font-size="14.00">⇊</text>
<polyline fill="none" stroke="#7f7542" points="726,-113.5 870,-113.5 "/>
<text text-anchor="middle" x="798" y="-102.3" font-family="Times,serif" font-size="14.00">lim(sk₃) ≤ lim(sk₁)</text>
</a>
</g>
</g>
<!-- c_0_15&#45;&gt;c_0_39 -->
<g id="edge1" class="edge">
<title>c_0_15&#45;&gt;c_0_39</title>
<path fill="none" stroke="black" d="M1416,-270.34C1416,-237.48 1416,-110 1416,-110 1416,-110 880.1,-110 880.1,-110"/>
<polygon fill="black" stroke="black" points="880.1,-106.5 870.1,-110 880.1,-113.5 880.1,-106.5"/>
</g>
<!-- c_0_19 -->
<g id="node2" class="node">
<title>c_0_19</title>
<g id="a_node2"><a xlink:href="c_0_19.html" xlink:title="{function(sk₂)}" target="_parent">
<polygon fill="#fa6900" stroke="#7f7542" points="1243.5,-270.5 1243.5,-285.5 1334.5,-285.5 1334.5,-270.5 1243.5,-270.5"/>
<text text-anchor="middle" x="1289" y="-274.3" font-family="Times,serif" font-size="14.00">function(sk₂)</text>
</a>
</g>
</g>
<!-- c_0_19&#45;&gt;c_0_39 -->
<g id="edge2" class="edge">
<title>c_0_19&#45;&gt;c_0_39</title>
<path fill="none" stroke="black" d="M1289,-270.48C1289,-239.31 1289,-122 1289,-122 1289,-122 880.18,-122 880.18,-122"/>
<polygon fill="black" stroke="black" points="880.18,-118.5 870.18,-122 880.18,-125.5 880.18,-118.5"/>
</g>
<!-- c_0_14 -->
<g id="node3" class="node">
<title>c_0_14</title>
<g id="a_node3"><a xlink:href="c_0_14.html" xlink:title="{convergent(sk₂)}" target="_parent">
<polygon fill="#fa6900" stroke="#7f7542" points="1113,-270.5 1113,-285.5 1225,-285.5 1225,-270.5 1113,-270.5"/>
<text text-anchor="middle" x="1169" y="-274.3" font-family="Times,serif" font-size="14.00">convergent(sk₂)</text>
</a>
</g>
</g>
<!-- c_0_14&#45;&gt;c_0_39 -->
<g id="edge3" class="edge">
<title>c_0_14&#45;&gt;c_0_39</title>
<path fill="none" stroke="black" d="M1169,-270.26C1169,-240.35 1169,-134 1169,-134 1169,-134 880.41,-134 880.41,-134"/>
<polygon fill="black" stroke="black" points="880.41,-130.5 870.41,-134 880.41,-137.5 880.41,-130.5"/>
</g>
<!-- c_0_17 -->
<g id="node4" class="node">
<title>c_0_17</title>
<g id="a_node4"><a xlink:href="c_0_17.html" xlink:title="{quasi_total(sk₂,ℕ,ℝ)}" target="_parent">
<polygon fill="#fa6900" stroke="#7f7542" points="951,-270.5 951,-285.5 1095,-285.5 1095,-270.5 951,-270.5"/>
<text text-anchor="middle" x="1023" y="-274.3" font-family="Times,serif" font-size="14.00">quasi_total(sk₂,ℕ,ℝ)</text>
</a>
</g>
</g>
<!-- c_0_17&#45;&gt;c_0_39 -->
<g id="edge4" class="edge">
<title>c_0_17&#45;&gt;c_0_39</title>
<path fill="none" stroke="black" d="M1023,-270.14C1023,-241.72 1023,-146 1023,-146 1023,-146 880.12,-146 880.12,-146"/>
<polygon fill="black" stroke="black" points="880.12,-142.5 870.12,-146 880.12,-149.5 880.12,-142.5"/>
</g>
<!-- c_0_16 -->
<g id="node5" class="node">
<title>c_0_16</title>
<g id="a_node5"><a xlink:href="c_0_16.html" xlink:title="{sk₃ ∈ bool(ℕ × ℝ)}" target="_parent">
<polygon fill="#fa6900" stroke="#7f7542" points="805.5,-270.5 805.5,-285.5 932.5,-285.5 932.5,-270.5 805.5,-270.5"/>
<text text-anchor="middle" x="869" y="-274.3" font-family="Times,serif" font-size="14.00">sk₃ ∈ bool(ℕ × ℝ)</text>
</a>
</g>
</g>
<!-- c_0_16&#45;&gt;c_0_39 -->
<g id="edge5" class="edge">
<title>c_0_16&#45;&gt;c_0_39</title>
<path fill="none" stroke="black" d="M837.75,-270.38C837.75,-270.38 837.75,-168.62 837.75,-168.62"/>
<polygon fill="black" stroke="black" points="841.25,-168.62 837.75,-158.62 834.25,-168.62 841.25,-168.62"/>
</g>
<!-- c_0_12 -->
<g id="node6" class="node">
<title>c_0_12</title>
<g id="a_node6"><a xlink:href="c_0_12.html" xlink:title="{X₁ ∈ ℕ ⊆ ℝ|⇊|sk₃ . X₁ ≤ sk₂ . X₁}" target="_parent">
<polygon fill="#fa6900" stroke="#7f7542" points="666.5,-255.5 666.5,-300.5 787.5,-300.5 787.5,-255.5 666.5,-255.5"/>
<text text-anchor="middle" x="727" y="-289.3" font-family="Times,serif" font-size="14.00">X₁ ∈ ℕ ⊆ ℝ</text>
<polyline fill="none" stroke="#7f7542" points="666.5,-285.5 787.5,-285.5 "/>
<text text-anchor="middle" x="727" y="-274.3" font-family="Times,serif" font-size="14.00">⇊</text>
<polyline fill="none" stroke="#7f7542" points="666.5,-270.5 787.5,-270.5 "/>
<text text-anchor="middle" x="727" y="-259.3" font-family="Times,serif" font-size="14.00">sk₃ . X₁ ≤ sk₂ . X₁</text>
</a>
</g>
</g>
<!-- c_0_12&#45;&gt;c_0_39 -->
<g id="edge6" class="edge">
<title>c_0_12&#45;&gt;c_0_39</title>
<path fill="none" stroke="black" d="M767,-255.29C767,-255.29 767,-168.67 767,-168.67"/>
<polygon fill="black" stroke="black" points="770.5,-168.67 767,-158.67 763.5,-168.67 770.5,-168.67"/>
</g>
<!-- c_0_24 -->
<g id="node7" class="node">
<title>c_0_24</title>
<g id="a_node7"><a xlink:href="c_0_24.html" xlink:title="{lim(sk₂) = lim(sk₁)}" target="_parent">
<polygon fill="#fa6900" stroke="#7f7542" points="518,-270.5 518,-285.5 648,-285.5 648,-270.5 518,-270.5"/>
<text text-anchor="middle" x="583" y="-274.3" font-family="Times,serif" font-size="14.00">lim(sk₂) = lim(sk₁)</text>
</a>
</g>
</g>
<!-- c_0_24&#45;&gt;c_0_39 -->
<g id="edge7" class="edge">
<title>c_0_24&#45;&gt;c_0_39</title>
<path fill="none" stroke="black" d="M583,-270.36C583,-241.8 583,-143 583,-143 583,-143 715.81,-143 715.81,-143"/>
<polygon fill="black" stroke="black" points="715.81,-146.5 725.81,-143 715.81,-139.5 715.81,-146.5"/>
</g>
<!-- c_0_11 -->
<g id="node8" class="node">
<title>c_0_11</title>
<g id="a_node8"><a xlink:href="c_0_11.html" xlink:title="{X₁ . sk₅(X₁,X₂) ≤ X₂ . sk₅(X₁,X₂)|X₁ ∈ bool(ℕ × ℝ)|X₂ ∈ bool(ℕ × ℝ)|convergent(X₁)|convergent(X₂)|function(X₁)|function(X₂)|quasi_total(X₁,ℕ,ℝ)|quasi_total(X₂,ℕ,ℝ)|⇊|lim(X₁) ≤ lim(X₂)}" target="_parent">
<polygon fill="#f8edd1" stroke="#7f7542" points="288.5,-195.5 288.5,-360.5 499.5,-360.5 499.5,-195.5 288.5,-195.5"/>
<text text-anchor="middle" x="394" y="-349.3" font-family="Times,serif" font-size="14.00">X₁ . sk₅(X₁,X₂) ≤ X₂ . sk₅(X₁,X₂)</text>
<polyline fill="none" stroke="#7f7542" points="288.5,-345.5 499.5,-345.5 "/>
<text text-anchor="middle" x="394" y="-334.3" font-family="Times,serif" font-size="14.00">X₁ ∈ bool(ℕ × ℝ)</text>
<polyline fill="none" stroke="#7f7542" points="288.5,-330.5 499.5,-330.5 "/>
<text text-anchor="middle" x="394" y="-319.3" font-family="Times,serif" font-size="14.00">X₂ ∈ bool(ℕ × ℝ)</text>
<polyline fill="none" stroke="#7f7542" points="288.5,-315.5 499.5,-315.5 "/>
<text text-anchor="middle" x="394" y="-304.3" font-family="Times,serif" font-size="14.00">convergent(X₁)</text>
<polyline fill="none" stroke="#7f7542" points="288.5,-300.5 499.5,-300.5 "/>
<text text-anchor="middle" x="394" y="-289.3" font-family="Times,serif" font-size="14.00">convergent(X₂)</text>
<polyline fill="none" stroke="#7f7542" points="288.5,-285.5 499.5,-285.5 "/>
<text text-anchor="middle" x="394" y="-274.3" font-family="Times,serif" font-size="14.00">function(X₁)</text>
<polyline fill="none" stroke="#7f7542" points="288.5,-270.5 499.5,-270.5 "/>
<text text-anchor="middle" x="394" y="-259.3" font-family="Times,serif" font-size="14.00">function(X₂)</text>
<polyline fill="none" stroke="#7f7542" points="288.5,-255.5 499.5,-255.5 "/>
<text text-anchor="middle" x="394" y="-244.3" font-family="Times,serif" font-size="14.00">quasi_total(X₁,ℕ,ℝ)</text>
<polyline fill="none" stroke="#7f7542" points="288.5,-240.5 499.5,-240.5 "/>
<text text-anchor="middle" x="394" y="-229.3" font-family="Times,serif" font-size="14.00">quasi_total(X₂,ℕ,ℝ)</text>
<polyline fill="none" stroke="#7f7542" points="288.5,-225.5 499.5,-225.5 "/>
<text text-anchor="middle" x="394" y="-214.3" font-family="Times,serif" font-size="14.00">⇊</text>
<polyline fill="none" stroke="#7f7542" points="288.5,-210.5 499.5,-210.5 "/>
<text text-anchor="middle" x="394" y="-199.3" font-family="Times,serif" font-size="14.00">lim(X₁) ≤ lim(X₂)</text>
</a>
</g>
</g>
<!-- c_0_11&#45;&gt;c_0_39 -->
<g id="edge8" class="edge">
<title>c_0_11&#45;&gt;c_0_39</title>
<path fill="none" stroke="black" d="M499.76,-225C603.59,-225 746.5,-225 746.5,-225 746.5,-225 746.5,-168.5 746.5,-168.5"/>
<polygon fill="black" stroke="black" points="750,-168.5 746.5,-158.5 743,-168.5 750,-168.5"/>
</g>
<!-- c_0_18 -->
<g id="node9" class="node">
<title>c_0_18</title>
<g id="a_node9"><a xlink:href="c_0_18.html" xlink:title="{quasi_total(sk₃,ℕ,ℝ)}" target="_parent">
<polygon fill="#fa6900" stroke="#7f7542" points="126,-270.5 126,-285.5 270,-285.5 270,-270.5 126,-270.5"/>
<text text-anchor="middle" x="198" y="-274.3" font-family="Times,serif" font-size="14.00">quasi_total(sk₃,ℕ,ℝ)</text>
</a>
</g>
</g>
<!-- c_0_18&#45;&gt;c_0_39 -->
<g id="edge9" class="edge">
<title>c_0_18&#45;&gt;c_0_39</title>
<path fill="none" stroke="black" d="M198,-270.36C198,-239.79 198,-128 198,-128 198,-128 715.92,-128 715.92,-128"/>
<polygon fill="black" stroke="black" points="715.92,-131.5 725.92,-128 715.92,-124.5 715.92,-131.5"/>
</g>
<!-- c_0_20 -->
<g id="node10" class="node">
<title>c_0_20</title>
<g id="a_node10"><a xlink:href="c_0_20.html" xlink:title="{function(sk₃)}" target="_parent">
<polygon fill="#fa6900" stroke="#7f7542" points="16.5,-270.5 16.5,-285.5 107.5,-285.5 107.5,-270.5 16.5,-270.5"/>
<text text-anchor="middle" x="62" y="-274.3" font-family="Times,serif" font-size="14.00">function(sk₃)</text>
</a>
</g>
</g>
<!-- c_0_20&#45;&gt;c_0_39 -->
<g id="edge10" class="edge">
<title>c_0_20&#45;&gt;c_0_39</title>
<path fill="none" stroke="black" d="M62,-270.48C62,-238.2 62,-113 62,-113 62,-113 715.75,-113 715.75,-113"/>
<polygon fill="black" stroke="black" points="715.75,-116.5 725.75,-113 715.75,-109.5 715.75,-116.5"/>
</g>
<!-- c_0_50 -->
<g id="node12" class="node">
<title>c_0_50</title>
<g id="a_node12"><a xlink:href="c_0_50.html" xlink:title="{convergent(sk₃)|⇊|lim(sk₃) ≤ lim(sk₁)}" target="_parent">
<polygon fill="#fa6900" stroke="#7f7542" points="733,-16.5 733,-61.5 863,-61.5 863,-16.5 733,-16.5"/>
<text text-anchor="middle" x="798" y="-50.3" font-family="Times,serif" font-size="14.00">convergent(sk₃)</text>
<polyline fill="none" stroke="#7f7542" points="733,-46.5 863,-46.5 "/>
<text text-anchor="middle" x="798" y="-35.3" font-family="Times,serif" font-size="14.00">⇊</text>
<polyline fill="none" stroke="#7f7542" points="733,-31.5 863,-31.5 "/>
<text text-anchor="middle" x="798" y="-20.3" font-family="Times,serif" font-size="14.00">lim(sk₃) ≤ lim(sk₁)</text>
</a>
</g>
</g>
<!-- c_0_39&#45;&gt;c_0_50 -->
<g id="edge11" class="edge">
<title>c_0_39&#45;&gt;c_0_50</title>
<path fill="none" stroke="black" stroke-dasharray="5,2" d="M798,-98.2C798,-98.2 798,-71.63 798,-71.63"/>
<polygon fill="black" stroke="black" points="801.5,-71.63 798,-61.63 794.5,-71.63 801.5,-71.63"/>
</g>
</g>
</svg>
