<?xml version="1.0" encoding="UTF-8" standalone="no"?>
<!DOCTYPE svg PUBLIC "-//W3C//DTD SVG 1.1//EN"
 "http://www.w3.org/Graphics/SVG/1.1/DTD/svg11.dtd">
<!-- Generated by graphviz version 5.0.0 (0)
 -->
<!-- Title: proof Pages: 1 -->
<svg width="899pt" height="460pt"
 viewBox="0.00 0.00 899.00 460.00" xmlns="http://www.w3.org/2000/svg" xmlns:xlink="http://www.w3.org/1999/xlink">
<g id="graph0" class="graph" transform="scale(1 1) rotate(0) translate(4 456)">
<title>proof</title>
<g id="clust1" class="cluster">
<title>cluster_0</title>
<polygon fill="transparent" stroke="black" stroke-dasharray="1,5" points="8,-232 8,-444 810,-444 810,-232 8,-232"/>
</g>
<g id="clust2" class="cluster">
<title>cluster_1</title>
<polygon fill="transparent" stroke="black" stroke-width="2" points="319,-60 319,-212 553,-212 553,-60 319,-60"/>
</g>
<g id="clust3" class="cluster">
<title>cluster_2</title>
<polygon fill="transparent" stroke="black" stroke-dasharray="1,5" points="190,-8 190,-40 883,-40 883,-8 190,-8"/>
</g>
<!-- c_0_40 -->
<g id="node1" class="node">
<title>c_0_40</title>
<g id="a_node1"><a xlink:href="c_0_40.html" xlink:title="{ParOrtStr(X₁)|X₁ // X₂ // X₃ // X₄ // X₅|X₂ ∈ carrier(Af(X₁))|X₂ ∈ carrier(X₁)|X₃ ∈ carrier(Af(X₁))|X₃ ∈ carrier(X₁)|X₄ ∈ carrier(Af(X₁))|X₄ ∈ carrier(X₁)|X₅ ∈ carrier(Af(X₁))|X₅ ∈ carrier(X₁)|⇊|Af(X₁) // X₂ // X₃ // X₄ // X₅|empty(X₁)}" target="_vizar">
<polygon fill="#f8edd1" stroke="#7f7542" points="628.5,-240.5 628.5,-435.5 801.5,-435.5 801.5,-240.5 628.5,-240.5"/>
<text text-anchor="middle" x="715" y="-424.3" font-family="Times,serif" font-size="14.00">ParOrtStr(X₁)</text>
<polyline fill="none" stroke="#7f7542" points="628.5,-420.5 801.5,-420.5 "/>
<text text-anchor="middle" x="715" y="-409.3" font-family="Times,serif" font-size="14.00">X₁ // X₂ // X₃ // X₄ // X₅</text>
<polyline fill="none" stroke="#7f7542" points="628.5,-405.5 801.5,-405.5 "/>
<text text-anchor="middle" x="715" y="-394.3" font-family="Times,serif" font-size="14.00">X₂ ∈ carrier(Af(X₁))</text>
<polyline fill="none" stroke="#7f7542" points="628.5,-390.5 801.5,-390.5 "/>
<text text-anchor="middle" x="715" y="-379.3" font-family="Times,serif" font-size="14.00">X₂ ∈ carrier(X₁)</text>
<polyline fill="none" stroke="#7f7542" points="628.5,-375.5 801.5,-375.5 "/>
<text text-anchor="middle" x="715" y="-364.3" font-family="Times,serif" font-size="14.00">X₃ ∈ carrier(Af(X₁))</text>
<polyline fill="none" stroke="#7f7542" points="628.5,-360.5 801.5,-360.5 "/>
<text text-anchor="middle" x="715" y="-349.3" font-family="Times,serif" font-size="14.00">X₃ ∈ carrier(X₁)</text>
<polyline fill="none" stroke="#7f7542" points="628.5,-345.5 801.5,-345.5 "/>
<text text-anchor="middle" x="715" y="-334.3" font-family="Times,serif" font-size="14.00">X₄ ∈ carrier(Af(X₁))</text>
<polyline fill="none" stroke="#7f7542" points="628.5,-330.5 801.5,-330.5 "/>
<text text-anchor="middle" x="715" y="-319.3" font-family="Times,serif" font-size="14.00">X₄ ∈ carrier(X₁)</text>
<polyline fill="none" stroke="#7f7542" points="628.5,-315.5 801.5,-315.5 "/>
<text text-anchor="middle" x="715" y="-304.3" font-family="Times,serif" font-size="14.00">X₅ ∈ carrier(Af(X₁))</text>
<polyline fill="none" stroke="#7f7542" points="628.5,-300.5 801.5,-300.5 "/>
<text text-anchor="middle" x="715" y="-289.3" font-family="Times,serif" font-size="14.00">X₅ ∈ carrier(X₁)</text>
<polyline fill="none" stroke="#7f7542" points="628.5,-285.5 801.5,-285.5 "/>
<text text-anchor="middle" x="715" y="-274.3" font-family="Times,serif" font-size="14.00">⇊</text>
<polyline fill="none" stroke="#7f7542" points="628.5,-270.5 801.5,-270.5 "/>
<text text-anchor="middle" x="715" y="-259.3" font-family="Times,serif" font-size="14.00">Af(X₁) // X₂ // X₃ // X₄ // X₅</text>
<polyline fill="none" stroke="#7f7542" points="628.5,-255.5 801.5,-255.5 "/>
<text text-anchor="middle" x="715" y="-244.3" font-family="Times,serif" font-size="14.00">empty(X₁)</text>
</a>
</g>
</g>
<!-- c_0_53 -->
<g id="node6" class="node">
<title>c_0_53</title>
<g id="a_node6"><a xlink:href="c_0_53.html" xlink:title="{X₁ ∈ carrier(Af(sk₁))|X₁ ∈ carrier(sk₁)|X₂ ∈ carrier(Af(sk₁))|X₂ ∈ carrier(sk₁)|X₃ ∈ carrier(Af(sk₁))|X₃ ∈ carrier(sk₁)|sk₁ // X₁ // X₂ // X₃ // sk₇(sk₁)|⇊|Af(sk₁) // X₁ // X₂ // X₃ // sk₇(sk₁)}" target="_vizar">
<polygon fill="#fa6900" stroke="#7f7542" points="327.5,-68.5 327.5,-203.5 544.5,-203.5 544.5,-68.5 327.5,-68.5"/>
<text text-anchor="middle" x="436" y="-192.3" font-family="Times,serif" font-size="14.00">X₁ ∈ carrier(Af(sk₁))</text>
<polyline fill="none" stroke="#7f7542" points="327.5,-188.5 544.5,-188.5 "/>
<text text-anchor="middle" x="436" y="-177.3" font-family="Times,serif" font-size="14.00">X₁ ∈ carrier(sk₁)</text>
<polyline fill="none" stroke="#7f7542" points="327.5,-173.5 544.5,-173.5 "/>
<text text-anchor="middle" x="436" y="-162.3" font-family="Times,serif" font-size="14.00">X₂ ∈ carrier(Af(sk₁))</text>
<polyline fill="none" stroke="#7f7542" points="327.5,-158.5 544.5,-158.5 "/>
<text text-anchor="middle" x="436" y="-147.3" font-family="Times,serif" font-size="14.00">X₂ ∈ carrier(sk₁)</text>
<polyline fill="none" stroke="#7f7542" points="327.5,-143.5 544.5,-143.5 "/>
<text text-anchor="middle" x="436" y="-132.3" font-family="Times,serif" font-size="14.00">X₃ ∈ carrier(Af(sk₁))</text>
<polyline fill="none" stroke="#7f7542" points="327.5,-128.5 544.5,-128.5 "/>
<text text-anchor="middle" x="436" y="-117.3" font-family="Times,serif" font-size="14.00">X₃ ∈ carrier(sk₁)</text>
<polyline fill="none" stroke="#7f7542" points="327.5,-113.5 544.5,-113.5 "/>
<text text-anchor="middle" x="436" y="-102.3" font-family="Times,serif" font-size="14.00">sk₁ // X₁ // X₂ // X₃ // sk₇(sk₁)</text>
<polyline fill="none" stroke="#7f7542" points="327.5,-98.5 544.5,-98.5 "/>
<text text-anchor="middle" x="436" y="-87.3" font-family="Times,serif" font-size="14.00">⇊</text>
<polyline fill="none" stroke="#7f7542" points="327.5,-83.5 544.5,-83.5 "/>
<text text-anchor="middle" x="436" y="-72.3" font-family="Times,serif" font-size="14.00">Af(sk₁) // X₁ // X₂ // X₃ // sk₇(sk₁)</text>
</a>
</g>
</g>
<!-- c_0_40&#45;&gt;c_0_53 -->
<g id="edge1" class="edge">
<title>c_0_40&#45;&gt;c_0_53</title>
<path fill="none" stroke="black" d="M628.43,-285C580.96,-285 531.67,-285 531.67,-285 531.67,-285 531.67,-213.52 531.67,-213.52"/>
<polygon fill="black" stroke="black" points="535.17,-213.52 531.67,-203.52 528.17,-213.52 535.17,-213.52"/>
</g>
<!-- c_0_18 -->
<g id="node2" class="node">
<title>c_0_18</title>
<g id="a_node2"><a xlink:href="c_0_18.html" xlink:title="{¬ (empty(sk₁))}" target="_vizar">
<polygon fill="#fa6900" stroke="#7f7542" points="506,-330.5 506,-345.5 610,-345.5 610,-330.5 506,-330.5"/>
<text text-anchor="middle" x="558" y="-334.3" font-family="Times,serif" font-size="14.00">¬ (empty(sk₁))</text>
</a>
</g>
</g>
<!-- c_0_18&#45;&gt;c_0_53 -->
<g id="edge2" class="edge">
<title>c_0_18&#45;&gt;c_0_53</title>
<path fill="none" stroke="black" d="M518.83,-330.33C518.83,-330.33 518.83,-213.62 518.83,-213.62"/>
<polygon fill="black" stroke="black" points="522.33,-213.62 518.83,-203.62 515.33,-213.62 522.33,-213.62"/>
</g>
<!-- c_0_15 -->
<g id="node3" class="node">
<title>c_0_15</title>
<g id="a_node3"><a xlink:href="c_0_15.html" xlink:title="{ParOrtStr(sk₁)}" target="_vizar">
<polygon fill="#fa6900" stroke="#7f7542" points="384.5,-330.5 384.5,-345.5 487.5,-345.5 487.5,-330.5 384.5,-330.5"/>
<text text-anchor="middle" x="436" y="-334.3" font-family="Times,serif" font-size="14.00">ParOrtStr(sk₁)</text>
</a>
</g>
</g>
<!-- c_0_15&#45;&gt;c_0_53 -->
<g id="edge3" class="edge">
<title>c_0_15&#45;&gt;c_0_53</title>
<path fill="none" stroke="black" d="M436,-330.33C436,-330.33 436,-213.62 436,-213.62"/>
<polygon fill="black" stroke="black" points="439.5,-213.62 436,-203.62 432.5,-213.62 439.5,-213.62"/>
</g>
<!-- c_0_41 -->
<g id="node4" class="node">
<title>c_0_41</title>
<g id="a_node4"><a xlink:href="c_0_41.html" xlink:title="{sk₇(sk₁) ∈ carrier(Af(sk₁))}" target="_vizar">
<polygon fill="#fa6900" stroke="#7f7542" points="188,-330.5 188,-345.5 366,-345.5 366,-330.5 188,-330.5"/>
<text text-anchor="middle" x="277" y="-334.3" font-family="Times,serif" font-size="14.00">sk₇(sk₁) ∈ carrier(Af(sk₁))</text>
</a>
</g>
</g>
<!-- c_0_41&#45;&gt;c_0_53 -->
<g id="edge4" class="edge">
<title>c_0_41&#45;&gt;c_0_53</title>
<path fill="none" stroke="black" d="M346.75,-330.33C346.75,-330.33 346.75,-213.62 346.75,-213.62"/>
<polygon fill="black" stroke="black" points="350.25,-213.62 346.75,-203.62 343.25,-213.62 350.25,-213.62"/>
</g>
<!-- c_0_31 -->
<g id="node5" class="node">
<title>c_0_31</title>
<g id="a_node5"><a xlink:href="c_0_31.html" xlink:title="{sk₇(sk₁) ∈ carrier(sk₁)}" target="_vizar">
<polygon fill="#fa6900" stroke="#7f7542" points="16.5,-330.5 16.5,-345.5 169.5,-345.5 169.5,-330.5 16.5,-330.5"/>
<text text-anchor="middle" x="93" y="-334.3" font-family="Times,serif" font-size="14.00">sk₇(sk₁) ∈ carrier(sk₁)</text>
</a>
</g>
</g>
<!-- c_0_31&#45;&gt;c_0_53 -->
<g id="edge5" class="edge">
<title>c_0_31&#45;&gt;c_0_53</title>
<path fill="none" stroke="black" d="M93,-330.33C93,-293.43 93,-136 93,-136 93,-136 317.47,-136 317.47,-136"/>
<polygon fill="black" stroke="black" points="317.47,-139.5 327.47,-136 317.47,-132.5 317.47,-139.5"/>
</g>
<!-- c_0_68 -->
<g id="node7" class="node">
<title>c_0_68</title>
<g id="a_node7"><a xlink:href="c_0_68.html" xlink:title="{Af(sk₁) // sk₂(sk₁) // sk₆(sk₁) // sk₃(sk₁) // sk₇(sk₁)}" target="_vizar">
<polygon fill="#fa6900" stroke="#7f7542" points="545.5,-16.5 545.5,-31.5 874.5,-31.5 874.5,-16.5 545.5,-16.5"/>
<text text-anchor="middle" x="710" y="-20.3" font-family="Times,serif" font-size="14.00">Af(sk₁) // sk₂(sk₁) // sk₆(sk₁) // sk₃(sk₁) // sk₇(sk₁)</text>
</a>
</g>
</g>
<!-- c_0_53&#45;&gt;c_0_68 -->
<g id="edge6" class="edge">
<title>c_0_53&#45;&gt;c_0_68</title>
<path fill="none" stroke="black" stroke-dasharray="5,2" d="M536,-68.27C536,-44.68 536,-24 536,-24 536,-24 536.94,-24 536.94,-24"/>
<polygon fill="black" stroke="black" points="535.36,-27.5 545.35,-24 535.35,-20.5 535.36,-27.5"/>
</g>
<!-- c_0_80 -->
<g id="node8" class="node">
<title>c_0_80</title>
<g id="a_node8"><a xlink:href="c_0_80.html" xlink:title="{Af(sk₁) // sk₂(sk₁) // sk₃(sk₁) // sk₆(sk₁) // sk₇(sk₁)}" target="_vizar">
<polygon fill="#fa6900" stroke="#7f7542" points="198.5,-16.5 198.5,-31.5 527.5,-31.5 527.5,-16.5 198.5,-16.5"/>
<text text-anchor="middle" x="363" y="-20.3" font-family="Times,serif" font-size="14.00">Af(sk₁) // sk₂(sk₁) // sk₃(sk₁) // sk₆(sk₁) // sk₇(sk₁)</text>
</a>
</g>
</g>
<!-- c_0_53&#45;&gt;c_0_80 -->
<g id="edge7" class="edge">
<title>c_0_53&#45;&gt;c_0_80</title>
<path fill="none" stroke="black" stroke-dasharray="5,2" d="M427.5,-68.27C427.5,-68.27 427.5,-41.79 427.5,-41.79"/>
<polygon fill="black" stroke="black" points="431,-41.79 427.5,-31.79 424,-41.79 431,-41.79"/>
</g>
</g>
</svg>
