<?xml version="1.0" encoding="UTF-8" standalone="no"?>
<!DOCTYPE svg PUBLIC "-//W3C//DTD SVG 1.1//EN"
 "http://www.w3.org/Graphics/SVG/1.1/DTD/svg11.dtd">
<!-- Generated by graphviz version 5.0.0 (0)
 -->
<!-- Title: proof Pages: 1 -->
<svg width="6147pt" height="280pt"
 viewBox="0.00 0.00 6147.00 280.00" xmlns="http://www.w3.org/2000/svg" xmlns:xlink="http://www.w3.org/1999/xlink">
<g id="graph0" class="graph" transform="scale(1 1) rotate(0) translate(4 276)">
<title>proof</title>
<g id="clust1" class="cluster">
<title>cluster_0</title>
<polygon fill="transparent" stroke="black" stroke-dasharray="1,5" points="2879,-232 2879,-264 2977,-264 2977,-232 2879,-232"/>
</g>
<g id="clust2" class="cluster">
<title>cluster_1</title>
<polygon fill="transparent" stroke="black" stroke-width="2" points="2868,-180 2868,-212 2988,-212 2988,-180 2868,-180"/>
</g>
<g id="clust3" class="cluster">
<title>cluster_2</title>
<polygon fill="transparent" stroke="black" stroke-dasharray="1,5" points="8,-8 8,-160 6131,-160 6131,-8 8,-8"/>
</g>
<!-- t8_conmetr -->
<g id="node1" class="node">
<title>t8_conmetr</title>
<g id="a_node1"><a xlink:href="t8_conmetr.html" xlink:title="t8_conmetr" target="_vizar">
<polygon fill="#fa6900" stroke="#7f7542" points="2887,-240.5 2887,-255.5 2969,-255.5 2969,-240.5 2887,-240.5"/>
<text text-anchor="middle" x="2928" y="-244.3" font-family="Times,serif" font-size="14.00">t8_conmetr</text>
</a>
</g>
</g>
<!-- c_0_18 -->
<g id="node2" class="node">
<title>c_0_18</title>
<g id="a_node2"><a xlink:href="c_0_18.html" xlink:title="{¬ (empty(sk₁))}" target="_vizar">
<polygon fill="#fa6900" stroke="#7f7542" points="2876,-188.5 2876,-203.5 2980,-203.5 2980,-188.5 2876,-188.5"/>
<text text-anchor="middle" x="2928" y="-192.3" font-family="Times,serif" font-size="14.00">¬ (empty(sk₁))</text>
</a>
</g>
</g>
<!-- t8_conmetr&#45;&gt;c_0_18 -->
<g id="edge1" class="edge">
<title>t8_conmetr&#45;&gt;c_0_18</title>
<path fill="none" stroke="black" d="M2928,-240.33C2928,-240.33 2928,-213.7 2928,-213.7"/>
<polygon fill="black" stroke="black" points="2931.5,-213.7 2928,-203.7 2924.5,-213.7 2931.5,-213.7"/>
</g>
<!-- c_0_73 -->
<g id="node3" class="node">
<title>c_0_73</title>
<g id="a_node3"><a xlink:href="c_0_73.html" xlink:title="{sk₁ // sk₂(sk₁) // sk₃(sk₁) // sk₆(sk₁) // sk₇(sk₁)}" target="_vizar">
<polygon fill="#fa6900" stroke="#7f7542" points="5819,-76.5 5819,-91.5 6123,-91.5 6123,-76.5 5819,-76.5"/>
<text text-anchor="middle" x="5971" y="-80.3" font-family="Times,serif" font-size="14.00">sk₁ // sk₂(sk₁) // sk₃(sk₁) // sk₆(sk₁) // sk₇(sk₁)</text>
</a>
</g>
</g>
<!-- c_0_18&#45;&gt;c_0_73 -->
<g id="edge2" class="edge">
<title>c_0_18&#45;&gt;c_0_73</title>
<path fill="none" stroke="black" stroke-dasharray="5,2" d="M2973.5,-188.19C2973.5,-174.12 2973.5,-146 2973.5,-146 2973.5,-146 5971,-146 5971,-146 5971,-146 5971,-101.6 5971,-101.6"/>
<polygon fill="black" stroke="black" points="5974.5,-101.6 5971,-91.6 5967.5,-101.6 5974.5,-101.6"/>
</g>
<!-- c_0_55 -->
<g id="node4" class="node">
<title>c_0_55</title>
<g id="a_node4"><a xlink:href="c_0_55.html" xlink:title="{sk₃(sk₁) ∈ carrier(Af(sk₁))}" target="_vizar">
<polygon fill="#fa6900" stroke="#7f7542" points="5623,-76.5 5623,-91.5 5801,-91.5 5801,-76.5 5623,-76.5"/>
<text text-anchor="middle" x="5712" y="-80.3" font-family="Times,serif" font-size="14.00">sk₃(sk₁) ∈ carrier(Af(sk₁))</text>
</a>
</g>
</g>
<!-- c_0_18&#45;&gt;c_0_55 -->
<g id="edge3" class="edge">
<title>c_0_18&#45;&gt;c_0_55</title>
<path fill="none" stroke="black" stroke-dasharray="5,2" d="M2967,-188.35C2967,-173.24 2967,-141 2967,-141 2967,-141 5712,-141 5712,-141 5712,-141 5712,-101.93 5712,-101.93"/>
<polygon fill="black" stroke="black" points="5715.5,-101.93 5712,-91.93 5708.5,-101.93 5715.5,-101.93"/>
</g>
<!-- c_0_57 -->
<g id="node5" class="node">
<title>c_0_57</title>
<g id="a_node5"><a xlink:href="c_0_57.html" xlink:title="{sk₂(sk₁) ∈ carrier(Af(sk₁))}" target="_vizar">
<polygon fill="#fa6900" stroke="#7f7542" points="5427,-76.5 5427,-91.5 5605,-91.5 5605,-76.5 5427,-76.5"/>
<text text-anchor="middle" x="5516" y="-80.3" font-family="Times,serif" font-size="14.00">sk₂(sk₁) ∈ carrier(Af(sk₁))</text>
</a>
</g>
</g>
<!-- c_0_18&#45;&gt;c_0_57 -->
<g id="edge4" class="edge">
<title>c_0_18&#45;&gt;c_0_57</title>
<path fill="none" stroke="black" stroke-dasharray="5,2" d="M2960.5,-188.27C2960.5,-171.86 2960.5,-135 2960.5,-135 2960.5,-135 5516,-135 5516,-135 5516,-135 5516,-101.53 5516,-101.53"/>
<polygon fill="black" stroke="black" points="5519.5,-101.53 5516,-91.53 5512.5,-101.53 5519.5,-101.53"/>
</g>
<!-- c_0_113 -->
<g id="node6" class="node">
<title>c_0_113</title>
<g id="a_node6"><a xlink:href="c_0_113.html" xlink:title="⊥" target="_vizar">
<polygon fill="#fa6900" stroke="#7f7542" points="5395,-76.5 5395,-91.5 5409,-91.5 5409,-76.5 5395,-76.5"/>
<text text-anchor="middle" x="5402" y="-80.3" font-family="Times,serif" font-size="14.00">⊥</text>
</a>
</g>
</g>
<!-- c_0_18&#45;&gt;c_0_113 -->
<g id="edge5" class="edge">
<title>c_0_18&#45;&gt;c_0_113</title>
<path fill="none" stroke="black" stroke-dasharray="5,2" d="M2954,-188.43C2954,-171.09 2954,-130 2954,-130 2954,-130 5402,-130 5402,-130 5402,-130 5402,-101.6 5402,-101.6"/>
<polygon fill="black" stroke="black" points="5405.5,-101.6 5402,-91.6 5398.5,-101.6 5405.5,-101.6"/>
</g>
<!-- c_0_98 -->
<g id="node7" class="node">
<title>c_0_98</title>
<g id="a_node7"><a xlink:href="c_0_98.html" xlink:title="{LIN(Af(sk₁),sk₂(sk₁),sk₃(sk₁),sk₄(sk₁))|LIN(Af(sk₁),sk₂(sk₁),sk₃(sk₁),sk₆(sk₁))|sk₁ // sk₄(sk₁) // sk₆(sk₁) // sk₅(sk₁) // sk₇(sk₁)|trivial(Af(sk₁))}" target="_vizar">
<polygon fill="#fa6900" stroke="#7f7542" points="5073,-54 5073,-114 5377,-114 5377,-54 5073,-54"/>
<text text-anchor="middle" x="5225" y="-102.8" font-family="Times,serif" font-size="14.00">LIN(Af(sk₁),sk₂(sk₁),sk₃(sk₁),sk₄(sk₁))</text>
<polyline fill="none" stroke="#7f7542" points="5073,-99 5377,-99 "/>
<text text-anchor="middle" x="5225" y="-87.8" font-family="Times,serif" font-size="14.00">LIN(Af(sk₁),sk₂(sk₁),sk₃(sk₁),sk₆(sk₁))</text>
<polyline fill="none" stroke="#7f7542" points="5073,-84 5377,-84 "/>
<text text-anchor="middle" x="5225" y="-72.8" font-family="Times,serif" font-size="14.00">sk₁ // sk₄(sk₁) // sk₆(sk₁) // sk₅(sk₁) // sk₇(sk₁)</text>
<polyline fill="none" stroke="#7f7542" points="5073,-69 5377,-69 "/>
<text text-anchor="middle" x="5225" y="-57.8" font-family="Times,serif" font-size="14.00">trivial(Af(sk₁))</text>
</a>
</g>
</g>
<!-- c_0_18&#45;&gt;c_0_98 -->
<g id="edge6" class="edge">
<title>c_0_18&#45;&gt;c_0_98</title>
<path fill="none" stroke="black" stroke-dasharray="5,2" d="M2941,-188.37C2941,-167.32 2941,-110 2941,-110 2941,-110 5062.93,-110 5062.93,-110"/>
<polygon fill="black" stroke="black" points="5062.93,-113.5 5072.93,-110 5062.93,-106.5 5062.93,-113.5"/>
</g>
<!-- c_0_56 -->
<g id="node8" class="node">
<title>c_0_56</title>
<g id="a_node8"><a xlink:href="c_0_56.html" xlink:title="{sk₆(sk₁) ∈ carrier(Af(sk₁))}" target="_vizar">
<polygon fill="#fa6900" stroke="#7f7542" points="4877,-76.5 4877,-91.5 5055,-91.5 5055,-76.5 4877,-76.5"/>
<text text-anchor="middle" x="4966" y="-80.3" font-family="Times,serif" font-size="14.00">sk₆(sk₁) ∈ carrier(Af(sk₁))</text>
</a>
</g>
</g>
<!-- c_0_18&#45;&gt;c_0_56 -->
<g id="edge7" class="edge">
<title>c_0_18&#45;&gt;c_0_56</title>
<path fill="none" stroke="black" stroke-dasharray="5,2" d="M2947.5,-188.4C2947.5,-170.09 2947.5,-125 2947.5,-125 2947.5,-125 4966,-125 4966,-125 4966,-125 4966,-101.52 4966,-101.52"/>
<polygon fill="black" stroke="black" points="4969.5,-101.52 4966,-91.52 4962.5,-101.52 4969.5,-101.52"/>
</g>
<!-- c_0_107 -->
<g id="node9" class="node">
<title>c_0_107</title>
<g id="a_node9"><a xlink:href="c_0_107.html" xlink:title="{LIN(sk₁,sk₂(sk₁),sk₃(sk₁),sk₄(sk₁))|LIN(sk₁,sk₂(sk₁),sk₃(sk₁),sk₆(sk₁))|trivial(Af(sk₁))}" target="_vizar">
<polygon fill="#fa6900" stroke="#7f7542" points="4629.5,-61.5 4629.5,-106.5 4858.5,-106.5 4858.5,-61.5 4629.5,-61.5"/>
<text text-anchor="middle" x="4744" y="-95.3" font-family="Times,serif" font-size="14.00">LIN(sk₁,sk₂(sk₁),sk₃(sk₁),sk₄(sk₁))</text>
<polyline fill="none" stroke="#7f7542" points="4629.5,-91.5 4858.5,-91.5 "/>
<text text-anchor="middle" x="4744" y="-80.3" font-family="Times,serif" font-size="14.00">LIN(sk₁,sk₂(sk₁),sk₃(sk₁),sk₆(sk₁))</text>
<polyline fill="none" stroke="#7f7542" points="4629.5,-76.5 4858.5,-76.5 "/>
<text text-anchor="middle" x="4744" y="-65.3" font-family="Times,serif" font-size="14.00">trivial(Af(sk₁))</text>
</a>
</g>
</g>
<!-- c_0_18&#45;&gt;c_0_107 -->
<g id="edge8" class="edge">
<title>c_0_18&#45;&gt;c_0_107</title>
<path fill="none" stroke="black" stroke-dasharray="5,2" d="M2980.39,-202C3278.14,-202 4744,-202 4744,-202 4744,-202 4744,-116.75 4744,-116.75"/>
<polygon fill="black" stroke="black" points="4747.5,-116.75 4744,-106.75 4740.5,-116.75 4747.5,-116.75"/>
</g>
<!-- c_0_104 -->
<g id="node10" class="node">
<title>c_0_104</title>
<g id="a_node10"><a xlink:href="c_0_104.html" xlink:title="{LIN(Af(sk₁),sk₂(sk₁),sk₃(sk₁),sk₄(sk₁))|LIN(sk₁,sk₂(sk₁),sk₃(sk₁),sk₆(sk₁))|trivial(Af(sk₁))}" target="_vizar">
<polygon fill="#fa6900" stroke="#7f7542" points="4356.5,-61.5 4356.5,-106.5 4611.5,-106.5 4611.5,-61.5 4356.5,-61.5"/>
<text text-anchor="middle" x="4484" y="-95.3" font-family="Times,serif" font-size="14.00">LIN(Af(sk₁),sk₂(sk₁),sk₃(sk₁),sk₄(sk₁))</text>
<polyline fill="none" stroke="#7f7542" points="4356.5,-91.5 4611.5,-91.5 "/>
<text text-anchor="middle" x="4484" y="-80.3" font-family="Times,serif" font-size="14.00">LIN(sk₁,sk₂(sk₁),sk₃(sk₁),sk₆(sk₁))</text>
<polyline fill="none" stroke="#7f7542" points="4356.5,-76.5 4611.5,-76.5 "/>
<text text-anchor="middle" x="4484" y="-65.3" font-family="Times,serif" font-size="14.00">trivial(Af(sk₁))</text>
</a>
</g>
</g>
<!-- c_0_18&#45;&gt;c_0_104 -->
<g id="edge9" class="edge">
<title>c_0_18&#45;&gt;c_0_104</title>
<path fill="none" stroke="black" stroke-dasharray="5,2" d="M2934.5,-188.39C2934.5,-165.52 2934.5,-99 2934.5,-99 2934.5,-99 4346.21,-99 4346.21,-99"/>
<polygon fill="black" stroke="black" points="4346.21,-102.5 4356.21,-99 4346.21,-95.5 4346.21,-102.5"/>
</g>
<!-- c_0_70 -->
<g id="node11" class="node">
<title>c_0_70</title>
<g id="a_node11"><a xlink:href="c_0_70.html" xlink:title="{2&#45;dimensional(Af(sk₁))}" target="_vizar">
<polygon fill="#fa6900" stroke="#7f7542" points="4181.5,-76.5 4181.5,-91.5 4338.5,-91.5 4338.5,-76.5 4181.5,-76.5"/>
<text text-anchor="middle" x="4260" y="-80.3" font-family="Times,serif" font-size="14.00">2&#45;dimensional(Af(sk₁))</text>
</a>
</g>
</g>
<!-- c_0_18&#45;&gt;c_0_70 -->
<g id="edge10" class="edge">
<title>c_0_18&#45;&gt;c_0_70</title>
<path fill="none" stroke="black" stroke-dasharray="5,2" d="M2980.22,-200C3226.48,-200 4260,-200 4260,-200 4260,-200 4260,-101.61 4260,-101.61"/>
<polygon fill="black" stroke="black" points="4263.5,-101.61 4260,-91.61 4256.5,-101.61 4263.5,-101.61"/>
</g>
<!-- c_0_54 -->
<g id="node12" class="node">
<title>c_0_54</title>
<g id="a_node12"><a xlink:href="c_0_54.html" xlink:title="{sk₁ // sk₂(sk₁) // sk₆(sk₁) // sk₃(sk₁) // sk₇(sk₁)}" target="_vizar">
<polygon fill="#fa6900" stroke="#7f7542" points="3859,-76.5 3859,-91.5 4163,-91.5 4163,-76.5 3859,-76.5"/>
<text text-anchor="middle" x="4011" y="-80.3" font-family="Times,serif" font-size="14.00">sk₁ // sk₂(sk₁) // sk₆(sk₁) // sk₃(sk₁) // sk₇(sk₁)</text>
</a>
</g>
</g>
<!-- c_0_18&#45;&gt;c_0_54 -->
<g id="edge11" class="edge">
<title>c_0_18&#45;&gt;c_0_54</title>
<path fill="none" stroke="black" stroke-dasharray="5,2" d="M2980.24,-198C3196.57,-198 4011,-198 4011,-198 4011,-198 4011,-101.84 4011,-101.84"/>
<polygon fill="black" stroke="black" points="4014.5,-101.84 4011,-91.84 4007.5,-101.84 4014.5,-101.84"/>
</g>
<!-- c_0_76 -->
<g id="node13" class="node">
<title>c_0_76</title>
<g id="a_node13"><a xlink:href="c_0_76.html" xlink:title="{sk₄(sk₁) ∈ carrier(sk₁)}" target="_vizar">
<polygon fill="#fa6900" stroke="#7f7542" points="3687.5,-76.5 3687.5,-91.5 3840.5,-91.5 3840.5,-76.5 3687.5,-76.5"/>
<text text-anchor="middle" x="3764" y="-80.3" font-family="Times,serif" font-size="14.00">sk₄(sk₁) ∈ carrier(sk₁)</text>
</a>
</g>
</g>
<!-- c_0_18&#45;&gt;c_0_76 -->
<g id="edge12" class="edge">
<title>c_0_18&#45;&gt;c_0_76</title>
<path fill="none" stroke="black" stroke-dasharray="5,2" d="M2980.3,-196C3163.32,-196 3764,-196 3764,-196 3764,-196 3764,-101.7 3764,-101.7"/>
<polygon fill="black" stroke="black" points="3767.5,-101.7 3764,-91.7 3760.5,-101.7 3767.5,-101.7"/>
</g>
<!-- c_0_82 -->
<g id="node14" class="node">
<title>c_0_82</title>
<g id="a_node14"><a xlink:href="c_0_82.html" xlink:title="{sk₁ // sk₂(sk₁) // sk₄(sk₁) // sk₃(sk₁) // sk₅(sk₁)}" target="_vizar">
<polygon fill="#fa6900" stroke="#7f7542" points="3365,-76.5 3365,-91.5 3669,-91.5 3669,-76.5 3365,-76.5"/>
<text text-anchor="middle" x="3517" y="-80.3" font-family="Times,serif" font-size="14.00">sk₁ // sk₂(sk₁) // sk₄(sk₁) // sk₃(sk₁) // sk₅(sk₁)</text>
</a>
</g>
</g>
<!-- c_0_18&#45;&gt;c_0_82 -->
<g id="edge13" class="edge">
<title>c_0_18&#45;&gt;c_0_82</title>
<path fill="none" stroke="black" stroke-dasharray="5,2" d="M2980.01,-194C3123.95,-194 3517,-194 3517,-194 3517,-194 3517,-101.56 3517,-101.56"/>
<polygon fill="black" stroke="black" points="3520.5,-101.56 3517,-91.56 3513.5,-101.56 3520.5,-101.56"/>
</g>
<!-- c_0_44 -->
<g id="node15" class="node">
<title>c_0_44</title>
<g id="a_node15"><a xlink:href="c_0_44.html" xlink:title="{sk₆(sk₁) ∈ carrier(sk₁)}" target="_vizar">
<polygon fill="#fa6900" stroke="#7f7542" points="3193.5,-76.5 3193.5,-91.5 3346.5,-91.5 3346.5,-76.5 3193.5,-76.5"/>
<text text-anchor="middle" x="3270" y="-80.3" font-family="Times,serif" font-size="14.00">sk₆(sk₁) ∈ carrier(sk₁)</text>
</a>
</g>
</g>
<!-- c_0_18&#45;&gt;c_0_44 -->
<g id="edge14" class="edge">
<title>c_0_18&#45;&gt;c_0_44</title>
<path fill="none" stroke="black" stroke-dasharray="5,2" d="M2980.31,-192C3076.12,-192 3270,-192 3270,-192 3270,-192 3270,-101.77 3270,-101.77"/>
<polygon fill="black" stroke="black" points="3273.5,-101.77 3270,-91.77 3266.5,-101.77 3273.5,-101.77"/>
</g>
<!-- c_0_45 -->
<g id="node16" class="node">
<title>c_0_45</title>
<g id="a_node16"><a xlink:href="c_0_45.html" xlink:title="{sk₂(sk₁) ∈ carrier(sk₁)}" target="_vizar">
<polygon fill="#fa6900" stroke="#7f7542" points="3022.5,-76.5 3022.5,-91.5 3175.5,-91.5 3175.5,-76.5 3022.5,-76.5"/>
<text text-anchor="middle" x="3099" y="-80.3" font-family="Times,serif" font-size="14.00">sk₂(sk₁) ∈ carrier(sk₁)</text>
</a>
</g>
</g>
<!-- c_0_18&#45;&gt;c_0_45 -->
<g id="edge15" class="edge">
<title>c_0_18&#45;&gt;c_0_45</title>
<path fill="none" stroke="black" stroke-dasharray="5,2" d="M2980.23,-190C3030.52,-190 3099,-190 3099,-190 3099,-190 3099,-101.62 3099,-101.62"/>
<polygon fill="black" stroke="black" points="3102.5,-101.62 3099,-91.62 3095.5,-101.62 3102.5,-101.62"/>
</g>
<!-- c_0_63 -->
<g id="node17" class="node">
<title>c_0_63</title>
<g id="a_node17"><a xlink:href="c_0_63.html" xlink:title="{sk₅(sk₁) ∈ carrier(sk₁)}" target="_vizar">
<polygon fill="#fa6900" stroke="#7f7542" points="2851.5,-76.5 2851.5,-91.5 3004.5,-91.5 3004.5,-76.5 2851.5,-76.5"/>
<text text-anchor="middle" x="2928" y="-80.3" font-family="Times,serif" font-size="14.00">sk₅(sk₁) ∈ carrier(sk₁)</text>
</a>
</g>
</g>
<!-- c_0_18&#45;&gt;c_0_63 -->
<g id="edge16" class="edge">
<title>c_0_18&#45;&gt;c_0_63</title>
<path fill="none" stroke="black" stroke-dasharray="5,2" d="M2928,-188.3C2928,-188.3 2928,-101.75 2928,-101.75"/>
<polygon fill="black" stroke="black" points="2931.5,-101.75 2928,-91.75 2924.5,-101.75 2931.5,-101.75"/>
</g>
<!-- c_0_31 -->
<g id="node18" class="node">
<title>c_0_31</title>
<g id="a_node18"><a xlink:href="c_0_31.html" xlink:title="{sk₇(sk₁) ∈ carrier(sk₁)}" target="_vizar">
<polygon fill="#fa6900" stroke="#7f7542" points="2680.5,-76.5 2680.5,-91.5 2833.5,-91.5 2833.5,-76.5 2680.5,-76.5"/>
<text text-anchor="middle" x="2757" y="-80.3" font-family="Times,serif" font-size="14.00">sk₇(sk₁) ∈ carrier(sk₁)</text>
</a>
</g>
</g>
<!-- c_0_18&#45;&gt;c_0_31 -->
<g id="edge17" class="edge">
<title>c_0_18&#45;&gt;c_0_31</title>
<path fill="none" stroke="black" stroke-dasharray="5,2" d="M2875.77,-190C2825.48,-190 2757,-190 2757,-190 2757,-190 2757,-101.62 2757,-101.62"/>
<polygon fill="black" stroke="black" points="2760.5,-101.62 2757,-91.62 2753.5,-101.62 2760.5,-101.62"/>
</g>
<!-- c_0_69 -->
<g id="node19" class="node">
<title>c_0_69</title>
<g id="a_node19"><a xlink:href="c_0_69.html" xlink:title="{AffinStruct(Af(sk₁))}" target="_vizar">
<polygon fill="#fa6900" stroke="#7f7542" points="2526,-76.5 2526,-91.5 2662,-91.5 2662,-76.5 2526,-76.5"/>
<text text-anchor="middle" x="2594" y="-80.3" font-family="Times,serif" font-size="14.00">AffinStruct(Af(sk₁))</text>
</a>
</g>
</g>
<!-- c_0_18&#45;&gt;c_0_69 -->
<g id="edge18" class="edge">
<title>c_0_18&#45;&gt;c_0_69</title>
<path fill="none" stroke="black" stroke-dasharray="5,2" d="M2875.81,-192C2781.88,-192 2594,-192 2594,-192 2594,-192 2594,-101.77 2594,-101.77"/>
<polygon fill="black" stroke="black" points="2597.5,-101.77 2594,-91.77 2590.5,-101.77 2597.5,-101.77"/>
</g>
<!-- c_0_102 -->
<g id="node20" class="node">
<title>c_0_102</title>
<g id="a_node20"><a xlink:href="c_0_102.html" xlink:title="{OrtAfSp&#45;like(sk₁)}" target="_vizar">
<polygon fill="#fa6900" stroke="#7f7542" points="2388,-76.5 2388,-91.5 2508,-91.5 2508,-76.5 2388,-76.5"/>
<text text-anchor="middle" x="2448" y="-80.3" font-family="Times,serif" font-size="14.00">OrtAfSp&#45;like(sk₁)</text>
</a>
</g>
</g>
<!-- c_0_18&#45;&gt;c_0_102 -->
<g id="edge19" class="edge">
<title>c_0_18&#45;&gt;c_0_102</title>
<path fill="none" stroke="black" stroke-dasharray="5,2" d="M2875.72,-194C2751.31,-194 2448,-194 2448,-194 2448,-194 2448,-101.56 2448,-101.56"/>
<polygon fill="black" stroke="black" points="2451.5,-101.56 2448,-91.56 2444.5,-101.56 2451.5,-101.56"/>
</g>
<!-- c_0_71 -->
<g id="node21" class="node">
<title>c_0_71</title>
<g id="a_node21"><a xlink:href="c_0_71.html" xlink:title="{AffinSpace&#45;like(Af(sk₁))}" target="_vizar">
<polygon fill="#fa6900" stroke="#7f7542" points="2206.5,-76.5 2206.5,-91.5 2369.5,-91.5 2369.5,-76.5 2206.5,-76.5"/>
<text text-anchor="middle" x="2288" y="-80.3" font-family="Times,serif" font-size="14.00">AffinSpace&#45;like(Af(sk₁))</text>
</a>
</g>
</g>
<!-- c_0_18&#45;&gt;c_0_71 -->
<g id="edge20" class="edge">
<title>c_0_18&#45;&gt;c_0_71</title>
<path fill="none" stroke="black" stroke-dasharray="5,2" d="M2875.9,-196C2723.29,-196 2288,-196 2288,-196 2288,-196 2288,-101.7 2288,-101.7"/>
<polygon fill="black" stroke="black" points="2291.5,-101.7 2288,-91.7 2284.5,-101.7 2291.5,-101.7"/>
</g>
<!-- c_0_43 -->
<g id="node22" class="node">
<title>c_0_43</title>
<g id="a_node22"><a xlink:href="c_0_43.html" xlink:title="{sk₃(sk₁) ∈ carrier(sk₁)}" target="_vizar">
<polygon fill="#fa6900" stroke="#7f7542" points="2035.5,-76.5 2035.5,-91.5 2188.5,-91.5 2188.5,-76.5 2035.5,-76.5"/>
<text text-anchor="middle" x="2112" y="-80.3" font-family="Times,serif" font-size="14.00">sk₃(sk₁) ∈ carrier(sk₁)</text>
</a>
</g>
</g>
<!-- c_0_18&#45;&gt;c_0_43 -->
<g id="edge21" class="edge">
<title>c_0_18&#45;&gt;c_0_43</title>
<path fill="none" stroke="black" stroke-dasharray="5,2" d="M2875.71,-198C2695.61,-198 2112,-198 2112,-198 2112,-198 2112,-101.84 2112,-101.84"/>
<polygon fill="black" stroke="black" points="2115.5,-101.84 2112,-91.84 2108.5,-101.84 2115.5,-101.84"/>
</g>
<!-- c_0_84 -->
<g id="node23" class="node">
<title>c_0_84</title>
<g id="a_node23"><a xlink:href="c_0_84.html" xlink:title="{sk₁ // sk₂(sk₁) // sk₃(sk₁) // sk₄(sk₁) // sk₅(sk₁)}" target="_vizar">
<polygon fill="#fa6900" stroke="#7f7542" points="1713,-76.5 1713,-91.5 2017,-91.5 2017,-76.5 1713,-76.5"/>
<text text-anchor="middle" x="1865" y="-80.3" font-family="Times,serif" font-size="14.00">sk₁ // sk₂(sk₁) // sk₃(sk₁) // sk₄(sk₁) // sk₅(sk₁)</text>
</a>
</g>
</g>
<!-- c_0_18&#45;&gt;c_0_84 -->
<g id="edge22" class="edge">
<title>c_0_18&#45;&gt;c_0_84</title>
<path fill="none" stroke="black" stroke-dasharray="5,2" d="M2875.65,-200C2661.69,-200 1865,-200 1865,-200 1865,-200 1865,-101.61 1865,-101.61"/>
<polygon fill="black" stroke="black" points="1868.5,-101.61 1865,-91.61 1861.5,-101.61 1868.5,-101.61"/>
</g>
<!-- c_0_81 -->
<g id="node24" class="node">
<title>c_0_81</title>
<g id="a_node24"><a xlink:href="c_0_81.html" xlink:title="{X₁ ∈ carrier(Af(sk₁))|X₁ ∈ carrier(sk₁)|X₂ ∈ carrier(Af(sk₁))|X₂ ∈ carrier(sk₁)|X₃ ∈ carrier(Af(sk₁))|X₃ ∈ carrier(sk₁)|sk₁ // X₁ // X₂ // X₃ // sk₅(sk₁)|⇊|Af(sk₁) // X₁ // X₂ // X₃ // sk₅(sk₁)}" target="_vizar">
<polygon fill="#fa6900" stroke="#7f7542" points="1477.5,-16.5 1477.5,-151.5 1694.5,-151.5 1694.5,-16.5 1477.5,-16.5"/>
<text text-anchor="middle" x="1586" y="-140.3" font-family="Times,serif" font-size="14.00">X₁ ∈ carrier(Af(sk₁))</text>
<polyline fill="none" stroke="#7f7542" points="1477.5,-136.5 1694.5,-136.5 "/>
<text text-anchor="middle" x="1586" y="-125.3" font-family="Times,serif" font-size="14.00">X₁ ∈ carrier(sk₁)</text>
<polyline fill="none" stroke="#7f7542" points="1477.5,-121.5 1694.5,-121.5 "/>
<text text-anchor="middle" x="1586" y="-110.3" font-family="Times,serif" font-size="14.00">X₂ ∈ carrier(Af(sk₁))</text>
<polyline fill="none" stroke="#7f7542" points="1477.5,-106.5 1694.5,-106.5 "/>
<text text-anchor="middle" x="1586" y="-95.3" font-family="Times,serif" font-size="14.00">X₂ ∈ carrier(sk₁)</text>
<polyline fill="none" stroke="#7f7542" points="1477.5,-91.5 1694.5,-91.5 "/>
<text text-anchor="middle" x="1586" y="-80.3" font-family="Times,serif" font-size="14.00">X₃ ∈ carrier(Af(sk₁))</text>
<polyline fill="none" stroke="#7f7542" points="1477.5,-76.5 1694.5,-76.5 "/>
<text text-anchor="middle" x="1586" y="-65.3" font-family="Times,serif" font-size="14.00">X₃ ∈ carrier(sk₁)</text>
<polyline fill="none" stroke="#7f7542" points="1477.5,-61.5 1694.5,-61.5 "/>
<text text-anchor="middle" x="1586" y="-50.3" font-family="Times,serif" font-size="14.00">sk₁ // X₁ // X₂ // X₃ // sk₅(sk₁)</text>
<polyline fill="none" stroke="#7f7542" points="1477.5,-46.5 1694.5,-46.5 "/>
<text text-anchor="middle" x="1586" y="-35.3" font-family="Times,serif" font-size="14.00">⇊</text>
<polyline fill="none" stroke="#7f7542" points="1477.5,-31.5 1694.5,-31.5 "/>
<text text-anchor="middle" x="1586" y="-20.3" font-family="Times,serif" font-size="14.00">Af(sk₁) // X₁ // X₂ // X₃ // sk₅(sk₁)</text>
</a>
</g>
</g>
<!-- c_0_18&#45;&gt;c_0_81 -->
<g id="edge23" class="edge">
<title>c_0_18&#45;&gt;c_0_81</title>
<path fill="none" stroke="black" stroke-dasharray="5,2" d="M2921.5,-188.34C2921.5,-168.86 2921.5,-119 2921.5,-119 2921.5,-119 1704.72,-119 1704.72,-119"/>
<polygon fill="black" stroke="black" points="1704.72,-115.5 1694.72,-119 1704.72,-122.5 1704.72,-115.5"/>
</g>
<!-- c_0_53 -->
<g id="node25" class="node">
<title>c_0_53</title>
<g id="a_node25"><a xlink:href="c_0_53.html" xlink:title="{X₁ ∈ carrier(Af(sk₁))|X₁ ∈ carrier(sk₁)|X₂ ∈ carrier(Af(sk₁))|X₂ ∈ carrier(sk₁)|X₃ ∈ carrier(Af(sk₁))|X₃ ∈ carrier(sk₁)|sk₁ // X₁ // X₂ // X₃ // sk₇(sk₁)|⇊|Af(sk₁) // X₁ // X₂ // X₃ // sk₇(sk₁)}" target="_vizar">
<polygon fill="#fa6900" stroke="#7f7542" points="1242.5,-16.5 1242.5,-151.5 1459.5,-151.5 1459.5,-16.5 1242.5,-16.5"/>
<text text-anchor="middle" x="1351" y="-140.3" font-family="Times,serif" font-size="14.00">X₁ ∈ carrier(Af(sk₁))</text>
<polyline fill="none" stroke="#7f7542" points="1242.5,-136.5 1459.5,-136.5 "/>
<text text-anchor="middle" x="1351" y="-125.3" font-family="Times,serif" font-size="14.00">X₁ ∈ carrier(sk₁)</text>
<polyline fill="none" stroke="#7f7542" points="1242.5,-121.5 1459.5,-121.5 "/>
<text text-anchor="middle" x="1351" y="-110.3" font-family="Times,serif" font-size="14.00">X₂ ∈ carrier(Af(sk₁))</text>
<polyline fill="none" stroke="#7f7542" points="1242.5,-106.5 1459.5,-106.5 "/>
<text text-anchor="middle" x="1351" y="-95.3" font-family="Times,serif" font-size="14.00">X₂ ∈ carrier(sk₁)</text>
<polyline fill="none" stroke="#7f7542" points="1242.5,-91.5 1459.5,-91.5 "/>
<text text-anchor="middle" x="1351" y="-80.3" font-family="Times,serif" font-size="14.00">X₃ ∈ carrier(Af(sk₁))</text>
<polyline fill="none" stroke="#7f7542" points="1242.5,-76.5 1459.5,-76.5 "/>
<text text-anchor="middle" x="1351" y="-65.3" font-family="Times,serif" font-size="14.00">X₃ ∈ carrier(sk₁)</text>
<polyline fill="none" stroke="#7f7542" points="1242.5,-61.5 1459.5,-61.5 "/>
<text text-anchor="middle" x="1351" y="-50.3" font-family="Times,serif" font-size="14.00">sk₁ // X₁ // X₂ // X₃ // sk₇(sk₁)</text>
<polyline fill="none" stroke="#7f7542" points="1242.5,-46.5 1459.5,-46.5 "/>
<text text-anchor="middle" x="1351" y="-35.3" font-family="Times,serif" font-size="14.00">⇊</text>
<polyline fill="none" stroke="#7f7542" points="1242.5,-31.5 1459.5,-31.5 "/>
<text text-anchor="middle" x="1351" y="-20.3" font-family="Times,serif" font-size="14.00">Af(sk₁) // X₁ // X₂ // X₃ // sk₇(sk₁)</text>
</a>
</g>
</g>
<!-- c_0_18&#45;&gt;c_0_53 -->
<g id="edge24" class="edge">
<title>c_0_18&#45;&gt;c_0_53</title>
<path fill="none" stroke="black" stroke-dasharray="5,2" d="M2875.98,-202C2603.27,-202 1351,-202 1351,-202 1351,-202 1351,-161.62 1351,-161.62"/>
<polygon fill="black" stroke="black" points="1354.5,-161.62 1351,-151.62 1347.5,-161.62 1354.5,-161.62"/>
</g>
<!-- c_0_110 -->
<g id="node26" class="node">
<title>c_0_110</title>
<g id="a_node26"><a xlink:href="c_0_110.html" xlink:title="{LIN(sk₁,sk₂(sk₁),sk₃(sk₁),sk₄(sk₁))|trivial(Af(sk₁))}" target="_vizar">
<polygon fill="#fa6900" stroke="#7f7542" points="995.5,-69 995.5,-99 1224.5,-99 1224.5,-69 995.5,-69"/>
<text text-anchor="middle" x="1110" y="-87.8" font-family="Times,serif" font-size="14.00">LIN(sk₁,sk₂(sk₁),sk₃(sk₁),sk₄(sk₁))</text>
<polyline fill="none" stroke="#7f7542" points="995.5,-84 1224.5,-84 "/>
<text text-anchor="middle" x="1110" y="-72.8" font-family="Times,serif" font-size="14.00">trivial(Af(sk₁))</text>
</a>
</g>
</g>
<!-- c_0_18&#45;&gt;c_0_110 -->
<g id="edge25" class="edge">
<title>c_0_18&#45;&gt;c_0_110</title>
<path fill="none" stroke="black" stroke-dasharray="5,2" d="M2915,-188.48C2915,-177.15 2915,-157 2915,-157 2915,-157 1110,-157 1110,-157 1110,-157 1110,-109.13 1110,-109.13"/>
<polygon fill="black" stroke="black" points="1113.5,-109.13 1110,-99.13 1106.5,-109.13 1113.5,-109.13"/>
</g>
<!-- c_0_101 -->
<g id="node27" class="node">
<title>c_0_101</title>
<g id="a_node27"><a xlink:href="c_0_101.html" xlink:title="{LIN(Af(sk₁),sk₂(sk₁),sk₃(sk₁),sk₄(sk₁))|LIN(Af(sk₁),sk₂(sk₁),sk₃(sk₁),sk₆(sk₁))|trivial(Af(sk₁))}" target="_vizar">
<polygon fill="#fa6900" stroke="#7f7542" points="722.5,-61.5 722.5,-106.5 977.5,-106.5 977.5,-61.5 722.5,-61.5"/>
<text text-anchor="middle" x="850" y="-95.3" font-family="Times,serif" font-size="14.00">LIN(Af(sk₁),sk₂(sk₁),sk₃(sk₁),sk₄(sk₁))</text>
<polyline fill="none" stroke="#7f7542" points="722.5,-91.5 977.5,-91.5 "/>
<text text-anchor="middle" x="850" y="-80.3" font-family="Times,serif" font-size="14.00">LIN(Af(sk₁),sk₂(sk₁),sk₃(sk₁),sk₆(sk₁))</text>
<polyline fill="none" stroke="#7f7542" points="722.5,-76.5 977.5,-76.5 "/>
<text text-anchor="middle" x="850" y="-65.3" font-family="Times,serif" font-size="14.00">trivial(Af(sk₁))</text>
</a>
</g>
</g>
<!-- c_0_18&#45;&gt;c_0_101 -->
<g id="edge26" class="edge">
<title>c_0_18&#45;&gt;c_0_101</title>
<path fill="none" stroke="black" stroke-dasharray="5,2" d="M2908.5,-188.45C2908.5,-178.44 2908.5,-162 2908.5,-162 2908.5,-162 850,-162 850,-162 850,-162 850,-116.56 850,-116.56"/>
<polygon fill="black" stroke="black" points="853.5,-116.56 850,-106.56 846.5,-116.56 853.5,-116.56"/>
</g>
<!-- c_0_41 -->
<g id="node28" class="node">
<title>c_0_41</title>
<g id="a_node28"><a xlink:href="c_0_41.html" xlink:title="{sk₇(sk₁) ∈ carrier(Af(sk₁))}" target="_vizar">
<polygon fill="#fa6900" stroke="#7f7542" points="526,-76.5 526,-91.5 704,-91.5 704,-76.5 526,-76.5"/>
<text text-anchor="middle" x="615" y="-80.3" font-family="Times,serif" font-size="14.00">sk₇(sk₁) ∈ carrier(Af(sk₁))</text>
</a>
</g>
</g>
<!-- c_0_18&#45;&gt;c_0_41 -->
<g id="edge27" class="edge">
<title>c_0_18&#45;&gt;c_0_41</title>
<path fill="none" stroke="black" stroke-dasharray="5,2" d="M2902,-188.38C2902,-179.79 2902,-167 2902,-167 2902,-167 615,-167 615,-167 615,-167 615,-101.66 615,-101.66"/>
<polygon fill="black" stroke="black" points="618.5,-101.66 615,-91.66 611.5,-101.66 618.5,-101.66"/>
</g>
<!-- c_0_83 -->
<g id="node29" class="node">
<title>c_0_83</title>
<g id="a_node29"><a xlink:href="c_0_83.html" xlink:title="{sk₄(sk₁) ∈ carrier(Af(sk₁))}" target="_vizar">
<polygon fill="#fa6900" stroke="#7f7542" points="330,-76.5 330,-91.5 508,-91.5 508,-76.5 330,-76.5"/>
<text text-anchor="middle" x="419" y="-80.3" font-family="Times,serif" font-size="14.00">sk₄(sk₁) ∈ carrier(Af(sk₁))</text>
</a>
</g>
</g>
<!-- c_0_18&#45;&gt;c_0_83 -->
<g id="edge28" class="edge">
<title>c_0_18&#45;&gt;c_0_83</title>
<path fill="none" stroke="black" stroke-dasharray="5,2" d="M2895.5,-188.41C2895.5,-181.38 2895.5,-172 2895.5,-172 2895.5,-172 419,-172 419,-172 419,-172 419,-101.5 419,-101.5"/>
<polygon fill="black" stroke="black" points="422.5,-101.5 419,-91.5 415.5,-101.5 422.5,-101.5"/>
</g>
<!-- c_0_112 -->
<g id="node30" class="node">
<title>c_0_112</title>
<g id="a_node30"><a xlink:href="c_0_112.html" xlink:title="{trivial(Af(sk₁))}" target="_vizar">
<polygon fill="#fa6900" stroke="#7f7542" points="212,-76.5 212,-91.5 312,-91.5 312,-76.5 212,-76.5"/>
<text text-anchor="middle" x="262" y="-80.3" font-family="Times,serif" font-size="14.00">trivial(Af(sk₁))</text>
</a>
</g>
</g>
<!-- c_0_18&#45;&gt;c_0_112 -->
<g id="edge29" class="edge">
<title>c_0_18&#45;&gt;c_0_112</title>
<path fill="none" stroke="black" stroke-dasharray="5,2" d="M2889,-188.27C2889,-183.01 2889,-177 2889,-177 2889,-177 262,-177 262,-177 262,-177 262,-101.61 262,-101.61"/>
<polygon fill="black" stroke="black" points="265.5,-101.61 262,-91.61 258.5,-101.61 265.5,-101.61"/>
</g>
<!-- c_0_74 -->
<g id="node31" class="node">
<title>c_0_74</title>
<g id="a_node31"><a xlink:href="c_0_74.html" xlink:title="{sk₅(sk₁) ∈ carrier(Af(sk₁))}" target="_vizar">
<polygon fill="#fa6900" stroke="#7f7542" points="16,-76.5 16,-91.5 194,-91.5 194,-76.5 16,-76.5"/>
<text text-anchor="middle" x="105" y="-80.3" font-family="Times,serif" font-size="14.00">sk₅(sk₁) ∈ carrier(Af(sk₁))</text>
</a>
</g>
</g>
<!-- c_0_18&#45;&gt;c_0_74 -->
<g id="edge30" class="edge">
<title>c_0_18&#45;&gt;c_0_74</title>
<path fill="none" stroke="black" stroke-dasharray="5,2" d="M2882.5,-188.34C2882.5,-185.08 2882.5,-182 2882.5,-182 2882.5,-182 105,-182 105,-182 105,-182 105,-101.69 105,-101.69"/>
<polygon fill="black" stroke="black" points="108.5,-101.69 105,-91.69 101.5,-101.69 108.5,-101.69"/>
</g>
</g>
</svg>
