<?xml version="1.0" encoding="UTF-8" standalone="no"?>
<!DOCTYPE svg PUBLIC "-//W3C//DTD SVG 1.1//EN"
 "http://www.w3.org/Graphics/SVG/1.1/DTD/svg11.dtd">
<!-- Generated by graphviz version 5.0.0 (0)
 -->
<!-- Title: proof Pages: 1 -->
<svg width="784pt" height="355pt"
 viewBox="0.00 0.00 784.00 355.00" xmlns="http://www.w3.org/2000/svg" xmlns:xlink="http://www.w3.org/1999/xlink">
<g id="graph0" class="graph" transform="scale(1 1) rotate(0) translate(4 351)">
<title>proof</title>
<g id="clust1" class="cluster">
<title>cluster_0</title>
<polygon fill="transparent" stroke="black" stroke-dasharray="1,5" points="8,-232 8,-339 721,-339 721,-232 8,-232"/>
</g>
<g id="clust2" class="cluster">
<title>cluster_1</title>
<polygon fill="transparent" stroke="black" stroke-width="2" points="264,-180 264,-212 434,-212 434,-180 264,-180"/>
</g>
<g id="clust3" class="cluster">
<title>cluster_2</title>
<polygon fill="transparent" stroke="black" stroke-dasharray="1,5" points="16,-8 16,-160 768,-160 768,-8 16,-8"/>
</g>
<!-- c_0_17 -->
<g id="node1" class="node">
<title>c_0_17</title>
<g id="a_node1"><a xlink:href="c_0_17.html" xlink:title="{¬ (satisfying_des(sk₁))}" target="_vizar">
<polygon fill="#fa6900" stroke="#7f7542" points="553,-278 553,-293 713,-293 713,-278 553,-278"/>
<text text-anchor="middle" x="633" y="-281.8" font-family="Times,serif" font-size="14.00">¬ (satisfying_des(sk₁))</text>
</a>
</g>
</g>
<!-- c_0_63 -->
<g id="node6" class="node">
<title>c_0_63</title>
<g id="a_node6"><a xlink:href="c_0_63.html" xlink:title="{sk₅(sk₁) ∈ carrier(sk₁)}" target="_vizar">
<polygon fill="#fa6900" stroke="#7f7542" points="272.5,-188.5 272.5,-203.5 425.5,-203.5 425.5,-188.5 272.5,-188.5"/>
<text text-anchor="middle" x="349" y="-192.3" font-family="Times,serif" font-size="14.00">sk₅(sk₁) ∈ carrier(sk₁)</text>
</a>
</g>
</g>
<!-- c_0_17&#45;&gt;c_0_63 -->
<g id="edge1" class="edge">
<title>c_0_17&#45;&gt;c_0_63</title>
<path fill="none" stroke="black" d="M633,-277.87C633,-256.23 633,-196 633,-196 633,-196 435.85,-196 435.85,-196"/>
<polygon fill="black" stroke="black" points="435.85,-192.5 425.85,-196 435.85,-199.5 435.85,-192.5"/>
</g>
<!-- c_0_16 -->
<g id="node2" class="node">
<title>c_0_16</title>
<g id="a_node2"><a xlink:href="c_0_16.html" xlink:title="{OrtAfPl&#45;like(sk₁)}" target="_vizar">
<polygon fill="#fa6900" stroke="#7f7542" points="419.5,-278 419.5,-293 534.5,-293 534.5,-278 419.5,-278"/>
<text text-anchor="middle" x="477" y="-281.8" font-family="Times,serif" font-size="14.00">OrtAfPl&#45;like(sk₁)</text>
</a>
</g>
</g>
<!-- c_0_16&#45;&gt;c_0_63 -->
<g id="edge2" class="edge">
<title>c_0_16&#45;&gt;c_0_63</title>
<path fill="none" stroke="black" d="M431.75,-277.91C431.75,-256.99 431.75,-200 431.75,-200 431.75,-200 431.13,-200 431.13,-200"/>
<polygon fill="black" stroke="black" points="435.53,-196.5 425.53,-200 435.53,-203.5 435.53,-196.5"/>
</g>
<!-- c_0_18 -->
<g id="node3" class="node">
<title>c_0_18</title>
<g id="a_node3"><a xlink:href="c_0_18.html" xlink:title="{¬ (empty(sk₁))}" target="_vizar">
<polygon fill="#fa6900" stroke="#7f7542" points="297,-278 297,-293 401,-293 401,-278 297,-278"/>
<text text-anchor="middle" x="349" y="-281.8" font-family="Times,serif" font-size="14.00">¬ (empty(sk₁))</text>
</a>
</g>
</g>
<!-- c_0_18&#45;&gt;c_0_63 -->
<g id="edge3" class="edge">
<title>c_0_18&#45;&gt;c_0_63</title>
<path fill="none" stroke="black" d="M349,-277.87C349,-277.87 349,-213.61 349,-213.61"/>
<polygon fill="black" stroke="black" points="352.5,-213.61 349,-203.61 345.5,-213.61 352.5,-213.61"/>
</g>
<!-- c_0_15 -->
<g id="node4" class="node">
<title>c_0_15</title>
<g id="a_node4"><a xlink:href="c_0_15.html" xlink:title="{ParOrtStr(sk₁)}" target="_vizar">
<polygon fill="#fa6900" stroke="#7f7542" points="175.5,-278 175.5,-293 278.5,-293 278.5,-278 175.5,-278"/>
<text text-anchor="middle" x="227" y="-281.8" font-family="Times,serif" font-size="14.00">ParOrtStr(sk₁)</text>
</a>
</g>
</g>
<!-- c_0_15&#45;&gt;c_0_63 -->
<g id="edge4" class="edge">
<title>c_0_15&#45;&gt;c_0_63</title>
<path fill="none" stroke="black" d="M266.25,-277.93C266.25,-255.84 266.25,-193 266.25,-193 266.25,-193 266.87,-193 266.87,-193"/>
<polygon fill="black" stroke="black" points="262.47,-196.5 272.47,-193 262.47,-189.5 262.47,-196.5"/>
</g>
<!-- c_0_38 -->
<g id="node5" class="node">
<title>c_0_38</title>
<g id="a_node5"><a xlink:href="c_0_38.html" xlink:title="{OrtAfPl&#45;like(X₁)|ParOrtStr(X₁)|⇊|empty(X₁)|satisfying_des(X₁)|sk₅(X₁) ∈ carrier(X₁)}" target="_vizar">
<polygon fill="#f8edd1" stroke="#7f7542" points="16.5,-240.5 16.5,-330.5 157.5,-330.5 157.5,-240.5 16.5,-240.5"/>
<text text-anchor="middle" x="87" y="-319.3" font-family="Times,serif" font-size="14.00">OrtAfPl&#45;like(X₁)</text>
<polyline fill="none" stroke="#7f7542" points="16.5,-315.5 157.5,-315.5 "/>
<text text-anchor="middle" x="87" y="-304.3" font-family="Times,serif" font-size="14.00">ParOrtStr(X₁)</text>
<polyline fill="none" stroke="#7f7542" points="16.5,-300.5 157.5,-300.5 "/>
<text text-anchor="middle" x="87" y="-289.3" font-family="Times,serif" font-size="14.00">⇊</text>
<polyline fill="none" stroke="#7f7542" points="16.5,-285.5 157.5,-285.5 "/>
<text text-anchor="middle" x="87" y="-274.3" font-family="Times,serif" font-size="14.00">empty(X₁)</text>
<polyline fill="none" stroke="#7f7542" points="16.5,-270.5 157.5,-270.5 "/>
<text text-anchor="middle" x="87" y="-259.3" font-family="Times,serif" font-size="14.00">satisfying_des(X₁)</text>
<polyline fill="none" stroke="#7f7542" points="16.5,-255.5 157.5,-255.5 "/>
<text text-anchor="middle" x="87" y="-244.3" font-family="Times,serif" font-size="14.00">sk₅(X₁) ∈ carrier(X₁)</text>
</a>
</g>
</g>
<!-- c_0_38&#45;&gt;c_0_63 -->
<g id="edge5" class="edge">
<title>c_0_38&#45;&gt;c_0_63</title>
<path fill="none" stroke="black" d="M157.78,-258C215.57,-258 287.75,-258 287.75,-258 287.75,-258 287.75,-213.6 287.75,-213.6"/>
<polygon fill="black" stroke="black" points="291.25,-213.6 287.75,-203.6 284.25,-213.6 291.25,-213.6"/>
</g>
<!-- c_0_98 -->
<g id="node7" class="node">
<title>c_0_98</title>
<g id="a_node7"><a xlink:href="c_0_98.html" xlink:title="{LIN(Af(sk₁),sk₂(sk₁),sk₃(sk₁),sk₄(sk₁))|LIN(Af(sk₁),sk₂(sk₁),sk₃(sk₁),sk₆(sk₁))|sk₁ // sk₄(sk₁) // sk₆(sk₁) // sk₅(sk₁) // sk₇(sk₁)|trivial(Af(sk₁))}" target="_vizar">
<polygon fill="#fa6900" stroke="#7f7542" points="456,-54 456,-114 760,-114 760,-54 456,-54"/>
<text text-anchor="middle" x="608" y="-102.8" font-family="Times,serif" font-size="14.00">LIN(Af(sk₁),sk₂(sk₁),sk₃(sk₁),sk₄(sk₁))</text>
<polyline fill="none" stroke="#7f7542" points="456,-99 760,-99 "/>
<text text-anchor="middle" x="608" y="-87.8" font-family="Times,serif" font-size="14.00">LIN(Af(sk₁),sk₂(sk₁),sk₃(sk₁),sk₆(sk₁))</text>
<polyline fill="none" stroke="#7f7542" points="456,-84 760,-84 "/>
<text text-anchor="middle" x="608" y="-72.8" font-family="Times,serif" font-size="14.00">sk₁ // sk₄(sk₁) // sk₆(sk₁) // sk₅(sk₁) // sk₇(sk₁)</text>
<polyline fill="none" stroke="#7f7542" points="456,-69 760,-69 "/>
<text text-anchor="middle" x="608" y="-57.8" font-family="Times,serif" font-size="14.00">trivial(Af(sk₁))</text>
</a>
</g>
</g>
<!-- c_0_63&#45;&gt;c_0_98 -->
<g id="edge6" class="edge">
<title>c_0_63&#45;&gt;c_0_98</title>
<path fill="none" stroke="black" stroke-dasharray="5,2" d="M425.55,-192C460.94,-192 495.25,-192 495.25,-192 495.25,-192 495.25,-124.08 495.25,-124.08"/>
<polygon fill="black" stroke="black" points="498.75,-124.08 495.25,-114.08 491.75,-124.08 498.75,-124.08"/>
</g>
<!-- c_0_74 -->
<g id="node8" class="node">
<title>c_0_74</title>
<g id="a_node8"><a xlink:href="c_0_74.html" xlink:title="{sk₅(sk₁) ∈ carrier(Af(sk₁))}" target="_vizar">
<polygon fill="#fa6900" stroke="#7f7542" points="260,-76.5 260,-91.5 438,-91.5 438,-76.5 260,-76.5"/>
<text text-anchor="middle" x="349" y="-80.3" font-family="Times,serif" font-size="14.00">sk₅(sk₁) ∈ carrier(Af(sk₁))</text>
</a>
</g>
</g>
<!-- c_0_63&#45;&gt;c_0_74 -->
<g id="edge7" class="edge">
<title>c_0_63&#45;&gt;c_0_74</title>
<path fill="none" stroke="black" stroke-dasharray="5,2" d="M349,-188.3C349,-188.3 349,-101.75 349,-101.75"/>
<polygon fill="black" stroke="black" points="352.5,-101.75 349,-91.75 345.5,-101.75 352.5,-101.75"/>
</g>
<!-- c_0_81 -->
<g id="node9" class="node">
<title>c_0_81</title>
<g id="a_node9"><a xlink:href="c_0_81.html" xlink:title="{X₁ ∈ carrier(Af(sk₁))|X₁ ∈ carrier(sk₁)|X₂ ∈ carrier(Af(sk₁))|X₂ ∈ carrier(sk₁)|X₃ ∈ carrier(Af(sk₁))|X₃ ∈ carrier(sk₁)|sk₁ // X₁ // X₂ // X₃ // sk₅(sk₁)|⇊|Af(sk₁) // X₁ // X₂ // X₃ // sk₅(sk₁)}" target="_vizar">
<polygon fill="#fa6900" stroke="#7f7542" points="24.5,-16.5 24.5,-151.5 241.5,-151.5 241.5,-16.5 24.5,-16.5"/>
<text text-anchor="middle" x="133" y="-140.3" font-family="Times,serif" font-size="14.00">X₁ ∈ carrier(Af(sk₁))</text>
<polyline fill="none" stroke="#7f7542" points="24.5,-136.5 241.5,-136.5 "/>
<text text-anchor="middle" x="133" y="-125.3" font-family="Times,serif" font-size="14.00">X₁ ∈ carrier(sk₁)</text>
<polyline fill="none" stroke="#7f7542" points="24.5,-121.5 241.5,-121.5 "/>
<text text-anchor="middle" x="133" y="-110.3" font-family="Times,serif" font-size="14.00">X₂ ∈ carrier(Af(sk₁))</text>
<polyline fill="none" stroke="#7f7542" points="24.5,-106.5 241.5,-106.5 "/>
<text text-anchor="middle" x="133" y="-95.3" font-family="Times,serif" font-size="14.00">X₂ ∈ carrier(sk₁)</text>
<polyline fill="none" stroke="#7f7542" points="24.5,-91.5 241.5,-91.5 "/>
<text text-anchor="middle" x="133" y="-80.3" font-family="Times,serif" font-size="14.00">X₃ ∈ carrier(Af(sk₁))</text>
<polyline fill="none" stroke="#7f7542" points="24.5,-76.5 241.5,-76.5 "/>
<text text-anchor="middle" x="133" y="-65.3" font-family="Times,serif" font-size="14.00">X₃ ∈ carrier(sk₁)</text>
<polyline fill="none" stroke="#7f7542" points="24.5,-61.5 241.5,-61.5 "/>
<text text-anchor="middle" x="133" y="-50.3" font-family="Times,serif" font-size="14.00">sk₁ // X₁ // X₂ // X₃ // sk₅(sk₁)</text>
<polyline fill="none" stroke="#7f7542" points="24.5,-46.5 241.5,-46.5 "/>
<text text-anchor="middle" x="133" y="-35.3" font-family="Times,serif" font-size="14.00">⇊</text>
<polyline fill="none" stroke="#7f7542" points="24.5,-31.5 241.5,-31.5 "/>
<text text-anchor="middle" x="133" y="-20.3" font-family="Times,serif" font-size="14.00">Af(sk₁) // X₁ // X₂ // X₃ // sk₅(sk₁)</text>
</a>
</g>
</g>
<!-- c_0_63&#45;&gt;c_0_81 -->
<g id="edge8" class="edge">
<title>c_0_63&#45;&gt;c_0_81</title>
<path fill="none" stroke="black" stroke-dasharray="5,2" d="M272.17,-198C239.37,-198 208.5,-198 208.5,-198 208.5,-198 208.5,-161.63 208.5,-161.63"/>
<polygon fill="black" stroke="black" points="212,-161.63 208.5,-151.63 205,-161.63 212,-161.63"/>
</g>
</g>
</svg>
