<?xml version="1.0" encoding="UTF-8" standalone="no"?>
<!DOCTYPE svg PUBLIC "-//W3C//DTD SVG 1.1//EN"
 "http://www.w3.org/Graphics/SVG/1.1/DTD/svg11.dtd">
<!-- Generated by graphviz version 5.0.0 (0)
 -->
<!-- Title: proof Pages: 1 -->
<svg width="1659pt" height="355pt"
 viewBox="0.00 0.00 1659.00 355.00" xmlns="http://www.w3.org/2000/svg" xmlns:xlink="http://www.w3.org/1999/xlink">
<g id="graph0" class="graph" transform="scale(1 1) rotate(0) translate(4 351)">
<title>proof</title>
<g id="clust1" class="cluster">
<title>cluster_0</title>
<polygon fill="transparent" stroke="black" stroke-dasharray="1,5" points="521,-247 521,-339 1087,-339 1087,-247 521,-247"/>
</g>
<g id="clust2" class="cluster">
<title>cluster_1</title>
<polygon fill="transparent" stroke="black" stroke-width="2" points="704,-195 704,-227 898,-227 898,-195 704,-195"/>
</g>
<g id="clust3" class="cluster">
<title>cluster_2</title>
<polygon fill="transparent" stroke="black" stroke-dasharray="1,5" points="8,-8 8,-175 1643,-175 1643,-8 8,-8"/>
</g>
<!-- c_0_20 -->
<g id="node1" class="node">
<title>c_0_20</title>
<g id="a_node1"><a xlink:href="c_0_20.html" xlink:title="{ParOrtStr(X₂)|X₁ ∈ carrier(X₂)|⇊|X₁ ∈ carrier(Af(X₂))|empty(X₂)}" target="_parent">
<polygon fill="#f8edd1" stroke="#7f7542" points="943.5,-255.5 943.5,-330.5 1078.5,-330.5 1078.5,-255.5 943.5,-255.5"/>
<text text-anchor="middle" x="1011" y="-319.3" font-family="Times,serif" font-size="14.00">ParOrtStr(X₂)</text>
<polyline fill="none" stroke="#7f7542" points="943.5,-315.5 1078.5,-315.5 "/>
<text text-anchor="middle" x="1011" y="-304.3" font-family="Times,serif" font-size="14.00">X₁ ∈ carrier(X₂)</text>
<polyline fill="none" stroke="#7f7542" points="943.5,-300.5 1078.5,-300.5 "/>
<text text-anchor="middle" x="1011" y="-289.3" font-family="Times,serif" font-size="14.00">⇊</text>
<polyline fill="none" stroke="#7f7542" points="943.5,-285.5 1078.5,-285.5 "/>
<text text-anchor="middle" x="1011" y="-274.3" font-family="Times,serif" font-size="14.00">X₁ ∈ carrier(Af(X₂))</text>
<polyline fill="none" stroke="#7f7542" points="943.5,-270.5 1078.5,-270.5 "/>
<text text-anchor="middle" x="1011" y="-259.3" font-family="Times,serif" font-size="14.00">empty(X₂)</text>
</a>
</g>
</g>
<!-- c_0_56 -->
<g id="node5" class="node">
<title>c_0_56</title>
<g id="a_node5"><a xlink:href="c_0_56.html" xlink:title="{sk₆(sk₁) ∈ carrier(Af(sk₁))}" target="_parent">
<polygon fill="#fa6900" stroke="#7f7542" points="712,-203.5 712,-218.5 890,-218.5 890,-203.5 712,-203.5"/>
<text text-anchor="middle" x="801" y="-207.3" font-family="Times,serif" font-size="14.00">sk₆(sk₁) ∈ carrier(Af(sk₁))</text>
</a>
</g>
</g>
<!-- c_0_20&#45;&gt;c_0_56 -->
<g id="edge1" class="edge">
<title>c_0_20&#45;&gt;c_0_56</title>
<path fill="none" stroke="black" d="M954.5,-255.37C954.5,-235.42 954.5,-215 954.5,-215 954.5,-215 900.29,-215 900.29,-215"/>
<polygon fill="black" stroke="black" points="900.29,-211.5 890.29,-215 900.29,-218.5 900.29,-211.5"/>
</g>
<!-- c_0_15 -->
<g id="node2" class="node">
<title>c_0_15</title>
<g id="a_node2"><a xlink:href="c_0_15.html" xlink:title="{ParOrtStr(sk₁)}" target="_parent">
<polygon fill="#fa6900" stroke="#7f7542" points="822.5,-285.5 822.5,-300.5 925.5,-300.5 925.5,-285.5 822.5,-285.5"/>
<text text-anchor="middle" x="874" y="-289.3" font-family="Times,serif" font-size="14.00">ParOrtStr(sk₁)</text>
</a>
</g>
</g>
<!-- c_0_15&#45;&gt;c_0_56 -->
<g id="edge2" class="edge">
<title>c_0_15&#45;&gt;c_0_56</title>
<path fill="none" stroke="black" d="M856.25,-285.43C856.25,-285.43 856.25,-228.79 856.25,-228.79"/>
<polygon fill="black" stroke="black" points="859.75,-228.79 856.25,-218.79 852.75,-228.79 859.75,-228.79"/>
</g>
<!-- c_0_44 -->
<g id="node3" class="node">
<title>c_0_44</title>
<g id="a_node3"><a xlink:href="c_0_44.html" xlink:title="{sk₆(sk₁) ∈ carrier(sk₁)}" target="_parent">
<polygon fill="#fa6900" stroke="#7f7542" points="651.5,-285.5 651.5,-300.5 804.5,-300.5 804.5,-285.5 651.5,-285.5"/>
<text text-anchor="middle" x="728" y="-289.3" font-family="Times,serif" font-size="14.00">sk₆(sk₁) ∈ carrier(sk₁)</text>
</a>
</g>
</g>
<!-- c_0_44&#45;&gt;c_0_56 -->
<g id="edge3" class="edge">
<title>c_0_44&#45;&gt;c_0_56</title>
<path fill="none" stroke="black" d="M758.25,-285.43C758.25,-285.43 758.25,-228.79 758.25,-228.79"/>
<polygon fill="black" stroke="black" points="761.75,-228.79 758.25,-218.79 754.75,-228.79 761.75,-228.79"/>
</g>
<!-- c_0_18 -->
<g id="node4" class="node">
<title>c_0_18</title>
<g id="a_node4"><a xlink:href="c_0_18.html" xlink:title="{¬ (empty(sk₁))}" target="_parent">
<polygon fill="#fa6900" stroke="#7f7542" points="529,-285.5 529,-300.5 633,-300.5 633,-285.5 529,-285.5"/>
<text text-anchor="middle" x="581" y="-289.3" font-family="Times,serif" font-size="14.00">¬ (empty(sk₁))</text>
</a>
</g>
</g>
<!-- c_0_18&#45;&gt;c_0_56 -->
<g id="edge4" class="edge">
<title>c_0_18&#45;&gt;c_0_56</title>
<path fill="none" stroke="black" d="M625.75,-285.24C625.75,-265.51 625.75,-215 625.75,-215 625.75,-215 701.83,-215 701.83,-215"/>
<polygon fill="black" stroke="black" points="701.83,-218.5 711.83,-215 701.83,-211.5 701.83,-218.5"/>
</g>
<!-- c_0_98 -->
<g id="node6" class="node">
<title>c_0_98</title>
<g id="a_node6"><a xlink:href="c_0_98.html" xlink:title="{LIN(Af(sk₁),sk₂(sk₁),sk₃(sk₁),sk₄(sk₁))|LIN(Af(sk₁),sk₂(sk₁),sk₃(sk₁),sk₆(sk₁))|sk₁ // sk₄(sk₁) // sk₆(sk₁) // sk₅(sk₁) // sk₇(sk₁)|trivial(Af(sk₁))}" target="_parent">
<polygon fill="#fa6900" stroke="#7f7542" points="1331,-61.5 1331,-121.5 1635,-121.5 1635,-61.5 1331,-61.5"/>
<text text-anchor="middle" x="1483" y="-110.3" font-family="Times,serif" font-size="14.00">LIN(Af(sk₁),sk₂(sk₁),sk₃(sk₁),sk₄(sk₁))</text>
<polyline fill="none" stroke="#7f7542" points="1331,-106.5 1635,-106.5 "/>
<text text-anchor="middle" x="1483" y="-95.3" font-family="Times,serif" font-size="14.00">LIN(Af(sk₁),sk₂(sk₁),sk₃(sk₁),sk₆(sk₁))</text>
<polyline fill="none" stroke="#7f7542" points="1331,-91.5 1635,-91.5 "/>
<text text-anchor="middle" x="1483" y="-80.3" font-family="Times,serif" font-size="14.00">sk₁ // sk₄(sk₁) // sk₆(sk₁) // sk₅(sk₁) // sk₇(sk₁)</text>
<polyline fill="none" stroke="#7f7542" points="1331,-76.5 1635,-76.5 "/>
<text text-anchor="middle" x="1483" y="-65.3" font-family="Times,serif" font-size="14.00">trivial(Af(sk₁))</text>
</a>
</g>
</g>
<!-- c_0_56&#45;&gt;c_0_98 -->
<g id="edge5" class="edge">
<title>c_0_56&#45;&gt;c_0_98</title>
<path fill="none" stroke="black" stroke-dasharray="5,2" d="M890.16,-211C1075.02,-211 1483,-211 1483,-211 1483,-211 1483,-131.65 1483,-131.65"/>
<polygon fill="black" stroke="black" points="1486.5,-131.65 1483,-121.65 1479.5,-131.65 1486.5,-131.65"/>
</g>
<!-- c_0_79 -->
<g id="node7" class="node">
<title>c_0_79</title>
<g id="a_node7"><a xlink:href="c_0_79.html" xlink:title="{Af(sk₁) // sk₂(sk₁) // X₁ // sk₃(sk₁) // X₂|Af(sk₁) // sk₂(sk₁) // sk₃(sk₁) // X₁ // X₂|Af(sk₁) // sk₂(sk₁) // sk₃(sk₁) // sk₆(sk₁) // sk₇(sk₁)|X₁ ∈ carrier(Af(sk₁))|X₂ ∈ carrier(Af(sk₁))|⇊|Af(sk₁) // X₁ // sk₆(sk₁) // X₂ // sk₇(sk₁)|LIN(Af(sk₁),sk₂(sk₁),sk₃(sk₁),X₁)|LIN(Af(sk₁),sk₂(sk₁),sk₃(sk₁),sk₆(sk₁))|trivial(Af(sk₁))}" target="_parent">
<polygon fill="#fa6900" stroke="#7f7542" points="983.5,-16.5 983.5,-166.5 1312.5,-166.5 1312.5,-16.5 983.5,-16.5"/>
<text text-anchor="middle" x="1148" y="-155.3" font-family="Times,serif" font-size="14.00">Af(sk₁) // sk₂(sk₁) // X₁ // sk₃(sk₁) // X₂</text>
<polyline fill="none" stroke="#7f7542" points="983.5,-151.5 1312.5,-151.5 "/>
<text text-anchor="middle" x="1148" y="-140.3" font-family="Times,serif" font-size="14.00">Af(sk₁) // sk₂(sk₁) // sk₃(sk₁) // X₁ // X₂</text>
<polyline fill="none" stroke="#7f7542" points="983.5,-136.5 1312.5,-136.5 "/>
<text text-anchor="middle" x="1148" y="-125.3" font-family="Times,serif" font-size="14.00">Af(sk₁) // sk₂(sk₁) // sk₃(sk₁) // sk₆(sk₁) // sk₇(sk₁)</text>
<polyline fill="none" stroke="#7f7542" points="983.5,-121.5 1312.5,-121.5 "/>
<text text-anchor="middle" x="1148" y="-110.3" font-family="Times,serif" font-size="14.00">X₁ ∈ carrier(Af(sk₁))</text>
<polyline fill="none" stroke="#7f7542" points="983.5,-106.5 1312.5,-106.5 "/>
<text text-anchor="middle" x="1148" y="-95.3" font-family="Times,serif" font-size="14.00">X₂ ∈ carrier(Af(sk₁))</text>
<polyline fill="none" stroke="#7f7542" points="983.5,-91.5 1312.5,-91.5 "/>
<text text-anchor="middle" x="1148" y="-80.3" font-family="Times,serif" font-size="14.00">⇊</text>
<polyline fill="none" stroke="#7f7542" points="983.5,-76.5 1312.5,-76.5 "/>
<text text-anchor="middle" x="1148" y="-65.3" font-family="Times,serif" font-size="14.00">Af(sk₁) // X₁ // sk₆(sk₁) // X₂ // sk₇(sk₁)</text>
<polyline fill="none" stroke="#7f7542" points="983.5,-61.5 1312.5,-61.5 "/>
<text text-anchor="middle" x="1148" y="-50.3" font-family="Times,serif" font-size="14.00">LIN(Af(sk₁),sk₂(sk₁),sk₃(sk₁),X₁)</text>
<polyline fill="none" stroke="#7f7542" points="983.5,-46.5 1312.5,-46.5 "/>
<text text-anchor="middle" x="1148" y="-35.3" font-family="Times,serif" font-size="14.00">LIN(Af(sk₁),sk₂(sk₁),sk₃(sk₁),sk₆(sk₁))</text>
<polyline fill="none" stroke="#7f7542" points="983.5,-31.5 1312.5,-31.5 "/>
<text text-anchor="middle" x="1148" y="-20.3" font-family="Times,serif" font-size="14.00">trivial(Af(sk₁))</text>
</a>
</g>
</g>
<!-- c_0_56&#45;&gt;c_0_79 -->
<g id="edge6" class="edge">
<title>c_0_56&#45;&gt;c_0_79</title>
<path fill="none" stroke="black" stroke-dasharray="5,2" d="M890.25,-207C954.9,-207 1031,-207 1031,-207 1031,-207 1031,-176.6 1031,-176.6"/>
<polygon fill="black" stroke="black" points="1034.5,-176.6 1031,-166.6 1027.5,-176.6 1034.5,-176.6"/>
</g>
<!-- c_0_68 -->
<g id="node8" class="node">
<title>c_0_68</title>
<g id="a_node8"><a xlink:href="c_0_68.html" xlink:title="{Af(sk₁) // sk₂(sk₁) // sk₆(sk₁) // sk₃(sk₁) // sk₇(sk₁)}" target="_parent">
<polygon fill="#fa6900" stroke="#7f7542" points="636.5,-84 636.5,-99 965.5,-99 965.5,-84 636.5,-84"/>
<text text-anchor="middle" x="801" y="-87.8" font-family="Times,serif" font-size="14.00">Af(sk₁) // sk₂(sk₁) // sk₆(sk₁) // sk₃(sk₁) // sk₇(sk₁)</text>
</a>
</g>
</g>
<!-- c_0_56&#45;&gt;c_0_68 -->
<g id="edge7" class="edge">
<title>c_0_56&#45;&gt;c_0_68</title>
<path fill="none" stroke="black" stroke-dasharray="5,2" d="M801,-203.16C801,-203.16 801,-109.21 801,-109.21"/>
<polygon fill="black" stroke="black" points="804.5,-109.21 801,-99.21 797.5,-109.21 804.5,-109.21"/>
</g>
<!-- c_0_104 -->
<g id="node9" class="node">
<title>c_0_104</title>
<g id="a_node9"><a xlink:href="c_0_104.html" xlink:title="{LIN(Af(sk₁),sk₂(sk₁),sk₃(sk₁),sk₄(sk₁))|LIN(sk₁,sk₂(sk₁),sk₃(sk₁),sk₆(sk₁))|trivial(Af(sk₁))}" target="_parent">
<polygon fill="#fa6900" stroke="#7f7542" points="363.5,-69 363.5,-114 618.5,-114 618.5,-69 363.5,-69"/>
<text text-anchor="middle" x="491" y="-102.8" font-family="Times,serif" font-size="14.00">LIN(Af(sk₁),sk₂(sk₁),sk₃(sk₁),sk₄(sk₁))</text>
<polyline fill="none" stroke="#7f7542" points="363.5,-99 618.5,-99 "/>
<text text-anchor="middle" x="491" y="-87.8" font-family="Times,serif" font-size="14.00">LIN(sk₁,sk₂(sk₁),sk₃(sk₁),sk₆(sk₁))</text>
<polyline fill="none" stroke="#7f7542" points="363.5,-84 618.5,-84 "/>
<text text-anchor="middle" x="491" y="-72.8" font-family="Times,serif" font-size="14.00">trivial(Af(sk₁))</text>
</a>
</g>
</g>
<!-- c_0_56&#45;&gt;c_0_104 -->
<g id="edge8" class="edge">
<title>c_0_56&#45;&gt;c_0_104</title>
<path fill="none" stroke="black" stroke-dasharray="5,2" d="M711.84,-207C648.17,-207 573.75,-207 573.75,-207 573.75,-207 573.75,-124.04 573.75,-124.04"/>
<polygon fill="black" stroke="black" points="577.25,-124.04 573.75,-114.04 570.25,-124.04 577.25,-124.04"/>
</g>
<!-- c_0_80 -->
<g id="node10" class="node">
<title>c_0_80</title>
<g id="a_node10"><a xlink:href="c_0_80.html" xlink:title="{Af(sk₁) // sk₂(sk₁) // sk₃(sk₁) // sk₆(sk₁) // sk₇(sk₁)}" target="_parent">
<polygon fill="#fa6900" stroke="#7f7542" points="16.5,-84 16.5,-99 345.5,-99 345.5,-84 16.5,-84"/>
<text text-anchor="middle" x="181" y="-87.8" font-family="Times,serif" font-size="14.00">Af(sk₁) // sk₂(sk₁) // sk₃(sk₁) // sk₆(sk₁) // sk₇(sk₁)</text>
</a>
</g>
</g>
<!-- c_0_56&#45;&gt;c_0_80 -->
<g id="edge9" class="edge">
<title>c_0_56&#45;&gt;c_0_80</title>
<path fill="none" stroke="black" stroke-dasharray="5,2" d="M711.84,-211C540.27,-211 181,-211 181,-211 181,-211 181,-109.34 181,-109.34"/>
<polygon fill="black" stroke="black" points="184.5,-109.34 181,-99.34 177.5,-109.34 184.5,-109.34"/>
</g>
</g>
</svg>
