<?xml version="1.0" encoding="UTF-8" standalone="no"?>
<!DOCTYPE svg PUBLIC "-//W3C//DTD SVG 1.1//EN"
 "http://www.w3.org/Graphics/SVG/1.1/DTD/svg11.dtd">
<!-- Generated by graphviz version 5.0.0 (0)
 -->
<!-- Title: proof Pages: 1 -->
<svg width="1192pt" height="295pt"
 viewBox="0.00 0.00 1192.00 295.00" xmlns="http://www.w3.org/2000/svg" xmlns:xlink="http://www.w3.org/1999/xlink">
<g id="graph0" class="graph" transform="scale(1 1) rotate(0) translate(4 291)">
<title>proof</title>
<g id="clust1" class="cluster">
<title>cluster_0</title>
<polygon fill="transparent" stroke="black" stroke-dasharray="1,5" points="8,-172 8,-279 1176,-279 1176,-172 8,-172"/>
</g>
<g id="clust2" class="cluster">
<title>cluster_1</title>
<polygon fill="transparent" stroke="black" stroke-width="2" points="410,-90 410,-152 682,-152 682,-90 410,-90"/>
</g>
<g id="clust3" class="cluster">
<title>cluster_2</title>
<polygon fill="transparent" stroke="black" stroke-dasharray="1,5" points="410,-8 410,-70 682,-70 682,-8 410,-8"/>
</g>
<!-- c_0_17 -->
<g id="node1" class="node">
<title>c_0_17</title>
<g id="a_node1"><a xlink:href="c_0_17.html" xlink:title="{¬ (satisfying_des(sk₁))}" target="_vizar">
<polygon fill="#fa6900" stroke="#7f7542" points="1008,-218 1008,-233 1168,-233 1168,-218 1008,-218"/>
<text text-anchor="middle" x="1088" y="-221.8" font-family="Times,serif" font-size="14.00">¬ (satisfying_des(sk₁))</text>
</a>
</g>
</g>
<!-- c_0_101 -->
<g id="node7" class="node">
<title>c_0_101</title>
<g id="a_node7"><a xlink:href="c_0_101.html" xlink:title="{LIN(Af(sk₁),sk₂(sk₁),sk₃(sk₁),sk₄(sk₁))|LIN(Af(sk₁),sk₂(sk₁),sk₃(sk₁),sk₆(sk₁))|trivial(Af(sk₁))}" target="_vizar">
<polygon fill="#fa6900" stroke="#7f7542" points="418.5,-98.5 418.5,-143.5 673.5,-143.5 673.5,-98.5 418.5,-98.5"/>
<text text-anchor="middle" x="546" y="-132.3" font-family="Times,serif" font-size="14.00">LIN(Af(sk₁),sk₂(sk₁),sk₃(sk₁),sk₄(sk₁))</text>
<polyline fill="none" stroke="#7f7542" points="418.5,-128.5 673.5,-128.5 "/>
<text text-anchor="middle" x="546" y="-117.3" font-family="Times,serif" font-size="14.00">LIN(Af(sk₁),sk₂(sk₁),sk₃(sk₁),sk₆(sk₁))</text>
<polyline fill="none" stroke="#7f7542" points="418.5,-113.5 673.5,-113.5 "/>
<text text-anchor="middle" x="546" y="-102.3" font-family="Times,serif" font-size="14.00">trivial(Af(sk₁))</text>
</a>
</g>
</g>
<!-- c_0_17&#45;&gt;c_0_101 -->
<g id="edge1" class="edge">
<title>c_0_17&#45;&gt;c_0_101</title>
<path fill="none" stroke="black" d="M1088,-217.98C1088,-194.02 1088,-121 1088,-121 1088,-121 683.76,-121 683.76,-121"/>
<polygon fill="black" stroke="black" points="683.76,-117.5 673.76,-121 683.76,-124.5 683.76,-117.5"/>
</g>
<!-- c_0_98 -->
<g id="node2" class="node">
<title>c_0_98</title>
<g id="a_node2"><a xlink:href="c_0_98.html" xlink:title="{LIN(Af(sk₁),sk₂(sk₁),sk₃(sk₁),sk₄(sk₁))|LIN(Af(sk₁),sk₂(sk₁),sk₃(sk₁),sk₆(sk₁))|sk₁ // sk₄(sk₁) // sk₆(sk₁) // sk₅(sk₁) // sk₇(sk₁)|trivial(Af(sk₁))}" target="_vizar">
<polygon fill="#fa6900" stroke="#7f7542" points="686,-195.5 686,-255.5 990,-255.5 990,-195.5 686,-195.5"/>
<text text-anchor="middle" x="838" y="-244.3" font-family="Times,serif" font-size="14.00">LIN(Af(sk₁),sk₂(sk₁),sk₃(sk₁),sk₄(sk₁))</text>
<polyline fill="none" stroke="#7f7542" points="686,-240.5 990,-240.5 "/>
<text text-anchor="middle" x="838" y="-229.3" font-family="Times,serif" font-size="14.00">LIN(Af(sk₁),sk₂(sk₁),sk₃(sk₁),sk₆(sk₁))</text>
<polyline fill="none" stroke="#7f7542" points="686,-225.5 990,-225.5 "/>
<text text-anchor="middle" x="838" y="-214.3" font-family="Times,serif" font-size="14.00">sk₁ // sk₄(sk₁) // sk₆(sk₁) // sk₅(sk₁) // sk₇(sk₁)</text>
<polyline fill="none" stroke="#7f7542" points="686,-210.5 990,-210.5 "/>
<text text-anchor="middle" x="838" y="-199.3" font-family="Times,serif" font-size="14.00">trivial(Af(sk₁))</text>
</a>
</g>
</g>
<!-- c_0_98&#45;&gt;c_0_101 -->
<g id="edge2" class="edge">
<title>c_0_98&#45;&gt;c_0_101</title>
<path fill="none" stroke="black" d="M685.96,-206C653.7,-206 629.17,-206 629.17,-206 629.17,-206 629.17,-153.78 629.17,-153.78"/>
<polygon fill="black" stroke="black" points="632.67,-153.78 629.17,-143.78 625.67,-153.78 632.67,-153.78"/>
</g>
<!-- c_0_16 -->
<g id="node3" class="node">
<title>c_0_16</title>
<g id="a_node3"><a xlink:href="c_0_16.html" xlink:title="{OrtAfPl&#45;like(sk₁)}" target="_vizar">
<polygon fill="#fa6900" stroke="#7f7542" points="552.5,-218 552.5,-233 667.5,-233 667.5,-218 552.5,-218"/>
<text text-anchor="middle" x="610" y="-221.8" font-family="Times,serif" font-size="14.00">OrtAfPl&#45;like(sk₁)</text>
</a>
</g>
</g>
<!-- c_0_16&#45;&gt;c_0_101 -->
<g id="edge3" class="edge">
<title>c_0_16&#45;&gt;c_0_101</title>
<path fill="none" stroke="black" d="M590.83,-217.98C590.83,-217.98 590.83,-153.63 590.83,-153.63"/>
<polygon fill="black" stroke="black" points="594.33,-153.63 590.83,-143.63 587.33,-153.63 594.33,-153.63"/>
</g>
<!-- c_0_18 -->
<g id="node4" class="node">
<title>c_0_18</title>
<g id="a_node4"><a xlink:href="c_0_18.html" xlink:title="{¬ (empty(sk₁))}" target="_vizar">
<polygon fill="#fa6900" stroke="#7f7542" points="430,-218 430,-233 534,-233 534,-218 430,-218"/>
<text text-anchor="middle" x="482" y="-221.8" font-family="Times,serif" font-size="14.00">¬ (empty(sk₁))</text>
</a>
</g>
</g>
<!-- c_0_18&#45;&gt;c_0_101 -->
<g id="edge4" class="edge">
<title>c_0_18&#45;&gt;c_0_101</title>
<path fill="none" stroke="black" d="M482,-217.98C482,-217.98 482,-153.63 482,-153.63"/>
<polygon fill="black" stroke="black" points="485.5,-153.63 482,-143.63 478.5,-153.63 485.5,-153.63"/>
</g>
<!-- c_0_92 -->
<g id="node5" class="node">
<title>c_0_92</title>
<g id="a_node5"><a xlink:href="c_0_92.html" xlink:title="{OrtAfPl&#45;like(X₁)|ParOrtStr(X₁)|X₁ // sk₄(X₁) // sk₆(X₁) // sk₅(X₁) // sk₇(X₁)|⇊|empty(X₁)|satisfying_des(X₁)}" target="_vizar">
<polygon fill="#f8edd1" stroke="#7f7542" points="138,-180.5 138,-270.5 412,-270.5 412,-180.5 138,-180.5"/>
<text text-anchor="middle" x="275" y="-259.3" font-family="Times,serif" font-size="14.00">OrtAfPl&#45;like(X₁)</text>
<polyline fill="none" stroke="#7f7542" points="138,-255.5 412,-255.5 "/>
<text text-anchor="middle" x="275" y="-244.3" font-family="Times,serif" font-size="14.00">ParOrtStr(X₁)</text>
<polyline fill="none" stroke="#7f7542" points="138,-240.5 412,-240.5 "/>
<text text-anchor="middle" x="275" y="-229.3" font-family="Times,serif" font-size="14.00">X₁ // sk₄(X₁) // sk₆(X₁) // sk₅(X₁) // sk₇(X₁)</text>
<polyline fill="none" stroke="#7f7542" points="138,-225.5 412,-225.5 "/>
<text text-anchor="middle" x="275" y="-214.3" font-family="Times,serif" font-size="14.00">⇊</text>
<polyline fill="none" stroke="#7f7542" points="138,-210.5 412,-210.5 "/>
<text text-anchor="middle" x="275" y="-199.3" font-family="Times,serif" font-size="14.00">empty(X₁)</text>
<polyline fill="none" stroke="#7f7542" points="138,-195.5 412,-195.5 "/>
<text text-anchor="middle" x="275" y="-184.3" font-family="Times,serif" font-size="14.00">satisfying_des(X₁)</text>
</a>
</g>
</g>
<!-- c_0_92&#45;&gt;c_0_101 -->
<g id="edge5" class="edge">
<title>c_0_92&#45;&gt;c_0_101</title>
<path fill="none" stroke="black" d="M412.04,-187C419.64,-187 424.25,-187 424.25,-187 424.25,-187 424.25,-153.71 424.25,-153.71"/>
<polygon fill="black" stroke="black" points="427.75,-153.71 424.25,-143.71 420.75,-153.71 427.75,-153.71"/>
</g>
<!-- c_0_15 -->
<g id="node6" class="node">
<title>c_0_15</title>
<g id="a_node6"><a xlink:href="c_0_15.html" xlink:title="{ParOrtStr(sk₁)}" target="_vizar">
<polygon fill="#fa6900" stroke="#7f7542" points="16.5,-218 16.5,-233 119.5,-233 119.5,-218 16.5,-218"/>
<text text-anchor="middle" x="68" y="-221.8" font-family="Times,serif" font-size="14.00">ParOrtStr(sk₁)</text>
</a>
</g>
</g>
<!-- c_0_15&#45;&gt;c_0_101 -->
<g id="edge6" class="edge">
<title>c_0_15&#45;&gt;c_0_101</title>
<path fill="none" stroke="black" d="M68,-217.98C68,-194.02 68,-121 68,-121 68,-121 408.22,-121 408.22,-121"/>
<polygon fill="black" stroke="black" points="408.22,-124.5 418.22,-121 408.22,-117.5 408.22,-124.5"/>
</g>
<!-- c_0_104 -->
<g id="node8" class="node">
<title>c_0_104</title>
<g id="a_node8"><a xlink:href="c_0_104.html" xlink:title="{LIN(Af(sk₁),sk₂(sk₁),sk₃(sk₁),sk₄(sk₁))|LIN(sk₁,sk₂(sk₁),sk₃(sk₁),sk₆(sk₁))|trivial(Af(sk₁))}" target="_vizar">
<polygon fill="#fa6900" stroke="#7f7542" points="418.5,-16.5 418.5,-61.5 673.5,-61.5 673.5,-16.5 418.5,-16.5"/>
<text text-anchor="middle" x="546" y="-50.3" font-family="Times,serif" font-size="14.00">LIN(Af(sk₁),sk₂(sk₁),sk₃(sk₁),sk₄(sk₁))</text>
<polyline fill="none" stroke="#7f7542" points="418.5,-46.5 673.5,-46.5 "/>
<text text-anchor="middle" x="546" y="-35.3" font-family="Times,serif" font-size="14.00">LIN(sk₁,sk₂(sk₁),sk₃(sk₁),sk₆(sk₁))</text>
<polyline fill="none" stroke="#7f7542" points="418.5,-31.5 673.5,-31.5 "/>
<text text-anchor="middle" x="546" y="-20.3" font-family="Times,serif" font-size="14.00">trivial(Af(sk₁))</text>
</a>
</g>
</g>
<!-- c_0_101&#45;&gt;c_0_104 -->
<g id="edge7" class="edge">
<title>c_0_101&#45;&gt;c_0_104</title>
<path fill="none" stroke="black" stroke-dasharray="5,2" d="M546,-98.16C546,-98.16 546,-71.72 546,-71.72"/>
<polygon fill="black" stroke="black" points="549.5,-71.72 546,-61.72 542.5,-71.72 549.5,-71.72"/>
</g>
</g>
</svg>
