<?xml version="1.0" encoding="UTF-8" standalone="no"?>
<!DOCTYPE svg PUBLIC "-//W3C//DTD SVG 1.1//EN"
 "http://www.w3.org/Graphics/SVG/1.1/DTD/svg11.dtd">
<!-- Generated by graphviz version 5.0.0 (0)
 -->
<!-- Title: proof Pages: 1 -->
<svg width="870pt" height="235pt"
 viewBox="0.00 0.00 870.00 235.00" xmlns="http://www.w3.org/2000/svg" xmlns:xlink="http://www.w3.org/1999/xlink">
<g id="graph0" class="graph" transform="scale(1 1) rotate(0) translate(4 231)">
<title>proof</title>
<g id="clust1" class="cluster">
<title>cluster_0</title>
<polygon fill="transparent" stroke="black" stroke-dasharray="1,5" points="8,-112 8,-219 854,-219 854,-112 8,-112"/>
</g>
<g id="clust2" class="cluster">
<title>cluster_1</title>
<polygon fill="transparent" stroke="black" stroke-width="2" points="158,-60 158,-92 478,-92 478,-60 158,-60"/>
</g>
<g id="clust3" class="cluster">
<title>cluster_2</title>
<polygon fill="transparent" stroke="black" stroke-dasharray="1,5" points="145,-8 145,-40 491,-40 491,-8 145,-8"/>
</g>
<!-- c_0_17 -->
<g id="node1" class="node">
<title>c_0_17</title>
<g id="a_node1"><a xlink:href="c_0_17.html" xlink:title="{¬ (satisfying_des(sk₁))}" target="_vizar">
<polygon fill="#fa6900" stroke="#7f7542" points="686,-158 686,-173 846,-173 846,-158 686,-158"/>
<text text-anchor="middle" x="766" y="-161.8" font-family="Times,serif" font-size="14.00">¬ (satisfying_des(sk₁))</text>
</a>
</g>
</g>
<!-- c_0_82 -->
<g id="node6" class="node">
<title>c_0_82</title>
<g id="a_node6"><a xlink:href="c_0_82.html" xlink:title="{sk₁ // sk₂(sk₁) // sk₄(sk₁) // sk₃(sk₁) // sk₅(sk₁)}" target="_vizar">
<polygon fill="#fa6900" stroke="#7f7542" points="166,-68.5 166,-83.5 470,-83.5 470,-68.5 166,-68.5"/>
<text text-anchor="middle" x="318" y="-72.3" font-family="Times,serif" font-size="14.00">sk₁ // sk₂(sk₁) // sk₄(sk₁) // sk₃(sk₁) // sk₅(sk₁)</text>
</a>
</g>
</g>
<!-- c_0_17&#45;&gt;c_0_82 -->
<g id="edge1" class="edge">
<title>c_0_17&#45;&gt;c_0_82</title>
<path fill="none" stroke="black" d="M766,-157.87C766,-136.23 766,-76 766,-76 766,-76 480.3,-76 480.3,-76"/>
<polygon fill="black" stroke="black" points="480.3,-72.5 470.3,-76 480.3,-79.5 480.3,-72.5"/>
</g>
<!-- c_0_64 -->
<g id="node2" class="node">
<title>c_0_64</title>
<g id="a_node2"><a xlink:href="c_0_64.html" xlink:title="{OrtAfPl&#45;like(X₁)|ParOrtStr(X₁)|⇊|X₁ // sk₂(X₁) // sk₄(X₁) // sk₃(X₁) // sk₅(X₁)|empty(X₁)|satisfying_des(X₁)}" target="_vizar">
<polygon fill="#f8edd1" stroke="#7f7542" points="394,-120.5 394,-210.5 668,-210.5 668,-120.5 394,-120.5"/>
<text text-anchor="middle" x="531" y="-199.3" font-family="Times,serif" font-size="14.00">OrtAfPl&#45;like(X₁)</text>
<polyline fill="none" stroke="#7f7542" points="394,-195.5 668,-195.5 "/>
<text text-anchor="middle" x="531" y="-184.3" font-family="Times,serif" font-size="14.00">ParOrtStr(X₁)</text>
<polyline fill="none" stroke="#7f7542" points="394,-180.5 668,-180.5 "/>
<text text-anchor="middle" x="531" y="-169.3" font-family="Times,serif" font-size="14.00">⇊</text>
<polyline fill="none" stroke="#7f7542" points="394,-165.5 668,-165.5 "/>
<text text-anchor="middle" x="531" y="-154.3" font-family="Times,serif" font-size="14.00">X₁ // sk₂(X₁) // sk₄(X₁) // sk₃(X₁) // sk₅(X₁)</text>
<polyline fill="none" stroke="#7f7542" points="394,-150.5 668,-150.5 "/>
<text text-anchor="middle" x="531" y="-139.3" font-family="Times,serif" font-size="14.00">empty(X₁)</text>
<polyline fill="none" stroke="#7f7542" points="394,-135.5 668,-135.5 "/>
<text text-anchor="middle" x="531" y="-124.3" font-family="Times,serif" font-size="14.00">satisfying_des(X₁)</text>
</a>
</g>
</g>
<!-- c_0_64&#45;&gt;c_0_82 -->
<g id="edge2" class="edge">
<title>c_0_64&#45;&gt;c_0_82</title>
<path fill="none" stroke="black" d="M432,-120.49C432,-120.49 432,-93.58 432,-93.58"/>
<polygon fill="black" stroke="black" points="435.5,-93.58 432,-83.58 428.5,-93.58 435.5,-93.58"/>
</g>
<!-- c_0_16 -->
<g id="node3" class="node">
<title>c_0_16</title>
<g id="a_node3"><a xlink:href="c_0_16.html" xlink:title="{OrtAfPl&#45;like(sk₁)}" target="_vizar">
<polygon fill="#fa6900" stroke="#7f7542" points="260.5,-158 260.5,-173 375.5,-173 375.5,-158 260.5,-158"/>
<text text-anchor="middle" x="318" y="-161.8" font-family="Times,serif" font-size="14.00">OrtAfPl&#45;like(sk₁)</text>
</a>
</g>
</g>
<!-- c_0_16&#45;&gt;c_0_82 -->
<g id="edge3" class="edge">
<title>c_0_16&#45;&gt;c_0_82</title>
<path fill="none" stroke="black" d="M318,-157.87C318,-157.87 318,-93.61 318,-93.61"/>
<polygon fill="black" stroke="black" points="321.5,-93.61 318,-83.61 314.5,-93.61 321.5,-93.61"/>
</g>
<!-- c_0_18 -->
<g id="node4" class="node">
<title>c_0_18</title>
<g id="a_node4"><a xlink:href="c_0_18.html" xlink:title="{¬ (empty(sk₁))}" target="_vizar">
<polygon fill="#fa6900" stroke="#7f7542" points="138,-158 138,-173 242,-173 242,-158 138,-158"/>
<text text-anchor="middle" x="190" y="-161.8" font-family="Times,serif" font-size="14.00">¬ (empty(sk₁))</text>
</a>
</g>
</g>
<!-- c_0_18&#45;&gt;c_0_82 -->
<g id="edge4" class="edge">
<title>c_0_18&#45;&gt;c_0_82</title>
<path fill="none" stroke="black" d="M204,-157.87C204,-157.87 204,-93.61 204,-93.61"/>
<polygon fill="black" stroke="black" points="207.5,-93.61 204,-83.61 200.5,-93.61 207.5,-93.61"/>
</g>
<!-- c_0_15 -->
<g id="node5" class="node">
<title>c_0_15</title>
<g id="a_node5"><a xlink:href="c_0_15.html" xlink:title="{ParOrtStr(sk₁)}" target="_vizar">
<polygon fill="#fa6900" stroke="#7f7542" points="16.5,-158 16.5,-173 119.5,-173 119.5,-158 16.5,-158"/>
<text text-anchor="middle" x="68" y="-161.8" font-family="Times,serif" font-size="14.00">ParOrtStr(sk₁)</text>
</a>
</g>
</g>
<!-- c_0_15&#45;&gt;c_0_82 -->
<g id="edge5" class="edge">
<title>c_0_15&#45;&gt;c_0_82</title>
<path fill="none" stroke="black" d="M68,-157.87C68,-136.23 68,-76 68,-76 68,-76 155.73,-76 155.73,-76"/>
<polygon fill="black" stroke="black" points="155.73,-79.5 165.73,-76 155.73,-72.5 155.73,-79.5"/>
</g>
<!-- c_0_88 -->
<g id="node7" class="node">
<title>c_0_88</title>
<g id="a_node7"><a xlink:href="c_0_88.html" xlink:title="{Af(sk₁) // sk₂(sk₁) // sk₄(sk₁) // sk₃(sk₁) // sk₅(sk₁)}" target="_vizar">
<polygon fill="#fa6900" stroke="#7f7542" points="153.5,-16.5 153.5,-31.5 482.5,-31.5 482.5,-16.5 153.5,-16.5"/>
<text text-anchor="middle" x="318" y="-20.3" font-family="Times,serif" font-size="14.00">Af(sk₁) // sk₂(sk₁) // sk₄(sk₁) // sk₃(sk₁) // sk₅(sk₁)</text>
</a>
</g>
</g>
<!-- c_0_82&#45;&gt;c_0_88 -->
<g id="edge6" class="edge">
<title>c_0_82&#45;&gt;c_0_88</title>
<path fill="none" stroke="black" stroke-dasharray="5,2" d="M318,-68.33C318,-68.33 318,-41.7 318,-41.7"/>
<polygon fill="black" stroke="black" points="321.5,-41.7 318,-31.7 314.5,-41.7 321.5,-41.7"/>
</g>
</g>
</svg>
