<?xml version="1.0" encoding="UTF-8" standalone="no"?>
<!DOCTYPE svg PUBLIC "-//W3C//DTD SVG 1.1//EN"
 "http://www.w3.org/Graphics/SVG/1.1/DTD/svg11.dtd">
<!-- Generated by graphviz version 5.0.0 (0)
 -->
<!-- Title: proof Pages: 1 -->
<svg width="575pt" height="355pt"
 viewBox="0.00 0.00 575.00 355.00" xmlns="http://www.w3.org/2000/svg" xmlns:xlink="http://www.w3.org/1999/xlink">
<g id="graph0" class="graph" transform="scale(1 1) rotate(0) translate(4 351)">
<title>proof</title>
<g id="clust1" class="cluster">
<title>cluster_0</title>
<polygon fill="transparent" stroke="black" stroke-dasharray="1,5" points="8,-247 8,-339 559,-339 559,-247 8,-247"/>
</g>
<g id="clust2" class="cluster">
<title>cluster_1</title>
<polygon fill="transparent" stroke="black" stroke-width="2" points="214,-195 214,-227 394,-227 394,-195 214,-195"/>
</g>
<g id="clust3" class="cluster">
<title>cluster_2</title>
<polygon fill="transparent" stroke="black" stroke-dasharray="1,5" points="131,-8 131,-175 477,-175 477,-8 131,-8"/>
</g>
<!-- c_0_16 -->
<g id="node1" class="node">
<title>c_0_16</title>
<g id="a_node1"><a xlink:href="c_0_16.html" xlink:title="{OrtAfPl&#45;like(sk₁)}" target="_vizar">
<polygon fill="#fa6900" stroke="#7f7542" points="435.5,-285.5 435.5,-300.5 550.5,-300.5 550.5,-285.5 435.5,-285.5"/>
<text text-anchor="middle" x="493" y="-289.3" font-family="Times,serif" font-size="14.00">OrtAfPl&#45;like(sk₁)</text>
</a>
</g>
</g>
<!-- c_0_71 -->
<g id="node5" class="node">
<title>c_0_71</title>
<g id="a_node5"><a xlink:href="c_0_71.html" xlink:title="{AffinSpace&#45;like(Af(sk₁))}" target="_vizar">
<polygon fill="#fa6900" stroke="#7f7542" points="222.5,-203.5 222.5,-218.5 385.5,-218.5 385.5,-203.5 222.5,-203.5"/>
<text text-anchor="middle" x="304" y="-207.3" font-family="Times,serif" font-size="14.00">AffinSpace&#45;like(Af(sk₁))</text>
</a>
</g>
</g>
<!-- c_0_16&#45;&gt;c_0_71 -->
<g id="edge1" class="edge">
<title>c_0_16&#45;&gt;c_0_71</title>
<path fill="none" stroke="black" d="M452,-285.43C452,-265.13 452,-211 452,-211 452,-211 395.79,-211 395.79,-211"/>
<polygon fill="black" stroke="black" points="395.79,-207.5 385.79,-211 395.79,-214.5 395.79,-207.5"/>
</g>
<!-- c_0_18 -->
<g id="node2" class="node">
<title>c_0_18</title>
<g id="a_node2"><a xlink:href="c_0_18.html" xlink:title="{¬ (empty(sk₁))}" target="_vizar">
<polygon fill="#fa6900" stroke="#7f7542" points="313,-285.5 313,-300.5 417,-300.5 417,-285.5 313,-285.5"/>
<text text-anchor="middle" x="365" y="-289.3" font-family="Times,serif" font-size="14.00">¬ (empty(sk₁))</text>
</a>
</g>
</g>
<!-- c_0_18&#45;&gt;c_0_71 -->
<g id="edge2" class="edge">
<title>c_0_18&#45;&gt;c_0_71</title>
<path fill="none" stroke="black" d="M349.25,-285.43C349.25,-285.43 349.25,-228.79 349.25,-228.79"/>
<polygon fill="black" stroke="black" points="352.75,-228.79 349.25,-218.79 345.75,-228.79 352.75,-228.79"/>
</g>
<!-- c_0_15 -->
<g id="node3" class="node">
<title>c_0_15</title>
<g id="a_node3"><a xlink:href="c_0_15.html" xlink:title="{ParOrtStr(sk₁)}" target="_vizar">
<polygon fill="#fa6900" stroke="#7f7542" points="191.5,-285.5 191.5,-300.5 294.5,-300.5 294.5,-285.5 191.5,-285.5"/>
<text text-anchor="middle" x="243" y="-289.3" font-family="Times,serif" font-size="14.00">ParOrtStr(sk₁)</text>
</a>
</g>
</g>
<!-- c_0_15&#45;&gt;c_0_71 -->
<g id="edge3" class="edge">
<title>c_0_15&#45;&gt;c_0_71</title>
<path fill="none" stroke="black" d="M258.5,-285.43C258.5,-285.43 258.5,-228.79 258.5,-228.79"/>
<polygon fill="black" stroke="black" points="262,-228.79 258.5,-218.79 255,-228.79 262,-228.79"/>
</g>
<!-- c_0_48 -->
<g id="node4" class="node">
<title>c_0_48</title>
<g id="a_node4"><a xlink:href="c_0_48.html" xlink:title="{OrtAfPl&#45;like(X₁)|ParOrtStr(X₁)|⇊|AffinSpace&#45;like(Af(X₁))|empty(X₁)}" target="_vizar">
<polygon fill="#f8edd1" stroke="#7f7542" points="16.5,-255.5 16.5,-330.5 173.5,-330.5 173.5,-255.5 16.5,-255.5"/>
<text text-anchor="middle" x="95" y="-319.3" font-family="Times,serif" font-size="14.00">OrtAfPl&#45;like(X₁)</text>
<polyline fill="none" stroke="#7f7542" points="16.5,-315.5 173.5,-315.5 "/>
<text text-anchor="middle" x="95" y="-304.3" font-family="Times,serif" font-size="14.00">ParOrtStr(X₁)</text>
<polyline fill="none" stroke="#7f7542" points="16.5,-300.5 173.5,-300.5 "/>
<text text-anchor="middle" x="95" y="-289.3" font-family="Times,serif" font-size="14.00">⇊</text>
<polyline fill="none" stroke="#7f7542" points="16.5,-285.5 173.5,-285.5 "/>
<text text-anchor="middle" x="95" y="-274.3" font-family="Times,serif" font-size="14.00">AffinSpace&#45;like(Af(X₁))</text>
<polyline fill="none" stroke="#7f7542" points="16.5,-270.5 173.5,-270.5 "/>
<text text-anchor="middle" x="95" y="-259.3" font-family="Times,serif" font-size="14.00">empty(X₁)</text>
</a>
</g>
</g>
<!-- c_0_48&#45;&gt;c_0_71 -->
<g id="edge4" class="edge">
<title>c_0_48&#45;&gt;c_0_71</title>
<path fill="none" stroke="black" d="M156.5,-255.36C156.5,-233.8 156.5,-211 156.5,-211 156.5,-211 212.48,-211 212.48,-211"/>
<polygon fill="black" stroke="black" points="212.48,-214.5 222.48,-211 212.48,-207.5 212.48,-214.5"/>
</g>
<!-- c_0_79 -->
<g id="node6" class="node">
<title>c_0_79</title>
<g id="a_node6"><a xlink:href="c_0_79.html" xlink:title="{Af(sk₁) // sk₂(sk₁) // X₁ // sk₃(sk₁) // X₂|Af(sk₁) // sk₂(sk₁) // sk₃(sk₁) // X₁ // X₂|Af(sk₁) // sk₂(sk₁) // sk₃(sk₁) // sk₆(sk₁) // sk₇(sk₁)|X₁ ∈ carrier(Af(sk₁))|X₂ ∈ carrier(Af(sk₁))|⇊|Af(sk₁) // X₁ // sk₆(sk₁) // X₂ // sk₇(sk₁)|LIN(Af(sk₁),sk₂(sk₁),sk₃(sk₁),X₁)|LIN(Af(sk₁),sk₂(sk₁),sk₃(sk₁),sk₆(sk₁))|trivial(Af(sk₁))}" target="_vizar">
<polygon fill="#fa6900" stroke="#7f7542" points="139.5,-16.5 139.5,-166.5 468.5,-166.5 468.5,-16.5 139.5,-16.5"/>
<text text-anchor="middle" x="304" y="-155.3" font-family="Times,serif" font-size="14.00">Af(sk₁) // sk₂(sk₁) // X₁ // sk₃(sk₁) // X₂</text>
<polyline fill="none" stroke="#7f7542" points="139.5,-151.5 468.5,-151.5 "/>
<text text-anchor="middle" x="304" y="-140.3" font-family="Times,serif" font-size="14.00">Af(sk₁) // sk₂(sk₁) // sk₃(sk₁) // X₁ // X₂</text>
<polyline fill="none" stroke="#7f7542" points="139.5,-136.5 468.5,-136.5 "/>
<text text-anchor="middle" x="304" y="-125.3" font-family="Times,serif" font-size="14.00">Af(sk₁) // sk₂(sk₁) // sk₃(sk₁) // sk₆(sk₁) // sk₇(sk₁)</text>
<polyline fill="none" stroke="#7f7542" points="139.5,-121.5 468.5,-121.5 "/>
<text text-anchor="middle" x="304" y="-110.3" font-family="Times,serif" font-size="14.00">X₁ ∈ carrier(Af(sk₁))</text>
<polyline fill="none" stroke="#7f7542" points="139.5,-106.5 468.5,-106.5 "/>
<text text-anchor="middle" x="304" y="-95.3" font-family="Times,serif" font-size="14.00">X₂ ∈ carrier(Af(sk₁))</text>
<polyline fill="none" stroke="#7f7542" points="139.5,-91.5 468.5,-91.5 "/>
<text text-anchor="middle" x="304" y="-80.3" font-family="Times,serif" font-size="14.00">⇊</text>
<polyline fill="none" stroke="#7f7542" points="139.5,-76.5 468.5,-76.5 "/>
<text text-anchor="middle" x="304" y="-65.3" font-family="Times,serif" font-size="14.00">Af(sk₁) // X₁ // sk₆(sk₁) // X₂ // sk₇(sk₁)</text>
<polyline fill="none" stroke="#7f7542" points="139.5,-61.5 468.5,-61.5 "/>
<text text-anchor="middle" x="304" y="-50.3" font-family="Times,serif" font-size="14.00">LIN(Af(sk₁),sk₂(sk₁),sk₃(sk₁),X₁)</text>
<polyline fill="none" stroke="#7f7542" points="139.5,-46.5 468.5,-46.5 "/>
<text text-anchor="middle" x="304" y="-35.3" font-family="Times,serif" font-size="14.00">LIN(Af(sk₁),sk₂(sk₁),sk₃(sk₁),sk₆(sk₁))</text>
<polyline fill="none" stroke="#7f7542" points="139.5,-31.5 468.5,-31.5 "/>
<text text-anchor="middle" x="304" y="-20.3" font-family="Times,serif" font-size="14.00">trivial(Af(sk₁))</text>
</a>
</g>
</g>
<!-- c_0_71&#45;&gt;c_0_79 -->
<g id="edge5" class="edge">
<title>c_0_71&#45;&gt;c_0_79</title>
<path fill="none" stroke="black" stroke-dasharray="5,2" d="M304,-203.16C304,-203.16 304,-176.63 304,-176.63"/>
<polygon fill="black" stroke="black" points="307.5,-176.63 304,-166.63 300.5,-176.63 307.5,-176.63"/>
</g>
</g>
</svg>
