<?xml version="1.0" encoding="UTF-8" standalone="no"?>
<!DOCTYPE svg PUBLIC "-//W3C//DTD SVG 1.1//EN"
 "http://www.w3.org/Graphics/SVG/1.1/DTD/svg11.dtd">
<!-- Generated by graphviz version 5.0.0 (0)
 -->
<!-- Title: proof Pages: 1 -->
<svg width="1047pt" height="250pt"
 viewBox="0.00 0.00 1047.00 250.00" xmlns="http://www.w3.org/2000/svg" xmlns:xlink="http://www.w3.org/1999/xlink">
<g id="graph0" class="graph" transform="scale(1 1) rotate(0) translate(4 246)">
<title>proof</title>
<g id="clust1" class="cluster">
<title>cluster_0</title>
<polygon fill="transparent" stroke="black" stroke-dasharray="1,5" points="8,-127 8,-234 1031,-234 1031,-127 8,-127"/>
</g>
<g id="clust2" class="cluster">
<title>cluster_1</title>
<polygon fill="transparent" stroke="black" stroke-width="2" points="368,-60 368,-107 614,-107 614,-60 368,-60"/>
</g>
<g id="clust3" class="cluster">
<title>cluster_2</title>
<polygon fill="transparent" stroke="black" stroke-dasharray="1,5" points="433,-8 433,-40 549,-40 549,-8 433,-8"/>
</g>
<!-- c_0_17 -->
<g id="node1" class="node">
<title>c_0_17</title>
<g id="a_node1"><a xlink:href="c_0_17.html" xlink:title="{¬ (satisfying_des(sk₁))}" target="_parent">
<polygon fill="#fa6900" stroke="#7f7542" points="863,-173 863,-188 1023,-188 1023,-173 863,-173"/>
<text text-anchor="middle" x="943" y="-176.8" font-family="Times,serif" font-size="14.00">¬ (satisfying_des(sk₁))</text>
</a>
</g>
</g>
<!-- c_0_110 -->
<g id="node7" class="node">
<title>c_0_110</title>
<g id="a_node7"><a xlink:href="c_0_110.html" xlink:title="{LIN(sk₁,sk₂(sk₁),sk₃(sk₁),sk₄(sk₁))|trivial(Af(sk₁))}" target="_parent">
<polygon fill="#fa6900" stroke="#7f7542" points="376.5,-68.5 376.5,-98.5 605.5,-98.5 605.5,-68.5 376.5,-68.5"/>
<text text-anchor="middle" x="491" y="-87.3" font-family="Times,serif" font-size="14.00">LIN(sk₁,sk₂(sk₁),sk₃(sk₁),sk₄(sk₁))</text>
<polyline fill="none" stroke="#7f7542" points="376.5,-83.5 605.5,-83.5 "/>
<text text-anchor="middle" x="491" y="-72.3" font-family="Times,serif" font-size="14.00">trivial(Af(sk₁))</text>
</a>
</g>
</g>
<!-- c_0_17&#45;&gt;c_0_110 -->
<g id="edge1" class="edge">
<title>c_0_17&#45;&gt;c_0_110</title>
<path fill="none" stroke="black" d="M943,-172.8C943,-148.96 943,-78 943,-78 943,-78 615.64,-78 615.64,-78"/>
<polygon fill="black" stroke="black" points="615.64,-74.5 605.64,-78 615.64,-81.5 615.64,-74.5"/>
</g>
<!-- c_0_15 -->
<g id="node2" class="node">
<title>c_0_15</title>
<g id="a_node2"><a xlink:href="c_0_15.html" xlink:title="{ParOrtStr(sk₁)}" target="_parent">
<polygon fill="#fa6900" stroke="#7f7542" points="741.5,-173 741.5,-188 844.5,-188 844.5,-173 741.5,-173"/>
<text text-anchor="middle" x="793" y="-176.8" font-family="Times,serif" font-size="14.00">ParOrtStr(sk₁)</text>
</a>
</g>
</g>
<!-- c_0_15&#45;&gt;c_0_110 -->
<g id="edge2" class="edge">
<title>c_0_15&#45;&gt;c_0_110</title>
<path fill="none" stroke="black" d="M793,-172.93C793,-150.84 793,-88 793,-88 793,-88 615.6,-88 615.6,-88"/>
<polygon fill="black" stroke="black" points="615.6,-84.5 605.6,-88 615.6,-91.5 615.6,-84.5"/>
</g>
<!-- c_0_107 -->
<g id="node3" class="node">
<title>c_0_107</title>
<g id="a_node3"><a xlink:href="c_0_107.html" xlink:title="{LIN(sk₁,sk₂(sk₁),sk₃(sk₁),sk₄(sk₁))|LIN(sk₁,sk₂(sk₁),sk₃(sk₁),sk₆(sk₁))|trivial(Af(sk₁))}" target="_parent">
<polygon fill="#fa6900" stroke="#7f7542" points="494.5,-158 494.5,-203 723.5,-203 723.5,-158 494.5,-158"/>
<text text-anchor="middle" x="609" y="-191.8" font-family="Times,serif" font-size="14.00">LIN(sk₁,sk₂(sk₁),sk₃(sk₁),sk₄(sk₁))</text>
<polyline fill="none" stroke="#7f7542" points="494.5,-188 723.5,-188 "/>
<text text-anchor="middle" x="609" y="-176.8" font-family="Times,serif" font-size="14.00">LIN(sk₁,sk₂(sk₁),sk₃(sk₁),sk₆(sk₁))</text>
<polyline fill="none" stroke="#7f7542" points="494.5,-173 723.5,-173 "/>
<text text-anchor="middle" x="609" y="-161.8" font-family="Times,serif" font-size="14.00">trivial(Af(sk₁))</text>
</a>
</g>
</g>
<!-- c_0_107&#45;&gt;c_0_110 -->
<g id="edge3" class="edge">
<title>c_0_107&#45;&gt;c_0_110</title>
<path fill="none" stroke="black" d="M550,-157.51C550,-157.51 550,-108.77 550,-108.77"/>
<polygon fill="black" stroke="black" points="553.5,-108.77 550,-98.77 546.5,-108.77 553.5,-108.77"/>
</g>
<!-- c_0_103 -->
<g id="node4" class="node">
<title>c_0_103</title>
<g id="a_node4"><a xlink:href="c_0_103.html" xlink:title="{LIN(X₁,sk₂(X₁),sk₃(X₁),sk₆(X₁))|OrtAfPl&#45;like(X₁)|ParOrtStr(X₁)|⇊|empty(X₁)|satisfying_des(X₁)}" target="_parent">
<polygon fill="#f8edd1" stroke="#7f7542" points="271.5,-135.5 271.5,-225.5 476.5,-225.5 476.5,-135.5 271.5,-135.5"/>
<text text-anchor="middle" x="374" y="-214.3" font-family="Times,serif" font-size="14.00">LIN(X₁,sk₂(X₁),sk₃(X₁),sk₆(X₁))</text>
<polyline fill="none" stroke="#7f7542" points="271.5,-210.5 476.5,-210.5 "/>
<text text-anchor="middle" x="374" y="-199.3" font-family="Times,serif" font-size="14.00">OrtAfPl&#45;like(X₁)</text>
<polyline fill="none" stroke="#7f7542" points="271.5,-195.5 476.5,-195.5 "/>
<text text-anchor="middle" x="374" y="-184.3" font-family="Times,serif" font-size="14.00">ParOrtStr(X₁)</text>
<polyline fill="none" stroke="#7f7542" points="271.5,-180.5 476.5,-180.5 "/>
<text text-anchor="middle" x="374" y="-169.3" font-family="Times,serif" font-size="14.00">⇊</text>
<polyline fill="none" stroke="#7f7542" points="271.5,-165.5 476.5,-165.5 "/>
<text text-anchor="middle" x="374" y="-154.3" font-family="Times,serif" font-size="14.00">empty(X₁)</text>
<polyline fill="none" stroke="#7f7542" points="271.5,-150.5 476.5,-150.5 "/>
<text text-anchor="middle" x="374" y="-139.3" font-family="Times,serif" font-size="14.00">satisfying_des(X₁)</text>
</a>
</g>
</g>
<!-- c_0_103&#45;&gt;c_0_110 -->
<g id="edge4" class="edge">
<title>c_0_103&#45;&gt;c_0_110</title>
<path fill="none" stroke="black" d="M426.5,-135.41C426.5,-135.41 426.5,-108.6 426.5,-108.6"/>
<polygon fill="black" stroke="black" points="430,-108.6 426.5,-98.6 423,-108.6 430,-108.6"/>
</g>
<!-- c_0_16 -->
<g id="node5" class="node">
<title>c_0_16</title>
<g id="a_node5"><a xlink:href="c_0_16.html" xlink:title="{OrtAfPl&#45;like(sk₁)}" target="_parent">
<polygon fill="#fa6900" stroke="#7f7542" points="138.5,-173 138.5,-188 253.5,-188 253.5,-173 138.5,-173"/>
<text text-anchor="middle" x="196" y="-176.8" font-family="Times,serif" font-size="14.00">OrtAfPl&#45;like(sk₁)</text>
</a>
</g>
</g>
<!-- c_0_16&#45;&gt;c_0_110 -->
<g id="edge5" class="edge">
<title>c_0_16&#45;&gt;c_0_110</title>
<path fill="none" stroke="black" d="M196,-172.93C196,-150.84 196,-88 196,-88 196,-88 366.1,-88 366.1,-88"/>
<polygon fill="black" stroke="black" points="366.1,-91.5 376.1,-88 366.1,-84.5 366.1,-91.5"/>
</g>
<!-- c_0_18 -->
<g id="node6" class="node">
<title>c_0_18</title>
<g id="a_node6"><a xlink:href="c_0_18.html" xlink:title="{¬ (empty(sk₁))}" target="_parent">
<polygon fill="#fa6900" stroke="#7f7542" points="16,-173 16,-188 120,-188 120,-173 16,-173"/>
<text text-anchor="middle" x="68" y="-176.8" font-family="Times,serif" font-size="14.00">¬ (empty(sk₁))</text>
</a>
</g>
</g>
<!-- c_0_18&#45;&gt;c_0_110 -->
<g id="edge6" class="edge">
<title>c_0_18&#45;&gt;c_0_110</title>
<path fill="none" stroke="black" d="M68,-172.8C68,-148.96 68,-78 68,-78 68,-78 366.25,-78 366.25,-78"/>
<polygon fill="black" stroke="black" points="366.25,-81.5 376.25,-78 366.25,-74.5 366.25,-81.5"/>
</g>
<!-- c_0_112 -->
<g id="node8" class="node">
<title>c_0_112</title>
<g id="a_node8"><a xlink:href="c_0_112.html" xlink:title="{trivial(Af(sk₁))}" target="_parent">
<polygon fill="#fa6900" stroke="#7f7542" points="441,-16.5 441,-31.5 541,-31.5 541,-16.5 441,-16.5"/>
<text text-anchor="middle" x="491" y="-20.3" font-family="Times,serif" font-size="14.00">trivial(Af(sk₁))</text>
</a>
</g>
</g>
<!-- c_0_110&#45;&gt;c_0_112 -->
<g id="edge7" class="edge">
<title>c_0_110&#45;&gt;c_0_112</title>
<path fill="none" stroke="black" stroke-dasharray="5,2" d="M491,-68.49C491,-68.49 491,-41.73 491,-41.73"/>
<polygon fill="black" stroke="black" points="494.5,-41.73 491,-31.73 487.5,-41.73 494.5,-41.73"/>
</g>
</g>
</svg>
