<?xml version="1.0" encoding="UTF-8" standalone="no"?>
<!DOCTYPE svg PUBLIC "-//W3C//DTD SVG 1.1//EN"
 "http://www.w3.org/Graphics/SVG/1.1/DTD/svg11.dtd">
<!-- Generated by graphviz version 5.0.0 (0)
 -->
<!-- Title: proof Pages: 1 -->
<svg width="1659pt" height="355pt"
 viewBox="0.00 0.00 1659.00 355.00" xmlns="http://www.w3.org/2000/svg" xmlns:xlink="http://www.w3.org/1999/xlink">
<g id="graph0" class="graph" transform="scale(1 1) rotate(0) translate(4 351)">
<title>proof</title>
<g id="clust1" class="cluster">
<title>cluster_0</title>
<polygon fill="transparent" stroke="black" stroke-dasharray="1,5" points="560,-247 560,-339 1126,-339 1126,-247 560,-247"/>
</g>
<g id="clust2" class="cluster">
<title>cluster_1</title>
<polygon fill="transparent" stroke="black" stroke-width="2" points="741,-195 741,-227 935,-227 935,-195 741,-195"/>
</g>
<g id="clust3" class="cluster">
<title>cluster_2</title>
<polygon fill="transparent" stroke="black" stroke-dasharray="1,5" points="8,-8 8,-175 1643,-175 1643,-8 8,-8"/>
</g>
<!-- c_0_18 -->
<g id="node1" class="node">
<title>c_0_18</title>
<g id="a_node1"><a xlink:href="c_0_18.html" xlink:title="{¬ (empty(sk₁))}" target="_vizar">
<polygon fill="#fa6900" stroke="#7f7542" points="1014,-285.5 1014,-300.5 1118,-300.5 1118,-285.5 1014,-285.5"/>
<text text-anchor="middle" x="1066" y="-289.3" font-family="Times,serif" font-size="14.00">¬ (empty(sk₁))</text>
</a>
</g>
</g>
<!-- c_0_56 -->
<g id="node5" class="node">
<title>c_0_56</title>
<g id="a_node5"><a xlink:href="c_0_56.html" xlink:title="{sk₆(sk₁) ∈ carrier(Af(sk₁))}" target="_vizar">
<polygon fill="#fa6900" stroke="#7f7542" points="749,-203.5 749,-218.5 927,-218.5 927,-203.5 749,-203.5"/>
<text text-anchor="middle" x="838" y="-207.3" font-family="Times,serif" font-size="14.00">sk₆(sk₁) ∈ carrier(Af(sk₁))</text>
</a>
</g>
</g>
<!-- c_0_18&#45;&gt;c_0_56 -->
<g id="edge1" class="edge">
<title>c_0_18&#45;&gt;c_0_56</title>
<path fill="none" stroke="black" d="M1066,-285.24C1066,-265.51 1066,-215 1066,-215 1066,-215 937.13,-215 937.13,-215"/>
<polygon fill="black" stroke="black" points="937.13,-211.5 927.13,-215 937.13,-218.5 937.13,-211.5"/>
</g>
<!-- c_0_44 -->
<g id="node2" class="node">
<title>c_0_44</title>
<g id="a_node2"><a xlink:href="c_0_44.html" xlink:title="{sk₆(sk₁) ∈ carrier(sk₁)}" target="_vizar">
<polygon fill="#fa6900" stroke="#7f7542" points="842.5,-285.5 842.5,-300.5 995.5,-300.5 995.5,-285.5 842.5,-285.5"/>
<text text-anchor="middle" x="919" y="-289.3" font-family="Times,serif" font-size="14.00">sk₆(sk₁) ∈ carrier(sk₁)</text>
</a>
</g>
</g>
<!-- c_0_44&#45;&gt;c_0_56 -->
<g id="edge2" class="edge">
<title>c_0_44&#45;&gt;c_0_56</title>
<path fill="none" stroke="black" d="M884.75,-285.43C884.75,-285.43 884.75,-228.79 884.75,-228.79"/>
<polygon fill="black" stroke="black" points="888.25,-228.79 884.75,-218.79 881.25,-228.79 888.25,-228.79"/>
</g>
<!-- c_0_20 -->
<g id="node3" class="node">
<title>c_0_20</title>
<g id="a_node3"><a xlink:href="c_0_20.html" xlink:title="{ParOrtStr(X₂)|X₁ ∈ carrier(X₂)|⇊|X₁ ∈ carrier(Af(X₂))|empty(X₂)}" target="_vizar">
<polygon fill="#f8edd1" stroke="#7f7542" points="689.5,-255.5 689.5,-330.5 824.5,-330.5 824.5,-255.5 689.5,-255.5"/>
<text text-anchor="middle" x="757" y="-319.3" font-family="Times,serif" font-size="14.00">ParOrtStr(X₂)</text>
<polyline fill="none" stroke="#7f7542" points="689.5,-315.5 824.5,-315.5 "/>
<text text-anchor="middle" x="757" y="-304.3" font-family="Times,serif" font-size="14.00">X₁ ∈ carrier(X₂)</text>
<polyline fill="none" stroke="#7f7542" points="689.5,-300.5 824.5,-300.5 "/>
<text text-anchor="middle" x="757" y="-289.3" font-family="Times,serif" font-size="14.00">⇊</text>
<polyline fill="none" stroke="#7f7542" points="689.5,-285.5 824.5,-285.5 "/>
<text text-anchor="middle" x="757" y="-274.3" font-family="Times,serif" font-size="14.00">X₁ ∈ carrier(Af(X₂))</text>
<polyline fill="none" stroke="#7f7542" points="689.5,-270.5 824.5,-270.5 "/>
<text text-anchor="middle" x="757" y="-259.3" font-family="Times,serif" font-size="14.00">empty(X₂)</text>
</a>
</g>
</g>
<!-- c_0_20&#45;&gt;c_0_56 -->
<g id="edge3" class="edge">
<title>c_0_20&#45;&gt;c_0_56</title>
<path fill="none" stroke="black" d="M786.75,-255.36C786.75,-255.36 786.75,-228.72 786.75,-228.72"/>
<polygon fill="black" stroke="black" points="790.25,-228.72 786.75,-218.72 783.25,-228.72 790.25,-228.72"/>
</g>
<!-- c_0_15 -->
<g id="node4" class="node">
<title>c_0_15</title>
<g id="a_node4"><a xlink:href="c_0_15.html" xlink:title="{ParOrtStr(sk₁)}" target="_vizar">
<polygon fill="#fa6900" stroke="#7f7542" points="568.5,-285.5 568.5,-300.5 671.5,-300.5 671.5,-285.5 568.5,-285.5"/>
<text text-anchor="middle" x="620" y="-289.3" font-family="Times,serif" font-size="14.00">ParOrtStr(sk₁)</text>
</a>
</g>
</g>
<!-- c_0_15&#45;&gt;c_0_56 -->
<g id="edge4" class="edge">
<title>c_0_15&#45;&gt;c_0_56</title>
<path fill="none" stroke="black" d="M620,-285.24C620,-265.51 620,-215 620,-215 620,-215 738.7,-215 738.7,-215"/>
<polygon fill="black" stroke="black" points="738.7,-218.5 748.7,-215 738.7,-211.5 738.7,-218.5"/>
</g>
<!-- c_0_98 -->
<g id="node6" class="node">
<title>c_0_98</title>
<g id="a_node6"><a xlink:href="c_0_98.html" xlink:title="{LIN(Af(sk₁),sk₂(sk₁),sk₃(sk₁),sk₄(sk₁))|LIN(Af(sk₁),sk₂(sk₁),sk₃(sk₁),sk₆(sk₁))|sk₁ // sk₄(sk₁) // sk₆(sk₁) // sk₅(sk₁) // sk₇(sk₁)|trivial(Af(sk₁))}" target="_vizar">
<polygon fill="#fa6900" stroke="#7f7542" points="1331,-61.5 1331,-121.5 1635,-121.5 1635,-61.5 1331,-61.5"/>
<text text-anchor="middle" x="1483" y="-110.3" font-family="Times,serif" font-size="14.00">LIN(Af(sk₁),sk₂(sk₁),sk₃(sk₁),sk₄(sk₁))</text>
<polyline fill="none" stroke="#7f7542" points="1331,-106.5 1635,-106.5 "/>
<text text-anchor="middle" x="1483" y="-95.3" font-family="Times,serif" font-size="14.00">LIN(Af(sk₁),sk₂(sk₁),sk₃(sk₁),sk₆(sk₁))</text>
<polyline fill="none" stroke="#7f7542" points="1331,-91.5 1635,-91.5 "/>
<text text-anchor="middle" x="1483" y="-80.3" font-family="Times,serif" font-size="14.00">sk₁ // sk₄(sk₁) // sk₆(sk₁) // sk₅(sk₁) // sk₇(sk₁)</text>
<polyline fill="none" stroke="#7f7542" points="1331,-76.5 1635,-76.5 "/>
<text text-anchor="middle" x="1483" y="-65.3" font-family="Times,serif" font-size="14.00">trivial(Af(sk₁))</text>
</a>
</g>
</g>
<!-- c_0_56&#45;&gt;c_0_98 -->
<g id="edge5" class="edge">
<title>c_0_56&#45;&gt;c_0_98</title>
<path fill="none" stroke="black" stroke-dasharray="5,2" d="M927.01,-211C1103.95,-211 1483,-211 1483,-211 1483,-211 1483,-131.65 1483,-131.65"/>
<polygon fill="black" stroke="black" points="1486.5,-131.65 1483,-121.65 1479.5,-131.65 1486.5,-131.65"/>
</g>
<!-- c_0_79 -->
<g id="node7" class="node">
<title>c_0_79</title>
<g id="a_node7"><a xlink:href="c_0_79.html" xlink:title="{Af(sk₁) // sk₂(sk₁) // X₁ // sk₃(sk₁) // X₂|Af(sk₁) // sk₂(sk₁) // sk₃(sk₁) // X₁ // X₂|Af(sk₁) // sk₂(sk₁) // sk₃(sk₁) // sk₆(sk₁) // sk₇(sk₁)|X₁ ∈ carrier(Af(sk₁))|X₂ ∈ carrier(Af(sk₁))|⇊|Af(sk₁) // X₁ // sk₆(sk₁) // X₂ // sk₇(sk₁)|LIN(Af(sk₁),sk₂(sk₁),sk₃(sk₁),X₁)|LIN(Af(sk₁),sk₂(sk₁),sk₃(sk₁),sk₆(sk₁))|trivial(Af(sk₁))}" target="_vizar">
<polygon fill="#fa6900" stroke="#7f7542" points="983.5,-16.5 983.5,-166.5 1312.5,-166.5 1312.5,-16.5 983.5,-16.5"/>
<text text-anchor="middle" x="1148" y="-155.3" font-family="Times,serif" font-size="14.00">Af(sk₁) // sk₂(sk₁) // X₁ // sk₃(sk₁) // X₂</text>
<polyline fill="none" stroke="#7f7542" points="983.5,-151.5 1312.5,-151.5 "/>
<text text-anchor="middle" x="1148" y="-140.3" font-family="Times,serif" font-size="14.00">Af(sk₁) // sk₂(sk₁) // sk₃(sk₁) // X₁ // X₂</text>
<polyline fill="none" stroke="#7f7542" points="983.5,-136.5 1312.5,-136.5 "/>
<text text-anchor="middle" x="1148" y="-125.3" font-family="Times,serif" font-size="14.00">Af(sk₁) // sk₂(sk₁) // sk₃(sk₁) // sk₆(sk₁) // sk₇(sk₁)</text>
<polyline fill="none" stroke="#7f7542" points="983.5,-121.5 1312.5,-121.5 "/>
<text text-anchor="middle" x="1148" y="-110.3" font-family="Times,serif" font-size="14.00">X₁ ∈ carrier(Af(sk₁))</text>
<polyline fill="none" stroke="#7f7542" points="983.5,-106.5 1312.5,-106.5 "/>
<text text-anchor="middle" x="1148" y="-95.3" font-family="Times,serif" font-size="14.00">X₂ ∈ carrier(Af(sk₁))</text>
<polyline fill="none" stroke="#7f7542" points="983.5,-91.5 1312.5,-91.5 "/>
<text text-anchor="middle" x="1148" y="-80.3" font-family="Times,serif" font-size="14.00">⇊</text>
<polyline fill="none" stroke="#7f7542" points="983.5,-76.5 1312.5,-76.5 "/>
<text text-anchor="middle" x="1148" y="-65.3" font-family="Times,serif" font-size="14.00">Af(sk₁) // X₁ // sk₆(sk₁) // X₂ // sk₇(sk₁)</text>
<polyline fill="none" stroke="#7f7542" points="983.5,-61.5 1312.5,-61.5 "/>
<text text-anchor="middle" x="1148" y="-50.3" font-family="Times,serif" font-size="14.00">LIN(Af(sk₁),sk₂(sk₁),sk₃(sk₁),X₁)</text>
<polyline fill="none" stroke="#7f7542" points="983.5,-46.5 1312.5,-46.5 "/>
<text text-anchor="middle" x="1148" y="-35.3" font-family="Times,serif" font-size="14.00">LIN(Af(sk₁),sk₂(sk₁),sk₃(sk₁),sk₆(sk₁))</text>
<polyline fill="none" stroke="#7f7542" points="983.5,-31.5 1312.5,-31.5 "/>
<text text-anchor="middle" x="1148" y="-20.3" font-family="Times,serif" font-size="14.00">trivial(Af(sk₁))</text>
</a>
</g>
</g>
<!-- c_0_56&#45;&gt;c_0_79 -->
<g id="edge6" class="edge">
<title>c_0_56&#45;&gt;c_0_79</title>
<path fill="none" stroke="black" stroke-dasharray="5,2" d="M927,-207C959.98,-207 989.5,-207 989.5,-207 989.5,-207 989.5,-176.6 989.5,-176.6"/>
<polygon fill="black" stroke="black" points="993,-176.6 989.5,-166.6 986,-176.6 993,-176.6"/>
</g>
<!-- c_0_104 -->
<g id="node8" class="node">
<title>c_0_104</title>
<g id="a_node8"><a xlink:href="c_0_104.html" xlink:title="{LIN(Af(sk₁),sk₂(sk₁),sk₃(sk₁),sk₄(sk₁))|LIN(sk₁,sk₂(sk₁),sk₃(sk₁),sk₆(sk₁))|trivial(Af(sk₁))}" target="_vizar">
<polygon fill="#fa6900" stroke="#7f7542" points="710.5,-69 710.5,-114 965.5,-114 965.5,-69 710.5,-69"/>
<text text-anchor="middle" x="838" y="-102.8" font-family="Times,serif" font-size="14.00">LIN(Af(sk₁),sk₂(sk₁),sk₃(sk₁),sk₄(sk₁))</text>
<polyline fill="none" stroke="#7f7542" points="710.5,-99 965.5,-99 "/>
<text text-anchor="middle" x="838" y="-87.8" font-family="Times,serif" font-size="14.00">LIN(sk₁,sk₂(sk₁),sk₃(sk₁),sk₆(sk₁))</text>
<polyline fill="none" stroke="#7f7542" points="710.5,-84 965.5,-84 "/>
<text text-anchor="middle" x="838" y="-72.8" font-family="Times,serif" font-size="14.00">trivial(Af(sk₁))</text>
</a>
</g>
</g>
<!-- c_0_56&#45;&gt;c_0_104 -->
<g id="edge7" class="edge">
<title>c_0_56&#45;&gt;c_0_104</title>
<path fill="none" stroke="black" stroke-dasharray="5,2" d="M838,-203.16C838,-203.16 838,-124.38 838,-124.38"/>
<polygon fill="black" stroke="black" points="841.5,-124.38 838,-114.38 834.5,-124.38 841.5,-124.38"/>
</g>
<!-- c_0_68 -->
<g id="node9" class="node">
<title>c_0_68</title>
<g id="a_node9"><a xlink:href="c_0_68.html" xlink:title="{Af(sk₁) // sk₂(sk₁) // sk₆(sk₁) // sk₃(sk₁) // sk₇(sk₁)}" target="_vizar">
<polygon fill="#fa6900" stroke="#7f7542" points="363.5,-84 363.5,-99 692.5,-99 692.5,-84 363.5,-84"/>
<text text-anchor="middle" x="528" y="-87.8" font-family="Times,serif" font-size="14.00">Af(sk₁) // sk₂(sk₁) // sk₆(sk₁) // sk₃(sk₁) // sk₇(sk₁)</text>
</a>
</g>
</g>
<!-- c_0_56&#45;&gt;c_0_68 -->
<g id="edge8" class="edge">
<title>c_0_56&#45;&gt;c_0_68</title>
<path fill="none" stroke="black" stroke-dasharray="5,2" d="M748.67,-207C713.12,-207 680.5,-207 680.5,-207 680.5,-207 680.5,-109.08 680.5,-109.08"/>
<polygon fill="black" stroke="black" points="684,-109.08 680.5,-99.08 677,-109.08 684,-109.08"/>
</g>
<!-- c_0_80 -->
<g id="node10" class="node">
<title>c_0_80</title>
<g id="a_node10"><a xlink:href="c_0_80.html" xlink:title="{Af(sk₁) // sk₂(sk₁) // sk₃(sk₁) // sk₆(sk₁) // sk₇(sk₁)}" target="_vizar">
<polygon fill="#fa6900" stroke="#7f7542" points="16.5,-84 16.5,-99 345.5,-99 345.5,-84 16.5,-84"/>
<text text-anchor="middle" x="181" y="-87.8" font-family="Times,serif" font-size="14.00">Af(sk₁) // sk₂(sk₁) // sk₃(sk₁) // sk₆(sk₁) // sk₇(sk₁)</text>
</a>
</g>
</g>
<!-- c_0_56&#45;&gt;c_0_80 -->
<g id="edge9" class="edge">
<title>c_0_56&#45;&gt;c_0_80</title>
<path fill="none" stroke="black" stroke-dasharray="5,2" d="M748.71,-211C569.07,-211 181,-211 181,-211 181,-211 181,-109.34 181,-109.34"/>
<polygon fill="black" stroke="black" points="184.5,-109.34 181,-99.34 177.5,-109.34 184.5,-109.34"/>
</g>
</g>
</svg>
