<?xml version="1.0" encoding="UTF-8" standalone="no"?>
<!DOCTYPE svg PUBLIC "-//W3C//DTD SVG 1.1//EN"
 "http://www.w3.org/Graphics/SVG/1.1/DTD/svg11.dtd">
<!-- Generated by graphviz version 5.0.0 (0)
 -->
<!-- Title: proof Pages: 1 -->
<svg width="494pt" height="168pt"
 viewBox="0.00 0.00 494.00 168.00" xmlns="http://www.w3.org/2000/svg" xmlns:xlink="http://www.w3.org/1999/xlink">
<g id="graph0" class="graph" transform="scale(1 1) rotate(0) translate(4 164)">
<title>proof</title>
<g id="clust1" class="cluster">
<title>cluster_1</title>
<polygon fill="transparent" stroke="black" stroke-width="2" points="185,-120 185,-152 295,-152 295,-120 185,-120"/>
</g>
<g id="clust2" class="cluster">
<title>cluster_2</title>
<polygon fill="transparent" stroke="black" stroke-dasharray="1,5" points="8,-8 8,-100 478,-100 478,-8 8,-8"/>
</g>
<!-- fc4_analmetr -->
<g id="node1" class="node">
<title>fc4_analmetr</title>
<g id="a_node1"><a xlink:href="fc4_analmetr.html" xlink:title="fc4_analmetr" target="_parent">
<polygon fill="#69d2e7" stroke="#7f7542" points="193,-128.5 193,-143.5 287,-143.5 287,-128.5 193,-128.5"/>
<text text-anchor="middle" x="240" y="-132.3" font-family="Times,serif" font-size="14.00">fc4_analmetr</text>
</a>
</g>
</g>
<!-- c_0_48 -->
<g id="node2" class="node">
<title>c_0_48</title>
<g id="a_node2"><a xlink:href="c_0_48.html" xlink:title="{OrtAfPl&#45;like(X₁)|ParOrtStr(X₁)|⇊|AffinSpace&#45;like(Af(X₁))|empty(X₁)}" target="_parent">
<polygon fill="#f8edd1" stroke="#7f7542" points="312.5,-16.5 312.5,-91.5 469.5,-91.5 469.5,-16.5 312.5,-16.5"/>
<text text-anchor="middle" x="391" y="-80.3" font-family="Times,serif" font-size="14.00">OrtAfPl&#45;like(X₁)</text>
<polyline fill="none" stroke="#7f7542" points="312.5,-76.5 469.5,-76.5 "/>
<text text-anchor="middle" x="391" y="-65.3" font-family="Times,serif" font-size="14.00">ParOrtStr(X₁)</text>
<polyline fill="none" stroke="#7f7542" points="312.5,-61.5 469.5,-61.5 "/>
<text text-anchor="middle" x="391" y="-50.3" font-family="Times,serif" font-size="14.00">⇊</text>
<polyline fill="none" stroke="#7f7542" points="312.5,-46.5 469.5,-46.5 "/>
<text text-anchor="middle" x="391" y="-35.3" font-family="Times,serif" font-size="14.00">AffinSpace&#45;like(Af(X₁))</text>
<polyline fill="none" stroke="#7f7542" points="312.5,-31.5 469.5,-31.5 "/>
<text text-anchor="middle" x="391" y="-20.3" font-family="Times,serif" font-size="14.00">empty(X₁)</text>
</a>
</g>
</g>
<!-- fc4_analmetr&#45;&gt;c_0_48 -->
<g id="edge1" class="edge">
<title>fc4_analmetr&#45;&gt;c_0_48</title>
<path fill="none" stroke="black" d="M287.36,-136C331.65,-136 391,-136 391,-136 391,-136 391,-101.64 391,-101.64"/>
<polygon fill="black" stroke="black" points="394.5,-101.64 391,-91.64 387.5,-101.64 394.5,-101.64"/>
</g>
<!-- c_0_108 -->
<g id="node3" class="node">
<title>c_0_108</title>
<g id="a_node3"><a xlink:href="c_0_108.html" xlink:title="{OrtAfPl&#45;like(X₁)|ParOrtStr(X₁)|trivial(Af(X₁))|⇊|empty(X₁)}" target="_parent">
<polygon fill="#f8edd1" stroke="#7f7542" points="185.5,-16.5 185.5,-91.5 294.5,-91.5 294.5,-16.5 185.5,-16.5"/>
<text text-anchor="middle" x="240" y="-80.3" font-family="Times,serif" font-size="14.00">OrtAfPl&#45;like(X₁)</text>
<polyline fill="none" stroke="#7f7542" points="185.5,-76.5 294.5,-76.5 "/>
<text text-anchor="middle" x="240" y="-65.3" font-family="Times,serif" font-size="14.00">ParOrtStr(X₁)</text>
<polyline fill="none" stroke="#7f7542" points="185.5,-61.5 294.5,-61.5 "/>
<text text-anchor="middle" x="240" y="-50.3" font-family="Times,serif" font-size="14.00">trivial(Af(X₁))</text>
<polyline fill="none" stroke="#7f7542" points="185.5,-46.5 294.5,-46.5 "/>
<text text-anchor="middle" x="240" y="-35.3" font-family="Times,serif" font-size="14.00">⇊</text>
<polyline fill="none" stroke="#7f7542" points="185.5,-31.5 294.5,-31.5 "/>
<text text-anchor="middle" x="240" y="-20.3" font-family="Times,serif" font-size="14.00">empty(X₁)</text>
</a>
</g>
</g>
<!-- fc4_analmetr&#45;&gt;c_0_108 -->
<g id="edge2" class="edge">
<title>fc4_analmetr&#45;&gt;c_0_108</title>
<path fill="none" stroke="black" d="M240,-128.43C240,-128.43 240,-101.67 240,-101.67"/>
<polygon fill="black" stroke="black" points="243.5,-101.67 240,-91.67 236.5,-101.67 243.5,-101.67"/>
</g>
<!-- c_0_47 -->
<g id="node4" class="node">
<title>c_0_47</title>
<g id="a_node4"><a xlink:href="c_0_47.html" xlink:title="{OrtAfPl&#45;like(X₁)|ParOrtStr(X₁)|⇊|2&#45;dimensional(Af(X₁))|empty(X₁)}" target="_parent">
<polygon fill="#f8edd1" stroke="#7f7542" points="16.5,-16.5 16.5,-91.5 167.5,-91.5 167.5,-16.5 16.5,-16.5"/>
<text text-anchor="middle" x="92" y="-80.3" font-family="Times,serif" font-size="14.00">OrtAfPl&#45;like(X₁)</text>
<polyline fill="none" stroke="#7f7542" points="16.5,-76.5 167.5,-76.5 "/>
<text text-anchor="middle" x="92" y="-65.3" font-family="Times,serif" font-size="14.00">ParOrtStr(X₁)</text>
<polyline fill="none" stroke="#7f7542" points="16.5,-61.5 167.5,-61.5 "/>
<text text-anchor="middle" x="92" y="-50.3" font-family="Times,serif" font-size="14.00">⇊</text>
<polyline fill="none" stroke="#7f7542" points="16.5,-46.5 167.5,-46.5 "/>
<text text-anchor="middle" x="92" y="-35.3" font-family="Times,serif" font-size="14.00">2&#45;dimensional(Af(X₁))</text>
<polyline fill="none" stroke="#7f7542" points="16.5,-31.5 167.5,-31.5 "/>
<text text-anchor="middle" x="92" y="-20.3" font-family="Times,serif" font-size="14.00">empty(X₁)</text>
</a>
</g>
</g>
<!-- fc4_analmetr&#45;&gt;c_0_47 -->
<g id="edge3" class="edge">
<title>fc4_analmetr&#45;&gt;c_0_47</title>
<path fill="none" stroke="black" d="M192.76,-136C149.45,-136 92,-136 92,-136 92,-136 92,-101.64 92,-101.64"/>
<polygon fill="black" stroke="black" points="95.5,-101.64 92,-91.64 88.5,-101.64 95.5,-101.64"/>
</g>
</g>
</svg>
