<?xml version="1.0" encoding="UTF-8" standalone="no"?>
<!DOCTYPE svg PUBLIC "-//W3C//DTD SVG 1.1//EN"
 "http://www.w3.org/Graphics/SVG/1.1/DTD/svg11.dtd">
<!-- Generated by graphviz version 5.0.0 (0)
 -->
<!-- Title: proof Pages: 1 -->
<svg width="711pt" height="76pt"
 viewBox="0.00 0.00 711.00 76.00" xmlns="http://www.w3.org/2000/svg" xmlns:xlink="http://www.w3.org/1999/xlink">
<g id="graph0" class="graph" transform="scale(1 1) rotate(0) translate(4 72)">
<title>proof</title>
<!-- t8_conmetr -->
<g id="node1" class="node">
<title>t8_conmetr</title>
<g id="a_node1"><a xlink:href="t8_conmetr.html" xlink:title="t8_conmetr" target="_vizar">
<polygon fill="#fa6900" stroke="#7f7542" points="310.5,-52.5 310.5,-67.5 392.5,-67.5 392.5,-52.5 310.5,-52.5"/>
<text text-anchor="middle" x="351.5" y="-56.3" font-family="Times,serif" font-size="14.00">t8_conmetr</text>
</a>
</g>
</g>
<!-- c_0_15 -->
<g id="node2" class="node">
<title>c_0_15</title>
<g id="a_node2"><a xlink:href="c_0_15.html" xlink:title="{ParOrtStr(sk₁)}" target="_vizar">
<polygon fill="#fa6900" stroke="#7f7542" points="0,-0.5 0,-15.5 103,-15.5 103,-0.5 0,-0.5"/>
<text text-anchor="middle" x="51.5" y="-4.3" font-family="Times,serif" font-size="14.00">ParOrtStr(sk₁)</text>
</a>
</g>
</g>
<!-- t8_conmetr&#45;&gt;c_0_15 -->
<g id="edge1" class="edge">
<title>t8_conmetr&#45;&gt;c_0_15</title>
<path fill="none" stroke="black" d="M310.42,-62C228.25,-62 51.5,-62 51.5,-62 51.5,-62 51.5,-25.51 51.5,-25.51"/>
<polygon fill="black" stroke="black" points="55,-25.51 51.5,-15.51 48,-25.51 55,-25.51"/>
</g>
<!-- c_0_17 -->
<g id="node3" class="node">
<title>c_0_17</title>
<g id="a_node3"><a xlink:href="c_0_17.html" xlink:title="{¬ (satisfying_des(sk₁))}" target="_vizar">
<polygon fill="#fa6900" stroke="#7f7542" points="121.5,-0.5 121.5,-15.5 281.5,-15.5 281.5,-0.5 121.5,-0.5"/>
<text text-anchor="middle" x="201.5" y="-4.3" font-family="Times,serif" font-size="14.00">¬ (satisfying_des(sk₁))</text>
</a>
</g>
</g>
<!-- t8_conmetr&#45;&gt;c_0_17 -->
<g id="edge2" class="edge">
<title>t8_conmetr&#45;&gt;c_0_17</title>
<path fill="none" stroke="black" d="M310.11,-57C265.72,-57 201.5,-57 201.5,-57 201.5,-57 201.5,-25.66 201.5,-25.66"/>
<polygon fill="black" stroke="black" points="205,-25.66 201.5,-15.66 198,-25.66 205,-25.66"/>
</g>
<!-- c_0_18 -->
<g id="node4" class="node">
<title>c_0_18</title>
<g id="a_node4"><a xlink:href="c_0_18.html" xlink:title="{¬ (empty(sk₁))}" target="_vizar">
<polygon fill="#fa6900" stroke="#7f7542" points="299.5,-0.5 299.5,-15.5 403.5,-15.5 403.5,-0.5 299.5,-0.5"/>
<text text-anchor="middle" x="351.5" y="-4.3" font-family="Times,serif" font-size="14.00">¬ (empty(sk₁))</text>
</a>
</g>
</g>
<!-- t8_conmetr&#45;&gt;c_0_18 -->
<g id="edge3" class="edge">
<title>t8_conmetr&#45;&gt;c_0_18</title>
<path fill="none" stroke="black" d="M351.5,-52.33C351.5,-52.33 351.5,-25.7 351.5,-25.7"/>
<polygon fill="black" stroke="black" points="355,-25.7 351.5,-15.7 348,-25.7 355,-25.7"/>
</g>
<!-- c_0_61 -->
<g id="node5" class="node">
<title>c_0_61</title>
<g id="a_node5"><a xlink:href="c_0_61.html" xlink:title="{translational(Af(sk₁))}" target="_vizar">
<polygon fill="#fa6900" stroke="#7f7542" points="421.5,-0.5 421.5,-15.5 569.5,-15.5 569.5,-0.5 421.5,-0.5"/>
<text text-anchor="middle" x="495.5" y="-4.3" font-family="Times,serif" font-size="14.00">translational(Af(sk₁))</text>
</a>
</g>
</g>
<!-- t8_conmetr&#45;&gt;c_0_61 -->
<g id="edge4" class="edge">
<title>t8_conmetr&#45;&gt;c_0_61</title>
<path fill="none" stroke="black" d="M392.76,-57C435.32,-57 495.5,-57 495.5,-57 495.5,-57 495.5,-25.66 495.5,-25.66"/>
<polygon fill="black" stroke="black" points="499,-25.66 495.5,-15.66 492,-25.66 499,-25.66"/>
</g>
<!-- c_0_16 -->
<g id="node6" class="node">
<title>c_0_16</title>
<g id="a_node6"><a xlink:href="c_0_16.html" xlink:title="{OrtAfPl&#45;like(sk₁)}" target="_vizar">
<polygon fill="#fa6900" stroke="#7f7542" points="588,-0.5 588,-15.5 703,-15.5 703,-0.5 588,-0.5"/>
<text text-anchor="middle" x="645.5" y="-4.3" font-family="Times,serif" font-size="14.00">OrtAfPl&#45;like(sk₁)</text>
</a>
</g>
</g>
<!-- t8_conmetr&#45;&gt;c_0_16 -->
<g id="edge5" class="edge">
<title>t8_conmetr&#45;&gt;c_0_16</title>
<path fill="none" stroke="black" d="M392.69,-62C473.6,-62 645.5,-62 645.5,-62 645.5,-62 645.5,-25.51 645.5,-25.51"/>
<polygon fill="black" stroke="black" points="649,-25.51 645.5,-15.51 642,-25.51 649,-25.51"/>
</g>
</g>
</svg>
