<?xml version="1.0" encoding="UTF-8" standalone="no"?>
<!DOCTYPE svg PUBLIC "-//W3C//DTD SVG 1.1//EN"
 "http://www.w3.org/Graphics/SVG/1.1/DTD/svg11.dtd">
<!-- Generated by graphviz version 5.0.0 (0)
 -->
<!-- Title: proof Pages: 1 -->
<svg width="302pt" height="190pt"
 viewBox="0.00 0.00 302.00 190.00" xmlns="http://www.w3.org/2000/svg" xmlns:xlink="http://www.w3.org/1999/xlink">
<g id="graph0" class="graph" transform="scale(1 1) rotate(0) translate(4 186)">
<title>proof</title>
<polygon fill="white" stroke="transparent" points="-4,4 -4,-186 298,-186 298,4 -4,4"/>
<g id="clust1" class="cluster">
<title>cluster_0</title>
<polygon fill="none" stroke="black" stroke-dasharray="1,5" points="56,-142 56,-174 156,-174 156,-142 56,-142"/>
</g>
<g id="clust2" class="cluster">
<title>cluster_1</title>
<polygon fill="none" stroke="black" stroke-width="2" points="75,-90 75,-122 137,-122 137,-90 75,-90"/>
</g>
<g id="clust3" class="cluster">
<title>cluster_2</title>
<polygon fill="none" stroke="black" stroke-dasharray="1,5" points="8,-8 8,-70 286,-70 286,-8 8,-8"/>
</g>
<!-- cc4_xreal_0 -->
<g id="node1" class="node">
<title>cc4_xreal_0</title>
<g id="a_node1"><a xlink:href="None" xlink:title="cc4_xreal_0" target="_blank">
<polygon fill="#69d2e7" stroke="#7f7542" points="64.5,-150.5 64.5,-165.5 147.5,-165.5 147.5,-150.5 64.5,-150.5"/>
<text text-anchor="middle" x="106" y="-154.3" font-family="Times,serif" font-size="14.00">cc4_xreal_0</text>
</a>
</g>
</g>
<!-- c_0_85 -->
<g id="node2" class="node">
<title>c_0_85</title>
<g id="a_node2"><a xlink:href="c_0_85.html" xlink:title="{Râ‚ âˆˆ ğ”¼}" target="_parent">
<polygon fill="#f8edd1" stroke="#7f7542" points="83,-98.5 83,-113.5 129,-113.5 129,-98.5 83,-98.5"/>
<text text-anchor="middle" x="106" y="-102.3" font-family="Times,serif" font-size="14.00">Râ‚ âˆˆ ğ”¼</text>
</a>
</g>
</g>
<!-- cc4_xreal_0&#45;&gt;c_0_85 -->
<g id="edge1" class="edge">
<title>cc4_xreal_0&#45;&gt;c_0_85</title>
<path fill="none" stroke="black" d="M106,-150.33C106,-150.33 106,-123.7 106,-123.7"/>
<polygon fill="black" stroke="black" points="109.5,-123.7 106,-113.7 102.5,-123.7 109.5,-123.7"/>
</g>
<!-- c_0_281 -->
<g id="node3" class="node">
<title>c_0_281</title>
<g id="a_node3"><a xlink:href="c_0_281.html" xlink:title="{(skolemâ‚ + 1) âˆˆ â„•|â‡Š|âŠ¥}" target="_parent">
<polygon fill="#fa6900" stroke="#7f7542" points="148.5,-16.5 148.5,-61.5 277.5,-61.5 277.5,-16.5 148.5,-16.5"/>
<text text-anchor="middle" x="213" y="-50.3" font-family="Times,serif" font-size="14.00">(skolemâ‚ + 1) âˆˆ â„•</text>
<polyline fill="none" stroke="#7f7542" points="148.5,-46.5 277.5,-46.5 "/>
<text text-anchor="middle" x="213" y="-35.3" font-family="Times,serif" font-size="14.00">â‡Š</text>
<polyline fill="none" stroke="#7f7542" points="148.5,-31.5 277.5,-31.5 "/>
<text text-anchor="middle" x="213" y="-20.3" font-family="Times,serif" font-size="14.00">âŠ¥</text>
</a>
</g>
</g>
<!-- c_0_85&#45;&gt;c_0_281 -->
<g id="edge2" class="edge">
<title>c_0_85&#45;&gt;c_0_281</title>
<path fill="none" stroke="black" stroke-dasharray="5,2" d="M117.5,-98.34C117.5,-84.56 117.5,-57 117.5,-57 117.5,-57 138.24,-57 138.24,-57"/>
<polygon fill="black" stroke="black" points="138.24,-60.5 148.24,-57 138.24,-53.5 138.24,-60.5"/>
</g>
<!-- c_0_105 -->
<g id="node4" class="node">
<title>c_0_105</title>
<g id="a_node4"><a xlink:href="c_0_105.html" xlink:title="{Nâ‚ âˆˆ ğ”¼}" target="_parent">
<polygon fill="#f8edd1" stroke="#7f7542" points="82,-31.5 82,-46.5 130,-46.5 130,-31.5 82,-31.5"/>
<text text-anchor="middle" x="106" y="-35.3" font-family="Times,serif" font-size="14.00">Nâ‚ âˆˆ ğ”¼</text>
</a>
</g>
</g>
<!-- c_0_85&#45;&gt;c_0_105 -->
<g id="edge3" class="edge">
<title>c_0_85&#45;&gt;c_0_105</title>
<path fill="none" stroke="black" stroke-dasharray="5,2" d="M106,-98.31C106,-98.31 106,-56.6 106,-56.6"/>
<polygon fill="black" stroke="black" points="109.5,-56.6 106,-46.6 102.5,-56.6 109.5,-56.6"/>
</g>
<!-- c_0_112 -->
<g id="node5" class="node">
<title>c_0_112</title>
<g id="a_node5"><a xlink:href="c_0_112.html" xlink:title="{Xâ‚ âˆˆ â„|â‡Š|Xâ‚ âˆˆ ğ”¼}" target="_parent">
<polygon fill="#f8edd1" stroke="#7f7542" points="16.5,-16.5 16.5,-61.5 63.5,-61.5 63.5,-16.5 16.5,-16.5"/>
<text text-anchor="middle" x="40" y="-50.3" font-family="Times,serif" font-size="14.00">Xâ‚ âˆˆ â„</text>
<polyline fill="none" stroke="#7f7542" points="16.5,-46.5 63.5,-46.5 "/>
<text text-anchor="middle" x="40" y="-35.3" font-family="Times,serif" font-size="14.00">â‡Š</text>
<polyline fill="none" stroke="#7f7542" points="16.5,-31.5 63.5,-31.5 "/>
<text text-anchor="middle" x="40" y="-20.3" font-family="Times,serif" font-size="14.00">Xâ‚ âˆˆ ğ”¼</text>
</a>
</g>
</g>
<!-- c_0_85&#45;&gt;c_0_112 -->
<g id="edge4" class="edge">
<title>c_0_85&#45;&gt;c_0_112</title>
<path fill="none" stroke="black" stroke-dasharray="5,2" d="M94.5,-98.49C94.5,-83.65 94.5,-52 94.5,-52 94.5,-52 73.75,-52 73.75,-52"/>
<polygon fill="black" stroke="black" points="73.75,-48.5 63.75,-52 73.75,-55.5 73.75,-48.5"/>
</g>
</g>
</svg>
