<?xml version="1.0" encoding="UTF-8" standalone="no"?>
<!DOCTYPE svg PUBLIC "-//W3C//DTD SVG 1.1//EN"
 "http://www.w3.org/Graphics/SVG/1.1/DTD/svg11.dtd">
<!-- Generated by graphviz version 5.0.0 (0)
 -->
<!-- Title: proof Pages: 1 -->
<svg width="356pt" height="205pt"
 viewBox="0.00 0.00 356.00 205.00" xmlns="http://www.w3.org/2000/svg" xmlns:xlink="http://www.w3.org/1999/xlink">
<g id="graph0" class="graph" transform="scale(1 1) rotate(0) translate(4 201)">
<title>proof</title>
<polygon fill="white" stroke="transparent" points="-4,4 -4,-201 352,-201 352,4 -4,4"/>
<g id="clust1" class="cluster">
<title>cluster_0</title>
<polygon fill="none" stroke="black" stroke-dasharray="1,5" points="122,-157 122,-189 226,-189 226,-157 122,-157"/>
</g>
<g id="clust2" class="cluster">
<title>cluster_1</title>
<polygon fill="none" stroke="black" stroke-width="2" points="57,-105 57,-137 291,-137 291,-105 57,-105"/>
</g>
<g id="clust3" class="cluster">
<title>cluster_2</title>
<polygon fill="none" stroke="black" stroke-dasharray="1,5" points="8,-8 8,-85 340,-85 340,-8 8,-8"/>
</g>
<!-- t23_pre_circ -->
<g id="node1" class="node">
<title>t23_pre_circ</title>
<g id="a_node1"><a xlink:href="http://grid01.ciirc.cvut.cz/~mptp/7.13.01_4.181.1147/html/pre_circ.html#T23" xlink:title="t23_pre_circ" target="_blank">
<polygon fill="#fa6900" stroke="#7f7542" points="130,-165.5 130,-180.5 218,-180.5 218,-165.5 130,-165.5"/>
<text text-anchor="middle" x="174" y="-169.3" font-family="Times,serif" font-size="14.00">t23_pre_circ</text>
</a>
</g>
</g>
<!-- c_0_251 -->
<g id="node2" class="node">
<title>c_0_251</title>
<g id="a_node2"><a xlink:href="c_0_251.html" xlink:title="{finite(a_1_1_pre_circ(skolem₁))}" target="_parent">
<polygon fill="#fa6900" stroke="#7f7542" points="65.5,-113.5 65.5,-128.5 282.5,-128.5 282.5,-113.5 65.5,-113.5"/>
<text text-anchor="middle" x="174" y="-117.3" font-family="Times,serif" font-size="14.00">finite(a_1_1_pre_circ(skolem₁))</text>
</a>
</g>
</g>
<!-- t23_pre_circ&#45;&gt;c_0_251 -->
<g id="edge1" class="edge">
<title>t23_pre_circ&#45;&gt;c_0_251</title>
<path fill="none" stroke="black" d="M174,-165.33C174,-165.33 174,-138.7 174,-138.7"/>
<polygon fill="black" stroke="black" points="177.5,-138.7 174,-128.7 170.5,-138.7 177.5,-138.7"/>
</g>
<!-- c_0_270 -->
<g id="node3" class="node">
<title>c_0_270</title>
<g id="a_node3"><a xlink:href="c_0_270.html" xlink:title="{a_1_1_pre_circ(skolem₁) ⊆ ℕ|ext&#45;real&#45;membered(a_1_1_pre_circ(skolem₁))|⇊|a_1_1_pre_circ(skolem₁) = Ø}" target="_parent">
<polygon fill="#fa6900" stroke="#7f7542" points="16,-16.5 16,-76.5 332,-76.5 332,-16.5 16,-16.5"/>
<text text-anchor="middle" x="174" y="-65.3" font-family="Times,serif" font-size="14.00">a_1_1_pre_circ(skolem₁) ⊆ ℕ</text>
<polyline fill="none" stroke="#7f7542" points="16,-61.5 332,-61.5 "/>
<text text-anchor="middle" x="174" y="-50.3" font-family="Times,serif" font-size="14.00">ext&#45;real&#45;membered(a_1_1_pre_circ(skolem₁))</text>
<polyline fill="none" stroke="#7f7542" points="16,-46.5 332,-46.5 "/>
<text text-anchor="middle" x="174" y="-35.3" font-family="Times,serif" font-size="14.00">⇊</text>
<polyline fill="none" stroke="#7f7542" points="16,-31.5 332,-31.5 "/>
<text text-anchor="middle" x="174" y="-20.3" font-family="Times,serif" font-size="14.00">a_1_1_pre_circ(skolem₁) = Ø</text>
</a>
</g>
</g>
<!-- c_0_251&#45;&gt;c_0_270 -->
<g id="edge2" class="edge">
<title>c_0_251&#45;&gt;c_0_270</title>
<path fill="none" stroke="black" stroke-dasharray="5,2" d="M174,-113.31C174,-113.31 174,-86.51 174,-86.51"/>
<polygon fill="black" stroke="black" points="177.5,-86.51 174,-76.51 170.5,-86.51 177.5,-86.51"/>
</g>
</g>
</svg>
