<?xml version="1.0" encoding="UTF-8" standalone="no"?>
<!DOCTYPE svg PUBLIC "-//W3C//DTD SVG 1.1//EN"
 "http://www.w3.org/Graphics/SVG/1.1/DTD/svg11.dtd">
<!-- Generated by graphviz version 5.0.0 (0)
 -->
<!-- Title: proof Pages: 1 -->
<svg width="356pt" height="280pt"
 viewBox="0.00 0.00 356.00 280.00" xmlns="http://www.w3.org/2000/svg" xmlns:xlink="http://www.w3.org/1999/xlink">
<g id="graph0" class="graph" transform="scale(1 1) rotate(0) translate(4 276)">
<title>proof</title>
<polygon fill="white" stroke="transparent" points="-4,4 -4,-276 352,-276 352,4 -4,4"/>
<g id="clust1" class="cluster">
<title>cluster_0</title>
<polygon fill="none" stroke="black" stroke-dasharray="1,5" points="125,-232 125,-264 223,-264 223,-232 125,-232"/>
</g>
<g id="clust2" class="cluster">
<title>cluster_1</title>
<polygon fill="none" stroke="black" stroke-width="2" points="139,-135 139,-212 209,-212 209,-135 139,-135"/>
</g>
<g id="clust3" class="cluster">
<title>cluster_2</title>
<polygon fill="none" stroke="black" stroke-dasharray="1,5" points="8,-8 8,-115 340,-115 340,-8 8,-8"/>
</g>
<!-- t2_xxreal_0 -->
<g id="node1" class="node">
<title>t2_xxreal_0</title>
<g id="a_node1"><a xlink:href="http://grid01.ciirc.cvut.cz/~mptp/7.13.01_4.181.1147/html/xxreal_0.html#T2" xlink:title="t2_xxreal_0" target="_blank">
<polygon fill="#69d2e7" stroke="#7f7542" points="133,-240.5 133,-255.5 215,-255.5 215,-240.5 133,-240.5"/>
<text text-anchor="middle" x="174" y="-244.3" font-family="Times,serif" font-size="14.00">t2_xxreal_0</text>
</a>
</g>
</g>
<!-- c_0_185 -->
<g id="node2" class="node">
<title>c_0_185</title>
<g id="a_node2"><a xlink:href="c_0_185.html" xlink:title="{E₁ ≤ E₂|E₂ ≤ E₃|⇊|E₁ ≤ E₃}" target="_parent">
<polygon fill="#f8edd1" stroke="#7f7542" points="147.5,-143.5 147.5,-203.5 200.5,-203.5 200.5,-143.5 147.5,-143.5"/>
<text text-anchor="middle" x="174" y="-192.3" font-family="Times,serif" font-size="14.00">E₁ ≤ E₂</text>
<polyline fill="none" stroke="#7f7542" points="147.5,-188.5 200.5,-188.5 "/>
<text text-anchor="middle" x="174" y="-177.3" font-family="Times,serif" font-size="14.00">E₂ ≤ E₃</text>
<polyline fill="none" stroke="#7f7542" points="147.5,-173.5 200.5,-173.5 "/>
<text text-anchor="middle" x="174" y="-162.3" font-family="Times,serif" font-size="14.00">⇊</text>
<polyline fill="none" stroke="#7f7542" points="147.5,-158.5 200.5,-158.5 "/>
<text text-anchor="middle" x="174" y="-147.3" font-family="Times,serif" font-size="14.00">E₁ ≤ E₃</text>
</a>
</g>
</g>
<!-- t2_xxreal_0&#45;&gt;c_0_185 -->
<g id="edge1" class="edge">
<title>t2_xxreal_0&#45;&gt;c_0_185</title>
<path fill="none" stroke="black" d="M174,-240.31C174,-240.31 174,-213.51 174,-213.51"/>
<polygon fill="black" stroke="black" points="177.5,-213.51 174,-203.51 170.5,-213.51 177.5,-213.51"/>
</g>
<!-- c_0_205 -->
<g id="node3" class="node">
<title>c_0_205</title>
<g id="a_node3"><a xlink:href="c_0_205.html" xlink:title="{E₁ ≤ skolem₁|a_1_1_pre_circ(skolem₁) ⊆ ℕ|ext&#45;real&#45;membered(a_1_1_pre_circ(skolem₁))|right_end(a_1_1_pre_circ(skolem₁))|⇊|E₁ ≤ sup(a_1_1_pre_circ(skolem₁))}" target="_parent">
<polygon fill="#fa6900" stroke="#7f7542" points="16,-16.5 16,-106.5 332,-106.5 332,-16.5 16,-16.5"/>
<text text-anchor="middle" x="174" y="-95.3" font-family="Times,serif" font-size="14.00">E₁ ≤ skolem₁</text>
<polyline fill="none" stroke="#7f7542" points="16,-91.5 332,-91.5 "/>
<text text-anchor="middle" x="174" y="-80.3" font-family="Times,serif" font-size="14.00">a_1_1_pre_circ(skolem₁) ⊆ ℕ</text>
<polyline fill="none" stroke="#7f7542" points="16,-76.5 332,-76.5 "/>
<text text-anchor="middle" x="174" y="-65.3" font-family="Times,serif" font-size="14.00">ext&#45;real&#45;membered(a_1_1_pre_circ(skolem₁))</text>
<polyline fill="none" stroke="#7f7542" points="16,-61.5 332,-61.5 "/>
<text text-anchor="middle" x="174" y="-50.3" font-family="Times,serif" font-size="14.00">right_end(a_1_1_pre_circ(skolem₁))</text>
<polyline fill="none" stroke="#7f7542" points="16,-46.5 332,-46.5 "/>
<text text-anchor="middle" x="174" y="-35.3" font-family="Times,serif" font-size="14.00">⇊</text>
<polyline fill="none" stroke="#7f7542" points="16,-31.5 332,-31.5 "/>
<text text-anchor="middle" x="174" y="-20.3" font-family="Times,serif" font-size="14.00">E₁ ≤ sup(a_1_1_pre_circ(skolem₁))</text>
</a>
</g>
</g>
<!-- c_0_185&#45;&gt;c_0_205 -->
<g id="edge2" class="edge">
<title>c_0_185&#45;&gt;c_0_205</title>
<path fill="none" stroke="black" stroke-dasharray="5,2" d="M174,-143.49C174,-143.49 174,-116.77 174,-116.77"/>
<polygon fill="black" stroke="black" points="177.5,-116.77 174,-106.77 170.5,-116.77 177.5,-116.77"/>
</g>
</g>
</svg>
