<?xml version="1.0" encoding="UTF-8" standalone="no"?>
<!DOCTYPE svg PUBLIC "-//W3C//DTD SVG 1.1//EN"
 "http://www.w3.org/Graphics/SVG/1.1/DTD/svg11.dtd">
<!-- Generated by graphviz version 5.0.0 (0)
 -->
<!-- Title: proof Pages: 1 -->
<svg width="202pt" height="325pt"
 viewBox="0.00 0.00 202.00 325.00" xmlns="http://www.w3.org/2000/svg" xmlns:xlink="http://www.w3.org/1999/xlink">
<g id="graph0" class="graph" transform="scale(1 1) rotate(0) translate(4 321)">
<title>proof</title>
<polygon fill="white" stroke="transparent" points="-4,4 -4,-321 198,-321 198,4 -4,4"/>
<g id="clust1" class="cluster">
<title>cluster_0</title>
<polygon fill="none" stroke="black" stroke-dasharray="1,5" points="46,-277 46,-309 148,-309 148,-277 46,-277"/>
</g>
<g id="clust2" class="cluster">
<title>cluster_1</title>
<polygon fill="none" stroke="black" stroke-width="2" points="8,-150 8,-257 186,-257 186,-150 8,-150"/>
</g>
<g id="clust3" class="cluster">
<title>cluster_2</title>
<polygon fill="none" stroke="black" stroke-dasharray="1,5" points="8,-8 8,-130 186,-130 186,-8 8,-8"/>
</g>
<!-- d8_xxreal_2 -->
<g id="node1" class="node">
<title>d8_xxreal_2</title>
<g id="a_node1"><a xlink:href="http://grid01.ciirc.cvut.cz/~mptp/7.13.01_4.181.1147/html/xxreal_2.html#D8" xlink:title="d8_xxreal_2" target="_blank">
<polygon fill="#69d2e7" stroke="#7f7542" points="54.5,-285.5 54.5,-300.5 139.5,-300.5 139.5,-285.5 54.5,-285.5"/>
<text text-anchor="middle" x="97" y="-289.3" font-family="Times,serif" font-size="14.00">d8_xxreal_2</text>
</a>
</g>
</g>
<!-- c_0_155 -->
<g id="node2" class="node">
<title>c_0_155</title>
<g id="a_node2"><a xlink:href="c_0_155.html" xlink:title="{E₃ = sup(X₂)|ext&#45;real&#45;membered(X₂)|in(E₁,X₂)|right_end(X₂)|⇊|E₁ ≤ E₃}" target="_parent">
<polygon fill="#f8edd1" stroke="#7f7542" points="16,-158.5 16,-248.5 178,-248.5 178,-158.5 16,-158.5"/>
<text text-anchor="middle" x="97" y="-237.3" font-family="Times,serif" font-size="14.00">E₃ = sup(X₂)</text>
<polyline fill="none" stroke="#7f7542" points="16,-233.5 178,-233.5 "/>
<text text-anchor="middle" x="97" y="-222.3" font-family="Times,serif" font-size="14.00">ext&#45;real&#45;membered(X₂)</text>
<polyline fill="none" stroke="#7f7542" points="16,-218.5 178,-218.5 "/>
<text text-anchor="middle" x="97" y="-207.3" font-family="Times,serif" font-size="14.00">in(E₁,X₂)</text>
<polyline fill="none" stroke="#7f7542" points="16,-203.5 178,-203.5 "/>
<text text-anchor="middle" x="97" y="-192.3" font-family="Times,serif" font-size="14.00">right_end(X₂)</text>
<polyline fill="none" stroke="#7f7542" points="16,-188.5 178,-188.5 "/>
<text text-anchor="middle" x="97" y="-177.3" font-family="Times,serif" font-size="14.00">⇊</text>
<polyline fill="none" stroke="#7f7542" points="16,-173.5 178,-173.5 "/>
<text text-anchor="middle" x="97" y="-162.3" font-family="Times,serif" font-size="14.00">E₁ ≤ E₃</text>
</a>
</g>
</g>
<!-- d8_xxreal_2&#45;&gt;c_0_155 -->
<g id="edge1" class="edge">
<title>d8_xxreal_2&#45;&gt;c_0_155</title>
<path fill="none" stroke="black" d="M97,-285.37C97,-285.37 97,-258.66 97,-258.66"/>
<polygon fill="black" stroke="black" points="100.5,-258.66 97,-248.66 93.5,-258.66 100.5,-258.66"/>
</g>
<!-- c_0_176 -->
<g id="node3" class="node">
<title>c_0_176</title>
<g id="a_node3"><a xlink:href="c_0_176.html" xlink:title="{E₁ ∈ X₃|E₂ = sup(X₃)|ext&#45;real&#45;membered(X₃)|right_end(X₃)|⇊|E₁ ≤ E₂|X₃ = Ø}" target="_parent">
<polygon fill="#f8edd1" stroke="#7f7542" points="16,-16.5 16,-121.5 178,-121.5 178,-16.5 16,-16.5"/>
<text text-anchor="middle" x="97" y="-110.3" font-family="Times,serif" font-size="14.00">E₁ ∈ X₃</text>
<polyline fill="none" stroke="#7f7542" points="16,-106.5 178,-106.5 "/>
<text text-anchor="middle" x="97" y="-95.3" font-family="Times,serif" font-size="14.00">E₂ = sup(X₃)</text>
<polyline fill="none" stroke="#7f7542" points="16,-91.5 178,-91.5 "/>
<text text-anchor="middle" x="97" y="-80.3" font-family="Times,serif" font-size="14.00">ext&#45;real&#45;membered(X₃)</text>
<polyline fill="none" stroke="#7f7542" points="16,-76.5 178,-76.5 "/>
<text text-anchor="middle" x="97" y="-65.3" font-family="Times,serif" font-size="14.00">right_end(X₃)</text>
<polyline fill="none" stroke="#7f7542" points="16,-61.5 178,-61.5 "/>
<text text-anchor="middle" x="97" y="-50.3" font-family="Times,serif" font-size="14.00">⇊</text>
<polyline fill="none" stroke="#7f7542" points="16,-46.5 178,-46.5 "/>
<text text-anchor="middle" x="97" y="-35.3" font-family="Times,serif" font-size="14.00">E₁ ≤ E₂</text>
<polyline fill="none" stroke="#7f7542" points="16,-31.5 178,-31.5 "/>
<text text-anchor="middle" x="97" y="-20.3" font-family="Times,serif" font-size="14.00">X₃ = Ø</text>
</a>
</g>
</g>
<!-- c_0_155&#45;&gt;c_0_176 -->
<g id="edge2" class="edge">
<title>c_0_155&#45;&gt;c_0_176</title>
<path fill="none" stroke="black" stroke-dasharray="5,2" d="M97,-158.34C97,-158.34 97,-131.72 97,-131.72"/>
<polygon fill="black" stroke="black" points="100.5,-131.72 97,-121.72 93.5,-131.72 100.5,-131.72"/>
</g>
</g>
</svg>
