<?xml version="1.0" encoding="UTF-8" standalone="no"?>
<!DOCTYPE svg PUBLIC "-//W3C//DTD SVG 1.1//EN"
 "http://www.w3.org/Graphics/SVG/1.1/DTD/svg11.dtd">
<!-- Generated by graphviz version 5.0.0 (0)
 -->
<!-- Title: proof Pages: 1 -->
<svg width="370pt" height="310pt"
 viewBox="0.00 0.00 370.00 310.00" xmlns="http://www.w3.org/2000/svg" xmlns:xlink="http://www.w3.org/1999/xlink">
<g id="graph0" class="graph" transform="scale(1 1) rotate(0) translate(4 306)">
<title>proof</title>
<polygon fill="white" stroke="transparent" points="-4,4 -4,-306 366,-306 366,4 -4,4"/>
<g id="clust1" class="cluster">
<title>cluster_0</title>
<polygon fill="none" stroke="black" stroke-dasharray="1,5" points="8,-217 8,-294 354,-294 354,-217 8,-217"/>
</g>
<g id="clust2" class="cluster">
<title>cluster_1</title>
<polygon fill="none" stroke="black" stroke-width="2" points="190,-135 190,-197 260,-197 260,-135 190,-135"/>
</g>
<g id="clust3" class="cluster">
<title>cluster_2</title>
<polygon fill="none" stroke="black" stroke-dasharray="1,5" points="146,-8 146,-115 304,-115 304,-8 146,-8"/>
</g>
<!-- c_0_136 -->
<g id="node1" class="node">
<title>c_0_136</title>
<g id="a_node1"><a xlink:href="c_0_136.html" xlink:title="{N₂ ≤ N₂|R₁ ∈ ℕ|⇊|R₁ ≤ R₁}" target="_parent">
<polygon fill="#f8edd1" stroke="#7f7542" points="290,-225.5 290,-285.5 346,-285.5 346,-225.5 290,-225.5"/>
<text text-anchor="middle" x="318" y="-274.3" font-family="Times,serif" font-size="14.00">N₂ ≤ N₂</text>
<polyline fill="none" stroke="#7f7542" points="290,-270.5 346,-270.5 "/>
<text text-anchor="middle" x="318" y="-259.3" font-family="Times,serif" font-size="14.00">R₁ ∈ ℕ</text>
<polyline fill="none" stroke="#7f7542" points="290,-255.5 346,-255.5 "/>
<text text-anchor="middle" x="318" y="-244.3" font-family="Times,serif" font-size="14.00">⇊</text>
<polyline fill="none" stroke="#7f7542" points="290,-240.5 346,-240.5 "/>
<text text-anchor="middle" x="318" y="-229.3" font-family="Times,serif" font-size="14.00">R₁ ≤ R₁</text>
</a>
</g>
</g>
<!-- c_0_159 -->
<g id="node4" class="node">
<title>c_0_159</title>
<g id="a_node4"><a xlink:href="c_0_159.html" xlink:title="{R₁ ∈ ℕ|⇊|R₁ ≤ R₁}" target="_parent">
<polygon fill="#f8edd1" stroke="#7f7542" points="198.5,-143.5 198.5,-188.5 251.5,-188.5 251.5,-143.5 198.5,-143.5"/>
<text text-anchor="middle" x="225" y="-177.3" font-family="Times,serif" font-size="14.00">R₁ ∈ ℕ</text>
<polyline fill="none" stroke="#7f7542" points="198.5,-173.5 251.5,-173.5 "/>
<text text-anchor="middle" x="225" y="-162.3" font-family="Times,serif" font-size="14.00">⇊</text>
<polyline fill="none" stroke="#7f7542" points="198.5,-158.5 251.5,-158.5 "/>
<text text-anchor="middle" x="225" y="-147.3" font-family="Times,serif" font-size="14.00">R₁ ≤ R₁</text>
</a>
</g>
</g>
<!-- c_0_136&#45;&gt;c_0_159 -->
<g id="edge1" class="edge">
<title>c_0_136&#45;&gt;c_0_159</title>
<path fill="none" stroke="black" d="M289.97,-236C265.49,-236 233.83,-236 233.83,-236 233.83,-236 233.83,-198.53 233.83,-198.53"/>
<polygon fill="black" stroke="black" points="237.33,-198.53 233.83,-188.53 230.33,-198.53 237.33,-198.53"/>
</g>
<!-- c_0_115 -->
<g id="node2" class="node">
<title>c_0_115</title>
<g id="a_node2"><a xlink:href="c_0_115.html" xlink:title="{skolem₁₂ ∈ ℕ}" target="_parent">
<polygon fill="#f8edd1" stroke="#7f7542" points="178,-248 178,-263 272,-263 272,-248 178,-248"/>
<text text-anchor="middle" x="225" y="-251.8" font-family="Times,serif" font-size="14.00">skolem₁₂ ∈ ℕ</text>
</a>
</g>
</g>
<!-- c_0_115&#45;&gt;c_0_159 -->
<g id="edge2" class="edge">
<title>c_0_115&#45;&gt;c_0_159</title>
<path fill="none" stroke="black" d="M216.17,-247.87C216.17,-247.87 216.17,-198.81 216.17,-198.81"/>
<polygon fill="black" stroke="black" points="219.67,-198.81 216.17,-188.81 212.67,-198.81 219.67,-198.81"/>
</g>
<!-- c_0_147 -->
<g id="node3" class="node">
<title>c_0_147</title>
<g id="a_node3"><a xlink:href="c_0_147.html" xlink:title="{skolem₁₂ ≤ skolem₁₂}" target="_parent">
<polygon fill="#f8edd1" stroke="#7f7542" points="16.5,-248 16.5,-263 159.5,-263 159.5,-248 16.5,-248"/>
<text text-anchor="middle" x="88" y="-251.8" font-family="Times,serif" font-size="14.00">skolem₁₂ ≤ skolem₁₂</text>
</a>
</g>
</g>
<!-- c_0_147&#45;&gt;c_0_159 -->
<g id="edge3" class="edge">
<title>c_0_147&#45;&gt;c_0_159</title>
<path fill="none" stroke="black" d="M85.25,-247.87C85.25,-226.23 85.25,-166 85.25,-166 85.25,-166 188.39,-166 188.39,-166"/>
<polygon fill="black" stroke="black" points="188.39,-169.5 198.39,-166 188.39,-162.5 188.39,-169.5"/>
</g>
<!-- c_0_169 -->
<g id="node5" class="node">
<title>c_0_169</title>
<g id="a_node5"><a xlink:href="c_0_169.html" xlink:title="{(R₃ + (X₁ + R₂)) ∈ ℕ|(R₃ + X₁) ≤ R₃|complex(R₃)|complex(X₁)|⇊|(X₁ + R₂) ≤ R₂}" target="_parent">
<polygon fill="#f8edd1" stroke="#7f7542" points="154,-16.5 154,-106.5 296,-106.5 296,-16.5 154,-16.5"/>
<text text-anchor="middle" x="225" y="-95.3" font-family="Times,serif" font-size="14.00">(R₃ + (X₁ + R₂)) ∈ ℕ</text>
<polyline fill="none" stroke="#7f7542" points="154,-91.5 296,-91.5 "/>
<text text-anchor="middle" x="225" y="-80.3" font-family="Times,serif" font-size="14.00">(R₃ + X₁) ≤ R₃</text>
<polyline fill="none" stroke="#7f7542" points="154,-76.5 296,-76.5 "/>
<text text-anchor="middle" x="225" y="-65.3" font-family="Times,serif" font-size="14.00">complex(R₃)</text>
<polyline fill="none" stroke="#7f7542" points="154,-61.5 296,-61.5 "/>
<text text-anchor="middle" x="225" y="-50.3" font-family="Times,serif" font-size="14.00">complex(X₁)</text>
<polyline fill="none" stroke="#7f7542" points="154,-46.5 296,-46.5 "/>
<text text-anchor="middle" x="225" y="-35.3" font-family="Times,serif" font-size="14.00">⇊</text>
<polyline fill="none" stroke="#7f7542" points="154,-31.5 296,-31.5 "/>
<text text-anchor="middle" x="225" y="-20.3" font-family="Times,serif" font-size="14.00">(X₁ + R₂) ≤ R₂</text>
</a>
</g>
</g>
<!-- c_0_159&#45;&gt;c_0_169 -->
<g id="edge4" class="edge">
<title>c_0_159&#45;&gt;c_0_169</title>
<path fill="none" stroke="black" stroke-dasharray="5,2" d="M225,-143.33C225,-143.33 225,-116.89 225,-116.89"/>
<polygon fill="black" stroke="black" points="228.5,-116.89 225,-106.89 221.5,-116.89 228.5,-116.89"/>
</g>
</g>
</svg>
