<?xml version="1.0" encoding="UTF-8" standalone="no"?>
<!DOCTYPE svg PUBLIC "-//W3C//DTD SVG 1.1//EN"
 "http://www.w3.org/Graphics/SVG/1.1/DTD/svg11.dtd">
<!-- Generated by graphviz version 5.0.0 (0)
 -->
<!-- Title: proof Pages: 1 -->
<svg width="502pt" height="265pt"
 viewBox="0.00 0.00 502.00 265.00" xmlns="http://www.w3.org/2000/svg" xmlns:xlink="http://www.w3.org/1999/xlink">
<g id="graph0" class="graph" transform="scale(1 1) rotate(0) translate(4 261)">
<title>proof</title>
<polygon fill="white" stroke="transparent" points="-4,4 -4,-261 498,-261 498,4 -4,4"/>
<g id="clust1" class="cluster">
<title>cluster_0</title>
<polygon fill="none" stroke="black" stroke-dasharray="1,5" points="143,-217 143,-249 257,-249 257,-217 143,-217"/>
</g>
<g id="clust2" class="cluster">
<title>cluster_1</title>
<polygon fill="none" stroke="black" stroke-width="2" points="145,-120 145,-197 255,-197 255,-120 145,-120"/>
</g>
<g id="clust3" class="cluster">
<title>cluster_2</title>
<polygon fill="none" stroke="black" stroke-dasharray="1,5" points="8,-8 8,-100 486,-100 486,-8 8,-8"/>
</g>
<!-- fc10_xxreal_2 -->
<g id="node1" class="node">
<title>fc10_xxreal_2</title>
<g id="a_node1"><a xlink:href="None" xlink:title="fc10_xxreal_2" target="_blank">
<polygon fill="#69d2e7" stroke="#7f7542" points="151,-225.5 151,-240.5 249,-240.5 249,-225.5 151,-225.5"/>
<text text-anchor="middle" x="200" y="-229.3" font-family="Times,serif" font-size="14.00">fc10_xxreal_2</text>
</a>
</g>
</g>
<!-- c_0_153 -->
<g id="node2" class="node">
<title>c_0_153</title>
<g id="a_node2"><a xlink:href="c_0_153.html" xlink:title="{X₁ ⊆ ℕ|right_end(X₁)|⇊|sup(X₁) ∈ ℕ}" target="_parent">
<polygon fill="#f8edd1" stroke="#7f7542" points="153,-128.5 153,-188.5 247,-188.5 247,-128.5 153,-128.5"/>
<text text-anchor="middle" x="200" y="-177.3" font-family="Times,serif" font-size="14.00">X₁ ⊆ ℕ</text>
<polyline fill="none" stroke="#7f7542" points="153,-173.5 247,-173.5 "/>
<text text-anchor="middle" x="200" y="-162.3" font-family="Times,serif" font-size="14.00">right_end(X₁)</text>
<polyline fill="none" stroke="#7f7542" points="153,-158.5 247,-158.5 "/>
<text text-anchor="middle" x="200" y="-147.3" font-family="Times,serif" font-size="14.00">⇊</text>
<polyline fill="none" stroke="#7f7542" points="153,-143.5 247,-143.5 "/>
<text text-anchor="middle" x="200" y="-132.3" font-family="Times,serif" font-size="14.00">sup(X₁) ∈ ℕ</text>
</a>
</g>
</g>
<!-- fc10_xxreal_2&#45;&gt;c_0_153 -->
<g id="edge1" class="edge">
<title>fc10_xxreal_2&#45;&gt;c_0_153</title>
<path fill="none" stroke="black" d="M200,-225.31C200,-225.31 200,-198.51 200,-198.51"/>
<polygon fill="black" stroke="black" points="203.5,-198.51 200,-188.51 196.5,-198.51 203.5,-198.51"/>
</g>
<!-- c_0_233 -->
<g id="node3" class="node">
<title>c_0_233</title>
<g id="a_node3"><a xlink:href="c_0_233.html" xlink:title="{a_1_1_pre_circ(skolem₁) ⊆ ℕ|ext&#45;real&#45;membered(a_1_1_pre_circ(skolem₁))|right_end(a_1_1_pre_circ(skolem₁))|⇊|⊥}" target="_parent">
<polygon fill="#fa6900" stroke="#7f7542" points="162,-16.5 162,-91.5 478,-91.5 478,-16.5 162,-16.5"/>
<text text-anchor="middle" x="320" y="-80.3" font-family="Times,serif" font-size="14.00">a_1_1_pre_circ(skolem₁) ⊆ ℕ</text>
<polyline fill="none" stroke="#7f7542" points="162,-76.5 478,-76.5 "/>
<text text-anchor="middle" x="320" y="-65.3" font-family="Times,serif" font-size="14.00">ext&#45;real&#45;membered(a_1_1_pre_circ(skolem₁))</text>
<polyline fill="none" stroke="#7f7542" points="162,-61.5 478,-61.5 "/>
<text text-anchor="middle" x="320" y="-50.3" font-family="Times,serif" font-size="14.00">right_end(a_1_1_pre_circ(skolem₁))</text>
<polyline fill="none" stroke="#7f7542" points="162,-46.5 478,-46.5 "/>
<text text-anchor="middle" x="320" y="-35.3" font-family="Times,serif" font-size="14.00">⇊</text>
<polyline fill="none" stroke="#7f7542" points="162,-31.5 478,-31.5 "/>
<text text-anchor="middle" x="320" y="-20.3" font-family="Times,serif" font-size="14.00">⊥</text>
</a>
</g>
</g>
<!-- c_0_153&#45;&gt;c_0_233 -->
<g id="edge2" class="edge">
<title>c_0_153&#45;&gt;c_0_233</title>
<path fill="none" stroke="black" stroke-dasharray="5,2" d="M204.5,-128.27C204.5,-128.27 204.5,-101.59 204.5,-101.59"/>
<polygon fill="black" stroke="black" points="208,-101.59 204.5,-91.59 201,-101.59 208,-101.59"/>
</g>
<!-- c_0_174 -->
<g id="node4" class="node">
<title>c_0_174</title>
<g id="a_node4"><a xlink:href="c_0_174.html" xlink:title="{X₁ ⊆ ℕ|right_end(X₁)|⇊|skolem₁ ≤ sup(X₁)|sup(X₁) ≤ skolem₁}" target="_parent">
<polygon fill="#fa6900" stroke="#7f7542" points="16,-16.5 16,-91.5 144,-91.5 144,-16.5 16,-16.5"/>
<text text-anchor="middle" x="80" y="-80.3" font-family="Times,serif" font-size="14.00">X₁ ⊆ ℕ</text>
<polyline fill="none" stroke="#7f7542" points="16,-76.5 144,-76.5 "/>
<text text-anchor="middle" x="80" y="-65.3" font-family="Times,serif" font-size="14.00">right_end(X₁)</text>
<polyline fill="none" stroke="#7f7542" points="16,-61.5 144,-61.5 "/>
<text text-anchor="middle" x="80" y="-50.3" font-family="Times,serif" font-size="14.00">⇊</text>
<polyline fill="none" stroke="#7f7542" points="16,-46.5 144,-46.5 "/>
<text text-anchor="middle" x="80" y="-35.3" font-family="Times,serif" font-size="14.00">skolem₁ ≤ sup(X₁)</text>
<polyline fill="none" stroke="#7f7542" points="16,-31.5 144,-31.5 "/>
<text text-anchor="middle" x="80" y="-20.3" font-family="Times,serif" font-size="14.00">sup(X₁) ≤ skolem₁</text>
</a>
</g>
</g>
<!-- c_0_153&#45;&gt;c_0_174 -->
<g id="edge3" class="edge">
<title>c_0_153&#45;&gt;c_0_174</title>
<path fill="none" stroke="black" stroke-dasharray="5,2" d="M157.5,-128.27C157.5,-97.41 157.5,-54 157.5,-54 157.5,-54 154,-54 154,-54"/>
<polygon fill="black" stroke="black" points="154,-50.5 144,-54 154,-57.5 154,-50.5"/>
</g>
</g>
</svg>
