<?xml version="1.0" encoding="UTF-8" standalone="no"?>
<!DOCTYPE svg PUBLIC "-//W3C//DTD SVG 1.1//EN"
 "http://www.w3.org/Graphics/SVG/1.1/DTD/svg11.dtd">
<!-- Generated by graphviz version 5.0.0 (0)
 -->
<!-- Title: proof Pages: 1 -->
<svg width="241pt" height="325pt"
 viewBox="0.00 0.00 241.00 325.00" xmlns="http://www.w3.org/2000/svg" xmlns:xlink="http://www.w3.org/1999/xlink">
<g id="graph0" class="graph" transform="scale(1 1) rotate(0) translate(4 321)">
<title>proof</title>
<polygon fill="white" stroke="transparent" points="-4,4 -4,-321 237,-321 237,4 -4,4"/>
<g id="clust1" class="cluster">
<title>cluster_0</title>
<polygon fill="none" stroke="black" stroke-dasharray="1,5" points="8,-202 8,-309 225,-309 225,-202 8,-202"/>
</g>
<g id="clust2" class="cluster">
<title>cluster_1</title>
<polygon fill="none" stroke="black" stroke-width="2" points="62,-90 62,-182 170,-182 170,-90 62,-90"/>
</g>
<g id="clust3" class="cluster">
<title>cluster_2</title>
<polygon fill="none" stroke="black" stroke-dasharray="1,5" points="60,-8 60,-70 172,-70 172,-8 60,-8"/>
</g>
<!-- c_0_61 -->
<g id="node1" class="node">
<title>c_0_61</title>
<g id="a_node1"><a xlink:href="c_0_61.html" xlink:title="{X₁ = Ø|X₂ ∈ bool(X₁)|⇊|X₂ = Ø}" target="_parent">
<polygon fill="#f8edd1" stroke="#7f7542" points="125.5,-225.5 125.5,-285.5 216.5,-285.5 216.5,-225.5 125.5,-225.5"/>
<text text-anchor="middle" x="171" y="-274.3" font-family="Times,serif" font-size="14.00">X₁ = Ø</text>
<polyline fill="none" stroke="#7f7542" points="125.5,-270.5 216.5,-270.5 "/>
<text text-anchor="middle" x="171" y="-259.3" font-family="Times,serif" font-size="14.00">X₂ ∈ bool(X₁)</text>
<polyline fill="none" stroke="#7f7542" points="125.5,-255.5 216.5,-255.5 "/>
<text text-anchor="middle" x="171" y="-244.3" font-family="Times,serif" font-size="14.00">⇊</text>
<polyline fill="none" stroke="#7f7542" points="125.5,-240.5 216.5,-240.5 "/>
<text text-anchor="middle" x="171" y="-229.3" font-family="Times,serif" font-size="14.00">X₂ = Ø</text>
</a>
</g>
</g>
<!-- c_0_91 -->
<g id="node3" class="node">
<title>c_0_91</title>
<g id="a_node3"><a xlink:href="c_0_91.html" xlink:title="{X₁ ∈ bool(X₃)|X₂ ∈ X₃ ∈ X₁|⇊|X₁ = Ø|X₂ ∈ X₃}" target="_parent">
<polygon fill="#f8edd1" stroke="#7f7542" points="70.5,-98.5 70.5,-173.5 161.5,-173.5 161.5,-98.5 70.5,-98.5"/>
<text text-anchor="middle" x="116" y="-162.3" font-family="Times,serif" font-size="14.00">X₁ ∈ bool(X₃)</text>
<polyline fill="none" stroke="#7f7542" points="70.5,-158.5 161.5,-158.5 "/>
<text text-anchor="middle" x="116" y="-147.3" font-family="Times,serif" font-size="14.00">X₂ ∈ X₃ ∈ X₁</text>
<polyline fill="none" stroke="#7f7542" points="70.5,-143.5 161.5,-143.5 "/>
<text text-anchor="middle" x="116" y="-132.3" font-family="Times,serif" font-size="14.00">⇊</text>
<polyline fill="none" stroke="#7f7542" points="70.5,-128.5 161.5,-128.5 "/>
<text text-anchor="middle" x="116" y="-117.3" font-family="Times,serif" font-size="14.00">X₁ = Ø</text>
<polyline fill="none" stroke="#7f7542" points="70.5,-113.5 161.5,-113.5 "/>
<text text-anchor="middle" x="116" y="-102.3" font-family="Times,serif" font-size="14.00">X₂ ∈ X₃</text>
</a>
</g>
</g>
<!-- c_0_61&#45;&gt;c_0_91 -->
<g id="edge1" class="edge">
<title>c_0_61&#45;&gt;c_0_91</title>
<path fill="none" stroke="black" d="M143.5,-225.35C143.5,-225.35 143.5,-183.86 143.5,-183.86"/>
<polygon fill="black" stroke="black" points="147,-183.86 143.5,-173.86 140,-183.86 147,-183.86"/>
</g>
<!-- c_0_60 -->
<g id="node2" class="node">
<title>c_0_60</title>
<g id="a_node2"><a xlink:href="c_0_60.html" xlink:title="{X₂ ∈ bool(X₁)|X₃ ∈ X₁ ∈ X₂|⇊|X₁ = Ø|X₂ = Ø|X₃ ∈ X₁}" target="_parent">
<polygon fill="#f8edd1" stroke="#7f7542" points="16.5,-210.5 16.5,-300.5 107.5,-300.5 107.5,-210.5 16.5,-210.5"/>
<text text-anchor="middle" x="62" y="-289.3" font-family="Times,serif" font-size="14.00">X₂ ∈ bool(X₁)</text>
<polyline fill="none" stroke="#7f7542" points="16.5,-285.5 107.5,-285.5 "/>
<text text-anchor="middle" x="62" y="-274.3" font-family="Times,serif" font-size="14.00">X₃ ∈ X₁ ∈ X₂</text>
<polyline fill="none" stroke="#7f7542" points="16.5,-270.5 107.5,-270.5 "/>
<text text-anchor="middle" x="62" y="-259.3" font-family="Times,serif" font-size="14.00">⇊</text>
<polyline fill="none" stroke="#7f7542" points="16.5,-255.5 107.5,-255.5 "/>
<text text-anchor="middle" x="62" y="-244.3" font-family="Times,serif" font-size="14.00">X₁ = Ø</text>
<polyline fill="none" stroke="#7f7542" points="16.5,-240.5 107.5,-240.5 "/>
<text text-anchor="middle" x="62" y="-229.3" font-family="Times,serif" font-size="14.00">X₂ = Ø</text>
<polyline fill="none" stroke="#7f7542" points="16.5,-225.5 107.5,-225.5 "/>
<text text-anchor="middle" x="62" y="-214.3" font-family="Times,serif" font-size="14.00">X₃ ∈ X₁</text>
</a>
</g>
</g>
<!-- c_0_60&#45;&gt;c_0_91 -->
<g id="edge2" class="edge">
<title>c_0_60&#45;&gt;c_0_91</title>
<path fill="none" stroke="black" d="M89,-210.32C89,-210.32 89,-183.83 89,-183.83"/>
<polygon fill="black" stroke="black" points="92.5,-183.83 89,-173.83 85.5,-183.83 92.5,-183.83"/>
</g>
<!-- c_0_102 -->
<g id="node4" class="node">
<title>c_0_102</title>
<g id="a_node4"><a xlink:href="c_0_102.html" xlink:title="{X₂ ∈ ℕ|⇊|(N₁ + X₂) ∈ ℝ}" target="_parent">
<polygon fill="#f8edd1" stroke="#7f7542" points="68,-16.5 68,-61.5 164,-61.5 164,-16.5 68,-16.5"/>
<text text-anchor="middle" x="116" y="-50.3" font-family="Times,serif" font-size="14.00">X₂ ∈ ℕ</text>
<polyline fill="none" stroke="#7f7542" points="68,-46.5 164,-46.5 "/>
<text text-anchor="middle" x="116" y="-35.3" font-family="Times,serif" font-size="14.00">⇊</text>
<polyline fill="none" stroke="#7f7542" points="68,-31.5 164,-31.5 "/>
<text text-anchor="middle" x="116" y="-20.3" font-family="Times,serif" font-size="14.00">(N₁ + X₂) ∈ ℝ</text>
</a>
</g>
</g>
<!-- c_0_91&#45;&gt;c_0_102 -->
<g id="edge3" class="edge">
<title>c_0_91&#45;&gt;c_0_102</title>
<path fill="none" stroke="black" stroke-dasharray="5,2" d="M116,-98.5C116,-98.5 116,-71.54 116,-71.54"/>
<polygon fill="black" stroke="black" points="119.5,-71.54 116,-61.54 112.5,-71.54 119.5,-71.54"/>
</g>
</g>
</svg>
