<?xml version="1.0" encoding="UTF-8" standalone="no"?>
<!DOCTYPE svg PUBLIC "-//W3C//DTD SVG 1.1//EN"
 "http://www.w3.org/Graphics/SVG/1.1/DTD/svg11.dtd">
<!-- Generated by graphviz version 5.0.0 (0)
 -->
<!-- Title: proof Pages: 1 -->
<svg width="430pt" height="370pt"
 viewBox="0.00 0.00 430.00 370.00" xmlns="http://www.w3.org/2000/svg" xmlns:xlink="http://www.w3.org/1999/xlink">
<g id="graph0" class="graph" transform="scale(1 1) rotate(0) translate(4 366)">
<title>proof</title>
<polygon fill="white" stroke="transparent" points="-4,4 -4,-366 426,-366 426,4 -4,4"/>
<g id="clust1" class="cluster">
<title>cluster_0</title>
<polygon fill="none" stroke="black" stroke-dasharray="1,5" points="8,-247 8,-354 414,-354 414,-247 8,-247"/>
</g>
<g id="clust2" class="cluster">
<title>cluster_1</title>
<polygon fill="none" stroke="black" stroke-width="2" points="59,-135 59,-227 353,-227 353,-135 59,-135"/>
</g>
<g id="clust3" class="cluster">
<title>cluster_2</title>
<polygon fill="none" stroke="black" stroke-dasharray="1,5" points="40,-8 40,-115 372,-115 372,-8 40,-8"/>
</g>
<!-- c_0_208 -->
<g id="node1" class="node">
<title>c_0_208</title>
<g id="a_node1"><a xlink:href="c_0_208.html" xlink:title="{(R₁ + 1) ∈ ℕ|(R₁ + 1) ≤ R₁|⇊|⊥}" target="_parent">
<polygon fill="#f8edd1" stroke="#7f7542" points="312,-270.5 312,-330.5 406,-330.5 406,-270.5 312,-270.5"/>
<text text-anchor="middle" x="359" y="-319.3" font-family="Times,serif" font-size="14.00">(R₁ + 1) ∈ ℕ</text>
<polyline fill="none" stroke="#7f7542" points="312,-315.5 406,-315.5 "/>
<text text-anchor="middle" x="359" y="-304.3" font-family="Times,serif" font-size="14.00">(R₁ + 1) ≤ R₁</text>
<polyline fill="none" stroke="#7f7542" points="312,-300.5 406,-300.5 "/>
<text text-anchor="middle" x="359" y="-289.3" font-family="Times,serif" font-size="14.00">⇊</text>
<polyline fill="none" stroke="#7f7542" points="312,-285.5 406,-285.5 "/>
<text text-anchor="middle" x="359" y="-274.3" font-family="Times,serif" font-size="14.00">⊥</text>
</a>
</g>
</g>
<!-- c_0_214 -->
<g id="node3" class="node">
<title>c_0_214</title>
<g id="a_node3"><a xlink:href="c_0_214.html" xlink:title="{(sup(a_1_1_pre_circ(N₁)) + 1) ∈ ℕ|ext&#45;real&#45;membered(a_1_1_pre_circ(N₁))|right_end(a_1_1_pre_circ(N₁))|⇊|(sup(a_1_1_pre_circ(N₁)) + 1) ≤ N₁}" target="_parent">
<polygon fill="#f8edd1" stroke="#7f7542" points="67,-143.5 67,-218.5 345,-218.5 345,-143.5 67,-143.5"/>
<text text-anchor="middle" x="206" y="-207.3" font-family="Times,serif" font-size="14.00">(sup(a_1_1_pre_circ(N₁)) + 1) ∈ ℕ</text>
<polyline fill="none" stroke="#7f7542" points="67,-203.5 345,-203.5 "/>
<text text-anchor="middle" x="206" y="-192.3" font-family="Times,serif" font-size="14.00">ext&#45;real&#45;membered(a_1_1_pre_circ(N₁))</text>
<polyline fill="none" stroke="#7f7542" points="67,-188.5 345,-188.5 "/>
<text text-anchor="middle" x="206" y="-177.3" font-family="Times,serif" font-size="14.00">right_end(a_1_1_pre_circ(N₁))</text>
<polyline fill="none" stroke="#7f7542" points="67,-173.5 345,-173.5 "/>
<text text-anchor="middle" x="206" y="-162.3" font-family="Times,serif" font-size="14.00">⇊</text>
<polyline fill="none" stroke="#7f7542" points="67,-158.5 345,-158.5 "/>
<text text-anchor="middle" x="206" y="-147.3" font-family="Times,serif" font-size="14.00">(sup(a_1_1_pre_circ(N₁)) + 1) ≤ N₁</text>
</a>
</g>
</g>
<!-- c_0_208&#45;&gt;c_0_214 -->
<g id="edge1" class="edge">
<title>c_0_208&#45;&gt;c_0_214</title>
<path fill="none" stroke="black" d="M328.5,-270.35C328.5,-270.35 328.5,-228.86 328.5,-228.86"/>
<polygon fill="black" stroke="black" points="332,-228.86 328.5,-218.86 325,-228.86 332,-228.86"/>
</g>
<!-- c_0_210 -->
<g id="node2" class="node">
<title>c_0_210</title>
<g id="a_node2"><a xlink:href="c_0_210.html" xlink:title="{X₁ ∈ ℕ|ext&#45;real&#45;membered(a_1_1_pre_circ(N₂))|right_end(a_1_1_pre_circ(N₂))|⇊|X₁ ≤ N₂|X₁ ≤ sup(a_1_1_pre_circ(N₂))}" target="_parent">
<polygon fill="#f8edd1" stroke="#7f7542" points="16,-255.5 16,-345.5 294,-345.5 294,-255.5 16,-255.5"/>
<text text-anchor="middle" x="155" y="-334.3" font-family="Times,serif" font-size="14.00">X₁ ∈ ℕ</text>
<polyline fill="none" stroke="#7f7542" points="16,-330.5 294,-330.5 "/>
<text text-anchor="middle" x="155" y="-319.3" font-family="Times,serif" font-size="14.00">ext&#45;real&#45;membered(a_1_1_pre_circ(N₂))</text>
<polyline fill="none" stroke="#7f7542" points="16,-315.5 294,-315.5 "/>
<text text-anchor="middle" x="155" y="-304.3" font-family="Times,serif" font-size="14.00">right_end(a_1_1_pre_circ(N₂))</text>
<polyline fill="none" stroke="#7f7542" points="16,-300.5 294,-300.5 "/>
<text text-anchor="middle" x="155" y="-289.3" font-family="Times,serif" font-size="14.00">⇊</text>
<polyline fill="none" stroke="#7f7542" points="16,-285.5 294,-285.5 "/>
<text text-anchor="middle" x="155" y="-274.3" font-family="Times,serif" font-size="14.00">X₁ ≤ N₂</text>
<polyline fill="none" stroke="#7f7542" points="16,-270.5 294,-270.5 "/>
<text text-anchor="middle" x="155" y="-259.3" font-family="Times,serif" font-size="14.00">X₁ ≤ sup(a_1_1_pre_circ(N₂))</text>
</a>
</g>
</g>
<!-- c_0_210&#45;&gt;c_0_214 -->
<g id="edge2" class="edge">
<title>c_0_210&#45;&gt;c_0_214</title>
<path fill="none" stroke="black" d="M180.5,-255.32C180.5,-255.32 180.5,-228.83 180.5,-228.83"/>
<polygon fill="black" stroke="black" points="184,-228.83 180.5,-218.83 177,-228.83 184,-228.83"/>
</g>
<!-- c_0_217 -->
<g id="node4" class="node">
<title>c_0_217</title>
<g id="a_node4"><a xlink:href="c_0_217.html" xlink:title="{(sup(a_1_1_pre_circ(skolem₁)) + 1) ∈ ℕ|a_1_1_pre_circ(skolem₁) ⊆ ℕ|ext&#45;real&#45;membered(a_1_1_pre_circ(skolem₁))|right_end(a_1_1_pre_circ(skolem₁))|⇊|⊥}" target="_parent">
<polygon fill="#fa6900" stroke="#7f7542" points="48,-16.5 48,-106.5 364,-106.5 364,-16.5 48,-16.5"/>
<text text-anchor="middle" x="206" y="-95.3" font-family="Times,serif" font-size="14.00">(sup(a_1_1_pre_circ(skolem₁)) + 1) ∈ ℕ</text>
<polyline fill="none" stroke="#7f7542" points="48,-91.5 364,-91.5 "/>
<text text-anchor="middle" x="206" y="-80.3" font-family="Times,serif" font-size="14.00">a_1_1_pre_circ(skolem₁) ⊆ ℕ</text>
<polyline fill="none" stroke="#7f7542" points="48,-76.5 364,-76.5 "/>
<text text-anchor="middle" x="206" y="-65.3" font-family="Times,serif" font-size="14.00">ext&#45;real&#45;membered(a_1_1_pre_circ(skolem₁))</text>
<polyline fill="none" stroke="#7f7542" points="48,-61.5 364,-61.5 "/>
<text text-anchor="middle" x="206" y="-50.3" font-family="Times,serif" font-size="14.00">right_end(a_1_1_pre_circ(skolem₁))</text>
<polyline fill="none" stroke="#7f7542" points="48,-46.5 364,-46.5 "/>
<text text-anchor="middle" x="206" y="-35.3" font-family="Times,serif" font-size="14.00">⇊</text>
<polyline fill="none" stroke="#7f7542" points="48,-31.5 364,-31.5 "/>
<text text-anchor="middle" x="206" y="-20.3" font-family="Times,serif" font-size="14.00">⊥</text>
</a>
</g>
</g>
<!-- c_0_214&#45;&gt;c_0_217 -->
<g id="edge3" class="edge">
<title>c_0_214&#45;&gt;c_0_217</title>
<path fill="none" stroke="black" stroke-dasharray="5,2" d="M206,-143.19C206,-143.19 206,-116.59 206,-116.59"/>
<polygon fill="black" stroke="black" points="209.5,-116.59 206,-106.59 202.5,-116.59 209.5,-116.59"/>
</g>
</g>
</svg>
