<?xml version="1.0" encoding="UTF-8" standalone="no"?>
<!DOCTYPE svg PUBLIC "-//W3C//DTD SVG 1.1//EN"
 "http://www.w3.org/Graphics/SVG/1.1/DTD/svg11.dtd">
<!-- Generated by graphviz version 5.0.0 (0)
 -->
<!-- Title: proof Pages: 1 -->
<svg width="319pt" height="160pt"
 viewBox="0.00 0.00 319.00 160.00" xmlns="http://www.w3.org/2000/svg" xmlns:xlink="http://www.w3.org/1999/xlink">
<g id="graph0" class="graph" transform="scale(1 1) rotate(0) translate(4 156)">
<title>proof</title>
<polygon fill="white" stroke="transparent" points="-4,4 -4,-156 315,-156 315,4 -4,4"/>
<g id="clust1" class="cluster">
<title>cluster_0</title>
<polygon fill="none" stroke="black" stroke-dasharray="1,5" points="154,-112 154,-144 276,-144 276,-112 154,-112"/>
</g>
<g id="clust2" class="cluster">
<title>cluster_1</title>
<polygon fill="none" stroke="black" stroke-width="2" points="184,-60 184,-92 246,-92 246,-60 184,-60"/>
</g>
<g id="clust3" class="cluster">
<title>cluster_2</title>
<polygon fill="none" stroke="black" stroke-dasharray="1,5" points="8,-8 8,-40 303,-40 303,-8 8,-8"/>
</g>
<!-- fc3_membered -->
<g id="node1" class="node">
<title>fc3_membered</title>
<g id="a_node1"><a xlink:href="http://grid01.ciirc.cvut.cz/~mptp/7.13.01_4.181.1147/html/membered.html#FC3" xlink:title="fc3_membered" target="_blank">
<polygon fill="#69d2e7" stroke="#7f7542" points="162,-120.5 162,-135.5 268,-135.5 268,-120.5 162,-120.5"/>
<text text-anchor="middle" x="215" y="-124.3" font-family="Times,serif" font-size="14.00">fc3_membered</text>
</a>
</g>
</g>
<!-- c_0_182 -->
<g id="node2" class="node">
<title>c_0_182</title>
<g id="a_node2"><a xlink:href="c_0_182.html" xlink:title="{ℝ ⊆ ℝ}" target="_parent">
<polygon fill="#f8edd1" stroke="#7f7542" points="192,-68.5 192,-83.5 238,-83.5 238,-68.5 192,-68.5"/>
<text text-anchor="middle" x="215" y="-72.3" font-family="Times,serif" font-size="14.00">ℝ ⊆ ℝ</text>
</a>
</g>
</g>
<!-- fc3_membered&#45;&gt;c_0_182 -->
<g id="edge1" class="edge">
<title>fc3_membered&#45;&gt;c_0_182</title>
<path fill="none" stroke="black" d="M215,-120.33C215,-120.33 215,-93.7 215,-93.7"/>
<polygon fill="black" stroke="black" points="218.5,-93.7 215,-83.7 211.5,-93.7 218.5,-93.7"/>
</g>
<!-- c_0_183 -->
<g id="node3" class="node">
<title>c_0_183</title>
<g id="a_node3"><a xlink:href="c_0_183.html" xlink:title="{1 ∈ ℝ}" target="_parent">
<polygon fill="#f8edd1" stroke="#7f7542" points="253.5,-16.5 253.5,-31.5 294.5,-31.5 294.5,-16.5 253.5,-16.5"/>
<text text-anchor="middle" x="274" y="-20.3" font-family="Times,serif" font-size="14.00">1 ∈ ℝ</text>
</a>
</g>
</g>
<!-- c_0_182&#45;&gt;c_0_183 -->
<g id="edge2" class="edge">
<title>c_0_182&#45;&gt;c_0_183</title>
<path fill="none" stroke="black" stroke-dasharray="5,2" d="M238.14,-76C249.49,-76 260.75,-76 260.75,-76 260.75,-76 260.75,-41.67 260.75,-41.67"/>
<polygon fill="black" stroke="black" points="264.25,-41.67 260.75,-31.67 257.25,-41.67 264.25,-41.67"/>
</g>
<!-- c_0_181 -->
<g id="node4" class="node">
<title>c_0_181</title>
<g id="a_node4"><a xlink:href="c_0_181.html" xlink:title="{0 ∈ ℝ}" target="_parent">
<polygon fill="#f8edd1" stroke="#7f7542" points="194.5,-16.5 194.5,-31.5 235.5,-31.5 235.5,-16.5 194.5,-16.5"/>
<text text-anchor="middle" x="215" y="-20.3" font-family="Times,serif" font-size="14.00">0 ∈ ℝ</text>
</a>
</g>
</g>
<!-- c_0_182&#45;&gt;c_0_181 -->
<g id="edge3" class="edge">
<title>c_0_182&#45;&gt;c_0_181</title>
<path fill="none" stroke="black" stroke-dasharray="5,2" d="M215,-68.33C215,-68.33 215,-41.7 215,-41.7"/>
<polygon fill="black" stroke="black" points="218.5,-41.7 215,-31.7 211.5,-41.7 218.5,-41.7"/>
</g>
<!-- c_0_272 -->
<g id="node5" class="node">
<title>c_0_272</title>
<g id="a_node5"><a xlink:href="c_0_272.html" xlink:title="{ext&#45;real&#45;membered(ℕ)}" target="_parent">
<polygon fill="#f8edd1" stroke="#7f7542" points="16,-16.5 16,-31.5 176,-31.5 176,-16.5 16,-16.5"/>
<text text-anchor="middle" x="96" y="-20.3" font-family="Times,serif" font-size="14.00">ext&#45;real&#45;membered(ℕ)</text>
</a>
</g>
</g>
<!-- c_0_182&#45;&gt;c_0_272 -->
<g id="edge4" class="edge">
<title>c_0_182&#45;&gt;c_0_272</title>
<path fill="none" stroke="black" stroke-dasharray="5,2" d="M191.73,-76C180.32,-76 169,-76 169,-76 169,-76 169,-41.67 169,-41.67"/>
<polygon fill="black" stroke="black" points="172.5,-41.67 169,-31.67 165.5,-41.67 172.5,-41.67"/>
</g>
</g>
</svg>
