<?xml version="1.0" encoding="UTF-8" standalone="no"?>
<!DOCTYPE svg PUBLIC "-//W3C//DTD SVG 1.1//EN"
 "http://www.w3.org/Graphics/SVG/1.1/DTD/svg11.dtd">
<!-- Generated by graphviz version 5.0.0 (0)
 -->
<!-- Title: proof Pages: 1 -->
<svg width="293pt" height="280pt"
 viewBox="0.00 0.00 293.00 280.00" xmlns="http://www.w3.org/2000/svg" xmlns:xlink="http://www.w3.org/1999/xlink">
<g id="graph0" class="graph" transform="scale(1 1) rotate(0) translate(4 276)">
<title>proof</title>
<polygon fill="white" stroke="transparent" points="-4,4 -4,-276 289,-276 289,4 -4,4"/>
<g id="clust1" class="cluster">
<title>cluster_0</title>
<polygon fill="none" stroke="black" stroke-dasharray="1,5" points="8,-187 8,-264 277,-264 277,-187 8,-187"/>
</g>
<g id="clust2" class="cluster">
<title>cluster_1</title>
<polygon fill="none" stroke="black" stroke-width="2" points="36,-90 36,-167 216,-167 216,-90 36,-90"/>
</g>
<g id="clust3" class="cluster">
<title>cluster_2</title>
<polygon fill="none" stroke="black" stroke-dasharray="1,5" points="72,-8 72,-70 180,-70 180,-8 72,-8"/>
</g>
<!-- c_0_178 -->
<g id="node1" class="node">
<title>c_0_178</title>
<g id="a_node1"><a xlink:href="c_0_178.html" xlink:title="{X₁ ∈ ℕ|⇊|X₁ ≤ N₂|in(X₁,a_1_1_pre_circ(N₂))}" target="_parent">
<polygon fill="#f8edd1" stroke="#7f7542" points="93.5,-195.5 93.5,-255.5 268.5,-255.5 268.5,-195.5 93.5,-195.5"/>
<text text-anchor="middle" x="181" y="-244.3" font-family="Times,serif" font-size="14.00">X₁ ∈ ℕ</text>
<polyline fill="none" stroke="#7f7542" points="93.5,-240.5 268.5,-240.5 "/>
<text text-anchor="middle" x="181" y="-229.3" font-family="Times,serif" font-size="14.00">⇊</text>
<polyline fill="none" stroke="#7f7542" points="93.5,-225.5 268.5,-225.5 "/>
<text text-anchor="middle" x="181" y="-214.3" font-family="Times,serif" font-size="14.00">X₁ ≤ N₂</text>
<polyline fill="none" stroke="#7f7542" points="93.5,-210.5 268.5,-210.5 "/>
<text text-anchor="middle" x="181" y="-199.3" font-family="Times,serif" font-size="14.00">in(X₁,a_1_1_pre_circ(N₂))</text>
</a>
</g>
</g>
<!-- c_0_278 -->
<g id="node3" class="node">
<title>c_0_278</title>
<g id="a_node3"><a xlink:href="c_0_278.html" xlink:title="{X₂ ∈ ℕ|a_1_1_pre_circ(N₁) = Ø|⇊|X₂ ≤ N₁}" target="_parent">
<polygon fill="#f8edd1" stroke="#7f7542" points="44,-98.5 44,-158.5 208,-158.5 208,-98.5 44,-98.5"/>
<text text-anchor="middle" x="126" y="-147.3" font-family="Times,serif" font-size="14.00">X₂ ∈ ℕ</text>
<polyline fill="none" stroke="#7f7542" points="44,-143.5 208,-143.5 "/>
<text text-anchor="middle" x="126" y="-132.3" font-family="Times,serif" font-size="14.00">a_1_1_pre_circ(N₁) = Ø</text>
<polyline fill="none" stroke="#7f7542" points="44,-128.5 208,-128.5 "/>
<text text-anchor="middle" x="126" y="-117.3" font-family="Times,serif" font-size="14.00">⇊</text>
<polyline fill="none" stroke="#7f7542" points="44,-113.5 208,-113.5 "/>
<text text-anchor="middle" x="126" y="-102.3" font-family="Times,serif" font-size="14.00">X₂ ≤ N₁</text>
</a>
</g>
</g>
<!-- c_0_178&#45;&gt;c_0_278 -->
<g id="edge1" class="edge">
<title>c_0_178&#45;&gt;c_0_278</title>
<path fill="none" stroke="black" d="M150.75,-195.34C150.75,-195.34 150.75,-168.64 150.75,-168.64"/>
<polygon fill="black" stroke="black" points="154.25,-168.64 150.75,-158.64 147.25,-168.64 154.25,-168.64"/>
</g>
<!-- c_0_165 -->
<g id="node2" class="node">
<title>c_0_165</title>
<g id="a_node2"><a xlink:href="c_0_165.html" xlink:title="{X₂ = Ø|in(X₁,X₂)|⇊|⊥}" target="_parent">
<polygon fill="#f8edd1" stroke="#7f7542" points="16.5,-195.5 16.5,-255.5 75.5,-255.5 75.5,-195.5 16.5,-195.5"/>
<text text-anchor="middle" x="46" y="-244.3" font-family="Times,serif" font-size="14.00">X₂ = Ø</text>
<polyline fill="none" stroke="#7f7542" points="16.5,-240.5 75.5,-240.5 "/>
<text text-anchor="middle" x="46" y="-229.3" font-family="Times,serif" font-size="14.00">in(X₁,X₂)</text>
<polyline fill="none" stroke="#7f7542" points="16.5,-225.5 75.5,-225.5 "/>
<text text-anchor="middle" x="46" y="-214.3" font-family="Times,serif" font-size="14.00">⇊</text>
<polyline fill="none" stroke="#7f7542" points="16.5,-210.5 75.5,-210.5 "/>
<text text-anchor="middle" x="46" y="-199.3" font-family="Times,serif" font-size="14.00">⊥</text>
</a>
</g>
</g>
<!-- c_0_165&#45;&gt;c_0_278 -->
<g id="edge2" class="edge">
<title>c_0_165&#45;&gt;c_0_278</title>
<path fill="none" stroke="black" d="M59.75,-195.34C59.75,-195.34 59.75,-168.64 59.75,-168.64"/>
<polygon fill="black" stroke="black" points="63.25,-168.64 59.75,-158.64 56.25,-168.64 63.25,-168.64"/>
</g>
<!-- c_0_280 -->
<g id="node4" class="node">
<title>c_0_280</title>
<g id="a_node4"><a xlink:href="c_0_280.html" xlink:title="{X₁ ∈ ℕ|⇊|X₁ ≤ skolem₁}" target="_parent">
<polygon fill="#fa6900" stroke="#7f7542" points="80,-16.5 80,-61.5 172,-61.5 172,-16.5 80,-16.5"/>
<text text-anchor="middle" x="126" y="-50.3" font-family="Times,serif" font-size="14.00">X₁ ∈ ℕ</text>
<polyline fill="none" stroke="#7f7542" points="80,-46.5 172,-46.5 "/>
<text text-anchor="middle" x="126" y="-35.3" font-family="Times,serif" font-size="14.00">⇊</text>
<polyline fill="none" stroke="#7f7542" points="80,-31.5 172,-31.5 "/>
<text text-anchor="middle" x="126" y="-20.3" font-family="Times,serif" font-size="14.00">X₁ ≤ skolem₁</text>
</a>
</g>
</g>
<!-- c_0_278&#45;&gt;c_0_280 -->
<g id="edge3" class="edge">
<title>c_0_278&#45;&gt;c_0_280</title>
<path fill="none" stroke="black" stroke-dasharray="5,2" d="M126,-98.2C126,-98.2 126,-71.63 126,-71.63"/>
<polygon fill="black" stroke="black" points="129.5,-71.63 126,-61.63 122.5,-71.63 129.5,-71.63"/>
</g>
</g>
</svg>
