<?xml version="1.0" encoding="UTF-8" standalone="no"?>
<!DOCTYPE svg PUBLIC "-//W3C//DTD SVG 1.1//EN"
 "http://www.w3.org/Graphics/SVG/1.1/DTD/svg11.dtd">
<!-- Generated by graphviz version 5.0.0 (0)
 -->
<!-- Title: proof Pages: 1 -->
<svg width="504pt" height="235pt"
 viewBox="0.00 0.00 504.00 235.00" xmlns="http://www.w3.org/2000/svg" xmlns:xlink="http://www.w3.org/1999/xlink">
<g id="graph0" class="graph" transform="scale(1 1) rotate(0) translate(4 231)">
<title>proof</title>
<polygon fill="white" stroke="transparent" points="-4,4 -4,-231 500,-231 500,4 -4,4"/>
<g id="clust1" class="cluster">
<title>cluster_0</title>
<polygon fill="none" stroke="black" stroke-dasharray="1,5" points="54,-187 54,-219 184,-219 184,-187 54,-187"/>
</g>
<g id="clust2" class="cluster">
<title>cluster_1</title>
<polygon fill="none" stroke="black" stroke-width="2" points="86,-135 86,-167 150,-167 150,-135 86,-135"/>
</g>
<g id="clust3" class="cluster">
<title>cluster_2</title>
<polygon fill="none" stroke="black" stroke-dasharray="1,5" points="8,-8 8,-115 488,-115 488,-8 8,-8"/>
</g>
<!-- c_0_86 -->
<g id="node1" class="node">
<title>c_0_86</title>
<g id="a_node1"><a xlink:href="c_0_86.html" xlink:title="{N₁ ∈ ℝ}" target="_parent">
<polygon fill="#f8edd1" stroke="#7f7542" points="126.5,-195.5 126.5,-210.5 175.5,-210.5 175.5,-195.5 126.5,-195.5"/>
<text text-anchor="middle" x="151" y="-199.3" font-family="Times,serif" font-size="14.00">N₁ ∈ ℝ</text>
</a>
</g>
</g>
<!-- c_0_105 -->
<g id="node3" class="node">
<title>c_0_105</title>
<g id="a_node3"><a xlink:href="c_0_105.html" xlink:title="{N₁ ∈ 𝔼}" target="_parent">
<polygon fill="#f8edd1" stroke="#7f7542" points="94,-143.5 94,-158.5 142,-158.5 142,-143.5 94,-143.5"/>
<text text-anchor="middle" x="118" y="-147.3" font-family="Times,serif" font-size="14.00">N₁ ∈ 𝔼</text>
</a>
</g>
</g>
<!-- c_0_86&#45;&gt;c_0_105 -->
<g id="edge1" class="edge">
<title>c_0_86&#45;&gt;c_0_105</title>
<path fill="none" stroke="black" d="M134.25,-195.33C134.25,-195.33 134.25,-168.7 134.25,-168.7"/>
<polygon fill="black" stroke="black" points="137.75,-168.7 134.25,-158.7 130.75,-168.7 137.75,-168.7"/>
</g>
<!-- c_0_85 -->
<g id="node2" class="node">
<title>c_0_85</title>
<g id="a_node2"><a xlink:href="c_0_85.html" xlink:title="{R₁ ∈ 𝔼}" target="_parent">
<polygon fill="#f8edd1" stroke="#7f7542" points="62,-195.5 62,-210.5 108,-210.5 108,-195.5 62,-195.5"/>
<text text-anchor="middle" x="85" y="-199.3" font-family="Times,serif" font-size="14.00">R₁ ∈ 𝔼</text>
</a>
</g>
</g>
<!-- c_0_85&#45;&gt;c_0_105 -->
<g id="edge2" class="edge">
<title>c_0_85&#45;&gt;c_0_105</title>
<path fill="none" stroke="black" d="M101,-195.33C101,-195.33 101,-168.7 101,-168.7"/>
<polygon fill="black" stroke="black" points="104.5,-168.7 101,-158.7 97.5,-168.7 104.5,-168.7"/>
</g>
<!-- c_0_217 -->
<g id="node4" class="node">
<title>c_0_217</title>
<g id="a_node4"><a xlink:href="c_0_217.html" xlink:title="{(sup(a_1_1_pre_circ(skolem₁)) + 1) ∈ ℕ|a_1_1_pre_circ(skolem₁) ⊆ ℕ|ext&#45;real&#45;membered(a_1_1_pre_circ(skolem₁))|right_end(a_1_1_pre_circ(skolem₁))|⇊|⊥}" target="_parent">
<polygon fill="#fa6900" stroke="#7f7542" points="164,-16.5 164,-106.5 480,-106.5 480,-16.5 164,-16.5"/>
<text text-anchor="middle" x="322" y="-95.3" font-family="Times,serif" font-size="14.00">(sup(a_1_1_pre_circ(skolem₁)) + 1) ∈ ℕ</text>
<polyline fill="none" stroke="#7f7542" points="164,-91.5 480,-91.5 "/>
<text text-anchor="middle" x="322" y="-80.3" font-family="Times,serif" font-size="14.00">a_1_1_pre_circ(skolem₁) ⊆ ℕ</text>
<polyline fill="none" stroke="#7f7542" points="164,-76.5 480,-76.5 "/>
<text text-anchor="middle" x="322" y="-65.3" font-family="Times,serif" font-size="14.00">ext&#45;real&#45;membered(a_1_1_pre_circ(skolem₁))</text>
<polyline fill="none" stroke="#7f7542" points="164,-61.5 480,-61.5 "/>
<text text-anchor="middle" x="322" y="-50.3" font-family="Times,serif" font-size="14.00">right_end(a_1_1_pre_circ(skolem₁))</text>
<polyline fill="none" stroke="#7f7542" points="164,-46.5 480,-46.5 "/>
<text text-anchor="middle" x="322" y="-35.3" font-family="Times,serif" font-size="14.00">⇊</text>
<polyline fill="none" stroke="#7f7542" points="164,-31.5 480,-31.5 "/>
<text text-anchor="middle" x="322" y="-20.3" font-family="Times,serif" font-size="14.00">⊥</text>
</a>
</g>
</g>
<!-- c_0_105&#45;&gt;c_0_217 -->
<g id="edge3" class="edge">
<title>c_0_105&#45;&gt;c_0_217</title>
<path fill="none" stroke="black" stroke-dasharray="5,2" d="M142.06,-151C155.57,-151 169.75,-151 169.75,-151 169.75,-151 169.75,-116.51 169.75,-116.51"/>
<polygon fill="black" stroke="black" points="173.25,-116.51 169.75,-106.51 166.25,-116.51 173.25,-116.51"/>
</g>
<!-- c_0_125 -->
<g id="node5" class="node">
<title>c_0_125</title>
<g id="a_node5"><a xlink:href="c_0_125.html" xlink:title="{N₁ ≤ N₂|N₂ ≤ N₁}" target="_parent">
<polygon fill="#f8edd1" stroke="#7f7542" points="90,-46.5 90,-76.5 146,-76.5 146,-46.5 90,-46.5"/>
<text text-anchor="middle" x="118" y="-65.3" font-family="Times,serif" font-size="14.00">N₁ ≤ N₂</text>
<polyline fill="none" stroke="#7f7542" points="90,-61.5 146,-61.5 "/>
<text text-anchor="middle" x="118" y="-50.3" font-family="Times,serif" font-size="14.00">N₂ ≤ N₁</text>
</a>
</g>
</g>
<!-- c_0_105&#45;&gt;c_0_125 -->
<g id="edge4" class="edge">
<title>c_0_105&#45;&gt;c_0_125</title>
<path fill="none" stroke="black" stroke-dasharray="5,2" d="M118,-143.37C118,-143.37 118,-86.79 118,-86.79"/>
<polygon fill="black" stroke="black" points="121.5,-86.79 118,-76.79 114.5,-86.79 121.5,-86.79"/>
</g>
<!-- c_0_114 -->
<g id="node6" class="node">
<title>c_0_114</title>
<g id="a_node6"><a xlink:href="c_0_114.html" xlink:title="{E₁ ≤ N₂|N₂ ≤ E₁}" target="_parent">
<polygon fill="#f8edd1" stroke="#7f7542" points="16.5,-46.5 16.5,-76.5 71.5,-76.5 71.5,-46.5 16.5,-46.5"/>
<text text-anchor="middle" x="44" y="-65.3" font-family="Times,serif" font-size="14.00">E₁ ≤ N₂</text>
<polyline fill="none" stroke="#7f7542" points="16.5,-61.5 71.5,-61.5 "/>
<text text-anchor="middle" x="44" y="-50.3" font-family="Times,serif" font-size="14.00">N₂ ≤ E₁</text>
</a>
</g>
</g>
<!-- c_0_105&#45;&gt;c_0_114 -->
<g id="edge5" class="edge">
<title>c_0_105&#45;&gt;c_0_114</title>
<path fill="none" stroke="black" stroke-dasharray="5,2" d="M93.88,-151C80.58,-151 66.75,-151 66.75,-151 66.75,-151 66.75,-86.68 66.75,-86.68"/>
<polygon fill="black" stroke="black" points="70.25,-86.68 66.75,-76.68 63.25,-86.68 70.25,-86.68"/>
</g>
</g>
</svg>
