<?xml version="1.0" encoding="UTF-8" standalone="no"?>
<!DOCTYPE svg PUBLIC "-//W3C//DTD SVG 1.1//EN"
 "http://www.w3.org/Graphics/SVG/1.1/DTD/svg11.dtd">
<!-- Generated by graphviz version 5.0.0 (0)
 -->
<!-- Title: proof Pages: 1 -->
<svg width="519pt" height="138pt"
 viewBox="0.00 0.00 519.00 138.00" xmlns="http://www.w3.org/2000/svg" xmlns:xlink="http://www.w3.org/1999/xlink">
<g id="graph0" class="graph" transform="scale(1 1) rotate(0) translate(4 134)">
<title>proof</title>
<polygon fill="white" stroke="transparent" points="-4,4 -4,-134 515,-134 515,4 -4,4"/>
<g id="clust1" class="cluster">
<title>cluster_0</title>
<polygon fill="none" stroke="black" stroke-dasharray="1,5" points="8,-60 8,-122 503,-122 503,-60 8,-60"/>
</g>
<g id="clust2" class="cluster">
<title>cluster_1</title>
<polygon fill="none" stroke="black" stroke-width="2" points="244,-8 244,-40 274,-40 274,-8 244,-8"/>
</g>
<!-- c_0_86 -->
<g id="node1" class="node">
<title>c_0_86</title>
<g id="a_node1"><a xlink:href="c_0_86.html" xlink:title="{N₁ ∈ ℝ}" target="_parent">
<polygon fill="#f8edd1" stroke="#7f7542" points="445.5,-83.5 445.5,-98.5 494.5,-98.5 494.5,-83.5 445.5,-83.5"/>
<text text-anchor="middle" x="470" y="-87.3" font-family="Times,serif" font-size="14.00">N₁ ∈ ℝ</text>
</a>
</g>
</g>
<!-- c_0_283 -->
<g id="node6" class="node">
<title>c_0_283</title>
<g id="a_node6"><a xlink:href="c_0_283.html" xlink:title="⊥" target="_parent">
<polygon fill="#fa6900" stroke="#7f7542" points="252,-16.5 252,-31.5 266,-31.5 266,-16.5 252,-16.5"/>
<text text-anchor="middle" x="259" y="-20.3" font-family="Times,serif" font-size="14.00">⊥</text>
</a>
</g>
</g>
<!-- c_0_86&#45;&gt;c_0_283 -->
<g id="edge1" class="edge">
<title>c_0_86&#45;&gt;c_0_283</title>
<path fill="none" stroke="black" d="M470,-83.31C470,-65.72 470,-24 470,-24 470,-24 276.02,-24 276.02,-24"/>
<polygon fill="black" stroke="black" points="276.02,-20.5 266.02,-24 276.02,-27.5 276.02,-20.5"/>
</g>
<!-- c_0_281 -->
<g id="node2" class="node">
<title>c_0_281</title>
<g id="a_node2"><a xlink:href="c_0_281.html" xlink:title="{(skolem₁ + 1) ∈ ℕ|⇊|⊥}" target="_parent">
<polygon fill="#fa6900" stroke="#7f7542" points="298.5,-68.5 298.5,-113.5 427.5,-113.5 427.5,-68.5 298.5,-68.5"/>
<text text-anchor="middle" x="363" y="-102.3" font-family="Times,serif" font-size="14.00">(skolem₁ + 1) ∈ ℕ</text>
<polyline fill="none" stroke="#7f7542" points="298.5,-98.5 427.5,-98.5 "/>
<text text-anchor="middle" x="363" y="-87.3" font-family="Times,serif" font-size="14.00">⇊</text>
<polyline fill="none" stroke="#7f7542" points="298.5,-83.5 427.5,-83.5 "/>
<text text-anchor="middle" x="363" y="-72.3" font-family="Times,serif" font-size="14.00">⊥</text>
</a>
</g>
</g>
<!-- c_0_281&#45;&gt;c_0_283 -->
<g id="edge2" class="edge">
<title>c_0_281&#45;&gt;c_0_283</title>
<path fill="none" stroke="black" d="M298.5,-78C278.93,-78 262.5,-78 262.5,-78 262.5,-78 262.5,-41.51 262.5,-41.51"/>
<polygon fill="black" stroke="black" points="266,-41.51 262.5,-31.51 259,-41.51 266,-41.51"/>
</g>
<!-- c_0_224 -->
<g id="node3" class="node">
<title>c_0_224</title>
<g id="a_node3"><a xlink:href="c_0_224.html" xlink:title="{1 ∈ ℕ}" target="_parent">
<polygon fill="#f8edd1" stroke="#7f7542" points="238,-83.5 238,-98.5 280,-98.5 280,-83.5 238,-83.5"/>
<text text-anchor="middle" x="259" y="-87.3" font-family="Times,serif" font-size="14.00">1 ∈ ℕ</text>
</a>
</g>
</g>
<!-- c_0_224&#45;&gt;c_0_283 -->
<g id="edge3" class="edge">
<title>c_0_224&#45;&gt;c_0_283</title>
<path fill="none" stroke="black" d="M259,-83.31C259,-83.31 259,-41.6 259,-41.6"/>
<polygon fill="black" stroke="black" points="262.5,-41.6 259,-31.6 255.5,-41.6 262.5,-41.6"/>
</g>
<!-- c_0_223 -->
<g id="node4" class="node">
<title>c_0_223</title>
<g id="a_node4"><a xlink:href="c_0_223.html" xlink:title="{X₂ ∈ ℕ|⇊|(N₁ + X₂) ∈ ℕ}" target="_parent">
<polygon fill="#f8edd1" stroke="#7f7542" points="122.5,-68.5 122.5,-113.5 219.5,-113.5 219.5,-68.5 122.5,-68.5"/>
<text text-anchor="middle" x="171" y="-102.3" font-family="Times,serif" font-size="14.00">X₂ ∈ ℕ</text>
<polyline fill="none" stroke="#7f7542" points="122.5,-98.5 219.5,-98.5 "/>
<text text-anchor="middle" x="171" y="-87.3" font-family="Times,serif" font-size="14.00">⇊</text>
<polyline fill="none" stroke="#7f7542" points="122.5,-83.5 219.5,-83.5 "/>
<text text-anchor="middle" x="171" y="-72.3" font-family="Times,serif" font-size="14.00">(N₁ + X₂) ∈ ℕ</text>
</a>
</g>
</g>
<!-- c_0_223&#45;&gt;c_0_283 -->
<g id="edge4" class="edge">
<title>c_0_223&#45;&gt;c_0_283</title>
<path fill="none" stroke="black" d="M219.66,-73C238.45,-73 255.5,-73 255.5,-73 255.5,-73 255.5,-41.66 255.5,-41.66"/>
<polygon fill="black" stroke="black" points="259,-41.66 255.5,-31.66 252,-41.66 259,-41.66"/>
</g>
<!-- c_0_143 -->
<g id="node5" class="node">
<title>c_0_143</title>
<g id="a_node5"><a xlink:href="c_0_143.html" xlink:title="{skolem₁ ∈ ℕ}" target="_parent">
<polygon fill="#fa6900" stroke="#7f7542" points="16,-83.5 16,-98.5 104,-98.5 104,-83.5 16,-83.5"/>
<text text-anchor="middle" x="60" y="-87.3" font-family="Times,serif" font-size="14.00">skolem₁ ∈ ℕ</text>
</a>
</g>
</g>
<!-- c_0_143&#45;&gt;c_0_283 -->
<g id="edge5" class="edge">
<title>c_0_143&#45;&gt;c_0_283</title>
<path fill="none" stroke="black" d="M60,-83.31C60,-65.72 60,-24 60,-24 60,-24 241.92,-24 241.92,-24"/>
<polygon fill="black" stroke="black" points="241.92,-27.5 251.92,-24 241.92,-20.5 241.92,-27.5"/>
</g>
</g>
</svg>
