<?xml version="1.0" encoding="UTF-8" standalone="no"?>
<!DOCTYPE svg PUBLIC "-//W3C//DTD SVG 1.1//EN"
 "http://www.w3.org/Graphics/SVG/1.1/DTD/svg11.dtd">
<!-- Generated by graphviz version 5.0.0 (0)
 -->
<!-- Title: proof Pages: 1 -->
<svg width="236pt" height="123pt"
 viewBox="0.00 0.00 236.00 123.00" xmlns="http://www.w3.org/2000/svg" xmlns:xlink="http://www.w3.org/1999/xlink">
<g id="graph0" class="graph" transform="scale(1 1) rotate(0) translate(4 119)">
<title>proof</title>
<polygon fill="white" stroke="transparent" points="-4,4 -4,-119 232,-119 232,4 -4,4"/>
<g id="clust1" class="cluster">
<title>cluster_1</title>
<polygon fill="none" stroke="black" stroke-width="2" points="8,-75 8,-107 220,-107 220,-75 8,-75"/>
</g>
<g id="clust2" class="cluster">
<title>cluster_2</title>
<polygon fill="none" stroke="black" stroke-dasharray="1,5" points="79,-8 79,-55 149,-55 149,-8 79,-8"/>
</g>
<!-- connectedness_r1_xxreal_0 -->
<g id="node1" class="node">
<title>connectedness_r1_xxreal_0</title>
<g id="a_node1"><a xlink:href="http://grid01.ciirc.cvut.cz/~mptp/7.13.01_4.181.1147/html/xxreal_0.html#R1" xlink:title="connectedness_r1_xxreal_0" target="_blank">
<polygon fill="#69d2e7" stroke="#7f7542" points="16.5,-83.5 16.5,-98.5 211.5,-98.5 211.5,-83.5 16.5,-83.5"/>
<text text-anchor="middle" x="114" y="-87.3" font-family="Times,serif" font-size="14.00">connectedness_r1_xxreal_0</text>
</a>
</g>
</g>
<!-- c_0_96 -->
<g id="node2" class="node">
<title>c_0_96</title>
<g id="a_node2"><a xlink:href="c_0_96.html" xlink:title="{E₁ ≤ E₂|E₂ ≤ E₁}" target="_parent">
<polygon fill="#f8edd1" stroke="#7f7542" points="87.5,-16.5 87.5,-46.5 140.5,-46.5 140.5,-16.5 87.5,-16.5"/>
<text text-anchor="middle" x="114" y="-35.3" font-family="Times,serif" font-size="14.00">E₁ ≤ E₂</text>
<polyline fill="none" stroke="#7f7542" points="87.5,-31.5 140.5,-31.5 "/>
<text text-anchor="middle" x="114" y="-20.3" font-family="Times,serif" font-size="14.00">E₂ ≤ E₁</text>
</a>
</g>
</g>
<!-- connectedness_r1_xxreal_0&#45;&gt;c_0_96 -->
<g id="edge1" class="edge">
<title>connectedness_r1_xxreal_0&#45;&gt;c_0_96</title>
<path fill="none" stroke="black" stroke-dasharray="5,2" d="M114,-83.22C114,-83.22 114,-56.85 114,-56.85"/>
<polygon fill="black" stroke="black" points="117.5,-56.85 114,-46.85 110.5,-56.85 117.5,-56.85"/>
</g>
</g>
</svg>
