<?xml version="1.0" encoding="UTF-8" standalone="no"?>
<!DOCTYPE svg PUBLIC "-//W3C//DTD SVG 1.1//EN"
 "http://www.w3.org/Graphics/SVG/1.1/DTD/svg11.dtd">
<!-- Generated by graphviz version 5.0.0 (0)
 -->
<!-- Title: proof Pages: 1 -->
<svg width="332pt" height="76pt"
 viewBox="0.00 0.00 331.50 76.00" xmlns="http://www.w3.org/2000/svg" xmlns:xlink="http://www.w3.org/1999/xlink">
<g id="graph0" class="graph" transform="scale(1 1) rotate(0) translate(4 72)">
<title>proof</title>
<polygon fill="white" stroke="transparent" points="-4,4 -4,-72 327.5,-72 327.5,4 -4,4"/>
<!-- t23_pre_circ -->
<g id="node1" class="node">
<title>t23_pre_circ</title>
<g id="a_node1"><a xlink:href="http://grid01.ciirc.cvut.cz/~mptp/7.13.01_4.181.1147/html/pre_circ.html#T23" xlink:title="t23_pre_circ" target="_blank">
<polygon fill="#fa6900" stroke="#7f7542" points="85,-52.5 85,-67.5 173,-67.5 173,-52.5 85,-52.5"/>
<text text-anchor="middle" x="129" y="-56.3" font-family="Times,serif" font-size="14.00">t23_pre_circ</text>
</a>
</g>
</g>
<!-- c_0_143 -->
<g id="node2" class="node">
<title>c_0_143</title>
<g id="a_node2"><a xlink:href="c_0_143.html" xlink:title="{skolem₁ ∈ ℕ}" target="_parent">
<polygon fill="#fa6900" stroke="#7f7542" points="0,-0.5 0,-15.5 88,-15.5 88,-0.5 0,-0.5"/>
<text text-anchor="middle" x="44" y="-4.3" font-family="Times,serif" font-size="14.00">skolem₁ ∈ ℕ</text>
</a>
</g>
</g>
<!-- t23_pre_circ&#45;&gt;c_0_143 -->
<g id="edge1" class="edge">
<title>t23_pre_circ&#45;&gt;c_0_143</title>
<path fill="none" stroke="black" d="M97.25,-52.33C97.25,-37.86 97.25,-8 97.25,-8 97.25,-8 96.37,-8 96.37,-8"/>
<polygon fill="black" stroke="black" points="98.46,-4.5 88.46,-8 98.46,-11.5 98.46,-4.5"/>
</g>
<!-- c_0_251 -->
<g id="node3" class="node">
<title>c_0_251</title>
<g id="a_node3"><a xlink:href="c_0_251.html" xlink:title="{finite(a_1_1_pre_circ(skolem₁))}" target="_parent">
<polygon fill="#fa6900" stroke="#7f7542" points="106.5,-0.5 106.5,-15.5 323.5,-15.5 323.5,-0.5 106.5,-0.5"/>
<text text-anchor="middle" x="215" y="-4.3" font-family="Times,serif" font-size="14.00">finite(a_1_1_pre_circ(skolem₁))</text>
</a>
</g>
</g>
<!-- t23_pre_circ&#45;&gt;c_0_251 -->
<g id="edge2" class="edge">
<title>t23_pre_circ&#45;&gt;c_0_251</title>
<path fill="none" stroke="black" d="M139.75,-52.33C139.75,-52.33 139.75,-25.7 139.75,-25.7"/>
<polygon fill="black" stroke="black" points="143.25,-25.7 139.75,-15.7 136.25,-25.7 143.25,-25.7"/>
</g>
</g>
</svg>
