<?xml version="1.0" encoding="UTF-8" standalone="no"?>
<!DOCTYPE svg PUBLIC "-//W3C//DTD SVG 1.1//EN"
 "http://www.w3.org/Graphics/SVG/1.1/DTD/svg11.dtd">
<!-- Generated by graphviz version 5.0.0 (0)
 -->
<!-- Title: proof Pages: 1 -->
<svg width="122pt" height="235pt"
 viewBox="0.00 0.00 122.00 235.00" xmlns="http://www.w3.org/2000/svg" xmlns:xlink="http://www.w3.org/1999/xlink">
<g id="graph0" class="graph" transform="scale(1 1) rotate(0) translate(4 231)">
<title>proof</title>
<g id="clust1" class="cluster">
<title>cluster_0</title>
<polygon fill="transparent" stroke="black" stroke-dasharray="1,5" points="9,-187 9,-219 105,-219 105,-187 9,-187"/>
</g>
<g id="clust2" class="cluster">
<title>cluster_1</title>
<polygon fill="transparent" stroke="black" stroke-width="2" points="17,-105 17,-167 97,-167 97,-105 17,-105"/>
</g>
<g id="clust3" class="cluster">
<title>cluster_2</title>
<polygon fill="transparent" stroke="black" stroke-dasharray="1,5" points="8,-8 8,-85 106,-85 106,-8 8,-8"/>
</g>
<!-- cc4_card_1 -->
<g id="node1" class="node">
<title>cc4_card_1</title>
<g id="a_node1"><a xlink:href="cc4_card_1.html" xlink:title="cc4_card_1" target="_parent">
<polygon fill="#69d2e7" stroke="#7f7542" points="17.5,-195.5 17.5,-210.5 96.5,-210.5 96.5,-195.5 17.5,-195.5"/>
<text text-anchor="middle" x="57" y="-199.3" font-family="Times,serif" font-size="14.00">cc4_card_1</text>
</a>
</g>
</g>
<!-- c_0_178 -->
<g id="node2" class="node">
<title>c_0_178</title>
<g id="a_node2"><a xlink:href="c_0_178.html" xlink:title="{X₁ ∈ ω|⇊|finite(X₁)}" target="_parent">
<polygon fill="#f8edd1" stroke="#7f7542" points="25.5,-113.5 25.5,-158.5 88.5,-158.5 88.5,-113.5 25.5,-113.5"/>
<text text-anchor="middle" x="57" y="-147.3" font-family="Times,serif" font-size="14.00">X₁ ∈ ω</text>
<polyline fill="none" stroke="#7f7542" points="25.5,-143.5 88.5,-143.5 "/>
<text text-anchor="middle" x="57" y="-132.3" font-family="Times,serif" font-size="14.00">⇊</text>
<polyline fill="none" stroke="#7f7542" points="25.5,-128.5 88.5,-128.5 "/>
<text text-anchor="middle" x="57" y="-117.3" font-family="Times,serif" font-size="14.00">finite(X₁)</text>
</a>
</g>
</g>
<!-- cc4_card_1&#45;&gt;c_0_178 -->
<g id="edge1" class="edge">
<title>cc4_card_1&#45;&gt;c_0_178</title>
<path fill="none" stroke="black" d="M57,-195.31C57,-195.31 57,-168.76 57,-168.76"/>
<polygon fill="black" stroke="black" points="60.5,-168.76 57,-158.76 53.5,-168.76 60.5,-168.76"/>
</g>
<!-- c_0_214 -->
<g id="node3" class="node">
<title>c_0_214</title>
<g id="a_node3"><a xlink:href="c_0_214.html" xlink:title="{X₁ ∪ X₂ ∈ ω|\|X₁\| = ω|⇊|⊥}" target="_parent">
<polygon fill="#f8edd1" stroke="#7f7542" points="16,-16.5 16,-76.5 98,-76.5 98,-16.5 16,-16.5"/>
<text text-anchor="middle" x="57" y="-65.3" font-family="Times,serif" font-size="14.00">X₁ ∪ X₂ ∈ ω</text>
<polyline fill="none" stroke="#7f7542" points="16,-61.5 98,-61.5 "/>
<text text-anchor="middle" x="57" y="-50.3" font-family="Times,serif" font-size="14.00">|X₁| = ω</text>
<polyline fill="none" stroke="#7f7542" points="16,-46.5 98,-46.5 "/>
<text text-anchor="middle" x="57" y="-35.3" font-family="Times,serif" font-size="14.00">⇊</text>
<polyline fill="none" stroke="#7f7542" points="16,-31.5 98,-31.5 "/>
<text text-anchor="middle" x="57" y="-20.3" font-family="Times,serif" font-size="14.00">⊥</text>
</a>
</g>
</g>
<!-- c_0_178&#45;&gt;c_0_214 -->
<g id="edge2" class="edge">
<title>c_0_178&#45;&gt;c_0_214</title>
<path fill="none" stroke="black" stroke-dasharray="5,2" d="M57,-113.42C57,-113.42 57,-86.52 57,-86.52"/>
<polygon fill="black" stroke="black" points="60.5,-86.52 57,-76.52 53.5,-86.52 60.5,-86.52"/>
</g>
</g>
</svg>
