<?xml version="1.0" encoding="UTF-8" standalone="no"?>
<!DOCTYPE svg PUBLIC "-//W3C//DTD SVG 1.1//EN"
 "http://www.w3.org/Graphics/SVG/1.1/DTD/svg11.dtd">
<!-- Generated by graphviz version 5.0.0 (0)
 -->
<!-- Title: proof Pages: 1 -->
<svg width="128pt" height="235pt"
 viewBox="0.00 0.00 128.00 235.00" xmlns="http://www.w3.org/2000/svg" xmlns:xlink="http://www.w3.org/1999/xlink">
<g id="graph0" class="graph" transform="scale(1 1) rotate(0) translate(4 231)">
<title>proof</title>
<g id="clust1" class="cluster">
<title>cluster_0</title>
<polygon fill="transparent" stroke="black" stroke-dasharray="1,5" points="17,-187 17,-219 103,-219 103,-187 17,-187"/>
</g>
<g id="clust2" class="cluster">
<title>cluster_1</title>
<polygon fill="transparent" stroke="black" stroke-width="2" points="27,-90 27,-167 93,-167 93,-90 27,-90"/>
</g>
<g id="clust3" class="cluster">
<title>cluster_2</title>
<polygon fill="transparent" stroke="black" stroke-dasharray="1,5" points="8,-8 8,-70 112,-70 112,-8 8,-8"/>
</g>
<!-- t2_subset -->
<g id="node1" class="node">
<title>t2_subset</title>
<g id="a_node1"><a xlink:href="t2_subset.html" xlink:title="t2_subset" target="_parent">
<polygon fill="#69d2e7" stroke="#7f7542" points="25,-195.5 25,-210.5 95,-210.5 95,-195.5 25,-195.5"/>
<text text-anchor="middle" x="60" y="-199.3" font-family="Times,serif" font-size="14.00">t2_subset</text>
</a>
</g>
</g>
<!-- c_0_76 -->
<g id="node2" class="node">
<title>c_0_76</title>
<g id="a_node2"><a xlink:href="c_0_76.html" xlink:title="{X₁ ∈ X₂|⇊|X₁ ∈ X₂|X₂ = Ø}" target="_parent">
<polygon fill="#f8edd1" stroke="#7f7542" points="35,-98.5 35,-158.5 85,-158.5 85,-98.5 35,-98.5"/>
<text text-anchor="middle" x="60" y="-147.3" font-family="Times,serif" font-size="14.00">X₁ ∈ X₂</text>
<polyline fill="none" stroke="#7f7542" points="35,-143.5 85,-143.5 "/>
<text text-anchor="middle" x="60" y="-132.3" font-family="Times,serif" font-size="14.00">⇊</text>
<polyline fill="none" stroke="#7f7542" points="35,-128.5 85,-128.5 "/>
<text text-anchor="middle" x="60" y="-117.3" font-family="Times,serif" font-size="14.00">X₁ ∈ X₂</text>
<polyline fill="none" stroke="#7f7542" points="35,-113.5 85,-113.5 "/>
<text text-anchor="middle" x="60" y="-102.3" font-family="Times,serif" font-size="14.00">X₂ = Ø</text>
</a>
</g>
</g>
<!-- t2_subset&#45;&gt;c_0_76 -->
<g id="edge1" class="edge">
<title>t2_subset&#45;&gt;c_0_76</title>
<path fill="none" stroke="black" d="M60,-195.31C60,-195.31 60,-168.51 60,-168.51"/>
<polygon fill="black" stroke="black" points="63.5,-168.51 60,-158.51 56.5,-168.51 63.5,-168.51"/>
</g>
<!-- c_0_77 -->
<g id="node3" class="node">
<title>c_0_77</title>
<g id="a_node3"><a xlink:href="c_0_77.html" xlink:title="{finite(X₁)|⇊|card(X₁) ∈ ω}" target="_parent">
<polygon fill="#f8edd1" stroke="#7f7542" points="16,-16.5 16,-61.5 104,-61.5 104,-16.5 16,-16.5"/>
<text text-anchor="middle" x="60" y="-50.3" font-family="Times,serif" font-size="14.00">finite(X₁)</text>
<polyline fill="none" stroke="#7f7542" points="16,-46.5 104,-46.5 "/>
<text text-anchor="middle" x="60" y="-35.3" font-family="Times,serif" font-size="14.00">⇊</text>
<polyline fill="none" stroke="#7f7542" points="16,-31.5 104,-31.5 "/>
<text text-anchor="middle" x="60" y="-20.3" font-family="Times,serif" font-size="14.00">card(X₁) ∈ ω</text>
</a>
</g>
</g>
<!-- c_0_76&#45;&gt;c_0_77 -->
<g id="edge2" class="edge">
<title>c_0_76&#45;&gt;c_0_77</title>
<path fill="none" stroke="black" stroke-dasharray="5,2" d="M60,-98.2C60,-98.2 60,-71.63 60,-71.63"/>
<polygon fill="black" stroke="black" points="63.5,-71.63 60,-61.63 56.5,-71.63 63.5,-71.63"/>
</g>
</g>
</svg>
