<?xml version="1.0" encoding="UTF-8" standalone="no"?>
<!DOCTYPE svg PUBLIC "-//W3C//DTD SVG 1.1//EN"
 "http://www.w3.org/Graphics/SVG/1.1/DTD/svg11.dtd">
<!-- Generated by graphviz version 5.0.0 (0)
 -->
<!-- Title: proof Pages: 1 -->
<svg width="210pt" height="205pt"
 viewBox="0.00 0.00 210.00 205.00" xmlns="http://www.w3.org/2000/svg" xmlns:xlink="http://www.w3.org/1999/xlink">
<g id="graph0" class="graph" transform="scale(1 1) rotate(0) translate(4 201)">
<title>proof</title>
<g id="clust1" class="cluster">
<title>cluster_0</title>
<polygon fill="transparent" stroke="black" stroke-dasharray="1,5" points="8,-142 8,-189 194,-189 194,-142 8,-142"/>
</g>
<g id="clust2" class="cluster">
<title>cluster_1</title>
<polygon fill="transparent" stroke="black" stroke-width="2" points="49,-75 49,-122 147,-122 147,-75 49,-75"/>
</g>
<g id="clust3" class="cluster">
<title>cluster_2</title>
<polygon fill="transparent" stroke="black" stroke-dasharray="1,5" points="49,-8 49,-55 147,-55 147,-8 49,-8"/>
</g>
<!-- c_0_72 -->
<g id="node1" class="node">
<title>c_0_72</title>
<g id="a_node1"><a xlink:href="c_0_72.html" xlink:title="{finite(cf(κ₁))|ω c= cf(κ₁)}" target="_vizar">
<polygon fill="#f8edd1" stroke="#7f7542" points="100.5,-150.5 100.5,-180.5 185.5,-180.5 185.5,-150.5 100.5,-150.5"/>
<text text-anchor="middle" x="143" y="-169.3" font-family="Times,serif" font-size="14.00">finite(cf(κ₁))</text>
<polyline fill="none" stroke="#7f7542" points="100.5,-165.5 185.5,-165.5 "/>
<text text-anchor="middle" x="143" y="-154.3" font-family="Times,serif" font-size="14.00">ω c= cf(κ₁)</text>
</a>
</g>
</g>
<!-- c_0_86 -->
<g id="node3" class="node">
<title>c_0_86</title>
<g id="a_node3"><a xlink:href="c_0_86.html" xlink:title="{finite(cf(ω))|ω c= cf(ω)}" target="_vizar">
<polygon fill="#f8edd1" stroke="#7f7542" points="57,-83.5 57,-113.5 139,-113.5 139,-83.5 57,-83.5"/>
<text text-anchor="middle" x="98" y="-102.3" font-family="Times,serif" font-size="14.00">finite(cf(ω))</text>
<polyline fill="none" stroke="#7f7542" points="57,-98.5 139,-98.5 "/>
<text text-anchor="middle" x="98" y="-87.3" font-family="Times,serif" font-size="14.00">ω c= cf(ω)</text>
</a>
</g>
</g>
<!-- c_0_72&#45;&gt;c_0_86 -->
<g id="edge1" class="edge">
<title>c_0_72&#45;&gt;c_0_86</title>
<path fill="none" stroke="black" d="M119.75,-150.3C119.75,-150.3 119.75,-123.64 119.75,-123.64"/>
<polygon fill="black" stroke="black" points="123.25,-123.64 119.75,-113.64 116.25,-123.64 123.25,-123.64"/>
</g>
<!-- c_0_52 -->
<g id="node2" class="node">
<title>c_0_52</title>
<g id="a_node2"><a xlink:href="c_0_52.html" xlink:title="{ω ∈ Card}" target="_vizar">
<polygon fill="#f8edd1" stroke="#7f7542" points="16,-158 16,-173 82,-173 82,-158 16,-158"/>
<text text-anchor="middle" x="49" y="-161.8" font-family="Times,serif" font-size="14.00">ω ∈ Card</text>
</a>
</g>
</g>
<!-- c_0_52&#45;&gt;c_0_86 -->
<g id="edge2" class="edge">
<title>c_0_52&#45;&gt;c_0_86</title>
<path fill="none" stroke="black" d="M69.5,-157.81C69.5,-157.81 69.5,-123.67 69.5,-123.67"/>
<polygon fill="black" stroke="black" points="73,-123.67 69.5,-113.67 66,-123.67 73,-123.67"/>
</g>
<!-- c_0_99 -->
<g id="node4" class="node">
<title>c_0_99</title>
<g id="a_node4"><a xlink:href="c_0_99.html" xlink:title="{finite(cf(ω))|ω ∈ cf(ω)}" target="_vizar">
<polygon fill="#f8edd1" stroke="#7f7542" points="57,-16.5 57,-46.5 139,-46.5 139,-16.5 57,-16.5"/>
<text text-anchor="middle" x="98" y="-35.3" font-family="Times,serif" font-size="14.00">finite(cf(ω))</text>
<polyline fill="none" stroke="#7f7542" points="57,-31.5 139,-31.5 "/>
<text text-anchor="middle" x="98" y="-20.3" font-family="Times,serif" font-size="14.00">ω ∈ cf(ω)</text>
</a>
</g>
</g>
<!-- c_0_86&#45;&gt;c_0_99 -->
<g id="edge3" class="edge">
<title>c_0_86&#45;&gt;c_0_99</title>
<path fill="none" stroke="black" stroke-dasharray="5,2" d="M98,-83.3C98,-83.3 98,-56.64 98,-56.64"/>
<polygon fill="black" stroke="black" points="101.5,-56.64 98,-46.64 94.5,-56.64 101.5,-56.64"/>
</g>
</g>
</svg>
