<?xml version="1.0" encoding="UTF-8" standalone="no"?>
<!DOCTYPE svg PUBLIC "-//W3C//DTD SVG 1.1//EN"
 "http://www.w3.org/Graphics/SVG/1.1/DTD/svg11.dtd">
<!-- Generated by graphviz version 5.0.0 (0)
 -->
<!-- Title: proof Pages: 1 -->
<svg width="210pt" height="205pt"
 viewBox="0.00 0.00 210.00 205.00" xmlns="http://www.w3.org/2000/svg" xmlns:xlink="http://www.w3.org/1999/xlink">
<g id="graph0" class="graph" transform="scale(1 1) rotate(0) translate(4 201)">
<title>proof</title>
<g id="clust1" class="cluster">
<title>cluster_0</title>
<polygon fill="transparent" stroke="black" stroke-dasharray="1,5" points="8,-142 8,-189 194,-189 194,-142 8,-142"/>
</g>
<g id="clust2" class="cluster">
<title>cluster_1</title>
<polygon fill="transparent" stroke="black" stroke-width="2" points="53,-75 53,-122 151,-122 151,-75 53,-75"/>
</g>
<g id="clust3" class="cluster">
<title>cluster_2</title>
<polygon fill="transparent" stroke="black" stroke-dasharray="1,5" points="53,-8 53,-55 151,-55 151,-8 53,-8"/>
</g>
<!-- c_0_52 -->
<g id="node1" class="node">
<title>c_0_52</title>
<g id="a_node1"><a xlink:href="c_0_52.html" xlink:title="{ω ∈ Card}" target="_parent">
<polygon fill="#f8edd1" stroke="#7f7542" points="120,-158 120,-173 186,-173 186,-158 120,-158"/>
<text text-anchor="middle" x="153" y="-161.8" font-family="Times,serif" font-size="14.00">ω ∈ Card</text>
</a>
</g>
</g>
<!-- c_0_86 -->
<g id="node3" class="node">
<title>c_0_86</title>
<g id="a_node3"><a xlink:href="c_0_86.html" xlink:title="{finite(cf(ω))|ω c= cf(ω)}" target="_parent">
<polygon fill="#f8edd1" stroke="#7f7542" points="61,-83.5 61,-113.5 143,-113.5 143,-83.5 61,-83.5"/>
<text text-anchor="middle" x="102" y="-102.3" font-family="Times,serif" font-size="14.00">finite(cf(ω))</text>
<polyline fill="none" stroke="#7f7542" points="61,-98.5 143,-98.5 "/>
<text text-anchor="middle" x="102" y="-87.3" font-family="Times,serif" font-size="14.00">ω c= cf(ω)</text>
</a>
</g>
</g>
<!-- c_0_52&#45;&gt;c_0_86 -->
<g id="edge1" class="edge">
<title>c_0_52&#45;&gt;c_0_86</title>
<path fill="none" stroke="black" d="M131.5,-157.81C131.5,-157.81 131.5,-123.67 131.5,-123.67"/>
<polygon fill="black" stroke="black" points="135,-123.67 131.5,-113.67 128,-123.67 135,-123.67"/>
</g>
<!-- c_0_72 -->
<g id="node2" class="node">
<title>c_0_72</title>
<g id="a_node2"><a xlink:href="c_0_72.html" xlink:title="{finite(cf(κ₁))|ω c= cf(κ₁)}" target="_parent">
<polygon fill="#f8edd1" stroke="#7f7542" points="16.5,-150.5 16.5,-180.5 101.5,-180.5 101.5,-150.5 16.5,-150.5"/>
<text text-anchor="middle" x="59" y="-169.3" font-family="Times,serif" font-size="14.00">finite(cf(κ₁))</text>
<polyline fill="none" stroke="#7f7542" points="16.5,-165.5 101.5,-165.5 "/>
<text text-anchor="middle" x="59" y="-154.3" font-family="Times,serif" font-size="14.00">ω c= cf(κ₁)</text>
</a>
</g>
</g>
<!-- c_0_72&#45;&gt;c_0_86 -->
<g id="edge2" class="edge">
<title>c_0_72&#45;&gt;c_0_86</title>
<path fill="none" stroke="black" d="M81.25,-150.3C81.25,-150.3 81.25,-123.64 81.25,-123.64"/>
<polygon fill="black" stroke="black" points="84.75,-123.64 81.25,-113.64 77.75,-123.64 84.75,-123.64"/>
</g>
<!-- c_0_99 -->
<g id="node4" class="node">
<title>c_0_99</title>
<g id="a_node4"><a xlink:href="c_0_99.html" xlink:title="{finite(cf(ω))|ω ∈ cf(ω)}" target="_parent">
<polygon fill="#f8edd1" stroke="#7f7542" points="61,-16.5 61,-46.5 143,-46.5 143,-16.5 61,-16.5"/>
<text text-anchor="middle" x="102" y="-35.3" font-family="Times,serif" font-size="14.00">finite(cf(ω))</text>
<polyline fill="none" stroke="#7f7542" points="61,-31.5 143,-31.5 "/>
<text text-anchor="middle" x="102" y="-20.3" font-family="Times,serif" font-size="14.00">ω ∈ cf(ω)</text>
</a>
</g>
</g>
<!-- c_0_86&#45;&gt;c_0_99 -->
<g id="edge3" class="edge">
<title>c_0_86&#45;&gt;c_0_99</title>
<path fill="none" stroke="black" stroke-dasharray="5,2" d="M102,-83.3C102,-83.3 102,-56.64 102,-56.64"/>
<polygon fill="black" stroke="black" points="105.5,-56.64 102,-46.64 98.5,-56.64 105.5,-56.64"/>
</g>
</g>
</svg>
