<?xml version="1.0" encoding="UTF-8" standalone="no"?>
<!DOCTYPE svg PUBLIC "-//W3C//DTD SVG 1.1//EN"
 "http://www.w3.org/Graphics/SVG/1.1/DTD/svg11.dtd">
<!-- Generated by graphviz version 5.0.0 (0)
 -->
<!-- Title: proof Pages: 1 -->
<svg width="216pt" height="265pt"
 viewBox="0.00 0.00 216.00 265.00" xmlns="http://www.w3.org/2000/svg" xmlns:xlink="http://www.w3.org/1999/xlink">
<g id="graph0" class="graph" transform="scale(1 1) rotate(0) translate(4 261)">
<title>proof</title>
<g id="clust1" class="cluster">
<title>cluster_0</title>
<polygon fill="transparent" stroke="black" stroke-dasharray="1,5" points="8,-172 8,-249 200,-249 200,-172 8,-172"/>
</g>
<g id="clust2" class="cluster">
<title>cluster_1</title>
<polygon fill="transparent" stroke="black" stroke-width="2" points="46,-75 46,-152 158,-152 158,-75 46,-75"/>
</g>
<g id="clust3" class="cluster">
<title>cluster_2</title>
<polygon fill="transparent" stroke="black" stroke-dasharray="1,5" points="49,-8 49,-55 155,-55 155,-8 49,-8"/>
</g>
<!-- c_0_111 -->
<g id="node1" class="node">
<title>c_0_111</title>
<g id="a_node1"><a xlink:href="c_0_111.html" xlink:title="{finite(X₁)|ordinal(X₁)|⇊|X₁ ∈ Card}" target="_parent">
<polygon fill="#f8edd1" stroke="#7f7542" points="116,-180.5 116,-240.5 192,-240.5 192,-180.5 116,-180.5"/>
<text text-anchor="middle" x="154" y="-229.3" font-family="Times,serif" font-size="14.00">finite(X₁)</text>
<polyline fill="none" stroke="#7f7542" points="116,-225.5 192,-225.5 "/>
<text text-anchor="middle" x="154" y="-214.3" font-family="Times,serif" font-size="14.00">ordinal(X₁)</text>
<polyline fill="none" stroke="#7f7542" points="116,-210.5 192,-210.5 "/>
<text text-anchor="middle" x="154" y="-199.3" font-family="Times,serif" font-size="14.00">⇊</text>
<polyline fill="none" stroke="#7f7542" points="116,-195.5 192,-195.5 "/>
<text text-anchor="middle" x="154" y="-184.3" font-family="Times,serif" font-size="14.00">X₁ ∈ Card</text>
</a>
</g>
</g>
<!-- c_0_123 -->
<g id="node3" class="node">
<title>c_0_123</title>
<g id="a_node3"><a xlink:href="c_0_123.html" xlink:title="{ordinal(cf(ω))|⇊|cf(ω) ∈ Card|ω ∈ cf(ω)}" target="_parent">
<polygon fill="#f8edd1" stroke="#7f7542" points="54,-83.5 54,-143.5 150,-143.5 150,-83.5 54,-83.5"/>
<text text-anchor="middle" x="102" y="-132.3" font-family="Times,serif" font-size="14.00">ordinal(cf(ω))</text>
<polyline fill="none" stroke="#7f7542" points="54,-128.5 150,-128.5 "/>
<text text-anchor="middle" x="102" y="-117.3" font-family="Times,serif" font-size="14.00">⇊</text>
<polyline fill="none" stroke="#7f7542" points="54,-113.5 150,-113.5 "/>
<text text-anchor="middle" x="102" y="-102.3" font-family="Times,serif" font-size="14.00">cf(ω) ∈ Card</text>
<polyline fill="none" stroke="#7f7542" points="54,-98.5 150,-98.5 "/>
<text text-anchor="middle" x="102" y="-87.3" font-family="Times,serif" font-size="14.00">ω ∈ cf(ω)</text>
</a>
</g>
</g>
<!-- c_0_111&#45;&gt;c_0_123 -->
<g id="edge1" class="edge">
<title>c_0_111&#45;&gt;c_0_123</title>
<path fill="none" stroke="black" d="M133,-180.34C133,-180.34 133,-153.64 133,-153.64"/>
<polygon fill="black" stroke="black" points="136.5,-153.64 133,-143.64 129.5,-153.64 136.5,-153.64"/>
</g>
<!-- c_0_99 -->
<g id="node2" class="node">
<title>c_0_99</title>
<g id="a_node2"><a xlink:href="c_0_99.html" xlink:title="{finite(cf(ω))|ω ∈ cf(ω)}" target="_parent">
<polygon fill="#f8edd1" stroke="#7f7542" points="16,-195.5 16,-225.5 98,-225.5 98,-195.5 16,-195.5"/>
<text text-anchor="middle" x="57" y="-214.3" font-family="Times,serif" font-size="14.00">finite(cf(ω))</text>
<polyline fill="none" stroke="#7f7542" points="16,-210.5 98,-210.5 "/>
<text text-anchor="middle" x="57" y="-199.3" font-family="Times,serif" font-size="14.00">ω ∈ cf(ω)</text>
</a>
</g>
</g>
<!-- c_0_99&#45;&gt;c_0_123 -->
<g id="edge2" class="edge">
<title>c_0_99&#45;&gt;c_0_123</title>
<path fill="none" stroke="black" d="M76,-195.34C76,-195.34 76,-153.79 76,-153.79"/>
<polygon fill="black" stroke="black" points="79.5,-153.79 76,-143.79 72.5,-153.79 79.5,-153.79"/>
</g>
<!-- c_0_131 -->
<g id="node4" class="node">
<title>c_0_131</title>
<g id="a_node4"><a xlink:href="c_0_131.html" xlink:title="{cf(ω) ∈ Card|ω ∈ cf(ω)}" target="_parent">
<polygon fill="#f8edd1" stroke="#7f7542" points="57.5,-16.5 57.5,-46.5 146.5,-46.5 146.5,-16.5 57.5,-16.5"/>
<text text-anchor="middle" x="102" y="-35.3" font-family="Times,serif" font-size="14.00">cf(ω) ∈ Card</text>
<polyline fill="none" stroke="#7f7542" points="57.5,-31.5 146.5,-31.5 "/>
<text text-anchor="middle" x="102" y="-20.3" font-family="Times,serif" font-size="14.00">ω ∈ cf(ω)</text>
</a>
</g>
</g>
<!-- c_0_123&#45;&gt;c_0_131 -->
<g id="edge3" class="edge">
<title>c_0_123&#45;&gt;c_0_131</title>
<path fill="none" stroke="black" stroke-dasharray="5,2" d="M102,-83.43C102,-83.43 102,-56.84 102,-56.84"/>
<polygon fill="black" stroke="black" points="105.5,-56.84 102,-46.84 98.5,-56.84 105.5,-56.84"/>
</g>
</g>
</svg>
