<?xml version="1.0" encoding="UTF-8" standalone="no"?>
<!DOCTYPE svg PUBLIC "-//W3C//DTD SVG 1.1//EN"
 "http://www.w3.org/Graphics/SVG/1.1/DTD/svg11.dtd">
<!-- Generated by graphviz version 5.0.0 (0)
 -->
<!-- Title: proof Pages: 1 -->
<svg width="207pt" height="235pt"
 viewBox="0.00 0.00 207.00 235.00" xmlns="http://www.w3.org/2000/svg" xmlns:xlink="http://www.w3.org/1999/xlink">
<g id="graph0" class="graph" transform="scale(1 1) rotate(0) translate(4 231)">
<title>proof</title>
<g id="clust1" class="cluster">
<title>cluster_0</title>
<polygon fill="transparent" stroke="black" stroke-dasharray="1,5" points="8,-172 8,-219 191,-219 191,-172 8,-172"/>
</g>
<g id="clust2" class="cluster">
<title>cluster_1</title>
<polygon fill="transparent" stroke="black" stroke-width="2" points="36,-105 36,-152 152,-152 152,-105 36,-105"/>
</g>
<g id="clust3" class="cluster">
<title>cluster_2</title>
<polygon fill="transparent" stroke="black" stroke-dasharray="1,5" points="45,-8 45,-85 143,-85 143,-8 45,-8"/>
</g>
<!-- c_0_131 -->
<g id="node1" class="node">
<title>c_0_131</title>
<g id="a_node1"><a xlink:href="c_0_131.html" xlink:title="{cf(ω) ∈ Card|ω ∈ cf(ω)}" target="_vizar">
<polygon fill="#f8edd1" stroke="#7f7542" points="93.5,-180.5 93.5,-210.5 182.5,-210.5 182.5,-180.5 93.5,-180.5"/>
<text text-anchor="middle" x="138" y="-199.3" font-family="Times,serif" font-size="14.00">cf(ω) ∈ Card</text>
<polyline fill="none" stroke="#7f7542" points="93.5,-195.5 182.5,-195.5 "/>
<text text-anchor="middle" x="138" y="-184.3" font-family="Times,serif" font-size="14.00">ω ∈ cf(ω)</text>
</a>
</g>
</g>
<!-- c_0_138 -->
<g id="node3" class="node">
<title>c_0_138</title>
<g id="a_node3"><a xlink:href="c_0_138.html" xlink:title="{\|cf(ω)\| = cf(ω)|ω ∈ cf(ω)}" target="_vizar">
<polygon fill="#f8edd1" stroke="#7f7542" points="44,-113.5 44,-143.5 144,-143.5 144,-113.5 44,-113.5"/>
<text text-anchor="middle" x="94" y="-132.3" font-family="Times,serif" font-size="14.00">|cf(ω)| = cf(ω)</text>
<polyline fill="none" stroke="#7f7542" points="44,-128.5 144,-128.5 "/>
<text text-anchor="middle" x="94" y="-117.3" font-family="Times,serif" font-size="14.00">ω ∈ cf(ω)</text>
</a>
</g>
</g>
<!-- c_0_131&#45;&gt;c_0_138 -->
<g id="edge1" class="edge">
<title>c_0_131&#45;&gt;c_0_138</title>
<path fill="none" stroke="black" d="M118.75,-180.3C118.75,-180.3 118.75,-153.64 118.75,-153.64"/>
<polygon fill="black" stroke="black" points="122.25,-153.64 118.75,-143.64 115.25,-153.64 122.25,-153.64"/>
</g>
<!-- c_0_130 -->
<g id="node2" class="node">
<title>c_0_130</title>
<g id="a_node2"><a xlink:href="c_0_130.html" xlink:title="{\|κ₁\| = κ₁}" target="_vizar">
<polygon fill="#f8edd1" stroke="#7f7542" points="16.5,-188 16.5,-203 75.5,-203 75.5,-188 16.5,-188"/>
<text text-anchor="middle" x="46" y="-191.8" font-family="Times,serif" font-size="14.00">|κ₁| = κ₁</text>
</a>
</g>
</g>
<!-- c_0_130&#45;&gt;c_0_138 -->
<g id="edge2" class="edge">
<title>c_0_130&#45;&gt;c_0_138</title>
<path fill="none" stroke="black" d="M59.75,-187.81C59.75,-187.81 59.75,-153.67 59.75,-153.67"/>
<polygon fill="black" stroke="black" points="63.25,-153.67 59.75,-143.67 56.25,-153.67 63.25,-153.67"/>
</g>
<!-- c_0_146 -->
<g id="node4" class="node">
<title>c_0_146</title>
<g id="a_node4"><a xlink:href="c_0_146.html" xlink:title="{finite(cf(ω))|ω c= cf(ω)|⇊|ω ∈ cf(ω)}" target="_vizar">
<polygon fill="#f8edd1" stroke="#7f7542" points="53,-16.5 53,-76.5 135,-76.5 135,-16.5 53,-16.5"/>
<text text-anchor="middle" x="94" y="-65.3" font-family="Times,serif" font-size="14.00">finite(cf(ω))</text>
<polyline fill="none" stroke="#7f7542" points="53,-61.5 135,-61.5 "/>
<text text-anchor="middle" x="94" y="-50.3" font-family="Times,serif" font-size="14.00">ω c= cf(ω)</text>
<polyline fill="none" stroke="#7f7542" points="53,-46.5 135,-46.5 "/>
<text text-anchor="middle" x="94" y="-35.3" font-family="Times,serif" font-size="14.00">⇊</text>
<polyline fill="none" stroke="#7f7542" points="53,-31.5 135,-31.5 "/>
<text text-anchor="middle" x="94" y="-20.3" font-family="Times,serif" font-size="14.00">ω ∈ cf(ω)</text>
</a>
</g>
</g>
<!-- c_0_138&#45;&gt;c_0_146 -->
<g id="edge3" class="edge">
<title>c_0_138&#45;&gt;c_0_146</title>
<path fill="none" stroke="black" stroke-dasharray="5,2" d="M94,-113.46C94,-113.46 94,-86.73 94,-86.73"/>
<polygon fill="black" stroke="black" points="97.5,-86.73 94,-76.73 90.5,-86.73 97.5,-86.73"/>
</g>
</g>
</svg>
