<?xml version="1.0" encoding="UTF-8" standalone="no"?>
<!DOCTYPE svg PUBLIC "-//W3C//DTD SVG 1.1//EN"
 "http://www.w3.org/Graphics/SVG/1.1/DTD/svg11.dtd">
<!-- Generated by graphviz version 5.0.0 (0)
 -->
<!-- Title: proof Pages: 1 -->
<svg width="688pt" height="190pt"
 viewBox="0.00 0.00 688.00 190.00" xmlns="http://www.w3.org/2000/svg" xmlns:xlink="http://www.w3.org/1999/xlink">
<g id="graph0" class="graph" transform="scale(1 1) rotate(0) translate(4 186)">
<title>proof</title>
<g id="clust1" class="cluster">
<title>cluster_0</title>
<polygon fill="transparent" stroke="black" stroke-dasharray="1,5" points="293,-142 293,-174 403,-174 403,-142 293,-142"/>
</g>
<g id="clust2" class="cluster">
<title>cluster_1</title>
<polygon fill="transparent" stroke="black" stroke-width="2" points="294,-90 294,-122 402,-122 402,-90 294,-90"/>
</g>
<g id="clust3" class="cluster">
<title>cluster_2</title>
<polygon fill="transparent" stroke="black" stroke-dasharray="1,5" points="8,-8 8,-70 672,-70 672,-8 8,-8"/>
</g>
<!-- dt_k1_card_5 -->
<g id="node1" class="node">
<title>dt_k1_card_5</title>
<g id="a_node1"><a xlink:href="dt_k1_card_5.html" xlink:title="dt_k1_card_5" target="_parent">
<polygon fill="#69d2e7" stroke="#7f7542" points="301,-150.5 301,-165.5 395,-165.5 395,-150.5 301,-150.5"/>
<text text-anchor="middle" x="348" y="-154.3" font-family="Times,serif" font-size="14.00">dt_k1_card_5</text>
</a>
</g>
</g>
<!-- c_0_42 -->
<g id="node2" class="node">
<title>c_0_42</title>
<g id="a_node2"><a xlink:href="c_0_42.html" xlink:title="{cf(κ₁) ∈ Card}" target="_parent">
<polygon fill="#f8edd1" stroke="#7f7542" points="302,-98.5 302,-113.5 394,-113.5 394,-98.5 302,-98.5"/>
<text text-anchor="middle" x="348" y="-102.3" font-family="Times,serif" font-size="14.00">cf(κ₁) ∈ Card</text>
</a>
</g>
</g>
<!-- dt_k1_card_5&#45;&gt;c_0_42 -->
<g id="edge1" class="edge">
<title>dt_k1_card_5&#45;&gt;c_0_42</title>
<path fill="none" stroke="black" d="M348,-150.33C348,-150.33 348,-123.7 348,-123.7"/>
<polygon fill="black" stroke="black" points="351.5,-123.7 348,-113.7 344.5,-123.7 351.5,-123.7"/>
</g>
<!-- c_0_99 -->
<g id="node3" class="node">
<title>c_0_99</title>
<g id="a_node3"><a xlink:href="c_0_99.html" xlink:title="{finite(cf(ω))|ω ∈ cf(ω)}" target="_parent">
<polygon fill="#f8edd1" stroke="#7f7542" points="582,-24 582,-54 664,-54 664,-24 582,-24"/>
<text text-anchor="middle" x="623" y="-42.8" font-family="Times,serif" font-size="14.00">finite(cf(ω))</text>
<polyline fill="none" stroke="#7f7542" points="582,-39 664,-39 "/>
<text text-anchor="middle" x="623" y="-27.8" font-family="Times,serif" font-size="14.00">ω ∈ cf(ω)</text>
</a>
</g>
</g>
<!-- c_0_42&#45;&gt;c_0_99 -->
<g id="edge2" class="edge">
<title>c_0_42&#45;&gt;c_0_99</title>
<path fill="none" stroke="black" stroke-dasharray="5,2" d="M394.03,-106C472.31,-106 623,-106 623,-106 623,-106 623,-64.2 623,-64.2"/>
<polygon fill="black" stroke="black" points="626.5,-64.2 623,-54.2 619.5,-64.2 626.5,-64.2"/>
</g>
<!-- c_0_199 -->
<g id="node4" class="node">
<title>c_0_199</title>
<g id="a_node4"><a xlink:href="c_0_199.html" xlink:title="{is_cofinal_with(κ₁,κ₂)|⇊|cf(κ₁) c= κ₂}" target="_parent">
<polygon fill="#f8edd1" stroke="#7f7542" points="416,-16.5 416,-61.5 564,-61.5 564,-16.5 416,-16.5"/>
<text text-anchor="middle" x="490" y="-50.3" font-family="Times,serif" font-size="14.00">is_cofinal_with(κ₁,κ₂)</text>
<polyline fill="none" stroke="#7f7542" points="416,-46.5 564,-46.5 "/>
<text text-anchor="middle" x="490" y="-35.3" font-family="Times,serif" font-size="14.00">⇊</text>
<polyline fill="none" stroke="#7f7542" points="416,-31.5 564,-31.5 "/>
<text text-anchor="middle" x="490" y="-20.3" font-family="Times,serif" font-size="14.00">cf(κ₁) c= κ₂</text>
</a>
</g>
</g>
<!-- c_0_42&#45;&gt;c_0_199 -->
<g id="edge3" class="edge">
<title>c_0_42&#45;&gt;c_0_199</title>
<path fill="none" stroke="black" stroke-dasharray="5,2" d="M363.33,-98.33C363.33,-83.86 363.33,-54 363.33,-54 363.33,-54 405.95,-54 405.95,-54"/>
<polygon fill="black" stroke="black" points="405.95,-57.5 415.95,-54 405.95,-50.5 405.95,-57.5"/>
</g>
<!-- c_0_60 -->
<g id="node5" class="node">
<title>c_0_60</title>
<g id="a_node5"><a xlink:href="c_0_60.html" xlink:title="{ordinal(cf(κ₁))}" target="_parent">
<polygon fill="#f8edd1" stroke="#7f7542" points="298.5,-31.5 298.5,-46.5 397.5,-46.5 397.5,-31.5 298.5,-31.5"/>
<text text-anchor="middle" x="348" y="-35.3" font-family="Times,serif" font-size="14.00">ordinal(cf(κ₁))</text>
</a>
</g>
</g>
<!-- c_0_42&#45;&gt;c_0_60 -->
<g id="edge4" class="edge">
<title>c_0_42&#45;&gt;c_0_60</title>
<path fill="none" stroke="black" stroke-dasharray="5,2" d="M332.67,-98.31C332.67,-98.31 332.67,-56.6 332.67,-56.6"/>
<polygon fill="black" stroke="black" points="336.17,-56.6 332.67,-46.6 329.17,-56.6 336.17,-56.6"/>
</g>
<!-- c_0_136 -->
<g id="node6" class="node">
<title>c_0_136</title>
<g id="a_node6"><a xlink:href="c_0_136.html" xlink:title="{is_cofinal_with(κ₁,cf(κ₁))}" target="_parent">
<polygon fill="#f8edd1" stroke="#7f7542" points="109.5,-31.5 109.5,-46.5 280.5,-46.5 280.5,-31.5 109.5,-31.5"/>
<text text-anchor="middle" x="195" y="-35.3" font-family="Times,serif" font-size="14.00">is_cofinal_with(κ₁,cf(κ₁))</text>
</a>
</g>
</g>
<!-- c_0_42&#45;&gt;c_0_136 -->
<g id="edge5" class="edge">
<title>c_0_42&#45;&gt;c_0_136</title>
<path fill="none" stroke="black" stroke-dasharray="5,2" d="M301.68,-103C256.65,-103 195,-103 195,-103 195,-103 195,-56.85 195,-56.85"/>
<polygon fill="black" stroke="black" points="198.5,-56.85 195,-46.85 191.5,-56.85 198.5,-56.85"/>
</g>
<!-- c_0_198 -->
<g id="node7" class="node">
<title>c_0_198</title>
<g id="a_node7"><a xlink:href="c_0_198.html" xlink:title="{cf(ω) c= ω|⇊|cf(ω) = Ø}" target="_parent">
<polygon fill="#f8edd1" stroke="#7f7542" points="16.5,-16.5 16.5,-61.5 91.5,-61.5 91.5,-16.5 16.5,-16.5"/>
<text text-anchor="middle" x="54" y="-50.3" font-family="Times,serif" font-size="14.00">cf(ω) c= ω</text>
<polyline fill="none" stroke="#7f7542" points="16.5,-46.5 91.5,-46.5 "/>
<text text-anchor="middle" x="54" y="-35.3" font-family="Times,serif" font-size="14.00">⇊</text>
<polyline fill="none" stroke="#7f7542" points="16.5,-31.5 91.5,-31.5 "/>
<text text-anchor="middle" x="54" y="-20.3" font-family="Times,serif" font-size="14.00">cf(ω) = Ø</text>
</a>
</g>
</g>
<!-- c_0_42&#45;&gt;c_0_198 -->
<g id="edge6" class="edge">
<title>c_0_42&#45;&gt;c_0_198</title>
<path fill="none" stroke="black" stroke-dasharray="5,2" d="M301.74,-108C218.94,-108 54,-108 54,-108 54,-108 54,-71.59 54,-71.59"/>
<polygon fill="black" stroke="black" points="57.5,-71.59 54,-61.59 50.5,-71.59 57.5,-71.59"/>
</g>
</g>
</svg>
