<?xml version="1.0" encoding="UTF-8" standalone="no"?>
<!DOCTYPE svg PUBLIC "-//W3C//DTD SVG 1.1//EN"
 "http://www.w3.org/Graphics/SVG/1.1/DTD/svg11.dtd">
<!-- Generated by graphviz version 5.0.0 (0)
 -->
<!-- Title: proof Pages: 1 -->
<svg width="202pt" height="205pt"
 viewBox="0.00 0.00 202.00 205.00" xmlns="http://www.w3.org/2000/svg" xmlns:xlink="http://www.w3.org/1999/xlink">
<g id="graph0" class="graph" transform="scale(1 1) rotate(0) translate(4 201)">
<title>proof</title>
<g id="clust1" class="cluster">
<title>cluster_0</title>
<polygon fill="transparent" stroke="black" stroke-dasharray="1,5" points="38,-157 38,-189 148,-189 148,-157 38,-157"/>
</g>
<g id="clust2" class="cluster">
<title>cluster_1</title>
<polygon fill="transparent" stroke="black" stroke-width="2" points="45,-105 45,-137 141,-137 141,-105 45,-105"/>
</g>
<g id="clust3" class="cluster">
<title>cluster_2</title>
<polygon fill="transparent" stroke="black" stroke-dasharray="1,5" points="8,-8 8,-85 186,-85 186,-8 8,-8"/>
</g>
<!-- dt_k1_card_1 -->
<g id="node1" class="node">
<title>dt_k1_card_1</title>
<g id="a_node1"><a xlink:href="dt_k1_card_1.html" xlink:title="dt_k1_card_1" target="_vizar">
<polygon fill="#69d2e7" stroke="#7f7542" points="46,-165.5 46,-180.5 140,-180.5 140,-165.5 46,-165.5"/>
<text text-anchor="middle" x="93" y="-169.3" font-family="Times,serif" font-size="14.00">dt_k1_card_1</text>
</a>
</g>
</g>
<!-- c_0_55 -->
<g id="node2" class="node">
<title>c_0_55</title>
<g id="a_node2"><a xlink:href="c_0_55.html" xlink:title="{\|X₁\| ∈ Card}" target="_vizar">
<polygon fill="#f8edd1" stroke="#7f7542" points="53.5,-113.5 53.5,-128.5 132.5,-128.5 132.5,-113.5 53.5,-113.5"/>
<text text-anchor="middle" x="93" y="-117.3" font-family="Times,serif" font-size="14.00">|X₁| ∈ Card</text>
</a>
</g>
</g>
<!-- dt_k1_card_1&#45;&gt;c_0_55 -->
<g id="edge1" class="edge">
<title>dt_k1_card_1&#45;&gt;c_0_55</title>
<path fill="none" stroke="black" d="M93,-165.33C93,-165.33 93,-138.7 93,-138.7"/>
<polygon fill="black" stroke="black" points="96.5,-138.7 93,-128.7 89.5,-138.7 96.5,-138.7"/>
</g>
<!-- c_0_95 -->
<g id="node3" class="node">
<title>c_0_95</title>
<g id="a_node3"><a xlink:href="c_0_95.html" xlink:title="{\|X₁\| = \|\|X₁\|\|}" target="_vizar">
<polygon fill="#f8edd1" stroke="#7f7542" points="98.5,-39 98.5,-54 177.5,-54 177.5,-39 98.5,-39"/>
<text text-anchor="middle" x="138" y="-42.8" font-family="Times,serif" font-size="14.00">|X₁| = ||X₁||</text>
</a>
</g>
</g>
<!-- c_0_55&#45;&gt;c_0_95 -->
<g id="edge2" class="edge">
<title>c_0_55&#45;&gt;c_0_95</title>
<path fill="none" stroke="black" stroke-dasharray="5,2" d="M115.5,-113.31C115.5,-113.31 115.5,-64.26 115.5,-64.26"/>
<polygon fill="black" stroke="black" points="119,-64.26 115.5,-54.26 112,-64.26 119,-64.26"/>
</g>
<!-- c_0_137 -->
<g id="node4" class="node">
<title>c_0_137</title>
<g id="a_node4"><a xlink:href="c_0_137.html" xlink:title="{finite(X₁)|ω c= \|X₁\||⇊|⊥}" target="_vizar">
<polygon fill="#f8edd1" stroke="#7f7542" points="16,-16.5 16,-76.5 80,-76.5 80,-16.5 16,-16.5"/>
<text text-anchor="middle" x="48" y="-65.3" font-family="Times,serif" font-size="14.00">finite(X₁)</text>
<polyline fill="none" stroke="#7f7542" points="16,-61.5 80,-61.5 "/>
<text text-anchor="middle" x="48" y="-50.3" font-family="Times,serif" font-size="14.00">ω c= |X₁|</text>
<polyline fill="none" stroke="#7f7542" points="16,-46.5 80,-46.5 "/>
<text text-anchor="middle" x="48" y="-35.3" font-family="Times,serif" font-size="14.00">⇊</text>
<polyline fill="none" stroke="#7f7542" points="16,-31.5 80,-31.5 "/>
<text text-anchor="middle" x="48" y="-20.3" font-family="Times,serif" font-size="14.00">⊥</text>
</a>
</g>
</g>
<!-- c_0_55&#45;&gt;c_0_137 -->
<g id="edge3" class="edge">
<title>c_0_55&#45;&gt;c_0_137</title>
<path fill="none" stroke="black" stroke-dasharray="5,2" d="M66.75,-113.31C66.75,-113.31 66.75,-86.51 66.75,-86.51"/>
<polygon fill="black" stroke="black" points="70.25,-86.51 66.75,-76.51 63.25,-86.51 70.25,-86.51"/>
</g>
</g>
</svg>
