<?xml version="1.0" encoding="UTF-8" standalone="no"?>
<!DOCTYPE svg PUBLIC "-//W3C//DTD SVG 1.1//EN"
 "http://www.w3.org/Graphics/SVG/1.1/DTD/svg11.dtd">
<!-- Generated by graphviz version 5.0.0 (0)
 -->
<!-- Title: proof Pages: 1 -->
<svg width="210pt" height="205pt"
 viewBox="0.00 0.00 210.00 205.00" xmlns="http://www.w3.org/2000/svg" xmlns:xlink="http://www.w3.org/1999/xlink">
<g id="graph0" class="graph" transform="scale(1 1) rotate(0) translate(4 201)">
<title>proof</title>
<g id="clust1" class="cluster">
<title>cluster_0</title>
<polygon fill="transparent" stroke="black" stroke-dasharray="1,5" points="47,-157 47,-189 155,-189 155,-157 47,-157"/>
</g>
<g id="clust2" class="cluster">
<title>cluster_1</title>
<polygon fill="transparent" stroke="black" stroke-width="2" points="20,-60 20,-137 182,-137 182,-60 20,-60"/>
</g>
<g id="clust3" class="cluster">
<title>cluster_2</title>
<polygon fill="transparent" stroke="black" stroke-dasharray="1,5" points="8,-8 8,-40 194,-40 194,-8 8,-8"/>
</g>
<!-- t50_ordinal2 -->
<g id="node1" class="node">
<title>t50_ordinal2</title>
<g id="a_node1"><a xlink:href="t50_ordinal2.html" xlink:title="t50_ordinal2" target="_parent">
<polygon fill="#69d2e7" stroke="#7f7542" points="55.5,-165.5 55.5,-180.5 146.5,-180.5 146.5,-165.5 55.5,-165.5"/>
<text text-anchor="middle" x="101" y="-169.3" font-family="Times,serif" font-size="14.00">t50_ordinal2</text>
</a>
</g>
</g>
<!-- c_0_211 -->
<g id="node2" class="node">
<title>c_0_211</title>
<g id="a_node2"><a xlink:href="c_0_211.html" xlink:title="{is_cofinal_with(X₁,Ø)|ordinal(X₁)|⇊|X₁ = Ø}" target="_parent">
<polygon fill="#f8edd1" stroke="#7f7542" points="28.5,-68.5 28.5,-128.5 173.5,-128.5 173.5,-68.5 28.5,-68.5"/>
<text text-anchor="middle" x="101" y="-117.3" font-family="Times,serif" font-size="14.00">is_cofinal_with(X₁,Ø)</text>
<polyline fill="none" stroke="#7f7542" points="28.5,-113.5 173.5,-113.5 "/>
<text text-anchor="middle" x="101" y="-102.3" font-family="Times,serif" font-size="14.00">ordinal(X₁)</text>
<polyline fill="none" stroke="#7f7542" points="28.5,-98.5 173.5,-98.5 "/>
<text text-anchor="middle" x="101" y="-87.3" font-family="Times,serif" font-size="14.00">⇊</text>
<polyline fill="none" stroke="#7f7542" points="28.5,-83.5 173.5,-83.5 "/>
<text text-anchor="middle" x="101" y="-72.3" font-family="Times,serif" font-size="14.00">X₁ = Ø</text>
</a>
</g>
</g>
<!-- t50_ordinal2&#45;&gt;c_0_211 -->
<g id="edge1" class="edge">
<title>t50_ordinal2&#45;&gt;c_0_211</title>
<path fill="none" stroke="black" d="M101,-165.31C101,-165.31 101,-138.51 101,-138.51"/>
<polygon fill="black" stroke="black" points="104.5,-138.51 101,-128.51 97.5,-138.51 104.5,-138.51"/>
</g>
<!-- c_0_234 -->
<g id="node3" class="node">
<title>c_0_234</title>
<g id="a_node3"><a xlink:href="c_0_234.html" xlink:title="{¬ (is_cofinal_with(ω,ω))}" target="_parent">
<polygon fill="#f8edd1" stroke="#7f7542" points="16.5,-16.5 16.5,-31.5 185.5,-31.5 185.5,-16.5 16.5,-16.5"/>
<text text-anchor="middle" x="101" y="-20.3" font-family="Times,serif" font-size="14.00">¬ (is_cofinal_with(ω,ω))</text>
</a>
</g>
</g>
<!-- c_0_211&#45;&gt;c_0_234 -->
<g id="edge2" class="edge">
<title>c_0_211&#45;&gt;c_0_234</title>
<path fill="none" stroke="black" stroke-dasharray="5,2" d="M101,-68.2C101,-68.2 101,-41.59 101,-41.59"/>
<polygon fill="black" stroke="black" points="104.5,-41.59 101,-31.59 97.5,-41.59 104.5,-41.59"/>
</g>
</g>
</svg>
