<?xml version="1.0" encoding="UTF-8" standalone="no"?>
<!DOCTYPE svg PUBLIC "-//W3C//DTD SVG 1.1//EN"
 "http://www.w3.org/Graphics/SVG/1.1/DTD/svg11.dtd">
<!-- Generated by graphviz version 5.0.0 (0)
 -->
<!-- Title: proof Pages: 1 -->
<svg width="468pt" height="138pt"
 viewBox="0.00 0.00 468.00 138.00" xmlns="http://www.w3.org/2000/svg" xmlns:xlink="http://www.w3.org/1999/xlink">
<g id="graph0" class="graph" transform="scale(1 1) rotate(0) translate(4 134)">
<title>proof</title>
<g id="clust1" class="cluster">
<title>cluster_0</title>
<polygon fill="transparent" stroke="black" stroke-dasharray="1,5" points="8,-60 8,-122 452,-122 452,-60 8,-60"/>
</g>
<g id="clust2" class="cluster">
<title>cluster_1</title>
<polygon fill="transparent" stroke="black" stroke-width="2" points="225,-8 225,-40 255,-40 255,-8 225,-8"/>
</g>
<!-- c_0_235 -->
<g id="node1" class="node">
<title>c_0_235</title>
<g id="a_node1"><a xlink:href="c_0_235.html" xlink:title="{ordinal(X₁)|⇊|is_cofinal_with(X₁,X₁)}" target="_vizar">
<polygon fill="#f8edd1" stroke="#7f7542" points="294.5,-68.5 294.5,-113.5 443.5,-113.5 443.5,-68.5 294.5,-68.5"/>
<text text-anchor="middle" x="369" y="-102.3" font-family="Times,serif" font-size="14.00">ordinal(X₁)</text>
<polyline fill="none" stroke="#7f7542" points="294.5,-98.5 443.5,-98.5 "/>
<text text-anchor="middle" x="369" y="-87.3" font-family="Times,serif" font-size="14.00">⇊</text>
<polyline fill="none" stroke="#7f7542" points="294.5,-83.5 443.5,-83.5 "/>
<text text-anchor="middle" x="369" y="-72.3" font-family="Times,serif" font-size="14.00">is_cofinal_with(X₁,X₁)</text>
</a>
</g>
</g>
<!-- c_0_236 -->
<g id="node4" class="node">
<title>c_0_236</title>
<g id="a_node4"><a xlink:href="c_0_236.html" xlink:title="⊥" target="_vizar">
<polygon fill="#f8edd1" stroke="#7f7542" points="233,-16.5 233,-31.5 247,-31.5 247,-16.5 233,-16.5"/>
<text text-anchor="middle" x="240" y="-20.3" font-family="Times,serif" font-size="14.00">⊥</text>
</a>
</g>
</g>
<!-- c_0_235&#45;&gt;c_0_236 -->
<g id="edge1" class="edge">
<title>c_0_235&#45;&gt;c_0_236</title>
<path fill="none" stroke="black" d="M294.22,-75C266.8,-75 242.33,-75 242.33,-75 242.33,-75 242.33,-41.53 242.33,-41.53"/>
<polygon fill="black" stroke="black" points="245.83,-41.53 242.33,-31.53 238.83,-41.53 245.83,-41.53"/>
</g>
<!-- c_0_140 -->
<g id="node2" class="node">
<title>c_0_140</title>
<g id="a_node2"><a xlink:href="c_0_140.html" xlink:title="{ordinal(ω)}" target="_vizar">
<polygon fill="#f8edd1" stroke="#7f7542" points="203.5,-83.5 203.5,-98.5 276.5,-98.5 276.5,-83.5 203.5,-83.5"/>
<text text-anchor="middle" x="240" y="-87.3" font-family="Times,serif" font-size="14.00">ordinal(ω)</text>
</a>
</g>
</g>
<!-- c_0_140&#45;&gt;c_0_236 -->
<g id="edge2" class="edge">
<title>c_0_140&#45;&gt;c_0_236</title>
<path fill="none" stroke="black" d="M237.67,-83.31C237.67,-83.31 237.67,-41.6 237.67,-41.6"/>
<polygon fill="black" stroke="black" points="241.17,-41.6 237.67,-31.6 234.17,-41.6 241.17,-41.6"/>
</g>
<!-- c_0_234 -->
<g id="node3" class="node">
<title>c_0_234</title>
<g id="a_node3"><a xlink:href="c_0_234.html" xlink:title="{¬ (is_cofinal_with(ω,ω))}" target="_vizar">
<polygon fill="#f8edd1" stroke="#7f7542" points="16.5,-83.5 16.5,-98.5 185.5,-98.5 185.5,-83.5 16.5,-83.5"/>
<text text-anchor="middle" x="101" y="-87.3" font-family="Times,serif" font-size="14.00">¬ (is_cofinal_with(ω,ω))</text>
</a>
</g>
</g>
<!-- c_0_234&#45;&gt;c_0_236 -->
<g id="edge3" class="edge">
<title>c_0_234&#45;&gt;c_0_236</title>
<path fill="none" stroke="black" d="M101,-83.31C101,-65.72 101,-24 101,-24 101,-24 222.92,-24 222.92,-24"/>
<polygon fill="black" stroke="black" points="222.92,-27.5 232.92,-24 222.92,-20.5 222.92,-27.5"/>
</g>
</g>
</svg>
