<?xml version="1.0" encoding="UTF-8" standalone="no"?>
<!DOCTYPE svg PUBLIC "-//W3C//DTD SVG 1.1//EN"
 "http://www.w3.org/Graphics/SVG/1.1/DTD/svg11.dtd">
<!-- Generated by graphviz version 5.0.0 (0)
 -->
<!-- Title: proof Pages: 1 -->
<svg width="1144pt" height="205pt"
 viewBox="0.00 0.00 1144.00 205.00" xmlns="http://www.w3.org/2000/svg" xmlns:xlink="http://www.w3.org/1999/xlink">
<g id="graph0" class="graph" transform="scale(1 1) rotate(0) translate(4 201)">
<title>proof</title>
<g id="clust1" class="cluster">
<title>cluster_0</title>
<polygon fill="transparent" stroke="black" stroke-dasharray="1,5" points="514,-157 514,-189 606,-189 606,-157 514,-157"/>
</g>
<g id="clust2" class="cluster">
<title>cluster_1</title>
<polygon fill="transparent" stroke="black" stroke-width="2" points="519,-105 519,-137 601,-137 601,-105 519,-105"/>
</g>
<g id="clust3" class="cluster">
<title>cluster_2</title>
<polygon fill="transparent" stroke="black" stroke-dasharray="1,5" points="8,-8 8,-85 1128,-85 1128,-8 8,-8"/>
</g>
<!-- fc4_card_1 -->
<g id="node1" class="node">
<title>fc4_card_1</title>
<g id="a_node1"><a xlink:href="fc4_card_1.html" xlink:title="fc4_card_1" target="_parent">
<polygon fill="#69d2e7" stroke="#7f7542" points="522,-165.5 522,-180.5 598,-180.5 598,-165.5 522,-165.5"/>
<text text-anchor="middle" x="560" y="-169.3" font-family="Times,serif" font-size="14.00">fc4_card_1</text>
</a>
</g>
</g>
<!-- c_0_52 -->
<g id="node2" class="node">
<title>c_0_52</title>
<g id="a_node2"><a xlink:href="c_0_52.html" xlink:title="{ω ∈ Card}" target="_parent">
<polygon fill="#f8edd1" stroke="#7f7542" points="527,-113.5 527,-128.5 593,-128.5 593,-113.5 527,-113.5"/>
<text text-anchor="middle" x="560" y="-117.3" font-family="Times,serif" font-size="14.00">ω ∈ Card</text>
</a>
</g>
</g>
<!-- fc4_card_1&#45;&gt;c_0_52 -->
<g id="edge1" class="edge">
<title>fc4_card_1&#45;&gt;c_0_52</title>
<path fill="none" stroke="black" d="M560,-165.33C560,-165.33 560,-138.7 560,-138.7"/>
<polygon fill="black" stroke="black" points="563.5,-138.7 560,-128.7 556.5,-138.7 563.5,-138.7"/>
</g>
<!-- c_0_86 -->
<g id="node3" class="node">
<title>c_0_86</title>
<g id="a_node3"><a xlink:href="c_0_86.html" xlink:title="{finite(cf(ω))|ω c= cf(ω)}" target="_parent">
<polygon fill="#f8edd1" stroke="#7f7542" points="1038,-31.5 1038,-61.5 1120,-61.5 1120,-31.5 1038,-31.5"/>
<text text-anchor="middle" x="1079" y="-50.3" font-family="Times,serif" font-size="14.00">finite(cf(ω))</text>
<polyline fill="none" stroke="#7f7542" points="1038,-46.5 1120,-46.5 "/>
<text text-anchor="middle" x="1079" y="-35.3" font-family="Times,serif" font-size="14.00">ω c= cf(ω)</text>
</a>
</g>
</g>
<!-- c_0_52&#45;&gt;c_0_86 -->
<g id="edge2" class="edge">
<title>c_0_52&#45;&gt;c_0_86</title>
<path fill="none" stroke="black" stroke-dasharray="5,2" d="M593.26,-125C707.8,-125 1079,-125 1079,-125 1079,-125 1079,-71.64 1079,-71.64"/>
<polygon fill="black" stroke="black" points="1082.5,-71.64 1079,-61.64 1075.5,-71.64 1082.5,-71.64"/>
</g>
<!-- c_0_223 -->
<g id="node4" class="node">
<title>c_0_223</title>
<g id="a_node4"><a xlink:href="c_0_223.html" xlink:title="{is_cofinal_with(ω,ω)|⇊|cf(ω) = Ø}" target="_parent">
<polygon fill="#f8edd1" stroke="#7f7542" points="878,-24 878,-69 1020,-69 1020,-24 878,-24"/>
<text text-anchor="middle" x="949" y="-57.8" font-family="Times,serif" font-size="14.00">is_cofinal_with(ω,ω)</text>
<polyline fill="none" stroke="#7f7542" points="878,-54 1020,-54 "/>
<text text-anchor="middle" x="949" y="-42.8" font-family="Times,serif" font-size="14.00">⇊</text>
<polyline fill="none" stroke="#7f7542" points="878,-39 1020,-39 "/>
<text text-anchor="middle" x="949" y="-27.8" font-family="Times,serif" font-size="14.00">cf(ω) = Ø</text>
</a>
</g>
</g>
<!-- c_0_52&#45;&gt;c_0_223 -->
<g id="edge3" class="edge">
<title>c_0_52&#45;&gt;c_0_223</title>
<path fill="none" stroke="black" stroke-dasharray="5,2" d="M593.17,-121C687.24,-121 949,-121 949,-121 949,-121 949,-79.26 949,-79.26"/>
<polygon fill="black" stroke="black" points="952.5,-79.26 949,-69.26 945.5,-79.26 952.5,-79.26"/>
</g>
<!-- c_0_128 -->
<g id="node5" class="node">
<title>c_0_128</title>
<g id="a_node5"><a xlink:href="c_0_128.html" xlink:title="{finite(X₁)|ω c= card(X₁)|⇊|⊥}" target="_parent">
<polygon fill="#f8edd1" stroke="#7f7542" points="762.5,-16.5 762.5,-76.5 859.5,-76.5 859.5,-16.5 762.5,-16.5"/>
<text text-anchor="middle" x="811" y="-65.3" font-family="Times,serif" font-size="14.00">finite(X₁)</text>
<polyline fill="none" stroke="#7f7542" points="762.5,-61.5 859.5,-61.5 "/>
<text text-anchor="middle" x="811" y="-50.3" font-family="Times,serif" font-size="14.00">ω c= card(X₁)</text>
<polyline fill="none" stroke="#7f7542" points="762.5,-46.5 859.5,-46.5 "/>
<text text-anchor="middle" x="811" y="-35.3" font-family="Times,serif" font-size="14.00">⇊</text>
<polyline fill="none" stroke="#7f7542" points="762.5,-31.5 859.5,-31.5 "/>
<text text-anchor="middle" x="811" y="-20.3" font-family="Times,serif" font-size="14.00">⊥</text>
</a>
</g>
</g>
<!-- c_0_52&#45;&gt;c_0_128 -->
<g id="edge4" class="edge">
<title>c_0_52&#45;&gt;c_0_128</title>
<path fill="none" stroke="black" stroke-dasharray="5,2" d="M587.5,-113.33C587.5,-98.86 587.5,-69 587.5,-69 587.5,-69 752.23,-69 752.23,-69"/>
<polygon fill="black" stroke="black" points="752.23,-72.5 762.23,-69 752.23,-65.5 752.23,-72.5"/>
</g>
<!-- c_0_99 -->
<g id="node6" class="node">
<title>c_0_99</title>
<g id="a_node6"><a xlink:href="c_0_99.html" xlink:title="{finite(cf(ω))|ω ∈ cf(ω)}" target="_parent">
<polygon fill="#f8edd1" stroke="#7f7542" points="662,-31.5 662,-61.5 744,-61.5 744,-31.5 662,-31.5"/>
<text text-anchor="middle" x="703" y="-50.3" font-family="Times,serif" font-size="14.00">finite(cf(ω))</text>
<polyline fill="none" stroke="#7f7542" points="662,-46.5 744,-46.5 "/>
<text text-anchor="middle" x="703" y="-35.3" font-family="Times,serif" font-size="14.00">ω ∈ cf(ω)</text>
</a>
</g>
</g>
<!-- c_0_52&#45;&gt;c_0_99 -->
<g id="edge5" class="edge">
<title>c_0_52&#45;&gt;c_0_99</title>
<path fill="none" stroke="black" stroke-dasharray="5,2" d="M593.17,-117C635.41,-117 703,-117 703,-117 703,-117 703,-71.8 703,-71.8"/>
<polygon fill="black" stroke="black" points="706.5,-71.8 703,-61.8 699.5,-71.8 706.5,-71.8"/>
</g>
<!-- c_0_150 -->
<g id="node7" class="node">
<title>c_0_150</title>
<g id="a_node7"><a xlink:href="c_0_150.html" xlink:title="{cf(ω) = Ø|Ø ∈ cf(ω)}" target="_parent">
<polygon fill="#f8edd1" stroke="#7f7542" points="576.5,-31.5 576.5,-61.5 643.5,-61.5 643.5,-31.5 576.5,-31.5"/>
<text text-anchor="middle" x="610" y="-50.3" font-family="Times,serif" font-size="14.00">cf(ω) = Ø</text>
<polyline fill="none" stroke="#7f7542" points="576.5,-46.5 643.5,-46.5 "/>
<text text-anchor="middle" x="610" y="-35.3" font-family="Times,serif" font-size="14.00">Ø ∈ cf(ω)</text>
</a>
</g>
</g>
<!-- c_0_52&#45;&gt;c_0_150 -->
<g id="edge6" class="edge">
<title>c_0_52&#45;&gt;c_0_150</title>
<path fill="none" stroke="black" stroke-dasharray="5,2" d="M582,-113.31C582,-113.31 582,-71.75 582,-71.75"/>
<polygon fill="black" stroke="black" points="585.5,-71.75 582,-61.75 578.5,-71.75 585.5,-71.75"/>
</g>
<!-- c_0_165 -->
<g id="node8" class="node">
<title>c_0_165</title>
<g id="a_node8"><a xlink:href="c_0_165.html" xlink:title="{ordinal(cf(ω))|⇊|cf(ω) = Ø|ω ⊆ cf(ω)}" target="_parent">
<polygon fill="#f8edd1" stroke="#7f7542" points="462,-16.5 462,-76.5 558,-76.5 558,-16.5 462,-16.5"/>
<text text-anchor="middle" x="510" y="-65.3" font-family="Times,serif" font-size="14.00">ordinal(cf(ω))</text>
<polyline fill="none" stroke="#7f7542" points="462,-61.5 558,-61.5 "/>
<text text-anchor="middle" x="510" y="-50.3" font-family="Times,serif" font-size="14.00">⇊</text>
<polyline fill="none" stroke="#7f7542" points="462,-46.5 558,-46.5 "/>
<text text-anchor="middle" x="510" y="-35.3" font-family="Times,serif" font-size="14.00">cf(ω) = Ø</text>
<polyline fill="none" stroke="#7f7542" points="462,-31.5 558,-31.5 "/>
<text text-anchor="middle" x="510" y="-20.3" font-family="Times,serif" font-size="14.00">ω ⊆ cf(ω)</text>
</a>
</g>
</g>
<!-- c_0_52&#45;&gt;c_0_165 -->
<g id="edge7" class="edge">
<title>c_0_52&#45;&gt;c_0_165</title>
<path fill="none" stroke="black" stroke-dasharray="5,2" d="M542.5,-113.31C542.5,-113.31 542.5,-86.51 542.5,-86.51"/>
<polygon fill="black" stroke="black" points="546,-86.51 542.5,-76.51 539,-86.51 546,-86.51"/>
</g>
<!-- c_0_230 -->
<g id="node9" class="node">
<title>c_0_230</title>
<g id="a_node9"><a xlink:href="c_0_230.html" xlink:title="{is_cofinal_with(ω,ω)|⇊|is_cofinal_with(ω,Ø)}" target="_parent">
<polygon fill="#f8edd1" stroke="#7f7542" points="302,-24 302,-69 444,-69 444,-24 302,-24"/>
<text text-anchor="middle" x="373" y="-57.8" font-family="Times,serif" font-size="14.00">is_cofinal_with(ω,ω)</text>
<polyline fill="none" stroke="#7f7542" points="302,-54 444,-54 "/>
<text text-anchor="middle" x="373" y="-42.8" font-family="Times,serif" font-size="14.00">⇊</text>
<polyline fill="none" stroke="#7f7542" points="302,-39 444,-39 "/>
<text text-anchor="middle" x="373" y="-27.8" font-family="Times,serif" font-size="14.00">is_cofinal_with(ω,Ø)</text>
</a>
</g>
</g>
<!-- c_0_52&#45;&gt;c_0_230 -->
<g id="edge8" class="edge">
<title>c_0_52&#45;&gt;c_0_230</title>
<path fill="none" stroke="black" stroke-dasharray="5,2" d="M527,-116C473.31,-116 373,-116 373,-116 373,-116 373,-79.26 373,-79.26"/>
<polygon fill="black" stroke="black" points="376.5,-79.26 373,-69.26 369.5,-79.26 376.5,-79.26"/>
</g>
<!-- c_0_174 -->
<g id="node10" class="node">
<title>c_0_174</title>
<g id="a_node10"><a xlink:href="c_0_174.html" xlink:title="{cf(ω) = Ø|ω ⊆ cf(ω)}" target="_parent">
<polygon fill="#f8edd1" stroke="#7f7542" points="216.5,-31.5 216.5,-61.5 283.5,-61.5 283.5,-31.5 216.5,-31.5"/>
<text text-anchor="middle" x="250" y="-50.3" font-family="Times,serif" font-size="14.00">cf(ω) = Ø</text>
<polyline fill="none" stroke="#7f7542" points="216.5,-46.5 283.5,-46.5 "/>
<text text-anchor="middle" x="250" y="-35.3" font-family="Times,serif" font-size="14.00">ω ⊆ cf(ω)</text>
</a>
</g>
</g>
<!-- c_0_52&#45;&gt;c_0_174 -->
<g id="edge9" class="edge">
<title>c_0_52&#45;&gt;c_0_174</title>
<path fill="none" stroke="black" stroke-dasharray="5,2" d="M526.82,-119C446.85,-119 250,-119 250,-119 250,-119 250,-71.52 250,-71.52"/>
<polygon fill="black" stroke="black" points="253.5,-71.52 250,-61.52 246.5,-71.52 253.5,-71.52"/>
</g>
<!-- c_0_198 -->
<g id="node11" class="node">
<title>c_0_198</title>
<g id="a_node11"><a xlink:href="c_0_198.html" xlink:title="{cf(ω) c= ω|⇊|cf(ω) = Ø}" target="_parent">
<polygon fill="#f8edd1" stroke="#7f7542" points="123.5,-24 123.5,-69 198.5,-69 198.5,-24 123.5,-24"/>
<text text-anchor="middle" x="161" y="-57.8" font-family="Times,serif" font-size="14.00">cf(ω) c= ω</text>
<polyline fill="none" stroke="#7f7542" points="123.5,-54 198.5,-54 "/>
<text text-anchor="middle" x="161" y="-42.8" font-family="Times,serif" font-size="14.00">⇊</text>
<polyline fill="none" stroke="#7f7542" points="123.5,-39 198.5,-39 "/>
<text text-anchor="middle" x="161" y="-27.8" font-family="Times,serif" font-size="14.00">cf(ω) = Ø</text>
</a>
</g>
</g>
<!-- c_0_52&#45;&gt;c_0_198 -->
<g id="edge10" class="edge">
<title>c_0_52&#45;&gt;c_0_198</title>
<path fill="none" stroke="black" stroke-dasharray="5,2" d="M526.67,-122C430.77,-122 161,-122 161,-122 161,-122 161,-79.15 161,-79.15"/>
<polygon fill="black" stroke="black" points="164.5,-79.15 161,-69.15 157.5,-79.15 164.5,-79.15"/>
</g>
<!-- c_0_131 -->
<g id="node12" class="node">
<title>c_0_131</title>
<g id="a_node12"><a xlink:href="c_0_131.html" xlink:title="{cf(ω) ∈ Card|ω ∈ cf(ω)}" target="_parent">
<polygon fill="#f8edd1" stroke="#7f7542" points="16.5,-31.5 16.5,-61.5 105.5,-61.5 105.5,-31.5 16.5,-31.5"/>
<text text-anchor="middle" x="61" y="-50.3" font-family="Times,serif" font-size="14.00">cf(ω) ∈ Card</text>
<polyline fill="none" stroke="#7f7542" points="16.5,-46.5 105.5,-46.5 "/>
<text text-anchor="middle" x="61" y="-35.3" font-family="Times,serif" font-size="14.00">ω ∈ cf(ω)</text>
</a>
</g>
</g>
<!-- c_0_52&#45;&gt;c_0_131 -->
<g id="edge11" class="edge">
<title>c_0_52&#45;&gt;c_0_131</title>
<path fill="none" stroke="black" stroke-dasharray="5,2" d="M526.87,-125C415.42,-125 61,-125 61,-125 61,-125 61,-71.64 61,-71.64"/>
<polygon fill="black" stroke="black" points="64.5,-71.64 61,-61.64 57.5,-71.64 64.5,-71.64"/>
</g>
</g>
</svg>
