<?xml version="1.0" encoding="UTF-8" standalone="no"?>
<!DOCTYPE svg PUBLIC "-//W3C//DTD SVG 1.1//EN"
 "http://www.w3.org/Graphics/SVG/1.1/DTD/svg11.dtd">
<!-- Generated by graphviz version 5.0.0 (0)
 -->
<!-- Title: proof Pages: 1 -->
<svg width="120pt" height="220pt"
 viewBox="0.00 0.00 120.00 220.00" xmlns="http://www.w3.org/2000/svg" xmlns:xlink="http://www.w3.org/1999/xlink">
<g id="graph0" class="graph" transform="scale(1 1) rotate(0) translate(4 216)">
<title>proof</title>
<g id="clust1" class="cluster">
<title>cluster_0</title>
<polygon fill="transparent" stroke="black" stroke-dasharray="1,5" points="13,-142 13,-204 99,-204 99,-142 13,-142"/>
</g>
<g id="clust2" class="cluster">
<title>cluster_1</title>
<polygon fill="transparent" stroke="black" stroke-width="2" points="13,-60 13,-122 99,-122 99,-60 13,-60"/>
</g>
<g id="clust3" class="cluster">
<title>cluster_2</title>
<polygon fill="transparent" stroke="black" stroke-dasharray="1,5" points="8,-8 8,-40 104,-40 104,-8 8,-8"/>
</g>
<!-- c_0_79 -->
<g id="node1" class="node">
<title>c_0_79</title>
<g id="a_node1"><a xlink:href="c_0_79.html" xlink:title="{\|X₁\| = \|X₂\||⇊|\|X₂\| = \|X₁\|}" target="_vizar">
<polygon fill="#f8edd1" stroke="#7f7542" points="21,-150.5 21,-195.5 91,-195.5 91,-150.5 21,-150.5"/>
<text text-anchor="middle" x="56" y="-184.3" font-family="Times,serif" font-size="14.00">|X₁| = |X₂|</text>
<polyline fill="none" stroke="#7f7542" points="21,-180.5 91,-180.5 "/>
<text text-anchor="middle" x="56" y="-169.3" font-family="Times,serif" font-size="14.00">⇊</text>
<polyline fill="none" stroke="#7f7542" points="21,-165.5 91,-165.5 "/>
<text text-anchor="middle" x="56" y="-154.3" font-family="Times,serif" font-size="14.00">|X₂| = |X₁|</text>
</a>
</g>
</g>
<!-- c_0_108 -->
<g id="node2" class="node">
<title>c_0_108</title>
<g id="a_node2"><a xlink:href="c_0_108.html" xlink:title="{\|X₂\| = \|X₁\||⇊|\|X₁\| = \|X₂\|}" target="_vizar">
<polygon fill="#f8edd1" stroke="#7f7542" points="21,-68.5 21,-113.5 91,-113.5 91,-68.5 21,-68.5"/>
<text text-anchor="middle" x="56" y="-102.3" font-family="Times,serif" font-size="14.00">|X₂| = |X₁|</text>
<polyline fill="none" stroke="#7f7542" points="21,-98.5 91,-98.5 "/>
<text text-anchor="middle" x="56" y="-87.3" font-family="Times,serif" font-size="14.00">⇊</text>
<polyline fill="none" stroke="#7f7542" points="21,-83.5 91,-83.5 "/>
<text text-anchor="middle" x="56" y="-72.3" font-family="Times,serif" font-size="14.00">|X₁| = |X₂|</text>
</a>
</g>
</g>
<!-- c_0_79&#45;&gt;c_0_108 -->
<g id="edge1" class="edge">
<title>c_0_79&#45;&gt;c_0_108</title>
<path fill="none" stroke="black" d="M56,-150.16C56,-150.16 56,-123.72 56,-123.72"/>
<polygon fill="black" stroke="black" points="59.5,-123.72 56,-113.72 52.5,-123.72 59.5,-123.72"/>
</g>
<!-- c_0_121 -->
<g id="node3" class="node">
<title>c_0_121</title>
<g id="a_node3"><a xlink:href="c_0_121.html" xlink:title="{\|\|X₁\|\| = \|X₁\|}" target="_vizar">
<polygon fill="#f8edd1" stroke="#7f7542" points="16.5,-16.5 16.5,-31.5 95.5,-31.5 95.5,-16.5 16.5,-16.5"/>
<text text-anchor="middle" x="56" y="-20.3" font-family="Times,serif" font-size="14.00">||X₁|| = |X₁|</text>
</a>
</g>
</g>
<!-- c_0_108&#45;&gt;c_0_121 -->
<g id="edge2" class="edge">
<title>c_0_108&#45;&gt;c_0_121</title>
<path fill="none" stroke="black" stroke-dasharray="5,2" d="M56,-68.32C56,-68.32 56,-41.59 56,-41.59"/>
<polygon fill="black" stroke="black" points="59.5,-41.59 56,-31.59 52.5,-41.59 59.5,-41.59"/>
</g>
</g>
</svg>
