<?xml version="1.0" encoding="UTF-8" standalone="no"?>
<!DOCTYPE svg PUBLIC "-//W3C//DTD SVG 1.1//EN"
 "http://www.w3.org/Graphics/SVG/1.1/DTD/svg11.dtd">
<!-- Generated by graphviz version 5.0.0 (0)
 -->
<!-- Title: proof Pages: 1 -->
<svg width="302pt" height="295pt"
 viewBox="0.00 0.00 302.00 295.00" xmlns="http://www.w3.org/2000/svg" xmlns:xlink="http://www.w3.org/1999/xlink">
<g id="graph0" class="graph" transform="scale(1 1) rotate(0) translate(4 291)">
<title>proof</title>
<g id="clust1" class="cluster">
<title>cluster_0</title>
<polygon fill="transparent" stroke="black" stroke-dasharray="1,5" points="8,-187 8,-279 286,-279 286,-187 8,-187"/>
</g>
<g id="clust2" class="cluster">
<title>cluster_1</title>
<polygon fill="transparent" stroke="black" stroke-width="2" points="90,-90 90,-167 202,-167 202,-90 90,-90"/>
</g>
<g id="clust3" class="cluster">
<title>cluster_2</title>
<polygon fill="transparent" stroke="black" stroke-dasharray="1,5" points="104,-8 104,-70 188,-70 188,-8 104,-8"/>
</g>
<!-- c_0_153 -->
<g id="node1" class="node">
<title>c_0_153</title>
<g id="a_node1"><a xlink:href="c_0_153.html" xlink:title="{ω c= cf(ω)|⇊|ω ∈ cf(ω)}" target="_vizar">
<polygon fill="#f8edd1" stroke="#7f7542" points="202.5,-210.5 202.5,-255.5 277.5,-255.5 277.5,-210.5 202.5,-210.5"/>
<text text-anchor="middle" x="240" y="-244.3" font-family="Times,serif" font-size="14.00">ω c= cf(ω)</text>
<polyline fill="none" stroke="#7f7542" points="202.5,-240.5 277.5,-240.5 "/>
<text text-anchor="middle" x="240" y="-229.3" font-family="Times,serif" font-size="14.00">⇊</text>
<polyline fill="none" stroke="#7f7542" points="202.5,-225.5 277.5,-225.5 "/>
<text text-anchor="middle" x="240" y="-214.3" font-family="Times,serif" font-size="14.00">ω ∈ cf(ω)</text>
</a>
</g>
</g>
<!-- c_0_163 -->
<g id="node4" class="node">
<title>c_0_163</title>
<g id="a_node4"><a xlink:href="c_0_163.html" xlink:title="{ordinal(cf(ω))|ω ⊆ cf(ω)|⇊|ω ∈ cf(ω)}" target="_vizar">
<polygon fill="#f8edd1" stroke="#7f7542" points="98,-98.5 98,-158.5 194,-158.5 194,-98.5 98,-98.5"/>
<text text-anchor="middle" x="146" y="-147.3" font-family="Times,serif" font-size="14.00">ordinal(cf(ω))</text>
<polyline fill="none" stroke="#7f7542" points="98,-143.5 194,-143.5 "/>
<text text-anchor="middle" x="146" y="-132.3" font-family="Times,serif" font-size="14.00">ω ⊆ cf(ω)</text>
<polyline fill="none" stroke="#7f7542" points="98,-128.5 194,-128.5 "/>
<text text-anchor="middle" x="146" y="-117.3" font-family="Times,serif" font-size="14.00">⇊</text>
<polyline fill="none" stroke="#7f7542" points="98,-113.5 194,-113.5 "/>
<text text-anchor="middle" x="146" y="-102.3" font-family="Times,serif" font-size="14.00">ω ∈ cf(ω)</text>
</a>
</g>
</g>
<!-- c_0_153&#45;&gt;c_0_163 -->
<g id="edge1" class="edge">
<title>c_0_153&#45;&gt;c_0_163</title>
<path fill="none" stroke="black" d="M202.4,-233C194.76,-233 189,-233 189,-233 189,-233 189,-168.73 189,-168.73"/>
<polygon fill="black" stroke="black" points="192.5,-168.73 189,-158.73 185.5,-168.73 192.5,-168.73"/>
</g>
<!-- c_0_139 -->
<g id="node2" class="node">
<title>c_0_139</title>
<g id="a_node2"><a xlink:href="c_0_139.html" xlink:title="{X₁ ⊆ X₂|ordinal(X₁)|ordinal(X₂)|⇊|X₁ c= X₂}" target="_vizar">
<polygon fill="#f8edd1" stroke="#7f7542" points="108,-195.5 108,-270.5 184,-270.5 184,-195.5 108,-195.5"/>
<text text-anchor="middle" x="146" y="-259.3" font-family="Times,serif" font-size="14.00">X₁ ⊆ X₂</text>
<polyline fill="none" stroke="#7f7542" points="108,-255.5 184,-255.5 "/>
<text text-anchor="middle" x="146" y="-244.3" font-family="Times,serif" font-size="14.00">ordinal(X₁)</text>
<polyline fill="none" stroke="#7f7542" points="108,-240.5 184,-240.5 "/>
<text text-anchor="middle" x="146" y="-229.3" font-family="Times,serif" font-size="14.00">ordinal(X₂)</text>
<polyline fill="none" stroke="#7f7542" points="108,-225.5 184,-225.5 "/>
<text text-anchor="middle" x="146" y="-214.3" font-family="Times,serif" font-size="14.00">⇊</text>
<polyline fill="none" stroke="#7f7542" points="108,-210.5 184,-210.5 "/>
<text text-anchor="middle" x="146" y="-199.3" font-family="Times,serif" font-size="14.00">X₁ c= X₂</text>
</a>
</g>
</g>
<!-- c_0_139&#45;&gt;c_0_163 -->
<g id="edge2" class="edge">
<title>c_0_139&#45;&gt;c_0_163</title>
<path fill="none" stroke="black" d="M146,-195.27C146,-195.27 146,-168.64 146,-168.64"/>
<polygon fill="black" stroke="black" points="149.5,-168.64 146,-158.64 142.5,-168.64 149.5,-168.64"/>
</g>
<!-- c_0_140 -->
<g id="node3" class="node">
<title>c_0_140</title>
<g id="a_node3"><a xlink:href="c_0_140.html" xlink:title="{ordinal(ω)}" target="_vizar">
<polygon fill="#f8edd1" stroke="#7f7542" points="16.5,-225.5 16.5,-240.5 89.5,-240.5 89.5,-225.5 16.5,-225.5"/>
<text text-anchor="middle" x="53" y="-229.3" font-family="Times,serif" font-size="14.00">ordinal(ω)</text>
</a>
</g>
</g>
<!-- c_0_140&#45;&gt;c_0_163 -->
<g id="edge3" class="edge">
<title>c_0_140&#45;&gt;c_0_163</title>
<path fill="none" stroke="black" d="M89.6,-233C97.23,-233 103,-233 103,-233 103,-233 103,-168.73 103,-168.73"/>
<polygon fill="black" stroke="black" points="106.5,-168.73 103,-158.73 99.5,-168.73 106.5,-168.73"/>
</g>
<!-- c_0_173 -->
<g id="node5" class="node">
<title>c_0_173</title>
<g id="a_node5"><a xlink:href="c_0_173.html" xlink:title="{ω ⊆ cf(ω)|⇊|ω ∈ cf(ω)}" target="_vizar">
<polygon fill="#f8edd1" stroke="#7f7542" points="112.5,-16.5 112.5,-61.5 179.5,-61.5 179.5,-16.5 112.5,-16.5"/>
<text text-anchor="middle" x="146" y="-50.3" font-family="Times,serif" font-size="14.00">ω ⊆ cf(ω)</text>
<polyline fill="none" stroke="#7f7542" points="112.5,-46.5 179.5,-46.5 "/>
<text text-anchor="middle" x="146" y="-35.3" font-family="Times,serif" font-size="14.00">⇊</text>
<polyline fill="none" stroke="#7f7542" points="112.5,-31.5 179.5,-31.5 "/>
<text text-anchor="middle" x="146" y="-20.3" font-family="Times,serif" font-size="14.00">ω ∈ cf(ω)</text>
</a>
</g>
</g>
<!-- c_0_163&#45;&gt;c_0_173 -->
<g id="edge4" class="edge">
<title>c_0_163&#45;&gt;c_0_173</title>
<path fill="none" stroke="black" stroke-dasharray="5,2" d="M146,-98.2C146,-98.2 146,-71.63 146,-71.63"/>
<polygon fill="black" stroke="black" points="149.5,-71.63 146,-61.63 142.5,-71.63 149.5,-71.63"/>
</g>
</g>
</svg>
