<?xml version="1.0" encoding="UTF-8" standalone="no"?>
<!DOCTYPE svg PUBLIC "-//W3C//DTD SVG 1.1//EN"
 "http://www.w3.org/Graphics/SVG/1.1/DTD/svg11.dtd">
<!-- Generated by graphviz version 5.0.0 (0)
 -->
<!-- Title: proof Pages: 1 -->
<svg width="217pt" height="160pt"
 viewBox="0.00 0.00 217.00 160.00" xmlns="http://www.w3.org/2000/svg" xmlns:xlink="http://www.w3.org/1999/xlink">
<g id="graph0" class="graph" transform="scale(1 1) rotate(0) translate(4 156)">
<title>proof</title>
<g id="clust1" class="cluster">
<title>cluster_0</title>
<polygon fill="transparent" stroke="black" stroke-dasharray="1,5" points="60,-112 60,-144 201,-144 201,-112 60,-112"/>
</g>
<g id="clust2" class="cluster">
<title>cluster_1</title>
<polygon fill="transparent" stroke="black" stroke-width="2" points="71,-60 71,-92 131,-92 131,-60 71,-60"/>
</g>
<g id="clust3" class="cluster">
<title>cluster_2</title>
<polygon fill="transparent" stroke="black" stroke-dasharray="1,5" points="8,-8 8,-40 194,-40 194,-8 8,-8"/>
</g>
<!-- c_0_224 -->
<g id="node1" class="node">
<title>c_0_224</title>
<g id="a_node1"><a xlink:href="c_0_224.html" xlink:title="{\|Ø\| ≠ ω}" target="_vizar">
<polygon fill="#f8edd1" stroke="#7f7542" points="139.5,-120.5 139.5,-135.5 192.5,-135.5 192.5,-120.5 139.5,-120.5"/>
<text text-anchor="middle" x="166" y="-124.3" font-family="Times,serif" font-size="14.00">|Ø| ≠ ω</text>
</a>
</g>
</g>
<!-- c_0_231 -->
<g id="node3" class="node">
<title>c_0_231</title>
<g id="a_node3"><a xlink:href="c_0_231.html" xlink:title="{Ø ≠ ω}" target="_vizar">
<polygon fill="#f8edd1" stroke="#7f7542" points="79,-68.5 79,-83.5 123,-83.5 123,-68.5 79,-68.5"/>
<text text-anchor="middle" x="101" y="-72.3" font-family="Times,serif" font-size="14.00">Ø ≠ ω</text>
</a>
</g>
</g>
<!-- c_0_224&#45;&gt;c_0_231 -->
<g id="edge1" class="edge">
<title>c_0_224&#45;&gt;c_0_231</title>
<path fill="none" stroke="black" d="M162.5,-120.33C162.5,-105.86 162.5,-76 162.5,-76 162.5,-76 133.2,-76 133.2,-76"/>
<polygon fill="black" stroke="black" points="133.2,-72.5 123.2,-76 133.2,-79.5 133.2,-72.5"/>
</g>
<!-- c_0_225 -->
<g id="node2" class="node">
<title>c_0_225</title>
<g id="a_node2"><a xlink:href="c_0_225.html" xlink:title="{\|Ø\| = Ø}" target="_vizar">
<polygon fill="#f8edd1" stroke="#7f7542" points="68.5,-120.5 68.5,-135.5 121.5,-135.5 121.5,-120.5 68.5,-120.5"/>
<text text-anchor="middle" x="95" y="-124.3" font-family="Times,serif" font-size="14.00">|Ø| = Ø</text>
</a>
</g>
</g>
<!-- c_0_225&#45;&gt;c_0_231 -->
<g id="edge2" class="edge">
<title>c_0_225&#45;&gt;c_0_231</title>
<path fill="none" stroke="black" d="M100.25,-120.33C100.25,-120.33 100.25,-93.7 100.25,-93.7"/>
<polygon fill="black" stroke="black" points="103.75,-93.7 100.25,-83.7 96.75,-93.7 103.75,-93.7"/>
</g>
<!-- c_0_234 -->
<g id="node4" class="node">
<title>c_0_234</title>
<g id="a_node4"><a xlink:href="c_0_234.html" xlink:title="{¬ (is_cofinal_with(ω,ω))}" target="_vizar">
<polygon fill="#f8edd1" stroke="#7f7542" points="16.5,-16.5 16.5,-31.5 185.5,-31.5 185.5,-16.5 16.5,-16.5"/>
<text text-anchor="middle" x="101" y="-20.3" font-family="Times,serif" font-size="14.00">¬ (is_cofinal_with(ω,ω))</text>
</a>
</g>
</g>
<!-- c_0_231&#45;&gt;c_0_234 -->
<g id="edge3" class="edge">
<title>c_0_231&#45;&gt;c_0_234</title>
<path fill="none" stroke="black" stroke-dasharray="5,2" d="M101,-68.33C101,-68.33 101,-41.7 101,-41.7"/>
<polygon fill="black" stroke="black" points="104.5,-41.7 101,-31.7 97.5,-41.7 104.5,-41.7"/>
</g>
</g>
</svg>
