<?xml version="1.0" encoding="UTF-8" standalone="no"?>
<!DOCTYPE svg PUBLIC "-//W3C//DTD SVG 1.1//EN"
 "http://www.w3.org/Graphics/SVG/1.1/DTD/svg11.dtd">
<!-- Generated by graphviz version 5.0.0 (0)
 -->
<!-- Title: proof Pages: 1 -->
<svg width="478pt" height="265pt"
 viewBox="0.00 0.00 478.00 265.00" xmlns="http://www.w3.org/2000/svg" xmlns:xlink="http://www.w3.org/1999/xlink">
<g id="graph0" class="graph" transform="scale(1 1) rotate(0) translate(4 261)">
<title>proof</title>
<g id="clust1" class="cluster">
<title>cluster_0</title>
<polygon fill="transparent" stroke="black" stroke-dasharray="1,5" points="8,-172 8,-249 462,-249 462,-172 8,-172"/>
</g>
<g id="clust2" class="cluster">
<title>cluster_1</title>
<polygon fill="transparent" stroke="black" stroke-width="2" points="183,-105 183,-152 281,-152 281,-105 183,-105"/>
</g>
<g id="clust3" class="cluster">
<title>cluster_2</title>
<polygon fill="transparent" stroke="black" stroke-dasharray="1,5" points="134,-8 134,-85 340,-85 340,-8 134,-8"/>
</g>
<!-- c_0_86 -->
<g id="node1" class="node">
<title>c_0_86</title>
<g id="a_node1"><a xlink:href="c_0_86.html" xlink:title="{finite(cf(ω))|ω c= cf(ω)}" target="_parent">
<polygon fill="#f8edd1" stroke="#7f7542" points="372,-195.5 372,-225.5 454,-225.5 454,-195.5 372,-195.5"/>
<text text-anchor="middle" x="413" y="-214.3" font-family="Times,serif" font-size="14.00">finite(cf(ω))</text>
<polyline fill="none" stroke="#7f7542" points="372,-210.5 454,-210.5 "/>
<text text-anchor="middle" x="413" y="-199.3" font-family="Times,serif" font-size="14.00">ω c= cf(ω)</text>
</a>
</g>
</g>
<!-- c_0_99 -->
<g id="node6" class="node">
<title>c_0_99</title>
<g id="a_node6"><a xlink:href="c_0_99.html" xlink:title="{finite(cf(ω))|ω ∈ cf(ω)}" target="_parent">
<polygon fill="#f8edd1" stroke="#7f7542" points="191,-113.5 191,-143.5 273,-143.5 273,-113.5 191,-113.5"/>
<text text-anchor="middle" x="232" y="-132.3" font-family="Times,serif" font-size="14.00">finite(cf(ω))</text>
<polyline fill="none" stroke="#7f7542" points="191,-128.5 273,-128.5 "/>
<text text-anchor="middle" x="232" y="-117.3" font-family="Times,serif" font-size="14.00">ω ∈ cf(ω)</text>
</a>
</g>
</g>
<!-- c_0_86&#45;&gt;c_0_99 -->
<g id="edge1" class="edge">
<title>c_0_86&#45;&gt;c_0_99</title>
<path fill="none" stroke="black" d="M413,-195.26C413,-170.19 413,-123 413,-123 413,-123 283.07,-123 283.07,-123"/>
<polygon fill="black" stroke="black" points="283.07,-119.5 273.07,-123 283.07,-126.5 283.07,-119.5"/>
</g>
<!-- c_0_58 -->
<g id="node2" class="node">
<title>c_0_58</title>
<g id="a_node2"><a xlink:href="c_0_58.html" xlink:title="{κ₁ c= κ₂|⇊|κ₁ = κ₂|κ₁ ∈ κ₂}" target="_parent">
<polygon fill="#f8edd1" stroke="#7f7542" points="296,-180.5 296,-240.5 354,-240.5 354,-180.5 296,-180.5"/>
<text text-anchor="middle" x="325" y="-229.3" font-family="Times,serif" font-size="14.00">κ₁ c= κ₂</text>
<polyline fill="none" stroke="#7f7542" points="296,-225.5 354,-225.5 "/>
<text text-anchor="middle" x="325" y="-214.3" font-family="Times,serif" font-size="14.00">⇊</text>
<polyline fill="none" stroke="#7f7542" points="296,-210.5 354,-210.5 "/>
<text text-anchor="middle" x="325" y="-199.3" font-family="Times,serif" font-size="14.00">κ₁ = κ₂</text>
<polyline fill="none" stroke="#7f7542" points="296,-195.5 354,-195.5 "/>
<text text-anchor="middle" x="325" y="-184.3" font-family="Times,serif" font-size="14.00">κ₁ ∈ κ₂</text>
</a>
</g>
</g>
<!-- c_0_58&#45;&gt;c_0_99 -->
<g id="edge2" class="edge">
<title>c_0_58&#45;&gt;c_0_99</title>
<path fill="none" stroke="black" d="M314,-180.31C314,-158.55 314,-133 314,-133 314,-133 283.48,-133 283.48,-133"/>
<polygon fill="black" stroke="black" points="283.48,-129.5 273.48,-133 283.48,-136.5 283.48,-129.5"/>
</g>
<!-- c_0_42 -->
<g id="node3" class="node">
<title>c_0_42</title>
<g id="a_node3"><a xlink:href="c_0_42.html" xlink:title="{cf(κ₁) ∈ Card}" target="_parent">
<polygon fill="#f8edd1" stroke="#7f7542" points="186,-203 186,-218 278,-218 278,-203 186,-203"/>
<text text-anchor="middle" x="232" y="-206.8" font-family="Times,serif" font-size="14.00">cf(κ₁) ∈ Card</text>
</a>
</g>
</g>
<!-- c_0_42&#45;&gt;c_0_99 -->
<g id="edge3" class="edge">
<title>c_0_42&#45;&gt;c_0_99</title>
<path fill="none" stroke="black" d="M232,-202.93C232,-202.93 232,-153.8 232,-153.8"/>
<polygon fill="black" stroke="black" points="235.5,-153.8 232,-143.8 228.5,-153.8 235.5,-153.8"/>
</g>
<!-- c_0_62 -->
<g id="node4" class="node">
<title>c_0_62</title>
<g id="a_node4"><a xlink:href="c_0_62.html" xlink:title="{cf(ω) ≠ ω}" target="_parent">
<polygon fill="#fa6900" stroke="#7f7542" points="100.5,-203 100.5,-218 167.5,-218 167.5,-203 100.5,-203"/>
<text text-anchor="middle" x="134" y="-206.8" font-family="Times,serif" font-size="14.00">cf(ω) ≠ ω</text>
</a>
</g>
</g>
<!-- c_0_62&#45;&gt;c_0_99 -->
<g id="edge4" class="edge">
<title>c_0_62&#45;&gt;c_0_99</title>
<path fill="none" stroke="black" d="M155,-202.79C155,-183.18 155,-133 155,-133 155,-133 180.79,-133 180.79,-133"/>
<polygon fill="black" stroke="black" points="180.79,-136.5 190.79,-133 180.79,-129.5 180.79,-136.5"/>
</g>
<!-- c_0_52 -->
<g id="node5" class="node">
<title>c_0_52</title>
<g id="a_node5"><a xlink:href="c_0_52.html" xlink:title="{ω ∈ Card}" target="_parent">
<polygon fill="#f8edd1" stroke="#7f7542" points="16,-203 16,-218 82,-218 82,-203 16,-203"/>
<text text-anchor="middle" x="49" y="-206.8" font-family="Times,serif" font-size="14.00">ω ∈ Card</text>
</a>
</g>
</g>
<!-- c_0_52&#45;&gt;c_0_99 -->
<g id="edge5" class="edge">
<title>c_0_52&#45;&gt;c_0_99</title>
<path fill="none" stroke="black" d="M49,-202.73C49,-181.32 49,-123 49,-123 49,-123 180.93,-123 180.93,-123"/>
<polygon fill="black" stroke="black" points="180.93,-126.5 190.93,-123 180.93,-119.5 180.93,-126.5"/>
</g>
<!-- c_0_123 -->
<g id="node7" class="node">
<title>c_0_123</title>
<g id="a_node7"><a xlink:href="c_0_123.html" xlink:title="{ordinal(cf(ω))|⇊|cf(ω) ∈ Card|ω ∈ cf(ω)}" target="_parent">
<polygon fill="#f8edd1" stroke="#7f7542" points="236,-16.5 236,-76.5 332,-76.5 332,-16.5 236,-16.5"/>
<text text-anchor="middle" x="284" y="-65.3" font-family="Times,serif" font-size="14.00">ordinal(cf(ω))</text>
<polyline fill="none" stroke="#7f7542" points="236,-61.5 332,-61.5 "/>
<text text-anchor="middle" x="284" y="-50.3" font-family="Times,serif" font-size="14.00">⇊</text>
<polyline fill="none" stroke="#7f7542" points="236,-46.5 332,-46.5 "/>
<text text-anchor="middle" x="284" y="-35.3" font-family="Times,serif" font-size="14.00">cf(ω) ∈ Card</text>
<polyline fill="none" stroke="#7f7542" points="236,-31.5 332,-31.5 "/>
<text text-anchor="middle" x="284" y="-20.3" font-family="Times,serif" font-size="14.00">ω ∈ cf(ω)</text>
</a>
</g>
</g>
<!-- c_0_99&#45;&gt;c_0_123 -->
<g id="edge6" class="edge">
<title>c_0_99&#45;&gt;c_0_123</title>
<path fill="none" stroke="black" stroke-dasharray="5,2" d="M254.5,-113.46C254.5,-113.46 254.5,-86.73 254.5,-86.73"/>
<polygon fill="black" stroke="black" points="258,-86.73 254.5,-76.73 251,-86.73 258,-86.73"/>
</g>
<!-- c_0_153 -->
<g id="node8" class="node">
<title>c_0_153</title>
<g id="a_node8"><a xlink:href="c_0_153.html" xlink:title="{ω c= cf(ω)|⇊|ω ∈ cf(ω)}" target="_parent">
<polygon fill="#f8edd1" stroke="#7f7542" points="142.5,-24 142.5,-69 217.5,-69 217.5,-24 142.5,-24"/>
<text text-anchor="middle" x="180" y="-57.8" font-family="Times,serif" font-size="14.00">ω c= cf(ω)</text>
<polyline fill="none" stroke="#7f7542" points="142.5,-54 217.5,-54 "/>
<text text-anchor="middle" x="180" y="-42.8" font-family="Times,serif" font-size="14.00">⇊</text>
<polyline fill="none" stroke="#7f7542" points="142.5,-39 217.5,-39 "/>
<text text-anchor="middle" x="180" y="-27.8" font-family="Times,serif" font-size="14.00">ω ∈ cf(ω)</text>
</a>
</g>
</g>
<!-- c_0_99&#45;&gt;c_0_153 -->
<g id="edge7" class="edge">
<title>c_0_99&#45;&gt;c_0_153</title>
<path fill="none" stroke="black" stroke-dasharray="5,2" d="M204.25,-113.46C204.25,-113.46 204.25,-79.19 204.25,-79.19"/>
<polygon fill="black" stroke="black" points="207.75,-79.19 204.25,-69.19 200.75,-79.19 207.75,-79.19"/>
</g>
</g>
</svg>
