<?xml version="1.0" encoding="UTF-8" standalone="no"?>
<!DOCTYPE svg PUBLIC "-//W3C//DTD SVG 1.1//EN"
 "http://www.w3.org/Graphics/SVG/1.1/DTD/svg11.dtd">
<!-- Generated by graphviz version 5.0.0 (0)
 -->
<!-- Title: proof Pages: 1 -->
<svg width="116pt" height="138pt"
 viewBox="0.00 0.00 116.00 138.00" xmlns="http://www.w3.org/2000/svg" xmlns:xlink="http://www.w3.org/1999/xlink">
<g id="graph0" class="graph" transform="scale(1 1) rotate(0) translate(4 134)">
<title>proof</title>
<g id="clust1" class="cluster">
<title>cluster_1</title>
<polygon fill="transparent" stroke="black" stroke-width="2" points="8,-90 8,-122 100,-122 100,-90 8,-90"/>
</g>
<g id="clust2" class="cluster">
<title>cluster_2</title>
<polygon fill="transparent" stroke="black" stroke-dasharray="1,5" points="17,-8 17,-70 91,-70 91,-8 17,-8"/>
</g>
<!-- fc1_card_1 -->
<g id="node1" class="node">
<title>fc1_card_1</title>
<g id="a_node1"><a xlink:href="fc1_card_1.html" xlink:title="fc1_card_1" target="_vizar">
<polygon fill="#69d2e7" stroke="#7f7542" points="16,-98.5 16,-113.5 92,-113.5 92,-98.5 16,-98.5"/>
<text text-anchor="middle" x="54" y="-102.3" font-family="Times,serif" font-size="14.00">fc1_card_1</text>
</a>
</g>
</g>
<!-- c_0_183 -->
<g id="node2" class="node">
<title>c_0_183</title>
<g id="a_node2"><a xlink:href="c_0_183.html" xlink:title="{X₁ = Ø|⇊|\|X₁\| = Ø}" target="_vizar">
<polygon fill="#f8edd1" stroke="#7f7542" points="25.5,-16.5 25.5,-61.5 82.5,-61.5 82.5,-16.5 25.5,-16.5"/>
<text text-anchor="middle" x="54" y="-50.3" font-family="Times,serif" font-size="14.00">X₁ = Ø</text>
<polyline fill="none" stroke="#7f7542" points="25.5,-46.5 82.5,-46.5 "/>
<text text-anchor="middle" x="54" y="-35.3" font-family="Times,serif" font-size="14.00">⇊</text>
<polyline fill="none" stroke="#7f7542" points="25.5,-31.5 82.5,-31.5 "/>
<text text-anchor="middle" x="54" y="-20.3" font-family="Times,serif" font-size="14.00">|X₁| = Ø</text>
</a>
</g>
</g>
<!-- fc1_card_1&#45;&gt;c_0_183 -->
<g id="edge1" class="edge">
<title>fc1_card_1&#45;&gt;c_0_183</title>
<path fill="none" stroke="black" d="M54,-98.31C54,-98.31 54,-71.76 54,-71.76"/>
<polygon fill="black" stroke="black" points="57.5,-71.76 54,-61.76 50.5,-71.76 57.5,-71.76"/>
</g>
</g>
</svg>
