<?xml version="1.0" encoding="UTF-8" standalone="no"?>
<!DOCTYPE svg PUBLIC "-//W3C//DTD SVG 1.1//EN"
 "http://www.w3.org/Graphics/SVG/1.1/DTD/svg11.dtd">
<!-- Generated by graphviz version 5.0.0 (0)
 -->
<!-- Title: proof Pages: 1 -->
<svg width="204pt" height="138pt"
 viewBox="0.00 0.00 204.00 138.00" xmlns="http://www.w3.org/2000/svg" xmlns:xlink="http://www.w3.org/1999/xlink">
<g id="graph0" class="graph" transform="scale(1 1) rotate(0) translate(4 134)">
<title>proof</title>
<g id="clust1" class="cluster">
<title>cluster_1</title>
<polygon fill="transparent" stroke="black" stroke-width="2" points="8,-90 8,-122 188,-122 188,-90 8,-90"/>
</g>
<g id="clust2" class="cluster">
<title>cluster_2</title>
<polygon fill="transparent" stroke="black" stroke-dasharray="1,5" points="55,-8 55,-70 141,-70 141,-8 55,-8"/>
</g>
<!-- symmetry_r2_wellord2 -->
<g id="node1" class="node">
<title>symmetry_r2_wellord2</title>
<g id="a_node1"><a xlink:href="symmetry_r2_wellord2.html" xlink:title="symmetry_r2_wellord2" target="_vizar">
<polygon fill="#69d2e7" stroke="#7f7542" points="16,-98.5 16,-113.5 180,-113.5 180,-98.5 16,-98.5"/>
<text text-anchor="middle" x="98" y="-102.3" font-family="Times,serif" font-size="14.00">symmetry_r2_wellord2</text>
</a>
</g>
</g>
<!-- c_0_79 -->
<g id="node2" class="node">
<title>c_0_79</title>
<g id="a_node2"><a xlink:href="c_0_79.html" xlink:title="{\|X₁\| = \|X₂\||⇊|\|X₂\| = \|X₁\|}" target="_vizar">
<polygon fill="#f8edd1" stroke="#7f7542" points="63,-16.5 63,-61.5 133,-61.5 133,-16.5 63,-16.5"/>
<text text-anchor="middle" x="98" y="-50.3" font-family="Times,serif" font-size="14.00">|X₁| = |X₂|</text>
<polyline fill="none" stroke="#7f7542" points="63,-46.5 133,-46.5 "/>
<text text-anchor="middle" x="98" y="-35.3" font-family="Times,serif" font-size="14.00">⇊</text>
<polyline fill="none" stroke="#7f7542" points="63,-31.5 133,-31.5 "/>
<text text-anchor="middle" x="98" y="-20.3" font-family="Times,serif" font-size="14.00">|X₂| = |X₁|</text>
</a>
</g>
</g>
<!-- symmetry_r2_wellord2&#45;&gt;c_0_79 -->
<g id="edge1" class="edge">
<title>symmetry_r2_wellord2&#45;&gt;c_0_79</title>
<path fill="none" stroke="black" d="M98,-98.31C98,-98.31 98,-71.76 98,-71.76"/>
<polygon fill="black" stroke="black" points="101.5,-71.76 98,-61.76 94.5,-71.76 101.5,-71.76"/>
</g>
</g>
</svg>
