<?xml version="1.0" encoding="UTF-8" standalone="no"?>
<!DOCTYPE svg PUBLIC "-//W3C//DTD SVG 1.1//EN"
 "http://www.w3.org/Graphics/SVG/1.1/DTD/svg11.dtd">
<!-- Generated by graphviz version 5.0.0 (0)
 -->
<!-- Title: proof Pages: 1 -->
<svg width="343pt" height="415pt"
 viewBox="0.00 0.00 343.00 415.00" xmlns="http://www.w3.org/2000/svg" xmlns:xlink="http://www.w3.org/1999/xlink">
<g id="graph0" class="graph" transform="scale(1 1) rotate(0) translate(4 411)">
<title>proof</title>
<g id="clust1" class="cluster">
<title>cluster_0</title>
<polygon fill="transparent" stroke="black" stroke-dasharray="1,5" points="8,-277 8,-399 309,-399 309,-277 8,-277"/>
</g>
<g id="clust2" class="cluster">
<title>cluster_1</title>
<polygon fill="transparent" stroke="black" stroke-width="2" points="19,-135 19,-257 327,-257 327,-135 19,-135"/>
</g>
<g id="clust3" class="cluster">
<title>cluster_2</title>
<polygon fill="transparent" stroke="black" stroke-dasharray="1,5" points="44,-8 44,-115 302,-115 302,-8 44,-8"/>
</g>
<!-- c_0_112 -->
<g id="node1" class="node">
<title>c_0_112</title>
<g id="a_node1"><a xlink:href="c_0_112.html" xlink:title="{Group&#45;like(X₂)|X₁ ∈ proj₂(sk₂(X₂))|associative(X₂)|multMagma(X₂)|⇊|X₁ ∈ a_1_0_group_2(X₂)|empty(X₂)}" target="_parent">
<polygon fill="#f8edd1" stroke="#7f7542" points="135.5,-285.5 135.5,-390.5 300.5,-390.5 300.5,-285.5 135.5,-285.5"/>
<text text-anchor="middle" x="218" y="-379.3" font-family="Times,serif" font-size="14.00">Group&#45;like(X₂)</text>
<polyline fill="none" stroke="#7f7542" points="135.5,-375.5 300.5,-375.5 "/>
<text text-anchor="middle" x="218" y="-364.3" font-family="Times,serif" font-size="14.00">X₁ ∈ proj₂(sk₂(X₂))</text>
<polyline fill="none" stroke="#7f7542" points="135.5,-360.5 300.5,-360.5 "/>
<text text-anchor="middle" x="218" y="-349.3" font-family="Times,serif" font-size="14.00">associative(X₂)</text>
<polyline fill="none" stroke="#7f7542" points="135.5,-345.5 300.5,-345.5 "/>
<text text-anchor="middle" x="218" y="-334.3" font-family="Times,serif" font-size="14.00">multMagma(X₂)</text>
<polyline fill="none" stroke="#7f7542" points="135.5,-330.5 300.5,-330.5 "/>
<text text-anchor="middle" x="218" y="-319.3" font-family="Times,serif" font-size="14.00">⇊</text>
<polyline fill="none" stroke="#7f7542" points="135.5,-315.5 300.5,-315.5 "/>
<text text-anchor="middle" x="218" y="-304.3" font-family="Times,serif" font-size="14.00">X₁ ∈ a_1_0_group_2(X₂)</text>
<polyline fill="none" stroke="#7f7542" points="135.5,-300.5 300.5,-300.5 "/>
<text text-anchor="middle" x="218" y="-289.3" font-family="Times,serif" font-size="14.00">empty(X₂)</text>
</a>
</g>
</g>
<!-- c_0_125 -->
<g id="node3" class="node">
<title>c_0_125</title>
<g id="a_node3"><a xlink:href="c_0_125.html" xlink:title="{Group&#45;like(X₁)|associative(X₁)|multMagma(X₁)|⇊|empty(X₁)|proj₂(sk₂(X₁)) ⊆ X₂|sk₄(proj₂(sk₂(X₁)),X₂) ∈ a_1_0_group_2(X₁)}" target="_parent">
<polygon fill="#f8edd1" stroke="#7f7542" points="27,-143.5 27,-248.5 319,-248.5 319,-143.5 27,-143.5"/>
<text text-anchor="middle" x="173" y="-237.3" font-family="Times,serif" font-size="14.00">Group&#45;like(X₁)</text>
<polyline fill="none" stroke="#7f7542" points="27,-233.5 319,-233.5 "/>
<text text-anchor="middle" x="173" y="-222.3" font-family="Times,serif" font-size="14.00">associative(X₁)</text>
<polyline fill="none" stroke="#7f7542" points="27,-218.5 319,-218.5 "/>
<text text-anchor="middle" x="173" y="-207.3" font-family="Times,serif" font-size="14.00">multMagma(X₁)</text>
<polyline fill="none" stroke="#7f7542" points="27,-203.5 319,-203.5 "/>
<text text-anchor="middle" x="173" y="-192.3" font-family="Times,serif" font-size="14.00">⇊</text>
<polyline fill="none" stroke="#7f7542" points="27,-188.5 319,-188.5 "/>
<text text-anchor="middle" x="173" y="-177.3" font-family="Times,serif" font-size="14.00">empty(X₁)</text>
<polyline fill="none" stroke="#7f7542" points="27,-173.5 319,-173.5 "/>
<text text-anchor="middle" x="173" y="-162.3" font-family="Times,serif" font-size="14.00">proj₂(sk₂(X₁)) ⊆ X₂</text>
<polyline fill="none" stroke="#7f7542" points="27,-158.5 319,-158.5 "/>
<text text-anchor="middle" x="173" y="-147.3" font-family="Times,serif" font-size="14.00">sk₄(proj₂(sk₂(X₁)),X₂) ∈ a_1_0_group_2(X₁)</text>
</a>
</g>
</g>
<!-- c_0_112&#45;&gt;c_0_125 -->
<g id="edge1" class="edge">
<title>c_0_112&#45;&gt;c_0_125</title>
<path fill="none" stroke="black" d="M218,-285.12C218,-285.12 218,-258.92 218,-258.92"/>
<polygon fill="black" stroke="black" points="221.5,-258.92 218,-248.92 214.5,-258.92 221.5,-258.92"/>
</g>
<!-- c_0_58 -->
<g id="node2" class="node">
<title>c_0_58</title>
<g id="a_node2"><a xlink:href="c_0_58.html" xlink:title="{X₁ ⊆ X₂|sk₄(X₁,X₂) ∈ X₁}" target="_parent">
<polygon fill="#f8edd1" stroke="#7f7542" points="16.5,-323 16.5,-353 117.5,-353 117.5,-323 16.5,-323"/>
<text text-anchor="middle" x="67" y="-341.8" font-family="Times,serif" font-size="14.00">X₁ ⊆ X₂</text>
<polyline fill="none" stroke="#7f7542" points="16.5,-338 117.5,-338 "/>
<text text-anchor="middle" x="67" y="-326.8" font-family="Times,serif" font-size="14.00">sk₄(X₁,X₂) ∈ X₁</text>
</a>
</g>
</g>
<!-- c_0_58&#45;&gt;c_0_125 -->
<g id="edge2" class="edge">
<title>c_0_58&#45;&gt;c_0_125</title>
<path fill="none" stroke="black" d="M72.25,-322.8C72.25,-322.8 72.25,-258.54 72.25,-258.54"/>
<polygon fill="black" stroke="black" points="75.75,-258.54 72.25,-248.54 68.75,-258.54 75.75,-258.54"/>
</g>
<!-- c_0_134 -->
<g id="node4" class="node">
<title>c_0_134</title>
<g id="a_node4"><a xlink:href="c_0_134.html" xlink:title="{Group&#45;like(X₁)|associative(X₁)|multMagma(X₁)|⇊|empty(X₁)|proj₂(sk₂(X₁)) ⊆ a_1_0_group_2(X₁)}" target="_parent">
<polygon fill="#f8edd1" stroke="#7f7542" points="52,-16.5 52,-106.5 294,-106.5 294,-16.5 52,-16.5"/>
<text text-anchor="middle" x="173" y="-95.3" font-family="Times,serif" font-size="14.00">Group&#45;like(X₁)</text>
<polyline fill="none" stroke="#7f7542" points="52,-91.5 294,-91.5 "/>
<text text-anchor="middle" x="173" y="-80.3" font-family="Times,serif" font-size="14.00">associative(X₁)</text>
<polyline fill="none" stroke="#7f7542" points="52,-76.5 294,-76.5 "/>
<text text-anchor="middle" x="173" y="-65.3" font-family="Times,serif" font-size="14.00">multMagma(X₁)</text>
<polyline fill="none" stroke="#7f7542" points="52,-61.5 294,-61.5 "/>
<text text-anchor="middle" x="173" y="-50.3" font-family="Times,serif" font-size="14.00">⇊</text>
<polyline fill="none" stroke="#7f7542" points="52,-46.5 294,-46.5 "/>
<text text-anchor="middle" x="173" y="-35.3" font-family="Times,serif" font-size="14.00">empty(X₁)</text>
<polyline fill="none" stroke="#7f7542" points="52,-31.5 294,-31.5 "/>
<text text-anchor="middle" x="173" y="-20.3" font-family="Times,serif" font-size="14.00">proj₂(sk₂(X₁)) ⊆ a_1_0_group_2(X₁)</text>
</a>
</g>
</g>
<!-- c_0_125&#45;&gt;c_0_134 -->
<g id="edge3" class="edge">
<title>c_0_125&#45;&gt;c_0_134</title>
<path fill="none" stroke="black" stroke-dasharray="5,2" d="M173,-143.23C173,-143.23 173,-116.72 173,-116.72"/>
<polygon fill="black" stroke="black" points="176.5,-116.72 173,-106.72 169.5,-116.72 176.5,-116.72"/>
</g>
</g>
</svg>
