<?xml version="1.0" encoding="UTF-8" standalone="no"?>
<!DOCTYPE svg PUBLIC "-//W3C//DTD SVG 1.1//EN"
 "http://www.w3.org/Graphics/SVG/1.1/DTD/svg11.dtd">
<!-- Generated by graphviz version 5.0.0 (0)
 -->
<!-- Title: proof Pages: 1 -->
<svg width="225pt" height="310pt"
 viewBox="0.00 0.00 225.00 310.00" xmlns="http://www.w3.org/2000/svg" xmlns:xlink="http://www.w3.org/1999/xlink">
<g id="graph0" class="graph" transform="scale(1 1) rotate(0) translate(4 306)">
<title>proof</title>
<g id="clust1" class="cluster">
<title>cluster_0</title>
<polygon fill="transparent" stroke="black" stroke-dasharray="1,5" points="13,-232 13,-294 209,-294 209,-232 13,-232"/>
</g>
<g id="clust2" class="cluster">
<title>cluster_1</title>
<polygon fill="transparent" stroke="black" stroke-width="2" points="36,-150 36,-212 162,-212 162,-150 36,-150"/>
</g>
<g id="clust3" class="cluster">
<title>cluster_2</title>
<polygon fill="transparent" stroke="black" stroke-dasharray="1,5" points="8,-8 8,-130 190,-130 190,-8 8,-8"/>
</g>
<!-- c_0_82 -->
<g id="node1" class="node">
<title>c_0_82</title>
<g id="a_node1"><a xlink:href="c_0_82.html" xlink:title="{X₁ ⊆ X₂|⇊|X₁ ∈ bool(X₂)}" target="_parent">
<polygon fill="#f8edd1" stroke="#7f7542" points="109.5,-240.5 109.5,-285.5 200.5,-285.5 200.5,-240.5 109.5,-240.5"/>
<text text-anchor="middle" x="155" y="-274.3" font-family="Times,serif" font-size="14.00">X₁ ⊆ X₂</text>
<polyline fill="none" stroke="#7f7542" points="109.5,-270.5 200.5,-270.5 "/>
<text text-anchor="middle" x="155" y="-259.3" font-family="Times,serif" font-size="14.00">⇊</text>
<polyline fill="none" stroke="#7f7542" points="109.5,-255.5 200.5,-255.5 "/>
<text text-anchor="middle" x="155" y="-244.3" font-family="Times,serif" font-size="14.00">X₁ ∈ bool(X₂)</text>
</a>
</g>
</g>
<!-- c_0_88 -->
<g id="node3" class="node">
<title>c_0_88</title>
<g id="a_node3"><a xlink:href="c_0_88.html" xlink:title="{X₁ ∈ X₂|⇊|\{X₁\} ∈ bool(X₂)}" target="_parent">
<polygon fill="#f8edd1" stroke="#7f7542" points="44.5,-158.5 44.5,-203.5 153.5,-203.5 153.5,-158.5 44.5,-158.5"/>
<text text-anchor="middle" x="99" y="-192.3" font-family="Times,serif" font-size="14.00">X₁ ∈ X₂</text>
<polyline fill="none" stroke="#7f7542" points="44.5,-188.5 153.5,-188.5 "/>
<text text-anchor="middle" x="99" y="-177.3" font-family="Times,serif" font-size="14.00">⇊</text>
<polyline fill="none" stroke="#7f7542" points="44.5,-173.5 153.5,-173.5 "/>
<text text-anchor="middle" x="99" y="-162.3" font-family="Times,serif" font-size="14.00">{X₁} ∈ bool(X₂)</text>
</a>
</g>
</g>
<!-- c_0_82&#45;&gt;c_0_88 -->
<g id="edge1" class="edge">
<title>c_0_82&#45;&gt;c_0_88</title>
<path fill="none" stroke="black" d="M131.5,-240.16C131.5,-240.16 131.5,-213.72 131.5,-213.72"/>
<polygon fill="black" stroke="black" points="135,-213.72 131.5,-203.72 128,-213.72 135,-213.72"/>
</g>
<!-- c_0_83 -->
<g id="node2" class="node">
<title>c_0_83</title>
<g id="a_node2"><a xlink:href="c_0_83.html" xlink:title="{X₁ ∈ X₂|⇊|\{X₁\} ⊆ X₂}" target="_parent">
<polygon fill="#f8edd1" stroke="#7f7542" points="21,-240.5 21,-285.5 91,-285.5 91,-240.5 21,-240.5"/>
<text text-anchor="middle" x="56" y="-274.3" font-family="Times,serif" font-size="14.00">X₁ ∈ X₂</text>
<polyline fill="none" stroke="#7f7542" points="21,-270.5 91,-270.5 "/>
<text text-anchor="middle" x="56" y="-259.3" font-family="Times,serif" font-size="14.00">⇊</text>
<polyline fill="none" stroke="#7f7542" points="21,-255.5 91,-255.5 "/>
<text text-anchor="middle" x="56" y="-244.3" font-family="Times,serif" font-size="14.00">{X₁} ⊆ X₂</text>
</a>
</g>
</g>
<!-- c_0_83&#45;&gt;c_0_88 -->
<g id="edge2" class="edge">
<title>c_0_83&#45;&gt;c_0_88</title>
<path fill="none" stroke="black" d="M67.75,-240.16C67.75,-240.16 67.75,-213.72 67.75,-213.72"/>
<polygon fill="black" stroke="black" points="71.25,-213.72 67.75,-203.72 64.25,-213.72 71.25,-213.72"/>
</g>
<!-- c_0_93 -->
<g id="node4" class="node">
<title>c_0_93</title>
<g id="a_node4"><a xlink:href="c_0_93.html" xlink:title="{Group&#45;like(X₂)|X₁ = \{X₃\}|X₃ ∈ carrier(X₂)|associative(X₂)|multMagma(X₂)|⇊|X₁ ∈ a_1_0_group_2(X₂)}" target="_parent">
<polygon fill="#f8edd1" stroke="#7f7542" points="16.5,-16.5 16.5,-121.5 181.5,-121.5 181.5,-16.5 16.5,-16.5"/>
<text text-anchor="middle" x="99" y="-110.3" font-family="Times,serif" font-size="14.00">Group&#45;like(X₂)</text>
<polyline fill="none" stroke="#7f7542" points="16.5,-106.5 181.5,-106.5 "/>
<text text-anchor="middle" x="99" y="-95.3" font-family="Times,serif" font-size="14.00">X₁ = {X₃}</text>
<polyline fill="none" stroke="#7f7542" points="16.5,-91.5 181.5,-91.5 "/>
<text text-anchor="middle" x="99" y="-80.3" font-family="Times,serif" font-size="14.00">X₃ ∈ carrier(X₂)</text>
<polyline fill="none" stroke="#7f7542" points="16.5,-76.5 181.5,-76.5 "/>
<text text-anchor="middle" x="99" y="-65.3" font-family="Times,serif" font-size="14.00">associative(X₂)</text>
<polyline fill="none" stroke="#7f7542" points="16.5,-61.5 181.5,-61.5 "/>
<text text-anchor="middle" x="99" y="-50.3" font-family="Times,serif" font-size="14.00">multMagma(X₂)</text>
<polyline fill="none" stroke="#7f7542" points="16.5,-46.5 181.5,-46.5 "/>
<text text-anchor="middle" x="99" y="-35.3" font-family="Times,serif" font-size="14.00">⇊</text>
<polyline fill="none" stroke="#7f7542" points="16.5,-31.5 181.5,-31.5 "/>
<text text-anchor="middle" x="99" y="-20.3" font-family="Times,serif" font-size="14.00">X₁ ∈ a_1_0_group_2(X₂)</text>
</a>
</g>
</g>
<!-- c_0_88&#45;&gt;c_0_93 -->
<g id="edge3" class="edge">
<title>c_0_88&#45;&gt;c_0_93</title>
<path fill="none" stroke="black" stroke-dasharray="5,2" d="M99,-158.34C99,-158.34 99,-131.72 99,-131.72"/>
<polygon fill="black" stroke="black" points="102.5,-131.72 99,-121.72 95.5,-131.72 102.5,-131.72"/>
</g>
</g>
</svg>
