<?xml version="1.0" encoding="UTF-8" standalone="no"?>
<!DOCTYPE svg PUBLIC "-//W3C//DTD SVG 1.1//EN"
 "http://www.w3.org/Graphics/SVG/1.1/DTD/svg11.dtd">
<!-- Generated by graphviz version 5.0.0 (0)
 -->
<!-- Title: proof Pages: 1 -->
<svg width="270pt" height="160pt"
 viewBox="0.00 0.00 270.00 160.00" xmlns="http://www.w3.org/2000/svg" xmlns:xlink="http://www.w3.org/1999/xlink">
<g id="graph0" class="graph" transform="scale(1 1) rotate(0) translate(4 156)">
<title>proof</title>
<g id="clust1" class="cluster">
<title>cluster_0</title>
<polygon fill="transparent" stroke="black" stroke-dasharray="1,5" points="74,-112 74,-144 188,-144 188,-112 74,-112"/>
</g>
<g id="clust2" class="cluster">
<title>cluster_1</title>
<polygon fill="transparent" stroke="black" stroke-width="2" points="16,-60 16,-92 246,-92 246,-60 16,-60"/>
</g>
<g id="clust3" class="cluster">
<title>cluster_2</title>
<polygon fill="transparent" stroke="black" stroke-dasharray="1,5" points="8,-8 8,-40 254,-40 254,-8 8,-8"/>
</g>
<!-- t152_group_2 -->
<g id="node1" class="node">
<title>t152_group_2</title>
<g id="a_node1"><a xlink:href="t152_group_2.html" xlink:title="t152_group_2" target="_vizar">
<polygon fill="#fa6900" stroke="#7f7542" points="82,-120.5 82,-135.5 180,-135.5 180,-120.5 82,-120.5"/>
<text text-anchor="middle" x="131" y="-124.3" font-family="Times,serif" font-size="14.00">t152_group_2</text>
</a>
</g>
</g>
<!-- c_0_137 -->
<g id="node2" class="node">
<title>c_0_137</title>
<g id="a_node2"><a xlink:href="c_0_137.html" xlink:title="{Index(sk₁, (1). sk₁) ≠ card(sk₁)}" target="_vizar">
<polygon fill="#fa6900" stroke="#7f7542" points="24,-68.5 24,-83.5 238,-83.5 238,-68.5 24,-68.5"/>
<text text-anchor="middle" x="131" y="-72.3" font-family="Times,serif" font-size="14.00">Index(sk₁, (1). sk₁) ≠ card(sk₁)</text>
</a>
</g>
</g>
<!-- t152_group_2&#45;&gt;c_0_137 -->
<g id="edge1" class="edge">
<title>t152_group_2&#45;&gt;c_0_137</title>
<path fill="none" stroke="black" d="M131,-120.33C131,-120.33 131,-93.7 131,-93.7"/>
<polygon fill="black" stroke="black" points="134.5,-93.7 131,-83.7 127.5,-93.7 134.5,-93.7"/>
</g>
<!-- c_0_146 -->
<g id="node3" class="node">
<title>c_0_146</title>
<g id="a_node3"><a xlink:href="c_0_146.html" xlink:title="{\|a_1_0_group_2(sk₁)\| ≠ card(sk₁)}" target="_vizar">
<polygon fill="#fa6900" stroke="#7f7542" points="16.5,-16.5 16.5,-31.5 245.5,-31.5 245.5,-16.5 16.5,-16.5"/>
<text text-anchor="middle" x="131" y="-20.3" font-family="Times,serif" font-size="14.00">|a_1_0_group_2(sk₁)| ≠ card(sk₁)</text>
</a>
</g>
</g>
<!-- c_0_137&#45;&gt;c_0_146 -->
<g id="edge2" class="edge">
<title>c_0_137&#45;&gt;c_0_146</title>
<path fill="none" stroke="black" stroke-dasharray="5,2" d="M131,-68.33C131,-68.33 131,-41.7 131,-41.7"/>
<polygon fill="black" stroke="black" points="134.5,-41.7 131,-31.7 127.5,-41.7 134.5,-41.7"/>
</g>
</g>
</svg>
