<?xml version="1.0" encoding="UTF-8" standalone="no"?>
<!DOCTYPE svg PUBLIC "-//W3C//DTD SVG 1.1//EN"
 "http://www.w3.org/Graphics/SVG/1.1/DTD/svg11.dtd">
<!-- Generated by graphviz version 5.0.0 (0)
 -->
<!-- Title: proof Pages: 1 -->
<svg width="142pt" height="205pt"
 viewBox="0.00 0.00 142.00 205.00" xmlns="http://www.w3.org/2000/svg" xmlns:xlink="http://www.w3.org/1999/xlink">
<g id="graph0" class="graph" transform="scale(1 1) rotate(0) translate(4 201)">
<title>proof</title>
<g id="clust1" class="cluster">
<title>cluster_0</title>
<polygon fill="transparent" stroke="black" stroke-dasharray="1,5" points="24,-157 24,-189 110,-189 110,-157 24,-157"/>
</g>
<g id="clust2" class="cluster">
<title>cluster_1</title>
<polygon fill="transparent" stroke="black" stroke-width="2" points="34,-75 34,-137 100,-137 100,-75 34,-75"/>
</g>
<g id="clust3" class="cluster">
<title>cluster_2</title>
<polygon fill="transparent" stroke="black" stroke-dasharray="1,5" points="8,-8 8,-55 126,-55 126,-8 8,-8"/>
</g>
<!-- t1_subset -->
<g id="node1" class="node">
<title>t1_subset</title>
<g id="a_node1"><a xlink:href="t1_subset.html" xlink:title="t1_subset" target="_vizar">
<polygon fill="#69d2e7" stroke="#7f7542" points="32,-165.5 32,-180.5 102,-180.5 102,-165.5 32,-165.5"/>
<text text-anchor="middle" x="67" y="-169.3" font-family="Times,serif" font-size="14.00">t1_subset</text>
</a>
</g>
</g>
<!-- c_0_57 -->
<g id="node2" class="node">
<title>c_0_57</title>
<g id="a_node2"><a xlink:href="c_0_57.html" xlink:title="{X₁ ∈ X₂|⇊|X₁ ∈ X₂}" target="_vizar">
<polygon fill="#f8edd1" stroke="#7f7542" points="42,-83.5 42,-128.5 92,-128.5 92,-83.5 42,-83.5"/>
<text text-anchor="middle" x="67" y="-117.3" font-family="Times,serif" font-size="14.00">X₁ ∈ X₂</text>
<polyline fill="none" stroke="#7f7542" points="42,-113.5 92,-113.5 "/>
<text text-anchor="middle" x="67" y="-102.3" font-family="Times,serif" font-size="14.00">⇊</text>
<polyline fill="none" stroke="#7f7542" points="42,-98.5 92,-98.5 "/>
<text text-anchor="middle" x="67" y="-87.3" font-family="Times,serif" font-size="14.00">X₁ ∈ X₂</text>
</a>
</g>
</g>
<!-- t1_subset&#45;&gt;c_0_57 -->
<g id="edge1" class="edge">
<title>t1_subset&#45;&gt;c_0_57</title>
<path fill="none" stroke="black" d="M67,-165.31C67,-165.31 67,-138.76 67,-138.76"/>
<polygon fill="black" stroke="black" points="70.5,-138.76 67,-128.76 63.5,-138.76 70.5,-138.76"/>
</g>
<!-- c_0_58 -->
<g id="node3" class="node">
<title>c_0_58</title>
<g id="a_node3"><a xlink:href="c_0_58.html" xlink:title="{X₁ ⊆ X₂|sk₄(X₁,X₂) ∈ X₁}" target="_vizar">
<polygon fill="#f8edd1" stroke="#7f7542" points="16.5,-16.5 16.5,-46.5 117.5,-46.5 117.5,-16.5 16.5,-16.5"/>
<text text-anchor="middle" x="67" y="-35.3" font-family="Times,serif" font-size="14.00">X₁ ⊆ X₂</text>
<polyline fill="none" stroke="#7f7542" points="16.5,-31.5 117.5,-31.5 "/>
<text text-anchor="middle" x="67" y="-20.3" font-family="Times,serif" font-size="14.00">sk₄(X₁,X₂) ∈ X₁</text>
</a>
</g>
</g>
<!-- c_0_57&#45;&gt;c_0_58 -->
<g id="edge2" class="edge">
<title>c_0_57&#45;&gt;c_0_58</title>
<path fill="none" stroke="black" stroke-dasharray="5,2" d="M67,-83.24C67,-83.24 67,-56.82 67,-56.82"/>
<polygon fill="black" stroke="black" points="70.5,-56.82 67,-46.82 63.5,-56.82 70.5,-56.82"/>
</g>
</g>
</svg>
