<?xml version="1.0" encoding="UTF-8" standalone="no"?>
<!DOCTYPE svg PUBLIC "-//W3C//DTD SVG 1.1//EN"
 "http://www.w3.org/Graphics/SVG/1.1/DTD/svg11.dtd">
<!-- Generated by graphviz version 5.0.0 (0)
 -->
<!-- Title: proof Pages: 1 -->
<svg width="439pt" height="460pt"
 viewBox="0.00 0.00 439.00 460.00" xmlns="http://www.w3.org/2000/svg" xmlns:xlink="http://www.w3.org/1999/xlink">
<g id="graph0" class="graph" transform="scale(1 1) rotate(0) translate(4 456)">
<title>proof</title>
<g id="clust1" class="cluster">
<title>cluster_0</title>
<polygon fill="transparent" stroke="black" stroke-dasharray="1,5" points="8,-307 8,-444 423,-444 423,-307 8,-307"/>
</g>
<g id="clust2" class="cluster">
<title>cluster_1</title>
<polygon fill="transparent" stroke="black" stroke-width="2" points="107,-150 107,-287 309,-287 309,-150 107,-150"/>
</g>
<g id="clust3" class="cluster">
<title>cluster_2</title>
<polygon fill="transparent" stroke="black" stroke-dasharray="1,5" points="116,-8 116,-130 300,-130 300,-8 116,-8"/>
</g>
<!-- c_0_74 -->
<g id="node1" class="node">
<title>c_0_74</title>
<g id="a_node1"><a xlink:href="c_0_74.html" xlink:title="{X₁ ∈ bool(X₂)|⇊|X₁ = Ø|sk₁₂(X₂,X₁) ∈ X₂}" target="_vizar">
<polygon fill="#f8edd1" stroke="#7f7542" points="309,-345.5 309,-405.5 415,-405.5 415,-345.5 309,-345.5"/>
<text text-anchor="middle" x="362" y="-394.3" font-family="Times,serif" font-size="14.00">X₁ ∈ bool(X₂)</text>
<polyline fill="none" stroke="#7f7542" points="309,-390.5 415,-390.5 "/>
<text text-anchor="middle" x="362" y="-379.3" font-family="Times,serif" font-size="14.00">⇊</text>
<polyline fill="none" stroke="#7f7542" points="309,-375.5 415,-375.5 "/>
<text text-anchor="middle" x="362" y="-364.3" font-family="Times,serif" font-size="14.00">X₁ = Ø</text>
<polyline fill="none" stroke="#7f7542" points="309,-360.5 415,-360.5 "/>
<text text-anchor="middle" x="362" y="-349.3" font-family="Times,serif" font-size="14.00">sk₁₂(X₂,X₁) ∈ X₂</text>
</a>
</g>
</g>
<!-- c_0_80 -->
<g id="node4" class="node">
<title>c_0_80</title>
<g id="a_node4"><a xlink:href="c_0_80.html" xlink:title="{Group&#45;like(X₃)|X₁ ∈ bool(carrier(X₃))|X₂ = \{sk₁₂(carrier(X₃),X₁)\}|associative(X₃)|multMagma(X₃)|⇊|X₁ = Ø|X₂ ∈ a_1_0_group_2(X₃)}" target="_vizar">
<polygon fill="#f8edd1" stroke="#7f7542" points="115.5,-158.5 115.5,-278.5 300.5,-278.5 300.5,-158.5 115.5,-158.5"/>
<text text-anchor="middle" x="208" y="-267.3" font-family="Times,serif" font-size="14.00">Group&#45;like(X₃)</text>
<polyline fill="none" stroke="#7f7542" points="115.5,-263.5 300.5,-263.5 "/>
<text text-anchor="middle" x="208" y="-252.3" font-family="Times,serif" font-size="14.00">X₁ ∈ bool(carrier(X₃))</text>
<polyline fill="none" stroke="#7f7542" points="115.5,-248.5 300.5,-248.5 "/>
<text text-anchor="middle" x="208" y="-237.3" font-family="Times,serif" font-size="14.00">X₂ = {sk₁₂(carrier(X₃),X₁)}</text>
<polyline fill="none" stroke="#7f7542" points="115.5,-233.5 300.5,-233.5 "/>
<text text-anchor="middle" x="208" y="-222.3" font-family="Times,serif" font-size="14.00">associative(X₃)</text>
<polyline fill="none" stroke="#7f7542" points="115.5,-218.5 300.5,-218.5 "/>
<text text-anchor="middle" x="208" y="-207.3" font-family="Times,serif" font-size="14.00">multMagma(X₃)</text>
<polyline fill="none" stroke="#7f7542" points="115.5,-203.5 300.5,-203.5 "/>
<text text-anchor="middle" x="208" y="-192.3" font-family="Times,serif" font-size="14.00">⇊</text>
<polyline fill="none" stroke="#7f7542" points="115.5,-188.5 300.5,-188.5 "/>
<text text-anchor="middle" x="208" y="-177.3" font-family="Times,serif" font-size="14.00">X₁ = Ø</text>
<polyline fill="none" stroke="#7f7542" points="115.5,-173.5 300.5,-173.5 "/>
<text text-anchor="middle" x="208" y="-162.3" font-family="Times,serif" font-size="14.00">X₂ ∈ a_1_0_group_2(X₃)</text>
</a>
</g>
</g>
<!-- c_0_74&#45;&gt;c_0_80 -->
<g id="edge1" class="edge">
<title>c_0_74&#45;&gt;c_0_80</title>
<path fill="none" stroke="black" d="M308.96,-375C301.06,-375 295.5,-375 295.5,-375 295.5,-375 295.5,-288.56 295.5,-288.56"/>
<polygon fill="black" stroke="black" points="299,-288.56 295.5,-278.56 292,-288.56 299,-288.56"/>
</g>
<!-- c_0_73 -->
<g id="node2" class="node">
<title>c_0_73</title>
<g id="a_node2"><a xlink:href="c_0_73.html" xlink:title="{Group&#45;like(X₁)|X₂ = \{X₃\}|X₃ ∈ carrier(X₁)|associative(X₁)|multMagma(X₁)|⇊|X₂ ∈ a_1_0_group_2(X₁)|carrier(X₁) = Ø}" target="_vizar">
<polygon fill="#f8edd1" stroke="#7f7542" points="125.5,-315.5 125.5,-435.5 290.5,-435.5 290.5,-315.5 125.5,-315.5"/>
<text text-anchor="middle" x="208" y="-424.3" font-family="Times,serif" font-size="14.00">Group&#45;like(X₁)</text>
<polyline fill="none" stroke="#7f7542" points="125.5,-420.5 290.5,-420.5 "/>
<text text-anchor="middle" x="208" y="-409.3" font-family="Times,serif" font-size="14.00">X₂ = {X₃}</text>
<polyline fill="none" stroke="#7f7542" points="125.5,-405.5 290.5,-405.5 "/>
<text text-anchor="middle" x="208" y="-394.3" font-family="Times,serif" font-size="14.00">X₃ ∈ carrier(X₁)</text>
<polyline fill="none" stroke="#7f7542" points="125.5,-390.5 290.5,-390.5 "/>
<text text-anchor="middle" x="208" y="-379.3" font-family="Times,serif" font-size="14.00">associative(X₁)</text>
<polyline fill="none" stroke="#7f7542" points="125.5,-375.5 290.5,-375.5 "/>
<text text-anchor="middle" x="208" y="-364.3" font-family="Times,serif" font-size="14.00">multMagma(X₁)</text>
<polyline fill="none" stroke="#7f7542" points="125.5,-360.5 290.5,-360.5 "/>
<text text-anchor="middle" x="208" y="-349.3" font-family="Times,serif" font-size="14.00">⇊</text>
<polyline fill="none" stroke="#7f7542" points="125.5,-345.5 290.5,-345.5 "/>
<text text-anchor="middle" x="208" y="-334.3" font-family="Times,serif" font-size="14.00">X₂ ∈ a_1_0_group_2(X₁)</text>
<polyline fill="none" stroke="#7f7542" points="125.5,-330.5 290.5,-330.5 "/>
<text text-anchor="middle" x="208" y="-319.3" font-family="Times,serif" font-size="14.00">carrier(X₁) = Ø</text>
</a>
</g>
</g>
<!-- c_0_73&#45;&gt;c_0_80 -->
<g id="edge2" class="edge">
<title>c_0_73&#45;&gt;c_0_80</title>
<path fill="none" stroke="black" d="M208,-315.25C208,-315.25 208,-288.59 208,-288.59"/>
<polygon fill="black" stroke="black" points="211.5,-288.59 208,-278.59 204.5,-288.59 211.5,-288.59"/>
</g>
<!-- c_0_51 -->
<g id="node3" class="node">
<title>c_0_51</title>
<g id="a_node3"><a xlink:href="c_0_51.html" xlink:title="{X₁ = Ø|X₂ ∈ bool(X₁)|⇊|X₂ = Ø}" target="_vizar">
<polygon fill="#f8edd1" stroke="#7f7542" points="16.5,-345.5 16.5,-405.5 107.5,-405.5 107.5,-345.5 16.5,-345.5"/>
<text text-anchor="middle" x="62" y="-394.3" font-family="Times,serif" font-size="14.00">X₁ = Ø</text>
<polyline fill="none" stroke="#7f7542" points="16.5,-390.5 107.5,-390.5 "/>
<text text-anchor="middle" x="62" y="-379.3" font-family="Times,serif" font-size="14.00">X₂ ∈ bool(X₁)</text>
<polyline fill="none" stroke="#7f7542" points="16.5,-375.5 107.5,-375.5 "/>
<text text-anchor="middle" x="62" y="-364.3" font-family="Times,serif" font-size="14.00">⇊</text>
<polyline fill="none" stroke="#7f7542" points="16.5,-360.5 107.5,-360.5 "/>
<text text-anchor="middle" x="62" y="-349.3" font-family="Times,serif" font-size="14.00">X₂ = Ø</text>
</a>
</g>
</g>
<!-- c_0_51&#45;&gt;c_0_80 -->
<g id="edge3" class="edge">
<title>c_0_51&#45;&gt;c_0_80</title>
<path fill="none" stroke="black" d="M107.52,-375C115.07,-375 120.5,-375 120.5,-375 120.5,-375 120.5,-288.56 120.5,-288.56"/>
<polygon fill="black" stroke="black" points="124,-288.56 120.5,-278.56 117,-288.56 124,-288.56"/>
</g>
<!-- c_0_87 -->
<g id="node5" class="node">
<title>c_0_87</title>
<g id="a_node5"><a xlink:href="c_0_87.html" xlink:title="{Group&#45;like(X₂)|X₁ = \{X₃\}|\{X₃\} ∈ bool(carrier(X₂))|associative(X₂)|multMagma(X₂)|⇊|X₁ ∈ a_1_0_group_2(X₂)}" target="_vizar">
<polygon fill="#f8edd1" stroke="#7f7542" points="124,-16.5 124,-121.5 292,-121.5 292,-16.5 124,-16.5"/>
<text text-anchor="middle" x="208" y="-110.3" font-family="Times,serif" font-size="14.00">Group&#45;like(X₂)</text>
<polyline fill="none" stroke="#7f7542" points="124,-106.5 292,-106.5 "/>
<text text-anchor="middle" x="208" y="-95.3" font-family="Times,serif" font-size="14.00">X₁ = {X₃}</text>
<polyline fill="none" stroke="#7f7542" points="124,-91.5 292,-91.5 "/>
<text text-anchor="middle" x="208" y="-80.3" font-family="Times,serif" font-size="14.00">{X₃} ∈ bool(carrier(X₂))</text>
<polyline fill="none" stroke="#7f7542" points="124,-76.5 292,-76.5 "/>
<text text-anchor="middle" x="208" y="-65.3" font-family="Times,serif" font-size="14.00">associative(X₂)</text>
<polyline fill="none" stroke="#7f7542" points="124,-61.5 292,-61.5 "/>
<text text-anchor="middle" x="208" y="-50.3" font-family="Times,serif" font-size="14.00">multMagma(X₂)</text>
<polyline fill="none" stroke="#7f7542" points="124,-46.5 292,-46.5 "/>
<text text-anchor="middle" x="208" y="-35.3" font-family="Times,serif" font-size="14.00">⇊</text>
<polyline fill="none" stroke="#7f7542" points="124,-31.5 292,-31.5 "/>
<text text-anchor="middle" x="208" y="-20.3" font-family="Times,serif" font-size="14.00">X₁ ∈ a_1_0_group_2(X₂)</text>
</a>
</g>
</g>
<!-- c_0_80&#45;&gt;c_0_87 -->
<g id="edge4" class="edge">
<title>c_0_80&#45;&gt;c_0_87</title>
<path fill="none" stroke="black" stroke-dasharray="5,2" d="M208,-158.12C208,-158.12 208,-131.9 208,-131.9"/>
<polygon fill="black" stroke="black" points="211.5,-131.9 208,-121.9 204.5,-131.9 211.5,-131.9"/>
</g>
</g>
</svg>
