<?xml version="1.0" encoding="UTF-8" standalone="no"?>
<!DOCTYPE svg PUBLIC "-//W3C//DTD SVG 1.1//EN"
 "http://www.w3.org/Graphics/SVG/1.1/DTD/svg11.dtd">
<!-- Generated by graphviz version 5.0.0 (0)
 -->
<!-- Title: proof Pages: 1 -->
<svg width="351pt" height="415pt"
 viewBox="0.00 0.00 351.00 415.00" xmlns="http://www.w3.org/2000/svg" xmlns:xlink="http://www.w3.org/1999/xlink">
<g id="graph0" class="graph" transform="scale(1 1) rotate(0) translate(4 411)">
<title>proof</title>
<g id="clust1" class="cluster">
<title>cluster_0</title>
<polygon fill="transparent" stroke="black" stroke-dasharray="1,5" points="8,-277 8,-399 309,-399 309,-277 8,-277"/>
</g>
<g id="clust2" class="cluster">
<title>cluster_1</title>
<polygon fill="transparent" stroke="black" stroke-width="2" points="27,-135 27,-257 335,-257 335,-135 27,-135"/>
</g>
<g id="clust3" class="cluster">
<title>cluster_2</title>
<polygon fill="transparent" stroke="black" stroke-dasharray="1,5" points="52,-8 52,-115 310,-115 310,-8 52,-8"/>
</g>
<!-- c_0_58 -->
<g id="node1" class="node">
<title>c_0_58</title>
<g id="a_node1"><a xlink:href="c_0_58.html" xlink:title="{X₁ ⊆ X₂|sk₄(X₁,X₂) ∈ X₁}" target="_vizar">
<polygon fill="#f8edd1" stroke="#7f7542" points="199.5,-323 199.5,-353 300.5,-353 300.5,-323 199.5,-323"/>
<text text-anchor="middle" x="250" y="-341.8" font-family="Times,serif" font-size="14.00">X₁ ⊆ X₂</text>
<polyline fill="none" stroke="#7f7542" points="199.5,-338 300.5,-338 "/>
<text text-anchor="middle" x="250" y="-326.8" font-family="Times,serif" font-size="14.00">sk₄(X₁,X₂) ∈ X₁</text>
</a>
</g>
</g>
<!-- c_0_125 -->
<g id="node3" class="node">
<title>c_0_125</title>
<g id="a_node3"><a xlink:href="c_0_125.html" xlink:title="{Group&#45;like(X₁)|associative(X₁)|multMagma(X₁)|⇊|empty(X₁)|proj₂(sk₂(X₁)) ⊆ X₂|sk₄(proj₂(sk₂(X₁)),X₂) ∈ a_1_0_group_2(X₁)}" target="_vizar">
<polygon fill="#f8edd1" stroke="#7f7542" points="35,-143.5 35,-248.5 327,-248.5 327,-143.5 35,-143.5"/>
<text text-anchor="middle" x="181" y="-237.3" font-family="Times,serif" font-size="14.00">Group&#45;like(X₁)</text>
<polyline fill="none" stroke="#7f7542" points="35,-233.5 327,-233.5 "/>
<text text-anchor="middle" x="181" y="-222.3" font-family="Times,serif" font-size="14.00">associative(X₁)</text>
<polyline fill="none" stroke="#7f7542" points="35,-218.5 327,-218.5 "/>
<text text-anchor="middle" x="181" y="-207.3" font-family="Times,serif" font-size="14.00">multMagma(X₁)</text>
<polyline fill="none" stroke="#7f7542" points="35,-203.5 327,-203.5 "/>
<text text-anchor="middle" x="181" y="-192.3" font-family="Times,serif" font-size="14.00">⇊</text>
<polyline fill="none" stroke="#7f7542" points="35,-188.5 327,-188.5 "/>
<text text-anchor="middle" x="181" y="-177.3" font-family="Times,serif" font-size="14.00">empty(X₁)</text>
<polyline fill="none" stroke="#7f7542" points="35,-173.5 327,-173.5 "/>
<text text-anchor="middle" x="181" y="-162.3" font-family="Times,serif" font-size="14.00">proj₂(sk₂(X₁)) ⊆ X₂</text>
<polyline fill="none" stroke="#7f7542" points="35,-158.5 327,-158.5 "/>
<text text-anchor="middle" x="181" y="-147.3" font-family="Times,serif" font-size="14.00">sk₄(proj₂(sk₂(X₁)),X₂) ∈ a_1_0_group_2(X₁)</text>
</a>
</g>
</g>
<!-- c_0_58&#45;&gt;c_0_125 -->
<g id="edge1" class="edge">
<title>c_0_58&#45;&gt;c_0_125</title>
<path fill="none" stroke="black" d="M250,-322.8C250,-322.8 250,-258.54 250,-258.54"/>
<polygon fill="black" stroke="black" points="253.5,-258.54 250,-248.54 246.5,-258.54 253.5,-258.54"/>
</g>
<!-- c_0_112 -->
<g id="node2" class="node">
<title>c_0_112</title>
<g id="a_node2"><a xlink:href="c_0_112.html" xlink:title="{Group&#45;like(X₂)|X₁ ∈ proj₂(sk₂(X₂))|associative(X₂)|multMagma(X₂)|⇊|X₁ ∈ a_1_0_group_2(X₂)|empty(X₂)}" target="_vizar">
<polygon fill="#f8edd1" stroke="#7f7542" points="16.5,-285.5 16.5,-390.5 181.5,-390.5 181.5,-285.5 16.5,-285.5"/>
<text text-anchor="middle" x="99" y="-379.3" font-family="Times,serif" font-size="14.00">Group&#45;like(X₂)</text>
<polyline fill="none" stroke="#7f7542" points="16.5,-375.5 181.5,-375.5 "/>
<text text-anchor="middle" x="99" y="-364.3" font-family="Times,serif" font-size="14.00">X₁ ∈ proj₂(sk₂(X₂))</text>
<polyline fill="none" stroke="#7f7542" points="16.5,-360.5 181.5,-360.5 "/>
<text text-anchor="middle" x="99" y="-349.3" font-family="Times,serif" font-size="14.00">associative(X₂)</text>
<polyline fill="none" stroke="#7f7542" points="16.5,-345.5 181.5,-345.5 "/>
<text text-anchor="middle" x="99" y="-334.3" font-family="Times,serif" font-size="14.00">multMagma(X₂)</text>
<polyline fill="none" stroke="#7f7542" points="16.5,-330.5 181.5,-330.5 "/>
<text text-anchor="middle" x="99" y="-319.3" font-family="Times,serif" font-size="14.00">⇊</text>
<polyline fill="none" stroke="#7f7542" points="16.5,-315.5 181.5,-315.5 "/>
<text text-anchor="middle" x="99" y="-304.3" font-family="Times,serif" font-size="14.00">X₁ ∈ a_1_0_group_2(X₂)</text>
<polyline fill="none" stroke="#7f7542" points="16.5,-300.5 181.5,-300.5 "/>
<text text-anchor="middle" x="99" y="-289.3" font-family="Times,serif" font-size="14.00">empty(X₂)</text>
</a>
</g>
</g>
<!-- c_0_112&#45;&gt;c_0_125 -->
<g id="edge2" class="edge">
<title>c_0_112&#45;&gt;c_0_125</title>
<path fill="none" stroke="black" d="M108.25,-285.12C108.25,-285.12 108.25,-258.92 108.25,-258.92"/>
<polygon fill="black" stroke="black" points="111.75,-258.92 108.25,-248.92 104.75,-258.92 111.75,-258.92"/>
</g>
<!-- c_0_134 -->
<g id="node4" class="node">
<title>c_0_134</title>
<g id="a_node4"><a xlink:href="c_0_134.html" xlink:title="{Group&#45;like(X₁)|associative(X₁)|multMagma(X₁)|⇊|empty(X₁)|proj₂(sk₂(X₁)) ⊆ a_1_0_group_2(X₁)}" target="_vizar">
<polygon fill="#f8edd1" stroke="#7f7542" points="60,-16.5 60,-106.5 302,-106.5 302,-16.5 60,-16.5"/>
<text text-anchor="middle" x="181" y="-95.3" font-family="Times,serif" font-size="14.00">Group&#45;like(X₁)</text>
<polyline fill="none" stroke="#7f7542" points="60,-91.5 302,-91.5 "/>
<text text-anchor="middle" x="181" y="-80.3" font-family="Times,serif" font-size="14.00">associative(X₁)</text>
<polyline fill="none" stroke="#7f7542" points="60,-76.5 302,-76.5 "/>
<text text-anchor="middle" x="181" y="-65.3" font-family="Times,serif" font-size="14.00">multMagma(X₁)</text>
<polyline fill="none" stroke="#7f7542" points="60,-61.5 302,-61.5 "/>
<text text-anchor="middle" x="181" y="-50.3" font-family="Times,serif" font-size="14.00">⇊</text>
<polyline fill="none" stroke="#7f7542" points="60,-46.5 302,-46.5 "/>
<text text-anchor="middle" x="181" y="-35.3" font-family="Times,serif" font-size="14.00">empty(X₁)</text>
<polyline fill="none" stroke="#7f7542" points="60,-31.5 302,-31.5 "/>
<text text-anchor="middle" x="181" y="-20.3" font-family="Times,serif" font-size="14.00">proj₂(sk₂(X₁)) ⊆ a_1_0_group_2(X₁)</text>
</a>
</g>
</g>
<!-- c_0_125&#45;&gt;c_0_134 -->
<g id="edge3" class="edge">
<title>c_0_125&#45;&gt;c_0_134</title>
<path fill="none" stroke="black" stroke-dasharray="5,2" d="M181,-143.23C181,-143.23 181,-116.72 181,-116.72"/>
<polygon fill="black" stroke="black" points="184.5,-116.72 181,-106.72 177.5,-116.72 184.5,-116.72"/>
</g>
</g>
</svg>
