<?xml version="1.0" encoding="UTF-8" standalone="no"?>
<!DOCTYPE svg PUBLIC "-//W3C//DTD SVG 1.1//EN"
 "http://www.w3.org/Graphics/SVG/1.1/DTD/svg11.dtd">
<!-- Generated by graphviz version 5.0.0 (0)
 -->
<!-- Title: proof Pages: 1 -->
<svg width="608pt" height="490pt"
 viewBox="0.00 0.00 608.00 490.00" xmlns="http://www.w3.org/2000/svg" xmlns:xlink="http://www.w3.org/1999/xlink">
<g id="graph0" class="graph" transform="scale(1 1) rotate(0) translate(4 486)">
<title>proof</title>
<g id="clust1" class="cluster">
<title>cluster_0</title>
<polygon fill="transparent" stroke="black" stroke-dasharray="1,5" points="8,-352 8,-474 592,-474 592,-352 8,-352"/>
</g>
<g id="clust2" class="cluster">
<title>cluster_1</title>
<polygon fill="transparent" stroke="black" stroke-width="2" points="186,-180 186,-332 330,-332 330,-180 186,-180"/>
</g>
<g id="clust3" class="cluster">
<title>cluster_2</title>
<polygon fill="transparent" stroke="black" stroke-dasharray="1,5" points="186,-8 186,-160 330,-160 330,-8 186,-8"/>
</g>
<!-- c_0_60 -->
<g id="node1" class="node">
<title>c_0_60</title>
<g id="a_node1"><a xlink:href="c_0_60.html" xlink:title="{Group&#45;like(X₁)|associative(X₁)|multMagma(X₁)|⇊|empty(X₁)|proj₁(sk₂(X₁)) = carrier(X₁)}" target="_vizar">
<polygon fill="#f8edd1" stroke="#7f7542" points="396.5,-368 396.5,-458 583.5,-458 583.5,-368 396.5,-368"/>
<text text-anchor="middle" x="490" y="-446.8" font-family="Times,serif" font-size="14.00">Group&#45;like(X₁)</text>
<polyline fill="none" stroke="#7f7542" points="396.5,-443 583.5,-443 "/>
<text text-anchor="middle" x="490" y="-431.8" font-family="Times,serif" font-size="14.00">associative(X₁)</text>
<polyline fill="none" stroke="#7f7542" points="396.5,-428 583.5,-428 "/>
<text text-anchor="middle" x="490" y="-416.8" font-family="Times,serif" font-size="14.00">multMagma(X₁)</text>
<polyline fill="none" stroke="#7f7542" points="396.5,-413 583.5,-413 "/>
<text text-anchor="middle" x="490" y="-401.8" font-family="Times,serif" font-size="14.00">⇊</text>
<polyline fill="none" stroke="#7f7542" points="396.5,-398 583.5,-398 "/>
<text text-anchor="middle" x="490" y="-386.8" font-family="Times,serif" font-size="14.00">empty(X₁)</text>
<polyline fill="none" stroke="#7f7542" points="396.5,-383 583.5,-383 "/>
<text text-anchor="middle" x="490" y="-371.8" font-family="Times,serif" font-size="14.00">proj₁(sk₂(X₁)) = carrier(X₁)</text>
</a>
</g>
</g>
<!-- c_0_70 -->
<g id="node5" class="node">
<title>c_0_70</title>
<g id="a_node5"><a xlink:href="c_0_70.html" xlink:title="{Group&#45;like(X₃)|X₁ = sk₂(X₃)(X₄)|X₂ = proj₂(sk₂(X₃))|X₄ ∈ carrier(X₃)|associative(X₃)|multMagma(X₃)|⇊|X₁ ∈ X₂|empty(X₃)}" target="_vizar">
<polygon fill="#f8edd1" stroke="#7f7542" points="194.5,-188.5 194.5,-323.5 321.5,-323.5 321.5,-188.5 194.5,-188.5"/>
<text text-anchor="middle" x="258" y="-312.3" font-family="Times,serif" font-size="14.00">Group&#45;like(X₃)</text>
<polyline fill="none" stroke="#7f7542" points="194.5,-308.5 321.5,-308.5 "/>
<text text-anchor="middle" x="258" y="-297.3" font-family="Times,serif" font-size="14.00">X₁ = sk₂(X₃)(X₄)</text>
<polyline fill="none" stroke="#7f7542" points="194.5,-293.5 321.5,-293.5 "/>
<text text-anchor="middle" x="258" y="-282.3" font-family="Times,serif" font-size="14.00">X₂ = proj₂(sk₂(X₃))</text>
<polyline fill="none" stroke="#7f7542" points="194.5,-278.5 321.5,-278.5 "/>
<text text-anchor="middle" x="258" y="-267.3" font-family="Times,serif" font-size="14.00">X₄ ∈ carrier(X₃)</text>
<polyline fill="none" stroke="#7f7542" points="194.5,-263.5 321.5,-263.5 "/>
<text text-anchor="middle" x="258" y="-252.3" font-family="Times,serif" font-size="14.00">associative(X₃)</text>
<polyline fill="none" stroke="#7f7542" points="194.5,-248.5 321.5,-248.5 "/>
<text text-anchor="middle" x="258" y="-237.3" font-family="Times,serif" font-size="14.00">multMagma(X₃)</text>
<polyline fill="none" stroke="#7f7542" points="194.5,-233.5 321.5,-233.5 "/>
<text text-anchor="middle" x="258" y="-222.3" font-family="Times,serif" font-size="14.00">⇊</text>
<polyline fill="none" stroke="#7f7542" points="194.5,-218.5 321.5,-218.5 "/>
<text text-anchor="middle" x="258" y="-207.3" font-family="Times,serif" font-size="14.00">X₁ ∈ X₂</text>
<polyline fill="none" stroke="#7f7542" points="194.5,-203.5 321.5,-203.5 "/>
<text text-anchor="middle" x="258" y="-192.3" font-family="Times,serif" font-size="14.00">empty(X₃)</text>
</a>
</g>
</g>
<!-- c_0_60&#45;&gt;c_0_70 -->
<g id="edge1" class="edge">
<title>c_0_60&#45;&gt;c_0_70</title>
<path fill="none" stroke="black" d="M490,-367.59C490,-321.22 490,-256 490,-256 490,-256 331.7,-256 331.7,-256"/>
<polygon fill="black" stroke="black" points="331.7,-252.5 321.7,-256 331.7,-259.5 331.7,-252.5"/>
</g>
<!-- c_0_62 -->
<g id="node2" class="node">
<title>c_0_62</title>
<g id="a_node2"><a xlink:href="c_0_62.html" xlink:title="{Group&#45;like(X₁)|associative(X₁)|multMagma(X₁)|⇊|empty(X₁)|function(sk₂(X₁))}" target="_vizar">
<polygon fill="#f8edd1" stroke="#7f7542" points="262,-368 262,-458 378,-458 378,-368 262,-368"/>
<text text-anchor="middle" x="320" y="-446.8" font-family="Times,serif" font-size="14.00">Group&#45;like(X₁)</text>
<polyline fill="none" stroke="#7f7542" points="262,-443 378,-443 "/>
<text text-anchor="middle" x="320" y="-431.8" font-family="Times,serif" font-size="14.00">associative(X₁)</text>
<polyline fill="none" stroke="#7f7542" points="262,-428 378,-428 "/>
<text text-anchor="middle" x="320" y="-416.8" font-family="Times,serif" font-size="14.00">multMagma(X₁)</text>
<polyline fill="none" stroke="#7f7542" points="262,-413 378,-413 "/>
<text text-anchor="middle" x="320" y="-401.8" font-family="Times,serif" font-size="14.00">⇊</text>
<polyline fill="none" stroke="#7f7542" points="262,-398 378,-398 "/>
<text text-anchor="middle" x="320" y="-386.8" font-family="Times,serif" font-size="14.00">empty(X₁)</text>
<polyline fill="none" stroke="#7f7542" points="262,-383 378,-383 "/>
<text text-anchor="middle" x="320" y="-371.8" font-family="Times,serif" font-size="14.00">function(sk₂(X₁))</text>
</a>
</g>
</g>
<!-- c_0_62&#45;&gt;c_0_70 -->
<g id="edge2" class="edge">
<title>c_0_62&#45;&gt;c_0_70</title>
<path fill="none" stroke="black" d="M291.75,-367.59C291.75,-367.59 291.75,-333.51 291.75,-333.51"/>
<polygon fill="black" stroke="black" points="295.25,-333.51 291.75,-323.51 288.25,-333.51 295.25,-333.51"/>
</g>
<!-- c_0_59 -->
<g id="node3" class="node">
<title>c_0_59</title>
<g id="a_node3"><a xlink:href="c_0_59.html" xlink:title="{X₁ ∈ proj₁(X₂)|X₃ = X₂(X₁)|X₄ = proj₂(X₂)|function(X₂)|relation(X₂)|⇊|X₃ ∈ X₄}" target="_vizar">
<polygon fill="#f8edd1" stroke="#7f7542" points="148,-360.5 148,-465.5 244,-465.5 244,-360.5 148,-360.5"/>
<text text-anchor="middle" x="196" y="-454.3" font-family="Times,serif" font-size="14.00">X₁ ∈ proj₁(X₂)</text>
<polyline fill="none" stroke="#7f7542" points="148,-450.5 244,-450.5 "/>
<text text-anchor="middle" x="196" y="-439.3" font-family="Times,serif" font-size="14.00">X₃ = X₂(X₁)</text>
<polyline fill="none" stroke="#7f7542" points="148,-435.5 244,-435.5 "/>
<text text-anchor="middle" x="196" y="-424.3" font-family="Times,serif" font-size="14.00">X₄ = proj₂(X₂)</text>
<polyline fill="none" stroke="#7f7542" points="148,-420.5 244,-420.5 "/>
<text text-anchor="middle" x="196" y="-409.3" font-family="Times,serif" font-size="14.00">function(X₂)</text>
<polyline fill="none" stroke="#7f7542" points="148,-405.5 244,-405.5 "/>
<text text-anchor="middle" x="196" y="-394.3" font-family="Times,serif" font-size="14.00">relation(X₂)</text>
<polyline fill="none" stroke="#7f7542" points="148,-390.5 244,-390.5 "/>
<text text-anchor="middle" x="196" y="-379.3" font-family="Times,serif" font-size="14.00">⇊</text>
<polyline fill="none" stroke="#7f7542" points="148,-375.5 244,-375.5 "/>
<text text-anchor="middle" x="196" y="-364.3" font-family="Times,serif" font-size="14.00">X₃ ∈ X₄</text>
</a>
</g>
</g>
<!-- c_0_59&#45;&gt;c_0_70 -->
<g id="edge3" class="edge">
<title>c_0_59&#45;&gt;c_0_70</title>
<path fill="none" stroke="black" d="M219.25,-360.28C219.25,-360.28 219.25,-333.63 219.25,-333.63"/>
<polygon fill="black" stroke="black" points="222.75,-333.63 219.25,-323.63 215.75,-333.63 222.75,-333.63"/>
</g>
<!-- c_0_61 -->
<g id="node4" class="node">
<title>c_0_61</title>
<g id="a_node4"><a xlink:href="c_0_61.html" xlink:title="{Group&#45;like(X₁)|associative(X₁)|multMagma(X₁)|⇊|empty(X₁)|relation(sk₂(X₁))}" target="_vizar">
<polygon fill="#f8edd1" stroke="#7f7542" points="16.5,-368 16.5,-458 129.5,-458 129.5,-368 16.5,-368"/>
<text text-anchor="middle" x="73" y="-446.8" font-family="Times,serif" font-size="14.00">Group&#45;like(X₁)</text>
<polyline fill="none" stroke="#7f7542" points="16.5,-443 129.5,-443 "/>
<text text-anchor="middle" x="73" y="-431.8" font-family="Times,serif" font-size="14.00">associative(X₁)</text>
<polyline fill="none" stroke="#7f7542" points="16.5,-428 129.5,-428 "/>
<text text-anchor="middle" x="73" y="-416.8" font-family="Times,serif" font-size="14.00">multMagma(X₁)</text>
<polyline fill="none" stroke="#7f7542" points="16.5,-413 129.5,-413 "/>
<text text-anchor="middle" x="73" y="-401.8" font-family="Times,serif" font-size="14.00">⇊</text>
<polyline fill="none" stroke="#7f7542" points="16.5,-398 129.5,-398 "/>
<text text-anchor="middle" x="73" y="-386.8" font-family="Times,serif" font-size="14.00">empty(X₁)</text>
<polyline fill="none" stroke="#7f7542" points="16.5,-383 129.5,-383 "/>
<text text-anchor="middle" x="73" y="-371.8" font-family="Times,serif" font-size="14.00">relation(sk₂(X₁))</text>
</a>
</g>
</g>
<!-- c_0_61&#45;&gt;c_0_70 -->
<g id="edge4" class="edge">
<title>c_0_61&#45;&gt;c_0_70</title>
<path fill="none" stroke="black" d="M73,-367.59C73,-321.22 73,-256 73,-256 73,-256 184.33,-256 184.33,-256"/>
<polygon fill="black" stroke="black" points="184.33,-259.5 194.33,-256 184.33,-252.5 184.33,-259.5"/>
</g>
<!-- c_0_78 -->
<g id="node6" class="node">
<title>c_0_78</title>
<g id="a_node6"><a xlink:href="c_0_78.html" xlink:title="{Group&#45;like(X₃)|X₁ = \{X₄\}|X₂ = proj₂(sk₂(X₃))|X₄ ∈ carrier(X₃)|associative(X₃)|multMagma(X₃)|⇊|X₁ ∈ X₂|empty(X₃)}" target="_vizar">
<polygon fill="#f8edd1" stroke="#7f7542" points="194.5,-16.5 194.5,-151.5 321.5,-151.5 321.5,-16.5 194.5,-16.5"/>
<text text-anchor="middle" x="258" y="-140.3" font-family="Times,serif" font-size="14.00">Group&#45;like(X₃)</text>
<polyline fill="none" stroke="#7f7542" points="194.5,-136.5 321.5,-136.5 "/>
<text text-anchor="middle" x="258" y="-125.3" font-family="Times,serif" font-size="14.00">X₁ = {X₄}</text>
<polyline fill="none" stroke="#7f7542" points="194.5,-121.5 321.5,-121.5 "/>
<text text-anchor="middle" x="258" y="-110.3" font-family="Times,serif" font-size="14.00">X₂ = proj₂(sk₂(X₃))</text>
<polyline fill="none" stroke="#7f7542" points="194.5,-106.5 321.5,-106.5 "/>
<text text-anchor="middle" x="258" y="-95.3" font-family="Times,serif" font-size="14.00">X₄ ∈ carrier(X₃)</text>
<polyline fill="none" stroke="#7f7542" points="194.5,-91.5 321.5,-91.5 "/>
<text text-anchor="middle" x="258" y="-80.3" font-family="Times,serif" font-size="14.00">associative(X₃)</text>
<polyline fill="none" stroke="#7f7542" points="194.5,-76.5 321.5,-76.5 "/>
<text text-anchor="middle" x="258" y="-65.3" font-family="Times,serif" font-size="14.00">multMagma(X₃)</text>
<polyline fill="none" stroke="#7f7542" points="194.5,-61.5 321.5,-61.5 "/>
<text text-anchor="middle" x="258" y="-50.3" font-family="Times,serif" font-size="14.00">⇊</text>
<polyline fill="none" stroke="#7f7542" points="194.5,-46.5 321.5,-46.5 "/>
<text text-anchor="middle" x="258" y="-35.3" font-family="Times,serif" font-size="14.00">X₁ ∈ X₂</text>
<polyline fill="none" stroke="#7f7542" points="194.5,-31.5 321.5,-31.5 "/>
<text text-anchor="middle" x="258" y="-20.3" font-family="Times,serif" font-size="14.00">empty(X₃)</text>
</a>
</g>
</g>
<!-- c_0_70&#45;&gt;c_0_78 -->
<g id="edge5" class="edge">
<title>c_0_70&#45;&gt;c_0_78</title>
<path fill="none" stroke="black" stroke-dasharray="5,2" d="M258,-188.02C258,-188.02 258,-161.77 258,-161.77"/>
<polygon fill="black" stroke="black" points="261.5,-161.77 258,-151.77 254.5,-161.77 261.5,-161.77"/>
</g>
</g>
</svg>
