<?xml version="1.0" encoding="UTF-8" standalone="no"?>
<!DOCTYPE svg PUBLIC "-//W3C//DTD SVG 1.1//EN"
 "http://www.w3.org/Graphics/SVG/1.1/DTD/svg11.dtd">
<!-- Generated by graphviz version 5.0.0 (0)
 -->
<!-- Title: proof Pages: 1 -->
<svg width="394pt" height="220pt"
 viewBox="0.00 0.00 394.00 220.00" xmlns="http://www.w3.org/2000/svg" xmlns:xlink="http://www.w3.org/1999/xlink">
<g id="graph0" class="graph" transform="scale(1 1) rotate(0) translate(4 216)">
<title>proof</title>
<g id="clust1" class="cluster">
<title>cluster_0</title>
<polygon fill="transparent" stroke="black" stroke-dasharray="1,5" points="8,-142 8,-204 378,-204 378,-142 8,-142"/>
</g>
<g id="clust2" class="cluster">
<title>cluster_1</title>
<polygon fill="transparent" stroke="black" stroke-width="2" points="125,-60 125,-122 255,-122 255,-60 125,-60"/>
</g>
<g id="clust3" class="cluster">
<title>cluster_2</title>
<polygon fill="transparent" stroke="black" stroke-dasharray="1,5" points="125,-8 125,-40 255,-40 255,-8 125,-8"/>
</g>
<!-- c_0_150 -->
<g id="node1" class="node">
<title>c_0_150</title>
<g id="a_node1"><a xlink:href="c_0_150.html" xlink:title="{card(sk₁) = \|carrier(sk₁)\||⇊|carrier(sk₁) = Ø}" target="_vizar">
<polygon fill="#fa6900" stroke="#7f7542" points="196,-150.5 196,-195.5 370,-195.5 370,-150.5 196,-150.5"/>
<text text-anchor="middle" x="283" y="-184.3" font-family="Times,serif" font-size="14.00">card(sk₁) = |carrier(sk₁)|</text>
<polyline fill="none" stroke="#7f7542" points="196,-180.5 370,-180.5 "/>
<text text-anchor="middle" x="283" y="-169.3" font-family="Times,serif" font-size="14.00">⇊</text>
<polyline fill="none" stroke="#7f7542" points="196,-165.5 370,-165.5 "/>
<text text-anchor="middle" x="283" y="-154.3" font-family="Times,serif" font-size="14.00">carrier(sk₁) = Ø</text>
</a>
</g>
</g>
<!-- c_0_153 -->
<g id="node3" class="node">
<title>c_0_153</title>
<g id="a_node3"><a xlink:href="c_0_153.html" xlink:title="{1&#45;sorted(sk₁)|⇊|carrier(sk₁) = Ø}" target="_vizar">
<polygon fill="#fa6900" stroke="#7f7542" points="133.5,-68.5 133.5,-113.5 246.5,-113.5 246.5,-68.5 133.5,-68.5"/>
<text text-anchor="middle" x="190" y="-102.3" font-family="Times,serif" font-size="14.00">1&#45;sorted(sk₁)</text>
<polyline fill="none" stroke="#7f7542" points="133.5,-98.5 246.5,-98.5 "/>
<text text-anchor="middle" x="190" y="-87.3" font-family="Times,serif" font-size="14.00">⇊</text>
<polyline fill="none" stroke="#7f7542" points="133.5,-83.5 246.5,-83.5 "/>
<text text-anchor="middle" x="190" y="-72.3" font-family="Times,serif" font-size="14.00">carrier(sk₁) = Ø</text>
</a>
</g>
</g>
<!-- c_0_150&#45;&gt;c_0_153 -->
<g id="edge1" class="edge">
<title>c_0_150&#45;&gt;c_0_153</title>
<path fill="none" stroke="black" d="M221.25,-150.16C221.25,-150.16 221.25,-123.72 221.25,-123.72"/>
<polygon fill="black" stroke="black" points="224.75,-123.72 221.25,-113.72 217.75,-123.72 224.75,-123.72"/>
</g>
<!-- c_0_151 -->
<g id="node2" class="node">
<title>c_0_151</title>
<g id="a_node2"><a xlink:href="c_0_151.html" xlink:title="{1&#45;sorted(X₁)|⇊|card(X₁) = \|carrier(X₁)\|}" target="_vizar">
<polygon fill="#f8edd1" stroke="#7f7542" points="16,-150.5 16,-195.5 178,-195.5 178,-150.5 16,-150.5"/>
<text text-anchor="middle" x="97" y="-184.3" font-family="Times,serif" font-size="14.00">1&#45;sorted(X₁)</text>
<polyline fill="none" stroke="#7f7542" points="16,-180.5 178,-180.5 "/>
<text text-anchor="middle" x="97" y="-169.3" font-family="Times,serif" font-size="14.00">⇊</text>
<polyline fill="none" stroke="#7f7542" points="16,-165.5 178,-165.5 "/>
<text text-anchor="middle" x="97" y="-154.3" font-family="Times,serif" font-size="14.00">card(X₁) = |carrier(X₁)|</text>
</a>
</g>
</g>
<!-- c_0_151&#45;&gt;c_0_153 -->
<g id="edge2" class="edge">
<title>c_0_151&#45;&gt;c_0_153</title>
<path fill="none" stroke="black" d="M155.75,-150.16C155.75,-150.16 155.75,-123.72 155.75,-123.72"/>
<polygon fill="black" stroke="black" points="159.25,-123.72 155.75,-113.72 152.25,-123.72 159.25,-123.72"/>
</g>
<!-- c_0_155 -->
<g id="node4" class="node">
<title>c_0_155</title>
<g id="a_node4"><a xlink:href="c_0_155.html" xlink:title="{carrier(sk₁) = Ø}" target="_vizar">
<polygon fill="#fa6900" stroke="#7f7542" points="133.5,-16.5 133.5,-31.5 246.5,-31.5 246.5,-16.5 133.5,-16.5"/>
<text text-anchor="middle" x="190" y="-20.3" font-family="Times,serif" font-size="14.00">carrier(sk₁) = Ø</text>
</a>
</g>
</g>
<!-- c_0_153&#45;&gt;c_0_155 -->
<g id="edge3" class="edge">
<title>c_0_153&#45;&gt;c_0_155</title>
<path fill="none" stroke="black" stroke-dasharray="5,2" d="M190,-68.32C190,-68.32 190,-41.59 190,-41.59"/>
<polygon fill="black" stroke="black" points="193.5,-41.59 190,-31.59 186.5,-41.59 193.5,-41.59"/>
</g>
</g>
</svg>
