<?xml version="1.0" encoding="UTF-8" standalone="no"?>
<!DOCTYPE svg PUBLIC "-//W3C//DTD SVG 1.1//EN"
 "http://www.w3.org/Graphics/SVG/1.1/DTD/svg11.dtd">
<!-- Generated by graphviz version 5.0.0 (0)
 -->
<!-- Title: proof Pages: 1 -->
<svg width="626pt" height="190pt"
 viewBox="0.00 0.00 626.00 190.00" xmlns="http://www.w3.org/2000/svg" xmlns:xlink="http://www.w3.org/1999/xlink">
<g id="graph0" class="graph" transform="scale(1 1) rotate(0) translate(4 186)">
<title>proof</title>
<g id="clust1" class="cluster">
<title>cluster_0</title>
<polygon fill="transparent" stroke="black" stroke-dasharray="1,5" points="168,-142 168,-174 282,-174 282,-142 168,-142"/>
</g>
<g id="clust2" class="cluster">
<title>cluster_1</title>
<polygon fill="transparent" stroke="black" stroke-width="2" points="158,-90 158,-122 292,-122 292,-90 158,-90"/>
</g>
<g id="clust3" class="cluster">
<title>cluster_2</title>
<polygon fill="transparent" stroke="black" stroke-dasharray="1,5" points="8,-8 8,-70 610,-70 610,-8 8,-8"/>
</g>
<!-- t152_group_2 -->
<g id="node1" class="node">
<title>t152_group_2</title>
<g id="a_node1"><a xlink:href="t152_group_2.html" xlink:title="t152_group_2" target="_vizar">
<polygon fill="#fa6900" stroke="#7f7542" points="176,-150.5 176,-165.5 274,-165.5 274,-150.5 176,-150.5"/>
<text text-anchor="middle" x="225" y="-154.3" font-family="Times,serif" font-size="14.00">t152_group_2</text>
</a>
</g>
</g>
<!-- c_0_139 -->
<g id="node2" class="node">
<title>c_0_139</title>
<g id="a_node2"><a xlink:href="c_0_139.html" xlink:title="{multMagma(sk₁)}" target="_vizar">
<polygon fill="#fa6900" stroke="#7f7542" points="166,-98.5 166,-113.5 284,-113.5 284,-98.5 166,-98.5"/>
<text text-anchor="middle" x="225" y="-102.3" font-family="Times,serif" font-size="14.00">multMagma(sk₁)</text>
</a>
</g>
</g>
<!-- t152_group_2&#45;&gt;c_0_139 -->
<g id="edge1" class="edge">
<title>t152_group_2&#45;&gt;c_0_139</title>
<path fill="none" stroke="black" d="M225,-150.33C225,-150.33 225,-123.7 225,-123.7"/>
<polygon fill="black" stroke="black" points="228.5,-123.7 225,-113.7 221.5,-123.7 228.5,-123.7"/>
</g>
<!-- c_0_150 -->
<g id="node3" class="node">
<title>c_0_150</title>
<g id="a_node3"><a xlink:href="c_0_150.html" xlink:title="{card(sk₁) = \|carrier(sk₁)\||⇊|carrier(sk₁) = Ø}" target="_vizar">
<polygon fill="#fa6900" stroke="#7f7542" points="428,-16.5 428,-61.5 602,-61.5 602,-16.5 428,-16.5"/>
<text text-anchor="middle" x="515" y="-50.3" font-family="Times,serif" font-size="14.00">card(sk₁) = |carrier(sk₁)|</text>
<polyline fill="none" stroke="#7f7542" points="428,-46.5 602,-46.5 "/>
<text text-anchor="middle" x="515" y="-35.3" font-family="Times,serif" font-size="14.00">⇊</text>
<polyline fill="none" stroke="#7f7542" points="428,-31.5 602,-31.5 "/>
<text text-anchor="middle" x="515" y="-20.3" font-family="Times,serif" font-size="14.00">carrier(sk₁) = Ø</text>
</a>
</g>
</g>
<!-- c_0_139&#45;&gt;c_0_150 -->
<g id="edge2" class="edge">
<title>c_0_139&#45;&gt;c_0_150</title>
<path fill="none" stroke="black" stroke-dasharray="5,2" d="M249.5,-98.33C249.5,-83.86 249.5,-54 249.5,-54 249.5,-54 417.7,-54 417.7,-54"/>
<polygon fill="black" stroke="black" points="417.7,-57.5 427.7,-54 417.7,-50.5 417.7,-57.5"/>
</g>
<!-- c_0_146 -->
<g id="node4" class="node">
<title>c_0_146</title>
<g id="a_node4"><a xlink:href="c_0_146.html" xlink:title="{\|a_1_0_group_2(sk₁)\| ≠ card(sk₁)}" target="_vizar">
<polygon fill="#fa6900" stroke="#7f7542" points="180.5,-31.5 180.5,-46.5 409.5,-46.5 409.5,-31.5 180.5,-31.5"/>
<text text-anchor="middle" x="295" y="-35.3" font-family="Times,serif" font-size="14.00">|a_1_0_group_2(sk₁)| ≠ card(sk₁)</text>
</a>
</g>
</g>
<!-- c_0_139&#45;&gt;c_0_146 -->
<g id="edge3" class="edge">
<title>c_0_139&#45;&gt;c_0_146</title>
<path fill="none" stroke="black" stroke-dasharray="5,2" d="M215,-98.31C215,-98.31 215,-56.6 215,-56.6"/>
<polygon fill="black" stroke="black" points="218.5,-56.6 215,-46.6 211.5,-56.6 218.5,-56.6"/>
</g>
<!-- c_0_156 -->
<g id="node5" class="node">
<title>c_0_156</title>
<g id="a_node5"><a xlink:href="c_0_156.html" xlink:title="⊥" target="_vizar">
<polygon fill="#fa6900" stroke="#7f7542" points="148,-31.5 148,-46.5 162,-46.5 162,-31.5 148,-31.5"/>
<text text-anchor="middle" x="155" y="-35.3" font-family="Times,serif" font-size="14.00">⊥</text>
</a>
</g>
</g>
<!-- c_0_139&#45;&gt;c_0_156 -->
<g id="edge4" class="edge">
<title>c_0_139&#45;&gt;c_0_156</title>
<path fill="none" stroke="black" stroke-dasharray="5,2" d="M173.25,-98.31C173.25,-80.72 173.25,-39 173.25,-39 173.25,-39 172,-39 172,-39"/>
<polygon fill="black" stroke="black" points="172,-35.5 162,-39 172,-42.5 172,-35.5"/>
</g>
<!-- c_0_155 -->
<g id="node6" class="node">
<title>c_0_155</title>
<g id="a_node6"><a xlink:href="c_0_155.html" xlink:title="{carrier(sk₁) = Ø}" target="_vizar">
<polygon fill="#fa6900" stroke="#7f7542" points="16.5,-31.5 16.5,-46.5 129.5,-46.5 129.5,-31.5 16.5,-31.5"/>
<text text-anchor="middle" x="73" y="-35.3" font-family="Times,serif" font-size="14.00">carrier(sk₁) = Ø</text>
</a>
</g>
</g>
<!-- c_0_139&#45;&gt;c_0_155 -->
<g id="edge5" class="edge">
<title>c_0_139&#45;&gt;c_0_155</title>
<path fill="none" stroke="black" stroke-dasharray="5,2" d="M165.8,-106C123.12,-106 73,-106 73,-106 73,-106 73,-56.69 73,-56.69"/>
<polygon fill="black" stroke="black" points="76.5,-56.69 73,-46.69 69.5,-56.69 76.5,-56.69"/>
</g>
</g>
</svg>
