<?xml version="1.0" encoding="UTF-8" standalone="no"?>
<!DOCTYPE svg PUBLIC "-//W3C//DTD SVG 1.1//EN"
 "http://www.w3.org/Graphics/SVG/1.1/DTD/svg11.dtd">
<!-- Generated by graphviz version 5.0.0 (0)
 -->
<!-- Title: proof Pages: 1 -->
<svg width="607pt" height="460pt"
 viewBox="0.00 0.00 607.00 460.00" xmlns="http://www.w3.org/2000/svg" xmlns:xlink="http://www.w3.org/1999/xlink">
<g id="graph0" class="graph" transform="scale(1 1) rotate(0) translate(4 456)">
<title>proof</title>
<g id="clust1" class="cluster">
<title>cluster_0</title>
<polygon fill="transparent" stroke="black" stroke-dasharray="1,5" points="8,-337 8,-444 591,-444 591,-337 8,-337"/>
</g>
<g id="clust2" class="cluster">
<title>cluster_1</title>
<polygon fill="transparent" stroke="black" stroke-width="2" points="254,-165 254,-317 398,-317 398,-165 254,-165"/>
</g>
<g id="clust3" class="cluster">
<title>cluster_2</title>
<polygon fill="transparent" stroke="black" stroke-dasharray="1,5" points="245,-8 245,-145 407,-145 407,-8 245,-8"/>
</g>
<!-- c_0_101 -->
<g id="node1" class="node">
<title>c_0_101</title>
<g id="a_node1"><a xlink:href="c_0_101.html" xlink:title="{function(X₁)|proj₁(X₁) = X₂|proj₂(X₁) = X₃|relation(X₁)|⇊|\|X₂\| = \|X₃\|}" target="_parent">
<polygon fill="#f8edd1" stroke="#7f7542" points="487,-345.5 487,-435.5 583,-435.5 583,-345.5 487,-345.5"/>
<text text-anchor="middle" x="535" y="-424.3" font-family="Times,serif" font-size="14.00">function(X₁)</text>
<polyline fill="none" stroke="#7f7542" points="487,-420.5 583,-420.5 "/>
<text text-anchor="middle" x="535" y="-409.3" font-family="Times,serif" font-size="14.00">proj₁(X₁) = X₂</text>
<polyline fill="none" stroke="#7f7542" points="487,-405.5 583,-405.5 "/>
<text text-anchor="middle" x="535" y="-394.3" font-family="Times,serif" font-size="14.00">proj₂(X₁) = X₃</text>
<polyline fill="none" stroke="#7f7542" points="487,-390.5 583,-390.5 "/>
<text text-anchor="middle" x="535" y="-379.3" font-family="Times,serif" font-size="14.00">relation(X₁)</text>
<polyline fill="none" stroke="#7f7542" points="487,-375.5 583,-375.5 "/>
<text text-anchor="middle" x="535" y="-364.3" font-family="Times,serif" font-size="14.00">⇊</text>
<polyline fill="none" stroke="#7f7542" points="487,-360.5 583,-360.5 "/>
<text text-anchor="middle" x="535" y="-349.3" font-family="Times,serif" font-size="14.00">|X₂| = |X₃|</text>
</a>
</g>
</g>
<!-- c_0_109 -->
<g id="node5" class="node">
<title>c_0_109</title>
<g id="a_node5"><a xlink:href="c_0_109.html" xlink:title="{Group&#45;like(X₃)|associative(X₃)|carrier(X₃) = X₁|function(sk₂(X₃))|multMagma(X₃)|proj₂(sk₂(X₃)) = X₂|⇊|\|X₁\| = \|X₂\||empty(X₃)}" target="_parent">
<polygon fill="#f8edd1" stroke="#7f7542" points="262.5,-173.5 262.5,-308.5 389.5,-308.5 389.5,-173.5 262.5,-173.5"/>
<text text-anchor="middle" x="326" y="-297.3" font-family="Times,serif" font-size="14.00">Group&#45;like(X₃)</text>
<polyline fill="none" stroke="#7f7542" points="262.5,-293.5 389.5,-293.5 "/>
<text text-anchor="middle" x="326" y="-282.3" font-family="Times,serif" font-size="14.00">associative(X₃)</text>
<polyline fill="none" stroke="#7f7542" points="262.5,-278.5 389.5,-278.5 "/>
<text text-anchor="middle" x="326" y="-267.3" font-family="Times,serif" font-size="14.00">carrier(X₃) = X₁</text>
<polyline fill="none" stroke="#7f7542" points="262.5,-263.5 389.5,-263.5 "/>
<text text-anchor="middle" x="326" y="-252.3" font-family="Times,serif" font-size="14.00">function(sk₂(X₃))</text>
<polyline fill="none" stroke="#7f7542" points="262.5,-248.5 389.5,-248.5 "/>
<text text-anchor="middle" x="326" y="-237.3" font-family="Times,serif" font-size="14.00">multMagma(X₃)</text>
<polyline fill="none" stroke="#7f7542" points="262.5,-233.5 389.5,-233.5 "/>
<text text-anchor="middle" x="326" y="-222.3" font-family="Times,serif" font-size="14.00">proj₂(sk₂(X₃)) = X₂</text>
<polyline fill="none" stroke="#7f7542" points="262.5,-218.5 389.5,-218.5 "/>
<text text-anchor="middle" x="326" y="-207.3" font-family="Times,serif" font-size="14.00">⇊</text>
<polyline fill="none" stroke="#7f7542" points="262.5,-203.5 389.5,-203.5 "/>
<text text-anchor="middle" x="326" y="-192.3" font-family="Times,serif" font-size="14.00">|X₁| = |X₂|</text>
<polyline fill="none" stroke="#7f7542" points="262.5,-188.5 389.5,-188.5 "/>
<text text-anchor="middle" x="326" y="-177.3" font-family="Times,serif" font-size="14.00">empty(X₃)</text>
</a>
</g>
</g>
<!-- c_0_101&#45;&gt;c_0_109 -->
<g id="edge1" class="edge">
<title>c_0_101&#45;&gt;c_0_109</title>
<path fill="none" stroke="black" d="M535,-345.24C535,-301.24 535,-241 535,-241 535,-241 399.56,-241 399.56,-241"/>
<polygon fill="black" stroke="black" points="399.56,-237.5 389.56,-241 399.56,-244.5 399.56,-237.5"/>
</g>
<!-- c_0_62 -->
<g id="node2" class="node">
<title>c_0_62</title>
<g id="a_node2"><a xlink:href="c_0_62.html" xlink:title="{Group&#45;like(X₁)|associative(X₁)|multMagma(X₁)|⇊|empty(X₁)|function(sk₂(X₁))}" target="_parent">
<polygon fill="#f8edd1" stroke="#7f7542" points="353,-345.5 353,-435.5 469,-435.5 469,-345.5 353,-345.5"/>
<text text-anchor="middle" x="411" y="-424.3" font-family="Times,serif" font-size="14.00">Group&#45;like(X₁)</text>
<polyline fill="none" stroke="#7f7542" points="353,-420.5 469,-420.5 "/>
<text text-anchor="middle" x="411" y="-409.3" font-family="Times,serif" font-size="14.00">associative(X₁)</text>
<polyline fill="none" stroke="#7f7542" points="353,-405.5 469,-405.5 "/>
<text text-anchor="middle" x="411" y="-394.3" font-family="Times,serif" font-size="14.00">multMagma(X₁)</text>
<polyline fill="none" stroke="#7f7542" points="353,-390.5 469,-390.5 "/>
<text text-anchor="middle" x="411" y="-379.3" font-family="Times,serif" font-size="14.00">⇊</text>
<polyline fill="none" stroke="#7f7542" points="353,-375.5 469,-375.5 "/>
<text text-anchor="middle" x="411" y="-364.3" font-family="Times,serif" font-size="14.00">empty(X₁)</text>
<polyline fill="none" stroke="#7f7542" points="353,-360.5 469,-360.5 "/>
<text text-anchor="middle" x="411" y="-349.3" font-family="Times,serif" font-size="14.00">function(sk₂(X₁))</text>
</a>
</g>
</g>
<!-- c_0_62&#45;&gt;c_0_109 -->
<g id="edge2" class="edge">
<title>c_0_62&#45;&gt;c_0_109</title>
<path fill="none" stroke="black" d="M371.25,-345.24C371.25,-345.24 371.25,-318.73 371.25,-318.73"/>
<polygon fill="black" stroke="black" points="374.75,-318.73 371.25,-308.73 367.75,-318.73 374.75,-318.73"/>
</g>
<!-- c_0_60 -->
<g id="node3" class="node">
<title>c_0_60</title>
<g id="a_node3"><a xlink:href="c_0_60.html" xlink:title="{Group&#45;like(X₁)|associative(X₁)|multMagma(X₁)|⇊|empty(X₁)|proj₁(sk₂(X₁)) = carrier(X₁)}" target="_parent">
<polygon fill="#f8edd1" stroke="#7f7542" points="147.5,-345.5 147.5,-435.5 334.5,-435.5 334.5,-345.5 147.5,-345.5"/>
<text text-anchor="middle" x="241" y="-424.3" font-family="Times,serif" font-size="14.00">Group&#45;like(X₁)</text>
<polyline fill="none" stroke="#7f7542" points="147.5,-420.5 334.5,-420.5 "/>
<text text-anchor="middle" x="241" y="-409.3" font-family="Times,serif" font-size="14.00">associative(X₁)</text>
<polyline fill="none" stroke="#7f7542" points="147.5,-405.5 334.5,-405.5 "/>
<text text-anchor="middle" x="241" y="-394.3" font-family="Times,serif" font-size="14.00">multMagma(X₁)</text>
<polyline fill="none" stroke="#7f7542" points="147.5,-390.5 334.5,-390.5 "/>
<text text-anchor="middle" x="241" y="-379.3" font-family="Times,serif" font-size="14.00">⇊</text>
<polyline fill="none" stroke="#7f7542" points="147.5,-375.5 334.5,-375.5 "/>
<text text-anchor="middle" x="241" y="-364.3" font-family="Times,serif" font-size="14.00">empty(X₁)</text>
<polyline fill="none" stroke="#7f7542" points="147.5,-360.5 334.5,-360.5 "/>
<text text-anchor="middle" x="241" y="-349.3" font-family="Times,serif" font-size="14.00">proj₁(sk₂(X₁)) = carrier(X₁)</text>
</a>
</g>
</g>
<!-- c_0_60&#45;&gt;c_0_109 -->
<g id="edge3" class="edge">
<title>c_0_60&#45;&gt;c_0_109</title>
<path fill="none" stroke="black" d="M298.5,-345.24C298.5,-345.24 298.5,-318.73 298.5,-318.73"/>
<polygon fill="black" stroke="black" points="302,-318.73 298.5,-308.73 295,-318.73 302,-318.73"/>
</g>
<!-- c_0_61 -->
<g id="node4" class="node">
<title>c_0_61</title>
<g id="a_node4"><a xlink:href="c_0_61.html" xlink:title="{Group&#45;like(X₁)|associative(X₁)|multMagma(X₁)|⇊|empty(X₁)|relation(sk₂(X₁))}" target="_parent">
<polygon fill="#f8edd1" stroke="#7f7542" points="16.5,-345.5 16.5,-435.5 129.5,-435.5 129.5,-345.5 16.5,-345.5"/>
<text text-anchor="middle" x="73" y="-424.3" font-family="Times,serif" font-size="14.00">Group&#45;like(X₁)</text>
<polyline fill="none" stroke="#7f7542" points="16.5,-420.5 129.5,-420.5 "/>
<text text-anchor="middle" x="73" y="-409.3" font-family="Times,serif" font-size="14.00">associative(X₁)</text>
<polyline fill="none" stroke="#7f7542" points="16.5,-405.5 129.5,-405.5 "/>
<text text-anchor="middle" x="73" y="-394.3" font-family="Times,serif" font-size="14.00">multMagma(X₁)</text>
<polyline fill="none" stroke="#7f7542" points="16.5,-390.5 129.5,-390.5 "/>
<text text-anchor="middle" x="73" y="-379.3" font-family="Times,serif" font-size="14.00">⇊</text>
<polyline fill="none" stroke="#7f7542" points="16.5,-375.5 129.5,-375.5 "/>
<text text-anchor="middle" x="73" y="-364.3" font-family="Times,serif" font-size="14.00">empty(X₁)</text>
<polyline fill="none" stroke="#7f7542" points="16.5,-360.5 129.5,-360.5 "/>
<text text-anchor="middle" x="73" y="-349.3" font-family="Times,serif" font-size="14.00">relation(sk₂(X₁))</text>
</a>
</g>
</g>
<!-- c_0_61&#45;&gt;c_0_109 -->
<g id="edge4" class="edge">
<title>c_0_61&#45;&gt;c_0_109</title>
<path fill="none" stroke="black" d="M73,-345.24C73,-301.24 73,-241 73,-241 73,-241 252.48,-241 252.48,-241"/>
<polygon fill="black" stroke="black" points="252.48,-244.5 262.48,-241 252.48,-237.5 252.48,-244.5"/>
</g>
<!-- c_0_122 -->
<g id="node6" class="node">
<title>c_0_122</title>
<g id="a_node6"><a xlink:href="c_0_122.html" xlink:title="{Group&#45;like(X₂)|associative(X₂)|carrier(X₂) = X₁|function(sk₂(X₂))|multMagma(X₂)|⇊|\|X₁\| = \|proj₂(sk₂(X₂))\||empty(X₂)}" target="_parent">
<polygon fill="#f8edd1" stroke="#7f7542" points="253.5,-16.5 253.5,-136.5 398.5,-136.5 398.5,-16.5 253.5,-16.5"/>
<text text-anchor="middle" x="326" y="-125.3" font-family="Times,serif" font-size="14.00">Group&#45;like(X₂)</text>
<polyline fill="none" stroke="#7f7542" points="253.5,-121.5 398.5,-121.5 "/>
<text text-anchor="middle" x="326" y="-110.3" font-family="Times,serif" font-size="14.00">associative(X₂)</text>
<polyline fill="none" stroke="#7f7542" points="253.5,-106.5 398.5,-106.5 "/>
<text text-anchor="middle" x="326" y="-95.3" font-family="Times,serif" font-size="14.00">carrier(X₂) = X₁</text>
<polyline fill="none" stroke="#7f7542" points="253.5,-91.5 398.5,-91.5 "/>
<text text-anchor="middle" x="326" y="-80.3" font-family="Times,serif" font-size="14.00">function(sk₂(X₂))</text>
<polyline fill="none" stroke="#7f7542" points="253.5,-76.5 398.5,-76.5 "/>
<text text-anchor="middle" x="326" y="-65.3" font-family="Times,serif" font-size="14.00">multMagma(X₂)</text>
<polyline fill="none" stroke="#7f7542" points="253.5,-61.5 398.5,-61.5 "/>
<text text-anchor="middle" x="326" y="-50.3" font-family="Times,serif" font-size="14.00">⇊</text>
<polyline fill="none" stroke="#7f7542" points="253.5,-46.5 398.5,-46.5 "/>
<text text-anchor="middle" x="326" y="-35.3" font-family="Times,serif" font-size="14.00">|X₁| = |proj₂(sk₂(X₂))|</text>
<polyline fill="none" stroke="#7f7542" points="253.5,-31.5 398.5,-31.5 "/>
<text text-anchor="middle" x="326" y="-20.3" font-family="Times,serif" font-size="14.00">empty(X₂)</text>
</a>
</g>
</g>
<!-- c_0_109&#45;&gt;c_0_122 -->
<g id="edge5" class="edge">
<title>c_0_109&#45;&gt;c_0_122</title>
<path fill="none" stroke="black" stroke-dasharray="5,2" d="M326,-173.14C326,-173.14 326,-146.57 326,-146.57"/>
<polygon fill="black" stroke="black" points="329.5,-146.57 326,-136.57 322.5,-146.57 329.5,-146.57"/>
</g>
</g>
</svg>
