<?xml version="1.0" encoding="UTF-8" standalone="no"?>
<!DOCTYPE svg PUBLIC "-//W3C//DTD SVG 1.1//EN"
 "http://www.w3.org/Graphics/SVG/1.1/DTD/svg11.dtd">
<!-- Generated by graphviz version 5.0.0 (0)
 -->
<!-- Title: proof Pages: 1 -->
<svg width="378pt" height="415pt"
 viewBox="0.00 0.00 378.00 415.00" xmlns="http://www.w3.org/2000/svg" xmlns:xlink="http://www.w3.org/1999/xlink">
<g id="graph0" class="graph" transform="scale(1 1) rotate(0) translate(4 411)">
<title>proof</title>
<g id="clust1" class="cluster">
<title>cluster_0</title>
<polygon fill="transparent" stroke="black" stroke-dasharray="1,5" points="8,-277 8,-399 362,-399 362,-277 8,-277"/>
</g>
<g id="clust2" class="cluster">
<title>cluster_1</title>
<polygon fill="transparent" stroke="black" stroke-width="2" points="97,-135 97,-257 291,-257 291,-135 97,-135"/>
</g>
<g id="clust3" class="cluster">
<title>cluster_2</title>
<polygon fill="transparent" stroke="black" stroke-dasharray="1,5" points="128,-8 128,-115 260,-115 260,-8 128,-8"/>
</g>
<!-- c_0_126 -->
<g id="node1" class="node">
<title>c_0_126</title>
<g id="a_node1"><a xlink:href="c_0_126.html" xlink:title="{sk₁₁(\{X₁\}) = X₁}" target="_vizar">
<polygon fill="#f8edd1" stroke="#7f7542" points="248,-330.5 248,-345.5 354,-345.5 354,-330.5 248,-330.5"/>
<text text-anchor="middle" x="301" y="-334.3" font-family="Times,serif" font-size="14.00">sk₁₁({X₁}) = X₁</text>
</a>
</g>
</g>
<!-- c_0_136 -->
<g id="node3" class="node">
<title>c_0_136</title>
<g id="a_node3"><a xlink:href="c_0_136.html" xlink:title="{Group&#45;like(X₁)|associative(X₁)|multMagma(X₁)|⇊|empty(X₁)|function(sk₂(X₁))|sk₇(sk₂(X₁)) = sk₆(sk₂(X₁))}" target="_vizar">
<polygon fill="#f8edd1" stroke="#7f7542" points="105,-143.5 105,-248.5 283,-248.5 283,-143.5 105,-143.5"/>
<text text-anchor="middle" x="194" y="-237.3" font-family="Times,serif" font-size="14.00">Group&#45;like(X₁)</text>
<polyline fill="none" stroke="#7f7542" points="105,-233.5 283,-233.5 "/>
<text text-anchor="middle" x="194" y="-222.3" font-family="Times,serif" font-size="14.00">associative(X₁)</text>
<polyline fill="none" stroke="#7f7542" points="105,-218.5 283,-218.5 "/>
<text text-anchor="middle" x="194" y="-207.3" font-family="Times,serif" font-size="14.00">multMagma(X₁)</text>
<polyline fill="none" stroke="#7f7542" points="105,-203.5 283,-203.5 "/>
<text text-anchor="middle" x="194" y="-192.3" font-family="Times,serif" font-size="14.00">⇊</text>
<polyline fill="none" stroke="#7f7542" points="105,-188.5 283,-188.5 "/>
<text text-anchor="middle" x="194" y="-177.3" font-family="Times,serif" font-size="14.00">empty(X₁)</text>
<polyline fill="none" stroke="#7f7542" points="105,-173.5 283,-173.5 "/>
<text text-anchor="middle" x="194" y="-162.3" font-family="Times,serif" font-size="14.00">function(sk₂(X₁))</text>
<polyline fill="none" stroke="#7f7542" points="105,-158.5 283,-158.5 "/>
<text text-anchor="middle" x="194" y="-147.3" font-family="Times,serif" font-size="14.00">sk₇(sk₂(X₁)) = sk₆(sk₂(X₁))</text>
</a>
</g>
</g>
<!-- c_0_126&#45;&gt;c_0_136 -->
<g id="edge1" class="edge">
<title>c_0_126&#45;&gt;c_0_136</title>
<path fill="none" stroke="black" d="M265.5,-330.37C265.5,-330.37 265.5,-258.64 265.5,-258.64"/>
<polygon fill="black" stroke="black" points="269,-258.64 265.5,-248.64 262,-258.64 269,-258.64"/>
</g>
<!-- c_0_127 -->
<g id="node2" class="node">
<title>c_0_127</title>
<g id="a_node2"><a xlink:href="c_0_127.html" xlink:title="{Group&#45;like(X₁)|associative(X₁)|multMagma(X₁)|⇊|\{sk₇(sk₂(X₁))\} = \{sk₆(sk₂(X₁))\}|empty(X₁)|function(sk₂(X₁))}" target="_vizar">
<polygon fill="#f8edd1" stroke="#7f7542" points="16,-285.5 16,-390.5 230,-390.5 230,-285.5 16,-285.5"/>
<text text-anchor="middle" x="123" y="-379.3" font-family="Times,serif" font-size="14.00">Group&#45;like(X₁)</text>
<polyline fill="none" stroke="#7f7542" points="16,-375.5 230,-375.5 "/>
<text text-anchor="middle" x="123" y="-364.3" font-family="Times,serif" font-size="14.00">associative(X₁)</text>
<polyline fill="none" stroke="#7f7542" points="16,-360.5 230,-360.5 "/>
<text text-anchor="middle" x="123" y="-349.3" font-family="Times,serif" font-size="14.00">multMagma(X₁)</text>
<polyline fill="none" stroke="#7f7542" points="16,-345.5 230,-345.5 "/>
<text text-anchor="middle" x="123" y="-334.3" font-family="Times,serif" font-size="14.00">⇊</text>
<polyline fill="none" stroke="#7f7542" points="16,-330.5 230,-330.5 "/>
<text text-anchor="middle" x="123" y="-319.3" font-family="Times,serif" font-size="14.00">{sk₇(sk₂(X₁))} = {sk₆(sk₂(X₁))}</text>
<polyline fill="none" stroke="#7f7542" points="16,-315.5 230,-315.5 "/>
<text text-anchor="middle" x="123" y="-304.3" font-family="Times,serif" font-size="14.00">empty(X₁)</text>
<polyline fill="none" stroke="#7f7542" points="16,-300.5 230,-300.5 "/>
<text text-anchor="middle" x="123" y="-289.3" font-family="Times,serif" font-size="14.00">function(sk₂(X₁))</text>
</a>
</g>
</g>
<!-- c_0_127&#45;&gt;c_0_136 -->
<g id="edge2" class="edge">
<title>c_0_127&#45;&gt;c_0_136</title>
<path fill="none" stroke="black" d="M167.5,-285.12C167.5,-285.12 167.5,-258.92 167.5,-258.92"/>
<polygon fill="black" stroke="black" points="171,-258.92 167.5,-248.92 164,-258.92 171,-258.92"/>
</g>
<!-- c_0_62 -->
<g id="node4" class="node">
<title>c_0_62</title>
<g id="a_node4"><a xlink:href="c_0_62.html" xlink:title="{Group&#45;like(X₁)|associative(X₁)|multMagma(X₁)|⇊|empty(X₁)|function(sk₂(X₁))}" target="_vizar">
<polygon fill="#f8edd1" stroke="#7f7542" points="136,-16.5 136,-106.5 252,-106.5 252,-16.5 136,-16.5"/>
<text text-anchor="middle" x="194" y="-95.3" font-family="Times,serif" font-size="14.00">Group&#45;like(X₁)</text>
<polyline fill="none" stroke="#7f7542" points="136,-91.5 252,-91.5 "/>
<text text-anchor="middle" x="194" y="-80.3" font-family="Times,serif" font-size="14.00">associative(X₁)</text>
<polyline fill="none" stroke="#7f7542" points="136,-76.5 252,-76.5 "/>
<text text-anchor="middle" x="194" y="-65.3" font-family="Times,serif" font-size="14.00">multMagma(X₁)</text>
<polyline fill="none" stroke="#7f7542" points="136,-61.5 252,-61.5 "/>
<text text-anchor="middle" x="194" y="-50.3" font-family="Times,serif" font-size="14.00">⇊</text>
<polyline fill="none" stroke="#7f7542" points="136,-46.5 252,-46.5 "/>
<text text-anchor="middle" x="194" y="-35.3" font-family="Times,serif" font-size="14.00">empty(X₁)</text>
<polyline fill="none" stroke="#7f7542" points="136,-31.5 252,-31.5 "/>
<text text-anchor="middle" x="194" y="-20.3" font-family="Times,serif" font-size="14.00">function(sk₂(X₁))</text>
</a>
</g>
</g>
<!-- c_0_136&#45;&gt;c_0_62 -->
<g id="edge3" class="edge">
<title>c_0_136&#45;&gt;c_0_62</title>
<path fill="none" stroke="black" stroke-dasharray="5,2" d="M194,-143.23C194,-143.23 194,-116.72 194,-116.72"/>
<polygon fill="black" stroke="black" points="197.5,-116.72 194,-106.72 190.5,-116.72 197.5,-116.72"/>
</g>
</g>
</svg>
