<?xml version="1.0" encoding="UTF-8" standalone="no"?>
<!DOCTYPE svg PUBLIC "-//W3C//DTD SVG 1.1//EN"
 "http://www.w3.org/Graphics/SVG/1.1/DTD/svg11.dtd">
<!-- Generated by graphviz version 5.0.0 (0)
 -->
<!-- Title: proof Pages: 1 -->
<svg width="433pt" height="265pt"
 viewBox="0.00 0.00 433.00 265.00" xmlns="http://www.w3.org/2000/svg" xmlns:xlink="http://www.w3.org/1999/xlink">
<g id="graph0" class="graph" transform="scale(1 1) rotate(0) translate(4 261)">
<title>proof</title>
<g id="clust1" class="cluster">
<title>cluster_0</title>
<polygon fill="transparent" stroke="black" stroke-dasharray="1,5" points="8,-172 8,-249 363,-249 363,-172 8,-172"/>
</g>
<g id="clust2" class="cluster">
<title>cluster_1</title>
<polygon fill="transparent" stroke="black" stroke-width="2" points="174,-90 174,-152 258,-152 258,-90 174,-90"/>
</g>
<g id="clust3" class="cluster">
<title>cluster_2</title>
<polygon fill="transparent" stroke="black" stroke-dasharray="1,5" points="11,-8 11,-70 417,-70 417,-8 11,-8"/>
</g>
<!-- c_0_56 -->
<g id="node1" class="node">
<title>c_0_56</title>
<g id="a_node1"><a xlink:href="c_0_56.html" xlink:title="{\{X₁\} ≠ Ø}" target="_vizar">
<polygon fill="#f8edd1" stroke="#7f7542" points="289,-203 289,-218 355,-218 355,-203 289,-203"/>
<text text-anchor="middle" x="322" y="-206.8" font-family="Times,serif" font-size="14.00">{X₁} ≠ Ø</text>
</a>
</g>
</g>
<!-- c_0_68 -->
<g id="node4" class="node">
<title>c_0_68</title>
<g id="a_node4"><a xlink:href="c_0_68.html" xlink:title="{X₁ ∈ \{X₂\}|⇊|X₁ = X₂}" target="_vizar">
<polygon fill="#f8edd1" stroke="#7f7542" points="182,-98.5 182,-143.5 250,-143.5 250,-98.5 182,-98.5"/>
<text text-anchor="middle" x="216" y="-132.3" font-family="Times,serif" font-size="14.00">X₁ ∈ {X₂}</text>
<polyline fill="none" stroke="#7f7542" points="182,-128.5 250,-128.5 "/>
<text text-anchor="middle" x="216" y="-117.3" font-family="Times,serif" font-size="14.00">⇊</text>
<polyline fill="none" stroke="#7f7542" points="182,-113.5 250,-113.5 "/>
<text text-anchor="middle" x="216" y="-102.3" font-family="Times,serif" font-size="14.00">X₁ = X₂</text>
</a>
</g>
</g>
<!-- c_0_56&#45;&gt;c_0_68 -->
<g id="edge1" class="edge">
<title>c_0_56&#45;&gt;c_0_68</title>
<path fill="none" stroke="black" d="M322,-202.87C322,-181.23 322,-121 322,-121 322,-121 260.12,-121 260.12,-121"/>
<polygon fill="black" stroke="black" points="260.12,-117.5 250.12,-121 260.12,-124.5 260.12,-117.5"/>
</g>
<!-- c_0_55 -->
<g id="node2" class="node">
<title>c_0_55</title>
<g id="a_node2"><a xlink:href="c_0_55.html" xlink:title="{X₂ ∈ X₁|⇊|X₁ = Ø|\{X₂\} ∈ bool(X₁)}" target="_vizar">
<polygon fill="#f8edd1" stroke="#7f7542" points="161.5,-180.5 161.5,-240.5 270.5,-240.5 270.5,-180.5 161.5,-180.5"/>
<text text-anchor="middle" x="216" y="-229.3" font-family="Times,serif" font-size="14.00">X₂ ∈ X₁</text>
<polyline fill="none" stroke="#7f7542" points="161.5,-225.5 270.5,-225.5 "/>
<text text-anchor="middle" x="216" y="-214.3" font-family="Times,serif" font-size="14.00">⇊</text>
<polyline fill="none" stroke="#7f7542" points="161.5,-210.5 270.5,-210.5 "/>
<text text-anchor="middle" x="216" y="-199.3" font-family="Times,serif" font-size="14.00">X₁ = Ø</text>
<polyline fill="none" stroke="#7f7542" points="161.5,-195.5 270.5,-195.5 "/>
<text text-anchor="middle" x="216" y="-184.3" font-family="Times,serif" font-size="14.00">{X₂} ∈ bool(X₁)</text>
</a>
</g>
</g>
<!-- c_0_55&#45;&gt;c_0_68 -->
<g id="edge2" class="edge">
<title>c_0_55&#45;&gt;c_0_68</title>
<path fill="none" stroke="black" d="M216,-180.2C216,-180.2 216,-153.63 216,-153.63"/>
<polygon fill="black" stroke="black" points="219.5,-153.63 216,-143.63 212.5,-153.63 219.5,-153.63"/>
</g>
<!-- c_0_54 -->
<g id="node3" class="node">
<title>c_0_54</title>
<g id="a_node3"><a xlink:href="c_0_54.html" xlink:title="{\{X₁\} ∈ bool(\{X₂\})|⇊|X₁ = X₂}" target="_vizar">
<polygon fill="#f8edd1" stroke="#7f7542" points="16.5,-188 16.5,-233 143.5,-233 143.5,-188 16.5,-188"/>
<text text-anchor="middle" x="80" y="-221.8" font-family="Times,serif" font-size="14.00">{X₁} ∈ bool({X₂})</text>
<polyline fill="none" stroke="#7f7542" points="16.5,-218 143.5,-218 "/>
<text text-anchor="middle" x="80" y="-206.8" font-family="Times,serif" font-size="14.00">⇊</text>
<polyline fill="none" stroke="#7f7542" points="16.5,-203 143.5,-203 "/>
<text text-anchor="middle" x="80" y="-191.8" font-family="Times,serif" font-size="14.00">X₁ = X₂</text>
</a>
</g>
</g>
<!-- c_0_54&#45;&gt;c_0_68 -->
<g id="edge3" class="edge">
<title>c_0_54&#45;&gt;c_0_68</title>
<path fill="none" stroke="black" d="M81.25,-187.92C81.25,-161.4 81.25,-121 81.25,-121 81.25,-121 172,-121 172,-121"/>
<polygon fill="black" stroke="black" points="172,-124.5 182,-121 172,-117.5 172,-124.5"/>
</g>
<!-- c_0_77 -->
<g id="node5" class="node">
<title>c_0_77</title>
<g id="a_node5"><a xlink:href="c_0_77.html" xlink:title="{\{X₁\} ⊆ X₂|sk₄(\{X₁\},X₂) = X₁}" target="_vizar">
<polygon fill="#f8edd1" stroke="#7f7542" points="287.5,-24 287.5,-54 408.5,-54 408.5,-24 287.5,-24"/>
<text text-anchor="middle" x="348" y="-42.8" font-family="Times,serif" font-size="14.00">{X₁} ⊆ X₂</text>
<polyline fill="none" stroke="#7f7542" points="287.5,-39 408.5,-39 "/>
<text text-anchor="middle" x="348" y="-27.8" font-family="Times,serif" font-size="14.00">sk₄({X₁},X₂) = X₁</text>
</a>
</g>
</g>
<!-- c_0_68&#45;&gt;c_0_77 -->
<g id="edge4" class="edge">
<title>c_0_68&#45;&gt;c_0_77</title>
<path fill="none" stroke="black" stroke-dasharray="5,2" d="M233,-98.14C233,-77.39 233,-50 233,-50 233,-50 277.47,-50 277.47,-50"/>
<polygon fill="black" stroke="black" points="277.47,-53.5 287.47,-50 277.47,-46.5 277.47,-53.5"/>
</g>
<!-- c_0_126 -->
<g id="node6" class="node">
<title>c_0_126</title>
<g id="a_node6"><a xlink:href="c_0_126.html" xlink:title="{sk₁₁(\{X₁\}) = X₁}" target="_vizar">
<polygon fill="#f8edd1" stroke="#7f7542" points="163,-31.5 163,-46.5 269,-46.5 269,-31.5 163,-31.5"/>
<text text-anchor="middle" x="216" y="-35.3" font-family="Times,serif" font-size="14.00">sk₁₁({X₁}) = X₁</text>
</a>
</g>
</g>
<!-- c_0_68&#45;&gt;c_0_126 -->
<g id="edge5" class="edge">
<title>c_0_68&#45;&gt;c_0_126</title>
<path fill="none" stroke="black" stroke-dasharray="5,2" d="M216,-98.16C216,-98.16 216,-56.65 216,-56.65"/>
<polygon fill="black" stroke="black" points="219.5,-56.65 216,-46.65 212.5,-56.65 219.5,-56.65"/>
</g>
<!-- c_0_81 -->
<g id="node7" class="node">
<title>c_0_81</title>
<g id="a_node7"><a xlink:href="c_0_81.html" xlink:title="{\{X₂\} ∈ bool(X₁)|⇊|sk₁₂(X₁,\{X₂\}) = X₂}" target="_vizar">
<polygon fill="#f8edd1" stroke="#7f7542" points="19,-16.5 19,-61.5 145,-61.5 145,-16.5 19,-16.5"/>
<text text-anchor="middle" x="82" y="-50.3" font-family="Times,serif" font-size="14.00">{X₂} ∈ bool(X₁)</text>
<polyline fill="none" stroke="#7f7542" points="19,-46.5 145,-46.5 "/>
<text text-anchor="middle" x="82" y="-35.3" font-family="Times,serif" font-size="14.00">⇊</text>
<polyline fill="none" stroke="#7f7542" points="19,-31.5 145,-31.5 "/>
<text text-anchor="middle" x="82" y="-20.3" font-family="Times,serif" font-size="14.00">sk₁₂(X₁,{X₂}) = X₂</text>
</a>
</g>
</g>
<!-- c_0_68&#45;&gt;c_0_81 -->
<g id="edge6" class="edge">
<title>c_0_68&#45;&gt;c_0_81</title>
<path fill="none" stroke="black" stroke-dasharray="5,2" d="M199,-98.26C199,-80.21 199,-58 199,-58 199,-58 155.29,-58 155.29,-58"/>
<polygon fill="black" stroke="black" points="155.29,-54.5 145.29,-58 155.29,-61.5 155.29,-54.5"/>
</g>
</g>
</svg>
