<?xml version="1.0" encoding="UTF-8" standalone="no"?>
<!DOCTYPE svg PUBLIC "-//W3C//DTD SVG 1.1//EN"
 "http://www.w3.org/Graphics/SVG/1.1/DTD/svg11.dtd">
<!-- Generated by graphviz version 5.0.0 (0)
 -->
<!-- Title: proof Pages: 1 -->
<svg width="325pt" height="460pt"
 viewBox="0.00 0.00 325.00 460.00" xmlns="http://www.w3.org/2000/svg" xmlns:xlink="http://www.w3.org/1999/xlink">
<g id="graph0" class="graph" transform="scale(1 1) rotate(0) translate(4 456)">
<title>proof</title>
<g id="clust1" class="cluster">
<title>cluster_0</title>
<polygon fill="transparent" stroke="black" stroke-dasharray="1,5" points="8,-307 8,-444 309,-444 309,-307 8,-307"/>
</g>
<g id="clust2" class="cluster">
<title>cluster_1</title>
<polygon fill="transparent" stroke="black" stroke-width="2" points="28,-150 28,-287 260,-287 260,-150 28,-150"/>
</g>
<g id="clust3" class="cluster">
<title>cluster_2</title>
<polygon fill="transparent" stroke="black" stroke-dasharray="1,5" points="53,-8 53,-130 235,-130 235,-8 53,-8"/>
</g>
<!-- c_0_97 -->
<g id="node1" class="node">
<title>c_0_97</title>
<g id="a_node1"><a xlink:href="c_0_97.html" xlink:title="{Group&#45;like(X₁)|X₂ ∈ a_1_0_group_2(X₁)|X₃ = proj₂(sk₂(X₁))|associative(X₁)|multMagma(X₁)|⇊|X₂ ∈ X₃|carrier(X₁) = Ø}" target="_vizar">
<polygon fill="#f8edd1" stroke="#7f7542" points="135.5,-315.5 135.5,-435.5 300.5,-435.5 300.5,-315.5 135.5,-315.5"/>
<text text-anchor="middle" x="218" y="-424.3" font-family="Times,serif" font-size="14.00">Group&#45;like(X₁)</text>
<polyline fill="none" stroke="#7f7542" points="135.5,-420.5 300.5,-420.5 "/>
<text text-anchor="middle" x="218" y="-409.3" font-family="Times,serif" font-size="14.00">X₂ ∈ a_1_0_group_2(X₁)</text>
<polyline fill="none" stroke="#7f7542" points="135.5,-405.5 300.5,-405.5 "/>
<text text-anchor="middle" x="218" y="-394.3" font-family="Times,serif" font-size="14.00">X₃ = proj₂(sk₂(X₁))</text>
<polyline fill="none" stroke="#7f7542" points="135.5,-390.5 300.5,-390.5 "/>
<text text-anchor="middle" x="218" y="-379.3" font-family="Times,serif" font-size="14.00">associative(X₁)</text>
<polyline fill="none" stroke="#7f7542" points="135.5,-375.5 300.5,-375.5 "/>
<text text-anchor="middle" x="218" y="-364.3" font-family="Times,serif" font-size="14.00">multMagma(X₁)</text>
<polyline fill="none" stroke="#7f7542" points="135.5,-360.5 300.5,-360.5 "/>
<text text-anchor="middle" x="218" y="-349.3" font-family="Times,serif" font-size="14.00">⇊</text>
<polyline fill="none" stroke="#7f7542" points="135.5,-345.5 300.5,-345.5 "/>
<text text-anchor="middle" x="218" y="-334.3" font-family="Times,serif" font-size="14.00">X₂ ∈ X₃</text>
<polyline fill="none" stroke="#7f7542" points="135.5,-330.5 300.5,-330.5 "/>
<text text-anchor="middle" x="218" y="-319.3" font-family="Times,serif" font-size="14.00">carrier(X₁) = Ø</text>
</a>
</g>
</g>
<!-- c_0_102 -->
<g id="node3" class="node">
<title>c_0_102</title>
<g id="a_node3"><a xlink:href="c_0_102.html" xlink:title="{Group&#45;like(X₁)|X₃ = proj₂(sk₂(X₁))|associative(X₁)|multMagma(X₁)|⇊|a_1_0_group_2(X₁) ⊆ X₂|carrier(X₁) = Ø|sk₄(a_1_0_group_2(X₁),X₂) ∈ X₃}" target="_vizar">
<polygon fill="#f8edd1" stroke="#7f7542" points="36,-158.5 36,-278.5 252,-278.5 252,-158.5 36,-158.5"/>
<text text-anchor="middle" x="144" y="-267.3" font-family="Times,serif" font-size="14.00">Group&#45;like(X₁)</text>
<polyline fill="none" stroke="#7f7542" points="36,-263.5 252,-263.5 "/>
<text text-anchor="middle" x="144" y="-252.3" font-family="Times,serif" font-size="14.00">X₃ = proj₂(sk₂(X₁))</text>
<polyline fill="none" stroke="#7f7542" points="36,-248.5 252,-248.5 "/>
<text text-anchor="middle" x="144" y="-237.3" font-family="Times,serif" font-size="14.00">associative(X₁)</text>
<polyline fill="none" stroke="#7f7542" points="36,-233.5 252,-233.5 "/>
<text text-anchor="middle" x="144" y="-222.3" font-family="Times,serif" font-size="14.00">multMagma(X₁)</text>
<polyline fill="none" stroke="#7f7542" points="36,-218.5 252,-218.5 "/>
<text text-anchor="middle" x="144" y="-207.3" font-family="Times,serif" font-size="14.00">⇊</text>
<polyline fill="none" stroke="#7f7542" points="36,-203.5 252,-203.5 "/>
<text text-anchor="middle" x="144" y="-192.3" font-family="Times,serif" font-size="14.00">a_1_0_group_2(X₁) ⊆ X₂</text>
<polyline fill="none" stroke="#7f7542" points="36,-188.5 252,-188.5 "/>
<text text-anchor="middle" x="144" y="-177.3" font-family="Times,serif" font-size="14.00">carrier(X₁) = Ø</text>
<polyline fill="none" stroke="#7f7542" points="36,-173.5 252,-173.5 "/>
<text text-anchor="middle" x="144" y="-162.3" font-family="Times,serif" font-size="14.00">sk₄(a_1_0_group_2(X₁),X₂) ∈ X₃</text>
</a>
</g>
</g>
<!-- c_0_97&#45;&gt;c_0_102 -->
<g id="edge1" class="edge">
<title>c_0_97&#45;&gt;c_0_102</title>
<path fill="none" stroke="black" d="M193.75,-315.25C193.75,-315.25 193.75,-288.59 193.75,-288.59"/>
<polygon fill="black" stroke="black" points="197.25,-288.59 193.75,-278.59 190.25,-288.59 197.25,-288.59"/>
</g>
<!-- c_0_58 -->
<g id="node2" class="node">
<title>c_0_58</title>
<g id="a_node2"><a xlink:href="c_0_58.html" xlink:title="{X₁ ⊆ X₂|sk₄(X₁,X₂) ∈ X₁}" target="_vizar">
<polygon fill="#f8edd1" stroke="#7f7542" points="16.5,-360.5 16.5,-390.5 117.5,-390.5 117.5,-360.5 16.5,-360.5"/>
<text text-anchor="middle" x="67" y="-379.3" font-family="Times,serif" font-size="14.00">X₁ ⊆ X₂</text>
<polyline fill="none" stroke="#7f7542" points="16.5,-375.5 117.5,-375.5 "/>
<text text-anchor="middle" x="67" y="-364.3" font-family="Times,serif" font-size="14.00">sk₄(X₁,X₂) ∈ X₁</text>
</a>
</g>
</g>
<!-- c_0_58&#45;&gt;c_0_102 -->
<g id="edge2" class="edge">
<title>c_0_58&#45;&gt;c_0_102</title>
<path fill="none" stroke="black" d="M76.75,-360.45C76.75,-360.45 76.75,-288.7 76.75,-288.7"/>
<polygon fill="black" stroke="black" points="80.25,-288.7 76.75,-278.7 73.25,-288.7 80.25,-288.7"/>
</g>
<!-- c_0_111 -->
<g id="node4" class="node">
<title>c_0_111</title>
<g id="a_node4"><a xlink:href="c_0_111.html" xlink:title="{Group&#45;like(X₁)|X₂ = proj₂(sk₂(X₁))|associative(X₁)|multMagma(X₁)|⇊|a_1_0_group_2(X₁) ⊆ X₂|carrier(X₁) = Ø}" target="_vizar">
<polygon fill="#f8edd1" stroke="#7f7542" points="61,-16.5 61,-121.5 227,-121.5 227,-16.5 61,-16.5"/>
<text text-anchor="middle" x="144" y="-110.3" font-family="Times,serif" font-size="14.00">Group&#45;like(X₁)</text>
<polyline fill="none" stroke="#7f7542" points="61,-106.5 227,-106.5 "/>
<text text-anchor="middle" x="144" y="-95.3" font-family="Times,serif" font-size="14.00">X₂ = proj₂(sk₂(X₁))</text>
<polyline fill="none" stroke="#7f7542" points="61,-91.5 227,-91.5 "/>
<text text-anchor="middle" x="144" y="-80.3" font-family="Times,serif" font-size="14.00">associative(X₁)</text>
<polyline fill="none" stroke="#7f7542" points="61,-76.5 227,-76.5 "/>
<text text-anchor="middle" x="144" y="-65.3" font-family="Times,serif" font-size="14.00">multMagma(X₁)</text>
<polyline fill="none" stroke="#7f7542" points="61,-61.5 227,-61.5 "/>
<text text-anchor="middle" x="144" y="-50.3" font-family="Times,serif" font-size="14.00">⇊</text>
<polyline fill="none" stroke="#7f7542" points="61,-46.5 227,-46.5 "/>
<text text-anchor="middle" x="144" y="-35.3" font-family="Times,serif" font-size="14.00">a_1_0_group_2(X₁) ⊆ X₂</text>
<polyline fill="none" stroke="#7f7542" points="61,-31.5 227,-31.5 "/>
<text text-anchor="middle" x="144" y="-20.3" font-family="Times,serif" font-size="14.00">carrier(X₁) = Ø</text>
</a>
</g>
</g>
<!-- c_0_102&#45;&gt;c_0_111 -->
<g id="edge3" class="edge">
<title>c_0_102&#45;&gt;c_0_111</title>
<path fill="none" stroke="black" stroke-dasharray="5,2" d="M144,-158.12C144,-158.12 144,-131.9 144,-131.9"/>
<polygon fill="black" stroke="black" points="147.5,-131.9 144,-121.9 140.5,-131.9 147.5,-131.9"/>
</g>
</g>
</svg>
