<?xml version="1.0" encoding="UTF-8" standalone="no"?>
<!DOCTYPE svg PUBLIC "-//W3C//DTD SVG 1.1//EN"
 "http://www.w3.org/Graphics/SVG/1.1/DTD/svg11.dtd">
<!-- Generated by graphviz version 5.0.0 (0)
 -->
<!-- Title: proof Pages: 1 -->
<svg width="628pt" height="168pt"
 viewBox="0.00 0.00 628.00 168.00" xmlns="http://www.w3.org/2000/svg" xmlns:xlink="http://www.w3.org/1999/xlink">
<g id="graph0" class="graph" transform="scale(1 1) rotate(0) translate(4 164)">
<title>proof</title>
<g id="clust1" class="cluster">
<title>cluster_1</title>
<polygon fill="transparent" stroke="black" stroke-width="2" points="280,-120 280,-152 374,-152 374,-120 280,-120"/>
</g>
<g id="clust2" class="cluster">
<title>cluster_2</title>
<polygon fill="transparent" stroke="black" stroke-dasharray="1,5" points="8,-8 8,-100 612,-100 612,-8 8,-8"/>
</g>
<!-- d4_funct_1 -->
<g id="node1" class="node">
<title>d4_funct_1</title>
<g id="a_node1"><a xlink:href="d4_funct_1.html" xlink:title="d4_funct_1" target="_parent">
<polygon fill="#69d2e7" stroke="#7f7542" points="288,-128.5 288,-143.5 366,-143.5 366,-128.5 288,-128.5"/>
<text text-anchor="middle" x="327" y="-132.3" font-family="Times,serif" font-size="14.00">d4_funct_1</text>
</a>
</g>
</g>
<!-- c_0_106 -->
<g id="node2" class="node">
<title>c_0_106</title>
<g id="a_node2"><a xlink:href="c_0_106.html" xlink:title="{function(X₁)|relation(X₁)|⇊|function(X₁)|sk₇(X₁) ∈ proj₁(X₁)}" target="_parent">
<polygon fill="#f8edd1" stroke="#7f7542" points="478,-16.5 478,-91.5 604,-91.5 604,-16.5 478,-16.5"/>
<text text-anchor="middle" x="541" y="-80.3" font-family="Times,serif" font-size="14.00">function(X₁)</text>
<polyline fill="none" stroke="#7f7542" points="478,-76.5 604,-76.5 "/>
<text text-anchor="middle" x="541" y="-65.3" font-family="Times,serif" font-size="14.00">relation(X₁)</text>
<polyline fill="none" stroke="#7f7542" points="478,-61.5 604,-61.5 "/>
<text text-anchor="middle" x="541" y="-50.3" font-family="Times,serif" font-size="14.00">⇊</text>
<polyline fill="none" stroke="#7f7542" points="478,-46.5 604,-46.5 "/>
<text text-anchor="middle" x="541" y="-35.3" font-family="Times,serif" font-size="14.00">function(X₁)</text>
<polyline fill="none" stroke="#7f7542" points="478,-31.5 604,-31.5 "/>
<text text-anchor="middle" x="541" y="-20.3" font-family="Times,serif" font-size="14.00">sk₇(X₁) ∈ proj₁(X₁)</text>
</a>
</g>
</g>
<!-- d4_funct_1&#45;&gt;c_0_106 -->
<g id="edge1" class="edge">
<title>d4_funct_1&#45;&gt;c_0_106</title>
<path fill="none" stroke="black" d="M366.25,-136C428.03,-136 541,-136 541,-136 541,-136 541,-101.64 541,-101.64"/>
<polygon fill="black" stroke="black" points="544.5,-101.64 541,-91.64 537.5,-101.64 544.5,-101.64"/>
</g>
<!-- c_0_107 -->
<g id="node3" class="node">
<title>c_0_107</title>
<g id="a_node3"><a xlink:href="c_0_107.html" xlink:title="{function(X₁)|relation(X₁)|⇊|function(X₁)|sk₆(X₁) ∈ proj₁(X₁)}" target="_parent">
<polygon fill="#f8edd1" stroke="#7f7542" points="334,-16.5 334,-91.5 460,-91.5 460,-16.5 334,-16.5"/>
<text text-anchor="middle" x="397" y="-80.3" font-family="Times,serif" font-size="14.00">function(X₁)</text>
<polyline fill="none" stroke="#7f7542" points="334,-76.5 460,-76.5 "/>
<text text-anchor="middle" x="397" y="-65.3" font-family="Times,serif" font-size="14.00">relation(X₁)</text>
<polyline fill="none" stroke="#7f7542" points="334,-61.5 460,-61.5 "/>
<text text-anchor="middle" x="397" y="-50.3" font-family="Times,serif" font-size="14.00">⇊</text>
<polyline fill="none" stroke="#7f7542" points="334,-46.5 460,-46.5 "/>
<text text-anchor="middle" x="397" y="-35.3" font-family="Times,serif" font-size="14.00">function(X₁)</text>
<polyline fill="none" stroke="#7f7542" points="334,-31.5 460,-31.5 "/>
<text text-anchor="middle" x="397" y="-20.3" font-family="Times,serif" font-size="14.00">sk₆(X₁) ∈ proj₁(X₁)</text>
</a>
</g>
</g>
<!-- d4_funct_1&#45;&gt;c_0_107 -->
<g id="edge2" class="edge">
<title>d4_funct_1&#45;&gt;c_0_107</title>
<path fill="none" stroke="black" d="M350,-128.43C350,-128.43 350,-101.67 350,-101.67"/>
<polygon fill="black" stroke="black" points="353.5,-101.67 350,-91.67 346.5,-101.67 353.5,-101.67"/>
</g>
<!-- c_0_135 -->
<g id="node4" class="node">
<title>c_0_135</title>
<g id="a_node4"><a xlink:href="c_0_135.html" xlink:title="{function(X₁)|relation(X₁)|sk₆(X₁) = sk₇(X₁)|⇊|function(X₁)}" target="_parent">
<polygon fill="#f8edd1" stroke="#7f7542" points="200.5,-16.5 200.5,-91.5 315.5,-91.5 315.5,-16.5 200.5,-16.5"/>
<text text-anchor="middle" x="258" y="-80.3" font-family="Times,serif" font-size="14.00">function(X₁)</text>
<polyline fill="none" stroke="#7f7542" points="200.5,-76.5 315.5,-76.5 "/>
<text text-anchor="middle" x="258" y="-65.3" font-family="Times,serif" font-size="14.00">relation(X₁)</text>
<polyline fill="none" stroke="#7f7542" points="200.5,-61.5 315.5,-61.5 "/>
<text text-anchor="middle" x="258" y="-50.3" font-family="Times,serif" font-size="14.00">sk₆(X₁) = sk₇(X₁)</text>
<polyline fill="none" stroke="#7f7542" points="200.5,-46.5 315.5,-46.5 "/>
<text text-anchor="middle" x="258" y="-35.3" font-family="Times,serif" font-size="14.00">⇊</text>
<polyline fill="none" stroke="#7f7542" points="200.5,-31.5 315.5,-31.5 "/>
<text text-anchor="middle" x="258" y="-20.3" font-family="Times,serif" font-size="14.00">function(X₁)</text>
</a>
</g>
</g>
<!-- d4_funct_1&#45;&gt;c_0_135 -->
<g id="edge3" class="edge">
<title>d4_funct_1&#45;&gt;c_0_135</title>
<path fill="none" stroke="black" d="M301.75,-128.43C301.75,-128.43 301.75,-101.67 301.75,-101.67"/>
<polygon fill="black" stroke="black" points="305.25,-101.67 301.75,-91.67 298.25,-101.67 305.25,-101.67"/>
</g>
<!-- c_0_105 -->
<g id="node5" class="node">
<title>c_0_105</title>
<g id="a_node5"><a xlink:href="c_0_105.html" xlink:title="{function(X₁)|relation(X₁)|⇊|X₁(sk₆(X₁)) = X₁(sk₇(X₁))|function(X₁)}" target="_parent">
<polygon fill="#f8edd1" stroke="#7f7542" points="16,-16.5 16,-91.5 182,-91.5 182,-16.5 16,-16.5"/>
<text text-anchor="middle" x="99" y="-80.3" font-family="Times,serif" font-size="14.00">function(X₁)</text>
<polyline fill="none" stroke="#7f7542" points="16,-76.5 182,-76.5 "/>
<text text-anchor="middle" x="99" y="-65.3" font-family="Times,serif" font-size="14.00">relation(X₁)</text>
<polyline fill="none" stroke="#7f7542" points="16,-61.5 182,-61.5 "/>
<text text-anchor="middle" x="99" y="-50.3" font-family="Times,serif" font-size="14.00">⇊</text>
<polyline fill="none" stroke="#7f7542" points="16,-46.5 182,-46.5 "/>
<text text-anchor="middle" x="99" y="-35.3" font-family="Times,serif" font-size="14.00">X₁(sk₆(X₁)) = X₁(sk₇(X₁))</text>
<polyline fill="none" stroke="#7f7542" points="16,-31.5 182,-31.5 "/>
<text text-anchor="middle" x="99" y="-20.3" font-family="Times,serif" font-size="14.00">function(X₁)</text>
</a>
</g>
</g>
<!-- d4_funct_1&#45;&gt;c_0_105 -->
<g id="edge4" class="edge">
<title>d4_funct_1&#45;&gt;c_0_105</title>
<path fill="none" stroke="black" d="M287.81,-136C222.62,-136 99,-136 99,-136 99,-136 99,-101.64 99,-101.64"/>
<polygon fill="black" stroke="black" points="102.5,-101.64 99,-91.64 95.5,-101.64 102.5,-101.64"/>
</g>
</g>
</svg>
