<?xml version="1.0" encoding="UTF-8" standalone="no"?>
<!DOCTYPE svg PUBLIC "-//W3C//DTD SVG 1.1//EN"
 "http://www.w3.org/Graphics/SVG/1.1/DTD/svg11.dtd">
<!-- Generated by graphviz version 5.0.0 (0)
 -->
<!-- Title: proof Pages: 1 -->
<svg width="628pt" height="168pt"
 viewBox="0.00 0.00 628.00 168.00" xmlns="http://www.w3.org/2000/svg" xmlns:xlink="http://www.w3.org/1999/xlink">
<g id="graph0" class="graph" transform="scale(1 1) rotate(0) translate(4 164)">
<title>proof</title>
<g id="clust1" class="cluster">
<title>cluster_1</title>
<polygon fill="transparent" stroke="black" stroke-width="2" points="268,-120 268,-152 362,-152 362,-120 268,-120"/>
</g>
<g id="clust2" class="cluster">
<title>cluster_2</title>
<polygon fill="transparent" stroke="black" stroke-dasharray="1,5" points="8,-8 8,-100 612,-100 612,-8 8,-8"/>
</g>
<!-- d4_funct_1 -->
<g id="node1" class="node">
<title>d4_funct_1</title>
<g id="a_node1"><a xlink:href="d4_funct_1.html" xlink:title="d4_funct_1" target="_vizar">
<polygon fill="#69d2e7" stroke="#7f7542" points="276,-128.5 276,-143.5 354,-143.5 354,-128.5 276,-128.5"/>
<text text-anchor="middle" x="315" y="-132.3" font-family="Times,serif" font-size="14.00">d4_funct_1</text>
</a>
</g>
</g>
<!-- c_0_106 -->
<g id="node2" class="node">
<title>c_0_106</title>
<g id="a_node2"><a xlink:href="c_0_106.html" xlink:title="{function(X₁)|relation(X₁)|⇊|function(X₁)|sk₇(X₁) ∈ proj₁(X₁)}" target="_vizar">
<polygon fill="#f8edd1" stroke="#7f7542" points="478,-16.5 478,-91.5 604,-91.5 604,-16.5 478,-16.5"/>
<text text-anchor="middle" x="541" y="-80.3" font-family="Times,serif" font-size="14.00">function(X₁)</text>
<polyline fill="none" stroke="#7f7542" points="478,-76.5 604,-76.5 "/>
<text text-anchor="middle" x="541" y="-65.3" font-family="Times,serif" font-size="14.00">relation(X₁)</text>
<polyline fill="none" stroke="#7f7542" points="478,-61.5 604,-61.5 "/>
<text text-anchor="middle" x="541" y="-50.3" font-family="Times,serif" font-size="14.00">⇊</text>
<polyline fill="none" stroke="#7f7542" points="478,-46.5 604,-46.5 "/>
<text text-anchor="middle" x="541" y="-35.3" font-family="Times,serif" font-size="14.00">function(X₁)</text>
<polyline fill="none" stroke="#7f7542" points="478,-31.5 604,-31.5 "/>
<text text-anchor="middle" x="541" y="-20.3" font-family="Times,serif" font-size="14.00">sk₇(X₁) ∈ proj₁(X₁)</text>
</a>
</g>
</g>
<!-- d4_funct_1&#45;&gt;c_0_106 -->
<g id="edge1" class="edge">
<title>d4_funct_1&#45;&gt;c_0_106</title>
<path fill="none" stroke="black" d="M354.11,-136C418.79,-136 541,-136 541,-136 541,-136 541,-101.64 541,-101.64"/>
<polygon fill="black" stroke="black" points="544.5,-101.64 541,-91.64 537.5,-101.64 544.5,-101.64"/>
</g>
<!-- c_0_107 -->
<g id="node3" class="node">
<title>c_0_107</title>
<g id="a_node3"><a xlink:href="c_0_107.html" xlink:title="{function(X₁)|relation(X₁)|⇊|function(X₁)|sk₆(X₁) ∈ proj₁(X₁)}" target="_vizar">
<polygon fill="#f8edd1" stroke="#7f7542" points="334,-16.5 334,-91.5 460,-91.5 460,-16.5 334,-16.5"/>
<text text-anchor="middle" x="397" y="-80.3" font-family="Times,serif" font-size="14.00">function(X₁)</text>
<polyline fill="none" stroke="#7f7542" points="334,-76.5 460,-76.5 "/>
<text text-anchor="middle" x="397" y="-65.3" font-family="Times,serif" font-size="14.00">relation(X₁)</text>
<polyline fill="none" stroke="#7f7542" points="334,-61.5 460,-61.5 "/>
<text text-anchor="middle" x="397" y="-50.3" font-family="Times,serif" font-size="14.00">⇊</text>
<polyline fill="none" stroke="#7f7542" points="334,-46.5 460,-46.5 "/>
<text text-anchor="middle" x="397" y="-35.3" font-family="Times,serif" font-size="14.00">function(X₁)</text>
<polyline fill="none" stroke="#7f7542" points="334,-31.5 460,-31.5 "/>
<text text-anchor="middle" x="397" y="-20.3" font-family="Times,serif" font-size="14.00">sk₆(X₁) ∈ proj₁(X₁)</text>
</a>
</g>
</g>
<!-- d4_funct_1&#45;&gt;c_0_107 -->
<g id="edge2" class="edge">
<title>d4_funct_1&#45;&gt;c_0_107</title>
<path fill="none" stroke="black" d="M344,-128.43C344,-128.43 344,-101.67 344,-101.67"/>
<polygon fill="black" stroke="black" points="347.5,-101.67 344,-91.67 340.5,-101.67 347.5,-101.67"/>
</g>
<!-- c_0_105 -->
<g id="node4" class="node">
<title>c_0_105</title>
<g id="a_node4"><a xlink:href="c_0_105.html" xlink:title="{function(X₁)|relation(X₁)|⇊|X₁(sk₆(X₁)) = X₁(sk₇(X₁))|function(X₁)}" target="_vizar">
<polygon fill="#f8edd1" stroke="#7f7542" points="150,-16.5 150,-91.5 316,-91.5 316,-16.5 150,-16.5"/>
<text text-anchor="middle" x="233" y="-80.3" font-family="Times,serif" font-size="14.00">function(X₁)</text>
<polyline fill="none" stroke="#7f7542" points="150,-76.5 316,-76.5 "/>
<text text-anchor="middle" x="233" y="-65.3" font-family="Times,serif" font-size="14.00">relation(X₁)</text>
<polyline fill="none" stroke="#7f7542" points="150,-61.5 316,-61.5 "/>
<text text-anchor="middle" x="233" y="-50.3" font-family="Times,serif" font-size="14.00">⇊</text>
<polyline fill="none" stroke="#7f7542" points="150,-46.5 316,-46.5 "/>
<text text-anchor="middle" x="233" y="-35.3" font-family="Times,serif" font-size="14.00">X₁(sk₆(X₁)) = X₁(sk₇(X₁))</text>
<polyline fill="none" stroke="#7f7542" points="150,-31.5 316,-31.5 "/>
<text text-anchor="middle" x="233" y="-20.3" font-family="Times,serif" font-size="14.00">function(X₁)</text>
</a>
</g>
</g>
<!-- d4_funct_1&#45;&gt;c_0_105 -->
<g id="edge3" class="edge">
<title>d4_funct_1&#45;&gt;c_0_105</title>
<path fill="none" stroke="black" d="M296,-128.43C296,-128.43 296,-101.67 296,-101.67"/>
<polygon fill="black" stroke="black" points="299.5,-101.67 296,-91.67 292.5,-101.67 299.5,-101.67"/>
</g>
<!-- c_0_135 -->
<g id="node5" class="node">
<title>c_0_135</title>
<g id="a_node5"><a xlink:href="c_0_135.html" xlink:title="{function(X₁)|relation(X₁)|sk₆(X₁) = sk₇(X₁)|⇊|function(X₁)}" target="_vizar">
<polygon fill="#f8edd1" stroke="#7f7542" points="16.5,-16.5 16.5,-91.5 131.5,-91.5 131.5,-16.5 16.5,-16.5"/>
<text text-anchor="middle" x="74" y="-80.3" font-family="Times,serif" font-size="14.00">function(X₁)</text>
<polyline fill="none" stroke="#7f7542" points="16.5,-76.5 131.5,-76.5 "/>
<text text-anchor="middle" x="74" y="-65.3" font-family="Times,serif" font-size="14.00">relation(X₁)</text>
<polyline fill="none" stroke="#7f7542" points="16.5,-61.5 131.5,-61.5 "/>
<text text-anchor="middle" x="74" y="-50.3" font-family="Times,serif" font-size="14.00">sk₆(X₁) = sk₇(X₁)</text>
<polyline fill="none" stroke="#7f7542" points="16.5,-46.5 131.5,-46.5 "/>
<text text-anchor="middle" x="74" y="-35.3" font-family="Times,serif" font-size="14.00">⇊</text>
<polyline fill="none" stroke="#7f7542" points="16.5,-31.5 131.5,-31.5 "/>
<text text-anchor="middle" x="74" y="-20.3" font-family="Times,serif" font-size="14.00">function(X₁)</text>
</a>
</g>
</g>
<!-- d4_funct_1&#45;&gt;c_0_135 -->
<g id="edge4" class="edge">
<title>d4_funct_1&#45;&gt;c_0_135</title>
<path fill="none" stroke="black" d="M275.74,-136C207.45,-136 74,-136 74,-136 74,-136 74,-101.64 74,-101.64"/>
<polygon fill="black" stroke="black" points="77.5,-101.64 74,-91.64 70.5,-101.64 77.5,-101.64"/>
</g>
</g>
</svg>
