<?xml version="1.0" encoding="UTF-8" standalone="no"?>
<!DOCTYPE svg PUBLIC "-//W3C//DTD SVG 1.1//EN"
 "http://www.w3.org/Graphics/SVG/1.1/DTD/svg11.dtd">
<!-- Generated by graphviz version 5.0.0 (0)
 -->
<!-- Title: proof Pages: 1 -->
<svg width="136pt" height="183pt"
 viewBox="0.00 0.00 136.00 183.00" xmlns="http://www.w3.org/2000/svg" xmlns:xlink="http://www.w3.org/1999/xlink">
<g id="graph0" class="graph" transform="scale(1 1) rotate(0) translate(4 179)">
<title>proof</title>
<g id="clust1" class="cluster">
<title>cluster_1</title>
<polygon fill="transparent" stroke="black" stroke-width="2" points="12,-135 12,-167 116,-167 116,-135 12,-135"/>
</g>
<g id="clust2" class="cluster">
<title>cluster_2</title>
<polygon fill="transparent" stroke="black" stroke-dasharray="1,5" points="8,-8 8,-115 120,-115 120,-8 8,-8"/>
</g>
<!-- d4_wellord2 -->
<g id="node1" class="node">
<title>d4_wellord2</title>
<g id="a_node1"><a xlink:href="d4_wellord2.html" xlink:title="d4_wellord2" target="_parent">
<polygon fill="#69d2e7" stroke="#7f7542" points="20,-143.5 20,-158.5 108,-158.5 108,-143.5 20,-143.5"/>
<text text-anchor="middle" x="64" y="-147.3" font-family="Times,serif" font-size="14.00">d4_wellord2</text>
</a>
</g>
</g>
<!-- c_0_101 -->
<g id="node2" class="node">
<title>c_0_101</title>
<g id="a_node2"><a xlink:href="c_0_101.html" xlink:title="{function(X₁)|proj₁(X₁) = X₂|proj₂(X₁) = X₃|relation(X₁)|⇊|\|X₂\| = \|X₃\|}" target="_parent">
<polygon fill="#f8edd1" stroke="#7f7542" points="16,-16.5 16,-106.5 112,-106.5 112,-16.5 16,-16.5"/>
<text text-anchor="middle" x="64" y="-95.3" font-family="Times,serif" font-size="14.00">function(X₁)</text>
<polyline fill="none" stroke="#7f7542" points="16,-91.5 112,-91.5 "/>
<text text-anchor="middle" x="64" y="-80.3" font-family="Times,serif" font-size="14.00">proj₁(X₁) = X₂</text>
<polyline fill="none" stroke="#7f7542" points="16,-76.5 112,-76.5 "/>
<text text-anchor="middle" x="64" y="-65.3" font-family="Times,serif" font-size="14.00">proj₂(X₁) = X₃</text>
<polyline fill="none" stroke="#7f7542" points="16,-61.5 112,-61.5 "/>
<text text-anchor="middle" x="64" y="-50.3" font-family="Times,serif" font-size="14.00">relation(X₁)</text>
<polyline fill="none" stroke="#7f7542" points="16,-46.5 112,-46.5 "/>
<text text-anchor="middle" x="64" y="-35.3" font-family="Times,serif" font-size="14.00">⇊</text>
<polyline fill="none" stroke="#7f7542" points="16,-31.5 112,-31.5 "/>
<text text-anchor="middle" x="64" y="-20.3" font-family="Times,serif" font-size="14.00">|X₂| = |X₃|</text>
</a>
</g>
</g>
<!-- d4_wellord2&#45;&gt;c_0_101 -->
<g id="edge1" class="edge">
<title>d4_wellord2&#45;&gt;c_0_101</title>
<path fill="none" stroke="black" d="M64,-143.37C64,-143.37 64,-116.66 64,-116.66"/>
<polygon fill="black" stroke="black" points="67.5,-116.66 64,-106.66 60.5,-116.66 67.5,-116.66"/>
</g>
</g>
</svg>
