<?xml version="1.0" encoding="UTF-8" standalone="no"?>
<!DOCTYPE svg PUBLIC "-//W3C//DTD SVG 1.1//EN"
 "http://www.w3.org/Graphics/SVG/1.1/DTD/svg11.dtd">
<!-- Generated by graphviz version 5.0.0 (0)
 -->
<!-- Title: proof Pages: 1 -->
<svg width="208pt" height="168pt"
 viewBox="0.00 0.00 208.00 168.00" xmlns="http://www.w3.org/2000/svg" xmlns:xlink="http://www.w3.org/1999/xlink">
<g id="graph0" class="graph" transform="scale(1 1) rotate(0) translate(4 164)">
<title>proof</title>
<g id="clust1" class="cluster">
<title>cluster_1</title>
<polygon fill="transparent" stroke="black" stroke-width="2" points="8,-120 8,-152 192,-152 192,-120 8,-120"/>
</g>
<g id="clust2" class="cluster">
<title>cluster_2</title>
<polygon fill="transparent" stroke="black" stroke-dasharray="1,5" points="21,-8 21,-100 179,-100 179,-8 21,-8"/>
</g>
<!-- existence_m2_subset_1 -->
<g id="node1" class="node">
<title>existence_m2_subset_1</title>
<g id="a_node1"><a xlink:href="existence_m2_subset_1.html" xlink:title="existence_m2_subset_1" target="_parent">
<polygon fill="#69d2e7" stroke="#7f7542" points="16.5,-128.5 16.5,-143.5 183.5,-143.5 183.5,-128.5 16.5,-128.5"/>
<text text-anchor="middle" x="100" y="-132.3" font-family="Times,serif" font-size="14.00">existence_m2_subset_1</text>
</a>
</g>
</g>
<!-- c_0_52 -->
<g id="node2" class="node">
<title>c_0_52</title>
<g id="a_node2"><a xlink:href="c_0_52.html" xlink:title="{X₂ ∈ bool(X₁)|⇊|X₁ = Ø|X₂ = Ø|sk₁₂(X₁,X₂) ∈ X₂ ⊆ X₁}" target="_parent">
<polygon fill="#f8edd1" stroke="#7f7542" points="29,-16.5 29,-91.5 171,-91.5 171,-16.5 29,-16.5"/>
<text text-anchor="middle" x="100" y="-80.3" font-family="Times,serif" font-size="14.00">X₂ ∈ bool(X₁)</text>
<polyline fill="none" stroke="#7f7542" points="29,-76.5 171,-76.5 "/>
<text text-anchor="middle" x="100" y="-65.3" font-family="Times,serif" font-size="14.00">⇊</text>
<polyline fill="none" stroke="#7f7542" points="29,-61.5 171,-61.5 "/>
<text text-anchor="middle" x="100" y="-50.3" font-family="Times,serif" font-size="14.00">X₁ = Ø</text>
<polyline fill="none" stroke="#7f7542" points="29,-46.5 171,-46.5 "/>
<text text-anchor="middle" x="100" y="-35.3" font-family="Times,serif" font-size="14.00">X₂ = Ø</text>
<polyline fill="none" stroke="#7f7542" points="29,-31.5 171,-31.5 "/>
<text text-anchor="middle" x="100" y="-20.3" font-family="Times,serif" font-size="14.00">sk₁₂(X₁,X₂) ∈ X₂ ⊆ X₁</text>
</a>
</g>
</g>
<!-- existence_m2_subset_1&#45;&gt;c_0_52 -->
<g id="edge1" class="edge">
<title>existence_m2_subset_1&#45;&gt;c_0_52</title>
<path fill="none" stroke="black" d="M100,-128.43C100,-128.43 100,-101.67 100,-101.67"/>
<polygon fill="black" stroke="black" points="103.5,-101.67 100,-91.67 96.5,-101.67 103.5,-101.67"/>
</g>
</g>
</svg>
