<?xml version="1.0" encoding="UTF-8" standalone="no"?>
<!DOCTYPE svg PUBLIC "-//W3C//DTD SVG 1.1//EN"
 "http://www.w3.org/Graphics/SVG/1.1/DTD/svg11.dtd">
<!-- Generated by graphviz version 5.0.0 (0)
 -->
<!-- Title: proof Pages: 1 -->
<svg width="212pt" height="310pt"
 viewBox="0.00 0.00 212.00 310.00" xmlns="http://www.w3.org/2000/svg" xmlns:xlink="http://www.w3.org/1999/xlink">
<g id="graph0" class="graph" transform="scale(1 1) rotate(0) translate(4 306)">
<title>proof</title>
<g id="clust1" class="cluster">
<title>cluster_0</title>
<polygon fill="transparent" stroke="black" stroke-dasharray="1,5" points="8,-202 8,-294 196,-294 196,-202 8,-202"/>
</g>
<g id="clust2" class="cluster">
<title>cluster_1</title>
<polygon fill="transparent" stroke="black" stroke-width="2" points="50,-90 50,-182 152,-182 152,-90 50,-90"/>
</g>
<g id="clust3" class="cluster">
<title>cluster_2</title>
<polygon fill="transparent" stroke="black" stroke-dasharray="1,5" points="58,-8 58,-70 144,-70 144,-8 58,-8"/>
</g>
<!-- c_0_27 -->
<g id="node1" class="node">
<title>c_0_27</title>
<g id="a_node1"><a xlink:href="c_0_27.html" xlink:title="{X₁ c= X₂|ordinal(X₁)|ordinal(X₂)|⇊|X₁ ⊆ X₂}" target="_vizar">
<polygon fill="#f8edd1" stroke="#7f7542" points="112,-210.5 112,-285.5 188,-285.5 188,-210.5 112,-210.5"/>
<text text-anchor="middle" x="150" y="-274.3" font-family="Times,serif" font-size="14.00">X₁ c= X₂</text>
<polyline fill="none" stroke="#7f7542" points="112,-270.5 188,-270.5 "/>
<text text-anchor="middle" x="150" y="-259.3" font-family="Times,serif" font-size="14.00">ordinal(X₁)</text>
<polyline fill="none" stroke="#7f7542" points="112,-255.5 188,-255.5 "/>
<text text-anchor="middle" x="150" y="-244.3" font-family="Times,serif" font-size="14.00">ordinal(X₂)</text>
<polyline fill="none" stroke="#7f7542" points="112,-240.5 188,-240.5 "/>
<text text-anchor="middle" x="150" y="-229.3" font-family="Times,serif" font-size="14.00">⇊</text>
<polyline fill="none" stroke="#7f7542" points="112,-225.5 188,-225.5 "/>
<text text-anchor="middle" x="150" y="-214.3" font-family="Times,serif" font-size="14.00">X₁ ⊆ X₂</text>
</a>
</g>
</g>
<!-- c_0_65 -->
<g id="node3" class="node">
<title>c_0_65</title>
<g id="a_node3"><a xlink:href="c_0_65.html" xlink:title="{X₁ ⊆ X₂|ordinal(\|X₁\|)|ordinal(\|X₂\|)|⇊|\|X₁\| ⊆ \|X₂\|}" target="_vizar">
<polygon fill="#f8edd1" stroke="#7f7542" points="58.5,-98.5 58.5,-173.5 143.5,-173.5 143.5,-98.5 58.5,-98.5"/>
<text text-anchor="middle" x="101" y="-162.3" font-family="Times,serif" font-size="14.00">X₁ ⊆ X₂</text>
<polyline fill="none" stroke="#7f7542" points="58.5,-158.5 143.5,-158.5 "/>
<text text-anchor="middle" x="101" y="-147.3" font-family="Times,serif" font-size="14.00">ordinal(|X₁|)</text>
<polyline fill="none" stroke="#7f7542" points="58.5,-143.5 143.5,-143.5 "/>
<text text-anchor="middle" x="101" y="-132.3" font-family="Times,serif" font-size="14.00">ordinal(|X₂|)</text>
<polyline fill="none" stroke="#7f7542" points="58.5,-128.5 143.5,-128.5 "/>
<text text-anchor="middle" x="101" y="-117.3" font-family="Times,serif" font-size="14.00">⇊</text>
<polyline fill="none" stroke="#7f7542" points="58.5,-113.5 143.5,-113.5 "/>
<text text-anchor="middle" x="101" y="-102.3" font-family="Times,serif" font-size="14.00">|X₁| ⊆ |X₂|</text>
</a>
</g>
</g>
<!-- c_0_27&#45;&gt;c_0_65 -->
<g id="edge1" class="edge">
<title>c_0_27&#45;&gt;c_0_65</title>
<path fill="none" stroke="black" d="M127.75,-210.39C127.75,-210.39 127.75,-183.7 127.75,-183.7"/>
<polygon fill="black" stroke="black" points="131.25,-183.7 127.75,-173.7 124.25,-183.7 131.25,-183.7"/>
</g>
<!-- c_0_42 -->
<g id="node2" class="node">
<title>c_0_42</title>
<g id="a_node2"><a xlink:href="c_0_42.html" xlink:title="{X₁ ⊆ X₂|⇊|\|X₁\| c= \|X₂\|}" target="_vizar">
<polygon fill="#f8edd1" stroke="#7f7542" points="16.5,-225.5 16.5,-270.5 93.5,-270.5 93.5,-225.5 16.5,-225.5"/>
<text text-anchor="middle" x="55" y="-259.3" font-family="Times,serif" font-size="14.00">X₁ ⊆ X₂</text>
<polyline fill="none" stroke="#7f7542" points="16.5,-255.5 93.5,-255.5 "/>
<text text-anchor="middle" x="55" y="-244.3" font-family="Times,serif" font-size="14.00">⇊</text>
<polyline fill="none" stroke="#7f7542" points="16.5,-240.5 93.5,-240.5 "/>
<text text-anchor="middle" x="55" y="-229.3" font-family="Times,serif" font-size="14.00">|X₁| c= |X₂|</text>
</a>
</g>
</g>
<!-- c_0_42&#45;&gt;c_0_65 -->
<g id="edge2" class="edge">
<title>c_0_42&#45;&gt;c_0_65</title>
<path fill="none" stroke="black" d="M76,-225.34C76,-225.34 76,-183.63 76,-183.63"/>
<polygon fill="black" stroke="black" points="79.5,-183.63 76,-173.63 72.5,-183.63 79.5,-183.63"/>
</g>
<!-- c_0_78 -->
<g id="node4" class="node">
<title>c_0_78</title>
<g id="a_node4"><a xlink:href="c_0_78.html" xlink:title="{X₁ ⊆ X₂|⇊|\|X₁\| ⊆ \|X₂\|}" target="_vizar">
<polygon fill="#f8edd1" stroke="#7f7542" points="66,-16.5 66,-61.5 136,-61.5 136,-16.5 66,-16.5"/>
<text text-anchor="middle" x="101" y="-50.3" font-family="Times,serif" font-size="14.00">X₁ ⊆ X₂</text>
<polyline fill="none" stroke="#7f7542" points="66,-46.5 136,-46.5 "/>
<text text-anchor="middle" x="101" y="-35.3" font-family="Times,serif" font-size="14.00">⇊</text>
<polyline fill="none" stroke="#7f7542" points="66,-31.5 136,-31.5 "/>
<text text-anchor="middle" x="101" y="-20.3" font-family="Times,serif" font-size="14.00">|X₁| ⊆ |X₂|</text>
</a>
</g>
</g>
<!-- c_0_65&#45;&gt;c_0_78 -->
<g id="edge3" class="edge">
<title>c_0_65&#45;&gt;c_0_78</title>
<path fill="none" stroke="black" stroke-dasharray="5,2" d="M101,-98.5C101,-98.5 101,-71.54 101,-71.54"/>
<polygon fill="black" stroke="black" points="104.5,-71.54 101,-61.54 97.5,-71.54 104.5,-71.54"/>
</g>
</g>
</svg>
