<?xml version="1.0" encoding="UTF-8" standalone="no"?>
<!DOCTYPE svg PUBLIC "-//W3C//DTD SVG 1.1//EN"
 "http://www.w3.org/Graphics/SVG/1.1/DTD/svg11.dtd">
<!-- Generated by graphviz version 5.0.0 (0)
 -->
<!-- Title: proof Pages: 1 -->
<svg width="126pt" height="250pt"
 viewBox="0.00 0.00 126.00 250.00" xmlns="http://www.w3.org/2000/svg" xmlns:xlink="http://www.w3.org/1999/xlink">
<g id="graph0" class="graph" transform="scale(1 1) rotate(0) translate(4 246)">
<title>proof</title>
<g id="clust1" class="cluster">
<title>cluster_0</title>
<polygon fill="transparent" stroke="black" stroke-dasharray="1,5" points="11,-202 11,-234 107,-234 107,-202 11,-202"/>
</g>
<g id="clust2" class="cluster">
<title>cluster_1</title>
<polygon fill="transparent" stroke="black" stroke-width="2" points="12,-120 12,-182 106,-182 106,-120 12,-120"/>
</g>
<g id="clust3" class="cluster">
<title>cluster_2</title>
<polygon fill="transparent" stroke="black" stroke-dasharray="1,5" points="8,-8 8,-100 110,-100 110,-8 8,-8"/>
</g>
<!-- t11_card_1 -->
<g id="node1" class="node">
<title>t11_card_1</title>
<g id="a_node1"><a xlink:href="t11_card_1.html" xlink:title="t11_card_1" target="_vizar">
<polygon fill="#69d2e7" stroke="#7f7542" points="19.5,-210.5 19.5,-225.5 98.5,-225.5 98.5,-210.5 19.5,-210.5"/>
<text text-anchor="middle" x="59" y="-214.3" font-family="Times,serif" font-size="14.00">t11_card_1</text>
</a>
</g>
</g>
<!-- c_0_42 -->
<g id="node2" class="node">
<title>c_0_42</title>
<g id="a_node2"><a xlink:href="c_0_42.html" xlink:title="{X₁ ⊆ X₂|⇊|\|X₁\| c= \|X₂\|}" target="_vizar">
<polygon fill="#f8edd1" stroke="#7f7542" points="20.5,-128.5 20.5,-173.5 97.5,-173.5 97.5,-128.5 20.5,-128.5"/>
<text text-anchor="middle" x="59" y="-162.3" font-family="Times,serif" font-size="14.00">X₁ ⊆ X₂</text>
<polyline fill="none" stroke="#7f7542" points="20.5,-158.5 97.5,-158.5 "/>
<text text-anchor="middle" x="59" y="-147.3" font-family="Times,serif" font-size="14.00">⇊</text>
<polyline fill="none" stroke="#7f7542" points="20.5,-143.5 97.5,-143.5 "/>
<text text-anchor="middle" x="59" y="-132.3" font-family="Times,serif" font-size="14.00">|X₁| c= |X₂|</text>
</a>
</g>
</g>
<!-- t11_card_1&#45;&gt;c_0_42 -->
<g id="edge1" class="edge">
<title>t11_card_1&#45;&gt;c_0_42</title>
<path fill="none" stroke="black" d="M59,-210.31C59,-210.31 59,-183.76 59,-183.76"/>
<polygon fill="black" stroke="black" points="62.5,-183.76 59,-173.76 55.5,-183.76 62.5,-183.76"/>
</g>
<!-- c_0_65 -->
<g id="node3" class="node">
<title>c_0_65</title>
<g id="a_node3"><a xlink:href="c_0_65.html" xlink:title="{X₁ ⊆ X₂|ordinal(\|X₁\|)|ordinal(\|X₂\|)|⇊|\|X₁\| ⊆ \|X₂\|}" target="_vizar">
<polygon fill="#f8edd1" stroke="#7f7542" points="16.5,-16.5 16.5,-91.5 101.5,-91.5 101.5,-16.5 16.5,-16.5"/>
<text text-anchor="middle" x="59" y="-80.3" font-family="Times,serif" font-size="14.00">X₁ ⊆ X₂</text>
<polyline fill="none" stroke="#7f7542" points="16.5,-76.5 101.5,-76.5 "/>
<text text-anchor="middle" x="59" y="-65.3" font-family="Times,serif" font-size="14.00">ordinal(|X₁|)</text>
<polyline fill="none" stroke="#7f7542" points="16.5,-61.5 101.5,-61.5 "/>
<text text-anchor="middle" x="59" y="-50.3" font-family="Times,serif" font-size="14.00">ordinal(|X₂|)</text>
<polyline fill="none" stroke="#7f7542" points="16.5,-46.5 101.5,-46.5 "/>
<text text-anchor="middle" x="59" y="-35.3" font-family="Times,serif" font-size="14.00">⇊</text>
<polyline fill="none" stroke="#7f7542" points="16.5,-31.5 101.5,-31.5 "/>
<text text-anchor="middle" x="59" y="-20.3" font-family="Times,serif" font-size="14.00">|X₁| ⊆ |X₂|</text>
</a>
</g>
</g>
<!-- c_0_42&#45;&gt;c_0_65 -->
<g id="edge2" class="edge">
<title>c_0_42&#45;&gt;c_0_65</title>
<path fill="none" stroke="black" stroke-dasharray="5,2" d="M59,-128.01C59,-128.01 59,-101.61 59,-101.61"/>
<polygon fill="black" stroke="black" points="62.5,-101.61 59,-91.61 55.5,-101.61 62.5,-101.61"/>
</g>
</g>
</svg>
