<?xml version="1.0" encoding="UTF-8" standalone="no"?>
<!DOCTYPE svg PUBLIC "-//W3C//DTD SVG 1.1//EN"
 "http://www.w3.org/Graphics/SVG/1.1/DTD/svg11.dtd">
<!-- Generated by graphviz version 5.0.0 (0)
 -->
<!-- Title: proof Pages: 1 -->
<svg width="706pt" height="190pt"
 viewBox="0.00 0.00 706.00 190.00" xmlns="http://www.w3.org/2000/svg" xmlns:xlink="http://www.w3.org/1999/xlink">
<g id="graph0" class="graph" transform="scale(1 1) rotate(0) translate(4 186)">
<title>proof</title>
<g id="clust1" class="cluster">
<title>cluster_0</title>
<polygon fill="transparent" stroke="black" stroke-dasharray="1,5" points="74,-142 74,-174 378,-174 378,-142 74,-142"/>
</g>
<g id="clust2" class="cluster">
<title>cluster_1</title>
<polygon fill="transparent" stroke="black" stroke-width="2" points="135,-90 135,-122 321,-122 321,-90 135,-90"/>
</g>
<g id="clust3" class="cluster">
<title>cluster_2</title>
<polygon fill="transparent" stroke="black" stroke-dasharray="1,5" points="8,-8 8,-70 690,-70 690,-8 8,-8"/>
</g>
<!-- c_0_46 -->
<g id="node1" class="node">
<title>c_0_46</title>
<g id="a_node1"><a xlink:href="c_0_46.html" xlink:title="{X₁ ∩ X₂ = X₂ ∩ X₁}" target="_parent">
<polygon fill="#f8edd1" stroke="#7f7542" points="246,-150.5 246,-165.5 370,-165.5 370,-150.5 246,-150.5"/>
<text text-anchor="middle" x="308" y="-154.3" font-family="Times,serif" font-size="14.00">X₁ ∩ X₂ = X₂ ∩ X₁</text>
</a>
</g>
</g>
<!-- c_0_57 -->
<g id="node3" class="node">
<title>c_0_57</title>
<g id="a_node3"><a xlink:href="c_0_57.html" xlink:title="{X₁ \ (X₁ \ X₂) = X₂ \ (X₂ \ X₁)}" target="_parent">
<polygon fill="#f8edd1" stroke="#7f7542" points="143.5,-98.5 143.5,-113.5 312.5,-113.5 312.5,-98.5 143.5,-98.5"/>
<text text-anchor="middle" x="228" y="-102.3" font-family="Times,serif" font-size="14.00">X₁ &#160;(X₁ &#160;X₂) = X₂ &#160;(X₂ &#160;X₁)</text>
</a>
</g>
</g>
<!-- c_0_46&#45;&gt;c_0_57 -->
<g id="edge1" class="edge">
<title>c_0_46&#45;&gt;c_0_57</title>
<path fill="none" stroke="black" d="M279.25,-150.33C279.25,-150.33 279.25,-123.7 279.25,-123.7"/>
<polygon fill="black" stroke="black" points="282.75,-123.7 279.25,-113.7 275.75,-123.7 282.75,-123.7"/>
</g>
<!-- c_0_45 -->
<g id="node2" class="node">
<title>c_0_45</title>
<g id="a_node2"><a xlink:href="c_0_45.html" xlink:title="{X₁ \ (X₁ \ X₂) = X₁ ∩ X₂}" target="_parent">
<polygon fill="#f8edd1" stroke="#7f7542" points="82,-150.5 82,-165.5 228,-165.5 228,-150.5 82,-150.5"/>
<text text-anchor="middle" x="155" y="-154.3" font-family="Times,serif" font-size="14.00">X₁ &#160;(X₁ &#160;X₂) = X₁ ∩ X₂</text>
</a>
</g>
</g>
<!-- c_0_45&#45;&gt;c_0_57 -->
<g id="edge2" class="edge">
<title>c_0_45&#45;&gt;c_0_57</title>
<path fill="none" stroke="black" d="M185.75,-150.33C185.75,-150.33 185.75,-123.7 185.75,-123.7"/>
<polygon fill="black" stroke="black" points="189.25,-123.7 185.75,-113.7 182.25,-123.7 189.25,-123.7"/>
</g>
<!-- c_0_116 -->
<g id="node4" class="node">
<title>c_0_116</title>
<g id="a_node4"><a xlink:href="c_0_116.html" xlink:title="{sk₂ \ (sk₂ \ a_1_2_card_fil(sk₁)) = a_1_2_card_fil(sk₁)}" target="_parent">
<polygon fill="#fa6900" stroke="#7f7542" points="330,-31.5 330,-46.5 682,-46.5 682,-31.5 330,-31.5"/>
<text text-anchor="middle" x="506" y="-35.3" font-family="Times,serif" font-size="14.00">sk₂ &#160;(sk₂ &#160;a_1_2_card_fil(sk₁)) = a_1_2_card_fil(sk₁)</text>
</a>
</g>
</g>
<!-- c_0_57&#45;&gt;c_0_116 -->
<g id="edge3" class="edge">
<title>c_0_57&#45;&gt;c_0_116</title>
<path fill="none" stroke="black" stroke-dasharray="5,2" d="M312.73,-106C333.55,-106 350,-106 350,-106 350,-106 350,-56.69 350,-56.69"/>
<polygon fill="black" stroke="black" points="353.5,-56.69 350,-46.69 346.5,-56.69 353.5,-56.69"/>
</g>
<!-- c_0_127 -->
<g id="node5" class="node">
<title>c_0_127</title>
<g id="a_node5"><a xlink:href="c_0_127.html" xlink:title="{X₁ ∈ bool(X₃)|⇊|X₁ \ (X₁ \ X₂) = X₃ /\ X₂ /\ X₁}" target="_parent">
<polygon fill="#f8edd1" stroke="#7f7542" points="144.5,-16.5 144.5,-61.5 311.5,-61.5 311.5,-16.5 144.5,-16.5"/>
<text text-anchor="middle" x="228" y="-50.3" font-family="Times,serif" font-size="14.00">X₁ ∈ bool(X₃)</text>
<polyline fill="none" stroke="#7f7542" points="144.5,-46.5 311.5,-46.5 "/>
<text text-anchor="middle" x="228" y="-35.3" font-family="Times,serif" font-size="14.00">⇊</text>
<polyline fill="none" stroke="#7f7542" points="144.5,-31.5 311.5,-31.5 "/>
<text text-anchor="middle" x="228" y="-20.3" font-family="Times,serif" font-size="14.00">X₁ &#160;(X₁ &#160;X₂) = X₃ / X₂ / X₁</text>
</a>
</g>
</g>
<!-- c_0_57&#45;&gt;c_0_127 -->
<g id="edge4" class="edge">
<title>c_0_57&#45;&gt;c_0_127</title>
<path fill="none" stroke="black" stroke-dasharray="5,2" d="M228,-98.31C228,-98.31 228,-71.76 228,-71.76"/>
<polygon fill="black" stroke="black" points="231.5,-71.76 228,-61.76 224.5,-71.76 231.5,-71.76"/>
</g>
<!-- c_0_80 -->
<g id="node6" class="node">
<title>c_0_80</title>
<g id="a_node6"><a xlink:href="c_0_80.html" xlink:title="{X₁ ⊆ X₂|⇊|X₂ \ (X₂ \ X₁) = X₁}" target="_parent">
<polygon fill="#f8edd1" stroke="#7f7542" points="16,-16.5 16,-61.5 126,-61.5 126,-16.5 16,-16.5"/>
<text text-anchor="middle" x="71" y="-50.3" font-family="Times,serif" font-size="14.00">X₁ ⊆ X₂</text>
<polyline fill="none" stroke="#7f7542" points="16,-46.5 126,-46.5 "/>
<text text-anchor="middle" x="71" y="-35.3" font-family="Times,serif" font-size="14.00">⇊</text>
<polyline fill="none" stroke="#7f7542" points="16,-31.5 126,-31.5 "/>
<text text-anchor="middle" x="71" y="-20.3" font-family="Times,serif" font-size="14.00">X₂ &#160;(X₂ &#160;X₁) = X₁</text>
</a>
</g>
</g>
<!-- c_0_57&#45;&gt;c_0_80 -->
<g id="edge5" class="edge">
<title>c_0_57&#45;&gt;c_0_80</title>
<path fill="none" stroke="black" stroke-dasharray="5,2" d="M143.23,-106C121.44,-106 104,-106 104,-106 104,-106 104,-71.68 104,-71.68"/>
<polygon fill="black" stroke="black" points="107.5,-71.68 104,-61.68 100.5,-71.68 107.5,-71.68"/>
</g>
</g>
</svg>
