<?xml version="1.0" encoding="UTF-8" standalone="no"?>
<!DOCTYPE svg PUBLIC "-//W3C//DTD SVG 1.1//EN"
 "http://www.w3.org/Graphics/SVG/1.1/DTD/svg11.dtd">
<!-- Generated by graphviz version 5.0.0 (0)
 -->
<!-- Title: proof Pages: 1 -->
<svg width="222pt" height="265pt"
 viewBox="0.00 0.00 222.00 265.00" xmlns="http://www.w3.org/2000/svg" xmlns:xlink="http://www.w3.org/1999/xlink">
<g id="graph0" class="graph" transform="scale(1 1) rotate(0) translate(4 261)">
<title>proof</title>
<g id="clust1" class="cluster">
<title>cluster_0</title>
<polygon fill="transparent" stroke="black" stroke-dasharray="1,5" points="8,-187 8,-249 206,-249 206,-187 8,-187"/>
</g>
<g id="clust2" class="cluster">
<title>cluster_1</title>
<polygon fill="transparent" stroke="black" stroke-width="2" points="51,-105 51,-167 159,-167 159,-105 51,-105"/>
</g>
<g id="clust3" class="cluster">
<title>cluster_2</title>
<polygon fill="transparent" stroke="black" stroke-dasharray="1,5" points="42,-8 42,-85 168,-85 168,-8 42,-8"/>
</g>
<!-- c_0_101 -->
<g id="node1" class="node">
<title>c_0_101</title>
<g id="a_node1"><a xlink:href="c_0_101.html" xlink:title="{X₁ ⊆ X₂|⇊|X₁ \ X₂ = Ø}" target="_vizar">
<polygon fill="#f8edd1" stroke="#7f7542" points="126,-195.5 126,-240.5 198,-240.5 198,-195.5 126,-195.5"/>
<text text-anchor="middle" x="162" y="-229.3" font-family="Times,serif" font-size="14.00">X₁ ⊆ X₂</text>
<polyline fill="none" stroke="#7f7542" points="126,-225.5 198,-225.5 "/>
<text text-anchor="middle" x="162" y="-214.3" font-family="Times,serif" font-size="14.00">⇊</text>
<polyline fill="none" stroke="#7f7542" points="126,-210.5 198,-210.5 "/>
<text text-anchor="middle" x="162" y="-199.3" font-family="Times,serif" font-size="14.00">X₁ &#160;X₂ = Ø</text>
</a>
</g>
</g>
<!-- c_0_128 -->
<g id="node3" class="node">
<title>c_0_128</title>
<g id="a_node3"><a xlink:href="c_0_128.html" xlink:title="{X₁ ∈ bool(X₂)|⇊|X₁ \ X₂ = Ø}" target="_vizar">
<polygon fill="#f8edd1" stroke="#7f7542" points="59.5,-113.5 59.5,-158.5 150.5,-158.5 150.5,-113.5 59.5,-113.5"/>
<text text-anchor="middle" x="105" y="-147.3" font-family="Times,serif" font-size="14.00">X₁ ∈ bool(X₂)</text>
<polyline fill="none" stroke="#7f7542" points="59.5,-143.5 150.5,-143.5 "/>
<text text-anchor="middle" x="105" y="-132.3" font-family="Times,serif" font-size="14.00">⇊</text>
<polyline fill="none" stroke="#7f7542" points="59.5,-128.5 150.5,-128.5 "/>
<text text-anchor="middle" x="105" y="-117.3" font-family="Times,serif" font-size="14.00">X₁ &#160;X₂ = Ø</text>
</a>
</g>
</g>
<!-- c_0_101&#45;&gt;c_0_128 -->
<g id="edge1" class="edge">
<title>c_0_101&#45;&gt;c_0_128</title>
<path fill="none" stroke="black" d="M138.25,-195.16C138.25,-195.16 138.25,-168.72 138.25,-168.72"/>
<polygon fill="black" stroke="black" points="141.75,-168.72 138.25,-158.72 134.75,-168.72 141.75,-168.72"/>
</g>
<!-- c_0_82 -->
<g id="node2" class="node">
<title>c_0_82</title>
<g id="a_node2"><a xlink:href="c_0_82.html" xlink:title="{X₁ ∈ bool(X₂)|⇊|X₁ ⊆ X₂}" target="_vizar">
<polygon fill="#f8edd1" stroke="#7f7542" points="16.5,-195.5 16.5,-240.5 107.5,-240.5 107.5,-195.5 16.5,-195.5"/>
<text text-anchor="middle" x="62" y="-229.3" font-family="Times,serif" font-size="14.00">X₁ ∈ bool(X₂)</text>
<polyline fill="none" stroke="#7f7542" points="16.5,-225.5 107.5,-225.5 "/>
<text text-anchor="middle" x="62" y="-214.3" font-family="Times,serif" font-size="14.00">⇊</text>
<polyline fill="none" stroke="#7f7542" points="16.5,-210.5 107.5,-210.5 "/>
<text text-anchor="middle" x="62" y="-199.3" font-family="Times,serif" font-size="14.00">X₁ ⊆ X₂</text>
</a>
</g>
</g>
<!-- c_0_82&#45;&gt;c_0_128 -->
<g id="edge2" class="edge">
<title>c_0_82&#45;&gt;c_0_128</title>
<path fill="none" stroke="black" d="M83.5,-195.16C83.5,-195.16 83.5,-168.72 83.5,-168.72"/>
<polygon fill="black" stroke="black" points="87,-168.72 83.5,-158.72 80,-168.72 87,-168.72"/>
</g>
<!-- c_0_135 -->
<g id="node4" class="node">
<title>c_0_135</title>
<g id="a_node4"><a xlink:href="c_0_135.html" xlink:title="{X₁ ∈ bool(X₂)|X₁ ∈ bool(X₃)|⇊|X₃ /\ X₂ /\ X₁ = X₁}" target="_vizar">
<polygon fill="#f8edd1" stroke="#7f7542" points="50.5,-16.5 50.5,-76.5 159.5,-76.5 159.5,-16.5 50.5,-16.5"/>
<text text-anchor="middle" x="105" y="-65.3" font-family="Times,serif" font-size="14.00">X₁ ∈ bool(X₂)</text>
<polyline fill="none" stroke="#7f7542" points="50.5,-61.5 159.5,-61.5 "/>
<text text-anchor="middle" x="105" y="-50.3" font-family="Times,serif" font-size="14.00">X₁ ∈ bool(X₃)</text>
<polyline fill="none" stroke="#7f7542" points="50.5,-46.5 159.5,-46.5 "/>
<text text-anchor="middle" x="105" y="-35.3" font-family="Times,serif" font-size="14.00">⇊</text>
<polyline fill="none" stroke="#7f7542" points="50.5,-31.5 159.5,-31.5 "/>
<text text-anchor="middle" x="105" y="-20.3" font-family="Times,serif" font-size="14.00">X₃ / X₂ / X₁ = X₁</text>
</a>
</g>
</g>
<!-- c_0_128&#45;&gt;c_0_135 -->
<g id="edge3" class="edge">
<title>c_0_128&#45;&gt;c_0_135</title>
<path fill="none" stroke="black" stroke-dasharray="5,2" d="M105,-113.42C105,-113.42 105,-86.52 105,-86.52"/>
<polygon fill="black" stroke="black" points="108.5,-86.52 105,-76.52 101.5,-86.52 108.5,-86.52"/>
</g>
</g>
</svg>
