<?xml version="1.0" encoding="UTF-8" standalone="no"?>
<!DOCTYPE svg PUBLIC "-//W3C//DTD SVG 1.1//EN"
 "http://www.w3.org/Graphics/SVG/1.1/DTD/svg11.dtd">
<!-- Generated by graphviz version 5.0.0 (0)
 -->
<!-- Title: proof Pages: 1 -->
<svg width="229pt" height="295pt"
 viewBox="0.00 0.00 229.00 295.00" xmlns="http://www.w3.org/2000/svg" xmlns:xlink="http://www.w3.org/1999/xlink">
<g id="graph0" class="graph" transform="scale(1 1) rotate(0) translate(4 291)">
<title>proof</title>
<g id="clust1" class="cluster">
<title>cluster_0</title>
<polygon fill="transparent" stroke="black" stroke-dasharray="1,5" points="8,-187 8,-279 213,-279 213,-187 8,-187"/>
</g>
<g id="clust2" class="cluster">
<title>cluster_1</title>
<polygon fill="transparent" stroke="black" stroke-width="2" points="67,-105 67,-167 153,-167 153,-105 67,-105"/>
</g>
<g id="clust3" class="cluster">
<title>cluster_2</title>
<polygon fill="transparent" stroke="black" stroke-dasharray="1,5" points="67,-8 67,-85 153,-85 153,-8 67,-8"/>
</g>
<!-- c_0_66 -->
<g id="node1" class="node">
<title>c_0_66</title>
<g id="a_node1"><a xlink:href="c_0_66.html" xlink:title="{ordinal(\|X₁\|)}" target="_vizar">
<polygon fill="#f8edd1" stroke="#7f7542" points="119.5,-225.5 119.5,-240.5 204.5,-240.5 204.5,-225.5 119.5,-225.5"/>
<text text-anchor="middle" x="162" y="-229.3" font-family="Times,serif" font-size="14.00">ordinal(|X₁|)</text>
</a>
</g>
</g>
<!-- c_0_78 -->
<g id="node3" class="node">
<title>c_0_78</title>
<g id="a_node3"><a xlink:href="c_0_78.html" xlink:title="{X₁ ⊆ X₂|⇊|\|X₁\| ⊆ \|X₂\|}" target="_vizar">
<polygon fill="#f8edd1" stroke="#7f7542" points="75,-113.5 75,-158.5 145,-158.5 145,-113.5 75,-113.5"/>
<text text-anchor="middle" x="110" y="-147.3" font-family="Times,serif" font-size="14.00">X₁ ⊆ X₂</text>
<polyline fill="none" stroke="#7f7542" points="75,-143.5 145,-143.5 "/>
<text text-anchor="middle" x="110" y="-132.3" font-family="Times,serif" font-size="14.00">⇊</text>
<polyline fill="none" stroke="#7f7542" points="75,-128.5 145,-128.5 "/>
<text text-anchor="middle" x="110" y="-117.3" font-family="Times,serif" font-size="14.00">|X₁| ⊆ |X₂|</text>
</a>
</g>
</g>
<!-- c_0_66&#45;&gt;c_0_78 -->
<g id="edge1" class="edge">
<title>c_0_66&#45;&gt;c_0_78</title>
<path fill="none" stroke="black" d="M132.25,-225.39C132.25,-225.39 132.25,-168.66 132.25,-168.66"/>
<polygon fill="black" stroke="black" points="135.75,-168.66 132.25,-158.66 128.75,-168.66 135.75,-168.66"/>
</g>
<!-- c_0_65 -->
<g id="node2" class="node">
<title>c_0_65</title>
<g id="a_node2"><a xlink:href="c_0_65.html" xlink:title="{X₁ ⊆ X₂|ordinal(\|X₁\|)|ordinal(\|X₂\|)|⇊|\|X₁\| ⊆ \|X₂\|}" target="_vizar">
<polygon fill="#f8edd1" stroke="#7f7542" points="16.5,-195.5 16.5,-270.5 101.5,-270.5 101.5,-195.5 16.5,-195.5"/>
<text text-anchor="middle" x="59" y="-259.3" font-family="Times,serif" font-size="14.00">X₁ ⊆ X₂</text>
<polyline fill="none" stroke="#7f7542" points="16.5,-255.5 101.5,-255.5 "/>
<text text-anchor="middle" x="59" y="-244.3" font-family="Times,serif" font-size="14.00">ordinal(|X₁|)</text>
<polyline fill="none" stroke="#7f7542" points="16.5,-240.5 101.5,-240.5 "/>
<text text-anchor="middle" x="59" y="-229.3" font-family="Times,serif" font-size="14.00">ordinal(|X₂|)</text>
<polyline fill="none" stroke="#7f7542" points="16.5,-225.5 101.5,-225.5 "/>
<text text-anchor="middle" x="59" y="-214.3" font-family="Times,serif" font-size="14.00">⇊</text>
<polyline fill="none" stroke="#7f7542" points="16.5,-210.5 101.5,-210.5 "/>
<text text-anchor="middle" x="59" y="-199.3" font-family="Times,serif" font-size="14.00">|X₁| ⊆ |X₂|</text>
</a>
</g>
</g>
<!-- c_0_65&#45;&gt;c_0_78 -->
<g id="edge2" class="edge">
<title>c_0_65&#45;&gt;c_0_78</title>
<path fill="none" stroke="black" d="M88.25,-195.5C88.25,-195.5 88.25,-168.54 88.25,-168.54"/>
<polygon fill="black" stroke="black" points="91.75,-168.54 88.25,-158.54 84.75,-168.54 91.75,-168.54"/>
</g>
<!-- c_0_88 -->
<g id="node4" class="node">
<title>c_0_88</title>
<g id="a_node4"><a xlink:href="c_0_88.html" xlink:title="{X₁ ⊆ X₂|⇊|\|X₁\| = \|X₂\||\|X₁\| ∈ \|X₂\|}" target="_vizar">
<polygon fill="#f8edd1" stroke="#7f7542" points="75,-16.5 75,-76.5 145,-76.5 145,-16.5 75,-16.5"/>
<text text-anchor="middle" x="110" y="-65.3" font-family="Times,serif" font-size="14.00">X₁ ⊆ X₂</text>
<polyline fill="none" stroke="#7f7542" points="75,-61.5 145,-61.5 "/>
<text text-anchor="middle" x="110" y="-50.3" font-family="Times,serif" font-size="14.00">⇊</text>
<polyline fill="none" stroke="#7f7542" points="75,-46.5 145,-46.5 "/>
<text text-anchor="middle" x="110" y="-35.3" font-family="Times,serif" font-size="14.00">|X₁| = |X₂|</text>
<polyline fill="none" stroke="#7f7542" points="75,-31.5 145,-31.5 "/>
<text text-anchor="middle" x="110" y="-20.3" font-family="Times,serif" font-size="14.00">|X₁| ∈ |X₂|</text>
</a>
</g>
</g>
<!-- c_0_78&#45;&gt;c_0_88 -->
<g id="edge3" class="edge">
<title>c_0_78&#45;&gt;c_0_88</title>
<path fill="none" stroke="black" stroke-dasharray="5,2" d="M110,-113.42C110,-113.42 110,-86.52 110,-86.52"/>
<polygon fill="black" stroke="black" points="113.5,-86.52 110,-76.52 106.5,-86.52 113.5,-86.52"/>
</g>
</g>
</svg>
