<?xml version="1.0" encoding="UTF-8" standalone="no"?>
<!DOCTYPE svg PUBLIC "-//W3C//DTD SVG 1.1//EN"
 "http://www.w3.org/Graphics/SVG/1.1/DTD/svg11.dtd">
<!-- Generated by graphviz version 5.0.0 (0)
 -->
<!-- Title: proof Pages: 1 -->
<svg width="345pt" height="280pt"
 viewBox="0.00 0.00 345.00 280.00" xmlns="http://www.w3.org/2000/svg" xmlns:xlink="http://www.w3.org/1999/xlink">
<g id="graph0" class="graph" transform="scale(1 1) rotate(0) translate(4 276)">
<title>proof</title>
<g id="clust1" class="cluster">
<title>cluster_0</title>
<polygon fill="transparent" stroke="black" stroke-dasharray="1,5" points="12,-202 12,-264 329,-264 329,-202 12,-202"/>
</g>
<g id="clust2" class="cluster">
<title>cluster_1</title>
<polygon fill="transparent" stroke="black" stroke-width="2" points="26,-120 26,-182 190,-182 190,-120 26,-120"/>
</g>
<g id="clust3" class="cluster">
<title>cluster_2</title>
<polygon fill="transparent" stroke="black" stroke-dasharray="1,5" points="8,-8 8,-100 208,-100 208,-8 8,-8"/>
</g>
<!-- c_0_73 -->
<g id="node1" class="node">
<title>c_0_73</title>
<g id="a_node1"><a xlink:href="c_0_73.html" xlink:title="{X₁ \ X₂ ∈ bool(X₁)}" target="_vizar">
<polygon fill="#f8edd1" stroke="#7f7542" points="205.5,-225.5 205.5,-240.5 320.5,-240.5 320.5,-225.5 205.5,-225.5"/>
<text text-anchor="middle" x="263" y="-229.3" font-family="Times,serif" font-size="14.00">X₁ &#160;X₂ ∈ bool(X₁)</text>
</a>
</g>
</g>
<!-- c_0_109 -->
<g id="node3" class="node">
<title>c_0_109</title>
<g id="a_node3"><a xlink:href="c_0_109.html" xlink:title="{X₂ ∈ bool(X₃)|⇊|X₃ /\ X₁ /\ X₂ ∈ bool(X₁)}" target="_vizar">
<polygon fill="#f8edd1" stroke="#7f7542" points="34,-128.5 34,-173.5 182,-173.5 182,-128.5 34,-128.5"/>
<text text-anchor="middle" x="108" y="-162.3" font-family="Times,serif" font-size="14.00">X₂ ∈ bool(X₃)</text>
<polyline fill="none" stroke="#7f7542" points="34,-158.5 182,-158.5 "/>
<text text-anchor="middle" x="108" y="-147.3" font-family="Times,serif" font-size="14.00">⇊</text>
<polyline fill="none" stroke="#7f7542" points="34,-143.5 182,-143.5 "/>
<text text-anchor="middle" x="108" y="-132.3" font-family="Times,serif" font-size="14.00">X₃ / X₁ / X₂ ∈ bool(X₁)</text>
</a>
</g>
</g>
<!-- c_0_73&#45;&gt;c_0_109 -->
<g id="edge1" class="edge">
<title>c_0_73&#45;&gt;c_0_109</title>
<path fill="none" stroke="black" d="M263,-225.43C263,-205.13 263,-151 263,-151 263,-151 192.32,-151 192.32,-151"/>
<polygon fill="black" stroke="black" points="192.32,-147.5 182.32,-151 192.32,-154.5 192.32,-147.5"/>
</g>
<!-- c_0_89 -->
<g id="node2" class="node">
<title>c_0_89</title>
<g id="a_node2"><a xlink:href="c_0_89.html" xlink:title="{X₁ ∈ bool(X₂)|⇊|X₂ /\ X₃ /\ X₁ = X₃ \ (X₃ \ X₁)}" target="_vizar">
<polygon fill="#f8edd1" stroke="#7f7542" points="20.5,-210.5 20.5,-255.5 187.5,-255.5 187.5,-210.5 20.5,-210.5"/>
<text text-anchor="middle" x="104" y="-244.3" font-family="Times,serif" font-size="14.00">X₁ ∈ bool(X₂)</text>
<polyline fill="none" stroke="#7f7542" points="20.5,-240.5 187.5,-240.5 "/>
<text text-anchor="middle" x="104" y="-229.3" font-family="Times,serif" font-size="14.00">⇊</text>
<polyline fill="none" stroke="#7f7542" points="20.5,-225.5 187.5,-225.5 "/>
<text text-anchor="middle" x="104" y="-214.3" font-family="Times,serif" font-size="14.00">X₂ / X₃ / X₁ = X₃ &#160;(X₃ &#160;X₁)</text>
</a>
</g>
</g>
<!-- c_0_89&#45;&gt;c_0_109 -->
<g id="edge2" class="edge">
<title>c_0_89&#45;&gt;c_0_109</title>
<path fill="none" stroke="black" d="M108,-210.16C108,-210.16 108,-183.72 108,-183.72"/>
<polygon fill="black" stroke="black" points="111.5,-183.72 108,-173.72 104.5,-183.72 111.5,-183.72"/>
</g>
<!-- c_0_117 -->
<g id="node4" class="node">
<title>c_0_117</title>
<g id="a_node4"><a xlink:href="c_0_117.html" xlink:title="{X₃ ∈ bool(X₁)|⇊|X₂ \ X₃ ∈ a_1_2_card_fil(X₂)|\|(X₁ /\ X₂ /\ X₃)\| = \|X₂\||finite(X₂)}" target="_vizar">
<polygon fill="#f8edd1" stroke="#7f7542" points="16.5,-16.5 16.5,-91.5 199.5,-91.5 199.5,-16.5 16.5,-16.5"/>
<text text-anchor="middle" x="108" y="-80.3" font-family="Times,serif" font-size="14.00">X₃ ∈ bool(X₁)</text>
<polyline fill="none" stroke="#7f7542" points="16.5,-76.5 199.5,-76.5 "/>
<text text-anchor="middle" x="108" y="-65.3" font-family="Times,serif" font-size="14.00">⇊</text>
<polyline fill="none" stroke="#7f7542" points="16.5,-61.5 199.5,-61.5 "/>
<text text-anchor="middle" x="108" y="-50.3" font-family="Times,serif" font-size="14.00">X₂ &#160;X₃ ∈ a_1_2_card_fil(X₂)</text>
<polyline fill="none" stroke="#7f7542" points="16.5,-46.5 199.5,-46.5 "/>
<text text-anchor="middle" x="108" y="-35.3" font-family="Times,serif" font-size="14.00">|(X₁ / X₂ / X₃)| = |X₂|</text>
<polyline fill="none" stroke="#7f7542" points="16.5,-31.5 199.5,-31.5 "/>
<text text-anchor="middle" x="108" y="-20.3" font-family="Times,serif" font-size="14.00">finite(X₂)</text>
</a>
</g>
</g>
<!-- c_0_109&#45;&gt;c_0_117 -->
<g id="edge3" class="edge">
<title>c_0_109&#45;&gt;c_0_117</title>
<path fill="none" stroke="black" stroke-dasharray="5,2" d="M108,-128.01C108,-128.01 108,-101.61 108,-101.61"/>
<polygon fill="black" stroke="black" points="111.5,-101.61 108,-91.61 104.5,-101.61 111.5,-101.61"/>
</g>
</g>
</svg>
