<?xml version="1.0" encoding="UTF-8" standalone="no"?>
<!DOCTYPE svg PUBLIC "-//W3C//DTD SVG 1.1//EN"
 "http://www.w3.org/Graphics/SVG/1.1/DTD/svg11.dtd">
<!-- Generated by graphviz version 5.0.0 (0)
 -->
<!-- Title: proof Pages: 1 -->
<svg width="294pt" height="265pt"
 viewBox="0.00 0.00 294.00 265.00" xmlns="http://www.w3.org/2000/svg" xmlns:xlink="http://www.w3.org/1999/xlink">
<g id="graph0" class="graph" transform="scale(1 1) rotate(0) translate(4 261)">
<title>proof</title>
<g id="clust1" class="cluster">
<title>cluster_0</title>
<polygon fill="transparent" stroke="black" stroke-dasharray="1,5" points="10,-187 10,-249 278,-249 278,-187 10,-187"/>
</g>
<g id="clust2" class="cluster">
<title>cluster_1</title>
<polygon fill="transparent" stroke="black" stroke-width="2" points="65,-105 65,-167 191,-167 191,-105 65,-105"/>
</g>
<g id="clust3" class="cluster">
<title>cluster_2</title>
<polygon fill="transparent" stroke="black" stroke-dasharray="1,5" points="8,-8 8,-85 228,-85 228,-8 8,-8"/>
</g>
<!-- c_0_44 -->
<g id="node1" class="node">
<title>c_0_44</title>
<g id="a_node1"><a xlink:href="c_0_44.html" xlink:title="{X₁ ⊆ X₂|⇊|X₁ ∩ X₂ = X₁}" target="_vizar">
<polygon fill="#f8edd1" stroke="#7f7542" points="182,-195.5 182,-240.5 270,-240.5 270,-195.5 182,-195.5"/>
<text text-anchor="middle" x="226" y="-229.3" font-family="Times,serif" font-size="14.00">X₁ ⊆ X₂</text>
<polyline fill="none" stroke="#7f7542" points="182,-225.5 270,-225.5 "/>
<text text-anchor="middle" x="226" y="-214.3" font-family="Times,serif" font-size="14.00">⇊</text>
<polyline fill="none" stroke="#7f7542" points="182,-210.5 270,-210.5 "/>
<text text-anchor="middle" x="226" y="-199.3" font-family="Times,serif" font-size="14.00">X₁ ∩ X₂ = X₁</text>
</a>
</g>
</g>
<!-- c_0_56 -->
<g id="node3" class="node">
<title>c_0_56</title>
<g id="a_node3"><a xlink:href="c_0_56.html" xlink:title="{X₁ ⊆ X₂|⇊|X₁ \ (X₁ \ X₂) = X₁}" target="_vizar">
<polygon fill="#f8edd1" stroke="#7f7542" points="73,-113.5 73,-158.5 183,-158.5 183,-113.5 73,-113.5"/>
<text text-anchor="middle" x="128" y="-147.3" font-family="Times,serif" font-size="14.00">X₁ ⊆ X₂</text>
<polyline fill="none" stroke="#7f7542" points="73,-143.5 183,-143.5 "/>
<text text-anchor="middle" x="128" y="-132.3" font-family="Times,serif" font-size="14.00">⇊</text>
<polyline fill="none" stroke="#7f7542" points="73,-128.5 183,-128.5 "/>
<text text-anchor="middle" x="128" y="-117.3" font-family="Times,serif" font-size="14.00">X₁ &#160;(X₁ &#160;X₂) = X₁</text>
</a>
</g>
</g>
<!-- c_0_44&#45;&gt;c_0_56 -->
<g id="edge1" class="edge">
<title>c_0_44&#45;&gt;c_0_56</title>
<path fill="none" stroke="black" d="M181.75,-202C176.52,-202 173,-202 173,-202 173,-202 173,-168.71 173,-168.71"/>
<polygon fill="black" stroke="black" points="176.5,-168.71 173,-158.71 169.5,-168.71 176.5,-168.71"/>
</g>
<!-- c_0_45 -->
<g id="node2" class="node">
<title>c_0_45</title>
<g id="a_node2"><a xlink:href="c_0_45.html" xlink:title="{X₁ \ (X₁ \ X₂) = X₁ ∩ X₂}" target="_vizar">
<polygon fill="#f8edd1" stroke="#7f7542" points="18,-210.5 18,-225.5 164,-225.5 164,-210.5 18,-210.5"/>
<text text-anchor="middle" x="91" y="-214.3" font-family="Times,serif" font-size="14.00">X₁ &#160;(X₁ &#160;X₂) = X₁ ∩ X₂</text>
</a>
</g>
</g>
<!-- c_0_45&#45;&gt;c_0_56 -->
<g id="edge2" class="edge">
<title>c_0_45&#45;&gt;c_0_56</title>
<path fill="none" stroke="black" d="M118.5,-210.43C118.5,-210.43 118.5,-168.65 118.5,-168.65"/>
<polygon fill="black" stroke="black" points="122,-168.65 118.5,-158.65 115,-168.65 122,-168.65"/>
</g>
<!-- c_0_80 -->
<g id="node4" class="node">
<title>c_0_80</title>
<g id="a_node4"><a xlink:href="c_0_80.html" xlink:title="{X₁ ⊆ X₂|⇊|X₂ \ (X₂ \ X₁) = X₁}" target="_vizar">
<polygon fill="#f8edd1" stroke="#7f7542" points="110,-24 110,-69 220,-69 220,-24 110,-24"/>
<text text-anchor="middle" x="165" y="-57.8" font-family="Times,serif" font-size="14.00">X₁ ⊆ X₂</text>
<polyline fill="none" stroke="#7f7542" points="110,-54 220,-54 "/>
<text text-anchor="middle" x="165" y="-42.8" font-family="Times,serif" font-size="14.00">⇊</text>
<polyline fill="none" stroke="#7f7542" points="110,-39 220,-39 "/>
<text text-anchor="middle" x="165" y="-27.8" font-family="Times,serif" font-size="14.00">X₂ &#160;(X₂ &#160;X₁) = X₁</text>
</a>
</g>
</g>
<!-- c_0_56&#45;&gt;c_0_80 -->
<g id="edge3" class="edge">
<title>c_0_56&#45;&gt;c_0_80</title>
<path fill="none" stroke="black" stroke-dasharray="5,2" d="M146.5,-113.42C146.5,-113.42 146.5,-79.08 146.5,-79.08"/>
<polygon fill="black" stroke="black" points="150,-79.08 146.5,-69.08 143,-79.08 150,-79.08"/>
</g>
<!-- c_0_91 -->
<g id="node5" class="node">
<title>c_0_91</title>
<g id="a_node5"><a xlink:href="c_0_91.html" xlink:title="{X₁ \ X₂ ⊆ X₁|X₁ ⊆ X₂|⇊|X₁ \ X₂ = Ø}" target="_vizar">
<polygon fill="#f8edd1" stroke="#7f7542" points="16,-16.5 16,-76.5 92,-76.5 92,-16.5 16,-16.5"/>
<text text-anchor="middle" x="54" y="-65.3" font-family="Times,serif" font-size="14.00">X₁ &#160;X₂ ⊆ X₁</text>
<polyline fill="none" stroke="#7f7542" points="16,-61.5 92,-61.5 "/>
<text text-anchor="middle" x="54" y="-50.3" font-family="Times,serif" font-size="14.00">X₁ ⊆ X₂</text>
<polyline fill="none" stroke="#7f7542" points="16,-46.5 92,-46.5 "/>
<text text-anchor="middle" x="54" y="-35.3" font-family="Times,serif" font-size="14.00">⇊</text>
<polyline fill="none" stroke="#7f7542" points="16,-31.5 92,-31.5 "/>
<text text-anchor="middle" x="54" y="-20.3" font-family="Times,serif" font-size="14.00">X₁ &#160;X₂ = Ø</text>
</a>
</g>
</g>
<!-- c_0_56&#45;&gt;c_0_91 -->
<g id="edge4" class="edge">
<title>c_0_56&#45;&gt;c_0_91</title>
<path fill="none" stroke="black" stroke-dasharray="5,2" d="M82.5,-113.42C82.5,-113.42 82.5,-86.52 82.5,-86.52"/>
<polygon fill="black" stroke="black" points="86,-86.52 82.5,-76.52 79,-86.52 86,-86.52"/>
</g>
</g>
</svg>
