<?xml version="1.0" encoding="UTF-8" standalone="no"?>
<!DOCTYPE svg PUBLIC "-//W3C//DTD SVG 1.1//EN"
 "http://www.w3.org/Graphics/SVG/1.1/DTD/svg11.dtd">
<!-- Generated by graphviz version 5.0.0 (0)
 -->
<!-- Title: proof Pages: 1 -->
<svg width="392pt" height="190pt"
 viewBox="0.00 0.00 392.00 190.00" xmlns="http://www.w3.org/2000/svg" xmlns:xlink="http://www.w3.org/1999/xlink">
<g id="graph0" class="graph" transform="scale(1 1) rotate(0) translate(4 186)">
<title>proof</title>
<g id="clust1" class="cluster">
<title>cluster_0</title>
<polygon fill="transparent" stroke="black" stroke-dasharray="1,5" points="40,-112 40,-174 318,-174 318,-112 40,-112"/>
</g>
<g id="clust2" class="cluster">
<title>cluster_1</title>
<polygon fill="transparent" stroke="black" stroke-width="2" points="87,-60 87,-92 297,-92 297,-60 87,-60"/>
</g>
<g id="clust3" class="cluster">
<title>cluster_2</title>
<polygon fill="transparent" stroke="black" stroke-dasharray="1,5" points="8,-8 8,-40 376,-40 376,-8 8,-8"/>
</g>
<!-- c_0_101 -->
<g id="node1" class="node">
<title>c_0_101</title>
<g id="a_node1"><a xlink:href="c_0_101.html" xlink:title="{X₁ ⊆ X₂|⇊|X₁ \ X₂ = Ø}" target="_vizar">
<polygon fill="#f8edd1" stroke="#7f7542" points="238,-120.5 238,-165.5 310,-165.5 310,-120.5 238,-120.5"/>
<text text-anchor="middle" x="274" y="-154.3" font-family="Times,serif" font-size="14.00">X₁ ⊆ X₂</text>
<polyline fill="none" stroke="#7f7542" points="238,-150.5 310,-150.5 "/>
<text text-anchor="middle" x="274" y="-139.3" font-family="Times,serif" font-size="14.00">⇊</text>
<polyline fill="none" stroke="#7f7542" points="238,-135.5 310,-135.5 "/>
<text text-anchor="middle" x="274" y="-124.3" font-family="Times,serif" font-size="14.00">X₁ &#160;X₂ = Ø</text>
</a>
</g>
</g>
<!-- c_0_107 -->
<g id="node3" class="node">
<title>c_0_107</title>
<g id="a_node3"><a xlink:href="c_0_107.html" xlink:title="{a_1_2_card_fil(sk₁) \ sk₂ = Ø}" target="_vizar">
<polygon fill="#fa6900" stroke="#7f7542" points="95.5,-68.5 95.5,-83.5 288.5,-83.5 288.5,-68.5 95.5,-68.5"/>
<text text-anchor="middle" x="192" y="-72.3" font-family="Times,serif" font-size="14.00">a_1_2_card_fil(sk₁) &#160;sk₂ = Ø</text>
</a>
</g>
</g>
<!-- c_0_101&#45;&gt;c_0_107 -->
<g id="edge1" class="edge">
<title>c_0_101&#45;&gt;c_0_107</title>
<path fill="none" stroke="black" d="M263.25,-120.32C263.25,-120.32 263.25,-93.59 263.25,-93.59"/>
<polygon fill="black" stroke="black" points="266.75,-93.59 263.25,-83.59 259.75,-93.59 266.75,-93.59"/>
</g>
<!-- c_0_102 -->
<g id="node2" class="node">
<title>c_0_102</title>
<g id="a_node2"><a xlink:href="c_0_102.html" xlink:title="{a_1_2_card_fil(sk₁) ⊆ sk₂}" target="_vizar">
<polygon fill="#fa6900" stroke="#7f7542" points="48,-135.5 48,-150.5 220,-150.5 220,-135.5 48,-135.5"/>
<text text-anchor="middle" x="134" y="-139.3" font-family="Times,serif" font-size="14.00">a_1_2_card_fil(sk₁) ⊆ sk₂</text>
</a>
</g>
</g>
<!-- c_0_102&#45;&gt;c_0_107 -->
<g id="edge2" class="edge">
<title>c_0_102&#45;&gt;c_0_107</title>
<path fill="none" stroke="black" d="M157.75,-135.31C157.75,-135.31 157.75,-93.6 157.75,-93.6"/>
<polygon fill="black" stroke="black" points="161.25,-93.6 157.75,-83.6 154.25,-93.6 161.25,-93.6"/>
</g>
<!-- c_0_116 -->
<g id="node4" class="node">
<title>c_0_116</title>
<g id="a_node4"><a xlink:href="c_0_116.html" xlink:title="{sk₂ \ (sk₂ \ a_1_2_card_fil(sk₁)) = a_1_2_card_fil(sk₁)}" target="_vizar">
<polygon fill="#fa6900" stroke="#7f7542" points="16,-16.5 16,-31.5 368,-31.5 368,-16.5 16,-16.5"/>
<text text-anchor="middle" x="192" y="-20.3" font-family="Times,serif" font-size="14.00">sk₂ &#160;(sk₂ &#160;a_1_2_card_fil(sk₁)) = a_1_2_card_fil(sk₁)</text>
</a>
</g>
</g>
<!-- c_0_107&#45;&gt;c_0_116 -->
<g id="edge3" class="edge">
<title>c_0_107&#45;&gt;c_0_116</title>
<path fill="none" stroke="black" stroke-dasharray="5,2" d="M192,-68.33C192,-68.33 192,-41.7 192,-41.7"/>
<polygon fill="black" stroke="black" points="195.5,-41.7 192,-31.7 188.5,-41.7 195.5,-41.7"/>
</g>
</g>
</svg>
