<?xml version="1.0" encoding="UTF-8" standalone="no"?>
<!DOCTYPE svg PUBLIC "-//W3C//DTD SVG 1.1//EN"
 "http://www.w3.org/Graphics/SVG/1.1/DTD/svg11.dtd">
<!-- Generated by graphviz version 5.0.0 (0)
 -->
<!-- Title: proof Pages: 1 -->
<svg width="442pt" height="235pt"
 viewBox="0.00 0.00 442.00 235.00" xmlns="http://www.w3.org/2000/svg" xmlns:xlink="http://www.w3.org/1999/xlink">
<g id="graph0" class="graph" transform="scale(1 1) rotate(0) translate(4 231)">
<title>proof</title>
<g id="clust1" class="cluster">
<title>cluster_0</title>
<polygon fill="transparent" stroke="black" stroke-dasharray="1,5" points="108,-187 108,-219 302,-219 302,-187 108,-187"/>
</g>
<g id="clust2" class="cluster">
<title>cluster_1</title>
<polygon fill="transparent" stroke="black" stroke-width="2" points="147,-135 147,-167 263,-167 263,-135 147,-135"/>
</g>
<g id="clust3" class="cluster">
<title>cluster_2</title>
<polygon fill="transparent" stroke="black" stroke-dasharray="1,5" points="8,-8 8,-115 426,-115 426,-8 8,-8"/>
</g>
<!-- redefinition_k6_subset_1 -->
<g id="node1" class="node">
<title>redefinition_k6_subset_1</title>
<g id="a_node1"><a xlink:href="redefinition_k6_subset_1.html" xlink:title="redefinition_k6_subset_1" target="_parent">
<polygon fill="#69d2e7" stroke="#7f7542" points="116.5,-195.5 116.5,-210.5 293.5,-210.5 293.5,-195.5 116.5,-195.5"/>
<text text-anchor="middle" x="205" y="-199.3" font-family="Times,serif" font-size="14.00">redefinition_k6_subset_1</text>
</a>
</g>
</g>
<!-- c_0_50 -->
<g id="node2" class="node">
<title>c_0_50</title>
<g id="a_node2"><a xlink:href="c_0_50.html" xlink:title="{X₁ \ X₂ = X₁ \ X₂}" target="_parent">
<polygon fill="#f8edd1" stroke="#7f7542" points="155,-143.5 155,-158.5 255,-158.5 255,-143.5 155,-143.5"/>
<text text-anchor="middle" x="205" y="-147.3" font-family="Times,serif" font-size="14.00">X₁ &#160;X₂ = X₁ &#160;X₂</text>
</a>
</g>
</g>
<!-- redefinition_k6_subset_1&#45;&gt;c_0_50 -->
<g id="edge1" class="edge">
<title>redefinition_k6_subset_1&#45;&gt;c_0_50</title>
<path fill="none" stroke="black" d="M205,-195.33C205,-195.33 205,-168.7 205,-168.7"/>
<polygon fill="black" stroke="black" points="208.5,-168.7 205,-158.7 201.5,-168.7 208.5,-168.7"/>
</g>
<!-- c_0_73 -->
<g id="node3" class="node">
<title>c_0_73</title>
<g id="a_node3"><a xlink:href="c_0_73.html" xlink:title="{X₁ \ X₂ ∈ bool(X₁)}" target="_parent">
<polygon fill="#f8edd1" stroke="#7f7542" points="302.5,-54 302.5,-69 417.5,-69 417.5,-54 302.5,-54"/>
<text text-anchor="middle" x="360" y="-57.8" font-family="Times,serif" font-size="14.00">X₁ &#160;X₂ ∈ bool(X₁)</text>
</a>
</g>
</g>
<!-- c_0_50&#45;&gt;c_0_73 -->
<g id="edge2" class="edge">
<title>c_0_50&#45;&gt;c_0_73</title>
<path fill="none" stroke="black" stroke-dasharray="5,2" d="M255.32,-151C300.58,-151 360,-151 360,-151 360,-151 360,-79.13 360,-79.13"/>
<polygon fill="black" stroke="black" points="363.5,-79.13 360,-69.13 356.5,-79.13 363.5,-79.13"/>
</g>
<!-- c_0_62 -->
<g id="node4" class="node">
<title>c_0_62</title>
<g id="a_node4"><a xlink:href="c_0_62.html" xlink:title="{X₁ = X₃|X₁ ∈ bool(X₂)|\|(X₂ \ X₁)\| ∈ \|X₂\||⇊|X₃ ∈ a_1_2_card_fil(X₂)|finite(X₂)}" target="_parent">
<polygon fill="#f8edd1" stroke="#7f7542" points="125.5,-16.5 125.5,-106.5 284.5,-106.5 284.5,-16.5 125.5,-16.5"/>
<text text-anchor="middle" x="205" y="-95.3" font-family="Times,serif" font-size="14.00">X₁ = X₃</text>
<polyline fill="none" stroke="#7f7542" points="125.5,-91.5 284.5,-91.5 "/>
<text text-anchor="middle" x="205" y="-80.3" font-family="Times,serif" font-size="14.00">X₁ ∈ bool(X₂)</text>
<polyline fill="none" stroke="#7f7542" points="125.5,-76.5 284.5,-76.5 "/>
<text text-anchor="middle" x="205" y="-65.3" font-family="Times,serif" font-size="14.00">|(X₂ &#160;X₁)| ∈ |X₂|</text>
<polyline fill="none" stroke="#7f7542" points="125.5,-61.5 284.5,-61.5 "/>
<text text-anchor="middle" x="205" y="-50.3" font-family="Times,serif" font-size="14.00">⇊</text>
<polyline fill="none" stroke="#7f7542" points="125.5,-46.5 284.5,-46.5 "/>
<text text-anchor="middle" x="205" y="-35.3" font-family="Times,serif" font-size="14.00">X₃ ∈ a_1_2_card_fil(X₂)</text>
<polyline fill="none" stroke="#7f7542" points="125.5,-31.5 284.5,-31.5 "/>
<text text-anchor="middle" x="205" y="-20.3" font-family="Times,serif" font-size="14.00">finite(X₂)</text>
</a>
</g>
</g>
<!-- c_0_50&#45;&gt;c_0_62 -->
<g id="edge3" class="edge">
<title>c_0_50&#45;&gt;c_0_62</title>
<path fill="none" stroke="black" stroke-dasharray="5,2" d="M205,-143.37C205,-143.37 205,-116.66 205,-116.66"/>
<polygon fill="black" stroke="black" points="208.5,-116.66 205,-106.66 201.5,-116.66 208.5,-116.66"/>
</g>
<!-- c_0_104 -->
<g id="node5" class="node">
<title>c_0_104</title>
<g id="a_node5"><a xlink:href="c_0_104.html" xlink:title="{Filter(X₃,X₁)|X₁ \ X₂ ∈ X₃|X₂ ∈ X₃|X₂ ∈ bool(X₁)|⇊|X₁ = Ø}" target="_parent">
<polygon fill="#f8edd1" stroke="#7f7542" points="16.5,-16.5 16.5,-106.5 107.5,-106.5 107.5,-16.5 16.5,-16.5"/>
<text text-anchor="middle" x="62" y="-95.3" font-family="Times,serif" font-size="14.00">Filter(X₃,X₁)</text>
<polyline fill="none" stroke="#7f7542" points="16.5,-91.5 107.5,-91.5 "/>
<text text-anchor="middle" x="62" y="-80.3" font-family="Times,serif" font-size="14.00">X₁ &#160;X₂ ∈ X₃</text>
<polyline fill="none" stroke="#7f7542" points="16.5,-76.5 107.5,-76.5 "/>
<text text-anchor="middle" x="62" y="-65.3" font-family="Times,serif" font-size="14.00">X₂ ∈ X₃</text>
<polyline fill="none" stroke="#7f7542" points="16.5,-61.5 107.5,-61.5 "/>
<text text-anchor="middle" x="62" y="-50.3" font-family="Times,serif" font-size="14.00">X₂ ∈ bool(X₁)</text>
<polyline fill="none" stroke="#7f7542" points="16.5,-46.5 107.5,-46.5 "/>
<text text-anchor="middle" x="62" y="-35.3" font-family="Times,serif" font-size="14.00">⇊</text>
<polyline fill="none" stroke="#7f7542" points="16.5,-31.5 107.5,-31.5 "/>
<text text-anchor="middle" x="62" y="-20.3" font-family="Times,serif" font-size="14.00">X₁ = Ø</text>
</a>
</g>
</g>
<!-- c_0_50&#45;&gt;c_0_104 -->
<g id="edge4" class="edge">
<title>c_0_50&#45;&gt;c_0_104</title>
<path fill="none" stroke="black" stroke-dasharray="5,2" d="M154.99,-151C113.75,-151 62,-151 62,-151 62,-151 62,-116.51 62,-116.51"/>
<polygon fill="black" stroke="black" points="65.5,-116.51 62,-106.51 58.5,-116.51 65.5,-116.51"/>
</g>
</g>
</svg>
