<?xml version="1.0" encoding="UTF-8" standalone="no"?>
<!DOCTYPE svg PUBLIC "-//W3C//DTD SVG 1.1//EN"
 "http://www.w3.org/Graphics/SVG/1.1/DTD/svg11.dtd">
<!-- Generated by graphviz version 5.0.0 (0)
 -->
<!-- Title: proof Pages: 1 -->
<svg width="256pt" height="205pt"
 viewBox="0.00 0.00 256.00 205.00" xmlns="http://www.w3.org/2000/svg" xmlns:xlink="http://www.w3.org/1999/xlink">
<g id="graph0" class="graph" transform="scale(1 1) rotate(0) translate(4 201)">
<title>proof</title>
<g id="clust1" class="cluster">
<title>cluster_0</title>
<polygon fill="transparent" stroke="black" stroke-dasharray="1,5" points="8,-142 8,-189 240,-189 240,-142 8,-142"/>
</g>
<g id="clust2" class="cluster">
<title>cluster_1</title>
<polygon fill="transparent" stroke="black" stroke-width="2" points="44,-90 44,-122 204,-122 204,-90 44,-90"/>
</g>
<g id="clust3" class="cluster">
<title>cluster_2</title>
<polygon fill="transparent" stroke="black" stroke-dasharray="1,5" points="67,-8 67,-70 181,-70 181,-8 67,-8"/>
</g>
<!-- c_0_137 -->
<g id="node1" class="node">
<title>c_0_137</title>
<g id="a_node1"><a xlink:href="c_0_137.html" xlink:title="{sk₁ ≠ Ø}" target="_vizar">
<polygon fill="#fa6900" stroke="#7f7542" points="178,-158 178,-173 232,-173 232,-158 178,-158"/>
<text text-anchor="middle" x="205" y="-161.8" font-family="Times,serif" font-size="14.00">sk₁ ≠ Ø</text>
</a>
</g>
</g>
<!-- c_0_141 -->
<g id="node3" class="node">
<title>c_0_141</title>
<g id="a_node3"><a xlink:href="c_0_141.html" xlink:title="{sk₂ ∈ bool(bool(sk₁))}" target="_vizar">
<polygon fill="#fa6900" stroke="#7f7542" points="52.5,-98.5 52.5,-113.5 195.5,-113.5 195.5,-98.5 52.5,-98.5"/>
<text text-anchor="middle" x="124" y="-102.3" font-family="Times,serif" font-size="14.00">sk₂ ∈ bool(bool(sk₁))</text>
</a>
</g>
</g>
<!-- c_0_137&#45;&gt;c_0_141 -->
<g id="edge1" class="edge">
<title>c_0_137&#45;&gt;c_0_141</title>
<path fill="none" stroke="black" d="M186.75,-157.72C186.75,-157.72 186.75,-123.59 186.75,-123.59"/>
<polygon fill="black" stroke="black" points="190.25,-123.59 186.75,-113.59 183.25,-123.59 190.25,-123.59"/>
</g>
<!-- c_0_136 -->
<g id="node2" class="node">
<title>c_0_136</title>
<g id="a_node2"><a xlink:href="c_0_136.html" xlink:title="{sk₁ = Ø|sk₂ ∈ bool(bool(sk₁))}" target="_vizar">
<polygon fill="#fa6900" stroke="#7f7542" points="16.5,-150.5 16.5,-180.5 159.5,-180.5 159.5,-150.5 16.5,-150.5"/>
<text text-anchor="middle" x="88" y="-169.3" font-family="Times,serif" font-size="14.00">sk₁ = Ø</text>
<polyline fill="none" stroke="#7f7542" points="16.5,-165.5 159.5,-165.5 "/>
<text text-anchor="middle" x="88" y="-154.3" font-family="Times,serif" font-size="14.00">sk₂ ∈ bool(bool(sk₁))</text>
</a>
</g>
</g>
<!-- c_0_136&#45;&gt;c_0_141 -->
<g id="edge2" class="edge">
<title>c_0_136&#45;&gt;c_0_141</title>
<path fill="none" stroke="black" d="M106,-150.49C106,-150.49 106,-123.73 106,-123.73"/>
<polygon fill="black" stroke="black" points="109.5,-123.73 106,-113.73 102.5,-123.73 109.5,-123.73"/>
</g>
<!-- c_0_144 -->
<g id="node4" class="node">
<title>c_0_144</title>
<g id="a_node4"><a xlink:href="c_0_144.html" xlink:title="{X₁ ∈ sk₂|⇊|X₁ ∈ bool(sk₁)}" target="_vizar">
<polygon fill="#fa6900" stroke="#7f7542" points="75.5,-16.5 75.5,-61.5 172.5,-61.5 172.5,-16.5 75.5,-16.5"/>
<text text-anchor="middle" x="124" y="-50.3" font-family="Times,serif" font-size="14.00">X₁ ∈ sk₂</text>
<polyline fill="none" stroke="#7f7542" points="75.5,-46.5 172.5,-46.5 "/>
<text text-anchor="middle" x="124" y="-35.3" font-family="Times,serif" font-size="14.00">⇊</text>
<polyline fill="none" stroke="#7f7542" points="75.5,-31.5 172.5,-31.5 "/>
<text text-anchor="middle" x="124" y="-20.3" font-family="Times,serif" font-size="14.00">X₁ ∈ bool(sk₁)</text>
</a>
</g>
</g>
<!-- c_0_141&#45;&gt;c_0_144 -->
<g id="edge3" class="edge">
<title>c_0_141&#45;&gt;c_0_144</title>
<path fill="none" stroke="black" stroke-dasharray="5,2" d="M124,-98.31C124,-98.31 124,-71.76 124,-71.76"/>
<polygon fill="black" stroke="black" points="127.5,-71.76 124,-61.76 120.5,-71.76 127.5,-71.76"/>
</g>
</g>
</svg>
