<?xml version="1.0" encoding="UTF-8" standalone="no"?>
<!DOCTYPE svg PUBLIC "-//W3C//DTD SVG 1.1//EN"
 "http://www.w3.org/Graphics/SVG/1.1/DTD/svg11.dtd">
<!-- Generated by graphviz version 5.0.0 (0)
 -->
<!-- Title: proof Pages: 1 -->
<svg width="682pt" height="235pt"
 viewBox="0.00 0.00 682.00 235.00" xmlns="http://www.w3.org/2000/svg" xmlns:xlink="http://www.w3.org/1999/xlink">
<g id="graph0" class="graph" transform="scale(1 1) rotate(0) translate(4 231)">
<title>proof</title>
<g id="clust1" class="cluster">
<title>cluster_0</title>
<polygon fill="transparent" stroke="black" stroke-dasharray="1,5" points="300,-187 300,-219 544,-219 544,-187 300,-187"/>
</g>
<g id="clust2" class="cluster">
<title>cluster_1</title>
<polygon fill="transparent" stroke="black" stroke-width="2" points="354,-135 354,-167 486,-167 486,-135 354,-135"/>
</g>
<g id="clust3" class="cluster">
<title>cluster_2</title>
<polygon fill="transparent" stroke="black" stroke-dasharray="1,5" points="8,-8 8,-115 666,-115 666,-8 8,-8"/>
</g>
<!-- dt_k6_subset_1 -->
<g id="node1" class="node">
<title>dt_k6_subset_1</title>
<g id="a_node1"><a xlink:href="dt_k6_subset_1.html" xlink:title="dt_k6_subset_1" target="_vizar">
<polygon fill="#69d2e7" stroke="#7f7542" points="426.5,-195.5 426.5,-210.5 535.5,-210.5 535.5,-195.5 426.5,-195.5"/>
<text text-anchor="middle" x="481" y="-199.3" font-family="Times,serif" font-size="14.00">dt_k6_subset_1</text>
</a>
</g>
</g>
<!-- c_0_73 -->
<g id="node3" class="node">
<title>c_0_73</title>
<g id="a_node3"><a xlink:href="c_0_73.html" xlink:title="{X₁ \ X₂ ∈ bool(X₁)}" target="_vizar">
<polygon fill="#f8edd1" stroke="#7f7542" points="362.5,-143.5 362.5,-158.5 477.5,-158.5 477.5,-143.5 362.5,-143.5"/>
<text text-anchor="middle" x="420" y="-147.3" font-family="Times,serif" font-size="14.00">X₁ &#160;X₂ ∈ bool(X₁)</text>
</a>
</g>
</g>
<!-- dt_k6_subset_1&#45;&gt;c_0_73 -->
<g id="edge1" class="edge">
<title>dt_k6_subset_1&#45;&gt;c_0_73</title>
<path fill="none" stroke="black" d="M452,-195.33C452,-195.33 452,-168.7 452,-168.7"/>
<polygon fill="black" stroke="black" points="455.5,-168.7 452,-158.7 448.5,-168.7 455.5,-168.7"/>
</g>
<!-- c_0_50 -->
<g id="node2" class="node">
<title>c_0_50</title>
<g id="a_node2"><a xlink:href="c_0_50.html" xlink:title="{X₁ \ X₂ = X₁ \ X₂}" target="_vizar">
<polygon fill="#f8edd1" stroke="#7f7542" points="308,-195.5 308,-210.5 408,-210.5 408,-195.5 308,-195.5"/>
<text text-anchor="middle" x="358" y="-199.3" font-family="Times,serif" font-size="14.00">X₁ &#160;X₂ = X₁ &#160;X₂</text>
</a>
</g>
</g>
<!-- c_0_50&#45;&gt;c_0_73 -->
<g id="edge2" class="edge">
<title>c_0_50&#45;&gt;c_0_73</title>
<path fill="none" stroke="black" d="M385.25,-195.33C385.25,-195.33 385.25,-168.7 385.25,-168.7"/>
<polygon fill="black" stroke="black" points="388.75,-168.7 385.25,-158.7 381.75,-168.7 388.75,-168.7"/>
</g>
<!-- c_0_118 -->
<g id="node4" class="node">
<title>c_0_118</title>
<g id="a_node4"><a xlink:href="c_0_118.html" xlink:title="{X₁ ∈ bool(X₁)}" target="_vizar">
<polygon fill="#f8edd1" stroke="#7f7542" points="566.5,-54 566.5,-69 657.5,-69 657.5,-54 566.5,-54"/>
<text text-anchor="middle" x="612" y="-57.8" font-family="Times,serif" font-size="14.00">X₁ ∈ bool(X₁)</text>
</a>
</g>
</g>
<!-- c_0_73&#45;&gt;c_0_118 -->
<g id="edge3" class="edge">
<title>c_0_73&#45;&gt;c_0_118</title>
<path fill="none" stroke="black" stroke-dasharray="5,2" d="M477.61,-151C534.16,-151 612,-151 612,-151 612,-151 612,-79.13 612,-79.13"/>
<polygon fill="black" stroke="black" points="615.5,-79.13 612,-69.13 608.5,-79.13 615.5,-79.13"/>
</g>
<!-- c_0_115 -->
<g id="node5" class="node">
<title>c_0_115</title>
<g id="a_node5"><a xlink:href="c_0_115.html" xlink:title="{X₁ ∈ X₂ \ X₃|⇊|X₁ ∈ X₂}" target="_vizar">
<polygon fill="#f8edd1" stroke="#7f7542" points="474,-39 474,-84 548,-84 548,-39 474,-39"/>
<text text-anchor="middle" x="511" y="-72.8" font-family="Times,serif" font-size="14.00">X₁ ∈ X₂ &#160;X₃</text>
<polyline fill="none" stroke="#7f7542" points="474,-69 548,-69 "/>
<text text-anchor="middle" x="511" y="-57.8" font-family="Times,serif" font-size="14.00">⇊</text>
<polyline fill="none" stroke="#7f7542" points="474,-54 548,-54 "/>
<text text-anchor="middle" x="511" y="-42.8" font-family="Times,serif" font-size="14.00">X₁ ∈ X₂</text>
</a>
</g>
</g>
<!-- c_0_73&#45;&gt;c_0_115 -->
<g id="edge4" class="edge">
<title>c_0_73&#45;&gt;c_0_115</title>
<path fill="none" stroke="black" stroke-dasharray="5,2" d="M465,-143.33C465,-121.56 465,-61 465,-61 465,-61 465.89,-61 465.89,-61"/>
<polygon fill="black" stroke="black" points="463.87,-64.5 473.87,-61 463.87,-57.5 463.87,-64.5"/>
</g>
<!-- c_0_101 -->
<g id="node6" class="node">
<title>c_0_101</title>
<g id="a_node6"><a xlink:href="c_0_101.html" xlink:title="{X₁ ⊆ X₂|⇊|X₁ \ X₂ = Ø}" target="_vizar">
<polygon fill="#f8edd1" stroke="#7f7542" points="384,-39 384,-84 456,-84 456,-39 384,-39"/>
<text text-anchor="middle" x="420" y="-72.8" font-family="Times,serif" font-size="14.00">X₁ ⊆ X₂</text>
<polyline fill="none" stroke="#7f7542" points="384,-69 456,-69 "/>
<text text-anchor="middle" x="420" y="-57.8" font-family="Times,serif" font-size="14.00">⇊</text>
<polyline fill="none" stroke="#7f7542" points="384,-54 456,-54 "/>
<text text-anchor="middle" x="420" y="-42.8" font-family="Times,serif" font-size="14.00">X₁ &#160;X₂ = Ø</text>
</a>
</g>
</g>
<!-- c_0_73&#45;&gt;c_0_101 -->
<g id="edge5" class="edge">
<title>c_0_73&#45;&gt;c_0_101</title>
<path fill="none" stroke="black" stroke-dasharray="5,2" d="M420,-143.37C420,-143.37 420,-94.31 420,-94.31"/>
<polygon fill="black" stroke="black" points="423.5,-94.31 420,-84.31 416.5,-94.31 423.5,-94.31"/>
</g>
<!-- c_0_109 -->
<g id="node7" class="node">
<title>c_0_109</title>
<g id="a_node7"><a xlink:href="c_0_109.html" xlink:title="{X₂ ∈ bool(X₃)|⇊|X₃ /\ X₁ /\ X₂ ∈ bool(X₁)}" target="_vizar">
<polygon fill="#f8edd1" stroke="#7f7542" points="218,-39 218,-84 366,-84 366,-39 218,-39"/>
<text text-anchor="middle" x="292" y="-72.8" font-family="Times,serif" font-size="14.00">X₂ ∈ bool(X₃)</text>
<polyline fill="none" stroke="#7f7542" points="218,-69 366,-69 "/>
<text text-anchor="middle" x="292" y="-57.8" font-family="Times,serif" font-size="14.00">⇊</text>
<polyline fill="none" stroke="#7f7542" points="218,-54 366,-54 "/>
<text text-anchor="middle" x="292" y="-42.8" font-family="Times,serif" font-size="14.00">X₃ / X₁ / X₂ ∈ bool(X₁)</text>
</a>
</g>
</g>
<!-- c_0_73&#45;&gt;c_0_109 -->
<g id="edge6" class="edge">
<title>c_0_73&#45;&gt;c_0_109</title>
<path fill="none" stroke="black" stroke-dasharray="5,2" d="M378,-143.33C378,-121.56 378,-61 378,-61 378,-61 376.04,-61 376.04,-61"/>
<polygon fill="black" stroke="black" points="376.04,-57.5 366.04,-61 376.04,-64.5 376.04,-57.5"/>
</g>
<!-- c_0_103 -->
<g id="node8" class="node">
<title>c_0_103</title>
<g id="a_node8"><a xlink:href="c_0_103.html" xlink:title="{X₂ ∈ bool(X₃)|X₃ /\ X₁ /\ X₂ ⊆ X₁|⇊|X₁ \ X₂ ∈ a_1_2_card_fil(X₁)|\|(X₃ /\ X₁ /\ X₂)\| = \|X₁\||finite(X₁)}" target="_vizar">
<polygon fill="#f8edd1" stroke="#7f7542" points="16.5,-16.5 16.5,-106.5 199.5,-106.5 199.5,-16.5 16.5,-16.5"/>
<text text-anchor="middle" x="108" y="-95.3" font-family="Times,serif" font-size="14.00">X₂ ∈ bool(X₃)</text>
<polyline fill="none" stroke="#7f7542" points="16.5,-91.5 199.5,-91.5 "/>
<text text-anchor="middle" x="108" y="-80.3" font-family="Times,serif" font-size="14.00">X₃ / X₁ / X₂ ⊆ X₁</text>
<polyline fill="none" stroke="#7f7542" points="16.5,-76.5 199.5,-76.5 "/>
<text text-anchor="middle" x="108" y="-65.3" font-family="Times,serif" font-size="14.00">⇊</text>
<polyline fill="none" stroke="#7f7542" points="16.5,-61.5 199.5,-61.5 "/>
<text text-anchor="middle" x="108" y="-50.3" font-family="Times,serif" font-size="14.00">X₁ &#160;X₂ ∈ a_1_2_card_fil(X₁)</text>
<polyline fill="none" stroke="#7f7542" points="16.5,-46.5 199.5,-46.5 "/>
<text text-anchor="middle" x="108" y="-35.3" font-family="Times,serif" font-size="14.00">|(X₃ / X₁ / X₂)| = |X₁|</text>
<polyline fill="none" stroke="#7f7542" points="16.5,-31.5 199.5,-31.5 "/>
<text text-anchor="middle" x="108" y="-20.3" font-family="Times,serif" font-size="14.00">finite(X₁)</text>
</a>
</g>
</g>
<!-- c_0_73&#45;&gt;c_0_103 -->
<g id="edge7" class="edge">
<title>c_0_73&#45;&gt;c_0_103</title>
<path fill="none" stroke="black" stroke-dasharray="5,2" d="M372,-143.21C372,-127.83 372,-95 372,-95 372,-95 209.59,-95 209.59,-95"/>
<polygon fill="black" stroke="black" points="209.59,-91.5 199.59,-95 209.59,-98.5 209.59,-91.5"/>
</g>
</g>
</svg>
