<?xml version="1.0" encoding="UTF-8" standalone="no"?>
<!DOCTYPE svg PUBLIC "-//W3C//DTD SVG 1.1//EN"
 "http://www.w3.org/Graphics/SVG/1.1/DTD/svg11.dtd">
<!-- Generated by graphviz version 5.0.0 (0)
 -->
<!-- Title: proof Pages: 1 -->
<svg width="424pt" height="265pt"
 viewBox="0.00 0.00 424.00 265.00" xmlns="http://www.w3.org/2000/svg" xmlns:xlink="http://www.w3.org/1999/xlink">
<g id="graph0" class="graph" transform="scale(1 1) rotate(0) translate(4 261)">
<title>proof</title>
<g id="clust1" class="cluster">
<title>cluster_0</title>
<polygon fill="transparent" stroke="black" stroke-dasharray="1,5" points="119,-217 119,-249 205,-249 205,-217 119,-217"/>
</g>
<g id="clust2" class="cluster">
<title>cluster_1</title>
<polygon fill="transparent" stroke="black" stroke-width="2" points="108,-135 108,-197 216,-197 216,-135 108,-135"/>
</g>
<g id="clust3" class="cluster">
<title>cluster_2</title>
<polygon fill="transparent" stroke="black" stroke-dasharray="1,5" points="8,-8 8,-115 408,-115 408,-8 8,-8"/>
</g>
<!-- t3_subset -->
<g id="node1" class="node">
<title>t3_subset</title>
<g id="a_node1"><a xlink:href="t3_subset.html" xlink:title="t3_subset" target="_vizar">
<polygon fill="#69d2e7" stroke="#7f7542" points="127,-225.5 127,-240.5 197,-240.5 197,-225.5 127,-225.5"/>
<text text-anchor="middle" x="162" y="-229.3" font-family="Times,serif" font-size="14.00">t3_subset</text>
</a>
</g>
</g>
<!-- c_0_82 -->
<g id="node2" class="node">
<title>c_0_82</title>
<g id="a_node2"><a xlink:href="c_0_82.html" xlink:title="{X₁ ∈ bool(X₂)|⇊|X₁ ⊆ X₂}" target="_vizar">
<polygon fill="#f8edd1" stroke="#7f7542" points="116.5,-143.5 116.5,-188.5 207.5,-188.5 207.5,-143.5 116.5,-143.5"/>
<text text-anchor="middle" x="162" y="-177.3" font-family="Times,serif" font-size="14.00">X₁ ∈ bool(X₂)</text>
<polyline fill="none" stroke="#7f7542" points="116.5,-173.5 207.5,-173.5 "/>
<text text-anchor="middle" x="162" y="-162.3" font-family="Times,serif" font-size="14.00">⇊</text>
<polyline fill="none" stroke="#7f7542" points="116.5,-158.5 207.5,-158.5 "/>
<text text-anchor="middle" x="162" y="-147.3" font-family="Times,serif" font-size="14.00">X₁ ⊆ X₂</text>
</a>
</g>
</g>
<!-- t3_subset&#45;&gt;c_0_82 -->
<g id="edge1" class="edge">
<title>t3_subset&#45;&gt;c_0_82</title>
<path fill="none" stroke="black" d="M162,-225.31C162,-225.31 162,-198.76 162,-198.76"/>
<polygon fill="black" stroke="black" points="165.5,-198.76 162,-188.76 158.5,-198.76 165.5,-198.76"/>
</g>
<!-- c_0_108 -->
<g id="node3" class="node">
<title>c_0_108</title>
<g id="a_node3"><a xlink:href="c_0_108.html" xlink:title="{X₁ /\ X₂ /\ X₃ ∈ bool(X₂)|X₃ ∈ bool(X₁)|⇊|X₂ \ X₃ ∈ a_1_2_card_fil(X₂)|\|(X₁ /\ X₂ /\ X₃)\| = \|X₂\||finite(X₂)}" target="_vizar">
<polygon fill="#f8edd1" stroke="#7f7542" points="216.5,-16.5 216.5,-106.5 399.5,-106.5 399.5,-16.5 216.5,-16.5"/>
<text text-anchor="middle" x="308" y="-95.3" font-family="Times,serif" font-size="14.00">X₁ / X₂ / X₃ ∈ bool(X₂)</text>
<polyline fill="none" stroke="#7f7542" points="216.5,-91.5 399.5,-91.5 "/>
<text text-anchor="middle" x="308" y="-80.3" font-family="Times,serif" font-size="14.00">X₃ ∈ bool(X₁)</text>
<polyline fill="none" stroke="#7f7542" points="216.5,-76.5 399.5,-76.5 "/>
<text text-anchor="middle" x="308" y="-65.3" font-family="Times,serif" font-size="14.00">⇊</text>
<polyline fill="none" stroke="#7f7542" points="216.5,-61.5 399.5,-61.5 "/>
<text text-anchor="middle" x="308" y="-50.3" font-family="Times,serif" font-size="14.00">X₂ &#160;X₃ ∈ a_1_2_card_fil(X₂)</text>
<polyline fill="none" stroke="#7f7542" points="216.5,-46.5 399.5,-46.5 "/>
<text text-anchor="middle" x="308" y="-35.3" font-family="Times,serif" font-size="14.00">|(X₁ / X₂ / X₃)| = |X₂|</text>
<polyline fill="none" stroke="#7f7542" points="216.5,-31.5 399.5,-31.5 "/>
<text text-anchor="middle" x="308" y="-20.3" font-family="Times,serif" font-size="14.00">finite(X₂)</text>
</a>
</g>
</g>
<!-- c_0_82&#45;&gt;c_0_108 -->
<g id="edge2" class="edge">
<title>c_0_82&#45;&gt;c_0_108</title>
<path fill="none" stroke="black" stroke-dasharray="5,2" d="M202.75,-143.14C202.75,-122.39 202.75,-95 202.75,-95 202.75,-95 206.08,-95 206.08,-95"/>
<polygon fill="black" stroke="black" points="206.08,-98.5 216.08,-95 206.08,-91.5 206.08,-98.5"/>
</g>
<!-- c_0_101 -->
<g id="node4" class="node">
<title>c_0_101</title>
<g id="a_node4"><a xlink:href="c_0_101.html" xlink:title="{X₁ ⊆ X₂|⇊|X₁ \ X₂ = Ø}" target="_vizar">
<polygon fill="#f8edd1" stroke="#7f7542" points="126,-39 126,-84 198,-84 198,-39 126,-39"/>
<text text-anchor="middle" x="162" y="-72.8" font-family="Times,serif" font-size="14.00">X₁ ⊆ X₂</text>
<polyline fill="none" stroke="#7f7542" points="126,-69 198,-69 "/>
<text text-anchor="middle" x="162" y="-57.8" font-family="Times,serif" font-size="14.00">⇊</text>
<polyline fill="none" stroke="#7f7542" points="126,-54 198,-54 "/>
<text text-anchor="middle" x="162" y="-42.8" font-family="Times,serif" font-size="14.00">X₁ &#160;X₂ = Ø</text>
</a>
</g>
</g>
<!-- c_0_82&#45;&gt;c_0_101 -->
<g id="edge3" class="edge">
<title>c_0_82&#45;&gt;c_0_101</title>
<path fill="none" stroke="black" stroke-dasharray="5,2" d="M162,-143.33C162,-143.33 162,-94.13 162,-94.13"/>
<polygon fill="black" stroke="black" points="165.5,-94.13 162,-84.13 158.5,-94.13 165.5,-94.13"/>
</g>
<!-- c_0_128 -->
<g id="node5" class="node">
<title>c_0_128</title>
<g id="a_node5"><a xlink:href="c_0_128.html" xlink:title="{X₁ ∈ bool(X₂)|⇊|X₁ \ X₂ = Ø}" target="_vizar">
<polygon fill="#f8edd1" stroke="#7f7542" points="16.5,-39 16.5,-84 107.5,-84 107.5,-39 16.5,-39"/>
<text text-anchor="middle" x="62" y="-72.8" font-family="Times,serif" font-size="14.00">X₁ ∈ bool(X₂)</text>
<polyline fill="none" stroke="#7f7542" points="16.5,-69 107.5,-69 "/>
<text text-anchor="middle" x="62" y="-57.8" font-family="Times,serif" font-size="14.00">⇊</text>
<polyline fill="none" stroke="#7f7542" points="16.5,-54 107.5,-54 "/>
<text text-anchor="middle" x="62" y="-42.8" font-family="Times,serif" font-size="14.00">X₁ &#160;X₂ = Ø</text>
</a>
</g>
</g>
<!-- c_0_82&#45;&gt;c_0_128 -->
<g id="edge4" class="edge">
<title>c_0_82&#45;&gt;c_0_128</title>
<path fill="none" stroke="black" stroke-dasharray="5,2" d="M121.25,-143.47C121.25,-112.62 121.25,-61 121.25,-61 121.25,-61 117.51,-61 117.51,-61"/>
<polygon fill="black" stroke="black" points="117.51,-57.5 107.51,-61 117.51,-64.5 117.51,-57.5"/>
</g>
</g>
</svg>
