<?xml version="1.0" encoding="UTF-8" standalone="no"?>
<!DOCTYPE svg PUBLIC "-//W3C//DTD SVG 1.1//EN"
 "http://www.w3.org/Graphics/SVG/1.1/DTD/svg11.dtd">
<!-- Generated by graphviz version 5.0.0 (0)
 -->
<!-- Title: proof Pages: 1 -->
<svg width="182pt" height="160pt"
 viewBox="0.00 0.00 182.00 160.00" xmlns="http://www.w3.org/2000/svg" xmlns:xlink="http://www.w3.org/1999/xlink">
<g id="graph0" class="graph" transform="scale(1 1) rotate(0) translate(4 156)">
<title>proof</title>
<g id="clust1" class="cluster">
<title>cluster_0</title>
<polygon fill="transparent" stroke="black" stroke-dasharray="1,5" points="37,-112 37,-144 137,-144 137,-112 37,-112"/>
</g>
<g id="clust2" class="cluster">
<title>cluster_1</title>
<polygon fill="transparent" stroke="black" stroke-width="2" points="8,-60 8,-92 166,-92 166,-60 8,-60"/>
</g>
<g id="clust3" class="cluster">
<title>cluster_2</title>
<polygon fill="transparent" stroke="black" stroke-dasharray="1,5" points="72,-8 72,-40 102,-40 102,-8 72,-8"/>
</g>
<!-- t20_card_fil -->
<g id="node1" class="node">
<title>t20_card_fil</title>
<g id="a_node1"><a xlink:href="t20_card_fil.html" xlink:title="t20_card_fil" target="_vizar">
<polygon fill="#fa6900" stroke="#7f7542" points="45.5,-120.5 45.5,-135.5 128.5,-135.5 128.5,-120.5 45.5,-120.5"/>
<text text-anchor="middle" x="87" y="-124.3" font-family="Times,serif" font-size="14.00">t20_card_fil</text>
</a>
</g>
</g>
<!-- c_0_148 -->
<g id="node2" class="node">
<title>c_0_148</title>
<g id="a_node2"><a xlink:href="c_0_148.html" xlink:title="{¬ (uniform(sk₂,sk₁))}" target="_vizar">
<polygon fill="#fa6900" stroke="#7f7542" points="16.5,-68.5 16.5,-83.5 157.5,-83.5 157.5,-68.5 16.5,-68.5"/>
<text text-anchor="middle" x="87" y="-72.3" font-family="Times,serif" font-size="14.00">¬ (uniform(sk₂,sk₁))</text>
</a>
</g>
</g>
<!-- t20_card_fil&#45;&gt;c_0_148 -->
<g id="edge1" class="edge">
<title>t20_card_fil&#45;&gt;c_0_148</title>
<path fill="none" stroke="black" d="M87,-120.33C87,-120.33 87,-93.7 87,-93.7"/>
<polygon fill="black" stroke="black" points="90.5,-93.7 87,-83.7 83.5,-93.7 90.5,-93.7"/>
</g>
<!-- c_0_153 -->
<g id="node3" class="node">
<title>c_0_153</title>
<g id="a_node3"><a xlink:href="c_0_153.html" xlink:title="⊥" target="_vizar">
<polygon fill="#fa6900" stroke="#7f7542" points="80,-16.5 80,-31.5 94,-31.5 94,-16.5 80,-16.5"/>
<text text-anchor="middle" x="87" y="-20.3" font-family="Times,serif" font-size="14.00">⊥</text>
</a>
</g>
</g>
<!-- c_0_148&#45;&gt;c_0_153 -->
<g id="edge2" class="edge">
<title>c_0_148&#45;&gt;c_0_153</title>
<path fill="none" stroke="black" stroke-dasharray="5,2" d="M87,-68.33C87,-68.33 87,-41.7 87,-41.7"/>
<polygon fill="black" stroke="black" points="90.5,-41.7 87,-31.7 83.5,-41.7 90.5,-41.7"/>
</g>
</g>
</svg>
