<?xml version="1.0" encoding="UTF-8" standalone="no"?>
<!DOCTYPE svg PUBLIC "-//W3C//DTD SVG 1.1//EN"
 "http://www.w3.org/Graphics/SVG/1.1/DTD/svg11.dtd">
<!-- Generated by graphviz version 5.0.0 (0)
 -->
<!-- Title: proof Pages: 1 -->
<svg width="316pt" height="670pt"
 viewBox="0.00 0.00 316.00 670.00" xmlns="http://www.w3.org/2000/svg" xmlns:xlink="http://www.w3.org/1999/xlink">
<g id="graph0" class="graph" transform="scale(1 1) rotate(0) translate(4 666)">
<title>proof</title>
<g id="clust1" class="cluster">
<title>cluster_0</title>
<polygon fill="transparent" stroke="black" stroke-dasharray="1,5" points="105,-622 105,-654 203,-654 203,-622 105,-622"/>
</g>
<g id="clust2" class="cluster">
<title>cluster_1</title>
<polygon fill="transparent" stroke="black" stroke-width="2" points="53,-330 53,-602 255,-602 255,-330 53,-330"/>
</g>
<g id="clust3" class="cluster">
<title>cluster_2</title>
<polygon fill="transparent" stroke="black" stroke-dasharray="1,5" points="8,-8 8,-310 300,-310 300,-8 8,-8"/>
</g>
<!-- t41_bhsp_2 -->
<g id="node1" class="node">
<title>t41_bhsp_2</title>
<g id="a_node1"><a xlink:href="t41_bhsp_2.html" xlink:title="t41_bhsp_2" target="_parent">
<polygon fill="#69d2e7" stroke="#7f7542" points="113,-630.5 113,-645.5 195,-645.5 195,-630.5 113,-630.5"/>
<text text-anchor="middle" x="154" y="-634.3" font-family="Times,serif" font-size="14.00">t41_bhsp_2</text>
</a>
</g>
</g>
<!-- c_0_53 -->
<g id="node2" class="node">
<title>c_0_53</title>
<g id="a_node2"><a xlink:href="c_0_53.html" xlink:title="{Abelian(X₂)|RealUnitarySpace&#45;like(X₂)|UNITSTR(X₂)|X₁ ∈ ℝ|X₃ ∈ carrier(X₂)|X₄ ∈ carrier(X₂)|add&#45;associative(X₂)|right_complementable(X₂)|right_zeroed(X₂)|scalar&#45;associative(X₂)|scalar&#45;distributive(X₂)|scalar&#45;unital(X₂)|vector&#45;distributive(X₂)|⇊|X₁ ≤ dist(X₂,X₃,X₄)|X₄ ∈ Ball(X₂,X₃,X₁)|empty(X₂)}" target="_parent">
<polygon fill="#f8edd1" stroke="#7f7542" points="61,-338.5 61,-593.5 247,-593.5 247,-338.5 61,-338.5"/>
<text text-anchor="middle" x="154" y="-582.3" font-family="Times,serif" font-size="14.00">Abelian(X₂)</text>
<polyline fill="none" stroke="#7f7542" points="61,-578.5 247,-578.5 "/>
<text text-anchor="middle" x="154" y="-567.3" font-family="Times,serif" font-size="14.00">RealUnitarySpace&#45;like(X₂)</text>
<polyline fill="none" stroke="#7f7542" points="61,-563.5 247,-563.5 "/>
<text text-anchor="middle" x="154" y="-552.3" font-family="Times,serif" font-size="14.00">UNITSTR(X₂)</text>
<polyline fill="none" stroke="#7f7542" points="61,-548.5 247,-548.5 "/>
<text text-anchor="middle" x="154" y="-537.3" font-family="Times,serif" font-size="14.00">X₁ ∈ ℝ</text>
<polyline fill="none" stroke="#7f7542" points="61,-533.5 247,-533.5 "/>
<text text-anchor="middle" x="154" y="-522.3" font-family="Times,serif" font-size="14.00">X₃ ∈ carrier(X₂)</text>
<polyline fill="none" stroke="#7f7542" points="61,-518.5 247,-518.5 "/>
<text text-anchor="middle" x="154" y="-507.3" font-family="Times,serif" font-size="14.00">X₄ ∈ carrier(X₂)</text>
<polyline fill="none" stroke="#7f7542" points="61,-503.5 247,-503.5 "/>
<text text-anchor="middle" x="154" y="-492.3" font-family="Times,serif" font-size="14.00">add&#45;associative(X₂)</text>
<polyline fill="none" stroke="#7f7542" points="61,-488.5 247,-488.5 "/>
<text text-anchor="middle" x="154" y="-477.3" font-family="Times,serif" font-size="14.00">right_complementable(X₂)</text>
<polyline fill="none" stroke="#7f7542" points="61,-473.5 247,-473.5 "/>
<text text-anchor="middle" x="154" y="-462.3" font-family="Times,serif" font-size="14.00">right_zeroed(X₂)</text>
<polyline fill="none" stroke="#7f7542" points="61,-458.5 247,-458.5 "/>
<text text-anchor="middle" x="154" y="-447.3" font-family="Times,serif" font-size="14.00">scalar&#45;associative(X₂)</text>
<polyline fill="none" stroke="#7f7542" points="61,-443.5 247,-443.5 "/>
<text text-anchor="middle" x="154" y="-432.3" font-family="Times,serif" font-size="14.00">scalar&#45;distributive(X₂)</text>
<polyline fill="none" stroke="#7f7542" points="61,-428.5 247,-428.5 "/>
<text text-anchor="middle" x="154" y="-417.3" font-family="Times,serif" font-size="14.00">scalar&#45;unital(X₂)</text>
<polyline fill="none" stroke="#7f7542" points="61,-413.5 247,-413.5 "/>
<text text-anchor="middle" x="154" y="-402.3" font-family="Times,serif" font-size="14.00">vector&#45;distributive(X₂)</text>
<polyline fill="none" stroke="#7f7542" points="61,-398.5 247,-398.5 "/>
<text text-anchor="middle" x="154" y="-387.3" font-family="Times,serif" font-size="14.00">⇊</text>
<polyline fill="none" stroke="#7f7542" points="61,-383.5 247,-383.5 "/>
<text text-anchor="middle" x="154" y="-372.3" font-family="Times,serif" font-size="14.00">X₁ ≤ dist(X₂,X₃,X₄)</text>
<polyline fill="none" stroke="#7f7542" points="61,-368.5 247,-368.5 "/>
<text text-anchor="middle" x="154" y="-357.3" font-family="Times,serif" font-size="14.00">X₄ ∈ Ball(X₂,X₃,X₁)</text>
<polyline fill="none" stroke="#7f7542" points="61,-353.5 247,-353.5 "/>
<text text-anchor="middle" x="154" y="-342.3" font-family="Times,serif" font-size="14.00">empty(X₂)</text>
</a>
</g>
</g>
<!-- t41_bhsp_2&#45;&gt;c_0_53 -->
<g id="edge1" class="edge">
<title>t41_bhsp_2&#45;&gt;c_0_53</title>
<path fill="none" stroke="black" d="M154,-630.16C154,-630.16 154,-603.86 154,-603.86"/>
<polygon fill="black" stroke="black" points="157.5,-603.86 154,-593.86 150.5,-603.86 157.5,-603.86"/>
</g>
<!-- c_0_56 -->
<g id="node3" class="node">
<title>c_0_56</title>
<g id="a_node3"><a xlink:href="c_0_56.html" xlink:title="{Abelian(X₂)|Ball(X₂,X₃,X₄) ∈ bool(X₅)|RealUnitarySpace&#45;like(X₂)|UNITSTR(X₂)|X₁ ∈ bool(X₅)|X₃ ∈ carrier(X₂)|X₄ ∈ ℝ|add&#45;associative(X₂)|right_complementable(X₂)|right_zeroed(X₂)|scalar&#45;associative(X₂)|scalar&#45;distributive(X₂)|scalar&#45;unital(X₂)|sk₅(X₅,X₁,Ball(X₂,X₃,X₄)) ∈ carrier(X₂)|vector&#45;distributive(X₂)|⇊|X₁ ⊆ Ball(X₂,X₃,X₄)|X₄ ≤ dist(X₂,X₃,sk₅(X₅,X₁,Ball(X₂,X₃,X₄)))|empty(X₂)}" target="_parent">
<polygon fill="#f8edd1" stroke="#7f7542" points="16,-16.5 16,-301.5 292,-301.5 292,-16.5 16,-16.5"/>
<text text-anchor="middle" x="154" y="-290.3" font-family="Times,serif" font-size="14.00">Abelian(X₂)</text>
<polyline fill="none" stroke="#7f7542" points="16,-286.5 292,-286.5 "/>
<text text-anchor="middle" x="154" y="-275.3" font-family="Times,serif" font-size="14.00">Ball(X₂,X₃,X₄) ∈ bool(X₅)</text>
<polyline fill="none" stroke="#7f7542" points="16,-271.5 292,-271.5 "/>
<text text-anchor="middle" x="154" y="-260.3" font-family="Times,serif" font-size="14.00">RealUnitarySpace&#45;like(X₂)</text>
<polyline fill="none" stroke="#7f7542" points="16,-256.5 292,-256.5 "/>
<text text-anchor="middle" x="154" y="-245.3" font-family="Times,serif" font-size="14.00">UNITSTR(X₂)</text>
<polyline fill="none" stroke="#7f7542" points="16,-241.5 292,-241.5 "/>
<text text-anchor="middle" x="154" y="-230.3" font-family="Times,serif" font-size="14.00">X₁ ∈ bool(X₅)</text>
<polyline fill="none" stroke="#7f7542" points="16,-226.5 292,-226.5 "/>
<text text-anchor="middle" x="154" y="-215.3" font-family="Times,serif" font-size="14.00">X₃ ∈ carrier(X₂)</text>
<polyline fill="none" stroke="#7f7542" points="16,-211.5 292,-211.5 "/>
<text text-anchor="middle" x="154" y="-200.3" font-family="Times,serif" font-size="14.00">X₄ ∈ ℝ</text>
<polyline fill="none" stroke="#7f7542" points="16,-196.5 292,-196.5 "/>
<text text-anchor="middle" x="154" y="-185.3" font-family="Times,serif" font-size="14.00">add&#45;associative(X₂)</text>
<polyline fill="none" stroke="#7f7542" points="16,-181.5 292,-181.5 "/>
<text text-anchor="middle" x="154" y="-170.3" font-family="Times,serif" font-size="14.00">right_complementable(X₂)</text>
<polyline fill="none" stroke="#7f7542" points="16,-166.5 292,-166.5 "/>
<text text-anchor="middle" x="154" y="-155.3" font-family="Times,serif" font-size="14.00">right_zeroed(X₂)</text>
<polyline fill="none" stroke="#7f7542" points="16,-151.5 292,-151.5 "/>
<text text-anchor="middle" x="154" y="-140.3" font-family="Times,serif" font-size="14.00">scalar&#45;associative(X₂)</text>
<polyline fill="none" stroke="#7f7542" points="16,-136.5 292,-136.5 "/>
<text text-anchor="middle" x="154" y="-125.3" font-family="Times,serif" font-size="14.00">scalar&#45;distributive(X₂)</text>
<polyline fill="none" stroke="#7f7542" points="16,-121.5 292,-121.5 "/>
<text text-anchor="middle" x="154" y="-110.3" font-family="Times,serif" font-size="14.00">scalar&#45;unital(X₂)</text>
<polyline fill="none" stroke="#7f7542" points="16,-106.5 292,-106.5 "/>
<text text-anchor="middle" x="154" y="-95.3" font-family="Times,serif" font-size="14.00">sk₅(X₅,X₁,Ball(X₂,X₃,X₄)) ∈ carrier(X₂)</text>
<polyline fill="none" stroke="#7f7542" points="16,-91.5 292,-91.5 "/>
<text text-anchor="middle" x="154" y="-80.3" font-family="Times,serif" font-size="14.00">vector&#45;distributive(X₂)</text>
<polyline fill="none" stroke="#7f7542" points="16,-76.5 292,-76.5 "/>
<text text-anchor="middle" x="154" y="-65.3" font-family="Times,serif" font-size="14.00">⇊</text>
<polyline fill="none" stroke="#7f7542" points="16,-61.5 292,-61.5 "/>
<text text-anchor="middle" x="154" y="-50.3" font-family="Times,serif" font-size="14.00">X₁ ⊆ Ball(X₂,X₃,X₄)</text>
<polyline fill="none" stroke="#7f7542" points="16,-46.5 292,-46.5 "/>
<text text-anchor="middle" x="154" y="-35.3" font-family="Times,serif" font-size="14.00">X₄ ≤ dist(X₂,X₃,sk₅(X₅,X₁,Ball(X₂,X₃,X₄)))</text>
<polyline fill="none" stroke="#7f7542" points="16,-31.5 292,-31.5 "/>
<text text-anchor="middle" x="154" y="-20.3" font-family="Times,serif" font-size="14.00">empty(X₂)</text>
</a>
</g>
</g>
<!-- c_0_53&#45;&gt;c_0_56 -->
<g id="edge2" class="edge">
<title>c_0_53&#45;&gt;c_0_56</title>
<path fill="none" stroke="black" stroke-dasharray="5,2" d="M154,-338.47C154,-338.47 154,-311.54 154,-311.54"/>
<polygon fill="black" stroke="black" points="157.5,-311.54 154,-301.54 150.5,-311.54 157.5,-311.54"/>
</g>
</g>
</svg>
