<?xml version="1.0" encoding="UTF-8" standalone="no"?>
<!DOCTYPE svg PUBLIC "-//W3C//DTD SVG 1.1//EN"
 "http://www.w3.org/Graphics/SVG/1.1/DTD/svg11.dtd">
<!-- Generated by graphviz version 5.0.0 (0)
 -->
<!-- Title: proof Pages: 1 -->
<svg width="358pt" height="625pt"
 viewBox="0.00 0.00 358.00 625.00" xmlns="http://www.w3.org/2000/svg" xmlns:xlink="http://www.w3.org/1999/xlink">
<g id="graph0" class="graph" transform="scale(1 1) rotate(0) translate(4 621)">
<title>proof</title>
<g id="clust1" class="cluster">
<title>cluster_0</title>
<polygon fill="transparent" stroke="black" stroke-dasharray="1,5" points="126,-577 126,-609 224,-609 224,-577 126,-577"/>
</g>
<g id="clust2" class="cluster">
<title>cluster_1</title>
<polygon fill="transparent" stroke="black" stroke-width="2" points="8,-300 8,-557 342,-557 342,-300 8,-300"/>
</g>
<g id="clust3" class="cluster">
<title>cluster_2</title>
<polygon fill="transparent" stroke="black" stroke-dasharray="1,5" points="46,-8 46,-280 304,-280 304,-8 46,-8"/>
</g>
<!-- t35_bhsp_1 -->
<g id="node1" class="node">
<title>t35_bhsp_1</title>
<g id="a_node1"><a xlink:href="t35_bhsp_1.html" xlink:title="t35_bhsp_1" target="_vizar">
<polygon fill="#69d2e7" stroke="#7f7542" points="134,-585.5 134,-600.5 216,-600.5 216,-585.5 134,-585.5"/>
<text text-anchor="middle" x="175" y="-589.3" font-family="Times,serif" font-size="14.00">t35_bhsp_1</text>
</a>
</g>
</g>
<!-- c_0_29 -->
<g id="node2" class="node">
<title>c_0_29</title>
<g id="a_node2"><a xlink:href="c_0_29.html" xlink:title="{Abelian(X₁)|RealUnitarySpace&#45;like(X₁)|UNITSTR(X₁)|X₂ ∈ carrier(X₁)|X₃ ∈ carrier(X₁)|X₄ ∈ carrier(X₁)|add&#45;associative(X₁)|right_complementable(X₁)|right_zeroed(X₁)|scalar&#45;associative(X₁)|scalar&#45;distributive(X₁)|scalar&#45;unital(X₁)|vector&#45;distributive(X₁)|⇊|dist(X₁,X₂,X₃) ≤ dist(X₁,X₂,X₄) + dist(X₁,X₄,X₃)|empty(X₁)}" target="_vizar">
<polygon fill="#f8edd1" stroke="#7f7542" points="16.5,-308.5 16.5,-548.5 333.5,-548.5 333.5,-308.5 16.5,-308.5"/>
<text text-anchor="middle" x="175" y="-537.3" font-family="Times,serif" font-size="14.00">Abelian(X₁)</text>
<polyline fill="none" stroke="#7f7542" points="16.5,-533.5 333.5,-533.5 "/>
<text text-anchor="middle" x="175" y="-522.3" font-family="Times,serif" font-size="14.00">RealUnitarySpace&#45;like(X₁)</text>
<polyline fill="none" stroke="#7f7542" points="16.5,-518.5 333.5,-518.5 "/>
<text text-anchor="middle" x="175" y="-507.3" font-family="Times,serif" font-size="14.00">UNITSTR(X₁)</text>
<polyline fill="none" stroke="#7f7542" points="16.5,-503.5 333.5,-503.5 "/>
<text text-anchor="middle" x="175" y="-492.3" font-family="Times,serif" font-size="14.00">X₂ ∈ carrier(X₁)</text>
<polyline fill="none" stroke="#7f7542" points="16.5,-488.5 333.5,-488.5 "/>
<text text-anchor="middle" x="175" y="-477.3" font-family="Times,serif" font-size="14.00">X₃ ∈ carrier(X₁)</text>
<polyline fill="none" stroke="#7f7542" points="16.5,-473.5 333.5,-473.5 "/>
<text text-anchor="middle" x="175" y="-462.3" font-family="Times,serif" font-size="14.00">X₄ ∈ carrier(X₁)</text>
<polyline fill="none" stroke="#7f7542" points="16.5,-458.5 333.5,-458.5 "/>
<text text-anchor="middle" x="175" y="-447.3" font-family="Times,serif" font-size="14.00">add&#45;associative(X₁)</text>
<polyline fill="none" stroke="#7f7542" points="16.5,-443.5 333.5,-443.5 "/>
<text text-anchor="middle" x="175" y="-432.3" font-family="Times,serif" font-size="14.00">right_complementable(X₁)</text>
<polyline fill="none" stroke="#7f7542" points="16.5,-428.5 333.5,-428.5 "/>
<text text-anchor="middle" x="175" y="-417.3" font-family="Times,serif" font-size="14.00">right_zeroed(X₁)</text>
<polyline fill="none" stroke="#7f7542" points="16.5,-413.5 333.5,-413.5 "/>
<text text-anchor="middle" x="175" y="-402.3" font-family="Times,serif" font-size="14.00">scalar&#45;associative(X₁)</text>
<polyline fill="none" stroke="#7f7542" points="16.5,-398.5 333.5,-398.5 "/>
<text text-anchor="middle" x="175" y="-387.3" font-family="Times,serif" font-size="14.00">scalar&#45;distributive(X₁)</text>
<polyline fill="none" stroke="#7f7542" points="16.5,-383.5 333.5,-383.5 "/>
<text text-anchor="middle" x="175" y="-372.3" font-family="Times,serif" font-size="14.00">scalar&#45;unital(X₁)</text>
<polyline fill="none" stroke="#7f7542" points="16.5,-368.5 333.5,-368.5 "/>
<text text-anchor="middle" x="175" y="-357.3" font-family="Times,serif" font-size="14.00">vector&#45;distributive(X₁)</text>
<polyline fill="none" stroke="#7f7542" points="16.5,-353.5 333.5,-353.5 "/>
<text text-anchor="middle" x="175" y="-342.3" font-family="Times,serif" font-size="14.00">⇊</text>
<polyline fill="none" stroke="#7f7542" points="16.5,-338.5 333.5,-338.5 "/>
<text text-anchor="middle" x="175" y="-327.3" font-family="Times,serif" font-size="14.00">dist(X₁,X₂,X₃) ≤ dist(X₁,X₂,X₄) + dist(X₁,X₄,X₃)</text>
<polyline fill="none" stroke="#7f7542" points="16.5,-323.5 333.5,-323.5 "/>
<text text-anchor="middle" x="175" y="-312.3" font-family="Times,serif" font-size="14.00">empty(X₁)</text>
</a>
</g>
</g>
<!-- t35_bhsp_1&#45;&gt;c_0_29 -->
<g id="edge1" class="edge">
<title>t35_bhsp_1&#45;&gt;c_0_29</title>
<path fill="none" stroke="black" d="M175,-585.07C175,-585.07 175,-558.63 175,-558.63"/>
<polygon fill="black" stroke="black" points="178.5,-558.63 175,-548.63 171.5,-558.63 178.5,-558.63"/>
</g>
<!-- c_0_38 -->
<g id="node3" class="node">
<title>c_0_38</title>
<g id="a_node3"><a xlink:href="c_0_38.html" xlink:title="{Abelian(X₂)|E₁ ≤ dist(X₂,X₃,X₅)|RealUnitarySpace&#45;like(X₂)|UNITSTR(X₂)|X₃ ∈ carrier(X₂)|X₄ ∈ carrier(X₂)|X₅ ∈ carrier(X₂)|add&#45;associative(X₂)|right_complementable(X₂)|right_zeroed(X₂)|scalar&#45;associative(X₂)|scalar&#45;distributive(X₂)|scalar&#45;unital(X₂)|vector&#45;distributive(X₂)|⇊|E₁ ≤ dist(X₂,X₃,X₄) + dist(X₂,X₄,X₅)|empty(X₂)}" target="_vizar">
<polygon fill="#f8edd1" stroke="#7f7542" points="54.5,-16.5 54.5,-271.5 295.5,-271.5 295.5,-16.5 54.5,-16.5"/>
<text text-anchor="middle" x="175" y="-260.3" font-family="Times,serif" font-size="14.00">Abelian(X₂)</text>
<polyline fill="none" stroke="#7f7542" points="54.5,-256.5 295.5,-256.5 "/>
<text text-anchor="middle" x="175" y="-245.3" font-family="Times,serif" font-size="14.00">E₁ ≤ dist(X₂,X₃,X₅)</text>
<polyline fill="none" stroke="#7f7542" points="54.5,-241.5 295.5,-241.5 "/>
<text text-anchor="middle" x="175" y="-230.3" font-family="Times,serif" font-size="14.00">RealUnitarySpace&#45;like(X₂)</text>
<polyline fill="none" stroke="#7f7542" points="54.5,-226.5 295.5,-226.5 "/>
<text text-anchor="middle" x="175" y="-215.3" font-family="Times,serif" font-size="14.00">UNITSTR(X₂)</text>
<polyline fill="none" stroke="#7f7542" points="54.5,-211.5 295.5,-211.5 "/>
<text text-anchor="middle" x="175" y="-200.3" font-family="Times,serif" font-size="14.00">X₃ ∈ carrier(X₂)</text>
<polyline fill="none" stroke="#7f7542" points="54.5,-196.5 295.5,-196.5 "/>
<text text-anchor="middle" x="175" y="-185.3" font-family="Times,serif" font-size="14.00">X₄ ∈ carrier(X₂)</text>
<polyline fill="none" stroke="#7f7542" points="54.5,-181.5 295.5,-181.5 "/>
<text text-anchor="middle" x="175" y="-170.3" font-family="Times,serif" font-size="14.00">X₅ ∈ carrier(X₂)</text>
<polyline fill="none" stroke="#7f7542" points="54.5,-166.5 295.5,-166.5 "/>
<text text-anchor="middle" x="175" y="-155.3" font-family="Times,serif" font-size="14.00">add&#45;associative(X₂)</text>
<polyline fill="none" stroke="#7f7542" points="54.5,-151.5 295.5,-151.5 "/>
<text text-anchor="middle" x="175" y="-140.3" font-family="Times,serif" font-size="14.00">right_complementable(X₂)</text>
<polyline fill="none" stroke="#7f7542" points="54.5,-136.5 295.5,-136.5 "/>
<text text-anchor="middle" x="175" y="-125.3" font-family="Times,serif" font-size="14.00">right_zeroed(X₂)</text>
<polyline fill="none" stroke="#7f7542" points="54.5,-121.5 295.5,-121.5 "/>
<text text-anchor="middle" x="175" y="-110.3" font-family="Times,serif" font-size="14.00">scalar&#45;associative(X₂)</text>
<polyline fill="none" stroke="#7f7542" points="54.5,-106.5 295.5,-106.5 "/>
<text text-anchor="middle" x="175" y="-95.3" font-family="Times,serif" font-size="14.00">scalar&#45;distributive(X₂)</text>
<polyline fill="none" stroke="#7f7542" points="54.5,-91.5 295.5,-91.5 "/>
<text text-anchor="middle" x="175" y="-80.3" font-family="Times,serif" font-size="14.00">scalar&#45;unital(X₂)</text>
<polyline fill="none" stroke="#7f7542" points="54.5,-76.5 295.5,-76.5 "/>
<text text-anchor="middle" x="175" y="-65.3" font-family="Times,serif" font-size="14.00">vector&#45;distributive(X₂)</text>
<polyline fill="none" stroke="#7f7542" points="54.5,-61.5 295.5,-61.5 "/>
<text text-anchor="middle" x="175" y="-50.3" font-family="Times,serif" font-size="14.00">⇊</text>
<polyline fill="none" stroke="#7f7542" points="54.5,-46.5 295.5,-46.5 "/>
<text text-anchor="middle" x="175" y="-35.3" font-family="Times,serif" font-size="14.00">E₁ ≤ dist(X₂,X₃,X₄) + dist(X₂,X₄,X₅)</text>
<polyline fill="none" stroke="#7f7542" points="54.5,-31.5 295.5,-31.5 "/>
<text text-anchor="middle" x="175" y="-20.3" font-family="Times,serif" font-size="14.00">empty(X₂)</text>
</a>
</g>
</g>
<!-- c_0_29&#45;&gt;c_0_38 -->
<g id="edge2" class="edge">
<title>c_0_29&#45;&gt;c_0_38</title>
<path fill="none" stroke="black" stroke-dasharray="5,2" d="M175,-308.26C175,-308.26 175,-281.57 175,-281.57"/>
<polygon fill="black" stroke="black" points="178.5,-281.57 175,-271.57 171.5,-281.57 178.5,-281.57"/>
</g>
</g>
</svg>
