<?xml version="1.0" encoding="UTF-8" standalone="no"?>
<!DOCTYPE svg PUBLIC "-//W3C//DTD SVG 1.1//EN"
 "http://www.w3.org/Graphics/SVG/1.1/DTD/svg11.dtd">
<!-- Generated by graphviz version 5.0.0 (0)
 -->
<!-- Title: proof Pages: 1 -->
<svg width="679pt" height="235pt"
 viewBox="0.00 0.00 679.00 235.00" xmlns="http://www.w3.org/2000/svg" xmlns:xlink="http://www.w3.org/1999/xlink">
<g id="graph0" class="graph" transform="scale(1 1) rotate(0) translate(4 231)">
<title>proof</title>
<g id="clust1" class="cluster">
<title>cluster_0</title>
<polygon fill="transparent" stroke="black" stroke-dasharray="1,5" points="286,-142 286,-219 522,-219 522,-142 286,-142"/>
</g>
<g id="clust2" class="cluster">
<title>cluster_1</title>
<polygon fill="transparent" stroke="black" stroke-width="2" points="390,-90 390,-122 460,-122 460,-90 390,-90"/>
</g>
<g id="clust3" class="cluster">
<title>cluster_2</title>
<polygon fill="transparent" stroke="black" stroke-dasharray="1,5" points="8,-8 8,-70 663,-70 663,-8 8,-8"/>
</g>
<!-- c_0_33 -->
<g id="node1" class="node">
<title>c_0_33</title>
<g id="a_node1"><a xlink:href="c_0_33.html" xlink:title="{ℝ ⊆ ℝ}" target="_vizar">
<polygon fill="#f8edd1" stroke="#7f7542" points="468,-173 468,-188 514,-188 514,-173 468,-173"/>
<text text-anchor="middle" x="491" y="-176.8" font-family="Times,serif" font-size="14.00">ℝ ⊆ ℝ</text>
</a>
</g>
</g>
<!-- c_0_69 -->
<g id="node4" class="node">
<title>c_0_69</title>
<g id="a_node4"><a xlink:href="c_0_69.html" xlink:title="{sk₄ ∈ ℝ}" target="_vizar">
<polygon fill="#fa6900" stroke="#7f7542" points="398.5,-98.5 398.5,-113.5 451.5,-113.5 451.5,-98.5 398.5,-98.5"/>
<text text-anchor="middle" x="425" y="-102.3" font-family="Times,serif" font-size="14.00">sk₄ ∈ ℝ</text>
</a>
</g>
</g>
<!-- c_0_33&#45;&gt;c_0_69 -->
<g id="edge1" class="edge">
<title>c_0_33&#45;&gt;c_0_69</title>
<path fill="none" stroke="black" d="M491,-172.74C491,-154.04 491,-108 491,-108 491,-108 461.84,-108 461.84,-108"/>
<polygon fill="black" stroke="black" points="461.84,-104.5 451.84,-108 461.84,-111.5 461.84,-104.5"/>
</g>
<!-- c_0_31 -->
<g id="node2" class="node">
<title>c_0_31</title>
<g id="a_node2"><a xlink:href="c_0_31.html" xlink:title="{X₁ ⊆ ℝ|X₂ ∈ X₁|⇊|X₂ ∈ ℝ}" target="_vizar">
<polygon fill="#f8edd1" stroke="#7f7542" points="400,-150.5 400,-210.5 450,-210.5 450,-150.5 400,-150.5"/>
<text text-anchor="middle" x="425" y="-199.3" font-family="Times,serif" font-size="14.00">X₁ ⊆ ℝ</text>
<polyline fill="none" stroke="#7f7542" points="400,-195.5 450,-195.5 "/>
<text text-anchor="middle" x="425" y="-184.3" font-family="Times,serif" font-size="14.00">X₂ ∈ X₁</text>
<polyline fill="none" stroke="#7f7542" points="400,-180.5 450,-180.5 "/>
<text text-anchor="middle" x="425" y="-169.3" font-family="Times,serif" font-size="14.00">⇊</text>
<polyline fill="none" stroke="#7f7542" points="400,-165.5 450,-165.5 "/>
<text text-anchor="middle" x="425" y="-154.3" font-family="Times,serif" font-size="14.00">X₂ ∈ ℝ</text>
</a>
</g>
</g>
<!-- c_0_31&#45;&gt;c_0_69 -->
<g id="edge2" class="edge">
<title>c_0_31&#45;&gt;c_0_69</title>
<path fill="none" stroke="black" d="M425,-150.2C425,-150.2 425,-123.59 425,-123.59"/>
<polygon fill="black" stroke="black" points="428.5,-123.59 425,-113.59 421.5,-123.59 428.5,-123.59"/>
</g>
<!-- t35_rusub_5 -->
<g id="node3" class="node">
<title>t35_rusub_5</title>
<g id="a_node3"><a xlink:href="t35_rusub_5.html" xlink:title="t35_rusub_5" target="_vizar">
<polygon fill="#fa6900" stroke="#7f7542" points="294,-173 294,-188 382,-188 382,-173 294,-173"/>
<text text-anchor="middle" x="338" y="-176.8" font-family="Times,serif" font-size="14.00">t35_rusub_5</text>
</a>
</g>
</g>
<!-- t35_rusub_5&#45;&gt;c_0_69 -->
<g id="edge3" class="edge">
<title>t35_rusub_5&#45;&gt;c_0_69</title>
<path fill="none" stroke="black" d="M338,-172.74C338,-154.04 338,-108 338,-108 338,-108 388.42,-108 388.42,-108"/>
<polygon fill="black" stroke="black" points="388.42,-111.5 398.42,-108 388.42,-104.5 388.42,-111.5"/>
</g>
<!-- c_0_93 -->
<g id="node5" class="node">
<title>c_0_93</title>
<g id="a_node5"><a xlink:href="c_0_93.html" xlink:title="⊥" target="_vizar">
<polygon fill="#fa6900" stroke="#7f7542" points="641,-31.5 641,-46.5 655,-46.5 655,-31.5 641,-31.5"/>
<text text-anchor="middle" x="648" y="-35.3" font-family="Times,serif" font-size="14.00">⊥</text>
</a>
</g>
</g>
<!-- c_0_69&#45;&gt;c_0_93 -->
<g id="edge4" class="edge">
<title>c_0_69&#45;&gt;c_0_93</title>
<path fill="none" stroke="black" stroke-dasharray="5,2" d="M451.9,-103C511.21,-103 648,-103 648,-103 648,-103 648,-56.85 648,-56.85"/>
<polygon fill="black" stroke="black" points="651.5,-56.85 648,-46.85 644.5,-56.85 651.5,-56.85"/>
</g>
<!-- c_0_85 -->
<g id="node6" class="node">
<title>c_0_85</title>
<g id="a_node6"><a xlink:href="c_0_85.html" xlink:title="{&#45;(sk₄,dist(sk₁,sk₂,sk₃)) ∈ ℝ|⇊|&#45;(sk₄,dist(sk₁,sk₂,sk₃)) ≤ 0}" target="_vizar">
<polygon fill="#fa6900" stroke="#7f7542" points="441,-16.5 441,-61.5 623,-61.5 623,-16.5 441,-16.5"/>
<text text-anchor="middle" x="532" y="-50.3" font-family="Times,serif" font-size="14.00">&#45;(sk₄,dist(sk₁,sk₂,sk₃)) ∈ ℝ</text>
<polyline fill="none" stroke="#7f7542" points="441,-46.5 623,-46.5 "/>
<text text-anchor="middle" x="532" y="-35.3" font-family="Times,serif" font-size="14.00">⇊</text>
<polyline fill="none" stroke="#7f7542" points="441,-31.5 623,-31.5 "/>
<text text-anchor="middle" x="532" y="-20.3" font-family="Times,serif" font-size="14.00">&#45;(sk₄,dist(sk₁,sk₂,sk₃)) ≤ 0</text>
</a>
</g>
</g>
<!-- c_0_69&#45;&gt;c_0_85 -->
<g id="edge5" class="edge">
<title>c_0_69&#45;&gt;c_0_85</title>
<path fill="none" stroke="black" stroke-dasharray="5,2" d="M446.25,-98.31C446.25,-98.31 446.25,-71.76 446.25,-71.76"/>
<polygon fill="black" stroke="black" points="449.75,-71.76 446.25,-61.76 442.75,-71.76 449.75,-71.76"/>
</g>
<!-- c_0_90 -->
<g id="node7" class="node">
<title>c_0_90</title>
<g id="a_node7"><a xlink:href="c_0_90.html" xlink:title="{¬ (&#45;(sk₄,dist(sk₁,sk₂,sk₃)) ∈ ℝ)}" target="_vizar">
<polygon fill="#fa6900" stroke="#7f7542" points="213.5,-31.5 213.5,-46.5 422.5,-46.5 422.5,-31.5 213.5,-31.5"/>
<text text-anchor="middle" x="318" y="-35.3" font-family="Times,serif" font-size="14.00">¬ (&#45;(sk₄,dist(sk₁,sk₂,sk₃)) ∈ ℝ)</text>
</a>
</g>
</g>
<!-- c_0_69&#45;&gt;c_0_90 -->
<g id="edge6" class="edge">
<title>c_0_69&#45;&gt;c_0_90</title>
<path fill="none" stroke="black" stroke-dasharray="5,2" d="M410.5,-98.31C410.5,-98.31 410.5,-56.6 410.5,-56.6"/>
<polygon fill="black" stroke="black" points="414,-56.6 410.5,-46.6 407,-56.6 414,-56.6"/>
</g>
<!-- c_0_87 -->
<g id="node8" class="node">
<title>c_0_87</title>
<g id="a_node8"><a xlink:href="c_0_87.html" xlink:title="{¬ (sk₄ ≤ dist(sk₁,sk₂,sk₃))}" target="_vizar">
<polygon fill="#fa6900" stroke="#7f7542" points="16.5,-31.5 16.5,-46.5 195.5,-46.5 195.5,-31.5 16.5,-31.5"/>
<text text-anchor="middle" x="106" y="-35.3" font-family="Times,serif" font-size="14.00">¬ (sk₄ ≤ dist(sk₁,sk₂,sk₃))</text>
</a>
</g>
</g>
<!-- c_0_69&#45;&gt;c_0_87 -->
<g id="edge7" class="edge">
<title>c_0_69&#45;&gt;c_0_87</title>
<path fill="none" stroke="black" stroke-dasharray="5,2" d="M398.35,-103C321.68,-103 106,-103 106,-103 106,-103 106,-56.85 106,-56.85"/>
<polygon fill="black" stroke="black" points="109.5,-56.85 106,-46.85 102.5,-56.85 109.5,-56.85"/>
</g>
</g>
</svg>
