<?xml version="1.0" encoding="UTF-8" standalone="no"?>
<!DOCTYPE svg PUBLIC "-//W3C//DTD SVG 1.1//EN"
 "http://www.w3.org/Graphics/SVG/1.1/DTD/svg11.dtd">
<!-- Generated by graphviz version 5.0.0 (0)
 -->
<!-- Title: proof Pages: 1 -->
<svg width="282pt" height="430pt"
 viewBox="0.00 0.00 282.00 430.00" xmlns="http://www.w3.org/2000/svg" xmlns:xlink="http://www.w3.org/1999/xlink">
<g id="graph0" class="graph" transform="scale(1 1) rotate(0) translate(4 426)">
<title>proof</title>
<g id="clust1" class="cluster">
<title>cluster_0</title>
<polygon fill="transparent" stroke="black" stroke-dasharray="1,5" points="50,-382 50,-414 224,-414 224,-382 50,-382"/>
</g>
<g id="clust2" class="cluster">
<title>cluster_1</title>
<polygon fill="transparent" stroke="black" stroke-width="2" points="66,-300 66,-362 208,-362 208,-300 66,-300"/>
</g>
<g id="clust3" class="cluster">
<title>cluster_2</title>
<polygon fill="transparent" stroke="black" stroke-dasharray="1,5" points="8,-8 8,-280 266,-280 266,-8 8,-8"/>
</g>
<!-- redefinition_k7_real_1 -->
<g id="node1" class="node">
<title>redefinition_k7_real_1</title>
<g id="a_node1"><a xlink:href="redefinition_k7_real_1.html" xlink:title="redefinition_k7_real_1" target="_parent">
<polygon fill="#69d2e7" stroke="#7f7542" points="58.5,-390.5 58.5,-405.5 215.5,-405.5 215.5,-390.5 58.5,-390.5"/>
<text text-anchor="middle" x="137" y="-394.3" font-family="Times,serif" font-size="14.00">redefinition_k7_real_1</text>
</a>
</g>
</g>
<!-- c_0_39 -->
<g id="node2" class="node">
<title>c_0_39</title>
<g id="a_node2"><a xlink:href="c_0_39.html" xlink:title="{X₁ ∈ ℝ|⇊|X₁ + R₂ = X₁ + R₂}" target="_parent">
<polygon fill="#f8edd1" stroke="#7f7542" points="74.5,-308.5 74.5,-353.5 199.5,-353.5 199.5,-308.5 74.5,-308.5"/>
<text text-anchor="middle" x="137" y="-342.3" font-family="Times,serif" font-size="14.00">X₁ ∈ ℝ</text>
<polyline fill="none" stroke="#7f7542" points="74.5,-338.5 199.5,-338.5 "/>
<text text-anchor="middle" x="137" y="-327.3" font-family="Times,serif" font-size="14.00">⇊</text>
<polyline fill="none" stroke="#7f7542" points="74.5,-323.5 199.5,-323.5 "/>
<text text-anchor="middle" x="137" y="-312.3" font-family="Times,serif" font-size="14.00">X₁ + R₂ = X₁ + R₂</text>
</a>
</g>
</g>
<!-- redefinition_k7_real_1&#45;&gt;c_0_39 -->
<g id="edge1" class="edge">
<title>redefinition_k7_real_1&#45;&gt;c_0_39</title>
<path fill="none" stroke="black" d="M137,-390.31C137,-390.31 137,-363.76 137,-363.76"/>
<polygon fill="black" stroke="black" points="140.5,-363.76 137,-353.76 133.5,-363.76 140.5,-363.76"/>
</g>
<!-- c_0_38 -->
<g id="node3" class="node">
<title>c_0_38</title>
<g id="a_node3"><a xlink:href="c_0_38.html" xlink:title="{Abelian(X₂)|E₁ ≤ dist(X₂,X₃,X₅)|RealUnitarySpace&#45;like(X₂)|UNITSTR(X₂)|X₃ ∈ carrier(X₂)|X₄ ∈ carrier(X₂)|X₅ ∈ carrier(X₂)|add&#45;associative(X₂)|right_complementable(X₂)|right_zeroed(X₂)|scalar&#45;associative(X₂)|scalar&#45;distributive(X₂)|scalar&#45;unital(X₂)|vector&#45;distributive(X₂)|⇊|E₁ ≤ dist(X₂,X₃,X₄) + dist(X₂,X₄,X₅)|empty(X₂)}" target="_parent">
<polygon fill="#f8edd1" stroke="#7f7542" points="16.5,-16.5 16.5,-271.5 257.5,-271.5 257.5,-16.5 16.5,-16.5"/>
<text text-anchor="middle" x="137" y="-260.3" font-family="Times,serif" font-size="14.00">Abelian(X₂)</text>
<polyline fill="none" stroke="#7f7542" points="16.5,-256.5 257.5,-256.5 "/>
<text text-anchor="middle" x="137" y="-245.3" font-family="Times,serif" font-size="14.00">E₁ ≤ dist(X₂,X₃,X₅)</text>
<polyline fill="none" stroke="#7f7542" points="16.5,-241.5 257.5,-241.5 "/>
<text text-anchor="middle" x="137" y="-230.3" font-family="Times,serif" font-size="14.00">RealUnitarySpace&#45;like(X₂)</text>
<polyline fill="none" stroke="#7f7542" points="16.5,-226.5 257.5,-226.5 "/>
<text text-anchor="middle" x="137" y="-215.3" font-family="Times,serif" font-size="14.00">UNITSTR(X₂)</text>
<polyline fill="none" stroke="#7f7542" points="16.5,-211.5 257.5,-211.5 "/>
<text text-anchor="middle" x="137" y="-200.3" font-family="Times,serif" font-size="14.00">X₃ ∈ carrier(X₂)</text>
<polyline fill="none" stroke="#7f7542" points="16.5,-196.5 257.5,-196.5 "/>
<text text-anchor="middle" x="137" y="-185.3" font-family="Times,serif" font-size="14.00">X₄ ∈ carrier(X₂)</text>
<polyline fill="none" stroke="#7f7542" points="16.5,-181.5 257.5,-181.5 "/>
<text text-anchor="middle" x="137" y="-170.3" font-family="Times,serif" font-size="14.00">X₅ ∈ carrier(X₂)</text>
<polyline fill="none" stroke="#7f7542" points="16.5,-166.5 257.5,-166.5 "/>
<text text-anchor="middle" x="137" y="-155.3" font-family="Times,serif" font-size="14.00">add&#45;associative(X₂)</text>
<polyline fill="none" stroke="#7f7542" points="16.5,-151.5 257.5,-151.5 "/>
<text text-anchor="middle" x="137" y="-140.3" font-family="Times,serif" font-size="14.00">right_complementable(X₂)</text>
<polyline fill="none" stroke="#7f7542" points="16.5,-136.5 257.5,-136.5 "/>
<text text-anchor="middle" x="137" y="-125.3" font-family="Times,serif" font-size="14.00">right_zeroed(X₂)</text>
<polyline fill="none" stroke="#7f7542" points="16.5,-121.5 257.5,-121.5 "/>
<text text-anchor="middle" x="137" y="-110.3" font-family="Times,serif" font-size="14.00">scalar&#45;associative(X₂)</text>
<polyline fill="none" stroke="#7f7542" points="16.5,-106.5 257.5,-106.5 "/>
<text text-anchor="middle" x="137" y="-95.3" font-family="Times,serif" font-size="14.00">scalar&#45;distributive(X₂)</text>
<polyline fill="none" stroke="#7f7542" points="16.5,-91.5 257.5,-91.5 "/>
<text text-anchor="middle" x="137" y="-80.3" font-family="Times,serif" font-size="14.00">scalar&#45;unital(X₂)</text>
<polyline fill="none" stroke="#7f7542" points="16.5,-76.5 257.5,-76.5 "/>
<text text-anchor="middle" x="137" y="-65.3" font-family="Times,serif" font-size="14.00">vector&#45;distributive(X₂)</text>
<polyline fill="none" stroke="#7f7542" points="16.5,-61.5 257.5,-61.5 "/>
<text text-anchor="middle" x="137" y="-50.3" font-family="Times,serif" font-size="14.00">⇊</text>
<polyline fill="none" stroke="#7f7542" points="16.5,-46.5 257.5,-46.5 "/>
<text text-anchor="middle" x="137" y="-35.3" font-family="Times,serif" font-size="14.00">E₁ ≤ dist(X₂,X₃,X₄) + dist(X₂,X₄,X₅)</text>
<polyline fill="none" stroke="#7f7542" points="16.5,-31.5 257.5,-31.5 "/>
<text text-anchor="middle" x="137" y="-20.3" font-family="Times,serif" font-size="14.00">empty(X₂)</text>
</a>
</g>
</g>
<!-- c_0_39&#45;&gt;c_0_38 -->
<g id="edge2" class="edge">
<title>c_0_39&#45;&gt;c_0_38</title>
<path fill="none" stroke="black" stroke-dasharray="5,2" d="M137,-308.44C137,-308.44 137,-281.6 137,-281.6"/>
<polygon fill="black" stroke="black" points="140.5,-281.6 137,-271.6 133.5,-281.6 140.5,-281.6"/>
</g>
</g>
</svg>
