<?xml version="1.0" encoding="UTF-8" standalone="no"?>
<!DOCTYPE svg PUBLIC "-//W3C//DTD SVG 1.1//EN"
 "http://www.w3.org/Graphics/SVG/1.1/DTD/svg11.dtd">
<!-- Generated by graphviz version 5.0.0 (0)
 -->
<!-- Title: proof Pages: 1 -->
<svg width="276pt" height="235pt"
 viewBox="0.00 0.00 276.00 235.00" xmlns="http://www.w3.org/2000/svg" xmlns:xlink="http://www.w3.org/1999/xlink">
<g id="graph0" class="graph" transform="scale(1 1) rotate(0) translate(4 231)">
<title>proof</title>
<g id="clust1" class="cluster">
<title>cluster_0</title>
<polygon fill="transparent" stroke="black" stroke-dasharray="1,5" points="82,-187 82,-219 186,-219 186,-187 82,-187"/>
</g>
<g id="clust2" class="cluster">
<title>cluster_1</title>
<polygon fill="transparent" stroke="black" stroke-width="2" points="8,-90 8,-167 260,-167 260,-90 8,-90"/>
</g>
<g id="clust3" class="cluster">
<title>cluster_2</title>
<polygon fill="transparent" stroke="black" stroke-dasharray="1,5" points="35,-8 35,-70 233,-70 233,-8 35,-8"/>
</g>
<!-- t35_rusub_5 -->
<g id="node1" class="node">
<title>t35_rusub_5</title>
<g id="a_node1"><a xlink:href="t35_rusub_5.html" xlink:title="t35_rusub_5" target="_parent">
<polygon fill="#fa6900" stroke="#7f7542" points="90,-195.5 90,-210.5 178,-210.5 178,-195.5 90,-195.5"/>
<text text-anchor="middle" x="134" y="-199.3" font-family="Times,serif" font-size="14.00">t35_rusub_5</text>
</a>
</g>
</g>
<!-- c_0_65 -->
<g id="node2" class="node">
<title>c_0_65</title>
<g id="a_node2"><a xlink:href="c_0_65.html" xlink:title="{Ball(sk₁,sk₃,X₁) ⊆ Ball(sk₁,sk₂,sk₄)|X₁ ∈ ℝ|⇊|X₁ ≤ 0}" target="_parent">
<polygon fill="#fa6900" stroke="#7f7542" points="16,-98.5 16,-158.5 252,-158.5 252,-98.5 16,-98.5"/>
<text text-anchor="middle" x="134" y="-147.3" font-family="Times,serif" font-size="14.00">Ball(sk₁,sk₃,X₁) ⊆ Ball(sk₁,sk₂,sk₄)</text>
<polyline fill="none" stroke="#7f7542" points="16,-143.5 252,-143.5 "/>
<text text-anchor="middle" x="134" y="-132.3" font-family="Times,serif" font-size="14.00">X₁ ∈ ℝ</text>
<polyline fill="none" stroke="#7f7542" points="16,-128.5 252,-128.5 "/>
<text text-anchor="middle" x="134" y="-117.3" font-family="Times,serif" font-size="14.00">⇊</text>
<polyline fill="none" stroke="#7f7542" points="16,-113.5 252,-113.5 "/>
<text text-anchor="middle" x="134" y="-102.3" font-family="Times,serif" font-size="14.00">X₁ ≤ 0</text>
</a>
</g>
</g>
<!-- t35_rusub_5&#45;&gt;c_0_65 -->
<g id="edge1" class="edge">
<title>t35_rusub_5&#45;&gt;c_0_65</title>
<path fill="none" stroke="black" d="M134,-195.31C134,-195.31 134,-168.51 134,-168.51"/>
<polygon fill="black" stroke="black" points="137.5,-168.51 134,-158.51 130.5,-168.51 137.5,-168.51"/>
</g>
<!-- c_0_85 -->
<g id="node3" class="node">
<title>c_0_85</title>
<g id="a_node3"><a xlink:href="c_0_85.html" xlink:title="{&#45;(sk₄,dist(sk₁,sk₂,sk₃)) ∈ ℝ|⇊|&#45;(sk₄,dist(sk₁,sk₂,sk₃)) ≤ 0}" target="_parent">
<polygon fill="#fa6900" stroke="#7f7542" points="43,-16.5 43,-61.5 225,-61.5 225,-16.5 43,-16.5"/>
<text text-anchor="middle" x="134" y="-50.3" font-family="Times,serif" font-size="14.00">&#45;(sk₄,dist(sk₁,sk₂,sk₃)) ∈ ℝ</text>
<polyline fill="none" stroke="#7f7542" points="43,-46.5 225,-46.5 "/>
<text text-anchor="middle" x="134" y="-35.3" font-family="Times,serif" font-size="14.00">⇊</text>
<polyline fill="none" stroke="#7f7542" points="43,-31.5 225,-31.5 "/>
<text text-anchor="middle" x="134" y="-20.3" font-family="Times,serif" font-size="14.00">&#45;(sk₄,dist(sk₁,sk₂,sk₃)) ≤ 0</text>
</a>
</g>
</g>
<!-- c_0_65&#45;&gt;c_0_85 -->
<g id="edge2" class="edge">
<title>c_0_65&#45;&gt;c_0_85</title>
<path fill="none" stroke="black" stroke-dasharray="5,2" d="M134,-98.2C134,-98.2 134,-71.63 134,-71.63"/>
<polygon fill="black" stroke="black" points="137.5,-71.63 134,-61.63 130.5,-71.63 137.5,-71.63"/>
</g>
</g>
</svg>
