<?xml version="1.0" encoding="UTF-8" standalone="no"?>
<!DOCTYPE svg PUBLIC "-//W3C//DTD SVG 1.1//EN"
 "http://www.w3.org/Graphics/SVG/1.1/DTD/svg11.dtd">
<!-- Generated by graphviz version 5.0.0 (0)
 -->
<!-- Title: proof Pages: 1 -->
<svg width="316pt" height="490pt"
 viewBox="0.00 0.00 316.00 490.00" xmlns="http://www.w3.org/2000/svg" xmlns:xlink="http://www.w3.org/1999/xlink">
<g id="graph0" class="graph" transform="scale(1 1) rotate(0) translate(4 486)">
<title>proof</title>
<g id="clust1" class="cluster">
<title>cluster_0</title>
<polygon fill="transparent" stroke="black" stroke-dasharray="1,5" points="103,-442 103,-474 205,-474 205,-442 103,-442"/>
</g>
<g id="clust2" class="cluster">
<title>cluster_1</title>
<polygon fill="transparent" stroke="black" stroke-width="2" points="85,-330 85,-422 223,-422 223,-330 85,-330"/>
</g>
<g id="clust3" class="cluster">
<title>cluster_2</title>
<polygon fill="transparent" stroke="black" stroke-dasharray="1,5" points="8,-8 8,-310 300,-310 300,-8 8,-8"/>
</g>
<!-- t2_subset_1 -->
<g id="node1" class="node">
<title>t2_subset_1</title>
<g id="a_node1"><a xlink:href="t2_subset_1.html" xlink:title="t2_subset_1" target="_vizar">
<polygon fill="#69d2e7" stroke="#7f7542" points="111.5,-450.5 111.5,-465.5 196.5,-465.5 196.5,-450.5 111.5,-450.5"/>
<text text-anchor="middle" x="154" y="-454.3" font-family="Times,serif" font-size="14.00">t2_subset_1</text>
</a>
</g>
</g>
<!-- c_0_52 -->
<g id="node2" class="node">
<title>c_0_52</title>
<g id="a_node2"><a xlink:href="c_0_52.html" xlink:title="{X₂ ∈ bool(X₁)|X₃ ∈ bool(X₁)|sk₅(X₁,X₂,X₃) ∈ X₃|⇊|X₂ ⊆ X₃}" target="_vizar">
<polygon fill="#f8edd1" stroke="#7f7542" points="93.5,-338.5 93.5,-413.5 214.5,-413.5 214.5,-338.5 93.5,-338.5"/>
<text text-anchor="middle" x="154" y="-402.3" font-family="Times,serif" font-size="14.00">X₂ ∈ bool(X₁)</text>
<polyline fill="none" stroke="#7f7542" points="93.5,-398.5 214.5,-398.5 "/>
<text text-anchor="middle" x="154" y="-387.3" font-family="Times,serif" font-size="14.00">X₃ ∈ bool(X₁)</text>
<polyline fill="none" stroke="#7f7542" points="93.5,-383.5 214.5,-383.5 "/>
<text text-anchor="middle" x="154" y="-372.3" font-family="Times,serif" font-size="14.00">sk₅(X₁,X₂,X₃) ∈ X₃</text>
<polyline fill="none" stroke="#7f7542" points="93.5,-368.5 214.5,-368.5 "/>
<text text-anchor="middle" x="154" y="-357.3" font-family="Times,serif" font-size="14.00">⇊</text>
<polyline fill="none" stroke="#7f7542" points="93.5,-353.5 214.5,-353.5 "/>
<text text-anchor="middle" x="154" y="-342.3" font-family="Times,serif" font-size="14.00">X₂ ⊆ X₃</text>
</a>
</g>
</g>
<!-- t2_subset_1&#45;&gt;c_0_52 -->
<g id="edge1" class="edge">
<title>t2_subset_1&#45;&gt;c_0_52</title>
<path fill="none" stroke="black" d="M154,-450.43C154,-450.43 154,-423.67 154,-423.67"/>
<polygon fill="black" stroke="black" points="157.5,-423.67 154,-413.67 150.5,-423.67 157.5,-423.67"/>
</g>
<!-- c_0_56 -->
<g id="node3" class="node">
<title>c_0_56</title>
<g id="a_node3"><a xlink:href="c_0_56.html" xlink:title="{Abelian(X₂)|Ball(X₂,X₃,X₄) ∈ bool(X₅)|RealUnitarySpace&#45;like(X₂)|UNITSTR(X₂)|X₁ ∈ bool(X₅)|X₃ ∈ carrier(X₂)|X₄ ∈ ℝ|add&#45;associative(X₂)|right_complementable(X₂)|right_zeroed(X₂)|scalar&#45;associative(X₂)|scalar&#45;distributive(X₂)|scalar&#45;unital(X₂)|sk₅(X₅,X₁,Ball(X₂,X₃,X₄)) ∈ carrier(X₂)|vector&#45;distributive(X₂)|⇊|X₁ ⊆ Ball(X₂,X₃,X₄)|X₄ ≤ dist(X₂,X₃,sk₅(X₅,X₁,Ball(X₂,X₃,X₄)))|empty(X₂)}" target="_vizar">
<polygon fill="#f8edd1" stroke="#7f7542" points="16,-16.5 16,-301.5 292,-301.5 292,-16.5 16,-16.5"/>
<text text-anchor="middle" x="154" y="-290.3" font-family="Times,serif" font-size="14.00">Abelian(X₂)</text>
<polyline fill="none" stroke="#7f7542" points="16,-286.5 292,-286.5 "/>
<text text-anchor="middle" x="154" y="-275.3" font-family="Times,serif" font-size="14.00">Ball(X₂,X₃,X₄) ∈ bool(X₅)</text>
<polyline fill="none" stroke="#7f7542" points="16,-271.5 292,-271.5 "/>
<text text-anchor="middle" x="154" y="-260.3" font-family="Times,serif" font-size="14.00">RealUnitarySpace&#45;like(X₂)</text>
<polyline fill="none" stroke="#7f7542" points="16,-256.5 292,-256.5 "/>
<text text-anchor="middle" x="154" y="-245.3" font-family="Times,serif" font-size="14.00">UNITSTR(X₂)</text>
<polyline fill="none" stroke="#7f7542" points="16,-241.5 292,-241.5 "/>
<text text-anchor="middle" x="154" y="-230.3" font-family="Times,serif" font-size="14.00">X₁ ∈ bool(X₅)</text>
<polyline fill="none" stroke="#7f7542" points="16,-226.5 292,-226.5 "/>
<text text-anchor="middle" x="154" y="-215.3" font-family="Times,serif" font-size="14.00">X₃ ∈ carrier(X₂)</text>
<polyline fill="none" stroke="#7f7542" points="16,-211.5 292,-211.5 "/>
<text text-anchor="middle" x="154" y="-200.3" font-family="Times,serif" font-size="14.00">X₄ ∈ ℝ</text>
<polyline fill="none" stroke="#7f7542" points="16,-196.5 292,-196.5 "/>
<text text-anchor="middle" x="154" y="-185.3" font-family="Times,serif" font-size="14.00">add&#45;associative(X₂)</text>
<polyline fill="none" stroke="#7f7542" points="16,-181.5 292,-181.5 "/>
<text text-anchor="middle" x="154" y="-170.3" font-family="Times,serif" font-size="14.00">right_complementable(X₂)</text>
<polyline fill="none" stroke="#7f7542" points="16,-166.5 292,-166.5 "/>
<text text-anchor="middle" x="154" y="-155.3" font-family="Times,serif" font-size="14.00">right_zeroed(X₂)</text>
<polyline fill="none" stroke="#7f7542" points="16,-151.5 292,-151.5 "/>
<text text-anchor="middle" x="154" y="-140.3" font-family="Times,serif" font-size="14.00">scalar&#45;associative(X₂)</text>
<polyline fill="none" stroke="#7f7542" points="16,-136.5 292,-136.5 "/>
<text text-anchor="middle" x="154" y="-125.3" font-family="Times,serif" font-size="14.00">scalar&#45;distributive(X₂)</text>
<polyline fill="none" stroke="#7f7542" points="16,-121.5 292,-121.5 "/>
<text text-anchor="middle" x="154" y="-110.3" font-family="Times,serif" font-size="14.00">scalar&#45;unital(X₂)</text>
<polyline fill="none" stroke="#7f7542" points="16,-106.5 292,-106.5 "/>
<text text-anchor="middle" x="154" y="-95.3" font-family="Times,serif" font-size="14.00">sk₅(X₅,X₁,Ball(X₂,X₃,X₄)) ∈ carrier(X₂)</text>
<polyline fill="none" stroke="#7f7542" points="16,-91.5 292,-91.5 "/>
<text text-anchor="middle" x="154" y="-80.3" font-family="Times,serif" font-size="14.00">vector&#45;distributive(X₂)</text>
<polyline fill="none" stroke="#7f7542" points="16,-76.5 292,-76.5 "/>
<text text-anchor="middle" x="154" y="-65.3" font-family="Times,serif" font-size="14.00">⇊</text>
<polyline fill="none" stroke="#7f7542" points="16,-61.5 292,-61.5 "/>
<text text-anchor="middle" x="154" y="-50.3" font-family="Times,serif" font-size="14.00">X₁ ⊆ Ball(X₂,X₃,X₄)</text>
<polyline fill="none" stroke="#7f7542" points="16,-46.5 292,-46.5 "/>
<text text-anchor="middle" x="154" y="-35.3" font-family="Times,serif" font-size="14.00">X₄ ≤ dist(X₂,X₃,sk₅(X₅,X₁,Ball(X₂,X₃,X₄)))</text>
<polyline fill="none" stroke="#7f7542" points="16,-31.5 292,-31.5 "/>
<text text-anchor="middle" x="154" y="-20.3" font-family="Times,serif" font-size="14.00">empty(X₂)</text>
</a>
</g>
</g>
<!-- c_0_52&#45;&gt;c_0_56 -->
<g id="edge2" class="edge">
<title>c_0_52&#45;&gt;c_0_56</title>
<path fill="none" stroke="black" stroke-dasharray="5,2" d="M154,-338.2C154,-338.2 154,-311.71 154,-311.71"/>
<polygon fill="black" stroke="black" points="157.5,-311.71 154,-301.71 150.5,-311.71 157.5,-311.71"/>
</g>
</g>
</svg>
