<?xml version="1.0" encoding="UTF-8" standalone="no"?>
<!DOCTYPE svg PUBLIC "-//W3C//DTD SVG 1.1//EN"
 "http://www.w3.org/Graphics/SVG/1.1/DTD/svg11.dtd">
<!-- Generated by graphviz version 5.0.0 (0)
 -->
<!-- Title: proof Pages: 1 -->
<svg width="311pt" height="370pt"
 viewBox="0.00 0.00 311.00 370.00" xmlns="http://www.w3.org/2000/svg" xmlns:xlink="http://www.w3.org/1999/xlink">
<g id="graph0" class="graph" transform="scale(1 1) rotate(0) translate(4 366)">
<title>proof</title>
<g id="clust1" class="cluster">
<title>cluster_0</title>
<polygon fill="transparent" stroke="black" stroke-dasharray="1,5" points="8,-322 8,-354 130,-354 130,-322 8,-322"/>
</g>
<g id="clust2" class="cluster">
<title>cluster_1</title>
<polygon fill="transparent" stroke="black" stroke-width="2" points="38,-270 38,-302 100,-302 100,-270 38,-270"/>
</g>
<g id="clust3" class="cluster">
<title>cluster_2</title>
<polygon fill="transparent" stroke="black" stroke-dasharray="1,5" points="21,-8 21,-250 295,-250 295,-8 21,-8"/>
</g>
<!-- fc3_membered -->
<g id="node1" class="node">
<title>fc3_membered</title>
<g id="a_node1"><a xlink:href="fc3_membered.html" xlink:title="fc3_membered" target="_vizar">
<polygon fill="#69d2e7" stroke="#7f7542" points="16,-330.5 16,-345.5 122,-345.5 122,-330.5 16,-330.5"/>
<text text-anchor="middle" x="69" y="-334.3" font-family="Times,serif" font-size="14.00">fc3_membered</text>
</a>
</g>
</g>
<!-- c_0_33 -->
<g id="node2" class="node">
<title>c_0_33</title>
<g id="a_node2"><a xlink:href="c_0_33.html" xlink:title="{ℝ ⊆ ℝ}" target="_vizar">
<polygon fill="#f8edd1" stroke="#7f7542" points="46,-278.5 46,-293.5 92,-293.5 92,-278.5 46,-278.5"/>
<text text-anchor="middle" x="69" y="-282.3" font-family="Times,serif" font-size="14.00">ℝ ⊆ ℝ</text>
</a>
</g>
</g>
<!-- fc3_membered&#45;&gt;c_0_33 -->
<g id="edge1" class="edge">
<title>fc3_membered&#45;&gt;c_0_33</title>
<path fill="none" stroke="black" d="M69,-330.33C69,-330.33 69,-303.7 69,-303.7"/>
<polygon fill="black" stroke="black" points="72.5,-303.7 69,-293.7 65.5,-303.7 72.5,-303.7"/>
</g>
<!-- c_0_32 -->
<g id="node3" class="node">
<title>c_0_32</title>
<g id="a_node3"><a xlink:href="c_0_32.html" xlink:title="{Abelian(X₁)|RealUnitarySpace&#45;like(X₁)|UNITSTR(X₁)|X₂ ∈ carrier(X₁)|X₃ ∈ carrier(X₁)|add&#45;associative(X₁)|right_complementable(X₁)|right_zeroed(X₁)|scalar&#45;associative(X₁)|scalar&#45;distributive(X₁)|scalar&#45;unital(X₁)|vector&#45;distributive(X₁)|⇊|dist(X₁,X₂,X₃) ∈ ℝ|empty(X₁)}" target="_vizar">
<polygon fill="#f8edd1" stroke="#7f7542" points="101,-16.5 101,-241.5 287,-241.5 287,-16.5 101,-16.5"/>
<text text-anchor="middle" x="194" y="-230.3" font-family="Times,serif" font-size="14.00">Abelian(X₁)</text>
<polyline fill="none" stroke="#7f7542" points="101,-226.5 287,-226.5 "/>
<text text-anchor="middle" x="194" y="-215.3" font-family="Times,serif" font-size="14.00">RealUnitarySpace&#45;like(X₁)</text>
<polyline fill="none" stroke="#7f7542" points="101,-211.5 287,-211.5 "/>
<text text-anchor="middle" x="194" y="-200.3" font-family="Times,serif" font-size="14.00">UNITSTR(X₁)</text>
<polyline fill="none" stroke="#7f7542" points="101,-196.5 287,-196.5 "/>
<text text-anchor="middle" x="194" y="-185.3" font-family="Times,serif" font-size="14.00">X₂ ∈ carrier(X₁)</text>
<polyline fill="none" stroke="#7f7542" points="101,-181.5 287,-181.5 "/>
<text text-anchor="middle" x="194" y="-170.3" font-family="Times,serif" font-size="14.00">X₃ ∈ carrier(X₁)</text>
<polyline fill="none" stroke="#7f7542" points="101,-166.5 287,-166.5 "/>
<text text-anchor="middle" x="194" y="-155.3" font-family="Times,serif" font-size="14.00">add&#45;associative(X₁)</text>
<polyline fill="none" stroke="#7f7542" points="101,-151.5 287,-151.5 "/>
<text text-anchor="middle" x="194" y="-140.3" font-family="Times,serif" font-size="14.00">right_complementable(X₁)</text>
<polyline fill="none" stroke="#7f7542" points="101,-136.5 287,-136.5 "/>
<text text-anchor="middle" x="194" y="-125.3" font-family="Times,serif" font-size="14.00">right_zeroed(X₁)</text>
<polyline fill="none" stroke="#7f7542" points="101,-121.5 287,-121.5 "/>
<text text-anchor="middle" x="194" y="-110.3" font-family="Times,serif" font-size="14.00">scalar&#45;associative(X₁)</text>
<polyline fill="none" stroke="#7f7542" points="101,-106.5 287,-106.5 "/>
<text text-anchor="middle" x="194" y="-95.3" font-family="Times,serif" font-size="14.00">scalar&#45;distributive(X₁)</text>
<polyline fill="none" stroke="#7f7542" points="101,-91.5 287,-91.5 "/>
<text text-anchor="middle" x="194" y="-80.3" font-family="Times,serif" font-size="14.00">scalar&#45;unital(X₁)</text>
<polyline fill="none" stroke="#7f7542" points="101,-76.5 287,-76.5 "/>
<text text-anchor="middle" x="194" y="-65.3" font-family="Times,serif" font-size="14.00">vector&#45;distributive(X₁)</text>
<polyline fill="none" stroke="#7f7542" points="101,-61.5 287,-61.5 "/>
<text text-anchor="middle" x="194" y="-50.3" font-family="Times,serif" font-size="14.00">⇊</text>
<polyline fill="none" stroke="#7f7542" points="101,-46.5 287,-46.5 "/>
<text text-anchor="middle" x="194" y="-35.3" font-family="Times,serif" font-size="14.00">dist(X₁,X₂,X₃) ∈ ℝ</text>
<polyline fill="none" stroke="#7f7542" points="101,-31.5 287,-31.5 "/>
<text text-anchor="middle" x="194" y="-20.3" font-family="Times,serif" font-size="14.00">empty(X₁)</text>
</a>
</g>
</g>
<!-- c_0_33&#45;&gt;c_0_32 -->
<g id="edge2" class="edge">
<title>c_0_33&#45;&gt;c_0_32</title>
<path fill="none" stroke="black" stroke-dasharray="5,2" d="M92.24,-286C102.16,-286 111.5,-286 111.5,-286 111.5,-286 111.5,-251.85 111.5,-251.85"/>
<polygon fill="black" stroke="black" points="115,-251.85 111.5,-241.85 108,-251.85 115,-251.85"/>
</g>
<!-- c_0_69 -->
<g id="node4" class="node">
<title>c_0_69</title>
<g id="a_node4"><a xlink:href="c_0_69.html" xlink:title="{sk₄ ∈ ℝ}" target="_vizar">
<polygon fill="#fa6900" stroke="#7f7542" points="29.5,-121.5 29.5,-136.5 82.5,-136.5 82.5,-121.5 29.5,-121.5"/>
<text text-anchor="middle" x="56" y="-125.3" font-family="Times,serif" font-size="14.00">sk₄ ∈ ℝ</text>
</a>
</g>
</g>
<!-- c_0_33&#45;&gt;c_0_69 -->
<g id="edge3" class="edge">
<title>c_0_33&#45;&gt;c_0_69</title>
<path fill="none" stroke="black" stroke-dasharray="5,2" d="M64.25,-278.43C64.25,-278.43 64.25,-146.87 64.25,-146.87"/>
<polygon fill="black" stroke="black" points="67.75,-146.87 64.25,-136.87 60.75,-146.87 67.75,-146.87"/>
</g>
</g>
</svg>
