<?xml version="1.0" encoding="UTF-8" standalone="no"?>
<!DOCTYPE svg PUBLIC "-//W3C//DTD SVG 1.1//EN"
 "http://www.w3.org/Graphics/SVG/1.1/DTD/svg11.dtd">
<!-- Generated by graphviz version 5.0.0 (0)
 -->
<!-- Title: proof Pages: 1 -->
<svg width="603pt" height="700pt"
 viewBox="0.00 0.00 603.00 700.00" xmlns="http://www.w3.org/2000/svg" xmlns:xlink="http://www.w3.org/1999/xlink">
<g id="graph0" class="graph" transform="scale(1 1) rotate(0) translate(4 696)">
<title>proof</title>
<g id="clust1" class="cluster">
<title>cluster_0</title>
<polygon fill="transparent" stroke="black" stroke-dasharray="1,5" points="8,-382 8,-684 587,-684 587,-382 8,-382"/>
</g>
<g id="clust2" class="cluster">
<title>cluster_1</title>
<polygon fill="transparent" stroke="black" stroke-width="2" points="119,-90 119,-362 453,-362 453,-90 119,-90"/>
</g>
<g id="clust3" class="cluster">
<title>cluster_2</title>
<polygon fill="transparent" stroke="black" stroke-dasharray="1,5" points="187,-8 187,-70 385,-70 385,-8 187,-8"/>
</g>
<!-- c_0_58 -->
<g id="node1" class="node">
<title>c_0_58</title>
<g id="a_node1"><a xlink:href="c_0_58.html" xlink:title="{&#45;(X₃,dist(X₁,X₄,X₂)) ∈ ℝ|Abelian(X₁)|Ball(X₁,X₂,&#45;(X₃,dist(X₁,X₄,X₂))) ∈ bool(X₅)|Ball(X₁,X₄,X₃) ∈ bool(X₅)|RealUnitarySpace&#45;like(X₁)|UNITSTR(X₁)|X₂ ∈ carrier(X₁)|X₃ ∈ ℝ|X₄ ∈ carrier(X₁)|add&#45;associative(X₁)|right_complementable(X₁)|right_zeroed(X₁)|scalar&#45;associative(X₁)|scalar&#45;distributive(X₁)|scalar&#45;unital(X₁)|vector&#45;distributive(X₁)|⇊|Ball(X₁,X₂,&#45;(X₃,dist(X₁,X₄,X₂))) ⊆ Ball(X₁,X₄,X₃)|empty(X₁)}" target="_vizar">
<polygon fill="#f8edd1" stroke="#7f7542" points="261.5,-390.5 261.5,-675.5 578.5,-675.5 578.5,-390.5 261.5,-390.5"/>
<text text-anchor="middle" x="420" y="-664.3" font-family="Times,serif" font-size="14.00">&#45;(X₃,dist(X₁,X₄,X₂)) ∈ ℝ</text>
<polyline fill="none" stroke="#7f7542" points="261.5,-660.5 578.5,-660.5 "/>
<text text-anchor="middle" x="420" y="-649.3" font-family="Times,serif" font-size="14.00">Abelian(X₁)</text>
<polyline fill="none" stroke="#7f7542" points="261.5,-645.5 578.5,-645.5 "/>
<text text-anchor="middle" x="420" y="-634.3" font-family="Times,serif" font-size="14.00">Ball(X₁,X₂,&#45;(X₃,dist(X₁,X₄,X₂))) ∈ bool(X₅)</text>
<polyline fill="none" stroke="#7f7542" points="261.5,-630.5 578.5,-630.5 "/>
<text text-anchor="middle" x="420" y="-619.3" font-family="Times,serif" font-size="14.00">Ball(X₁,X₄,X₃) ∈ bool(X₅)</text>
<polyline fill="none" stroke="#7f7542" points="261.5,-615.5 578.5,-615.5 "/>
<text text-anchor="middle" x="420" y="-604.3" font-family="Times,serif" font-size="14.00">RealUnitarySpace&#45;like(X₁)</text>
<polyline fill="none" stroke="#7f7542" points="261.5,-600.5 578.5,-600.5 "/>
<text text-anchor="middle" x="420" y="-589.3" font-family="Times,serif" font-size="14.00">UNITSTR(X₁)</text>
<polyline fill="none" stroke="#7f7542" points="261.5,-585.5 578.5,-585.5 "/>
<text text-anchor="middle" x="420" y="-574.3" font-family="Times,serif" font-size="14.00">X₂ ∈ carrier(X₁)</text>
<polyline fill="none" stroke="#7f7542" points="261.5,-570.5 578.5,-570.5 "/>
<text text-anchor="middle" x="420" y="-559.3" font-family="Times,serif" font-size="14.00">X₃ ∈ ℝ</text>
<polyline fill="none" stroke="#7f7542" points="261.5,-555.5 578.5,-555.5 "/>
<text text-anchor="middle" x="420" y="-544.3" font-family="Times,serif" font-size="14.00">X₄ ∈ carrier(X₁)</text>
<polyline fill="none" stroke="#7f7542" points="261.5,-540.5 578.5,-540.5 "/>
<text text-anchor="middle" x="420" y="-529.3" font-family="Times,serif" font-size="14.00">add&#45;associative(X₁)</text>
<polyline fill="none" stroke="#7f7542" points="261.5,-525.5 578.5,-525.5 "/>
<text text-anchor="middle" x="420" y="-514.3" font-family="Times,serif" font-size="14.00">right_complementable(X₁)</text>
<polyline fill="none" stroke="#7f7542" points="261.5,-510.5 578.5,-510.5 "/>
<text text-anchor="middle" x="420" y="-499.3" font-family="Times,serif" font-size="14.00">right_zeroed(X₁)</text>
<polyline fill="none" stroke="#7f7542" points="261.5,-495.5 578.5,-495.5 "/>
<text text-anchor="middle" x="420" y="-484.3" font-family="Times,serif" font-size="14.00">scalar&#45;associative(X₁)</text>
<polyline fill="none" stroke="#7f7542" points="261.5,-480.5 578.5,-480.5 "/>
<text text-anchor="middle" x="420" y="-469.3" font-family="Times,serif" font-size="14.00">scalar&#45;distributive(X₁)</text>
<polyline fill="none" stroke="#7f7542" points="261.5,-465.5 578.5,-465.5 "/>
<text text-anchor="middle" x="420" y="-454.3" font-family="Times,serif" font-size="14.00">scalar&#45;unital(X₁)</text>
<polyline fill="none" stroke="#7f7542" points="261.5,-450.5 578.5,-450.5 "/>
<text text-anchor="middle" x="420" y="-439.3" font-family="Times,serif" font-size="14.00">vector&#45;distributive(X₁)</text>
<polyline fill="none" stroke="#7f7542" points="261.5,-435.5 578.5,-435.5 "/>
<text text-anchor="middle" x="420" y="-424.3" font-family="Times,serif" font-size="14.00">⇊</text>
<polyline fill="none" stroke="#7f7542" points="261.5,-420.5 578.5,-420.5 "/>
<text text-anchor="middle" x="420" y="-409.3" font-family="Times,serif" font-size="14.00">Ball(X₁,X₂,&#45;(X₃,dist(X₁,X₄,X₂))) ⊆ Ball(X₁,X₄,X₃)</text>
<polyline fill="none" stroke="#7f7542" points="261.5,-405.5 578.5,-405.5 "/>
<text text-anchor="middle" x="420" y="-394.3" font-family="Times,serif" font-size="14.00">empty(X₁)</text>
</a>
</g>
</g>
<!-- c_0_66 -->
<g id="node3" class="node">
<title>c_0_66</title>
<g id="a_node3"><a xlink:href="c_0_66.html" xlink:title="{&#45;(X₃,dist(X₁,X₄,X₂)) ∈ ℝ|Abelian(X₁)|RealUnitarySpace&#45;like(X₁)|UNITSTR(X₁)|X₂ ∈ carrier(X₁)|X₃ ∈ ℝ|X₄ ∈ carrier(X₁)|add&#45;associative(X₁)|right_complementable(X₁)|right_zeroed(X₁)|scalar&#45;associative(X₁)|scalar&#45;distributive(X₁)|scalar&#45;unital(X₁)|vector&#45;distributive(X₁)|⇊|Ball(X₁,X₂,&#45;(X₃,dist(X₁,X₄,X₂))) ⊆ Ball(X₁,X₄,X₃)|empty(X₁)}" target="_vizar">
<polygon fill="#f8edd1" stroke="#7f7542" points="127.5,-98.5 127.5,-353.5 444.5,-353.5 444.5,-98.5 127.5,-98.5"/>
<text text-anchor="middle" x="286" y="-342.3" font-family="Times,serif" font-size="14.00">&#45;(X₃,dist(X₁,X₄,X₂)) ∈ ℝ</text>
<polyline fill="none" stroke="#7f7542" points="127.5,-338.5 444.5,-338.5 "/>
<text text-anchor="middle" x="286" y="-327.3" font-family="Times,serif" font-size="14.00">Abelian(X₁)</text>
<polyline fill="none" stroke="#7f7542" points="127.5,-323.5 444.5,-323.5 "/>
<text text-anchor="middle" x="286" y="-312.3" font-family="Times,serif" font-size="14.00">RealUnitarySpace&#45;like(X₁)</text>
<polyline fill="none" stroke="#7f7542" points="127.5,-308.5 444.5,-308.5 "/>
<text text-anchor="middle" x="286" y="-297.3" font-family="Times,serif" font-size="14.00">UNITSTR(X₁)</text>
<polyline fill="none" stroke="#7f7542" points="127.5,-293.5 444.5,-293.5 "/>
<text text-anchor="middle" x="286" y="-282.3" font-family="Times,serif" font-size="14.00">X₂ ∈ carrier(X₁)</text>
<polyline fill="none" stroke="#7f7542" points="127.5,-278.5 444.5,-278.5 "/>
<text text-anchor="middle" x="286" y="-267.3" font-family="Times,serif" font-size="14.00">X₃ ∈ ℝ</text>
<polyline fill="none" stroke="#7f7542" points="127.5,-263.5 444.5,-263.5 "/>
<text text-anchor="middle" x="286" y="-252.3" font-family="Times,serif" font-size="14.00">X₄ ∈ carrier(X₁)</text>
<polyline fill="none" stroke="#7f7542" points="127.5,-248.5 444.5,-248.5 "/>
<text text-anchor="middle" x="286" y="-237.3" font-family="Times,serif" font-size="14.00">add&#45;associative(X₁)</text>
<polyline fill="none" stroke="#7f7542" points="127.5,-233.5 444.5,-233.5 "/>
<text text-anchor="middle" x="286" y="-222.3" font-family="Times,serif" font-size="14.00">right_complementable(X₁)</text>
<polyline fill="none" stroke="#7f7542" points="127.5,-218.5 444.5,-218.5 "/>
<text text-anchor="middle" x="286" y="-207.3" font-family="Times,serif" font-size="14.00">right_zeroed(X₁)</text>
<polyline fill="none" stroke="#7f7542" points="127.5,-203.5 444.5,-203.5 "/>
<text text-anchor="middle" x="286" y="-192.3" font-family="Times,serif" font-size="14.00">scalar&#45;associative(X₁)</text>
<polyline fill="none" stroke="#7f7542" points="127.5,-188.5 444.5,-188.5 "/>
<text text-anchor="middle" x="286" y="-177.3" font-family="Times,serif" font-size="14.00">scalar&#45;distributive(X₁)</text>
<polyline fill="none" stroke="#7f7542" points="127.5,-173.5 444.5,-173.5 "/>
<text text-anchor="middle" x="286" y="-162.3" font-family="Times,serif" font-size="14.00">scalar&#45;unital(X₁)</text>
<polyline fill="none" stroke="#7f7542" points="127.5,-158.5 444.5,-158.5 "/>
<text text-anchor="middle" x="286" y="-147.3" font-family="Times,serif" font-size="14.00">vector&#45;distributive(X₁)</text>
<polyline fill="none" stroke="#7f7542" points="127.5,-143.5 444.5,-143.5 "/>
<text text-anchor="middle" x="286" y="-132.3" font-family="Times,serif" font-size="14.00">⇊</text>
<polyline fill="none" stroke="#7f7542" points="127.5,-128.5 444.5,-128.5 "/>
<text text-anchor="middle" x="286" y="-117.3" font-family="Times,serif" font-size="14.00">Ball(X₁,X₂,&#45;(X₃,dist(X₁,X₄,X₂))) ⊆ Ball(X₁,X₄,X₃)</text>
<polyline fill="none" stroke="#7f7542" points="127.5,-113.5 444.5,-113.5 "/>
<text text-anchor="middle" x="286" y="-102.3" font-family="Times,serif" font-size="14.00">empty(X₁)</text>
</a>
</g>
</g>
<!-- c_0_58&#45;&gt;c_0_66 -->
<g id="edge1" class="edge">
<title>c_0_58&#45;&gt;c_0_66</title>
<path fill="none" stroke="black" d="M353,-390.29C353,-390.29 353,-363.68 353,-363.68"/>
<polygon fill="black" stroke="black" points="356.5,-363.68 353,-353.68 349.5,-363.68 356.5,-363.68"/>
</g>
<!-- c_0_27 -->
<g id="node2" class="node">
<title>c_0_27</title>
<g id="a_node2"><a xlink:href="c_0_27.html" xlink:title="{Abelian(X₁)|RealUnitarySpace&#45;like(X₁)|UNITSTR(X₁)|X₂ ∈ carrier(X₁)|X₃ ∈ ℝ|add&#45;associative(X₁)|right_complementable(X₁)|right_zeroed(X₁)|scalar&#45;associative(X₁)|scalar&#45;distributive(X₁)|scalar&#45;unital(X₁)|vector&#45;distributive(X₁)|⇊|Ball(X₁,X₂,X₃) ∈ bool(carrier(X₁))|empty(X₁)}" target="_vizar">
<polygon fill="#f8edd1" stroke="#7f7542" points="16.5,-420.5 16.5,-645.5 243.5,-645.5 243.5,-420.5 16.5,-420.5"/>
<text text-anchor="middle" x="130" y="-634.3" font-family="Times,serif" font-size="14.00">Abelian(X₁)</text>
<polyline fill="none" stroke="#7f7542" points="16.5,-630.5 243.5,-630.5 "/>
<text text-anchor="middle" x="130" y="-619.3" font-family="Times,serif" font-size="14.00">RealUnitarySpace&#45;like(X₁)</text>
<polyline fill="none" stroke="#7f7542" points="16.5,-615.5 243.5,-615.5 "/>
<text text-anchor="middle" x="130" y="-604.3" font-family="Times,serif" font-size="14.00">UNITSTR(X₁)</text>
<polyline fill="none" stroke="#7f7542" points="16.5,-600.5 243.5,-600.5 "/>
<text text-anchor="middle" x="130" y="-589.3" font-family="Times,serif" font-size="14.00">X₂ ∈ carrier(X₁)</text>
<polyline fill="none" stroke="#7f7542" points="16.5,-585.5 243.5,-585.5 "/>
<text text-anchor="middle" x="130" y="-574.3" font-family="Times,serif" font-size="14.00">X₃ ∈ ℝ</text>
<polyline fill="none" stroke="#7f7542" points="16.5,-570.5 243.5,-570.5 "/>
<text text-anchor="middle" x="130" y="-559.3" font-family="Times,serif" font-size="14.00">add&#45;associative(X₁)</text>
<polyline fill="none" stroke="#7f7542" points="16.5,-555.5 243.5,-555.5 "/>
<text text-anchor="middle" x="130" y="-544.3" font-family="Times,serif" font-size="14.00">right_complementable(X₁)</text>
<polyline fill="none" stroke="#7f7542" points="16.5,-540.5 243.5,-540.5 "/>
<text text-anchor="middle" x="130" y="-529.3" font-family="Times,serif" font-size="14.00">right_zeroed(X₁)</text>
<polyline fill="none" stroke="#7f7542" points="16.5,-525.5 243.5,-525.5 "/>
<text text-anchor="middle" x="130" y="-514.3" font-family="Times,serif" font-size="14.00">scalar&#45;associative(X₁)</text>
<polyline fill="none" stroke="#7f7542" points="16.5,-510.5 243.5,-510.5 "/>
<text text-anchor="middle" x="130" y="-499.3" font-family="Times,serif" font-size="14.00">scalar&#45;distributive(X₁)</text>
<polyline fill="none" stroke="#7f7542" points="16.5,-495.5 243.5,-495.5 "/>
<text text-anchor="middle" x="130" y="-484.3" font-family="Times,serif" font-size="14.00">scalar&#45;unital(X₁)</text>
<polyline fill="none" stroke="#7f7542" points="16.5,-480.5 243.5,-480.5 "/>
<text text-anchor="middle" x="130" y="-469.3" font-family="Times,serif" font-size="14.00">vector&#45;distributive(X₁)</text>
<polyline fill="none" stroke="#7f7542" points="16.5,-465.5 243.5,-465.5 "/>
<text text-anchor="middle" x="130" y="-454.3" font-family="Times,serif" font-size="14.00">⇊</text>
<polyline fill="none" stroke="#7f7542" points="16.5,-450.5 243.5,-450.5 "/>
<text text-anchor="middle" x="130" y="-439.3" font-family="Times,serif" font-size="14.00">Ball(X₁,X₂,X₃) ∈ bool(carrier(X₁))</text>
<polyline fill="none" stroke="#7f7542" points="16.5,-435.5 243.5,-435.5 "/>
<text text-anchor="middle" x="130" y="-424.3" font-family="Times,serif" font-size="14.00">empty(X₁)</text>
</a>
</g>
</g>
<!-- c_0_27&#45;&gt;c_0_66 -->
<g id="edge2" class="edge">
<title>c_0_27&#45;&gt;c_0_66</title>
<path fill="none" stroke="black" d="M185.5,-420.43C185.5,-420.43 185.5,-363.61 185.5,-363.61"/>
<polygon fill="black" stroke="black" points="189,-363.61 185.5,-353.61 182,-363.61 189,-363.61"/>
</g>
<!-- c_0_85 -->
<g id="node4" class="node">
<title>c_0_85</title>
<g id="a_node4"><a xlink:href="c_0_85.html" xlink:title="{&#45;(sk₄,dist(sk₁,sk₂,sk₃)) ∈ ℝ|⇊|&#45;(sk₄,dist(sk₁,sk₂,sk₃)) ≤ 0}" target="_vizar">
<polygon fill="#fa6900" stroke="#7f7542" points="195,-16.5 195,-61.5 377,-61.5 377,-16.5 195,-16.5"/>
<text text-anchor="middle" x="286" y="-50.3" font-family="Times,serif" font-size="14.00">&#45;(sk₄,dist(sk₁,sk₂,sk₃)) ∈ ℝ</text>
<polyline fill="none" stroke="#7f7542" points="195,-46.5 377,-46.5 "/>
<text text-anchor="middle" x="286" y="-35.3" font-family="Times,serif" font-size="14.00">⇊</text>
<polyline fill="none" stroke="#7f7542" points="195,-31.5 377,-31.5 "/>
<text text-anchor="middle" x="286" y="-20.3" font-family="Times,serif" font-size="14.00">&#45;(sk₄,dist(sk₁,sk₂,sk₃)) ≤ 0</text>
</a>
</g>
</g>
<!-- c_0_66&#45;&gt;c_0_85 -->
<g id="edge3" class="edge">
<title>c_0_66&#45;&gt;c_0_85</title>
<path fill="none" stroke="black" stroke-dasharray="5,2" d="M286,-98.42C286,-98.42 286,-71.66 286,-71.66"/>
<polygon fill="black" stroke="black" points="289.5,-71.66 286,-61.66 282.5,-71.66 289.5,-71.66"/>
</g>
</g>
</svg>
