<?xml version="1.0" encoding="UTF-8" standalone="no"?>
<!DOCTYPE svg PUBLIC "-//W3C//DTD SVG 1.1//EN"
 "http://www.w3.org/Graphics/SVG/1.1/DTD/svg11.dtd">
<!-- Generated by graphviz version 5.0.0 (0)
 -->
<!-- Title: proof Pages: 1 -->
<svg width="840pt" height="895pt"
 viewBox="0.00 0.00 840.00 895.00" xmlns="http://www.w3.org/2000/svg" xmlns:xlink="http://www.w3.org/1999/xlink">
<g id="graph0" class="graph" transform="scale(1 1) rotate(0) translate(4 891)">
<title>proof</title>
<g id="clust1" class="cluster">
<title>cluster_0</title>
<polygon fill="transparent" stroke="black" stroke-dasharray="1,5" points="8,-622 8,-879 824,-879 824,-622 8,-622"/>
</g>
<g id="clust2" class="cluster">
<title>cluster_1</title>
<polygon fill="transparent" stroke="black" stroke-width="2" points="314,-330 314,-602 572,-602 572,-330 314,-330"/>
</g>
<g id="clust3" class="cluster">
<title>cluster_2</title>
<polygon fill="transparent" stroke="black" stroke-dasharray="1,5" points="241,-8 241,-310 645,-310 645,-8 241,-8"/>
</g>
<!-- c_0_39 -->
<g id="node1" class="node">
<title>c_0_39</title>
<g id="a_node1"><a xlink:href="c_0_39.html" xlink:title="{X₁ ∈ ℝ|⇊|X₁ + R₂ = X₁ + R₂}" target="_parent">
<polygon fill="#f8edd1" stroke="#7f7542" points="690.5,-728 690.5,-773 815.5,-773 815.5,-728 690.5,-728"/>
<text text-anchor="middle" x="753" y="-761.8" font-family="Times,serif" font-size="14.00">X₁ ∈ ℝ</text>
<polyline fill="none" stroke="#7f7542" points="690.5,-758 815.5,-758 "/>
<text text-anchor="middle" x="753" y="-746.8" font-family="Times,serif" font-size="14.00">⇊</text>
<polyline fill="none" stroke="#7f7542" points="690.5,-743 815.5,-743 "/>
<text text-anchor="middle" x="753" y="-731.8" font-family="Times,serif" font-size="14.00">X₁ + R₂ = X₁ + R₂</text>
</a>
</g>
</g>
<!-- c_0_38 -->
<g id="node6" class="node">
<title>c_0_38</title>
<g id="a_node6"><a xlink:href="c_0_38.html" xlink:title="{Abelian(X₂)|E₁ ≤ dist(X₂,X₃,X₅)|RealUnitarySpace&#45;like(X₂)|UNITSTR(X₂)|X₃ ∈ carrier(X₂)|X₄ ∈ carrier(X₂)|X₅ ∈ carrier(X₂)|add&#45;associative(X₂)|right_complementable(X₂)|right_zeroed(X₂)|scalar&#45;associative(X₂)|scalar&#45;distributive(X₂)|scalar&#45;unital(X₂)|vector&#45;distributive(X₂)|⇊|E₁ ≤ dist(X₂,X₃,X₄) + dist(X₂,X₄,X₅)|empty(X₂)}" target="_parent">
<polygon fill="#f8edd1" stroke="#7f7542" points="322.5,-338.5 322.5,-593.5 563.5,-593.5 563.5,-338.5 322.5,-338.5"/>
<text text-anchor="middle" x="443" y="-582.3" font-family="Times,serif" font-size="14.00">Abelian(X₂)</text>
<polyline fill="none" stroke="#7f7542" points="322.5,-578.5 563.5,-578.5 "/>
<text text-anchor="middle" x="443" y="-567.3" font-family="Times,serif" font-size="14.00">E₁ ≤ dist(X₂,X₃,X₅)</text>
<polyline fill="none" stroke="#7f7542" points="322.5,-563.5 563.5,-563.5 "/>
<text text-anchor="middle" x="443" y="-552.3" font-family="Times,serif" font-size="14.00">RealUnitarySpace&#45;like(X₂)</text>
<polyline fill="none" stroke="#7f7542" points="322.5,-548.5 563.5,-548.5 "/>
<text text-anchor="middle" x="443" y="-537.3" font-family="Times,serif" font-size="14.00">UNITSTR(X₂)</text>
<polyline fill="none" stroke="#7f7542" points="322.5,-533.5 563.5,-533.5 "/>
<text text-anchor="middle" x="443" y="-522.3" font-family="Times,serif" font-size="14.00">X₃ ∈ carrier(X₂)</text>
<polyline fill="none" stroke="#7f7542" points="322.5,-518.5 563.5,-518.5 "/>
<text text-anchor="middle" x="443" y="-507.3" font-family="Times,serif" font-size="14.00">X₄ ∈ carrier(X₂)</text>
<polyline fill="none" stroke="#7f7542" points="322.5,-503.5 563.5,-503.5 "/>
<text text-anchor="middle" x="443" y="-492.3" font-family="Times,serif" font-size="14.00">X₅ ∈ carrier(X₂)</text>
<polyline fill="none" stroke="#7f7542" points="322.5,-488.5 563.5,-488.5 "/>
<text text-anchor="middle" x="443" y="-477.3" font-family="Times,serif" font-size="14.00">add&#45;associative(X₂)</text>
<polyline fill="none" stroke="#7f7542" points="322.5,-473.5 563.5,-473.5 "/>
<text text-anchor="middle" x="443" y="-462.3" font-family="Times,serif" font-size="14.00">right_complementable(X₂)</text>
<polyline fill="none" stroke="#7f7542" points="322.5,-458.5 563.5,-458.5 "/>
<text text-anchor="middle" x="443" y="-447.3" font-family="Times,serif" font-size="14.00">right_zeroed(X₂)</text>
<polyline fill="none" stroke="#7f7542" points="322.5,-443.5 563.5,-443.5 "/>
<text text-anchor="middle" x="443" y="-432.3" font-family="Times,serif" font-size="14.00">scalar&#45;associative(X₂)</text>
<polyline fill="none" stroke="#7f7542" points="322.5,-428.5 563.5,-428.5 "/>
<text text-anchor="middle" x="443" y="-417.3" font-family="Times,serif" font-size="14.00">scalar&#45;distributive(X₂)</text>
<polyline fill="none" stroke="#7f7542" points="322.5,-413.5 563.5,-413.5 "/>
<text text-anchor="middle" x="443" y="-402.3" font-family="Times,serif" font-size="14.00">scalar&#45;unital(X₂)</text>
<polyline fill="none" stroke="#7f7542" points="322.5,-398.5 563.5,-398.5 "/>
<text text-anchor="middle" x="443" y="-387.3" font-family="Times,serif" font-size="14.00">vector&#45;distributive(X₂)</text>
<polyline fill="none" stroke="#7f7542" points="322.5,-383.5 563.5,-383.5 "/>
<text text-anchor="middle" x="443" y="-372.3" font-family="Times,serif" font-size="14.00">⇊</text>
<polyline fill="none" stroke="#7f7542" points="322.5,-368.5 563.5,-368.5 "/>
<text text-anchor="middle" x="443" y="-357.3" font-family="Times,serif" font-size="14.00">E₁ ≤ dist(X₂,X₃,X₄) + dist(X₂,X₄,X₅)</text>
<polyline fill="none" stroke="#7f7542" points="322.5,-353.5 563.5,-353.5 "/>
<text text-anchor="middle" x="443" y="-342.3" font-family="Times,serif" font-size="14.00">empty(X₂)</text>
</a>
</g>
</g>
<!-- c_0_39&#45;&gt;c_0_38 -->
<g id="edge1" class="edge">
<title>c_0_39&#45;&gt;c_0_38</title>
<path fill="none" stroke="black" d="M753,-727.99C753,-654 753,-423 753,-423 753,-423 573.74,-423 573.74,-423"/>
<polygon fill="black" stroke="black" points="573.74,-419.5 563.74,-423 573.74,-426.5 573.74,-419.5"/>
</g>
<!-- c_0_28 -->
<g id="node2" class="node">
<title>c_0_28</title>
<g id="a_node2"><a xlink:href="c_0_28.html" xlink:title="{E₁ ≤ E₂|E₂ ≤ E₃|⇊|E₁ ≤ E₃}" target="_parent">
<polygon fill="#f8edd1" stroke="#7f7542" points="619.5,-720.5 619.5,-780.5 672.5,-780.5 672.5,-720.5 619.5,-720.5"/>
<text text-anchor="middle" x="646" y="-769.3" font-family="Times,serif" font-size="14.00">E₁ ≤ E₂</text>
<polyline fill="none" stroke="#7f7542" points="619.5,-765.5 672.5,-765.5 "/>
<text text-anchor="middle" x="646" y="-754.3" font-family="Times,serif" font-size="14.00">E₂ ≤ E₃</text>
<polyline fill="none" stroke="#7f7542" points="619.5,-750.5 672.5,-750.5 "/>
<text text-anchor="middle" x="646" y="-739.3" font-family="Times,serif" font-size="14.00">⇊</text>
<polyline fill="none" stroke="#7f7542" points="619.5,-735.5 672.5,-735.5 "/>
<text text-anchor="middle" x="646" y="-724.3" font-family="Times,serif" font-size="14.00">E₁ ≤ E₃</text>
</a>
</g>
</g>
<!-- c_0_28&#45;&gt;c_0_38 -->
<g id="edge2" class="edge">
<title>c_0_28&#45;&gt;c_0_38</title>
<path fill="none" stroke="black" d="M628.25,-720.28C628.25,-655.27 628.25,-508 628.25,-508 628.25,-508 573.72,-508 573.72,-508"/>
<polygon fill="black" stroke="black" points="573.72,-504.5 563.72,-508 573.72,-511.5 573.72,-504.5"/>
</g>
<!-- c_0_29 -->
<g id="node3" class="node">
<title>c_0_29</title>
<g id="a_node3"><a xlink:href="c_0_29.html" xlink:title="{Abelian(X₁)|RealUnitarySpace&#45;like(X₁)|UNITSTR(X₁)|X₂ ∈ carrier(X₁)|X₃ ∈ carrier(X₁)|X₄ ∈ carrier(X₁)|add&#45;associative(X₁)|right_complementable(X₁)|right_zeroed(X₁)|scalar&#45;associative(X₁)|scalar&#45;distributive(X₁)|scalar&#45;unital(X₁)|vector&#45;distributive(X₁)|⇊|dist(X₁,X₂,X₃) ≤ dist(X₁,X₂,X₄) + dist(X₁,X₄,X₃)|empty(X₁)}" target="_parent">
<polygon fill="#f8edd1" stroke="#7f7542" points="284.5,-630.5 284.5,-870.5 601.5,-870.5 601.5,-630.5 284.5,-630.5"/>
<text text-anchor="middle" x="443" y="-859.3" font-family="Times,serif" font-size="14.00">Abelian(X₁)</text>
<polyline fill="none" stroke="#7f7542" points="284.5,-855.5 601.5,-855.5 "/>
<text text-anchor="middle" x="443" y="-844.3" font-family="Times,serif" font-size="14.00">RealUnitarySpace&#45;like(X₁)</text>
<polyline fill="none" stroke="#7f7542" points="284.5,-840.5 601.5,-840.5 "/>
<text text-anchor="middle" x="443" y="-829.3" font-family="Times,serif" font-size="14.00">UNITSTR(X₁)</text>
<polyline fill="none" stroke="#7f7542" points="284.5,-825.5 601.5,-825.5 "/>
<text text-anchor="middle" x="443" y="-814.3" font-family="Times,serif" font-size="14.00">X₂ ∈ carrier(X₁)</text>
<polyline fill="none" stroke="#7f7542" points="284.5,-810.5 601.5,-810.5 "/>
<text text-anchor="middle" x="443" y="-799.3" font-family="Times,serif" font-size="14.00">X₃ ∈ carrier(X₁)</text>
<polyline fill="none" stroke="#7f7542" points="284.5,-795.5 601.5,-795.5 "/>
<text text-anchor="middle" x="443" y="-784.3" font-family="Times,serif" font-size="14.00">X₄ ∈ carrier(X₁)</text>
<polyline fill="none" stroke="#7f7542" points="284.5,-780.5 601.5,-780.5 "/>
<text text-anchor="middle" x="443" y="-769.3" font-family="Times,serif" font-size="14.00">add&#45;associative(X₁)</text>
<polyline fill="none" stroke="#7f7542" points="284.5,-765.5 601.5,-765.5 "/>
<text text-anchor="middle" x="443" y="-754.3" font-family="Times,serif" font-size="14.00">right_complementable(X₁)</text>
<polyline fill="none" stroke="#7f7542" points="284.5,-750.5 601.5,-750.5 "/>
<text text-anchor="middle" x="443" y="-739.3" font-family="Times,serif" font-size="14.00">right_zeroed(X₁)</text>
<polyline fill="none" stroke="#7f7542" points="284.5,-735.5 601.5,-735.5 "/>
<text text-anchor="middle" x="443" y="-724.3" font-family="Times,serif" font-size="14.00">scalar&#45;associative(X₁)</text>
<polyline fill="none" stroke="#7f7542" points="284.5,-720.5 601.5,-720.5 "/>
<text text-anchor="middle" x="443" y="-709.3" font-family="Times,serif" font-size="14.00">scalar&#45;distributive(X₁)</text>
<polyline fill="none" stroke="#7f7542" points="284.5,-705.5 601.5,-705.5 "/>
<text text-anchor="middle" x="443" y="-694.3" font-family="Times,serif" font-size="14.00">scalar&#45;unital(X₁)</text>
<polyline fill="none" stroke="#7f7542" points="284.5,-690.5 601.5,-690.5 "/>
<text text-anchor="middle" x="443" y="-679.3" font-family="Times,serif" font-size="14.00">vector&#45;distributive(X₁)</text>
<polyline fill="none" stroke="#7f7542" points="284.5,-675.5 601.5,-675.5 "/>
<text text-anchor="middle" x="443" y="-664.3" font-family="Times,serif" font-size="14.00">⇊</text>
<polyline fill="none" stroke="#7f7542" points="284.5,-660.5 601.5,-660.5 "/>
<text text-anchor="middle" x="443" y="-649.3" font-family="Times,serif" font-size="14.00">dist(X₁,X₂,X₃) ≤ dist(X₁,X₂,X₄) + dist(X₁,X₄,X₃)</text>
<polyline fill="none" stroke="#7f7542" points="284.5,-645.5 601.5,-645.5 "/>
<text text-anchor="middle" x="443" y="-634.3" font-family="Times,serif" font-size="14.00">empty(X₁)</text>
</a>
</g>
</g>
<!-- c_0_29&#45;&gt;c_0_38 -->
<g id="edge3" class="edge">
<title>c_0_29&#45;&gt;c_0_38</title>
<path fill="none" stroke="black" d="M443,-630.26C443,-630.26 443,-603.57 443,-603.57"/>
<polygon fill="black" stroke="black" points="446.5,-603.57 443,-593.57 439.5,-603.57 446.5,-603.57"/>
</g>
<!-- c_0_46 -->
<g id="node4" class="node">
<title>c_0_46</title>
<g id="a_node4"><a xlink:href="c_0_46.html" xlink:title="{R₁ ∈ 𝔼}" target="_parent">
<polygon fill="#f8edd1" stroke="#7f7542" points="220,-743 220,-758 266,-758 266,-743 220,-743"/>
<text text-anchor="middle" x="243" y="-746.8" font-family="Times,serif" font-size="14.00">R₁ ∈ 𝔼</text>
</a>
</g>
</g>
<!-- c_0_46&#45;&gt;c_0_38 -->
<g id="edge4" class="edge">
<title>c_0_46&#45;&gt;c_0_38</title>
<path fill="none" stroke="black" d="M257.5,-742.98C257.5,-702.05 257.5,-508 257.5,-508 257.5,-508 312.38,-508 312.38,-508"/>
<polygon fill="black" stroke="black" points="312.38,-511.5 322.38,-508 312.38,-504.5 312.38,-511.5"/>
</g>
<!-- c_0_32 -->
<g id="node5" class="node">
<title>c_0_32</title>
<g id="a_node5"><a xlink:href="c_0_32.html" xlink:title="{Abelian(X₁)|RealUnitarySpace&#45;like(X₁)|UNITSTR(X₁)|X₂ ∈ carrier(X₁)|X₃ ∈ carrier(X₁)|add&#45;associative(X₁)|right_complementable(X₁)|right_zeroed(X₁)|scalar&#45;associative(X₁)|scalar&#45;distributive(X₁)|scalar&#45;unital(X₁)|vector&#45;distributive(X₁)|⇊|dist(X₁,X₂,X₃) ∈ ℝ|empty(X₁)}" target="_parent">
<polygon fill="#f8edd1" stroke="#7f7542" points="16,-638 16,-863 202,-863 202,-638 16,-638"/>
<text text-anchor="middle" x="109" y="-851.8" font-family="Times,serif" font-size="14.00">Abelian(X₁)</text>
<polyline fill="none" stroke="#7f7542" points="16,-848 202,-848 "/>
<text text-anchor="middle" x="109" y="-836.8" font-family="Times,serif" font-size="14.00">RealUnitarySpace&#45;like(X₁)</text>
<polyline fill="none" stroke="#7f7542" points="16,-833 202,-833 "/>
<text text-anchor="middle" x="109" y="-821.8" font-family="Times,serif" font-size="14.00">UNITSTR(X₁)</text>
<polyline fill="none" stroke="#7f7542" points="16,-818 202,-818 "/>
<text text-anchor="middle" x="109" y="-806.8" font-family="Times,serif" font-size="14.00">X₂ ∈ carrier(X₁)</text>
<polyline fill="none" stroke="#7f7542" points="16,-803 202,-803 "/>
<text text-anchor="middle" x="109" y="-791.8" font-family="Times,serif" font-size="14.00">X₃ ∈ carrier(X₁)</text>
<polyline fill="none" stroke="#7f7542" points="16,-788 202,-788 "/>
<text text-anchor="middle" x="109" y="-776.8" font-family="Times,serif" font-size="14.00">add&#45;associative(X₁)</text>
<polyline fill="none" stroke="#7f7542" points="16,-773 202,-773 "/>
<text text-anchor="middle" x="109" y="-761.8" font-family="Times,serif" font-size="14.00">right_complementable(X₁)</text>
<polyline fill="none" stroke="#7f7542" points="16,-758 202,-758 "/>
<text text-anchor="middle" x="109" y="-746.8" font-family="Times,serif" font-size="14.00">right_zeroed(X₁)</text>
<polyline fill="none" stroke="#7f7542" points="16,-743 202,-743 "/>
<text text-anchor="middle" x="109" y="-731.8" font-family="Times,serif" font-size="14.00">scalar&#45;associative(X₁)</text>
<polyline fill="none" stroke="#7f7542" points="16,-728 202,-728 "/>
<text text-anchor="middle" x="109" y="-716.8" font-family="Times,serif" font-size="14.00">scalar&#45;distributive(X₁)</text>
<polyline fill="none" stroke="#7f7542" points="16,-713 202,-713 "/>
<text text-anchor="middle" x="109" y="-701.8" font-family="Times,serif" font-size="14.00">scalar&#45;unital(X₁)</text>
<polyline fill="none" stroke="#7f7542" points="16,-698 202,-698 "/>
<text text-anchor="middle" x="109" y="-686.8" font-family="Times,serif" font-size="14.00">vector&#45;distributive(X₁)</text>
<polyline fill="none" stroke="#7f7542" points="16,-683 202,-683 "/>
<text text-anchor="middle" x="109" y="-671.8" font-family="Times,serif" font-size="14.00">⇊</text>
<polyline fill="none" stroke="#7f7542" points="16,-668 202,-668 "/>
<text text-anchor="middle" x="109" y="-656.8" font-family="Times,serif" font-size="14.00">dist(X₁,X₂,X₃) ∈ ℝ</text>
<polyline fill="none" stroke="#7f7542" points="16,-653 202,-653 "/>
<text text-anchor="middle" x="109" y="-641.8" font-family="Times,serif" font-size="14.00">empty(X₁)</text>
</a>
</g>
</g>
<!-- c_0_32&#45;&gt;c_0_38 -->
<g id="edge5" class="edge">
<title>c_0_32&#45;&gt;c_0_38</title>
<path fill="none" stroke="black" d="M109,-637.79C109,-543.06 109,-423 109,-423 109,-423 312.42,-423 312.42,-423"/>
<polygon fill="black" stroke="black" points="312.42,-426.5 322.42,-423 312.42,-419.5 312.42,-426.5"/>
</g>
<!-- c_0_50 -->
<g id="node7" class="node">
<title>c_0_50</title>
<g id="a_node7"><a xlink:href="c_0_50.html" xlink:title="{&#45;(R₃,dist(X₁,X₄,X₂)) ∈ ℝ|Abelian(X₁)|Ball(X₁,X₂,&#45;(R₃,dist(X₁,X₄,X₂))) ∈ bool(X₆)|RealUnitarySpace&#45;like(X₁)|R₃ ≤ dist(X₁,X₄,sk₅(X₆,Ball(X₁,X₂,&#45;(R₃,dist(X₁,X₄,X₂))),X₅))|UNITSTR(X₁)|X₂ ∈ carrier(X₁)|X₄ ∈ carrier(X₁)|X₅ ∈ bool(X₆)|add&#45;associative(X₁)|right_complementable(X₁)|right_zeroed(X₁)|scalar&#45;associative(X₁)|scalar&#45;distributive(X₁)|scalar&#45;unital(X₁)|vector&#45;distributive(X₁)|⇊|Ball(X₁,X₂,&#45;(R₃,dist(X₁,X₄,X₂))) ⊆ X₅|empty(X₁)}" target="_parent">
<polygon fill="#f8edd1" stroke="#7f7542" points="249,-16.5 249,-301.5 637,-301.5 637,-16.5 249,-16.5"/>
<text text-anchor="middle" x="443" y="-290.3" font-family="Times,serif" font-size="14.00">&#45;(R₃,dist(X₁,X₄,X₂)) ∈ ℝ</text>
<polyline fill="none" stroke="#7f7542" points="249,-286.5 637,-286.5 "/>
<text text-anchor="middle" x="443" y="-275.3" font-family="Times,serif" font-size="14.00">Abelian(X₁)</text>
<polyline fill="none" stroke="#7f7542" points="249,-271.5 637,-271.5 "/>
<text text-anchor="middle" x="443" y="-260.3" font-family="Times,serif" font-size="14.00">Ball(X₁,X₂,&#45;(R₃,dist(X₁,X₄,X₂))) ∈ bool(X₆)</text>
<polyline fill="none" stroke="#7f7542" points="249,-256.5 637,-256.5 "/>
<text text-anchor="middle" x="443" y="-245.3" font-family="Times,serif" font-size="14.00">RealUnitarySpace&#45;like(X₁)</text>
<polyline fill="none" stroke="#7f7542" points="249,-241.5 637,-241.5 "/>
<text text-anchor="middle" x="443" y="-230.3" font-family="Times,serif" font-size="14.00">R₃ ≤ dist(X₁,X₄,sk₅(X₆,Ball(X₁,X₂,&#45;(R₃,dist(X₁,X₄,X₂))),X₅))</text>
<polyline fill="none" stroke="#7f7542" points="249,-226.5 637,-226.5 "/>
<text text-anchor="middle" x="443" y="-215.3" font-family="Times,serif" font-size="14.00">UNITSTR(X₁)</text>
<polyline fill="none" stroke="#7f7542" points="249,-211.5 637,-211.5 "/>
<text text-anchor="middle" x="443" y="-200.3" font-family="Times,serif" font-size="14.00">X₂ ∈ carrier(X₁)</text>
<polyline fill="none" stroke="#7f7542" points="249,-196.5 637,-196.5 "/>
<text text-anchor="middle" x="443" y="-185.3" font-family="Times,serif" font-size="14.00">X₄ ∈ carrier(X₁)</text>
<polyline fill="none" stroke="#7f7542" points="249,-181.5 637,-181.5 "/>
<text text-anchor="middle" x="443" y="-170.3" font-family="Times,serif" font-size="14.00">X₅ ∈ bool(X₆)</text>
<polyline fill="none" stroke="#7f7542" points="249,-166.5 637,-166.5 "/>
<text text-anchor="middle" x="443" y="-155.3" font-family="Times,serif" font-size="14.00">add&#45;associative(X₁)</text>
<polyline fill="none" stroke="#7f7542" points="249,-151.5 637,-151.5 "/>
<text text-anchor="middle" x="443" y="-140.3" font-family="Times,serif" font-size="14.00">right_complementable(X₁)</text>
<polyline fill="none" stroke="#7f7542" points="249,-136.5 637,-136.5 "/>
<text text-anchor="middle" x="443" y="-125.3" font-family="Times,serif" font-size="14.00">right_zeroed(X₁)</text>
<polyline fill="none" stroke="#7f7542" points="249,-121.5 637,-121.5 "/>
<text text-anchor="middle" x="443" y="-110.3" font-family="Times,serif" font-size="14.00">scalar&#45;associative(X₁)</text>
<polyline fill="none" stroke="#7f7542" points="249,-106.5 637,-106.5 "/>
<text text-anchor="middle" x="443" y="-95.3" font-family="Times,serif" font-size="14.00">scalar&#45;distributive(X₁)</text>
<polyline fill="none" stroke="#7f7542" points="249,-91.5 637,-91.5 "/>
<text text-anchor="middle" x="443" y="-80.3" font-family="Times,serif" font-size="14.00">scalar&#45;unital(X₁)</text>
<polyline fill="none" stroke="#7f7542" points="249,-76.5 637,-76.5 "/>
<text text-anchor="middle" x="443" y="-65.3" font-family="Times,serif" font-size="14.00">vector&#45;distributive(X₁)</text>
<polyline fill="none" stroke="#7f7542" points="249,-61.5 637,-61.5 "/>
<text text-anchor="middle" x="443" y="-50.3" font-family="Times,serif" font-size="14.00">⇊</text>
<polyline fill="none" stroke="#7f7542" points="249,-46.5 637,-46.5 "/>
<text text-anchor="middle" x="443" y="-35.3" font-family="Times,serif" font-size="14.00">Ball(X₁,X₂,&#45;(R₃,dist(X₁,X₄,X₂))) ⊆ X₅</text>
<polyline fill="none" stroke="#7f7542" points="249,-31.5 637,-31.5 "/>
<text text-anchor="middle" x="443" y="-20.3" font-family="Times,serif" font-size="14.00">empty(X₁)</text>
</a>
</g>
</g>
<!-- c_0_38&#45;&gt;c_0_50 -->
<g id="edge6" class="edge">
<title>c_0_38&#45;&gt;c_0_50</title>
<path fill="none" stroke="black" stroke-dasharray="5,2" d="M443,-338.47C443,-338.47 443,-311.54 443,-311.54"/>
<polygon fill="black" stroke="black" points="446.5,-311.54 443,-301.54 439.5,-311.54 446.5,-311.54"/>
</g>
</g>
</svg>
