<?xml version="1.0" encoding="UTF-8" standalone="no"?>
<!DOCTYPE svg PUBLIC "-//W3C//DTD SVG 1.1//EN"
 "http://www.w3.org/Graphics/SVG/1.1/DTD/svg11.dtd">
<!-- Generated by graphviz version 5.0.0 (0)
 -->
<!-- Title: proof Pages: 1 -->
<svg width="132pt" height="153pt"
 viewBox="0.00 0.00 132.00 153.00" xmlns="http://www.w3.org/2000/svg" xmlns:xlink="http://www.w3.org/1999/xlink">
<g id="graph0" class="graph" transform="scale(1 1) rotate(0) translate(4 149)">
<title>proof</title>
<g id="clust1" class="cluster">
<title>cluster_1</title>
<polygon fill="transparent" stroke="black" stroke-width="2" points="19,-105 19,-137 105,-137 105,-105 19,-105"/>
</g>
<g id="clust2" class="cluster">
<title>cluster_2</title>
<polygon fill="transparent" stroke="black" stroke-dasharray="1,5" points="8,-8 8,-85 116,-85 116,-8 8,-8"/>
</g>
<!-- t4_subset -->
<g id="node1" class="node">
<title>t4_subset</title>
<g id="a_node1"><a xlink:href="t4_subset.html" xlink:title="t4_subset" target="_parent">
<polygon fill="#69d2e7" stroke="#7f7542" points="27,-113.5 27,-128.5 97,-128.5 97,-113.5 27,-113.5"/>
<text text-anchor="middle" x="62" y="-117.3" font-family="Times,serif" font-size="14.00">t4_subset</text>
</a>
</g>
</g>
<!-- c_0_26 -->
<g id="node2" class="node">
<title>c_0_26</title>
<g id="a_node2"><a xlink:href="c_0_26.html" xlink:title="{X₁ ∈ X₂|X₂ ∈ bool(X₃)|⇊|X₁ ∈ X₃}" target="_parent">
<polygon fill="#f8edd1" stroke="#7f7542" points="16.5,-16.5 16.5,-76.5 107.5,-76.5 107.5,-16.5 16.5,-16.5"/>
<text text-anchor="middle" x="62" y="-65.3" font-family="Times,serif" font-size="14.00">X₁ ∈ X₂</text>
<polyline fill="none" stroke="#7f7542" points="16.5,-61.5 107.5,-61.5 "/>
<text text-anchor="middle" x="62" y="-50.3" font-family="Times,serif" font-size="14.00">X₂ ∈ bool(X₃)</text>
<polyline fill="none" stroke="#7f7542" points="16.5,-46.5 107.5,-46.5 "/>
<text text-anchor="middle" x="62" y="-35.3" font-family="Times,serif" font-size="14.00">⇊</text>
<polyline fill="none" stroke="#7f7542" points="16.5,-31.5 107.5,-31.5 "/>
<text text-anchor="middle" x="62" y="-20.3" font-family="Times,serif" font-size="14.00">X₁ ∈ X₃</text>
</a>
</g>
</g>
<!-- t4_subset&#45;&gt;c_0_26 -->
<g id="edge1" class="edge">
<title>t4_subset&#45;&gt;c_0_26</title>
<path fill="none" stroke="black" d="M62,-113.31C62,-113.31 62,-86.51 62,-86.51"/>
<polygon fill="black" stroke="black" points="65.5,-86.51 62,-76.51 58.5,-86.51 65.5,-86.51"/>
</g>
</g>
</svg>
