<?xml version="1.0" encoding="UTF-8" standalone="no"?>
<!DOCTYPE svg PUBLIC "-//W3C//DTD SVG 1.1//EN"
 "http://www.w3.org/Graphics/SVG/1.1/DTD/svg11.dtd">
<!-- Generated by graphviz version 5.0.0 (0)
 -->
<!-- Title: proof Pages: 1 -->
<svg width="307pt" height="265pt"
 viewBox="0.00 0.00 307.00 265.00" xmlns="http://www.w3.org/2000/svg" xmlns:xlink="http://www.w3.org/1999/xlink">
<g id="graph0" class="graph" transform="scale(1 1) rotate(0) translate(4 261)">
<title>proof</title>
<g id="clust1" class="cluster">
<title>cluster_0</title>
<polygon fill="transparent" stroke="black" stroke-dasharray="1,5" points="11,-187 11,-249 291,-249 291,-187 11,-187"/>
</g>
<g id="clust2" class="cluster">
<title>cluster_1</title>
<polygon fill="transparent" stroke="black" stroke-width="2" points="50,-105 50,-167 230,-167 230,-105 50,-105"/>
</g>
<g id="clust3" class="cluster">
<title>cluster_2</title>
<polygon fill="transparent" stroke="black" stroke-dasharray="1,5" points="8,-8 8,-85 272,-85 272,-8 8,-8"/>
</g>
<!-- c_0_72 -->
<g id="node1" class="node">
<title>c_0_72</title>
<g id="a_node1"><a xlink:href="c_0_72.html" xlink:title="{X₁ ∈ ℝ|⇊|&#45;(X₁) = &#45;(X₁)}" target="_parent">
<polygon fill="#f8edd1" stroke="#7f7542" points="201,-195.5 201,-240.5 283,-240.5 283,-195.5 201,-195.5"/>
<text text-anchor="middle" x="242" y="-229.3" font-family="Times,serif" font-size="14.00">X₁ ∈ ℝ</text>
<polyline fill="none" stroke="#7f7542" points="201,-225.5 283,-225.5 "/>
<text text-anchor="middle" x="242" y="-214.3" font-family="Times,serif" font-size="14.00">⇊</text>
<polyline fill="none" stroke="#7f7542" points="201,-210.5 283,-210.5 "/>
<text text-anchor="middle" x="242" y="-199.3" font-family="Times,serif" font-size="14.00">&#45;(X₁) = &#45;(X₁)</text>
</a>
</g>
</g>
<!-- c_0_182 -->
<g id="node3" class="node">
<title>c_0_182</title>
<g id="a_node3"><a xlink:href="c_0_182.html" xlink:title="{sin . R₁ ∈ ℝ|⇊|&#45;(sin . R₁) = diff(cos,R₁)}" target="_parent">
<polygon fill="#f8edd1" stroke="#7f7542" points="58,-113.5 58,-158.5 222,-158.5 222,-113.5 58,-113.5"/>
<text text-anchor="middle" x="140" y="-147.3" font-family="Times,serif" font-size="14.00">sin . R₁ ∈ ℝ</text>
<polyline fill="none" stroke="#7f7542" points="58,-143.5 222,-143.5 "/>
<text text-anchor="middle" x="140" y="-132.3" font-family="Times,serif" font-size="14.00">⇊</text>
<polyline fill="none" stroke="#7f7542" points="58,-128.5 222,-128.5 "/>
<text text-anchor="middle" x="140" y="-117.3" font-family="Times,serif" font-size="14.00">&#45;(sin . R₁) = diff(cos,R₁)</text>
</a>
</g>
</g>
<!-- c_0_72&#45;&gt;c_0_182 -->
<g id="edge1" class="edge">
<title>c_0_72&#45;&gt;c_0_182</title>
<path fill="none" stroke="black" d="M211.5,-195.16C211.5,-195.16 211.5,-168.72 211.5,-168.72"/>
<polygon fill="black" stroke="black" points="215,-168.72 211.5,-158.72 208,-168.72 215,-168.72"/>
</g>
<!-- c_0_174 -->
<g id="node2" class="node">
<title>c_0_174</title>
<g id="a_node2"><a xlink:href="c_0_174.html" xlink:title="{diff(cos,R₁) = &#45;(sin . R₁)}" target="_parent">
<polygon fill="#f8edd1" stroke="#7f7542" points="19,-210.5 19,-225.5 183,-225.5 183,-210.5 19,-210.5"/>
<text text-anchor="middle" x="101" y="-214.3" font-family="Times,serif" font-size="14.00">diff(cos,R₁) = &#45;(sin . R₁)</text>
</a>
</g>
</g>
<!-- c_0_174&#45;&gt;c_0_182 -->
<g id="edge2" class="edge">
<title>c_0_174&#45;&gt;c_0_182</title>
<path fill="none" stroke="black" d="M120.5,-210.43C120.5,-210.43 120.5,-168.65 120.5,-168.65"/>
<polygon fill="black" stroke="black" points="124,-168.65 120.5,-158.65 117,-168.65 124,-168.65"/>
</g>
<!-- c_0_190 -->
<g id="node4" class="node">
<title>c_0_190</title>
<g id="a_node4"><a xlink:href="c_0_190.html" xlink:title="{sin . sk₂(PI,2 * PI,cos) ∈ ℝ|⇊|PI ]....[ (2 * PI) = Ø|positive(diff(cos,sk₂(PI,2 * PI,cos)))}" target="_parent">
<polygon fill="#f8edd1" stroke="#7f7542" points="16.5,-16.5 16.5,-76.5 263.5,-76.5 263.5,-16.5 16.5,-16.5"/>
<text text-anchor="middle" x="140" y="-65.3" font-family="Times,serif" font-size="14.00">sin . sk₂(PI,2 * PI,cos) ∈ ℝ</text>
<polyline fill="none" stroke="#7f7542" points="16.5,-61.5 263.5,-61.5 "/>
<text text-anchor="middle" x="140" y="-50.3" font-family="Times,serif" font-size="14.00">⇊</text>
<polyline fill="none" stroke="#7f7542" points="16.5,-46.5 263.5,-46.5 "/>
<text text-anchor="middle" x="140" y="-35.3" font-family="Times,serif" font-size="14.00">PI ]....[ (2 * PI) = Ø</text>
<polyline fill="none" stroke="#7f7542" points="16.5,-31.5 263.5,-31.5 "/>
<text text-anchor="middle" x="140" y="-20.3" font-family="Times,serif" font-size="14.00">positive(diff(cos,sk₂(PI,2 * PI,cos)))</text>
</a>
</g>
</g>
<!-- c_0_182&#45;&gt;c_0_190 -->
<g id="edge3" class="edge">
<title>c_0_182&#45;&gt;c_0_190</title>
<path fill="none" stroke="black" stroke-dasharray="5,2" d="M140,-113.42C140,-113.42 140,-86.52 140,-86.52"/>
<polygon fill="black" stroke="black" points="143.5,-86.52 140,-76.52 136.5,-86.52 143.5,-86.52"/>
</g>
</g>
</svg>
