<?xml version="1.0" encoding="UTF-8" standalone="no"?>
<!DOCTYPE svg PUBLIC "-//W3C//DTD SVG 1.1//EN"
 "http://www.w3.org/Graphics/SVG/1.1/DTD/svg11.dtd">
<!-- Generated by graphviz version 5.0.0 (0)
 -->
<!-- Title: proof Pages: 1 -->
<svg width="1762pt" height="415pt"
 viewBox="0.00 0.00 1762.00 415.00" xmlns="http://www.w3.org/2000/svg" xmlns:xlink="http://www.w3.org/1999/xlink">
<g id="graph0" class="graph" transform="scale(1 1) rotate(0) translate(4 411)">
<title>proof</title>
<g id="clust1" class="cluster">
<title>cluster_0</title>
<polygon fill="transparent" stroke="black" stroke-dasharray="1,5" points="8,-247 8,-399 1746,-399 1746,-247 8,-247"/>
</g>
<g id="clust2" class="cluster">
<title>cluster_1</title>
<polygon fill="transparent" stroke="black" stroke-width="2" points="767,-120 767,-227 1063,-227 1063,-120 767,-120"/>
</g>
<g id="clust3" class="cluster">
<title>cluster_2</title>
<polygon fill="transparent" stroke="black" stroke-dasharray="1,5" points="767,-8 767,-100 1063,-100 1063,-8 767,-8"/>
</g>
<!-- c_0_184 -->
<g id="node1" class="node">
<title>c_0_184</title>
<g id="a_node1"><a xlink:href="c_0_184.html" xlink:title="{PI ∈ ℝ}" target="_parent">
<polygon fill="#f8edd1" stroke="#7f7542" points="1690.5,-315.5 1690.5,-330.5 1737.5,-330.5 1737.5,-315.5 1690.5,-315.5"/>
<text text-anchor="middle" x="1714" y="-319.3" font-family="Times,serif" font-size="14.00">PI ∈ ℝ</text>
</a>
</g>
</g>
<!-- c_0_200 -->
<g id="node10" class="node">
<title>c_0_200</title>
<g id="a_node10"><a xlink:href="c_0_200.html" xlink:title="{2 * PI ∈ ℝ|PI ]....[ (2 * PI) ⊆ ℝ|is_differentiable_on(cos,PI ]....[ (2 * PI))|sin . sk₂(PI,2 * PI,cos) ∈ ℝ|⇊|⊥}" target="_parent">
<polygon fill="#f8edd1" stroke="#7f7542" points="775,-128.5 775,-218.5 1055,-218.5 1055,-128.5 775,-128.5"/>
<text text-anchor="middle" x="915" y="-207.3" font-family="Times,serif" font-size="14.00">2 * PI ∈ ℝ</text>
<polyline fill="none" stroke="#7f7542" points="775,-203.5 1055,-203.5 "/>
<text text-anchor="middle" x="915" y="-192.3" font-family="Times,serif" font-size="14.00">PI ]....[ (2 * PI) ⊆ ℝ</text>
<polyline fill="none" stroke="#7f7542" points="775,-188.5 1055,-188.5 "/>
<text text-anchor="middle" x="915" y="-177.3" font-family="Times,serif" font-size="14.00">is_differentiable_on(cos,PI ]....[ (2 * PI))</text>
<polyline fill="none" stroke="#7f7542" points="775,-173.5 1055,-173.5 "/>
<text text-anchor="middle" x="915" y="-162.3" font-family="Times,serif" font-size="14.00">sin . sk₂(PI,2 * PI,cos) ∈ ℝ</text>
<polyline fill="none" stroke="#7f7542" points="775,-158.5 1055,-158.5 "/>
<text text-anchor="middle" x="915" y="-147.3" font-family="Times,serif" font-size="14.00">⇊</text>
<polyline fill="none" stroke="#7f7542" points="775,-143.5 1055,-143.5 "/>
<text text-anchor="middle" x="915" y="-132.3" font-family="Times,serif" font-size="14.00">⊥</text>
</a>
</g>
</g>
<!-- c_0_184&#45;&gt;c_0_200 -->
<g id="edge1" class="edge">
<title>c_0_184&#45;&gt;c_0_200</title>
<path fill="none" stroke="black" d="M1714,-315.36C1714,-284.79 1714,-173 1714,-173 1714,-173 1065.09,-173 1065.09,-173"/>
<polygon fill="black" stroke="black" points="1065.09,-169.5 1055.09,-173 1065.09,-176.5 1065.09,-169.5"/>
</g>
<!-- c_0_189 -->
<g id="node2" class="node">
<title>c_0_189</title>
<g id="a_node2"><a xlink:href="c_0_189.html" xlink:title="{X₁ ∈ bool(ℝ × ℝ)|X₂ ]....[ X₃ ⊆ dom(ℝ,X₁)|X₂ ∈ ℝ|X₃ ∈ ℝ|function(X₁)|is_differentiable_on(X₁,X₂ ]....[ X₃)|positive(diff(X₁,sk₂(X₂,X₃,X₁)))|⇊|increasing(ℝ \| ℝ \| X₁ \| (X₂ ]....[ X₃))}" target="_parent">
<polygon fill="#f8edd1" stroke="#7f7542" points="1429.5,-255.5 1429.5,-390.5 1672.5,-390.5 1672.5,-255.5 1429.5,-255.5"/>
<text text-anchor="middle" x="1551" y="-379.3" font-family="Times,serif" font-size="14.00">X₁ ∈ bool(ℝ × ℝ)</text>
<polyline fill="none" stroke="#7f7542" points="1429.5,-375.5 1672.5,-375.5 "/>
<text text-anchor="middle" x="1551" y="-364.3" font-family="Times,serif" font-size="14.00">X₂ ]....[ X₃ ⊆ dom(ℝ,X₁)</text>
<polyline fill="none" stroke="#7f7542" points="1429.5,-360.5 1672.5,-360.5 "/>
<text text-anchor="middle" x="1551" y="-349.3" font-family="Times,serif" font-size="14.00">X₂ ∈ ℝ</text>
<polyline fill="none" stroke="#7f7542" points="1429.5,-345.5 1672.5,-345.5 "/>
<text text-anchor="middle" x="1551" y="-334.3" font-family="Times,serif" font-size="14.00">X₃ ∈ ℝ</text>
<polyline fill="none" stroke="#7f7542" points="1429.5,-330.5 1672.5,-330.5 "/>
<text text-anchor="middle" x="1551" y="-319.3" font-family="Times,serif" font-size="14.00">function(X₁)</text>
<polyline fill="none" stroke="#7f7542" points="1429.5,-315.5 1672.5,-315.5 "/>
<text text-anchor="middle" x="1551" y="-304.3" font-family="Times,serif" font-size="14.00">is_differentiable_on(X₁,X₂ ]....[ X₃)</text>
<polyline fill="none" stroke="#7f7542" points="1429.5,-300.5 1672.5,-300.5 "/>
<text text-anchor="middle" x="1551" y="-289.3" font-family="Times,serif" font-size="14.00">positive(diff(X₁,sk₂(X₂,X₃,X₁)))</text>
<polyline fill="none" stroke="#7f7542" points="1429.5,-285.5 1672.5,-285.5 "/>
<text text-anchor="middle" x="1551" y="-274.3" font-family="Times,serif" font-size="14.00">⇊</text>
<polyline fill="none" stroke="#7f7542" points="1429.5,-270.5 1672.5,-270.5 "/>
<text text-anchor="middle" x="1551" y="-259.3" font-family="Times,serif" font-size="14.00">increasing(ℝ | ℝ | X₁ | (X₂ ]....[ X₃))</text>
</a>
</g>
</g>
<!-- c_0_189&#45;&gt;c_0_200 -->
<g id="edge2" class="edge">
<title>c_0_189&#45;&gt;c_0_200</title>
<path fill="none" stroke="black" d="M1429.4,-266C1278.44,-266 1040.62,-266 1040.62,-266 1040.62,-266 1040.62,-228.67 1040.62,-228.67"/>
<polygon fill="black" stroke="black" points="1044.13,-228.67 1040.62,-218.67 1037.13,-228.67 1044.13,-228.67"/>
</g>
<!-- c_0_192 -->
<g id="node3" class="node">
<title>c_0_192</title>
<g id="a_node3"><a xlink:href="c_0_192.html" xlink:title="{2 * PI ∈ ℝ|PI ]....[ (2 * PI) = Ø|PI ]....[ (2 * PI) ⊆ ℝ|is_differentiable_on(cos,PI ]....[ (2 * PI))|⇊|⊥}" target="_parent">
<polygon fill="#fa6900" stroke="#7f7542" points="1131,-278 1131,-368 1411,-368 1411,-278 1131,-278"/>
<text text-anchor="middle" x="1271" y="-356.8" font-family="Times,serif" font-size="14.00">2 * PI ∈ ℝ</text>
<polyline fill="none" stroke="#7f7542" points="1131,-353 1411,-353 "/>
<text text-anchor="middle" x="1271" y="-341.8" font-family="Times,serif" font-size="14.00">PI ]....[ (2 * PI) = Ø</text>
<polyline fill="none" stroke="#7f7542" points="1131,-338 1411,-338 "/>
<text text-anchor="middle" x="1271" y="-326.8" font-family="Times,serif" font-size="14.00">PI ]....[ (2 * PI) ⊆ ℝ</text>
<polyline fill="none" stroke="#7f7542" points="1131,-323 1411,-323 "/>
<text text-anchor="middle" x="1271" y="-311.8" font-family="Times,serif" font-size="14.00">is_differentiable_on(cos,PI ]....[ (2 * PI))</text>
<polyline fill="none" stroke="#7f7542" points="1131,-308 1411,-308 "/>
<text text-anchor="middle" x="1271" y="-296.8" font-family="Times,serif" font-size="14.00">⇊</text>
<polyline fill="none" stroke="#7f7542" points="1131,-293 1411,-293 "/>
<text text-anchor="middle" x="1271" y="-281.8" font-family="Times,serif" font-size="14.00">⊥</text>
</a>
</g>
</g>
<!-- c_0_192&#45;&gt;c_0_200 -->
<g id="edge3" class="edge">
<title>c_0_192&#45;&gt;c_0_200</title>
<path fill="none" stroke="black" d="M1130.76,-285C1076.07,-285 1026.25,-285 1026.25,-285 1026.25,-285 1026.25,-228.53 1026.25,-228.53"/>
<polygon fill="black" stroke="black" points="1029.75,-228.53 1026.25,-218.53 1022.75,-228.53 1029.75,-228.53"/>
</g>
<!-- c_0_96 -->
<g id="node4" class="node">
<title>c_0_96</title>
<g id="a_node4"><a xlink:href="c_0_96.html" xlink:title="{dom(ℝ,cos) = ℝ}" target="_parent">
<polygon fill="#f8edd1" stroke="#7f7542" points="997.5,-315.5 997.5,-330.5 1112.5,-330.5 1112.5,-315.5 997.5,-315.5"/>
<text text-anchor="middle" x="1055" y="-319.3" font-family="Times,serif" font-size="14.00">dom(ℝ,cos) = ℝ</text>
</a>
</g>
</g>
<!-- c_0_96&#45;&gt;c_0_200 -->
<g id="edge4" class="edge">
<title>c_0_96&#45;&gt;c_0_200</title>
<path fill="none" stroke="black" d="M1011.88,-315.38C1011.88,-315.38 1011.88,-228.54 1011.88,-228.54"/>
<polygon fill="black" stroke="black" points="1015.38,-228.54 1011.88,-218.54 1008.38,-228.55 1015.38,-228.54"/>
</g>
<!-- c_0_98 -->
<g id="node5" class="node">
<title>c_0_98</title>
<g id="a_node5"><a xlink:href="c_0_98.html" xlink:title="{cos ∈ bool(ℝ × ℝ)}" target="_parent">
<polygon fill="#f8edd1" stroke="#7f7542" points="850.5,-315.5 850.5,-330.5 979.5,-330.5 979.5,-315.5 850.5,-315.5"/>
<text text-anchor="middle" x="915" y="-319.3" font-family="Times,serif" font-size="14.00">cos ∈ bool(ℝ × ℝ)</text>
</a>
</g>
</g>
<!-- c_0_98&#45;&gt;c_0_200 -->
<g id="edge5" class="edge">
<title>c_0_98&#45;&gt;c_0_200</title>
<path fill="none" stroke="black" d="M915,-315.38C915,-315.38 915,-228.54 915,-228.54"/>
<polygon fill="black" stroke="black" points="918.5,-228.54 915,-218.54 911.5,-228.55 918.5,-228.54"/>
</g>
<!-- c_0_164 -->
<g id="node6" class="node">
<title>c_0_164</title>
<g id="a_node6"><a xlink:href="c_0_164.html" xlink:title="{¬ (increasing(ℝ \| ℝ \| cos \| (PI ]....[ (2 * PI))))}" target="_parent">
<polygon fill="#fa6900" stroke="#7f7542" points="519.5,-315.5 519.5,-330.5 832.5,-330.5 832.5,-315.5 519.5,-315.5"/>
<text text-anchor="middle" x="676" y="-319.3" font-family="Times,serif" font-size="14.00">¬ (increasing(ℝ | ℝ | cos | (PI ]....[ (2 * PI))))</text>
</a>
</g>
</g>
<!-- c_0_164&#45;&gt;c_0_200 -->
<g id="edge6" class="edge">
<title>c_0_164&#45;&gt;c_0_200</title>
<path fill="none" stroke="black" d="M813.33,-315.38C813.33,-315.38 813.33,-228.54 813.33,-228.54"/>
<polygon fill="black" stroke="black" points="816.83,-228.54 813.33,-218.54 809.83,-228.55 816.83,-228.54"/>
</g>
<!-- c_0_190 -->
<g id="node7" class="node">
<title>c_0_190</title>
<g id="a_node7"><a xlink:href="c_0_190.html" xlink:title="{sin . sk₂(PI,2 * PI,cos) ∈ ℝ|⇊|PI ]....[ (2 * PI) = Ø|positive(diff(cos,sk₂(PI,2 * PI,cos)))}" target="_parent">
<polygon fill="#f8edd1" stroke="#7f7542" points="254.5,-293 254.5,-353 501.5,-353 501.5,-293 254.5,-293"/>
<text text-anchor="middle" x="378" y="-341.8" font-family="Times,serif" font-size="14.00">sin . sk₂(PI,2 * PI,cos) ∈ ℝ</text>
<polyline fill="none" stroke="#7f7542" points="254.5,-338 501.5,-338 "/>
<text text-anchor="middle" x="378" y="-326.8" font-family="Times,serif" font-size="14.00">⇊</text>
<polyline fill="none" stroke="#7f7542" points="254.5,-323 501.5,-323 "/>
<text text-anchor="middle" x="378" y="-311.8" font-family="Times,serif" font-size="14.00">PI ]....[ (2 * PI) = Ø</text>
<polyline fill="none" stroke="#7f7542" points="254.5,-308 501.5,-308 "/>
<text text-anchor="middle" x="378" y="-296.8" font-family="Times,serif" font-size="14.00">positive(diff(cos,sk₂(PI,2 * PI,cos)))</text>
</a>
</g>
</g>
<!-- c_0_190&#45;&gt;c_0_200 -->
<g id="edge7" class="edge">
<title>c_0_190&#45;&gt;c_0_200</title>
<path fill="none" stroke="black" d="M501.74,-303C624.41,-303 794.17,-303 794.17,-303 794.17,-303 794.17,-228.79 794.17,-228.79"/>
<polygon fill="black" stroke="black" points="797.67,-228.79 794.17,-218.79 790.67,-228.79 797.67,-228.79"/>
</g>
<!-- c_0_97 -->
<g id="node8" class="node">
<title>c_0_97</title>
<g id="a_node8"><a xlink:href="c_0_97.html" xlink:title="{function(cos)}" target="_parent">
<polygon fill="#f8edd1" stroke="#7f7542" points="143.5,-315.5 143.5,-330.5 236.5,-330.5 236.5,-315.5 143.5,-315.5"/>
<text text-anchor="middle" x="190" y="-319.3" font-family="Times,serif" font-size="14.00">function(cos)</text>
</a>
</g>
</g>
<!-- c_0_97&#45;&gt;c_0_200 -->
<g id="edge8" class="edge">
<title>c_0_97&#45;&gt;c_0_200</title>
<path fill="none" stroke="black" d="M190,-315.36C190,-286.8 190,-188 190,-188 190,-188 764.78,-188 764.78,-188"/>
<polygon fill="black" stroke="black" points="764.78,-191.5 774.78,-188 764.78,-184.5 764.78,-191.5"/>
</g>
<!-- c_0_191 -->
<g id="node9" class="node">
<title>c_0_191</title>
<g id="a_node9"><a xlink:href="c_0_191.html" xlink:title="{sin . R₁ ∈ ℝ|⇊|diff(cos,R₁) ∈ ℝ}" target="_parent">
<polygon fill="#f8edd1" stroke="#7f7542" points="16.5,-300.5 16.5,-345.5 125.5,-345.5 125.5,-300.5 16.5,-300.5"/>
<text text-anchor="middle" x="71" y="-334.3" font-family="Times,serif" font-size="14.00">sin . R₁ ∈ ℝ</text>
<polyline fill="none" stroke="#7f7542" points="16.5,-330.5 125.5,-330.5 "/>
<text text-anchor="middle" x="71" y="-319.3" font-family="Times,serif" font-size="14.00">⇊</text>
<polyline fill="none" stroke="#7f7542" points="16.5,-315.5 125.5,-315.5 "/>
<text text-anchor="middle" x="71" y="-304.3" font-family="Times,serif" font-size="14.00">diff(cos,R₁) ∈ ℝ</text>
</a>
</g>
</g>
<!-- c_0_191&#45;&gt;c_0_200 -->
<g id="edge9" class="edge">
<title>c_0_191&#45;&gt;c_0_200</title>
<path fill="none" stroke="black" d="M71,-300.4C71,-255.21 71,-158 71,-158 71,-158 764.68,-158 764.68,-158"/>
<polygon fill="black" stroke="black" points="764.68,-161.5 774.68,-158 764.68,-154.5 764.68,-161.5"/>
</g>
<!-- c_0_209 -->
<g id="node11" class="node">
<title>c_0_209</title>
<g id="a_node11"><a xlink:href="c_0_209.html" xlink:title="{2 * PI ∈ ℝ|PI ]....[ (2 * PI) ⊆ ℝ|is_differentiable_on(cos,PI ]....[ (2 * PI))|⇊|⊥}" target="_parent">
<polygon fill="#f8edd1" stroke="#7f7542" points="775,-16.5 775,-91.5 1055,-91.5 1055,-16.5 775,-16.5"/>
<text text-anchor="middle" x="915" y="-80.3" font-family="Times,serif" font-size="14.00">2 * PI ∈ ℝ</text>
<polyline fill="none" stroke="#7f7542" points="775,-76.5 1055,-76.5 "/>
<text text-anchor="middle" x="915" y="-65.3" font-family="Times,serif" font-size="14.00">PI ]....[ (2 * PI) ⊆ ℝ</text>
<polyline fill="none" stroke="#7f7542" points="775,-61.5 1055,-61.5 "/>
<text text-anchor="middle" x="915" y="-50.3" font-family="Times,serif" font-size="14.00">is_differentiable_on(cos,PI ]....[ (2 * PI))</text>
<polyline fill="none" stroke="#7f7542" points="775,-46.5 1055,-46.5 "/>
<text text-anchor="middle" x="915" y="-35.3" font-family="Times,serif" font-size="14.00">⇊</text>
<polyline fill="none" stroke="#7f7542" points="775,-31.5 1055,-31.5 "/>
<text text-anchor="middle" x="915" y="-20.3" font-family="Times,serif" font-size="14.00">⊥</text>
</a>
</g>
</g>
<!-- c_0_200&#45;&gt;c_0_209 -->
<g id="edge10" class="edge">
<title>c_0_200&#45;&gt;c_0_209</title>
<path fill="none" stroke="black" stroke-dasharray="5,2" d="M915,-128.32C915,-128.32 915,-101.83 915,-101.83"/>
<polygon fill="black" stroke="black" points="918.5,-101.83 915,-91.83 911.5,-101.83 918.5,-101.83"/>
</g>
</g>
</svg>
