<?xml version="1.0" encoding="UTF-8" standalone="no"?>
<!DOCTYPE svg PUBLIC "-//W3C//DTD SVG 1.1//EN"
 "http://www.w3.org/Graphics/SVG/1.1/DTD/svg11.dtd">
<!-- Generated by graphviz version 5.0.0 (0)
 -->
<!-- Title: proof Pages: 1 -->
<svg width="633pt" height="340pt"
 viewBox="0.00 0.00 633.00 340.00" xmlns="http://www.w3.org/2000/svg" xmlns:xlink="http://www.w3.org/1999/xlink">
<g id="graph0" class="graph" transform="scale(1 1) rotate(0) translate(4 336)">
<title>proof</title>
<g id="clust1" class="cluster">
<title>cluster_0</title>
<polygon fill="transparent" stroke="black" stroke-dasharray="1,5" points="8,-217 8,-324 460,-324 460,-217 8,-217"/>
</g>
<g id="clust2" class="cluster">
<title>cluster_1</title>
<polygon fill="transparent" stroke="black" stroke-width="2" points="142,-105 142,-197 396,-197 396,-105 142,-105"/>
</g>
<g id="clust3" class="cluster">
<title>cluster_2</title>
<polygon fill="transparent" stroke="black" stroke-dasharray="1,5" points="11,-8 11,-85 617,-85 617,-8 11,-8"/>
</g>
<!-- c_0_121 -->
<g id="node1" class="node">
<title>c_0_121</title>
<g id="a_node1"><a xlink:href="c_0_121.html" xlink:title="{R₁ ∈ 𝔼}" target="_parent">
<polygon fill="#f8edd1" stroke="#7f7542" points="406,-263 406,-278 452,-278 452,-263 406,-263"/>
<text text-anchor="middle" x="429" y="-266.8" font-family="Times,serif" font-size="14.00">R₁ ∈ 𝔼</text>
</a>
</g>
</g>
<!-- c_0_138 -->
<g id="node4" class="node">
<title>c_0_138</title>
<g id="a_node4"><a xlink:href="c_0_138.html" xlink:title="{X₁ ∈ bool(ℝ × ℝ)|function(X₁)|is_differentiable_on(X₁,ℝ)|⇊|is_differentiable_on(X₁,R₂ ]....[ R₃)}" target="_parent">
<polygon fill="#f8edd1" stroke="#7f7542" points="150,-113.5 150,-188.5 388,-188.5 388,-113.5 150,-113.5"/>
<text text-anchor="middle" x="269" y="-177.3" font-family="Times,serif" font-size="14.00">X₁ ∈ bool(ℝ × ℝ)</text>
<polyline fill="none" stroke="#7f7542" points="150,-173.5 388,-173.5 "/>
<text text-anchor="middle" x="269" y="-162.3" font-family="Times,serif" font-size="14.00">function(X₁)</text>
<polyline fill="none" stroke="#7f7542" points="150,-158.5 388,-158.5 "/>
<text text-anchor="middle" x="269" y="-147.3" font-family="Times,serif" font-size="14.00">is_differentiable_on(X₁,ℝ)</text>
<polyline fill="none" stroke="#7f7542" points="150,-143.5 388,-143.5 "/>
<text text-anchor="middle" x="269" y="-132.3" font-family="Times,serif" font-size="14.00">⇊</text>
<polyline fill="none" stroke="#7f7542" points="150,-128.5 388,-128.5 "/>
<text text-anchor="middle" x="269" y="-117.3" font-family="Times,serif" font-size="14.00">is_differentiable_on(X₁,R₂ ]....[ R₃)</text>
</a>
</g>
</g>
<!-- c_0_121&#45;&gt;c_0_138 -->
<g id="edge1" class="edge">
<title>c_0_121&#45;&gt;c_0_138</title>
<path fill="none" stroke="black" d="M429,-262.66C429,-236.07 429,-151 429,-151 429,-151 398.21,-151 398.21,-151"/>
<polygon fill="black" stroke="black" points="398.21,-147.5 388.21,-151 398.21,-154.5 398.21,-147.5"/>
</g>
<!-- c_0_119 -->
<g id="node2" class="node">
<title>c_0_119</title>
<g id="a_node2"><a xlink:href="c_0_119.html" xlink:title="{X₁ ∈ bool(ℝ × ℝ)|function(X₁)|is_differentiable_on(X₁,ℝ)|open(E₂ ]....[ E₃)|⇊|is_differentiable_on(X₁,E₂ ]....[ E₃)}" target="_parent">
<polygon fill="#f8edd1" stroke="#7f7542" points="150,-225.5 150,-315.5 388,-315.5 388,-225.5 150,-225.5"/>
<text text-anchor="middle" x="269" y="-304.3" font-family="Times,serif" font-size="14.00">X₁ ∈ bool(ℝ × ℝ)</text>
<polyline fill="none" stroke="#7f7542" points="150,-300.5 388,-300.5 "/>
<text text-anchor="middle" x="269" y="-289.3" font-family="Times,serif" font-size="14.00">function(X₁)</text>
<polyline fill="none" stroke="#7f7542" points="150,-285.5 388,-285.5 "/>
<text text-anchor="middle" x="269" y="-274.3" font-family="Times,serif" font-size="14.00">is_differentiable_on(X₁,ℝ)</text>
<polyline fill="none" stroke="#7f7542" points="150,-270.5 388,-270.5 "/>
<text text-anchor="middle" x="269" y="-259.3" font-family="Times,serif" font-size="14.00">open(E₂ ]....[ E₃)</text>
<polyline fill="none" stroke="#7f7542" points="150,-255.5 388,-255.5 "/>
<text text-anchor="middle" x="269" y="-244.3" font-family="Times,serif" font-size="14.00">⇊</text>
<polyline fill="none" stroke="#7f7542" points="150,-240.5 388,-240.5 "/>
<text text-anchor="middle" x="269" y="-229.3" font-family="Times,serif" font-size="14.00">is_differentiable_on(X₁,E₂ ]....[ E₃)</text>
</a>
</g>
</g>
<!-- c_0_119&#45;&gt;c_0_138 -->
<g id="edge2" class="edge">
<title>c_0_119&#45;&gt;c_0_138</title>
<path fill="none" stroke="black" d="M269,-225.32C269,-225.32 269,-198.83 269,-198.83"/>
<polygon fill="black" stroke="black" points="272.5,-198.83 269,-188.83 265.5,-198.83 272.5,-198.83"/>
</g>
<!-- c_0_120 -->
<g id="node3" class="node">
<title>c_0_120</title>
<g id="a_node3"><a xlink:href="c_0_120.html" xlink:title="{open(R₁ ]....[ R₂)}" target="_parent">
<polygon fill="#f8edd1" stroke="#7f7542" points="16.5,-263 16.5,-278 131.5,-278 131.5,-263 16.5,-263"/>
<text text-anchor="middle" x="74" y="-266.8" font-family="Times,serif" font-size="14.00">open(R₁ ]....[ R₂)</text>
</a>
</g>
</g>
<!-- c_0_120&#45;&gt;c_0_138 -->
<g id="edge3" class="edge">
<title>c_0_120&#45;&gt;c_0_138</title>
<path fill="none" stroke="black" d="M75.5,-262.66C75.5,-236.07 75.5,-151 75.5,-151 75.5,-151 139.76,-151 139.76,-151"/>
<polygon fill="black" stroke="black" points="139.76,-154.5 149.76,-151 139.76,-147.5 139.76,-154.5"/>
</g>
<!-- c_0_151 -->
<g id="node5" class="node">
<title>c_0_151</title>
<g id="a_node5"><a xlink:href="c_0_151.html" xlink:title="{increasing(ℝ \| ℝ \| cos \| (R₁ ]....[ R₂))|sk₂(R₁,R₂,cos) ∈ R₁ ]....[ R₂}" target="_parent">
<polygon fill="#f8edd1" stroke="#7f7542" points="355.5,-31.5 355.5,-61.5 608.5,-61.5 608.5,-31.5 355.5,-31.5"/>
<text text-anchor="middle" x="482" y="-50.3" font-family="Times,serif" font-size="14.00">increasing(ℝ | ℝ | cos | (R₁ ]....[ R₂))</text>
<polyline fill="none" stroke="#7f7542" points="355.5,-46.5 608.5,-46.5 "/>
<text text-anchor="middle" x="482" y="-35.3" font-family="Times,serif" font-size="14.00">sk₂(R₁,R₂,cos) ∈ R₁ ]....[ R₂</text>
</a>
</g>
</g>
<!-- c_0_138&#45;&gt;c_0_151 -->
<g id="edge4" class="edge">
<title>c_0_138&#45;&gt;c_0_151</title>
<path fill="none" stroke="black" stroke-dasharray="5,2" d="M371.75,-113.27C371.75,-113.27 371.75,-71.54 371.75,-71.54"/>
<polygon fill="black" stroke="black" points="375.25,-71.54 371.75,-61.54 368.25,-71.54 375.25,-71.54"/>
</g>
<!-- c_0_212 -->
<g id="node6" class="node">
<title>c_0_212</title>
<g id="a_node6"><a xlink:href="c_0_212.html" xlink:title="{PI ]....[ (2 * PI) = Ø|PI ]....[ (2 * PI) ⊆ ℝ|⇊|⊥}" target="_parent">
<polygon fill="#fa6900" stroke="#7f7542" points="201,-16.5 201,-76.5 337,-76.5 337,-16.5 201,-16.5"/>
<text text-anchor="middle" x="269" y="-65.3" font-family="Times,serif" font-size="14.00">PI ]....[ (2 * PI) = Ø</text>
<polyline fill="none" stroke="#7f7542" points="201,-61.5 337,-61.5 "/>
<text text-anchor="middle" x="269" y="-50.3" font-family="Times,serif" font-size="14.00">PI ]....[ (2 * PI) ⊆ ℝ</text>
<polyline fill="none" stroke="#7f7542" points="201,-46.5 337,-46.5 "/>
<text text-anchor="middle" x="269" y="-35.3" font-family="Times,serif" font-size="14.00">⇊</text>
<polyline fill="none" stroke="#7f7542" points="201,-31.5 337,-31.5 "/>
<text text-anchor="middle" x="269" y="-20.3" font-family="Times,serif" font-size="14.00">⊥</text>
</a>
</g>
</g>
<!-- c_0_138&#45;&gt;c_0_212 -->
<g id="edge5" class="edge">
<title>c_0_138&#45;&gt;c_0_212</title>
<path fill="none" stroke="black" stroke-dasharray="5,2" d="M269,-113.27C269,-113.27 269,-86.64 269,-86.64"/>
<polygon fill="black" stroke="black" points="272.5,-86.64 269,-76.64 265.5,-86.64 272.5,-86.64"/>
</g>
<!-- c_0_215 -->
<g id="node7" class="node">
<title>c_0_215</title>
<g id="a_node7"><a xlink:href="c_0_215.html" xlink:title="{¬ (PI ]....[ (2 * PI) ⊆ ℝ)}" target="_parent">
<polygon fill="#f8edd1" stroke="#7f7542" points="19.5,-39 19.5,-54 182.5,-54 182.5,-39 19.5,-39"/>
<text text-anchor="middle" x="101" y="-42.8" font-family="Times,serif" font-size="14.00">¬ (PI ]....[ (2 * PI) ⊆ ℝ)</text>
</a>
</g>
</g>
<!-- c_0_138&#45;&gt;c_0_215 -->
<g id="edge6" class="edge">
<title>c_0_138&#45;&gt;c_0_215</title>
<path fill="none" stroke="black" stroke-dasharray="5,2" d="M166.25,-113.27C166.25,-113.27 166.25,-64.27 166.25,-64.27"/>
<polygon fill="black" stroke="black" points="169.75,-64.27 166.25,-54.27 162.75,-64.27 169.75,-64.27"/>
</g>
</g>
</svg>
