<?xml version="1.0" encoding="UTF-8" standalone="no"?>
<!DOCTYPE svg PUBLIC "-//W3C//DTD SVG 1.1//EN"
 "http://www.w3.org/Graphics/SVG/1.1/DTD/svg11.dtd">
<!-- Generated by graphviz version 5.0.0 (0)
 -->
<!-- Title: proof Pages: 1 -->
<svg width="300pt" height="250pt"
 viewBox="0.00 0.00 300.00 250.00" xmlns="http://www.w3.org/2000/svg" xmlns:xlink="http://www.w3.org/1999/xlink">
<g id="graph0" class="graph" transform="scale(1 1) rotate(0) translate(4 246)">
<title>proof</title>
<g id="clust1" class="cluster">
<title>cluster_0</title>
<polygon fill="transparent" stroke="black" stroke-dasharray="1,5" points="8,-172 8,-234 284,-234 284,-172 8,-172"/>
</g>
<g id="clust2" class="cluster">
<title>cluster_1</title>
<polygon fill="transparent" stroke="black" stroke-width="2" points="61,-90 61,-152 233,-152 233,-90 61,-90"/>
</g>
<g id="clust3" class="cluster">
<title>cluster_2</title>
<polygon fill="transparent" stroke="black" stroke-dasharray="1,5" points="91,-8 91,-70 203,-70 203,-8 91,-8"/>
</g>
<!-- c_0_73 -->
<g id="node1" class="node">
<title>c_0_73</title>
<g id="a_node1"><a xlink:href="c_0_73.html" xlink:title="{X₁ ∈ ℝ|⇊|&#45;(&#45;(X₁)) = X₁}" target="_parent">
<polygon fill="#f8edd1" stroke="#7f7542" points="194,-180.5 194,-225.5 276,-225.5 276,-180.5 194,-180.5"/>
<text text-anchor="middle" x="235" y="-214.3" font-family="Times,serif" font-size="14.00">X₁ ∈ ℝ</text>
<polyline fill="none" stroke="#7f7542" points="194,-210.5 276,-210.5 "/>
<text text-anchor="middle" x="235" y="-199.3" font-family="Times,serif" font-size="14.00">⇊</text>
<polyline fill="none" stroke="#7f7542" points="194,-195.5 276,-195.5 "/>
<text text-anchor="middle" x="235" y="-184.3" font-family="Times,serif" font-size="14.00">&#45;(&#45;(X₁)) = X₁</text>
</a>
</g>
</g>
<!-- c_0_115 -->
<g id="node3" class="node">
<title>c_0_115</title>
<g id="a_node3"><a xlink:href="c_0_115.html" xlink:title="{X₁ ∈ ℝ|⇊|&#45;(&#45;(X₁),N₂) = &#45;(&#45;(N₂),X₁)}" target="_parent">
<polygon fill="#f8edd1" stroke="#7f7542" points="69.5,-98.5 69.5,-143.5 224.5,-143.5 224.5,-98.5 69.5,-98.5"/>
<text text-anchor="middle" x="147" y="-132.3" font-family="Times,serif" font-size="14.00">X₁ ∈ ℝ</text>
<polyline fill="none" stroke="#7f7542" points="69.5,-128.5 224.5,-128.5 "/>
<text text-anchor="middle" x="147" y="-117.3" font-family="Times,serif" font-size="14.00">⇊</text>
<polyline fill="none" stroke="#7f7542" points="69.5,-113.5 224.5,-113.5 "/>
<text text-anchor="middle" x="147" y="-102.3" font-family="Times,serif" font-size="14.00">&#45;(&#45;(X₁),N₂) = &#45;(&#45;(N₂),X₁)</text>
</a>
</g>
</g>
<!-- c_0_73&#45;&gt;c_0_115 -->
<g id="edge1" class="edge">
<title>c_0_73&#45;&gt;c_0_115</title>
<path fill="none" stroke="black" d="M209.25,-180.16C209.25,-180.16 209.25,-153.72 209.25,-153.72"/>
<polygon fill="black" stroke="black" points="212.75,-153.72 209.25,-143.72 205.75,-153.72 212.75,-153.72"/>
</g>
<!-- c_0_90 -->
<g id="node2" class="node">
<title>c_0_90</title>
<g id="a_node2"><a xlink:href="c_0_90.html" xlink:title="{&#45;(&#45;(N₁),&#45;(N₂)) = &#45;(N₂,N₁)}" target="_parent">
<polygon fill="#f8edd1" stroke="#7f7542" points="16,-195.5 16,-210.5 176,-210.5 176,-195.5 16,-195.5"/>
<text text-anchor="middle" x="96" y="-199.3" font-family="Times,serif" font-size="14.00">&#45;(&#45;(N₁),&#45;(N₂)) = &#45;(N₂,N₁)</text>
</a>
</g>
</g>
<!-- c_0_90&#45;&gt;c_0_115 -->
<g id="edge2" class="edge">
<title>c_0_90&#45;&gt;c_0_115</title>
<path fill="none" stroke="black" d="M122.75,-195.43C122.75,-195.43 122.75,-153.65 122.75,-153.65"/>
<polygon fill="black" stroke="black" points="126.25,-153.65 122.75,-143.65 119.25,-153.65 126.25,-153.65"/>
</g>
<!-- c_0_133 -->
<g id="node4" class="node">
<title>c_0_133</title>
<g id="a_node4"><a xlink:href="c_0_133.html" xlink:title="{X₁ ∈ ℝ|⇊|&#45;(X₁) = &#45;(0,X₁)}" target="_parent">
<polygon fill="#f8edd1" stroke="#7f7542" points="99.5,-16.5 99.5,-61.5 194.5,-61.5 194.5,-16.5 99.5,-16.5"/>
<text text-anchor="middle" x="147" y="-50.3" font-family="Times,serif" font-size="14.00">X₁ ∈ ℝ</text>
<polyline fill="none" stroke="#7f7542" points="99.5,-46.5 194.5,-46.5 "/>
<text text-anchor="middle" x="147" y="-35.3" font-family="Times,serif" font-size="14.00">⇊</text>
<polyline fill="none" stroke="#7f7542" points="99.5,-31.5 194.5,-31.5 "/>
<text text-anchor="middle" x="147" y="-20.3" font-family="Times,serif" font-size="14.00">&#45;(X₁) = &#45;(0,X₁)</text>
</a>
</g>
</g>
<!-- c_0_115&#45;&gt;c_0_133 -->
<g id="edge3" class="edge">
<title>c_0_115&#45;&gt;c_0_133</title>
<path fill="none" stroke="black" stroke-dasharray="5,2" d="M147,-98.16C147,-98.16 147,-71.72 147,-71.72"/>
<polygon fill="black" stroke="black" points="150.5,-71.72 147,-61.72 143.5,-71.72 150.5,-71.72"/>
</g>
</g>
</svg>
