<?xml version="1.0" encoding="UTF-8" standalone="no"?>
<!DOCTYPE svg PUBLIC "-//W3C//DTD SVG 1.1//EN"
 "http://www.w3.org/Graphics/SVG/1.1/DTD/svg11.dtd">
<!-- Generated by graphviz version 5.0.0 (0)
 -->
<!-- Title: proof Pages: 1 -->
<svg width="218pt" height="220pt"
 viewBox="0.00 0.00 218.00 220.00" xmlns="http://www.w3.org/2000/svg" xmlns:xlink="http://www.w3.org/1999/xlink">
<g id="graph0" class="graph" transform="scale(1 1) rotate(0) translate(4 216)">
<title>proof</title>
<g id="clust1" class="cluster">
<title>cluster_0</title>
<polygon fill="transparent" stroke="black" stroke-dasharray="1,5" points="8,-172 8,-204 202,-204 202,-172 8,-172"/>
</g>
<g id="clust2" class="cluster">
<title>cluster_1</title>
<polygon fill="transparent" stroke="black" stroke-width="2" points="39,-90 39,-152 171,-152 171,-90 39,-90"/>
</g>
<g id="clust3" class="cluster">
<title>cluster_2</title>
<polygon fill="transparent" stroke="black" stroke-dasharray="1,5" points="57,-8 57,-70 153,-70 153,-8 57,-8"/>
</g>
<!-- commutativity_k8_real_1 -->
<g id="node1" class="node">
<title>commutativity_k8_real_1</title>
<g id="a_node1"><a xlink:href="commutativity_k8_real_1.html" xlink:title="commutativity_k8_real_1" target="_vizar">
<polygon fill="#69d2e7" stroke="#7f7542" points="16,-180.5 16,-195.5 194,-195.5 194,-180.5 16,-180.5"/>
<text text-anchor="middle" x="105" y="-184.3" font-family="Times,serif" font-size="14.00">commutativity_k8_real_1</text>
</a>
</g>
</g>
<!-- c_0_188 -->
<g id="node2" class="node">
<title>c_0_188</title>
<g id="a_node2"><a xlink:href="c_0_188.html" xlink:title="{X₁ ∈ ℝ|⇊|X₁ * R₂ = R₂ * X₁}" target="_vizar">
<polygon fill="#f8edd1" stroke="#7f7542" points="47.5,-98.5 47.5,-143.5 162.5,-143.5 162.5,-98.5 47.5,-98.5"/>
<text text-anchor="middle" x="105" y="-132.3" font-family="Times,serif" font-size="14.00">X₁ ∈ ℝ</text>
<polyline fill="none" stroke="#7f7542" points="47.5,-128.5 162.5,-128.5 "/>
<text text-anchor="middle" x="105" y="-117.3" font-family="Times,serif" font-size="14.00">⇊</text>
<polyline fill="none" stroke="#7f7542" points="47.5,-113.5 162.5,-113.5 "/>
<text text-anchor="middle" x="105" y="-102.3" font-family="Times,serif" font-size="14.00">X₁ * R₂ = R₂ * X₁</text>
</a>
</g>
</g>
<!-- commutativity_k8_real_1&#45;&gt;c_0_188 -->
<g id="edge1" class="edge">
<title>commutativity_k8_real_1&#45;&gt;c_0_188</title>
<path fill="none" stroke="black" d="M105,-180.31C105,-180.31 105,-153.76 105,-153.76"/>
<polygon fill="black" stroke="black" points="108.5,-153.76 105,-143.76 101.5,-153.76 108.5,-153.76"/>
</g>
<!-- c_0_198 -->
<g id="node3" class="node">
<title>c_0_198</title>
<g id="a_node3"><a xlink:href="c_0_198.html" xlink:title="{X₂ ∈ ℝ|⇊|R₁ * X₂ ∈ ℝ}" target="_vizar">
<polygon fill="#f8edd1" stroke="#7f7542" points="65.5,-16.5 65.5,-61.5 144.5,-61.5 144.5,-16.5 65.5,-16.5"/>
<text text-anchor="middle" x="105" y="-50.3" font-family="Times,serif" font-size="14.00">X₂ ∈ ℝ</text>
<polyline fill="none" stroke="#7f7542" points="65.5,-46.5 144.5,-46.5 "/>
<text text-anchor="middle" x="105" y="-35.3" font-family="Times,serif" font-size="14.00">⇊</text>
<polyline fill="none" stroke="#7f7542" points="65.5,-31.5 144.5,-31.5 "/>
<text text-anchor="middle" x="105" y="-20.3" font-family="Times,serif" font-size="14.00">R₁ * X₂ ∈ ℝ</text>
</a>
</g>
</g>
<!-- c_0_188&#45;&gt;c_0_198 -->
<g id="edge2" class="edge">
<title>c_0_188&#45;&gt;c_0_198</title>
<path fill="none" stroke="black" stroke-dasharray="5,2" d="M105,-98.16C105,-98.16 105,-71.72 105,-71.72"/>
<polygon fill="black" stroke="black" points="108.5,-71.72 105,-61.72 101.5,-71.72 108.5,-71.72"/>
</g>
</g>
</svg>
