<?xml version="1.0" encoding="UTF-8" standalone="no"?>
<!DOCTYPE svg PUBLIC "-//W3C//DTD SVG 1.1//EN"
 "http://www.w3.org/Graphics/SVG/1.1/DTD/svg11.dtd">
<!-- Generated by graphviz version 5.0.0 (0)
 -->
<!-- Title: proof Pages: 1 -->
<svg width="284pt" height="325pt"
 viewBox="0.00 0.00 284.00 325.00" xmlns="http://www.w3.org/2000/svg" xmlns:xlink="http://www.w3.org/1999/xlink">
<g id="graph0" class="graph" transform="scale(1 1) rotate(0) translate(4 321)">
<title>proof</title>
<g id="clust1" class="cluster">
<title>cluster_0</title>
<polygon fill="transparent" stroke="black" stroke-dasharray="1,5" points="99,-277 99,-309 177,-309 177,-277 99,-277"/>
</g>
<g id="clust2" class="cluster">
<title>cluster_1</title>
<polygon fill="transparent" stroke="black" stroke-width="2" points="105,-180 105,-257 171,-257 171,-180 105,-180"/>
</g>
<g id="clust3" class="cluster">
<title>cluster_2</title>
<polygon fill="transparent" stroke="black" stroke-dasharray="1,5" points="8,-8 8,-160 268,-160 268,-8 8,-8"/>
</g>
<!-- t7_boole -->
<g id="node1" class="node">
<title>t7_boole</title>
<g id="a_node1"><a xlink:href="t7_boole.html" xlink:title="t7_boole" target="_vizar">
<polygon fill="#69d2e7" stroke="#7f7542" points="107.5,-285.5 107.5,-300.5 168.5,-300.5 168.5,-285.5 107.5,-285.5"/>
<text text-anchor="middle" x="138" y="-289.3" font-family="Times,serif" font-size="14.00">t7_boole</text>
</a>
</g>
</g>
<!-- c_0_175 -->
<g id="node2" class="node">
<title>c_0_175</title>
<g id="a_node2"><a xlink:href="c_0_175.html" xlink:title="{X₁ ∈ X₂|X₂ = Ø|⇊|⊥}" target="_vizar">
<polygon fill="#f8edd1" stroke="#7f7542" points="113,-188.5 113,-248.5 163,-248.5 163,-188.5 113,-188.5"/>
<text text-anchor="middle" x="138" y="-237.3" font-family="Times,serif" font-size="14.00">X₁ ∈ X₂</text>
<polyline fill="none" stroke="#7f7542" points="113,-233.5 163,-233.5 "/>
<text text-anchor="middle" x="138" y="-222.3" font-family="Times,serif" font-size="14.00">X₂ = Ø</text>
<polyline fill="none" stroke="#7f7542" points="113,-218.5 163,-218.5 "/>
<text text-anchor="middle" x="138" y="-207.3" font-family="Times,serif" font-size="14.00">⇊</text>
<polyline fill="none" stroke="#7f7542" points="113,-203.5 163,-203.5 "/>
<text text-anchor="middle" x="138" y="-192.3" font-family="Times,serif" font-size="14.00">⊥</text>
</a>
</g>
</g>
<!-- t7_boole&#45;&gt;c_0_175 -->
<g id="edge1" class="edge">
<title>t7_boole&#45;&gt;c_0_175</title>
<path fill="none" stroke="black" d="M138,-285.31C138,-285.31 138,-258.51 138,-258.51"/>
<polygon fill="black" stroke="black" points="141.5,-258.51 138,-248.51 134.5,-258.51 141.5,-258.51"/>
</g>
<!-- c_0_183 -->
<g id="node3" class="node">
<title>c_0_183</title>
<g id="a_node3"><a xlink:href="c_0_183.html" xlink:title="{X₁ ∈ bool(ℝ × ℝ)|X₂ ]....[ X₃ = Ø|X₂ ]....[ X₃ ⊆ dom(ℝ,X₁)|X₂ ∈ ℝ|X₃ ∈ ℝ|function(X₁)|is_differentiable_on(X₁,X₂ ]....[ X₃)|⇊|increasing(ℝ \| ℝ \| X₁ \| (X₂ ]....[ X₃))}" target="_vizar">
<polygon fill="#f8edd1" stroke="#7f7542" points="16.5,-16.5 16.5,-151.5 259.5,-151.5 259.5,-16.5 16.5,-16.5"/>
<text text-anchor="middle" x="138" y="-140.3" font-family="Times,serif" font-size="14.00">X₁ ∈ bool(ℝ × ℝ)</text>
<polyline fill="none" stroke="#7f7542" points="16.5,-136.5 259.5,-136.5 "/>
<text text-anchor="middle" x="138" y="-125.3" font-family="Times,serif" font-size="14.00">X₂ ]....[ X₃ = Ø</text>
<polyline fill="none" stroke="#7f7542" points="16.5,-121.5 259.5,-121.5 "/>
<text text-anchor="middle" x="138" y="-110.3" font-family="Times,serif" font-size="14.00">X₂ ]....[ X₃ ⊆ dom(ℝ,X₁)</text>
<polyline fill="none" stroke="#7f7542" points="16.5,-106.5 259.5,-106.5 "/>
<text text-anchor="middle" x="138" y="-95.3" font-family="Times,serif" font-size="14.00">X₂ ∈ ℝ</text>
<polyline fill="none" stroke="#7f7542" points="16.5,-91.5 259.5,-91.5 "/>
<text text-anchor="middle" x="138" y="-80.3" font-family="Times,serif" font-size="14.00">X₃ ∈ ℝ</text>
<polyline fill="none" stroke="#7f7542" points="16.5,-76.5 259.5,-76.5 "/>
<text text-anchor="middle" x="138" y="-65.3" font-family="Times,serif" font-size="14.00">function(X₁)</text>
<polyline fill="none" stroke="#7f7542" points="16.5,-61.5 259.5,-61.5 "/>
<text text-anchor="middle" x="138" y="-50.3" font-family="Times,serif" font-size="14.00">is_differentiable_on(X₁,X₂ ]....[ X₃)</text>
<polyline fill="none" stroke="#7f7542" points="16.5,-46.5 259.5,-46.5 "/>
<text text-anchor="middle" x="138" y="-35.3" font-family="Times,serif" font-size="14.00">⇊</text>
<polyline fill="none" stroke="#7f7542" points="16.5,-31.5 259.5,-31.5 "/>
<text text-anchor="middle" x="138" y="-20.3" font-family="Times,serif" font-size="14.00">increasing(ℝ | ℝ | X₁ | (X₂ ]....[ X₃))</text>
</a>
</g>
</g>
<!-- c_0_175&#45;&gt;c_0_183 -->
<g id="edge2" class="edge">
<title>c_0_175&#45;&gt;c_0_183</title>
<path fill="none" stroke="black" stroke-dasharray="5,2" d="M138,-188.32C138,-188.32 138,-161.74 138,-161.74"/>
<polygon fill="black" stroke="black" points="141.5,-161.74 138,-151.74 134.5,-161.74 141.5,-161.74"/>
</g>
</g>
</svg>
