<?xml version="1.0" encoding="UTF-8" standalone="no"?>
<!DOCTYPE svg PUBLIC "-//W3C//DTD SVG 1.1//EN"
 "http://www.w3.org/Graphics/SVG/1.1/DTD/svg11.dtd">
<!-- Generated by graphviz version 5.0.0 (0)
 -->
<!-- Title: proof Pages: 1 -->
<svg width="365pt" height="475pt"
 viewBox="0.00 0.00 365.00 475.00" xmlns="http://www.w3.org/2000/svg" xmlns:xlink="http://www.w3.org/1999/xlink">
<g id="graph0" class="graph" transform="scale(1 1) rotate(0) translate(4 471)">
<title>proof</title>
<g id="clust1" class="cluster">
<title>cluster_0</title>
<polygon fill="transparent" stroke="black" stroke-dasharray="1,5" points="21,-307 21,-459 349,-459 349,-307 21,-307"/>
</g>
<g id="clust2" class="cluster">
<title>cluster_1</title>
<polygon fill="transparent" stroke="black" stroke-width="2" points="26,-135 26,-287 286,-287 286,-135 26,-135"/>
</g>
<g id="clust3" class="cluster">
<title>cluster_2</title>
<polygon fill="transparent" stroke="black" stroke-dasharray="1,5" points="8,-8 8,-115 304,-115 304,-8 8,-8"/>
</g>
<!-- c_0_65 -->
<g id="node1" class="node">
<title>c_0_65</title>
<g id="a_node1"><a xlink:href="c_0_65.html" xlink:title="{X₁ ]....[ X₂ ⊆ dom(ℝ,X₃)|X₁ ∈ ℝ|X₂ ∈ ℝ|X₃ ∈ bool(ℝ × ℝ)|function(X₃)|is_differentiable_on(X₃,X₁ ]....[ X₂)|⇊|increasing(ℝ \| ℝ \| X₃ \| (X₁ ]....[ X₂))|sk₂(X₁,X₂,X₃) ∈ X₁ ]....[ X₂}" target="_vizar">
<polygon fill="#f8edd1" stroke="#7f7542" points="97.5,-315.5 97.5,-450.5 340.5,-450.5 340.5,-315.5 97.5,-315.5"/>
<text text-anchor="middle" x="219" y="-439.3" font-family="Times,serif" font-size="14.00">X₁ ]....[ X₂ ⊆ dom(ℝ,X₃)</text>
<polyline fill="none" stroke="#7f7542" points="97.5,-435.5 340.5,-435.5 "/>
<text text-anchor="middle" x="219" y="-424.3" font-family="Times,serif" font-size="14.00">X₁ ∈ ℝ</text>
<polyline fill="none" stroke="#7f7542" points="97.5,-420.5 340.5,-420.5 "/>
<text text-anchor="middle" x="219" y="-409.3" font-family="Times,serif" font-size="14.00">X₂ ∈ ℝ</text>
<polyline fill="none" stroke="#7f7542" points="97.5,-405.5 340.5,-405.5 "/>
<text text-anchor="middle" x="219" y="-394.3" font-family="Times,serif" font-size="14.00">X₃ ∈ bool(ℝ × ℝ)</text>
<polyline fill="none" stroke="#7f7542" points="97.5,-390.5 340.5,-390.5 "/>
<text text-anchor="middle" x="219" y="-379.3" font-family="Times,serif" font-size="14.00">function(X₃)</text>
<polyline fill="none" stroke="#7f7542" points="97.5,-375.5 340.5,-375.5 "/>
<text text-anchor="middle" x="219" y="-364.3" font-family="Times,serif" font-size="14.00">is_differentiable_on(X₃,X₁ ]....[ X₂)</text>
<polyline fill="none" stroke="#7f7542" points="97.5,-360.5 340.5,-360.5 "/>
<text text-anchor="middle" x="219" y="-349.3" font-family="Times,serif" font-size="14.00">⇊</text>
<polyline fill="none" stroke="#7f7542" points="97.5,-345.5 340.5,-345.5 "/>
<text text-anchor="middle" x="219" y="-334.3" font-family="Times,serif" font-size="14.00">increasing(ℝ | ℝ | X₃ | (X₁ ]....[ X₂))</text>
<polyline fill="none" stroke="#7f7542" points="97.5,-330.5 340.5,-330.5 "/>
<text text-anchor="middle" x="219" y="-319.3" font-family="Times,serif" font-size="14.00">sk₂(X₁,X₂,X₃) ∈ X₁ ]....[ X₂</text>
</a>
</g>
</g>
<!-- c_0_183 -->
<g id="node3" class="node">
<title>c_0_183</title>
<g id="a_node3"><a xlink:href="c_0_183.html" xlink:title="{X₁ ∈ bool(ℝ × ℝ)|X₂ ]....[ X₃ = Ø|X₂ ]....[ X₃ ⊆ dom(ℝ,X₁)|X₂ ∈ ℝ|X₃ ∈ ℝ|function(X₁)|is_differentiable_on(X₁,X₂ ]....[ X₃)|⇊|increasing(ℝ \| ℝ \| X₁ \| (X₂ ]....[ X₃))}" target="_vizar">
<polygon fill="#f8edd1" stroke="#7f7542" points="34.5,-143.5 34.5,-278.5 277.5,-278.5 277.5,-143.5 34.5,-143.5"/>
<text text-anchor="middle" x="156" y="-267.3" font-family="Times,serif" font-size="14.00">X₁ ∈ bool(ℝ × ℝ)</text>
<polyline fill="none" stroke="#7f7542" points="34.5,-263.5 277.5,-263.5 "/>
<text text-anchor="middle" x="156" y="-252.3" font-family="Times,serif" font-size="14.00">X₂ ]....[ X₃ = Ø</text>
<polyline fill="none" stroke="#7f7542" points="34.5,-248.5 277.5,-248.5 "/>
<text text-anchor="middle" x="156" y="-237.3" font-family="Times,serif" font-size="14.00">X₂ ]....[ X₃ ⊆ dom(ℝ,X₁)</text>
<polyline fill="none" stroke="#7f7542" points="34.5,-233.5 277.5,-233.5 "/>
<text text-anchor="middle" x="156" y="-222.3" font-family="Times,serif" font-size="14.00">X₂ ∈ ℝ</text>
<polyline fill="none" stroke="#7f7542" points="34.5,-218.5 277.5,-218.5 "/>
<text text-anchor="middle" x="156" y="-207.3" font-family="Times,serif" font-size="14.00">X₃ ∈ ℝ</text>
<polyline fill="none" stroke="#7f7542" points="34.5,-203.5 277.5,-203.5 "/>
<text text-anchor="middle" x="156" y="-192.3" font-family="Times,serif" font-size="14.00">function(X₁)</text>
<polyline fill="none" stroke="#7f7542" points="34.5,-188.5 277.5,-188.5 "/>
<text text-anchor="middle" x="156" y="-177.3" font-family="Times,serif" font-size="14.00">is_differentiable_on(X₁,X₂ ]....[ X₃)</text>
<polyline fill="none" stroke="#7f7542" points="34.5,-173.5 277.5,-173.5 "/>
<text text-anchor="middle" x="156" y="-162.3" font-family="Times,serif" font-size="14.00">⇊</text>
<polyline fill="none" stroke="#7f7542" points="34.5,-158.5 277.5,-158.5 "/>
<text text-anchor="middle" x="156" y="-147.3" font-family="Times,serif" font-size="14.00">increasing(ℝ | ℝ | X₁ | (X₂ ]....[ X₃))</text>
</a>
</g>
</g>
<!-- c_0_65&#45;&gt;c_0_183 -->
<g id="edge1" class="edge">
<title>c_0_65&#45;&gt;c_0_183</title>
<path fill="none" stroke="black" d="M187.5,-315.02C187.5,-315.02 187.5,-288.77 187.5,-288.77"/>
<polygon fill="black" stroke="black" points="191,-288.77 187.5,-278.77 184,-288.77 191,-288.77"/>
</g>
<!-- c_0_175 -->
<g id="node2" class="node">
<title>c_0_175</title>
<g id="a_node2"><a xlink:href="c_0_175.html" xlink:title="{X₁ ∈ X₂|X₂ = Ø|⇊|⊥}" target="_vizar">
<polygon fill="#f8edd1" stroke="#7f7542" points="29,-353 29,-413 79,-413 79,-353 29,-353"/>
<text text-anchor="middle" x="54" y="-401.8" font-family="Times,serif" font-size="14.00">X₁ ∈ X₂</text>
<polyline fill="none" stroke="#7f7542" points="29,-398 79,-398 "/>
<text text-anchor="middle" x="54" y="-386.8" font-family="Times,serif" font-size="14.00">X₂ = Ø</text>
<polyline fill="none" stroke="#7f7542" points="29,-383 79,-383 "/>
<text text-anchor="middle" x="54" y="-371.8" font-family="Times,serif" font-size="14.00">⇊</text>
<polyline fill="none" stroke="#7f7542" points="29,-368 79,-368 "/>
<text text-anchor="middle" x="54" y="-356.8" font-family="Times,serif" font-size="14.00">⊥</text>
</a>
</g>
</g>
<!-- c_0_175&#45;&gt;c_0_183 -->
<g id="edge2" class="edge">
<title>c_0_175&#45;&gt;c_0_183</title>
<path fill="none" stroke="black" d="M56.75,-352.65C56.75,-352.65 56.75,-288.84 56.75,-288.84"/>
<polygon fill="black" stroke="black" points="60.25,-288.84 56.75,-278.84 53.25,-288.84 60.25,-288.84"/>
</g>
<!-- c_0_192 -->
<g id="node4" class="node">
<title>c_0_192</title>
<g id="a_node4"><a xlink:href="c_0_192.html" xlink:title="{2 * PI ∈ ℝ|PI ]....[ (2 * PI) = Ø|PI ]....[ (2 * PI) ⊆ ℝ|is_differentiable_on(cos,PI ]....[ (2 * PI))|⇊|⊥}" target="_vizar">
<polygon fill="#fa6900" stroke="#7f7542" points="16,-16.5 16,-106.5 296,-106.5 296,-16.5 16,-16.5"/>
<text text-anchor="middle" x="156" y="-95.3" font-family="Times,serif" font-size="14.00">2 * PI ∈ ℝ</text>
<polyline fill="none" stroke="#7f7542" points="16,-91.5 296,-91.5 "/>
<text text-anchor="middle" x="156" y="-80.3" font-family="Times,serif" font-size="14.00">PI ]....[ (2 * PI) = Ø</text>
<polyline fill="none" stroke="#7f7542" points="16,-76.5 296,-76.5 "/>
<text text-anchor="middle" x="156" y="-65.3" font-family="Times,serif" font-size="14.00">PI ]....[ (2 * PI) ⊆ ℝ</text>
<polyline fill="none" stroke="#7f7542" points="16,-61.5 296,-61.5 "/>
<text text-anchor="middle" x="156" y="-50.3" font-family="Times,serif" font-size="14.00">is_differentiable_on(cos,PI ]....[ (2 * PI))</text>
<polyline fill="none" stroke="#7f7542" points="16,-46.5 296,-46.5 "/>
<text text-anchor="middle" x="156" y="-35.3" font-family="Times,serif" font-size="14.00">⇊</text>
<polyline fill="none" stroke="#7f7542" points="16,-31.5 296,-31.5 "/>
<text text-anchor="middle" x="156" y="-20.3" font-family="Times,serif" font-size="14.00">⊥</text>
</a>
</g>
</g>
<!-- c_0_183&#45;&gt;c_0_192 -->
<g id="edge3" class="edge">
<title>c_0_183&#45;&gt;c_0_192</title>
<path fill="none" stroke="black" stroke-dasharray="5,2" d="M156,-143.25C156,-143.25 156,-116.76 156,-116.76"/>
<polygon fill="black" stroke="black" points="159.5,-116.76 156,-106.76 152.5,-116.76 159.5,-116.76"/>
</g>
</g>
</svg>
