<?xml version="1.0" encoding="UTF-8" standalone="no"?>
<!DOCTYPE svg PUBLIC "-//W3C//DTD SVG 1.1//EN"
 "http://www.w3.org/Graphics/SVG/1.1/DTD/svg11.dtd">
<!-- Generated by graphviz version 5.0.0 (0)
 -->
<!-- Title: proof Pages: 1 -->
<svg width="150pt" height="160pt"
 viewBox="0.00 0.00 150.00 160.00" xmlns="http://www.w3.org/2000/svg" xmlns:xlink="http://www.w3.org/1999/xlink">
<g id="graph0" class="graph" transform="scale(1 1) rotate(0) translate(4 156)">
<title>proof</title>
<g id="clust1" class="cluster">
<title>cluster_0</title>
<polygon fill="transparent" stroke="black" stroke-dasharray="1,5" points="8,-112 8,-144 134,-144 134,-112 8,-112"/>
</g>
<g id="clust2" class="cluster">
<title>cluster_1</title>
<polygon fill="transparent" stroke="black" stroke-width="2" points="39,-60 39,-92 103,-92 103,-60 39,-60"/>
</g>
<g id="clust3" class="cluster">
<title>cluster_2</title>
<polygon fill="transparent" stroke="black" stroke-dasharray="1,5" points="42,-8 42,-40 100,-40 100,-8 42,-8"/>
</g>
<!-- c_0_87 -->
<g id="node1" class="node">
<title>c_0_87</title>
<g id="a_node1"><a xlink:href="c_0_87.html" xlink:title="{ℕ = ω}" target="_parent">
<polygon fill="#f8edd1" stroke="#7f7542" points="80,-120.5 80,-135.5 126,-135.5 126,-120.5 80,-120.5"/>
<text text-anchor="middle" x="103" y="-124.3" font-family="Times,serif" font-size="14.00">ℕ = ω</text>
</a>
</g>
</g>
<!-- c_0_113 -->
<g id="node3" class="node">
<title>c_0_113</title>
<g id="a_node3"><a xlink:href="c_0_113.html" xlink:title="{ℕ ⊆ ℕ}" target="_parent">
<polygon fill="#f8edd1" stroke="#7f7542" points="47.5,-68.5 47.5,-83.5 94.5,-83.5 94.5,-68.5 47.5,-68.5"/>
<text text-anchor="middle" x="71" y="-72.3" font-family="Times,serif" font-size="14.00">ℕ ⊆ ℕ</text>
</a>
</g>
</g>
<!-- c_0_87&#45;&gt;c_0_113 -->
<g id="edge1" class="edge">
<title>c_0_87&#45;&gt;c_0_113</title>
<path fill="none" stroke="black" d="M87.25,-120.33C87.25,-120.33 87.25,-93.7 87.25,-93.7"/>
<polygon fill="black" stroke="black" points="90.75,-93.7 87.25,-83.7 83.75,-93.7 90.75,-93.7"/>
</g>
<!-- c_0_86 -->
<g id="node2" class="node">
<title>c_0_86</title>
<g id="a_node2"><a xlink:href="c_0_86.html" xlink:title="{ω ⊆ ℕ}" target="_parent">
<polygon fill="#f8edd1" stroke="#7f7542" points="16,-120.5 16,-135.5 62,-135.5 62,-120.5 16,-120.5"/>
<text text-anchor="middle" x="39" y="-124.3" font-family="Times,serif" font-size="14.00">ω ⊆ ℕ</text>
</a>
</g>
</g>
<!-- c_0_86&#45;&gt;c_0_113 -->
<g id="edge2" class="edge">
<title>c_0_86&#45;&gt;c_0_113</title>
<path fill="none" stroke="black" d="M54.75,-120.33C54.75,-120.33 54.75,-93.7 54.75,-93.7"/>
<polygon fill="black" stroke="black" points="58.25,-93.7 54.75,-83.7 51.25,-93.7 58.25,-93.7"/>
</g>
<!-- c_0_112 -->
<g id="node4" class="node">
<title>c_0_112</title>
<g id="a_node4"><a xlink:href="c_0_112.html" xlink:title="{0 ∈ ℕ}" target="_parent">
<polygon fill="#f8edd1" stroke="#7f7542" points="50,-16.5 50,-31.5 92,-31.5 92,-16.5 50,-16.5"/>
<text text-anchor="middle" x="71" y="-20.3" font-family="Times,serif" font-size="14.00">0 ∈ ℕ</text>
</a>
</g>
</g>
<!-- c_0_113&#45;&gt;c_0_112 -->
<g id="edge3" class="edge">
<title>c_0_113&#45;&gt;c_0_112</title>
<path fill="none" stroke="black" stroke-dasharray="5,2" d="M71,-68.33C71,-68.33 71,-41.7 71,-41.7"/>
<polygon fill="black" stroke="black" points="74.5,-41.7 71,-31.7 67.5,-41.7 74.5,-41.7"/>
</g>
</g>
</svg>
