<?xml version="1.0" encoding="UTF-8" standalone="no"?>
<!DOCTYPE svg PUBLIC "-//W3C//DTD SVG 1.1//EN"
 "http://www.w3.org/Graphics/SVG/1.1/DTD/svg11.dtd">
<!-- Generated by graphviz version 5.0.0 (0)
 -->
<!-- Title: proof Pages: 1 -->
<svg width="202pt" height="190pt"
 viewBox="0.00 0.00 202.00 190.00" xmlns="http://www.w3.org/2000/svg" xmlns:xlink="http://www.w3.org/1999/xlink">
<g id="graph0" class="graph" transform="scale(1 1) rotate(0) translate(4 186)">
<title>proof</title>
<g id="clust1" class="cluster">
<title>cluster_0</title>
<polygon fill="transparent" stroke="black" stroke-dasharray="1,5" points="39,-142 39,-174 139,-174 139,-142 39,-142"/>
</g>
<g id="clust2" class="cluster">
<title>cluster_1</title>
<polygon fill="transparent" stroke="black" stroke-width="2" points="57,-90 57,-122 121,-122 121,-90 57,-90"/>
</g>
<g id="clust3" class="cluster">
<title>cluster_2</title>
<polygon fill="transparent" stroke="black" stroke-dasharray="1,5" points="8,-8 8,-70 186,-70 186,-8 8,-8"/>
</g>
<!-- cc3_xreal_0 -->
<g id="node1" class="node">
<title>cc3_xreal_0</title>
<g id="a_node1"><a xlink:href="cc3_xreal_0.html" xlink:title="cc3_xreal_0" target="_vizar">
<polygon fill="#69d2e7" stroke="#7f7542" points="47.5,-150.5 47.5,-165.5 130.5,-165.5 130.5,-150.5 47.5,-150.5"/>
<text text-anchor="middle" x="89" y="-154.3" font-family="Times,serif" font-size="14.00">cc3_xreal_0</text>
</a>
</g>
</g>
<!-- c_0_127 -->
<g id="node2" class="node">
<title>c_0_127</title>
<g id="a_node2"><a xlink:href="c_0_127.html" xlink:title="{R₁ ∈ ℂ}" target="_vizar">
<polygon fill="#f8edd1" stroke="#7f7542" points="65.5,-98.5 65.5,-113.5 112.5,-113.5 112.5,-98.5 65.5,-98.5"/>
<text text-anchor="middle" x="89" y="-102.3" font-family="Times,serif" font-size="14.00">R₁ ∈ ℂ</text>
</a>
</g>
</g>
<!-- cc3_xreal_0&#45;&gt;c_0_127 -->
<g id="edge1" class="edge">
<title>cc3_xreal_0&#45;&gt;c_0_127</title>
<path fill="none" stroke="black" d="M89,-150.33C89,-150.33 89,-123.7 89,-123.7"/>
<polygon fill="black" stroke="black" points="92.5,-123.7 89,-113.7 85.5,-123.7 92.5,-123.7"/>
</g>
<!-- c_0_133 -->
<g id="node3" class="node">
<title>c_0_133</title>
<g id="a_node3"><a xlink:href="c_0_133.html" xlink:title="{X₁ ∈ ℝ|⇊|&#45;(X₁) = &#45;(0,X₁)}" target="_vizar">
<polygon fill="#f8edd1" stroke="#7f7542" points="82.5,-16.5 82.5,-61.5 177.5,-61.5 177.5,-16.5 82.5,-16.5"/>
<text text-anchor="middle" x="130" y="-50.3" font-family="Times,serif" font-size="14.00">X₁ ∈ ℝ</text>
<polyline fill="none" stroke="#7f7542" points="82.5,-46.5 177.5,-46.5 "/>
<text text-anchor="middle" x="130" y="-35.3" font-family="Times,serif" font-size="14.00">⇊</text>
<polyline fill="none" stroke="#7f7542" points="82.5,-31.5 177.5,-31.5 "/>
<text text-anchor="middle" x="130" y="-20.3" font-family="Times,serif" font-size="14.00">&#45;(X₁) = &#45;(0,X₁)</text>
</a>
</g>
</g>
<!-- c_0_127&#45;&gt;c_0_133 -->
<g id="edge2" class="edge">
<title>c_0_127&#45;&gt;c_0_133</title>
<path fill="none" stroke="black" stroke-dasharray="5,2" d="M97.5,-98.31C97.5,-98.31 97.5,-71.76 97.5,-71.76"/>
<polygon fill="black" stroke="black" points="101,-71.76 97.5,-61.76 94,-71.76 101,-71.76"/>
</g>
<!-- c_0_140 -->
<g id="node4" class="node">
<title>c_0_140</title>
<g id="a_node4"><a xlink:href="c_0_140.html" xlink:title="{R₁ ∈ ℝ}" target="_vizar">
<polygon fill="#f8edd1" stroke="#7f7542" points="16,-31.5 16,-46.5 64,-46.5 64,-31.5 16,-31.5"/>
<text text-anchor="middle" x="40" y="-35.3" font-family="Times,serif" font-size="14.00">R₁ ∈ ℝ</text>
</a>
</g>
</g>
<!-- c_0_127&#45;&gt;c_0_140 -->
<g id="edge3" class="edge">
<title>c_0_127&#45;&gt;c_0_140</title>
<path fill="none" stroke="black" stroke-dasharray="5,2" d="M65.19,-106C59.86,-106 55.75,-106 55.75,-106 55.75,-106 55.75,-56.69 55.75,-56.69"/>
<polygon fill="black" stroke="black" points="59.25,-56.69 55.75,-46.69 52.25,-56.69 59.25,-56.69"/>
</g>
</g>
</svg>
