<?xml version="1.0" encoding="UTF-8" standalone="no"?>
<!DOCTYPE svg PUBLIC "-//W3C//DTD SVG 1.1//EN"
 "http://www.w3.org/Graphics/SVG/1.1/DTD/svg11.dtd">
<!-- Generated by graphviz version 5.0.0 (0)
 -->
<!-- Title: proof Pages: 1 -->
<svg width="294pt" height="250pt"
 viewBox="0.00 0.00 294.00 250.00" xmlns="http://www.w3.org/2000/svg" xmlns:xlink="http://www.w3.org/1999/xlink">
<g id="graph0" class="graph" transform="scale(1 1) rotate(0) translate(4 246)">
<title>proof</title>
<g id="clust1" class="cluster">
<title>cluster_0</title>
<polygon fill="transparent" stroke="black" stroke-dasharray="1,5" points="8,-172 8,-234 278,-234 278,-172 8,-172"/>
</g>
<g id="clust2" class="cluster">
<title>cluster_1</title>
<polygon fill="transparent" stroke="black" stroke-width="2" points="59,-90 59,-152 227,-152 227,-90 59,-90"/>
</g>
<g id="clust3" class="cluster">
<title>cluster_2</title>
<polygon fill="transparent" stroke="black" stroke-dasharray="1,5" points="87,-8 87,-70 199,-70 199,-8 87,-8"/>
</g>
<!-- c_0_73 -->
<g id="node1" class="node">
<title>c_0_73</title>
<g id="a_node1"><a xlink:href="c_0_73.html" xlink:title="{X₁ ∈ ℝ|⇊|&#45;(&#45;(X₁)) = X₁}" target="_vizar">
<polygon fill="#f8edd1" stroke="#7f7542" points="188,-180.5 188,-225.5 270,-225.5 270,-180.5 188,-180.5"/>
<text text-anchor="middle" x="229" y="-214.3" font-family="Times,serif" font-size="14.00">X₁ ∈ ℝ</text>
<polyline fill="none" stroke="#7f7542" points="188,-210.5 270,-210.5 "/>
<text text-anchor="middle" x="229" y="-199.3" font-family="Times,serif" font-size="14.00">⇊</text>
<polyline fill="none" stroke="#7f7542" points="188,-195.5 270,-195.5 "/>
<text text-anchor="middle" x="229" y="-184.3" font-family="Times,serif" font-size="14.00">&#45;(&#45;(X₁)) = X₁</text>
</a>
</g>
</g>
<!-- c_0_115 -->
<g id="node3" class="node">
<title>c_0_115</title>
<g id="a_node3"><a xlink:href="c_0_115.html" xlink:title="{X₁ ∈ ℝ|⇊|&#45;(&#45;(X₁),C₂) = &#45;(&#45;(C₂),X₁)}" target="_vizar">
<polygon fill="#f8edd1" stroke="#7f7542" points="67,-98.5 67,-143.5 219,-143.5 219,-98.5 67,-98.5"/>
<text text-anchor="middle" x="143" y="-132.3" font-family="Times,serif" font-size="14.00">X₁ ∈ ℝ</text>
<polyline fill="none" stroke="#7f7542" points="67,-128.5 219,-128.5 "/>
<text text-anchor="middle" x="143" y="-117.3" font-family="Times,serif" font-size="14.00">⇊</text>
<polyline fill="none" stroke="#7f7542" points="67,-113.5 219,-113.5 "/>
<text text-anchor="middle" x="143" y="-102.3" font-family="Times,serif" font-size="14.00">&#45;(&#45;(X₁),C₂) = &#45;(&#45;(C₂),X₁)</text>
</a>
</g>
</g>
<!-- c_0_73&#45;&gt;c_0_115 -->
<g id="edge1" class="edge">
<title>c_0_73&#45;&gt;c_0_115</title>
<path fill="none" stroke="black" d="M203.5,-180.16C203.5,-180.16 203.5,-153.72 203.5,-153.72"/>
<polygon fill="black" stroke="black" points="207,-153.72 203.5,-143.72 200,-153.72 207,-153.72"/>
</g>
<!-- c_0_90 -->
<g id="node2" class="node">
<title>c_0_90</title>
<g id="a_node2"><a xlink:href="c_0_90.html" xlink:title="{&#45;(&#45;(C₁),&#45;(C₂)) = &#45;(C₂,C₁)}" target="_vizar">
<polygon fill="#f8edd1" stroke="#7f7542" points="16,-195.5 16,-210.5 170,-210.5 170,-195.5 16,-195.5"/>
<text text-anchor="middle" x="93" y="-199.3" font-family="Times,serif" font-size="14.00">&#45;(&#45;(C₁),&#45;(C₂)) = &#45;(C₂,C₁)</text>
</a>
</g>
</g>
<!-- c_0_90&#45;&gt;c_0_115 -->
<g id="edge2" class="edge">
<title>c_0_90&#45;&gt;c_0_115</title>
<path fill="none" stroke="black" d="M118.5,-195.43C118.5,-195.43 118.5,-153.65 118.5,-153.65"/>
<polygon fill="black" stroke="black" points="122,-153.65 118.5,-143.65 115,-153.65 122,-153.65"/>
</g>
<!-- c_0_133 -->
<g id="node4" class="node">
<title>c_0_133</title>
<g id="a_node4"><a xlink:href="c_0_133.html" xlink:title="{X₁ ∈ ℝ|⇊|&#45;(X₁) = &#45;(0,X₁)}" target="_vizar">
<polygon fill="#f8edd1" stroke="#7f7542" points="95.5,-16.5 95.5,-61.5 190.5,-61.5 190.5,-16.5 95.5,-16.5"/>
<text text-anchor="middle" x="143" y="-50.3" font-family="Times,serif" font-size="14.00">X₁ ∈ ℝ</text>
<polyline fill="none" stroke="#7f7542" points="95.5,-46.5 190.5,-46.5 "/>
<text text-anchor="middle" x="143" y="-35.3" font-family="Times,serif" font-size="14.00">⇊</text>
<polyline fill="none" stroke="#7f7542" points="95.5,-31.5 190.5,-31.5 "/>
<text text-anchor="middle" x="143" y="-20.3" font-family="Times,serif" font-size="14.00">&#45;(X₁) = &#45;(0,X₁)</text>
</a>
</g>
</g>
<!-- c_0_115&#45;&gt;c_0_133 -->
<g id="edge3" class="edge">
<title>c_0_115&#45;&gt;c_0_133</title>
<path fill="none" stroke="black" stroke-dasharray="5,2" d="M143,-98.16C143,-98.16 143,-71.72 143,-71.72"/>
<polygon fill="black" stroke="black" points="146.5,-71.72 143,-61.72 139.5,-71.72 146.5,-71.72"/>
</g>
</g>
</svg>
