<?xml version="1.0" encoding="UTF-8" standalone="no"?>
<!DOCTYPE svg PUBLIC "-//W3C//DTD SVG 1.1//EN"
 "http://www.w3.org/Graphics/SVG/1.1/DTD/svg11.dtd">
<!-- Generated by graphviz version 5.0.0 (0)
 -->
<!-- Title: proof Pages: 1 -->
<svg width="899pt" height="310pt"
 viewBox="0.00 0.00 899.00 310.00" xmlns="http://www.w3.org/2000/svg" xmlns:xlink="http://www.w3.org/1999/xlink">
<g id="graph0" class="graph" transform="scale(1 1) rotate(0) translate(4 306)">
<title>proof</title>
<g id="clust1" class="cluster">
<title>cluster_0</title>
<polygon fill="transparent" stroke="black" stroke-dasharray="1,5" points="425,-262 425,-294 511,-294 511,-262 425,-262"/>
</g>
<g id="clust2" class="cluster">
<title>cluster_1</title>
<polygon fill="transparent" stroke="black" stroke-width="2" points="414,-180 414,-242 522,-242 522,-180 414,-180"/>
</g>
<g id="clust3" class="cluster">
<title>cluster_2</title>
<polygon fill="transparent" stroke="black" stroke-dasharray="1,5" points="8,-8 8,-160 883,-160 883,-8 8,-8"/>
</g>
<!-- t3_subset -->
<g id="node1" class="node">
<title>t3_subset</title>
<g id="a_node1"><a xlink:href="t3_subset.html" xlink:title="t3_subset" target="_vizar">
<polygon fill="#69d2e7" stroke="#7f7542" points="433,-270.5 433,-285.5 503,-285.5 503,-270.5 433,-270.5"/>
<text text-anchor="middle" x="468" y="-274.3" font-family="Times,serif" font-size="14.00">t3_subset</text>
</a>
</g>
</g>
<!-- c_0_80 -->
<g id="node2" class="node">
<title>c_0_80</title>
<g id="a_node2"><a xlink:href="c_0_80.html" xlink:title="{X₁ ∈ bool(X₂)|⇊|X₁ ⊆ X₂}" target="_vizar">
<polygon fill="#f8edd1" stroke="#7f7542" points="422.5,-188.5 422.5,-233.5 513.5,-233.5 513.5,-188.5 422.5,-188.5"/>
<text text-anchor="middle" x="468" y="-222.3" font-family="Times,serif" font-size="14.00">X₁ ∈ bool(X₂)</text>
<polyline fill="none" stroke="#7f7542" points="422.5,-218.5 513.5,-218.5 "/>
<text text-anchor="middle" x="468" y="-207.3" font-family="Times,serif" font-size="14.00">⇊</text>
<polyline fill="none" stroke="#7f7542" points="422.5,-203.5 513.5,-203.5 "/>
<text text-anchor="middle" x="468" y="-192.3" font-family="Times,serif" font-size="14.00">X₁ ⊆ X₂</text>
</a>
</g>
</g>
<!-- t3_subset&#45;&gt;c_0_80 -->
<g id="edge1" class="edge">
<title>t3_subset&#45;&gt;c_0_80</title>
<path fill="none" stroke="black" d="M468,-270.31C468,-270.31 468,-243.76 468,-243.76"/>
<polygon fill="black" stroke="black" points="471.5,-243.76 468,-233.76 464.5,-243.76 471.5,-243.76"/>
</g>
<!-- c_0_99 -->
<g id="node3" class="node">
<title>c_0_99</title>
<g id="a_node3"><a xlink:href="c_0_99.html" xlink:title="{X₁ ∈ bool(ℝ × ℝ)|X₂ ∈ bool(X₃)|X₂ ∈ bool(ℝ)|function(X₁)|is_differentiable_on(X₁,X₃)|open(X₂)|⇊|is_differentiable_on(X₁,X₂)}" target="_vizar">
<polygon fill="#f8edd1" stroke="#7f7542" points="691,-24 691,-144 875,-144 875,-24 691,-24"/>
<text text-anchor="middle" x="783" y="-132.8" font-family="Times,serif" font-size="14.00">X₁ ∈ bool(ℝ × ℝ)</text>
<polyline fill="none" stroke="#7f7542" points="691,-129 875,-129 "/>
<text text-anchor="middle" x="783" y="-117.8" font-family="Times,serif" font-size="14.00">X₂ ∈ bool(X₃)</text>
<polyline fill="none" stroke="#7f7542" points="691,-114 875,-114 "/>
<text text-anchor="middle" x="783" y="-102.8" font-family="Times,serif" font-size="14.00">X₂ ∈ bool(ℝ)</text>
<polyline fill="none" stroke="#7f7542" points="691,-99 875,-99 "/>
<text text-anchor="middle" x="783" y="-87.8" font-family="Times,serif" font-size="14.00">function(X₁)</text>
<polyline fill="none" stroke="#7f7542" points="691,-84 875,-84 "/>
<text text-anchor="middle" x="783" y="-72.8" font-family="Times,serif" font-size="14.00">is_differentiable_on(X₁,X₃)</text>
<polyline fill="none" stroke="#7f7542" points="691,-69 875,-69 "/>
<text text-anchor="middle" x="783" y="-57.8" font-family="Times,serif" font-size="14.00">open(X₂)</text>
<polyline fill="none" stroke="#7f7542" points="691,-54 875,-54 "/>
<text text-anchor="middle" x="783" y="-42.8" font-family="Times,serif" font-size="14.00">⇊</text>
<polyline fill="none" stroke="#7f7542" points="691,-39 875,-39 "/>
<text text-anchor="middle" x="783" y="-27.8" font-family="Times,serif" font-size="14.00">is_differentiable_on(X₁,X₂)</text>
</a>
</g>
</g>
<!-- c_0_80&#45;&gt;c_0_99 -->
<g id="edge2" class="edge">
<title>c_0_80&#45;&gt;c_0_99</title>
<path fill="none" stroke="black" stroke-dasharray="5,2" d="M499.33,-188.16C499.33,-163.9 499.33,-129 499.33,-129 499.33,-129 680.9,-129 680.9,-129"/>
<polygon fill="black" stroke="black" points="680.9,-132.5 690.9,-129 680.9,-125.5 680.9,-132.5"/>
</g>
<!-- c_0_219 -->
<g id="node4" class="node">
<title>c_0_219</title>
<g id="a_node4"><a xlink:href="c_0_219.html" xlink:title="{¬ (PI ]....[ (2 * PI) ∈ bool(ℝ))}" target="_vizar">
<polygon fill="#f8edd1" stroke="#7f7542" points="471,-76.5 471,-91.5 673,-91.5 673,-76.5 471,-76.5"/>
<text text-anchor="middle" x="572" y="-80.3" font-family="Times,serif" font-size="14.00">¬ (PI ]....[ (2 * PI) ∈ bool(ℝ))</text>
</a>
</g>
</g>
<!-- c_0_80&#45;&gt;c_0_219 -->
<g id="edge3" class="edge">
<title>c_0_80&#45;&gt;c_0_219</title>
<path fill="none" stroke="black" stroke-dasharray="5,2" d="M485.17,-188.29C485.17,-188.29 485.17,-101.56 485.17,-101.56"/>
<polygon fill="black" stroke="black" points="488.67,-101.56 485.17,-91.56 481.67,-101.56 488.67,-101.56"/>
</g>
<!-- c_0_217 -->
<g id="node5" class="node">
<title>c_0_217</title>
<g id="a_node5"><a xlink:href="c_0_217.html" xlink:title="{PI ]....[ (2 * PI) = Ø|PI ]....[ (2 * PI) ∈ bool(ℝ)|⇊|⊥}" target="_vizar">
<polygon fill="#fa6900" stroke="#7f7542" points="277.5,-54 277.5,-114 452.5,-114 452.5,-54 277.5,-54"/>
<text text-anchor="middle" x="365" y="-102.8" font-family="Times,serif" font-size="14.00">PI ]....[ (2 * PI) = Ø</text>
<polyline fill="none" stroke="#7f7542" points="277.5,-99 452.5,-99 "/>
<text text-anchor="middle" x="365" y="-87.8" font-family="Times,serif" font-size="14.00">PI ]....[ (2 * PI) ∈ bool(ℝ)</text>
<polyline fill="none" stroke="#7f7542" points="277.5,-84 452.5,-84 "/>
<text text-anchor="middle" x="365" y="-72.8" font-family="Times,serif" font-size="14.00">⇊</text>
<polyline fill="none" stroke="#7f7542" points="277.5,-69 452.5,-69 "/>
<text text-anchor="middle" x="365" y="-57.8" font-family="Times,serif" font-size="14.00">⊥</text>
</a>
</g>
</g>
<!-- c_0_80&#45;&gt;c_0_217 -->
<g id="edge4" class="edge">
<title>c_0_80&#45;&gt;c_0_217</title>
<path fill="none" stroke="black" stroke-dasharray="5,2" d="M442.5,-188.29C442.5,-188.29 442.5,-124.15 442.5,-124.15"/>
<polygon fill="black" stroke="black" points="446,-124.15 442.5,-114.15 439,-124.15 446,-124.15"/>
</g>
<!-- c_0_95 -->
<g id="node6" class="node">
<title>c_0_95</title>
<g id="a_node6"><a xlink:href="c_0_95.html" xlink:title="{X₁ ]....[ X₂ ∈ bool(dom(ℝ,X₃))|X₁ ∈ ℝ|X₂ ∈ ℝ|X₃ ∈ bool(ℝ × ℝ)|function(X₃)|is_differentiable_on(X₃,X₁ ]....[ X₂)|⇊|increasing(ℝ \| ℝ \| X₃ \| (X₁ ]....[ X₂))|sk₂(X₁,X₂,X₃) ∈ X₁ ]....[ X₂}" target="_vizar">
<polygon fill="#f8edd1" stroke="#7f7542" points="16.5,-16.5 16.5,-151.5 259.5,-151.5 259.5,-16.5 16.5,-16.5"/>
<text text-anchor="middle" x="138" y="-140.3" font-family="Times,serif" font-size="14.00">X₁ ]....[ X₂ ∈ bool(dom(ℝ,X₃))</text>
<polyline fill="none" stroke="#7f7542" points="16.5,-136.5 259.5,-136.5 "/>
<text text-anchor="middle" x="138" y="-125.3" font-family="Times,serif" font-size="14.00">X₁ ∈ ℝ</text>
<polyline fill="none" stroke="#7f7542" points="16.5,-121.5 259.5,-121.5 "/>
<text text-anchor="middle" x="138" y="-110.3" font-family="Times,serif" font-size="14.00">X₂ ∈ ℝ</text>
<polyline fill="none" stroke="#7f7542" points="16.5,-106.5 259.5,-106.5 "/>
<text text-anchor="middle" x="138" y="-95.3" font-family="Times,serif" font-size="14.00">X₃ ∈ bool(ℝ × ℝ)</text>
<polyline fill="none" stroke="#7f7542" points="16.5,-91.5 259.5,-91.5 "/>
<text text-anchor="middle" x="138" y="-80.3" font-family="Times,serif" font-size="14.00">function(X₃)</text>
<polyline fill="none" stroke="#7f7542" points="16.5,-76.5 259.5,-76.5 "/>
<text text-anchor="middle" x="138" y="-65.3" font-family="Times,serif" font-size="14.00">is_differentiable_on(X₃,X₁ ]....[ X₂)</text>
<polyline fill="none" stroke="#7f7542" points="16.5,-61.5 259.5,-61.5 "/>
<text text-anchor="middle" x="138" y="-50.3" font-family="Times,serif" font-size="14.00">⇊</text>
<polyline fill="none" stroke="#7f7542" points="16.5,-46.5 259.5,-46.5 "/>
<text text-anchor="middle" x="138" y="-35.3" font-family="Times,serif" font-size="14.00">increasing(ℝ | ℝ | X₃ | (X₁ ]....[ X₂))</text>
<polyline fill="none" stroke="#7f7542" points="16.5,-31.5 259.5,-31.5 "/>
<text text-anchor="middle" x="138" y="-20.3" font-family="Times,serif" font-size="14.00">sk₂(X₁,X₂,X₃) ∈ X₁ ]....[ X₂</text>
</a>
</g>
</g>
<!-- c_0_80&#45;&gt;c_0_95 -->
<g id="edge5" class="edge">
<title>c_0_80&#45;&gt;c_0_95</title>
<path fill="none" stroke="black" stroke-dasharray="5,2" d="M432.5,-188.26C432.5,-170.21 432.5,-148 432.5,-148 432.5,-148 269.91,-148 269.91,-148"/>
<polygon fill="black" stroke="black" points="269.91,-144.5 259.91,-148 269.91,-151.5 269.91,-144.5"/>
</g>
</g>
</svg>
