<?xml version="1.0" encoding="UTF-8" standalone="no"?>
<!DOCTYPE svg PUBLIC "-//W3C//DTD SVG 1.1//EN"
 "http://www.w3.org/Graphics/SVG/1.1/DTD/svg11.dtd">
<!-- Generated by graphviz version 5.0.0 (0)
 -->
<!-- Title: proof Pages: 1 -->
<svg width="990pt" height="235pt"
 viewBox="0.00 0.00 990.00 235.00" xmlns="http://www.w3.org/2000/svg" xmlns:xlink="http://www.w3.org/1999/xlink">
<g id="graph0" class="graph" transform="scale(1 1) rotate(0) translate(4 231)">
<title>proof</title>
<g id="clust1" class="cluster">
<title>cluster_0</title>
<polygon fill="transparent" stroke="black" stroke-dasharray="1,5" points="475,-187 475,-219 587,-219 587,-187 475,-187"/>
</g>
<g id="clust2" class="cluster">
<title>cluster_1</title>
<polygon fill="transparent" stroke="black" stroke-width="2" points="366,-135 366,-167 696,-167 696,-135 366,-135"/>
</g>
<g id="clust3" class="cluster">
<title>cluster_2</title>
<polygon fill="transparent" stroke="black" stroke-dasharray="1,5" points="8,-8 8,-115 974,-115 974,-8 8,-8"/>
</g>
<!-- t22_comptrig -->
<g id="node1" class="node">
<title>t22_comptrig</title>
<g id="a_node1"><a xlink:href="t22_comptrig.html" xlink:title="t22_comptrig" target="_vizar">
<polygon fill="#fa6900" stroke="#7f7542" points="483,-195.5 483,-210.5 579,-210.5 579,-195.5 483,-195.5"/>
<text text-anchor="middle" x="531" y="-199.3" font-family="Times,serif" font-size="14.00">t22_comptrig</text>
</a>
</g>
</g>
<!-- c_0_164 -->
<g id="node2" class="node">
<title>c_0_164</title>
<g id="a_node2"><a xlink:href="c_0_164.html" xlink:title="{¬ (increasing(ℝ \| ℝ \| cos \| (PI ]....[ (2 * PI))))}" target="_vizar">
<polygon fill="#fa6900" stroke="#7f7542" points="374.5,-143.5 374.5,-158.5 687.5,-158.5 687.5,-143.5 374.5,-143.5"/>
<text text-anchor="middle" x="531" y="-147.3" font-family="Times,serif" font-size="14.00">¬ (increasing(ℝ | ℝ | cos | (PI ]....[ (2 * PI))))</text>
</a>
</g>
</g>
<!-- t22_comptrig&#45;&gt;c_0_164 -->
<g id="edge1" class="edge">
<title>t22_comptrig&#45;&gt;c_0_164</title>
<path fill="none" stroke="black" d="M531,-195.33C531,-195.33 531,-168.7 531,-168.7"/>
<polygon fill="black" stroke="black" points="534.5,-168.7 531,-158.7 527.5,-168.7 534.5,-168.7"/>
</g>
<!-- c_0_216 -->
<g id="node3" class="node">
<title>c_0_216</title>
<g id="a_node3"><a xlink:href="c_0_216.html" xlink:title="{PI ]....[ (2 * PI) = Ø|sk₂(PI,2 * PI,cos) ∈ ℝ}" target="_vizar">
<polygon fill="#fa6900" stroke="#7f7542" points="814.5,-46.5 814.5,-76.5 965.5,-76.5 965.5,-46.5 814.5,-46.5"/>
<text text-anchor="middle" x="890" y="-65.3" font-family="Times,serif" font-size="14.00">PI ]....[ (2 * PI) = Ø</text>
<polyline fill="none" stroke="#7f7542" points="814.5,-61.5 965.5,-61.5 "/>
<text text-anchor="middle" x="890" y="-50.3" font-family="Times,serif" font-size="14.00">sk₂(PI,2 * PI,cos) ∈ ℝ</text>
</a>
</g>
</g>
<!-- c_0_164&#45;&gt;c_0_216 -->
<g id="edge2" class="edge">
<title>c_0_164&#45;&gt;c_0_216</title>
<path fill="none" stroke="black" stroke-dasharray="5,2" d="M687.68,-151C784.35,-151 890,-151 890,-151 890,-151 890,-86.68 890,-86.68"/>
<polygon fill="black" stroke="black" points="893.5,-86.68 890,-76.68 886.5,-86.68 893.5,-86.68"/>
</g>
<!-- c_0_192 -->
<g id="node4" class="node">
<title>c_0_192</title>
<g id="a_node4"><a xlink:href="c_0_192.html" xlink:title="{2 * PI ∈ ℝ|PI ]....[ (2 * PI) = Ø|PI ]....[ (2 * PI) ⊆ ℝ|is_differentiable_on(cos,PI ]....[ (2 * PI))|⇊|⊥}" target="_vizar">
<polygon fill="#fa6900" stroke="#7f7542" points="516,-16.5 516,-106.5 796,-106.5 796,-16.5 516,-16.5"/>
<text text-anchor="middle" x="656" y="-95.3" font-family="Times,serif" font-size="14.00">2 * PI ∈ ℝ</text>
<polyline fill="none" stroke="#7f7542" points="516,-91.5 796,-91.5 "/>
<text text-anchor="middle" x="656" y="-80.3" font-family="Times,serif" font-size="14.00">PI ]....[ (2 * PI) = Ø</text>
<polyline fill="none" stroke="#7f7542" points="516,-76.5 796,-76.5 "/>
<text text-anchor="middle" x="656" y="-65.3" font-family="Times,serif" font-size="14.00">PI ]....[ (2 * PI) ⊆ ℝ</text>
<polyline fill="none" stroke="#7f7542" points="516,-61.5 796,-61.5 "/>
<text text-anchor="middle" x="656" y="-50.3" font-family="Times,serif" font-size="14.00">is_differentiable_on(cos,PI ]....[ (2 * PI))</text>
<polyline fill="none" stroke="#7f7542" points="516,-46.5 796,-46.5 "/>
<text text-anchor="middle" x="656" y="-35.3" font-family="Times,serif" font-size="14.00">⇊</text>
<polyline fill="none" stroke="#7f7542" points="516,-31.5 796,-31.5 "/>
<text text-anchor="middle" x="656" y="-20.3" font-family="Times,serif" font-size="14.00">⊥</text>
</a>
</g>
</g>
<!-- c_0_164&#45;&gt;c_0_192 -->
<g id="edge3" class="edge">
<title>c_0_164&#45;&gt;c_0_192</title>
<path fill="none" stroke="black" stroke-dasharray="5,2" d="M601.75,-143.37C601.75,-143.37 601.75,-116.66 601.75,-116.66"/>
<polygon fill="black" stroke="black" points="605.25,-116.66 601.75,-106.66 598.25,-116.66 605.25,-116.66"/>
</g>
<!-- c_0_172 -->
<g id="node5" class="node">
<title>c_0_172</title>
<g id="a_node5"><a xlink:href="c_0_172.html" xlink:title="{0 ≤ sin . sk₂(PI,2 * PI,cos)|⇊|PI ]....[ (2 * PI) = Ø}" target="_vizar">
<polygon fill="#f8edd1" stroke="#7f7542" points="314,-39 314,-84 498,-84 498,-39 314,-39"/>
<text text-anchor="middle" x="406" y="-72.8" font-family="Times,serif" font-size="14.00">0 ≤ sin . sk₂(PI,2 * PI,cos)</text>
<polyline fill="none" stroke="#7f7542" points="314,-69 498,-69 "/>
<text text-anchor="middle" x="406" y="-57.8" font-family="Times,serif" font-size="14.00">⇊</text>
<polyline fill="none" stroke="#7f7542" points="314,-54 498,-54 "/>
<text text-anchor="middle" x="406" y="-42.8" font-family="Times,serif" font-size="14.00">PI ]....[ (2 * PI) = Ø</text>
</a>
</g>
</g>
<!-- c_0_164&#45;&gt;c_0_172 -->
<g id="edge4" class="edge">
<title>c_0_164&#45;&gt;c_0_172</title>
<path fill="none" stroke="black" stroke-dasharray="5,2" d="M456.83,-143.37C456.83,-143.37 456.83,-94.31 456.83,-94.31"/>
<polygon fill="black" stroke="black" points="460.33,-94.31 456.83,-84.31 453.33,-94.31 460.33,-94.31"/>
</g>
<!-- c_0_200 -->
<g id="node6" class="node">
<title>c_0_200</title>
<g id="a_node6"><a xlink:href="c_0_200.html" xlink:title="{2 * PI ∈ ℝ|PI ]....[ (2 * PI) ⊆ ℝ|is_differentiable_on(cos,PI ]....[ (2 * PI))|sin . sk₂(PI,2 * PI,cos) ∈ ℝ|⇊|⊥}" target="_vizar">
<polygon fill="#f8edd1" stroke="#7f7542" points="16,-16.5 16,-106.5 296,-106.5 296,-16.5 16,-16.5"/>
<text text-anchor="middle" x="156" y="-95.3" font-family="Times,serif" font-size="14.00">2 * PI ∈ ℝ</text>
<polyline fill="none" stroke="#7f7542" points="16,-91.5 296,-91.5 "/>
<text text-anchor="middle" x="156" y="-80.3" font-family="Times,serif" font-size="14.00">PI ]....[ (2 * PI) ⊆ ℝ</text>
<polyline fill="none" stroke="#7f7542" points="16,-76.5 296,-76.5 "/>
<text text-anchor="middle" x="156" y="-65.3" font-family="Times,serif" font-size="14.00">is_differentiable_on(cos,PI ]....[ (2 * PI))</text>
<polyline fill="none" stroke="#7f7542" points="16,-61.5 296,-61.5 "/>
<text text-anchor="middle" x="156" y="-50.3" font-family="Times,serif" font-size="14.00">sin . sk₂(PI,2 * PI,cos) ∈ ℝ</text>
<polyline fill="none" stroke="#7f7542" points="16,-46.5 296,-46.5 "/>
<text text-anchor="middle" x="156" y="-35.3" font-family="Times,serif" font-size="14.00">⇊</text>
<polyline fill="none" stroke="#7f7542" points="16,-31.5 296,-31.5 "/>
<text text-anchor="middle" x="156" y="-20.3" font-family="Times,serif" font-size="14.00">⊥</text>
</a>
</g>
</g>
<!-- c_0_164&#45;&gt;c_0_200 -->
<g id="edge5" class="edge">
<title>c_0_164&#45;&gt;c_0_200</title>
<path fill="none" stroke="black" stroke-dasharray="5,2" d="M415.67,-143.21C415.67,-127.83 415.67,-95 415.67,-95 415.67,-95 306.09,-95 306.09,-95"/>
<polygon fill="black" stroke="black" points="306.09,-91.5 296.09,-95 306.09,-98.5 306.09,-91.5"/>
</g>
</g>
</svg>
