<?xml version="1.0" encoding="UTF-8" standalone="no"?>
<!DOCTYPE svg PUBLIC "-//W3C//DTD SVG 1.1//EN"
 "http://www.w3.org/Graphics/SVG/1.1/DTD/svg11.dtd">
<!-- Generated by graphviz version 5.0.0 (0)
 -->
<!-- Title: proof Pages: 1 -->
<svg width="522pt" height="280pt"
 viewBox="0.00 0.00 522.00 280.00" xmlns="http://www.w3.org/2000/svg" xmlns:xlink="http://www.w3.org/1999/xlink">
<g id="graph0" class="graph" transform="scale(1 1) rotate(0) translate(4 276)">
<title>proof</title>
<g id="clust1" class="cluster">
<title>cluster_0</title>
<polygon fill="transparent" stroke="black" stroke-dasharray="1,5" points="10,-187 10,-264 506,-264 506,-187 10,-187"/>
</g>
<g id="clust2" class="cluster">
<title>cluster_1</title>
<polygon fill="transparent" stroke="black" stroke-width="2" points="8,-75 8,-167 318,-167 318,-75 8,-75"/>
</g>
<g id="clust3" class="cluster">
<title>cluster_2</title>
<polygon fill="transparent" stroke="black" stroke-dasharray="1,5" points="79,-8 79,-55 247,-55 247,-8 79,-8"/>
</g>
<!-- c_0_206 -->
<g id="node1" class="node">
<title>c_0_206</title>
<g id="a_node1"><a xlink:href="c_0_206.html" xlink:title="{X₃ ∈ ℝ|⇊|increasing(ℝ \| ℝ \| cos \| (R₁ ]....[ (R₂ * X₃)))|sk₂(R₁,R₂ * X₃,cos) ∈ R₁ ]....[ (R₂ * X₃)}" target="_parent">
<polygon fill="#f8edd1" stroke="#7f7542" points="204,-195.5 204,-255.5 498,-255.5 498,-195.5 204,-195.5"/>
<text text-anchor="middle" x="351" y="-244.3" font-family="Times,serif" font-size="14.00">X₃ ∈ ℝ</text>
<polyline fill="none" stroke="#7f7542" points="204,-240.5 498,-240.5 "/>
<text text-anchor="middle" x="351" y="-229.3" font-family="Times,serif" font-size="14.00">⇊</text>
<polyline fill="none" stroke="#7f7542" points="204,-225.5 498,-225.5 "/>
<text text-anchor="middle" x="351" y="-214.3" font-family="Times,serif" font-size="14.00">increasing(ℝ | ℝ | cos | (R₁ ]....[ (R₂ * X₃)))</text>
<polyline fill="none" stroke="#7f7542" points="204,-210.5 498,-210.5 "/>
<text text-anchor="middle" x="351" y="-199.3" font-family="Times,serif" font-size="14.00">sk₂(R₁,R₂ * X₃,cos) ∈ R₁ ]....[ (R₂ * X₃)</text>
</a>
</g>
</g>
<!-- c_0_210 -->
<g id="node4" class="node">
<title>c_0_210</title>
<g id="a_node4"><a xlink:href="c_0_210.html" xlink:title="{X₃ ∈ ℝ|⇊|R₁ ]....[ (R₂ * X₃) = Ø|increasing(ℝ \| ℝ \| cos \| (R₁ ]....[ (R₂ * X₃)))|sk₂(R₁,R₂ * X₃,cos) ∈ ℝ}" target="_parent">
<polygon fill="#f8edd1" stroke="#7f7542" points="16,-83.5 16,-158.5 310,-158.5 310,-83.5 16,-83.5"/>
<text text-anchor="middle" x="163" y="-147.3" font-family="Times,serif" font-size="14.00">X₃ ∈ ℝ</text>
<polyline fill="none" stroke="#7f7542" points="16,-143.5 310,-143.5 "/>
<text text-anchor="middle" x="163" y="-132.3" font-family="Times,serif" font-size="14.00">⇊</text>
<polyline fill="none" stroke="#7f7542" points="16,-128.5 310,-128.5 "/>
<text text-anchor="middle" x="163" y="-117.3" font-family="Times,serif" font-size="14.00">R₁ ]....[ (R₂ * X₃) = Ø</text>
<polyline fill="none" stroke="#7f7542" points="16,-113.5 310,-113.5 "/>
<text text-anchor="middle" x="163" y="-102.3" font-family="Times,serif" font-size="14.00">increasing(ℝ | ℝ | cos | (R₁ ]....[ (R₂ * X₃)))</text>
<polyline fill="none" stroke="#7f7542" points="16,-98.5 310,-98.5 "/>
<text text-anchor="middle" x="163" y="-87.3" font-family="Times,serif" font-size="14.00">sk₂(R₁,R₂ * X₃,cos) ∈ ℝ</text>
</a>
</g>
</g>
<!-- c_0_206&#45;&gt;c_0_210 -->
<g id="edge1" class="edge">
<title>c_0_206&#45;&gt;c_0_210</title>
<path fill="none" stroke="black" d="M257,-195.27C257,-195.27 257,-168.59 257,-168.59"/>
<polygon fill="black" stroke="black" points="260.5,-168.59 257,-158.59 253.5,-168.59 260.5,-168.59"/>
</g>
<!-- c_0_121 -->
<g id="node2" class="node">
<title>c_0_121</title>
<g id="a_node2"><a xlink:href="c_0_121.html" xlink:title="{R₁ ∈ 𝔼}" target="_parent">
<polygon fill="#f8edd1" stroke="#7f7542" points="140,-218 140,-233 186,-233 186,-218 140,-218"/>
<text text-anchor="middle" x="163" y="-221.8" font-family="Times,serif" font-size="14.00">R₁ ∈ 𝔼</text>
</a>
</g>
</g>
<!-- c_0_121&#45;&gt;c_0_210 -->
<g id="edge2" class="edge">
<title>c_0_121&#45;&gt;c_0_210</title>
<path fill="none" stroke="black" d="M163,-217.98C163,-217.98 163,-168.52 163,-168.52"/>
<polygon fill="black" stroke="black" points="166.5,-168.52 163,-158.52 159.5,-168.52 166.5,-168.52"/>
</g>
<!-- c_0_205 -->
<g id="node3" class="node">
<title>c_0_205</title>
<g id="a_node3"><a xlink:href="c_0_205.html" xlink:title="{X₃ ∈ E₁ ]....[ E₂|⇊|E₁ ]....[ E₂ = Ø|X₃ ∈ ℝ}" target="_parent">
<polygon fill="#f8edd1" stroke="#7f7542" points="18,-195.5 18,-255.5 122,-255.5 122,-195.5 18,-195.5"/>
<text text-anchor="middle" x="70" y="-244.3" font-family="Times,serif" font-size="14.00">X₃ ∈ E₁ ]....[ E₂</text>
<polyline fill="none" stroke="#7f7542" points="18,-240.5 122,-240.5 "/>
<text text-anchor="middle" x="70" y="-229.3" font-family="Times,serif" font-size="14.00">⇊</text>
<polyline fill="none" stroke="#7f7542" points="18,-225.5 122,-225.5 "/>
<text text-anchor="middle" x="70" y="-214.3" font-family="Times,serif" font-size="14.00">E₁ ]....[ E₂ = Ø</text>
<polyline fill="none" stroke="#7f7542" points="18,-210.5 122,-210.5 "/>
<text text-anchor="middle" x="70" y="-199.3" font-family="Times,serif" font-size="14.00">X₃ ∈ ℝ</text>
</a>
</g>
</g>
<!-- c_0_205&#45;&gt;c_0_210 -->
<g id="edge3" class="edge">
<title>c_0_205&#45;&gt;c_0_210</title>
<path fill="none" stroke="black" d="M70,-195.27C70,-195.27 70,-168.59 70,-168.59"/>
<polygon fill="black" stroke="black" points="73.5,-168.59 70,-158.59 66.5,-168.59 73.5,-168.59"/>
</g>
<!-- c_0_216 -->
<g id="node5" class="node">
<title>c_0_216</title>
<g id="a_node5"><a xlink:href="c_0_216.html" xlink:title="{PI ]....[ (2 * PI) = Ø|sk₂(PI,2 * PI,cos) ∈ ℝ}" target="_parent">
<polygon fill="#fa6900" stroke="#7f7542" points="87.5,-16.5 87.5,-46.5 238.5,-46.5 238.5,-16.5 87.5,-16.5"/>
<text text-anchor="middle" x="163" y="-35.3" font-family="Times,serif" font-size="14.00">PI ]....[ (2 * PI) = Ø</text>
<polyline fill="none" stroke="#7f7542" points="87.5,-31.5 238.5,-31.5 "/>
<text text-anchor="middle" x="163" y="-20.3" font-family="Times,serif" font-size="14.00">sk₂(PI,2 * PI,cos) ∈ ℝ</text>
</a>
</g>
</g>
<!-- c_0_210&#45;&gt;c_0_216 -->
<g id="edge4" class="edge">
<title>c_0_210&#45;&gt;c_0_216</title>
<path fill="none" stroke="black" stroke-dasharray="5,2" d="M163,-83.3C163,-83.3 163,-56.86 163,-56.86"/>
<polygon fill="black" stroke="black" points="166.5,-56.86 163,-46.86 159.5,-56.86 166.5,-56.86"/>
</g>
</g>
</svg>
