<?xml version="1.0" encoding="UTF-8" standalone="no"?>
<!DOCTYPE svg PUBLIC "-//W3C//DTD SVG 1.1//EN"
 "http://www.w3.org/Graphics/SVG/1.1/DTD/svg11.dtd">
<!-- Generated by graphviz version 5.0.0 (0)
 -->
<!-- Title: proof Pages: 1 -->
<svg width="200pt" height="190pt"
 viewBox="0.00 0.00 200.00 190.00" xmlns="http://www.w3.org/2000/svg" xmlns:xlink="http://www.w3.org/1999/xlink">
<g id="graph0" class="graph" transform="scale(1 1) rotate(0) translate(4 186)">
<title>proof</title>
<g id="clust1" class="cluster">
<title>cluster_0</title>
<polygon fill="transparent" stroke="black" stroke-dasharray="1,5" points="44,-142 44,-174 148,-174 148,-142 44,-142"/>
</g>
<g id="clust2" class="cluster">
<title>cluster_1</title>
<polygon fill="transparent" stroke="black" stroke-width="2" points="8,-90 8,-122 184,-122 184,-90 8,-90"/>
</g>
<g id="clust3" class="cluster">
<title>cluster_2</title>
<polygon fill="transparent" stroke="black" stroke-dasharray="1,5" points="10,-8 10,-70 182,-70 182,-8 10,-8"/>
</g>
<!-- spc9_arithm -->
<g id="node1" class="node">
<title>spc9_arithm</title>
<g id="a_node1"><a xlink:href="spc9_arithm.html" xlink:title="spc9_arithm" target="_parent">
<polygon fill="#69d2e7" stroke="#7f7542" points="52,-150.5 52,-165.5 140,-165.5 140,-150.5 52,-150.5"/>
<text text-anchor="middle" x="96" y="-154.3" font-family="Times,serif" font-size="14.00">spc9_arithm</text>
</a>
</g>
</g>
<!-- c_0_90 -->
<g id="node2" class="node">
<title>c_0_90</title>
<g id="a_node2"><a xlink:href="c_0_90.html" xlink:title="{&#45;(&#45;(N₁),&#45;(N₂)) = &#45;(N₂,N₁)}" target="_parent">
<polygon fill="#f8edd1" stroke="#7f7542" points="16,-98.5 16,-113.5 176,-113.5 176,-98.5 16,-98.5"/>
<text text-anchor="middle" x="96" y="-102.3" font-family="Times,serif" font-size="14.00">&#45;(&#45;(N₁),&#45;(N₂)) = &#45;(N₂,N₁)</text>
</a>
</g>
</g>
<!-- spc9_arithm&#45;&gt;c_0_90 -->
<g id="edge1" class="edge">
<title>spc9_arithm&#45;&gt;c_0_90</title>
<path fill="none" stroke="black" d="M96,-150.33C96,-150.33 96,-123.7 96,-123.7"/>
<polygon fill="black" stroke="black" points="99.5,-123.7 96,-113.7 92.5,-123.7 99.5,-123.7"/>
</g>
<!-- c_0_115 -->
<g id="node3" class="node">
<title>c_0_115</title>
<g id="a_node3"><a xlink:href="c_0_115.html" xlink:title="{X₁ ∈ ℝ|⇊|&#45;(&#45;(X₁),N₂) = &#45;(&#45;(N₂),X₁)}" target="_parent">
<polygon fill="#f8edd1" stroke="#7f7542" points="18.5,-16.5 18.5,-61.5 173.5,-61.5 173.5,-16.5 18.5,-16.5"/>
<text text-anchor="middle" x="96" y="-50.3" font-family="Times,serif" font-size="14.00">X₁ ∈ ℝ</text>
<polyline fill="none" stroke="#7f7542" points="18.5,-46.5 173.5,-46.5 "/>
<text text-anchor="middle" x="96" y="-35.3" font-family="Times,serif" font-size="14.00">⇊</text>
<polyline fill="none" stroke="#7f7542" points="18.5,-31.5 173.5,-31.5 "/>
<text text-anchor="middle" x="96" y="-20.3" font-family="Times,serif" font-size="14.00">&#45;(&#45;(X₁),N₂) = &#45;(&#45;(N₂),X₁)</text>
</a>
</g>
</g>
<!-- c_0_90&#45;&gt;c_0_115 -->
<g id="edge2" class="edge">
<title>c_0_90&#45;&gt;c_0_115</title>
<path fill="none" stroke="black" stroke-dasharray="5,2" d="M96,-98.31C96,-98.31 96,-71.76 96,-71.76"/>
<polygon fill="black" stroke="black" points="99.5,-71.76 96,-61.76 92.5,-71.76 99.5,-71.76"/>
</g>
</g>
</svg>
