<?xml version="1.0" encoding="UTF-8" standalone="no"?>
<!DOCTYPE svg PUBLIC "-//W3C//DTD SVG 1.1//EN"
 "http://www.w3.org/Graphics/SVG/1.1/DTD/svg11.dtd">
<!-- Generated by graphviz version 5.0.0 (0)
 -->
<!-- Title: proof Pages: 1 -->
<svg width="258pt" height="160pt"
 viewBox="0.00 0.00 258.00 160.00" xmlns="http://www.w3.org/2000/svg" xmlns:xlink="http://www.w3.org/1999/xlink">
<g id="graph0" class="graph" transform="scale(1 1) rotate(0) translate(4 156)">
<title>proof</title>
<g id="clust1" class="cluster">
<title>cluster_0</title>
<polygon fill="transparent" stroke="black" stroke-dasharray="1,5" points="62,-112 62,-144 184,-144 184,-112 62,-112"/>
</g>
<g id="clust2" class="cluster">
<title>cluster_1</title>
<polygon fill="transparent" stroke="black" stroke-width="2" points="51,-60 51,-92 195,-92 195,-60 51,-60"/>
</g>
<g id="clust3" class="cluster">
<title>cluster_2</title>
<polygon fill="transparent" stroke="black" stroke-dasharray="1,5" points="8,-8 8,-40 242,-40 242,-8 8,-8"/>
</g>
<!-- dt_k16_sin_cos -->
<g id="node1" class="node">
<title>dt_k16_sin_cos</title>
<g id="a_node1"><a xlink:href="dt_k16_sin_cos.html" xlink:title="dt_k16_sin_cos" target="_parent">
<polygon fill="#69d2e7" stroke="#7f7542" points="70,-120.5 70,-135.5 176,-135.5 176,-120.5 70,-120.5"/>
<text text-anchor="middle" x="123" y="-124.3" font-family="Times,serif" font-size="14.00">dt_k16_sin_cos</text>
</a>
</g>
</g>
<!-- c_0_195 -->
<g id="node2" class="node">
<title>c_0_195</title>
<g id="a_node2"><a xlink:href="c_0_195.html" xlink:title="{sin ∈ bool(ℝ × ℝ)}" target="_parent">
<polygon fill="#f8edd1" stroke="#7f7542" points="59.5,-68.5 59.5,-83.5 186.5,-83.5 186.5,-68.5 59.5,-68.5"/>
<text text-anchor="middle" x="123" y="-72.3" font-family="Times,serif" font-size="14.00">sin ∈ bool(ℝ × ℝ)</text>
</a>
</g>
</g>
<!-- dt_k16_sin_cos&#45;&gt;c_0_195 -->
<g id="edge1" class="edge">
<title>dt_k16_sin_cos&#45;&gt;c_0_195</title>
<path fill="none" stroke="black" d="M123,-120.33C123,-120.33 123,-93.7 123,-93.7"/>
<polygon fill="black" stroke="black" points="126.5,-93.7 123,-83.7 119.5,-93.7 126.5,-93.7"/>
</g>
<!-- c_0_204 -->
<g id="node3" class="node">
<title>c_0_204</title>
<g id="a_node3"><a xlink:href="c_0_204.html" xlink:title="{relation(sin)}" target="_parent">
<polygon fill="#f8edd1" stroke="#7f7542" points="146,-16.5 146,-31.5 234,-31.5 234,-16.5 146,-16.5"/>
<text text-anchor="middle" x="190" y="-20.3" font-family="Times,serif" font-size="14.00">relation(sin)</text>
</a>
</g>
</g>
<!-- c_0_195&#45;&gt;c_0_204 -->
<g id="edge2" class="edge">
<title>c_0_195&#45;&gt;c_0_204</title>
<path fill="none" stroke="black" stroke-dasharray="5,2" d="M166.25,-68.33C166.25,-68.33 166.25,-41.7 166.25,-41.7"/>
<polygon fill="black" stroke="black" points="169.75,-41.7 166.25,-31.7 162.75,-41.7 169.75,-41.7"/>
</g>
<!-- c_0_203 -->
<g id="node4" class="node">
<title>c_0_203</title>
<g id="a_node4"><a xlink:href="c_0_203.html" xlink:title="{real&#45;valued(sin)}" target="_parent">
<polygon fill="#f8edd1" stroke="#7f7542" points="16,-16.5 16,-31.5 128,-31.5 128,-16.5 16,-16.5"/>
<text text-anchor="middle" x="72" y="-20.3" font-family="Times,serif" font-size="14.00">real&#45;valued(sin)</text>
</a>
</g>
</g>
<!-- c_0_195&#45;&gt;c_0_203 -->
<g id="edge3" class="edge">
<title>c_0_195&#45;&gt;c_0_203</title>
<path fill="none" stroke="black" stroke-dasharray="5,2" d="M93.75,-68.33C93.75,-68.33 93.75,-41.7 93.75,-41.7"/>
<polygon fill="black" stroke="black" points="97.25,-41.7 93.75,-31.7 90.25,-41.7 97.25,-41.7"/>
</g>
</g>
</svg>
