<?xml version="1.0" encoding="UTF-8" standalone="no"?>
<!DOCTYPE svg PUBLIC "-//W3C//DTD SVG 1.1//EN"
 "http://www.w3.org/Graphics/SVG/1.1/DTD/svg11.dtd">
<!-- Generated by graphviz version 5.0.0 (0)
 -->
<!-- Title: proof Pages: 1 -->
<svg width="754pt" height="138pt"
 viewBox="0.00 0.00 754.00 138.00" xmlns="http://www.w3.org/2000/svg" xmlns:xlink="http://www.w3.org/1999/xlink">
<g id="graph0" class="graph" transform="scale(1 1) rotate(0) translate(4 134)">
<title>proof</title>
<g id="clust1" class="cluster">
<title>cluster_0</title>
<polygon fill="transparent" stroke="black" stroke-dasharray="1,5" points="8,-60 8,-122 738,-122 738,-60 8,-60"/>
</g>
<g id="clust2" class="cluster">
<title>cluster_1</title>
<polygon fill="transparent" stroke="black" stroke-width="2" points="392,-8 392,-40 422,-40 422,-8 392,-8"/>
</g>
<!-- c_0_163 -->
<g id="node1" class="node">
<title>c_0_163</title>
<g id="a_node1"><a xlink:href="c_0_163.html" xlink:title="{2 ∈ ℝ}" target="_parent">
<polygon fill="#f8edd1" stroke="#7f7542" points="688.5,-83.5 688.5,-98.5 729.5,-98.5 729.5,-83.5 688.5,-83.5"/>
<text text-anchor="middle" x="709" y="-87.3" font-family="Times,serif" font-size="14.00">2 ∈ ℝ</text>
</a>
</g>
</g>
<!-- c_0_224 -->
<g id="node8" class="node">
<title>c_0_224</title>
<g id="a_node8"><a xlink:href="c_0_224.html" xlink:title="⊥" target="_parent">
<polygon fill="#fa6900" stroke="#7f7542" points="400,-16.5 400,-31.5 414,-31.5 414,-16.5 400,-16.5"/>
<text text-anchor="middle" x="407" y="-20.3" font-family="Times,serif" font-size="14.00">⊥</text>
</a>
</g>
</g>
<!-- c_0_163&#45;&gt;c_0_224 -->
<g id="edge1" class="edge">
<title>c_0_163&#45;&gt;c_0_224</title>
<path fill="none" stroke="black" d="M709,-83.24C709,-65.02 709,-21 709,-21 709,-21 424.17,-21 424.17,-21"/>
<polygon fill="black" stroke="black" points="424.17,-17.5 414.17,-21 424.17,-24.5 424.17,-17.5"/>
</g>
<!-- c_0_121 -->
<g id="node2" class="node">
<title>c_0_121</title>
<g id="a_node2"><a xlink:href="c_0_121.html" xlink:title="{R₁ ∈ 𝔼}" target="_parent">
<polygon fill="#f8edd1" stroke="#7f7542" points="624,-83.5 624,-98.5 670,-98.5 670,-83.5 624,-83.5"/>
<text text-anchor="middle" x="647" y="-87.3" font-family="Times,serif" font-size="14.00">R₁ ∈ 𝔼</text>
</a>
</g>
</g>
<!-- c_0_121&#45;&gt;c_0_224 -->
<g id="edge2" class="edge">
<title>c_0_121&#45;&gt;c_0_224</title>
<path fill="none" stroke="black" d="M647,-83.29C647,-66.07 647,-26 647,-26 647,-26 424.18,-26 424.18,-26"/>
<polygon fill="black" stroke="black" points="424.18,-22.5 414.18,-26 424.18,-29.5 424.18,-22.5"/>
</g>
<!-- c_0_105 -->
<g id="node3" class="node">
<title>c_0_105</title>
<g id="a_node3"><a xlink:href="c_0_105.html" xlink:title="{X₁ ∈ ℝ|⇊|X₁ * R₂ ∈ ℝ}" target="_parent">
<polygon fill="#f8edd1" stroke="#7f7542" points="526.5,-68.5 526.5,-113.5 605.5,-113.5 605.5,-68.5 526.5,-68.5"/>
<text text-anchor="middle" x="566" y="-102.3" font-family="Times,serif" font-size="14.00">X₁ ∈ ℝ</text>
<polyline fill="none" stroke="#7f7542" points="526.5,-98.5 605.5,-98.5 "/>
<text text-anchor="middle" x="566" y="-87.3" font-family="Times,serif" font-size="14.00">⇊</text>
<polyline fill="none" stroke="#7f7542" points="526.5,-83.5 605.5,-83.5 "/>
<text text-anchor="middle" x="566" y="-72.3" font-family="Times,serif" font-size="14.00">X₁ * R₂ ∈ ℝ</text>
</a>
</g>
</g>
<!-- c_0_105&#45;&gt;c_0_224 -->
<g id="edge3" class="edge">
<title>c_0_105&#45;&gt;c_0_224</title>
<path fill="none" stroke="black" d="M526.47,-75C480.06,-75 409.33,-75 409.33,-75 409.33,-75 409.33,-41.53 409.33,-41.53"/>
<polygon fill="black" stroke="black" points="412.83,-41.53 409.33,-31.53 405.83,-41.53 412.83,-41.53"/>
</g>
<!-- c_0_219 -->
<g id="node4" class="node">
<title>c_0_219</title>
<g id="a_node4"><a xlink:href="c_0_219.html" xlink:title="{¬ (PI ]....[ (2 * PI) ∈ bool(ℝ))}" target="_parent">
<polygon fill="#f8edd1" stroke="#7f7542" points="306,-83.5 306,-98.5 508,-98.5 508,-83.5 306,-83.5"/>
<text text-anchor="middle" x="407" y="-87.3" font-family="Times,serif" font-size="14.00">¬ (PI ]....[ (2 * PI) ∈ bool(ℝ))</text>
</a>
</g>
</g>
<!-- c_0_219&#45;&gt;c_0_224 -->
<g id="edge4" class="edge">
<title>c_0_219&#45;&gt;c_0_224</title>
<path fill="none" stroke="black" d="M404.67,-83.31C404.67,-83.31 404.67,-41.6 404.67,-41.6"/>
<polygon fill="black" stroke="black" points="408.17,-41.6 404.67,-31.6 401.17,-41.6 408.17,-41.6"/>
</g>
<!-- c_0_100 -->
<g id="node5" class="node">
<title>c_0_100</title>
<g id="a_node5"><a xlink:href="c_0_100.html" xlink:title="{E₁ ]....[ E₂ ∈ bool(ℝ)}" target="_parent">
<polygon fill="#f8edd1" stroke="#7f7542" points="146,-83.5 146,-98.5 288,-98.5 288,-83.5 146,-83.5"/>
<text text-anchor="middle" x="217" y="-87.3" font-family="Times,serif" font-size="14.00">E₁ ]....[ E₂ ∈ bool(ℝ)</text>
</a>
</g>
</g>
<!-- c_0_100&#45;&gt;c_0_224 -->
<g id="edge5" class="edge">
<title>c_0_100&#45;&gt;c_0_224</title>
<path fill="none" stroke="black" d="M217,-83.27C217,-66.45 217,-28 217,-28 217,-28 389.78,-28 389.78,-28"/>
<polygon fill="black" stroke="black" points="389.78,-31.5 399.78,-28 389.78,-24.5 389.78,-31.5"/>
</g>
<!-- c_0_218 -->
<g id="node6" class="node">
<title>c_0_218</title>
<g id="a_node6"><a xlink:href="c_0_218.html" xlink:title="{PI ∈ 𝔼}" target="_parent">
<polygon fill="#f8edd1" stroke="#7f7542" points="82,-83.5 82,-98.5 128,-98.5 128,-83.5 82,-83.5"/>
<text text-anchor="middle" x="105" y="-87.3" font-family="Times,serif" font-size="14.00">PI ∈ 𝔼</text>
</a>
</g>
</g>
<!-- c_0_218&#45;&gt;c_0_224 -->
<g id="edge6" class="edge">
<title>c_0_218&#45;&gt;c_0_224</title>
<path fill="none" stroke="black" d="M105,-83.31C105,-65.72 105,-24 105,-24 105,-24 389.83,-24 389.83,-24"/>
<polygon fill="black" stroke="black" points="389.83,-27.5 399.83,-24 389.83,-20.5 389.83,-27.5"/>
</g>
<!-- c_0_153 -->
<g id="node7" class="node">
<title>c_0_153</title>
<g id="a_node7"><a xlink:href="c_0_153.html" xlink:title="{PI ∈ ℝ}" target="_parent">
<polygon fill="#f8edd1" stroke="#7f7542" points="16.5,-83.5 16.5,-98.5 63.5,-98.5 63.5,-83.5 16.5,-83.5"/>
<text text-anchor="middle" x="40" y="-87.3" font-family="Times,serif" font-size="14.00">PI ∈ ℝ</text>
</a>
</g>
</g>
<!-- c_0_153&#45;&gt;c_0_224 -->
<g id="edge7" class="edge">
<title>c_0_153&#45;&gt;c_0_224</title>
<path fill="none" stroke="black" d="M40,-83.4C40,-65.09 40,-20 40,-20 40,-20 390,-20 390,-20"/>
<polygon fill="black" stroke="black" points="390,-23.5 400,-20 390,-16.5 390,-23.5"/>
</g>
</g>
</svg>
