<?xml version="1.0" encoding="UTF-8" standalone="no"?>
<!DOCTYPE svg PUBLIC "-//W3C//DTD SVG 1.1//EN"
 "http://www.w3.org/Graphics/SVG/1.1/DTD/svg11.dtd">
<!-- Generated by graphviz version 5.0.0 (0)
 -->
<!-- Title: proof Pages: 1 -->
<svg width="900pt" height="310pt"
 viewBox="0.00 0.00 900.00 310.00" xmlns="http://www.w3.org/2000/svg" xmlns:xlink="http://www.w3.org/1999/xlink">
<g id="graph0" class="graph" transform="scale(1 1) rotate(0) translate(4 306)">
<title>proof</title>
<g id="clust1" class="cluster">
<title>cluster_0</title>
<polygon fill="transparent" stroke="black" stroke-dasharray="1,5" points="426,-262 426,-294 512,-294 512,-262 426,-262"/>
</g>
<g id="clust2" class="cluster">
<title>cluster_1</title>
<polygon fill="transparent" stroke="black" stroke-width="2" points="415,-180 415,-242 523,-242 523,-180 415,-180"/>
</g>
<g id="clust3" class="cluster">
<title>cluster_2</title>
<polygon fill="transparent" stroke="black" stroke-dasharray="1,5" points="8,-8 8,-160 884,-160 884,-8 8,-8"/>
</g>
<!-- t3_subset -->
<g id="node1" class="node">
<title>t3_subset</title>
<g id="a_node1"><a xlink:href="t3_subset.html" xlink:title="t3_subset" target="_parent">
<polygon fill="#69d2e7" stroke="#7f7542" points="434,-270.5 434,-285.5 504,-285.5 504,-270.5 434,-270.5"/>
<text text-anchor="middle" x="469" y="-274.3" font-family="Times,serif" font-size="14.00">t3_subset</text>
</a>
</g>
</g>
<!-- c_0_80 -->
<g id="node2" class="node">
<title>c_0_80</title>
<g id="a_node2"><a xlink:href="c_0_80.html" xlink:title="{X₁ ∈ bool(X₂)|⇊|X₁ ⊆ X₂}" target="_parent">
<polygon fill="#f8edd1" stroke="#7f7542" points="423.5,-188.5 423.5,-233.5 514.5,-233.5 514.5,-188.5 423.5,-188.5"/>
<text text-anchor="middle" x="469" y="-222.3" font-family="Times,serif" font-size="14.00">X₁ ∈ bool(X₂)</text>
<polyline fill="none" stroke="#7f7542" points="423.5,-218.5 514.5,-218.5 "/>
<text text-anchor="middle" x="469" y="-207.3" font-family="Times,serif" font-size="14.00">⇊</text>
<polyline fill="none" stroke="#7f7542" points="423.5,-203.5 514.5,-203.5 "/>
<text text-anchor="middle" x="469" y="-192.3" font-family="Times,serif" font-size="14.00">X₁ ⊆ X₂</text>
</a>
</g>
</g>
<!-- t3_subset&#45;&gt;c_0_80 -->
<g id="edge1" class="edge">
<title>t3_subset&#45;&gt;c_0_80</title>
<path fill="none" stroke="black" d="M469,-270.31C469,-270.31 469,-243.76 469,-243.76"/>
<polygon fill="black" stroke="black" points="472.5,-243.76 469,-233.76 465.5,-243.76 472.5,-243.76"/>
</g>
<!-- c_0_219 -->
<g id="node3" class="node">
<title>c_0_219</title>
<g id="a_node3"><a xlink:href="c_0_219.html" xlink:title="{¬ (PI ]....[ (2 * PI) ∈ bool(ℝ))}" target="_parent">
<polygon fill="#f8edd1" stroke="#7f7542" points="674,-76.5 674,-91.5 876,-91.5 876,-76.5 674,-76.5"/>
<text text-anchor="middle" x="775" y="-80.3" font-family="Times,serif" font-size="14.00">¬ (PI ]....[ (2 * PI) ∈ bool(ℝ))</text>
</a>
</g>
</g>
<!-- c_0_80&#45;&gt;c_0_219 -->
<g id="edge2" class="edge">
<title>c_0_80&#45;&gt;c_0_219</title>
<path fill="none" stroke="black" stroke-dasharray="5,2" d="M514.81,-211C600.18,-211 775,-211 775,-211 775,-211 775,-101.56 775,-101.56"/>
<polygon fill="black" stroke="black" points="778.5,-101.56 775,-91.56 771.5,-101.56 778.5,-101.56"/>
</g>
<!-- c_0_217 -->
<g id="node4" class="node">
<title>c_0_217</title>
<g id="a_node4"><a xlink:href="c_0_217.html" xlink:title="{PI ]....[ (2 * PI) = Ø|PI ]....[ (2 * PI) ∈ bool(ℝ)|⇊|⊥}" target="_parent">
<polygon fill="#fa6900" stroke="#7f7542" points="480.5,-54 480.5,-114 655.5,-114 655.5,-54 480.5,-54"/>
<text text-anchor="middle" x="568" y="-102.8" font-family="Times,serif" font-size="14.00">PI ]....[ (2 * PI) = Ø</text>
<polyline fill="none" stroke="#7f7542" points="480.5,-99 655.5,-99 "/>
<text text-anchor="middle" x="568" y="-87.8" font-family="Times,serif" font-size="14.00">PI ]....[ (2 * PI) ∈ bool(ℝ)</text>
<polyline fill="none" stroke="#7f7542" points="480.5,-84 655.5,-84 "/>
<text text-anchor="middle" x="568" y="-72.8" font-family="Times,serif" font-size="14.00">⇊</text>
<polyline fill="none" stroke="#7f7542" points="480.5,-69 655.5,-69 "/>
<text text-anchor="middle" x="568" y="-57.8" font-family="Times,serif" font-size="14.00">⊥</text>
</a>
</g>
</g>
<!-- c_0_80&#45;&gt;c_0_217 -->
<g id="edge3" class="edge">
<title>c_0_80&#45;&gt;c_0_217</title>
<path fill="none" stroke="black" stroke-dasharray="5,2" d="M497.5,-188.29C497.5,-188.29 497.5,-124.15 497.5,-124.15"/>
<polygon fill="black" stroke="black" points="501,-124.15 497.5,-114.15 494,-124.15 501,-124.15"/>
</g>
<!-- c_0_99 -->
<g id="node5" class="node">
<title>c_0_99</title>
<g id="a_node5"><a xlink:href="c_0_99.html" xlink:title="{X₁ ∈ bool(ℝ × ℝ)|X₂ ∈ bool(X₃)|X₂ ∈ bool(ℝ)|function(X₁)|is_differentiable_on(X₁,X₃)|open(X₂)|⇊|is_differentiable_on(X₁,X₂)}" target="_parent">
<polygon fill="#f8edd1" stroke="#7f7542" points="278,-24 278,-144 462,-144 462,-24 278,-24"/>
<text text-anchor="middle" x="370" y="-132.8" font-family="Times,serif" font-size="14.00">X₁ ∈ bool(ℝ × ℝ)</text>
<polyline fill="none" stroke="#7f7542" points="278,-129 462,-129 "/>
<text text-anchor="middle" x="370" y="-117.8" font-family="Times,serif" font-size="14.00">X₂ ∈ bool(X₃)</text>
<polyline fill="none" stroke="#7f7542" points="278,-114 462,-114 "/>
<text text-anchor="middle" x="370" y="-102.8" font-family="Times,serif" font-size="14.00">X₂ ∈ bool(ℝ)</text>
<polyline fill="none" stroke="#7f7542" points="278,-99 462,-99 "/>
<text text-anchor="middle" x="370" y="-87.8" font-family="Times,serif" font-size="14.00">function(X₁)</text>
<polyline fill="none" stroke="#7f7542" points="278,-84 462,-84 "/>
<text text-anchor="middle" x="370" y="-72.8" font-family="Times,serif" font-size="14.00">is_differentiable_on(X₁,X₃)</text>
<polyline fill="none" stroke="#7f7542" points="278,-69 462,-69 "/>
<text text-anchor="middle" x="370" y="-57.8" font-family="Times,serif" font-size="14.00">open(X₂)</text>
<polyline fill="none" stroke="#7f7542" points="278,-54 462,-54 "/>
<text text-anchor="middle" x="370" y="-42.8" font-family="Times,serif" font-size="14.00">⇊</text>
<polyline fill="none" stroke="#7f7542" points="278,-39 462,-39 "/>
<text text-anchor="middle" x="370" y="-27.8" font-family="Times,serif" font-size="14.00">is_differentiable_on(X₁,X₂)</text>
</a>
</g>
</g>
<!-- c_0_80&#45;&gt;c_0_99 -->
<g id="edge4" class="edge">
<title>c_0_80&#45;&gt;c_0_99</title>
<path fill="none" stroke="black" stroke-dasharray="5,2" d="M449.17,-188.29C449.17,-188.29 449.17,-154.12 449.17,-154.12"/>
<polygon fill="black" stroke="black" points="452.67,-154.11 449.17,-144.12 445.67,-154.12 452.67,-154.11"/>
</g>
<!-- c_0_95 -->
<g id="node6" class="node">
<title>c_0_95</title>
<g id="a_node6"><a xlink:href="c_0_95.html" xlink:title="{X₁ ]....[ X₂ ∈ bool(dom(ℝ,X₃))|X₁ ∈ ℝ|X₂ ∈ ℝ|X₃ ∈ bool(ℝ × ℝ)|function(X₃)|is_differentiable_on(X₃,X₁ ]....[ X₂)|⇊|increasing(ℝ \| ℝ \| X₃ \| (X₁ ]....[ X₂))|sk₂(X₁,X₂,X₃) ∈ X₁ ]....[ X₂}" target="_parent">
<polygon fill="#f8edd1" stroke="#7f7542" points="16.5,-16.5 16.5,-151.5 259.5,-151.5 259.5,-16.5 16.5,-16.5"/>
<text text-anchor="middle" x="138" y="-140.3" font-family="Times,serif" font-size="14.00">X₁ ]....[ X₂ ∈ bool(dom(ℝ,X₃))</text>
<polyline fill="none" stroke="#7f7542" points="16.5,-136.5 259.5,-136.5 "/>
<text text-anchor="middle" x="138" y="-125.3" font-family="Times,serif" font-size="14.00">X₁ ∈ ℝ</text>
<polyline fill="none" stroke="#7f7542" points="16.5,-121.5 259.5,-121.5 "/>
<text text-anchor="middle" x="138" y="-110.3" font-family="Times,serif" font-size="14.00">X₂ ∈ ℝ</text>
<polyline fill="none" stroke="#7f7542" points="16.5,-106.5 259.5,-106.5 "/>
<text text-anchor="middle" x="138" y="-95.3" font-family="Times,serif" font-size="14.00">X₃ ∈ bool(ℝ × ℝ)</text>
<polyline fill="none" stroke="#7f7542" points="16.5,-91.5 259.5,-91.5 "/>
<text text-anchor="middle" x="138" y="-80.3" font-family="Times,serif" font-size="14.00">function(X₃)</text>
<polyline fill="none" stroke="#7f7542" points="16.5,-76.5 259.5,-76.5 "/>
<text text-anchor="middle" x="138" y="-65.3" font-family="Times,serif" font-size="14.00">is_differentiable_on(X₃,X₁ ]....[ X₂)</text>
<polyline fill="none" stroke="#7f7542" points="16.5,-61.5 259.5,-61.5 "/>
<text text-anchor="middle" x="138" y="-50.3" font-family="Times,serif" font-size="14.00">⇊</text>
<polyline fill="none" stroke="#7f7542" points="16.5,-46.5 259.5,-46.5 "/>
<text text-anchor="middle" x="138" y="-35.3" font-family="Times,serif" font-size="14.00">increasing(ℝ | ℝ | X₃ | (X₁ ]....[ X₂))</text>
<polyline fill="none" stroke="#7f7542" points="16.5,-31.5 259.5,-31.5 "/>
<text text-anchor="middle" x="138" y="-20.3" font-family="Times,serif" font-size="14.00">sk₂(X₁,X₂,X₃) ∈ X₁ ]....[ X₂</text>
</a>
</g>
</g>
<!-- c_0_80&#45;&gt;c_0_95 -->
<g id="edge5" class="edge">
<title>c_0_80&#45;&gt;c_0_95</title>
<path fill="none" stroke="black" stroke-dasharray="5,2" d="M436.33,-188.26C436.33,-170.21 436.33,-148 436.33,-148 436.33,-148 269.77,-148 269.77,-148"/>
<polygon fill="black" stroke="black" points="269.77,-144.5 259.77,-148 269.77,-151.5 269.77,-144.5"/>
</g>
</g>
</svg>
