<?xml version="1.0" encoding="UTF-8" standalone="no"?>
<!DOCTYPE svg PUBLIC "-//W3C//DTD SVG 1.1//EN"
 "http://www.w3.org/Graphics/SVG/1.1/DTD/svg11.dtd">
<!-- Generated by graphviz version 5.0.0 (0)
 -->
<!-- Title: proof Pages: 1 -->
<svg width="334pt" height="310pt"
 viewBox="0.00 0.00 334.00 310.00" xmlns="http://www.w3.org/2000/svg" xmlns:xlink="http://www.w3.org/1999/xlink">
<g id="graph0" class="graph" transform="scale(1 1) rotate(0) translate(4 306)">
<title>proof</title>
<g id="clust1" class="cluster">
<title>cluster_0</title>
<polygon fill="transparent" stroke="black" stroke-dasharray="1,5" points="82,-217 82,-294 270,-294 270,-217 82,-217"/>
</g>
<g id="clust2" class="cluster">
<title>cluster_1</title>
<polygon fill="transparent" stroke="black" stroke-width="2" points="103,-120 103,-197 223,-197 223,-120 103,-120"/>
</g>
<g id="clust3" class="cluster">
<title>cluster_2</title>
<polygon fill="transparent" stroke="black" stroke-dasharray="1,5" points="8,-8 8,-100 318,-100 318,-8 8,-8"/>
</g>
<!-- c_0_197 -->
<g id="node1" class="node">
<title>c_0_197</title>
<g id="a_node1"><a xlink:href="c_0_197.html" xlink:title="{X₁ ∈ E₃ ]....[ E₂|⇊|X₁ ∈ ℝ}" target="_vizar">
<polygon fill="#f8edd1" stroke="#7f7542" points="158,-233 158,-278 262,-278 262,-233 158,-233"/>
<text text-anchor="middle" x="210" y="-266.8" font-family="Times,serif" font-size="14.00">X₁ ∈ E₃ ]....[ E₂</text>
<polyline fill="none" stroke="#7f7542" points="158,-263 262,-263 "/>
<text text-anchor="middle" x="210" y="-251.8" font-family="Times,serif" font-size="14.00">⇊</text>
<polyline fill="none" stroke="#7f7542" points="158,-248 262,-248 "/>
<text text-anchor="middle" x="210" y="-236.8" font-family="Times,serif" font-size="14.00">X₁ ∈ ℝ</text>
</a>
</g>
</g>
<!-- c_0_205 -->
<g id="node3" class="node">
<title>c_0_205</title>
<g id="a_node3"><a xlink:href="c_0_205.html" xlink:title="{X₃ ∈ E₁ ]....[ E₂|⇊|E₁ ]....[ E₂ = Ø|X₃ ∈ ℝ}" target="_vizar">
<polygon fill="#f8edd1" stroke="#7f7542" points="111,-128.5 111,-188.5 215,-188.5 215,-128.5 111,-128.5"/>
<text text-anchor="middle" x="163" y="-177.3" font-family="Times,serif" font-size="14.00">X₃ ∈ E₁ ]....[ E₂</text>
<polyline fill="none" stroke="#7f7542" points="111,-173.5 215,-173.5 "/>
<text text-anchor="middle" x="163" y="-162.3" font-family="Times,serif" font-size="14.00">⇊</text>
<polyline fill="none" stroke="#7f7542" points="111,-158.5 215,-158.5 "/>
<text text-anchor="middle" x="163" y="-147.3" font-family="Times,serif" font-size="14.00">E₁ ]....[ E₂ = Ø</text>
<polyline fill="none" stroke="#7f7542" points="111,-143.5 215,-143.5 "/>
<text text-anchor="middle" x="163" y="-132.3" font-family="Times,serif" font-size="14.00">X₃ ∈ ℝ</text>
</a>
</g>
</g>
<!-- c_0_197&#45;&gt;c_0_205 -->
<g id="edge1" class="edge">
<title>c_0_197&#45;&gt;c_0_205</title>
<path fill="none" stroke="black" d="M186.5,-232.51C186.5,-232.51 186.5,-198.67 186.5,-198.67"/>
<polygon fill="black" stroke="black" points="190,-198.67 186.5,-188.67 183,-198.67 190,-198.67"/>
</g>
<!-- c_0_150 -->
<g id="node2" class="node">
<title>c_0_150</title>
<g id="a_node2"><a xlink:href="c_0_150.html" xlink:title="{X₁ ∈ X₂|⇊|X₁ ∈ X₂|X₂ = Ø}" target="_vizar">
<polygon fill="#f8edd1" stroke="#7f7542" points="90,-225.5 90,-285.5 140,-285.5 140,-225.5 90,-225.5"/>
<text text-anchor="middle" x="115" y="-274.3" font-family="Times,serif" font-size="14.00">X₁ ∈ X₂</text>
<polyline fill="none" stroke="#7f7542" points="90,-270.5 140,-270.5 "/>
<text text-anchor="middle" x="115" y="-259.3" font-family="Times,serif" font-size="14.00">⇊</text>
<polyline fill="none" stroke="#7f7542" points="90,-255.5 140,-255.5 "/>
<text text-anchor="middle" x="115" y="-244.3" font-family="Times,serif" font-size="14.00">X₁ ∈ X₂</text>
<polyline fill="none" stroke="#7f7542" points="90,-240.5 140,-240.5 "/>
<text text-anchor="middle" x="115" y="-229.3" font-family="Times,serif" font-size="14.00">X₂ = Ø</text>
</a>
</g>
</g>
<!-- c_0_150&#45;&gt;c_0_205 -->
<g id="edge2" class="edge">
<title>c_0_150&#45;&gt;c_0_205</title>
<path fill="none" stroke="black" d="M125.5,-225.34C125.5,-225.34 125.5,-198.64 125.5,-198.64"/>
<polygon fill="black" stroke="black" points="129,-198.64 125.5,-188.64 122,-198.64 129,-198.64"/>
</g>
<!-- c_0_210 -->
<g id="node4" class="node">
<title>c_0_210</title>
<g id="a_node4"><a xlink:href="c_0_210.html" xlink:title="{X₃ ∈ ℝ|⇊|R₁ ]....[ (R₂ * X₃) = Ø|increasing(ℝ \| ℝ \| cos \| (R₁ ]....[ (R₂ * X₃)))|sk₂(R₁,R₂ * X₃,cos) ∈ ℝ}" target="_vizar">
<polygon fill="#f8edd1" stroke="#7f7542" points="16,-16.5 16,-91.5 310,-91.5 310,-16.5 16,-16.5"/>
<text text-anchor="middle" x="163" y="-80.3" font-family="Times,serif" font-size="14.00">X₃ ∈ ℝ</text>
<polyline fill="none" stroke="#7f7542" points="16,-76.5 310,-76.5 "/>
<text text-anchor="middle" x="163" y="-65.3" font-family="Times,serif" font-size="14.00">⇊</text>
<polyline fill="none" stroke="#7f7542" points="16,-61.5 310,-61.5 "/>
<text text-anchor="middle" x="163" y="-50.3" font-family="Times,serif" font-size="14.00">R₁ ]....[ (R₂ * X₃) = Ø</text>
<polyline fill="none" stroke="#7f7542" points="16,-46.5 310,-46.5 "/>
<text text-anchor="middle" x="163" y="-35.3" font-family="Times,serif" font-size="14.00">increasing(ℝ | ℝ | cos | (R₁ ]....[ (R₂ * X₃)))</text>
<polyline fill="none" stroke="#7f7542" points="16,-31.5 310,-31.5 "/>
<text text-anchor="middle" x="163" y="-20.3" font-family="Times,serif" font-size="14.00">sk₂(R₁,R₂ * X₃,cos) ∈ ℝ</text>
</a>
</g>
</g>
<!-- c_0_205&#45;&gt;c_0_210 -->
<g id="edge3" class="edge">
<title>c_0_205&#45;&gt;c_0_210</title>
<path fill="none" stroke="black" stroke-dasharray="5,2" d="M163,-128.27C163,-128.27 163,-101.59 163,-101.59"/>
<polygon fill="black" stroke="black" points="166.5,-101.59 163,-91.59 159.5,-101.59 166.5,-101.59"/>
</g>
</g>
</svg>
