<?xml version="1.0" encoding="UTF-8" standalone="no"?>
<!DOCTYPE svg PUBLIC "-//W3C//DTD SVG 1.1//EN"
 "http://www.w3.org/Graphics/SVG/1.1/DTD/svg11.dtd">
<!-- Generated by graphviz version 5.0.0 (0)
 -->
<!-- Title: proof Pages: 1 -->
<svg width="444pt" height="190pt"
 viewBox="0.00 0.00 444.00 190.00" xmlns="http://www.w3.org/2000/svg" xmlns:xlink="http://www.w3.org/1999/xlink">
<g id="graph0" class="graph" transform="scale(1 1) rotate(0) translate(4 186)">
<title>proof</title>
<g id="clust1" class="cluster">
<title>cluster_0</title>
<polygon fill="transparent" stroke="black" stroke-dasharray="1,5" points="8,-112 8,-174 428,-174 428,-112 8,-112"/>
</g>
<g id="clust2" class="cluster">
<title>cluster_1</title>
<polygon fill="transparent" stroke="black" stroke-width="2" points="188,-60 188,-92 250,-92 250,-60 188,-60"/>
</g>
<g id="clust3" class="cluster">
<title>cluster_2</title>
<polygon fill="transparent" stroke="black" stroke-dasharray="1,5" points="97,-8 97,-40 281,-40 281,-8 97,-8"/>
</g>
<!-- c_0_213 -->
<g id="node1" class="node">
<title>c_0_213</title>
<g id="a_node1"><a xlink:href="c_0_213.html" xlink:title="{ext&#45;real&#45;membered(â„)|â‡Š|PI âˆˆ ğ”¼}" target="_parent">
<polygon fill="#f8edd1" stroke="#7f7542" points="260.5,-120.5 260.5,-165.5 419.5,-165.5 419.5,-120.5 260.5,-120.5"/>
<text text-anchor="middle" x="340" y="-154.3" font-family="Times,serif" font-size="14.00">ext&#45;real&#45;membered(â„)</text>
<polyline fill="none" stroke="#7f7542" points="260.5,-150.5 419.5,-150.5 "/>
<text text-anchor="middle" x="340" y="-139.3" font-family="Times,serif" font-size="14.00">â‡Š</text>
<polyline fill="none" stroke="#7f7542" points="260.5,-135.5 419.5,-135.5 "/>
<text text-anchor="middle" x="340" y="-124.3" font-family="Times,serif" font-size="14.00">PI âˆˆ ğ”¼</text>
</a>
</g>
</g>
<!-- c_0_218 -->
<g id="node4" class="node">
<title>c_0_218</title>
<g id="a_node4"><a xlink:href="c_0_218.html" xlink:title="{PI âˆˆ ğ”¼}" target="_parent">
<polygon fill="#f8edd1" stroke="#7f7542" points="196,-68.5 196,-83.5 242,-83.5 242,-68.5 196,-68.5"/>
<text text-anchor="middle" x="219" y="-72.3" font-family="Times,serif" font-size="14.00">PI âˆˆ ğ”¼</text>
</a>
</g>
</g>
<!-- c_0_213&#45;&gt;c_0_218 -->
<g id="edge1" class="edge">
<title>c_0_213&#45;&gt;c_0_218</title>
<path fill="none" stroke="black" d="M264.67,-120.27C264.67,-101.52 264.67,-78 264.67,-78 264.67,-78 252.1,-78 252.1,-78"/>
<polygon fill="black" stroke="black" points="252.1,-74.5 242.1,-78 252.1,-81.5 252.1,-74.5"/>
</g>
<!-- c_0_78 -->
<g id="node2" class="node">
<title>c_0_78</title>
<g id="a_node2"><a xlink:href="c_0_78.html" xlink:title="{â„ âŠ† â„}" target="_parent">
<polygon fill="#f8edd1" stroke="#7f7542" points="196,-135.5 196,-150.5 242,-150.5 242,-135.5 196,-135.5"/>
<text text-anchor="middle" x="219" y="-139.3" font-family="Times,serif" font-size="14.00">â„ âŠ† â„</text>
</a>
</g>
</g>
<!-- c_0_78&#45;&gt;c_0_218 -->
<g id="edge2" class="edge">
<title>c_0_78&#45;&gt;c_0_218</title>
<path fill="none" stroke="black" d="M226.67,-135.31C226.67,-135.31 226.67,-93.6 226.67,-93.6"/>
<polygon fill="black" stroke="black" points="230.17,-93.6 226.67,-83.6 223.17,-93.6 230.17,-93.6"/>
</g>
<!-- c_0_214 -->
<g id="node3" class="node">
<title>c_0_214</title>
<g id="a_node3"><a xlink:href="c_0_214.html" xlink:title="{Xâ‚ âŠ† â„|â‡Š|ext&#45;real&#45;membered(Xâ‚)}" target="_parent">
<polygon fill="#f8edd1" stroke="#7f7542" points="16,-120.5 16,-165.5 178,-165.5 178,-120.5 16,-120.5"/>
<text text-anchor="middle" x="97" y="-154.3" font-family="Times,serif" font-size="14.00">Xâ‚ âŠ† â„</text>
<polyline fill="none" stroke="#7f7542" points="16,-150.5 178,-150.5 "/>
<text text-anchor="middle" x="97" y="-139.3" font-family="Times,serif" font-size="14.00">â‡Š</text>
<polyline fill="none" stroke="#7f7542" points="16,-135.5 178,-135.5 "/>
<text text-anchor="middle" x="97" y="-124.3" font-family="Times,serif" font-size="14.00">ext&#45;real&#45;membered(Xâ‚)</text>
</a>
</g>
</g>
<!-- c_0_214&#45;&gt;c_0_218 -->
<g id="edge3" class="edge">
<title>c_0_214&#45;&gt;c_0_218</title>
<path fill="none" stroke="black" d="M178.26,-127C196.89,-127 211.33,-127 211.33,-127 211.33,-127 211.33,-93.53 211.33,-93.53"/>
<polygon fill="black" stroke="black" points="214.83,-93.53 211.33,-83.53 207.83,-93.53 214.83,-93.53"/>
</g>
<!-- c_0_224 -->
<g id="node5" class="node">
<title>c_0_224</title>
<g id="a_node5"><a xlink:href="c_0_224.html" xlink:title="âŠ¥" target="_parent">
<polygon fill="#fa6900" stroke="#7f7542" points="259,-16.5 259,-31.5 273,-31.5 273,-16.5 259,-16.5"/>
<text text-anchor="middle" x="266" y="-20.3" font-family="Times,serif" font-size="14.00">âŠ¥</text>
</a>
</g>
</g>
<!-- c_0_218&#45;&gt;c_0_224 -->
<g id="edge4" class="edge">
<title>c_0_218&#45;&gt;c_0_224</title>
<path fill="none" stroke="black" stroke-dasharray="5,2" d="M242.17,-73C255.18,-73 268.83,-73 268.83,-73 268.83,-73 268.83,-41.66 268.83,-41.66"/>
<polygon fill="black" stroke="black" points="272.33,-41.66 268.83,-31.66 265.33,-41.66 272.33,-41.66"/>
</g>
<!-- c_0_221 -->
<g id="node6" class="node">
<title>c_0_221</title>
<g id="a_node6"><a xlink:href="c_0_221.html" xlink:title="{PI ]....[ (2 * PI) â‰  Ã˜}" target="_parent">
<polygon fill="#fa6900" stroke="#7f7542" points="105,-16.5 105,-31.5 241,-31.5 241,-16.5 105,-16.5"/>
<text text-anchor="middle" x="173" y="-20.3" font-family="Times,serif" font-size="14.00">PI ]....[ (2 * PI) â‰  Ã˜</text>
</a>
</g>
</g>
<!-- c_0_218&#45;&gt;c_0_221 -->
<g id="edge5" class="edge">
<title>c_0_218&#45;&gt;c_0_221</title>
<path fill="none" stroke="black" stroke-dasharray="5,2" d="M218.5,-68.33C218.5,-68.33 218.5,-41.7 218.5,-41.7"/>
<polygon fill="black" stroke="black" points="222,-41.7 218.5,-31.7 215,-41.7 222,-41.7"/>
</g>
</g>
</svg>
