<?xml version="1.0" encoding="UTF-8" standalone="no"?>
<!DOCTYPE svg PUBLIC "-//W3C//DTD SVG 1.1//EN"
 "http://www.w3.org/Graphics/SVG/1.1/DTD/svg11.dtd">
<!-- Generated by graphviz version 5.0.0 (0)
 -->
<!-- Title: proof Pages: 1 -->
<svg width="302pt" height="295pt"
 viewBox="0.00 0.00 302.00 295.00" xmlns="http://www.w3.org/2000/svg" xmlns:xlink="http://www.w3.org/1999/xlink">
<g id="graph0" class="graph" transform="scale(1 1) rotate(0) translate(4 291)">
<title>proof</title>
<g id="clust1" class="cluster">
<title>cluster_0</title>
<polygon fill="transparent" stroke="black" stroke-dasharray="1,5" points="8,-202 8,-279 286,-279 286,-202 8,-202"/>
</g>
<g id="clust2" class="cluster">
<title>cluster_1</title>
<polygon fill="transparent" stroke="black" stroke-width="2" points="80,-105 80,-182 194,-182 194,-105 80,-105"/>
</g>
<g id="clust3" class="cluster">
<title>cluster_2</title>
<polygon fill="transparent" stroke="black" stroke-dasharray="1,5" points="11,-8 11,-85 263,-85 263,-8 11,-8"/>
</g>
<!-- c_0_73 -->
<g id="node1" class="node">
<title>c_0_73</title>
<g id="a_node1"><a xlink:href="c_0_73.html" xlink:title="{X₁ ∈ ℝ|⇊|&#45;(&#45;(X₁)) = X₁}" target="_vizar">
<polygon fill="#f8edd1" stroke="#7f7542" points="196,-218 196,-263 278,-263 278,-218 196,-218"/>
<text text-anchor="middle" x="237" y="-251.8" font-family="Times,serif" font-size="14.00">X₁ ∈ ℝ</text>
<polyline fill="none" stroke="#7f7542" points="196,-248 278,-248 "/>
<text text-anchor="middle" x="237" y="-236.8" font-family="Times,serif" font-size="14.00">⇊</text>
<polyline fill="none" stroke="#7f7542" points="196,-233 278,-233 "/>
<text text-anchor="middle" x="237" y="-221.8" font-family="Times,serif" font-size="14.00">&#45;(&#45;(X₁)) = X₁</text>
</a>
</g>
</g>
<!-- c_0_173 -->
<g id="node4" class="node">
<title>c_0_173</title>
<g id="a_node4"><a xlink:href="c_0_173.html" xlink:title="{X₁ ∈ ℝ|⇊|0 ≤ X₁|positive(&#45;(X₁))}" target="_vizar">
<polygon fill="#f8edd1" stroke="#7f7542" points="88.5,-113.5 88.5,-173.5 185.5,-173.5 185.5,-113.5 88.5,-113.5"/>
<text text-anchor="middle" x="137" y="-162.3" font-family="Times,serif" font-size="14.00">X₁ ∈ ℝ</text>
<polyline fill="none" stroke="#7f7542" points="88.5,-158.5 185.5,-158.5 "/>
<text text-anchor="middle" x="137" y="-147.3" font-family="Times,serif" font-size="14.00">⇊</text>
<polyline fill="none" stroke="#7f7542" points="88.5,-143.5 185.5,-143.5 "/>
<text text-anchor="middle" x="137" y="-132.3" font-family="Times,serif" font-size="14.00">0 ≤ X₁</text>
<polyline fill="none" stroke="#7f7542" points="88.5,-128.5 185.5,-128.5 "/>
<text text-anchor="middle" x="137" y="-117.3" font-family="Times,serif" font-size="14.00">positive(&#45;(X₁))</text>
</a>
</g>
</g>
<!-- c_0_73&#45;&gt;c_0_173 -->
<g id="edge1" class="edge">
<title>c_0_73&#45;&gt;c_0_173</title>
<path fill="none" stroke="black" d="M195.98,-240C187.84,-240 181.75,-240 181.75,-240 181.75,-240 181.75,-183.5 181.75,-183.5"/>
<polygon fill="black" stroke="black" points="185.25,-183.5 181.75,-173.5 178.25,-183.5 185.25,-183.5"/>
</g>
<!-- c_0_165 -->
<g id="node2" class="node">
<title>c_0_165</title>
<g id="a_node2"><a xlink:href="c_0_165.html" xlink:title="{X₁ ∈ ℝ|⇊|0 ≤ &#45;(X₁)|positive(X₁)}" target="_vizar">
<polygon fill="#f8edd1" stroke="#7f7542" points="96,-210.5 96,-270.5 178,-270.5 178,-210.5 96,-210.5"/>
<text text-anchor="middle" x="137" y="-259.3" font-family="Times,serif" font-size="14.00">X₁ ∈ ℝ</text>
<polyline fill="none" stroke="#7f7542" points="96,-255.5 178,-255.5 "/>
<text text-anchor="middle" x="137" y="-244.3" font-family="Times,serif" font-size="14.00">⇊</text>
<polyline fill="none" stroke="#7f7542" points="96,-240.5 178,-240.5 "/>
<text text-anchor="middle" x="137" y="-229.3" font-family="Times,serif" font-size="14.00">0 ≤ &#45;(X₁)</text>
<polyline fill="none" stroke="#7f7542" points="96,-225.5 178,-225.5 "/>
<text text-anchor="middle" x="137" y="-214.3" font-family="Times,serif" font-size="14.00">positive(X₁)</text>
</a>
</g>
</g>
<!-- c_0_165&#45;&gt;c_0_173 -->
<g id="edge2" class="edge">
<title>c_0_165&#45;&gt;c_0_173</title>
<path fill="none" stroke="black" d="M137,-210.34C137,-210.34 137,-183.64 137,-183.64"/>
<polygon fill="black" stroke="black" points="140.5,-183.64 137,-173.64 133.5,-183.64 140.5,-183.64"/>
</g>
<!-- c_0_74 -->
<g id="node3" class="node">
<title>c_0_74</title>
<g id="a_node3"><a xlink:href="c_0_74.html" xlink:title="{X₁ ∈ ℝ|⇊|&#45;(X₁) ∈ ℝ}" target="_vizar">
<polygon fill="#f8edd1" stroke="#7f7542" points="16,-218 16,-263 78,-263 78,-218 16,-218"/>
<text text-anchor="middle" x="47" y="-251.8" font-family="Times,serif" font-size="14.00">X₁ ∈ ℝ</text>
<polyline fill="none" stroke="#7f7542" points="16,-248 78,-248 "/>
<text text-anchor="middle" x="47" y="-236.8" font-family="Times,serif" font-size="14.00">⇊</text>
<polyline fill="none" stroke="#7f7542" points="16,-233 78,-233 "/>
<text text-anchor="middle" x="47" y="-221.8" font-family="Times,serif" font-size="14.00">&#45;(X₁) ∈ ℝ</text>
</a>
</g>
</g>
<!-- c_0_74&#45;&gt;c_0_173 -->
<g id="edge3" class="edge">
<title>c_0_74&#45;&gt;c_0_173</title>
<path fill="none" stroke="black" d="M78.43,-240C86.15,-240 92.25,-240 92.25,-240 92.25,-240 92.25,-183.5 92.25,-183.5"/>
<polygon fill="black" stroke="black" points="95.75,-183.5 92.25,-173.5 88.75,-183.5 95.75,-183.5"/>
</g>
<!-- c_0_181 -->
<g id="node5" class="node">
<title>c_0_181</title>
<g id="a_node5"><a xlink:href="c_0_181.html" xlink:title="{sin . sk₂(PI,2 * PI,cos) ∈ ℝ|⇊|PI ]....[ (2 * PI) = Ø|positive(&#45;(sin . sk₂(PI,2 * PI,cos)))}" target="_vizar">
<polygon fill="#f8edd1" stroke="#7f7542" points="19.5,-16.5 19.5,-76.5 254.5,-76.5 254.5,-16.5 19.5,-16.5"/>
<text text-anchor="middle" x="137" y="-65.3" font-family="Times,serif" font-size="14.00">sin . sk₂(PI,2 * PI,cos) ∈ ℝ</text>
<polyline fill="none" stroke="#7f7542" points="19.5,-61.5 254.5,-61.5 "/>
<text text-anchor="middle" x="137" y="-50.3" font-family="Times,serif" font-size="14.00">⇊</text>
<polyline fill="none" stroke="#7f7542" points="19.5,-46.5 254.5,-46.5 "/>
<text text-anchor="middle" x="137" y="-35.3" font-family="Times,serif" font-size="14.00">PI ]....[ (2 * PI) = Ø</text>
<polyline fill="none" stroke="#7f7542" points="19.5,-31.5 254.5,-31.5 "/>
<text text-anchor="middle" x="137" y="-20.3" font-family="Times,serif" font-size="14.00">positive(&#45;(sin . sk₂(PI,2 * PI,cos)))</text>
</a>
</g>
</g>
<!-- c_0_173&#45;&gt;c_0_181 -->
<g id="edge4" class="edge">
<title>c_0_173&#45;&gt;c_0_181</title>
<path fill="none" stroke="black" stroke-dasharray="5,2" d="M137,-113.34C137,-113.34 137,-86.64 137,-86.64"/>
<polygon fill="black" stroke="black" points="140.5,-86.64 137,-76.64 133.5,-86.64 140.5,-86.64"/>
</g>
</g>
</svg>
