<?xml version="1.0" encoding="UTF-8" standalone="no"?>
<!DOCTYPE svg PUBLIC "-//W3C//DTD SVG 1.1//EN"
 "http://www.w3.org/Graphics/SVG/1.1/DTD/svg11.dtd">
<!-- Generated by graphviz version 5.0.0 (0)
 -->
<!-- Title: proof Pages: 1 -->
<svg width="280pt" height="175pt"
 viewBox="0.00 0.00 280.00 175.00" xmlns="http://www.w3.org/2000/svg" xmlns:xlink="http://www.w3.org/1999/xlink">
<g id="graph0" class="graph" transform="scale(1 1) rotate(0) translate(4 171)">
<title>proof</title>
<g id="clust1" class="cluster">
<title>cluster_0</title>
<polygon fill="transparent" stroke="black" stroke-dasharray="1,5" points="12,-127 12,-159 206,-159 206,-127 12,-127"/>
</g>
<g id="clust2" class="cluster">
<title>cluster_1</title>
<polygon fill="transparent" stroke="black" stroke-width="2" points="44,-75 44,-107 170,-107 170,-75 44,-75"/>
</g>
<g id="clust3" class="cluster">
<title>cluster_2</title>
<polygon fill="transparent" stroke="black" stroke-dasharray="1,5" points="8,-8 8,-55 264,-55 264,-8 8,-8"/>
</g>
<!-- c_0_130 -->
<g id="node1" class="node">
<title>c_0_130</title>
<g id="a_node1"><a xlink:href="c_0_130.html" xlink:title="{¬ (negative(N₁))}" target="_vizar">
<polygon fill="#f8edd1" stroke="#7f7542" points="80.5,-135.5 80.5,-150.5 197.5,-150.5 197.5,-135.5 80.5,-135.5"/>
<text text-anchor="middle" x="139" y="-139.3" font-family="Times,serif" font-size="14.00">¬ (negative(N₁))</text>
</a>
</g>
</g>
<!-- c_0_144 -->
<g id="node3" class="node">
<title>c_0_144</title>
<g id="a_node3"><a xlink:href="c_0_144.html" xlink:title="{¬ (negative(0))}" target="_vizar">
<polygon fill="#f8edd1" stroke="#7f7542" points="52.5,-83.5 52.5,-98.5 161.5,-98.5 161.5,-83.5 52.5,-83.5"/>
<text text-anchor="middle" x="107" y="-87.3" font-family="Times,serif" font-size="14.00">¬ (negative(0))</text>
</a>
</g>
</g>
<!-- c_0_130&#45;&gt;c_0_144 -->
<g id="edge1" class="edge">
<title>c_0_130&#45;&gt;c_0_144</title>
<path fill="none" stroke="black" d="M121,-135.33C121,-135.33 121,-108.7 121,-108.7"/>
<polygon fill="black" stroke="black" points="124.5,-108.7 121,-98.7 117.5,-108.7 124.5,-108.7"/>
</g>
<!-- c_0_112 -->
<g id="node2" class="node">
<title>c_0_112</title>
<g id="a_node2"><a xlink:href="c_0_112.html" xlink:title="{0 ∈ ℕ}" target="_vizar">
<polygon fill="#f8edd1" stroke="#7f7542" points="20,-135.5 20,-150.5 62,-150.5 62,-135.5 20,-135.5"/>
<text text-anchor="middle" x="41" y="-139.3" font-family="Times,serif" font-size="14.00">0 ∈ ℕ</text>
</a>
</g>
</g>
<!-- c_0_112&#45;&gt;c_0_144 -->
<g id="edge2" class="edge">
<title>c_0_112&#45;&gt;c_0_144</title>
<path fill="none" stroke="black" d="M57.25,-135.33C57.25,-135.33 57.25,-108.7 57.25,-108.7"/>
<polygon fill="black" stroke="black" points="60.75,-108.7 57.25,-98.7 53.75,-108.7 60.75,-108.7"/>
</g>
<!-- c_0_180 -->
<g id="node4" class="node">
<title>c_0_180</title>
<g id="a_node4"><a xlink:href="c_0_180.html" xlink:title="{¬ (positive(0))}" target="_vizar">
<polygon fill="#f8edd1" stroke="#7f7542" points="152.5,-24 152.5,-39 255.5,-39 255.5,-24 152.5,-24"/>
<text text-anchor="middle" x="204" y="-27.8" font-family="Times,serif" font-size="14.00">¬ (positive(0))</text>
</a>
</g>
</g>
<!-- c_0_144&#45;&gt;c_0_180 -->
<g id="edge3" class="edge">
<title>c_0_144&#45;&gt;c_0_180</title>
<path fill="none" stroke="black" stroke-dasharray="5,2" d="M157,-83.22C157,-83.22 157,-49.09 157,-49.09"/>
<polygon fill="black" stroke="black" points="160.5,-49.09 157,-39.09 153.5,-49.09 160.5,-49.09"/>
</g>
<!-- c_0_156 -->
<g id="node5" class="node">
<title>c_0_156</title>
<g id="a_node5"><a xlink:href="c_0_156.html" xlink:title="{R₁ ≤ R₂|positive(&#45;(R₁,R₂))}" target="_vizar">
<polygon fill="#f8edd1" stroke="#7f7542" points="16,-16.5 16,-46.5 134,-46.5 134,-16.5 16,-16.5"/>
<text text-anchor="middle" x="75" y="-35.3" font-family="Times,serif" font-size="14.00">R₁ ≤ R₂</text>
<polyline fill="none" stroke="#7f7542" points="16,-31.5 134,-31.5 "/>
<text text-anchor="middle" x="75" y="-20.3" font-family="Times,serif" font-size="14.00">positive(&#45;(R₁,R₂))</text>
</a>
</g>
</g>
<!-- c_0_144&#45;&gt;c_0_156 -->
<g id="edge4" class="edge">
<title>c_0_144&#45;&gt;c_0_156</title>
<path fill="none" stroke="black" stroke-dasharray="5,2" d="M93.25,-83.22C93.25,-83.22 93.25,-56.85 93.25,-56.85"/>
<polygon fill="black" stroke="black" points="96.75,-56.85 93.25,-46.85 89.75,-56.85 96.75,-56.85"/>
</g>
</g>
</svg>
