<?xml version="1.0" encoding="UTF-8" standalone="no"?>
<!DOCTYPE svg PUBLIC "-//W3C//DTD SVG 1.1//EN"
 "http://www.w3.org/Graphics/SVG/1.1/DTD/svg11.dtd">
<!-- Generated by graphviz version 5.0.0 (0)
 -->
<!-- Title: proof Pages: 1 -->
<svg width="148pt" height="108pt"
 viewBox="0.00 0.00 148.00 108.00" xmlns="http://www.w3.org/2000/svg" xmlns:xlink="http://www.w3.org/1999/xlink">
<g id="graph0" class="graph" transform="scale(1 1) rotate(0) translate(4 104)">
<title>proof</title>
<g id="clust1" class="cluster">
<title>cluster_1</title>
<polygon fill="transparent" stroke="black" stroke-width="2" points="8,-60 8,-92 132,-92 132,-60 8,-60"/>
</g>
<g id="clust2" class="cluster">
<title>cluster_2</title>
<polygon fill="transparent" stroke="black" stroke-dasharray="1,5" points="41,-8 41,-40 99,-40 99,-8 41,-8"/>
</g>
<!-- spc2_numerals -->
<g id="node1" class="node">
<title>spc2_numerals</title>
<g id="a_node1"><a xlink:href="spc2_numerals.html" xlink:title="spc2_numerals" target="_vizar">
<polygon fill="#69d2e7" stroke="#7f7542" points="16.5,-68.5 16.5,-83.5 123.5,-83.5 123.5,-68.5 16.5,-68.5"/>
<text text-anchor="middle" x="70" y="-72.3" font-family="Times,serif" font-size="14.00">spc2_numerals</text>
</a>
</g>
</g>
<!-- c_0_163 -->
<g id="node2" class="node">
<title>c_0_163</title>
<g id="a_node2"><a xlink:href="c_0_163.html" xlink:title="{2 ∈ ℝ}" target="_vizar">
<polygon fill="#f8edd1" stroke="#7f7542" points="49.5,-16.5 49.5,-31.5 90.5,-31.5 90.5,-16.5 49.5,-16.5"/>
<text text-anchor="middle" x="70" y="-20.3" font-family="Times,serif" font-size="14.00">2 ∈ ℝ</text>
</a>
</g>
</g>
<!-- spc2_numerals&#45;&gt;c_0_163 -->
<g id="edge1" class="edge">
<title>spc2_numerals&#45;&gt;c_0_163</title>
<path fill="none" stroke="black" d="M70,-68.33C70,-68.33 70,-41.7 70,-41.7"/>
<polygon fill="black" stroke="black" points="73.5,-41.7 70,-31.7 66.5,-41.7 73.5,-41.7"/>
</g>
</g>
</svg>
