<?xml version="1.0" encoding="UTF-8" standalone="no"?>
<!DOCTYPE svg PUBLIC "-//W3C//DTD SVG 1.1//EN"
 "http://www.w3.org/Graphics/SVG/1.1/DTD/svg11.dtd">
<!-- Generated by graphviz version 5.0.0 (0)
 -->
<!-- Title: proof Pages: 1 -->
<svg width="156pt" height="108pt"
 viewBox="0.00 0.00 156.00 108.00" xmlns="http://www.w3.org/2000/svg" xmlns:xlink="http://www.w3.org/1999/xlink">
<g id="graph0" class="graph" transform="scale(1 1) rotate(0) translate(4 104)">
<title>proof</title>
<g id="clust1" class="cluster">
<title>cluster_1</title>
<polygon fill="transparent" stroke="black" stroke-width="2" points="25,-60 25,-92 123,-92 123,-60 25,-60"/>
</g>
<g id="clust2" class="cluster">
<title>cluster_2</title>
<polygon fill="transparent" stroke="black" stroke-dasharray="1,5" points="8,-8 8,-40 140,-40 140,-8 8,-8"/>
</g>
<!-- t24_sin_cos -->
<g id="node1" class="node">
<title>t24_sin_cos</title>
<g id="a_node1"><a xlink:href="t24_sin_cos.html" xlink:title="t24_sin_cos" target="_vizar">
<polygon fill="#69d2e7" stroke="#7f7542" points="33,-68.5 33,-83.5 115,-83.5 115,-68.5 33,-68.5"/>
<text text-anchor="middle" x="74" y="-72.3" font-family="Times,serif" font-size="14.00">t24_sin_cos</text>
</a>
</g>
</g>
<!-- c_0_96 -->
<g id="node2" class="node">
<title>c_0_96</title>
<g id="a_node2"><a xlink:href="c_0_96.html" xlink:title="{dom(ℝ,cos) = ℝ}" target="_vizar">
<polygon fill="#f8edd1" stroke="#7f7542" points="16.5,-16.5 16.5,-31.5 131.5,-31.5 131.5,-16.5 16.5,-16.5"/>
<text text-anchor="middle" x="74" y="-20.3" font-family="Times,serif" font-size="14.00">dom(ℝ,cos) = ℝ</text>
</a>
</g>
</g>
<!-- t24_sin_cos&#45;&gt;c_0_96 -->
<g id="edge1" class="edge">
<title>t24_sin_cos&#45;&gt;c_0_96</title>
<path fill="none" stroke="black" d="M74,-68.33C74,-68.33 74,-41.7 74,-41.7"/>
<polygon fill="black" stroke="black" points="77.5,-41.7 74,-31.7 70.5,-41.7 77.5,-41.7"/>
</g>
</g>
</svg>
