<?xml version="1.0" encoding="UTF-8" standalone="no"?>
<!DOCTYPE svg PUBLIC "-//W3C//DTD SVG 1.1//EN"
 "http://www.w3.org/Graphics/SVG/1.1/DTD/svg11.dtd">
<!-- Generated by graphviz version 5.0.0 (0)
 -->
<!-- Title: proof Pages: 1 -->
<svg width="545pt" height="228pt"
 viewBox="0.00 0.00 545.00 228.00" xmlns="http://www.w3.org/2000/svg" xmlns:xlink="http://www.w3.org/1999/xlink">
<g id="graph0" class="graph" transform="scale(1 1) rotate(0) translate(4 224)">
<title>proof</title>
<g id="clust1" class="cluster">
<title>cluster_1</title>
<polygon fill="transparent" stroke="black" stroke-width="2" points="232,-180 232,-212 304,-212 304,-180 232,-180"/>
</g>
<g id="clust2" class="cluster">
<title>cluster_2</title>
<polygon fill="transparent" stroke="black" stroke-dasharray="1,5" points="8,-8 8,-160 529,-160 529,-8 8,-8"/>
</g>
<!-- t9_rolle -->
<g id="node1" class="node">
<title>t9_rolle</title>
<g id="a_node1"><a xlink:href="t9_rolle.html" xlink:title="t9_rolle" target="_parent">
<polygon fill="#69d2e7" stroke="#7f7542" points="240.5,-188.5 240.5,-203.5 295.5,-203.5 295.5,-188.5 240.5,-188.5"/>
<text text-anchor="middle" x="268" y="-192.3" font-family="Times,serif" font-size="14.00">t9_rolle</text>
</a>
</g>
</g>
<!-- c_0_65 -->
<g id="node2" class="node">
<title>c_0_65</title>
<g id="a_node2"><a xlink:href="c_0_65.html" xlink:title="{X₁ ]....[ X₂ ⊆ dom(ℝ,X₃)|X₁ ∈ ℝ|X₂ ∈ ℝ|X₃ ∈ bool(ℝ × ℝ)|function(X₃)|is_differentiable_on(X₃,X₁ ]....[ X₂)|⇊|increasing(ℝ \| ℝ \| X₃ \| (X₁ ]....[ X₂))|sk₂(X₁,X₂,X₃) ∈ X₁ ]....[ X₂}" target="_parent">
<polygon fill="#f8edd1" stroke="#7f7542" points="277.5,-16.5 277.5,-151.5 520.5,-151.5 520.5,-16.5 277.5,-16.5"/>
<text text-anchor="middle" x="399" y="-140.3" font-family="Times,serif" font-size="14.00">X₁ ]....[ X₂ ⊆ dom(ℝ,X₃)</text>
<polyline fill="none" stroke="#7f7542" points="277.5,-136.5 520.5,-136.5 "/>
<text text-anchor="middle" x="399" y="-125.3" font-family="Times,serif" font-size="14.00">X₁ ∈ ℝ</text>
<polyline fill="none" stroke="#7f7542" points="277.5,-121.5 520.5,-121.5 "/>
<text text-anchor="middle" x="399" y="-110.3" font-family="Times,serif" font-size="14.00">X₂ ∈ ℝ</text>
<polyline fill="none" stroke="#7f7542" points="277.5,-106.5 520.5,-106.5 "/>
<text text-anchor="middle" x="399" y="-95.3" font-family="Times,serif" font-size="14.00">X₃ ∈ bool(ℝ × ℝ)</text>
<polyline fill="none" stroke="#7f7542" points="277.5,-91.5 520.5,-91.5 "/>
<text text-anchor="middle" x="399" y="-80.3" font-family="Times,serif" font-size="14.00">function(X₃)</text>
<polyline fill="none" stroke="#7f7542" points="277.5,-76.5 520.5,-76.5 "/>
<text text-anchor="middle" x="399" y="-65.3" font-family="Times,serif" font-size="14.00">is_differentiable_on(X₃,X₁ ]....[ X₂)</text>
<polyline fill="none" stroke="#7f7542" points="277.5,-61.5 520.5,-61.5 "/>
<text text-anchor="middle" x="399" y="-50.3" font-family="Times,serif" font-size="14.00">⇊</text>
<polyline fill="none" stroke="#7f7542" points="277.5,-46.5 520.5,-46.5 "/>
<text text-anchor="middle" x="399" y="-35.3" font-family="Times,serif" font-size="14.00">increasing(ℝ | ℝ | X₃ | (X₁ ]....[ X₂))</text>
<polyline fill="none" stroke="#7f7542" points="277.5,-31.5 520.5,-31.5 "/>
<text text-anchor="middle" x="399" y="-20.3" font-family="Times,serif" font-size="14.00">sk₂(X₁,X₂,X₃) ∈ X₁ ]....[ X₂</text>
</a>
</g>
</g>
<!-- t9_rolle&#45;&gt;c_0_65 -->
<g id="edge1" class="edge">
<title>t9_rolle&#45;&gt;c_0_65</title>
<path fill="none" stroke="black" d="M286.5,-188.3C286.5,-188.3 286.5,-161.55 286.5,-161.55"/>
<polygon fill="black" stroke="black" points="290,-161.55 286.5,-151.55 283,-161.55 290,-161.55"/>
</g>
<!-- c_0_170 -->
<g id="node3" class="node">
<title>c_0_170</title>
<g id="a_node3"><a xlink:href="c_0_170.html" xlink:title="{X₁ ∈ bool(ℝ × ℝ)|X₂ ]....[ X₃ ⊆ dom(ℝ,X₁)|X₂ ∈ ℝ|X₃ ∈ ℝ|function(X₁)|is_differentiable_on(X₁,X₂ ]....[ X₃)|⇊|diff(X₁,sk₂(X₂,X₃,X₁)) ≤ 0|increasing(ℝ \| ℝ \| X₁ \| (X₂ ]....[ X₃))}" target="_parent">
<polygon fill="#f8edd1" stroke="#7f7542" points="16.5,-16.5 16.5,-151.5 259.5,-151.5 259.5,-16.5 16.5,-16.5"/>
<text text-anchor="middle" x="138" y="-140.3" font-family="Times,serif" font-size="14.00">X₁ ∈ bool(ℝ × ℝ)</text>
<polyline fill="none" stroke="#7f7542" points="16.5,-136.5 259.5,-136.5 "/>
<text text-anchor="middle" x="138" y="-125.3" font-family="Times,serif" font-size="14.00">X₂ ]....[ X₃ ⊆ dom(ℝ,X₁)</text>
<polyline fill="none" stroke="#7f7542" points="16.5,-121.5 259.5,-121.5 "/>
<text text-anchor="middle" x="138" y="-110.3" font-family="Times,serif" font-size="14.00">X₂ ∈ ℝ</text>
<polyline fill="none" stroke="#7f7542" points="16.5,-106.5 259.5,-106.5 "/>
<text text-anchor="middle" x="138" y="-95.3" font-family="Times,serif" font-size="14.00">X₃ ∈ ℝ</text>
<polyline fill="none" stroke="#7f7542" points="16.5,-91.5 259.5,-91.5 "/>
<text text-anchor="middle" x="138" y="-80.3" font-family="Times,serif" font-size="14.00">function(X₁)</text>
<polyline fill="none" stroke="#7f7542" points="16.5,-76.5 259.5,-76.5 "/>
<text text-anchor="middle" x="138" y="-65.3" font-family="Times,serif" font-size="14.00">is_differentiable_on(X₁,X₂ ]....[ X₃)</text>
<polyline fill="none" stroke="#7f7542" points="16.5,-61.5 259.5,-61.5 "/>
<text text-anchor="middle" x="138" y="-50.3" font-family="Times,serif" font-size="14.00">⇊</text>
<polyline fill="none" stroke="#7f7542" points="16.5,-46.5 259.5,-46.5 "/>
<text text-anchor="middle" x="138" y="-35.3" font-family="Times,serif" font-size="14.00">diff(X₁,sk₂(X₂,X₃,X₁)) ≤ 0</text>
<polyline fill="none" stroke="#7f7542" points="16.5,-31.5 259.5,-31.5 "/>
<text text-anchor="middle" x="138" y="-20.3" font-family="Times,serif" font-size="14.00">increasing(ℝ | ℝ | X₁ | (X₂ ]....[ X₃))</text>
</a>
</g>
</g>
<!-- t9_rolle&#45;&gt;c_0_170 -->
<g id="edge2" class="edge">
<title>t9_rolle&#45;&gt;c_0_170</title>
<path fill="none" stroke="black" d="M250,-188.3C250,-188.3 250,-161.55 250,-161.55"/>
<polygon fill="black" stroke="black" points="253.5,-161.55 250,-151.55 246.5,-161.55 253.5,-161.55"/>
</g>
</g>
</svg>
