<?xml version="1.0" encoding="UTF-8" standalone="no"?>
<!DOCTYPE svg PUBLIC "-//W3C//DTD SVG 1.1//EN"
 "http://www.w3.org/Graphics/SVG/1.1/DTD/svg11.dtd">
<!-- Generated by graphviz version 5.0.0 (0)
 -->
<!-- Title: proof Pages: 1 -->
<svg width="1450pt" height="685pt"
 viewBox="0.00 0.00 1450.00 685.00" xmlns="http://www.w3.org/2000/svg" xmlns:xlink="http://www.w3.org/1999/xlink">
<g id="graph0" class="graph" transform="scale(1 1) rotate(0) translate(4 681)">
<title>proof</title>
<g id="clust1" class="cluster">
<title>cluster_0</title>
<polygon fill="transparent" stroke="black" stroke-dasharray="1,5" points="8,-427 8,-669 1434,-669 1434,-427 8,-427"/>
</g>
<g id="clust2" class="cluster">
<title>cluster_1</title>
<polygon fill="transparent" stroke="black" stroke-width="2" points="501,-240 501,-407 829,-407 829,-240 501,-240"/>
</g>
<g id="clust3" class="cluster">
<title>cluster_2</title>
<polygon fill="transparent" stroke="black" stroke-dasharray="1,5" points="501,-8 501,-220 829,-220 829,-8 501,-8"/>
</g>
<!-- c_0_122 -->
<g id="node1" class="node">
<title>c_0_122</title>
<g id="a_node1"><a xlink:href="c_0_122.html" xlink:title="{TopStruct(X₁)|X₂ ∈ bool(carrier(X₁))|card(sk₄(X₁,X₂)) = Rnk(X₁,X₂)|finite(sk₄(X₁,X₂))|finite(sk₈(X₁,sk₄(X₁,X₂),X₂))|finite&#45;degree(X₁)|open(sk₄(X₁,X₂),X₁)|sk₄(X₁,X₂) ∈ bool(carrier(X₁))|sk₄(X₁,X₂) ⊆ X₂|subset&#45;closed(X₁)|with_exchange_property(X₁)|⇊|empty(X₁)|is_maximal_independent_in(X₁,sk₄(X₁,X₂),X₂)|void(X₁)}" target="_parent">
<polygon fill="#f8edd1" stroke="#7f7542" points="1114,-435.5 1114,-660.5 1426,-660.5 1426,-435.5 1114,-435.5"/>
<text text-anchor="middle" x="1270" y="-649.3" font-family="Times,serif" font-size="14.00">TopStruct(X₁)</text>
<polyline fill="none" stroke="#7f7542" points="1114,-645.5 1426,-645.5 "/>
<text text-anchor="middle" x="1270" y="-634.3" font-family="Times,serif" font-size="14.00">X₂ ∈ bool(carrier(X₁))</text>
<polyline fill="none" stroke="#7f7542" points="1114,-630.5 1426,-630.5 "/>
<text text-anchor="middle" x="1270" y="-619.3" font-family="Times,serif" font-size="14.00">card(sk₄(X₁,X₂)) = Rnk(X₁,X₂)</text>
<polyline fill="none" stroke="#7f7542" points="1114,-615.5 1426,-615.5 "/>
<text text-anchor="middle" x="1270" y="-604.3" font-family="Times,serif" font-size="14.00">finite(sk₄(X₁,X₂))</text>
<polyline fill="none" stroke="#7f7542" points="1114,-600.5 1426,-600.5 "/>
<text text-anchor="middle" x="1270" y="-589.3" font-family="Times,serif" font-size="14.00">finite(sk₈(X₁,sk₄(X₁,X₂),X₂))</text>
<polyline fill="none" stroke="#7f7542" points="1114,-585.5 1426,-585.5 "/>
<text text-anchor="middle" x="1270" y="-574.3" font-family="Times,serif" font-size="14.00">finite&#45;degree(X₁)</text>
<polyline fill="none" stroke="#7f7542" points="1114,-570.5 1426,-570.5 "/>
<text text-anchor="middle" x="1270" y="-559.3" font-family="Times,serif" font-size="14.00">open(sk₄(X₁,X₂),X₁)</text>
<polyline fill="none" stroke="#7f7542" points="1114,-555.5 1426,-555.5 "/>
<text text-anchor="middle" x="1270" y="-544.3" font-family="Times,serif" font-size="14.00">sk₄(X₁,X₂) ∈ bool(carrier(X₁))</text>
<polyline fill="none" stroke="#7f7542" points="1114,-540.5 1426,-540.5 "/>
<text text-anchor="middle" x="1270" y="-529.3" font-family="Times,serif" font-size="14.00">sk₄(X₁,X₂) ⊆ X₂</text>
<polyline fill="none" stroke="#7f7542" points="1114,-525.5 1426,-525.5 "/>
<text text-anchor="middle" x="1270" y="-514.3" font-family="Times,serif" font-size="14.00">subset&#45;closed(X₁)</text>
<polyline fill="none" stroke="#7f7542" points="1114,-510.5 1426,-510.5 "/>
<text text-anchor="middle" x="1270" y="-499.3" font-family="Times,serif" font-size="14.00">with_exchange_property(X₁)</text>
<polyline fill="none" stroke="#7f7542" points="1114,-495.5 1426,-495.5 "/>
<text text-anchor="middle" x="1270" y="-484.3" font-family="Times,serif" font-size="14.00">⇊</text>
<polyline fill="none" stroke="#7f7542" points="1114,-480.5 1426,-480.5 "/>
<text text-anchor="middle" x="1270" y="-469.3" font-family="Times,serif" font-size="14.00">empty(X₁)</text>
<polyline fill="none" stroke="#7f7542" points="1114,-465.5 1426,-465.5 "/>
<text text-anchor="middle" x="1270" y="-454.3" font-family="Times,serif" font-size="14.00">is_maximal_independent_in(X₁,sk₄(X₁,X₂),X₂)</text>
<polyline fill="none" stroke="#7f7542" points="1114,-450.5 1426,-450.5 "/>
<text text-anchor="middle" x="1270" y="-439.3" font-family="Times,serif" font-size="14.00">void(X₁)</text>
</a>
</g>
</g>
<!-- c_0_129 -->
<g id="node7" class="node">
<title>c_0_129</title>
<g id="a_node7"><a xlink:href="c_0_129.html" xlink:title="{TopStruct(X₁)|X₂ ∈ bool(carrier(X₁))|finite(sk₈(X₁,sk₄(X₁,X₂),X₂))|finite&#45;degree(X₁)|subset&#45;closed(X₁)|with_exchange_property(X₁)|⇊|empty(X₁)|is_maximal_independent_in(X₁,sk₄(X₁,X₂),X₂)|void(X₁)}" target="_parent">
<polygon fill="#f8edd1" stroke="#7f7542" points="509,-248.5 509,-398.5 821,-398.5 821,-248.5 509,-248.5"/>
<text text-anchor="middle" x="665" y="-387.3" font-family="Times,serif" font-size="14.00">TopStruct(X₁)</text>
<polyline fill="none" stroke="#7f7542" points="509,-383.5 821,-383.5 "/>
<text text-anchor="middle" x="665" y="-372.3" font-family="Times,serif" font-size="14.00">X₂ ∈ bool(carrier(X₁))</text>
<polyline fill="none" stroke="#7f7542" points="509,-368.5 821,-368.5 "/>
<text text-anchor="middle" x="665" y="-357.3" font-family="Times,serif" font-size="14.00">finite(sk₈(X₁,sk₄(X₁,X₂),X₂))</text>
<polyline fill="none" stroke="#7f7542" points="509,-353.5 821,-353.5 "/>
<text text-anchor="middle" x="665" y="-342.3" font-family="Times,serif" font-size="14.00">finite&#45;degree(X₁)</text>
<polyline fill="none" stroke="#7f7542" points="509,-338.5 821,-338.5 "/>
<text text-anchor="middle" x="665" y="-327.3" font-family="Times,serif" font-size="14.00">subset&#45;closed(X₁)</text>
<polyline fill="none" stroke="#7f7542" points="509,-323.5 821,-323.5 "/>
<text text-anchor="middle" x="665" y="-312.3" font-family="Times,serif" font-size="14.00">with_exchange_property(X₁)</text>
<polyline fill="none" stroke="#7f7542" points="509,-308.5 821,-308.5 "/>
<text text-anchor="middle" x="665" y="-297.3" font-family="Times,serif" font-size="14.00">⇊</text>
<polyline fill="none" stroke="#7f7542" points="509,-293.5 821,-293.5 "/>
<text text-anchor="middle" x="665" y="-282.3" font-family="Times,serif" font-size="14.00">empty(X₁)</text>
<polyline fill="none" stroke="#7f7542" points="509,-278.5 821,-278.5 "/>
<text text-anchor="middle" x="665" y="-267.3" font-family="Times,serif" font-size="14.00">is_maximal_independent_in(X₁,sk₄(X₁,X₂),X₂)</text>
<polyline fill="none" stroke="#7f7542" points="509,-263.5 821,-263.5 "/>
<text text-anchor="middle" x="665" y="-252.3" font-family="Times,serif" font-size="14.00">void(X₁)</text>
</a>
</g>
</g>
<!-- c_0_122&#45;&gt;c_0_129 -->
<g id="edge1" class="edge">
<title>c_0_122&#45;&gt;c_0_129</title>
<path fill="none" stroke="black" d="M1113.8,-457C967.75,-457 772,-457 772,-457 772,-457 772,-408.83 772,-408.83"/>
<polygon fill="black" stroke="black" points="775.5,-408.83 772,-398.83 768.5,-408.83 775.5,-408.83"/>
</g>
<!-- c_0_37 -->
<g id="node2" class="node">
<title>c_0_37</title>
<g id="a_node2"><a xlink:href="c_0_37.html" xlink:title="{TopStruct(X₁)|X₂ ∈ bool(carrier(X₁))|finite&#45;degree(X₁)|subset&#45;closed(X₁)|with_exchange_property(X₁)|⇊|empty(X₁)|open(sk₄(X₁,X₂),X₁)|void(X₁)}" target="_parent">
<polygon fill="#f8edd1" stroke="#7f7542" points="894.5,-480.5 894.5,-615.5 1095.5,-615.5 1095.5,-480.5 894.5,-480.5"/>
<text text-anchor="middle" x="995" y="-604.3" font-family="Times,serif" font-size="14.00">TopStruct(X₁)</text>
<polyline fill="none" stroke="#7f7542" points="894.5,-600.5 1095.5,-600.5 "/>
<text text-anchor="middle" x="995" y="-589.3" font-family="Times,serif" font-size="14.00">X₂ ∈ bool(carrier(X₁))</text>
<polyline fill="none" stroke="#7f7542" points="894.5,-585.5 1095.5,-585.5 "/>
<text text-anchor="middle" x="995" y="-574.3" font-family="Times,serif" font-size="14.00">finite&#45;degree(X₁)</text>
<polyline fill="none" stroke="#7f7542" points="894.5,-570.5 1095.5,-570.5 "/>
<text text-anchor="middle" x="995" y="-559.3" font-family="Times,serif" font-size="14.00">subset&#45;closed(X₁)</text>
<polyline fill="none" stroke="#7f7542" points="894.5,-555.5 1095.5,-555.5 "/>
<text text-anchor="middle" x="995" y="-544.3" font-family="Times,serif" font-size="14.00">with_exchange_property(X₁)</text>
<polyline fill="none" stroke="#7f7542" points="894.5,-540.5 1095.5,-540.5 "/>
<text text-anchor="middle" x="995" y="-529.3" font-family="Times,serif" font-size="14.00">⇊</text>
<polyline fill="none" stroke="#7f7542" points="894.5,-525.5 1095.5,-525.5 "/>
<text text-anchor="middle" x="995" y="-514.3" font-family="Times,serif" font-size="14.00">empty(X₁)</text>
<polyline fill="none" stroke="#7f7542" points="894.5,-510.5 1095.5,-510.5 "/>
<text text-anchor="middle" x="995" y="-499.3" font-family="Times,serif" font-size="14.00">open(sk₄(X₁,X₂),X₁)</text>
<polyline fill="none" stroke="#7f7542" points="894.5,-495.5 1095.5,-495.5 "/>
<text text-anchor="middle" x="995" y="-484.3" font-family="Times,serif" font-size="14.00">void(X₁)</text>
</a>
</g>
</g>
<!-- c_0_37&#45;&gt;c_0_129 -->
<g id="edge2" class="edge">
<title>c_0_37&#45;&gt;c_0_129</title>
<path fill="none" stroke="black" d="M995,-480.49C995,-414.22 995,-323 995,-323 995,-323 831.3,-323 831.3,-323"/>
<polygon fill="black" stroke="black" points="831.3,-319.5 821.3,-323 831.3,-326.5 831.3,-319.5"/>
</g>
<!-- c_0_48 -->
<g id="node3" class="node">
<title>c_0_48</title>
<g id="a_node3"><a xlink:href="c_0_48.html" xlink:title="{TopStruct(X₁)|X₂ ∈ bool(carrier(X₁))|finite&#45;degree(X₁)|subset&#45;closed(X₁)|with_exchange_property(X₁)|⇊|card(sk₄(X₁,X₂)) = Rnk(X₁,X₂)|empty(X₁)|void(X₁)}" target="_parent">
<polygon fill="#f8edd1" stroke="#7f7542" points="674,-480.5 674,-615.5 876,-615.5 876,-480.5 674,-480.5"/>
<text text-anchor="middle" x="775" y="-604.3" font-family="Times,serif" font-size="14.00">TopStruct(X₁)</text>
<polyline fill="none" stroke="#7f7542" points="674,-600.5 876,-600.5 "/>
<text text-anchor="middle" x="775" y="-589.3" font-family="Times,serif" font-size="14.00">X₂ ∈ bool(carrier(X₁))</text>
<polyline fill="none" stroke="#7f7542" points="674,-585.5 876,-585.5 "/>
<text text-anchor="middle" x="775" y="-574.3" font-family="Times,serif" font-size="14.00">finite&#45;degree(X₁)</text>
<polyline fill="none" stroke="#7f7542" points="674,-570.5 876,-570.5 "/>
<text text-anchor="middle" x="775" y="-559.3" font-family="Times,serif" font-size="14.00">subset&#45;closed(X₁)</text>
<polyline fill="none" stroke="#7f7542" points="674,-555.5 876,-555.5 "/>
<text text-anchor="middle" x="775" y="-544.3" font-family="Times,serif" font-size="14.00">with_exchange_property(X₁)</text>
<polyline fill="none" stroke="#7f7542" points="674,-540.5 876,-540.5 "/>
<text text-anchor="middle" x="775" y="-529.3" font-family="Times,serif" font-size="14.00">⇊</text>
<polyline fill="none" stroke="#7f7542" points="674,-525.5 876,-525.5 "/>
<text text-anchor="middle" x="775" y="-514.3" font-family="Times,serif" font-size="14.00">card(sk₄(X₁,X₂)) = Rnk(X₁,X₂)</text>
<polyline fill="none" stroke="#7f7542" points="674,-510.5 876,-510.5 "/>
<text text-anchor="middle" x="775" y="-499.3" font-family="Times,serif" font-size="14.00">empty(X₁)</text>
<polyline fill="none" stroke="#7f7542" points="674,-495.5 876,-495.5 "/>
<text text-anchor="middle" x="775" y="-484.3" font-family="Times,serif" font-size="14.00">void(X₁)</text>
</a>
</g>
</g>
<!-- c_0_48&#45;&gt;c_0_129 -->
<g id="edge3" class="edge">
<title>c_0_48&#45;&gt;c_0_129</title>
<path fill="none" stroke="black" d="M723,-480.34C723,-480.34 723,-408.87 723,-408.87"/>
<polygon fill="black" stroke="black" points="726.5,-408.87 723,-398.87 719.5,-408.87 726.5,-408.87"/>
</g>
<!-- c_0_90 -->
<g id="node4" class="node">
<title>c_0_90</title>
<g id="a_node4"><a xlink:href="c_0_90.html" xlink:title="{TopStruct(X₁)|X₂ ∈ bool(carrier(X₁))|finite&#45;degree(X₁)|subset&#45;closed(X₁)|with_exchange_property(X₁)|⇊|empty(X₁)|sk₄(X₁,X₂) ⊆ X₂|void(X₁)}" target="_parent">
<polygon fill="#f8edd1" stroke="#7f7542" points="454.5,-480.5 454.5,-615.5 655.5,-615.5 655.5,-480.5 454.5,-480.5"/>
<text text-anchor="middle" x="555" y="-604.3" font-family="Times,serif" font-size="14.00">TopStruct(X₁)</text>
<polyline fill="none" stroke="#7f7542" points="454.5,-600.5 655.5,-600.5 "/>
<text text-anchor="middle" x="555" y="-589.3" font-family="Times,serif" font-size="14.00">X₂ ∈ bool(carrier(X₁))</text>
<polyline fill="none" stroke="#7f7542" points="454.5,-585.5 655.5,-585.5 "/>
<text text-anchor="middle" x="555" y="-574.3" font-family="Times,serif" font-size="14.00">finite&#45;degree(X₁)</text>
<polyline fill="none" stroke="#7f7542" points="454.5,-570.5 655.5,-570.5 "/>
<text text-anchor="middle" x="555" y="-559.3" font-family="Times,serif" font-size="14.00">subset&#45;closed(X₁)</text>
<polyline fill="none" stroke="#7f7542" points="454.5,-555.5 655.5,-555.5 "/>
<text text-anchor="middle" x="555" y="-544.3" font-family="Times,serif" font-size="14.00">with_exchange_property(X₁)</text>
<polyline fill="none" stroke="#7f7542" points="454.5,-540.5 655.5,-540.5 "/>
<text text-anchor="middle" x="555" y="-529.3" font-family="Times,serif" font-size="14.00">⇊</text>
<polyline fill="none" stroke="#7f7542" points="454.5,-525.5 655.5,-525.5 "/>
<text text-anchor="middle" x="555" y="-514.3" font-family="Times,serif" font-size="14.00">empty(X₁)</text>
<polyline fill="none" stroke="#7f7542" points="454.5,-510.5 655.5,-510.5 "/>
<text text-anchor="middle" x="555" y="-499.3" font-family="Times,serif" font-size="14.00">sk₄(X₁,X₂) ⊆ X₂</text>
<polyline fill="none" stroke="#7f7542" points="454.5,-495.5 655.5,-495.5 "/>
<text text-anchor="middle" x="555" y="-484.3" font-family="Times,serif" font-size="14.00">void(X₁)</text>
</a>
</g>
</g>
<!-- c_0_90&#45;&gt;c_0_129 -->
<g id="edge4" class="edge">
<title>c_0_90&#45;&gt;c_0_129</title>
<path fill="none" stroke="black" d="M582.25,-480.34C582.25,-480.34 582.25,-408.87 582.25,-408.87"/>
<polygon fill="black" stroke="black" points="585.75,-408.87 582.25,-398.87 578.75,-408.87 585.75,-408.87"/>
</g>
<!-- c_0_70 -->
<g id="node5" class="node">
<title>c_0_70</title>
<g id="a_node5"><a xlink:href="c_0_70.html" xlink:title="{TopStruct(X₁)|X₂ ∈ bool(carrier(X₁))|finite&#45;degree(X₁)|subset&#45;closed(X₁)|with_exchange_property(X₁)|⇊|empty(X₁)|finite(sk₄(X₁,X₂))|void(X₁)}" target="_parent">
<polygon fill="#f8edd1" stroke="#7f7542" points="235.5,-480.5 235.5,-615.5 436.5,-615.5 436.5,-480.5 235.5,-480.5"/>
<text text-anchor="middle" x="336" y="-604.3" font-family="Times,serif" font-size="14.00">TopStruct(X₁)</text>
<polyline fill="none" stroke="#7f7542" points="235.5,-600.5 436.5,-600.5 "/>
<text text-anchor="middle" x="336" y="-589.3" font-family="Times,serif" font-size="14.00">X₂ ∈ bool(carrier(X₁))</text>
<polyline fill="none" stroke="#7f7542" points="235.5,-585.5 436.5,-585.5 "/>
<text text-anchor="middle" x="336" y="-574.3" font-family="Times,serif" font-size="14.00">finite&#45;degree(X₁)</text>
<polyline fill="none" stroke="#7f7542" points="235.5,-570.5 436.5,-570.5 "/>
<text text-anchor="middle" x="336" y="-559.3" font-family="Times,serif" font-size="14.00">subset&#45;closed(X₁)</text>
<polyline fill="none" stroke="#7f7542" points="235.5,-555.5 436.5,-555.5 "/>
<text text-anchor="middle" x="336" y="-544.3" font-family="Times,serif" font-size="14.00">with_exchange_property(X₁)</text>
<polyline fill="none" stroke="#7f7542" points="235.5,-540.5 436.5,-540.5 "/>
<text text-anchor="middle" x="336" y="-529.3" font-family="Times,serif" font-size="14.00">⇊</text>
<polyline fill="none" stroke="#7f7542" points="235.5,-525.5 436.5,-525.5 "/>
<text text-anchor="middle" x="336" y="-514.3" font-family="Times,serif" font-size="14.00">empty(X₁)</text>
<polyline fill="none" stroke="#7f7542" points="235.5,-510.5 436.5,-510.5 "/>
<text text-anchor="middle" x="336" y="-499.3" font-family="Times,serif" font-size="14.00">finite(sk₄(X₁,X₂))</text>
<polyline fill="none" stroke="#7f7542" points="235.5,-495.5 436.5,-495.5 "/>
<text text-anchor="middle" x="336" y="-484.3" font-family="Times,serif" font-size="14.00">void(X₁)</text>
</a>
</g>
</g>
<!-- c_0_70&#45;&gt;c_0_129 -->
<g id="edge5" class="edge">
<title>c_0_70&#45;&gt;c_0_129</title>
<path fill="none" stroke="black" d="M336,-480.29C336,-422.27 336,-348 336,-348 336,-348 498.69,-348 498.69,-348"/>
<polygon fill="black" stroke="black" points="498.69,-351.5 508.69,-348 498.69,-344.5 498.69,-351.5"/>
</g>
<!-- c_0_51 -->
<g id="node6" class="node">
<title>c_0_51</title>
<g id="a_node6"><a xlink:href="c_0_51.html" xlink:title="{TopStruct(X₁)|X₂ ∈ bool(carrier(X₁))|finite&#45;degree(X₁)|subset&#45;closed(X₁)|with_exchange_property(X₁)|⇊|empty(X₁)|sk₄(X₁,X₂) ∈ bool(carrier(X₁))|void(X₁)}" target="_parent">
<polygon fill="#f8edd1" stroke="#7f7542" points="16.5,-480.5 16.5,-615.5 217.5,-615.5 217.5,-480.5 16.5,-480.5"/>
<text text-anchor="middle" x="117" y="-604.3" font-family="Times,serif" font-size="14.00">TopStruct(X₁)</text>
<polyline fill="none" stroke="#7f7542" points="16.5,-600.5 217.5,-600.5 "/>
<text text-anchor="middle" x="117" y="-589.3" font-family="Times,serif" font-size="14.00">X₂ ∈ bool(carrier(X₁))</text>
<polyline fill="none" stroke="#7f7542" points="16.5,-585.5 217.5,-585.5 "/>
<text text-anchor="middle" x="117" y="-574.3" font-family="Times,serif" font-size="14.00">finite&#45;degree(X₁)</text>
<polyline fill="none" stroke="#7f7542" points="16.5,-570.5 217.5,-570.5 "/>
<text text-anchor="middle" x="117" y="-559.3" font-family="Times,serif" font-size="14.00">subset&#45;closed(X₁)</text>
<polyline fill="none" stroke="#7f7542" points="16.5,-555.5 217.5,-555.5 "/>
<text text-anchor="middle" x="117" y="-544.3" font-family="Times,serif" font-size="14.00">with_exchange_property(X₁)</text>
<polyline fill="none" stroke="#7f7542" points="16.5,-540.5 217.5,-540.5 "/>
<text text-anchor="middle" x="117" y="-529.3" font-family="Times,serif" font-size="14.00">⇊</text>
<polyline fill="none" stroke="#7f7542" points="16.5,-525.5 217.5,-525.5 "/>
<text text-anchor="middle" x="117" y="-514.3" font-family="Times,serif" font-size="14.00">empty(X₁)</text>
<polyline fill="none" stroke="#7f7542" points="16.5,-510.5 217.5,-510.5 "/>
<text text-anchor="middle" x="117" y="-499.3" font-family="Times,serif" font-size="14.00">sk₄(X₁,X₂) ∈ bool(carrier(X₁))</text>
<polyline fill="none" stroke="#7f7542" points="16.5,-495.5 217.5,-495.5 "/>
<text text-anchor="middle" x="117" y="-484.3" font-family="Times,serif" font-size="14.00">void(X₁)</text>
</a>
</g>
</g>
<!-- c_0_51&#45;&gt;c_0_129 -->
<g id="edge6" class="edge">
<title>c_0_51&#45;&gt;c_0_129</title>
<path fill="none" stroke="black" d="M117,-480.35C117,-406.31 117,-298 117,-298 117,-298 498.7,-298 498.7,-298"/>
<polygon fill="black" stroke="black" points="498.7,-301.5 508.7,-298 498.7,-294.5 498.7,-301.5"/>
</g>
<!-- c_0_136 -->
<g id="node8" class="node">
<title>c_0_136</title>
<g id="a_node8"><a xlink:href="c_0_136.html" xlink:title="{TopStruct(X₁)|X₂ ∈ bool(carrier(X₁))|finite&#45;degree(X₁)|finite&#45;membered(X₁)|open(sk₄(X₁,X₂),X₁)|sk₄(X₁,X₂) ∈ bool(carrier(X₁))|sk₄(X₁,X₂) ⊆ X₂|subset&#45;closed(X₁)|with_exchange_property(X₁)|⇊|empty(X₁)|is_maximal_independent_in(X₁,sk₄(X₁,X₂),X₂)|void(X₁)}" target="_parent">
<polygon fill="#f8edd1" stroke="#7f7542" points="509,-16.5 509,-211.5 821,-211.5 821,-16.5 509,-16.5"/>
<text text-anchor="middle" x="665" y="-200.3" font-family="Times,serif" font-size="14.00">TopStruct(X₁)</text>
<polyline fill="none" stroke="#7f7542" points="509,-196.5 821,-196.5 "/>
<text text-anchor="middle" x="665" y="-185.3" font-family="Times,serif" font-size="14.00">X₂ ∈ bool(carrier(X₁))</text>
<polyline fill="none" stroke="#7f7542" points="509,-181.5 821,-181.5 "/>
<text text-anchor="middle" x="665" y="-170.3" font-family="Times,serif" font-size="14.00">finite&#45;degree(X₁)</text>
<polyline fill="none" stroke="#7f7542" points="509,-166.5 821,-166.5 "/>
<text text-anchor="middle" x="665" y="-155.3" font-family="Times,serif" font-size="14.00">finite&#45;membered(X₁)</text>
<polyline fill="none" stroke="#7f7542" points="509,-151.5 821,-151.5 "/>
<text text-anchor="middle" x="665" y="-140.3" font-family="Times,serif" font-size="14.00">open(sk₄(X₁,X₂),X₁)</text>
<polyline fill="none" stroke="#7f7542" points="509,-136.5 821,-136.5 "/>
<text text-anchor="middle" x="665" y="-125.3" font-family="Times,serif" font-size="14.00">sk₄(X₁,X₂) ∈ bool(carrier(X₁))</text>
<polyline fill="none" stroke="#7f7542" points="509,-121.5 821,-121.5 "/>
<text text-anchor="middle" x="665" y="-110.3" font-family="Times,serif" font-size="14.00">sk₄(X₁,X₂) ⊆ X₂</text>
<polyline fill="none" stroke="#7f7542" points="509,-106.5 821,-106.5 "/>
<text text-anchor="middle" x="665" y="-95.3" font-family="Times,serif" font-size="14.00">subset&#45;closed(X₁)</text>
<polyline fill="none" stroke="#7f7542" points="509,-91.5 821,-91.5 "/>
<text text-anchor="middle" x="665" y="-80.3" font-family="Times,serif" font-size="14.00">with_exchange_property(X₁)</text>
<polyline fill="none" stroke="#7f7542" points="509,-76.5 821,-76.5 "/>
<text text-anchor="middle" x="665" y="-65.3" font-family="Times,serif" font-size="14.00">⇊</text>
<polyline fill="none" stroke="#7f7542" points="509,-61.5 821,-61.5 "/>
<text text-anchor="middle" x="665" y="-50.3" font-family="Times,serif" font-size="14.00">empty(X₁)</text>
<polyline fill="none" stroke="#7f7542" points="509,-46.5 821,-46.5 "/>
<text text-anchor="middle" x="665" y="-35.3" font-family="Times,serif" font-size="14.00">is_maximal_independent_in(X₁,sk₄(X₁,X₂),X₂)</text>
<polyline fill="none" stroke="#7f7542" points="509,-31.5 821,-31.5 "/>
<text text-anchor="middle" x="665" y="-20.3" font-family="Times,serif" font-size="14.00">void(X₁)</text>
</a>
</g>
</g>
<!-- c_0_129&#45;&gt;c_0_136 -->
<g id="edge7" class="edge">
<title>c_0_129&#45;&gt;c_0_136</title>
<path fill="none" stroke="black" stroke-dasharray="5,2" d="M665,-248.46C665,-248.46 665,-221.54 665,-221.54"/>
<polygon fill="black" stroke="black" points="668.5,-221.54 665,-211.54 661.5,-221.54 668.5,-221.54"/>
</g>
</g>
</svg>
