<?xml version="1.0" encoding="UTF-8" standalone="no"?>
<!DOCTYPE svg PUBLIC "-//W3C//DTD SVG 1.1//EN"
 "http://www.w3.org/Graphics/SVG/1.1/DTD/svg11.dtd">
<!-- Generated by graphviz version 5.0.0 (0)
 -->
<!-- Title: proof Pages: 1 -->
<svg width="302pt" height="505pt"
 viewBox="0.00 0.00 302.00 505.00" xmlns="http://www.w3.org/2000/svg" xmlns:xlink="http://www.w3.org/1999/xlink">
<g id="graph0" class="graph" transform="scale(1 1) rotate(0) translate(4 501)">
<title>proof</title>
<g id="clust1" class="cluster">
<title>cluster_0</title>
<polygon fill="transparent" stroke="black" stroke-dasharray="1,5" points="8,-352 8,-489 286,-489 286,-352 8,-352"/>
</g>
<g id="clust2" class="cluster">
<title>cluster_1</title>
<polygon fill="transparent" stroke="black" stroke-width="2" points="8,-195 8,-332 286,-332 286,-195 8,-195"/>
</g>
<g id="clust3" class="cluster">
<title>cluster_2</title>
<polygon fill="transparent" stroke="black" stroke-dasharray="1,5" points="8,-8 8,-175 286,-175 286,-8 8,-8"/>
</g>
<!-- c_0_88 -->
<g id="node1" class="node">
<title>c_0_88</title>
<g id="a_node1"><a xlink:href="c_0_88.html" xlink:title="{TopStruct(X₂)|X₁ = sk₈(X₂,X₁,X₃)|X₁ ∈ bool(carrier(X₂))|X₁ ⊆ X₃|X₃ ∈ bool(carrier(X₂))|open(X₁,X₂)|⇊|is_maximal_independent_in(X₂,X₁,X₃)}" target="_vizar">
<polygon fill="#f8edd1" stroke="#7f7542" points="16.5,-360.5 16.5,-480.5 277.5,-480.5 277.5,-360.5 16.5,-360.5"/>
<text text-anchor="middle" x="147" y="-469.3" font-family="Times,serif" font-size="14.00">TopStruct(X₂)</text>
<polyline fill="none" stroke="#7f7542" points="16.5,-465.5 277.5,-465.5 "/>
<text text-anchor="middle" x="147" y="-454.3" font-family="Times,serif" font-size="14.00">X₁ = sk₈(X₂,X₁,X₃)</text>
<polyline fill="none" stroke="#7f7542" points="16.5,-450.5 277.5,-450.5 "/>
<text text-anchor="middle" x="147" y="-439.3" font-family="Times,serif" font-size="14.00">X₁ ∈ bool(carrier(X₂))</text>
<polyline fill="none" stroke="#7f7542" points="16.5,-435.5 277.5,-435.5 "/>
<text text-anchor="middle" x="147" y="-424.3" font-family="Times,serif" font-size="14.00">X₁ ⊆ X₃</text>
<polyline fill="none" stroke="#7f7542" points="16.5,-420.5 277.5,-420.5 "/>
<text text-anchor="middle" x="147" y="-409.3" font-family="Times,serif" font-size="14.00">X₃ ∈ bool(carrier(X₂))</text>
<polyline fill="none" stroke="#7f7542" points="16.5,-405.5 277.5,-405.5 "/>
<text text-anchor="middle" x="147" y="-394.3" font-family="Times,serif" font-size="14.00">open(X₁,X₂)</text>
<polyline fill="none" stroke="#7f7542" points="16.5,-390.5 277.5,-390.5 "/>
<text text-anchor="middle" x="147" y="-379.3" font-family="Times,serif" font-size="14.00">⇊</text>
<polyline fill="none" stroke="#7f7542" points="16.5,-375.5 277.5,-375.5 "/>
<text text-anchor="middle" x="147" y="-364.3" font-family="Times,serif" font-size="14.00">is_maximal_independent_in(X₂,X₁,X₃)</text>
</a>
</g>
</g>
<!-- c_0_96 -->
<g id="node2" class="node">
<title>c_0_96</title>
<g id="a_node2"><a xlink:href="c_0_96.html" xlink:title="{TopStruct(X₂)|X₁ ∈ bool(carrier(X₂))|X₁ ⊆ X₃|X₃ ∈ bool(carrier(X₂))|open(X₁,X₂)|sk₈(X₂,X₁,X₃) = X₁|⇊|is_maximal_independent_in(X₂,X₁,X₃)}" target="_vizar">
<polygon fill="#f8edd1" stroke="#7f7542" points="16.5,-203.5 16.5,-323.5 277.5,-323.5 277.5,-203.5 16.5,-203.5"/>
<text text-anchor="middle" x="147" y="-312.3" font-family="Times,serif" font-size="14.00">TopStruct(X₂)</text>
<polyline fill="none" stroke="#7f7542" points="16.5,-308.5 277.5,-308.5 "/>
<text text-anchor="middle" x="147" y="-297.3" font-family="Times,serif" font-size="14.00">X₁ ∈ bool(carrier(X₂))</text>
<polyline fill="none" stroke="#7f7542" points="16.5,-293.5 277.5,-293.5 "/>
<text text-anchor="middle" x="147" y="-282.3" font-family="Times,serif" font-size="14.00">X₁ ⊆ X₃</text>
<polyline fill="none" stroke="#7f7542" points="16.5,-278.5 277.5,-278.5 "/>
<text text-anchor="middle" x="147" y="-267.3" font-family="Times,serif" font-size="14.00">X₃ ∈ bool(carrier(X₂))</text>
<polyline fill="none" stroke="#7f7542" points="16.5,-263.5 277.5,-263.5 "/>
<text text-anchor="middle" x="147" y="-252.3" font-family="Times,serif" font-size="14.00">open(X₁,X₂)</text>
<polyline fill="none" stroke="#7f7542" points="16.5,-248.5 277.5,-248.5 "/>
<text text-anchor="middle" x="147" y="-237.3" font-family="Times,serif" font-size="14.00">sk₈(X₂,X₁,X₃) = X₁</text>
<polyline fill="none" stroke="#7f7542" points="16.5,-233.5 277.5,-233.5 "/>
<text text-anchor="middle" x="147" y="-222.3" font-family="Times,serif" font-size="14.00">⇊</text>
<polyline fill="none" stroke="#7f7542" points="16.5,-218.5 277.5,-218.5 "/>
<text text-anchor="middle" x="147" y="-207.3" font-family="Times,serif" font-size="14.00">is_maximal_independent_in(X₂,X₁,X₃)</text>
</a>
</g>
</g>
<!-- c_0_88&#45;&gt;c_0_96 -->
<g id="edge1" class="edge">
<title>c_0_88&#45;&gt;c_0_96</title>
<path fill="none" stroke="black" d="M147,-360.25C147,-360.25 147,-333.59 147,-333.59"/>
<polygon fill="black" stroke="black" points="150.5,-333.59 147,-323.59 143.5,-333.59 150.5,-333.59"/>
</g>
<!-- c_0_111 -->
<g id="node3" class="node">
<title>c_0_111</title>
<g id="a_node3"><a xlink:href="c_0_111.html" xlink:title="{TopStruct(X₁)|X₂ ∈ bool(carrier(X₁))|X₂ ⊆ X₃|X₃ ∈ bool(carrier(X₁))|card(sk₈(X₁,X₂,X₃)) = card(X₂)|finite(X₂)|finite(sk₈(X₁,X₂,X₃))|open(X₂,X₁)|⇊|is_maximal_independent_in(X₁,X₂,X₃)}" target="_vizar">
<polygon fill="#f8edd1" stroke="#7f7542" points="16.5,-16.5 16.5,-166.5 277.5,-166.5 277.5,-16.5 16.5,-16.5"/>
<text text-anchor="middle" x="147" y="-155.3" font-family="Times,serif" font-size="14.00">TopStruct(X₁)</text>
<polyline fill="none" stroke="#7f7542" points="16.5,-151.5 277.5,-151.5 "/>
<text text-anchor="middle" x="147" y="-140.3" font-family="Times,serif" font-size="14.00">X₂ ∈ bool(carrier(X₁))</text>
<polyline fill="none" stroke="#7f7542" points="16.5,-136.5 277.5,-136.5 "/>
<text text-anchor="middle" x="147" y="-125.3" font-family="Times,serif" font-size="14.00">X₂ ⊆ X₃</text>
<polyline fill="none" stroke="#7f7542" points="16.5,-121.5 277.5,-121.5 "/>
<text text-anchor="middle" x="147" y="-110.3" font-family="Times,serif" font-size="14.00">X₃ ∈ bool(carrier(X₁))</text>
<polyline fill="none" stroke="#7f7542" points="16.5,-106.5 277.5,-106.5 "/>
<text text-anchor="middle" x="147" y="-95.3" font-family="Times,serif" font-size="14.00">card(sk₈(X₁,X₂,X₃)) = card(X₂)</text>
<polyline fill="none" stroke="#7f7542" points="16.5,-91.5 277.5,-91.5 "/>
<text text-anchor="middle" x="147" y="-80.3" font-family="Times,serif" font-size="14.00">finite(X₂)</text>
<polyline fill="none" stroke="#7f7542" points="16.5,-76.5 277.5,-76.5 "/>
<text text-anchor="middle" x="147" y="-65.3" font-family="Times,serif" font-size="14.00">finite(sk₈(X₁,X₂,X₃))</text>
<polyline fill="none" stroke="#7f7542" points="16.5,-61.5 277.5,-61.5 "/>
<text text-anchor="middle" x="147" y="-50.3" font-family="Times,serif" font-size="14.00">open(X₂,X₁)</text>
<polyline fill="none" stroke="#7f7542" points="16.5,-46.5 277.5,-46.5 "/>
<text text-anchor="middle" x="147" y="-35.3" font-family="Times,serif" font-size="14.00">⇊</text>
<polyline fill="none" stroke="#7f7542" points="16.5,-31.5 277.5,-31.5 "/>
<text text-anchor="middle" x="147" y="-20.3" font-family="Times,serif" font-size="14.00">is_maximal_independent_in(X₁,X₂,X₃)</text>
</a>
</g>
</g>
<!-- c_0_96&#45;&gt;c_0_111 -->
<g id="edge2" class="edge">
<title>c_0_96&#45;&gt;c_0_111</title>
<path fill="none" stroke="black" stroke-dasharray="5,2" d="M147,-203.34C147,-203.34 147,-176.75 147,-176.75"/>
<polygon fill="black" stroke="black" points="150.5,-176.75 147,-166.75 143.5,-176.75 150.5,-176.75"/>
</g>
</g>
</svg>
