<?xml version="1.0" encoding="UTF-8" standalone="no"?>
<!DOCTYPE svg PUBLIC "-//W3C//DTD SVG 1.1//EN"
 "http://www.w3.org/Graphics/SVG/1.1/DTD/svg11.dtd">
<!-- Generated by graphviz version 5.0.0 (0)
 -->
<!-- Title: proof Pages: 1 -->
<svg width="791pt" height="565pt"
 viewBox="0.00 0.00 791.00 565.00" xmlns="http://www.w3.org/2000/svg" xmlns:xlink="http://www.w3.org/1999/xlink">
<g id="graph0" class="graph" transform="scale(1 1) rotate(0) translate(4 561)">
<title>proof</title>
<g id="clust1" class="cluster">
<title>cluster_0</title>
<polygon fill="transparent" stroke="black" stroke-dasharray="1,5" points="36,-367 36,-549 636,-549 636,-367 36,-367"/>
</g>
<g id="clust2" class="cluster">
<title>cluster_1</title>
<polygon fill="transparent" stroke="black" stroke-width="2" points="227,-195 227,-347 445,-347 445,-195 227,-195"/>
</g>
<g id="clust3" class="cluster">
<title>cluster_2</title>
<polygon fill="transparent" stroke="black" stroke-dasharray="1,5" points="8,-8 8,-175 775,-175 775,-8 8,-8"/>
</g>
<!-- c_0_51 -->
<g id="node1" class="node">
<title>c_0_51</title>
<g id="a_node1"><a xlink:href="c_0_51.html" xlink:title="{TopStruct(X₁)|X₂ ∈ bool(carrier(X₁))|finite&#45;degree(X₁)|subset&#45;closed(X₁)|with_exchange_property(X₁)|⇊|empty(X₁)|sk₄(X₁,X₂) ∈ bool(carrier(X₁))|void(X₁)}" target="_vizar">
<polygon fill="#f8edd1" stroke="#7f7542" points="426.5,-390.5 426.5,-525.5 627.5,-525.5 627.5,-390.5 426.5,-390.5"/>
<text text-anchor="middle" x="527" y="-514.3" font-family="Times,serif" font-size="14.00">TopStruct(X₁)</text>
<polyline fill="none" stroke="#7f7542" points="426.5,-510.5 627.5,-510.5 "/>
<text text-anchor="middle" x="527" y="-499.3" font-family="Times,serif" font-size="14.00">X₂ ∈ bool(carrier(X₁))</text>
<polyline fill="none" stroke="#7f7542" points="426.5,-495.5 627.5,-495.5 "/>
<text text-anchor="middle" x="527" y="-484.3" font-family="Times,serif" font-size="14.00">finite&#45;degree(X₁)</text>
<polyline fill="none" stroke="#7f7542" points="426.5,-480.5 627.5,-480.5 "/>
<text text-anchor="middle" x="527" y="-469.3" font-family="Times,serif" font-size="14.00">subset&#45;closed(X₁)</text>
<polyline fill="none" stroke="#7f7542" points="426.5,-465.5 627.5,-465.5 "/>
<text text-anchor="middle" x="527" y="-454.3" font-family="Times,serif" font-size="14.00">with_exchange_property(X₁)</text>
<polyline fill="none" stroke="#7f7542" points="426.5,-450.5 627.5,-450.5 "/>
<text text-anchor="middle" x="527" y="-439.3" font-family="Times,serif" font-size="14.00">⇊</text>
<polyline fill="none" stroke="#7f7542" points="426.5,-435.5 627.5,-435.5 "/>
<text text-anchor="middle" x="527" y="-424.3" font-family="Times,serif" font-size="14.00">empty(X₁)</text>
<polyline fill="none" stroke="#7f7542" points="426.5,-420.5 627.5,-420.5 "/>
<text text-anchor="middle" x="527" y="-409.3" font-family="Times,serif" font-size="14.00">sk₄(X₁,X₂) ∈ bool(carrier(X₁))</text>
<polyline fill="none" stroke="#7f7542" points="426.5,-405.5 627.5,-405.5 "/>
<text text-anchor="middle" x="527" y="-394.3" font-family="Times,serif" font-size="14.00">void(X₁)</text>
</a>
</g>
</g>
<!-- c_0_70 -->
<g id="node4" class="node">
<title>c_0_70</title>
<g id="a_node4"><a xlink:href="c_0_70.html" xlink:title="{TopStruct(X₁)|X₂ ∈ bool(carrier(X₁))|finite&#45;degree(X₁)|subset&#45;closed(X₁)|with_exchange_property(X₁)|⇊|empty(X₁)|finite(sk₄(X₁,X₂))|void(X₁)}" target="_vizar">
<polygon fill="#f8edd1" stroke="#7f7542" points="235.5,-203.5 235.5,-338.5 436.5,-338.5 436.5,-203.5 235.5,-203.5"/>
<text text-anchor="middle" x="336" y="-327.3" font-family="Times,serif" font-size="14.00">TopStruct(X₁)</text>
<polyline fill="none" stroke="#7f7542" points="235.5,-323.5 436.5,-323.5 "/>
<text text-anchor="middle" x="336" y="-312.3" font-family="Times,serif" font-size="14.00">X₂ ∈ bool(carrier(X₁))</text>
<polyline fill="none" stroke="#7f7542" points="235.5,-308.5 436.5,-308.5 "/>
<text text-anchor="middle" x="336" y="-297.3" font-family="Times,serif" font-size="14.00">finite&#45;degree(X₁)</text>
<polyline fill="none" stroke="#7f7542" points="235.5,-293.5 436.5,-293.5 "/>
<text text-anchor="middle" x="336" y="-282.3" font-family="Times,serif" font-size="14.00">subset&#45;closed(X₁)</text>
<polyline fill="none" stroke="#7f7542" points="235.5,-278.5 436.5,-278.5 "/>
<text text-anchor="middle" x="336" y="-267.3" font-family="Times,serif" font-size="14.00">with_exchange_property(X₁)</text>
<polyline fill="none" stroke="#7f7542" points="235.5,-263.5 436.5,-263.5 "/>
<text text-anchor="middle" x="336" y="-252.3" font-family="Times,serif" font-size="14.00">⇊</text>
<polyline fill="none" stroke="#7f7542" points="235.5,-248.5 436.5,-248.5 "/>
<text text-anchor="middle" x="336" y="-237.3" font-family="Times,serif" font-size="14.00">empty(X₁)</text>
<polyline fill="none" stroke="#7f7542" points="235.5,-233.5 436.5,-233.5 "/>
<text text-anchor="middle" x="336" y="-222.3" font-family="Times,serif" font-size="14.00">finite(sk₄(X₁,X₂))</text>
<polyline fill="none" stroke="#7f7542" points="235.5,-218.5 436.5,-218.5 "/>
<text text-anchor="middle" x="336" y="-207.3" font-family="Times,serif" font-size="14.00">void(X₁)</text>
</a>
</g>
</g>
<!-- c_0_51&#45;&gt;c_0_70 -->
<g id="edge1" class="edge">
<title>c_0_51&#45;&gt;c_0_70</title>
<path fill="none" stroke="black" d="M431.5,-390.49C431.5,-390.49 431.5,-348.73 431.5,-348.73"/>
<polygon fill="black" stroke="black" points="435,-348.73 431.5,-338.73 428,-348.73 435,-348.73"/>
</g>
<!-- c_0_52 -->
<g id="node2" class="node">
<title>c_0_52</title>
<g id="a_node2"><a xlink:href="c_0_52.html" xlink:title="{TopStruct(X₁)|finite&#45;degree(X₁)|⇊|finite&#45;membered(X₁)}" target="_vizar">
<polygon fill="#f8edd1" stroke="#7f7542" points="264,-428 264,-488 408,-488 408,-428 264,-428"/>
<text text-anchor="middle" x="336" y="-476.8" font-family="Times,serif" font-size="14.00">TopStruct(X₁)</text>
<polyline fill="none" stroke="#7f7542" points="264,-473 408,-473 "/>
<text text-anchor="middle" x="336" y="-461.8" font-family="Times,serif" font-size="14.00">finite&#45;degree(X₁)</text>
<polyline fill="none" stroke="#7f7542" points="264,-458 408,-458 "/>
<text text-anchor="middle" x="336" y="-446.8" font-family="Times,serif" font-size="14.00">⇊</text>
<polyline fill="none" stroke="#7f7542" points="264,-443 408,-443 "/>
<text text-anchor="middle" x="336" y="-431.8" font-family="Times,serif" font-size="14.00">finite&#45;membered(X₁)</text>
</a>
</g>
</g>
<!-- c_0_52&#45;&gt;c_0_70 -->
<g id="edge2" class="edge">
<title>c_0_52&#45;&gt;c_0_70</title>
<path fill="none" stroke="black" d="M336,-427.96C336,-427.96 336,-348.6 336,-348.6"/>
<polygon fill="black" stroke="black" points="339.5,-348.6 336,-338.6 332.5,-348.6 339.5,-348.6"/>
</g>
<!-- c_0_61 -->
<g id="node3" class="node">
<title>c_0_61</title>
<g id="a_node3"><a xlink:href="c_0_61.html" xlink:title="{TopStruct(X₁)|X₂ ∈ bool(carrier(X₁))|finite&#45;degree(X₁)|finite&#45;membered(X₁)|sk₄(X₁,X₂) ∈ bool(carrier(X₁))|subset&#45;closed(X₁)|with_exchange_property(X₁)|⇊|empty(X₁)|finite(sk₄(X₁,X₂))|void(X₁)}" target="_vizar">
<polygon fill="#f8edd1" stroke="#7f7542" points="44.5,-375.5 44.5,-540.5 245.5,-540.5 245.5,-375.5 44.5,-375.5"/>
<text text-anchor="middle" x="145" y="-529.3" font-family="Times,serif" font-size="14.00">TopStruct(X₁)</text>
<polyline fill="none" stroke="#7f7542" points="44.5,-525.5 245.5,-525.5 "/>
<text text-anchor="middle" x="145" y="-514.3" font-family="Times,serif" font-size="14.00">X₂ ∈ bool(carrier(X₁))</text>
<polyline fill="none" stroke="#7f7542" points="44.5,-510.5 245.5,-510.5 "/>
<text text-anchor="middle" x="145" y="-499.3" font-family="Times,serif" font-size="14.00">finite&#45;degree(X₁)</text>
<polyline fill="none" stroke="#7f7542" points="44.5,-495.5 245.5,-495.5 "/>
<text text-anchor="middle" x="145" y="-484.3" font-family="Times,serif" font-size="14.00">finite&#45;membered(X₁)</text>
<polyline fill="none" stroke="#7f7542" points="44.5,-480.5 245.5,-480.5 "/>
<text text-anchor="middle" x="145" y="-469.3" font-family="Times,serif" font-size="14.00">sk₄(X₁,X₂) ∈ bool(carrier(X₁))</text>
<polyline fill="none" stroke="#7f7542" points="44.5,-465.5 245.5,-465.5 "/>
<text text-anchor="middle" x="145" y="-454.3" font-family="Times,serif" font-size="14.00">subset&#45;closed(X₁)</text>
<polyline fill="none" stroke="#7f7542" points="44.5,-450.5 245.5,-450.5 "/>
<text text-anchor="middle" x="145" y="-439.3" font-family="Times,serif" font-size="14.00">with_exchange_property(X₁)</text>
<polyline fill="none" stroke="#7f7542" points="44.5,-435.5 245.5,-435.5 "/>
<text text-anchor="middle" x="145" y="-424.3" font-family="Times,serif" font-size="14.00">⇊</text>
<polyline fill="none" stroke="#7f7542" points="44.5,-420.5 245.5,-420.5 "/>
<text text-anchor="middle" x="145" y="-409.3" font-family="Times,serif" font-size="14.00">empty(X₁)</text>
<polyline fill="none" stroke="#7f7542" points="44.5,-405.5 245.5,-405.5 "/>
<text text-anchor="middle" x="145" y="-394.3" font-family="Times,serif" font-size="14.00">finite(sk₄(X₁,X₂))</text>
<polyline fill="none" stroke="#7f7542" points="44.5,-390.5 245.5,-390.5 "/>
<text text-anchor="middle" x="145" y="-379.3" font-family="Times,serif" font-size="14.00">void(X₁)</text>
</a>
</g>
</g>
<!-- c_0_61&#45;&gt;c_0_70 -->
<g id="edge3" class="edge">
<title>c_0_61&#45;&gt;c_0_70</title>
<path fill="none" stroke="black" d="M240.5,-375.43C240.5,-375.43 240.5,-348.55 240.5,-348.55"/>
<polygon fill="black" stroke="black" points="244,-348.55 240.5,-338.55 237,-348.55 244,-348.55"/>
</g>
<!-- c_0_129 -->
<g id="node5" class="node">
<title>c_0_129</title>
<g id="a_node5"><a xlink:href="c_0_129.html" xlink:title="{TopStruct(X₁)|X₂ ∈ bool(carrier(X₁))|finite(sk₈(X₁,sk₄(X₁,X₂),X₂))|finite&#45;degree(X₁)|subset&#45;closed(X₁)|with_exchange_property(X₁)|⇊|empty(X₁)|is_maximal_independent_in(X₁,sk₄(X₁,X₂),X₂)|void(X₁)}" target="_vizar">
<polygon fill="#f8edd1" stroke="#7f7542" points="455,-16.5 455,-166.5 767,-166.5 767,-16.5 455,-16.5"/>
<text text-anchor="middle" x="611" y="-155.3" font-family="Times,serif" font-size="14.00">TopStruct(X₁)</text>
<polyline fill="none" stroke="#7f7542" points="455,-151.5 767,-151.5 "/>
<text text-anchor="middle" x="611" y="-140.3" font-family="Times,serif" font-size="14.00">X₂ ∈ bool(carrier(X₁))</text>
<polyline fill="none" stroke="#7f7542" points="455,-136.5 767,-136.5 "/>
<text text-anchor="middle" x="611" y="-125.3" font-family="Times,serif" font-size="14.00">finite(sk₈(X₁,sk₄(X₁,X₂),X₂))</text>
<polyline fill="none" stroke="#7f7542" points="455,-121.5 767,-121.5 "/>
<text text-anchor="middle" x="611" y="-110.3" font-family="Times,serif" font-size="14.00">finite&#45;degree(X₁)</text>
<polyline fill="none" stroke="#7f7542" points="455,-106.5 767,-106.5 "/>
<text text-anchor="middle" x="611" y="-95.3" font-family="Times,serif" font-size="14.00">subset&#45;closed(X₁)</text>
<polyline fill="none" stroke="#7f7542" points="455,-91.5 767,-91.5 "/>
<text text-anchor="middle" x="611" y="-80.3" font-family="Times,serif" font-size="14.00">with_exchange_property(X₁)</text>
<polyline fill="none" stroke="#7f7542" points="455,-76.5 767,-76.5 "/>
<text text-anchor="middle" x="611" y="-65.3" font-family="Times,serif" font-size="14.00">⇊</text>
<polyline fill="none" stroke="#7f7542" points="455,-61.5 767,-61.5 "/>
<text text-anchor="middle" x="611" y="-50.3" font-family="Times,serif" font-size="14.00">empty(X₁)</text>
<polyline fill="none" stroke="#7f7542" points="455,-46.5 767,-46.5 "/>
<text text-anchor="middle" x="611" y="-35.3" font-family="Times,serif" font-size="14.00">is_maximal_independent_in(X₁,sk₄(X₁,X₂),X₂)</text>
<polyline fill="none" stroke="#7f7542" points="455,-31.5 767,-31.5 "/>
<text text-anchor="middle" x="611" y="-20.3" font-family="Times,serif" font-size="14.00">void(X₁)</text>
</a>
</g>
</g>
<!-- c_0_70&#45;&gt;c_0_129 -->
<g id="edge4" class="edge">
<title>c_0_70&#45;&gt;c_0_129</title>
<path fill="none" stroke="black" stroke-dasharray="5,2" d="M436.52,-271C488.52,-271 541.25,-271 541.25,-271 541.25,-271 541.25,-176.58 541.25,-176.58"/>
<polygon fill="black" stroke="black" points="544.75,-176.58 541.25,-166.58 537.75,-176.58 544.75,-176.58"/>
</g>
<!-- c_0_79 -->
<g id="node6" class="node">
<title>c_0_79</title>
<g id="a_node6"><a xlink:href="c_0_79.html" xlink:title="{TopStruct(X₁)|X₂ ∈ bool(carrier(X₁))|finite&#45;degree(X₁)|sk₄(X₁,X₂) ⊆ X₃|subset&#45;closed(X₁)|with_exchange_property(X₁)|⇊|Rnk(X₁,X₂) ⊆ \|X₃\||empty(X₁)|void(X₁)}" target="_vizar">
<polygon fill="#f8edd1" stroke="#7f7542" points="235.5,-16.5 235.5,-166.5 436.5,-166.5 436.5,-16.5 235.5,-16.5"/>
<text text-anchor="middle" x="336" y="-155.3" font-family="Times,serif" font-size="14.00">TopStruct(X₁)</text>
<polyline fill="none" stroke="#7f7542" points="235.5,-151.5 436.5,-151.5 "/>
<text text-anchor="middle" x="336" y="-140.3" font-family="Times,serif" font-size="14.00">X₂ ∈ bool(carrier(X₁))</text>
<polyline fill="none" stroke="#7f7542" points="235.5,-136.5 436.5,-136.5 "/>
<text text-anchor="middle" x="336" y="-125.3" font-family="Times,serif" font-size="14.00">finite&#45;degree(X₁)</text>
<polyline fill="none" stroke="#7f7542" points="235.5,-121.5 436.5,-121.5 "/>
<text text-anchor="middle" x="336" y="-110.3" font-family="Times,serif" font-size="14.00">sk₄(X₁,X₂) ⊆ X₃</text>
<polyline fill="none" stroke="#7f7542" points="235.5,-106.5 436.5,-106.5 "/>
<text text-anchor="middle" x="336" y="-95.3" font-family="Times,serif" font-size="14.00">subset&#45;closed(X₁)</text>
<polyline fill="none" stroke="#7f7542" points="235.5,-91.5 436.5,-91.5 "/>
<text text-anchor="middle" x="336" y="-80.3" font-family="Times,serif" font-size="14.00">with_exchange_property(X₁)</text>
<polyline fill="none" stroke="#7f7542" points="235.5,-76.5 436.5,-76.5 "/>
<text text-anchor="middle" x="336" y="-65.3" font-family="Times,serif" font-size="14.00">⇊</text>
<polyline fill="none" stroke="#7f7542" points="235.5,-61.5 436.5,-61.5 "/>
<text text-anchor="middle" x="336" y="-50.3" font-family="Times,serif" font-size="14.00">Rnk(X₁,X₂) ⊆ |X₃|</text>
<polyline fill="none" stroke="#7f7542" points="235.5,-46.5 436.5,-46.5 "/>
<text text-anchor="middle" x="336" y="-35.3" font-family="Times,serif" font-size="14.00">empty(X₁)</text>
<polyline fill="none" stroke="#7f7542" points="235.5,-31.5 436.5,-31.5 "/>
<text text-anchor="middle" x="336" y="-20.3" font-family="Times,serif" font-size="14.00">void(X₁)</text>
</a>
</g>
</g>
<!-- c_0_70&#45;&gt;c_0_79 -->
<g id="edge5" class="edge">
<title>c_0_70&#45;&gt;c_0_79</title>
<path fill="none" stroke="black" stroke-dasharray="5,2" d="M336,-203.39C336,-203.39 336,-176.56 336,-176.56"/>
<polygon fill="black" stroke="black" points="339.5,-176.56 336,-166.56 332.5,-176.56 339.5,-176.56"/>
</g>
<!-- c_0_75 -->
<g id="node7" class="node">
<title>c_0_75</title>
<g id="a_node7"><a xlink:href="c_0_75.html" xlink:title="{TopStruct(X₁)|X₂ ∈ bool(carrier(X₁))|finite&#45;degree(X₁)|subset&#45;closed(X₁)|with_exchange_property(X₁)|⇊|empty(X₁)|ordinal(Rnk(X₁,X₂))|void(X₁)}" target="_vizar">
<polygon fill="#f8edd1" stroke="#7f7542" points="16.5,-24 16.5,-159 217.5,-159 217.5,-24 16.5,-24"/>
<text text-anchor="middle" x="117" y="-147.8" font-family="Times,serif" font-size="14.00">TopStruct(X₁)</text>
<polyline fill="none" stroke="#7f7542" points="16.5,-144 217.5,-144 "/>
<text text-anchor="middle" x="117" y="-132.8" font-family="Times,serif" font-size="14.00">X₂ ∈ bool(carrier(X₁))</text>
<polyline fill="none" stroke="#7f7542" points="16.5,-129 217.5,-129 "/>
<text text-anchor="middle" x="117" y="-117.8" font-family="Times,serif" font-size="14.00">finite&#45;degree(X₁)</text>
<polyline fill="none" stroke="#7f7542" points="16.5,-114 217.5,-114 "/>
<text text-anchor="middle" x="117" y="-102.8" font-family="Times,serif" font-size="14.00">subset&#45;closed(X₁)</text>
<polyline fill="none" stroke="#7f7542" points="16.5,-99 217.5,-99 "/>
<text text-anchor="middle" x="117" y="-87.8" font-family="Times,serif" font-size="14.00">with_exchange_property(X₁)</text>
<polyline fill="none" stroke="#7f7542" points="16.5,-84 217.5,-84 "/>
<text text-anchor="middle" x="117" y="-72.8" font-family="Times,serif" font-size="14.00">⇊</text>
<polyline fill="none" stroke="#7f7542" points="16.5,-69 217.5,-69 "/>
<text text-anchor="middle" x="117" y="-57.8" font-family="Times,serif" font-size="14.00">empty(X₁)</text>
<polyline fill="none" stroke="#7f7542" points="16.5,-54 217.5,-54 "/>
<text text-anchor="middle" x="117" y="-42.8" font-family="Times,serif" font-size="14.00">ordinal(Rnk(X₁,X₂))</text>
<polyline fill="none" stroke="#7f7542" points="16.5,-39 217.5,-39 "/>
<text text-anchor="middle" x="117" y="-27.8" font-family="Times,serif" font-size="14.00">void(X₁)</text>
</a>
</g>
</g>
<!-- c_0_70&#45;&gt;c_0_75 -->
<g id="edge6" class="edge">
<title>c_0_70&#45;&gt;c_0_75</title>
<path fill="none" stroke="black" stroke-dasharray="5,2" d="M235.3,-271C183.46,-271 131,-271 131,-271 131,-271 131,-169.11 131,-169.11"/>
<polygon fill="black" stroke="black" points="134.5,-169.11 131,-159.11 127.5,-169.11 134.5,-169.11"/>
</g>
</g>
</svg>
