<?xml version="1.0" encoding="UTF-8" standalone="no"?>
<!DOCTYPE svg PUBLIC "-//W3C//DTD SVG 1.1//EN"
 "http://www.w3.org/Graphics/SVG/1.1/DTD/svg11.dtd">
<!-- Generated by graphviz version 5.0.0 (0)
 -->
<!-- Title: proof Pages: 1 -->
<svg width="412pt" height="355pt"
 viewBox="0.00 0.00 412.00 355.00" xmlns="http://www.w3.org/2000/svg" xmlns:xlink="http://www.w3.org/1999/xlink">
<g id="graph0" class="graph" transform="scale(1 1) rotate(0) translate(4 351)">
<title>proof</title>
<g id="clust1" class="cluster">
<title>cluster_0</title>
<polygon fill="transparent" stroke="black" stroke-dasharray="1,5" points="8,-277 8,-339 231,-339 231,-277 8,-277"/>
</g>
<g id="clust2" class="cluster">
<title>cluster_1</title>
<polygon fill="transparent" stroke="black" stroke-width="2" points="73,-195 73,-257 207,-257 207,-195 73,-195"/>
</g>
<g id="clust3" class="cluster">
<title>cluster_2</title>
<polygon fill="transparent" stroke="black" stroke-dasharray="1,5" points="24,-8 24,-175 396,-175 396,-8 24,-8"/>
</g>
<!-- c_0_47 -->
<g id="node1" class="node">
<title>c_0_47</title>
<g id="a_node1"><a xlink:href="c_0_47.html" xlink:title="{ordinal(\|X₁\|)}" target="_parent">
<polygon fill="#f8edd1" stroke="#7f7542" points="137.5,-300.5 137.5,-315.5 222.5,-315.5 222.5,-300.5 137.5,-300.5"/>
<text text-anchor="middle" x="180" y="-304.3" font-family="Times,serif" font-size="14.00">ordinal(|X₁|)</text>
</a>
</g>
</g>
<!-- c_0_59 -->
<g id="node3" class="node">
<title>c_0_59</title>
<g id="a_node3"><a xlink:href="c_0_59.html" xlink:title="{finite(X₁)|⇊|ordinal(card(X₁))}" target="_parent">
<polygon fill="#f8edd1" stroke="#7f7542" points="81,-203.5 81,-248.5 199,-248.5 199,-203.5 81,-203.5"/>
<text text-anchor="middle" x="140" y="-237.3" font-family="Times,serif" font-size="14.00">finite(X₁)</text>
<polyline fill="none" stroke="#7f7542" points="81,-233.5 199,-233.5 "/>
<text text-anchor="middle" x="140" y="-222.3" font-family="Times,serif" font-size="14.00">⇊</text>
<polyline fill="none" stroke="#7f7542" points="81,-218.5 199,-218.5 "/>
<text text-anchor="middle" x="140" y="-207.3" font-family="Times,serif" font-size="14.00">ordinal(card(X₁))</text>
</a>
</g>
</g>
<!-- c_0_47&#45;&gt;c_0_59 -->
<g id="edge1" class="edge">
<title>c_0_47&#45;&gt;c_0_59</title>
<path fill="none" stroke="black" d="M168.25,-300.43C168.25,-300.43 168.25,-258.65 168.25,-258.65"/>
<polygon fill="black" stroke="black" points="171.75,-258.65 168.25,-248.65 164.75,-258.65 171.75,-258.65"/>
</g>
<!-- c_0_46 -->
<g id="node2" class="node">
<title>c_0_46</title>
<g id="a_node2"><a xlink:href="c_0_46.html" xlink:title="{finite(X₁)|⇊|\|X₁\| = card(X₁)}" target="_parent">
<polygon fill="#f8edd1" stroke="#7f7542" points="16.5,-285.5 16.5,-330.5 119.5,-330.5 119.5,-285.5 16.5,-285.5"/>
<text text-anchor="middle" x="68" y="-319.3" font-family="Times,serif" font-size="14.00">finite(X₁)</text>
<polyline fill="none" stroke="#7f7542" points="16.5,-315.5 119.5,-315.5 "/>
<text text-anchor="middle" x="68" y="-304.3" font-family="Times,serif" font-size="14.00">⇊</text>
<polyline fill="none" stroke="#7f7542" points="16.5,-300.5 119.5,-300.5 "/>
<text text-anchor="middle" x="68" y="-289.3" font-family="Times,serif" font-size="14.00">|X₁| = card(X₁)</text>
</a>
</g>
</g>
<!-- c_0_46&#45;&gt;c_0_59 -->
<g id="edge2" class="edge">
<title>c_0_46&#45;&gt;c_0_59</title>
<path fill="none" stroke="black" d="M100.25,-285.16C100.25,-285.16 100.25,-258.72 100.25,-258.72"/>
<polygon fill="black" stroke="black" points="103.75,-258.72 100.25,-248.72 96.75,-258.72 103.75,-258.72"/>
</g>
<!-- c_0_69 -->
<g id="node4" class="node">
<title>c_0_69</title>
<g id="a_node4"><a xlink:href="c_0_69.html" xlink:title="{TopStruct(X₁)|X₂ ∈ bool(carrier(X₁))|finite(sk₄(X₁,X₂))|finite&#45;degree(X₁)|subset&#45;closed(X₁)|with_exchange_property(X₁)|⇊|empty(X₁)|ordinal(Rnk(X₁,X₂))|void(X₁)}" target="_parent">
<polygon fill="#f8edd1" stroke="#7f7542" points="186.5,-16.5 186.5,-166.5 387.5,-166.5 387.5,-16.5 186.5,-16.5"/>
<text text-anchor="middle" x="287" y="-155.3" font-family="Times,serif" font-size="14.00">TopStruct(X₁)</text>
<polyline fill="none" stroke="#7f7542" points="186.5,-151.5 387.5,-151.5 "/>
<text text-anchor="middle" x="287" y="-140.3" font-family="Times,serif" font-size="14.00">X₂ ∈ bool(carrier(X₁))</text>
<polyline fill="none" stroke="#7f7542" points="186.5,-136.5 387.5,-136.5 "/>
<text text-anchor="middle" x="287" y="-125.3" font-family="Times,serif" font-size="14.00">finite(sk₄(X₁,X₂))</text>
<polyline fill="none" stroke="#7f7542" points="186.5,-121.5 387.5,-121.5 "/>
<text text-anchor="middle" x="287" y="-110.3" font-family="Times,serif" font-size="14.00">finite&#45;degree(X₁)</text>
<polyline fill="none" stroke="#7f7542" points="186.5,-106.5 387.5,-106.5 "/>
<text text-anchor="middle" x="287" y="-95.3" font-family="Times,serif" font-size="14.00">subset&#45;closed(X₁)</text>
<polyline fill="none" stroke="#7f7542" points="186.5,-91.5 387.5,-91.5 "/>
<text text-anchor="middle" x="287" y="-80.3" font-family="Times,serif" font-size="14.00">with_exchange_property(X₁)</text>
<polyline fill="none" stroke="#7f7542" points="186.5,-76.5 387.5,-76.5 "/>
<text text-anchor="middle" x="287" y="-65.3" font-family="Times,serif" font-size="14.00">⇊</text>
<polyline fill="none" stroke="#7f7542" points="186.5,-61.5 387.5,-61.5 "/>
<text text-anchor="middle" x="287" y="-50.3" font-family="Times,serif" font-size="14.00">empty(X₁)</text>
<polyline fill="none" stroke="#7f7542" points="186.5,-46.5 387.5,-46.5 "/>
<text text-anchor="middle" x="287" y="-35.3" font-family="Times,serif" font-size="14.00">ordinal(Rnk(X₁,X₂))</text>
<polyline fill="none" stroke="#7f7542" points="186.5,-31.5 387.5,-31.5 "/>
<text text-anchor="middle" x="287" y="-20.3" font-family="Times,serif" font-size="14.00">void(X₁)</text>
</a>
</g>
</g>
<!-- c_0_59&#45;&gt;c_0_69 -->
<g id="edge3" class="edge">
<title>c_0_59&#45;&gt;c_0_69</title>
<path fill="none" stroke="black" stroke-dasharray="5,2" d="M192.75,-203.49C192.75,-203.49 192.75,-176.66 192.75,-176.66"/>
<polygon fill="black" stroke="black" points="196.25,-176.66 192.75,-166.66 189.25,-176.66 196.25,-176.66"/>
</g>
<!-- c_0_113 -->
<g id="node5" class="node">
<title>c_0_113</title>
<g id="a_node5"><a xlink:href="c_0_113.html" xlink:title="{X₁ ⊆ X₂|finite(X₁)|finite(X₂)|⇊|card(X₁) ⊆ card(X₂)}" target="_parent">
<polygon fill="#f8edd1" stroke="#7f7542" points="32,-54 32,-129 168,-129 168,-54 32,-54"/>
<text text-anchor="middle" x="100" y="-117.8" font-family="Times,serif" font-size="14.00">X₁ ⊆ X₂</text>
<polyline fill="none" stroke="#7f7542" points="32,-114 168,-114 "/>
<text text-anchor="middle" x="100" y="-102.8" font-family="Times,serif" font-size="14.00">finite(X₁)</text>
<polyline fill="none" stroke="#7f7542" points="32,-99 168,-99 "/>
<text text-anchor="middle" x="100" y="-87.8" font-family="Times,serif" font-size="14.00">finite(X₂)</text>
<polyline fill="none" stroke="#7f7542" points="32,-84 168,-84 "/>
<text text-anchor="middle" x="100" y="-72.8" font-family="Times,serif" font-size="14.00">⇊</text>
<polyline fill="none" stroke="#7f7542" points="32,-69 168,-69 "/>
<text text-anchor="middle" x="100" y="-57.8" font-family="Times,serif" font-size="14.00">card(X₁) ⊆ card(X₂)</text>
</a>
</g>
</g>
<!-- c_0_59&#45;&gt;c_0_113 -->
<g id="edge4" class="edge">
<title>c_0_59&#45;&gt;c_0_113</title>
<path fill="none" stroke="black" stroke-dasharray="5,2" d="M124.5,-203.49C124.5,-203.49 124.5,-139.11 124.5,-139.11"/>
<polygon fill="black" stroke="black" points="128,-139.11 124.5,-129.11 121,-139.11 128,-139.11"/>
</g>
</g>
</svg>
