<?xml version="1.0" encoding="UTF-8" standalone="no"?>
<!DOCTYPE svg PUBLIC "-//W3C//DTD SVG 1.1//EN"
 "http://www.w3.org/Graphics/SVG/1.1/DTD/svg11.dtd">
<!-- Generated by graphviz version 5.0.0 (0)
 -->
<!-- Title: proof Pages: 1 -->
<svg width="960pt" height="250pt"
 viewBox="0.00 0.00 960.00 250.00" xmlns="http://www.w3.org/2000/svg" xmlns:xlink="http://www.w3.org/1999/xlink">
<g id="graph0" class="graph" transform="scale(1 1) rotate(0) translate(4 246)">
<title>proof</title>
<g id="clust1" class="cluster">
<title>cluster_0</title>
<polygon fill="transparent" stroke="black" stroke-dasharray="1,5" points="483,-202 483,-234 597,-234 597,-202 483,-202"/>
</g>
<g id="clust2" class="cluster">
<title>cluster_1</title>
<polygon fill="transparent" stroke="black" stroke-width="2" points="470,-150 470,-182 610,-182 610,-150 470,-150"/>
</g>
<g id="clust3" class="cluster">
<title>cluster_2</title>
<polygon fill="transparent" stroke="black" stroke-dasharray="1,5" points="8,-8 8,-130 944,-130 944,-8 8,-8"/>
</g>
<!-- t19_matroid0 -->
<g id="node1" class="node">
<title>t19_matroid0</title>
<g id="a_node1"><a xlink:href="t19_matroid0.html" xlink:title="t19_matroid0" target="_parent">
<polygon fill="#fa6900" stroke="#7f7542" points="491.5,-210.5 491.5,-225.5 588.5,-225.5 588.5,-210.5 491.5,-210.5"/>
<text text-anchor="middle" x="540" y="-214.3" font-family="Times,serif" font-size="14.00">t19_matroid0</text>
</a>
</g>
</g>
<!-- c_0_102 -->
<g id="node2" class="node">
<title>c_0_102</title>
<g id="a_node2"><a xlink:href="c_0_102.html" xlink:title="{finite&#45;degree(sk₁)}" target="_parent">
<polygon fill="#fa6900" stroke="#7f7542" points="478.5,-158.5 478.5,-173.5 601.5,-173.5 601.5,-158.5 478.5,-158.5"/>
<text text-anchor="middle" x="540" y="-162.3" font-family="Times,serif" font-size="14.00">finite&#45;degree(sk₁)</text>
</a>
</g>
</g>
<!-- t19_matroid0&#45;&gt;c_0_102 -->
<g id="edge1" class="edge">
<title>t19_matroid0&#45;&gt;c_0_102</title>
<path fill="none" stroke="black" d="M540,-210.33C540,-210.33 540,-183.7 540,-183.7"/>
<polygon fill="black" stroke="black" points="543.5,-183.7 540,-173.7 536.5,-183.7 543.5,-183.7"/>
</g>
<!-- c_0_151 -->
<g id="node3" class="node">
<title>c_0_151</title>
<g id="a_node3"><a xlink:href="c_0_151.html" xlink:title="{card(sk₄(sk₁,sk₂)) = card(sk₃)}" target="_parent">
<polygon fill="#fa6900" stroke="#7f7542" points="730.5,-61.5 730.5,-76.5 935.5,-76.5 935.5,-61.5 730.5,-61.5"/>
<text text-anchor="middle" x="833" y="-65.3" font-family="Times,serif" font-size="14.00">card(sk₄(sk₁,sk₂)) = card(sk₃)</text>
</a>
</g>
</g>
<!-- c_0_102&#45;&gt;c_0_151 -->
<g id="edge2" class="edge">
<title>c_0_102&#45;&gt;c_0_151</title>
<path fill="none" stroke="black" stroke-dasharray="5,2" d="M601.78,-168C687.74,-168 833,-168 833,-168 833,-168 833,-86.77 833,-86.77"/>
<polygon fill="black" stroke="black" points="836.5,-86.77 833,-76.77 829.5,-86.77 836.5,-86.77"/>
</g>
<!-- c_0_153 -->
<g id="node4" class="node">
<title>c_0_153</title>
<g id="a_node4"><a xlink:href="c_0_153.html" xlink:title="⊥" target="_parent">
<polygon fill="#fa6900" stroke="#7f7542" points="698,-61.5 698,-76.5 712,-76.5 712,-61.5 698,-61.5"/>
<text text-anchor="middle" x="705" y="-65.3" font-family="Times,serif" font-size="14.00">⊥</text>
</a>
</g>
</g>
<!-- c_0_102&#45;&gt;c_0_153 -->
<g id="edge3" class="edge">
<title>c_0_102&#45;&gt;c_0_153</title>
<path fill="none" stroke="black" stroke-dasharray="5,2" d="M601.91,-163C648.73,-163 705,-163 705,-163 705,-163 705,-86.69 705,-86.69"/>
<polygon fill="black" stroke="black" points="708.5,-86.69 705,-76.69 701.5,-86.69 708.5,-86.69"/>
</g>
<!-- c_0_149 -->
<g id="node5" class="node">
<title>c_0_149</title>
<g id="a_node5"><a xlink:href="c_0_149.html" xlink:title="{is_maximal_independent_in(sk₁,sk₃,sk₂)}" target="_parent">
<polygon fill="#fa6900" stroke="#7f7542" points="400.5,-61.5 400.5,-76.5 679.5,-76.5 679.5,-61.5 400.5,-61.5"/>
<text text-anchor="middle" x="540" y="-65.3" font-family="Times,serif" font-size="14.00">is_maximal_independent_in(sk₁,sk₃,sk₂)</text>
</a>
</g>
</g>
<!-- c_0_102&#45;&gt;c_0_149 -->
<g id="edge4" class="edge">
<title>c_0_102&#45;&gt;c_0_149</title>
<path fill="none" stroke="black" stroke-dasharray="5,2" d="M560.5,-158.39C560.5,-158.39 560.5,-86.58 560.5,-86.58"/>
<polygon fill="black" stroke="black" points="564,-86.58 560.5,-76.58 557,-86.58 564,-86.58"/>
</g>
<!-- c_0_125 -->
<g id="node6" class="node">
<title>c_0_125</title>
<g id="a_node6"><a xlink:href="c_0_125.html" xlink:title="{X₁ ∈ bool(carrier(sk₁))|X₁ ⊆ sk₂|open(X₁,sk₁)|⇊|card(sk₈(sk₁,X₁,sk₂)) ⊆ card(sk₃)|is_maximal_independent_in(sk₁,X₁,sk₂)|is_maximal_independent_in(sk₁,sk₃,sk₂)}" target="_parent">
<polygon fill="#fa6900" stroke="#7f7542" points="103.5,-16.5 103.5,-121.5 382.5,-121.5 382.5,-16.5 103.5,-16.5"/>
<text text-anchor="middle" x="243" y="-110.3" font-family="Times,serif" font-size="14.00">X₁ ∈ bool(carrier(sk₁))</text>
<polyline fill="none" stroke="#7f7542" points="103.5,-106.5 382.5,-106.5 "/>
<text text-anchor="middle" x="243" y="-95.3" font-family="Times,serif" font-size="14.00">X₁ ⊆ sk₂</text>
<polyline fill="none" stroke="#7f7542" points="103.5,-91.5 382.5,-91.5 "/>
<text text-anchor="middle" x="243" y="-80.3" font-family="Times,serif" font-size="14.00">open(X₁,sk₁)</text>
<polyline fill="none" stroke="#7f7542" points="103.5,-76.5 382.5,-76.5 "/>
<text text-anchor="middle" x="243" y="-65.3" font-family="Times,serif" font-size="14.00">⇊</text>
<polyline fill="none" stroke="#7f7542" points="103.5,-61.5 382.5,-61.5 "/>
<text text-anchor="middle" x="243" y="-50.3" font-family="Times,serif" font-size="14.00">card(sk₈(sk₁,X₁,sk₂)) ⊆ card(sk₃)</text>
<polyline fill="none" stroke="#7f7542" points="103.5,-46.5 382.5,-46.5 "/>
<text text-anchor="middle" x="243" y="-35.3" font-family="Times,serif" font-size="14.00">is_maximal_independent_in(sk₁,X₁,sk₂)</text>
<polyline fill="none" stroke="#7f7542" points="103.5,-31.5 382.5,-31.5 "/>
<text text-anchor="middle" x="243" y="-20.3" font-family="Times,serif" font-size="14.00">is_maximal_independent_in(sk₁,sk₃,sk₂)</text>
</a>
</g>
</g>
<!-- c_0_102&#45;&gt;c_0_125 -->
<g id="edge5" class="edge">
<title>c_0_102&#45;&gt;c_0_125</title>
<path fill="none" stroke="black" stroke-dasharray="5,2" d="M519.5,-158.31C519.5,-140.72 519.5,-99 519.5,-99 519.5,-99 392.87,-99 392.87,-99"/>
<polygon fill="black" stroke="black" points="392.87,-95.5 382.87,-99 392.87,-102.5 392.87,-95.5"/>
</g>
<!-- c_0_126 -->
<g id="node7" class="node">
<title>c_0_126</title>
<g id="a_node7"><a xlink:href="c_0_126.html" xlink:title="{finite(sk₃)}" target="_parent">
<polygon fill="#fa6900" stroke="#7f7542" points="16.5,-61.5 16.5,-76.5 85.5,-76.5 85.5,-61.5 16.5,-61.5"/>
<text text-anchor="middle" x="51" y="-65.3" font-family="Times,serif" font-size="14.00">finite(sk₃)</text>
</a>
</g>
</g>
<!-- c_0_102&#45;&gt;c_0_126 -->
<g id="edge6" class="edge">
<title>c_0_102&#45;&gt;c_0_126</title>
<path fill="none" stroke="black" stroke-dasharray="5,2" d="M478.07,-166C346.48,-166 51,-166 51,-166 51,-166 51,-86.61 51,-86.61"/>
<polygon fill="black" stroke="black" points="54.5,-86.61 51,-76.61 47.5,-86.61 54.5,-86.61"/>
</g>
</g>
</svg>
