<?xml version="1.0" encoding="UTF-8" standalone="no"?>
<!DOCTYPE svg PUBLIC "-//W3C//DTD SVG 1.1//EN"
 "http://www.w3.org/Graphics/SVG/1.1/DTD/svg11.dtd">
<!-- Generated by graphviz version 5.0.0 (0)
 -->
<!-- Title: proof Pages: 1 -->
<svg width="960pt" height="250pt"
 viewBox="0.00 0.00 960.00 250.00" xmlns="http://www.w3.org/2000/svg" xmlns:xlink="http://www.w3.org/1999/xlink">
<g id="graph0" class="graph" transform="scale(1 1) rotate(0) translate(4 246)">
<title>proof</title>
<g id="clust1" class="cluster">
<title>cluster_0</title>
<polygon fill="transparent" stroke="black" stroke-dasharray="1,5" points="351,-202 351,-234 465,-234 465,-202 351,-202"/>
</g>
<g id="clust2" class="cluster">
<title>cluster_1</title>
<polygon fill="transparent" stroke="black" stroke-width="2" points="338,-150 338,-182 478,-182 478,-150 338,-150"/>
</g>
<g id="clust3" class="cluster">
<title>cluster_2</title>
<polygon fill="transparent" stroke="black" stroke-dasharray="1,5" points="8,-8 8,-130 944,-130 944,-8 8,-8"/>
</g>
<!-- t19_matroid0 -->
<g id="node1" class="node">
<title>t19_matroid0</title>
<g id="a_node1"><a xlink:href="t19_matroid0.html" xlink:title="t19_matroid0" target="_vizar">
<polygon fill="#fa6900" stroke="#7f7542" points="359.5,-210.5 359.5,-225.5 456.5,-225.5 456.5,-210.5 359.5,-210.5"/>
<text text-anchor="middle" x="408" y="-214.3" font-family="Times,serif" font-size="14.00">t19_matroid0</text>
</a>
</g>
</g>
<!-- c_0_102 -->
<g id="node2" class="node">
<title>c_0_102</title>
<g id="a_node2"><a xlink:href="c_0_102.html" xlink:title="{finite&#45;degree(sk₁)}" target="_vizar">
<polygon fill="#fa6900" stroke="#7f7542" points="346.5,-158.5 346.5,-173.5 469.5,-173.5 469.5,-158.5 346.5,-158.5"/>
<text text-anchor="middle" x="408" y="-162.3" font-family="Times,serif" font-size="14.00">finite&#45;degree(sk₁)</text>
</a>
</g>
</g>
<!-- t19_matroid0&#45;&gt;c_0_102 -->
<g id="edge1" class="edge">
<title>t19_matroid0&#45;&gt;c_0_102</title>
<path fill="none" stroke="black" d="M408,-210.33C408,-210.33 408,-183.7 408,-183.7"/>
<polygon fill="black" stroke="black" points="411.5,-183.7 408,-173.7 404.5,-183.7 411.5,-183.7"/>
</g>
<!-- c_0_151 -->
<g id="node3" class="node">
<title>c_0_151</title>
<g id="a_node3"><a xlink:href="c_0_151.html" xlink:title="{card(sk₄(sk₁,sk₂)) = card(sk₃)}" target="_vizar">
<polygon fill="#fa6900" stroke="#7f7542" points="730.5,-61.5 730.5,-76.5 935.5,-76.5 935.5,-61.5 730.5,-61.5"/>
<text text-anchor="middle" x="833" y="-65.3" font-family="Times,serif" font-size="14.00">card(sk₄(sk₁,sk₂)) = card(sk₃)</text>
</a>
</g>
</g>
<!-- c_0_102&#45;&gt;c_0_151 -->
<g id="edge2" class="edge">
<title>c_0_102&#45;&gt;c_0_151</title>
<path fill="none" stroke="black" stroke-dasharray="5,2" d="M469.8,-166C587.67,-166 833,-166 833,-166 833,-166 833,-86.61 833,-86.61"/>
<polygon fill="black" stroke="black" points="836.5,-86.61 833,-76.61 829.5,-86.61 836.5,-86.61"/>
</g>
<!-- c_0_149 -->
<g id="node4" class="node">
<title>c_0_149</title>
<g id="a_node4"><a xlink:href="c_0_149.html" xlink:title="{is_maximal_independent_in(sk₁,sk₃,sk₂)}" target="_vizar">
<polygon fill="#fa6900" stroke="#7f7542" points="433.5,-61.5 433.5,-76.5 712.5,-76.5 712.5,-61.5 433.5,-61.5"/>
<text text-anchor="middle" x="573" y="-65.3" font-family="Times,serif" font-size="14.00">is_maximal_independent_in(sk₁,sk₃,sk₂)</text>
</a>
</g>
</g>
<!-- c_0_102&#45;&gt;c_0_149 -->
<g id="edge3" class="edge">
<title>c_0_102&#45;&gt;c_0_149</title>
<path fill="none" stroke="black" stroke-dasharray="5,2" d="M451.5,-158.39C451.5,-158.39 451.5,-86.58 451.5,-86.58"/>
<polygon fill="black" stroke="black" points="455,-86.58 451.5,-76.58 448,-86.58 455,-86.58"/>
</g>
<!-- c_0_153 -->
<g id="node5" class="node">
<title>c_0_153</title>
<g id="a_node5"><a xlink:href="c_0_153.html" xlink:title="⊥" target="_vizar">
<polygon fill="#fa6900" stroke="#7f7542" points="401,-61.5 401,-76.5 415,-76.5 415,-61.5 401,-61.5"/>
<text text-anchor="middle" x="408" y="-65.3" font-family="Times,serif" font-size="14.00">⊥</text>
</a>
</g>
</g>
<!-- c_0_102&#45;&gt;c_0_153 -->
<g id="edge4" class="edge">
<title>c_0_102&#45;&gt;c_0_153</title>
<path fill="none" stroke="black" stroke-dasharray="5,2" d="M408,-158.39C408,-158.39 408,-86.58 408,-86.58"/>
<polygon fill="black" stroke="black" points="411.5,-86.58 408,-76.58 404.5,-86.58 411.5,-86.58"/>
</g>
<!-- c_0_125 -->
<g id="node6" class="node">
<title>c_0_125</title>
<g id="a_node6"><a xlink:href="c_0_125.html" xlink:title="{X₁ ∈ bool(carrier(sk₁))|X₁ ⊆ sk₂|open(X₁,sk₁)|⇊|card(sk₈(sk₁,X₁,sk₂)) ⊆ card(sk₃)|is_maximal_independent_in(sk₁,X₁,sk₂)|is_maximal_independent_in(sk₁,sk₃,sk₂)}" target="_vizar">
<polygon fill="#fa6900" stroke="#7f7542" points="103.5,-16.5 103.5,-121.5 382.5,-121.5 382.5,-16.5 103.5,-16.5"/>
<text text-anchor="middle" x="243" y="-110.3" font-family="Times,serif" font-size="14.00">X₁ ∈ bool(carrier(sk₁))</text>
<polyline fill="none" stroke="#7f7542" points="103.5,-106.5 382.5,-106.5 "/>
<text text-anchor="middle" x="243" y="-95.3" font-family="Times,serif" font-size="14.00">X₁ ⊆ sk₂</text>
<polyline fill="none" stroke="#7f7542" points="103.5,-91.5 382.5,-91.5 "/>
<text text-anchor="middle" x="243" y="-80.3" font-family="Times,serif" font-size="14.00">open(X₁,sk₁)</text>
<polyline fill="none" stroke="#7f7542" points="103.5,-76.5 382.5,-76.5 "/>
<text text-anchor="middle" x="243" y="-65.3" font-family="Times,serif" font-size="14.00">⇊</text>
<polyline fill="none" stroke="#7f7542" points="103.5,-61.5 382.5,-61.5 "/>
<text text-anchor="middle" x="243" y="-50.3" font-family="Times,serif" font-size="14.00">card(sk₈(sk₁,X₁,sk₂)) ⊆ card(sk₃)</text>
<polyline fill="none" stroke="#7f7542" points="103.5,-46.5 382.5,-46.5 "/>
<text text-anchor="middle" x="243" y="-35.3" font-family="Times,serif" font-size="14.00">is_maximal_independent_in(sk₁,X₁,sk₂)</text>
<polyline fill="none" stroke="#7f7542" points="103.5,-31.5 382.5,-31.5 "/>
<text text-anchor="middle" x="243" y="-20.3" font-family="Times,serif" font-size="14.00">is_maximal_independent_in(sk₁,sk₃,sk₂)</text>
</a>
</g>
</g>
<!-- c_0_102&#45;&gt;c_0_125 -->
<g id="edge5" class="edge">
<title>c_0_102&#45;&gt;c_0_125</title>
<path fill="none" stroke="black" stroke-dasharray="5,2" d="M364.5,-158.39C364.5,-158.39 364.5,-131.93 364.5,-131.93"/>
<polygon fill="black" stroke="black" points="368,-131.93 364.5,-121.93 361,-131.93 368,-131.93"/>
</g>
<!-- c_0_126 -->
<g id="node7" class="node">
<title>c_0_126</title>
<g id="a_node7"><a xlink:href="c_0_126.html" xlink:title="{finite(sk₃)}" target="_vizar">
<polygon fill="#fa6900" stroke="#7f7542" points="16.5,-61.5 16.5,-76.5 85.5,-76.5 85.5,-61.5 16.5,-61.5"/>
<text text-anchor="middle" x="51" y="-65.3" font-family="Times,serif" font-size="14.00">finite(sk₃)</text>
</a>
</g>
</g>
<!-- c_0_102&#45;&gt;c_0_126 -->
<g id="edge6" class="edge">
<title>c_0_102&#45;&gt;c_0_126</title>
<path fill="none" stroke="black" stroke-dasharray="5,2" d="M346.22,-166C244.04,-166 51,-166 51,-166 51,-166 51,-86.61 51,-86.61"/>
<polygon fill="black" stroke="black" points="54.5,-86.61 51,-76.61 47.5,-86.61 54.5,-86.61"/>
</g>
</g>
</svg>
