<?xml version="1.0" encoding="UTF-8" standalone="no"?>
<!DOCTYPE svg PUBLIC "-//W3C//DTD SVG 1.1//EN"
 "http://www.w3.org/Graphics/SVG/1.1/DTD/svg11.dtd">
<!-- Generated by graphviz version 5.0.0 (0)
 -->
<!-- Title: proof Pages: 1 -->
<svg width="448pt" height="445pt"
 viewBox="0.00 0.00 448.00 445.00" xmlns="http://www.w3.org/2000/svg" xmlns:xlink="http://www.w3.org/1999/xlink">
<g id="graph0" class="graph" transform="scale(1 1) rotate(0) translate(4 441)">
<title>proof</title>
<g id="clust1" class="cluster">
<title>cluster_0</title>
<polygon fill="transparent" stroke="black" stroke-dasharray="1,5" points="8,-337 8,-429 332,-429 332,-337 8,-337"/>
</g>
<g id="clust2" class="cluster">
<title>cluster_1</title>
<polygon fill="transparent" stroke="black" stroke-width="2" points="120,-225 120,-317 254,-317 254,-225 120,-225"/>
</g>
<g id="clust3" class="cluster">
<title>cluster_2</title>
<polygon fill="transparent" stroke="black" stroke-dasharray="1,5" points="60,-8 60,-205 432,-205 432,-8 60,-8"/>
</g>
<!-- c_0_44 -->
<g id="node1" class="node">
<title>c_0_44</title>
<g id="a_node1"><a xlink:href="c_0_44.html" xlink:title="{X₁ c= X₂|ordinal(X₁)|ordinal(X₂)|⇊|X₁ ⊆ X₂}" target="_parent">
<polygon fill="#f8edd1" stroke="#7f7542" points="248,-345.5 248,-420.5 324,-420.5 324,-345.5 248,-345.5"/>
<text text-anchor="middle" x="286" y="-409.3" font-family="Times,serif" font-size="14.00">X₁ c= X₂</text>
<polyline fill="none" stroke="#7f7542" points="248,-405.5 324,-405.5 "/>
<text text-anchor="middle" x="286" y="-394.3" font-family="Times,serif" font-size="14.00">ordinal(X₁)</text>
<polyline fill="none" stroke="#7f7542" points="248,-390.5 324,-390.5 "/>
<text text-anchor="middle" x="286" y="-379.3" font-family="Times,serif" font-size="14.00">ordinal(X₂)</text>
<polyline fill="none" stroke="#7f7542" points="248,-375.5 324,-375.5 "/>
<text text-anchor="middle" x="286" y="-364.3" font-family="Times,serif" font-size="14.00">⇊</text>
<polyline fill="none" stroke="#7f7542" points="248,-360.5 324,-360.5 "/>
<text text-anchor="middle" x="286" y="-349.3" font-family="Times,serif" font-size="14.00">X₁ ⊆ X₂</text>
</a>
</g>
</g>
<!-- c_0_68 -->
<g id="node4" class="node">
<title>c_0_68</title>
<g id="a_node4"><a xlink:href="c_0_68.html" xlink:title="{X₁ ⊆ X₂|finite(X₁)|ordinal(card(X₁))|⇊|card(X₁) ⊆ \|X₂\|}" target="_parent">
<polygon fill="#f8edd1" stroke="#7f7542" points="128,-233.5 128,-308.5 246,-308.5 246,-233.5 128,-233.5"/>
<text text-anchor="middle" x="187" y="-297.3" font-family="Times,serif" font-size="14.00">X₁ ⊆ X₂</text>
<polyline fill="none" stroke="#7f7542" points="128,-293.5 246,-293.5 "/>
<text text-anchor="middle" x="187" y="-282.3" font-family="Times,serif" font-size="14.00">finite(X₁)</text>
<polyline fill="none" stroke="#7f7542" points="128,-278.5 246,-278.5 "/>
<text text-anchor="middle" x="187" y="-267.3" font-family="Times,serif" font-size="14.00">ordinal(card(X₁))</text>
<polyline fill="none" stroke="#7f7542" points="128,-263.5 246,-263.5 "/>
<text text-anchor="middle" x="187" y="-252.3" font-family="Times,serif" font-size="14.00">⇊</text>
<polyline fill="none" stroke="#7f7542" points="128,-248.5 246,-248.5 "/>
<text text-anchor="middle" x="187" y="-237.3" font-family="Times,serif" font-size="14.00">card(X₁) ⊆ |X₂|</text>
</a>
</g>
</g>
<!-- c_0_44&#45;&gt;c_0_68 -->
<g id="edge1" class="edge">
<title>c_0_44&#45;&gt;c_0_68</title>
<path fill="none" stroke="black" d="M247.98,-348C242,-348 237.75,-348 237.75,-348 237.75,-348 237.75,-318.6 237.75,-318.6"/>
<polygon fill="black" stroke="black" points="241.25,-318.6 237.75,-308.6 234.25,-318.6 241.25,-318.6"/>
</g>
<!-- c_0_47 -->
<g id="node2" class="node">
<title>c_0_47</title>
<g id="a_node2"><a xlink:href="c_0_47.html" xlink:title="{ordinal(\|X₁\|)}" target="_parent">
<polygon fill="#f8edd1" stroke="#7f7542" points="144.5,-375.5 144.5,-390.5 229.5,-390.5 229.5,-375.5 144.5,-375.5"/>
<text text-anchor="middle" x="187" y="-379.3" font-family="Times,serif" font-size="14.00">ordinal(|X₁|)</text>
</a>
</g>
</g>
<!-- c_0_47&#45;&gt;c_0_68 -->
<g id="edge2" class="edge">
<title>c_0_47&#45;&gt;c_0_68</title>
<path fill="none" stroke="black" d="M187,-375.3C187,-375.3 187,-318.62 187,-318.62"/>
<polygon fill="black" stroke="black" points="190.5,-318.62 187,-308.62 183.5,-318.62 190.5,-318.62"/>
</g>
<!-- c_0_58 -->
<g id="node3" class="node">
<title>c_0_58</title>
<g id="a_node3"><a xlink:href="c_0_58.html" xlink:title="{X₁ ⊆ X₂|finite(X₁)|⇊|card(X₁) c= \|X₂\|}" target="_parent">
<polygon fill="#f8edd1" stroke="#7f7542" points="16,-353 16,-413 126,-413 126,-353 16,-353"/>
<text text-anchor="middle" x="71" y="-401.8" font-family="Times,serif" font-size="14.00">X₁ ⊆ X₂</text>
<polyline fill="none" stroke="#7f7542" points="16,-398 126,-398 "/>
<text text-anchor="middle" x="71" y="-386.8" font-family="Times,serif" font-size="14.00">finite(X₁)</text>
<polyline fill="none" stroke="#7f7542" points="16,-383 126,-383 "/>
<text text-anchor="middle" x="71" y="-371.8" font-family="Times,serif" font-size="14.00">⇊</text>
<polyline fill="none" stroke="#7f7542" points="16,-368 126,-368 "/>
<text text-anchor="middle" x="71" y="-356.8" font-family="Times,serif" font-size="14.00">card(X₁) c= |X₂|</text>
</a>
</g>
</g>
<!-- c_0_58&#45;&gt;c_0_68 -->
<g id="edge3" class="edge">
<title>c_0_58&#45;&gt;c_0_68</title>
<path fill="none" stroke="black" d="M126.05,-363C132.17,-363 136.25,-363 136.25,-363 136.25,-363 136.25,-318.69 136.25,-318.69"/>
<polygon fill="black" stroke="black" points="139.75,-318.69 136.25,-308.69 132.75,-318.69 139.75,-318.69"/>
</g>
<!-- c_0_74 -->
<g id="node5" class="node">
<title>c_0_74</title>
<g id="a_node5"><a xlink:href="c_0_74.html" xlink:title="{TopStruct(X₁)|X₂ ∈ bool(carrier(X₁))|finite(sk₄(X₁,X₂))|finite&#45;degree(X₁)|ordinal(Rnk(X₁,X₂))|sk₄(X₁,X₂) ⊆ X₃|subset&#45;closed(X₁)|with_exchange_property(X₁)|⇊|Rnk(X₁,X₂) ⊆ \|X₃\||empty(X₁)|void(X₁)}" target="_parent">
<polygon fill="#f8edd1" stroke="#7f7542" points="222.5,-16.5 222.5,-196.5 423.5,-196.5 423.5,-16.5 222.5,-16.5"/>
<text text-anchor="middle" x="323" y="-185.3" font-family="Times,serif" font-size="14.00">TopStruct(X₁)</text>
<polyline fill="none" stroke="#7f7542" points="222.5,-181.5 423.5,-181.5 "/>
<text text-anchor="middle" x="323" y="-170.3" font-family="Times,serif" font-size="14.00">X₂ ∈ bool(carrier(X₁))</text>
<polyline fill="none" stroke="#7f7542" points="222.5,-166.5 423.5,-166.5 "/>
<text text-anchor="middle" x="323" y="-155.3" font-family="Times,serif" font-size="14.00">finite(sk₄(X₁,X₂))</text>
<polyline fill="none" stroke="#7f7542" points="222.5,-151.5 423.5,-151.5 "/>
<text text-anchor="middle" x="323" y="-140.3" font-family="Times,serif" font-size="14.00">finite&#45;degree(X₁)</text>
<polyline fill="none" stroke="#7f7542" points="222.5,-136.5 423.5,-136.5 "/>
<text text-anchor="middle" x="323" y="-125.3" font-family="Times,serif" font-size="14.00">ordinal(Rnk(X₁,X₂))</text>
<polyline fill="none" stroke="#7f7542" points="222.5,-121.5 423.5,-121.5 "/>
<text text-anchor="middle" x="323" y="-110.3" font-family="Times,serif" font-size="14.00">sk₄(X₁,X₂) ⊆ X₃</text>
<polyline fill="none" stroke="#7f7542" points="222.5,-106.5 423.5,-106.5 "/>
<text text-anchor="middle" x="323" y="-95.3" font-family="Times,serif" font-size="14.00">subset&#45;closed(X₁)</text>
<polyline fill="none" stroke="#7f7542" points="222.5,-91.5 423.5,-91.5 "/>
<text text-anchor="middle" x="323" y="-80.3" font-family="Times,serif" font-size="14.00">with_exchange_property(X₁)</text>
<polyline fill="none" stroke="#7f7542" points="222.5,-76.5 423.5,-76.5 "/>
<text text-anchor="middle" x="323" y="-65.3" font-family="Times,serif" font-size="14.00">⇊</text>
<polyline fill="none" stroke="#7f7542" points="222.5,-61.5 423.5,-61.5 "/>
<text text-anchor="middle" x="323" y="-50.3" font-family="Times,serif" font-size="14.00">Rnk(X₁,X₂) ⊆ |X₃|</text>
<polyline fill="none" stroke="#7f7542" points="222.5,-46.5 423.5,-46.5 "/>
<text text-anchor="middle" x="323" y="-35.3" font-family="Times,serif" font-size="14.00">empty(X₁)</text>
<polyline fill="none" stroke="#7f7542" points="222.5,-31.5 423.5,-31.5 "/>
<text text-anchor="middle" x="323" y="-20.3" font-family="Times,serif" font-size="14.00">void(X₁)</text>
</a>
</g>
</g>
<!-- c_0_68&#45;&gt;c_0_74 -->
<g id="edge4" class="edge">
<title>c_0_68&#45;&gt;c_0_74</title>
<path fill="none" stroke="black" stroke-dasharray="5,2" d="M234.25,-233.26C234.25,-233.26 234.25,-206.61 234.25,-206.61"/>
<polygon fill="black" stroke="black" points="237.75,-206.61 234.25,-196.61 230.75,-206.61 237.75,-206.61"/>
</g>
<!-- c_0_99 -->
<g id="node6" class="node">
<title>c_0_99</title>
<g id="a_node6"><a xlink:href="c_0_99.html" xlink:title="{X₁ ⊆ X₂|finite(X₁)|finite(X₂)|ordinal(card(X₁))|⇊|card(X₁) ⊆ card(X₂)}" target="_parent">
<polygon fill="#f8edd1" stroke="#7f7542" points="68,-61.5 68,-151.5 204,-151.5 204,-61.5 68,-61.5"/>
<text text-anchor="middle" x="136" y="-140.3" font-family="Times,serif" font-size="14.00">X₁ ⊆ X₂</text>
<polyline fill="none" stroke="#7f7542" points="68,-136.5 204,-136.5 "/>
<text text-anchor="middle" x="136" y="-125.3" font-family="Times,serif" font-size="14.00">finite(X₁)</text>
<polyline fill="none" stroke="#7f7542" points="68,-121.5 204,-121.5 "/>
<text text-anchor="middle" x="136" y="-110.3" font-family="Times,serif" font-size="14.00">finite(X₂)</text>
<polyline fill="none" stroke="#7f7542" points="68,-106.5 204,-106.5 "/>
<text text-anchor="middle" x="136" y="-95.3" font-family="Times,serif" font-size="14.00">ordinal(card(X₁))</text>
<polyline fill="none" stroke="#7f7542" points="68,-91.5 204,-91.5 "/>
<text text-anchor="middle" x="136" y="-80.3" font-family="Times,serif" font-size="14.00">⇊</text>
<polyline fill="none" stroke="#7f7542" points="68,-76.5 204,-76.5 "/>
<text text-anchor="middle" x="136" y="-65.3" font-family="Times,serif" font-size="14.00">card(X₁) ⊆ card(X₂)</text>
</a>
</g>
</g>
<!-- c_0_68&#45;&gt;c_0_99 -->
<g id="edge5" class="edge">
<title>c_0_68&#45;&gt;c_0_99</title>
<path fill="none" stroke="black" stroke-dasharray="5,2" d="M166,-233.26C166,-233.26 166,-161.67 166,-161.67"/>
<polygon fill="black" stroke="black" points="169.5,-161.67 166,-151.67 162.5,-161.67 169.5,-161.67"/>
</g>
</g>
</svg>
