<?xml version="1.0" encoding="UTF-8" standalone="no"?>
<!DOCTYPE svg PUBLIC "-//W3C//DTD SVG 1.1//EN"
 "http://www.w3.org/Graphics/SVG/1.1/DTD/svg11.dtd">
<!-- Generated by graphviz version 5.0.0 (0)
 -->
<!-- Title: proof Pages: 1 -->
<svg width="470pt" height="550pt"
 viewBox="0.00 0.00 470.00 550.00" xmlns="http://www.w3.org/2000/svg" xmlns:xlink="http://www.w3.org/1999/xlink">
<g id="graph0" class="graph" transform="scale(1 1) rotate(0) translate(4 546)">
<title>proof</title>
<g id="clust1" class="cluster">
<title>cluster_0</title>
<polygon fill="transparent" stroke="black" stroke-dasharray="1,5" points="8,-397 8,-534 454,-534 454,-397 8,-397"/>
</g>
<g id="clust2" class="cluster">
<title>cluster_1</title>
<polygon fill="transparent" stroke="black" stroke-width="2" points="92,-195 92,-377 370,-377 370,-195 92,-195"/>
</g>
<g id="clust3" class="cluster">
<title>cluster_2</title>
<polygon fill="transparent" stroke="black" stroke-dasharray="1,5" points="92,-8 92,-175 370,-175 370,-8 92,-8"/>
</g>
<!-- c_0_36 -->
<g id="node1" class="node">
<title>c_0_36</title>
<g id="a_node1"><a xlink:href="c_0_36.html" xlink:title="{TopStruct(X₂)|X₁ ∈ bool(carrier(X₂))|finite&#45;membered(X₂)|open(X₁,X₂)|⇊|finite(X₁)|void(X₂)}" target="_parent">
<polygon fill="#f8edd1" stroke="#7f7542" points="296,-413 296,-518 446,-518 446,-413 296,-413"/>
<text text-anchor="middle" x="371" y="-506.8" font-family="Times,serif" font-size="14.00">TopStruct(X₂)</text>
<polyline fill="none" stroke="#7f7542" points="296,-503 446,-503 "/>
<text text-anchor="middle" x="371" y="-491.8" font-family="Times,serif" font-size="14.00">X₁ ∈ bool(carrier(X₂))</text>
<polyline fill="none" stroke="#7f7542" points="296,-488 446,-488 "/>
<text text-anchor="middle" x="371" y="-476.8" font-family="Times,serif" font-size="14.00">finite&#45;membered(X₂)</text>
<polyline fill="none" stroke="#7f7542" points="296,-473 446,-473 "/>
<text text-anchor="middle" x="371" y="-461.8" font-family="Times,serif" font-size="14.00">open(X₁,X₂)</text>
<polyline fill="none" stroke="#7f7542" points="296,-458 446,-458 "/>
<text text-anchor="middle" x="371" y="-446.8" font-family="Times,serif" font-size="14.00">⇊</text>
<polyline fill="none" stroke="#7f7542" points="296,-443 446,-443 "/>
<text text-anchor="middle" x="371" y="-431.8" font-family="Times,serif" font-size="14.00">finite(X₁)</text>
<polyline fill="none" stroke="#7f7542" points="296,-428 446,-428 "/>
<text text-anchor="middle" x="371" y="-416.8" font-family="Times,serif" font-size="14.00">void(X₂)</text>
</a>
</g>
</g>
<!-- c_0_123 -->
<g id="node3" class="node">
<title>c_0_123</title>
<g id="a_node3"><a xlink:href="c_0_123.html" xlink:title="{TopStruct(X₁)|X₂ ∈ bool(carrier(X₁))|X₂ ⊆ X₃|X₃ ∈ bool(carrier(X₁))|finite&#45;membered(X₁)|open(X₂,X₁)|sk₈(X₁,X₂,X₃) ∈ bool(carrier(X₁))|⇊|finite(sk₈(X₁,X₂,X₃))|is_maximal_independent_in(X₁,X₂,X₃)|void(X₁)}" target="_parent">
<polygon fill="#f8edd1" stroke="#7f7542" points="100.5,-203.5 100.5,-368.5 361.5,-368.5 361.5,-203.5 100.5,-203.5"/>
<text text-anchor="middle" x="231" y="-357.3" font-family="Times,serif" font-size="14.00">TopStruct(X₁)</text>
<polyline fill="none" stroke="#7f7542" points="100.5,-353.5 361.5,-353.5 "/>
<text text-anchor="middle" x="231" y="-342.3" font-family="Times,serif" font-size="14.00">X₂ ∈ bool(carrier(X₁))</text>
<polyline fill="none" stroke="#7f7542" points="100.5,-338.5 361.5,-338.5 "/>
<text text-anchor="middle" x="231" y="-327.3" font-family="Times,serif" font-size="14.00">X₂ ⊆ X₃</text>
<polyline fill="none" stroke="#7f7542" points="100.5,-323.5 361.5,-323.5 "/>
<text text-anchor="middle" x="231" y="-312.3" font-family="Times,serif" font-size="14.00">X₃ ∈ bool(carrier(X₁))</text>
<polyline fill="none" stroke="#7f7542" points="100.5,-308.5 361.5,-308.5 "/>
<text text-anchor="middle" x="231" y="-297.3" font-family="Times,serif" font-size="14.00">finite&#45;membered(X₁)</text>
<polyline fill="none" stroke="#7f7542" points="100.5,-293.5 361.5,-293.5 "/>
<text text-anchor="middle" x="231" y="-282.3" font-family="Times,serif" font-size="14.00">open(X₂,X₁)</text>
<polyline fill="none" stroke="#7f7542" points="100.5,-278.5 361.5,-278.5 "/>
<text text-anchor="middle" x="231" y="-267.3" font-family="Times,serif" font-size="14.00">sk₈(X₁,X₂,X₃) ∈ bool(carrier(X₁))</text>
<polyline fill="none" stroke="#7f7542" points="100.5,-263.5 361.5,-263.5 "/>
<text text-anchor="middle" x="231" y="-252.3" font-family="Times,serif" font-size="14.00">⇊</text>
<polyline fill="none" stroke="#7f7542" points="100.5,-248.5 361.5,-248.5 "/>
<text text-anchor="middle" x="231" y="-237.3" font-family="Times,serif" font-size="14.00">finite(sk₈(X₁,X₂,X₃))</text>
<polyline fill="none" stroke="#7f7542" points="100.5,-233.5 361.5,-233.5 "/>
<text text-anchor="middle" x="231" y="-222.3" font-family="Times,serif" font-size="14.00">is_maximal_independent_in(X₁,X₂,X₃)</text>
<polyline fill="none" stroke="#7f7542" points="100.5,-218.5 361.5,-218.5 "/>
<text text-anchor="middle" x="231" y="-207.3" font-family="Times,serif" font-size="14.00">void(X₁)</text>
</a>
</g>
</g>
<!-- c_0_36&#45;&gt;c_0_123 -->
<g id="edge1" class="edge">
<title>c_0_36&#45;&gt;c_0_123</title>
<path fill="none" stroke="black" d="M328.75,-412.61C328.75,-412.61 328.75,-378.81 328.75,-378.81"/>
<polygon fill="black" stroke="black" points="332.25,-378.81 328.75,-368.81 325.25,-378.81 332.25,-378.81"/>
</g>
<!-- c_0_30 -->
<g id="node2" class="node">
<title>c_0_30</title>
<g id="a_node2"><a xlink:href="c_0_30.html" xlink:title="{TopStruct(X₁)|X₂ ∈ bool(carrier(X₁))|X₂ ⊆ X₃|X₃ ∈ bool(carrier(X₁))|open(X₂,X₁)|⇊|is_maximal_independent_in(X₁,X₂,X₃)|open(sk₈(X₁,X₂,X₃),X₁)}" target="_parent">
<polygon fill="#f8edd1" stroke="#7f7542" points="16.5,-405.5 16.5,-525.5 277.5,-525.5 277.5,-405.5 16.5,-405.5"/>
<text text-anchor="middle" x="147" y="-514.3" font-family="Times,serif" font-size="14.00">TopStruct(X₁)</text>
<polyline fill="none" stroke="#7f7542" points="16.5,-510.5 277.5,-510.5 "/>
<text text-anchor="middle" x="147" y="-499.3" font-family="Times,serif" font-size="14.00">X₂ ∈ bool(carrier(X₁))</text>
<polyline fill="none" stroke="#7f7542" points="16.5,-495.5 277.5,-495.5 "/>
<text text-anchor="middle" x="147" y="-484.3" font-family="Times,serif" font-size="14.00">X₂ ⊆ X₃</text>
<polyline fill="none" stroke="#7f7542" points="16.5,-480.5 277.5,-480.5 "/>
<text text-anchor="middle" x="147" y="-469.3" font-family="Times,serif" font-size="14.00">X₃ ∈ bool(carrier(X₁))</text>
<polyline fill="none" stroke="#7f7542" points="16.5,-465.5 277.5,-465.5 "/>
<text text-anchor="middle" x="147" y="-454.3" font-family="Times,serif" font-size="14.00">open(X₂,X₁)</text>
<polyline fill="none" stroke="#7f7542" points="16.5,-450.5 277.5,-450.5 "/>
<text text-anchor="middle" x="147" y="-439.3" font-family="Times,serif" font-size="14.00">⇊</text>
<polyline fill="none" stroke="#7f7542" points="16.5,-435.5 277.5,-435.5 "/>
<text text-anchor="middle" x="147" y="-424.3" font-family="Times,serif" font-size="14.00">is_maximal_independent_in(X₁,X₂,X₃)</text>
<polyline fill="none" stroke="#7f7542" points="16.5,-420.5 277.5,-420.5 "/>
<text text-anchor="middle" x="147" y="-409.3" font-family="Times,serif" font-size="14.00">open(sk₈(X₁,X₂,X₃),X₁)</text>
</a>
</g>
</g>
<!-- c_0_30&#45;&gt;c_0_123 -->
<g id="edge2" class="edge">
<title>c_0_30&#45;&gt;c_0_123</title>
<path fill="none" stroke="black" d="M189,-405.23C189,-405.23 189,-378.76 189,-378.76"/>
<polygon fill="black" stroke="black" points="192.5,-378.76 189,-368.76 185.5,-378.76 192.5,-378.76"/>
</g>
<!-- c_0_130 -->
<g id="node4" class="node">
<title>c_0_130</title>
<g id="a_node4"><a xlink:href="c_0_130.html" xlink:title="{TopStruct(X₁)|X₂ ∈ bool(carrier(X₁))|X₂ ⊆ X₃|X₃ ∈ bool(carrier(X₁))|finite&#45;membered(X₁)|open(X₂,X₁)|⇊|finite(sk₈(X₁,X₂,X₃))|is_maximal_independent_in(X₁,X₂,X₃)|void(X₁)}" target="_parent">
<polygon fill="#f8edd1" stroke="#7f7542" points="100.5,-16.5 100.5,-166.5 361.5,-166.5 361.5,-16.5 100.5,-16.5"/>
<text text-anchor="middle" x="231" y="-155.3" font-family="Times,serif" font-size="14.00">TopStruct(X₁)</text>
<polyline fill="none" stroke="#7f7542" points="100.5,-151.5 361.5,-151.5 "/>
<text text-anchor="middle" x="231" y="-140.3" font-family="Times,serif" font-size="14.00">X₂ ∈ bool(carrier(X₁))</text>
<polyline fill="none" stroke="#7f7542" points="100.5,-136.5 361.5,-136.5 "/>
<text text-anchor="middle" x="231" y="-125.3" font-family="Times,serif" font-size="14.00">X₂ ⊆ X₃</text>
<polyline fill="none" stroke="#7f7542" points="100.5,-121.5 361.5,-121.5 "/>
<text text-anchor="middle" x="231" y="-110.3" font-family="Times,serif" font-size="14.00">X₃ ∈ bool(carrier(X₁))</text>
<polyline fill="none" stroke="#7f7542" points="100.5,-106.5 361.5,-106.5 "/>
<text text-anchor="middle" x="231" y="-95.3" font-family="Times,serif" font-size="14.00">finite&#45;membered(X₁)</text>
<polyline fill="none" stroke="#7f7542" points="100.5,-91.5 361.5,-91.5 "/>
<text text-anchor="middle" x="231" y="-80.3" font-family="Times,serif" font-size="14.00">open(X₂,X₁)</text>
<polyline fill="none" stroke="#7f7542" points="100.5,-76.5 361.5,-76.5 "/>
<text text-anchor="middle" x="231" y="-65.3" font-family="Times,serif" font-size="14.00">⇊</text>
<polyline fill="none" stroke="#7f7542" points="100.5,-61.5 361.5,-61.5 "/>
<text text-anchor="middle" x="231" y="-50.3" font-family="Times,serif" font-size="14.00">finite(sk₈(X₁,X₂,X₃))</text>
<polyline fill="none" stroke="#7f7542" points="100.5,-46.5 361.5,-46.5 "/>
<text text-anchor="middle" x="231" y="-35.3" font-family="Times,serif" font-size="14.00">is_maximal_independent_in(X₁,X₂,X₃)</text>
<polyline fill="none" stroke="#7f7542" points="100.5,-31.5 361.5,-31.5 "/>
<text text-anchor="middle" x="231" y="-20.3" font-family="Times,serif" font-size="14.00">void(X₁)</text>
</a>
</g>
</g>
<!-- c_0_123&#45;&gt;c_0_130 -->
<g id="edge3" class="edge">
<title>c_0_123&#45;&gt;c_0_130</title>
<path fill="none" stroke="black" stroke-dasharray="5,2" d="M231,-203.23C231,-203.23 231,-176.79 231,-176.79"/>
<polygon fill="black" stroke="black" points="234.5,-176.79 231,-166.79 227.5,-176.8 234.5,-176.79"/>
</g>
</g>
</svg>
