<?xml version="1.0" encoding="UTF-8" standalone="no"?>
<!DOCTYPE svg PUBLIC "-//W3C//DTD SVG 1.1//EN"
 "http://www.w3.org/Graphics/SVG/1.1/DTD/svg11.dtd">
<!-- Generated by graphviz version 5.0.0 (0)
 -->
<!-- Title: proof Pages: 1 -->
<svg width="901pt" height="565pt"
 viewBox="0.00 0.00 901.00 565.00" xmlns="http://www.w3.org/2000/svg" xmlns:xlink="http://www.w3.org/1999/xlink">
<g id="graph0" class="graph" transform="scale(1 1) rotate(0) translate(4 561)">
<title>proof</title>
<g id="clust1" class="cluster">
<title>cluster_0</title>
<polygon fill="transparent" stroke="black" stroke-dasharray="1,5" points="8,-382 8,-549 885,-549 885,-382 8,-382"/>
</g>
<g id="clust2" class="cluster">
<title>cluster_1</title>
<polygon fill="transparent" stroke="black" stroke-width="2" points="348,-195 348,-362 644,-362 644,-195 348,-195"/>
</g>
<g id="clust3" class="cluster">
<title>cluster_2</title>
<polygon fill="transparent" stroke="black" stroke-dasharray="1,5" points="348,-8 348,-175 644,-175 644,-8 348,-8"/>
</g>
<!-- c_0_93 -->
<g id="node1" class="node">
<title>c_0_93</title>
<g id="a_node1"><a xlink:href="c_0_93.html" xlink:title="{TopStruct(sk₁)}" target="_vizar">
<polygon fill="#fa6900" stroke="#7f7542" points="773.5,-458 773.5,-473 876.5,-473 876.5,-458 773.5,-458"/>
<text text-anchor="middle" x="825" y="-461.8" font-family="Times,serif" font-size="14.00">TopStruct(sk₁)</text>
</a>
</g>
</g>
<!-- c_0_137 -->
<g id="node5" class="node">
<title>c_0_137</title>
<g id="a_node5"><a xlink:href="c_0_137.html" xlink:title="{X₁ ∈ bool(carrier(sk₁))|X₁ ⊆ sk₂|card(sk₃) = card(X₁)|finite(X₁)|finite(sk₈(sk₁,X₁,sk₂))|open(X₁,sk₁)|sk₃ ⊆ sk₈(sk₁,X₁,sk₂)|⇊|is_maximal_independent_in(sk₁,X₁,sk₂)|is_maximal_independent_in(sk₁,sk₃,sk₂)}" target="_vizar">
<polygon fill="#fa6900" stroke="#7f7542" points="356.5,-203.5 356.5,-353.5 635.5,-353.5 635.5,-203.5 356.5,-203.5"/>
<text text-anchor="middle" x="496" y="-342.3" font-family="Times,serif" font-size="14.00">X₁ ∈ bool(carrier(sk₁))</text>
<polyline fill="none" stroke="#7f7542" points="356.5,-338.5 635.5,-338.5 "/>
<text text-anchor="middle" x="496" y="-327.3" font-family="Times,serif" font-size="14.00">X₁ ⊆ sk₂</text>
<polyline fill="none" stroke="#7f7542" points="356.5,-323.5 635.5,-323.5 "/>
<text text-anchor="middle" x="496" y="-312.3" font-family="Times,serif" font-size="14.00">card(sk₃) = card(X₁)</text>
<polyline fill="none" stroke="#7f7542" points="356.5,-308.5 635.5,-308.5 "/>
<text text-anchor="middle" x="496" y="-297.3" font-family="Times,serif" font-size="14.00">finite(X₁)</text>
<polyline fill="none" stroke="#7f7542" points="356.5,-293.5 635.5,-293.5 "/>
<text text-anchor="middle" x="496" y="-282.3" font-family="Times,serif" font-size="14.00">finite(sk₈(sk₁,X₁,sk₂))</text>
<polyline fill="none" stroke="#7f7542" points="356.5,-278.5 635.5,-278.5 "/>
<text text-anchor="middle" x="496" y="-267.3" font-family="Times,serif" font-size="14.00">open(X₁,sk₁)</text>
<polyline fill="none" stroke="#7f7542" points="356.5,-263.5 635.5,-263.5 "/>
<text text-anchor="middle" x="496" y="-252.3" font-family="Times,serif" font-size="14.00">sk₃ ⊆ sk₈(sk₁,X₁,sk₂)</text>
<polyline fill="none" stroke="#7f7542" points="356.5,-248.5 635.5,-248.5 "/>
<text text-anchor="middle" x="496" y="-237.3" font-family="Times,serif" font-size="14.00">⇊</text>
<polyline fill="none" stroke="#7f7542" points="356.5,-233.5 635.5,-233.5 "/>
<text text-anchor="middle" x="496" y="-222.3" font-family="Times,serif" font-size="14.00">is_maximal_independent_in(sk₁,X₁,sk₂)</text>
<polyline fill="none" stroke="#7f7542" points="356.5,-218.5 635.5,-218.5 "/>
<text text-anchor="middle" x="496" y="-207.3" font-family="Times,serif" font-size="14.00">is_maximal_independent_in(sk₁,sk₃,sk₂)</text>
</a>
</g>
</g>
<!-- c_0_93&#45;&gt;c_0_137 -->
<g id="edge1" class="edge">
<title>c_0_93&#45;&gt;c_0_137</title>
<path fill="none" stroke="black" d="M825,-457.92C825,-422.84 825,-278 825,-278 825,-278 645.53,-278 645.53,-278"/>
<polygon fill="black" stroke="black" points="645.53,-274.5 635.53,-278 645.53,-281.5 645.53,-274.5"/>
</g>
<!-- c_0_131 -->
<g id="node2" class="node">
<title>c_0_131</title>
<g id="a_node2"><a xlink:href="c_0_131.html" xlink:title="{X₁ ∈ bool(carrier(sk₁))|X₁ ⊆ sk₂|finite(sk₈(sk₁,X₁,sk₂))|open(X₁,sk₁)|sk₃ ⊆ sk₈(sk₁,X₁,sk₂)|⇊|card(sk₈(sk₁,X₁,sk₂)) = card(sk₃)|is_maximal_independent_in(sk₁,X₁,sk₂)|is_maximal_independent_in(sk₁,sk₃,sk₂)}" target="_vizar">
<polygon fill="#fa6900" stroke="#7f7542" points="476.5,-398 476.5,-533 755.5,-533 755.5,-398 476.5,-398"/>
<text text-anchor="middle" x="616" y="-521.8" font-family="Times,serif" font-size="14.00">X₁ ∈ bool(carrier(sk₁))</text>
<polyline fill="none" stroke="#7f7542" points="476.5,-518 755.5,-518 "/>
<text text-anchor="middle" x="616" y="-506.8" font-family="Times,serif" font-size="14.00">X₁ ⊆ sk₂</text>
<polyline fill="none" stroke="#7f7542" points="476.5,-503 755.5,-503 "/>
<text text-anchor="middle" x="616" y="-491.8" font-family="Times,serif" font-size="14.00">finite(sk₈(sk₁,X₁,sk₂))</text>
<polyline fill="none" stroke="#7f7542" points="476.5,-488 755.5,-488 "/>
<text text-anchor="middle" x="616" y="-476.8" font-family="Times,serif" font-size="14.00">open(X₁,sk₁)</text>
<polyline fill="none" stroke="#7f7542" points="476.5,-473 755.5,-473 "/>
<text text-anchor="middle" x="616" y="-461.8" font-family="Times,serif" font-size="14.00">sk₃ ⊆ sk₈(sk₁,X₁,sk₂)</text>
<polyline fill="none" stroke="#7f7542" points="476.5,-458 755.5,-458 "/>
<text text-anchor="middle" x="616" y="-446.8" font-family="Times,serif" font-size="14.00">⇊</text>
<polyline fill="none" stroke="#7f7542" points="476.5,-443 755.5,-443 "/>
<text text-anchor="middle" x="616" y="-431.8" font-family="Times,serif" font-size="14.00">card(sk₈(sk₁,X₁,sk₂)) = card(sk₃)</text>
<polyline fill="none" stroke="#7f7542" points="476.5,-428 755.5,-428 "/>
<text text-anchor="middle" x="616" y="-416.8" font-family="Times,serif" font-size="14.00">is_maximal_independent_in(sk₁,X₁,sk₂)</text>
<polyline fill="none" stroke="#7f7542" points="476.5,-413 755.5,-413 "/>
<text text-anchor="middle" x="616" y="-401.8" font-family="Times,serif" font-size="14.00">is_maximal_independent_in(sk₁,sk₃,sk₂)</text>
</a>
</g>
</g>
<!-- c_0_131&#45;&gt;c_0_137 -->
<g id="edge2" class="edge">
<title>c_0_131&#45;&gt;c_0_137</title>
<path fill="none" stroke="black" d="M556,-397.99C556,-397.99 556,-363.52 556,-363.52"/>
<polygon fill="black" stroke="black" points="559.5,-363.52 556,-353.52 552.5,-363.52 559.5,-363.52"/>
</g>
<!-- c_0_101 -->
<g id="node3" class="node">
<title>c_0_101</title>
<g id="a_node3"><a xlink:href="c_0_101.html" xlink:title="{sk₂ ∈ bool(carrier(sk₁))}" target="_vizar">
<polygon fill="#fa6900" stroke="#7f7542" points="296,-458 296,-473 458,-473 458,-458 296,-458"/>
<text text-anchor="middle" x="377" y="-461.8" font-family="Times,serif" font-size="14.00">sk₂ ∈ bool(carrier(sk₁))</text>
</a>
</g>
</g>
<!-- c_0_101&#45;&gt;c_0_137 -->
<g id="edge3" class="edge">
<title>c_0_101&#45;&gt;c_0_137</title>
<path fill="none" stroke="black" d="M424.17,-457.94C424.17,-457.94 424.17,-363.68 424.17,-363.68"/>
<polygon fill="black" stroke="black" points="427.67,-363.68 424.17,-353.68 420.67,-363.68 427.67,-363.68"/>
</g>
<!-- c_0_111 -->
<g id="node4" class="node">
<title>c_0_111</title>
<g id="a_node4"><a xlink:href="c_0_111.html" xlink:title="{TopStruct(X₁)|X₂ ∈ bool(carrier(X₁))|X₂ ⊆ X₃|X₃ ∈ bool(carrier(X₁))|card(sk₈(X₁,X₂,X₃)) = card(X₂)|finite(X₂)|finite(sk₈(X₁,X₂,X₃))|open(X₂,X₁)|⇊|is_maximal_independent_in(X₁,X₂,X₃)}" target="_vizar">
<polygon fill="#f8edd1" stroke="#7f7542" points="16.5,-390.5 16.5,-540.5 277.5,-540.5 277.5,-390.5 16.5,-390.5"/>
<text text-anchor="middle" x="147" y="-529.3" font-family="Times,serif" font-size="14.00">TopStruct(X₁)</text>
<polyline fill="none" stroke="#7f7542" points="16.5,-525.5 277.5,-525.5 "/>
<text text-anchor="middle" x="147" y="-514.3" font-family="Times,serif" font-size="14.00">X₂ ∈ bool(carrier(X₁))</text>
<polyline fill="none" stroke="#7f7542" points="16.5,-510.5 277.5,-510.5 "/>
<text text-anchor="middle" x="147" y="-499.3" font-family="Times,serif" font-size="14.00">X₂ ⊆ X₃</text>
<polyline fill="none" stroke="#7f7542" points="16.5,-495.5 277.5,-495.5 "/>
<text text-anchor="middle" x="147" y="-484.3" font-family="Times,serif" font-size="14.00">X₃ ∈ bool(carrier(X₁))</text>
<polyline fill="none" stroke="#7f7542" points="16.5,-480.5 277.5,-480.5 "/>
<text text-anchor="middle" x="147" y="-469.3" font-family="Times,serif" font-size="14.00">card(sk₈(X₁,X₂,X₃)) = card(X₂)</text>
<polyline fill="none" stroke="#7f7542" points="16.5,-465.5 277.5,-465.5 "/>
<text text-anchor="middle" x="147" y="-454.3" font-family="Times,serif" font-size="14.00">finite(X₂)</text>
<polyline fill="none" stroke="#7f7542" points="16.5,-450.5 277.5,-450.5 "/>
<text text-anchor="middle" x="147" y="-439.3" font-family="Times,serif" font-size="14.00">finite(sk₈(X₁,X₂,X₃))</text>
<polyline fill="none" stroke="#7f7542" points="16.5,-435.5 277.5,-435.5 "/>
<text text-anchor="middle" x="147" y="-424.3" font-family="Times,serif" font-size="14.00">open(X₂,X₁)</text>
<polyline fill="none" stroke="#7f7542" points="16.5,-420.5 277.5,-420.5 "/>
<text text-anchor="middle" x="147" y="-409.3" font-family="Times,serif" font-size="14.00">⇊</text>
<polyline fill="none" stroke="#7f7542" points="16.5,-405.5 277.5,-405.5 "/>
<text text-anchor="middle" x="147" y="-394.3" font-family="Times,serif" font-size="14.00">is_maximal_independent_in(X₁,X₂,X₃)</text>
</a>
</g>
</g>
<!-- c_0_111&#45;&gt;c_0_137 -->
<g id="edge4" class="edge">
<title>c_0_111&#45;&gt;c_0_137</title>
<path fill="none" stroke="black" d="M277.57,-393C335.3,-393 390.33,-393 390.33,-393 390.33,-393 390.33,-363.6 390.33,-363.6"/>
<polygon fill="black" stroke="black" points="393.83,-363.6 390.33,-353.6 386.83,-363.6 393.83,-363.6"/>
</g>
<!-- c_0_142 -->
<g id="node6" class="node">
<title>c_0_142</title>
<g id="a_node6"><a xlink:href="c_0_142.html" xlink:title="{X₁ ∈ bool(carrier(sk₁))|X₁ ⊆ sk₂|card(sk₃) = card(X₁)|finite(X₁)|finite&#45;membered(sk₁)|open(X₁,sk₁)|sk₃ ⊆ sk₈(sk₁,X₁,sk₂)|⇊|is_maximal_independent_in(sk₁,X₁,sk₂)|is_maximal_independent_in(sk₁,sk₃,sk₂)}" target="_vizar">
<polygon fill="#fa6900" stroke="#7f7542" points="356.5,-16.5 356.5,-166.5 635.5,-166.5 635.5,-16.5 356.5,-16.5"/>
<text text-anchor="middle" x="496" y="-155.3" font-family="Times,serif" font-size="14.00">X₁ ∈ bool(carrier(sk₁))</text>
<polyline fill="none" stroke="#7f7542" points="356.5,-151.5 635.5,-151.5 "/>
<text text-anchor="middle" x="496" y="-140.3" font-family="Times,serif" font-size="14.00">X₁ ⊆ sk₂</text>
<polyline fill="none" stroke="#7f7542" points="356.5,-136.5 635.5,-136.5 "/>
<text text-anchor="middle" x="496" y="-125.3" font-family="Times,serif" font-size="14.00">card(sk₃) = card(X₁)</text>
<polyline fill="none" stroke="#7f7542" points="356.5,-121.5 635.5,-121.5 "/>
<text text-anchor="middle" x="496" y="-110.3" font-family="Times,serif" font-size="14.00">finite(X₁)</text>
<polyline fill="none" stroke="#7f7542" points="356.5,-106.5 635.5,-106.5 "/>
<text text-anchor="middle" x="496" y="-95.3" font-family="Times,serif" font-size="14.00">finite&#45;membered(sk₁)</text>
<polyline fill="none" stroke="#7f7542" points="356.5,-91.5 635.5,-91.5 "/>
<text text-anchor="middle" x="496" y="-80.3" font-family="Times,serif" font-size="14.00">open(X₁,sk₁)</text>
<polyline fill="none" stroke="#7f7542" points="356.5,-76.5 635.5,-76.5 "/>
<text text-anchor="middle" x="496" y="-65.3" font-family="Times,serif" font-size="14.00">sk₃ ⊆ sk₈(sk₁,X₁,sk₂)</text>
<polyline fill="none" stroke="#7f7542" points="356.5,-61.5 635.5,-61.5 "/>
<text text-anchor="middle" x="496" y="-50.3" font-family="Times,serif" font-size="14.00">⇊</text>
<polyline fill="none" stroke="#7f7542" points="356.5,-46.5 635.5,-46.5 "/>
<text text-anchor="middle" x="496" y="-35.3" font-family="Times,serif" font-size="14.00">is_maximal_independent_in(sk₁,X₁,sk₂)</text>
<polyline fill="none" stroke="#7f7542" points="356.5,-31.5 635.5,-31.5 "/>
<text text-anchor="middle" x="496" y="-20.3" font-family="Times,serif" font-size="14.00">is_maximal_independent_in(sk₁,sk₃,sk₂)</text>
</a>
</g>
</g>
<!-- c_0_137&#45;&gt;c_0_142 -->
<g id="edge5" class="edge">
<title>c_0_137&#45;&gt;c_0_142</title>
<path fill="none" stroke="black" stroke-dasharray="5,2" d="M496,-203.25C496,-203.25 496,-176.6 496,-176.6"/>
<polygon fill="black" stroke="black" points="499.5,-176.6 496,-166.6 492.5,-176.6 499.5,-176.6"/>
</g>
</g>
</svg>
