<?xml version="1.0" encoding="UTF-8" standalone="no"?>
<!DOCTYPE svg PUBLIC "-//W3C//DTD SVG 1.1//EN"
 "http://www.w3.org/Graphics/SVG/1.1/DTD/svg11.dtd">
<!-- Generated by graphviz version 5.0.0 (0)
 -->
<!-- Title: proof Pages: 1 -->
<svg width="632pt" height="655pt"
 viewBox="0.00 0.00 632.00 655.00" xmlns="http://www.w3.org/2000/svg" xmlns:xlink="http://www.w3.org/1999/xlink">
<g id="graph0" class="graph" transform="scale(1 1) rotate(0) translate(4 651)">
<title>proof</title>
<g id="clust1" class="cluster">
<title>cluster_0</title>
<polygon fill="transparent" stroke="black" stroke-dasharray="1,5" points="8,-457 8,-639 616,-639 616,-457 8,-457"/>
</g>
<g id="clust2" class="cluster">
<title>cluster_1</title>
<polygon fill="transparent" stroke="black" stroke-width="2" points="148,-195 148,-437 476,-437 476,-195 148,-195"/>
</g>
<g id="clust3" class="cluster">
<title>cluster_2</title>
<polygon fill="transparent" stroke="black" stroke-dasharray="1,5" points="148,-8 148,-175 476,-175 476,-8 148,-8"/>
</g>
<!-- c_0_111 -->
<g id="node1" class="node">
<title>c_0_111</title>
<g id="a_node1"><a xlink:href="c_0_111.html" xlink:title="{TopStruct(X₁)|X₂ ∈ bool(carrier(X₁))|X₂ ⊆ X₃|X₃ ∈ bool(carrier(X₁))|card(sk₈(X₁,X₂,X₃)) = card(X₂)|finite(X₂)|finite(sk₈(X₁,X₂,X₃))|open(X₂,X₁)|⇊|is_maximal_independent_in(X₁,X₂,X₃)}" target="_vizar">
<polygon fill="#f8edd1" stroke="#7f7542" points="346.5,-473 346.5,-623 607.5,-623 607.5,-473 346.5,-473"/>
<text text-anchor="middle" x="477" y="-611.8" font-family="Times,serif" font-size="14.00">TopStruct(X₁)</text>
<polyline fill="none" stroke="#7f7542" points="346.5,-608 607.5,-608 "/>
<text text-anchor="middle" x="477" y="-596.8" font-family="Times,serif" font-size="14.00">X₂ ∈ bool(carrier(X₁))</text>
<polyline fill="none" stroke="#7f7542" points="346.5,-593 607.5,-593 "/>
<text text-anchor="middle" x="477" y="-581.8" font-family="Times,serif" font-size="14.00">X₂ ⊆ X₃</text>
<polyline fill="none" stroke="#7f7542" points="346.5,-578 607.5,-578 "/>
<text text-anchor="middle" x="477" y="-566.8" font-family="Times,serif" font-size="14.00">X₃ ∈ bool(carrier(X₁))</text>
<polyline fill="none" stroke="#7f7542" points="346.5,-563 607.5,-563 "/>
<text text-anchor="middle" x="477" y="-551.8" font-family="Times,serif" font-size="14.00">card(sk₈(X₁,X₂,X₃)) = card(X₂)</text>
<polyline fill="none" stroke="#7f7542" points="346.5,-548 607.5,-548 "/>
<text text-anchor="middle" x="477" y="-536.8" font-family="Times,serif" font-size="14.00">finite(X₂)</text>
<polyline fill="none" stroke="#7f7542" points="346.5,-533 607.5,-533 "/>
<text text-anchor="middle" x="477" y="-521.8" font-family="Times,serif" font-size="14.00">finite(sk₈(X₁,X₂,X₃))</text>
<polyline fill="none" stroke="#7f7542" points="346.5,-518 607.5,-518 "/>
<text text-anchor="middle" x="477" y="-506.8" font-family="Times,serif" font-size="14.00">open(X₂,X₁)</text>
<polyline fill="none" stroke="#7f7542" points="346.5,-503 607.5,-503 "/>
<text text-anchor="middle" x="477" y="-491.8" font-family="Times,serif" font-size="14.00">⇊</text>
<polyline fill="none" stroke="#7f7542" points="346.5,-488 607.5,-488 "/>
<text text-anchor="middle" x="477" y="-476.8" font-family="Times,serif" font-size="14.00">is_maximal_independent_in(X₁,X₂,X₃)</text>
</a>
</g>
</g>
<!-- c_0_122 -->
<g id="node3" class="node">
<title>c_0_122</title>
<g id="a_node3"><a xlink:href="c_0_122.html" xlink:title="{TopStruct(X₁)|X₂ ∈ bool(carrier(X₁))|card(sk₄(X₁,X₂)) = Rnk(X₁,X₂)|finite(sk₄(X₁,X₂))|finite(sk₈(X₁,sk₄(X₁,X₂),X₂))|finite&#45;degree(X₁)|open(sk₄(X₁,X₂),X₁)|sk₄(X₁,X₂) ∈ bool(carrier(X₁))|sk₄(X₁,X₂) ⊆ X₂|subset&#45;closed(X₁)|with_exchange_property(X₁)|⇊|empty(X₁)|is_maximal_independent_in(X₁,sk₄(X₁,X₂),X₂)|void(X₁)}" target="_vizar">
<polygon fill="#f8edd1" stroke="#7f7542" points="156,-203.5 156,-428.5 468,-428.5 468,-203.5 156,-203.5"/>
<text text-anchor="middle" x="312" y="-417.3" font-family="Times,serif" font-size="14.00">TopStruct(X₁)</text>
<polyline fill="none" stroke="#7f7542" points="156,-413.5 468,-413.5 "/>
<text text-anchor="middle" x="312" y="-402.3" font-family="Times,serif" font-size="14.00">X₂ ∈ bool(carrier(X₁))</text>
<polyline fill="none" stroke="#7f7542" points="156,-398.5 468,-398.5 "/>
<text text-anchor="middle" x="312" y="-387.3" font-family="Times,serif" font-size="14.00">card(sk₄(X₁,X₂)) = Rnk(X₁,X₂)</text>
<polyline fill="none" stroke="#7f7542" points="156,-383.5 468,-383.5 "/>
<text text-anchor="middle" x="312" y="-372.3" font-family="Times,serif" font-size="14.00">finite(sk₄(X₁,X₂))</text>
<polyline fill="none" stroke="#7f7542" points="156,-368.5 468,-368.5 "/>
<text text-anchor="middle" x="312" y="-357.3" font-family="Times,serif" font-size="14.00">finite(sk₈(X₁,sk₄(X₁,X₂),X₂))</text>
<polyline fill="none" stroke="#7f7542" points="156,-353.5 468,-353.5 "/>
<text text-anchor="middle" x="312" y="-342.3" font-family="Times,serif" font-size="14.00">finite&#45;degree(X₁)</text>
<polyline fill="none" stroke="#7f7542" points="156,-338.5 468,-338.5 "/>
<text text-anchor="middle" x="312" y="-327.3" font-family="Times,serif" font-size="14.00">open(sk₄(X₁,X₂),X₁)</text>
<polyline fill="none" stroke="#7f7542" points="156,-323.5 468,-323.5 "/>
<text text-anchor="middle" x="312" y="-312.3" font-family="Times,serif" font-size="14.00">sk₄(X₁,X₂) ∈ bool(carrier(X₁))</text>
<polyline fill="none" stroke="#7f7542" points="156,-308.5 468,-308.5 "/>
<text text-anchor="middle" x="312" y="-297.3" font-family="Times,serif" font-size="14.00">sk₄(X₁,X₂) ⊆ X₂</text>
<polyline fill="none" stroke="#7f7542" points="156,-293.5 468,-293.5 "/>
<text text-anchor="middle" x="312" y="-282.3" font-family="Times,serif" font-size="14.00">subset&#45;closed(X₁)</text>
<polyline fill="none" stroke="#7f7542" points="156,-278.5 468,-278.5 "/>
<text text-anchor="middle" x="312" y="-267.3" font-family="Times,serif" font-size="14.00">with_exchange_property(X₁)</text>
<polyline fill="none" stroke="#7f7542" points="156,-263.5 468,-263.5 "/>
<text text-anchor="middle" x="312" y="-252.3" font-family="Times,serif" font-size="14.00">⇊</text>
<polyline fill="none" stroke="#7f7542" points="156,-248.5 468,-248.5 "/>
<text text-anchor="middle" x="312" y="-237.3" font-family="Times,serif" font-size="14.00">empty(X₁)</text>
<polyline fill="none" stroke="#7f7542" points="156,-233.5 468,-233.5 "/>
<text text-anchor="middle" x="312" y="-222.3" font-family="Times,serif" font-size="14.00">is_maximal_independent_in(X₁,sk₄(X₁,X₂),X₂)</text>
<polyline fill="none" stroke="#7f7542" points="156,-218.5 468,-218.5 "/>
<text text-anchor="middle" x="312" y="-207.3" font-family="Times,serif" font-size="14.00">void(X₁)</text>
</a>
</g>
</g>
<!-- c_0_111&#45;&gt;c_0_122 -->
<g id="edge1" class="edge">
<title>c_0_111&#45;&gt;c_0_122</title>
<path fill="none" stroke="black" d="M407.25,-473C407.25,-473 407.25,-438.7 407.25,-438.7"/>
<polygon fill="black" stroke="black" points="410.75,-438.7 407.25,-428.7 403.75,-438.7 410.75,-438.7"/>
</g>
<!-- c_0_112 -->
<g id="node2" class="node">
<title>c_0_112</title>
<g id="a_node2"><a xlink:href="c_0_112.html" xlink:title="{TopStruct(X₁)|X₂ ∈ bool(carrier(X₁))|finite(sk₈(X₁,sk₄(X₁,X₂),X₂))|finite&#45;degree(X₁)|subset&#45;closed(X₁)|with_exchange_property(X₁)|⇊|card(sk₈(X₁,sk₄(X₁,X₂),X₂)) = Rnk(X₁,X₂)|empty(X₁)|is_maximal_independent_in(X₁,sk₄(X₁,X₂),X₂)|void(X₁)}" target="_vizar">
<polygon fill="#f8edd1" stroke="#7f7542" points="16,-465.5 16,-630.5 328,-630.5 328,-465.5 16,-465.5"/>
<text text-anchor="middle" x="172" y="-619.3" font-family="Times,serif" font-size="14.00">TopStruct(X₁)</text>
<polyline fill="none" stroke="#7f7542" points="16,-615.5 328,-615.5 "/>
<text text-anchor="middle" x="172" y="-604.3" font-family="Times,serif" font-size="14.00">X₂ ∈ bool(carrier(X₁))</text>
<polyline fill="none" stroke="#7f7542" points="16,-600.5 328,-600.5 "/>
<text text-anchor="middle" x="172" y="-589.3" font-family="Times,serif" font-size="14.00">finite(sk₈(X₁,sk₄(X₁,X₂),X₂))</text>
<polyline fill="none" stroke="#7f7542" points="16,-585.5 328,-585.5 "/>
<text text-anchor="middle" x="172" y="-574.3" font-family="Times,serif" font-size="14.00">finite&#45;degree(X₁)</text>
<polyline fill="none" stroke="#7f7542" points="16,-570.5 328,-570.5 "/>
<text text-anchor="middle" x="172" y="-559.3" font-family="Times,serif" font-size="14.00">subset&#45;closed(X₁)</text>
<polyline fill="none" stroke="#7f7542" points="16,-555.5 328,-555.5 "/>
<text text-anchor="middle" x="172" y="-544.3" font-family="Times,serif" font-size="14.00">with_exchange_property(X₁)</text>
<polyline fill="none" stroke="#7f7542" points="16,-540.5 328,-540.5 "/>
<text text-anchor="middle" x="172" y="-529.3" font-family="Times,serif" font-size="14.00">⇊</text>
<polyline fill="none" stroke="#7f7542" points="16,-525.5 328,-525.5 "/>
<text text-anchor="middle" x="172" y="-514.3" font-family="Times,serif" font-size="14.00">card(sk₈(X₁,sk₄(X₁,X₂),X₂)) = Rnk(X₁,X₂)</text>
<polyline fill="none" stroke="#7f7542" points="16,-510.5 328,-510.5 "/>
<text text-anchor="middle" x="172" y="-499.3" font-family="Times,serif" font-size="14.00">empty(X₁)</text>
<polyline fill="none" stroke="#7f7542" points="16,-495.5 328,-495.5 "/>
<text text-anchor="middle" x="172" y="-484.3" font-family="Times,serif" font-size="14.00">is_maximal_independent_in(X₁,sk₄(X₁,X₂),X₂)</text>
<polyline fill="none" stroke="#7f7542" points="16,-480.5 328,-480.5 "/>
<text text-anchor="middle" x="172" y="-469.3" font-family="Times,serif" font-size="14.00">void(X₁)</text>
</a>
</g>
</g>
<!-- c_0_112&#45;&gt;c_0_122 -->
<g id="edge2" class="edge">
<title>c_0_112&#45;&gt;c_0_122</title>
<path fill="none" stroke="black" d="M242,-465.23C242,-465.23 242,-438.74 242,-438.74"/>
<polygon fill="black" stroke="black" points="245.5,-438.74 242,-428.74 238.5,-438.74 245.5,-438.74"/>
</g>
<!-- c_0_129 -->
<g id="node4" class="node">
<title>c_0_129</title>
<g id="a_node4"><a xlink:href="c_0_129.html" xlink:title="{TopStruct(X₁)|X₂ ∈ bool(carrier(X₁))|finite(sk₈(X₁,sk₄(X₁,X₂),X₂))|finite&#45;degree(X₁)|subset&#45;closed(X₁)|with_exchange_property(X₁)|⇊|empty(X₁)|is_maximal_independent_in(X₁,sk₄(X₁,X₂),X₂)|void(X₁)}" target="_vizar">
<polygon fill="#f8edd1" stroke="#7f7542" points="156,-16.5 156,-166.5 468,-166.5 468,-16.5 156,-16.5"/>
<text text-anchor="middle" x="312" y="-155.3" font-family="Times,serif" font-size="14.00">TopStruct(X₁)</text>
<polyline fill="none" stroke="#7f7542" points="156,-151.5 468,-151.5 "/>
<text text-anchor="middle" x="312" y="-140.3" font-family="Times,serif" font-size="14.00">X₂ ∈ bool(carrier(X₁))</text>
<polyline fill="none" stroke="#7f7542" points="156,-136.5 468,-136.5 "/>
<text text-anchor="middle" x="312" y="-125.3" font-family="Times,serif" font-size="14.00">finite(sk₈(X₁,sk₄(X₁,X₂),X₂))</text>
<polyline fill="none" stroke="#7f7542" points="156,-121.5 468,-121.5 "/>
<text text-anchor="middle" x="312" y="-110.3" font-family="Times,serif" font-size="14.00">finite&#45;degree(X₁)</text>
<polyline fill="none" stroke="#7f7542" points="156,-106.5 468,-106.5 "/>
<text text-anchor="middle" x="312" y="-95.3" font-family="Times,serif" font-size="14.00">subset&#45;closed(X₁)</text>
<polyline fill="none" stroke="#7f7542" points="156,-91.5 468,-91.5 "/>
<text text-anchor="middle" x="312" y="-80.3" font-family="Times,serif" font-size="14.00">with_exchange_property(X₁)</text>
<polyline fill="none" stroke="#7f7542" points="156,-76.5 468,-76.5 "/>
<text text-anchor="middle" x="312" y="-65.3" font-family="Times,serif" font-size="14.00">⇊</text>
<polyline fill="none" stroke="#7f7542" points="156,-61.5 468,-61.5 "/>
<text text-anchor="middle" x="312" y="-50.3" font-family="Times,serif" font-size="14.00">empty(X₁)</text>
<polyline fill="none" stroke="#7f7542" points="156,-46.5 468,-46.5 "/>
<text text-anchor="middle" x="312" y="-35.3" font-family="Times,serif" font-size="14.00">is_maximal_independent_in(X₁,sk₄(X₁,X₂),X₂)</text>
<polyline fill="none" stroke="#7f7542" points="156,-31.5 468,-31.5 "/>
<text text-anchor="middle" x="312" y="-20.3" font-family="Times,serif" font-size="14.00">void(X₁)</text>
</a>
</g>
</g>
<!-- c_0_122&#45;&gt;c_0_129 -->
<g id="edge3" class="edge">
<title>c_0_122&#45;&gt;c_0_129</title>
<path fill="none" stroke="black" stroke-dasharray="5,2" d="M312,-203.42C312,-203.42 312,-176.64 312,-176.64"/>
<polygon fill="black" stroke="black" points="315.5,-176.64 312,-166.64 308.5,-176.64 315.5,-176.64"/>
</g>
</g>
</svg>
