<?xml version="1.0" encoding="UTF-8" standalone="no"?>
<!DOCTYPE svg PUBLIC "-//W3C//DTD SVG 1.1//EN"
 "http://www.w3.org/Graphics/SVG/1.1/DTD/svg11.dtd">
<!-- Generated by graphviz version 5.0.0 (0)
 -->
<!-- Title: proof Pages: 1 -->
<svg width="320pt" height="415pt"
 viewBox="0.00 0.00 320.00 415.00" xmlns="http://www.w3.org/2000/svg" xmlns:xlink="http://www.w3.org/1999/xlink">
<g id="graph0" class="graph" transform="scale(1 1) rotate(0) translate(4 411)">
<title>proof</title>
<g id="clust1" class="cluster">
<title>cluster_0</title>
<polygon fill="transparent" stroke="black" stroke-dasharray="1,5" points="46,-307 46,-399 268,-399 268,-307 46,-307"/>
</g>
<g id="clust2" class="cluster">
<title>cluster_1</title>
<polygon fill="transparent" stroke="black" stroke-width="2" points="80,-180 80,-287 232,-287 232,-180 80,-180"/>
</g>
<g id="clust3" class="cluster">
<title>cluster_2</title>
<polygon fill="transparent" stroke="black" stroke-dasharray="1,5" points="8,-8 8,-160 304,-160 304,-8 8,-8"/>
</g>
<!-- c_0_113 -->
<g id="node1" class="node">
<title>c_0_113</title>
<g id="a_node1"><a xlink:href="c_0_113.html" xlink:title="{X₁ ⊆ X₂|finite(X₁)|finite(X₂)|⇊|card(X₁) ⊆ card(X₂)}" target="_parent">
<polygon fill="#f8edd1" stroke="#7f7542" points="124,-315.5 124,-390.5 260,-390.5 260,-315.5 124,-315.5"/>
<text text-anchor="middle" x="192" y="-379.3" font-family="Times,serif" font-size="14.00">X₁ ⊆ X₂</text>
<polyline fill="none" stroke="#7f7542" points="124,-375.5 260,-375.5 "/>
<text text-anchor="middle" x="192" y="-364.3" font-family="Times,serif" font-size="14.00">finite(X₁)</text>
<polyline fill="none" stroke="#7f7542" points="124,-360.5 260,-360.5 "/>
<text text-anchor="middle" x="192" y="-349.3" font-family="Times,serif" font-size="14.00">finite(X₂)</text>
<polyline fill="none" stroke="#7f7542" points="124,-345.5 260,-345.5 "/>
<text text-anchor="middle" x="192" y="-334.3" font-family="Times,serif" font-size="14.00">⇊</text>
<polyline fill="none" stroke="#7f7542" points="124,-330.5 260,-330.5 "/>
<text text-anchor="middle" x="192" y="-319.3" font-family="Times,serif" font-size="14.00">card(X₁) ⊆ card(X₂)</text>
</a>
</g>
</g>
<!-- c_0_124 -->
<g id="node3" class="node">
<title>c_0_124</title>
<g id="a_node3"><a xlink:href="c_0_124.html" xlink:title="{X₂ ⊆ X₁|card(X₁) ⊆ card(X₂)|finite(X₁)|finite(X₂)|⇊|card(X₁) = card(X₂)}" target="_parent">
<polygon fill="#f8edd1" stroke="#7f7542" points="88,-188.5 88,-278.5 224,-278.5 224,-188.5 88,-188.5"/>
<text text-anchor="middle" x="156" y="-267.3" font-family="Times,serif" font-size="14.00">X₂ ⊆ X₁</text>
<polyline fill="none" stroke="#7f7542" points="88,-263.5 224,-263.5 "/>
<text text-anchor="middle" x="156" y="-252.3" font-family="Times,serif" font-size="14.00">card(X₁) ⊆ card(X₂)</text>
<polyline fill="none" stroke="#7f7542" points="88,-248.5 224,-248.5 "/>
<text text-anchor="middle" x="156" y="-237.3" font-family="Times,serif" font-size="14.00">finite(X₁)</text>
<polyline fill="none" stroke="#7f7542" points="88,-233.5 224,-233.5 "/>
<text text-anchor="middle" x="156" y="-222.3" font-family="Times,serif" font-size="14.00">finite(X₂)</text>
<polyline fill="none" stroke="#7f7542" points="88,-218.5 224,-218.5 "/>
<text text-anchor="middle" x="156" y="-207.3" font-family="Times,serif" font-size="14.00">⇊</text>
<polyline fill="none" stroke="#7f7542" points="88,-203.5 224,-203.5 "/>
<text text-anchor="middle" x="156" y="-192.3" font-family="Times,serif" font-size="14.00">card(X₁) = card(X₂)</text>
</a>
</g>
</g>
<!-- c_0_113&#45;&gt;c_0_124 -->
<g id="edge1" class="edge">
<title>c_0_113&#45;&gt;c_0_124</title>
<path fill="none" stroke="black" d="M174,-315.19C174,-315.19 174,-288.59 174,-288.59"/>
<polygon fill="black" stroke="black" points="177.5,-288.59 174,-278.59 170.5,-288.59 177.5,-288.59"/>
</g>
<!-- c_0_71 -->
<g id="node2" class="node">
<title>c_0_71</title>
<g id="a_node2"><a xlink:href="c_0_71.html" xlink:title="{X₁ ⊆ X₂|X₂ ⊆ X₁|⇊|X₁ = X₂}" target="_parent">
<polygon fill="#f8edd1" stroke="#7f7542" points="54,-323 54,-383 106,-383 106,-323 54,-323"/>
<text text-anchor="middle" x="80" y="-371.8" font-family="Times,serif" font-size="14.00">X₁ ⊆ X₂</text>
<polyline fill="none" stroke="#7f7542" points="54,-368 106,-368 "/>
<text text-anchor="middle" x="80" y="-356.8" font-family="Times,serif" font-size="14.00">X₂ ⊆ X₁</text>
<polyline fill="none" stroke="#7f7542" points="54,-353 106,-353 "/>
<text text-anchor="middle" x="80" y="-341.8" font-family="Times,serif" font-size="14.00">⇊</text>
<polyline fill="none" stroke="#7f7542" points="54,-338 106,-338 "/>
<text text-anchor="middle" x="80" y="-326.8" font-family="Times,serif" font-size="14.00">X₁ = X₂</text>
</a>
</g>
</g>
<!-- c_0_71&#45;&gt;c_0_124 -->
<g id="edge2" class="edge">
<title>c_0_71&#45;&gt;c_0_124</title>
<path fill="none" stroke="black" d="M97,-322.85C97,-322.85 97,-288.56 97,-288.56"/>
<polygon fill="black" stroke="black" points="100.5,-288.56 97,-278.56 93.5,-288.56 100.5,-288.56"/>
</g>
<!-- c_0_131 -->
<g id="node4" class="node">
<title>c_0_131</title>
<g id="a_node4"><a xlink:href="c_0_131.html" xlink:title="{X₁ ∈ bool(carrier(sk₁))|X₁ ⊆ sk₂|finite(sk₈(sk₁,X₁,sk₂))|open(X₁,sk₁)|sk₃ ⊆ sk₈(sk₁,X₁,sk₂)|⇊|card(sk₈(sk₁,X₁,sk₂)) = card(sk₃)|is_maximal_independent_in(sk₁,X₁,sk₂)|is_maximal_independent_in(sk₁,sk₃,sk₂)}" target="_parent">
<polygon fill="#fa6900" stroke="#7f7542" points="16.5,-16.5 16.5,-151.5 295.5,-151.5 295.5,-16.5 16.5,-16.5"/>
<text text-anchor="middle" x="156" y="-140.3" font-family="Times,serif" font-size="14.00">X₁ ∈ bool(carrier(sk₁))</text>
<polyline fill="none" stroke="#7f7542" points="16.5,-136.5 295.5,-136.5 "/>
<text text-anchor="middle" x="156" y="-125.3" font-family="Times,serif" font-size="14.00">X₁ ⊆ sk₂</text>
<polyline fill="none" stroke="#7f7542" points="16.5,-121.5 295.5,-121.5 "/>
<text text-anchor="middle" x="156" y="-110.3" font-family="Times,serif" font-size="14.00">finite(sk₈(sk₁,X₁,sk₂))</text>
<polyline fill="none" stroke="#7f7542" points="16.5,-106.5 295.5,-106.5 "/>
<text text-anchor="middle" x="156" y="-95.3" font-family="Times,serif" font-size="14.00">open(X₁,sk₁)</text>
<polyline fill="none" stroke="#7f7542" points="16.5,-91.5 295.5,-91.5 "/>
<text text-anchor="middle" x="156" y="-80.3" font-family="Times,serif" font-size="14.00">sk₃ ⊆ sk₈(sk₁,X₁,sk₂)</text>
<polyline fill="none" stroke="#7f7542" points="16.5,-76.5 295.5,-76.5 "/>
<text text-anchor="middle" x="156" y="-65.3" font-family="Times,serif" font-size="14.00">⇊</text>
<polyline fill="none" stroke="#7f7542" points="16.5,-61.5 295.5,-61.5 "/>
<text text-anchor="middle" x="156" y="-50.3" font-family="Times,serif" font-size="14.00">card(sk₈(sk₁,X₁,sk₂)) = card(sk₃)</text>
<polyline fill="none" stroke="#7f7542" points="16.5,-46.5 295.5,-46.5 "/>
<text text-anchor="middle" x="156" y="-35.3" font-family="Times,serif" font-size="14.00">is_maximal_independent_in(sk₁,X₁,sk₂)</text>
<polyline fill="none" stroke="#7f7542" points="16.5,-31.5 295.5,-31.5 "/>
<text text-anchor="middle" x="156" y="-20.3" font-family="Times,serif" font-size="14.00">is_maximal_independent_in(sk₁,sk₃,sk₂)</text>
</a>
</g>
</g>
<!-- c_0_124&#45;&gt;c_0_131 -->
<g id="edge3" class="edge">
<title>c_0_124&#45;&gt;c_0_131</title>
<path fill="none" stroke="black" stroke-dasharray="5,2" d="M156,-188.24C156,-188.24 156,-161.73 156,-161.73"/>
<polygon fill="black" stroke="black" points="159.5,-161.73 156,-151.73 152.5,-161.73 159.5,-161.73"/>
</g>
</g>
</svg>
