<?xml version="1.0" encoding="UTF-8" standalone="no"?>
<!DOCTYPE svg PUBLIC "-//W3C//DTD SVG 1.1//EN"
 "http://www.w3.org/Graphics/SVG/1.1/DTD/svg11.dtd">
<!-- Generated by graphviz version 5.0.0 (0)
 -->
<!-- Title: proof Pages: 1 -->
<svg width="242pt" height="288pt"
 viewBox="0.00 0.00 242.00 288.00" xmlns="http://www.w3.org/2000/svg" xmlns:xlink="http://www.w3.org/1999/xlink">
<g id="graph0" class="graph" transform="scale(1 1) rotate(0) translate(4 284)">
<title>proof</title>
<g id="clust1" class="cluster">
<title>cluster_1</title>
<polygon fill="transparent" stroke="black" stroke-width="2" points="20,-240 20,-272 214,-272 214,-240 20,-240"/>
</g>
<g id="clust2" class="cluster">
<title>cluster_2</title>
<polygon fill="transparent" stroke="black" stroke-dasharray="1,5" points="8,-8 8,-220 226,-220 226,-8 8,-8"/>
</g>
<!-- fraenkel_a_2_3_matroid0 -->
<g id="node1" class="node">
<title>fraenkel_a_2_3_matroid0</title>
<g id="a_node1"><a xlink:href="fraenkel_a_2_3_matroid0.html" xlink:title="fraenkel_a_2_3_matroid0" target="_vizar">
<polygon fill="#69d2e7" stroke="#7f7542" points="28,-248.5 28,-263.5 206,-263.5 206,-248.5 28,-248.5"/>
<text text-anchor="middle" x="117" y="-252.3" font-family="Times,serif" font-size="14.00">fraenkel_a_2_3_matroid0</text>
</a>
</g>
</g>
<!-- c_0_20 -->
<g id="node2" class="node">
<title>c_0_20</title>
<g id="a_node2"><a xlink:href="c_0_20.html" xlink:title="{TopStruct(X₂)|X₁ ∈ bool(carrier(X₂))|X₁ ⊆ X₄|X₃ = card(X₁)|X₄ ∈ bool(carrier(X₂))|finite&#45;degree(X₂)|open(X₁,X₂)|subset&#45;closed(X₂)|with_exchange_property(X₂)|⇊|X₃ ∈ a_2_3_matroid0(X₂,X₄)|empty(X₂)|void(X₂)}" target="_vizar">
<polygon fill="#f8edd1" stroke="#7f7542" points="16.5,-16.5 16.5,-211.5 217.5,-211.5 217.5,-16.5 16.5,-16.5"/>
<text text-anchor="middle" x="117" y="-200.3" font-family="Times,serif" font-size="14.00">TopStruct(X₂)</text>
<polyline fill="none" stroke="#7f7542" points="16.5,-196.5 217.5,-196.5 "/>
<text text-anchor="middle" x="117" y="-185.3" font-family="Times,serif" font-size="14.00">X₁ ∈ bool(carrier(X₂))</text>
<polyline fill="none" stroke="#7f7542" points="16.5,-181.5 217.5,-181.5 "/>
<text text-anchor="middle" x="117" y="-170.3" font-family="Times,serif" font-size="14.00">X₁ ⊆ X₄</text>
<polyline fill="none" stroke="#7f7542" points="16.5,-166.5 217.5,-166.5 "/>
<text text-anchor="middle" x="117" y="-155.3" font-family="Times,serif" font-size="14.00">X₃ = card(X₁)</text>
<polyline fill="none" stroke="#7f7542" points="16.5,-151.5 217.5,-151.5 "/>
<text text-anchor="middle" x="117" y="-140.3" font-family="Times,serif" font-size="14.00">X₄ ∈ bool(carrier(X₂))</text>
<polyline fill="none" stroke="#7f7542" points="16.5,-136.5 217.5,-136.5 "/>
<text text-anchor="middle" x="117" y="-125.3" font-family="Times,serif" font-size="14.00">finite&#45;degree(X₂)</text>
<polyline fill="none" stroke="#7f7542" points="16.5,-121.5 217.5,-121.5 "/>
<text text-anchor="middle" x="117" y="-110.3" font-family="Times,serif" font-size="14.00">open(X₁,X₂)</text>
<polyline fill="none" stroke="#7f7542" points="16.5,-106.5 217.5,-106.5 "/>
<text text-anchor="middle" x="117" y="-95.3" font-family="Times,serif" font-size="14.00">subset&#45;closed(X₂)</text>
<polyline fill="none" stroke="#7f7542" points="16.5,-91.5 217.5,-91.5 "/>
<text text-anchor="middle" x="117" y="-80.3" font-family="Times,serif" font-size="14.00">with_exchange_property(X₂)</text>
<polyline fill="none" stroke="#7f7542" points="16.5,-76.5 217.5,-76.5 "/>
<text text-anchor="middle" x="117" y="-65.3" font-family="Times,serif" font-size="14.00">⇊</text>
<polyline fill="none" stroke="#7f7542" points="16.5,-61.5 217.5,-61.5 "/>
<text text-anchor="middle" x="117" y="-50.3" font-family="Times,serif" font-size="14.00">X₃ ∈ a_2_3_matroid0(X₂,X₄)</text>
<polyline fill="none" stroke="#7f7542" points="16.5,-46.5 217.5,-46.5 "/>
<text text-anchor="middle" x="117" y="-35.3" font-family="Times,serif" font-size="14.00">empty(X₂)</text>
<polyline fill="none" stroke="#7f7542" points="16.5,-31.5 217.5,-31.5 "/>
<text text-anchor="middle" x="117" y="-20.3" font-family="Times,serif" font-size="14.00">void(X₂)</text>
</a>
</g>
</g>
<!-- fraenkel_a_2_3_matroid0&#45;&gt;c_0_20 -->
<g id="edge1" class="edge">
<title>fraenkel_a_2_3_matroid0&#45;&gt;c_0_20</title>
<path fill="none" stroke="black" d="M117,-248.37C117,-248.37 117,-221.62 117,-221.62"/>
<polygon fill="black" stroke="black" points="120.5,-221.62 117,-211.62 113.5,-221.62 120.5,-221.62"/>
</g>
</g>
</svg>
