<?xml version="1.0" encoding="UTF-8" standalone="no"?>
<!DOCTYPE svg PUBLIC "-//W3C//DTD SVG 1.1//EN"
 "http://www.w3.org/Graphics/SVG/1.1/DTD/svg11.dtd">
<!-- Generated by graphviz version 5.0.0 (0)
 -->
<!-- Title: proof Pages: 1 -->
<svg width="914pt" height="370pt"
 viewBox="0.00 0.00 914.00 370.00" xmlns="http://www.w3.org/2000/svg" xmlns:xlink="http://www.w3.org/1999/xlink">
<g id="graph0" class="graph" transform="scale(1 1) rotate(0) translate(4 366)">
<title>proof</title>
<g id="clust1" class="cluster">
<title>cluster_0</title>
<polygon fill="transparent" stroke="black" stroke-dasharray="1,5" points="419,-322 419,-354 545,-354 545,-322 419,-322"/>
</g>
<g id="clust2" class="cluster">
<title>cluster_1</title>
<polygon fill="transparent" stroke="black" stroke-width="2" points="340,-165 340,-302 624,-302 624,-165 340,-165"/>
</g>
<g id="clust3" class="cluster">
<title>cluster_2</title>
<polygon fill="transparent" stroke="black" stroke-dasharray="1,5" points="8,-8 8,-145 898,-145 898,-8 8,-8"/>
</g>
<!-- dt_k3_valued_1 -->
<g id="node1" class="node">
<title>dt_k3_valued_1</title>
<g id="a_node1"><a xlink:href="dt_k3_valued_1.html" xlink:title="dt_k3_valued_1" target="_vizar">
<polygon fill="#69d2e7" stroke="#7f7542" points="427.5,-330.5 427.5,-345.5 536.5,-345.5 536.5,-330.5 427.5,-330.5"/>
<text text-anchor="middle" x="482" y="-334.3" font-family="Times,serif" font-size="14.00">dt_k3_valued_1</text>
</a>
</g>
</g>
<!-- c_0_142 -->
<g id="node2" class="node">
<title>c_0_142</title>
<g id="a_node2"><a xlink:href="c_0_142.html" xlink:title="{X₂ ⊆ ℝ|X₃ ⊆ ℝ|X₄ ∈ bool(X₁ × X₂)|X₅ ∈ bool(X₁ × X₃)|function(X₄)|function(X₅)|⇊|X₁ + X₂ + X₃ + X₄ + X₅ ∈ bool(X₁ × ℝ)}" target="_vizar">
<polygon fill="#f8edd1" stroke="#7f7542" points="348,-173.5 348,-293.5 616,-293.5 616,-173.5 348,-173.5"/>
<text text-anchor="middle" x="482" y="-282.3" font-family="Times,serif" font-size="14.00">X₂ ⊆ ℝ</text>
<polyline fill="none" stroke="#7f7542" points="348,-278.5 616,-278.5 "/>
<text text-anchor="middle" x="482" y="-267.3" font-family="Times,serif" font-size="14.00">X₃ ⊆ ℝ</text>
<polyline fill="none" stroke="#7f7542" points="348,-263.5 616,-263.5 "/>
<text text-anchor="middle" x="482" y="-252.3" font-family="Times,serif" font-size="14.00">X₄ ∈ bool(X₁ × X₂)</text>
<polyline fill="none" stroke="#7f7542" points="348,-248.5 616,-248.5 "/>
<text text-anchor="middle" x="482" y="-237.3" font-family="Times,serif" font-size="14.00">X₅ ∈ bool(X₁ × X₃)</text>
<polyline fill="none" stroke="#7f7542" points="348,-233.5 616,-233.5 "/>
<text text-anchor="middle" x="482" y="-222.3" font-family="Times,serif" font-size="14.00">function(X₄)</text>
<polyline fill="none" stroke="#7f7542" points="348,-218.5 616,-218.5 "/>
<text text-anchor="middle" x="482" y="-207.3" font-family="Times,serif" font-size="14.00">function(X₅)</text>
<polyline fill="none" stroke="#7f7542" points="348,-203.5 616,-203.5 "/>
<text text-anchor="middle" x="482" y="-192.3" font-family="Times,serif" font-size="14.00">⇊</text>
<polyline fill="none" stroke="#7f7542" points="348,-188.5 616,-188.5 "/>
<text text-anchor="middle" x="482" y="-177.3" font-family="Times,serif" font-size="14.00">X₁ + X₂ + X₃ + X₄ + X₅ ∈ bool(X₁ × ℝ)</text>
</a>
</g>
</g>
<!-- dt_k3_valued_1&#45;&gt;c_0_142 -->
<g id="edge1" class="edge">
<title>dt_k3_valued_1&#45;&gt;c_0_142</title>
<path fill="none" stroke="black" d="M482,-330.48C482,-330.48 482,-303.59 482,-303.59"/>
<polygon fill="black" stroke="black" points="485.5,-303.59 482,-293.59 478.5,-303.6 485.5,-303.59"/>
</g>
<!-- c_0_145 -->
<g id="node3" class="node">
<title>c_0_145</title>
<g id="a_node3"><a xlink:href="c_0_145.html" xlink:title="{X₂ ⊆ ℝ|X₃ ⊆ ℝ|X₄ ∈ bool(X₁ × X₂)|X₅ ∈ bool(X₁ × X₃)|function(X₄)|function(X₅)|⇊|real&#45;valued(X₁ + X₂ + X₃ + X₄ + X₅)}" target="_vizar">
<polygon fill="#f8edd1" stroke="#7f7542" points="640,-16.5 640,-136.5 890,-136.5 890,-16.5 640,-16.5"/>
<text text-anchor="middle" x="765" y="-125.3" font-family="Times,serif" font-size="14.00">X₂ ⊆ ℝ</text>
<polyline fill="none" stroke="#7f7542" points="640,-121.5 890,-121.5 "/>
<text text-anchor="middle" x="765" y="-110.3" font-family="Times,serif" font-size="14.00">X₃ ⊆ ℝ</text>
<polyline fill="none" stroke="#7f7542" points="640,-106.5 890,-106.5 "/>
<text text-anchor="middle" x="765" y="-95.3" font-family="Times,serif" font-size="14.00">X₄ ∈ bool(X₁ × X₂)</text>
<polyline fill="none" stroke="#7f7542" points="640,-91.5 890,-91.5 "/>
<text text-anchor="middle" x="765" y="-80.3" font-family="Times,serif" font-size="14.00">X₅ ∈ bool(X₁ × X₃)</text>
<polyline fill="none" stroke="#7f7542" points="640,-76.5 890,-76.5 "/>
<text text-anchor="middle" x="765" y="-65.3" font-family="Times,serif" font-size="14.00">function(X₄)</text>
<polyline fill="none" stroke="#7f7542" points="640,-61.5 890,-61.5 "/>
<text text-anchor="middle" x="765" y="-50.3" font-family="Times,serif" font-size="14.00">function(X₅)</text>
<polyline fill="none" stroke="#7f7542" points="640,-46.5 890,-46.5 "/>
<text text-anchor="middle" x="765" y="-35.3" font-family="Times,serif" font-size="14.00">⇊</text>
<polyline fill="none" stroke="#7f7542" points="640,-31.5 890,-31.5 "/>
<text text-anchor="middle" x="765" y="-20.3" font-family="Times,serif" font-size="14.00">real&#45;valued(X₁ + X₂ + X₃ + X₄ + X₅)</text>
</a>
</g>
</g>
<!-- c_0_142&#45;&gt;c_0_145 -->
<g id="edge2" class="edge">
<title>c_0_142&#45;&gt;c_0_145</title>
<path fill="none" stroke="black" stroke-dasharray="5,2" d="M526.67,-173.38C526.67,-145.32 526.67,-118 526.67,-118 526.67,-118 629.9,-118 629.9,-118"/>
<polygon fill="black" stroke="black" points="629.9,-121.5 639.9,-118 629.9,-114.5 629.9,-121.5"/>
</g>
<!-- c_0_153 -->
<g id="node4" class="node">
<title>c_0_153</title>
<g id="a_node4"><a xlink:href="c_0_153.html" xlink:title="{function(ℝ + ℝ + ℝ + arctan + arccot)|⇊|sk₂ ∈ sk₁}" target="_vizar">
<polygon fill="#fa6900" stroke="#7f7542" points="342,-54 342,-99 622,-99 622,-54 342,-54"/>
<text text-anchor="middle" x="482" y="-87.8" font-family="Times,serif" font-size="14.00">function(ℝ + ℝ + ℝ + arctan + arccot)</text>
<polyline fill="none" stroke="#7f7542" points="342,-84 622,-84 "/>
<text text-anchor="middle" x="482" y="-72.8" font-family="Times,serif" font-size="14.00">⇊</text>
<polyline fill="none" stroke="#7f7542" points="342,-69 622,-69 "/>
<text text-anchor="middle" x="482" y="-57.8" font-family="Times,serif" font-size="14.00">sk₂ ∈ sk₁</text>
</a>
</g>
</g>
<!-- c_0_142&#45;&gt;c_0_153 -->
<g id="edge3" class="edge">
<title>c_0_142&#45;&gt;c_0_153</title>
<path fill="none" stroke="black" stroke-dasharray="5,2" d="M437.33,-173.25C437.33,-173.25 437.33,-109.18 437.33,-109.18"/>
<polygon fill="black" stroke="black" points="440.83,-109.18 437.33,-99.18 433.83,-109.18 440.83,-109.18"/>
</g>
<!-- c_0_161 -->
<g id="node5" class="node">
<title>c_0_161</title>
<g id="a_node5"><a xlink:href="c_0_161.html" xlink:title="{¬ (function(ℝ + ℝ + ℝ + arctan + arccot))}" target="_vizar">
<polygon fill="#fa6900" stroke="#7f7542" points="16.5,-69 16.5,-84 323.5,-84 323.5,-69 16.5,-69"/>
<text text-anchor="middle" x="170" y="-72.8" font-family="Times,serif" font-size="14.00">¬ (function(ℝ + ℝ + ℝ + arctan + arccot))</text>
</a>
</g>
</g>
<!-- c_0_142&#45;&gt;c_0_161 -->
<g id="edge4" class="edge">
<title>c_0_142&#45;&gt;c_0_161</title>
<path fill="none" stroke="black" stroke-dasharray="5,2" d="M347.87,-233C263.31,-233 170,-233 170,-233 170,-233 170,-94.05 170,-94.05"/>
<polygon fill="black" stroke="black" points="173.5,-94.05 170,-84.05 166.5,-94.05 173.5,-94.05"/>
</g>
</g>
</svg>
