<?xml version="1.0" encoding="UTF-8" standalone="no"?>
<!DOCTYPE svg PUBLIC "-//W3C//DTD SVG 1.1//EN"
 "http://www.w3.org/Graphics/SVG/1.1/DTD/svg11.dtd">
<!-- Generated by graphviz version 5.0.0 (0)
 -->
<!-- Title: proof Pages: 1 -->
<svg width="1310pt" height="265pt"
 viewBox="0.00 0.00 1310.00 265.00" xmlns="http://www.w3.org/2000/svg" xmlns:xlink="http://www.w3.org/1999/xlink">
<g id="graph0" class="graph" transform="scale(1 1) rotate(0) translate(4 261)">
<title>proof</title>
<g id="clust1" class="cluster">
<title>cluster_0</title>
<polygon fill="transparent" stroke="black" stroke-dasharray="1,5" points="8,-112 8,-249 1294,-249 1294,-112 8,-112"/>
</g>
<g id="clust2" class="cluster">
<title>cluster_1</title>
<polygon fill="transparent" stroke="black" stroke-width="2" points="295,-60 295,-92 619,-92 619,-60 295,-60"/>
</g>
<g id="clust3" class="cluster">
<title>cluster_2</title>
<polygon fill="transparent" stroke="black" stroke-dasharray="1,5" points="442,-8 442,-40 472,-40 472,-8 442,-8"/>
</g>
<!-- c_0_160 -->
<g id="node1" class="node">
<title>c_0_160</title>
<g id="a_node1"><a xlink:href="c_0_160.html" xlink:title="{function(ℝ + ℝ + ℝ + arctan + arccot)|ℝ + ℝ + ℝ + arctan + arccot ∈ bool(ℝ × ℝ)|⇊|⊥}" target="_parent">
<polygon fill="#fa6900" stroke="#7f7542" points="970,-150.5 970,-210.5 1286,-210.5 1286,-150.5 970,-150.5"/>
<text text-anchor="middle" x="1128" y="-199.3" font-family="Times,serif" font-size="14.00">function(ℝ + ℝ + ℝ + arctan + arccot)</text>
<polyline fill="none" stroke="#7f7542" points="970,-195.5 1286,-195.5 "/>
<text text-anchor="middle" x="1128" y="-184.3" font-family="Times,serif" font-size="14.00">ℝ + ℝ + ℝ + arctan + arccot ∈ bool(ℝ × ℝ)</text>
<polyline fill="none" stroke="#7f7542" points="970,-180.5 1286,-180.5 "/>
<text text-anchor="middle" x="1128" y="-169.3" font-family="Times,serif" font-size="14.00">⇊</text>
<polyline fill="none" stroke="#7f7542" points="970,-165.5 1286,-165.5 "/>
<text text-anchor="middle" x="1128" y="-154.3" font-family="Times,serif" font-size="14.00">⊥</text>
</a>
</g>
</g>
<!-- c_0_161 -->
<g id="node8" class="node">
<title>c_0_161</title>
<g id="a_node8"><a xlink:href="c_0_161.html" xlink:title="{¬ (function(ℝ + ℝ + ℝ + arctan + arccot))}" target="_parent">
<polygon fill="#fa6900" stroke="#7f7542" points="303.5,-68.5 303.5,-83.5 610.5,-83.5 610.5,-68.5 303.5,-68.5"/>
<text text-anchor="middle" x="457" y="-72.3" font-family="Times,serif" font-size="14.00">¬ (function(ℝ + ℝ + ℝ + arctan + arccot))</text>
</a>
</g>
</g>
<!-- c_0_160&#45;&gt;c_0_161 -->
<g id="edge1" class="edge">
<title>c_0_160&#45;&gt;c_0_161</title>
<path fill="none" stroke="black" d="M1128,-150.27C1128,-118.47 1128,-73 1128,-73 1128,-73 620.52,-73 620.52,-73"/>
<polygon fill="black" stroke="black" points="620.52,-69.5 610.52,-73 620.52,-76.5 620.52,-69.5"/>
</g>
<!-- c_0_147 -->
<g id="node2" class="node">
<title>c_0_147</title>
<g id="a_node2"><a xlink:href="c_0_147.html" xlink:title="{function(arctan)}" target="_parent">
<polygon fill="#f8edd1" stroke="#7f7542" points="836.5,-173 836.5,-188 951.5,-188 951.5,-173 836.5,-173"/>
<text text-anchor="middle" x="894" y="-176.8" font-family="Times,serif" font-size="14.00">function(arctan)</text>
</a>
</g>
</g>
<!-- c_0_147&#45;&gt;c_0_161 -->
<g id="edge2" class="edge">
<title>c_0_147&#45;&gt;c_0_161</title>
<path fill="none" stroke="black" d="M894,-172.8C894,-148.96 894,-78 894,-78 894,-78 620.76,-78 620.76,-78"/>
<polygon fill="black" stroke="black" points="620.76,-74.5 610.76,-78 620.76,-81.5 620.76,-74.5"/>
</g>
<!-- c_0_142 -->
<g id="node3" class="node">
<title>c_0_142</title>
<g id="a_node3"><a xlink:href="c_0_142.html" xlink:title="{X₂ ⊆ ℝ|X₃ ⊆ ℝ|X₄ ∈ bool(X₁ × X₂)|X₅ ∈ bool(X₁ × X₃)|function(X₄)|function(X₅)|⇊|X₁ + X₂ + X₃ + X₄ + X₅ ∈ bool(X₁ × ℝ)}" target="_parent">
<polygon fill="#f8edd1" stroke="#7f7542" points="550,-120.5 550,-240.5 818,-240.5 818,-120.5 550,-120.5"/>
<text text-anchor="middle" x="684" y="-229.3" font-family="Times,serif" font-size="14.00">X₂ ⊆ ℝ</text>
<polyline fill="none" stroke="#7f7542" points="550,-225.5 818,-225.5 "/>
<text text-anchor="middle" x="684" y="-214.3" font-family="Times,serif" font-size="14.00">X₃ ⊆ ℝ</text>
<polyline fill="none" stroke="#7f7542" points="550,-210.5 818,-210.5 "/>
<text text-anchor="middle" x="684" y="-199.3" font-family="Times,serif" font-size="14.00">X₄ ∈ bool(X₁ × X₂)</text>
<polyline fill="none" stroke="#7f7542" points="550,-195.5 818,-195.5 "/>
<text text-anchor="middle" x="684" y="-184.3" font-family="Times,serif" font-size="14.00">X₅ ∈ bool(X₁ × X₃)</text>
<polyline fill="none" stroke="#7f7542" points="550,-180.5 818,-180.5 "/>
<text text-anchor="middle" x="684" y="-169.3" font-family="Times,serif" font-size="14.00">function(X₄)</text>
<polyline fill="none" stroke="#7f7542" points="550,-165.5 818,-165.5 "/>
<text text-anchor="middle" x="684" y="-154.3" font-family="Times,serif" font-size="14.00">function(X₅)</text>
<polyline fill="none" stroke="#7f7542" points="550,-150.5 818,-150.5 "/>
<text text-anchor="middle" x="684" y="-139.3" font-family="Times,serif" font-size="14.00">⇊</text>
<polyline fill="none" stroke="#7f7542" points="550,-135.5 818,-135.5 "/>
<text text-anchor="middle" x="684" y="-124.3" font-family="Times,serif" font-size="14.00">X₁ + X₂ + X₃ + X₄ + X₅ ∈ bool(X₁ × ℝ)</text>
</a>
</g>
</g>
<!-- c_0_142&#45;&gt;c_0_161 -->
<g id="edge3" class="edge">
<title>c_0_142&#45;&gt;c_0_161</title>
<path fill="none" stroke="black" d="M580.25,-120.32C580.25,-120.32 580.25,-93.59 580.25,-93.59"/>
<polygon fill="black" stroke="black" points="583.75,-93.59 580.25,-83.59 576.75,-93.59 583.75,-93.59"/>
</g>
<!-- c_0_148 -->
<g id="node4" class="node">
<title>c_0_148</title>
<g id="a_node4"><a xlink:href="c_0_148.html" xlink:title="{arccot ∈ bool(ℝ × ℝ)}" target="_parent">
<polygon fill="#f8edd1" stroke="#7f7542" points="382,-173 382,-188 532,-188 532,-173 382,-173"/>
<text text-anchor="middle" x="457" y="-176.8" font-family="Times,serif" font-size="14.00">arccot ∈ bool(ℝ × ℝ)</text>
</a>
</g>
</g>
<!-- c_0_148&#45;&gt;c_0_161 -->
<g id="edge4" class="edge">
<title>c_0_148&#45;&gt;c_0_161</title>
<path fill="none" stroke="black" d="M457,-172.98C457,-172.98 457,-93.73 457,-93.73"/>
<polygon fill="black" stroke="black" points="460.5,-93.73 457,-83.73 453.5,-93.73 460.5,-93.73"/>
</g>
<!-- c_0_146 -->
<g id="node5" class="node">
<title>c_0_146</title>
<g id="a_node5"><a xlink:href="c_0_146.html" xlink:title="{function(arccot)}" target="_parent">
<polygon fill="#f8edd1" stroke="#7f7542" points="250,-173 250,-188 364,-188 364,-173 250,-173"/>
<text text-anchor="middle" x="307" y="-176.8" font-family="Times,serif" font-size="14.00">function(arccot)</text>
</a>
</g>
</g>
<!-- c_0_146&#45;&gt;c_0_161 -->
<g id="edge5" class="edge">
<title>c_0_146&#45;&gt;c_0_161</title>
<path fill="none" stroke="black" d="M333.75,-172.98C333.75,-172.98 333.75,-93.73 333.75,-93.73"/>
<polygon fill="black" stroke="black" points="337.25,-93.73 333.75,-83.73 330.25,-93.73 337.25,-93.73"/>
</g>
<!-- c_0_68 -->
<g id="node6" class="node">
<title>c_0_68</title>
<g id="a_node6"><a xlink:href="c_0_68.html" xlink:title="{ℝ ⊆ ℝ}" target="_parent">
<polygon fill="#f8edd1" stroke="#7f7542" points="186,-173 186,-188 232,-188 232,-173 186,-173"/>
<text text-anchor="middle" x="209" y="-176.8" font-family="Times,serif" font-size="14.00">ℝ ⊆ ℝ</text>
</a>
</g>
</g>
<!-- c_0_68&#45;&gt;c_0_161 -->
<g id="edge6" class="edge">
<title>c_0_68&#45;&gt;c_0_161</title>
<path fill="none" stroke="black" d="M209,-172.8C209,-148.96 209,-78 209,-78 209,-78 293.47,-78 293.47,-78"/>
<polygon fill="black" stroke="black" points="293.47,-81.5 303.47,-78 293.47,-74.5 293.47,-81.5"/>
</g>
<!-- c_0_149 -->
<g id="node7" class="node">
<title>c_0_149</title>
<g id="a_node7"><a xlink:href="c_0_149.html" xlink:title="{arctan ∈ bool(ℝ × ℝ)}" target="_parent">
<polygon fill="#f8edd1" stroke="#7f7542" points="16.5,-173 16.5,-188 167.5,-188 167.5,-173 16.5,-173"/>
<text text-anchor="middle" x="92" y="-176.8" font-family="Times,serif" font-size="14.00">arctan ∈ bool(ℝ × ℝ)</text>
</a>
</g>
</g>
<!-- c_0_149&#45;&gt;c_0_161 -->
<g id="edge7" class="edge">
<title>c_0_149&#45;&gt;c_0_161</title>
<path fill="none" stroke="black" d="M92,-172.77C92,-148.12 92,-73 92,-73 92,-73 293.27,-73 293.27,-73"/>
<polygon fill="black" stroke="black" points="293.27,-76.5 303.27,-73 293.26,-69.5 293.27,-76.5"/>
</g>
<!-- c_0_162 -->
<g id="node9" class="node">
<title>c_0_162</title>
<g id="a_node9"><a xlink:href="c_0_162.html" xlink:title="⊥" target="_parent">
<polygon fill="#fa6900" stroke="#7f7542" points="450,-16.5 450,-31.5 464,-31.5 464,-16.5 450,-16.5"/>
<text text-anchor="middle" x="457" y="-20.3" font-family="Times,serif" font-size="14.00">⊥</text>
</a>
</g>
</g>
<!-- c_0_161&#45;&gt;c_0_162 -->
<g id="edge8" class="edge">
<title>c_0_161&#45;&gt;c_0_162</title>
<path fill="none" stroke="black" stroke-dasharray="5,2" d="M457,-68.33C457,-68.33 457,-41.7 457,-41.7"/>
<polygon fill="black" stroke="black" points="460.5,-41.7 457,-31.7 453.5,-41.7 460.5,-41.7"/>
</g>
</g>
</svg>
