<?xml version="1.0" encoding="UTF-8" standalone="no"?>
<!DOCTYPE svg PUBLIC "-//W3C//DTD SVG 1.1//EN"
 "http://www.w3.org/Graphics/SVG/1.1/DTD/svg11.dtd">
<!-- Generated by graphviz version 5.0.0 (0)
 -->
<!-- Title: proof Pages: 1 -->
<svg width="690pt" height="415pt"
 viewBox="0.00 0.00 690.00 415.00" xmlns="http://www.w3.org/2000/svg" xmlns:xlink="http://www.w3.org/1999/xlink">
<g id="graph0" class="graph" transform="scale(1 1) rotate(0) translate(4 411)">
<title>proof</title>
<g id="clust1" class="cluster">
<title>cluster_0</title>
<polygon fill="transparent" stroke="black" stroke-dasharray="1,5" points="109,-262 109,-399 603,-399 603,-262 109,-262"/>
</g>
<g id="clust2" class="cluster">
<title>cluster_1</title>
<polygon fill="transparent" stroke="black" stroke-width="2" points="112,-105 112,-242 378,-242 378,-105 112,-105"/>
</g>
<g id="clust3" class="cluster">
<title>cluster_2</title>
<polygon fill="transparent" stroke="black" stroke-dasharray="1,5" points="8,-8 8,-85 674,-85 674,-8 8,-8"/>
</g>
<!-- c_0_142 -->
<g id="node1" class="node">
<title>c_0_142</title>
<g id="a_node1"><a xlink:href="c_0_142.html" xlink:title="{X₂ ⊆ ℝ|X₃ ⊆ ℝ|X₄ ∈ bool(X₁ × X₂)|X₅ ∈ bool(X₁ × X₃)|function(X₄)|function(X₅)|⇊|X₁ + X₂ + X₃ + X₄ + X₅ ∈ bool(X₁ × ℝ)}" target="_vizar">
<polygon fill="#f8edd1" stroke="#7f7542" points="327,-270.5 327,-390.5 595,-390.5 595,-270.5 327,-270.5"/>
<text text-anchor="middle" x="461" y="-379.3" font-family="Times,serif" font-size="14.00">X₂ ⊆ ℝ</text>
<polyline fill="none" stroke="#7f7542" points="327,-375.5 595,-375.5 "/>
<text text-anchor="middle" x="461" y="-364.3" font-family="Times,serif" font-size="14.00">X₃ ⊆ ℝ</text>
<polyline fill="none" stroke="#7f7542" points="327,-360.5 595,-360.5 "/>
<text text-anchor="middle" x="461" y="-349.3" font-family="Times,serif" font-size="14.00">X₄ ∈ bool(X₁ × X₂)</text>
<polyline fill="none" stroke="#7f7542" points="327,-345.5 595,-345.5 "/>
<text text-anchor="middle" x="461" y="-334.3" font-family="Times,serif" font-size="14.00">X₅ ∈ bool(X₁ × X₃)</text>
<polyline fill="none" stroke="#7f7542" points="327,-330.5 595,-330.5 "/>
<text text-anchor="middle" x="461" y="-319.3" font-family="Times,serif" font-size="14.00">function(X₄)</text>
<polyline fill="none" stroke="#7f7542" points="327,-315.5 595,-315.5 "/>
<text text-anchor="middle" x="461" y="-304.3" font-family="Times,serif" font-size="14.00">function(X₅)</text>
<polyline fill="none" stroke="#7f7542" points="327,-300.5 595,-300.5 "/>
<text text-anchor="middle" x="461" y="-289.3" font-family="Times,serif" font-size="14.00">⇊</text>
<polyline fill="none" stroke="#7f7542" points="327,-285.5 595,-285.5 "/>
<text text-anchor="middle" x="461" y="-274.3" font-family="Times,serif" font-size="14.00">X₁ + X₂ + X₃ + X₄ + X₅ ∈ bool(X₁ × ℝ)</text>
</a>
</g>
</g>
<!-- c_0_145 -->
<g id="node4" class="node">
<title>c_0_145</title>
<g id="a_node4"><a xlink:href="c_0_145.html" xlink:title="{X₂ ⊆ ℝ|X₃ ⊆ ℝ|X₄ ∈ bool(X₁ × X₂)|X₅ ∈ bool(X₁ × X₃)|function(X₄)|function(X₅)|⇊|real&#45;valued(X₁ + X₂ + X₃ + X₄ + X₅)}" target="_vizar">
<polygon fill="#f8edd1" stroke="#7f7542" points="120,-113.5 120,-233.5 370,-233.5 370,-113.5 120,-113.5"/>
<text text-anchor="middle" x="245" y="-222.3" font-family="Times,serif" font-size="14.00">X₂ ⊆ ℝ</text>
<polyline fill="none" stroke="#7f7542" points="120,-218.5 370,-218.5 "/>
<text text-anchor="middle" x="245" y="-207.3" font-family="Times,serif" font-size="14.00">X₃ ⊆ ℝ</text>
<polyline fill="none" stroke="#7f7542" points="120,-203.5 370,-203.5 "/>
<text text-anchor="middle" x="245" y="-192.3" font-family="Times,serif" font-size="14.00">X₄ ∈ bool(X₁ × X₂)</text>
<polyline fill="none" stroke="#7f7542" points="120,-188.5 370,-188.5 "/>
<text text-anchor="middle" x="245" y="-177.3" font-family="Times,serif" font-size="14.00">X₅ ∈ bool(X₁ × X₃)</text>
<polyline fill="none" stroke="#7f7542" points="120,-173.5 370,-173.5 "/>
<text text-anchor="middle" x="245" y="-162.3" font-family="Times,serif" font-size="14.00">function(X₄)</text>
<polyline fill="none" stroke="#7f7542" points="120,-158.5 370,-158.5 "/>
<text text-anchor="middle" x="245" y="-147.3" font-family="Times,serif" font-size="14.00">function(X₅)</text>
<polyline fill="none" stroke="#7f7542" points="120,-143.5 370,-143.5 "/>
<text text-anchor="middle" x="245" y="-132.3" font-family="Times,serif" font-size="14.00">⇊</text>
<polyline fill="none" stroke="#7f7542" points="120,-128.5 370,-128.5 "/>
<text text-anchor="middle" x="245" y="-117.3" font-family="Times,serif" font-size="14.00">real&#45;valued(X₁ + X₂ + X₃ + X₄ + X₅)</text>
</a>
</g>
</g>
<!-- c_0_142&#45;&gt;c_0_145 -->
<g id="edge1" class="edge">
<title>c_0_142&#45;&gt;c_0_145</title>
<path fill="none" stroke="black" d="M348.5,-270.25C348.5,-270.25 348.5,-243.59 348.5,-243.59"/>
<polygon fill="black" stroke="black" points="352,-243.59 348.5,-233.59 345,-243.59 352,-243.59"/>
</g>
<!-- c_0_141 -->
<g id="node2" class="node">
<title>c_0_141</title>
<g id="a_node2"><a xlink:href="c_0_141.html" xlink:title="{X₁ ⊆ ℝ|X₂ ∈ bool(X₃ × X₁)|⇊|real&#45;valued(X₂)}" target="_vizar">
<polygon fill="#f8edd1" stroke="#7f7542" points="181.5,-300.5 181.5,-360.5 308.5,-360.5 308.5,-300.5 181.5,-300.5"/>
<text text-anchor="middle" x="245" y="-349.3" font-family="Times,serif" font-size="14.00">X₁ ⊆ ℝ</text>
<polyline fill="none" stroke="#7f7542" points="181.5,-345.5 308.5,-345.5 "/>
<text text-anchor="middle" x="245" y="-334.3" font-family="Times,serif" font-size="14.00">X₂ ∈ bool(X₃ × X₁)</text>
<polyline fill="none" stroke="#7f7542" points="181.5,-330.5 308.5,-330.5 "/>
<text text-anchor="middle" x="245" y="-319.3" font-family="Times,serif" font-size="14.00">⇊</text>
<polyline fill="none" stroke="#7f7542" points="181.5,-315.5 308.5,-315.5 "/>
<text text-anchor="middle" x="245" y="-304.3" font-family="Times,serif" font-size="14.00">real&#45;valued(X₂)</text>
</a>
</g>
</g>
<!-- c_0_141&#45;&gt;c_0_145 -->
<g id="edge2" class="edge">
<title>c_0_141&#45;&gt;c_0_145</title>
<path fill="none" stroke="black" d="M245,-300.23C245,-300.23 245,-243.58 245,-243.58"/>
<polygon fill="black" stroke="black" points="248.5,-243.58 245,-233.58 241.5,-243.58 248.5,-243.58"/>
</g>
<!-- c_0_68 -->
<g id="node3" class="node">
<title>c_0_68</title>
<g id="a_node3"><a xlink:href="c_0_68.html" xlink:title="{ℝ ⊆ ℝ}" target="_vizar">
<polygon fill="#f8edd1" stroke="#7f7542" points="117,-323 117,-338 163,-338 163,-323 117,-323"/>
<text text-anchor="middle" x="140" y="-326.8" font-family="Times,serif" font-size="14.00">ℝ ⊆ ℝ</text>
</a>
</g>
</g>
<!-- c_0_68&#45;&gt;c_0_145 -->
<g id="edge3" class="edge">
<title>c_0_68&#45;&gt;c_0_145</title>
<path fill="none" stroke="black" d="M141.5,-322.93C141.5,-322.93 141.5,-243.72 141.5,-243.72"/>
<polygon fill="black" stroke="black" points="145,-243.72 141.5,-233.72 138,-243.72 145,-243.72"/>
</g>
<!-- c_0_151 -->
<g id="node5" class="node">
<title>c_0_151</title>
<g id="a_node5"><a xlink:href="c_0_151.html" xlink:title="{function(ℝ + ℝ + ℝ + arctan + arccot)|ℝ + ℝ + ℝ + arctan + arccot ∈ bool(ℝ × ℝ)|⇊|sk₂ ∈ sk₁}" target="_vizar">
<polygon fill="#fa6900" stroke="#7f7542" points="350,-16.5 350,-76.5 666,-76.5 666,-16.5 350,-16.5"/>
<text text-anchor="middle" x="508" y="-65.3" font-family="Times,serif" font-size="14.00">function(ℝ + ℝ + ℝ + arctan + arccot)</text>
<polyline fill="none" stroke="#7f7542" points="350,-61.5 666,-61.5 "/>
<text text-anchor="middle" x="508" y="-50.3" font-family="Times,serif" font-size="14.00">ℝ + ℝ + ℝ + arctan + arccot ∈ bool(ℝ × ℝ)</text>
<polyline fill="none" stroke="#7f7542" points="350,-46.5 666,-46.5 "/>
<text text-anchor="middle" x="508" y="-35.3" font-family="Times,serif" font-size="14.00">⇊</text>
<polyline fill="none" stroke="#7f7542" points="350,-31.5 666,-31.5 "/>
<text text-anchor="middle" x="508" y="-20.3" font-family="Times,serif" font-size="14.00">sk₂ ∈ sk₁</text>
</a>
</g>
</g>
<!-- c_0_145&#45;&gt;c_0_151 -->
<g id="edge4" class="edge">
<title>c_0_145&#45;&gt;c_0_151</title>
<path fill="none" stroke="black" stroke-dasharray="5,2" d="M360,-113.35C360,-113.35 360,-86.76 360,-86.76"/>
<polygon fill="black" stroke="black" points="363.5,-86.76 360,-76.76 356.5,-86.76 363.5,-86.76"/>
</g>
<!-- c_0_160 -->
<g id="node6" class="node">
<title>c_0_160</title>
<g id="a_node6"><a xlink:href="c_0_160.html" xlink:title="{function(ℝ + ℝ + ℝ + arctan + arccot)|ℝ + ℝ + ℝ + arctan + arccot ∈ bool(ℝ × ℝ)|⇊|⊥}" target="_vizar">
<polygon fill="#fa6900" stroke="#7f7542" points="16,-16.5 16,-76.5 332,-76.5 332,-16.5 16,-16.5"/>
<text text-anchor="middle" x="174" y="-65.3" font-family="Times,serif" font-size="14.00">function(ℝ + ℝ + ℝ + arctan + arccot)</text>
<polyline fill="none" stroke="#7f7542" points="16,-61.5 332,-61.5 "/>
<text text-anchor="middle" x="174" y="-50.3" font-family="Times,serif" font-size="14.00">ℝ + ℝ + ℝ + arctan + arccot ∈ bool(ℝ × ℝ)</text>
<polyline fill="none" stroke="#7f7542" points="16,-46.5 332,-46.5 "/>
<text text-anchor="middle" x="174" y="-35.3" font-family="Times,serif" font-size="14.00">⇊</text>
<polyline fill="none" stroke="#7f7542" points="16,-31.5 332,-31.5 "/>
<text text-anchor="middle" x="174" y="-20.3" font-family="Times,serif" font-size="14.00">⊥</text>
</a>
</g>
</g>
<!-- c_0_145&#45;&gt;c_0_160 -->
<g id="edge5" class="edge">
<title>c_0_145&#45;&gt;c_0_160</title>
<path fill="none" stroke="black" stroke-dasharray="5,2" d="M226,-113.35C226,-113.35 226,-86.76 226,-86.76"/>
<polygon fill="black" stroke="black" points="229.5,-86.76 226,-76.76 222.5,-86.76 229.5,-86.76"/>
</g>
</g>
</svg>
