<?xml version="1.0" encoding="UTF-8" standalone="no"?>
<!DOCTYPE svg PUBLIC "-//W3C//DTD SVG 1.1//EN"
 "http://www.w3.org/Graphics/SVG/1.1/DTD/svg11.dtd">
<!-- Generated by graphviz version 5.0.0 (0)
 -->
<!-- Title: proof Pages: 1 -->
<svg width="208pt" height="160pt"
 viewBox="0.00 0.00 208.00 160.00" xmlns="http://www.w3.org/2000/svg" xmlns:xlink="http://www.w3.org/1999/xlink">
<g id="graph0" class="graph" transform="scale(1 1) rotate(0) translate(4 156)">
<title>proof</title>
<g id="clust1" class="cluster">
<title>cluster_0</title>
<polygon fill="transparent" stroke="black" stroke-dasharray="1,5" points="8,-112 8,-144 192,-144 192,-112 8,-112"/>
</g>
<g id="clust2" class="cluster">
<title>cluster_1</title>
<polygon fill="transparent" stroke="black" stroke-width="2" points="69,-60 69,-92 127,-92 127,-60 69,-60"/>
</g>
<g id="clust3" class="cluster">
<title>cluster_2</title>
<polygon fill="transparent" stroke="black" stroke-dasharray="1,5" points="69,-8 69,-40 127,-40 127,-8 69,-8"/>
</g>
<!-- c_0_65 -->
<g id="node1" class="node">
<title>c_0_65</title>
<g id="a_node1"><a xlink:href="c_0_65.html" xlink:title="{ℕ = ω}" target="_vizar">
<polygon fill="#f8edd1" stroke="#7f7542" points="138,-120.5 138,-135.5 184,-135.5 184,-120.5 138,-120.5"/>
<text text-anchor="middle" x="161" y="-124.3" font-family="Times,serif" font-size="14.00">ℕ = ω</text>
</a>
</g>
</g>
<!-- c_0_92 -->
<g id="node4" class="node">
<title>c_0_92</title>
<g id="a_node4"><a xlink:href="c_0_92.html" xlink:title="{0 ∈ ℕ}" target="_vizar">
<polygon fill="#f8edd1" stroke="#7f7542" points="77,-68.5 77,-83.5 119,-83.5 119,-68.5 77,-68.5"/>
<text text-anchor="middle" x="98" y="-72.3" font-family="Times,serif" font-size="14.00">0 ∈ ℕ</text>
</a>
</g>
</g>
<!-- c_0_65&#45;&gt;c_0_92 -->
<g id="edge1" class="edge">
<title>c_0_65&#45;&gt;c_0_92</title>
<path fill="none" stroke="black" d="M161,-120.33C161,-105.86 161,-76 161,-76 161,-76 129.33,-76 129.33,-76"/>
<polygon fill="black" stroke="black" points="129.33,-72.5 119.33,-76 129.33,-79.5 129.33,-72.5"/>
</g>
<!-- c_0_63 -->
<g id="node2" class="node">
<title>c_0_63</title>
<g id="a_node2"><a xlink:href="c_0_63.html" xlink:title="{Ø ∈ ω}" target="_vizar">
<polygon fill="#f8edd1" stroke="#7f7542" points="76.5,-120.5 76.5,-135.5 119.5,-135.5 119.5,-120.5 76.5,-120.5"/>
<text text-anchor="middle" x="98" y="-124.3" font-family="Times,serif" font-size="14.00">Ø ∈ ω</text>
</a>
</g>
</g>
<!-- c_0_63&#45;&gt;c_0_92 -->
<g id="edge2" class="edge">
<title>c_0_63&#45;&gt;c_0_92</title>
<path fill="none" stroke="black" d="M98,-120.33C98,-120.33 98,-93.7 98,-93.7"/>
<polygon fill="black" stroke="black" points="101.5,-93.7 98,-83.7 94.5,-93.7 101.5,-93.7"/>
</g>
<!-- c_0_64 -->
<g id="node3" class="node">
<title>c_0_64</title>
<g id="a_node3"><a xlink:href="c_0_64.html" xlink:title="{0 = Ø}" target="_vizar">
<polygon fill="#f8edd1" stroke="#7f7542" points="16,-120.5 16,-135.5 58,-135.5 58,-120.5 16,-120.5"/>
<text text-anchor="middle" x="37" y="-124.3" font-family="Times,serif" font-size="14.00">0 = Ø</text>
</a>
</g>
</g>
<!-- c_0_64&#45;&gt;c_0_92 -->
<g id="edge3" class="edge">
<title>c_0_64&#45;&gt;c_0_92</title>
<path fill="none" stroke="black" d="M37,-120.33C37,-105.86 37,-76 37,-76 37,-76 66.67,-76 66.67,-76"/>
<polygon fill="black" stroke="black" points="66.67,-79.5 76.67,-76 66.67,-72.5 66.67,-79.5"/>
</g>
<!-- c_0_107 -->
<g id="node5" class="node">
<title>c_0_107</title>
<g id="a_node5"><a xlink:href="c_0_107.html" xlink:title="{0 ∈ ℝ}" target="_vizar">
<polygon fill="#f8edd1" stroke="#7f7542" points="77.5,-16.5 77.5,-31.5 118.5,-31.5 118.5,-16.5 77.5,-16.5"/>
<text text-anchor="middle" x="98" y="-20.3" font-family="Times,serif" font-size="14.00">0 ∈ ℝ</text>
</a>
</g>
</g>
<!-- c_0_92&#45;&gt;c_0_107 -->
<g id="edge4" class="edge">
<title>c_0_92&#45;&gt;c_0_107</title>
<path fill="none" stroke="black" stroke-dasharray="5,2" d="M98,-68.33C98,-68.33 98,-41.7 98,-41.7"/>
<polygon fill="black" stroke="black" points="101.5,-41.7 98,-31.7 94.5,-41.7 101.5,-41.7"/>
</g>
</g>
</svg>
