<?xml version="1.0" encoding="UTF-8" standalone="no"?>
<!DOCTYPE svg PUBLIC "-//W3C//DTD SVG 1.1//EN"
 "http://www.w3.org/Graphics/SVG/1.1/DTD/svg11.dtd">
<!-- Generated by graphviz version 5.0.0 (0)
 -->
<!-- Title: proof Pages: 1 -->
<svg width="1703pt" height="295pt"
 viewBox="0.00 0.00 1703.00 295.00" xmlns="http://www.w3.org/2000/svg" xmlns:xlink="http://www.w3.org/1999/xlink">
<g id="graph0" class="graph" transform="scale(1 1) rotate(0) translate(4 291)">
<title>proof</title>
<g id="clust1" class="cluster">
<title>cluster_0</title>
<polygon fill="transparent" stroke="black" stroke-dasharray="1,5" points="831,-247 831,-279 933,-279 933,-247 831,-247"/>
</g>
<g id="clust2" class="cluster">
<title>cluster_1</title>
<polygon fill="transparent" stroke="black" stroke-width="2" points="591,-165 591,-227 1173,-227 1173,-165 591,-165"/>
</g>
<g id="clust3" class="cluster">
<title>cluster_2</title>
<polygon fill="transparent" stroke="black" stroke-dasharray="1,5" points="8,-8 8,-145 1687,-145 1687,-8 8,-8"/>
</g>
<!-- t55_fdiff_11 -->
<g id="node1" class="node">
<title>t55_fdiff_11</title>
<g id="a_node1"><a xlink:href="t55_fdiff_11.html" xlink:title="t55_fdiff_11" target="_vizar">
<polygon fill="#fa6900" stroke="#7f7542" points="839.5,-255.5 839.5,-270.5 924.5,-270.5 924.5,-255.5 839.5,-255.5"/>
<text text-anchor="middle" x="882" y="-259.3" font-family="Times,serif" font-size="14.00">t55_fdiff_11</text>
</a>
</g>
</g>
<!-- c_0_131 -->
<g id="node2" class="node">
<title>c_0_131</title>
<g id="a_node2"><a xlink:href="c_0_131.html" xlink:title="{is_differentiable_on(ℝ * ℝ * ℝ * ℝ * (ℝ + ℝ + ℝ + arctan + arccot) * exp_R,sk₁)|⇊|sk₂ ∈ sk₁}" target="_vizar">
<polygon fill="#fa6900" stroke="#7f7542" points="599.5,-173.5 599.5,-218.5 1164.5,-218.5 1164.5,-173.5 599.5,-173.5"/>
<text text-anchor="middle" x="882" y="-207.3" font-family="Times,serif" font-size="14.00">is_differentiable_on(ℝ * ℝ * ℝ * ℝ * (ℝ + ℝ + ℝ + arctan + arccot) * exp_R,sk₁)</text>
<polyline fill="none" stroke="#7f7542" points="599.5,-203.5 1164.5,-203.5 "/>
<text text-anchor="middle" x="882" y="-192.3" font-family="Times,serif" font-size="14.00">⇊</text>
<polyline fill="none" stroke="#7f7542" points="599.5,-188.5 1164.5,-188.5 "/>
<text text-anchor="middle" x="882" y="-177.3" font-family="Times,serif" font-size="14.00">sk₂ ∈ sk₁</text>
</a>
</g>
</g>
<!-- t55_fdiff_11&#45;&gt;c_0_131 -->
<g id="edge1" class="edge">
<title>t55_fdiff_11&#45;&gt;c_0_131</title>
<path fill="none" stroke="black" d="M882,-255.31C882,-255.31 882,-228.76 882,-228.76"/>
<polygon fill="black" stroke="black" points="885.5,-228.76 882,-218.76 878.5,-228.76 885.5,-228.76"/>
</g>
<!-- c_0_135 -->
<g id="node3" class="node">
<title>c_0_135</title>
<g id="a_node3"><a xlink:href="c_0_135.html" xlink:title="{function(ℝ * ℝ * ℝ * ℝ * (ℝ + ℝ + ℝ + arctan + arccot) * exp_R)|function(ℝ + ℝ + ℝ + arctan + arccot)|real&#45;valued(ℝ + ℝ + ℝ + arctan + arccot)|ℝ * ℝ * ℝ * ℝ * (ℝ + ℝ + ℝ + arctan + arccot) * exp_R ∈ bool(ℝ × ℝ)|ℝ + ℝ + ℝ + arctan + arccot ∈ bool(ℝ × ℝ)|⇊|sk₂ ∈ sk₁}" target="_vizar">
<polygon fill="#fa6900" stroke="#7f7542" points="1183,-24 1183,-129 1679,-129 1679,-24 1183,-24"/>
<text text-anchor="middle" x="1431" y="-117.8" font-family="Times,serif" font-size="14.00">function(ℝ * ℝ * ℝ * ℝ * (ℝ + ℝ + ℝ + arctan + arccot) * exp_R)</text>
<polyline fill="none" stroke="#7f7542" points="1183,-114 1679,-114 "/>
<text text-anchor="middle" x="1431" y="-102.8" font-family="Times,serif" font-size="14.00">function(ℝ + ℝ + ℝ + arctan + arccot)</text>
<polyline fill="none" stroke="#7f7542" points="1183,-99 1679,-99 "/>
<text text-anchor="middle" x="1431" y="-87.8" font-family="Times,serif" font-size="14.00">real&#45;valued(ℝ + ℝ + ℝ + arctan + arccot)</text>
<polyline fill="none" stroke="#7f7542" points="1183,-84 1679,-84 "/>
<text text-anchor="middle" x="1431" y="-72.8" font-family="Times,serif" font-size="14.00">ℝ * ℝ * ℝ * ℝ * (ℝ + ℝ + ℝ + arctan + arccot) * exp_R ∈ bool(ℝ × ℝ)</text>
<polyline fill="none" stroke="#7f7542" points="1183,-69 1679,-69 "/>
<text text-anchor="middle" x="1431" y="-57.8" font-family="Times,serif" font-size="14.00">ℝ + ℝ + ℝ + arctan + arccot ∈ bool(ℝ × ℝ)</text>
<polyline fill="none" stroke="#7f7542" points="1183,-54 1679,-54 "/>
<text text-anchor="middle" x="1431" y="-42.8" font-family="Times,serif" font-size="14.00">⇊</text>
<polyline fill="none" stroke="#7f7542" points="1183,-39 1679,-39 "/>
<text text-anchor="middle" x="1431" y="-27.8" font-family="Times,serif" font-size="14.00">sk₂ ∈ sk₁</text>
</a>
</g>
</g>
<!-- c_0_131&#45;&gt;c_0_135 -->
<g id="edge2" class="edge">
<title>c_0_131&#45;&gt;c_0_135</title>
<path fill="none" stroke="black" stroke-dasharray="5,2" d="M1164.54,-196C1299.06,-196 1431,-196 1431,-196 1431,-196 1431,-139.26 1431,-139.26"/>
<polygon fill="black" stroke="black" points="1434.5,-139.26 1431,-129.26 1427.5,-139.26 1434.5,-139.26"/>
</g>
<!-- c_0_143 -->
<g id="node4" class="node">
<title>c_0_143</title>
<g id="a_node4"><a xlink:href="c_0_143.html" xlink:title="{function(ℝ * ℝ * ℝ * ℝ * (ℝ + ℝ + ℝ + arctan + arccot) * exp_R)|function(ℝ + ℝ + ℝ + arctan + arccot)|is_differentiable_in(ℝ + ℝ + ℝ + arctan + arccot,sk₂)|is_differentiable_on(ℝ * ℝ * ℝ * ℝ * (ℝ + ℝ + ℝ + arctan + arccot) * exp_R,sk₁)|ℝ * ℝ * ℝ * ℝ * (ℝ + ℝ + ℝ + arctan + arccot) * exp_R ∈ bool(ℝ × ℝ)|ℝ + ℝ + ℝ + arctan + arccot ∈ bool(ℝ × ℝ)|⇊|⊥}" target="_vizar">
<polygon fill="#fa6900" stroke="#7f7542" points="599.5,-16.5 599.5,-136.5 1164.5,-136.5 1164.5,-16.5 599.5,-16.5"/>
<text text-anchor="middle" x="882" y="-125.3" font-family="Times,serif" font-size="14.00">function(ℝ * ℝ * ℝ * ℝ * (ℝ + ℝ + ℝ + arctan + arccot) * exp_R)</text>
<polyline fill="none" stroke="#7f7542" points="599.5,-121.5 1164.5,-121.5 "/>
<text text-anchor="middle" x="882" y="-110.3" font-family="Times,serif" font-size="14.00">function(ℝ + ℝ + ℝ + arctan + arccot)</text>
<polyline fill="none" stroke="#7f7542" points="599.5,-106.5 1164.5,-106.5 "/>
<text text-anchor="middle" x="882" y="-95.3" font-family="Times,serif" font-size="14.00">is_differentiable_in(ℝ + ℝ + ℝ + arctan + arccot,sk₂)</text>
<polyline fill="none" stroke="#7f7542" points="599.5,-91.5 1164.5,-91.5 "/>
<text text-anchor="middle" x="882" y="-80.3" font-family="Times,serif" font-size="14.00">is_differentiable_on(ℝ * ℝ * ℝ * ℝ * (ℝ + ℝ + ℝ + arctan + arccot) * exp_R,sk₁)</text>
<polyline fill="none" stroke="#7f7542" points="599.5,-76.5 1164.5,-76.5 "/>
<text text-anchor="middle" x="882" y="-65.3" font-family="Times,serif" font-size="14.00">ℝ * ℝ * ℝ * ℝ * (ℝ + ℝ + ℝ + arctan + arccot) * exp_R ∈ bool(ℝ × ℝ)</text>
<polyline fill="none" stroke="#7f7542" points="599.5,-61.5 1164.5,-61.5 "/>
<text text-anchor="middle" x="882" y="-50.3" font-family="Times,serif" font-size="14.00">ℝ + ℝ + ℝ + arctan + arccot ∈ bool(ℝ × ℝ)</text>
<polyline fill="none" stroke="#7f7542" points="599.5,-46.5 1164.5,-46.5 "/>
<text text-anchor="middle" x="882" y="-35.3" font-family="Times,serif" font-size="14.00">⇊</text>
<polyline fill="none" stroke="#7f7542" points="599.5,-31.5 1164.5,-31.5 "/>
<text text-anchor="middle" x="882" y="-20.3" font-family="Times,serif" font-size="14.00">⊥</text>
</a>
</g>
</g>
<!-- c_0_131&#45;&gt;c_0_143 -->
<g id="edge3" class="edge">
<title>c_0_131&#45;&gt;c_0_143</title>
<path fill="none" stroke="black" stroke-dasharray="5,2" d="M882,-173.24C882,-173.24 882,-146.7 882,-146.7"/>
<polygon fill="black" stroke="black" points="885.5,-146.7 882,-136.7 878.5,-146.7 885.5,-146.7"/>
</g>
<!-- c_0_138 -->
<g id="node5" class="node">
<title>c_0_138</title>
<g id="a_node5"><a xlink:href="c_0_138.html" xlink:title="{diff(ℝ * ℝ * ℝ * ℝ * (ℝ + ℝ + ℝ + arctan + arccot) * exp_R,sk₂) = 0|function(ℝ * ℝ * ℝ * ℝ * (ℝ + ℝ + ℝ + arctan + arccot) * exp_R)|is_differentiable_on(ℝ * ℝ * ℝ * ℝ * (ℝ + ℝ + ℝ + arctan + arccot) * exp_R,sk₁)|ℝ * ℝ * ℝ * ℝ * (ℝ + ℝ + ℝ + arctan + arccot) * exp_R ∈ bool(ℝ × ℝ)|⇊|⊥}" target="_vizar">
<polygon fill="#fa6900" stroke="#7f7542" points="16.5,-31.5 16.5,-121.5 581.5,-121.5 581.5,-31.5 16.5,-31.5"/>
<text text-anchor="middle" x="299" y="-110.3" font-family="Times,serif" font-size="14.00">diff(ℝ * ℝ * ℝ * ℝ * (ℝ + ℝ + ℝ + arctan + arccot) * exp_R,sk₂) = 0</text>
<polyline fill="none" stroke="#7f7542" points="16.5,-106.5 581.5,-106.5 "/>
<text text-anchor="middle" x="299" y="-95.3" font-family="Times,serif" font-size="14.00">function(ℝ * ℝ * ℝ * ℝ * (ℝ + ℝ + ℝ + arctan + arccot) * exp_R)</text>
<polyline fill="none" stroke="#7f7542" points="16.5,-91.5 581.5,-91.5 "/>
<text text-anchor="middle" x="299" y="-80.3" font-family="Times,serif" font-size="14.00">is_differentiable_on(ℝ * ℝ * ℝ * ℝ * (ℝ + ℝ + ℝ + arctan + arccot) * exp_R,sk₁)</text>
<polyline fill="none" stroke="#7f7542" points="16.5,-76.5 581.5,-76.5 "/>
<text text-anchor="middle" x="299" y="-65.3" font-family="Times,serif" font-size="14.00">ℝ * ℝ * ℝ * ℝ * (ℝ + ℝ + ℝ + arctan + arccot) * exp_R ∈ bool(ℝ × ℝ)</text>
<polyline fill="none" stroke="#7f7542" points="16.5,-61.5 581.5,-61.5 "/>
<text text-anchor="middle" x="299" y="-50.3" font-family="Times,serif" font-size="14.00">⇊</text>
<polyline fill="none" stroke="#7f7542" points="16.5,-46.5 581.5,-46.5 "/>
<text text-anchor="middle" x="299" y="-35.3" font-family="Times,serif" font-size="14.00">⊥</text>
</a>
</g>
</g>
<!-- c_0_131&#45;&gt;c_0_138 -->
<g id="edge4" class="edge">
<title>c_0_131&#45;&gt;c_0_138</title>
<path fill="none" stroke="black" stroke-dasharray="5,2" d="M599.47,-196C450.79,-196 299,-196 299,-196 299,-196 299,-131.68 299,-131.68"/>
<polygon fill="black" stroke="black" points="302.5,-131.68 299,-121.68 295.5,-131.68 302.5,-131.68"/>
</g>
</g>
</svg>
