<?xml version="1.0" encoding="UTF-8" standalone="no"?>
<!DOCTYPE svg PUBLIC "-//W3C//DTD SVG 1.1//EN"
 "http://www.w3.org/Graphics/SVG/1.1/DTD/svg11.dtd">
<!-- Generated by graphviz version 5.0.0 (0)
 -->
<!-- Title: proof Pages: 1 -->
<svg width="856pt" height="280pt"
 viewBox="0.00 0.00 856.00 280.00" xmlns="http://www.w3.org/2000/svg" xmlns:xlink="http://www.w3.org/1999/xlink">
<g id="graph0" class="graph" transform="scale(1 1) rotate(0) translate(4 276)">
<title>proof</title>
<g id="clust1" class="cluster">
<title>cluster_0</title>
<polygon fill="transparent" stroke="black" stroke-dasharray="1,5" points="300,-187 300,-264 556,-264 556,-187 300,-187"/>
</g>
<g id="clust2" class="cluster">
<title>cluster_1</title>
<polygon fill="transparent" stroke="black" stroke-width="2" points="395,-135 395,-167 453,-167 453,-135 395,-135"/>
</g>
<g id="clust3" class="cluster">
<title>cluster_2</title>
<polygon fill="transparent" stroke="black" stroke-dasharray="1,5" points="8,-8 8,-115 840,-115 840,-8 8,-8"/>
</g>
<!-- c_0_91 -->
<g id="node1" class="node">
<title>c_0_91</title>
<g id="a_node1"><a xlink:href="c_0_91.html" xlink:title="{X₁ ⊆ ℝ|X₂ ∈ X₁|⇊|X₂ ∈ ℝ}" target="_vizar">
<polygon fill="#f8edd1" stroke="#7f7542" points="498,-195.5 498,-255.5 548,-255.5 548,-195.5 498,-195.5"/>
<text text-anchor="middle" x="523" y="-244.3" font-family="Times,serif" font-size="14.00">X₁ ⊆ ℝ</text>
<polyline fill="none" stroke="#7f7542" points="498,-240.5 548,-240.5 "/>
<text text-anchor="middle" x="523" y="-229.3" font-family="Times,serif" font-size="14.00">X₂ ∈ X₁</text>
<polyline fill="none" stroke="#7f7542" points="498,-225.5 548,-225.5 "/>
<text text-anchor="middle" x="523" y="-214.3" font-family="Times,serif" font-size="14.00">⇊</text>
<polyline fill="none" stroke="#7f7542" points="498,-210.5 548,-210.5 "/>
<text text-anchor="middle" x="523" y="-199.3" font-family="Times,serif" font-size="14.00">X₂ ∈ ℝ</text>
</a>
</g>
</g>
<!-- c_0_107 -->
<g id="node5" class="node">
<title>c_0_107</title>
<g id="a_node5"><a xlink:href="c_0_107.html" xlink:title="{0 ∈ ℝ}" target="_vizar">
<polygon fill="#f8edd1" stroke="#7f7542" points="403.5,-143.5 403.5,-158.5 444.5,-158.5 444.5,-143.5 403.5,-143.5"/>
<text text-anchor="middle" x="424" y="-147.3" font-family="Times,serif" font-size="14.00">0 ∈ ℝ</text>
</a>
</g>
</g>
<!-- c_0_91&#45;&gt;c_0_107 -->
<g id="edge1" class="edge">
<title>c_0_91&#45;&gt;c_0_107</title>
<path fill="none" stroke="black" d="M497.75,-206C473.44,-206 440.33,-206 440.33,-206 440.33,-206 440.33,-168.65 440.33,-168.65"/>
<polygon fill="black" stroke="black" points="443.83,-168.65 440.33,-158.65 436.83,-168.65 443.83,-168.65"/>
</g>
<!-- c_0_106 -->
<g id="node2" class="node">
<title>c_0_106</title>
<g id="a_node2"><a xlink:href="c_0_106.html" xlink:title="{R₁ ∈ ℝ}" target="_vizar">
<polygon fill="#f8edd1" stroke="#7f7542" points="432,-218 432,-233 480,-233 480,-218 432,-218"/>
<text text-anchor="middle" x="456" y="-221.8" font-family="Times,serif" font-size="14.00">R₁ ∈ ℝ</text>
</a>
</g>
</g>
<!-- c_0_106&#45;&gt;c_0_107 -->
<g id="edge2" class="edge">
<title>c_0_106&#45;&gt;c_0_107</title>
<path fill="none" stroke="black" d="M436.17,-217.81C436.17,-217.81 436.17,-168.76 436.17,-168.76"/>
<polygon fill="black" stroke="black" points="439.67,-168.76 436.17,-158.76 432.67,-168.76 439.67,-168.76"/>
</g>
<!-- c_0_92 -->
<g id="node3" class="node">
<title>c_0_92</title>
<g id="a_node3"><a xlink:href="c_0_92.html" xlink:title="{0 ∈ ℕ}" target="_vizar">
<polygon fill="#f8edd1" stroke="#7f7542" points="372,-218 372,-233 414,-233 414,-218 372,-218"/>
<text text-anchor="middle" x="393" y="-221.8" font-family="Times,serif" font-size="14.00">0 ∈ ℕ</text>
</a>
</g>
</g>
<!-- c_0_92&#45;&gt;c_0_107 -->
<g id="edge3" class="edge">
<title>c_0_92&#45;&gt;c_0_107</title>
<path fill="none" stroke="black" d="M408.75,-217.81C408.75,-217.81 408.75,-168.76 408.75,-168.76"/>
<polygon fill="black" stroke="black" points="412.25,-168.76 408.75,-158.76 405.25,-168.76 412.25,-168.76"/>
</g>
<!-- c_0_93 -->
<g id="node4" class="node">
<title>c_0_93</title>
<g id="a_node4"><a xlink:href="c_0_93.html" xlink:title="{ℕ ⊆ ℝ}" target="_vizar">
<polygon fill="#f8edd1" stroke="#7f7542" points="308,-218 308,-233 354,-233 354,-218 308,-218"/>
<text text-anchor="middle" x="331" y="-221.8" font-family="Times,serif" font-size="14.00">ℕ ⊆ ℝ</text>
</a>
</g>
</g>
<!-- c_0_93&#45;&gt;c_0_107 -->
<g id="edge4" class="edge">
<title>c_0_93&#45;&gt;c_0_107</title>
<path fill="none" stroke="black" d="M331,-217.81C331,-198.77 331,-151 331,-151 331,-151 393.36,-151 393.36,-151"/>
<polygon fill="black" stroke="black" points="393.36,-154.5 403.36,-151 393.36,-147.5 393.36,-154.5"/>
</g>
<!-- c_0_126 -->
<g id="node6" class="node">
<title>c_0_126</title>
<g id="a_node6"><a xlink:href="c_0_126.html" xlink:title="{X₁ ∈ sk₁|function(ℝ + ℝ + ℝ + arctan + arccot)|is_differentiable_in(ℝ + ℝ + ℝ + arctan + arccot,X₁)|ℝ + ℝ + ℝ + arctan + arccot ∈ bool(ℝ × ℝ)|⇊|0 * (exp_R . ((ℝ + ℝ + ℝ + arctan + arccot) . X₁)) = diff(ℝ * ℝ * ℝ * ℝ * (ℝ + ℝ + ℝ + arctan + arccot) * exp_R,X₁)}" target="_vizar">
<polygon fill="#fa6900" stroke="#7f7542" points="16,-16.5 16,-106.5 832,-106.5 832,-16.5 16,-16.5"/>
<text text-anchor="middle" x="424" y="-95.3" font-family="Times,serif" font-size="14.00">X₁ ∈ sk₁</text>
<polyline fill="none" stroke="#7f7542" points="16,-91.5 832,-91.5 "/>
<text text-anchor="middle" x="424" y="-80.3" font-family="Times,serif" font-size="14.00">function(ℝ + ℝ + ℝ + arctan + arccot)</text>
<polyline fill="none" stroke="#7f7542" points="16,-76.5 832,-76.5 "/>
<text text-anchor="middle" x="424" y="-65.3" font-family="Times,serif" font-size="14.00">is_differentiable_in(ℝ + ℝ + ℝ + arctan + arccot,X₁)</text>
<polyline fill="none" stroke="#7f7542" points="16,-61.5 832,-61.5 "/>
<text text-anchor="middle" x="424" y="-50.3" font-family="Times,serif" font-size="14.00">ℝ + ℝ + ℝ + arctan + arccot ∈ bool(ℝ × ℝ)</text>
<polyline fill="none" stroke="#7f7542" points="16,-46.5 832,-46.5 "/>
<text text-anchor="middle" x="424" y="-35.3" font-family="Times,serif" font-size="14.00">⇊</text>
<polyline fill="none" stroke="#7f7542" points="16,-31.5 832,-31.5 "/>
<text text-anchor="middle" x="424" y="-20.3" font-family="Times,serif" font-size="14.00">0 * (exp_R . ((ℝ + ℝ + ℝ + arctan + arccot) . X₁)) = diff(ℝ * ℝ * ℝ * ℝ * (ℝ + ℝ + ℝ + arctan + arccot) * exp_R,X₁)</text>
</a>
</g>
</g>
<!-- c_0_107&#45;&gt;c_0_126 -->
<g id="edge5" class="edge">
<title>c_0_107&#45;&gt;c_0_126</title>
<path fill="none" stroke="black" stroke-dasharray="5,2" d="M424,-143.37C424,-143.37 424,-116.66 424,-116.66"/>
<polygon fill="black" stroke="black" points="427.5,-116.66 424,-106.66 420.5,-116.66 427.5,-116.66"/>
</g>
</g>
</svg>
