<?xml version="1.0" encoding="UTF-8" standalone="no"?>
<!DOCTYPE svg PUBLIC "-//W3C//DTD SVG 1.1//EN"
 "http://www.w3.org/Graphics/SVG/1.1/DTD/svg11.dtd">
<!-- Generated by graphviz version 5.0.0 (0)
 -->
<!-- Title: proof Pages: 1 -->
<svg width="606pt" height="280pt"
 viewBox="0.00 0.00 606.00 280.00" xmlns="http://www.w3.org/2000/svg" xmlns:xlink="http://www.w3.org/1999/xlink">
<g id="graph0" class="graph" transform="scale(1 1) rotate(0) translate(4 276)">
<title>proof</title>
<g id="clust1" class="cluster">
<title>cluster_0</title>
<polygon fill="transparent" stroke="black" stroke-dasharray="1,5" points="248,-232 248,-264 350,-264 350,-232 248,-232"/>
</g>
<g id="clust2" class="cluster">
<title>cluster_1</title>
<polygon fill="transparent" stroke="black" stroke-width="2" points="8,-135 8,-212 590,-212 590,-135 8,-135"/>
</g>
<g id="clust3" class="cluster">
<title>cluster_2</title>
<polygon fill="transparent" stroke="black" stroke-dasharray="1,5" points="8,-8 8,-115 590,-115 590,-8 8,-8"/>
</g>
<!-- t55_fdiff_11 -->
<g id="node1" class="node">
<title>t55_fdiff_11</title>
<g id="a_node1"><a xlink:href="t55_fdiff_11.html" xlink:title="t55_fdiff_11" target="_vizar">
<polygon fill="#fa6900" stroke="#7f7542" points="256.5,-240.5 256.5,-255.5 341.5,-255.5 341.5,-240.5 256.5,-240.5"/>
<text text-anchor="middle" x="299" y="-244.3" font-family="Times,serif" font-size="14.00">t55_fdiff_11</text>
</a>
</g>
</g>
<!-- c_0_133 -->
<g id="node2" class="node">
<title>c_0_133</title>
<g id="a_node2"><a xlink:href="c_0_133.html" xlink:title="{((ℝ * ℝ * ℝ * ℝ * (ℝ + ℝ + ℝ + arctan + arccot) * exp_R) `\| sk₁) . sk₂ = 0|is_differentiable_on(ℝ * ℝ * ℝ * ℝ * (ℝ + ℝ + ℝ + arctan + arccot) * exp_R,sk₁)|⇊|⊥}" target="_vizar">
<polygon fill="#fa6900" stroke="#7f7542" points="16.5,-143.5 16.5,-203.5 581.5,-203.5 581.5,-143.5 16.5,-143.5"/>
<text text-anchor="middle" x="299" y="-192.3" font-family="Times,serif" font-size="14.00">((ℝ * ℝ * ℝ * ℝ * (ℝ + ℝ + ℝ + arctan + arccot) * exp_R) `| sk₁) . sk₂ = 0</text>
<polyline fill="none" stroke="#7f7542" points="16.5,-188.5 581.5,-188.5 "/>
<text text-anchor="middle" x="299" y="-177.3" font-family="Times,serif" font-size="14.00">is_differentiable_on(ℝ * ℝ * ℝ * ℝ * (ℝ + ℝ + ℝ + arctan + arccot) * exp_R,sk₁)</text>
<polyline fill="none" stroke="#7f7542" points="16.5,-173.5 581.5,-173.5 "/>
<text text-anchor="middle" x="299" y="-162.3" font-family="Times,serif" font-size="14.00">⇊</text>
<polyline fill="none" stroke="#7f7542" points="16.5,-158.5 581.5,-158.5 "/>
<text text-anchor="middle" x="299" y="-147.3" font-family="Times,serif" font-size="14.00">⊥</text>
</a>
</g>
</g>
<!-- t55_fdiff_11&#45;&gt;c_0_133 -->
<g id="edge1" class="edge">
<title>t55_fdiff_11&#45;&gt;c_0_133</title>
<path fill="none" stroke="black" d="M299,-240.31C299,-240.31 299,-213.51 299,-213.51"/>
<polygon fill="black" stroke="black" points="302.5,-213.51 299,-203.51 295.5,-213.51 302.5,-213.51"/>
</g>
<!-- c_0_138 -->
<g id="node3" class="node">
<title>c_0_138</title>
<g id="a_node3"><a xlink:href="c_0_138.html" xlink:title="{diff(ℝ * ℝ * ℝ * ℝ * (ℝ + ℝ + ℝ + arctan + arccot) * exp_R,sk₂) = 0|function(ℝ * ℝ * ℝ * ℝ * (ℝ + ℝ + ℝ + arctan + arccot) * exp_R)|is_differentiable_on(ℝ * ℝ * ℝ * ℝ * (ℝ + ℝ + ℝ + arctan + arccot) * exp_R,sk₁)|ℝ * ℝ * ℝ * ℝ * (ℝ + ℝ + ℝ + arctan + arccot) * exp_R ∈ bool(ℝ × ℝ)|⇊|⊥}" target="_vizar">
<polygon fill="#fa6900" stroke="#7f7542" points="16.5,-16.5 16.5,-106.5 581.5,-106.5 581.5,-16.5 16.5,-16.5"/>
<text text-anchor="middle" x="299" y="-95.3" font-family="Times,serif" font-size="14.00">diff(ℝ * ℝ * ℝ * ℝ * (ℝ + ℝ + ℝ + arctan + arccot) * exp_R,sk₂) = 0</text>
<polyline fill="none" stroke="#7f7542" points="16.5,-91.5 581.5,-91.5 "/>
<text text-anchor="middle" x="299" y="-80.3" font-family="Times,serif" font-size="14.00">function(ℝ * ℝ * ℝ * ℝ * (ℝ + ℝ + ℝ + arctan + arccot) * exp_R)</text>
<polyline fill="none" stroke="#7f7542" points="16.5,-76.5 581.5,-76.5 "/>
<text text-anchor="middle" x="299" y="-65.3" font-family="Times,serif" font-size="14.00">is_differentiable_on(ℝ * ℝ * ℝ * ℝ * (ℝ + ℝ + ℝ + arctan + arccot) * exp_R,sk₁)</text>
<polyline fill="none" stroke="#7f7542" points="16.5,-61.5 581.5,-61.5 "/>
<text text-anchor="middle" x="299" y="-50.3" font-family="Times,serif" font-size="14.00">ℝ * ℝ * ℝ * ℝ * (ℝ + ℝ + ℝ + arctan + arccot) * exp_R ∈ bool(ℝ × ℝ)</text>
<polyline fill="none" stroke="#7f7542" points="16.5,-46.5 581.5,-46.5 "/>
<text text-anchor="middle" x="299" y="-35.3" font-family="Times,serif" font-size="14.00">⇊</text>
<polyline fill="none" stroke="#7f7542" points="16.5,-31.5 581.5,-31.5 "/>
<text text-anchor="middle" x="299" y="-20.3" font-family="Times,serif" font-size="14.00">⊥</text>
</a>
</g>
</g>
<!-- c_0_133&#45;&gt;c_0_138 -->
<g id="edge2" class="edge">
<title>c_0_133&#45;&gt;c_0_138</title>
<path fill="none" stroke="black" stroke-dasharray="5,2" d="M299,-143.49C299,-143.49 299,-116.77 299,-116.77"/>
<polygon fill="black" stroke="black" points="302.5,-116.77 299,-106.77 295.5,-116.77 302.5,-116.77"/>
</g>
</g>
</svg>
