<?xml version="1.0" encoding="UTF-8" standalone="no"?>
<!DOCTYPE svg PUBLIC "-//W3C//DTD SVG 1.1//EN"
 "http://www.w3.org/Graphics/SVG/1.1/DTD/svg11.dtd">
<!-- Generated by graphviz version 5.0.0 (0)
 -->
<!-- Title: proof Pages: 1 -->
<svg width="775pt" height="190pt"
 viewBox="0.00 0.00 775.00 190.00" xmlns="http://www.w3.org/2000/svg" xmlns:xlink="http://www.w3.org/1999/xlink">
<g id="graph0" class="graph" transform="scale(1 1) rotate(0) translate(4 186)">
<title>proof</title>
<g id="clust1" class="cluster">
<title>cluster_0</title>
<polygon fill="transparent" stroke="black" stroke-dasharray="1,5" points="319,-142 319,-174 421,-174 421,-142 319,-142"/>
</g>
<g id="clust2" class="cluster">
<title>cluster_1</title>
<polygon fill="transparent" stroke="black" stroke-width="2" points="305,-90 305,-122 435,-122 435,-90 305,-90"/>
</g>
<g id="clust3" class="cluster">
<title>cluster_2</title>
<polygon fill="transparent" stroke="black" stroke-dasharray="1,5" points="8,-8 8,-70 759,-70 759,-8 8,-8"/>
</g>
<!-- t55_fdiff_11 -->
<g id="node1" class="node">
<title>t55_fdiff_11</title>
<g id="a_node1"><a xlink:href="t55_fdiff_11.html" xlink:title="t55_fdiff_11" target="_parent">
<polygon fill="#fa6900" stroke="#7f7542" points="327.5,-150.5 327.5,-165.5 412.5,-165.5 412.5,-150.5 327.5,-150.5"/>
<text text-anchor="middle" x="370" y="-154.3" font-family="Times,serif" font-size="14.00">t55_fdiff_11</text>
</a>
</g>
</g>
<!-- c_0_54 -->
<g id="node2" class="node">
<title>c_0_54</title>
<g id="a_node2"><a xlink:href="c_0_54.html" xlink:title="{sk₁ ⊆ &#45;(1) ]....[ 1}" target="_parent">
<polygon fill="#fa6900" stroke="#7f7542" points="313.5,-98.5 313.5,-113.5 426.5,-113.5 426.5,-98.5 313.5,-98.5"/>
<text text-anchor="middle" x="370" y="-102.3" font-family="Times,serif" font-size="14.00">sk₁ ⊆ &#45;(1) ]....[ 1</text>
</a>
</g>
</g>
<!-- t55_fdiff_11&#45;&gt;c_0_54 -->
<g id="edge1" class="edge">
<title>t55_fdiff_11&#45;&gt;c_0_54</title>
<path fill="none" stroke="black" d="M370,-150.33C370,-150.33 370,-123.7 370,-123.7"/>
<polygon fill="black" stroke="black" points="373.5,-123.7 370,-113.7 366.5,-123.7 373.5,-123.7"/>
</g>
<!-- c_0_85 -->
<g id="node3" class="node">
<title>c_0_85</title>
<g id="a_node3"><a xlink:href="c_0_85.html" xlink:title="{is_differentiable_on(ℝ + ℝ + ℝ + arctan + arccot,sk₁)}" target="_parent">
<polygon fill="#fa6900" stroke="#7f7542" points="365.5,-31.5 365.5,-46.5 750.5,-46.5 750.5,-31.5 365.5,-31.5"/>
<text text-anchor="middle" x="558" y="-35.3" font-family="Times,serif" font-size="14.00">is_differentiable_on(ℝ + ℝ + ℝ + arctan + arccot,sk₁)</text>
</a>
</g>
</g>
<!-- c_0_54&#45;&gt;c_0_85 -->
<g id="edge2" class="edge">
<title>c_0_54&#45;&gt;c_0_85</title>
<path fill="none" stroke="black" stroke-dasharray="5,2" d="M396,-98.31C396,-98.31 396,-56.6 396,-56.6"/>
<polygon fill="black" stroke="black" points="399.5,-56.6 396,-46.6 392.5,-56.6 399.5,-56.6"/>
</g>
<!-- c_0_84 -->
<g id="node4" class="node">
<title>c_0_84</title>
<g id="a_node4"><a xlink:href="c_0_84.html" xlink:title="{X₁ ∈ sk₁|⇊|((ℝ + ℝ + ℝ + arctan + arccot) `\| sk₁) . X₁ = 0}" target="_parent">
<polygon fill="#fa6900" stroke="#7f7542" points="16.5,-16.5 16.5,-61.5 347.5,-61.5 347.5,-16.5 16.5,-16.5"/>
<text text-anchor="middle" x="182" y="-50.3" font-family="Times,serif" font-size="14.00">X₁ ∈ sk₁</text>
<polyline fill="none" stroke="#7f7542" points="16.5,-46.5 347.5,-46.5 "/>
<text text-anchor="middle" x="182" y="-35.3" font-family="Times,serif" font-size="14.00">⇊</text>
<polyline fill="none" stroke="#7f7542" points="16.5,-31.5 347.5,-31.5 "/>
<text text-anchor="middle" x="182" y="-20.3" font-family="Times,serif" font-size="14.00">((ℝ + ℝ + ℝ + arctan + arccot) `| sk₁) . X₁ = 0</text>
</a>
</g>
</g>
<!-- c_0_54&#45;&gt;c_0_84 -->
<g id="edge3" class="edge">
<title>c_0_54&#45;&gt;c_0_84</title>
<path fill="none" stroke="black" stroke-dasharray="5,2" d="M330.5,-98.31C330.5,-98.31 330.5,-71.76 330.5,-71.76"/>
<polygon fill="black" stroke="black" points="334,-71.76 330.5,-61.76 327,-71.76 334,-71.76"/>
</g>
</g>
</svg>
