<?xml version="1.0" encoding="UTF-8" standalone="no"?>
<!DOCTYPE svg PUBLIC "-//W3C//DTD SVG 1.1//EN"
 "http://www.w3.org/Graphics/SVG/1.1/DTD/svg11.dtd">
<!-- Generated by graphviz version 5.0.0 (0)
 -->
<!-- Title: proof Pages: 1 -->
<svg width="1368pt" height="535pt"
 viewBox="0.00 0.00 1368.00 535.00" xmlns="http://www.w3.org/2000/svg" xmlns:xlink="http://www.w3.org/1999/xlink">
<g id="graph0" class="graph" transform="scale(1 1) rotate(0) translate(4 531)">
<title>proof</title>
<g id="clust1" class="cluster">
<title>cluster_0</title>
<polygon fill="transparent" stroke="black" stroke-dasharray="1,5" points="8,-367 8,-519 1352,-519 1352,-367 8,-367"/>
</g>
<g id="clust2" class="cluster">
<title>cluster_1</title>
<polygon fill="transparent" stroke="black" stroke-width="2" points="561,-165 561,-347 979,-347 979,-165 561,-165"/>
</g>
<g id="clust3" class="cluster">
<title>cluster_2</title>
<polygon fill="transparent" stroke="black" stroke-dasharray="1,5" points="561,-8 561,-145 979,-145 979,-8 561,-8"/>
</g>
<!-- c_0_74 -->
<g id="node1" class="node">
<title>c_0_74</title>
<g id="a_node1"><a xlink:href="c_0_74.html" xlink:title="{X₅ ∈ bool(X₁ × X₂)|X₆ ∈ bool(X₃ × X₄)|function(X₅)|function(X₆)|⇊|function(X₁ * X₂ * X₃ * X₄ * X₅ * X₆)}" target="_vizar">
<polygon fill="#f8edd1" stroke="#7f7542" points="1106,-398 1106,-488 1344,-488 1344,-398 1106,-398"/>
<text text-anchor="middle" x="1225" y="-476.8" font-family="Times,serif" font-size="14.00">X₅ ∈ bool(X₁ × X₂)</text>
<polyline fill="none" stroke="#7f7542" points="1106,-473 1344,-473 "/>
<text text-anchor="middle" x="1225" y="-461.8" font-family="Times,serif" font-size="14.00">X₆ ∈ bool(X₃ × X₄)</text>
<polyline fill="none" stroke="#7f7542" points="1106,-458 1344,-458 "/>
<text text-anchor="middle" x="1225" y="-446.8" font-family="Times,serif" font-size="14.00">function(X₅)</text>
<polyline fill="none" stroke="#7f7542" points="1106,-443 1344,-443 "/>
<text text-anchor="middle" x="1225" y="-431.8" font-family="Times,serif" font-size="14.00">function(X₆)</text>
<polyline fill="none" stroke="#7f7542" points="1106,-428 1344,-428 "/>
<text text-anchor="middle" x="1225" y="-416.8" font-family="Times,serif" font-size="14.00">⇊</text>
<polyline fill="none" stroke="#7f7542" points="1106,-413 1344,-413 "/>
<text text-anchor="middle" x="1225" y="-401.8" font-family="Times,serif" font-size="14.00">function(X₁ * X₂ * X₃ * X₄ * X₅ * X₆)</text>
</a>
</g>
</g>
<!-- c_0_95 -->
<g id="node6" class="node">
<title>c_0_95</title>
<g id="a_node6"><a xlink:href="c_0_95.html" xlink:title="{X₁ ∈ bool(ℝ × ℝ)|X₂ ∈ bool(ℝ × ℝ)|X₃ ∈ bool(ℝ)|X₃ ⊆ dom(ℝ,ℝ * ℝ * ℝ * ℝ * X₁ * X₂)|function(X₁)|function(X₂)|is_differentiable_in(X₁,sk₅(X₃,ℝ * ℝ * ℝ * ℝ * X₁ * X₂))|is_differentiable_in(X₂,X₁ . sk₅(X₃,ℝ * ℝ * ℝ * ℝ * X₁ * X₂))|open(X₃)|⇊|is_differentiable_on(ℝ * ℝ * ℝ * ℝ * X₁ * X₂,X₃)}" target="_vizar">
<polygon fill="#f8edd1" stroke="#7f7542" points="569,-173.5 569,-338.5 971,-338.5 971,-173.5 569,-173.5"/>
<text text-anchor="middle" x="770" y="-327.3" font-family="Times,serif" font-size="14.00">X₁ ∈ bool(ℝ × ℝ)</text>
<polyline fill="none" stroke="#7f7542" points="569,-323.5 971,-323.5 "/>
<text text-anchor="middle" x="770" y="-312.3" font-family="Times,serif" font-size="14.00">X₂ ∈ bool(ℝ × ℝ)</text>
<polyline fill="none" stroke="#7f7542" points="569,-308.5 971,-308.5 "/>
<text text-anchor="middle" x="770" y="-297.3" font-family="Times,serif" font-size="14.00">X₃ ∈ bool(ℝ)</text>
<polyline fill="none" stroke="#7f7542" points="569,-293.5 971,-293.5 "/>
<text text-anchor="middle" x="770" y="-282.3" font-family="Times,serif" font-size="14.00">X₃ ⊆ dom(ℝ,ℝ * ℝ * ℝ * ℝ * X₁ * X₂)</text>
<polyline fill="none" stroke="#7f7542" points="569,-278.5 971,-278.5 "/>
<text text-anchor="middle" x="770" y="-267.3" font-family="Times,serif" font-size="14.00">function(X₁)</text>
<polyline fill="none" stroke="#7f7542" points="569,-263.5 971,-263.5 "/>
<text text-anchor="middle" x="770" y="-252.3" font-family="Times,serif" font-size="14.00">function(X₂)</text>
<polyline fill="none" stroke="#7f7542" points="569,-248.5 971,-248.5 "/>
<text text-anchor="middle" x="770" y="-237.3" font-family="Times,serif" font-size="14.00">is_differentiable_in(X₁,sk₅(X₃,ℝ * ℝ * ℝ * ℝ * X₁ * X₂))</text>
<polyline fill="none" stroke="#7f7542" points="569,-233.5 971,-233.5 "/>
<text text-anchor="middle" x="770" y="-222.3" font-family="Times,serif" font-size="14.00">is_differentiable_in(X₂,X₁ . sk₅(X₃,ℝ * ℝ * ℝ * ℝ * X₁ * X₂))</text>
<polyline fill="none" stroke="#7f7542" points="569,-218.5 971,-218.5 "/>
<text text-anchor="middle" x="770" y="-207.3" font-family="Times,serif" font-size="14.00">open(X₃)</text>
<polyline fill="none" stroke="#7f7542" points="569,-203.5 971,-203.5 "/>
<text text-anchor="middle" x="770" y="-192.3" font-family="Times,serif" font-size="14.00">⇊</text>
<polyline fill="none" stroke="#7f7542" points="569,-188.5 971,-188.5 "/>
<text text-anchor="middle" x="770" y="-177.3" font-family="Times,serif" font-size="14.00">is_differentiable_on(ℝ * ℝ * ℝ * ℝ * X₁ * X₂,X₃)</text>
</a>
</g>
</g>
<!-- c_0_74&#45;&gt;c_0_95 -->
<g id="edge1" class="edge">
<title>c_0_74&#45;&gt;c_0_95</title>
<path fill="none" stroke="black" d="M1225,-397.73C1225,-342.39 1225,-256 1225,-256 1225,-256 981.23,-256 981.23,-256"/>
<polygon fill="black" stroke="black" points="981.23,-252.5 971.23,-256 981.23,-259.5 981.23,-252.5"/>
</g>
<!-- c_0_72 -->
<g id="node2" class="node">
<title>c_0_72</title>
<g id="a_node2"><a xlink:href="c_0_72.html" xlink:title="{X₁ ∈ bool(ℝ)|X₁ ⊆ dom(ℝ,X₂)|X₂ ∈ bool(ℝ × ℝ)|function(X₂)|open(X₁)|⇊|is_differentiable_on(X₂,X₁)|sk₅(X₁,X₂) ∈ ℝ}" target="_vizar">
<polygon fill="#f8edd1" stroke="#7f7542" points="904,-383 904,-503 1088,-503 1088,-383 904,-383"/>
<text text-anchor="middle" x="996" y="-491.8" font-family="Times,serif" font-size="14.00">X₁ ∈ bool(ℝ)</text>
<polyline fill="none" stroke="#7f7542" points="904,-488 1088,-488 "/>
<text text-anchor="middle" x="996" y="-476.8" font-family="Times,serif" font-size="14.00">X₁ ⊆ dom(ℝ,X₂)</text>
<polyline fill="none" stroke="#7f7542" points="904,-473 1088,-473 "/>
<text text-anchor="middle" x="996" y="-461.8" font-family="Times,serif" font-size="14.00">X₂ ∈ bool(ℝ × ℝ)</text>
<polyline fill="none" stroke="#7f7542" points="904,-458 1088,-458 "/>
<text text-anchor="middle" x="996" y="-446.8" font-family="Times,serif" font-size="14.00">function(X₂)</text>
<polyline fill="none" stroke="#7f7542" points="904,-443 1088,-443 "/>
<text text-anchor="middle" x="996" y="-431.8" font-family="Times,serif" font-size="14.00">open(X₁)</text>
<polyline fill="none" stroke="#7f7542" points="904,-428 1088,-428 "/>
<text text-anchor="middle" x="996" y="-416.8" font-family="Times,serif" font-size="14.00">⇊</text>
<polyline fill="none" stroke="#7f7542" points="904,-413 1088,-413 "/>
<text text-anchor="middle" x="996" y="-401.8" font-family="Times,serif" font-size="14.00">is_differentiable_on(X₂,X₁)</text>
<polyline fill="none" stroke="#7f7542" points="904,-398 1088,-398 "/>
<text text-anchor="middle" x="996" y="-386.8" font-family="Times,serif" font-size="14.00">sk₅(X₁,X₂) ∈ ℝ</text>
</a>
</g>
</g>
<!-- c_0_72&#45;&gt;c_0_95 -->
<g id="edge2" class="edge">
<title>c_0_72&#45;&gt;c_0_95</title>
<path fill="none" stroke="black" d="M937.5,-382.8C937.5,-382.8 937.5,-348.57 937.5,-348.57"/>
<polygon fill="black" stroke="black" points="941,-348.57 937.5,-338.57 934,-348.57 941,-348.57"/>
</g>
<!-- c_0_70 -->
<g id="node3" class="node">
<title>c_0_70</title>
<g id="a_node3"><a xlink:href="c_0_70.html" xlink:title="{X₁ ∈ bool(ℝ × ℝ)|X₂ ∈ bool(ℝ)|X₂ ⊆ dom(ℝ,X₁)|function(X₁)|is_differentiable_in(X₁,sk₅(X₂,X₁))|open(X₂)|⇊|is_differentiable_on(X₁,X₂)}" target="_vizar">
<polygon fill="#f8edd1" stroke="#7f7542" points="654,-383 654,-503 886,-503 886,-383 654,-383"/>
<text text-anchor="middle" x="770" y="-491.8" font-family="Times,serif" font-size="14.00">X₁ ∈ bool(ℝ × ℝ)</text>
<polyline fill="none" stroke="#7f7542" points="654,-488 886,-488 "/>
<text text-anchor="middle" x="770" y="-476.8" font-family="Times,serif" font-size="14.00">X₂ ∈ bool(ℝ)</text>
<polyline fill="none" stroke="#7f7542" points="654,-473 886,-473 "/>
<text text-anchor="middle" x="770" y="-461.8" font-family="Times,serif" font-size="14.00">X₂ ⊆ dom(ℝ,X₁)</text>
<polyline fill="none" stroke="#7f7542" points="654,-458 886,-458 "/>
<text text-anchor="middle" x="770" y="-446.8" font-family="Times,serif" font-size="14.00">function(X₁)</text>
<polyline fill="none" stroke="#7f7542" points="654,-443 886,-443 "/>
<text text-anchor="middle" x="770" y="-431.8" font-family="Times,serif" font-size="14.00">is_differentiable_in(X₁,sk₅(X₂,X₁))</text>
<polyline fill="none" stroke="#7f7542" points="654,-428 886,-428 "/>
<text text-anchor="middle" x="770" y="-416.8" font-family="Times,serif" font-size="14.00">open(X₂)</text>
<polyline fill="none" stroke="#7f7542" points="654,-413 886,-413 "/>
<text text-anchor="middle" x="770" y="-401.8" font-family="Times,serif" font-size="14.00">⇊</text>
<polyline fill="none" stroke="#7f7542" points="654,-398 886,-398 "/>
<text text-anchor="middle" x="770" y="-386.8" font-family="Times,serif" font-size="14.00">is_differentiable_on(X₁,X₂)</text>
</a>
</g>
</g>
<!-- c_0_70&#45;&gt;c_0_95 -->
<g id="edge3" class="edge">
<title>c_0_70&#45;&gt;c_0_95</title>
<path fill="none" stroke="black" d="M770,-382.8C770,-382.8 770,-348.57 770,-348.57"/>
<polygon fill="black" stroke="black" points="773.5,-348.57 770,-338.57 766.5,-348.57 773.5,-348.57"/>
</g>
<!-- c_0_73 -->
<g id="node4" class="node">
<title>c_0_73</title>
<g id="a_node4"><a xlink:href="c_0_73.html" xlink:title="{X₅ ∈ bool(X₁ × X₂)|X₆ ∈ bool(X₃ × X₄)|function(X₅)|function(X₆)|⇊|X₁ * X₂ * X₃ * X₄ * X₅ * X₆ ∈ bool(X₁ × X₄)}" target="_vizar">
<polygon fill="#f8edd1" stroke="#7f7542" points="356,-398 356,-488 636,-488 636,-398 356,-398"/>
<text text-anchor="middle" x="496" y="-476.8" font-family="Times,serif" font-size="14.00">X₅ ∈ bool(X₁ × X₂)</text>
<polyline fill="none" stroke="#7f7542" points="356,-473 636,-473 "/>
<text text-anchor="middle" x="496" y="-461.8" font-family="Times,serif" font-size="14.00">X₆ ∈ bool(X₃ × X₄)</text>
<polyline fill="none" stroke="#7f7542" points="356,-458 636,-458 "/>
<text text-anchor="middle" x="496" y="-446.8" font-family="Times,serif" font-size="14.00">function(X₅)</text>
<polyline fill="none" stroke="#7f7542" points="356,-443 636,-443 "/>
<text text-anchor="middle" x="496" y="-431.8" font-family="Times,serif" font-size="14.00">function(X₆)</text>
<polyline fill="none" stroke="#7f7542" points="356,-428 636,-428 "/>
<text text-anchor="middle" x="496" y="-416.8" font-family="Times,serif" font-size="14.00">⇊</text>
<polyline fill="none" stroke="#7f7542" points="356,-413 636,-413 "/>
<text text-anchor="middle" x="496" y="-401.8" font-family="Times,serif" font-size="14.00">X₁ * X₂ * X₃ * X₄ * X₅ * X₆ ∈ bool(X₁ × X₄)</text>
</a>
</g>
</g>
<!-- c_0_73&#45;&gt;c_0_95 -->
<g id="edge4" class="edge">
<title>c_0_73&#45;&gt;c_0_95</title>
<path fill="none" stroke="black" d="M613.67,-397.73C613.67,-397.73 613.67,-348.85 613.67,-348.85"/>
<polygon fill="black" stroke="black" points="617.17,-348.85 613.67,-338.85 610.17,-348.85 617.17,-348.85"/>
</g>
<!-- c_0_71 -->
<g id="node5" class="node">
<title>c_0_71</title>
<g id="a_node5"><a xlink:href="c_0_71.html" xlink:title="{X₁ ∈ bool(ℝ × ℝ)|X₂ ∈ bool(ℝ × ℝ)|X₃ ∈ ℝ|function(X₁)|function(X₂)|is_differentiable_in(X₁,X₃)|is_differentiable_in(X₂,X₁ . X₃)|⇊|is_differentiable_in(ℝ * ℝ * ℝ * ℝ * X₁ * X₂,X₃)}" target="_vizar">
<polygon fill="#f8edd1" stroke="#7f7542" points="16,-375.5 16,-510.5 338,-510.5 338,-375.5 16,-375.5"/>
<text text-anchor="middle" x="177" y="-499.3" font-family="Times,serif" font-size="14.00">X₁ ∈ bool(ℝ × ℝ)</text>
<polyline fill="none" stroke="#7f7542" points="16,-495.5 338,-495.5 "/>
<text text-anchor="middle" x="177" y="-484.3" font-family="Times,serif" font-size="14.00">X₂ ∈ bool(ℝ × ℝ)</text>
<polyline fill="none" stroke="#7f7542" points="16,-480.5 338,-480.5 "/>
<text text-anchor="middle" x="177" y="-469.3" font-family="Times,serif" font-size="14.00">X₃ ∈ ℝ</text>
<polyline fill="none" stroke="#7f7542" points="16,-465.5 338,-465.5 "/>
<text text-anchor="middle" x="177" y="-454.3" font-family="Times,serif" font-size="14.00">function(X₁)</text>
<polyline fill="none" stroke="#7f7542" points="16,-450.5 338,-450.5 "/>
<text text-anchor="middle" x="177" y="-439.3" font-family="Times,serif" font-size="14.00">function(X₂)</text>
<polyline fill="none" stroke="#7f7542" points="16,-435.5 338,-435.5 "/>
<text text-anchor="middle" x="177" y="-424.3" font-family="Times,serif" font-size="14.00">is_differentiable_in(X₁,X₃)</text>
<polyline fill="none" stroke="#7f7542" points="16,-420.5 338,-420.5 "/>
<text text-anchor="middle" x="177" y="-409.3" font-family="Times,serif" font-size="14.00">is_differentiable_in(X₂,X₁ . X₃)</text>
<polyline fill="none" stroke="#7f7542" points="16,-405.5 338,-405.5 "/>
<text text-anchor="middle" x="177" y="-394.3" font-family="Times,serif" font-size="14.00">⇊</text>
<polyline fill="none" stroke="#7f7542" points="16,-390.5 338,-390.5 "/>
<text text-anchor="middle" x="177" y="-379.3" font-family="Times,serif" font-size="14.00">is_differentiable_in(ℝ * ℝ * ℝ * ℝ * X₁ * X₂,X₃)</text>
</a>
</g>
</g>
<!-- c_0_71&#45;&gt;c_0_95 -->
<g id="edge5" class="edge">
<title>c_0_71&#45;&gt;c_0_95</title>
<path fill="none" stroke="black" d="M338.08,-378C454.48,-378 591.33,-378 591.33,-378 591.33,-378 591.33,-348.73 591.33,-348.73"/>
<polygon fill="black" stroke="black" points="594.83,-348.73 591.33,-338.73 587.83,-348.73 594.83,-348.73"/>
</g>
<!-- c_0_109 -->
<g id="node7" class="node">
<title>c_0_109</title>
<g id="a_node7"><a xlink:href="c_0_109.html" xlink:title="{X₁ ∈ bool(ℝ × ℝ)|X₂ ∈ bool(ℝ)|X₂ ⊆ dom(ℝ,ℝ * ℝ * ℝ * ℝ * X₁ * exp_R)|function(X₁)|is_differentiable_in(X₁,sk₅(X₂,ℝ * ℝ * ℝ * ℝ * X₁ * exp_R))|open(X₂)|⇊|is_differentiable_on(ℝ * ℝ * ℝ * ℝ * X₁ * exp_R,X₂)}" target="_vizar">
<polygon fill="#f8edd1" stroke="#7f7542" points="569.5,-16.5 569.5,-136.5 970.5,-136.5 970.5,-16.5 569.5,-16.5"/>
<text text-anchor="middle" x="770" y="-125.3" font-family="Times,serif" font-size="14.00">X₁ ∈ bool(ℝ × ℝ)</text>
<polyline fill="none" stroke="#7f7542" points="569.5,-121.5 970.5,-121.5 "/>
<text text-anchor="middle" x="770" y="-110.3" font-family="Times,serif" font-size="14.00">X₂ ∈ bool(ℝ)</text>
<polyline fill="none" stroke="#7f7542" points="569.5,-106.5 970.5,-106.5 "/>
<text text-anchor="middle" x="770" y="-95.3" font-family="Times,serif" font-size="14.00">X₂ ⊆ dom(ℝ,ℝ * ℝ * ℝ * ℝ * X₁ * exp_R)</text>
<polyline fill="none" stroke="#7f7542" points="569.5,-91.5 970.5,-91.5 "/>
<text text-anchor="middle" x="770" y="-80.3" font-family="Times,serif" font-size="14.00">function(X₁)</text>
<polyline fill="none" stroke="#7f7542" points="569.5,-76.5 970.5,-76.5 "/>
<text text-anchor="middle" x="770" y="-65.3" font-family="Times,serif" font-size="14.00">is_differentiable_in(X₁,sk₅(X₂,ℝ * ℝ * ℝ * ℝ * X₁ * exp_R))</text>
<polyline fill="none" stroke="#7f7542" points="569.5,-61.5 970.5,-61.5 "/>
<text text-anchor="middle" x="770" y="-50.3" font-family="Times,serif" font-size="14.00">open(X₂)</text>
<polyline fill="none" stroke="#7f7542" points="569.5,-46.5 970.5,-46.5 "/>
<text text-anchor="middle" x="770" y="-35.3" font-family="Times,serif" font-size="14.00">⇊</text>
<polyline fill="none" stroke="#7f7542" points="569.5,-31.5 970.5,-31.5 "/>
<text text-anchor="middle" x="770" y="-20.3" font-family="Times,serif" font-size="14.00">is_differentiable_on(ℝ * ℝ * ℝ * ℝ * X₁ * exp_R,X₂)</text>
</a>
</g>
</g>
<!-- c_0_95&#45;&gt;c_0_109 -->
<g id="edge6" class="edge">
<title>c_0_95&#45;&gt;c_0_109</title>
<path fill="none" stroke="black" stroke-dasharray="5,2" d="M770,-173.34C770,-173.34 770,-146.75 770,-146.75"/>
<polygon fill="black" stroke="black" points="773.5,-146.75 770,-136.75 766.5,-146.75 773.5,-146.75"/>
</g>
</g>
</svg>
