<?xml version="1.0" encoding="UTF-8" standalone="no"?>
<!DOCTYPE svg PUBLIC "-//W3C//DTD SVG 1.1//EN"
 "http://www.w3.org/Graphics/SVG/1.1/DTD/svg11.dtd">
<!-- Generated by graphviz version 5.0.0 (0)
 -->
<!-- Title: proof Pages: 1 -->
<svg width="1426pt" height="205pt"
 viewBox="0.00 0.00 1426.00 205.00" xmlns="http://www.w3.org/2000/svg" xmlns:xlink="http://www.w3.org/1999/xlink">
<g id="graph0" class="graph" transform="scale(1 1) rotate(0) translate(4 201)">
<title>proof</title>
<g id="clust1" class="cluster">
<title>cluster_0</title>
<polygon fill="transparent" stroke="black" stroke-dasharray="1,5" points="652,-157 652,-189 774,-189 774,-157 652,-157"/>
</g>
<g id="clust2" class="cluster">
<title>cluster_1</title>
<polygon fill="transparent" stroke="black" stroke-width="2" points="630,-105 630,-137 796,-137 796,-105 630,-105"/>
</g>
<g id="clust3" class="cluster">
<title>cluster_2</title>
<polygon fill="transparent" stroke="black" stroke-dasharray="1,5" points="8,-8 8,-85 1410,-85 1410,-8 8,-8"/>
</g>
<!-- dt_k2_sin_cos9 -->
<g id="node1" class="node">
<title>dt_k2_sin_cos9</title>
<g id="a_node1"><a xlink:href="dt_k2_sin_cos9.html" xlink:title="dt_k2_sin_cos9" target="_parent">
<polygon fill="#69d2e7" stroke="#7f7542" points="660,-165.5 660,-180.5 766,-180.5 766,-165.5 660,-165.5"/>
<text text-anchor="middle" x="713" y="-169.3" font-family="Times,serif" font-size="14.00">dt_k2_sin_cos9</text>
</a>
</g>
</g>
<!-- c_0_148 -->
<g id="node2" class="node">
<title>c_0_148</title>
<g id="a_node2"><a xlink:href="c_0_148.html" xlink:title="{arccot ∈ bool(ℝ × ℝ)}" target="_parent">
<polygon fill="#f8edd1" stroke="#7f7542" points="638,-113.5 638,-128.5 788,-128.5 788,-113.5 638,-113.5"/>
<text text-anchor="middle" x="713" y="-117.3" font-family="Times,serif" font-size="14.00">arccot ∈ bool(ℝ × ℝ)</text>
</a>
</g>
</g>
<!-- dt_k2_sin_cos9&#45;&gt;c_0_148 -->
<g id="edge1" class="edge">
<title>dt_k2_sin_cos9&#45;&gt;c_0_148</title>
<path fill="none" stroke="black" d="M713,-165.33C713,-165.33 713,-138.7 713,-138.7"/>
<polygon fill="black" stroke="black" points="716.5,-138.7 713,-128.7 709.5,-138.7 716.5,-138.7"/>
</g>
<!-- c_0_160 -->
<g id="node3" class="node">
<title>c_0_160</title>
<g id="a_node3"><a xlink:href="c_0_160.html" xlink:title="{function(ℝ + ℝ + ℝ + arctan + arccot)|ℝ + ℝ + ℝ + arctan + arccot ∈ bool(ℝ × ℝ)|⇊|⊥}" target="_parent">
<polygon fill="#fa6900" stroke="#7f7542" points="1086,-16.5 1086,-76.5 1402,-76.5 1402,-16.5 1086,-16.5"/>
<text text-anchor="middle" x="1244" y="-65.3" font-family="Times,serif" font-size="14.00">function(ℝ + ℝ + ℝ + arctan + arccot)</text>
<polyline fill="none" stroke="#7f7542" points="1086,-61.5 1402,-61.5 "/>
<text text-anchor="middle" x="1244" y="-50.3" font-family="Times,serif" font-size="14.00">ℝ + ℝ + ℝ + arctan + arccot ∈ bool(ℝ × ℝ)</text>
<polyline fill="none" stroke="#7f7542" points="1086,-46.5 1402,-46.5 "/>
<text text-anchor="middle" x="1244" y="-35.3" font-family="Times,serif" font-size="14.00">⇊</text>
<polyline fill="none" stroke="#7f7542" points="1086,-31.5 1402,-31.5 "/>
<text text-anchor="middle" x="1244" y="-20.3" font-family="Times,serif" font-size="14.00">⊥</text>
</a>
</g>
</g>
<!-- c_0_148&#45;&gt;c_0_160 -->
<g id="edge2" class="edge">
<title>c_0_148&#45;&gt;c_0_160</title>
<path fill="none" stroke="black" stroke-dasharray="5,2" d="M788.23,-123C934.72,-123 1244,-123 1244,-123 1244,-123 1244,-86.73 1244,-86.73"/>
<polygon fill="black" stroke="black" points="1247.5,-86.73 1244,-76.73 1240.5,-86.73 1247.5,-86.73"/>
</g>
<!-- c_0_162 -->
<g id="node4" class="node">
<title>c_0_162</title>
<g id="a_node4"><a xlink:href="c_0_162.html" xlink:title="⊥" target="_parent">
<polygon fill="#fa6900" stroke="#7f7542" points="1054,-39 1054,-54 1068,-54 1068,-39 1054,-39"/>
<text text-anchor="middle" x="1061" y="-42.8" font-family="Times,serif" font-size="14.00">⊥</text>
</a>
</g>
</g>
<!-- c_0_148&#45;&gt;c_0_162 -->
<g id="edge3" class="edge">
<title>c_0_148&#45;&gt;c_0_162</title>
<path fill="none" stroke="black" stroke-dasharray="5,2" d="M788.08,-118C890.38,-118 1061,-118 1061,-118 1061,-118 1061,-64.15 1061,-64.15"/>
<polygon fill="black" stroke="black" points="1064.5,-64.15 1061,-54.15 1057.5,-64.15 1064.5,-64.15"/>
</g>
<!-- c_0_151 -->
<g id="node5" class="node">
<title>c_0_151</title>
<g id="a_node5"><a xlink:href="c_0_151.html" xlink:title="{function(ℝ + ℝ + ℝ + arctan + arccot)|ℝ + ℝ + ℝ + arctan + arccot ∈ bool(ℝ × ℝ)|⇊|sk₂ ∈ sk₁}" target="_parent">
<polygon fill="#fa6900" stroke="#7f7542" points="720,-16.5 720,-76.5 1036,-76.5 1036,-16.5 720,-16.5"/>
<text text-anchor="middle" x="878" y="-65.3" font-family="Times,serif" font-size="14.00">function(ℝ + ℝ + ℝ + arctan + arccot)</text>
<polyline fill="none" stroke="#7f7542" points="720,-61.5 1036,-61.5 "/>
<text text-anchor="middle" x="878" y="-50.3" font-family="Times,serif" font-size="14.00">ℝ + ℝ + ℝ + arctan + arccot ∈ bool(ℝ × ℝ)</text>
<polyline fill="none" stroke="#7f7542" points="720,-46.5 1036,-46.5 "/>
<text text-anchor="middle" x="878" y="-35.3" font-family="Times,serif" font-size="14.00">⇊</text>
<polyline fill="none" stroke="#7f7542" points="720,-31.5 1036,-31.5 "/>
<text text-anchor="middle" x="878" y="-20.3" font-family="Times,serif" font-size="14.00">sk₂ ∈ sk₁</text>
</a>
</g>
</g>
<!-- c_0_148&#45;&gt;c_0_151 -->
<g id="edge4" class="edge">
<title>c_0_148&#45;&gt;c_0_151</title>
<path fill="none" stroke="black" stroke-dasharray="5,2" d="M754,-113.31C754,-113.31 754,-86.51 754,-86.51"/>
<polygon fill="black" stroke="black" points="757.5,-86.51 754,-76.51 750.5,-86.51 757.5,-86.51"/>
</g>
<!-- c_0_161 -->
<g id="node6" class="node">
<title>c_0_161</title>
<g id="a_node6"><a xlink:href="c_0_161.html" xlink:title="{¬ (function(ℝ + ℝ + ℝ + arctan + arccot))}" target="_parent">
<polygon fill="#fa6900" stroke="#7f7542" points="394.5,-39 394.5,-54 701.5,-54 701.5,-39 394.5,-39"/>
<text text-anchor="middle" x="548" y="-42.8" font-family="Times,serif" font-size="14.00">¬ (function(ℝ + ℝ + ℝ + arctan + arccot))</text>
</a>
</g>
</g>
<!-- c_0_148&#45;&gt;c_0_161 -->
<g id="edge5" class="edge">
<title>c_0_148&#45;&gt;c_0_161</title>
<path fill="none" stroke="black" stroke-dasharray="5,2" d="M680.33,-113.31C680.33,-113.31 680.33,-64.26 680.33,-64.26"/>
<polygon fill="black" stroke="black" points="683.83,-64.26 680.33,-54.26 676.83,-64.26 683.83,-64.26"/>
</g>
<!-- c_0_156 -->
<g id="node7" class="node">
<title>c_0_156</title>
<g id="a_node7"><a xlink:href="c_0_156.html" xlink:title="{sk₂ ∈ sk₁}" target="_parent">
<polygon fill="#fa6900" stroke="#7f7542" points="314,-39 314,-54 376,-54 376,-39 314,-39"/>
<text text-anchor="middle" x="345" y="-42.8" font-family="Times,serif" font-size="14.00">sk₂ ∈ sk₁</text>
</a>
</g>
</g>
<!-- c_0_148&#45;&gt;c_0_156 -->
<g id="edge6" class="edge">
<title>c_0_148&#45;&gt;c_0_156</title>
<path fill="none" stroke="black" stroke-dasharray="5,2" d="M637.64,-121C529.98,-121 345,-121 345,-121 345,-121 345,-64.19 345,-64.19"/>
<polygon fill="black" stroke="black" points="348.5,-64.19 345,-54.19 341.5,-64.19 348.5,-64.19"/>
</g>
<!-- c_0_153 -->
<g id="node8" class="node">
<title>c_0_153</title>
<g id="a_node8"><a xlink:href="c_0_153.html" xlink:title="{function(ℝ + ℝ + ℝ + arctan + arccot)|⇊|sk₂ ∈ sk₁}" target="_parent">
<polygon fill="#fa6900" stroke="#7f7542" points="16,-24 16,-69 296,-69 296,-24 16,-24"/>
<text text-anchor="middle" x="156" y="-57.8" font-family="Times,serif" font-size="14.00">function(ℝ + ℝ + ℝ + arctan + arccot)</text>
<polyline fill="none" stroke="#7f7542" points="16,-54 296,-54 "/>
<text text-anchor="middle" x="156" y="-42.8" font-family="Times,serif" font-size="14.00">⇊</text>
<polyline fill="none" stroke="#7f7542" points="16,-39 296,-39 "/>
<text text-anchor="middle" x="156" y="-27.8" font-family="Times,serif" font-size="14.00">sk₂ ∈ sk₁</text>
</a>
</g>
</g>
<!-- c_0_148&#45;&gt;c_0_153 -->
<g id="edge7" class="edge">
<title>c_0_148&#45;&gt;c_0_153</title>
<path fill="none" stroke="black" stroke-dasharray="5,2" d="M659.17,-113.29C659.17,-97.29 659.17,-62 659.17,-62 659.17,-62 306.16,-62 306.16,-62"/>
<polygon fill="black" stroke="black" points="306.16,-58.5 296.16,-62 306.16,-65.5 306.16,-58.5"/>
</g>
</g>
</svg>
