<?xml version="1.0" encoding="UTF-8" standalone="no"?>
<!DOCTYPE svg PUBLIC "-//W3C//DTD SVG 1.1//EN"
 "http://www.w3.org/Graphics/SVG/1.1/DTD/svg11.dtd">
<!-- Generated by graphviz version 5.0.0 (0)
 -->
<!-- Title: proof Pages: 1 -->
<svg width="504pt" height="355pt"
 viewBox="0.00 0.00 504.00 355.00" xmlns="http://www.w3.org/2000/svg" xmlns:xlink="http://www.w3.org/1999/xlink">
<g id="graph0" class="graph" transform="scale(1 1) rotate(0) translate(4 351)">
<title>proof</title>
<g id="clust1" class="cluster">
<title>cluster_0</title>
<polygon fill="transparent" stroke="black" stroke-dasharray="1,5" points="202,-307 202,-339 294,-339 294,-307 202,-307"/>
</g>
<g id="clust2" class="cluster">
<title>cluster_1</title>
<polygon fill="transparent" stroke="black" stroke-width="2" points="34,-135 34,-287 462,-287 462,-135 34,-135"/>
</g>
<g id="clust3" class="cluster">
<title>cluster_2</title>
<polygon fill="transparent" stroke="black" stroke-dasharray="1,5" points="8,-8 8,-115 488,-115 488,-8 8,-8"/>
</g>
<!-- t13_fdiff_2 -->
<g id="node1" class="node">
<title>t13_fdiff_2</title>
<g id="a_node1"><a xlink:href="t13_fdiff_2.html" xlink:title="t13_fdiff_2" target="_parent">
<polygon fill="#69d2e7" stroke="#7f7542" points="210,-315.5 210,-330.5 286,-330.5 286,-315.5 210,-315.5"/>
<text text-anchor="middle" x="248" y="-319.3" font-family="Times,serif" font-size="14.00">t13_fdiff_2</text>
</a>
</g>
</g>
<!-- c_0_78 -->
<g id="node2" class="node">
<title>c_0_78</title>
<g id="a_node2"><a xlink:href="c_0_78.html" xlink:title="{X₁ ∈ bool(ℝ × ℝ)|X₂ ∈ bool(ℝ × ℝ)|X₃ ∈ ℝ|function(X₁)|function(X₂)|is_differentiable_in(X₁,X₃)|is_differentiable_in(X₂,X₁ . X₃)|⇊|diff(ℝ * ℝ * ℝ * ℝ * X₁ * X₂,X₃) = diff(X₂,X₁ . X₃) * diff(X₁,X₃)}" target="_parent">
<polygon fill="#f8edd1" stroke="#7f7542" points="42,-143.5 42,-278.5 454,-278.5 454,-143.5 42,-143.5"/>
<text text-anchor="middle" x="248" y="-267.3" font-family="Times,serif" font-size="14.00">X₁ ∈ bool(ℝ × ℝ)</text>
<polyline fill="none" stroke="#7f7542" points="42,-263.5 454,-263.5 "/>
<text text-anchor="middle" x="248" y="-252.3" font-family="Times,serif" font-size="14.00">X₂ ∈ bool(ℝ × ℝ)</text>
<polyline fill="none" stroke="#7f7542" points="42,-248.5 454,-248.5 "/>
<text text-anchor="middle" x="248" y="-237.3" font-family="Times,serif" font-size="14.00">X₃ ∈ ℝ</text>
<polyline fill="none" stroke="#7f7542" points="42,-233.5 454,-233.5 "/>
<text text-anchor="middle" x="248" y="-222.3" font-family="Times,serif" font-size="14.00">function(X₁)</text>
<polyline fill="none" stroke="#7f7542" points="42,-218.5 454,-218.5 "/>
<text text-anchor="middle" x="248" y="-207.3" font-family="Times,serif" font-size="14.00">function(X₂)</text>
<polyline fill="none" stroke="#7f7542" points="42,-203.5 454,-203.5 "/>
<text text-anchor="middle" x="248" y="-192.3" font-family="Times,serif" font-size="14.00">is_differentiable_in(X₁,X₃)</text>
<polyline fill="none" stroke="#7f7542" points="42,-188.5 454,-188.5 "/>
<text text-anchor="middle" x="248" y="-177.3" font-family="Times,serif" font-size="14.00">is_differentiable_in(X₂,X₁ . X₃)</text>
<polyline fill="none" stroke="#7f7542" points="42,-173.5 454,-173.5 "/>
<text text-anchor="middle" x="248" y="-162.3" font-family="Times,serif" font-size="14.00">⇊</text>
<polyline fill="none" stroke="#7f7542" points="42,-158.5 454,-158.5 "/>
<text text-anchor="middle" x="248" y="-147.3" font-family="Times,serif" font-size="14.00">diff(ℝ * ℝ * ℝ * ℝ * X₁ * X₂,X₃) = diff(X₂,X₁ . X₃) * diff(X₁,X₃)</text>
</a>
</g>
</g>
<!-- t13_fdiff_2&#45;&gt;c_0_78 -->
<g id="edge1" class="edge">
<title>t13_fdiff_2&#45;&gt;c_0_78</title>
<path fill="none" stroke="black" d="M248,-315.3C248,-315.3 248,-288.55 248,-288.55"/>
<polygon fill="black" stroke="black" points="251.5,-288.55 248,-278.55 244.5,-288.55 251.5,-288.55"/>
</g>
<!-- c_0_104 -->
<g id="node3" class="node">
<title>c_0_104</title>
<g id="a_node3"><a xlink:href="c_0_104.html" xlink:title="{X₁ ∈ bool(ℝ × ℝ)|X₂ ∈ ℝ|function(X₁)|is_differentiable_in(X₁,X₂)|⇊|(exp_R . (X₁ . X₂)) * diff(X₁,X₂) = diff(ℝ * ℝ * ℝ * ℝ * X₁ * exp_R,X₂)}" target="_parent">
<polygon fill="#f8edd1" stroke="#7f7542" points="16,-16.5 16,-106.5 480,-106.5 480,-16.5 16,-16.5"/>
<text text-anchor="middle" x="248" y="-95.3" font-family="Times,serif" font-size="14.00">X₁ ∈ bool(ℝ × ℝ)</text>
<polyline fill="none" stroke="#7f7542" points="16,-91.5 480,-91.5 "/>
<text text-anchor="middle" x="248" y="-80.3" font-family="Times,serif" font-size="14.00">X₂ ∈ ℝ</text>
<polyline fill="none" stroke="#7f7542" points="16,-76.5 480,-76.5 "/>
<text text-anchor="middle" x="248" y="-65.3" font-family="Times,serif" font-size="14.00">function(X₁)</text>
<polyline fill="none" stroke="#7f7542" points="16,-61.5 480,-61.5 "/>
<text text-anchor="middle" x="248" y="-50.3" font-family="Times,serif" font-size="14.00">is_differentiable_in(X₁,X₂)</text>
<polyline fill="none" stroke="#7f7542" points="16,-46.5 480,-46.5 "/>
<text text-anchor="middle" x="248" y="-35.3" font-family="Times,serif" font-size="14.00">⇊</text>
<polyline fill="none" stroke="#7f7542" points="16,-31.5 480,-31.5 "/>
<text text-anchor="middle" x="248" y="-20.3" font-family="Times,serif" font-size="14.00">(exp_R . (X₁ . X₂)) * diff(X₁,X₂) = diff(ℝ * ℝ * ℝ * ℝ * X₁ * exp_R,X₂)</text>
</a>
</g>
</g>
<!-- c_0_78&#45;&gt;c_0_104 -->
<g id="edge2" class="edge">
<title>c_0_78&#45;&gt;c_0_104</title>
<path fill="none" stroke="black" stroke-dasharray="5,2" d="M248,-143.25C248,-143.25 248,-116.76 248,-116.76"/>
<polygon fill="black" stroke="black" points="251.5,-116.76 248,-106.76 244.5,-116.76 251.5,-116.76"/>
</g>
</g>
</svg>
