<?xml version="1.0" encoding="UTF-8" standalone="no"?>
<!DOCTYPE svg PUBLIC "-//W3C//DTD SVG 1.1//EN"
 "http://www.w3.org/Graphics/SVG/1.1/DTD/svg11.dtd">
<!-- Generated by graphviz version 5.0.0 (0)
 -->
<!-- Title: proof Pages: 1 -->
<svg width="1368pt" height="535pt"
 viewBox="0.00 0.00 1368.00 535.00" xmlns="http://www.w3.org/2000/svg" xmlns:xlink="http://www.w3.org/1999/xlink">
<g id="graph0" class="graph" transform="scale(1 1) rotate(0) translate(4 531)">
<title>proof</title>
<g id="clust1" class="cluster">
<title>cluster_0</title>
<polygon fill="transparent" stroke="black" stroke-dasharray="1,5" points="8,-367 8,-519 1352,-519 1352,-367 8,-367"/>
</g>
<g id="clust2" class="cluster">
<title>cluster_1</title>
<polygon fill="transparent" stroke="black" stroke-width="2" points="468,-165 468,-347 886,-347 886,-165 468,-165"/>
</g>
<g id="clust3" class="cluster">
<title>cluster_2</title>
<polygon fill="transparent" stroke="black" stroke-dasharray="1,5" points="468,-8 468,-145 886,-145 886,-8 468,-8"/>
</g>
<!-- c_0_74 -->
<g id="node1" class="node">
<title>c_0_74</title>
<g id="a_node1"><a xlink:href="c_0_74.html" xlink:title="{X₅ ∈ bool(X₁ × X₂)|X₆ ∈ bool(X₃ × X₄)|function(X₅)|function(X₆)|⇊|function(X₁ * X₂ * X₃ * X₄ * X₅ * X₆)}" target="_parent">
<polygon fill="#f8edd1" stroke="#7f7542" points="1106,-398 1106,-488 1344,-488 1344,-398 1106,-398"/>
<text text-anchor="middle" x="1225" y="-476.8" font-family="Times,serif" font-size="14.00">X₅ ∈ bool(X₁ × X₂)</text>
<polyline fill="none" stroke="#7f7542" points="1106,-473 1344,-473 "/>
<text text-anchor="middle" x="1225" y="-461.8" font-family="Times,serif" font-size="14.00">X₆ ∈ bool(X₃ × X₄)</text>
<polyline fill="none" stroke="#7f7542" points="1106,-458 1344,-458 "/>
<text text-anchor="middle" x="1225" y="-446.8" font-family="Times,serif" font-size="14.00">function(X₅)</text>
<polyline fill="none" stroke="#7f7542" points="1106,-443 1344,-443 "/>
<text text-anchor="middle" x="1225" y="-431.8" font-family="Times,serif" font-size="14.00">function(X₆)</text>
<polyline fill="none" stroke="#7f7542" points="1106,-428 1344,-428 "/>
<text text-anchor="middle" x="1225" y="-416.8" font-family="Times,serif" font-size="14.00">⇊</text>
<polyline fill="none" stroke="#7f7542" points="1106,-413 1344,-413 "/>
<text text-anchor="middle" x="1225" y="-401.8" font-family="Times,serif" font-size="14.00">function(X₁ * X₂ * X₃ * X₄ * X₅ * X₆)</text>
</a>
</g>
</g>
<!-- c_0_95 -->
<g id="node6" class="node">
<title>c_0_95</title>
<g id="a_node6"><a xlink:href="c_0_95.html" xlink:title="{X₁ ∈ bool(ℝ × ℝ)|X₂ ∈ bool(ℝ × ℝ)|X₃ ∈ bool(ℝ)|X₃ ⊆ dom(ℝ,ℝ * ℝ * ℝ * ℝ * X₁ * X₂)|function(X₁)|function(X₂)|is_differentiable_in(X₁,sk₅(X₃,ℝ * ℝ * ℝ * ℝ * X₁ * X₂))|is_differentiable_in(X₂,X₁ . sk₅(X₃,ℝ * ℝ * ℝ * ℝ * X₁ * X₂))|open(X₃)|⇊|is_differentiable_on(ℝ * ℝ * ℝ * ℝ * X₁ * X₂,X₃)}" target="_parent">
<polygon fill="#f8edd1" stroke="#7f7542" points="476,-173.5 476,-338.5 878,-338.5 878,-173.5 476,-173.5"/>
<text text-anchor="middle" x="677" y="-327.3" font-family="Times,serif" font-size="14.00">X₁ ∈ bool(ℝ × ℝ)</text>
<polyline fill="none" stroke="#7f7542" points="476,-323.5 878,-323.5 "/>
<text text-anchor="middle" x="677" y="-312.3" font-family="Times,serif" font-size="14.00">X₂ ∈ bool(ℝ × ℝ)</text>
<polyline fill="none" stroke="#7f7542" points="476,-308.5 878,-308.5 "/>
<text text-anchor="middle" x="677" y="-297.3" font-family="Times,serif" font-size="14.00">X₃ ∈ bool(ℝ)</text>
<polyline fill="none" stroke="#7f7542" points="476,-293.5 878,-293.5 "/>
<text text-anchor="middle" x="677" y="-282.3" font-family="Times,serif" font-size="14.00">X₃ ⊆ dom(ℝ,ℝ * ℝ * ℝ * ℝ * X₁ * X₂)</text>
<polyline fill="none" stroke="#7f7542" points="476,-278.5 878,-278.5 "/>
<text text-anchor="middle" x="677" y="-267.3" font-family="Times,serif" font-size="14.00">function(X₁)</text>
<polyline fill="none" stroke="#7f7542" points="476,-263.5 878,-263.5 "/>
<text text-anchor="middle" x="677" y="-252.3" font-family="Times,serif" font-size="14.00">function(X₂)</text>
<polyline fill="none" stroke="#7f7542" points="476,-248.5 878,-248.5 "/>
<text text-anchor="middle" x="677" y="-237.3" font-family="Times,serif" font-size="14.00">is_differentiable_in(X₁,sk₅(X₃,ℝ * ℝ * ℝ * ℝ * X₁ * X₂))</text>
<polyline fill="none" stroke="#7f7542" points="476,-233.5 878,-233.5 "/>
<text text-anchor="middle" x="677" y="-222.3" font-family="Times,serif" font-size="14.00">is_differentiable_in(X₂,X₁ . sk₅(X₃,ℝ * ℝ * ℝ * ℝ * X₁ * X₂))</text>
<polyline fill="none" stroke="#7f7542" points="476,-218.5 878,-218.5 "/>
<text text-anchor="middle" x="677" y="-207.3" font-family="Times,serif" font-size="14.00">open(X₃)</text>
<polyline fill="none" stroke="#7f7542" points="476,-203.5 878,-203.5 "/>
<text text-anchor="middle" x="677" y="-192.3" font-family="Times,serif" font-size="14.00">⇊</text>
<polyline fill="none" stroke="#7f7542" points="476,-188.5 878,-188.5 "/>
<text text-anchor="middle" x="677" y="-177.3" font-family="Times,serif" font-size="14.00">is_differentiable_on(ℝ * ℝ * ℝ * ℝ * X₁ * X₂,X₃)</text>
</a>
</g>
</g>
<!-- c_0_74&#45;&gt;c_0_95 -->
<g id="edge1" class="edge">
<title>c_0_74&#45;&gt;c_0_95</title>
<path fill="none" stroke="black" d="M1225,-397.73C1225,-342.39 1225,-256 1225,-256 1225,-256 888.33,-256 888.33,-256"/>
<polygon fill="black" stroke="black" points="888.33,-252.5 878.33,-256 888.33,-259.5 888.33,-252.5"/>
</g>
<!-- c_0_70 -->
<g id="node2" class="node">
<title>c_0_70</title>
<g id="a_node2"><a xlink:href="c_0_70.html" xlink:title="{X₁ ∈ bool(ℝ × ℝ)|X₂ ∈ bool(ℝ)|X₂ ⊆ dom(ℝ,X₁)|function(X₁)|is_differentiable_in(X₁,sk₅(X₂,X₁))|open(X₂)|⇊|is_differentiable_on(X₁,X₂)}" target="_parent">
<polygon fill="#f8edd1" stroke="#7f7542" points="856,-383 856,-503 1088,-503 1088,-383 856,-383"/>
<text text-anchor="middle" x="972" y="-491.8" font-family="Times,serif" font-size="14.00">X₁ ∈ bool(ℝ × ℝ)</text>
<polyline fill="none" stroke="#7f7542" points="856,-488 1088,-488 "/>
<text text-anchor="middle" x="972" y="-476.8" font-family="Times,serif" font-size="14.00">X₂ ∈ bool(ℝ)</text>
<polyline fill="none" stroke="#7f7542" points="856,-473 1088,-473 "/>
<text text-anchor="middle" x="972" y="-461.8" font-family="Times,serif" font-size="14.00">X₂ ⊆ dom(ℝ,X₁)</text>
<polyline fill="none" stroke="#7f7542" points="856,-458 1088,-458 "/>
<text text-anchor="middle" x="972" y="-446.8" font-family="Times,serif" font-size="14.00">function(X₁)</text>
<polyline fill="none" stroke="#7f7542" points="856,-443 1088,-443 "/>
<text text-anchor="middle" x="972" y="-431.8" font-family="Times,serif" font-size="14.00">is_differentiable_in(X₁,sk₅(X₂,X₁))</text>
<polyline fill="none" stroke="#7f7542" points="856,-428 1088,-428 "/>
<text text-anchor="middle" x="972" y="-416.8" font-family="Times,serif" font-size="14.00">open(X₂)</text>
<polyline fill="none" stroke="#7f7542" points="856,-413 1088,-413 "/>
<text text-anchor="middle" x="972" y="-401.8" font-family="Times,serif" font-size="14.00">⇊</text>
<polyline fill="none" stroke="#7f7542" points="856,-398 1088,-398 "/>
<text text-anchor="middle" x="972" y="-386.8" font-family="Times,serif" font-size="14.00">is_differentiable_on(X₁,X₂)</text>
</a>
</g>
</g>
<!-- c_0_70&#45;&gt;c_0_95 -->
<g id="edge2" class="edge">
<title>c_0_70&#45;&gt;c_0_95</title>
<path fill="none" stroke="black" d="M867,-382.8C867,-382.8 867,-348.57 867,-348.57"/>
<polygon fill="black" stroke="black" points="870.5,-348.57 867,-338.57 863.5,-348.57 870.5,-348.57"/>
</g>
<!-- c_0_71 -->
<g id="node3" class="node">
<title>c_0_71</title>
<g id="a_node3"><a xlink:href="c_0_71.html" xlink:title="{X₁ ∈ bool(ℝ × ℝ)|X₂ ∈ bool(ℝ × ℝ)|X₃ ∈ ℝ|function(X₁)|function(X₂)|is_differentiable_in(X₁,X₃)|is_differentiable_in(X₂,X₁ . X₃)|⇊|is_differentiable_in(ℝ * ℝ * ℝ * ℝ * X₁ * X₂,X₃)}" target="_parent">
<polygon fill="#f8edd1" stroke="#7f7542" points="516,-375.5 516,-510.5 838,-510.5 838,-375.5 516,-375.5"/>
<text text-anchor="middle" x="677" y="-499.3" font-family="Times,serif" font-size="14.00">X₁ ∈ bool(ℝ × ℝ)</text>
<polyline fill="none" stroke="#7f7542" points="516,-495.5 838,-495.5 "/>
<text text-anchor="middle" x="677" y="-484.3" font-family="Times,serif" font-size="14.00">X₂ ∈ bool(ℝ × ℝ)</text>
<polyline fill="none" stroke="#7f7542" points="516,-480.5 838,-480.5 "/>
<text text-anchor="middle" x="677" y="-469.3" font-family="Times,serif" font-size="14.00">X₃ ∈ ℝ</text>
<polyline fill="none" stroke="#7f7542" points="516,-465.5 838,-465.5 "/>
<text text-anchor="middle" x="677" y="-454.3" font-family="Times,serif" font-size="14.00">function(X₁)</text>
<polyline fill="none" stroke="#7f7542" points="516,-450.5 838,-450.5 "/>
<text text-anchor="middle" x="677" y="-439.3" font-family="Times,serif" font-size="14.00">function(X₂)</text>
<polyline fill="none" stroke="#7f7542" points="516,-435.5 838,-435.5 "/>
<text text-anchor="middle" x="677" y="-424.3" font-family="Times,serif" font-size="14.00">is_differentiable_in(X₁,X₃)</text>
<polyline fill="none" stroke="#7f7542" points="516,-420.5 838,-420.5 "/>
<text text-anchor="middle" x="677" y="-409.3" font-family="Times,serif" font-size="14.00">is_differentiable_in(X₂,X₁ . X₃)</text>
<polyline fill="none" stroke="#7f7542" points="516,-405.5 838,-405.5 "/>
<text text-anchor="middle" x="677" y="-394.3" font-family="Times,serif" font-size="14.00">⇊</text>
<polyline fill="none" stroke="#7f7542" points="516,-390.5 838,-390.5 "/>
<text text-anchor="middle" x="677" y="-379.3" font-family="Times,serif" font-size="14.00">is_differentiable_in(ℝ * ℝ * ℝ * ℝ * X₁ * X₂,X₃)</text>
</a>
</g>
</g>
<!-- c_0_71&#45;&gt;c_0_95 -->
<g id="edge3" class="edge">
<title>c_0_71&#45;&gt;c_0_95</title>
<path fill="none" stroke="black" d="M677,-375.49C677,-375.49 677,-348.74 677,-348.74"/>
<polygon fill="black" stroke="black" points="680.5,-348.74 677,-338.74 673.5,-348.74 680.5,-348.74"/>
</g>
<!-- c_0_73 -->
<g id="node4" class="node">
<title>c_0_73</title>
<g id="a_node4"><a xlink:href="c_0_73.html" xlink:title="{X₅ ∈ bool(X₁ × X₂)|X₆ ∈ bool(X₃ × X₄)|function(X₅)|function(X₆)|⇊|X₁ * X₂ * X₃ * X₄ * X₅ * X₆ ∈ bool(X₁ × X₄)}" target="_parent">
<polygon fill="#f8edd1" stroke="#7f7542" points="218,-398 218,-488 498,-488 498,-398 218,-398"/>
<text text-anchor="middle" x="358" y="-476.8" font-family="Times,serif" font-size="14.00">X₅ ∈ bool(X₁ × X₂)</text>
<polyline fill="none" stroke="#7f7542" points="218,-473 498,-473 "/>
<text text-anchor="middle" x="358" y="-461.8" font-family="Times,serif" font-size="14.00">X₆ ∈ bool(X₃ × X₄)</text>
<polyline fill="none" stroke="#7f7542" points="218,-458 498,-458 "/>
<text text-anchor="middle" x="358" y="-446.8" font-family="Times,serif" font-size="14.00">function(X₅)</text>
<polyline fill="none" stroke="#7f7542" points="218,-443 498,-443 "/>
<text text-anchor="middle" x="358" y="-431.8" font-family="Times,serif" font-size="14.00">function(X₆)</text>
<polyline fill="none" stroke="#7f7542" points="218,-428 498,-428 "/>
<text text-anchor="middle" x="358" y="-416.8" font-family="Times,serif" font-size="14.00">⇊</text>
<polyline fill="none" stroke="#7f7542" points="218,-413 498,-413 "/>
<text text-anchor="middle" x="358" y="-401.8" font-family="Times,serif" font-size="14.00">X₁ * X₂ * X₃ * X₄ * X₅ * X₆ ∈ bool(X₁ × X₄)</text>
</a>
</g>
</g>
<!-- c_0_73&#45;&gt;c_0_95 -->
<g id="edge4" class="edge">
<title>c_0_73&#45;&gt;c_0_95</title>
<path fill="none" stroke="black" d="M490.67,-397.73C490.67,-397.73 490.67,-348.85 490.67,-348.85"/>
<polygon fill="black" stroke="black" points="494.17,-348.85 490.67,-338.85 487.17,-348.85 494.17,-348.85"/>
</g>
<!-- c_0_72 -->
<g id="node5" class="node">
<title>c_0_72</title>
<g id="a_node5"><a xlink:href="c_0_72.html" xlink:title="{X₁ ∈ bool(ℝ)|X₁ ⊆ dom(ℝ,X₂)|X₂ ∈ bool(ℝ × ℝ)|function(X₂)|open(X₁)|⇊|is_differentiable_on(X₂,X₁)|sk₅(X₁,X₂) ∈ ℝ}" target="_parent">
<polygon fill="#f8edd1" stroke="#7f7542" points="16,-383 16,-503 200,-503 200,-383 16,-383"/>
<text text-anchor="middle" x="108" y="-491.8" font-family="Times,serif" font-size="14.00">X₁ ∈ bool(ℝ)</text>
<polyline fill="none" stroke="#7f7542" points="16,-488 200,-488 "/>
<text text-anchor="middle" x="108" y="-476.8" font-family="Times,serif" font-size="14.00">X₁ ⊆ dom(ℝ,X₂)</text>
<polyline fill="none" stroke="#7f7542" points="16,-473 200,-473 "/>
<text text-anchor="middle" x="108" y="-461.8" font-family="Times,serif" font-size="14.00">X₂ ∈ bool(ℝ × ℝ)</text>
<polyline fill="none" stroke="#7f7542" points="16,-458 200,-458 "/>
<text text-anchor="middle" x="108" y="-446.8" font-family="Times,serif" font-size="14.00">function(X₂)</text>
<polyline fill="none" stroke="#7f7542" points="16,-443 200,-443 "/>
<text text-anchor="middle" x="108" y="-431.8" font-family="Times,serif" font-size="14.00">open(X₁)</text>
<polyline fill="none" stroke="#7f7542" points="16,-428 200,-428 "/>
<text text-anchor="middle" x="108" y="-416.8" font-family="Times,serif" font-size="14.00">⇊</text>
<polyline fill="none" stroke="#7f7542" points="16,-413 200,-413 "/>
<text text-anchor="middle" x="108" y="-401.8" font-family="Times,serif" font-size="14.00">is_differentiable_on(X₂,X₁)</text>
<polyline fill="none" stroke="#7f7542" points="16,-398 200,-398 "/>
<text text-anchor="middle" x="108" y="-386.8" font-family="Times,serif" font-size="14.00">sk₅(X₁,X₂) ∈ ℝ</text>
</a>
</g>
</g>
<!-- c_0_72&#45;&gt;c_0_95 -->
<g id="edge5" class="edge">
<title>c_0_72&#45;&gt;c_0_95</title>
<path fill="none" stroke="black" d="M200.3,-390C311.43,-390 483.33,-390 483.33,-390 483.33,-390 483.33,-348.58 483.33,-348.58"/>
<polygon fill="black" stroke="black" points="486.83,-348.58 483.33,-338.58 479.83,-348.58 486.83,-348.58"/>
</g>
<!-- c_0_109 -->
<g id="node7" class="node">
<title>c_0_109</title>
<g id="a_node7"><a xlink:href="c_0_109.html" xlink:title="{X₁ ∈ bool(ℝ × ℝ)|X₂ ∈ bool(ℝ)|X₂ ⊆ dom(ℝ,ℝ * ℝ * ℝ * ℝ * X₁ * exp_R)|function(X₁)|is_differentiable_in(X₁,sk₅(X₂,ℝ * ℝ * ℝ * ℝ * X₁ * exp_R))|open(X₂)|⇊|is_differentiable_on(ℝ * ℝ * ℝ * ℝ * X₁ * exp_R,X₂)}" target="_parent">
<polygon fill="#f8edd1" stroke="#7f7542" points="476.5,-16.5 476.5,-136.5 877.5,-136.5 877.5,-16.5 476.5,-16.5"/>
<text text-anchor="middle" x="677" y="-125.3" font-family="Times,serif" font-size="14.00">X₁ ∈ bool(ℝ × ℝ)</text>
<polyline fill="none" stroke="#7f7542" points="476.5,-121.5 877.5,-121.5 "/>
<text text-anchor="middle" x="677" y="-110.3" font-family="Times,serif" font-size="14.00">X₂ ∈ bool(ℝ)</text>
<polyline fill="none" stroke="#7f7542" points="476.5,-106.5 877.5,-106.5 "/>
<text text-anchor="middle" x="677" y="-95.3" font-family="Times,serif" font-size="14.00">X₂ ⊆ dom(ℝ,ℝ * ℝ * ℝ * ℝ * X₁ * exp_R)</text>
<polyline fill="none" stroke="#7f7542" points="476.5,-91.5 877.5,-91.5 "/>
<text text-anchor="middle" x="677" y="-80.3" font-family="Times,serif" font-size="14.00">function(X₁)</text>
<polyline fill="none" stroke="#7f7542" points="476.5,-76.5 877.5,-76.5 "/>
<text text-anchor="middle" x="677" y="-65.3" font-family="Times,serif" font-size="14.00">is_differentiable_in(X₁,sk₅(X₂,ℝ * ℝ * ℝ * ℝ * X₁ * exp_R))</text>
<polyline fill="none" stroke="#7f7542" points="476.5,-61.5 877.5,-61.5 "/>
<text text-anchor="middle" x="677" y="-50.3" font-family="Times,serif" font-size="14.00">open(X₂)</text>
<polyline fill="none" stroke="#7f7542" points="476.5,-46.5 877.5,-46.5 "/>
<text text-anchor="middle" x="677" y="-35.3" font-family="Times,serif" font-size="14.00">⇊</text>
<polyline fill="none" stroke="#7f7542" points="476.5,-31.5 877.5,-31.5 "/>
<text text-anchor="middle" x="677" y="-20.3" font-family="Times,serif" font-size="14.00">is_differentiable_on(ℝ * ℝ * ℝ * ℝ * X₁ * exp_R,X₂)</text>
</a>
</g>
</g>
<!-- c_0_95&#45;&gt;c_0_109 -->
<g id="edge6" class="edge">
<title>c_0_95&#45;&gt;c_0_109</title>
<path fill="none" stroke="black" stroke-dasharray="5,2" d="M677,-173.34C677,-173.34 677,-146.75 677,-146.75"/>
<polygon fill="black" stroke="black" points="680.5,-146.75 677,-136.75 673.5,-146.75 680.5,-146.75"/>
</g>
</g>
</svg>
