<?xml version="1.0" encoding="UTF-8" standalone="no"?>
<!DOCTYPE svg PUBLIC "-//W3C//DTD SVG 1.1//EN"
 "http://www.w3.org/Graphics/SVG/1.1/DTD/svg11.dtd">
<!-- Generated by graphviz version 5.0.0 (0)
 -->
<!-- Title: proof Pages: 1 -->
<svg width="1172pt" height="385pt"
 viewBox="0.00 0.00 1172.00 385.00" xmlns="http://www.w3.org/2000/svg" xmlns:xlink="http://www.w3.org/1999/xlink">
<g id="graph0" class="graph" transform="scale(1 1) rotate(0) translate(4 381)">
<title>proof</title>
<g id="clust1" class="cluster">
<title>cluster_0</title>
<polygon fill="transparent" stroke="black" stroke-dasharray="1,5" points="129,-247 129,-369 1156,-369 1156,-247 129,-247"/>
</g>
<g id="clust2" class="cluster">
<title>cluster_1</title>
<polygon fill="transparent" stroke="black" stroke-width="2" points="258,-135 258,-227 590,-227 590,-135 258,-135"/>
</g>
<g id="clust3" class="cluster">
<title>cluster_2</title>
<polygon fill="transparent" stroke="black" stroke-dasharray="1,5" points="8,-8 8,-115 840,-115 840,-8 8,-8"/>
</g>
<!-- c_0_85 -->
<g id="node1" class="node">
<title>c_0_85</title>
<g id="a_node1"><a xlink:href="c_0_85.html" xlink:title="{is_differentiable_on(ℝ + ℝ + ℝ + arctan + arccot,sk₁)}" target="_parent">
<polygon fill="#fa6900" stroke="#7f7542" points="762.5,-300.5 762.5,-315.5 1147.5,-315.5 1147.5,-300.5 762.5,-300.5"/>
<text text-anchor="middle" x="955" y="-304.3" font-family="Times,serif" font-size="14.00">is_differentiable_on(ℝ + ℝ + ℝ + arctan + arccot,sk₁)</text>
</a>
</g>
</g>
<!-- c_0_105 -->
<g id="node5" class="node">
<title>c_0_105</title>
<g id="a_node5"><a xlink:href="c_0_105.html" xlink:title="{X₁ ∈ sk₁|function(ℝ + ℝ + ℝ + arctan + arccot)|ℝ + ℝ + ℝ + arctan + arccot ∈ bool(ℝ × ℝ)|⇊|diff(ℝ + ℝ + ℝ + arctan + arccot,X₁) = 0}" target="_parent">
<polygon fill="#fa6900" stroke="#7f7542" points="266,-143.5 266,-218.5 582,-218.5 582,-143.5 266,-143.5"/>
<text text-anchor="middle" x="424" y="-207.3" font-family="Times,serif" font-size="14.00">X₁ ∈ sk₁</text>
<polyline fill="none" stroke="#7f7542" points="266,-203.5 582,-203.5 "/>
<text text-anchor="middle" x="424" y="-192.3" font-family="Times,serif" font-size="14.00">function(ℝ + ℝ + ℝ + arctan + arccot)</text>
<polyline fill="none" stroke="#7f7542" points="266,-188.5 582,-188.5 "/>
<text text-anchor="middle" x="424" y="-177.3" font-family="Times,serif" font-size="14.00">ℝ + ℝ + ℝ + arctan + arccot ∈ bool(ℝ × ℝ)</text>
<polyline fill="none" stroke="#7f7542" points="266,-173.5 582,-173.5 "/>
<text text-anchor="middle" x="424" y="-162.3" font-family="Times,serif" font-size="14.00">⇊</text>
<polyline fill="none" stroke="#7f7542" points="266,-158.5 582,-158.5 "/>
<text text-anchor="middle" x="424" y="-147.3" font-family="Times,serif" font-size="14.00">diff(ℝ + ℝ + ℝ + arctan + arccot,X₁) = 0</text>
</a>
</g>
</g>
<!-- c_0_85&#45;&gt;c_0_105 -->
<g id="edge1" class="edge">
<title>c_0_85&#45;&gt;c_0_105</title>
<path fill="none" stroke="black" d="M797.25,-300.44C797.25,-273.1 797.25,-181 797.25,-181 797.25,-181 592.02,-181 592.02,-181"/>
<polygon fill="black" stroke="black" points="592.02,-177.5 582.02,-181 592.02,-184.5 592.02,-177.5"/>
</g>
<!-- c_0_84 -->
<g id="node2" class="node">
<title>c_0_84</title>
<g id="a_node2"><a xlink:href="c_0_84.html" xlink:title="{X₁ ∈ sk₁|⇊|((ℝ + ℝ + ℝ + arctan + arccot) `\| sk₁) . X₁ = 0}" target="_parent">
<polygon fill="#fa6900" stroke="#7f7542" points="413.5,-285.5 413.5,-330.5 744.5,-330.5 744.5,-285.5 413.5,-285.5"/>
<text text-anchor="middle" x="579" y="-319.3" font-family="Times,serif" font-size="14.00">X₁ ∈ sk₁</text>
<polyline fill="none" stroke="#7f7542" points="413.5,-315.5 744.5,-315.5 "/>
<text text-anchor="middle" x="579" y="-304.3" font-family="Times,serif" font-size="14.00">⇊</text>
<polyline fill="none" stroke="#7f7542" points="413.5,-300.5 744.5,-300.5 "/>
<text text-anchor="middle" x="579" y="-289.3" font-family="Times,serif" font-size="14.00">((ℝ + ℝ + ℝ + arctan + arccot) `| sk₁) . X₁ = 0</text>
</a>
</g>
</g>
<!-- c_0_84&#45;&gt;c_0_105 -->
<g id="edge2" class="edge">
<title>c_0_84&#45;&gt;c_0_105</title>
<path fill="none" stroke="black" d="M497.75,-285.29C497.75,-285.29 497.75,-228.69 497.75,-228.69"/>
<polygon fill="black" stroke="black" points="501.25,-228.69 497.75,-218.69 494.25,-228.69 501.25,-228.69"/>
</g>
<!-- c_0_83 -->
<g id="node3" class="node">
<title>c_0_83</title>
<g id="a_node3"><a xlink:href="c_0_83.html" xlink:title="{X₁ ∈ bool(ℝ × ℝ)|X₃ ∈ X₂|X₃ ∈ ℝ|function(X₁)|is_differentiable_on(X₁,X₂)|⇊|(X₁ `\| X₂) . X₃ = diff(X₁,X₃)}" target="_parent">
<polygon fill="#f8edd1" stroke="#7f7542" points="211,-255.5 211,-360.5 395,-360.5 395,-255.5 211,-255.5"/>
<text text-anchor="middle" x="303" y="-349.3" font-family="Times,serif" font-size="14.00">X₁ ∈ bool(ℝ × ℝ)</text>
<polyline fill="none" stroke="#7f7542" points="211,-345.5 395,-345.5 "/>
<text text-anchor="middle" x="303" y="-334.3" font-family="Times,serif" font-size="14.00">X₃ ∈ X₂</text>
<polyline fill="none" stroke="#7f7542" points="211,-330.5 395,-330.5 "/>
<text text-anchor="middle" x="303" y="-319.3" font-family="Times,serif" font-size="14.00">X₃ ∈ ℝ</text>
<polyline fill="none" stroke="#7f7542" points="211,-315.5 395,-315.5 "/>
<text text-anchor="middle" x="303" y="-304.3" font-family="Times,serif" font-size="14.00">function(X₁)</text>
<polyline fill="none" stroke="#7f7542" points="211,-300.5 395,-300.5 "/>
<text text-anchor="middle" x="303" y="-289.3" font-family="Times,serif" font-size="14.00">is_differentiable_on(X₁,X₂)</text>
<polyline fill="none" stroke="#7f7542" points="211,-285.5 395,-285.5 "/>
<text text-anchor="middle" x="303" y="-274.3" font-family="Times,serif" font-size="14.00">⇊</text>
<polyline fill="none" stroke="#7f7542" points="211,-270.5 395,-270.5 "/>
<text text-anchor="middle" x="303" y="-259.3" font-family="Times,serif" font-size="14.00">(X₁ `| X₂) . X₃ = diff(X₁,X₃)</text>
</a>
</g>
</g>
<!-- c_0_83&#45;&gt;c_0_105 -->
<g id="edge3" class="edge">
<title>c_0_83&#45;&gt;c_0_105</title>
<path fill="none" stroke="black" d="M330.5,-255.24C330.5,-255.24 330.5,-228.69 330.5,-228.69"/>
<polygon fill="black" stroke="black" points="334,-228.69 330.5,-218.69 327,-228.69 334,-228.69"/>
</g>
<!-- c_0_86 -->
<g id="node4" class="node">
<title>c_0_86</title>
<g id="a_node4"><a xlink:href="c_0_86.html" xlink:title="{X₁ ∈ sk₁|⇊|X₁ ∈ ℝ}" target="_parent">
<polygon fill="#fa6900" stroke="#7f7542" points="137,-285.5 137,-330.5 193,-330.5 193,-285.5 137,-285.5"/>
<text text-anchor="middle" x="165" y="-319.3" font-family="Times,serif" font-size="14.00">X₁ ∈ sk₁</text>
<polyline fill="none" stroke="#7f7542" points="137,-315.5 193,-315.5 "/>
<text text-anchor="middle" x="165" y="-304.3" font-family="Times,serif" font-size="14.00">⇊</text>
<polyline fill="none" stroke="#7f7542" points="137,-300.5 193,-300.5 "/>
<text text-anchor="middle" x="165" y="-289.3" font-family="Times,serif" font-size="14.00">X₁ ∈ ℝ</text>
</a>
</g>
</g>
<!-- c_0_86&#45;&gt;c_0_105 -->
<g id="edge4" class="edge">
<title>c_0_86&#45;&gt;c_0_105</title>
<path fill="none" stroke="black" d="M165,-285.29C165,-248.77 165,-181 165,-181 165,-181 255.88,-181 255.88,-181"/>
<polygon fill="black" stroke="black" points="255.88,-184.5 265.88,-181 255.88,-177.5 255.88,-184.5"/>
</g>
<!-- c_0_119 -->
<g id="node6" class="node">
<title>c_0_119</title>
<g id="a_node6"><a xlink:href="c_0_119.html" xlink:title="{X₁ ∈ sk₁|function(ℝ + ℝ + ℝ + arctan + arccot)|is_differentiable_in(ℝ + ℝ + ℝ + arctan + arccot,X₁)|ℝ + ℝ + ℝ + arctan + arccot ∈ bool(ℝ × ℝ)|⇊|(exp_R . ((ℝ + ℝ + ℝ + arctan + arccot) . X₁)) * 0 = diff(ℝ * ℝ * ℝ * ℝ * (ℝ + ℝ + ℝ + arctan + arccot) * exp_R,X₁)}" target="_parent">
<polygon fill="#fa6900" stroke="#7f7542" points="16,-16.5 16,-106.5 832,-106.5 832,-16.5 16,-16.5"/>
<text text-anchor="middle" x="424" y="-95.3" font-family="Times,serif" font-size="14.00">X₁ ∈ sk₁</text>
<polyline fill="none" stroke="#7f7542" points="16,-91.5 832,-91.5 "/>
<text text-anchor="middle" x="424" y="-80.3" font-family="Times,serif" font-size="14.00">function(ℝ + ℝ + ℝ + arctan + arccot)</text>
<polyline fill="none" stroke="#7f7542" points="16,-76.5 832,-76.5 "/>
<text text-anchor="middle" x="424" y="-65.3" font-family="Times,serif" font-size="14.00">is_differentiable_in(ℝ + ℝ + ℝ + arctan + arccot,X₁)</text>
<polyline fill="none" stroke="#7f7542" points="16,-61.5 832,-61.5 "/>
<text text-anchor="middle" x="424" y="-50.3" font-family="Times,serif" font-size="14.00">ℝ + ℝ + ℝ + arctan + arccot ∈ bool(ℝ × ℝ)</text>
<polyline fill="none" stroke="#7f7542" points="16,-46.5 832,-46.5 "/>
<text text-anchor="middle" x="424" y="-35.3" font-family="Times,serif" font-size="14.00">⇊</text>
<polyline fill="none" stroke="#7f7542" points="16,-31.5 832,-31.5 "/>
<text text-anchor="middle" x="424" y="-20.3" font-family="Times,serif" font-size="14.00">(exp_R . ((ℝ + ℝ + ℝ + arctan + arccot) . X₁)) * 0 = diff(ℝ * ℝ * ℝ * ℝ * (ℝ + ℝ + ℝ + arctan + arccot) * exp_R,X₁)</text>
</a>
</g>
</g>
<!-- c_0_105&#45;&gt;c_0_119 -->
<g id="edge5" class="edge">
<title>c_0_105&#45;&gt;c_0_119</title>
<path fill="none" stroke="black" stroke-dasharray="5,2" d="M424,-143.19C424,-143.19 424,-116.59 424,-116.59"/>
<polygon fill="black" stroke="black" points="427.5,-116.59 424,-106.59 420.5,-116.59 427.5,-116.59"/>
</g>
</g>
</svg>
