<?xml version="1.0" encoding="UTF-8" standalone="no"?>
<!DOCTYPE svg PUBLIC "-//W3C//DTD SVG 1.1//EN"
 "http://www.w3.org/Graphics/SVG/1.1/DTD/svg11.dtd">
<!-- Generated by graphviz version 5.0.0 (0)
 -->
<!-- Title: proof Pages: 1 -->
<svg width="1465pt" height="430pt"
 viewBox="0.00 0.00 1465.00 430.00" xmlns="http://www.w3.org/2000/svg" xmlns:xlink="http://www.w3.org/1999/xlink">
<g id="graph0" class="graph" transform="scale(1 1) rotate(0) translate(4 426)">
<title>proof</title>
<g id="clust1" class="cluster">
<title>cluster_0</title>
<polygon fill="transparent" stroke="black" stroke-dasharray="1,5" points="8,-292 8,-414 1449,-414 1449,-292 8,-292"/>
</g>
<g id="clust2" class="cluster">
<title>cluster_1</title>
<polygon fill="transparent" stroke="black" stroke-width="2" points="729,-165 729,-272 1311,-272 1311,-165 729,-165"/>
</g>
<g id="clust3" class="cluster">
<title>cluster_2</title>
<polygon fill="transparent" stroke="black" stroke-dasharray="1,5" points="729,-8 729,-145 1311,-145 1311,-8 729,-8"/>
</g>
<!-- c_0_86 -->
<g id="node1" class="node">
<title>c_0_86</title>
<g id="a_node1"><a xlink:href="c_0_86.html" xlink:title="{X₁ ∈ sk₁|⇊|X₁ ∈ ℝ}" target="_vizar">
<polygon fill="#fa6900" stroke="#7f7542" points="1385,-330.5 1385,-375.5 1441,-375.5 1441,-330.5 1385,-330.5"/>
<text text-anchor="middle" x="1413" y="-364.3" font-family="Times,serif" font-size="14.00">X₁ ∈ sk₁</text>
<polyline fill="none" stroke="#7f7542" points="1385,-360.5 1441,-360.5 "/>
<text text-anchor="middle" x="1413" y="-349.3" font-family="Times,serif" font-size="14.00">⇊</text>
<polyline fill="none" stroke="#7f7542" points="1385,-345.5 1441,-345.5 "/>
<text text-anchor="middle" x="1413" y="-334.3" font-family="Times,serif" font-size="14.00">X₁ ∈ ℝ</text>
</a>
</g>
</g>
<!-- c_0_138 -->
<g id="node5" class="node">
<title>c_0_138</title>
<g id="a_node5"><a xlink:href="c_0_138.html" xlink:title="{diff(ℝ * ℝ * ℝ * ℝ * (ℝ + ℝ + ℝ + arctan + arccot) * exp_R,sk₂) = 0|function(ℝ * ℝ * ℝ * ℝ * (ℝ + ℝ + ℝ + arctan + arccot) * exp_R)|is_differentiable_on(ℝ * ℝ * ℝ * ℝ * (ℝ + ℝ + ℝ + arctan + arccot) * exp_R,sk₁)|ℝ * ℝ * ℝ * ℝ * (ℝ + ℝ + ℝ + arctan + arccot) * exp_R ∈ bool(ℝ × ℝ)|⇊|⊥}" target="_vizar">
<polygon fill="#fa6900" stroke="#7f7542" points="737.5,-173.5 737.5,-263.5 1302.5,-263.5 1302.5,-173.5 737.5,-173.5"/>
<text text-anchor="middle" x="1020" y="-252.3" font-family="Times,serif" font-size="14.00">diff(ℝ * ℝ * ℝ * ℝ * (ℝ + ℝ + ℝ + arctan + arccot) * exp_R,sk₂) = 0</text>
<polyline fill="none" stroke="#7f7542" points="737.5,-248.5 1302.5,-248.5 "/>
<text text-anchor="middle" x="1020" y="-237.3" font-family="Times,serif" font-size="14.00">function(ℝ * ℝ * ℝ * ℝ * (ℝ + ℝ + ℝ + arctan + arccot) * exp_R)</text>
<polyline fill="none" stroke="#7f7542" points="737.5,-233.5 1302.5,-233.5 "/>
<text text-anchor="middle" x="1020" y="-222.3" font-family="Times,serif" font-size="14.00">is_differentiable_on(ℝ * ℝ * ℝ * ℝ * (ℝ + ℝ + ℝ + arctan + arccot) * exp_R,sk₁)</text>
<polyline fill="none" stroke="#7f7542" points="737.5,-218.5 1302.5,-218.5 "/>
<text text-anchor="middle" x="1020" y="-207.3" font-family="Times,serif" font-size="14.00">ℝ * ℝ * ℝ * ℝ * (ℝ + ℝ + ℝ + arctan + arccot) * exp_R ∈ bool(ℝ × ℝ)</text>
<polyline fill="none" stroke="#7f7542" points="737.5,-203.5 1302.5,-203.5 "/>
<text text-anchor="middle" x="1020" y="-192.3" font-family="Times,serif" font-size="14.00">⇊</text>
<polyline fill="none" stroke="#7f7542" points="737.5,-188.5 1302.5,-188.5 "/>
<text text-anchor="middle" x="1020" y="-177.3" font-family="Times,serif" font-size="14.00">⊥</text>
</a>
</g>
</g>
<!-- c_0_86&#45;&gt;c_0_138 -->
<g id="edge1" class="edge">
<title>c_0_86&#45;&gt;c_0_138</title>
<path fill="none" stroke="black" d="M1413,-330.4C1413,-291.97 1413,-218 1413,-218 1413,-218 1312.74,-218 1312.74,-218"/>
<polygon fill="black" stroke="black" points="1312.74,-214.5 1302.74,-218 1312.74,-221.5 1312.74,-214.5"/>
</g>
<!-- c_0_83 -->
<g id="node2" class="node">
<title>c_0_83</title>
<g id="a_node2"><a xlink:href="c_0_83.html" xlink:title="{X₁ ∈ bool(ℝ × ℝ)|X₃ ∈ X₂|X₃ ∈ ℝ|function(X₁)|is_differentiable_on(X₁,X₂)|⇊|(X₁ `\| X₂) . X₃ = diff(X₁,X₃)}" target="_vizar">
<polygon fill="#f8edd1" stroke="#7f7542" points="1183,-300.5 1183,-405.5 1367,-405.5 1367,-300.5 1183,-300.5"/>
<text text-anchor="middle" x="1275" y="-394.3" font-family="Times,serif" font-size="14.00">X₁ ∈ bool(ℝ × ℝ)</text>
<polyline fill="none" stroke="#7f7542" points="1183,-390.5 1367,-390.5 "/>
<text text-anchor="middle" x="1275" y="-379.3" font-family="Times,serif" font-size="14.00">X₃ ∈ X₂</text>
<polyline fill="none" stroke="#7f7542" points="1183,-375.5 1367,-375.5 "/>
<text text-anchor="middle" x="1275" y="-364.3" font-family="Times,serif" font-size="14.00">X₃ ∈ ℝ</text>
<polyline fill="none" stroke="#7f7542" points="1183,-360.5 1367,-360.5 "/>
<text text-anchor="middle" x="1275" y="-349.3" font-family="Times,serif" font-size="14.00">function(X₁)</text>
<polyline fill="none" stroke="#7f7542" points="1183,-345.5 1367,-345.5 "/>
<text text-anchor="middle" x="1275" y="-334.3" font-family="Times,serif" font-size="14.00">is_differentiable_on(X₁,X₂)</text>
<polyline fill="none" stroke="#7f7542" points="1183,-330.5 1367,-330.5 "/>
<text text-anchor="middle" x="1275" y="-319.3" font-family="Times,serif" font-size="14.00">⇊</text>
<polyline fill="none" stroke="#7f7542" points="1183,-315.5 1367,-315.5 "/>
<text text-anchor="middle" x="1275" y="-304.3" font-family="Times,serif" font-size="14.00">(X₁ `| X₂) . X₃ = diff(X₁,X₃)</text>
</a>
</g>
</g>
<!-- c_0_83&#45;&gt;c_0_138 -->
<g id="edge2" class="edge">
<title>c_0_83&#45;&gt;c_0_138</title>
<path fill="none" stroke="black" d="M1242.75,-300.23C1242.75,-300.23 1242.75,-273.72 1242.75,-273.72"/>
<polygon fill="black" stroke="black" points="1246.25,-273.72 1242.75,-263.72 1239.25,-273.72 1246.25,-273.72"/>
</g>
<!-- c_0_131 -->
<g id="node3" class="node">
<title>c_0_131</title>
<g id="a_node3"><a xlink:href="c_0_131.html" xlink:title="{is_differentiable_on(ℝ * ℝ * ℝ * ℝ * (ℝ + ℝ + ℝ + arctan + arccot) * exp_R,sk₁)|⇊|sk₂ ∈ sk₁}" target="_vizar">
<polygon fill="#fa6900" stroke="#7f7542" points="599.5,-330.5 599.5,-375.5 1164.5,-375.5 1164.5,-330.5 599.5,-330.5"/>
<text text-anchor="middle" x="882" y="-364.3" font-family="Times,serif" font-size="14.00">is_differentiable_on(ℝ * ℝ * ℝ * ℝ * (ℝ + ℝ + ℝ + arctan + arccot) * exp_R,sk₁)</text>
<polyline fill="none" stroke="#7f7542" points="599.5,-360.5 1164.5,-360.5 "/>
<text text-anchor="middle" x="882" y="-349.3" font-family="Times,serif" font-size="14.00">⇊</text>
<polyline fill="none" stroke="#7f7542" points="599.5,-345.5 1164.5,-345.5 "/>
<text text-anchor="middle" x="882" y="-334.3" font-family="Times,serif" font-size="14.00">sk₂ ∈ sk₁</text>
</a>
</g>
</g>
<!-- c_0_131&#45;&gt;c_0_138 -->
<g id="edge3" class="edge">
<title>c_0_131&#45;&gt;c_0_138</title>
<path fill="none" stroke="black" d="M1022.17,-330.49C1022.17,-330.49 1022.17,-273.71 1022.17,-273.71"/>
<polygon fill="black" stroke="black" points="1025.67,-273.71 1022.17,-263.71 1018.67,-273.71 1025.67,-273.71"/>
</g>
<!-- c_0_133 -->
<g id="node4" class="node">
<title>c_0_133</title>
<g id="a_node4"><a xlink:href="c_0_133.html" xlink:title="{((ℝ * ℝ * ℝ * ℝ * (ℝ + ℝ + ℝ + arctan + arccot) * exp_R) `\| sk₁) . sk₂ = 0|is_differentiable_on(ℝ * ℝ * ℝ * ℝ * (ℝ + ℝ + ℝ + arctan + arccot) * exp_R,sk₁)|⇊|⊥}" target="_vizar">
<polygon fill="#fa6900" stroke="#7f7542" points="16.5,-323 16.5,-383 581.5,-383 581.5,-323 16.5,-323"/>
<text text-anchor="middle" x="299" y="-371.8" font-family="Times,serif" font-size="14.00">((ℝ * ℝ * ℝ * ℝ * (ℝ + ℝ + ℝ + arctan + arccot) * exp_R) `| sk₁) . sk₂ = 0</text>
<polyline fill="none" stroke="#7f7542" points="16.5,-368 581.5,-368 "/>
<text text-anchor="middle" x="299" y="-356.8" font-family="Times,serif" font-size="14.00">is_differentiable_on(ℝ * ℝ * ℝ * ℝ * (ℝ + ℝ + ℝ + arctan + arccot) * exp_R,sk₁)</text>
<polyline fill="none" stroke="#7f7542" points="16.5,-353 581.5,-353 "/>
<text text-anchor="middle" x="299" y="-341.8" font-family="Times,serif" font-size="14.00">⇊</text>
<polyline fill="none" stroke="#7f7542" points="16.5,-338 581.5,-338 "/>
<text text-anchor="middle" x="299" y="-326.8" font-family="Times,serif" font-size="14.00">⊥</text>
</a>
</g>
</g>
<!-- c_0_133&#45;&gt;c_0_138 -->
<g id="edge4" class="edge">
<title>c_0_133&#45;&gt;c_0_138</title>
<path fill="none" stroke="black" d="M581.76,-326C729.48,-326 879.83,-326 879.83,-326 879.83,-326 879.83,-273.78 879.83,-273.78"/>
<polygon fill="black" stroke="black" points="883.33,-273.78 879.83,-263.78 876.33,-273.78 883.33,-273.78"/>
</g>
<!-- c_0_143 -->
<g id="node6" class="node">
<title>c_0_143</title>
<g id="a_node6"><a xlink:href="c_0_143.html" xlink:title="{function(ℝ * ℝ * ℝ * ℝ * (ℝ + ℝ + ℝ + arctan + arccot) * exp_R)|function(ℝ + ℝ + ℝ + arctan + arccot)|is_differentiable_in(ℝ + ℝ + ℝ + arctan + arccot,sk₂)|is_differentiable_on(ℝ * ℝ * ℝ * ℝ * (ℝ + ℝ + ℝ + arctan + arccot) * exp_R,sk₁)|ℝ * ℝ * ℝ * ℝ * (ℝ + ℝ + ℝ + arctan + arccot) * exp_R ∈ bool(ℝ × ℝ)|ℝ + ℝ + ℝ + arctan + arccot ∈ bool(ℝ × ℝ)|⇊|⊥}" target="_vizar">
<polygon fill="#fa6900" stroke="#7f7542" points="737.5,-16.5 737.5,-136.5 1302.5,-136.5 1302.5,-16.5 737.5,-16.5"/>
<text text-anchor="middle" x="1020" y="-125.3" font-family="Times,serif" font-size="14.00">function(ℝ * ℝ * ℝ * ℝ * (ℝ + ℝ + ℝ + arctan + arccot) * exp_R)</text>
<polyline fill="none" stroke="#7f7542" points="737.5,-121.5 1302.5,-121.5 "/>
<text text-anchor="middle" x="1020" y="-110.3" font-family="Times,serif" font-size="14.00">function(ℝ + ℝ + ℝ + arctan + arccot)</text>
<polyline fill="none" stroke="#7f7542" points="737.5,-106.5 1302.5,-106.5 "/>
<text text-anchor="middle" x="1020" y="-95.3" font-family="Times,serif" font-size="14.00">is_differentiable_in(ℝ + ℝ + ℝ + arctan + arccot,sk₂)</text>
<polyline fill="none" stroke="#7f7542" points="737.5,-91.5 1302.5,-91.5 "/>
<text text-anchor="middle" x="1020" y="-80.3" font-family="Times,serif" font-size="14.00">is_differentiable_on(ℝ * ℝ * ℝ * ℝ * (ℝ + ℝ + ℝ + arctan + arccot) * exp_R,sk₁)</text>
<polyline fill="none" stroke="#7f7542" points="737.5,-76.5 1302.5,-76.5 "/>
<text text-anchor="middle" x="1020" y="-65.3" font-family="Times,serif" font-size="14.00">ℝ * ℝ * ℝ * ℝ * (ℝ + ℝ + ℝ + arctan + arccot) * exp_R ∈ bool(ℝ × ℝ)</text>
<polyline fill="none" stroke="#7f7542" points="737.5,-61.5 1302.5,-61.5 "/>
<text text-anchor="middle" x="1020" y="-50.3" font-family="Times,serif" font-size="14.00">ℝ + ℝ + ℝ + arctan + arccot ∈ bool(ℝ × ℝ)</text>
<polyline fill="none" stroke="#7f7542" points="737.5,-46.5 1302.5,-46.5 "/>
<text text-anchor="middle" x="1020" y="-35.3" font-family="Times,serif" font-size="14.00">⇊</text>
<polyline fill="none" stroke="#7f7542" points="737.5,-31.5 1302.5,-31.5 "/>
<text text-anchor="middle" x="1020" y="-20.3" font-family="Times,serif" font-size="14.00">⊥</text>
</a>
</g>
</g>
<!-- c_0_138&#45;&gt;c_0_143 -->
<g id="edge5" class="edge">
<title>c_0_138&#45;&gt;c_0_143</title>
<path fill="none" stroke="black" stroke-dasharray="5,2" d="M1020,-173.18C1020,-173.18 1020,-146.68 1020,-146.68"/>
<polygon fill="black" stroke="black" points="1023.5,-146.68 1020,-136.68 1016.5,-146.68 1023.5,-146.68"/>
</g>
</g>
</svg>
