<?xml version="1.0" encoding="UTF-8" standalone="no"?>
<!DOCTYPE svg PUBLIC "-//W3C//DTD SVG 1.1//EN"
 "http://www.w3.org/Graphics/SVG/1.1/DTD/svg11.dtd">
<!-- Generated by graphviz version 5.0.0 (0)
 -->
<!-- Title: proof Pages: 1 -->
<svg width="124pt" height="108pt"
 viewBox="0.00 0.00 124.00 108.00" xmlns="http://www.w3.org/2000/svg" xmlns:xlink="http://www.w3.org/1999/xlink">
<g id="graph0" class="graph" transform="scale(1 1) rotate(0) translate(4 104)">
<title>proof</title>
<g id="clust1" class="cluster">
<title>cluster_1</title>
<polygon fill="transparent" stroke="black" stroke-width="2" points="8,-60 8,-92 108,-92 108,-60 8,-60"/>
</g>
<g id="clust2" class="cluster">
<title>cluster_2</title>
<polygon fill="transparent" stroke="black" stroke-dasharray="1,5" points="26,-8 26,-40 90,-40 90,-8 26,-8"/>
</g>
<!-- cc3_xreal_0 -->
<g id="node1" class="node">
<title>cc3_xreal_0</title>
<g id="a_node1"><a xlink:href="cc3_xreal_0.html" xlink:title="cc3_xreal_0" target="_parent">
<polygon fill="#69d2e7" stroke="#7f7542" points="16.5,-68.5 16.5,-83.5 99.5,-83.5 99.5,-68.5 16.5,-68.5"/>
<text text-anchor="middle" x="58" y="-72.3" font-family="Times,serif" font-size="14.00">cc3_xreal_0</text>
</a>
</g>
</g>
<!-- c_0_90 -->
<g id="node2" class="node">
<title>c_0_90</title>
<g id="a_node2"><a xlink:href="c_0_90.html" xlink:title="{R₁ ∈ ℂ}" target="_parent">
<polygon fill="#f8edd1" stroke="#7f7542" points="34.5,-16.5 34.5,-31.5 81.5,-31.5 81.5,-16.5 34.5,-16.5"/>
<text text-anchor="middle" x="58" y="-20.3" font-family="Times,serif" font-size="14.00">R₁ ∈ ℂ</text>
</a>
</g>
</g>
<!-- cc3_xreal_0&#45;&gt;c_0_90 -->
<g id="edge1" class="edge">
<title>cc3_xreal_0&#45;&gt;c_0_90</title>
<path fill="none" stroke="black" d="M58,-68.33C58,-68.33 58,-41.7 58,-41.7"/>
<polygon fill="black" stroke="black" points="61.5,-41.7 58,-31.7 54.5,-41.7 61.5,-41.7"/>
</g>
</g>
</svg>
