<?xml version="1.0" encoding="UTF-8" standalone="no"?>
<!DOCTYPE svg PUBLIC "-//W3C//DTD SVG 1.1//EN"
 "http://www.w3.org/Graphics/SVG/1.1/DTD/svg11.dtd">
<!-- Generated by graphviz version 5.0.0 (0)
 -->
<!-- Title: proof Pages: 1 -->
<svg width="325pt" height="108pt"
 viewBox="0.00 0.00 325.00 108.00" xmlns="http://www.w3.org/2000/svg" xmlns:xlink="http://www.w3.org/1999/xlink">
<g id="graph0" class="graph" transform="scale(1 1) rotate(0) translate(4 104)">
<title>proof</title>
<g id="clust1" class="cluster">
<title>cluster_1</title>
<polygon fill="transparent" stroke="black" stroke-width="2" points="106,-60 106,-92 228,-92 228,-60 106,-60"/>
</g>
<g id="clust2" class="cluster">
<title>cluster_2</title>
<polygon fill="transparent" stroke="black" stroke-dasharray="1,5" points="8,-8 8,-40 309,-40 309,-8 8,-8"/>
</g>
<!-- dt_k1_sin_cos9 -->
<g id="node1" class="node">
<title>dt_k1_sin_cos9</title>
<g id="a_node1"><a xlink:href="dt_k1_sin_cos9.html" xlink:title="dt_k1_sin_cos9" target="_vizar">
<polygon fill="#69d2e7" stroke="#7f7542" points="114,-68.5 114,-83.5 220,-83.5 220,-68.5 114,-68.5"/>
<text text-anchor="middle" x="167" y="-72.3" font-family="Times,serif" font-size="14.00">dt_k1_sin_cos9</text>
</a>
</g>
</g>
<!-- c_0_147 -->
<g id="node2" class="node">
<title>c_0_147</title>
<g id="a_node2"><a xlink:href="c_0_147.html" xlink:title="{function(arctan)}" target="_vizar">
<polygon fill="#f8edd1" stroke="#7f7542" points="185.5,-16.5 185.5,-31.5 300.5,-31.5 300.5,-16.5 185.5,-16.5"/>
<text text-anchor="middle" x="243" y="-20.3" font-family="Times,serif" font-size="14.00">function(arctan)</text>
</a>
</g>
</g>
<!-- dt_k1_sin_cos9&#45;&gt;c_0_147 -->
<g id="edge1" class="edge">
<title>dt_k1_sin_cos9&#45;&gt;c_0_147</title>
<path fill="none" stroke="black" d="M202.75,-68.33C202.75,-68.33 202.75,-41.7 202.75,-41.7"/>
<polygon fill="black" stroke="black" points="206.25,-41.7 202.75,-31.7 199.25,-41.7 206.25,-41.7"/>
</g>
<!-- c_0_149 -->
<g id="node3" class="node">
<title>c_0_149</title>
<g id="a_node3"><a xlink:href="c_0_149.html" xlink:title="{arctan ∈ bool(ℝ × ℝ)}" target="_vizar">
<polygon fill="#f8edd1" stroke="#7f7542" points="16.5,-16.5 16.5,-31.5 167.5,-31.5 167.5,-16.5 16.5,-16.5"/>
<text text-anchor="middle" x="92" y="-20.3" font-family="Times,serif" font-size="14.00">arctan ∈ bool(ℝ × ℝ)</text>
</a>
</g>
</g>
<!-- dt_k1_sin_cos9&#45;&gt;c_0_149 -->
<g id="edge2" class="edge">
<title>dt_k1_sin_cos9&#45;&gt;c_0_149</title>
<path fill="none" stroke="black" d="M140.75,-68.33C140.75,-68.33 140.75,-41.7 140.75,-41.7"/>
<polygon fill="black" stroke="black" points="144.25,-41.7 140.75,-31.7 137.25,-41.7 144.25,-41.7"/>
</g>
</g>
</svg>
