<?xml version="1.0" encoding="UTF-8" standalone="no"?>
<!DOCTYPE svg PUBLIC "-//W3C//DTD SVG 1.1//EN"
 "http://www.w3.org/Graphics/SVG/1.1/DTD/svg11.dtd">
<!-- Generated by graphviz version 5.0.0 (0)
 -->
<!-- Title: proof Pages: 1 -->
<svg width="576pt" height="183pt"
 viewBox="0.00 0.00 576.00 183.00" xmlns="http://www.w3.org/2000/svg" xmlns:xlink="http://www.w3.org/1999/xlink">
<g id="graph0" class="graph" transform="scale(1 1) rotate(0) translate(4 179)">
<title>proof</title>
<g id="clust1" class="cluster">
<title>cluster_1</title>
<polygon fill="transparent" stroke="black" stroke-width="2" points="231,-135 231,-167 357,-167 357,-135 231,-135"/>
</g>
<g id="clust2" class="cluster">
<title>cluster_2</title>
<polygon fill="transparent" stroke="black" stroke-dasharray="1,5" points="8,-8 8,-115 560,-115 560,-8 8,-8"/>
</g>
<!-- dt_k1_partfun1 -->
<g id="node1" class="node">
<title>dt_k1_partfun1</title>
<g id="a_node1"><a xlink:href="dt_k1_partfun1.html" xlink:title="dt_k1_partfun1" target="_vizar">
<polygon fill="#69d2e7" stroke="#7f7542" points="239.5,-143.5 239.5,-158.5 348.5,-158.5 348.5,-143.5 239.5,-143.5"/>
<text text-anchor="middle" x="294" y="-147.3" font-family="Times,serif" font-size="14.00">dt_k1_partfun1</text>
</a>
</g>
</g>
<!-- c_0_74 -->
<g id="node2" class="node">
<title>c_0_74</title>
<g id="a_node2"><a xlink:href="c_0_74.html" xlink:title="{X₅ ∈ bool(X₁ × X₂)|X₆ ∈ bool(X₃ × X₄)|function(X₅)|function(X₆)|⇊|function(X₁ * X₂ * X₃ * X₄ * X₅ * X₆)}" target="_vizar">
<polygon fill="#f8edd1" stroke="#7f7542" points="314,-16.5 314,-106.5 552,-106.5 552,-16.5 314,-16.5"/>
<text text-anchor="middle" x="433" y="-95.3" font-family="Times,serif" font-size="14.00">X₅ ∈ bool(X₁ × X₂)</text>
<polyline fill="none" stroke="#7f7542" points="314,-91.5 552,-91.5 "/>
<text text-anchor="middle" x="433" y="-80.3" font-family="Times,serif" font-size="14.00">X₆ ∈ bool(X₃ × X₄)</text>
<polyline fill="none" stroke="#7f7542" points="314,-76.5 552,-76.5 "/>
<text text-anchor="middle" x="433" y="-65.3" font-family="Times,serif" font-size="14.00">function(X₅)</text>
<polyline fill="none" stroke="#7f7542" points="314,-61.5 552,-61.5 "/>
<text text-anchor="middle" x="433" y="-50.3" font-family="Times,serif" font-size="14.00">function(X₆)</text>
<polyline fill="none" stroke="#7f7542" points="314,-46.5 552,-46.5 "/>
<text text-anchor="middle" x="433" y="-35.3" font-family="Times,serif" font-size="14.00">⇊</text>
<polyline fill="none" stroke="#7f7542" points="314,-31.5 552,-31.5 "/>
<text text-anchor="middle" x="433" y="-20.3" font-family="Times,serif" font-size="14.00">function(X₁ * X₂ * X₃ * X₄ * X₅ * X₆)</text>
</a>
</g>
</g>
<!-- dt_k1_partfun1&#45;&gt;c_0_74 -->
<g id="edge1" class="edge">
<title>dt_k1_partfun1&#45;&gt;c_0_74</title>
<path fill="none" stroke="black" d="M331.25,-143.37C331.25,-143.37 331.25,-116.66 331.25,-116.66"/>
<polygon fill="black" stroke="black" points="334.75,-116.66 331.25,-106.66 327.75,-116.66 334.75,-116.66"/>
</g>
<!-- c_0_73 -->
<g id="node3" class="node">
<title>c_0_73</title>
<g id="a_node3"><a xlink:href="c_0_73.html" xlink:title="{X₅ ∈ bool(X₁ × X₂)|X₆ ∈ bool(X₃ × X₄)|function(X₅)|function(X₆)|⇊|X₁ * X₂ * X₃ * X₄ * X₅ * X₆ ∈ bool(X₁ × X₄)}" target="_vizar">
<polygon fill="#f8edd1" stroke="#7f7542" points="16,-16.5 16,-106.5 296,-106.5 296,-16.5 16,-16.5"/>
<text text-anchor="middle" x="156" y="-95.3" font-family="Times,serif" font-size="14.00">X₅ ∈ bool(X₁ × X₂)</text>
<polyline fill="none" stroke="#7f7542" points="16,-91.5 296,-91.5 "/>
<text text-anchor="middle" x="156" y="-80.3" font-family="Times,serif" font-size="14.00">X₆ ∈ bool(X₃ × X₄)</text>
<polyline fill="none" stroke="#7f7542" points="16,-76.5 296,-76.5 "/>
<text text-anchor="middle" x="156" y="-65.3" font-family="Times,serif" font-size="14.00">function(X₅)</text>
<polyline fill="none" stroke="#7f7542" points="16,-61.5 296,-61.5 "/>
<text text-anchor="middle" x="156" y="-50.3" font-family="Times,serif" font-size="14.00">function(X₆)</text>
<polyline fill="none" stroke="#7f7542" points="16,-46.5 296,-46.5 "/>
<text text-anchor="middle" x="156" y="-35.3" font-family="Times,serif" font-size="14.00">⇊</text>
<polyline fill="none" stroke="#7f7542" points="16,-31.5 296,-31.5 "/>
<text text-anchor="middle" x="156" y="-20.3" font-family="Times,serif" font-size="14.00">X₁ * X₂ * X₃ * X₄ * X₅ * X₆ ∈ bool(X₁ × X₄)</text>
</a>
</g>
</g>
<!-- dt_k1_partfun1&#45;&gt;c_0_73 -->
<g id="edge2" class="edge">
<title>dt_k1_partfun1&#45;&gt;c_0_73</title>
<path fill="none" stroke="black" d="M267.75,-143.37C267.75,-143.37 267.75,-116.66 267.75,-116.66"/>
<polygon fill="black" stroke="black" points="271.25,-116.66 267.75,-106.66 264.25,-116.66 271.25,-116.66"/>
</g>
</g>
</svg>
