<?xml version="1.0" encoding="UTF-8" standalone="no"?>
<!DOCTYPE svg PUBLIC "-//W3C//DTD SVG 1.1//EN"
 "http://www.w3.org/Graphics/SVG/1.1/DTD/svg11.dtd">
<!-- Generated by graphviz version 5.0.0 (0)
 -->
<!-- Title: proof Pages: 1 -->
<svg width="253pt" height="460pt"
 viewBox="0.00 0.00 253.00 460.00" xmlns="http://www.w3.org/2000/svg" xmlns:xlink="http://www.w3.org/1999/xlink">
<g id="graph0" class="graph" transform="scale(1 1) rotate(0) translate(4 456)">
<title>proof</title>
<g id="clust1" class="cluster">
<title>cluster_0</title>
<polygon fill="transparent" stroke="black" stroke-dasharray="1,5" points="9,-307 9,-444 237,-444 237,-307 9,-307"/>
</g>
<g id="clust2" class="cluster">
<title>cluster_1</title>
<polygon fill="transparent" stroke="black" stroke-width="2" points="11,-150 11,-287 129,-287 129,-150 11,-150"/>
</g>
<g id="clust3" class="cluster">
<title>cluster_2</title>
<polygon fill="transparent" stroke="black" stroke-dasharray="1,5" points="8,-8 8,-130 132,-130 132,-8 8,-8"/>
</g>
<!-- c_0_12 -->
<g id="node1" class="node">
<title>c_0_12</title>
<g id="a_node1"><a xlink:href="c_0_12.html" xlink:title="{X₁ ∈ X₂|X₂ ∈ X₃|X₃ ∈ X₄|X₄ ∈ X₅|X₅ ∈ sk₁₆(X₆)|⇊|X₁ ∩ X₆ = Ø|X₆ = Ø}" target="_vizar">
<polygon fill="#f8edd1" stroke="#7f7542" points="141.5,-315.5 141.5,-435.5 228.5,-435.5 228.5,-315.5 141.5,-315.5"/>
<text text-anchor="middle" x="185" y="-424.3" font-family="Times,serif" font-size="14.00">X₁ ∈ X₂</text>
<polyline fill="none" stroke="#7f7542" points="141.5,-420.5 228.5,-420.5 "/>
<text text-anchor="middle" x="185" y="-409.3" font-family="Times,serif" font-size="14.00">X₂ ∈ X₃</text>
<polyline fill="none" stroke="#7f7542" points="141.5,-405.5 228.5,-405.5 "/>
<text text-anchor="middle" x="185" y="-394.3" font-family="Times,serif" font-size="14.00">X₃ ∈ X₄</text>
<polyline fill="none" stroke="#7f7542" points="141.5,-390.5 228.5,-390.5 "/>
<text text-anchor="middle" x="185" y="-379.3" font-family="Times,serif" font-size="14.00">X₄ ∈ X₅</text>
<polyline fill="none" stroke="#7f7542" points="141.5,-375.5 228.5,-375.5 "/>
<text text-anchor="middle" x="185" y="-364.3" font-family="Times,serif" font-size="14.00">X₅ ∈ sk₁₆(X₆)</text>
<polyline fill="none" stroke="#7f7542" points="141.5,-360.5 228.5,-360.5 "/>
<text text-anchor="middle" x="185" y="-349.3" font-family="Times,serif" font-size="14.00">⇊</text>
<polyline fill="none" stroke="#7f7542" points="141.5,-345.5 228.5,-345.5 "/>
<text text-anchor="middle" x="185" y="-334.3" font-family="Times,serif" font-size="14.00">X₁ ∩ X₆ = Ø</text>
<polyline fill="none" stroke="#7f7542" points="141.5,-330.5 228.5,-330.5 "/>
<text text-anchor="middle" x="185" y="-319.3" font-family="Times,serif" font-size="14.00">X₆ = Ø</text>
</a>
</g>
</g>
<!-- c_0_18 -->
<g id="node3" class="node">
<title>c_0_18</title>
<g id="a_node3"><a xlink:href="c_0_18.html" xlink:title="{X₂ ∈ X₆|X₃ ∈ X₁|X₄ ∈ X₃|X₅ ∈ X₄|X₆ ∈ X₅|⇊|X₂ ∩ \{X₁\} = Ø|\{X₁\} = Ø}" target="_vizar">
<polygon fill="#f8edd1" stroke="#7f7542" points="19,-158.5 19,-278.5 121,-278.5 121,-158.5 19,-158.5"/>
<text text-anchor="middle" x="70" y="-267.3" font-family="Times,serif" font-size="14.00">X₂ ∈ X₆</text>
<polyline fill="none" stroke="#7f7542" points="19,-263.5 121,-263.5 "/>
<text text-anchor="middle" x="70" y="-252.3" font-family="Times,serif" font-size="14.00">X₃ ∈ X₁</text>
<polyline fill="none" stroke="#7f7542" points="19,-248.5 121,-248.5 "/>
<text text-anchor="middle" x="70" y="-237.3" font-family="Times,serif" font-size="14.00">X₄ ∈ X₃</text>
<polyline fill="none" stroke="#7f7542" points="19,-233.5 121,-233.5 "/>
<text text-anchor="middle" x="70" y="-222.3" font-family="Times,serif" font-size="14.00">X₅ ∈ X₄</text>
<polyline fill="none" stroke="#7f7542" points="19,-218.5 121,-218.5 "/>
<text text-anchor="middle" x="70" y="-207.3" font-family="Times,serif" font-size="14.00">X₆ ∈ X₅</text>
<polyline fill="none" stroke="#7f7542" points="19,-203.5 121,-203.5 "/>
<text text-anchor="middle" x="70" y="-192.3" font-family="Times,serif" font-size="14.00">⇊</text>
<polyline fill="none" stroke="#7f7542" points="19,-188.5 121,-188.5 "/>
<text text-anchor="middle" x="70" y="-177.3" font-family="Times,serif" font-size="14.00">X₂ ∩ {X₁} = Ø</text>
<polyline fill="none" stroke="#7f7542" points="19,-173.5 121,-173.5 "/>
<text text-anchor="middle" x="70" y="-162.3" font-family="Times,serif" font-size="14.00">{X₁} = Ø</text>
</a>
</g>
</g>
<!-- c_0_12&#45;&gt;c_0_18 -->
<g id="edge1" class="edge">
<title>c_0_12&#45;&gt;c_0_18</title>
<path fill="none" stroke="black" d="M141.45,-337C115.27,-337 87,-337 87,-337 87,-337 87,-288.79 87,-288.79"/>
<polygon fill="black" stroke="black" points="90.5,-288.79 87,-278.79 83.5,-288.79 90.5,-288.79"/>
</g>
<!-- c_0_16 -->
<g id="node2" class="node">
<title>c_0_16</title>
<g id="a_node2"><a xlink:href="c_0_16.html" xlink:title="{\{X₁\} = Ø|sk₁₆(\{X₁\}) = X₁}" target="_vizar">
<polygon fill="#f8edd1" stroke="#7f7542" points="17,-360.5 17,-390.5 123,-390.5 123,-360.5 17,-360.5"/>
<text text-anchor="middle" x="70" y="-379.3" font-family="Times,serif" font-size="14.00">{X₁} = Ø</text>
<polyline fill="none" stroke="#7f7542" points="17,-375.5 123,-375.5 "/>
<text text-anchor="middle" x="70" y="-364.3" font-family="Times,serif" font-size="14.00">sk₁₆({X₁}) = X₁</text>
</a>
</g>
</g>
<!-- c_0_16&#45;&gt;c_0_18 -->
<g id="edge2" class="edge">
<title>c_0_16&#45;&gt;c_0_18</title>
<path fill="none" stroke="black" d="M53,-360.45C53,-360.45 53,-288.7 53,-288.7"/>
<polygon fill="black" stroke="black" points="56.5,-288.7 53,-278.7 49.5,-288.7 56.5,-288.7"/>
</g>
<!-- c_0_22 -->
<g id="node4" class="node">
<title>c_0_22</title>
<g id="a_node4"><a xlink:href="c_0_22.html" xlink:title="{X₁ ∈ X₄|X₂ ∈ sk₅|X₃ ∈ X₂|X₄ ∈ X₃|⇊|X₁ ∩ \{sk₆\} = Ø|\{sk₆\} = Ø}" target="_vizar">
<polygon fill="#fa6900" stroke="#7f7542" points="16,-16.5 16,-121.5 124,-121.5 124,-16.5 16,-16.5"/>
<text text-anchor="middle" x="70" y="-110.3" font-family="Times,serif" font-size="14.00">X₁ ∈ X₄</text>
<polyline fill="none" stroke="#7f7542" points="16,-106.5 124,-106.5 "/>
<text text-anchor="middle" x="70" y="-95.3" font-family="Times,serif" font-size="14.00">X₂ ∈ sk₅</text>
<polyline fill="none" stroke="#7f7542" points="16,-91.5 124,-91.5 "/>
<text text-anchor="middle" x="70" y="-80.3" font-family="Times,serif" font-size="14.00">X₃ ∈ X₂</text>
<polyline fill="none" stroke="#7f7542" points="16,-76.5 124,-76.5 "/>
<text text-anchor="middle" x="70" y="-65.3" font-family="Times,serif" font-size="14.00">X₄ ∈ X₃</text>
<polyline fill="none" stroke="#7f7542" points="16,-61.5 124,-61.5 "/>
<text text-anchor="middle" x="70" y="-50.3" font-family="Times,serif" font-size="14.00">⇊</text>
<polyline fill="none" stroke="#7f7542" points="16,-46.5 124,-46.5 "/>
<text text-anchor="middle" x="70" y="-35.3" font-family="Times,serif" font-size="14.00">X₁ ∩ {sk₆} = Ø</text>
<polyline fill="none" stroke="#7f7542" points="16,-31.5 124,-31.5 "/>
<text text-anchor="middle" x="70" y="-20.3" font-family="Times,serif" font-size="14.00">{sk₆} = Ø</text>
</a>
</g>
</g>
<!-- c_0_18&#45;&gt;c_0_22 -->
<g id="edge3" class="edge">
<title>c_0_18&#45;&gt;c_0_22</title>
<path fill="none" stroke="black" stroke-dasharray="5,2" d="M70,-158.12C70,-158.12 70,-131.9 70,-131.9"/>
<polygon fill="black" stroke="black" points="73.5,-131.9 70,-121.9 66.5,-131.9 73.5,-131.9"/>
</g>
</g>
</svg>
