<?xml version="1.0" encoding="UTF-8" standalone="no"?>
<!DOCTYPE svg PUBLIC "-//W3C//DTD SVG 1.1//EN"
 "http://www.w3.org/Graphics/SVG/1.1/DTD/svg11.dtd">
<!-- Generated by graphviz version 5.0.0 (0)
 -->
<!-- Title: proof Pages: 1 -->
<svg width="266pt" height="325pt"
 viewBox="0.00 0.00 266.00 325.00" xmlns="http://www.w3.org/2000/svg" xmlns:xlink="http://www.w3.org/1999/xlink">
<g id="graph0" class="graph" transform="scale(1 1) rotate(0) translate(4 321)">
<title>proof</title>
<g id="clust1" class="cluster">
<title>cluster_0</title>
<polygon fill="transparent" stroke="black" stroke-dasharray="1,5" points="77,-232 77,-309 181,-309 181,-232 77,-232"/>
</g>
<g id="clust2" class="cluster">
<title>cluster_1</title>
<polygon fill="transparent" stroke="black" stroke-width="2" points="68,-165 68,-212 190,-212 190,-165 68,-165"/>
</g>
<g id="clust3" class="cluster">
<title>cluster_2</title>
<polygon fill="transparent" stroke="black" stroke-dasharray="1,5" points="8,-8 8,-145 250,-145 250,-8 8,-8"/>
</g>
<!-- c_0_13 -->
<g id="node1" class="node">
<title>c_0_13</title>
<g id="a_node1"><a xlink:href="c_0_13.html" xlink:title="{X₁ = \{X₂\}|⇊|X₁ = Ø|sk₁₆(X₁) = X₂}" target="_parent">
<polygon fill="#f8edd1" stroke="#7f7542" points="85,-240.5 85,-300.5 173,-300.5 173,-240.5 85,-240.5"/>
<text text-anchor="middle" x="129" y="-289.3" font-family="Times,serif" font-size="14.00">X₁ = {X₂}</text>
<polyline fill="none" stroke="#7f7542" points="85,-285.5 173,-285.5 "/>
<text text-anchor="middle" x="129" y="-274.3" font-family="Times,serif" font-size="14.00">⇊</text>
<polyline fill="none" stroke="#7f7542" points="85,-270.5 173,-270.5 "/>
<text text-anchor="middle" x="129" y="-259.3" font-family="Times,serif" font-size="14.00">X₁ = Ø</text>
<polyline fill="none" stroke="#7f7542" points="85,-255.5 173,-255.5 "/>
<text text-anchor="middle" x="129" y="-244.3" font-family="Times,serif" font-size="14.00">sk₁₆(X₁) = X₂</text>
</a>
</g>
</g>
<!-- c_0_16 -->
<g id="node2" class="node">
<title>c_0_16</title>
<g id="a_node2"><a xlink:href="c_0_16.html" xlink:title="{\{X₁\} = Ø|sk₁₆(\{X₁\}) = X₁}" target="_parent">
<polygon fill="#f8edd1" stroke="#7f7542" points="76,-173.5 76,-203.5 182,-203.5 182,-173.5 76,-173.5"/>
<text text-anchor="middle" x="129" y="-192.3" font-family="Times,serif" font-size="14.00">{X₁} = Ø</text>
<polyline fill="none" stroke="#7f7542" points="76,-188.5 182,-188.5 "/>
<text text-anchor="middle" x="129" y="-177.3" font-family="Times,serif" font-size="14.00">sk₁₆({X₁}) = X₁</text>
</a>
</g>
</g>
<!-- c_0_13&#45;&gt;c_0_16 -->
<g id="edge1" class="edge">
<title>c_0_13&#45;&gt;c_0_16</title>
<path fill="none" stroke="black" d="M129,-240.43C129,-240.43 129,-213.84 129,-213.84"/>
<polygon fill="black" stroke="black" points="132.5,-213.84 129,-203.84 125.5,-213.84 132.5,-213.84"/>
</g>
<!-- c_0_18 -->
<g id="node3" class="node">
<title>c_0_18</title>
<g id="a_node3"><a xlink:href="c_0_18.html" xlink:title="{X₂ ∈ X₆|X₃ ∈ X₁|X₄ ∈ X₃|X₅ ∈ X₄|X₆ ∈ X₅|⇊|X₂ ∩ \{X₁\} = Ø|\{X₁\} = Ø}" target="_parent">
<polygon fill="#f8edd1" stroke="#7f7542" points="140,-16.5 140,-136.5 242,-136.5 242,-16.5 140,-16.5"/>
<text text-anchor="middle" x="191" y="-125.3" font-family="Times,serif" font-size="14.00">X₂ ∈ X₆</text>
<polyline fill="none" stroke="#7f7542" points="140,-121.5 242,-121.5 "/>
<text text-anchor="middle" x="191" y="-110.3" font-family="Times,serif" font-size="14.00">X₃ ∈ X₁</text>
<polyline fill="none" stroke="#7f7542" points="140,-106.5 242,-106.5 "/>
<text text-anchor="middle" x="191" y="-95.3" font-family="Times,serif" font-size="14.00">X₄ ∈ X₃</text>
<polyline fill="none" stroke="#7f7542" points="140,-91.5 242,-91.5 "/>
<text text-anchor="middle" x="191" y="-80.3" font-family="Times,serif" font-size="14.00">X₅ ∈ X₄</text>
<polyline fill="none" stroke="#7f7542" points="140,-76.5 242,-76.5 "/>
<text text-anchor="middle" x="191" y="-65.3" font-family="Times,serif" font-size="14.00">X₆ ∈ X₅</text>
<polyline fill="none" stroke="#7f7542" points="140,-61.5 242,-61.5 "/>
<text text-anchor="middle" x="191" y="-50.3" font-family="Times,serif" font-size="14.00">⇊</text>
<polyline fill="none" stroke="#7f7542" points="140,-46.5 242,-46.5 "/>
<text text-anchor="middle" x="191" y="-35.3" font-family="Times,serif" font-size="14.00">X₂ ∩ {X₁} = Ø</text>
<polyline fill="none" stroke="#7f7542" points="140,-31.5 242,-31.5 "/>
<text text-anchor="middle" x="191" y="-20.3" font-family="Times,serif" font-size="14.00">{X₁} = Ø</text>
</a>
</g>
</g>
<!-- c_0_16&#45;&gt;c_0_18 -->
<g id="edge2" class="edge">
<title>c_0_16&#45;&gt;c_0_18</title>
<path fill="none" stroke="black" stroke-dasharray="5,2" d="M161,-173.4C161,-173.4 161,-146.62 161,-146.62"/>
<polygon fill="black" stroke="black" points="164.5,-146.62 161,-136.62 157.5,-146.62 164.5,-146.62"/>
</g>
<!-- c_0_43 -->
<g id="node4" class="node">
<title>c_0_43</title>
<g id="a_node4"><a xlink:href="c_0_43.html" xlink:title="{sk₁₆(\{X₁\}) = X₁}" target="_parent">
<polygon fill="#f8edd1" stroke="#7f7542" points="16,-69 16,-84 122,-84 122,-69 16,-69"/>
<text text-anchor="middle" x="69" y="-72.8" font-family="Times,serif" font-size="14.00">sk₁₆({X₁}) = X₁</text>
</a>
</g>
</g>
<!-- c_0_16&#45;&gt;c_0_43 -->
<g id="edge3" class="edge">
<title>c_0_16&#45;&gt;c_0_43</title>
<path fill="none" stroke="black" stroke-dasharray="5,2" d="M99,-173.4C99,-173.4 99,-94.12 99,-94.12"/>
<polygon fill="black" stroke="black" points="102.5,-94.12 99,-84.12 95.5,-94.12 102.5,-94.12"/>
</g>
</g>
</svg>
