<?xml version="1.0" encoding="UTF-8" standalone="no"?>
<!DOCTYPE svg PUBLIC "-//W3C//DTD SVG 1.1//EN"
 "http://www.w3.org/Graphics/SVG/1.1/DTD/svg11.dtd">
<!-- Generated by graphviz version 5.0.0 (0)
 -->
<!-- Title: proof Pages: 1 -->
<svg width="228pt" height="340pt"
 viewBox="0.00 0.00 228.00 340.00" xmlns="http://www.w3.org/2000/svg" xmlns:xlink="http://www.w3.org/1999/xlink">
<g id="graph0" class="graph" transform="scale(1 1) rotate(0) translate(4 336)">
<title>proof</title>
<g id="clust1" class="cluster">
<title>cluster_0</title>
<polygon fill="transparent" stroke="black" stroke-dasharray="1,5" points="8,-217 8,-324 212,-324 212,-217 8,-217"/>
</g>
<g id="clust2" class="cluster">
<title>cluster_1</title>
<polygon fill="transparent" stroke="black" stroke-width="2" points="48,-105 48,-197 172,-197 172,-105 48,-105"/>
</g>
<g id="clust3" class="cluster">
<title>cluster_2</title>
<polygon fill="transparent" stroke="black" stroke-dasharray="1,5" points="48,-8 48,-85 172,-85 172,-8 48,-8"/>
</g>
<!-- c_0_24 -->
<g id="node1" class="node">
<title>c_0_24</title>
<g id="a_node1"><a xlink:href="c_0_24.html" xlink:title="{sk₃ ∈ sk₄}" target="_parent">
<polygon fill="#fa6900" stroke="#7f7542" points="142,-263 142,-278 204,-278 204,-263 142,-263"/>
<text text-anchor="middle" x="173" y="-266.8" font-family="Times,serif" font-size="14.00">sk₃ ∈ sk₄</text>
</a>
</g>
</g>
<!-- c_0_33 -->
<g id="node3" class="node">
<title>c_0_33</title>
<g id="a_node3"><a xlink:href="c_0_33.html" xlink:title="{X₁ ∈ X₂|X₂ ∈ sk₃|⇊|X₁ ∩ \{sk₆\} = Ø|\{sk₆\} = Ø}" target="_parent">
<polygon fill="#fa6900" stroke="#7f7542" points="56,-113.5 56,-188.5 164,-188.5 164,-113.5 56,-113.5"/>
<text text-anchor="middle" x="110" y="-177.3" font-family="Times,serif" font-size="14.00">X₁ ∈ X₂</text>
<polyline fill="none" stroke="#7f7542" points="56,-173.5 164,-173.5 "/>
<text text-anchor="middle" x="110" y="-162.3" font-family="Times,serif" font-size="14.00">X₂ ∈ sk₃</text>
<polyline fill="none" stroke="#7f7542" points="56,-158.5 164,-158.5 "/>
<text text-anchor="middle" x="110" y="-147.3" font-family="Times,serif" font-size="14.00">⇊</text>
<polyline fill="none" stroke="#7f7542" points="56,-143.5 164,-143.5 "/>
<text text-anchor="middle" x="110" y="-132.3" font-family="Times,serif" font-size="14.00">X₁ ∩ {sk₆} = Ø</text>
<polyline fill="none" stroke="#7f7542" points="56,-128.5 164,-128.5 "/>
<text text-anchor="middle" x="110" y="-117.3" font-family="Times,serif" font-size="14.00">{sk₆} = Ø</text>
</a>
</g>
</g>
<!-- c_0_24&#45;&gt;c_0_33 -->
<g id="edge1" class="edge">
<title>c_0_24&#45;&gt;c_0_33</title>
<path fill="none" stroke="black" d="M153,-262.66C153,-262.66 153,-198.66 153,-198.66"/>
<polygon fill="black" stroke="black" points="156.5,-198.66 153,-188.66 149.5,-198.66 156.5,-198.66"/>
</g>
<!-- c_0_27 -->
<g id="node2" class="node">
<title>c_0_27</title>
<g id="a_node2"><a xlink:href="c_0_27.html" xlink:title="{X₁ ∈ X₃|X₂ ∈ sk₄|X₃ ∈ X₂|⇊|X₁ ∩ \{sk₆\} = Ø|\{sk₆\} = Ø}" target="_parent">
<polygon fill="#fa6900" stroke="#7f7542" points="16,-225.5 16,-315.5 124,-315.5 124,-225.5 16,-225.5"/>
<text text-anchor="middle" x="70" y="-304.3" font-family="Times,serif" font-size="14.00">X₁ ∈ X₃</text>
<polyline fill="none" stroke="#7f7542" points="16,-300.5 124,-300.5 "/>
<text text-anchor="middle" x="70" y="-289.3" font-family="Times,serif" font-size="14.00">X₂ ∈ sk₄</text>
<polyline fill="none" stroke="#7f7542" points="16,-285.5 124,-285.5 "/>
<text text-anchor="middle" x="70" y="-274.3" font-family="Times,serif" font-size="14.00">X₃ ∈ X₂</text>
<polyline fill="none" stroke="#7f7542" points="16,-270.5 124,-270.5 "/>
<text text-anchor="middle" x="70" y="-259.3" font-family="Times,serif" font-size="14.00">⇊</text>
<polyline fill="none" stroke="#7f7542" points="16,-255.5 124,-255.5 "/>
<text text-anchor="middle" x="70" y="-244.3" font-family="Times,serif" font-size="14.00">X₁ ∩ {sk₆} = Ø</text>
<polyline fill="none" stroke="#7f7542" points="16,-240.5 124,-240.5 "/>
<text text-anchor="middle" x="70" y="-229.3" font-family="Times,serif" font-size="14.00">{sk₆} = Ø</text>
</a>
</g>
</g>
<!-- c_0_27&#45;&gt;c_0_33 -->
<g id="edge2" class="edge">
<title>c_0_27&#45;&gt;c_0_33</title>
<path fill="none" stroke="black" d="M90,-225.32C90,-225.32 90,-198.83 90,-198.83"/>
<polygon fill="black" stroke="black" points="93.5,-198.83 90,-188.83 86.5,-198.83 93.5,-198.83"/>
</g>
<!-- c_0_38 -->
<g id="node4" class="node">
<title>c_0_38</title>
<g id="a_node4"><a xlink:href="c_0_38.html" xlink:title="{X₁ ∈ sk₂|⇊|X₁ ∩ \{sk₆\} = Ø|\{sk₆\} = Ø}" target="_parent">
<polygon fill="#fa6900" stroke="#7f7542" points="56,-16.5 56,-76.5 164,-76.5 164,-16.5 56,-16.5"/>
<text text-anchor="middle" x="110" y="-65.3" font-family="Times,serif" font-size="14.00">X₁ ∈ sk₂</text>
<polyline fill="none" stroke="#7f7542" points="56,-61.5 164,-61.5 "/>
<text text-anchor="middle" x="110" y="-50.3" font-family="Times,serif" font-size="14.00">⇊</text>
<polyline fill="none" stroke="#7f7542" points="56,-46.5 164,-46.5 "/>
<text text-anchor="middle" x="110" y="-35.3" font-family="Times,serif" font-size="14.00">X₁ ∩ {sk₆} = Ø</text>
<polyline fill="none" stroke="#7f7542" points="56,-31.5 164,-31.5 "/>
<text text-anchor="middle" x="110" y="-20.3" font-family="Times,serif" font-size="14.00">{sk₆} = Ø</text>
</a>
</g>
</g>
<!-- c_0_33&#45;&gt;c_0_38 -->
<g id="edge3" class="edge">
<title>c_0_33&#45;&gt;c_0_38</title>
<path fill="none" stroke="black" stroke-dasharray="5,2" d="M110,-113.27C110,-113.27 110,-86.64 110,-86.64"/>
<polygon fill="black" stroke="black" points="113.5,-86.64 110,-76.64 106.5,-86.64 113.5,-86.64"/>
</g>
</g>
</svg>
