<?xml version="1.0" encoding="UTF-8" standalone="no"?>
<!DOCTYPE svg PUBLIC "-//W3C//DTD SVG 1.1//EN"
 "http://www.w3.org/Graphics/SVG/1.1/DTD/svg11.dtd">
<!-- Generated by graphviz version 5.0.0 (0)
 -->
<!-- Title: proof Pages: 1 -->
<svg width="232pt" height="295pt"
 viewBox="0.00 0.00 232.00 295.00" xmlns="http://www.w3.org/2000/svg" xmlns:xlink="http://www.w3.org/1999/xlink">
<g id="graph0" class="graph" transform="scale(1 1) rotate(0) translate(4 291)">
<title>proof</title>
<g id="clust1" class="cluster">
<title>cluster_0</title>
<polygon fill="transparent" stroke="black" stroke-dasharray="1,5" points="8,-202 8,-279 216,-279 216,-202 8,-202"/>
</g>
<g id="clust2" class="cluster">
<title>cluster_1</title>
<polygon fill="transparent" stroke="black" stroke-width="2" points="45,-120 45,-182 169,-182 169,-120 45,-120"/>
</g>
<g id="clust3" class="cluster">
<title>cluster_2</title>
<polygon fill="transparent" stroke="black" stroke-dasharray="1,5" points="62,-8 62,-100 152,-100 152,-8 62,-8"/>
</g>
<!-- c_0_38 -->
<g id="node1" class="node">
<title>c_0_38</title>
<g id="a_node1"><a xlink:href="c_0_38.html" xlink:title="{X₁ ∈ sk₂|⇊|X₁ ∩ \{sk₆\} = Ø|\{sk₆\} = Ø}" target="_vizar">
<polygon fill="#fa6900" stroke="#7f7542" points="100,-210.5 100,-270.5 208,-270.5 208,-210.5 100,-210.5"/>
<text text-anchor="middle" x="154" y="-259.3" font-family="Times,serif" font-size="14.00">X₁ ∈ sk₂</text>
<polyline fill="none" stroke="#7f7542" points="100,-255.5 208,-255.5 "/>
<text text-anchor="middle" x="154" y="-244.3" font-family="Times,serif" font-size="14.00">⇊</text>
<polyline fill="none" stroke="#7f7542" points="100,-240.5 208,-240.5 "/>
<text text-anchor="middle" x="154" y="-229.3" font-family="Times,serif" font-size="14.00">X₁ ∩ {sk₆} = Ø</text>
<polyline fill="none" stroke="#7f7542" points="100,-225.5 208,-225.5 "/>
<text text-anchor="middle" x="154" y="-214.3" font-family="Times,serif" font-size="14.00">{sk₆} = Ø</text>
</a>
</g>
</g>
<!-- c_0_41 -->
<g id="node3" class="node">
<title>c_0_41</title>
<g id="a_node3"><a xlink:href="c_0_41.html" xlink:title="{X₁ ∈ sk₂|⇊|X₁ ∩ \{sk₆\} = Ø}" target="_vizar">
<polygon fill="#fa6900" stroke="#7f7542" points="53,-128.5 53,-173.5 161,-173.5 161,-128.5 53,-128.5"/>
<text text-anchor="middle" x="107" y="-162.3" font-family="Times,serif" font-size="14.00">X₁ ∈ sk₂</text>
<polyline fill="none" stroke="#7f7542" points="53,-158.5 161,-158.5 "/>
<text text-anchor="middle" x="107" y="-147.3" font-family="Times,serif" font-size="14.00">⇊</text>
<polyline fill="none" stroke="#7f7542" points="53,-143.5 161,-143.5 "/>
<text text-anchor="middle" x="107" y="-132.3" font-family="Times,serif" font-size="14.00">X₁ ∩ {sk₆} = Ø</text>
</a>
</g>
</g>
<!-- c_0_38&#45;&gt;c_0_41 -->
<g id="edge1" class="edge">
<title>c_0_38&#45;&gt;c_0_41</title>
<path fill="none" stroke="black" d="M130.5,-210.2C130.5,-210.2 130.5,-183.63 130.5,-183.63"/>
<polygon fill="black" stroke="black" points="134,-183.63 130.5,-173.63 127,-183.63 134,-183.63"/>
</g>
<!-- c_0_39 -->
<g id="node2" class="node">
<title>c_0_39</title>
<g id="a_node2"><a xlink:href="c_0_39.html" xlink:title="{\{X₁\} ≠ Ø}" target="_vizar">
<polygon fill="#f8edd1" stroke="#7f7542" points="16,-233 16,-248 82,-248 82,-233 16,-233"/>
<text text-anchor="middle" x="49" y="-236.8" font-family="Times,serif" font-size="14.00">{X₁} ≠ Ø</text>
</a>
</g>
</g>
<!-- c_0_39&#45;&gt;c_0_41 -->
<g id="edge2" class="edge">
<title>c_0_39&#45;&gt;c_0_41</title>
<path fill="none" stroke="black" d="M67.5,-232.87C67.5,-232.87 67.5,-183.81 67.5,-183.81"/>
<polygon fill="black" stroke="black" points="71,-183.81 67.5,-173.81 64,-183.81 71,-183.81"/>
</g>
<!-- c_0_42 -->
<g id="node4" class="node">
<title>c_0_42</title>
<g id="a_node4"><a xlink:href="c_0_42.html" xlink:title="{X₁ ∈ sk₂|X₂ ∈ X₁|X₂ ∈ \{sk₆\}|⇊|⊥}" target="_vizar">
<polygon fill="#fa6900" stroke="#7f7542" points="70,-16.5 70,-91.5 144,-91.5 144,-16.5 70,-16.5"/>
<text text-anchor="middle" x="107" y="-80.3" font-family="Times,serif" font-size="14.00">X₁ ∈ sk₂</text>
<polyline fill="none" stroke="#7f7542" points="70,-76.5 144,-76.5 "/>
<text text-anchor="middle" x="107" y="-65.3" font-family="Times,serif" font-size="14.00">X₂ ∈ X₁</text>
<polyline fill="none" stroke="#7f7542" points="70,-61.5 144,-61.5 "/>
<text text-anchor="middle" x="107" y="-50.3" font-family="Times,serif" font-size="14.00">X₂ ∈ {sk₆}</text>
<polyline fill="none" stroke="#7f7542" points="70,-46.5 144,-46.5 "/>
<text text-anchor="middle" x="107" y="-35.3" font-family="Times,serif" font-size="14.00">⇊</text>
<polyline fill="none" stroke="#7f7542" points="70,-31.5 144,-31.5 "/>
<text text-anchor="middle" x="107" y="-20.3" font-family="Times,serif" font-size="14.00">⊥</text>
</a>
</g>
</g>
<!-- c_0_41&#45;&gt;c_0_42 -->
<g id="edge3" class="edge">
<title>c_0_41&#45;&gt;c_0_42</title>
<path fill="none" stroke="black" stroke-dasharray="5,2" d="M107,-128.01C107,-128.01 107,-101.61 107,-101.61"/>
<polygon fill="black" stroke="black" points="110.5,-101.61 107,-91.61 103.5,-101.61 110.5,-101.61"/>
</g>
</g>
</svg>
