<?xml version="1.0" encoding="UTF-8" standalone="no"?>
<!DOCTYPE svg PUBLIC "-//W3C//DTD SVG 1.1//EN"
 "http://www.w3.org/Graphics/SVG/1.1/DTD/svg11.dtd">
<!-- Generated by graphviz version 5.0.0 (0)
 -->
<!-- Title: proof Pages: 1 -->
<svg width="470pt" height="76pt"
 viewBox="0.00 0.00 470.00 76.00" xmlns="http://www.w3.org/2000/svg" xmlns:xlink="http://www.w3.org/1999/xlink">
<g id="graph0" class="graph" transform="scale(1 1) rotate(0) translate(4 72)">
<title>proof</title>
<!-- t10_xregular -->
<g id="node1" class="node">
<title>t10_xregular</title>
<g id="a_node1"><a xlink:href="t10_xregular.html" xlink:title="t10_xregular" target="_parent">
<polygon fill="#fa6900" stroke="#7f7542" points="185,-52.5 185,-67.5 277,-67.5 277,-52.5 185,-52.5"/>
<text text-anchor="middle" x="231" y="-56.3" font-family="Times,serif" font-size="14.00">t10_xregular</text>
</a>
</g>
</g>
<!-- c_0_20 -->
<g id="node2" class="node">
<title>c_0_20</title>
<g id="a_node2"><a xlink:href="c_0_20.html" xlink:title="{sk₄ ∈ sk₅}" target="_parent">
<polygon fill="#fa6900" stroke="#7f7542" points="0,-0.5 0,-15.5 62,-15.5 62,-0.5 0,-0.5"/>
<text text-anchor="middle" x="31" y="-4.3" font-family="Times,serif" font-size="14.00">sk₄ ∈ sk₅</text>
</a>
</g>
</g>
<!-- t10_xregular&#45;&gt;c_0_20 -->
<g id="edge1" class="edge">
<title>t10_xregular&#45;&gt;c_0_20</title>
<path fill="none" stroke="black" d="M184.86,-62C125.8,-62 31,-62 31,-62 31,-62 31,-25.51 31,-25.51"/>
<polygon fill="black" stroke="black" points="34.5,-25.51 31,-15.51 27.5,-25.51 34.5,-25.51"/>
</g>
<!-- c_0_17 -->
<g id="node3" class="node">
<title>c_0_17</title>
<g id="a_node3"><a xlink:href="c_0_17.html" xlink:title="{sk₅ ∈ sk₆}" target="_parent">
<polygon fill="#fa6900" stroke="#7f7542" points="80,-0.5 80,-15.5 142,-15.5 142,-0.5 80,-0.5"/>
<text text-anchor="middle" x="111" y="-4.3" font-family="Times,serif" font-size="14.00">sk₅ ∈ sk₆</text>
</a>
</g>
</g>
<!-- t10_xregular&#45;&gt;c_0_17 -->
<g id="edge2" class="edge">
<title>t10_xregular&#45;&gt;c_0_17</title>
<path fill="none" stroke="black" d="M184.95,-57C151.11,-57 111,-57 111,-57 111,-57 111,-25.66 111,-25.66"/>
<polygon fill="black" stroke="black" points="114.5,-25.66 111,-15.66 107.5,-25.66 114.5,-25.66"/>
</g>
<!-- c_0_45 -->
<g id="node4" class="node">
<title>c_0_45</title>
<g id="a_node4"><a xlink:href="c_0_45.html" xlink:title="{sk₆ ∈ sk₁}" target="_parent">
<polygon fill="#fa6900" stroke="#7f7542" points="160,-0.5 160,-15.5 222,-15.5 222,-0.5 160,-0.5"/>
<text text-anchor="middle" x="191" y="-4.3" font-family="Times,serif" font-size="14.00">sk₆ ∈ sk₁</text>
</a>
</g>
</g>
<!-- t10_xregular&#45;&gt;c_0_45 -->
<g id="edge3" class="edge">
<title>t10_xregular&#45;&gt;c_0_45</title>
<path fill="none" stroke="black" d="M203.5,-52.33C203.5,-52.33 203.5,-25.7 203.5,-25.7"/>
<polygon fill="black" stroke="black" points="207,-25.7 203.5,-15.7 200,-25.7 207,-25.7"/>
</g>
<!-- c_0_44 -->
<g id="node5" class="node">
<title>c_0_44</title>
<g id="a_node5"><a xlink:href="c_0_44.html" xlink:title="{sk₁ ∈ sk₂}" target="_parent">
<polygon fill="#fa6900" stroke="#7f7542" points="240,-0.5 240,-15.5 302,-15.5 302,-0.5 240,-0.5"/>
<text text-anchor="middle" x="271" y="-4.3" font-family="Times,serif" font-size="14.00">sk₁ ∈ sk₂</text>
</a>
</g>
</g>
<!-- t10_xregular&#45;&gt;c_0_44 -->
<g id="edge4" class="edge">
<title>t10_xregular&#45;&gt;c_0_44</title>
<path fill="none" stroke="black" d="M258.5,-52.33C258.5,-52.33 258.5,-25.7 258.5,-25.7"/>
<polygon fill="black" stroke="black" points="262,-25.7 258.5,-15.7 255,-25.7 262,-25.7"/>
</g>
<!-- c_0_29 -->
<g id="node6" class="node">
<title>c_0_29</title>
<g id="a_node6"><a xlink:href="c_0_29.html" xlink:title="{sk₂ ∈ sk₃}" target="_parent">
<polygon fill="#fa6900" stroke="#7f7542" points="320,-0.5 320,-15.5 382,-15.5 382,-0.5 320,-0.5"/>
<text text-anchor="middle" x="351" y="-4.3" font-family="Times,serif" font-size="14.00">sk₂ ∈ sk₃</text>
</a>
</g>
</g>
<!-- t10_xregular&#45;&gt;c_0_29 -->
<g id="edge5" class="edge">
<title>t10_xregular&#45;&gt;c_0_29</title>
<path fill="none" stroke="black" d="M277.05,-57C310.89,-57 351,-57 351,-57 351,-57 351,-25.66 351,-25.66"/>
<polygon fill="black" stroke="black" points="354.5,-25.66 351,-15.66 347.5,-25.66 354.5,-25.66"/>
</g>
<!-- c_0_24 -->
<g id="node7" class="node">
<title>c_0_24</title>
<g id="a_node7"><a xlink:href="c_0_24.html" xlink:title="{sk₃ ∈ sk₄}" target="_parent">
<polygon fill="#fa6900" stroke="#7f7542" points="400,-0.5 400,-15.5 462,-15.5 462,-0.5 400,-0.5"/>
<text text-anchor="middle" x="431" y="-4.3" font-family="Times,serif" font-size="14.00">sk₃ ∈ sk₄</text>
</a>
</g>
</g>
<!-- t10_xregular&#45;&gt;c_0_24 -->
<g id="edge6" class="edge">
<title>t10_xregular&#45;&gt;c_0_24</title>
<path fill="none" stroke="black" d="M277.14,-62C336.2,-62 431,-62 431,-62 431,-62 431,-25.51 431,-25.51"/>
<polygon fill="black" stroke="black" points="434.5,-25.51 431,-15.51 427.5,-25.51 434.5,-25.51"/>
</g>
</g>
</svg>
