<?xml version="1.0" encoding="UTF-8" standalone="no"?>
<!DOCTYPE svg PUBLIC "-//W3C//DTD SVG 1.1//EN"
 "http://www.w3.org/Graphics/SVG/1.1/DTD/svg11.dtd">
<!-- Generated by graphviz version 5.0.0 (0)
 -->
<!-- Title: proof Pages: 1 -->
<svg width="470pt" height="280pt"
 viewBox="0.00 0.00 470.00 280.00" xmlns="http://www.w3.org/2000/svg" xmlns:xlink="http://www.w3.org/1999/xlink">
<g id="graph0" class="graph" transform="scale(1 1) rotate(0) translate(4 276)">
<title>proof</title>
<g id="clust1" class="cluster">
<title>cluster_0</title>
<polygon fill="transparent" stroke="black" stroke-dasharray="1,5" points="8,-172 8,-264 454,-264 454,-172 8,-172"/>
</g>
<g id="clust2" class="cluster">
<title>cluster_1</title>
<polygon fill="transparent" stroke="black" stroke-width="2" points="130,-60 130,-152 312,-152 312,-60 130,-60"/>
</g>
<g id="clust3" class="cluster">
<title>cluster_2</title>
<polygon fill="transparent" stroke="black" stroke-dasharray="1,5" points="133,-8 133,-40 309,-40 309,-8 133,-8"/>
</g>
<!-- c_0_72 -->
<g id="node1" class="node">
<title>c_0_72</title>
<g id="a_node1"><a xlink:href="c_0_72.html" xlink:title="{X₃ ∈ bool(X₁ × X₂)|complex&#45;membered(X₂)|function(X₃)|⇊|X₁ \|....\| X₂ \|....\| X₃ ∈ bool(X₁ × ℝ)}" target="_parent">
<polygon fill="#f8edd1" stroke="#7f7542" points="220,-180.5 220,-255.5 446,-255.5 446,-180.5 220,-180.5"/>
<text text-anchor="middle" x="333" y="-244.3" font-family="Times,serif" font-size="14.00">X₃ ∈ bool(X₁ × X₂)</text>
<polyline fill="none" stroke="#7f7542" points="220,-240.5 446,-240.5 "/>
<text text-anchor="middle" x="333" y="-229.3" font-family="Times,serif" font-size="14.00">complex&#45;membered(X₂)</text>
<polyline fill="none" stroke="#7f7542" points="220,-225.5 446,-225.5 "/>
<text text-anchor="middle" x="333" y="-214.3" font-family="Times,serif" font-size="14.00">function(X₃)</text>
<polyline fill="none" stroke="#7f7542" points="220,-210.5 446,-210.5 "/>
<text text-anchor="middle" x="333" y="-199.3" font-family="Times,serif" font-size="14.00">⇊</text>
<polyline fill="none" stroke="#7f7542" points="220,-195.5 446,-195.5 "/>
<text text-anchor="middle" x="333" y="-184.3" font-family="Times,serif" font-size="14.00">X₁ |....| X₂ |....| X₃ ∈ bool(X₁ × ℝ)</text>
</a>
</g>
</g>
<!-- c_0_97 -->
<g id="node3" class="node">
<title>c_0_97</title>
<g id="a_node3"><a xlink:href="c_0_97.html" xlink:title="{X₃ ∈ bool(X₁ × X₂)|complex&#45;membered(X₂)|function(X₃)|⇊| \|....\| X₃ ∈ bool(X₁ × ℝ)}" target="_parent">
<polygon fill="#f8edd1" stroke="#7f7542" points="138,-68.5 138,-143.5 304,-143.5 304,-68.5 138,-68.5"/>
<text text-anchor="middle" x="221" y="-132.3" font-family="Times,serif" font-size="14.00">X₃ ∈ bool(X₁ × X₂)</text>
<polyline fill="none" stroke="#7f7542" points="138,-128.5 304,-128.5 "/>
<text text-anchor="middle" x="221" y="-117.3" font-family="Times,serif" font-size="14.00">complex&#45;membered(X₂)</text>
<polyline fill="none" stroke="#7f7542" points="138,-113.5 304,-113.5 "/>
<text text-anchor="middle" x="221" y="-102.3" font-family="Times,serif" font-size="14.00">function(X₃)</text>
<polyline fill="none" stroke="#7f7542" points="138,-98.5 304,-98.5 "/>
<text text-anchor="middle" x="221" y="-87.3" font-family="Times,serif" font-size="14.00">⇊</text>
<polyline fill="none" stroke="#7f7542" points="138,-83.5 304,-83.5 "/>
<text text-anchor="middle" x="221" y="-72.3" font-family="Times,serif" font-size="14.00">|....| X₃ ∈ bool(X₁ × ℝ)</text>
</a>
</g>
</g>
<!-- c_0_72&#45;&gt;c_0_97 -->
<g id="edge1" class="edge">
<title>c_0_72&#45;&gt;c_0_97</title>
<path fill="none" stroke="black" d="M262,-180.39C262,-180.39 262,-153.7 262,-153.7"/>
<polygon fill="black" stroke="black" points="265.5,-153.7 262,-143.7 258.5,-153.7 265.5,-153.7"/>
</g>
<!-- c_0_67 -->
<g id="node2" class="node">
<title>c_0_67</title>
<g id="a_node2"><a xlink:href="c_0_67.html" xlink:title="{X₂ ∈ bool(X₃ × X₁)|complex&#45;membered(X₁)|function(X₂)|⇊|X₃ \|....\| X₁ \|....\| X₂ = &#160;\|....\| X₂}" target="_parent">
<polygon fill="#f8edd1" stroke="#7f7542" points="16.5,-180.5 16.5,-255.5 201.5,-255.5 201.5,-180.5 16.5,-180.5"/>
<text text-anchor="middle" x="109" y="-244.3" font-family="Times,serif" font-size="14.00">X₂ ∈ bool(X₃ × X₁)</text>
<polyline fill="none" stroke="#7f7542" points="16.5,-240.5 201.5,-240.5 "/>
<text text-anchor="middle" x="109" y="-229.3" font-family="Times,serif" font-size="14.00">complex&#45;membered(X₁)</text>
<polyline fill="none" stroke="#7f7542" points="16.5,-225.5 201.5,-225.5 "/>
<text text-anchor="middle" x="109" y="-214.3" font-family="Times,serif" font-size="14.00">function(X₂)</text>
<polyline fill="none" stroke="#7f7542" points="16.5,-210.5 201.5,-210.5 "/>
<text text-anchor="middle" x="109" y="-199.3" font-family="Times,serif" font-size="14.00">⇊</text>
<polyline fill="none" stroke="#7f7542" points="16.5,-195.5 201.5,-195.5 "/>
<text text-anchor="middle" x="109" y="-184.3" font-family="Times,serif" font-size="14.00">X₃ |....| X₁ |....| X₂ = |....| X₂</text>
</a>
</g>
</g>
<!-- c_0_67&#45;&gt;c_0_97 -->
<g id="edge2" class="edge">
<title>c_0_67&#45;&gt;c_0_97</title>
<path fill="none" stroke="black" d="M169.75,-180.39C169.75,-180.39 169.75,-153.7 169.75,-153.7"/>
<polygon fill="black" stroke="black" points="173.25,-153.7 169.75,-143.7 166.25,-153.7 173.25,-153.7"/>
</g>
<!-- c_0_110 -->
<g id="node4" class="node">
<title>c_0_110</title>
<g id="a_node4"><a xlink:href="c_0_110.html" xlink:title="{ \|....\| sk₁ ∈ bool(ℕ × ℝ)}" target="_parent">
<polygon fill="#fa6900" stroke="#7f7542" points="141.5,-16.5 141.5,-31.5 300.5,-31.5 300.5,-16.5 141.5,-16.5"/>
<text text-anchor="middle" x="221" y="-20.3" font-family="Times,serif" font-size="14.00">|....| sk₁ ∈ bool(ℕ × ℝ)</text>
</a>
</g>
</g>
<!-- c_0_97&#45;&gt;c_0_110 -->
<g id="edge3" class="edge">
<title>c_0_97&#45;&gt;c_0_110</title>
<path fill="none" stroke="black" stroke-dasharray="5,2" d="M221,-68.36C221,-68.36 221,-41.72 221,-41.72"/>
<polygon fill="black" stroke="black" points="224.5,-41.72 221,-31.72 217.5,-41.72 224.5,-41.72"/>
</g>
</g>
</svg>
