<?xml version="1.0" encoding="UTF-8" standalone="no"?>
<!DOCTYPE svg PUBLIC "-//W3C//DTD SVG 1.1//EN"
 "http://www.w3.org/Graphics/SVG/1.1/DTD/svg11.dtd">
<!-- Generated by graphviz version 5.0.0 (0)
 -->
<!-- Title: proof Pages: 1 -->
<svg width="214pt" height="355pt"
 viewBox="0.00 0.00 214.00 355.00" xmlns="http://www.w3.org/2000/svg" xmlns:xlink="http://www.w3.org/1999/xlink">
<g id="graph0" class="graph" transform="scale(1 1) rotate(0) translate(4 351)">
<title>proof</title>
<g id="clust1" class="cluster">
<title>cluster_0</title>
<polygon fill="transparent" stroke="black" stroke-dasharray="1,5" points="36,-307 36,-339 170,-339 170,-307 36,-307"/>
</g>
<g id="clust2" class="cluster">
<title>cluster_1</title>
<polygon fill="transparent" stroke="black" stroke-width="2" points="24,-195 24,-287 182,-287 182,-195 24,-195"/>
</g>
<g id="clust3" class="cluster">
<title>cluster_2</title>
<polygon fill="transparent" stroke="black" stroke-dasharray="1,5" points="8,-8 8,-175 198,-175 198,-8 8,-8"/>
</g>
<!-- dt_k54_valued_1 -->
<g id="node1" class="node">
<title>dt_k54_valued_1</title>
<g id="a_node1"><a xlink:href="dt_k54_valued_1.html" xlink:title="dt_k54_valued_1" target="_parent">
<polygon fill="#69d2e7" stroke="#7f7542" points="44,-315.5 44,-330.5 162,-330.5 162,-315.5 44,-315.5"/>
<text text-anchor="middle" x="103" y="-319.3" font-family="Times,serif" font-size="14.00">dt_k54_valued_1</text>
</a>
</g>
</g>
<!-- c_0_48 -->
<g id="node2" class="node">
<title>c_0_48</title>
<g id="a_node2"><a xlink:href="c_0_48.html" xlink:title="{complex&#45;valued(X₁)|function(X₁)|relation(X₁)|⇊|real&#45;valued( \|....\| X₁)}" target="_parent">
<polygon fill="#f8edd1" stroke="#7f7542" points="32,-203.5 32,-278.5 174,-278.5 174,-203.5 32,-203.5"/>
<text text-anchor="middle" x="103" y="-267.3" font-family="Times,serif" font-size="14.00">complex&#45;valued(X₁)</text>
<polyline fill="none" stroke="#7f7542" points="32,-263.5 174,-263.5 "/>
<text text-anchor="middle" x="103" y="-252.3" font-family="Times,serif" font-size="14.00">function(X₁)</text>
<polyline fill="none" stroke="#7f7542" points="32,-248.5 174,-248.5 "/>
<text text-anchor="middle" x="103" y="-237.3" font-family="Times,serif" font-size="14.00">relation(X₁)</text>
<polyline fill="none" stroke="#7f7542" points="32,-233.5 174,-233.5 "/>
<text text-anchor="middle" x="103" y="-222.3" font-family="Times,serif" font-size="14.00">⇊</text>
<polyline fill="none" stroke="#7f7542" points="32,-218.5 174,-218.5 "/>
<text text-anchor="middle" x="103" y="-207.3" font-family="Times,serif" font-size="14.00">real&#45;valued( |....| X₁)</text>
</a>
</g>
</g>
<!-- dt_k54_valued_1&#45;&gt;c_0_48 -->
<g id="edge1" class="edge">
<title>dt_k54_valued_1&#45;&gt;c_0_48</title>
<path fill="none" stroke="black" d="M103,-315.43C103,-315.43 103,-288.67 103,-288.67"/>
<polygon fill="black" stroke="black" points="106.5,-288.67 103,-278.67 99.5,-288.67 106.5,-288.67"/>
</g>
<!-- c_0_54 -->
<g id="node3" class="node">
<title>c_0_54</title>
<g id="a_node3"><a xlink:href="c_0_54.html" xlink:title="{ \|....\| X₁ ∈ bool(ℕ × ℝ)|Sum( \|....\| X₁) = 0|X₂ ∈ ℕ ⊆ ℝ|complex&#45;valued(X₁)|function(X₁)|quasi_total( \|....\| X₁,ℕ,ℝ)|relation(X₁)|summable( \|....\| X₁)|⇊|( \|....\| X₁) . X₂ = 0}" target="_parent">
<polygon fill="#f8edd1" stroke="#7f7542" points="16,-16.5 16,-166.5 190,-166.5 190,-16.5 16,-16.5"/>
<text text-anchor="middle" x="103" y="-155.3" font-family="Times,serif" font-size="14.00">|....| X₁ ∈ bool(ℕ × ℝ)</text>
<polyline fill="none" stroke="#7f7542" points="16,-151.5 190,-151.5 "/>
<text text-anchor="middle" x="103" y="-140.3" font-family="Times,serif" font-size="14.00">Sum( |....| X₁) = 0</text>
<polyline fill="none" stroke="#7f7542" points="16,-136.5 190,-136.5 "/>
<text text-anchor="middle" x="103" y="-125.3" font-family="Times,serif" font-size="14.00">X₂ ∈ ℕ ⊆ ℝ</text>
<polyline fill="none" stroke="#7f7542" points="16,-121.5 190,-121.5 "/>
<text text-anchor="middle" x="103" y="-110.3" font-family="Times,serif" font-size="14.00">complex&#45;valued(X₁)</text>
<polyline fill="none" stroke="#7f7542" points="16,-106.5 190,-106.5 "/>
<text text-anchor="middle" x="103" y="-95.3" font-family="Times,serif" font-size="14.00">function(X₁)</text>
<polyline fill="none" stroke="#7f7542" points="16,-91.5 190,-91.5 "/>
<text text-anchor="middle" x="103" y="-80.3" font-family="Times,serif" font-size="14.00">quasi_total( |....| X₁,ℕ,ℝ)</text>
<polyline fill="none" stroke="#7f7542" points="16,-76.5 190,-76.5 "/>
<text text-anchor="middle" x="103" y="-65.3" font-family="Times,serif" font-size="14.00">relation(X₁)</text>
<polyline fill="none" stroke="#7f7542" points="16,-61.5 190,-61.5 "/>
<text text-anchor="middle" x="103" y="-50.3" font-family="Times,serif" font-size="14.00">summable( |....| X₁)</text>
<polyline fill="none" stroke="#7f7542" points="16,-46.5 190,-46.5 "/>
<text text-anchor="middle" x="103" y="-35.3" font-family="Times,serif" font-size="14.00">⇊</text>
<polyline fill="none" stroke="#7f7542" points="16,-31.5 190,-31.5 "/>
<text text-anchor="middle" x="103" y="-20.3" font-family="Times,serif" font-size="14.00">( |....| X₁) . X₂ = 0</text>
</a>
</g>
</g>
<!-- c_0_48&#45;&gt;c_0_54 -->
<g id="edge2" class="edge">
<title>c_0_48&#45;&gt;c_0_54</title>
<path fill="none" stroke="black" stroke-dasharray="5,2" d="M103,-203.27C103,-203.27 103,-176.54 103,-176.54"/>
<polygon fill="black" stroke="black" points="106.5,-176.54 103,-166.54 99.5,-176.54 106.5,-176.54"/>
</g>
</g>
</svg>
