<?xml version="1.0" encoding="UTF-8" standalone="no"?>
<!DOCTYPE svg PUBLIC "-//W3C//DTD SVG 1.1//EN"
 "http://www.w3.org/Graphics/SVG/1.1/DTD/svg11.dtd">
<!-- Generated by graphviz version 5.0.0 (0)
 -->
<!-- Title: proof Pages: 1 -->
<svg width="139pt" height="160pt"
 viewBox="0.00 0.00 139.00 160.00" xmlns="http://www.w3.org/2000/svg" xmlns:xlink="http://www.w3.org/1999/xlink">
<g id="graph0" class="graph" transform="scale(1 1) rotate(0) translate(4 156)">
<title>proof</title>
<g id="clust1" class="cluster">
<title>cluster_0</title>
<polygon fill="transparent" stroke="black" stroke-dasharray="1,5" points="11,-112 11,-144 123,-144 123,-112 11,-112"/>
</g>
<g id="clust2" class="cluster">
<title>cluster_1</title>
<polygon fill="transparent" stroke="black" stroke-width="2" points="15,-60 15,-92 119,-92 119,-60 15,-60"/>
</g>
<g id="clust3" class="cluster">
<title>cluster_2</title>
<polygon fill="transparent" stroke="black" stroke-dasharray="1,5" points="8,-8 8,-40 110,-40 110,-8 8,-8"/>
</g>
<!-- t13_csspace2 -->
<g id="node1" class="node">
<title>t13_csspace2</title>
<g id="a_node1"><a xlink:href="t13_csspace2.html" xlink:title="t13_csspace2" target="_vizar">
<polygon fill="#fa6900" stroke="#7f7542" points="19,-120.5 19,-135.5 115,-135.5 115,-120.5 19,-120.5"/>
<text text-anchor="middle" x="67" y="-124.3" font-family="Times,serif" font-size="14.00">t13_csspace2</text>
</a>
</g>
</g>
<!-- c_0_120 -->
<g id="node2" class="node">
<title>c_0_120</title>
<g id="a_node2"><a xlink:href="c_0_120.html" xlink:title="{sk₂ ∈ ℕ ⊆ ℝ}" target="_vizar">
<polygon fill="#fa6900" stroke="#7f7542" points="23.5,-68.5 23.5,-83.5 110.5,-83.5 110.5,-68.5 23.5,-68.5"/>
<text text-anchor="middle" x="67" y="-72.3" font-family="Times,serif" font-size="14.00">sk₂ ∈ ℕ ⊆ ℝ</text>
</a>
</g>
</g>
<!-- t13_csspace2&#45;&gt;c_0_120 -->
<g id="edge1" class="edge">
<title>t13_csspace2&#45;&gt;c_0_120</title>
<path fill="none" stroke="black" d="M67,-120.33C67,-120.33 67,-93.7 67,-93.7"/>
<polygon fill="black" stroke="black" points="70.5,-93.7 67,-83.7 63.5,-93.7 70.5,-93.7"/>
</g>
<!-- c_0_138 -->
<g id="node3" class="node">
<title>c_0_138</title>
<g id="a_node3"><a xlink:href="c_0_138.html" xlink:title="⊥" target="_vizar">
<polygon fill="#fa6900" stroke="#7f7542" points="88,-16.5 88,-31.5 102,-31.5 102,-16.5 88,-16.5"/>
<text text-anchor="middle" x="95" y="-20.3" font-family="Times,serif" font-size="14.00">⊥</text>
</a>
</g>
</g>
<!-- c_0_120&#45;&gt;c_0_138 -->
<g id="edge2" class="edge">
<title>c_0_120&#45;&gt;c_0_138</title>
<path fill="none" stroke="black" stroke-dasharray="5,2" d="M95,-68.33C95,-68.33 95,-41.7 95,-41.7"/>
<polygon fill="black" stroke="black" points="98.5,-41.7 95,-31.7 91.5,-41.7 98.5,-41.7"/>
</g>
<!-- c_0_135 -->
<g id="node4" class="node">
<title>c_0_135</title>
<g id="a_node4"><a xlink:href="c_0_135.html" xlink:title="{sk₂ ∈ ℕ}" target="_vizar">
<polygon fill="#fa6900" stroke="#7f7542" points="16,-16.5 16,-31.5 70,-31.5 70,-16.5 16,-16.5"/>
<text text-anchor="middle" x="43" y="-20.3" font-family="Times,serif" font-size="14.00">sk₂ ∈ ℕ</text>
</a>
</g>
</g>
<!-- c_0_120&#45;&gt;c_0_135 -->
<g id="edge3" class="edge">
<title>c_0_120&#45;&gt;c_0_135</title>
<path fill="none" stroke="black" stroke-dasharray="5,2" d="M46.75,-68.33C46.75,-68.33 46.75,-41.7 46.75,-41.7"/>
<polygon fill="black" stroke="black" points="50.25,-41.7 46.75,-31.7 43.25,-41.7 50.25,-41.7"/>
</g>
</g>
</svg>
