<?xml version="1.0" encoding="UTF-8" standalone="no"?>
<!DOCTYPE svg PUBLIC "-//W3C//DTD SVG 1.1//EN"
 "http://www.w3.org/Graphics/SVG/1.1/DTD/svg11.dtd">
<!-- Generated by graphviz version 5.0.0 (0)
 -->
<!-- Title: proof Pages: 1 -->
<svg width="366pt" height="625pt"
 viewBox="0.00 0.00 366.00 625.00" xmlns="http://www.w3.org/2000/svg" xmlns:xlink="http://www.w3.org/1999/xlink">
<g id="graph0" class="graph" transform="scale(1 1) rotate(0) translate(4 621)">
<title>proof</title>
<g id="clust1" class="cluster">
<title>cluster_0</title>
<polygon fill="transparent" stroke="black" stroke-dasharray="1,5" points="8,-442 8,-609 350,-609 350,-442 8,-442"/>
</g>
<g id="clust2" class="cluster">
<title>cluster_1</title>
<polygon fill="transparent" stroke="black" stroke-width="2" points="70,-210 70,-422 288,-422 288,-210 70,-210"/>
</g>
<g id="clust3" class="cluster">
<title>cluster_2</title>
<polygon fill="transparent" stroke="black" stroke-dasharray="1,5" points="70,-8 70,-190 288,-190 288,-8 70,-8"/>
</g>
<!-- c_0_29 -->
<g id="node1" class="node">
<title>c_0_29</title>
<g id="a_node1"><a xlink:href="c_0_29.html" xlink:title="{function(X₁)|real&#45;valued(X₁)|relation(X₁)|⇊|X₁ . X₂ = X₁(X₂)}" target="_vizar">
<polygon fill="#f8edd1" stroke="#7f7542" points="236,-488 236,-563 342,-563 342,-488 236,-488"/>
<text text-anchor="middle" x="289" y="-551.8" font-family="Times,serif" font-size="14.00">function(X₁)</text>
<polyline fill="none" stroke="#7f7542" points="236,-548 342,-548 "/>
<text text-anchor="middle" x="289" y="-536.8" font-family="Times,serif" font-size="14.00">real&#45;valued(X₁)</text>
<polyline fill="none" stroke="#7f7542" points="236,-533 342,-533 "/>
<text text-anchor="middle" x="289" y="-521.8" font-family="Times,serif" font-size="14.00">relation(X₁)</text>
<polyline fill="none" stroke="#7f7542" points="236,-518 342,-518 "/>
<text text-anchor="middle" x="289" y="-506.8" font-family="Times,serif" font-size="14.00">⇊</text>
<polyline fill="none" stroke="#7f7542" points="236,-503 342,-503 "/>
<text text-anchor="middle" x="289" y="-491.8" font-family="Times,serif" font-size="14.00">X₁ . X₂ = X₁(X₂)</text>
</a>
</g>
</g>
<!-- c_0_74 -->
<g id="node3" class="node">
<title>c_0_74</title>
<g id="a_node3"><a xlink:href="c_0_74.html" xlink:title="{ \|....\| X₁ ∈ bool(ℕ × ℝ)|Sum( \|....\| X₁) = 0|X₁ ∈ bool(ℕ × COMPLEX)|X₂ ∈ ℕ ⊆ ℝ|absolutely_summable(X₁)|complex&#45;valued(X₁)|function( \|....\| X₁)|function(X₁)|quasi_total(X₁,ℕ,COMPLEX)|real&#45;valued( \|....\| X₁)|relation( \|....\| X₁)|⇊|( \|....\| X₁)(X₂) = 0}" target="_vizar">
<polygon fill="#f8edd1" stroke="#7f7542" points="78.5,-218.5 78.5,-413.5 279.5,-413.5 279.5,-218.5 78.5,-218.5"/>
<text text-anchor="middle" x="179" y="-402.3" font-family="Times,serif" font-size="14.00">|....| X₁ ∈ bool(ℕ × ℝ)</text>
<polyline fill="none" stroke="#7f7542" points="78.5,-398.5 279.5,-398.5 "/>
<text text-anchor="middle" x="179" y="-387.3" font-family="Times,serif" font-size="14.00">Sum( |....| X₁) = 0</text>
<polyline fill="none" stroke="#7f7542" points="78.5,-383.5 279.5,-383.5 "/>
<text text-anchor="middle" x="179" y="-372.3" font-family="Times,serif" font-size="14.00">X₁ ∈ bool(ℕ × COMPLEX)</text>
<polyline fill="none" stroke="#7f7542" points="78.5,-368.5 279.5,-368.5 "/>
<text text-anchor="middle" x="179" y="-357.3" font-family="Times,serif" font-size="14.00">X₂ ∈ ℕ ⊆ ℝ</text>
<polyline fill="none" stroke="#7f7542" points="78.5,-353.5 279.5,-353.5 "/>
<text text-anchor="middle" x="179" y="-342.3" font-family="Times,serif" font-size="14.00">absolutely_summable(X₁)</text>
<polyline fill="none" stroke="#7f7542" points="78.5,-338.5 279.5,-338.5 "/>
<text text-anchor="middle" x="179" y="-327.3" font-family="Times,serif" font-size="14.00">complex&#45;valued(X₁)</text>
<polyline fill="none" stroke="#7f7542" points="78.5,-323.5 279.5,-323.5 "/>
<text text-anchor="middle" x="179" y="-312.3" font-family="Times,serif" font-size="14.00">function( |....| X₁)</text>
<polyline fill="none" stroke="#7f7542" points="78.5,-308.5 279.5,-308.5 "/>
<text text-anchor="middle" x="179" y="-297.3" font-family="Times,serif" font-size="14.00">function(X₁)</text>
<polyline fill="none" stroke="#7f7542" points="78.5,-293.5 279.5,-293.5 "/>
<text text-anchor="middle" x="179" y="-282.3" font-family="Times,serif" font-size="14.00">quasi_total(X₁,ℕ,COMPLEX)</text>
<polyline fill="none" stroke="#7f7542" points="78.5,-278.5 279.5,-278.5 "/>
<text text-anchor="middle" x="179" y="-267.3" font-family="Times,serif" font-size="14.00">real&#45;valued( |....| X₁)</text>
<polyline fill="none" stroke="#7f7542" points="78.5,-263.5 279.5,-263.5 "/>
<text text-anchor="middle" x="179" y="-252.3" font-family="Times,serif" font-size="14.00">relation( |....| X₁)</text>
<polyline fill="none" stroke="#7f7542" points="78.5,-248.5 279.5,-248.5 "/>
<text text-anchor="middle" x="179" y="-237.3" font-family="Times,serif" font-size="14.00">⇊</text>
<polyline fill="none" stroke="#7f7542" points="78.5,-233.5 279.5,-233.5 "/>
<text text-anchor="middle" x="179" y="-222.3" font-family="Times,serif" font-size="14.00">( |....| X₁)(X₂) = 0</text>
</a>
</g>
</g>
<!-- c_0_29&#45;&gt;c_0_74 -->
<g id="edge1" class="edge">
<title>c_0_29&#45;&gt;c_0_74</title>
<path fill="none" stroke="black" d="M257.75,-487.56C257.75,-487.56 257.75,-423.87 257.75,-423.87"/>
<polygon fill="black" stroke="black" points="261.25,-423.87 257.75,-413.87 254.25,-423.87 261.25,-423.87"/>
</g>
<!-- c_0_64 -->
<g id="node2" class="node">
<title>c_0_64</title>
<g id="a_node2"><a xlink:href="c_0_64.html" xlink:title="{ \|....\| X₁ ∈ bool(ℕ × ℝ)|Sum( \|....\| X₁) = 0|X₁ ∈ bool(ℕ × COMPLEX)|X₂ ∈ ℕ ⊆ ℝ|absolutely_summable(X₁)|complex&#45;valued(X₁)|function(X₁)|quasi_total(X₁,ℕ,COMPLEX)|⇊|( \|....\| X₁) . X₂ = 0}" target="_vizar">
<polygon fill="#f8edd1" stroke="#7f7542" points="16.5,-450.5 16.5,-600.5 217.5,-600.5 217.5,-450.5 16.5,-450.5"/>
<text text-anchor="middle" x="117" y="-589.3" font-family="Times,serif" font-size="14.00">|....| X₁ ∈ bool(ℕ × ℝ)</text>
<polyline fill="none" stroke="#7f7542" points="16.5,-585.5 217.5,-585.5 "/>
<text text-anchor="middle" x="117" y="-574.3" font-family="Times,serif" font-size="14.00">Sum( |....| X₁) = 0</text>
<polyline fill="none" stroke="#7f7542" points="16.5,-570.5 217.5,-570.5 "/>
<text text-anchor="middle" x="117" y="-559.3" font-family="Times,serif" font-size="14.00">X₁ ∈ bool(ℕ × COMPLEX)</text>
<polyline fill="none" stroke="#7f7542" points="16.5,-555.5 217.5,-555.5 "/>
<text text-anchor="middle" x="117" y="-544.3" font-family="Times,serif" font-size="14.00">X₂ ∈ ℕ ⊆ ℝ</text>
<polyline fill="none" stroke="#7f7542" points="16.5,-540.5 217.5,-540.5 "/>
<text text-anchor="middle" x="117" y="-529.3" font-family="Times,serif" font-size="14.00">absolutely_summable(X₁)</text>
<polyline fill="none" stroke="#7f7542" points="16.5,-525.5 217.5,-525.5 "/>
<text text-anchor="middle" x="117" y="-514.3" font-family="Times,serif" font-size="14.00">complex&#45;valued(X₁)</text>
<polyline fill="none" stroke="#7f7542" points="16.5,-510.5 217.5,-510.5 "/>
<text text-anchor="middle" x="117" y="-499.3" font-family="Times,serif" font-size="14.00">function(X₁)</text>
<polyline fill="none" stroke="#7f7542" points="16.5,-495.5 217.5,-495.5 "/>
<text text-anchor="middle" x="117" y="-484.3" font-family="Times,serif" font-size="14.00">quasi_total(X₁,ℕ,COMPLEX)</text>
<polyline fill="none" stroke="#7f7542" points="16.5,-480.5 217.5,-480.5 "/>
<text text-anchor="middle" x="117" y="-469.3" font-family="Times,serif" font-size="14.00">⇊</text>
<polyline fill="none" stroke="#7f7542" points="16.5,-465.5 217.5,-465.5 "/>
<text text-anchor="middle" x="117" y="-454.3" font-family="Times,serif" font-size="14.00">( |....| X₁) . X₂ = 0</text>
</a>
</g>
</g>
<!-- c_0_64&#45;&gt;c_0_74 -->
<g id="edge2" class="edge">
<title>c_0_64&#45;&gt;c_0_74</title>
<path fill="none" stroke="black" d="M148,-450.46C148,-450.46 148,-423.54 148,-423.54"/>
<polygon fill="black" stroke="black" points="151.5,-423.54 148,-413.54 144.5,-423.54 151.5,-423.54"/>
</g>
<!-- c_0_92 -->
<g id="node4" class="node">
<title>c_0_92</title>
<g id="a_node4"><a xlink:href="c_0_92.html" xlink:title="{ \|....\| X₁ ∈ bool(ℕ × ℝ)|Sum( \|....\| X₁) = 0|X₁ ∈ bool(ℕ × COMPLEX)|X₂ ∈ ℕ ⊆ ℝ|absolutely_summable(X₁)|complex&#45;valued(X₁)|function(X₁)|quasi_total(X₁,ℕ,COMPLEX)|real&#45;valued( \|....\| X₁)|⇊|( \|....\| X₁)(X₂) = 0}" target="_vizar">
<polygon fill="#f8edd1" stroke="#7f7542" points="78.5,-16.5 78.5,-181.5 279.5,-181.5 279.5,-16.5 78.5,-16.5"/>
<text text-anchor="middle" x="179" y="-170.3" font-family="Times,serif" font-size="14.00">|....| X₁ ∈ bool(ℕ × ℝ)</text>
<polyline fill="none" stroke="#7f7542" points="78.5,-166.5 279.5,-166.5 "/>
<text text-anchor="middle" x="179" y="-155.3" font-family="Times,serif" font-size="14.00">Sum( |....| X₁) = 0</text>
<polyline fill="none" stroke="#7f7542" points="78.5,-151.5 279.5,-151.5 "/>
<text text-anchor="middle" x="179" y="-140.3" font-family="Times,serif" font-size="14.00">X₁ ∈ bool(ℕ × COMPLEX)</text>
<polyline fill="none" stroke="#7f7542" points="78.5,-136.5 279.5,-136.5 "/>
<text text-anchor="middle" x="179" y="-125.3" font-family="Times,serif" font-size="14.00">X₂ ∈ ℕ ⊆ ℝ</text>
<polyline fill="none" stroke="#7f7542" points="78.5,-121.5 279.5,-121.5 "/>
<text text-anchor="middle" x="179" y="-110.3" font-family="Times,serif" font-size="14.00">absolutely_summable(X₁)</text>
<polyline fill="none" stroke="#7f7542" points="78.5,-106.5 279.5,-106.5 "/>
<text text-anchor="middle" x="179" y="-95.3" font-family="Times,serif" font-size="14.00">complex&#45;valued(X₁)</text>
<polyline fill="none" stroke="#7f7542" points="78.5,-91.5 279.5,-91.5 "/>
<text text-anchor="middle" x="179" y="-80.3" font-family="Times,serif" font-size="14.00">function(X₁)</text>
<polyline fill="none" stroke="#7f7542" points="78.5,-76.5 279.5,-76.5 "/>
<text text-anchor="middle" x="179" y="-65.3" font-family="Times,serif" font-size="14.00">quasi_total(X₁,ℕ,COMPLEX)</text>
<polyline fill="none" stroke="#7f7542" points="78.5,-61.5 279.5,-61.5 "/>
<text text-anchor="middle" x="179" y="-50.3" font-family="Times,serif" font-size="14.00">real&#45;valued( |....| X₁)</text>
<polyline fill="none" stroke="#7f7542" points="78.5,-46.5 279.5,-46.5 "/>
<text text-anchor="middle" x="179" y="-35.3" font-family="Times,serif" font-size="14.00">⇊</text>
<polyline fill="none" stroke="#7f7542" points="78.5,-31.5 279.5,-31.5 "/>
<text text-anchor="middle" x="179" y="-20.3" font-family="Times,serif" font-size="14.00">( |....| X₁)(X₂) = 0</text>
</a>
</g>
</g>
<!-- c_0_74&#45;&gt;c_0_92 -->
<g id="edge3" class="edge">
<title>c_0_74&#45;&gt;c_0_92</title>
<path fill="none" stroke="black" stroke-dasharray="5,2" d="M179,-218.29C179,-218.29 179,-191.58 179,-191.58"/>
<polygon fill="black" stroke="black" points="182.5,-191.58 179,-181.58 175.5,-191.58 182.5,-191.58"/>
</g>
</g>
</svg>
