<?xml version="1.0" encoding="UTF-8" standalone="no"?>
<!DOCTYPE svg PUBLIC "-//W3C//DTD SVG 1.1//EN"
 "http://www.w3.org/Graphics/SVG/1.1/DTD/svg11.dtd">
<!-- Generated by graphviz version 5.0.0 (0)
 -->
<!-- Title: proof Pages: 1 -->
<svg width="196pt" height="205pt"
 viewBox="0.00 0.00 196.00 205.00" xmlns="http://www.w3.org/2000/svg" xmlns:xlink="http://www.w3.org/1999/xlink">
<g id="graph0" class="graph" transform="scale(1 1) rotate(0) translate(4 201)">
<title>proof</title>
<g id="clust1" class="cluster">
<title>cluster_0</title>
<polygon fill="transparent" stroke="black" stroke-dasharray="1,5" points="8,-112 8,-189 180,-189 180,-112 8,-112"/>
</g>
<g id="clust2" class="cluster">
<title>cluster_1</title>
<polygon fill="transparent" stroke="black" stroke-width="2" points="40,-60 40,-92 140,-92 140,-60 40,-60"/>
</g>
<g id="clust3" class="cluster">
<title>cluster_2</title>
<polygon fill="transparent" stroke="black" stroke-dasharray="1,5" points="75,-8 75,-40 105,-40 105,-8 75,-8"/>
</g>
<!-- c_0_134 -->
<g id="node1" class="node">
<title>c_0_134</title>
<g id="a_node1"><a xlink:href="c_0_134.html" xlink:title="{sk₁(sk₂) = 0|sk₂ ∈ ℕ|⇊|⊥}" target="_parent">
<polygon fill="#fa6900" stroke="#7f7542" points="88.5,-120.5 88.5,-180.5 171.5,-180.5 171.5,-120.5 88.5,-120.5"/>
<text text-anchor="middle" x="130" y="-169.3" font-family="Times,serif" font-size="14.00">sk₁(sk₂) = 0</text>
<polyline fill="none" stroke="#7f7542" points="88.5,-165.5 171.5,-165.5 "/>
<text text-anchor="middle" x="130" y="-154.3" font-family="Times,serif" font-size="14.00">sk₂ ∈ ℕ</text>
<polyline fill="none" stroke="#7f7542" points="88.5,-150.5 171.5,-150.5 "/>
<text text-anchor="middle" x="130" y="-139.3" font-family="Times,serif" font-size="14.00">⇊</text>
<polyline fill="none" stroke="#7f7542" points="88.5,-135.5 171.5,-135.5 "/>
<text text-anchor="middle" x="130" y="-124.3" font-family="Times,serif" font-size="14.00">⊥</text>
</a>
</g>
</g>
<!-- c_0_137 -->
<g id="node3" class="node">
<title>c_0_137</title>
<g id="a_node3"><a xlink:href="c_0_137.html" xlink:title="{sk₁(sk₂) ≠ 0}" target="_parent">
<polygon fill="#fa6900" stroke="#7f7542" points="48.5,-68.5 48.5,-83.5 131.5,-83.5 131.5,-68.5 48.5,-68.5"/>
<text text-anchor="middle" x="90" y="-72.3" font-family="Times,serif" font-size="14.00">sk₁(sk₂) ≠ 0</text>
</a>
</g>
</g>
<!-- c_0_134&#45;&gt;c_0_137 -->
<g id="edge1" class="edge">
<title>c_0_134&#45;&gt;c_0_137</title>
<path fill="none" stroke="black" d="M110,-120.2C110,-120.2 110,-93.59 110,-93.59"/>
<polygon fill="black" stroke="black" points="113.5,-93.59 110,-83.59 106.5,-93.59 113.5,-93.59"/>
</g>
<!-- c_0_135 -->
<g id="node2" class="node">
<title>c_0_135</title>
<g id="a_node2"><a xlink:href="c_0_135.html" xlink:title="{sk₂ ∈ ℕ}" target="_parent">
<polygon fill="#fa6900" stroke="#7f7542" points="16,-143 16,-158 70,-158 70,-143 16,-143"/>
<text text-anchor="middle" x="43" y="-146.8" font-family="Times,serif" font-size="14.00">sk₂ ∈ ℕ</text>
</a>
</g>
</g>
<!-- c_0_135&#45;&gt;c_0_137 -->
<g id="edge2" class="edge">
<title>c_0_135&#45;&gt;c_0_137</title>
<path fill="none" stroke="black" d="M59.25,-142.81C59.25,-142.81 59.25,-93.76 59.25,-93.76"/>
<polygon fill="black" stroke="black" points="62.75,-93.76 59.25,-83.76 55.75,-93.76 62.75,-93.76"/>
</g>
<!-- c_0_138 -->
<g id="node4" class="node">
<title>c_0_138</title>
<g id="a_node4"><a xlink:href="c_0_138.html" xlink:title="⊥" target="_parent">
<polygon fill="#fa6900" stroke="#7f7542" points="83,-16.5 83,-31.5 97,-31.5 97,-16.5 83,-16.5"/>
<text text-anchor="middle" x="90" y="-20.3" font-family="Times,serif" font-size="14.00">⊥</text>
</a>
</g>
</g>
<!-- c_0_137&#45;&gt;c_0_138 -->
<g id="edge3" class="edge">
<title>c_0_137&#45;&gt;c_0_138</title>
<path fill="none" stroke="black" stroke-dasharray="5,2" d="M90,-68.33C90,-68.33 90,-41.7 90,-41.7"/>
<polygon fill="black" stroke="black" points="93.5,-41.7 90,-31.7 86.5,-41.7 93.5,-41.7"/>
</g>
</g>
</svg>
