<?xml version="1.0" encoding="UTF-8" standalone="no"?>
<!DOCTYPE svg PUBLIC "-//W3C//DTD SVG 1.1//EN"
 "http://www.w3.org/Graphics/SVG/1.1/DTD/svg11.dtd">
<!-- Generated by graphviz version 5.0.0 (0)
 -->
<!-- Title: proof Pages: 1 -->
<svg width="404pt" height="220pt"
 viewBox="0.00 0.00 404.00 220.00" xmlns="http://www.w3.org/2000/svg" xmlns:xlink="http://www.w3.org/1999/xlink">
<g id="graph0" class="graph" transform="scale(1 1) rotate(0) translate(4 216)">
<title>proof</title>
<g id="clust1" class="cluster">
<title>cluster_0</title>
<polygon fill="transparent" stroke="black" stroke-dasharray="1,5" points="8,-112 8,-204 388,-204 388,-112 8,-112"/>
</g>
<g id="clust2" class="cluster">
<title>cluster_1</title>
<polygon fill="transparent" stroke="black" stroke-width="2" points="141,-60 141,-92 211,-92 211,-60 141,-60"/>
</g>
<g id="clust3" class="cluster">
<title>cluster_2</title>
<polygon fill="transparent" stroke="black" stroke-dasharray="1,5" points="126,-8 126,-40 226,-40 226,-8 126,-8"/>
</g>
<!-- c_0_120 -->
<g id="node1" class="node">
<title>c_0_120</title>
<g id="a_node1"><a xlink:href="c_0_120.html" xlink:title="{sk₂ ∈ ℕ ⊆ ℝ}" target="_parent">
<polygon fill="#fa6900" stroke="#7f7542" points="292.5,-150.5 292.5,-165.5 379.5,-165.5 379.5,-150.5 292.5,-150.5"/>
<text text-anchor="middle" x="336" y="-154.3" font-family="Times,serif" font-size="14.00">sk₂ ∈ ℕ ⊆ ℝ</text>
</a>
</g>
</g>
<!-- c_0_135 -->
<g id="node5" class="node">
<title>c_0_135</title>
<g id="a_node5"><a xlink:href="c_0_135.html" xlink:title="{sk₂ ∈ ℕ}" target="_parent">
<polygon fill="#fa6900" stroke="#7f7542" points="149,-68.5 149,-83.5 203,-83.5 203,-68.5 149,-68.5"/>
<text text-anchor="middle" x="176" y="-72.3" font-family="Times,serif" font-size="14.00">sk₂ ∈ ℕ</text>
</a>
</g>
</g>
<!-- c_0_120&#45;&gt;c_0_135 -->
<g id="edge1" class="edge">
<title>c_0_120&#45;&gt;c_0_135</title>
<path fill="none" stroke="black" d="M336,-150.43C336,-130.13 336,-76 336,-76 336,-76 213.14,-76 213.14,-76"/>
<polygon fill="black" stroke="black" points="213.14,-72.5 203.14,-76 213.14,-79.5 213.14,-72.5"/>
</g>
<!-- c_0_128 -->
<g id="node2" class="node">
<title>c_0_128</title>
<g id="a_node2"><a xlink:href="c_0_128.html" xlink:title="{X₁ ∈ bool(X₃)|X₂ ∈ X₁ ⊆ X₃|⇊|X₁ = Ø|X₂ ∈ X₁}" target="_parent">
<polygon fill="#f8edd1" stroke="#7f7542" points="183.5,-120.5 183.5,-195.5 274.5,-195.5 274.5,-120.5 183.5,-120.5"/>
<text text-anchor="middle" x="229" y="-184.3" font-family="Times,serif" font-size="14.00">X₁ ∈ bool(X₃)</text>
<polyline fill="none" stroke="#7f7542" points="183.5,-180.5 274.5,-180.5 "/>
<text text-anchor="middle" x="229" y="-169.3" font-family="Times,serif" font-size="14.00">X₂ ∈ X₁ ⊆ X₃</text>
<polyline fill="none" stroke="#7f7542" points="183.5,-165.5 274.5,-165.5 "/>
<text text-anchor="middle" x="229" y="-154.3" font-family="Times,serif" font-size="14.00">⇊</text>
<polyline fill="none" stroke="#7f7542" points="183.5,-150.5 274.5,-150.5 "/>
<text text-anchor="middle" x="229" y="-139.3" font-family="Times,serif" font-size="14.00">X₁ = Ø</text>
<polyline fill="none" stroke="#7f7542" points="183.5,-135.5 274.5,-135.5 "/>
<text text-anchor="middle" x="229" y="-124.3" font-family="Times,serif" font-size="14.00">X₂ ∈ X₁</text>
</a>
</g>
</g>
<!-- c_0_128&#45;&gt;c_0_135 -->
<g id="edge2" class="edge">
<title>c_0_128&#45;&gt;c_0_135</title>
<path fill="none" stroke="black" d="M193.25,-120.36C193.25,-120.36 193.25,-93.72 193.25,-93.72"/>
<polygon fill="black" stroke="black" points="196.75,-93.72 193.25,-83.72 189.75,-93.72 196.75,-93.72"/>
</g>
<!-- c_0_121 -->
<g id="node3" class="node">
<title>c_0_121</title>
<g id="a_node3"><a xlink:href="c_0_121.html" xlink:title="{ℕ ∈ bool(ℝ)}" target="_parent">
<polygon fill="#f8edd1" stroke="#7f7542" points="80.5,-150.5 80.5,-165.5 165.5,-165.5 165.5,-150.5 80.5,-150.5"/>
<text text-anchor="middle" x="123" y="-154.3" font-family="Times,serif" font-size="14.00">ℕ ∈ bool(ℝ)</text>
</a>
</g>
</g>
<!-- c_0_121&#45;&gt;c_0_135 -->
<g id="edge3" class="edge">
<title>c_0_121&#45;&gt;c_0_135</title>
<path fill="none" stroke="black" d="M157.25,-150.43C157.25,-150.43 157.25,-93.79 157.25,-93.79"/>
<polygon fill="black" stroke="black" points="160.75,-93.79 157.25,-83.79 153.75,-93.79 160.75,-93.79"/>
</g>
<!-- c_0_127 -->
<g id="node4" class="node">
<title>c_0_127</title>
<g id="a_node4"><a xlink:href="c_0_127.html" xlink:title="{ℕ ≠ Ø}" target="_parent">
<polygon fill="#f8edd1" stroke="#7f7542" points="16,-150.5 16,-165.5 62,-165.5 62,-150.5 16,-150.5"/>
<text text-anchor="middle" x="39" y="-154.3" font-family="Times,serif" font-size="14.00">ℕ ≠ Ø</text>
</a>
</g>
</g>
<!-- c_0_127&#45;&gt;c_0_135 -->
<g id="edge4" class="edge">
<title>c_0_127&#45;&gt;c_0_135</title>
<path fill="none" stroke="black" d="M39,-150.43C39,-130.13 39,-76 39,-76 39,-76 138.93,-76 138.93,-76"/>
<polygon fill="black" stroke="black" points="138.93,-79.5 148.93,-76 138.93,-72.5 138.93,-79.5"/>
</g>
<!-- c_0_137 -->
<g id="node6" class="node">
<title>c_0_137</title>
<g id="a_node6"><a xlink:href="c_0_137.html" xlink:title="{sk₁(sk₂) ≠ 0}" target="_parent">
<polygon fill="#fa6900" stroke="#7f7542" points="134.5,-16.5 134.5,-31.5 217.5,-31.5 217.5,-16.5 134.5,-16.5"/>
<text text-anchor="middle" x="176" y="-20.3" font-family="Times,serif" font-size="14.00">sk₁(sk₂) ≠ 0</text>
</a>
</g>
</g>
<!-- c_0_135&#45;&gt;c_0_137 -->
<g id="edge5" class="edge">
<title>c_0_135&#45;&gt;c_0_137</title>
<path fill="none" stroke="black" stroke-dasharray="5,2" d="M176,-68.33C176,-68.33 176,-41.7 176,-41.7"/>
<polygon fill="black" stroke="black" points="179.5,-41.7 176,-31.7 172.5,-41.7 179.5,-41.7"/>
</g>
</g>
</svg>
