<?xml version="1.0" encoding="UTF-8" standalone="no"?>
<!DOCTYPE svg PUBLIC "-//W3C//DTD SVG 1.1//EN"
 "http://www.w3.org/Graphics/SVG/1.1/DTD/svg11.dtd">
<!-- Generated by graphviz version 5.0.0 (0)
 -->
<!-- Title: proof Pages: 1 -->
<svg width="409pt" height="235pt"
 viewBox="0.00 0.00 409.00 235.00" xmlns="http://www.w3.org/2000/svg" xmlns:xlink="http://www.w3.org/1999/xlink">
<g id="graph0" class="graph" transform="scale(1 1) rotate(0) translate(4 231)">
<title>proof</title>
<g id="clust1" class="cluster">
<title>cluster_0</title>
<polygon fill="transparent" stroke="black" stroke-dasharray="1,5" points="8,-142 8,-219 393,-219 393,-142 8,-142"/>
</g>
<g id="clust2" class="cluster">
<title>cluster_1</title>
<polygon fill="transparent" stroke="black" stroke-width="2" points="62,-90 62,-122 226,-122 226,-90 62,-90"/>
</g>
<g id="clust3" class="cluster">
<title>cluster_2</title>
<polygon fill="transparent" stroke="black" stroke-dasharray="1,5" points="74,-8 74,-70 214,-70 214,-8 74,-8"/>
</g>
<!-- c_0_110 -->
<g id="node1" class="node">
<title>c_0_110</title>
<g id="a_node1"><a xlink:href="c_0_110.html" xlink:title="{ \|....\| sk₁ ∈ bool(ℕ × ℝ)}" target="_vizar">
<polygon fill="#fa6900" stroke="#7f7542" points="225.5,-173 225.5,-188 384.5,-188 384.5,-173 225.5,-173"/>
<text text-anchor="middle" x="305" y="-176.8" font-family="Times,serif" font-size="14.00">|....| sk₁ ∈ bool(ℕ × ℝ)</text>
</a>
</g>
</g>
<!-- c_0_124 -->
<g id="node4" class="node">
<title>c_0_124</title>
<g id="a_node4"><a xlink:href="c_0_124.html" xlink:title="{real&#45;valued( \|....\| sk₁)}" target="_vizar">
<polygon fill="#fa6900" stroke="#7f7542" points="70,-98.5 70,-113.5 218,-113.5 218,-98.5 70,-98.5"/>
<text text-anchor="middle" x="144" y="-102.3" font-family="Times,serif" font-size="14.00">real&#45;valued( |....| sk₁)</text>
</a>
</g>
</g>
<!-- c_0_110&#45;&gt;c_0_124 -->
<g id="edge1" class="edge">
<title>c_0_110&#45;&gt;c_0_124</title>
<path fill="none" stroke="black" d="M225.19,-180C217.65,-180 212.75,-180 212.75,-180 212.75,-180 212.75,-123.64 212.75,-123.64"/>
<polygon fill="black" stroke="black" points="216.25,-123.64 212.75,-113.64 209.25,-123.64 216.25,-123.64"/>
</g>
<!-- c_0_98 -->
<g id="node2" class="node">
<title>c_0_98</title>
<g id="a_node2"><a xlink:href="c_0_98.html" xlink:title="{X₁ ⊆ ℝ|X₂ ∈ bool(X₃ × X₁)|⇊|real&#45;valued(X₂)}" target="_vizar">
<polygon fill="#f8edd1" stroke="#7f7542" points="80.5,-150.5 80.5,-210.5 207.5,-210.5 207.5,-150.5 80.5,-150.5"/>
<text text-anchor="middle" x="144" y="-199.3" font-family="Times,serif" font-size="14.00">X₁ ⊆ ℝ</text>
<polyline fill="none" stroke="#7f7542" points="80.5,-195.5 207.5,-195.5 "/>
<text text-anchor="middle" x="144" y="-184.3" font-family="Times,serif" font-size="14.00">X₂ ∈ bool(X₃ × X₁)</text>
<polyline fill="none" stroke="#7f7542" points="80.5,-180.5 207.5,-180.5 "/>
<text text-anchor="middle" x="144" y="-169.3" font-family="Times,serif" font-size="14.00">⇊</text>
<polyline fill="none" stroke="#7f7542" points="80.5,-165.5 207.5,-165.5 "/>
<text text-anchor="middle" x="144" y="-154.3" font-family="Times,serif" font-size="14.00">real&#45;valued(X₂)</text>
</a>
</g>
</g>
<!-- c_0_98&#45;&gt;c_0_124 -->
<g id="edge2" class="edge">
<title>c_0_98&#45;&gt;c_0_124</title>
<path fill="none" stroke="black" d="M144,-150.2C144,-150.2 144,-123.59 144,-123.59"/>
<polygon fill="black" stroke="black" points="147.5,-123.59 144,-113.59 140.5,-123.59 147.5,-123.59"/>
</g>
<!-- c_0_99 -->
<g id="node3" class="node">
<title>c_0_99</title>
<g id="a_node3"><a xlink:href="c_0_99.html" xlink:title="{ℝ ⊆ ℝ}" target="_vizar">
<polygon fill="#f8edd1" stroke="#7f7542" points="16,-173 16,-188 62,-188 62,-173 16,-173"/>
<text text-anchor="middle" x="39" y="-176.8" font-family="Times,serif" font-size="14.00">ℝ ⊆ ℝ</text>
</a>
</g>
</g>
<!-- c_0_99&#45;&gt;c_0_124 -->
<g id="edge3" class="edge">
<title>c_0_99&#45;&gt;c_0_124</title>
<path fill="none" stroke="black" d="M62.16,-180C69.27,-180 75.25,-180 75.25,-180 75.25,-180 75.25,-123.64 75.25,-123.64"/>
<polygon fill="black" stroke="black" points="78.75,-123.64 75.25,-113.64 71.75,-123.64 78.75,-123.64"/>
</g>
<!-- c_0_132 -->
<g id="node5" class="node">
<title>c_0_132</title>
<g id="a_node5"><a xlink:href="c_0_132.html" xlink:title="{X₁ ∈ ℕ ⊆ ℝ|⇊|( \|....\| sk₁)(X₁) = 0}" target="_vizar">
<polygon fill="#fa6900" stroke="#7f7542" points="82,-16.5 82,-61.5 206,-61.5 206,-16.5 82,-16.5"/>
<text text-anchor="middle" x="144" y="-50.3" font-family="Times,serif" font-size="14.00">X₁ ∈ ℕ ⊆ ℝ</text>
<polyline fill="none" stroke="#7f7542" points="82,-46.5 206,-46.5 "/>
<text text-anchor="middle" x="144" y="-35.3" font-family="Times,serif" font-size="14.00">⇊</text>
<polyline fill="none" stroke="#7f7542" points="82,-31.5 206,-31.5 "/>
<text text-anchor="middle" x="144" y="-20.3" font-family="Times,serif" font-size="14.00">( |....| sk₁)(X₁) = 0</text>
</a>
</g>
</g>
<!-- c_0_124&#45;&gt;c_0_132 -->
<g id="edge4" class="edge">
<title>c_0_124&#45;&gt;c_0_132</title>
<path fill="none" stroke="black" stroke-dasharray="5,2" d="M144,-98.31C144,-98.31 144,-71.76 144,-71.76"/>
<polygon fill="black" stroke="black" points="147.5,-71.76 144,-61.76 140.5,-71.76 147.5,-71.76"/>
</g>
</g>
</svg>
