<?xml version="1.0" encoding="UTF-8" standalone="no"?>
<!DOCTYPE svg PUBLIC "-//W3C//DTD SVG 1.1//EN"
 "http://www.w3.org/Graphics/SVG/1.1/DTD/svg11.dtd">
<!-- Generated by graphviz version 5.0.0 (0)
 -->
<!-- Title: proof Pages: 1 -->
<svg width="606pt" height="640pt"
 viewBox="0.00 0.00 606.00 640.00" xmlns="http://www.w3.org/2000/svg" xmlns:xlink="http://www.w3.org/1999/xlink">
<g id="graph0" class="graph" transform="scale(1 1) rotate(0) translate(4 636)">
<title>proof</title>
<g id="clust1" class="cluster">
<title>cluster_0</title>
<polygon fill="transparent" stroke="black" stroke-dasharray="1,5" points="8,-427 8,-624 590,-624 590,-427 8,-427"/>
</g>
<g id="clust2" class="cluster">
<title>cluster_1</title>
<polygon fill="transparent" stroke="black" stroke-width="2" points="227,-240 227,-407 445,-407 445,-240 227,-240"/>
</g>
<g id="clust3" class="cluster">
<title>cluster_2</title>
<polygon fill="transparent" stroke="black" stroke-dasharray="1,5" points="227,-8 227,-220 445,-220 445,-8 227,-8"/>
</g>
<!-- c_0_36 -->
<g id="node1" class="node">
<title>c_0_36</title>
<g id="a_node1"><a xlink:href="c_0_36.html" xlink:title="{X₁ ∈ bool(X₂ × X₃)|⇊|relation(X₁)}" target="_parent">
<polygon fill="#f8edd1" stroke="#7f7542" points="454.5,-503 454.5,-548 581.5,-548 581.5,-503 454.5,-503"/>
<text text-anchor="middle" x="518" y="-536.8" font-family="Times,serif" font-size="14.00">X₁ ∈ bool(X₂ × X₃)</text>
<polyline fill="none" stroke="#7f7542" points="454.5,-533 581.5,-533 "/>
<text text-anchor="middle" x="518" y="-521.8" font-family="Times,serif" font-size="14.00">⇊</text>
<polyline fill="none" stroke="#7f7542" points="454.5,-518 581.5,-518 "/>
<text text-anchor="middle" x="518" y="-506.8" font-family="Times,serif" font-size="14.00">relation(X₁)</text>
</a>
</g>
</g>
<!-- c_0_64 -->
<g id="node4" class="node">
<title>c_0_64</title>
<g id="a_node4"><a xlink:href="c_0_64.html" xlink:title="{ \|....\| X₁ ∈ bool(ℕ × ℝ)|Sum( \|....\| X₁) = 0|X₁ ∈ bool(ℕ × COMPLEX)|X₂ ∈ ℕ ⊆ ℝ|absolutely_summable(X₁)|complex&#45;valued(X₁)|function(X₁)|quasi_total(X₁,ℕ,COMPLEX)|⇊|( \|....\| X₁) . X₂ = 0}" target="_parent">
<polygon fill="#f8edd1" stroke="#7f7542" points="235.5,-248.5 235.5,-398.5 436.5,-398.5 436.5,-248.5 235.5,-248.5"/>
<text text-anchor="middle" x="336" y="-387.3" font-family="Times,serif" font-size="14.00">|....| X₁ ∈ bool(ℕ × ℝ)</text>
<polyline fill="none" stroke="#7f7542" points="235.5,-383.5 436.5,-383.5 "/>
<text text-anchor="middle" x="336" y="-372.3" font-family="Times,serif" font-size="14.00">Sum( |....| X₁) = 0</text>
<polyline fill="none" stroke="#7f7542" points="235.5,-368.5 436.5,-368.5 "/>
<text text-anchor="middle" x="336" y="-357.3" font-family="Times,serif" font-size="14.00">X₁ ∈ bool(ℕ × COMPLEX)</text>
<polyline fill="none" stroke="#7f7542" points="235.5,-353.5 436.5,-353.5 "/>
<text text-anchor="middle" x="336" y="-342.3" font-family="Times,serif" font-size="14.00">X₂ ∈ ℕ ⊆ ℝ</text>
<polyline fill="none" stroke="#7f7542" points="235.5,-338.5 436.5,-338.5 "/>
<text text-anchor="middle" x="336" y="-327.3" font-family="Times,serif" font-size="14.00">absolutely_summable(X₁)</text>
<polyline fill="none" stroke="#7f7542" points="235.5,-323.5 436.5,-323.5 "/>
<text text-anchor="middle" x="336" y="-312.3" font-family="Times,serif" font-size="14.00">complex&#45;valued(X₁)</text>
<polyline fill="none" stroke="#7f7542" points="235.5,-308.5 436.5,-308.5 "/>
<text text-anchor="middle" x="336" y="-297.3" font-family="Times,serif" font-size="14.00">function(X₁)</text>
<polyline fill="none" stroke="#7f7542" points="235.5,-293.5 436.5,-293.5 "/>
<text text-anchor="middle" x="336" y="-282.3" font-family="Times,serif" font-size="14.00">quasi_total(X₁,ℕ,COMPLEX)</text>
<polyline fill="none" stroke="#7f7542" points="235.5,-278.5 436.5,-278.5 "/>
<text text-anchor="middle" x="336" y="-267.3" font-family="Times,serif" font-size="14.00">⇊</text>
<polyline fill="none" stroke="#7f7542" points="235.5,-263.5 436.5,-263.5 "/>
<text text-anchor="middle" x="336" y="-252.3" font-family="Times,serif" font-size="14.00">( |....| X₁) . X₂ = 0</text>
</a>
</g>
</g>
<!-- c_0_36&#45;&gt;c_0_64 -->
<g id="edge1" class="edge">
<title>c_0_36&#45;&gt;c_0_64</title>
<path fill="none" stroke="black" d="M518,-502.66C518,-449.71 518,-323 518,-323 518,-323 446.58,-323 446.58,-323"/>
<polygon fill="black" stroke="black" points="446.58,-319.5 436.58,-323 446.58,-326.5 446.58,-319.5"/>
</g>
<!-- c_0_58 -->
<g id="node2" class="node">
<title>c_0_58</title>
<g id="a_node2"><a xlink:href="c_0_58.html" xlink:title="{ \|....\| X₁ ∈ bool(ℕ × ℝ)|Sum( \|....\| X₁) = 0|X₁ ∈ bool(ℕ × COMPLEX)|X₂ ∈ ℕ ⊆ ℝ|absolutely_summable(X₁)|complex&#45;valued(X₁)|function(X₁)|quasi_total( \|....\| X₁,ℕ,ℝ)|quasi_total(X₁,ℕ,COMPLEX)|relation(X₁)|⇊|( \|....\| X₁) . X₂ = 0}" target="_parent">
<polygon fill="#f8edd1" stroke="#7f7542" points="235.5,-435.5 235.5,-615.5 436.5,-615.5 436.5,-435.5 235.5,-435.5"/>
<text text-anchor="middle" x="336" y="-604.3" font-family="Times,serif" font-size="14.00">|....| X₁ ∈ bool(ℕ × ℝ)</text>
<polyline fill="none" stroke="#7f7542" points="235.5,-600.5 436.5,-600.5 "/>
<text text-anchor="middle" x="336" y="-589.3" font-family="Times,serif" font-size="14.00">Sum( |....| X₁) = 0</text>
<polyline fill="none" stroke="#7f7542" points="235.5,-585.5 436.5,-585.5 "/>
<text text-anchor="middle" x="336" y="-574.3" font-family="Times,serif" font-size="14.00">X₁ ∈ bool(ℕ × COMPLEX)</text>
<polyline fill="none" stroke="#7f7542" points="235.5,-570.5 436.5,-570.5 "/>
<text text-anchor="middle" x="336" y="-559.3" font-family="Times,serif" font-size="14.00">X₂ ∈ ℕ ⊆ ℝ</text>
<polyline fill="none" stroke="#7f7542" points="235.5,-555.5 436.5,-555.5 "/>
<text text-anchor="middle" x="336" y="-544.3" font-family="Times,serif" font-size="14.00">absolutely_summable(X₁)</text>
<polyline fill="none" stroke="#7f7542" points="235.5,-540.5 436.5,-540.5 "/>
<text text-anchor="middle" x="336" y="-529.3" font-family="Times,serif" font-size="14.00">complex&#45;valued(X₁)</text>
<polyline fill="none" stroke="#7f7542" points="235.5,-525.5 436.5,-525.5 "/>
<text text-anchor="middle" x="336" y="-514.3" font-family="Times,serif" font-size="14.00">function(X₁)</text>
<polyline fill="none" stroke="#7f7542" points="235.5,-510.5 436.5,-510.5 "/>
<text text-anchor="middle" x="336" y="-499.3" font-family="Times,serif" font-size="14.00">quasi_total( |....| X₁,ℕ,ℝ)</text>
<polyline fill="none" stroke="#7f7542" points="235.5,-495.5 436.5,-495.5 "/>
<text text-anchor="middle" x="336" y="-484.3" font-family="Times,serif" font-size="14.00">quasi_total(X₁,ℕ,COMPLEX)</text>
<polyline fill="none" stroke="#7f7542" points="235.5,-480.5 436.5,-480.5 "/>
<text text-anchor="middle" x="336" y="-469.3" font-family="Times,serif" font-size="14.00">relation(X₁)</text>
<polyline fill="none" stroke="#7f7542" points="235.5,-465.5 436.5,-465.5 "/>
<text text-anchor="middle" x="336" y="-454.3" font-family="Times,serif" font-size="14.00">⇊</text>
<polyline fill="none" stroke="#7f7542" points="235.5,-450.5 436.5,-450.5 "/>
<text text-anchor="middle" x="336" y="-439.3" font-family="Times,serif" font-size="14.00">( |....| X₁) . X₂ = 0</text>
</a>
</g>
</g>
<!-- c_0_58&#45;&gt;c_0_64 -->
<g id="edge2" class="edge">
<title>c_0_58&#45;&gt;c_0_64</title>
<path fill="none" stroke="black" d="M336,-435.43C336,-435.43 336,-408.59 336,-408.59"/>
<polygon fill="black" stroke="black" points="339.5,-408.59 336,-398.59 332.5,-408.59 339.5,-408.59"/>
</g>
<!-- c_0_56 -->
<g id="node3" class="node">
<title>c_0_56</title>
<g id="a_node3"><a xlink:href="c_0_56.html" xlink:title="{X₁ ∈ bool(ℕ × COMPLEX)|absolutely_summable(X₁)|function(X₁)|quasi_total(X₁,ℕ,COMPLEX)|⇊|quasi_total( \|....\| X₁,ℕ,ℝ)}" target="_parent">
<polygon fill="#f8edd1" stroke="#7f7542" points="16.5,-480.5 16.5,-570.5 217.5,-570.5 217.5,-480.5 16.5,-480.5"/>
<text text-anchor="middle" x="117" y="-559.3" font-family="Times,serif" font-size="14.00">X₁ ∈ bool(ℕ × COMPLEX)</text>
<polyline fill="none" stroke="#7f7542" points="16.5,-555.5 217.5,-555.5 "/>
<text text-anchor="middle" x="117" y="-544.3" font-family="Times,serif" font-size="14.00">absolutely_summable(X₁)</text>
<polyline fill="none" stroke="#7f7542" points="16.5,-540.5 217.5,-540.5 "/>
<text text-anchor="middle" x="117" y="-529.3" font-family="Times,serif" font-size="14.00">function(X₁)</text>
<polyline fill="none" stroke="#7f7542" points="16.5,-525.5 217.5,-525.5 "/>
<text text-anchor="middle" x="117" y="-514.3" font-family="Times,serif" font-size="14.00">quasi_total(X₁,ℕ,COMPLEX)</text>
<polyline fill="none" stroke="#7f7542" points="16.5,-510.5 217.5,-510.5 "/>
<text text-anchor="middle" x="117" y="-499.3" font-family="Times,serif" font-size="14.00">⇊</text>
<polyline fill="none" stroke="#7f7542" points="16.5,-495.5 217.5,-495.5 "/>
<text text-anchor="middle" x="117" y="-484.3" font-family="Times,serif" font-size="14.00">quasi_total( |....| X₁,ℕ,ℝ)</text>
</a>
</g>
</g>
<!-- c_0_56&#45;&gt;c_0_64 -->
<g id="edge3" class="edge">
<title>c_0_56&#45;&gt;c_0_64</title>
<path fill="none" stroke="black" d="M117,-480.31C117,-420.63 117,-323 117,-323 117,-323 225.47,-323 225.47,-323"/>
<polygon fill="black" stroke="black" points="225.47,-326.5 235.47,-323 225.47,-319.5 225.47,-326.5"/>
</g>
<!-- c_0_74 -->
<g id="node5" class="node">
<title>c_0_74</title>
<g id="a_node5"><a xlink:href="c_0_74.html" xlink:title="{ \|....\| X₁ ∈ bool(ℕ × ℝ)|Sum( \|....\| X₁) = 0|X₁ ∈ bool(ℕ × COMPLEX)|X₂ ∈ ℕ ⊆ ℝ|absolutely_summable(X₁)|complex&#45;valued(X₁)|function( \|....\| X₁)|function(X₁)|quasi_total(X₁,ℕ,COMPLEX)|real&#45;valued( \|....\| X₁)|relation( \|....\| X₁)|⇊|( \|....\| X₁)(X₂) = 0}" target="_parent">
<polygon fill="#f8edd1" stroke="#7f7542" points="235.5,-16.5 235.5,-211.5 436.5,-211.5 436.5,-16.5 235.5,-16.5"/>
<text text-anchor="middle" x="336" y="-200.3" font-family="Times,serif" font-size="14.00">|....| X₁ ∈ bool(ℕ × ℝ)</text>
<polyline fill="none" stroke="#7f7542" points="235.5,-196.5 436.5,-196.5 "/>
<text text-anchor="middle" x="336" y="-185.3" font-family="Times,serif" font-size="14.00">Sum( |....| X₁) = 0</text>
<polyline fill="none" stroke="#7f7542" points="235.5,-181.5 436.5,-181.5 "/>
<text text-anchor="middle" x="336" y="-170.3" font-family="Times,serif" font-size="14.00">X₁ ∈ bool(ℕ × COMPLEX)</text>
<polyline fill="none" stroke="#7f7542" points="235.5,-166.5 436.5,-166.5 "/>
<text text-anchor="middle" x="336" y="-155.3" font-family="Times,serif" font-size="14.00">X₂ ∈ ℕ ⊆ ℝ</text>
<polyline fill="none" stroke="#7f7542" points="235.5,-151.5 436.5,-151.5 "/>
<text text-anchor="middle" x="336" y="-140.3" font-family="Times,serif" font-size="14.00">absolutely_summable(X₁)</text>
<polyline fill="none" stroke="#7f7542" points="235.5,-136.5 436.5,-136.5 "/>
<text text-anchor="middle" x="336" y="-125.3" font-family="Times,serif" font-size="14.00">complex&#45;valued(X₁)</text>
<polyline fill="none" stroke="#7f7542" points="235.5,-121.5 436.5,-121.5 "/>
<text text-anchor="middle" x="336" y="-110.3" font-family="Times,serif" font-size="14.00">function( |....| X₁)</text>
<polyline fill="none" stroke="#7f7542" points="235.5,-106.5 436.5,-106.5 "/>
<text text-anchor="middle" x="336" y="-95.3" font-family="Times,serif" font-size="14.00">function(X₁)</text>
<polyline fill="none" stroke="#7f7542" points="235.5,-91.5 436.5,-91.5 "/>
<text text-anchor="middle" x="336" y="-80.3" font-family="Times,serif" font-size="14.00">quasi_total(X₁,ℕ,COMPLEX)</text>
<polyline fill="none" stroke="#7f7542" points="235.5,-76.5 436.5,-76.5 "/>
<text text-anchor="middle" x="336" y="-65.3" font-family="Times,serif" font-size="14.00">real&#45;valued( |....| X₁)</text>
<polyline fill="none" stroke="#7f7542" points="235.5,-61.5 436.5,-61.5 "/>
<text text-anchor="middle" x="336" y="-50.3" font-family="Times,serif" font-size="14.00">relation( |....| X₁)</text>
<polyline fill="none" stroke="#7f7542" points="235.5,-46.5 436.5,-46.5 "/>
<text text-anchor="middle" x="336" y="-35.3" font-family="Times,serif" font-size="14.00">⇊</text>
<polyline fill="none" stroke="#7f7542" points="235.5,-31.5 436.5,-31.5 "/>
<text text-anchor="middle" x="336" y="-20.3" font-family="Times,serif" font-size="14.00">( |....| X₁)(X₂) = 0</text>
</a>
</g>
</g>
<!-- c_0_64&#45;&gt;c_0_74 -->
<g id="edge4" class="edge">
<title>c_0_64&#45;&gt;c_0_74</title>
<path fill="none" stroke="black" stroke-dasharray="5,2" d="M336,-248.46C336,-248.46 336,-221.54 336,-221.54"/>
<polygon fill="black" stroke="black" points="339.5,-221.54 336,-211.54 332.5,-221.54 339.5,-221.54"/>
</g>
</g>
</svg>
