<?xml version="1.0" encoding="UTF-8" standalone="no"?>
<!DOCTYPE svg PUBLIC "-//W3C//DTD SVG 1.1//EN"
 "http://www.w3.org/Graphics/SVG/1.1/DTD/svg11.dtd">
<!-- Generated by graphviz version 5.0.0 (0)
 -->
<!-- Title: proof Pages: 1 -->
<svg width="206pt" height="295pt"
 viewBox="0.00 0.00 206.00 295.00" xmlns="http://www.w3.org/2000/svg" xmlns:xlink="http://www.w3.org/1999/xlink">
<g id="graph0" class="graph" transform="scale(1 1) rotate(0) translate(4 291)">
<title>proof</title>
<g id="clust1" class="cluster">
<title>cluster_0</title>
<polygon fill="transparent" stroke="black" stroke-dasharray="1,5" points="8,-247 8,-279 190,-279 190,-247 8,-247"/>
</g>
<g id="clust2" class="cluster">
<title>cluster_1</title>
<polygon fill="transparent" stroke="black" stroke-width="2" points="9,-105 9,-227 189,-227 189,-105 9,-105"/>
</g>
<g id="clust3" class="cluster">
<title>cluster_2</title>
<polygon fill="transparent" stroke="black" stroke-dasharray="1,5" points="49,-8 49,-85 149,-85 149,-8 49,-8"/>
</g>
<!-- redefinition_k3_funct_2 -->
<g id="node1" class="node">
<title>redefinition_k3_funct_2</title>
<g id="a_node1"><a xlink:href="redefinition_k3_funct_2.html" xlink:title="redefinition_k3_funct_2" target="_parent">
<polygon fill="#69d2e7" stroke="#7f7542" points="16,-255.5 16,-270.5 182,-270.5 182,-255.5 16,-255.5"/>
<text text-anchor="middle" x="99" y="-259.3" font-family="Times,serif" font-size="14.00">redefinition_k3_funct_2</text>
</a>
</g>
</g>
<!-- c_0_115 -->
<g id="node2" class="node">
<title>c_0_115</title>
<g id="a_node2"><a xlink:href="c_0_115.html" xlink:title="{X₂ ∈ bool(X₁ × X₃)|X₄ ∈ X₁|function(X₂)|quasi_total(X₂,X₁,X₃)|⇊|X₁ . X₃ . X₂ . X₄ = X₂(X₄)|X₁ = Ø}" target="_parent">
<polygon fill="#f8edd1" stroke="#7f7542" points="17.5,-113.5 17.5,-218.5 180.5,-218.5 180.5,-113.5 17.5,-113.5"/>
<text text-anchor="middle" x="99" y="-207.3" font-family="Times,serif" font-size="14.00">X₂ ∈ bool(X₁ × X₃)</text>
<polyline fill="none" stroke="#7f7542" points="17.5,-203.5 180.5,-203.5 "/>
<text text-anchor="middle" x="99" y="-192.3" font-family="Times,serif" font-size="14.00">X₄ ∈ X₁</text>
<polyline fill="none" stroke="#7f7542" points="17.5,-188.5 180.5,-188.5 "/>
<text text-anchor="middle" x="99" y="-177.3" font-family="Times,serif" font-size="14.00">function(X₂)</text>
<polyline fill="none" stroke="#7f7542" points="17.5,-173.5 180.5,-173.5 "/>
<text text-anchor="middle" x="99" y="-162.3" font-family="Times,serif" font-size="14.00">quasi_total(X₂,X₁,X₃)</text>
<polyline fill="none" stroke="#7f7542" points="17.5,-158.5 180.5,-158.5 "/>
<text text-anchor="middle" x="99" y="-147.3" font-family="Times,serif" font-size="14.00">⇊</text>
<polyline fill="none" stroke="#7f7542" points="17.5,-143.5 180.5,-143.5 "/>
<text text-anchor="middle" x="99" y="-132.3" font-family="Times,serif" font-size="14.00">X₁ . X₃ . X₂ . X₄ = X₂(X₄)</text>
<polyline fill="none" stroke="#7f7542" points="17.5,-128.5 180.5,-128.5 "/>
<text text-anchor="middle" x="99" y="-117.3" font-family="Times,serif" font-size="14.00">X₁ = Ø</text>
</a>
</g>
</g>
<!-- redefinition_k3_funct_2&#45;&gt;c_0_115 -->
<g id="edge1" class="edge">
<title>redefinition_k3_funct_2&#45;&gt;c_0_115</title>
<path fill="none" stroke="black" d="M99,-255.39C99,-255.39 99,-228.93 99,-228.93"/>
<polygon fill="black" stroke="black" points="102.5,-228.93 99,-218.93 95.5,-228.93 102.5,-228.93"/>
</g>
<!-- c_0_134 -->
<g id="node3" class="node">
<title>c_0_134</title>
<g id="a_node3"><a xlink:href="c_0_134.html" xlink:title="{sk₁(sk₂) = 0|sk₂ ∈ ℕ|⇊|⊥}" target="_parent">
<polygon fill="#fa6900" stroke="#7f7542" points="57.5,-16.5 57.5,-76.5 140.5,-76.5 140.5,-16.5 57.5,-16.5"/>
<text text-anchor="middle" x="99" y="-65.3" font-family="Times,serif" font-size="14.00">sk₁(sk₂) = 0</text>
<polyline fill="none" stroke="#7f7542" points="57.5,-61.5 140.5,-61.5 "/>
<text text-anchor="middle" x="99" y="-50.3" font-family="Times,serif" font-size="14.00">sk₂ ∈ ℕ</text>
<polyline fill="none" stroke="#7f7542" points="57.5,-46.5 140.5,-46.5 "/>
<text text-anchor="middle" x="99" y="-35.3" font-family="Times,serif" font-size="14.00">⇊</text>
<polyline fill="none" stroke="#7f7542" points="57.5,-31.5 140.5,-31.5 "/>
<text text-anchor="middle" x="99" y="-20.3" font-family="Times,serif" font-size="14.00">⊥</text>
</a>
</g>
</g>
<!-- c_0_115&#45;&gt;c_0_134 -->
<g id="edge2" class="edge">
<title>c_0_115&#45;&gt;c_0_134</title>
<path fill="none" stroke="black" stroke-dasharray="5,2" d="M99,-113.24C99,-113.24 99,-86.71 99,-86.71"/>
<polygon fill="black" stroke="black" points="102.5,-86.71 99,-76.71 95.5,-86.71 102.5,-86.71"/>
</g>
</g>
</svg>
