<?xml version="1.0" encoding="UTF-8" standalone="no"?>
<!DOCTYPE svg PUBLIC "-//W3C//DTD SVG 1.1//EN"
 "http://www.w3.org/Graphics/SVG/1.1/DTD/svg11.dtd">
<!-- Generated by graphviz version 5.0.0 (0)
 -->
<!-- Title: proof Pages: 1 -->
<svg width="209pt" height="205pt"
 viewBox="0.00 0.00 209.00 205.00" xmlns="http://www.w3.org/2000/svg" xmlns:xlink="http://www.w3.org/1999/xlink">
<g id="graph0" class="graph" transform="scale(1 1) rotate(0) translate(4 201)">
<title>proof</title>
<g id="clust1" class="cluster">
<title>cluster_0</title>
<polygon fill="transparent" stroke="black" stroke-dasharray="1,5" points="8,-157 8,-189 132,-189 132,-157 8,-157"/>
</g>
<g id="clust2" class="cluster">
<title>cluster_1</title>
<polygon fill="transparent" stroke="black" stroke-width="2" points="48,-105 48,-137 110,-137 110,-105 48,-105"/>
</g>
<g id="clust3" class="cluster">
<title>cluster_2</title>
<polygon fill="transparent" stroke="black" stroke-dasharray="1,5" points="21,-8 21,-85 193,-85 193,-8 21,-8"/>
</g>
<!-- c_0_104 -->
<g id="node1" class="node">
<title>c_0_104</title>
<g id="a_node1"><a xlink:href="c_0_104.html" xlink:title="{ω ≠ Ø}" target="_parent">
<polygon fill="#f8edd1" stroke="#7f7542" points="80,-165.5 80,-180.5 124,-180.5 124,-165.5 80,-165.5"/>
<text text-anchor="middle" x="102" y="-169.3" font-family="Times,serif" font-size="14.00">ω ≠ Ø</text>
</a>
</g>
</g>
<!-- c_0_127 -->
<g id="node3" class="node">
<title>c_0_127</title>
<g id="a_node3"><a xlink:href="c_0_127.html" xlink:title="{ℕ ≠ Ø}" target="_parent">
<polygon fill="#f8edd1" stroke="#7f7542" points="56,-113.5 56,-128.5 102,-128.5 102,-113.5 56,-113.5"/>
<text text-anchor="middle" x="79" y="-117.3" font-family="Times,serif" font-size="14.00">ℕ ≠ Ø</text>
</a>
</g>
</g>
<!-- c_0_104&#45;&gt;c_0_127 -->
<g id="edge1" class="edge">
<title>c_0_104&#45;&gt;c_0_127</title>
<path fill="none" stroke="black" d="M91,-165.33C91,-165.33 91,-138.7 91,-138.7"/>
<polygon fill="black" stroke="black" points="94.5,-138.7 91,-128.7 87.5,-138.7 94.5,-138.7"/>
</g>
<!-- c_0_117 -->
<g id="node2" class="node">
<title>c_0_117</title>
<g id="a_node2"><a xlink:href="c_0_117.html" xlink:title="{ω = ℕ}" target="_parent">
<polygon fill="#f8edd1" stroke="#7f7542" points="16,-165.5 16,-180.5 62,-180.5 62,-165.5 16,-165.5"/>
<text text-anchor="middle" x="39" y="-169.3" font-family="Times,serif" font-size="14.00">ω = ℕ</text>
</a>
</g>
</g>
<!-- c_0_117&#45;&gt;c_0_127 -->
<g id="edge2" class="edge">
<title>c_0_117&#45;&gt;c_0_127</title>
<path fill="none" stroke="black" d="M62.26,-173C67.22,-173 71,-173 71,-173 71,-173 71,-138.67 71,-138.67"/>
<polygon fill="black" stroke="black" points="74.5,-138.67 71,-128.67 67.5,-138.67 74.5,-138.67"/>
</g>
<!-- c_0_134 -->
<g id="node4" class="node">
<title>c_0_134</title>
<g id="a_node4"><a xlink:href="c_0_134.html" xlink:title="{sk₁(sk₂) = 0|sk₂ ∈ ℕ|⇊|⊥}" target="_parent">
<polygon fill="#fa6900" stroke="#7f7542" points="101.5,-16.5 101.5,-76.5 184.5,-76.5 184.5,-16.5 101.5,-16.5"/>
<text text-anchor="middle" x="143" y="-65.3" font-family="Times,serif" font-size="14.00">sk₁(sk₂) = 0</text>
<polyline fill="none" stroke="#7f7542" points="101.5,-61.5 184.5,-61.5 "/>
<text text-anchor="middle" x="143" y="-50.3" font-family="Times,serif" font-size="14.00">sk₂ ∈ ℕ</text>
<polyline fill="none" stroke="#7f7542" points="101.5,-46.5 184.5,-46.5 "/>
<text text-anchor="middle" x="143" y="-35.3" font-family="Times,serif" font-size="14.00">⇊</text>
<polyline fill="none" stroke="#7f7542" points="101.5,-31.5 184.5,-31.5 "/>
<text text-anchor="middle" x="143" y="-20.3" font-family="Times,serif" font-size="14.00">⊥</text>
</a>
</g>
</g>
<!-- c_0_127&#45;&gt;c_0_134 -->
<g id="edge3" class="edge">
<title>c_0_127&#45;&gt;c_0_134</title>
<path fill="none" stroke="black" stroke-dasharray="5,2" d="M102.24,-121C108.22,-121 113,-121 113,-121 113,-121 113,-86.8 113,-86.8"/>
<polygon fill="black" stroke="black" points="116.5,-86.8 113,-76.8 109.5,-86.8 116.5,-86.8"/>
</g>
<!-- c_0_135 -->
<g id="node5" class="node">
<title>c_0_135</title>
<g id="a_node5"><a xlink:href="c_0_135.html" xlink:title="{sk₂ ∈ ℕ}" target="_parent">
<polygon fill="#fa6900" stroke="#7f7542" points="29,-39 29,-54 83,-54 83,-39 29,-39"/>
<text text-anchor="middle" x="56" y="-42.8" font-family="Times,serif" font-size="14.00">sk₂ ∈ ℕ</text>
</a>
</g>
</g>
<!-- c_0_127&#45;&gt;c_0_135 -->
<g id="edge4" class="edge">
<title>c_0_127&#45;&gt;c_0_135</title>
<path fill="none" stroke="black" stroke-dasharray="5,2" d="M69.5,-113.31C69.5,-113.31 69.5,-64.26 69.5,-64.26"/>
<polygon fill="black" stroke="black" points="73,-64.26 69.5,-54.26 66,-64.26 73,-64.26"/>
</g>
</g>
</svg>
