<?xml version="1.0" encoding="UTF-8" standalone="no"?>
<!DOCTYPE svg PUBLIC "-//W3C//DTD SVG 1.1//EN"
 "http://www.w3.org/Graphics/SVG/1.1/DTD/svg11.dtd">
<!-- Generated by graphviz version 5.0.0 (0)
 -->
<!-- Title: proof Pages: 1 -->
<svg width="768pt" height="265pt"
 viewBox="0.00 0.00 768.00 265.00" xmlns="http://www.w3.org/2000/svg" xmlns:xlink="http://www.w3.org/1999/xlink">
<g id="graph0" class="graph" transform="scale(1 1) rotate(0) translate(4 261)">
<title>proof</title>
<g id="clust1" class="cluster">
<title>cluster_0</title>
<polygon fill="transparent" stroke="black" stroke-dasharray="1,5" points="8,-157 8,-249 752,-249 752,-157 8,-157"/>
</g>
<g id="clust2" class="cluster">
<title>cluster_1</title>
<polygon fill="transparent" stroke="black" stroke-width="2" points="194,-105 194,-137 370,-137 370,-105 194,-105"/>
</g>
<g id="clust3" class="cluster">
<title>cluster_2</title>
<polygon fill="transparent" stroke="black" stroke-dasharray="1,5" points="78,-8 78,-85 408,-85 408,-8 78,-8"/>
</g>
<!-- c_0_69 -->
<g id="node1" class="node">
<title>c_0_69</title>
<g id="a_node1"><a xlink:href="c_0_69.html" xlink:title="{sk₁ ∈ bool(ℕ × COMPLEX)}" target="_parent">
<polygon fill="#fa6900" stroke="#7f7542" points="554,-195.5 554,-210.5 744,-210.5 744,-195.5 554,-195.5"/>
<text text-anchor="middle" x="649" y="-199.3" font-family="Times,serif" font-size="14.00">sk₁ ∈ bool(ℕ × COMPLEX)</text>
</a>
</g>
</g>
<!-- c_0_110 -->
<g id="node5" class="node">
<title>c_0_110</title>
<g id="a_node5"><a xlink:href="c_0_110.html" xlink:title="{ \|....\| sk₁ ∈ bool(ℕ × ℝ)}" target="_parent">
<polygon fill="#fa6900" stroke="#7f7542" points="202.5,-113.5 202.5,-128.5 361.5,-128.5 361.5,-113.5 202.5,-113.5"/>
<text text-anchor="middle" x="282" y="-117.3" font-family="Times,serif" font-size="14.00">|....| sk₁ ∈ bool(ℕ × ℝ)</text>
</a>
</g>
</g>
<!-- c_0_69&#45;&gt;c_0_110 -->
<g id="edge1" class="edge">
<title>c_0_69&#45;&gt;c_0_110</title>
<path fill="none" stroke="black" d="M649,-195.43C649,-175.13 649,-121 649,-121 649,-121 371.63,-121 371.63,-121"/>
<polygon fill="black" stroke="black" points="371.63,-117.5 361.63,-121 371.63,-124.5 371.63,-117.5"/>
</g>
<!-- c_0_97 -->
<g id="node2" class="node">
<title>c_0_97</title>
<g id="a_node2"><a xlink:href="c_0_97.html" xlink:title="{X₃ ∈ bool(X₁ × X₂)|complex&#45;membered(X₂)|function(X₃)|⇊| \|....\| X₃ ∈ bool(X₁ × ℝ)}" target="_parent">
<polygon fill="#f8edd1" stroke="#7f7542" points="370,-165.5 370,-240.5 536,-240.5 536,-165.5 370,-165.5"/>
<text text-anchor="middle" x="453" y="-229.3" font-family="Times,serif" font-size="14.00">X₃ ∈ bool(X₁ × X₂)</text>
<polyline fill="none" stroke="#7f7542" points="370,-225.5 536,-225.5 "/>
<text text-anchor="middle" x="453" y="-214.3" font-family="Times,serif" font-size="14.00">complex&#45;membered(X₂)</text>
<polyline fill="none" stroke="#7f7542" points="370,-210.5 536,-210.5 "/>
<text text-anchor="middle" x="453" y="-199.3" font-family="Times,serif" font-size="14.00">function(X₃)</text>
<polyline fill="none" stroke="#7f7542" points="370,-195.5 536,-195.5 "/>
<text text-anchor="middle" x="453" y="-184.3" font-family="Times,serif" font-size="14.00">⇊</text>
<polyline fill="none" stroke="#7f7542" points="370,-180.5 536,-180.5 "/>
<text text-anchor="middle" x="453" y="-169.3" font-family="Times,serif" font-size="14.00">|....| X₃ ∈ bool(X₁ × ℝ)</text>
</a>
</g>
</g>
<!-- c_0_97&#45;&gt;c_0_110 -->
<g id="edge2" class="edge">
<title>c_0_97&#45;&gt;c_0_110</title>
<path fill="none" stroke="black" d="M369.73,-180C361.86,-180 356.75,-180 356.75,-180 356.75,-180 356.75,-138.71 356.75,-138.71"/>
<polygon fill="black" stroke="black" points="360.25,-138.71 356.75,-128.71 353.25,-138.71 360.25,-138.71"/>
</g>
<!-- c_0_68 -->
<g id="node3" class="node">
<title>c_0_68</title>
<g id="a_node3"><a xlink:href="c_0_68.html" xlink:title="{complex&#45;membered(COMPLEX)}" target="_parent">
<polygon fill="#f8edd1" stroke="#7f7542" points="126,-195.5 126,-210.5 352,-210.5 352,-195.5 126,-195.5"/>
<text text-anchor="middle" x="239" y="-199.3" font-family="Times,serif" font-size="14.00">complex&#45;membered(COMPLEX)</text>
</a>
</g>
</g>
<!-- c_0_68&#45;&gt;c_0_110 -->
<g id="edge3" class="edge">
<title>c_0_68&#45;&gt;c_0_110</title>
<path fill="none" stroke="black" d="M277.25,-195.43C277.25,-195.43 277.25,-138.79 277.25,-138.79"/>
<polygon fill="black" stroke="black" points="280.75,-138.79 277.25,-128.79 273.75,-138.79 280.75,-138.79"/>
</g>
<!-- c_0_70 -->
<g id="node4" class="node">
<title>c_0_70</title>
<g id="a_node4"><a xlink:href="c_0_70.html" xlink:title="{function(sk₁)}" target="_parent">
<polygon fill="#fa6900" stroke="#7f7542" points="16.5,-195.5 16.5,-210.5 107.5,-210.5 107.5,-195.5 16.5,-195.5"/>
<text text-anchor="middle" x="62" y="-199.3" font-family="Times,serif" font-size="14.00">function(sk₁)</text>
</a>
</g>
</g>
<!-- c_0_70&#45;&gt;c_0_110 -->
<g id="edge4" class="edge">
<title>c_0_70&#45;&gt;c_0_110</title>
<path fill="none" stroke="black" d="M96.75,-195.43C96.75,-175.13 96.75,-121 96.75,-121 96.75,-121 192.36,-121 192.36,-121"/>
<polygon fill="black" stroke="black" points="192.36,-124.5 202.36,-121 192.36,-117.5 192.36,-124.5"/>
</g>
<!-- c_0_124 -->
<g id="node6" class="node">
<title>c_0_124</title>
<g id="a_node6"><a xlink:href="c_0_124.html" xlink:title="{real&#45;valued( \|....\| sk₁)}" target="_parent">
<polygon fill="#fa6900" stroke="#7f7542" points="252,-39 252,-54 400,-54 400,-39 252,-39"/>
<text text-anchor="middle" x="326" y="-42.8" font-family="Times,serif" font-size="14.00">real&#45;valued( |....| sk₁)</text>
</a>
</g>
</g>
<!-- c_0_110&#45;&gt;c_0_124 -->
<g id="edge5" class="edge">
<title>c_0_110&#45;&gt;c_0_124</title>
<path fill="none" stroke="black" stroke-dasharray="5,2" d="M306.75,-113.31C306.75,-113.31 306.75,-64.26 306.75,-64.26"/>
<polygon fill="black" stroke="black" points="310.25,-64.26 306.75,-54.26 303.25,-64.26 310.25,-64.26"/>
</g>
<!-- c_0_123 -->
<g id="node7" class="node">
<title>c_0_123</title>
<g id="a_node7"><a xlink:href="c_0_123.html" xlink:title="{X₁ ∈ ℕ ⊆ ℝ|real&#45;valued( \|....\| sk₁)|⇊|( \|....\| sk₁)(X₁) = 0}" target="_parent">
<polygon fill="#fa6900" stroke="#7f7542" points="86,-16.5 86,-76.5 234,-76.5 234,-16.5 86,-16.5"/>
<text text-anchor="middle" x="160" y="-65.3" font-family="Times,serif" font-size="14.00">X₁ ∈ ℕ ⊆ ℝ</text>
<polyline fill="none" stroke="#7f7542" points="86,-61.5 234,-61.5 "/>
<text text-anchor="middle" x="160" y="-50.3" font-family="Times,serif" font-size="14.00">real&#45;valued( |....| sk₁)</text>
<polyline fill="none" stroke="#7f7542" points="86,-46.5 234,-46.5 "/>
<text text-anchor="middle" x="160" y="-35.3" font-family="Times,serif" font-size="14.00">⇊</text>
<polyline fill="none" stroke="#7f7542" points="86,-31.5 234,-31.5 "/>
<text text-anchor="middle" x="160" y="-20.3" font-family="Times,serif" font-size="14.00">( |....| sk₁)(X₁) = 0</text>
</a>
</g>
</g>
<!-- c_0_110&#45;&gt;c_0_123 -->
<g id="edge6" class="edge">
<title>c_0_110&#45;&gt;c_0_123</title>
<path fill="none" stroke="black" stroke-dasharray="5,2" d="M218.25,-113.31C218.25,-113.31 218.25,-86.51 218.25,-86.51"/>
<polygon fill="black" stroke="black" points="221.75,-86.51 218.25,-76.51 214.75,-86.51 221.75,-86.51"/>
</g>
</g>
</svg>
