<?xml version="1.0" encoding="UTF-8" standalone="no"?>
<!DOCTYPE svg PUBLIC "-//W3C//DTD SVG 1.1//EN"
 "http://www.w3.org/Graphics/SVG/1.1/DTD/svg11.dtd">
<!-- Generated by graphviz version 5.0.0 (0)
 -->
<!-- Title: proof Pages: 1 -->
<svg width="206pt" height="153pt"
 viewBox="0.00 0.00 206.00 153.00" xmlns="http://www.w3.org/2000/svg" xmlns:xlink="http://www.w3.org/1999/xlink">
<g id="graph0" class="graph" transform="scale(1 1) rotate(0) translate(4 149)">
<title>proof</title>
<g id="clust1" class="cluster">
<title>cluster_1</title>
<polygon fill="transparent" stroke="black" stroke-width="2" points="39,-105 39,-137 159,-137 159,-105 39,-105"/>
</g>
<g id="clust2" class="cluster">
<title>cluster_2</title>
<polygon fill="transparent" stroke="black" stroke-dasharray="1,5" points="8,-8 8,-85 190,-85 190,-8 8,-8"/>
</g>
<!-- cc16_valued_0 -->
<g id="node1" class="node">
<title>cc16_valued_0</title>
<g id="a_node1"><a xlink:href="cc16_valued_0.html" xlink:title="cc16_valued_0" target="_parent">
<polygon fill="#69d2e7" stroke="#7f7542" points="47.5,-113.5 47.5,-128.5 150.5,-128.5 150.5,-113.5 47.5,-113.5"/>
<text text-anchor="middle" x="99" y="-117.3" font-family="Times,serif" font-size="14.00">cc16_valued_0</text>
</a>
</g>
</g>
<!-- c_0_71 -->
<g id="node2" class="node">
<title>c_0_71</title>
<g id="a_node2"><a xlink:href="c_0_71.html" xlink:title="{X₂ ∈ bool(X₃ × X₁)|complex&#45;membered(X₁)|⇊|complex&#45;valued(X₂)}" target="_parent">
<polygon fill="#f8edd1" stroke="#7f7542" points="16,-16.5 16,-76.5 182,-76.5 182,-16.5 16,-16.5"/>
<text text-anchor="middle" x="99" y="-65.3" font-family="Times,serif" font-size="14.00">X₂ ∈ bool(X₃ × X₁)</text>
<polyline fill="none" stroke="#7f7542" points="16,-61.5 182,-61.5 "/>
<text text-anchor="middle" x="99" y="-50.3" font-family="Times,serif" font-size="14.00">complex&#45;membered(X₁)</text>
<polyline fill="none" stroke="#7f7542" points="16,-46.5 182,-46.5 "/>
<text text-anchor="middle" x="99" y="-35.3" font-family="Times,serif" font-size="14.00">⇊</text>
<polyline fill="none" stroke="#7f7542" points="16,-31.5 182,-31.5 "/>
<text text-anchor="middle" x="99" y="-20.3" font-family="Times,serif" font-size="14.00">complex&#45;valued(X₂)</text>
</a>
</g>
</g>
<!-- cc16_valued_0&#45;&gt;c_0_71 -->
<g id="edge1" class="edge">
<title>cc16_valued_0&#45;&gt;c_0_71</title>
<path fill="none" stroke="black" d="M99,-113.31C99,-113.31 99,-86.51 99,-86.51"/>
<polygon fill="black" stroke="black" points="102.5,-86.51 99,-76.51 95.5,-86.51 102.5,-86.51"/>
</g>
</g>
</svg>
