<?xml version="1.0" encoding="UTF-8" standalone="no"?>
<!DOCTYPE svg PUBLIC "-//W3C//DTD SVG 1.1//EN"
 "http://www.w3.org/Graphics/SVG/1.1/DTD/svg11.dtd">
<!-- Generated by graphviz version 5.0.0 (0)
 -->
<!-- Title: proof Pages: 1 -->
<svg width="2043pt" height="840pt"
 viewBox="0.00 0.00 2042.50 840.00" xmlns="http://www.w3.org/2000/svg" xmlns:xlink="http://www.w3.org/1999/xlink">
<g id="graph0" class="graph" transform="scale(1 1) rotate(0) translate(4 836)">
<title>proof</title>
<g id="clust1" class="cluster">
<title>cluster_0</title>
<polygon fill="#ffc233" stroke="#ffc233" points="8,-8 8,-824 1163,-824 1163,-8 8,-8"/>
</g>
<!-- t13_csspace2 -->
<g id="node1" class="node">
<title>t13_csspace2</title>
<g id="a_node1"><a xlink:href="t13_csspace2.html" xlink:title="t13_csspace2" target="_parent">
<polygon fill="#fa6900" stroke="#7f7542" points="429,-800.5 429,-815.5 525,-815.5 525,-800.5 429,-800.5"/>
<text text-anchor="middle" x="477" y="-804.3" font-family="Times,serif" font-size="14.00">t13_csspace2</text>
</a>
</g>
</g>
<!-- c_0_66 -->
<g id="node2" class="node">
<title>c_0_66</title>
<g id="a_node2"><a xlink:href="c_0_66.html" xlink:title="{Sum(ℕ \|....\| COMPLEX \|....\| sk₁) = 0}" target="_parent">
<polygon fill="#fa6900" stroke="#7f7542" points="350,-718.5 350,-733.5 604,-733.5 604,-718.5 350,-718.5"/>
<text text-anchor="middle" x="477" y="-722.3" font-family="Times,serif" font-size="14.00">Sum(ℕ |....| COMPLEX |....| sk₁) = 0</text>
</a>
</g>
</g>
<!-- t13_csspace2&#45;&gt;c_0_66 -->
<g id="edge1" class="edge">
<title>t13_csspace2&#45;&gt;c_0_66</title>
<path fill="none" stroke="black" d="M477,-800.43C477,-800.43 477,-743.79 477,-743.79"/>
<polygon fill="black" stroke="black" points="480.5,-743.79 477,-733.79 473.5,-743.79 480.5,-743.79"/>
</g>
<!-- c_0_69 -->
<g id="node3" class="node">
<title>c_0_69</title>
<g id="a_node3"><a xlink:href="c_0_69.html" xlink:title="{sk₁ ∈ bool(ℕ × COMPLEX)}" target="_parent">
<polygon fill="#fa6900" stroke="#7f7542" points="622,-718.5 622,-733.5 812,-733.5 812,-718.5 622,-718.5"/>
<text text-anchor="middle" x="717" y="-722.3" font-family="Times,serif" font-size="14.00">sk₁ ∈ bool(ℕ × COMPLEX)</text>
</a>
</g>
</g>
<!-- t13_csspace2&#45;&gt;c_0_69 -->
<g id="edge2" class="edge">
<title>t13_csspace2&#45;&gt;c_0_69</title>
<path fill="none" stroke="black" d="M525.28,-804C595.36,-804 717,-804 717,-804 717,-804 717,-743.76 717,-743.76"/>
<polygon fill="black" stroke="black" points="720.5,-743.76 717,-733.76 713.5,-743.76 720.5,-743.76"/>
</g>
<!-- c_0_70 -->
<g id="node4" class="node">
<title>c_0_70</title>
<g id="a_node4"><a xlink:href="c_0_70.html" xlink:title="{function(sk₁)}" target="_parent">
<polygon fill="#fa6900" stroke="#7f7542" points="240.5,-718.5 240.5,-733.5 331.5,-733.5 331.5,-718.5 240.5,-718.5"/>
<text text-anchor="middle" x="286" y="-722.3" font-family="Times,serif" font-size="14.00">function(sk₁)</text>
</a>
</g>
</g>
<!-- t13_csspace2&#45;&gt;c_0_70 -->
<g id="edge3" class="edge">
<title>t13_csspace2&#45;&gt;c_0_70</title>
<path fill="none" stroke="black" d="M428.8,-804C372.22,-804 286,-804 286,-804 286,-804 286,-743.76 286,-743.76"/>
<polygon fill="black" stroke="black" points="289.5,-743.76 286,-733.76 282.5,-743.76 289.5,-743.76"/>
</g>
<!-- c_0_82 -->
<g id="node5" class="node">
<title>c_0_82</title>
<g id="a_node5"><a xlink:href="c_0_82.html" xlink:title="{absolutely_summable(sk₁)}" target="_parent">
<polygon fill="#fa6900" stroke="#7f7542" points="16,-718.5 16,-733.5 202,-733.5 202,-718.5 16,-718.5"/>
<text text-anchor="middle" x="109" y="-722.3" font-family="Times,serif" font-size="14.00">absolutely_summable(sk₁)</text>
</a>
</g>
</g>
<!-- t13_csspace2&#45;&gt;c_0_82 -->
<g id="edge4" class="edge">
<title>t13_csspace2&#45;&gt;c_0_82</title>
<path fill="none" stroke="black" d="M428.89,-812C329.14,-812 109,-812 109,-812 109,-812 109,-743.63 109,-743.63"/>
<polygon fill="black" stroke="black" points="112.5,-743.63 109,-733.63 105.5,-743.63 112.5,-743.63"/>
</g>
<!-- c_0_83 -->
<g id="node6" class="node">
<title>c_0_83</title>
<g id="a_node6"><a xlink:href="c_0_83.html" xlink:title="{quasi_total(sk₁,ℕ,COMPLEX)}" target="_parent">
<polygon fill="#fa6900" stroke="#7f7542" points="56.5,-561.5 56.5,-576.5 263.5,-576.5 263.5,-561.5 56.5,-561.5"/>
<text text-anchor="middle" x="160" y="-565.3" font-family="Times,serif" font-size="14.00">quasi_total(sk₁,ℕ,COMPLEX)</text>
</a>
</g>
</g>
<!-- t13_csspace2&#45;&gt;c_0_83 -->
<g id="edge5" class="edge">
<title>t13_csspace2&#45;&gt;c_0_83</title>
<path fill="none" stroke="black" d="M428.9,-808C354.81,-808 221.25,-808 221.25,-808 221.25,-808 221.25,-586.68 221.25,-586.68"/>
<polygon fill="black" stroke="black" points="224.75,-586.68 221.25,-576.68 217.75,-586.68 224.75,-586.68"/>
</g>
<!-- c_0_100 -->
<g id="node9" class="node">
<title>c_0_100</title>
<g id="a_node9"><a xlink:href="c_0_100.html" xlink:title="{ℕ . COMPLEX . sk₁ . sk₂ ≠ 0c}" target="_parent">
<polygon fill="#fa6900" stroke="#7f7542" points="912,-718.5 912,-733.5 1120,-733.5 1120,-718.5 912,-718.5"/>
<text text-anchor="middle" x="1016" y="-722.3" font-family="Times,serif" font-size="14.00">ℕ . COMPLEX . sk₁ . sk₂ ≠ 0c</text>
</a>
</g>
</g>
<!-- t13_csspace2&#45;&gt;c_0_100 -->
<g id="edge10" class="edge">
<title>t13_csspace2&#45;&gt;c_0_100</title>
<path fill="none" stroke="black" d="M525.31,-812C657.61,-812 1016,-812 1016,-812 1016,-812 1016,-743.63 1016,-743.63"/>
<polygon fill="black" stroke="black" points="1019.5,-743.63 1016,-733.63 1012.5,-743.63 1019.5,-743.63"/>
</g>
<!-- c_0_120 -->
<g id="node12" class="node">
<title>c_0_120</title>
<g id="a_node12"><a xlink:href="c_0_120.html" xlink:title="{sk₂ ∈ ℕ ⊆ ℝ}" target="_parent">
<polygon fill="#fa6900" stroke="#7f7542" points="848.5,-561.5 848.5,-576.5 935.5,-576.5 935.5,-561.5 848.5,-561.5"/>
<text text-anchor="middle" x="892" y="-565.3" font-family="Times,serif" font-size="14.00">sk₂ ∈ ℕ ⊆ ℝ</text>
</a>
</g>
</g>
<!-- t13_csspace2&#45;&gt;c_0_120 -->
<g id="edge19" class="edge">
<title>t13_csspace2&#45;&gt;c_0_120</title>
<path fill="none" stroke="black" d="M525.24,-808C632.28,-808 880.25,-808 880.25,-808 880.25,-808 880.25,-586.68 880.25,-586.68"/>
<polygon fill="black" stroke="black" points="883.75,-586.68 880.25,-576.68 876.75,-586.68 883.75,-586.68"/>
</g>
<!-- c_0_93 -->
<g id="node7" class="node">
<title>c_0_93</title>
<g id="a_node7"><a xlink:href="c_0_93.html" xlink:title="{Sum( \|....\| sk₁) = 0}" target="_parent">
<polygon fill="#fa6900" stroke="#7f7542" points="322,-561.5 322,-576.5 452,-576.5 452,-561.5 322,-561.5"/>
<text text-anchor="middle" x="387" y="-565.3" font-family="Times,serif" font-size="14.00">Sum( |....| sk₁) = 0</text>
</a>
</g>
</g>
<!-- c_0_66&#45;&gt;c_0_93 -->
<g id="edge8" class="edge">
<title>c_0_66&#45;&gt;c_0_93</title>
<path fill="none" stroke="black" d="M370.4,-718.43C370.4,-718.43 370.4,-586.87 370.4,-586.87"/>
<polygon fill="black" stroke="black" points="373.9,-586.87 370.4,-576.87 366.9,-586.87 373.9,-586.87"/>
</g>
<!-- c_0_69&#45;&gt;c_0_93 -->
<g id="edge6" class="edge">
<title>c_0_69&#45;&gt;c_0_93</title>
<path fill="none" stroke="black" d="M627.5,-718.47C627.5,-711.76 627.5,-703 627.5,-703 627.5,-703 390.8,-703 390.8,-703 390.8,-703 390.8,-586.59 390.8,-586.59"/>
<polygon fill="black" stroke="black" points="394.3,-586.59 390.8,-576.59 387.3,-586.59 394.3,-586.59"/>
</g>
<!-- c_0_94 -->
<g id="node8" class="node">
<title>c_0_94</title>
<g id="a_node8"><a xlink:href="c_0_94.html" xlink:title="{complex&#45;valued(sk₁)}" target="_parent">
<polygon fill="#fa6900" stroke="#7f7542" points="668,-561.5 668,-576.5 810,-576.5 810,-561.5 668,-561.5"/>
<text text-anchor="middle" x="739" y="-565.3" font-family="Times,serif" font-size="14.00">complex&#45;valued(sk₁)</text>
</a>
</g>
</g>
<!-- c_0_69&#45;&gt;c_0_94 -->
<g id="edge9" class="edge">
<title>c_0_69&#45;&gt;c_0_94</title>
<path fill="none" stroke="black" d="M703.5,-718.43C703.5,-718.43 703.5,-586.87 703.5,-586.87"/>
<polygon fill="black" stroke="black" points="707,-586.87 703.5,-576.87 700,-586.87 707,-586.87"/>
</g>
<!-- c_0_109 -->
<g id="node10" class="node">
<title>c_0_109</title>
<g id="a_node10"><a xlink:href="c_0_109.html" xlink:title="{ \|....\| sk₁ ∈ bool(ℕ × ℝ)|X₁ ∈ ℕ ⊆ ℝ|real&#45;valued( \|....\| sk₁)|⇊|( \|....\| sk₁)(X₁) = 0}" target="_parent">
<polygon fill="#fa6900" stroke="#7f7542" points="203.5,-374.5 203.5,-449.5 362.5,-449.5 362.5,-374.5 203.5,-374.5"/>
<text text-anchor="middle" x="283" y="-438.3" font-family="Times,serif" font-size="14.00">|....| sk₁ ∈ bool(ℕ × ℝ)</text>
<polyline fill="none" stroke="#7f7542" points="203.5,-434.5 362.5,-434.5 "/>
<text text-anchor="middle" x="283" y="-423.3" font-family="Times,serif" font-size="14.00">X₁ ∈ ℕ ⊆ ℝ</text>
<polyline fill="none" stroke="#7f7542" points="203.5,-419.5 362.5,-419.5 "/>
<text text-anchor="middle" x="283" y="-408.3" font-family="Times,serif" font-size="14.00">real&#45;valued( |....| sk₁)</text>
<polyline fill="none" stroke="#7f7542" points="203.5,-404.5 362.5,-404.5 "/>
<text text-anchor="middle" x="283" y="-393.3" font-family="Times,serif" font-size="14.00">⇊</text>
<polyline fill="none" stroke="#7f7542" points="203.5,-389.5 362.5,-389.5 "/>
<text text-anchor="middle" x="283" y="-378.3" font-family="Times,serif" font-size="14.00">( |....| sk₁)(X₁) = 0</text>
</a>
</g>
</g>
<!-- c_0_69&#45;&gt;c_0_109 -->
<g id="edge15" class="edge">
<title>c_0_69&#45;&gt;c_0_109</title>
<path fill="none" stroke="black" d="M658.75,-718.25C658.75,-673.19 658.75,-447 658.75,-447 658.75,-447 372.69,-447 372.69,-447"/>
<polygon fill="black" stroke="black" points="372.69,-443.5 362.69,-447 372.69,-450.5 372.69,-443.5"/>
</g>
<!-- c_0_110 -->
<g id="node11" class="node">
<title>c_0_110</title>
<g id="a_node11"><a xlink:href="c_0_110.html" xlink:title="{ \|....\| sk₁ ∈ bool(ℕ × ℝ)}" target="_parent">
<polygon fill="#fa6900" stroke="#7f7542" points="490.5,-561.5 490.5,-576.5 649.5,-576.5 649.5,-561.5 490.5,-561.5"/>
<text text-anchor="middle" x="570" y="-565.3" font-family="Times,serif" font-size="14.00">|....| sk₁ ∈ bool(ℕ × ℝ)</text>
</a>
</g>
</g>
<!-- c_0_69&#45;&gt;c_0_110 -->
<g id="edge17" class="edge">
<title>c_0_69&#45;&gt;c_0_110</title>
<path fill="none" stroke="black" d="M633,-718.43C633,-718.43 633,-586.87 633,-586.87"/>
<polygon fill="black" stroke="black" points="636.5,-586.87 633,-576.87 629.5,-586.87 636.5,-586.87"/>
</g>
<!-- c_0_133 -->
<g id="node17" class="node">
<title>c_0_133</title>
<g id="a_node17"><a xlink:href="c_0_133.html" xlink:title="{relation(sk₁)}" target="_parent">
<polygon fill="#fa6900" stroke="#7f7542" points="839,-188 839,-203 927,-203 927,-188 839,-188"/>
<text text-anchor="middle" x="883" y="-191.8" font-family="Times,serif" font-size="14.00">relation(sk₁)</text>
</a>
</g>
</g>
<!-- c_0_69&#45;&gt;c_0_133 -->
<g id="edge26" class="edge">
<title>c_0_69&#45;&gt;c_0_133</title>
<path fill="none" stroke="black" d="M812.09,-726C830.27,-726 843.75,-726 843.75,-726 843.75,-726 843.75,-213.41 843.75,-213.41"/>
<polygon fill="black" stroke="black" points="847.25,-213.41 843.75,-203.41 840.25,-213.41 847.25,-213.41"/>
</g>
<!-- c_0_134 -->
<g id="node18" class="node">
<title>c_0_134</title>
<g id="a_node18"><a xlink:href="c_0_134.html" xlink:title="{sk₁(sk₂) = 0|sk₂ ∈ ℕ|⇊|⊥}" target="_parent">
<polygon fill="#fa6900" stroke="#7f7542" points="904.5,-382 904.5,-442 987.5,-442 987.5,-382 904.5,-382"/>
<text text-anchor="middle" x="946" y="-430.8" font-family="Times,serif" font-size="14.00">sk₁(sk₂) = 0</text>
<polyline fill="none" stroke="#7f7542" points="904.5,-427 987.5,-427 "/>
<text text-anchor="middle" x="946" y="-415.8" font-family="Times,serif" font-size="14.00">sk₂ ∈ ℕ</text>
<polyline fill="none" stroke="#7f7542" points="904.5,-412 987.5,-412 "/>
<text text-anchor="middle" x="946" y="-400.8" font-family="Times,serif" font-size="14.00">⇊</text>
<polyline fill="none" stroke="#7f7542" points="904.5,-397 987.5,-397 "/>
<text text-anchor="middle" x="946" y="-385.8" font-family="Times,serif" font-size="14.00">⊥</text>
</a>
</g>
</g>
<!-- c_0_69&#45;&gt;c_0_134 -->
<g id="edge27" class="edge">
<title>c_0_69&#45;&gt;c_0_134</title>
<path fill="none" stroke="black" d="M663.38,-718.24C663.38,-669.88 663.38,-412 663.38,-412 663.38,-412 894.3,-412 894.3,-412"/>
<polygon fill="black" stroke="black" points="894.3,-415.5 904.3,-412 894.3,-408.5 894.3,-415.5"/>
</g>
<!-- c_0_70&#45;&gt;c_0_93 -->
<g id="edge7" class="edge">
<title>c_0_70&#45;&gt;c_0_93</title>
<path fill="none" stroke="black" d="M329.6,-718.43C329.6,-718.43 329.6,-586.87 329.6,-586.87"/>
<polygon fill="black" stroke="black" points="333.1,-586.87 329.6,-576.87 326.1,-586.87 333.1,-586.87"/>
</g>
<!-- c_0_70&#45;&gt;c_0_109 -->
<g id="edge16" class="edge">
<title>c_0_70&#45;&gt;c_0_109</title>
<path fill="none" stroke="black" d="M292.75,-718.24C292.75,-718.24 292.75,-459.6 292.75,-459.6"/>
<polygon fill="black" stroke="black" points="296.25,-459.6 292.75,-449.6 289.25,-459.6 296.25,-459.6"/>
</g>
<!-- c_0_70&#45;&gt;c_0_110 -->
<g id="edge18" class="edge">
<title>c_0_70&#45;&gt;c_0_110</title>
<path fill="none" stroke="black" d="M323.9,-718.35C323.9,-708.6 323.9,-693 323.9,-693 323.9,-693 547.25,-693 547.25,-693 547.25,-693 547.25,-586.76 547.25,-586.76"/>
<polygon fill="black" stroke="black" points="550.75,-586.76 547.25,-576.76 543.75,-586.76 550.75,-586.76"/>
</g>
<!-- c_0_70&#45;&gt;c_0_134 -->
<g id="edge28" class="edge">
<title>c_0_70&#45;&gt;c_0_134</title>
<path fill="none" stroke="black" d="M327.7,-718.29C327.7,-715.49 327.7,-713 327.7,-713 327.7,-713 944.5,-713 944.5,-713 944.5,-713 944.5,-452.24 944.5,-452.24"/>
<polygon fill="black" stroke="black" points="948,-452.24 944.5,-442.24 941,-452.24 948,-452.24"/>
</g>
<!-- c_0_136 -->
<g id="node20" class="node">
<title>c_0_136</title>
<g id="a_node20"><a xlink:href="c_0_136.html" xlink:title="{X₁ ∈ ℕ ⊆ ℝ|⇊|sk₁(X₁) = 0}" target="_parent">
<polygon fill="#fa6900" stroke="#7f7542" points="718.5,-68.5 718.5,-113.5 799.5,-113.5 799.5,-68.5 718.5,-68.5"/>
<text text-anchor="middle" x="759" y="-102.3" font-family="Times,serif" font-size="14.00">X₁ ∈ ℕ ⊆ ℝ</text>
<polyline fill="none" stroke="#7f7542" points="718.5,-98.5 799.5,-98.5 "/>
<text text-anchor="middle" x="759" y="-87.3" font-family="Times,serif" font-size="14.00">⇊</text>
<polyline fill="none" stroke="#7f7542" points="718.5,-83.5 799.5,-83.5 "/>
<text text-anchor="middle" x="759" y="-72.3" font-family="Times,serif" font-size="14.00">sk₁(X₁) = 0</text>
</a>
</g>
</g>
<!-- c_0_70&#45;&gt;c_0_136 -->
<g id="edge32" class="edge">
<title>c_0_70&#45;&gt;c_0_136</title>
<path fill="none" stroke="black" d="M325.8,-718.26C325.8,-713.38 325.8,-708 325.8,-708 325.8,-708 654.12,-708 654.12,-708 654.12,-708 654.12,-83 654.12,-83 654.12,-83 708.45,-83 708.45,-83"/>
<polygon fill="black" stroke="black" points="708.45,-86.5 718.45,-83 708.45,-79.5 708.45,-86.5"/>
</g>
<!-- c_0_82&#45;&gt;c_0_109 -->
<g id="edge13" class="edge">
<title>c_0_82&#45;&gt;c_0_109</title>
<path fill="none" stroke="black" d="M36.25,-718.24C36.25,-669.88 36.25,-412 36.25,-412 36.25,-412 193.23,-412 193.23,-412"/>
<polygon fill="black" stroke="black" points="193.23,-415.5 203.23,-412 193.23,-408.5 193.23,-415.5"/>
</g>
<!-- c_0_83&#45;&gt;c_0_109 -->
<g id="edge12" class="edge">
<title>c_0_83&#45;&gt;c_0_109</title>
<path fill="none" stroke="black" d="M243.5,-561.43C243.5,-561.43 243.5,-459.62 243.5,-459.62"/>
<polygon fill="black" stroke="black" points="247,-459.62 243.5,-449.62 240,-459.62 247,-459.62"/>
</g>
<!-- c_0_83&#45;&gt;c_0_134 -->
<g id="edge29" class="edge">
<title>c_0_83&#45;&gt;c_0_134</title>
<path fill="none" stroke="black" d="M223.5,-561.46C223.5,-543.76 223.5,-501 223.5,-501 223.5,-501 914.83,-501 914.83,-501 914.83,-501 914.83,-452.13 914.83,-452.13"/>
<polygon fill="black" stroke="black" points="918.33,-452.13 914.83,-442.13 911.33,-452.13 918.33,-452.13"/>
</g>
<!-- c_0_93&#45;&gt;c_0_109 -->
<g id="edge11" class="edge">
<title>c_0_93&#45;&gt;c_0_109</title>
<path fill="none" stroke="black" d="M335.5,-561.43C335.5,-561.43 335.5,-459.62 335.5,-459.62"/>
<polygon fill="black" stroke="black" points="339,-459.62 335.5,-449.62 332,-459.62 339,-459.62"/>
</g>
<!-- c_0_94&#45;&gt;c_0_109 -->
<g id="edge14" class="edge">
<title>c_0_94&#45;&gt;c_0_109</title>
<path fill="none" stroke="black" d="M677.67,-561.18C677.67,-533.82 677.67,-444 677.67,-444 677.67,-444 372.87,-444 372.87,-444"/>
<polygon fill="black" stroke="black" points="372.87,-440.5 362.87,-444 372.87,-447.5 372.87,-440.5"/>
</g>
<!-- c_0_94&#45;&gt;c_0_136 -->
<g id="edge33" class="edge">
<title>c_0_94&#45;&gt;c_0_136</title>
<path fill="none" stroke="black" d="M687.33,-561.22C687.33,-499.98 687.33,-98 687.33,-98 687.33,-98 708.14,-98 708.14,-98"/>
<polygon fill="black" stroke="black" points="708.14,-101.5 718.14,-98 708.14,-94.5 708.14,-101.5"/>
</g>
<!-- c_0_125 -->
<g id="node15" class="node">
<title>c_0_125</title>
<g id="a_node15"><a xlink:href="c_0_125.html" xlink:title="{ℕ . COMPLEX . sk₁ . sk₂ ≠ 0}" target="_parent">
<polygon fill="#fa6900" stroke="#7f7542" points="953.5,-561.5 953.5,-576.5 1154.5,-576.5 1154.5,-561.5 953.5,-561.5"/>
<text text-anchor="middle" x="1054" y="-565.3" font-family="Times,serif" font-size="14.00">ℕ . COMPLEX . sk₁ . sk₂ ≠ 0</text>
</a>
</g>
</g>
<!-- c_0_100&#45;&gt;c_0_125 -->
<g id="edge23" class="edge">
<title>c_0_100&#45;&gt;c_0_125</title>
<path fill="none" stroke="black" d="M1036.75,-718.43C1036.75,-718.43 1036.75,-586.87 1036.75,-586.87"/>
<polygon fill="black" stroke="black" points="1040.25,-586.87 1036.75,-576.87 1033.25,-586.87 1040.25,-586.87"/>
</g>
<!-- c_0_123 -->
<g id="node13" class="node">
<title>c_0_123</title>
<g id="a_node13"><a xlink:href="c_0_123.html" xlink:title="{X₁ ∈ ℕ ⊆ ℝ|real&#45;valued( \|....\| sk₁)|⇊|( \|....\| sk₁)(X₁) = 0}" target="_parent">
<polygon fill="#fa6900" stroke="#7f7542" points="491,-277.5 491,-337.5 639,-337.5 639,-277.5 491,-277.5"/>
<text text-anchor="middle" x="565" y="-326.3" font-family="Times,serif" font-size="14.00">X₁ ∈ ℕ ⊆ ℝ</text>
<polyline fill="none" stroke="#7f7542" points="491,-322.5 639,-322.5 "/>
<text text-anchor="middle" x="565" y="-311.3" font-family="Times,serif" font-size="14.00">real&#45;valued( |....| sk₁)</text>
<polyline fill="none" stroke="#7f7542" points="491,-307.5 639,-307.5 "/>
<text text-anchor="middle" x="565" y="-296.3" font-family="Times,serif" font-size="14.00">⇊</text>
<polyline fill="none" stroke="#7f7542" points="491,-292.5 639,-292.5 "/>
<text text-anchor="middle" x="565" y="-281.3" font-family="Times,serif" font-size="14.00">( |....| sk₁)(X₁) = 0</text>
</a>
</g>
</g>
<!-- c_0_109&#45;&gt;c_0_123 -->
<g id="edge21" class="edge">
<title>c_0_109&#45;&gt;c_0_123</title>
<path fill="none" stroke="black" d="M362.66,-379C438.24,-379 540.33,-379 540.33,-379 540.33,-379 540.33,-347.82 540.33,-347.82"/>
<polygon fill="black" stroke="black" points="543.83,-347.82 540.33,-337.82 536.83,-347.82 543.83,-347.82"/>
</g>
<!-- c_0_110&#45;&gt;c_0_123 -->
<g id="edge20" class="edge">
<title>c_0_110&#45;&gt;c_0_123</title>
<path fill="none" stroke="black" d="M589.67,-561.46C589.67,-561.46 589.67,-347.86 589.67,-347.86"/>
<polygon fill="black" stroke="black" points="593.17,-347.86 589.67,-337.86 586.17,-347.86 593.17,-347.86"/>
</g>
<!-- c_0_124 -->
<g id="node14" class="node">
<title>c_0_124</title>
<g id="a_node14"><a xlink:href="c_0_124.html" xlink:title="{real&#45;valued( \|....\| sk₁)}" target="_parent">
<polygon fill="#fa6900" stroke="#7f7542" points="1006,-300 1006,-315 1154,-315 1154,-300 1006,-300"/>
<text text-anchor="middle" x="1080" y="-303.8" font-family="Times,serif" font-size="14.00">real&#45;valued( |....| sk₁)</text>
</a>
</g>
</g>
<!-- c_0_110&#45;&gt;c_0_124 -->
<g id="edge22" class="edge">
<title>c_0_110&#45;&gt;c_0_124</title>
<path fill="none" stroke="black" d="M644.25,-561.18C644.25,-546.44 644.25,-516 644.25,-516 644.25,-516 1052.5,-516 1052.5,-516 1052.5,-516 1052.5,-325.42 1052.5,-325.42"/>
<polygon fill="black" stroke="black" points="1056,-325.42 1052.5,-315.42 1049,-325.42 1056,-325.42"/>
</g>
<!-- c_0_135 -->
<g id="node19" class="node">
<title>c_0_135</title>
<g id="a_node19"><a xlink:href="c_0_135.html" xlink:title="{sk₂ ∈ ℕ}" target="_parent">
<polygon fill="#fa6900" stroke="#7f7542" points="1099,-404.5 1099,-419.5 1153,-419.5 1153,-404.5 1099,-404.5"/>
<text text-anchor="middle" x="1126" y="-408.3" font-family="Times,serif" font-size="14.00">sk₂ ∈ ℕ</text>
</a>
</g>
</g>
<!-- c_0_120&#45;&gt;c_0_135 -->
<g id="edge31" class="edge">
<title>c_0_120&#45;&gt;c_0_135</title>
<path fill="none" stroke="black" d="M925.17,-561.31C925.17,-550.21 925.17,-531 925.17,-531 925.17,-531 1109.8,-531 1109.8,-531 1109.8,-531 1109.8,-429.81 1109.8,-429.81"/>
<polygon fill="black" stroke="black" points="1113.3,-429.81 1109.8,-419.81 1106.3,-429.81 1113.3,-429.81"/>
</g>
<!-- c_0_138 -->
<g id="node22" class="node">
<title>c_0_138</title>
<g id="a_node22"><a xlink:href="c_0_138.html" xlink:title="⊥" target="_parent">
<polygon fill="#fa6900" stroke="#7f7542" points="752,-16.5 752,-31.5 766,-31.5 766,-16.5 752,-16.5"/>
<text text-anchor="middle" x="759" y="-20.3" font-family="Times,serif" font-size="14.00">⊥</text>
</a>
</g>
</g>
<!-- c_0_120&#45;&gt;c_0_138 -->
<g id="edge39" class="edge">
<title>c_0_120&#45;&gt;c_0_138</title>
<path fill="none" stroke="black" d="M848.27,-569C838.01,-569 830,-569 830,-569 830,-569 830,-26 830,-26 830,-26 776.07,-26 776.07,-26"/>
<polygon fill="black" stroke="black" points="776.07,-22.5 766.07,-26 776.07,-29.5 776.07,-22.5"/>
</g>
<!-- c_0_132 -->
<g id="node16" class="node">
<title>c_0_132</title>
<g id="a_node16"><a xlink:href="c_0_132.html" xlink:title="{X₁ ∈ ℕ ⊆ ℝ|⇊|( \|....\| sk₁)(X₁) = 0}" target="_parent">
<polygon fill="#fa6900" stroke="#7f7542" points="697,-173 697,-218 821,-218 821,-173 697,-173"/>
<text text-anchor="middle" x="759" y="-206.8" font-family="Times,serif" font-size="14.00">X₁ ∈ ℕ ⊆ ℝ</text>
<polyline fill="none" stroke="#7f7542" points="697,-203 821,-203 "/>
<text text-anchor="middle" x="759" y="-191.8" font-family="Times,serif" font-size="14.00">⇊</text>
<polyline fill="none" stroke="#7f7542" points="697,-188 821,-188 "/>
<text text-anchor="middle" x="759" y="-176.8" font-family="Times,serif" font-size="14.00">( |....| sk₁)(X₁) = 0</text>
</a>
</g>
</g>
<!-- c_0_123&#45;&gt;c_0_132 -->
<g id="edge25" class="edge">
<title>c_0_123&#45;&gt;c_0_132</title>
<path fill="none" stroke="black" d="M639.23,-280C691.98,-280 753.5,-280 753.5,-280 753.5,-280 753.5,-228.14 753.5,-228.14"/>
<polygon fill="black" stroke="black" points="757,-228.14 753.5,-218.14 750,-228.14 757,-228.14"/>
</g>
<!-- c_0_124&#45;&gt;c_0_132 -->
<g id="edge24" class="edge">
<title>c_0_124&#45;&gt;c_0_132</title>
<path fill="none" stroke="black" d="M1080,-299.93C1080,-277.18 1080,-211 1080,-211 1080,-211 831.27,-211 831.27,-211"/>
<polygon fill="black" stroke="black" points="831.27,-207.5 821.27,-211 831.27,-214.5 831.27,-207.5"/>
</g>
<!-- c_0_125&#45;&gt;c_0_134 -->
<g id="edge30" class="edge">
<title>c_0_125&#45;&gt;c_0_134</title>
<path fill="none" stroke="black" d="M962,-561.43C962,-561.43 962,-452.25 962,-452.25"/>
<polygon fill="black" stroke="black" points="965.5,-452.25 962,-442.25 958.5,-452.25 965.5,-452.25"/>
</g>
<!-- c_0_132&#45;&gt;c_0_136 -->
<g id="edge35" class="edge">
<title>c_0_132&#45;&gt;c_0_136</title>
<path fill="none" stroke="black" d="M745.5,-172.83C745.5,-172.83 745.5,-123.63 745.5,-123.63"/>
<polygon fill="black" stroke="black" points="749,-123.63 745.5,-113.63 742,-123.63 749,-123.63"/>
</g>
<!-- c_0_133&#45;&gt;c_0_136 -->
<g id="edge34" class="edge">
<title>c_0_133&#45;&gt;c_0_136</title>
<path fill="none" stroke="black" d="M883,-187.98C883,-164.02 883,-91 883,-91 883,-91 809.6,-91 809.6,-91"/>
<polygon fill="black" stroke="black" points="809.6,-87.5 799.6,-91 809.6,-94.5 809.6,-87.5"/>
</g>
<!-- c_0_137 -->
<g id="node21" class="node">
<title>c_0_137</title>
<g id="a_node21"><a xlink:href="c_0_137.html" xlink:title="{sk₁(sk₂) ≠ 0}" target="_parent">
<polygon fill="#fa6900" stroke="#7f7542" points="904.5,-300 904.5,-315 987.5,-315 987.5,-300 904.5,-300"/>
<text text-anchor="middle" x="946" y="-303.8" font-family="Times,serif" font-size="14.00">sk₁(sk₂) ≠ 0</text>
</a>
</g>
</g>
<!-- c_0_134&#45;&gt;c_0_137 -->
<g id="edge37" class="edge">
<title>c_0_134&#45;&gt;c_0_137</title>
<path fill="none" stroke="black" d="M946,-381.77C946,-381.77 946,-325.2 946,-325.2"/>
<polygon fill="black" stroke="black" points="949.5,-325.2 946,-315.2 942.5,-325.2 949.5,-325.2"/>
</g>
<!-- c_0_135&#45;&gt;c_0_137 -->
<g id="edge36" class="edge">
<title>c_0_135&#45;&gt;c_0_137</title>
<path fill="none" stroke="black" d="M1098.9,-412C1061,-412 996.75,-412 996.75,-412 996.75,-412 996.75,-307 996.75,-307 996.75,-307 995.87,-307 995.87,-307"/>
<polygon fill="black" stroke="black" points="997.91,-303.5 987.91,-307 997.91,-310.5 997.91,-303.5"/>
</g>
<!-- c_0_136&#45;&gt;c_0_138 -->
<g id="edge38" class="edge">
<title>c_0_136&#45;&gt;c_0_138</title>
<path fill="none" stroke="black" d="M759,-68.32C759,-68.32 759,-41.59 759,-41.59"/>
<polygon fill="black" stroke="black" points="762.5,-41.59 759,-31.59 755.5,-41.59 762.5,-41.59"/>
</g>
<!-- c_0_137&#45;&gt;c_0_138 -->
<g id="edge40" class="edge">
<title>c_0_137&#45;&gt;c_0_138</title>
<path fill="none" stroke="black" d="M957.25,-299.84C957.25,-254.28 957.25,-21 957.25,-21 957.25,-21 776.06,-21 776.06,-21"/>
<polygon fill="black" stroke="black" points="776.06,-17.5 766.06,-21 776.06,-24.5 776.06,-17.5"/>
</g>
<!-- c_0_128 -->
<g id="node23" class="node">
<title>c_0_128</title>
<g id="a_node23"><a xlink:href="c_0_128.html" xlink:title="{X₁ ∈ bool(X₃)|X₂ ∈ X₁ ⊆ X₃|⇊|X₁ = Ø|X₂ ∈ X₁}" target="_parent">
<polygon fill="#f8edd1" stroke="#7f7542" points="1637.5,-531.5 1637.5,-606.5 1728.5,-606.5 1728.5,-531.5 1637.5,-531.5"/>
<text text-anchor="middle" x="1683" y="-595.3" font-family="Times,serif" font-size="14.00">X₁ ∈ bool(X₃)</text>
<polyline fill="none" stroke="#7f7542" points="1637.5,-591.5 1728.5,-591.5 "/>
<text text-anchor="middle" x="1683" y="-580.3" font-family="Times,serif" font-size="14.00">X₂ ∈ X₁ ⊆ X₃</text>
<polyline fill="none" stroke="#7f7542" points="1637.5,-576.5 1728.5,-576.5 "/>
<text text-anchor="middle" x="1683" y="-565.3" font-family="Times,serif" font-size="14.00">⇊</text>
<polyline fill="none" stroke="#7f7542" points="1637.5,-561.5 1728.5,-561.5 "/>
<text text-anchor="middle" x="1683" y="-550.3" font-family="Times,serif" font-size="14.00">X₁ = Ø</text>
<polyline fill="none" stroke="#7f7542" points="1637.5,-546.5 1728.5,-546.5 "/>
<text text-anchor="middle" x="1683" y="-535.3" font-family="Times,serif" font-size="14.00">X₂ ∈ X₁</text>
</a>
</g>
</g>
<!-- c_0_128&#45;&gt;c_0_135 -->
<g id="edge41" class="edge">
<title>c_0_128&#45;&gt;c_0_135</title>
<path fill="none" stroke="black" stroke-dasharray="5,2" d="M1683,-531.39C1683,-502.68 1683,-468 1683,-468 1683,-468 1120.6,-468 1120.6,-468 1120.6,-468 1120.6,-429.79 1120.6,-429.79"/>
<polygon fill="black" stroke="black" points="1124.1,-429.79 1120.6,-419.79 1117.1,-429.79 1124.1,-429.79"/>
</g>
<!-- c_0_122 -->
<g id="node24" class="node">
<title>c_0_122</title>
<g id="a_node24"><a xlink:href="c_0_122.html" xlink:title="{( \|....\| X₁)(X₂) = 0|complex&#45;valued(X₁)|function(X₁)|relation(X₁)|⇊|X₁(X₂) = 0}" target="_parent">
<polygon fill="#f8edd1" stroke="#7f7542" points="1171,-150.5 1171,-240.5 1307,-240.5 1307,-150.5 1171,-150.5"/>
<text text-anchor="middle" x="1239" y="-229.3" font-family="Times,serif" font-size="14.00">( |....| X₁)(X₂) = 0</text>
<polyline fill="none" stroke="#7f7542" points="1171,-225.5 1307,-225.5 "/>
<text text-anchor="middle" x="1239" y="-214.3" font-family="Times,serif" font-size="14.00">complex&#45;valued(X₁)</text>
<polyline fill="none" stroke="#7f7542" points="1171,-210.5 1307,-210.5 "/>
<text text-anchor="middle" x="1239" y="-199.3" font-family="Times,serif" font-size="14.00">function(X₁)</text>
<polyline fill="none" stroke="#7f7542" points="1171,-195.5 1307,-195.5 "/>
<text text-anchor="middle" x="1239" y="-184.3" font-family="Times,serif" font-size="14.00">relation(X₁)</text>
<polyline fill="none" stroke="#7f7542" points="1171,-180.5 1307,-180.5 "/>
<text text-anchor="middle" x="1239" y="-169.3" font-family="Times,serif" font-size="14.00">⇊</text>
<polyline fill="none" stroke="#7f7542" points="1171,-165.5 1307,-165.5 "/>
<text text-anchor="middle" x="1239" y="-154.3" font-family="Times,serif" font-size="14.00">X₁(X₂) = 0</text>
</a>
</g>
</g>
<!-- c_0_122&#45;&gt;c_0_136 -->
<g id="edge42" class="edge">
<title>c_0_122&#45;&gt;c_0_136</title>
<path fill="none" stroke="black" stroke-dasharray="5,2" d="M1170.67,-161C1041.09,-161 772.5,-161 772.5,-161 772.5,-161 772.5,-123.53 772.5,-123.53"/>
<polygon fill="black" stroke="black" points="776,-123.53 772.5,-113.53 769,-123.53 776,-123.53"/>
</g>
<!-- c_0_114 -->
<g id="node25" class="node">
<title>c_0_114</title>
<g id="a_node25"><a xlink:href="c_0_114.html" xlink:title="{0c = 0}" target="_parent">
<polygon fill="#f8edd1" stroke="#7f7542" points="1987.5,-718.5 1987.5,-733.5 2034.5,-733.5 2034.5,-718.5 1987.5,-718.5"/>
<text text-anchor="middle" x="2011" y="-722.3" font-family="Times,serif" font-size="14.00">0c = 0</text>
</a>
</g>
</g>
<!-- c_0_114&#45;&gt;c_0_125 -->
<g id="edge43" class="edge">
<title>c_0_114&#45;&gt;c_0_125</title>
<path fill="none" stroke="black" stroke-dasharray="5,2" d="M2011,-718.35C2011,-700.39 2011,-657 2011,-657 2011,-657 1137.25,-657 1137.25,-657 1137.25,-657 1137.25,-586.5 1137.25,-586.5"/>
<polygon fill="black" stroke="black" points="1140.75,-586.5 1137.25,-576.5 1133.75,-586.5 1140.75,-586.5"/>
</g>
<!-- c_0_115 -->
<g id="node26" class="node">
<title>c_0_115</title>
<g id="a_node26"><a xlink:href="c_0_115.html" xlink:title="{X₂ ∈ bool(X₁ × X₃)|X₄ ∈ X₁|function(X₂)|quasi_total(X₂,X₁,X₃)|⇊|X₁ . X₃ . X₂ . X₄ = X₂(X₄)|X₁ = Ø}" target="_parent">
<polygon fill="#f8edd1" stroke="#7f7542" points="1391.5,-516.5 1391.5,-621.5 1554.5,-621.5 1554.5,-516.5 1391.5,-516.5"/>
<text text-anchor="middle" x="1473" y="-610.3" font-family="Times,serif" font-size="14.00">X₂ ∈ bool(X₁ × X₃)</text>
<polyline fill="none" stroke="#7f7542" points="1391.5,-606.5 1554.5,-606.5 "/>
<text text-anchor="middle" x="1473" y="-595.3" font-family="Times,serif" font-size="14.00">X₄ ∈ X₁</text>
<polyline fill="none" stroke="#7f7542" points="1391.5,-591.5 1554.5,-591.5 "/>
<text text-anchor="middle" x="1473" y="-580.3" font-family="Times,serif" font-size="14.00">function(X₂)</text>
<polyline fill="none" stroke="#7f7542" points="1391.5,-576.5 1554.5,-576.5 "/>
<text text-anchor="middle" x="1473" y="-565.3" font-family="Times,serif" font-size="14.00">quasi_total(X₂,X₁,X₃)</text>
<polyline fill="none" stroke="#7f7542" points="1391.5,-561.5 1554.5,-561.5 "/>
<text text-anchor="middle" x="1473" y="-550.3" font-family="Times,serif" font-size="14.00">⇊</text>
<polyline fill="none" stroke="#7f7542" points="1391.5,-546.5 1554.5,-546.5 "/>
<text text-anchor="middle" x="1473" y="-535.3" font-family="Times,serif" font-size="14.00">X₁ . X₃ . X₂ . X₄ = X₂(X₄)</text>
<polyline fill="none" stroke="#7f7542" points="1391.5,-531.5 1554.5,-531.5 "/>
<text text-anchor="middle" x="1473" y="-520.3" font-family="Times,serif" font-size="14.00">X₁ = Ø</text>
</a>
</g>
</g>
<!-- c_0_115&#45;&gt;c_0_134 -->
<g id="edge44" class="edge">
<title>c_0_115&#45;&gt;c_0_134</title>
<path fill="none" stroke="black" stroke-dasharray="5,2" d="M1473,-516.28C1473,-495.73 1473,-477 1473,-477 1473,-477 970.5,-477 970.5,-477 970.5,-477 970.5,-452.22 970.5,-452.22"/>
<polygon fill="black" stroke="black" points="974,-452.22 970.5,-442.22 967,-452.22 974,-452.22"/>
</g>
<!-- c_0_68 -->
<g id="node27" class="node">
<title>c_0_68</title>
<g id="a_node27"><a xlink:href="c_0_68.html" xlink:title="{complex&#45;membered(COMPLEX)}" target="_parent">
<polygon fill="#f8edd1" stroke="#7f7542" points="1375,-718.5 1375,-733.5 1601,-733.5 1601,-718.5 1375,-718.5"/>
<text text-anchor="middle" x="1488" y="-722.3" font-family="Times,serif" font-size="14.00">complex&#45;membered(COMPLEX)</text>
</a>
</g>
</g>
<!-- c_0_68&#45;&gt;c_0_93 -->
<g id="edge45" class="edge">
<title>c_0_68&#45;&gt;c_0_93</title>
<path fill="none" stroke="black" stroke-dasharray="5,2" d="M1379.12,-718.34C1379.12,-705.73 1379.12,-682 1379.12,-682 1379.12,-682 431.6,-682 431.6,-682 431.6,-682 431.6,-586.77 431.6,-586.77"/>
<polygon fill="black" stroke="black" points="435.1,-586.77 431.6,-576.77 428.1,-586.77 435.1,-586.77"/>
</g>
<!-- c_0_68&#45;&gt;c_0_94 -->
<g id="edge46" class="edge">
<title>c_0_68&#45;&gt;c_0_94</title>
<path fill="none" stroke="black" stroke-dasharray="5,2" d="M1387.38,-718.29C1387.38,-702.29 1387.38,-667 1387.38,-667 1387.38,-667 739,-667 739,-667 739,-667 739,-586.69 739,-586.69"/>
<polygon fill="black" stroke="black" points="742.5,-586.69 739,-576.69 735.5,-586.69 742.5,-586.69"/>
</g>
<!-- c_0_68&#45;&gt;c_0_110 -->
<g id="edge47" class="edge">
<title>c_0_68&#45;&gt;c_0_110</title>
<path fill="none" stroke="black" stroke-dasharray="5,2" d="M1383.25,-718.34C1383.25,-704.56 1383.25,-677 1383.25,-677 1383.25,-677 638.5,-677 638.5,-677 638.5,-677 638.5,-586.77 638.5,-586.77"/>
<polygon fill="black" stroke="black" points="642,-586.77 638.5,-576.77 635,-586.77 642,-586.77"/>
</g>
<!-- c_0_127 -->
<g id="node28" class="node">
<title>c_0_127</title>
<g id="a_node28"><a xlink:href="c_0_127.html" xlink:title="{ℕ ≠ Ø}" target="_parent">
<polygon fill="#f8edd1" stroke="#7f7542" points="1573,-561.5 1573,-576.5 1619,-576.5 1619,-561.5 1573,-561.5"/>
<text text-anchor="middle" x="1596" y="-565.3" font-family="Times,serif" font-size="14.00">ℕ ≠ Ø</text>
</a>
</g>
</g>
<!-- c_0_127&#45;&gt;c_0_134 -->
<g id="edge49" class="edge">
<title>c_0_127&#45;&gt;c_0_134</title>
<path fill="none" stroke="black" stroke-dasharray="5,2" d="M1588.33,-561.43C1588.33,-534.94 1588.33,-448 1588.33,-448 1588.33,-448 979,-448 979,-448 979,-448 979,-447.41 979,-447.41"/>
<polygon fill="black" stroke="black" points="982.5,-452.06 979,-442.06 975.5,-452.06 982.5,-452.06"/>
</g>
<!-- c_0_127&#45;&gt;c_0_135 -->
<g id="edge48" class="edge">
<title>c_0_127&#45;&gt;c_0_135</title>
<path fill="none" stroke="black" stroke-dasharray="5,2" d="M1603.67,-561.24C1603.67,-534.1 1603.67,-445 1603.67,-445 1603.67,-445 1142.2,-445 1142.2,-445 1142.2,-445 1142.2,-429.65 1142.2,-429.65"/>
<polygon fill="black" stroke="black" points="1145.7,-429.65 1142.2,-419.65 1138.7,-429.65 1145.7,-429.65"/>
</g>
<!-- c_0_99 -->
<g id="node29" class="node">
<title>c_0_99</title>
<g id="a_node29"><a xlink:href="c_0_99.html" xlink:title="{ℝ ⊆ ℝ}" target="_parent">
<polygon fill="#f8edd1" stroke="#7f7542" points="1317,-404.5 1317,-419.5 1363,-419.5 1363,-404.5 1317,-404.5"/>
<text text-anchor="middle" x="1340" y="-408.3" font-family="Times,serif" font-size="14.00">ℝ ⊆ ℝ</text>
</a>
</g>
</g>
<!-- c_0_99&#45;&gt;c_0_124 -->
<g id="edge50" class="edge">
<title>c_0_99&#45;&gt;c_0_124</title>
<path fill="none" stroke="black" stroke-dasharray="5,2" d="M1340,-404.37C1340,-393.8 1340,-376 1340,-376 1340,-376 1135,-376 1135,-376 1135,-376 1135,-325.09 1135,-325.09"/>
<polygon fill="black" stroke="black" points="1138.5,-325.09 1135,-315.09 1131.5,-325.09 1138.5,-325.09"/>
</g>
<!-- c_0_97 -->
<g id="node30" class="node">
<title>c_0_97</title>
<g id="a_node30"><a xlink:href="c_0_97.html" xlink:title="{X₃ ∈ bool(X₁ × X₂)|complex&#45;membered(X₂)|function(X₃)|⇊| \|....\| X₃ ∈ bool(X₁ × ℝ)}" target="_parent">
<polygon fill="#f8edd1" stroke="#7f7542" points="1619,-688.5 1619,-763.5 1785,-763.5 1785,-688.5 1619,-688.5"/>
<text text-anchor="middle" x="1702" y="-752.3" font-family="Times,serif" font-size="14.00">X₃ ∈ bool(X₁ × X₂)</text>
<polyline fill="none" stroke="#7f7542" points="1619,-748.5 1785,-748.5 "/>
<text text-anchor="middle" x="1702" y="-737.3" font-family="Times,serif" font-size="14.00">complex&#45;membered(X₂)</text>
<polyline fill="none" stroke="#7f7542" points="1619,-733.5 1785,-733.5 "/>
<text text-anchor="middle" x="1702" y="-722.3" font-family="Times,serif" font-size="14.00">function(X₃)</text>
<polyline fill="none" stroke="#7f7542" points="1619,-718.5 1785,-718.5 "/>
<text text-anchor="middle" x="1702" y="-707.3" font-family="Times,serif" font-size="14.00">⇊</text>
<polyline fill="none" stroke="#7f7542" points="1619,-703.5 1785,-703.5 "/>
<text text-anchor="middle" x="1702" y="-692.3" font-family="Times,serif" font-size="14.00">|....| X₃ ∈ bool(X₁ × ℝ)</text>
</a>
</g>
</g>
<!-- c_0_97&#45;&gt;c_0_110 -->
<g id="edge51" class="edge">
<title>c_0_97&#45;&gt;c_0_110</title>
<path fill="none" stroke="black" stroke-dasharray="5,2" d="M1628.25,-688.5C1628.25,-679.28 1628.25,-672 1628.25,-672 1628.25,-672 644,-672 644,-672 644,-672 644,-586.74 644,-586.74"/>
<polygon fill="black" stroke="black" points="647.5,-586.74 644,-576.74 640.5,-586.74 647.5,-586.74"/>
</g>
<!-- c_0_121 -->
<g id="node31" class="node">
<title>c_0_121</title>
<g id="a_node31"><a xlink:href="c_0_121.html" xlink:title="{ℕ ∈ bool(ℝ)}" target="_parent">
<polygon fill="#f8edd1" stroke="#7f7542" points="1746.5,-561.5 1746.5,-576.5 1831.5,-576.5 1831.5,-561.5 1746.5,-561.5"/>
<text text-anchor="middle" x="1789" y="-565.3" font-family="Times,serif" font-size="14.00">ℕ ∈ bool(ℝ)</text>
</a>
</g>
</g>
<!-- c_0_121&#45;&gt;c_0_135 -->
<g id="edge52" class="edge">
<title>c_0_121&#45;&gt;c_0_135</title>
<path fill="none" stroke="black" stroke-dasharray="5,2" d="M1789,-561.44C1789,-536.59 1789,-459 1789,-459 1789,-459 1131.4,-459 1131.4,-459 1131.4,-459 1131.4,-429.76 1131.4,-429.76"/>
<polygon fill="black" stroke="black" points="1134.9,-429.76 1131.4,-419.76 1127.9,-429.76 1134.9,-429.76"/>
</g>
<!-- c_0_67 -->
<g id="node32" class="node">
<title>c_0_67</title>
<g id="a_node32"><a xlink:href="c_0_67.html" xlink:title="{X₂ ∈ bool(X₃ × X₁)|complex&#45;membered(X₁)|function(X₂)|⇊|X₃ \|....\| X₁ \|....\| X₂ = &#160;\|....\| X₂}" target="_parent">
<polygon fill="#f8edd1" stroke="#7f7542" points="1171.5,-688.5 1171.5,-763.5 1356.5,-763.5 1356.5,-688.5 1171.5,-688.5"/>
<text text-anchor="middle" x="1264" y="-752.3" font-family="Times,serif" font-size="14.00">X₂ ∈ bool(X₃ × X₁)</text>
<polyline fill="none" stroke="#7f7542" points="1171.5,-748.5 1356.5,-748.5 "/>
<text text-anchor="middle" x="1264" y="-737.3" font-family="Times,serif" font-size="14.00">complex&#45;membered(X₁)</text>
<polyline fill="none" stroke="#7f7542" points="1171.5,-733.5 1356.5,-733.5 "/>
<text text-anchor="middle" x="1264" y="-722.3" font-family="Times,serif" font-size="14.00">function(X₂)</text>
<polyline fill="none" stroke="#7f7542" points="1171.5,-718.5 1356.5,-718.5 "/>
<text text-anchor="middle" x="1264" y="-707.3" font-family="Times,serif" font-size="14.00">⇊</text>
<polyline fill="none" stroke="#7f7542" points="1171.5,-703.5 1356.5,-703.5 "/>
<text text-anchor="middle" x="1264" y="-692.3" font-family="Times,serif" font-size="14.00">X₃ |....| X₁ |....| X₂ = |....| X₂</text>
</a>
</g>
</g>
<!-- c_0_67&#45;&gt;c_0_93 -->
<g id="edge53" class="edge">
<title>c_0_67&#45;&gt;c_0_93</title>
<path fill="none" stroke="black" stroke-dasharray="5,2" d="M1171.11,-698C950.08,-698 411.2,-698 411.2,-698 411.2,-698 411.2,-586.68 411.2,-586.68"/>
<polygon fill="black" stroke="black" points="414.7,-586.68 411.2,-576.68 407.7,-586.68 414.7,-586.68"/>
</g>
<!-- c_0_36 -->
<g id="node33" class="node">
<title>c_0_36</title>
<g id="a_node33"><a xlink:href="c_0_36.html" xlink:title="{X₁ ∈ bool(X₂ × X₃)|⇊|relation(X₁)}" target="_parent">
<polygon fill="#f8edd1" stroke="#7f7542" points="1172.5,-285 1172.5,-330 1299.5,-330 1299.5,-285 1172.5,-285"/>
<text text-anchor="middle" x="1236" y="-318.8" font-family="Times,serif" font-size="14.00">X₁ ∈ bool(X₂ × X₃)</text>
<polyline fill="none" stroke="#7f7542" points="1172.5,-315 1299.5,-315 "/>
<text text-anchor="middle" x="1236" y="-303.8" font-family="Times,serif" font-size="14.00">⇊</text>
<polyline fill="none" stroke="#7f7542" points="1172.5,-300 1299.5,-300 "/>
<text text-anchor="middle" x="1236" y="-288.8" font-family="Times,serif" font-size="14.00">relation(X₁)</text>
</a>
</g>
</g>
<!-- c_0_36&#45;&gt;c_0_133 -->
<g id="edge54" class="edge">
<title>c_0_36&#45;&gt;c_0_133</title>
<path fill="none" stroke="black" stroke-dasharray="5,2" d="M1172.35,-292C1078.95,-292 915.75,-292 915.75,-292 915.75,-292 915.75,-213.07 915.75,-213.07"/>
<polygon fill="black" stroke="black" points="919.25,-213.07 915.75,-203.07 912.25,-213.07 919.25,-213.07"/>
</g>
<!-- c_0_71 -->
<g id="node34" class="node">
<title>c_0_71</title>
<g id="a_node34"><a xlink:href="c_0_71.html" xlink:title="{X₂ ∈ bool(X₃ × X₁)|complex&#45;membered(X₁)|⇊|complex&#45;valued(X₂)}" target="_parent">
<polygon fill="#f8edd1" stroke="#7f7542" points="1803,-696 1803,-756 1969,-756 1969,-696 1803,-696"/>
<text text-anchor="middle" x="1886" y="-744.8" font-family="Times,serif" font-size="14.00">X₂ ∈ bool(X₃ × X₁)</text>
<polyline fill="none" stroke="#7f7542" points="1803,-741 1969,-741 "/>
<text text-anchor="middle" x="1886" y="-729.8" font-family="Times,serif" font-size="14.00">complex&#45;membered(X₁)</text>
<polyline fill="none" stroke="#7f7542" points="1803,-726 1969,-726 "/>
<text text-anchor="middle" x="1886" y="-714.8" font-family="Times,serif" font-size="14.00">⇊</text>
<polyline fill="none" stroke="#7f7542" points="1803,-711 1969,-711 "/>
<text text-anchor="middle" x="1886" y="-699.8" font-family="Times,serif" font-size="14.00">complex&#45;valued(X₂)</text>
</a>
</g>
</g>
<!-- c_0_71&#45;&gt;c_0_94 -->
<g id="edge55" class="edge">
<title>c_0_71&#45;&gt;c_0_94</title>
<path fill="none" stroke="black" stroke-dasharray="5,2" d="M1817.25,-695.87C1817.25,-679.27 1817.25,-662 1817.25,-662 1817.25,-662 774.5,-662 774.5,-662 774.5,-662 774.5,-586.61 774.5,-586.61"/>
<polygon fill="black" stroke="black" points="778,-586.61 774.5,-576.61 771,-586.61 778,-586.61"/>
</g>
<!-- c_0_98 -->
<g id="node35" class="node">
<title>c_0_98</title>
<g id="a_node35"><a xlink:href="c_0_98.html" xlink:title="{X₁ ⊆ ℝ|X₂ ∈ bool(X₃ × X₁)|⇊|real&#45;valued(X₂)}" target="_parent">
<polygon fill="#f8edd1" stroke="#7f7542" points="1171.5,-382 1171.5,-442 1298.5,-442 1298.5,-382 1171.5,-382"/>
<text text-anchor="middle" x="1235" y="-430.8" font-family="Times,serif" font-size="14.00">X₁ ⊆ ℝ</text>
<polyline fill="none" stroke="#7f7542" points="1171.5,-427 1298.5,-427 "/>
<text text-anchor="middle" x="1235" y="-415.8" font-family="Times,serif" font-size="14.00">X₂ ∈ bool(X₃ × X₁)</text>
<polyline fill="none" stroke="#7f7542" points="1171.5,-412 1298.5,-412 "/>
<text text-anchor="middle" x="1235" y="-400.8" font-family="Times,serif" font-size="14.00">⇊</text>
<polyline fill="none" stroke="#7f7542" points="1171.5,-397 1298.5,-397 "/>
<text text-anchor="middle" x="1235" y="-385.8" font-family="Times,serif" font-size="14.00">real&#45;valued(X₂)</text>
</a>
</g>
</g>
<!-- c_0_98&#45;&gt;c_0_124 -->
<g id="edge56" class="edge">
<title>c_0_98&#45;&gt;c_0_124</title>
<path fill="none" stroke="black" stroke-dasharray="5,2" d="M1171.16,-392C1143.36,-392 1117,-392 1117,-392 1117,-392 1117,-325.3 1117,-325.3"/>
<polygon fill="black" stroke="black" points="1120.5,-325.3 1117,-315.3 1113.5,-325.3 1120.5,-325.3"/>
</g>
<!-- c_0_92 -->
<g id="node36" class="node">
<title>c_0_92</title>
<g id="a_node36"><a xlink:href="c_0_92.html" xlink:title="{ \|....\| X₁ ∈ bool(ℕ × ℝ)|Sum( \|....\| X₁) = 0|X₁ ∈ bool(ℕ × COMPLEX)|X₂ ∈ ℕ ⊆ ℝ|absolutely_summable(X₁)|complex&#45;valued(X₁)|function(X₁)|quasi_total(X₁,ℕ,COMPLEX)|real&#45;valued( \|....\| X₁)|⇊|( \|....\| X₁)(X₂) = 0}" target="_parent">
<polygon fill="#f8edd1" stroke="#7f7542" points="1172.5,-486.5 1172.5,-651.5 1373.5,-651.5 1373.5,-486.5 1172.5,-486.5"/>
<text text-anchor="middle" x="1273" y="-640.3" font-family="Times,serif" font-size="14.00">|....| X₁ ∈ bool(ℕ × ℝ)</text>
<polyline fill="none" stroke="#7f7542" points="1172.5,-636.5 1373.5,-636.5 "/>
<text text-anchor="middle" x="1273" y="-625.3" font-family="Times,serif" font-size="14.00">Sum( |....| X₁) = 0</text>
<polyline fill="none" stroke="#7f7542" points="1172.5,-621.5 1373.5,-621.5 "/>
<text text-anchor="middle" x="1273" y="-610.3" font-family="Times,serif" font-size="14.00">X₁ ∈ bool(ℕ × COMPLEX)</text>
<polyline fill="none" stroke="#7f7542" points="1172.5,-606.5 1373.5,-606.5 "/>
<text text-anchor="middle" x="1273" y="-595.3" font-family="Times,serif" font-size="14.00">X₂ ∈ ℕ ⊆ ℝ</text>
<polyline fill="none" stroke="#7f7542" points="1172.5,-591.5 1373.5,-591.5 "/>
<text text-anchor="middle" x="1273" y="-580.3" font-family="Times,serif" font-size="14.00">absolutely_summable(X₁)</text>
<polyline fill="none" stroke="#7f7542" points="1172.5,-576.5 1373.5,-576.5 "/>
<text text-anchor="middle" x="1273" y="-565.3" font-family="Times,serif" font-size="14.00">complex&#45;valued(X₁)</text>
<polyline fill="none" stroke="#7f7542" points="1172.5,-561.5 1373.5,-561.5 "/>
<text text-anchor="middle" x="1273" y="-550.3" font-family="Times,serif" font-size="14.00">function(X₁)</text>
<polyline fill="none" stroke="#7f7542" points="1172.5,-546.5 1373.5,-546.5 "/>
<text text-anchor="middle" x="1273" y="-535.3" font-family="Times,serif" font-size="14.00">quasi_total(X₁,ℕ,COMPLEX)</text>
<polyline fill="none" stroke="#7f7542" points="1172.5,-531.5 1373.5,-531.5 "/>
<text text-anchor="middle" x="1273" y="-520.3" font-family="Times,serif" font-size="14.00">real&#45;valued( |....| X₁)</text>
<polyline fill="none" stroke="#7f7542" points="1172.5,-516.5 1373.5,-516.5 "/>
<text text-anchor="middle" x="1273" y="-505.3" font-family="Times,serif" font-size="14.00">⇊</text>
<polyline fill="none" stroke="#7f7542" points="1172.5,-501.5 1373.5,-501.5 "/>
<text text-anchor="middle" x="1273" y="-490.3" font-family="Times,serif" font-size="14.00">( |....| X₁)(X₂) = 0</text>
</a>
</g>
</g>
<!-- c_0_92&#45;&gt;c_0_109 -->
<g id="edge57" class="edge">
<title>c_0_92&#45;&gt;c_0_109</title>
<path fill="none" stroke="black" stroke-dasharray="5,2" d="M1172.36,-546C932.88,-546 349,-546 349,-546 349,-546 349,-459.68 349,-459.68"/>
<polygon fill="black" stroke="black" points="352.5,-459.68 349,-449.68 345.5,-459.68 352.5,-459.68"/>
</g>
</g>
</svg>
