<?xml version="1.0" encoding="UTF-8" standalone="no"?>
<!DOCTYPE svg PUBLIC "-//W3C//DTD SVG 1.1//EN"
 "http://www.w3.org/Graphics/SVG/1.1/DTD/svg11.dtd">
<!-- Generated by graphviz version 5.0.0 (0)
 -->
<!-- Title: proof Pages: 1 -->
<svg width="1373pt" height="108pt"
 viewBox="0.00 0.00 1373.00 108.00" xmlns="http://www.w3.org/2000/svg" xmlns:xlink="http://www.w3.org/1999/xlink">
<g id="graph0" class="graph" transform="scale(1 1) rotate(0) translate(4 104)">
<title>proof</title>
<g id="clust1" class="cluster">
<title>cluster_1</title>
<polygon fill="transparent" stroke="black" stroke-width="2" points="631,-60 631,-92 743,-92 743,-60 631,-60"/>
</g>
<g id="clust2" class="cluster">
<title>cluster_2</title>
<polygon fill="transparent" stroke="black" stroke-dasharray="1,5" points="8,-8 8,-40 1357,-40 1357,-8 8,-8"/>
</g>
<!-- t13_csspace2 -->
<g id="node1" class="node">
<title>t13_csspace2</title>
<g id="a_node1"><a xlink:href="t13_csspace2.html" xlink:title="t13_csspace2" target="_parent">
<polygon fill="#fa6900" stroke="#7f7542" points="639,-68.5 639,-83.5 735,-83.5 735,-68.5 639,-68.5"/>
<text text-anchor="middle" x="687" y="-72.3" font-family="Times,serif" font-size="14.00">t13_csspace2</text>
</a>
</g>
</g>
<!-- c_0_83 -->
<g id="node2" class="node">
<title>c_0_83</title>
<g id="a_node2"><a xlink:href="c_0_83.html" xlink:title="{quasi_total(sk₁,ℕ,COMPLEX)}" target="_parent">
<polygon fill="#fa6900" stroke="#7f7542" points="1141.5,-16.5 1141.5,-31.5 1348.5,-31.5 1348.5,-16.5 1141.5,-16.5"/>
<text text-anchor="middle" x="1245" y="-20.3" font-family="Times,serif" font-size="14.00">quasi_total(sk₁,ℕ,COMPLEX)</text>
</a>
</g>
</g>
<!-- t13_csspace2&#45;&gt;c_0_83 -->
<g id="edge1" class="edge">
<title>t13_csspace2&#45;&gt;c_0_83</title>
<path fill="none" stroke="black" stroke-dasharray="5,2" d="M735.06,-80C870.41,-80 1245,-80 1245,-80 1245,-80 1245,-41.79 1245,-41.79"/>
<polygon fill="black" stroke="black" points="1248.5,-41.79 1245,-31.79 1241.5,-41.79 1248.5,-41.79"/>
</g>
<!-- c_0_120 -->
<g id="node3" class="node">
<title>c_0_120</title>
<g id="a_node3"><a xlink:href="c_0_120.html" xlink:title="{sk₂ ∈ ℕ ⊆ ℝ}" target="_parent">
<polygon fill="#fa6900" stroke="#7f7542" points="1036.5,-16.5 1036.5,-31.5 1123.5,-31.5 1123.5,-16.5 1036.5,-16.5"/>
<text text-anchor="middle" x="1080" y="-20.3" font-family="Times,serif" font-size="14.00">sk₂ ∈ ℕ ⊆ ℝ</text>
</a>
</g>
</g>
<!-- t13_csspace2&#45;&gt;c_0_120 -->
<g id="edge2" class="edge">
<title>t13_csspace2&#45;&gt;c_0_120</title>
<path fill="none" stroke="black" stroke-dasharray="5,2" d="M735.19,-76C840.13,-76 1080,-76 1080,-76 1080,-76 1080,-41.67 1080,-41.67"/>
<polygon fill="black" stroke="black" points="1083.5,-41.67 1080,-31.67 1076.5,-41.67 1083.5,-41.67"/>
</g>
<!-- c_0_82 -->
<g id="node4" class="node">
<title>c_0_82</title>
<g id="a_node4"><a xlink:href="c_0_82.html" xlink:title="{absolutely_summable(sk₁)}" target="_parent">
<polygon fill="#fa6900" stroke="#7f7542" points="832,-16.5 832,-31.5 1018,-31.5 1018,-16.5 832,-16.5"/>
<text text-anchor="middle" x="925" y="-20.3" font-family="Times,serif" font-size="14.00">absolutely_summable(sk₁)</text>
</a>
</g>
</g>
<!-- t13_csspace2&#45;&gt;c_0_82 -->
<g id="edge3" class="edge">
<title>t13_csspace2&#45;&gt;c_0_82</title>
<path fill="none" stroke="black" stroke-dasharray="5,2" d="M735.16,-72C804.71,-72 925,-72 925,-72 925,-72 925,-41.93 925,-41.93"/>
<polygon fill="black" stroke="black" points="928.5,-41.93 925,-31.93 921.5,-41.93 928.5,-41.93"/>
</g>
<!-- c_0_66 -->
<g id="node5" class="node">
<title>c_0_66</title>
<g id="a_node5"><a xlink:href="c_0_66.html" xlink:title="{Sum(ℕ \|....\| COMPLEX \|....\| sk₁) = 0}" target="_parent">
<polygon fill="#fa6900" stroke="#7f7542" points="560,-16.5 560,-31.5 814,-31.5 814,-16.5 560,-16.5"/>
<text text-anchor="middle" x="687" y="-20.3" font-family="Times,serif" font-size="14.00">Sum(ℕ |....| COMPLEX |....| sk₁) = 0</text>
</a>
</g>
</g>
<!-- t13_csspace2&#45;&gt;c_0_66 -->
<g id="edge4" class="edge">
<title>t13_csspace2&#45;&gt;c_0_66</title>
<path fill="none" stroke="black" stroke-dasharray="5,2" d="M687,-68.33C687,-68.33 687,-41.7 687,-41.7"/>
<polygon fill="black" stroke="black" points="690.5,-41.7 687,-31.7 683.5,-41.7 690.5,-41.7"/>
</g>
<!-- c_0_100 -->
<g id="node6" class="node">
<title>c_0_100</title>
<g id="a_node6"><a xlink:href="c_0_100.html" xlink:title="{ℕ . COMPLEX . sk₁ . sk₂ ≠ 0c}" target="_parent">
<polygon fill="#fa6900" stroke="#7f7542" points="334,-16.5 334,-31.5 542,-31.5 542,-16.5 334,-16.5"/>
<text text-anchor="middle" x="438" y="-20.3" font-family="Times,serif" font-size="14.00">ℕ . COMPLEX . sk₁ . sk₂ ≠ 0c</text>
</a>
</g>
</g>
<!-- t13_csspace2&#45;&gt;c_0_100 -->
<g id="edge5" class="edge">
<title>t13_csspace2&#45;&gt;c_0_100</title>
<path fill="none" stroke="black" stroke-dasharray="5,2" d="M638.99,-72C566.63,-72 438,-72 438,-72 438,-72 438,-41.93 438,-41.93"/>
<polygon fill="black" stroke="black" points="441.5,-41.93 438,-31.93 434.5,-41.93 441.5,-41.93"/>
</g>
<!-- c_0_69 -->
<g id="node7" class="node">
<title>c_0_69</title>
<g id="a_node7"><a xlink:href="c_0_69.html" xlink:title="{sk₁ ∈ bool(ℕ × COMPLEX)}" target="_parent">
<polygon fill="#fa6900" stroke="#7f7542" points="126,-16.5 126,-31.5 316,-31.5 316,-16.5 126,-16.5"/>
<text text-anchor="middle" x="221" y="-20.3" font-family="Times,serif" font-size="14.00">sk₁ ∈ bool(ℕ × COMPLEX)</text>
</a>
</g>
</g>
<!-- t13_csspace2&#45;&gt;c_0_69 -->
<g id="edge6" class="edge">
<title>t13_csspace2&#45;&gt;c_0_69</title>
<path fill="none" stroke="black" stroke-dasharray="5,2" d="M638.88,-76C519.82,-76 221,-76 221,-76 221,-76 221,-41.67 221,-41.67"/>
<polygon fill="black" stroke="black" points="224.5,-41.67 221,-31.67 217.5,-41.67 224.5,-41.67"/>
</g>
<!-- c_0_70 -->
<g id="node8" class="node">
<title>c_0_70</title>
<g id="a_node8"><a xlink:href="c_0_70.html" xlink:title="{function(sk₁)}" target="_parent">
<polygon fill="#fa6900" stroke="#7f7542" points="16.5,-16.5 16.5,-31.5 107.5,-31.5 107.5,-16.5 16.5,-16.5"/>
<text text-anchor="middle" x="62" y="-20.3" font-family="Times,serif" font-size="14.00">function(sk₁)</text>
</a>
</g>
</g>
<!-- t13_csspace2&#45;&gt;c_0_70 -->
<g id="edge7" class="edge">
<title>t13_csspace2&#45;&gt;c_0_70</title>
<path fill="none" stroke="black" stroke-dasharray="5,2" d="M639,-80C492.64,-80 62,-80 62,-80 62,-80 62,-41.79 62,-41.79"/>
<polygon fill="black" stroke="black" points="65.5,-41.79 62,-31.79 58.5,-41.79 65.5,-41.79"/>
</g>
</g>
</svg>
