<?xml version="1.0" encoding="UTF-8" standalone="no"?>
<!DOCTYPE svg PUBLIC "-//W3C//DTD SVG 1.1//EN"
 "http://www.w3.org/Graphics/SVG/1.1/DTD/svg11.dtd">
<!-- Generated by graphviz version 5.0.0 (0)
 -->
<!-- Title: proof Pages: 1 -->
<svg width="784pt" height="190pt"
 viewBox="0.00 0.00 784.00 190.00" xmlns="http://www.w3.org/2000/svg" xmlns:xlink="http://www.w3.org/1999/xlink">
<g id="graph0" class="graph" transform="scale(1 1) rotate(0) translate(4 186)">
<title>proof</title>
<g id="clust1" class="cluster">
<title>cluster_0</title>
<polygon fill="transparent" stroke="black" stroke-dasharray="1,5" points="421,-142 421,-174 507,-174 507,-142 421,-142"/>
</g>
<g id="clust2" class="cluster">
<title>cluster_1</title>
<polygon fill="transparent" stroke="black" stroke-width="2" points="429,-90 429,-122 499,-122 499,-90 429,-90"/>
</g>
<g id="clust3" class="cluster">
<title>cluster_2</title>
<polygon fill="transparent" stroke="black" stroke-dasharray="1,5" points="8,-8 8,-70 768,-70 768,-8 8,-8"/>
</g>
<!-- t27_nat_2 -->
<g id="node1" class="node">
<title>t27_nat_2</title>
<g id="a_node1"><a xlink:href="t27_nat_2.html" xlink:title="t27_nat_2" target="_parent">
<polygon fill="#fa6900" stroke="#7f7542" points="429,-150.5 429,-165.5 499,-165.5 499,-150.5 429,-150.5"/>
<text text-anchor="middle" x="464" y="-154.3" font-family="Times,serif" font-size="14.00">t27_nat_2</text>
</a>
</g>
</g>
<!-- c_0_44 -->
<g id="node2" class="node">
<title>c_0_44</title>
<g id="a_node2"><a xlink:href="c_0_44.html" xlink:title="{sk₃ ∈ ℕ}" target="_parent">
<polygon fill="#fa6900" stroke="#7f7542" points="437,-98.5 437,-113.5 491,-113.5 491,-98.5 437,-98.5"/>
<text text-anchor="middle" x="464" y="-102.3" font-family="Times,serif" font-size="14.00">sk₃ ∈ ℕ</text>
</a>
</g>
</g>
<!-- t27_nat_2&#45;&gt;c_0_44 -->
<g id="edge1" class="edge">
<title>t27_nat_2&#45;&gt;c_0_44</title>
<path fill="none" stroke="black" d="M464,-150.33C464,-150.33 464,-123.7 464,-123.7"/>
<polygon fill="black" stroke="black" points="467.5,-123.7 464,-113.7 460.5,-123.7 467.5,-123.7"/>
</g>
<!-- c_0_135 -->
<g id="node3" class="node">
<title>c_0_135</title>
<g id="a_node3"><a xlink:href="c_0_135.html" xlink:title="{sk₃ ≤ Ø|⇊|sk₃ = Ø}" target="_parent">
<polygon fill="#fa6900" stroke="#7f7542" points="706,-16.5 706,-61.5 760,-61.5 760,-16.5 706,-16.5"/>
<text text-anchor="middle" x="733" y="-50.3" font-family="Times,serif" font-size="14.00">sk₃ ≤ Ø</text>
<polyline fill="none" stroke="#7f7542" points="706,-46.5 760,-46.5 "/>
<text text-anchor="middle" x="733" y="-35.3" font-family="Times,serif" font-size="14.00">⇊</text>
<polyline fill="none" stroke="#7f7542" points="706,-31.5 760,-31.5 "/>
<text text-anchor="middle" x="733" y="-20.3" font-family="Times,serif" font-size="14.00">sk₃ = Ø</text>
</a>
</g>
</g>
<!-- c_0_44&#45;&gt;c_0_135 -->
<g id="edge2" class="edge">
<title>c_0_44&#45;&gt;c_0_135</title>
<path fill="none" stroke="black" stroke-dasharray="5,2" d="M477.5,-98.07C477.5,-84.44 477.5,-58 477.5,-58 477.5,-58 695.66,-58 695.66,-58"/>
<polygon fill="black" stroke="black" points="695.66,-61.5 705.66,-58 695.66,-54.5 695.66,-61.5"/>
</g>
<!-- c_0_118 -->
<g id="node4" class="node">
<title>c_0_118</title>
<g id="a_node4"><a xlink:href="c_0_118.html" xlink:title="{C₁ + sk₃ ∈ ℕ}" target="_parent">
<polygon fill="#fa6900" stroke="#7f7542" points="596.5,-31.5 596.5,-46.5 687.5,-46.5 687.5,-31.5 596.5,-31.5"/>
<text text-anchor="middle" x="642" y="-35.3" font-family="Times,serif" font-size="14.00">C₁ + sk₃ ∈ ℕ</text>
</a>
</g>
</g>
<!-- c_0_44&#45;&gt;c_0_118 -->
<g id="edge3" class="edge">
<title>c_0_44&#45;&gt;c_0_118</title>
<path fill="none" stroke="black" stroke-dasharray="5,2" d="M491.03,-106C540.83,-106 642,-106 642,-106 642,-106 642,-56.69 642,-56.69"/>
<polygon fill="black" stroke="black" points="645.5,-56.69 642,-46.69 638.5,-56.69 645.5,-56.69"/>
</g>
<!-- c_0_120 -->
<g id="node5" class="node">
<title>c_0_120</title>
<g id="a_node5"><a xlink:href="c_0_120.html" xlink:title="{1 ≤ sk₃|sk₃ = Ø}" target="_parent">
<polygon fill="#fa6900" stroke="#7f7542" points="524,-24 524,-54 578,-54 578,-24 524,-24"/>
<text text-anchor="middle" x="551" y="-42.8" font-family="Times,serif" font-size="14.00">1 ≤ sk₃</text>
<polyline fill="none" stroke="#7f7542" points="524,-39 578,-39 "/>
<text text-anchor="middle" x="551" y="-27.8" font-family="Times,serif" font-size="14.00">sk₃ = Ø</text>
</a>
</g>
</g>
<!-- c_0_44&#45;&gt;c_0_120 -->
<g id="edge4" class="edge">
<title>c_0_44&#45;&gt;c_0_120</title>
<path fill="none" stroke="black" stroke-dasharray="5,2" d="M464,-98.21C464,-82.83 464,-50 464,-50 464,-50 513.95,-50 513.95,-50"/>
<polygon fill="black" stroke="black" points="513.95,-53.5 523.95,-50 513.95,-46.5 513.95,-53.5"/>
</g>
<!-- c_0_89 -->
<g id="node6" class="node">
<title>c_0_89</title>
<g id="a_node6"><a xlink:href="c_0_89.html" xlink:title="{integer(sk₃)}" target="_parent">
<polygon fill="#fa6900" stroke="#7f7542" points="422,-31.5 422,-46.5 506,-46.5 506,-31.5 422,-31.5"/>
<text text-anchor="middle" x="464" y="-35.3" font-family="Times,serif" font-size="14.00">integer(sk₃)</text>
</a>
</g>
</g>
<!-- c_0_44&#45;&gt;c_0_89 -->
<g id="edge5" class="edge">
<title>c_0_44&#45;&gt;c_0_89</title>
<path fill="none" stroke="black" stroke-dasharray="5,2" d="M450.5,-98.31C450.5,-98.31 450.5,-56.6 450.5,-56.6"/>
<polygon fill="black" stroke="black" points="454,-56.6 450.5,-46.6 447,-56.6 454,-56.6"/>
</g>
<!-- c_0_79 -->
<g id="node7" class="node">
<title>c_0_79</title>
<g id="a_node7"><a xlink:href="c_0_79.html" xlink:title="{C₁ * sk₃ ∈ ℕ}" target="_parent">
<polygon fill="#fa6900" stroke="#7f7542" points="318.5,-31.5 318.5,-46.5 403.5,-46.5 403.5,-31.5 318.5,-31.5"/>
<text text-anchor="middle" x="361" y="-35.3" font-family="Times,serif" font-size="14.00">C₁ * sk₃ ∈ ℕ</text>
</a>
</g>
</g>
<!-- c_0_44&#45;&gt;c_0_79 -->
<g id="edge6" class="edge">
<title>c_0_44&#45;&gt;c_0_79</title>
<path fill="none" stroke="black" stroke-dasharray="5,2" d="M436.94,-102C406.42,-102 361,-102 361,-102 361,-102 361,-56.73 361,-56.73"/>
<polygon fill="black" stroke="black" points="364.5,-56.73 361,-46.73 357.5,-56.73 364.5,-56.73"/>
</g>
<!-- c_0_134 -->
<g id="node8" class="node">
<title>c_0_134</title>
<g id="a_node8"><a xlink:href="c_0_134.html" xlink:title="{sk₃ + sk₃ ∈ ℕ}" target="_parent">
<polygon fill="#fa6900" stroke="#7f7542" points="204,-31.5 204,-46.5 300,-46.5 300,-31.5 204,-31.5"/>
<text text-anchor="middle" x="252" y="-35.3" font-family="Times,serif" font-size="14.00">sk₃ + sk₃ ∈ ℕ</text>
</a>
</g>
</g>
<!-- c_0_44&#45;&gt;c_0_134 -->
<g id="edge7" class="edge">
<title>c_0_44&#45;&gt;c_0_134</title>
<path fill="none" stroke="black" stroke-dasharray="5,2" d="M436.72,-106C379.46,-106 252,-106 252,-106 252,-106 252,-56.69 252,-56.69"/>
<polygon fill="black" stroke="black" points="255.5,-56.69 252,-46.69 248.5,-56.69 255.5,-56.69"/>
</g>
<!-- c_0_106 -->
<g id="node9" class="node">
<title>c_0_106</title>
<g id="a_node9"><a xlink:href="c_0_106.html" xlink:title="{div(C₁,sk₃) = div(C₁,sk₃)}" target="_parent">
<polygon fill="#fa6900" stroke="#7f7542" points="16.5,-31.5 16.5,-46.5 185.5,-46.5 185.5,-31.5 16.5,-31.5"/>
<text text-anchor="middle" x="101" y="-35.3" font-family="Times,serif" font-size="14.00">div(C₁,sk₃) = div(C₁,sk₃)</text>
</a>
</g>
</g>
<!-- c_0_44&#45;&gt;c_0_106 -->
<g id="edge8" class="edge">
<title>c_0_44&#45;&gt;c_0_106</title>
<path fill="none" stroke="black" stroke-dasharray="5,2" d="M436.72,-110C352.3,-110 101,-110 101,-110 101,-110 101,-56.6 101,-56.6"/>
<polygon fill="black" stroke="black" points="104.5,-56.6 101,-46.6 97.5,-56.6 104.5,-56.6"/>
</g>
</g>
</svg>
