<?xml version="1.0" encoding="UTF-8" standalone="no"?>
<!DOCTYPE svg PUBLIC "-//W3C//DTD SVG 1.1//EN"
 "http://www.w3.org/Graphics/SVG/1.1/DTD/svg11.dtd">
<!-- Generated by graphviz version 5.0.0 (0)
 -->
<!-- Title: proof Pages: 1 -->
<svg width="258pt" height="205pt"
 viewBox="0.00 0.00 258.00 205.00" xmlns="http://www.w3.org/2000/svg" xmlns:xlink="http://www.w3.org/1999/xlink">
<g id="graph0" class="graph" transform="scale(1 1) rotate(0) translate(4 201)">
<title>proof</title>
<g id="clust1" class="cluster">
<title>cluster_0</title>
<polygon fill="transparent" stroke="black" stroke-dasharray="1,5" points="33,-157 33,-189 213,-189 213,-157 33,-157"/>
</g>
<g id="clust2" class="cluster">
<title>cluster_1</title>
<polygon fill="transparent" stroke="black" stroke-width="2" points="69,-105 69,-137 181,-137 181,-105 69,-105"/>
</g>
<g id="clust3" class="cluster">
<title>cluster_2</title>
<polygon fill="transparent" stroke="black" stroke-dasharray="1,5" points="8,-8 8,-85 242,-85 242,-8 8,-8"/>
</g>
<!-- c_0_118 -->
<g id="node1" class="node">
<title>c_0_118</title>
<g id="a_node1"><a xlink:href="c_0_118.html" xlink:title="{N₁ + sk₃ ∈ ℕ}" target="_vizar">
<polygon fill="#fa6900" stroke="#7f7542" points="113,-165.5 113,-180.5 205,-180.5 205,-165.5 113,-165.5"/>
<text text-anchor="middle" x="159" y="-169.3" font-family="Times,serif" font-size="14.00">N₁ + sk₃ ∈ ℕ</text>
</a>
</g>
</g>
<!-- c_0_134 -->
<g id="node3" class="node">
<title>c_0_134</title>
<g id="a_node3"><a xlink:href="c_0_134.html" xlink:title="{sk₃ + sk₃ ∈ ℕ}" target="_vizar">
<polygon fill="#fa6900" stroke="#7f7542" points="77,-113.5 77,-128.5 173,-128.5 173,-113.5 77,-113.5"/>
<text text-anchor="middle" x="125" y="-117.3" font-family="Times,serif" font-size="14.00">sk₃ + sk₃ ∈ ℕ</text>
</a>
</g>
</g>
<!-- c_0_118&#45;&gt;c_0_134 -->
<g id="edge1" class="edge">
<title>c_0_118&#45;&gt;c_0_134</title>
<path fill="none" stroke="black" d="M143,-165.33C143,-165.33 143,-138.7 143,-138.7"/>
<polygon fill="black" stroke="black" points="146.5,-138.7 143,-128.7 139.5,-138.7 146.5,-138.7"/>
</g>
<!-- c_0_44 -->
<g id="node2" class="node">
<title>c_0_44</title>
<g id="a_node2"><a xlink:href="c_0_44.html" xlink:title="{sk₃ ∈ ℕ}" target="_vizar">
<polygon fill="#fa6900" stroke="#7f7542" points="41,-165.5 41,-180.5 95,-180.5 95,-165.5 41,-165.5"/>
<text text-anchor="middle" x="68" y="-169.3" font-family="Times,serif" font-size="14.00">sk₃ ∈ ℕ</text>
</a>
</g>
</g>
<!-- c_0_44&#45;&gt;c_0_134 -->
<g id="edge2" class="edge">
<title>c_0_44&#45;&gt;c_0_134</title>
<path fill="none" stroke="black" d="M86,-165.33C86,-165.33 86,-138.7 86,-138.7"/>
<polygon fill="black" stroke="black" points="89.5,-138.7 86,-128.7 82.5,-138.7 89.5,-138.7"/>
</g>
<!-- c_0_144 -->
<g id="node4" class="node">
<title>c_0_144</title>
<g id="a_node4"><a xlink:href="c_0_144.html" xlink:title="{N₁ = Ø|sk₃ + sk₃ = Ø|⇊|N₁ = div(div(sk₁,sk₂),sk₃ + sk₃)}" target="_vizar">
<polygon fill="#fa6900" stroke="#7f7542" points="16.5,-16.5 16.5,-76.5 233.5,-76.5 233.5,-16.5 16.5,-16.5"/>
<text text-anchor="middle" x="125" y="-65.3" font-family="Times,serif" font-size="14.00">N₁ = Ø</text>
<polyline fill="none" stroke="#7f7542" points="16.5,-61.5 233.5,-61.5 "/>
<text text-anchor="middle" x="125" y="-50.3" font-family="Times,serif" font-size="14.00">sk₃ + sk₃ = Ø</text>
<polyline fill="none" stroke="#7f7542" points="16.5,-46.5 233.5,-46.5 "/>
<text text-anchor="middle" x="125" y="-35.3" font-family="Times,serif" font-size="14.00">⇊</text>
<polyline fill="none" stroke="#7f7542" points="16.5,-31.5 233.5,-31.5 "/>
<text text-anchor="middle" x="125" y="-20.3" font-family="Times,serif" font-size="14.00">N₁ = div(div(sk₁,sk₂),sk₃ + sk₃)</text>
</a>
</g>
</g>
<!-- c_0_134&#45;&gt;c_0_144 -->
<g id="edge3" class="edge">
<title>c_0_134&#45;&gt;c_0_144</title>
<path fill="none" stroke="black" stroke-dasharray="5,2" d="M125,-113.31C125,-113.31 125,-86.51 125,-86.51"/>
<polygon fill="black" stroke="black" points="128.5,-86.51 125,-76.51 121.5,-86.51 128.5,-86.51"/>
</g>
</g>
</svg>
