<?xml version="1.0" encoding="UTF-8" standalone="no"?>
<!DOCTYPE svg PUBLIC "-//W3C//DTD SVG 1.1//EN"
 "http://www.w3.org/Graphics/SVG/1.1/DTD/svg11.dtd">
<!-- Generated by graphviz version 5.0.0 (0)
 -->
<!-- Title: proof Pages: 1 -->
<svg width="324pt" height="280pt"
 viewBox="0.00 0.00 324.00 280.00" xmlns="http://www.w3.org/2000/svg" xmlns:xlink="http://www.w3.org/1999/xlink">
<g id="graph0" class="graph" transform="scale(1 1) rotate(0) translate(4 276)">
<title>proof</title>
<g id="clust1" class="cluster">
<title>cluster_0</title>
<polygon fill="transparent" stroke="black" stroke-dasharray="1,5" points="8,-187 8,-264 308,-264 308,-187 8,-187"/>
</g>
<g id="clust2" class="cluster">
<title>cluster_1</title>
<polygon fill="transparent" stroke="black" stroke-width="2" points="27,-90 27,-167 259,-167 259,-90 27,-90"/>
</g>
<g id="clust3" class="cluster">
<title>cluster_2</title>
<polygon fill="transparent" stroke="black" stroke-dasharray="1,5" points="53,-8 53,-70 233,-70 233,-8 53,-8"/>
</g>
<!-- c_0_133 -->
<g id="node1" class="node">
<title>c_0_133</title>
<g id="a_node1"><a xlink:href="c_0_133.html" xlink:title="{C₁ = Ø|C₂ = Ø|⇊|C₁ = div(div(sk₁,sk₂),C₂)}" target="_parent">
<polygon fill="#fa6900" stroke="#7f7542" points="130.5,-195.5 130.5,-255.5 299.5,-255.5 299.5,-195.5 130.5,-195.5"/>
<text text-anchor="middle" x="215" y="-244.3" font-family="Times,serif" font-size="14.00">C₁ = Ø</text>
<polyline fill="none" stroke="#7f7542" points="130.5,-240.5 299.5,-240.5 "/>
<text text-anchor="middle" x="215" y="-229.3" font-family="Times,serif" font-size="14.00">C₂ = Ø</text>
<polyline fill="none" stroke="#7f7542" points="130.5,-225.5 299.5,-225.5 "/>
<text text-anchor="middle" x="215" y="-214.3" font-family="Times,serif" font-size="14.00">⇊</text>
<polyline fill="none" stroke="#7f7542" points="130.5,-210.5 299.5,-210.5 "/>
<text text-anchor="middle" x="215" y="-199.3" font-family="Times,serif" font-size="14.00">C₁ = div(div(sk₁,sk₂),C₂)</text>
</a>
</g>
</g>
<!-- c_0_144 -->
<g id="node3" class="node">
<title>c_0_144</title>
<g id="a_node3"><a xlink:href="c_0_144.html" xlink:title="{C₁ = Ø|sk₃ + sk₃ = Ø|⇊|C₁ = div(div(sk₁,sk₂),sk₃ + sk₃)}" target="_parent">
<polygon fill="#fa6900" stroke="#7f7542" points="35,-98.5 35,-158.5 251,-158.5 251,-98.5 35,-98.5"/>
<text text-anchor="middle" x="143" y="-147.3" font-family="Times,serif" font-size="14.00">C₁ = Ø</text>
<polyline fill="none" stroke="#7f7542" points="35,-143.5 251,-143.5 "/>
<text text-anchor="middle" x="143" y="-132.3" font-family="Times,serif" font-size="14.00">sk₃ + sk₃ = Ø</text>
<polyline fill="none" stroke="#7f7542" points="35,-128.5 251,-128.5 "/>
<text text-anchor="middle" x="143" y="-117.3" font-family="Times,serif" font-size="14.00">⇊</text>
<polyline fill="none" stroke="#7f7542" points="35,-113.5 251,-113.5 "/>
<text text-anchor="middle" x="143" y="-102.3" font-family="Times,serif" font-size="14.00">C₁ = div(div(sk₁,sk₂),sk₃ + sk₃)</text>
</a>
</g>
</g>
<!-- c_0_133&#45;&gt;c_0_144 -->
<g id="edge1" class="edge">
<title>c_0_133&#45;&gt;c_0_144</title>
<path fill="none" stroke="black" d="M190.75,-195.34C190.75,-195.34 190.75,-168.64 190.75,-168.64"/>
<polygon fill="black" stroke="black" points="194.25,-168.64 190.75,-158.64 187.25,-168.64 194.25,-168.64"/>
</g>
<!-- c_0_134 -->
<g id="node2" class="node">
<title>c_0_134</title>
<g id="a_node2"><a xlink:href="c_0_134.html" xlink:title="{sk₃ + sk₃ ∈ ℕ}" target="_parent">
<polygon fill="#fa6900" stroke="#7f7542" points="16,-218 16,-233 112,-233 112,-218 16,-218"/>
<text text-anchor="middle" x="64" y="-221.8" font-family="Times,serif" font-size="14.00">sk₃ + sk₃ ∈ ℕ</text>
</a>
</g>
</g>
<!-- c_0_134&#45;&gt;c_0_144 -->
<g id="edge2" class="edge">
<title>c_0_134&#45;&gt;c_0_144</title>
<path fill="none" stroke="black" d="M73.5,-217.89C73.5,-217.89 73.5,-168.78 73.5,-168.78"/>
<polygon fill="black" stroke="black" points="77,-168.78 73.5,-158.78 70,-168.78 77,-168.78"/>
</g>
<!-- c_0_150 -->
<g id="node4" class="node">
<title>c_0_150</title>
<g id="a_node4"><a xlink:href="c_0_150.html" xlink:title="{C₁ = Ø|⇊|C₁ = div(div(sk₁,sk₂),Ø)}" target="_parent">
<polygon fill="#fa6900" stroke="#7f7542" points="61,-16.5 61,-61.5 225,-61.5 225,-16.5 61,-16.5"/>
<text text-anchor="middle" x="143" y="-50.3" font-family="Times,serif" font-size="14.00">C₁ = Ø</text>
<polyline fill="none" stroke="#7f7542" points="61,-46.5 225,-46.5 "/>
<text text-anchor="middle" x="143" y="-35.3" font-family="Times,serif" font-size="14.00">⇊</text>
<polyline fill="none" stroke="#7f7542" points="61,-31.5 225,-31.5 "/>
<text text-anchor="middle" x="143" y="-20.3" font-family="Times,serif" font-size="14.00">C₁ = div(div(sk₁,sk₂),Ø)</text>
</a>
</g>
</g>
<!-- c_0_144&#45;&gt;c_0_150 -->
<g id="edge3" class="edge">
<title>c_0_144&#45;&gt;c_0_150</title>
<path fill="none" stroke="black" stroke-dasharray="5,2" d="M143,-98.2C143,-98.2 143,-71.63 143,-71.63"/>
<polygon fill="black" stroke="black" points="146.5,-71.63 143,-61.63 139.5,-71.63 146.5,-71.63"/>
</g>
</g>
</svg>
