<?xml version="1.0" encoding="UTF-8" standalone="no"?>
<!DOCTYPE svg PUBLIC "-//W3C//DTD SVG 1.1//EN"
 "http://www.w3.org/Graphics/SVG/1.1/DTD/svg11.dtd">
<!-- Generated by graphviz version 5.0.0 (0)
 -->
<!-- Title: proof Pages: 1 -->
<svg width="214pt" height="160pt"
 viewBox="0.00 0.00 214.00 160.00" xmlns="http://www.w3.org/2000/svg" xmlns:xlink="http://www.w3.org/1999/xlink">
<g id="graph0" class="graph" transform="scale(1 1) rotate(0) translate(4 156)">
<title>proof</title>
<g id="clust1" class="cluster">
<title>cluster_0</title>
<polygon fill="transparent" stroke="black" stroke-dasharray="1,5" points="8,-112 8,-144 198,-144 198,-112 8,-112"/>
</g>
<g id="clust2" class="cluster">
<title>cluster_1</title>
<polygon fill="transparent" stroke="black" stroke-width="2" points="41,-60 41,-92 163,-92 163,-60 41,-60"/>
</g>
<g id="clust3" class="cluster">
<title>cluster_2</title>
<polygon fill="transparent" stroke="black" stroke-dasharray="1,5" points="38,-8 38,-40 166,-40 166,-8 38,-8"/>
</g>
<!-- c_0_29 -->
<g id="node1" class="node">
<title>c_0_29</title>
<g id="a_node1"><a xlink:href="c_0_29.html" xlink:title="{sk₂ ∈ ℕ}" target="_parent">
<polygon fill="#fa6900" stroke="#7f7542" points="136,-120.5 136,-135.5 190,-135.5 190,-120.5 136,-120.5"/>
<text text-anchor="middle" x="163" y="-124.3" font-family="Times,serif" font-size="14.00">sk₂ ∈ ℕ</text>
</a>
</g>
</g>
<!-- c_0_90 -->
<g id="node3" class="node">
<title>c_0_90</title>
<g id="a_node3"><a xlink:href="c_0_90.html" xlink:title="{div(C₁,sk₂) ∈ ℕ}" target="_parent">
<polygon fill="#fa6900" stroke="#7f7542" points="49,-68.5 49,-83.5 155,-83.5 155,-68.5 49,-68.5"/>
<text text-anchor="middle" x="102" y="-72.3" font-family="Times,serif" font-size="14.00">div(C₁,sk₂) ∈ ℕ</text>
</a>
</g>
</g>
<!-- c_0_29&#45;&gt;c_0_90 -->
<g id="edge1" class="edge">
<title>c_0_29&#45;&gt;c_0_90</title>
<path fill="none" stroke="black" d="M145.5,-120.33C145.5,-120.33 145.5,-93.7 145.5,-93.7"/>
<polygon fill="black" stroke="black" points="149,-93.7 145.5,-83.7 142,-93.7 149,-93.7"/>
</g>
<!-- c_0_57 -->
<g id="node2" class="node">
<title>c_0_57</title>
<g id="a_node2"><a xlink:href="c_0_57.html" xlink:title="{div(C₁,C₂) ∈ ℕ}" target="_parent">
<polygon fill="#f8edd1" stroke="#7f7542" points="16.5,-120.5 16.5,-135.5 117.5,-135.5 117.5,-120.5 16.5,-120.5"/>
<text text-anchor="middle" x="67" y="-124.3" font-family="Times,serif" font-size="14.00">div(C₁,C₂) ∈ ℕ</text>
</a>
</g>
</g>
<!-- c_0_57&#45;&gt;c_0_90 -->
<g id="edge2" class="edge">
<title>c_0_57&#45;&gt;c_0_90</title>
<path fill="none" stroke="black" d="M83.25,-120.33C83.25,-120.33 83.25,-93.7 83.25,-93.7"/>
<polygon fill="black" stroke="black" points="86.75,-93.7 83.25,-83.7 79.75,-93.7 86.75,-93.7"/>
</g>
<!-- c_0_107 -->
<g id="node4" class="node">
<title>c_0_107</title>
<g id="a_node4"><a xlink:href="c_0_107.html" xlink:title="{div(sk₁,sk₂) ∈ ℕ}" target="_parent">
<polygon fill="#fa6900" stroke="#7f7542" points="46,-16.5 46,-31.5 158,-31.5 158,-16.5 46,-16.5"/>
<text text-anchor="middle" x="102" y="-20.3" font-family="Times,serif" font-size="14.00">div(sk₁,sk₂) ∈ ℕ</text>
</a>
</g>
</g>
<!-- c_0_90&#45;&gt;c_0_107 -->
<g id="edge3" class="edge">
<title>c_0_90&#45;&gt;c_0_107</title>
<path fill="none" stroke="black" stroke-dasharray="5,2" d="M102,-68.33C102,-68.33 102,-41.7 102,-41.7"/>
<polygon fill="black" stroke="black" points="105.5,-41.7 102,-31.7 98.5,-41.7 105.5,-41.7"/>
</g>
</g>
</svg>
