<?xml version="1.0" encoding="UTF-8" standalone="no"?>
<!DOCTYPE svg PUBLIC "-//W3C//DTD SVG 1.1//EN"
 "http://www.w3.org/Graphics/SVG/1.1/DTD/svg11.dtd">
<!-- Generated by graphviz version 5.0.0 (0)
 -->
<!-- Title: proof Pages: 1 -->
<svg width="276pt" height="280pt"
 viewBox="0.00 0.00 276.00 280.00" xmlns="http://www.w3.org/2000/svg" xmlns:xlink="http://www.w3.org/1999/xlink">
<g id="graph0" class="graph" transform="scale(1 1) rotate(0) translate(4 276)">
<title>proof</title>
<g id="clust1" class="cluster">
<title>cluster_0</title>
<polygon fill="transparent" stroke="black" stroke-dasharray="1,5" points="8,-187 8,-264 260,-264 260,-187 8,-187"/>
</g>
<g id="clust2" class="cluster">
<title>cluster_1</title>
<polygon fill="transparent" stroke="black" stroke-width="2" points="87,-90 87,-167 153,-167 153,-90 87,-90"/>
</g>
<g id="clust3" class="cluster">
<title>cluster_2</title>
<polygon fill="transparent" stroke="black" stroke-dasharray="1,5" points="85,-8 85,-70 155,-70 155,-8 85,-8"/>
</g>
<!-- c_0_86 -->
<g id="node1" class="node">
<title>c_0_86</title>
<g id="a_node1"><a xlink:href="c_0_86.html" xlink:title="{Ø + 1 = 1}" target="_parent">
<polygon fill="#f8edd1" stroke="#7f7542" points="180,-218 180,-233 252,-233 252,-218 180,-218"/>
<text text-anchor="middle" x="216" y="-221.8" font-family="Times,serif" font-size="14.00">Ø + 1 = 1</text>
</a>
</g>
</g>
<!-- c_0_119 -->
<g id="node4" class="node">
<title>c_0_119</title>
<g id="a_node4"><a xlink:href="c_0_119.html" xlink:title="{1 ≤ C₁|C₁ ≤ Ø|⇊|⊥}" target="_parent">
<polygon fill="#f8edd1" stroke="#7f7542" points="95.5,-98.5 95.5,-158.5 144.5,-158.5 144.5,-98.5 95.5,-98.5"/>
<text text-anchor="middle" x="120" y="-147.3" font-family="Times,serif" font-size="14.00">1 ≤ C₁</text>
<polyline fill="none" stroke="#7f7542" points="95.5,-143.5 144.5,-143.5 "/>
<text text-anchor="middle" x="120" y="-132.3" font-family="Times,serif" font-size="14.00">C₁ ≤ Ø</text>
<polyline fill="none" stroke="#7f7542" points="95.5,-128.5 144.5,-128.5 "/>
<text text-anchor="middle" x="120" y="-117.3" font-family="Times,serif" font-size="14.00">⇊</text>
<polyline fill="none" stroke="#7f7542" points="95.5,-113.5 144.5,-113.5 "/>
<text text-anchor="middle" x="120" y="-102.3" font-family="Times,serif" font-size="14.00">⊥</text>
</a>
</g>
</g>
<!-- c_0_86&#45;&gt;c_0_119 -->
<g id="edge1" class="edge">
<title>c_0_86&#45;&gt;c_0_119</title>
<path fill="none" stroke="black" d="M216,-217.85C216,-194.86 216,-128 216,-128 216,-128 154.72,-128 154.72,-128"/>
<polygon fill="black" stroke="black" points="154.72,-124.5 144.72,-128 154.72,-131.5 154.72,-124.5"/>
</g>
<!-- c_0_84 -->
<g id="node2" class="node">
<title>c_0_84</title>
<g id="a_node2"><a xlink:href="c_0_84.html" xlink:title="{C₁ ≤ C₂|C₂ + 1 ≤ C₁|⇊|⊥}" target="_parent">
<polygon fill="#f8edd1" stroke="#7f7542" points="78.5,-195.5 78.5,-255.5 161.5,-255.5 161.5,-195.5 78.5,-195.5"/>
<text text-anchor="middle" x="120" y="-244.3" font-family="Times,serif" font-size="14.00">C₁ ≤ C₂</text>
<polyline fill="none" stroke="#7f7542" points="78.5,-240.5 161.5,-240.5 "/>
<text text-anchor="middle" x="120" y="-229.3" font-family="Times,serif" font-size="14.00">C₂ + 1 ≤ C₁</text>
<polyline fill="none" stroke="#7f7542" points="78.5,-225.5 161.5,-225.5 "/>
<text text-anchor="middle" x="120" y="-214.3" font-family="Times,serif" font-size="14.00">⇊</text>
<polyline fill="none" stroke="#7f7542" points="78.5,-210.5 161.5,-210.5 "/>
<text text-anchor="middle" x="120" y="-199.3" font-family="Times,serif" font-size="14.00">⊥</text>
</a>
</g>
</g>
<!-- c_0_84&#45;&gt;c_0_119 -->
<g id="edge2" class="edge">
<title>c_0_84&#45;&gt;c_0_119</title>
<path fill="none" stroke="black" d="M120,-195.34C120,-195.34 120,-168.64 120,-168.64"/>
<polygon fill="black" stroke="black" points="123.5,-168.64 120,-158.64 116.5,-168.64 123.5,-168.64"/>
</g>
<!-- c_0_82 -->
<g id="node3" class="node">
<title>c_0_82</title>
<g id="a_node3"><a xlink:href="c_0_82.html" xlink:title="{Ø ∈ ℕ}" target="_parent">
<polygon fill="#f8edd1" stroke="#7f7542" points="16,-218 16,-233 60,-233 60,-218 16,-218"/>
<text text-anchor="middle" x="38" y="-221.8" font-family="Times,serif" font-size="14.00">Ø ∈ ℕ</text>
</a>
</g>
</g>
<!-- c_0_82&#45;&gt;c_0_119 -->
<g id="edge3" class="edge">
<title>c_0_82&#45;&gt;c_0_119</title>
<path fill="none" stroke="black" d="M38,-217.85C38,-194.86 38,-128 38,-128 38,-128 85.4,-128 85.4,-128"/>
<polygon fill="black" stroke="black" points="85.4,-131.5 95.4,-128 85.4,-124.5 85.4,-131.5"/>
</g>
<!-- c_0_135 -->
<g id="node5" class="node">
<title>c_0_135</title>
<g id="a_node5"><a xlink:href="c_0_135.html" xlink:title="{sk₃ ≤ Ø|⇊|sk₃ = Ø}" target="_parent">
<polygon fill="#fa6900" stroke="#7f7542" points="93,-16.5 93,-61.5 147,-61.5 147,-16.5 93,-16.5"/>
<text text-anchor="middle" x="120" y="-50.3" font-family="Times,serif" font-size="14.00">sk₃ ≤ Ø</text>
<polyline fill="none" stroke="#7f7542" points="93,-46.5 147,-46.5 "/>
<text text-anchor="middle" x="120" y="-35.3" font-family="Times,serif" font-size="14.00">⇊</text>
<polyline fill="none" stroke="#7f7542" points="93,-31.5 147,-31.5 "/>
<text text-anchor="middle" x="120" y="-20.3" font-family="Times,serif" font-size="14.00">sk₃ = Ø</text>
</a>
</g>
</g>
<!-- c_0_119&#45;&gt;c_0_135 -->
<g id="edge4" class="edge">
<title>c_0_119&#45;&gt;c_0_135</title>
<path fill="none" stroke="black" stroke-dasharray="5,2" d="M120,-98.2C120,-98.2 120,-71.63 120,-71.63"/>
<polygon fill="black" stroke="black" points="123.5,-71.63 120,-61.63 116.5,-71.63 123.5,-71.63"/>
</g>
</g>
</svg>
