<?xml version="1.0" encoding="UTF-8" standalone="no"?>
<!DOCTYPE svg PUBLIC "-//W3C//DTD SVG 1.1//EN"
 "http://www.w3.org/Graphics/SVG/1.1/DTD/svg11.dtd">
<!-- Generated by graphviz version 5.0.0 (0)
 -->
<!-- Title: proof Pages: 1 -->
<svg width="132pt" height="160pt"
 viewBox="0.00 0.00 132.00 160.00" xmlns="http://www.w3.org/2000/svg" xmlns:xlink="http://www.w3.org/1999/xlink">
<g id="graph0" class="graph" transform="scale(1 1) rotate(0) translate(4 156)">
<title>proof</title>
<g id="clust1" class="cluster">
<title>cluster_0</title>
<polygon fill="transparent" stroke="black" stroke-dasharray="1,5" points="8,-112 8,-144 116,-144 116,-112 8,-112"/>
</g>
<g id="clust2" class="cluster">
<title>cluster_1</title>
<polygon fill="transparent" stroke="black" stroke-width="2" points="32,-60 32,-92 92,-92 92,-60 32,-60"/>
</g>
<g id="clust3" class="cluster">
<title>cluster_2</title>
<polygon fill="transparent" stroke="black" stroke-dasharray="1,5" points="32,-8 32,-40 92,-40 92,-8 32,-8"/>
</g>
<!-- fc1_xboole_0 -->
<g id="node1" class="node">
<title>fc1_xboole_0</title>
<g id="a_node1"><a xlink:href="fc1_xboole_0.html" xlink:title="fc1_xboole_0" target="_parent">
<polygon fill="#69d2e7" stroke="#7f7542" points="16.5,-120.5 16.5,-135.5 107.5,-135.5 107.5,-120.5 16.5,-120.5"/>
<text text-anchor="middle" x="62" y="-124.3" font-family="Times,serif" font-size="14.00">fc1_xboole_0</text>
</a>
</g>
</g>
<!-- c_0_47 -->
<g id="node2" class="node">
<title>c_0_47</title>
<g id="a_node2"><a xlink:href="c_0_47.html" xlink:title="{Ø = Ø}" target="_parent">
<polygon fill="#f8edd1" stroke="#7f7542" points="40,-68.5 40,-83.5 84,-83.5 84,-68.5 40,-68.5"/>
<text text-anchor="middle" x="62" y="-72.3" font-family="Times,serif" font-size="14.00">Ø = Ø</text>
</a>
</g>
</g>
<!-- fc1_xboole_0&#45;&gt;c_0_47 -->
<g id="edge1" class="edge">
<title>fc1_xboole_0&#45;&gt;c_0_47</title>
<path fill="none" stroke="black" d="M62,-120.33C62,-120.33 62,-93.7 62,-93.7"/>
<polygon fill="black" stroke="black" points="65.5,-93.7 62,-83.7 58.5,-93.7 65.5,-93.7"/>
</g>
<!-- c_0_82 -->
<g id="node3" class="node">
<title>c_0_82</title>
<g id="a_node3"><a xlink:href="c_0_82.html" xlink:title="{Ø ∈ ℕ}" target="_parent">
<polygon fill="#f8edd1" stroke="#7f7542" points="40,-16.5 40,-31.5 84,-31.5 84,-16.5 40,-16.5"/>
<text text-anchor="middle" x="62" y="-20.3" font-family="Times,serif" font-size="14.00">Ø ∈ ℕ</text>
</a>
</g>
</g>
<!-- c_0_47&#45;&gt;c_0_82 -->
<g id="edge2" class="edge">
<title>c_0_47&#45;&gt;c_0_82</title>
<path fill="none" stroke="black" stroke-dasharray="5,2" d="M62,-68.33C62,-68.33 62,-41.7 62,-41.7"/>
<polygon fill="black" stroke="black" points="65.5,-41.7 62,-31.7 58.5,-41.7 65.5,-41.7"/>
</g>
</g>
</svg>
