<?xml version="1.0" encoding="UTF-8" standalone="no"?>
<!DOCTYPE svg PUBLIC "-//W3C//DTD SVG 1.1//EN"
 "http://www.w3.org/Graphics/SVG/1.1/DTD/svg11.dtd">
<!-- Generated by graphviz version 5.0.0 (0)
 -->
<!-- Title: proof Pages: 1 -->
<svg width="313pt" height="160pt"
 viewBox="0.00 0.00 313.00 160.00" xmlns="http://www.w3.org/2000/svg" xmlns:xlink="http://www.w3.org/1999/xlink">
<g id="graph0" class="graph" transform="scale(1 1) rotate(0) translate(4 156)">
<title>proof</title>
<g id="clust1" class="cluster">
<title>cluster_0</title>
<polygon fill="transparent" stroke="black" stroke-dasharray="1,5" points="13,-112 13,-144 297,-144 297,-112 13,-112"/>
</g>
<g id="clust2" class="cluster">
<title>cluster_1</title>
<polygon fill="transparent" stroke="black" stroke-width="2" points="14,-60 14,-92 272,-92 272,-60 14,-60"/>
</g>
<g id="clust3" class="cluster">
<title>cluster_2</title>
<polygon fill="transparent" stroke="black" stroke-dasharray="1,5" points="8,-8 8,-40 278,-40 278,-8 8,-8"/>
</g>
<!-- c_0_92 -->
<g id="node1" class="node">
<title>c_0_92</title>
<g id="a_node1"><a xlink:href="c_0_92.html" xlink:title="{sk₂ * sk₃ ∈ ℕ}" target="_parent">
<polygon fill="#fa6900" stroke="#7f7542" points="197.5,-120.5 197.5,-135.5 288.5,-135.5 288.5,-120.5 197.5,-120.5"/>
<text text-anchor="middle" x="243" y="-124.3" font-family="Times,serif" font-size="14.00">sk₂ * sk₃ ∈ ℕ</text>
</a>
</g>
</g>
<!-- c_0_108 -->
<g id="node3" class="node">
<title>c_0_108</title>
<g id="a_node3"><a xlink:href="c_0_108.html" xlink:title="{div(C₁,sk₂ * sk₃) = div(C₁,sk₂ * sk₃)}" target="_parent">
<polygon fill="#fa6900" stroke="#7f7542" points="22,-68.5 22,-83.5 264,-83.5 264,-68.5 22,-68.5"/>
<text text-anchor="middle" x="143" y="-72.3" font-family="Times,serif" font-size="14.00">div(C₁,sk₂ * sk₃) = div(C₁,sk₂ * sk₃)</text>
</a>
</g>
</g>
<!-- c_0_92&#45;&gt;c_0_108 -->
<g id="edge1" class="edge">
<title>c_0_92&#45;&gt;c_0_108</title>
<path fill="none" stroke="black" d="M230.75,-120.33C230.75,-120.33 230.75,-93.7 230.75,-93.7"/>
<polygon fill="black" stroke="black" points="234.25,-93.7 230.75,-83.7 227.25,-93.7 234.25,-93.7"/>
</g>
<!-- c_0_30 -->
<g id="node2" class="node">
<title>c_0_30</title>
<g id="a_node2"><a xlink:href="c_0_30.html" xlink:title="{div(C₁,C₂) = div(C₁,C₂)}" target="_parent">
<polygon fill="#f8edd1" stroke="#7f7542" points="21,-120.5 21,-135.5 179,-135.5 179,-120.5 21,-120.5"/>
<text text-anchor="middle" x="100" y="-124.3" font-family="Times,serif" font-size="14.00">div(C₁,C₂) = div(C₁,C₂)</text>
</a>
</g>
</g>
<!-- c_0_30&#45;&gt;c_0_108 -->
<g id="edge2" class="edge">
<title>c_0_30&#45;&gt;c_0_108</title>
<path fill="none" stroke="black" d="M100.5,-120.33C100.5,-120.33 100.5,-93.7 100.5,-93.7"/>
<polygon fill="black" stroke="black" points="104,-93.7 100.5,-83.7 97,-93.7 104,-93.7"/>
</g>
<!-- c_0_124 -->
<g id="node4" class="node">
<title>c_0_124</title>
<g id="a_node4"><a xlink:href="c_0_124.html" xlink:title="{div(sk₁,sk₂ * sk₃) = div(sk₁,sk₂ * sk₃)}" target="_parent">
<polygon fill="#fa6900" stroke="#7f7542" points="16.5,-16.5 16.5,-31.5 269.5,-31.5 269.5,-16.5 16.5,-16.5"/>
<text text-anchor="middle" x="143" y="-20.3" font-family="Times,serif" font-size="14.00">div(sk₁,sk₂ * sk₃) = div(sk₁,sk₂ * sk₃)</text>
</a>
</g>
</g>
<!-- c_0_108&#45;&gt;c_0_124 -->
<g id="edge3" class="edge">
<title>c_0_108&#45;&gt;c_0_124</title>
<path fill="none" stroke="black" stroke-dasharray="5,2" d="M143,-68.33C143,-68.33 143,-41.7 143,-41.7"/>
<polygon fill="black" stroke="black" points="146.5,-41.7 143,-31.7 139.5,-41.7 146.5,-41.7"/>
</g>
</g>
</svg>
