<?xml version="1.0" encoding="UTF-8" standalone="no"?>
<!DOCTYPE svg PUBLIC "-//W3C//DTD SVG 1.1//EN"
 "http://www.w3.org/Graphics/SVG/1.1/DTD/svg11.dtd">
<!-- Generated by graphviz version 5.0.0 (0)
 -->
<!-- Title: proof Pages: 1 -->
<svg width="384pt" height="220pt"
 viewBox="0.00 0.00 384.00 220.00" xmlns="http://www.w3.org/2000/svg" xmlns:xlink="http://www.w3.org/1999/xlink">
<g id="graph0" class="graph" transform="scale(1 1) rotate(0) translate(4 216)">
<title>proof</title>
<g id="clust1" class="cluster">
<title>cluster_0</title>
<polygon fill="transparent" stroke="black" stroke-dasharray="1,5" points="30,-142 30,-204 172,-204 172,-142 30,-142"/>
</g>
<g id="clust2" class="cluster">
<title>cluster_1</title>
<polygon fill="transparent" stroke="black" stroke-width="2" points="81,-90 81,-122 151,-122 151,-90 81,-90"/>
</g>
<g id="clust3" class="cluster">
<title>cluster_2</title>
<polygon fill="transparent" stroke="black" stroke-dasharray="1,5" points="8,-8 8,-70 368,-70 368,-8 8,-8"/>
</g>
<!-- c_0_136 -->
<g id="node1" class="node">
<title>c_0_136</title>
<g id="a_node1"><a xlink:href="c_0_136.html" xlink:title="{sk₃ ≤ Ø}" target="_vizar">
<polygon fill="#fa6900" stroke="#7f7542" points="110,-165.5 110,-180.5 164,-180.5 164,-165.5 110,-165.5"/>
<text text-anchor="middle" x="137" y="-169.3" font-family="Times,serif" font-size="14.00">sk₃ ≤ Ø</text>
</a>
</g>
</g>
<!-- c_0_145 -->
<g id="node3" class="node">
<title>c_0_145</title>
<g id="a_node3"><a xlink:href="c_0_145.html" xlink:title="{sk₃ = Ø}" target="_vizar">
<polygon fill="#fa6900" stroke="#7f7542" points="89,-98.5 89,-113.5 143,-113.5 143,-98.5 89,-98.5"/>
<text text-anchor="middle" x="116" y="-102.3" font-family="Times,serif" font-size="14.00">sk₃ = Ø</text>
</a>
</g>
</g>
<!-- c_0_136&#45;&gt;c_0_145 -->
<g id="edge1" class="edge">
<title>c_0_136&#45;&gt;c_0_145</title>
<path fill="none" stroke="black" d="M126.5,-165.31C126.5,-165.31 126.5,-123.6 126.5,-123.6"/>
<polygon fill="black" stroke="black" points="130,-123.6 126.5,-113.6 123,-123.6 130,-123.6"/>
</g>
<!-- c_0_135 -->
<g id="node2" class="node">
<title>c_0_135</title>
<g id="a_node2"><a xlink:href="c_0_135.html" xlink:title="{sk₃ ≤ Ø|⇊|sk₃ = Ø}" target="_vizar">
<polygon fill="#fa6900" stroke="#7f7542" points="38,-150.5 38,-195.5 92,-195.5 92,-150.5 38,-150.5"/>
<text text-anchor="middle" x="65" y="-184.3" font-family="Times,serif" font-size="14.00">sk₃ ≤ Ø</text>
<polyline fill="none" stroke="#7f7542" points="38,-180.5 92,-180.5 "/>
<text text-anchor="middle" x="65" y="-169.3" font-family="Times,serif" font-size="14.00">⇊</text>
<polyline fill="none" stroke="#7f7542" points="38,-165.5 92,-165.5 "/>
<text text-anchor="middle" x="65" y="-154.3" font-family="Times,serif" font-size="14.00">sk₃ = Ø</text>
</a>
</g>
</g>
<!-- c_0_135&#45;&gt;c_0_145 -->
<g id="edge2" class="edge">
<title>c_0_135&#45;&gt;c_0_145</title>
<path fill="none" stroke="black" d="M92.29,-157C97.31,-157 101,-157 101,-157 101,-157 101,-123.53 101,-123.53"/>
<polygon fill="black" stroke="black" points="104.5,-123.53 101,-113.53 97.5,-123.53 104.5,-123.53"/>
</g>
<!-- c_0_150 -->
<g id="node4" class="node">
<title>c_0_150</title>
<g id="a_node4"><a xlink:href="c_0_150.html" xlink:title="{N₁ = Ø|⇊|N₁ = div(div(sk₁,sk₂),Ø)}" target="_vizar">
<polygon fill="#fa6900" stroke="#7f7542" points="194,-16.5 194,-61.5 360,-61.5 360,-16.5 194,-16.5"/>
<text text-anchor="middle" x="277" y="-50.3" font-family="Times,serif" font-size="14.00">N₁ = Ø</text>
<polyline fill="none" stroke="#7f7542" points="194,-46.5 360,-46.5 "/>
<text text-anchor="middle" x="277" y="-35.3" font-family="Times,serif" font-size="14.00">⇊</text>
<polyline fill="none" stroke="#7f7542" points="194,-31.5 360,-31.5 "/>
<text text-anchor="middle" x="277" y="-20.3" font-family="Times,serif" font-size="14.00">N₁ = div(div(sk₁,sk₂),Ø)</text>
</a>
</g>
</g>
<!-- c_0_145&#45;&gt;c_0_150 -->
<g id="edge3" class="edge">
<title>c_0_145&#45;&gt;c_0_150</title>
<path fill="none" stroke="black" stroke-dasharray="5,2" d="M125,-98.33C125,-83.86 125,-54 125,-54 125,-54 183.88,-54 183.88,-54"/>
<polygon fill="black" stroke="black" points="183.88,-57.5 193.88,-54 183.88,-50.5 183.88,-57.5"/>
</g>
<!-- c_0_151 -->
<g id="node5" class="node">
<title>c_0_151</title>
<g id="a_node5"><a xlink:href="c_0_151.html" xlink:title="{div(div(sk₁,sk₂),Ø) ≠ Ø}" target="_vizar">
<polygon fill="#fa6900" stroke="#7f7542" points="16,-31.5 16,-46.5 176,-46.5 176,-31.5 16,-31.5"/>
<text text-anchor="middle" x="96" y="-35.3" font-family="Times,serif" font-size="14.00">div(div(sk₁,sk₂),Ø) ≠ Ø</text>
</a>
</g>
</g>
<!-- c_0_145&#45;&gt;c_0_151 -->
<g id="edge4" class="edge">
<title>c_0_145&#45;&gt;c_0_151</title>
<path fill="none" stroke="black" stroke-dasharray="5,2" d="M107,-98.31C107,-98.31 107,-56.6 107,-56.6"/>
<polygon fill="black" stroke="black" points="110.5,-56.6 107,-46.6 103.5,-56.6 110.5,-56.6"/>
</g>
</g>
</svg>
