<?xml version="1.0" encoding="UTF-8" standalone="no"?>
<!DOCTYPE svg PUBLIC "-//W3C//DTD SVG 1.1//EN"
 "http://www.w3.org/Graphics/SVG/1.1/DTD/svg11.dtd">
<!-- Generated by graphviz version 5.0.0 (0)
 -->
<!-- Title: proof Pages: 1 -->
<svg width="671pt" height="235pt"
 viewBox="0.00 0.00 671.00 235.00" xmlns="http://www.w3.org/2000/svg" xmlns:xlink="http://www.w3.org/1999/xlink">
<g id="graph0" class="graph" transform="scale(1 1) rotate(0) translate(4 231)">
<title>proof</title>
<g id="clust1" class="cluster">
<title>cluster_0</title>
<polygon fill="transparent" stroke="black" stroke-dasharray="1,5" points="306,-187 306,-219 500,-219 500,-187 306,-187"/>
</g>
<g id="clust2" class="cluster">
<title>cluster_1</title>
<polygon fill="transparent" stroke="black" stroke-width="2" points="374,-135 374,-167 432,-167 432,-135 374,-135"/>
</g>
<g id="clust3" class="cluster">
<title>cluster_2</title>
<polygon fill="transparent" stroke="black" stroke-dasharray="1,5" points="8,-8 8,-115 655,-115 655,-8 8,-8"/>
</g>
<!-- redefinition_k6_numbers -->
<g id="node1" class="node">
<title>redefinition_k6_numbers</title>
<g id="a_node1"><a xlink:href="redefinition_k6_numbers.html" xlink:title="redefinition_k6_numbers" target="_parent">
<polygon fill="#69d2e7" stroke="#7f7542" points="314.5,-195.5 314.5,-210.5 491.5,-210.5 491.5,-195.5 314.5,-195.5"/>
<text text-anchor="middle" x="403" y="-199.3" font-family="Times,serif" font-size="14.00">redefinition_k6_numbers</text>
</a>
</g>
</g>
<!-- c_0_55 -->
<g id="node2" class="node">
<title>c_0_55</title>
<g id="a_node2"><a xlink:href="c_0_55.html" xlink:title="{0 = Ø}" target="_parent">
<polygon fill="#f8edd1" stroke="#7f7542" points="382,-143.5 382,-158.5 424,-158.5 424,-143.5 382,-143.5"/>
<text text-anchor="middle" x="403" y="-147.3" font-family="Times,serif" font-size="14.00">0 = Ø</text>
</a>
</g>
</g>
<!-- redefinition_k6_numbers&#45;&gt;c_0_55 -->
<g id="edge1" class="edge">
<title>redefinition_k6_numbers&#45;&gt;c_0_55</title>
<path fill="none" stroke="black" d="M403,-195.33C403,-195.33 403,-168.7 403,-168.7"/>
<polygon fill="black" stroke="black" points="406.5,-168.7 403,-158.7 399.5,-168.7 406.5,-168.7"/>
</g>
<!-- c_0_97 -->
<g id="node3" class="node">
<title>c_0_97</title>
<g id="a_node3"><a xlink:href="c_0_97.html" xlink:title="{C₁ = Ø|C₃ = Ø|⇊|C₁ = div(C₂,C₃)}" target="_parent">
<polygon fill="#f8edd1" stroke="#7f7542" points="541,-31.5 541,-91.5 647,-91.5 647,-31.5 541,-31.5"/>
<text text-anchor="middle" x="594" y="-80.3" font-family="Times,serif" font-size="14.00">C₁ = Ø</text>
<polyline fill="none" stroke="#7f7542" points="541,-76.5 647,-76.5 "/>
<text text-anchor="middle" x="594" y="-65.3" font-family="Times,serif" font-size="14.00">C₃ = Ø</text>
<polyline fill="none" stroke="#7f7542" points="541,-61.5 647,-61.5 "/>
<text text-anchor="middle" x="594" y="-50.3" font-family="Times,serif" font-size="14.00">⇊</text>
<polyline fill="none" stroke="#7f7542" points="541,-46.5 647,-46.5 "/>
<text text-anchor="middle" x="594" y="-35.3" font-family="Times,serif" font-size="14.00">C₁ = div(C₂,C₃)</text>
</a>
</g>
</g>
<!-- c_0_55&#45;&gt;c_0_97 -->
<g id="edge2" class="edge">
<title>c_0_55&#45;&gt;c_0_97</title>
<path fill="none" stroke="black" stroke-dasharray="5,2" d="M413.5,-143.31C413.5,-125.72 413.5,-84 413.5,-84 413.5,-84 530.82,-84 530.82,-84"/>
<polygon fill="black" stroke="black" points="530.82,-87.5 540.82,-84 530.82,-80.5 530.82,-87.5"/>
</g>
<!-- c_0_141 -->
<g id="node4" class="node">
<title>c_0_141</title>
<g id="a_node4"><a xlink:href="c_0_141.html" xlink:title="{N₁ * Ø = Ø}" target="_parent">
<polygon fill="#f8edd1" stroke="#7f7542" points="445.5,-54 445.5,-69 522.5,-69 522.5,-54 445.5,-54"/>
<text text-anchor="middle" x="484" y="-57.8" font-family="Times,serif" font-size="14.00">N₁ * Ø = Ø</text>
</a>
</g>
</g>
<!-- c_0_55&#45;&gt;c_0_141 -->
<g id="edge3" class="edge">
<title>c_0_55&#45;&gt;c_0_141</title>
<path fill="none" stroke="black" stroke-dasharray="5,2" d="M424.09,-151C443.23,-151 468.5,-151 468.5,-151 468.5,-151 468.5,-79.13 468.5,-79.13"/>
<polygon fill="black" stroke="black" points="472,-79.13 468.5,-69.13 465,-79.13 472,-79.13"/>
</g>
<!-- c_0_103 -->
<g id="node5" class="node">
<title>c_0_103</title>
<g id="a_node5"><a xlink:href="c_0_103.html" xlink:title="{1 ≤ C₁|C₁ = Ø}" target="_parent">
<polygon fill="#f8edd1" stroke="#7f7542" points="378.5,-46.5 378.5,-76.5 427.5,-76.5 427.5,-46.5 378.5,-46.5"/>
<text text-anchor="middle" x="403" y="-65.3" font-family="Times,serif" font-size="14.00">1 ≤ C₁</text>
<polyline fill="none" stroke="#7f7542" points="378.5,-61.5 427.5,-61.5 "/>
<text text-anchor="middle" x="403" y="-50.3" font-family="Times,serif" font-size="14.00">C₁ = Ø</text>
</a>
</g>
</g>
<!-- c_0_55&#45;&gt;c_0_103 -->
<g id="edge4" class="edge">
<title>c_0_55&#45;&gt;c_0_103</title>
<path fill="none" stroke="black" stroke-dasharray="5,2" d="M403,-143.37C403,-143.37 403,-86.79 403,-86.79"/>
<polygon fill="black" stroke="black" points="406.5,-86.79 403,-76.79 399.5,-86.79 406.5,-86.79"/>
</g>
<!-- c_0_126 -->
<g id="node6" class="node">
<title>c_0_126</title>
<g id="a_node6"><a xlink:href="c_0_126.html" xlink:title="{N₁ + Ø = N₁}" target="_parent">
<polygon fill="#f8edd1" stroke="#7f7542" points="272,-54 272,-69 360,-69 360,-54 272,-54"/>
<text text-anchor="middle" x="316" y="-57.8" font-family="Times,serif" font-size="14.00">N₁ + Ø = N₁</text>
</a>
</g>
</g>
<!-- c_0_55&#45;&gt;c_0_126 -->
<g id="edge5" class="edge">
<title>c_0_55&#45;&gt;c_0_126</title>
<path fill="none" stroke="black" stroke-dasharray="5,2" d="M381.83,-151C362.61,-151 337.25,-151 337.25,-151 337.25,-151 337.25,-79.13 337.25,-79.13"/>
<polygon fill="black" stroke="black" points="340.75,-79.13 337.25,-69.13 333.75,-79.13 340.75,-79.13"/>
</g>
<!-- c_0_88 -->
<g id="node7" class="node">
<title>c_0_88</title>
<g id="a_node7"><a xlink:href="c_0_88.html" xlink:title="{integer(X₁)|integer(X₂)|integer(X₃)|⇊|X₃ ≤ Ø|div(div(X₁,X₂),X₃) = div(X₁,X₂ * X₃)}" target="_parent">
<polygon fill="#f8edd1" stroke="#7f7542" points="16,-16.5 16,-106.5 254,-106.5 254,-16.5 16,-16.5"/>
<text text-anchor="middle" x="135" y="-95.3" font-family="Times,serif" font-size="14.00">integer(X₁)</text>
<polyline fill="none" stroke="#7f7542" points="16,-91.5 254,-91.5 "/>
<text text-anchor="middle" x="135" y="-80.3" font-family="Times,serif" font-size="14.00">integer(X₂)</text>
<polyline fill="none" stroke="#7f7542" points="16,-76.5 254,-76.5 "/>
<text text-anchor="middle" x="135" y="-65.3" font-family="Times,serif" font-size="14.00">integer(X₃)</text>
<polyline fill="none" stroke="#7f7542" points="16,-61.5 254,-61.5 "/>
<text text-anchor="middle" x="135" y="-50.3" font-family="Times,serif" font-size="14.00">⇊</text>
<polyline fill="none" stroke="#7f7542" points="16,-46.5 254,-46.5 "/>
<text text-anchor="middle" x="135" y="-35.3" font-family="Times,serif" font-size="14.00">X₃ ≤ Ø</text>
<polyline fill="none" stroke="#7f7542" points="16,-31.5 254,-31.5 "/>
<text text-anchor="middle" x="135" y="-20.3" font-family="Times,serif" font-size="14.00">div(div(X₁,X₂),X₃) = div(X₁,X₂ * X₃)</text>
</a>
</g>
</g>
<!-- c_0_55&#45;&gt;c_0_88 -->
<g id="edge6" class="edge">
<title>c_0_55&#45;&gt;c_0_88</title>
<path fill="none" stroke="black" stroke-dasharray="5,2" d="M392.5,-143.33C392.5,-128.86 392.5,-99 392.5,-99 392.5,-99 264.33,-99 264.33,-99"/>
<polygon fill="black" stroke="black" points="264.33,-95.5 254.33,-99 264.33,-102.5 264.33,-95.5"/>
</g>
</g>
</svg>
