<?xml version="1.0" encoding="UTF-8" standalone="no"?>
<!DOCTYPE svg PUBLIC "-//W3C//DTD SVG 1.1//EN"
 "http://www.w3.org/Graphics/SVG/1.1/DTD/svg11.dtd">
<!-- Generated by graphviz version 5.0.0 (0)
 -->
<!-- Title: proof Pages: 1 -->
<svg width="126pt" height="250pt"
 viewBox="0.00 0.00 126.00 250.00" xmlns="http://www.w3.org/2000/svg" xmlns:xlink="http://www.w3.org/1999/xlink">
<g id="graph0" class="graph" transform="scale(1 1) rotate(0) translate(4 246)">
<title>proof</title>
<g id="clust1" class="cluster">
<title>cluster_0</title>
<polygon fill="transparent" stroke="black" stroke-dasharray="1,5" points="16,-202 16,-234 102,-234 102,-202 16,-202"/>
</g>
<g id="clust2" class="cluster">
<title>cluster_1</title>
<polygon fill="transparent" stroke="black" stroke-width="2" points="8,-105 8,-182 110,-182 110,-105 8,-105"/>
</g>
<g id="clust3" class="cluster">
<title>cluster_2</title>
<polygon fill="transparent" stroke="black" stroke-dasharray="1,5" points="26,-8 26,-85 92,-85 92,-8 26,-8"/>
</g>
<!-- t13_nat_1 -->
<g id="node1" class="node">
<title>t13_nat_1</title>
<g id="a_node1"><a xlink:href="t13_nat_1.html" xlink:title="t13_nat_1" target="_vizar">
<polygon fill="#69d2e7" stroke="#7f7542" points="24,-210.5 24,-225.5 94,-225.5 94,-210.5 24,-210.5"/>
<text text-anchor="middle" x="59" y="-214.3" font-family="Times,serif" font-size="14.00">t13_nat_1</text>
</a>
</g>
</g>
<!-- c_0_84 -->
<g id="node2" class="node">
<title>c_0_84</title>
<g id="a_node2"><a xlink:href="c_0_84.html" xlink:title="{N₁ ≤ N₂|N₂ + 1 ≤ N₁|⇊|⊥}" target="_vizar">
<polygon fill="#f8edd1" stroke="#7f7542" points="16,-113.5 16,-173.5 102,-173.5 102,-113.5 16,-113.5"/>
<text text-anchor="middle" x="59" y="-162.3" font-family="Times,serif" font-size="14.00">N₁ ≤ N₂</text>
<polyline fill="none" stroke="#7f7542" points="16,-158.5 102,-158.5 "/>
<text text-anchor="middle" x="59" y="-147.3" font-family="Times,serif" font-size="14.00">N₂ + 1 ≤ N₁</text>
<polyline fill="none" stroke="#7f7542" points="16,-143.5 102,-143.5 "/>
<text text-anchor="middle" x="59" y="-132.3" font-family="Times,serif" font-size="14.00">⇊</text>
<polyline fill="none" stroke="#7f7542" points="16,-128.5 102,-128.5 "/>
<text text-anchor="middle" x="59" y="-117.3" font-family="Times,serif" font-size="14.00">⊥</text>
</a>
</g>
</g>
<!-- t13_nat_1&#45;&gt;c_0_84 -->
<g id="edge1" class="edge">
<title>t13_nat_1&#45;&gt;c_0_84</title>
<path fill="none" stroke="black" d="M59,-210.31C59,-210.31 59,-183.51 59,-183.51"/>
<polygon fill="black" stroke="black" points="62.5,-183.51 59,-173.51 55.5,-183.51 62.5,-183.51"/>
</g>
<!-- c_0_119 -->
<g id="node3" class="node">
<title>c_0_119</title>
<g id="a_node3"><a xlink:href="c_0_119.html" xlink:title="{1 ≤ N₁|N₁ ≤ Ø|⇊|⊥}" target="_vizar">
<polygon fill="#f8edd1" stroke="#7f7542" points="34,-16.5 34,-76.5 84,-76.5 84,-16.5 34,-16.5"/>
<text text-anchor="middle" x="59" y="-65.3" font-family="Times,serif" font-size="14.00">1 ≤ N₁</text>
<polyline fill="none" stroke="#7f7542" points="34,-61.5 84,-61.5 "/>
<text text-anchor="middle" x="59" y="-50.3" font-family="Times,serif" font-size="14.00">N₁ ≤ Ø</text>
<polyline fill="none" stroke="#7f7542" points="34,-46.5 84,-46.5 "/>
<text text-anchor="middle" x="59" y="-35.3" font-family="Times,serif" font-size="14.00">⇊</text>
<polyline fill="none" stroke="#7f7542" points="34,-31.5 84,-31.5 "/>
<text text-anchor="middle" x="59" y="-20.3" font-family="Times,serif" font-size="14.00">⊥</text>
</a>
</g>
</g>
<!-- c_0_84&#45;&gt;c_0_119 -->
<g id="edge2" class="edge">
<title>c_0_84&#45;&gt;c_0_119</title>
<path fill="none" stroke="black" stroke-dasharray="5,2" d="M59,-113.34C59,-113.34 59,-86.64 59,-86.64"/>
<polygon fill="black" stroke="black" points="62.5,-86.64 59,-76.64 55.5,-86.64 62.5,-86.64"/>
</g>
</g>
</svg>
