<?xml version="1.0" encoding="UTF-8" standalone="no"?>
<!DOCTYPE svg PUBLIC "-//W3C//DTD SVG 1.1//EN"
 "http://www.w3.org/Graphics/SVG/1.1/DTD/svg11.dtd">
<!-- Generated by graphviz version 5.0.0 (0)
 -->
<!-- Title: proof Pages: 1 -->
<svg width="487pt" height="190pt"
 viewBox="0.00 0.00 487.00 190.00" xmlns="http://www.w3.org/2000/svg" xmlns:xlink="http://www.w3.org/1999/xlink">
<g id="graph0" class="graph" transform="scale(1 1) rotate(0) translate(4 186)">
<title>proof</title>
<g id="clust1" class="cluster">
<title>cluster_0</title>
<polygon fill="transparent" stroke="black" stroke-dasharray="1,5" points="8,-142 8,-174 471,-174 471,-142 8,-142"/>
</g>
<g id="clust2" class="cluster">
<title>cluster_1</title>
<polygon fill="transparent" stroke="black" stroke-width="2" points="75,-90 75,-122 367,-122 367,-90 75,-90"/>
</g>
<g id="clust3" class="cluster">
<title>cluster_2</title>
<polygon fill="transparent" stroke="black" stroke-dasharray="1,5" points="131,-8 131,-70 311,-70 311,-8 131,-8"/>
</g>
<!-- c_0_99 -->
<g id="node1" class="node">
<title>c_0_99</title>
<g id="a_node1"><a xlink:href="c_0_99.html" xlink:title="{div(C₁,Ø) = div(C₁,Ø)}" target="_parent">
<polygon fill="#f8edd1" stroke="#7f7542" points="313.5,-150.5 313.5,-165.5 462.5,-165.5 462.5,-150.5 313.5,-150.5"/>
<text text-anchor="middle" x="388" y="-154.3" font-family="Times,serif" font-size="14.00">div(C₁,Ø) = div(C₁,Ø)</text>
</a>
</g>
</g>
<!-- c_0_140 -->
<g id="node4" class="node">
<title>c_0_140</title>
<g id="a_node4"><a xlink:href="c_0_140.html" xlink:title="{div(div(sk₁,sk₂),Ø) = div(div(sk₁,sk₂),Ø)}" target="_parent">
<polygon fill="#fa6900" stroke="#7f7542" points="83.5,-98.5 83.5,-113.5 358.5,-113.5 358.5,-98.5 83.5,-98.5"/>
<text text-anchor="middle" x="221" y="-102.3" font-family="Times,serif" font-size="14.00">div(div(sk₁,sk₂),Ø) = div(div(sk₁,sk₂),Ø)</text>
</a>
</g>
</g>
<!-- c_0_99&#45;&gt;c_0_140 -->
<g id="edge1" class="edge">
<title>c_0_99&#45;&gt;c_0_140</title>
<path fill="none" stroke="black" d="M336,-150.33C336,-150.33 336,-123.7 336,-123.7"/>
<polygon fill="black" stroke="black" points="339.5,-123.7 336,-113.7 332.5,-123.7 339.5,-123.7"/>
</g>
<!-- c_0_98 -->
<g id="node2" class="node">
<title>c_0_98</title>
<g id="a_node2"><a xlink:href="c_0_98.html" xlink:title="{div(C₁,Ø) = div(C₁,Ø)}" target="_parent">
<polygon fill="#f8edd1" stroke="#7f7542" points="146.5,-150.5 146.5,-165.5 295.5,-165.5 295.5,-150.5 146.5,-150.5"/>
<text text-anchor="middle" x="221" y="-154.3" font-family="Times,serif" font-size="14.00">div(C₁,Ø) = div(C₁,Ø)</text>
</a>
</g>
</g>
<!-- c_0_98&#45;&gt;c_0_140 -->
<g id="edge2" class="edge">
<title>c_0_98&#45;&gt;c_0_140</title>
<path fill="none" stroke="black" d="M221,-150.33C221,-150.33 221,-123.7 221,-123.7"/>
<polygon fill="black" stroke="black" points="224.5,-123.7 221,-113.7 217.5,-123.7 224.5,-123.7"/>
</g>
<!-- c_0_107 -->
<g id="node3" class="node">
<title>c_0_107</title>
<g id="a_node3"><a xlink:href="c_0_107.html" xlink:title="{div(sk₁,sk₂) ∈ ℕ}" target="_parent">
<polygon fill="#fa6900" stroke="#7f7542" points="16,-150.5 16,-165.5 128,-165.5 128,-150.5 16,-150.5"/>
<text text-anchor="middle" x="72" y="-154.3" font-family="Times,serif" font-size="14.00">div(sk₁,sk₂) ∈ ℕ</text>
</a>
</g>
</g>
<!-- c_0_107&#45;&gt;c_0_140 -->
<g id="edge3" class="edge">
<title>c_0_107&#45;&gt;c_0_140</title>
<path fill="none" stroke="black" d="M105.75,-150.33C105.75,-150.33 105.75,-123.7 105.75,-123.7"/>
<polygon fill="black" stroke="black" points="109.25,-123.7 105.75,-113.7 102.25,-123.7 109.25,-123.7"/>
</g>
<!-- c_0_150 -->
<g id="node5" class="node">
<title>c_0_150</title>
<g id="a_node5"><a xlink:href="c_0_150.html" xlink:title="{C₁ = Ø|⇊|C₁ = div(div(sk₁,sk₂),Ø)}" target="_parent">
<polygon fill="#fa6900" stroke="#7f7542" points="139,-16.5 139,-61.5 303,-61.5 303,-16.5 139,-16.5"/>
<text text-anchor="middle" x="221" y="-50.3" font-family="Times,serif" font-size="14.00">C₁ = Ø</text>
<polyline fill="none" stroke="#7f7542" points="139,-46.5 303,-46.5 "/>
<text text-anchor="middle" x="221" y="-35.3" font-family="Times,serif" font-size="14.00">⇊</text>
<polyline fill="none" stroke="#7f7542" points="139,-31.5 303,-31.5 "/>
<text text-anchor="middle" x="221" y="-20.3" font-family="Times,serif" font-size="14.00">C₁ = div(div(sk₁,sk₂),Ø)</text>
</a>
</g>
</g>
<!-- c_0_140&#45;&gt;c_0_150 -->
<g id="edge4" class="edge">
<title>c_0_140&#45;&gt;c_0_150</title>
<path fill="none" stroke="black" stroke-dasharray="5,2" d="M221,-98.31C221,-98.31 221,-71.76 221,-71.76"/>
<polygon fill="black" stroke="black" points="224.5,-71.76 221,-61.76 217.5,-71.76 224.5,-71.76"/>
</g>
</g>
</svg>
