<?xml version="1.0" encoding="UTF-8" standalone="no"?>
<!DOCTYPE svg PUBLIC "-//W3C//DTD SVG 1.1//EN"
 "http://www.w3.org/Graphics/SVG/1.1/DTD/svg11.dtd">
<!-- Generated by graphviz version 5.0.0 (0)
 -->
<!-- Title: proof Pages: 1 -->
<svg width="154pt" height="160pt"
 viewBox="0.00 0.00 154.00 160.00" xmlns="http://www.w3.org/2000/svg" xmlns:xlink="http://www.w3.org/1999/xlink">
<g id="graph0" class="graph" transform="scale(1 1) rotate(0) translate(4 156)">
<title>proof</title>
<g id="clust1" class="cluster">
<title>cluster_0</title>
<polygon fill="transparent" stroke="black" stroke-dasharray="1,5" points="11,-112 11,-144 135,-144 135,-112 11,-112"/>
</g>
<g id="clust2" class="cluster">
<title>cluster_1</title>
<polygon fill="transparent" stroke="black" stroke-width="2" points="44,-60 44,-92 102,-92 102,-60 44,-60"/>
</g>
<g id="clust3" class="cluster">
<title>cluster_2</title>
<polygon fill="transparent" stroke="black" stroke-dasharray="1,5" points="8,-8 8,-40 138,-40 138,-8 8,-8"/>
</g>
<!-- spc1_numerals -->
<g id="node1" class="node">
<title>spc1_numerals</title>
<g id="a_node1"><a xlink:href="spc1_numerals.html" xlink:title="spc1_numerals" target="_parent">
<polygon fill="#69d2e7" stroke="#7f7542" points="19.5,-120.5 19.5,-135.5 126.5,-135.5 126.5,-120.5 19.5,-120.5"/>
<text text-anchor="middle" x="73" y="-124.3" font-family="Times,serif" font-size="14.00">spc1_numerals</text>
</a>
</g>
</g>
<!-- c_0_49 -->
<g id="node2" class="node">
<title>c_0_49</title>
<g id="a_node2"><a xlink:href="c_0_49.html" xlink:title="{1 ∈ ℕ}" target="_parent">
<polygon fill="#f8edd1" stroke="#7f7542" points="52,-68.5 52,-83.5 94,-83.5 94,-68.5 52,-68.5"/>
<text text-anchor="middle" x="73" y="-72.3" font-family="Times,serif" font-size="14.00">1 ∈ ℕ</text>
</a>
</g>
</g>
<!-- spc1_numerals&#45;&gt;c_0_49 -->
<g id="edge1" class="edge">
<title>spc1_numerals&#45;&gt;c_0_49</title>
<path fill="none" stroke="black" d="M73,-120.33C73,-120.33 73,-93.7 73,-93.7"/>
<polygon fill="black" stroke="black" points="76.5,-93.7 73,-83.7 69.5,-93.7 76.5,-93.7"/>
</g>
<!-- c_0_85 -->
<g id="node3" class="node">
<title>c_0_85</title>
<g id="a_node3"><a xlink:href="c_0_85.html" xlink:title="{C₁ + 1 = C₁ + 1}" target="_parent">
<polygon fill="#f8edd1" stroke="#7f7542" points="16.5,-16.5 16.5,-31.5 129.5,-31.5 129.5,-16.5 16.5,-16.5"/>
<text text-anchor="middle" x="73" y="-20.3" font-family="Times,serif" font-size="14.00">C₁ + 1 = C₁ + 1</text>
</a>
</g>
</g>
<!-- c_0_49&#45;&gt;c_0_85 -->
<g id="edge2" class="edge">
<title>c_0_49&#45;&gt;c_0_85</title>
<path fill="none" stroke="black" stroke-dasharray="5,2" d="M73,-68.33C73,-68.33 73,-41.7 73,-41.7"/>
<polygon fill="black" stroke="black" points="76.5,-41.7 73,-31.7 69.5,-41.7 76.5,-41.7"/>
</g>
</g>
</svg>
