<?xml version="1.0" encoding="UTF-8" standalone="no"?>
<!DOCTYPE svg PUBLIC "-//W3C//DTD SVG 1.1//EN"
 "http://www.w3.org/Graphics/SVG/1.1/DTD/svg11.dtd">
<!-- Generated by graphviz version 5.0.0 (0)
 -->
<!-- Title: proof Pages: 1 -->
<svg width="494pt" height="160pt"
 viewBox="0.00 0.00 494.00 160.00" xmlns="http://www.w3.org/2000/svg" xmlns:xlink="http://www.w3.org/1999/xlink">
<g id="graph0" class="graph" transform="scale(1 1) rotate(0) translate(4 156)">
<title>proof</title>
<g id="clust1" class="cluster">
<title>cluster_0</title>
<polygon fill="transparent" stroke="black" stroke-dasharray="1,5" points="21,-112 21,-144 263,-144 263,-112 21,-112"/>
</g>
<g id="clust2" class="cluster">
<title>cluster_1</title>
<polygon fill="transparent" stroke="black" stroke-width="2" points="50,-60 50,-92 218,-92 218,-60 50,-60"/>
</g>
<g id="clust3" class="cluster">
<title>cluster_2</title>
<polygon fill="transparent" stroke="black" stroke-dasharray="1,5" points="8,-8 8,-40 478,-40 478,-8 8,-8"/>
</g>
<!-- c_0_28 -->
<g id="node1" class="node">
<title>c_0_28</title>
<g id="a_node1"><a xlink:href="c_0_28.html" xlink:title="{div(N₁,N₂) = div(N₁,N₂)}" target="_vizar">
<polygon fill="#f8edd1" stroke="#7f7542" points="91,-120.5 91,-135.5 255,-135.5 255,-120.5 91,-120.5"/>
<text text-anchor="middle" x="173" y="-124.3" font-family="Times,serif" font-size="14.00">div(N₁,N₂) = div(N₁,N₂)</text>
</a>
</g>
</g>
<!-- c_0_98 -->
<g id="node3" class="node">
<title>c_0_98</title>
<g id="a_node3"><a xlink:href="c_0_98.html" xlink:title="{div(N₁,Ø) = div(N₁,Ø)}" target="_vizar">
<polygon fill="#f8edd1" stroke="#7f7542" points="58,-68.5 58,-83.5 210,-83.5 210,-68.5 58,-68.5"/>
<text text-anchor="middle" x="134" y="-72.3" font-family="Times,serif" font-size="14.00">div(N₁,Ø) = div(N₁,Ø)</text>
</a>
</g>
</g>
<!-- c_0_28&#45;&gt;c_0_98 -->
<g id="edge1" class="edge">
<title>c_0_28&#45;&gt;c_0_98</title>
<path fill="none" stroke="black" d="M150.5,-120.33C150.5,-120.33 150.5,-93.7 150.5,-93.7"/>
<polygon fill="black" stroke="black" points="154,-93.7 150.5,-83.7 147,-93.7 154,-93.7"/>
</g>
<!-- c_0_82 -->
<g id="node2" class="node">
<title>c_0_82</title>
<g id="a_node2"><a xlink:href="c_0_82.html" xlink:title="{Ø ∈ ℕ}" target="_vizar">
<polygon fill="#f8edd1" stroke="#7f7542" points="29,-120.5 29,-135.5 73,-135.5 73,-120.5 29,-120.5"/>
<text text-anchor="middle" x="51" y="-124.3" font-family="Times,serif" font-size="14.00">Ø ∈ ℕ</text>
</a>
</g>
</g>
<!-- c_0_82&#45;&gt;c_0_98 -->
<g id="edge2" class="edge">
<title>c_0_82&#45;&gt;c_0_98</title>
<path fill="none" stroke="black" d="M65.5,-120.33C65.5,-120.33 65.5,-93.7 65.5,-93.7"/>
<polygon fill="black" stroke="black" points="69,-93.7 65.5,-83.7 62,-93.7 69,-93.7"/>
</g>
<!-- c_0_140 -->
<g id="node4" class="node">
<title>c_0_140</title>
<g id="a_node4"><a xlink:href="c_0_140.html" xlink:title="{div(div(sk₁,sk₂),Ø) = div(div(sk₁,sk₂),Ø)}" target="_vizar">
<polygon fill="#fa6900" stroke="#7f7542" points="194.5,-16.5 194.5,-31.5 469.5,-31.5 469.5,-16.5 194.5,-16.5"/>
<text text-anchor="middle" x="332" y="-20.3" font-family="Times,serif" font-size="14.00">div(div(sk₁,sk₂),Ø) = div(div(sk₁,sk₂),Ø)</text>
</a>
</g>
</g>
<!-- c_0_98&#45;&gt;c_0_140 -->
<g id="edge3" class="edge">
<title>c_0_98&#45;&gt;c_0_140</title>
<path fill="none" stroke="black" stroke-dasharray="5,2" d="M202.25,-68.33C202.25,-68.33 202.25,-41.7 202.25,-41.7"/>
<polygon fill="black" stroke="black" points="205.75,-41.7 202.25,-31.7 198.75,-41.7 205.75,-41.7"/>
</g>
<!-- c_0_117 -->
<g id="node5" class="node">
<title>c_0_117</title>
<g id="a_node5"><a xlink:href="c_0_117.html" xlink:title="{div(sk₁,Ø) = div(sk₁,Ø)}" target="_vizar">
<polygon fill="#fa6900" stroke="#7f7542" points="16,-16.5 16,-31.5 176,-31.5 176,-16.5 16,-16.5"/>
<text text-anchor="middle" x="96" y="-20.3" font-family="Times,serif" font-size="14.00">div(sk₁,Ø) = div(sk₁,Ø)</text>
</a>
</g>
</g>
<!-- c_0_98&#45;&gt;c_0_117 -->
<g id="edge4" class="edge">
<title>c_0_98&#45;&gt;c_0_117</title>
<path fill="none" stroke="black" stroke-dasharray="5,2" d="M117,-68.33C117,-68.33 117,-41.7 117,-41.7"/>
<polygon fill="black" stroke="black" points="120.5,-41.7 117,-31.7 113.5,-41.7 120.5,-41.7"/>
</g>
</g>
</svg>
