<?xml version="1.0" encoding="UTF-8" standalone="no"?>
<!DOCTYPE svg PUBLIC "-//W3C//DTD SVG 1.1//EN"
 "http://www.w3.org/Graphics/SVG/1.1/DTD/svg11.dtd">
<!-- Generated by graphviz version 5.0.0 (0)
 -->
<!-- Title: proof Pages: 1 -->
<svg width="377pt" height="160pt"
 viewBox="0.00 0.00 377.00 160.00" xmlns="http://www.w3.org/2000/svg" xmlns:xlink="http://www.w3.org/1999/xlink">
<g id="graph0" class="graph" transform="scale(1 1) rotate(0) translate(4 156)">
<title>proof</title>
<g id="clust1" class="cluster">
<title>cluster_0</title>
<polygon fill="transparent" stroke="black" stroke-dasharray="1,5" points="95,-112 95,-144 265,-144 265,-112 95,-112"/>
</g>
<g id="clust2" class="cluster">
<title>cluster_1</title>
<polygon fill="transparent" stroke="black" stroke-width="2" points="93,-60 93,-92 267,-92 267,-60 93,-60"/>
</g>
<g id="clust3" class="cluster">
<title>cluster_2</title>
<polygon fill="transparent" stroke="black" stroke-dasharray="1,5" points="8,-8 8,-40 361,-40 361,-8 8,-8"/>
</g>
<!-- redefinition_k1_nat_d -->
<g id="node1" class="node">
<title>redefinition_k1_nat_d</title>
<g id="a_node1"><a xlink:href="redefinition_k1_nat_d.html" xlink:title="redefinition_k1_nat_d" target="_parent">
<polygon fill="#69d2e7" stroke="#7f7542" points="103.5,-120.5 103.5,-135.5 256.5,-135.5 256.5,-120.5 103.5,-120.5"/>
<text text-anchor="middle" x="180" y="-124.3" font-family="Times,serif" font-size="14.00">redefinition_k1_nat_d</text>
</a>
</g>
</g>
<!-- c_0_28 -->
<g id="node2" class="node">
<title>c_0_28</title>
<g id="a_node2"><a xlink:href="c_0_28.html" xlink:title="{div(C₁,C₂) = div(C₁,C₂)}" target="_parent">
<polygon fill="#f8edd1" stroke="#7f7542" points="101,-68.5 101,-83.5 259,-83.5 259,-68.5 101,-68.5"/>
<text text-anchor="middle" x="180" y="-72.3" font-family="Times,serif" font-size="14.00">div(C₁,C₂) = div(C₁,C₂)</text>
</a>
</g>
</g>
<!-- redefinition_k1_nat_d&#45;&gt;c_0_28 -->
<g id="edge1" class="edge">
<title>redefinition_k1_nat_d&#45;&gt;c_0_28</title>
<path fill="none" stroke="black" d="M180,-120.33C180,-120.33 180,-93.7 180,-93.7"/>
<polygon fill="black" stroke="black" points="183.5,-93.7 180,-83.7 176.5,-93.7 183.5,-93.7"/>
</g>
<!-- c_0_58 -->
<g id="node3" class="node">
<title>c_0_58</title>
<g id="a_node3"><a xlink:href="c_0_58.html" xlink:title="{div(C₁,sk₂) = div(C₁,sk₂)}" target="_parent">
<polygon fill="#fa6900" stroke="#7f7542" points="183.5,-16.5 183.5,-31.5 352.5,-31.5 352.5,-16.5 183.5,-16.5"/>
<text text-anchor="middle" x="268" y="-20.3" font-family="Times,serif" font-size="14.00">div(C₁,sk₂) = div(C₁,sk₂)</text>
</a>
</g>
</g>
<!-- c_0_28&#45;&gt;c_0_58 -->
<g id="edge2" class="edge">
<title>c_0_28&#45;&gt;c_0_58</title>
<path fill="none" stroke="black" stroke-dasharray="5,2" d="M221.25,-68.33C221.25,-68.33 221.25,-41.7 221.25,-41.7"/>
<polygon fill="black" stroke="black" points="224.75,-41.7 221.25,-31.7 217.75,-41.7 224.75,-41.7"/>
</g>
<!-- c_0_98 -->
<g id="node4" class="node">
<title>c_0_98</title>
<g id="a_node4"><a xlink:href="c_0_98.html" xlink:title="{div(C₁,Ø) = div(C₁,Ø)}" target="_parent">
<polygon fill="#f8edd1" stroke="#7f7542" points="16.5,-16.5 16.5,-31.5 165.5,-31.5 165.5,-16.5 16.5,-16.5"/>
<text text-anchor="middle" x="91" y="-20.3" font-family="Times,serif" font-size="14.00">div(C₁,Ø) = div(C₁,Ø)</text>
</a>
</g>
</g>
<!-- c_0_28&#45;&gt;c_0_98 -->
<g id="edge3" class="edge">
<title>c_0_28&#45;&gt;c_0_98</title>
<path fill="none" stroke="black" stroke-dasharray="5,2" d="M133.25,-68.33C133.25,-68.33 133.25,-41.7 133.25,-41.7"/>
<polygon fill="black" stroke="black" points="136.75,-41.7 133.25,-31.7 129.75,-41.7 136.75,-41.7"/>
</g>
</g>
</svg>
