<?xml version="1.0" encoding="UTF-8" standalone="no"?>
<!DOCTYPE svg PUBLIC "-//W3C//DTD SVG 1.1//EN"
 "http://www.w3.org/Graphics/SVG/1.1/DTD/svg11.dtd">
<!-- Generated by graphviz version 5.0.0 (0)
 -->
<!-- Title: proof Pages: 1 -->
<svg width="136pt" height="160pt"
 viewBox="0.00 0.00 136.00 160.00" xmlns="http://www.w3.org/2000/svg" xmlns:xlink="http://www.w3.org/1999/xlink">
<g id="graph0" class="graph" transform="scale(1 1) rotate(0) translate(4 156)">
<title>proof</title>
<g id="clust1" class="cluster">
<title>cluster_0</title>
<polygon fill="transparent" stroke="black" stroke-dasharray="1,5" points="15,-112 15,-144 113,-144 113,-112 15,-112"/>
</g>
<g id="clust2" class="cluster">
<title>cluster_1</title>
<polygon fill="transparent" stroke="black" stroke-width="2" points="30,-60 30,-92 98,-92 98,-60 30,-60"/>
</g>
<g id="clust3" class="cluster">
<title>cluster_2</title>
<polygon fill="transparent" stroke="black" stroke-dasharray="1,5" points="8,-8 8,-40 120,-40 120,-8 8,-8"/>
</g>
<!-- rc4_xreal_0 -->
<g id="node1" class="node">
<title>rc4_xreal_0</title>
<g id="a_node1"><a xlink:href="rc4_xreal_0.html" xlink:title="rc4_xreal_0" target="_parent">
<polygon fill="#69d2e7" stroke="#7f7542" points="23,-120.5 23,-135.5 105,-135.5 105,-120.5 23,-120.5"/>
<text text-anchor="middle" x="64" y="-124.3" font-family="Times,serif" font-size="14.00">rc4_xreal_0</text>
</a>
</g>
</g>
<!-- c_0_111 -->
<g id="node2" class="node">
<title>c_0_111</title>
<g id="a_node2"><a xlink:href="c_0_111.html" xlink:title="{sk₅ ∈ ℂ}" target="_parent">
<polygon fill="#f8edd1" stroke="#7f7542" points="38,-68.5 38,-83.5 90,-83.5 90,-68.5 38,-68.5"/>
<text text-anchor="middle" x="64" y="-72.3" font-family="Times,serif" font-size="14.00">sk₅ ∈ ℂ</text>
</a>
</g>
</g>
<!-- rc4_xreal_0&#45;&gt;c_0_111 -->
<g id="edge1" class="edge">
<title>rc4_xreal_0&#45;&gt;c_0_111</title>
<path fill="none" stroke="black" d="M64,-120.33C64,-120.33 64,-93.7 64,-93.7"/>
<polygon fill="black" stroke="black" points="67.5,-93.7 64,-83.7 60.5,-93.7 67.5,-93.7"/>
</g>
<!-- c_0_137 -->
<g id="node3" class="node">
<title>c_0_137</title>
<g id="a_node3"><a xlink:href="c_0_137.html" xlink:title="{sk₅ + Ø = sk₅}" target="_parent">
<polygon fill="#f8edd1" stroke="#7f7542" points="16,-16.5 16,-31.5 112,-31.5 112,-16.5 16,-16.5"/>
<text text-anchor="middle" x="64" y="-20.3" font-family="Times,serif" font-size="14.00">sk₅ + Ø = sk₅</text>
</a>
</g>
</g>
<!-- c_0_111&#45;&gt;c_0_137 -->
<g id="edge2" class="edge">
<title>c_0_111&#45;&gt;c_0_137</title>
<path fill="none" stroke="black" stroke-dasharray="5,2" d="M64,-68.33C64,-68.33 64,-41.7 64,-41.7"/>
<polygon fill="black" stroke="black" points="67.5,-41.7 64,-31.7 60.5,-41.7 67.5,-41.7"/>
</g>
</g>
</svg>
