<?xml version="1.0" encoding="UTF-8" standalone="no"?>
<!DOCTYPE svg PUBLIC "-//W3C//DTD SVG 1.1//EN"
 "http://www.w3.org/Graphics/SVG/1.1/DTD/svg11.dtd">
<!-- Generated by graphviz version 5.0.0 (0)
 -->
<!-- Title: proof Pages: 1 -->
<svg width="394pt" height="235pt"
 viewBox="0.00 0.00 394.00 235.00" xmlns="http://www.w3.org/2000/svg" xmlns:xlink="http://www.w3.org/1999/xlink">
<g id="graph0" class="graph" transform="scale(1 1) rotate(0) translate(4 231)">
<title>proof</title>
<g id="clust1" class="cluster">
<title>cluster_0</title>
<polygon fill="transparent" stroke="black" stroke-dasharray="1,5" points="8,-142 8,-219 378,-219 378,-142 8,-142"/>
</g>
<g id="clust2" class="cluster">
<title>cluster_1</title>
<polygon fill="transparent" stroke="black" stroke-width="2" points="189,-60 189,-122 313,-122 313,-60 189,-60"/>
</g>
<g id="clust3" class="cluster">
<title>cluster_2</title>
<polygon fill="transparent" stroke="black" stroke-dasharray="1,5" points="192,-8 192,-40 310,-40 310,-8 192,-8"/>
</g>
<!-- c_0_82 -->
<g id="node1" class="node">
<title>c_0_82</title>
<g id="a_node1"><a xlink:href="c_0_82.html" xlink:title="{Ø ∈ ℕ}" target="_vizar">
<polygon fill="#f8edd1" stroke="#7f7542" points="326,-173 326,-188 370,-188 370,-173 326,-173"/>
<text text-anchor="middle" x="348" y="-176.8" font-family="Times,serif" font-size="14.00">Ø ∈ ℕ</text>
</a>
</g>
</g>
<!-- c_0_131 -->
<g id="node4" class="node">
<title>c_0_131</title>
<g id="a_node4"><a xlink:href="c_0_131.html" xlink:title="{N₁ = Ø|⇊|N₁ = div(sk₁,Ø)}" target="_vizar">
<polygon fill="#fa6900" stroke="#7f7542" points="197,-68.5 197,-113.5 305,-113.5 305,-68.5 197,-68.5"/>
<text text-anchor="middle" x="251" y="-102.3" font-family="Times,serif" font-size="14.00">N₁ = Ø</text>
<polyline fill="none" stroke="#7f7542" points="197,-98.5 305,-98.5 "/>
<text text-anchor="middle" x="251" y="-87.3" font-family="Times,serif" font-size="14.00">⇊</text>
<polyline fill="none" stroke="#7f7542" points="197,-83.5 305,-83.5 "/>
<text text-anchor="middle" x="251" y="-72.3" font-family="Times,serif" font-size="14.00">N₁ = div(sk₁,Ø)</text>
</a>
</g>
</g>
<!-- c_0_82&#45;&gt;c_0_131 -->
<g id="edge1" class="edge">
<title>c_0_82&#45;&gt;c_0_131</title>
<path fill="none" stroke="black" d="M348,-172.87C348,-151.23 348,-91 348,-91 348,-91 315.17,-91 315.17,-91"/>
<polygon fill="black" stroke="black" points="315.17,-87.5 305.17,-91 315.17,-94.5 315.17,-87.5"/>
</g>
<!-- c_0_115 -->
<g id="node2" class="node">
<title>c_0_115</title>
<g id="a_node2"><a xlink:href="c_0_115.html" xlink:title="{N₁ = Ø|N₂ = Ø|⇊|N₁ = div(sk₁,N₂)}" target="_vizar">
<polygon fill="#fa6900" stroke="#7f7542" points="194,-150.5 194,-210.5 308,-210.5 308,-150.5 194,-150.5"/>
<text text-anchor="middle" x="251" y="-199.3" font-family="Times,serif" font-size="14.00">N₁ = Ø</text>
<polyline fill="none" stroke="#7f7542" points="194,-195.5 308,-195.5 "/>
<text text-anchor="middle" x="251" y="-184.3" font-family="Times,serif" font-size="14.00">N₂ = Ø</text>
<polyline fill="none" stroke="#7f7542" points="194,-180.5 308,-180.5 "/>
<text text-anchor="middle" x="251" y="-169.3" font-family="Times,serif" font-size="14.00">⇊</text>
<polyline fill="none" stroke="#7f7542" points="194,-165.5 308,-165.5 "/>
<text text-anchor="middle" x="251" y="-154.3" font-family="Times,serif" font-size="14.00">N₁ = div(sk₁,N₂)</text>
</a>
</g>
</g>
<!-- c_0_115&#45;&gt;c_0_131 -->
<g id="edge2" class="edge">
<title>c_0_115&#45;&gt;c_0_131</title>
<path fill="none" stroke="black" d="M251,-150.2C251,-150.2 251,-123.63 251,-123.63"/>
<polygon fill="black" stroke="black" points="254.5,-123.63 251,-113.63 247.5,-123.63 254.5,-123.63"/>
</g>
<!-- c_0_117 -->
<g id="node3" class="node">
<title>c_0_117</title>
<g id="a_node3"><a xlink:href="c_0_117.html" xlink:title="{div(sk₁,Ø) = div(sk₁,Ø)}" target="_vizar">
<polygon fill="#fa6900" stroke="#7f7542" points="16,-173 16,-188 176,-188 176,-173 16,-173"/>
<text text-anchor="middle" x="96" y="-176.8" font-family="Times,serif" font-size="14.00">div(sk₁,Ø) = div(sk₁,Ø)</text>
</a>
</g>
</g>
<!-- c_0_117&#45;&gt;c_0_131 -->
<g id="edge3" class="edge">
<title>c_0_117&#45;&gt;c_0_131</title>
<path fill="none" stroke="black" d="M96,-172.87C96,-151.23 96,-91 96,-91 96,-91 186.79,-91 186.79,-91"/>
<polygon fill="black" stroke="black" points="186.79,-94.5 196.79,-91 186.79,-87.5 186.79,-94.5"/>
</g>
<!-- c_0_149 -->
<g id="node5" class="node">
<title>c_0_149</title>
<g id="a_node5"><a xlink:href="c_0_149.html" xlink:title="{div(sk₁,Ø) = Ø}" target="_vizar">
<polygon fill="#fa6900" stroke="#7f7542" points="200,-16.5 200,-31.5 302,-31.5 302,-16.5 200,-16.5"/>
<text text-anchor="middle" x="251" y="-20.3" font-family="Times,serif" font-size="14.00">div(sk₁,Ø) = Ø</text>
</a>
</g>
</g>
<!-- c_0_131&#45;&gt;c_0_149 -->
<g id="edge4" class="edge">
<title>c_0_131&#45;&gt;c_0_149</title>
<path fill="none" stroke="black" stroke-dasharray="5,2" d="M251,-68.32C251,-68.32 251,-41.59 251,-41.59"/>
<polygon fill="black" stroke="black" points="254.5,-41.59 251,-31.59 247.5,-41.59 254.5,-41.59"/>
</g>
</g>
</svg>
