<?xml version="1.0" encoding="UTF-8" standalone="no"?>
<!DOCTYPE svg PUBLIC "-//W3C//DTD SVG 1.1//EN"
 "http://www.w3.org/Graphics/SVG/1.1/DTD/svg11.dtd">
<!-- Generated by graphviz version 5.0.0 (0)
 -->
<!-- Title: proof Pages: 1 -->
<svg width="162pt" height="220pt"
 viewBox="0.00 0.00 162.00 220.00" xmlns="http://www.w3.org/2000/svg" xmlns:xlink="http://www.w3.org/1999/xlink">
<g id="graph0" class="graph" transform="scale(1 1) rotate(0) translate(4 216)">
<title>proof</title>
<g id="clust1" class="cluster">
<title>cluster_0</title>
<polygon fill="transparent" stroke="black" stroke-dasharray="1,5" points="8,-157 8,-204 146,-204 146,-157 8,-157"/>
</g>
<g id="clust2" class="cluster">
<title>cluster_1</title>
<polygon fill="transparent" stroke="black" stroke-width="2" points="41,-90 41,-137 111,-137 111,-90 41,-90"/>
</g>
<g id="clust3" class="cluster">
<title>cluster_2</title>
<polygon fill="transparent" stroke="black" stroke-dasharray="1,5" points="41,-8 41,-70 111,-70 111,-8 41,-8"/>
</g>
<!-- c_0_44 -->
<g id="node1" class="node">
<title>c_0_44</title>
<g id="a_node1"><a xlink:href="c_0_44.html" xlink:title="{sk₃ ∈ ℕ}" target="_parent">
<polygon fill="#fa6900" stroke="#7f7542" points="84,-173 84,-188 138,-188 138,-173 84,-173"/>
<text text-anchor="middle" x="111" y="-176.8" font-family="Times,serif" font-size="14.00">sk₃ ∈ ℕ</text>
</a>
</g>
</g>
<!-- c_0_120 -->
<g id="node3" class="node">
<title>c_0_120</title>
<g id="a_node3"><a xlink:href="c_0_120.html" xlink:title="{1 ≤ sk₃|sk₃ = Ø}" target="_parent">
<polygon fill="#fa6900" stroke="#7f7542" points="49,-98.5 49,-128.5 103,-128.5 103,-98.5 49,-98.5"/>
<text text-anchor="middle" x="76" y="-117.3" font-family="Times,serif" font-size="14.00">1 ≤ sk₃</text>
<polyline fill="none" stroke="#7f7542" points="49,-113.5 103,-113.5 "/>
<text text-anchor="middle" x="76" y="-102.3" font-family="Times,serif" font-size="14.00">sk₃ = Ø</text>
</a>
</g>
</g>
<!-- c_0_44&#45;&gt;c_0_120 -->
<g id="edge1" class="edge">
<title>c_0_44&#45;&gt;c_0_120</title>
<path fill="none" stroke="black" d="M93.5,-172.81C93.5,-172.81 93.5,-138.67 93.5,-138.67"/>
<polygon fill="black" stroke="black" points="97,-138.67 93.5,-128.67 90,-138.67 97,-138.67"/>
</g>
<!-- c_0_103 -->
<g id="node2" class="node">
<title>c_0_103</title>
<g id="a_node2"><a xlink:href="c_0_103.html" xlink:title="{1 ≤ C₁|C₁ = Ø}" target="_parent">
<polygon fill="#f8edd1" stroke="#7f7542" points="16.5,-165.5 16.5,-195.5 65.5,-195.5 65.5,-165.5 16.5,-165.5"/>
<text text-anchor="middle" x="41" y="-184.3" font-family="Times,serif" font-size="14.00">1 ≤ C₁</text>
<polyline fill="none" stroke="#7f7542" points="16.5,-180.5 65.5,-180.5 "/>
<text text-anchor="middle" x="41" y="-169.3" font-family="Times,serif" font-size="14.00">C₁ = Ø</text>
</a>
</g>
</g>
<!-- c_0_103&#45;&gt;c_0_120 -->
<g id="edge2" class="edge">
<title>c_0_103&#45;&gt;c_0_120</title>
<path fill="none" stroke="black" d="M57.25,-165.3C57.25,-165.3 57.25,-138.64 57.25,-138.64"/>
<polygon fill="black" stroke="black" points="60.75,-138.64 57.25,-128.64 53.75,-138.64 60.75,-138.64"/>
</g>
<!-- c_0_135 -->
<g id="node4" class="node">
<title>c_0_135</title>
<g id="a_node4"><a xlink:href="c_0_135.html" xlink:title="{sk₃ ≤ Ø|⇊|sk₃ = Ø}" target="_parent">
<polygon fill="#fa6900" stroke="#7f7542" points="49,-16.5 49,-61.5 103,-61.5 103,-16.5 49,-16.5"/>
<text text-anchor="middle" x="76" y="-50.3" font-family="Times,serif" font-size="14.00">sk₃ ≤ Ø</text>
<polyline fill="none" stroke="#7f7542" points="49,-46.5 103,-46.5 "/>
<text text-anchor="middle" x="76" y="-35.3" font-family="Times,serif" font-size="14.00">⇊</text>
<polyline fill="none" stroke="#7f7542" points="49,-31.5 103,-31.5 "/>
<text text-anchor="middle" x="76" y="-20.3" font-family="Times,serif" font-size="14.00">sk₃ = Ø</text>
</a>
</g>
</g>
<!-- c_0_120&#45;&gt;c_0_135 -->
<g id="edge3" class="edge">
<title>c_0_120&#45;&gt;c_0_135</title>
<path fill="none" stroke="black" stroke-dasharray="5,2" d="M76,-98.42C76,-98.42 76,-71.69 76,-71.69"/>
<polygon fill="black" stroke="black" points="79.5,-71.69 76,-61.69 72.5,-71.69 79.5,-71.69"/>
</g>
</g>
</svg>
