<?xml version="1.0" encoding="UTF-8" standalone="no"?>
<!DOCTYPE svg PUBLIC "-//W3C//DTD SVG 1.1//EN"
 "http://www.w3.org/Graphics/SVG/1.1/DTD/svg11.dtd">
<!-- Generated by graphviz version 5.0.0 (0)
 -->
<!-- Title: proof Pages: 1 -->
<svg width="150pt" height="153pt"
 viewBox="0.00 0.00 150.00 153.00" xmlns="http://www.w3.org/2000/svg" xmlns:xlink="http://www.w3.org/1999/xlink">
<g id="graph0" class="graph" transform="scale(1 1) rotate(0) translate(4 149)">
<title>proof</title>
<g id="clust1" class="cluster">
<title>cluster_1</title>
<polygon fill="transparent" stroke="black" stroke-width="2" points="31,-105 31,-137 111,-137 111,-105 31,-105"/>
</g>
<g id="clust2" class="cluster">
<title>cluster_2</title>
<polygon fill="transparent" stroke="black" stroke-dasharray="1,5" points="8,-8 8,-85 134,-85 134,-8 8,-8"/>
</g>
<!-- d1_nat_d -->
<g id="node1" class="node">
<title>d1_nat_d</title>
<g id="a_node1"><a xlink:href="d1_nat_d.html" xlink:title="d1_nat_d" target="_vizar">
<polygon fill="#69d2e7" stroke="#7f7542" points="39,-113.5 39,-128.5 103,-128.5 103,-113.5 39,-113.5"/>
<text text-anchor="middle" x="71" y="-117.3" font-family="Times,serif" font-size="14.00">d1_nat_d</text>
</a>
</g>
</g>
<!-- c_0_63 -->
<g id="node2" class="node">
<title>c_0_63</title>
<g id="a_node2"><a xlink:href="c_0_63.html" xlink:title="{N₁ = 0|N₂ = 0|⇊|N₁ = div(N₃,N₂)}" target="_vizar">
<polygon fill="#f8edd1" stroke="#7f7542" points="16,-16.5 16,-76.5 126,-76.5 126,-16.5 16,-16.5"/>
<text text-anchor="middle" x="71" y="-65.3" font-family="Times,serif" font-size="14.00">N₁ = 0</text>
<polyline fill="none" stroke="#7f7542" points="16,-61.5 126,-61.5 "/>
<text text-anchor="middle" x="71" y="-50.3" font-family="Times,serif" font-size="14.00">N₂ = 0</text>
<polyline fill="none" stroke="#7f7542" points="16,-46.5 126,-46.5 "/>
<text text-anchor="middle" x="71" y="-35.3" font-family="Times,serif" font-size="14.00">⇊</text>
<polyline fill="none" stroke="#7f7542" points="16,-31.5 126,-31.5 "/>
<text text-anchor="middle" x="71" y="-20.3" font-family="Times,serif" font-size="14.00">N₁ = div(N₃,N₂)</text>
</a>
</g>
</g>
<!-- d1_nat_d&#45;&gt;c_0_63 -->
<g id="edge1" class="edge">
<title>d1_nat_d&#45;&gt;c_0_63</title>
<path fill="none" stroke="black" d="M71,-113.31C71,-113.31 71,-86.51 71,-86.51"/>
<polygon fill="black" stroke="black" points="74.5,-86.51 71,-76.51 67.5,-86.51 74.5,-86.51"/>
</g>
</g>
</svg>
