<?xml version="1.0" encoding="UTF-8" standalone="no"?>
<!DOCTYPE svg PUBLIC "-//W3C//DTD SVG 1.1//EN"
 "http://www.w3.org/Graphics/SVG/1.1/DTD/svg11.dtd">
<!-- Generated by graphviz version 5.0.0 (0)
 -->
<!-- Title: proof Pages: 1 -->
<svg width="278pt" height="183pt"
 viewBox="0.00 0.00 278.00 183.00" xmlns="http://www.w3.org/2000/svg" xmlns:xlink="http://www.w3.org/1999/xlink">
<g id="graph0" class="graph" transform="scale(1 1) rotate(0) translate(4 179)">
<title>proof</title>
<g id="clust1" class="cluster">
<title>cluster_1</title>
<polygon fill="transparent" stroke="black" stroke-width="2" points="95,-135 95,-167 175,-167 175,-135 95,-135"/>
</g>
<g id="clust2" class="cluster">
<title>cluster_2</title>
<polygon fill="transparent" stroke="black" stroke-dasharray="1,5" points="8,-8 8,-115 262,-115 262,-8 8,-8"/>
</g>
<!-- t5_pre_ff -->
<g id="node1" class="node">
<title>t5_pre_ff</title>
<g id="a_node1"><a xlink:href="t5_pre_ff.html" xlink:title="t5_pre_ff" target="_vizar">
<polygon fill="#69d2e7" stroke="#7f7542" points="103.5,-143.5 103.5,-158.5 166.5,-158.5 166.5,-143.5 103.5,-143.5"/>
<text text-anchor="middle" x="135" y="-147.3" font-family="Times,serif" font-size="14.00">t5_pre_ff</text>
</a>
</g>
</g>
<!-- c_0_54 -->
<g id="node2" class="node">
<title>c_0_54</title>
<g id="a_node2"><a xlink:href="c_0_54.html" xlink:title="{integer(X₁)|integer(X₂)|integer(X₃)|⇊|X₃ ≤ 0|div(div(X₁,X₂),X₃) = div(X₁,X₂ * X₃)}" target="_vizar">
<polygon fill="#f8edd1" stroke="#7f7542" points="16,-16.5 16,-106.5 254,-106.5 254,-16.5 16,-16.5"/>
<text text-anchor="middle" x="135" y="-95.3" font-family="Times,serif" font-size="14.00">integer(X₁)</text>
<polyline fill="none" stroke="#7f7542" points="16,-91.5 254,-91.5 "/>
<text text-anchor="middle" x="135" y="-80.3" font-family="Times,serif" font-size="14.00">integer(X₂)</text>
<polyline fill="none" stroke="#7f7542" points="16,-76.5 254,-76.5 "/>
<text text-anchor="middle" x="135" y="-65.3" font-family="Times,serif" font-size="14.00">integer(X₃)</text>
<polyline fill="none" stroke="#7f7542" points="16,-61.5 254,-61.5 "/>
<text text-anchor="middle" x="135" y="-50.3" font-family="Times,serif" font-size="14.00">⇊</text>
<polyline fill="none" stroke="#7f7542" points="16,-46.5 254,-46.5 "/>
<text text-anchor="middle" x="135" y="-35.3" font-family="Times,serif" font-size="14.00">X₃ ≤ 0</text>
<polyline fill="none" stroke="#7f7542" points="16,-31.5 254,-31.5 "/>
<text text-anchor="middle" x="135" y="-20.3" font-family="Times,serif" font-size="14.00">div(div(X₁,X₂),X₃) = div(X₁,X₂ * X₃)</text>
</a>
</g>
</g>
<!-- t5_pre_ff&#45;&gt;c_0_54 -->
<g id="edge1" class="edge">
<title>t5_pre_ff&#45;&gt;c_0_54</title>
<path fill="none" stroke="black" d="M135,-143.37C135,-143.37 135,-116.66 135,-116.66"/>
<polygon fill="black" stroke="black" points="138.5,-116.66 135,-106.66 131.5,-116.66 138.5,-116.66"/>
</g>
</g>
</svg>
