<?xml version="1.0" encoding="UTF-8" standalone="no"?>
<!DOCTYPE svg PUBLIC "-//W3C//DTD SVG 1.1//EN"
 "http://www.w3.org/Graphics/SVG/1.1/DTD/svg11.dtd">
<!-- Generated by graphviz version 5.0.0 (0)
 -->
<!-- Title: proof Pages: 1 -->
<svg width="660pt" height="310pt"
 viewBox="0.00 0.00 660.00 310.00" xmlns="http://www.w3.org/2000/svg" xmlns:xlink="http://www.w3.org/1999/xlink">
<g id="graph0" class="graph" transform="scale(1 1) rotate(0) translate(4 306)">
<title>proof</title>
<polygon fill="white" stroke="transparent" points="-4,4 -4,-306 656,-306 656,4 -4,4"/>
<g id="clust1" class="cluster">
<title>cluster_0</title>
<polygon fill="none" stroke="black" stroke-dasharray="1,5" points="260,-262 260,-294 366,-294 366,-262 260,-262"/>
</g>
<g id="clust2" class="cluster">
<title>cluster_1</title>
<polygon fill="none" stroke="black" stroke-width="2" points="231,-150 231,-242 395,-242 395,-150 231,-150"/>
</g>
<g id="clust3" class="cluster">
<title>cluster_2</title>
<polygon fill="none" stroke="black" stroke-dasharray="1,5" points="8,-8 8,-130 644,-130 644,-8 8,-8"/>
</g>
<!-- cc5_finseq_1 -->
<g id="node1" class="node">
<title>cc5_finseq_1</title>
<g id="a_node1"><a xlink:href="None" xlink:title="cc5_finseq_1" target="_blank">
<polygon fill="#69d2e7" stroke="#7f7542" points="268,-270.5 268,-285.5 358,-285.5 358,-270.5 268,-270.5"/>
<text text-anchor="middle" x="313" y="-274.3" font-family="Times,serif" font-size="14.00">cc5_finseq_1</text>
</a>
</g>
</g>
<!-- c_0_126 -->
<g id="node2" class="node">
<title>c_0_126</title>
<g id="a_node2"><a xlink:href="c_0_126.html" xlink:title="{FinSequence&#45;like(X₁)|Function&#45;like(X₁)|Relation&#45;like(X₁)|⇊|&#45;defined(X₁,ℕ)}" target="_parent">
<polygon fill="#f8edd1" stroke="#7f7542" points="239,-158.5 239,-233.5 387,-233.5 387,-158.5 239,-158.5"/>
<text text-anchor="middle" x="313" y="-222.3" font-family="Times,serif" font-size="14.00">FinSequence&#45;like(X₁)</text>
<polyline fill="none" stroke="#7f7542" points="239,-218.5 387,-218.5 "/>
<text text-anchor="middle" x="313" y="-207.3" font-family="Times,serif" font-size="14.00">Function&#45;like(X₁)</text>
<polyline fill="none" stroke="#7f7542" points="239,-203.5 387,-203.5 "/>
<text text-anchor="middle" x="313" y="-192.3" font-family="Times,serif" font-size="14.00">Relation&#45;like(X₁)</text>
<polyline fill="none" stroke="#7f7542" points="239,-188.5 387,-188.5 "/>
<text text-anchor="middle" x="313" y="-177.3" font-family="Times,serif" font-size="14.00">⇊</text>
<polyline fill="none" stroke="#7f7542" points="239,-173.5 387,-173.5 "/>
<text text-anchor="middle" x="313" y="-162.3" font-family="Times,serif" font-size="14.00">&#45;defined(X₁,ℕ)</text>
</a>
</g>
</g>
<!-- cc5_finseq_1&#45;&gt;c_0_126 -->
<g id="edge1" class="edge">
<title>cc5_finseq_1&#45;&gt;c_0_126</title>
<path fill="none" stroke="black" d="M313,-270.43C313,-270.43 313,-243.67 313,-243.67"/>
<polygon fill="black" stroke="black" points="316.5,-243.67 313,-233.67 309.5,-243.67 316.5,-243.67"/>
</g>
<!-- c_0_154 -->
<g id="node3" class="node">
<title>c_0_154</title>
<g id="a_node3"><a xlink:href="c_0_154.html" xlink:title="{FinSequence&#45;like(X₂)|Function&#45;like(X₂)|Relation&#45;like(X₂)|in(N₁,proj1(X₂))|⇊|1 ≤ N₁}" target="_parent">
<polygon fill="#f8edd1" stroke="#7f7542" points="488,-24 488,-114 636,-114 636,-24 488,-24"/>
<text text-anchor="middle" x="562" y="-102.8" font-family="Times,serif" font-size="14.00">FinSequence&#45;like(X₂)</text>
<polyline fill="none" stroke="#7f7542" points="488,-99 636,-99 "/>
<text text-anchor="middle" x="562" y="-87.8" font-family="Times,serif" font-size="14.00">Function&#45;like(X₂)</text>
<polyline fill="none" stroke="#7f7542" points="488,-84 636,-84 "/>
<text text-anchor="middle" x="562" y="-72.8" font-family="Times,serif" font-size="14.00">Relation&#45;like(X₂)</text>
<polyline fill="none" stroke="#7f7542" points="488,-69 636,-69 "/>
<text text-anchor="middle" x="562" y="-57.8" font-family="Times,serif" font-size="14.00">in(N₁,proj1(X₂))</text>
<polyline fill="none" stroke="#7f7542" points="488,-54 636,-54 "/>
<text text-anchor="middle" x="562" y="-42.8" font-family="Times,serif" font-size="14.00">⇊</text>
<polyline fill="none" stroke="#7f7542" points="488,-39 636,-39 "/>
<text text-anchor="middle" x="562" y="-27.8" font-family="Times,serif" font-size="14.00">1 ≤ N₁</text>
</a>
</g>
</g>
<!-- c_0_126&#45;&gt;c_0_154 -->
<g id="edge2" class="edge">
<title>c_0_126&#45;&gt;c_0_154</title>
<path fill="none" stroke="black" stroke-dasharray="5,2" d="M387.03,-196C460.43,-196 562,-196 562,-196 562,-196 562,-124.13 562,-124.13"/>
<polygon fill="black" stroke="black" points="565.5,-124.13 562,-114.13 558.5,-124.13 565.5,-124.13"/>
</g>
<!-- c_0_217 -->
<g id="node4" class="node">
<title>c_0_217</title>
<g id="a_node4"><a xlink:href="c_0_217.html" xlink:title="{1 ≤ N₁|FinSequence&#45;like(X₂)|Function&#45;like(X₂)|N₁ ≤ len(X₂)|Relation&#45;like(X₂)|⇊|in(N₁,proj1(X₂))}" target="_parent">
<polygon fill="#f8edd1" stroke="#7f7542" points="322,-16.5 322,-121.5 470,-121.5 470,-16.5 322,-16.5"/>
<text text-anchor="middle" x="396" y="-110.3" font-family="Times,serif" font-size="14.00">1 ≤ N₁</text>
<polyline fill="none" stroke="#7f7542" points="322,-106.5 470,-106.5 "/>
<text text-anchor="middle" x="396" y="-95.3" font-family="Times,serif" font-size="14.00">FinSequence&#45;like(X₂)</text>
<polyline fill="none" stroke="#7f7542" points="322,-91.5 470,-91.5 "/>
<text text-anchor="middle" x="396" y="-80.3" font-family="Times,serif" font-size="14.00">Function&#45;like(X₂)</text>
<polyline fill="none" stroke="#7f7542" points="322,-76.5 470,-76.5 "/>
<text text-anchor="middle" x="396" y="-65.3" font-family="Times,serif" font-size="14.00">N₁ ≤ len(X₂)</text>
<polyline fill="none" stroke="#7f7542" points="322,-61.5 470,-61.5 "/>
<text text-anchor="middle" x="396" y="-50.3" font-family="Times,serif" font-size="14.00">Relation&#45;like(X₂)</text>
<polyline fill="none" stroke="#7f7542" points="322,-46.5 470,-46.5 "/>
<text text-anchor="middle" x="396" y="-35.3" font-family="Times,serif" font-size="14.00">⇊</text>
<polyline fill="none" stroke="#7f7542" points="322,-31.5 470,-31.5 "/>
<text text-anchor="middle" x="396" y="-20.3" font-family="Times,serif" font-size="14.00">in(N₁,proj1(X₂))</text>
</a>
</g>
</g>
<!-- c_0_126&#45;&gt;c_0_217 -->
<g id="edge3" class="edge">
<title>c_0_126&#45;&gt;c_0_217</title>
<path fill="none" stroke="black" stroke-dasharray="5,2" d="M354.5,-158.24C354.5,-158.24 354.5,-131.89 354.5,-131.89"/>
<polygon fill="black" stroke="black" points="358,-131.89 354.5,-121.89 351,-131.89 358,-131.89"/>
</g>
<!-- c_0_151 -->
<g id="node5" class="node">
<title>c_0_151</title>
<g id="a_node5"><a xlink:href="c_0_151.html" xlink:title="{FinSequence&#45;like(X₂)|Function&#45;like(X₂)|Relation&#45;like(X₂)|in(N₁,proj1(X₂))|⇊|N₁ ≤ len(X₂)}" target="_parent">
<polygon fill="#f8edd1" stroke="#7f7542" points="156,-24 156,-114 304,-114 304,-24 156,-24"/>
<text text-anchor="middle" x="230" y="-102.8" font-family="Times,serif" font-size="14.00">FinSequence&#45;like(X₂)</text>
<polyline fill="none" stroke="#7f7542" points="156,-99 304,-99 "/>
<text text-anchor="middle" x="230" y="-87.8" font-family="Times,serif" font-size="14.00">Function&#45;like(X₂)</text>
<polyline fill="none" stroke="#7f7542" points="156,-84 304,-84 "/>
<text text-anchor="middle" x="230" y="-72.8" font-family="Times,serif" font-size="14.00">Relation&#45;like(X₂)</text>
<polyline fill="none" stroke="#7f7542" points="156,-69 304,-69 "/>
<text text-anchor="middle" x="230" y="-57.8" font-family="Times,serif" font-size="14.00">in(N₁,proj1(X₂))</text>
<polyline fill="none" stroke="#7f7542" points="156,-54 304,-54 "/>
<text text-anchor="middle" x="230" y="-42.8" font-family="Times,serif" font-size="14.00">⇊</text>
<polyline fill="none" stroke="#7f7542" points="156,-39 304,-39 "/>
<text text-anchor="middle" x="230" y="-27.8" font-family="Times,serif" font-size="14.00">N₁ ≤ len(X₂)</text>
</a>
</g>
</g>
<!-- c_0_126&#45;&gt;c_0_151 -->
<g id="edge4" class="edge">
<title>c_0_126&#45;&gt;c_0_151</title>
<path fill="none" stroke="black" stroke-dasharray="5,2" d="M271.5,-158.24C271.5,-158.24 271.5,-124.01 271.5,-124.01"/>
<polygon fill="black" stroke="black" points="275,-124.01 271.5,-114.01 268,-124.01 275,-124.01"/>
</g>
<!-- c_0_248 -->
<g id="node6" class="node">
<title>c_0_248</title>
<g id="a_node6"><a xlink:href="c_0_248.html" xlink:title="{len(skolem₁) ∈ ℕ}" target="_parent">
<polygon fill="#fa6900" stroke="#7f7542" points="16.5,-61.5 16.5,-76.5 137.5,-76.5 137.5,-61.5 16.5,-61.5"/>
<text text-anchor="middle" x="77" y="-65.3" font-family="Times,serif" font-size="14.00">len(skolem₁) ∈ ℕ</text>
</a>
</g>
</g>
<!-- c_0_126&#45;&gt;c_0_248 -->
<g id="edge5" class="edge">
<title>c_0_126&#45;&gt;c_0_248</title>
<path fill="none" stroke="black" stroke-dasharray="5,2" d="M238.98,-196C169.76,-196 77,-196 77,-196 77,-196 77,-86.56 77,-86.56"/>
<polygon fill="black" stroke="black" points="80.5,-86.56 77,-76.56 73.5,-86.56 80.5,-86.56"/>
</g>
</g>
</svg>
