<?xml version="1.0" encoding="UTF-8" standalone="no"?>
<!DOCTYPE svg PUBLIC "-//W3C//DTD SVG 1.1//EN"
 "http://www.w3.org/Graphics/SVG/1.1/DTD/svg11.dtd">
<!-- Generated by graphviz version 5.0.0 (0)
 -->
<!-- Title: proof Pages: 1 -->
<svg width="446pt" height="280pt"
 viewBox="0.00 0.00 446.00 280.00" xmlns="http://www.w3.org/2000/svg" xmlns:xlink="http://www.w3.org/1999/xlink">
<g id="graph0" class="graph" transform="scale(1 1) rotate(0) translate(4 276)">
<title>proof</title>
<polygon fill="white" stroke="transparent" points="-4,4 -4,-276 442,-276 442,4 -4,4"/>
<g id="clust1" class="cluster">
<title>cluster_0</title>
<polygon fill="none" stroke="black" stroke-dasharray="1,5" points="77,-187 77,-264 361,-264 361,-187 77,-187"/>
</g>
<g id="clust2" class="cluster">
<title>cluster_1</title>
<polygon fill="none" stroke="black" stroke-width="2" points="32,-105 32,-167 406,-167 406,-105 32,-105"/>
</g>
<g id="clust3" class="cluster">
<title>cluster_2</title>
<polygon fill="none" stroke="black" stroke-dasharray="1,5" points="8,-8 8,-85 430,-85 430,-8 8,-8"/>
</g>
<!-- c_0_98 -->
<g id="node1" class="node">
<title>c_0_98</title>
<g id="a_node1"><a xlink:href="c_0_98.html" xlink:title="{X₁ = n_e_s(skolem₁)|X₁ ∈ ℝ ∈ ℕ|⇊|(skolem₁ . X₁) = N&#45;max(2 L~ skolem₁)}" target="_parent">
<polygon fill="#fa6900" stroke="#7f7542" points="85,-195.5 85,-255.5 353,-255.5 353,-195.5 85,-195.5"/>
<text text-anchor="middle" x="219" y="-244.3" font-family="Times,serif" font-size="14.00">X₁ = n_e_s(skolem₁)</text>
<polyline fill="none" stroke="#7f7542" points="85,-240.5 353,-240.5 "/>
<text text-anchor="middle" x="219" y="-229.3" font-family="Times,serif" font-size="14.00">X₁ ∈ ℝ ∈ ℕ</text>
<polyline fill="none" stroke="#7f7542" points="85,-225.5 353,-225.5 "/>
<text text-anchor="middle" x="219" y="-214.3" font-family="Times,serif" font-size="14.00">⇊</text>
<polyline fill="none" stroke="#7f7542" points="85,-210.5 353,-210.5 "/>
<text text-anchor="middle" x="219" y="-199.3" font-family="Times,serif" font-size="14.00">(skolem₁ . X₁) = N&#45;max(2 L~ skolem₁)</text>
</a>
</g>
</g>
<!-- c_0_117 -->
<g id="node2" class="node">
<title>c_0_117</title>
<g id="a_node2"><a xlink:href="c_0_117.html" xlink:title="{n_e_s(skolem₁) ∈ ℝ ∈ ℕ|⇊|N&#45;max(2 L~ skolem₁) = (skolem₁ . n_e_s(skolem₁))}" target="_parent">
<polygon fill="#fa6900" stroke="#7f7542" points="40.5,-113.5 40.5,-158.5 397.5,-158.5 397.5,-113.5 40.5,-113.5"/>
<text text-anchor="middle" x="219" y="-147.3" font-family="Times,serif" font-size="14.00">n_e_s(skolem₁) ∈ ℝ ∈ ℕ</text>
<polyline fill="none" stroke="#7f7542" points="40.5,-143.5 397.5,-143.5 "/>
<text text-anchor="middle" x="219" y="-132.3" font-family="Times,serif" font-size="14.00">⇊</text>
<polyline fill="none" stroke="#7f7542" points="40.5,-128.5 397.5,-128.5 "/>
<text text-anchor="middle" x="219" y="-117.3" font-family="Times,serif" font-size="14.00">N&#45;max(2 L~ skolem₁) = (skolem₁ . n_e_s(skolem₁))</text>
</a>
</g>
</g>
<!-- c_0_98&#45;&gt;c_0_117 -->
<g id="edge1" class="edge">
<title>c_0_98&#45;&gt;c_0_117</title>
<path fill="none" stroke="black" d="M219,-195.2C219,-195.2 219,-168.63 219,-168.63"/>
<polygon fill="black" stroke="black" points="222.5,-168.63 219,-158.63 215.5,-168.63 222.5,-168.63"/>
</g>
<!-- c_0_143 -->
<g id="node3" class="node">
<title>c_0_143</title>
<g id="a_node3"><a xlink:href="c_0_143.html" xlink:title="{(2 L~ skolem₁) ∈ bool(carrier(TOP&#45;REAL(2)))|n_e_s(skolem₁) ∈ ℝ ∈ ℕ|⇊|( `2 (skolem₁ . n_e_s(skolem₁))) = N&#45;bound(2 L~ skolem₁)}" target="_parent">
<polygon fill="#fa6900" stroke="#7f7542" points="16,-16.5 16,-76.5 422,-76.5 422,-16.5 16,-16.5"/>
<text text-anchor="middle" x="219" y="-65.3" font-family="Times,serif" font-size="14.00">(2 L~ skolem₁) ∈ bool(carrier(TOP&#45;REAL(2)))</text>
<polyline fill="none" stroke="#7f7542" points="16,-61.5 422,-61.5 "/>
<text text-anchor="middle" x="219" y="-50.3" font-family="Times,serif" font-size="14.00">n_e_s(skolem₁) ∈ ℝ ∈ ℕ</text>
<polyline fill="none" stroke="#7f7542" points="16,-46.5 422,-46.5 "/>
<text text-anchor="middle" x="219" y="-35.3" font-family="Times,serif" font-size="14.00">⇊</text>
<polyline fill="none" stroke="#7f7542" points="16,-31.5 422,-31.5 "/>
<text text-anchor="middle" x="219" y="-20.3" font-family="Times,serif" font-size="14.00">( `2 (skolem₁ . n_e_s(skolem₁))) = N&#45;bound(2 L~ skolem₁)</text>
</a>
</g>
</g>
<!-- c_0_117&#45;&gt;c_0_143 -->
<g id="edge2" class="edge">
<title>c_0_117&#45;&gt;c_0_143</title>
<path fill="none" stroke="black" stroke-dasharray="5,2" d="M219,-113.42C219,-113.42 219,-86.52 219,-86.52"/>
<polygon fill="black" stroke="black" points="222.5,-86.52 219,-76.52 215.5,-86.52 222.5,-86.52"/>
</g>
</g>
</svg>
