<?xml version="1.0" encoding="UTF-8" standalone="no"?>
<!DOCTYPE svg PUBLIC "-//W3C//DTD SVG 1.1//EN"
 "http://www.w3.org/Graphics/SVG/1.1/DTD/svg11.dtd">
<!-- Generated by graphviz version 5.0.0 (0)
 -->
<!-- Title: proof Pages: 1 -->
<svg width="4287pt" height="280pt"
 viewBox="0.00 0.00 4287.00 280.00" xmlns="http://www.w3.org/2000/svg" xmlns:xlink="http://www.w3.org/1999/xlink">
<g id="graph0" class="graph" transform="scale(1 1) rotate(0) translate(4 276)">
<title>proof</title>
<polygon fill="white" stroke="transparent" points="-4,4 -4,-276 4283,-276 4283,4 -4,4"/>
<g id="clust1" class="cluster">
<title>cluster_0</title>
<polygon fill="none" stroke="black" stroke-dasharray="1,5" points="2011,-232 2011,-264 2123,-264 2123,-232 2011,-232"/>
</g>
<g id="clust2" class="cluster">
<title>cluster_1</title>
<polygon fill="none" stroke="black" stroke-width="2" points="2001,-180 2001,-212 2133,-212 2133,-180 2001,-180"/>
</g>
<g id="clust3" class="cluster">
<title>cluster_2</title>
<polygon fill="none" stroke="black" stroke-dasharray="1,5" points="8,-8 8,-160 4271,-160 4271,-8 8,-8"/>
</g>
<!-- t49_jordan5d -->
<g id="node1" class="node">
<title>t49_jordan5d</title>
<g id="a_node1"><a xlink:href="http://grid01.ciirc.cvut.cz/~mptp/7.13.01_4.181.1147/html/jordan5d.html#T49" xlink:title="t49_jordan5d" target="_blank">
<polygon fill="#fa6900" stroke="#7f7542" points="2019.5,-240.5 2019.5,-255.5 2114.5,-255.5 2114.5,-240.5 2019.5,-240.5"/>
<text text-anchor="middle" x="2067" y="-244.3" font-family="Times,serif" font-size="14.00">t49_jordan5d</text>
</a>
</g>
</g>
<!-- c_0_82 -->
<g id="node2" class="node">
<title>c_0_82</title>
<g id="a_node2"><a xlink:href="c_0_82.html" xlink:title="{special(skolem₁)}" target="_parent">
<polygon fill="#fa6900" stroke="#7f7542" points="2009,-188.5 2009,-203.5 2125,-203.5 2125,-188.5 2009,-188.5"/>
<text text-anchor="middle" x="2067" y="-192.3" font-family="Times,serif" font-size="14.00">special(skolem₁)</text>
</a>
</g>
</g>
<!-- t49_jordan5d&#45;&gt;c_0_82 -->
<g id="edge1" class="edge">
<title>t49_jordan5d&#45;&gt;c_0_82</title>
<path fill="none" stroke="black" d="M2067,-240.33C2067,-240.33 2067,-213.7 2067,-213.7"/>
<polygon fill="black" stroke="black" points="2070.5,-213.7 2067,-203.7 2063.5,-213.7 2070.5,-213.7"/>
</g>
<!-- c_0_215 -->
<g id="node3" class="node">
<title>c_0_215</title>
<g id="a_node3"><a xlink:href="c_0_215.html" xlink:title="{(2 L~ skolem₁) ∈ bool(carrier(TOP&#45;REAL(2)))|1 ≤ X₁|X₁ ∈ ℝ ∈ ℕ|X₁ ≤ len(skolem₁)|n_e_s(skolem₁) ∈ ℝ ∈ ℕ|⇊|( `2 (carrier(TOP&#45;REAL(2)) /. skolem₁ /. X₁)) = S&#45;bound(2 L~ skolem₁)}" target="_parent">
<polygon fill="#fa6900" stroke="#7f7542" points="3773,-31.5 3773,-136.5 4263,-136.5 4263,-31.5 3773,-31.5"/>
<text text-anchor="middle" x="4018" y="-125.3" font-family="Times,serif" font-size="14.00">(2 L~ skolem₁) ∈ bool(carrier(TOP&#45;REAL(2)))</text>
<polyline fill="none" stroke="#7f7542" points="3773,-121.5 4263,-121.5 "/>
<text text-anchor="middle" x="4018" y="-110.3" font-family="Times,serif" font-size="14.00">1 ≤ X₁</text>
<polyline fill="none" stroke="#7f7542" points="3773,-106.5 4263,-106.5 "/>
<text text-anchor="middle" x="4018" y="-95.3" font-family="Times,serif" font-size="14.00">X₁ ∈ ℝ ∈ ℕ</text>
<polyline fill="none" stroke="#7f7542" points="3773,-91.5 4263,-91.5 "/>
<text text-anchor="middle" x="4018" y="-80.3" font-family="Times,serif" font-size="14.00">X₁ ≤ len(skolem₁)</text>
<polyline fill="none" stroke="#7f7542" points="3773,-76.5 4263,-76.5 "/>
<text text-anchor="middle" x="4018" y="-65.3" font-family="Times,serif" font-size="14.00">n_e_s(skolem₁) ∈ ℝ ∈ ℕ</text>
<polyline fill="none" stroke="#7f7542" points="3773,-61.5 4263,-61.5 "/>
<text text-anchor="middle" x="4018" y="-50.3" font-family="Times,serif" font-size="14.00">⇊</text>
<polyline fill="none" stroke="#7f7542" points="3773,-46.5 4263,-46.5 "/>
<text text-anchor="middle" x="4018" y="-35.3" font-family="Times,serif" font-size="14.00">( `2 (carrier(TOP&#45;REAL(2)) /. skolem₁ /. X₁)) = S&#45;bound(2 L~ skolem₁)</text>
</a>
</g>
</g>
<!-- c_0_82&#45;&gt;c_0_215 -->
<g id="edge2" class="edge">
<title>c_0_82&#45;&gt;c_0_215</title>
<path fill="none" stroke="black" stroke-dasharray="5,2" d="M2125.12,-201C2449.16,-201 4018,-201 4018,-201 4018,-201 4018,-146.68 4018,-146.68"/>
<polygon fill="black" stroke="black" points="4021.5,-146.68 4018,-136.68 4014.5,-146.68 4021.5,-146.68"/>
</g>
<!-- c_0_263 -->
<g id="node4" class="node">
<title>c_0_263</title>
<g id="a_node4"><a xlink:href="c_0_263.html" xlink:title="{(2 L~ skolem₁) ∈ bool(carrier(TOP&#45;REAL(2)))|FinSequence(skolem₁,carrier(TOP&#45;REAL(2)))|ext&#45;real&#45;membered(ℕ)|⇊|⊥}" target="_parent">
<polygon fill="#fa6900" stroke="#7f7542" points="3437,-46.5 3437,-121.5 3755,-121.5 3755,-46.5 3437,-46.5"/>
<text text-anchor="middle" x="3596" y="-110.3" font-family="Times,serif" font-size="14.00">(2 L~ skolem₁) ∈ bool(carrier(TOP&#45;REAL(2)))</text>
<polyline fill="none" stroke="#7f7542" points="3437,-106.5 3755,-106.5 "/>
<text text-anchor="middle" x="3596" y="-95.3" font-family="Times,serif" font-size="14.00">FinSequence(skolem₁,carrier(TOP&#45;REAL(2)))</text>
<polyline fill="none" stroke="#7f7542" points="3437,-91.5 3755,-91.5 "/>
<text text-anchor="middle" x="3596" y="-80.3" font-family="Times,serif" font-size="14.00">ext&#45;real&#45;membered(ℕ)</text>
<polyline fill="none" stroke="#7f7542" points="3437,-76.5 3755,-76.5 "/>
<text text-anchor="middle" x="3596" y="-65.3" font-family="Times,serif" font-size="14.00">⇊</text>
<polyline fill="none" stroke="#7f7542" points="3437,-61.5 3755,-61.5 "/>
<text text-anchor="middle" x="3596" y="-50.3" font-family="Times,serif" font-size="14.00">⊥</text>
</a>
</g>
</g>
<!-- c_0_82&#45;&gt;c_0_263 -->
<g id="edge3" class="edge">
<title>c_0_82&#45;&gt;c_0_263</title>
<path fill="none" stroke="black" stroke-dasharray="5,2" d="M2125.07,-199C2404.36,-199 3596,-199 3596,-199 3596,-199 3596,-131.66 3596,-131.66"/>
<polygon fill="black" stroke="black" points="3599.5,-131.66 3596,-121.66 3592.5,-131.66 3599.5,-131.66"/>
</g>
<!-- c_0_220 -->
<g id="node5" class="node">
<title>c_0_220</title>
<g id="a_node5"><a xlink:href="c_0_220.html" xlink:title="{ext&#45;real&#45;membered(ℕ)|⇊|1 ≤ len(skolem₁)}" target="_parent">
<polygon fill="#fa6900" stroke="#7f7542" points="3259,-61.5 3259,-106.5 3419,-106.5 3419,-61.5 3259,-61.5"/>
<text text-anchor="middle" x="3339" y="-95.3" font-family="Times,serif" font-size="14.00">ext&#45;real&#45;membered(ℕ)</text>
<polyline fill="none" stroke="#7f7542" points="3259,-91.5 3419,-91.5 "/>
<text text-anchor="middle" x="3339" y="-80.3" font-family="Times,serif" font-size="14.00">⇊</text>
<polyline fill="none" stroke="#7f7542" points="3259,-76.5 3419,-76.5 "/>
<text text-anchor="middle" x="3339" y="-65.3" font-family="Times,serif" font-size="14.00">1 ≤ len(skolem₁)</text>
</a>
</g>
</g>
<!-- c_0_82&#45;&gt;c_0_220 -->
<g id="edge4" class="edge">
<title>c_0_82&#45;&gt;c_0_220</title>
<path fill="none" stroke="black" stroke-dasharray="5,2" d="M2125.38,-197C2374.88,-197 3339,-197 3339,-197 3339,-197 3339,-116.6 3339,-116.6"/>
<polygon fill="black" stroke="black" points="3342.5,-116.6 3339,-106.6 3335.5,-116.6 3342.5,-116.6"/>
</g>
<!-- c_0_256 -->
<g id="node6" class="node">
<title>c_0_256</title>
<g id="a_node6"><a xlink:href="c_0_256.html" xlink:title="{(2 L~ skolem₁) ∈ bool(carrier(TOP&#45;REAL(2)))|(carrier(TOP&#45;REAL(2)) /. skolem₁ /. 1) ∈ carrier(TOP&#45;REAL(2))|&#45;valued(skolem₁,carrier(TOP&#45;REAL(2)))|1 ≤ skolem₂(skolem₁)|ext&#45;real&#45;membered(ℕ)|n_e_s(skolem₁) ∈ ℝ ∈ ℕ|⇊|⊥}" target="_parent">
<polygon fill="#fa6900" stroke="#7f7542" points="2805,-24 2805,-144 3241,-144 3241,-24 2805,-24"/>
<text text-anchor="middle" x="3023" y="-132.8" font-family="Times,serif" font-size="14.00">(2 L~ skolem₁) ∈ bool(carrier(TOP&#45;REAL(2)))</text>
<polyline fill="none" stroke="#7f7542" points="2805,-129 3241,-129 "/>
<text text-anchor="middle" x="3023" y="-117.8" font-family="Times,serif" font-size="14.00">(carrier(TOP&#45;REAL(2)) /. skolem₁ /. 1) ∈ carrier(TOP&#45;REAL(2))</text>
<polyline fill="none" stroke="#7f7542" points="2805,-114 3241,-114 "/>
<text text-anchor="middle" x="3023" y="-102.8" font-family="Times,serif" font-size="14.00">&#45;valued(skolem₁,carrier(TOP&#45;REAL(2)))</text>
<polyline fill="none" stroke="#7f7542" points="2805,-99 3241,-99 "/>
<text text-anchor="middle" x="3023" y="-87.8" font-family="Times,serif" font-size="14.00">1 ≤ skolem₂(skolem₁)</text>
<polyline fill="none" stroke="#7f7542" points="2805,-84 3241,-84 "/>
<text text-anchor="middle" x="3023" y="-72.8" font-family="Times,serif" font-size="14.00">ext&#45;real&#45;membered(ℕ)</text>
<polyline fill="none" stroke="#7f7542" points="2805,-69 3241,-69 "/>
<text text-anchor="middle" x="3023" y="-57.8" font-family="Times,serif" font-size="14.00">n_e_s(skolem₁) ∈ ℝ ∈ ℕ</text>
<polyline fill="none" stroke="#7f7542" points="2805,-54 3241,-54 "/>
<text text-anchor="middle" x="3023" y="-42.8" font-family="Times,serif" font-size="14.00">⇊</text>
<polyline fill="none" stroke="#7f7542" points="2805,-39 3241,-39 "/>
<text text-anchor="middle" x="3023" y="-27.8" font-family="Times,serif" font-size="14.00">⊥</text>
</a>
</g>
</g>
<!-- c_0_82&#45;&gt;c_0_256 -->
<g id="edge5" class="edge">
<title>c_0_82&#45;&gt;c_0_256</title>
<path fill="none" stroke="black" stroke-dasharray="5,2" d="M2125.01,-194C2332.13,-194 3023,-194 3023,-194 3023,-194 3023,-154.15 3023,-154.15"/>
<polygon fill="black" stroke="black" points="3026.5,-154.15 3023,-144.15 3019.5,-154.15 3026.5,-154.15"/>
</g>
<!-- c_0_259 -->
<g id="node7" class="node">
<title>c_0_259</title>
<g id="a_node7"><a xlink:href="c_0_259.html" xlink:title="{(2 L~ skolem₁) ∈ bool(carrier(TOP&#45;REAL(2)))|(carrier(TOP&#45;REAL(2)) /. skolem₁ /. 1) ∈ carrier(TOP&#45;REAL(2))|1 ≤ skolem₂(skolem₁)|FinSequence(skolem₁,carrier(TOP&#45;REAL(2)))|ext&#45;real&#45;membered(ℕ)|⇊|⊥}" target="_parent">
<polygon fill="#fa6900" stroke="#7f7542" points="2351,-31.5 2351,-136.5 2787,-136.5 2787,-31.5 2351,-31.5"/>
<text text-anchor="middle" x="2569" y="-125.3" font-family="Times,serif" font-size="14.00">(2 L~ skolem₁) ∈ bool(carrier(TOP&#45;REAL(2)))</text>
<polyline fill="none" stroke="#7f7542" points="2351,-121.5 2787,-121.5 "/>
<text text-anchor="middle" x="2569" y="-110.3" font-family="Times,serif" font-size="14.00">(carrier(TOP&#45;REAL(2)) /. skolem₁ /. 1) ∈ carrier(TOP&#45;REAL(2))</text>
<polyline fill="none" stroke="#7f7542" points="2351,-106.5 2787,-106.5 "/>
<text text-anchor="middle" x="2569" y="-95.3" font-family="Times,serif" font-size="14.00">1 ≤ skolem₂(skolem₁)</text>
<polyline fill="none" stroke="#7f7542" points="2351,-91.5 2787,-91.5 "/>
<text text-anchor="middle" x="2569" y="-80.3" font-family="Times,serif" font-size="14.00">FinSequence(skolem₁,carrier(TOP&#45;REAL(2)))</text>
<polyline fill="none" stroke="#7f7542" points="2351,-76.5 2787,-76.5 "/>
<text text-anchor="middle" x="2569" y="-65.3" font-family="Times,serif" font-size="14.00">ext&#45;real&#45;membered(ℕ)</text>
<polyline fill="none" stroke="#7f7542" points="2351,-61.5 2787,-61.5 "/>
<text text-anchor="middle" x="2569" y="-50.3" font-family="Times,serif" font-size="14.00">⇊</text>
<polyline fill="none" stroke="#7f7542" points="2351,-46.5 2787,-46.5 "/>
<text text-anchor="middle" x="2569" y="-35.3" font-family="Times,serif" font-size="14.00">⊥</text>
</a>
</g>
</g>
<!-- c_0_82&#45;&gt;c_0_259 -->
<g id="edge6" class="edge">
<title>c_0_82&#45;&gt;c_0_259</title>
<path fill="none" stroke="black" stroke-dasharray="5,2" d="M2125.08,-192C2257.22,-192 2569,-192 2569,-192 2569,-192 2569,-146.73 2569,-146.73"/>
<polygon fill="black" stroke="black" points="2572.5,-146.73 2569,-136.73 2565.5,-146.73 2572.5,-146.73"/>
</g>
<!-- c_0_213 -->
<g id="node8" class="node">
<title>c_0_213</title>
<g id="a_node8"><a xlink:href="c_0_213.html" xlink:title="{ext&#45;real&#45;membered(ℕ)|⇊|skolem₂(skolem₁) ∈ 𝔼}" target="_parent">
<polygon fill="#fa6900" stroke="#7f7542" points="2173,-61.5 2173,-106.5 2333,-106.5 2333,-61.5 2173,-61.5"/>
<text text-anchor="middle" x="2253" y="-95.3" font-family="Times,serif" font-size="14.00">ext&#45;real&#45;membered(ℕ)</text>
<polyline fill="none" stroke="#7f7542" points="2173,-91.5 2333,-91.5 "/>
<text text-anchor="middle" x="2253" y="-80.3" font-family="Times,serif" font-size="14.00">⇊</text>
<polyline fill="none" stroke="#7f7542" points="2173,-76.5 2333,-76.5 "/>
<text text-anchor="middle" x="2253" y="-65.3" font-family="Times,serif" font-size="14.00">skolem₂(skolem₁) ∈ 𝔼</text>
</a>
</g>
</g>
<!-- c_0_82&#45;&gt;c_0_213 -->
<g id="edge7" class="edge">
<title>c_0_82&#45;&gt;c_0_213</title>
<path fill="none" stroke="black" stroke-dasharray="5,2" d="M2125.09,-190C2179.66,-190 2253,-190 2253,-190 2253,-190 2253,-116.74 2253,-116.74"/>
<polygon fill="black" stroke="black" points="2256.5,-116.74 2253,-106.74 2249.5,-116.74 2256.5,-116.74"/>
</g>
<!-- c_0_240 -->
<g id="node9" class="node">
<title>c_0_240</title>
<g id="a_node9"><a xlink:href="c_0_240.html" xlink:title="{( `2 (carrier(TOP&#45;REAL(2)) /. skolem₁ /. 1)) = S&#45;bound(2 L~ skolem₁)|(2 L~ skolem₁) ∈ bool(carrier(TOP&#45;REAL(2)))|(carrier(TOP&#45;REAL(2)) /. skolem₁ /. skolem₂(skolem₁)) ∈ carrier(TOP&#45;REAL(2))|1 ≤ skolem₂(skolem₁)|n_e_s(skolem₁) ∈ ℝ ∈ ℕ|skolem₂(skolem₁) ∈ ℝ ∈ ℕ|skolem₂(skolem₁) ≤ len(skolem₁)|⇊|⊥}" target="_parent">
<polygon fill="#fa6900" stroke="#7f7542" points="1607,-16.5 1607,-151.5 2155,-151.5 2155,-16.5 1607,-16.5"/>
<text text-anchor="middle" x="1881" y="-140.3" font-family="Times,serif" font-size="14.00">( `2 (carrier(TOP&#45;REAL(2)) /. skolem₁ /. 1)) = S&#45;bound(2 L~ skolem₁)</text>
<polyline fill="none" stroke="#7f7542" points="1607,-136.5 2155,-136.5 "/>
<text text-anchor="middle" x="1881" y="-125.3" font-family="Times,serif" font-size="14.00">(2 L~ skolem₁) ∈ bool(carrier(TOP&#45;REAL(2)))</text>
<polyline fill="none" stroke="#7f7542" points="1607,-121.5 2155,-121.5 "/>
<text text-anchor="middle" x="1881" y="-110.3" font-family="Times,serif" font-size="14.00">(carrier(TOP&#45;REAL(2)) /. skolem₁ /. skolem₂(skolem₁)) ∈ carrier(TOP&#45;REAL(2))</text>
<polyline fill="none" stroke="#7f7542" points="1607,-106.5 2155,-106.5 "/>
<text text-anchor="middle" x="1881" y="-95.3" font-family="Times,serif" font-size="14.00">1 ≤ skolem₂(skolem₁)</text>
<polyline fill="none" stroke="#7f7542" points="1607,-91.5 2155,-91.5 "/>
<text text-anchor="middle" x="1881" y="-80.3" font-family="Times,serif" font-size="14.00">n_e_s(skolem₁) ∈ ℝ ∈ ℕ</text>
<polyline fill="none" stroke="#7f7542" points="1607,-76.5 2155,-76.5 "/>
<text text-anchor="middle" x="1881" y="-65.3" font-family="Times,serif" font-size="14.00">skolem₂(skolem₁) ∈ ℝ ∈ ℕ</text>
<polyline fill="none" stroke="#7f7542" points="1607,-61.5 2155,-61.5 "/>
<text text-anchor="middle" x="1881" y="-50.3" font-family="Times,serif" font-size="14.00">skolem₂(skolem₁) ≤ len(skolem₁)</text>
<polyline fill="none" stroke="#7f7542" points="1607,-46.5 2155,-46.5 "/>
<text text-anchor="middle" x="1881" y="-35.3" font-family="Times,serif" font-size="14.00">⇊</text>
<polyline fill="none" stroke="#7f7542" points="1607,-31.5 2155,-31.5 "/>
<text text-anchor="middle" x="1881" y="-20.3" font-family="Times,serif" font-size="14.00">⊥</text>
</a>
</g>
</g>
<!-- c_0_82&#45;&gt;c_0_240 -->
<g id="edge8" class="edge">
<title>c_0_82&#45;&gt;c_0_240</title>
<path fill="none" stroke="black" stroke-dasharray="5,2" d="M2067,-188.3C2067,-188.3 2067,-161.55 2067,-161.55"/>
<polygon fill="black" stroke="black" points="2070.5,-161.55 2067,-151.55 2063.5,-161.55 2070.5,-161.55"/>
</g>
<!-- c_0_242 -->
<g id="node10" class="node">
<title>c_0_242</title>
<g id="a_node10"><a xlink:href="c_0_242.html" xlink:title="{E₁ ≤ skolem₂(skolem₁)|ext&#45;real&#45;membered(ℕ)|⇊|E₁ ≤ len(skolem₁)}" target="_parent">
<polygon fill="#fa6900" stroke="#7f7542" points="1429,-54 1429,-114 1589,-114 1589,-54 1429,-54"/>
<text text-anchor="middle" x="1509" y="-102.8" font-family="Times,serif" font-size="14.00">E₁ ≤ skolem₂(skolem₁)</text>
<polyline fill="none" stroke="#7f7542" points="1429,-99 1589,-99 "/>
<text text-anchor="middle" x="1509" y="-87.8" font-family="Times,serif" font-size="14.00">ext&#45;real&#45;membered(ℕ)</text>
<polyline fill="none" stroke="#7f7542" points="1429,-84 1589,-84 "/>
<text text-anchor="middle" x="1509" y="-72.8" font-family="Times,serif" font-size="14.00">⇊</text>
<polyline fill="none" stroke="#7f7542" points="1429,-69 1589,-69 "/>
<text text-anchor="middle" x="1509" y="-57.8" font-family="Times,serif" font-size="14.00">E₁ ≤ len(skolem₁)</text>
</a>
</g>
</g>
<!-- c_0_82&#45;&gt;c_0_242 -->
<g id="edge9" class="edge">
<title>c_0_82&#45;&gt;c_0_242</title>
<path fill="none" stroke="black" stroke-dasharray="5,2" d="M2008.86,-190C1865.95,-190 1509,-190 1509,-190 1509,-190 1509,-124.09 1509,-124.09"/>
<polygon fill="black" stroke="black" points="1512.5,-124.09 1509,-114.09 1505.5,-124.09 1512.5,-124.09"/>
</g>
<!-- c_0_98 -->
<g id="node11" class="node">
<title>c_0_98</title>
<g id="a_node11"><a xlink:href="c_0_98.html" xlink:title="{X₁ = n_e_s(skolem₁)|X₁ ∈ ℝ ∈ ℕ|⇊|(skolem₁ . X₁) = N&#45;max(2 L~ skolem₁)}" target="_parent">
<polygon fill="#fa6900" stroke="#7f7542" points="1143,-54 1143,-114 1411,-114 1411,-54 1143,-54"/>
<text text-anchor="middle" x="1277" y="-102.8" font-family="Times,serif" font-size="14.00">X₁ = n_e_s(skolem₁)</text>
<polyline fill="none" stroke="#7f7542" points="1143,-99 1411,-99 "/>
<text text-anchor="middle" x="1277" y="-87.8" font-family="Times,serif" font-size="14.00">X₁ ∈ ℝ ∈ ℕ</text>
<polyline fill="none" stroke="#7f7542" points="1143,-84 1411,-84 "/>
<text text-anchor="middle" x="1277" y="-72.8" font-family="Times,serif" font-size="14.00">⇊</text>
<polyline fill="none" stroke="#7f7542" points="1143,-69 1411,-69 "/>
<text text-anchor="middle" x="1277" y="-57.8" font-family="Times,serif" font-size="14.00">(skolem₁ . X₁) = N&#45;max(2 L~ skolem₁)</text>
</a>
</g>
</g>
<!-- c_0_82&#45;&gt;c_0_98 -->
<g id="edge10" class="edge">
<title>c_0_82&#45;&gt;c_0_98</title>
<path fill="none" stroke="black" stroke-dasharray="5,2" d="M2008.91,-193C1826.47,-193 1277,-193 1277,-193 1277,-193 1277,-124.07 1277,-124.07"/>
<polygon fill="black" stroke="black" points="1280.5,-124.07 1277,-114.07 1273.5,-124.07 1280.5,-124.07"/>
</g>
<!-- c_0_169 -->
<g id="node12" class="node">
<title>c_0_169</title>
<g id="a_node12"><a xlink:href="c_0_169.html" xlink:title="{(2 L~ skolem₁) ∈ bool(carrier(TOP&#45;REAL(2)))|n_e_s(skolem₁) ∈ ℝ ∈ ℕ|⇊|N&#45;bound(2 L~ skolem₁) = S&#45;bound(2 L~ skolem₁)}" target="_parent">
<polygon fill="#fa6900" stroke="#7f7542" points="773.5,-54 773.5,-114 1124.5,-114 1124.5,-54 773.5,-54"/>
<text text-anchor="middle" x="949" y="-102.8" font-family="Times,serif" font-size="14.00">(2 L~ skolem₁) ∈ bool(carrier(TOP&#45;REAL(2)))</text>
<polyline fill="none" stroke="#7f7542" points="773.5,-99 1124.5,-99 "/>
<text text-anchor="middle" x="949" y="-87.8" font-family="Times,serif" font-size="14.00">n_e_s(skolem₁) ∈ ℝ ∈ ℕ</text>
<polyline fill="none" stroke="#7f7542" points="773.5,-84 1124.5,-84 "/>
<text text-anchor="middle" x="949" y="-72.8" font-family="Times,serif" font-size="14.00">⇊</text>
<polyline fill="none" stroke="#7f7542" points="773.5,-69 1124.5,-69 "/>
<text text-anchor="middle" x="949" y="-57.8" font-family="Times,serif" font-size="14.00">N&#45;bound(2 L~ skolem₁) = S&#45;bound(2 L~ skolem₁)</text>
</a>
</g>
</g>
<!-- c_0_82&#45;&gt;c_0_169 -->
<g id="edge11" class="edge">
<title>c_0_82&#45;&gt;c_0_169</title>
<path fill="none" stroke="black" stroke-dasharray="5,2" d="M2008.86,-196C1779.37,-196 949,-196 949,-196 949,-196 949,-124.01 949,-124.01"/>
<polygon fill="black" stroke="black" points="952.5,-124.01 949,-114.01 945.5,-124.01 952.5,-124.01"/>
</g>
<!-- c_0_238 -->
<g id="node13" class="node">
<title>c_0_238</title>
<g id="a_node13"><a xlink:href="c_0_238.html" xlink:title="{ext&#45;real&#45;membered(ℕ)|⇊|skolem₂(skolem₁) ≤ len(skolem₁)}" target="_parent">
<polygon fill="#fa6900" stroke="#7f7542" points="524.5,-61.5 524.5,-106.5 755.5,-106.5 755.5,-61.5 524.5,-61.5"/>
<text text-anchor="middle" x="640" y="-95.3" font-family="Times,serif" font-size="14.00">ext&#45;real&#45;membered(ℕ)</text>
<polyline fill="none" stroke="#7f7542" points="524.5,-91.5 755.5,-91.5 "/>
<text text-anchor="middle" x="640" y="-80.3" font-family="Times,serif" font-size="14.00">⇊</text>
<polyline fill="none" stroke="#7f7542" points="524.5,-76.5 755.5,-76.5 "/>
<text text-anchor="middle" x="640" y="-65.3" font-family="Times,serif" font-size="14.00">skolem₂(skolem₁) ≤ len(skolem₁)</text>
</a>
</g>
</g>
<!-- c_0_82&#45;&gt;c_0_238 -->
<g id="edge12" class="edge">
<title>c_0_82&#45;&gt;c_0_238</title>
<path fill="none" stroke="black" stroke-dasharray="5,2" d="M2008.85,-198C1741.1,-198 640,-198 640,-198 640,-198 640,-116.52 640,-116.52"/>
<polygon fill="black" stroke="black" points="643.5,-116.52 640,-106.52 636.5,-116.52 643.5,-116.52"/>
</g>
<!-- c_0_190 -->
<g id="node14" class="node">
<title>c_0_190</title>
<g id="a_node14"><a xlink:href="c_0_190.html" xlink:title="{(2 L~ skolem₁) ∈ bool(carrier(TOP&#45;REAL(2)))|1 ≤ X₁|X₁ ∈ ℝ ∈ ℕ|X₁ ≤ len(skolem₁)|n_e_s(skolem₁) ∈ ℝ ∈ ℕ|⇊|( `2 (carrier(TOP&#45;REAL(2)) /. skolem₁ /. X₁)) ≤ S&#45;bound(2 L~ skolem₁)}" target="_parent">
<polygon fill="#fa6900" stroke="#7f7542" points="16,-31.5 16,-136.5 506,-136.5 506,-31.5 16,-31.5"/>
<text text-anchor="middle" x="261" y="-125.3" font-family="Times,serif" font-size="14.00">(2 L~ skolem₁) ∈ bool(carrier(TOP&#45;REAL(2)))</text>
<polyline fill="none" stroke="#7f7542" points="16,-121.5 506,-121.5 "/>
<text text-anchor="middle" x="261" y="-110.3" font-family="Times,serif" font-size="14.00">1 ≤ X₁</text>
<polyline fill="none" stroke="#7f7542" points="16,-106.5 506,-106.5 "/>
<text text-anchor="middle" x="261" y="-95.3" font-family="Times,serif" font-size="14.00">X₁ ∈ ℝ ∈ ℕ</text>
<polyline fill="none" stroke="#7f7542" points="16,-91.5 506,-91.5 "/>
<text text-anchor="middle" x="261" y="-80.3" font-family="Times,serif" font-size="14.00">X₁ ≤ len(skolem₁)</text>
<polyline fill="none" stroke="#7f7542" points="16,-76.5 506,-76.5 "/>
<text text-anchor="middle" x="261" y="-65.3" font-family="Times,serif" font-size="14.00">n_e_s(skolem₁) ∈ ℝ ∈ ℕ</text>
<polyline fill="none" stroke="#7f7542" points="16,-61.5 506,-61.5 "/>
<text text-anchor="middle" x="261" y="-50.3" font-family="Times,serif" font-size="14.00">⇊</text>
<polyline fill="none" stroke="#7f7542" points="16,-46.5 506,-46.5 "/>
<text text-anchor="middle" x="261" y="-35.3" font-family="Times,serif" font-size="14.00">( `2 (carrier(TOP&#45;REAL(2)) /. skolem₁ /. X₁)) ≤ S&#45;bound(2 L~ skolem₁)</text>
</a>
</g>
</g>
<!-- c_0_82&#45;&gt;c_0_190 -->
<g id="edge13" class="edge">
<title>c_0_82&#45;&gt;c_0_190</title>
<path fill="none" stroke="black" stroke-dasharray="5,2" d="M2008.96,-201C1699.83,-201 261,-201 261,-201 261,-201 261,-146.68 261,-146.68"/>
<polygon fill="black" stroke="black" points="264.5,-146.68 261,-136.68 257.5,-146.68 264.5,-146.68"/>
</g>
</g>
</svg>
