<?xml version="1.0" encoding="UTF-8" standalone="no"?>
<!DOCTYPE svg PUBLIC "-//W3C//DTD SVG 1.1//EN"
 "http://www.w3.org/Graphics/SVG/1.1/DTD/svg11.dtd">
<!-- Generated by graphviz version 5.0.0 (0)
 -->
<!-- Title: proof Pages: 1 -->
<svg width="336pt" height="235pt"
 viewBox="0.00 0.00 336.00 235.00" xmlns="http://www.w3.org/2000/svg" xmlns:xlink="http://www.w3.org/1999/xlink">
<g id="graph0" class="graph" transform="scale(1 1) rotate(0) translate(4 231)">
<title>proof</title>
<polygon fill="white" stroke="transparent" points="-4,4 -4,-231 332,-231 332,4 -4,4"/>
<g id="clust1" class="cluster">
<title>cluster_0</title>
<polygon fill="none" stroke="black" stroke-dasharray="1,5" points="8,-142 8,-219 284,-219 284,-142 8,-142"/>
</g>
<g id="clust2" class="cluster">
<title>cluster_1</title>
<polygon fill="none" stroke="black" stroke-width="2" points="112,-90 112,-122 174,-122 174,-90 112,-90"/>
</g>
<g id="clust3" class="cluster">
<title>cluster_2</title>
<polygon fill="none" stroke="black" stroke-dasharray="1,5" points="70,-8 70,-70 320,-70 320,-8 70,-8"/>
</g>
<!-- c_0_161 -->
<g id="node1" class="node">
<title>c_0_161</title>
<g id="a_node1"><a xlink:href="c_0_161.html" xlink:title="{X₁ ⊆ ℝ|X₂ ∈ bool(X₁)|⇊|X₂ ⊆ ℝ}" target="_parent">
<polygon fill="#f8edd1" stroke="#7f7542" points="184.5,-150.5 184.5,-210.5 275.5,-210.5 275.5,-150.5 184.5,-150.5"/>
<text text-anchor="middle" x="230" y="-199.3" font-family="Times,serif" font-size="14.00">X₁ ⊆ ℝ</text>
<polyline fill="none" stroke="#7f7542" points="184.5,-195.5 275.5,-195.5 "/>
<text text-anchor="middle" x="230" y="-184.3" font-family="Times,serif" font-size="14.00">X₂ ∈ bool(X₁)</text>
<polyline fill="none" stroke="#7f7542" points="184.5,-180.5 275.5,-180.5 "/>
<text text-anchor="middle" x="230" y="-169.3" font-family="Times,serif" font-size="14.00">⇊</text>
<polyline fill="none" stroke="#7f7542" points="184.5,-165.5 275.5,-165.5 "/>
<text text-anchor="middle" x="230" y="-154.3" font-family="Times,serif" font-size="14.00">X₂ ⊆ ℝ</text>
</a>
</g>
</g>
<!-- c_0_184 -->
<g id="node4" class="node">
<title>c_0_184</title>
<g id="a_node4"><a xlink:href="c_0_184.html" xlink:title="{ℕ ⊆ ℝ}" target="_parent">
<polygon fill="#f8edd1" stroke="#7f7542" points="120,-98.5 120,-113.5 166,-113.5 166,-98.5 120,-98.5"/>
<text text-anchor="middle" x="143" y="-102.3" font-family="Times,serif" font-size="14.00">ℕ ⊆ ℝ</text>
</a>
</g>
</g>
<!-- c_0_161&#45;&gt;c_0_184 -->
<g id="edge1" class="edge">
<title>c_0_161&#45;&gt;c_0_184</title>
<path fill="none" stroke="black" d="M184.31,-161C166.68,-161 150.67,-161 150.67,-161 150.67,-161 150.67,-123.65 150.67,-123.65"/>
<polygon fill="black" stroke="black" points="154.17,-123.65 150.67,-113.65 147.17,-123.65 154.17,-123.65"/>
</g>
<!-- c_0_120 -->
<g id="node2" class="node">
<title>c_0_120</title>
<g id="a_node2"><a xlink:href="c_0_120.html" xlink:title="{ℝ ⊆ ℝ}" target="_parent">
<polygon fill="#f8edd1" stroke="#7f7542" points="120,-173 120,-188 166,-188 166,-173 120,-173"/>
<text text-anchor="middle" x="143" y="-176.8" font-family="Times,serif" font-size="14.00">ℝ ⊆ ℝ</text>
</a>
</g>
</g>
<!-- c_0_120&#45;&gt;c_0_184 -->
<g id="edge2" class="edge">
<title>c_0_120&#45;&gt;c_0_184</title>
<path fill="none" stroke="black" d="M135.33,-172.81C135.33,-172.81 135.33,-123.76 135.33,-123.76"/>
<polygon fill="black" stroke="black" points="138.83,-123.76 135.33,-113.76 131.83,-123.76 138.83,-123.76"/>
</g>
<!-- c_0_162 -->
<g id="node3" class="node">
<title>c_0_162</title>
<g id="a_node3"><a xlink:href="c_0_162.html" xlink:title="{ℕ ∈ bool(ℝ)}" target="_parent">
<polygon fill="#f8edd1" stroke="#7f7542" points="16.5,-173 16.5,-188 101.5,-188 101.5,-173 16.5,-173"/>
<text text-anchor="middle" x="59" y="-176.8" font-family="Times,serif" font-size="14.00">ℕ ∈ bool(ℝ)</text>
</a>
</g>
</g>
<!-- c_0_162&#45;&gt;c_0_184 -->
<g id="edge3" class="edge">
<title>c_0_162&#45;&gt;c_0_184</title>
<path fill="none" stroke="black" d="M89.75,-172.81C89.75,-153.77 89.75,-106 89.75,-106 89.75,-106 109.8,-106 109.8,-106"/>
<polygon fill="black" stroke="black" points="109.8,-109.5 119.8,-106 109.8,-102.5 109.8,-109.5"/>
</g>
<!-- c_0_243 -->
<g id="node5" class="node">
<title>c_0_243</title>
<g id="a_node5"><a xlink:href="c_0_243.html" xlink:title="{&#45;defined(skolem₁,X₁)|⇊|len(skolem₁) ∈ X₁}" target="_parent">
<polygon fill="#fa6900" stroke="#7f7542" points="168.5,-16.5 168.5,-61.5 311.5,-61.5 311.5,-16.5 168.5,-16.5"/>
<text text-anchor="middle" x="240" y="-50.3" font-family="Times,serif" font-size="14.00">&#45;defined(skolem₁,X₁)</text>
<polyline fill="none" stroke="#7f7542" points="168.5,-46.5 311.5,-46.5 "/>
<text text-anchor="middle" x="240" y="-35.3" font-family="Times,serif" font-size="14.00">⇊</text>
<polyline fill="none" stroke="#7f7542" points="168.5,-31.5 311.5,-31.5 "/>
<text text-anchor="middle" x="240" y="-20.3" font-family="Times,serif" font-size="14.00">len(skolem₁) ∈ X₁</text>
</a>
</g>
</g>
<!-- c_0_184&#45;&gt;c_0_243 -->
<g id="edge4" class="edge">
<title>c_0_184&#45;&gt;c_0_243</title>
<path fill="none" stroke="black" stroke-dasharray="5,2" d="M158,-98.33C158,-83.86 158,-54 158,-54 158,-54 159.04,-54 159.04,-54"/>
<polygon fill="black" stroke="black" points="158.39,-57.5 168.39,-54 158.39,-50.5 158.39,-57.5"/>
</g>
<!-- c_0_270 -->
<g id="node6" class="node">
<title>c_0_270</title>
<g id="a_node6"><a xlink:href="c_0_270.html" xlink:title="⊥" target="_parent">
<polygon fill="#fa6900" stroke="#7f7542" points="136,-31.5 136,-46.5 150,-46.5 150,-31.5 136,-31.5"/>
<text text-anchor="middle" x="143" y="-35.3" font-family="Times,serif" font-size="14.00">⊥</text>
</a>
</g>
</g>
<!-- c_0_184&#45;&gt;c_0_270 -->
<g id="edge5" class="edge">
<title>c_0_184&#45;&gt;c_0_270</title>
<path fill="none" stroke="black" stroke-dasharray="5,2" d="M143,-98.31C143,-98.31 143,-56.6 143,-56.6"/>
<polygon fill="black" stroke="black" points="146.5,-56.6 143,-46.6 139.5,-56.6 146.5,-56.6"/>
</g>
<!-- c_0_200 -->
<g id="node7" class="node">
<title>c_0_200</title>
<g id="a_node7"><a xlink:href="c_0_200.html" xlink:title="{1 ∈ 𝔼}" target="_parent">
<polygon fill="#f8edd1" stroke="#7f7542" points="78,-31.5 78,-46.5 118,-46.5 118,-31.5 78,-31.5"/>
<text text-anchor="middle" x="98" y="-35.3" font-family="Times,serif" font-size="14.00">1 ∈ 𝔼</text>
</a>
</g>
</g>
<!-- c_0_184&#45;&gt;c_0_200 -->
<g id="edge6" class="edge">
<title>c_0_184&#45;&gt;c_0_200</title>
<path fill="none" stroke="black" stroke-dasharray="5,2" d="M128,-98.31C128,-80.72 128,-39 128,-39 128,-39 127.02,-39 127.02,-39"/>
<polygon fill="black" stroke="black" points="128.18,-35.5 118.18,-39 128.18,-42.5 128.18,-35.5"/>
</g>
</g>
</svg>
