<?xml version="1.0" encoding="UTF-8" standalone="no"?>
<!DOCTYPE svg PUBLIC "-//W3C//DTD SVG 1.1//EN"
 "http://www.w3.org/Graphics/SVG/1.1/DTD/svg11.dtd">
<!-- Generated by graphviz version 5.0.0 (0)
 -->
<!-- Title: proof Pages: 1 -->
<svg width="514pt" height="190pt"
 viewBox="0.00 0.00 514.00 190.00" xmlns="http://www.w3.org/2000/svg" xmlns:xlink="http://www.w3.org/1999/xlink">
<g id="graph0" class="graph" transform="scale(1 1) rotate(0) translate(4 186)">
<title>proof</title>
<polygon fill="white" stroke="transparent" points="-4,4 -4,-186 510,-186 510,4 -4,4"/>
<g id="clust1" class="cluster">
<title>cluster_0</title>
<polygon fill="none" stroke="black" stroke-dasharray="1,5" points="208,-142 208,-174 298,-174 298,-142 208,-142"/>
</g>
<g id="clust2" class="cluster">
<title>cluster_1</title>
<polygon fill="none" stroke="black" stroke-width="2" points="169,-90 169,-122 337,-122 337,-90 169,-90"/>
</g>
<g id="clust3" class="cluster">
<title>cluster_2</title>
<polygon fill="none" stroke="black" stroke-dasharray="1,5" points="8,-8 8,-70 498,-70 498,-8 8,-8"/>
</g>
<!-- t52_euclid -->
<g id="node1" class="node">
<title>t52_euclid</title>
<g id="a_node1"><a xlink:href="http://grid01.ciirc.cvut.cz/~mptp/7.13.01_4.181.1147/html/euclid.html#T52" xlink:title="t52_euclid" target="_blank">
<polygon fill="#69d2e7" stroke="#7f7542" points="216,-150.5 216,-165.5 290,-165.5 290,-150.5 216,-150.5"/>
<text text-anchor="middle" x="253" y="-154.3" font-family="Times,serif" font-size="14.00">t52_euclid</text>
</a>
</g>
</g>
<!-- c_0_62 -->
<g id="node2" class="node">
<title>c_0_62</title>
<g id="a_node2"><a xlink:href="c_0_62.html" xlink:title="{( `2 (R₁ \|[..]\| R₂)) = R₂}" target="_parent">
<polygon fill="#f8edd1" stroke="#7f7542" points="177,-98.5 177,-113.5 329,-113.5 329,-98.5 177,-98.5"/>
<text text-anchor="middle" x="253" y="-102.3" font-family="Times,serif" font-size="14.00">( `2 (R₁ |[..]| R₂)) = R₂</text>
</a>
</g>
</g>
<!-- t52_euclid&#45;&gt;c_0_62 -->
<g id="edge1" class="edge">
<title>t52_euclid&#45;&gt;c_0_62</title>
<path fill="none" stroke="black" d="M253,-150.33C253,-150.33 253,-123.7 253,-123.7"/>
<polygon fill="black" stroke="black" points="256.5,-123.7 253,-113.7 249.5,-123.7 256.5,-123.7"/>
</g>
<!-- c_0_68 -->
<g id="node3" class="node">
<title>c_0_68</title>
<g id="a_node3"><a xlink:href="c_0_68.html" xlink:title="{X₁ ∈ bool(carrier(TOP&#45;REAL(2)))|⇊|( `2 S&#45;max(X₁)) = S&#45;bound(X₁)}" target="_parent">
<polygon fill="#f8edd1" stroke="#7f7542" points="262,-16.5 262,-61.5 490,-61.5 490,-16.5 262,-16.5"/>
<text text-anchor="middle" x="376" y="-50.3" font-family="Times,serif" font-size="14.00">X₁ ∈ bool(carrier(TOP&#45;REAL(2)))</text>
<polyline fill="none" stroke="#7f7542" points="262,-46.5 490,-46.5 "/>
<text text-anchor="middle" x="376" y="-35.3" font-family="Times,serif" font-size="14.00">⇊</text>
<polyline fill="none" stroke="#7f7542" points="262,-31.5 490,-31.5 "/>
<text text-anchor="middle" x="376" y="-20.3" font-family="Times,serif" font-size="14.00">( `2 S&#45;max(X₁)) = S&#45;bound(X₁)</text>
</a>
</g>
</g>
<!-- c_0_62&#45;&gt;c_0_68 -->
<g id="edge2" class="edge">
<title>c_0_62&#45;&gt;c_0_68</title>
<path fill="none" stroke="black" stroke-dasharray="5,2" d="M295.5,-98.31C295.5,-98.31 295.5,-71.76 295.5,-71.76"/>
<polygon fill="black" stroke="black" points="299,-71.76 295.5,-61.76 292,-71.76 299,-71.76"/>
</g>
<!-- c_0_74 -->
<g id="node4" class="node">
<title>c_0_74</title>
<g id="a_node4"><a xlink:href="c_0_74.html" xlink:title="{X₁ ∈ bool(carrier(TOP&#45;REAL(2)))|⇊|( `2 N&#45;max(X₁)) = N&#45;bound(X₁)}" target="_parent">
<polygon fill="#f8edd1" stroke="#7f7542" points="16,-16.5 16,-61.5 244,-61.5 244,-16.5 16,-16.5"/>
<text text-anchor="middle" x="130" y="-50.3" font-family="Times,serif" font-size="14.00">X₁ ∈ bool(carrier(TOP&#45;REAL(2)))</text>
<polyline fill="none" stroke="#7f7542" points="16,-46.5 244,-46.5 "/>
<text text-anchor="middle" x="130" y="-35.3" font-family="Times,serif" font-size="14.00">⇊</text>
<polyline fill="none" stroke="#7f7542" points="16,-31.5 244,-31.5 "/>
<text text-anchor="middle" x="130" y="-20.3" font-family="Times,serif" font-size="14.00">( `2 N&#45;max(X₁)) = N&#45;bound(X₁)</text>
</a>
</g>
</g>
<!-- c_0_62&#45;&gt;c_0_74 -->
<g id="edge3" class="edge">
<title>c_0_62&#45;&gt;c_0_74</title>
<path fill="none" stroke="black" stroke-dasharray="5,2" d="M210.5,-98.31C210.5,-98.31 210.5,-71.76 210.5,-71.76"/>
<polygon fill="black" stroke="black" points="214,-71.76 210.5,-61.76 207,-71.76 214,-71.76"/>
</g>
</g>
</svg>
