<?xml version="1.0" encoding="UTF-8" standalone="no"?>
<!DOCTYPE svg PUBLIC "-//W3C//DTD SVG 1.1//EN"
 "http://www.w3.org/Graphics/SVG/1.1/DTD/svg11.dtd">
<!-- Generated by graphviz version 5.0.0 (0)
 -->
<!-- Title: proof Pages: 1 -->
<svg width="1402pt" height="325pt"
 viewBox="0.00 0.00 1402.00 325.00" xmlns="http://www.w3.org/2000/svg" xmlns:xlink="http://www.w3.org/1999/xlink">
<g id="graph0" class="graph" transform="scale(1 1) rotate(0) translate(4 321)">
<title>proof</title>
<polygon fill="white" stroke="transparent" points="-4,4 -4,-321 1398,-321 1398,4 -4,4"/>
<g id="clust1" class="cluster">
<title>cluster_0</title>
<polygon fill="none" stroke="black" stroke-dasharray="1,5" points="634,-277 634,-309 760,-309 760,-277 634,-277"/>
</g>
<g id="clust2" class="cluster">
<title>cluster_1</title>
<polygon fill="none" stroke="black" stroke-width="2" points="615,-195 615,-257 779,-257 779,-195 615,-195"/>
</g>
<g id="clust3" class="cluster">
<title>cluster_2</title>
<polygon fill="none" stroke="black" stroke-dasharray="1,5" points="8,-8 8,-175 1386,-175 1386,-8 8,-8"/>
</g>
<!-- dt_m2_finseq_1 -->
<g id="node1" class="node">
<title>dt_m2_finseq_1</title>
<g id="a_node1"><a xlink:href="http://grid01.ciirc.cvut.cz/~mptp/7.13.01_4.181.1147/html/finseq_1.html#M2" xlink:title="dt_m2_finseq_1" target="_blank">
<polygon fill="#69d2e7" stroke="#7f7542" points="642,-285.5 642,-300.5 752,-300.5 752,-285.5 642,-285.5"/>
<text text-anchor="middle" x="697" y="-289.3" font-family="Times,serif" font-size="14.00">dt_m2_finseq_1</text>
</a>
</g>
</g>
<!-- c_0_130 -->
<g id="node2" class="node">
<title>c_0_130</title>
<g id="a_node2"><a xlink:href="c_0_130.html" xlink:title="{FinSequence(X₁,X₂)|⇊|FinSequence&#45;like(X₁)}" target="_parent">
<polygon fill="#f8edd1" stroke="#7f7542" points="623,-203.5 623,-248.5 771,-248.5 771,-203.5 623,-203.5"/>
<text text-anchor="middle" x="697" y="-237.3" font-family="Times,serif" font-size="14.00">FinSequence(X₁,X₂)</text>
<polyline fill="none" stroke="#7f7542" points="623,-233.5 771,-233.5 "/>
<text text-anchor="middle" x="697" y="-222.3" font-family="Times,serif" font-size="14.00">⇊</text>
<polyline fill="none" stroke="#7f7542" points="623,-218.5 771,-218.5 "/>
<text text-anchor="middle" x="697" y="-207.3" font-family="Times,serif" font-size="14.00">FinSequence&#45;like(X₁)</text>
</a>
</g>
</g>
<!-- dt_m2_finseq_1&#45;&gt;c_0_130 -->
<g id="edge1" class="edge">
<title>dt_m2_finseq_1&#45;&gt;c_0_130</title>
<path fill="none" stroke="black" d="M697,-285.31C697,-285.31 697,-258.76 697,-258.76"/>
<polygon fill="black" stroke="black" points="700.5,-258.76 697,-248.76 693.5,-258.76 700.5,-258.76"/>
</g>
<!-- c_0_178 -->
<g id="node3" class="node">
<title>c_0_178</title>
<g id="a_node3"><a xlink:href="c_0_178.html" xlink:title="{ s.c.c. X₁|FinSequence(X₁,carrier(TOP&#45;REAL(2)))|circular(X₁,carrier(TOP&#45;REAL(2)))|special(X₁)|standard(X₁)|unfolded(X₁)|⇊|constant(X₁)|skolem₂(X₁) ≤ len(X₁)}" target="_parent">
<polygon fill="#f8edd1" stroke="#7f7542" points="1102.5,-24 1102.5,-159 1377.5,-159 1377.5,-24 1102.5,-24"/>
<text text-anchor="middle" x="1240" y="-147.8" font-family="Times,serif" font-size="14.00">s.c.c. X₁</text>
<polyline fill="none" stroke="#7f7542" points="1102.5,-144 1377.5,-144 "/>
<text text-anchor="middle" x="1240" y="-132.8" font-family="Times,serif" font-size="14.00">FinSequence(X₁,carrier(TOP&#45;REAL(2)))</text>
<polyline fill="none" stroke="#7f7542" points="1102.5,-129 1377.5,-129 "/>
<text text-anchor="middle" x="1240" y="-117.8" font-family="Times,serif" font-size="14.00">circular(X₁,carrier(TOP&#45;REAL(2)))</text>
<polyline fill="none" stroke="#7f7542" points="1102.5,-114 1377.5,-114 "/>
<text text-anchor="middle" x="1240" y="-102.8" font-family="Times,serif" font-size="14.00">special(X₁)</text>
<polyline fill="none" stroke="#7f7542" points="1102.5,-99 1377.5,-99 "/>
<text text-anchor="middle" x="1240" y="-87.8" font-family="Times,serif" font-size="14.00">standard(X₁)</text>
<polyline fill="none" stroke="#7f7542" points="1102.5,-84 1377.5,-84 "/>
<text text-anchor="middle" x="1240" y="-72.8" font-family="Times,serif" font-size="14.00">unfolded(X₁)</text>
<polyline fill="none" stroke="#7f7542" points="1102.5,-69 1377.5,-69 "/>
<text text-anchor="middle" x="1240" y="-57.8" font-family="Times,serif" font-size="14.00">⇊</text>
<polyline fill="none" stroke="#7f7542" points="1102.5,-54 1377.5,-54 "/>
<text text-anchor="middle" x="1240" y="-42.8" font-family="Times,serif" font-size="14.00">constant(X₁)</text>
<polyline fill="none" stroke="#7f7542" points="1102.5,-39 1377.5,-39 "/>
<text text-anchor="middle" x="1240" y="-27.8" font-family="Times,serif" font-size="14.00">skolem₂(X₁) ≤ len(X₁)</text>
</a>
</g>
</g>
<!-- c_0_130&#45;&gt;c_0_178 -->
<g id="edge2" class="edge">
<title>c_0_130&#45;&gt;c_0_178</title>
<path fill="none" stroke="black" stroke-dasharray="5,2" d="M771.08,-226C919.67,-226 1240,-226 1240,-226 1240,-226 1240,-169.14 1240,-169.14"/>
<polygon fill="black" stroke="black" points="1243.5,-169.14 1240,-159.14 1236.5,-169.14 1243.5,-169.14"/>
</g>
<!-- c_0_152 -->
<g id="node4" class="node">
<title>c_0_152</title>
<g id="a_node4"><a xlink:href="c_0_152.html" xlink:title="{ s.c.c. X₁|FinSequence(X₁,carrier(TOP&#45;REAL(2)))|Relation&#45;like(X₁)|circular(X₁,carrier(TOP&#45;REAL(2)))|special(X₁)|standard(X₁)|unfolded(X₁)|⇊|constant(X₁)|in(skolem₂(X₁),proj1(X₁))}" target="_parent">
<polygon fill="#f8edd1" stroke="#7f7542" points="809.5,-16.5 809.5,-166.5 1084.5,-166.5 1084.5,-16.5 809.5,-16.5"/>
<text text-anchor="middle" x="947" y="-155.3" font-family="Times,serif" font-size="14.00">s.c.c. X₁</text>
<polyline fill="none" stroke="#7f7542" points="809.5,-151.5 1084.5,-151.5 "/>
<text text-anchor="middle" x="947" y="-140.3" font-family="Times,serif" font-size="14.00">FinSequence(X₁,carrier(TOP&#45;REAL(2)))</text>
<polyline fill="none" stroke="#7f7542" points="809.5,-136.5 1084.5,-136.5 "/>
<text text-anchor="middle" x="947" y="-125.3" font-family="Times,serif" font-size="14.00">Relation&#45;like(X₁)</text>
<polyline fill="none" stroke="#7f7542" points="809.5,-121.5 1084.5,-121.5 "/>
<text text-anchor="middle" x="947" y="-110.3" font-family="Times,serif" font-size="14.00">circular(X₁,carrier(TOP&#45;REAL(2)))</text>
<polyline fill="none" stroke="#7f7542" points="809.5,-106.5 1084.5,-106.5 "/>
<text text-anchor="middle" x="947" y="-95.3" font-family="Times,serif" font-size="14.00">special(X₁)</text>
<polyline fill="none" stroke="#7f7542" points="809.5,-91.5 1084.5,-91.5 "/>
<text text-anchor="middle" x="947" y="-80.3" font-family="Times,serif" font-size="14.00">standard(X₁)</text>
<polyline fill="none" stroke="#7f7542" points="809.5,-76.5 1084.5,-76.5 "/>
<text text-anchor="middle" x="947" y="-65.3" font-family="Times,serif" font-size="14.00">unfolded(X₁)</text>
<polyline fill="none" stroke="#7f7542" points="809.5,-61.5 1084.5,-61.5 "/>
<text text-anchor="middle" x="947" y="-50.3" font-family="Times,serif" font-size="14.00">⇊</text>
<polyline fill="none" stroke="#7f7542" points="809.5,-46.5 1084.5,-46.5 "/>
<text text-anchor="middle" x="947" y="-35.3" font-family="Times,serif" font-size="14.00">constant(X₁)</text>
<polyline fill="none" stroke="#7f7542" points="809.5,-31.5 1084.5,-31.5 "/>
<text text-anchor="middle" x="947" y="-20.3" font-family="Times,serif" font-size="14.00">in(skolem₂(X₁),proj1(X₁))</text>
</a>
</g>
</g>
<!-- c_0_130&#45;&gt;c_0_152 -->
<g id="edge3" class="edge">
<title>c_0_130&#45;&gt;c_0_152</title>
<path fill="none" stroke="black" stroke-dasharray="5,2" d="M734,-203.26C734,-185.21 734,-163 734,-163 734,-163 799.4,-163 799.4,-163"/>
<polygon fill="black" stroke="black" points="799.4,-166.5 809.4,-163 799.4,-159.5 799.4,-166.5"/>
</g>
<!-- c_0_228 -->
<g id="node5" class="node">
<title>c_0_228</title>
<g id="a_node5"><a xlink:href="c_0_228.html" xlink:title="{FinSequence&#45;like(skolem₁)}" target="_parent">
<polygon fill="#fa6900" stroke="#7f7542" points="602.5,-84 602.5,-99 791.5,-99 791.5,-84 602.5,-84"/>
<text text-anchor="middle" x="697" y="-87.8" font-family="Times,serif" font-size="14.00">FinSequence&#45;like(skolem₁)</text>
</a>
</g>
</g>
<!-- c_0_130&#45;&gt;c_0_228 -->
<g id="edge4" class="edge">
<title>c_0_130&#45;&gt;c_0_228</title>
<path fill="none" stroke="black" stroke-dasharray="5,2" d="M697,-203.49C697,-203.49 697,-109.12 697,-109.12"/>
<polygon fill="black" stroke="black" points="700.5,-109.12 697,-99.12 693.5,-109.12 700.5,-109.12"/>
</g>
<!-- c_0_181 -->
<g id="node6" class="node">
<title>c_0_181</title>
<g id="a_node6"><a xlink:href="c_0_181.html" xlink:title="{ s.c.c. X₁|FinSequence(X₁,carrier(TOP&#45;REAL(2)))|circular(X₁,carrier(TOP&#45;REAL(2)))|special(X₁)|standard(X₁)|unfolded(X₁)|⇊|constant(X₁)|skolem₂(X₁) ∈ ℕ}" target="_parent">
<polygon fill="#f8edd1" stroke="#7f7542" points="309.5,-24 309.5,-159 584.5,-159 584.5,-24 309.5,-24"/>
<text text-anchor="middle" x="447" y="-147.8" font-family="Times,serif" font-size="14.00">s.c.c. X₁</text>
<polyline fill="none" stroke="#7f7542" points="309.5,-144 584.5,-144 "/>
<text text-anchor="middle" x="447" y="-132.8" font-family="Times,serif" font-size="14.00">FinSequence(X₁,carrier(TOP&#45;REAL(2)))</text>
<polyline fill="none" stroke="#7f7542" points="309.5,-129 584.5,-129 "/>
<text text-anchor="middle" x="447" y="-117.8" font-family="Times,serif" font-size="14.00">circular(X₁,carrier(TOP&#45;REAL(2)))</text>
<polyline fill="none" stroke="#7f7542" points="309.5,-114 584.5,-114 "/>
<text text-anchor="middle" x="447" y="-102.8" font-family="Times,serif" font-size="14.00">special(X₁)</text>
<polyline fill="none" stroke="#7f7542" points="309.5,-99 584.5,-99 "/>
<text text-anchor="middle" x="447" y="-87.8" font-family="Times,serif" font-size="14.00">standard(X₁)</text>
<polyline fill="none" stroke="#7f7542" points="309.5,-84 584.5,-84 "/>
<text text-anchor="middle" x="447" y="-72.8" font-family="Times,serif" font-size="14.00">unfolded(X₁)</text>
<polyline fill="none" stroke="#7f7542" points="309.5,-69 584.5,-69 "/>
<text text-anchor="middle" x="447" y="-57.8" font-family="Times,serif" font-size="14.00">⇊</text>
<polyline fill="none" stroke="#7f7542" points="309.5,-54 584.5,-54 "/>
<text text-anchor="middle" x="447" y="-42.8" font-family="Times,serif" font-size="14.00">constant(X₁)</text>
<polyline fill="none" stroke="#7f7542" points="309.5,-39 584.5,-39 "/>
<text text-anchor="middle" x="447" y="-27.8" font-family="Times,serif" font-size="14.00">skolem₂(X₁) ∈ ℕ</text>
</a>
</g>
</g>
<!-- c_0_130&#45;&gt;c_0_181 -->
<g id="edge5" class="edge">
<title>c_0_130&#45;&gt;c_0_181</title>
<path fill="none" stroke="black" stroke-dasharray="5,2" d="M660,-203.01C660,-174.33 660,-129 660,-129 660,-129 594.6,-129 594.6,-129"/>
<polygon fill="black" stroke="black" points="594.6,-125.5 584.6,-129 594.6,-132.5 594.6,-125.5"/>
</g>
<!-- c_0_179 -->
<g id="node7" class="node">
<title>c_0_179</title>
<g id="a_node7"><a xlink:href="c_0_179.html" xlink:title="{ s.c.c. X₁|FinSequence(X₁,carrier(TOP&#45;REAL(2)))|circular(X₁,carrier(TOP&#45;REAL(2)))|special(X₁)|standard(X₁)|unfolded(X₁)|⇊|1 ≤ skolem₂(X₁)|constant(X₁)}" target="_parent">
<polygon fill="#f8edd1" stroke="#7f7542" points="16.5,-24 16.5,-159 291.5,-159 291.5,-24 16.5,-24"/>
<text text-anchor="middle" x="154" y="-147.8" font-family="Times,serif" font-size="14.00">s.c.c. X₁</text>
<polyline fill="none" stroke="#7f7542" points="16.5,-144 291.5,-144 "/>
<text text-anchor="middle" x="154" y="-132.8" font-family="Times,serif" font-size="14.00">FinSequence(X₁,carrier(TOP&#45;REAL(2)))</text>
<polyline fill="none" stroke="#7f7542" points="16.5,-129 291.5,-129 "/>
<text text-anchor="middle" x="154" y="-117.8" font-family="Times,serif" font-size="14.00">circular(X₁,carrier(TOP&#45;REAL(2)))</text>
<polyline fill="none" stroke="#7f7542" points="16.5,-114 291.5,-114 "/>
<text text-anchor="middle" x="154" y="-102.8" font-family="Times,serif" font-size="14.00">special(X₁)</text>
<polyline fill="none" stroke="#7f7542" points="16.5,-99 291.5,-99 "/>
<text text-anchor="middle" x="154" y="-87.8" font-family="Times,serif" font-size="14.00">standard(X₁)</text>
<polyline fill="none" stroke="#7f7542" points="16.5,-84 291.5,-84 "/>
<text text-anchor="middle" x="154" y="-72.8" font-family="Times,serif" font-size="14.00">unfolded(X₁)</text>
<polyline fill="none" stroke="#7f7542" points="16.5,-69 291.5,-69 "/>
<text text-anchor="middle" x="154" y="-57.8" font-family="Times,serif" font-size="14.00">⇊</text>
<polyline fill="none" stroke="#7f7542" points="16.5,-54 291.5,-54 "/>
<text text-anchor="middle" x="154" y="-42.8" font-family="Times,serif" font-size="14.00">1 ≤ skolem₂(X₁)</text>
<polyline fill="none" stroke="#7f7542" points="16.5,-39 291.5,-39 "/>
<text text-anchor="middle" x="154" y="-27.8" font-family="Times,serif" font-size="14.00">constant(X₁)</text>
</a>
</g>
</g>
<!-- c_0_130&#45;&gt;c_0_179 -->
<g id="edge6" class="edge">
<title>c_0_130&#45;&gt;c_0_179</title>
<path fill="none" stroke="black" stroke-dasharray="5,2" d="M622.92,-226C474.33,-226 154,-226 154,-226 154,-226 154,-169.14 154,-169.14"/>
<polygon fill="black" stroke="black" points="157.5,-169.14 154,-159.14 150.5,-169.14 157.5,-169.14"/>
</g>
</g>
</svg>
