<?xml version="1.0" encoding="UTF-8" standalone="no"?>
<!DOCTYPE svg PUBLIC "-//W3C//DTD SVG 1.1//EN"
 "http://www.w3.org/Graphics/SVG/1.1/DTD/svg11.dtd">
<!-- Generated by graphviz version 5.0.0 (0)
 -->
<!-- Title: proof Pages: 1 -->
<svg width="4730pt" height="280pt"
 viewBox="0.00 0.00 4730.00 280.00" xmlns="http://www.w3.org/2000/svg" xmlns:xlink="http://www.w3.org/1999/xlink">
<g id="graph0" class="graph" transform="scale(1 1) rotate(0) translate(4 276)">
<title>proof</title>
<polygon fill="white" stroke="transparent" points="-4,4 -4,-276 4726,-276 4726,4 -4,4"/>
<g id="clust1" class="cluster">
<title>cluster_0</title>
<polygon fill="none" stroke="black" stroke-dasharray="1,5" points="2184,-232 2184,-264 2296,-264 2296,-232 2184,-232"/>
</g>
<g id="clust2" class="cluster">
<title>cluster_1</title>
<polygon fill="none" stroke="black" stroke-width="2" points="2074,-180 2074,-212 2406,-212 2406,-180 2074,-180"/>
</g>
<g id="clust3" class="cluster">
<title>cluster_2</title>
<polygon fill="none" stroke="black" stroke-dasharray="1,5" points="8,-8 8,-160 4714,-160 4714,-8 8,-8"/>
</g>
<!-- t49_jordan5d -->
<g id="node1" class="node">
<title>t49_jordan5d</title>
<g id="a_node1"><a xlink:href="http://grid01.ciirc.cvut.cz/~mptp/7.13.01_4.181.1147/html/jordan5d.html#T49" xlink:title="t49_jordan5d" target="_blank">
<polygon fill="#fa6900" stroke="#7f7542" points="2192.5,-240.5 2192.5,-255.5 2287.5,-255.5 2287.5,-240.5 2192.5,-240.5"/>
<text text-anchor="middle" x="2240" y="-244.3" font-family="Times,serif" font-size="14.00">t49_jordan5d</text>
</a>
</g>
</g>
<!-- c_0_78 -->
<g id="node2" class="node">
<title>c_0_78</title>
<g id="a_node2"><a xlink:href="c_0_78.html" xlink:title="{FinSequence(skolem₁,carrier(TOP&#45;REAL(2)))}" target="_parent">
<polygon fill="#fa6900" stroke="#7f7542" points="2082,-188.5 2082,-203.5 2398,-203.5 2398,-188.5 2082,-188.5"/>
<text text-anchor="middle" x="2240" y="-192.3" font-family="Times,serif" font-size="14.00">FinSequence(skolem₁,carrier(TOP&#45;REAL(2)))</text>
</a>
</g>
</g>
<!-- t49_jordan5d&#45;&gt;c_0_78 -->
<g id="edge1" class="edge">
<title>t49_jordan5d&#45;&gt;c_0_78</title>
<path fill="none" stroke="black" d="M2240,-240.33C2240,-240.33 2240,-213.7 2240,-213.7"/>
<polygon fill="black" stroke="black" points="2243.5,-213.7 2240,-203.7 2236.5,-213.7 2243.5,-213.7"/>
</g>
<!-- c_0_215 -->
<g id="node3" class="node">
<title>c_0_215</title>
<g id="a_node3"><a xlink:href="c_0_215.html" xlink:title="{(2 L~ skolem₁) ∈ bool(carrier(TOP&#45;REAL(2)))|1 ≤ X₁|X₁ ∈ ℝ ∈ ℕ|X₁ ≤ len(skolem₁)|n_e_s(skolem₁) ∈ ℝ ∈ ℕ|⇊|( `2 (carrier(TOP&#45;REAL(2)) /. skolem₁ /. X₁)) = S&#45;bound(2 L~ skolem₁)}" target="_parent">
<polygon fill="#fa6900" stroke="#7f7542" points="4216,-31.5 4216,-136.5 4706,-136.5 4706,-31.5 4216,-31.5"/>
<text text-anchor="middle" x="4461" y="-125.3" font-family="Times,serif" font-size="14.00">(2 L~ skolem₁) ∈ bool(carrier(TOP&#45;REAL(2)))</text>
<polyline fill="none" stroke="#7f7542" points="4216,-121.5 4706,-121.5 "/>
<text text-anchor="middle" x="4461" y="-110.3" font-family="Times,serif" font-size="14.00">1 ≤ X₁</text>
<polyline fill="none" stroke="#7f7542" points="4216,-106.5 4706,-106.5 "/>
<text text-anchor="middle" x="4461" y="-95.3" font-family="Times,serif" font-size="14.00">X₁ ∈ ℝ ∈ ℕ</text>
<polyline fill="none" stroke="#7f7542" points="4216,-91.5 4706,-91.5 "/>
<text text-anchor="middle" x="4461" y="-80.3" font-family="Times,serif" font-size="14.00">X₁ ≤ len(skolem₁)</text>
<polyline fill="none" stroke="#7f7542" points="4216,-76.5 4706,-76.5 "/>
<text text-anchor="middle" x="4461" y="-65.3" font-family="Times,serif" font-size="14.00">n_e_s(skolem₁) ∈ ℝ ∈ ℕ</text>
<polyline fill="none" stroke="#7f7542" points="4216,-61.5 4706,-61.5 "/>
<text text-anchor="middle" x="4461" y="-50.3" font-family="Times,serif" font-size="14.00">⇊</text>
<polyline fill="none" stroke="#7f7542" points="4216,-46.5 4706,-46.5 "/>
<text text-anchor="middle" x="4461" y="-35.3" font-family="Times,serif" font-size="14.00">( `2 (carrier(TOP&#45;REAL(2)) /. skolem₁ /. X₁)) = S&#45;bound(2 L~ skolem₁)</text>
</a>
</g>
</g>
<!-- c_0_78&#45;&gt;c_0_215 -->
<g id="edge2" class="edge">
<title>c_0_78&#45;&gt;c_0_215</title>
<path fill="none" stroke="black" stroke-dasharray="5,2" d="M2398.39,-202C2906.26,-202 4461,-202 4461,-202 4461,-202 4461,-146.79 4461,-146.79"/>
<polygon fill="black" stroke="black" points="4464.5,-146.79 4461,-136.79 4457.5,-146.79 4464.5,-146.79"/>
</g>
<!-- c_0_263 -->
<g id="node4" class="node">
<title>c_0_263</title>
<g id="a_node4"><a xlink:href="c_0_263.html" xlink:title="{(2 L~ skolem₁) ∈ bool(carrier(TOP&#45;REAL(2)))|FinSequence(skolem₁,carrier(TOP&#45;REAL(2)))|ext&#45;real&#45;membered(ℕ)|⇊|⊥}" target="_parent">
<polygon fill="#fa6900" stroke="#7f7542" points="3880,-46.5 3880,-121.5 4198,-121.5 4198,-46.5 3880,-46.5"/>
<text text-anchor="middle" x="4039" y="-110.3" font-family="Times,serif" font-size="14.00">(2 L~ skolem₁) ∈ bool(carrier(TOP&#45;REAL(2)))</text>
<polyline fill="none" stroke="#7f7542" points="3880,-106.5 4198,-106.5 "/>
<text text-anchor="middle" x="4039" y="-95.3" font-family="Times,serif" font-size="14.00">FinSequence(skolem₁,carrier(TOP&#45;REAL(2)))</text>
<polyline fill="none" stroke="#7f7542" points="3880,-91.5 4198,-91.5 "/>
<text text-anchor="middle" x="4039" y="-80.3" font-family="Times,serif" font-size="14.00">ext&#45;real&#45;membered(ℕ)</text>
<polyline fill="none" stroke="#7f7542" points="3880,-76.5 4198,-76.5 "/>
<text text-anchor="middle" x="4039" y="-65.3" font-family="Times,serif" font-size="14.00">⇊</text>
<polyline fill="none" stroke="#7f7542" points="3880,-61.5 4198,-61.5 "/>
<text text-anchor="middle" x="4039" y="-50.3" font-family="Times,serif" font-size="14.00">⊥</text>
</a>
</g>
</g>
<!-- c_0_78&#45;&gt;c_0_263 -->
<g id="edge3" class="edge">
<title>c_0_78&#45;&gt;c_0_263</title>
<path fill="none" stroke="black" stroke-dasharray="5,2" d="M2398.07,-200C2837.06,-200 4039,-200 4039,-200 4039,-200 4039,-131.66 4039,-131.66"/>
<polygon fill="black" stroke="black" points="4042.5,-131.66 4039,-121.66 4035.5,-131.66 4042.5,-131.66"/>
</g>
<!-- c_0_220 -->
<g id="node5" class="node">
<title>c_0_220</title>
<g id="a_node5"><a xlink:href="c_0_220.html" xlink:title="{ext&#45;real&#45;membered(ℕ)|⇊|1 ≤ len(skolem₁)}" target="_parent">
<polygon fill="#fa6900" stroke="#7f7542" points="3702,-61.5 3702,-106.5 3862,-106.5 3862,-61.5 3702,-61.5"/>
<text text-anchor="middle" x="3782" y="-95.3" font-family="Times,serif" font-size="14.00">ext&#45;real&#45;membered(ℕ)</text>
<polyline fill="none" stroke="#7f7542" points="3702,-91.5 3862,-91.5 "/>
<text text-anchor="middle" x="3782" y="-80.3" font-family="Times,serif" font-size="14.00">⇊</text>
<polyline fill="none" stroke="#7f7542" points="3702,-76.5 3862,-76.5 "/>
<text text-anchor="middle" x="3782" y="-65.3" font-family="Times,serif" font-size="14.00">1 ≤ len(skolem₁)</text>
</a>
</g>
</g>
<!-- c_0_78&#45;&gt;c_0_220 -->
<g id="edge4" class="edge">
<title>c_0_78&#45;&gt;c_0_220</title>
<path fill="none" stroke="black" stroke-dasharray="5,2" d="M2398.13,-198C2791.38,-198 3782,-198 3782,-198 3782,-198 3782,-116.52 3782,-116.52"/>
<polygon fill="black" stroke="black" points="3785.5,-116.52 3782,-106.52 3778.5,-116.52 3785.5,-116.52"/>
</g>
<!-- c_0_230 -->
<g id="node6" class="node">
<title>c_0_230</title>
<g id="a_node6"><a xlink:href="c_0_230.html" xlink:title="{Relation&#45;like(skolem₁)}" target="_parent">
<polygon fill="#fa6900" stroke="#7f7542" points="3528,-76.5 3528,-91.5 3684,-91.5 3684,-76.5 3528,-76.5"/>
<text text-anchor="middle" x="3606" y="-80.3" font-family="Times,serif" font-size="14.00">Relation&#45;like(skolem₁)</text>
</a>
</g>
</g>
<!-- c_0_78&#45;&gt;c_0_230 -->
<g id="edge5" class="edge">
<title>c_0_78&#45;&gt;c_0_230</title>
<path fill="none" stroke="black" stroke-dasharray="5,2" d="M2398.03,-196C2757.61,-196 3606,-196 3606,-196 3606,-196 3606,-101.7 3606,-101.7"/>
<polygon fill="black" stroke="black" points="3609.5,-101.7 3606,-91.7 3602.5,-101.7 3609.5,-101.7"/>
</g>
<!-- c_0_256 -->
<g id="node7" class="node">
<title>c_0_256</title>
<g id="a_node7"><a xlink:href="c_0_256.html" xlink:title="{(2 L~ skolem₁) ∈ bool(carrier(TOP&#45;REAL(2)))|(carrier(TOP&#45;REAL(2)) /. skolem₁ /. 1) ∈ carrier(TOP&#45;REAL(2))|&#45;valued(skolem₁,carrier(TOP&#45;REAL(2)))|1 ≤ skolem₂(skolem₁)|ext&#45;real&#45;membered(ℕ)|n_e_s(skolem₁) ∈ ℝ ∈ ℕ|⇊|⊥}" target="_parent">
<polygon fill="#fa6900" stroke="#7f7542" points="3074,-24 3074,-144 3510,-144 3510,-24 3074,-24"/>
<text text-anchor="middle" x="3292" y="-132.8" font-family="Times,serif" font-size="14.00">(2 L~ skolem₁) ∈ bool(carrier(TOP&#45;REAL(2)))</text>
<polyline fill="none" stroke="#7f7542" points="3074,-129 3510,-129 "/>
<text text-anchor="middle" x="3292" y="-117.8" font-family="Times,serif" font-size="14.00">(carrier(TOP&#45;REAL(2)) /. skolem₁ /. 1) ∈ carrier(TOP&#45;REAL(2))</text>
<polyline fill="none" stroke="#7f7542" points="3074,-114 3510,-114 "/>
<text text-anchor="middle" x="3292" y="-102.8" font-family="Times,serif" font-size="14.00">&#45;valued(skolem₁,carrier(TOP&#45;REAL(2)))</text>
<polyline fill="none" stroke="#7f7542" points="3074,-99 3510,-99 "/>
<text text-anchor="middle" x="3292" y="-87.8" font-family="Times,serif" font-size="14.00">1 ≤ skolem₂(skolem₁)</text>
<polyline fill="none" stroke="#7f7542" points="3074,-84 3510,-84 "/>
<text text-anchor="middle" x="3292" y="-72.8" font-family="Times,serif" font-size="14.00">ext&#45;real&#45;membered(ℕ)</text>
<polyline fill="none" stroke="#7f7542" points="3074,-69 3510,-69 "/>
<text text-anchor="middle" x="3292" y="-57.8" font-family="Times,serif" font-size="14.00">n_e_s(skolem₁) ∈ ℝ ∈ ℕ</text>
<polyline fill="none" stroke="#7f7542" points="3074,-54 3510,-54 "/>
<text text-anchor="middle" x="3292" y="-42.8" font-family="Times,serif" font-size="14.00">⇊</text>
<polyline fill="none" stroke="#7f7542" points="3074,-39 3510,-39 "/>
<text text-anchor="middle" x="3292" y="-27.8" font-family="Times,serif" font-size="14.00">⊥</text>
</a>
</g>
</g>
<!-- c_0_78&#45;&gt;c_0_256 -->
<g id="edge6" class="edge">
<title>c_0_78&#45;&gt;c_0_256</title>
<path fill="none" stroke="black" stroke-dasharray="5,2" d="M2398.06,-194C2691.74,-194 3292,-194 3292,-194 3292,-194 3292,-154.15 3292,-154.15"/>
<polygon fill="black" stroke="black" points="3295.5,-154.15 3292,-144.15 3288.5,-154.15 3295.5,-154.15"/>
</g>
<!-- c_0_229 -->
<g id="node8" class="node">
<title>c_0_229</title>
<g id="a_node8"><a xlink:href="c_0_229.html" xlink:title="{Function&#45;like(skolem₁)}" target="_parent">
<polygon fill="#fa6900" stroke="#7f7542" points="2896,-76.5 2896,-91.5 3056,-91.5 3056,-76.5 2896,-76.5"/>
<text text-anchor="middle" x="2976" y="-80.3" font-family="Times,serif" font-size="14.00">Function&#45;like(skolem₁)</text>
</a>
</g>
</g>
<!-- c_0_78&#45;&gt;c_0_229 -->
<g id="edge7" class="edge">
<title>c_0_78&#45;&gt;c_0_229</title>
<path fill="none" stroke="black" stroke-dasharray="5,2" d="M2398.34,-192C2614.66,-192 2976,-192 2976,-192 2976,-192 2976,-101.77 2976,-101.77"/>
<polygon fill="black" stroke="black" points="2979.5,-101.77 2976,-91.77 2972.5,-101.77 2979.5,-101.77"/>
</g>
<!-- c_0_213 -->
<g id="node9" class="node">
<title>c_0_213</title>
<g id="a_node9"><a xlink:href="c_0_213.html" xlink:title="{ext&#45;real&#45;membered(ℕ)|⇊|skolem₂(skolem₁) ∈ 𝔼}" target="_parent">
<polygon fill="#fa6900" stroke="#7f7542" points="2718,-61.5 2718,-106.5 2878,-106.5 2878,-61.5 2718,-61.5"/>
<text text-anchor="middle" x="2798" y="-95.3" font-family="Times,serif" font-size="14.00">ext&#45;real&#45;membered(ℕ)</text>
<polyline fill="none" stroke="#7f7542" points="2718,-91.5 2878,-91.5 "/>
<text text-anchor="middle" x="2798" y="-80.3" font-family="Times,serif" font-size="14.00">⇊</text>
<polyline fill="none" stroke="#7f7542" points="2718,-76.5 2878,-76.5 "/>
<text text-anchor="middle" x="2798" y="-65.3" font-family="Times,serif" font-size="14.00">skolem₂(skolem₁) ∈ 𝔼</text>
</a>
</g>
</g>
<!-- c_0_78&#45;&gt;c_0_213 -->
<g id="edge8" class="edge">
<title>c_0_78&#45;&gt;c_0_213</title>
<path fill="none" stroke="black" stroke-dasharray="5,2" d="M2398.04,-190C2563.02,-190 2798,-190 2798,-190 2798,-190 2798,-116.74 2798,-116.74"/>
<polygon fill="black" stroke="black" points="2801.5,-116.74 2798,-106.74 2794.5,-116.74 2801.5,-116.74"/>
</g>
<!-- c_0_240 -->
<g id="node10" class="node">
<title>c_0_240</title>
<g id="a_node10"><a xlink:href="c_0_240.html" xlink:title="{( `2 (carrier(TOP&#45;REAL(2)) /. skolem₁ /. 1)) = S&#45;bound(2 L~ skolem₁)|(2 L~ skolem₁) ∈ bool(carrier(TOP&#45;REAL(2)))|(carrier(TOP&#45;REAL(2)) /. skolem₁ /. skolem₂(skolem₁)) ∈ carrier(TOP&#45;REAL(2))|1 ≤ skolem₂(skolem₁)|n_e_s(skolem₁) ∈ ℝ ∈ ℕ|skolem₂(skolem₁) ∈ ℝ ∈ ℕ|skolem₂(skolem₁) ≤ len(skolem₁)|⇊|⊥}" target="_parent">
<polygon fill="#fa6900" stroke="#7f7542" points="2152,-16.5 2152,-151.5 2700,-151.5 2700,-16.5 2152,-16.5"/>
<text text-anchor="middle" x="2426" y="-140.3" font-family="Times,serif" font-size="14.00">( `2 (carrier(TOP&#45;REAL(2)) /. skolem₁ /. 1)) = S&#45;bound(2 L~ skolem₁)</text>
<polyline fill="none" stroke="#7f7542" points="2152,-136.5 2700,-136.5 "/>
<text text-anchor="middle" x="2426" y="-125.3" font-family="Times,serif" font-size="14.00">(2 L~ skolem₁) ∈ bool(carrier(TOP&#45;REAL(2)))</text>
<polyline fill="none" stroke="#7f7542" points="2152,-121.5 2700,-121.5 "/>
<text text-anchor="middle" x="2426" y="-110.3" font-family="Times,serif" font-size="14.00">(carrier(TOP&#45;REAL(2)) /. skolem₁ /. skolem₂(skolem₁)) ∈ carrier(TOP&#45;REAL(2))</text>
<polyline fill="none" stroke="#7f7542" points="2152,-106.5 2700,-106.5 "/>
<text text-anchor="middle" x="2426" y="-95.3" font-family="Times,serif" font-size="14.00">1 ≤ skolem₂(skolem₁)</text>
<polyline fill="none" stroke="#7f7542" points="2152,-91.5 2700,-91.5 "/>
<text text-anchor="middle" x="2426" y="-80.3" font-family="Times,serif" font-size="14.00">n_e_s(skolem₁) ∈ ℝ ∈ ℕ</text>
<polyline fill="none" stroke="#7f7542" points="2152,-76.5 2700,-76.5 "/>
<text text-anchor="middle" x="2426" y="-65.3" font-family="Times,serif" font-size="14.00">skolem₂(skolem₁) ∈ ℝ ∈ ℕ</text>
<polyline fill="none" stroke="#7f7542" points="2152,-61.5 2700,-61.5 "/>
<text text-anchor="middle" x="2426" y="-50.3" font-family="Times,serif" font-size="14.00">skolem₂(skolem₁) ≤ len(skolem₁)</text>
<polyline fill="none" stroke="#7f7542" points="2152,-46.5 2700,-46.5 "/>
<text text-anchor="middle" x="2426" y="-35.3" font-family="Times,serif" font-size="14.00">⇊</text>
<polyline fill="none" stroke="#7f7542" points="2152,-31.5 2700,-31.5 "/>
<text text-anchor="middle" x="2426" y="-20.3" font-family="Times,serif" font-size="14.00">⊥</text>
</a>
</g>
</g>
<!-- c_0_78&#45;&gt;c_0_240 -->
<g id="edge9" class="edge">
<title>c_0_78&#45;&gt;c_0_240</title>
<path fill="none" stroke="black" stroke-dasharray="5,2" d="M2275,-188.3C2275,-188.3 2275,-161.55 2275,-161.55"/>
<polygon fill="black" stroke="black" points="2278.5,-161.55 2275,-151.55 2271.5,-161.55 2278.5,-161.55"/>
</g>
<!-- c_0_242 -->
<g id="node11" class="node">
<title>c_0_242</title>
<g id="a_node11"><a xlink:href="c_0_242.html" xlink:title="{E₁ ≤ skolem₂(skolem₁)|ext&#45;real&#45;membered(ℕ)|⇊|E₁ ≤ len(skolem₁)}" target="_parent">
<polygon fill="#fa6900" stroke="#7f7542" points="1974,-54 1974,-114 2134,-114 2134,-54 1974,-54"/>
<text text-anchor="middle" x="2054" y="-102.8" font-family="Times,serif" font-size="14.00">E₁ ≤ skolem₂(skolem₁)</text>
<polyline fill="none" stroke="#7f7542" points="1974,-99 2134,-99 "/>
<text text-anchor="middle" x="2054" y="-87.8" font-family="Times,serif" font-size="14.00">ext&#45;real&#45;membered(ℕ)</text>
<polyline fill="none" stroke="#7f7542" points="1974,-84 2134,-84 "/>
<text text-anchor="middle" x="2054" y="-72.8" font-family="Times,serif" font-size="14.00">⇊</text>
<polyline fill="none" stroke="#7f7542" points="1974,-69 2134,-69 "/>
<text text-anchor="middle" x="2054" y="-57.8" font-family="Times,serif" font-size="14.00">E₁ ≤ len(skolem₁)</text>
</a>
</g>
</g>
<!-- c_0_78&#45;&gt;c_0_242 -->
<g id="edge10" class="edge">
<title>c_0_78&#45;&gt;c_0_242</title>
<path fill="none" stroke="black" stroke-dasharray="5,2" d="M2116.67,-188.3C2116.67,-188.3 2116.67,-124.22 2116.67,-124.22"/>
<polygon fill="black" stroke="black" points="2120.17,-124.22 2116.67,-114.22 2113.17,-124.22 2120.17,-124.22"/>
</g>
<!-- c_0_98 -->
<g id="node12" class="node">
<title>c_0_98</title>
<g id="a_node12"><a xlink:href="c_0_98.html" xlink:title="{X₁ = n_e_s(skolem₁)|X₁ ∈ ℝ ∈ ℕ|⇊|(skolem₁ . X₁) = N&#45;max(2 L~ skolem₁)}" target="_parent">
<polygon fill="#fa6900" stroke="#7f7542" points="1688,-54 1688,-114 1956,-114 1956,-54 1688,-54"/>
<text text-anchor="middle" x="1822" y="-102.8" font-family="Times,serif" font-size="14.00">X₁ = n_e_s(skolem₁)</text>
<polyline fill="none" stroke="#7f7542" points="1688,-99 1956,-99 "/>
<text text-anchor="middle" x="1822" y="-87.8" font-family="Times,serif" font-size="14.00">X₁ ∈ ℝ ∈ ℕ</text>
<polyline fill="none" stroke="#7f7542" points="1688,-84 1956,-84 "/>
<text text-anchor="middle" x="1822" y="-72.8" font-family="Times,serif" font-size="14.00">⇊</text>
<polyline fill="none" stroke="#7f7542" points="1688,-69 1956,-69 "/>
<text text-anchor="middle" x="1822" y="-57.8" font-family="Times,serif" font-size="14.00">(skolem₁ . X₁) = N&#45;max(2 L~ skolem₁)</text>
</a>
</g>
</g>
<!-- c_0_78&#45;&gt;c_0_98 -->
<g id="edge11" class="edge">
<title>c_0_78&#45;&gt;c_0_98</title>
<path fill="none" stroke="black" stroke-dasharray="5,2" d="M2081.97,-190C1963.6,-190 1822,-190 1822,-190 1822,-190 1822,-124.09 1822,-124.09"/>
<polygon fill="black" stroke="black" points="1825.5,-124.09 1822,-114.09 1818.5,-124.09 1825.5,-124.09"/>
</g>
<!-- c_0_228 -->
<g id="node13" class="node">
<title>c_0_228</title>
<g id="a_node13"><a xlink:href="c_0_228.html" xlink:title="{FinSequence&#45;like(skolem₁)}" target="_parent">
<polygon fill="#fa6900" stroke="#7f7542" points="1480.5,-76.5 1480.5,-91.5 1669.5,-91.5 1669.5,-76.5 1480.5,-76.5"/>
<text text-anchor="middle" x="1575" y="-80.3" font-family="Times,serif" font-size="14.00">FinSequence&#45;like(skolem₁)</text>
</a>
</g>
</g>
<!-- c_0_78&#45;&gt;c_0_228 -->
<g id="edge12" class="edge">
<title>c_0_78&#45;&gt;c_0_228</title>
<path fill="none" stroke="black" stroke-dasharray="5,2" d="M2081.98,-192C1885.31,-192 1575,-192 1575,-192 1575,-192 1575,-101.77 1575,-101.77"/>
<polygon fill="black" stroke="black" points="1578.5,-101.77 1575,-91.77 1571.5,-101.77 1578.5,-101.77"/>
</g>
<!-- c_0_269 -->
<g id="node14" class="node">
<title>c_0_269</title>
<g id="a_node14"><a xlink:href="c_0_269.html" xlink:title="{ext&#45;real&#45;membered(ℕ)|⇊|⊥}" target="_parent">
<polygon fill="#fa6900" stroke="#7f7542" points="1302,-61.5 1302,-106.5 1462,-106.5 1462,-61.5 1302,-61.5"/>
<text text-anchor="middle" x="1382" y="-95.3" font-family="Times,serif" font-size="14.00">ext&#45;real&#45;membered(ℕ)</text>
<polyline fill="none" stroke="#7f7542" points="1302,-91.5 1462,-91.5 "/>
<text text-anchor="middle" x="1382" y="-80.3" font-family="Times,serif" font-size="14.00">⇊</text>
<polyline fill="none" stroke="#7f7542" points="1302,-76.5 1462,-76.5 "/>
<text text-anchor="middle" x="1382" y="-65.3" font-family="Times,serif" font-size="14.00">⊥</text>
</a>
</g>
</g>
<!-- c_0_78&#45;&gt;c_0_269 -->
<g id="edge13" class="edge">
<title>c_0_78&#45;&gt;c_0_269</title>
<path fill="none" stroke="black" stroke-dasharray="5,2" d="M2081.88,-194C1834.02,-194 1382,-194 1382,-194 1382,-194 1382,-116.53 1382,-116.53"/>
<polygon fill="black" stroke="black" points="1385.5,-116.53 1382,-106.53 1378.5,-116.53 1385.5,-116.53"/>
</g>
<!-- c_0_169 -->
<g id="node15" class="node">
<title>c_0_169</title>
<g id="a_node15"><a xlink:href="c_0_169.html" xlink:title="{(2 L~ skolem₁) ∈ bool(carrier(TOP&#45;REAL(2)))|n_e_s(skolem₁) ∈ ℝ ∈ ℕ|⇊|N&#45;bound(2 L~ skolem₁) = S&#45;bound(2 L~ skolem₁)}" target="_parent">
<polygon fill="#fa6900" stroke="#7f7542" points="932.5,-54 932.5,-114 1283.5,-114 1283.5,-54 932.5,-54"/>
<text text-anchor="middle" x="1108" y="-102.8" font-family="Times,serif" font-size="14.00">(2 L~ skolem₁) ∈ bool(carrier(TOP&#45;REAL(2)))</text>
<polyline fill="none" stroke="#7f7542" points="932.5,-99 1283.5,-99 "/>
<text text-anchor="middle" x="1108" y="-87.8" font-family="Times,serif" font-size="14.00">n_e_s(skolem₁) ∈ ℝ ∈ ℕ</text>
<polyline fill="none" stroke="#7f7542" points="932.5,-84 1283.5,-84 "/>
<text text-anchor="middle" x="1108" y="-72.8" font-family="Times,serif" font-size="14.00">⇊</text>
<polyline fill="none" stroke="#7f7542" points="932.5,-69 1283.5,-69 "/>
<text text-anchor="middle" x="1108" y="-57.8" font-family="Times,serif" font-size="14.00">N&#45;bound(2 L~ skolem₁) = S&#45;bound(2 L~ skolem₁)</text>
</a>
</g>
</g>
<!-- c_0_78&#45;&gt;c_0_169 -->
<g id="edge14" class="edge">
<title>c_0_78&#45;&gt;c_0_169</title>
<path fill="none" stroke="black" stroke-dasharray="5,2" d="M2081.71,-197C1770.29,-197 1108,-197 1108,-197 1108,-197 1108,-124.28 1108,-124.28"/>
<polygon fill="black" stroke="black" points="1111.5,-124.28 1108,-114.28 1104.5,-124.28 1111.5,-124.28"/>
</g>
<!-- c_0_238 -->
<g id="node16" class="node">
<title>c_0_238</title>
<g id="a_node16"><a xlink:href="c_0_238.html" xlink:title="{ext&#45;real&#45;membered(ℕ)|⇊|skolem₂(skolem₁) ≤ len(skolem₁)}" target="_parent">
<polygon fill="#fa6900" stroke="#7f7542" points="683.5,-61.5 683.5,-106.5 914.5,-106.5 914.5,-61.5 683.5,-61.5"/>
<text text-anchor="middle" x="799" y="-95.3" font-family="Times,serif" font-size="14.00">ext&#45;real&#45;membered(ℕ)</text>
<polyline fill="none" stroke="#7f7542" points="683.5,-91.5 914.5,-91.5 "/>
<text text-anchor="middle" x="799" y="-80.3" font-family="Times,serif" font-size="14.00">⇊</text>
<polyline fill="none" stroke="#7f7542" points="683.5,-76.5 914.5,-76.5 "/>
<text text-anchor="middle" x="799" y="-65.3" font-family="Times,serif" font-size="14.00">skolem₂(skolem₁) ≤ len(skolem₁)</text>
</a>
</g>
</g>
<!-- c_0_78&#45;&gt;c_0_238 -->
<g id="edge15" class="edge">
<title>c_0_78&#45;&gt;c_0_238</title>
<path fill="none" stroke="black" stroke-dasharray="5,2" d="M2081.67,-199C1707.33,-199 799,-199 799,-199 799,-199 799,-116.72 799,-116.72"/>
<polygon fill="black" stroke="black" points="802.5,-116.72 799,-106.72 795.5,-116.72 802.5,-116.72"/>
</g>
<!-- c_0_203 -->
<g id="node17" class="node">
<title>c_0_203</title>
<g id="a_node17"><a xlink:href="c_0_203.html" xlink:title="{&#45;defined(skolem₁,ℕ)}" target="_parent">
<polygon fill="#fa6900" stroke="#7f7542" points="524.5,-76.5 524.5,-91.5 665.5,-91.5 665.5,-76.5 524.5,-76.5"/>
<text text-anchor="middle" x="595" y="-80.3" font-family="Times,serif" font-size="14.00">&#45;defined(skolem₁,ℕ)</text>
</a>
</g>
</g>
<!-- c_0_78&#45;&gt;c_0_203 -->
<g id="edge16" class="edge">
<title>c_0_78&#45;&gt;c_0_203</title>
<path fill="none" stroke="black" stroke-dasharray="5,2" d="M2081.9,-201C1669.89,-201 595,-201 595,-201 595,-201 595,-101.68 595,-101.68"/>
<polygon fill="black" stroke="black" points="598.5,-101.68 595,-91.68 591.5,-101.68 598.5,-101.68"/>
</g>
<!-- c_0_190 -->
<g id="node18" class="node">
<title>c_0_190</title>
<g id="a_node18"><a xlink:href="c_0_190.html" xlink:title="{(2 L~ skolem₁) ∈ bool(carrier(TOP&#45;REAL(2)))|1 ≤ X₁|X₁ ∈ ℝ ∈ ℕ|X₁ ≤ len(skolem₁)|n_e_s(skolem₁) ∈ ℝ ∈ ℕ|⇊|( `2 (carrier(TOP&#45;REAL(2)) /. skolem₁ /. X₁)) ≤ S&#45;bound(2 L~ skolem₁)}" target="_parent">
<polygon fill="#fa6900" stroke="#7f7542" points="16,-31.5 16,-136.5 506,-136.5 506,-31.5 16,-31.5"/>
<text text-anchor="middle" x="261" y="-125.3" font-family="Times,serif" font-size="14.00">(2 L~ skolem₁) ∈ bool(carrier(TOP&#45;REAL(2)))</text>
<polyline fill="none" stroke="#7f7542" points="16,-121.5 506,-121.5 "/>
<text text-anchor="middle" x="261" y="-110.3" font-family="Times,serif" font-size="14.00">1 ≤ X₁</text>
<polyline fill="none" stroke="#7f7542" points="16,-106.5 506,-106.5 "/>
<text text-anchor="middle" x="261" y="-95.3" font-family="Times,serif" font-size="14.00">X₁ ∈ ℝ ∈ ℕ</text>
<polyline fill="none" stroke="#7f7542" points="16,-91.5 506,-91.5 "/>
<text text-anchor="middle" x="261" y="-80.3" font-family="Times,serif" font-size="14.00">X₁ ≤ len(skolem₁)</text>
<polyline fill="none" stroke="#7f7542" points="16,-76.5 506,-76.5 "/>
<text text-anchor="middle" x="261" y="-65.3" font-family="Times,serif" font-size="14.00">n_e_s(skolem₁) ∈ ℝ ∈ ℕ</text>
<polyline fill="none" stroke="#7f7542" points="16,-61.5 506,-61.5 "/>
<text text-anchor="middle" x="261" y="-50.3" font-family="Times,serif" font-size="14.00">⇊</text>
<polyline fill="none" stroke="#7f7542" points="16,-46.5 506,-46.5 "/>
<text text-anchor="middle" x="261" y="-35.3" font-family="Times,serif" font-size="14.00">( `2 (carrier(TOP&#45;REAL(2)) /. skolem₁ /. X₁)) ≤ S&#45;bound(2 L~ skolem₁)</text>
</a>
</g>
</g>
<!-- c_0_78&#45;&gt;c_0_190 -->
<g id="edge17" class="edge">
<title>c_0_78&#45;&gt;c_0_190</title>
<path fill="none" stroke="black" stroke-dasharray="5,2" d="M2099.33,-188.4C2099.33,-170.09 2099.33,-125 2099.33,-125 2099.33,-125 516.07,-125 516.07,-125"/>
<polygon fill="black" stroke="black" points="516.07,-121.5 506.07,-125 516.07,-128.5 516.07,-121.5"/>
</g>
</g>
</svg>
