<?xml version="1.0" encoding="UTF-8" standalone="no"?>
<!DOCTYPE svg PUBLIC "-//W3C//DTD SVG 1.1//EN"
 "http://www.w3.org/Graphics/SVG/1.1/DTD/svg11.dtd">
<!-- Generated by graphviz version 5.0.0 (0)
 -->
<!-- Title: proof Pages: 1 -->
<svg width="128pt" height="220pt"
 viewBox="0.00 0.00 128.00 220.00" xmlns="http://www.w3.org/2000/svg" xmlns:xlink="http://www.w3.org/1999/xlink">
<g id="graph0" class="graph" transform="scale(1 1) rotate(0) translate(4 216)">
<title>proof</title>
<polygon fill="white" stroke="transparent" points="-4,4 -4,-216 124,-216 124,4 -4,4"/>
<g id="clust1" class="cluster">
<title>cluster_0</title>
<polygon fill="none" stroke="black" stroke-dasharray="1,5" points="8,-172 8,-204 112,-204 112,-172 8,-172"/>
</g>
<g id="clust2" class="cluster">
<title>cluster_1</title>
<polygon fill="none" stroke="black" stroke-width="2" points="30,-90 30,-152 90,-152 90,-90 30,-90"/>
</g>
<g id="clust3" class="cluster">
<title>cluster_2</title>
<polygon fill="none" stroke="black" stroke-dasharray="1,5" points="29,-8 29,-70 91,-70 91,-8 29,-8"/>
</g>
<!-- fc6_ordinal1 -->
<g id="node1" class="node">
<title>fc6_ordinal1</title>
<g id="a_node1"><a xlink:href="http://grid01.ciirc.cvut.cz/~mptp/7.13.01_4.181.1147/html/ordinal1.html#FC6" xlink:title="fc6_ordinal1" target="_blank">
<polygon fill="#69d2e7" stroke="#7f7542" points="16,-180.5 16,-195.5 104,-195.5 104,-180.5 16,-180.5"/>
<text text-anchor="middle" x="60" y="-184.3" font-family="Times,serif" font-size="14.00">fc6_ordinal1</text>
</a>
</g>
</g>
<!-- c_0_176 -->
<g id="node2" class="node">
<title>c_0_176</title>
<g id="a_node2"><a xlink:href="c_0_176.html" xlink:title="{ω = Ø|⇊|⊥}" target="_parent">
<polygon fill="#f8edd1" stroke="#7f7542" points="38,-98.5 38,-143.5 82,-143.5 82,-98.5 38,-98.5"/>
<text text-anchor="middle" x="60" y="-132.3" font-family="Times,serif" font-size="14.00">ω = Ø</text>
<polyline fill="none" stroke="#7f7542" points="38,-128.5 82,-128.5 "/>
<text text-anchor="middle" x="60" y="-117.3" font-family="Times,serif" font-size="14.00">⇊</text>
<polyline fill="none" stroke="#7f7542" points="38,-113.5 82,-113.5 "/>
<text text-anchor="middle" x="60" y="-102.3" font-family="Times,serif" font-size="14.00">⊥</text>
</a>
</g>
</g>
<!-- fc6_ordinal1&#45;&gt;c_0_176 -->
<g id="edge1" class="edge">
<title>fc6_ordinal1&#45;&gt;c_0_176</title>
<path fill="none" stroke="black" d="M60,-180.31C60,-180.31 60,-153.76 60,-153.76"/>
<polygon fill="black" stroke="black" points="63.5,-153.76 60,-143.76 56.5,-153.76 63.5,-153.76"/>
</g>
<!-- c_0_197 -->
<g id="node3" class="node">
<title>c_0_197</title>
<g id="a_node3"><a xlink:href="c_0_197.html" xlink:title="{ℕ = Ø|⇊|⊥}" target="_parent">
<polygon fill="#f8edd1" stroke="#7f7542" points="37,-16.5 37,-61.5 83,-61.5 83,-16.5 37,-16.5"/>
<text text-anchor="middle" x="60" y="-50.3" font-family="Times,serif" font-size="14.00">ℕ = Ø</text>
<polyline fill="none" stroke="#7f7542" points="37,-46.5 83,-46.5 "/>
<text text-anchor="middle" x="60" y="-35.3" font-family="Times,serif" font-size="14.00">⇊</text>
<polyline fill="none" stroke="#7f7542" points="37,-31.5 83,-31.5 "/>
<text text-anchor="middle" x="60" y="-20.3" font-family="Times,serif" font-size="14.00">⊥</text>
</a>
</g>
</g>
<!-- c_0_176&#45;&gt;c_0_197 -->
<g id="edge2" class="edge">
<title>c_0_176&#45;&gt;c_0_197</title>
<path fill="none" stroke="black" stroke-dasharray="5,2" d="M60,-98.16C60,-98.16 60,-71.72 60,-71.72"/>
<polygon fill="black" stroke="black" points="63.5,-71.72 60,-61.72 56.5,-71.72 63.5,-71.72"/>
</g>
</g>
</svg>
