<?xml version="1.0" encoding="UTF-8" standalone="no"?>
<!DOCTYPE svg PUBLIC "-//W3C//DTD SVG 1.1//EN"
 "http://www.w3.org/Graphics/SVG/1.1/DTD/svg11.dtd">
<!-- Generated by graphviz version 5.0.0 (0)
 -->
<!-- Title: proof Pages: 1 -->
<svg width="298pt" height="370pt"
 viewBox="0.00 0.00 298.00 370.00" xmlns="http://www.w3.org/2000/svg" xmlns:xlink="http://www.w3.org/1999/xlink">
<g id="graph0" class="graph" transform="scale(1 1) rotate(0) translate(4 366)">
<title>proof</title>
<polygon fill="white" stroke="transparent" points="-4,4 -4,-366 294,-366 294,4 -4,4"/>
<g id="clust1" class="cluster">
<title>cluster_0</title>
<polygon fill="none" stroke="black" stroke-dasharray="1,5" points="8,-262 8,-354 282,-354 282,-262 8,-262"/>
</g>
<g id="clust2" class="cluster">
<title>cluster_1</title>
<polygon fill="none" stroke="black" stroke-width="2" points="63,-135 63,-242 227,-242 227,-135 63,-135"/>
</g>
<g id="clust3" class="cluster">
<title>cluster_2</title>
<polygon fill="none" stroke="black" stroke-dasharray="1,5" points="63,-8 63,-115 227,-115 227,-8 63,-8"/>
</g>
<!-- c_0_111 -->
<g id="node1" class="node">
<title>c_0_111</title>
<g id="a_node1"><a xlink:href="c_0_111.html" xlink:title="{X₂ ∈ bool(X₃)|in(X₁,X₂)|⇊|X₁ ∈ X₃}" target="_parent">
<polygon fill="#f8edd1" stroke="#7f7542" points="182.5,-278 182.5,-338 273.5,-338 273.5,-278 182.5,-278"/>
<text text-anchor="middle" x="228" y="-326.8" font-family="Times,serif" font-size="14.00">X₂ ∈ bool(X₃)</text>
<polyline fill="none" stroke="#7f7542" points="182.5,-323 273.5,-323 "/>
<text text-anchor="middle" x="228" y="-311.8" font-family="Times,serif" font-size="14.00">in(X₁,X₂)</text>
<polyline fill="none" stroke="#7f7542" points="182.5,-308 273.5,-308 "/>
<text text-anchor="middle" x="228" y="-296.8" font-family="Times,serif" font-size="14.00">⇊</text>
<polyline fill="none" stroke="#7f7542" points="182.5,-293 273.5,-293 "/>
<text text-anchor="middle" x="228" y="-281.8" font-family="Times,serif" font-size="14.00">X₁ ∈ X₃</text>
</a>
</g>
</g>
<!-- c_0_136 -->
<g id="node3" class="node">
<title>c_0_136</title>
<g id="a_node3"><a xlink:href="c_0_136.html" xlink:title="{FinSequence&#45;like(X₂)|Function&#45;like(X₂)|Relation&#45;like(X₂)|in(X₁,dom(X₂))|⇊|X₁ ∈ ℕ}" target="_parent">
<polygon fill="#f8edd1" stroke="#7f7542" points="71,-143.5 71,-233.5 219,-233.5 219,-143.5 71,-143.5"/>
<text text-anchor="middle" x="145" y="-222.3" font-family="Times,serif" font-size="14.00">FinSequence&#45;like(X₂)</text>
<polyline fill="none" stroke="#7f7542" points="71,-218.5 219,-218.5 "/>
<text text-anchor="middle" x="145" y="-207.3" font-family="Times,serif" font-size="14.00">Function&#45;like(X₂)</text>
<polyline fill="none" stroke="#7f7542" points="71,-203.5 219,-203.5 "/>
<text text-anchor="middle" x="145" y="-192.3" font-family="Times,serif" font-size="14.00">Relation&#45;like(X₂)</text>
<polyline fill="none" stroke="#7f7542" points="71,-188.5 219,-188.5 "/>
<text text-anchor="middle" x="145" y="-177.3" font-family="Times,serif" font-size="14.00">in(X₁,dom(X₂))</text>
<polyline fill="none" stroke="#7f7542" points="71,-173.5 219,-173.5 "/>
<text text-anchor="middle" x="145" y="-162.3" font-family="Times,serif" font-size="14.00">⇊</text>
<polyline fill="none" stroke="#7f7542" points="71,-158.5 219,-158.5 "/>
<text text-anchor="middle" x="145" y="-147.3" font-family="Times,serif" font-size="14.00">X₁ ∈ ℕ</text>
</a>
</g>
</g>
<!-- c_0_111&#45;&gt;c_0_136 -->
<g id="edge1" class="edge">
<title>c_0_111&#45;&gt;c_0_136</title>
<path fill="none" stroke="black" d="M200.75,-277.85C200.75,-277.85 200.75,-243.56 200.75,-243.56"/>
<polygon fill="black" stroke="black" points="204.25,-243.56 200.75,-233.56 197.25,-243.56 204.25,-243.56"/>
</g>
<!-- c_0_112 -->
<g id="node2" class="node">
<title>c_0_112</title>
<g id="a_node2"><a xlink:href="c_0_112.html" xlink:title="{FinSequence&#45;like(X₁)|Function&#45;like(X₁)|Relation&#45;like(X₁)|⇊|dom(X₁) ∈ bool(ℕ)}" target="_parent">
<polygon fill="#f8edd1" stroke="#7f7542" points="16,-270.5 16,-345.5 164,-345.5 164,-270.5 16,-270.5"/>
<text text-anchor="middle" x="90" y="-334.3" font-family="Times,serif" font-size="14.00">FinSequence&#45;like(X₁)</text>
<polyline fill="none" stroke="#7f7542" points="16,-330.5 164,-330.5 "/>
<text text-anchor="middle" x="90" y="-319.3" font-family="Times,serif" font-size="14.00">Function&#45;like(X₁)</text>
<polyline fill="none" stroke="#7f7542" points="16,-315.5 164,-315.5 "/>
<text text-anchor="middle" x="90" y="-304.3" font-family="Times,serif" font-size="14.00">Relation&#45;like(X₁)</text>
<polyline fill="none" stroke="#7f7542" points="16,-300.5 164,-300.5 "/>
<text text-anchor="middle" x="90" y="-289.3" font-family="Times,serif" font-size="14.00">⇊</text>
<polyline fill="none" stroke="#7f7542" points="16,-285.5 164,-285.5 "/>
<text text-anchor="middle" x="90" y="-274.3" font-family="Times,serif" font-size="14.00">dom(X₁) ∈ bool(ℕ)</text>
</a>
</g>
</g>
<!-- c_0_112&#45;&gt;c_0_136 -->
<g id="edge2" class="edge">
<title>c_0_112&#45;&gt;c_0_136</title>
<path fill="none" stroke="black" d="M117.5,-270.19C117.5,-270.19 117.5,-243.59 117.5,-243.59"/>
<polygon fill="black" stroke="black" points="121,-243.59 117.5,-233.59 114,-243.59 121,-243.59"/>
</g>
<!-- c_0_157 -->
<g id="node4" class="node">
<title>c_0_157</title>
<g id="a_node4"><a xlink:href="c_0_157.html" xlink:title="{FinSequence&#45;like(X₂)|Function&#45;like(X₂)|Relation&#45;like(X₂)|in(X₁,proj1(X₂))|⇊|X₁ ∈ ℕ}" target="_parent">
<polygon fill="#f8edd1" stroke="#7f7542" points="71,-16.5 71,-106.5 219,-106.5 219,-16.5 71,-16.5"/>
<text text-anchor="middle" x="145" y="-95.3" font-family="Times,serif" font-size="14.00">FinSequence&#45;like(X₂)</text>
<polyline fill="none" stroke="#7f7542" points="71,-91.5 219,-91.5 "/>
<text text-anchor="middle" x="145" y="-80.3" font-family="Times,serif" font-size="14.00">Function&#45;like(X₂)</text>
<polyline fill="none" stroke="#7f7542" points="71,-76.5 219,-76.5 "/>
<text text-anchor="middle" x="145" y="-65.3" font-family="Times,serif" font-size="14.00">Relation&#45;like(X₂)</text>
<polyline fill="none" stroke="#7f7542" points="71,-61.5 219,-61.5 "/>
<text text-anchor="middle" x="145" y="-50.3" font-family="Times,serif" font-size="14.00">in(X₁,proj1(X₂))</text>
<polyline fill="none" stroke="#7f7542" points="71,-46.5 219,-46.5 "/>
<text text-anchor="middle" x="145" y="-35.3" font-family="Times,serif" font-size="14.00">⇊</text>
<polyline fill="none" stroke="#7f7542" points="71,-31.5 219,-31.5 "/>
<text text-anchor="middle" x="145" y="-20.3" font-family="Times,serif" font-size="14.00">X₁ ∈ ℕ</text>
</a>
</g>
</g>
<!-- c_0_136&#45;&gt;c_0_157 -->
<g id="edge3" class="edge">
<title>c_0_136&#45;&gt;c_0_157</title>
<path fill="none" stroke="black" stroke-dasharray="5,2" d="M145,-143.37C145,-143.37 145,-116.92 145,-116.92"/>
<polygon fill="black" stroke="black" points="148.5,-116.92 145,-106.92 141.5,-116.92 148.5,-116.92"/>
</g>
</g>
</svg>
