<?xml version="1.0" encoding="UTF-8" standalone="no"?>
<!DOCTYPE svg PUBLIC "-//W3C//DTD SVG 1.1//EN"
 "http://www.w3.org/Graphics/SVG/1.1/DTD/svg11.dtd">
<!-- Generated by graphviz version 5.0.0 (0)
 -->
<!-- Title: proof Pages: 1 -->
<svg width="2098pt" height="370pt"
 viewBox="0.00 0.00 2098.00 370.00" xmlns="http://www.w3.org/2000/svg" xmlns:xlink="http://www.w3.org/1999/xlink">
<g id="graph0" class="graph" transform="scale(1 1) rotate(0) translate(4 366)">
<title>proof</title>
<polygon fill="white" stroke="transparent" points="-4,4 -4,-366 2094,-366 2094,4 -4,4"/>
<g id="clust1" class="cluster">
<title>cluster_0</title>
<polygon fill="none" stroke="black" stroke-dasharray="1,5" points="8,-187 8,-354 2082,-354 2082,-187 8,-187"/>
</g>
<g id="clust2" class="cluster">
<title>cluster_1</title>
<polygon fill="none" stroke="black" stroke-width="2" points="1099,-105 1099,-167 1347,-167 1347,-105 1099,-105"/>
</g>
<g id="clust3" class="cluster">
<title>cluster_2</title>
<polygon fill="none" stroke="black" stroke-dasharray="1,5" points="1135,-8 1135,-85 1311,-85 1311,-8 1135,-8"/>
</g>
<!-- c_0_80 -->
<g id="node1" class="node">
<title>c_0_80</title>
<g id="a_node1"><a xlink:href="c_0_80.html" xlink:title="{ s.c.c. skolem₁}" target="_parent">
<polygon fill="#fa6900" stroke="#7f7542" points="1976.5,-263 1976.5,-278 2073.5,-278 2073.5,-263 1976.5,-263"/>
<text text-anchor="middle" x="2025" y="-266.8" font-family="Times,serif" font-size="14.00">s.c.c. skolem₁</text>
</a>
</g>
</g>
<!-- c_0_238 -->
<g id="node11" class="node">
<title>c_0_238</title>
<g id="a_node11"><a xlink:href="c_0_238.html" xlink:title="{ext&#45;real&#45;membered(ℕ)|⇊|skolem₂(skolem₁) ≤ len(skolem₁)}" target="_parent">
<polygon fill="#fa6900" stroke="#7f7542" points="1107.5,-113.5 1107.5,-158.5 1338.5,-158.5 1338.5,-113.5 1107.5,-113.5"/>
<text text-anchor="middle" x="1223" y="-147.3" font-family="Times,serif" font-size="14.00">ext&#45;real&#45;membered(ℕ)</text>
<polyline fill="none" stroke="#7f7542" points="1107.5,-143.5 1338.5,-143.5 "/>
<text text-anchor="middle" x="1223" y="-132.3" font-family="Times,serif" font-size="14.00">⇊</text>
<polyline fill="none" stroke="#7f7542" points="1107.5,-128.5 1338.5,-128.5 "/>
<text text-anchor="middle" x="1223" y="-117.3" font-family="Times,serif" font-size="14.00">skolem₂(skolem₁) ≤ len(skolem₁)</text>
</a>
</g>
</g>
<!-- c_0_80&#45;&gt;c_0_238 -->
<g id="edge1" class="edge">
<title>c_0_80&#45;&gt;c_0_238</title>
<path fill="none" stroke="black" d="M2025,-262.93C2025,-232.67 2025,-122 2025,-122 2025,-122 1348.76,-122 1348.76,-122"/>
<polygon fill="black" stroke="black" points="1348.76,-118.5 1338.76,-122 1348.76,-125.5 1348.76,-118.5"/>
</g>
<!-- c_0_232 -->
<g id="node2" class="node">
<title>c_0_232</title>
<g id="a_node2"><a xlink:href="c_0_232.html" xlink:title="{ext&#45;real&#45;membered(ℕ)|⇊|skolem₂(skolem₁) ≤ skolem₂(skolem₁)}" target="_parent">
<polygon fill="#fa6900" stroke="#7f7542" points="1693.5,-248 1693.5,-293 1958.5,-293 1958.5,-248 1693.5,-248"/>
<text text-anchor="middle" x="1826" y="-281.8" font-family="Times,serif" font-size="14.00">ext&#45;real&#45;membered(ℕ)</text>
<polyline fill="none" stroke="#7f7542" points="1693.5,-278 1958.5,-278 "/>
<text text-anchor="middle" x="1826" y="-266.8" font-family="Times,serif" font-size="14.00">⇊</text>
<polyline fill="none" stroke="#7f7542" points="1693.5,-263 1958.5,-263 "/>
<text text-anchor="middle" x="1826" y="-251.8" font-family="Times,serif" font-size="14.00">skolem₂(skolem₁) ≤ skolem₂(skolem₁)</text>
</a>
</g>
</g>
<!-- c_0_232&#45;&gt;c_0_238 -->
<g id="edge2" class="edge">
<title>c_0_232&#45;&gt;c_0_238</title>
<path fill="none" stroke="black" d="M1826,-247.78C1826,-208.25 1826,-131 1826,-131 1826,-131 1348.55,-131 1348.55,-131"/>
<polygon fill="black" stroke="black" points="1348.55,-127.5 1338.55,-131 1348.55,-134.5 1348.55,-127.5"/>
</g>
<!-- c_0_79 -->
<g id="node3" class="node">
<title>c_0_79</title>
<g id="a_node3"><a xlink:href="c_0_79.html" xlink:title="{standard(skolem₁)}" target="_parent">
<polygon fill="#fa6900" stroke="#7f7542" points="1545,-263 1545,-278 1675,-278 1675,-263 1545,-263"/>
<text text-anchor="middle" x="1610" y="-266.8" font-family="Times,serif" font-size="14.00">standard(skolem₁)</text>
</a>
</g>
</g>
<!-- c_0_79&#45;&gt;c_0_238 -->
<g id="edge3" class="edge">
<title>c_0_79&#45;&gt;c_0_238</title>
<path fill="none" stroke="black" d="M1610,-262.73C1610,-234.63 1610,-140 1610,-140 1610,-140 1348.59,-140 1348.59,-140"/>
<polygon fill="black" stroke="black" points="1348.59,-136.5 1338.59,-140 1348.59,-143.5 1348.59,-136.5"/>
</g>
<!-- c_0_84 -->
<g id="node4" class="node">
<title>c_0_84</title>
<g id="a_node4"><a xlink:href="c_0_84.html" xlink:title="{constant(skolem₁)|⇊|⊥}" target="_parent">
<polygon fill="#fa6900" stroke="#7f7542" points="1399,-248 1399,-293 1527,-293 1527,-248 1399,-248"/>
<text text-anchor="middle" x="1463" y="-281.8" font-family="Times,serif" font-size="14.00">constant(skolem₁)</text>
<polyline fill="none" stroke="#7f7542" points="1399,-278 1527,-278 "/>
<text text-anchor="middle" x="1463" y="-266.8" font-family="Times,serif" font-size="14.00">⇊</text>
<polyline fill="none" stroke="#7f7542" points="1399,-263 1527,-263 "/>
<text text-anchor="middle" x="1463" y="-251.8" font-family="Times,serif" font-size="14.00">⊥</text>
</a>
</g>
</g>
<!-- c_0_84&#45;&gt;c_0_238 -->
<g id="edge4" class="edge">
<title>c_0_84&#45;&gt;c_0_238</title>
<path fill="none" stroke="black" d="M1463,-247.93C1463,-212.79 1463,-149 1463,-149 1463,-149 1348.78,-149 1348.78,-149"/>
<polygon fill="black" stroke="black" points="1348.78,-145.5 1338.78,-149 1348.78,-152.5 1348.78,-145.5"/>
</g>
<!-- c_0_213 -->
<g id="node5" class="node">
<title>c_0_213</title>
<g id="a_node5"><a xlink:href="c_0_213.html" xlink:title="{ext&#45;real&#45;membered(ℕ)|⇊|skolem₂(skolem₁) ∈ 𝔼}" target="_parent">
<polygon fill="#fa6900" stroke="#7f7542" points="1221,-248 1221,-293 1381,-293 1381,-248 1221,-248"/>
<text text-anchor="middle" x="1301" y="-281.8" font-family="Times,serif" font-size="14.00">ext&#45;real&#45;membered(ℕ)</text>
<polyline fill="none" stroke="#7f7542" points="1221,-278 1381,-278 "/>
<text text-anchor="middle" x="1301" y="-266.8" font-family="Times,serif" font-size="14.00">⇊</text>
<polyline fill="none" stroke="#7f7542" points="1221,-263 1381,-263 "/>
<text text-anchor="middle" x="1301" y="-251.8" font-family="Times,serif" font-size="14.00">skolem₂(skolem₁) ∈ 𝔼</text>
</a>
</g>
</g>
<!-- c_0_213&#45;&gt;c_0_238 -->
<g id="edge5" class="edge">
<title>c_0_213&#45;&gt;c_0_238</title>
<path fill="none" stroke="black" d="M1279.75,-247.99C1279.75,-247.99 1279.75,-168.59 1279.75,-168.59"/>
<polygon fill="black" stroke="black" points="1283.25,-168.59 1279.75,-158.59 1276.25,-168.59 1283.25,-168.59"/>
</g>
<!-- c_0_82 -->
<g id="node6" class="node">
<title>c_0_82</title>
<g id="a_node6"><a xlink:href="c_0_82.html" xlink:title="{special(skolem₁)}" target="_parent">
<polygon fill="#fa6900" stroke="#7f7542" points="1087,-263 1087,-278 1203,-278 1203,-263 1087,-263"/>
<text text-anchor="middle" x="1145" y="-266.8" font-family="Times,serif" font-size="14.00">special(skolem₁)</text>
</a>
</g>
</g>
<!-- c_0_82&#45;&gt;c_0_238 -->
<g id="edge6" class="edge">
<title>c_0_82&#45;&gt;c_0_238</title>
<path fill="none" stroke="black" d="M1171.17,-262.88C1171.17,-262.88 1171.17,-168.65 1171.17,-168.65"/>
<polygon fill="black" stroke="black" points="1174.67,-168.65 1171.17,-158.65 1167.67,-168.65 1174.67,-168.65"/>
</g>
<!-- c_0_198 -->
<g id="node7" class="node">
<title>c_0_198</title>
<g id="a_node7"><a xlink:href="c_0_198.html" xlink:title="{ s.c.c. X₂|E₁ ≤ skolem₂(X₂)|FinSequence(X₂,carrier(TOP&#45;REAL(2)))|circular(X₂,carrier(TOP&#45;REAL(2)))|special(X₂)|standard(X₂)|unfolded(X₂)|⇊|E₁ ≤ len(X₂)|constant(X₂)}" target="_parent">
<polygon fill="#f8edd1" stroke="#7f7542" points="793.5,-195.5 793.5,-345.5 1068.5,-345.5 1068.5,-195.5 793.5,-195.5"/>
<text text-anchor="middle" x="931" y="-334.3" font-family="Times,serif" font-size="14.00">s.c.c. X₂</text>
<polyline fill="none" stroke="#7f7542" points="793.5,-330.5 1068.5,-330.5 "/>
<text text-anchor="middle" x="931" y="-319.3" font-family="Times,serif" font-size="14.00">E₁ ≤ skolem₂(X₂)</text>
<polyline fill="none" stroke="#7f7542" points="793.5,-315.5 1068.5,-315.5 "/>
<text text-anchor="middle" x="931" y="-304.3" font-family="Times,serif" font-size="14.00">FinSequence(X₂,carrier(TOP&#45;REAL(2)))</text>
<polyline fill="none" stroke="#7f7542" points="793.5,-300.5 1068.5,-300.5 "/>
<text text-anchor="middle" x="931" y="-289.3" font-family="Times,serif" font-size="14.00">circular(X₂,carrier(TOP&#45;REAL(2)))</text>
<polyline fill="none" stroke="#7f7542" points="793.5,-285.5 1068.5,-285.5 "/>
<text text-anchor="middle" x="931" y="-274.3" font-family="Times,serif" font-size="14.00">special(X₂)</text>
<polyline fill="none" stroke="#7f7542" points="793.5,-270.5 1068.5,-270.5 "/>
<text text-anchor="middle" x="931" y="-259.3" font-family="Times,serif" font-size="14.00">standard(X₂)</text>
<polyline fill="none" stroke="#7f7542" points="793.5,-255.5 1068.5,-255.5 "/>
<text text-anchor="middle" x="931" y="-244.3" font-family="Times,serif" font-size="14.00">unfolded(X₂)</text>
<polyline fill="none" stroke="#7f7542" points="793.5,-240.5 1068.5,-240.5 "/>
<text text-anchor="middle" x="931" y="-229.3" font-family="Times,serif" font-size="14.00">⇊</text>
<polyline fill="none" stroke="#7f7542" points="793.5,-225.5 1068.5,-225.5 "/>
<text text-anchor="middle" x="931" y="-214.3" font-family="Times,serif" font-size="14.00">E₁ ≤ len(X₂)</text>
<polyline fill="none" stroke="#7f7542" points="793.5,-210.5 1068.5,-210.5 "/>
<text text-anchor="middle" x="931" y="-199.3" font-family="Times,serif" font-size="14.00">constant(X₂)</text>
</a>
</g>
</g>
<!-- c_0_198&#45;&gt;c_0_238 -->
<g id="edge7" class="edge">
<title>c_0_198&#45;&gt;c_0_238</title>
<path fill="none" stroke="black" d="M1068.51,-221C1107.39,-221 1139.33,-221 1139.33,-221 1139.33,-221 1139.33,-168.78 1139.33,-168.78"/>
<polygon fill="black" stroke="black" points="1142.83,-168.78 1139.33,-158.78 1135.83,-168.78 1142.83,-168.78"/>
</g>
<!-- c_0_81 -->
<g id="node8" class="node">
<title>c_0_81</title>
<g id="a_node8"><a xlink:href="c_0_81.html" xlink:title="{unfolded(skolem₁)}" target="_parent">
<polygon fill="#fa6900" stroke="#7f7542" points="646.5,-263 646.5,-278 775.5,-278 775.5,-263 646.5,-263"/>
<text text-anchor="middle" x="711" y="-266.8" font-family="Times,serif" font-size="14.00">unfolded(skolem₁)</text>
</a>
</g>
</g>
<!-- c_0_81&#45;&gt;c_0_238 -->
<g id="edge8" class="edge">
<title>c_0_81&#45;&gt;c_0_238</title>
<path fill="none" stroke="black" d="M711,-262.77C711,-235.74 711,-147 711,-147 711,-147 1097.46,-147 1097.46,-147"/>
<polygon fill="black" stroke="black" points="1097.46,-150.5 1107.46,-147 1097.46,-143.5 1097.46,-150.5"/>
</g>
<!-- c_0_83 -->
<g id="node9" class="node">
<title>c_0_83</title>
<g id="a_node9"><a xlink:href="c_0_83.html" xlink:title="{circular(skolem₁,carrier(TOP&#45;REAL(2)))}" target="_parent">
<polygon fill="#fa6900" stroke="#7f7542" points="350,-263 350,-278 628,-278 628,-263 350,-263"/>
<text text-anchor="middle" x="489" y="-266.8" font-family="Times,serif" font-size="14.00">circular(skolem₁,carrier(TOP&#45;REAL(2)))</text>
</a>
</g>
</g>
<!-- c_0_83&#45;&gt;c_0_238 -->
<g id="edge9" class="edge">
<title>c_0_83&#45;&gt;c_0_238</title>
<path fill="none" stroke="black" d="M489,-262.88C489,-234.43 489,-136 489,-136 489,-136 1097.1,-136 1097.1,-136"/>
<polygon fill="black" stroke="black" points="1097.1,-139.5 1107.1,-136 1097.1,-132.5 1097.1,-139.5"/>
</g>
<!-- c_0_78 -->
<g id="node10" class="node">
<title>c_0_78</title>
<g id="a_node10"><a xlink:href="c_0_78.html" xlink:title="{FinSequence(skolem₁,carrier(TOP&#45;REAL(2)))}" target="_parent">
<polygon fill="#fa6900" stroke="#7f7542" points="16,-263 16,-278 332,-278 332,-263 16,-263"/>
<text text-anchor="middle" x="174" y="-266.8" font-family="Times,serif" font-size="14.00">FinSequence(skolem₁,carrier(TOP&#45;REAL(2)))</text>
</a>
</g>
</g>
<!-- c_0_78&#45;&gt;c_0_238 -->
<g id="edge10" class="edge">
<title>c_0_78&#45;&gt;c_0_238</title>
<path fill="none" stroke="black" d="M174,-262.62C174,-232.19 174,-124 174,-124 174,-124 1097.49,-124 1097.49,-124"/>
<polygon fill="black" stroke="black" points="1097.49,-127.5 1107.49,-124 1097.49,-120.5 1097.49,-127.5"/>
</g>
<!-- c_0_242 -->
<g id="node12" class="node">
<title>c_0_242</title>
<g id="a_node12"><a xlink:href="c_0_242.html" xlink:title="{E₁ ≤ skolem₂(skolem₁)|ext&#45;real&#45;membered(ℕ)|⇊|E₁ ≤ len(skolem₁)}" target="_parent">
<polygon fill="#fa6900" stroke="#7f7542" points="1143,-16.5 1143,-76.5 1303,-76.5 1303,-16.5 1143,-16.5"/>
<text text-anchor="middle" x="1223" y="-65.3" font-family="Times,serif" font-size="14.00">E₁ ≤ skolem₂(skolem₁)</text>
<polyline fill="none" stroke="#7f7542" points="1143,-61.5 1303,-61.5 "/>
<text text-anchor="middle" x="1223" y="-50.3" font-family="Times,serif" font-size="14.00">ext&#45;real&#45;membered(ℕ)</text>
<polyline fill="none" stroke="#7f7542" points="1143,-46.5 1303,-46.5 "/>
<text text-anchor="middle" x="1223" y="-35.3" font-family="Times,serif" font-size="14.00">⇊</text>
<polyline fill="none" stroke="#7f7542" points="1143,-31.5 1303,-31.5 "/>
<text text-anchor="middle" x="1223" y="-20.3" font-family="Times,serif" font-size="14.00">E₁ ≤ len(skolem₁)</text>
</a>
</g>
</g>
<!-- c_0_238&#45;&gt;c_0_242 -->
<g id="edge11" class="edge">
<title>c_0_238&#45;&gt;c_0_242</title>
<path fill="none" stroke="black" stroke-dasharray="5,2" d="M1223,-113.42C1223,-113.42 1223,-86.52 1223,-86.52"/>
<polygon fill="black" stroke="black" points="1226.5,-86.52 1223,-76.52 1219.5,-86.52 1226.5,-86.52"/>
</g>
</g>
</svg>
