<?xml version="1.0" encoding="UTF-8" standalone="no"?>
<!DOCTYPE svg PUBLIC "-//W3C//DTD SVG 1.1//EN"
 "http://www.w3.org/Graphics/SVG/1.1/DTD/svg11.dtd">
<!-- Generated by graphviz version 5.0.0 (0)
 -->
<!-- Title: proof Pages: 1 -->
<svg width="1288pt" height="265pt"
 viewBox="0.00 0.00 1288.00 265.00" xmlns="http://www.w3.org/2000/svg" xmlns:xlink="http://www.w3.org/1999/xlink">
<g id="graph0" class="graph" transform="scale(1 1) rotate(0) translate(4 261)">
<title>proof</title>
<polygon fill="white" stroke="transparent" points="-4,4 -4,-261 1284,-261 1284,4 -4,4"/>
<g id="clust1" class="cluster">
<title>cluster_0</title>
<polygon fill="none" stroke="black" stroke-dasharray="1,5" points="563,-217 563,-249 663,-249 663,-217 563,-217"/>
</g>
<g id="clust2" class="cluster">
<title>cluster_1</title>
<polygon fill="none" stroke="black" stroke-width="2" points="582,-165 582,-197 644,-197 644,-165 582,-165"/>
</g>
<g id="clust3" class="cluster">
<title>cluster_2</title>
<polygon fill="none" stroke="black" stroke-dasharray="1,5" points="8,-8 8,-145 1272,-145 1272,-8 8,-8"/>
</g>
<!-- cc4_xreal_0 -->
<g id="node1" class="node">
<title>cc4_xreal_0</title>
<g id="a_node1"><a xlink:href="None" xlink:title="cc4_xreal_0" target="_blank">
<polygon fill="#69d2e7" stroke="#7f7542" points="571.5,-225.5 571.5,-240.5 654.5,-240.5 654.5,-225.5 571.5,-225.5"/>
<text text-anchor="middle" x="613" y="-229.3" font-family="Times,serif" font-size="14.00">cc4_xreal_0</text>
</a>
</g>
</g>
<!-- c_0_192 -->
<g id="node2" class="node">
<title>c_0_192</title>
<g id="a_node2"><a xlink:href="c_0_192.html" xlink:title="{R₁ ∈ 𝔼}" target="_parent">
<polygon fill="#f8edd1" stroke="#7f7542" points="590,-173.5 590,-188.5 636,-188.5 636,-173.5 590,-173.5"/>
<text text-anchor="middle" x="613" y="-177.3" font-family="Times,serif" font-size="14.00">R₁ ∈ 𝔼</text>
</a>
</g>
</g>
<!-- cc4_xreal_0&#45;&gt;c_0_192 -->
<g id="edge1" class="edge">
<title>cc4_xreal_0&#45;&gt;c_0_192</title>
<path fill="none" stroke="black" d="M613,-225.33C613,-225.33 613,-198.7 613,-198.7"/>
<polygon fill="black" stroke="black" points="616.5,-198.7 613,-188.7 609.5,-198.7 616.5,-198.7"/>
</g>
<!-- c_0_215 -->
<g id="node3" class="node">
<title>c_0_215</title>
<g id="a_node3"><a xlink:href="c_0_215.html" xlink:title="{(2 L~ skolem₁) ∈ bool(carrier(TOP&#45;REAL(2)))|1 ≤ X₁|X₁ ∈ ℝ ∈ ℕ|X₁ ≤ len(skolem₁)|n_e_s(skolem₁) ∈ ℝ ∈ ℕ|⇊|( `2 (carrier(TOP&#45;REAL(2)) /. skolem₁ /. X₁)) = S&#45;bound(2 L~ skolem₁)}" target="_parent">
<polygon fill="#fa6900" stroke="#7f7542" points="774,-24 774,-129 1264,-129 1264,-24 774,-24"/>
<text text-anchor="middle" x="1019" y="-117.8" font-family="Times,serif" font-size="14.00">(2 L~ skolem₁) ∈ bool(carrier(TOP&#45;REAL(2)))</text>
<polyline fill="none" stroke="#7f7542" points="774,-114 1264,-114 "/>
<text text-anchor="middle" x="1019" y="-102.8" font-family="Times,serif" font-size="14.00">1 ≤ X₁</text>
<polyline fill="none" stroke="#7f7542" points="774,-99 1264,-99 "/>
<text text-anchor="middle" x="1019" y="-87.8" font-family="Times,serif" font-size="14.00">X₁ ∈ ℝ ∈ ℕ</text>
<polyline fill="none" stroke="#7f7542" points="774,-84 1264,-84 "/>
<text text-anchor="middle" x="1019" y="-72.8" font-family="Times,serif" font-size="14.00">X₁ ≤ len(skolem₁)</text>
<polyline fill="none" stroke="#7f7542" points="774,-69 1264,-69 "/>
<text text-anchor="middle" x="1019" y="-57.8" font-family="Times,serif" font-size="14.00">n_e_s(skolem₁) ∈ ℝ ∈ ℕ</text>
<polyline fill="none" stroke="#7f7542" points="774,-54 1264,-54 "/>
<text text-anchor="middle" x="1019" y="-42.8" font-family="Times,serif" font-size="14.00">⇊</text>
<polyline fill="none" stroke="#7f7542" points="774,-39 1264,-39 "/>
<text text-anchor="middle" x="1019" y="-27.8" font-family="Times,serif" font-size="14.00">( `2 (carrier(TOP&#45;REAL(2)) /. skolem₁ /. X₁)) = S&#45;bound(2 L~ skolem₁)</text>
</a>
</g>
</g>
<!-- c_0_192&#45;&gt;c_0_215 -->
<g id="edge2" class="edge">
<title>c_0_192&#45;&gt;c_0_215</title>
<path fill="none" stroke="black" stroke-dasharray="5,2" d="M626,-173.31C626,-155.72 626,-114 626,-114 626,-114 763.74,-114 763.74,-114"/>
<polygon fill="black" stroke="black" points="763.74,-117.5 773.74,-114 763.74,-110.5 763.74,-117.5"/>
</g>
<!-- c_0_220 -->
<g id="node4" class="node">
<title>c_0_220</title>
<g id="a_node4"><a xlink:href="c_0_220.html" xlink:title="{ext&#45;real&#45;membered(ℕ)|⇊|1 ≤ len(skolem₁)}" target="_parent">
<polygon fill="#fa6900" stroke="#7f7542" points="596,-54 596,-99 756,-99 756,-54 596,-54"/>
<text text-anchor="middle" x="676" y="-87.8" font-family="Times,serif" font-size="14.00">ext&#45;real&#45;membered(ℕ)</text>
<polyline fill="none" stroke="#7f7542" points="596,-84 756,-84 "/>
<text text-anchor="middle" x="676" y="-72.8" font-family="Times,serif" font-size="14.00">⇊</text>
<polyline fill="none" stroke="#7f7542" points="596,-69 756,-69 "/>
<text text-anchor="middle" x="676" y="-57.8" font-family="Times,serif" font-size="14.00">1 ≤ len(skolem₁)</text>
</a>
</g>
</g>
<!-- c_0_192&#45;&gt;c_0_220 -->
<g id="edge3" class="edge">
<title>c_0_192&#45;&gt;c_0_220</title>
<path fill="none" stroke="black" stroke-dasharray="5,2" d="M616,-173.48C616,-173.48 616,-109.13 616,-109.13"/>
<polygon fill="black" stroke="black" points="619.5,-109.13 616,-99.13 612.5,-109.13 619.5,-109.13"/>
</g>
<!-- c_0_209 -->
<g id="node5" class="node">
<title>c_0_209</title>
<g id="a_node5"><a xlink:href="c_0_209.html" xlink:title="{R₁ ≤ R₁}" target="_parent">
<polygon fill="#f8edd1" stroke="#7f7542" points="524.5,-69 524.5,-84 577.5,-84 577.5,-69 524.5,-69"/>
<text text-anchor="middle" x="551" y="-72.8" font-family="Times,serif" font-size="14.00">R₁ ≤ R₁</text>
</a>
</g>
</g>
<!-- c_0_192&#45;&gt;c_0_209 -->
<g id="edge4" class="edge">
<title>c_0_192&#45;&gt;c_0_209</title>
<path fill="none" stroke="black" stroke-dasharray="5,2" d="M589.9,-181C571.22,-181 548,-181 548,-181 548,-181 548,-94.02 548,-94.02"/>
<polygon fill="black" stroke="black" points="551.5,-94.02 548,-84.02 544.5,-94.02 551.5,-94.02"/>
</g>
<!-- c_0_231 -->
<g id="node6" class="node">
<title>c_0_231</title>
<g id="a_node6"><a xlink:href="c_0_231.html" xlink:title="{(2 L~ skolem₁) ∈ bool(carrier(TOP&#45;REAL(2)))|(carrier(TOP&#45;REAL(2)) /. skolem₁ /. X₁) ∈ carrier(TOP&#45;REAL(2))|1 ≤ X₁|X₁ ∈ ℝ ∈ ℕ|X₁ ≤ len(skolem₁)|n_e_s(skolem₁) ∈ ℝ ∈ ℕ|⇊|( `2 (carrier(TOP&#45;REAL(2)) /. skolem₁ /. X₁)) = S&#45;bound(2 L~ skolem₁)}" target="_parent">
<polygon fill="#fa6900" stroke="#7f7542" points="16,-16.5 16,-136.5 506,-136.5 506,-16.5 16,-16.5"/>
<text text-anchor="middle" x="261" y="-125.3" font-family="Times,serif" font-size="14.00">(2 L~ skolem₁) ∈ bool(carrier(TOP&#45;REAL(2)))</text>
<polyline fill="none" stroke="#7f7542" points="16,-121.5 506,-121.5 "/>
<text text-anchor="middle" x="261" y="-110.3" font-family="Times,serif" font-size="14.00">(carrier(TOP&#45;REAL(2)) /. skolem₁ /. X₁) ∈ carrier(TOP&#45;REAL(2))</text>
<polyline fill="none" stroke="#7f7542" points="16,-106.5 506,-106.5 "/>
<text text-anchor="middle" x="261" y="-95.3" font-family="Times,serif" font-size="14.00">1 ≤ X₁</text>
<polyline fill="none" stroke="#7f7542" points="16,-91.5 506,-91.5 "/>
<text text-anchor="middle" x="261" y="-80.3" font-family="Times,serif" font-size="14.00">X₁ ∈ ℝ ∈ ℕ</text>
<polyline fill="none" stroke="#7f7542" points="16,-76.5 506,-76.5 "/>
<text text-anchor="middle" x="261" y="-65.3" font-family="Times,serif" font-size="14.00">X₁ ≤ len(skolem₁)</text>
<polyline fill="none" stroke="#7f7542" points="16,-61.5 506,-61.5 "/>
<text text-anchor="middle" x="261" y="-50.3" font-family="Times,serif" font-size="14.00">n_e_s(skolem₁) ∈ ℝ ∈ ℕ</text>
<polyline fill="none" stroke="#7f7542" points="16,-46.5 506,-46.5 "/>
<text text-anchor="middle" x="261" y="-35.3" font-family="Times,serif" font-size="14.00">⇊</text>
<polyline fill="none" stroke="#7f7542" points="16,-31.5 506,-31.5 "/>
<text text-anchor="middle" x="261" y="-20.3" font-family="Times,serif" font-size="14.00">( `2 (carrier(TOP&#45;REAL(2)) /. skolem₁ /. X₁)) = S&#45;bound(2 L~ skolem₁)</text>
</a>
</g>
</g>
<!-- c_0_192&#45;&gt;c_0_231 -->
<g id="edge5" class="edge">
<title>c_0_192&#45;&gt;c_0_231</title>
<path fill="none" stroke="black" stroke-dasharray="5,2" d="M606,-173.07C606,-159.44 606,-133 606,-133 606,-133 516.21,-133 516.21,-133"/>
<polygon fill="black" stroke="black" points="516.21,-129.5 506.21,-133 516.21,-136.5 516.21,-129.5"/>
</g>
</g>
</svg>
