<?xml version="1.0" encoding="UTF-8" standalone="no"?>
<!DOCTYPE svg PUBLIC "-//W3C//DTD SVG 1.1//EN"
 "http://www.w3.org/Graphics/SVG/1.1/DTD/svg11.dtd">
<!-- Generated by graphviz version 5.0.0 (0)
 -->
<!-- Title: proof Pages: 1 -->
<svg width="188pt" height="340pt"
 viewBox="0.00 0.00 188.00 340.00" xmlns="http://www.w3.org/2000/svg" xmlns:xlink="http://www.w3.org/1999/xlink">
<g id="graph0" class="graph" transform="scale(1 1) rotate(0) translate(4 336)">
<title>proof</title>
<polygon fill="white" stroke="transparent" points="-4,4 -4,-336 184,-336 184,4 -4,4"/>
<g id="clust1" class="cluster">
<title>cluster_0</title>
<polygon fill="none" stroke="black" stroke-dasharray="1,5" points="37,-292 37,-324 143,-324 143,-292 37,-292"/>
</g>
<g id="clust2" class="cluster">
<title>cluster_1</title>
<polygon fill="none" stroke="black" stroke-width="2" points="8,-150 8,-272 172,-272 172,-150 8,-150"/>
</g>
<g id="clust3" class="cluster">
<title>cluster_2</title>
<polygon fill="none" stroke="black" stroke-dasharray="1,5" points="8,-8 8,-130 172,-130 172,-8 8,-8"/>
</g>
<!-- t25_finseq_3 -->
<g id="node1" class="node">
<title>t25_finseq_3</title>
<g id="a_node1"><a xlink:href="http://grid01.ciirc.cvut.cz/~mptp/7.13.01_4.181.1147/html/finseq_3.html#T25" xlink:title="t25_finseq_3" target="_blank">
<polygon fill="#69d2e7" stroke="#7f7542" points="45,-300.5 45,-315.5 135,-315.5 135,-300.5 45,-300.5"/>
<text text-anchor="middle" x="90" y="-304.3" font-family="Times,serif" font-size="14.00">t25_finseq_3</text>
</a>
</g>
</g>
<!-- c_0_208 -->
<g id="node2" class="node">
<title>c_0_208</title>
<g id="a_node2"><a xlink:href="c_0_208.html" xlink:title="{1 ≤ N₁|FinSequence&#45;like(X₂)|Function&#45;like(X₂)|N₁ ≤ len(X₂)|Relation&#45;like(X₂)|⇊|in(N₁,dom(ℕ,X₂))}" target="_parent">
<polygon fill="#f8edd1" stroke="#7f7542" points="16,-158.5 16,-263.5 164,-263.5 164,-158.5 16,-158.5"/>
<text text-anchor="middle" x="90" y="-252.3" font-family="Times,serif" font-size="14.00">1 ≤ N₁</text>
<polyline fill="none" stroke="#7f7542" points="16,-248.5 164,-248.5 "/>
<text text-anchor="middle" x="90" y="-237.3" font-family="Times,serif" font-size="14.00">FinSequence&#45;like(X₂)</text>
<polyline fill="none" stroke="#7f7542" points="16,-233.5 164,-233.5 "/>
<text text-anchor="middle" x="90" y="-222.3" font-family="Times,serif" font-size="14.00">Function&#45;like(X₂)</text>
<polyline fill="none" stroke="#7f7542" points="16,-218.5 164,-218.5 "/>
<text text-anchor="middle" x="90" y="-207.3" font-family="Times,serif" font-size="14.00">N₁ ≤ len(X₂)</text>
<polyline fill="none" stroke="#7f7542" points="16,-203.5 164,-203.5 "/>
<text text-anchor="middle" x="90" y="-192.3" font-family="Times,serif" font-size="14.00">Relation&#45;like(X₂)</text>
<polyline fill="none" stroke="#7f7542" points="16,-188.5 164,-188.5 "/>
<text text-anchor="middle" x="90" y="-177.3" font-family="Times,serif" font-size="14.00">⇊</text>
<polyline fill="none" stroke="#7f7542" points="16,-173.5 164,-173.5 "/>
<text text-anchor="middle" x="90" y="-162.3" font-family="Times,serif" font-size="14.00">in(N₁,dom(ℕ,X₂))</text>
</a>
</g>
</g>
<!-- t25_finseq_3&#45;&gt;c_0_208 -->
<g id="edge1" class="edge">
<title>t25_finseq_3&#45;&gt;c_0_208</title>
<path fill="none" stroke="black" d="M90,-300.39C90,-300.39 90,-273.93 90,-273.93"/>
<polygon fill="black" stroke="black" points="93.5,-273.93 90,-263.93 86.5,-273.93 93.5,-273.93"/>
</g>
<!-- c_0_217 -->
<g id="node3" class="node">
<title>c_0_217</title>
<g id="a_node3"><a xlink:href="c_0_217.html" xlink:title="{1 ≤ N₁|FinSequence&#45;like(X₂)|Function&#45;like(X₂)|N₁ ≤ len(X₂)|Relation&#45;like(X₂)|⇊|in(N₁,proj1(X₂))}" target="_parent">
<polygon fill="#f8edd1" stroke="#7f7542" points="16,-16.5 16,-121.5 164,-121.5 164,-16.5 16,-16.5"/>
<text text-anchor="middle" x="90" y="-110.3" font-family="Times,serif" font-size="14.00">1 ≤ N₁</text>
<polyline fill="none" stroke="#7f7542" points="16,-106.5 164,-106.5 "/>
<text text-anchor="middle" x="90" y="-95.3" font-family="Times,serif" font-size="14.00">FinSequence&#45;like(X₂)</text>
<polyline fill="none" stroke="#7f7542" points="16,-91.5 164,-91.5 "/>
<text text-anchor="middle" x="90" y="-80.3" font-family="Times,serif" font-size="14.00">Function&#45;like(X₂)</text>
<polyline fill="none" stroke="#7f7542" points="16,-76.5 164,-76.5 "/>
<text text-anchor="middle" x="90" y="-65.3" font-family="Times,serif" font-size="14.00">N₁ ≤ len(X₂)</text>
<polyline fill="none" stroke="#7f7542" points="16,-61.5 164,-61.5 "/>
<text text-anchor="middle" x="90" y="-50.3" font-family="Times,serif" font-size="14.00">Relation&#45;like(X₂)</text>
<polyline fill="none" stroke="#7f7542" points="16,-46.5 164,-46.5 "/>
<text text-anchor="middle" x="90" y="-35.3" font-family="Times,serif" font-size="14.00">⇊</text>
<polyline fill="none" stroke="#7f7542" points="16,-31.5 164,-31.5 "/>
<text text-anchor="middle" x="90" y="-20.3" font-family="Times,serif" font-size="14.00">in(N₁,proj1(X₂))</text>
</a>
</g>
</g>
<!-- c_0_208&#45;&gt;c_0_217 -->
<g id="edge2" class="edge">
<title>c_0_208&#45;&gt;c_0_217</title>
<path fill="none" stroke="black" stroke-dasharray="5,2" d="M90,-158.12C90,-158.12 90,-131.92 90,-131.92"/>
<polygon fill="black" stroke="black" points="93.5,-131.92 90,-121.92 86.5,-131.92 93.5,-131.92"/>
</g>
</g>
</svg>
