<?xml version="1.0" encoding="UTF-8" standalone="no"?>
<!DOCTYPE svg PUBLIC "-//W3C//DTD SVG 1.1//EN"
 "http://www.w3.org/Graphics/SVG/1.1/DTD/svg11.dtd">
<!-- Generated by graphviz version 5.0.0 (0)
 -->
<!-- Title: proof Pages: 1 -->
<svg width="563pt" height="235pt"
 viewBox="0.00 0.00 563.00 235.00" xmlns="http://www.w3.org/2000/svg" xmlns:xlink="http://www.w3.org/1999/xlink">
<g id="graph0" class="graph" transform="scale(1 1) rotate(0) translate(4 231)">
<title>proof</title>
<polygon fill="white" stroke="transparent" points="-4,4 -4,-231 559,-231 559,4 -4,4"/>
<g id="clust1" class="cluster">
<title>cluster_0</title>
<polygon fill="none" stroke="black" stroke-dasharray="1,5" points="49,-157 49,-219 547,-219 547,-157 49,-157"/>
</g>
<g id="clust2" class="cluster">
<title>cluster_1</title>
<polygon fill="none" stroke="black" stroke-width="2" points="152,-105 152,-137 358,-137 358,-105 152,-105"/>
</g>
<g id="clust3" class="cluster">
<title>cluster_2</title>
<polygon fill="none" stroke="black" stroke-dasharray="1,5" points="8,-8 8,-85 502,-85 502,-8 8,-8"/>
</g>
<!-- c_0_130 -->
<g id="node1" class="node">
<title>c_0_130</title>
<g id="a_node1"><a xlink:href="c_0_130.html" xlink:title="{FinSequence(X₁,X₂)|⇊|FinSequence&#45;like(X₁)}" target="_parent">
<polygon fill="#f8edd1" stroke="#7f7542" points="391,-165.5 391,-210.5 539,-210.5 539,-165.5 391,-165.5"/>
<text text-anchor="middle" x="465" y="-199.3" font-family="Times,serif" font-size="14.00">FinSequence(X₁,X₂)</text>
<polyline fill="none" stroke="#7f7542" points="391,-195.5 539,-195.5 "/>
<text text-anchor="middle" x="465" y="-184.3" font-family="Times,serif" font-size="14.00">⇊</text>
<polyline fill="none" stroke="#7f7542" points="391,-180.5 539,-180.5 "/>
<text text-anchor="middle" x="465" y="-169.3" font-family="Times,serif" font-size="14.00">FinSequence&#45;like(X₁)</text>
</a>
</g>
</g>
<!-- c_0_228 -->
<g id="node3" class="node">
<title>c_0_228</title>
<g id="a_node3"><a xlink:href="c_0_228.html" xlink:title="{FinSequence&#45;like(skolem₁)}" target="_parent">
<polygon fill="#fa6900" stroke="#7f7542" points="160.5,-113.5 160.5,-128.5 349.5,-128.5 349.5,-113.5 160.5,-113.5"/>
<text text-anchor="middle" x="255" y="-117.3" font-family="Times,serif" font-size="14.00">FinSequence&#45;like(skolem₁)</text>
</a>
</g>
</g>
<!-- c_0_130&#45;&gt;c_0_228 -->
<g id="edge1" class="edge">
<title>c_0_130&#45;&gt;c_0_228</title>
<path fill="none" stroke="black" d="M442.5,-165.32C442.5,-145.88 442.5,-121 442.5,-121 442.5,-121 359.57,-121 359.57,-121"/>
<polygon fill="black" stroke="black" points="359.57,-117.5 349.57,-121 359.57,-124.5 359.57,-117.5"/>
</g>
<!-- c_0_78 -->
<g id="node2" class="node">
<title>c_0_78</title>
<g id="a_node2"><a xlink:href="c_0_78.html" xlink:title="{FinSequence(skolem₁,carrier(TOP&#45;REAL(2)))}" target="_parent">
<polygon fill="#fa6900" stroke="#7f7542" points="57,-180.5 57,-195.5 373,-195.5 373,-180.5 57,-180.5"/>
<text text-anchor="middle" x="215" y="-184.3" font-family="Times,serif" font-size="14.00">FinSequence(skolem₁,carrier(TOP&#45;REAL(2)))</text>
</a>
</g>
</g>
<!-- c_0_78&#45;&gt;c_0_228 -->
<g id="edge2" class="edge">
<title>c_0_78&#45;&gt;c_0_228</title>
<path fill="none" stroke="black" d="M255,-180.31C255,-180.31 255,-138.6 255,-138.6"/>
<polygon fill="black" stroke="black" points="258.5,-138.6 255,-128.6 251.5,-138.6 258.5,-138.6"/>
</g>
<!-- c_0_220 -->
<g id="node4" class="node">
<title>c_0_220</title>
<g id="a_node4"><a xlink:href="c_0_220.html" xlink:title="{ext&#45;real&#45;membered(ℕ)|⇊|1 ≤ len(skolem₁)}" target="_parent">
<polygon fill="#fa6900" stroke="#7f7542" points="334,-24 334,-69 494,-69 494,-24 334,-24"/>
<text text-anchor="middle" x="414" y="-57.8" font-family="Times,serif" font-size="14.00">ext&#45;real&#45;membered(ℕ)</text>
<polyline fill="none" stroke="#7f7542" points="334,-54 494,-54 "/>
<text text-anchor="middle" x="414" y="-42.8" font-family="Times,serif" font-size="14.00">⇊</text>
<polyline fill="none" stroke="#7f7542" points="334,-39 494,-39 "/>
<text text-anchor="middle" x="414" y="-27.8" font-family="Times,serif" font-size="14.00">1 ≤ len(skolem₁)</text>
</a>
</g>
</g>
<!-- c_0_228&#45;&gt;c_0_220 -->
<g id="edge3" class="edge">
<title>c_0_228&#45;&gt;c_0_220</title>
<path fill="none" stroke="black" stroke-dasharray="5,2" d="M341.75,-113.31C341.75,-113.31 341.75,-79.13 341.75,-79.13"/>
<polygon fill="black" stroke="black" points="345.25,-79.13 341.75,-69.13 338.25,-79.13 345.25,-79.13"/>
</g>
<!-- c_0_248 -->
<g id="node5" class="node">
<title>c_0_248</title>
<g id="a_node5"><a xlink:href="c_0_248.html" xlink:title="{len(skolem₁) ∈ ℕ}" target="_parent">
<polygon fill="#fa6900" stroke="#7f7542" points="194.5,-39 194.5,-54 315.5,-54 315.5,-39 194.5,-39"/>
<text text-anchor="middle" x="255" y="-42.8" font-family="Times,serif" font-size="14.00">len(skolem₁) ∈ ℕ</text>
</a>
</g>
</g>
<!-- c_0_228&#45;&gt;c_0_248 -->
<g id="edge4" class="edge">
<title>c_0_228&#45;&gt;c_0_248</title>
<path fill="none" stroke="black" stroke-dasharray="5,2" d="M255,-113.31C255,-113.31 255,-64.26 255,-64.26"/>
<polygon fill="black" stroke="black" points="258.5,-64.26 255,-54.26 251.5,-64.26 258.5,-64.26"/>
</g>
<!-- c_0_239 -->
<g id="node6" class="node">
<title>c_0_239</title>
<g id="a_node6"><a xlink:href="c_0_239.html" xlink:title="{&#45;defined(skolem₁,X₁)|ext&#45;real&#45;membered(ℕ)|⇊|len(skolem₁) ∈ X₁}" target="_parent">
<polygon fill="#fa6900" stroke="#7f7542" points="16,-16.5 16,-76.5 176,-76.5 176,-16.5 16,-16.5"/>
<text text-anchor="middle" x="96" y="-65.3" font-family="Times,serif" font-size="14.00">&#45;defined(skolem₁,X₁)</text>
<polyline fill="none" stroke="#7f7542" points="16,-61.5 176,-61.5 "/>
<text text-anchor="middle" x="96" y="-50.3" font-family="Times,serif" font-size="14.00">ext&#45;real&#45;membered(ℕ)</text>
<polyline fill="none" stroke="#7f7542" points="16,-46.5 176,-46.5 "/>
<text text-anchor="middle" x="96" y="-35.3" font-family="Times,serif" font-size="14.00">⇊</text>
<polyline fill="none" stroke="#7f7542" points="16,-31.5 176,-31.5 "/>
<text text-anchor="middle" x="96" y="-20.3" font-family="Times,serif" font-size="14.00">len(skolem₁) ∈ X₁</text>
</a>
</g>
</g>
<!-- c_0_228&#45;&gt;c_0_239 -->
<g id="edge5" class="edge">
<title>c_0_228&#45;&gt;c_0_239</title>
<path fill="none" stroke="black" stroke-dasharray="5,2" d="M168.25,-113.31C168.25,-113.31 168.25,-86.51 168.25,-86.51"/>
<polygon fill="black" stroke="black" points="171.75,-86.51 168.25,-76.51 164.75,-86.51 171.75,-86.51"/>
</g>
</g>
</svg>
