<?xml version="1.0" encoding="UTF-8" standalone="no"?>
<!DOCTYPE svg PUBLIC "-//W3C//DTD SVG 1.1//EN"
 "http://www.w3.org/Graphics/SVG/1.1/DTD/svg11.dtd">
<!-- Generated by graphviz version 5.0.0 (0)
 -->
<!-- Title: proof Pages: 1 -->
<svg width="1797pt" height="385pt"
 viewBox="0.00 0.00 1797.00 385.00" xmlns="http://www.w3.org/2000/svg" xmlns:xlink="http://www.w3.org/1999/xlink">
<g id="graph0" class="graph" transform="scale(1 1) rotate(0) translate(4 381)">
<title>proof</title>
<polygon fill="white" stroke="transparent" points="-4,4 -4,-381 1793,-381 1793,4 -4,4"/>
<g id="clust1" class="cluster">
<title>cluster_0</title>
<polygon fill="none" stroke="black" stroke-dasharray="1,5" points="8,-187 8,-369 1781,-369 1781,-187 8,-187"/>
</g>
<g id="clust2" class="cluster">
<title>cluster_1</title>
<polygon fill="none" stroke="black" stroke-width="2" points="1070,-105 1070,-167 1246,-167 1246,-105 1070,-105"/>
</g>
<g id="clust3" class="cluster">
<title>cluster_2</title>
<polygon fill="none" stroke="black" stroke-dasharray="1,5" points="571,-8 571,-85 1708,-85 1708,-8 571,-8"/>
</g>
<!-- c_0_80 -->
<g id="node1" class="node">
<title>c_0_80</title>
<g id="a_node1"><a xlink:href="c_0_80.html" xlink:title="{ s.c.c. skolem₁}" target="_parent">
<polygon fill="#fa6900" stroke="#7f7542" points="1675.5,-270.5 1675.5,-285.5 1772.5,-285.5 1772.5,-270.5 1675.5,-270.5"/>
<text text-anchor="middle" x="1724" y="-274.3" font-family="Times,serif" font-size="14.00">s.c.c. skolem₁</text>
</a>
</g>
</g>
<!-- c_0_213 -->
<g id="node10" class="node">
<title>c_0_213</title>
<g id="a_node10"><a xlink:href="c_0_213.html" xlink:title="{ext&#45;real&#45;membered(ℕ)|⇊|skolem₂(skolem₁) ∈ 𝔼}" target="_parent">
<polygon fill="#fa6900" stroke="#7f7542" points="1078,-113.5 1078,-158.5 1238,-158.5 1238,-113.5 1078,-113.5"/>
<text text-anchor="middle" x="1158" y="-147.3" font-family="Times,serif" font-size="14.00">ext&#45;real&#45;membered(ℕ)</text>
<polyline fill="none" stroke="#7f7542" points="1078,-143.5 1238,-143.5 "/>
<text text-anchor="middle" x="1158" y="-132.3" font-family="Times,serif" font-size="14.00">⇊</text>
<polyline fill="none" stroke="#7f7542" points="1078,-128.5 1238,-128.5 "/>
<text text-anchor="middle" x="1158" y="-117.3" font-family="Times,serif" font-size="14.00">skolem₂(skolem₁) ∈ 𝔼</text>
</a>
</g>
</g>
<!-- c_0_80&#45;&gt;c_0_213 -->
<g id="edge1" class="edge">
<title>c_0_80&#45;&gt;c_0_213</title>
<path fill="none" stroke="black" d="M1687.5,-270.19C1687.5,-240.99 1687.5,-140 1687.5,-140 1687.5,-140 1248.13,-140 1248.13,-140"/>
<polygon fill="black" stroke="black" points="1248.13,-136.5 1238.13,-140 1248.13,-143.5 1248.13,-136.5"/>
</g>
<!-- c_0_79 -->
<g id="node2" class="node">
<title>c_0_79</title>
<g id="a_node2"><a xlink:href="c_0_79.html" xlink:title="{standard(skolem₁)}" target="_parent">
<polygon fill="#fa6900" stroke="#7f7542" points="1527,-270.5 1527,-285.5 1657,-285.5 1657,-270.5 1527,-270.5"/>
<text text-anchor="middle" x="1592" y="-274.3" font-family="Times,serif" font-size="14.00">standard(skolem₁)</text>
</a>
</g>
</g>
<!-- c_0_79&#45;&gt;c_0_213 -->
<g id="edge2" class="edge">
<title>c_0_79&#45;&gt;c_0_213</title>
<path fill="none" stroke="black" d="M1592,-270.32C1592,-242.55 1592,-149 1592,-149 1592,-149 1248.11,-149 1248.11,-149"/>
<polygon fill="black" stroke="black" points="1248.11,-145.5 1238.11,-149 1248.11,-152.5 1248.11,-145.5"/>
</g>
<!-- c_0_84 -->
<g id="node3" class="node">
<title>c_0_84</title>
<g id="a_node3"><a xlink:href="c_0_84.html" xlink:title="{constant(skolem₁)|⇊|⊥}" target="_parent">
<polygon fill="#fa6900" stroke="#7f7542" points="1381,-255.5 1381,-300.5 1509,-300.5 1509,-255.5 1381,-255.5"/>
<text text-anchor="middle" x="1445" y="-289.3" font-family="Times,serif" font-size="14.00">constant(skolem₁)</text>
<polyline fill="none" stroke="#7f7542" points="1381,-285.5 1509,-285.5 "/>
<text text-anchor="middle" x="1445" y="-274.3" font-family="Times,serif" font-size="14.00">⇊</text>
<polyline fill="none" stroke="#7f7542" points="1381,-270.5 1509,-270.5 "/>
<text text-anchor="middle" x="1445" y="-259.3" font-family="Times,serif" font-size="14.00">⊥</text>
</a>
</g>
</g>
<!-- c_0_84&#45;&gt;c_0_213 -->
<g id="edge3" class="edge">
<title>c_0_84&#45;&gt;c_0_213</title>
<path fill="none" stroke="black" d="M1380.8,-262C1318.99,-262 1234.83,-262 1234.83,-262 1234.83,-262 1234.83,-168.53 1234.83,-168.53"/>
<polygon fill="black" stroke="black" points="1238.33,-168.53 1234.83,-158.53 1231.33,-168.53 1238.33,-168.53"/>
</g>
<!-- c_0_82 -->
<g id="node4" class="node">
<title>c_0_82</title>
<g id="a_node4"><a xlink:href="c_0_82.html" xlink:title="{special(skolem₁)}" target="_parent">
<polygon fill="#fa6900" stroke="#7f7542" points="1247,-270.5 1247,-285.5 1363,-285.5 1363,-270.5 1247,-270.5"/>
<text text-anchor="middle" x="1305" y="-274.3" font-family="Times,serif" font-size="14.00">special(skolem₁)</text>
</a>
</g>
</g>
<!-- c_0_82&#45;&gt;c_0_213 -->
<g id="edge4" class="edge">
<title>c_0_82&#45;&gt;c_0_213</title>
<path fill="none" stroke="black" d="M1246.86,-278C1237.96,-278 1231.67,-278 1231.67,-278 1231.67,-278 1231.67,-168.5 1231.67,-168.5"/>
<polygon fill="black" stroke="black" points="1235.17,-168.5 1231.67,-158.5 1228.17,-168.5 1235.17,-168.5"/>
</g>
<!-- c_0_203 -->
<g id="node5" class="node">
<title>c_0_203</title>
<g id="a_node5"><a xlink:href="c_0_203.html" xlink:title="{&#45;defined(skolem₁,ℕ)}" target="_parent">
<polygon fill="#fa6900" stroke="#7f7542" points="1087.5,-270.5 1087.5,-285.5 1228.5,-285.5 1228.5,-270.5 1087.5,-270.5"/>
<text text-anchor="middle" x="1158" y="-274.3" font-family="Times,serif" font-size="14.00">&#45;defined(skolem₁,ℕ)</text>
</a>
</g>
</g>
<!-- c_0_203&#45;&gt;c_0_213 -->
<g id="edge5" class="edge">
<title>c_0_203&#45;&gt;c_0_213</title>
<path fill="none" stroke="black" d="M1158,-270.37C1158,-270.37 1158,-168.74 1158,-168.74"/>
<polygon fill="black" stroke="black" points="1161.5,-168.74 1158,-158.74 1154.5,-168.74 1161.5,-168.74"/>
</g>
<!-- c_0_81 -->
<g id="node6" class="node">
<title>c_0_81</title>
<g id="a_node6"><a xlink:href="c_0_81.html" xlink:title="{unfolded(skolem₁)}" target="_parent">
<polygon fill="#fa6900" stroke="#7f7542" points="940.5,-270.5 940.5,-285.5 1069.5,-285.5 1069.5,-270.5 940.5,-270.5"/>
<text text-anchor="middle" x="1005" y="-274.3" font-family="Times,serif" font-size="14.00">unfolded(skolem₁)</text>
</a>
</g>
</g>
<!-- c_0_81&#45;&gt;c_0_213 -->
<g id="edge6" class="edge">
<title>c_0_81&#45;&gt;c_0_213</title>
<path fill="none" stroke="black" d="M1069.78,-278C1078.4,-278 1084.33,-278 1084.33,-278 1084.33,-278 1084.33,-168.5 1084.33,-168.5"/>
<polygon fill="black" stroke="black" points="1087.83,-168.5 1084.33,-158.5 1080.83,-168.5 1087.83,-168.5"/>
</g>
<!-- c_0_83 -->
<g id="node7" class="node">
<title>c_0_83</title>
<g id="a_node7"><a xlink:href="c_0_83.html" xlink:title="{circular(skolem₁,carrier(TOP&#45;REAL(2)))}" target="_parent">
<polygon fill="#fa6900" stroke="#7f7542" points="644,-270.5 644,-285.5 922,-285.5 922,-270.5 644,-270.5"/>
<text text-anchor="middle" x="783" y="-274.3" font-family="Times,serif" font-size="14.00">circular(skolem₁,carrier(TOP&#45;REAL(2)))</text>
</a>
</g>
</g>
<!-- c_0_83&#45;&gt;c_0_213 -->
<g id="edge7" class="edge">
<title>c_0_83&#45;&gt;c_0_213</title>
<path fill="none" stroke="black" d="M875.25,-270.32C875.25,-242.55 875.25,-149 875.25,-149 875.25,-149 1067.73,-149 1067.73,-149"/>
<polygon fill="black" stroke="black" points="1067.73,-152.5 1077.73,-149 1067.73,-145.5 1067.73,-152.5"/>
</g>
<!-- c_0_202 -->
<g id="node8" class="node">
<title>c_0_202</title>
<g id="a_node8"><a xlink:href="c_0_202.html" xlink:title="{ s.c.c. X₁|&#45;defined(X₁,X₂)|FinSequence(X₁,carrier(TOP&#45;REAL(2)))|circular(X₁,carrier(TOP&#45;REAL(2)))|ext&#45;real&#45;membered(X₂)|special(X₁)|standard(X₁)|unfolded(X₁)|⇊|constant(X₁)|skolem₂(X₁) ∈ 𝔼}" target="_parent">
<polygon fill="#f8edd1" stroke="#7f7542" points="350.5,-195.5 350.5,-360.5 625.5,-360.5 625.5,-195.5 350.5,-195.5"/>
<text text-anchor="middle" x="488" y="-349.3" font-family="Times,serif" font-size="14.00">s.c.c. X₁</text>
<polyline fill="none" stroke="#7f7542" points="350.5,-345.5 625.5,-345.5 "/>
<text text-anchor="middle" x="488" y="-334.3" font-family="Times,serif" font-size="14.00">&#45;defined(X₁,X₂)</text>
<polyline fill="none" stroke="#7f7542" points="350.5,-330.5 625.5,-330.5 "/>
<text text-anchor="middle" x="488" y="-319.3" font-family="Times,serif" font-size="14.00">FinSequence(X₁,carrier(TOP&#45;REAL(2)))</text>
<polyline fill="none" stroke="#7f7542" points="350.5,-315.5 625.5,-315.5 "/>
<text text-anchor="middle" x="488" y="-304.3" font-family="Times,serif" font-size="14.00">circular(X₁,carrier(TOP&#45;REAL(2)))</text>
<polyline fill="none" stroke="#7f7542" points="350.5,-300.5 625.5,-300.5 "/>
<text text-anchor="middle" x="488" y="-289.3" font-family="Times,serif" font-size="14.00">ext&#45;real&#45;membered(X₂)</text>
<polyline fill="none" stroke="#7f7542" points="350.5,-285.5 625.5,-285.5 "/>
<text text-anchor="middle" x="488" y="-274.3" font-family="Times,serif" font-size="14.00">special(X₁)</text>
<polyline fill="none" stroke="#7f7542" points="350.5,-270.5 625.5,-270.5 "/>
<text text-anchor="middle" x="488" y="-259.3" font-family="Times,serif" font-size="14.00">standard(X₁)</text>
<polyline fill="none" stroke="#7f7542" points="350.5,-255.5 625.5,-255.5 "/>
<text text-anchor="middle" x="488" y="-244.3" font-family="Times,serif" font-size="14.00">unfolded(X₁)</text>
<polyline fill="none" stroke="#7f7542" points="350.5,-240.5 625.5,-240.5 "/>
<text text-anchor="middle" x="488" y="-229.3" font-family="Times,serif" font-size="14.00">⇊</text>
<polyline fill="none" stroke="#7f7542" points="350.5,-225.5 625.5,-225.5 "/>
<text text-anchor="middle" x="488" y="-214.3" font-family="Times,serif" font-size="14.00">constant(X₁)</text>
<polyline fill="none" stroke="#7f7542" points="350.5,-210.5 625.5,-210.5 "/>
<text text-anchor="middle" x="488" y="-199.3" font-family="Times,serif" font-size="14.00">skolem₂(X₁) ∈ 𝔼</text>
</a>
</g>
</g>
<!-- c_0_202&#45;&gt;c_0_213 -->
<g id="edge8" class="edge">
<title>c_0_202&#45;&gt;c_0_213</title>
<path fill="none" stroke="black" d="M625.58,-225C800.8,-225 1081.17,-225 1081.17,-225 1081.17,-225 1081.17,-168.92 1081.17,-168.92"/>
<polygon fill="black" stroke="black" points="1084.67,-168.92 1081.17,-158.92 1077.67,-168.92 1084.67,-168.92"/>
</g>
<!-- c_0_78 -->
<g id="node9" class="node">
<title>c_0_78</title>
<g id="a_node9"><a xlink:href="c_0_78.html" xlink:title="{FinSequence(skolem₁,carrier(TOP&#45;REAL(2)))}" target="_parent">
<polygon fill="#fa6900" stroke="#7f7542" points="16,-270.5 16,-285.5 332,-285.5 332,-270.5 16,-270.5"/>
<text text-anchor="middle" x="174" y="-274.3" font-family="Times,serif" font-size="14.00">FinSequence(skolem₁,carrier(TOP&#45;REAL(2)))</text>
</a>
</g>
</g>
<!-- c_0_78&#45;&gt;c_0_213 -->
<g id="edge9" class="edge">
<title>c_0_78&#45;&gt;c_0_213</title>
<path fill="none" stroke="black" d="M174,-270.19C174,-240.99 174,-140 174,-140 174,-140 1067.89,-140 1067.89,-140"/>
<polygon fill="black" stroke="black" points="1067.89,-143.5 1077.89,-140 1067.89,-136.5 1067.89,-143.5"/>
</g>
<!-- c_0_232 -->
<g id="node11" class="node">
<title>c_0_232</title>
<g id="a_node11"><a xlink:href="c_0_232.html" xlink:title="{ext&#45;real&#45;membered(ℕ)|⇊|skolem₂(skolem₁) ≤ skolem₂(skolem₁)}" target="_parent">
<polygon fill="#fa6900" stroke="#7f7542" points="1434.5,-24 1434.5,-69 1699.5,-69 1699.5,-24 1434.5,-24"/>
<text text-anchor="middle" x="1567" y="-57.8" font-family="Times,serif" font-size="14.00">ext&#45;real&#45;membered(ℕ)</text>
<polyline fill="none" stroke="#7f7542" points="1434.5,-54 1699.5,-54 "/>
<text text-anchor="middle" x="1567" y="-42.8" font-family="Times,serif" font-size="14.00">⇊</text>
<polyline fill="none" stroke="#7f7542" points="1434.5,-39 1699.5,-39 "/>
<text text-anchor="middle" x="1567" y="-27.8" font-family="Times,serif" font-size="14.00">skolem₂(skolem₁) ≤ skolem₂(skolem₁)</text>
</a>
</g>
</g>
<!-- c_0_213&#45;&gt;c_0_232 -->
<g id="edge10" class="edge">
<title>c_0_213&#45;&gt;c_0_232</title>
<path fill="none" stroke="black" stroke-dasharray="5,2" d="M1238.39,-131C1331.35,-131 1471.75,-131 1471.75,-131 1471.75,-131 1471.75,-79.14 1471.75,-79.14"/>
<polygon fill="black" stroke="black" points="1475.25,-79.14 1471.75,-69.14 1468.25,-79.14 1475.25,-79.14"/>
</g>
<!-- c_0_220 -->
<g id="node12" class="node">
<title>c_0_220</title>
<g id="a_node12"><a xlink:href="c_0_220.html" xlink:title="{ext&#45;real&#45;membered(ℕ)|⇊|1 ≤ len(skolem₁)}" target="_parent">
<polygon fill="#fa6900" stroke="#7f7542" points="1256,-24 1256,-69 1416,-69 1416,-24 1256,-24"/>
<text text-anchor="middle" x="1336" y="-57.8" font-family="Times,serif" font-size="14.00">ext&#45;real&#45;membered(ℕ)</text>
<polyline fill="none" stroke="#7f7542" points="1256,-54 1416,-54 "/>
<text text-anchor="middle" x="1336" y="-42.8" font-family="Times,serif" font-size="14.00">⇊</text>
<polyline fill="none" stroke="#7f7542" points="1256,-39 1416,-39 "/>
<text text-anchor="middle" x="1336" y="-27.8" font-family="Times,serif" font-size="14.00">1 ≤ len(skolem₁)</text>
</a>
</g>
</g>
<!-- c_0_213&#45;&gt;c_0_220 -->
<g id="edge11" class="edge">
<title>c_0_213&#45;&gt;c_0_220</title>
<path fill="none" stroke="black" stroke-dasharray="5,2" d="M1238.19,-122C1274.53,-122 1309.5,-122 1309.5,-122 1309.5,-122 1309.5,-79.15 1309.5,-79.15"/>
<polygon fill="black" stroke="black" points="1313,-79.15 1309.5,-69.15 1306,-79.15 1313,-79.15"/>
</g>
<!-- c_0_242 -->
<g id="node13" class="node">
<title>c_0_242</title>
<g id="a_node13"><a xlink:href="c_0_242.html" xlink:title="{E₁ ≤ skolem₂(skolem₁)|ext&#45;real&#45;membered(ℕ)|⇊|E₁ ≤ len(skolem₁)}" target="_parent">
<polygon fill="#fa6900" stroke="#7f7542" points="1078,-16.5 1078,-76.5 1238,-76.5 1238,-16.5 1078,-16.5"/>
<text text-anchor="middle" x="1158" y="-65.3" font-family="Times,serif" font-size="14.00">E₁ ≤ skolem₂(skolem₁)</text>
<polyline fill="none" stroke="#7f7542" points="1078,-61.5 1238,-61.5 "/>
<text text-anchor="middle" x="1158" y="-50.3" font-family="Times,serif" font-size="14.00">ext&#45;real&#45;membered(ℕ)</text>
<polyline fill="none" stroke="#7f7542" points="1078,-46.5 1238,-46.5 "/>
<text text-anchor="middle" x="1158" y="-35.3" font-family="Times,serif" font-size="14.00">⇊</text>
<polyline fill="none" stroke="#7f7542" points="1078,-31.5 1238,-31.5 "/>
<text text-anchor="middle" x="1158" y="-20.3" font-family="Times,serif" font-size="14.00">E₁ ≤ len(skolem₁)</text>
</a>
</g>
</g>
<!-- c_0_213&#45;&gt;c_0_242 -->
<g id="edge12" class="edge">
<title>c_0_213&#45;&gt;c_0_242</title>
<path fill="none" stroke="black" stroke-dasharray="5,2" d="M1158,-113.42C1158,-113.42 1158,-86.52 1158,-86.52"/>
<polygon fill="black" stroke="black" points="1161.5,-86.52 1158,-76.52 1154.5,-86.52 1161.5,-86.52"/>
</g>
<!-- c_0_250 -->
<g id="node14" class="node">
<title>c_0_250</title>
<g id="a_node14"><a xlink:href="c_0_250.html" xlink:title="{ext&#45;real&#45;membered(ℕ)|⇊|skolem₂(skolem₁) ≤ len(skolem₁)}" target="_parent">
<polygon fill="#fa6900" stroke="#7f7542" points="828.5,-24 828.5,-69 1059.5,-69 1059.5,-24 828.5,-24"/>
<text text-anchor="middle" x="944" y="-57.8" font-family="Times,serif" font-size="14.00">ext&#45;real&#45;membered(ℕ)</text>
<polyline fill="none" stroke="#7f7542" points="828.5,-54 1059.5,-54 "/>
<text text-anchor="middle" x="944" y="-42.8" font-family="Times,serif" font-size="14.00">⇊</text>
<polyline fill="none" stroke="#7f7542" points="828.5,-39 1059.5,-39 "/>
<text text-anchor="middle" x="944" y="-27.8" font-family="Times,serif" font-size="14.00">skolem₂(skolem₁) ≤ len(skolem₁)</text>
</a>
</g>
</g>
<!-- c_0_213&#45;&gt;c_0_250 -->
<g id="edge13" class="edge">
<title>c_0_213&#45;&gt;c_0_250</title>
<path fill="none" stroke="black" stroke-dasharray="5,2" d="M1077.61,-122C1038.58,-122 1000,-122 1000,-122 1000,-122 1000,-79.15 1000,-79.15"/>
<polygon fill="black" stroke="black" points="1003.5,-79.15 1000,-69.15 996.5,-79.15 1003.5,-79.15"/>
</g>
<!-- c_0_238 -->
<g id="node15" class="node">
<title>c_0_238</title>
<g id="a_node15"><a xlink:href="c_0_238.html" xlink:title="{ext&#45;real&#45;membered(ℕ)|⇊|skolem₂(skolem₁) ≤ len(skolem₁)}" target="_parent">
<polygon fill="#fa6900" stroke="#7f7542" points="579.5,-24 579.5,-69 810.5,-69 810.5,-24 579.5,-24"/>
<text text-anchor="middle" x="695" y="-57.8" font-family="Times,serif" font-size="14.00">ext&#45;real&#45;membered(ℕ)</text>
<polyline fill="none" stroke="#7f7542" points="579.5,-54 810.5,-54 "/>
<text text-anchor="middle" x="695" y="-42.8" font-family="Times,serif" font-size="14.00">⇊</text>
<polyline fill="none" stroke="#7f7542" points="579.5,-39 810.5,-39 "/>
<text text-anchor="middle" x="695" y="-27.8" font-family="Times,serif" font-size="14.00">skolem₂(skolem₁) ≤ len(skolem₁)</text>
</a>
</g>
</g>
<!-- c_0_213&#45;&gt;c_0_238 -->
<g id="edge14" class="edge">
<title>c_0_213&#45;&gt;c_0_238</title>
<path fill="none" stroke="black" stroke-dasharray="5,2" d="M1077.99,-131C953.42,-131 727.25,-131 727.25,-131 727.25,-131 727.25,-79.14 727.25,-79.14"/>
<polygon fill="black" stroke="black" points="730.75,-79.14 727.25,-69.14 723.75,-79.14 730.75,-79.14"/>
</g>
</g>
</svg>
