<?xml version="1.0" encoding="UTF-8" standalone="no"?>
<!DOCTYPE svg PUBLIC "-//W3C//DTD SVG 1.1//EN"
 "http://www.w3.org/Graphics/SVG/1.1/DTD/svg11.dtd">
<!-- Generated by graphviz version 5.0.0 (0)
 -->
<!-- Title: proof Pages: 1 -->
<svg width="316pt" height="340pt"
 viewBox="0.00 0.00 316.00 340.00" xmlns="http://www.w3.org/2000/svg" xmlns:xlink="http://www.w3.org/1999/xlink">
<g id="graph0" class="graph" transform="scale(1 1) rotate(0) translate(4 336)">
<title>proof</title>
<polygon fill="white" stroke="transparent" points="-4,4 -4,-336 312,-336 312,4 -4,4"/>
<g id="clust1" class="cluster">
<title>cluster_0</title>
<polygon fill="none" stroke="black" stroke-dasharray="1,5" points="90,-262 90,-324 218,-324 218,-262 90,-262"/>
</g>
<g id="clust2" class="cluster">
<title>cluster_1</title>
<polygon fill="none" stroke="black" stroke-width="2" points="122,-180 122,-242 186,-242 186,-180 122,-180"/>
</g>
<g id="clust3" class="cluster">
<title>cluster_2</title>
<polygon fill="none" stroke="black" stroke-dasharray="1,5" points="8,-8 8,-160 300,-160 300,-8 8,-8"/>
</g>
<!-- c_0_155 -->
<g id="node1" class="node">
<title>c_0_155</title>
<g id="a_node1"><a xlink:href="c_0_155.html" xlink:title="{X₁ ∈ ω|⇊|X₁ ∈ ℕ}" target="_parent">
<polygon fill="#f8edd1" stroke="#7f7542" points="162,-270.5 162,-315.5 210,-315.5 210,-270.5 162,-270.5"/>
<text text-anchor="middle" x="186" y="-304.3" font-family="Times,serif" font-size="14.00">X₁ ∈ ω</text>
<polyline fill="none" stroke="#7f7542" points="162,-300.5 210,-300.5 "/>
<text text-anchor="middle" x="186" y="-289.3" font-family="Times,serif" font-size="14.00">⇊</text>
<polyline fill="none" stroke="#7f7542" points="162,-285.5 210,-285.5 "/>
<text text-anchor="middle" x="186" y="-274.3" font-family="Times,serif" font-size="14.00">X₁ ∈ ℕ</text>
</a>
</g>
</g>
<!-- c_0_180 -->
<g id="node3" class="node">
<title>c_0_180</title>
<g id="a_node3"><a xlink:href="c_0_180.html" xlink:title="{X₁ ∈ ℕ|⇊|X₁ ∈ ℕ}" target="_parent">
<polygon fill="#f8edd1" stroke="#7f7542" points="130,-188.5 130,-233.5 178,-233.5 178,-188.5 130,-188.5"/>
<text text-anchor="middle" x="154" y="-222.3" font-family="Times,serif" font-size="14.00">X₁ ∈ ℕ</text>
<polyline fill="none" stroke="#7f7542" points="130,-218.5 178,-218.5 "/>
<text text-anchor="middle" x="154" y="-207.3" font-family="Times,serif" font-size="14.00">⇊</text>
<polyline fill="none" stroke="#7f7542" points="130,-203.5 178,-203.5 "/>
<text text-anchor="middle" x="154" y="-192.3" font-family="Times,serif" font-size="14.00">X₁ ∈ ℕ</text>
</a>
</g>
</g>
<!-- c_0_155&#45;&gt;c_0_180 -->
<g id="edge1" class="edge">
<title>c_0_155&#45;&gt;c_0_180</title>
<path fill="none" stroke="black" d="M170,-270.16C170,-270.16 170,-243.72 170,-243.72"/>
<polygon fill="black" stroke="black" points="173.5,-243.72 170,-233.72 166.5,-243.72 173.5,-243.72"/>
</g>
<!-- c_0_156 -->
<g id="node2" class="node">
<title>c_0_156</title>
<g id="a_node2"><a xlink:href="c_0_156.html" xlink:title="{ℕ = ω}" target="_parent">
<polygon fill="#f8edd1" stroke="#7f7542" points="98,-285.5 98,-300.5 144,-300.5 144,-285.5 98,-285.5"/>
<text text-anchor="middle" x="121" y="-289.3" font-family="Times,serif" font-size="14.00">ℕ = ω</text>
</a>
</g>
</g>
<!-- c_0_156&#45;&gt;c_0_180 -->
<g id="edge2" class="edge">
<title>c_0_156&#45;&gt;c_0_180</title>
<path fill="none" stroke="black" d="M137,-285.43C137,-285.43 137,-243.65 137,-243.65"/>
<polygon fill="black" stroke="black" points="140.5,-243.65 137,-233.65 133.5,-243.65 140.5,-243.65"/>
</g>
<!-- c_0_179 -->
<g id="node4" class="node">
<title>c_0_179</title>
<g id="a_node4"><a xlink:href="c_0_179.html" xlink:title="{ s.c.c. X₁|FinSequence(X₁,carrier(TOP&#45;REAL(2)))|circular(X₁,carrier(TOP&#45;REAL(2)))|special(X₁)|standard(X₁)|unfolded(X₁)|⇊|1 ≤ skolem₂(X₁)|constant(X₁)}" target="_parent">
<polygon fill="#f8edd1" stroke="#7f7542" points="16.5,-16.5 16.5,-151.5 291.5,-151.5 291.5,-16.5 16.5,-16.5"/>
<text text-anchor="middle" x="154" y="-140.3" font-family="Times,serif" font-size="14.00">s.c.c. X₁</text>
<polyline fill="none" stroke="#7f7542" points="16.5,-136.5 291.5,-136.5 "/>
<text text-anchor="middle" x="154" y="-125.3" font-family="Times,serif" font-size="14.00">FinSequence(X₁,carrier(TOP&#45;REAL(2)))</text>
<polyline fill="none" stroke="#7f7542" points="16.5,-121.5 291.5,-121.5 "/>
<text text-anchor="middle" x="154" y="-110.3" font-family="Times,serif" font-size="14.00">circular(X₁,carrier(TOP&#45;REAL(2)))</text>
<polyline fill="none" stroke="#7f7542" points="16.5,-106.5 291.5,-106.5 "/>
<text text-anchor="middle" x="154" y="-95.3" font-family="Times,serif" font-size="14.00">special(X₁)</text>
<polyline fill="none" stroke="#7f7542" points="16.5,-91.5 291.5,-91.5 "/>
<text text-anchor="middle" x="154" y="-80.3" font-family="Times,serif" font-size="14.00">standard(X₁)</text>
<polyline fill="none" stroke="#7f7542" points="16.5,-76.5 291.5,-76.5 "/>
<text text-anchor="middle" x="154" y="-65.3" font-family="Times,serif" font-size="14.00">unfolded(X₁)</text>
<polyline fill="none" stroke="#7f7542" points="16.5,-61.5 291.5,-61.5 "/>
<text text-anchor="middle" x="154" y="-50.3" font-family="Times,serif" font-size="14.00">⇊</text>
<polyline fill="none" stroke="#7f7542" points="16.5,-46.5 291.5,-46.5 "/>
<text text-anchor="middle" x="154" y="-35.3" font-family="Times,serif" font-size="14.00">1 ≤ skolem₂(X₁)</text>
<polyline fill="none" stroke="#7f7542" points="16.5,-31.5 291.5,-31.5 "/>
<text text-anchor="middle" x="154" y="-20.3" font-family="Times,serif" font-size="14.00">constant(X₁)</text>
</a>
</g>
</g>
<!-- c_0_180&#45;&gt;c_0_179 -->
<g id="edge3" class="edge">
<title>c_0_180&#45;&gt;c_0_179</title>
<path fill="none" stroke="black" stroke-dasharray="5,2" d="M154,-188.29C154,-188.29 154,-161.72 154,-161.72"/>
<polygon fill="black" stroke="black" points="157.5,-161.72 154,-151.72 150.5,-161.72 157.5,-161.72"/>
</g>
</g>
</svg>
