<?xml version="1.0" encoding="UTF-8" standalone="no"?>
<!DOCTYPE svg PUBLIC "-//W3C//DTD SVG 1.1//EN"
 "http://www.w3.org/Graphics/SVG/1.1/DTD/svg11.dtd">
<!-- Generated by graphviz version 5.0.0 (0)
 -->
<!-- Title: proof Pages: 1 -->
<svg width="494pt" height="340pt"
 viewBox="0.00 0.00 494.00 340.00" xmlns="http://www.w3.org/2000/svg" xmlns:xlink="http://www.w3.org/1999/xlink">
<g id="graph0" class="graph" transform="scale(1 1) rotate(0) translate(4 336)">
<title>proof</title>
<polygon fill="white" stroke="transparent" points="-4,4 -4,-336 490,-336 490,4 -4,4"/>
<g id="clust1" class="cluster">
<title>cluster_0</title>
<polygon fill="none" stroke="black" stroke-dasharray="1,5" points="223,-292 223,-324 321,-324 321,-292 223,-292"/>
</g>
<g id="clust2" class="cluster">
<title>cluster_1</title>
<polygon fill="none" stroke="black" stroke-width="2" points="237,-195 237,-272 307,-272 307,-195 237,-195"/>
</g>
<g id="clust3" class="cluster">
<title>cluster_2</title>
<polygon fill="none" stroke="black" stroke-dasharray="1,5" points="8,-8 8,-175 478,-175 478,-8 8,-8"/>
</g>
<!-- t2_xxreal_0 -->
<g id="node1" class="node">
<title>t2_xxreal_0</title>
<g id="a_node1"><a xlink:href="http://grid01.ciirc.cvut.cz/~mptp/7.13.01_4.181.1147/html/xxreal_0.html#T2" xlink:title="t2_xxreal_0" target="_blank">
<polygon fill="#69d2e7" stroke="#7f7542" points="231,-300.5 231,-315.5 313,-315.5 313,-300.5 231,-300.5"/>
<text text-anchor="middle" x="272" y="-304.3" font-family="Times,serif" font-size="14.00">t2_xxreal_0</text>
</a>
</g>
</g>
<!-- c_0_177 -->
<g id="node2" class="node">
<title>c_0_177</title>
<g id="a_node2"><a xlink:href="c_0_177.html" xlink:title="{E₁ ≤ E₂|E₂ ≤ E₃|⇊|E₁ ≤ E₃}" target="_parent">
<polygon fill="#f8edd1" stroke="#7f7542" points="245.5,-203.5 245.5,-263.5 298.5,-263.5 298.5,-203.5 245.5,-203.5"/>
<text text-anchor="middle" x="272" y="-252.3" font-family="Times,serif" font-size="14.00">E₁ ≤ E₂</text>
<polyline fill="none" stroke="#7f7542" points="245.5,-248.5 298.5,-248.5 "/>
<text text-anchor="middle" x="272" y="-237.3" font-family="Times,serif" font-size="14.00">E₂ ≤ E₃</text>
<polyline fill="none" stroke="#7f7542" points="245.5,-233.5 298.5,-233.5 "/>
<text text-anchor="middle" x="272" y="-222.3" font-family="Times,serif" font-size="14.00">⇊</text>
<polyline fill="none" stroke="#7f7542" points="245.5,-218.5 298.5,-218.5 "/>
<text text-anchor="middle" x="272" y="-207.3" font-family="Times,serif" font-size="14.00">E₁ ≤ E₃</text>
</a>
</g>
</g>
<!-- t2_xxreal_0&#45;&gt;c_0_177 -->
<g id="edge1" class="edge">
<title>t2_xxreal_0&#45;&gt;c_0_177</title>
<path fill="none" stroke="black" d="M272,-300.31C272,-300.31 272,-273.51 272,-273.51"/>
<polygon fill="black" stroke="black" points="275.5,-273.51 272,-263.51 268.5,-273.51 275.5,-273.51"/>
</g>
<!-- c_0_242 -->
<g id="node3" class="node">
<title>c_0_242</title>
<g id="a_node3"><a xlink:href="c_0_242.html" xlink:title="{E₁ ≤ skolem₂(skolem₁)|ext&#45;real&#45;membered(ℕ)|⇊|E₁ ≤ len(skolem₁)}" target="_parent">
<polygon fill="#fa6900" stroke="#7f7542" points="310,-61.5 310,-121.5 470,-121.5 470,-61.5 310,-61.5"/>
<text text-anchor="middle" x="390" y="-110.3" font-family="Times,serif" font-size="14.00">E₁ ≤ skolem₂(skolem₁)</text>
<polyline fill="none" stroke="#7f7542" points="310,-106.5 470,-106.5 "/>
<text text-anchor="middle" x="390" y="-95.3" font-family="Times,serif" font-size="14.00">ext&#45;real&#45;membered(ℕ)</text>
<polyline fill="none" stroke="#7f7542" points="310,-91.5 470,-91.5 "/>
<text text-anchor="middle" x="390" y="-80.3" font-family="Times,serif" font-size="14.00">⇊</text>
<polyline fill="none" stroke="#7f7542" points="310,-76.5 470,-76.5 "/>
<text text-anchor="middle" x="390" y="-65.3" font-family="Times,serif" font-size="14.00">E₁ ≤ len(skolem₁)</text>
</a>
</g>
</g>
<!-- c_0_177&#45;&gt;c_0_242 -->
<g id="edge2" class="edge">
<title>c_0_177&#45;&gt;c_0_242</title>
<path fill="none" stroke="black" stroke-dasharray="5,2" d="M295,-203.28C295,-161.45 295,-91 295,-91 295,-91 299.84,-91 299.84,-91"/>
<polygon fill="black" stroke="black" points="299.84,-94.5 309.84,-91 299.84,-87.5 299.84,-94.5"/>
</g>
<!-- c_0_198 -->
<g id="node4" class="node">
<title>c_0_198</title>
<g id="a_node4"><a xlink:href="c_0_198.html" xlink:title="{ s.c.c. X₂|E₁ ≤ skolem₂(X₂)|FinSequence(X₂,carrier(TOP&#45;REAL(2)))|circular(X₂,carrier(TOP&#45;REAL(2)))|special(X₂)|standard(X₂)|unfolded(X₂)|⇊|E₁ ≤ len(X₂)|constant(X₂)}" target="_parent">
<polygon fill="#f8edd1" stroke="#7f7542" points="16.5,-16.5 16.5,-166.5 291.5,-166.5 291.5,-16.5 16.5,-16.5"/>
<text text-anchor="middle" x="154" y="-155.3" font-family="Times,serif" font-size="14.00">s.c.c. X₂</text>
<polyline fill="none" stroke="#7f7542" points="16.5,-151.5 291.5,-151.5 "/>
<text text-anchor="middle" x="154" y="-140.3" font-family="Times,serif" font-size="14.00">E₁ ≤ skolem₂(X₂)</text>
<polyline fill="none" stroke="#7f7542" points="16.5,-136.5 291.5,-136.5 "/>
<text text-anchor="middle" x="154" y="-125.3" font-family="Times,serif" font-size="14.00">FinSequence(X₂,carrier(TOP&#45;REAL(2)))</text>
<polyline fill="none" stroke="#7f7542" points="16.5,-121.5 291.5,-121.5 "/>
<text text-anchor="middle" x="154" y="-110.3" font-family="Times,serif" font-size="14.00">circular(X₂,carrier(TOP&#45;REAL(2)))</text>
<polyline fill="none" stroke="#7f7542" points="16.5,-106.5 291.5,-106.5 "/>
<text text-anchor="middle" x="154" y="-95.3" font-family="Times,serif" font-size="14.00">special(X₂)</text>
<polyline fill="none" stroke="#7f7542" points="16.5,-91.5 291.5,-91.5 "/>
<text text-anchor="middle" x="154" y="-80.3" font-family="Times,serif" font-size="14.00">standard(X₂)</text>
<polyline fill="none" stroke="#7f7542" points="16.5,-76.5 291.5,-76.5 "/>
<text text-anchor="middle" x="154" y="-65.3" font-family="Times,serif" font-size="14.00">unfolded(X₂)</text>
<polyline fill="none" stroke="#7f7542" points="16.5,-61.5 291.5,-61.5 "/>
<text text-anchor="middle" x="154" y="-50.3" font-family="Times,serif" font-size="14.00">⇊</text>
<polyline fill="none" stroke="#7f7542" points="16.5,-46.5 291.5,-46.5 "/>
<text text-anchor="middle" x="154" y="-35.3" font-family="Times,serif" font-size="14.00">E₁ ≤ len(X₂)</text>
<polyline fill="none" stroke="#7f7542" points="16.5,-31.5 291.5,-31.5 "/>
<text text-anchor="middle" x="154" y="-20.3" font-family="Times,serif" font-size="14.00">constant(X₂)</text>
</a>
</g>
</g>
<!-- c_0_177&#45;&gt;c_0_198 -->
<g id="edge3" class="edge">
<title>c_0_177&#45;&gt;c_0_198</title>
<path fill="none" stroke="black" stroke-dasharray="5,2" d="M268.5,-203.39C268.5,-203.39 268.5,-176.57 268.5,-176.57"/>
<polygon fill="black" stroke="black" points="272,-176.57 268.5,-166.57 265,-176.57 272,-176.57"/>
</g>
</g>
</svg>
