<?xml version="1.0" encoding="UTF-8" standalone="no"?>
<!DOCTYPE svg PUBLIC "-//W3C//DTD SVG 1.1//EN"
 "http://www.w3.org/Graphics/SVG/1.1/DTD/svg11.dtd">
<!-- Generated by graphviz version 5.0.0 (0)
 -->
<!-- Title: proof Pages: 1 -->
<svg width="654pt" height="295pt"
 viewBox="0.00 0.00 654.00 295.00" xmlns="http://www.w3.org/2000/svg" xmlns:xlink="http://www.w3.org/1999/xlink">
<g id="graph0" class="graph" transform="scale(1 1) rotate(0) translate(4 291)">
<title>proof</title>
<polygon fill="white" stroke="transparent" points="-4,4 -4,-291 650,-291 650,4 -4,4"/>
<g id="clust1" class="cluster">
<title>cluster_0</title>
<polygon fill="none" stroke="black" stroke-dasharray="1,5" points="213,-247 213,-279 401,-279 401,-247 213,-247"/>
</g>
<g id="clust2" class="cluster">
<title>cluster_1</title>
<polygon fill="none" stroke="black" stroke-width="2" points="219,-150 219,-227 395,-227 395,-150 219,-150"/>
</g>
<g id="clust3" class="cluster">
<title>cluster_2</title>
<polygon fill="none" stroke="black" stroke-dasharray="1,5" points="8,-8 8,-130 638,-130 638,-8 8,-8"/>
</g>
<!-- redefinition_k1_relset_1 -->
<g id="node1" class="node">
<title>redefinition_k1_relset_1</title>
<g id="a_node1"><a xlink:href="http://grid01.ciirc.cvut.cz/~mptp/7.13.01_4.181.1147/html/relset_1.html#K1" xlink:title="redefinition_k1_relset_1" target="_blank">
<polygon fill="#69d2e7" stroke="#7f7542" points="221.5,-255.5 221.5,-270.5 392.5,-270.5 392.5,-255.5 221.5,-255.5"/>
<text text-anchor="middle" x="307" y="-259.3" font-family="Times,serif" font-size="14.00">redefinition_k1_relset_1</text>
</a>
</g>
</g>
<!-- c_0_125 -->
<g id="node2" class="node">
<title>c_0_125</title>
<g id="a_node2"><a xlink:href="c_0_125.html" xlink:title="{&#45;defined(X₁,X₂)|Relation&#45;like(X₁)|⇊|dom(X₂,X₁) = proj1(X₁)}" target="_parent">
<polygon fill="#f8edd1" stroke="#7f7542" points="227,-158.5 227,-218.5 387,-218.5 387,-158.5 227,-158.5"/>
<text text-anchor="middle" x="307" y="-207.3" font-family="Times,serif" font-size="14.00">&#45;defined(X₁,X₂)</text>
<polyline fill="none" stroke="#7f7542" points="227,-203.5 387,-203.5 "/>
<text text-anchor="middle" x="307" y="-192.3" font-family="Times,serif" font-size="14.00">Relation&#45;like(X₁)</text>
<polyline fill="none" stroke="#7f7542" points="227,-188.5 387,-188.5 "/>
<text text-anchor="middle" x="307" y="-177.3" font-family="Times,serif" font-size="14.00">⇊</text>
<polyline fill="none" stroke="#7f7542" points="227,-173.5 387,-173.5 "/>
<text text-anchor="middle" x="307" y="-162.3" font-family="Times,serif" font-size="14.00">dom(X₂,X₁) = proj1(X₁)</text>
</a>
</g>
</g>
<!-- redefinition_k1_relset_1&#45;&gt;c_0_125 -->
<g id="edge1" class="edge">
<title>redefinition_k1_relset_1&#45;&gt;c_0_125</title>
<path fill="none" stroke="black" d="M307,-255.31C307,-255.31 307,-228.51 307,-228.51"/>
<polygon fill="black" stroke="black" points="310.5,-228.51 307,-218.51 303.5,-228.51 310.5,-228.51"/>
</g>
<!-- c_0_154 -->
<g id="node3" class="node">
<title>c_0_154</title>
<g id="a_node3"><a xlink:href="c_0_154.html" xlink:title="{FinSequence&#45;like(X₂)|Function&#45;like(X₂)|Relation&#45;like(X₂)|in(N₁,proj1(X₂))|⇊|1 ≤ N₁}" target="_parent">
<polygon fill="#f8edd1" stroke="#7f7542" points="482,-24 482,-114 630,-114 630,-24 482,-24"/>
<text text-anchor="middle" x="556" y="-102.8" font-family="Times,serif" font-size="14.00">FinSequence&#45;like(X₂)</text>
<polyline fill="none" stroke="#7f7542" points="482,-99 630,-99 "/>
<text text-anchor="middle" x="556" y="-87.8" font-family="Times,serif" font-size="14.00">Function&#45;like(X₂)</text>
<polyline fill="none" stroke="#7f7542" points="482,-84 630,-84 "/>
<text text-anchor="middle" x="556" y="-72.8" font-family="Times,serif" font-size="14.00">Relation&#45;like(X₂)</text>
<polyline fill="none" stroke="#7f7542" points="482,-69 630,-69 "/>
<text text-anchor="middle" x="556" y="-57.8" font-family="Times,serif" font-size="14.00">in(N₁,proj1(X₂))</text>
<polyline fill="none" stroke="#7f7542" points="482,-54 630,-54 "/>
<text text-anchor="middle" x="556" y="-42.8" font-family="Times,serif" font-size="14.00">⇊</text>
<polyline fill="none" stroke="#7f7542" points="482,-39 630,-39 "/>
<text text-anchor="middle" x="556" y="-27.8" font-family="Times,serif" font-size="14.00">1 ≤ N₁</text>
</a>
</g>
</g>
<!-- c_0_125&#45;&gt;c_0_154 -->
<g id="edge2" class="edge">
<title>c_0_125&#45;&gt;c_0_154</title>
<path fill="none" stroke="black" stroke-dasharray="5,2" d="M387.16,-188C459.95,-188 556,-188 556,-188 556,-188 556,-124.33 556,-124.33"/>
<polygon fill="black" stroke="black" points="559.5,-124.33 556,-114.33 552.5,-124.33 559.5,-124.33"/>
</g>
<!-- c_0_217 -->
<g id="node4" class="node">
<title>c_0_217</title>
<g id="a_node4"><a xlink:href="c_0_217.html" xlink:title="{1 ≤ N₁|FinSequence&#45;like(X₂)|Function&#45;like(X₂)|N₁ ≤ len(X₂)|Relation&#45;like(X₂)|⇊|in(N₁,proj1(X₂))}" target="_parent">
<polygon fill="#f8edd1" stroke="#7f7542" points="316,-16.5 316,-121.5 464,-121.5 464,-16.5 316,-16.5"/>
<text text-anchor="middle" x="390" y="-110.3" font-family="Times,serif" font-size="14.00">1 ≤ N₁</text>
<polyline fill="none" stroke="#7f7542" points="316,-106.5 464,-106.5 "/>
<text text-anchor="middle" x="390" y="-95.3" font-family="Times,serif" font-size="14.00">FinSequence&#45;like(X₂)</text>
<polyline fill="none" stroke="#7f7542" points="316,-91.5 464,-91.5 "/>
<text text-anchor="middle" x="390" y="-80.3" font-family="Times,serif" font-size="14.00">Function&#45;like(X₂)</text>
<polyline fill="none" stroke="#7f7542" points="316,-76.5 464,-76.5 "/>
<text text-anchor="middle" x="390" y="-65.3" font-family="Times,serif" font-size="14.00">N₁ ≤ len(X₂)</text>
<polyline fill="none" stroke="#7f7542" points="316,-61.5 464,-61.5 "/>
<text text-anchor="middle" x="390" y="-50.3" font-family="Times,serif" font-size="14.00">Relation&#45;like(X₂)</text>
<polyline fill="none" stroke="#7f7542" points="316,-46.5 464,-46.5 "/>
<text text-anchor="middle" x="390" y="-35.3" font-family="Times,serif" font-size="14.00">⇊</text>
<polyline fill="none" stroke="#7f7542" points="316,-31.5 464,-31.5 "/>
<text text-anchor="middle" x="390" y="-20.3" font-family="Times,serif" font-size="14.00">in(N₁,proj1(X₂))</text>
</a>
</g>
</g>
<!-- c_0_125&#45;&gt;c_0_217 -->
<g id="edge3" class="edge">
<title>c_0_125&#45;&gt;c_0_217</title>
<path fill="none" stroke="black" stroke-dasharray="5,2" d="M351.5,-158.35C351.5,-158.35 351.5,-131.94 351.5,-131.94"/>
<polygon fill="black" stroke="black" points="355,-131.94 351.5,-121.94 348,-131.94 355,-131.94"/>
</g>
<!-- c_0_151 -->
<g id="node5" class="node">
<title>c_0_151</title>
<g id="a_node5"><a xlink:href="c_0_151.html" xlink:title="{FinSequence&#45;like(X₂)|Function&#45;like(X₂)|Relation&#45;like(X₂)|in(N₁,proj1(X₂))|⇊|N₁ ≤ len(X₂)}" target="_parent">
<polygon fill="#f8edd1" stroke="#7f7542" points="150,-24 150,-114 298,-114 298,-24 150,-24"/>
<text text-anchor="middle" x="224" y="-102.8" font-family="Times,serif" font-size="14.00">FinSequence&#45;like(X₂)</text>
<polyline fill="none" stroke="#7f7542" points="150,-99 298,-99 "/>
<text text-anchor="middle" x="224" y="-87.8" font-family="Times,serif" font-size="14.00">Function&#45;like(X₂)</text>
<polyline fill="none" stroke="#7f7542" points="150,-84 298,-84 "/>
<text text-anchor="middle" x="224" y="-72.8" font-family="Times,serif" font-size="14.00">Relation&#45;like(X₂)</text>
<polyline fill="none" stroke="#7f7542" points="150,-69 298,-69 "/>
<text text-anchor="middle" x="224" y="-57.8" font-family="Times,serif" font-size="14.00">in(N₁,proj1(X₂))</text>
<polyline fill="none" stroke="#7f7542" points="150,-54 298,-54 "/>
<text text-anchor="middle" x="224" y="-42.8" font-family="Times,serif" font-size="14.00">⇊</text>
<polyline fill="none" stroke="#7f7542" points="150,-39 298,-39 "/>
<text text-anchor="middle" x="224" y="-27.8" font-family="Times,serif" font-size="14.00">N₁ ≤ len(X₂)</text>
</a>
</g>
</g>
<!-- c_0_125&#45;&gt;c_0_151 -->
<g id="edge4" class="edge">
<title>c_0_125&#45;&gt;c_0_151</title>
<path fill="none" stroke="black" stroke-dasharray="5,2" d="M262.5,-158.35C262.5,-158.35 262.5,-124.06 262.5,-124.06"/>
<polygon fill="black" stroke="black" points="266,-124.06 262.5,-114.06 259,-124.06 266,-124.06"/>
</g>
<!-- c_0_165 -->
<g id="node6" class="node">
<title>c_0_165</title>
<g id="a_node6"><a xlink:href="c_0_165.html" xlink:title="{&#45;defined(X₃,X₂)|Relation&#45;like(X₃)|in(X₁,proj1(X₃))|⇊|X₁ ∈ X₂}" target="_parent">
<polygon fill="#f8edd1" stroke="#7f7542" points="16.5,-31.5 16.5,-106.5 131.5,-106.5 131.5,-31.5 16.5,-31.5"/>
<text text-anchor="middle" x="74" y="-95.3" font-family="Times,serif" font-size="14.00">&#45;defined(X₃,X₂)</text>
<polyline fill="none" stroke="#7f7542" points="16.5,-91.5 131.5,-91.5 "/>
<text text-anchor="middle" x="74" y="-80.3" font-family="Times,serif" font-size="14.00">Relation&#45;like(X₃)</text>
<polyline fill="none" stroke="#7f7542" points="16.5,-76.5 131.5,-76.5 "/>
<text text-anchor="middle" x="74" y="-65.3" font-family="Times,serif" font-size="14.00">in(X₁,proj1(X₃))</text>
<polyline fill="none" stroke="#7f7542" points="16.5,-61.5 131.5,-61.5 "/>
<text text-anchor="middle" x="74" y="-50.3" font-family="Times,serif" font-size="14.00">⇊</text>
<polyline fill="none" stroke="#7f7542" points="16.5,-46.5 131.5,-46.5 "/>
<text text-anchor="middle" x="74" y="-35.3" font-family="Times,serif" font-size="14.00">X₁ ∈ X₂</text>
</a>
</g>
</g>
<!-- c_0_125&#45;&gt;c_0_165 -->
<g id="edge5" class="edge">
<title>c_0_125&#45;&gt;c_0_165</title>
<path fill="none" stroke="black" stroke-dasharray="5,2" d="M226.81,-188C159.42,-188 74,-188 74,-188 74,-188 74,-116.65 74,-116.65"/>
<polygon fill="black" stroke="black" points="77.5,-116.65 74,-106.65 70.5,-116.65 77.5,-116.65"/>
</g>
</g>
</svg>
