<?xml version="1.0" encoding="UTF-8" standalone="no"?>
<!DOCTYPE svg PUBLIC "-//W3C//DTD SVG 1.1//EN"
 "http://www.w3.org/Graphics/SVG/1.1/DTD/svg11.dtd">
<!-- Generated by graphviz version 5.0.0 (0)
 -->
<!-- Title: proof Pages: 1 -->
<svg width="661pt" height="385pt"
 viewBox="0.00 0.00 661.00 385.00" xmlns="http://www.w3.org/2000/svg" xmlns:xlink="http://www.w3.org/1999/xlink">
<g id="graph0" class="graph" transform="scale(1 1) rotate(0) translate(4 381)">
<title>proof</title>
<polygon fill="white" stroke="transparent" points="-4,4 -4,-381 657,-381 657,4 -4,4"/>
<g id="clust1" class="cluster">
<title>cluster_0</title>
<polygon fill="none" stroke="black" stroke-dasharray="1,5" points="8,-262 8,-369 645,-369 645,-262 8,-262"/>
</g>
<g id="clust2" class="cluster">
<title>cluster_1</title>
<polygon fill="none" stroke="black" stroke-width="2" points="278,-150 278,-242 442,-242 442,-150 278,-150"/>
</g>
<g id="clust3" class="cluster">
<title>cluster_2</title>
<polygon fill="none" stroke="black" stroke-dasharray="1,5" points="195,-8 195,-130 525,-130 525,-8 195,-8"/>
</g>
<!-- c_0_196 -->
<g id="node1" class="node">
<title>c_0_196</title>
<g id="a_node1"><a xlink:href="c_0_196.html" xlink:title="{ℝ = Ø|⇊|⊥}" target="_parent">
<polygon fill="#f8edd1" stroke="#7f7542" points="591.5,-293 591.5,-338 636.5,-338 636.5,-293 591.5,-293"/>
<text text-anchor="middle" x="614" y="-326.8" font-family="Times,serif" font-size="14.00">ℝ = Ø</text>
<polyline fill="none" stroke="#7f7542" points="591.5,-323 636.5,-323 "/>
<text text-anchor="middle" x="614" y="-311.8" font-family="Times,serif" font-size="14.00">⇊</text>
<polyline fill="none" stroke="#7f7542" points="591.5,-308 636.5,-308 "/>
<text text-anchor="middle" x="614" y="-296.8" font-family="Times,serif" font-size="14.00">⊥</text>
</a>
</g>
</g>
<!-- c_0_211 -->
<g id="node8" class="node">
<title>c_0_211</title>
<g id="a_node8"><a xlink:href="c_0_211.html" xlink:title="{FinSequence&#45;like(X₁)|Function&#45;like(X₁)|Relation&#45;like(X₁)|⇊|len(X₁) ∈ ℕ}" target="_parent">
<polygon fill="#f8edd1" stroke="#7f7542" points="286,-158.5 286,-233.5 434,-233.5 434,-158.5 286,-158.5"/>
<text text-anchor="middle" x="360" y="-222.3" font-family="Times,serif" font-size="14.00">FinSequence&#45;like(X₁)</text>
<polyline fill="none" stroke="#7f7542" points="286,-218.5 434,-218.5 "/>
<text text-anchor="middle" x="360" y="-207.3" font-family="Times,serif" font-size="14.00">Function&#45;like(X₁)</text>
<polyline fill="none" stroke="#7f7542" points="286,-203.5 434,-203.5 "/>
<text text-anchor="middle" x="360" y="-192.3" font-family="Times,serif" font-size="14.00">Relation&#45;like(X₁)</text>
<polyline fill="none" stroke="#7f7542" points="286,-188.5 434,-188.5 "/>
<text text-anchor="middle" x="360" y="-177.3" font-family="Times,serif" font-size="14.00">⇊</text>
<polyline fill="none" stroke="#7f7542" points="286,-173.5 434,-173.5 "/>
<text text-anchor="middle" x="360" y="-162.3" font-family="Times,serif" font-size="14.00">len(X₁) ∈ ℕ</text>
</a>
</g>
</g>
<!-- c_0_196&#45;&gt;c_0_211 -->
<g id="edge1" class="edge">
<title>c_0_196&#45;&gt;c_0_211</title>
<path fill="none" stroke="black" d="M591.5,-300C542.5,-300 430.5,-300 430.5,-300 430.5,-300 430.5,-243.55 430.5,-243.55"/>
<polygon fill="black" stroke="black" points="434,-243.55 430.5,-233.55 427,-243.55 434,-243.55"/>
</g>
<!-- c_0_162 -->
<g id="node2" class="node">
<title>c_0_162</title>
<g id="a_node2"><a xlink:href="c_0_162.html" xlink:title="{ℕ ∈ bool(ℝ)}" target="_parent">
<polygon fill="#f8edd1" stroke="#7f7542" points="488.5,-308 488.5,-323 573.5,-323 573.5,-308 488.5,-308"/>
<text text-anchor="middle" x="531" y="-311.8" font-family="Times,serif" font-size="14.00">ℕ ∈ bool(ℝ)</text>
</a>
</g>
</g>
<!-- c_0_162&#45;&gt;c_0_211 -->
<g id="edge2" class="edge">
<title>c_0_162&#45;&gt;c_0_211</title>
<path fill="none" stroke="black" d="M502.75,-307.66C502.75,-281.07 502.75,-196 502.75,-196 502.75,-196 444.3,-196 444.3,-196"/>
<polygon fill="black" stroke="black" points="444.3,-192.5 434.3,-196 444.3,-199.5 444.3,-192.5"/>
</g>
<!-- c_0_186 -->
<g id="node3" class="node">
<title>c_0_186</title>
<g id="a_node3"><a xlink:href="c_0_186.html" xlink:title="{ℕ ⊆ ℕ}" target="_parent">
<polygon fill="#f8edd1" stroke="#7f7542" points="423.5,-308 423.5,-323 470.5,-323 470.5,-308 423.5,-308"/>
<text text-anchor="middle" x="447" y="-311.8" font-family="Times,serif" font-size="14.00">ℕ ⊆ ℕ</text>
</a>
</g>
</g>
<!-- c_0_186&#45;&gt;c_0_211 -->
<g id="edge3" class="edge">
<title>c_0_186&#45;&gt;c_0_211</title>
<path fill="none" stroke="black" d="M427,-307.66C427,-307.66 427,-243.66 427,-243.66"/>
<polygon fill="black" stroke="black" points="430.5,-243.66 427,-233.66 423.5,-243.66 430.5,-243.66"/>
</g>
<!-- c_0_194 -->
<g id="node4" class="node">
<title>c_0_194</title>
<g id="a_node4"><a xlink:href="c_0_194.html" xlink:title="{X₁ ∈ X₂ ∈ X₃|X₃ ∈ bool(X₂)|⇊|X₁ ∈ X₃|X₂ = Ø|X₃ = Ø}" target="_parent">
<polygon fill="#f8edd1" stroke="#7f7542" points="314.5,-270.5 314.5,-360.5 405.5,-360.5 405.5,-270.5 314.5,-270.5"/>
<text text-anchor="middle" x="360" y="-349.3" font-family="Times,serif" font-size="14.00">X₁ ∈ X₂ ∈ X₃</text>
<polyline fill="none" stroke="#7f7542" points="314.5,-345.5 405.5,-345.5 "/>
<text text-anchor="middle" x="360" y="-334.3" font-family="Times,serif" font-size="14.00">X₃ ∈ bool(X₂)</text>
<polyline fill="none" stroke="#7f7542" points="314.5,-330.5 405.5,-330.5 "/>
<text text-anchor="middle" x="360" y="-319.3" font-family="Times,serif" font-size="14.00">⇊</text>
<polyline fill="none" stroke="#7f7542" points="314.5,-315.5 405.5,-315.5 "/>
<text text-anchor="middle" x="360" y="-304.3" font-family="Times,serif" font-size="14.00">X₁ ∈ X₃</text>
<polyline fill="none" stroke="#7f7542" points="314.5,-300.5 405.5,-300.5 "/>
<text text-anchor="middle" x="360" y="-289.3" font-family="Times,serif" font-size="14.00">X₂ = Ø</text>
<polyline fill="none" stroke="#7f7542" points="314.5,-285.5 405.5,-285.5 "/>
<text text-anchor="middle" x="360" y="-274.3" font-family="Times,serif" font-size="14.00">X₃ = Ø</text>
</a>
</g>
</g>
<!-- c_0_194&#45;&gt;c_0_211 -->
<g id="edge4" class="edge">
<title>c_0_194&#45;&gt;c_0_211</title>
<path fill="none" stroke="black" d="M360,-270.32C360,-270.32 360,-243.83 360,-243.83"/>
<polygon fill="black" stroke="black" points="363.5,-243.83 360,-233.83 356.5,-243.83 363.5,-243.83"/>
</g>
<!-- c_0_197 -->
<g id="node5" class="node">
<title>c_0_197</title>
<g id="a_node5"><a xlink:href="c_0_197.html" xlink:title="{ℕ = Ø|⇊|⊥}" target="_parent">
<polygon fill="#f8edd1" stroke="#7f7542" points="250,-293 250,-338 296,-338 296,-293 250,-293"/>
<text text-anchor="middle" x="273" y="-326.8" font-family="Times,serif" font-size="14.00">ℕ = Ø</text>
<polyline fill="none" stroke="#7f7542" points="250,-323 296,-323 "/>
<text text-anchor="middle" x="273" y="-311.8" font-family="Times,serif" font-size="14.00">⇊</text>
<polyline fill="none" stroke="#7f7542" points="250,-308 296,-308 "/>
<text text-anchor="middle" x="273" y="-296.8" font-family="Times,serif" font-size="14.00">⊥</text>
</a>
</g>
</g>
<!-- c_0_197&#45;&gt;c_0_211 -->
<g id="edge5" class="edge">
<title>c_0_197&#45;&gt;c_0_211</title>
<path fill="none" stroke="black" d="M293.5,-292.74C293.5,-292.74 293.5,-243.71 293.5,-243.71"/>
<polygon fill="black" stroke="black" points="297,-243.71 293.5,-233.71 290,-243.71 297,-243.71"/>
</g>
<!-- c_0_185 -->
<g id="node6" class="node">
<title>c_0_185</title>
<g id="a_node6"><a xlink:href="c_0_185.html" xlink:title="{X₁ ⊆ ℕ|X₂ ∈ X₁|⇊|X₂ ∈ ℕ}" target="_parent">
<polygon fill="#f8edd1" stroke="#7f7542" points="182,-285.5 182,-345.5 232,-345.5 232,-285.5 182,-285.5"/>
<text text-anchor="middle" x="207" y="-334.3" font-family="Times,serif" font-size="14.00">X₁ ⊆ ℕ</text>
<polyline fill="none" stroke="#7f7542" points="182,-330.5 232,-330.5 "/>
<text text-anchor="middle" x="207" y="-319.3" font-family="Times,serif" font-size="14.00">X₂ ∈ X₁</text>
<polyline fill="none" stroke="#7f7542" points="182,-315.5 232,-315.5 "/>
<text text-anchor="middle" x="207" y="-304.3" font-family="Times,serif" font-size="14.00">⇊</text>
<polyline fill="none" stroke="#7f7542" points="182,-300.5 232,-300.5 "/>
<text text-anchor="middle" x="207" y="-289.3" font-family="Times,serif" font-size="14.00">X₂ ∈ ℕ</text>
</a>
</g>
</g>
<!-- c_0_185&#45;&gt;c_0_211 -->
<g id="edge6" class="edge">
<title>c_0_185&#45;&gt;c_0_211</title>
<path fill="none" stroke="black" d="M232.2,-288C256.95,-288 291,-288 291,-288 291,-288 291,-243.69 291,-243.69"/>
<polygon fill="black" stroke="black" points="294.5,-243.69 291,-233.69 287.5,-243.69 294.5,-243.69"/>
</g>
<!-- c_0_195 -->
<g id="node7" class="node">
<title>c_0_195</title>
<g id="a_node7"><a xlink:href="c_0_195.html" xlink:title="{FinSequence&#45;like(X₁)|Function&#45;like(X₁)|Relation&#45;like(X₁)|⇊|len(X₁) ∈ ℝ ∈ ℕ}" target="_parent">
<polygon fill="#f8edd1" stroke="#7f7542" points="16,-278 16,-353 164,-353 164,-278 16,-278"/>
<text text-anchor="middle" x="90" y="-341.8" font-family="Times,serif" font-size="14.00">FinSequence&#45;like(X₁)</text>
<polyline fill="none" stroke="#7f7542" points="16,-338 164,-338 "/>
<text text-anchor="middle" x="90" y="-326.8" font-family="Times,serif" font-size="14.00">Function&#45;like(X₁)</text>
<polyline fill="none" stroke="#7f7542" points="16,-323 164,-323 "/>
<text text-anchor="middle" x="90" y="-311.8" font-family="Times,serif" font-size="14.00">Relation&#45;like(X₁)</text>
<polyline fill="none" stroke="#7f7542" points="16,-308 164,-308 "/>
<text text-anchor="middle" x="90" y="-296.8" font-family="Times,serif" font-size="14.00">⇊</text>
<polyline fill="none" stroke="#7f7542" points="16,-293 164,-293 "/>
<text text-anchor="middle" x="90" y="-281.8" font-family="Times,serif" font-size="14.00">len(X₁) ∈ ℝ ∈ ℕ</text>
</a>
</g>
</g>
<!-- c_0_195&#45;&gt;c_0_211 -->
<g id="edge7" class="edge">
<title>c_0_195&#45;&gt;c_0_211</title>
<path fill="none" stroke="black" d="M164.2,-281C220.58,-281 288.5,-281 288.5,-281 288.5,-281 288.5,-243.53 288.5,-243.53"/>
<polygon fill="black" stroke="black" points="292,-243.53 288.5,-233.53 285,-243.53 292,-243.53"/>
</g>
<!-- c_0_225 -->
<g id="node9" class="node">
<title>c_0_225</title>
<g id="a_node9"><a xlink:href="c_0_225.html" xlink:title="{FinSequence&#45;like(X₁)|Function&#45;like(X₁)|Relation&#45;like(X₁)|⇊|len(X₁) ≤ len(X₁)}" target="_parent">
<polygon fill="#f8edd1" stroke="#7f7542" points="369,-31.5 369,-106.5 517,-106.5 517,-31.5 369,-31.5"/>
<text text-anchor="middle" x="443" y="-95.3" font-family="Times,serif" font-size="14.00">FinSequence&#45;like(X₁)</text>
<polyline fill="none" stroke="#7f7542" points="369,-91.5 517,-91.5 "/>
<text text-anchor="middle" x="443" y="-80.3" font-family="Times,serif" font-size="14.00">Function&#45;like(X₁)</text>
<polyline fill="none" stroke="#7f7542" points="369,-76.5 517,-76.5 "/>
<text text-anchor="middle" x="443" y="-65.3" font-family="Times,serif" font-size="14.00">Relation&#45;like(X₁)</text>
<polyline fill="none" stroke="#7f7542" points="369,-61.5 517,-61.5 "/>
<text text-anchor="middle" x="443" y="-50.3" font-family="Times,serif" font-size="14.00">⇊</text>
<polyline fill="none" stroke="#7f7542" points="369,-46.5 517,-46.5 "/>
<text text-anchor="middle" x="443" y="-35.3" font-family="Times,serif" font-size="14.00">len(X₁) ≤ len(X₁)</text>
</a>
</g>
</g>
<!-- c_0_211&#45;&gt;c_0_225 -->
<g id="edge8" class="edge">
<title>c_0_211&#45;&gt;c_0_225</title>
<path fill="none" stroke="black" stroke-dasharray="5,2" d="M401.5,-158.24C401.5,-158.24 401.5,-116.83 401.5,-116.83"/>
<polygon fill="black" stroke="black" points="405,-116.83 401.5,-106.83 398,-116.83 405,-116.83"/>
</g>
<!-- c_0_233 -->
<g id="node10" class="node">
<title>c_0_233</title>
<g id="a_node10"><a xlink:href="c_0_233.html" xlink:title="{&#45;defined(X₁,X₂)|1 ≤ len(X₁)|FinSequence&#45;like(X₁)|Function&#45;like(X₁)|Relation&#45;like(X₁)|⇊|len(X₁) ∈ X₂}" target="_parent">
<polygon fill="#f8edd1" stroke="#7f7542" points="203,-16.5 203,-121.5 351,-121.5 351,-16.5 203,-16.5"/>
<text text-anchor="middle" x="277" y="-110.3" font-family="Times,serif" font-size="14.00">&#45;defined(X₁,X₂)</text>
<polyline fill="none" stroke="#7f7542" points="203,-106.5 351,-106.5 "/>
<text text-anchor="middle" x="277" y="-95.3" font-family="Times,serif" font-size="14.00">1 ≤ len(X₁)</text>
<polyline fill="none" stroke="#7f7542" points="203,-91.5 351,-91.5 "/>
<text text-anchor="middle" x="277" y="-80.3" font-family="Times,serif" font-size="14.00">FinSequence&#45;like(X₁)</text>
<polyline fill="none" stroke="#7f7542" points="203,-76.5 351,-76.5 "/>
<text text-anchor="middle" x="277" y="-65.3" font-family="Times,serif" font-size="14.00">Function&#45;like(X₁)</text>
<polyline fill="none" stroke="#7f7542" points="203,-61.5 351,-61.5 "/>
<text text-anchor="middle" x="277" y="-50.3" font-family="Times,serif" font-size="14.00">Relation&#45;like(X₁)</text>
<polyline fill="none" stroke="#7f7542" points="203,-46.5 351,-46.5 "/>
<text text-anchor="middle" x="277" y="-35.3" font-family="Times,serif" font-size="14.00">⇊</text>
<polyline fill="none" stroke="#7f7542" points="203,-31.5 351,-31.5 "/>
<text text-anchor="middle" x="277" y="-20.3" font-family="Times,serif" font-size="14.00">len(X₁) ∈ X₂</text>
</a>
</g>
</g>
<!-- c_0_211&#45;&gt;c_0_233 -->
<g id="edge9" class="edge">
<title>c_0_211&#45;&gt;c_0_233</title>
<path fill="none" stroke="black" stroke-dasharray="5,2" d="M318.5,-158.24C318.5,-158.24 318.5,-131.89 318.5,-131.89"/>
<polygon fill="black" stroke="black" points="322,-131.89 318.5,-121.89 315,-131.89 322,-131.89"/>
</g>
</g>
</svg>
