<?xml version="1.0" encoding="UTF-8" standalone="no"?>
<!DOCTYPE svg PUBLIC "-//W3C//DTD SVG 1.1//EN"
 "http://www.w3.org/Graphics/SVG/1.1/DTD/svg11.dtd">
<!-- Generated by graphviz version 5.0.0 (0)
 -->
<!-- Title: proof Pages: 1 -->
<svg width="794pt" height="138pt"
 viewBox="0.00 0.00 794.00 138.00" xmlns="http://www.w3.org/2000/svg" xmlns:xlink="http://www.w3.org/1999/xlink">
<g id="graph0" class="graph" transform="scale(1 1) rotate(0) translate(4 134)">
<title>proof</title>
<polygon fill="white" stroke="transparent" points="-4,4 -4,-134 790,-134 790,4 -4,4"/>
<g id="clust1" class="cluster">
<title>cluster_1</title>
<polygon fill="none" stroke="black" stroke-width="2" points="332,-90 332,-122 454,-122 454,-90 332,-90"/>
</g>
<g id="clust2" class="cluster">
<title>cluster_2</title>
<polygon fill="none" stroke="black" stroke-dasharray="1,5" points="8,-8 8,-70 778,-70 778,-8 8,-8"/>
</g>
<!-- d22_pscomp_1 -->
<g id="node1" class="node">
<title>d22_pscomp_1</title>
<g id="a_node1"><a xlink:href="http://grid01.ciirc.cvut.cz/~mptp/7.13.01_4.181.1147/html/pscomp_1.html#D22" xlink:title="d22_pscomp_1" target="_blank">
<polygon fill="#69d2e7" stroke="#7f7542" points="340.5,-98.5 340.5,-113.5 445.5,-113.5 445.5,-98.5 340.5,-98.5"/>
<text text-anchor="middle" x="393" y="-102.3" font-family="Times,serif" font-size="14.00">d22_pscomp_1</text>
</a>
</g>
</g>
<!-- c_0_65 -->
<g id="node2" class="node">
<title>c_0_65</title>
<g id="a_node2"><a xlink:href="c_0_65.html" xlink:title="{X₁ ∈ bool(carrier(TOP&#45;REAL(2)))|⇊|N&#45;max(X₁) = (upper_bound(TOP&#45;REAL(2) \| N&#45;most(X₁),TOP&#45;REAL(2) \| proj1 \| N&#45;most(X₁)) \|[..]\| N&#45;bound(X₁))}" target="_parent">
<polygon fill="#f8edd1" stroke="#7f7542" points="16,-16.5 16,-61.5 770,-61.5 770,-16.5 16,-16.5"/>
<text text-anchor="middle" x="393" y="-50.3" font-family="Times,serif" font-size="14.00">X₁ ∈ bool(carrier(TOP&#45;REAL(2)))</text>
<polyline fill="none" stroke="#7f7542" points="16,-46.5 770,-46.5 "/>
<text text-anchor="middle" x="393" y="-35.3" font-family="Times,serif" font-size="14.00">⇊</text>
<polyline fill="none" stroke="#7f7542" points="16,-31.5 770,-31.5 "/>
<text text-anchor="middle" x="393" y="-20.3" font-family="Times,serif" font-size="14.00">N&#45;max(X₁) = (upper_bound(TOP&#45;REAL(2) | N&#45;most(X₁),TOP&#45;REAL(2) | proj1 | N&#45;most(X₁)) |[..]| N&#45;bound(X₁))</text>
</a>
</g>
</g>
<!-- d22_pscomp_1&#45;&gt;c_0_65 -->
<g id="edge1" class="edge">
<title>d22_pscomp_1&#45;&gt;c_0_65</title>
<path fill="none" stroke="black" stroke-dasharray="5,2" d="M393,-98.31C393,-98.31 393,-71.76 393,-71.76"/>
<polygon fill="black" stroke="black" points="396.5,-71.76 393,-61.76 389.5,-71.76 396.5,-71.76"/>
</g>
</g>
</svg>
