<?xml version="1.0" encoding="UTF-8" standalone="no"?>
<!DOCTYPE svg PUBLIC "-//W3C//DTD SVG 1.1//EN"
 "http://www.w3.org/Graphics/SVG/1.1/DTD/svg11.dtd">
<!-- Generated by graphviz version 5.0.0 (0)
 -->
<!-- Title: proof Pages: 1 -->
<svg width="192pt" height="153pt"
 viewBox="0.00 0.00 192.00 153.00" xmlns="http://www.w3.org/2000/svg" xmlns:xlink="http://www.w3.org/1999/xlink">
<g id="graph0" class="graph" transform="scale(1 1) rotate(0) translate(4 149)">
<title>proof</title>
<polygon fill="white" stroke="transparent" points="-4,4 -4,-149 188,-149 188,4 -4,4"/>
<g id="clust1" class="cluster">
<title>cluster_1</title>
<polygon fill="none" stroke="black" stroke-width="2" points="32,-105 32,-137 152,-137 152,-105 32,-105"/>
</g>
<g id="clust2" class="cluster">
<title>cluster_2</title>
<polygon fill="none" stroke="black" stroke-dasharray="1,5" points="8,-8 8,-85 176,-85 176,-8 8,-8"/>
</g>
<!-- dt_k1_relset_1 -->
<g id="node1" class="node">
<title>dt_k1_relset_1</title>
<g id="a_node1"><a xlink:href="http://grid01.ciirc.cvut.cz/~mptp/7.13.01_4.181.1147/html/relset_1.html#K1" xlink:title="dt_k1_relset_1" target="_blank">
<polygon fill="#69d2e7" stroke="#7f7542" points="40.5,-113.5 40.5,-128.5 143.5,-128.5 143.5,-113.5 40.5,-113.5"/>
<text text-anchor="middle" x="92" y="-117.3" font-family="Times,serif" font-size="14.00">dt_k1_relset_1</text>
</a>
</g>
</g>
<!-- c_0_113 -->
<g id="node2" class="node">
<title>c_0_113</title>
<g id="a_node2"><a xlink:href="c_0_113.html" xlink:title="{&#45;defined(X₁,X₂)|Relation&#45;like(X₁)|⇊|dom(X₂,X₁) ∈ bool(X₂)}" target="_parent">
<polygon fill="#f8edd1" stroke="#7f7542" points="16.5,-16.5 16.5,-76.5 167.5,-76.5 167.5,-16.5 16.5,-16.5"/>
<text text-anchor="middle" x="92" y="-65.3" font-family="Times,serif" font-size="14.00">&#45;defined(X₁,X₂)</text>
<polyline fill="none" stroke="#7f7542" points="16.5,-61.5 167.5,-61.5 "/>
<text text-anchor="middle" x="92" y="-50.3" font-family="Times,serif" font-size="14.00">Relation&#45;like(X₁)</text>
<polyline fill="none" stroke="#7f7542" points="16.5,-46.5 167.5,-46.5 "/>
<text text-anchor="middle" x="92" y="-35.3" font-family="Times,serif" font-size="14.00">⇊</text>
<polyline fill="none" stroke="#7f7542" points="16.5,-31.5 167.5,-31.5 "/>
<text text-anchor="middle" x="92" y="-20.3" font-family="Times,serif" font-size="14.00">dom(X₂,X₁) ∈ bool(X₂)</text>
</a>
</g>
</g>
<!-- dt_k1_relset_1&#45;&gt;c_0_113 -->
<g id="edge1" class="edge">
<title>dt_k1_relset_1&#45;&gt;c_0_113</title>
<path fill="none" stroke="black" stroke-dasharray="5,2" d="M92,-113.31C92,-113.31 92,-86.51 92,-86.51"/>
<polygon fill="black" stroke="black" points="95.5,-86.51 92,-76.51 88.5,-86.51 95.5,-86.51"/>
</g>
</g>
</svg>
