<?xml version="1.0" encoding="UTF-8" standalone="no"?>
<!DOCTYPE svg PUBLIC "-//W3C//DTD SVG 1.1//EN"
 "http://www.w3.org/Graphics/SVG/1.1/DTD/svg11.dtd">
<!-- Generated by graphviz version 5.0.0 (0)
 -->
<!-- Title: proof Pages: 1 -->
<svg width="1608pt" height="865pt"
 viewBox="0.00 0.00 1608.00 865.00" xmlns="http://www.w3.org/2000/svg" xmlns:xlink="http://www.w3.org/1999/xlink">
<g id="graph0" class="graph" transform="scale(1 1) rotate(0) translate(4 861)">
<title>proof</title>
<g id="clust1" class="cluster">
<title>cluster_0</title>
<polygon fill="transparent" stroke="black" stroke-dasharray="1,5" points="343,-607 343,-849 1257,-849 1257,-607 343,-607"/>
</g>
<g id="clust2" class="cluster">
<title>cluster_1</title>
<polygon fill="transparent" stroke="black" stroke-width="2" points="343,-345 343,-587 1257,-587 1257,-345 343,-345"/>
</g>
<g id="clust3" class="cluster">
<title>cluster_2</title>
<polygon fill="transparent" stroke="black" stroke-dasharray="1,5" points="8,-8 8,-325 1592,-325 1592,-8 8,-8"/>
</g>
<!-- c_0_19 -->
<g id="node1" class="node">
<title>c_0_19</title>
<g id="a_node1"><a xlink:href="c_0_19.html" xlink:title="{Abelian(X₁)|Matrix(X₂,carrier(X₁),2,2)|add&#45;associative(X₁)|almost_left_invertible(X₁)|associative(X₁)|commutative(X₁)|distributive(X₁)|doubleLoopStr(X₁)|right_complementable(X₁)|right_zeroed(X₁)|well&#45;unital(X₁)|⇊|Det(2,X₁,X₂) = &#45;(X₁,X₁ * (carrier(X₁) * X₂ * 1 * 1) * (carrier(X₁) * X₂ * 2 * 2),X₁ * (carrier(X₁) * X₂ * 1 * 2) * (carrier(X₁) * X₂ * 2 * 1))|degenerated(X₁)|empty(X₁)}" target="_parent">
<polygon fill="#f8edd1" stroke="#7f7542" points="351,-615.5 351,-840.5 1249,-840.5 1249,-615.5 351,-615.5"/>
<text text-anchor="middle" x="800" y="-829.3" font-family="Times,serif" font-size="14.00">Abelian(X₁)</text>
<polyline fill="none" stroke="#7f7542" points="351,-825.5 1249,-825.5 "/>
<text text-anchor="middle" x="800" y="-814.3" font-family="Times,serif" font-size="14.00">Matrix(X₂,carrier(X₁),2,2)</text>
<polyline fill="none" stroke="#7f7542" points="351,-810.5 1249,-810.5 "/>
<text text-anchor="middle" x="800" y="-799.3" font-family="Times,serif" font-size="14.00">add&#45;associative(X₁)</text>
<polyline fill="none" stroke="#7f7542" points="351,-795.5 1249,-795.5 "/>
<text text-anchor="middle" x="800" y="-784.3" font-family="Times,serif" font-size="14.00">almost_left_invertible(X₁)</text>
<polyline fill="none" stroke="#7f7542" points="351,-780.5 1249,-780.5 "/>
<text text-anchor="middle" x="800" y="-769.3" font-family="Times,serif" font-size="14.00">associative(X₁)</text>
<polyline fill="none" stroke="#7f7542" points="351,-765.5 1249,-765.5 "/>
<text text-anchor="middle" x="800" y="-754.3" font-family="Times,serif" font-size="14.00">commutative(X₁)</text>
<polyline fill="none" stroke="#7f7542" points="351,-750.5 1249,-750.5 "/>
<text text-anchor="middle" x="800" y="-739.3" font-family="Times,serif" font-size="14.00">distributive(X₁)</text>
<polyline fill="none" stroke="#7f7542" points="351,-735.5 1249,-735.5 "/>
<text text-anchor="middle" x="800" y="-724.3" font-family="Times,serif" font-size="14.00">doubleLoopStr(X₁)</text>
<polyline fill="none" stroke="#7f7542" points="351,-720.5 1249,-720.5 "/>
<text text-anchor="middle" x="800" y="-709.3" font-family="Times,serif" font-size="14.00">right_complementable(X₁)</text>
<polyline fill="none" stroke="#7f7542" points="351,-705.5 1249,-705.5 "/>
<text text-anchor="middle" x="800" y="-694.3" font-family="Times,serif" font-size="14.00">right_zeroed(X₁)</text>
<polyline fill="none" stroke="#7f7542" points="351,-690.5 1249,-690.5 "/>
<text text-anchor="middle" x="800" y="-679.3" font-family="Times,serif" font-size="14.00">well&#45;unital(X₁)</text>
<polyline fill="none" stroke="#7f7542" points="351,-675.5 1249,-675.5 "/>
<text text-anchor="middle" x="800" y="-664.3" font-family="Times,serif" font-size="14.00">⇊</text>
<polyline fill="none" stroke="#7f7542" points="351,-660.5 1249,-660.5 "/>
<text text-anchor="middle" x="800" y="-649.3" font-family="Times,serif" font-size="14.00">Det(2,X₁,X₂) = &#45;(X₁,X₁ * (carrier(X₁) * X₂ * 1 * 1) * (carrier(X₁) * X₂ * 2 * 2),X₁ * (carrier(X₁) * X₂ * 1 * 2) * (carrier(X₁) * X₂ * 2 * 1))</text>
<polyline fill="none" stroke="#7f7542" points="351,-645.5 1249,-645.5 "/>
<text text-anchor="middle" x="800" y="-634.3" font-family="Times,serif" font-size="14.00">degenerated(X₁)</text>
<polyline fill="none" stroke="#7f7542" points="351,-630.5 1249,-630.5 "/>
<text text-anchor="middle" x="800" y="-619.3" font-family="Times,serif" font-size="14.00">empty(X₁)</text>
</a>
</g>
</g>
<!-- c_0_25 -->
<g id="node2" class="node">
<title>c_0_25</title>
<g id="a_node2"><a xlink:href="c_0_25.html" xlink:title="{Abelian(X₁)|Matrix(X₂,carrier(X₁),2,2)|add&#45;associative(X₁)|almost_left_invertible(X₁)|associative(X₁)|commutative(X₁)|distributive(X₁)|doubleLoopStr(X₁)|right_complementable(X₁)|right_zeroed(X₁)|well&#45;unital(X₁)|⇊|&#45;(X₁,X₁ * (carrier(X₁) * X₂ * 1 * 1) * (carrier(X₁) * X₂ * 2 * 2),X₁ * (carrier(X₁) * X₂ * 1 * 2) * (carrier(X₁) * X₂ * 2 * 1)) = Det(2,X₁,X₂)|degenerated(X₁)|empty(X₁)}" target="_parent">
<polygon fill="#f8edd1" stroke="#7f7542" points="351,-353.5 351,-578.5 1249,-578.5 1249,-353.5 351,-353.5"/>
<text text-anchor="middle" x="800" y="-567.3" font-family="Times,serif" font-size="14.00">Abelian(X₁)</text>
<polyline fill="none" stroke="#7f7542" points="351,-563.5 1249,-563.5 "/>
<text text-anchor="middle" x="800" y="-552.3" font-family="Times,serif" font-size="14.00">Matrix(X₂,carrier(X₁),2,2)</text>
<polyline fill="none" stroke="#7f7542" points="351,-548.5 1249,-548.5 "/>
<text text-anchor="middle" x="800" y="-537.3" font-family="Times,serif" font-size="14.00">add&#45;associative(X₁)</text>
<polyline fill="none" stroke="#7f7542" points="351,-533.5 1249,-533.5 "/>
<text text-anchor="middle" x="800" y="-522.3" font-family="Times,serif" font-size="14.00">almost_left_invertible(X₁)</text>
<polyline fill="none" stroke="#7f7542" points="351,-518.5 1249,-518.5 "/>
<text text-anchor="middle" x="800" y="-507.3" font-family="Times,serif" font-size="14.00">associative(X₁)</text>
<polyline fill="none" stroke="#7f7542" points="351,-503.5 1249,-503.5 "/>
<text text-anchor="middle" x="800" y="-492.3" font-family="Times,serif" font-size="14.00">commutative(X₁)</text>
<polyline fill="none" stroke="#7f7542" points="351,-488.5 1249,-488.5 "/>
<text text-anchor="middle" x="800" y="-477.3" font-family="Times,serif" font-size="14.00">distributive(X₁)</text>
<polyline fill="none" stroke="#7f7542" points="351,-473.5 1249,-473.5 "/>
<text text-anchor="middle" x="800" y="-462.3" font-family="Times,serif" font-size="14.00">doubleLoopStr(X₁)</text>
<polyline fill="none" stroke="#7f7542" points="351,-458.5 1249,-458.5 "/>
<text text-anchor="middle" x="800" y="-447.3" font-family="Times,serif" font-size="14.00">right_complementable(X₁)</text>
<polyline fill="none" stroke="#7f7542" points="351,-443.5 1249,-443.5 "/>
<text text-anchor="middle" x="800" y="-432.3" font-family="Times,serif" font-size="14.00">right_zeroed(X₁)</text>
<polyline fill="none" stroke="#7f7542" points="351,-428.5 1249,-428.5 "/>
<text text-anchor="middle" x="800" y="-417.3" font-family="Times,serif" font-size="14.00">well&#45;unital(X₁)</text>
<polyline fill="none" stroke="#7f7542" points="351,-413.5 1249,-413.5 "/>
<text text-anchor="middle" x="800" y="-402.3" font-family="Times,serif" font-size="14.00">⇊</text>
<polyline fill="none" stroke="#7f7542" points="351,-398.5 1249,-398.5 "/>
<text text-anchor="middle" x="800" y="-387.3" font-family="Times,serif" font-size="14.00">&#45;(X₁,X₁ * (carrier(X₁) * X₂ * 1 * 1) * (carrier(X₁) * X₂ * 2 * 2),X₁ * (carrier(X₁) * X₂ * 1 * 2) * (carrier(X₁) * X₂ * 2 * 1)) = Det(2,X₁,X₂)</text>
<polyline fill="none" stroke="#7f7542" points="351,-383.5 1249,-383.5 "/>
<text text-anchor="middle" x="800" y="-372.3" font-family="Times,serif" font-size="14.00">degenerated(X₁)</text>
<polyline fill="none" stroke="#7f7542" points="351,-368.5 1249,-368.5 "/>
<text text-anchor="middle" x="800" y="-357.3" font-family="Times,serif" font-size="14.00">empty(X₁)</text>
</a>
</g>
</g>
<!-- c_0_19&#45;&gt;c_0_25 -->
<g id="edge1" class="edge">
<title>c_0_19&#45;&gt;c_0_25</title>
<path fill="none" stroke="black" d="M800,-615.37C800,-615.37 800,-588.54 800,-588.54"/>
<polygon fill="black" stroke="black" points="803.5,-588.54 800,-578.54 796.5,-588.54 803.5,-588.54"/>
</g>
<!-- c_0_30 -->
<g id="node3" class="node">
<title>c_0_30</title>
<g id="a_node3"><a xlink:href="c_0_30.html" xlink:title="{Abelian(X₁)|Matrix(carrier(X₁) ][ X₂ ][ X₃ ][ X₄ ][ X₅,carrier(X₁),2,2)|X₂ ∈ carrier(X₁)|X₃ ∈ carrier(X₁)|X₄ ∈ carrier(X₁)|X₅ ∈ carrier(X₁)|add&#45;associative(X₁)|almost_left_invertible(X₁)|associative(X₁)|commutative(X₁)|distributive(X₁)|doubleLoopStr(X₁)|right_complementable(X₁)|right_zeroed(X₁)|well&#45;unital(X₁)|⇊|&#45;(X₁,X₁ * (carrier(X₁) * (carrier(X₁) ][ X₂ ][ X₃ ][ X₄ ][ X₅) * 1 * 1) * (carrier(X₁) * (carrier(X₁) ][ X₂ ][ X₃ ][ X₄ ][ X₅) * 2 * 2),X₁ * (carrier(X₁) * (carrier(X₁) ][ X₂ ][ X₃ ][ X₄ ][ X₅) * 1 * 2) * X₄) = Det(2,X₁,carrier(X₁) ][ X₂ ][ X₃ ][ X₄ ][ X₅)|carrier(X₁) = Ø|degenerated(X₁)|empty(X₁)}" target="_parent">
<polygon fill="#f8edd1" stroke="#7f7542" points="16,-16.5 16,-316.5 1584,-316.5 1584,-16.5 16,-16.5"/>
<text text-anchor="middle" x="800" y="-305.3" font-family="Times,serif" font-size="14.00">Abelian(X₁)</text>
<polyline fill="none" stroke="#7f7542" points="16,-301.5 1584,-301.5 "/>
<text text-anchor="middle" x="800" y="-290.3" font-family="Times,serif" font-size="14.00">Matrix(carrier(X₁) ][ X₂ ][ X₃ ][ X₄ ][ X₅,carrier(X₁),2,2)</text>
<polyline fill="none" stroke="#7f7542" points="16,-286.5 1584,-286.5 "/>
<text text-anchor="middle" x="800" y="-275.3" font-family="Times,serif" font-size="14.00">X₂ ∈ carrier(X₁)</text>
<polyline fill="none" stroke="#7f7542" points="16,-271.5 1584,-271.5 "/>
<text text-anchor="middle" x="800" y="-260.3" font-family="Times,serif" font-size="14.00">X₃ ∈ carrier(X₁)</text>
<polyline fill="none" stroke="#7f7542" points="16,-256.5 1584,-256.5 "/>
<text text-anchor="middle" x="800" y="-245.3" font-family="Times,serif" font-size="14.00">X₄ ∈ carrier(X₁)</text>
<polyline fill="none" stroke="#7f7542" points="16,-241.5 1584,-241.5 "/>
<text text-anchor="middle" x="800" y="-230.3" font-family="Times,serif" font-size="14.00">X₅ ∈ carrier(X₁)</text>
<polyline fill="none" stroke="#7f7542" points="16,-226.5 1584,-226.5 "/>
<text text-anchor="middle" x="800" y="-215.3" font-family="Times,serif" font-size="14.00">add&#45;associative(X₁)</text>
<polyline fill="none" stroke="#7f7542" points="16,-211.5 1584,-211.5 "/>
<text text-anchor="middle" x="800" y="-200.3" font-family="Times,serif" font-size="14.00">almost_left_invertible(X₁)</text>
<polyline fill="none" stroke="#7f7542" points="16,-196.5 1584,-196.5 "/>
<text text-anchor="middle" x="800" y="-185.3" font-family="Times,serif" font-size="14.00">associative(X₁)</text>
<polyline fill="none" stroke="#7f7542" points="16,-181.5 1584,-181.5 "/>
<text text-anchor="middle" x="800" y="-170.3" font-family="Times,serif" font-size="14.00">commutative(X₁)</text>
<polyline fill="none" stroke="#7f7542" points="16,-166.5 1584,-166.5 "/>
<text text-anchor="middle" x="800" y="-155.3" font-family="Times,serif" font-size="14.00">distributive(X₁)</text>
<polyline fill="none" stroke="#7f7542" points="16,-151.5 1584,-151.5 "/>
<text text-anchor="middle" x="800" y="-140.3" font-family="Times,serif" font-size="14.00">doubleLoopStr(X₁)</text>
<polyline fill="none" stroke="#7f7542" points="16,-136.5 1584,-136.5 "/>
<text text-anchor="middle" x="800" y="-125.3" font-family="Times,serif" font-size="14.00">right_complementable(X₁)</text>
<polyline fill="none" stroke="#7f7542" points="16,-121.5 1584,-121.5 "/>
<text text-anchor="middle" x="800" y="-110.3" font-family="Times,serif" font-size="14.00">right_zeroed(X₁)</text>
<polyline fill="none" stroke="#7f7542" points="16,-106.5 1584,-106.5 "/>
<text text-anchor="middle" x="800" y="-95.3" font-family="Times,serif" font-size="14.00">well&#45;unital(X₁)</text>
<polyline fill="none" stroke="#7f7542" points="16,-91.5 1584,-91.5 "/>
<text text-anchor="middle" x="800" y="-80.3" font-family="Times,serif" font-size="14.00">⇊</text>
<polyline fill="none" stroke="#7f7542" points="16,-76.5 1584,-76.5 "/>
<text text-anchor="middle" x="800" y="-65.3" font-family="Times,serif" font-size="14.00">&#45;(X₁,X₁ * (carrier(X₁) * (carrier(X₁) ][ X₂ ][ X₃ ][ X₄ ][ X₅) * 1 * 1) * (carrier(X₁) * (carrier(X₁) ][ X₂ ][ X₃ ][ X₄ ][ X₅) * 2 * 2),X₁ * (carrier(X₁) * (carrier(X₁) ][ X₂ ][ X₃ ][ X₄ ][ X₅) * 1 * 2) * X₄) = Det(2,X₁,carrier(X₁) ][ X₂ ][ X₃ ][ X₄ ][ X₅)</text>
<polyline fill="none" stroke="#7f7542" points="16,-61.5 1584,-61.5 "/>
<text text-anchor="middle" x="800" y="-50.3" font-family="Times,serif" font-size="14.00">carrier(X₁) = Ø</text>
<polyline fill="none" stroke="#7f7542" points="16,-46.5 1584,-46.5 "/>
<text text-anchor="middle" x="800" y="-35.3" font-family="Times,serif" font-size="14.00">degenerated(X₁)</text>
<polyline fill="none" stroke="#7f7542" points="16,-31.5 1584,-31.5 "/>
<text text-anchor="middle" x="800" y="-20.3" font-family="Times,serif" font-size="14.00">empty(X₁)</text>
</a>
</g>
</g>
<!-- c_0_25&#45;&gt;c_0_30 -->
<g id="edge2" class="edge">
<title>c_0_25&#45;&gt;c_0_30</title>
<path fill="none" stroke="black" stroke-dasharray="5,2" d="M800,-353.2C800,-353.2 800,-326.71 800,-326.71"/>
<polygon fill="black" stroke="black" points="803.5,-326.71 800,-316.71 796.5,-326.71 803.5,-326.71"/>
</g>
</g>
</svg>
