<?xml version="1.0" encoding="UTF-8" standalone="no"?>
<!DOCTYPE svg PUBLIC "-//W3C//DTD SVG 1.1//EN"
 "http://www.w3.org/Graphics/SVG/1.1/DTD/svg11.dtd">
<!-- Generated by graphviz version 5.0.0 (0)
 -->
<!-- Title: proof Pages: 1 -->
<svg width="1608pt" height="535pt"
 viewBox="0.00 0.00 1608.00 535.00" xmlns="http://www.w3.org/2000/svg" xmlns:xlink="http://www.w3.org/1999/xlink">
<g id="graph0" class="graph" transform="scale(1 1) rotate(0) translate(4 531)">
<title>proof</title>
<g id="clust1" class="cluster">
<title>cluster_0</title>
<polygon fill="transparent" stroke="black" stroke-dasharray="1,5" points="749,-487 749,-519 851,-519 851,-487 749,-487"/>
</g>
<g id="clust2" class="cluster">
<title>cluster_1</title>
<polygon fill="transparent" stroke="black" stroke-width="2" points="652,-345 652,-467 948,-467 948,-345 652,-345"/>
</g>
<g id="clust3" class="cluster">
<title>cluster_2</title>
<polygon fill="transparent" stroke="black" stroke-dasharray="1,5" points="8,-8 8,-325 1592,-325 1592,-8 8,-8"/>
</g>
<!-- t6_matrix_2 -->
<g id="node1" class="node">
<title>t6_matrix_2</title>
<g id="a_node1"><a xlink:href="t6_matrix_2.html" xlink:title="t6_matrix_2" target="_parent">
<polygon fill="#69d2e7" stroke="#7f7542" points="757.5,-495.5 757.5,-510.5 842.5,-510.5 842.5,-495.5 757.5,-495.5"/>
<text text-anchor="middle" x="800" y="-499.3" font-family="Times,serif" font-size="14.00">t6_matrix_2</text>
</a>
</g>
</g>
<!-- c_0_20 -->
<g id="node2" class="node">
<title>c_0_20</title>
<g id="a_node2"><a xlink:href="c_0_20.html" xlink:title="{X₂ ∈ X₁|X₃ ∈ X₁|X₄ ∈ X₁|X₅ ∈ X₁|⇊|X₁ * (X₁ ][ X₂ ][ X₃ ][ X₄ ][ X₅) * 2 * 1 = X₄|X₁ = Ø}" target="_parent">
<polygon fill="#f8edd1" stroke="#7f7542" points="660,-353.5 660,-458.5 940,-458.5 940,-353.5 660,-353.5"/>
<text text-anchor="middle" x="800" y="-447.3" font-family="Times,serif" font-size="14.00">X₂ ∈ X₁</text>
<polyline fill="none" stroke="#7f7542" points="660,-443.5 940,-443.5 "/>
<text text-anchor="middle" x="800" y="-432.3" font-family="Times,serif" font-size="14.00">X₃ ∈ X₁</text>
<polyline fill="none" stroke="#7f7542" points="660,-428.5 940,-428.5 "/>
<text text-anchor="middle" x="800" y="-417.3" font-family="Times,serif" font-size="14.00">X₄ ∈ X₁</text>
<polyline fill="none" stroke="#7f7542" points="660,-413.5 940,-413.5 "/>
<text text-anchor="middle" x="800" y="-402.3" font-family="Times,serif" font-size="14.00">X₅ ∈ X₁</text>
<polyline fill="none" stroke="#7f7542" points="660,-398.5 940,-398.5 "/>
<text text-anchor="middle" x="800" y="-387.3" font-family="Times,serif" font-size="14.00">⇊</text>
<polyline fill="none" stroke="#7f7542" points="660,-383.5 940,-383.5 "/>
<text text-anchor="middle" x="800" y="-372.3" font-family="Times,serif" font-size="14.00">X₁ * (X₁ ][ X₂ ][ X₃ ][ X₄ ][ X₅) * 2 * 1 = X₄</text>
<polyline fill="none" stroke="#7f7542" points="660,-368.5 940,-368.5 "/>
<text text-anchor="middle" x="800" y="-357.3" font-family="Times,serif" font-size="14.00">X₁ = Ø</text>
</a>
</g>
</g>
<!-- t6_matrix_2&#45;&gt;c_0_20 -->
<g id="edge1" class="edge">
<title>t6_matrix_2&#45;&gt;c_0_20</title>
<path fill="none" stroke="black" d="M800,-495.39C800,-495.39 800,-468.93 800,-468.93"/>
<polygon fill="black" stroke="black" points="803.5,-468.93 800,-458.93 796.5,-468.93 803.5,-468.93"/>
</g>
<!-- c_0_30 -->
<g id="node3" class="node">
<title>c_0_30</title>
<g id="a_node3"><a xlink:href="c_0_30.html" xlink:title="{Abelian(X₁)|Matrix(carrier(X₁) ][ X₂ ][ X₃ ][ X₄ ][ X₅,carrier(X₁),2,2)|X₂ ∈ carrier(X₁)|X₃ ∈ carrier(X₁)|X₄ ∈ carrier(X₁)|X₅ ∈ carrier(X₁)|add&#45;associative(X₁)|almost_left_invertible(X₁)|associative(X₁)|commutative(X₁)|distributive(X₁)|doubleLoopStr(X₁)|right_complementable(X₁)|right_zeroed(X₁)|well&#45;unital(X₁)|⇊|&#45;(X₁,X₁ * (carrier(X₁) * (carrier(X₁) ][ X₂ ][ X₃ ][ X₄ ][ X₅) * 1 * 1) * (carrier(X₁) * (carrier(X₁) ][ X₂ ][ X₃ ][ X₄ ][ X₅) * 2 * 2),X₁ * (carrier(X₁) * (carrier(X₁) ][ X₂ ][ X₃ ][ X₄ ][ X₅) * 1 * 2) * X₄) = Det(2,X₁,carrier(X₁) ][ X₂ ][ X₃ ][ X₄ ][ X₅)|carrier(X₁) = Ø|degenerated(X₁)|empty(X₁)}" target="_parent">
<polygon fill="#f8edd1" stroke="#7f7542" points="16,-16.5 16,-316.5 1584,-316.5 1584,-16.5 16,-16.5"/>
<text text-anchor="middle" x="800" y="-305.3" font-family="Times,serif" font-size="14.00">Abelian(X₁)</text>
<polyline fill="none" stroke="#7f7542" points="16,-301.5 1584,-301.5 "/>
<text text-anchor="middle" x="800" y="-290.3" font-family="Times,serif" font-size="14.00">Matrix(carrier(X₁) ][ X₂ ][ X₃ ][ X₄ ][ X₅,carrier(X₁),2,2)</text>
<polyline fill="none" stroke="#7f7542" points="16,-286.5 1584,-286.5 "/>
<text text-anchor="middle" x="800" y="-275.3" font-family="Times,serif" font-size="14.00">X₂ ∈ carrier(X₁)</text>
<polyline fill="none" stroke="#7f7542" points="16,-271.5 1584,-271.5 "/>
<text text-anchor="middle" x="800" y="-260.3" font-family="Times,serif" font-size="14.00">X₃ ∈ carrier(X₁)</text>
<polyline fill="none" stroke="#7f7542" points="16,-256.5 1584,-256.5 "/>
<text text-anchor="middle" x="800" y="-245.3" font-family="Times,serif" font-size="14.00">X₄ ∈ carrier(X₁)</text>
<polyline fill="none" stroke="#7f7542" points="16,-241.5 1584,-241.5 "/>
<text text-anchor="middle" x="800" y="-230.3" font-family="Times,serif" font-size="14.00">X₅ ∈ carrier(X₁)</text>
<polyline fill="none" stroke="#7f7542" points="16,-226.5 1584,-226.5 "/>
<text text-anchor="middle" x="800" y="-215.3" font-family="Times,serif" font-size="14.00">add&#45;associative(X₁)</text>
<polyline fill="none" stroke="#7f7542" points="16,-211.5 1584,-211.5 "/>
<text text-anchor="middle" x="800" y="-200.3" font-family="Times,serif" font-size="14.00">almost_left_invertible(X₁)</text>
<polyline fill="none" stroke="#7f7542" points="16,-196.5 1584,-196.5 "/>
<text text-anchor="middle" x="800" y="-185.3" font-family="Times,serif" font-size="14.00">associative(X₁)</text>
<polyline fill="none" stroke="#7f7542" points="16,-181.5 1584,-181.5 "/>
<text text-anchor="middle" x="800" y="-170.3" font-family="Times,serif" font-size="14.00">commutative(X₁)</text>
<polyline fill="none" stroke="#7f7542" points="16,-166.5 1584,-166.5 "/>
<text text-anchor="middle" x="800" y="-155.3" font-family="Times,serif" font-size="14.00">distributive(X₁)</text>
<polyline fill="none" stroke="#7f7542" points="16,-151.5 1584,-151.5 "/>
<text text-anchor="middle" x="800" y="-140.3" font-family="Times,serif" font-size="14.00">doubleLoopStr(X₁)</text>
<polyline fill="none" stroke="#7f7542" points="16,-136.5 1584,-136.5 "/>
<text text-anchor="middle" x="800" y="-125.3" font-family="Times,serif" font-size="14.00">right_complementable(X₁)</text>
<polyline fill="none" stroke="#7f7542" points="16,-121.5 1584,-121.5 "/>
<text text-anchor="middle" x="800" y="-110.3" font-family="Times,serif" font-size="14.00">right_zeroed(X₁)</text>
<polyline fill="none" stroke="#7f7542" points="16,-106.5 1584,-106.5 "/>
<text text-anchor="middle" x="800" y="-95.3" font-family="Times,serif" font-size="14.00">well&#45;unital(X₁)</text>
<polyline fill="none" stroke="#7f7542" points="16,-91.5 1584,-91.5 "/>
<text text-anchor="middle" x="800" y="-80.3" font-family="Times,serif" font-size="14.00">⇊</text>
<polyline fill="none" stroke="#7f7542" points="16,-76.5 1584,-76.5 "/>
<text text-anchor="middle" x="800" y="-65.3" font-family="Times,serif" font-size="14.00">&#45;(X₁,X₁ * (carrier(X₁) * (carrier(X₁) ][ X₂ ][ X₃ ][ X₄ ][ X₅) * 1 * 1) * (carrier(X₁) * (carrier(X₁) ][ X₂ ][ X₃ ][ X₄ ][ X₅) * 2 * 2),X₁ * (carrier(X₁) * (carrier(X₁) ][ X₂ ][ X₃ ][ X₄ ][ X₅) * 1 * 2) * X₄) = Det(2,X₁,carrier(X₁) ][ X₂ ][ X₃ ][ X₄ ][ X₅)</text>
<polyline fill="none" stroke="#7f7542" points="16,-61.5 1584,-61.5 "/>
<text text-anchor="middle" x="800" y="-50.3" font-family="Times,serif" font-size="14.00">carrier(X₁) = Ø</text>
<polyline fill="none" stroke="#7f7542" points="16,-46.5 1584,-46.5 "/>
<text text-anchor="middle" x="800" y="-35.3" font-family="Times,serif" font-size="14.00">degenerated(X₁)</text>
<polyline fill="none" stroke="#7f7542" points="16,-31.5 1584,-31.5 "/>
<text text-anchor="middle" x="800" y="-20.3" font-family="Times,serif" font-size="14.00">empty(X₁)</text>
</a>
</g>
</g>
<!-- c_0_20&#45;&gt;c_0_30 -->
<g id="edge2" class="edge">
<title>c_0_20&#45;&gt;c_0_30</title>
<path fill="none" stroke="black" stroke-dasharray="5,2" d="M800,-353.44C800,-353.44 800,-326.7 800,-326.7"/>
<polygon fill="black" stroke="black" points="803.5,-326.7 800,-316.7 796.5,-326.7 803.5,-326.7"/>
</g>
</g>
</svg>
