<?xml version="1.0" encoding="UTF-8" standalone="no"?>
<!DOCTYPE svg PUBLIC "-//W3C//DTD SVG 1.1//EN"
 "http://www.w3.org/Graphics/SVG/1.1/DTD/svg11.dtd">
<!-- Generated by graphviz version 5.0.0 (0)
 -->
<!-- Title: proof Pages: 1 -->
<svg width="148pt" height="160pt"
 viewBox="0.00 0.00 148.00 160.00" xmlns="http://www.w3.org/2000/svg" xmlns:xlink="http://www.w3.org/1999/xlink">
<g id="graph0" class="graph" transform="scale(1 1) rotate(0) translate(4 156)">
<title>proof</title>
<g id="clust1" class="cluster">
<title>cluster_0</title>
<polygon fill="transparent" stroke="black" stroke-dasharray="1,5" points="15,-112 15,-144 125,-144 125,-112 15,-112"/>
</g>
<g id="clust2" class="cluster">
<title>cluster_1</title>
<polygon fill="transparent" stroke="black" stroke-width="2" points="8,-60 8,-92 132,-92 132,-60 8,-60"/>
</g>
<g id="clust3" class="cluster">
<title>cluster_2</title>
<polygon fill="transparent" stroke="black" stroke-dasharray="1,5" points="55,-8 55,-40 85,-40 85,-8 55,-8"/>
</g>
<!-- t13_matrix_9 -->
<g id="node1" class="node">
<title>t13_matrix_9</title>
<g id="a_node1"><a xlink:href="t13_matrix_9.html" xlink:title="t13_matrix_9" target="_parent">
<polygon fill="#fa6900" stroke="#7f7542" points="23,-120.5 23,-135.5 117,-135.5 117,-120.5 23,-120.5"/>
<text text-anchor="middle" x="70" y="-124.3" font-family="Times,serif" font-size="14.00">t13_matrix_9</text>
</a>
</g>
</g>
<!-- c_0_54 -->
<g id="node2" class="node">
<title>c_0_54</title>
<g id="a_node2"><a xlink:href="c_0_54.html" xlink:title="{well&#45;unital(sk₁)}" target="_parent">
<polygon fill="#fa6900" stroke="#7f7542" points="16.5,-68.5 16.5,-83.5 123.5,-83.5 123.5,-68.5 16.5,-68.5"/>
<text text-anchor="middle" x="70" y="-72.3" font-family="Times,serif" font-size="14.00">well&#45;unital(sk₁)</text>
</a>
</g>
</g>
<!-- t13_matrix_9&#45;&gt;c_0_54 -->
<g id="edge1" class="edge">
<title>t13_matrix_9&#45;&gt;c_0_54</title>
<path fill="none" stroke="black" d="M70,-120.33C70,-120.33 70,-93.7 70,-93.7"/>
<polygon fill="black" stroke="black" points="73.5,-93.7 70,-83.7 66.5,-93.7 73.5,-93.7"/>
</g>
<!-- c_0_82 -->
<g id="node3" class="node">
<title>c_0_82</title>
<g id="a_node3"><a xlink:href="c_0_82.html" xlink:title="⊥" target="_parent">
<polygon fill="#fa6900" stroke="#7f7542" points="63,-16.5 63,-31.5 77,-31.5 77,-16.5 63,-16.5"/>
<text text-anchor="middle" x="70" y="-20.3" font-family="Times,serif" font-size="14.00">⊥</text>
</a>
</g>
</g>
<!-- c_0_54&#45;&gt;c_0_82 -->
<g id="edge2" class="edge">
<title>c_0_54&#45;&gt;c_0_82</title>
<path fill="none" stroke="black" stroke-dasharray="5,2" d="M70,-68.33C70,-68.33 70,-41.7 70,-41.7"/>
<polygon fill="black" stroke="black" points="73.5,-41.7 70,-31.7 66.5,-41.7 73.5,-41.7"/>
</g>
</g>
</svg>
