<?xml version="1.0" encoding="UTF-8" standalone="no"?>
<!DOCTYPE svg PUBLIC "-//W3C//DTD SVG 1.1//EN"
 "http://www.w3.org/Graphics/SVG/1.1/DTD/svg11.dtd">
<!-- Generated by graphviz version 5.0.0 (0)
 -->
<!-- Title: proof Pages: 1 -->
<svg width="614pt" height="160pt"
 viewBox="0.00 0.00 614.00 160.00" xmlns="http://www.w3.org/2000/svg" xmlns:xlink="http://www.w3.org/1999/xlink">
<g id="graph0" class="graph" transform="scale(1 1) rotate(0) translate(4 156)">
<title>proof</title>
<g id="clust1" class="cluster">
<title>cluster_0</title>
<polygon fill="transparent" stroke="black" stroke-dasharray="1,5" points="248,-112 248,-144 358,-144 358,-112 248,-112"/>
</g>
<g id="clust2" class="cluster">
<title>cluster_1</title>
<polygon fill="transparent" stroke="black" stroke-width="2" points="8,-60 8,-92 598,-92 598,-60 8,-60"/>
</g>
<g id="clust3" class="cluster">
<title>cluster_2</title>
<polygon fill="transparent" stroke="black" stroke-dasharray="1,5" points="288,-8 288,-40 318,-40 318,-8 288,-8"/>
</g>
<!-- t13_matrix_9 -->
<g id="node1" class="node">
<title>t13_matrix_9</title>
<g id="a_node1"><a xlink:href="t13_matrix_9.html" xlink:title="t13_matrix_9" target="_vizar">
<polygon fill="#fa6900" stroke="#7f7542" points="256,-120.5 256,-135.5 350,-135.5 350,-120.5 256,-120.5"/>
<text text-anchor="middle" x="303" y="-124.3" font-family="Times,serif" font-size="14.00">t13_matrix_9</text>
</a>
</g>
</g>
<!-- c_0_46 -->
<g id="node2" class="node">
<title>c_0_46</title>
<g id="a_node2"><a xlink:href="c_0_46.html" xlink:title="{Det(2,sk₁,carrier(sk₁) ][ sk₂ ][ sk₃ ][ sk₄ ][ sk₅) ≠ &#45;(sk₁,sk₁ * sk₂ * sk₅,sk₁ * sk₃ * sk₄)}" target="_vizar">
<polygon fill="#fa6900" stroke="#7f7542" points="16.5,-68.5 16.5,-83.5 589.5,-83.5 589.5,-68.5 16.5,-68.5"/>
<text text-anchor="middle" x="303" y="-72.3" font-family="Times,serif" font-size="14.00">Det(2,sk₁,carrier(sk₁) ][ sk₂ ][ sk₃ ][ sk₄ ][ sk₅) ≠ &#45;(sk₁,sk₁ * sk₂ * sk₅,sk₁ * sk₃ * sk₄)</text>
</a>
</g>
</g>
<!-- t13_matrix_9&#45;&gt;c_0_46 -->
<g id="edge1" class="edge">
<title>t13_matrix_9&#45;&gt;c_0_46</title>
<path fill="none" stroke="black" d="M303,-120.33C303,-120.33 303,-93.7 303,-93.7"/>
<polygon fill="black" stroke="black" points="306.5,-93.7 303,-83.7 299.5,-93.7 306.5,-93.7"/>
</g>
<!-- c_0_82 -->
<g id="node3" class="node">
<title>c_0_82</title>
<g id="a_node3"><a xlink:href="c_0_82.html" xlink:title="⊥" target="_vizar">
<polygon fill="#fa6900" stroke="#7f7542" points="296,-16.5 296,-31.5 310,-31.5 310,-16.5 296,-16.5"/>
<text text-anchor="middle" x="303" y="-20.3" font-family="Times,serif" font-size="14.00">⊥</text>
</a>
</g>
</g>
<!-- c_0_46&#45;&gt;c_0_82 -->
<g id="edge2" class="edge">
<title>c_0_46&#45;&gt;c_0_82</title>
<path fill="none" stroke="black" stroke-dasharray="5,2" d="M303,-68.33C303,-68.33 303,-41.7 303,-41.7"/>
<polygon fill="black" stroke="black" points="306.5,-41.7 303,-31.7 299.5,-41.7 306.5,-41.7"/>
</g>
</g>
</svg>
