<?xml version="1.0" encoding="UTF-8" standalone="no"?>
<!DOCTYPE svg PUBLIC "-//W3C//DTD SVG 1.1//EN"
 "http://www.w3.org/Graphics/SVG/1.1/DTD/svg11.dtd">
<!-- Generated by graphviz version 5.0.0 (0)
 -->
<!-- Title: proof Pages: 1 -->
<svg width="1400pt" height="955pt"
 viewBox="0.00 0.00 1400.00 955.00" xmlns="http://www.w3.org/2000/svg" xmlns:xlink="http://www.w3.org/1999/xlink">
<g id="graph0" class="graph" transform="scale(1 1) rotate(0) translate(4 951)">
<title>proof</title>
<g id="clust1" class="cluster">
<title>cluster_0</title>
<polygon fill="transparent" stroke="black" stroke-dasharray="1,5" points="8,-637 8,-939 1384,-939 1384,-637 8,-637"/>
</g>
<g id="clust2" class="cluster">
<title>cluster_1</title>
<polygon fill="transparent" stroke="black" stroke-width="2" points="83,-330 83,-617 1309,-617 1309,-330 83,-330"/>
</g>
<g id="clust3" class="cluster">
<title>cluster_2</title>
<polygon fill="transparent" stroke="black" stroke-dasharray="1,5" points="261,-8 261,-310 1131,-310 1131,-8 261,-8"/>
</g>
<!-- c_0_32 -->
<g id="node1" class="node">
<title>c_0_32</title>
<g id="a_node1"><a xlink:href="c_0_32.html" xlink:title="{carrier(X₁) = Ø|doubleLoopStr(X₁)|⇊|empty(X₁)}" target="_vizar">
<polygon fill="#f8edd1" stroke="#7f7542" points="1244.5,-758 1244.5,-818 1375.5,-818 1375.5,-758 1244.5,-758"/>
<text text-anchor="middle" x="1310" y="-806.8" font-family="Times,serif" font-size="14.00">carrier(X₁) = Ø</text>
<polyline fill="none" stroke="#7f7542" points="1244.5,-803 1375.5,-803 "/>
<text text-anchor="middle" x="1310" y="-791.8" font-family="Times,serif" font-size="14.00">doubleLoopStr(X₁)</text>
<polyline fill="none" stroke="#7f7542" points="1244.5,-788 1375.5,-788 "/>
<text text-anchor="middle" x="1310" y="-776.8" font-family="Times,serif" font-size="14.00">⇊</text>
<polyline fill="none" stroke="#7f7542" points="1244.5,-773 1375.5,-773 "/>
<text text-anchor="middle" x="1310" y="-761.8" font-family="Times,serif" font-size="14.00">empty(X₁)</text>
</a>
</g>
</g>
<!-- c_0_38 -->
<g id="node3" class="node">
<title>c_0_38</title>
<g id="a_node3"><a xlink:href="c_0_38.html" xlink:title="{Abelian(X₁)|X₂ ∈ carrier(X₁)|X₃ ∈ carrier(X₁)|X₄ ∈ carrier(X₁)|X₅ ∈ carrier(X₁)|add&#45;associative(X₁)|almost_left_invertible(X₁)|associative(X₁)|commutative(X₁)|distributive(X₁)|doubleLoopStr(X₁)|right_complementable(X₁)|right_zeroed(X₁)|well&#45;unital(X₁)|⇊|&#45;(X₁,X₁ * X₂ * (carrier(X₁) * (carrier(X₁) ][ X₂ ][ X₃ ][ X₄ ][ X₅) * 2 * 2),X₁ * (carrier(X₁) * (carrier(X₁) ][ X₂ ][ X₃ ][ X₄ ][ X₅) * 1 * 2) * X₄) = Det(2,X₁,carrier(X₁) ][ X₂ ][ X₃ ][ X₄ ][ X₅)|degenerated(X₁)|empty(X₁)}" target="_vizar">
<polygon fill="#f8edd1" stroke="#7f7542" points="91,-338.5 91,-608.5 1301,-608.5 1301,-338.5 91,-338.5"/>
<text text-anchor="middle" x="696" y="-597.3" font-family="Times,serif" font-size="14.00">Abelian(X₁)</text>
<polyline fill="none" stroke="#7f7542" points="91,-593.5 1301,-593.5 "/>
<text text-anchor="middle" x="696" y="-582.3" font-family="Times,serif" font-size="14.00">X₂ ∈ carrier(X₁)</text>
<polyline fill="none" stroke="#7f7542" points="91,-578.5 1301,-578.5 "/>
<text text-anchor="middle" x="696" y="-567.3" font-family="Times,serif" font-size="14.00">X₃ ∈ carrier(X₁)</text>
<polyline fill="none" stroke="#7f7542" points="91,-563.5 1301,-563.5 "/>
<text text-anchor="middle" x="696" y="-552.3" font-family="Times,serif" font-size="14.00">X₄ ∈ carrier(X₁)</text>
<polyline fill="none" stroke="#7f7542" points="91,-548.5 1301,-548.5 "/>
<text text-anchor="middle" x="696" y="-537.3" font-family="Times,serif" font-size="14.00">X₅ ∈ carrier(X₁)</text>
<polyline fill="none" stroke="#7f7542" points="91,-533.5 1301,-533.5 "/>
<text text-anchor="middle" x="696" y="-522.3" font-family="Times,serif" font-size="14.00">add&#45;associative(X₁)</text>
<polyline fill="none" stroke="#7f7542" points="91,-518.5 1301,-518.5 "/>
<text text-anchor="middle" x="696" y="-507.3" font-family="Times,serif" font-size="14.00">almost_left_invertible(X₁)</text>
<polyline fill="none" stroke="#7f7542" points="91,-503.5 1301,-503.5 "/>
<text text-anchor="middle" x="696" y="-492.3" font-family="Times,serif" font-size="14.00">associative(X₁)</text>
<polyline fill="none" stroke="#7f7542" points="91,-488.5 1301,-488.5 "/>
<text text-anchor="middle" x="696" y="-477.3" font-family="Times,serif" font-size="14.00">commutative(X₁)</text>
<polyline fill="none" stroke="#7f7542" points="91,-473.5 1301,-473.5 "/>
<text text-anchor="middle" x="696" y="-462.3" font-family="Times,serif" font-size="14.00">distributive(X₁)</text>
<polyline fill="none" stroke="#7f7542" points="91,-458.5 1301,-458.5 "/>
<text text-anchor="middle" x="696" y="-447.3" font-family="Times,serif" font-size="14.00">doubleLoopStr(X₁)</text>
<polyline fill="none" stroke="#7f7542" points="91,-443.5 1301,-443.5 "/>
<text text-anchor="middle" x="696" y="-432.3" font-family="Times,serif" font-size="14.00">right_complementable(X₁)</text>
<polyline fill="none" stroke="#7f7542" points="91,-428.5 1301,-428.5 "/>
<text text-anchor="middle" x="696" y="-417.3" font-family="Times,serif" font-size="14.00">right_zeroed(X₁)</text>
<polyline fill="none" stroke="#7f7542" points="91,-413.5 1301,-413.5 "/>
<text text-anchor="middle" x="696" y="-402.3" font-family="Times,serif" font-size="14.00">well&#45;unital(X₁)</text>
<polyline fill="none" stroke="#7f7542" points="91,-398.5 1301,-398.5 "/>
<text text-anchor="middle" x="696" y="-387.3" font-family="Times,serif" font-size="14.00">⇊</text>
<polyline fill="none" stroke="#7f7542" points="91,-383.5 1301,-383.5 "/>
<text text-anchor="middle" x="696" y="-372.3" font-family="Times,serif" font-size="14.00">&#45;(X₁,X₁ * X₂ * (carrier(X₁) * (carrier(X₁) ][ X₂ ][ X₃ ][ X₄ ][ X₅) * 2 * 2),X₁ * (carrier(X₁) * (carrier(X₁) ][ X₂ ][ X₃ ][ X₄ ][ X₅) * 1 * 2) * X₄) = Det(2,X₁,carrier(X₁) ][ X₂ ][ X₃ ][ X₄ ][ X₅)</text>
<polyline fill="none" stroke="#7f7542" points="91,-368.5 1301,-368.5 "/>
<text text-anchor="middle" x="696" y="-357.3" font-family="Times,serif" font-size="14.00">degenerated(X₁)</text>
<polyline fill="none" stroke="#7f7542" points="91,-353.5 1301,-353.5 "/>
<text text-anchor="middle" x="696" y="-342.3" font-family="Times,serif" font-size="14.00">empty(X₁)</text>
</a>
</g>
</g>
<!-- c_0_32&#45;&gt;c_0_38 -->
<g id="edge1" class="edge">
<title>c_0_32&#45;&gt;c_0_38</title>
<path fill="none" stroke="black" d="M1272.75,-757.84C1272.75,-757.84 1272.75,-618.76 1272.75,-618.76"/>
<polygon fill="black" stroke="black" points="1276.25,-618.76 1272.75,-608.76 1269.25,-618.76 1276.25,-618.76"/>
</g>
<!-- c_0_36 -->
<g id="node2" class="node">
<title>c_0_36</title>
<g id="a_node2"><a xlink:href="c_0_36.html" xlink:title="{Abelian(X₁)|X₂ ∈ carrier(X₁)|X₃ ∈ carrier(X₁)|X₄ ∈ carrier(X₁)|X₅ ∈ carrier(X₁)|add&#45;associative(X₁)|almost_left_invertible(X₁)|associative(X₁)|commutative(X₁)|distributive(X₁)|doubleLoopStr(X₁)|right_complementable(X₁)|right_zeroed(X₁)|well&#45;unital(X₁)|⇊|&#45;(X₁,X₁ * X₂ * (carrier(X₁) * (carrier(X₁) ][ X₂ ][ X₃ ][ X₄ ][ X₅) * 2 * 2),X₁ * (carrier(X₁) * (carrier(X₁) ][ X₂ ][ X₃ ][ X₄ ][ X₅) * 1 * 2) * X₄) = Det(2,X₁,carrier(X₁) ][ X₂ ][ X₃ ][ X₄ ][ X₅)|carrier(X₁) = Ø|degenerated(X₁)|empty(X₁)}" target="_vizar">
<polygon fill="#f8edd1" stroke="#7f7542" points="16,-645.5 16,-930.5 1226,-930.5 1226,-645.5 16,-645.5"/>
<text text-anchor="middle" x="621" y="-919.3" font-family="Times,serif" font-size="14.00">Abelian(X₁)</text>
<polyline fill="none" stroke="#7f7542" points="16,-915.5 1226,-915.5 "/>
<text text-anchor="middle" x="621" y="-904.3" font-family="Times,serif" font-size="14.00">X₂ ∈ carrier(X₁)</text>
<polyline fill="none" stroke="#7f7542" points="16,-900.5 1226,-900.5 "/>
<text text-anchor="middle" x="621" y="-889.3" font-family="Times,serif" font-size="14.00">X₃ ∈ carrier(X₁)</text>
<polyline fill="none" stroke="#7f7542" points="16,-885.5 1226,-885.5 "/>
<text text-anchor="middle" x="621" y="-874.3" font-family="Times,serif" font-size="14.00">X₄ ∈ carrier(X₁)</text>
<polyline fill="none" stroke="#7f7542" points="16,-870.5 1226,-870.5 "/>
<text text-anchor="middle" x="621" y="-859.3" font-family="Times,serif" font-size="14.00">X₅ ∈ carrier(X₁)</text>
<polyline fill="none" stroke="#7f7542" points="16,-855.5 1226,-855.5 "/>
<text text-anchor="middle" x="621" y="-844.3" font-family="Times,serif" font-size="14.00">add&#45;associative(X₁)</text>
<polyline fill="none" stroke="#7f7542" points="16,-840.5 1226,-840.5 "/>
<text text-anchor="middle" x="621" y="-829.3" font-family="Times,serif" font-size="14.00">almost_left_invertible(X₁)</text>
<polyline fill="none" stroke="#7f7542" points="16,-825.5 1226,-825.5 "/>
<text text-anchor="middle" x="621" y="-814.3" font-family="Times,serif" font-size="14.00">associative(X₁)</text>
<polyline fill="none" stroke="#7f7542" points="16,-810.5 1226,-810.5 "/>
<text text-anchor="middle" x="621" y="-799.3" font-family="Times,serif" font-size="14.00">commutative(X₁)</text>
<polyline fill="none" stroke="#7f7542" points="16,-795.5 1226,-795.5 "/>
<text text-anchor="middle" x="621" y="-784.3" font-family="Times,serif" font-size="14.00">distributive(X₁)</text>
<polyline fill="none" stroke="#7f7542" points="16,-780.5 1226,-780.5 "/>
<text text-anchor="middle" x="621" y="-769.3" font-family="Times,serif" font-size="14.00">doubleLoopStr(X₁)</text>
<polyline fill="none" stroke="#7f7542" points="16,-765.5 1226,-765.5 "/>
<text text-anchor="middle" x="621" y="-754.3" font-family="Times,serif" font-size="14.00">right_complementable(X₁)</text>
<polyline fill="none" stroke="#7f7542" points="16,-750.5 1226,-750.5 "/>
<text text-anchor="middle" x="621" y="-739.3" font-family="Times,serif" font-size="14.00">right_zeroed(X₁)</text>
<polyline fill="none" stroke="#7f7542" points="16,-735.5 1226,-735.5 "/>
<text text-anchor="middle" x="621" y="-724.3" font-family="Times,serif" font-size="14.00">well&#45;unital(X₁)</text>
<polyline fill="none" stroke="#7f7542" points="16,-720.5 1226,-720.5 "/>
<text text-anchor="middle" x="621" y="-709.3" font-family="Times,serif" font-size="14.00">⇊</text>
<polyline fill="none" stroke="#7f7542" points="16,-705.5 1226,-705.5 "/>
<text text-anchor="middle" x="621" y="-694.3" font-family="Times,serif" font-size="14.00">&#45;(X₁,X₁ * X₂ * (carrier(X₁) * (carrier(X₁) ][ X₂ ][ X₃ ][ X₄ ][ X₅) * 2 * 2),X₁ * (carrier(X₁) * (carrier(X₁) ][ X₂ ][ X₃ ][ X₄ ][ X₅) * 1 * 2) * X₄) = Det(2,X₁,carrier(X₁) ][ X₂ ][ X₃ ][ X₄ ][ X₅)</text>
<polyline fill="none" stroke="#7f7542" points="16,-690.5 1226,-690.5 "/>
<text text-anchor="middle" x="621" y="-679.3" font-family="Times,serif" font-size="14.00">carrier(X₁) = Ø</text>
<polyline fill="none" stroke="#7f7542" points="16,-675.5 1226,-675.5 "/>
<text text-anchor="middle" x="621" y="-664.3" font-family="Times,serif" font-size="14.00">degenerated(X₁)</text>
<polyline fill="none" stroke="#7f7542" points="16,-660.5 1226,-660.5 "/>
<text text-anchor="middle" x="621" y="-649.3" font-family="Times,serif" font-size="14.00">empty(X₁)</text>
</a>
</g>
</g>
<!-- c_0_36&#45;&gt;c_0_38 -->
<g id="edge2" class="edge">
<title>c_0_36&#45;&gt;c_0_38</title>
<path fill="none" stroke="black" d="M658.5,-645.47C658.5,-645.47 658.5,-618.84 658.5,-618.84"/>
<polygon fill="black" stroke="black" points="662,-618.84 658.5,-608.84 655,-618.84 662,-618.84"/>
</g>
<!-- c_0_41 -->
<g id="node4" class="node">
<title>c_0_41</title>
<g id="a_node4"><a xlink:href="c_0_41.html" xlink:title="{Abelian(X₁)|X₂ ∈ carrier(X₁)|X₃ ∈ carrier(X₁)|X₄ ∈ carrier(X₁)|X₅ ∈ carrier(X₁)|add&#45;associative(X₁)|almost_left_invertible(X₁)|associative(X₁)|commutative(X₁)|distributive(X₁)|doubleLoopStr(X₁)|right_complementable(X₁)|right_zeroed(X₁)|well&#45;unital(X₁)|⇊|&#45;(X₁,X₁ * X₂ * (carrier(X₁) * (carrier(X₁) ][ X₂ ][ X₃ ][ X₄ ][ X₅) * 2 * 2),X₁ * X₃ * X₄) = Det(2,X₁,carrier(X₁) ][ X₂ ][ X₃ ][ X₄ ][ X₅)|carrier(X₁) = Ø|degenerated(X₁)|empty(X₁)}" target="_vizar">
<polygon fill="#f8edd1" stroke="#7f7542" points="269.5,-16.5 269.5,-301.5 1122.5,-301.5 1122.5,-16.5 269.5,-16.5"/>
<text text-anchor="middle" x="696" y="-290.3" font-family="Times,serif" font-size="14.00">Abelian(X₁)</text>
<polyline fill="none" stroke="#7f7542" points="269.5,-286.5 1122.5,-286.5 "/>
<text text-anchor="middle" x="696" y="-275.3" font-family="Times,serif" font-size="14.00">X₂ ∈ carrier(X₁)</text>
<polyline fill="none" stroke="#7f7542" points="269.5,-271.5 1122.5,-271.5 "/>
<text text-anchor="middle" x="696" y="-260.3" font-family="Times,serif" font-size="14.00">X₃ ∈ carrier(X₁)</text>
<polyline fill="none" stroke="#7f7542" points="269.5,-256.5 1122.5,-256.5 "/>
<text text-anchor="middle" x="696" y="-245.3" font-family="Times,serif" font-size="14.00">X₄ ∈ carrier(X₁)</text>
<polyline fill="none" stroke="#7f7542" points="269.5,-241.5 1122.5,-241.5 "/>
<text text-anchor="middle" x="696" y="-230.3" font-family="Times,serif" font-size="14.00">X₅ ∈ carrier(X₁)</text>
<polyline fill="none" stroke="#7f7542" points="269.5,-226.5 1122.5,-226.5 "/>
<text text-anchor="middle" x="696" y="-215.3" font-family="Times,serif" font-size="14.00">add&#45;associative(X₁)</text>
<polyline fill="none" stroke="#7f7542" points="269.5,-211.5 1122.5,-211.5 "/>
<text text-anchor="middle" x="696" y="-200.3" font-family="Times,serif" font-size="14.00">almost_left_invertible(X₁)</text>
<polyline fill="none" stroke="#7f7542" points="269.5,-196.5 1122.5,-196.5 "/>
<text text-anchor="middle" x="696" y="-185.3" font-family="Times,serif" font-size="14.00">associative(X₁)</text>
<polyline fill="none" stroke="#7f7542" points="269.5,-181.5 1122.5,-181.5 "/>
<text text-anchor="middle" x="696" y="-170.3" font-family="Times,serif" font-size="14.00">commutative(X₁)</text>
<polyline fill="none" stroke="#7f7542" points="269.5,-166.5 1122.5,-166.5 "/>
<text text-anchor="middle" x="696" y="-155.3" font-family="Times,serif" font-size="14.00">distributive(X₁)</text>
<polyline fill="none" stroke="#7f7542" points="269.5,-151.5 1122.5,-151.5 "/>
<text text-anchor="middle" x="696" y="-140.3" font-family="Times,serif" font-size="14.00">doubleLoopStr(X₁)</text>
<polyline fill="none" stroke="#7f7542" points="269.5,-136.5 1122.5,-136.5 "/>
<text text-anchor="middle" x="696" y="-125.3" font-family="Times,serif" font-size="14.00">right_complementable(X₁)</text>
<polyline fill="none" stroke="#7f7542" points="269.5,-121.5 1122.5,-121.5 "/>
<text text-anchor="middle" x="696" y="-110.3" font-family="Times,serif" font-size="14.00">right_zeroed(X₁)</text>
<polyline fill="none" stroke="#7f7542" points="269.5,-106.5 1122.5,-106.5 "/>
<text text-anchor="middle" x="696" y="-95.3" font-family="Times,serif" font-size="14.00">well&#45;unital(X₁)</text>
<polyline fill="none" stroke="#7f7542" points="269.5,-91.5 1122.5,-91.5 "/>
<text text-anchor="middle" x="696" y="-80.3" font-family="Times,serif" font-size="14.00">⇊</text>
<polyline fill="none" stroke="#7f7542" points="269.5,-76.5 1122.5,-76.5 "/>
<text text-anchor="middle" x="696" y="-65.3" font-family="Times,serif" font-size="14.00">&#45;(X₁,X₁ * X₂ * (carrier(X₁) * (carrier(X₁) ][ X₂ ][ X₃ ][ X₄ ][ X₅) * 2 * 2),X₁ * X₃ * X₄) = Det(2,X₁,carrier(X₁) ][ X₂ ][ X₃ ][ X₄ ][ X₅)</text>
<polyline fill="none" stroke="#7f7542" points="269.5,-61.5 1122.5,-61.5 "/>
<text text-anchor="middle" x="696" y="-50.3" font-family="Times,serif" font-size="14.00">carrier(X₁) = Ø</text>
<polyline fill="none" stroke="#7f7542" points="269.5,-46.5 1122.5,-46.5 "/>
<text text-anchor="middle" x="696" y="-35.3" font-family="Times,serif" font-size="14.00">degenerated(X₁)</text>
<polyline fill="none" stroke="#7f7542" points="269.5,-31.5 1122.5,-31.5 "/>
<text text-anchor="middle" x="696" y="-20.3" font-family="Times,serif" font-size="14.00">empty(X₁)</text>
</a>
</g>
</g>
<!-- c_0_38&#45;&gt;c_0_41 -->
<g id="edge3" class="edge">
<title>c_0_38&#45;&gt;c_0_41</title>
<path fill="none" stroke="black" stroke-dasharray="5,2" d="M696,-338.3C696,-338.3 696,-311.6 696,-311.6"/>
<polygon fill="black" stroke="black" points="699.5,-311.6 696,-301.6 692.5,-311.6 699.5,-311.6"/>
</g>
</g>
</svg>
