<?xml version="1.0" encoding="UTF-8" standalone="no"?>
<!DOCTYPE svg PUBLIC "-//W3C//DTD SVG 1.1//EN"
 "http://www.w3.org/Graphics/SVG/1.1/DTD/svg11.dtd">
<!-- Generated by graphviz version 5.0.0 (0)
 -->
<!-- Title: proof Pages: 1 -->
<svg width="144pt" height="160pt"
 viewBox="0.00 0.00 144.00 160.00" xmlns="http://www.w3.org/2000/svg" xmlns:xlink="http://www.w3.org/1999/xlink">
<g id="graph0" class="graph" transform="scale(1 1) rotate(0) translate(4 156)">
<title>proof</title>
<g id="clust1" class="cluster">
<title>cluster_0</title>
<polygon fill="transparent" stroke="black" stroke-dasharray="1,5" points="13,-112 13,-144 123,-144 123,-112 13,-112"/>
</g>
<g id="clust2" class="cluster">
<title>cluster_1</title>
<polygon fill="transparent" stroke="black" stroke-width="2" points="8,-60 8,-92 128,-92 128,-60 8,-60"/>
</g>
<g id="clust3" class="cluster">
<title>cluster_2</title>
<polygon fill="transparent" stroke="black" stroke-dasharray="1,5" points="53,-8 53,-40 83,-40 83,-8 53,-8"/>
</g>
<!-- t13_matrix_9 -->
<g id="node1" class="node">
<title>t13_matrix_9</title>
<g id="a_node1"><a xlink:href="t13_matrix_9.html" xlink:title="t13_matrix_9" target="_vizar">
<polygon fill="#fa6900" stroke="#7f7542" points="21,-120.5 21,-135.5 115,-135.5 115,-120.5 21,-120.5"/>
<text text-anchor="middle" x="68" y="-124.3" font-family="Times,serif" font-size="14.00">t13_matrix_9</text>
</a>
</g>
</g>
<!-- c_0_63 -->
<g id="node2" class="node">
<title>c_0_63</title>
<g id="a_node2"><a xlink:href="c_0_63.html" xlink:title="{¬ (empty(sk₁))}" target="_vizar">
<polygon fill="#fa6900" stroke="#7f7542" points="16,-68.5 16,-83.5 120,-83.5 120,-68.5 16,-68.5"/>
<text text-anchor="middle" x="68" y="-72.3" font-family="Times,serif" font-size="14.00">¬ (empty(sk₁))</text>
</a>
</g>
</g>
<!-- t13_matrix_9&#45;&gt;c_0_63 -->
<g id="edge1" class="edge">
<title>t13_matrix_9&#45;&gt;c_0_63</title>
<path fill="none" stroke="black" d="M68,-120.33C68,-120.33 68,-93.7 68,-93.7"/>
<polygon fill="black" stroke="black" points="71.5,-93.7 68,-83.7 64.5,-93.7 71.5,-93.7"/>
</g>
<!-- c_0_82 -->
<g id="node3" class="node">
<title>c_0_82</title>
<g id="a_node3"><a xlink:href="c_0_82.html" xlink:title="⊥" target="_vizar">
<polygon fill="#fa6900" stroke="#7f7542" points="61,-16.5 61,-31.5 75,-31.5 75,-16.5 61,-16.5"/>
<text text-anchor="middle" x="68" y="-20.3" font-family="Times,serif" font-size="14.00">⊥</text>
</a>
</g>
</g>
<!-- c_0_63&#45;&gt;c_0_82 -->
<g id="edge2" class="edge">
<title>c_0_63&#45;&gt;c_0_82</title>
<path fill="none" stroke="black" stroke-dasharray="5,2" d="M68,-68.33C68,-68.33 68,-41.7 68,-41.7"/>
<polygon fill="black" stroke="black" points="71.5,-41.7 68,-31.7 64.5,-41.7 71.5,-41.7"/>
</g>
</g>
</svg>
