<?xml version="1.0" encoding="UTF-8" standalone="no"?>
<!DOCTYPE svg PUBLIC "-//W3C//DTD SVG 1.1//EN"
 "http://www.w3.org/Graphics/SVG/1.1/DTD/svg11.dtd">
<!-- Generated by graphviz version 5.0.0 (0)
 -->
<!-- Title: proof Pages: 1 -->
<svg width="685pt" height="685pt"
 viewBox="0.00 0.00 685.00 685.00" xmlns="http://www.w3.org/2000/svg" xmlns:xlink="http://www.w3.org/1999/xlink">
<g id="graph0" class="graph" transform="scale(1 1) rotate(0) translate(4 681)">
<title>proof</title>
<g id="clust1" class="cluster">
<title>cluster_0</title>
<polygon fill="transparent" stroke="black" stroke-dasharray="1,5" points="8,-367 8,-669 669,-669 669,-367 8,-367"/>
</g>
<g id="clust2" class="cluster">
<title>cluster_1</title>
<polygon fill="transparent" stroke="black" stroke-width="2" points="82,-60 82,-347 594,-347 594,-60 82,-60"/>
</g>
<g id="clust3" class="cluster">
<title>cluster_2</title>
<polygon fill="transparent" stroke="black" stroke-dasharray="1,5" points="323,-8 323,-40 353,-40 353,-8 323,-8"/>
</g>
<!-- c_0_32 -->
<g id="node1" class="node">
<title>c_0_32</title>
<g id="a_node1"><a xlink:href="c_0_32.html" xlink:title="{carrier(X₁) = Ø|doubleLoopStr(X₁)|⇊|empty(X₁)}" target="_vizar">
<polygon fill="#f8edd1" stroke="#7f7542" points="529.5,-488 529.5,-548 660.5,-548 660.5,-488 529.5,-488"/>
<text text-anchor="middle" x="595" y="-536.8" font-family="Times,serif" font-size="14.00">carrier(X₁) = Ø</text>
<polyline fill="none" stroke="#7f7542" points="529.5,-533 660.5,-533 "/>
<text text-anchor="middle" x="595" y="-521.8" font-family="Times,serif" font-size="14.00">doubleLoopStr(X₁)</text>
<polyline fill="none" stroke="#7f7542" points="529.5,-518 660.5,-518 "/>
<text text-anchor="middle" x="595" y="-506.8" font-family="Times,serif" font-size="14.00">⇊</text>
<polyline fill="none" stroke="#7f7542" points="529.5,-503 660.5,-503 "/>
<text text-anchor="middle" x="595" y="-491.8" font-family="Times,serif" font-size="14.00">empty(X₁)</text>
</a>
</g>
</g>
<!-- c_0_65 -->
<g id="node3" class="node">
<title>c_0_65</title>
<g id="a_node3"><a xlink:href="c_0_65.html" xlink:title="{Abelian(X₁)|X₂ ∈ carrier(X₁)|X₃ ∈ carrier(X₁)|X₄ ∈ carrier(X₁)|X₅ ∈ carrier(X₁)|add&#45;associative(X₁)|almost_left_invertible(X₁)|associative(X₁)|commutative(X₁)|distributive(X₁)|doubleLoopStr(X₁)|right_complementable(X₁)|right_zeroed(X₁)|well&#45;unital(X₁)|⇊|&#45;(X₁,X₁ * X₂ * X₃,X₁ * X₄ * X₅) = Det(2,X₁,carrier(X₁) ][ X₂ ][ X₄ ][ X₅ ][ X₃)|degenerated(X₁)|empty(X₁)}" target="_vizar">
<polygon fill="#f8edd1" stroke="#7f7542" points="90.5,-68.5 90.5,-338.5 585.5,-338.5 585.5,-68.5 90.5,-68.5"/>
<text text-anchor="middle" x="338" y="-327.3" font-family="Times,serif" font-size="14.00">Abelian(X₁)</text>
<polyline fill="none" stroke="#7f7542" points="90.5,-323.5 585.5,-323.5 "/>
<text text-anchor="middle" x="338" y="-312.3" font-family="Times,serif" font-size="14.00">X₂ ∈ carrier(X₁)</text>
<polyline fill="none" stroke="#7f7542" points="90.5,-308.5 585.5,-308.5 "/>
<text text-anchor="middle" x="338" y="-297.3" font-family="Times,serif" font-size="14.00">X₃ ∈ carrier(X₁)</text>
<polyline fill="none" stroke="#7f7542" points="90.5,-293.5 585.5,-293.5 "/>
<text text-anchor="middle" x="338" y="-282.3" font-family="Times,serif" font-size="14.00">X₄ ∈ carrier(X₁)</text>
<polyline fill="none" stroke="#7f7542" points="90.5,-278.5 585.5,-278.5 "/>
<text text-anchor="middle" x="338" y="-267.3" font-family="Times,serif" font-size="14.00">X₅ ∈ carrier(X₁)</text>
<polyline fill="none" stroke="#7f7542" points="90.5,-263.5 585.5,-263.5 "/>
<text text-anchor="middle" x="338" y="-252.3" font-family="Times,serif" font-size="14.00">add&#45;associative(X₁)</text>
<polyline fill="none" stroke="#7f7542" points="90.5,-248.5 585.5,-248.5 "/>
<text text-anchor="middle" x="338" y="-237.3" font-family="Times,serif" font-size="14.00">almost_left_invertible(X₁)</text>
<polyline fill="none" stroke="#7f7542" points="90.5,-233.5 585.5,-233.5 "/>
<text text-anchor="middle" x="338" y="-222.3" font-family="Times,serif" font-size="14.00">associative(X₁)</text>
<polyline fill="none" stroke="#7f7542" points="90.5,-218.5 585.5,-218.5 "/>
<text text-anchor="middle" x="338" y="-207.3" font-family="Times,serif" font-size="14.00">commutative(X₁)</text>
<polyline fill="none" stroke="#7f7542" points="90.5,-203.5 585.5,-203.5 "/>
<text text-anchor="middle" x="338" y="-192.3" font-family="Times,serif" font-size="14.00">distributive(X₁)</text>
<polyline fill="none" stroke="#7f7542" points="90.5,-188.5 585.5,-188.5 "/>
<text text-anchor="middle" x="338" y="-177.3" font-family="Times,serif" font-size="14.00">doubleLoopStr(X₁)</text>
<polyline fill="none" stroke="#7f7542" points="90.5,-173.5 585.5,-173.5 "/>
<text text-anchor="middle" x="338" y="-162.3" font-family="Times,serif" font-size="14.00">right_complementable(X₁)</text>
<polyline fill="none" stroke="#7f7542" points="90.5,-158.5 585.5,-158.5 "/>
<text text-anchor="middle" x="338" y="-147.3" font-family="Times,serif" font-size="14.00">right_zeroed(X₁)</text>
<polyline fill="none" stroke="#7f7542" points="90.5,-143.5 585.5,-143.5 "/>
<text text-anchor="middle" x="338" y="-132.3" font-family="Times,serif" font-size="14.00">well&#45;unital(X₁)</text>
<polyline fill="none" stroke="#7f7542" points="90.5,-128.5 585.5,-128.5 "/>
<text text-anchor="middle" x="338" y="-117.3" font-family="Times,serif" font-size="14.00">⇊</text>
<polyline fill="none" stroke="#7f7542" points="90.5,-113.5 585.5,-113.5 "/>
<text text-anchor="middle" x="338" y="-102.3" font-family="Times,serif" font-size="14.00">&#45;(X₁,X₁ * X₂ * X₃,X₁ * X₄ * X₅) = Det(2,X₁,carrier(X₁) ][ X₂ ][ X₄ ][ X₅ ][ X₃)</text>
<polyline fill="none" stroke="#7f7542" points="90.5,-98.5 585.5,-98.5 "/>
<text text-anchor="middle" x="338" y="-87.3" font-family="Times,serif" font-size="14.00">degenerated(X₁)</text>
<polyline fill="none" stroke="#7f7542" points="90.5,-83.5 585.5,-83.5 "/>
<text text-anchor="middle" x="338" y="-72.3" font-family="Times,serif" font-size="14.00">empty(X₁)</text>
</a>
</g>
</g>
<!-- c_0_32&#45;&gt;c_0_65 -->
<g id="edge1" class="edge">
<title>c_0_32&#45;&gt;c_0_65</title>
<path fill="none" stroke="black" d="M557.5,-487.84C557.5,-487.84 557.5,-348.76 557.5,-348.76"/>
<polygon fill="black" stroke="black" points="561,-348.76 557.5,-338.76 554,-348.76 561,-348.76"/>
</g>
<!-- c_0_47 -->
<g id="node2" class="node">
<title>c_0_47</title>
<g id="a_node2"><a xlink:href="c_0_47.html" xlink:title="{Abelian(X₁)|X₂ ∈ carrier(X₁)|X₃ ∈ carrier(X₁)|X₄ ∈ carrier(X₁)|X₅ ∈ carrier(X₁)|add&#45;associative(X₁)|almost_left_invertible(X₁)|associative(X₁)|commutative(X₁)|distributive(X₁)|doubleLoopStr(X₁)|right_complementable(X₁)|right_zeroed(X₁)|well&#45;unital(X₁)|⇊|&#45;(X₁,X₁ * X₂ * X₅,X₁ * X₃ * X₄) = Det(2,X₁,carrier(X₁) ][ X₂ ][ X₃ ][ X₄ ][ X₅)|carrier(X₁) = Ø|degenerated(X₁)|empty(X₁)}" target="_vizar">
<polygon fill="#f8edd1" stroke="#7f7542" points="16.5,-375.5 16.5,-660.5 511.5,-660.5 511.5,-375.5 16.5,-375.5"/>
<text text-anchor="middle" x="264" y="-649.3" font-family="Times,serif" font-size="14.00">Abelian(X₁)</text>
<polyline fill="none" stroke="#7f7542" points="16.5,-645.5 511.5,-645.5 "/>
<text text-anchor="middle" x="264" y="-634.3" font-family="Times,serif" font-size="14.00">X₂ ∈ carrier(X₁)</text>
<polyline fill="none" stroke="#7f7542" points="16.5,-630.5 511.5,-630.5 "/>
<text text-anchor="middle" x="264" y="-619.3" font-family="Times,serif" font-size="14.00">X₃ ∈ carrier(X₁)</text>
<polyline fill="none" stroke="#7f7542" points="16.5,-615.5 511.5,-615.5 "/>
<text text-anchor="middle" x="264" y="-604.3" font-family="Times,serif" font-size="14.00">X₄ ∈ carrier(X₁)</text>
<polyline fill="none" stroke="#7f7542" points="16.5,-600.5 511.5,-600.5 "/>
<text text-anchor="middle" x="264" y="-589.3" font-family="Times,serif" font-size="14.00">X₅ ∈ carrier(X₁)</text>
<polyline fill="none" stroke="#7f7542" points="16.5,-585.5 511.5,-585.5 "/>
<text text-anchor="middle" x="264" y="-574.3" font-family="Times,serif" font-size="14.00">add&#45;associative(X₁)</text>
<polyline fill="none" stroke="#7f7542" points="16.5,-570.5 511.5,-570.5 "/>
<text text-anchor="middle" x="264" y="-559.3" font-family="Times,serif" font-size="14.00">almost_left_invertible(X₁)</text>
<polyline fill="none" stroke="#7f7542" points="16.5,-555.5 511.5,-555.5 "/>
<text text-anchor="middle" x="264" y="-544.3" font-family="Times,serif" font-size="14.00">associative(X₁)</text>
<polyline fill="none" stroke="#7f7542" points="16.5,-540.5 511.5,-540.5 "/>
<text text-anchor="middle" x="264" y="-529.3" font-family="Times,serif" font-size="14.00">commutative(X₁)</text>
<polyline fill="none" stroke="#7f7542" points="16.5,-525.5 511.5,-525.5 "/>
<text text-anchor="middle" x="264" y="-514.3" font-family="Times,serif" font-size="14.00">distributive(X₁)</text>
<polyline fill="none" stroke="#7f7542" points="16.5,-510.5 511.5,-510.5 "/>
<text text-anchor="middle" x="264" y="-499.3" font-family="Times,serif" font-size="14.00">doubleLoopStr(X₁)</text>
<polyline fill="none" stroke="#7f7542" points="16.5,-495.5 511.5,-495.5 "/>
<text text-anchor="middle" x="264" y="-484.3" font-family="Times,serif" font-size="14.00">right_complementable(X₁)</text>
<polyline fill="none" stroke="#7f7542" points="16.5,-480.5 511.5,-480.5 "/>
<text text-anchor="middle" x="264" y="-469.3" font-family="Times,serif" font-size="14.00">right_zeroed(X₁)</text>
<polyline fill="none" stroke="#7f7542" points="16.5,-465.5 511.5,-465.5 "/>
<text text-anchor="middle" x="264" y="-454.3" font-family="Times,serif" font-size="14.00">well&#45;unital(X₁)</text>
<polyline fill="none" stroke="#7f7542" points="16.5,-450.5 511.5,-450.5 "/>
<text text-anchor="middle" x="264" y="-439.3" font-family="Times,serif" font-size="14.00">⇊</text>
<polyline fill="none" stroke="#7f7542" points="16.5,-435.5 511.5,-435.5 "/>
<text text-anchor="middle" x="264" y="-424.3" font-family="Times,serif" font-size="14.00">&#45;(X₁,X₁ * X₂ * X₅,X₁ * X₃ * X₄) = Det(2,X₁,carrier(X₁) ][ X₂ ][ X₃ ][ X₄ ][ X₅)</text>
<polyline fill="none" stroke="#7f7542" points="16.5,-420.5 511.5,-420.5 "/>
<text text-anchor="middle" x="264" y="-409.3" font-family="Times,serif" font-size="14.00">carrier(X₁) = Ø</text>
<polyline fill="none" stroke="#7f7542" points="16.5,-405.5 511.5,-405.5 "/>
<text text-anchor="middle" x="264" y="-394.3" font-family="Times,serif" font-size="14.00">degenerated(X₁)</text>
<polyline fill="none" stroke="#7f7542" points="16.5,-390.5 511.5,-390.5 "/>
<text text-anchor="middle" x="264" y="-379.3" font-family="Times,serif" font-size="14.00">empty(X₁)</text>
</a>
</g>
</g>
<!-- c_0_47&#45;&gt;c_0_65 -->
<g id="edge2" class="edge">
<title>c_0_47&#45;&gt;c_0_65</title>
<path fill="none" stroke="black" d="M301,-375.47C301,-375.47 301,-348.84 301,-348.84"/>
<polygon fill="black" stroke="black" points="304.5,-348.84 301,-338.84 297.5,-348.84 304.5,-348.84"/>
</g>
<!-- c_0_82 -->
<g id="node4" class="node">
<title>c_0_82</title>
<g id="a_node4"><a xlink:href="c_0_82.html" xlink:title="⊥" target="_vizar">
<polygon fill="#fa6900" stroke="#7f7542" points="331,-16.5 331,-31.5 345,-31.5 345,-16.5 331,-16.5"/>
<text text-anchor="middle" x="338" y="-20.3" font-family="Times,serif" font-size="14.00">⊥</text>
</a>
</g>
</g>
<!-- c_0_65&#45;&gt;c_0_82 -->
<g id="edge3" class="edge">
<title>c_0_65&#45;&gt;c_0_82</title>
<path fill="none" stroke="black" stroke-dasharray="5,2" d="M338,-68.37C338,-68.37 338,-41.61 338,-41.61"/>
<polygon fill="black" stroke="black" points="341.5,-41.61 338,-31.61 334.5,-41.61 341.5,-41.61"/>
</g>
</g>
</svg>
