<?xml version="1.0" encoding="UTF-8" standalone="no"?>
<!DOCTYPE svg PUBLIC "-//W3C//DTD SVG 1.1//EN"
 "http://www.w3.org/Graphics/SVG/1.1/DTD/svg11.dtd">
<!-- Generated by graphviz version 5.0.0 (0)
 -->
<!-- Title: proof Pages: 1 -->
<svg width="647pt" height="190pt"
 viewBox="0.00 0.00 647.00 190.00" xmlns="http://www.w3.org/2000/svg" xmlns:xlink="http://www.w3.org/1999/xlink">
<g id="graph0" class="graph" transform="scale(1 1) rotate(0) translate(4 186)">
<title>proof</title>
<g id="clust1" class="cluster">
<title>cluster_0</title>
<polygon fill="transparent" stroke="black" stroke-dasharray="1,5" points="21,-112 21,-174 631,-174 631,-112 21,-112"/>
</g>
<g id="clust2" class="cluster">
<title>cluster_1</title>
<polygon fill="transparent" stroke="black" stroke-width="2" points="29,-60 29,-92 361,-92 361,-60 29,-60"/>
</g>
<g id="clust3" class="cluster">
<title>cluster_2</title>
<polygon fill="transparent" stroke="black" stroke-dasharray="1,5" points="8,-8 8,-40 382,-40 382,-8 8,-8"/>
</g>
<!-- c_0_51 -->
<g id="node1" class="node">
<title>c_0_51</title>
<g id="a_node1"><a xlink:href="c_0_51.html" xlink:title="{τ⁺ ^ (sk₁ + 2) ≠ (τ⁺ ^ sk₁) + (τ⁺ ^ (sk₁ + 1))}" target="_vizar">
<polygon fill="#fa6900" stroke="#7f7542" points="307,-135.5 307,-150.5 623,-150.5 623,-135.5 307,-135.5"/>
<text text-anchor="middle" x="465" y="-139.3" font-family="Times,serif" font-size="14.00">τ⁺ ^ (sk₁ + 2) ≠ (τ⁺ ^ sk₁) + (τ⁺ ^ (sk₁ + 1))</text>
</a>
</g>
</g>
<!-- c_0_58 -->
<g id="node5" class="node">
<title>c_0_58</title>
<g id="a_node5"><a xlink:href="c_0_58.html" xlink:title="{(τ⁺ ^ sk₁) + (τ⁺ ^ (sk₁ + 1)) ≠ τ⁺ ^ (sk₁ + 2)}" target="_vizar">
<polygon fill="#fa6900" stroke="#7f7542" points="37,-68.5 37,-83.5 353,-83.5 353,-68.5 37,-68.5"/>
<text text-anchor="middle" x="195" y="-72.3" font-family="Times,serif" font-size="14.00">(τ⁺ ^ sk₁) + (τ⁺ ^ (sk₁ + 1)) ≠ τ⁺ ^ (sk₁ + 2)</text>
</a>
</g>
</g>
<!-- c_0_51&#45;&gt;c_0_58 -->
<g id="edge1" class="edge">
<title>c_0_51&#45;&gt;c_0_58</title>
<path fill="none" stroke="black" d="M330,-135.31C330,-135.31 330,-93.6 330,-93.6"/>
<polygon fill="black" stroke="black" points="333.5,-93.6 330,-83.6 326.5,-93.6 333.5,-93.6"/>
</g>
<!-- c_0_38 -->
<g id="node2" class="node">
<title>c_0_38</title>
<g id="a_node2"><a xlink:href="c_0_38.html" xlink:title="{X₂ ∈ ℕ|⇊|N₁ + X₂ = N₁ + X₂}" target="_vizar">
<polygon fill="#f8edd1" stroke="#7f7542" points="161,-120.5 161,-165.5 289,-165.5 289,-120.5 161,-120.5"/>
<text text-anchor="middle" x="225" y="-154.3" font-family="Times,serif" font-size="14.00">X₂ ∈ ℕ</text>
<polyline fill="none" stroke="#7f7542" points="161,-150.5 289,-150.5 "/>
<text text-anchor="middle" x="225" y="-139.3" font-family="Times,serif" font-size="14.00">⇊</text>
<polyline fill="none" stroke="#7f7542" points="161,-135.5 289,-135.5 "/>
<text text-anchor="middle" x="225" y="-124.3" font-family="Times,serif" font-size="14.00">N₁ + X₂ = N₁ + X₂</text>
</a>
</g>
</g>
<!-- c_0_38&#45;&gt;c_0_58 -->
<g id="edge2" class="edge">
<title>c_0_38&#45;&gt;c_0_58</title>
<path fill="none" stroke="black" d="M225,-120.32C225,-120.32 225,-93.59 225,-93.59"/>
<polygon fill="black" stroke="black" points="228.5,-93.59 225,-83.59 221.5,-93.59 228.5,-93.59"/>
</g>
<!-- c_0_47 -->
<g id="node3" class="node">
<title>c_0_47</title>
<g id="a_node3"><a xlink:href="c_0_47.html" xlink:title="{2 ∈ ℕ}" target="_vizar">
<polygon fill="#f8edd1" stroke="#7f7542" points="101,-135.5 101,-150.5 143,-150.5 143,-135.5 101,-135.5"/>
<text text-anchor="middle" x="122" y="-139.3" font-family="Times,serif" font-size="14.00">2 ∈ ℕ</text>
</a>
</g>
</g>
<!-- c_0_47&#45;&gt;c_0_58 -->
<g id="edge3" class="edge">
<title>c_0_47&#45;&gt;c_0_58</title>
<path fill="none" stroke="black" d="M122,-135.31C122,-135.31 122,-93.6 122,-93.6"/>
<polygon fill="black" stroke="black" points="125.5,-93.6 122,-83.6 118.5,-93.6 125.5,-93.6"/>
</g>
<!-- c_0_40 -->
<g id="node4" class="node">
<title>c_0_40</title>
<g id="a_node4"><a xlink:href="c_0_40.html" xlink:title="{sk₁ ∈ ℕ}" target="_vizar">
<polygon fill="#fa6900" stroke="#7f7542" points="29,-135.5 29,-150.5 83,-150.5 83,-135.5 29,-135.5"/>
<text text-anchor="middle" x="56" y="-139.3" font-family="Times,serif" font-size="14.00">sk₁ ∈ ℕ</text>
</a>
</g>
</g>
<!-- c_0_40&#45;&gt;c_0_58 -->
<g id="edge4" class="edge">
<title>c_0_40&#45;&gt;c_0_58</title>
<path fill="none" stroke="black" d="M60,-135.31C60,-135.31 60,-93.6 60,-93.6"/>
<polygon fill="black" stroke="black" points="63.5,-93.6 60,-83.6 56.5,-93.6 63.5,-93.6"/>
</g>
<!-- c_0_65 -->
<g id="node6" class="node">
<title>c_0_65</title>
<g id="a_node6"><a xlink:href="c_0_65.html" xlink:title="{τ⁺ ^ (sk₁ + 2) ≠ (τ⁺ ^ sk₁) + ((τ⁺ ^ sk₁) * (τ⁺ ^ 1))}" target="_vizar">
<polygon fill="#fa6900" stroke="#7f7542" points="16.5,-16.5 16.5,-31.5 373.5,-31.5 373.5,-16.5 16.5,-16.5"/>
<text text-anchor="middle" x="195" y="-20.3" font-family="Times,serif" font-size="14.00">τ⁺ ^ (sk₁ + 2) ≠ (τ⁺ ^ sk₁) + ((τ⁺ ^ sk₁) * (τ⁺ ^ 1))</text>
</a>
</g>
</g>
<!-- c_0_58&#45;&gt;c_0_65 -->
<g id="edge5" class="edge">
<title>c_0_58&#45;&gt;c_0_65</title>
<path fill="none" stroke="black" stroke-dasharray="5,2" d="M195,-68.33C195,-68.33 195,-41.7 195,-41.7"/>
<polygon fill="black" stroke="black" points="198.5,-41.7 195,-31.7 191.5,-41.7 198.5,-41.7"/>
</g>
</g>
</svg>
