<?xml version="1.0" encoding="UTF-8" standalone="no"?>
<!DOCTYPE svg PUBLIC "-//W3C//DTD SVG 1.1//EN"
 "http://www.w3.org/Graphics/SVG/1.1/DTD/svg11.dtd">
<!-- Generated by graphviz version 5.0.0 (0)
 -->
<!-- Title: proof Pages: 1 -->
<svg width="181pt" height="160pt"
 viewBox="0.00 0.00 181.00 160.00" xmlns="http://www.w3.org/2000/svg" xmlns:xlink="http://www.w3.org/1999/xlink">
<g id="graph0" class="graph" transform="scale(1 1) rotate(0) translate(4 156)">
<title>proof</title>
<g id="clust1" class="cluster">
<title>cluster_0</title>
<polygon fill="transparent" stroke="black" stroke-dasharray="1,5" points="8,-112 8,-144 165,-144 165,-112 8,-112"/>
</g>
<g id="clust2" class="cluster">
<title>cluster_1</title>
<polygon fill="transparent" stroke="black" stroke-width="2" points="38,-60 38,-92 130,-92 130,-60 38,-60"/>
</g>
<g id="clust3" class="cluster">
<title>cluster_2</title>
<polygon fill="transparent" stroke="black" stroke-dasharray="1,5" points="36,-8 36,-40 132,-40 132,-8 36,-8"/>
</g>
<!-- c_0_82 -->
<g id="node1" class="node">
<title>c_0_82</title>
<g id="a_node1"><a xlink:href="c_0_82.html" xlink:title="{&#45;(Z₁) ∈ ℂ}" target="_vizar">
<polygon fill="#f8edd1" stroke="#7f7542" points="95.5,-120.5 95.5,-135.5 156.5,-135.5 156.5,-120.5 95.5,-120.5"/>
<text text-anchor="middle" x="126" y="-124.3" font-family="Times,serif" font-size="14.00">&#45;(Z₁) ∈ ℂ</text>
</a>
</g>
</g>
<!-- c_0_112 -->
<g id="node3" class="node">
<title>c_0_112</title>
<g id="a_node3"><a xlink:href="c_0_112.html" xlink:title="{&#45;(&#45;(Z₁)) ∈ ℂ}" target="_vizar">
<polygon fill="#f8edd1" stroke="#7f7542" points="46,-68.5 46,-83.5 122,-83.5 122,-68.5 46,-68.5"/>
<text text-anchor="middle" x="84" y="-72.3" font-family="Times,serif" font-size="14.00">&#45;(&#45;(Z₁)) ∈ ℂ</text>
</a>
</g>
</g>
<!-- c_0_82&#45;&gt;c_0_112 -->
<g id="edge1" class="edge">
<title>c_0_82&#45;&gt;c_0_112</title>
<path fill="none" stroke="black" d="M108.75,-120.33C108.75,-120.33 108.75,-93.7 108.75,-93.7"/>
<polygon fill="black" stroke="black" points="112.25,-93.7 108.75,-83.7 105.25,-93.7 112.25,-93.7"/>
</g>
<!-- c_0_83 -->
<g id="node2" class="node">
<title>c_0_83</title>
<g id="a_node2"><a xlink:href="c_0_83.html" xlink:title="{&#45;(Z₁) ∈ ℤ}" target="_vizar">
<polygon fill="#f8edd1" stroke="#7f7542" points="16.5,-120.5 16.5,-135.5 77.5,-135.5 77.5,-120.5 16.5,-120.5"/>
<text text-anchor="middle" x="47" y="-124.3" font-family="Times,serif" font-size="14.00">&#45;(Z₁) ∈ ℤ</text>
</a>
</g>
</g>
<!-- c_0_83&#45;&gt;c_0_112 -->
<g id="edge2" class="edge">
<title>c_0_83&#45;&gt;c_0_112</title>
<path fill="none" stroke="black" d="M61.75,-120.33C61.75,-120.33 61.75,-93.7 61.75,-93.7"/>
<polygon fill="black" stroke="black" points="65.25,-93.7 61.75,-83.7 58.25,-93.7 65.25,-93.7"/>
</g>
<!-- c_0_127 -->
<g id="node4" class="node">
<title>c_0_127</title>
<g id="a_node4"><a xlink:href="c_0_127.html" xlink:title="{&#45;(&#45;(N₁)) ∈ ℂ}" target="_vizar">
<polygon fill="#f8edd1" stroke="#7f7542" points="44.5,-16.5 44.5,-31.5 123.5,-31.5 123.5,-16.5 44.5,-16.5"/>
<text text-anchor="middle" x="84" y="-20.3" font-family="Times,serif" font-size="14.00">&#45;(&#45;(N₁)) ∈ ℂ</text>
</a>
</g>
</g>
<!-- c_0_112&#45;&gt;c_0_127 -->
<g id="edge3" class="edge">
<title>c_0_112&#45;&gt;c_0_127</title>
<path fill="none" stroke="black" stroke-dasharray="5,2" d="M84,-68.33C84,-68.33 84,-41.7 84,-41.7"/>
<polygon fill="black" stroke="black" points="87.5,-41.7 84,-31.7 80.5,-41.7 87.5,-41.7"/>
</g>
</g>
</svg>
