<?xml version="1.0" encoding="UTF-8" standalone="no"?>
<!DOCTYPE svg PUBLIC "-//W3C//DTD SVG 1.1//EN"
 "http://www.w3.org/Graphics/SVG/1.1/DTD/svg11.dtd">
<!-- Generated by graphviz version 5.0.0 (0)
 -->
<!-- Title: proof Pages: 1 -->
<svg width="690pt" height="160pt"
 viewBox="0.00 0.00 690.00 160.00" xmlns="http://www.w3.org/2000/svg" xmlns:xlink="http://www.w3.org/1999/xlink">
<g id="graph0" class="graph" transform="scale(1 1) rotate(0) translate(4 156)">
<title>proof</title>
<g id="clust1" class="cluster">
<title>cluster_0</title>
<polygon fill="transparent" stroke="black" stroke-dasharray="1,5" points="256,-112 256,-144 426,-144 426,-112 256,-112"/>
</g>
<g id="clust2" class="cluster">
<title>cluster_1</title>
<polygon fill="transparent" stroke="black" stroke-width="2" points="266,-60 266,-92 416,-92 416,-60 266,-60"/>
</g>
<g id="clust3" class="cluster">
<title>cluster_2</title>
<polygon fill="transparent" stroke="black" stroke-dasharray="1,5" points="8,-8 8,-40 674,-40 674,-8 8,-8"/>
</g>
<!-- redefinition_k1_nat_1 -->
<g id="node1" class="node">
<title>redefinition_k1_nat_1</title>
<g id="a_node1"><a xlink:href="redefinition_k1_nat_1.html" xlink:title="redefinition_k1_nat_1" target="_vizar">
<polygon fill="#69d2e7" stroke="#7f7542" points="264.5,-120.5 264.5,-135.5 417.5,-135.5 417.5,-120.5 264.5,-120.5"/>
<text text-anchor="middle" x="341" y="-124.3" font-family="Times,serif" font-size="14.00">redefinition_k1_nat_1</text>
</a>
</g>
</g>
<!-- c_0_38 -->
<g id="node2" class="node">
<title>c_0_38</title>
<g id="a_node2"><a xlink:href="c_0_38.html" xlink:title="{N₁ + N₂ = N₁ + N₂}" target="_vizar">
<polygon fill="#f8edd1" stroke="#7f7542" points="274.5,-68.5 274.5,-83.5 407.5,-83.5 407.5,-68.5 274.5,-68.5"/>
<text text-anchor="middle" x="341" y="-72.3" font-family="Times,serif" font-size="14.00">N₁ + N₂ = N₁ + N₂</text>
</a>
</g>
</g>
<!-- redefinition_k1_nat_1&#45;&gt;c_0_38 -->
<g id="edge1" class="edge">
<title>redefinition_k1_nat_1&#45;&gt;c_0_38</title>
<path fill="none" stroke="black" d="M341,-120.33C341,-120.33 341,-93.7 341,-93.7"/>
<polygon fill="black" stroke="black" points="344.5,-93.7 341,-83.7 337.5,-93.7 344.5,-93.7"/>
</g>
<!-- c_0_58 -->
<g id="node3" class="node">
<title>c_0_58</title>
<g id="a_node3"><a xlink:href="c_0_58.html" xlink:title="{(τ⁺ ^ sk₁) + (τ⁺ ^ (sk₁ + 1)) ≠ τ⁺ ^ (sk₁ + 2)}" target="_vizar">
<polygon fill="#fa6900" stroke="#7f7542" points="350,-16.5 350,-31.5 666,-31.5 666,-16.5 350,-16.5"/>
<text text-anchor="middle" x="508" y="-20.3" font-family="Times,serif" font-size="14.00">(τ⁺ ^ sk₁) + (τ⁺ ^ (sk₁ + 1)) ≠ τ⁺ ^ (sk₁ + 2)</text>
</a>
</g>
</g>
<!-- c_0_38&#45;&gt;c_0_58 -->
<g id="edge2" class="edge">
<title>c_0_38&#45;&gt;c_0_58</title>
<path fill="none" stroke="black" stroke-dasharray="5,2" d="M378.75,-68.33C378.75,-68.33 378.75,-41.7 378.75,-41.7"/>
<polygon fill="black" stroke="black" points="382.25,-41.7 378.75,-31.7 375.25,-41.7 382.25,-41.7"/>
</g>
<!-- c_0_51 -->
<g id="node4" class="node">
<title>c_0_51</title>
<g id="a_node4"><a xlink:href="c_0_51.html" xlink:title="{τ⁺ ^ (sk₁ + 2) ≠ (τ⁺ ^ sk₁) + (τ⁺ ^ (sk₁ + 1))}" target="_vizar">
<polygon fill="#fa6900" stroke="#7f7542" points="16,-16.5 16,-31.5 332,-31.5 332,-16.5 16,-16.5"/>
<text text-anchor="middle" x="174" y="-20.3" font-family="Times,serif" font-size="14.00">τ⁺ ^ (sk₁ + 2) ≠ (τ⁺ ^ sk₁) + (τ⁺ ^ (sk₁ + 1))</text>
</a>
</g>
</g>
<!-- c_0_38&#45;&gt;c_0_51 -->
<g id="edge3" class="edge">
<title>c_0_38&#45;&gt;c_0_51</title>
<path fill="none" stroke="black" stroke-dasharray="5,2" d="M303.25,-68.33C303.25,-68.33 303.25,-41.7 303.25,-41.7"/>
<polygon fill="black" stroke="black" points="306.75,-41.7 303.25,-31.7 299.75,-41.7 306.75,-41.7"/>
</g>
</g>
</svg>
