<?xml version="1.0" encoding="UTF-8" standalone="no"?>
<!DOCTYPE svg PUBLIC "-//W3C//DTD SVG 1.1//EN"
 "http://www.w3.org/Graphics/SVG/1.1/DTD/svg11.dtd">
<!-- Generated by graphviz version 5.0.0 (0)
 -->
<!-- Title: proof Pages: 1 -->
<svg width="774pt" height="160pt"
 viewBox="0.00 0.00 774.00 160.00" xmlns="http://www.w3.org/2000/svg" xmlns:xlink="http://www.w3.org/1999/xlink">
<g id="graph0" class="graph" transform="scale(1 1) rotate(0) translate(4 156)">
<title>proof</title>
<g id="clust1" class="cluster">
<title>cluster_0</title>
<polygon fill="transparent" stroke="black" stroke-dasharray="1,5" points="8,-112 8,-144 758,-144 758,-112 8,-112"/>
</g>
<g id="clust2" class="cluster">
<title>cluster_1</title>
<polygon fill="transparent" stroke="black" stroke-width="2" points="19,-60 19,-92 629,-92 629,-60 19,-60"/>
</g>
<g id="clust3" class="cluster">
<title>cluster_2</title>
<polygon fill="transparent" stroke="black" stroke-dasharray="1,5" points="43,-8 43,-40 605,-40 605,-8 43,-8"/>
</g>
<!-- c_0_109 -->
<g id="node1" class="node">
<title>c_0_109</title>
<g id="a_node1"><a xlink:href="c_0_109.html" xlink:title="{to_power(tau,sk₁) + (to_power(tau,sk₁) * tau) ≠ to_power(tau,2) * to_power(tau,sk₁)}" target="_parent">
<polygon fill="#fa6900" stroke="#7f7542" points="156,-120.5 156,-135.5 750,-135.5 750,-120.5 156,-120.5"/>
<text text-anchor="middle" x="453" y="-124.3" font-family="Times,serif" font-size="14.00">to_power(tau,sk₁) + (to_power(tau,sk₁) * tau) ≠ to_power(tau,2) * to_power(tau,sk₁)</text>
</a>
</g>
</g>
<!-- c_0_125 -->
<g id="node3" class="node">
<title>c_0_125</title>
<g id="a_node3"><a xlink:href="c_0_125.html" xlink:title="{to_power(tau,2) * to_power(tau,sk₁) ≠ to_power(tau,sk₁) + (tau * to_power(tau,sk₁))}" target="_parent">
<polygon fill="#fa6900" stroke="#7f7542" points="27,-68.5 27,-83.5 621,-83.5 621,-68.5 27,-68.5"/>
<text text-anchor="middle" x="324" y="-72.3" font-family="Times,serif" font-size="14.00">to_power(tau,2) * to_power(tau,sk₁) ≠ to_power(tau,sk₁) + (tau * to_power(tau,sk₁))</text>
</a>
</g>
</g>
<!-- c_0_109&#45;&gt;c_0_125 -->
<g id="edge1" class="edge">
<title>c_0_109&#45;&gt;c_0_125</title>
<path fill="none" stroke="black" d="M388.5,-120.33C388.5,-120.33 388.5,-93.7 388.5,-93.7"/>
<polygon fill="black" stroke="black" points="392,-93.7 388.5,-83.7 385,-93.7 392,-93.7"/>
</g>
<!-- c_0_94 -->
<g id="node2" class="node">
<title>c_0_94</title>
<g id="a_node2"><a xlink:href="c_0_94.html" xlink:title="{N₁ * N₂ = N₂ * N₁}" target="_parent">
<polygon fill="#f8edd1" stroke="#7f7542" points="16,-120.5 16,-135.5 138,-135.5 138,-120.5 16,-120.5"/>
<text text-anchor="middle" x="77" y="-124.3" font-family="Times,serif" font-size="14.00">N₁ * N₂ = N₂ * N₁</text>
</a>
</g>
</g>
<!-- c_0_94&#45;&gt;c_0_125 -->
<g id="edge2" class="edge">
<title>c_0_94&#45;&gt;c_0_125</title>
<path fill="none" stroke="black" d="M82.5,-120.33C82.5,-120.33 82.5,-93.7 82.5,-93.7"/>
<polygon fill="black" stroke="black" points="86,-93.7 82.5,-83.7 79,-93.7 86,-93.7"/>
</g>
<!-- c_0_138 -->
<g id="node4" class="node">
<title>c_0_138</title>
<g id="a_node4"><a xlink:href="c_0_138.html" xlink:title="{( ^2 tau) * to_power(tau,sk₁) ≠ to_power(tau,sk₁) + (tau * to_power(tau,sk₁))}" target="_parent">
<polygon fill="#fa6900" stroke="#7f7542" points="51.5,-16.5 51.5,-31.5 596.5,-31.5 596.5,-16.5 51.5,-16.5"/>
<text text-anchor="middle" x="324" y="-20.3" font-family="Times,serif" font-size="14.00">( ^2 tau) * to_power(tau,sk₁) ≠ to_power(tau,sk₁) + (tau * to_power(tau,sk₁))</text>
</a>
</g>
</g>
<!-- c_0_125&#45;&gt;c_0_138 -->
<g id="edge3" class="edge">
<title>c_0_125&#45;&gt;c_0_138</title>
<path fill="none" stroke="black" stroke-dasharray="5,2" d="M324,-68.33C324,-68.33 324,-41.7 324,-41.7"/>
<polygon fill="black" stroke="black" points="327.5,-41.7 324,-31.7 320.5,-41.7 327.5,-41.7"/>
</g>
</g>
</svg>
