<?xml version="1.0" encoding="UTF-8" standalone="no"?>
<!DOCTYPE svg PUBLIC "-//W3C//DTD SVG 1.1//EN"
 "http://www.w3.org/Graphics/SVG/1.1/DTD/svg11.dtd">
<!-- Generated by graphviz version 5.0.0 (0)
 -->
<!-- Title: proof Pages: 1 -->
<svg width="1149pt" height="160pt"
 viewBox="0.00 0.00 1149.00 160.00" xmlns="http://www.w3.org/2000/svg" xmlns:xlink="http://www.w3.org/1999/xlink">
<g id="graph0" class="graph" transform="scale(1 1) rotate(0) translate(4 156)">
<title>proof</title>
<g id="clust1" class="cluster">
<title>cluster_0</title>
<polygon fill="transparent" stroke="black" stroke-dasharray="1,5" points="8,-112 8,-144 1133,-144 1133,-112 8,-112"/>
</g>
<g id="clust2" class="cluster">
<title>cluster_1</title>
<polygon fill="transparent" stroke="black" stroke-width="2" points="52,-60 52,-92 654,-92 654,-60 52,-60"/>
</g>
<g id="clust3" class="cluster">
<title>cluster_2</title>
<polygon fill="transparent" stroke="black" stroke-dasharray="1,5" points="52,-8 52,-40 654,-40 654,-8 52,-8"/>
</g>
<!-- c_0_58 -->
<g id="node1" class="node">
<title>c_0_58</title>
<g id="a_node1"><a xlink:href="c_0_58.html" xlink:title="{to_power(tau,sk₁) + to_power(tau,sk₁ + 1) ≠ to_power(tau,sk₁ + 2)}" target="_parent">
<polygon fill="#fa6900" stroke="#7f7542" points="649,-120.5 649,-135.5 1125,-135.5 1125,-120.5 649,-120.5"/>
<text text-anchor="middle" x="887" y="-124.3" font-family="Times,serif" font-size="14.00">to_power(tau,sk₁) + to_power(tau,sk₁ + 1) ≠ to_power(tau,sk₁ + 2)</text>
</a>
</g>
</g>
<!-- c_0_65 -->
<g id="node6" class="node">
<title>c_0_65</title>
<g id="a_node6"><a xlink:href="c_0_65.html" xlink:title="{to_power(tau,sk₁ + 2) ≠ to_power(tau,sk₁) + (to_power(tau,sk₁) * to_power(tau,1))}" target="_parent">
<polygon fill="#fa6900" stroke="#7f7542" points="60.5,-68.5 60.5,-83.5 645.5,-83.5 645.5,-68.5 60.5,-68.5"/>
<text text-anchor="middle" x="353" y="-72.3" font-family="Times,serif" font-size="14.00">to_power(tau,sk₁ + 2) ≠ to_power(tau,sk₁) + (to_power(tau,sk₁) * to_power(tau,1))</text>
</a>
</g>
</g>
<!-- c_0_58&#45;&gt;c_0_65 -->
<g id="edge1" class="edge">
<title>c_0_58&#45;&gt;c_0_65</title>
<path fill="none" stroke="black" d="M648.7,-128C641.89,-128 638,-128 638,-128 638,-128 638,-93.67 638,-93.67"/>
<polygon fill="black" stroke="black" points="641.5,-93.67 638,-83.67 634.5,-93.67 641.5,-93.67"/>
</g>
<!-- c_0_54 -->
<g id="node2" class="node">
<title>c_0_54</title>
<g id="a_node2"><a xlink:href="c_0_54.html" xlink:title="{tau ∈ ℝ}" target="_parent">
<polygon fill="#f8edd1" stroke="#7f7542" points="575.5,-120.5 575.5,-135.5 630.5,-135.5 630.5,-120.5 575.5,-120.5"/>
<text text-anchor="middle" x="603" y="-124.3" font-family="Times,serif" font-size="14.00">tau ∈ ℝ</text>
</a>
</g>
</g>
<!-- c_0_54&#45;&gt;c_0_65 -->
<g id="edge2" class="edge">
<title>c_0_54&#45;&gt;c_0_65</title>
<path fill="none" stroke="black" d="M603,-120.33C603,-120.33 603,-93.7 603,-93.7"/>
<polygon fill="black" stroke="black" points="606.5,-93.7 603,-83.7 599.5,-93.7 606.5,-93.7"/>
</g>
<!-- c_0_53 -->
<g id="node3" class="node">
<title>c_0_53</title>
<g id="a_node3"><a xlink:href="c_0_53.html" xlink:title="{to_power(R₃,C₁ + C₂) = to_power(R₃,C₁) * to_power(R₃,C₂)}" target="_parent">
<polygon fill="#f8edd1" stroke="#7f7542" points="148.5,-120.5 148.5,-135.5 557.5,-135.5 557.5,-120.5 148.5,-120.5"/>
<text text-anchor="middle" x="353" y="-124.3" font-family="Times,serif" font-size="14.00">to_power(R₃,C₁ + C₂) = to_power(R₃,C₁) * to_power(R₃,C₂)</text>
</a>
</g>
</g>
<!-- c_0_53&#45;&gt;c_0_65 -->
<g id="edge3" class="edge">
<title>c_0_53&#45;&gt;c_0_65</title>
<path fill="none" stroke="black" d="M353,-120.33C353,-120.33 353,-93.7 353,-93.7"/>
<polygon fill="black" stroke="black" points="356.5,-93.7 353,-83.7 349.5,-93.7 356.5,-93.7"/>
</g>
<!-- c_0_39 -->
<g id="node4" class="node">
<title>c_0_39</title>
<g id="a_node4"><a xlink:href="c_0_39.html" xlink:title="{1 ∈ ℕ}" target="_parent">
<polygon fill="#f8edd1" stroke="#7f7542" points="88,-120.5 88,-135.5 130,-135.5 130,-120.5 88,-120.5"/>
<text text-anchor="middle" x="109" y="-124.3" font-family="Times,serif" font-size="14.00">1 ∈ ℕ</text>
</a>
</g>
</g>
<!-- c_0_39&#45;&gt;c_0_65 -->
<g id="edge4" class="edge">
<title>c_0_39&#45;&gt;c_0_65</title>
<path fill="none" stroke="black" d="M109,-120.33C109,-120.33 109,-93.7 109,-93.7"/>
<polygon fill="black" stroke="black" points="112.5,-93.7 109,-83.7 105.5,-93.7 112.5,-93.7"/>
</g>
<!-- c_0_40 -->
<g id="node5" class="node">
<title>c_0_40</title>
<g id="a_node5"><a xlink:href="c_0_40.html" xlink:title="{sk₁ ∈ ℕ}" target="_parent">
<polygon fill="#fa6900" stroke="#7f7542" points="16,-120.5 16,-135.5 70,-135.5 70,-120.5 16,-120.5"/>
<text text-anchor="middle" x="43" y="-124.3" font-family="Times,serif" font-size="14.00">sk₁ ∈ ℕ</text>
</a>
</g>
</g>
<!-- c_0_40&#45;&gt;c_0_65 -->
<g id="edge5" class="edge">
<title>c_0_40&#45;&gt;c_0_65</title>
<path fill="none" stroke="black" d="M65.25,-120.33C65.25,-120.33 65.25,-93.7 65.25,-93.7"/>
<polygon fill="black" stroke="black" points="68.75,-93.7 65.25,-83.7 61.75,-93.7 68.75,-93.7"/>
</g>
<!-- c_0_70 -->
<g id="node7" class="node">
<title>c_0_70</title>
<g id="a_node7"><a xlink:href="c_0_70.html" xlink:title="{to_power(tau,2 + sk₁) ≠ to_power(tau,sk₁) + (to_power(tau,sk₁) * to_power(tau,1))}" target="_parent">
<polygon fill="#fa6900" stroke="#7f7542" points="60.5,-16.5 60.5,-31.5 645.5,-31.5 645.5,-16.5 60.5,-16.5"/>
<text text-anchor="middle" x="353" y="-20.3" font-family="Times,serif" font-size="14.00">to_power(tau,2 + sk₁) ≠ to_power(tau,sk₁) + (to_power(tau,sk₁) * to_power(tau,1))</text>
</a>
</g>
</g>
<!-- c_0_65&#45;&gt;c_0_70 -->
<g id="edge6" class="edge">
<title>c_0_65&#45;&gt;c_0_70</title>
<path fill="none" stroke="black" stroke-dasharray="5,2" d="M353,-68.33C353,-68.33 353,-41.7 353,-41.7"/>
<polygon fill="black" stroke="black" points="356.5,-41.7 353,-31.7 349.5,-41.7 356.5,-41.7"/>
</g>
</g>
</svg>
