<?xml version="1.0" encoding="UTF-8" standalone="no"?>
<!DOCTYPE svg PUBLIC "-//W3C//DTD SVG 1.1//EN"
 "http://www.w3.org/Graphics/SVG/1.1/DTD/svg11.dtd">
<!-- Generated by graphviz version 5.0.0 (0)
 -->
<!-- Title: proof Pages: 1 -->
<svg width="216pt" height="190pt"
 viewBox="0.00 0.00 216.00 190.00" xmlns="http://www.w3.org/2000/svg" xmlns:xlink="http://www.w3.org/1999/xlink">
<g id="graph0" class="graph" transform="scale(1 1) rotate(0) translate(4 186)">
<title>proof</title>
<g id="clust1" class="cluster">
<title>cluster_0</title>
<polygon fill="transparent" stroke="black" stroke-dasharray="1,5" points="8,-112 8,-174 200,-174 200,-112 8,-112"/>
</g>
<g id="clust2" class="cluster">
<title>cluster_1</title>
<polygon fill="transparent" stroke="black" stroke-width="2" points="64,-60 64,-92 144,-92 144,-60 64,-60"/>
</g>
<g id="clust3" class="cluster">
<title>cluster_2</title>
<polygon fill="transparent" stroke="black" stroke-dasharray="1,5" points="69,-8 69,-40 139,-40 139,-8 69,-8"/>
</g>
<!-- c_0_167 -->
<g id="node1" class="node">
<title>c_0_167</title>
<g id="a_node1"><a xlink:href="c_0_167.html" xlink:title="{integer(X₁)|⇊|&#45;(X₁) ∈ ℝ}" target="_vizar">
<polygon fill="#f8edd1" stroke="#7f7542" points="114,-120.5 114,-165.5 192,-165.5 192,-120.5 114,-120.5"/>
<text text-anchor="middle" x="153" y="-154.3" font-family="Times,serif" font-size="14.00">integer(X₁)</text>
<polyline fill="none" stroke="#7f7542" points="114,-150.5 192,-150.5 "/>
<text text-anchor="middle" x="153" y="-139.3" font-family="Times,serif" font-size="14.00">⇊</text>
<polyline fill="none" stroke="#7f7542" points="114,-135.5 192,-135.5 "/>
<text text-anchor="middle" x="153" y="-124.3" font-family="Times,serif" font-size="14.00">&#45;(X₁) ∈ ℝ</text>
</a>
</g>
</g>
<!-- c_0_171 -->
<g id="node3" class="node">
<title>c_0_171</title>
<g id="a_node3"><a xlink:href="c_0_171.html" xlink:title="{&#45;(N₁) ∈ ℝ}" target="_vizar">
<polygon fill="#f8edd1" stroke="#7f7542" points="72,-68.5 72,-83.5 136,-83.5 136,-68.5 72,-68.5"/>
<text text-anchor="middle" x="104" y="-72.3" font-family="Times,serif" font-size="14.00">&#45;(N₁) ∈ ℝ</text>
</a>
</g>
</g>
<!-- c_0_167&#45;&gt;c_0_171 -->
<g id="edge1" class="edge">
<title>c_0_167&#45;&gt;c_0_171</title>
<path fill="none" stroke="black" d="M125,-120.32C125,-120.32 125,-93.59 125,-93.59"/>
<polygon fill="black" stroke="black" points="128.5,-93.59 125,-83.59 121.5,-93.59 128.5,-93.59"/>
</g>
<!-- c_0_98 -->
<g id="node2" class="node">
<title>c_0_98</title>
<g id="a_node2"><a xlink:href="c_0_98.html" xlink:title="{integer(N₁)}" target="_vizar">
<polygon fill="#f8edd1" stroke="#7f7542" points="16,-135.5 16,-150.5 96,-150.5 96,-135.5 16,-135.5"/>
<text text-anchor="middle" x="56" y="-139.3" font-family="Times,serif" font-size="14.00">integer(N₁)</text>
</a>
</g>
</g>
<!-- c_0_98&#45;&gt;c_0_171 -->
<g id="edge2" class="edge">
<title>c_0_98&#45;&gt;c_0_171</title>
<path fill="none" stroke="black" d="M84,-135.31C84,-135.31 84,-93.6 84,-93.6"/>
<polygon fill="black" stroke="black" points="87.5,-93.6 84,-83.6 80.5,-93.6 87.5,-93.6"/>
</g>
<!-- c_0_170 -->
<g id="node4" class="node">
<title>c_0_170</title>
<g id="a_node4"><a xlink:href="c_0_170.html" xlink:title="{sk₁ ∈ ℝ}" target="_vizar">
<polygon fill="#fa6900" stroke="#7f7542" points="77.5,-16.5 77.5,-31.5 130.5,-31.5 130.5,-16.5 77.5,-16.5"/>
<text text-anchor="middle" x="104" y="-20.3" font-family="Times,serif" font-size="14.00">sk₁ ∈ ℝ</text>
</a>
</g>
</g>
<!-- c_0_171&#45;&gt;c_0_170 -->
<g id="edge3" class="edge">
<title>c_0_171&#45;&gt;c_0_170</title>
<path fill="none" stroke="black" stroke-dasharray="5,2" d="M104,-68.33C104,-68.33 104,-41.7 104,-41.7"/>
<polygon fill="black" stroke="black" points="107.5,-41.7 104,-31.7 100.5,-41.7 107.5,-41.7"/>
</g>
</g>
</svg>
