<?xml version="1.0" encoding="UTF-8" standalone="no"?>
<!DOCTYPE svg PUBLIC "-//W3C//DTD SVG 1.1//EN"
 "http://www.w3.org/Graphics/SVG/1.1/DTD/svg11.dtd">
<!-- Generated by graphviz version 5.0.0 (0)
 -->
<!-- Title: proof Pages: 1 -->
<svg width="199pt" height="160pt"
 viewBox="0.00 0.00 199.00 160.00" xmlns="http://www.w3.org/2000/svg" xmlns:xlink="http://www.w3.org/1999/xlink">
<g id="graph0" class="graph" transform="scale(1 1) rotate(0) translate(4 156)">
<title>proof</title>
<g id="clust1" class="cluster">
<title>cluster_0</title>
<polygon fill="transparent" stroke="black" stroke-dasharray="1,5" points="51,-112 51,-144 135,-144 135,-112 51,-112"/>
</g>
<g id="clust2" class="cluster">
<title>cluster_1</title>
<polygon fill="transparent" stroke="black" stroke-width="2" points="45,-60 45,-92 141,-92 141,-60 45,-60"/>
</g>
<g id="clust3" class="cluster">
<title>cluster_2</title>
<polygon fill="transparent" stroke="black" stroke-dasharray="1,5" points="8,-8 8,-40 183,-40 183,-8 8,-8"/>
</g>
<!-- cc2_int_1 -->
<g id="node1" class="node">
<title>cc2_int_1</title>
<g id="a_node1"><a xlink:href="cc2_int_1.html" xlink:title="cc2_int_1" target="_parent">
<polygon fill="#69d2e7" stroke="#7f7542" points="59.5,-120.5 59.5,-135.5 126.5,-135.5 126.5,-120.5 59.5,-120.5"/>
<text text-anchor="middle" x="93" y="-124.3" font-family="Times,serif" font-size="14.00">cc2_int_1</text>
</a>
</g>
</g>
<!-- c_0_98 -->
<g id="node2" class="node">
<title>c_0_98</title>
<g id="a_node2"><a xlink:href="c_0_98.html" xlink:title="{integer(C₁)}" target="_parent">
<polygon fill="#f8edd1" stroke="#7f7542" points="53.5,-68.5 53.5,-83.5 132.5,-83.5 132.5,-68.5 53.5,-68.5"/>
<text text-anchor="middle" x="93" y="-72.3" font-family="Times,serif" font-size="14.00">integer(C₁)</text>
</a>
</g>
</g>
<!-- cc2_int_1&#45;&gt;c_0_98 -->
<g id="edge1" class="edge">
<title>cc2_int_1&#45;&gt;c_0_98</title>
<path fill="none" stroke="black" d="M93,-120.33C93,-120.33 93,-93.7 93,-93.7"/>
<polygon fill="black" stroke="black" points="96.5,-93.7 93,-83.7 89.5,-93.7 96.5,-93.7"/>
</g>
<!-- c_0_127 -->
<g id="node3" class="node">
<title>c_0_127</title>
<g id="a_node3"><a xlink:href="c_0_127.html" xlink:title="{&#45;(&#45;(C₁)) ∈ ℂ}" target="_parent">
<polygon fill="#f8edd1" stroke="#7f7542" points="97.5,-16.5 97.5,-31.5 174.5,-31.5 174.5,-16.5 97.5,-16.5"/>
<text text-anchor="middle" x="136" y="-20.3" font-family="Times,serif" font-size="14.00">&#45;(&#45;(C₁)) ∈ ℂ</text>
</a>
</g>
</g>
<!-- c_0_98&#45;&gt;c_0_127 -->
<g id="edge2" class="edge">
<title>c_0_98&#45;&gt;c_0_127</title>
<path fill="none" stroke="black" stroke-dasharray="5,2" d="M115,-68.33C115,-68.33 115,-41.7 115,-41.7"/>
<polygon fill="black" stroke="black" points="118.5,-41.7 115,-31.7 111.5,-41.7 118.5,-41.7"/>
</g>
<!-- c_0_171 -->
<g id="node4" class="node">
<title>c_0_171</title>
<g id="a_node4"><a xlink:href="c_0_171.html" xlink:title="{&#45;(C₁) ∈ ℝ}" target="_parent">
<polygon fill="#f8edd1" stroke="#7f7542" points="16.5,-16.5 16.5,-31.5 79.5,-31.5 79.5,-16.5 16.5,-16.5"/>
<text text-anchor="middle" x="48" y="-20.3" font-family="Times,serif" font-size="14.00">&#45;(C₁) ∈ ℝ</text>
</a>
</g>
</g>
<!-- c_0_98&#45;&gt;c_0_171 -->
<g id="edge3" class="edge">
<title>c_0_98&#45;&gt;c_0_171</title>
<path fill="none" stroke="black" stroke-dasharray="5,2" d="M66.5,-68.33C66.5,-68.33 66.5,-41.7 66.5,-41.7"/>
<polygon fill="black" stroke="black" points="70,-41.7 66.5,-31.7 63,-41.7 70,-41.7"/>
</g>
</g>
</svg>
