<?xml version="1.0" encoding="UTF-8" standalone="no"?>
<!DOCTYPE svg PUBLIC "-//W3C//DTD SVG 1.1//EN"
 "http://www.w3.org/Graphics/SVG/1.1/DTD/svg11.dtd">
<!-- Generated by graphviz version 5.0.0 (0)
 -->
<!-- Title: proof Pages: 1 -->
<svg width="1120pt" height="190pt"
 viewBox="0.00 0.00 1120.00 190.00" xmlns="http://www.w3.org/2000/svg" xmlns:xlink="http://www.w3.org/1999/xlink">
<g id="graph0" class="graph" transform="scale(1 1) rotate(0) translate(4 186)">
<title>proof</title>
<g id="clust1" class="cluster">
<title>cluster_0</title>
<polygon fill="transparent" stroke="black" stroke-dasharray="1,5" points="503,-112 503,-174 693,-174 693,-112 503,-112"/>
</g>
<g id="clust2" class="cluster">
<title>cluster_1</title>
<polygon fill="transparent" stroke="black" stroke-width="2" points="554,-60 554,-92 612,-92 612,-60 554,-60"/>
</g>
<g id="clust3" class="cluster">
<title>cluster_2</title>
<polygon fill="transparent" stroke="black" stroke-dasharray="1,5" points="8,-8 8,-40 1104,-40 1104,-8 8,-8"/>
</g>
<!-- spc1_numerals -->
<g id="node1" class="node">
<title>spc1_numerals</title>
<g id="a_node1"><a xlink:href="spc1_numerals.html" xlink:title="spc1_numerals" target="_parent">
<polygon fill="#69d2e7" stroke="#7f7542" points="577.5,-135.5 577.5,-150.5 684.5,-150.5 684.5,-135.5 577.5,-135.5"/>
<text text-anchor="middle" x="631" y="-139.3" font-family="Times,serif" font-size="14.00">spc1_numerals</text>
</a>
</g>
</g>
<!-- c_0_39 -->
<g id="node3" class="node">
<title>c_0_39</title>
<g id="a_node3"><a xlink:href="c_0_39.html" xlink:title="{1 ∈ ℕ}" target="_parent">
<polygon fill="#f8edd1" stroke="#7f7542" points="562,-68.5 562,-83.5 604,-83.5 604,-68.5 562,-68.5"/>
<text text-anchor="middle" x="583" y="-72.3" font-family="Times,serif" font-size="14.00">1 ∈ ℕ</text>
</a>
</g>
</g>
<!-- spc1_numerals&#45;&gt;c_0_39 -->
<g id="edge1" class="edge">
<title>spc1_numerals&#45;&gt;c_0_39</title>
<path fill="none" stroke="black" d="M590.75,-135.31C590.75,-135.31 590.75,-93.6 590.75,-93.6"/>
<polygon fill="black" stroke="black" points="594.25,-93.6 590.75,-83.6 587.25,-93.6 594.25,-93.6"/>
</g>
<!-- c_0_55 -->
<g id="node2" class="node">
<title>c_0_55</title>
<g id="a_node2"><a xlink:href="c_0_55.html" xlink:title="{X₁ ∈ ℕ|⇊|X₁ ∈ ℕ}" target="_parent">
<polygon fill="#f8edd1" stroke="#7f7542" points="511,-120.5 511,-165.5 559,-165.5 559,-120.5 511,-120.5"/>
<text text-anchor="middle" x="535" y="-154.3" font-family="Times,serif" font-size="14.00">X₁ ∈ ℕ</text>
<polyline fill="none" stroke="#7f7542" points="511,-150.5 559,-150.5 "/>
<text text-anchor="middle" x="535" y="-139.3" font-family="Times,serif" font-size="14.00">⇊</text>
<polyline fill="none" stroke="#7f7542" points="511,-135.5 559,-135.5 "/>
<text text-anchor="middle" x="535" y="-124.3" font-family="Times,serif" font-size="14.00">X₁ ∈ ℕ</text>
</a>
</g>
</g>
<!-- c_0_55&#45;&gt;c_0_39 -->
<g id="edge2" class="edge">
<title>c_0_55&#45;&gt;c_0_39</title>
<path fill="none" stroke="black" d="M559.14,-127C565.06,-127 569.75,-127 569.75,-127 569.75,-127 569.75,-93.53 569.75,-93.53"/>
<polygon fill="black" stroke="black" points="573.25,-93.53 569.75,-83.53 566.25,-93.53 573.25,-93.53"/>
</g>
<!-- c_0_51 -->
<g id="node4" class="node">
<title>c_0_51</title>
<g id="a_node4"><a xlink:href="c_0_51.html" xlink:title="{to_power(tau,sk₁ + 2) ≠ to_power(tau,sk₁) + to_power(tau,sk₁ + 1)}" target="_parent">
<polygon fill="#fa6900" stroke="#7f7542" points="620,-16.5 620,-31.5 1096,-31.5 1096,-16.5 620,-16.5"/>
<text text-anchor="middle" x="858" y="-20.3" font-family="Times,serif" font-size="14.00">to_power(tau,sk₁ + 2) ≠ to_power(tau,sk₁) + to_power(tau,sk₁ + 1)</text>
</a>
</g>
</g>
<!-- c_0_39&#45;&gt;c_0_51 -->
<g id="edge3" class="edge">
<title>c_0_39&#45;&gt;c_0_51</title>
<path fill="none" stroke="black" stroke-dasharray="5,2" d="M604.15,-76C624.52,-76 652.25,-76 652.25,-76 652.25,-76 652.25,-41.67 652.25,-41.67"/>
<polygon fill="black" stroke="black" points="655.75,-41.67 652.25,-31.67 648.75,-41.67 655.75,-41.67"/>
</g>
<!-- c_0_65 -->
<g id="node5" class="node">
<title>c_0_65</title>
<g id="a_node5"><a xlink:href="c_0_65.html" xlink:title="{to_power(tau,sk₁ + 2) ≠ to_power(tau,sk₁) + (to_power(tau,sk₁) * to_power(tau,1))}" target="_parent">
<polygon fill="#fa6900" stroke="#7f7542" points="16.5,-16.5 16.5,-31.5 601.5,-31.5 601.5,-16.5 16.5,-16.5"/>
<text text-anchor="middle" x="309" y="-20.3" font-family="Times,serif" font-size="14.00">to_power(tau,sk₁ + 2) ≠ to_power(tau,sk₁) + (to_power(tau,sk₁) * to_power(tau,1))</text>
</a>
</g>
</g>
<!-- c_0_39&#45;&gt;c_0_65 -->
<g id="edge4" class="edge">
<title>c_0_39&#45;&gt;c_0_65</title>
<path fill="none" stroke="black" stroke-dasharray="5,2" d="M581.75,-68.33C581.75,-68.33 581.75,-41.7 581.75,-41.7"/>
<polygon fill="black" stroke="black" points="585.25,-41.7 581.75,-31.7 578.25,-41.7 585.25,-41.7"/>
</g>
</g>
</svg>
