<?xml version="1.0" encoding="UTF-8" standalone="no"?>
<!DOCTYPE svg PUBLIC "-//W3C//DTD SVG 1.1//EN"
 "http://www.w3.org/Graphics/SVG/1.1/DTD/svg11.dtd">
<!-- Generated by graphviz version 5.0.0 (0)
 -->
<!-- Title: proof Pages: 1 -->
<svg width="602pt" height="220pt"
 viewBox="0.00 0.00 602.00 220.00" xmlns="http://www.w3.org/2000/svg" xmlns:xlink="http://www.w3.org/1999/xlink">
<g id="graph0" class="graph" transform="scale(1 1) rotate(0) translate(4 216)">
<title>proof</title>
<g id="clust1" class="cluster">
<title>cluster_0</title>
<polygon fill="transparent" stroke="black" stroke-dasharray="1,5" points="8,-172 8,-204 586,-204 586,-172 8,-172"/>
</g>
<g id="clust2" class="cluster">
<title>cluster_1</title>
<polygon fill="transparent" stroke="black" stroke-width="2" points="295,-90 295,-152 441,-152 441,-90 295,-90"/>
</g>
<g id="clust3" class="cluster">
<title>cluster_2</title>
<polygon fill="transparent" stroke="black" stroke-dasharray="1,5" points="295,-8 295,-70 441,-70 441,-8 295,-8"/>
</g>
<!-- c_0_62 -->
<g id="node1" class="node">
<title>c_0_62</title>
<g id="a_node1"><a xlink:href="c_0_62.html" xlink:title="{C₁ + C₂ = C₂ + C₁}" target="_vizar">
<polygon fill="#f8edd1" stroke="#7f7542" points="450.5,-180.5 450.5,-195.5 577.5,-195.5 577.5,-180.5 450.5,-180.5"/>
<text text-anchor="middle" x="514" y="-184.3" font-family="Times,serif" font-size="14.00">C₁ + C₂ = C₂ + C₁</text>
</a>
</g>
</g>
<!-- c_0_159 -->
<g id="node3" class="node">
<title>c_0_159</title>
<g id="a_node3"><a xlink:href="c_0_159.html" xlink:title="{τ⁺ ^ sk₁ ∈ ℂ|⇊|τ⁺ * (τ⁺ ^ sk₁) ∉ ℂ}" target="_vizar">
<polygon fill="#fa6900" stroke="#7f7542" points="303,-98.5 303,-143.5 433,-143.5 433,-98.5 303,-98.5"/>
<text text-anchor="middle" x="368" y="-132.3" font-family="Times,serif" font-size="14.00">τ⁺ ^ sk₁ ∈ ℂ</text>
<polyline fill="none" stroke="#7f7542" points="303,-128.5 433,-128.5 "/>
<text text-anchor="middle" x="368" y="-117.3" font-family="Times,serif" font-size="14.00">⇊</text>
<polyline fill="none" stroke="#7f7542" points="303,-113.5 433,-113.5 "/>
<text text-anchor="middle" x="368" y="-102.3" font-family="Times,serif" font-size="14.00">τ⁺ * (τ⁺ ^ sk₁) ∉ ℂ</text>
</a>
</g>
</g>
<!-- c_0_62&#45;&gt;c_0_159 -->
<g id="edge1" class="edge">
<title>c_0_62&#45;&gt;c_0_159</title>
<path fill="none" stroke="black" d="M514,-180.31C514,-162.72 514,-121 514,-121 514,-121 443.31,-121 443.31,-121"/>
<polygon fill="black" stroke="black" points="443.31,-117.5 433.31,-121 443.31,-124.5 443.31,-117.5"/>
</g>
<!-- c_0_155 -->
<g id="node2" class="node">
<title>c_0_155</title>
<g id="a_node2"><a xlink:href="c_0_155.html" xlink:title="{(τ⁺ * (τ⁺ ^ sk₁)) + (τ⁺ ^ sk₁) ≠ (τ⁺ ^ sk₁) + (τ⁺ * (τ⁺ ^ sk₁))}" target="_vizar">
<polygon fill="#fa6900" stroke="#7f7542" points="16,-180.5 16,-195.5 432,-195.5 432,-180.5 16,-180.5"/>
<text text-anchor="middle" x="224" y="-184.3" font-family="Times,serif" font-size="14.00">(τ⁺ * (τ⁺ ^ sk₁)) + (τ⁺ ^ sk₁) ≠ (τ⁺ ^ sk₁) + (τ⁺ * (τ⁺ ^ sk₁))</text>
</a>
</g>
</g>
<!-- c_0_155&#45;&gt;c_0_159 -->
<g id="edge2" class="edge">
<title>c_0_155&#45;&gt;c_0_159</title>
<path fill="none" stroke="black" d="M367.5,-180.31C367.5,-180.31 367.5,-153.76 367.5,-153.76"/>
<polygon fill="black" stroke="black" points="371,-153.76 367.5,-143.76 364,-153.76 371,-153.76"/>
</g>
<!-- c_0_163 -->
<g id="node4" class="node">
<title>c_0_163</title>
<g id="a_node4"><a xlink:href="c_0_163.html" xlink:title="{τ⁺ ^ sk₁ ∈ ℂ|⇊|τ⁺ * (τ⁺ ^ sk₁) ∉ ℝ}" target="_vizar">
<polygon fill="#fa6900" stroke="#7f7542" points="303,-16.5 303,-61.5 433,-61.5 433,-16.5 303,-16.5"/>
<text text-anchor="middle" x="368" y="-50.3" font-family="Times,serif" font-size="14.00">τ⁺ ^ sk₁ ∈ ℂ</text>
<polyline fill="none" stroke="#7f7542" points="303,-46.5 433,-46.5 "/>
<text text-anchor="middle" x="368" y="-35.3" font-family="Times,serif" font-size="14.00">⇊</text>
<polyline fill="none" stroke="#7f7542" points="303,-31.5 433,-31.5 "/>
<text text-anchor="middle" x="368" y="-20.3" font-family="Times,serif" font-size="14.00">τ⁺ * (τ⁺ ^ sk₁) ∉ ℝ</text>
</a>
</g>
</g>
<!-- c_0_159&#45;&gt;c_0_163 -->
<g id="edge3" class="edge">
<title>c_0_159&#45;&gt;c_0_163</title>
<path fill="none" stroke="black" stroke-dasharray="5,2" d="M368,-98.16C368,-98.16 368,-71.72 368,-71.72"/>
<polygon fill="black" stroke="black" points="371.5,-71.72 368,-61.72 364.5,-71.72 371.5,-71.72"/>
</g>
</g>
</svg>
