<?xml version="1.0" encoding="UTF-8" standalone="no"?>
<!DOCTYPE svg PUBLIC "-//W3C//DTD SVG 1.1//EN"
 "http://www.w3.org/Graphics/SVG/1.1/DTD/svg11.dtd">
<!-- Generated by graphviz version 5.0.0 (0)
 -->
<!-- Title: proof Pages: 1 -->
<svg width="1706pt" height="190pt"
 viewBox="0.00 0.00 1706.00 190.00" xmlns="http://www.w3.org/2000/svg" xmlns:xlink="http://www.w3.org/1999/xlink">
<g id="graph0" class="graph" transform="scale(1 1) rotate(0) translate(4 186)">
<title>proof</title>
<g id="clust1" class="cluster">
<title>cluster_0</title>
<polygon fill="transparent" stroke="black" stroke-dasharray="1,5" points="847,-142 847,-174 967,-174 967,-142 847,-142"/>
</g>
<g id="clust2" class="cluster">
<title>cluster_1</title>
<polygon fill="transparent" stroke="black" stroke-width="2" points="875,-90 875,-122 939,-122 939,-90 875,-90"/>
</g>
<g id="clust3" class="cluster">
<title>cluster_2</title>
<polygon fill="transparent" stroke="black" stroke-dasharray="1,5" points="8,-8 8,-70 1690,-70 1690,-8 8,-8"/>
</g>
<!-- dt_k1_fib_num -->
<g id="node1" class="node">
<title>dt_k1_fib_num</title>
<g id="a_node1"><a xlink:href="dt_k1_fib_num.html" xlink:title="dt_k1_fib_num" target="_vizar">
<polygon fill="#69d2e7" stroke="#7f7542" points="855.5,-150.5 855.5,-165.5 958.5,-165.5 958.5,-150.5 855.5,-150.5"/>
<text text-anchor="middle" x="907" y="-154.3" font-family="Times,serif" font-size="14.00">dt_k1_fib_num</text>
</a>
</g>
</g>
<!-- c_0_54 -->
<g id="node2" class="node">
<title>c_0_54</title>
<g id="a_node2"><a xlink:href="c_0_54.html" xlink:title="{τ⁺ ∈ ℝ}" target="_vizar">
<polygon fill="#f8edd1" stroke="#7f7542" points="883.5,-98.5 883.5,-113.5 930.5,-113.5 930.5,-98.5 883.5,-98.5"/>
<text text-anchor="middle" x="907" y="-102.3" font-family="Times,serif" font-size="14.00">τ⁺ ∈ ℝ</text>
</a>
</g>
</g>
<!-- dt_k1_fib_num&#45;&gt;c_0_54 -->
<g id="edge1" class="edge">
<title>dt_k1_fib_num&#45;&gt;c_0_54</title>
<path fill="none" stroke="black" d="M907,-150.33C907,-150.33 907,-123.7 907,-123.7"/>
<polygon fill="black" stroke="black" points="910.5,-123.7 907,-113.7 903.5,-123.7 910.5,-123.7"/>
</g>
<!-- c_0_175 -->
<g id="node3" class="node">
<title>c_0_175</title>
<g id="a_node3"><a xlink:href="c_0_175.html" xlink:title="⊥" target="_vizar">
<polygon fill="#fa6900" stroke="#7f7542" points="1668,-31.5 1668,-46.5 1682,-46.5 1682,-31.5 1668,-31.5"/>
<text text-anchor="middle" x="1675" y="-35.3" font-family="Times,serif" font-size="14.00">⊥</text>
</a>
</g>
</g>
<!-- c_0_54&#45;&gt;c_0_175 -->
<g id="edge2" class="edge">
<title>c_0_54&#45;&gt;c_0_175</title>
<path fill="none" stroke="black" stroke-dasharray="5,2" d="M930.83,-108C1060.46,-108 1675,-108 1675,-108 1675,-108 1675,-56.65 1675,-56.65"/>
<polygon fill="black" stroke="black" points="1678.5,-56.65 1675,-46.65 1671.5,-56.65 1678.5,-56.65"/>
</g>
<!-- c_0_125 -->
<g id="node4" class="node">
<title>c_0_125</title>
<g id="a_node4"><a xlink:href="c_0_125.html" xlink:title="{(τ⁺ ^ 2) * (τ⁺ ^ sk₁) ≠ (τ⁺ ^ sk₁) + (τ⁺ * (τ⁺ ^ sk₁))}" target="_vizar">
<polygon fill="#fa6900" stroke="#7f7542" points="1292,-31.5 1292,-46.5 1650,-46.5 1650,-31.5 1292,-31.5"/>
<text text-anchor="middle" x="1471" y="-35.3" font-family="Times,serif" font-size="14.00">(τ⁺ ^ 2) * (τ⁺ ^ sk₁) ≠ (τ⁺ ^ sk₁) + (τ⁺ * (τ⁺ ^ sk₁))</text>
</a>
</g>
</g>
<!-- c_0_54&#45;&gt;c_0_125 -->
<g id="edge3" class="edge">
<title>c_0_54&#45;&gt;c_0_125</title>
<path fill="none" stroke="black" stroke-dasharray="5,2" d="M930.52,-103C1037.26,-103 1471,-103 1471,-103 1471,-103 1471,-56.85 1471,-56.85"/>
<polygon fill="black" stroke="black" points="1474.5,-56.85 1471,-46.85 1467.5,-56.85 1474.5,-56.85"/>
</g>
<!-- c_0_109 -->
<g id="node5" class="node">
<title>c_0_109</title>
<g id="a_node5"><a xlink:href="c_0_109.html" xlink:title="{(τ⁺ ^ sk₁) + ((τ⁺ ^ sk₁) * τ⁺) ≠ (τ⁺ ^ 2) * (τ⁺ ^ sk₁)}" target="_vizar">
<polygon fill="#fa6900" stroke="#7f7542" points="916,-31.5 916,-46.5 1274,-46.5 1274,-31.5 916,-31.5"/>
<text text-anchor="middle" x="1095" y="-35.3" font-family="Times,serif" font-size="14.00">(τ⁺ ^ sk₁) + ((τ⁺ ^ sk₁) * τ⁺) ≠ (τ⁺ ^ 2) * (τ⁺ ^ sk₁)</text>
</a>
</g>
</g>
<!-- c_0_54&#45;&gt;c_0_109 -->
<g id="edge4" class="edge">
<title>c_0_54&#45;&gt;c_0_109</title>
<path fill="none" stroke="black" stroke-dasharray="5,2" d="M923.25,-98.31C923.25,-98.31 923.25,-56.6 923.25,-56.6"/>
<polygon fill="black" stroke="black" points="926.75,-56.6 923.25,-46.6 919.75,-56.6 926.75,-56.6"/>
</g>
<!-- c_0_65 -->
<g id="node6" class="node">
<title>c_0_65</title>
<g id="a_node6"><a xlink:href="c_0_65.html" xlink:title="{τ⁺ ^ (sk₁ + 2) ≠ (τ⁺ ^ sk₁) + ((τ⁺ ^ sk₁) * (τ⁺ ^ 1))}" target="_vizar">
<polygon fill="#fa6900" stroke="#7f7542" points="540.5,-31.5 540.5,-46.5 897.5,-46.5 897.5,-31.5 540.5,-31.5"/>
<text text-anchor="middle" x="719" y="-35.3" font-family="Times,serif" font-size="14.00">τ⁺ ^ (sk₁ + 2) ≠ (τ⁺ ^ sk₁) + ((τ⁺ ^ sk₁) * (τ⁺ ^ 1))</text>
</a>
</g>
</g>
<!-- c_0_54&#45;&gt;c_0_65 -->
<g id="edge5" class="edge">
<title>c_0_54&#45;&gt;c_0_65</title>
<path fill="none" stroke="black" stroke-dasharray="5,2" d="M892.83,-98.31C892.83,-98.31 892.83,-56.6 892.83,-56.6"/>
<polygon fill="black" stroke="black" points="896.33,-56.6 892.83,-46.6 889.33,-56.6 896.33,-56.6"/>
</g>
<!-- c_0_92 -->
<g id="node7" class="node">
<title>c_0_92</title>
<g id="a_node7"><a xlink:href="c_0_92.html" xlink:title="{(τ⁺ ^ sk₁) + ((τ⁺ ^ sk₁) * (τ⁺ ^ 1)) ≠ (τ⁺ ^ 2) * (τ⁺ ^ sk₁)}" target="_vizar">
<polygon fill="#fa6900" stroke="#7f7542" points="124,-31.5 124,-46.5 522,-46.5 522,-31.5 124,-31.5"/>
<text text-anchor="middle" x="323" y="-35.3" font-family="Times,serif" font-size="14.00">(τ⁺ ^ sk₁) + ((τ⁺ ^ sk₁) * (τ⁺ ^ 1)) ≠ (τ⁺ ^ 2) * (τ⁺ ^ sk₁)</text>
</a>
</g>
</g>
<!-- c_0_54&#45;&gt;c_0_92 -->
<g id="edge6" class="edge">
<title>c_0_54&#45;&gt;c_0_92</title>
<path fill="none" stroke="black" stroke-dasharray="5,2" d="M883.38,-106C774.13,-106 323,-106 323,-106 323,-106 323,-56.69 323,-56.69"/>
<polygon fill="black" stroke="black" points="326.5,-56.69 323,-46.69 319.5,-56.69 326.5,-56.69"/>
</g>
<!-- c_0_168 -->
<g id="node8" class="node">
<title>c_0_168</title>
<g id="a_node8"><a xlink:href="c_0_168.html" xlink:title="{τ⁺ ^ sk₁ ∈ ℝ|⇊|τ⁺ ^ sk₁ ∉ ℂ}" target="_vizar">
<polygon fill="#fa6900" stroke="#7f7542" points="16.5,-16.5 16.5,-61.5 105.5,-61.5 105.5,-16.5 16.5,-16.5"/>
<text text-anchor="middle" x="61" y="-50.3" font-family="Times,serif" font-size="14.00">τ⁺ ^ sk₁ ∈ ℝ</text>
<polyline fill="none" stroke="#7f7542" points="16.5,-46.5 105.5,-46.5 "/>
<text text-anchor="middle" x="61" y="-35.3" font-family="Times,serif" font-size="14.00">⇊</text>
<polyline fill="none" stroke="#7f7542" points="16.5,-31.5 105.5,-31.5 "/>
<text text-anchor="middle" x="61" y="-20.3" font-family="Times,serif" font-size="14.00">τ⁺ ^ sk₁ ∉ ℂ</text>
</a>
</g>
</g>
<!-- c_0_54&#45;&gt;c_0_168 -->
<g id="edge7" class="edge">
<title>c_0_54&#45;&gt;c_0_168</title>
<path fill="none" stroke="black" stroke-dasharray="5,2" d="M888.17,-98.33C888.17,-83.86 888.17,-54 888.17,-54 888.17,-54 115.77,-54 115.77,-54"/>
<polygon fill="black" stroke="black" points="115.77,-50.5 105.77,-54 115.77,-57.5 115.77,-50.5"/>
</g>
</g>
</svg>
