<?xml version="1.0" encoding="UTF-8" standalone="no"?>
<!DOCTYPE svg PUBLIC "-//W3C//DTD SVG 1.1//EN"
 "http://www.w3.org/Graphics/SVG/1.1/DTD/svg11.dtd">
<!-- Generated by graphviz version 5.0.0 (0)
 -->
<!-- Title: proof Pages: 1 -->
<svg width="1010pt" height="190pt"
 viewBox="0.00 0.00 1010.00 190.00" xmlns="http://www.w3.org/2000/svg" xmlns:xlink="http://www.w3.org/1999/xlink">
<g id="graph0" class="graph" transform="scale(1 1) rotate(0) translate(4 186)">
<title>proof</title>
<g id="clust1" class="cluster">
<title>cluster_0</title>
<polygon fill="transparent" stroke="black" stroke-dasharray="1,5" points="416,-142 416,-174 586,-174 586,-142 416,-142"/>
</g>
<g id="clust2" class="cluster">
<title>cluster_1</title>
<polygon fill="transparent" stroke="black" stroke-width="2" points="430,-60 430,-122 572,-122 572,-60 430,-60"/>
</g>
<g id="clust3" class="cluster">
<title>cluster_2</title>
<polygon fill="transparent" stroke="black" stroke-dasharray="1,5" points="8,-8 8,-40 994,-40 994,-8 8,-8"/>
</g>
<!-- redefinition_k1_nat_1 -->
<g id="node1" class="node">
<title>redefinition_k1_nat_1</title>
<g id="a_node1"><a xlink:href="redefinition_k1_nat_1.html" xlink:title="redefinition_k1_nat_1" target="_parent">
<polygon fill="#69d2e7" stroke="#7f7542" points="424.5,-150.5 424.5,-165.5 577.5,-165.5 577.5,-150.5 424.5,-150.5"/>
<text text-anchor="middle" x="501" y="-154.3" font-family="Times,serif" font-size="14.00">redefinition_k1_nat_1</text>
</a>
</g>
</g>
<!-- c_0_38 -->
<g id="node2" class="node">
<title>c_0_38</title>
<g id="a_node2"><a xlink:href="c_0_38.html" xlink:title="{X₂ ∈ ℕ|⇊|C₁ + X₂ = C₁ + X₂}" target="_parent">
<polygon fill="#f8edd1" stroke="#7f7542" points="438.5,-68.5 438.5,-113.5 563.5,-113.5 563.5,-68.5 438.5,-68.5"/>
<text text-anchor="middle" x="501" y="-102.3" font-family="Times,serif" font-size="14.00">X₂ ∈ ℕ</text>
<polyline fill="none" stroke="#7f7542" points="438.5,-98.5 563.5,-98.5 "/>
<text text-anchor="middle" x="501" y="-87.3" font-family="Times,serif" font-size="14.00">⇊</text>
<polyline fill="none" stroke="#7f7542" points="438.5,-83.5 563.5,-83.5 "/>
<text text-anchor="middle" x="501" y="-72.3" font-family="Times,serif" font-size="14.00">C₁ + X₂ = C₁ + X₂</text>
</a>
</g>
</g>
<!-- redefinition_k1_nat_1&#45;&gt;c_0_38 -->
<g id="edge1" class="edge">
<title>redefinition_k1_nat_1&#45;&gt;c_0_38</title>
<path fill="none" stroke="black" d="M501,-150.31C501,-150.31 501,-123.76 501,-123.76"/>
<polygon fill="black" stroke="black" points="504.5,-123.76 501,-113.76 497.5,-123.76 504.5,-123.76"/>
</g>
<!-- c_0_51 -->
<g id="node3" class="node">
<title>c_0_51</title>
<g id="a_node3"><a xlink:href="c_0_51.html" xlink:title="{to_power(tau,sk₁ + 2) ≠ to_power(tau,sk₁) + to_power(tau,sk₁ + 1)}" target="_parent">
<polygon fill="#fa6900" stroke="#7f7542" points="510,-16.5 510,-31.5 986,-31.5 986,-16.5 510,-16.5"/>
<text text-anchor="middle" x="748" y="-20.3" font-family="Times,serif" font-size="14.00">to_power(tau,sk₁ + 2) ≠ to_power(tau,sk₁) + to_power(tau,sk₁ + 1)</text>
</a>
</g>
</g>
<!-- c_0_38&#45;&gt;c_0_51 -->
<g id="edge2" class="edge">
<title>c_0_38&#45;&gt;c_0_51</title>
<path fill="none" stroke="black" stroke-dasharray="5,2" d="M536.75,-68.32C536.75,-68.32 536.75,-41.59 536.75,-41.59"/>
<polygon fill="black" stroke="black" points="540.25,-41.59 536.75,-31.59 533.25,-41.59 540.25,-41.59"/>
</g>
<!-- c_0_58 -->
<g id="node4" class="node">
<title>c_0_58</title>
<g id="a_node4"><a xlink:href="c_0_58.html" xlink:title="{to_power(tau,sk₁) + to_power(tau,sk₁ + 1) ≠ to_power(tau,sk₁ + 2)}" target="_parent">
<polygon fill="#fa6900" stroke="#7f7542" points="16,-16.5 16,-31.5 492,-31.5 492,-16.5 16,-16.5"/>
<text text-anchor="middle" x="254" y="-20.3" font-family="Times,serif" font-size="14.00">to_power(tau,sk₁) + to_power(tau,sk₁ + 1) ≠ to_power(tau,sk₁ + 2)</text>
</a>
</g>
</g>
<!-- c_0_38&#45;&gt;c_0_58 -->
<g id="edge3" class="edge">
<title>c_0_38&#45;&gt;c_0_58</title>
<path fill="none" stroke="black" stroke-dasharray="5,2" d="M465.25,-68.32C465.25,-68.32 465.25,-41.59 465.25,-41.59"/>
<polygon fill="black" stroke="black" points="468.75,-41.59 465.25,-31.59 461.75,-41.59 468.75,-41.59"/>
</g>
</g>
</svg>
