<?xml version="1.0" encoding="UTF-8" standalone="no"?>
<!DOCTYPE svg PUBLIC "-//W3C//DTD SVG 1.1//EN"
 "http://www.w3.org/Graphics/SVG/1.1/DTD/svg11.dtd">
<!-- Generated by graphviz version 5.0.0 (0)
 -->
<!-- Title: proof Pages: 1 -->
<svg width="369pt" height="108pt"
 viewBox="0.00 0.00 369.00 108.00" xmlns="http://www.w3.org/2000/svg" xmlns:xlink="http://www.w3.org/1999/xlink">
<g id="graph0" class="graph" transform="scale(1 1) rotate(0) translate(4 104)">
<title>proof</title>
<g id="clust1" class="cluster">
<title>cluster_0</title>
<polygon fill="transparent" stroke="black" stroke-dasharray="1,5" points="8,-60 8,-92 353,-92 353,-60 8,-60"/>
</g>
<g id="clust2" class="cluster">
<title>cluster_1</title>
<polygon fill="transparent" stroke="black" stroke-width="2" points="136,-8 136,-40 166,-40 166,-8 136,-8"/>
</g>
<!-- c_0_172 -->
<g id="node1" class="node">
<title>c_0_172</title>
<g id="a_node1"><a xlink:href="c_0_172.html" xlink:title="{τ⁺ ^ sk₁ ∉ ℝ}" target="_vizar">
<polygon fill="#fa6900" stroke="#7f7542" points="255.5,-68.5 255.5,-83.5 344.5,-83.5 344.5,-68.5 255.5,-68.5"/>
<text text-anchor="middle" x="300" y="-72.3" font-family="Times,serif" font-size="14.00">τ⁺ ^ sk₁ ∉ ℝ</text>
</a>
</g>
</g>
<!-- c_0_175 -->
<g id="node5" class="node">
<title>c_0_175</title>
<g id="a_node5"><a xlink:href="c_0_175.html" xlink:title="⊥" target="_vizar">
<polygon fill="#fa6900" stroke="#7f7542" points="144,-16.5 144,-31.5 158,-31.5 158,-16.5 144,-16.5"/>
<text text-anchor="middle" x="151" y="-20.3" font-family="Times,serif" font-size="14.00">⊥</text>
</a>
</g>
</g>
<!-- c_0_172&#45;&gt;c_0_175 -->
<g id="edge1" class="edge">
<title>c_0_172&#45;&gt;c_0_175</title>
<path fill="none" stroke="black" d="M300,-68.33C300,-53.86 300,-24 300,-24 300,-24 168.19,-24 168.19,-24"/>
<polygon fill="black" stroke="black" points="168.19,-20.5 158.19,-24 168.19,-27.5 168.19,-20.5"/>
</g>
<!-- c_0_169 -->
<g id="node2" class="node">
<title>c_0_169</title>
<g id="a_node2"><a xlink:href="c_0_169.html" xlink:title="{R₁ ^ R₂ ∈ ℝ}" target="_vizar">
<polygon fill="#f8edd1" stroke="#7f7542" points="152.5,-68.5 152.5,-83.5 237.5,-83.5 237.5,-68.5 152.5,-68.5"/>
<text text-anchor="middle" x="195" y="-72.3" font-family="Times,serif" font-size="14.00">R₁ ^ R₂ ∈ ℝ</text>
</a>
</g>
</g>
<!-- c_0_169&#45;&gt;c_0_175 -->
<g id="edge2" class="edge">
<title>c_0_169&#45;&gt;c_0_175</title>
<path fill="none" stroke="black" d="M152.37,-78C150.67,-78 149.67,-78 149.67,-78 149.67,-78 149.67,-41.51 149.67,-41.51"/>
<polygon fill="black" stroke="black" points="153.17,-41.51 149.67,-31.51 146.17,-41.51 153.17,-41.51"/>
</g>
<!-- c_0_170 -->
<g id="node3" class="node">
<title>c_0_170</title>
<g id="a_node3"><a xlink:href="c_0_170.html" xlink:title="{sk₁ ∈ ℝ}" target="_vizar">
<polygon fill="#fa6900" stroke="#7f7542" points="81.5,-68.5 81.5,-83.5 134.5,-83.5 134.5,-68.5 81.5,-68.5"/>
<text text-anchor="middle" x="108" y="-72.3" font-family="Times,serif" font-size="14.00">sk₁ ∈ ℝ</text>
</a>
</g>
</g>
<!-- c_0_170&#45;&gt;c_0_175 -->
<g id="edge3" class="edge">
<title>c_0_170&#45;&gt;c_0_175</title>
<path fill="none" stroke="black" d="M134.55,-73C141.37,-73 146.83,-73 146.83,-73 146.83,-73 146.83,-41.66 146.83,-41.66"/>
<polygon fill="black" stroke="black" points="150.33,-41.66 146.83,-31.66 143.33,-41.66 150.33,-41.66"/>
</g>
<!-- c_0_54 -->
<g id="node4" class="node">
<title>c_0_54</title>
<g id="a_node4"><a xlink:href="c_0_54.html" xlink:title="{τ⁺ ∈ ℝ}" target="_vizar">
<polygon fill="#f8edd1" stroke="#7f7542" points="16.5,-68.5 16.5,-83.5 63.5,-83.5 63.5,-68.5 16.5,-68.5"/>
<text text-anchor="middle" x="40" y="-72.3" font-family="Times,serif" font-size="14.00">τ⁺ ∈ ℝ</text>
</a>
</g>
</g>
<!-- c_0_54&#45;&gt;c_0_175 -->
<g id="edge4" class="edge">
<title>c_0_54&#45;&gt;c_0_175</title>
<path fill="none" stroke="black" d="M40,-68.33C40,-53.86 40,-24 40,-24 40,-24 133.72,-24 133.72,-24"/>
<polygon fill="black" stroke="black" points="133.72,-27.5 143.72,-24 133.72,-20.5 133.72,-27.5"/>
</g>
</g>
</svg>
