<?xml version="1.0" encoding="UTF-8" standalone="no"?>
<!DOCTYPE svg PUBLIC "-//W3C//DTD SVG 1.1//EN"
 "http://www.w3.org/Graphics/SVG/1.1/DTD/svg11.dtd">
<!-- Generated by graphviz version 5.0.0 (0)
 -->
<!-- Title: proof Pages: 1 -->
<svg width="677pt" height="160pt"
 viewBox="0.00 0.00 677.00 160.00" xmlns="http://www.w3.org/2000/svg" xmlns:xlink="http://www.w3.org/1999/xlink">
<g id="graph0" class="graph" transform="scale(1 1) rotate(0) translate(4 156)">
<title>proof</title>
<g id="clust1" class="cluster">
<title>cluster_0</title>
<polygon fill="transparent" stroke="black" stroke-dasharray="1,5" points="8,-112 8,-144 589,-144 589,-112 8,-112"/>
</g>
<g id="clust2" class="cluster">
<title>cluster_1</title>
<polygon fill="transparent" stroke="black" stroke-width="2" points="287,-60 287,-92 661,-92 661,-60 287,-60"/>
</g>
<g id="clust3" class="cluster">
<title>cluster_2</title>
<polygon fill="transparent" stroke="black" stroke-dasharray="1,5" points="287,-8 287,-40 661,-40 661,-8 287,-8"/>
</g>
<!-- c_0_54 -->
<g id="node1" class="node">
<title>c_0_54</title>
<g id="a_node1"><a xlink:href="c_0_54.html" xlink:title="{τ⁺ ∈ ℝ}" target="_vizar">
<polygon fill="#f8edd1" stroke="#7f7542" points="533.5,-120.5 533.5,-135.5 580.5,-135.5 580.5,-120.5 533.5,-120.5"/>
<text text-anchor="middle" x="557" y="-124.3" font-family="Times,serif" font-size="14.00">τ⁺ ∈ ℝ</text>
</a>
</g>
</g>
<!-- c_0_109 -->
<g id="node4" class="node">
<title>c_0_109</title>
<g id="a_node4"><a xlink:href="c_0_109.html" xlink:title="{(τ⁺ ^ sk₁) + ((τ⁺ ^ sk₁) * τ⁺) ≠ (τ⁺ ^ 2) * (τ⁺ ^ sk₁)}" target="_vizar">
<polygon fill="#fa6900" stroke="#7f7542" points="295,-68.5 295,-83.5 653,-83.5 653,-68.5 295,-68.5"/>
<text text-anchor="middle" x="474" y="-72.3" font-family="Times,serif" font-size="14.00">(τ⁺ ^ sk₁) + ((τ⁺ ^ sk₁) * τ⁺) ≠ (τ⁺ ^ 2) * (τ⁺ ^ sk₁)</text>
</a>
</g>
</g>
<!-- c_0_54&#45;&gt;c_0_109 -->
<g id="edge1" class="edge">
<title>c_0_54&#45;&gt;c_0_109</title>
<path fill="none" stroke="black" d="M557,-120.33C557,-120.33 557,-93.7 557,-93.7"/>
<polygon fill="black" stroke="black" points="560.5,-93.7 557,-83.7 553.5,-93.7 560.5,-93.7"/>
</g>
<!-- c_0_80 -->
<g id="node2" class="node">
<title>c_0_80</title>
<g id="a_node2"><a xlink:href="c_0_80.html" xlink:title="{R₁ ^ 1 = R₁}" target="_vizar">
<polygon fill="#f8edd1" stroke="#7f7542" points="432.5,-120.5 432.5,-135.5 515.5,-135.5 515.5,-120.5 432.5,-120.5"/>
<text text-anchor="middle" x="474" y="-124.3" font-family="Times,serif" font-size="14.00">R₁ ^ 1 = R₁</text>
</a>
</g>
</g>
<!-- c_0_80&#45;&gt;c_0_109 -->
<g id="edge2" class="edge">
<title>c_0_80&#45;&gt;c_0_109</title>
<path fill="none" stroke="black" d="M474,-120.33C474,-120.33 474,-93.7 474,-93.7"/>
<polygon fill="black" stroke="black" points="477.5,-93.7 474,-83.7 470.5,-93.7 477.5,-93.7"/>
</g>
<!-- c_0_92 -->
<g id="node3" class="node">
<title>c_0_92</title>
<g id="a_node3"><a xlink:href="c_0_92.html" xlink:title="{(τ⁺ ^ sk₁) + ((τ⁺ ^ sk₁) * (τ⁺ ^ 1)) ≠ (τ⁺ ^ 2) * (τ⁺ ^ sk₁)}" target="_vizar">
<polygon fill="#fa6900" stroke="#7f7542" points="16,-120.5 16,-135.5 414,-135.5 414,-120.5 16,-120.5"/>
<text text-anchor="middle" x="215" y="-124.3" font-family="Times,serif" font-size="14.00">(τ⁺ ^ sk₁) + ((τ⁺ ^ sk₁) * (τ⁺ ^ 1)) ≠ (τ⁺ ^ 2) * (τ⁺ ^ sk₁)</text>
</a>
</g>
</g>
<!-- c_0_92&#45;&gt;c_0_109 -->
<g id="edge3" class="edge">
<title>c_0_92&#45;&gt;c_0_109</title>
<path fill="none" stroke="black" d="M354.5,-120.33C354.5,-120.33 354.5,-93.7 354.5,-93.7"/>
<polygon fill="black" stroke="black" points="358,-93.7 354.5,-83.7 351,-93.7 358,-93.7"/>
</g>
<!-- c_0_125 -->
<g id="node5" class="node">
<title>c_0_125</title>
<g id="a_node5"><a xlink:href="c_0_125.html" xlink:title="{(τ⁺ ^ 2) * (τ⁺ ^ sk₁) ≠ (τ⁺ ^ sk₁) + (τ⁺ * (τ⁺ ^ sk₁))}" target="_vizar">
<polygon fill="#fa6900" stroke="#7f7542" points="295,-16.5 295,-31.5 653,-31.5 653,-16.5 295,-16.5"/>
<text text-anchor="middle" x="474" y="-20.3" font-family="Times,serif" font-size="14.00">(τ⁺ ^ 2) * (τ⁺ ^ sk₁) ≠ (τ⁺ ^ sk₁) + (τ⁺ * (τ⁺ ^ sk₁))</text>
</a>
</g>
</g>
<!-- c_0_109&#45;&gt;c_0_125 -->
<g id="edge4" class="edge">
<title>c_0_109&#45;&gt;c_0_125</title>
<path fill="none" stroke="black" stroke-dasharray="5,2" d="M474,-68.33C474,-68.33 474,-41.7 474,-41.7"/>
<polygon fill="black" stroke="black" points="477.5,-41.7 474,-31.7 470.5,-41.7 477.5,-41.7"/>
</g>
</g>
</svg>
