<?xml version="1.0" encoding="UTF-8" standalone="no"?>
<!DOCTYPE svg PUBLIC "-//W3C//DTD SVG 1.1//EN"
 "http://www.w3.org/Graphics/SVG/1.1/DTD/svg11.dtd">
<!-- Generated by graphviz version 5.0.0 (0)
 -->
<!-- Title: proof Pages: 1 -->
<svg width="640pt" height="160pt"
 viewBox="0.00 0.00 640.00 160.00" xmlns="http://www.w3.org/2000/svg" xmlns:xlink="http://www.w3.org/1999/xlink">
<g id="graph0" class="graph" transform="scale(1 1) rotate(0) translate(4 156)">
<title>proof</title>
<g id="clust1" class="cluster">
<title>cluster_0</title>
<polygon fill="transparent" stroke="black" stroke-dasharray="1,5" points="8,-112 8,-144 624,-144 624,-112 8,-112"/>
</g>
<g id="clust2" class="cluster">
<title>cluster_1</title>
<polygon fill="transparent" stroke="black" stroke-width="2" points="12,-60 12,-92 344,-92 344,-60 12,-60"/>
</g>
<g id="clust3" class="cluster">
<title>cluster_2</title>
<polygon fill="transparent" stroke="black" stroke-dasharray="1,5" points="12,-8 12,-40 344,-40 344,-8 12,-8"/>
</g>
<!-- c_0_37 -->
<g id="node1" class="node">
<title>c_0_37</title>
<g id="a_node1"><a xlink:href="c_0_37.html" xlink:title="{(τ⁺ ^ sk₁) + (τ⁺ ^ (sk₁ + 1)) ≠ τ⁺ ^ (sk₁ + 2)}" target="_vizar">
<polygon fill="#fa6900" stroke="#7f7542" points="300,-120.5 300,-135.5 616,-135.5 616,-120.5 300,-120.5"/>
<text text-anchor="middle" x="458" y="-124.3" font-family="Times,serif" font-size="14.00">(τ⁺ ^ sk₁) + (τ⁺ ^ (sk₁ + 1)) ≠ τ⁺ ^ (sk₁ + 2)</text>
</a>
</g>
</g>
<!-- c_0_51 -->
<g id="node5" class="node">
<title>c_0_51</title>
<g id="a_node5"><a xlink:href="c_0_51.html" xlink:title="{τ⁺ ^ (sk₁ + 2) ≠ (τ⁺ ^ sk₁) + (τ⁺ ^ (sk₁ + 1))}" target="_vizar">
<polygon fill="#fa6900" stroke="#7f7542" points="20,-68.5 20,-83.5 336,-83.5 336,-68.5 20,-68.5"/>
<text text-anchor="middle" x="178" y="-72.3" font-family="Times,serif" font-size="14.00">τ⁺ ^ (sk₁ + 2) ≠ (τ⁺ ^ sk₁) + (τ⁺ ^ (sk₁ + 1))</text>
</a>
</g>
</g>
<!-- c_0_37&#45;&gt;c_0_51 -->
<g id="edge1" class="edge">
<title>c_0_37&#45;&gt;c_0_51</title>
<path fill="none" stroke="black" d="M318,-120.33C318,-120.33 318,-93.7 318,-93.7"/>
<polygon fill="black" stroke="black" points="321.5,-93.7 318,-83.7 314.5,-93.7 321.5,-93.7"/>
</g>
<!-- c_0_38 -->
<g id="node2" class="node">
<title>c_0_38</title>
<g id="a_node2"><a xlink:href="c_0_38.html" xlink:title="{N₁ + N₂ = N₁ + N₂}" target="_vizar">
<polygon fill="#f8edd1" stroke="#7f7542" points="148.5,-120.5 148.5,-135.5 281.5,-135.5 281.5,-120.5 148.5,-120.5"/>
<text text-anchor="middle" x="215" y="-124.3" font-family="Times,serif" font-size="14.00">N₁ + N₂ = N₁ + N₂</text>
</a>
</g>
</g>
<!-- c_0_38&#45;&gt;c_0_51 -->
<g id="edge2" class="edge">
<title>c_0_38&#45;&gt;c_0_51</title>
<path fill="none" stroke="black" d="M215,-120.33C215,-120.33 215,-93.7 215,-93.7"/>
<polygon fill="black" stroke="black" points="218.5,-93.7 215,-83.7 211.5,-93.7 218.5,-93.7"/>
</g>
<!-- c_0_39 -->
<g id="node3" class="node">
<title>c_0_39</title>
<g id="a_node3"><a xlink:href="c_0_39.html" xlink:title="{1 ∈ ℕ}" target="_vizar">
<polygon fill="#f8edd1" stroke="#7f7542" points="88,-120.5 88,-135.5 130,-135.5 130,-120.5 88,-120.5"/>
<text text-anchor="middle" x="109" y="-124.3" font-family="Times,serif" font-size="14.00">1 ∈ ℕ</text>
</a>
</g>
</g>
<!-- c_0_39&#45;&gt;c_0_51 -->
<g id="edge3" class="edge">
<title>c_0_39&#45;&gt;c_0_51</title>
<path fill="none" stroke="black" d="M109,-120.33C109,-120.33 109,-93.7 109,-93.7"/>
<polygon fill="black" stroke="black" points="112.5,-93.7 109,-83.7 105.5,-93.7 112.5,-93.7"/>
</g>
<!-- c_0_40 -->
<g id="node4" class="node">
<title>c_0_40</title>
<g id="a_node4"><a xlink:href="c_0_40.html" xlink:title="{sk₁ ∈ ℕ}" target="_vizar">
<polygon fill="#fa6900" stroke="#7f7542" points="16,-120.5 16,-135.5 70,-135.5 70,-120.5 16,-120.5"/>
<text text-anchor="middle" x="43" y="-124.3" font-family="Times,serif" font-size="14.00">sk₁ ∈ ℕ</text>
</a>
</g>
</g>
<!-- c_0_40&#45;&gt;c_0_51 -->
<g id="edge4" class="edge">
<title>c_0_40&#45;&gt;c_0_51</title>
<path fill="none" stroke="black" d="M45,-120.33C45,-120.33 45,-93.7 45,-93.7"/>
<polygon fill="black" stroke="black" points="48.5,-93.7 45,-83.7 41.5,-93.7 48.5,-93.7"/>
</g>
<!-- c_0_58 -->
<g id="node6" class="node">
<title>c_0_58</title>
<g id="a_node6"><a xlink:href="c_0_58.html" xlink:title="{(τ⁺ ^ sk₁) + (τ⁺ ^ (sk₁ + 1)) ≠ τ⁺ ^ (sk₁ + 2)}" target="_vizar">
<polygon fill="#fa6900" stroke="#7f7542" points="20,-16.5 20,-31.5 336,-31.5 336,-16.5 20,-16.5"/>
<text text-anchor="middle" x="178" y="-20.3" font-family="Times,serif" font-size="14.00">(τ⁺ ^ sk₁) + (τ⁺ ^ (sk₁ + 1)) ≠ τ⁺ ^ (sk₁ + 2)</text>
</a>
</g>
</g>
<!-- c_0_51&#45;&gt;c_0_58 -->
<g id="edge5" class="edge">
<title>c_0_51&#45;&gt;c_0_58</title>
<path fill="none" stroke="black" stroke-dasharray="5,2" d="M178,-68.33C178,-68.33 178,-41.7 178,-41.7"/>
<polygon fill="black" stroke="black" points="181.5,-41.7 178,-31.7 174.5,-41.7 181.5,-41.7"/>
</g>
</g>
</svg>
