<?xml version="1.0" encoding="UTF-8" standalone="no"?>
<!DOCTYPE svg PUBLIC "-//W3C//DTD SVG 1.1//EN"
 "http://www.w3.org/Graphics/SVG/1.1/DTD/svg11.dtd">
<!-- Generated by graphviz version 5.0.0 (0)
 -->
<!-- Title: proof Pages: 1 -->
<svg width="138pt" height="160pt"
 viewBox="0.00 0.00 138.00 160.00" xmlns="http://www.w3.org/2000/svg" xmlns:xlink="http://www.w3.org/1999/xlink">
<g id="graph0" class="graph" transform="scale(1 1) rotate(0) translate(4 156)">
<title>proof</title>
<g id="clust1" class="cluster">
<title>cluster_0</title>
<polygon fill="transparent" stroke="black" stroke-dasharray="1,5" points="8,-112 8,-144 122,-144 122,-112 8,-112"/>
</g>
<g id="clust2" class="cluster">
<title>cluster_1</title>
<polygon fill="transparent" stroke="black" stroke-width="2" points="32,-60 32,-92 98,-92 98,-60 32,-60"/>
</g>
<g id="clust3" class="cluster">
<title>cluster_2</title>
<polygon fill="transparent" stroke="black" stroke-dasharray="1,5" points="19,-8 19,-40 111,-40 111,-8 19,-8"/>
</g>
<!-- cc2_xcmplx_0 -->
<g id="node1" class="node">
<title>cc2_xcmplx_0</title>
<g id="a_node1"><a xlink:href="cc2_xcmplx_0.html" xlink:title="cc2_xcmplx_0" target="_vizar">
<polygon fill="#69d2e7" stroke="#7f7542" points="16,-120.5 16,-135.5 114,-135.5 114,-120.5 16,-120.5"/>
<text text-anchor="middle" x="65" y="-124.3" font-family="Times,serif" font-size="14.00">cc2_xcmplx_0</text>
</a>
</g>
</g>
<!-- c_0_86 -->
<g id="node2" class="node">
<title>c_0_86</title>
<g id="a_node2"><a xlink:href="c_0_86.html" xlink:title="{N₁ ∈ ℂ}" target="_vizar">
<polygon fill="#f8edd1" stroke="#7f7542" points="40.5,-68.5 40.5,-83.5 89.5,-83.5 89.5,-68.5 40.5,-68.5"/>
<text text-anchor="middle" x="65" y="-72.3" font-family="Times,serif" font-size="14.00">N₁ ∈ ℂ</text>
</a>
</g>
</g>
<!-- cc2_xcmplx_0&#45;&gt;c_0_86 -->
<g id="edge1" class="edge">
<title>cc2_xcmplx_0&#45;&gt;c_0_86</title>
<path fill="none" stroke="black" d="M65,-120.33C65,-120.33 65,-93.7 65,-93.7"/>
<polygon fill="black" stroke="black" points="68.5,-93.7 65,-83.7 61.5,-93.7 68.5,-93.7"/>
</g>
<!-- c_0_114 -->
<g id="node3" class="node">
<title>c_0_114</title>
<g id="a_node3"><a xlink:href="c_0_114.html" xlink:title="{&#45;(&#45;N₁) = N₁}" target="_vizar">
<polygon fill="#f8edd1" stroke="#7f7542" points="27,-16.5 27,-31.5 103,-31.5 103,-16.5 27,-16.5"/>
<text text-anchor="middle" x="65" y="-20.3" font-family="Times,serif" font-size="14.00">&#45;(&#45;N₁) = N₁</text>
</a>
</g>
</g>
<!-- c_0_86&#45;&gt;c_0_114 -->
<g id="edge2" class="edge">
<title>c_0_86&#45;&gt;c_0_114</title>
<path fill="none" stroke="black" stroke-dasharray="5,2" d="M65,-68.33C65,-68.33 65,-41.7 65,-41.7"/>
<polygon fill="black" stroke="black" points="68.5,-41.7 65,-31.7 61.5,-41.7 68.5,-41.7"/>
</g>
</g>
</svg>
