<?xml version="1.0" encoding="UTF-8" standalone="no"?>
<!DOCTYPE svg PUBLIC "-//W3C//DTD SVG 1.1//EN"
 "http://www.w3.org/Graphics/SVG/1.1/DTD/svg11.dtd">
<!-- Generated by graphviz version 5.0.0 (0)
 -->
<!-- Title: proof Pages: 1 -->
<svg width="957pt" height="160pt"
 viewBox="0.00 0.00 957.00 160.00" xmlns="http://www.w3.org/2000/svg" xmlns:xlink="http://www.w3.org/1999/xlink">
<g id="graph0" class="graph" transform="scale(1 1) rotate(0) translate(4 156)">
<title>proof</title>
<g id="clust1" class="cluster">
<title>cluster_0</title>
<polygon fill="transparent" stroke="black" stroke-dasharray="1,5" points="8,-112 8,-144 941,-144 941,-112 8,-112"/>
</g>
<g id="clust2" class="cluster">
<title>cluster_1</title>
<polygon fill="transparent" stroke="black" stroke-width="2" points="213,-60 213,-92 823,-92 823,-60 213,-60"/>
</g>
<g id="clust3" class="cluster">
<title>cluster_2</title>
<polygon fill="transparent" stroke="black" stroke-dasharray="1,5" points="213,-8 213,-40 823,-40 823,-8 213,-8"/>
</g>
<!-- c_0_54 -->
<g id="node1" class="node">
<title>c_0_54</title>
<g id="a_node1"><a xlink:href="c_0_54.html" xlink:title="{tau ∈ ℝ}" target="_vizar">
<polygon fill="#f8edd1" stroke="#7f7542" points="877.5,-120.5 877.5,-135.5 932.5,-135.5 932.5,-120.5 877.5,-120.5"/>
<text text-anchor="middle" x="905" y="-124.3" font-family="Times,serif" font-size="14.00">tau ∈ ℝ</text>
</a>
</g>
</g>
<!-- c_0_109 -->
<g id="node4" class="node">
<title>c_0_109</title>
<g id="a_node4"><a xlink:href="c_0_109.html" xlink:title="{to_power(tau,sk₁) + (to_power(tau,sk₁) * tau) ≠ to_power(tau,2) * to_power(tau,sk₁)}" target="_vizar">
<polygon fill="#fa6900" stroke="#7f7542" points="221,-68.5 221,-83.5 815,-83.5 815,-68.5 221,-68.5"/>
<text text-anchor="middle" x="518" y="-72.3" font-family="Times,serif" font-size="14.00">to_power(tau,sk₁) + (to_power(tau,sk₁) * tau) ≠ to_power(tau,2) * to_power(tau,sk₁)</text>
</a>
</g>
</g>
<!-- c_0_54&#45;&gt;c_0_109 -->
<g id="edge1" class="edge">
<title>c_0_54&#45;&gt;c_0_109</title>
<path fill="none" stroke="black" d="M905,-120.33C905,-105.86 905,-76 905,-76 905,-76 825.24,-76 825.24,-76"/>
<polygon fill="black" stroke="black" points="825.24,-72.5 815.24,-76 825.24,-79.5 825.24,-72.5"/>
</g>
<!-- c_0_92 -->
<g id="node2" class="node">
<title>c_0_92</title>
<g id="a_node2"><a xlink:href="c_0_92.html" xlink:title="{to_power(tau,sk₁) + (to_power(tau,sk₁) * to_power(tau,1)) ≠ to_power(tau,2) * to_power(tau,sk₁)}" target="_vizar">
<polygon fill="#fa6900" stroke="#7f7542" points="176.5,-120.5 176.5,-135.5 859.5,-135.5 859.5,-120.5 176.5,-120.5"/>
<text text-anchor="middle" x="518" y="-124.3" font-family="Times,serif" font-size="14.00">to_power(tau,sk₁) + (to_power(tau,sk₁) * to_power(tau,1)) ≠ to_power(tau,2) * to_power(tau,sk₁)</text>
</a>
</g>
</g>
<!-- c_0_92&#45;&gt;c_0_109 -->
<g id="edge2" class="edge">
<title>c_0_92&#45;&gt;c_0_109</title>
<path fill="none" stroke="black" d="M518,-120.33C518,-120.33 518,-93.7 518,-93.7"/>
<polygon fill="black" stroke="black" points="521.5,-93.7 518,-83.7 514.5,-93.7 521.5,-93.7"/>
</g>
<!-- c_0_80 -->
<g id="node3" class="node">
<title>c_0_80</title>
<g id="a_node3"><a xlink:href="c_0_80.html" xlink:title="{to_power(R₁,1) = R₁}" target="_vizar">
<polygon fill="#f8edd1" stroke="#7f7542" points="16,-120.5 16,-135.5 158,-135.5 158,-120.5 16,-120.5"/>
<text text-anchor="middle" x="87" y="-124.3" font-family="Times,serif" font-size="14.00">to_power(R₁,1) = R₁</text>
</a>
</g>
</g>
<!-- c_0_80&#45;&gt;c_0_109 -->
<g id="edge3" class="edge">
<title>c_0_80&#45;&gt;c_0_109</title>
<path fill="none" stroke="black" d="M87,-120.33C87,-105.86 87,-76 87,-76 87,-76 210.71,-76 210.71,-76"/>
<polygon fill="black" stroke="black" points="210.71,-79.5 220.71,-76 210.71,-72.5 210.71,-79.5"/>
</g>
<!-- c_0_125 -->
<g id="node5" class="node">
<title>c_0_125</title>
<g id="a_node5"><a xlink:href="c_0_125.html" xlink:title="{to_power(tau,2) * to_power(tau,sk₁) ≠ to_power(tau,sk₁) + (tau * to_power(tau,sk₁))}" target="_vizar">
<polygon fill="#fa6900" stroke="#7f7542" points="221,-16.5 221,-31.5 815,-31.5 815,-16.5 221,-16.5"/>
<text text-anchor="middle" x="518" y="-20.3" font-family="Times,serif" font-size="14.00">to_power(tau,2) * to_power(tau,sk₁) ≠ to_power(tau,sk₁) + (tau * to_power(tau,sk₁))</text>
</a>
</g>
</g>
<!-- c_0_109&#45;&gt;c_0_125 -->
<g id="edge4" class="edge">
<title>c_0_109&#45;&gt;c_0_125</title>
<path fill="none" stroke="black" stroke-dasharray="5,2" d="M518,-68.33C518,-68.33 518,-41.7 518,-41.7"/>
<polygon fill="black" stroke="black" points="521.5,-41.7 518,-31.7 514.5,-41.7 521.5,-41.7"/>
</g>
</g>
</svg>
