<?xml version="1.0" encoding="UTF-8" standalone="no"?>
<!DOCTYPE svg PUBLIC "-//W3C//DTD SVG 1.1//EN"
 "http://www.w3.org/Graphics/SVG/1.1/DTD/svg11.dtd">
<!-- Generated by graphviz version 5.0.0 (0)
 -->
<!-- Title: proof Pages: 1 -->
<svg width="356pt" height="160pt"
 viewBox="0.00 0.00 356.00 160.00" xmlns="http://www.w3.org/2000/svg" xmlns:xlink="http://www.w3.org/1999/xlink">
<g id="graph0" class="graph" transform="scale(1 1) rotate(0) translate(4 156)">
<title>proof</title>
<g id="clust1" class="cluster">
<title>cluster_0</title>
<polygon fill="transparent" stroke="black" stroke-dasharray="1,5" points="8,-112 8,-144 340,-144 340,-112 8,-112"/>
</g>
<g id="clust2" class="cluster">
<title>cluster_1</title>
<polygon fill="transparent" stroke="black" stroke-width="2" points="94,-60 94,-92 238,-92 238,-60 94,-60"/>
</g>
<g id="clust3" class="cluster">
<title>cluster_2</title>
<polygon fill="transparent" stroke="black" stroke-dasharray="1,5" points="135,-8 135,-40 197,-40 197,-8 135,-8"/>
</g>
<!-- c_0_76 -->
<g id="node1" class="node">
<title>c_0_76</title>
<g id="a_node1"><a xlink:href="c_0_76.html" xlink:title="{τ⁺ = (1 + (√5)) / 2}" target="_vizar">
<polygon fill="#f8edd1" stroke="#7f7542" points="204,-120.5 204,-135.5 332,-135.5 332,-120.5 204,-120.5"/>
<text text-anchor="middle" x="268" y="-124.3" font-family="Times,serif" font-size="14.00">τ⁺ = (1 + (√5)) / 2</text>
</a>
</g>
</g>
<!-- c_0_88 -->
<g id="node4" class="node">
<title>c_0_88</title>
<g id="a_node4"><a xlink:href="c_0_88.html" xlink:title="{(1 + (√5)) / 2 = τ⁺}" target="_vizar">
<polygon fill="#f8edd1" stroke="#7f7542" points="102,-68.5 102,-83.5 230,-83.5 230,-68.5 102,-68.5"/>
<text text-anchor="middle" x="166" y="-72.3" font-family="Times,serif" font-size="14.00">(1 + (√5)) / 2 = τ⁺</text>
</a>
</g>
</g>
<!-- c_0_76&#45;&gt;c_0_88 -->
<g id="edge1" class="edge">
<title>c_0_76&#45;&gt;c_0_88</title>
<path fill="none" stroke="black" d="M217,-120.33C217,-120.33 217,-93.7 217,-93.7"/>
<polygon fill="black" stroke="black" points="220.5,-93.7 217,-83.7 213.5,-93.7 220.5,-93.7"/>
</g>
<!-- c_0_71 -->
<g id="node2" class="node">
<title>c_0_71</title>
<g id="a_node2"><a xlink:href="c_0_71.html" xlink:title="{2 ∈ ℂ}" target="_vizar">
<polygon fill="#f8edd1" stroke="#7f7542" points="146,-120.5 146,-135.5 186,-135.5 186,-120.5 146,-120.5"/>
<text text-anchor="middle" x="166" y="-124.3" font-family="Times,serif" font-size="14.00">2 ∈ ℂ</text>
</a>
</g>
</g>
<!-- c_0_71&#45;&gt;c_0_88 -->
<g id="edge2" class="edge">
<title>c_0_71&#45;&gt;c_0_88</title>
<path fill="none" stroke="black" d="M166,-120.33C166,-120.33 166,-93.7 166,-93.7"/>
<polygon fill="black" stroke="black" points="169.5,-93.7 166,-83.7 162.5,-93.7 169.5,-93.7"/>
</g>
<!-- c_0_77 -->
<g id="node3" class="node">
<title>c_0_77</title>
<g id="a_node3"><a xlink:href="c_0_77.html" xlink:title="{C₁ / C₂ = C₁ / C₂}" target="_vizar">
<polygon fill="#f8edd1" stroke="#7f7542" points="16,-120.5 16,-135.5 128,-135.5 128,-120.5 16,-120.5"/>
<text text-anchor="middle" x="72" y="-124.3" font-family="Times,serif" font-size="14.00">C₁ / C₂ = C₁ / C₂</text>
</a>
</g>
</g>
<!-- c_0_77&#45;&gt;c_0_88 -->
<g id="edge3" class="edge">
<title>c_0_77&#45;&gt;c_0_88</title>
<path fill="none" stroke="black" d="M115,-120.33C115,-120.33 115,-93.7 115,-93.7"/>
<polygon fill="black" stroke="black" points="118.5,-93.7 115,-83.7 111.5,-93.7 118.5,-93.7"/>
</g>
<!-- c_0_129 -->
<g id="node5" class="node">
<title>c_0_129</title>
<g id="a_node5"><a xlink:href="c_0_129.html" xlink:title="{τ⁺ ∈ ℂ}" target="_vizar">
<polygon fill="#f8edd1" stroke="#7f7542" points="143,-16.5 143,-31.5 189,-31.5 189,-16.5 143,-16.5"/>
<text text-anchor="middle" x="166" y="-20.3" font-family="Times,serif" font-size="14.00">τ⁺ ∈ ℂ</text>
</a>
</g>
</g>
<!-- c_0_88&#45;&gt;c_0_129 -->
<g id="edge4" class="edge">
<title>c_0_88&#45;&gt;c_0_129</title>
<path fill="none" stroke="black" stroke-dasharray="5,2" d="M166,-68.33C166,-68.33 166,-41.7 166,-41.7"/>
<polygon fill="black" stroke="black" points="169.5,-41.7 166,-31.7 162.5,-41.7 169.5,-41.7"/>
</g>
</g>
</svg>
