<?xml version="1.0" encoding="UTF-8" standalone="no"?>
<!DOCTYPE svg PUBLIC "-//W3C//DTD SVG 1.1//EN"
 "http://www.w3.org/Graphics/SVG/1.1/DTD/svg11.dtd">
<!-- Generated by graphviz version 5.0.0 (0)
 -->
<!-- Title: proof Pages: 1 -->
<svg width="634pt" height="190pt"
 viewBox="0.00 0.00 634.00 190.00" xmlns="http://www.w3.org/2000/svg" xmlns:xlink="http://www.w3.org/1999/xlink">
<g id="graph0" class="graph" transform="scale(1 1) rotate(0) translate(4 186)">
<title>proof</title>
<g id="clust1" class="cluster">
<title>cluster_0</title>
<polygon fill="transparent" stroke="black" stroke-dasharray="1,5" points="8,-112 8,-174 618,-174 618,-112 8,-112"/>
</g>
<g id="clust2" class="cluster">
<title>cluster_1</title>
<polygon fill="transparent" stroke="black" stroke-width="2" points="111,-60 111,-92 443,-92 443,-60 111,-60"/>
</g>
<g id="clust3" class="cluster">
<title>cluster_2</title>
<polygon fill="transparent" stroke="black" stroke-dasharray="1,5" points="111,-8 111,-40 443,-40 443,-8 111,-8"/>
</g>
<!-- c_0_39 -->
<g id="node1" class="node">
<title>c_0_39</title>
<g id="a_node1"><a xlink:href="c_0_39.html" xlink:title="{1 ∈ ℕ}" target="_vizar">
<polygon fill="#f8edd1" stroke="#7f7542" points="568,-135.5 568,-150.5 610,-150.5 610,-135.5 568,-135.5"/>
<text text-anchor="middle" x="589" y="-139.3" font-family="Times,serif" font-size="14.00">1 ∈ ℕ</text>
</a>
</g>
</g>
<!-- c_0_51 -->
<g id="node5" class="node">
<title>c_0_51</title>
<g id="a_node5"><a xlink:href="c_0_51.html" xlink:title="{τ⁺ ^ (sk₁ + 2) ≠ (τ⁺ ^ sk₁) + (τ⁺ ^ (sk₁ + 1))}" target="_vizar">
<polygon fill="#fa6900" stroke="#7f7542" points="119,-68.5 119,-83.5 435,-83.5 435,-68.5 119,-68.5"/>
<text text-anchor="middle" x="277" y="-72.3" font-family="Times,serif" font-size="14.00">τ⁺ ^ (sk₁ + 2) ≠ (τ⁺ ^ sk₁) + (τ⁺ ^ (sk₁ + 1))</text>
</a>
</g>
</g>
<!-- c_0_39&#45;&gt;c_0_51 -->
<g id="edge1" class="edge">
<title>c_0_39&#45;&gt;c_0_51</title>
<path fill="none" stroke="black" d="M589,-135.31C589,-117.72 589,-76 589,-76 589,-76 445.29,-76 445.29,-76"/>
<polygon fill="black" stroke="black" points="445.29,-72.5 435.29,-76 445.29,-79.5 445.29,-72.5"/>
</g>
<!-- c_0_37 -->
<g id="node2" class="node">
<title>c_0_37</title>
<g id="a_node2"><a xlink:href="c_0_37.html" xlink:title="{(τ⁺ ^ sk₁) + (τ⁺ ^ (sk₁ + 1)) ≠ τ⁺ ^ (sk₁ + 2)}" target="_vizar">
<polygon fill="#fa6900" stroke="#7f7542" points="234,-135.5 234,-150.5 550,-150.5 550,-135.5 234,-135.5"/>
<text text-anchor="middle" x="392" y="-139.3" font-family="Times,serif" font-size="14.00">(τ⁺ ^ sk₁) + (τ⁺ ^ (sk₁ + 1)) ≠ τ⁺ ^ (sk₁ + 2)</text>
</a>
</g>
</g>
<!-- c_0_37&#45;&gt;c_0_51 -->
<g id="edge2" class="edge">
<title>c_0_37&#45;&gt;c_0_51</title>
<path fill="none" stroke="black" d="M334.5,-135.31C334.5,-135.31 334.5,-93.6 334.5,-93.6"/>
<polygon fill="black" stroke="black" points="338,-93.6 334.5,-83.6 331,-93.6 338,-93.6"/>
</g>
<!-- c_0_38 -->
<g id="node3" class="node">
<title>c_0_38</title>
<g id="a_node3"><a xlink:href="c_0_38.html" xlink:title="{X₂ ∈ ℕ|⇊|N₁ + X₂ = N₁ + X₂}" target="_vizar">
<polygon fill="#f8edd1" stroke="#7f7542" points="88,-120.5 88,-165.5 216,-165.5 216,-120.5 88,-120.5"/>
<text text-anchor="middle" x="152" y="-154.3" font-family="Times,serif" font-size="14.00">X₂ ∈ ℕ</text>
<polyline fill="none" stroke="#7f7542" points="88,-150.5 216,-150.5 "/>
<text text-anchor="middle" x="152" y="-139.3" font-family="Times,serif" font-size="14.00">⇊</text>
<polyline fill="none" stroke="#7f7542" points="88,-135.5 216,-135.5 "/>
<text text-anchor="middle" x="152" y="-124.3" font-family="Times,serif" font-size="14.00">N₁ + X₂ = N₁ + X₂</text>
</a>
</g>
</g>
<!-- c_0_38&#45;&gt;c_0_51 -->
<g id="edge3" class="edge">
<title>c_0_38&#45;&gt;c_0_51</title>
<path fill="none" stroke="black" d="M167.5,-120.32C167.5,-120.32 167.5,-93.59 167.5,-93.59"/>
<polygon fill="black" stroke="black" points="171,-93.59 167.5,-83.59 164,-93.59 171,-93.59"/>
</g>
<!-- c_0_40 -->
<g id="node4" class="node">
<title>c_0_40</title>
<g id="a_node4"><a xlink:href="c_0_40.html" xlink:title="{sk₁ ∈ ℕ}" target="_vizar">
<polygon fill="#fa6900" stroke="#7f7542" points="16,-135.5 16,-150.5 70,-150.5 70,-135.5 16,-135.5"/>
<text text-anchor="middle" x="43" y="-139.3" font-family="Times,serif" font-size="14.00">sk₁ ∈ ℕ</text>
</a>
</g>
</g>
<!-- c_0_40&#45;&gt;c_0_51 -->
<g id="edge4" class="edge">
<title>c_0_40&#45;&gt;c_0_51</title>
<path fill="none" stroke="black" d="M43,-135.31C43,-117.72 43,-76 43,-76 43,-76 108.97,-76 108.97,-76"/>
<polygon fill="black" stroke="black" points="108.97,-79.5 118.97,-76 108.97,-72.5 108.97,-79.5"/>
</g>
<!-- c_0_58 -->
<g id="node6" class="node">
<title>c_0_58</title>
<g id="a_node6"><a xlink:href="c_0_58.html" xlink:title="{(τ⁺ ^ sk₁) + (τ⁺ ^ (sk₁ + 1)) ≠ τ⁺ ^ (sk₁ + 2)}" target="_vizar">
<polygon fill="#fa6900" stroke="#7f7542" points="119,-16.5 119,-31.5 435,-31.5 435,-16.5 119,-16.5"/>
<text text-anchor="middle" x="277" y="-20.3" font-family="Times,serif" font-size="14.00">(τ⁺ ^ sk₁) + (τ⁺ ^ (sk₁ + 1)) ≠ τ⁺ ^ (sk₁ + 2)</text>
</a>
</g>
</g>
<!-- c_0_51&#45;&gt;c_0_58 -->
<g id="edge5" class="edge">
<title>c_0_51&#45;&gt;c_0_58</title>
<path fill="none" stroke="black" stroke-dasharray="5,2" d="M277,-68.33C277,-68.33 277,-41.7 277,-41.7"/>
<polygon fill="black" stroke="black" points="280.5,-41.7 277,-31.7 273.5,-41.7 280.5,-41.7"/>
</g>
</g>
</svg>
