<?xml version="1.0" encoding="UTF-8" standalone="no"?>
<!DOCTYPE svg PUBLIC "-//W3C//DTD SVG 1.1//EN"
 "http://www.w3.org/Graphics/SVG/1.1/DTD/svg11.dtd">
<!-- Generated by graphviz version 5.0.0 (0)
 -->
<!-- Title: proof Pages: 1 -->
<svg width="932pt" height="926pt"
 viewBox="0.00 0.00 931.50 926.00" xmlns="http://www.w3.org/2000/svg" xmlns:xlink="http://www.w3.org/1999/xlink">
<g id="graph0" class="graph" transform="scale(1 1) rotate(0) translate(4 922)">
<title>proof</title>
<g id="clust1" class="cluster">
<title>cluster_0</title>
<polygon fill="#ffc233" stroke="#ffc233" points="8,-8 8,-910 502,-910 502,-8 8,-8"/>
</g>
<!-- t9_fib_num3 -->
<g id="node1" class="node">
<title>t9_fib_num3</title>
<g id="a_node1"><a xlink:href="t9_fib_num3.html" xlink:title="t9_fib_num3" target="_vizar">
<polygon fill="#fa6900" stroke="#7f7542" points="188,-886.5 188,-901.5 276,-901.5 276,-886.5 188,-886.5"/>
<text text-anchor="middle" x="232" y="-890.3" font-family="Times,serif" font-size="14.00">t9_fib_num3</text>
</a>
</g>
</g>
<!-- c_0_37 -->
<g id="node2" class="node">
<title>c_0_37</title>
<g id="a_node2"><a xlink:href="c_0_37.html" xlink:title="{(τ⁺ ^ sk₁) + (τ⁺ ^ (sk₁ + 1)) ≠ τ⁺ ^ (sk₁ + 2)}" target="_vizar">
<polygon fill="#fa6900" stroke="#7f7542" points="176,-834.5 176,-849.5 492,-849.5 492,-834.5 176,-834.5"/>
<text text-anchor="middle" x="334" y="-838.3" font-family="Times,serif" font-size="14.00">(τ⁺ ^ sk₁) + (τ⁺ ^ (sk₁ + 1)) ≠ τ⁺ ^ (sk₁ + 2)</text>
</a>
</g>
</g>
<!-- t9_fib_num3&#45;&gt;c_0_37 -->
<g id="edge1" class="edge">
<title>t9_fib_num3&#45;&gt;c_0_37</title>
<path fill="none" stroke="black" d="M232,-886.33C232,-886.33 232,-859.7 232,-859.7"/>
<polygon fill="black" stroke="black" points="235.5,-859.7 232,-849.7 228.5,-859.7 235.5,-859.7"/>
</g>
<!-- c_0_40 -->
<g id="node3" class="node">
<title>c_0_40</title>
<g id="a_node3"><a xlink:href="c_0_40.html" xlink:title="{sk₁ ∈ ℕ}" target="_vizar">
<polygon fill="#fa6900" stroke="#7f7542" points="104,-834.5 104,-849.5 158,-849.5 158,-834.5 104,-834.5"/>
<text text-anchor="middle" x="131" y="-838.3" font-family="Times,serif" font-size="14.00">sk₁ ∈ ℕ</text>
</a>
</g>
</g>
<!-- t9_fib_num3&#45;&gt;c_0_40 -->
<g id="edge2" class="edge">
<title>t9_fib_num3&#45;&gt;c_0_40</title>
<path fill="none" stroke="black" d="M187.99,-894C160.78,-894 131,-894 131,-894 131,-894 131,-859.67 131,-859.67"/>
<polygon fill="black" stroke="black" points="134.5,-859.67 131,-849.67 127.5,-859.67 134.5,-859.67"/>
</g>
<!-- c_0_51 -->
<g id="node4" class="node">
<title>c_0_51</title>
<g id="a_node4"><a xlink:href="c_0_51.html" xlink:title="{τ⁺ ^ (sk₁ + 2) ≠ (τ⁺ ^ sk₁) + (τ⁺ ^ (sk₁ + 1))}" target="_vizar">
<polygon fill="#fa6900" stroke="#7f7542" points="176,-782.5 176,-797.5 492,-797.5 492,-782.5 176,-782.5"/>
<text text-anchor="middle" x="334" y="-786.3" font-family="Times,serif" font-size="14.00">τ⁺ ^ (sk₁ + 2) ≠ (τ⁺ ^ sk₁) + (τ⁺ ^ (sk₁ + 1))</text>
</a>
</g>
</g>
<!-- c_0_37&#45;&gt;c_0_51 -->
<g id="edge3" class="edge">
<title>c_0_37&#45;&gt;c_0_51</title>
<path fill="none" stroke="black" d="M255,-834.33C255,-834.33 255,-807.7 255,-807.7"/>
<polygon fill="black" stroke="black" points="258.5,-807.7 255,-797.7 251.5,-807.7 258.5,-807.7"/>
</g>
<!-- c_0_40&#45;&gt;c_0_51 -->
<g id="edge4" class="edge">
<title>c_0_40&#45;&gt;c_0_51</title>
<path fill="none" stroke="black" d="M153.9,-834.33C153.9,-819.86 153.9,-790 153.9,-790 153.9,-790 165.98,-790 165.98,-790"/>
<polygon fill="black" stroke="black" points="165.98,-793.5 175.98,-790 165.98,-786.5 165.98,-793.5"/>
</g>
<!-- c_0_58 -->
<g id="node5" class="node">
<title>c_0_58</title>
<g id="a_node5"><a xlink:href="c_0_58.html" xlink:title="{(τ⁺ ^ sk₁) + (τ⁺ ^ (sk₁ + 1)) ≠ τ⁺ ^ (sk₁ + 2)}" target="_vizar">
<polygon fill="#fa6900" stroke="#7f7542" points="178,-730.5 178,-745.5 494,-745.5 494,-730.5 178,-730.5"/>
<text text-anchor="middle" x="336" y="-734.3" font-family="Times,serif" font-size="14.00">(τ⁺ ^ sk₁) + (τ⁺ ^ (sk₁ + 1)) ≠ τ⁺ ^ (sk₁ + 2)</text>
</a>
</g>
</g>
<!-- c_0_40&#45;&gt;c_0_58 -->
<g id="edge6" class="edge">
<title>c_0_40&#45;&gt;c_0_58</title>
<path fill="none" stroke="black" d="M158.04,-844C165.64,-844 171.88,-844 171.88,-844 171.88,-844 171.88,-738 171.88,-738 171.88,-738 172.46,-738 172.46,-738"/>
<polygon fill="black" stroke="black" points="167.72,-741.5 177.72,-738 167.72,-734.5 167.72,-741.5"/>
</g>
<!-- c_0_65 -->
<g id="node6" class="node">
<title>c_0_65</title>
<g id="a_node6"><a xlink:href="c_0_65.html" xlink:title="{τ⁺ ^ (sk₁ + 2) ≠ (τ⁺ ^ sk₁) + ((τ⁺ ^ sk₁) * (τ⁺ ^ 1))}" target="_vizar">
<polygon fill="#fa6900" stroke="#7f7542" points="82.5,-678.5 82.5,-693.5 439.5,-693.5 439.5,-678.5 82.5,-678.5"/>
<text text-anchor="middle" x="261" y="-682.3" font-family="Times,serif" font-size="14.00">τ⁺ ^ (sk₁ + 2) ≠ (τ⁺ ^ sk₁) + ((τ⁺ ^ sk₁) * (τ⁺ ^ 1))</text>
</a>
</g>
</g>
<!-- c_0_40&#45;&gt;c_0_65 -->
<g id="edge8" class="edge">
<title>c_0_40&#45;&gt;c_0_65</title>
<path fill="none" stroke="black" d="M158.24,-839C161.46,-839 163.62,-839 163.62,-839 163.62,-839 163.62,-703.8 163.62,-703.8"/>
<polygon fill="black" stroke="black" points="167.13,-703.8 163.62,-693.8 160.13,-703.8 167.13,-703.8"/>
</g>
<!-- c_0_92 -->
<g id="node8" class="node">
<title>c_0_92</title>
<g id="a_node8"><a xlink:href="c_0_92.html" xlink:title="{(τ⁺ ^ sk₁) + ((τ⁺ ^ sk₁) * (τ⁺ ^ 1)) ≠ (τ⁺ ^ 2) * (τ⁺ ^ sk₁)}" target="_vizar">
<polygon fill="#fa6900" stroke="#7f7542" points="94,-574.5 94,-589.5 492,-589.5 492,-574.5 94,-574.5"/>
<text text-anchor="middle" x="293" y="-578.3" font-family="Times,serif" font-size="14.00">(τ⁺ ^ sk₁) + ((τ⁺ ^ sk₁) * (τ⁺ ^ 1)) ≠ (τ⁺ ^ 2) * (τ⁺ ^ sk₁)</text>
</a>
</g>
</g>
<!-- c_0_40&#45;&gt;c_0_92 -->
<g id="edge11" class="edge">
<title>c_0_40&#45;&gt;c_0_92</title>
<path fill="none" stroke="black" d="M103.93,-844C70.5,-844 18,-844 18,-844 18,-844 18,-582 18,-582 18,-582 83.87,-582 83.87,-582"/>
<polygon fill="black" stroke="black" points="83.87,-585.5 93.87,-582 83.87,-578.5 83.87,-585.5"/>
</g>
<!-- c_0_139 -->
<g id="node11" class="node">
<title>c_0_139</title>
<g id="a_node11"><a xlink:href="c_0_139.html" xlink:title="{sk₁ ∈ ℂ}" target="_vizar">
<polygon fill="#fa6900" stroke="#7f7542" points="36,-730.5 36,-745.5 88,-745.5 88,-730.5 36,-730.5"/>
<text text-anchor="middle" x="62" y="-734.3" font-family="Times,serif" font-size="14.00">sk₁ ∈ ℂ</text>
</a>
</g>
</g>
<!-- c_0_40&#45;&gt;c_0_139 -->
<g id="edge17" class="edge">
<title>c_0_40&#45;&gt;c_0_139</title>
<path fill="none" stroke="black" d="M103.87,-839C78.75,-839 45.25,-839 45.25,-839 45.25,-839 45.25,-755.59 45.25,-755.59"/>
<polygon fill="black" stroke="black" points="48.75,-755.59 45.25,-745.59 41.75,-755.59 48.75,-755.59"/>
</g>
<!-- c_0_128 -->
<g id="node12" class="node">
<title>c_0_128</title>
<g id="a_node12"><a xlink:href="c_0_128.html" xlink:title="{&#45;(&#45;sk₁) = sk₁}" target="_vizar">
<polygon fill="#fa6900" stroke="#7f7542" points="54.5,-782.5 54.5,-797.5 137.5,-797.5 137.5,-782.5 54.5,-782.5"/>
<text text-anchor="middle" x="96" y="-786.3" font-family="Times,serif" font-size="14.00">&#45;(&#45;sk₁) = sk₁</text>
</a>
</g>
</g>
<!-- c_0_40&#45;&gt;c_0_128 -->
<g id="edge15" class="edge">
<title>c_0_40&#45;&gt;c_0_128</title>
<path fill="none" stroke="black" d="M115.17,-834.33C115.17,-834.33 115.17,-807.7 115.17,-807.7"/>
<polygon fill="black" stroke="black" points="118.67,-807.7 115.17,-797.7 111.67,-807.7 118.67,-807.7"/>
</g>
<!-- c_0_170 -->
<g id="node18" class="node">
<title>c_0_170</title>
<g id="a_node18"><a xlink:href="c_0_170.html" xlink:title="{sk₁ ∈ ℝ}" target="_vizar">
<polygon fill="#fa6900" stroke="#7f7542" points="106.5,-730.5 106.5,-745.5 159.5,-745.5 159.5,-730.5 106.5,-730.5"/>
<text text-anchor="middle" x="133" y="-734.3" font-family="Times,serif" font-size="14.00">sk₁ ∈ ℝ</text>
</a>
</g>
</g>
<!-- c_0_40&#45;&gt;c_0_170 -->
<g id="edge24" class="edge">
<title>c_0_40&#45;&gt;c_0_170</title>
<path fill="none" stroke="black" d="M141.6,-834.18C141.6,-834.18 141.6,-755.62 141.6,-755.62"/>
<polygon fill="black" stroke="black" points="145.1,-755.62 141.6,-745.62 138.1,-755.63 145.1,-755.62"/>
</g>
<!-- c_0_51&#45;&gt;c_0_58 -->
<g id="edge5" class="edge">
<title>c_0_51&#45;&gt;c_0_58</title>
<path fill="none" stroke="black" d="M282.67,-782.33C282.67,-782.33 282.67,-755.7 282.67,-755.7"/>
<polygon fill="black" stroke="black" points="286.17,-755.7 282.67,-745.7 279.17,-755.7 286.17,-755.7"/>
</g>
<!-- c_0_58&#45;&gt;c_0_65 -->
<g id="edge7" class="edge">
<title>c_0_58&#45;&gt;c_0_65</title>
<path fill="none" stroke="black" d="M265.17,-730.33C265.17,-730.33 265.17,-703.7 265.17,-703.7"/>
<polygon fill="black" stroke="black" points="268.67,-703.7 265.17,-693.7 261.67,-703.7 268.67,-703.7"/>
</g>
<!-- c_0_70 -->
<g id="node7" class="node">
<title>c_0_70</title>
<g id="a_node7"><a xlink:href="c_0_70.html" xlink:title="{τ⁺ ^ (2 + sk₁) ≠ (τ⁺ ^ sk₁) + ((τ⁺ ^ sk₁) * (τ⁺ ^ 1))}" target="_vizar">
<polygon fill="#fa6900" stroke="#7f7542" points="125.5,-626.5 125.5,-641.5 482.5,-641.5 482.5,-626.5 125.5,-626.5"/>
<text text-anchor="middle" x="304" y="-630.3" font-family="Times,serif" font-size="14.00">τ⁺ ^ (2 + sk₁) ≠ (τ⁺ ^ sk₁) + ((τ⁺ ^ sk₁) * (τ⁺ ^ 1))</text>
</a>
</g>
</g>
<!-- c_0_65&#45;&gt;c_0_70 -->
<g id="edge9" class="edge">
<title>c_0_65&#45;&gt;c_0_70</title>
<path fill="none" stroke="black" d="M282.5,-678.33C282.5,-678.33 282.5,-651.7 282.5,-651.7"/>
<polygon fill="black" stroke="black" points="286,-651.7 282.5,-641.7 279,-651.7 286,-651.7"/>
</g>
<!-- c_0_70&#45;&gt;c_0_92 -->
<g id="edge10" class="edge">
<title>c_0_70&#45;&gt;c_0_92</title>
<path fill="none" stroke="black" d="M304,-626.33C304,-626.33 304,-599.7 304,-599.7"/>
<polygon fill="black" stroke="black" points="307.5,-599.7 304,-589.7 300.5,-599.7 307.5,-599.7"/>
</g>
<!-- c_0_109 -->
<g id="node9" class="node">
<title>c_0_109</title>
<g id="a_node9"><a xlink:href="c_0_109.html" xlink:title="{(τ⁺ ^ sk₁) + ((τ⁺ ^ sk₁) * τ⁺) ≠ (τ⁺ ^ 2) * (τ⁺ ^ sk₁)}" target="_vizar">
<polygon fill="#fa6900" stroke="#7f7542" points="132,-522.5 132,-537.5 490,-537.5 490,-522.5 132,-522.5"/>
<text text-anchor="middle" x="311" y="-526.3" font-family="Times,serif" font-size="14.00">(τ⁺ ^ sk₁) + ((τ⁺ ^ sk₁) * τ⁺) ≠ (τ⁺ ^ 2) * (τ⁺ ^ sk₁)</text>
</a>
</g>
</g>
<!-- c_0_92&#45;&gt;c_0_109 -->
<g id="edge12" class="edge">
<title>c_0_92&#45;&gt;c_0_109</title>
<path fill="none" stroke="black" d="M251.33,-574.33C251.33,-574.33 251.33,-547.7 251.33,-547.7"/>
<polygon fill="black" stroke="black" points="254.83,-547.7 251.33,-537.7 247.83,-547.7 254.83,-547.7"/>
</g>
<!-- c_0_125 -->
<g id="node10" class="node">
<title>c_0_125</title>
<g id="a_node10"><a xlink:href="c_0_125.html" xlink:title="{(τ⁺ ^ 2) * (τ⁺ ^ sk₁) ≠ (τ⁺ ^ sk₁) + (τ⁺ * (τ⁺ ^ sk₁))}" target="_vizar">
<polygon fill="#fa6900" stroke="#7f7542" points="135,-470.5 135,-485.5 493,-485.5 493,-470.5 135,-470.5"/>
<text text-anchor="middle" x="314" y="-474.3" font-family="Times,serif" font-size="14.00">(τ⁺ ^ 2) * (τ⁺ ^ sk₁) ≠ (τ⁺ ^ sk₁) + (τ⁺ * (τ⁺ ^ sk₁))</text>
</a>
</g>
</g>
<!-- c_0_109&#45;&gt;c_0_125 -->
<g id="edge13" class="edge">
<title>c_0_109&#45;&gt;c_0_125</title>
<path fill="none" stroke="black" d="M206,-522.33C206,-522.33 206,-495.7 206,-495.7"/>
<polygon fill="black" stroke="black" points="209.5,-495.7 206,-485.7 202.5,-495.7 209.5,-495.7"/>
</g>
<!-- c_0_152 -->
<g id="node13" class="node">
<title>c_0_152</title>
<g id="a_node13"><a xlink:href="c_0_152.html" xlink:title="{(τ⁺ * (τ⁺ ^ sk₁)) + (1 * (τ⁺ ^ sk₁)) ≠ (τ⁺ ^ sk₁) + (τ⁺ * (τ⁺ ^ sk₁))}" target="_vizar">
<polygon fill="#fa6900" stroke="#7f7542" points="42.5,-418.5 42.5,-433.5 493.5,-433.5 493.5,-418.5 42.5,-418.5"/>
<text text-anchor="middle" x="268" y="-422.3" font-family="Times,serif" font-size="14.00">(τ⁺ * (τ⁺ ^ sk₁)) + (1 * (τ⁺ ^ sk₁)) ≠ (τ⁺ ^ sk₁) + (τ⁺ * (τ⁺ ^ sk₁))</text>
</a>
</g>
</g>
<!-- c_0_125&#45;&gt;c_0_152 -->
<g id="edge18" class="edge">
<title>c_0_125&#45;&gt;c_0_152</title>
<path fill="none" stroke="black" d="M314,-470.33C314,-470.33 314,-443.7 314,-443.7"/>
<polygon fill="black" stroke="black" points="317.5,-443.7 314,-433.7 310.5,-443.7 317.5,-443.7"/>
</g>
<!-- c_0_139&#45;&gt;c_0_125 -->
<g id="edge14" class="edge">
<title>c_0_139&#45;&gt;c_0_125</title>
<path fill="none" stroke="black" d="M62.5,-730.5C62.5,-687.87 62.5,-478 62.5,-478 62.5,-478 124.91,-478 124.91,-478"/>
<polygon fill="black" stroke="black" points="124.91,-481.5 134.91,-478 124.91,-474.5 124.91,-481.5"/>
</g>
<!-- c_0_128&#45;&gt;c_0_139 -->
<g id="edge16" class="edge">
<title>c_0_128&#45;&gt;c_0_139</title>
<path fill="none" stroke="black" d="M65.67,-782.33C65.67,-782.33 65.67,-755.7 65.67,-755.7"/>
<polygon fill="black" stroke="black" points="69.17,-755.7 65.67,-745.7 62.17,-755.7 69.17,-755.7"/>
</g>
<!-- c_0_128&#45;&gt;c_0_170 -->
<g id="edge23" class="edge">
<title>c_0_128&#45;&gt;c_0_170</title>
<path fill="none" stroke="black" d="M122,-782.33C122,-782.33 122,-755.7 122,-755.7"/>
<polygon fill="black" stroke="black" points="125.5,-755.7 122,-745.7 118.5,-755.7 125.5,-755.7"/>
</g>
<!-- c_0_155 -->
<g id="node14" class="node">
<title>c_0_155</title>
<g id="a_node14"><a xlink:href="c_0_155.html" xlink:title="{(τ⁺ * (τ⁺ ^ sk₁)) + (τ⁺ ^ sk₁) ≠ (τ⁺ ^ sk₁) + (τ⁺ * (τ⁺ ^ sk₁))}" target="_vizar">
<polygon fill="#fa6900" stroke="#7f7542" points="78,-366.5 78,-381.5 494,-381.5 494,-366.5 78,-366.5"/>
<text text-anchor="middle" x="286" y="-370.3" font-family="Times,serif" font-size="14.00">(τ⁺ * (τ⁺ ^ sk₁)) + (τ⁺ ^ sk₁) ≠ (τ⁺ ^ sk₁) + (τ⁺ * (τ⁺ ^ sk₁))</text>
</a>
</g>
</g>
<!-- c_0_152&#45;&gt;c_0_155 -->
<g id="edge19" class="edge">
<title>c_0_152&#45;&gt;c_0_155</title>
<path fill="none" stroke="black" d="M285.75,-418.33C285.75,-418.33 285.75,-391.7 285.75,-391.7"/>
<polygon fill="black" stroke="black" points="289.25,-391.7 285.75,-381.7 282.25,-391.7 289.25,-391.7"/>
</g>
<!-- c_0_159 -->
<g id="node15" class="node">
<title>c_0_159</title>
<g id="a_node15"><a xlink:href="c_0_159.html" xlink:title="{τ⁺ ^ sk₁ ∈ ℂ|⇊|τ⁺ * (τ⁺ ^ sk₁) ∉ ℂ}" target="_vizar">
<polygon fill="#fa6900" stroke="#7f7542" points="364,-284.5 364,-329.5 494,-329.5 494,-284.5 364,-284.5"/>
<text text-anchor="middle" x="429" y="-318.3" font-family="Times,serif" font-size="14.00">τ⁺ ^ sk₁ ∈ ℂ</text>
<polyline fill="none" stroke="#7f7542" points="364,-314.5 494,-314.5 "/>
<text text-anchor="middle" x="429" y="-303.3" font-family="Times,serif" font-size="14.00">⇊</text>
<polyline fill="none" stroke="#7f7542" points="364,-299.5 494,-299.5 "/>
<text text-anchor="middle" x="429" y="-288.3" font-family="Times,serif" font-size="14.00">τ⁺ * (τ⁺ ^ sk₁) ∉ ℂ</text>
</a>
</g>
</g>
<!-- c_0_155&#45;&gt;c_0_159 -->
<g id="edge20" class="edge">
<title>c_0_155&#45;&gt;c_0_159</title>
<path fill="none" stroke="black" d="M429,-366.31C429,-366.31 429,-339.76 429,-339.76"/>
<polygon fill="black" stroke="black" points="432.5,-339.76 429,-329.76 425.5,-339.76 432.5,-339.76"/>
</g>
<!-- c_0_163 -->
<g id="node16" class="node">
<title>c_0_163</title>
<g id="a_node16"><a xlink:href="c_0_163.html" xlink:title="{τ⁺ ^ sk₁ ∈ ℂ|⇊|τ⁺ * (τ⁺ ^ sk₁) ∉ ℝ}" target="_vizar">
<polygon fill="#fa6900" stroke="#7f7542" points="364,-202.5 364,-247.5 494,-247.5 494,-202.5 364,-202.5"/>
<text text-anchor="middle" x="429" y="-236.3" font-family="Times,serif" font-size="14.00">τ⁺ ^ sk₁ ∈ ℂ</text>
<polyline fill="none" stroke="#7f7542" points="364,-232.5 494,-232.5 "/>
<text text-anchor="middle" x="429" y="-221.3" font-family="Times,serif" font-size="14.00">⇊</text>
<polyline fill="none" stroke="#7f7542" points="364,-217.5 494,-217.5 "/>
<text text-anchor="middle" x="429" y="-206.3" font-family="Times,serif" font-size="14.00">τ⁺ * (τ⁺ ^ sk₁) ∉ ℝ</text>
</a>
</g>
</g>
<!-- c_0_159&#45;&gt;c_0_163 -->
<g id="edge21" class="edge">
<title>c_0_159&#45;&gt;c_0_163</title>
<path fill="none" stroke="black" d="M429,-284.16C429,-284.16 429,-257.72 429,-257.72"/>
<polygon fill="black" stroke="black" points="432.5,-257.72 429,-247.72 425.5,-257.72 432.5,-257.72"/>
</g>
<!-- c_0_168 -->
<g id="node17" class="node">
<title>c_0_168</title>
<g id="a_node17"><a xlink:href="c_0_168.html" xlink:title="{τ⁺ ^ sk₁ ∈ ℝ|⇊|τ⁺ ^ sk₁ ∉ ℂ}" target="_vizar">
<polygon fill="#fa6900" stroke="#7f7542" points="404.5,-120.5 404.5,-165.5 493.5,-165.5 493.5,-120.5 404.5,-120.5"/>
<text text-anchor="middle" x="449" y="-154.3" font-family="Times,serif" font-size="14.00">τ⁺ ^ sk₁ ∈ ℝ</text>
<polyline fill="none" stroke="#7f7542" points="404.5,-150.5 493.5,-150.5 "/>
<text text-anchor="middle" x="449" y="-139.3" font-family="Times,serif" font-size="14.00">⇊</text>
<polyline fill="none" stroke="#7f7542" points="404.5,-135.5 493.5,-135.5 "/>
<text text-anchor="middle" x="449" y="-124.3" font-family="Times,serif" font-size="14.00">τ⁺ ^ sk₁ ∉ ℂ</text>
</a>
</g>
</g>
<!-- c_0_163&#45;&gt;c_0_168 -->
<g id="edge22" class="edge">
<title>c_0_163&#45;&gt;c_0_168</title>
<path fill="none" stroke="black" d="M449,-202.16C449,-202.16 449,-175.72 449,-175.72"/>
<polygon fill="black" stroke="black" points="452.5,-175.72 449,-165.72 445.5,-175.72 452.5,-175.72"/>
</g>
<!-- c_0_172 -->
<g id="node19" class="node">
<title>c_0_172</title>
<g id="a_node19"><a xlink:href="c_0_172.html" xlink:title="{τ⁺ ^ sk₁ ∉ ℝ}" target="_vizar">
<polygon fill="#fa6900" stroke="#7f7542" points="404.5,-68.5 404.5,-83.5 493.5,-83.5 493.5,-68.5 404.5,-68.5"/>
<text text-anchor="middle" x="449" y="-72.3" font-family="Times,serif" font-size="14.00">τ⁺ ^ sk₁ ∉ ℝ</text>
</a>
</g>
</g>
<!-- c_0_168&#45;&gt;c_0_172 -->
<g id="edge25" class="edge">
<title>c_0_168&#45;&gt;c_0_172</title>
<path fill="none" stroke="black" d="M449,-120.32C449,-120.32 449,-93.59 449,-93.59"/>
<polygon fill="black" stroke="black" points="452.5,-93.59 449,-83.59 445.5,-93.59 452.5,-93.59"/>
</g>
<!-- c_0_175 -->
<g id="node20" class="node">
<title>c_0_175</title>
<g id="a_node20"><a xlink:href="c_0_175.html" xlink:title="⊥" target="_vizar">
<polygon fill="#fa6900" stroke="#7f7542" points="461,-16.5 461,-31.5 475,-31.5 475,-16.5 461,-16.5"/>
<text text-anchor="middle" x="468" y="-20.3" font-family="Times,serif" font-size="14.00">⊥</text>
</a>
</g>
</g>
<!-- c_0_170&#45;&gt;c_0_175 -->
<g id="edge27" class="edge">
<title>c_0_170&#45;&gt;c_0_175</title>
<path fill="none" stroke="black" d="M133,-730.34C133,-722.67 133,-712 133,-712 133,-712 496.29,-712 496.29,-712 496.29,-712 496.29,-28 496.29,-28 496.29,-28 485.14,-28 485.14,-28"/>
<polygon fill="black" stroke="black" points="485.14,-24.5 475.14,-28 485.14,-31.5 485.14,-24.5"/>
</g>
<!-- c_0_172&#45;&gt;c_0_175 -->
<g id="edge26" class="edge">
<title>c_0_172&#45;&gt;c_0_175</title>
<path fill="none" stroke="black" d="M468,-68.33C468,-68.33 468,-41.7 468,-41.7"/>
<polygon fill="black" stroke="black" points="471.5,-41.7 468,-31.7 464.5,-41.7 471.5,-41.7"/>
</g>
<!-- c_0_114 -->
<g id="node21" class="node">
<title>c_0_114</title>
<g id="a_node21"><a xlink:href="c_0_114.html" xlink:title="{&#45;(&#45;N₁) = N₁}" target="_vizar">
<polygon fill="#f8edd1" stroke="#7f7542" points="510,-834.5 510,-849.5 586,-849.5 586,-834.5 510,-834.5"/>
<text text-anchor="middle" x="548" y="-838.3" font-family="Times,serif" font-size="14.00">&#45;(&#45;N₁) = N₁</text>
</a>
</g>
</g>
<!-- c_0_114&#45;&gt;c_0_128 -->
<g id="edge28" class="edge">
<title>c_0_114&#45;&gt;c_0_128</title>
<path fill="none" stroke="black" stroke-dasharray="5,2" d="M544,-834.37C544,-830.25 544,-826 544,-826 544,-826 126.33,-826 126.33,-826 126.33,-826 126.33,-807.63 126.33,-807.63"/>
<polygon fill="black" stroke="black" points="129.83,-807.63 126.33,-797.63 122.83,-807.63 129.83,-807.63"/>
</g>
<!-- c_0_111 -->
<g id="node22" class="node">
<title>c_0_111</title>
<g id="a_node22"><a xlink:href="c_0_111.html" xlink:title="{R₁ ^ 2 = R₁ ^ 2}" target="_vizar">
<polygon fill="#f8edd1" stroke="#7f7542" points="610.5,-522.5 610.5,-537.5 723.5,-537.5 723.5,-522.5 610.5,-522.5"/>
<text text-anchor="middle" x="667" y="-526.3" font-family="Times,serif" font-size="14.00">R₁ ^ 2 = R₁ ^ 2</text>
</a>
</g>
</g>
<!-- c_0_111&#45;&gt;c_0_125 -->
<g id="edge29" class="edge">
<title>c_0_111&#45;&gt;c_0_125</title>
<path fill="none" stroke="black" stroke-dasharray="5,2" d="M667,-522.3C667,-517.8 667,-513 667,-513 667,-513 277,-513 277,-513 277,-513 277,-495.77 277,-495.77"/>
<polygon fill="black" stroke="black" points="280.5,-495.77 277,-485.77 273.5,-495.77 280.5,-495.77"/>
</g>
<!-- c_0_147 -->
<g id="node23" class="node">
<title>c_0_147</title>
<g id="a_node23"><a xlink:href="c_0_147.html" xlink:title="{(τ⁺ ^ 2) * C₁ = (τ⁺ * C₁) + (1 * C₁)}" target="_vizar">
<polygon fill="#f8edd1" stroke="#7f7542" points="511,-470.5 511,-485.5 749,-485.5 749,-470.5 511,-470.5"/>
<text text-anchor="middle" x="630" y="-474.3" font-family="Times,serif" font-size="14.00">(τ⁺ ^ 2) * C₁ = (τ⁺ * C₁) + (1 * C₁)</text>
</a>
</g>
</g>
<!-- c_0_147&#45;&gt;c_0_152 -->
<g id="edge30" class="edge">
<title>c_0_147&#45;&gt;c_0_152</title>
<path fill="none" stroke="black" stroke-dasharray="5,2" d="M510.99,-475C508.88,-475 507.71,-475 507.71,-475 507.71,-475 507.71,-426 507.71,-426 507.71,-426 503.79,-426 503.79,-426"/>
<polygon fill="black" stroke="black" points="503.79,-422.5 493.79,-426 503.79,-429.5 503.79,-422.5"/>
</g>
<!-- c_0_62 -->
<g id="node24" class="node">
<title>c_0_62</title>
<g id="a_node24"><a xlink:href="c_0_62.html" xlink:title="{C₁ + C₂ = C₂ + C₁}" target="_vizar">
<polygon fill="#f8edd1" stroke="#7f7542" points="630.5,-678.5 630.5,-693.5 757.5,-693.5 757.5,-678.5 630.5,-678.5"/>
<text text-anchor="middle" x="694" y="-682.3" font-family="Times,serif" font-size="14.00">C₁ + C₂ = C₂ + C₁</text>
</a>
</g>
</g>
<!-- c_0_62&#45;&gt;c_0_70 -->
<g id="edge31" class="edge">
<title>c_0_62&#45;&gt;c_0_70</title>
<path fill="none" stroke="black" stroke-dasharray="5,2" d="M677,-678.35C677,-663.24 677,-631 677,-631 677,-631 492.58,-631 492.58,-631"/>
<polygon fill="black" stroke="black" points="492.58,-627.5 482.58,-631 492.58,-634.5 492.58,-627.5"/>
</g>
<!-- c_0_62&#45;&gt;c_0_159 -->
<g id="edge32" class="edge">
<title>c_0_62&#45;&gt;c_0_159</title>
<path fill="none" stroke="black" stroke-dasharray="5,2" d="M757.77,-686C807.87,-686 869.25,-686 869.25,-686 869.25,-686 869.25,-322 869.25,-322 869.25,-322 504.43,-322 504.43,-322"/>
<polygon fill="black" stroke="black" points="504.43,-318.5 494.43,-322 504.43,-325.5 504.43,-318.5"/>
</g>
<!-- c_0_47 -->
<g id="node25" class="node">
<title>c_0_47</title>
<g id="a_node25"><a xlink:href="c_0_47.html" xlink:title="{2 ∈ ℕ}" target="_vizar">
<polygon fill="#f8edd1" stroke="#7f7542" points="820,-782.5 820,-797.5 862,-797.5 862,-782.5 820,-782.5"/>
<text text-anchor="middle" x="841" y="-786.3" font-family="Times,serif" font-size="14.00">2 ∈ ℕ</text>
</a>
</g>
</g>
<!-- c_0_47&#45;&gt;c_0_58 -->
<g id="edge34" class="edge">
<title>c_0_47&#45;&gt;c_0_58</title>
<path fill="none" stroke="black" stroke-dasharray="5,2" d="M832.67,-782.35C832.67,-764.39 832.67,-721 832.67,-721 832.67,-721 489.62,-721 489.62,-721 489.62,-721 489.62,-721.93 489.62,-721.93"/>
<polygon fill="black" stroke="black" points="486.13,-720.3 489.62,-730.3 493.13,-720.3 486.13,-720.3"/>
</g>
<!-- c_0_47&#45;&gt;c_0_92 -->
<g id="edge33" class="edge">
<title>c_0_47&#45;&gt;c_0_92</title>
<path fill="none" stroke="black" stroke-dasharray="5,2" d="M845.33,-782.24C845.33,-755.1 845.33,-666 845.33,-666 845.33,-666 484.88,-666 484.88,-666 484.88,-666 484.88,-599.75 484.88,-599.75"/>
<polygon fill="black" stroke="black" points="488.38,-599.75 484.88,-589.75 481.38,-599.75 488.38,-599.75"/>
</g>
<!-- c_0_160 -->
<g id="node26" class="node">
<title>c_0_160</title>
<g id="a_node26"><a xlink:href="c_0_160.html" xlink:title="{R₁ * R₂ ∈ ℝ}" target="_vizar">
<polygon fill="#f8edd1" stroke="#7f7542" points="664.5,-217.5 664.5,-232.5 743.5,-232.5 743.5,-217.5 664.5,-217.5"/>
<text text-anchor="middle" x="704" y="-221.3" font-family="Times,serif" font-size="14.00">R₁ * R₂ ∈ ℝ</text>
</a>
</g>
</g>
<!-- c_0_160&#45;&gt;c_0_168 -->
<g id="edge35" class="edge">
<title>c_0_160&#45;&gt;c_0_168</title>
<path fill="none" stroke="black" stroke-dasharray="5,2" d="M704,-217.26C704,-198.09 704,-150 704,-150 704,-150 503.71,-150 503.71,-150"/>
<polygon fill="black" stroke="black" points="503.71,-146.5 493.71,-150 503.71,-153.5 503.71,-146.5"/>
</g>
<!-- c_0_132 -->
<g id="node27" class="node">
<title>c_0_132</title>
<g id="a_node27"><a xlink:href="c_0_132.html" xlink:title="{R₁ ∈ ℂ}" target="_vizar">
<polygon fill="#f8edd1" stroke="#7f7542" points="706.5,-299.5 706.5,-314.5 753.5,-314.5 753.5,-299.5 706.5,-299.5"/>
<text text-anchor="middle" x="730" y="-303.3" font-family="Times,serif" font-size="14.00">R₁ ∈ ℂ</text>
</a>
</g>
</g>
<!-- c_0_132&#45;&gt;c_0_163 -->
<g id="edge37" class="edge">
<title>c_0_132&#45;&gt;c_0_163</title>
<path fill="none" stroke="black" stroke-dasharray="5,2" d="M725,-299.31C725,-281.72 725,-240 725,-240 725,-240 504.32,-240 504.32,-240"/>
<polygon fill="black" stroke="black" points="504.32,-236.5 494.32,-240 504.32,-243.5 504.32,-236.5"/>
</g>
<!-- c_0_132&#45;&gt;c_0_172 -->
<g id="edge36" class="edge">
<title>c_0_132&#45;&gt;c_0_172</title>
<path fill="none" stroke="black" stroke-dasharray="5,2" d="M706.15,-307C647.91,-307 503.14,-307 503.14,-307 503.14,-307 503.14,-76 503.14,-76 503.14,-76 502.2,-76 502.2,-76"/>
<polygon fill="black" stroke="black" points="503.71,-72.5 493.71,-76 503.71,-79.5 503.71,-72.5"/>
</g>
<!-- c_0_169 -->
<g id="node28" class="node">
<title>c_0_169</title>
<g id="a_node28"><a xlink:href="c_0_169.html" xlink:title="{R₁ ^ R₂ ∈ ℝ}" target="_vizar">
<polygon fill="#f8edd1" stroke="#7f7542" points="511.5,-68.5 511.5,-83.5 596.5,-83.5 596.5,-68.5 511.5,-68.5"/>
<text text-anchor="middle" x="554" y="-72.3" font-family="Times,serif" font-size="14.00">R₁ ^ R₂ ∈ ℝ</text>
</a>
</g>
</g>
<!-- c_0_169&#45;&gt;c_0_175 -->
<g id="edge38" class="edge">
<title>c_0_169&#45;&gt;c_0_175</title>
<path fill="none" stroke="black" stroke-dasharray="5,2" d="M554,-68.33C554,-53.86 554,-24 554,-24 554,-24 485.04,-24 485.04,-24"/>
<polygon fill="black" stroke="black" points="485.04,-20.5 475.04,-24 485.04,-27.5 485.04,-20.5"/>
</g>
<!-- c_0_71 -->
<g id="node29" class="node">
<title>c_0_71</title>
<g id="a_node29"><a xlink:href="c_0_71.html" xlink:title="{2 ∈ ℂ}" target="_vizar">
<polygon fill="#f8edd1" stroke="#7f7542" points="510,-678.5 510,-693.5 550,-693.5 550,-678.5 510,-678.5"/>
<text text-anchor="middle" x="530" y="-682.3" font-family="Times,serif" font-size="14.00">2 ∈ ℂ</text>
</a>
</g>
</g>
<!-- c_0_71&#45;&gt;c_0_70 -->
<g id="edge39" class="edge">
<title>c_0_71&#45;&gt;c_0_70</title>
<path fill="none" stroke="black" stroke-dasharray="5,2" d="M530.25,-678.19C530.25,-664.12 530.25,-636 530.25,-636 530.25,-636 492.54,-636 492.54,-636"/>
<polygon fill="black" stroke="black" points="492.54,-632.5 482.54,-636 492.54,-639.5 492.54,-632.5"/>
</g>
<!-- c_0_54 -->
<g id="node30" class="node">
<title>c_0_54</title>
<g id="a_node30"><a xlink:href="c_0_54.html" xlink:title="{τ⁺ ∈ ℝ}" target="_vizar">
<polygon fill="#f8edd1" stroke="#7f7542" points="876.5,-730.5 876.5,-745.5 923.5,-745.5 923.5,-730.5 876.5,-730.5"/>
<text text-anchor="middle" x="900" y="-734.3" font-family="Times,serif" font-size="14.00">τ⁺ ∈ ℝ</text>
</a>
</g>
</g>
<!-- c_0_54&#45;&gt;c_0_65 -->
<g id="edge41" class="edge">
<title>c_0_54&#45;&gt;c_0_65</title>
<path fill="none" stroke="black" stroke-dasharray="5,2" d="M883.21,-730.23C883.21,-719.92 883.21,-703 883.21,-703 883.21,-703 352.33,-703 352.33,-703 352.33,-703 352.33,-702.07 352.33,-702.07"/>
<polygon fill="black" stroke="black" points="355.83,-703.7 352.33,-693.7 348.83,-703.7 355.83,-703.7"/>
</g>
<!-- c_0_54&#45;&gt;c_0_92 -->
<g id="edge44" class="edge">
<title>c_0_54&#45;&gt;c_0_92</title>
<path fill="none" stroke="black" stroke-dasharray="5,2" d="M889.93,-730.25C889.93,-709.45 889.93,-654 889.93,-654 889.93,-654 487.25,-654 487.25,-654 487.25,-654 487.25,-599.71 487.25,-599.71"/>
<polygon fill="black" stroke="black" points="490.75,-599.71 487.25,-589.71 483.75,-599.71 490.75,-599.71"/>
</g>
<!-- c_0_54&#45;&gt;c_0_109 -->
<g id="edge45" class="edge">
<title>c_0_54&#45;&gt;c_0_109</title>
<path fill="none" stroke="black" stroke-dasharray="5,2" d="M896.64,-730.18C896.64,-695.34 896.64,-556 896.64,-556 896.64,-556 370.67,-556 370.67,-556 370.67,-556 370.67,-547.66 370.67,-547.66"/>
<polygon fill="black" stroke="black" points="374.17,-547.66 370.67,-537.66 367.17,-547.66 374.17,-547.66"/>
</g>
<!-- c_0_54&#45;&gt;c_0_125 -->
<g id="edge43" class="edge">
<title>c_0_54&#45;&gt;c_0_125</title>
<path fill="none" stroke="black" stroke-dasharray="5,2" d="M903.36,-730.46C903.36,-689.45 903.36,-495 903.36,-495 903.36,-495 419,-495 419,-495 419,-495 419,-494.07 419,-494.07"/>
<polygon fill="black" stroke="black" points="422.5,-495.7 419,-485.7 415.5,-495.7 422.5,-495.7"/>
</g>
<!-- c_0_54&#45;&gt;c_0_168 -->
<g id="edge42" class="edge">
<title>c_0_54&#45;&gt;c_0_168</title>
<path fill="none" stroke="black" stroke-dasharray="5,2" d="M910.07,-730.38C910.07,-660.57 910.07,-135 910.07,-135 910.07,-135 503.63,-135 503.63,-135"/>
<polygon fill="black" stroke="black" points="503.63,-131.5 493.63,-135 503.63,-138.5 503.63,-131.5"/>
</g>
<!-- c_0_54&#45;&gt;c_0_175 -->
<g id="edge40" class="edge">
<title>c_0_54&#45;&gt;c_0_175</title>
<path fill="none" stroke="black" stroke-dasharray="5,2" d="M916.79,-730.42C916.79,-653.69 916.79,-20 916.79,-20 916.79,-20 485.05,-20 485.05,-20"/>
<polygon fill="black" stroke="black" points="485.05,-16.5 475.05,-20 485.05,-23.5 485.05,-16.5"/>
</g>
<!-- c_0_80 -->
<g id="node31" class="node">
<title>c_0_80</title>
<g id="a_node31"><a xlink:href="c_0_80.html" xlink:title="{R₁ ^ 1 = R₁}" target="_vizar">
<polygon fill="#f8edd1" stroke="#7f7542" points="510.5,-574.5 510.5,-589.5 593.5,-589.5 593.5,-574.5 510.5,-574.5"/>
<text text-anchor="middle" x="552" y="-578.3" font-family="Times,serif" font-size="14.00">R₁ ^ 1 = R₁</text>
</a>
</g>
</g>
<!-- c_0_80&#45;&gt;c_0_109 -->
<g id="edge46" class="edge">
<title>c_0_80&#45;&gt;c_0_109</title>
<path fill="none" stroke="black" stroke-dasharray="5,2" d="M528.5,-574.19C528.5,-560.12 528.5,-532 528.5,-532 528.5,-532 500.12,-532 500.12,-532"/>
<polygon fill="black" stroke="black" points="500.12,-528.5 490.12,-532 500.12,-535.5 500.12,-528.5"/>
</g>
<!-- c_0_94 -->
<g id="node32" class="node">
<title>c_0_94</title>
<g id="a_node32"><a xlink:href="c_0_94.html" xlink:title="{C₁ * C₂ = C₂ * C₁}" target="_vizar">
<polygon fill="#f8edd1" stroke="#7f7542" points="742,-522.5 742,-537.5 858,-537.5 858,-522.5 742,-522.5"/>
<text text-anchor="middle" x="800" y="-526.3" font-family="Times,serif" font-size="14.00">C₁ * C₂ = C₂ * C₁</text>
</a>
</g>
</g>
<!-- c_0_94&#45;&gt;c_0_125 -->
<g id="edge47" class="edge">
<title>c_0_94&#45;&gt;c_0_125</title>
<path fill="none" stroke="black" stroke-dasharray="5,2" d="M745.5,-522.34C745.5,-514.67 745.5,-504 745.5,-504 745.5,-504 348,-504 348,-504 348,-504 348,-495.66 348,-495.66"/>
<polygon fill="black" stroke="black" points="351.5,-495.66 348,-485.66 344.5,-495.66 351.5,-495.66"/>
</g>
<!-- c_0_151 -->
<g id="node33" class="node">
<title>c_0_151</title>
<g id="a_node33"><a xlink:href="c_0_151.html" xlink:title="{1 * C₁ = C₁}" target="_vizar">
<polygon fill="#f8edd1" stroke="#7f7542" points="512,-418.5 512,-433.5 590,-433.5 590,-418.5 512,-418.5"/>
<text text-anchor="middle" x="551" y="-422.3" font-family="Times,serif" font-size="14.00">1 * C₁ = C₁</text>
</a>
</g>
</g>
<!-- c_0_151&#45;&gt;c_0_155 -->
<g id="edge48" class="edge">
<title>c_0_151&#45;&gt;c_0_155</title>
<path fill="none" stroke="black" stroke-dasharray="5,2" d="M551,-418.33C551,-403.86 551,-374 551,-374 551,-374 504.15,-374 504.15,-374"/>
<polygon fill="black" stroke="black" points="504.15,-370.5 494.15,-374 504.15,-377.5 504.15,-370.5"/>
</g>
<!-- c_0_53 -->
<g id="node34" class="node">
<title>c_0_53</title>
<g id="a_node34"><a xlink:href="c_0_53.html" xlink:title="{R₃ ^ (N₁ + N₂) = (R₃ ^ N₁) * (R₃ ^ N₂)}" target="_vizar">
<polygon fill="#f8edd1" stroke="#7f7542" points="550.5,-730.5 550.5,-745.5 819.5,-745.5 819.5,-730.5 550.5,-730.5"/>
<text text-anchor="middle" x="685" y="-734.3" font-family="Times,serif" font-size="14.00">R₃ ^ (N₁ + N₂) = (R₃ ^ N₁) * (R₃ ^ N₂)</text>
</a>
</g>
</g>
<!-- c_0_53&#45;&gt;c_0_65 -->
<g id="edge50" class="edge">
<title>c_0_53&#45;&gt;c_0_65</title>
<path fill="none" stroke="black" stroke-dasharray="5,2" d="M550.01,-740C520.85,-740 498.57,-740 498.57,-740 498.57,-740 498.57,-686 498.57,-686 498.57,-686 449.54,-686 449.54,-686"/>
<polygon fill="black" stroke="black" points="449.54,-682.5 439.54,-686 449.54,-689.5 449.54,-682.5"/>
</g>
<!-- c_0_53&#45;&gt;c_0_92 -->
<g id="edge49" class="edge">
<title>c_0_53&#45;&gt;c_0_92</title>
<path fill="none" stroke="black" stroke-dasharray="5,2" d="M550.2,-735C522.12,-735 500.86,-735 500.86,-735 500.86,-735 500.86,-582 500.86,-582 500.86,-582 499.99,-582 499.99,-582"/>
<polygon fill="black" stroke="black" points="502.19,-578.5 492.19,-582 502.19,-585.5 502.19,-578.5"/>
</g>
<!-- c_0_38 -->
<g id="node35" class="node">
<title>c_0_38</title>
<g id="a_node35"><a xlink:href="c_0_38.html" xlink:title="{N₁ + N₂ = N₁ + N₂}" target="_vizar">
<polygon fill="#f8edd1" stroke="#7f7542" points="608.5,-834.5 608.5,-849.5 741.5,-849.5 741.5,-834.5 608.5,-834.5"/>
<text text-anchor="middle" x="675" y="-838.3" font-family="Times,serif" font-size="14.00">N₁ + N₂ = N₁ + N₂</text>
</a>
</g>
</g>
<!-- c_0_38&#45;&gt;c_0_51 -->
<g id="edge52" class="edge">
<title>c_0_38&#45;&gt;c_0_51</title>
<path fill="none" stroke="black" stroke-dasharray="5,2" d="M629.25,-834.43C629.25,-825.54 629.25,-812 629.25,-812 629.25,-812 334,-812 334,-812 334,-812 334,-807.94 334,-807.94"/>
<polygon fill="black" stroke="black" points="337.5,-807.94 334,-797.94 330.5,-807.94 337.5,-807.94"/>
</g>
<!-- c_0_38&#45;&gt;c_0_58 -->
<g id="edge51" class="edge">
<title>c_0_38&#45;&gt;c_0_58</title>
<path fill="none" stroke="black" stroke-dasharray="5,2" d="M659,-834.41C659,-812.89 659,-753 659,-753 659,-753 387.33,-753 387.33,-753 387.33,-753 387.33,-752.29 387.33,-752.29"/>
<polygon fill="black" stroke="black" points="390.83,-755.85 387.33,-745.85 383.83,-755.85 390.83,-755.85"/>
</g>
<!-- c_0_171 -->
<g id="node36" class="node">
<title>c_0_171</title>
<g id="a_node36"><a xlink:href="c_0_171.html" xlink:title="{&#45;N₁ ∈ ℝ}" target="_vizar">
<polygon fill="#f8edd1" stroke="#7f7542" points="596,-782.5 596,-797.5 650,-797.5 650,-782.5 596,-782.5"/>
<text text-anchor="middle" x="623" y="-786.3" font-family="Times,serif" font-size="14.00">&#45;N₁ ∈ ℝ</text>
</a>
</g>
</g>
<!-- c_0_171&#45;&gt;c_0_170 -->
<g id="edge53" class="edge">
<title>c_0_171&#45;&gt;c_0_170</title>
<path fill="none" stroke="black" stroke-dasharray="5,2" d="M623,-782.47C623,-775.76 623,-767 623,-767 623,-767 145.7,-767 145.7,-767 145.7,-767 145.7,-755.62 145.7,-755.62"/>
<polygon fill="black" stroke="black" points="149.2,-755.62 145.7,-745.62 142.2,-755.62 149.2,-755.62"/>
</g>
<!-- c_0_129 -->
<g id="node37" class="node">
<title>c_0_129</title>
<g id="a_node37"><a xlink:href="c_0_129.html" xlink:title="{τ⁺ ∈ ℂ}" target="_vizar">
<polygon fill="#f8edd1" stroke="#7f7542" points="546,-522.5 546,-537.5 592,-537.5 592,-522.5 546,-522.5"/>
<text text-anchor="middle" x="569" y="-526.3" font-family="Times,serif" font-size="14.00">τ⁺ ∈ ℂ</text>
</a>
</g>
</g>
<!-- c_0_129&#45;&gt;c_0_125 -->
<g id="edge54" class="edge">
<title>c_0_129&#45;&gt;c_0_125</title>
<path fill="none" stroke="black" stroke-dasharray="5,2" d="M545.69,-527C527.55,-527 505.43,-527 505.43,-527 505.43,-527 505.43,-480 505.43,-480 505.43,-480 503.16,-480 503.16,-480"/>
<polygon fill="black" stroke="black" points="503.16,-476.5 493.16,-480 503.16,-483.5 503.16,-476.5"/>
</g>
<!-- c_0_127 -->
<g id="node38" class="node">
<title>c_0_127</title>
<g id="a_node38"><a xlink:href="c_0_127.html" xlink:title="{&#45;(&#45;N₁) ∈ ℂ}" target="_vizar">
<polygon fill="#f8edd1" stroke="#7f7542" points="510,-782.5 510,-797.5 578,-797.5 578,-782.5 510,-782.5"/>
<text text-anchor="middle" x="544" y="-786.3" font-family="Times,serif" font-size="14.00">&#45;(&#45;N₁) ∈ ℂ</text>
</a>
</g>
</g>
<!-- c_0_127&#45;&gt;c_0_139 -->
<g id="edge55" class="edge">
<title>c_0_127&#45;&gt;c_0_139</title>
<path fill="none" stroke="black" stroke-dasharray="5,2" d="M530,-782.37C530,-778.25 530,-774 530,-774 530,-774 76.83,-774 76.83,-774 76.83,-774 76.83,-755.63 76.83,-755.63"/>
<polygon fill="black" stroke="black" points="80.33,-755.63 76.83,-745.63 73.33,-755.63 80.33,-755.63"/>
</g>
<!-- c_0_39 -->
<g id="node39" class="node">
<title>c_0_39</title>
<g id="a_node39"><a xlink:href="c_0_39.html" xlink:title="{1 ∈ ℕ}" target="_vizar">
<polygon fill="#f8edd1" stroke="#7f7542" points="762,-834.5 762,-849.5 804,-849.5 804,-834.5 762,-834.5"/>
<text text-anchor="middle" x="783" y="-838.3" font-family="Times,serif" font-size="14.00">1 ∈ ℕ</text>
</a>
</g>
</g>
<!-- c_0_39&#45;&gt;c_0_51 -->
<g id="edge57" class="edge">
<title>c_0_39&#45;&gt;c_0_51</title>
<path fill="none" stroke="black" stroke-dasharray="5,2" d="M790,-834.15C790,-823.29 790,-805 790,-805 790,-805 413,-805 413,-805 413,-805 413,-804.29 413,-804.29"/>
<polygon fill="black" stroke="black" points="416.5,-807.85 413,-797.85 409.5,-807.85 416.5,-807.85"/>
</g>
<!-- c_0_39&#45;&gt;c_0_65 -->
<g id="edge56" class="edge">
<title>c_0_39&#45;&gt;c_0_65</title>
<path fill="none" stroke="black" stroke-dasharray="5,2" d="M776,-834.47C776,-827.76 776,-819 776,-819 776,-819 167.75,-819 167.75,-819 167.75,-819 167.75,-703.53 167.75,-703.53"/>
<polygon fill="black" stroke="black" points="171.25,-703.53 167.75,-693.53 164.25,-703.53 171.25,-703.53"/>
</g>
<!-- c_0_161 -->
<g id="node40" class="node">
<title>c_0_161</title>
<g id="a_node40"><a xlink:href="c_0_161.html" xlink:title="{&#45;R₁ ∈ ℝ}" target="_vizar">
<polygon fill="#f8edd1" stroke="#7f7542" points="668,-782.5 668,-797.5 720,-797.5 720,-782.5 668,-782.5"/>
<text text-anchor="middle" x="694" y="-786.3" font-family="Times,serif" font-size="14.00">&#45;R₁ ∈ ℝ</text>
</a>
</g>
</g>
<!-- c_0_161&#45;&gt;c_0_170 -->
<g id="edge58" class="edge">
<title>c_0_161&#45;&gt;c_0_170</title>
<path fill="none" stroke="black" stroke-dasharray="5,2" d="M694,-782.43C694,-773.54 694,-760 694,-760 694,-760 149.8,-760 149.8,-760 149.8,-760 149.8,-755.94 149.8,-755.94"/>
<polygon fill="black" stroke="black" points="153.3,-755.94 149.8,-745.94 146.3,-755.94 153.3,-755.94"/>
</g>
</g>
</svg>
