<?xml version="1.0" encoding="UTF-8" standalone="no"?>
<!DOCTYPE svg PUBLIC "-//W3C//DTD SVG 1.1//EN"
 "http://www.w3.org/Graphics/SVG/1.1/DTD/svg11.dtd">
<!-- Generated by graphviz version 5.0.0 (0)
 -->
<!-- Title: proof Pages: 1 -->
<svg width="1174pt" height="658pt"
 viewBox="0.00 0.00 1173.50 658.00" xmlns="http://www.w3.org/2000/svg" xmlns:xlink="http://www.w3.org/1999/xlink">
<g id="graph0" class="graph" transform="scale(1 1) rotate(0) translate(4 654)">
<title>proof</title>
<g id="clust1" class="cluster">
<title>cluster_0</title>
<polygon fill="#ffc233" stroke="#ffc233" points="289,-8 289,-642 783,-642 783,-8 289,-8"/>
</g>
<!-- t9_fib_num3 -->
<g id="node1" class="node">
<title>t9_fib_num3</title>
<g id="a_node1"><a xlink:href="t9_fib_num3.html" xlink:title="t9_fib_num3" target="_vizar">
<polygon fill="#fa6900" stroke="#7f7542" points="518,-618.5 518,-633.5 606,-633.5 606,-618.5 518,-618.5"/>
<text text-anchor="middle" x="562" y="-622.3" font-family="Times,serif" font-size="14.00">t9_fib_num3</text>
</a>
</g>
</g>
<!-- c_0_37 -->
<g id="node2" class="node">
<title>c_0_37</title>
<g id="a_node2"><a xlink:href="c_0_37.html" xlink:title="{(τ⁺ ^ sk₁) + (τ⁺ ^ (sk₁ + 1)) ≠ τ⁺ ^ (sk₁ + 2)}" target="_vizar">
<polygon fill="#fa6900" stroke="#7f7542" points="303,-551.5 303,-566.5 619,-566.5 619,-551.5 303,-551.5"/>
<text text-anchor="middle" x="461" y="-555.3" font-family="Times,serif" font-size="14.00">(τ⁺ ^ sk₁) + (τ⁺ ^ (sk₁ + 1)) ≠ τ⁺ ^ (sk₁ + 2)</text>
</a>
</g>
</g>
<!-- t9_fib_num3&#45;&gt;c_0_37 -->
<g id="edge1" class="edge">
<title>t9_fib_num3&#45;&gt;c_0_37</title>
<path fill="none" stroke="black" d="M562,-618.31C562,-618.31 562,-576.6 562,-576.6"/>
<polygon fill="black" stroke="black" points="565.5,-576.6 562,-566.6 558.5,-576.6 565.5,-576.6"/>
</g>
<!-- c_0_40 -->
<g id="node3" class="node">
<title>c_0_40</title>
<g id="a_node3"><a xlink:href="c_0_40.html" xlink:title="{sk₁ ∈ ℕ}" target="_vizar">
<polygon fill="#fa6900" stroke="#7f7542" points="637,-551.5 637,-566.5 691,-566.5 691,-551.5 637,-551.5"/>
<text text-anchor="middle" x="664" y="-555.3" font-family="Times,serif" font-size="14.00">sk₁ ∈ ℕ</text>
</a>
</g>
</g>
<!-- t9_fib_num3&#45;&gt;c_0_40 -->
<g id="edge2" class="edge">
<title>t9_fib_num3&#45;&gt;c_0_40</title>
<path fill="none" stroke="black" d="M606.15,-626C633.71,-626 664,-626 664,-626 664,-626 664,-576.69 664,-576.69"/>
<polygon fill="black" stroke="black" points="667.5,-576.69 664,-566.69 660.5,-576.69 667.5,-576.69"/>
</g>
<!-- c_0_51 -->
<g id="node4" class="node">
<title>c_0_51</title>
<g id="a_node4"><a xlink:href="c_0_51.html" xlink:title="{τ⁺ ^ (sk₁ + 2) ≠ (τ⁺ ^ sk₁) + (τ⁺ ^ (sk₁ + 1))}" target="_vizar">
<polygon fill="#fa6900" stroke="#7f7542" points="303,-484.5 303,-499.5 619,-499.5 619,-484.5 303,-484.5"/>
<text text-anchor="middle" x="461" y="-488.3" font-family="Times,serif" font-size="14.00">τ⁺ ^ (sk₁ + 2) ≠ (τ⁺ ^ sk₁) + (τ⁺ ^ (sk₁ + 1))</text>
</a>
</g>
</g>
<!-- c_0_37&#45;&gt;c_0_51 -->
<g id="edge3" class="edge">
<title>c_0_37&#45;&gt;c_0_51</title>
<path fill="none" stroke="black" d="M461,-551.31C461,-551.31 461,-509.6 461,-509.6"/>
<polygon fill="black" stroke="black" points="464.5,-509.6 461,-499.6 457.5,-509.6 464.5,-509.6"/>
</g>
<!-- c_0_40&#45;&gt;c_0_51 -->
<g id="edge4" class="edge">
<title>c_0_40&#45;&gt;c_0_51</title>
<path fill="none" stroke="black" d="M649.25,-551.31C649.25,-533.72 649.25,-492 649.25,-492 649.25,-492 629,-492 629,-492"/>
<polygon fill="black" stroke="black" points="629,-488.5 619,-492 629,-495.5 629,-488.5"/>
</g>
<!-- c_0_58 -->
<g id="node5" class="node">
<title>c_0_58</title>
<g id="a_node5"><a xlink:href="c_0_58.html" xlink:title="{(τ⁺ ^ sk₁) + (τ⁺ ^ (sk₁ + 1)) ≠ τ⁺ ^ (sk₁ + 2)}" target="_vizar">
<polygon fill="#fa6900" stroke="#7f7542" points="297,-432.5 297,-447.5 613,-447.5 613,-432.5 297,-432.5"/>
<text text-anchor="middle" x="455" y="-436.3" font-family="Times,serif" font-size="14.00">(τ⁺ ^ sk₁) + (τ⁺ ^ (sk₁ + 1)) ≠ τ⁺ ^ (sk₁ + 2)</text>
</a>
</g>
</g>
<!-- c_0_40&#45;&gt;c_0_58 -->
<g id="edge5" class="edge">
<title>c_0_40&#45;&gt;c_0_58</title>
<path fill="none" stroke="black" d="M636.88,-561C629.26,-561 623,-561 623,-561 623,-561 623,-440 623,-440 623,-440 622.05,-440 622.05,-440"/>
<polygon fill="black" stroke="black" points="623.49,-436.5 613.49,-440 623.49,-443.5 623.49,-436.5"/>
</g>
<!-- c_0_65 -->
<g id="node6" class="node">
<title>c_0_65</title>
<g id="a_node6"><a xlink:href="c_0_65.html" xlink:title="{τ⁺ ^ (sk₁ + 2) ≠ (τ⁺ ^ sk₁) + ((τ⁺ ^ sk₁) * (τ⁺ ^ 1))}" target="_vizar">
<polygon fill="#fa6900" stroke="#7f7542" points="417.5,-380.5 417.5,-395.5 774.5,-395.5 774.5,-380.5 417.5,-380.5"/>
<text text-anchor="middle" x="596" y="-384.3" font-family="Times,serif" font-size="14.00">τ⁺ ^ (sk₁ + 2) ≠ (τ⁺ ^ sk₁) + ((τ⁺ ^ sk₁) * (τ⁺ ^ 1))</text>
</a>
</g>
</g>
<!-- c_0_40&#45;&gt;c_0_65 -->
<g id="edge8" class="edge">
<title>c_0_40&#45;&gt;c_0_65</title>
<path fill="none" stroke="black" d="M636.72,-556C631.18,-556 627,-556 627,-556 627,-556 627,-405.66 627,-405.66"/>
<polygon fill="black" stroke="black" points="630.5,-405.66 627,-395.66 623.5,-405.66 630.5,-405.66"/>
</g>
<!-- c_0_92 -->
<g id="node8" class="node">
<title>c_0_92</title>
<g id="a_node8"><a xlink:href="c_0_92.html" xlink:title="{(τ⁺ ^ sk₁) + ((τ⁺ ^ sk₁) * (τ⁺ ^ 1)) ≠ (τ⁺ ^ 2) * (τ⁺ ^ sk₁)}" target="_vizar">
<polygon fill="#fa6900" stroke="#7f7542" points="377,-276.5 377,-291.5 775,-291.5 775,-276.5 377,-276.5"/>
<text text-anchor="middle" x="576" y="-280.3" font-family="Times,serif" font-size="14.00">(τ⁺ ^ sk₁) + ((τ⁺ ^ sk₁) * (τ⁺ ^ 1)) ≠ (τ⁺ ^ 2) * (τ⁺ ^ sk₁)</text>
</a>
</g>
</g>
<!-- c_0_40&#45;&gt;c_0_92 -->
<g id="edge11" class="edge">
<title>c_0_40&#45;&gt;c_0_92</title>
<path fill="none" stroke="black" d="M691.25,-559C725.26,-559 779,-559 779,-559 779,-559 779,-288 779,-288 779,-288 778.61,-288 778.61,-288"/>
<polygon fill="black" stroke="black" points="785.13,-284.5 775.13,-288 785.13,-291.5 785.13,-284.5"/>
</g>
<!-- c_0_139 -->
<g id="node11" class="node">
<title>c_0_139</title>
<g id="a_node11"><a xlink:href="c_0_139.html" xlink:title="{sk₁ ∈ ℂ}" target="_vizar">
<polygon fill="#fa6900" stroke="#7f7542" points="631,-432.5 631,-447.5 683,-447.5 683,-432.5 631,-432.5"/>
<text text-anchor="middle" x="657" y="-436.3" font-family="Times,serif" font-size="14.00">sk₁ ∈ ℂ</text>
</a>
</g>
</g>
<!-- c_0_40&#45;&gt;c_0_139 -->
<g id="edge17" class="edge">
<title>c_0_40&#45;&gt;c_0_139</title>
<path fill="none" stroke="black" d="M655.38,-551.19C655.38,-551.19 655.38,-457.68 655.38,-457.68"/>
<polygon fill="black" stroke="black" points="658.88,-457.68 655.38,-447.68 651.88,-457.68 658.88,-457.68"/>
</g>
<!-- c_0_128 -->
<g id="node12" class="node">
<title>c_0_128</title>
<g id="a_node12"><a xlink:href="c_0_128.html" xlink:title="{&#45;(&#45;sk₁) = sk₁}" target="_vizar">
<polygon fill="#fa6900" stroke="#7f7542" points="661.5,-484.5 661.5,-499.5 744.5,-499.5 744.5,-484.5 661.5,-484.5"/>
<text text-anchor="middle" x="703" y="-488.3" font-family="Times,serif" font-size="14.00">&#45;(&#45;sk₁) = sk₁</text>
</a>
</g>
</g>
<!-- c_0_40&#45;&gt;c_0_128 -->
<g id="edge15" class="edge">
<title>c_0_40&#45;&gt;c_0_128</title>
<path fill="none" stroke="black" d="M681.17,-551.31C681.17,-551.31 681.17,-509.6 681.17,-509.6"/>
<polygon fill="black" stroke="black" points="684.67,-509.6 681.17,-499.6 677.67,-509.6 684.67,-509.6"/>
</g>
<!-- c_0_170 -->
<g id="node15" class="node">
<title>c_0_170</title>
<g id="a_node15"><a xlink:href="c_0_170.html" xlink:title="{sk₁ ∈ ℝ}" target="_vizar">
<polygon fill="#fa6900" stroke="#7f7542" points="701.5,-432.5 701.5,-447.5 754.5,-447.5 754.5,-432.5 701.5,-432.5"/>
<text text-anchor="middle" x="728" y="-436.3" font-family="Times,serif" font-size="14.00">sk₁ ∈ ℝ</text>
</a>
</g>
</g>
<!-- c_0_40&#45;&gt;c_0_170 -->
<g id="edge21" class="edge">
<title>c_0_40&#45;&gt;c_0_170</title>
<path fill="none" stroke="black" d="M691.45,-555C715.9,-555 747.83,-555 747.83,-555 747.83,-555 747.83,-457.55 747.83,-457.55"/>
<polygon fill="black" stroke="black" points="751.33,-457.55 747.83,-447.55 744.33,-457.55 751.33,-457.55"/>
</g>
<!-- c_0_51&#45;&gt;c_0_58 -->
<g id="edge6" class="edge">
<title>c_0_51&#45;&gt;c_0_58</title>
<path fill="none" stroke="black" d="M458,-484.33C458,-484.33 458,-457.7 458,-457.7"/>
<polygon fill="black" stroke="black" points="461.5,-457.7 458,-447.7 454.5,-457.7 461.5,-457.7"/>
</g>
<!-- c_0_58&#45;&gt;c_0_65 -->
<g id="edge7" class="edge">
<title>c_0_58&#45;&gt;c_0_65</title>
<path fill="none" stroke="black" d="M515.25,-432.33C515.25,-432.33 515.25,-405.7 515.25,-405.7"/>
<polygon fill="black" stroke="black" points="518.75,-405.7 515.25,-395.7 511.75,-405.7 518.75,-405.7"/>
</g>
<!-- c_0_70 -->
<g id="node7" class="node">
<title>c_0_70</title>
<g id="a_node7"><a xlink:href="c_0_70.html" xlink:title="{τ⁺ ^ (2 + sk₁) ≠ (τ⁺ ^ sk₁) + ((τ⁺ ^ sk₁) * (τ⁺ ^ 1))}" target="_vizar">
<polygon fill="#fa6900" stroke="#7f7542" points="387.5,-328.5 387.5,-343.5 744.5,-343.5 744.5,-328.5 387.5,-328.5"/>
<text text-anchor="middle" x="566" y="-332.3" font-family="Times,serif" font-size="14.00">τ⁺ ^ (2 + sk₁) ≠ (τ⁺ ^ sk₁) + ((τ⁺ ^ sk₁) * (τ⁺ ^ 1))</text>
</a>
</g>
</g>
<!-- c_0_65&#45;&gt;c_0_70 -->
<g id="edge9" class="edge">
<title>c_0_65&#45;&gt;c_0_70</title>
<path fill="none" stroke="black" d="M581,-380.33C581,-380.33 581,-353.7 581,-353.7"/>
<polygon fill="black" stroke="black" points="584.5,-353.7 581,-343.7 577.5,-353.7 584.5,-353.7"/>
</g>
<!-- c_0_70&#45;&gt;c_0_92 -->
<g id="edge10" class="edge">
<title>c_0_70&#45;&gt;c_0_92</title>
<path fill="none" stroke="black" d="M566,-328.33C566,-328.33 566,-301.7 566,-301.7"/>
<polygon fill="black" stroke="black" points="569.5,-301.7 566,-291.7 562.5,-301.7 569.5,-301.7"/>
</g>
<!-- c_0_109 -->
<g id="node9" class="node">
<title>c_0_109</title>
<g id="a_node9"><a xlink:href="c_0_109.html" xlink:title="{(τ⁺ ^ sk₁) + ((τ⁺ ^ sk₁) * τ⁺) ≠ (τ⁺ ^ 2) * (τ⁺ ^ sk₁)}" target="_vizar">
<polygon fill="#fa6900" stroke="#7f7542" points="397,-224.5 397,-239.5 755,-239.5 755,-224.5 397,-224.5"/>
<text text-anchor="middle" x="576" y="-228.3" font-family="Times,serif" font-size="14.00">(τ⁺ ^ sk₁) + ((τ⁺ ^ sk₁) * τ⁺) ≠ (τ⁺ ^ 2) * (τ⁺ ^ sk₁)</text>
</a>
</g>
</g>
<!-- c_0_92&#45;&gt;c_0_109 -->
<g id="edge12" class="edge">
<title>c_0_92&#45;&gt;c_0_109</title>
<path fill="none" stroke="black" d="M516.33,-276.33C516.33,-276.33 516.33,-249.7 516.33,-249.7"/>
<polygon fill="black" stroke="black" points="519.83,-249.7 516.33,-239.7 512.83,-249.7 519.83,-249.7"/>
</g>
<!-- c_0_125 -->
<g id="node10" class="node">
<title>c_0_125</title>
<g id="a_node10"><a xlink:href="c_0_125.html" xlink:title="{(τ⁺ ^ 2) * (τ⁺ ^ sk₁) ≠ (τ⁺ ^ sk₁) + (τ⁺ * (τ⁺ ^ sk₁))}" target="_vizar">
<polygon fill="#fa6900" stroke="#7f7542" points="397,-172.5 397,-187.5 755,-187.5 755,-172.5 397,-172.5"/>
<text text-anchor="middle" x="576" y="-176.3" font-family="Times,serif" font-size="14.00">(τ⁺ ^ 2) * (τ⁺ ^ sk₁) ≠ (τ⁺ ^ sk₁) + (τ⁺ * (τ⁺ ^ sk₁))</text>
</a>
</g>
</g>
<!-- c_0_109&#45;&gt;c_0_125 -->
<g id="edge13" class="edge">
<title>c_0_109&#45;&gt;c_0_125</title>
<path fill="none" stroke="black" d="M576,-224.33C576,-224.33 576,-197.7 576,-197.7"/>
<polygon fill="black" stroke="black" points="579.5,-197.7 576,-187.7 572.5,-197.7 579.5,-197.7"/>
</g>
<!-- c_0_152 -->
<g id="node13" class="node">
<title>c_0_152</title>
<g id="a_node13"><a xlink:href="c_0_152.html" xlink:title="{(τ⁺ * (τ⁺ ^ sk₁)) + (1 * (τ⁺ ^ sk₁)) ≠ (τ⁺ ^ sk₁) + (τ⁺ * (τ⁺ ^ sk₁))}" target="_vizar">
<polygon fill="#fa6900" stroke="#7f7542" points="297.5,-120.5 297.5,-135.5 748.5,-135.5 748.5,-120.5 297.5,-120.5"/>
<text text-anchor="middle" x="523" y="-124.3" font-family="Times,serif" font-size="14.00">(τ⁺ * (τ⁺ ^ sk₁)) + (1 * (τ⁺ ^ sk₁)) ≠ (τ⁺ ^ sk₁) + (τ⁺ * (τ⁺ ^ sk₁))</text>
</a>
</g>
</g>
<!-- c_0_125&#45;&gt;c_0_152 -->
<g id="edge18" class="edge">
<title>c_0_125&#45;&gt;c_0_152</title>
<path fill="none" stroke="black" d="M572.75,-172.33C572.75,-172.33 572.75,-145.7 572.75,-145.7"/>
<polygon fill="black" stroke="black" points="576.25,-145.7 572.75,-135.7 569.25,-145.7 576.25,-145.7"/>
</g>
<!-- c_0_139&#45;&gt;c_0_125 -->
<g id="edge14" class="edge">
<title>c_0_139&#45;&gt;c_0_125</title>
<path fill="none" stroke="black" d="M657,-432.34C657,-424.67 657,-414 657,-414 657,-414 783,-414 783,-414 783,-414 783,-184 783,-184 783,-184 765.08,-184 765.08,-184"/>
<polygon fill="black" stroke="black" points="765.08,-180.5 755.08,-184 765.08,-187.5 765.08,-180.5"/>
</g>
<!-- c_0_128&#45;&gt;c_0_139 -->
<g id="edge16" class="edge">
<title>c_0_128&#45;&gt;c_0_139</title>
<path fill="none" stroke="black" d="M672.25,-484.33C672.25,-484.33 672.25,-457.7 672.25,-457.7"/>
<polygon fill="black" stroke="black" points="675.75,-457.7 672.25,-447.7 668.75,-457.7 675.75,-457.7"/>
</g>
<!-- c_0_128&#45;&gt;c_0_170 -->
<g id="edge20" class="edge">
<title>c_0_128&#45;&gt;c_0_170</title>
<path fill="none" stroke="black" d="M730.17,-484.33C730.17,-484.33 730.17,-457.7 730.17,-457.7"/>
<polygon fill="black" stroke="black" points="733.67,-457.7 730.17,-447.7 726.67,-457.7 733.67,-457.7"/>
</g>
<!-- c_0_155 -->
<g id="node14" class="node">
<title>c_0_155</title>
<g id="a_node14"><a xlink:href="c_0_155.html" xlink:title="{(τ⁺ * (τ⁺ ^ sk₁)) + (τ⁺ ^ sk₁) ≠ (τ⁺ ^ sk₁) + (τ⁺ * (τ⁺ ^ sk₁))}" target="_vizar">
<polygon fill="#fa6900" stroke="#7f7542" points="307,-68.5 307,-83.5 723,-83.5 723,-68.5 307,-68.5"/>
<text text-anchor="middle" x="515" y="-72.3" font-family="Times,serif" font-size="14.00">(τ⁺ * (τ⁺ ^ sk₁)) + (τ⁺ ^ sk₁) ≠ (τ⁺ ^ sk₁) + (τ⁺ * (τ⁺ ^ sk₁))</text>
</a>
</g>
</g>
<!-- c_0_152&#45;&gt;c_0_155 -->
<g id="edge19" class="edge">
<title>c_0_152&#45;&gt;c_0_155</title>
<path fill="none" stroke="black" d="M515,-120.33C515,-120.33 515,-93.7 515,-93.7"/>
<polygon fill="black" stroke="black" points="518.5,-93.7 515,-83.7 511.5,-93.7 518.5,-93.7"/>
</g>
<!-- c_0_175 -->
<g id="node16" class="node">
<title>c_0_175</title>
<g id="a_node16"><a xlink:href="c_0_175.html" xlink:title="⊥" target="_vizar">
<polygon fill="#fa6900" stroke="#7f7542" points="508,-16.5 508,-31.5 522,-31.5 522,-16.5 508,-16.5"/>
<text text-anchor="middle" x="515" y="-20.3" font-family="Times,serif" font-size="14.00">⊥</text>
</a>
</g>
</g>
<!-- c_0_155&#45;&gt;c_0_175 -->
<g id="edge23" class="edge">
<title>c_0_155&#45;&gt;c_0_175</title>
<path fill="none" stroke="black" d="M515,-68.33C515,-68.33 515,-41.7 515,-41.7"/>
<polygon fill="black" stroke="black" points="518.5,-41.7 515,-31.7 511.5,-41.7 518.5,-41.7"/>
</g>
<!-- c_0_170&#45;&gt;c_0_175 -->
<g id="edge22" class="edge">
<title>c_0_170&#45;&gt;c_0_175</title>
<path fill="none" stroke="black" d="M754.74,-437C770.35,-437 787,-437 787,-437 787,-437 787,-28 787,-28 787,-28 532.28,-28 532.28,-28"/>
<polygon fill="black" stroke="black" points="532.28,-24.5 522.28,-28 532.28,-31.5 532.28,-24.5"/>
</g>
<!-- c_0_147 -->
<g id="node17" class="node">
<title>c_0_147</title>
<g id="a_node17"><a xlink:href="c_0_147.html" xlink:title="{(τ⁺ ^ 2) * C₁ = (τ⁺ * C₁) + (1 * C₁)}" target="_vizar">
<polygon fill="#f8edd1" stroke="#7f7542" points="43,-172.5 43,-187.5 281,-187.5 281,-172.5 43,-172.5"/>
<text text-anchor="middle" x="162" y="-176.3" font-family="Times,serif" font-size="14.00">(τ⁺ ^ 2) * C₁ = (τ⁺ * C₁) + (1 * C₁)</text>
</a>
</g>
</g>
<!-- c_0_147&#45;&gt;c_0_152 -->
<g id="edge24" class="edge">
<title>c_0_147&#45;&gt;c_0_152</title>
<path fill="none" stroke="black" stroke-dasharray="5,2" d="M281.01,-177C305.5,-177 324,-177 324,-177 324,-177 324,-145.66 324,-145.66"/>
<polygon fill="black" stroke="black" points="327.5,-145.66 324,-135.66 320.5,-145.66 327.5,-145.66"/>
</g>
<!-- c_0_39 -->
<g id="node18" class="node">
<title>c_0_39</title>
<g id="a_node18"><a xlink:href="c_0_39.html" xlink:title="{1 ∈ ℕ}" target="_vizar">
<polygon fill="#f8edd1" stroke="#7f7542" points="820,-551.5 820,-566.5 862,-566.5 862,-551.5 820,-551.5"/>
<text text-anchor="middle" x="841" y="-555.3" font-family="Times,serif" font-size="14.00">1 ∈ ℕ</text>
</a>
</g>
</g>
<!-- c_0_39&#45;&gt;c_0_51 -->
<g id="edge26" class="edge">
<title>c_0_39&#45;&gt;c_0_51</title>
<path fill="none" stroke="black" stroke-dasharray="5,2" d="M831.5,-551.37C831.5,-547.25 831.5,-543 831.5,-543 831.5,-543 540,-543 540,-543 540,-543 540,-509.53 540,-509.53"/>
<polygon fill="black" stroke="black" points="543.5,-509.53 540,-499.53 536.5,-509.53 543.5,-509.53"/>
</g>
<!-- c_0_39&#45;&gt;c_0_65 -->
<g id="edge25" class="edge">
<title>c_0_39&#45;&gt;c_0_65</title>
<path fill="none" stroke="black" stroke-dasharray="5,2" d="M819.61,-563C795.96,-563 761.17,-563 761.17,-563 761.17,-563 761.17,-405.52 761.17,-405.52"/>
<polygon fill="black" stroke="black" points="764.67,-405.52 761.17,-395.52 757.67,-405.52 764.67,-405.52"/>
</g>
<!-- c_0_129 -->
<g id="node19" class="node">
<title>c_0_129</title>
<g id="a_node19"><a xlink:href="c_0_129.html" xlink:title="{τ⁺ ∈ ℂ}" target="_vizar">
<polygon fill="#f8edd1" stroke="#7f7542" points="811,-224.5 811,-239.5 857,-239.5 857,-224.5 811,-224.5"/>
<text text-anchor="middle" x="834" y="-228.3" font-family="Times,serif" font-size="14.00">τ⁺ ∈ ℂ</text>
</a>
</g>
</g>
<!-- c_0_129&#45;&gt;c_0_125 -->
<g id="edge27" class="edge">
<title>c_0_129&#45;&gt;c_0_125</title>
<path fill="none" stroke="black" stroke-dasharray="5,2" d="M824.75,-224.47C824.75,-210.29 824.75,-181 824.75,-181 824.75,-181 765.13,-181 765.13,-181"/>
<polygon fill="black" stroke="black" points="765.13,-177.5 755.13,-181 765.13,-184.5 765.13,-177.5"/>
</g>
<!-- c_0_161 -->
<g id="node20" class="node">
<title>c_0_161</title>
<g id="a_node20"><a xlink:href="c_0_161.html" xlink:title="{&#45;R₁ ∈ ℝ}" target="_vizar">
<polygon fill="#f8edd1" stroke="#7f7542" points="791,-484.5 791,-499.5 843,-499.5 843,-484.5 791,-484.5"/>
<text text-anchor="middle" x="817" y="-488.3" font-family="Times,serif" font-size="14.00">&#45;R₁ ∈ ℝ</text>
</a>
</g>
</g>
<!-- c_0_161&#45;&gt;c_0_170 -->
<g id="edge28" class="edge">
<title>c_0_161&#45;&gt;c_0_170</title>
<path fill="none" stroke="black" stroke-dasharray="5,2" d="M790.98,-492C772.58,-492 751.17,-492 751.17,-492 751.17,-492 751.17,-457.67 751.17,-457.67"/>
<polygon fill="black" stroke="black" points="754.67,-457.67 751.17,-447.67 747.67,-457.67 754.67,-457.67"/>
</g>
<!-- c_0_47 -->
<g id="node21" class="node">
<title>c_0_47</title>
<g id="a_node21"><a xlink:href="c_0_47.html" xlink:title="{2 ∈ ℕ}" target="_vizar">
<polygon fill="#f8edd1" stroke="#7f7542" points="0,-484.5 0,-499.5 42,-499.5 42,-484.5 0,-484.5"/>
<text text-anchor="middle" x="21" y="-488.3" font-family="Times,serif" font-size="14.00">2 ∈ ℕ</text>
</a>
</g>
</g>
<!-- c_0_47&#45;&gt;c_0_58 -->
<g id="edge30" class="edge">
<title>c_0_47&#45;&gt;c_0_58</title>
<path fill="none" stroke="black" stroke-dasharray="5,2" d="M31.5,-484.35C31.5,-469.24 31.5,-437 31.5,-437 31.5,-437 286.7,-437 286.7,-437"/>
<polygon fill="black" stroke="black" points="286.7,-440.5 296.7,-437 286.7,-433.5 286.7,-440.5"/>
</g>
<!-- c_0_47&#45;&gt;c_0_92 -->
<g id="edge29" class="edge">
<title>c_0_47&#45;&gt;c_0_92</title>
<path fill="none" stroke="black" stroke-dasharray="5,2" d="M10.5,-484.1C10.5,-446.11 10.5,-284 10.5,-284 10.5,-284 366.63,-284 366.63,-284"/>
<polygon fill="black" stroke="black" points="366.63,-287.5 376.63,-284 366.63,-280.5 366.63,-287.5"/>
</g>
<!-- c_0_160 -->
<g id="node22" class="node">
<title>c_0_160</title>
<g id="a_node22"><a xlink:href="c_0_160.html" xlink:title="{R₁ * R₂ ∈ ℝ}" target="_vizar">
<polygon fill="#f8edd1" stroke="#7f7542" points="98.5,-68.5 98.5,-83.5 177.5,-83.5 177.5,-68.5 98.5,-68.5"/>
<text text-anchor="middle" x="138" y="-72.3" font-family="Times,serif" font-size="14.00">R₁ * R₂ ∈ ℝ</text>
</a>
</g>
</g>
<!-- c_0_160&#45;&gt;c_0_175 -->
<g id="edge31" class="edge">
<title>c_0_160&#45;&gt;c_0_175</title>
<path fill="none" stroke="black" stroke-dasharray="5,2" d="M138,-68.33C138,-53.86 138,-24 138,-24 138,-24 497.81,-24 497.81,-24"/>
<polygon fill="black" stroke="black" points="497.81,-27.5 507.81,-24 497.81,-20.5 497.81,-27.5"/>
</g>
<!-- c_0_169 -->
<g id="node23" class="node">
<title>c_0_169</title>
<g id="a_node23"><a xlink:href="c_0_169.html" xlink:title="{R₁ ^ R₂ ∈ ℝ}" target="_vizar">
<polygon fill="#f8edd1" stroke="#7f7542" points="195.5,-68.5 195.5,-83.5 280.5,-83.5 280.5,-68.5 195.5,-68.5"/>
<text text-anchor="middle" x="238" y="-72.3" font-family="Times,serif" font-size="14.00">R₁ ^ R₂ ∈ ℝ</text>
</a>
</g>
</g>
<!-- c_0_169&#45;&gt;c_0_175 -->
<g id="edge32" class="edge">
<title>c_0_169&#45;&gt;c_0_175</title>
<path fill="none" stroke="black" stroke-dasharray="5,2" d="M238,-68.07C238,-54.44 238,-28 238,-28 238,-28 497.87,-28 497.87,-28"/>
<polygon fill="black" stroke="black" points="497.87,-31.5 507.87,-28 497.87,-24.5 497.87,-31.5"/>
</g>
<!-- c_0_62 -->
<g id="node24" class="node">
<title>c_0_62</title>
<g id="a_node24"><a xlink:href="c_0_62.html" xlink:title="{C₁ + C₂ = C₂ + C₁}" target="_vizar">
<polygon fill="#f8edd1" stroke="#7f7542" points="50.5,-380.5 50.5,-395.5 177.5,-395.5 177.5,-380.5 50.5,-380.5"/>
<text text-anchor="middle" x="114" y="-384.3" font-family="Times,serif" font-size="14.00">C₁ + C₂ = C₂ + C₁</text>
</a>
</g>
</g>
<!-- c_0_62&#45;&gt;c_0_70 -->
<g id="edge33" class="edge">
<title>c_0_62&#45;&gt;c_0_70</title>
<path fill="none" stroke="black" stroke-dasharray="5,2" d="M171.25,-380.33C171.25,-365.86 171.25,-336 171.25,-336 171.25,-336 377.39,-336 377.39,-336"/>
<polygon fill="black" stroke="black" points="377.39,-339.5 387.39,-336 377.39,-332.5 377.39,-339.5"/>
</g>
<!-- c_0_62&#45;&gt;c_0_175 -->
<g id="edge34" class="edge">
<title>c_0_62&#45;&gt;c_0_175</title>
<path fill="none" stroke="black" stroke-dasharray="5,2" d="M50.43,-388C34.08,-388 21,-388 21,-388 21,-388 21,-20 21,-20 21,-20 497.63,-20 497.63,-20"/>
<polygon fill="black" stroke="black" points="497.63,-23.5 507.63,-20 497.63,-16.5 497.63,-23.5"/>
</g>
<!-- c_0_171 -->
<g id="node25" class="node">
<title>c_0_171</title>
<g id="a_node25"><a xlink:href="c_0_171.html" xlink:title="{&#45;N₁ ∈ ℝ}" target="_vizar">
<polygon fill="#f8edd1" stroke="#7f7542" points="227,-484.5 227,-499.5 281,-499.5 281,-484.5 227,-484.5"/>
<text text-anchor="middle" x="254" y="-488.3" font-family="Times,serif" font-size="14.00">&#45;N₁ ∈ ℝ</text>
</a>
</g>
</g>
<!-- c_0_171&#45;&gt;c_0_170 -->
<g id="edge35" class="edge">
<title>c_0_171&#45;&gt;c_0_170</title>
<path fill="none" stroke="black" stroke-dasharray="5,2" d="M261,-484.32C261,-478.68 261,-472 261,-472 261,-472 715.83,-472 715.83,-472 715.83,-472 715.83,-457.75 715.83,-457.75"/>
<polygon fill="black" stroke="black" points="719.33,-457.75 715.83,-447.75 712.33,-457.75 719.33,-457.75"/>
</g>
<!-- c_0_151 -->
<g id="node26" class="node">
<title>c_0_151</title>
<g id="a_node26"><a xlink:href="c_0_151.html" xlink:title="{1 * C₁ = C₁}" target="_vizar">
<polygon fill="#f8edd1" stroke="#7f7542" points="201,-120.5 201,-135.5 279,-135.5 279,-120.5 201,-120.5"/>
<text text-anchor="middle" x="240" y="-124.3" font-family="Times,serif" font-size="14.00">1 * C₁ = C₁</text>
</a>
</g>
</g>
<!-- c_0_151&#45;&gt;c_0_155 -->
<g id="edge36" class="edge">
<title>c_0_151&#45;&gt;c_0_155</title>
<path fill="none" stroke="black" stroke-dasharray="5,2" d="M279.08,-128C284.91,-128 289,-128 289,-128 289,-128 289,-76 289,-76 289,-76 296.73,-76 296.73,-76"/>
<polygon fill="black" stroke="black" points="296.73,-79.5 306.73,-76 296.73,-72.5 296.73,-79.5"/>
</g>
<!-- c_0_80 -->
<g id="node27" class="node">
<title>c_0_80</title>
<g id="a_node27"><a xlink:href="c_0_80.html" xlink:title="{R₁ ^ 1 = R₁}" target="_vizar">
<polygon fill="#f8edd1" stroke="#7f7542" points="905.5,-276.5 905.5,-291.5 988.5,-291.5 988.5,-276.5 905.5,-276.5"/>
<text text-anchor="middle" x="947" y="-280.3" font-family="Times,serif" font-size="14.00">R₁ ^ 1 = R₁</text>
</a>
</g>
</g>
<!-- c_0_80&#45;&gt;c_0_109 -->
<g id="edge37" class="edge">
<title>c_0_80&#45;&gt;c_0_109</title>
<path fill="none" stroke="black" stroke-dasharray="5,2" d="M905.23,-280C862.17,-280 801.25,-280 801.25,-280 801.25,-280 801.25,-232 801.25,-232 801.25,-232 765.12,-232 765.12,-232"/>
<polygon fill="black" stroke="black" points="765.12,-228.5 755.12,-232 765.12,-235.5 765.12,-228.5"/>
</g>
<!-- c_0_111 -->
<g id="node28" class="node">
<title>c_0_111</title>
<g id="a_node28"><a xlink:href="c_0_111.html" xlink:title="{R₁ ^ 2 = R₁ ^ 2}" target="_vizar">
<polygon fill="#f8edd1" stroke="#7f7542" points="875.5,-224.5 875.5,-239.5 988.5,-239.5 988.5,-224.5 875.5,-224.5"/>
<text text-anchor="middle" x="932" y="-228.3" font-family="Times,serif" font-size="14.00">R₁ ^ 2 = R₁ ^ 2</text>
</a>
</g>
</g>
<!-- c_0_111&#45;&gt;c_0_125 -->
<g id="edge38" class="edge">
<title>c_0_111&#45;&gt;c_0_125</title>
<path fill="none" stroke="black" stroke-dasharray="5,2" d="M932,-224.49C932,-209.65 932,-178 932,-178 932,-178 765.04,-178 765.04,-178"/>
<polygon fill="black" stroke="black" points="765.04,-174.5 755.04,-178 765.04,-181.5 765.04,-174.5"/>
</g>
<!-- c_0_54 -->
<g id="node29" class="node">
<title>c_0_54</title>
<g id="a_node29"><a xlink:href="c_0_54.html" xlink:title="{τ⁺ ∈ ℝ}" target="_vizar">
<polygon fill="#f8edd1" stroke="#7f7542" points="1118.5,-432.5 1118.5,-447.5 1165.5,-447.5 1165.5,-432.5 1118.5,-432.5"/>
<text text-anchor="middle" x="1142" y="-436.3" font-family="Times,serif" font-size="14.00">τ⁺ ∈ ℝ</text>
</a>
</g>
</g>
<!-- c_0_54&#45;&gt;c_0_65 -->
<g id="edge40" class="edge">
<title>c_0_54&#45;&gt;c_0_65</title>
<path fill="none" stroke="black" stroke-dasharray="5,2" d="M1126.33,-432.33C1126.33,-417.86 1126.33,-388 1126.33,-388 1126.33,-388 784.81,-388 784.81,-388"/>
<polygon fill="black" stroke="black" points="784.81,-384.5 774.81,-388 784.81,-391.5 784.81,-384.5"/>
</g>
<!-- c_0_54&#45;&gt;c_0_92 -->
<g id="edge41" class="edge">
<title>c_0_54&#45;&gt;c_0_92</title>
<path fill="none" stroke="black" stroke-dasharray="5,2" d="M1134.17,-432.24C1134.17,-412.51 1134.17,-362 1134.17,-362 1134.17,-362 759.5,-362 759.5,-362 759.5,-362 759.5,-301.76 759.5,-301.76"/>
<polygon fill="black" stroke="black" points="763,-301.76 759.5,-291.76 756,-301.76 763,-301.76"/>
</g>
<!-- c_0_54&#45;&gt;c_0_109 -->
<g id="edge39" class="edge">
<title>c_0_54&#45;&gt;c_0_109</title>
<path fill="none" stroke="black" stroke-dasharray="5,2" d="M1142,-432.18C1142,-397.34 1142,-258 1142,-258 1142,-258 635.67,-258 635.67,-258 635.67,-258 635.67,-249.66 635.67,-249.66"/>
<polygon fill="black" stroke="black" points="639.17,-249.66 635.67,-239.66 632.17,-249.66 639.17,-249.66"/>
</g>
<!-- c_0_54&#45;&gt;c_0_125 -->
<g id="edge42" class="edge">
<title>c_0_54&#45;&gt;c_0_125</title>
<path fill="none" stroke="black" stroke-dasharray="5,2" d="M1149.83,-432.35C1149.83,-388.91 1149.83,-175 1149.83,-175 1149.83,-175 765.2,-175 765.2,-175"/>
<polygon fill="black" stroke="black" points="765.2,-171.5 755.2,-175 765.2,-178.5 765.2,-171.5"/>
</g>
<!-- c_0_54&#45;&gt;c_0_175 -->
<g id="edge43" class="edge">
<title>c_0_54&#45;&gt;c_0_175</title>
<path fill="none" stroke="black" stroke-dasharray="5,2" d="M1157.67,-432.35C1157.67,-375.43 1157.67,-20 1157.67,-20 1157.67,-20 532.22,-20 532.22,-20"/>
<polygon fill="black" stroke="black" points="532.22,-16.5 522.22,-20 532.22,-23.5 532.22,-16.5"/>
</g>
<!-- c_0_71 -->
<g id="node30" class="node">
<title>c_0_71</title>
<g id="a_node30"><a xlink:href="c_0_71.html" xlink:title="{2 ∈ ℂ}" target="_vizar">
<polygon fill="#f8edd1" stroke="#7f7542" points="241,-380.5 241,-395.5 281,-395.5 281,-380.5 241,-380.5"/>
<text text-anchor="middle" x="261" y="-384.3" font-family="Times,serif" font-size="14.00">2 ∈ ℂ</text>
</a>
</g>
</g>
<!-- c_0_71&#45;&gt;c_0_70 -->
<g id="edge44" class="edge">
<title>c_0_71&#45;&gt;c_0_70</title>
<path fill="none" stroke="black" stroke-dasharray="5,2" d="M281.27,-388C320.4,-388 402.5,-388 402.5,-388 402.5,-388 402.5,-353.67 402.5,-353.67"/>
<polygon fill="black" stroke="black" points="406,-353.67 402.5,-343.67 399,-353.67 406,-353.67"/>
</g>
<!-- c_0_53 -->
<g id="node31" class="node">
<title>c_0_53</title>
<g id="a_node31"><a xlink:href="c_0_53.html" xlink:title="{R₃ ^ (N₁ + N₂) = (R₃ ^ N₁) * (R₃ ^ N₂)}" target="_vizar">
<polygon fill="#f8edd1" stroke="#7f7542" points="831.5,-432.5 831.5,-447.5 1100.5,-447.5 1100.5,-432.5 831.5,-432.5"/>
<text text-anchor="middle" x="966" y="-436.3" font-family="Times,serif" font-size="14.00">R₃ ^ (N₁ + N₂) = (R₃ ^ N₁) * (R₃ ^ N₂)</text>
</a>
</g>
</g>
<!-- c_0_53&#45;&gt;c_0_65 -->
<g id="edge45" class="edge">
<title>c_0_53&#45;&gt;c_0_65</title>
<path fill="none" stroke="black" stroke-dasharray="5,2" d="M831.35,-442C796.14,-442 767.83,-442 767.83,-442 767.83,-442 767.83,-405.51 767.83,-405.51"/>
<polygon fill="black" stroke="black" points="771.33,-405.51 767.83,-395.51 764.33,-405.51 771.33,-405.51"/>
</g>
<!-- c_0_53&#45;&gt;c_0_92 -->
<g id="edge46" class="edge">
<title>c_0_53&#45;&gt;c_0_92</title>
<path fill="none" stroke="black" stroke-dasharray="5,2" d="M844.25,-432.48C844.25,-401.31 844.25,-284 844.25,-284 844.25,-284 785.17,-284 785.17,-284"/>
<polygon fill="black" stroke="black" points="785.17,-280.5 775.17,-284 785.17,-287.5 785.17,-280.5"/>
</g>
<!-- c_0_94 -->
<g id="node32" class="node">
<title>c_0_94</title>
<g id="a_node32"><a xlink:href="c_0_94.html" xlink:title="{C₁ * C₂ = C₂ * C₁}" target="_vizar">
<polygon fill="#f8edd1" stroke="#7f7542" points="165,-224.5 165,-239.5 281,-239.5 281,-224.5 165,-224.5"/>
<text text-anchor="middle" x="223" y="-228.3" font-family="Times,serif" font-size="14.00">C₁ * C₂ = C₂ * C₁</text>
</a>
</g>
</g>
<!-- c_0_94&#45;&gt;c_0_125 -->
<g id="edge47" class="edge">
<title>c_0_94&#45;&gt;c_0_125</title>
<path fill="none" stroke="black" stroke-dasharray="5,2" d="M281.15,-232C314.78,-232 350.5,-232 350.5,-232 350.5,-232 350.5,-182 350.5,-182 350.5,-182 386.95,-182 386.95,-182"/>
<polygon fill="black" stroke="black" points="386.95,-185.5 396.95,-182 386.95,-178.5 386.95,-185.5"/>
</g>
<!-- c_0_127 -->
<g id="node33" class="node">
<title>c_0_127</title>
<g id="a_node33"><a xlink:href="c_0_127.html" xlink:title="{&#45;(&#45;N₁) ∈ ℂ}" target="_vizar">
<polygon fill="#f8edd1" stroke="#7f7542" points="141,-484.5 141,-499.5 209,-499.5 209,-484.5 141,-484.5"/>
<text text-anchor="middle" x="175" y="-488.3" font-family="Times,serif" font-size="14.00">&#45;(&#45;N₁) ∈ ℂ</text>
</a>
</g>
</g>
<!-- c_0_127&#45;&gt;c_0_139 -->
<g id="edge48" class="edge">
<title>c_0_127&#45;&gt;c_0_139</title>
<path fill="none" stroke="black" stroke-dasharray="5,2" d="M193.25,-484.25C193.25,-474.78 193.25,-460 193.25,-460 193.25,-460 643.12,-460 643.12,-460 643.12,-460 643.12,-457.68 643.12,-457.68"/>
<polygon fill="black" stroke="black" points="646.63,-457.68 643.12,-447.68 639.63,-457.68 646.63,-457.68"/>
</g>
<!-- c_0_114 -->
<g id="node34" class="node">
<title>c_0_114</title>
<g id="a_node34"><a xlink:href="c_0_114.html" xlink:title="{&#45;(&#45;N₁) = N₁}" target="_vizar">
<polygon fill="#f8edd1" stroke="#7f7542" points="205,-551.5 205,-566.5 281,-566.5 281,-551.5 205,-551.5"/>
<text text-anchor="middle" x="243" y="-555.3" font-family="Times,serif" font-size="14.00">&#45;(&#45;N₁) = N₁</text>
</a>
</g>
</g>
<!-- c_0_114&#45;&gt;c_0_128 -->
<g id="edge49" class="edge">
<title>c_0_114&#45;&gt;c_0_128</title>
<path fill="none" stroke="black" stroke-dasharray="5,2" d="M254,-551.33C254,-548.98 254,-547 254,-547 254,-547 671.33,-547 671.33,-547 671.33,-547 671.33,-509.65 671.33,-509.65"/>
<polygon fill="black" stroke="black" points="674.83,-509.65 671.33,-499.65 667.83,-509.65 674.83,-509.65"/>
</g>
<!-- c_0_132 -->
<g id="node35" class="node">
<title>c_0_132</title>
<g id="a_node35"><a xlink:href="c_0_132.html" xlink:title="{R₁ ∈ ℂ}" target="_vizar">
<polygon fill="#f8edd1" stroke="#7f7542" points="791.5,-68.5 791.5,-83.5 838.5,-83.5 838.5,-68.5 791.5,-68.5"/>
<text text-anchor="middle" x="815" y="-72.3" font-family="Times,serif" font-size="14.00">R₁ ∈ ℂ</text>
</a>
</g>
</g>
<!-- c_0_132&#45;&gt;c_0_175 -->
<g id="edge50" class="edge">
<title>c_0_132&#45;&gt;c_0_175</title>
<path fill="none" stroke="black" stroke-dasharray="5,2" d="M815,-68.33C815,-53.86 815,-24 815,-24 815,-24 532.12,-24 532.12,-24"/>
<polygon fill="black" stroke="black" points="532.12,-20.5 522.12,-24 532.12,-27.5 532.12,-20.5"/>
</g>
<!-- c_0_38 -->
<g id="node36" class="node">
<title>c_0_38</title>
<g id="a_node36"><a xlink:href="c_0_38.html" xlink:title="{X₂ ∈ ℕ|⇊|N₁ + X₂ = N₁ + X₂}" target="_vizar">
<polygon fill="#f8edd1" stroke="#7f7542" points="54,-536.5 54,-581.5 182,-581.5 182,-536.5 54,-536.5"/>
<text text-anchor="middle" x="118" y="-570.3" font-family="Times,serif" font-size="14.00">X₂ ∈ ℕ</text>
<polyline fill="none" stroke="#7f7542" points="54,-566.5 182,-566.5 "/>
<text text-anchor="middle" x="118" y="-555.3" font-family="Times,serif" font-size="14.00">⇊</text>
<polyline fill="none" stroke="#7f7542" points="54,-551.5 182,-551.5 "/>
<text text-anchor="middle" x="118" y="-540.3" font-family="Times,serif" font-size="14.00">N₁ + X₂ = N₁ + X₂</text>
</a>
</g>
</g>
<!-- c_0_38&#45;&gt;c_0_51 -->
<g id="edge52" class="edge">
<title>c_0_38&#45;&gt;c_0_51</title>
<path fill="none" stroke="black" stroke-dasharray="5,2" d="M182.24,-539C260.39,-539 382,-539 382,-539 382,-539 382,-509.76 382,-509.76"/>
<polygon fill="black" stroke="black" points="385.5,-509.76 382,-499.76 378.5,-509.76 385.5,-509.76"/>
</g>
<!-- c_0_38&#45;&gt;c_0_58 -->
<g id="edge51" class="edge">
<title>c_0_38&#45;&gt;c_0_58</title>
<path fill="none" stroke="black" stroke-dasharray="5,2" d="M97.5,-536.44C97.5,-502.44 97.5,-442 97.5,-442 97.5,-442 286.89,-442 286.89,-442"/>
<polygon fill="black" stroke="black" points="286.89,-445.5 296.89,-442 286.89,-438.5 286.89,-445.5"/>
</g>
</g>
</svg>
