<?xml version="1.0" encoding="UTF-8" standalone="no"?>
<!DOCTYPE svg PUBLIC "-//W3C//DTD SVG 1.1//EN"
 "http://www.w3.org/Graphics/SVG/1.1/DTD/svg11.dtd">
<!-- Generated by graphviz version 5.0.0 (0)
 -->
<!-- Title: proof Pages: 1 -->
<svg width="198pt" height="108pt"
 viewBox="0.00 0.00 198.00 108.00" xmlns="http://www.w3.org/2000/svg" xmlns:xlink="http://www.w3.org/1999/xlink">
<g id="graph0" class="graph" transform="scale(1 1) rotate(0) translate(4 104)">
<title>proof</title>
<g id="clust1" class="cluster">
<title>cluster_1</title>
<polygon fill="transparent" stroke="black" stroke-width="2" points="46,-60 46,-92 144,-92 144,-60 46,-60"/>
</g>
<g id="clust2" class="cluster">
<title>cluster_2</title>
<polygon fill="transparent" stroke="black" stroke-dasharray="1,5" points="8,-8 8,-40 182,-40 182,-8 8,-8"/>
</g>
<!-- d1_fib_num -->
<g id="node1" class="node">
<title>d1_fib_num</title>
<g id="a_node1"><a xlink:href="d1_fib_num.html" xlink:title="d1_fib_num" target="_vizar">
<polygon fill="#69d2e7" stroke="#7f7542" points="54,-68.5 54,-83.5 136,-83.5 136,-68.5 54,-68.5"/>
<text text-anchor="middle" x="95" y="-72.3" font-family="Times,serif" font-size="14.00">d1_fib_num</text>
</a>
</g>
</g>
<!-- c_0_76 -->
<g id="node2" class="node">
<title>c_0_76</title>
<g id="a_node2"><a xlink:href="c_0_76.html" xlink:title="{tau = (1 + sqrt(5)) / 2}" target="_vizar">
<polygon fill="#f8edd1" stroke="#7f7542" points="16.5,-16.5 16.5,-31.5 173.5,-31.5 173.5,-16.5 16.5,-16.5"/>
<text text-anchor="middle" x="95" y="-20.3" font-family="Times,serif" font-size="14.00">tau = (1 + sqrt(5)) / 2</text>
</a>
</g>
</g>
<!-- d1_fib_num&#45;&gt;c_0_76 -->
<g id="edge1" class="edge">
<title>d1_fib_num&#45;&gt;c_0_76</title>
<path fill="none" stroke="black" d="M95,-68.33C95,-68.33 95,-41.7 95,-41.7"/>
<polygon fill="black" stroke="black" points="98.5,-41.7 95,-31.7 91.5,-41.7 98.5,-41.7"/>
</g>
</g>
</svg>
