<?xml version="1.0" encoding="UTF-8" standalone="no"?>
<!DOCTYPE svg PUBLIC "-//W3C//DTD SVG 1.1//EN"
 "http://www.w3.org/Graphics/SVG/1.1/DTD/svg11.dtd">
<!-- Generated by graphviz version 5.0.0 (0)
 -->
<!-- Title: proof Pages: 1 -->
<svg width="556pt" height="76pt"
 viewBox="0.00 0.00 556.00 76.00" xmlns="http://www.w3.org/2000/svg" xmlns:xlink="http://www.w3.org/1999/xlink">
<g id="graph0" class="graph" transform="scale(1 1) rotate(0) translate(4 72)">
<title>proof</title>
<!-- t9_fib_num3 -->
<g id="node1" class="node">
<title>t9_fib_num3</title>
<g id="a_node1"><a xlink:href="t9_fib_num3.html" xlink:title="t9_fib_num3" target="_vizar">
<polygon fill="#fa6900" stroke="#7f7542" points="124,-52.5 124,-67.5 212,-67.5 212,-52.5 124,-52.5"/>
<text text-anchor="middle" x="168" y="-56.3" font-family="Times,serif" font-size="14.00">t9_fib_num3</text>
</a>
</g>
</g>
<!-- c_0_40 -->
<g id="node2" class="node">
<title>c_0_40</title>
<g id="a_node2"><a xlink:href="c_0_40.html" xlink:title="{sk₁ ∈ ℕ}" target="_vizar">
<polygon fill="#fa6900" stroke="#7f7542" points="0,-0.5 0,-15.5 54,-15.5 54,-0.5 0,-0.5"/>
<text text-anchor="middle" x="27" y="-4.3" font-family="Times,serif" font-size="14.00">sk₁ ∈ ℕ</text>
</a>
</g>
</g>
<!-- t9_fib_num3&#45;&gt;c_0_40 -->
<g id="edge1" class="edge">
<title>t9_fib_num3&#45;&gt;c_0_40</title>
<path fill="none" stroke="black" d="M123.77,-60C82.42,-60 27,-60 27,-60 27,-60 27,-25.67 27,-25.67"/>
<polygon fill="black" stroke="black" points="30.5,-25.67 27,-15.67 23.5,-25.67 30.5,-25.67"/>
</g>
<!-- c_0_37 -->
<g id="node3" class="node">
<title>c_0_37</title>
<g id="a_node3"><a xlink:href="c_0_37.html" xlink:title="{to_power(tau,sk₁) + to_power(tau,sk₁ + 1) ≠ to_power(tau,sk₁ + 2)}" target="_vizar">
<polygon fill="#fa6900" stroke="#7f7542" points="72,-0.5 72,-15.5 548,-15.5 548,-0.5 72,-0.5"/>
<text text-anchor="middle" x="310" y="-4.3" font-family="Times,serif" font-size="14.00">to_power(tau,sk₁) + to_power(tau,sk₁ + 1) ≠ to_power(tau,sk₁ + 2)</text>
</a>
</g>
</g>
<!-- t9_fib_num3&#45;&gt;c_0_37 -->
<g id="edge2" class="edge">
<title>t9_fib_num3&#45;&gt;c_0_37</title>
<path fill="none" stroke="black" d="M168,-52.33C168,-52.33 168,-25.7 168,-25.7"/>
<polygon fill="black" stroke="black" points="171.5,-25.7 168,-15.7 164.5,-25.7 171.5,-25.7"/>
</g>
</g>
</svg>
