<?xml version="1.0" encoding="UTF-8" standalone="no"?>
<!DOCTYPE svg PUBLIC "-//W3C//DTD SVG 1.1//EN"
 "http://www.w3.org/Graphics/SVG/1.1/DTD/svg11.dtd">
<!-- Generated by graphviz version 5.0.0 (0)
 -->
<!-- Title: proof Pages: 1 -->
<svg width="218pt" height="138pt"
 viewBox="0.00 0.00 218.00 138.00" xmlns="http://www.w3.org/2000/svg" xmlns:xlink="http://www.w3.org/1999/xlink">
<g id="graph0" class="graph" transform="scale(1 1) rotate(0) translate(4 134)">
<title>proof</title>
<g id="clust1" class="cluster">
<title>cluster_1</title>
<polygon fill="transparent" stroke="black" stroke-width="2" points="8,-90 8,-122 202,-122 202,-90 8,-90"/>
</g>
<g id="clust2" class="cluster">
<title>cluster_2</title>
<polygon fill="transparent" stroke="black" stroke-dasharray="1,5" points="62,-8 62,-70 148,-70 148,-8 62,-8"/>
</g>
<!-- redefinition_k7_square_1 -->
<g id="node1" class="node">
<title>redefinition_k7_square_1</title>
<g id="a_node1"><a xlink:href="redefinition_k7_square_1.html" xlink:title="redefinition_k7_square_1" target="_vizar">
<polygon fill="#69d2e7" stroke="#7f7542" points="16,-98.5 16,-113.5 194,-113.5 194,-98.5 16,-98.5"/>
<text text-anchor="middle" x="105" y="-102.3" font-family="Times,serif" font-size="14.00">redefinition_k7_square_1</text>
</a>
</g>
</g>
<!-- c_0_106 -->
<g id="node2" class="node">
<title>c_0_106</title>
<g id="a_node2"><a xlink:href="c_0_106.html" xlink:title="{X₁ ∈ ℝ|⇊|√X₁ = √X₁}" target="_vizar">
<polygon fill="#f8edd1" stroke="#7f7542" points="70,-16.5 70,-61.5 140,-61.5 140,-16.5 70,-16.5"/>
<text text-anchor="middle" x="105" y="-50.3" font-family="Times,serif" font-size="14.00">X₁ ∈ ℝ</text>
<polyline fill="none" stroke="#7f7542" points="70,-46.5 140,-46.5 "/>
<text text-anchor="middle" x="105" y="-35.3" font-family="Times,serif" font-size="14.00">⇊</text>
<polyline fill="none" stroke="#7f7542" points="70,-31.5 140,-31.5 "/>
<text text-anchor="middle" x="105" y="-20.3" font-family="Times,serif" font-size="14.00">√X₁ = √X₁</text>
</a>
</g>
</g>
<!-- redefinition_k7_square_1&#45;&gt;c_0_106 -->
<g id="edge1" class="edge">
<title>redefinition_k7_square_1&#45;&gt;c_0_106</title>
<path fill="none" stroke="black" d="M105,-98.31C105,-98.31 105,-71.76 105,-71.76"/>
<polygon fill="black" stroke="black" points="108.5,-71.76 105,-61.76 101.5,-71.76 108.5,-71.76"/>
</g>
</g>
</svg>
