<?xml version="1.0" encoding="UTF-8" standalone="no"?>
<!DOCTYPE svg PUBLIC "-//W3C//DTD SVG 1.1//EN"
 "http://www.w3.org/Graphics/SVG/1.1/DTD/svg11.dtd">
<!-- Generated by graphviz version 5.0.0 (0)
 -->
<!-- Title: proof Pages: 1 -->
<svg width="304pt" height="108pt"
 viewBox="0.00 0.00 304.00 108.00" xmlns="http://www.w3.org/2000/svg" xmlns:xlink="http://www.w3.org/1999/xlink">
<g id="graph0" class="graph" transform="scale(1 1) rotate(0) translate(4 104)">
<title>proof</title>
<g id="clust1" class="cluster">
<title>cluster_1</title>
<polygon fill="transparent" stroke="black" stroke-width="2" points="96,-60 96,-92 200,-92 200,-60 96,-60"/>
</g>
<g id="clust2" class="cluster">
<title>cluster_2</title>
<polygon fill="transparent" stroke="black" stroke-dasharray="1,5" points="8,-8 8,-40 288,-40 288,-8 8,-8"/>
</g>
<!-- spc5_arithm -->
<g id="node1" class="node">
<title>spc5_arithm</title>
<g id="a_node1"><a xlink:href="spc5_arithm.html" xlink:title="spc5_arithm" target="_parent">
<polygon fill="#69d2e7" stroke="#7f7542" points="104,-68.5 104,-83.5 192,-83.5 192,-68.5 104,-68.5"/>
<text text-anchor="middle" x="148" y="-72.3" font-family="Times,serif" font-size="14.00">spc5_arithm</text>
</a>
</g>
</g>
<!-- c_0_136 -->
<g id="node2" class="node">
<title>c_0_136</title>
<g id="a_node2"><a xlink:href="c_0_136.html" xlink:title="{(N₁ + N₂) * N₃ = (N₁ * N₃) + (N₂ * N₃)}" target="_parent">
<polygon fill="#f8edd1" stroke="#7f7542" points="16.5,-16.5 16.5,-31.5 279.5,-31.5 279.5,-16.5 16.5,-16.5"/>
<text text-anchor="middle" x="148" y="-20.3" font-family="Times,serif" font-size="14.00">(N₁ + N₂) * N₃ = (N₁ * N₃) + (N₂ * N₃)</text>
</a>
</g>
</g>
<!-- spc5_arithm&#45;&gt;c_0_136 -->
<g id="edge1" class="edge">
<title>spc5_arithm&#45;&gt;c_0_136</title>
<path fill="none" stroke="black" d="M148,-68.33C148,-68.33 148,-41.7 148,-41.7"/>
<polygon fill="black" stroke="black" points="151.5,-41.7 148,-31.7 144.5,-41.7 151.5,-41.7"/>
</g>
</g>
</svg>
