<?xml version="1.0" encoding="UTF-8" standalone="no"?>
<!DOCTYPE svg PUBLIC "-//W3C//DTD SVG 1.1//EN"
 "http://www.w3.org/Graphics/SVG/1.1/DTD/svg11.dtd">
<!-- Generated by graphviz version 5.0.0 (0)
 -->
<!-- Title: proof Pages: 1 -->
<svg width="250pt" height="190pt"
 viewBox="0.00 0.00 250.00 190.00" xmlns="http://www.w3.org/2000/svg" xmlns:xlink="http://www.w3.org/1999/xlink">
<g id="graph0" class="graph" transform="scale(1 1) rotate(0) translate(4 186)">
<title>proof</title>
<g id="clust1" class="cluster">
<title>cluster_0</title>
<polygon fill="transparent" stroke="black" stroke-dasharray="1,5" points="8,-112 8,-174 234,-174 234,-112 8,-112"/>
</g>
<g id="clust2" class="cluster">
<title>cluster_1</title>
<polygon fill="transparent" stroke="black" stroke-width="2" points="73,-60 73,-92 141,-92 141,-60 73,-60"/>
</g>
<g id="clust3" class="cluster">
<title>cluster_2</title>
<polygon fill="transparent" stroke="black" stroke-dasharray="1,5" points="92,-8 92,-40 122,-40 122,-8 92,-8"/>
</g>
<!-- c_0_76 -->
<g id="node1" class="node">
<title>c_0_76</title>
<g id="a_node1"><a xlink:href="c_0_76.html" xlink:title="{prime(N₁)|⇊|N₁ ≤ sk₁}" target="_vizar">
<polygon fill="#fa6900" stroke="#7f7542" points="156,-120.5 156,-165.5 226,-165.5 226,-120.5 156,-120.5"/>
<text text-anchor="middle" x="191" y="-154.3" font-family="Times,serif" font-size="14.00">prime(N₁)</text>
<polyline fill="none" stroke="#7f7542" points="156,-150.5 226,-150.5 "/>
<text text-anchor="middle" x="191" y="-139.3" font-family="Times,serif" font-size="14.00">⇊</text>
<polyline fill="none" stroke="#7f7542" points="156,-135.5 226,-135.5 "/>
<text text-anchor="middle" x="191" y="-124.3" font-family="Times,serif" font-size="14.00">N₁ ≤ sk₁</text>
</a>
</g>
</g>
<!-- c_0_139 -->
<g id="node4" class="node">
<title>c_0_139</title>
<g id="a_node4"><a xlink:href="c_0_139.html" xlink:title="{2 ≤ sk₁}" target="_vizar">
<polygon fill="#fa6900" stroke="#7f7542" points="81,-68.5 81,-83.5 133,-83.5 133,-68.5 81,-68.5"/>
<text text-anchor="middle" x="107" y="-72.3" font-family="Times,serif" font-size="14.00">2 ≤ sk₁</text>
</a>
</g>
</g>
<!-- c_0_76&#45;&gt;c_0_139 -->
<g id="edge1" class="edge">
<title>c_0_76&#45;&gt;c_0_139</title>
<path fill="none" stroke="black" d="M155.98,-127C136.31,-127 115.67,-127 115.67,-127 115.67,-127 115.67,-93.53 115.67,-93.53"/>
<polygon fill="black" stroke="black" points="119.17,-93.53 115.67,-83.53 112.17,-93.53 119.17,-93.53"/>
</g>
<!-- c_0_134 -->
<g id="node2" class="node">
<title>c_0_134</title>
<g id="a_node2"><a xlink:href="c_0_134.html" xlink:title="{prime(2)}" target="_vizar">
<polygon fill="#f8edd1" stroke="#7f7542" points="76,-135.5 76,-150.5 138,-150.5 138,-135.5 76,-135.5"/>
<text text-anchor="middle" x="107" y="-139.3" font-family="Times,serif" font-size="14.00">prime(2)</text>
</a>
</g>
</g>
<!-- c_0_134&#45;&gt;c_0_139 -->
<g id="edge2" class="edge">
<title>c_0_134&#45;&gt;c_0_139</title>
<path fill="none" stroke="black" d="M98.33,-135.31C98.33,-135.31 98.33,-93.6 98.33,-93.6"/>
<polygon fill="black" stroke="black" points="101.83,-93.6 98.33,-83.6 94.83,-93.6 101.83,-93.6"/>
</g>
<!-- c_0_104 -->
<g id="node3" class="node">
<title>c_0_104</title>
<g id="a_node3"><a xlink:href="c_0_104.html" xlink:title="{2 ∈ ℕ}" target="_vizar">
<polygon fill="#f8edd1" stroke="#7f7542" points="16,-135.5 16,-150.5 58,-150.5 58,-135.5 16,-135.5"/>
<text text-anchor="middle" x="37" y="-139.3" font-family="Times,serif" font-size="14.00">2 ∈ ℕ</text>
</a>
</g>
</g>
<!-- c_0_104&#45;&gt;c_0_139 -->
<g id="edge3" class="edge">
<title>c_0_104&#45;&gt;c_0_139</title>
<path fill="none" stroke="black" d="M37,-135.31C37,-117.72 37,-76 37,-76 37,-76 70.93,-76 70.93,-76"/>
<polygon fill="black" stroke="black" points="70.93,-79.5 80.93,-76 70.93,-72.5 70.93,-79.5"/>
</g>
<!-- c_0_145 -->
<g id="node5" class="node">
<title>c_0_145</title>
<g id="a_node5"><a xlink:href="c_0_145.html" xlink:title="⊥" target="_vizar">
<polygon fill="#fa6900" stroke="#7f7542" points="100,-16.5 100,-31.5 114,-31.5 114,-16.5 100,-16.5"/>
<text text-anchor="middle" x="107" y="-20.3" font-family="Times,serif" font-size="14.00">⊥</text>
</a>
</g>
</g>
<!-- c_0_139&#45;&gt;c_0_145 -->
<g id="edge4" class="edge">
<title>c_0_139&#45;&gt;c_0_145</title>
<path fill="none" stroke="black" stroke-dasharray="5,2" d="M107,-68.33C107,-68.33 107,-41.7 107,-41.7"/>
<polygon fill="black" stroke="black" points="110.5,-41.7 107,-31.7 103.5,-41.7 110.5,-41.7"/>
</g>
</g>
</svg>
