<?xml version="1.0" encoding="UTF-8" standalone="no"?>
<!DOCTYPE svg PUBLIC "-//W3C//DTD SVG 1.1//EN"
 "http://www.w3.org/Graphics/SVG/1.1/DTD/svg11.dtd">
<!-- Generated by graphviz version 5.0.0 (0)
 -->
<!-- Title: proof Pages: 1 -->
<svg width="206pt" height="160pt"
 viewBox="0.00 0.00 206.00 160.00" xmlns="http://www.w3.org/2000/svg" xmlns:xlink="http://www.w3.org/1999/xlink">
<g id="graph0" class="graph" transform="scale(1 1) rotate(0) translate(4 156)">
<title>proof</title>
<polygon fill="white" stroke="transparent" points="-4,4 -4,-156 202,-156 202,4 -4,4"/>
<g id="clust1" class="cluster">
<title>cluster_0</title>
<polygon fill="none" stroke="black" stroke-dasharray="1,5" points="8,-112 8,-144 190,-144 190,-112 8,-112"/>
</g>
<g id="clust2" class="cluster">
<title>cluster_1</title>
<polygon fill="none" stroke="black" stroke-width="2" points="66,-60 66,-92 132,-92 132,-60 66,-60"/>
</g>
<g id="clust3" class="cluster">
<title>cluster_2</title>
<polygon fill="none" stroke="black" stroke-dasharray="1,5" points="42,-8 42,-40 156,-40 156,-8 42,-8"/>
</g>
<!-- redefinition_k9_newton -->
<g id="node1" class="node">
<title>redefinition_k9_newton</title>
<g id="a_node1"><a xlink:href="http://grid01.ciirc.cvut.cz/~mptp/7.13.01_4.181.1147/html/newton.html#K9" xlink:title="redefinition_k9_newton" target="_blank">
<polygon fill="#69d2e7" stroke="#7f7542" points="16,-120.5 16,-135.5 182,-135.5 182,-120.5 16,-120.5"/>
<text text-anchor="middle" x="99" y="-124.3" font-family="Times,serif" font-size="14.00">redefinition_k9_newton</text>
</a>
</g>
</g>
<!-- c_0_72 -->
<g id="node2" class="node">
<title>c_0_72</title>
<g id="a_node2"><a xlink:href="c_0_72.html" xlink:title="c_0_72" target="_parent">
<polygon fill="#f8edd1" stroke="#7f7542" points="74.5,-68.5 74.5,-83.5 123.5,-83.5 123.5,-68.5 74.5,-68.5"/>
<text text-anchor="middle" x="99" y="-72.3" font-family="Times,serif" font-size="14.00">c_0_72</text>
</a>
</g>
</g>
<!-- redefinition_k9_newton&#45;&gt;c_0_72 -->
<g id="edge1" class="edge">
<title>redefinition_k9_newton&#45;&gt;c_0_72</title>
<path fill="none" stroke="black" d="M99,-120.33C99,-120.33 99,-93.7 99,-93.7"/>
<polygon fill="black" stroke="black" points="102.5,-93.7 99,-83.7 95.5,-93.7 102.5,-93.7"/>
</g>
<!-- c_0_79 -->
<g id="node3" class="node">
<title>c_0_79</title>
<g id="a_node3"><a xlink:href="c_0_79.html" xlink:title="{(N1!) = (N1!)}" target="_parent">
<polygon fill="#f8edd1" stroke="#7f7542" points="50.5,-16.5 50.5,-31.5 147.5,-31.5 147.5,-16.5 50.5,-16.5"/>
<text text-anchor="middle" x="99" y="-20.3" font-family="Times,serif" font-size="14.00">(N1!) = (N1!)</text>
</a>
</g>
</g>
<!-- c_0_72&#45;&gt;c_0_79 -->
<g id="edge2" class="edge">
<title>c_0_72&#45;&gt;c_0_79</title>
<path fill="none" stroke="black" stroke-dasharray="5,2" d="M99,-68.33C99,-68.33 99,-41.7 99,-41.7"/>
<polygon fill="black" stroke="black" points="102.5,-41.7 99,-31.7 95.5,-41.7 102.5,-41.7"/>
</g>
</g>
</svg>
