<?xml version="1.0" encoding="UTF-8" standalone="no"?>
<!DOCTYPE svg PUBLIC "-//W3C//DTD SVG 1.1//EN"
 "http://www.w3.org/Graphics/SVG/1.1/DTD/svg11.dtd">
<!-- Generated by graphviz version 5.0.0 (0)
 -->
<!-- Title: proof Pages: 1 -->
<svg width="269pt" height="190pt"
 viewBox="0.00 0.00 269.00 190.00" xmlns="http://www.w3.org/2000/svg" xmlns:xlink="http://www.w3.org/1999/xlink">
<g id="graph0" class="graph" transform="scale(1 1) rotate(0) translate(4 186)">
<title>proof</title>
<g id="clust1" class="cluster">
<title>cluster_0</title>
<polygon fill="transparent" stroke="black" stroke-dasharray="1,5" points="27,-112 27,-174 217,-174 217,-112 27,-112"/>
</g>
<g id="clust2" class="cluster">
<title>cluster_1</title>
<polygon fill="transparent" stroke="black" stroke-width="2" points="48,-60 48,-92 106,-92 106,-60 48,-60"/>
</g>
<g id="clust3" class="cluster">
<title>cluster_2</title>
<polygon fill="transparent" stroke="black" stroke-dasharray="1,5" points="8,-8 8,-40 253,-40 253,-8 8,-8"/>
</g>
<!-- spc1_numerals -->
<g id="node1" class="node">
<title>spc1_numerals</title>
<g id="a_node1"><a xlink:href="spc1_numerals.html" xlink:title="spc1_numerals" target="_parent">
<polygon fill="#69d2e7" stroke="#7f7542" points="101.5,-135.5 101.5,-150.5 208.5,-150.5 208.5,-135.5 101.5,-135.5"/>
<text text-anchor="middle" x="155" y="-139.3" font-family="Times,serif" font-size="14.00">spc1_numerals</text>
</a>
</g>
</g>
<!-- c_0_106 -->
<g id="node3" class="node">
<title>c_0_106</title>
<g id="a_node3"><a xlink:href="c_0_106.html" xlink:title="{1 ∈ ℕ}" target="_parent">
<polygon fill="#f8edd1" stroke="#7f7542" points="56,-68.5 56,-83.5 98,-83.5 98,-68.5 56,-68.5"/>
<text text-anchor="middle" x="77" y="-72.3" font-family="Times,serif" font-size="14.00">1 ∈ ℕ</text>
</a>
</g>
</g>
<!-- spc1_numerals&#45;&gt;c_0_106 -->
<g id="edge1" class="edge">
<title>spc1_numerals&#45;&gt;c_0_106</title>
<path fill="none" stroke="black" d="M101.44,-143C94.92,-143 90.5,-143 90.5,-143 90.5,-143 90.5,-93.69 90.5,-93.69"/>
<polygon fill="black" stroke="black" points="94,-93.69 90.5,-83.69 87,-93.69 94,-93.69"/>
</g>
<!-- c_0_104 -->
<g id="node2" class="node">
<title>c_0_104</title>
<g id="a_node2"><a xlink:href="c_0_104.html" xlink:title="{X₁ ∈ ℕ|⇊|X₁ ∈ ℕ}" target="_parent">
<polygon fill="#f8edd1" stroke="#7f7542" points="35,-120.5 35,-165.5 83,-165.5 83,-120.5 35,-120.5"/>
<text text-anchor="middle" x="59" y="-154.3" font-family="Times,serif" font-size="14.00">X₁ ∈ ℕ</text>
<polyline fill="none" stroke="#7f7542" points="35,-150.5 83,-150.5 "/>
<text text-anchor="middle" x="59" y="-139.3" font-family="Times,serif" font-size="14.00">⇊</text>
<polyline fill="none" stroke="#7f7542" points="35,-135.5 83,-135.5 "/>
<text text-anchor="middle" x="59" y="-124.3" font-family="Times,serif" font-size="14.00">X₁ ∈ ℕ</text>
</a>
</g>
</g>
<!-- c_0_104&#45;&gt;c_0_106 -->
<g id="edge2" class="edge">
<title>c_0_104&#45;&gt;c_0_106</title>
<path fill="none" stroke="black" d="M69.5,-120.32C69.5,-120.32 69.5,-93.59 69.5,-93.59"/>
<polygon fill="black" stroke="black" points="73,-93.59 69.5,-83.59 66,-93.59 73,-93.59"/>
</g>
<!-- c_0_135 -->
<g id="node4" class="node">
<title>c_0_135</title>
<g id="a_node4"><a xlink:href="c_0_135.html" xlink:title="{¬ (2 ≤ (sk₁!) + 1)}" target="_parent">
<polygon fill="#fa6900" stroke="#7f7542" points="119.5,-16.5 119.5,-31.5 244.5,-31.5 244.5,-16.5 119.5,-16.5"/>
<text text-anchor="middle" x="182" y="-20.3" font-family="Times,serif" font-size="14.00">¬ (2 ≤ (sk₁!) + 1)</text>
</a>
</g>
</g>
<!-- c_0_106&#45;&gt;c_0_135 -->
<g id="edge3" class="edge">
<title>c_0_106&#45;&gt;c_0_135</title>
<path fill="none" stroke="black" stroke-dasharray="5,2" d="M98.06,-76C123.81,-76 164,-76 164,-76 164,-76 164,-41.67 164,-41.67"/>
<polygon fill="black" stroke="black" points="167.5,-41.67 164,-31.67 160.5,-41.67 167.5,-41.67"/>
</g>
<!-- c_0_158 -->
<g id="node5" class="node">
<title>c_0_158</title>
<g id="a_node5"><a xlink:href="c_0_158.html" xlink:title="{¬ (2 ≤ sk₁!)}" target="_parent">
<polygon fill="#fa6900" stroke="#7f7542" points="16.5,-16.5 16.5,-31.5 101.5,-31.5 101.5,-16.5 16.5,-16.5"/>
<text text-anchor="middle" x="59" y="-20.3" font-family="Times,serif" font-size="14.00">¬ (2 ≤ sk₁!)</text>
</a>
</g>
</g>
<!-- c_0_106&#45;&gt;c_0_158 -->
<g id="edge4" class="edge">
<title>c_0_106&#45;&gt;c_0_158</title>
<path fill="none" stroke="black" stroke-dasharray="5,2" d="M77,-68.33C77,-68.33 77,-41.7 77,-41.7"/>
<polygon fill="black" stroke="black" points="80.5,-41.7 77,-31.7 73.5,-41.7 80.5,-41.7"/>
</g>
</g>
</svg>
