<?xml version="1.0" encoding="UTF-8" standalone="no"?>
<!DOCTYPE svg PUBLIC "-//W3C//DTD SVG 1.1//EN"
 "http://www.w3.org/Graphics/SVG/1.1/DTD/svg11.dtd">
<!-- Generated by graphviz version 5.0.0 (0)
 -->
<!-- Title: proof Pages: 1 -->
<svg width="400pt" height="310pt"
 viewBox="0.00 0.00 400.00 310.00" xmlns="http://www.w3.org/2000/svg" xmlns:xlink="http://www.w3.org/1999/xlink">
<g id="graph0" class="graph" transform="scale(1 1) rotate(0) translate(4 306)">
<title>proof</title>
<g id="clust1" class="cluster">
<title>cluster_0</title>
<polygon fill="transparent" stroke="black" stroke-dasharray="1,5" points="8,-217 8,-294 384,-294 384,-217 8,-217"/>
</g>
<g id="clust2" class="cluster">
<title>cluster_1</title>
<polygon fill="transparent" stroke="black" stroke-width="2" points="94,-105 94,-197 244,-197 244,-105 94,-105"/>
</g>
<g id="clust3" class="cluster">
<title>cluster_2</title>
<polygon fill="transparent" stroke="black" stroke-dasharray="1,5" points="96,-8 96,-85 242,-85 242,-8 96,-8"/>
</g>
<!-- c_0_59 -->
<g id="node1" class="node">
<title>c_0_59</title>
<g id="a_node1"><a xlink:href="c_0_59.html" xlink:title="{2 ≤ N₁|⇊|sk₄(N₁) ∈ ℕ}" target="_vizar">
<polygon fill="#f8edd1" stroke="#7f7542" points="294,-233 294,-278 376,-278 376,-233 294,-233"/>
<text text-anchor="middle" x="335" y="-266.8" font-family="Times,serif" font-size="14.00">2 ≤ N₁</text>
<polyline fill="none" stroke="#7f7542" points="294,-263 376,-263 "/>
<text text-anchor="middle" x="335" y="-251.8" font-family="Times,serif" font-size="14.00">⇊</text>
<polyline fill="none" stroke="#7f7542" points="294,-248 376,-248 "/>
<text text-anchor="middle" x="335" y="-236.8" font-family="Times,serif" font-size="14.00">sk₄(N₁) ∈ ℕ</text>
</a>
</g>
</g>
<!-- c_0_96 -->
<g id="node5" class="node">
<title>c_0_96</title>
<g id="a_node5"><a xlink:href="c_0_96.html" xlink:title="{2 ≤ (N₁!) + 1|sk₄((N₁!) + 1) ≤ N₁|⇊|sk₄((N₁!) + 1) = 0|sk₄((N₁!) + 1) = 1}" target="_vizar">
<polygon fill="#f8edd1" stroke="#7f7542" points="102,-113.5 102,-188.5 236,-188.5 236,-113.5 102,-113.5"/>
<text text-anchor="middle" x="169" y="-177.3" font-family="Times,serif" font-size="14.00">2 ≤ (N₁!) + 1</text>
<polyline fill="none" stroke="#7f7542" points="102,-173.5 236,-173.5 "/>
<text text-anchor="middle" x="169" y="-162.3" font-family="Times,serif" font-size="14.00">sk₄((N₁!) + 1) ≤ N₁</text>
<polyline fill="none" stroke="#7f7542" points="102,-158.5 236,-158.5 "/>
<text text-anchor="middle" x="169" y="-147.3" font-family="Times,serif" font-size="14.00">⇊</text>
<polyline fill="none" stroke="#7f7542" points="102,-143.5 236,-143.5 "/>
<text text-anchor="middle" x="169" y="-132.3" font-family="Times,serif" font-size="14.00">sk₄((N₁!) + 1) = 0</text>
<polyline fill="none" stroke="#7f7542" points="102,-128.5 236,-128.5 "/>
<text text-anchor="middle" x="169" y="-117.3" font-family="Times,serif" font-size="14.00">sk₄((N₁!) + 1) = 1</text>
</a>
</g>
</g>
<!-- c_0_59&#45;&gt;c_0_96 -->
<g id="edge1" class="edge">
<title>c_0_59&#45;&gt;c_0_96</title>
<path fill="none" stroke="black" d="M335,-232.83C335,-202.09 335,-151 335,-151 335,-151 246.04,-151 246.04,-151"/>
<polygon fill="black" stroke="black" points="246.04,-147.5 236.04,-151 246.04,-154.5 246.04,-147.5"/>
</g>
<!-- c_0_86 -->
<g id="node2" class="node">
<title>c_0_86</title>
<g id="a_node2"><a xlink:href="c_0_86.html" xlink:title="{2 ≤ N₁ + 1|sk₄(N₁ + 1) । N₁|⇊|sk₄(N₁ + 1) = 1}" target="_vizar">
<polygon fill="#f8edd1" stroke="#7f7542" points="164.5,-225.5 164.5,-285.5 275.5,-285.5 275.5,-225.5 164.5,-225.5"/>
<text text-anchor="middle" x="220" y="-274.3" font-family="Times,serif" font-size="14.00">2 ≤ N₁ + 1</text>
<polyline fill="none" stroke="#7f7542" points="164.5,-270.5 275.5,-270.5 "/>
<text text-anchor="middle" x="220" y="-259.3" font-family="Times,serif" font-size="14.00">sk₄(N₁ + 1) । N₁</text>
<polyline fill="none" stroke="#7f7542" points="164.5,-255.5 275.5,-255.5 "/>
<text text-anchor="middle" x="220" y="-244.3" font-family="Times,serif" font-size="14.00">⇊</text>
<polyline fill="none" stroke="#7f7542" points="164.5,-240.5 275.5,-240.5 "/>
<text text-anchor="middle" x="220" y="-229.3" font-family="Times,serif" font-size="14.00">sk₄(N₁ + 1) = 1</text>
</a>
</g>
</g>
<!-- c_0_86&#45;&gt;c_0_96 -->
<g id="edge2" class="edge">
<title>c_0_86&#45;&gt;c_0_96</title>
<path fill="none" stroke="black" d="M200.25,-225.27C200.25,-225.27 200.25,-198.59 200.25,-198.59"/>
<polygon fill="black" stroke="black" points="203.75,-198.59 200.25,-188.59 196.75,-198.59 203.75,-198.59"/>
</g>
<!-- c_0_88 -->
<g id="node3" class="node">
<title>c_0_88</title>
<g id="a_node3"><a xlink:href="c_0_88.html" xlink:title="{N₁! ∈ ℕ}" target="_vizar">
<polygon fill="#f8edd1" stroke="#7f7542" points="90,-248 90,-263 146,-263 146,-248 90,-248"/>
<text text-anchor="middle" x="118" y="-251.8" font-family="Times,serif" font-size="14.00">N₁! ∈ ℕ</text>
</a>
</g>
</g>
<!-- c_0_88&#45;&gt;c_0_96 -->
<g id="edge3" class="edge">
<title>c_0_88&#45;&gt;c_0_96</title>
<path fill="none" stroke="black" d="M131.33,-247.98C131.33,-247.98 131.33,-198.52 131.33,-198.52"/>
<polygon fill="black" stroke="black" points="134.83,-198.52 131.33,-188.52 127.83,-198.52 134.83,-198.52"/>
</g>
<!-- c_0_61 -->
<g id="node4" class="node">
<title>c_0_61</title>
<g id="a_node4"><a xlink:href="c_0_61.html" xlink:title="{N₁ ≤ N₂|⇊|N₁ = 0|N₁ । N₂!}" target="_vizar">
<polygon fill="#f8edd1" stroke="#7f7542" points="16,-225.5 16,-285.5 72,-285.5 72,-225.5 16,-225.5"/>
<text text-anchor="middle" x="44" y="-274.3" font-family="Times,serif" font-size="14.00">N₁ ≤ N₂</text>
<polyline fill="none" stroke="#7f7542" points="16,-270.5 72,-270.5 "/>
<text text-anchor="middle" x="44" y="-259.3" font-family="Times,serif" font-size="14.00">⇊</text>
<polyline fill="none" stroke="#7f7542" points="16,-255.5 72,-255.5 "/>
<text text-anchor="middle" x="44" y="-244.3" font-family="Times,serif" font-size="14.00">N₁ = 0</text>
<polyline fill="none" stroke="#7f7542" points="16,-240.5 72,-240.5 "/>
<text text-anchor="middle" x="44" y="-229.3" font-family="Times,serif" font-size="14.00">N₁ । N₂!</text>
</a>
</g>
</g>
<!-- c_0_61&#45;&gt;c_0_96 -->
<g id="edge4" class="edge">
<title>c_0_61&#45;&gt;c_0_96</title>
<path fill="none" stroke="black" d="M72.3,-236C92.71,-236 116.67,-236 116.67,-236 116.67,-236 116.67,-198.53 116.67,-198.53"/>
<polygon fill="black" stroke="black" points="120.17,-198.53 116.67,-188.53 113.17,-198.53 120.17,-198.53"/>
</g>
<!-- c_0_106 -->
<g id="node6" class="node">
<title>c_0_106</title>
<g id="a_node6"><a xlink:href="c_0_106.html" xlink:title="{2 ≤ (sk₁!) + 1|⇊|sk₄((sk₁!) + 1) = 0|sk₄((sk₁!) + 1) = 1}" target="_vizar">
<polygon fill="#fa6900" stroke="#7f7542" points="104,-16.5 104,-76.5 234,-76.5 234,-16.5 104,-16.5"/>
<text text-anchor="middle" x="169" y="-65.3" font-family="Times,serif" font-size="14.00">2 ≤ (sk₁!) + 1</text>
<polyline fill="none" stroke="#7f7542" points="104,-61.5 234,-61.5 "/>
<text text-anchor="middle" x="169" y="-50.3" font-family="Times,serif" font-size="14.00">⇊</text>
<polyline fill="none" stroke="#7f7542" points="104,-46.5 234,-46.5 "/>
<text text-anchor="middle" x="169" y="-35.3" font-family="Times,serif" font-size="14.00">sk₄((sk₁!) + 1) = 0</text>
<polyline fill="none" stroke="#7f7542" points="104,-31.5 234,-31.5 "/>
<text text-anchor="middle" x="169" y="-20.3" font-family="Times,serif" font-size="14.00">sk₄((sk₁!) + 1) = 1</text>
</a>
</g>
</g>
<!-- c_0_96&#45;&gt;c_0_106 -->
<g id="edge5" class="edge">
<title>c_0_96&#45;&gt;c_0_106</title>
<path fill="none" stroke="black" stroke-dasharray="5,2" d="M169,-113.27C169,-113.27 169,-86.64 169,-86.64"/>
<polygon fill="black" stroke="black" points="172.5,-86.64 169,-76.64 165.5,-86.64 172.5,-86.64"/>
</g>
</g>
</svg>
