<?xml version="1.0" encoding="UTF-8" standalone="no"?>
<!DOCTYPE svg PUBLIC "-//W3C//DTD SVG 1.1//EN"
 "http://www.w3.org/Graphics/SVG/1.1/DTD/svg11.dtd">
<!-- Generated by graphviz version 5.0.0 (0)
 -->
<!-- Title: proof Pages: 1 -->
<svg width="456pt" height="190pt"
 viewBox="0.00 0.00 456.00 190.00" xmlns="http://www.w3.org/2000/svg" xmlns:xlink="http://www.w3.org/1999/xlink">
<g id="graph0" class="graph" transform="scale(1 1) rotate(0) translate(4 186)">
<title>proof</title>
<polygon fill="white" stroke="transparent" points="-4,4 -4,-186 452,-186 452,4 -4,4"/>
<g id="clust1" class="cluster">
<title>cluster_0</title>
<polygon fill="none" stroke="black" stroke-dasharray="1,5" points="173,-142 173,-174 257,-174 257,-142 173,-142"/>
</g>
<g id="clust2" class="cluster">
<title>cluster_1</title>
<polygon fill="none" stroke="black" stroke-width="2" points="182,-90 182,-122 248,-122 248,-90 182,-90"/>
</g>
<g id="clust3" class="cluster">
<title>cluster_2</title>
<polygon fill="none" stroke="black" stroke-dasharray="1,5" points="8,-8 8,-70 440,-70 440,-8 8,-8"/>
</g>
<!-- t31_int_2 -->
<g id="node1" class="node">
<title>t31_int_2</title>
<g id="a_node1"><a xlink:href="http://grid01.ciirc.cvut.cz/~mptp/7.13.01_4.181.1147/html/int_2.html#T31" xlink:title="t31_int_2" target="_blank">
<polygon fill="#69d2e7" stroke="#7f7542" points="181.5,-150.5 181.5,-165.5 248.5,-165.5 248.5,-150.5 181.5,-150.5"/>
<text text-anchor="middle" x="215" y="-154.3" font-family="Times,serif" font-size="14.00">t31_int_2</text>
</a>
</g>
</g>
<!-- c_0_43 -->
<g id="node2" class="node">
<title>c_0_43</title>
<g id="a_node2"><a xlink:href="c_0_43.html" xlink:title="c_0_43" target="_parent">
<polygon fill="#f8edd1" stroke="#7f7542" points="190.5,-98.5 190.5,-113.5 239.5,-113.5 239.5,-98.5 190.5,-98.5"/>
<text text-anchor="middle" x="215" y="-102.3" font-family="Times,serif" font-size="14.00">c_0_43</text>
</a>
</g>
</g>
<!-- t31_int_2&#45;&gt;c_0_43 -->
<g id="edge1" class="edge">
<title>t31_int_2&#45;&gt;c_0_43</title>
<path fill="none" stroke="black" d="M215,-150.33C215,-150.33 215,-123.7 215,-123.7"/>
<polygon fill="black" stroke="black" points="218.5,-123.7 215,-113.7 211.5,-123.7 218.5,-123.7"/>
</g>
<!-- c_0_86 -->
<g id="node3" class="node">
<title>c_0_86</title>
<g id="a_node3"><a xlink:href="c_0_86.html" xlink:title="{2 ≤ N1|⇊|prime(esk4_1(N1))}" target="_parent">
<polygon fill="#f8edd1" stroke="#7f7542" points="298.5,-16.5 298.5,-61.5 431.5,-61.5 431.5,-16.5 298.5,-16.5"/>
<text text-anchor="middle" x="365" y="-50.3" font-family="Times,serif" font-size="14.00">2 ≤ N1</text>
<polyline fill="none" stroke="#7f7542" points="298.5,-46.5 431.5,-46.5 "/>
<text text-anchor="middle" x="365" y="-35.3" font-family="Times,serif" font-size="14.00">⇊</text>
<polyline fill="none" stroke="#7f7542" points="298.5,-31.5 431.5,-31.5 "/>
<text text-anchor="middle" x="365" y="-20.3" font-family="Times,serif" font-size="14.00">prime(esk4_1(N1))</text>
</a>
</g>
</g>
<!-- c_0_43&#45;&gt;c_0_86 -->
<g id="edge2" class="edge">
<title>c_0_43&#45;&gt;c_0_86</title>
<path fill="none" stroke="black" stroke-dasharray="5,2" d="M239.77,-106C282.37,-106 365,-106 365,-106 365,-106 365,-71.68 365,-71.68"/>
<polygon fill="black" stroke="black" points="368.5,-71.68 365,-61.68 361.5,-71.68 368.5,-71.68"/>
</g>
<!-- c_0_55 -->
<g id="node4" class="node">
<title>c_0_55</title>
<g id="a_node4"><a xlink:href="c_0_55.html" xlink:title="{2 ≤ N1|⇊|esk4_1(N1) ∈ NAT}" target="_parent">
<polygon fill="#f8edd1" stroke="#7f7542" points="150,-16.5 150,-61.5 280,-61.5 280,-16.5 150,-16.5"/>
<text text-anchor="middle" x="215" y="-50.3" font-family="Times,serif" font-size="14.00">2 ≤ N1</text>
<polyline fill="none" stroke="#7f7542" points="150,-46.5 280,-46.5 "/>
<text text-anchor="middle" x="215" y="-35.3" font-family="Times,serif" font-size="14.00">⇊</text>
<polyline fill="none" stroke="#7f7542" points="150,-31.5 280,-31.5 "/>
<text text-anchor="middle" x="215" y="-20.3" font-family="Times,serif" font-size="14.00">esk4_1(N1) ∈ NAT</text>
</a>
</g>
</g>
<!-- c_0_43&#45;&gt;c_0_55 -->
<g id="edge3" class="edge">
<title>c_0_43&#45;&gt;c_0_55</title>
<path fill="none" stroke="black" stroke-dasharray="5,2" d="M215,-98.31C215,-98.31 215,-71.76 215,-71.76"/>
<polygon fill="black" stroke="black" points="218.5,-71.76 215,-61.76 211.5,-71.76 218.5,-71.76"/>
</g>
<!-- c_0_53 -->
<g id="node5" class="node">
<title>c_0_53</title>
<g id="a_node5"><a xlink:href="c_0_53.html" xlink:title="{2 ≤ N1|⇊|esk4_1(N1) । N1}" target="_parent">
<polygon fill="#f8edd1" stroke="#7f7542" points="16,-16.5 16,-61.5 132,-61.5 132,-16.5 16,-16.5"/>
<text text-anchor="middle" x="74" y="-50.3" font-family="Times,serif" font-size="14.00">2 ≤ N1</text>
<polyline fill="none" stroke="#7f7542" points="16,-46.5 132,-46.5 "/>
<text text-anchor="middle" x="74" y="-35.3" font-family="Times,serif" font-size="14.00">⇊</text>
<polyline fill="none" stroke="#7f7542" points="16,-31.5 132,-31.5 "/>
<text text-anchor="middle" x="74" y="-20.3" font-family="Times,serif" font-size="14.00">esk4_1(N1) । N1</text>
</a>
</g>
</g>
<!-- c_0_43&#45;&gt;c_0_53 -->
<g id="edge4" class="edge">
<title>c_0_43&#45;&gt;c_0_53</title>
<path fill="none" stroke="black" stroke-dasharray="5,2" d="M190.44,-106C150.04,-106 74,-106 74,-106 74,-106 74,-71.68 74,-71.68"/>
<polygon fill="black" stroke="black" points="77.5,-71.68 74,-61.68 70.5,-71.68 77.5,-71.68"/>
</g>
</g>
</svg>
