<?xml version="1.0" encoding="UTF-8" standalone="no"?>
<!DOCTYPE svg PUBLIC "-//W3C//DTD SVG 1.1//EN"
 "http://www.w3.org/Graphics/SVG/1.1/DTD/svg11.dtd">
<!-- Generated by graphviz version 5.0.0 (0)
 -->
<!-- Title: proof Pages: 1 -->
<svg width="385pt" height="310pt"
 viewBox="0.00 0.00 385.00 310.00" xmlns="http://www.w3.org/2000/svg" xmlns:xlink="http://www.w3.org/1999/xlink">
<g id="graph0" class="graph" transform="scale(1 1) rotate(0) translate(4 306)">
<title>proof</title>
<polygon fill="white" stroke="transparent" points="-4,4 -4,-306 381,-306 381,4 -4,4"/>
<g id="clust1" class="cluster">
<title>cluster_0</title>
<polygon fill="none" stroke="black" stroke-dasharray="1,5" points="8,-217 8,-294 369,-294 369,-217 8,-217"/>
</g>
<g id="clust2" class="cluster">
<title>cluster_1</title>
<polygon fill="none" stroke="black" stroke-width="2" points="101,-120 101,-197 257,-197 257,-120 101,-120"/>
</g>
<g id="clust3" class="cluster">
<title>cluster_2</title>
<polygon fill="none" stroke="black" stroke-dasharray="1,5" points="90,-8 90,-100 268,-100 268,-8 90,-8"/>
</g>
<!-- c_0_53 -->
<g id="node1" class="node">
<title>c_0_53</title>
<g id="a_node1"><a xlink:href="c_0_53.html" xlink:title="{2 ≤ N₁|⇊|esk4_1(N₁) । N₁}" target="_parent">
<polygon fill="#f8edd1" stroke="#7f7542" points="251.5,-233 251.5,-278 360.5,-278 360.5,-233 251.5,-233"/>
<text text-anchor="middle" x="306" y="-266.8" font-family="Times,serif" font-size="14.00">2 ≤ N₁</text>
<polyline fill="none" stroke="#7f7542" points="251.5,-263 360.5,-263 "/>
<text text-anchor="middle" x="306" y="-251.8" font-family="Times,serif" font-size="14.00">⇊</text>
<polyline fill="none" stroke="#7f7542" points="251.5,-248 360.5,-248 "/>
<text text-anchor="middle" x="306" y="-236.8" font-family="Times,serif" font-size="14.00">esk4_1(N₁) । N₁</text>
</a>
</g>
</g>
<!-- c_0_74 -->
<g id="node4" class="node">
<title>c_0_74</title>
<g id="a_node4"><a xlink:href="c_0_74.html" xlink:title="{2 ≤ (N₁ + 1)|esk4_1(N₁ + 1) । N₁|⇊|esk4_1(N₁ + 1) = 1}" target="_parent">
<polygon fill="#f8edd1" stroke="#7f7542" points="109.5,-128.5 109.5,-188.5 248.5,-188.5 248.5,-128.5 109.5,-128.5"/>
<text text-anchor="middle" x="179" y="-177.3" font-family="Times,serif" font-size="14.00">2 ≤ (N₁ + 1)</text>
<polyline fill="none" stroke="#7f7542" points="109.5,-173.5 248.5,-173.5 "/>
<text text-anchor="middle" x="179" y="-162.3" font-family="Times,serif" font-size="14.00">esk4_1(N₁ + 1) । N₁</text>
<polyline fill="none" stroke="#7f7542" points="109.5,-158.5 248.5,-158.5 "/>
<text text-anchor="middle" x="179" y="-147.3" font-family="Times,serif" font-size="14.00">⇊</text>
<polyline fill="none" stroke="#7f7542" points="109.5,-143.5 248.5,-143.5 "/>
<text text-anchor="middle" x="179" y="-132.3" font-family="Times,serif" font-size="14.00">esk4_1(N₁ + 1) = 1</text>
</a>
</g>
</g>
<!-- c_0_53&#45;&gt;c_0_74 -->
<g id="edge1" class="edge">
<title>c_0_53&#45;&gt;c_0_74</title>
<path fill="none" stroke="black" d="M251.44,-255C245.19,-255 241,-255 241,-255 241,-255 241,-198.5 241,-198.5"/>
<polygon fill="black" stroke="black" points="244.5,-198.5 241,-188.5 237.5,-198.5 244.5,-198.5"/>
</g>
<!-- c_0_55 -->
<g id="node2" class="node">
<title>c_0_55</title>
<g id="a_node2"><a xlink:href="c_0_55.html" xlink:title="{2 ≤ N₁|⇊|esk4_1(N₁) ∈ ℕ}" target="_parent">
<polygon fill="#f8edd1" stroke="#7f7542" points="124.5,-233 124.5,-278 233.5,-278 233.5,-233 124.5,-233"/>
<text text-anchor="middle" x="179" y="-266.8" font-family="Times,serif" font-size="14.00">2 ≤ N₁</text>
<polyline fill="none" stroke="#7f7542" points="124.5,-263 233.5,-263 "/>
<text text-anchor="middle" x="179" y="-251.8" font-family="Times,serif" font-size="14.00">⇊</text>
<polyline fill="none" stroke="#7f7542" points="124.5,-248 233.5,-248 "/>
<text text-anchor="middle" x="179" y="-236.8" font-family="Times,serif" font-size="14.00">esk4_1(N₁) ∈ ℕ</text>
</a>
</g>
</g>
<!-- c_0_55&#45;&gt;c_0_74 -->
<g id="edge2" class="edge">
<title>c_0_55&#45;&gt;c_0_74</title>
<path fill="none" stroke="black" d="M179,-232.51C179,-232.51 179,-198.67 179,-198.67"/>
<polygon fill="black" stroke="black" points="182.5,-198.67 179,-188.67 175.5,-198.67 182.5,-198.67"/>
</g>
<!-- c_0_41 -->
<g id="node3" class="node">
<title>c_0_41</title>
<g id="a_node3"><a xlink:href="c_0_41.html" xlink:title="{N₁ । (N₂ + 1)|N₁ । N₂|⇊|N₁ = 1}" target="_parent">
<polygon fill="#f8edd1" stroke="#7f7542" points="16,-225.5 16,-285.5 106,-285.5 106,-225.5 16,-225.5"/>
<text text-anchor="middle" x="61" y="-274.3" font-family="Times,serif" font-size="14.00">N₁ । (N₂ + 1)</text>
<polyline fill="none" stroke="#7f7542" points="16,-270.5 106,-270.5 "/>
<text text-anchor="middle" x="61" y="-259.3" font-family="Times,serif" font-size="14.00">N₁ । N₂</text>
<polyline fill="none" stroke="#7f7542" points="16,-255.5 106,-255.5 "/>
<text text-anchor="middle" x="61" y="-244.3" font-family="Times,serif" font-size="14.00">⇊</text>
<polyline fill="none" stroke="#7f7542" points="16,-240.5 106,-240.5 "/>
<text text-anchor="middle" x="61" y="-229.3" font-family="Times,serif" font-size="14.00">N₁ = 1</text>
</a>
</g>
</g>
<!-- c_0_41&#45;&gt;c_0_74 -->
<g id="edge3" class="edge">
<title>c_0_41&#45;&gt;c_0_74</title>
<path fill="none" stroke="black" d="M106.2,-228C112.57,-228 117,-228 117,-228 117,-228 117,-198.78 117,-198.78"/>
<polygon fill="black" stroke="black" points="120.5,-198.78 117,-188.78 113.5,-198.78 120.5,-198.78"/>
</g>
<!-- c_0_89 -->
<g id="node5" class="node">
<title>c_0_89</title>
<g id="a_node5"><a xlink:href="c_0_89.html" xlink:title="{2 ≤ ((N₁!) + 1)|esk4_1((N₁!) + 1) ≤ N₁|⇊|esk4_1((N₁!) + 1) = 0|esk4_1((N₁!) + 1) = 1}" target="_parent">
<polygon fill="#f8edd1" stroke="#7f7542" points="98,-16.5 98,-91.5 260,-91.5 260,-16.5 98,-16.5"/>
<text text-anchor="middle" x="179" y="-80.3" font-family="Times,serif" font-size="14.00">2 ≤ ((N₁!) + 1)</text>
<polyline fill="none" stroke="#7f7542" points="98,-76.5 260,-76.5 "/>
<text text-anchor="middle" x="179" y="-65.3" font-family="Times,serif" font-size="14.00">esk4_1((N₁!) + 1) ≤ N₁</text>
<polyline fill="none" stroke="#7f7542" points="98,-61.5 260,-61.5 "/>
<text text-anchor="middle" x="179" y="-50.3" font-family="Times,serif" font-size="14.00">⇊</text>
<polyline fill="none" stroke="#7f7542" points="98,-46.5 260,-46.5 "/>
<text text-anchor="middle" x="179" y="-35.3" font-family="Times,serif" font-size="14.00">esk4_1((N₁!) + 1) = 0</text>
<polyline fill="none" stroke="#7f7542" points="98,-31.5 260,-31.5 "/>
<text text-anchor="middle" x="179" y="-20.3" font-family="Times,serif" font-size="14.00">esk4_1((N₁!) + 1) = 1</text>
</a>
</g>
</g>
<!-- c_0_74&#45;&gt;c_0_89 -->
<g id="edge4" class="edge">
<title>c_0_74&#45;&gt;c_0_89</title>
<path fill="none" stroke="black" stroke-dasharray="5,2" d="M179,-128.27C179,-128.27 179,-101.59 179,-101.59"/>
<polygon fill="black" stroke="black" points="182.5,-101.59 179,-91.59 175.5,-101.59 182.5,-101.59"/>
</g>
</g>
</svg>
