<?xml version="1.0" encoding="UTF-8" standalone="no"?>
<!DOCTYPE svg PUBLIC "-//W3C//DTD SVG 1.1//EN"
 "http://www.w3.org/Graphics/SVG/1.1/DTD/svg11.dtd">
<!-- Generated by graphviz version 5.0.0 (0)
 -->
<!-- Title: proof Pages: 1 -->
<svg width="235pt" height="220pt"
 viewBox="0.00 0.00 235.00 220.00" xmlns="http://www.w3.org/2000/svg" xmlns:xlink="http://www.w3.org/1999/xlink">
<g id="graph0" class="graph" transform="scale(1 1) rotate(0) translate(4 216)">
<title>proof</title>
<g id="clust1" class="cluster">
<title>cluster_0</title>
<polygon fill="transparent" stroke="black" stroke-dasharray="1,5" points="29,-142 29,-204 219,-204 219,-142 29,-142"/>
</g>
<g id="clust2" class="cluster">
<title>cluster_1</title>
<polygon fill="transparent" stroke="black" stroke-width="2" points="52,-90 52,-122 110,-122 110,-90 52,-90"/>
</g>
<g id="clust3" class="cluster">
<title>cluster_2</title>
<polygon fill="transparent" stroke="black" stroke-dasharray="1,5" points="8,-8 8,-70 154,-70 154,-8 8,-8"/>
</g>
<!-- spc0_numerals -->
<g id="node1" class="node">
<title>spc0_numerals</title>
<g id="a_node1"><a xlink:href="spc0_numerals.html" xlink:title="spc0_numerals" target="_parent">
<polygon fill="#69d2e7" stroke="#7f7542" points="103.5,-165.5 103.5,-180.5 210.5,-180.5 210.5,-165.5 103.5,-165.5"/>
<text text-anchor="middle" x="157" y="-169.3" font-family="Times,serif" font-size="14.00">spc0_numerals</text>
</a>
</g>
</g>
<!-- c_0_100 -->
<g id="node3" class="node">
<title>c_0_100</title>
<g id="a_node3"><a xlink:href="c_0_100.html" xlink:title="{0 ∈ ℕ}" target="_parent">
<polygon fill="#f8edd1" stroke="#7f7542" points="60,-98.5 60,-113.5 102,-113.5 102,-98.5 60,-98.5"/>
<text text-anchor="middle" x="81" y="-102.3" font-family="Times,serif" font-size="14.00">0 ∈ ℕ</text>
</a>
</g>
</g>
<!-- spc0_numerals&#45;&gt;c_0_100 -->
<g id="edge1" class="edge">
<title>spc0_numerals&#45;&gt;c_0_100</title>
<path fill="none" stroke="black" d="M103.42,-173C97.47,-173 93.5,-173 93.5,-173 93.5,-173 93.5,-123.69 93.5,-123.69"/>
<polygon fill="black" stroke="black" points="97,-123.69 93.5,-113.69 90,-123.69 97,-123.69"/>
</g>
<!-- c_0_104 -->
<g id="node2" class="node">
<title>c_0_104</title>
<g id="a_node2"><a xlink:href="c_0_104.html" xlink:title="{X₁ ∈ ℕ|⇊|X₁ ∈ ℕ}" target="_parent">
<polygon fill="#f8edd1" stroke="#7f7542" points="37,-150.5 37,-195.5 85,-195.5 85,-150.5 37,-150.5"/>
<text text-anchor="middle" x="61" y="-184.3" font-family="Times,serif" font-size="14.00">X₁ ∈ ℕ</text>
<polyline fill="none" stroke="#7f7542" points="37,-180.5 85,-180.5 "/>
<text text-anchor="middle" x="61" y="-169.3" font-family="Times,serif" font-size="14.00">⇊</text>
<polyline fill="none" stroke="#7f7542" points="37,-165.5 85,-165.5 "/>
<text text-anchor="middle" x="61" y="-154.3" font-family="Times,serif" font-size="14.00">X₁ ∈ ℕ</text>
</a>
</g>
</g>
<!-- c_0_104&#45;&gt;c_0_100 -->
<g id="edge2" class="edge">
<title>c_0_104&#45;&gt;c_0_100</title>
<path fill="none" stroke="black" d="M72.5,-150.32C72.5,-150.32 72.5,-123.59 72.5,-123.59"/>
<polygon fill="black" stroke="black" points="76,-123.59 72.5,-113.59 69,-123.59 76,-123.59"/>
</g>
<!-- c_0_122 -->
<g id="node4" class="node">
<title>c_0_122</title>
<g id="a_node4"><a xlink:href="c_0_122.html" xlink:title="{2 ≤ (sk₁!) + 1|⇊|sk₄((sk₁!) + 1) = 1}" target="_parent">
<polygon fill="#fa6900" stroke="#7f7542" points="16,-16.5 16,-61.5 146,-61.5 146,-16.5 16,-16.5"/>
<text text-anchor="middle" x="81" y="-50.3" font-family="Times,serif" font-size="14.00">2 ≤ (sk₁!) + 1</text>
<polyline fill="none" stroke="#7f7542" points="16,-46.5 146,-46.5 "/>
<text text-anchor="middle" x="81" y="-35.3" font-family="Times,serif" font-size="14.00">⇊</text>
<polyline fill="none" stroke="#7f7542" points="16,-31.5 146,-31.5 "/>
<text text-anchor="middle" x="81" y="-20.3" font-family="Times,serif" font-size="14.00">sk₄((sk₁!) + 1) = 1</text>
</a>
</g>
</g>
<!-- c_0_100&#45;&gt;c_0_122 -->
<g id="edge3" class="edge">
<title>c_0_100&#45;&gt;c_0_122</title>
<path fill="none" stroke="black" stroke-dasharray="5,2" d="M81,-98.31C81,-98.31 81,-71.76 81,-71.76"/>
<polygon fill="black" stroke="black" points="84.5,-71.76 81,-61.76 77.5,-71.76 84.5,-71.76"/>
</g>
</g>
</svg>
