<?xml version="1.0" encoding="UTF-8" standalone="no"?>
<!DOCTYPE svg PUBLIC "-//W3C//DTD SVG 1.1//EN"
 "http://www.w3.org/Graphics/SVG/1.1/DTD/svg11.dtd">
<!-- Generated by graphviz version 5.0.0 (0)
 -->
<!-- Title: proof Pages: 1 -->
<svg width="375pt" height="190pt"
 viewBox="0.00 0.00 375.00 190.00" xmlns="http://www.w3.org/2000/svg" xmlns:xlink="http://www.w3.org/1999/xlink">
<g id="graph0" class="graph" transform="scale(1 1) rotate(0) translate(4 186)">
<title>proof</title>
<polygon fill="white" stroke="transparent" points="-4,4 -4,-186 371,-186 371,4 -4,4"/>
<g id="clust1" class="cluster">
<title>cluster_0</title>
<polygon fill="none" stroke="black" stroke-dasharray="1,5" points="8,-142 8,-174 280,-174 280,-142 8,-142"/>
</g>
<g id="clust2" class="cluster">
<title>cluster_1</title>
<polygon fill="none" stroke="black" stroke-width="2" points="116,-90 116,-122 172,-122 172,-90 116,-90"/>
</g>
<g id="clust3" class="cluster">
<title>cluster_2</title>
<polygon fill="none" stroke="black" stroke-dasharray="1,5" points="22,-8 22,-70 359,-70 359,-8 22,-8"/>
</g>
<!-- rqLessOrEqual__r1_xxreal_0__r0_r1 -->
<g id="node1" class="node">
<title>rqLessOrEqual__r1_xxreal_0__r0_r1</title>
<g id="a_node1"><a xlink:href="rqLessOrEqual__r1_xxreal_0__r0_r1.html" xlink:title="rqLessOrEqual__r1_xxreal_0__r0_r1" target="_parent">
<polygon fill="#69d2e7" stroke="#7f7542" points="16,-150.5 16,-165.5 272,-165.5 272,-150.5 16,-150.5"/>
<text text-anchor="middle" x="144" y="-154.3" font-family="Times,serif" font-size="14.00">rqLessOrEqual__r1_xxreal_0__r0_r1</text>
</a>
</g>
</g>
<!-- c_0_103 -->
<g id="node2" class="node">
<title>c_0_103</title>
<g id="a_node2"><a xlink:href="c_0_103.html" xlink:title="{0 ≤ 1}" target="_parent">
<polygon fill="#f8edd1" stroke="#7f7542" points="124,-98.5 124,-113.5 164,-113.5 164,-98.5 124,-98.5"/>
<text text-anchor="middle" x="144" y="-102.3" font-family="Times,serif" font-size="14.00">0 ≤ 1</text>
</a>
</g>
</g>
<!-- rqLessOrEqual__r1_xxreal_0__r0_r1&#45;&gt;c_0_103 -->
<g id="edge1" class="edge">
<title>rqLessOrEqual__r1_xxreal_0__r0_r1&#45;&gt;c_0_103</title>
<path fill="none" stroke="black" d="M144,-150.33C144,-150.33 144,-123.7 144,-123.7"/>
<polygon fill="black" stroke="black" points="147.5,-123.7 144,-113.7 140.5,-123.7 147.5,-123.7"/>
</g>
<!-- c_0_158 -->
<g id="node3" class="node">
<title>c_0_158</title>
<g id="a_node3"><a xlink:href="c_0_158.html" xlink:title="{2 ≤ (skolem₁!)|⇊|⊥}" target="_parent">
<polygon fill="#fa6900" stroke="#7f7542" points="247.5,-16.5 247.5,-61.5 350.5,-61.5 350.5,-16.5 247.5,-16.5"/>
<text text-anchor="middle" x="299" y="-50.3" font-family="Times,serif" font-size="14.00">2 ≤ (skolem₁!)</text>
<polyline fill="none" stroke="#7f7542" points="247.5,-46.5 350.5,-46.5 "/>
<text text-anchor="middle" x="299" y="-35.3" font-family="Times,serif" font-size="14.00">⇊</text>
<polyline fill="none" stroke="#7f7542" points="247.5,-31.5 350.5,-31.5 "/>
<text text-anchor="middle" x="299" y="-20.3" font-family="Times,serif" font-size="14.00">⊥</text>
</a>
</g>
</g>
<!-- c_0_103&#45;&gt;c_0_158 -->
<g id="edge2" class="edge">
<title>c_0_103&#45;&gt;c_0_158</title>
<path fill="none" stroke="black" stroke-dasharray="5,2" d="M164.16,-106C197.33,-106 259.75,-106 259.75,-106 259.75,-106 259.75,-71.68 259.75,-71.68"/>
<polygon fill="black" stroke="black" points="263.25,-71.68 259.75,-61.68 256.25,-71.68 263.25,-71.68"/>
</g>
<!-- c_0_122 -->
<g id="node4" class="node">
<title>c_0_122</title>
<g id="a_node4"><a xlink:href="c_0_122.html" xlink:title="{2 ≤ ((skolem₁!) + 1)|⇊|skolem₄((skolem₁!) + 1) = 1}" target="_parent">
<polygon fill="#fa6900" stroke="#7f7542" points="30.5,-16.5 30.5,-61.5 229.5,-61.5 229.5,-16.5 30.5,-16.5"/>
<text text-anchor="middle" x="130" y="-50.3" font-family="Times,serif" font-size="14.00">2 ≤ ((skolem₁!) + 1)</text>
<polyline fill="none" stroke="#7f7542" points="30.5,-46.5 229.5,-46.5 "/>
<text text-anchor="middle" x="130" y="-35.3" font-family="Times,serif" font-size="14.00">⇊</text>
<polyline fill="none" stroke="#7f7542" points="30.5,-31.5 229.5,-31.5 "/>
<text text-anchor="middle" x="130" y="-20.3" font-family="Times,serif" font-size="14.00">skolem₄((skolem₁!) + 1) = 1</text>
</a>
</g>
</g>
<!-- c_0_103&#45;&gt;c_0_122 -->
<g id="edge3" class="edge">
<title>c_0_103&#45;&gt;c_0_122</title>
<path fill="none" stroke="black" stroke-dasharray="5,2" d="M144,-98.31C144,-98.31 144,-71.76 144,-71.76"/>
<polygon fill="black" stroke="black" points="147.5,-71.76 144,-61.76 140.5,-71.76 147.5,-71.76"/>
</g>
</g>
</svg>
