<?xml version="1.0" encoding="UTF-8" standalone="no"?>
<!DOCTYPE svg PUBLIC "-//W3C//DTD SVG 1.1//EN"
 "http://www.w3.org/Graphics/SVG/1.1/DTD/svg11.dtd">
<!-- Generated by graphviz version 5.0.0 (0)
 -->
<!-- Title: proof Pages: 1 -->
<svg width="259pt" height="415pt"
 viewBox="0.00 0.00 259.00 415.00" xmlns="http://www.w3.org/2000/svg" xmlns:xlink="http://www.w3.org/1999/xlink">
<g id="graph0" class="graph" transform="scale(1 1) rotate(0) translate(4 411)">
<title>proof</title>
<polygon fill="white" stroke="transparent" points="-4,4 -4,-411 255,-411 255,4 -4,4"/>
<g id="clust1" class="cluster">
<title>cluster_0</title>
<polygon fill="none" stroke="black" stroke-dasharray="1,5" points="8,-262 8,-399 243,-399 243,-262 8,-262"/>
</g>
<g id="clust2" class="cluster">
<title>cluster_1</title>
<polygon fill="none" stroke="black" stroke-width="2" points="38,-135 38,-242 154,-242 154,-135 38,-135"/>
</g>
<g id="clust3" class="cluster">
<title>cluster_2</title>
<polygon fill="none" stroke="black" stroke-dasharray="1,5" points="18,-8 18,-115 174,-115 174,-8 18,-8"/>
</g>
<!-- c_0_137 -->
<g id="node1" class="node">
<title>c_0_137</title>
<g id="a_node1"><a xlink:href="c_0_137.html" xlink:title="{0 ∈ ℝ|0 ≤ X2|2 ∈ ℝ|2 ≤ X1|X1 ∈ ℝ|X2 ∈ ℝ|⇊|2 ≤ (X1 + X2)}" target="_parent">
<polygon fill="#f8edd1" stroke="#7f7542" points="135,-270.5 135,-390.5 235,-390.5 235,-270.5 135,-270.5"/>
<text text-anchor="middle" x="185" y="-379.3" font-family="Times,serif" font-size="14.00">0 ∈ ℝ</text>
<polyline fill="none" stroke="#7f7542" points="135,-375.5 235,-375.5 "/>
<text text-anchor="middle" x="185" y="-364.3" font-family="Times,serif" font-size="14.00">0 ≤ X2</text>
<polyline fill="none" stroke="#7f7542" points="135,-360.5 235,-360.5 "/>
<text text-anchor="middle" x="185" y="-349.3" font-family="Times,serif" font-size="14.00">2 ∈ ℝ</text>
<polyline fill="none" stroke="#7f7542" points="135,-345.5 235,-345.5 "/>
<text text-anchor="middle" x="185" y="-334.3" font-family="Times,serif" font-size="14.00">2 ≤ X1</text>
<polyline fill="none" stroke="#7f7542" points="135,-330.5 235,-330.5 "/>
<text text-anchor="middle" x="185" y="-319.3" font-family="Times,serif" font-size="14.00">X1 ∈ ℝ</text>
<polyline fill="none" stroke="#7f7542" points="135,-315.5 235,-315.5 "/>
<text text-anchor="middle" x="185" y="-304.3" font-family="Times,serif" font-size="14.00">X2 ∈ ℝ</text>
<polyline fill="none" stroke="#7f7542" points="135,-300.5 235,-300.5 "/>
<text text-anchor="middle" x="185" y="-289.3" font-family="Times,serif" font-size="14.00">⇊</text>
<polyline fill="none" stroke="#7f7542" points="135,-285.5 235,-285.5 "/>
<text text-anchor="middle" x="185" y="-274.3" font-family="Times,serif" font-size="14.00">2 ≤ (X1 + X2)</text>
</a>
</g>
</g>
<!-- c_0_147 -->
<g id="node4" class="node">
<title>c_0_147</title>
<g id="a_node4"><a xlink:href="c_0_147.html" xlink:title="{0 ≤ X2|2 ≤ X1|X1 ∈ ℝ|X2 ∈ ℝ|⇊|2 ≤ (X1 + X2)}" target="_parent">
<polygon fill="#f8edd1" stroke="#7f7542" points="46,-143.5 46,-233.5 146,-233.5 146,-143.5 46,-143.5"/>
<text text-anchor="middle" x="96" y="-222.3" font-family="Times,serif" font-size="14.00">0 ≤ X2</text>
<polyline fill="none" stroke="#7f7542" points="46,-218.5 146,-218.5 "/>
<text text-anchor="middle" x="96" y="-207.3" font-family="Times,serif" font-size="14.00">2 ≤ X1</text>
<polyline fill="none" stroke="#7f7542" points="46,-203.5 146,-203.5 "/>
<text text-anchor="middle" x="96" y="-192.3" font-family="Times,serif" font-size="14.00">X1 ∈ ℝ</text>
<polyline fill="none" stroke="#7f7542" points="46,-188.5 146,-188.5 "/>
<text text-anchor="middle" x="96" y="-177.3" font-family="Times,serif" font-size="14.00">X2 ∈ ℝ</text>
<polyline fill="none" stroke="#7f7542" points="46,-173.5 146,-173.5 "/>
<text text-anchor="middle" x="96" y="-162.3" font-family="Times,serif" font-size="14.00">⇊</text>
<polyline fill="none" stroke="#7f7542" points="46,-158.5 146,-158.5 "/>
<text text-anchor="middle" x="96" y="-147.3" font-family="Times,serif" font-size="14.00">2 ≤ (X1 + X2)</text>
</a>
</g>
</g>
<!-- c_0_137&#45;&gt;c_0_147 -->
<g id="edge1" class="edge">
<title>c_0_137&#45;&gt;c_0_147</title>
<path fill="none" stroke="black" d="M140.5,-270.28C140.5,-270.28 140.5,-243.73 140.5,-243.73"/>
<polygon fill="black" stroke="black" points="144,-243.73 140.5,-233.73 137,-243.73 144,-243.73"/>
</g>
<!-- c_0_119 -->
<g id="node2" class="node">
<title>c_0_119</title>
<g id="a_node2"><a xlink:href="c_0_119.html" xlink:title="{0 ∈ ℝ}" target="_parent">
<polygon fill="#f8edd1" stroke="#7f7542" points="75.5,-323 75.5,-338 116.5,-338 116.5,-323 75.5,-323"/>
<text text-anchor="middle" x="96" y="-326.8" font-family="Times,serif" font-size="14.00">0 ∈ ℝ</text>
</a>
</g>
</g>
<!-- c_0_119&#45;&gt;c_0_147 -->
<g id="edge2" class="edge">
<title>c_0_119&#45;&gt;c_0_147</title>
<path fill="none" stroke="black" d="M96,-322.87C96,-322.87 96,-243.62 96,-243.62"/>
<polygon fill="black" stroke="black" points="99.5,-243.62 96,-233.62 92.5,-243.62 99.5,-243.62"/>
</g>
<!-- c_0_121 -->
<g id="node3" class="node">
<title>c_0_121</title>
<g id="a_node3"><a xlink:href="c_0_121.html" xlink:title="{2 ∈ ℝ}" target="_parent">
<polygon fill="#f8edd1" stroke="#7f7542" points="16.5,-323 16.5,-338 57.5,-338 57.5,-323 16.5,-323"/>
<text text-anchor="middle" x="37" y="-326.8" font-family="Times,serif" font-size="14.00">2 ∈ ℝ</text>
</a>
</g>
</g>
<!-- c_0_121&#45;&gt;c_0_147 -->
<g id="edge3" class="edge">
<title>c_0_121&#45;&gt;c_0_147</title>
<path fill="none" stroke="black" d="M51.75,-322.87C51.75,-322.87 51.75,-243.62 51.75,-243.62"/>
<polygon fill="black" stroke="black" points="55.25,-243.62 51.75,-233.62 48.25,-243.62 55.25,-243.62"/>
</g>
<!-- c_0_158 -->
<g id="node5" class="node">
<title>c_0_158</title>
<g id="a_node5"><a xlink:href="c_0_158.html" xlink:title="{((esk1_0!) + 1) ∈ ℕ|(esk1_0!) ∈ ℕ|(esk1_0!) ∈ ℝ|2 ≤ (esk1_0!)|⇊|⊥}" target="_parent">
<polygon fill="#fa6900" stroke="#7f7542" points="26.5,-16.5 26.5,-106.5 165.5,-106.5 165.5,-16.5 26.5,-16.5"/>
<text text-anchor="middle" x="96" y="-95.3" font-family="Times,serif" font-size="14.00">((esk1_0!) + 1) ∈ ℕ</text>
<polyline fill="none" stroke="#7f7542" points="26.5,-91.5 165.5,-91.5 "/>
<text text-anchor="middle" x="96" y="-80.3" font-family="Times,serif" font-size="14.00">(esk1_0!) ∈ ℕ</text>
<polyline fill="none" stroke="#7f7542" points="26.5,-76.5 165.5,-76.5 "/>
<text text-anchor="middle" x="96" y="-65.3" font-family="Times,serif" font-size="14.00">(esk1_0!) ∈ ℝ</text>
<polyline fill="none" stroke="#7f7542" points="26.5,-61.5 165.5,-61.5 "/>
<text text-anchor="middle" x="96" y="-50.3" font-family="Times,serif" font-size="14.00">2 ≤ (esk1_0!)</text>
<polyline fill="none" stroke="#7f7542" points="26.5,-46.5 165.5,-46.5 "/>
<text text-anchor="middle" x="96" y="-35.3" font-family="Times,serif" font-size="14.00">⇊</text>
<polyline fill="none" stroke="#7f7542" points="26.5,-31.5 165.5,-31.5 "/>
<text text-anchor="middle" x="96" y="-20.3" font-family="Times,serif" font-size="14.00">⊥</text>
</a>
</g>
</g>
<!-- c_0_147&#45;&gt;c_0_158 -->
<g id="edge4" class="edge">
<title>c_0_147&#45;&gt;c_0_158</title>
<path fill="none" stroke="black" stroke-dasharray="5,2" d="M96,-143.37C96,-143.37 96,-116.92 96,-116.92"/>
<polygon fill="black" stroke="black" points="99.5,-116.92 96,-106.92 92.5,-116.92 99.5,-116.92"/>
</g>
</g>
</svg>
