<?xml version="1.0" encoding="UTF-8" standalone="no"?>
<!DOCTYPE svg PUBLIC "-//W3C//DTD SVG 1.1//EN"
 "http://www.w3.org/Graphics/SVG/1.1/DTD/svg11.dtd">
<!-- Generated by graphviz version 5.0.0 (0)
 -->
<!-- Title: proof Pages: 1 -->
<svg width="226pt" height="220pt"
 viewBox="0.00 0.00 226.00 220.00" xmlns="http://www.w3.org/2000/svg" xmlns:xlink="http://www.w3.org/1999/xlink">
<g id="graph0" class="graph" transform="scale(1 1) rotate(0) translate(4 216)">
<title>proof</title>
<polygon fill="white" stroke="transparent" points="-4,4 -4,-216 222,-216 222,4 -4,4"/>
<g id="clust1" class="cluster">
<title>cluster_0</title>
<polygon fill="none" stroke="black" stroke-dasharray="1,5" points="71,-172 71,-204 149,-204 149,-172 71,-172"/>
</g>
<g id="clust2" class="cluster">
<title>cluster_1</title>
<polygon fill="none" stroke="black" stroke-width="2" points="78,-90 78,-152 142,-152 142,-90 78,-90"/>
</g>
<g id="clust3" class="cluster">
<title>cluster_2</title>
<polygon fill="none" stroke="black" stroke-dasharray="1,5" points="8,-8 8,-70 210,-70 210,-8 8,-8"/>
</g>
<!-- t6_boole -->
<g id="node1" class="node">
<title>t6_boole</title>
<g id="a_node1"><a xlink:href="http://grid01.ciirc.cvut.cz/~mptp/7.13.01_4.181.1147/html/boole.html#T6" xlink:title="t6_boole" target="_blank">
<polygon fill="#69d2e7" stroke="#7f7542" points="79.5,-180.5 79.5,-195.5 140.5,-195.5 140.5,-180.5 79.5,-180.5"/>
<text text-anchor="middle" x="110" y="-184.3" font-family="Times,serif" font-size="14.00">t6_boole</text>
</a>
</g>
</g>
<!-- c_0_39 -->
<g id="node2" class="node">
<title>c_0_39</title>
<g id="a_node2"><a xlink:href="c_0_39.html" xlink:title="{X₁ = Ø|⇊|X₁ = Ø}" target="_parent">
<polygon fill="#f8edd1" stroke="#7f7542" points="86,-98.5 86,-143.5 134,-143.5 134,-98.5 86,-98.5"/>
<text text-anchor="middle" x="110" y="-132.3" font-family="Times,serif" font-size="14.00">X₁ = Ø</text>
<polyline fill="none" stroke="#7f7542" points="86,-128.5 134,-128.5 "/>
<text text-anchor="middle" x="110" y="-117.3" font-family="Times,serif" font-size="14.00">⇊</text>
<polyline fill="none" stroke="#7f7542" points="86,-113.5 134,-113.5 "/>
<text text-anchor="middle" x="110" y="-102.3" font-family="Times,serif" font-size="14.00">X₁ = Ø</text>
</a>
</g>
</g>
<!-- t6_boole&#45;&gt;c_0_39 -->
<g id="edge1" class="edge">
<title>t6_boole&#45;&gt;c_0_39</title>
<path fill="none" stroke="black" d="M110,-180.31C110,-180.31 110,-153.76 110,-153.76"/>
<polygon fill="black" stroke="black" points="113.5,-153.76 110,-143.76 106.5,-153.76 113.5,-153.76"/>
</g>
<!-- c_0_60 -->
<g id="node3" class="node">
<title>c_0_60</title>
<g id="a_node3"><a xlink:href="c_0_60.html" xlink:title="{Ø = esk3_0}" target="_parent">
<polygon fill="#f8edd1" stroke="#7f7542" points="120,-31.5 120,-46.5 202,-46.5 202,-31.5 120,-31.5"/>
<text text-anchor="middle" x="161" y="-35.3" font-family="Times,serif" font-size="14.00">Ø = esk3_0</text>
</a>
</g>
</g>
<!-- c_0_39&#45;&gt;c_0_60 -->
<g id="edge2" class="edge">
<title>c_0_39&#45;&gt;c_0_60</title>
<path fill="none" stroke="black" stroke-dasharray="5,2" d="M127,-98.16C127,-98.16 127,-56.65 127,-56.65"/>
<polygon fill="black" stroke="black" points="130.5,-56.65 127,-46.65 123.5,-56.65 130.5,-56.65"/>
</g>
<!-- c_0_69 -->
<g id="node4" class="node">
<title>c_0_69</title>
<g id="a_node4"><a xlink:href="c_0_69.html" xlink:title="{X₁ = Ø|⇊|X₁ = esk3_0}" target="_parent">
<polygon fill="#f8edd1" stroke="#7f7542" points="16.5,-16.5 16.5,-61.5 101.5,-61.5 101.5,-16.5 16.5,-16.5"/>
<text text-anchor="middle" x="59" y="-50.3" font-family="Times,serif" font-size="14.00">X₁ = Ø</text>
<polyline fill="none" stroke="#7f7542" points="16.5,-46.5 101.5,-46.5 "/>
<text text-anchor="middle" x="59" y="-35.3" font-family="Times,serif" font-size="14.00">⇊</text>
<polyline fill="none" stroke="#7f7542" points="16.5,-31.5 101.5,-31.5 "/>
<text text-anchor="middle" x="59" y="-20.3" font-family="Times,serif" font-size="14.00">X₁ = esk3_0</text>
</a>
</g>
</g>
<!-- c_0_39&#45;&gt;c_0_69 -->
<g id="edge3" class="edge">
<title>c_0_39&#45;&gt;c_0_69</title>
<path fill="none" stroke="black" stroke-dasharray="5,2" d="M93.75,-98.16C93.75,-98.16 93.75,-71.72 93.75,-71.72"/>
<polygon fill="black" stroke="black" points="97.25,-71.72 93.75,-61.72 90.25,-71.72 97.25,-71.72"/>
</g>
</g>
</svg>
