<?xml version="1.0" encoding="UTF-8" standalone="no"?>
<!DOCTYPE svg PUBLIC "-//W3C//DTD SVG 1.1//EN"
 "http://www.w3.org/Graphics/SVG/1.1/DTD/svg11.dtd">
<!-- Generated by graphviz version 5.0.0 (0)
 -->
<!-- Title: proof Pages: 1 -->
<svg width="548pt" height="138pt"
 viewBox="0.00 0.00 548.00 138.00" xmlns="http://www.w3.org/2000/svg" xmlns:xlink="http://www.w3.org/1999/xlink">
<g id="graph0" class="graph" transform="scale(1 1) rotate(0) translate(4 134)">
<title>proof</title>
<g id="clust1" class="cluster">
<title>cluster_0</title>
<polygon fill="transparent" stroke="black" stroke-dasharray="1,5" points="8,-60 8,-122 532,-122 532,-60 8,-60"/>
</g>
<g id="clust2" class="cluster">
<title>cluster_1</title>
<polygon fill="transparent" stroke="black" stroke-width="2" points="270,-8 270,-40 300,-40 300,-8 270,-8"/>
</g>
<!-- c_0_139 -->
<g id="node1" class="node">
<title>c_0_139</title>
<g id="a_node1"><a xlink:href="c_0_139.html" xlink:title="{2 ≤ sk₁}" target="_vizar">
<polygon fill="#fa6900" stroke="#7f7542" points="472,-83.5 472,-98.5 524,-98.5 524,-83.5 472,-83.5"/>
<text text-anchor="middle" x="498" y="-87.3" font-family="Times,serif" font-size="14.00">2 ≤ sk₁</text>
</a>
</g>
</g>
<!-- c_0_145 -->
<g id="node8" class="node">
<title>c_0_145</title>
<g id="a_node8"><a xlink:href="c_0_145.html" xlink:title="⊥" target="_vizar">
<polygon fill="#fa6900" stroke="#7f7542" points="278,-16.5 278,-31.5 292,-31.5 292,-16.5 278,-16.5"/>
<text text-anchor="middle" x="285" y="-20.3" font-family="Times,serif" font-size="14.00">⊥</text>
</a>
</g>
</g>
<!-- c_0_139&#45;&gt;c_0_145 -->
<g id="edge1" class="edge">
<title>c_0_139&#45;&gt;c_0_145</title>
<path fill="none" stroke="black" d="M498,-83.4C498,-65.09 498,-20 498,-20 498,-20 302.09,-20 302.09,-20"/>
<polygon fill="black" stroke="black" points="302.09,-16.5 292.09,-20 302.09,-23.5 302.09,-16.5"/>
</g>
<!-- c_0_133 -->
<g id="node2" class="node">
<title>c_0_133</title>
<g id="a_node2"><a xlink:href="c_0_133.html" xlink:title="{N₁ ∈ 𝔼}" target="_vizar">
<polygon fill="#f8edd1" stroke="#7f7542" points="406,-83.5 406,-98.5 454,-98.5 454,-83.5 406,-83.5"/>
<text text-anchor="middle" x="430" y="-87.3" font-family="Times,serif" font-size="14.00">N₁ ∈ 𝔼</text>
</a>
</g>
</g>
<!-- c_0_133&#45;&gt;c_0_145 -->
<g id="edge2" class="edge">
<title>c_0_133&#45;&gt;c_0_145</title>
<path fill="none" stroke="black" d="M430,-83.31C430,-65.72 430,-24 430,-24 430,-24 302.39,-24 302.39,-24"/>
<polygon fill="black" stroke="black" points="302.39,-20.5 292.39,-24 302.39,-27.5 302.39,-20.5"/>
</g>
<!-- c_0_104 -->
<g id="node3" class="node">
<title>c_0_104</title>
<g id="a_node3"><a xlink:href="c_0_104.html" xlink:title="{2 ∈ ℕ}" target="_vizar">
<polygon fill="#f8edd1" stroke="#7f7542" points="346,-83.5 346,-98.5 388,-98.5 388,-83.5 346,-83.5"/>
<text text-anchor="middle" x="367" y="-87.3" font-family="Times,serif" font-size="14.00">2 ∈ ℕ</text>
</a>
</g>
</g>
<!-- c_0_104&#45;&gt;c_0_145 -->
<g id="edge3" class="edge">
<title>c_0_104&#45;&gt;c_0_145</title>
<path fill="none" stroke="black" d="M367,-83.27C367,-66.45 367,-28 367,-28 367,-28 302.28,-28 302.28,-28"/>
<polygon fill="black" stroke="black" points="302.28,-24.5 292.28,-28 302.28,-31.5 302.28,-24.5"/>
</g>
<!-- c_0_135 -->
<g id="node4" class="node">
<title>c_0_135</title>
<g id="a_node4"><a xlink:href="c_0_135.html" xlink:title="{¬ (2 ≤ sk₁!)}" target="_vizar">
<polygon fill="#fa6900" stroke="#7f7542" points="242.5,-83.5 242.5,-98.5 327.5,-98.5 327.5,-83.5 242.5,-83.5"/>
<text text-anchor="middle" x="285" y="-87.3" font-family="Times,serif" font-size="14.00">¬ (2 ≤ sk₁!)</text>
</a>
</g>
</g>
<!-- c_0_135&#45;&gt;c_0_145 -->
<g id="edge4" class="edge">
<title>c_0_135&#45;&gt;c_0_145</title>
<path fill="none" stroke="black" d="M287.33,-83.31C287.33,-83.31 287.33,-41.6 287.33,-41.6"/>
<polygon fill="black" stroke="black" points="290.83,-41.6 287.33,-31.6 283.83,-41.6 290.83,-41.6"/>
</g>
<!-- c_0_98 -->
<g id="node5" class="node">
<title>c_0_98</title>
<g id="a_node5"><a xlink:href="c_0_98.html" xlink:title="{sk₁ ∈ ℕ}" target="_vizar">
<polygon fill="#fa6900" stroke="#7f7542" points="170,-83.5 170,-98.5 224,-98.5 224,-83.5 170,-83.5"/>
<text text-anchor="middle" x="197" y="-87.3" font-family="Times,serif" font-size="14.00">sk₁ ∈ ℕ</text>
</a>
</g>
</g>
<!-- c_0_98&#45;&gt;c_0_145 -->
<g id="edge5" class="edge">
<title>c_0_98&#45;&gt;c_0_145</title>
<path fill="none" stroke="black" d="M197,-83.29C197,-66.07 197,-26 197,-26 197,-26 267.8,-26 267.8,-26"/>
<polygon fill="black" stroke="black" points="267.8,-29.5 277.8,-26 267.8,-22.5 267.8,-29.5"/>
</g>
<!-- c_0_88 -->
<g id="node6" class="node">
<title>c_0_88</title>
<g id="a_node6"><a xlink:href="c_0_88.html" xlink:title="{N₁! ∈ ℕ}" target="_vizar">
<polygon fill="#f8edd1" stroke="#7f7542" points="96,-83.5 96,-98.5 152,-98.5 152,-83.5 96,-83.5"/>
<text text-anchor="middle" x="124" y="-87.3" font-family="Times,serif" font-size="14.00">N₁! ∈ ℕ</text>
</a>
</g>
</g>
<!-- c_0_88&#45;&gt;c_0_145 -->
<g id="edge6" class="edge">
<title>c_0_88&#45;&gt;c_0_145</title>
<path fill="none" stroke="black" d="M124,-83.24C124,-65.02 124,-21 124,-21 124,-21 267.66,-21 267.66,-21"/>
<polygon fill="black" stroke="black" points="267.66,-24.5 277.66,-21 267.66,-17.5 267.66,-24.5"/>
</g>
<!-- c_0_138 -->
<g id="node7" class="node">
<title>c_0_138</title>
<g id="a_node7"><a xlink:href="c_0_138.html" xlink:title="{E₁ ≤ N₂|⇊|E₁ ≤ N₂!}" target="_vizar">
<polygon fill="#f8edd1" stroke="#7f7542" points="16.5,-68.5 16.5,-113.5 77.5,-113.5 77.5,-68.5 16.5,-68.5"/>
<text text-anchor="middle" x="47" y="-102.3" font-family="Times,serif" font-size="14.00">E₁ ≤ N₂</text>
<polyline fill="none" stroke="#7f7542" points="16.5,-98.5 77.5,-98.5 "/>
<text text-anchor="middle" x="47" y="-87.3" font-family="Times,serif" font-size="14.00">⇊</text>
<polyline fill="none" stroke="#7f7542" points="16.5,-83.5 77.5,-83.5 "/>
<text text-anchor="middle" x="47" y="-72.3" font-family="Times,serif" font-size="14.00">E₁ ≤ N₂!</text>
</a>
</g>
</g>
<!-- c_0_138&#45;&gt;c_0_145 -->
<g id="edge7" class="edge">
<title>c_0_138&#45;&gt;c_0_145</title>
<path fill="none" stroke="black" d="M77.81,-75C141.69,-75 282.67,-75 282.67,-75 282.67,-75 282.67,-41.53 282.67,-41.53"/>
<polygon fill="black" stroke="black" points="286.17,-41.53 282.67,-31.53 279.17,-41.53 286.17,-41.53"/>
</g>
</g>
</svg>
