<?xml version="1.0" encoding="UTF-8" standalone="no"?>
<!DOCTYPE svg PUBLIC "-//W3C//DTD SVG 1.1//EN"
 "http://www.w3.org/Graphics/SVG/1.1/DTD/svg11.dtd">
<!-- Generated by graphviz version 5.0.0 (0)
 -->
<!-- Title: proof Pages: 1 -->
<svg width="277pt" height="250pt"
 viewBox="0.00 0.00 277.00 250.00" xmlns="http://www.w3.org/2000/svg" xmlns:xlink="http://www.w3.org/1999/xlink">
<g id="graph0" class="graph" transform="scale(1 1) rotate(0) translate(4 246)">
<title>proof</title>
<polygon fill="white" stroke="transparent" points="-4,4 -4,-246 273,-246 273,4 -4,4"/>
<g id="clust1" class="cluster">
<title>cluster_0</title>
<polygon fill="none" stroke="black" stroke-dasharray="1,5" points="8,-157 8,-234 261,-234 261,-157 8,-157"/>
</g>
<g id="clust2" class="cluster">
<title>cluster_1</title>
<polygon fill="none" stroke="black" stroke-width="2" points="110,-105 110,-137 174,-137 174,-105 110,-105"/>
</g>
<g id="clust3" class="cluster">
<title>cluster_2</title>
<polygon fill="none" stroke="black" stroke-dasharray="1,5" points="83,-8 83,-85 201,-85 201,-8 83,-8"/>
</g>
<!-- c_0_118 -->
<g id="node1" class="node">
<title>c_0_118</title>
<g id="a_node1"><a xlink:href="c_0_118.html" xlink:title="{X1 ⊆ ℝ|X2 ∈ X1|⇊|real(X2)}" target="_parent">
<polygon fill="#f8edd1" stroke="#7f7542" points="195,-165.5 195,-225.5 253,-225.5 253,-165.5 195,-165.5"/>
<text text-anchor="middle" x="224" y="-214.3" font-family="Times,serif" font-size="14.00">X1 ⊆ ℝ</text>
<polyline fill="none" stroke="#7f7542" points="195,-210.5 253,-210.5 "/>
<text text-anchor="middle" x="224" y="-199.3" font-family="Times,serif" font-size="14.00">X2 ∈ X1</text>
<polyline fill="none" stroke="#7f7542" points="195,-195.5 253,-195.5 "/>
<text text-anchor="middle" x="224" y="-184.3" font-family="Times,serif" font-size="14.00">⇊</text>
<polyline fill="none" stroke="#7f7542" points="195,-180.5 253,-180.5 "/>
<text text-anchor="middle" x="224" y="-169.3" font-family="Times,serif" font-size="14.00">real(X2)</text>
</a>
</g>
</g>
<!-- c_0_138 -->
<g id="node4" class="node">
<title>c_0_138</title>
<g id="a_node4"><a xlink:href="c_0_138.html" xlink:title="{real(0)}" target="_parent">
<polygon fill="#f8edd1" stroke="#7f7542" points="118,-113.5 118,-128.5 166,-128.5 166,-113.5 118,-113.5"/>
<text text-anchor="middle" x="142" y="-117.3" font-family="Times,serif" font-size="14.00">real(0)</text>
</a>
</g>
</g>
<!-- c_0_118&#45;&gt;c_0_138 -->
<g id="edge1" class="edge">
<title>c_0_118&#45;&gt;c_0_138</title>
<path fill="none" stroke="black" d="M194.75,-176C174.07,-176 150,-176 150,-176 150,-176 150,-138.65 150,-138.65"/>
<polygon fill="black" stroke="black" points="153.5,-138.65 150,-128.65 146.5,-138.65 153.5,-138.65"/>
</g>
<!-- c_0_119 -->
<g id="node2" class="node">
<title>c_0_119</title>
<g id="a_node2"><a xlink:href="c_0_119.html" xlink:title="{0 ∈ REAL}" target="_parent">
<polygon fill="#f8edd1" stroke="#7f7542" points="107.5,-188 107.5,-203 176.5,-203 176.5,-188 107.5,-188"/>
<text text-anchor="middle" x="142" y="-191.8" font-family="Times,serif" font-size="14.00">0 ∈ REAL</text>
</a>
</g>
</g>
<!-- c_0_119&#45;&gt;c_0_138 -->
<g id="edge2" class="edge">
<title>c_0_119&#45;&gt;c_0_138</title>
<path fill="none" stroke="black" d="M134,-187.81C134,-187.81 134,-138.76 134,-138.76"/>
<polygon fill="black" stroke="black" points="137.5,-138.76 134,-128.76 130.5,-138.76 137.5,-138.76"/>
</g>
<!-- c_0_120 -->
<g id="node3" class="node">
<title>c_0_120</title>
<g id="a_node3"><a xlink:href="c_0_120.html" xlink:title="{REAL ⊆ ℝ}" target="_parent">
<polygon fill="#f8edd1" stroke="#7f7542" points="16.5,-188 16.5,-203 89.5,-203 89.5,-188 16.5,-188"/>
<text text-anchor="middle" x="53" y="-191.8" font-family="Times,serif" font-size="14.00">REAL ⊆ ℝ</text>
</a>
</g>
</g>
<!-- c_0_120&#45;&gt;c_0_138 -->
<g id="edge3" class="edge">
<title>c_0_120&#45;&gt;c_0_138</title>
<path fill="none" stroke="black" d="M53,-187.81C53,-168.77 53,-121 53,-121 53,-121 107.68,-121 107.68,-121"/>
<polygon fill="black" stroke="black" points="107.68,-124.5 117.68,-121 107.68,-117.5 107.68,-124.5"/>
</g>
<!-- c_0_137 -->
<g id="node5" class="node">
<title>c_0_137</title>
<g id="a_node5"><a xlink:href="c_0_137.html" xlink:title="{0 ≤ R2|2 ≤ R1|⇊|2 ≤ (R1 + R2)}" target="_parent">
<polygon fill="#f8edd1" stroke="#7f7542" points="91.5,-16.5 91.5,-76.5 192.5,-76.5 192.5,-16.5 91.5,-16.5"/>
<text text-anchor="middle" x="142" y="-65.3" font-family="Times,serif" font-size="14.00">0 ≤ R2</text>
<polyline fill="none" stroke="#7f7542" points="91.5,-61.5 192.5,-61.5 "/>
<text text-anchor="middle" x="142" y="-50.3" font-family="Times,serif" font-size="14.00">2 ≤ R1</text>
<polyline fill="none" stroke="#7f7542" points="91.5,-46.5 192.5,-46.5 "/>
<text text-anchor="middle" x="142" y="-35.3" font-family="Times,serif" font-size="14.00">⇊</text>
<polyline fill="none" stroke="#7f7542" points="91.5,-31.5 192.5,-31.5 "/>
<text text-anchor="middle" x="142" y="-20.3" font-family="Times,serif" font-size="14.00">2 ≤ (R1 + R2)</text>
</a>
</g>
</g>
<!-- c_0_138&#45;&gt;c_0_137 -->
<g id="edge4" class="edge">
<title>c_0_138&#45;&gt;c_0_137</title>
<path fill="none" stroke="black" stroke-dasharray="5,2" d="M142,-113.31C142,-113.31 142,-86.51 142,-86.51"/>
<polygon fill="black" stroke="black" points="145.5,-86.51 142,-76.51 138.5,-86.51 145.5,-86.51"/>
</g>
</g>
</svg>
