<?xml version="1.0" encoding="UTF-8" standalone="no"?>
<!DOCTYPE svg PUBLIC "-//W3C//DTD SVG 1.1//EN"
 "http://www.w3.org/Graphics/SVG/1.1/DTD/svg11.dtd">
<!-- Generated by graphviz version 5.0.0 (0)
 -->
<!-- Title: proof Pages: 1 -->
<svg width="619pt" height="205pt"
 viewBox="0.00 0.00 619.00 205.00" xmlns="http://www.w3.org/2000/svg" xmlns:xlink="http://www.w3.org/1999/xlink">
<g id="graph0" class="graph" transform="scale(1 1) rotate(0) translate(4 201)">
<title>proof</title>
<g id="clust1" class="cluster">
<title>cluster_0</title>
<polygon fill="transparent" stroke="black" stroke-dasharray="1,5" points="8,-112 8,-189 603,-189 603,-112 8,-112"/>
</g>
<g id="clust2" class="cluster">
<title>cluster_1</title>
<polygon fill="transparent" stroke="black" stroke-width="2" points="193,-60 193,-92 295,-92 295,-60 193,-60"/>
</g>
<g id="clust3" class="cluster">
<title>cluster_2</title>
<polygon fill="transparent" stroke="black" stroke-dasharray="1,5" points="229,-8 229,-40 259,-40 259,-8 229,-8"/>
</g>
<!-- c_0_128 -->
<g id="node1" class="node">
<title>c_0_128</title>
<g id="a_node1"><a xlink:href="c_0_128.html" xlink:title="{1 ∈ ℝ}" target="_vizar">
<polygon fill="#f8edd1" stroke="#7f7542" points="553.5,-143 553.5,-158 594.5,-158 594.5,-143 553.5,-143"/>
<text text-anchor="middle" x="574" y="-146.8" font-family="Times,serif" font-size="14.00">1 ∈ ℝ</text>
</a>
</g>
</g>
<!-- c_0_135 -->
<g id="node8" class="node">
<title>c_0_135</title>
<g id="a_node8"><a xlink:href="c_0_135.html" xlink:title="{¬ (2 ≤ sk₁!)}" target="_vizar">
<polygon fill="#fa6900" stroke="#7f7542" points="201.5,-68.5 201.5,-83.5 286.5,-83.5 286.5,-68.5 201.5,-68.5"/>
<text text-anchor="middle" x="244" y="-72.3" font-family="Times,serif" font-size="14.00">¬ (2 ≤ sk₁!)</text>
</a>
</g>
</g>
<!-- c_0_128&#45;&gt;c_0_135 -->
<g id="edge1" class="edge">
<title>c_0_128&#45;&gt;c_0_135</title>
<path fill="none" stroke="black" d="M574,-142.97C574,-123.33 574,-72 574,-72 574,-72 296.8,-72 296.8,-72"/>
<polygon fill="black" stroke="black" points="296.8,-68.5 286.8,-72 296.8,-75.5 296.8,-68.5"/>
</g>
<!-- c_0_136 -->
<g id="node2" class="node">
<title>c_0_136</title>
<g id="a_node2"><a xlink:href="c_0_136.html" xlink:title="{N₁ + N₂ ∈ ℕ}" target="_vizar">
<polygon fill="#f8edd1" stroke="#7f7542" points="447,-143 447,-158 535,-158 535,-143 447,-143"/>
<text text-anchor="middle" x="491" y="-146.8" font-family="Times,serif" font-size="14.00">N₁ + N₂ ∈ ℕ</text>
</a>
</g>
</g>
<!-- c_0_136&#45;&gt;c_0_135 -->
<g id="edge2" class="edge">
<title>c_0_136&#45;&gt;c_0_135</title>
<path fill="none" stroke="black" d="M491,-142.81C491,-123.77 491,-76 491,-76 491,-76 296.74,-76 296.74,-76"/>
<polygon fill="black" stroke="black" points="296.74,-72.5 286.74,-76 296.74,-79.5 296.74,-72.5"/>
</g>
<!-- c_0_126 -->
<g id="node3" class="node">
<title>c_0_126</title>
<g id="a_node3"><a xlink:href="c_0_126.html" xlink:title="{¬ (2 ≤ (sk₁!) + 1)}" target="_vizar">
<polygon fill="#fa6900" stroke="#7f7542" points="303.5,-143 303.5,-158 428.5,-158 428.5,-143 303.5,-143"/>
<text text-anchor="middle" x="366" y="-146.8" font-family="Times,serif" font-size="14.00">¬ (2 ≤ (sk₁!) + 1)</text>
</a>
</g>
</g>
<!-- c_0_126&#45;&gt;c_0_135 -->
<g id="edge3" class="edge">
<title>c_0_126&#45;&gt;c_0_135</title>
<path fill="none" stroke="black" d="M366,-142.96C366,-124.77 366,-80 366,-80 366,-80 296.67,-80 296.67,-80"/>
<polygon fill="black" stroke="black" points="296.67,-76.5 286.67,-80 296.67,-83.5 296.67,-76.5"/>
</g>
<!-- c_0_119 -->
<g id="node4" class="node">
<title>c_0_119</title>
<g id="a_node4"><a xlink:href="c_0_119.html" xlink:title="{0 ≤ R₂|2 ≤ R₁|⇊|2 ≤ R₁ + R₂}" target="_vizar">
<polygon fill="#f8edd1" stroke="#7f7542" points="202.5,-120.5 202.5,-180.5 285.5,-180.5 285.5,-120.5 202.5,-120.5"/>
<text text-anchor="middle" x="244" y="-169.3" font-family="Times,serif" font-size="14.00">0 ≤ R₂</text>
<polyline fill="none" stroke="#7f7542" points="202.5,-165.5 285.5,-165.5 "/>
<text text-anchor="middle" x="244" y="-154.3" font-family="Times,serif" font-size="14.00">2 ≤ R₁</text>
<polyline fill="none" stroke="#7f7542" points="202.5,-150.5 285.5,-150.5 "/>
<text text-anchor="middle" x="244" y="-139.3" font-family="Times,serif" font-size="14.00">⇊</text>
<polyline fill="none" stroke="#7f7542" points="202.5,-135.5 285.5,-135.5 "/>
<text text-anchor="middle" x="244" y="-124.3" font-family="Times,serif" font-size="14.00">2 ≤ R₁ + R₂</text>
</a>
</g>
</g>
<!-- c_0_119&#45;&gt;c_0_135 -->
<g id="edge4" class="edge">
<title>c_0_119&#45;&gt;c_0_135</title>
<path fill="none" stroke="black" d="M244,-120.2C244,-120.2 244,-93.59 244,-93.59"/>
<polygon fill="black" stroke="black" points="247.5,-93.59 244,-83.59 240.5,-93.59 247.5,-93.59"/>
</g>
<!-- c_0_45 -->
<g id="node5" class="node">
<title>c_0_45</title>
<g id="a_node5"><a xlink:href="c_0_45.html" xlink:title="{1 ∈ ℕ}" target="_vizar">
<polygon fill="#f8edd1" stroke="#7f7542" points="142,-143 142,-158 184,-158 184,-143 142,-143"/>
<text text-anchor="middle" x="163" y="-146.8" font-family="Times,serif" font-size="14.00">1 ∈ ℕ</text>
</a>
</g>
</g>
<!-- c_0_45&#45;&gt;c_0_135 -->
<g id="edge5" class="edge">
<title>c_0_45&#45;&gt;c_0_135</title>
<path fill="none" stroke="black" d="M163,-142.96C163,-124.77 163,-80 163,-80 163,-80 191.13,-80 191.13,-80"/>
<polygon fill="black" stroke="black" points="191.13,-83.5 201.13,-80 191.13,-76.5 191.13,-83.5"/>
</g>
<!-- c_0_137 -->
<g id="node6" class="node">
<title>c_0_137</title>
<g id="a_node6"><a xlink:href="c_0_137.html" xlink:title="{N₁ ∈ ℝ}" target="_vizar">
<polygon fill="#f8edd1" stroke="#7f7542" points="74.5,-143 74.5,-158 123.5,-158 123.5,-143 74.5,-143"/>
<text text-anchor="middle" x="99" y="-146.8" font-family="Times,serif" font-size="14.00">N₁ ∈ ℝ</text>
</a>
</g>
</g>
<!-- c_0_137&#45;&gt;c_0_135 -->
<g id="edge6" class="edge">
<title>c_0_137&#45;&gt;c_0_135</title>
<path fill="none" stroke="black" d="M99,-142.81C99,-123.77 99,-76 99,-76 99,-76 191.28,-76 191.28,-76"/>
<polygon fill="black" stroke="black" points="191.28,-79.5 201.28,-76 191.28,-72.5 191.28,-79.5"/>
</g>
<!-- c_0_107 -->
<g id="node7" class="node">
<title>c_0_107</title>
<g id="a_node7"><a xlink:href="c_0_107.html" xlink:title="{0 ≤ 1}" target="_vizar">
<polygon fill="#f8edd1" stroke="#7f7542" points="16,-143 16,-158 56,-158 56,-143 16,-143"/>
<text text-anchor="middle" x="36" y="-146.8" font-family="Times,serif" font-size="14.00">0 ≤ 1</text>
</a>
</g>
</g>
<!-- c_0_107&#45;&gt;c_0_135 -->
<g id="edge7" class="edge">
<title>c_0_107&#45;&gt;c_0_135</title>
<path fill="none" stroke="black" d="M36,-142.97C36,-123.33 36,-72 36,-72 36,-72 191.41,-72 191.41,-72"/>
<polygon fill="black" stroke="black" points="191.41,-75.5 201.41,-72 191.41,-68.5 191.41,-75.5"/>
</g>
<!-- c_0_145 -->
<g id="node9" class="node">
<title>c_0_145</title>
<g id="a_node9"><a xlink:href="c_0_145.html" xlink:title="⊥" target="_vizar">
<polygon fill="#fa6900" stroke="#7f7542" points="237,-16.5 237,-31.5 251,-31.5 251,-16.5 237,-16.5"/>
<text text-anchor="middle" x="244" y="-20.3" font-family="Times,serif" font-size="14.00">⊥</text>
</a>
</g>
</g>
<!-- c_0_135&#45;&gt;c_0_145 -->
<g id="edge8" class="edge">
<title>c_0_135&#45;&gt;c_0_145</title>
<path fill="none" stroke="black" stroke-dasharray="5,2" d="M244,-68.33C244,-68.33 244,-41.7 244,-41.7"/>
<polygon fill="black" stroke="black" points="247.5,-41.7 244,-31.7 240.5,-41.7 247.5,-41.7"/>
</g>
</g>
</svg>
