<?xml version="1.0" encoding="UTF-8" standalone="no"?>
<!DOCTYPE svg PUBLIC "-//W3C//DTD SVG 1.1//EN"
 "http://www.w3.org/Graphics/SVG/1.1/DTD/svg11.dtd">
<!-- Generated by graphviz version 5.0.0 (0)
 -->
<!-- Title: proof Pages: 1 -->
<svg width="126pt" height="160pt"
 viewBox="0.00 0.00 126.00 160.00" xmlns="http://www.w3.org/2000/svg" xmlns:xlink="http://www.w3.org/1999/xlink">
<g id="graph0" class="graph" transform="scale(1 1) rotate(0) translate(4 156)">
<title>proof</title>
<polygon fill="white" stroke="transparent" points="-4,4 -4,-156 122,-156 122,4 -4,4"/>
<g id="clust1" class="cluster">
<title>cluster_0</title>
<polygon fill="none" stroke="black" stroke-dasharray="1,5" points="17,-112 17,-144 101,-144 101,-112 17,-112"/>
</g>
<g id="clust2" class="cluster">
<title>cluster_1</title>
<polygon fill="none" stroke="black" stroke-width="2" points="20,-60 20,-92 98,-92 98,-60 20,-60"/>
</g>
<g id="clust3" class="cluster">
<title>cluster_2</title>
<polygon fill="none" stroke="black" stroke-dasharray="1,5" points="8,-8 8,-40 110,-40 110,-8 8,-8"/>
</g>
<!-- t28_int_2 -->
<g id="node1" class="node">
<title>t28_int_2</title>
<g id="a_node1"><a xlink:href="t28_int_2.html" xlink:title="t28_int_2" target="_parent">
<polygon fill="#69d2e7" stroke="#7f7542" points="25.5,-120.5 25.5,-135.5 92.5,-135.5 92.5,-120.5 25.5,-120.5"/>
<text text-anchor="middle" x="59" y="-124.3" font-family="Times,serif" font-size="14.00">t28_int_2</text>
</a>
</g>
</g>
<!-- c_0_156 -->
<g id="node2" class="node">
<title>c_0_156</title>
<g id="a_node2"><a xlink:href="c_0_156.html" xlink:title="{prime(2)}" target="_parent">
<polygon fill="#f8edd1" stroke="#7f7542" points="28,-68.5 28,-83.5 90,-83.5 90,-68.5 28,-68.5"/>
<text text-anchor="middle" x="59" y="-72.3" font-family="Times,serif" font-size="14.00">prime(2)</text>
</a>
</g>
</g>
<!-- t28_int_2&#45;&gt;c_0_156 -->
<g id="edge1" class="edge">
<title>t28_int_2&#45;&gt;c_0_156</title>
<path fill="none" stroke="black" d="M59,-120.33C59,-120.33 59,-93.7 59,-93.7"/>
<polygon fill="black" stroke="black" points="62.5,-93.7 59,-83.7 55.5,-93.7 62.5,-93.7"/>
</g>
<!-- c_0_172 -->
<g id="node3" class="node">
<title>c_0_172</title>
<g id="a_node3"><a xlink:href="c_0_172.html" xlink:title="{2 ≤ skolem₁}" target="_parent">
<polygon fill="#fa6900" stroke="#7f7542" points="16,-16.5 16,-31.5 102,-31.5 102,-16.5 16,-16.5"/>
<text text-anchor="middle" x="59" y="-20.3" font-family="Times,serif" font-size="14.00">2 ≤ skolem₁</text>
</a>
</g>
</g>
<!-- c_0_156&#45;&gt;c_0_172 -->
<g id="edge2" class="edge">
<title>c_0_156&#45;&gt;c_0_172</title>
<path fill="none" stroke="black" stroke-dasharray="5,2" d="M59,-68.33C59,-68.33 59,-41.7 59,-41.7"/>
<polygon fill="black" stroke="black" points="62.5,-41.7 59,-31.7 55.5,-41.7 62.5,-41.7"/>
</g>
</g>
</svg>
