<?xml version="1.0" encoding="UTF-8" standalone="no"?>
<!DOCTYPE svg PUBLIC "-//W3C//DTD SVG 1.1//EN"
 "http://www.w3.org/Graphics/SVG/1.1/DTD/svg11.dtd">
<!-- Generated by graphviz version 5.0.0 (0)
 -->
<!-- Title: proof Pages: 1 -->
<svg width="232pt" height="190pt"
 viewBox="0.00 0.00 232.00 190.00" xmlns="http://www.w3.org/2000/svg" xmlns:xlink="http://www.w3.org/1999/xlink">
<g id="graph0" class="graph" transform="scale(1 1) rotate(0) translate(4 186)">
<title>proof</title>
<polygon fill="white" stroke="transparent" points="-4,4 -4,-186 228,-186 228,4 -4,4"/>
<g id="clust1" class="cluster">
<title>cluster_0</title>
<polygon fill="none" stroke="black" stroke-dasharray="1,5" points="76,-142 76,-174 142,-174 142,-142 76,-142"/>
</g>
<g id="clust2" class="cluster">
<title>cluster_1</title>
<polygon fill="none" stroke="black" stroke-width="2" points="76,-90 76,-122 142,-122 142,-90 76,-90"/>
</g>
<g id="clust3" class="cluster">
<title>cluster_2</title>
<polygon fill="none" stroke="black" stroke-dasharray="1,5" points="8,-8 8,-70 216,-70 216,-8 8,-8"/>
</g>
<!-- c_0_62 -->
<g id="node1" class="node">
<title>c_0_62</title>
<g id="a_node1"><a xlink:href="c_0_62.html" xlink:title="c_0_62" target="_parent">
<polygon fill="#fa6900" stroke="#7f7542" points="84.5,-150.5 84.5,-165.5 133.5,-165.5 133.5,-150.5 84.5,-150.5"/>
<text text-anchor="middle" x="109" y="-154.3" font-family="Times,serif" font-size="14.00">c_0_62</text>
</a>
</g>
</g>
<!-- c_0_73 -->
<g id="node2" class="node">
<title>c_0_73</title>
<g id="a_node2"><a xlink:href="c_0_73.html" xlink:title="c_0_73" target="_parent">
<polygon fill="#fa6900" stroke="#7f7542" points="84.5,-98.5 84.5,-113.5 133.5,-113.5 133.5,-98.5 84.5,-98.5"/>
<text text-anchor="middle" x="109" y="-102.3" font-family="Times,serif" font-size="14.00">c_0_73</text>
</a>
</g>
</g>
<!-- c_0_62&#45;&gt;c_0_73 -->
<g id="edge1" class="edge">
<title>c_0_62&#45;&gt;c_0_73</title>
<path fill="none" stroke="black" d="M109,-150.33C109,-150.33 109,-123.7 109,-123.7"/>
<polygon fill="black" stroke="black" points="112.5,-123.7 109,-113.7 105.5,-123.7 112.5,-123.7"/>
</g>
<!-- c_0_80 -->
<g id="node3" class="node">
<title>c_0_80</title>
<g id="a_node3"><a xlink:href="c_0_80.html" xlink:title="{prime(N1)|⇊|N1 ≤ esk1_0}" target="_parent">
<polygon fill="#fa6900" stroke="#7f7542" points="116.5,-16.5 116.5,-61.5 207.5,-61.5 207.5,-16.5 116.5,-16.5"/>
<text text-anchor="middle" x="162" y="-50.3" font-family="Times,serif" font-size="14.00">prime(N1)</text>
<polyline fill="none" stroke="#7f7542" points="116.5,-46.5 207.5,-46.5 "/>
<text text-anchor="middle" x="162" y="-35.3" font-family="Times,serif" font-size="14.00">⇊</text>
<polyline fill="none" stroke="#7f7542" points="116.5,-31.5 207.5,-31.5 "/>
<text text-anchor="middle" x="162" y="-20.3" font-family="Times,serif" font-size="14.00">N1 ≤ esk1_0</text>
</a>
</g>
</g>
<!-- c_0_73&#45;&gt;c_0_80 -->
<g id="edge2" class="edge">
<title>c_0_73&#45;&gt;c_0_80</title>
<path fill="none" stroke="black" stroke-dasharray="5,2" d="M125,-98.31C125,-98.31 125,-71.76 125,-71.76"/>
<polygon fill="black" stroke="black" points="128.5,-71.76 125,-61.76 121.5,-71.76 128.5,-71.76"/>
</g>
<!-- c_0_93 -->
<g id="node4" class="node">
<title>c_0_93</title>
<g id="a_node4"><a xlink:href="c_0_93.html" xlink:title="{esk1_0 ∈ ℕ}" target="_parent">
<polygon fill="#fa6900" stroke="#7f7542" points="16,-31.5 16,-46.5 98,-46.5 98,-31.5 16,-31.5"/>
<text text-anchor="middle" x="57" y="-35.3" font-family="Times,serif" font-size="14.00">esk1_0 ∈ ℕ</text>
</a>
</g>
</g>
<!-- c_0_73&#45;&gt;c_0_93 -->
<g id="edge3" class="edge">
<title>c_0_73&#45;&gt;c_0_93</title>
<path fill="none" stroke="black" stroke-dasharray="5,2" d="M91.25,-98.31C91.25,-98.31 91.25,-56.6 91.25,-56.6"/>
<polygon fill="black" stroke="black" points="94.75,-56.6 91.25,-46.6 87.75,-56.6 94.75,-56.6"/>
</g>
</g>
</svg>
