<?xml version="1.0" encoding="UTF-8" standalone="no"?>
<!DOCTYPE svg PUBLIC "-//W3C//DTD SVG 1.1//EN"
 "http://www.w3.org/Graphics/SVG/1.1/DTD/svg11.dtd">
<!-- Generated by graphviz version 5.0.0 (0)
 -->
<!-- Title: proof Pages: 1 -->
<svg width="290pt" height="220pt"
 viewBox="0.00 0.00 290.00 220.00" xmlns="http://www.w3.org/2000/svg" xmlns:xlink="http://www.w3.org/1999/xlink">
<g id="graph0" class="graph" transform="scale(1 1) rotate(0) translate(4 216)">
<title>proof</title>
<polygon fill="white" stroke="transparent" points="-4,4 -4,-216 286,-216 286,4 -4,4"/>
<g id="clust1" class="cluster">
<title>cluster_0</title>
<polygon fill="none" stroke="black" stroke-dasharray="1,5" points="38,-142 38,-204 228,-204 228,-142 38,-142"/>
</g>
<g id="clust2" class="cluster">
<title>cluster_1</title>
<polygon fill="none" stroke="black" stroke-width="2" points="71,-90 71,-122 129,-122 129,-90 71,-90"/>
</g>
<g id="clust3" class="cluster">
<title>cluster_2</title>
<polygon fill="none" stroke="black" stroke-dasharray="1,5" points="8,-8 8,-70 274,-70 274,-8 8,-8"/>
</g>
<!-- spc1_numerals -->
<g id="node1" class="node">
<title>spc1_numerals</title>
<g id="a_node1"><a xlink:href="http://grid01.ciirc.cvut.cz/~mptp/7.13.01_4.181.1147/html/numerals.html#SPC1" xlink:title="spc1_numerals" target="_blank">
<polygon fill="#69d2e7" stroke="#7f7542" points="112.5,-165.5 112.5,-180.5 219.5,-180.5 219.5,-165.5 112.5,-165.5"/>
<text text-anchor="middle" x="166" y="-169.3" font-family="Times,serif" font-size="14.00">spc1_numerals</text>
</a>
</g>
</g>
<!-- c_0_106 -->
<g id="node3" class="node">
<title>c_0_106</title>
<g id="a_node3"><a xlink:href="c_0_106.html" xlink:title="{1 ∈ ℕ}" target="_parent">
<polygon fill="#f8edd1" stroke="#7f7542" points="79,-98.5 79,-113.5 121,-113.5 121,-98.5 79,-98.5"/>
<text text-anchor="middle" x="100" y="-102.3" font-family="Times,serif" font-size="14.00">1 ∈ ℕ</text>
</a>
</g>
</g>
<!-- spc1_numerals&#45;&gt;c_0_106 -->
<g id="edge1" class="edge">
<title>spc1_numerals&#45;&gt;c_0_106</title>
<path fill="none" stroke="black" d="M116.75,-165.31C116.75,-165.31 116.75,-123.6 116.75,-123.6"/>
<polygon fill="black" stroke="black" points="120.25,-123.6 116.75,-113.6 113.25,-123.6 120.25,-123.6"/>
</g>
<!-- c_0_104 -->
<g id="node2" class="node">
<title>c_0_104</title>
<g id="a_node2"><a xlink:href="c_0_104.html" xlink:title="{X₁ ∈ ℕ|⇊|X₁ ∈ ℕ}" target="_parent">
<polygon fill="#f8edd1" stroke="#7f7542" points="46,-150.5 46,-195.5 94,-195.5 94,-150.5 46,-150.5"/>
<text text-anchor="middle" x="70" y="-184.3" font-family="Times,serif" font-size="14.00">X₁ ∈ ℕ</text>
<polyline fill="none" stroke="#7f7542" points="46,-180.5 94,-180.5 "/>
<text text-anchor="middle" x="70" y="-169.3" font-family="Times,serif" font-size="14.00">⇊</text>
<polyline fill="none" stroke="#7f7542" points="46,-165.5 94,-165.5 "/>
<text text-anchor="middle" x="70" y="-154.3" font-family="Times,serif" font-size="14.00">X₁ ∈ ℕ</text>
</a>
</g>
</g>
<!-- c_0_104&#45;&gt;c_0_106 -->
<g id="edge2" class="edge">
<title>c_0_104&#45;&gt;c_0_106</title>
<path fill="none" stroke="black" d="M86.5,-150.32C86.5,-150.32 86.5,-123.59 86.5,-123.59"/>
<polygon fill="black" stroke="black" points="90,-123.59 86.5,-113.59 83,-123.59 90,-123.59"/>
</g>
<!-- c_0_158 -->
<g id="node4" class="node">
<title>c_0_158</title>
<g id="a_node4"><a xlink:href="c_0_158.html" xlink:title="{2 ≤ (esk1_0!)|⇊|⊥}" target="_parent">
<polygon fill="#fa6900" stroke="#7f7542" points="170,-16.5 170,-61.5 266,-61.5 266,-16.5 170,-16.5"/>
<text text-anchor="middle" x="218" y="-50.3" font-family="Times,serif" font-size="14.00">2 ≤ (esk1_0!)</text>
<polyline fill="none" stroke="#7f7542" points="170,-46.5 266,-46.5 "/>
<text text-anchor="middle" x="218" y="-35.3" font-family="Times,serif" font-size="14.00">⇊</text>
<polyline fill="none" stroke="#7f7542" points="170,-31.5 266,-31.5 "/>
<text text-anchor="middle" x="218" y="-20.3" font-family="Times,serif" font-size="14.00">⊥</text>
</a>
</g>
</g>
<!-- c_0_106&#45;&gt;c_0_158 -->
<g id="edge3" class="edge">
<title>c_0_106&#45;&gt;c_0_158</title>
<path fill="none" stroke="black" stroke-dasharray="5,2" d="M121.03,-106C148.94,-106 194.75,-106 194.75,-106 194.75,-106 194.75,-71.68 194.75,-71.68"/>
<polygon fill="black" stroke="black" points="198.25,-71.68 194.75,-61.68 191.25,-71.68 198.25,-71.68"/>
</g>
<!-- c_0_135 -->
<g id="node5" class="node">
<title>c_0_135</title>
<g id="a_node5"><a xlink:href="c_0_135.html" xlink:title="{2 ≤ ((esk1_0!) + 1)|⇊|⊥}" target="_parent">
<polygon fill="#fa6900" stroke="#7f7542" points="16,-16.5 16,-61.5 152,-61.5 152,-16.5 16,-16.5"/>
<text text-anchor="middle" x="84" y="-50.3" font-family="Times,serif" font-size="14.00">2 ≤ ((esk1_0!) + 1)</text>
<polyline fill="none" stroke="#7f7542" points="16,-46.5 152,-46.5 "/>
<text text-anchor="middle" x="84" y="-35.3" font-family="Times,serif" font-size="14.00">⇊</text>
<polyline fill="none" stroke="#7f7542" points="16,-31.5 152,-31.5 "/>
<text text-anchor="middle" x="84" y="-20.3" font-family="Times,serif" font-size="14.00">⊥</text>
</a>
</g>
</g>
<!-- c_0_106&#45;&gt;c_0_135 -->
<g id="edge4" class="edge">
<title>c_0_106&#45;&gt;c_0_135</title>
<path fill="none" stroke="black" stroke-dasharray="5,2" d="M100,-98.31C100,-98.31 100,-71.76 100,-71.76"/>
<polygon fill="black" stroke="black" points="103.5,-71.76 100,-61.76 96.5,-71.76 103.5,-71.76"/>
</g>
</g>
</svg>
