<?xml version="1.0" encoding="UTF-8" standalone="no"?>
<!DOCTYPE svg PUBLIC "-//W3C//DTD SVG 1.1//EN"
 "http://www.w3.org/Graphics/SVG/1.1/DTD/svg11.dtd">
<!-- Generated by graphviz version 5.0.0 (0)
 -->
<!-- Title: proof Pages: 1 -->
<svg width="258pt" height="205pt"
 viewBox="0.00 0.00 258.00 205.00" xmlns="http://www.w3.org/2000/svg" xmlns:xlink="http://www.w3.org/1999/xlink">
<g id="graph0" class="graph" transform="scale(1 1) rotate(0) translate(4 201)">
<title>proof</title>
<polygon fill="white" stroke="transparent" points="-4,4 -4,-201 254,-201 254,4 -4,4"/>
<g id="clust1" class="cluster">
<title>cluster_0</title>
<polygon fill="none" stroke="black" stroke-dasharray="1,5" points="100,-157 100,-189 200,-189 200,-157 100,-157"/>
</g>
<g id="clust2" class="cluster">
<title>cluster_1</title>
<polygon fill="none" stroke="black" stroke-width="2" points="101,-105 101,-137 199,-137 199,-105 101,-105"/>
</g>
<g id="clust3" class="cluster">
<title>cluster_2</title>
<polygon fill="none" stroke="black" stroke-dasharray="1,5" points="8,-8 8,-85 242,-85 242,-8 8,-8"/>
</g>
<!-- t72_newton -->
<g id="node1" class="node">
<title>t72_newton</title>
<g id="a_node1"><a xlink:href="http://grid01.ciirc.cvut.cz/~mptp/7.13.01_4.181.1147/html/newton.html#T72" xlink:title="t72_newton" target="_blank">
<polygon fill="#fa6900" stroke="#7f7542" points="108,-165.5 108,-180.5 192,-180.5 192,-165.5 108,-165.5"/>
<text text-anchor="middle" x="150" y="-169.3" font-family="Times,serif" font-size="14.00">t72_newton</text>
</a>
</g>
</g>
<!-- c_0_93 -->
<g id="node2" class="node">
<title>c_0_93</title>
<g id="a_node2"><a xlink:href="c_0_93.html" xlink:title="{esk1_0 ∈ ℕ}" target="_parent">
<polygon fill="#fa6900" stroke="#7f7542" points="109,-113.5 109,-128.5 191,-128.5 191,-113.5 109,-113.5"/>
<text text-anchor="middle" x="150" y="-117.3" font-family="Times,serif" font-size="14.00">esk1_0 ∈ ℕ</text>
</a>
</g>
</g>
<!-- t72_newton&#45;&gt;c_0_93 -->
<g id="edge1" class="edge">
<title>t72_newton&#45;&gt;c_0_93</title>
<path fill="none" stroke="black" d="M150,-165.33C150,-165.33 150,-138.7 150,-138.7"/>
<polygon fill="black" stroke="black" points="153.5,-138.7 150,-128.7 146.5,-138.7 153.5,-138.7"/>
</g>
<!-- c_0_178 -->
<g id="node3" class="node">
<title>c_0_178</title>
<g id="a_node3"><a xlink:href="c_0_178.html" xlink:title="⊥" target="_parent">
<polygon fill="#fa6900" stroke="#7f7542" points="220,-39 220,-54 234,-54 234,-39 220,-39"/>
<text text-anchor="middle" x="227" y="-42.8" font-family="Times,serif" font-size="14.00">⊥</text>
</a>
</g>
</g>
<!-- c_0_93&#45;&gt;c_0_178 -->
<g id="edge2" class="edge">
<title>c_0_93&#45;&gt;c_0_178</title>
<path fill="none" stroke="black" stroke-dasharray="5,2" d="M191.21,-121C209.51,-121 227,-121 227,-121 227,-121 227,-64.19 227,-64.19"/>
<polygon fill="black" stroke="black" points="230.5,-64.19 227,-54.19 223.5,-64.19 230.5,-64.19"/>
</g>
<!-- c_0_102 -->
<g id="node4" class="node">
<title>c_0_102</title>
<g id="a_node4"><a xlink:href="c_0_102.html" xlink:title="{2 ≤ ((esk1_0!) + 1)|⇊|esk4_1((esk1_0!) + 1) = 0|esk4_1((esk1_0!) + 1) = 1}" target="_parent">
<polygon fill="#fa6900" stroke="#7f7542" points="16.5,-16.5 16.5,-76.5 201.5,-76.5 201.5,-16.5 16.5,-16.5"/>
<text text-anchor="middle" x="109" y="-65.3" font-family="Times,serif" font-size="14.00">2 ≤ ((esk1_0!) + 1)</text>
<polyline fill="none" stroke="#7f7542" points="16.5,-61.5 201.5,-61.5 "/>
<text text-anchor="middle" x="109" y="-50.3" font-family="Times,serif" font-size="14.00">⇊</text>
<polyline fill="none" stroke="#7f7542" points="16.5,-46.5 201.5,-46.5 "/>
<text text-anchor="middle" x="109" y="-35.3" font-family="Times,serif" font-size="14.00">esk4_1((esk1_0!) + 1) = 0</text>
<polyline fill="none" stroke="#7f7542" points="16.5,-31.5 201.5,-31.5 "/>
<text text-anchor="middle" x="109" y="-20.3" font-family="Times,serif" font-size="14.00">esk4_1((esk1_0!) + 1) = 1</text>
</a>
</g>
</g>
<!-- c_0_93&#45;&gt;c_0_102 -->
<g id="edge3" class="edge">
<title>c_0_93&#45;&gt;c_0_102</title>
<path fill="none" stroke="black" stroke-dasharray="5,2" d="M150,-113.31C150,-113.31 150,-86.51 150,-86.51"/>
<polygon fill="black" stroke="black" points="153.5,-86.51 150,-76.51 146.5,-86.51 153.5,-86.51"/>
</g>
</g>
</svg>
