<?xml version="1.0" encoding="UTF-8" standalone="no"?>
<!DOCTYPE svg PUBLIC "-//W3C//DTD SVG 1.1//EN"
 "http://www.w3.org/Graphics/SVG/1.1/DTD/svg11.dtd">
<!-- Generated by graphviz version 5.0.0 (0)
 -->
<!-- Title: proof Pages: 1 -->
<svg width="280pt" height="235pt"
 viewBox="0.00 0.00 280.00 235.00" xmlns="http://www.w3.org/2000/svg" xmlns:xlink="http://www.w3.org/1999/xlink">
<g id="graph0" class="graph" transform="scale(1 1) rotate(0) translate(4 231)">
<title>proof</title>
<polygon fill="white" stroke="transparent" points="-4,4 -4,-231 276,-231 276,4 -4,4"/>
<g id="clust1" class="cluster">
<title>cluster_0</title>
<polygon fill="none" stroke="black" stroke-dasharray="1,5" points="8,-142 8,-219 264,-219 264,-142 8,-142"/>
</g>
<g id="clust2" class="cluster">
<title>cluster_1</title>
<polygon fill="none" stroke="black" stroke-width="2" points="78,-90 78,-122 136,-122 136,-90 78,-90"/>
</g>
<g id="clust3" class="cluster">
<title>cluster_2</title>
<polygon fill="none" stroke="black" stroke-dasharray="1,5" points="51,-8 51,-70 163,-70 163,-8 51,-8"/>
</g>
<!-- spc1_numerals -->
<g id="node1" class="node">
<title>spc1_numerals</title>
<g id="a_node1"><a xlink:href="http://grid01.ciirc.cvut.cz/~mptp/7.13.01_4.181.1147/html/numerals.html#SPC1" xlink:title="spc1_numerals" target="_blank">
<polygon fill="#69d2e7" stroke="#7f7542" points="148.5,-173 148.5,-188 255.5,-188 255.5,-173 148.5,-173"/>
<text text-anchor="middle" x="202" y="-176.8" font-family="Times,serif" font-size="14.00">spc1_numerals</text>
</a>
</g>
</g>
<!-- c_0_132 -->
<g id="node4" class="node">
<title>c_0_132</title>
<g id="a_node4"><a xlink:href="c_0_132.html" xlink:title="{1 ∈ ℝ}" target="_parent">
<polygon fill="#f8edd1" stroke="#7f7542" points="86.5,-98.5 86.5,-113.5 127.5,-113.5 127.5,-98.5 86.5,-98.5"/>
<text text-anchor="middle" x="107" y="-102.3" font-family="Times,serif" font-size="14.00">1 ∈ ℝ</text>
</a>
</g>
</g>
<!-- spc1_numerals&#45;&gt;c_0_132 -->
<g id="edge1" class="edge">
<title>spc1_numerals&#45;&gt;c_0_132</title>
<path fill="none" stroke="black" d="M205.25,-172.81C205.25,-153.77 205.25,-106 205.25,-106 205.25,-106 137.84,-106 137.84,-106"/>
<polygon fill="black" stroke="black" points="137.84,-102.5 127.84,-106 137.84,-109.5 137.84,-102.5"/>
</g>
<!-- c_0_120 -->
<g id="node2" class="node">
<title>c_0_120</title>
<g id="a_node2"><a xlink:href="c_0_120.html" xlink:title="{ℝ ⊆ ℝ}" target="_parent">
<polygon fill="#f8edd1" stroke="#7f7542" points="84,-173 84,-188 130,-188 130,-173 84,-173"/>
<text text-anchor="middle" x="107" y="-176.8" font-family="Times,serif" font-size="14.00">ℝ ⊆ ℝ</text>
</a>
</g>
</g>
<!-- c_0_120&#45;&gt;c_0_132 -->
<g id="edge2" class="edge">
<title>c_0_120&#45;&gt;c_0_132</title>
<path fill="none" stroke="black" d="M107,-172.81C107,-172.81 107,-123.76 107,-123.76"/>
<polygon fill="black" stroke="black" points="110.5,-123.76 107,-113.76 103.5,-123.76 110.5,-123.76"/>
</g>
<!-- c_0_118 -->
<g id="node3" class="node">
<title>c_0_118</title>
<g id="a_node3"><a xlink:href="c_0_118.html" xlink:title="{X₁ ⊆ ℝ|X₂ ∈ X₁|⇊|X₂ ∈ ℝ}" target="_parent">
<polygon fill="#f8edd1" stroke="#7f7542" points="16,-150.5 16,-210.5 66,-210.5 66,-150.5 16,-150.5"/>
<text text-anchor="middle" x="41" y="-199.3" font-family="Times,serif" font-size="14.00">X₁ ⊆ ℝ</text>
<polyline fill="none" stroke="#7f7542" points="16,-195.5 66,-195.5 "/>
<text text-anchor="middle" x="41" y="-184.3" font-family="Times,serif" font-size="14.00">X₂ ∈ X₁</text>
<polyline fill="none" stroke="#7f7542" points="16,-180.5 66,-180.5 "/>
<text text-anchor="middle" x="41" y="-169.3" font-family="Times,serif" font-size="14.00">⇊</text>
<polyline fill="none" stroke="#7f7542" points="16,-165.5 66,-165.5 "/>
<text text-anchor="middle" x="41" y="-154.3" font-family="Times,serif" font-size="14.00">X₂ ∈ ℝ</text>
</a>
</g>
</g>
<!-- c_0_118&#45;&gt;c_0_132 -->
<g id="edge3" class="edge">
<title>c_0_118&#45;&gt;c_0_132</title>
<path fill="none" stroke="black" d="M62.5,-150.2C62.5,-129.57 62.5,-106 62.5,-106 62.5,-106 76.31,-106 76.31,-106"/>
<polygon fill="black" stroke="black" points="76.31,-109.5 86.31,-106 76.31,-102.5 76.31,-109.5"/>
</g>
<!-- c_0_158 -->
<g id="node5" class="node">
<title>c_0_158</title>
<g id="a_node5"><a xlink:href="c_0_158.html" xlink:title="{2 ≤ (esk1_0!)|⇊|⊥}" target="_parent">
<polygon fill="#fa6900" stroke="#7f7542" points="59,-16.5 59,-61.5 155,-61.5 155,-16.5 59,-16.5"/>
<text text-anchor="middle" x="107" y="-50.3" font-family="Times,serif" font-size="14.00">2 ≤ (esk1_0!)</text>
<polyline fill="none" stroke="#7f7542" points="59,-46.5 155,-46.5 "/>
<text text-anchor="middle" x="107" y="-35.3" font-family="Times,serif" font-size="14.00">⇊</text>
<polyline fill="none" stroke="#7f7542" points="59,-31.5 155,-31.5 "/>
<text text-anchor="middle" x="107" y="-20.3" font-family="Times,serif" font-size="14.00">⊥</text>
</a>
</g>
</g>
<!-- c_0_132&#45;&gt;c_0_158 -->
<g id="edge4" class="edge">
<title>c_0_132&#45;&gt;c_0_158</title>
<path fill="none" stroke="black" stroke-dasharray="5,2" d="M107,-98.31C107,-98.31 107,-71.76 107,-71.76"/>
<polygon fill="black" stroke="black" points="110.5,-71.76 107,-61.76 103.5,-71.76 110.5,-71.76"/>
</g>
</g>
</svg>
