<?xml version="1.0" encoding="UTF-8" standalone="no"?>
<!DOCTYPE svg PUBLIC "-//W3C//DTD SVG 1.1//EN"
 "http://www.w3.org/Graphics/SVG/1.1/DTD/svg11.dtd">
<!-- Generated by graphviz version 5.0.0 (0)
 -->
<!-- Title: proof Pages: 1 -->
<svg width="220pt" height="205pt"
 viewBox="0.00 0.00 220.00 205.00" xmlns="http://www.w3.org/2000/svg" xmlns:xlink="http://www.w3.org/1999/xlink">
<g id="graph0" class="graph" transform="scale(1 1) rotate(0) translate(4 201)">
<title>proof</title>
<polygon fill="white" stroke="transparent" points="-4,4 -4,-201 216,-201 216,4 -4,4"/>
<g id="clust1" class="cluster">
<title>cluster_0</title>
<polygon fill="none" stroke="black" stroke-dasharray="1,5" points="69,-157 69,-189 143,-189 143,-157 69,-157"/>
</g>
<g id="clust2" class="cluster">
<title>cluster_1</title>
<polygon fill="none" stroke="black" stroke-width="2" points="69,-60 69,-137 143,-137 143,-60 69,-60"/>
</g>
<g id="clust3" class="cluster">
<title>cluster_2</title>
<polygon fill="none" stroke="black" stroke-dasharray="1,5" points="8,-8 8,-40 204,-40 204,-8 8,-8"/>
</g>
<!-- c_0_108 -->
<g id="node1" class="node">
<title>c_0_108</title>
<g id="a_node1"><a xlink:href="c_0_108.html" xlink:title="c_0_108" target="_parent">
<polygon fill="#f8edd1" stroke="#7f7542" points="77,-165.5 77,-180.5 135,-180.5 135,-165.5 77,-165.5"/>
<text text-anchor="middle" x="106" y="-169.3" font-family="Times,serif" font-size="14.00">c_0_108</text>
</a>
</g>
</g>
<!-- c_0_118 -->
<g id="node2" class="node">
<title>c_0_118</title>
<g id="a_node2"><a xlink:href="c_0_118.html" xlink:title="{X1 ⊆ ℝ|X2 ∈ X1|⇊|real(X2)}" target="_parent">
<polygon fill="#f8edd1" stroke="#7f7542" points="77,-68.5 77,-128.5 135,-128.5 135,-68.5 77,-68.5"/>
<text text-anchor="middle" x="106" y="-117.3" font-family="Times,serif" font-size="14.00">X1 ⊆ ℝ</text>
<polyline fill="none" stroke="#7f7542" points="77,-113.5 135,-113.5 "/>
<text text-anchor="middle" x="106" y="-102.3" font-family="Times,serif" font-size="14.00">X2 ∈ X1</text>
<polyline fill="none" stroke="#7f7542" points="77,-98.5 135,-98.5 "/>
<text text-anchor="middle" x="106" y="-87.3" font-family="Times,serif" font-size="14.00">⇊</text>
<polyline fill="none" stroke="#7f7542" points="77,-83.5 135,-83.5 "/>
<text text-anchor="middle" x="106" y="-72.3" font-family="Times,serif" font-size="14.00">real(X2)</text>
</a>
</g>
</g>
<!-- c_0_108&#45;&gt;c_0_118 -->
<g id="edge1" class="edge">
<title>c_0_108&#45;&gt;c_0_118</title>
<path fill="none" stroke="black" d="M106,-165.31C106,-165.31 106,-138.51 106,-138.51"/>
<polygon fill="black" stroke="black" points="109.5,-138.51 106,-128.51 102.5,-138.51 109.5,-138.51"/>
</g>
<!-- c_0_139 -->
<g id="node3" class="node">
<title>c_0_139</title>
<g id="a_node3"><a xlink:href="c_0_139.html" xlink:title="{real(2)}" target="_parent">
<polygon fill="#f8edd1" stroke="#7f7542" points="148,-16.5 148,-31.5 196,-31.5 196,-16.5 148,-16.5"/>
<text text-anchor="middle" x="172" y="-20.3" font-family="Times,serif" font-size="14.00">real(2)</text>
</a>
</g>
</g>
<!-- c_0_118&#45;&gt;c_0_139 -->
<g id="edge2" class="edge">
<title>c_0_118&#45;&gt;c_0_139</title>
<path fill="none" stroke="black" stroke-dasharray="5,2" d="M135.14,-98C152.82,-98 172,-98 172,-98 172,-98 172,-41.64 172,-41.64"/>
<polygon fill="black" stroke="black" points="175.5,-41.64 172,-31.64 168.5,-41.64 175.5,-41.64"/>
</g>
<!-- c_0_138 -->
<g id="node4" class="node">
<title>c_0_138</title>
<g id="a_node4"><a xlink:href="c_0_138.html" xlink:title="{real(0)}" target="_parent">
<polygon fill="#f8edd1" stroke="#7f7542" points="82,-16.5 82,-31.5 130,-31.5 130,-16.5 82,-16.5"/>
<text text-anchor="middle" x="106" y="-20.3" font-family="Times,serif" font-size="14.00">real(0)</text>
</a>
</g>
</g>
<!-- c_0_118&#45;&gt;c_0_138 -->
<g id="edge3" class="edge">
<title>c_0_118&#45;&gt;c_0_138</title>
<path fill="none" stroke="black" stroke-dasharray="5,2" d="M106,-68.2C106,-68.2 106,-41.59 106,-41.59"/>
<polygon fill="black" stroke="black" points="109.5,-41.59 106,-31.59 102.5,-41.59 109.5,-41.59"/>
</g>
<!-- c_0_148 -->
<g id="node5" class="node">
<title>c_0_148</title>
<g id="a_node5"><a xlink:href="c_0_148.html" xlink:title="{real(1)}" target="_parent">
<polygon fill="#f8edd1" stroke="#7f7542" points="16,-16.5 16,-31.5 64,-31.5 64,-16.5 16,-16.5"/>
<text text-anchor="middle" x="40" y="-20.3" font-family="Times,serif" font-size="14.00">real(1)</text>
</a>
</g>
</g>
<!-- c_0_118&#45;&gt;c_0_148 -->
<g id="edge4" class="edge">
<title>c_0_118&#45;&gt;c_0_148</title>
<path fill="none" stroke="black" stroke-dasharray="5,2" d="M76.86,-98C59.18,-98 40,-98 40,-98 40,-98 40,-41.64 40,-41.64"/>
<polygon fill="black" stroke="black" points="43.5,-41.64 40,-31.64 36.5,-41.64 43.5,-41.64"/>
</g>
</g>
</svg>
