<?xml version="1.0" encoding="UTF-8" standalone="no"?>
<!DOCTYPE svg PUBLIC "-//W3C//DTD SVG 1.1//EN"
 "http://www.w3.org/Graphics/SVG/1.1/DTD/svg11.dtd">
<!-- Generated by graphviz version 5.0.0 (0)
 -->
<!-- Title: proof Pages: 1 -->
<svg width="146pt" height="160pt"
 viewBox="0.00 0.00 146.00 160.00" xmlns="http://www.w3.org/2000/svg" xmlns:xlink="http://www.w3.org/1999/xlink">
<g id="graph0" class="graph" transform="scale(1 1) rotate(0) translate(4 156)">
<title>proof</title>
<polygon fill="white" stroke="transparent" points="-4,4 -4,-156 142,-156 142,4 -4,4"/>
<g id="clust1" class="cluster">
<title>cluster_0</title>
<polygon fill="none" stroke="black" stroke-dasharray="1,5" points="8,-112 8,-144 130,-144 130,-112 8,-112"/>
</g>
<g id="clust2" class="cluster">
<title>cluster_1</title>
<polygon fill="none" stroke="black" stroke-width="2" points="38,-60 38,-92 100,-92 100,-60 38,-60"/>
</g>
<g id="clust3" class="cluster">
<title>cluster_2</title>
<polygon fill="none" stroke="black" stroke-dasharray="1,5" points="29,-8 29,-40 109,-40 109,-8 29,-8"/>
</g>
<!-- fc6_membered -->
<g id="node1" class="node">
<title>fc6_membered</title>
<g id="a_node1"><a xlink:href="http://grid01.ciirc.cvut.cz/~mptp/7.13.01_4.181.1147/html/membered.html#FC6" xlink:title="fc6_membered" target="_blank">
<polygon fill="#69d2e7" stroke="#7f7542" points="16,-120.5 16,-135.5 122,-135.5 122,-120.5 16,-120.5"/>
<text text-anchor="middle" x="69" y="-124.3" font-family="Times,serif" font-size="14.00">fc6_membered</text>
</a>
</g>
</g>
<!-- c_0_45 -->
<g id="node2" class="node">
<title>c_0_45</title>
<g id="a_node2"><a xlink:href="c_0_45.html" xlink:title="{ω ⊆ ℕ}" target="_parent">
<polygon fill="#f8edd1" stroke="#7f7542" points="46,-68.5 46,-83.5 92,-83.5 92,-68.5 46,-68.5"/>
<text text-anchor="middle" x="69" y="-72.3" font-family="Times,serif" font-size="14.00">ω ⊆ ℕ</text>
</a>
</g>
</g>
<!-- fc6_membered&#45;&gt;c_0_45 -->
<g id="edge1" class="edge">
<title>fc6_membered&#45;&gt;c_0_45</title>
<path fill="none" stroke="black" d="M69,-120.33C69,-120.33 69,-93.7 69,-93.7"/>
<polygon fill="black" stroke="black" points="72.5,-93.7 69,-83.7 65.5,-93.7 72.5,-93.7"/>
</g>
<!-- c_0_67 -->
<g id="node3" class="node">
<title>c_0_67</title>
<g id="a_node3"><a xlink:href="c_0_67.html" xlink:title="{NAT ⊆ ℕ}" target="_parent">
<polygon fill="#f8edd1" stroke="#7f7542" points="37,-16.5 37,-31.5 101,-31.5 101,-16.5 37,-16.5"/>
<text text-anchor="middle" x="69" y="-20.3" font-family="Times,serif" font-size="14.00">NAT ⊆ ℕ</text>
</a>
</g>
</g>
<!-- c_0_45&#45;&gt;c_0_67 -->
<g id="edge2" class="edge">
<title>c_0_45&#45;&gt;c_0_67</title>
<path fill="none" stroke="black" stroke-dasharray="5,2" d="M69,-68.33C69,-68.33 69,-41.7 69,-41.7"/>
<polygon fill="black" stroke="black" points="72.5,-41.7 69,-31.7 65.5,-41.7 72.5,-41.7"/>
</g>
</g>
</svg>
