<?xml version="1.0" encoding="UTF-8" standalone="no"?>
<!DOCTYPE svg PUBLIC "-//W3C//DTD SVG 1.1//EN"
 "http://www.w3.org/Graphics/SVG/1.1/DTD/svg11.dtd">
<!-- Generated by graphviz version 5.0.0 (0)
 -->
<!-- Title: proof Pages: 1 -->
<svg width="207pt" height="160pt"
 viewBox="0.00 0.00 207.00 160.00" xmlns="http://www.w3.org/2000/svg" xmlns:xlink="http://www.w3.org/1999/xlink">
<g id="graph0" class="graph" transform="scale(1 1) rotate(0) translate(4 156)">
<title>proof</title>
<g id="clust1" class="cluster">
<title>cluster_0</title>
<polygon fill="transparent" stroke="black" stroke-dasharray="1,5" points="9,-112 9,-144 191,-144 191,-112 9,-112"/>
</g>
<g id="clust2" class="cluster">
<title>cluster_1</title>
<polygon fill="transparent" stroke="black" stroke-width="2" points="47,-60 47,-92 153,-92 153,-60 47,-60"/>
</g>
<g id="clust3" class="cluster">
<title>cluster_2</title>
<polygon fill="transparent" stroke="black" stroke-dasharray="1,5" points="8,-8 8,-40 174,-40 174,-8 8,-8"/>
</g>
<!-- redefinition_k9_newton -->
<g id="node1" class="node">
<title>redefinition_k9_newton</title>
<g id="a_node1"><a xlink:href="redefinition_k9_newton.html" xlink:title="redefinition_k9_newton" target="_parent">
<polygon fill="#69d2e7" stroke="#7f7542" points="17,-120.5 17,-135.5 183,-135.5 183,-120.5 17,-120.5"/>
<text text-anchor="middle" x="100" y="-124.3" font-family="Times,serif" font-size="14.00">redefinition_k9_newton</text>
</a>
</g>
</g>
<!-- c_0_79 -->
<g id="node2" class="node">
<title>c_0_79</title>
<g id="a_node2"><a xlink:href="c_0_79.html" xlink:title="{(N₁!) = (N₁!)}" target="_parent">
<polygon fill="#f8edd1" stroke="#7f7542" points="55.5,-68.5 55.5,-83.5 144.5,-83.5 144.5,-68.5 55.5,-68.5"/>
<text text-anchor="middle" x="100" y="-72.3" font-family="Times,serif" font-size="14.00">(N₁!) = (N₁!)</text>
</a>
</g>
</g>
<!-- redefinition_k9_newton&#45;&gt;c_0_79 -->
<g id="edge1" class="edge">
<title>redefinition_k9_newton&#45;&gt;c_0_79</title>
<path fill="none" stroke="black" d="M100,-120.33C100,-120.33 100,-93.7 100,-93.7"/>
<polygon fill="black" stroke="black" points="103.5,-93.7 100,-83.7 96.5,-93.7 103.5,-93.7"/>
</g>
<!-- c_0_164 -->
<g id="node3" class="node">
<title>c_0_164</title>
<g id="a_node3"><a xlink:href="c_0_164.html" xlink:title="{(N₁!) ∈ 𝔼}" target="_parent">
<polygon fill="#f8edd1" stroke="#7f7542" points="102,-16.5 102,-31.5 166,-31.5 166,-16.5 102,-16.5"/>
<text text-anchor="middle" x="134" y="-20.3" font-family="Times,serif" font-size="14.00">(N₁!) ∈ 𝔼</text>
</a>
</g>
</g>
<!-- c_0_79&#45;&gt;c_0_164 -->
<g id="edge2" class="edge">
<title>c_0_79&#45;&gt;c_0_164</title>
<path fill="none" stroke="black" stroke-dasharray="5,2" d="M123.25,-68.33C123.25,-68.33 123.25,-41.7 123.25,-41.7"/>
<polygon fill="black" stroke="black" points="126.75,-41.7 123.25,-31.7 119.75,-41.7 126.75,-41.7"/>
</g>
<!-- c_0_78 -->
<g id="node4" class="node">
<title>c_0_78</title>
<g id="a_node4"><a xlink:href="c_0_78.html" xlink:title="{(N₁!) ∈ ℕ}" target="_parent">
<polygon fill="#f8edd1" stroke="#7f7542" points="16.5,-16.5 16.5,-31.5 83.5,-31.5 83.5,-16.5 16.5,-16.5"/>
<text text-anchor="middle" x="50" y="-20.3" font-family="Times,serif" font-size="14.00">(N₁!) ∈ ℕ</text>
</a>
</g>
</g>
<!-- c_0_79&#45;&gt;c_0_78 -->
<g id="edge3" class="edge">
<title>c_0_79&#45;&gt;c_0_78</title>
<path fill="none" stroke="black" stroke-dasharray="5,2" d="M69.5,-68.33C69.5,-68.33 69.5,-41.7 69.5,-41.7"/>
<polygon fill="black" stroke="black" points="73,-41.7 69.5,-31.7 66,-41.7 73,-41.7"/>
</g>
</g>
</svg>
