<?xml version="1.0" encoding="UTF-8" standalone="no"?>
<!DOCTYPE svg PUBLIC "-//W3C//DTD SVG 1.1//EN"
 "http://www.w3.org/Graphics/SVG/1.1/DTD/svg11.dtd">
<!-- Generated by graphviz version 5.0.0 (0)
 -->
<!-- Title: proof Pages: 1 -->
<svg width="181pt" height="295pt"
 viewBox="0.00 0.00 181.00 295.00" xmlns="http://www.w3.org/2000/svg" xmlns:xlink="http://www.w3.org/1999/xlink">
<g id="graph0" class="graph" transform="scale(1 1) rotate(0) translate(4 291)">
<title>proof</title>
<polygon fill="white" stroke="transparent" points="-4,4 -4,-291 177,-291 177,4 -4,4"/>
<g id="clust1" class="cluster">
<title>cluster_0</title>
<polygon fill="none" stroke="black" stroke-dasharray="1,5" points="8,-202 8,-279 165,-279 165,-202 8,-202"/>
</g>
<g id="clust2" class="cluster">
<title>cluster_1</title>
<polygon fill="none" stroke="black" stroke-width="2" points="36,-105 36,-182 126,-182 126,-105 36,-105"/>
</g>
<g id="clust3" class="cluster">
<title>cluster_2</title>
<polygon fill="none" stroke="black" stroke-dasharray="1,5" points="27,-8 27,-85 135,-85 135,-8 27,-8"/>
</g>
<!-- c_0_47 -->
<g id="node1" class="node">
<title>c_0_47</title>
<g id="a_node1"><a xlink:href="c_0_47.html" xlink:title="{N1 ≤ N2|⇊|N1 = 0|N1 । (N2!)}" target="_parent">
<polygon fill="#f8edd1" stroke="#7f7542" points="83.5,-210.5 83.5,-270.5 156.5,-270.5 156.5,-210.5 83.5,-210.5"/>
<text text-anchor="middle" x="120" y="-259.3" font-family="Times,serif" font-size="14.00">N1 ≤ N2</text>
<polyline fill="none" stroke="#7f7542" points="83.5,-255.5 156.5,-255.5 "/>
<text text-anchor="middle" x="120" y="-244.3" font-family="Times,serif" font-size="14.00">⇊</text>
<polyline fill="none" stroke="#7f7542" points="83.5,-240.5 156.5,-240.5 "/>
<text text-anchor="middle" x="120" y="-229.3" font-family="Times,serif" font-size="14.00">N1 = 0</text>
<polyline fill="none" stroke="#7f7542" points="83.5,-225.5 156.5,-225.5 "/>
<text text-anchor="middle" x="120" y="-214.3" font-family="Times,serif" font-size="14.00">N1 । (N2!)</text>
</a>
</g>
</g>
<!-- c_0_68 -->
<g id="node3" class="node">
<title>c_0_68</title>
<g id="a_node3"><a xlink:href="c_0_68.html" xlink:title="{N1 ≤ N2|⇊|N1 = \{\}|N1 । (N2!)}" target="_parent">
<polygon fill="#f8edd1" stroke="#7f7542" points="44.5,-113.5 44.5,-173.5 117.5,-173.5 117.5,-113.5 44.5,-113.5"/>
<text text-anchor="middle" x="81" y="-162.3" font-family="Times,serif" font-size="14.00">N1 ≤ N2</text>
<polyline fill="none" stroke="#7f7542" points="44.5,-158.5 117.5,-158.5 "/>
<text text-anchor="middle" x="81" y="-147.3" font-family="Times,serif" font-size="14.00">⇊</text>
<polyline fill="none" stroke="#7f7542" points="44.5,-143.5 117.5,-143.5 "/>
<text text-anchor="middle" x="81" y="-132.3" font-family="Times,serif" font-size="14.00">N1 = {}</text>
<polyline fill="none" stroke="#7f7542" points="44.5,-128.5 117.5,-128.5 "/>
<text text-anchor="middle" x="81" y="-117.3" font-family="Times,serif" font-size="14.00">N1 । (N2!)</text>
</a>
</g>
</g>
<!-- c_0_47&#45;&gt;c_0_68 -->
<g id="edge1" class="edge">
<title>c_0_47&#45;&gt;c_0_68</title>
<path fill="none" stroke="black" d="M100.5,-210.34C100.5,-210.34 100.5,-183.64 100.5,-183.64"/>
<polygon fill="black" stroke="black" points="104,-183.64 100.5,-173.64 97,-183.64 104,-183.64"/>
</g>
<!-- c_0_48 -->
<g id="node2" class="node">
<title>c_0_48</title>
<g id="a_node2"><a xlink:href="c_0_48.html" xlink:title="{0 = \{\}}" target="_parent">
<polygon fill="#f8edd1" stroke="#7f7542" points="16.5,-233 16.5,-248 65.5,-248 65.5,-233 16.5,-233"/>
<text text-anchor="middle" x="41" y="-236.8" font-family="Times,serif" font-size="14.00">0 = {}</text>
</a>
</g>
</g>
<!-- c_0_48&#45;&gt;c_0_68 -->
<g id="edge2" class="edge">
<title>c_0_48&#45;&gt;c_0_68</title>
<path fill="none" stroke="black" d="M55,-232.89C55,-232.89 55,-183.78 55,-183.78"/>
<polygon fill="black" stroke="black" points="58.5,-183.78 55,-173.78 51.5,-183.78 58.5,-183.78"/>
</g>
<!-- c_0_76 -->
<g id="node4" class="node">
<title>c_0_76</title>
<g id="a_node4"><a xlink:href="c_0_76.html" xlink:title="{N1 ≤ N2|⇊|N1 = esk3_0|N1 । (N2!)}" target="_parent">
<polygon fill="#f8edd1" stroke="#7f7542" points="35.5,-16.5 35.5,-76.5 126.5,-76.5 126.5,-16.5 35.5,-16.5"/>
<text text-anchor="middle" x="81" y="-65.3" font-family="Times,serif" font-size="14.00">N1 ≤ N2</text>
<polyline fill="none" stroke="#7f7542" points="35.5,-61.5 126.5,-61.5 "/>
<text text-anchor="middle" x="81" y="-50.3" font-family="Times,serif" font-size="14.00">⇊</text>
<polyline fill="none" stroke="#7f7542" points="35.5,-46.5 126.5,-46.5 "/>
<text text-anchor="middle" x="81" y="-35.3" font-family="Times,serif" font-size="14.00">N1 = esk3_0</text>
<polyline fill="none" stroke="#7f7542" points="35.5,-31.5 126.5,-31.5 "/>
<text text-anchor="middle" x="81" y="-20.3" font-family="Times,serif" font-size="14.00">N1 । (N2!)</text>
</a>
</g>
</g>
<!-- c_0_68&#45;&gt;c_0_76 -->
<g id="edge3" class="edge">
<title>c_0_68&#45;&gt;c_0_76</title>
<path fill="none" stroke="black" stroke-dasharray="5,2" d="M81,-113.34C81,-113.34 81,-86.64 81,-86.64"/>
<polygon fill="black" stroke="black" points="84.5,-86.64 81,-76.64 77.5,-86.64 84.5,-86.64"/>
</g>
</g>
</svg>
