<?xml version="1.0" encoding="UTF-8" standalone="no"?>
<!DOCTYPE svg PUBLIC "-//W3C//DTD SVG 1.1//EN"
 "http://www.w3.org/Graphics/SVG/1.1/DTD/svg11.dtd">
<!-- Generated by graphviz version 5.0.0 (0)
 -->
<!-- Title: proof Pages: 1 -->
<svg width="218pt" height="205pt"
 viewBox="0.00 0.00 218.00 205.00" xmlns="http://www.w3.org/2000/svg" xmlns:xlink="http://www.w3.org/1999/xlink">
<g id="graph0" class="graph" transform="scale(1 1) rotate(0) translate(4 201)">
<title>proof</title>
<g id="clust1" class="cluster">
<title>cluster_0</title>
<polygon fill="transparent" stroke="black" stroke-dasharray="1,5" points="8,-157 8,-189 202,-189 202,-157 8,-157"/>
</g>
<g id="clust2" class="cluster">
<title>cluster_1</title>
<polygon fill="transparent" stroke="black" stroke-width="2" points="76,-105 76,-137 134,-137 134,-105 76,-105"/>
</g>
<g id="clust3" class="cluster">
<title>cluster_2</title>
<polygon fill="transparent" stroke="black" stroke-dasharray="1,5" points="64,-8 64,-85 146,-85 146,-8 64,-8"/>
</g>
<!-- redefinition_k6_numbers -->
<g id="node1" class="node">
<title>redefinition_k6_numbers</title>
<g id="a_node1"><a xlink:href="redefinition_k6_numbers.html" xlink:title="redefinition_k6_numbers" target="_parent">
<polygon fill="#69d2e7" stroke="#7f7542" points="16.5,-165.5 16.5,-180.5 193.5,-180.5 193.5,-165.5 16.5,-165.5"/>
<text text-anchor="middle" x="105" y="-169.3" font-family="Times,serif" font-size="14.00">redefinition_k6_numbers</text>
</a>
</g>
</g>
<!-- c_0_48 -->
<g id="node2" class="node">
<title>c_0_48</title>
<g id="a_node2"><a xlink:href="c_0_48.html" xlink:title="{0 = Ø}" target="_parent">
<polygon fill="#f8edd1" stroke="#7f7542" points="84,-113.5 84,-128.5 126,-128.5 126,-113.5 84,-113.5"/>
<text text-anchor="middle" x="105" y="-117.3" font-family="Times,serif" font-size="14.00">0 = Ø</text>
</a>
</g>
</g>
<!-- redefinition_k6_numbers&#45;&gt;c_0_48 -->
<g id="edge1" class="edge">
<title>redefinition_k6_numbers&#45;&gt;c_0_48</title>
<path fill="none" stroke="black" d="M105,-165.33C105,-165.33 105,-138.7 105,-138.7"/>
<polygon fill="black" stroke="black" points="108.5,-138.7 105,-128.7 101.5,-138.7 108.5,-138.7"/>
</g>
<!-- c_0_68 -->
<g id="node3" class="node">
<title>c_0_68</title>
<g id="a_node3"><a xlink:href="c_0_68.html" xlink:title="{N₁ ≤ N₂|⇊|N₁ = Ø|N₁ । (N₂!)}" target="_parent">
<polygon fill="#f8edd1" stroke="#7f7542" points="72,-16.5 72,-76.5 138,-76.5 138,-16.5 72,-16.5"/>
<text text-anchor="middle" x="105" y="-65.3" font-family="Times,serif" font-size="14.00">N₁ ≤ N₂</text>
<polyline fill="none" stroke="#7f7542" points="72,-61.5 138,-61.5 "/>
<text text-anchor="middle" x="105" y="-50.3" font-family="Times,serif" font-size="14.00">⇊</text>
<polyline fill="none" stroke="#7f7542" points="72,-46.5 138,-46.5 "/>
<text text-anchor="middle" x="105" y="-35.3" font-family="Times,serif" font-size="14.00">N₁ = Ø</text>
<polyline fill="none" stroke="#7f7542" points="72,-31.5 138,-31.5 "/>
<text text-anchor="middle" x="105" y="-20.3" font-family="Times,serif" font-size="14.00">N₁ । (N₂!)</text>
</a>
</g>
</g>
<!-- c_0_48&#45;&gt;c_0_68 -->
<g id="edge2" class="edge">
<title>c_0_48&#45;&gt;c_0_68</title>
<path fill="none" stroke="black" stroke-dasharray="5,2" d="M105,-113.31C105,-113.31 105,-86.51 105,-86.51"/>
<polygon fill="black" stroke="black" points="108.5,-86.51 105,-76.51 101.5,-86.51 108.5,-86.51"/>
</g>
</g>
</svg>
