<?xml version="1.0" encoding="UTF-8" standalone="no"?>
<!DOCTYPE svg PUBLIC "-//W3C//DTD SVG 1.1//EN"
 "http://www.w3.org/Graphics/SVG/1.1/DTD/svg11.dtd">
<!-- Generated by graphviz version 5.0.0 (0)
 -->
<!-- Title: proof Pages: 1 -->
<svg width="186pt" height="235pt"
 viewBox="0.00 0.00 186.00 235.00" xmlns="http://www.w3.org/2000/svg" xmlns:xlink="http://www.w3.org/1999/xlink">
<g id="graph0" class="graph" transform="scale(1 1) rotate(0) translate(4 231)">
<title>proof</title>
<polygon fill="white" stroke="transparent" points="-4,4 -4,-231 182,-231 182,4 -4,4"/>
<g id="clust1" class="cluster">
<title>cluster_0</title>
<polygon fill="none" stroke="black" stroke-dasharray="1,5" points="8,-157 8,-219 170,-219 170,-157 8,-157"/>
</g>
<g id="clust2" class="cluster">
<title>cluster_1</title>
<polygon fill="none" stroke="black" stroke-width="2" points="42,-105 42,-137 138,-137 138,-105 42,-105"/>
</g>
<g id="clust3" class="cluster">
<title>cluster_2</title>
<polygon fill="none" stroke="black" stroke-dasharray="1,5" points="49,-8 49,-85 131,-85 131,-8 49,-8"/>
</g>
<!-- c_0_61 -->
<g id="node1" class="node">
<title>c_0_61</title>
<g id="a_node1"><a xlink:href="c_0_61.html" xlink:title="{0 = Ø}" target="_parent">
<polygon fill="#f8edd1" stroke="#7f7542" points="120,-180.5 120,-195.5 162,-195.5 162,-180.5 120,-180.5"/>
<text text-anchor="middle" x="141" y="-184.3" font-family="Times,serif" font-size="14.00">0 = Ø</text>
</a>
</g>
</g>
<!-- c_0_77 -->
<g id="node3" class="node">
<title>c_0_77</title>
<g id="a_node3"><a xlink:href="c_0_77.html" xlink:title="{esk3_0 = 0}" target="_parent">
<polygon fill="#f8edd1" stroke="#7f7542" points="50.5,-113.5 50.5,-128.5 129.5,-128.5 129.5,-113.5 50.5,-113.5"/>
<text text-anchor="middle" x="90" y="-117.3" font-family="Times,serif" font-size="14.00">esk3_0 = 0</text>
</a>
</g>
</g>
<!-- c_0_61&#45;&gt;c_0_77 -->
<g id="edge1" class="edge">
<title>c_0_61&#45;&gt;c_0_77</title>
<path fill="none" stroke="black" d="M124.75,-180.31C124.75,-180.31 124.75,-138.6 124.75,-138.6"/>
<polygon fill="black" stroke="black" points="128.25,-138.6 124.75,-128.6 121.25,-138.6 128.25,-138.6"/>
</g>
<!-- c_0_69 -->
<g id="node2" class="node">
<title>c_0_69</title>
<g id="a_node2"><a xlink:href="c_0_69.html" xlink:title="{X₁ = Ø|⇊|X₁ = esk3_0}" target="_parent">
<polygon fill="#f8edd1" stroke="#7f7542" points="16.5,-165.5 16.5,-210.5 101.5,-210.5 101.5,-165.5 16.5,-165.5"/>
<text text-anchor="middle" x="59" y="-199.3" font-family="Times,serif" font-size="14.00">X₁ = Ø</text>
<polyline fill="none" stroke="#7f7542" points="16.5,-195.5 101.5,-195.5 "/>
<text text-anchor="middle" x="59" y="-184.3" font-family="Times,serif" font-size="14.00">⇊</text>
<polyline fill="none" stroke="#7f7542" points="16.5,-180.5 101.5,-180.5 "/>
<text text-anchor="middle" x="59" y="-169.3" font-family="Times,serif" font-size="14.00">X₁ = esk3_0</text>
</a>
</g>
</g>
<!-- c_0_69&#45;&gt;c_0_77 -->
<g id="edge2" class="edge">
<title>c_0_69&#45;&gt;c_0_77</title>
<path fill="none" stroke="black" d="M76,-165.32C76,-165.32 76,-138.59 76,-138.59"/>
<polygon fill="black" stroke="black" points="79.5,-138.59 76,-128.59 72.5,-138.59 79.5,-138.59"/>
</g>
<!-- c_0_82 -->
<g id="node4" class="node">
<title>c_0_82</title>
<g id="a_node4"><a xlink:href="c_0_82.html" xlink:title="{N₁ ≤ N₂|⇊|N₁ = 0|N₁ । (N₂!)}" target="_parent">
<polygon fill="#f8edd1" stroke="#7f7542" points="57,-16.5 57,-76.5 123,-76.5 123,-16.5 57,-16.5"/>
<text text-anchor="middle" x="90" y="-65.3" font-family="Times,serif" font-size="14.00">N₁ ≤ N₂</text>
<polyline fill="none" stroke="#7f7542" points="57,-61.5 123,-61.5 "/>
<text text-anchor="middle" x="90" y="-50.3" font-family="Times,serif" font-size="14.00">⇊</text>
<polyline fill="none" stroke="#7f7542" points="57,-46.5 123,-46.5 "/>
<text text-anchor="middle" x="90" y="-35.3" font-family="Times,serif" font-size="14.00">N₁ = 0</text>
<polyline fill="none" stroke="#7f7542" points="57,-31.5 123,-31.5 "/>
<text text-anchor="middle" x="90" y="-20.3" font-family="Times,serif" font-size="14.00">N₁ । (N₂!)</text>
</a>
</g>
</g>
<!-- c_0_77&#45;&gt;c_0_82 -->
<g id="edge3" class="edge">
<title>c_0_77&#45;&gt;c_0_82</title>
<path fill="none" stroke="black" stroke-dasharray="5,2" d="M90,-113.31C90,-113.31 90,-86.51 90,-86.51"/>
<polygon fill="black" stroke="black" points="93.5,-86.51 90,-76.51 86.5,-86.51 93.5,-86.51"/>
</g>
</g>
</svg>
