<?xml version="1.0" encoding="UTF-8" standalone="no"?>
<!DOCTYPE svg PUBLIC "-//W3C//DTD SVG 1.1//EN"
 "http://www.w3.org/Graphics/SVG/1.1/DTD/svg11.dtd">
<!-- Generated by graphviz version 5.0.0 (0)
 -->
<!-- Title: proof Pages: 1 -->
<svg width="166pt" height="160pt"
 viewBox="0.00 0.00 166.00 160.00" xmlns="http://www.w3.org/2000/svg" xmlns:xlink="http://www.w3.org/1999/xlink">
<g id="graph0" class="graph" transform="scale(1 1) rotate(0) translate(4 156)">
<title>proof</title>
<polygon fill="white" stroke="transparent" points="-4,4 -4,-156 162,-156 162,4 -4,4"/>
<g id="clust1" class="cluster">
<title>cluster_0</title>
<polygon fill="none" stroke="black" stroke-dasharray="1,5" points="37,-112 37,-144 121,-144 121,-112 37,-112"/>
</g>
<g id="clust2" class="cluster">
<title>cluster_1</title>
<polygon fill="none" stroke="black" stroke-width="2" points="42,-60 42,-92 116,-92 116,-60 42,-60"/>
</g>
<g id="clust3" class="cluster">
<title>cluster_2</title>
<polygon fill="none" stroke="black" stroke-dasharray="1,5" points="8,-8 8,-40 150,-40 150,-8 8,-8"/>
</g>
<!-- fc1_nat_1 -->
<g id="node1" class="node">
<title>fc1_nat_1</title>
<g id="a_node1"><a xlink:href="None" xlink:title="fc1_nat_1" target="_blank">
<polygon fill="#69d2e7" stroke="#7f7542" points="45,-120.5 45,-135.5 113,-135.5 113,-120.5 45,-120.5"/>
<text text-anchor="middle" x="79" y="-124.3" font-family="Times,serif" font-size="14.00">fc1_nat_1</text>
</a>
</g>
</g>
<!-- c_0_150 -->
<g id="node2" class="node">
<title>c_0_150</title>
<g id="a_node2"><a xlink:href="c_0_150.html" xlink:title="c_0_150" target="_parent">
<polygon fill="#f8edd1" stroke="#7f7542" points="50,-68.5 50,-83.5 108,-83.5 108,-68.5 50,-68.5"/>
<text text-anchor="middle" x="79" y="-72.3" font-family="Times,serif" font-size="14.00">c_0_150</text>
</a>
</g>
</g>
<!-- fc1_nat_1&#45;&gt;c_0_150 -->
<g id="edge1" class="edge">
<title>fc1_nat_1&#45;&gt;c_0_150</title>
<path fill="none" stroke="black" d="M79,-120.33C79,-120.33 79,-93.7 79,-93.7"/>
<polygon fill="black" stroke="black" points="82.5,-93.7 79,-83.7 75.5,-93.7 82.5,-93.7"/>
</g>
<!-- c_0_160 -->
<g id="node3" class="node">
<title>c_0_160</title>
<g id="a_node3"><a xlink:href="c_0_160.html" xlink:title="{natural(N1 + N2)}" target="_parent">
<polygon fill="#f8edd1" stroke="#7f7542" points="16,-16.5 16,-31.5 142,-31.5 142,-16.5 16,-16.5"/>
<text text-anchor="middle" x="79" y="-20.3" font-family="Times,serif" font-size="14.00">natural(N1 + N2)</text>
</a>
</g>
</g>
<!-- c_0_150&#45;&gt;c_0_160 -->
<g id="edge2" class="edge">
<title>c_0_150&#45;&gt;c_0_160</title>
<path fill="none" stroke="black" stroke-dasharray="5,2" d="M79,-68.33C79,-68.33 79,-41.7 79,-41.7"/>
<polygon fill="black" stroke="black" points="82.5,-41.7 79,-31.7 75.5,-41.7 82.5,-41.7"/>
</g>
</g>
</svg>
