<?xml version="1.0" encoding="UTF-8" standalone="no"?>
<!DOCTYPE svg PUBLIC "-//W3C//DTD SVG 1.1//EN"
 "http://www.w3.org/Graphics/SVG/1.1/DTD/svg11.dtd">
<!-- Generated by graphviz version 5.0.0 (0)
 -->
<!-- Title: proof Pages: 1 -->
<svg width="184pt" height="220pt"
 viewBox="0.00 0.00 184.00 220.00" xmlns="http://www.w3.org/2000/svg" xmlns:xlink="http://www.w3.org/1999/xlink">
<g id="graph0" class="graph" transform="scale(1 1) rotate(0) translate(4 216)">
<title>proof</title>
<polygon fill="white" stroke="transparent" points="-4,4 -4,-216 180,-216 180,4 -4,4"/>
<g id="clust1" class="cluster">
<title>cluster_0</title>
<polygon fill="none" stroke="black" stroke-dasharray="1,5" points="55,-172 55,-204 121,-204 121,-172 55,-172"/>
</g>
<g id="clust2" class="cluster">
<title>cluster_1</title>
<polygon fill="none" stroke="black" stroke-width="2" points="15,-90 15,-152 161,-152 161,-90 15,-90"/>
</g>
<g id="clust3" class="cluster">
<title>cluster_2</title>
<polygon fill="none" stroke="black" stroke-dasharray="1,5" points="8,-8 8,-70 168,-70 168,-8 8,-8"/>
</g>
<!-- c_0_43 -->
<g id="node1" class="node">
<title>c_0_43</title>
<g id="a_node1"><a xlink:href="c_0_43.html" xlink:title="c_0_43" target="_parent">
<polygon fill="#f8edd1" stroke="#7f7542" points="63.5,-180.5 63.5,-195.5 112.5,-195.5 112.5,-180.5 63.5,-180.5"/>
<text text-anchor="middle" x="88" y="-184.3" font-family="Times,serif" font-size="14.00">c_0_43</text>
</a>
</g>
</g>
<!-- c_0_55 -->
<g id="node2" class="node">
<title>c_0_55</title>
<g id="a_node2"><a xlink:href="c_0_55.html" xlink:title="{2 ≤ N1|⇊|esk4_1(N1) ∈ NAT}" target="_parent">
<polygon fill="#f8edd1" stroke="#7f7542" points="23,-98.5 23,-143.5 153,-143.5 153,-98.5 23,-98.5"/>
<text text-anchor="middle" x="88" y="-132.3" font-family="Times,serif" font-size="14.00">2 ≤ N1</text>
<polyline fill="none" stroke="#7f7542" points="23,-128.5 153,-128.5 "/>
<text text-anchor="middle" x="88" y="-117.3" font-family="Times,serif" font-size="14.00">⇊</text>
<polyline fill="none" stroke="#7f7542" points="23,-113.5 153,-113.5 "/>
<text text-anchor="middle" x="88" y="-102.3" font-family="Times,serif" font-size="14.00">esk4_1(N1) ∈ NAT</text>
</a>
</g>
</g>
<!-- c_0_43&#45;&gt;c_0_55 -->
<g id="edge1" class="edge">
<title>c_0_43&#45;&gt;c_0_55</title>
<path fill="none" stroke="black" d="M88,-180.31C88,-180.31 88,-153.76 88,-153.76"/>
<polygon fill="black" stroke="black" points="91.5,-153.76 88,-143.76 84.5,-153.76 91.5,-153.76"/>
</g>
<!-- c_0_75 -->
<g id="node3" class="node">
<title>c_0_75</title>
<g id="a_node3"><a xlink:href="c_0_75.html" xlink:title="{2 ≤ N1|⇊|natural(esk4_1(N1))}" target="_parent">
<polygon fill="#f8edd1" stroke="#7f7542" points="16.5,-16.5 16.5,-61.5 159.5,-61.5 159.5,-16.5 16.5,-16.5"/>
<text text-anchor="middle" x="88" y="-50.3" font-family="Times,serif" font-size="14.00">2 ≤ N1</text>
<polyline fill="none" stroke="#7f7542" points="16.5,-46.5 159.5,-46.5 "/>
<text text-anchor="middle" x="88" y="-35.3" font-family="Times,serif" font-size="14.00">⇊</text>
<polyline fill="none" stroke="#7f7542" points="16.5,-31.5 159.5,-31.5 "/>
<text text-anchor="middle" x="88" y="-20.3" font-family="Times,serif" font-size="14.00">natural(esk4_1(N1))</text>
</a>
</g>
</g>
<!-- c_0_55&#45;&gt;c_0_75 -->
<g id="edge2" class="edge">
<title>c_0_55&#45;&gt;c_0_75</title>
<path fill="none" stroke="black" stroke-dasharray="5,2" d="M88,-98.16C88,-98.16 88,-71.72 88,-71.72"/>
<polygon fill="black" stroke="black" points="91.5,-71.72 88,-61.72 84.5,-71.72 91.5,-71.72"/>
</g>
</g>
</svg>
