<?xml version="1.0" encoding="UTF-8" standalone="no"?>
<!DOCTYPE svg PUBLIC "-//W3C//DTD SVG 1.1//EN"
 "http://www.w3.org/Graphics/SVG/1.1/DTD/svg11.dtd">
<!-- Generated by graphviz version 5.0.0 (0)
 -->
<!-- Title: proof Pages: 1 -->
<svg width="218pt" height="205pt"
 viewBox="0.00 0.00 218.00 205.00" xmlns="http://www.w3.org/2000/svg" xmlns:xlink="http://www.w3.org/1999/xlink">
<g id="graph0" class="graph" transform="scale(1 1) rotate(0) translate(4 201)">
<title>proof</title>
<polygon fill="white" stroke="transparent" points="-4,4 -4,-201 214,-201 214,4 -4,4"/>
<g id="clust1" class="cluster">
<title>cluster_0</title>
<polygon fill="none" stroke="black" stroke-dasharray="1,5" points="8,-157 8,-189 202,-189 202,-157 8,-157"/>
</g>
<g id="clust2" class="cluster">
<title>cluster_1</title>
<polygon fill="none" stroke="black" stroke-width="2" points="72,-105 72,-137 138,-137 138,-105 72,-105"/>
</g>
<g id="clust3" class="cluster">
<title>cluster_2</title>
<polygon fill="none" stroke="black" stroke-dasharray="1,5" points="60,-8 60,-85 150,-85 150,-8 60,-8"/>
</g>
<!-- redefinition_k6_numbers -->
<g id="node1" class="node">
<title>redefinition_k6_numbers</title>
<g id="a_node1"><a xlink:href="http://grid01.ciirc.cvut.cz/~mptp/7.13.01_4.181.1147/html/numbers.html#K6" xlink:title="redefinition_k6_numbers" target="_blank">
<polygon fill="#69d2e7" stroke="#7f7542" points="16.5,-165.5 16.5,-180.5 193.5,-180.5 193.5,-165.5 16.5,-165.5"/>
<text text-anchor="middle" x="105" y="-169.3" font-family="Times,serif" font-size="14.00">redefinition_k6_numbers</text>
</a>
</g>
</g>
<!-- c_0_48 -->
<g id="node2" class="node">
<title>c_0_48</title>
<g id="a_node2"><a xlink:href="c_0_48.html" xlink:title="{0 = \{\}}" target="_parent">
<polygon fill="#f8edd1" stroke="#7f7542" points="80.5,-113.5 80.5,-128.5 129.5,-128.5 129.5,-113.5 80.5,-113.5"/>
<text text-anchor="middle" x="105" y="-117.3" font-family="Times,serif" font-size="14.00">0 = {}</text>
</a>
</g>
</g>
<!-- redefinition_k6_numbers&#45;&gt;c_0_48 -->
<g id="edge1" class="edge">
<title>redefinition_k6_numbers&#45;&gt;c_0_48</title>
<path fill="none" stroke="black" d="M105,-165.33C105,-165.33 105,-138.7 105,-138.7"/>
<polygon fill="black" stroke="black" points="108.5,-138.7 105,-128.7 101.5,-138.7 108.5,-138.7"/>
</g>
<!-- c_0_68 -->
<g id="node3" class="node">
<title>c_0_68</title>
<g id="a_node3"><a xlink:href="c_0_68.html" xlink:title="{N1 ≤ N2|⇊|N1 = \{\}|N1 । (N2!)}" target="_parent">
<polygon fill="#f8edd1" stroke="#7f7542" points="68.5,-16.5 68.5,-76.5 141.5,-76.5 141.5,-16.5 68.5,-16.5"/>
<text text-anchor="middle" x="105" y="-65.3" font-family="Times,serif" font-size="14.00">N1 ≤ N2</text>
<polyline fill="none" stroke="#7f7542" points="68.5,-61.5 141.5,-61.5 "/>
<text text-anchor="middle" x="105" y="-50.3" font-family="Times,serif" font-size="14.00">⇊</text>
<polyline fill="none" stroke="#7f7542" points="68.5,-46.5 141.5,-46.5 "/>
<text text-anchor="middle" x="105" y="-35.3" font-family="Times,serif" font-size="14.00">N1 = {}</text>
<polyline fill="none" stroke="#7f7542" points="68.5,-31.5 141.5,-31.5 "/>
<text text-anchor="middle" x="105" y="-20.3" font-family="Times,serif" font-size="14.00">N1 । (N2!)</text>
</a>
</g>
</g>
<!-- c_0_48&#45;&gt;c_0_68 -->
<g id="edge2" class="edge">
<title>c_0_48&#45;&gt;c_0_68</title>
<path fill="none" stroke="black" stroke-dasharray="5,2" d="M105,-113.31C105,-113.31 105,-86.51 105,-86.51"/>
<polygon fill="black" stroke="black" points="108.5,-86.51 105,-76.51 101.5,-86.51 108.5,-86.51"/>
</g>
</g>
</svg>
