<?xml version="1.0" encoding="UTF-8" standalone="no"?>
<!DOCTYPE svg PUBLIC "-//W3C//DTD SVG 1.1//EN"
 "http://www.w3.org/Graphics/SVG/1.1/DTD/svg11.dtd">
<!-- Generated by graphviz version 5.0.0 (0)
 -->
<!-- Title: proof Pages: 1 -->
<svg width="387pt" height="310pt"
 viewBox="0.00 0.00 387.00 310.00" xmlns="http://www.w3.org/2000/svg" xmlns:xlink="http://www.w3.org/1999/xlink">
<g id="graph0" class="graph" transform="scale(1 1) rotate(0) translate(4 306)">
<title>proof</title>
<g id="clust1" class="cluster">
<title>cluster_0</title>
<polygon fill="transparent" stroke="black" stroke-dasharray="1,5" points="8,-217 8,-294 371,-294 371,-217 8,-217"/>
</g>
<g id="clust2" class="cluster">
<title>cluster_1</title>
<polygon fill="transparent" stroke="black" stroke-width="2" points="127,-120 127,-197 289,-197 289,-120 127,-120"/>
</g>
<g id="clust3" class="cluster">
<title>cluster_2</title>
<polygon fill="transparent" stroke="black" stroke-dasharray="1,5" points="115,-8 115,-100 301,-100 301,-8 115,-8"/>
</g>
<!-- c_0_41 -->
<g id="node1" class="node">
<title>c_0_41</title>
<g id="a_node1"><a xlink:href="c_0_41.html" xlink:title="{N₁ । N₂|N₁ । N₂ + 1|⇊|N₁ = 1}" target="_parent">
<polygon fill="#f8edd1" stroke="#7f7542" points="283.5,-225.5 283.5,-285.5 362.5,-285.5 362.5,-225.5 283.5,-225.5"/>
<text text-anchor="middle" x="323" y="-274.3" font-family="Times,serif" font-size="14.00">N₁ । N₂</text>
<polyline fill="none" stroke="#7f7542" points="283.5,-270.5 362.5,-270.5 "/>
<text text-anchor="middle" x="323" y="-259.3" font-family="Times,serif" font-size="14.00">N₁ । N₂ + 1</text>
<polyline fill="none" stroke="#7f7542" points="283.5,-255.5 362.5,-255.5 "/>
<text text-anchor="middle" x="323" y="-244.3" font-family="Times,serif" font-size="14.00">⇊</text>
<polyline fill="none" stroke="#7f7542" points="283.5,-240.5 362.5,-240.5 "/>
<text text-anchor="middle" x="323" y="-229.3" font-family="Times,serif" font-size="14.00">N₁ = 1</text>
</a>
</g>
</g>
<!-- c_0_74 -->
<g id="node4" class="node">
<title>c_0_74</title>
<g id="a_node4"><a xlink:href="c_0_74.html" xlink:title="{2 ≤ N₁ + 1|skolem₄(N₁ + 1) । N₁|⇊|skolem₄(N₁ + 1) = 1}" target="_parent">
<polygon fill="#f8edd1" stroke="#7f7542" points="135.5,-128.5 135.5,-188.5 280.5,-188.5 280.5,-128.5 135.5,-128.5"/>
<text text-anchor="middle" x="208" y="-177.3" font-family="Times,serif" font-size="14.00">2 ≤ N₁ + 1</text>
<polyline fill="none" stroke="#7f7542" points="135.5,-173.5 280.5,-173.5 "/>
<text text-anchor="middle" x="208" y="-162.3" font-family="Times,serif" font-size="14.00">skolem₄(N₁ + 1) । N₁</text>
<polyline fill="none" stroke="#7f7542" points="135.5,-158.5 280.5,-158.5 "/>
<text text-anchor="middle" x="208" y="-147.3" font-family="Times,serif" font-size="14.00">⇊</text>
<polyline fill="none" stroke="#7f7542" points="135.5,-143.5 280.5,-143.5 "/>
<text text-anchor="middle" x="208" y="-132.3" font-family="Times,serif" font-size="14.00">skolem₄(N₁ + 1) = 1</text>
</a>
</g>
</g>
<!-- c_0_41&#45;&gt;c_0_74 -->
<g id="edge1" class="edge">
<title>c_0_41&#45;&gt;c_0_74</title>
<path fill="none" stroke="black" d="M283.12,-228C277.18,-228 273,-228 273,-228 273,-228 273,-198.78 273,-198.78"/>
<polygon fill="black" stroke="black" points="276.5,-198.78 273,-188.78 269.5,-198.78 276.5,-198.78"/>
</g>
<!-- c_0_53 -->
<g id="node2" class="node">
<title>c_0_53</title>
<g id="a_node2"><a xlink:href="c_0_53.html" xlink:title="{2 ≤ N₁|⇊|skolem₄(N₁) । N₁}" target="_parent">
<polygon fill="#f8edd1" stroke="#7f7542" points="150.5,-233 150.5,-278 265.5,-278 265.5,-233 150.5,-233"/>
<text text-anchor="middle" x="208" y="-266.8" font-family="Times,serif" font-size="14.00">2 ≤ N₁</text>
<polyline fill="none" stroke="#7f7542" points="150.5,-263 265.5,-263 "/>
<text text-anchor="middle" x="208" y="-251.8" font-family="Times,serif" font-size="14.00">⇊</text>
<polyline fill="none" stroke="#7f7542" points="150.5,-248 265.5,-248 "/>
<text text-anchor="middle" x="208" y="-236.8" font-family="Times,serif" font-size="14.00">skolem₄(N₁) । N₁</text>
</a>
</g>
</g>
<!-- c_0_53&#45;&gt;c_0_74 -->
<g id="edge2" class="edge">
<title>c_0_53&#45;&gt;c_0_74</title>
<path fill="none" stroke="black" d="M208,-232.51C208,-232.51 208,-198.67 208,-198.67"/>
<polygon fill="black" stroke="black" points="211.5,-198.67 208,-188.67 204.5,-198.67 211.5,-198.67"/>
</g>
<!-- c_0_55 -->
<g id="node3" class="node">
<title>c_0_55</title>
<g id="a_node3"><a xlink:href="c_0_55.html" xlink:title="{2 ≤ N₁|⇊|skolem₄(N₁) ∈ ℕ}" target="_parent">
<polygon fill="#f8edd1" stroke="#7f7542" points="16,-233 16,-278 132,-278 132,-233 16,-233"/>
<text text-anchor="middle" x="74" y="-266.8" font-family="Times,serif" font-size="14.00">2 ≤ N₁</text>
<polyline fill="none" stroke="#7f7542" points="16,-263 132,-263 "/>
<text text-anchor="middle" x="74" y="-251.8" font-family="Times,serif" font-size="14.00">⇊</text>
<polyline fill="none" stroke="#7f7542" points="16,-248 132,-248 "/>
<text text-anchor="middle" x="74" y="-236.8" font-family="Times,serif" font-size="14.00">skolem₄(N₁) ∈ ℕ</text>
</a>
</g>
</g>
<!-- c_0_55&#45;&gt;c_0_74 -->
<g id="edge3" class="edge">
<title>c_0_55&#45;&gt;c_0_74</title>
<path fill="none" stroke="black" d="M132.22,-255C138.69,-255 143,-255 143,-255 143,-255 143,-198.5 143,-198.5"/>
<polygon fill="black" stroke="black" points="146.5,-198.5 143,-188.5 139.5,-198.5 146.5,-198.5"/>
</g>
<!-- c_0_89 -->
<g id="node5" class="node">
<title>c_0_89</title>
<g id="a_node5"><a xlink:href="c_0_89.html" xlink:title="{2 ≤ (N₁!) + 1|skolem₄((N₁!) + 1) ≤ N₁|⇊|skolem₄((N₁!) + 1) = 0|skolem₄((N₁!) + 1) = 1}" target="_parent">
<polygon fill="#f8edd1" stroke="#7f7542" points="123.5,-16.5 123.5,-91.5 292.5,-91.5 292.5,-16.5 123.5,-16.5"/>
<text text-anchor="middle" x="208" y="-80.3" font-family="Times,serif" font-size="14.00">2 ≤ (N₁!) + 1</text>
<polyline fill="none" stroke="#7f7542" points="123.5,-76.5 292.5,-76.5 "/>
<text text-anchor="middle" x="208" y="-65.3" font-family="Times,serif" font-size="14.00">skolem₄((N₁!) + 1) ≤ N₁</text>
<polyline fill="none" stroke="#7f7542" points="123.5,-61.5 292.5,-61.5 "/>
<text text-anchor="middle" x="208" y="-50.3" font-family="Times,serif" font-size="14.00">⇊</text>
<polyline fill="none" stroke="#7f7542" points="123.5,-46.5 292.5,-46.5 "/>
<text text-anchor="middle" x="208" y="-35.3" font-family="Times,serif" font-size="14.00">skolem₄((N₁!) + 1) = 0</text>
<polyline fill="none" stroke="#7f7542" points="123.5,-31.5 292.5,-31.5 "/>
<text text-anchor="middle" x="208" y="-20.3" font-family="Times,serif" font-size="14.00">skolem₄((N₁!) + 1) = 1</text>
</a>
</g>
</g>
<!-- c_0_74&#45;&gt;c_0_89 -->
<g id="edge4" class="edge">
<title>c_0_74&#45;&gt;c_0_89</title>
<path fill="none" stroke="black" stroke-dasharray="5,2" d="M208,-128.27C208,-128.27 208,-101.59 208,-101.59"/>
<polygon fill="black" stroke="black" points="211.5,-101.59 208,-91.59 204.5,-101.59 211.5,-101.59"/>
</g>
</g>
</svg>
