<?xml version="1.0" encoding="UTF-8" standalone="no"?>
<!DOCTYPE svg PUBLIC "-//W3C//DTD SVG 1.1//EN"
 "http://www.w3.org/Graphics/SVG/1.1/DTD/svg11.dtd">
<!-- Generated by graphviz version 5.0.0 (0)
 -->
<!-- Title: proof Pages: 1 -->
<svg width="563pt" height="295pt"
 viewBox="0.00 0.00 563.00 295.00" xmlns="http://www.w3.org/2000/svg" xmlns:xlink="http://www.w3.org/1999/xlink">
<g id="graph0" class="graph" transform="scale(1 1) rotate(0) translate(4 291)">
<title>proof</title>
<polygon fill="white" stroke="transparent" points="-4,4 -4,-291 559,-291 559,4 -4,4"/>
<g id="clust1" class="cluster">
<title>cluster_0</title>
<polygon fill="none" stroke="black" stroke-dasharray="1,5" points="147,-202 147,-279 365,-279 365,-202 147,-202"/>
</g>
<g id="clust2" class="cluster">
<title>cluster_1</title>
<polygon fill="none" stroke="black" stroke-width="2" points="203,-120 203,-182 329,-182 329,-120 203,-120"/>
</g>
<g id="clust3" class="cluster">
<title>cluster_2</title>
<polygon fill="none" stroke="black" stroke-dasharray="1,5" points="8,-8 8,-100 547,-100 547,-8 8,-8"/>
</g>
<!-- c_0_67 -->
<g id="node1" class="node">
<title>c_0_67</title>
<g id="a_node1"><a xlink:href="c_0_67.html" xlink:title="{ℕ ⊆ ℕ}" target="_parent">
<polygon fill="#f8edd1" stroke="#7f7542" points="309.5,-233 309.5,-248 356.5,-248 356.5,-233 309.5,-233"/>
<text text-anchor="middle" x="333" y="-236.8" font-family="Times,serif" font-size="14.00">ℕ ⊆ ℕ</text>
</a>
</g>
</g>
<!-- c_0_55 -->
<g id="node4" class="node">
<title>c_0_55</title>
<g id="a_node4"><a xlink:href="c_0_55.html" xlink:title="{2 ≤ N₁|⇊|esk4_1(N₁) ∈ ℕ}" target="_parent">
<polygon fill="#f8edd1" stroke="#7f7542" points="211.5,-128.5 211.5,-173.5 320.5,-173.5 320.5,-128.5 211.5,-128.5"/>
<text text-anchor="middle" x="266" y="-162.3" font-family="Times,serif" font-size="14.00">2 ≤ N₁</text>
<polyline fill="none" stroke="#7f7542" points="211.5,-158.5 320.5,-158.5 "/>
<text text-anchor="middle" x="266" y="-147.3" font-family="Times,serif" font-size="14.00">⇊</text>
<polyline fill="none" stroke="#7f7542" points="211.5,-143.5 320.5,-143.5 "/>
<text text-anchor="middle" x="266" y="-132.3" font-family="Times,serif" font-size="14.00">esk4_1(N₁) ∈ ℕ</text>
</a>
</g>
</g>
<!-- c_0_67&#45;&gt;c_0_55 -->
<g id="edge1" class="edge">
<title>c_0_67&#45;&gt;c_0_55</title>
<path fill="none" stroke="black" d="M315,-232.87C315,-232.87 315,-183.81 315,-183.81"/>
<polygon fill="black" stroke="black" points="318.5,-183.81 315,-173.81 311.5,-183.81 318.5,-183.81"/>
</g>
<!-- c_0_54 -->
<g id="node2" class="node">
<title>c_0_54</title>
<g id="a_node2"><a xlink:href="c_0_54.html" xlink:title="{X₁ ⊆ ℕ|X₂ ∈ X₁|⇊|X₂ ∈ ℕ}" target="_parent">
<polygon fill="#f8edd1" stroke="#7f7542" points="241,-210.5 241,-270.5 291,-270.5 291,-210.5 241,-210.5"/>
<text text-anchor="middle" x="266" y="-259.3" font-family="Times,serif" font-size="14.00">X₁ ⊆ ℕ</text>
<polyline fill="none" stroke="#7f7542" points="241,-255.5 291,-255.5 "/>
<text text-anchor="middle" x="266" y="-244.3" font-family="Times,serif" font-size="14.00">X₂ ∈ X₁</text>
<polyline fill="none" stroke="#7f7542" points="241,-240.5 291,-240.5 "/>
<text text-anchor="middle" x="266" y="-229.3" font-family="Times,serif" font-size="14.00">⇊</text>
<polyline fill="none" stroke="#7f7542" points="241,-225.5 291,-225.5 "/>
<text text-anchor="middle" x="266" y="-214.3" font-family="Times,serif" font-size="14.00">X₂ ∈ ℕ</text>
</a>
</g>
</g>
<!-- c_0_54&#45;&gt;c_0_55 -->
<g id="edge2" class="edge">
<title>c_0_54&#45;&gt;c_0_55</title>
<path fill="none" stroke="black" d="M266,-210.2C266,-210.2 266,-183.63 266,-183.63"/>
<polygon fill="black" stroke="black" points="269.5,-183.63 266,-173.63 262.5,-183.63 269.5,-183.63"/>
</g>
<!-- t31_int_2 -->
<g id="node3" class="node">
<title>t31_int_2</title>
<g id="a_node3"><a xlink:href="http://grid01.ciirc.cvut.cz/~mptp/7.13.01_4.181.1147/html/int_2.html#T31" xlink:title="t31_int_2" target="_blank">
<polygon fill="#69d2e7" stroke="#7f7542" points="155.5,-233 155.5,-248 222.5,-248 222.5,-233 155.5,-233"/>
<text text-anchor="middle" x="189" y="-236.8" font-family="Times,serif" font-size="14.00">t31_int_2</text>
</a>
</g>
</g>
<!-- t31_int_2&#45;&gt;c_0_55 -->
<g id="edge3" class="edge">
<title>t31_int_2&#45;&gt;c_0_55</title>
<path fill="none" stroke="black" d="M217,-232.87C217,-232.87 217,-183.81 217,-183.81"/>
<polygon fill="black" stroke="black" points="220.5,-183.81 217,-173.81 213.5,-183.81 220.5,-183.81"/>
</g>
<!-- c_0_89 -->
<g id="node5" class="node">
<title>c_0_89</title>
<g id="a_node5"><a xlink:href="c_0_89.html" xlink:title="{2 ≤ ((N₁!) + 1)|esk4_1((N₁!) + 1) ≤ N₁|⇊|esk4_1((N₁!) + 1) = 0|esk4_1((N₁!) + 1) = 1}" target="_parent">
<polygon fill="#f8edd1" stroke="#7f7542" points="377,-16.5 377,-91.5 539,-91.5 539,-16.5 377,-16.5"/>
<text text-anchor="middle" x="458" y="-80.3" font-family="Times,serif" font-size="14.00">2 ≤ ((N₁!) + 1)</text>
<polyline fill="none" stroke="#7f7542" points="377,-76.5 539,-76.5 "/>
<text text-anchor="middle" x="458" y="-65.3" font-family="Times,serif" font-size="14.00">esk4_1((N₁!) + 1) ≤ N₁</text>
<polyline fill="none" stroke="#7f7542" points="377,-61.5 539,-61.5 "/>
<text text-anchor="middle" x="458" y="-50.3" font-family="Times,serif" font-size="14.00">⇊</text>
<polyline fill="none" stroke="#7f7542" points="377,-46.5 539,-46.5 "/>
<text text-anchor="middle" x="458" y="-35.3" font-family="Times,serif" font-size="14.00">esk4_1((N₁!) + 1) = 0</text>
<polyline fill="none" stroke="#7f7542" points="377,-31.5 539,-31.5 "/>
<text text-anchor="middle" x="458" y="-20.3" font-family="Times,serif" font-size="14.00">esk4_1((N₁!) + 1) = 1</text>
</a>
</g>
</g>
<!-- c_0_55&#45;&gt;c_0_89 -->
<g id="edge4" class="edge">
<title>c_0_55&#45;&gt;c_0_89</title>
<path fill="none" stroke="black" stroke-dasharray="5,2" d="M284.17,-128.26C284.17,-110.21 284.17,-88 284.17,-88 284.17,-88 366.94,-88 366.94,-88"/>
<polygon fill="black" stroke="black" points="366.94,-91.5 376.94,-88 366.94,-84.5 366.94,-91.5"/>
</g>
<!-- c_0_102 -->
<g id="node6" class="node">
<title>c_0_102</title>
<g id="a_node6"><a xlink:href="c_0_102.html" xlink:title="{2 ≤ ((esk1_0!) + 1)|⇊|esk4_1((esk1_0!) + 1) = 0|esk4_1((esk1_0!) + 1) = 1}" target="_parent">
<polygon fill="#fa6900" stroke="#7f7542" points="173.5,-24 173.5,-84 358.5,-84 358.5,-24 173.5,-24"/>
<text text-anchor="middle" x="266" y="-72.8" font-family="Times,serif" font-size="14.00">2 ≤ ((esk1_0!) + 1)</text>
<polyline fill="none" stroke="#7f7542" points="173.5,-69 358.5,-69 "/>
<text text-anchor="middle" x="266" y="-57.8" font-family="Times,serif" font-size="14.00">⇊</text>
<polyline fill="none" stroke="#7f7542" points="173.5,-54 358.5,-54 "/>
<text text-anchor="middle" x="266" y="-42.8" font-family="Times,serif" font-size="14.00">esk4_1((esk1_0!) + 1) = 0</text>
<polyline fill="none" stroke="#7f7542" points="173.5,-39 358.5,-39 "/>
<text text-anchor="middle" x="266" y="-27.8" font-family="Times,serif" font-size="14.00">esk4_1((esk1_0!) + 1) = 1</text>
</a>
</g>
</g>
<!-- c_0_55&#45;&gt;c_0_102 -->
<g id="edge5" class="edge">
<title>c_0_55&#45;&gt;c_0_102</title>
<path fill="none" stroke="black" stroke-dasharray="5,2" d="M247.83,-128.01C247.83,-128.01 247.83,-94.17 247.83,-94.17"/>
<polygon fill="black" stroke="black" points="251.33,-94.17 247.83,-84.17 244.33,-94.17 251.33,-94.17"/>
</g>
<!-- c_0_74 -->
<g id="node7" class="node">
<title>c_0_74</title>
<g id="a_node7"><a xlink:href="c_0_74.html" xlink:title="{2 ≤ (N₁ + 1)|esk4_1(N₁ + 1) । N₁|⇊|esk4_1(N₁ + 1) = 1}" target="_parent">
<polygon fill="#f8edd1" stroke="#7f7542" points="16.5,-24 16.5,-84 155.5,-84 155.5,-24 16.5,-24"/>
<text text-anchor="middle" x="86" y="-72.8" font-family="Times,serif" font-size="14.00">2 ≤ (N₁ + 1)</text>
<polyline fill="none" stroke="#7f7542" points="16.5,-69 155.5,-69 "/>
<text text-anchor="middle" x="86" y="-57.8" font-family="Times,serif" font-size="14.00">esk4_1(N₁ + 1) । N₁</text>
<polyline fill="none" stroke="#7f7542" points="16.5,-54 155.5,-54 "/>
<text text-anchor="middle" x="86" y="-42.8" font-family="Times,serif" font-size="14.00">⇊</text>
<polyline fill="none" stroke="#7f7542" points="16.5,-39 155.5,-39 "/>
<text text-anchor="middle" x="86" y="-27.8" font-family="Times,serif" font-size="14.00">esk4_1(N₁ + 1) = 1</text>
</a>
</g>
</g>
<!-- c_0_55&#45;&gt;c_0_74 -->
<g id="edge6" class="edge">
<title>c_0_55&#45;&gt;c_0_74</title>
<path fill="none" stroke="black" stroke-dasharray="5,2" d="M211.02,-151C158.08,-151 86,-151 86,-151 86,-151 86,-94.16 86,-94.16"/>
<polygon fill="black" stroke="black" points="89.5,-94.16 86,-84.16 82.5,-94.16 89.5,-94.16"/>
</g>
</g>
</svg>
