<?xml version="1.0" encoding="UTF-8" standalone="no"?>
<!DOCTYPE svg PUBLIC "-//W3C//DTD SVG 1.1//EN"
 "http://www.w3.org/Graphics/SVG/1.1/DTD/svg11.dtd">
<!-- Generated by graphviz version 5.0.0 (0)
 -->
<!-- Title: proof Pages: 1 -->
<svg width="375pt" height="250pt"
 viewBox="0.00 0.00 375.00 250.00" xmlns="http://www.w3.org/2000/svg" xmlns:xlink="http://www.w3.org/1999/xlink">
<g id="graph0" class="graph" transform="scale(1 1) rotate(0) translate(4 246)">
<title>proof</title>
<g id="clust1" class="cluster">
<title>cluster_0</title>
<polygon fill="transparent" stroke="black" stroke-dasharray="1,5" points="8,-157 8,-234 359,-234 359,-157 8,-157"/>
</g>
<g id="clust2" class="cluster">
<title>cluster_1</title>
<polygon fill="transparent" stroke="black" stroke-width="2" points="98,-60 98,-137 198,-137 198,-60 98,-60"/>
</g>
<g id="clust3" class="cluster">
<title>cluster_2</title>
<polygon fill="transparent" stroke="black" stroke-dasharray="1,5" points="97,-8 97,-40 199,-40 199,-8 97,-8"/>
</g>
<!-- c_0_109 -->
<g id="node1" class="node">
<title>c_0_109</title>
<g id="a_node1"><a xlink:href="c_0_109.html" xlink:title="{R₁ ≤ R₂|R₃ ≤ R₄|⇊|R₁ + R₃ ≤ R₂ + R₄}" target="_parent">
<polygon fill="#f8edd1" stroke="#7f7542" points="223.5,-165.5 223.5,-225.5 350.5,-225.5 350.5,-165.5 223.5,-165.5"/>
<text text-anchor="middle" x="287" y="-214.3" font-family="Times,serif" font-size="14.00">R₁ ≤ R₂</text>
<polyline fill="none" stroke="#7f7542" points="223.5,-210.5 350.5,-210.5 "/>
<text text-anchor="middle" x="287" y="-199.3" font-family="Times,serif" font-size="14.00">R₃ ≤ R₄</text>
<polyline fill="none" stroke="#7f7542" points="223.5,-195.5 350.5,-195.5 "/>
<text text-anchor="middle" x="287" y="-184.3" font-family="Times,serif" font-size="14.00">⇊</text>
<polyline fill="none" stroke="#7f7542" points="223.5,-180.5 350.5,-180.5 "/>
<text text-anchor="middle" x="287" y="-169.3" font-family="Times,serif" font-size="14.00">R₁ + R₃ ≤ R₂ + R₄</text>
</a>
</g>
</g>
<!-- c_0_119 -->
<g id="node5" class="node">
<title>c_0_119</title>
<g id="a_node5"><a xlink:href="c_0_119.html" xlink:title="{0 ≤ R₂|2 ≤ R₁|⇊|2 ≤ R₁ + R₂}" target="_parent">
<polygon fill="#f8edd1" stroke="#7f7542" points="106.5,-68.5 106.5,-128.5 189.5,-128.5 189.5,-68.5 106.5,-68.5"/>
<text text-anchor="middle" x="148" y="-117.3" font-family="Times,serif" font-size="14.00">0 ≤ R₂</text>
<polyline fill="none" stroke="#7f7542" points="106.5,-113.5 189.5,-113.5 "/>
<text text-anchor="middle" x="148" y="-102.3" font-family="Times,serif" font-size="14.00">2 ≤ R₁</text>
<polyline fill="none" stroke="#7f7542" points="106.5,-98.5 189.5,-98.5 "/>
<text text-anchor="middle" x="148" y="-87.3" font-family="Times,serif" font-size="14.00">⇊</text>
<polyline fill="none" stroke="#7f7542" points="106.5,-83.5 189.5,-83.5 "/>
<text text-anchor="middle" x="148" y="-72.3" font-family="Times,serif" font-size="14.00">2 ≤ R₁ + R₂</text>
</a>
</g>
</g>
<!-- c_0_109&#45;&gt;c_0_119 -->
<g id="edge1" class="edge">
<title>c_0_109&#45;&gt;c_0_119</title>
<path fill="none" stroke="black" d="M223.3,-176C200.88,-176 181.17,-176 181.17,-176 181.17,-176 181.17,-138.69 181.17,-138.69"/>
<polygon fill="black" stroke="black" points="184.67,-138.69 181.17,-128.69 177.67,-138.69 184.67,-138.69"/>
</g>
<!-- c_0_121 -->
<g id="node2" class="node">
<title>c_0_121</title>
<g id="a_node2"><a xlink:href="c_0_121.html" xlink:title="{2 ∈ ℝ}" target="_parent">
<polygon fill="#f8edd1" stroke="#7f7542" points="164.5,-188 164.5,-203 205.5,-203 205.5,-188 164.5,-188"/>
<text text-anchor="middle" x="185" y="-191.8" font-family="Times,serif" font-size="14.00">2 ∈ ℝ</text>
</a>
</g>
</g>
<!-- c_0_121&#45;&gt;c_0_119 -->
<g id="edge2" class="edge">
<title>c_0_121&#45;&gt;c_0_119</title>
<path fill="none" stroke="black" d="M172.83,-187.89C172.83,-187.89 172.83,-138.78 172.83,-138.78"/>
<polygon fill="black" stroke="black" points="176.33,-138.78 172.83,-128.78 169.33,-138.78 176.33,-138.78"/>
</g>
<!-- c_0_110 -->
<g id="node3" class="node">
<title>c_0_110</title>
<g id="a_node3"><a xlink:href="c_0_110.html" xlink:title="{2 + 0 = 2}" target="_parent">
<polygon fill="#f8edd1" stroke="#7f7542" points="76,-188 76,-203 146,-203 146,-188 76,-188"/>
<text text-anchor="middle" x="111" y="-191.8" font-family="Times,serif" font-size="14.00">2 + 0 = 2</text>
</a>
</g>
</g>
<!-- c_0_110&#45;&gt;c_0_119 -->
<g id="edge3" class="edge">
<title>c_0_110&#45;&gt;c_0_119</title>
<path fill="none" stroke="black" d="M126.25,-187.89C126.25,-187.89 126.25,-138.78 126.25,-138.78"/>
<polygon fill="black" stroke="black" points="129.75,-138.78 126.25,-128.78 122.75,-138.78 129.75,-138.78"/>
</g>
<!-- c_0_120 -->
<g id="node4" class="node">
<title>c_0_120</title>
<g id="a_node4"><a xlink:href="c_0_120.html" xlink:title="{0 ∈ ℝ}" target="_parent">
<polygon fill="#f8edd1" stroke="#7f7542" points="16.5,-188 16.5,-203 57.5,-203 57.5,-188 16.5,-188"/>
<text text-anchor="middle" x="37" y="-191.8" font-family="Times,serif" font-size="14.00">0 ∈ ℝ</text>
</a>
</g>
</g>
<!-- c_0_120&#45;&gt;c_0_119 -->
<g id="edge4" class="edge">
<title>c_0_120&#45;&gt;c_0_119</title>
<path fill="none" stroke="black" d="M37,-187.85C37,-164.86 37,-98 37,-98 37,-98 96.35,-98 96.35,-98"/>
<polygon fill="black" stroke="black" points="96.35,-101.5 106.35,-98 96.35,-94.5 96.35,-101.5"/>
</g>
<!-- c_0_135 -->
<g id="node6" class="node">
<title>c_0_135</title>
<g id="a_node6"><a xlink:href="c_0_135.html" xlink:title="{¬ (2 ≤ sk₁!)}" target="_parent">
<polygon fill="#fa6900" stroke="#7f7542" points="105.5,-16.5 105.5,-31.5 190.5,-31.5 190.5,-16.5 105.5,-16.5"/>
<text text-anchor="middle" x="148" y="-20.3" font-family="Times,serif" font-size="14.00">¬ (2 ≤ sk₁!)</text>
</a>
</g>
</g>
<!-- c_0_119&#45;&gt;c_0_135 -->
<g id="edge5" class="edge">
<title>c_0_119&#45;&gt;c_0_135</title>
<path fill="none" stroke="black" stroke-dasharray="5,2" d="M148,-68.2C148,-68.2 148,-41.59 148,-41.59"/>
<polygon fill="black" stroke="black" points="151.5,-41.59 148,-31.59 144.5,-41.59 151.5,-41.59"/>
</g>
</g>
</svg>
