<?xml version="1.0" encoding="UTF-8" standalone="no"?>
<!DOCTYPE svg PUBLIC "-//W3C//DTD SVG 1.1//EN"
 "http://www.w3.org/Graphics/SVG/1.1/DTD/svg11.dtd">
<!-- Generated by graphviz version 5.0.0 (0)
 -->
<!-- Title: proof Pages: 1 -->
<svg width="375pt" height="250pt"
 viewBox="0.00 0.00 375.00 250.00" xmlns="http://www.w3.org/2000/svg" xmlns:xlink="http://www.w3.org/1999/xlink">
<g id="graph0" class="graph" transform="scale(1 1) rotate(0) translate(4 246)">
<title>proof</title>
<g id="clust1" class="cluster">
<title>cluster_0</title>
<polygon fill="transparent" stroke="black" stroke-dasharray="1,5" points="8,-157 8,-234 359,-234 359,-157 8,-157"/>
</g>
<g id="clust2" class="cluster">
<title>cluster_1</title>
<polygon fill="transparent" stroke="black" stroke-width="2" points="83,-60 83,-137 183,-137 183,-60 83,-60"/>
</g>
<g id="clust3" class="cluster">
<title>cluster_2</title>
<polygon fill="transparent" stroke="black" stroke-dasharray="1,5" points="96,-8 96,-40 170,-40 170,-8 96,-8"/>
</g>
<!-- c_0_109 -->
<g id="node1" class="node">
<title>c_0_109</title>
<g id="a_node1"><a xlink:href="c_0_109.html" xlink:title="{R₁ ≤ R₂|R₃ ≤ R₄|⇊|R₁ + R₃ ≤ R₂ + R₄}" target="_vizar">
<polygon fill="#f8edd1" stroke="#7f7542" points="223.5,-165.5 223.5,-225.5 350.5,-225.5 350.5,-165.5 223.5,-165.5"/>
<text text-anchor="middle" x="287" y="-214.3" font-family="Times,serif" font-size="14.00">R₁ ≤ R₂</text>
<polyline fill="none" stroke="#7f7542" points="223.5,-210.5 350.5,-210.5 "/>
<text text-anchor="middle" x="287" y="-199.3" font-family="Times,serif" font-size="14.00">R₃ ≤ R₄</text>
<polyline fill="none" stroke="#7f7542" points="223.5,-195.5 350.5,-195.5 "/>
<text text-anchor="middle" x="287" y="-184.3" font-family="Times,serif" font-size="14.00">⇊</text>
<polyline fill="none" stroke="#7f7542" points="223.5,-180.5 350.5,-180.5 "/>
<text text-anchor="middle" x="287" y="-169.3" font-family="Times,serif" font-size="14.00">R₁ + R₃ ≤ R₂ + R₄</text>
</a>
</g>
</g>
<!-- c_0_119 -->
<g id="node5" class="node">
<title>c_0_119</title>
<g id="a_node5"><a xlink:href="c_0_119.html" xlink:title="{0 ≤ R₂|2 ≤ R₁|⇊|2 ≤ R₁ + R₂}" target="_vizar">
<polygon fill="#f8edd1" stroke="#7f7542" points="91.5,-68.5 91.5,-128.5 174.5,-128.5 174.5,-68.5 91.5,-68.5"/>
<text text-anchor="middle" x="133" y="-117.3" font-family="Times,serif" font-size="14.00">0 ≤ R₂</text>
<polyline fill="none" stroke="#7f7542" points="91.5,-113.5 174.5,-113.5 "/>
<text text-anchor="middle" x="133" y="-102.3" font-family="Times,serif" font-size="14.00">2 ≤ R₁</text>
<polyline fill="none" stroke="#7f7542" points="91.5,-98.5 174.5,-98.5 "/>
<text text-anchor="middle" x="133" y="-87.3" font-family="Times,serif" font-size="14.00">⇊</text>
<polyline fill="none" stroke="#7f7542" points="91.5,-83.5 174.5,-83.5 "/>
<text text-anchor="middle" x="133" y="-72.3" font-family="Times,serif" font-size="14.00">2 ≤ R₁ + R₂</text>
</a>
</g>
</g>
<!-- c_0_109&#45;&gt;c_0_119 -->
<g id="edge1" class="edge">
<title>c_0_109&#45;&gt;c_0_119</title>
<path fill="none" stroke="black" d="M223.43,-176C192.26,-176 161.33,-176 161.33,-176 161.33,-176 161.33,-138.69 161.33,-138.69"/>
<polygon fill="black" stroke="black" points="164.83,-138.69 161.33,-128.69 157.83,-138.69 164.83,-138.69"/>
</g>
<!-- c_0_110 -->
<g id="node2" class="node">
<title>c_0_110</title>
<g id="a_node2"><a xlink:href="c_0_110.html" xlink:title="{2 + 0 = 2}" target="_vizar">
<polygon fill="#f8edd1" stroke="#7f7542" points="135,-188 135,-203 205,-203 205,-188 135,-188"/>
<text text-anchor="middle" x="170" y="-191.8" font-family="Times,serif" font-size="14.00">2 + 0 = 2</text>
</a>
</g>
</g>
<!-- c_0_110&#45;&gt;c_0_119 -->
<g id="edge2" class="edge">
<title>c_0_110&#45;&gt;c_0_119</title>
<path fill="none" stroke="black" d="M148.17,-187.89C148.17,-187.89 148.17,-138.78 148.17,-138.78"/>
<polygon fill="black" stroke="black" points="151.67,-138.78 148.17,-128.78 144.67,-138.78 151.67,-138.78"/>
</g>
<!-- c_0_120 -->
<g id="node3" class="node">
<title>c_0_120</title>
<g id="a_node3"><a xlink:href="c_0_120.html" xlink:title="{0 ∈ ℝ}" target="_vizar">
<polygon fill="#f8edd1" stroke="#7f7542" points="75.5,-188 75.5,-203 116.5,-203 116.5,-188 75.5,-188"/>
<text text-anchor="middle" x="96" y="-191.8" font-family="Times,serif" font-size="14.00">0 ∈ ℝ</text>
</a>
</g>
</g>
<!-- c_0_120&#45;&gt;c_0_119 -->
<g id="edge3" class="edge">
<title>c_0_120&#45;&gt;c_0_119</title>
<path fill="none" stroke="black" d="M104,-187.89C104,-187.89 104,-138.78 104,-138.78"/>
<polygon fill="black" stroke="black" points="107.5,-138.78 104,-128.78 100.5,-138.78 107.5,-138.78"/>
</g>
<!-- c_0_121 -->
<g id="node4" class="node">
<title>c_0_121</title>
<g id="a_node4"><a xlink:href="c_0_121.html" xlink:title="{2 ∈ ℝ}" target="_vizar">
<polygon fill="#f8edd1" stroke="#7f7542" points="16.5,-188 16.5,-203 57.5,-203 57.5,-188 16.5,-188"/>
<text text-anchor="middle" x="37" y="-191.8" font-family="Times,serif" font-size="14.00">2 ∈ ℝ</text>
</a>
</g>
</g>
<!-- c_0_121&#45;&gt;c_0_119 -->
<g id="edge4" class="edge">
<title>c_0_121&#45;&gt;c_0_119</title>
<path fill="none" stroke="black" d="M37,-187.85C37,-164.86 37,-98 37,-98 37,-98 81.45,-98 81.45,-98"/>
<polygon fill="black" stroke="black" points="81.45,-101.5 91.45,-98 81.45,-94.5 81.45,-101.5"/>
</g>
<!-- c_0_135 -->
<g id="node6" class="node">
<title>c_0_135</title>
<g id="a_node6"><a xlink:href="c_0_135.html" xlink:title="{2 &amp;gt; sk₁!}" target="_vizar">
<polygon fill="#fa6900" stroke="#7f7542" points="104,-16.5 104,-31.5 162,-31.5 162,-16.5 104,-16.5"/>
<text text-anchor="middle" x="133" y="-20.3" font-family="Times,serif" font-size="14.00">2 &gt; sk₁!</text>
</a>
</g>
</g>
<!-- c_0_119&#45;&gt;c_0_135 -->
<g id="edge5" class="edge">
<title>c_0_119&#45;&gt;c_0_135</title>
<path fill="none" stroke="black" stroke-dasharray="5,2" d="M133,-68.2C133,-68.2 133,-41.59 133,-41.59"/>
<polygon fill="black" stroke="black" points="136.5,-41.59 133,-31.59 129.5,-41.59 136.5,-41.59"/>
</g>
</g>
</svg>
