<?xml version="1.0" encoding="UTF-8" standalone="no"?>
<!DOCTYPE svg PUBLIC "-//W3C//DTD SVG 1.1//EN"
 "http://www.w3.org/Graphics/SVG/1.1/DTD/svg11.dtd">
<!-- Generated by graphviz version 5.0.0 (0)
 -->
<!-- Title: proof Pages: 1 -->
<svg width="134pt" height="160pt"
 viewBox="0.00 0.00 134.00 160.00" xmlns="http://www.w3.org/2000/svg" xmlns:xlink="http://www.w3.org/1999/xlink">
<g id="graph0" class="graph" transform="scale(1 1) rotate(0) translate(4 156)">
<title>proof</title>
<polygon fill="white" stroke="transparent" points="-4,4 -4,-156 130,-156 130,4 -4,4"/>
<g id="clust1" class="cluster">
<title>cluster_0</title>
<polygon fill="none" stroke="black" stroke-dasharray="1,5" points="26,-112 26,-144 100,-144 100,-112 26,-112"/>
</g>
<g id="clust2" class="cluster">
<title>cluster_1</title>
<polygon fill="none" stroke="black" stroke-width="2" points="22,-60 22,-92 104,-92 104,-60 22,-60"/>
</g>
<g id="clust3" class="cluster">
<title>cluster_2</title>
<polygon fill="none" stroke="black" stroke-dasharray="1,5" points="8,-8 8,-40 118,-40 118,-8 8,-8"/>
</g>
<!-- c_0_134 -->
<g id="node1" class="node">
<title>c_0_134</title>
<g id="a_node1"><a xlink:href="c_0_134.html" xlink:title="c_0_134" target="_parent">
<polygon fill="#f8edd1" stroke="#7f7542" points="34,-120.5 34,-135.5 92,-135.5 92,-120.5 34,-120.5"/>
<text text-anchor="middle" x="63" y="-124.3" font-family="Times,serif" font-size="14.00">c_0_134</text>
</a>
</g>
</g>
<!-- c_0_145 -->
<g id="node2" class="node">
<title>c_0_145</title>
<g id="a_node2"><a xlink:href="c_0_145.html" xlink:title="{real(N1!)}" target="_parent">
<polygon fill="#f8edd1" stroke="#7f7542" points="30,-68.5 30,-83.5 96,-83.5 96,-68.5 30,-68.5"/>
<text text-anchor="middle" x="63" y="-72.3" font-family="Times,serif" font-size="14.00">real(N1!)</text>
</a>
</g>
</g>
<!-- c_0_134&#45;&gt;c_0_145 -->
<g id="edge1" class="edge">
<title>c_0_134&#45;&gt;c_0_145</title>
<path fill="none" stroke="black" d="M63,-120.33C63,-120.33 63,-93.7 63,-93.7"/>
<polygon fill="black" stroke="black" points="66.5,-93.7 63,-83.7 59.5,-93.7 66.5,-93.7"/>
</g>
<!-- c_0_164 -->
<g id="node3" class="node">
<title>c_0_164</title>
<g id="a_node3"><a xlink:href="c_0_164.html" xlink:title="{ext&#45;real(N1!)}" target="_parent">
<polygon fill="#f8edd1" stroke="#7f7542" points="16.5,-16.5 16.5,-31.5 109.5,-31.5 109.5,-16.5 16.5,-16.5"/>
<text text-anchor="middle" x="63" y="-20.3" font-family="Times,serif" font-size="14.00">ext&#45;real(N1!)</text>
</a>
</g>
</g>
<!-- c_0_145&#45;&gt;c_0_164 -->
<g id="edge2" class="edge">
<title>c_0_145&#45;&gt;c_0_164</title>
<path fill="none" stroke="black" stroke-dasharray="5,2" d="M63,-68.33C63,-68.33 63,-41.7 63,-41.7"/>
<polygon fill="black" stroke="black" points="66.5,-41.7 63,-31.7 59.5,-41.7 66.5,-41.7"/>
</g>
</g>
</svg>
