<?xml version="1.0" encoding="UTF-8" standalone="no"?>
<!DOCTYPE svg PUBLIC "-//W3C//DTD SVG 1.1//EN"
 "http://www.w3.org/Graphics/SVG/1.1/DTD/svg11.dtd">
<!-- Generated by graphviz version 5.0.0 (0)
 -->
<!-- Title: proof Pages: 1 -->
<svg width="281pt" height="205pt"
 viewBox="0.00 0.00 281.00 205.00" xmlns="http://www.w3.org/2000/svg" xmlns:xlink="http://www.w3.org/1999/xlink">
<g id="graph0" class="graph" transform="scale(1 1) rotate(0) translate(4 201)">
<title>proof</title>
<g id="clust1" class="cluster">
<title>cluster_0</title>
<polygon fill="transparent" stroke="black" stroke-dasharray="1,5" points="8,-112 8,-189 265,-189 265,-112 8,-112"/>
</g>
<g id="clust2" class="cluster">
<title>cluster_1</title>
<polygon fill="transparent" stroke="black" stroke-width="2" points="106,-60 106,-92 164,-92 164,-60 106,-60"/>
</g>
<g id="clust3" class="cluster">
<title>cluster_2</title>
<polygon fill="transparent" stroke="black" stroke-dasharray="1,5" points="50,-8 50,-40 210,-40 210,-8 50,-8"/>
</g>
<!-- c_0_58 -->
<g id="node1" class="node">
<title>c_0_58</title>
<g id="a_node1"><a xlink:href="c_0_58.html" xlink:title="{X₁ ⊆ ℕ|X₂ ∈ X₁|⇊|X₂ ∈ ℕ}" target="_vizar">
<polygon fill="#f8edd1" stroke="#7f7542" points="207,-120.5 207,-180.5 257,-180.5 257,-120.5 207,-120.5"/>
<text text-anchor="middle" x="232" y="-169.3" font-family="Times,serif" font-size="14.00">X₁ ⊆ ℕ</text>
<polyline fill="none" stroke="#7f7542" points="207,-165.5 257,-165.5 "/>
<text text-anchor="middle" x="232" y="-154.3" font-family="Times,serif" font-size="14.00">X₂ ∈ X₁</text>
<polyline fill="none" stroke="#7f7542" points="207,-150.5 257,-150.5 "/>
<text text-anchor="middle" x="232" y="-139.3" font-family="Times,serif" font-size="14.00">⇊</text>
<polyline fill="none" stroke="#7f7542" points="207,-135.5 257,-135.5 "/>
<text text-anchor="middle" x="232" y="-124.3" font-family="Times,serif" font-size="14.00">X₂ ∈ ℕ</text>
</a>
</g>
</g>
<!-- c_0_104 -->
<g id="node4" class="node">
<title>c_0_104</title>
<g id="a_node4"><a xlink:href="c_0_104.html" xlink:title="{2 ∈ ℕ}" target="_vizar">
<polygon fill="#f8edd1" stroke="#7f7542" points="114,-68.5 114,-83.5 156,-83.5 156,-68.5 114,-68.5"/>
<text text-anchor="middle" x="135" y="-72.3" font-family="Times,serif" font-size="14.00">2 ∈ ℕ</text>
</a>
</g>
</g>
<!-- c_0_58&#45;&gt;c_0_104 -->
<g id="edge1" class="edge">
<title>c_0_58&#45;&gt;c_0_104</title>
<path fill="none" stroke="black" d="M206.93,-131C180.3,-131 142,-131 142,-131 142,-131 142,-93.65 142,-93.65"/>
<polygon fill="black" stroke="black" points="145.5,-93.65 142,-83.65 138.5,-93.65 145.5,-93.65"/>
</g>
<!-- spc2_numerals -->
<g id="node2" class="node">
<title>spc2_numerals</title>
<g id="a_node2"><a xlink:href="spc2_numerals.html" xlink:title="spc2_numerals" target="_vizar">
<polygon fill="#69d2e7" stroke="#7f7542" points="81.5,-143 81.5,-158 188.5,-158 188.5,-143 81.5,-143"/>
<text text-anchor="middle" x="135" y="-146.8" font-family="Times,serif" font-size="14.00">spc2_numerals</text>
</a>
</g>
</g>
<!-- spc2_numerals&#45;&gt;c_0_104 -->
<g id="edge2" class="edge">
<title>spc2_numerals&#45;&gt;c_0_104</title>
<path fill="none" stroke="black" d="M128,-142.81C128,-142.81 128,-93.76 128,-93.76"/>
<polygon fill="black" stroke="black" points="131.5,-93.76 128,-83.76 124.5,-93.76 131.5,-93.76"/>
</g>
<!-- c_0_60 -->
<g id="node3" class="node">
<title>c_0_60</title>
<g id="a_node3"><a xlink:href="c_0_60.html" xlink:title="{ℕ ⊆ ℕ}" target="_vizar">
<polygon fill="#f8edd1" stroke="#7f7542" points="16.5,-143 16.5,-158 63.5,-158 63.5,-143 16.5,-143"/>
<text text-anchor="middle" x="40" y="-146.8" font-family="Times,serif" font-size="14.00">ℕ ⊆ ℕ</text>
</a>
</g>
</g>
<!-- c_0_60&#45;&gt;c_0_104 -->
<g id="edge3" class="edge">
<title>c_0_60&#45;&gt;c_0_104</title>
<path fill="none" stroke="black" d="M37.25,-142.81C37.25,-123.77 37.25,-76 37.25,-76 37.25,-76 103.79,-76 103.79,-76"/>
<polygon fill="black" stroke="black" points="103.79,-79.5 113.79,-76 103.79,-72.5 103.79,-79.5"/>
</g>
<!-- c_0_121 -->
<g id="node5" class="node">
<title>c_0_121</title>
<g id="a_node5"><a xlink:href="c_0_121.html" xlink:title="{2 ∈ ℝ}" target="_vizar">
<polygon fill="#f8edd1" stroke="#7f7542" points="160.5,-16.5 160.5,-31.5 201.5,-31.5 201.5,-16.5 160.5,-16.5"/>
<text text-anchor="middle" x="181" y="-20.3" font-family="Times,serif" font-size="14.00">2 ∈ ℝ</text>
</a>
</g>
</g>
<!-- c_0_104&#45;&gt;c_0_121 -->
<g id="edge4" class="edge">
<title>c_0_104&#45;&gt;c_0_121</title>
<path fill="none" stroke="black" stroke-dasharray="5,2" d="M149,-68.33C149,-53.86 149,-24 149,-24 149,-24 150.19,-24 150.19,-24"/>
<polygon fill="black" stroke="black" points="150.19,-27.5 160.19,-24 150.19,-20.5 150.19,-27.5"/>
</g>
<!-- c_0_145 -->
<g id="node6" class="node">
<title>c_0_145</title>
<g id="a_node6"><a xlink:href="c_0_145.html" xlink:title="⊥" target="_vizar">
<polygon fill="#fa6900" stroke="#7f7542" points="128,-16.5 128,-31.5 142,-31.5 142,-16.5 128,-16.5"/>
<text text-anchor="middle" x="135" y="-20.3" font-family="Times,serif" font-size="14.00">⊥</text>
</a>
</g>
</g>
<!-- c_0_104&#45;&gt;c_0_145 -->
<g id="edge5" class="edge">
<title>c_0_104&#45;&gt;c_0_145</title>
<path fill="none" stroke="black" stroke-dasharray="5,2" d="M135,-68.33C135,-68.33 135,-41.7 135,-41.7"/>
<polygon fill="black" stroke="black" points="138.5,-41.7 135,-31.7 131.5,-41.7 138.5,-41.7"/>
</g>
<!-- c_0_139 -->
<g id="node7" class="node">
<title>c_0_139</title>
<g id="a_node7"><a xlink:href="c_0_139.html" xlink:title="{2 ≤ sk₁}" target="_vizar">
<polygon fill="#fa6900" stroke="#7f7542" points="58,-16.5 58,-31.5 110,-31.5 110,-16.5 58,-16.5"/>
<text text-anchor="middle" x="84" y="-20.3" font-family="Times,serif" font-size="14.00">2 ≤ sk₁</text>
</a>
</g>
</g>
<!-- c_0_104&#45;&gt;c_0_139 -->
<g id="edge6" class="edge">
<title>c_0_104&#45;&gt;c_0_139</title>
<path fill="none" stroke="black" stroke-dasharray="5,2" d="M121,-68.33C121,-53.86 121,-24 121,-24 121,-24 119.91,-24 119.91,-24"/>
<polygon fill="black" stroke="black" points="120.1,-20.5 110.1,-24 120.1,-27.5 120.1,-20.5"/>
</g>
</g>
</svg>
