<?xml version="1.0" encoding="UTF-8" standalone="no"?>
<!DOCTYPE svg PUBLIC "-//W3C//DTD SVG 1.1//EN"
 "http://www.w3.org/Graphics/SVG/1.1/DTD/svg11.dtd">
<!-- Generated by graphviz version 5.0.0 (0)
 -->
<!-- Title: proof Pages: 1 -->
<svg width="386pt" height="310pt"
 viewBox="0.00 0.00 386.00 310.00" xmlns="http://www.w3.org/2000/svg" xmlns:xlink="http://www.w3.org/1999/xlink">
<g id="graph0" class="graph" transform="scale(1 1) rotate(0) translate(4 306)">
<title>proof</title>
<polygon fill="white" stroke="transparent" points="-4,4 -4,-306 382,-306 382,4 -4,4"/>
<g id="clust1" class="cluster">
<title>cluster_0</title>
<polygon fill="none" stroke="black" stroke-dasharray="1,5" points="8,-217 8,-294 370,-294 370,-217 8,-217"/>
</g>
<g id="clust2" class="cluster">
<title>cluster_1</title>
<polygon fill="none" stroke="black" stroke-width="2" points="111,-120 111,-197 267,-197 267,-120 111,-120"/>
</g>
<g id="clust3" class="cluster">
<title>cluster_2</title>
<polygon fill="none" stroke="black" stroke-dasharray="1,5" points="100,-8 100,-100 278,-100 278,-8 100,-8"/>
</g>
<!-- c_0_53 -->
<g id="node1" class="node">
<title>c_0_53</title>
<g id="a_node1"><a xlink:href="c_0_53.html" xlink:title="{2 ≤ N₁|⇊|esk4_1(N₁) । N₁}" target="_parent">
<polygon fill="#f8edd1" stroke="#7f7542" points="252.5,-233 252.5,-278 361.5,-278 361.5,-233 252.5,-233"/>
<text text-anchor="middle" x="307" y="-266.8" font-family="Times,serif" font-size="14.00">2 ≤ N₁</text>
<polyline fill="none" stroke="#7f7542" points="252.5,-263 361.5,-263 "/>
<text text-anchor="middle" x="307" y="-251.8" font-family="Times,serif" font-size="14.00">⇊</text>
<polyline fill="none" stroke="#7f7542" points="252.5,-248 361.5,-248 "/>
<text text-anchor="middle" x="307" y="-236.8" font-family="Times,serif" font-size="14.00">esk4_1(N₁) । N₁</text>
</a>
</g>
</g>
<!-- c_0_74 -->
<g id="node4" class="node">
<title>c_0_74</title>
<g id="a_node4"><a xlink:href="c_0_74.html" xlink:title="{2 ≤ (N₁ + 1)|esk4_1(N₁ + 1) । N₁|⇊|esk4_1(N₁ + 1) = 1}" target="_parent">
<polygon fill="#f8edd1" stroke="#7f7542" points="119.5,-128.5 119.5,-188.5 258.5,-188.5 258.5,-128.5 119.5,-128.5"/>
<text text-anchor="middle" x="189" y="-177.3" font-family="Times,serif" font-size="14.00">2 ≤ (N₁ + 1)</text>
<polyline fill="none" stroke="#7f7542" points="119.5,-173.5 258.5,-173.5 "/>
<text text-anchor="middle" x="189" y="-162.3" font-family="Times,serif" font-size="14.00">esk4_1(N₁ + 1) । N₁</text>
<polyline fill="none" stroke="#7f7542" points="119.5,-158.5 258.5,-158.5 "/>
<text text-anchor="middle" x="189" y="-147.3" font-family="Times,serif" font-size="14.00">⇊</text>
<polyline fill="none" stroke="#7f7542" points="119.5,-143.5 258.5,-143.5 "/>
<text text-anchor="middle" x="189" y="-132.3" font-family="Times,serif" font-size="14.00">esk4_1(N₁ + 1) = 1</text>
</a>
</g>
</g>
<!-- c_0_53&#45;&gt;c_0_74 -->
<g id="edge1" class="edge">
<title>c_0_53&#45;&gt;c_0_74</title>
<path fill="none" stroke="black" d="M252.38,-255C246.87,-255 243.25,-255 243.25,-255 243.25,-255 243.25,-198.5 243.25,-198.5"/>
<polygon fill="black" stroke="black" points="246.75,-198.5 243.25,-188.5 239.75,-198.5 246.75,-198.5"/>
</g>
<!-- c_0_41 -->
<g id="node2" class="node">
<title>c_0_41</title>
<g id="a_node2"><a xlink:href="c_0_41.html" xlink:title="{N₁ । (N₂ + 1)|N₁ । N₂|⇊|N₁ = 1}" target="_parent">
<polygon fill="#f8edd1" stroke="#7f7542" points="144,-225.5 144,-285.5 234,-285.5 234,-225.5 144,-225.5"/>
<text text-anchor="middle" x="189" y="-274.3" font-family="Times,serif" font-size="14.00">N₁ । (N₂ + 1)</text>
<polyline fill="none" stroke="#7f7542" points="144,-270.5 234,-270.5 "/>
<text text-anchor="middle" x="189" y="-259.3" font-family="Times,serif" font-size="14.00">N₁ । N₂</text>
<polyline fill="none" stroke="#7f7542" points="144,-255.5 234,-255.5 "/>
<text text-anchor="middle" x="189" y="-244.3" font-family="Times,serif" font-size="14.00">⇊</text>
<polyline fill="none" stroke="#7f7542" points="144,-240.5 234,-240.5 "/>
<text text-anchor="middle" x="189" y="-229.3" font-family="Times,serif" font-size="14.00">N₁ = 1</text>
</a>
</g>
</g>
<!-- c_0_41&#45;&gt;c_0_74 -->
<g id="edge2" class="edge">
<title>c_0_41&#45;&gt;c_0_74</title>
<path fill="none" stroke="black" d="M189,-225.34C189,-225.34 189,-198.64 189,-198.64"/>
<polygon fill="black" stroke="black" points="192.5,-198.64 189,-188.64 185.5,-198.64 192.5,-198.64"/>
</g>
<!-- c_0_55 -->
<g id="node3" class="node">
<title>c_0_55</title>
<g id="a_node3"><a xlink:href="c_0_55.html" xlink:title="{2 ≤ N₁|⇊|esk4_1(N₁) ∈ ℕ}" target="_parent">
<polygon fill="#f8edd1" stroke="#7f7542" points="16.5,-233 16.5,-278 125.5,-278 125.5,-233 16.5,-233"/>
<text text-anchor="middle" x="71" y="-266.8" font-family="Times,serif" font-size="14.00">2 ≤ N₁</text>
<polyline fill="none" stroke="#7f7542" points="16.5,-263 125.5,-263 "/>
<text text-anchor="middle" x="71" y="-251.8" font-family="Times,serif" font-size="14.00">⇊</text>
<polyline fill="none" stroke="#7f7542" points="16.5,-248 125.5,-248 "/>
<text text-anchor="middle" x="71" y="-236.8" font-family="Times,serif" font-size="14.00">esk4_1(N₁) ∈ ℕ</text>
</a>
</g>
</g>
<!-- c_0_55&#45;&gt;c_0_74 -->
<g id="edge3" class="edge">
<title>c_0_55&#45;&gt;c_0_74</title>
<path fill="none" stroke="black" d="M125.62,-255C131.13,-255 134.75,-255 134.75,-255 134.75,-255 134.75,-198.5 134.75,-198.5"/>
<polygon fill="black" stroke="black" points="138.25,-198.5 134.75,-188.5 131.25,-198.5 138.25,-198.5"/>
</g>
<!-- c_0_89 -->
<g id="node5" class="node">
<title>c_0_89</title>
<g id="a_node5"><a xlink:href="c_0_89.html" xlink:title="{2 ≤ ((N₁!) + 1)|esk4_1((N₁!) + 1) ≤ N₁|⇊|esk4_1((N₁!) + 1) = 0|esk4_1((N₁!) + 1) = 1}" target="_parent">
<polygon fill="#f8edd1" stroke="#7f7542" points="108,-16.5 108,-91.5 270,-91.5 270,-16.5 108,-16.5"/>
<text text-anchor="middle" x="189" y="-80.3" font-family="Times,serif" font-size="14.00">2 ≤ ((N₁!) + 1)</text>
<polyline fill="none" stroke="#7f7542" points="108,-76.5 270,-76.5 "/>
<text text-anchor="middle" x="189" y="-65.3" font-family="Times,serif" font-size="14.00">esk4_1((N₁!) + 1) ≤ N₁</text>
<polyline fill="none" stroke="#7f7542" points="108,-61.5 270,-61.5 "/>
<text text-anchor="middle" x="189" y="-50.3" font-family="Times,serif" font-size="14.00">⇊</text>
<polyline fill="none" stroke="#7f7542" points="108,-46.5 270,-46.5 "/>
<text text-anchor="middle" x="189" y="-35.3" font-family="Times,serif" font-size="14.00">esk4_1((N₁!) + 1) = 0</text>
<polyline fill="none" stroke="#7f7542" points="108,-31.5 270,-31.5 "/>
<text text-anchor="middle" x="189" y="-20.3" font-family="Times,serif" font-size="14.00">esk4_1((N₁!) + 1) = 1</text>
</a>
</g>
</g>
<!-- c_0_74&#45;&gt;c_0_89 -->
<g id="edge4" class="edge">
<title>c_0_74&#45;&gt;c_0_89</title>
<path fill="none" stroke="black" stroke-dasharray="5,2" d="M189,-128.27C189,-128.27 189,-101.59 189,-101.59"/>
<polygon fill="black" stroke="black" points="192.5,-101.59 189,-91.59 185.5,-101.59 192.5,-101.59"/>
</g>
</g>
</svg>
