<?xml version="1.0" encoding="UTF-8" standalone="no"?>
<!DOCTYPE svg PUBLIC "-//W3C//DTD SVG 1.1//EN"
 "http://www.w3.org/Graphics/SVG/1.1/DTD/svg11.dtd">
<!-- Generated by graphviz version 5.0.0 (0)
 -->
<!-- Title: proof Pages: 1 -->
<svg width="184pt" height="190pt"
 viewBox="0.00 0.00 184.00 190.00" xmlns="http://www.w3.org/2000/svg" xmlns:xlink="http://www.w3.org/1999/xlink">
<g id="graph0" class="graph" transform="scale(1 1) rotate(0) translate(4 186)">
<title>proof</title>
<polygon fill="white" stroke="transparent" points="-4,4 -4,-186 180,-186 180,4 -4,4"/>
<g id="clust1" class="cluster">
<title>cluster_0</title>
<polygon fill="none" stroke="black" stroke-dasharray="1,5" points="8,-142 8,-174 152,-174 152,-142 8,-142"/>
</g>
<g id="clust2" class="cluster">
<title>cluster_1</title>
<polygon fill="none" stroke="black" stroke-width="2" points="48,-90 48,-122 128,-122 128,-90 48,-90"/>
</g>
<g id="clust3" class="cluster">
<title>cluster_2</title>
<polygon fill="none" stroke="black" stroke-dasharray="1,5" points="8,-8 8,-70 168,-70 168,-8 8,-8"/>
</g>
<!-- c_0_45 -->
<g id="node1" class="node">
<title>c_0_45</title>
<g id="a_node1"><a xlink:href="c_0_45.html" xlink:title="{ω ⊆ ℕ}" target="_parent">
<polygon fill="#f8edd1" stroke="#7f7542" points="98,-150.5 98,-165.5 144,-165.5 144,-150.5 98,-150.5"/>
<text text-anchor="middle" x="121" y="-154.3" font-family="Times,serif" font-size="14.00">ω ⊆ ℕ</text>
</a>
</g>
</g>
<!-- c_0_67 -->
<g id="node3" class="node">
<title>c_0_67</title>
<g id="a_node3"><a xlink:href="c_0_67.html" xlink:title="{NAT ⊆ ℕ}" target="_parent">
<polygon fill="#f8edd1" stroke="#7f7542" points="56,-98.5 56,-113.5 120,-113.5 120,-98.5 56,-98.5"/>
<text text-anchor="middle" x="88" y="-102.3" font-family="Times,serif" font-size="14.00">NAT ⊆ ℕ</text>
</a>
</g>
</g>
<!-- c_0_45&#45;&gt;c_0_67 -->
<g id="edge1" class="edge">
<title>c_0_45&#45;&gt;c_0_67</title>
<path fill="none" stroke="black" d="M109,-150.33C109,-150.33 109,-123.7 109,-123.7"/>
<polygon fill="black" stroke="black" points="112.5,-123.7 109,-113.7 105.5,-123.7 112.5,-123.7"/>
</g>
<!-- c_0_57 -->
<g id="node2" class="node">
<title>c_0_57</title>
<g id="a_node2"><a xlink:href="c_0_57.html" xlink:title="{ω = NAT}" target="_parent">
<polygon fill="#f8edd1" stroke="#7f7542" points="16.5,-150.5 16.5,-165.5 79.5,-165.5 79.5,-150.5 16.5,-150.5"/>
<text text-anchor="middle" x="48" y="-154.3" font-family="Times,serif" font-size="14.00">ω = NAT</text>
</a>
</g>
</g>
<!-- c_0_57&#45;&gt;c_0_67 -->
<g id="edge2" class="edge">
<title>c_0_57&#45;&gt;c_0_67</title>
<path fill="none" stroke="black" d="M67.75,-150.33C67.75,-150.33 67.75,-123.7 67.75,-123.7"/>
<polygon fill="black" stroke="black" points="71.25,-123.7 67.75,-113.7 64.25,-123.7 71.25,-123.7"/>
</g>
<!-- c_0_75 -->
<g id="node4" class="node">
<title>c_0_75</title>
<g id="a_node4"><a xlink:href="c_0_75.html" xlink:title="{2 ≤ N1|⇊|natural(esk4_1(N1))}" target="_parent">
<polygon fill="#f8edd1" stroke="#7f7542" points="16.5,-16.5 16.5,-61.5 159.5,-61.5 159.5,-16.5 16.5,-16.5"/>
<text text-anchor="middle" x="88" y="-50.3" font-family="Times,serif" font-size="14.00">2 ≤ N1</text>
<polyline fill="none" stroke="#7f7542" points="16.5,-46.5 159.5,-46.5 "/>
<text text-anchor="middle" x="88" y="-35.3" font-family="Times,serif" font-size="14.00">⇊</text>
<polyline fill="none" stroke="#7f7542" points="16.5,-31.5 159.5,-31.5 "/>
<text text-anchor="middle" x="88" y="-20.3" font-family="Times,serif" font-size="14.00">natural(esk4_1(N1))</text>
</a>
</g>
</g>
<!-- c_0_67&#45;&gt;c_0_75 -->
<g id="edge3" class="edge">
<title>c_0_67&#45;&gt;c_0_75</title>
<path fill="none" stroke="black" stroke-dasharray="5,2" d="M88,-98.31C88,-98.31 88,-71.76 88,-71.76"/>
<polygon fill="black" stroke="black" points="91.5,-71.76 88,-61.76 84.5,-71.76 91.5,-71.76"/>
</g>
</g>
</svg>
