<?xml version="1.0" encoding="UTF-8" standalone="no"?>
<!DOCTYPE svg PUBLIC "-//W3C//DTD SVG 1.1//EN"
 "http://www.w3.org/Graphics/SVG/1.1/DTD/svg11.dtd">
<!-- Generated by graphviz version 5.0.0 (0)
 -->
<!-- Title: proof Pages: 1 -->
<svg width="596pt" height="295pt"
 viewBox="0.00 0.00 596.00 295.00" xmlns="http://www.w3.org/2000/svg" xmlns:xlink="http://www.w3.org/1999/xlink">
<g id="graph0" class="graph" transform="scale(1 1) rotate(0) translate(4 291)">
<title>proof</title>
<polygon fill="white" stroke="transparent" points="-4,4 -4,-291 592,-291 592,4 -4,4"/>
<g id="clust1" class="cluster">
<title>cluster_0</title>
<polygon fill="none" stroke="black" stroke-dasharray="1,5" points="8,-187 8,-279 580,-279 580,-187 8,-187"/>
</g>
<g id="clust2" class="cluster">
<title>cluster_1</title>
<polygon fill="none" stroke="black" stroke-width="2" points="194,-90 194,-167 396,-167 396,-90 194,-90"/>
</g>
<g id="clust3" class="cluster">
<title>cluster_2</title>
<polygon fill="none" stroke="black" stroke-dasharray="1,5" points="194,-8 194,-70 396,-70 396,-8 194,-8"/>
</g>
<!-- c_0_97 -->
<g id="node1" class="node">
<title>c_0_97</title>
<g id="a_node1"><a xlink:href="c_0_97.html" xlink:title="{2 ≤ N₁|⇊|esk4_1(N₁) ≤ esk1_0}" target="_parent">
<polygon fill="#fa6900" stroke="#7f7542" points="424.5,-210.5 424.5,-255.5 571.5,-255.5 571.5,-210.5 424.5,-210.5"/>
<text text-anchor="middle" x="498" y="-244.3" font-family="Times,serif" font-size="14.00">2 ≤ N₁</text>
<polyline fill="none" stroke="#7f7542" points="424.5,-240.5 571.5,-240.5 "/>
<text text-anchor="middle" x="498" y="-229.3" font-family="Times,serif" font-size="14.00">⇊</text>
<polyline fill="none" stroke="#7f7542" points="424.5,-225.5 571.5,-225.5 "/>
<text text-anchor="middle" x="498" y="-214.3" font-family="Times,serif" font-size="14.00">esk4_1(N₁) ≤ esk1_0</text>
</a>
</g>
</g>
<!-- c_0_102 -->
<g id="node5" class="node">
<title>c_0_102</title>
<g id="a_node5"><a xlink:href="c_0_102.html" xlink:title="{2 ≤ ((esk1_0!) + 1)|⇊|esk4_1((esk1_0!) + 1) = 0|esk4_1((esk1_0!) + 1) = 1}" target="_parent">
<polygon fill="#fa6900" stroke="#7f7542" points="202.5,-98.5 202.5,-158.5 387.5,-158.5 387.5,-98.5 202.5,-98.5"/>
<text text-anchor="middle" x="295" y="-147.3" font-family="Times,serif" font-size="14.00">2 ≤ ((esk1_0!) + 1)</text>
<polyline fill="none" stroke="#7f7542" points="202.5,-143.5 387.5,-143.5 "/>
<text text-anchor="middle" x="295" y="-132.3" font-family="Times,serif" font-size="14.00">⇊</text>
<polyline fill="none" stroke="#7f7542" points="202.5,-128.5 387.5,-128.5 "/>
<text text-anchor="middle" x="295" y="-117.3" font-family="Times,serif" font-size="14.00">esk4_1((esk1_0!) + 1) = 0</text>
<polyline fill="none" stroke="#7f7542" points="202.5,-113.5 387.5,-113.5 "/>
<text text-anchor="middle" x="295" y="-102.3" font-family="Times,serif" font-size="14.00">esk4_1((esk1_0!) + 1) = 1</text>
</a>
</g>
</g>
<!-- c_0_97&#45;&gt;c_0_102 -->
<g id="edge1" class="edge">
<title>c_0_97&#45;&gt;c_0_102</title>
<path fill="none" stroke="black" d="M424.47,-217C394.31,-217 366.33,-217 366.33,-217 366.33,-217 366.33,-168.96 366.33,-168.96"/>
<polygon fill="black" stroke="black" points="369.83,-168.96 366.33,-158.96 362.83,-168.96 369.83,-168.96"/>
</g>
<!-- c_0_93 -->
<g id="node2" class="node">
<title>c_0_93</title>
<g id="a_node2"><a xlink:href="c_0_93.html" xlink:title="{esk1_0 ∈ ℕ}" target="_parent">
<polygon fill="#fa6900" stroke="#7f7542" points="324,-225.5 324,-240.5 406,-240.5 406,-225.5 324,-225.5"/>
<text text-anchor="middle" x="365" y="-229.3" font-family="Times,serif" font-size="14.00">esk1_0 ∈ ℕ</text>
</a>
</g>
</g>
<!-- c_0_93&#45;&gt;c_0_102 -->
<g id="edge2" class="edge">
<title>c_0_93&#45;&gt;c_0_102</title>
<path fill="none" stroke="black" d="M345.17,-225.48C345.17,-225.48 345.17,-168.79 345.17,-168.79"/>
<polygon fill="black" stroke="black" points="348.67,-168.79 345.17,-158.79 341.67,-168.79 348.67,-168.79"/>
</g>
<!-- c_0_89 -->
<g id="node3" class="node">
<title>c_0_89</title>
<g id="a_node3"><a xlink:href="c_0_89.html" xlink:title="{2 ≤ ((N₁!) + 1)|esk4_1((N₁!) + 1) ≤ N₁|⇊|esk4_1((N₁!) + 1) = 0|esk4_1((N₁!) + 1) = 1}" target="_parent">
<polygon fill="#f8edd1" stroke="#7f7542" points="144,-195.5 144,-270.5 306,-270.5 306,-195.5 144,-195.5"/>
<text text-anchor="middle" x="225" y="-259.3" font-family="Times,serif" font-size="14.00">2 ≤ ((N₁!) + 1)</text>
<polyline fill="none" stroke="#7f7542" points="144,-255.5 306,-255.5 "/>
<text text-anchor="middle" x="225" y="-244.3" font-family="Times,serif" font-size="14.00">esk4_1((N₁!) + 1) ≤ N₁</text>
<polyline fill="none" stroke="#7f7542" points="144,-240.5 306,-240.5 "/>
<text text-anchor="middle" x="225" y="-229.3" font-family="Times,serif" font-size="14.00">⇊</text>
<polyline fill="none" stroke="#7f7542" points="144,-225.5 306,-225.5 "/>
<text text-anchor="middle" x="225" y="-214.3" font-family="Times,serif" font-size="14.00">esk4_1((N₁!) + 1) = 0</text>
<polyline fill="none" stroke="#7f7542" points="144,-210.5 306,-210.5 "/>
<text text-anchor="middle" x="225" y="-199.3" font-family="Times,serif" font-size="14.00">esk4_1((N₁!) + 1) = 1</text>
</a>
</g>
</g>
<!-- c_0_89&#45;&gt;c_0_102 -->
<g id="edge3" class="edge">
<title>c_0_89&#45;&gt;c_0_102</title>
<path fill="none" stroke="black" d="M254.25,-195.27C254.25,-195.27 254.25,-168.64 254.25,-168.64"/>
<polygon fill="black" stroke="black" points="257.75,-168.64 254.25,-158.64 250.75,-168.64 257.75,-168.64"/>
</g>
<!-- c_0_55 -->
<g id="node4" class="node">
<title>c_0_55</title>
<g id="a_node4"><a xlink:href="c_0_55.html" xlink:title="{2 ≤ N₁|⇊|esk4_1(N₁) ∈ ℕ}" target="_parent">
<polygon fill="#f8edd1" stroke="#7f7542" points="16.5,-210.5 16.5,-255.5 125.5,-255.5 125.5,-210.5 16.5,-210.5"/>
<text text-anchor="middle" x="71" y="-244.3" font-family="Times,serif" font-size="14.00">2 ≤ N₁</text>
<polyline fill="none" stroke="#7f7542" points="16.5,-240.5 125.5,-240.5 "/>
<text text-anchor="middle" x="71" y="-229.3" font-family="Times,serif" font-size="14.00">⇊</text>
<polyline fill="none" stroke="#7f7542" points="16.5,-225.5 125.5,-225.5 "/>
<text text-anchor="middle" x="71" y="-214.3" font-family="Times,serif" font-size="14.00">esk4_1(N₁) ∈ ℕ</text>
</a>
</g>
</g>
<!-- c_0_55&#45;&gt;c_0_102 -->
<g id="edge4" class="edge">
<title>c_0_55&#45;&gt;c_0_102</title>
<path fill="none" stroke="black" d="M71,-210.47C71,-179.62 71,-128 71,-128 71,-128 192.27,-128 192.27,-128"/>
<polygon fill="black" stroke="black" points="192.27,-131.5 202.27,-128 192.27,-124.5 192.27,-131.5"/>
</g>
<!-- c_0_122 -->
<g id="node6" class="node">
<title>c_0_122</title>
<g id="a_node6"><a xlink:href="c_0_122.html" xlink:title="{2 ≤ ((esk1_0!) + 1)|⇊|esk4_1((esk1_0!) + 1) = 1}" target="_parent">
<polygon fill="#fa6900" stroke="#7f7542" points="202.5,-16.5 202.5,-61.5 387.5,-61.5 387.5,-16.5 202.5,-16.5"/>
<text text-anchor="middle" x="295" y="-50.3" font-family="Times,serif" font-size="14.00">2 ≤ ((esk1_0!) + 1)</text>
<polyline fill="none" stroke="#7f7542" points="202.5,-46.5 387.5,-46.5 "/>
<text text-anchor="middle" x="295" y="-35.3" font-family="Times,serif" font-size="14.00">⇊</text>
<polyline fill="none" stroke="#7f7542" points="202.5,-31.5 387.5,-31.5 "/>
<text text-anchor="middle" x="295" y="-20.3" font-family="Times,serif" font-size="14.00">esk4_1((esk1_0!) + 1) = 1</text>
</a>
</g>
</g>
<!-- c_0_102&#45;&gt;c_0_122 -->
<g id="edge5" class="edge">
<title>c_0_102&#45;&gt;c_0_122</title>
<path fill="none" stroke="black" stroke-dasharray="5,2" d="M295,-98.2C295,-98.2 295,-71.63 295,-71.63"/>
<polygon fill="black" stroke="black" points="298.5,-71.63 295,-61.63 291.5,-71.63 298.5,-71.63"/>
</g>
</g>
</svg>
