<?xml version="1.0" encoding="UTF-8" standalone="no"?>
<!DOCTYPE svg PUBLIC "-//W3C//DTD SVG 1.1//EN"
 "http://www.w3.org/Graphics/SVG/1.1/DTD/svg11.dtd">
<!-- Generated by graphviz version 5.0.0 (0)
 -->
<!-- Title: proof Pages: 1 -->
<svg width="275pt" height="190pt"
 viewBox="0.00 0.00 275.00 190.00" xmlns="http://www.w3.org/2000/svg" xmlns:xlink="http://www.w3.org/1999/xlink">
<g id="graph0" class="graph" transform="scale(1 1) rotate(0) translate(4 186)">
<title>proof</title>
<polygon fill="white" stroke="transparent" points="-4,4 -4,-186 271,-186 271,4 -4,4"/>
<g id="clust1" class="cluster">
<title>cluster_0</title>
<polygon fill="none" stroke="black" stroke-dasharray="1,5" points="8,-142 8,-174 132,-174 132,-142 8,-142"/>
</g>
<g id="clust2" class="cluster">
<title>cluster_1</title>
<polygon fill="none" stroke="black" stroke-width="2" points="32,-90 32,-122 108,-122 108,-90 32,-90"/>
</g>
<g id="clust3" class="cluster">
<title>cluster_2</title>
<polygon fill="none" stroke="black" stroke-dasharray="1,5" points="17,-8 17,-70 259,-70 259,-8 17,-8"/>
</g>
<!-- spc1_numerals -->
<g id="node1" class="node">
<title>spc1_numerals</title>
<g id="a_node1"><a xlink:href="http://grid01.ciirc.cvut.cz/~mptp/7.13.01_4.181.1147/html/numerals.html#SPC1" xlink:title="spc1_numerals" target="_blank">
<polygon fill="#69d2e7" stroke="#7f7542" points="16.5,-150.5 16.5,-165.5 123.5,-165.5 123.5,-150.5 16.5,-150.5"/>
<text text-anchor="middle" x="70" y="-154.3" font-family="Times,serif" font-size="14.00">spc1_numerals</text>
</a>
</g>
</g>
<!-- c_0_106 -->
<g id="node2" class="node">
<title>c_0_106</title>
<g id="a_node2"><a xlink:href="c_0_106.html" xlink:title="{1 ∈ NAT}" target="_parent">
<polygon fill="#f8edd1" stroke="#7f7542" points="40.5,-98.5 40.5,-113.5 99.5,-113.5 99.5,-98.5 40.5,-98.5"/>
<text text-anchor="middle" x="70" y="-102.3" font-family="Times,serif" font-size="14.00">1 ∈ NAT</text>
</a>
</g>
</g>
<!-- spc1_numerals&#45;&gt;c_0_106 -->
<g id="edge1" class="edge">
<title>spc1_numerals&#45;&gt;c_0_106</title>
<path fill="none" stroke="black" d="M70,-150.33C70,-150.33 70,-123.7 70,-123.7"/>
<polygon fill="black" stroke="black" points="73.5,-123.7 70,-113.7 66.5,-123.7 73.5,-123.7"/>
</g>
<!-- c_0_135 -->
<g id="node3" class="node">
<title>c_0_135</title>
<g id="a_node3"><a xlink:href="c_0_135.html" xlink:title="{2 ≤ ((esk1_0!) + 1)|⇊|⊥}" target="_parent">
<polygon fill="#fa6900" stroke="#7f7542" points="115,-16.5 115,-61.5 251,-61.5 251,-16.5 115,-16.5"/>
<text text-anchor="middle" x="183" y="-50.3" font-family="Times,serif" font-size="14.00">2 ≤ ((esk1_0!) + 1)</text>
<polyline fill="none" stroke="#7f7542" points="115,-46.5 251,-46.5 "/>
<text text-anchor="middle" x="183" y="-35.3" font-family="Times,serif" font-size="14.00">⇊</text>
<polyline fill="none" stroke="#7f7542" points="115,-31.5 251,-31.5 "/>
<text text-anchor="middle" x="183" y="-20.3" font-family="Times,serif" font-size="14.00">⊥</text>
</a>
</g>
</g>
<!-- c_0_106&#45;&gt;c_0_135 -->
<g id="edge2" class="edge">
<title>c_0_106&#45;&gt;c_0_135</title>
<path fill="none" stroke="black" stroke-dasharray="5,2" d="M99.5,-106C109.99,-106 119.25,-106 119.25,-106 119.25,-106 119.25,-71.68 119.25,-71.68"/>
<polygon fill="black" stroke="black" points="122.75,-71.68 119.25,-61.68 115.75,-71.68 122.75,-71.68"/>
</g>
<!-- c_0_124 -->
<g id="node4" class="node">
<title>c_0_124</title>
<g id="a_node4"><a xlink:href="c_0_124.html" xlink:title="{natural(1)}" target="_parent">
<polygon fill="#f8edd1" stroke="#7f7542" points="25,-31.5 25,-46.5 97,-46.5 97,-31.5 25,-31.5"/>
<text text-anchor="middle" x="61" y="-35.3" font-family="Times,serif" font-size="14.00">natural(1)</text>
</a>
</g>
</g>
<!-- c_0_106&#45;&gt;c_0_124 -->
<g id="edge3" class="edge">
<title>c_0_106&#45;&gt;c_0_124</title>
<path fill="none" stroke="black" stroke-dasharray="5,2" d="M68.75,-98.31C68.75,-98.31 68.75,-56.6 68.75,-56.6"/>
<polygon fill="black" stroke="black" points="72.25,-56.6 68.75,-46.6 65.25,-56.6 72.25,-56.6"/>
</g>
</g>
</svg>
