<?xml version="1.0" encoding="UTF-8" standalone="no"?>
<!DOCTYPE svg PUBLIC "-//W3C//DTD SVG 1.1//EN"
 "http://www.w3.org/Graphics/SVG/1.1/DTD/svg11.dtd">
<!-- Generated by graphviz version 5.0.0 (0)
 -->
<!-- Title: proof Pages: 1 -->
<svg width="206pt" height="205pt"
 viewBox="0.00 0.00 206.00 205.00" xmlns="http://www.w3.org/2000/svg" xmlns:xlink="http://www.w3.org/1999/xlink">
<g id="graph0" class="graph" transform="scale(1 1) rotate(0) translate(4 201)">
<title>proof</title>
<g id="clust1" class="cluster">
<title>cluster_0</title>
<polygon fill="transparent" stroke="black" stroke-dasharray="1,5" points="8,-157 8,-189 190,-189 190,-157 8,-157"/>
</g>
<g id="clust2" class="cluster">
<title>cluster_1</title>
<polygon fill="transparent" stroke="black" stroke-width="2" points="57,-105 57,-137 141,-137 141,-105 57,-105"/>
</g>
<g id="clust3" class="cluster">
<title>cluster_2</title>
<polygon fill="transparent" stroke="black" stroke-dasharray="1,5" points="17,-8 17,-85 169,-85 169,-8 17,-8"/>
</g>
<!-- redefinition_k9_newton -->
<g id="node1" class="node">
<title>redefinition_k9_newton</title>
<g id="a_node1"><a xlink:href="redefinition_k9_newton.html" xlink:title="redefinition_k9_newton" target="_vizar">
<polygon fill="#69d2e7" stroke="#7f7542" points="16,-165.5 16,-180.5 182,-180.5 182,-165.5 16,-165.5"/>
<text text-anchor="middle" x="99" y="-169.3" font-family="Times,serif" font-size="14.00">redefinition_k9_newton</text>
</a>
</g>
</g>
<!-- c_0_74 -->
<g id="node2" class="node">
<title>c_0_74</title>
<g id="a_node2"><a xlink:href="c_0_74.html" xlink:title="{N₁! = N₁!}" target="_vizar">
<polygon fill="#f8edd1" stroke="#7f7542" points="65,-113.5 65,-128.5 133,-128.5 133,-113.5 65,-113.5"/>
<text text-anchor="middle" x="99" y="-117.3" font-family="Times,serif" font-size="14.00">N₁! = N₁!</text>
</a>
</g>
</g>
<!-- redefinition_k9_newton&#45;&gt;c_0_74 -->
<g id="edge1" class="edge">
<title>redefinition_k9_newton&#45;&gt;c_0_74</title>
<path fill="none" stroke="black" d="M99,-165.33C99,-165.33 99,-138.7 99,-138.7"/>
<polygon fill="black" stroke="black" points="102.5,-138.7 99,-128.7 95.5,-138.7 102.5,-138.7"/>
</g>
<!-- c_0_124 -->
<g id="node3" class="node">
<title>c_0_124</title>
<g id="a_node3"><a xlink:href="c_0_124.html" xlink:title="{N₁ ≤ N₁!}" target="_vizar">
<polygon fill="#f8edd1" stroke="#7f7542" points="99,-39 99,-54 161,-54 161,-39 99,-39"/>
<text text-anchor="middle" x="130" y="-42.8" font-family="Times,serif" font-size="14.00">N₁ ≤ N₁!</text>
</a>
</g>
</g>
<!-- c_0_74&#45;&gt;c_0_124 -->
<g id="edge2" class="edge">
<title>c_0_74&#45;&gt;c_0_124</title>
<path fill="none" stroke="black" stroke-dasharray="5,2" d="M116,-113.31C116,-113.31 116,-64.26 116,-64.26"/>
<polygon fill="black" stroke="black" points="119.5,-64.26 116,-54.26 112.5,-64.26 119.5,-64.26"/>
</g>
<!-- c_0_61 -->
<g id="node4" class="node">
<title>c_0_61</title>
<g id="a_node4"><a xlink:href="c_0_61.html" xlink:title="{N₁ ≤ N₂|⇊|N₁ = 0|N₁ । N₂!}" target="_vizar">
<polygon fill="#f8edd1" stroke="#7f7542" points="25,-16.5 25,-76.5 81,-76.5 81,-16.5 25,-16.5"/>
<text text-anchor="middle" x="53" y="-65.3" font-family="Times,serif" font-size="14.00">N₁ ≤ N₂</text>
<polyline fill="none" stroke="#7f7542" points="25,-61.5 81,-61.5 "/>
<text text-anchor="middle" x="53" y="-50.3" font-family="Times,serif" font-size="14.00">⇊</text>
<polyline fill="none" stroke="#7f7542" points="25,-46.5 81,-46.5 "/>
<text text-anchor="middle" x="53" y="-35.3" font-family="Times,serif" font-size="14.00">N₁ = 0</text>
<polyline fill="none" stroke="#7f7542" points="25,-31.5 81,-31.5 "/>
<text text-anchor="middle" x="53" y="-20.3" font-family="Times,serif" font-size="14.00">N₁ । N₂!</text>
</a>
</g>
</g>
<!-- c_0_74&#45;&gt;c_0_61 -->
<g id="edge3" class="edge">
<title>c_0_74&#45;&gt;c_0_61</title>
<path fill="none" stroke="black" stroke-dasharray="5,2" d="M73,-113.31C73,-113.31 73,-86.51 73,-86.51"/>
<polygon fill="black" stroke="black" points="76.5,-86.51 73,-76.51 69.5,-86.51 76.5,-86.51"/>
</g>
</g>
</svg>
