<?xml version="1.0" encoding="UTF-8" standalone="no"?>
<!DOCTYPE svg PUBLIC "-//W3C//DTD SVG 1.1//EN"
 "http://www.w3.org/Graphics/SVG/1.1/DTD/svg11.dtd">
<!-- Generated by graphviz version 5.0.0 (0)
 -->
<!-- Title: proof Pages: 1 -->
<svg width="468pt" height="310pt"
 viewBox="0.00 0.00 468.00 310.00" xmlns="http://www.w3.org/2000/svg" xmlns:xlink="http://www.w3.org/1999/xlink">
<g id="graph0" class="graph" transform="scale(1 1) rotate(0) translate(4 306)">
<title>proof</title>
<g id="clust1" class="cluster">
<title>cluster_0</title>
<polygon fill="transparent" stroke="black" stroke-dasharray="1,5" points="8,-217 8,-294 452,-294 452,-217 8,-217"/>
</g>
<g id="clust2" class="cluster">
<title>cluster_1</title>
<polygon fill="transparent" stroke="black" stroke-width="2" points="189,-105 189,-197 375,-197 375,-105 189,-105"/>
</g>
<g id="clust3" class="cluster">
<title>cluster_2</title>
<polygon fill="transparent" stroke="black" stroke-dasharray="1,5" points="174,-8 174,-85 390,-85 390,-8 174,-8"/>
</g>
<!-- c_0_82 -->
<g id="node1" class="node">
<title>c_0_82</title>
<g id="a_node1"><a xlink:href="c_0_82.html" xlink:title="{N₁ ≤ N₂|⇊|N₁ = 0|N₁ । N₂!}" target="_parent">
<polygon fill="#f8edd1" stroke="#7f7542" points="388,-225.5 388,-285.5 444,-285.5 444,-225.5 388,-225.5"/>
<text text-anchor="middle" x="416" y="-274.3" font-family="Times,serif" font-size="14.00">N₁ ≤ N₂</text>
<polyline fill="none" stroke="#7f7542" points="388,-270.5 444,-270.5 "/>
<text text-anchor="middle" x="416" y="-259.3" font-family="Times,serif" font-size="14.00">⇊</text>
<polyline fill="none" stroke="#7f7542" points="388,-255.5 444,-255.5 "/>
<text text-anchor="middle" x="416" y="-244.3" font-family="Times,serif" font-size="14.00">N₁ = 0</text>
<polyline fill="none" stroke="#7f7542" points="388,-240.5 444,-240.5 "/>
<text text-anchor="middle" x="416" y="-229.3" font-family="Times,serif" font-size="14.00">N₁ । N₂!</text>
</a>
</g>
</g>
<!-- c_0_89 -->
<g id="node5" class="node">
<title>c_0_89</title>
<g id="a_node5"><a xlink:href="c_0_89.html" xlink:title="{2 ≤ (N₁!) + 1|skolem₄((N₁!) + 1) ≤ N₁|⇊|skolem₄((N₁!) + 1) = 0|skolem₄((N₁!) + 1) = 1}" target="_parent">
<polygon fill="#f8edd1" stroke="#7f7542" points="197.5,-113.5 197.5,-188.5 366.5,-188.5 366.5,-113.5 197.5,-113.5"/>
<text text-anchor="middle" x="282" y="-177.3" font-family="Times,serif" font-size="14.00">2 ≤ (N₁!) + 1</text>
<polyline fill="none" stroke="#7f7542" points="197.5,-173.5 366.5,-173.5 "/>
<text text-anchor="middle" x="282" y="-162.3" font-family="Times,serif" font-size="14.00">skolem₄((N₁!) + 1) ≤ N₁</text>
<polyline fill="none" stroke="#7f7542" points="197.5,-158.5 366.5,-158.5 "/>
<text text-anchor="middle" x="282" y="-147.3" font-family="Times,serif" font-size="14.00">⇊</text>
<polyline fill="none" stroke="#7f7542" points="197.5,-143.5 366.5,-143.5 "/>
<text text-anchor="middle" x="282" y="-132.3" font-family="Times,serif" font-size="14.00">skolem₄((N₁!) + 1) = 0</text>
<polyline fill="none" stroke="#7f7542" points="197.5,-128.5 366.5,-128.5 "/>
<text text-anchor="middle" x="282" y="-117.3" font-family="Times,serif" font-size="14.00">skolem₄((N₁!) + 1) = 1</text>
</a>
</g>
</g>
<!-- c_0_82&#45;&gt;c_0_89 -->
<g id="edge1" class="edge">
<title>c_0_82&#45;&gt;c_0_89</title>
<path fill="none" stroke="black" d="M387.97,-236C369.61,-236 349,-236 349,-236 349,-236 349,-198.53 349,-198.53"/>
<polygon fill="black" stroke="black" points="352.5,-198.53 349,-188.53 345.5,-198.53 352.5,-198.53"/>
</g>
<!-- c_0_78 -->
<g id="node2" class="node">
<title>c_0_78</title>
<g id="a_node2"><a xlink:href="c_0_78.html" xlink:title="{N₁! ∈ ℕ}" target="_parent">
<polygon fill="#f8edd1" stroke="#7f7542" points="314,-248 314,-263 370,-263 370,-248 314,-248"/>
<text text-anchor="middle" x="342" y="-251.8" font-family="Times,serif" font-size="14.00">N₁! ∈ ℕ</text>
</a>
</g>
</g>
<!-- c_0_78&#45;&gt;c_0_89 -->
<g id="edge2" class="edge">
<title>c_0_78&#45;&gt;c_0_89</title>
<path fill="none" stroke="black" d="M331.5,-247.98C331.5,-247.98 331.5,-198.52 331.5,-198.52"/>
<polygon fill="black" stroke="black" points="335,-198.52 331.5,-188.52 328,-198.52 335,-198.52"/>
</g>
<!-- c_0_74 -->
<g id="node3" class="node">
<title>c_0_74</title>
<g id="a_node3"><a xlink:href="c_0_74.html" xlink:title="{2 ≤ N₁ + 1|skolem₄(N₁ + 1) । N₁|⇊|skolem₄(N₁ + 1) = 1}" target="_parent">
<polygon fill="#f8edd1" stroke="#7f7542" points="150.5,-225.5 150.5,-285.5 295.5,-285.5 295.5,-225.5 150.5,-225.5"/>
<text text-anchor="middle" x="223" y="-274.3" font-family="Times,serif" font-size="14.00">2 ≤ N₁ + 1</text>
<polyline fill="none" stroke="#7f7542" points="150.5,-270.5 295.5,-270.5 "/>
<text text-anchor="middle" x="223" y="-259.3" font-family="Times,serif" font-size="14.00">skolem₄(N₁ + 1) । N₁</text>
<polyline fill="none" stroke="#7f7542" points="150.5,-255.5 295.5,-255.5 "/>
<text text-anchor="middle" x="223" y="-244.3" font-family="Times,serif" font-size="14.00">⇊</text>
<polyline fill="none" stroke="#7f7542" points="150.5,-240.5 295.5,-240.5 "/>
<text text-anchor="middle" x="223" y="-229.3" font-family="Times,serif" font-size="14.00">skolem₄(N₁ + 1) = 1</text>
</a>
</g>
</g>
<!-- c_0_74&#45;&gt;c_0_89 -->
<g id="edge3" class="edge">
<title>c_0_74&#45;&gt;c_0_89</title>
<path fill="none" stroke="black" d="M246.5,-225.27C246.5,-225.27 246.5,-198.59 246.5,-198.59"/>
<polygon fill="black" stroke="black" points="250,-198.59 246.5,-188.59 243,-198.59 250,-198.59"/>
</g>
<!-- c_0_55 -->
<g id="node4" class="node">
<title>c_0_55</title>
<g id="a_node4"><a xlink:href="c_0_55.html" xlink:title="{2 ≤ N₁|⇊|skolem₄(N₁) ∈ ℕ}" target="_parent">
<polygon fill="#f8edd1" stroke="#7f7542" points="16,-233 16,-278 132,-278 132,-233 16,-233"/>
<text text-anchor="middle" x="74" y="-266.8" font-family="Times,serif" font-size="14.00">2 ≤ N₁</text>
<polyline fill="none" stroke="#7f7542" points="16,-263 132,-263 "/>
<text text-anchor="middle" x="74" y="-251.8" font-family="Times,serif" font-size="14.00">⇊</text>
<polyline fill="none" stroke="#7f7542" points="16,-248 132,-248 "/>
<text text-anchor="middle" x="74" y="-236.8" font-family="Times,serif" font-size="14.00">skolem₄(N₁) ∈ ℕ</text>
</a>
</g>
</g>
<!-- c_0_55&#45;&gt;c_0_89 -->
<g id="edge4" class="edge">
<title>c_0_55&#45;&gt;c_0_89</title>
<path fill="none" stroke="black" d="M74,-232.83C74,-202.09 74,-151 74,-151 74,-151 187.4,-151 187.4,-151"/>
<polygon fill="black" stroke="black" points="187.4,-154.5 197.4,-151 187.4,-147.5 187.4,-154.5"/>
</g>
<!-- c_0_102 -->
<g id="node6" class="node">
<title>c_0_102</title>
<g id="a_node6"><a xlink:href="c_0_102.html" xlink:title="{2 ≤ (skolem₁!) + 1|⇊|skolem₄((skolem₁!) + 1) = 0|skolem₄((skolem₁!) + 1) = 1}" target="_parent">
<polygon fill="#fa6900" stroke="#7f7542" points="182.5,-16.5 182.5,-76.5 381.5,-76.5 381.5,-16.5 182.5,-16.5"/>
<text text-anchor="middle" x="282" y="-65.3" font-family="Times,serif" font-size="14.00">2 ≤ (skolem₁!) + 1</text>
<polyline fill="none" stroke="#7f7542" points="182.5,-61.5 381.5,-61.5 "/>
<text text-anchor="middle" x="282" y="-50.3" font-family="Times,serif" font-size="14.00">⇊</text>
<polyline fill="none" stroke="#7f7542" points="182.5,-46.5 381.5,-46.5 "/>
<text text-anchor="middle" x="282" y="-35.3" font-family="Times,serif" font-size="14.00">skolem₄((skolem₁!) + 1) = 0</text>
<polyline fill="none" stroke="#7f7542" points="182.5,-31.5 381.5,-31.5 "/>
<text text-anchor="middle" x="282" y="-20.3" font-family="Times,serif" font-size="14.00">skolem₄((skolem₁!) + 1) = 1</text>
</a>
</g>
</g>
<!-- c_0_89&#45;&gt;c_0_102 -->
<g id="edge5" class="edge">
<title>c_0_89&#45;&gt;c_0_102</title>
<path fill="none" stroke="black" stroke-dasharray="5,2" d="M282,-113.27C282,-113.27 282,-86.64 282,-86.64"/>
<polygon fill="black" stroke="black" points="285.5,-86.64 282,-76.64 278.5,-86.64 285.5,-86.64"/>
</g>
</g>
</svg>
