<?xml version="1.0" encoding="UTF-8" standalone="no"?>
<!DOCTYPE svg PUBLIC "-//W3C//DTD SVG 1.1//EN"
 "http://www.w3.org/Graphics/SVG/1.1/DTD/svg11.dtd">
<!-- Generated by graphviz version 5.0.0 (0)
 -->
<!-- Title: proof Pages: 1 -->
<svg width="166pt" height="295pt"
 viewBox="0.00 0.00 166.00 295.00" xmlns="http://www.w3.org/2000/svg" xmlns:xlink="http://www.w3.org/1999/xlink">
<g id="graph0" class="graph" transform="scale(1 1) rotate(0) translate(4 291)">
<title>proof</title>
<polygon fill="white" stroke="transparent" points="-4,4 -4,-291 162,-291 162,4 -4,4"/>
<g id="clust1" class="cluster">
<title>cluster_0</title>
<polygon fill="none" stroke="black" stroke-dasharray="1,5" points="8,-202 8,-279 150,-279 150,-202 8,-202"/>
</g>
<g id="clust2" class="cluster">
<title>cluster_1</title>
<polygon fill="none" stroke="black" stroke-width="2" points="35,-105 35,-182 117,-182 117,-105 35,-105"/>
</g>
<g id="clust3" class="cluster">
<title>cluster_2</title>
<polygon fill="none" stroke="black" stroke-dasharray="1,5" points="24,-8 24,-85 128,-85 128,-8 24,-8"/>
</g>
<!-- c_0_48 -->
<g id="node1" class="node">
<title>c_0_48</title>
<g id="a_node1"><a xlink:href="c_0_48.html" xlink:title="{0 = Ø}" target="_parent">
<polygon fill="#f8edd1" stroke="#7f7542" points="100,-233 100,-248 142,-248 142,-233 100,-233"/>
<text text-anchor="middle" x="121" y="-236.8" font-family="Times,serif" font-size="14.00">0 = Ø</text>
</a>
</g>
</g>
<!-- c_0_68 -->
<g id="node3" class="node">
<title>c_0_68</title>
<g id="a_node3"><a xlink:href="c_0_68.html" xlink:title="{N₁ ≤ N₂|⇊|N₁ = Ø|N₁ । (N₂!)}" target="_parent">
<polygon fill="#f8edd1" stroke="#7f7542" points="43,-113.5 43,-173.5 109,-173.5 109,-113.5 43,-113.5"/>
<text text-anchor="middle" x="76" y="-162.3" font-family="Times,serif" font-size="14.00">N₁ ≤ N₂</text>
<polyline fill="none" stroke="#7f7542" points="43,-158.5 109,-158.5 "/>
<text text-anchor="middle" x="76" y="-147.3" font-family="Times,serif" font-size="14.00">⇊</text>
<polyline fill="none" stroke="#7f7542" points="43,-143.5 109,-143.5 "/>
<text text-anchor="middle" x="76" y="-132.3" font-family="Times,serif" font-size="14.00">N₁ = Ø</text>
<polyline fill="none" stroke="#7f7542" points="43,-128.5 109,-128.5 "/>
<text text-anchor="middle" x="76" y="-117.3" font-family="Times,serif" font-size="14.00">N₁ । (N₂!)</text>
</a>
</g>
</g>
<!-- c_0_48&#45;&gt;c_0_68 -->
<g id="edge1" class="edge">
<title>c_0_48&#45;&gt;c_0_68</title>
<path fill="none" stroke="black" d="M104.5,-232.89C104.5,-232.89 104.5,-183.78 104.5,-183.78"/>
<polygon fill="black" stroke="black" points="108,-183.78 104.5,-173.78 101,-183.78 108,-183.78"/>
</g>
<!-- c_0_47 -->
<g id="node2" class="node">
<title>c_0_47</title>
<g id="a_node2"><a xlink:href="c_0_47.html" xlink:title="{N₁ ≤ N₂|⇊|N₁ = 0|N₁ । (N₂!)}" target="_parent">
<polygon fill="#f8edd1" stroke="#7f7542" points="16,-210.5 16,-270.5 82,-270.5 82,-210.5 16,-210.5"/>
<text text-anchor="middle" x="49" y="-259.3" font-family="Times,serif" font-size="14.00">N₁ ≤ N₂</text>
<polyline fill="none" stroke="#7f7542" points="16,-255.5 82,-255.5 "/>
<text text-anchor="middle" x="49" y="-244.3" font-family="Times,serif" font-size="14.00">⇊</text>
<polyline fill="none" stroke="#7f7542" points="16,-240.5 82,-240.5 "/>
<text text-anchor="middle" x="49" y="-229.3" font-family="Times,serif" font-size="14.00">N₁ = 0</text>
<polyline fill="none" stroke="#7f7542" points="16,-225.5 82,-225.5 "/>
<text text-anchor="middle" x="49" y="-214.3" font-family="Times,serif" font-size="14.00">N₁ । (N₂!)</text>
</a>
</g>
</g>
<!-- c_0_47&#45;&gt;c_0_68 -->
<g id="edge2" class="edge">
<title>c_0_47&#45;&gt;c_0_68</title>
<path fill="none" stroke="black" d="M62.5,-210.34C62.5,-210.34 62.5,-183.64 62.5,-183.64"/>
<polygon fill="black" stroke="black" points="66,-183.64 62.5,-173.64 59,-183.64 66,-183.64"/>
</g>
<!-- c_0_76 -->
<g id="node4" class="node">
<title>c_0_76</title>
<g id="a_node4"><a xlink:href="c_0_76.html" xlink:title="{N₁ ≤ N₂|⇊|N₁ = esk3_0|N₁ । (N₂!)}" target="_parent">
<polygon fill="#f8edd1" stroke="#7f7542" points="32,-16.5 32,-76.5 120,-76.5 120,-16.5 32,-16.5"/>
<text text-anchor="middle" x="76" y="-65.3" font-family="Times,serif" font-size="14.00">N₁ ≤ N₂</text>
<polyline fill="none" stroke="#7f7542" points="32,-61.5 120,-61.5 "/>
<text text-anchor="middle" x="76" y="-50.3" font-family="Times,serif" font-size="14.00">⇊</text>
<polyline fill="none" stroke="#7f7542" points="32,-46.5 120,-46.5 "/>
<text text-anchor="middle" x="76" y="-35.3" font-family="Times,serif" font-size="14.00">N₁ = esk3_0</text>
<polyline fill="none" stroke="#7f7542" points="32,-31.5 120,-31.5 "/>
<text text-anchor="middle" x="76" y="-20.3" font-family="Times,serif" font-size="14.00">N₁ । (N₂!)</text>
</a>
</g>
</g>
<!-- c_0_68&#45;&gt;c_0_76 -->
<g id="edge3" class="edge">
<title>c_0_68&#45;&gt;c_0_76</title>
<path fill="none" stroke="black" stroke-dasharray="5,2" d="M76,-113.34C76,-113.34 76,-86.64 76,-86.64"/>
<polygon fill="black" stroke="black" points="79.5,-86.64 76,-76.64 72.5,-86.64 79.5,-86.64"/>
</g>
</g>
</svg>
