<?xml version="1.0" encoding="UTF-8" standalone="no"?>
<!DOCTYPE svg PUBLIC "-//W3C//DTD SVG 1.1//EN"
 "http://www.w3.org/Graphics/SVG/1.1/DTD/svg11.dtd">
<!-- Generated by graphviz version 5.0.0 (0)
 -->
<!-- Title: proof Pages: 1 -->
<svg width="180pt" height="310pt"
 viewBox="0.00 0.00 180.00 310.00" xmlns="http://www.w3.org/2000/svg" xmlns:xlink="http://www.w3.org/1999/xlink">
<g id="graph0" class="graph" transform="scale(1 1) rotate(0) translate(4 306)">
<title>proof</title>
<g id="clust1" class="cluster">
<title>cluster_0</title>
<polygon fill="transparent" stroke="black" stroke-dasharray="1,5" points="8,-217 8,-294 154,-294 154,-217 8,-217"/>
</g>
<g id="clust2" class="cluster">
<title>cluster_1</title>
<polygon fill="transparent" stroke="black" stroke-width="2" points="53,-120 53,-197 125,-197 125,-120 53,-120"/>
</g>
<g id="clust3" class="cluster">
<title>cluster_2</title>
<polygon fill="transparent" stroke="black" stroke-dasharray="1,5" points="14,-8 14,-100 164,-100 164,-8 14,-8"/>
</g>
<!-- c_0_76 -->
<g id="node1" class="node">
<title>c_0_76</title>
<g id="a_node1"><a xlink:href="c_0_76.html" xlink:title="{N₁ ≤ N₂|⇊|N₁ = sk₃|N₁ । N₂!}" target="_parent">
<polygon fill="#f8edd1" stroke="#7f7542" points="86,-225.5 86,-285.5 146,-285.5 146,-225.5 86,-225.5"/>
<text text-anchor="middle" x="116" y="-274.3" font-family="Times,serif" font-size="14.00">N₁ ≤ N₂</text>
<polyline fill="none" stroke="#7f7542" points="86,-270.5 146,-270.5 "/>
<text text-anchor="middle" x="116" y="-259.3" font-family="Times,serif" font-size="14.00">⇊</text>
<polyline fill="none" stroke="#7f7542" points="86,-255.5 146,-255.5 "/>
<text text-anchor="middle" x="116" y="-244.3" font-family="Times,serif" font-size="14.00">N₁ = sk₃</text>
<polyline fill="none" stroke="#7f7542" points="86,-240.5 146,-240.5 "/>
<text text-anchor="middle" x="116" y="-229.3" font-family="Times,serif" font-size="14.00">N₁ । N₂!</text>
</a>
</g>
</g>
<!-- c_0_82 -->
<g id="node3" class="node">
<title>c_0_82</title>
<g id="a_node3"><a xlink:href="c_0_82.html" xlink:title="{N₁ ≤ N₂|⇊|N₁ = 0|N₁ । N₂!}" target="_parent">
<polygon fill="#f8edd1" stroke="#7f7542" points="61,-128.5 61,-188.5 117,-188.5 117,-128.5 61,-128.5"/>
<text text-anchor="middle" x="89" y="-177.3" font-family="Times,serif" font-size="14.00">N₁ ≤ N₂</text>
<polyline fill="none" stroke="#7f7542" points="61,-173.5 117,-173.5 "/>
<text text-anchor="middle" x="89" y="-162.3" font-family="Times,serif" font-size="14.00">⇊</text>
<polyline fill="none" stroke="#7f7542" points="61,-158.5 117,-158.5 "/>
<text text-anchor="middle" x="89" y="-147.3" font-family="Times,serif" font-size="14.00">N₁ = 0</text>
<polyline fill="none" stroke="#7f7542" points="61,-143.5 117,-143.5 "/>
<text text-anchor="middle" x="89" y="-132.3" font-family="Times,serif" font-size="14.00">N₁ । N₂!</text>
</a>
</g>
</g>
<!-- c_0_76&#45;&gt;c_0_82 -->
<g id="edge1" class="edge">
<title>c_0_76&#45;&gt;c_0_82</title>
<path fill="none" stroke="black" d="M101.5,-225.34C101.5,-225.34 101.5,-198.64 101.5,-198.64"/>
<polygon fill="black" stroke="black" points="105,-198.64 101.5,-188.64 98,-198.64 105,-198.64"/>
</g>
<!-- c_0_77 -->
<g id="node2" class="node">
<title>c_0_77</title>
<g id="a_node2"><a xlink:href="c_0_77.html" xlink:title="{sk₃ = 0}" target="_parent">
<polygon fill="#f8edd1" stroke="#7f7542" points="16,-248 16,-263 68,-263 68,-248 16,-248"/>
<text text-anchor="middle" x="42" y="-251.8" font-family="Times,serif" font-size="14.00">sk₃ = 0</text>
</a>
</g>
</g>
<!-- c_0_77&#45;&gt;c_0_82 -->
<g id="edge2" class="edge">
<title>c_0_77&#45;&gt;c_0_82</title>
<path fill="none" stroke="black" d="M64.5,-247.89C64.5,-247.89 64.5,-198.78 64.5,-198.78"/>
<polygon fill="black" stroke="black" points="68,-198.78 64.5,-188.78 61,-198.78 68,-198.78"/>
</g>
<!-- c_0_89 -->
<g id="node4" class="node">
<title>c_0_89</title>
<g id="a_node4"><a xlink:href="c_0_89.html" xlink:title="{2 ≤ (N₁!) + 1|sk₄((N₁!) + 1) ≤ N₁|⇊|sk₄((N₁!) + 1) = 0|sk₄((N₁!) + 1) = 1}" target="_parent">
<polygon fill="#f8edd1" stroke="#7f7542" points="22,-16.5 22,-91.5 156,-91.5 156,-16.5 22,-16.5"/>
<text text-anchor="middle" x="89" y="-80.3" font-family="Times,serif" font-size="14.00">2 ≤ (N₁!) + 1</text>
<polyline fill="none" stroke="#7f7542" points="22,-76.5 156,-76.5 "/>
<text text-anchor="middle" x="89" y="-65.3" font-family="Times,serif" font-size="14.00">sk₄((N₁!) + 1) ≤ N₁</text>
<polyline fill="none" stroke="#7f7542" points="22,-61.5 156,-61.5 "/>
<text text-anchor="middle" x="89" y="-50.3" font-family="Times,serif" font-size="14.00">⇊</text>
<polyline fill="none" stroke="#7f7542" points="22,-46.5 156,-46.5 "/>
<text text-anchor="middle" x="89" y="-35.3" font-family="Times,serif" font-size="14.00">sk₄((N₁!) + 1) = 0</text>
<polyline fill="none" stroke="#7f7542" points="22,-31.5 156,-31.5 "/>
<text text-anchor="middle" x="89" y="-20.3" font-family="Times,serif" font-size="14.00">sk₄((N₁!) + 1) = 1</text>
</a>
</g>
</g>
<!-- c_0_82&#45;&gt;c_0_89 -->
<g id="edge3" class="edge">
<title>c_0_82&#45;&gt;c_0_89</title>
<path fill="none" stroke="black" stroke-dasharray="5,2" d="M89,-128.27C89,-128.27 89,-101.59 89,-101.59"/>
<polygon fill="black" stroke="black" points="92.5,-101.59 89,-91.59 85.5,-101.59 92.5,-101.59"/>
</g>
</g>
</svg>
