<?xml version="1.0" encoding="UTF-8" standalone="no"?>
<!DOCTYPE svg PUBLIC "-//W3C//DTD SVG 1.1//EN"
 "http://www.w3.org/Graphics/SVG/1.1/DTD/svg11.dtd">
<!-- Generated by graphviz version 5.0.0 (0)
 -->
<!-- Title: proof Pages: 1 -->
<svg width="280pt" height="250pt"
 viewBox="0.00 0.00 280.00 250.00" xmlns="http://www.w3.org/2000/svg" xmlns:xlink="http://www.w3.org/1999/xlink">
<g id="graph0" class="graph" transform="scale(1 1) rotate(0) translate(4 246)">
<title>proof</title>
<polygon fill="white" stroke="transparent" points="-4,4 -4,-246 276,-246 276,4 -4,4"/>
<g id="clust1" class="cluster">
<title>cluster_0</title>
<polygon fill="none" stroke="black" stroke-dasharray="1,5" points="8,-157 8,-234 264,-234 264,-157 8,-157"/>
</g>
<g id="clust2" class="cluster">
<title>cluster_1</title>
<polygon fill="none" stroke="black" stroke-width="2" points="138,-105 138,-137 196,-137 196,-105 138,-105"/>
</g>
<g id="clust3" class="cluster">
<title>cluster_2</title>
<polygon fill="none" stroke="black" stroke-dasharray="1,5" points="75,-8 75,-85 243,-85 243,-8 75,-8"/>
</g>
<!-- c_0_120 -->
<g id="node1" class="node">
<title>c_0_120</title>
<g id="a_node1"><a xlink:href="c_0_120.html" xlink:title="{â„ âŠ† â„}" target="_parent">
<polygon fill="#f8edd1" stroke="#7f7542" points="210,-188 210,-203 256,-203 256,-188 210,-188"/>
<text text-anchor="middle" x="233" y="-191.8" font-family="Times,serif" font-size="14.00">â„ âŠ† â„</text>
</a>
</g>
</g>
<!-- c_0_121 -->
<g id="node4" class="node">
<title>c_0_121</title>
<g id="a_node4"><a xlink:href="c_0_121.html" xlink:title="{2 âˆˆ â„}" target="_parent">
<polygon fill="#f8edd1" stroke="#7f7542" points="146.5,-113.5 146.5,-128.5 187.5,-128.5 187.5,-113.5 146.5,-113.5"/>
<text text-anchor="middle" x="167" y="-117.3" font-family="Times,serif" font-size="14.00">2 âˆˆ â„</text>
</a>
</g>
</g>
<!-- c_0_120&#45;&gt;c_0_121 -->
<g id="edge1" class="edge">
<title>c_0_120&#45;&gt;c_0_121</title>
<path fill="none" stroke="black" d="M222.5,-187.81C222.5,-168.77 222.5,-121 222.5,-121 222.5,-121 197.67,-121 197.67,-121"/>
<polygon fill="black" stroke="black" points="197.67,-117.5 187.67,-121 197.67,-124.5 197.67,-117.5"/>
</g>
<!-- c_0_118 -->
<g id="node2" class="node">
<title>c_0_118</title>
<g id="a_node2"><a xlink:href="c_0_118.html" xlink:title="{Xâ‚ âŠ† â„|Xâ‚‚ âˆˆ Xâ‚|â‡Š|Xâ‚‚ âˆˆ â„}" target="_parent">
<polygon fill="#f8edd1" stroke="#7f7542" points="142,-165.5 142,-225.5 192,-225.5 192,-165.5 142,-165.5"/>
<text text-anchor="middle" x="167" y="-214.3" font-family="Times,serif" font-size="14.00">Xâ‚ âŠ† â„</text>
<polyline fill="none" stroke="#7f7542" points="142,-210.5 192,-210.5 "/>
<text text-anchor="middle" x="167" y="-199.3" font-family="Times,serif" font-size="14.00">Xâ‚‚ âˆˆ Xâ‚</text>
<polyline fill="none" stroke="#7f7542" points="142,-195.5 192,-195.5 "/>
<text text-anchor="middle" x="167" y="-184.3" font-family="Times,serif" font-size="14.00">â‡Š</text>
<polyline fill="none" stroke="#7f7542" points="142,-180.5 192,-180.5 "/>
<text text-anchor="middle" x="167" y="-169.3" font-family="Times,serif" font-size="14.00">Xâ‚‚ âˆˆ â„</text>
</a>
</g>
</g>
<!-- c_0_118&#45;&gt;c_0_121 -->
<g id="edge2" class="edge">
<title>c_0_118&#45;&gt;c_0_121</title>
<path fill="none" stroke="black" d="M167,-165.2C167,-165.2 167,-138.59 167,-138.59"/>
<polygon fill="black" stroke="black" points="170.5,-138.59 167,-128.59 163.5,-138.59 170.5,-138.59"/>
</g>
<!-- spc2_numerals -->
<g id="node3" class="node">
<title>spc2_numerals</title>
<g id="a_node3"><a xlink:href="spc2_numerals.html" xlink:title="spc2_numerals" target="_parent">
<polygon fill="#69d2e7" stroke="#7f7542" points="16.5,-188 16.5,-203 123.5,-203 123.5,-188 16.5,-188"/>
<text text-anchor="middle" x="70" y="-191.8" font-family="Times,serif" font-size="14.00">spc2_numerals</text>
</a>
</g>
</g>
<!-- spc2_numerals&#45;&gt;c_0_121 -->
<g id="edge3" class="edge">
<title>spc2_numerals&#45;&gt;c_0_121</title>
<path fill="none" stroke="black" d="M96.33,-187.74C96.33,-169.04 96.33,-123 96.33,-123 96.33,-123 136.18,-123 136.18,-123"/>
<polygon fill="black" stroke="black" points="136.18,-126.5 146.18,-123 136.18,-119.5 136.18,-126.5"/>
</g>
<!-- c_0_137 -->
<g id="node5" class="node">
<title>c_0_137</title>
<g id="a_node5"><a xlink:href="c_0_137.html" xlink:title="{0 â‰¤ Râ‚‚|2 â‰¤ Râ‚|â‡Š|2 â‰¤ (Râ‚ + Râ‚‚)}" target="_parent">
<polygon fill="#f8edd1" stroke="#7f7542" points="141,-16.5 141,-76.5 235,-76.5 235,-16.5 141,-16.5"/>
<text text-anchor="middle" x="188" y="-65.3" font-family="Times,serif" font-size="14.00">0 â‰¤ Râ‚‚</text>
<polyline fill="none" stroke="#7f7542" points="141,-61.5 235,-61.5 "/>
<text text-anchor="middle" x="188" y="-50.3" font-family="Times,serif" font-size="14.00">2 â‰¤ Râ‚</text>
<polyline fill="none" stroke="#7f7542" points="141,-46.5 235,-46.5 "/>
<text text-anchor="middle" x="188" y="-35.3" font-family="Times,serif" font-size="14.00">â‡Š</text>
<polyline fill="none" stroke="#7f7542" points="141,-31.5 235,-31.5 "/>
<text text-anchor="middle" x="188" y="-20.3" font-family="Times,serif" font-size="14.00">2 â‰¤ (Râ‚ + Râ‚‚)</text>
</a>
</g>
</g>
<!-- c_0_121&#45;&gt;c_0_137 -->
<g id="edge4" class="edge">
<title>c_0_121&#45;&gt;c_0_137</title>
<path fill="none" stroke="black" stroke-dasharray="5,2" d="M167,-113.31C167,-113.31 167,-86.51 167,-86.51"/>
<polygon fill="black" stroke="black" points="170.5,-86.51 167,-76.51 163.5,-86.51 170.5,-86.51"/>
</g>
<!-- c_0_176 -->
<g id="node6" class="node">
<title>c_0_176</title>
<g id="a_node6"><a xlink:href="c_0_176.html" xlink:title="{2 âˆˆ ğ”¼}" target="_parent">
<polygon fill="#f8edd1" stroke="#7f7542" points="83,-39 83,-54 123,-54 123,-39 83,-39"/>
<text text-anchor="middle" x="103" y="-42.8" font-family="Times,serif" font-size="14.00">2 âˆˆ ğ”¼</text>
</a>
</g>
</g>
<!-- c_0_121&#45;&gt;c_0_176 -->
<g id="edge5" class="edge">
<title>c_0_121&#45;&gt;c_0_176</title>
<path fill="none" stroke="black" stroke-dasharray="5,2" d="M146.3,-118C129.88,-118 109.67,-118 109.67,-118 109.67,-118 109.67,-64.15 109.67,-64.15"/>
<polygon fill="black" stroke="black" points="113.17,-64.15 109.67,-54.15 106.17,-64.15 113.17,-64.15"/>
</g>
</g>
</svg>
