<?xml version="1.0" encoding="UTF-8" standalone="no"?>
<!DOCTYPE svg PUBLIC "-//W3C//DTD SVG 1.1//EN"
 "http://www.w3.org/Graphics/SVG/1.1/DTD/svg11.dtd">
<!-- Generated by graphviz version 5.0.0 (0)
 -->
<!-- Title: proof Pages: 1 -->
<svg width="469pt" height="265pt"
 viewBox="0.00 0.00 469.00 265.00" xmlns="http://www.w3.org/2000/svg" xmlns:xlink="http://www.w3.org/1999/xlink">
<g id="graph0" class="graph" transform="scale(1 1) rotate(0) translate(4 261)">
<title>proof</title>
<polygon fill="white" stroke="transparent" points="-4,4 -4,-261 465,-261 465,4 -4,4"/>
<g id="clust1" class="cluster">
<title>cluster_0</title>
<polygon fill="none" stroke="black" stroke-dasharray="1,5" points="8,-172 8,-249 453,-249 453,-172 8,-172"/>
</g>
<g id="clust2" class="cluster">
<title>cluster_1</title>
<polygon fill="none" stroke="black" stroke-width="2" points="111,-90 111,-152 313,-152 313,-90 111,-90"/>
</g>
<g id="clust3" class="cluster">
<title>cluster_2</title>
<polygon fill="none" stroke="black" stroke-dasharray="1,5" points="136,-8 136,-70 288,-70 288,-8 136,-8"/>
</g>
<!-- c_0_103 -->
<g id="node1" class="node">
<title>c_0_103</title>
<g id="a_node1"><a xlink:href="c_0_103.html" xlink:title="{0 ≤ 1}" target="_parent">
<polygon fill="#f8edd1" stroke="#7f7542" points="405,-203 405,-218 445,-218 445,-203 405,-203"/>
<text text-anchor="middle" x="425" y="-206.8" font-family="Times,serif" font-size="14.00">0 ≤ 1</text>
</a>
</g>
</g>
<!-- c_0_122 -->
<g id="node5" class="node">
<title>c_0_122</title>
<g id="a_node5"><a xlink:href="c_0_122.html" xlink:title="{2 ≤ ((esk1_0!) + 1)|⇊|esk4_1((esk1_0!) + 1) = 1}" target="_parent">
<polygon fill="#fa6900" stroke="#7f7542" points="119.5,-98.5 119.5,-143.5 304.5,-143.5 304.5,-98.5 119.5,-98.5"/>
<text text-anchor="middle" x="212" y="-132.3" font-family="Times,serif" font-size="14.00">2 ≤ ((esk1_0!) + 1)</text>
<polyline fill="none" stroke="#7f7542" points="119.5,-128.5 304.5,-128.5 "/>
<text text-anchor="middle" x="212" y="-117.3" font-family="Times,serif" font-size="14.00">⇊</text>
<polyline fill="none" stroke="#7f7542" points="119.5,-113.5 304.5,-113.5 "/>
<text text-anchor="middle" x="212" y="-102.3" font-family="Times,serif" font-size="14.00">esk4_1((esk1_0!) + 1) = 1</text>
</a>
</g>
</g>
<!-- c_0_103&#45;&gt;c_0_122 -->
<g id="edge1" class="edge">
<title>c_0_103&#45;&gt;c_0_122</title>
<path fill="none" stroke="black" d="M425,-202.87C425,-181.23 425,-121 425,-121 425,-121 314.81,-121 314.81,-121"/>
<polygon fill="black" stroke="black" points="314.81,-117.5 304.81,-121 314.81,-124.5 314.81,-117.5"/>
</g>
<!-- c_0_102 -->
<g id="node2" class="node">
<title>c_0_102</title>
<g id="a_node2"><a xlink:href="c_0_102.html" xlink:title="{2 ≤ ((esk1_0!) + 1)|⇊|esk4_1((esk1_0!) + 1) = 0|esk4_1((esk1_0!) + 1) = 1}" target="_parent">
<polygon fill="#fa6900" stroke="#7f7542" points="201.5,-180.5 201.5,-240.5 386.5,-240.5 386.5,-180.5 201.5,-180.5"/>
<text text-anchor="middle" x="294" y="-229.3" font-family="Times,serif" font-size="14.00">2 ≤ ((esk1_0!) + 1)</text>
<polyline fill="none" stroke="#7f7542" points="201.5,-225.5 386.5,-225.5 "/>
<text text-anchor="middle" x="294" y="-214.3" font-family="Times,serif" font-size="14.00">⇊</text>
<polyline fill="none" stroke="#7f7542" points="201.5,-210.5 386.5,-210.5 "/>
<text text-anchor="middle" x="294" y="-199.3" font-family="Times,serif" font-size="14.00">esk4_1((esk1_0!) + 1) = 0</text>
<polyline fill="none" stroke="#7f7542" points="201.5,-195.5 386.5,-195.5 "/>
<text text-anchor="middle" x="294" y="-184.3" font-family="Times,serif" font-size="14.00">esk4_1((esk1_0!) + 1) = 1</text>
</a>
</g>
</g>
<!-- c_0_102&#45;&gt;c_0_122 -->
<g id="edge2" class="edge">
<title>c_0_102&#45;&gt;c_0_122</title>
<path fill="none" stroke="black" d="M253,-180.2C253,-180.2 253,-153.63 253,-153.63"/>
<polygon fill="black" stroke="black" points="256.5,-153.63 253,-143.63 249.5,-153.63 256.5,-153.63"/>
</g>
<!-- c_0_109 -->
<g id="node3" class="node">
<title>c_0_109</title>
<g id="a_node3"><a xlink:href="c_0_109.html" xlink:title="{2 ≤ N₁|esk4_1(N₁) ≤ 1|⇊|⊥}" target="_parent">
<polygon fill="#f8edd1" stroke="#7f7542" points="76.5,-180.5 76.5,-240.5 183.5,-240.5 183.5,-180.5 76.5,-180.5"/>
<text text-anchor="middle" x="130" y="-229.3" font-family="Times,serif" font-size="14.00">2 ≤ N₁</text>
<polyline fill="none" stroke="#7f7542" points="76.5,-225.5 183.5,-225.5 "/>
<text text-anchor="middle" x="130" y="-214.3" font-family="Times,serif" font-size="14.00">esk4_1(N₁) ≤ 1</text>
<polyline fill="none" stroke="#7f7542" points="76.5,-210.5 183.5,-210.5 "/>
<text text-anchor="middle" x="130" y="-199.3" font-family="Times,serif" font-size="14.00">⇊</text>
<polyline fill="none" stroke="#7f7542" points="76.5,-195.5 183.5,-195.5 "/>
<text text-anchor="middle" x="130" y="-184.3" font-family="Times,serif" font-size="14.00">⊥</text>
</a>
</g>
</g>
<!-- c_0_109&#45;&gt;c_0_122 -->
<g id="edge3" class="edge">
<title>c_0_109&#45;&gt;c_0_122</title>
<path fill="none" stroke="black" d="M151.5,-180.2C151.5,-180.2 151.5,-153.63 151.5,-153.63"/>
<polygon fill="black" stroke="black" points="155,-153.63 151.5,-143.63 148,-153.63 155,-153.63"/>
</g>
<!-- c_0_100 -->
<g id="node4" class="node">
<title>c_0_100</title>
<g id="a_node4"><a xlink:href="c_0_100.html" xlink:title="{0 ∈ ℕ}" target="_parent">
<polygon fill="#f8edd1" stroke="#7f7542" points="16,-203 16,-218 58,-218 58,-203 16,-203"/>
<text text-anchor="middle" x="37" y="-206.8" font-family="Times,serif" font-size="14.00">0 ∈ ℕ</text>
</a>
</g>
</g>
<!-- c_0_100&#45;&gt;c_0_122 -->
<g id="edge4" class="edge">
<title>c_0_100&#45;&gt;c_0_122</title>
<path fill="none" stroke="black" d="M37,-202.87C37,-181.23 37,-121 37,-121 37,-121 109.38,-121 109.38,-121"/>
<polygon fill="black" stroke="black" points="109.38,-124.5 119.38,-121 109.38,-117.5 109.38,-124.5"/>
</g>
<!-- c_0_135 -->
<g id="node6" class="node">
<title>c_0_135</title>
<g id="a_node6"><a xlink:href="c_0_135.html" xlink:title="{2 ≤ ((esk1_0!) + 1)|⇊|⊥}" target="_parent">
<polygon fill="#fa6900" stroke="#7f7542" points="144,-16.5 144,-61.5 280,-61.5 280,-16.5 144,-16.5"/>
<text text-anchor="middle" x="212" y="-50.3" font-family="Times,serif" font-size="14.00">2 ≤ ((esk1_0!) + 1)</text>
<polyline fill="none" stroke="#7f7542" points="144,-46.5 280,-46.5 "/>
<text text-anchor="middle" x="212" y="-35.3" font-family="Times,serif" font-size="14.00">⇊</text>
<polyline fill="none" stroke="#7f7542" points="144,-31.5 280,-31.5 "/>
<text text-anchor="middle" x="212" y="-20.3" font-family="Times,serif" font-size="14.00">⊥</text>
</a>
</g>
</g>
<!-- c_0_122&#45;&gt;c_0_135 -->
<g id="edge5" class="edge">
<title>c_0_122&#45;&gt;c_0_135</title>
<path fill="none" stroke="black" stroke-dasharray="5,2" d="M212,-98.16C212,-98.16 212,-71.72 212,-71.72"/>
<polygon fill="black" stroke="black" points="215.5,-71.72 212,-61.72 208.5,-71.72 215.5,-71.72"/>
</g>
</g>
</svg>
