<?xml version="1.0" encoding="UTF-8" standalone="no"?>
<!DOCTYPE svg PUBLIC "-//W3C//DTD SVG 1.1//EN"
 "http://www.w3.org/Graphics/SVG/1.1/DTD/svg11.dtd">
<!-- Generated by graphviz version 5.0.0 (0)
 -->
<!-- Title: proof Pages: 1 -->
<svg width="142pt" height="190pt"
 viewBox="0.00 0.00 142.00 190.00" xmlns="http://www.w3.org/2000/svg" xmlns:xlink="http://www.w3.org/1999/xlink">
<g id="graph0" class="graph" transform="scale(1 1) rotate(0) translate(4 186)">
<title>proof</title>
<g id="clust1" class="cluster">
<title>cluster_0</title>
<polygon fill="transparent" stroke="black" stroke-dasharray="1,5" points="8,-142 8,-174 116,-174 116,-142 8,-142"/>
</g>
<g id="clust2" class="cluster">
<title>cluster_1</title>
<polygon fill="transparent" stroke="black" stroke-width="2" points="30,-90 30,-122 94,-122 94,-90 30,-90"/>
</g>
<g id="clust3" class="cluster">
<title>cluster_2</title>
<polygon fill="transparent" stroke="black" stroke-dasharray="1,5" points="16,-8 16,-70 126,-70 126,-8 16,-8"/>
</g>
<!-- cc2_xxreal_0 -->
<g id="node1" class="node">
<title>cc2_xxreal_0</title>
<g id="a_node1"><a xlink:href="cc2_xxreal_0.html" xlink:title="cc2_xxreal_0" target="_vizar">
<polygon fill="#69d2e7" stroke="#7f7542" points="16.5,-150.5 16.5,-165.5 107.5,-165.5 107.5,-150.5 16.5,-150.5"/>
<text text-anchor="middle" x="62" y="-154.3" font-family="Times,serif" font-size="14.00">cc2_xxreal_0</text>
</a>
</g>
</g>
<!-- c_0_133 -->
<g id="node2" class="node">
<title>c_0_133</title>
<g id="a_node2"><a xlink:href="c_0_133.html" xlink:title="{N₁ ∈ 𝔼}" target="_vizar">
<polygon fill="#f8edd1" stroke="#7f7542" points="38,-98.5 38,-113.5 86,-113.5 86,-98.5 38,-98.5"/>
<text text-anchor="middle" x="62" y="-102.3" font-family="Times,serif" font-size="14.00">N₁ ∈ 𝔼</text>
</a>
</g>
</g>
<!-- cc2_xxreal_0&#45;&gt;c_0_133 -->
<g id="edge1" class="edge">
<title>cc2_xxreal_0&#45;&gt;c_0_133</title>
<path fill="none" stroke="black" d="M62,-150.33C62,-150.33 62,-123.7 62,-123.7"/>
<polygon fill="black" stroke="black" points="65.5,-123.7 62,-113.7 58.5,-123.7 65.5,-123.7"/>
</g>
<!-- c_0_145 -->
<g id="node3" class="node">
<title>c_0_145</title>
<g id="a_node3"><a xlink:href="c_0_145.html" xlink:title="⊥" target="_vizar">
<polygon fill="#fa6900" stroke="#7f7542" points="104,-31.5 104,-46.5 118,-46.5 118,-31.5 104,-31.5"/>
<text text-anchor="middle" x="111" y="-35.3" font-family="Times,serif" font-size="14.00">⊥</text>
</a>
</g>
</g>
<!-- c_0_133&#45;&gt;c_0_145 -->
<g id="edge2" class="edge">
<title>c_0_133&#45;&gt;c_0_145</title>
<path fill="none" stroke="black" stroke-dasharray="5,2" d="M86.19,-106C99.26,-106 112.75,-106 112.75,-106 112.75,-106 112.75,-56.69 112.75,-56.69"/>
<polygon fill="black" stroke="black" points="116.25,-56.69 112.75,-46.69 109.25,-56.69 116.25,-56.69"/>
</g>
<!-- c_0_138 -->
<g id="node4" class="node">
<title>c_0_138</title>
<g id="a_node4"><a xlink:href="c_0_138.html" xlink:title="{E₁ ≤ N₂|⇊|E₁ ≤ N₂!}" target="_vizar">
<polygon fill="#f8edd1" stroke="#7f7542" points="24.5,-16.5 24.5,-61.5 85.5,-61.5 85.5,-16.5 24.5,-16.5"/>
<text text-anchor="middle" x="55" y="-50.3" font-family="Times,serif" font-size="14.00">E₁ ≤ N₂</text>
<polyline fill="none" stroke="#7f7542" points="24.5,-46.5 85.5,-46.5 "/>
<text text-anchor="middle" x="55" y="-35.3" font-family="Times,serif" font-size="14.00">⇊</text>
<polyline fill="none" stroke="#7f7542" points="24.5,-31.5 85.5,-31.5 "/>
<text text-anchor="middle" x="55" y="-20.3" font-family="Times,serif" font-size="14.00">E₁ ≤ N₂!</text>
</a>
</g>
</g>
<!-- c_0_133&#45;&gt;c_0_138 -->
<g id="edge3" class="edge">
<title>c_0_133&#45;&gt;c_0_138</title>
<path fill="none" stroke="black" stroke-dasharray="5,2" d="M61.75,-98.31C61.75,-98.31 61.75,-71.76 61.75,-71.76"/>
<polygon fill="black" stroke="black" points="65.25,-71.76 61.75,-61.76 58.25,-71.76 65.25,-71.76"/>
</g>
</g>
</svg>
