<?xml version="1.0" encoding="UTF-8" standalone="no"?>
<!DOCTYPE svg PUBLIC "-//W3C//DTD SVG 1.1//EN"
 "http://www.w3.org/Graphics/SVG/1.1/DTD/svg11.dtd">
<!-- Generated by graphviz version 5.0.0 (0)
 -->
<!-- Title: proof Pages: 1 -->
<svg width="302pt" height="250pt"
 viewBox="0.00 0.00 302.00 250.00" xmlns="http://www.w3.org/2000/svg" xmlns:xlink="http://www.w3.org/1999/xlink">
<g id="graph0" class="graph" transform="scale(1 1) rotate(0) translate(4 246)">
<title>proof</title>
<g id="clust1" class="cluster">
<title>cluster_0</title>
<polygon fill="transparent" stroke="black" stroke-dasharray="1,5" points="8,-172 8,-234 214,-234 214,-172 8,-172"/>
</g>
<g id="clust2" class="cluster">
<title>cluster_1</title>
<polygon fill="transparent" stroke="black" stroke-width="2" points="70,-90 70,-152 166,-152 166,-90 70,-90"/>
</g>
<g id="clust3" class="cluster">
<title>cluster_2</title>
<polygon fill="transparent" stroke="black" stroke-dasharray="1,5" points="24,-8 24,-70 286,-70 286,-8 24,-8"/>
</g>
<!-- c_0_90 -->
<g id="node1" class="node">
<title>c_0_90</title>
<g id="a_node1"><a xlink:href="c_0_90.html" xlink:title="{2 ≤ N₁|⇊|prime(sk₄(N₁))}" target="_vizar">
<polygon fill="#f8edd1" stroke="#7f7542" points="104,-180.5 104,-225.5 206,-225.5 206,-180.5 104,-180.5"/>
<text text-anchor="middle" x="155" y="-214.3" font-family="Times,serif" font-size="14.00">2 ≤ N₁</text>
<polyline fill="none" stroke="#7f7542" points="104,-210.5 206,-210.5 "/>
<text text-anchor="middle" x="155" y="-199.3" font-family="Times,serif" font-size="14.00">⇊</text>
<polyline fill="none" stroke="#7f7542" points="104,-195.5 206,-195.5 "/>
<text text-anchor="middle" x="155" y="-184.3" font-family="Times,serif" font-size="14.00">prime(sk₄(N₁))</text>
</a>
</g>
</g>
<!-- c_0_105 -->
<g id="node3" class="node">
<title>c_0_105</title>
<g id="a_node3"><a xlink:href="c_0_105.html" xlink:title="{sk₄(N₁) ≤ 1|⇊|2 &amp;gt; N₁}" target="_vizar">
<polygon fill="#f8edd1" stroke="#7f7542" points="78.5,-98.5 78.5,-143.5 157.5,-143.5 157.5,-98.5 78.5,-98.5"/>
<text text-anchor="middle" x="118" y="-132.3" font-family="Times,serif" font-size="14.00">sk₄(N₁) ≤ 1</text>
<polyline fill="none" stroke="#7f7542" points="78.5,-128.5 157.5,-128.5 "/>
<text text-anchor="middle" x="118" y="-117.3" font-family="Times,serif" font-size="14.00">⇊</text>
<polyline fill="none" stroke="#7f7542" points="78.5,-113.5 157.5,-113.5 "/>
<text text-anchor="middle" x="118" y="-102.3" font-family="Times,serif" font-size="14.00">2 &gt; N₁</text>
</a>
</g>
</g>
<!-- c_0_90&#45;&gt;c_0_105 -->
<g id="edge1" class="edge">
<title>c_0_90&#45;&gt;c_0_105</title>
<path fill="none" stroke="black" d="M130.75,-180.16C130.75,-180.16 130.75,-153.72 130.75,-153.72"/>
<polygon fill="black" stroke="black" points="134.25,-153.72 130.75,-143.72 127.25,-153.72 134.25,-153.72"/>
</g>
<!-- c_0_95 -->
<g id="node2" class="node">
<title>c_0_95</title>
<g id="a_node2"><a xlink:href="c_0_95.html" xlink:title="{prime(N₁)|⇊|N₁ &amp;gt; 1}" target="_vizar">
<polygon fill="#f8edd1" stroke="#7f7542" points="16,-180.5 16,-225.5 86,-225.5 86,-180.5 16,-180.5"/>
<text text-anchor="middle" x="51" y="-214.3" font-family="Times,serif" font-size="14.00">prime(N₁)</text>
<polyline fill="none" stroke="#7f7542" points="16,-210.5 86,-210.5 "/>
<text text-anchor="middle" x="51" y="-199.3" font-family="Times,serif" font-size="14.00">⇊</text>
<polyline fill="none" stroke="#7f7542" points="16,-195.5 86,-195.5 "/>
<text text-anchor="middle" x="51" y="-184.3" font-family="Times,serif" font-size="14.00">N₁ &gt; 1</text>
</a>
</g>
</g>
<!-- c_0_95&#45;&gt;c_0_105 -->
<g id="edge2" class="edge">
<title>c_0_95&#45;&gt;c_0_105</title>
<path fill="none" stroke="black" d="M82.25,-180.16C82.25,-180.16 82.25,-153.72 82.25,-153.72"/>
<polygon fill="black" stroke="black" points="85.75,-153.72 82.25,-143.72 78.75,-153.72 85.75,-153.72"/>
</g>
<!-- c_0_116 -->
<g id="node4" class="node">
<title>c_0_116</title>
<g id="a_node4"><a xlink:href="c_0_116.html" xlink:title="{2 ≤ (sk₁!) + 1|⇊|sk₄((sk₁!) + 1) = 1}" target="_vizar">
<polygon fill="#fa6900" stroke="#7f7542" points="148,-16.5 148,-61.5 278,-61.5 278,-16.5 148,-16.5"/>
<text text-anchor="middle" x="213" y="-50.3" font-family="Times,serif" font-size="14.00">2 ≤ (sk₁!) + 1</text>
<polyline fill="none" stroke="#7f7542" points="148,-46.5 278,-46.5 "/>
<text text-anchor="middle" x="213" y="-35.3" font-family="Times,serif" font-size="14.00">⇊</text>
<polyline fill="none" stroke="#7f7542" points="148,-31.5 278,-31.5 "/>
<text text-anchor="middle" x="213" y="-20.3" font-family="Times,serif" font-size="14.00">sk₄((sk₁!) + 1) = 1</text>
</a>
</g>
</g>
<!-- c_0_105&#45;&gt;c_0_116 -->
<g id="edge3" class="edge">
<title>c_0_105&#45;&gt;c_0_116</title>
<path fill="none" stroke="black" stroke-dasharray="5,2" d="M152.75,-98.16C152.75,-98.16 152.75,-71.72 152.75,-71.72"/>
<polygon fill="black" stroke="black" points="156.25,-71.72 152.75,-61.72 149.25,-71.72 156.25,-71.72"/>
</g>
<!-- c_0_126 -->
<g id="node5" class="node">
<title>c_0_126</title>
<g id="a_node5"><a xlink:href="c_0_126.html" xlink:title="{2 &amp;gt; (sk₁!) + 1}" target="_vizar">
<polygon fill="#fa6900" stroke="#7f7542" points="32,-31.5 32,-46.5 130,-46.5 130,-31.5 32,-31.5"/>
<text text-anchor="middle" x="81" y="-35.3" font-family="Times,serif" font-size="14.00">2 &gt; (sk₁!) + 1</text>
</a>
</g>
</g>
<!-- c_0_105&#45;&gt;c_0_126 -->
<g id="edge4" class="edge">
<title>c_0_105&#45;&gt;c_0_126</title>
<path fill="none" stroke="black" stroke-dasharray="5,2" d="M104.25,-98.16C104.25,-98.16 104.25,-56.65 104.25,-56.65"/>
<polygon fill="black" stroke="black" points="107.75,-56.65 104.25,-46.65 100.75,-56.65 107.75,-56.65"/>
</g>
</g>
</svg>
