<?xml version="1.0" encoding="UTF-8" standalone="no"?>
<!DOCTYPE svg PUBLIC "-//W3C//DTD SVG 1.1//EN"
 "http://www.w3.org/Graphics/SVG/1.1/DTD/svg11.dtd">
<!-- Generated by graphviz version 5.0.0 (0)
 -->
<!-- Title: proof Pages: 1 -->
<svg width="532pt" height="205pt"
 viewBox="0.00 0.00 532.00 205.00" xmlns="http://www.w3.org/2000/svg" xmlns:xlink="http://www.w3.org/1999/xlink">
<g id="graph0" class="graph" transform="scale(1 1) rotate(0) translate(4 201)">
<title>proof</title>
<g id="clust1" class="cluster">
<title>cluster_0</title>
<polygon fill="transparent" stroke="black" stroke-dasharray="1,5" points="8,-112 8,-189 516,-189 516,-112 8,-112"/>
</g>
<g id="clust2" class="cluster">
<title>cluster_1</title>
<polygon fill="transparent" stroke="black" stroke-width="2" points="191,-60 191,-92 333,-92 333,-60 191,-60"/>
</g>
<g id="clust3" class="cluster">
<title>cluster_2</title>
<polygon fill="transparent" stroke="black" stroke-dasharray="1,5" points="211,-8 211,-40 313,-40 313,-8 211,-8"/>
</g>
<!-- c_0_122 -->
<g id="node1" class="node">
<title>c_0_122</title>
<g id="a_node1"><a xlink:href="c_0_122.html" xlink:title="{2 ≤ (sk₁!) + 1|⇊|sk₄((sk₁!) + 1) = 1}" target="_parent">
<polygon fill="#fa6900" stroke="#7f7542" points="378,-128 378,-173 508,-173 508,-128 378,-128"/>
<text text-anchor="middle" x="443" y="-161.8" font-family="Times,serif" font-size="14.00">2 ≤ (sk₁!) + 1</text>
<polyline fill="none" stroke="#7f7542" points="378,-158 508,-158 "/>
<text text-anchor="middle" x="443" y="-146.8" font-family="Times,serif" font-size="14.00">⇊</text>
<polyline fill="none" stroke="#7f7542" points="378,-143 508,-143 "/>
<text text-anchor="middle" x="443" y="-131.8" font-family="Times,serif" font-size="14.00">sk₄((sk₁!) + 1) = 1</text>
</a>
</g>
</g>
<!-- c_0_135 -->
<g id="node6" class="node">
<title>c_0_135</title>
<g id="a_node6"><a xlink:href="c_0_135.html" xlink:title="{¬ (2 ≤ (sk₁!) + 1)}" target="_parent">
<polygon fill="#fa6900" stroke="#7f7542" points="199.5,-68.5 199.5,-83.5 324.5,-83.5 324.5,-68.5 199.5,-68.5"/>
<text text-anchor="middle" x="262" y="-72.3" font-family="Times,serif" font-size="14.00">¬ (2 ≤ (sk₁!) + 1)</text>
</a>
</g>
</g>
<!-- c_0_122&#45;&gt;c_0_135 -->
<g id="edge1" class="edge">
<title>c_0_122&#45;&gt;c_0_135</title>
<path fill="none" stroke="black" d="M377.66,-135C345.62,-135 313.83,-135 313.83,-135 313.83,-135 313.83,-93.71 313.83,-93.71"/>
<polygon fill="black" stroke="black" points="317.33,-93.71 313.83,-83.71 310.33,-93.71 317.33,-93.71"/>
</g>
<!-- c_0_113 -->
<g id="node2" class="node">
<title>c_0_113</title>
<g id="a_node2"><a xlink:href="c_0_113.html" xlink:title="{1 ≤ 1}" target="_parent">
<polygon fill="#f8edd1" stroke="#7f7542" points="320,-143 320,-158 360,-158 360,-143 320,-143"/>
<text text-anchor="middle" x="340" y="-146.8" font-family="Times,serif" font-size="14.00">1 ≤ 1</text>
</a>
</g>
</g>
<!-- c_0_113&#45;&gt;c_0_135 -->
<g id="edge2" class="edge">
<title>c_0_113&#45;&gt;c_0_135</title>
<path fill="none" stroke="black" d="M319.71,-150C313.21,-150 307.67,-150 307.67,-150 307.67,-150 307.67,-93.64 307.67,-93.64"/>
<polygon fill="black" stroke="black" points="311.17,-93.64 307.67,-83.64 304.17,-93.64 311.17,-93.64"/>
</g>
<!-- c_0_109 -->
<g id="node3" class="node">
<title>c_0_109</title>
<g id="a_node3"><a xlink:href="c_0_109.html" xlink:title="{2 ≤ N₁|sk₄(N₁) ≤ 1|⇊|⊥}" target="_parent">
<polygon fill="#f8edd1" stroke="#7f7542" points="222.5,-120.5 222.5,-180.5 301.5,-180.5 301.5,-120.5 222.5,-120.5"/>
<text text-anchor="middle" x="262" y="-169.3" font-family="Times,serif" font-size="14.00">2 ≤ N₁</text>
<polyline fill="none" stroke="#7f7542" points="222.5,-165.5 301.5,-165.5 "/>
<text text-anchor="middle" x="262" y="-154.3" font-family="Times,serif" font-size="14.00">sk₄(N₁) ≤ 1</text>
<polyline fill="none" stroke="#7f7542" points="222.5,-150.5 301.5,-150.5 "/>
<text text-anchor="middle" x="262" y="-139.3" font-family="Times,serif" font-size="14.00">⇊</text>
<polyline fill="none" stroke="#7f7542" points="222.5,-135.5 301.5,-135.5 "/>
<text text-anchor="middle" x="262" y="-124.3" font-family="Times,serif" font-size="14.00">⊥</text>
</a>
</g>
</g>
<!-- c_0_109&#45;&gt;c_0_135 -->
<g id="edge3" class="edge">
<title>c_0_109&#45;&gt;c_0_135</title>
<path fill="none" stroke="black" d="M262,-120.2C262,-120.2 262,-93.59 262,-93.59"/>
<polygon fill="black" stroke="black" points="265.5,-93.59 262,-83.59 258.5,-93.59 265.5,-93.59"/>
</g>
<!-- c_0_106 -->
<g id="node4" class="node">
<title>c_0_106</title>
<g id="a_node4"><a xlink:href="c_0_106.html" xlink:title="{1 ∈ ℕ}" target="_parent">
<polygon fill="#f8edd1" stroke="#7f7542" points="162,-143 162,-158 204,-158 204,-143 162,-143"/>
<text text-anchor="middle" x="183" y="-146.8" font-family="Times,serif" font-size="14.00">1 ∈ ℕ</text>
</a>
</g>
</g>
<!-- c_0_106&#45;&gt;c_0_135 -->
<g id="edge4" class="edge">
<title>c_0_106&#45;&gt;c_0_135</title>
<path fill="none" stroke="black" d="M204.3,-150C210.83,-150 216.33,-150 216.33,-150 216.33,-150 216.33,-93.64 216.33,-93.64"/>
<polygon fill="black" stroke="black" points="219.83,-93.64 216.33,-83.64 212.83,-93.64 219.83,-93.64"/>
</g>
<!-- c_0_125 -->
<g id="node5" class="node">
<title>c_0_125</title>
<g id="a_node5"><a xlink:href="c_0_125.html" xlink:title="{X₂ ∈ ℕ|⇊|N₁ + X₂ = N₁ + X₂}" target="_parent">
<polygon fill="#f8edd1" stroke="#7f7542" points="16,-128 16,-173 144,-173 144,-128 16,-128"/>
<text text-anchor="middle" x="80" y="-161.8" font-family="Times,serif" font-size="14.00">X₂ ∈ ℕ</text>
<polyline fill="none" stroke="#7f7542" points="16,-158 144,-158 "/>
<text text-anchor="middle" x="80" y="-146.8" font-family="Times,serif" font-size="14.00">⇊</text>
<polyline fill="none" stroke="#7f7542" points="16,-143 144,-143 "/>
<text text-anchor="middle" x="80" y="-131.8" font-family="Times,serif" font-size="14.00">N₁ + X₂ = N₁ + X₂</text>
</a>
</g>
</g>
<!-- c_0_125&#45;&gt;c_0_135 -->
<g id="edge5" class="edge">
<title>c_0_125&#45;&gt;c_0_135</title>
<path fill="none" stroke="black" d="M144.32,-135C177.11,-135 210.17,-135 210.17,-135 210.17,-135 210.17,-93.71 210.17,-93.71"/>
<polygon fill="black" stroke="black" points="213.67,-93.71 210.17,-83.71 206.67,-93.71 213.67,-93.71"/>
</g>
<!-- c_0_158 -->
<g id="node7" class="node">
<title>c_0_158</title>
<g id="a_node7"><a xlink:href="c_0_158.html" xlink:title="{¬ (2 ≤ sk₁!)}" target="_parent">
<polygon fill="#fa6900" stroke="#7f7542" points="219.5,-16.5 219.5,-31.5 304.5,-31.5 304.5,-16.5 219.5,-16.5"/>
<text text-anchor="middle" x="262" y="-20.3" font-family="Times,serif" font-size="14.00">¬ (2 ≤ sk₁!)</text>
</a>
</g>
</g>
<!-- c_0_135&#45;&gt;c_0_158 -->
<g id="edge6" class="edge">
<title>c_0_135&#45;&gt;c_0_158</title>
<path fill="none" stroke="black" stroke-dasharray="5,2" d="M262,-68.33C262,-68.33 262,-41.7 262,-41.7"/>
<polygon fill="black" stroke="black" points="265.5,-41.7 262,-31.7 258.5,-41.7 265.5,-41.7"/>
</g>
</g>
</svg>
