<?xml version="1.0" encoding="UTF-8" standalone="no"?>
<!DOCTYPE svg PUBLIC "-//W3C//DTD SVG 1.1//EN"
 "http://www.w3.org/Graphics/SVG/1.1/DTD/svg11.dtd">
<!-- Generated by graphviz version 5.0.0 (0)
 -->
<!-- Title: proof Pages: 1 -->
<svg width="156pt" height="295pt"
 viewBox="0.00 0.00 156.00 295.00" xmlns="http://www.w3.org/2000/svg" xmlns:xlink="http://www.w3.org/1999/xlink">
<g id="graph0" class="graph" transform="scale(1 1) rotate(0) translate(4 291)">
<title>proof</title>
<g id="clust1" class="cluster">
<title>cluster_0</title>
<polygon fill="transparent" stroke="black" stroke-dasharray="1,5" points="8,-202 8,-279 140,-279 140,-202 8,-202"/>
</g>
<g id="clust2" class="cluster">
<title>cluster_1</title>
<polygon fill="transparent" stroke="black" stroke-width="2" points="31,-105 31,-182 103,-182 103,-105 31,-105"/>
</g>
<g id="clust3" class="cluster">
<title>cluster_2</title>
<polygon fill="transparent" stroke="black" stroke-dasharray="1,5" points="12,-8 12,-85 122,-85 122,-8 12,-8"/>
</g>
<!-- c_0_47 -->
<g id="node1" class="node">
<title>c_0_47</title>
<g id="a_node1"><a xlink:href="c_0_47.html" xlink:title="{N₁ ≤ N₂|⇊|N₁ = 0|N₁ । N₂!}" target="_parent">
<polygon fill="#f8edd1" stroke="#7f7542" points="76,-210.5 76,-270.5 132,-270.5 132,-210.5 76,-210.5"/>
<text text-anchor="middle" x="104" y="-259.3" font-family="Times,serif" font-size="14.00">N₁ ≤ N₂</text>
<polyline fill="none" stroke="#7f7542" points="76,-255.5 132,-255.5 "/>
<text text-anchor="middle" x="104" y="-244.3" font-family="Times,serif" font-size="14.00">⇊</text>
<polyline fill="none" stroke="#7f7542" points="76,-240.5 132,-240.5 "/>
<text text-anchor="middle" x="104" y="-229.3" font-family="Times,serif" font-size="14.00">N₁ = 0</text>
<polyline fill="none" stroke="#7f7542" points="76,-225.5 132,-225.5 "/>
<text text-anchor="middle" x="104" y="-214.3" font-family="Times,serif" font-size="14.00">N₁ । N₂!</text>
</a>
</g>
</g>
<!-- c_0_68 -->
<g id="node3" class="node">
<title>c_0_68</title>
<g id="a_node3"><a xlink:href="c_0_68.html" xlink:title="{N₁ ≤ N₂|⇊|N₁ = Ø|N₁ । N₂!}" target="_parent">
<polygon fill="#f8edd1" stroke="#7f7542" points="39,-113.5 39,-173.5 95,-173.5 95,-113.5 39,-113.5"/>
<text text-anchor="middle" x="67" y="-162.3" font-family="Times,serif" font-size="14.00">N₁ ≤ N₂</text>
<polyline fill="none" stroke="#7f7542" points="39,-158.5 95,-158.5 "/>
<text text-anchor="middle" x="67" y="-147.3" font-family="Times,serif" font-size="14.00">⇊</text>
<polyline fill="none" stroke="#7f7542" points="39,-143.5 95,-143.5 "/>
<text text-anchor="middle" x="67" y="-132.3" font-family="Times,serif" font-size="14.00">N₁ = Ø</text>
<polyline fill="none" stroke="#7f7542" points="39,-128.5 95,-128.5 "/>
<text text-anchor="middle" x="67" y="-117.3" font-family="Times,serif" font-size="14.00">N₁ । N₂!</text>
</a>
</g>
</g>
<!-- c_0_47&#45;&gt;c_0_68 -->
<g id="edge1" class="edge">
<title>c_0_47&#45;&gt;c_0_68</title>
<path fill="none" stroke="black" d="M85.5,-210.34C85.5,-210.34 85.5,-183.64 85.5,-183.64"/>
<polygon fill="black" stroke="black" points="89,-183.64 85.5,-173.64 82,-183.64 89,-183.64"/>
</g>
<!-- c_0_48 -->
<g id="node2" class="node">
<title>c_0_48</title>
<g id="a_node2"><a xlink:href="c_0_48.html" xlink:title="{0 = Ø}" target="_parent">
<polygon fill="#f8edd1" stroke="#7f7542" points="16,-233 16,-248 58,-248 58,-233 16,-233"/>
<text text-anchor="middle" x="37" y="-236.8" font-family="Times,serif" font-size="14.00">0 = Ø</text>
</a>
</g>
</g>
<!-- c_0_48&#45;&gt;c_0_68 -->
<g id="edge2" class="edge">
<title>c_0_48&#45;&gt;c_0_68</title>
<path fill="none" stroke="black" d="M48.5,-232.89C48.5,-232.89 48.5,-183.78 48.5,-183.78"/>
<polygon fill="black" stroke="black" points="52,-183.78 48.5,-173.78 45,-183.78 52,-183.78"/>
</g>
<!-- c_0_76 -->
<g id="node4" class="node">
<title>c_0_76</title>
<g id="a_node4"><a xlink:href="c_0_76.html" xlink:title="{N₁ ≤ N₂|⇊|N₁ = skolem₃|N₁ । N₂!}" target="_parent">
<polygon fill="#f8edd1" stroke="#7f7542" points="20,-16.5 20,-76.5 114,-76.5 114,-16.5 20,-16.5"/>
<text text-anchor="middle" x="67" y="-65.3" font-family="Times,serif" font-size="14.00">N₁ ≤ N₂</text>
<polyline fill="none" stroke="#7f7542" points="20,-61.5 114,-61.5 "/>
<text text-anchor="middle" x="67" y="-50.3" font-family="Times,serif" font-size="14.00">⇊</text>
<polyline fill="none" stroke="#7f7542" points="20,-46.5 114,-46.5 "/>
<text text-anchor="middle" x="67" y="-35.3" font-family="Times,serif" font-size="14.00">N₁ = skolem₃</text>
<polyline fill="none" stroke="#7f7542" points="20,-31.5 114,-31.5 "/>
<text text-anchor="middle" x="67" y="-20.3" font-family="Times,serif" font-size="14.00">N₁ । N₂!</text>
</a>
</g>
</g>
<!-- c_0_68&#45;&gt;c_0_76 -->
<g id="edge3" class="edge">
<title>c_0_68&#45;&gt;c_0_76</title>
<path fill="none" stroke="black" stroke-dasharray="5,2" d="M67,-113.34C67,-113.34 67,-86.64 67,-86.64"/>
<polygon fill="black" stroke="black" points="70.5,-86.64 67,-76.64 63.5,-86.64 70.5,-86.64"/>
</g>
</g>
</svg>
