<?xml version="1.0" encoding="UTF-8" standalone="no"?>
<!DOCTYPE svg PUBLIC "-//W3C//DTD SVG 1.1//EN"
 "http://www.w3.org/Graphics/SVG/1.1/DTD/svg11.dtd">
<!-- Generated by graphviz version 5.0.0 (0)
 -->
<!-- Title: proof Pages: 1 -->
<svg width="386pt" height="235pt"
 viewBox="0.00 0.00 386.00 235.00" xmlns="http://www.w3.org/2000/svg" xmlns:xlink="http://www.w3.org/1999/xlink">
<g id="graph0" class="graph" transform="scale(1 1) rotate(0) translate(4 231)">
<title>proof</title>
<g id="clust1" class="cluster">
<title>cluster_0</title>
<polygon fill="transparent" stroke="black" stroke-dasharray="1,5" points="8,-142 8,-219 370,-219 370,-142 8,-142"/>
</g>
<g id="clust2" class="cluster">
<title>cluster_1</title>
<polygon fill="transparent" stroke="black" stroke-width="2" points="170,-60 170,-122 316,-122 316,-60 170,-60"/>
</g>
<g id="clust3" class="cluster">
<title>cluster_2</title>
<polygon fill="transparent" stroke="black" stroke-dasharray="1,5" points="172,-8 172,-40 314,-40 314,-8 172,-8"/>
</g>
<!-- c_0_103 -->
<g id="node1" class="node">
<title>c_0_103</title>
<g id="a_node1"><a xlink:href="c_0_103.html" xlink:title="{0 ≤ 1}" target="_parent">
<polygon fill="#f8edd1" stroke="#7f7542" points="322,-173 322,-188 362,-188 362,-173 322,-173"/>
<text text-anchor="middle" x="342" y="-176.8" font-family="Times,serif" font-size="14.00">0 ≤ 1</text>
</a>
</g>
</g>
<!-- c_0_122 -->
<g id="node5" class="node">
<title>c_0_122</title>
<g id="a_node5"><a xlink:href="c_0_122.html" xlink:title="{2 ≤ (sk₁!) + 1|⇊|sk₄((sk₁!) + 1) = 1}" target="_parent">
<polygon fill="#fa6900" stroke="#7f7542" points="178,-68.5 178,-113.5 308,-113.5 308,-68.5 178,-68.5"/>
<text text-anchor="middle" x="243" y="-102.3" font-family="Times,serif" font-size="14.00">2 ≤ (sk₁!) + 1</text>
<polyline fill="none" stroke="#7f7542" points="178,-98.5 308,-98.5 "/>
<text text-anchor="middle" x="243" y="-87.3" font-family="Times,serif" font-size="14.00">⇊</text>
<polyline fill="none" stroke="#7f7542" points="178,-83.5 308,-83.5 "/>
<text text-anchor="middle" x="243" y="-72.3" font-family="Times,serif" font-size="14.00">sk₄((sk₁!) + 1) = 1</text>
</a>
</g>
</g>
<!-- c_0_103&#45;&gt;c_0_122 -->
<g id="edge1" class="edge">
<title>c_0_103&#45;&gt;c_0_122</title>
<path fill="none" stroke="black" d="M342,-172.87C342,-151.23 342,-91 342,-91 342,-91 318.21,-91 318.21,-91"/>
<polygon fill="black" stroke="black" points="318.21,-87.5 308.21,-91 318.21,-94.5 318.21,-87.5"/>
</g>
<!-- c_0_100 -->
<g id="node2" class="node">
<title>c_0_100</title>
<g id="a_node2"><a xlink:href="c_0_100.html" xlink:title="{0 ∈ ℕ}" target="_parent">
<polygon fill="#f8edd1" stroke="#7f7542" points="262,-173 262,-188 304,-188 304,-173 262,-173"/>
<text text-anchor="middle" x="283" y="-176.8" font-family="Times,serif" font-size="14.00">0 ∈ ℕ</text>
</a>
</g>
</g>
<!-- c_0_100&#45;&gt;c_0_122 -->
<g id="edge2" class="edge">
<title>c_0_100&#45;&gt;c_0_122</title>
<path fill="none" stroke="black" d="M283,-172.87C283,-172.87 283,-123.81 283,-123.81"/>
<polygon fill="black" stroke="black" points="286.5,-123.81 283,-113.81 279.5,-123.81 286.5,-123.81"/>
</g>
<!-- c_0_109 -->
<g id="node3" class="node">
<title>c_0_109</title>
<g id="a_node3"><a xlink:href="c_0_109.html" xlink:title="{2 ≤ N₁|sk₄(N₁) ≤ 1|⇊|⊥}" target="_parent">
<polygon fill="#f8edd1" stroke="#7f7542" points="164.5,-150.5 164.5,-210.5 243.5,-210.5 243.5,-150.5 164.5,-150.5"/>
<text text-anchor="middle" x="204" y="-199.3" font-family="Times,serif" font-size="14.00">2 ≤ N₁</text>
<polyline fill="none" stroke="#7f7542" points="164.5,-195.5 243.5,-195.5 "/>
<text text-anchor="middle" x="204" y="-184.3" font-family="Times,serif" font-size="14.00">sk₄(N₁) ≤ 1</text>
<polyline fill="none" stroke="#7f7542" points="164.5,-180.5 243.5,-180.5 "/>
<text text-anchor="middle" x="204" y="-169.3" font-family="Times,serif" font-size="14.00">⇊</text>
<polyline fill="none" stroke="#7f7542" points="164.5,-165.5 243.5,-165.5 "/>
<text text-anchor="middle" x="204" y="-154.3" font-family="Times,serif" font-size="14.00">⊥</text>
</a>
</g>
</g>
<!-- c_0_109&#45;&gt;c_0_122 -->
<g id="edge3" class="edge">
<title>c_0_109&#45;&gt;c_0_122</title>
<path fill="none" stroke="black" d="M210.75,-150.2C210.75,-150.2 210.75,-123.63 210.75,-123.63"/>
<polygon fill="black" stroke="black" points="214.25,-123.63 210.75,-113.63 207.25,-123.63 214.25,-123.63"/>
</g>
<!-- c_0_102 -->
<g id="node4" class="node">
<title>c_0_102</title>
<g id="a_node4"><a xlink:href="c_0_102.html" xlink:title="{2 ≤ (sk₁!) + 1|⇊|sk₄((sk₁!) + 1) = 0|sk₄((sk₁!) + 1) = 1}" target="_parent">
<polygon fill="#fa6900" stroke="#7f7542" points="16,-150.5 16,-210.5 146,-210.5 146,-150.5 16,-150.5"/>
<text text-anchor="middle" x="81" y="-199.3" font-family="Times,serif" font-size="14.00">2 ≤ (sk₁!) + 1</text>
<polyline fill="none" stroke="#7f7542" points="16,-195.5 146,-195.5 "/>
<text text-anchor="middle" x="81" y="-184.3" font-family="Times,serif" font-size="14.00">⇊</text>
<polyline fill="none" stroke="#7f7542" points="16,-180.5 146,-180.5 "/>
<text text-anchor="middle" x="81" y="-169.3" font-family="Times,serif" font-size="14.00">sk₄((sk₁!) + 1) = 0</text>
<polyline fill="none" stroke="#7f7542" points="16,-165.5 146,-165.5 "/>
<text text-anchor="middle" x="81" y="-154.3" font-family="Times,serif" font-size="14.00">sk₄((sk₁!) + 1) = 1</text>
</a>
</g>
</g>
<!-- c_0_102&#45;&gt;c_0_122 -->
<g id="edge4" class="edge">
<title>c_0_102&#45;&gt;c_0_122</title>
<path fill="none" stroke="black" d="M81,-150.2C81,-124.23 81,-91 81,-91 81,-91 167.58,-91 167.58,-91"/>
<polygon fill="black" stroke="black" points="167.58,-94.5 177.58,-91 167.58,-87.5 167.58,-94.5"/>
</g>
<!-- c_0_135 -->
<g id="node6" class="node">
<title>c_0_135</title>
<g id="a_node6"><a xlink:href="c_0_135.html" xlink:title="{¬ (2 ≤ (sk₁!) + 1)}" target="_parent">
<polygon fill="#fa6900" stroke="#7f7542" points="180.5,-16.5 180.5,-31.5 305.5,-31.5 305.5,-16.5 180.5,-16.5"/>
<text text-anchor="middle" x="243" y="-20.3" font-family="Times,serif" font-size="14.00">¬ (2 ≤ (sk₁!) + 1)</text>
</a>
</g>
</g>
<!-- c_0_122&#45;&gt;c_0_135 -->
<g id="edge5" class="edge">
<title>c_0_122&#45;&gt;c_0_135</title>
<path fill="none" stroke="black" stroke-dasharray="5,2" d="M243,-68.32C243,-68.32 243,-41.59 243,-41.59"/>
<polygon fill="black" stroke="black" points="246.5,-41.59 243,-31.59 239.5,-41.59 246.5,-41.59"/>
</g>
</g>
</svg>
