<?xml version="1.0" encoding="UTF-8" standalone="no"?>
<!DOCTYPE svg PUBLIC "-//W3C//DTD SVG 1.1//EN"
 "http://www.w3.org/Graphics/SVG/1.1/DTD/svg11.dtd">
<!-- Generated by graphviz version 5.0.0 (0)
 -->
<!-- Title: proof Pages: 1 -->
<svg width="122pt" height="160pt"
 viewBox="0.00 0.00 122.00 160.00" xmlns="http://www.w3.org/2000/svg" xmlns:xlink="http://www.w3.org/1999/xlink">
<g id="graph0" class="graph" transform="scale(1 1) rotate(0) translate(4 156)">
<title>proof</title>
<polygon fill="white" stroke="transparent" points="-4,4 -4,-156 118,-156 118,4 -4,4"/>
<g id="clust1" class="cluster">
<title>cluster_0</title>
<polygon fill="none" stroke="black" stroke-dasharray="1,5" points="8,-112 8,-144 106,-144 106,-112 8,-112"/>
</g>
<g id="clust2" class="cluster">
<title>cluster_1</title>
<polygon fill="none" stroke="black" stroke-width="2" points="8,-60 8,-92 106,-92 106,-60 8,-60"/>
</g>
<g id="clust3" class="cluster">
<title>cluster_2</title>
<polygon fill="none" stroke="black" stroke-dasharray="1,5" points="8,-8 8,-40 106,-40 106,-8 8,-8"/>
</g>
<!-- rc4_xreal_0 -->
<g id="node1" class="node">
<title>rc4_xreal_0</title>
<g id="a_node1"><a xlink:href="None" xlink:title="rc4_xreal_0" target="_blank">
<polygon fill="#69d2e7" stroke="#7f7542" points="16,-120.5 16,-135.5 98,-135.5 98,-120.5 16,-120.5"/>
<text text-anchor="middle" x="57" y="-124.3" font-family="Times,serif" font-size="14.00">rc4_xreal_0</text>
</a>
</g>
</g>
<!-- c_0_40 -->
<g id="node2" class="node">
<title>c_0_40</title>
<g id="a_node2"><a xlink:href="c_0_40.html" xlink:title="{esk3_0 = Ø}" target="_parent">
<polygon fill="#f8edd1" stroke="#7f7542" points="16,-68.5 16,-83.5 98,-83.5 98,-68.5 16,-68.5"/>
<text text-anchor="middle" x="57" y="-72.3" font-family="Times,serif" font-size="14.00">esk3_0 = Ø</text>
</a>
</g>
</g>
<!-- rc4_xreal_0&#45;&gt;c_0_40 -->
<g id="edge1" class="edge">
<title>rc4_xreal_0&#45;&gt;c_0_40</title>
<path fill="none" stroke="black" d="M57,-120.33C57,-120.33 57,-93.7 57,-93.7"/>
<polygon fill="black" stroke="black" points="60.5,-93.7 57,-83.7 53.5,-93.7 60.5,-93.7"/>
</g>
<!-- c_0_60 -->
<g id="node3" class="node">
<title>c_0_60</title>
<g id="a_node3"><a xlink:href="c_0_60.html" xlink:title="{Ø = esk3_0}" target="_parent">
<polygon fill="#f8edd1" stroke="#7f7542" points="16,-16.5 16,-31.5 98,-31.5 98,-16.5 16,-16.5"/>
<text text-anchor="middle" x="57" y="-20.3" font-family="Times,serif" font-size="14.00">Ø = esk3_0</text>
</a>
</g>
</g>
<!-- c_0_40&#45;&gt;c_0_60 -->
<g id="edge2" class="edge">
<title>c_0_40&#45;&gt;c_0_60</title>
<path fill="none" stroke="black" stroke-dasharray="5,2" d="M57,-68.33C57,-68.33 57,-41.7 57,-41.7"/>
<polygon fill="black" stroke="black" points="60.5,-41.7 57,-31.7 53.5,-41.7 60.5,-41.7"/>
</g>
</g>
</svg>
