<?xml version="1.0" encoding="UTF-8" standalone="no"?>
<!DOCTYPE svg PUBLIC "-//W3C//DTD SVG 1.1//EN"
 "http://www.w3.org/Graphics/SVG/1.1/DTD/svg11.dtd">
<!-- Generated by graphviz version 5.0.0 (0)
 -->
<!-- Title: proof Pages: 1 -->
<svg width="122pt" height="160pt"
 viewBox="0.00 0.00 122.00 160.00" xmlns="http://www.w3.org/2000/svg" xmlns:xlink="http://www.w3.org/1999/xlink">
<g id="graph0" class="graph" transform="scale(1 1) rotate(0) translate(4 156)">
<title>proof</title>
<polygon fill="white" stroke="transparent" points="-4,4 -4,-156 118,-156 118,4 -4,4"/>
<g id="clust1" class="cluster">
<title>cluster_0</title>
<polygon fill="none" stroke="black" stroke-dasharray="1,5" points="8,-112 8,-144 106,-144 106,-112 8,-112"/>
</g>
<g id="clust2" class="cluster">
<title>cluster_1</title>
<polygon fill="none" stroke="black" stroke-width="2" points="24,-60 24,-92 90,-92 90,-60 24,-60"/>
</g>
<g id="clust3" class="cluster">
<title>cluster_2</title>
<polygon fill="none" stroke="black" stroke-dasharray="1,5" points="14,-8 14,-40 100,-40 100,-8 14,-8"/>
</g>
<!-- fc7_newton -->
<g id="node1" class="node">
<title>fc7_newton</title>
<g id="a_node1"><a xlink:href="http://grid01.ciirc.cvut.cz/~mptp/7.13.01_4.181.1147/html/newton.html#FC7" xlink:title="fc7_newton" target="_blank">
<polygon fill="#69d2e7" stroke="#7f7542" points="16,-120.5 16,-135.5 98,-135.5 98,-120.5 16,-120.5"/>
<text text-anchor="middle" x="57" y="-124.3" font-family="Times,serif" font-size="14.00">fc7_newton</text>
</a>
</g>
</g>
<!-- c_0_71 -->
<g id="node2" class="node">
<title>c_0_71</title>
<g id="a_node2"><a xlink:href="c_0_71.html" xlink:title="c_0_71" target="_parent">
<polygon fill="#f8edd1" stroke="#7f7542" points="32.5,-68.5 32.5,-83.5 81.5,-83.5 81.5,-68.5 32.5,-68.5"/>
<text text-anchor="middle" x="57" y="-72.3" font-family="Times,serif" font-size="14.00">c_0_71</text>
</a>
</g>
</g>
<!-- fc7_newton&#45;&gt;c_0_71 -->
<g id="edge1" class="edge">
<title>fc7_newton&#45;&gt;c_0_71</title>
<path fill="none" stroke="black" d="M57,-120.33C57,-120.33 57,-93.7 57,-93.7"/>
<polygon fill="black" stroke="black" points="60.5,-93.7 57,-83.7 53.5,-93.7 60.5,-93.7"/>
</g>
<!-- c_0_78 -->
<g id="node3" class="node">
<title>c_0_78</title>
<g id="a_node3"><a xlink:href="c_0_78.html" xlink:title="{(N1!) ∈ ℕ}" target="_parent">
<polygon fill="#f8edd1" stroke="#7f7542" points="22,-16.5 22,-31.5 92,-31.5 92,-16.5 22,-16.5"/>
<text text-anchor="middle" x="57" y="-20.3" font-family="Times,serif" font-size="14.00">(N1!) ∈ ℕ</text>
</a>
</g>
</g>
<!-- c_0_71&#45;&gt;c_0_78 -->
<g id="edge2" class="edge">
<title>c_0_71&#45;&gt;c_0_78</title>
<path fill="none" stroke="black" stroke-dasharray="5,2" d="M57,-68.33C57,-68.33 57,-41.7 57,-41.7"/>
<polygon fill="black" stroke="black" points="60.5,-41.7 57,-31.7 53.5,-41.7 60.5,-41.7"/>
</g>
</g>
</svg>
