<?xml version="1.0" encoding="UTF-8" standalone="no"?>
<!DOCTYPE svg PUBLIC "-//W3C//DTD SVG 1.1//EN"
 "http://www.w3.org/Graphics/SVG/1.1/DTD/svg11.dtd">
<!-- Generated by graphviz version 5.0.0 (0)
 -->
<!-- Title: proof Pages: 1 -->
<svg width="400pt" height="310pt"
 viewBox="0.00 0.00 400.00 310.00" xmlns="http://www.w3.org/2000/svg" xmlns:xlink="http://www.w3.org/1999/xlink">
<g id="graph0" class="graph" transform="scale(1 1) rotate(0) translate(4 306)">
<title>proof</title>
<g id="clust1" class="cluster">
<title>cluster_0</title>
<polygon fill="transparent" stroke="black" stroke-dasharray="1,5" points="8,-217 8,-294 384,-294 384,-217 8,-217"/>
</g>
<g id="clust2" class="cluster">
<title>cluster_1</title>
<polygon fill="transparent" stroke="black" stroke-width="2" points="106,-105 106,-197 256,-197 256,-105 106,-105"/>
</g>
<g id="clust3" class="cluster">
<title>cluster_2</title>
<polygon fill="transparent" stroke="black" stroke-dasharray="1,5" points="108,-8 108,-85 254,-85 254,-8 108,-8"/>
</g>
<!-- c_0_74 -->
<g id="node1" class="node">
<title>c_0_74</title>
<g id="a_node1"><a xlink:href="c_0_74.html" xlink:title="{2 ≤ N₁ + 1|sk₄(N₁ + 1) । N₁|⇊|sk₄(N₁ + 1) = 1}" target="_parent">
<polygon fill="#f8edd1" stroke="#7f7542" points="264.5,-225.5 264.5,-285.5 375.5,-285.5 375.5,-225.5 264.5,-225.5"/>
<text text-anchor="middle" x="320" y="-274.3" font-family="Times,serif" font-size="14.00">2 ≤ N₁ + 1</text>
<polyline fill="none" stroke="#7f7542" points="264.5,-270.5 375.5,-270.5 "/>
<text text-anchor="middle" x="320" y="-259.3" font-family="Times,serif" font-size="14.00">sk₄(N₁ + 1) । N₁</text>
<polyline fill="none" stroke="#7f7542" points="264.5,-255.5 375.5,-255.5 "/>
<text text-anchor="middle" x="320" y="-244.3" font-family="Times,serif" font-size="14.00">⇊</text>
<polyline fill="none" stroke="#7f7542" points="264.5,-240.5 375.5,-240.5 "/>
<text text-anchor="middle" x="320" y="-229.3" font-family="Times,serif" font-size="14.00">sk₄(N₁ + 1) = 1</text>
</a>
</g>
</g>
<!-- c_0_89 -->
<g id="node5" class="node">
<title>c_0_89</title>
<g id="a_node5"><a xlink:href="c_0_89.html" xlink:title="{2 ≤ (N₁!) + 1|sk₄((N₁!) + 1) ≤ N₁|⇊|sk₄((N₁!) + 1) = 0|sk₄((N₁!) + 1) = 1}" target="_parent">
<polygon fill="#f8edd1" stroke="#7f7542" points="114,-113.5 114,-188.5 248,-188.5 248,-113.5 114,-113.5"/>
<text text-anchor="middle" x="181" y="-177.3" font-family="Times,serif" font-size="14.00">2 ≤ (N₁!) + 1</text>
<polyline fill="none" stroke="#7f7542" points="114,-173.5 248,-173.5 "/>
<text text-anchor="middle" x="181" y="-162.3" font-family="Times,serif" font-size="14.00">sk₄((N₁!) + 1) ≤ N₁</text>
<polyline fill="none" stroke="#7f7542" points="114,-158.5 248,-158.5 "/>
<text text-anchor="middle" x="181" y="-147.3" font-family="Times,serif" font-size="14.00">⇊</text>
<polyline fill="none" stroke="#7f7542" points="114,-143.5 248,-143.5 "/>
<text text-anchor="middle" x="181" y="-132.3" font-family="Times,serif" font-size="14.00">sk₄((N₁!) + 1) = 0</text>
<polyline fill="none" stroke="#7f7542" points="114,-128.5 248,-128.5 "/>
<text text-anchor="middle" x="181" y="-117.3" font-family="Times,serif" font-size="14.00">sk₄((N₁!) + 1) = 1</text>
</a>
</g>
</g>
<!-- c_0_74&#45;&gt;c_0_89 -->
<g id="edge1" class="edge">
<title>c_0_74&#45;&gt;c_0_89</title>
<path fill="none" stroke="black" d="M264.49,-236C244.75,-236 227.33,-236 227.33,-236 227.33,-236 227.33,-198.53 227.33,-198.53"/>
<polygon fill="black" stroke="black" points="230.83,-198.53 227.33,-188.53 223.83,-198.53 230.83,-198.53"/>
</g>
<!-- c_0_78 -->
<g id="node2" class="node">
<title>c_0_78</title>
<g id="a_node2"><a xlink:href="c_0_78.html" xlink:title="{N₁! ∈ ℕ}" target="_parent">
<polygon fill="#f8edd1" stroke="#7f7542" points="190,-248 190,-263 246,-263 246,-248 190,-248"/>
<text text-anchor="middle" x="218" y="-251.8" font-family="Times,serif" font-size="14.00">N₁! ∈ ℕ</text>
</a>
</g>
</g>
<!-- c_0_78&#45;&gt;c_0_89 -->
<g id="edge2" class="edge">
<title>c_0_78&#45;&gt;c_0_89</title>
<path fill="none" stroke="black" d="M208.67,-247.98C208.67,-247.98 208.67,-198.52 208.67,-198.52"/>
<polygon fill="black" stroke="black" points="212.17,-198.52 208.67,-188.52 205.17,-198.52 212.17,-198.52"/>
</g>
<!-- c_0_82 -->
<g id="node3" class="node">
<title>c_0_82</title>
<g id="a_node3"><a xlink:href="c_0_82.html" xlink:title="{N₁ ≤ N₂|⇊|N₁ = 0|N₁ । N₂!}" target="_parent">
<polygon fill="#f8edd1" stroke="#7f7542" points="116,-225.5 116,-285.5 172,-285.5 172,-225.5 116,-225.5"/>
<text text-anchor="middle" x="144" y="-274.3" font-family="Times,serif" font-size="14.00">N₁ ≤ N₂</text>
<polyline fill="none" stroke="#7f7542" points="116,-270.5 172,-270.5 "/>
<text text-anchor="middle" x="144" y="-259.3" font-family="Times,serif" font-size="14.00">⇊</text>
<polyline fill="none" stroke="#7f7542" points="116,-255.5 172,-255.5 "/>
<text text-anchor="middle" x="144" y="-244.3" font-family="Times,serif" font-size="14.00">N₁ = 0</text>
<polyline fill="none" stroke="#7f7542" points="116,-240.5 172,-240.5 "/>
<text text-anchor="middle" x="144" y="-229.3" font-family="Times,serif" font-size="14.00">N₁ । N₂!</text>
</a>
</g>
</g>
<!-- c_0_82&#45;&gt;c_0_89 -->
<g id="edge3" class="edge">
<title>c_0_82&#45;&gt;c_0_89</title>
<path fill="none" stroke="black" d="M144,-225.27C144,-225.27 144,-198.59 144,-198.59"/>
<polygon fill="black" stroke="black" points="147.5,-198.59 144,-188.59 140.5,-198.59 147.5,-198.59"/>
</g>
<!-- c_0_55 -->
<g id="node4" class="node">
<title>c_0_55</title>
<g id="a_node4"><a xlink:href="c_0_55.html" xlink:title="{2 ≤ N₁|⇊|sk₄(N₁) ∈ ℕ}" target="_parent">
<polygon fill="#f8edd1" stroke="#7f7542" points="16,-233 16,-278 98,-278 98,-233 16,-233"/>
<text text-anchor="middle" x="57" y="-266.8" font-family="Times,serif" font-size="14.00">2 ≤ N₁</text>
<polyline fill="none" stroke="#7f7542" points="16,-263 98,-263 "/>
<text text-anchor="middle" x="57" y="-251.8" font-family="Times,serif" font-size="14.00">⇊</text>
<polyline fill="none" stroke="#7f7542" points="16,-248 98,-248 "/>
<text text-anchor="middle" x="57" y="-236.8" font-family="Times,serif" font-size="14.00">sk₄(N₁) ∈ ℕ</text>
</a>
</g>
</g>
<!-- c_0_55&#45;&gt;c_0_89 -->
<g id="edge4" class="edge">
<title>c_0_55&#45;&gt;c_0_89</title>
<path fill="none" stroke="black" d="M57,-232.83C57,-202.09 57,-151 57,-151 57,-151 103.92,-151 103.92,-151"/>
<polygon fill="black" stroke="black" points="103.92,-154.5 113.92,-151 103.92,-147.5 103.92,-154.5"/>
</g>
<!-- c_0_102 -->
<g id="node6" class="node">
<title>c_0_102</title>
<g id="a_node6"><a xlink:href="c_0_102.html" xlink:title="{2 ≤ (sk₁!) + 1|⇊|sk₄((sk₁!) + 1) = 0|sk₄((sk₁!) + 1) = 1}" target="_parent">
<polygon fill="#fa6900" stroke="#7f7542" points="116,-16.5 116,-76.5 246,-76.5 246,-16.5 116,-16.5"/>
<text text-anchor="middle" x="181" y="-65.3" font-family="Times,serif" font-size="14.00">2 ≤ (sk₁!) + 1</text>
<polyline fill="none" stroke="#7f7542" points="116,-61.5 246,-61.5 "/>
<text text-anchor="middle" x="181" y="-50.3" font-family="Times,serif" font-size="14.00">⇊</text>
<polyline fill="none" stroke="#7f7542" points="116,-46.5 246,-46.5 "/>
<text text-anchor="middle" x="181" y="-35.3" font-family="Times,serif" font-size="14.00">sk₄((sk₁!) + 1) = 0</text>
<polyline fill="none" stroke="#7f7542" points="116,-31.5 246,-31.5 "/>
<text text-anchor="middle" x="181" y="-20.3" font-family="Times,serif" font-size="14.00">sk₄((sk₁!) + 1) = 1</text>
</a>
</g>
</g>
<!-- c_0_89&#45;&gt;c_0_102 -->
<g id="edge5" class="edge">
<title>c_0_89&#45;&gt;c_0_102</title>
<path fill="none" stroke="black" stroke-dasharray="5,2" d="M181,-113.27C181,-113.27 181,-86.64 181,-86.64"/>
<polygon fill="black" stroke="black" points="184.5,-86.64 181,-76.64 177.5,-86.64 184.5,-86.64"/>
</g>
</g>
</svg>
