<?xml version="1.0" encoding="UTF-8" standalone="no"?>
<!DOCTYPE svg PUBLIC "-//W3C//DTD SVG 1.1//EN"
 "http://www.w3.org/Graphics/SVG/1.1/DTD/svg11.dtd">
<!-- Generated by graphviz version 5.0.0 (0)
 -->
<!-- Title: proof Pages: 1 -->
<svg width="206pt" height="220pt"
 viewBox="0.00 0.00 206.00 220.00" xmlns="http://www.w3.org/2000/svg" xmlns:xlink="http://www.w3.org/1999/xlink">
<g id="graph0" class="graph" transform="scale(1 1) rotate(0) translate(4 216)">
<title>proof</title>
<g id="clust1" class="cluster">
<title>cluster_0</title>
<polygon fill="transparent" stroke="black" stroke-dasharray="1,5" points="8,-142 8,-204 190,-204 190,-142 8,-142"/>
</g>
<g id="clust2" class="cluster">
<title>cluster_1</title>
<polygon fill="transparent" stroke="black" stroke-width="2" points="68,-60 68,-122 132,-122 132,-60 68,-60"/>
</g>
<g id="clust3" class="cluster">
<title>cluster_2</title>
<polygon fill="transparent" stroke="black" stroke-dasharray="1,5" points="66,-8 66,-40 134,-40 134,-8 66,-8"/>
</g>
<!-- c_0_62 -->
<g id="node1" class="node">
<title>c_0_62</title>
<g id="a_node1"><a xlink:href="c_0_62.html" xlink:title="{0 = 0}" target="_parent">
<polygon fill="#f8edd1" stroke="#7f7542" points="142,-165.5 142,-180.5 182,-180.5 182,-165.5 142,-165.5"/>
<text text-anchor="middle" x="162" y="-169.3" font-family="Times,serif" font-size="14.00">0 = 0</text>
</a>
</g>
</g>
<!-- c_0_52 -->
<g id="node4" class="node">
<title>c_0_52</title>
<g id="a_node4"><a xlink:href="c_0_52.html" xlink:title="{X₁ = Ø|⇊|X₁ = 0}" target="_parent">
<polygon fill="#f8edd1" stroke="#7f7542" points="76,-68.5 76,-113.5 124,-113.5 124,-68.5 76,-68.5"/>
<text text-anchor="middle" x="100" y="-102.3" font-family="Times,serif" font-size="14.00">X₁ = Ø</text>
<polyline fill="none" stroke="#7f7542" points="76,-98.5 124,-98.5 "/>
<text text-anchor="middle" x="100" y="-87.3" font-family="Times,serif" font-size="14.00">⇊</text>
<polyline fill="none" stroke="#7f7542" points="76,-83.5 124,-83.5 "/>
<text text-anchor="middle" x="100" y="-72.3" font-family="Times,serif" font-size="14.00">X₁ = 0</text>
</a>
</g>
</g>
<!-- c_0_62&#45;&gt;c_0_52 -->
<g id="edge1" class="edge">
<title>c_0_62&#45;&gt;c_0_52</title>
<path fill="none" stroke="black" d="M162,-165.43C162,-145.13 162,-91 162,-91 162,-91 134.15,-91 134.15,-91"/>
<polygon fill="black" stroke="black" points="134.15,-87.5 124.15,-91 134.15,-94.5 134.15,-87.5"/>
</g>
<!-- c_0_41 -->
<g id="node2" class="node">
<title>c_0_41</title>
<g id="a_node2"><a xlink:href="c_0_41.html" xlink:title="{X₁ = Ø|⇊|X₁ = Ø}" target="_parent">
<polygon fill="#f8edd1" stroke="#7f7542" points="76,-150.5 76,-195.5 124,-195.5 124,-150.5 76,-150.5"/>
<text text-anchor="middle" x="100" y="-184.3" font-family="Times,serif" font-size="14.00">X₁ = Ø</text>
<polyline fill="none" stroke="#7f7542" points="76,-180.5 124,-180.5 "/>
<text text-anchor="middle" x="100" y="-169.3" font-family="Times,serif" font-size="14.00">⇊</text>
<polyline fill="none" stroke="#7f7542" points="76,-165.5 124,-165.5 "/>
<text text-anchor="middle" x="100" y="-154.3" font-family="Times,serif" font-size="14.00">X₁ = Ø</text>
</a>
</g>
</g>
<!-- c_0_41&#45;&gt;c_0_52 -->
<g id="edge2" class="edge">
<title>c_0_41&#45;&gt;c_0_52</title>
<path fill="none" stroke="black" d="M100,-150.16C100,-150.16 100,-123.72 100,-123.72"/>
<polygon fill="black" stroke="black" points="103.5,-123.72 100,-113.72 96.5,-123.72 103.5,-123.72"/>
</g>
<!-- c_0_42 -->
<g id="node3" class="node">
<title>c_0_42</title>
<g id="a_node3"><a xlink:href="c_0_42.html" xlink:title="{0 = Ø}" target="_parent">
<polygon fill="#f8edd1" stroke="#7f7542" points="16,-165.5 16,-180.5 58,-180.5 58,-165.5 16,-165.5"/>
<text text-anchor="middle" x="37" y="-169.3" font-family="Times,serif" font-size="14.00">0 = Ø</text>
</a>
</g>
</g>
<!-- c_0_42&#45;&gt;c_0_52 -->
<g id="edge3" class="edge">
<title>c_0_42&#45;&gt;c_0_52</title>
<path fill="none" stroke="black" d="M37,-165.43C37,-145.13 37,-91 37,-91 37,-91 65.82,-91 65.82,-91"/>
<polygon fill="black" stroke="black" points="65.82,-94.5 75.82,-91 65.82,-87.5 65.82,-94.5"/>
</g>
<!-- c_0_112 -->
<g id="node5" class="node">
<title>c_0_112</title>
<g id="a_node5"><a xlink:href="c_0_112.html" xlink:title="{sk₃ = 0}" target="_parent">
<polygon fill="#f8edd1" stroke="#7f7542" points="74,-16.5 74,-31.5 126,-31.5 126,-16.5 74,-16.5"/>
<text text-anchor="middle" x="100" y="-20.3" font-family="Times,serif" font-size="14.00">sk₃ = 0</text>
</a>
</g>
</g>
<!-- c_0_52&#45;&gt;c_0_112 -->
<g id="edge5" class="edge">
<title>c_0_52&#45;&gt;c_0_112</title>
<path fill="none" stroke="black" stroke-dasharray="5,2" d="M100,-68.32C100,-68.32 100,-41.59 100,-41.59"/>
<polygon fill="black" stroke="black" points="103.5,-41.59 100,-31.59 96.5,-41.59 103.5,-41.59"/>
</g>
</g>
</svg>
