<?xml version="1.0" encoding="UTF-8" standalone="no"?>
<!DOCTYPE svg PUBLIC "-//W3C//DTD SVG 1.1//EN"
 "http://www.w3.org/Graphics/SVG/1.1/DTD/svg11.dtd">
<!-- Generated by graphviz version 5.0.0 (0)
 -->
<!-- Title: proof Pages: 1 -->
<svg width="671pt" height="295pt"
 viewBox="0.00 0.00 671.00 295.00" xmlns="http://www.w3.org/2000/svg" xmlns:xlink="http://www.w3.org/1999/xlink">
<g id="graph0" class="graph" transform="scale(1 1) rotate(0) translate(4 291)">
<title>proof</title>
<polygon fill="white" stroke="transparent" points="-4,4 -4,-291 667,-291 667,4 -4,4"/>
<g id="clust1" class="cluster">
<title>cluster_0</title>
<polygon fill="none" stroke="black" stroke-dasharray="1,5" points="8,-187 8,-279 655,-279 655,-187 8,-187"/>
</g>
<g id="clust2" class="cluster">
<title>cluster_1</title>
<polygon fill="none" stroke="black" stroke-width="2" points="253,-90 253,-167 455,-167 455,-90 253,-90"/>
</g>
<g id="clust3" class="cluster">
<title>cluster_2</title>
<polygon fill="none" stroke="black" stroke-dasharray="1,5" points="253,-8 253,-70 455,-70 455,-8 253,-8"/>
</g>
<!-- c_0_75 -->
<g id="node1" class="node">
<title>c_0_75</title>
<g id="a_node1"><a xlink:href="c_0_75.html" xlink:title="{2 ≤ N1|⇊|natural(esk4_1(N1))}" target="_parent">
<polygon fill="#f8edd1" stroke="#7f7542" points="503.5,-210.5 503.5,-255.5 646.5,-255.5 646.5,-210.5 503.5,-210.5"/>
<text text-anchor="middle" x="575" y="-244.3" font-family="Times,serif" font-size="14.00">2 ≤ N1</text>
<polyline fill="none" stroke="#7f7542" points="503.5,-240.5 646.5,-240.5 "/>
<text text-anchor="middle" x="575" y="-229.3" font-family="Times,serif" font-size="14.00">⇊</text>
<polyline fill="none" stroke="#7f7542" points="503.5,-225.5 646.5,-225.5 "/>
<text text-anchor="middle" x="575" y="-214.3" font-family="Times,serif" font-size="14.00">natural(esk4_1(N1))</text>
</a>
</g>
</g>
<!-- c_0_102 -->
<g id="node5" class="node">
<title>c_0_102</title>
<g id="a_node5"><a xlink:href="c_0_102.html" xlink:title="{2 ≤ ((esk1_0!) + 1)|⇊|esk4_1((esk1_0!) + 1) = 0|esk4_1((esk1_0!) + 1) = 1}" target="_parent">
<polygon fill="#fa6900" stroke="#7f7542" points="261.5,-98.5 261.5,-158.5 446.5,-158.5 446.5,-98.5 261.5,-98.5"/>
<text text-anchor="middle" x="354" y="-147.3" font-family="Times,serif" font-size="14.00">2 ≤ ((esk1_0!) + 1)</text>
<polyline fill="none" stroke="#7f7542" points="261.5,-143.5 446.5,-143.5 "/>
<text text-anchor="middle" x="354" y="-132.3" font-family="Times,serif" font-size="14.00">⇊</text>
<polyline fill="none" stroke="#7f7542" points="261.5,-128.5 446.5,-128.5 "/>
<text text-anchor="middle" x="354" y="-117.3" font-family="Times,serif" font-size="14.00">esk4_1((esk1_0!) + 1) = 0</text>
<polyline fill="none" stroke="#7f7542" points="261.5,-113.5 446.5,-113.5 "/>
<text text-anchor="middle" x="354" y="-102.3" font-family="Times,serif" font-size="14.00">esk4_1((esk1_0!) + 1) = 1</text>
</a>
</g>
</g>
<!-- c_0_75&#45;&gt;c_0_102 -->
<g id="edge1" class="edge">
<title>c_0_75&#45;&gt;c_0_102</title>
<path fill="none" stroke="black" d="M503.43,-217C463.61,-217 422,-217 422,-217 422,-217 422,-168.96 422,-168.96"/>
<polygon fill="black" stroke="black" points="425.5,-168.96 422,-158.96 418.5,-168.96 425.5,-168.96"/>
</g>
<!-- c_0_93 -->
<g id="node2" class="node">
<title>c_0_93</title>
<g id="a_node2"><a xlink:href="c_0_93.html" xlink:title="{natural(esk1_0)}" target="_parent">
<polygon fill="#fa6900" stroke="#7f7542" points="373,-225.5 373,-240.5 485,-240.5 485,-225.5 373,-225.5"/>
<text text-anchor="middle" x="429" y="-229.3" font-family="Times,serif" font-size="14.00">natural(esk1_0)</text>
</a>
</g>
</g>
<!-- c_0_93&#45;&gt;c_0_102 -->
<g id="edge2" class="edge">
<title>c_0_93&#45;&gt;c_0_102</title>
<path fill="none" stroke="black" d="M397.5,-225.48C397.5,-225.48 397.5,-168.79 397.5,-168.79"/>
<polygon fill="black" stroke="black" points="401,-168.79 397.5,-158.79 394,-168.79 401,-168.79"/>
</g>
<!-- c_0_97 -->
<g id="node3" class="node">
<title>c_0_97</title>
<g id="a_node3"><a xlink:href="c_0_97.html" xlink:title="{2 ≤ N1|⇊|esk4_1(N1) ≤ esk1_0}" target="_parent">
<polygon fill="#fa6900" stroke="#7f7542" points="203.5,-210.5 203.5,-255.5 354.5,-255.5 354.5,-210.5 203.5,-210.5"/>
<text text-anchor="middle" x="279" y="-244.3" font-family="Times,serif" font-size="14.00">2 ≤ N1</text>
<polyline fill="none" stroke="#7f7542" points="203.5,-240.5 354.5,-240.5 "/>
<text text-anchor="middle" x="279" y="-229.3" font-family="Times,serif" font-size="14.00">⇊</text>
<polyline fill="none" stroke="#7f7542" points="203.5,-225.5 354.5,-225.5 "/>
<text text-anchor="middle" x="279" y="-214.3" font-family="Times,serif" font-size="14.00">esk4_1(N1) ≤ esk1_0</text>
</a>
</g>
</g>
<!-- c_0_97&#45;&gt;c_0_102 -->
<g id="edge3" class="edge">
<title>c_0_97&#45;&gt;c_0_102</title>
<path fill="none" stroke="black" d="M323.5,-210.33C323.5,-210.33 323.5,-168.67 323.5,-168.67"/>
<polygon fill="black" stroke="black" points="327,-168.67 323.5,-158.67 320,-168.67 327,-168.67"/>
</g>
<!-- c_0_89 -->
<g id="node4" class="node">
<title>c_0_89</title>
<g id="a_node4"><a xlink:href="c_0_89.html" xlink:title="{2 ≤ ((N1!) + 1)|esk4_1((N1!) + 1) ≤ N1|⇊|esk4_1((N1!) + 1) = 0|esk4_1((N1!) + 1) = 1}" target="_parent">
<polygon fill="#f8edd1" stroke="#7f7542" points="16.5,-195.5 16.5,-270.5 185.5,-270.5 185.5,-195.5 16.5,-195.5"/>
<text text-anchor="middle" x="101" y="-259.3" font-family="Times,serif" font-size="14.00">2 ≤ ((N1!) + 1)</text>
<polyline fill="none" stroke="#7f7542" points="16.5,-255.5 185.5,-255.5 "/>
<text text-anchor="middle" x="101" y="-244.3" font-family="Times,serif" font-size="14.00">esk4_1((N1!) + 1) ≤ N1</text>
<polyline fill="none" stroke="#7f7542" points="16.5,-240.5 185.5,-240.5 "/>
<text text-anchor="middle" x="101" y="-229.3" font-family="Times,serif" font-size="14.00">⇊</text>
<polyline fill="none" stroke="#7f7542" points="16.5,-225.5 185.5,-225.5 "/>
<text text-anchor="middle" x="101" y="-214.3" font-family="Times,serif" font-size="14.00">esk4_1((N1!) + 1) = 0</text>
<polyline fill="none" stroke="#7f7542" points="16.5,-210.5 185.5,-210.5 "/>
<text text-anchor="middle" x="101" y="-199.3" font-family="Times,serif" font-size="14.00">esk4_1((N1!) + 1) = 1</text>
</a>
</g>
</g>
<!-- c_0_89&#45;&gt;c_0_102 -->
<g id="edge4" class="edge">
<title>c_0_89&#45;&gt;c_0_102</title>
<path fill="none" stroke="black" d="M185.55,-202C236.85,-202 292.5,-202 292.5,-202 292.5,-202 292.5,-168.82 292.5,-168.82"/>
<polygon fill="black" stroke="black" points="296,-168.82 292.5,-158.82 289,-168.82 296,-168.82"/>
</g>
<!-- c_0_122 -->
<g id="node6" class="node">
<title>c_0_122</title>
<g id="a_node6"><a xlink:href="c_0_122.html" xlink:title="{2 ≤ ((esk1_0!) + 1)|⇊|esk4_1((esk1_0!) + 1) = 1}" target="_parent">
<polygon fill="#fa6900" stroke="#7f7542" points="261.5,-16.5 261.5,-61.5 446.5,-61.5 446.5,-16.5 261.5,-16.5"/>
<text text-anchor="middle" x="354" y="-50.3" font-family="Times,serif" font-size="14.00">2 ≤ ((esk1_0!) + 1)</text>
<polyline fill="none" stroke="#7f7542" points="261.5,-46.5 446.5,-46.5 "/>
<text text-anchor="middle" x="354" y="-35.3" font-family="Times,serif" font-size="14.00">⇊</text>
<polyline fill="none" stroke="#7f7542" points="261.5,-31.5 446.5,-31.5 "/>
<text text-anchor="middle" x="354" y="-20.3" font-family="Times,serif" font-size="14.00">esk4_1((esk1_0!) + 1) = 1</text>
</a>
</g>
</g>
<!-- c_0_102&#45;&gt;c_0_122 -->
<g id="edge5" class="edge">
<title>c_0_102&#45;&gt;c_0_122</title>
<path fill="none" stroke="black" stroke-dasharray="5,2" d="M354,-98.2C354,-98.2 354,-71.63 354,-71.63"/>
<polygon fill="black" stroke="black" points="357.5,-71.63 354,-61.63 350.5,-71.63 357.5,-71.63"/>
</g>
</g>
</svg>
