<?xml version="1.0" encoding="UTF-8" standalone="no"?>
<!DOCTYPE svg PUBLIC "-//W3C//DTD SVG 1.1//EN"
 "http://www.w3.org/Graphics/SVG/1.1/DTD/svg11.dtd">
<!-- Generated by graphviz version 5.0.0 (0)
 -->
<!-- Title: proof Pages: 1 -->
<svg width="158pt" height="190pt"
 viewBox="0.00 0.00 158.00 190.00" xmlns="http://www.w3.org/2000/svg" xmlns:xlink="http://www.w3.org/1999/xlink">
<g id="graph0" class="graph" transform="scale(1 1) rotate(0) translate(4 186)">
<title>proof</title>
<polygon fill="white" stroke="transparent" points="-4,4 -4,-186 154,-186 154,4 -4,4"/>
<g id="clust1" class="cluster">
<title>cluster_0</title>
<polygon fill="none" stroke="black" stroke-dasharray="1,5" points="16,-142 16,-174 142,-174 142,-142 16,-142"/>
</g>
<g id="clust2" class="cluster">
<title>cluster_1</title>
<polygon fill="none" stroke="black" stroke-width="2" points="39,-90 39,-122 103,-122 103,-90 39,-90"/>
</g>
<g id="clust3" class="cluster">
<title>cluster_2</title>
<polygon fill="none" stroke="black" stroke-dasharray="1,5" points="8,-8 8,-70 134,-70 134,-8 8,-8"/>
</g>
<!-- c_0_57 -->
<g id="node1" class="node">
<title>c_0_57</title>
<g id="a_node1"><a xlink:href="c_0_57.html" xlink:title="{ω = ℕ}" target="_parent">
<polygon fill="#f8edd1" stroke="#7f7542" points="88,-150.5 88,-165.5 134,-165.5 134,-150.5 88,-150.5"/>
<text text-anchor="middle" x="111" y="-154.3" font-family="Times,serif" font-size="14.00">ω = ℕ</text>
</a>
</g>
</g>
<!-- c_0_67 -->
<g id="node3" class="node">
<title>c_0_67</title>
<g id="a_node3"><a xlink:href="c_0_67.html" xlink:title="{ℕ ⊆ ℕ}" target="_parent">
<polygon fill="#f8edd1" stroke="#7f7542" points="47.5,-98.5 47.5,-113.5 94.5,-113.5 94.5,-98.5 47.5,-98.5"/>
<text text-anchor="middle" x="71" y="-102.3" font-family="Times,serif" font-size="14.00">ℕ ⊆ ℕ</text>
</a>
</g>
</g>
<!-- c_0_57&#45;&gt;c_0_67 -->
<g id="edge1" class="edge">
<title>c_0_57&#45;&gt;c_0_67</title>
<path fill="none" stroke="black" d="M87.74,-158C82.78,-158 79,-158 79,-158 79,-158 79,-123.67 79,-123.67"/>
<polygon fill="black" stroke="black" points="82.5,-123.67 79,-113.67 75.5,-123.67 82.5,-123.67"/>
</g>
<!-- c_0_45 -->
<g id="node2" class="node">
<title>c_0_45</title>
<g id="a_node2"><a xlink:href="c_0_45.html" xlink:title="{ω ⊆ ℕ}" target="_parent">
<polygon fill="#f8edd1" stroke="#7f7542" points="24,-150.5 24,-165.5 70,-165.5 70,-150.5 24,-150.5"/>
<text text-anchor="middle" x="47" y="-154.3" font-family="Times,serif" font-size="14.00">ω ⊆ ℕ</text>
</a>
</g>
</g>
<!-- c_0_45&#45;&gt;c_0_67 -->
<g id="edge2" class="edge">
<title>c_0_45&#45;&gt;c_0_67</title>
<path fill="none" stroke="black" d="M58.75,-150.33C58.75,-150.33 58.75,-123.7 58.75,-123.7"/>
<polygon fill="black" stroke="black" points="62.25,-123.7 58.75,-113.7 55.25,-123.7 62.25,-123.7"/>
</g>
<!-- c_0_55 -->
<g id="node4" class="node">
<title>c_0_55</title>
<g id="a_node4"><a xlink:href="c_0_55.html" xlink:title="{2 ≤ N₁|⇊|esk4_1(N₁) ∈ ℕ}" target="_parent">
<polygon fill="#f8edd1" stroke="#7f7542" points="16.5,-16.5 16.5,-61.5 125.5,-61.5 125.5,-16.5 16.5,-16.5"/>
<text text-anchor="middle" x="71" y="-50.3" font-family="Times,serif" font-size="14.00">2 ≤ N₁</text>
<polyline fill="none" stroke="#7f7542" points="16.5,-46.5 125.5,-46.5 "/>
<text text-anchor="middle" x="71" y="-35.3" font-family="Times,serif" font-size="14.00">⇊</text>
<polyline fill="none" stroke="#7f7542" points="16.5,-31.5 125.5,-31.5 "/>
<text text-anchor="middle" x="71" y="-20.3" font-family="Times,serif" font-size="14.00">esk4_1(N₁) ∈ ℕ</text>
</a>
</g>
</g>
<!-- c_0_67&#45;&gt;c_0_55 -->
<g id="edge3" class="edge">
<title>c_0_67&#45;&gt;c_0_55</title>
<path fill="none" stroke="black" stroke-dasharray="5,2" d="M71,-98.31C71,-98.31 71,-71.76 71,-71.76"/>
<polygon fill="black" stroke="black" points="74.5,-71.76 71,-61.76 67.5,-71.76 74.5,-71.76"/>
</g>
</g>
</svg>
