<?xml version="1.0" encoding="UTF-8" standalone="no"?>
<!DOCTYPE svg PUBLIC "-//W3C//DTD SVG 1.1//EN"
 "http://www.w3.org/Graphics/SVG/1.1/DTD/svg11.dtd">
<!-- Generated by graphviz version 5.0.0 (0)
 -->
<!-- Title: proof Pages: 1 -->
<svg width="158pt" height="108pt"
 viewBox="0.00 0.00 158.00 108.00" xmlns="http://www.w3.org/2000/svg" xmlns:xlink="http://www.w3.org/1999/xlink">
<g id="graph0" class="graph" transform="scale(1 1) rotate(0) translate(4 104)">
<title>proof</title>
<polygon fill="white" stroke="transparent" points="-4,4 -4,-104 154,-104 154,4 -4,4"/>
<g id="clust1" class="cluster">
<title>cluster_1</title>
<polygon fill="none" stroke="black" stroke-width="2" points="8,-60 8,-92 142,-92 142,-60 8,-60"/>
</g>
<g id="clust2" class="cluster">
<title>cluster_2</title>
<polygon fill="none" stroke="black" stroke-dasharray="1,5" points="42,-8 42,-40 108,-40 108,-8 42,-8"/>
</g>
<!-- cc17_membered -->
<g id="node1" class="node">
<title>cc17_membered</title>
<g id="a_node1"><a xlink:href="http://grid01.ciirc.cvut.cz/~mptp/7.13.01_4.181.1147/html/membered.html#CC17" xlink:title="cc17_membered" target="_blank">
<polygon fill="#69d2e7" stroke="#7f7542" points="16.5,-68.5 16.5,-83.5 133.5,-83.5 133.5,-68.5 16.5,-68.5"/>
<text text-anchor="middle" x="75" y="-72.3" font-family="Times,serif" font-size="14.00">cc17_membered</text>
</a>
</g>
</g>
<!-- c_0_44 -->
<g id="node2" class="node">
<title>c_0_44</title>
<g id="a_node2"><a xlink:href="c_0_44.html" xlink:title="c_0_44" target="_parent">
<polygon fill="#f8edd1" stroke="#7f7542" points="50.5,-16.5 50.5,-31.5 99.5,-31.5 99.5,-16.5 50.5,-16.5"/>
<text text-anchor="middle" x="75" y="-20.3" font-family="Times,serif" font-size="14.00">c_0_44</text>
</a>
</g>
</g>
<!-- cc17_membered&#45;&gt;c_0_44 -->
<g id="edge1" class="edge">
<title>cc17_membered&#45;&gt;c_0_44</title>
<path fill="none" stroke="black" stroke-dasharray="5,2" d="M75,-68.33C75,-68.33 75,-41.7 75,-41.7"/>
<polygon fill="black" stroke="black" points="78.5,-41.7 75,-31.7 71.5,-41.7 78.5,-41.7"/>
</g>
</g>
</svg>
