<?xml version="1.0" encoding="UTF-8" standalone="no"?>
<!DOCTYPE svg PUBLIC "-//W3C//DTD SVG 1.1//EN"
 "http://www.w3.org/Graphics/SVG/1.1/DTD/svg11.dtd">
<!-- Generated by graphviz version 5.0.0 (0)
 -->
<!-- Title: proof Pages: 1 -->
<svg width="854pt" height="660pt"
 viewBox="0.00 0.00 854.00 660.00" xmlns="http://www.w3.org/2000/svg" xmlns:xlink="http://www.w3.org/1999/xlink">
<g id="graph0" class="graph" transform="scale(1 1) rotate(0) translate(4 656)">
<title>proof</title>
<g id="clust1" class="cluster">
<title>cluster_0</title>
<polygon fill="#ffc233" stroke="#ffc233" points="362.5,-8 362.5,-644 598.5,-644 598.5,-8 362.5,-8"/>
</g>
<!-- t72_newton -->
<g id="node1" class="node">
<title>t72_newton</title>
<g id="a_node1"><a xlink:href="t72_newton.html" xlink:title="t72_newton" target="_vizar">
<polygon fill="#fa6900" stroke="#7f7542" points="418.5,-620.5 418.5,-635.5 502.5,-635.5 502.5,-620.5 418.5,-620.5"/>
<text text-anchor="middle" x="460.5" y="-624.3" font-family="Times,serif" font-size="14.00">t72_newton</text>
</a>
</g>
</g>
<!-- c_0_76 -->
<g id="node2" class="node">
<title>c_0_76</title>
<g id="a_node2"><a xlink:href="c_0_76.html" xlink:title="{prime(N₁)|⇊|N₁ ≤ sk₁}" target="_vizar">
<polygon fill="#fa6900" stroke="#7f7542" points="452.5,-538.5 452.5,-583.5 522.5,-583.5 522.5,-538.5 452.5,-538.5"/>
<text text-anchor="middle" x="487.5" y="-572.3" font-family="Times,serif" font-size="14.00">prime(N₁)</text>
<polyline fill="none" stroke="#7f7542" points="452.5,-568.5 522.5,-568.5 "/>
<text text-anchor="middle" x="487.5" y="-557.3" font-family="Times,serif" font-size="14.00">⇊</text>
<polyline fill="none" stroke="#7f7542" points="452.5,-553.5 522.5,-553.5 "/>
<text text-anchor="middle" x="487.5" y="-542.3" font-family="Times,serif" font-size="14.00">N₁ ≤ sk₁</text>
</a>
</g>
</g>
<!-- t72_newton&#45;&gt;c_0_76 -->
<g id="edge1" class="edge">
<title>t72_newton&#45;&gt;c_0_76</title>
<path fill="none" stroke="black" d="M477.5,-620.31C477.5,-620.31 477.5,-593.76 477.5,-593.76"/>
<polygon fill="black" stroke="black" points="481,-593.76 477.5,-583.76 474,-593.76 481,-593.76"/>
</g>
<!-- c_0_98 -->
<g id="node4" class="node">
<title>c_0_98</title>
<g id="a_node4"><a xlink:href="c_0_98.html" xlink:title="{sk₁ ∈ ℕ}" target="_vizar">
<polygon fill="#fa6900" stroke="#7f7542" points="406.5,-456.5 406.5,-471.5 460.5,-471.5 460.5,-456.5 406.5,-456.5"/>
<text text-anchor="middle" x="433.5" y="-460.3" font-family="Times,serif" font-size="14.00">sk₁ ∈ ℕ</text>
</a>
</g>
</g>
<!-- t72_newton&#45;&gt;c_0_98 -->
<g id="edge3" class="edge">
<title>t72_newton&#45;&gt;c_0_98</title>
<path fill="none" stroke="black" d="M435.5,-620.09C435.5,-620.09 435.5,-481.83 435.5,-481.83"/>
<polygon fill="black" stroke="black" points="439,-481.83 435.5,-471.83 432,-481.83 439,-481.83"/>
</g>
<!-- c_0_97 -->
<g id="node3" class="node">
<title>c_0_97</title>
<g id="a_node3"><a xlink:href="c_0_97.html" xlink:title="{2 ≤ N₁|⇊|sk₄(N₁) ≤ sk₁}" target="_vizar">
<polygon fill="#fa6900" stroke="#7f7542" points="499,-441.5 499,-486.5 590,-486.5 590,-441.5 499,-441.5"/>
<text text-anchor="middle" x="544.5" y="-475.3" font-family="Times,serif" font-size="14.00">2 ≤ N₁</text>
<polyline fill="none" stroke="#7f7542" points="499,-471.5 590,-471.5 "/>
<text text-anchor="middle" x="544.5" y="-460.3" font-family="Times,serif" font-size="14.00">⇊</text>
<polyline fill="none" stroke="#7f7542" points="499,-456.5 590,-456.5 "/>
<text text-anchor="middle" x="544.5" y="-445.3" font-family="Times,serif" font-size="14.00">sk₄(N₁) ≤ sk₁</text>
</a>
</g>
</g>
<!-- c_0_76&#45;&gt;c_0_97 -->
<g id="edge2" class="edge">
<title>c_0_76&#45;&gt;c_0_97</title>
<path fill="none" stroke="black" d="M510.75,-538.01C510.75,-538.01 510.75,-496.82 510.75,-496.82"/>
<polygon fill="black" stroke="black" points="514.25,-496.82 510.75,-486.82 507.25,-496.82 514.25,-496.82"/>
</g>
<!-- c_0_139 -->
<g id="node9" class="node">
<title>c_0_139</title>
<g id="a_node9"><a xlink:href="c_0_139.html" xlink:title="{2 ≤ sk₁}" target="_vizar">
<polygon fill="#fa6900" stroke="#7f7542" points="538.5,-352 538.5,-367 590.5,-367 590.5,-352 538.5,-352"/>
<text text-anchor="middle" x="564.5" y="-355.8" font-family="Times,serif" font-size="14.00">2 ≤ sk₁</text>
</a>
</g>
</g>
<!-- c_0_76&#45;&gt;c_0_139 -->
<g id="edge9" class="edge">
<title>c_0_76&#45;&gt;c_0_139</title>
<path fill="none" stroke="black" d="M473.33,-538.26C473.33,-502.46 473.33,-437 473.33,-437 473.33,-437 572.83,-437 572.83,-437 572.83,-437 572.83,-377.21 572.83,-377.21"/>
<polygon fill="black" stroke="black" points="576.33,-377.21 572.83,-367.21 569.33,-377.21 576.33,-377.21"/>
</g>
<!-- c_0_106 -->
<g id="node5" class="node">
<title>c_0_106</title>
<g id="a_node5"><a xlink:href="c_0_106.html" xlink:title="{2 ≤ (sk₁!) + 1|⇊|sk₄((sk₁!) + 1) = 0|sk₄((sk₁!) + 1) = 1}" target="_vizar">
<polygon fill="#fa6900" stroke="#7f7542" points="370.5,-329.5 370.5,-389.5 500.5,-389.5 500.5,-329.5 370.5,-329.5"/>
<text text-anchor="middle" x="435.5" y="-378.3" font-family="Times,serif" font-size="14.00">2 ≤ (sk₁!) + 1</text>
<polyline fill="none" stroke="#7f7542" points="370.5,-374.5 500.5,-374.5 "/>
<text text-anchor="middle" x="435.5" y="-363.3" font-family="Times,serif" font-size="14.00">⇊</text>
<polyline fill="none" stroke="#7f7542" points="370.5,-359.5 500.5,-359.5 "/>
<text text-anchor="middle" x="435.5" y="-348.3" font-family="Times,serif" font-size="14.00">sk₄((sk₁!) + 1) = 0</text>
<polyline fill="none" stroke="#7f7542" points="370.5,-344.5 500.5,-344.5 "/>
<text text-anchor="middle" x="435.5" y="-333.3" font-family="Times,serif" font-size="14.00">sk₄((sk₁!) + 1) = 1</text>
</a>
</g>
</g>
<!-- c_0_97&#45;&gt;c_0_106 -->
<g id="edge5" class="edge">
<title>c_0_97&#45;&gt;c_0_106</title>
<path fill="none" stroke="black" d="M498.82,-448C491.44,-448 486.17,-448 486.17,-448 486.17,-448 486.17,-399.96 486.17,-399.96"/>
<polygon fill="black" stroke="black" points="489.67,-399.96 486.17,-389.96 482.67,-399.96 489.67,-399.96"/>
</g>
<!-- c_0_98&#45;&gt;c_0_106 -->
<g id="edge4" class="edge">
<title>c_0_98&#45;&gt;c_0_106</title>
<path fill="none" stroke="black" d="M433.5,-456.48C433.5,-456.48 433.5,-399.79 433.5,-399.79"/>
<polygon fill="black" stroke="black" points="437,-399.79 433.5,-389.79 430,-399.79 437,-399.79"/>
</g>
<!-- c_0_145 -->
<g id="node10" class="node">
<title>c_0_145</title>
<g id="a_node10"><a xlink:href="c_0_145.html" xlink:title="⊥" target="_vizar">
<polygon fill="#fa6900" stroke="#7f7542" points="576.5,-16.5 576.5,-31.5 590.5,-31.5 590.5,-16.5 576.5,-16.5"/>
<text text-anchor="middle" x="583.5" y="-20.3" font-family="Times,serif" font-size="14.00">⊥</text>
</a>
</g>
</g>
<!-- c_0_98&#45;&gt;c_0_145 -->
<g id="edge11" class="edge">
<title>c_0_98&#45;&gt;c_0_145</title>
<path fill="none" stroke="black" d="M406.42,-464C384.94,-464 358.5,-464 358.5,-464 358.5,-464 358.5,-24 358.5,-24 358.5,-24 566.01,-24 566.01,-24"/>
<polygon fill="black" stroke="black" points="566.01,-27.5 576.01,-24 566.01,-20.5 566.01,-27.5"/>
</g>
<!-- c_0_116 -->
<g id="node6" class="node">
<title>c_0_116</title>
<g id="a_node6"><a xlink:href="c_0_116.html" xlink:title="{2 ≤ (sk₁!) + 1|⇊|sk₄((sk₁!) + 1) = 1}" target="_vizar">
<polygon fill="#fa6900" stroke="#7f7542" points="370.5,-247.5 370.5,-292.5 500.5,-292.5 500.5,-247.5 370.5,-247.5"/>
<text text-anchor="middle" x="435.5" y="-281.3" font-family="Times,serif" font-size="14.00">2 ≤ (sk₁!) + 1</text>
<polyline fill="none" stroke="#7f7542" points="370.5,-277.5 500.5,-277.5 "/>
<text text-anchor="middle" x="435.5" y="-266.3" font-family="Times,serif" font-size="14.00">⇊</text>
<polyline fill="none" stroke="#7f7542" points="370.5,-262.5 500.5,-262.5 "/>
<text text-anchor="middle" x="435.5" y="-251.3" font-family="Times,serif" font-size="14.00">sk₄((sk₁!) + 1) = 1</text>
</a>
</g>
</g>
<!-- c_0_106&#45;&gt;c_0_116 -->
<g id="edge6" class="edge">
<title>c_0_106&#45;&gt;c_0_116</title>
<path fill="none" stroke="black" d="M435.5,-329.2C435.5,-329.2 435.5,-302.63 435.5,-302.63"/>
<polygon fill="black" stroke="black" points="439,-302.63 435.5,-292.63 432,-302.63 439,-302.63"/>
</g>
<!-- c_0_126 -->
<g id="node7" class="node">
<title>c_0_126</title>
<g id="a_node7"><a xlink:href="c_0_126.html" xlink:title="{¬ (2 ≤ (sk₁!) + 1)}" target="_vizar">
<polygon fill="#fa6900" stroke="#7f7542" points="373,-173 373,-188 498,-188 498,-173 373,-173"/>
<text text-anchor="middle" x="435.5" y="-176.8" font-family="Times,serif" font-size="14.00">¬ (2 ≤ (sk₁!) + 1)</text>
</a>
</g>
</g>
<!-- c_0_116&#45;&gt;c_0_126 -->
<g id="edge7" class="edge">
<title>c_0_116&#45;&gt;c_0_126</title>
<path fill="none" stroke="black" d="M435.5,-247.42C435.5,-247.42 435.5,-198.03 435.5,-198.03"/>
<polygon fill="black" stroke="black" points="439,-198.03 435.5,-188.03 432,-198.03 439,-198.03"/>
</g>
<!-- c_0_135 -->
<g id="node8" class="node">
<title>c_0_135</title>
<g id="a_node8"><a xlink:href="c_0_135.html" xlink:title="{¬ (2 ≤ sk₁!)}" target="_vizar">
<polygon fill="#fa6900" stroke="#7f7542" points="371,-83.5 371,-98.5 456,-98.5 456,-83.5 371,-83.5"/>
<text text-anchor="middle" x="413.5" y="-87.3" font-family="Times,serif" font-size="14.00">¬ (2 ≤ sk₁!)</text>
</a>
</g>
</g>
<!-- c_0_126&#45;&gt;c_0_135 -->
<g id="edge8" class="edge">
<title>c_0_126&#45;&gt;c_0_135</title>
<path fill="none" stroke="black" d="M414.5,-172.87C414.5,-172.87 414.5,-108.61 414.5,-108.61"/>
<polygon fill="black" stroke="black" points="418,-108.61 414.5,-98.61 411,-108.61 418,-108.61"/>
</g>
<!-- c_0_135&#45;&gt;c_0_145 -->
<g id="edge12" class="edge">
<title>c_0_135&#45;&gt;c_0_145</title>
<path fill="none" stroke="black" d="M456.2,-93C505.32,-93 579.3,-93 579.3,-93 579.3,-93 579.3,-41.65 579.3,-41.65"/>
<polygon fill="black" stroke="black" points="582.8,-41.65 579.3,-31.65 575.8,-41.65 582.8,-41.65"/>
</g>
<!-- c_0_139&#45;&gt;c_0_145 -->
<g id="edge10" class="edge">
<title>c_0_139&#45;&gt;c_0_145</title>
<path fill="none" stroke="black" d="M582.1,-351.86C582.1,-351.86 582.1,-41.77 582.1,-41.77"/>
<polygon fill="black" stroke="black" points="585.6,-41.77 582.1,-31.77 578.6,-41.77 585.6,-41.77"/>
</g>
<!-- c_0_136 -->
<g id="node11" class="node">
<title>c_0_136</title>
<g id="a_node11"><a xlink:href="c_0_136.html" xlink:title="{N₁ + N₂ ∈ ℕ}" target="_vizar">
<polygon fill="#f8edd1" stroke="#7f7542" points="206.5,-173 206.5,-188 294.5,-188 294.5,-173 206.5,-173"/>
<text text-anchor="middle" x="250.5" y="-176.8" font-family="Times,serif" font-size="14.00">N₁ + N₂ ∈ ℕ</text>
</a>
</g>
</g>
<!-- c_0_136&#45;&gt;c_0_135 -->
<g id="edge13" class="edge">
<title>c_0_136&#45;&gt;c_0_135</title>
<path fill="none" stroke="black" stroke-dasharray="5,2" d="M250.5,-172.95C250.5,-151.55 250.5,-92 250.5,-92 250.5,-92 360.67,-92 360.67,-92"/>
<polygon fill="black" stroke="black" points="360.67,-95.5 370.67,-92 360.67,-88.5 360.67,-95.5"/>
</g>
<!-- c_0_104 -->
<g id="node12" class="node">
<title>c_0_104</title>
<g id="a_node12"><a xlink:href="c_0_104.html" xlink:title="{2 ∈ ℕ}" target="_vizar">
<polygon fill="#f8edd1" stroke="#7f7542" points="671.5,-456.5 671.5,-471.5 713.5,-471.5 713.5,-456.5 671.5,-456.5"/>
<text text-anchor="middle" x="692.5" y="-460.3" font-family="Times,serif" font-size="14.00">2 ∈ ℕ</text>
</a>
</g>
</g>
<!-- c_0_104&#45;&gt;c_0_139 -->
<g id="edge15" class="edge">
<title>c_0_104&#45;&gt;c_0_139</title>
<path fill="none" stroke="black" stroke-dasharray="5,2" d="M671.05,-466C642.57,-466 595.83,-466 595.83,-466 595.83,-466 595.83,-359 595.83,-359 595.83,-359 595.32,-359 595.32,-359"/>
<polygon fill="black" stroke="black" points="600.66,-355.5 590.66,-359 600.66,-362.5 600.66,-355.5"/>
</g>
<!-- c_0_104&#45;&gt;c_0_145 -->
<g id="edge14" class="edge">
<title>c_0_104&#45;&gt;c_0_145</title>
<path fill="none" stroke="black" stroke-dasharray="5,2" d="M671.32,-461C644.34,-461 601.17,-461 601.17,-461 601.17,-461 601.17,-26 601.17,-26 601.17,-26 600.12,-26 600.12,-26"/>
<polygon fill="black" stroke="black" points="600.69,-22.5 590.69,-26 600.69,-29.5 600.69,-22.5"/>
</g>
<!-- c_0_128 -->
<g id="node13" class="node">
<title>c_0_128</title>
<g id="a_node13"><a xlink:href="c_0_128.html" xlink:title="{1 ∈ ℝ}" target="_vizar">
<polygon fill="#f8edd1" stroke="#7f7542" points="313,-173 313,-188 354,-188 354,-173 313,-173"/>
<text text-anchor="middle" x="333.5" y="-176.8" font-family="Times,serif" font-size="14.00">1 ∈ ℝ</text>
</a>
</g>
</g>
<!-- c_0_128&#45;&gt;c_0_135 -->
<g id="edge16" class="edge">
<title>c_0_128&#45;&gt;c_0_135</title>
<path fill="none" stroke="black" stroke-dasharray="5,2" d="M333.5,-172.82C333.5,-151.65 333.5,-94 333.5,-94 333.5,-94 360.69,-94 360.69,-94"/>
<polygon fill="black" stroke="black" points="360.69,-97.5 370.69,-94 360.69,-90.5 360.69,-97.5"/>
</g>
<!-- c_0_90 -->
<g id="node14" class="node">
<title>c_0_90</title>
<g id="a_node14"><a xlink:href="c_0_90.html" xlink:title="{2 ≤ N₁|⇊|prime(sk₄(N₁))}" target="_vizar">
<polygon fill="#f8edd1" stroke="#7f7542" points="606.5,-538.5 606.5,-583.5 708.5,-583.5 708.5,-538.5 606.5,-538.5"/>
<text text-anchor="middle" x="657.5" y="-572.3" font-family="Times,serif" font-size="14.00">2 ≤ N₁</text>
<polyline fill="none" stroke="#7f7542" points="606.5,-568.5 708.5,-568.5 "/>
<text text-anchor="middle" x="657.5" y="-557.3" font-family="Times,serif" font-size="14.00">⇊</text>
<polyline fill="none" stroke="#7f7542" points="606.5,-553.5 708.5,-553.5 "/>
<text text-anchor="middle" x="657.5" y="-542.3" font-family="Times,serif" font-size="14.00">prime(sk₄(N₁))</text>
</a>
</g>
</g>
<!-- c_0_90&#45;&gt;c_0_97 -->
<g id="edge17" class="edge">
<title>c_0_90&#45;&gt;c_0_97</title>
<path fill="none" stroke="black" stroke-dasharray="5,2" d="M640.25,-538.16C640.25,-513.9 640.25,-479 640.25,-479 640.25,-479 600.13,-479 600.13,-479"/>
<polygon fill="black" stroke="black" points="600.13,-475.5 590.13,-479 600.13,-482.5 600.13,-475.5"/>
</g>
<!-- c_0_138 -->
<g id="node15" class="node">
<title>c_0_138</title>
<g id="a_node15"><a xlink:href="c_0_138.html" xlink:title="{E₁ ≤ N₂|⇊|E₁ ≤ N₂!}" target="_vizar">
<polygon fill="#f8edd1" stroke="#7f7542" points="785,-68.5 785,-113.5 846,-113.5 846,-68.5 785,-68.5"/>
<text text-anchor="middle" x="815.5" y="-102.3" font-family="Times,serif" font-size="14.00">E₁ ≤ N₂</text>
<polyline fill="none" stroke="#7f7542" points="785,-98.5 846,-98.5 "/>
<text text-anchor="middle" x="815.5" y="-87.3" font-family="Times,serif" font-size="14.00">⇊</text>
<polyline fill="none" stroke="#7f7542" points="785,-83.5 846,-83.5 "/>
<text text-anchor="middle" x="815.5" y="-72.3" font-family="Times,serif" font-size="14.00">E₁ ≤ N₂!</text>
</a>
</g>
</g>
<!-- c_0_138&#45;&gt;c_0_145 -->
<g id="edge18" class="edge">
<title>c_0_138&#45;&gt;c_0_145</title>
<path fill="none" stroke="black" stroke-dasharray="5,2" d="M784.78,-75C722.6,-75 587.7,-75 587.7,-75 587.7,-75 587.7,-41.53 587.7,-41.53"/>
<polygon fill="black" stroke="black" points="591.2,-41.53 587.7,-31.53 584.2,-41.53 591.2,-41.53"/>
</g>
<!-- c_0_107 -->
<g id="node16" class="node">
<title>c_0_107</title>
<g id="a_node16"><a xlink:href="c_0_107.html" xlink:title="{0 ≤ 1}" target="_vizar">
<polygon fill="#f8edd1" stroke="#7f7542" points="102.5,-352 102.5,-367 142.5,-367 142.5,-352 102.5,-352"/>
<text text-anchor="middle" x="122.5" y="-355.8" font-family="Times,serif" font-size="14.00">0 ≤ 1</text>
</a>
</g>
</g>
<!-- c_0_107&#45;&gt;c_0_116 -->
<g id="edge20" class="edge">
<title>c_0_107&#45;&gt;c_0_116</title>
<path fill="none" stroke="black" stroke-dasharray="5,2" d="M122.5,-351.89C122.5,-332.54 122.5,-283 122.5,-283 122.5,-283 360.27,-283 360.27,-283"/>
<polygon fill="black" stroke="black" points="360.27,-286.5 370.27,-283 360.27,-279.5 360.27,-286.5"/>
</g>
<!-- c_0_107&#45;&gt;c_0_135 -->
<g id="edge19" class="edge">
<title>c_0_107&#45;&gt;c_0_135</title>
<path fill="none" stroke="black" stroke-dasharray="5,2" d="M142.63,-359C158.6,-359 178.25,-359 178.25,-359 178.25,-359 178.25,-89 178.25,-89 178.25,-89 360.9,-89 360.9,-89"/>
<polygon fill="black" stroke="black" points="360.9,-92.5 370.9,-89 360.9,-85.5 360.9,-92.5"/>
</g>
<!-- c_0_134 -->
<g id="node17" class="node">
<title>c_0_134</title>
<g id="a_node17"><a xlink:href="c_0_134.html" xlink:title="{prime(2)}" target="_vizar">
<polygon fill="#f8edd1" stroke="#7f7542" points="292.5,-456.5 292.5,-471.5 354.5,-471.5 354.5,-456.5 292.5,-456.5"/>
<text text-anchor="middle" x="323.5" y="-460.3" font-family="Times,serif" font-size="14.00">prime(2)</text>
</a>
</g>
</g>
<!-- c_0_134&#45;&gt;c_0_139 -->
<g id="edge21" class="edge">
<title>c_0_134&#45;&gt;c_0_139</title>
<path fill="none" stroke="black" stroke-dasharray="5,2" d="M331.5,-456.5C331.5,-447.32 331.5,-433 331.5,-433 331.5,-433 555.67,-433 555.67,-433 555.67,-433 555.67,-377.09 555.67,-377.09"/>
<polygon fill="black" stroke="black" points="559.17,-377.09 555.67,-367.09 552.17,-377.09 559.17,-377.09"/>
</g>
<!-- c_0_119 -->
<g id="node18" class="node">
<title>c_0_119</title>
<g id="a_node18"><a xlink:href="c_0_119.html" xlink:title="{0 ≤ R₂|2 ≤ R₁|⇊|2 ≤ R₁ + R₂}" target="_vizar">
<polygon fill="#f8edd1" stroke="#7f7542" points="0,-150.5 0,-210.5 83,-210.5 83,-150.5 0,-150.5"/>
<text text-anchor="middle" x="41.5" y="-199.3" font-family="Times,serif" font-size="14.00">0 ≤ R₂</text>
<polyline fill="none" stroke="#7f7542" points="0,-195.5 83,-195.5 "/>
<text text-anchor="middle" x="41.5" y="-184.3" font-family="Times,serif" font-size="14.00">2 ≤ R₁</text>
<polyline fill="none" stroke="#7f7542" points="0,-180.5 83,-180.5 "/>
<text text-anchor="middle" x="41.5" y="-169.3" font-family="Times,serif" font-size="14.00">⇊</text>
<polyline fill="none" stroke="#7f7542" points="0,-165.5 83,-165.5 "/>
<text text-anchor="middle" x="41.5" y="-154.3" font-family="Times,serif" font-size="14.00">2 ≤ R₁ + R₂</text>
</a>
</g>
</g>
<!-- c_0_119&#45;&gt;c_0_135 -->
<g id="edge22" class="edge">
<title>c_0_119&#45;&gt;c_0_135</title>
<path fill="none" stroke="black" stroke-dasharray="5,2" d="M41.5,-150.28C41.5,-122.3 41.5,-85 41.5,-85 41.5,-85 360.83,-85 360.83,-85"/>
<polygon fill="black" stroke="black" points="360.83,-88.5 370.83,-85 360.83,-81.5 360.83,-88.5"/>
</g>
<!-- c_0_137 -->
<g id="node19" class="node">
<title>c_0_137</title>
<g id="a_node19"><a xlink:href="c_0_137.html" xlink:title="{N₁ ∈ ℝ}" target="_vizar">
<polygon fill="#f8edd1" stroke="#7f7542" points="101,-173 101,-188 150,-188 150,-173 101,-173"/>
<text text-anchor="middle" x="125.5" y="-176.8" font-family="Times,serif" font-size="14.00">N₁ ∈ ℝ</text>
</a>
</g>
</g>
<!-- c_0_137&#45;&gt;c_0_135 -->
<g id="edge23" class="edge">
<title>c_0_137&#45;&gt;c_0_135</title>
<path fill="none" stroke="black" stroke-dasharray="5,2" d="M125.5,-172.85C125.5,-150.52 125.5,-87 125.5,-87 125.5,-87 360.69,-87 360.69,-87"/>
<polygon fill="black" stroke="black" points="360.69,-90.5 370.69,-87 360.69,-83.5 360.69,-90.5"/>
</g>
<!-- c_0_99 -->
<g id="node20" class="node">
<title>c_0_99</title>
<g id="a_node20"><a xlink:href="c_0_99.html" xlink:title="{0 ∈ ℕ}" target="_vizar">
<polygon fill="#f8edd1" stroke="#7f7542" points="310.5,-352 310.5,-367 352.5,-367 352.5,-352 310.5,-352"/>
<text text-anchor="middle" x="331.5" y="-355.8" font-family="Times,serif" font-size="14.00">0 ∈ ℕ</text>
</a>
</g>
</g>
<!-- c_0_99&#45;&gt;c_0_116 -->
<g id="edge24" class="edge">
<title>c_0_99&#45;&gt;c_0_116</title>
<path fill="none" stroke="black" stroke-dasharray="5,2" d="M332.75,-351.85C332.75,-333.4 332.75,-288 332.75,-288 332.75,-288 360.43,-288 360.43,-288"/>
<polygon fill="black" stroke="black" points="360.43,-291.5 370.43,-288 360.43,-284.5 360.43,-291.5"/>
</g>
<!-- c_0_105 -->
<g id="node21" class="node">
<title>c_0_105</title>
<g id="a_node21"><a xlink:href="c_0_105.html" xlink:title="{2 ≤ N₁|sk₄(N₁) ≤ 1|⇊|⊥}" target="_vizar">
<polygon fill="#f8edd1" stroke="#7f7542" points="609,-329.5 609,-389.5 688,-389.5 688,-329.5 609,-329.5"/>
<text text-anchor="middle" x="648.5" y="-378.3" font-family="Times,serif" font-size="14.00">2 ≤ N₁</text>
<polyline fill="none" stroke="#7f7542" points="609,-374.5 688,-374.5 "/>
<text text-anchor="middle" x="648.5" y="-363.3" font-family="Times,serif" font-size="14.00">sk₄(N₁) ≤ 1</text>
<polyline fill="none" stroke="#7f7542" points="609,-359.5 688,-359.5 "/>
<text text-anchor="middle" x="648.5" y="-348.3" font-family="Times,serif" font-size="14.00">⇊</text>
<polyline fill="none" stroke="#7f7542" points="609,-344.5 688,-344.5 "/>
<text text-anchor="middle" x="648.5" y="-333.3" font-family="Times,serif" font-size="14.00">⊥</text>
</a>
</g>
</g>
<!-- c_0_105&#45;&gt;c_0_116 -->
<g id="edge26" class="edge">
<title>c_0_105&#45;&gt;c_0_116</title>
<path fill="none" stroke="black" stroke-dasharray="5,2" d="M627.75,-329.2C627.75,-308.57 627.75,-285 627.75,-285 627.75,-285 510.59,-285 510.59,-285"/>
<polygon fill="black" stroke="black" points="510.59,-281.5 500.59,-285 510.59,-288.5 510.59,-281.5"/>
</g>
<!-- c_0_105&#45;&gt;c_0_126 -->
<g id="edge25" class="edge">
<title>c_0_105&#45;&gt;c_0_126</title>
<path fill="none" stroke="black" stroke-dasharray="5,2" d="M650.5,-329.36C650.5,-277.53 650.5,-177 650.5,-177 650.5,-177 508.26,-177 508.26,-177"/>
<polygon fill="black" stroke="black" points="508.26,-173.5 498.26,-177 508.26,-180.5 508.26,-173.5"/>
</g>
<!-- c_0_133 -->
<g id="node22" class="node">
<title>c_0_133</title>
<g id="a_node22"><a xlink:href="c_0_133.html" xlink:title="{N₁ ∈ 𝔼}" target="_vizar">
<polygon fill="#f8edd1" stroke="#7f7542" points="606.5,-83.5 606.5,-98.5 654.5,-98.5 654.5,-83.5 606.5,-83.5"/>
<text text-anchor="middle" x="630.5" y="-87.3" font-family="Times,serif" font-size="14.00">N₁ ∈ 𝔼</text>
</a>
</g>
</g>
<!-- c_0_133&#45;&gt;c_0_145 -->
<g id="edge27" class="edge">
<title>c_0_133&#45;&gt;c_0_145</title>
<path fill="none" stroke="black" stroke-dasharray="5,2" d="M606.36,-88C595.43,-88 584.9,-88 584.9,-88 584.9,-88 584.9,-41.85 584.9,-41.85"/>
<polygon fill="black" stroke="black" points="588.4,-41.85 584.9,-31.85 581.4,-41.85 588.4,-41.85"/>
</g>
<!-- c_0_117 -->
<g id="node23" class="node">
<title>c_0_117</title>
<g id="a_node23"><a xlink:href="c_0_117.html" xlink:title="{1 ≤ 1}" target="_vizar">
<polygon fill="#f8edd1" stroke="#7f7542" points="606.5,-262.5 606.5,-277.5 646.5,-277.5 646.5,-262.5 606.5,-262.5"/>
<text text-anchor="middle" x="626.5" y="-266.3" font-family="Times,serif" font-size="14.00">1 ≤ 1</text>
</a>
</g>
</g>
<!-- c_0_117&#45;&gt;c_0_126 -->
<g id="edge28" class="edge">
<title>c_0_117&#45;&gt;c_0_126</title>
<path fill="none" stroke="black" stroke-dasharray="5,2" d="M626.5,-262.28C626.5,-240.99 626.5,-183 626.5,-183 626.5,-183 508.04,-183 508.04,-183"/>
<polygon fill="black" stroke="black" points="508.04,-179.5 498.04,-183 508.04,-186.5 508.04,-179.5"/>
</g>
<!-- c_0_59 -->
<g id="node24" class="node">
<title>c_0_59</title>
<g id="a_node24"><a xlink:href="c_0_59.html" xlink:title="{2 ≤ N₁|⇊|sk₄(N₁) ∈ ℕ}" target="_vizar">
<polygon fill="#f8edd1" stroke="#7f7542" points="40.5,-441.5 40.5,-486.5 122.5,-486.5 122.5,-441.5 40.5,-441.5"/>
<text text-anchor="middle" x="81.5" y="-475.3" font-family="Times,serif" font-size="14.00">2 ≤ N₁</text>
<polyline fill="none" stroke="#7f7542" points="40.5,-471.5 122.5,-471.5 "/>
<text text-anchor="middle" x="81.5" y="-460.3" font-family="Times,serif" font-size="14.00">⇊</text>
<polyline fill="none" stroke="#7f7542" points="40.5,-456.5 122.5,-456.5 "/>
<text text-anchor="middle" x="81.5" y="-445.3" font-family="Times,serif" font-size="14.00">sk₄(N₁) ∈ ℕ</text>
</a>
</g>
</g>
<!-- c_0_59&#45;&gt;c_0_106 -->
<g id="edge29" class="edge">
<title>c_0_59&#45;&gt;c_0_106</title>
<path fill="none" stroke="black" stroke-dasharray="5,2" d="M112.5,-441.4C112.5,-415.92 112.5,-378 112.5,-378 112.5,-378 360.14,-378 360.14,-378"/>
<polygon fill="black" stroke="black" points="360.14,-381.5 370.14,-378 360.14,-374.5 360.14,-381.5"/>
</g>
<!-- c_0_96 -->
<g id="node25" class="node">
<title>c_0_96</title>
<g id="a_node25"><a xlink:href="c_0_96.html" xlink:title="{2 ≤ (N₁!) + 1|sk₄((N₁!) + 1) ≤ N₁|⇊|sk₄((N₁!) + 1) = 0|sk₄((N₁!) + 1) = 1}" target="_vizar">
<polygon fill="#f8edd1" stroke="#7f7542" points="140.5,-426.5 140.5,-501.5 274.5,-501.5 274.5,-426.5 140.5,-426.5"/>
<text text-anchor="middle" x="207.5" y="-490.3" font-family="Times,serif" font-size="14.00">2 ≤ (N₁!) + 1</text>
<polyline fill="none" stroke="#7f7542" points="140.5,-486.5 274.5,-486.5 "/>
<text text-anchor="middle" x="207.5" y="-475.3" font-family="Times,serif" font-size="14.00">sk₄((N₁!) + 1) ≤ N₁</text>
<polyline fill="none" stroke="#7f7542" points="140.5,-471.5 274.5,-471.5 "/>
<text text-anchor="middle" x="207.5" y="-460.3" font-family="Times,serif" font-size="14.00">⇊</text>
<polyline fill="none" stroke="#7f7542" points="140.5,-456.5 274.5,-456.5 "/>
<text text-anchor="middle" x="207.5" y="-445.3" font-family="Times,serif" font-size="14.00">sk₄((N₁!) + 1) = 0</text>
<polyline fill="none" stroke="#7f7542" points="140.5,-441.5 274.5,-441.5 "/>
<text text-anchor="middle" x="207.5" y="-430.3" font-family="Times,serif" font-size="14.00">sk₄((N₁!) + 1) = 1</text>
</a>
</g>
</g>
<!-- c_0_96&#45;&gt;c_0_106 -->
<g id="edge30" class="edge">
<title>c_0_96&#45;&gt;c_0_106</title>
<path fill="none" stroke="black" stroke-dasharray="5,2" d="M274.64,-429C326.15,-429 388.5,-429 388.5,-429 388.5,-429 388.5,-399.78 388.5,-399.78"/>
<polygon fill="black" stroke="black" points="392,-399.78 388.5,-389.78 385,-399.78 392,-399.78"/>
</g>
<!-- c_0_88 -->
<g id="node26" class="node">
<title>c_0_88</title>
<g id="a_node26"><a xlink:href="c_0_88.html" xlink:title="{N₁! ∈ ℕ}" target="_vizar">
<polygon fill="#f8edd1" stroke="#7f7542" points="672.5,-83.5 672.5,-98.5 728.5,-98.5 728.5,-83.5 672.5,-83.5"/>
<text text-anchor="middle" x="700.5" y="-87.3" font-family="Times,serif" font-size="14.00">N₁! ∈ ℕ</text>
</a>
</g>
</g>
<!-- c_0_88&#45;&gt;c_0_145 -->
<g id="edge31" class="edge">
<title>c_0_88&#45;&gt;c_0_145</title>
<path fill="none" stroke="black" stroke-dasharray="5,2" d="M700.5,-83.24C700.5,-65.02 700.5,-21 700.5,-21 700.5,-21 600.82,-21 600.82,-21"/>
<polygon fill="black" stroke="black" points="600.82,-17.5 590.82,-21 600.82,-24.5 600.82,-17.5"/>
</g>
<!-- c_0_45 -->
<g id="node27" class="node">
<title>c_0_45</title>
<g id="a_node27"><a xlink:href="c_0_45.html" xlink:title="{1 ∈ ℕ}" target="_vizar">
<polygon fill="#f8edd1" stroke="#7f7542" points="233.5,-262.5 233.5,-277.5 275.5,-277.5 275.5,-262.5 233.5,-262.5"/>
<text text-anchor="middle" x="254.5" y="-266.3" font-family="Times,serif" font-size="14.00">1 ∈ ℕ</text>
</a>
</g>
</g>
<!-- c_0_45&#45;&gt;c_0_126 -->
<g id="edge33" class="edge">
<title>c_0_45&#45;&gt;c_0_126</title>
<path fill="none" stroke="black" stroke-dasharray="5,2" d="M275.57,-272C308.01,-272 366.5,-272 366.5,-272 366.5,-272 366.5,-180 366.5,-180 366.5,-180 367.14,-180 367.14,-180"/>
<polygon fill="black" stroke="black" points="362.87,-183.5 372.87,-180 362.87,-176.5 362.87,-183.5"/>
</g>
<!-- c_0_45&#45;&gt;c_0_135 -->
<g id="edge32" class="edge">
<title>c_0_45&#45;&gt;c_0_135</title>
<path fill="none" stroke="black" stroke-dasharray="5,2" d="M275.58,-267C307.01,-267 362.5,-267 362.5,-267 362.5,-267 362.5,-96 362.5,-96 362.5,-96 363.34,-96 363.34,-96"/>
<polygon fill="black" stroke="black" points="360.92,-99.5 370.92,-96 360.92,-92.5 360.92,-99.5"/>
</g>
</g>
</svg>
