<?xml version="1.0" encoding="UTF-8" standalone="no"?>
<!DOCTYPE svg PUBLIC "-//W3C//DTD SVG 1.1//EN"
 "http://www.w3.org/Graphics/SVG/1.1/DTD/svg11.dtd">
<!-- Generated by graphviz version 5.0.0 (0)
 -->
<!-- Title: proof Pages: 1 -->
<svg width="746pt" height="660pt"
 viewBox="0.00 0.00 746.00 660.00" xmlns="http://www.w3.org/2000/svg" xmlns:xlink="http://www.w3.org/1999/xlink">
<g id="graph0" class="graph" transform="scale(1 1) rotate(0) translate(4 656)">
<title>proof</title>
<g id="clust1" class="cluster">
<title>cluster_0</title>
<polygon fill="#ffc233" stroke="#ffc233" points="102.5,-8 102.5,-644 338.5,-644 338.5,-8 102.5,-8"/>
</g>
<!-- t72_newton -->
<g id="node1" class="node">
<title>t72_newton</title>
<g id="a_node1"><a xlink:href="t72_newton.html" xlink:title="t72_newton" target="_parent">
<polygon fill="#fa6900" stroke="#7f7542" points="134.5,-620.5 134.5,-635.5 218.5,-635.5 218.5,-620.5 134.5,-620.5"/>
<text text-anchor="middle" x="176.5" y="-624.3" font-family="Times,serif" font-size="14.00">t72_newton</text>
</a>
</g>
</g>
<!-- c_0_80 -->
<g id="node2" class="node">
<title>c_0_80</title>
<g id="a_node2"><a xlink:href="c_0_80.html" xlink:title="{prime(N₁)|⇊|N₁ ≤ sk₁}" target="_parent">
<polygon fill="#fa6900" stroke="#7f7542" points="165.5,-538.5 165.5,-583.5 235.5,-583.5 235.5,-538.5 165.5,-538.5"/>
<text text-anchor="middle" x="200.5" y="-572.3" font-family="Times,serif" font-size="14.00">prime(N₁)</text>
<polyline fill="none" stroke="#7f7542" points="165.5,-568.5 235.5,-568.5 "/>
<text text-anchor="middle" x="200.5" y="-557.3" font-family="Times,serif" font-size="14.00">⇊</text>
<polyline fill="none" stroke="#7f7542" points="165.5,-553.5 235.5,-553.5 "/>
<text text-anchor="middle" x="200.5" y="-542.3" font-family="Times,serif" font-size="14.00">N₁ ≤ sk₁</text>
</a>
</g>
</g>
<!-- t72_newton&#45;&gt;c_0_80 -->
<g id="edge1" class="edge">
<title>t72_newton&#45;&gt;c_0_80</title>
<path fill="none" stroke="black" d="M192,-620.31C192,-620.31 192,-593.76 192,-593.76"/>
<polygon fill="black" stroke="black" points="195.5,-593.76 192,-583.76 188.5,-593.76 195.5,-593.76"/>
</g>
<!-- c_0_93 -->
<g id="node3" class="node">
<title>c_0_93</title>
<g id="a_node3"><a xlink:href="c_0_93.html" xlink:title="{sk₁ ∈ ℕ}" target="_parent">
<polygon fill="#fa6900" stroke="#7f7542" points="119.5,-456.5 119.5,-471.5 173.5,-471.5 173.5,-456.5 119.5,-456.5"/>
<text text-anchor="middle" x="146.5" y="-460.3" font-family="Times,serif" font-size="14.00">sk₁ ∈ ℕ</text>
</a>
</g>
</g>
<!-- t72_newton&#45;&gt;c_0_93 -->
<g id="edge2" class="edge">
<title>t72_newton&#45;&gt;c_0_93</title>
<path fill="none" stroke="black" d="M150,-620.09C150,-620.09 150,-481.83 150,-481.83"/>
<polygon fill="black" stroke="black" points="153.5,-481.83 150,-471.83 146.5,-481.83 153.5,-481.83"/>
</g>
<!-- c_0_97 -->
<g id="node4" class="node">
<title>c_0_97</title>
<g id="a_node4"><a xlink:href="c_0_97.html" xlink:title="{2 ≤ N₁|⇊|sk₄(N₁) ≤ sk₁}" target="_parent">
<polygon fill="#fa6900" stroke="#7f7542" points="220,-441.5 220,-486.5 311,-486.5 311,-441.5 220,-441.5"/>
<text text-anchor="middle" x="265.5" y="-475.3" font-family="Times,serif" font-size="14.00">2 ≤ N₁</text>
<polyline fill="none" stroke="#7f7542" points="220,-471.5 311,-471.5 "/>
<text text-anchor="middle" x="265.5" y="-460.3" font-family="Times,serif" font-size="14.00">⇊</text>
<polyline fill="none" stroke="#7f7542" points="220,-456.5 311,-456.5 "/>
<text text-anchor="middle" x="265.5" y="-445.3" font-family="Times,serif" font-size="14.00">sk₄(N₁) ≤ sk₁</text>
</a>
</g>
</g>
<!-- c_0_80&#45;&gt;c_0_97 -->
<g id="edge3" class="edge">
<title>c_0_80&#45;&gt;c_0_97</title>
<path fill="none" stroke="black" d="M227.75,-538.01C227.75,-538.01 227.75,-496.82 227.75,-496.82"/>
<polygon fill="black" stroke="black" points="231.25,-496.82 227.75,-486.82 224.25,-496.82 231.25,-496.82"/>
</g>
<!-- c_0_172 -->
<g id="node9" class="node">
<title>c_0_172</title>
<g id="a_node9"><a xlink:href="c_0_172.html" xlink:title="{2 ≤ sk₁}" target="_parent">
<polygon fill="#fa6900" stroke="#7f7542" points="130.5,-352 130.5,-367 182.5,-367 182.5,-352 130.5,-352"/>
<text text-anchor="middle" x="156.5" y="-355.8" font-family="Times,serif" font-size="14.00">2 ≤ sk₁</text>
</a>
</g>
</g>
<!-- c_0_80&#45;&gt;c_0_172 -->
<g id="edge9" class="edge">
<title>c_0_80&#45;&gt;c_0_172</title>
<path fill="none" stroke="black" d="M175.75,-538.28C175.75,-538.28 175.75,-377.18 175.75,-377.18"/>
<polygon fill="black" stroke="black" points="179.25,-377.18 175.75,-367.18 172.25,-377.18 179.25,-377.18"/>
</g>
<!-- c_0_102 -->
<g id="node5" class="node">
<title>c_0_102</title>
<g id="a_node5"><a xlink:href="c_0_102.html" xlink:title="{2 ≤ (sk₁!) + 1|⇊|sk₄((sk₁!) + 1) = 0|sk₄((sk₁!) + 1) = 1}" target="_parent">
<polygon fill="#fa6900" stroke="#7f7542" points="200.5,-329.5 200.5,-389.5 330.5,-389.5 330.5,-329.5 200.5,-329.5"/>
<text text-anchor="middle" x="265.5" y="-378.3" font-family="Times,serif" font-size="14.00">2 ≤ (sk₁!) + 1</text>
<polyline fill="none" stroke="#7f7542" points="200.5,-374.5 330.5,-374.5 "/>
<text text-anchor="middle" x="265.5" y="-363.3" font-family="Times,serif" font-size="14.00">⇊</text>
<polyline fill="none" stroke="#7f7542" points="200.5,-359.5 330.5,-359.5 "/>
<text text-anchor="middle" x="265.5" y="-348.3" font-family="Times,serif" font-size="14.00">sk₄((sk₁!) + 1) = 0</text>
<polyline fill="none" stroke="#7f7542" points="200.5,-344.5 330.5,-344.5 "/>
<text text-anchor="middle" x="265.5" y="-333.3" font-family="Times,serif" font-size="14.00">sk₄((sk₁!) + 1) = 1</text>
</a>
</g>
</g>
<!-- c_0_93&#45;&gt;c_0_102 -->
<g id="edge4" class="edge">
<title>c_0_93&#45;&gt;c_0_102</title>
<path fill="none" stroke="black" d="M173.54,-464C190.91,-464 210.25,-464 210.25,-464 210.25,-464 210.25,-399.73 210.25,-399.73"/>
<polygon fill="black" stroke="black" points="213.75,-399.73 210.25,-389.73 206.75,-399.73 213.75,-399.73"/>
</g>
<!-- c_0_179 -->
<g id="node10" class="node">
<title>c_0_179</title>
<g id="a_node10"><a xlink:href="c_0_179.html" xlink:title="⊥" target="_parent">
<polygon fill="#fa6900" stroke="#7f7542" points="316.5,-16.5 316.5,-31.5 330.5,-31.5 330.5,-16.5 316.5,-16.5"/>
<text text-anchor="middle" x="323.5" y="-20.3" font-family="Times,serif" font-size="14.00">⊥</text>
</a>
</g>
</g>
<!-- c_0_93&#45;&gt;c_0_179 -->
<g id="edge10" class="edge">
<title>c_0_93&#45;&gt;c_0_179</title>
<path fill="none" stroke="black" d="M125,-456.31C125,-397.49 125,-21 125,-21 125,-21 306.44,-21 306.44,-21"/>
<polygon fill="black" stroke="black" points="306.44,-24.5 316.44,-21 306.44,-17.5 306.44,-24.5"/>
</g>
<!-- c_0_97&#45;&gt;c_0_102 -->
<g id="edge5" class="edge">
<title>c_0_97&#45;&gt;c_0_102</title>
<path fill="none" stroke="black" d="M265.5,-441.33C265.5,-441.33 265.5,-399.67 265.5,-399.67"/>
<polygon fill="black" stroke="black" points="269,-399.67 265.5,-389.67 262,-399.67 269,-399.67"/>
</g>
<!-- c_0_122 -->
<g id="node6" class="node">
<title>c_0_122</title>
<g id="a_node6"><a xlink:href="c_0_122.html" xlink:title="{2 ≤ (sk₁!) + 1|⇊|sk₄((sk₁!) + 1) = 1}" target="_parent">
<polygon fill="#fa6900" stroke="#7f7542" points="198.5,-247.5 198.5,-292.5 328.5,-292.5 328.5,-247.5 198.5,-247.5"/>
<text text-anchor="middle" x="263.5" y="-281.3" font-family="Times,serif" font-size="14.00">2 ≤ (sk₁!) + 1</text>
<polyline fill="none" stroke="#7f7542" points="198.5,-277.5 328.5,-277.5 "/>
<text text-anchor="middle" x="263.5" y="-266.3" font-family="Times,serif" font-size="14.00">⇊</text>
<polyline fill="none" stroke="#7f7542" points="198.5,-262.5 328.5,-262.5 "/>
<text text-anchor="middle" x="263.5" y="-251.3" font-family="Times,serif" font-size="14.00">sk₄((sk₁!) + 1) = 1</text>
</a>
</g>
</g>
<!-- c_0_102&#45;&gt;c_0_122 -->
<g id="edge6" class="edge">
<title>c_0_102&#45;&gt;c_0_122</title>
<path fill="none" stroke="black" d="M243.17,-329.2C243.17,-329.2 243.17,-302.63 243.17,-302.63"/>
<polygon fill="black" stroke="black" points="246.67,-302.63 243.17,-292.63 239.67,-302.63 246.67,-302.63"/>
</g>
<!-- c_0_135 -->
<g id="node7" class="node">
<title>c_0_135</title>
<g id="a_node7"><a xlink:href="c_0_135.html" xlink:title="{¬ (2 ≤ (sk₁!) + 1)}" target="_parent">
<polygon fill="#fa6900" stroke="#7f7542" points="189,-173 189,-188 314,-188 314,-173 189,-173"/>
<text text-anchor="middle" x="251.5" y="-176.8" font-family="Times,serif" font-size="14.00">¬ (2 ≤ (sk₁!) + 1)</text>
</a>
</g>
</g>
<!-- c_0_122&#45;&gt;c_0_135 -->
<g id="edge7" class="edge">
<title>c_0_122&#45;&gt;c_0_135</title>
<path fill="none" stroke="black" d="M237,-247.42C237,-247.42 237,-198.03 237,-198.03"/>
<polygon fill="black" stroke="black" points="240.5,-198.03 237,-188.03 233.5,-198.03 240.5,-198.03"/>
</g>
<!-- c_0_158 -->
<g id="node8" class="node">
<title>c_0_158</title>
<g id="a_node8"><a xlink:href="c_0_158.html" xlink:title="{¬ (2 ≤ sk₁!)}" target="_parent">
<polygon fill="#fa6900" stroke="#7f7542" points="245,-83.5 245,-98.5 330,-98.5 330,-83.5 245,-83.5"/>
<text text-anchor="middle" x="287.5" y="-87.3" font-family="Times,serif" font-size="14.00">¬ (2 ≤ sk₁!)</text>
</a>
</g>
</g>
<!-- c_0_135&#45;&gt;c_0_158 -->
<g id="edge8" class="edge">
<title>c_0_135&#45;&gt;c_0_158</title>
<path fill="none" stroke="black" d="M279.5,-172.87C279.5,-172.87 279.5,-108.61 279.5,-108.61"/>
<polygon fill="black" stroke="black" points="283,-108.61 279.5,-98.61 276,-108.61 283,-108.61"/>
</g>
<!-- c_0_158&#45;&gt;c_0_179 -->
<g id="edge11" class="edge">
<title>c_0_158&#45;&gt;c_0_179</title>
<path fill="none" stroke="black" d="M321,-83.31C321,-83.31 321,-41.6 321,-41.6"/>
<polygon fill="black" stroke="black" points="324.5,-41.6 321,-31.6 317.5,-41.6 324.5,-41.6"/>
</g>
<!-- c_0_172&#45;&gt;c_0_179 -->
<g id="edge12" class="edge">
<title>c_0_172&#45;&gt;c_0_179</title>
<path fill="none" stroke="black" d="M156.5,-351.91C156.5,-302.27 156.5,-26 156.5,-26 156.5,-26 306.32,-26 306.32,-26"/>
<polygon fill="black" stroke="black" points="306.32,-29.5 316.32,-26 306.32,-22.5 306.32,-29.5"/>
</g>
<!-- c_0_157 -->
<g id="node11" class="node">
<title>c_0_157</title>
<g id="a_node11"><a xlink:href="c_0_157.html" xlink:title="{2 ∈ ℕ}" target="_parent">
<polygon fill="#f8edd1" stroke="#7f7542" points="346.5,-456.5 346.5,-471.5 388.5,-471.5 388.5,-456.5 346.5,-456.5"/>
<text text-anchor="middle" x="367.5" y="-460.3" font-family="Times,serif" font-size="14.00">2 ∈ ℕ</text>
</a>
</g>
</g>
<!-- c_0_157&#45;&gt;c_0_172 -->
<g id="edge13" class="edge">
<title>c_0_157&#45;&gt;c_0_172</title>
<path fill="none" stroke="black" stroke-dasharray="5,2" d="M368.5,-456.34C368.5,-448.35 368.5,-437 368.5,-437 368.5,-437 178,-437 178,-437 178,-437 178,-377.21 178,-377.21"/>
<polygon fill="black" stroke="black" points="181.5,-377.21 178,-367.21 174.5,-377.21 181.5,-377.21"/>
</g>
<!-- c_0_125 -->
<g id="node12" class="node">
<title>c_0_125</title>
<g id="a_node12"><a xlink:href="c_0_125.html" xlink:title="{X₂ ∈ ℕ|⇊|N₁ + X₂ = N₁ + X₂}" target="_parent">
<polygon fill="#f8edd1" stroke="#7f7542" points="346.5,-247.5 346.5,-292.5 474.5,-292.5 474.5,-247.5 346.5,-247.5"/>
<text text-anchor="middle" x="410.5" y="-281.3" font-family="Times,serif" font-size="14.00">X₂ ∈ ℕ</text>
<polyline fill="none" stroke="#7f7542" points="346.5,-277.5 474.5,-277.5 "/>
<text text-anchor="middle" x="410.5" y="-266.3" font-family="Times,serif" font-size="14.00">⇊</text>
<polyline fill="none" stroke="#7f7542" points="346.5,-262.5 474.5,-262.5 "/>
<text text-anchor="middle" x="410.5" y="-251.3" font-family="Times,serif" font-size="14.00">N₁ + X₂ = N₁ + X₂</text>
</a>
</g>
</g>
<!-- c_0_125&#45;&gt;c_0_135 -->
<g id="edge14" class="edge">
<title>c_0_125&#45;&gt;c_0_135</title>
<path fill="none" stroke="black" stroke-dasharray="5,2" d="M359.75,-247.14C359.75,-221.37 359.75,-183 359.75,-183 359.75,-183 324.16,-183 324.16,-183"/>
<polygon fill="black" stroke="black" points="324.16,-179.5 314.16,-183 324.16,-186.5 324.16,-179.5"/>
</g>
<!-- c_0_106 -->
<g id="node13" class="node">
<title>c_0_106</title>
<g id="a_node13"><a xlink:href="c_0_106.html" xlink:title="{1 ∈ ℕ}" target="_parent">
<polygon fill="#f8edd1" stroke="#7f7542" points="492.5,-262.5 492.5,-277.5 534.5,-277.5 534.5,-262.5 492.5,-262.5"/>
<text text-anchor="middle" x="513.5" y="-266.3" font-family="Times,serif" font-size="14.00">1 ∈ ℕ</text>
</a>
</g>
</g>
<!-- c_0_106&#45;&gt;c_0_135 -->
<g id="edge15" class="edge">
<title>c_0_106&#45;&gt;c_0_135</title>
<path fill="none" stroke="black" stroke-dasharray="5,2" d="M502,-262.48C502,-250.64 502,-229 502,-229 502,-229 275.5,-229 275.5,-229 275.5,-229 275.5,-198.08 275.5,-198.08"/>
<polygon fill="black" stroke="black" points="279,-198.08 275.5,-188.08 272,-198.08 279,-198.08"/>
</g>
<!-- c_0_106&#45;&gt;c_0_158 -->
<g id="edge16" class="edge">
<title>c_0_106&#45;&gt;c_0_158</title>
<path fill="none" stroke="black" stroke-dasharray="5,2" d="M511.5,-262.19C511.5,-248.12 511.5,-220 511.5,-220 511.5,-220 318.14,-220 318.14,-220 318.14,-220 318.14,-108.68 318.14,-108.68"/>
<polygon fill="black" stroke="black" points="321.64,-108.68 318.14,-98.68 314.64,-108.68 321.64,-108.68"/>
</g>
<!-- c_0_149 -->
<g id="node14" class="node">
<title>c_0_149</title>
<g id="a_node14"><a xlink:href="c_0_149.html" xlink:title="{N₁ ∈ ℝ}" target="_parent">
<polygon fill="#f8edd1" stroke="#7f7542" points="371,-173 371,-188 420,-188 420,-173 371,-173"/>
<text text-anchor="middle" x="395.5" y="-176.8" font-family="Times,serif" font-size="14.00">N₁ ∈ ℝ</text>
</a>
</g>
</g>
<!-- c_0_149&#45;&gt;c_0_158 -->
<g id="edge17" class="edge">
<title>c_0_149&#45;&gt;c_0_158</title>
<path fill="none" stroke="black" stroke-dasharray="5,2" d="M370.85,-177C348.89,-177 320.21,-177 320.21,-177 320.21,-177 320.21,-108.63 320.21,-108.63"/>
<polygon fill="black" stroke="black" points="323.71,-108.63 320.21,-98.63 316.71,-108.63 323.71,-108.63"/>
</g>
<!-- c_0_176 -->
<g id="node15" class="node">
<title>c_0_176</title>
<g id="a_node15"><a xlink:href="c_0_176.html" xlink:title="{2 ∈ 𝔼}" target="_parent">
<polygon fill="#f8edd1" stroke="#7f7542" points="348.5,-83.5 348.5,-98.5 388.5,-98.5 388.5,-83.5 348.5,-83.5"/>
<text text-anchor="middle" x="368.5" y="-87.3" font-family="Times,serif" font-size="14.00">2 ∈ 𝔼</text>
</a>
</g>
</g>
<!-- c_0_176&#45;&gt;c_0_179 -->
<g id="edge18" class="edge">
<title>c_0_176&#45;&gt;c_0_179</title>
<path fill="none" stroke="black" stroke-dasharray="5,2" d="M368.5,-83.29C368.5,-66.07 368.5,-26 368.5,-26 368.5,-26 340.53,-26 340.53,-26"/>
<polygon fill="black" stroke="black" points="340.53,-22.5 330.53,-26 340.53,-29.5 340.53,-22.5"/>
</g>
<!-- c_0_137 -->
<g id="node16" class="node">
<title>c_0_137</title>
<g id="a_node16"><a xlink:href="c_0_137.html" xlink:title="{0 ≤ R₂|2 ≤ R₁|⇊|2 ≤ R₁ + R₂}" target="_parent">
<polygon fill="#f8edd1" stroke="#7f7542" points="438,-150.5 438,-210.5 521,-210.5 521,-150.5 438,-150.5"/>
<text text-anchor="middle" x="479.5" y="-199.3" font-family="Times,serif" font-size="14.00">0 ≤ R₂</text>
<polyline fill="none" stroke="#7f7542" points="438,-195.5 521,-195.5 "/>
<text text-anchor="middle" x="479.5" y="-184.3" font-family="Times,serif" font-size="14.00">2 ≤ R₁</text>
<polyline fill="none" stroke="#7f7542" points="438,-180.5 521,-180.5 "/>
<text text-anchor="middle" x="479.5" y="-169.3" font-family="Times,serif" font-size="14.00">⇊</text>
<polyline fill="none" stroke="#7f7542" points="438,-165.5 521,-165.5 "/>
<text text-anchor="middle" x="479.5" y="-154.3" font-family="Times,serif" font-size="14.00">2 ≤ R₁ + R₂</text>
</a>
</g>
</g>
<!-- c_0_137&#45;&gt;c_0_158 -->
<g id="edge19" class="edge">
<title>c_0_137&#45;&gt;c_0_158</title>
<path fill="none" stroke="black" stroke-dasharray="5,2" d="M437.78,-161C391.21,-161 322.29,-161 322.29,-161 322.29,-161 322.29,-108.76 322.29,-108.76"/>
<polygon fill="black" stroke="black" points="325.79,-108.76 322.29,-98.76 318.79,-108.76 325.79,-108.76"/>
</g>
<!-- c_0_103 -->
<g id="node17" class="node">
<title>c_0_103</title>
<g id="a_node17"><a xlink:href="c_0_103.html" xlink:title="{0 ≤ 1}" target="_parent">
<polygon fill="#f8edd1" stroke="#7f7542" points="475.5,-352 475.5,-367 515.5,-367 515.5,-352 475.5,-352"/>
<text text-anchor="middle" x="495.5" y="-355.8" font-family="Times,serif" font-size="14.00">0 ≤ 1</text>
</a>
</g>
</g>
<!-- c_0_103&#45;&gt;c_0_122 -->
<g id="edge20" class="edge">
<title>c_0_103&#45;&gt;c_0_122</title>
<path fill="none" stroke="black" stroke-dasharray="5,2" d="M481.17,-351.92C481.17,-338.28 481.17,-311 481.17,-311 481.17,-311 285.83,-311 285.83,-311 285.83,-311 285.83,-302.9 285.83,-302.9"/>
<polygon fill="black" stroke="black" points="289.33,-302.9 285.83,-292.9 282.33,-302.9 289.33,-302.9"/>
</g>
<!-- c_0_103&#45;&gt;c_0_158 -->
<g id="edge21" class="edge">
<title>c_0_103&#45;&gt;c_0_158</title>
<path fill="none" stroke="black" stroke-dasharray="5,2" d="M486.83,-351.9C486.83,-325.3 486.83,-238 486.83,-238 486.83,-238 316.07,-238 316.07,-238 316.07,-238 316.07,-108.9 316.07,-108.9"/>
<polygon fill="black" stroke="black" points="319.57,-108.9 316.07,-98.9 312.57,-108.9 319.57,-108.9"/>
</g>
<!-- c_0_86 -->
<g id="node18" class="node">
<title>c_0_86</title>
<g id="a_node18"><a xlink:href="c_0_86.html" xlink:title="{2 ≤ N₁|⇊|prime(sk₄(N₁))}" target="_parent">
<polygon fill="#f8edd1" stroke="#7f7542" points="346.5,-538.5 346.5,-583.5 448.5,-583.5 448.5,-538.5 346.5,-538.5"/>
<text text-anchor="middle" x="397.5" y="-572.3" font-family="Times,serif" font-size="14.00">2 ≤ N₁</text>
<polyline fill="none" stroke="#7f7542" points="346.5,-568.5 448.5,-568.5 "/>
<text text-anchor="middle" x="397.5" y="-557.3" font-family="Times,serif" font-size="14.00">⇊</text>
<polyline fill="none" stroke="#7f7542" points="346.5,-553.5 448.5,-553.5 "/>
<text text-anchor="middle" x="397.5" y="-542.3" font-family="Times,serif" font-size="14.00">prime(sk₄(N₁))</text>
</a>
</g>
</g>
<!-- c_0_86&#45;&gt;c_0_97 -->
<g id="edge22" class="edge">
<title>c_0_86&#45;&gt;c_0_97</title>
<path fill="none" stroke="black" stroke-dasharray="5,2" d="M367.5,-538.16C367.5,-513.9 367.5,-479 367.5,-479 367.5,-479 321.13,-479 321.13,-479"/>
<polygon fill="black" stroke="black" points="321.13,-475.5 311.13,-479 321.13,-482.5 321.13,-475.5"/>
</g>
<!-- c_0_160 -->
<g id="node19" class="node">
<title>c_0_160</title>
<g id="a_node19"><a xlink:href="c_0_160.html" xlink:title="{N₁ + N₂ ∈ ℕ}" target="_parent">
<polygon fill="#f8edd1" stroke="#7f7542" points="590.5,-173 590.5,-188 678.5,-188 678.5,-173 590.5,-173"/>
<text text-anchor="middle" x="634.5" y="-176.8" font-family="Times,serif" font-size="14.00">N₁ + N₂ ∈ ℕ</text>
</a>
</g>
</g>
<!-- c_0_160&#45;&gt;c_0_158 -->
<g id="edge23" class="edge">
<title>c_0_160&#45;&gt;c_0_158</title>
<path fill="none" stroke="black" stroke-dasharray="5,2" d="M634.5,-172.7C634.5,-160.44 634.5,-138 634.5,-138 634.5,-138 324.36,-138 324.36,-138 324.36,-138 324.36,-108.76 324.36,-108.76"/>
<polygon fill="black" stroke="black" points="327.86,-108.76 324.36,-98.76 320.86,-108.76 327.86,-108.76"/>
</g>
<!-- c_0_156 -->
<g id="node20" class="node">
<title>c_0_156</title>
<g id="a_node20"><a xlink:href="c_0_156.html" xlink:title="{prime(2)}" target="_parent">
<polygon fill="#f8edd1" stroke="#7f7542" points="406.5,-456.5 406.5,-471.5 468.5,-471.5 468.5,-456.5 406.5,-456.5"/>
<text text-anchor="middle" x="437.5" y="-460.3" font-family="Times,serif" font-size="14.00">prime(2)</text>
</a>
</g>
</g>
<!-- c_0_156&#45;&gt;c_0_172 -->
<g id="edge24" class="edge">
<title>c_0_156&#45;&gt;c_0_172</title>
<path fill="none" stroke="black" stroke-dasharray="5,2" d="M437.5,-456.5C437.5,-447.32 437.5,-433 437.5,-433 437.5,-433 180.25,-433 180.25,-433 180.25,-433 180.25,-377.09 180.25,-377.09"/>
<polygon fill="black" stroke="black" points="183.75,-377.09 180.25,-367.09 176.75,-377.09 183.75,-377.09"/>
</g>
<!-- c_0_78 -->
<g id="node21" class="node">
<title>c_0_78</title>
<g id="a_node21"><a xlink:href="c_0_78.html" xlink:title="{N₁! ∈ ℕ}" target="_parent">
<polygon fill="#f8edd1" stroke="#7f7542" points="406.5,-83.5 406.5,-98.5 462.5,-98.5 462.5,-83.5 406.5,-83.5"/>
<text text-anchor="middle" x="434.5" y="-87.3" font-family="Times,serif" font-size="14.00">N₁! ∈ ℕ</text>
</a>
</g>
</g>
<!-- c_0_78&#45;&gt;c_0_179 -->
<g id="edge25" class="edge">
<title>c_0_78&#45;&gt;c_0_179</title>
<path fill="none" stroke="black" stroke-dasharray="5,2" d="M434.5,-83.24C434.5,-65.02 434.5,-21 434.5,-21 434.5,-21 340.78,-21 340.78,-21"/>
<polygon fill="black" stroke="black" points="340.78,-17.5 330.78,-21 340.78,-24.5 340.78,-17.5"/>
</g>
<!-- c_0_169 -->
<g id="node22" class="node">
<title>c_0_169</title>
<g id="a_node22"><a xlink:href="c_0_169.html" xlink:title="{E₁ ≤ N₂|⇊|E₁ ≤ N₂!}" target="_parent">
<polygon fill="#f8edd1" stroke="#7f7542" points="481,-68.5 481,-113.5 542,-113.5 542,-68.5 481,-68.5"/>
<text text-anchor="middle" x="511.5" y="-102.3" font-family="Times,serif" font-size="14.00">E₁ ≤ N₂</text>
<polyline fill="none" stroke="#7f7542" points="481,-98.5 542,-98.5 "/>
<text text-anchor="middle" x="511.5" y="-87.3" font-family="Times,serif" font-size="14.00">⇊</text>
<polyline fill="none" stroke="#7f7542" points="481,-83.5 542,-83.5 "/>
<text text-anchor="middle" x="511.5" y="-72.3" font-family="Times,serif" font-size="14.00">E₁ ≤ N₂!</text>
</a>
</g>
</g>
<!-- c_0_169&#45;&gt;c_0_179 -->
<g id="edge26" class="edge">
<title>c_0_169&#45;&gt;c_0_179</title>
<path fill="none" stroke="black" stroke-dasharray="5,2" d="M480.79,-75C427.96,-75 325.5,-75 325.5,-75 325.5,-75 325.5,-41.53 325.5,-41.53"/>
<polygon fill="black" stroke="black" points="329,-41.53 325.5,-31.53 322,-41.53 329,-41.53"/>
</g>
<!-- c_0_55 -->
<g id="node23" class="node">
<title>c_0_55</title>
<g id="a_node23"><a xlink:href="c_0_55.html" xlink:title="{2 ≤ N₁|⇊|sk₄(N₁) ∈ ℕ}" target="_parent">
<polygon fill="#f8edd1" stroke="#7f7542" points="486.5,-441.5 486.5,-486.5 568.5,-486.5 568.5,-441.5 486.5,-441.5"/>
<text text-anchor="middle" x="527.5" y="-475.3" font-family="Times,serif" font-size="14.00">2 ≤ N₁</text>
<polyline fill="none" stroke="#7f7542" points="486.5,-471.5 568.5,-471.5 "/>
<text text-anchor="middle" x="527.5" y="-460.3" font-family="Times,serif" font-size="14.00">⇊</text>
<polyline fill="none" stroke="#7f7542" points="486.5,-456.5 568.5,-456.5 "/>
<text text-anchor="middle" x="527.5" y="-445.3" font-family="Times,serif" font-size="14.00">sk₄(N₁) ∈ ℕ</text>
</a>
</g>
</g>
<!-- c_0_55&#45;&gt;c_0_102 -->
<g id="edge27" class="edge">
<title>c_0_55&#45;&gt;c_0_102</title>
<path fill="none" stroke="black" stroke-dasharray="5,2" d="M486.26,-448C425.1,-448 317.5,-448 317.5,-448 317.5,-448 317.5,-399.96 317.5,-399.96"/>
<polygon fill="black" stroke="black" points="321,-399.96 317.5,-389.96 314,-399.96 321,-399.96"/>
</g>
<!-- c_0_100 -->
<g id="node24" class="node">
<title>c_0_100</title>
<g id="a_node24"><a xlink:href="c_0_100.html" xlink:title="{0 ∈ ℕ}" target="_parent">
<polygon fill="#f8edd1" stroke="#7f7542" points="348.5,-352 348.5,-367 390.5,-367 390.5,-352 348.5,-352"/>
<text text-anchor="middle" x="369.5" y="-355.8" font-family="Times,serif" font-size="14.00">0 ∈ ℕ</text>
</a>
</g>
</g>
<!-- c_0_100&#45;&gt;c_0_122 -->
<g id="edge28" class="edge">
<title>c_0_100&#45;&gt;c_0_122</title>
<path fill="none" stroke="black" stroke-dasharray="5,2" d="M348.31,-359C342.86,-359 338.5,-359 338.5,-359 338.5,-359 338.5,-270 338.5,-270 338.5,-270 337.52,-270 337.52,-270"/>
<polygon fill="black" stroke="black" points="338.7,-266.5 328.7,-270 338.7,-273.5 338.7,-266.5"/>
</g>
<!-- c_0_132 -->
<g id="node25" class="node">
<title>c_0_132</title>
<g id="a_node25"><a xlink:href="c_0_132.html" xlink:title="{1 ∈ ℝ}" target="_parent">
<polygon fill="#f8edd1" stroke="#7f7542" points="697,-173 697,-188 738,-188 738,-173 697,-173"/>
<text text-anchor="middle" x="717.5" y="-176.8" font-family="Times,serif" font-size="14.00">1 ∈ ℝ</text>
</a>
</g>
</g>
<!-- c_0_132&#45;&gt;c_0_158 -->
<g id="edge29" class="edge">
<title>c_0_132&#45;&gt;c_0_158</title>
<path fill="none" stroke="black" stroke-dasharray="5,2" d="M717.5,-172.92C717.5,-157.95 717.5,-126 717.5,-126 717.5,-126 326.43,-126 326.43,-126 326.43,-126 326.43,-108.77 326.43,-108.77"/>
<polygon fill="black" stroke="black" points="329.93,-108.77 326.43,-98.77 322.93,-108.77 329.93,-108.77"/>
</g>
<!-- c_0_109 -->
<g id="node26" class="node">
<title>c_0_109</title>
<g id="a_node26"><a xlink:href="c_0_109.html" xlink:title="{2 ≤ N₁|sk₄(N₁) ≤ 1|⇊|⊥}" target="_parent">
<polygon fill="#f8edd1" stroke="#7f7542" points="0,-329.5 0,-389.5 79,-389.5 79,-329.5 0,-329.5"/>
<text text-anchor="middle" x="39.5" y="-378.3" font-family="Times,serif" font-size="14.00">2 ≤ N₁</text>
<polyline fill="none" stroke="#7f7542" points="0,-374.5 79,-374.5 "/>
<text text-anchor="middle" x="39.5" y="-363.3" font-family="Times,serif" font-size="14.00">sk₄(N₁) ≤ 1</text>
<polyline fill="none" stroke="#7f7542" points="0,-359.5 79,-359.5 "/>
<text text-anchor="middle" x="39.5" y="-348.3" font-family="Times,serif" font-size="14.00">⇊</text>
<polyline fill="none" stroke="#7f7542" points="0,-344.5 79,-344.5 "/>
<text text-anchor="middle" x="39.5" y="-333.3" font-family="Times,serif" font-size="14.00">⊥</text>
</a>
</g>
</g>
<!-- c_0_109&#45;&gt;c_0_122 -->
<g id="edge30" class="edge">
<title>c_0_109&#45;&gt;c_0_122</title>
<path fill="none" stroke="black" stroke-dasharray="5,2" d="M66.75,-329.2C66.75,-308.57 66.75,-285 66.75,-285 66.75,-285 188.26,-285 188.26,-285"/>
<polygon fill="black" stroke="black" points="188.26,-288.5 198.26,-285 188.26,-281.5 188.26,-288.5"/>
</g>
<!-- c_0_109&#45;&gt;c_0_135 -->
<g id="edge31" class="edge">
<title>c_0_109&#45;&gt;c_0_135</title>
<path fill="none" stroke="black" stroke-dasharray="5,2" d="M79.23,-340C125.4,-340 195.33,-340 195.33,-340 195.33,-340 195.33,-198.19 195.33,-198.19"/>
<polygon fill="black" stroke="black" points="198.83,-198.19 195.33,-188.19 191.83,-198.19 198.83,-198.19"/>
</g>
<!-- c_0_113 -->
<g id="node27" class="node">
<title>c_0_113</title>
<g id="a_node27"><a xlink:href="c_0_113.html" xlink:title="{1 ≤ 1}" target="_parent">
<polygon fill="#f8edd1" stroke="#7f7542" points="54.5,-262.5 54.5,-277.5 94.5,-277.5 94.5,-262.5 54.5,-262.5"/>
<text text-anchor="middle" x="74.5" y="-266.3" font-family="Times,serif" font-size="14.00">1 ≤ 1</text>
</a>
</g>
</g>
<!-- c_0_113&#45;&gt;c_0_135 -->
<g id="edge32" class="edge">
<title>c_0_113&#45;&gt;c_0_135</title>
<path fill="none" stroke="black" stroke-dasharray="5,2" d="M94.73,-270C128.37,-270 192.17,-270 192.17,-270 192.17,-270 192.17,-198.13 192.17,-198.13"/>
<polygon fill="black" stroke="black" points="195.67,-198.13 192.17,-188.13 188.67,-198.13 195.67,-198.13"/>
</g>
<!-- c_0_89 -->
<g id="node28" class="node">
<title>c_0_89</title>
<g id="a_node28"><a xlink:href="c_0_89.html" xlink:title="{2 ≤ (N₁!) + 1|sk₄((N₁!) + 1) ≤ N₁|⇊|sk₄((N₁!) + 1) = 0|sk₄((N₁!) + 1) = 1}" target="_parent">
<polygon fill="#f8edd1" stroke="#7f7542" points="586.5,-426.5 586.5,-501.5 720.5,-501.5 720.5,-426.5 586.5,-426.5"/>
<text text-anchor="middle" x="653.5" y="-490.3" font-family="Times,serif" font-size="14.00">2 ≤ (N₁!) + 1</text>
<polyline fill="none" stroke="#7f7542" points="586.5,-486.5 720.5,-486.5 "/>
<text text-anchor="middle" x="653.5" y="-475.3" font-family="Times,serif" font-size="14.00">sk₄((N₁!) + 1) ≤ N₁</text>
<polyline fill="none" stroke="#7f7542" points="586.5,-471.5 720.5,-471.5 "/>
<text text-anchor="middle" x="653.5" y="-460.3" font-family="Times,serif" font-size="14.00">⇊</text>
<polyline fill="none" stroke="#7f7542" points="586.5,-456.5 720.5,-456.5 "/>
<text text-anchor="middle" x="653.5" y="-445.3" font-family="Times,serif" font-size="14.00">sk₄((N₁!) + 1) = 0</text>
<polyline fill="none" stroke="#7f7542" points="586.5,-441.5 720.5,-441.5 "/>
<text text-anchor="middle" x="653.5" y="-430.3" font-family="Times,serif" font-size="14.00">sk₄((N₁!) + 1) = 1</text>
</a>
</g>
</g>
<!-- c_0_89&#45;&gt;c_0_102 -->
<g id="edge33" class="edge">
<title>c_0_89&#45;&gt;c_0_102</title>
<path fill="none" stroke="black" stroke-dasharray="5,2" d="M586.42,-429C490.08,-429 324,-429 324,-429 324,-429 324,-399.78 324,-399.78"/>
<polygon fill="black" stroke="black" points="327.5,-399.78 324,-389.78 320.5,-399.78 327.5,-399.78"/>
</g>
</g>
</svg>
