<?xml version="1.0" encoding="UTF-8" standalone="no"?>
<!DOCTYPE svg PUBLIC "-//W3C//DTD SVG 1.1//EN"
 "http://www.w3.org/Graphics/SVG/1.1/DTD/svg11.dtd">
<!-- Generated by graphviz version 5.0.0 (0)
 -->
<!-- Title: proof Pages: 1 -->
<svg width="110pt" height="138pt"
 viewBox="0.00 0.00 110.00 138.00" xmlns="http://www.w3.org/2000/svg" xmlns:xlink="http://www.w3.org/1999/xlink">
<g id="graph0" class="graph" transform="scale(1 1) rotate(0) translate(4 134)">
<title>proof</title>
<g id="clust1" class="cluster">
<title>cluster_1</title>
<polygon fill="transparent" stroke="black" stroke-width="2" points="12,-90 12,-122 90,-122 90,-90 12,-90"/>
</g>
<g id="clust2" class="cluster">
<title>cluster_2</title>
<polygon fill="transparent" stroke="black" stroke-dasharray="1,5" points="8,-8 8,-70 94,-70 94,-8 8,-8"/>
</g>
<!-- d4_int_2 -->
<g id="node1" class="node">
<title>d4_int_2</title>
<g id="a_node1"><a xlink:href="d4_int_2.html" xlink:title="d4_int_2" target="_vizar">
<polygon fill="#69d2e7" stroke="#7f7542" points="20.5,-98.5 20.5,-113.5 81.5,-113.5 81.5,-98.5 20.5,-98.5"/>
<text text-anchor="middle" x="51" y="-102.3" font-family="Times,serif" font-size="14.00">d4_int_2</text>
</a>
</g>
</g>
<!-- c_0_95 -->
<g id="node2" class="node">
<title>c_0_95</title>
<g id="a_node2"><a xlink:href="c_0_95.html" xlink:title="{prime(N₁)|⇊|N₁ &amp;gt; 1}" target="_vizar">
<polygon fill="#f8edd1" stroke="#7f7542" points="16,-16.5 16,-61.5 86,-61.5 86,-16.5 16,-16.5"/>
<text text-anchor="middle" x="51" y="-50.3" font-family="Times,serif" font-size="14.00">prime(N₁)</text>
<polyline fill="none" stroke="#7f7542" points="16,-46.5 86,-46.5 "/>
<text text-anchor="middle" x="51" y="-35.3" font-family="Times,serif" font-size="14.00">⇊</text>
<polyline fill="none" stroke="#7f7542" points="16,-31.5 86,-31.5 "/>
<text text-anchor="middle" x="51" y="-20.3" font-family="Times,serif" font-size="14.00">N₁ &gt; 1</text>
</a>
</g>
</g>
<!-- d4_int_2&#45;&gt;c_0_95 -->
<g id="edge1" class="edge">
<title>d4_int_2&#45;&gt;c_0_95</title>
<path fill="none" stroke="black" d="M51,-98.31C51,-98.31 51,-71.76 51,-71.76"/>
<polygon fill="black" stroke="black" points="54.5,-71.76 51,-61.76 47.5,-71.76 54.5,-71.76"/>
</g>
</g>
</svg>
