<?xml version="1.0" encoding="UTF-8" standalone="no"?>
<!DOCTYPE svg PUBLIC "-//W3C//DTD SVG 1.1//EN"
 "http://www.w3.org/Graphics/SVG/1.1/DTD/svg11.dtd">
<!-- Generated by graphviz version 5.0.0 (0)
 -->
<!-- Title: proof Pages: 1 -->
<svg width="132pt" height="108pt"
 viewBox="0.00 0.00 132.00 108.00" xmlns="http://www.w3.org/2000/svg" xmlns:xlink="http://www.w3.org/1999/xlink">
<g id="graph0" class="graph" transform="scale(1 1) rotate(0) translate(4 104)">
<title>proof</title>
<g id="clust1" class="cluster">
<title>cluster_1</title>
<polygon fill="transparent" stroke="black" stroke-width="2" points="8,-60 8,-92 116,-92 116,-60 8,-60"/>
</g>
<g id="clust2" class="cluster">
<title>cluster_2</title>
<polygon fill="transparent" stroke="black" stroke-dasharray="1,5" points="31,-8 31,-40 93,-40 93,-8 31,-8"/>
</g>
<!-- fc1_numbers -->
<g id="node1" class="node">
<title>fc1_numbers</title>
<g id="a_node1"><a xlink:href="fc1_numbers.html" xlink:title="fc1_numbers" target="_parent">
<polygon fill="#69d2e7" stroke="#7f7542" points="16,-68.5 16,-83.5 108,-83.5 108,-68.5 16,-68.5"/>
<text text-anchor="middle" x="62" y="-72.3" font-family="Times,serif" font-size="14.00">fc1_numbers</text>
</a>
</g>
</g>
<!-- c_0_81 -->
<g id="node2" class="node">
<title>c_0_81</title>
<g id="a_node2"><a xlink:href="c_0_81.html" xlink:title="{ℝ ≠ Ø}" target="_parent">
<polygon fill="#f8edd1" stroke="#7f7542" points="39.5,-16.5 39.5,-31.5 84.5,-31.5 84.5,-16.5 39.5,-16.5"/>
<text text-anchor="middle" x="62" y="-20.3" font-family="Times,serif" font-size="14.00">ℝ ≠ Ø</text>
</a>
</g>
</g>
<!-- fc1_numbers&#45;&gt;c_0_81 -->
<g id="edge1" class="edge">
<title>fc1_numbers&#45;&gt;c_0_81</title>
<path fill="none" stroke="black" d="M62,-68.33C62,-68.33 62,-41.7 62,-41.7"/>
<polygon fill="black" stroke="black" points="65.5,-41.7 62,-31.7 58.5,-41.7 65.5,-41.7"/>
</g>
</g>
</svg>
