<?xml version="1.0" encoding="UTF-8" standalone="no"?>
<!DOCTYPE svg PUBLIC "-//W3C//DTD SVG 1.1//EN"
 "http://www.w3.org/Graphics/SVG/1.1/DTD/svg11.dtd">
<!-- Generated by graphviz version 5.0.0 (0)
 -->
<!-- Title: proof Pages: 1 -->
<svg width="140pt" height="108pt"
 viewBox="0.00 0.00 140.00 108.00" xmlns="http://www.w3.org/2000/svg" xmlns:xlink="http://www.w3.org/1999/xlink">
<g id="graph0" class="graph" transform="scale(1 1) rotate(0) translate(4 104)">
<title>proof</title>
<polygon fill="white" stroke="transparent" points="-4,4 -4,-104 136,-104 136,4 -4,4"/>
<g id="clust1" class="cluster">
<title>cluster_1</title>
<polygon fill="none" stroke="black" stroke-width="2" points="24,-60 24,-92 108,-92 108,-60 24,-60"/>
</g>
<g id="clust2" class="cluster">
<title>cluster_2</title>
<polygon fill="none" stroke="black" stroke-dasharray="1,5" points="8,-8 8,-40 124,-40 124,-8 8,-8"/>
</g>
<!-- fc1_nat_1 -->
<g id="node1" class="node">
<title>fc1_nat_1</title>
<g id="a_node1"><a xlink:href="None" xlink:title="fc1_nat_1" target="_blank">
<polygon fill="#69d2e7" stroke="#7f7542" points="32,-68.5 32,-83.5 100,-83.5 100,-68.5 32,-68.5"/>
<text text-anchor="middle" x="66" y="-72.3" font-family="Times,serif" font-size="14.00">fc1_nat_1</text>
</a>
</g>
</g>
<!-- c_0_160 -->
<g id="node2" class="node">
<title>c_0_160</title>
<g id="a_node2"><a xlink:href="c_0_160.html" xlink:title="{(N₁ + N₂) ∈ ℕ}" target="_parent">
<polygon fill="#f8edd1" stroke="#7f7542" points="16.5,-16.5 16.5,-31.5 115.5,-31.5 115.5,-16.5 16.5,-16.5"/>
<text text-anchor="middle" x="66" y="-20.3" font-family="Times,serif" font-size="14.00">(N₁ + N₂) ∈ ℕ</text>
</a>
</g>
</g>
<!-- fc1_nat_1&#45;&gt;c_0_160 -->
<g id="edge1" class="edge">
<title>fc1_nat_1&#45;&gt;c_0_160</title>
<path fill="none" stroke="black" stroke-dasharray="5,2" d="M66,-68.33C66,-68.33 66,-41.7 66,-41.7"/>
<polygon fill="black" stroke="black" points="69.5,-41.7 66,-31.7 62.5,-41.7 69.5,-41.7"/>
</g>
</g>
</svg>
