<?xml version="1.0" encoding="UTF-8" standalone="no"?>
<!DOCTYPE svg PUBLIC "-//W3C//DTD SVG 1.1//EN"
 "http://www.w3.org/Graphics/SVG/1.1/DTD/svg11.dtd">
<!-- Generated by graphviz version 5.0.0 (0)
 -->
<!-- Title: proof Pages: 1 -->
<svg width="294pt" height="108pt"
 viewBox="0.00 0.00 294.00 108.00" xmlns="http://www.w3.org/2000/svg" xmlns:xlink="http://www.w3.org/1999/xlink">
<g id="graph0" class="graph" transform="scale(1 1) rotate(0) translate(4 104)">
<title>proof</title>
<g id="clust1" class="cluster">
<title>cluster_1</title>
<polygon fill="transparent" stroke="black" stroke-width="2" points="8,-60 8,-92 278,-92 278,-60 8,-60"/>
</g>
<g id="clust2" class="cluster">
<title>cluster_2</title>
<polygon fill="transparent" stroke="black" stroke-dasharray="1,5" points="100,-8 100,-40 186,-40 186,-8 100,-8"/>
</g>
<!-- rqRealAdd__k2_xcmplx_0__r2_r0_r2 -->
<g id="node1" class="node">
<title>rqRealAdd__k2_xcmplx_0__r2_r0_r2</title>
<g id="a_node1"><a xlink:href="rqRealAdd__k2_xcmplx_0__r2_r0_r2.html" xlink:title="rqRealAdd__k2_xcmplx_0__r2_r0_r2" target="_vizar">
<polygon fill="#69d2e7" stroke="#7f7542" points="16,-68.5 16,-83.5 270,-83.5 270,-68.5 16,-68.5"/>
<text text-anchor="middle" x="143" y="-72.3" font-family="Times,serif" font-size="14.00">rqRealAdd__k2_xcmplx_0__r2_r0_r2</text>
</a>
</g>
</g>
<!-- c_0_110 -->
<g id="node2" class="node">
<title>c_0_110</title>
<g id="a_node2"><a xlink:href="c_0_110.html" xlink:title="{2 + 0 = 2}" target="_vizar">
<polygon fill="#f8edd1" stroke="#7f7542" points="108,-16.5 108,-31.5 178,-31.5 178,-16.5 108,-16.5"/>
<text text-anchor="middle" x="143" y="-20.3" font-family="Times,serif" font-size="14.00">2 + 0 = 2</text>
</a>
</g>
</g>
<!-- rqRealAdd__k2_xcmplx_0__r2_r0_r2&#45;&gt;c_0_110 -->
<g id="edge1" class="edge">
<title>rqRealAdd__k2_xcmplx_0__r2_r0_r2&#45;&gt;c_0_110</title>
<path fill="none" stroke="black" d="M143,-68.33C143,-68.33 143,-41.7 143,-41.7"/>
<polygon fill="black" stroke="black" points="146.5,-41.7 143,-31.7 139.5,-41.7 146.5,-41.7"/>
</g>
</g>
</svg>
