<?xml version="1.0" encoding="UTF-8" standalone="no"?>
<!DOCTYPE svg PUBLIC "-//W3C//DTD SVG 1.1//EN"
 "http://www.w3.org/Graphics/SVG/1.1/DTD/svg11.dtd">
<!-- Generated by graphviz version 5.0.0 (0)
 -->
<!-- Title: proof Pages: 1 -->
<svg width="108pt" height="108pt"
 viewBox="0.00 0.00 108.00 108.00" xmlns="http://www.w3.org/2000/svg" xmlns:xlink="http://www.w3.org/1999/xlink">
<g id="graph0" class="graph" transform="scale(1 1) rotate(0) translate(4 104)">
<title>proof</title>
<polygon fill="white" stroke="transparent" points="-4,4 -4,-104 104,-104 104,4 -4,4"/>
<g id="clust1" class="cluster">
<title>cluster_1</title>
<polygon fill="none" stroke="black" stroke-width="2" points="8,-60 8,-92 92,-92 92,-60 8,-60"/>
</g>
<g id="clust2" class="cluster">
<title>cluster_2</title>
<polygon fill="none" stroke="black" stroke-dasharray="1,5" points="11,-8 11,-40 89,-40 89,-8 11,-8"/>
</g>
<!-- t28_int_2 -->
<g id="node1" class="node">
<title>t28_int_2</title>
<g id="a_node1"><a xlink:href="http://grid01.ciirc.cvut.cz/~mptp/7.13.01_4.181.1147/html/int_2.html#T28" xlink:title="t28_int_2" target="_blank">
<polygon fill="#69d2e7" stroke="#7f7542" points="16.5,-68.5 16.5,-83.5 83.5,-83.5 83.5,-68.5 16.5,-68.5"/>
<text text-anchor="middle" x="50" y="-72.3" font-family="Times,serif" font-size="14.00">t28_int_2</text>
</a>
</g>
</g>
<!-- c_0_156 -->
<g id="node2" class="node">
<title>c_0_156</title>
<g id="a_node2"><a xlink:href="c_0_156.html" xlink:title="{prime(2)}" target="_parent">
<polygon fill="#f8edd1" stroke="#7f7542" points="19,-16.5 19,-31.5 81,-31.5 81,-16.5 19,-16.5"/>
<text text-anchor="middle" x="50" y="-20.3" font-family="Times,serif" font-size="14.00">prime(2)</text>
</a>
</g>
</g>
<!-- t28_int_2&#45;&gt;c_0_156 -->
<g id="edge1" class="edge">
<title>t28_int_2&#45;&gt;c_0_156</title>
<path fill="none" stroke="black" stroke-dasharray="5,2" d="M50,-68.33C50,-68.33 50,-41.7 50,-41.7"/>
<polygon fill="black" stroke="black" points="53.5,-41.7 50,-31.7 46.5,-41.7 53.5,-41.7"/>
</g>
</g>
</svg>
