<?xml version="1.0" encoding="UTF-8" standalone="no"?>
<!DOCTYPE svg PUBLIC "-//W3C//DTD SVG 1.1//EN"
 "http://www.w3.org/Graphics/SVG/1.1/DTD/svg11.dtd">
<!-- Generated by graphviz version 5.0.0 (0)
 -->
<!-- Title: proof Pages: 1 -->
<svg width="334pt" height="138pt"
 viewBox="0.00 0.00 334.00 138.00" xmlns="http://www.w3.org/2000/svg" xmlns:xlink="http://www.w3.org/1999/xlink">
<g id="graph0" class="graph" transform="scale(1 1) rotate(0) translate(4 134)">
<title>proof</title>
<g id="clust1" class="cluster">
<title>cluster_1</title>
<polygon fill="transparent" stroke="black" stroke-width="2" points="110,-90 110,-122 194,-122 194,-90 110,-90"/>
</g>
<g id="clust2" class="cluster">
<title>cluster_2</title>
<polygon fill="transparent" stroke="black" stroke-dasharray="1,5" points="8,-8 8,-70 318,-70 318,-8 8,-8"/>
</g>
<!-- t31_int_2 -->
<g id="node1" class="node">
<title>t31_int_2</title>
<g id="a_node1"><a xlink:href="t31_int_2.html" xlink:title="t31_int_2" target="_parent">
<polygon fill="#69d2e7" stroke="#7f7542" points="118.5,-98.5 118.5,-113.5 185.5,-113.5 185.5,-98.5 118.5,-98.5"/>
<text text-anchor="middle" x="152" y="-102.3" font-family="Times,serif" font-size="14.00">t31_int_2</text>
</a>
</g>
</g>
<!-- c_0_90 -->
<g id="node2" class="node">
<title>c_0_90</title>
<g id="a_node2"><a xlink:href="c_0_90.html" xlink:title="{2 ≤ C₁|⇊|prime(sk₄(C₁))}" target="_parent">
<polygon fill="#f8edd1" stroke="#7f7542" points="210,-16.5 210,-61.5 310,-61.5 310,-16.5 210,-16.5"/>
<text text-anchor="middle" x="260" y="-50.3" font-family="Times,serif" font-size="14.00">2 ≤ C₁</text>
<polyline fill="none" stroke="#7f7542" points="210,-46.5 310,-46.5 "/>
<text text-anchor="middle" x="260" y="-35.3" font-family="Times,serif" font-size="14.00">⇊</text>
<polyline fill="none" stroke="#7f7542" points="210,-31.5 310,-31.5 "/>
<text text-anchor="middle" x="260" y="-20.3" font-family="Times,serif" font-size="14.00">prime(sk₄(C₁))</text>
</a>
</g>
</g>
<!-- t31_int_2&#45;&gt;c_0_90 -->
<g id="edge1" class="edge">
<title>t31_int_2&#45;&gt;c_0_90</title>
<path fill="none" stroke="black" d="M185.58,-106C217.28,-106 260,-106 260,-106 260,-106 260,-71.68 260,-71.68"/>
<polygon fill="black" stroke="black" points="263.5,-71.68 260,-61.68 256.5,-71.68 263.5,-71.68"/>
</g>
<!-- c_0_59 -->
<g id="node3" class="node">
<title>c_0_59</title>
<g id="a_node3"><a xlink:href="c_0_59.html" xlink:title="{2 ≤ C₁|⇊|sk₄(C₁) ∈ ℕ}" target="_parent">
<polygon fill="#f8edd1" stroke="#7f7542" points="112,-16.5 112,-61.5 192,-61.5 192,-16.5 112,-16.5"/>
<text text-anchor="middle" x="152" y="-50.3" font-family="Times,serif" font-size="14.00">2 ≤ C₁</text>
<polyline fill="none" stroke="#7f7542" points="112,-46.5 192,-46.5 "/>
<text text-anchor="middle" x="152" y="-35.3" font-family="Times,serif" font-size="14.00">⇊</text>
<polyline fill="none" stroke="#7f7542" points="112,-31.5 192,-31.5 "/>
<text text-anchor="middle" x="152" y="-20.3" font-family="Times,serif" font-size="14.00">sk₄(C₁) ∈ ℕ</text>
</a>
</g>
</g>
<!-- t31_int_2&#45;&gt;c_0_59 -->
<g id="edge2" class="edge">
<title>t31_int_2&#45;&gt;c_0_59</title>
<path fill="none" stroke="black" d="M152,-98.31C152,-98.31 152,-71.76 152,-71.76"/>
<polygon fill="black" stroke="black" points="155.5,-71.76 152,-61.76 148.5,-71.76 155.5,-71.76"/>
</g>
<!-- c_0_71 -->
<g id="node4" class="node">
<title>c_0_71</title>
<g id="a_node4"><a xlink:href="c_0_71.html" xlink:title="{2 ≤ C₁|⇊|sk₄(C₁) । C₁}" target="_parent">
<polygon fill="#f8edd1" stroke="#7f7542" points="16,-16.5 16,-61.5 94,-61.5 94,-16.5 16,-16.5"/>
<text text-anchor="middle" x="55" y="-50.3" font-family="Times,serif" font-size="14.00">2 ≤ C₁</text>
<polyline fill="none" stroke="#7f7542" points="16,-46.5 94,-46.5 "/>
<text text-anchor="middle" x="55" y="-35.3" font-family="Times,serif" font-size="14.00">⇊</text>
<polyline fill="none" stroke="#7f7542" points="16,-31.5 94,-31.5 "/>
<text text-anchor="middle" x="55" y="-20.3" font-family="Times,serif" font-size="14.00">sk₄(C₁) । C₁</text>
</a>
</g>
</g>
<!-- t31_int_2&#45;&gt;c_0_71 -->
<g id="edge3" class="edge">
<title>t31_int_2&#45;&gt;c_0_71</title>
<path fill="none" stroke="black" d="M118.35,-106C90.33,-106 55,-106 55,-106 55,-106 55,-71.68 55,-71.68"/>
<polygon fill="black" stroke="black" points="58.5,-71.68 55,-61.68 51.5,-71.68 58.5,-71.68"/>
</g>
</g>
</svg>
