<?xml version="1.0" encoding="UTF-8" standalone="no"?>
<!DOCTYPE svg PUBLIC "-//W3C//DTD SVG 1.1//EN"
 "http://www.w3.org/Graphics/SVG/1.1/DTD/svg11.dtd">
<!-- Generated by graphviz version 5.0.0 (0)
 -->
<!-- Title: proof Pages: 1 -->
<svg width="114pt" height="108pt"
 viewBox="0.00 0.00 114.00 108.00" xmlns="http://www.w3.org/2000/svg" xmlns:xlink="http://www.w3.org/1999/xlink">
<g id="graph0" class="graph" transform="scale(1 1) rotate(0) translate(4 104)">
<title>proof</title>
<polygon fill="white" stroke="transparent" points="-4,4 -4,-104 110,-104 110,4 -4,4"/>
<g id="clust1" class="cluster">
<title>cluster_1</title>
<polygon fill="none" stroke="black" stroke-width="2" points="8,-60 8,-92 98,-92 98,-60 8,-60"/>
</g>
<g id="clust2" class="cluster">
<title>cluster_2</title>
<polygon fill="none" stroke="black" stroke-dasharray="1,5" points="16,-8 16,-40 90,-40 90,-8 16,-8"/>
</g>
<!-- t7_xreal_1 -->
<g id="node1" class="node">
<title>t7_xreal_1</title>
<g id="a_node1"><a xlink:href="http://grid01.ciirc.cvut.cz/~mptp/7.13.01_4.181.1147/html/xreal_1.html#T7" xlink:title="t7_xreal_1" target="_blank">
<polygon fill="#69d2e7" stroke="#7f7542" points="16,-68.5 16,-83.5 90,-83.5 90,-68.5 16,-68.5"/>
<text text-anchor="middle" x="53" y="-72.3" font-family="Times,serif" font-size="14.00">t7_xreal_1</text>
</a>
</g>
</g>
<!-- c_0_107 -->
<g id="node2" class="node">
<title>c_0_107</title>
<g id="a_node2"><a xlink:href="c_0_107.html" xlink:title="c_0_107" target="_parent">
<polygon fill="#f8edd1" stroke="#7f7542" points="24,-16.5 24,-31.5 82,-31.5 82,-16.5 24,-16.5"/>
<text text-anchor="middle" x="53" y="-20.3" font-family="Times,serif" font-size="14.00">c_0_107</text>
</a>
</g>
</g>
<!-- t7_xreal_1&#45;&gt;c_0_107 -->
<g id="edge1" class="edge">
<title>t7_xreal_1&#45;&gt;c_0_107</title>
<path fill="none" stroke="black" stroke-dasharray="5,2" d="M53,-68.33C53,-68.33 53,-41.7 53,-41.7"/>
<polygon fill="black" stroke="black" points="56.5,-41.7 53,-31.7 49.5,-41.7 56.5,-41.7"/>
</g>
</g>
</svg>
