<?xml version="1.0" encoding="UTF-8" standalone="no"?>
<!DOCTYPE svg PUBLIC "-//W3C//DTD SVG 1.1//EN"
 "http://www.w3.org/Graphics/SVG/1.1/DTD/svg11.dtd">
<!-- Generated by graphviz version 5.0.0 (0)
 -->
<!-- Title: proof Pages: 1 -->
<svg width="452pt" height="160pt"
 viewBox="0.00 0.00 452.00 160.00" xmlns="http://www.w3.org/2000/svg" xmlns:xlink="http://www.w3.org/1999/xlink">
<g id="graph0" class="graph" transform="scale(1 1) rotate(0) translate(4 156)">
<title>proof</title>
<g id="clust1" class="cluster">
<title>cluster_0</title>
<polygon fill="transparent" stroke="black" stroke-dasharray="1,5" points="163,-112 163,-144 267,-144 267,-112 163,-112"/>
</g>
<g id="clust2" class="cluster">
<title>cluster_1</title>
<polygon fill="transparent" stroke="black" stroke-width="2" points="96,-60 96,-92 334,-92 334,-60 96,-60"/>
</g>
<g id="clust3" class="cluster">
<title>cluster_2</title>
<polygon fill="transparent" stroke="black" stroke-dasharray="1,5" points="8,-8 8,-40 436,-40 436,-8 8,-8"/>
</g>
<!-- spc6_arithm -->
<g id="node1" class="node">
<title>spc6_arithm</title>
<g id="a_node1"><a xlink:href="spc6_arithm.html" xlink:title="spc6_arithm" target="_vizar">
<polygon fill="#69d2e7" stroke="#7f7542" points="171,-120.5 171,-135.5 259,-135.5 259,-120.5 171,-120.5"/>
<text text-anchor="middle" x="215" y="-124.3" font-family="Times,serif" font-size="14.00">spc6_arithm</text>
</a>
</g>
</g>
<!-- c_0_52 -->
<g id="node2" class="node">
<title>c_0_52</title>
<g id="a_node2"><a xlink:href="c_0_52.html" xlink:title="{(C₁ + C₂) + C₃ = C₁ + (C₂ + C₃)}" target="_vizar">
<polygon fill="#f8edd1" stroke="#7f7542" points="104.5,-68.5 104.5,-83.5 325.5,-83.5 325.5,-68.5 104.5,-68.5"/>
<text text-anchor="middle" x="215" y="-72.3" font-family="Times,serif" font-size="14.00">(C₁ + C₂) + C₃ = C₁ + (C₂ + C₃)</text>
</a>
</g>
</g>
<!-- spc6_arithm&#45;&gt;c_0_52 -->
<g id="edge1" class="edge">
<title>spc6_arithm&#45;&gt;c_0_52</title>
<path fill="none" stroke="black" d="M215,-120.33C215,-120.33 215,-93.7 215,-93.7"/>
<polygon fill="black" stroke="black" points="218.5,-93.7 215,-83.7 211.5,-93.7 218.5,-93.7"/>
</g>
<!-- c_0_65 -->
<g id="node3" class="node">
<title>c_0_65</title>
<g id="a_node3"><a xlink:href="c_0_65.html" xlink:title="{C₁ + (C₂ + &#45;(C₃)) = &#45;(C₁ + C₂,C₃)}" target="_vizar">
<polygon fill="#f8edd1" stroke="#7f7542" points="204,-16.5 204,-31.5 428,-31.5 428,-16.5 204,-16.5"/>
<text text-anchor="middle" x="316" y="-20.3" font-family="Times,serif" font-size="14.00">C₁ + (C₂ + &#45;(C₃)) = &#45;(C₁ + C₂,C₃)</text>
</a>
</g>
</g>
<!-- c_0_52&#45;&gt;c_0_65 -->
<g id="edge2" class="edge">
<title>c_0_52&#45;&gt;c_0_65</title>
<path fill="none" stroke="black" stroke-dasharray="5,2" d="M264.75,-68.33C264.75,-68.33 264.75,-41.7 264.75,-41.7"/>
<polygon fill="black" stroke="black" points="268.25,-41.7 264.75,-31.7 261.25,-41.7 268.25,-41.7"/>
</g>
<!-- c_0_97 -->
<g id="node4" class="node">
<title>c_0_97</title>
<g id="a_node4"><a xlink:href="c_0_97.html" xlink:title="{1 + (&#45;(1) + C₁) = 0 + C₁}" target="_vizar">
<polygon fill="#f8edd1" stroke="#7f7542" points="16.5,-16.5 16.5,-31.5 185.5,-31.5 185.5,-16.5 16.5,-16.5"/>
<text text-anchor="middle" x="101" y="-20.3" font-family="Times,serif" font-size="14.00">1 + (&#45;(1) + C₁) = 0 + C₁</text>
</a>
</g>
</g>
<!-- c_0_52&#45;&gt;c_0_97 -->
<g id="edge3" class="edge">
<title>c_0_52&#45;&gt;c_0_97</title>
<path fill="none" stroke="black" stroke-dasharray="5,2" d="M145,-68.33C145,-68.33 145,-41.7 145,-41.7"/>
<polygon fill="black" stroke="black" points="148.5,-41.7 145,-31.7 141.5,-41.7 148.5,-41.7"/>
</g>
</g>
</svg>
