<?xml version="1.0" encoding="UTF-8" standalone="no"?>
<!DOCTYPE svg PUBLIC "-//W3C//DTD SVG 1.1//EN"
 "http://www.w3.org/Graphics/SVG/1.1/DTD/svg11.dtd">
<!-- Generated by graphviz version 5.0.0 (0)
 -->
<!-- Title: proof Pages: 1 -->
<svg width="362pt" height="160pt"
 viewBox="0.00 0.00 362.00 160.00" xmlns="http://www.w3.org/2000/svg" xmlns:xlink="http://www.w3.org/1999/xlink">
<g id="graph0" class="graph" transform="scale(1 1) rotate(0) translate(4 156)">
<title>proof</title>
<g id="clust1" class="cluster">
<title>cluster_0</title>
<polygon fill="transparent" stroke="black" stroke-dasharray="1,5" points="8,-112 8,-144 346,-144 346,-112 8,-112"/>
</g>
<g id="clust2" class="cluster">
<title>cluster_1</title>
<polygon fill="transparent" stroke="black" stroke-width="2" points="171,-60 171,-92 303,-92 303,-60 171,-60"/>
</g>
<g id="clust3" class="cluster">
<title>cluster_2</title>
<polygon fill="transparent" stroke="black" stroke-dasharray="1,5" points="186,-8 186,-40 288,-40 288,-8 186,-8"/>
</g>
<!-- c_0_81 -->
<g id="node1" class="node">
<title>c_0_81</title>
<g id="a_node1"><a xlink:href="c_0_81.html" xlink:title="{0 ∈ ℂ}" target="_parent">
<polygon fill="#f8edd1" stroke="#7f7542" points="298,-120.5 298,-135.5 338,-135.5 338,-120.5 298,-120.5"/>
<text text-anchor="middle" x="318" y="-124.3" font-family="Times,serif" font-size="14.00">0 ∈ ℂ</text>
</a>
</g>
</g>
<!-- c_0_105 -->
<g id="node4" class="node">
<title>c_0_105</title>
<g id="a_node4"><a xlink:href="c_0_105.html" xlink:title="{&#45;(N₁,0) = 0 + N₁}" target="_parent">
<polygon fill="#f8edd1" stroke="#7f7542" points="179.5,-68.5 179.5,-83.5 294.5,-83.5 294.5,-68.5 179.5,-68.5"/>
<text text-anchor="middle" x="237" y="-72.3" font-family="Times,serif" font-size="14.00">&#45;(N₁,0) = 0 + N₁</text>
</a>
</g>
</g>
<!-- c_0_81&#45;&gt;c_0_105 -->
<g id="edge1" class="edge">
<title>c_0_81&#45;&gt;c_0_105</title>
<path fill="none" stroke="black" d="M297.84,-128C291.92,-128 287,-128 287,-128 287,-128 287,-93.67 287,-93.67"/>
<polygon fill="black" stroke="black" points="290.5,-93.67 287,-83.67 283.5,-93.67 290.5,-93.67"/>
</g>
<!-- c_0_99 -->
<g id="node2" class="node">
<title>c_0_99</title>
<g id="a_node2"><a xlink:href="c_0_99.html" xlink:title="{&#45;(N₁,0) = N₁}" target="_parent">
<polygon fill="#f8edd1" stroke="#7f7542" points="194.5,-120.5 194.5,-135.5 279.5,-135.5 279.5,-120.5 194.5,-120.5"/>
<text text-anchor="middle" x="237" y="-124.3" font-family="Times,serif" font-size="14.00">&#45;(N₁,0) = N₁</text>
</a>
</g>
</g>
<!-- c_0_99&#45;&gt;c_0_105 -->
<g id="edge2" class="edge">
<title>c_0_99&#45;&gt;c_0_105</title>
<path fill="none" stroke="black" d="M237,-120.33C237,-120.33 237,-93.7 237,-93.7"/>
<polygon fill="black" stroke="black" points="240.5,-93.7 237,-83.7 233.5,-93.7 240.5,-93.7"/>
</g>
<!-- c_0_98 -->
<g id="node3" class="node">
<title>c_0_98</title>
<g id="a_node3"><a xlink:href="c_0_98.html" xlink:title="{&#45;(0,N₁) + N₂ = &#45;(N₂,N₁)}" target="_parent">
<polygon fill="#f8edd1" stroke="#7f7542" points="16,-120.5 16,-135.5 176,-135.5 176,-120.5 16,-120.5"/>
<text text-anchor="middle" x="96" y="-124.3" font-family="Times,serif" font-size="14.00">&#45;(0,N₁) + N₂ = &#45;(N₂,N₁)</text>
</a>
</g>
</g>
<!-- c_0_98&#45;&gt;c_0_105 -->
<g id="edge3" class="edge">
<title>c_0_98&#45;&gt;c_0_105</title>
<path fill="none" stroke="black" d="M176.2,-128C182.8,-128 187,-128 187,-128 187,-128 187,-93.67 187,-93.67"/>
<polygon fill="black" stroke="black" points="190.5,-93.67 187,-83.67 183.5,-93.67 190.5,-93.67"/>
</g>
<!-- c_0_111 -->
<g id="node5" class="node">
<title>c_0_111</title>
<g id="a_node5"><a xlink:href="c_0_111.html" xlink:title="{0 + N₁ = N₁}" target="_parent">
<polygon fill="#f8edd1" stroke="#7f7542" points="194,-16.5 194,-31.5 280,-31.5 280,-16.5 194,-16.5"/>
<text text-anchor="middle" x="237" y="-20.3" font-family="Times,serif" font-size="14.00">0 + N₁ = N₁</text>
</a>
</g>
</g>
<!-- c_0_105&#45;&gt;c_0_111 -->
<g id="edge4" class="edge">
<title>c_0_105&#45;&gt;c_0_111</title>
<path fill="none" stroke="black" stroke-dasharray="5,2" d="M237,-68.33C237,-68.33 237,-41.7 237,-41.7"/>
<polygon fill="black" stroke="black" points="240.5,-41.7 237,-31.7 233.5,-41.7 240.5,-41.7"/>
</g>
</g>
</svg>
