<?xml version="1.0" encoding="UTF-8" standalone="no"?>
<!DOCTYPE svg PUBLIC "-//W3C//DTD SVG 1.1//EN"
 "http://www.w3.org/Graphics/SVG/1.1/DTD/svg11.dtd">
<!-- Generated by graphviz version 5.0.0 (0)
 -->
<!-- Title: proof Pages: 1 -->
<svg width="479pt" height="490pt"
 viewBox="0.00 0.00 479.00 490.00" xmlns="http://www.w3.org/2000/svg" xmlns:xlink="http://www.w3.org/1999/xlink">
<g id="graph0" class="graph" transform="scale(1 1) rotate(0) translate(4 486)">
<title>proof</title>
<g id="clust1" class="cluster">
<title>cluster_0</title>
<polygon fill="transparent" stroke="black" stroke-dasharray="1,5" points="8,-322 8,-474 463,-474 463,-322 8,-322"/>
</g>
<g id="clust2" class="cluster">
<title>cluster_1</title>
<polygon fill="transparent" stroke="black" stroke-width="2" points="42,-150 42,-302 354,-302 354,-150 42,-150"/>
</g>
<g id="clust3" class="cluster">
<title>cluster_2</title>
<polygon fill="transparent" stroke="black" stroke-dasharray="1,5" points="115,-8 115,-130 281,-130 281,-8 115,-8"/>
</g>
<!-- c_0_110 -->
<g id="node1" class="node">
<title>c_0_110</title>
<g id="a_node1"><a xlink:href="c_0_110.html" xlink:title="{&#45;(1,C₃) ∈ ℝ|Affine(X₅,X₁)|RLSStruct(X₁)|X₂ ∈ X₅|X₄ ∈ X₅|X₅ ∈ bool(carrier(X₁))|⇊|X₁ + (X₁ * X₂ * (0 + C₃)) + (X₁ * X₄ * &#45;(1,C₃)) ∈ X₅|empty(X₁)}" target="_vizar">
<polygon fill="#f8edd1" stroke="#7f7542" points="117.5,-330.5 117.5,-465.5 454.5,-465.5 454.5,-330.5 117.5,-330.5"/>
<text text-anchor="middle" x="286" y="-454.3" font-family="Times,serif" font-size="14.00">&#45;(1,C₃) ∈ ℝ</text>
<polyline fill="none" stroke="#7f7542" points="117.5,-450.5 454.5,-450.5 "/>
<text text-anchor="middle" x="286" y="-439.3" font-family="Times,serif" font-size="14.00">Affine(X₅,X₁)</text>
<polyline fill="none" stroke="#7f7542" points="117.5,-435.5 454.5,-435.5 "/>
<text text-anchor="middle" x="286" y="-424.3" font-family="Times,serif" font-size="14.00">RLSStruct(X₁)</text>
<polyline fill="none" stroke="#7f7542" points="117.5,-420.5 454.5,-420.5 "/>
<text text-anchor="middle" x="286" y="-409.3" font-family="Times,serif" font-size="14.00">X₂ ∈ X₅</text>
<polyline fill="none" stroke="#7f7542" points="117.5,-405.5 454.5,-405.5 "/>
<text text-anchor="middle" x="286" y="-394.3" font-family="Times,serif" font-size="14.00">X₄ ∈ X₅</text>
<polyline fill="none" stroke="#7f7542" points="117.5,-390.5 454.5,-390.5 "/>
<text text-anchor="middle" x="286" y="-379.3" font-family="Times,serif" font-size="14.00">X₅ ∈ bool(carrier(X₁))</text>
<polyline fill="none" stroke="#7f7542" points="117.5,-375.5 454.5,-375.5 "/>
<text text-anchor="middle" x="286" y="-364.3" font-family="Times,serif" font-size="14.00">⇊</text>
<polyline fill="none" stroke="#7f7542" points="117.5,-360.5 454.5,-360.5 "/>
<text text-anchor="middle" x="286" y="-349.3" font-family="Times,serif" font-size="14.00">X₁ + (X₁ * X₂ * (0 + C₃)) + (X₁ * X₄ * &#45;(1,C₃)) ∈ X₅</text>
<polyline fill="none" stroke="#7f7542" points="117.5,-345.5 454.5,-345.5 "/>
<text text-anchor="middle" x="286" y="-334.3" font-family="Times,serif" font-size="14.00">empty(X₁)</text>
</a>
</g>
</g>
<!-- c_0_114 -->
<g id="node3" class="node">
<title>c_0_114</title>
<g id="a_node3"><a xlink:href="c_0_114.html" xlink:title="{&#45;(1,C₃) ∈ ℝ|Affine(X₅,X₁)|RLSStruct(X₁)|X₂ ∈ X₅|X₄ ∈ X₅|X₅ ∈ bool(carrier(X₁))|⇊|X₁ + (X₁ * X₂ * C₃) + (X₁ * X₄ * &#45;(1,C₃)) ∈ X₅|empty(X₁)}" target="_vizar">
<polygon fill="#f8edd1" stroke="#7f7542" points="50,-158.5 50,-293.5 346,-293.5 346,-158.5 50,-158.5"/>
<text text-anchor="middle" x="198" y="-282.3" font-family="Times,serif" font-size="14.00">&#45;(1,C₃) ∈ ℝ</text>
<polyline fill="none" stroke="#7f7542" points="50,-278.5 346,-278.5 "/>
<text text-anchor="middle" x="198" y="-267.3" font-family="Times,serif" font-size="14.00">Affine(X₅,X₁)</text>
<polyline fill="none" stroke="#7f7542" points="50,-263.5 346,-263.5 "/>
<text text-anchor="middle" x="198" y="-252.3" font-family="Times,serif" font-size="14.00">RLSStruct(X₁)</text>
<polyline fill="none" stroke="#7f7542" points="50,-248.5 346,-248.5 "/>
<text text-anchor="middle" x="198" y="-237.3" font-family="Times,serif" font-size="14.00">X₂ ∈ X₅</text>
<polyline fill="none" stroke="#7f7542" points="50,-233.5 346,-233.5 "/>
<text text-anchor="middle" x="198" y="-222.3" font-family="Times,serif" font-size="14.00">X₄ ∈ X₅</text>
<polyline fill="none" stroke="#7f7542" points="50,-218.5 346,-218.5 "/>
<text text-anchor="middle" x="198" y="-207.3" font-family="Times,serif" font-size="14.00">X₅ ∈ bool(carrier(X₁))</text>
<polyline fill="none" stroke="#7f7542" points="50,-203.5 346,-203.5 "/>
<text text-anchor="middle" x="198" y="-192.3" font-family="Times,serif" font-size="14.00">⇊</text>
<polyline fill="none" stroke="#7f7542" points="50,-188.5 346,-188.5 "/>
<text text-anchor="middle" x="198" y="-177.3" font-family="Times,serif" font-size="14.00">X₁ + (X₁ * X₂ * C₃) + (X₁ * X₄ * &#45;(1,C₃)) ∈ X₅</text>
<polyline fill="none" stroke="#7f7542" points="50,-173.5 346,-173.5 "/>
<text text-anchor="middle" x="198" y="-162.3" font-family="Times,serif" font-size="14.00">empty(X₁)</text>
</a>
</g>
</g>
<!-- c_0_110&#45;&gt;c_0_114 -->
<g id="edge1" class="edge">
<title>c_0_110&#45;&gt;c_0_114</title>
<path fill="none" stroke="black" d="M231.75,-330.02C231.75,-330.02 231.75,-303.77 231.75,-303.77"/>
<polygon fill="black" stroke="black" points="235.25,-303.77 231.75,-293.77 228.25,-303.77 235.25,-303.77"/>
</g>
<!-- c_0_111 -->
<g id="node2" class="node">
<title>c_0_111</title>
<g id="a_node2"><a xlink:href="c_0_111.html" xlink:title="{0 + C₁ = C₁}" target="_vizar">
<polygon fill="#f8edd1" stroke="#7f7542" points="16.5,-390.5 16.5,-405.5 99.5,-405.5 99.5,-390.5 16.5,-390.5"/>
<text text-anchor="middle" x="58" y="-394.3" font-family="Times,serif" font-size="14.00">0 + C₁ = C₁</text>
</a>
</g>
</g>
<!-- c_0_111&#45;&gt;c_0_114 -->
<g id="edge2" class="edge">
<title>c_0_111&#45;&gt;c_0_114</title>
<path fill="none" stroke="black" d="M74.75,-390.16C74.75,-390.16 74.75,-303.74 74.75,-303.74"/>
<polygon fill="black" stroke="black" points="78.25,-303.74 74.75,-293.74 71.25,-303.74 78.25,-303.74"/>
</g>
<!-- c_0_120 -->
<g id="node4" class="node">
<title>c_0_120</title>
<g id="a_node4"><a xlink:href="c_0_120.html" xlink:title="{&#45;(1,sk₅(X₂,X₁)) ∈ ℝ|Affine(X₁,X₂)|RLSStruct(X₂)|X₁ ∈ bool(carrier(X₂))|⇊|convex(X₁,X₂)|empty(X₂)}" target="_vizar">
<polygon fill="#f8edd1" stroke="#7f7542" points="123,-16.5 123,-121.5 273,-121.5 273,-16.5 123,-16.5"/>
<text text-anchor="middle" x="198" y="-110.3" font-family="Times,serif" font-size="14.00">&#45;(1,sk₅(X₂,X₁)) ∈ ℝ</text>
<polyline fill="none" stroke="#7f7542" points="123,-106.5 273,-106.5 "/>
<text text-anchor="middle" x="198" y="-95.3" font-family="Times,serif" font-size="14.00">Affine(X₁,X₂)</text>
<polyline fill="none" stroke="#7f7542" points="123,-91.5 273,-91.5 "/>
<text text-anchor="middle" x="198" y="-80.3" font-family="Times,serif" font-size="14.00">RLSStruct(X₂)</text>
<polyline fill="none" stroke="#7f7542" points="123,-76.5 273,-76.5 "/>
<text text-anchor="middle" x="198" y="-65.3" font-family="Times,serif" font-size="14.00">X₁ ∈ bool(carrier(X₂))</text>
<polyline fill="none" stroke="#7f7542" points="123,-61.5 273,-61.5 "/>
<text text-anchor="middle" x="198" y="-50.3" font-family="Times,serif" font-size="14.00">⇊</text>
<polyline fill="none" stroke="#7f7542" points="123,-46.5 273,-46.5 "/>
<text text-anchor="middle" x="198" y="-35.3" font-family="Times,serif" font-size="14.00">convex(X₁,X₂)</text>
<polyline fill="none" stroke="#7f7542" points="123,-31.5 273,-31.5 "/>
<text text-anchor="middle" x="198" y="-20.3" font-family="Times,serif" font-size="14.00">empty(X₂)</text>
</a>
</g>
</g>
<!-- c_0_114&#45;&gt;c_0_120 -->
<g id="edge3" class="edge">
<title>c_0_114&#45;&gt;c_0_120</title>
<path fill="none" stroke="black" stroke-dasharray="5,2" d="M198,-158.05C198,-158.05 198,-131.91 198,-131.91"/>
<polygon fill="black" stroke="black" points="201.5,-131.91 198,-121.91 194.5,-131.91 201.5,-131.91"/>
</g>
</g>
</svg>
