<?xml version="1.0" encoding="UTF-8" standalone="no"?>
<!DOCTYPE svg PUBLIC "-//W3C//DTD SVG 1.1//EN"
 "http://www.w3.org/Graphics/SVG/1.1/DTD/svg11.dtd">
<!-- Generated by graphviz version 5.0.0 (0)
 -->
<!-- Title: proof Pages: 1 -->
<svg width="363pt" height="190pt"
 viewBox="0.00 0.00 363.00 190.00" xmlns="http://www.w3.org/2000/svg" xmlns:xlink="http://www.w3.org/1999/xlink">
<g id="graph0" class="graph" transform="scale(1 1) rotate(0) translate(4 186)">
<title>proof</title>
<g id="clust1" class="cluster">
<title>cluster_0</title>
<polygon fill="transparent" stroke="black" stroke-dasharray="1,5" points="8,-112 8,-174 347,-174 347,-112 8,-112"/>
</g>
<g id="clust2" class="cluster">
<title>cluster_1</title>
<polygon fill="transparent" stroke="black" stroke-width="2" points="156,-60 156,-92 236,-92 236,-60 156,-60"/>
</g>
<g id="clust3" class="cluster">
<title>cluster_2</title>
<polygon fill="transparent" stroke="black" stroke-dasharray="1,5" points="164,-8 164,-40 228,-40 228,-8 164,-8"/>
</g>
<!-- c_0_50 -->
<g id="node1" class="node">
<title>c_0_50</title>
<g id="a_node1"><a xlink:href="c_0_50.html" xlink:title="{0 ∈ ℝ}" target="_vizar">
<polygon fill="#f8edd1" stroke="#7f7542" points="297.5,-135.5 297.5,-150.5 338.5,-150.5 338.5,-135.5 297.5,-135.5"/>
<text text-anchor="middle" x="318" y="-139.3" font-family="Times,serif" font-size="14.00">0 ∈ ℝ</text>
</a>
</g>
</g>
<!-- c_0_112 -->
<g id="node5" class="node">
<title>c_0_112</title>
<g id="a_node5"><a xlink:href="c_0_112.html" xlink:title="{&#45;(R₁) ∈ ℝ}" target="_vizar">
<polygon fill="#f8edd1" stroke="#7f7542" points="164.5,-68.5 164.5,-83.5 227.5,-83.5 227.5,-68.5 164.5,-68.5"/>
<text text-anchor="middle" x="196" y="-72.3" font-family="Times,serif" font-size="14.00">&#45;(R₁) ∈ ℝ</text>
</a>
</g>
</g>
<!-- c_0_50&#45;&gt;c_0_112 -->
<g id="edge1" class="edge">
<title>c_0_50&#45;&gt;c_0_112</title>
<path fill="none" stroke="black" d="M318,-135.31C318,-117.72 318,-76 318,-76 318,-76 237.74,-76 237.74,-76"/>
<polygon fill="black" stroke="black" points="237.74,-72.5 227.74,-76 237.74,-79.5 237.74,-72.5"/>
</g>
<!-- c_0_34 -->
<g id="node2" class="node">
<title>c_0_34</title>
<g id="a_node2"><a xlink:href="c_0_34.html" xlink:title="{X₁ ∈ ℝ|⇊|&#45;(X₁,R₂) ∈ ℝ}" target="_vizar">
<polygon fill="#f8edd1" stroke="#7f7542" points="197,-120.5 197,-165.5 279,-165.5 279,-120.5 197,-120.5"/>
<text text-anchor="middle" x="238" y="-154.3" font-family="Times,serif" font-size="14.00">X₁ ∈ ℝ</text>
<polyline fill="none" stroke="#7f7542" points="197,-150.5 279,-150.5 "/>
<text text-anchor="middle" x="238" y="-139.3" font-family="Times,serif" font-size="14.00">⇊</text>
<polyline fill="none" stroke="#7f7542" points="197,-135.5 279,-135.5 "/>
<text text-anchor="middle" x="238" y="-124.3" font-family="Times,serif" font-size="14.00">&#45;(X₁,R₂) ∈ ℝ</text>
</a>
</g>
</g>
<!-- c_0_34&#45;&gt;c_0_112 -->
<g id="edge2" class="edge">
<title>c_0_34&#45;&gt;c_0_112</title>
<path fill="none" stroke="black" d="M212.25,-120.32C212.25,-120.32 212.25,-93.59 212.25,-93.59"/>
<polygon fill="black" stroke="black" points="215.75,-93.59 212.25,-83.59 208.75,-93.59 215.75,-93.59"/>
</g>
<!-- c_0_107 -->
<g id="node3" class="node">
<title>c_0_107</title>
<g id="a_node3"><a xlink:href="c_0_107.html" xlink:title="{R₁ ∈ ℂ}" target="_vizar">
<polygon fill="#f8edd1" stroke="#7f7542" points="131.5,-135.5 131.5,-150.5 178.5,-150.5 178.5,-135.5 131.5,-135.5"/>
<text text-anchor="middle" x="155" y="-139.3" font-family="Times,serif" font-size="14.00">R₁ ∈ ℂ</text>
</a>
</g>
</g>
<!-- c_0_107&#45;&gt;c_0_112 -->
<g id="edge3" class="edge">
<title>c_0_107&#45;&gt;c_0_112</title>
<path fill="none" stroke="black" d="M171.5,-135.31C171.5,-135.31 171.5,-93.6 171.5,-93.6"/>
<polygon fill="black" stroke="black" points="175,-93.6 171.5,-83.6 168,-93.6 175,-93.6"/>
</g>
<!-- c_0_106 -->
<g id="node4" class="node">
<title>c_0_106</title>
<g id="a_node4"><a xlink:href="c_0_106.html" xlink:title="{&#45;(0,C₁) = &#45;(C₁)}" target="_vizar">
<polygon fill="#f8edd1" stroke="#7f7542" points="16.5,-135.5 16.5,-150.5 113.5,-150.5 113.5,-135.5 16.5,-135.5"/>
<text text-anchor="middle" x="65" y="-139.3" font-family="Times,serif" font-size="14.00">&#45;(0,C₁) = &#45;(C₁)</text>
</a>
</g>
</g>
<!-- c_0_106&#45;&gt;c_0_112 -->
<g id="edge4" class="edge">
<title>c_0_106&#45;&gt;c_0_112</title>
<path fill="none" stroke="black" d="M65,-135.31C65,-117.72 65,-76 65,-76 65,-76 154.29,-76 154.29,-76"/>
<polygon fill="black" stroke="black" points="154.29,-79.5 164.29,-76 154.29,-72.5 154.29,-79.5"/>
</g>
<!-- c_0_117 -->
<g id="node6" class="node">
<title>c_0_117</title>
<g id="a_node6"><a xlink:href="c_0_117.html" xlink:title="{C₁ ∈ ℝ}" target="_vizar">
<polygon fill="#f8edd1" stroke="#7f7542" points="172,-16.5 172,-31.5 220,-31.5 220,-16.5 172,-16.5"/>
<text text-anchor="middle" x="196" y="-20.3" font-family="Times,serif" font-size="14.00">C₁ ∈ ℝ</text>
</a>
</g>
</g>
<!-- c_0_112&#45;&gt;c_0_117 -->
<g id="edge5" class="edge">
<title>c_0_112&#45;&gt;c_0_117</title>
<path fill="none" stroke="black" stroke-dasharray="5,2" d="M196,-68.33C196,-68.33 196,-41.7 196,-41.7"/>
<polygon fill="black" stroke="black" points="199.5,-41.7 196,-31.7 192.5,-41.7 199.5,-41.7"/>
</g>
</g>
</svg>
