<?xml version="1.0" encoding="UTF-8" standalone="no"?>
<!DOCTYPE svg PUBLIC "-//W3C//DTD SVG 1.1//EN"
 "http://www.w3.org/Graphics/SVG/1.1/DTD/svg11.dtd">
<!-- Generated by graphviz version 5.0.0 (0)
 -->
<!-- Title: proof Pages: 1 -->
<svg width="208pt" height="160pt"
 viewBox="0.00 0.00 208.00 160.00" xmlns="http://www.w3.org/2000/svg" xmlns:xlink="http://www.w3.org/1999/xlink">
<g id="graph0" class="graph" transform="scale(1 1) rotate(0) translate(4 156)">
<title>proof</title>
<g id="clust1" class="cluster">
<title>cluster_0</title>
<polygon fill="transparent" stroke="black" stroke-dasharray="1,5" points="8,-112 8,-144 192,-144 192,-112 8,-112"/>
</g>
<g id="clust2" class="cluster">
<title>cluster_1</title>
<polygon fill="transparent" stroke="black" stroke-width="2" points="72,-60 72,-92 138,-92 138,-60 72,-60"/>
</g>
<g id="clust3" class="cluster">
<title>cluster_2</title>
<polygon fill="transparent" stroke="black" stroke-dasharray="1,5" points="73,-8 73,-40 137,-40 137,-8 73,-8"/>
</g>
<!-- c_0_112 -->
<g id="node1" class="node">
<title>c_0_112</title>
<g id="a_node1"><a xlink:href="c_0_112.html" xlink:title="{&#45;(R₁) ∈ ℝ}" target="_parent">
<polygon fill="#f8edd1" stroke="#7f7542" points="120.5,-120.5 120.5,-135.5 183.5,-135.5 183.5,-120.5 120.5,-120.5"/>
<text text-anchor="middle" x="152" y="-124.3" font-family="Times,serif" font-size="14.00">&#45;(R₁) ∈ ℝ</text>
</a>
</g>
</g>
<!-- c_0_117 -->
<g id="node3" class="node">
<title>c_0_117</title>
<g id="a_node3"><a xlink:href="c_0_117.html" xlink:title="{N₁ ∈ ℝ}" target="_parent">
<polygon fill="#f8edd1" stroke="#7f7542" points="80.5,-68.5 80.5,-83.5 129.5,-83.5 129.5,-68.5 80.5,-68.5"/>
<text text-anchor="middle" x="105" y="-72.3" font-family="Times,serif" font-size="14.00">N₁ ∈ ℝ</text>
</a>
</g>
</g>
<!-- c_0_112&#45;&gt;c_0_117 -->
<g id="edge1" class="edge">
<title>c_0_112&#45;&gt;c_0_117</title>
<path fill="none" stroke="black" d="M125,-120.33C125,-120.33 125,-93.7 125,-93.7"/>
<polygon fill="black" stroke="black" points="128.5,-93.7 125,-83.7 121.5,-93.7 128.5,-93.7"/>
</g>
<!-- c_0_60 -->
<g id="node2" class="node">
<title>c_0_60</title>
<g id="a_node2"><a xlink:href="c_0_60.html" xlink:title="{&#45;(&#45;(N₁)) = N₁}" target="_parent">
<polygon fill="#f8edd1" stroke="#7f7542" points="16,-120.5 16,-135.5 102,-135.5 102,-120.5 16,-120.5"/>
<text text-anchor="middle" x="59" y="-124.3" font-family="Times,serif" font-size="14.00">&#45;(&#45;(N₁)) = N₁</text>
</a>
</g>
</g>
<!-- c_0_60&#45;&gt;c_0_117 -->
<g id="edge2" class="edge">
<title>c_0_60&#45;&gt;c_0_117</title>
<path fill="none" stroke="black" d="M91.25,-120.33C91.25,-120.33 91.25,-93.7 91.25,-93.7"/>
<polygon fill="black" stroke="black" points="94.75,-93.7 91.25,-83.7 87.75,-93.7 94.75,-93.7"/>
</g>
<!-- c_0_121 -->
<g id="node4" class="node">
<title>c_0_121</title>
<g id="a_node4"><a xlink:href="c_0_121.html" xlink:title="{R₁ ∈ ℝ}" target="_parent">
<polygon fill="#f8edd1" stroke="#7f7542" points="81,-16.5 81,-31.5 129,-31.5 129,-16.5 81,-16.5"/>
<text text-anchor="middle" x="105" y="-20.3" font-family="Times,serif" font-size="14.00">R₁ ∈ ℝ</text>
</a>
</g>
</g>
<!-- c_0_117&#45;&gt;c_0_121 -->
<g id="edge3" class="edge">
<title>c_0_117&#45;&gt;c_0_121</title>
<path fill="none" stroke="black" stroke-dasharray="5,2" d="M105,-68.33C105,-68.33 105,-41.7 105,-41.7"/>
<polygon fill="black" stroke="black" points="108.5,-41.7 105,-31.7 101.5,-41.7 108.5,-41.7"/>
</g>
</g>
</svg>
