<?xml version="1.0" encoding="UTF-8" standalone="no"?>
<!DOCTYPE svg PUBLIC "-//W3C//DTD SVG 1.1//EN"
 "http://www.w3.org/Graphics/SVG/1.1/DTD/svg11.dtd">
<!-- Generated by graphviz version 5.0.0 (0)
 -->
<!-- Title: proof Pages: 1 -->
<svg width="516pt" height="160pt"
 viewBox="0.00 0.00 516.00 160.00" xmlns="http://www.w3.org/2000/svg" xmlns:xlink="http://www.w3.org/1999/xlink">
<g id="graph0" class="graph" transform="scale(1 1) rotate(0) translate(4 156)">
<title>proof</title>
<g id="clust1" class="cluster">
<title>cluster_0</title>
<polygon fill="transparent" stroke="black" stroke-dasharray="1,5" points="8,-112 8,-144 500,-144 500,-112 8,-112"/>
</g>
<g id="clust2" class="cluster">
<title>cluster_1</title>
<polygon fill="transparent" stroke="black" stroke-width="2" points="46,-60 46,-92 296,-92 296,-60 46,-60"/>
</g>
<g id="clust3" class="cluster">
<title>cluster_2</title>
<polygon fill="transparent" stroke="black" stroke-dasharray="1,5" points="60,-8 60,-40 282,-40 282,-8 60,-8"/>
</g>
<!-- c_0_52 -->
<g id="node1" class="node">
<title>c_0_52</title>
<g id="a_node1"><a xlink:href="c_0_52.html" xlink:title="{(N₁ + N₂) + N₃ = N₁ + (N₂ + N₃)}" target="_parent">
<polygon fill="#f8edd1" stroke="#7f7542" points="262,-120.5 262,-135.5 492,-135.5 492,-120.5 262,-120.5"/>
<text text-anchor="middle" x="377" y="-124.3" font-family="Times,serif" font-size="14.00">(N₁ + N₂) + N₃ = N₁ + (N₂ + N₃)</text>
</a>
</g>
</g>
<!-- c_0_65 -->
<g id="node4" class="node">
<title>c_0_65</title>
<g id="a_node4"><a xlink:href="c_0_65.html" xlink:title="{N₁ + (N₂ + &#45;(N₃)) = &#45;(N₁ + N₂,N₃)}" target="_parent">
<polygon fill="#f8edd1" stroke="#7f7542" points="54.5,-68.5 54.5,-83.5 287.5,-83.5 287.5,-68.5 54.5,-68.5"/>
<text text-anchor="middle" x="171" y="-72.3" font-family="Times,serif" font-size="14.00">N₁ + (N₂ + &#45;(N₃)) = &#45;(N₁ + N₂,N₃)</text>
</a>
</g>
</g>
<!-- c_0_52&#45;&gt;c_0_65 -->
<g id="edge1" class="edge">
<title>c_0_52&#45;&gt;c_0_65</title>
<path fill="none" stroke="black" d="M274.75,-120.33C274.75,-120.33 274.75,-93.7 274.75,-93.7"/>
<polygon fill="black" stroke="black" points="278.25,-93.7 274.75,-83.7 271.25,-93.7 278.25,-93.7"/>
</g>
<!-- c_0_51 -->
<g id="node2" class="node">
<title>c_0_51</title>
<g id="a_node2"><a xlink:href="c_0_51.html" xlink:title="{N₁ + &#45;(N₂) = &#45;(N₁,N₂)}" target="_parent">
<polygon fill="#f8edd1" stroke="#7f7542" points="98,-120.5 98,-135.5 244,-135.5 244,-120.5 98,-120.5"/>
<text text-anchor="middle" x="171" y="-124.3" font-family="Times,serif" font-size="14.00">N₁ + &#45;(N₂) = &#45;(N₁,N₂)</text>
</a>
</g>
</g>
<!-- c_0_51&#45;&gt;c_0_65 -->
<g id="edge2" class="edge">
<title>c_0_51&#45;&gt;c_0_65</title>
<path fill="none" stroke="black" d="M171,-120.33C171,-120.33 171,-93.7 171,-93.7"/>
<polygon fill="black" stroke="black" points="174.5,-93.7 171,-83.7 167.5,-93.7 174.5,-93.7"/>
</g>
<!-- c_0_53 -->
<g id="node3" class="node">
<title>c_0_53</title>
<g id="a_node3"><a xlink:href="c_0_53.html" xlink:title="{&#45;(N₁) ∈ ℂ}" target="_parent">
<polygon fill="#f8edd1" stroke="#7f7542" points="16,-120.5 16,-135.5 80,-135.5 80,-120.5 16,-120.5"/>
<text text-anchor="middle" x="48" y="-124.3" font-family="Times,serif" font-size="14.00">&#45;(N₁) ∈ ℂ</text>
</a>
</g>
</g>
<!-- c_0_53&#45;&gt;c_0_65 -->
<g id="edge3" class="edge">
<title>c_0_53&#45;&gt;c_0_65</title>
<path fill="none" stroke="black" d="M67.25,-120.33C67.25,-120.33 67.25,-93.7 67.25,-93.7"/>
<polygon fill="black" stroke="black" points="70.75,-93.7 67.25,-83.7 63.75,-93.7 70.75,-93.7"/>
</g>
<!-- c_0_79 -->
<g id="node5" class="node">
<title>c_0_79</title>
<g id="a_node5"><a xlink:href="c_0_79.html" xlink:title="{&#45;(N₁ + N₂,N₃) = N₁ + &#45;(N₂,N₃)}" target="_parent">
<polygon fill="#f8edd1" stroke="#7f7542" points="68,-16.5 68,-31.5 274,-31.5 274,-16.5 68,-16.5"/>
<text text-anchor="middle" x="171" y="-20.3" font-family="Times,serif" font-size="14.00">&#45;(N₁ + N₂,N₃) = N₁ + &#45;(N₂,N₃)</text>
</a>
</g>
</g>
<!-- c_0_65&#45;&gt;c_0_79 -->
<g id="edge4" class="edge">
<title>c_0_65&#45;&gt;c_0_79</title>
<path fill="none" stroke="black" stroke-dasharray="5,2" d="M171,-68.33C171,-68.33 171,-41.7 171,-41.7"/>
<polygon fill="black" stroke="black" points="174.5,-41.7 171,-31.7 167.5,-41.7 174.5,-41.7"/>
</g>
</g>
</svg>
