<?xml version="1.0" encoding="UTF-8" standalone="no"?>
<!DOCTYPE svg PUBLIC "-//W3C//DTD SVG 1.1//EN"
 "http://www.w3.org/Graphics/SVG/1.1/DTD/svg11.dtd">
<!-- Generated by graphviz version 5.0.0 (0)
 -->
<!-- Title: proof Pages: 1 -->
<svg width="433pt" height="160pt"
 viewBox="0.00 0.00 433.00 160.00" xmlns="http://www.w3.org/2000/svg" xmlns:xlink="http://www.w3.org/1999/xlink">
<g id="graph0" class="graph" transform="scale(1 1) rotate(0) translate(4 156)">
<title>proof</title>
<g id="clust1" class="cluster">
<title>cluster_0</title>
<polygon fill="transparent" stroke="black" stroke-dasharray="1,5" points="8,-112 8,-144 316,-144 316,-112 8,-112"/>
</g>
<g id="clust2" class="cluster">
<title>cluster_1</title>
<polygon fill="transparent" stroke="black" stroke-width="2" points="142,-60 142,-92 198,-92 198,-60 142,-60"/>
</g>
<g id="clust3" class="cluster">
<title>cluster_2</title>
<polygon fill="transparent" stroke="black" stroke-dasharray="1,5" points="67,-8 67,-40 417,-40 417,-8 67,-8"/>
</g>
<!-- c_0_53 -->
<g id="node1" class="node">
<title>c_0_53</title>
<g id="a_node1"><a xlink:href="c_0_53.html" xlink:title="{&#45;(N₁) ∈ ℂ}" target="_parent">
<polygon fill="#f8edd1" stroke="#7f7542" points="244,-120.5 244,-135.5 308,-135.5 308,-120.5 244,-120.5"/>
<text text-anchor="middle" x="276" y="-124.3" font-family="Times,serif" font-size="14.00">&#45;(N₁) ∈ ℂ</text>
</a>
</g>
</g>
<!-- c_0_77 -->
<g id="node5" class="node">
<title>c_0_77</title>
<g id="a_node5"><a xlink:href="c_0_77.html" xlink:title="{1 ∈ ℂ}" target="_parent">
<polygon fill="#f8edd1" stroke="#7f7542" points="150,-68.5 150,-83.5 190,-83.5 190,-68.5 150,-68.5"/>
<text text-anchor="middle" x="170" y="-72.3" font-family="Times,serif" font-size="14.00">1 ∈ ℂ</text>
</a>
</g>
</g>
<!-- c_0_53&#45;&gt;c_0_77 -->
<g id="edge1" class="edge">
<title>c_0_53&#45;&gt;c_0_77</title>
<path fill="none" stroke="black" d="M276,-120.19C276,-106.12 276,-78 276,-78 276,-78 200.44,-78 200.44,-78"/>
<polygon fill="black" stroke="black" points="200.44,-74.5 190.44,-78 200.44,-81.5 200.44,-74.5"/>
</g>
<!-- c_0_37 -->
<g id="node2" class="node">
<title>c_0_37</title>
<g id="a_node2"><a xlink:href="c_0_37.html" xlink:title="{1 ∈ ℝ}" target="_parent">
<polygon fill="#f8edd1" stroke="#7f7542" points="184.5,-120.5 184.5,-135.5 225.5,-135.5 225.5,-120.5 184.5,-120.5"/>
<text text-anchor="middle" x="205" y="-124.3" font-family="Times,serif" font-size="14.00">1 ∈ ℝ</text>
</a>
</g>
</g>
<!-- c_0_37&#45;&gt;c_0_77 -->
<g id="edge2" class="edge">
<title>c_0_37&#45;&gt;c_0_77</title>
<path fill="none" stroke="black" d="M184.34,-128C179.26,-128 175.25,-128 175.25,-128 175.25,-128 175.25,-93.67 175.25,-93.67"/>
<polygon fill="black" stroke="black" points="178.75,-93.67 175.25,-83.67 171.75,-93.67 178.75,-93.67"/>
</g>
<!-- c_0_68 -->
<g id="node3" class="node">
<title>c_0_68</title>
<g id="a_node3"><a xlink:href="c_0_68.html" xlink:title="{&#45;(R₁) ∈ ℂ}" target="_parent">
<polygon fill="#f8edd1" stroke="#7f7542" points="104,-120.5 104,-135.5 166,-135.5 166,-120.5 104,-120.5"/>
<text text-anchor="middle" x="135" y="-124.3" font-family="Times,serif" font-size="14.00">&#45;(R₁) ∈ ℂ</text>
</a>
</g>
</g>
<!-- c_0_68&#45;&gt;c_0_77 -->
<g id="edge3" class="edge">
<title>c_0_68&#45;&gt;c_0_77</title>
<path fill="none" stroke="black" d="M158,-120.33C158,-120.33 158,-93.7 158,-93.7"/>
<polygon fill="black" stroke="black" points="161.5,-93.7 158,-83.7 154.5,-93.7 161.5,-93.7"/>
</g>
<!-- c_0_64 -->
<g id="node4" class="node">
<title>c_0_64</title>
<g id="a_node4"><a xlink:href="c_0_64.html" xlink:title="{&#45;(&#45;(1)) = 1}" target="_parent">
<polygon fill="#f8edd1" stroke="#7f7542" points="16,-120.5 16,-135.5 86,-135.5 86,-120.5 16,-120.5"/>
<text text-anchor="middle" x="51" y="-124.3" font-family="Times,serif" font-size="14.00">&#45;(&#45;(1)) = 1</text>
</a>
</g>
</g>
<!-- c_0_64&#45;&gt;c_0_77 -->
<g id="edge4" class="edge">
<title>c_0_64&#45;&gt;c_0_77</title>
<path fill="none" stroke="black" d="M80.75,-120.33C80.75,-105.86 80.75,-76 80.75,-76 80.75,-76 139.75,-76 139.75,-76"/>
<polygon fill="black" stroke="black" points="139.75,-79.5 149.75,-76 139.75,-72.5 139.75,-79.5"/>
</g>
<!-- c_0_97 -->
<g id="node6" class="node">
<title>c_0_97</title>
<g id="a_node6"><a xlink:href="c_0_97.html" xlink:title="{1 + (&#45;(1) + N₁) = 0 + N₁}" target="_parent">
<polygon fill="#f8edd1" stroke="#7f7542" points="237,-16.5 237,-31.5 409,-31.5 409,-16.5 237,-16.5"/>
<text text-anchor="middle" x="323" y="-20.3" font-family="Times,serif" font-size="14.00">1 + (&#45;(1) + N₁) = 0 + N₁</text>
</a>
</g>
</g>
<!-- c_0_77&#45;&gt;c_0_97 -->
<g id="edge5" class="edge">
<title>c_0_77&#45;&gt;c_0_97</title>
<path fill="none" stroke="black" stroke-dasharray="5,2" d="M190.01,-73C210.86,-73 240.5,-73 240.5,-73 240.5,-73 240.5,-41.66 240.5,-41.66"/>
<polygon fill="black" stroke="black" points="244,-41.66 240.5,-31.66 237,-41.66 244,-41.66"/>
</g>
<!-- c_0_104 -->
<g id="node7" class="node">
<title>c_0_104</title>
<g id="a_node7"><a xlink:href="c_0_104.html" xlink:title="{&#45;(1,&#45;(1,N₁)) = 0 + N₁}" target="_parent">
<polygon fill="#f8edd1" stroke="#7f7542" points="75.5,-16.5 75.5,-31.5 218.5,-31.5 218.5,-16.5 75.5,-16.5"/>
<text text-anchor="middle" x="147" y="-20.3" font-family="Times,serif" font-size="14.00">&#45;(1,&#45;(1,N₁)) = 0 + N₁</text>
</a>
</g>
</g>
<!-- c_0_77&#45;&gt;c_0_104 -->
<g id="edge6" class="edge">
<title>c_0_77&#45;&gt;c_0_104</title>
<path fill="none" stroke="black" stroke-dasharray="5,2" d="M170,-68.33C170,-68.33 170,-41.7 170,-41.7"/>
<polygon fill="black" stroke="black" points="173.5,-41.7 170,-31.7 166.5,-41.7 173.5,-41.7"/>
</g>
</g>
</svg>
