<?xml version="1.0" encoding="UTF-8" standalone="no"?>
<!DOCTYPE svg PUBLIC "-//W3C//DTD SVG 1.1//EN"
 "http://www.w3.org/Graphics/SVG/1.1/DTD/svg11.dtd">
<!-- Generated by graphviz version 5.0.0 (0)
 -->
<!-- Title: proof Pages: 1 -->
<svg width="375pt" height="160pt"
 viewBox="0.00 0.00 375.00 160.00" xmlns="http://www.w3.org/2000/svg" xmlns:xlink="http://www.w3.org/1999/xlink">
<g id="graph0" class="graph" transform="scale(1 1) rotate(0) translate(4 156)">
<title>proof</title>
<g id="clust1" class="cluster">
<title>cluster_0</title>
<polygon fill="transparent" stroke="black" stroke-dasharray="1,5" points="8,-112 8,-144 226,-144 226,-112 8,-112"/>
</g>
<g id="clust2" class="cluster">
<title>cluster_1</title>
<polygon fill="transparent" stroke="black" stroke-width="2" points="42,-60 42,-92 192,-92 192,-60 42,-60"/>
</g>
<g id="clust3" class="cluster">
<title>cluster_2</title>
<polygon fill="transparent" stroke="black" stroke-dasharray="1,5" points="19,-8 19,-40 359,-40 359,-8 19,-8"/>
</g>
<!-- commutativity_k2_xcmplx_0 -->
<g id="node1" class="node">
<title>commutativity_k2_xcmplx_0</title>
<g id="a_node1"><a xlink:href="commutativity_k2_xcmplx_0.html" xlink:title="commutativity_k2_xcmplx_0" target="_parent">
<polygon fill="#69d2e7" stroke="#7f7542" points="16,-120.5 16,-135.5 218,-135.5 218,-120.5 16,-120.5"/>
<text text-anchor="middle" x="117" y="-124.3" font-family="Times,serif" font-size="14.00">commutativity_k2_xcmplx_0</text>
</a>
</g>
</g>
<!-- c_0_90 -->
<g id="node2" class="node">
<title>c_0_90</title>
<g id="a_node2"><a xlink:href="c_0_90.html" xlink:title="{N₁ + N₂ = N₂ + N₁}" target="_parent">
<polygon fill="#f8edd1" stroke="#7f7542" points="50.5,-68.5 50.5,-83.5 183.5,-83.5 183.5,-68.5 50.5,-68.5"/>
<text text-anchor="middle" x="117" y="-72.3" font-family="Times,serif" font-size="14.00">N₁ + N₂ = N₂ + N₁</text>
</a>
</g>
</g>
<!-- commutativity_k2_xcmplx_0&#45;&gt;c_0_90 -->
<g id="edge1" class="edge">
<title>commutativity_k2_xcmplx_0&#45;&gt;c_0_90</title>
<path fill="none" stroke="black" d="M117,-120.33C117,-120.33 117,-93.7 117,-93.7"/>
<polygon fill="black" stroke="black" points="120.5,-93.7 117,-83.7 113.5,-93.7 120.5,-93.7"/>
</g>
<!-- c_0_100 -->
<g id="node3" class="node">
<title>c_0_100</title>
<g id="a_node3"><a xlink:href="c_0_100.html" xlink:title="{&#45;(N₁) + N₂ = &#45;(N₂,N₁)}" target="_parent">
<polygon fill="#f8edd1" stroke="#7f7542" points="205,-16.5 205,-31.5 351,-31.5 351,-16.5 205,-16.5"/>
<text text-anchor="middle" x="278" y="-20.3" font-family="Times,serif" font-size="14.00">&#45;(N₁) + N₂ = &#45;(N₂,N₁)</text>
</a>
</g>
</g>
<!-- c_0_90&#45;&gt;c_0_100 -->
<g id="edge2" class="edge">
<title>c_0_90&#45;&gt;c_0_100</title>
<path fill="none" stroke="black" stroke-dasharray="5,2" d="M183.66,-76C199.3,-76 211.5,-76 211.5,-76 211.5,-76 211.5,-41.67 211.5,-41.67"/>
<polygon fill="black" stroke="black" points="215,-41.67 211.5,-31.67 208,-41.67 215,-41.67"/>
</g>
<!-- c_0_98 -->
<g id="node4" class="node">
<title>c_0_98</title>
<g id="a_node4"><a xlink:href="c_0_98.html" xlink:title="{&#45;(0,N₁) + N₂ = &#45;(N₂,N₁)}" target="_parent">
<polygon fill="#f8edd1" stroke="#7f7542" points="27,-16.5 27,-31.5 187,-31.5 187,-16.5 27,-16.5"/>
<text text-anchor="middle" x="107" y="-20.3" font-family="Times,serif" font-size="14.00">&#45;(0,N₁) + N₂ = &#45;(N₂,N₁)</text>
</a>
</g>
</g>
<!-- c_0_90&#45;&gt;c_0_98 -->
<g id="edge3" class="edge">
<title>c_0_90&#45;&gt;c_0_98</title>
<path fill="none" stroke="black" stroke-dasharray="5,2" d="M117,-68.33C117,-68.33 117,-41.7 117,-41.7"/>
<polygon fill="black" stroke="black" points="120.5,-41.7 117,-31.7 113.5,-41.7 120.5,-41.7"/>
</g>
</g>
</svg>
