<?xml version="1.0" encoding="UTF-8" standalone="no"?>
<!DOCTYPE svg PUBLIC "-//W3C//DTD SVG 1.1//EN"
 "http://www.w3.org/Graphics/SVG/1.1/DTD/svg11.dtd">
<!-- Generated by graphviz version 5.0.0 (0)
 -->
<!-- Title: proof Pages: 1 -->
<svg width="494pt" height="520pt"
 viewBox="0.00 0.00 494.00 520.00" xmlns="http://www.w3.org/2000/svg" xmlns:xlink="http://www.w3.org/1999/xlink">
<g id="graph0" class="graph" transform="scale(1 1) rotate(0) translate(4 516)">
<title>proof</title>
<g id="clust1" class="cluster">
<title>cluster_0</title>
<polygon fill="transparent" stroke="black" stroke-dasharray="1,5" points="8,-352 8,-504 478,-504 478,-352 8,-352"/>
</g>
<g id="clust2" class="cluster">
<title>cluster_1</title>
<polygon fill="transparent" stroke="black" stroke-width="2" points="41,-180 41,-332 395,-332 395,-180 41,-180"/>
</g>
<g id="clust3" class="cluster">
<title>cluster_2</title>
<polygon fill="transparent" stroke="black" stroke-dasharray="1,5" points="62,-8 62,-160 374,-160 374,-8 62,-8"/>
</g>
<!-- c_0_94 -->
<g id="node1" class="node">
<title>c_0_94</title>
<g id="a_node1"><a xlink:href="c_0_94.html" xlink:title="{Affine(X₅,X₁)|RLSStruct(X₁)|X₂ ∈ X₅|X₃ ∈ ℝ|X₄ ∈ X₅|X₅ ∈ bool(carrier(X₁))|⇊|X₁ + (X₁ * X₂ * &#45;(1,X₃)) + (X₁ * X₄ * X₃) ∈ X₅|empty(X₁)}" target="_vizar">
<polygon fill="#f8edd1" stroke="#7f7542" points="174.5,-360.5 174.5,-495.5 469.5,-495.5 469.5,-360.5 174.5,-360.5"/>
<text text-anchor="middle" x="322" y="-484.3" font-family="Times,serif" font-size="14.00">Affine(X₅,X₁)</text>
<polyline fill="none" stroke="#7f7542" points="174.5,-480.5 469.5,-480.5 "/>
<text text-anchor="middle" x="322" y="-469.3" font-family="Times,serif" font-size="14.00">RLSStruct(X₁)</text>
<polyline fill="none" stroke="#7f7542" points="174.5,-465.5 469.5,-465.5 "/>
<text text-anchor="middle" x="322" y="-454.3" font-family="Times,serif" font-size="14.00">X₂ ∈ X₅</text>
<polyline fill="none" stroke="#7f7542" points="174.5,-450.5 469.5,-450.5 "/>
<text text-anchor="middle" x="322" y="-439.3" font-family="Times,serif" font-size="14.00">X₃ ∈ ℝ</text>
<polyline fill="none" stroke="#7f7542" points="174.5,-435.5 469.5,-435.5 "/>
<text text-anchor="middle" x="322" y="-424.3" font-family="Times,serif" font-size="14.00">X₄ ∈ X₅</text>
<polyline fill="none" stroke="#7f7542" points="174.5,-420.5 469.5,-420.5 "/>
<text text-anchor="middle" x="322" y="-409.3" font-family="Times,serif" font-size="14.00">X₅ ∈ bool(carrier(X₁))</text>
<polyline fill="none" stroke="#7f7542" points="174.5,-405.5 469.5,-405.5 "/>
<text text-anchor="middle" x="322" y="-394.3" font-family="Times,serif" font-size="14.00">⇊</text>
<polyline fill="none" stroke="#7f7542" points="174.5,-390.5 469.5,-390.5 "/>
<text text-anchor="middle" x="322" y="-379.3" font-family="Times,serif" font-size="14.00">X₁ + (X₁ * X₂ * &#45;(1,X₃)) + (X₁ * X₄ * X₃) ∈ X₅</text>
<polyline fill="none" stroke="#7f7542" points="174.5,-375.5 469.5,-375.5 "/>
<text text-anchor="middle" x="322" y="-364.3" font-family="Times,serif" font-size="14.00">empty(X₁)</text>
</a>
</g>
</g>
<!-- c_0_110 -->
<g id="node3" class="node">
<title>c_0_110</title>
<g id="a_node3"><a xlink:href="c_0_110.html" xlink:title="{&#45;(1,C₃) ∈ ℝ|Affine(X₅,X₁)|RLSStruct(X₁)|X₂ ∈ X₅|X₄ ∈ X₅|X₅ ∈ bool(carrier(X₁))|⇊|X₁ + (X₁ * X₂ * (0 + C₃)) + (X₁ * X₄ * &#45;(1,C₃)) ∈ X₅|empty(X₁)}" target="_vizar">
<polygon fill="#f8edd1" stroke="#7f7542" points="49.5,-188.5 49.5,-323.5 386.5,-323.5 386.5,-188.5 49.5,-188.5"/>
<text text-anchor="middle" x="218" y="-312.3" font-family="Times,serif" font-size="14.00">&#45;(1,C₃) ∈ ℝ</text>
<polyline fill="none" stroke="#7f7542" points="49.5,-308.5 386.5,-308.5 "/>
<text text-anchor="middle" x="218" y="-297.3" font-family="Times,serif" font-size="14.00">Affine(X₅,X₁)</text>
<polyline fill="none" stroke="#7f7542" points="49.5,-293.5 386.5,-293.5 "/>
<text text-anchor="middle" x="218" y="-282.3" font-family="Times,serif" font-size="14.00">RLSStruct(X₁)</text>
<polyline fill="none" stroke="#7f7542" points="49.5,-278.5 386.5,-278.5 "/>
<text text-anchor="middle" x="218" y="-267.3" font-family="Times,serif" font-size="14.00">X₂ ∈ X₅</text>
<polyline fill="none" stroke="#7f7542" points="49.5,-263.5 386.5,-263.5 "/>
<text text-anchor="middle" x="218" y="-252.3" font-family="Times,serif" font-size="14.00">X₄ ∈ X₅</text>
<polyline fill="none" stroke="#7f7542" points="49.5,-248.5 386.5,-248.5 "/>
<text text-anchor="middle" x="218" y="-237.3" font-family="Times,serif" font-size="14.00">X₅ ∈ bool(carrier(X₁))</text>
<polyline fill="none" stroke="#7f7542" points="49.5,-233.5 386.5,-233.5 "/>
<text text-anchor="middle" x="218" y="-222.3" font-family="Times,serif" font-size="14.00">⇊</text>
<polyline fill="none" stroke="#7f7542" points="49.5,-218.5 386.5,-218.5 "/>
<text text-anchor="middle" x="218" y="-207.3" font-family="Times,serif" font-size="14.00">X₁ + (X₁ * X₂ * (0 + C₃)) + (X₁ * X₄ * &#45;(1,C₃)) ∈ X₅</text>
<polyline fill="none" stroke="#7f7542" points="49.5,-203.5 386.5,-203.5 "/>
<text text-anchor="middle" x="218" y="-192.3" font-family="Times,serif" font-size="14.00">empty(X₁)</text>
</a>
</g>
</g>
<!-- c_0_94&#45;&gt;c_0_110 -->
<g id="edge1" class="edge">
<title>c_0_94&#45;&gt;c_0_110</title>
<path fill="none" stroke="black" d="M280.5,-360.02C280.5,-360.02 280.5,-333.77 280.5,-333.77"/>
<polygon fill="black" stroke="black" points="284,-333.77 280.5,-323.77 277,-333.77 284,-333.77"/>
</g>
<!-- c_0_104 -->
<g id="node2" class="node">
<title>c_0_104</title>
<g id="a_node2"><a xlink:href="c_0_104.html" xlink:title="{&#45;(1,&#45;(1,C₁)) = 0 + C₁}" target="_vizar">
<polygon fill="#f8edd1" stroke="#7f7542" points="16,-420.5 16,-435.5 156,-435.5 156,-420.5 16,-420.5"/>
<text text-anchor="middle" x="86" y="-424.3" font-family="Times,serif" font-size="14.00">&#45;(1,&#45;(1,C₁)) = 0 + C₁</text>
</a>
</g>
</g>
<!-- c_0_104&#45;&gt;c_0_110 -->
<g id="edge2" class="edge">
<title>c_0_104&#45;&gt;c_0_110</title>
<path fill="none" stroke="black" d="M102.75,-420.16C102.75,-420.16 102.75,-333.74 102.75,-333.74"/>
<polygon fill="black" stroke="black" points="106.25,-333.74 102.75,-323.74 99.25,-333.74 106.25,-333.74"/>
</g>
<!-- c_0_114 -->
<g id="node4" class="node">
<title>c_0_114</title>
<g id="a_node4"><a xlink:href="c_0_114.html" xlink:title="{&#45;(1,C₃) ∈ ℝ|Affine(X₅,X₁)|RLSStruct(X₁)|X₂ ∈ X₅|X₄ ∈ X₅|X₅ ∈ bool(carrier(X₁))|⇊|X₁ + (X₁ * X₂ * C₃) + (X₁ * X₄ * &#45;(1,C₃)) ∈ X₅|empty(X₁)}" target="_vizar">
<polygon fill="#f8edd1" stroke="#7f7542" points="70,-16.5 70,-151.5 366,-151.5 366,-16.5 70,-16.5"/>
<text text-anchor="middle" x="218" y="-140.3" font-family="Times,serif" font-size="14.00">&#45;(1,C₃) ∈ ℝ</text>
<polyline fill="none" stroke="#7f7542" points="70,-136.5 366,-136.5 "/>
<text text-anchor="middle" x="218" y="-125.3" font-family="Times,serif" font-size="14.00">Affine(X₅,X₁)</text>
<polyline fill="none" stroke="#7f7542" points="70,-121.5 366,-121.5 "/>
<text text-anchor="middle" x="218" y="-110.3" font-family="Times,serif" font-size="14.00">RLSStruct(X₁)</text>
<polyline fill="none" stroke="#7f7542" points="70,-106.5 366,-106.5 "/>
<text text-anchor="middle" x="218" y="-95.3" font-family="Times,serif" font-size="14.00">X₂ ∈ X₅</text>
<polyline fill="none" stroke="#7f7542" points="70,-91.5 366,-91.5 "/>
<text text-anchor="middle" x="218" y="-80.3" font-family="Times,serif" font-size="14.00">X₄ ∈ X₅</text>
<polyline fill="none" stroke="#7f7542" points="70,-76.5 366,-76.5 "/>
<text text-anchor="middle" x="218" y="-65.3" font-family="Times,serif" font-size="14.00">X₅ ∈ bool(carrier(X₁))</text>
<polyline fill="none" stroke="#7f7542" points="70,-61.5 366,-61.5 "/>
<text text-anchor="middle" x="218" y="-50.3" font-family="Times,serif" font-size="14.00">⇊</text>
<polyline fill="none" stroke="#7f7542" points="70,-46.5 366,-46.5 "/>
<text text-anchor="middle" x="218" y="-35.3" font-family="Times,serif" font-size="14.00">X₁ + (X₁ * X₂ * C₃) + (X₁ * X₄ * &#45;(1,C₃)) ∈ X₅</text>
<polyline fill="none" stroke="#7f7542" points="70,-31.5 366,-31.5 "/>
<text text-anchor="middle" x="218" y="-20.3" font-family="Times,serif" font-size="14.00">empty(X₁)</text>
</a>
</g>
</g>
<!-- c_0_110&#45;&gt;c_0_114 -->
<g id="edge3" class="edge">
<title>c_0_110&#45;&gt;c_0_114</title>
<path fill="none" stroke="black" stroke-dasharray="5,2" d="M218,-188.02C218,-188.02 218,-161.77 218,-161.77"/>
<polygon fill="black" stroke="black" points="221.5,-161.77 218,-151.77 214.5,-161.77 221.5,-161.77"/>
</g>
</g>
</svg>
