<?xml version="1.0" encoding="UTF-8" standalone="no"?>
<!DOCTYPE svg PUBLIC "-//W3C//DTD SVG 1.1//EN"
 "http://www.w3.org/Graphics/SVG/1.1/DTD/svg11.dtd">
<!-- Generated by graphviz version 5.0.0 (0)
 -->
<!-- Title: proof Pages: 1 -->
<svg width="382pt" height="235pt"
 viewBox="0.00 0.00 382.00 235.00" xmlns="http://www.w3.org/2000/svg" xmlns:xlink="http://www.w3.org/1999/xlink">
<g id="graph0" class="graph" transform="scale(1 1) rotate(0) translate(4 231)">
<title>proof</title>
<g id="clust1" class="cluster">
<title>cluster_0</title>
<polygon fill="transparent" stroke="black" stroke-dasharray="1,5" points="184,-187 184,-219 306,-219 306,-187 184,-187"/>
</g>
<g id="clust2" class="cluster">
<title>cluster_1</title>
<polygon fill="transparent" stroke="black" stroke-width="2" points="214,-135 214,-167 276,-167 276,-135 214,-135"/>
</g>
<g id="clust3" class="cluster">
<title>cluster_2</title>
<polygon fill="transparent" stroke="black" stroke-dasharray="1,5" points="8,-8 8,-115 366,-115 366,-8 8,-8"/>
</g>
<!-- fc3_membered -->
<g id="node1" class="node">
<title>fc3_membered</title>
<g id="a_node1"><a xlink:href="fc3_membered.html" xlink:title="fc3_membered" target="_vizar">
<polygon fill="#69d2e7" stroke="#7f7542" points="192,-195.5 192,-210.5 298,-210.5 298,-195.5 192,-195.5"/>
<text text-anchor="middle" x="245" y="-199.3" font-family="Times,serif" font-size="14.00">fc3_membered</text>
</a>
</g>
</g>
<!-- c_0_38 -->
<g id="node2" class="node">
<title>c_0_38</title>
<g id="a_node2"><a xlink:href="c_0_38.html" xlink:title="{ℝ ⊆ ℝ}" target="_vizar">
<polygon fill="#f8edd1" stroke="#7f7542" points="222,-143.5 222,-158.5 268,-158.5 268,-143.5 222,-143.5"/>
<text text-anchor="middle" x="245" y="-147.3" font-family="Times,serif" font-size="14.00">ℝ ⊆ ℝ</text>
</a>
</g>
</g>
<!-- fc3_membered&#45;&gt;c_0_38 -->
<g id="edge1" class="edge">
<title>fc3_membered&#45;&gt;c_0_38</title>
<path fill="none" stroke="black" d="M245,-195.33C245,-195.33 245,-168.7 245,-168.7"/>
<polygon fill="black" stroke="black" points="248.5,-168.7 245,-158.7 241.5,-168.7 248.5,-168.7"/>
</g>
<!-- c_0_50 -->
<g id="node3" class="node">
<title>c_0_50</title>
<g id="a_node3"><a xlink:href="c_0_50.html" xlink:title="{0 ∈ ℝ}" target="_vizar">
<polygon fill="#f8edd1" stroke="#7f7542" points="316.5,-54 316.5,-69 357.5,-69 357.5,-54 316.5,-54"/>
<text text-anchor="middle" x="337" y="-57.8" font-family="Times,serif" font-size="14.00">0 ∈ ℝ</text>
</a>
</g>
</g>
<!-- c_0_38&#45;&gt;c_0_50 -->
<g id="edge2" class="edge">
<title>c_0_38&#45;&gt;c_0_50</title>
<path fill="none" stroke="black" stroke-dasharray="5,2" d="M268.22,-151C295.47,-151 337,-151 337,-151 337,-151 337,-79.13 337,-79.13"/>
<polygon fill="black" stroke="black" points="340.5,-79.13 337,-69.13 333.5,-79.13 340.5,-79.13"/>
</g>
<!-- c_0_37 -->
<g id="node4" class="node">
<title>c_0_37</title>
<g id="a_node4"><a xlink:href="c_0_37.html" xlink:title="{1 ∈ ℝ}" target="_vizar">
<polygon fill="#f8edd1" stroke="#7f7542" points="257.5,-54 257.5,-69 298.5,-69 298.5,-54 257.5,-54"/>
<text text-anchor="middle" x="278" y="-57.8" font-family="Times,serif" font-size="14.00">1 ∈ ℝ</text>
</a>
</g>
</g>
<!-- c_0_38&#45;&gt;c_0_37 -->
<g id="edge3" class="edge">
<title>c_0_38&#45;&gt;c_0_37</title>
<path fill="none" stroke="black" stroke-dasharray="5,2" d="M262.75,-143.37C262.75,-143.37 262.75,-79.11 262.75,-79.11"/>
<polygon fill="black" stroke="black" points="266.25,-79.11 262.75,-69.11 259.25,-79.11 266.25,-79.11"/>
</g>
<!-- c_0_88 -->
<g id="node5" class="node">
<title>c_0_88</title>
<g id="a_node5"><a xlink:href="c_0_88.html" xlink:title="{&#45;(1) ∈ ℂ}" target="_vizar">
<polygon fill="#f8edd1" stroke="#7f7542" points="184.5,-54 184.5,-69 239.5,-69 239.5,-54 184.5,-54"/>
<text text-anchor="middle" x="212" y="-57.8" font-family="Times,serif" font-size="14.00">&#45;(1) ∈ ℂ</text>
</a>
</g>
</g>
<!-- c_0_38&#45;&gt;c_0_88 -->
<g id="edge4" class="edge">
<title>c_0_38&#45;&gt;c_0_88</title>
<path fill="none" stroke="black" stroke-dasharray="5,2" d="M233.67,-143.37C233.67,-143.37 233.67,-79.11 233.67,-79.11"/>
<polygon fill="black" stroke="black" points="237.17,-79.11 233.67,-69.11 230.17,-79.11 237.17,-79.11"/>
</g>
<!-- c_0_102 -->
<g id="node6" class="node">
<title>c_0_102</title>
<g id="a_node6"><a xlink:href="c_0_102.html" xlink:title="{RLSStruct(X₁)|X₂ ∈ bool(carrier(X₁))|⇊|convex(X₂,X₁)|empty(X₁)|sk₅(X₁,X₂) ∈ ℝ}" target="_vizar">
<polygon fill="#f8edd1" stroke="#7f7542" points="16,-16.5 16,-106.5 166,-106.5 166,-16.5 16,-16.5"/>
<text text-anchor="middle" x="91" y="-95.3" font-family="Times,serif" font-size="14.00">RLSStruct(X₁)</text>
<polyline fill="none" stroke="#7f7542" points="16,-91.5 166,-91.5 "/>
<text text-anchor="middle" x="91" y="-80.3" font-family="Times,serif" font-size="14.00">X₂ ∈ bool(carrier(X₁))</text>
<polyline fill="none" stroke="#7f7542" points="16,-76.5 166,-76.5 "/>
<text text-anchor="middle" x="91" y="-65.3" font-family="Times,serif" font-size="14.00">⇊</text>
<polyline fill="none" stroke="#7f7542" points="16,-61.5 166,-61.5 "/>
<text text-anchor="middle" x="91" y="-50.3" font-family="Times,serif" font-size="14.00">convex(X₂,X₁)</text>
<polyline fill="none" stroke="#7f7542" points="16,-46.5 166,-46.5 "/>
<text text-anchor="middle" x="91" y="-35.3" font-family="Times,serif" font-size="14.00">empty(X₁)</text>
<polyline fill="none" stroke="#7f7542" points="16,-31.5 166,-31.5 "/>
<text text-anchor="middle" x="91" y="-20.3" font-family="Times,serif" font-size="14.00">sk₅(X₁,X₂) ∈ ℝ</text>
</a>
</g>
</g>
<!-- c_0_38&#45;&gt;c_0_102 -->
<g id="edge5" class="edge">
<title>c_0_38&#45;&gt;c_0_102</title>
<path fill="none" stroke="black" stroke-dasharray="5,2" d="M227.83,-143.27C227.83,-126.45 227.83,-88 227.83,-88 227.83,-88 176.22,-88 176.22,-88"/>
<polygon fill="black" stroke="black" points="176.22,-84.5 166.22,-88 176.22,-91.5 176.22,-84.5"/>
</g>
</g>
</svg>
