<?xml version="1.0" encoding="UTF-8" standalone="no"?>
<!DOCTYPE svg PUBLIC "-//W3C//DTD SVG 1.1//EN"
 "http://www.w3.org/Graphics/SVG/1.1/DTD/svg11.dtd">
<!-- Generated by graphviz version 5.0.0 (0)
 -->
<!-- Title: proof Pages: 1 -->
<svg width="420pt" height="160pt"
 viewBox="0.00 0.00 420.00 160.00" xmlns="http://www.w3.org/2000/svg" xmlns:xlink="http://www.w3.org/1999/xlink">
<g id="graph0" class="graph" transform="scale(1 1) rotate(0) translate(4 156)">
<title>proof</title>
<g id="clust1" class="cluster">
<title>cluster_0</title>
<polygon fill="transparent" stroke="black" stroke-dasharray="1,5" points="8,-112 8,-144 404,-144 404,-112 8,-112"/>
</g>
<g id="clust2" class="cluster">
<title>cluster_1</title>
<polygon fill="transparent" stroke="black" stroke-width="2" points="131,-60 131,-92 293,-92 293,-60 131,-60"/>
</g>
<g id="clust3" class="cluster">
<title>cluster_2</title>
<polygon fill="transparent" stroke="black" stroke-dasharray="1,5" points="154,-8 154,-40 270,-40 270,-8 154,-8"/>
</g>
<!-- c_0_90 -->
<g id="node1" class="node">
<title>c_0_90</title>
<g id="a_node1"><a xlink:href="c_0_90.html" xlink:title="{N₁ + N₂ = N₂ + N₁}" target="_parent">
<polygon fill="#f8edd1" stroke="#7f7542" points="262.5,-120.5 262.5,-135.5 395.5,-135.5 395.5,-120.5 262.5,-120.5"/>
<text text-anchor="middle" x="329" y="-124.3" font-family="Times,serif" font-size="14.00">N₁ + N₂ = N₂ + N₁</text>
</a>
</g>
</g>
<!-- c_0_100 -->
<g id="node4" class="node">
<title>c_0_100</title>
<g id="a_node4"><a xlink:href="c_0_100.html" xlink:title="{&#45;(N₁) + N₂ = &#45;(N₂,N₁)}" target="_parent">
<polygon fill="#f8edd1" stroke="#7f7542" points="139,-68.5 139,-83.5 285,-83.5 285,-68.5 139,-68.5"/>
<text text-anchor="middle" x="212" y="-72.3" font-family="Times,serif" font-size="14.00">&#45;(N₁) + N₂ = &#45;(N₂,N₁)</text>
</a>
</g>
</g>
<!-- c_0_90&#45;&gt;c_0_100 -->
<g id="edge1" class="edge">
<title>c_0_90&#45;&gt;c_0_100</title>
<path fill="none" stroke="black" d="M273.75,-120.33C273.75,-120.33 273.75,-93.7 273.75,-93.7"/>
<polygon fill="black" stroke="black" points="277.25,-93.7 273.75,-83.7 270.25,-93.7 277.25,-93.7"/>
</g>
<!-- c_0_53 -->
<g id="node2" class="node">
<title>c_0_53</title>
<g id="a_node2"><a xlink:href="c_0_53.html" xlink:title="{&#45;(N₁) ∈ ℂ}" target="_parent">
<polygon fill="#f8edd1" stroke="#7f7542" points="180,-120.5 180,-135.5 244,-135.5 244,-120.5 180,-120.5"/>
<text text-anchor="middle" x="212" y="-124.3" font-family="Times,serif" font-size="14.00">&#45;(N₁) ∈ ℂ</text>
</a>
</g>
</g>
<!-- c_0_53&#45;&gt;c_0_100 -->
<g id="edge2" class="edge">
<title>c_0_53&#45;&gt;c_0_100</title>
<path fill="none" stroke="black" d="M212,-120.33C212,-120.33 212,-93.7 212,-93.7"/>
<polygon fill="black" stroke="black" points="215.5,-93.7 212,-83.7 208.5,-93.7 215.5,-93.7"/>
</g>
<!-- c_0_51 -->
<g id="node3" class="node">
<title>c_0_51</title>
<g id="a_node3"><a xlink:href="c_0_51.html" xlink:title="{N₁ + &#45;(N₂) = &#45;(N₁,N₂)}" target="_parent">
<polygon fill="#f8edd1" stroke="#7f7542" points="16,-120.5 16,-135.5 162,-135.5 162,-120.5 16,-120.5"/>
<text text-anchor="middle" x="89" y="-124.3" font-family="Times,serif" font-size="14.00">N₁ + &#45;(N₂) = &#45;(N₁,N₂)</text>
</a>
</g>
</g>
<!-- c_0_51&#45;&gt;c_0_100 -->
<g id="edge3" class="edge">
<title>c_0_51&#45;&gt;c_0_100</title>
<path fill="none" stroke="black" d="M150.5,-120.33C150.5,-120.33 150.5,-93.7 150.5,-93.7"/>
<polygon fill="black" stroke="black" points="154,-93.7 150.5,-83.7 147,-93.7 154,-93.7"/>
</g>
<!-- c_0_106 -->
<g id="node5" class="node">
<title>c_0_106</title>
<g id="a_node5"><a xlink:href="c_0_106.html" xlink:title="{&#45;(0,N₁) = &#45;(N₁)}" target="_parent">
<polygon fill="#f8edd1" stroke="#7f7542" points="162,-16.5 162,-31.5 262,-31.5 262,-16.5 162,-16.5"/>
<text text-anchor="middle" x="212" y="-20.3" font-family="Times,serif" font-size="14.00">&#45;(0,N₁) = &#45;(N₁)</text>
</a>
</g>
</g>
<!-- c_0_100&#45;&gt;c_0_106 -->
<g id="edge4" class="edge">
<title>c_0_100&#45;&gt;c_0_106</title>
<path fill="none" stroke="black" stroke-dasharray="5,2" d="M212,-68.33C212,-68.33 212,-41.7 212,-41.7"/>
<polygon fill="black" stroke="black" points="215.5,-41.7 212,-31.7 208.5,-41.7 215.5,-41.7"/>
</g>
</g>
</svg>
