<?xml version="1.0" encoding="UTF-8" standalone="no"?>
<!DOCTYPE svg PUBLIC "-//W3C//DTD SVG 1.1//EN"
 "http://www.w3.org/Graphics/SVG/1.1/DTD/svg11.dtd">
<!-- Generated by graphviz version 5.0.0 (0)
 -->
<!-- Title: proof Pages: 1 -->
<svg width="184pt" height="160pt"
 viewBox="0.00 0.00 184.00 160.00" xmlns="http://www.w3.org/2000/svg" xmlns:xlink="http://www.w3.org/1999/xlink">
<g id="graph0" class="graph" transform="scale(1 1) rotate(0) translate(4 156)">
<title>proof</title>
<g id="clust1" class="cluster">
<title>cluster_0</title>
<polygon fill="transparent" stroke="black" stroke-dasharray="1,5" points="8,-112 8,-144 168,-144 168,-112 8,-112"/>
</g>
<g id="clust2" class="cluster">
<title>cluster_1</title>
<polygon fill="transparent" stroke="black" stroke-width="2" points="31,-60 31,-92 133,-92 133,-60 31,-60"/>
</g>
<g id="clust3" class="cluster">
<title>cluster_2</title>
<polygon fill="transparent" stroke="black" stroke-dasharray="1,5" points="32,-8 32,-40 132,-40 132,-8 32,-8"/>
</g>
<!-- c_0_54 -->
<g id="node1" class="node">
<title>c_0_54</title>
<g id="a_node1"><a xlink:href="c_0_54.html" xlink:title="{C₁ + 0 = C₁}" target="_vizar">
<polygon fill="#f8edd1" stroke="#7f7542" points="76.5,-120.5 76.5,-135.5 159.5,-135.5 159.5,-120.5 76.5,-120.5"/>
<text text-anchor="middle" x="118" y="-124.3" font-family="Times,serif" font-size="14.00">C₁ + 0 = C₁</text>
</a>
</g>
</g>
<!-- c_0_66 -->
<g id="node3" class="node">
<title>c_0_66</title>
<g id="a_node3"><a xlink:href="c_0_66.html" xlink:title="{C₁ + Ø = C₁}" target="_vizar">
<polygon fill="#f8edd1" stroke="#7f7542" points="39.5,-68.5 39.5,-83.5 124.5,-83.5 124.5,-68.5 39.5,-68.5"/>
<text text-anchor="middle" x="82" y="-72.3" font-family="Times,serif" font-size="14.00">C₁ + Ø = C₁</text>
</a>
</g>
</g>
<!-- c_0_54&#45;&gt;c_0_66 -->
<g id="edge1" class="edge">
<title>c_0_54&#45;&gt;c_0_66</title>
<path fill="none" stroke="black" d="M100.5,-120.33C100.5,-120.33 100.5,-93.7 100.5,-93.7"/>
<polygon fill="black" stroke="black" points="104,-93.7 100.5,-83.7 97,-93.7 104,-93.7"/>
</g>
<!-- c_0_55 -->
<g id="node2" class="node">
<title>c_0_55</title>
<g id="a_node2"><a xlink:href="c_0_55.html" xlink:title="{0 = Ø}" target="_vizar">
<polygon fill="#f8edd1" stroke="#7f7542" points="16,-120.5 16,-135.5 58,-135.5 58,-120.5 16,-120.5"/>
<text text-anchor="middle" x="37" y="-124.3" font-family="Times,serif" font-size="14.00">0 = Ø</text>
</a>
</g>
</g>
<!-- c_0_55&#45;&gt;c_0_66 -->
<g id="edge2" class="edge">
<title>c_0_55&#45;&gt;c_0_66</title>
<path fill="none" stroke="black" d="M48.75,-120.33C48.75,-120.33 48.75,-93.7 48.75,-93.7"/>
<polygon fill="black" stroke="black" points="52.25,-93.7 48.75,-83.7 45.25,-93.7 52.25,-93.7"/>
</g>
<!-- c_0_80 -->
<g id="node4" class="node">
<title>c_0_80</title>
<g id="a_node4"><a xlink:href="c_0_80.html" xlink:title="{C₁ + 0 = C₁}" target="_vizar">
<polygon fill="#f8edd1" stroke="#7f7542" points="40.5,-16.5 40.5,-31.5 123.5,-31.5 123.5,-16.5 40.5,-16.5"/>
<text text-anchor="middle" x="82" y="-20.3" font-family="Times,serif" font-size="14.00">C₁ + 0 = C₁</text>
</a>
</g>
</g>
<!-- c_0_66&#45;&gt;c_0_80 -->
<g id="edge3" class="edge">
<title>c_0_66&#45;&gt;c_0_80</title>
<path fill="none" stroke="black" stroke-dasharray="5,2" d="M82,-68.33C82,-68.33 82,-41.7 82,-41.7"/>
<polygon fill="black" stroke="black" points="85.5,-41.7 82,-31.7 78.5,-41.7 85.5,-41.7"/>
</g>
</g>
</svg>
