<?xml version="1.0" encoding="UTF-8" standalone="no"?>
<!DOCTYPE svg PUBLIC "-//W3C//DTD SVG 1.1//EN"
 "http://www.w3.org/Graphics/SVG/1.1/DTD/svg11.dtd">
<!-- Generated by graphviz version 5.0.0 (0)
 -->
<!-- Title: proof Pages: 1 -->
<svg width="546pt" height="280pt"
 viewBox="0.00 0.00 546.00 280.00" xmlns="http://www.w3.org/2000/svg" xmlns:xlink="http://www.w3.org/1999/xlink">
<g id="graph0" class="graph" transform="scale(1 1) rotate(0) translate(4 276)">
<title>proof</title>
<g id="clust1" class="cluster">
<title>cluster_0</title>
<polygon fill="transparent" stroke="black" stroke-dasharray="1,5" points="34,-232 34,-264 530,-264 530,-232 34,-232"/>
</g>
<g id="clust2" class="cluster">
<title>cluster_1</title>
<polygon fill="transparent" stroke="black" stroke-width="2" points="106,-180 106,-212 266,-212 266,-180 106,-180"/>
</g>
<g id="clust3" class="cluster">
<title>cluster_2</title>
<polygon fill="transparent" stroke="black" stroke-dasharray="1,5" points="8,-8 8,-160 364,-160 364,-8 8,-8"/>
</g>
<!-- c_0_96 -->
<g id="node1" class="node">
<title>c_0_96</title>
<g id="a_node1"><a xlink:href="c_0_96.html" xlink:title="{N₁ + (&#45;(N₂) + N₃) = &#45;(N₁,&#45;(N₂,N₃))}" target="_parent">
<polygon fill="#f8edd1" stroke="#7f7542" points="290,-240.5 290,-255.5 522,-255.5 522,-240.5 290,-240.5"/>
<text text-anchor="middle" x="406" y="-244.3" font-family="Times,serif" font-size="14.00">N₁ + (&#45;(N₂) + N₃) = &#45;(N₁,&#45;(N₂,N₃))</text>
</a>
</g>
</g>
<!-- c_0_104 -->
<g id="node4" class="node">
<title>c_0_104</title>
<g id="a_node4"><a xlink:href="c_0_104.html" xlink:title="{&#45;(1,&#45;(1,N₁)) = 0 + N₁}" target="_parent">
<polygon fill="#f8edd1" stroke="#7f7542" points="114.5,-188.5 114.5,-203.5 257.5,-203.5 257.5,-188.5 114.5,-188.5"/>
<text text-anchor="middle" x="186" y="-192.3" font-family="Times,serif" font-size="14.00">&#45;(1,&#45;(1,N₁)) = 0 + N₁</text>
</a>
</g>
</g>
<!-- c_0_96&#45;&gt;c_0_104 -->
<g id="edge1" class="edge">
<title>c_0_96&#45;&gt;c_0_104</title>
<path fill="none" stroke="black" d="M323,-240.33C323,-225.86 323,-196 323,-196 323,-196 267.71,-196 267.71,-196"/>
<polygon fill="black" stroke="black" points="267.71,-192.5 257.71,-196 267.71,-199.5 267.71,-192.5"/>
</g>
<!-- c_0_97 -->
<g id="node2" class="node">
<title>c_0_97</title>
<g id="a_node2"><a xlink:href="c_0_97.html" xlink:title="{1 + (&#45;(1) + N₁) = 0 + N₁}" target="_parent">
<polygon fill="#f8edd1" stroke="#7f7542" points="100,-240.5 100,-255.5 272,-255.5 272,-240.5 100,-240.5"/>
<text text-anchor="middle" x="186" y="-244.3" font-family="Times,serif" font-size="14.00">1 + (&#45;(1) + N₁) = 0 + N₁</text>
</a>
</g>
</g>
<!-- c_0_97&#45;&gt;c_0_104 -->
<g id="edge2" class="edge">
<title>c_0_97&#45;&gt;c_0_104</title>
<path fill="none" stroke="black" d="M186,-240.33C186,-240.33 186,-213.7 186,-213.7"/>
<polygon fill="black" stroke="black" points="189.5,-213.7 186,-203.7 182.5,-213.7 189.5,-213.7"/>
</g>
<!-- c_0_77 -->
<g id="node3" class="node">
<title>c_0_77</title>
<g id="a_node3"><a xlink:href="c_0_77.html" xlink:title="{1 ∈ ℂ}" target="_parent">
<polygon fill="#f8edd1" stroke="#7f7542" points="42,-240.5 42,-255.5 82,-255.5 82,-240.5 42,-240.5"/>
<text text-anchor="middle" x="62" y="-244.3" font-family="Times,serif" font-size="14.00">1 ∈ ℂ</text>
</a>
</g>
</g>
<!-- c_0_77&#45;&gt;c_0_104 -->
<g id="edge3" class="edge">
<title>c_0_77&#45;&gt;c_0_104</title>
<path fill="none" stroke="black" d="M62,-240.33C62,-225.86 62,-196 62,-196 62,-196 104.23,-196 104.23,-196"/>
<polygon fill="black" stroke="black" points="104.23,-199.5 114.23,-196 104.23,-192.5 104.23,-199.5"/>
</g>
<!-- c_0_110 -->
<g id="node5" class="node">
<title>c_0_110</title>
<g id="a_node5"><a xlink:href="c_0_110.html" xlink:title="{&#45;(1,N₃) ∈ ℝ|Affine(X₅,X₁)|RLSStruct(X₁)|X₂ ∈ X₅|X₄ ∈ X₅|X₅ ∈ bool(carrier(X₁))|⇊|X₁ + (X₁ * X₂ * (0 + N₃)) + (X₁ * X₄ * &#45;(1,N₃)) ∈ X₅|empty(X₁)}" target="_parent">
<polygon fill="#f8edd1" stroke="#7f7542" points="16,-16.5 16,-151.5 356,-151.5 356,-16.5 16,-16.5"/>
<text text-anchor="middle" x="186" y="-140.3" font-family="Times,serif" font-size="14.00">&#45;(1,N₃) ∈ ℝ</text>
<polyline fill="none" stroke="#7f7542" points="16,-136.5 356,-136.5 "/>
<text text-anchor="middle" x="186" y="-125.3" font-family="Times,serif" font-size="14.00">Affine(X₅,X₁)</text>
<polyline fill="none" stroke="#7f7542" points="16,-121.5 356,-121.5 "/>
<text text-anchor="middle" x="186" y="-110.3" font-family="Times,serif" font-size="14.00">RLSStruct(X₁)</text>
<polyline fill="none" stroke="#7f7542" points="16,-106.5 356,-106.5 "/>
<text text-anchor="middle" x="186" y="-95.3" font-family="Times,serif" font-size="14.00">X₂ ∈ X₅</text>
<polyline fill="none" stroke="#7f7542" points="16,-91.5 356,-91.5 "/>
<text text-anchor="middle" x="186" y="-80.3" font-family="Times,serif" font-size="14.00">X₄ ∈ X₅</text>
<polyline fill="none" stroke="#7f7542" points="16,-76.5 356,-76.5 "/>
<text text-anchor="middle" x="186" y="-65.3" font-family="Times,serif" font-size="14.00">X₅ ∈ bool(carrier(X₁))</text>
<polyline fill="none" stroke="#7f7542" points="16,-61.5 356,-61.5 "/>
<text text-anchor="middle" x="186" y="-50.3" font-family="Times,serif" font-size="14.00">⇊</text>
<polyline fill="none" stroke="#7f7542" points="16,-46.5 356,-46.5 "/>
<text text-anchor="middle" x="186" y="-35.3" font-family="Times,serif" font-size="14.00">X₁ + (X₁ * X₂ * (0 + N₃)) + (X₁ * X₄ * &#45;(1,N₃)) ∈ X₅</text>
<polyline fill="none" stroke="#7f7542" points="16,-31.5 356,-31.5 "/>
<text text-anchor="middle" x="186" y="-20.3" font-family="Times,serif" font-size="14.00">empty(X₁)</text>
</a>
</g>
</g>
<!-- c_0_104&#45;&gt;c_0_110 -->
<g id="edge4" class="edge">
<title>c_0_104&#45;&gt;c_0_110</title>
<path fill="none" stroke="black" stroke-dasharray="5,2" d="M186,-188.3C186,-188.3 186,-161.55 186,-161.55"/>
<polygon fill="black" stroke="black" points="189.5,-161.55 186,-151.55 182.5,-161.55 189.5,-161.55"/>
</g>
</g>
</svg>
