<?xml version="1.0" encoding="UTF-8" standalone="no"?>
<!DOCTYPE svg PUBLIC "-//W3C//DTD SVG 1.1//EN"
 "http://www.w3.org/Graphics/SVG/1.1/DTD/svg11.dtd">
<!-- Generated by graphviz version 5.0.0 (0)
 -->
<!-- Title: proof Pages: 1 -->
<svg width="394pt" height="160pt"
 viewBox="0.00 0.00 394.00 160.00" xmlns="http://www.w3.org/2000/svg" xmlns:xlink="http://www.w3.org/1999/xlink">
<g id="graph0" class="graph" transform="scale(1 1) rotate(0) translate(4 156)">
<title>proof</title>
<g id="clust1" class="cluster">
<title>cluster_0</title>
<polygon fill="transparent" stroke="black" stroke-dasharray="1,5" points="8,-112 8,-144 378,-144 378,-112 8,-112"/>
</g>
<g id="clust2" class="cluster">
<title>cluster_1</title>
<polygon fill="transparent" stroke="black" stroke-width="2" points="143,-60 143,-92 331,-92 331,-60 143,-60"/>
</g>
<g id="clust3" class="cluster">
<title>cluster_2</title>
<polygon fill="transparent" stroke="black" stroke-dasharray="1,5" points="151,-8 151,-40 323,-40 323,-8 151,-8"/>
</g>
<!-- c_0_60 -->
<g id="node1" class="node">
<title>c_0_60</title>
<g id="a_node1"><a xlink:href="c_0_60.html" xlink:title="{&#45;(&#45;(C₁)) = C₁}" target="_vizar">
<polygon fill="#f8edd1" stroke="#7f7542" points="286.5,-120.5 286.5,-135.5 369.5,-135.5 369.5,-120.5 286.5,-120.5"/>
<text text-anchor="middle" x="328" y="-124.3" font-family="Times,serif" font-size="14.00">&#45;(&#45;(C₁)) = C₁</text>
</a>
</g>
</g>
<!-- c_0_74 -->
<g id="node4" class="node">
<title>c_0_74</title>
<g id="a_node4"><a xlink:href="c_0_74.html" xlink:title="{&#45;(C₁ + &#45;(C₂)) = &#45;(C₁) + C₂}" target="_vizar">
<polygon fill="#f8edd1" stroke="#7f7542" points="151,-68.5 151,-83.5 323,-83.5 323,-68.5 151,-68.5"/>
<text text-anchor="middle" x="237" y="-72.3" font-family="Times,serif" font-size="14.00">&#45;(C₁ + &#45;(C₂)) = &#45;(C₁) + C₂</text>
</a>
</g>
</g>
<!-- c_0_60&#45;&gt;c_0_74 -->
<g id="edge1" class="edge">
<title>c_0_60&#45;&gt;c_0_74</title>
<path fill="none" stroke="black" d="M304.75,-120.33C304.75,-120.33 304.75,-93.7 304.75,-93.7"/>
<polygon fill="black" stroke="black" points="308.25,-93.7 304.75,-83.7 301.25,-93.7 308.25,-93.7"/>
</g>
<!-- c_0_53 -->
<g id="node2" class="node">
<title>c_0_53</title>
<g id="a_node2"><a xlink:href="c_0_53.html" xlink:title="{&#45;(C₁) ∈ ℂ}" target="_vizar">
<polygon fill="#f8edd1" stroke="#7f7542" points="206,-120.5 206,-135.5 268,-135.5 268,-120.5 206,-120.5"/>
<text text-anchor="middle" x="237" y="-124.3" font-family="Times,serif" font-size="14.00">&#45;(C₁) ∈ ℂ</text>
</a>
</g>
</g>
<!-- c_0_53&#45;&gt;c_0_74 -->
<g id="edge2" class="edge">
<title>c_0_53&#45;&gt;c_0_74</title>
<path fill="none" stroke="black" d="M237,-120.33C237,-120.33 237,-93.7 237,-93.7"/>
<polygon fill="black" stroke="black" points="240.5,-93.7 237,-83.7 233.5,-93.7 240.5,-93.7"/>
</g>
<!-- c_0_59 -->
<g id="node3" class="node">
<title>c_0_59</title>
<g id="a_node3"><a xlink:href="c_0_59.html" xlink:title="{&#45;(C₁) + &#45;(C₂) = &#45;(C₁ + C₂)}" target="_vizar">
<polygon fill="#f8edd1" stroke="#7f7542" points="16,-120.5 16,-135.5 188,-135.5 188,-120.5 16,-120.5"/>
<text text-anchor="middle" x="102" y="-124.3" font-family="Times,serif" font-size="14.00">&#45;(C₁) + &#45;(C₂) = &#45;(C₁ + C₂)</text>
</a>
</g>
</g>
<!-- c_0_59&#45;&gt;c_0_74 -->
<g id="edge3" class="edge">
<title>c_0_59&#45;&gt;c_0_74</title>
<path fill="none" stroke="black" d="M169.5,-120.33C169.5,-120.33 169.5,-93.7 169.5,-93.7"/>
<polygon fill="black" stroke="black" points="173,-93.7 169.5,-83.7 166,-93.7 173,-93.7"/>
</g>
<!-- c_0_86 -->
<g id="node5" class="node">
<title>c_0_86</title>
<g id="a_node5"><a xlink:href="c_0_86.html" xlink:title="{&#45;(&#45;(C₁,C₂)) = &#45;(C₁) + C₂}" target="_vizar">
<polygon fill="#f8edd1" stroke="#7f7542" points="159.5,-16.5 159.5,-31.5 314.5,-31.5 314.5,-16.5 159.5,-16.5"/>
<text text-anchor="middle" x="237" y="-20.3" font-family="Times,serif" font-size="14.00">&#45;(&#45;(C₁,C₂)) = &#45;(C₁) + C₂</text>
</a>
</g>
</g>
<!-- c_0_74&#45;&gt;c_0_86 -->
<g id="edge4" class="edge">
<title>c_0_74&#45;&gt;c_0_86</title>
<path fill="none" stroke="black" stroke-dasharray="5,2" d="M237,-68.33C237,-68.33 237,-41.7 237,-41.7"/>
<polygon fill="black" stroke="black" points="240.5,-41.7 237,-31.7 233.5,-41.7 240.5,-41.7"/>
</g>
</g>
</svg>
