<?xml version="1.0" encoding="UTF-8" standalone="no"?>
<!DOCTYPE svg PUBLIC "-//W3C//DTD SVG 1.1//EN"
 "http://www.w3.org/Graphics/SVG/1.1/DTD/svg11.dtd">
<!-- Generated by graphviz version 5.0.0 (0)
 -->
<!-- Title: proof Pages: 1 -->
<svg width="286pt" height="160pt"
 viewBox="0.00 0.00 286.00 160.00" xmlns="http://www.w3.org/2000/svg" xmlns:xlink="http://www.w3.org/1999/xlink">
<g id="graph0" class="graph" transform="scale(1 1) rotate(0) translate(4 156)">
<title>proof</title>
<g id="clust1" class="cluster">
<title>cluster_0</title>
<polygon fill="transparent" stroke="black" stroke-dasharray="1,5" points="11,-112 11,-144 229,-144 229,-112 11,-112"/>
</g>
<g id="clust2" class="cluster">
<title>cluster_1</title>
<polygon fill="transparent" stroke="black" stroke-width="2" points="69,-60 69,-92 171,-92 171,-60 69,-60"/>
</g>
<g id="clust3" class="cluster">
<title>cluster_2</title>
<polygon fill="transparent" stroke="black" stroke-dasharray="1,5" points="8,-8 8,-40 270,-40 270,-8 8,-8"/>
</g>
<!-- involutiveness_k4_xcmplx_0 -->
<g id="node1" class="node">
<title>involutiveness_k4_xcmplx_0</title>
<g id="a_node1"><a xlink:href="involutiveness_k4_xcmplx_0.html" xlink:title="involutiveness_k4_xcmplx_0" target="_parent">
<polygon fill="#69d2e7" stroke="#7f7542" points="19.5,-120.5 19.5,-135.5 220.5,-135.5 220.5,-120.5 19.5,-120.5"/>
<text text-anchor="middle" x="120" y="-124.3" font-family="Times,serif" font-size="14.00">involutiveness_k4_xcmplx_0</text>
</a>
</g>
</g>
<!-- c_0_60 -->
<g id="node2" class="node">
<title>c_0_60</title>
<g id="a_node2"><a xlink:href="c_0_60.html" xlink:title="{&#45;(&#45;(N₁)) = N₁}" target="_parent">
<polygon fill="#f8edd1" stroke="#7f7542" points="77,-68.5 77,-83.5 163,-83.5 163,-68.5 77,-68.5"/>
<text text-anchor="middle" x="120" y="-72.3" font-family="Times,serif" font-size="14.00">&#45;(&#45;(N₁)) = N₁</text>
</a>
</g>
</g>
<!-- involutiveness_k4_xcmplx_0&#45;&gt;c_0_60 -->
<g id="edge1" class="edge">
<title>involutiveness_k4_xcmplx_0&#45;&gt;c_0_60</title>
<path fill="none" stroke="black" d="M120,-120.33C120,-120.33 120,-93.7 120,-93.7"/>
<polygon fill="black" stroke="black" points="123.5,-93.7 120,-83.7 116.5,-93.7 123.5,-93.7"/>
</g>
<!-- c_0_74 -->
<g id="node3" class="node">
<title>c_0_74</title>
<g id="a_node3"><a xlink:href="c_0_74.html" xlink:title="{&#45;(N₁ + &#45;(N₂)) = &#45;(N₁) + N₂}" target="_parent">
<polygon fill="#f8edd1" stroke="#7f7542" points="84,-16.5 84,-31.5 262,-31.5 262,-16.5 84,-16.5"/>
<text text-anchor="middle" x="173" y="-20.3" font-family="Times,serif" font-size="14.00">&#45;(N₁ + &#45;(N₂)) = &#45;(N₁) + N₂</text>
</a>
</g>
</g>
<!-- c_0_60&#45;&gt;c_0_74 -->
<g id="edge2" class="edge">
<title>c_0_60&#45;&gt;c_0_74</title>
<path fill="none" stroke="black" stroke-dasharray="5,2" d="M123.5,-68.33C123.5,-68.33 123.5,-41.7 123.5,-41.7"/>
<polygon fill="black" stroke="black" points="127,-41.7 123.5,-31.7 120,-41.7 127,-41.7"/>
</g>
<!-- c_0_117 -->
<g id="node4" class="node">
<title>c_0_117</title>
<g id="a_node4"><a xlink:href="c_0_117.html" xlink:title="{N₁ ∈ ℝ}" target="_parent">
<polygon fill="#f8edd1" stroke="#7f7542" points="16.5,-16.5 16.5,-31.5 65.5,-31.5 65.5,-16.5 16.5,-16.5"/>
<text text-anchor="middle" x="41" y="-20.3" font-family="Times,serif" font-size="14.00">N₁ ∈ ℝ</text>
</a>
</g>
</g>
<!-- c_0_60&#45;&gt;c_0_117 -->
<g id="edge3" class="edge">
<title>c_0_60&#45;&gt;c_0_117</title>
<path fill="none" stroke="black" stroke-dasharray="5,2" d="M80.5,-68.33C80.5,-53.86 80.5,-24 80.5,-24 80.5,-24 75.79,-24 75.79,-24"/>
<polygon fill="black" stroke="black" points="75.79,-20.5 65.79,-24 75.79,-27.5 75.79,-20.5"/>
</g>
</g>
</svg>
