<?xml version="1.0" encoding="UTF-8" standalone="no"?>
<!DOCTYPE svg PUBLIC "-//W3C//DTD SVG 1.1//EN"
 "http://www.w3.org/Graphics/SVG/1.1/DTD/svg11.dtd">
<!-- Generated by graphviz version 5.0.0 (0)
 -->
<!-- Title: proof Pages: 1 -->
<svg width="336pt" height="325pt"
 viewBox="0.00 0.00 336.00 325.00" xmlns="http://www.w3.org/2000/svg" xmlns:xlink="http://www.w3.org/1999/xlink">
<g id="graph0" class="graph" transform="scale(1 1) rotate(0) translate(4 321)">
<title>proof</title>
<g id="clust1" class="cluster">
<title>cluster_0</title>
<polygon fill="transparent" stroke="black" stroke-dasharray="1,5" points="121,-277 121,-309 207,-309 207,-277 121,-277"/>
</g>
<g id="clust2" class="cluster">
<title>cluster_1</title>
<polygon fill="transparent" stroke="black" stroke-width="2" points="110,-180 110,-257 218,-257 218,-180 110,-180"/>
</g>
<g id="clust3" class="cluster">
<title>cluster_2</title>
<polygon fill="transparent" stroke="black" stroke-dasharray="1,5" points="8,-8 8,-160 320,-160 320,-8 8,-8"/>
</g>
<!-- t4_subset -->
<g id="node1" class="node">
<title>t4_subset</title>
<g id="a_node1"><a xlink:href="t4_subset.html" xlink:title="t4_subset" target="_parent">
<polygon fill="#69d2e7" stroke="#7f7542" points="129,-285.5 129,-300.5 199,-300.5 199,-285.5 129,-285.5"/>
<text text-anchor="middle" x="164" y="-289.3" font-family="Times,serif" font-size="14.00">t4_subset</text>
</a>
</g>
</g>
<!-- c_0_84 -->
<g id="node2" class="node">
<title>c_0_84</title>
<g id="a_node2"><a xlink:href="c_0_84.html" xlink:title="{X₁ ∈ X₂|X₂ ∈ bool(X₃)|⇊|X₁ ∈ X₃}" target="_parent">
<polygon fill="#f8edd1" stroke="#7f7542" points="118.5,-188.5 118.5,-248.5 209.5,-248.5 209.5,-188.5 118.5,-188.5"/>
<text text-anchor="middle" x="164" y="-237.3" font-family="Times,serif" font-size="14.00">X₁ ∈ X₂</text>
<polyline fill="none" stroke="#7f7542" points="118.5,-233.5 209.5,-233.5 "/>
<text text-anchor="middle" x="164" y="-222.3" font-family="Times,serif" font-size="14.00">X₂ ∈ bool(X₃)</text>
<polyline fill="none" stroke="#7f7542" points="118.5,-218.5 209.5,-218.5 "/>
<text text-anchor="middle" x="164" y="-207.3" font-family="Times,serif" font-size="14.00">⇊</text>
<polyline fill="none" stroke="#7f7542" points="118.5,-203.5 209.5,-203.5 "/>
<text text-anchor="middle" x="164" y="-192.3" font-family="Times,serif" font-size="14.00">X₁ ∈ X₃</text>
</a>
</g>
</g>
<!-- t4_subset&#45;&gt;c_0_84 -->
<g id="edge1" class="edge">
<title>t4_subset&#45;&gt;c_0_84</title>
<path fill="none" stroke="black" d="M164,-285.31C164,-285.31 164,-258.51 164,-258.51"/>
<polygon fill="black" stroke="black" points="167.5,-258.51 164,-248.51 160.5,-258.51 167.5,-258.51"/>
</g>
<!-- c_0_94 -->
<g id="node3" class="node">
<title>c_0_94</title>
<g id="a_node3"><a xlink:href="c_0_94.html" xlink:title="{Affine(X₅,X₁)|RLSStruct(X₁)|X₂ ∈ X₅|X₃ ∈ ℝ|X₄ ∈ X₅|X₅ ∈ bool(carrier(X₁))|⇊|X₁ + (X₁ * X₂ * &#45;(1,X₃)) + (X₁ * X₄ * X₃) ∈ X₅|empty(X₁)}" target="_parent">
<polygon fill="#f8edd1" stroke="#7f7542" points="16.5,-16.5 16.5,-151.5 311.5,-151.5 311.5,-16.5 16.5,-16.5"/>
<text text-anchor="middle" x="164" y="-140.3" font-family="Times,serif" font-size="14.00">Affine(X₅,X₁)</text>
<polyline fill="none" stroke="#7f7542" points="16.5,-136.5 311.5,-136.5 "/>
<text text-anchor="middle" x="164" y="-125.3" font-family="Times,serif" font-size="14.00">RLSStruct(X₁)</text>
<polyline fill="none" stroke="#7f7542" points="16.5,-121.5 311.5,-121.5 "/>
<text text-anchor="middle" x="164" y="-110.3" font-family="Times,serif" font-size="14.00">X₂ ∈ X₅</text>
<polyline fill="none" stroke="#7f7542" points="16.5,-106.5 311.5,-106.5 "/>
<text text-anchor="middle" x="164" y="-95.3" font-family="Times,serif" font-size="14.00">X₃ ∈ ℝ</text>
<polyline fill="none" stroke="#7f7542" points="16.5,-91.5 311.5,-91.5 "/>
<text text-anchor="middle" x="164" y="-80.3" font-family="Times,serif" font-size="14.00">X₄ ∈ X₅</text>
<polyline fill="none" stroke="#7f7542" points="16.5,-76.5 311.5,-76.5 "/>
<text text-anchor="middle" x="164" y="-65.3" font-family="Times,serif" font-size="14.00">X₅ ∈ bool(carrier(X₁))</text>
<polyline fill="none" stroke="#7f7542" points="16.5,-61.5 311.5,-61.5 "/>
<text text-anchor="middle" x="164" y="-50.3" font-family="Times,serif" font-size="14.00">⇊</text>
<polyline fill="none" stroke="#7f7542" points="16.5,-46.5 311.5,-46.5 "/>
<text text-anchor="middle" x="164" y="-35.3" font-family="Times,serif" font-size="14.00">X₁ + (X₁ * X₂ * &#45;(1,X₃)) + (X₁ * X₄ * X₃) ∈ X₅</text>
<polyline fill="none" stroke="#7f7542" points="16.5,-31.5 311.5,-31.5 "/>
<text text-anchor="middle" x="164" y="-20.3" font-family="Times,serif" font-size="14.00">empty(X₁)</text>
</a>
</g>
</g>
<!-- c_0_84&#45;&gt;c_0_94 -->
<g id="edge2" class="edge">
<title>c_0_84&#45;&gt;c_0_94</title>
<path fill="none" stroke="black" stroke-dasharray="5,2" d="M164,-188.32C164,-188.32 164,-161.74 164,-161.74"/>
<polygon fill="black" stroke="black" points="167.5,-161.74 164,-151.74 160.5,-161.74 167.5,-161.74"/>
</g>
</g>
</svg>
