<?xml version="1.0" encoding="UTF-8" standalone="no"?>
<!DOCTYPE svg PUBLIC "-//W3C//DTD SVG 1.1//EN"
 "http://www.w3.org/Graphics/SVG/1.1/DTD/svg11.dtd">
<!-- Generated by graphviz version 5.0.0 (0)
 -->
<!-- Title: proof Pages: 1 -->
<svg width="1190pt" height="445pt"
 viewBox="0.00 0.00 1190.00 445.00" xmlns="http://www.w3.org/2000/svg" xmlns:xlink="http://www.w3.org/1999/xlink">
<g id="graph0" class="graph" transform="scale(1 1) rotate(0) translate(4 441)">
<title>proof</title>
<g id="clust1" class="cluster">
<title>cluster_0</title>
<polygon fill="transparent" stroke="black" stroke-dasharray="1,5" points="8,-277 8,-429 1174,-429 1174,-277 8,-277"/>
</g>
<g id="clust2" class="cluster">
<title>cluster_1</title>
<polygon fill="transparent" stroke="black" stroke-width="2" points="719,-135 719,-257 885,-257 885,-135 719,-135"/>
</g>
<g id="clust3" class="cluster">
<title>cluster_2</title>
<polygon fill="transparent" stroke="black" stroke-dasharray="1,5" points="719,-8 719,-115 885,-115 885,-8 719,-8"/>
</g>
<!-- c_0_116 -->
<g id="node1" class="node">
<title>c_0_116</title>
<g id="a_node1"><a xlink:href="c_0_116.html" xlink:title="{RLSStruct(X₁)|X₂ ∈ bool(carrier(X₁))|⇊|convex(X₂,X₁)|empty(X₁)|sk₄(X₁,X₂) ∈ X₂}" target="_vizar">
<polygon fill="#f8edd1" stroke="#7f7542" points="1016,-308 1016,-398 1166,-398 1166,-308 1016,-308"/>
<text text-anchor="middle" x="1091" y="-386.8" font-family="Times,serif" font-size="14.00">RLSStruct(X₁)</text>
<polyline fill="none" stroke="#7f7542" points="1016,-383 1166,-383 "/>
<text text-anchor="middle" x="1091" y="-371.8" font-family="Times,serif" font-size="14.00">X₂ ∈ bool(carrier(X₁))</text>
<polyline fill="none" stroke="#7f7542" points="1016,-368 1166,-368 "/>
<text text-anchor="middle" x="1091" y="-356.8" font-family="Times,serif" font-size="14.00">⇊</text>
<polyline fill="none" stroke="#7f7542" points="1016,-353 1166,-353 "/>
<text text-anchor="middle" x="1091" y="-341.8" font-family="Times,serif" font-size="14.00">convex(X₂,X₁)</text>
<polyline fill="none" stroke="#7f7542" points="1016,-338 1166,-338 "/>
<text text-anchor="middle" x="1091" y="-326.8" font-family="Times,serif" font-size="14.00">empty(X₁)</text>
<polyline fill="none" stroke="#7f7542" points="1016,-323 1166,-323 "/>
<text text-anchor="middle" x="1091" y="-311.8" font-family="Times,serif" font-size="14.00">sk₄(X₁,X₂) ∈ X₂</text>
</a>
</g>
</g>
<!-- c_0_120 -->
<g id="node5" class="node">
<title>c_0_120</title>
<g id="a_node5"><a xlink:href="c_0_120.html" xlink:title="{&#45;(1,sk₅(X₂,X₁)) ∈ ℝ|Affine(X₁,X₂)|RLSStruct(X₂)|X₁ ∈ bool(carrier(X₂))|⇊|convex(X₁,X₂)|empty(X₂)}" target="_vizar">
<polygon fill="#f8edd1" stroke="#7f7542" points="727,-143.5 727,-248.5 877,-248.5 877,-143.5 727,-143.5"/>
<text text-anchor="middle" x="802" y="-237.3" font-family="Times,serif" font-size="14.00">&#45;(1,sk₅(X₂,X₁)) ∈ ℝ</text>
<polyline fill="none" stroke="#7f7542" points="727,-233.5 877,-233.5 "/>
<text text-anchor="middle" x="802" y="-222.3" font-family="Times,serif" font-size="14.00">Affine(X₁,X₂)</text>
<polyline fill="none" stroke="#7f7542" points="727,-218.5 877,-218.5 "/>
<text text-anchor="middle" x="802" y="-207.3" font-family="Times,serif" font-size="14.00">RLSStruct(X₂)</text>
<polyline fill="none" stroke="#7f7542" points="727,-203.5 877,-203.5 "/>
<text text-anchor="middle" x="802" y="-192.3" font-family="Times,serif" font-size="14.00">X₁ ∈ bool(carrier(X₂))</text>
<polyline fill="none" stroke="#7f7542" points="727,-188.5 877,-188.5 "/>
<text text-anchor="middle" x="802" y="-177.3" font-family="Times,serif" font-size="14.00">⇊</text>
<polyline fill="none" stroke="#7f7542" points="727,-173.5 877,-173.5 "/>
<text text-anchor="middle" x="802" y="-162.3" font-family="Times,serif" font-size="14.00">convex(X₁,X₂)</text>
<polyline fill="none" stroke="#7f7542" points="727,-158.5 877,-158.5 "/>
<text text-anchor="middle" x="802" y="-147.3" font-family="Times,serif" font-size="14.00">empty(X₂)</text>
</a>
</g>
</g>
<!-- c_0_116&#45;&gt;c_0_120 -->
<g id="edge1" class="edge">
<title>c_0_116&#45;&gt;c_0_120</title>
<path fill="none" stroke="black" d="M1091,-307.59C1091,-261.22 1091,-196 1091,-196 1091,-196 887.18,-196 887.18,-196"/>
<polygon fill="black" stroke="black" points="887.18,-192.5 877.18,-196 887.18,-199.5 887.18,-192.5"/>
</g>
<!-- c_0_115 -->
<g id="node2" class="node">
<title>c_0_115</title>
<g id="a_node2"><a xlink:href="c_0_115.html" xlink:title="{RLSStruct(X₁)|X₂ ∈ bool(carrier(X₁))|⇊|convex(X₂,X₁)|empty(X₁)|sk₃(X₁,X₂) ∈ X₂}" target="_vizar">
<polygon fill="#f8edd1" stroke="#7f7542" points="848,-308 848,-398 998,-398 998,-308 848,-308"/>
<text text-anchor="middle" x="923" y="-386.8" font-family="Times,serif" font-size="14.00">RLSStruct(X₁)</text>
<polyline fill="none" stroke="#7f7542" points="848,-383 998,-383 "/>
<text text-anchor="middle" x="923" y="-371.8" font-family="Times,serif" font-size="14.00">X₂ ∈ bool(carrier(X₁))</text>
<polyline fill="none" stroke="#7f7542" points="848,-368 998,-368 "/>
<text text-anchor="middle" x="923" y="-356.8" font-family="Times,serif" font-size="14.00">⇊</text>
<polyline fill="none" stroke="#7f7542" points="848,-353 998,-353 "/>
<text text-anchor="middle" x="923" y="-341.8" font-family="Times,serif" font-size="14.00">convex(X₂,X₁)</text>
<polyline fill="none" stroke="#7f7542" points="848,-338 998,-338 "/>
<text text-anchor="middle" x="923" y="-326.8" font-family="Times,serif" font-size="14.00">empty(X₁)</text>
<polyline fill="none" stroke="#7f7542" points="848,-323 998,-323 "/>
<text text-anchor="middle" x="923" y="-311.8" font-family="Times,serif" font-size="14.00">sk₃(X₁,X₂) ∈ X₂</text>
</a>
</g>
</g>
<!-- c_0_115&#45;&gt;c_0_120 -->
<g id="edge2" class="edge">
<title>c_0_115&#45;&gt;c_0_120</title>
<path fill="none" stroke="black" d="M862.5,-307.59C862.5,-307.59 862.5,-258.5 862.5,-258.5"/>
<polygon fill="black" stroke="black" points="866,-258.5 862.5,-248.5 859,-258.5 866,-258.5"/>
</g>
<!-- c_0_114 -->
<g id="node3" class="node">
<title>c_0_114</title>
<g id="a_node3"><a xlink:href="c_0_114.html" xlink:title="{&#45;(1,C₃) ∈ ℝ|Affine(X₅,X₁)|RLSStruct(X₁)|X₂ ∈ X₅|X₄ ∈ X₅|X₅ ∈ bool(carrier(X₁))|⇊|X₁ + (X₁ * X₂ * C₃) + (X₁ * X₄ * &#45;(1,C₃)) ∈ X₅|empty(X₁)}" target="_vizar">
<polygon fill="#f8edd1" stroke="#7f7542" points="534,-285.5 534,-420.5 830,-420.5 830,-285.5 534,-285.5"/>
<text text-anchor="middle" x="682" y="-409.3" font-family="Times,serif" font-size="14.00">&#45;(1,C₃) ∈ ℝ</text>
<polyline fill="none" stroke="#7f7542" points="534,-405.5 830,-405.5 "/>
<text text-anchor="middle" x="682" y="-394.3" font-family="Times,serif" font-size="14.00">Affine(X₅,X₁)</text>
<polyline fill="none" stroke="#7f7542" points="534,-390.5 830,-390.5 "/>
<text text-anchor="middle" x="682" y="-379.3" font-family="Times,serif" font-size="14.00">RLSStruct(X₁)</text>
<polyline fill="none" stroke="#7f7542" points="534,-375.5 830,-375.5 "/>
<text text-anchor="middle" x="682" y="-364.3" font-family="Times,serif" font-size="14.00">X₂ ∈ X₅</text>
<polyline fill="none" stroke="#7f7542" points="534,-360.5 830,-360.5 "/>
<text text-anchor="middle" x="682" y="-349.3" font-family="Times,serif" font-size="14.00">X₄ ∈ X₅</text>
<polyline fill="none" stroke="#7f7542" points="534,-345.5 830,-345.5 "/>
<text text-anchor="middle" x="682" y="-334.3" font-family="Times,serif" font-size="14.00">X₅ ∈ bool(carrier(X₁))</text>
<polyline fill="none" stroke="#7f7542" points="534,-330.5 830,-330.5 "/>
<text text-anchor="middle" x="682" y="-319.3" font-family="Times,serif" font-size="14.00">⇊</text>
<polyline fill="none" stroke="#7f7542" points="534,-315.5 830,-315.5 "/>
<text text-anchor="middle" x="682" y="-304.3" font-family="Times,serif" font-size="14.00">X₁ + (X₁ * X₂ * C₃) + (X₁ * X₄ * &#45;(1,C₃)) ∈ X₅</text>
<polyline fill="none" stroke="#7f7542" points="534,-300.5 830,-300.5 "/>
<text text-anchor="middle" x="682" y="-289.3" font-family="Times,serif" font-size="14.00">empty(X₁)</text>
</a>
</g>
</g>
<!-- c_0_114&#45;&gt;c_0_120 -->
<g id="edge3" class="edge">
<title>c_0_114&#45;&gt;c_0_120</title>
<path fill="none" stroke="black" d="M778.5,-285.05C778.5,-285.05 778.5,-258.91 778.5,-258.91"/>
<polygon fill="black" stroke="black" points="782,-258.91 778.5,-248.91 775,-258.91 782,-258.91"/>
</g>
<!-- c_0_113 -->
<g id="node4" class="node">
<title>c_0_113</title>
<g id="a_node4"><a xlink:href="c_0_113.html" xlink:title="{RLSStruct(X₂)|X₁ ∈ bool(carrier(X₂))|X₂ + (X₂ * sk₃(X₂,X₁) * sk₅(X₂,X₁)) + (X₂ * sk₄(X₂,X₁) * &#45;(1,sk₅(X₂,X₁))) ∈ X₁|⇊|convex(X₁,X₂)|empty(X₂)}" target="_vizar">
<polygon fill="#f8edd1" stroke="#7f7542" points="16.5,-308 16.5,-398 515.5,-398 515.5,-308 16.5,-308"/>
<text text-anchor="middle" x="266" y="-386.8" font-family="Times,serif" font-size="14.00">RLSStruct(X₂)</text>
<polyline fill="none" stroke="#7f7542" points="16.5,-383 515.5,-383 "/>
<text text-anchor="middle" x="266" y="-371.8" font-family="Times,serif" font-size="14.00">X₁ ∈ bool(carrier(X₂))</text>
<polyline fill="none" stroke="#7f7542" points="16.5,-368 515.5,-368 "/>
<text text-anchor="middle" x="266" y="-356.8" font-family="Times,serif" font-size="14.00">X₂ + (X₂ * sk₃(X₂,X₁) * sk₅(X₂,X₁)) + (X₂ * sk₄(X₂,X₁) * &#45;(1,sk₅(X₂,X₁))) ∈ X₁</text>
<polyline fill="none" stroke="#7f7542" points="16.5,-353 515.5,-353 "/>
<text text-anchor="middle" x="266" y="-341.8" font-family="Times,serif" font-size="14.00">⇊</text>
<polyline fill="none" stroke="#7f7542" points="16.5,-338 515.5,-338 "/>
<text text-anchor="middle" x="266" y="-326.8" font-family="Times,serif" font-size="14.00">convex(X₁,X₂)</text>
<polyline fill="none" stroke="#7f7542" points="16.5,-323 515.5,-323 "/>
<text text-anchor="middle" x="266" y="-311.8" font-family="Times,serif" font-size="14.00">empty(X₂)</text>
</a>
</g>
</g>
<!-- c_0_113&#45;&gt;c_0_120 -->
<g id="edge4" class="edge">
<title>c_0_113&#45;&gt;c_0_120</title>
<path fill="none" stroke="black" d="M266,-307.59C266,-261.22 266,-196 266,-196 266,-196 716.91,-196 716.91,-196"/>
<polygon fill="black" stroke="black" points="716.91,-199.5 726.91,-196 716.91,-192.5 716.91,-199.5"/>
</g>
<!-- c_0_124 -->
<g id="node6" class="node">
<title>c_0_124</title>
<g id="a_node6"><a xlink:href="c_0_124.html" xlink:title="{Affine(X₁,X₂)|RLSStruct(X₂)|X₁ ∈ bool(carrier(X₂))|⇊|convex(X₁,X₂)|empty(X₂)}" target="_vizar">
<polygon fill="#f8edd1" stroke="#7f7542" points="727,-16.5 727,-106.5 877,-106.5 877,-16.5 727,-16.5"/>
<text text-anchor="middle" x="802" y="-95.3" font-family="Times,serif" font-size="14.00">Affine(X₁,X₂)</text>
<polyline fill="none" stroke="#7f7542" points="727,-91.5 877,-91.5 "/>
<text text-anchor="middle" x="802" y="-80.3" font-family="Times,serif" font-size="14.00">RLSStruct(X₂)</text>
<polyline fill="none" stroke="#7f7542" points="727,-76.5 877,-76.5 "/>
<text text-anchor="middle" x="802" y="-65.3" font-family="Times,serif" font-size="14.00">X₁ ∈ bool(carrier(X₂))</text>
<polyline fill="none" stroke="#7f7542" points="727,-61.5 877,-61.5 "/>
<text text-anchor="middle" x="802" y="-50.3" font-family="Times,serif" font-size="14.00">⇊</text>
<polyline fill="none" stroke="#7f7542" points="727,-46.5 877,-46.5 "/>
<text text-anchor="middle" x="802" y="-35.3" font-family="Times,serif" font-size="14.00">convex(X₁,X₂)</text>
<polyline fill="none" stroke="#7f7542" points="727,-31.5 877,-31.5 "/>
<text text-anchor="middle" x="802" y="-20.3" font-family="Times,serif" font-size="14.00">empty(X₂)</text>
</a>
</g>
</g>
<!-- c_0_120&#45;&gt;c_0_124 -->
<g id="edge5" class="edge">
<title>c_0_120&#45;&gt;c_0_124</title>
<path fill="none" stroke="black" stroke-dasharray="5,2" d="M802,-143.23C802,-143.23 802,-116.72 802,-116.72"/>
<polygon fill="black" stroke="black" points="805.5,-116.72 802,-106.72 798.5,-116.72 805.5,-116.72"/>
</g>
</g>
</svg>
