<?xml version="1.0" encoding="UTF-8" standalone="no"?>
<!DOCTYPE svg PUBLIC "-//W3C//DTD SVG 1.1//EN"
 "http://www.w3.org/Graphics/SVG/1.1/DTD/svg11.dtd">
<!-- Generated by graphviz version 5.0.0 (0)
 -->
<!-- Title: proof Pages: 1 -->
<svg width="306pt" height="160pt"
 viewBox="0.00 0.00 306.00 160.00" xmlns="http://www.w3.org/2000/svg" xmlns:xlink="http://www.w3.org/1999/xlink">
<g id="graph0" class="graph" transform="scale(1 1) rotate(0) translate(4 156)">
<title>proof</title>
<g id="clust1" class="cluster">
<title>cluster_0</title>
<polygon fill="transparent" stroke="black" stroke-dasharray="1,5" points="8,-112 8,-144 290,-144 290,-112 8,-112"/>
</g>
<g id="clust2" class="cluster">
<title>cluster_1</title>
<polygon fill="transparent" stroke="black" stroke-width="2" points="99,-60 99,-92 199,-92 199,-60 99,-60"/>
</g>
<g id="clust3" class="cluster">
<title>cluster_2</title>
<polygon fill="transparent" stroke="black" stroke-dasharray="1,5" points="113,-8 113,-40 185,-40 185,-8 113,-8"/>
</g>
<!-- rqRealDiff__k6_xcmplx_0__r0_r1_rm1 -->
<g id="node1" class="node">
<title>rqRealDiff__k6_xcmplx_0__r0_r1_rm1</title>
<g id="a_node1"><a xlink:href="rqRealDiff__k6_xcmplx_0__r0_r1_rm1.html" xlink:title="rqRealDiff__k6_xcmplx_0__r0_r1_rm1" target="_vizar">
<polygon fill="#69d2e7" stroke="#7f7542" points="16.5,-120.5 16.5,-135.5 281.5,-135.5 281.5,-120.5 16.5,-120.5"/>
<text text-anchor="middle" x="149" y="-124.3" font-family="Times,serif" font-size="14.00">rqRealDiff__k6_xcmplx_0__r0_r1_rm1</text>
</a>
</g>
</g>
<!-- c_0_48 -->
<g id="node2" class="node">
<title>c_0_48</title>
<g id="a_node2"><a xlink:href="c_0_48.html" xlink:title="{&#45;(0,1) = &#45;(1)}" target="_vizar">
<polygon fill="#f8edd1" stroke="#7f7542" points="107.5,-68.5 107.5,-83.5 190.5,-83.5 190.5,-68.5 107.5,-68.5"/>
<text text-anchor="middle" x="149" y="-72.3" font-family="Times,serif" font-size="14.00">&#45;(0,1) = &#45;(1)</text>
</a>
</g>
</g>
<!-- rqRealDiff__k6_xcmplx_0__r0_r1_rm1&#45;&gt;c_0_48 -->
<g id="edge1" class="edge">
<title>rqRealDiff__k6_xcmplx_0__r0_r1_rm1&#45;&gt;c_0_48</title>
<path fill="none" stroke="black" d="M149,-120.33C149,-120.33 149,-93.7 149,-93.7"/>
<polygon fill="black" stroke="black" points="152.5,-93.7 149,-83.7 145.5,-93.7 152.5,-93.7"/>
</g>
<!-- c_0_62 -->
<g id="node3" class="node">
<title>c_0_62</title>
<g id="a_node3"><a xlink:href="c_0_62.html" xlink:title="{&#45;(1) ∈ ℝ}" target="_vizar">
<polygon fill="#f8edd1" stroke="#7f7542" points="121,-16.5 121,-31.5 177,-31.5 177,-16.5 121,-16.5"/>
<text text-anchor="middle" x="149" y="-20.3" font-family="Times,serif" font-size="14.00">&#45;(1) ∈ ℝ</text>
</a>
</g>
</g>
<!-- c_0_48&#45;&gt;c_0_62 -->
<g id="edge2" class="edge">
<title>c_0_48&#45;&gt;c_0_62</title>
<path fill="none" stroke="black" stroke-dasharray="5,2" d="M149,-68.33C149,-68.33 149,-41.7 149,-41.7"/>
<polygon fill="black" stroke="black" points="152.5,-41.7 149,-31.7 145.5,-41.7 152.5,-41.7"/>
</g>
</g>
</svg>
