<?xml version="1.0" encoding="UTF-8" standalone="no"?>
<!DOCTYPE svg PUBLIC "-//W3C//DTD SVG 1.1//EN"
 "http://www.w3.org/Graphics/SVG/1.1/DTD/svg11.dtd">
<!-- Generated by graphviz version 5.0.0 (0)
 -->
<!-- Title: proof Pages: 1 -->
<svg width="206pt" height="138pt"
 viewBox="0.00 0.00 206.00 138.00" xmlns="http://www.w3.org/2000/svg" xmlns:xlink="http://www.w3.org/1999/xlink">
<g id="graph0" class="graph" transform="scale(1 1) rotate(0) translate(4 134)">
<title>proof</title>
<g id="clust1" class="cluster">
<title>cluster_1</title>
<polygon fill="transparent" stroke="black" stroke-width="2" points="37,-90 37,-122 161,-122 161,-90 37,-90"/>
</g>
<g id="clust2" class="cluster">
<title>cluster_2</title>
<polygon fill="transparent" stroke="black" stroke-dasharray="1,5" points="8,-8 8,-70 190,-70 190,-8 8,-8"/>
</g>
<!-- cc5_membered -->
<g id="node1" class="node">
<title>cc5_membered</title>
<g id="a_node1"><a xlink:href="cc5_membered.html" xlink:title="cc5_membered" target="_parent">
<polygon fill="#69d2e7" stroke="#7f7542" points="45,-98.5 45,-113.5 153,-113.5 153,-98.5 45,-98.5"/>
<text text-anchor="middle" x="99" y="-102.3" font-family="Times,serif" font-size="14.00">cc5_membered</text>
</a>
</g>
</g>
<!-- c_0_76 -->
<g id="node2" class="node">
<title>c_0_76</title>
<g id="a_node2"><a xlink:href="c_0_76.html" xlink:title="{X₁ ⊆ ℝ|⇊|complex&#45;membered(X₁)}" target="_parent">
<polygon fill="#f8edd1" stroke="#7f7542" points="16,-16.5 16,-61.5 182,-61.5 182,-16.5 16,-16.5"/>
<text text-anchor="middle" x="99" y="-50.3" font-family="Times,serif" font-size="14.00">X₁ ⊆ ℝ</text>
<polyline fill="none" stroke="#7f7542" points="16,-46.5 182,-46.5 "/>
<text text-anchor="middle" x="99" y="-35.3" font-family="Times,serif" font-size="14.00">⇊</text>
<polyline fill="none" stroke="#7f7542" points="16,-31.5 182,-31.5 "/>
<text text-anchor="middle" x="99" y="-20.3" font-family="Times,serif" font-size="14.00">complex&#45;membered(X₁)</text>
</a>
</g>
</g>
<!-- cc5_membered&#45;&gt;c_0_76 -->
<g id="edge1" class="edge">
<title>cc5_membered&#45;&gt;c_0_76</title>
<path fill="none" stroke="black" d="M99,-98.31C99,-98.31 99,-71.76 99,-71.76"/>
<polygon fill="black" stroke="black" points="102.5,-71.76 99,-61.76 95.5,-71.76 102.5,-71.76"/>
</g>
</g>
</svg>
