<?xml version="1.0" encoding="UTF-8" standalone="no"?>
<!DOCTYPE svg PUBLIC "-//W3C//DTD SVG 1.1//EN"
 "http://www.w3.org/Graphics/SVG/1.1/DTD/svg11.dtd">
<!-- Generated by graphviz version 5.0.0 (0)
 -->
<!-- Title: proof Pages: 1 -->
<svg width="553pt" height="205pt"
 viewBox="0.00 0.00 553.00 205.00" xmlns="http://www.w3.org/2000/svg" xmlns:xlink="http://www.w3.org/1999/xlink">
<g id="graph0" class="graph" transform="scale(1 1) rotate(0) translate(4 201)">
<title>proof</title>
<g id="clust1" class="cluster">
<title>cluster_0</title>
<polygon fill="transparent" stroke="black" stroke-dasharray="1,5" points="8,-112 8,-189 537,-189 537,-112 8,-112"/>
</g>
<g id="clust2" class="cluster">
<title>cluster_1</title>
<polygon fill="transparent" stroke="black" stroke-width="2" points="213,-60 213,-92 281,-92 281,-60 213,-60"/>
</g>
<g id="clust3" class="cluster">
<title>cluster_2</title>
<polygon fill="transparent" stroke="black" stroke-dasharray="1,5" points="160,-8 160,-40 334,-40 334,-8 160,-8"/>
</g>
<!-- c_0_159 -->
<g id="node1" class="node">
<title>c_0_159</title>
<g id="a_node1"><a xlink:href="c_0_159.html" xlink:title="{¬ (positive(0))}" target="_parent">
<polygon fill="#f8edd1" stroke="#7f7542" points="425.5,-143 425.5,-158 528.5,-158 528.5,-143 425.5,-143"/>
<text text-anchor="middle" x="477" y="-146.8" font-family="Times,serif" font-size="14.00">¬ (positive(0))</text>
</a>
</g>
</g>
<!-- c_0_166 -->
<g id="node7" class="node">
<title>c_0_166</title>
<g id="a_node7"><a xlink:href="c_0_166.html" xlink:title="{0 ≤ sk₁}" target="_parent">
<polygon fill="#fa6900" stroke="#7f7542" points="221,-68.5 221,-83.5 273,-83.5 273,-68.5 221,-68.5"/>
<text text-anchor="middle" x="247" y="-72.3" font-family="Times,serif" font-size="14.00">0 ≤ sk₁</text>
</a>
</g>
</g>
<!-- c_0_159&#45;&gt;c_0_166 -->
<g id="edge1" class="edge">
<title>c_0_159&#45;&gt;c_0_166</title>
<path fill="none" stroke="black" d="M477,-142.79C477,-123.18 477,-73 477,-73 477,-73 283.38,-73 283.38,-73"/>
<polygon fill="black" stroke="black" points="283.38,-69.5 273.38,-73 283.38,-76.5 283.38,-69.5"/>
</g>
<!-- c_0_158 -->
<g id="node2" class="node">
<title>c_0_158</title>
<g id="a_node2"><a xlink:href="c_0_158.html" xlink:title="{positive(sk₁)}" target="_parent">
<polygon fill="#fa6900" stroke="#7f7542" points="319,-143 319,-158 407,-158 407,-143 319,-143"/>
<text text-anchor="middle" x="363" y="-146.8" font-family="Times,serif" font-size="14.00">positive(sk₁)</text>
</a>
</g>
</g>
<!-- c_0_158&#45;&gt;c_0_166 -->
<g id="edge2" class="edge">
<title>c_0_158&#45;&gt;c_0_166</title>
<path fill="none" stroke="black" d="M366.25,-142.74C366.25,-124.04 366.25,-78 366.25,-78 366.25,-78 283.17,-78 283.17,-78"/>
<polygon fill="black" stroke="black" points="283.17,-74.5 273.17,-78 283.17,-81.5 283.17,-74.5"/>
</g>
<!-- c_0_103 -->
<g id="node3" class="node">
<title>c_0_103</title>
<g id="a_node3"><a xlink:href="c_0_103.html" xlink:title="{0 ∈ ℝ}" target="_parent">
<polygon fill="#f8edd1" stroke="#7f7542" points="259.5,-143 259.5,-158 300.5,-158 300.5,-143 259.5,-143"/>
<text text-anchor="middle" x="280" y="-146.8" font-family="Times,serif" font-size="14.00">0 ∈ ℝ</text>
</a>
</g>
</g>
<!-- c_0_103&#45;&gt;c_0_166 -->
<g id="edge3" class="edge">
<title>c_0_103&#45;&gt;c_0_166</title>
<path fill="none" stroke="black" d="M266.25,-142.81C266.25,-142.81 266.25,-93.76 266.25,-93.76"/>
<polygon fill="black" stroke="black" points="269.75,-93.76 266.25,-83.76 262.75,-93.76 269.75,-93.76"/>
</g>
<!-- c_0_100 -->
<g id="node4" class="node">
<title>c_0_100</title>
<g id="a_node4"><a xlink:href="c_0_100.html" xlink:title="{sk₁ ∈ ℝ}" target="_parent">
<polygon fill="#fa6900" stroke="#7f7542" points="188.5,-143 188.5,-158 241.5,-158 241.5,-143 188.5,-143"/>
<text text-anchor="middle" x="215" y="-146.8" font-family="Times,serif" font-size="14.00">sk₁ ∈ ℝ</text>
</a>
</g>
</g>
<!-- c_0_100&#45;&gt;c_0_166 -->
<g id="edge4" class="edge">
<title>c_0_100&#45;&gt;c_0_166</title>
<path fill="none" stroke="black" d="M236.38,-142.81C236.38,-142.81 236.38,-93.76 236.38,-93.76"/>
<polygon fill="black" stroke="black" points="239.88,-93.76 236.38,-83.76 232.88,-93.76 239.88,-93.76"/>
</g>
<!-- c_0_157 -->
<g id="node5" class="node">
<title>c_0_157</title>
<g id="a_node5"><a xlink:href="c_0_157.html" xlink:title="{0 ≤ sk₁|sk₁ ≤ 0}" target="_parent">
<polygon fill="#fa6900" stroke="#7f7542" points="118,-135.5 118,-165.5 170,-165.5 170,-135.5 118,-135.5"/>
<text text-anchor="middle" x="144" y="-154.3" font-family="Times,serif" font-size="14.00">0 ≤ sk₁</text>
<polyline fill="none" stroke="#7f7542" points="118,-150.5 170,-150.5 "/>
<text text-anchor="middle" x="144" y="-139.3" font-family="Times,serif" font-size="14.00">sk₁ ≤ 0</text>
</a>
</g>
</g>
<!-- c_0_157&#45;&gt;c_0_166 -->
<g id="edge5" class="edge">
<title>c_0_157&#45;&gt;c_0_166</title>
<path fill="none" stroke="black" d="M170.18,-138C195.88,-138 231.25,-138 231.25,-138 231.25,-138 231.25,-93.6 231.25,-93.6"/>
<polygon fill="black" stroke="black" points="234.75,-93.6 231.25,-83.6 227.75,-93.6 234.75,-93.6"/>
</g>
<!-- c_0_127 -->
<g id="node6" class="node">
<title>c_0_127</title>
<g id="a_node6"><a xlink:href="c_0_127.html" xlink:title="{R₁ ≤ R₂|positive(R₁)|⇊|positive(R₂)}" target="_parent">
<polygon fill="#f8edd1" stroke="#7f7542" points="16.5,-120.5 16.5,-180.5 99.5,-180.5 99.5,-120.5 16.5,-120.5"/>
<text text-anchor="middle" x="58" y="-169.3" font-family="Times,serif" font-size="14.00">R₁ ≤ R₂</text>
<polyline fill="none" stroke="#7f7542" points="16.5,-165.5 99.5,-165.5 "/>
<text text-anchor="middle" x="58" y="-154.3" font-family="Times,serif" font-size="14.00">positive(R₁)</text>
<polyline fill="none" stroke="#7f7542" points="16.5,-150.5 99.5,-150.5 "/>
<text text-anchor="middle" x="58" y="-139.3" font-family="Times,serif" font-size="14.00">⇊</text>
<polyline fill="none" stroke="#7f7542" points="16.5,-135.5 99.5,-135.5 "/>
<text text-anchor="middle" x="58" y="-124.3" font-family="Times,serif" font-size="14.00">positive(R₂)</text>
</a>
</g>
</g>
<!-- c_0_127&#45;&gt;c_0_166 -->
<g id="edge6" class="edge">
<title>c_0_127&#45;&gt;c_0_166</title>
<path fill="none" stroke="black" d="M99.56,-127C149.35,-127 226.12,-127 226.12,-127 226.12,-127 226.12,-93.53 226.12,-93.53"/>
<polygon fill="black" stroke="black" points="229.63,-93.53 226.12,-83.53 222.63,-93.53 229.63,-93.53"/>
</g>
<!-- c_0_172 -->
<g id="node8" class="node">
<title>c_0_172</title>
<g id="a_node8"><a xlink:href="c_0_172.html" xlink:title="{¬ (1 ≤ sk₁ \|^ sk₆(sk₁))}" target="_parent">
<polygon fill="#fa6900" stroke="#7f7542" points="168.5,-16.5 168.5,-31.5 325.5,-31.5 325.5,-16.5 168.5,-16.5"/>
<text text-anchor="middle" x="247" y="-20.3" font-family="Times,serif" font-size="14.00">¬ (1 ≤ sk₁ |^ sk₆(sk₁))</text>
</a>
</g>
</g>
<!-- c_0_166&#45;&gt;c_0_172 -->
<g id="edge7" class="edge">
<title>c_0_166&#45;&gt;c_0_172</title>
<path fill="none" stroke="black" stroke-dasharray="5,2" d="M247,-68.33C247,-68.33 247,-41.7 247,-41.7"/>
<polygon fill="black" stroke="black" points="250.5,-41.7 247,-31.7 243.5,-41.7 250.5,-41.7"/>
</g>
</g>
</svg>
