<?xml version="1.0" encoding="UTF-8" standalone="no"?>
<!DOCTYPE svg PUBLIC "-//W3C//DTD SVG 1.1//EN"
 "http://www.w3.org/Graphics/SVG/1.1/DTD/svg11.dtd">
<!-- Generated by graphviz version 5.0.0 (0)
 -->
<!-- Title: proof Pages: 1 -->
<svg width="486pt" height="205pt"
 viewBox="0.00 0.00 486.00 205.00" xmlns="http://www.w3.org/2000/svg" xmlns:xlink="http://www.w3.org/1999/xlink">
<g id="graph0" class="graph" transform="scale(1 1) rotate(0) translate(4 201)">
<title>proof</title>
<g id="clust1" class="cluster">
<title>cluster_0</title>
<polygon fill="transparent" stroke="black" stroke-dasharray="1,5" points="8,-112 8,-189 469,-189 469,-112 8,-112"/>
</g>
<g id="clust2" class="cluster">
<title>cluster_1</title>
<polygon fill="transparent" stroke="black" stroke-width="2" points="193,-60 193,-92 295,-92 295,-60 193,-60"/>
</g>
<g id="clust3" class="cluster">
<title>cluster_2</title>
<polygon fill="transparent" stroke="black" stroke-dasharray="1,5" points="90,-8 90,-40 470,-40 470,-8 90,-8"/>
</g>
<!-- c_0_160 -->
<g id="node1" class="node">
<title>c_0_160</title>
<g id="a_node1"><a xlink:href="c_0_160.html" xlink:title="{R₂ \|^ C₁ ≤ 1|⇊|C₁ ≤ 0|sk₆(R₂) ∈ ℕ}" target="_parent">
<polygon fill="#f8edd1" stroke="#7f7542" points="373,-120.5 373,-180.5 461,-180.5 461,-120.5 373,-120.5"/>
<text text-anchor="middle" x="417" y="-169.3" font-family="Times,serif" font-size="14.00">R₂ |^ C₁ ≤ 1</text>
<polyline fill="none" stroke="#7f7542" points="373,-165.5 461,-165.5 "/>
<text text-anchor="middle" x="417" y="-154.3" font-family="Times,serif" font-size="14.00">⇊</text>
<polyline fill="none" stroke="#7f7542" points="373,-150.5 461,-150.5 "/>
<text text-anchor="middle" x="417" y="-139.3" font-family="Times,serif" font-size="14.00">C₁ ≤ 0</text>
<polyline fill="none" stroke="#7f7542" points="373,-135.5 461,-135.5 "/>
<text text-anchor="middle" x="417" y="-124.3" font-family="Times,serif" font-size="14.00">sk₆(R₂) ∈ ℕ</text>
</a>
</g>
</g>
<!-- c_0_167 -->
<g id="node6" class="node">
<title>c_0_167</title>
<g id="a_node6"><a xlink:href="c_0_167.html" xlink:title="{sk₆(sk₁) ∈ ℕ}" target="_parent">
<polygon fill="#fa6900" stroke="#7f7542" points="201.5,-68.5 201.5,-83.5 286.5,-83.5 286.5,-68.5 201.5,-68.5"/>
<text text-anchor="middle" x="244" y="-72.3" font-family="Times,serif" font-size="14.00">sk₆(sk₁) ∈ ℕ</text>
</a>
</g>
</g>
<!-- c_0_160&#45;&gt;c_0_167 -->
<g id="edge1" class="edge">
<title>c_0_160&#45;&gt;c_0_167</title>
<path fill="none" stroke="black" d="M417,-120.2C417,-99.57 417,-76 417,-76 417,-76 296.76,-76 296.76,-76"/>
<polygon fill="black" stroke="black" points="296.76,-72.5 286.76,-76 296.76,-79.5 296.76,-72.5"/>
</g>
<!-- c_0_100 -->
<g id="node2" class="node">
<title>c_0_100</title>
<g id="a_node2"><a xlink:href="c_0_100.html" xlink:title="{sk₁ ∈ ℝ}" target="_parent">
<polygon fill="#fa6900" stroke="#7f7542" points="301.5,-143 301.5,-158 354.5,-158 354.5,-143 301.5,-143"/>
<text text-anchor="middle" x="328" y="-146.8" font-family="Times,serif" font-size="14.00">sk₁ ∈ ℝ</text>
</a>
</g>
</g>
<!-- c_0_100&#45;&gt;c_0_167 -->
<g id="edge2" class="edge">
<title>c_0_100&#45;&gt;c_0_167</title>
<path fill="none" stroke="black" d="M337.83,-142.96C337.83,-124.77 337.83,-80 337.83,-80 337.83,-80 296.52,-80 296.52,-80"/>
<polygon fill="black" stroke="black" points="296.52,-76.5 286.52,-80 296.52,-83.5 296.52,-76.5"/>
</g>
<!-- c_0_107 -->
<g id="node3" class="node">
<title>c_0_107</title>
<g id="a_node3"><a xlink:href="c_0_107.html" xlink:title="{¬ (sk₂ ≤ 0)}" target="_parent">
<polygon fill="#fa6900" stroke="#7f7542" points="204.5,-143 204.5,-158 283.5,-158 283.5,-143 204.5,-143"/>
<text text-anchor="middle" x="244" y="-146.8" font-family="Times,serif" font-size="14.00">¬ (sk₂ ≤ 0)</text>
</a>
</g>
</g>
<!-- c_0_107&#45;&gt;c_0_167 -->
<g id="edge3" class="edge">
<title>c_0_107&#45;&gt;c_0_167</title>
<path fill="none" stroke="black" d="M244,-142.81C244,-142.81 244,-93.76 244,-93.76"/>
<polygon fill="black" stroke="black" points="247.5,-93.76 244,-83.76 240.5,-93.76 247.5,-93.76"/>
</g>
<!-- c_0_122 -->
<g id="node4" class="node">
<title>c_0_122</title>
<g id="a_node4"><a xlink:href="c_0_122.html" xlink:title="{sk₁ \|^ sk₂ ≤ 1}" target="_parent">
<polygon fill="#fa6900" stroke="#7f7542" points="88,-143 88,-158 186,-158 186,-143 88,-143"/>
<text text-anchor="middle" x="137" y="-146.8" font-family="Times,serif" font-size="14.00">sk₁ |^ sk₂ ≤ 1</text>
</a>
</g>
</g>
<!-- c_0_122&#45;&gt;c_0_167 -->
<g id="edge4" class="edge">
<title>c_0_122&#45;&gt;c_0_167</title>
<path fill="none" stroke="black" d="M126.83,-142.96C126.83,-124.77 126.83,-80 126.83,-80 126.83,-80 191.37,-80 191.37,-80"/>
<polygon fill="black" stroke="black" points="191.37,-83.5 201.37,-80 191.37,-76.5 191.37,-83.5"/>
</g>
<!-- c_0_123 -->
<g id="node5" class="node">
<title>c_0_123</title>
<g id="a_node5"><a xlink:href="c_0_123.html" xlink:title="{sk₂ ∈ ℕ}" target="_parent">
<polygon fill="#fa6900" stroke="#7f7542" points="16,-143 16,-158 70,-158 70,-143 16,-143"/>
<text text-anchor="middle" x="43" y="-146.8" font-family="Times,serif" font-size="14.00">sk₂ ∈ ℕ</text>
</a>
</g>
</g>
<!-- c_0_123&#45;&gt;c_0_167 -->
<g id="edge5" class="edge">
<title>c_0_123&#45;&gt;c_0_167</title>
<path fill="none" stroke="black" d="M43,-142.81C43,-123.77 43,-76 43,-76 43,-76 191.37,-76 191.37,-76"/>
<polygon fill="black" stroke="black" points="191.37,-79.5 201.37,-76 191.37,-72.5 191.37,-79.5"/>
</g>
<!-- c_0_172 -->
<g id="node7" class="node">
<title>c_0_172</title>
<g id="a_node7"><a xlink:href="c_0_172.html" xlink:title="{¬ (1 ≤ sk₁ \|^ sk₆(sk₁))}" target="_parent">
<polygon fill="#fa6900" stroke="#7f7542" points="304.5,-16.5 304.5,-31.5 461.5,-31.5 461.5,-16.5 304.5,-16.5"/>
<text text-anchor="middle" x="383" y="-20.3" font-family="Times,serif" font-size="14.00">¬ (1 ≤ sk₁ |^ sk₆(sk₁))</text>
</a>
</g>
</g>
<!-- c_0_167&#45;&gt;c_0_172 -->
<g id="edge6" class="edge">
<title>c_0_167&#45;&gt;c_0_172</title>
<path fill="none" stroke="black" stroke-dasharray="5,2" d="M286.65,-72C304.49,-72 321.17,-72 321.17,-72 321.17,-72 321.17,-41.93 321.17,-41.93"/>
<polygon fill="black" stroke="black" points="324.67,-41.93 321.17,-31.93 317.67,-41.93 324.67,-41.93"/>
</g>
<!-- c_0_188 -->
<g id="node8" class="node">
<title>c_0_188</title>
<g id="a_node8"><a xlink:href="c_0_188.html" xlink:title="{sk₆(sk₁) = Ø}" target="_parent">
<polygon fill="#fa6900" stroke="#7f7542" points="201.5,-16.5 201.5,-31.5 286.5,-31.5 286.5,-16.5 201.5,-16.5"/>
<text text-anchor="middle" x="244" y="-20.3" font-family="Times,serif" font-size="14.00">sk₆(sk₁) = Ø</text>
</a>
</g>
</g>
<!-- c_0_167&#45;&gt;c_0_188 -->
<g id="edge7" class="edge">
<title>c_0_167&#45;&gt;c_0_188</title>
<path fill="none" stroke="black" stroke-dasharray="5,2" d="M244,-68.33C244,-68.33 244,-41.7 244,-41.7"/>
<polygon fill="black" stroke="black" points="247.5,-41.7 244,-31.7 240.5,-41.7 247.5,-41.7"/>
</g>
<!-- c_0_183 -->
<g id="node9" class="node">
<title>c_0_183</title>
<g id="a_node9"><a xlink:href="c_0_183.html" xlink:title="{sk₆(sk₁) ∈ ℝ}" target="_parent">
<polygon fill="#fa6900" stroke="#7f7542" points="98.5,-16.5 98.5,-31.5 183.5,-31.5 183.5,-16.5 98.5,-16.5"/>
<text text-anchor="middle" x="141" y="-20.3" font-family="Times,serif" font-size="14.00">sk₆(sk₁) ∈ ℝ</text>
</a>
</g>
</g>
<!-- c_0_167&#45;&gt;c_0_183 -->
<g id="edge8" class="edge">
<title>c_0_167&#45;&gt;c_0_183</title>
<path fill="none" stroke="black" stroke-dasharray="5,2" d="M201.4,-72C178.61,-72 155.17,-72 155.17,-72 155.17,-72 155.17,-41.93 155.17,-41.93"/>
<polygon fill="black" stroke="black" points="158.67,-41.93 155.17,-31.93 151.67,-41.93 158.67,-41.93"/>
</g>
</g>
</svg>
