<?xml version="1.0" encoding="UTF-8" standalone="no"?>
<!DOCTYPE svg PUBLIC "-//W3C//DTD SVG 1.1//EN"
 "http://www.w3.org/Graphics/SVG/1.1/DTD/svg11.dtd">
<!-- Generated by graphviz version 5.0.0 (0)
 -->
<!-- Title: proof Pages: 1 -->
<svg width="267pt" height="205pt"
 viewBox="0.00 0.00 267.00 205.00" xmlns="http://www.w3.org/2000/svg" xmlns:xlink="http://www.w3.org/1999/xlink">
<g id="graph0" class="graph" transform="scale(1 1) rotate(0) translate(4 201)">
<title>proof</title>
<g id="clust1" class="cluster">
<title>cluster_0</title>
<polygon fill="transparent" stroke="black" stroke-dasharray="1,5" points="8,-157 8,-189 226,-189 226,-157 8,-157"/>
</g>
<g id="clust2" class="cluster">
<title>cluster_1</title>
<polygon fill="transparent" stroke="black" stroke-width="2" points="48,-105 48,-137 186,-137 186,-105 48,-105"/>
</g>
<g id="clust3" class="cluster">
<title>cluster_2</title>
<polygon fill="transparent" stroke="black" stroke-dasharray="1,5" points="14,-8 14,-85 251,-85 251,-8 14,-8"/>
</g>
<!-- commutativity_k3_xcmplx_0 -->
<g id="node1" class="node">
<title>commutativity_k3_xcmplx_0</title>
<g id="a_node1"><a xlink:href="commutativity_k3_xcmplx_0.html" xlink:title="commutativity_k3_xcmplx_0" target="_parent">
<polygon fill="#69d2e7" stroke="#7f7542" points="16,-165.5 16,-180.5 218,-180.5 218,-165.5 16,-165.5"/>
<text text-anchor="middle" x="117" y="-169.3" font-family="Times,serif" font-size="14.00">commutativity_k3_xcmplx_0</text>
</a>
</g>
</g>
<!-- c_0_50 -->
<g id="node2" class="node">
<title>c_0_50</title>
<g id="a_node2"><a xlink:href="c_0_50.html" xlink:title="{N₁ * N₂ = N₂ * N₁}" target="_parent">
<polygon fill="#f8edd1" stroke="#7f7542" points="56,-113.5 56,-128.5 178,-128.5 178,-113.5 56,-113.5"/>
<text text-anchor="middle" x="117" y="-117.3" font-family="Times,serif" font-size="14.00">N₁ * N₂ = N₂ * N₁</text>
</a>
</g>
</g>
<!-- commutativity_k3_xcmplx_0&#45;&gt;c_0_50 -->
<g id="edge1" class="edge">
<title>commutativity_k3_xcmplx_0&#45;&gt;c_0_50</title>
<path fill="none" stroke="black" d="M117,-165.33C117,-165.33 117,-138.7 117,-138.7"/>
<polygon fill="black" stroke="black" points="120.5,-138.7 117,-128.7 113.5,-138.7 120.5,-138.7"/>
</g>
<!-- c_0_96 -->
<g id="node3" class="node">
<title>c_0_96</title>
<g id="a_node3"><a xlink:href="c_0_96.html" xlink:title="{0 ≤ N₂|N₁ ≤ R₃|⇊|N₂ * N₁ ≤ R₃ * N₂}" target="_parent">
<polygon fill="#f8edd1" stroke="#7f7542" points="121.5,-16.5 121.5,-76.5 242.5,-76.5 242.5,-16.5 121.5,-16.5"/>
<text text-anchor="middle" x="182" y="-65.3" font-family="Times,serif" font-size="14.00">0 ≤ N₂</text>
<polyline fill="none" stroke="#7f7542" points="121.5,-61.5 242.5,-61.5 "/>
<text text-anchor="middle" x="182" y="-50.3" font-family="Times,serif" font-size="14.00">N₁ ≤ R₃</text>
<polyline fill="none" stroke="#7f7542" points="121.5,-46.5 242.5,-46.5 "/>
<text text-anchor="middle" x="182" y="-35.3" font-family="Times,serif" font-size="14.00">⇊</text>
<polyline fill="none" stroke="#7f7542" points="121.5,-31.5 242.5,-31.5 "/>
<text text-anchor="middle" x="182" y="-20.3" font-family="Times,serif" font-size="14.00">N₂ * N₁ ≤ R₃ * N₂</text>
</a>
</g>
</g>
<!-- c_0_50&#45;&gt;c_0_96 -->
<g id="edge2" class="edge">
<title>c_0_50&#45;&gt;c_0_96</title>
<path fill="none" stroke="black" stroke-dasharray="5,2" d="M149.75,-113.31C149.75,-113.31 149.75,-86.51 149.75,-86.51"/>
<polygon fill="black" stroke="black" points="153.25,-86.51 149.75,-76.51 146.25,-86.51 153.25,-86.51"/>
</g>
<!-- c_0_69 -->
<g id="node4" class="node">
<title>c_0_69</title>
<g id="a_node4"><a xlink:href="c_0_69.html" xlink:title="{N₁ * 1 = N₁}" target="_parent">
<polygon fill="#f8edd1" stroke="#7f7542" points="22.5,-39 22.5,-54 103.5,-54 103.5,-39 22.5,-39"/>
<text text-anchor="middle" x="63" y="-42.8" font-family="Times,serif" font-size="14.00">N₁ * 1 = N₁</text>
</a>
</g>
</g>
<!-- c_0_50&#45;&gt;c_0_69 -->
<g id="edge3" class="edge">
<title>c_0_50&#45;&gt;c_0_69</title>
<path fill="none" stroke="black" stroke-dasharray="5,2" d="M79.75,-113.31C79.75,-113.31 79.75,-64.26 79.75,-64.26"/>
<polygon fill="black" stroke="black" points="83.25,-64.26 79.75,-54.26 76.25,-64.26 83.25,-64.26"/>
</g>
</g>
</svg>
