<?xml version="1.0" encoding="UTF-8" standalone="no"?>
<!DOCTYPE svg PUBLIC "-//W3C//DTD SVG 1.1//EN"
 "http://www.w3.org/Graphics/SVG/1.1/DTD/svg11.dtd">
<!-- Generated by graphviz version 5.0.0 (0)
 -->
<!-- Title: proof Pages: 1 -->
<svg width="158pt" height="160pt"
 viewBox="0.00 0.00 158.00 160.00" xmlns="http://www.w3.org/2000/svg" xmlns:xlink="http://www.w3.org/1999/xlink">
<g id="graph0" class="graph" transform="scale(1 1) rotate(0) translate(4 156)">
<title>proof</title>
<g id="clust1" class="cluster">
<title>cluster_0</title>
<polygon fill="transparent" stroke="black" stroke-dasharray="1,5" points="32,-112 32,-144 118,-144 118,-112 32,-112"/>
</g>
<g id="clust2" class="cluster">
<title>cluster_1</title>
<polygon fill="transparent" stroke="black" stroke-width="2" points="8,-60 8,-92 142,-92 142,-60 8,-60"/>
</g>
<g id="clust3" class="cluster">
<title>cluster_2</title>
<polygon fill="transparent" stroke="black" stroke-dasharray="1,5" points="24,-8 24,-40 126,-40 126,-8 24,-8"/>
</g>
<!-- cc3_nat_1 -->
<g id="node1" class="node">
<title>cc3_nat_1</title>
<g id="a_node1"><a xlink:href="cc3_nat_1.html" xlink:title="cc3_nat_1" target="_vizar">
<polygon fill="#69d2e7" stroke="#7f7542" points="40,-120.5 40,-135.5 110,-135.5 110,-120.5 40,-120.5"/>
<text text-anchor="middle" x="75" y="-124.3" font-family="Times,serif" font-size="14.00">cc3_nat_1</text>
</a>
</g>
</g>
<!-- c_0_180 -->
<g id="node2" class="node">
<title>c_0_180</title>
<g id="a_node2"><a xlink:href="c_0_180.html" xlink:title="{¬ (negative(N₁))}" target="_vizar">
<polygon fill="#f8edd1" stroke="#7f7542" points="16.5,-68.5 16.5,-83.5 133.5,-83.5 133.5,-68.5 16.5,-68.5"/>
<text text-anchor="middle" x="75" y="-72.3" font-family="Times,serif" font-size="14.00">¬ (negative(N₁))</text>
</a>
</g>
</g>
<!-- cc3_nat_1&#45;&gt;c_0_180 -->
<g id="edge1" class="edge">
<title>cc3_nat_1&#45;&gt;c_0_180</title>
<path fill="none" stroke="black" d="M75,-120.33C75,-120.33 75,-93.7 75,-93.7"/>
<polygon fill="black" stroke="black" points="78.5,-93.7 75,-83.7 71.5,-93.7 78.5,-93.7"/>
</g>
<!-- c_0_188 -->
<g id="node3" class="node">
<title>c_0_188</title>
<g id="a_node3"><a xlink:href="c_0_188.html" xlink:title="{sk₆(sk₁) = Ø}" target="_vizar">
<polygon fill="#fa6900" stroke="#7f7542" points="32.5,-16.5 32.5,-31.5 117.5,-31.5 117.5,-16.5 32.5,-16.5"/>
<text text-anchor="middle" x="75" y="-20.3" font-family="Times,serif" font-size="14.00">sk₆(sk₁) = Ø</text>
</a>
</g>
</g>
<!-- c_0_180&#45;&gt;c_0_188 -->
<g id="edge2" class="edge">
<title>c_0_180&#45;&gt;c_0_188</title>
<path fill="none" stroke="black" stroke-dasharray="5,2" d="M75,-68.33C75,-68.33 75,-41.7 75,-41.7"/>
<polygon fill="black" stroke="black" points="78.5,-41.7 75,-31.7 71.5,-41.7 78.5,-41.7"/>
</g>
</g>
</svg>
