<?xml version="1.0" encoding="UTF-8" standalone="no"?>
<!DOCTYPE svg PUBLIC "-//W3C//DTD SVG 1.1//EN"
 "http://www.w3.org/Graphics/SVG/1.1/DTD/svg11.dtd">
<!-- Generated by graphviz version 5.0.0 (0)
 -->
<!-- Title: proof Pages: 1 -->
<svg width="419pt" height="205pt"
 viewBox="0.00 0.00 419.00 205.00" xmlns="http://www.w3.org/2000/svg" xmlns:xlink="http://www.w3.org/1999/xlink">
<g id="graph0" class="graph" transform="scale(1 1) rotate(0) translate(4 201)">
<title>proof</title>
<g id="clust1" class="cluster">
<title>cluster_0</title>
<polygon fill="transparent" stroke="black" stroke-dasharray="1,5" points="8,-112 8,-189 403,-189 403,-112 8,-112"/>
</g>
<g id="clust2" class="cluster">
<title>cluster_1</title>
<polygon fill="transparent" stroke="black" stroke-width="2" points="136,-60 136,-92 240,-92 240,-60 136,-60"/>
</g>
<g id="clust3" class="cluster">
<title>cluster_2</title>
<polygon fill="transparent" stroke="black" stroke-dasharray="1,5" points="154,-8 154,-40 222,-40 222,-8 154,-8"/>
</g>
<!-- c_0_130 -->
<g id="node1" class="node">
<title>c_0_130</title>
<g id="a_node1"><a xlink:href="c_0_130.html" xlink:title="{positive(1)}" target="_parent">
<polygon fill="#f8edd1" stroke="#7f7542" points="319,-143 319,-158 395,-158 395,-143 319,-143"/>
<text text-anchor="middle" x="357" y="-146.8" font-family="Times,serif" font-size="14.00">positive(1)</text>
</a>
</g>
</g>
<!-- c_0_158 -->
<g id="node6" class="node">
<title>c_0_158</title>
<g id="a_node6"><a xlink:href="c_0_158.html" xlink:title="{positive(sk₁)}" target="_parent">
<polygon fill="#fa6900" stroke="#7f7542" points="144,-68.5 144,-83.5 232,-83.5 232,-68.5 144,-68.5"/>
<text text-anchor="middle" x="188" y="-72.3" font-family="Times,serif" font-size="14.00">positive(sk₁)</text>
</a>
</g>
</g>
<!-- c_0_130&#45;&gt;c_0_158 -->
<g id="edge1" class="edge">
<title>c_0_130&#45;&gt;c_0_158</title>
<path fill="none" stroke="black" d="M357,-142.79C357,-123.18 357,-73 357,-73 357,-73 242.4,-73 242.4,-73"/>
<polygon fill="black" stroke="black" points="242.4,-69.5 232.4,-73 242.4,-76.5 242.4,-69.5"/>
</g>
<!-- c_0_100 -->
<g id="node2" class="node">
<title>c_0_100</title>
<g id="a_node2"><a xlink:href="c_0_100.html" xlink:title="{sk₁ ∈ ℝ}" target="_parent">
<polygon fill="#fa6900" stroke="#7f7542" points="247.5,-143 247.5,-158 300.5,-158 300.5,-143 247.5,-143"/>
<text text-anchor="middle" x="274" y="-146.8" font-family="Times,serif" font-size="14.00">sk₁ ∈ ℝ</text>
</a>
</g>
</g>
<!-- c_0_100&#45;&gt;c_0_158 -->
<g id="edge2" class="edge">
<title>c_0_100&#45;&gt;c_0_158</title>
<path fill="none" stroke="black" d="M274,-142.74C274,-124.04 274,-78 274,-78 274,-78 242.01,-78 242.01,-78"/>
<polygon fill="black" stroke="black" points="242.01,-74.5 232.01,-78 242.01,-81.5 242.01,-74.5"/>
</g>
<!-- c_0_127 -->
<g id="node3" class="node">
<title>c_0_127</title>
<g id="a_node3"><a xlink:href="c_0_127.html" xlink:title="{R₁ ≤ R₂|positive(R₁)|⇊|positive(R₂)}" target="_parent">
<polygon fill="#f8edd1" stroke="#7f7542" points="146.5,-120.5 146.5,-180.5 229.5,-180.5 229.5,-120.5 146.5,-120.5"/>
<text text-anchor="middle" x="188" y="-169.3" font-family="Times,serif" font-size="14.00">R₁ ≤ R₂</text>
<polyline fill="none" stroke="#7f7542" points="146.5,-165.5 229.5,-165.5 "/>
<text text-anchor="middle" x="188" y="-154.3" font-family="Times,serif" font-size="14.00">positive(R₁)</text>
<polyline fill="none" stroke="#7f7542" points="146.5,-150.5 229.5,-150.5 "/>
<text text-anchor="middle" x="188" y="-139.3" font-family="Times,serif" font-size="14.00">⇊</text>
<polyline fill="none" stroke="#7f7542" points="146.5,-135.5 229.5,-135.5 "/>
<text text-anchor="middle" x="188" y="-124.3" font-family="Times,serif" font-size="14.00">positive(R₂)</text>
</a>
</g>
</g>
<!-- c_0_127&#45;&gt;c_0_158 -->
<g id="edge3" class="edge">
<title>c_0_127&#45;&gt;c_0_158</title>
<path fill="none" stroke="black" d="M188,-120.2C188,-120.2 188,-93.59 188,-93.59"/>
<polygon fill="black" stroke="black" points="191.5,-93.59 188,-83.59 184.5,-93.59 191.5,-93.59"/>
</g>
<!-- c_0_145 -->
<g id="node4" class="node">
<title>c_0_145</title>
<g id="a_node4"><a xlink:href="c_0_145.html" xlink:title="{1 ≤ sk₁}" target="_parent">
<polygon fill="#fa6900" stroke="#7f7542" points="76,-143 76,-158 128,-158 128,-143 76,-143"/>
<text text-anchor="middle" x="102" y="-146.8" font-family="Times,serif" font-size="14.00">1 ≤ sk₁</text>
</a>
</g>
</g>
<!-- c_0_145&#45;&gt;c_0_158 -->
<g id="edge4" class="edge">
<title>c_0_145&#45;&gt;c_0_158</title>
<path fill="none" stroke="black" d="M102,-142.74C102,-124.04 102,-78 102,-78 102,-78 133.99,-78 133.99,-78"/>
<polygon fill="black" stroke="black" points="133.99,-81.5 143.99,-78 133.99,-74.5 133.99,-81.5"/>
</g>
<!-- c_0_44 -->
<g id="node5" class="node">
<title>c_0_44</title>
<g id="a_node5"><a xlink:href="c_0_44.html" xlink:title="{1 ∈ ℝ}" target="_parent">
<polygon fill="#f8edd1" stroke="#7f7542" points="16.5,-143 16.5,-158 57.5,-158 57.5,-143 16.5,-143"/>
<text text-anchor="middle" x="37" y="-146.8" font-family="Times,serif" font-size="14.00">1 ∈ ℝ</text>
</a>
</g>
</g>
<!-- c_0_44&#45;&gt;c_0_158 -->
<g id="edge5" class="edge">
<title>c_0_44&#45;&gt;c_0_158</title>
<path fill="none" stroke="black" d="M37,-142.79C37,-123.18 37,-73 37,-73 37,-73 133.92,-73 133.92,-73"/>
<polygon fill="black" stroke="black" points="133.92,-76.5 143.92,-73 133.92,-69.5 133.92,-76.5"/>
</g>
<!-- c_0_166 -->
<g id="node7" class="node">
<title>c_0_166</title>
<g id="a_node7"><a xlink:href="c_0_166.html" xlink:title="{0 ≤ sk₁}" target="_parent">
<polygon fill="#fa6900" stroke="#7f7542" points="162,-16.5 162,-31.5 214,-31.5 214,-16.5 162,-16.5"/>
<text text-anchor="middle" x="188" y="-20.3" font-family="Times,serif" font-size="14.00">0 ≤ sk₁</text>
</a>
</g>
</g>
<!-- c_0_158&#45;&gt;c_0_166 -->
<g id="edge6" class="edge">
<title>c_0_158&#45;&gt;c_0_166</title>
<path fill="none" stroke="black" stroke-dasharray="5,2" d="M188,-68.33C188,-68.33 188,-41.7 188,-41.7"/>
<polygon fill="black" stroke="black" points="191.5,-41.7 188,-31.7 184.5,-41.7 191.5,-41.7"/>
</g>
</g>
</svg>
