<?xml version="1.0" encoding="UTF-8" standalone="no"?>
<!DOCTYPE svg PUBLIC "-//W3C//DTD SVG 1.1//EN"
 "http://www.w3.org/Graphics/SVG/1.1/DTD/svg11.dtd">
<!-- Generated by graphviz version 5.0.0 (0)
 -->
<!-- Title: proof Pages: 1 -->
<svg width="466pt" height="108pt"
 viewBox="0.00 0.00 466.00 108.00" xmlns="http://www.w3.org/2000/svg" xmlns:xlink="http://www.w3.org/1999/xlink">
<g id="graph0" class="graph" transform="scale(1 1) rotate(0) translate(4 104)">
<title>proof</title>
<g id="clust1" class="cluster">
<title>cluster_0</title>
<polygon fill="transparent" stroke="black" stroke-dasharray="1,5" points="8,-60 8,-92 450,-92 450,-60 8,-60"/>
</g>
<g id="clust2" class="cluster">
<title>cluster_1</title>
<polygon fill="transparent" stroke="black" stroke-width="2" points="251,-8 251,-40 281,-40 281,-8 251,-8"/>
</g>
<!-- c_0_100 -->
<g id="node1" class="node">
<title>c_0_100</title>
<g id="a_node1"><a xlink:href="c_0_100.html" xlink:title="{sk₁ ∈ ℝ}" target="_vizar">
<polygon fill="#fa6900" stroke="#7f7542" points="388.5,-68.5 388.5,-83.5 441.5,-83.5 441.5,-68.5 388.5,-68.5"/>
<text text-anchor="middle" x="415" y="-72.3" font-family="Times,serif" font-size="14.00">sk₁ ∈ ℝ</text>
</a>
</g>
</g>
<!-- c_0_206 -->
<g id="node6" class="node">
<title>c_0_206</title>
<g id="a_node6"><a xlink:href="c_0_206.html" xlink:title="⊥" target="_vizar">
<polygon fill="#fa6900" stroke="#7f7542" points="259,-16.5 259,-31.5 273,-31.5 273,-16.5 259,-16.5"/>
<text text-anchor="middle" x="266" y="-20.3" font-family="Times,serif" font-size="14.00">⊥</text>
</a>
</g>
</g>
<!-- c_0_100&#45;&gt;c_0_206 -->
<g id="edge1" class="edge">
<title>c_0_100&#45;&gt;c_0_206</title>
<path fill="none" stroke="black" d="M415,-68.35C415,-53.24 415,-21 415,-21 415,-21 283.19,-21 283.19,-21"/>
<polygon fill="black" stroke="black" points="283.19,-17.5 273.19,-21 283.19,-24.5 283.19,-17.5"/>
</g>
<!-- c_0_77 -->
<g id="node2" class="node">
<title>c_0_77</title>
<g id="a_node2"><a xlink:href="c_0_77.html" xlink:title="{R₁ ∈ ℂ}" target="_vizar">
<polygon fill="#f8edd1" stroke="#7f7542" points="323.5,-68.5 323.5,-83.5 370.5,-83.5 370.5,-68.5 323.5,-68.5"/>
<text text-anchor="middle" x="347" y="-72.3" font-family="Times,serif" font-size="14.00">R₁ ∈ ℂ</text>
</a>
</g>
</g>
<!-- c_0_77&#45;&gt;c_0_206 -->
<g id="edge2" class="edge">
<title>c_0_77&#45;&gt;c_0_206</title>
<path fill="none" stroke="black" d="M347,-68.19C347,-54.12 347,-26 347,-26 347,-26 283.19,-26 283.19,-26"/>
<polygon fill="black" stroke="black" points="283.19,-22.5 273.19,-26 283.19,-29.5 283.19,-22.5"/>
</g>
<!-- c_0_114 -->
<g id="node3" class="node">
<title>c_0_114</title>
<g id="a_node3"><a xlink:href="c_0_114.html" xlink:title="{¬ (sk₁ ≤ 1)}" target="_vizar">
<polygon fill="#fa6900" stroke="#7f7542" points="226.5,-68.5 226.5,-83.5 305.5,-83.5 305.5,-68.5 226.5,-68.5"/>
<text text-anchor="middle" x="266" y="-72.3" font-family="Times,serif" font-size="14.00">¬ (sk₁ ≤ 1)</text>
</a>
</g>
</g>
<!-- c_0_114&#45;&gt;c_0_206 -->
<g id="edge3" class="edge">
<title>c_0_114&#45;&gt;c_0_206</title>
<path fill="none" stroke="black" d="M266,-68.33C266,-68.33 266,-41.7 266,-41.7"/>
<polygon fill="black" stroke="black" points="269.5,-41.7 266,-31.7 262.5,-41.7 269.5,-41.7"/>
</g>
<!-- c_0_203 -->
<g id="node4" class="node">
<title>c_0_203</title>
<g id="a_node4"><a xlink:href="c_0_203.html" xlink:title="{sk₁ \|^ 1 ≤ 1}" target="_vizar">
<polygon fill="#fa6900" stroke="#7f7542" points="122,-68.5 122,-83.5 208,-83.5 208,-68.5 122,-68.5"/>
<text text-anchor="middle" x="165" y="-72.3" font-family="Times,serif" font-size="14.00">sk₁ |^ 1 ≤ 1</text>
</a>
</g>
</g>
<!-- c_0_203&#45;&gt;c_0_206 -->
<g id="edge4" class="edge">
<title>c_0_203&#45;&gt;c_0_206</title>
<path fill="none" stroke="black" d="M165,-68.19C165,-54.12 165,-26 165,-26 165,-26 248.74,-26 248.74,-26"/>
<polygon fill="black" stroke="black" points="248.74,-29.5 258.74,-26 248.74,-22.5 248.74,-29.5"/>
</g>
<!-- c_0_202 -->
<g id="node5" class="node">
<title>c_0_202</title>
<g id="a_node5"><a xlink:href="c_0_202.html" xlink:title="{C₁ \|^ 1 = C₁}" target="_vizar">
<polygon fill="#f8edd1" stroke="#7f7542" points="16,-68.5 16,-83.5 104,-83.5 104,-68.5 16,-68.5"/>
<text text-anchor="middle" x="60" y="-72.3" font-family="Times,serif" font-size="14.00">C₁ |^ 1 = C₁</text>
</a>
</g>
</g>
<!-- c_0_202&#45;&gt;c_0_206 -->
<g id="edge5" class="edge">
<title>c_0_202&#45;&gt;c_0_206</title>
<path fill="none" stroke="black" d="M60,-68.35C60,-53.24 60,-21 60,-21 60,-21 248.67,-21 248.67,-21"/>
<polygon fill="black" stroke="black" points="248.67,-24.5 258.67,-21 248.67,-17.5 248.67,-24.5"/>
</g>
</g>
</svg>
