<?xml version="1.0" encoding="UTF-8" standalone="no"?>
<!DOCTYPE svg PUBLIC "-//W3C//DTD SVG 1.1//EN"
 "http://www.w3.org/Graphics/SVG/1.1/DTD/svg11.dtd">
<!-- Generated by graphviz version 5.0.0 (0)
 -->
<!-- Title: proof Pages: 1 -->
<svg width="218pt" height="160pt"
 viewBox="0.00 0.00 218.00 160.00" xmlns="http://www.w3.org/2000/svg" xmlns:xlink="http://www.w3.org/1999/xlink">
<g id="graph0" class="graph" transform="scale(1 1) rotate(0) translate(4 156)">
<title>proof</title>
<g id="clust1" class="cluster">
<title>cluster_0</title>
<polygon fill="transparent" stroke="black" stroke-dasharray="1,5" points="8,-112 8,-144 202,-144 202,-112 8,-112"/>
</g>
<g id="clust2" class="cluster">
<title>cluster_1</title>
<polygon fill="transparent" stroke="black" stroke-width="2" points="76,-60 76,-92 134,-92 134,-60 76,-60"/>
</g>
<g id="clust3" class="cluster">
<title>cluster_2</title>
<polygon fill="transparent" stroke="black" stroke-dasharray="1,5" points="76,-8 76,-40 134,-40 134,-8 76,-8"/>
</g>
<!-- redefinition_k6_numbers -->
<g id="node1" class="node">
<title>redefinition_k6_numbers</title>
<g id="a_node1"><a xlink:href="redefinition_k6_numbers.html" xlink:title="redefinition_k6_numbers" target="_parent">
<polygon fill="#69d2e7" stroke="#7f7542" points="16.5,-120.5 16.5,-135.5 193.5,-135.5 193.5,-120.5 16.5,-120.5"/>
<text text-anchor="middle" x="105" y="-124.3" font-family="Times,serif" font-size="14.00">redefinition_k6_numbers</text>
</a>
</g>
</g>
<!-- c_0_38 -->
<g id="node2" class="node">
<title>c_0_38</title>
<g id="a_node2"><a xlink:href="c_0_38.html" xlink:title="{0 = Ø}" target="_parent">
<polygon fill="#f8edd1" stroke="#7f7542" points="84,-68.5 84,-83.5 126,-83.5 126,-68.5 84,-68.5"/>
<text text-anchor="middle" x="105" y="-72.3" font-family="Times,serif" font-size="14.00">0 = Ø</text>
</a>
</g>
</g>
<!-- redefinition_k6_numbers&#45;&gt;c_0_38 -->
<g id="edge1" class="edge">
<title>redefinition_k6_numbers&#45;&gt;c_0_38</title>
<path fill="none" stroke="black" d="M105,-120.33C105,-120.33 105,-93.7 105,-93.7"/>
<polygon fill="black" stroke="black" points="108.5,-93.7 105,-83.7 101.5,-93.7 108.5,-93.7"/>
</g>
<!-- c_0_47 -->
<g id="node3" class="node">
<title>c_0_47</title>
<g id="a_node3"><a xlink:href="c_0_47.html" xlink:title="{Ø = 0}" target="_parent">
<polygon fill="#f8edd1" stroke="#7f7542" points="84,-16.5 84,-31.5 126,-31.5 126,-16.5 84,-16.5"/>
<text text-anchor="middle" x="105" y="-20.3" font-family="Times,serif" font-size="14.00">Ø = 0</text>
</a>
</g>
</g>
<!-- c_0_38&#45;&gt;c_0_47 -->
<g id="edge2" class="edge">
<title>c_0_38&#45;&gt;c_0_47</title>
<path fill="none" stroke="black" stroke-dasharray="5,2" d="M105,-68.33C105,-68.33 105,-41.7 105,-41.7"/>
<polygon fill="black" stroke="black" points="108.5,-41.7 105,-31.7 101.5,-41.7 108.5,-41.7"/>
</g>
</g>
</svg>
