<?xml version="1.0" encoding="UTF-8" standalone="no"?>
<!DOCTYPE svg PUBLIC "-//W3C//DTD SVG 1.1//EN"
 "http://www.w3.org/Graphics/SVG/1.1/DTD/svg11.dtd">
<!-- Generated by graphviz version 5.0.0 (0)
 -->
<!-- Title: proof Pages: 1 -->
<svg width="274pt" height="325pt"
 viewBox="0.00 0.00 274.00 325.00" xmlns="http://www.w3.org/2000/svg" xmlns:xlink="http://www.w3.org/1999/xlink">
<g id="graph0" class="graph" transform="scale(1 1) rotate(0) translate(4 321)">
<title>proof</title>
<g id="clust1" class="cluster">
<title>cluster_0</title>
<polygon fill="transparent" stroke="black" stroke-dasharray="1,5" points="8,-217 8,-309 228,-309 228,-217 8,-217"/>
</g>
<g id="clust2" class="cluster">
<title>cluster_1</title>
<polygon fill="transparent" stroke="black" stroke-width="2" points="90,-120 90,-197 194,-197 194,-120 90,-120"/>
</g>
<g id="clust3" class="cluster">
<title>cluster_2</title>
<polygon fill="transparent" stroke="black" stroke-dasharray="1,5" points="19,-8 19,-100 258,-100 258,-8 19,-8"/>
</g>
<!-- c_0_66 -->
<g id="node1" class="node">
<title>c_0_66</title>
<g id="a_node1"><a xlink:href="c_0_66.html" xlink:title="{0 = 0}" target="_parent">
<polygon fill="#f8edd1" stroke="#7f7542" points="180,-255.5 180,-270.5 220,-270.5 220,-255.5 180,-255.5"/>
<text text-anchor="middle" x="200" y="-259.3" font-family="Times,serif" font-size="14.00">0 = 0</text>
</a>
</g>
</g>
<!-- c_0_160 -->
<g id="node4" class="node">
<title>c_0_160</title>
<g id="a_node4"><a xlink:href="c_0_160.html" xlink:title="{R₂ \|^ C₁ ≤ 1|⇊|C₁ ≤ 0|sk₆(R₂) ∈ ℕ}" target="_parent">
<polygon fill="#f8edd1" stroke="#7f7542" points="98,-128.5 98,-188.5 186,-188.5 186,-128.5 98,-128.5"/>
<text text-anchor="middle" x="142" y="-177.3" font-family="Times,serif" font-size="14.00">R₂ |^ C₁ ≤ 1</text>
<polyline fill="none" stroke="#7f7542" points="98,-173.5 186,-173.5 "/>
<text text-anchor="middle" x="142" y="-162.3" font-family="Times,serif" font-size="14.00">⇊</text>
<polyline fill="none" stroke="#7f7542" points="98,-158.5 186,-158.5 "/>
<text text-anchor="middle" x="142" y="-147.3" font-family="Times,serif" font-size="14.00">C₁ ≤ 0</text>
<polyline fill="none" stroke="#7f7542" points="98,-143.5 186,-143.5 "/>
<text text-anchor="middle" x="142" y="-132.3" font-family="Times,serif" font-size="14.00">sk₆(R₂) ∈ ℕ</text>
</a>
</g>
</g>
<!-- c_0_66&#45;&gt;c_0_160 -->
<g id="edge1" class="edge">
<title>c_0_66&#45;&gt;c_0_160</title>
<path fill="none" stroke="black" d="M179.86,-263C174.91,-263 171,-263 171,-263 171,-263 171,-198.73 171,-198.73"/>
<polygon fill="black" stroke="black" points="174.5,-198.73 171,-188.73 167.5,-198.73 174.5,-198.73"/>
</g>
<!-- c_0_106 -->
<g id="node2" class="node">
<title>c_0_106</title>
<g id="a_node2"><a xlink:href="c_0_106.html" xlink:title="{0 ≤ 0}" target="_parent">
<polygon fill="#f8edd1" stroke="#7f7542" points="122,-255.5 122,-270.5 162,-270.5 162,-255.5 122,-255.5"/>
<text text-anchor="middle" x="142" y="-259.3" font-family="Times,serif" font-size="14.00">0 ≤ 0</text>
</a>
</g>
</g>
<!-- c_0_106&#45;&gt;c_0_160 -->
<g id="edge2" class="edge">
<title>c_0_106&#45;&gt;c_0_160</title>
<path fill="none" stroke="black" d="M142,-255.48C142,-255.48 142,-198.79 142,-198.79"/>
<polygon fill="black" stroke="black" points="145.5,-198.79 142,-188.79 138.5,-198.79 145.5,-198.79"/>
</g>
<!-- c_0_135 -->
<g id="node3" class="node">
<title>c_0_135</title>
<g id="a_node3"><a xlink:href="c_0_135.html" xlink:title="{0 ≤ 0|R₁ \|^ C₂ ≤ 1|⇊|C₂ ≤ 0|sk₆(R₁) ∈ ℕ}" target="_parent">
<polygon fill="#f8edd1" stroke="#7f7542" points="16,-225.5 16,-300.5 104,-300.5 104,-225.5 16,-225.5"/>
<text text-anchor="middle" x="60" y="-289.3" font-family="Times,serif" font-size="14.00">0 ≤ 0</text>
<polyline fill="none" stroke="#7f7542" points="16,-285.5 104,-285.5 "/>
<text text-anchor="middle" x="60" y="-274.3" font-family="Times,serif" font-size="14.00">R₁ |^ C₂ ≤ 1</text>
<polyline fill="none" stroke="#7f7542" points="16,-270.5 104,-270.5 "/>
<text text-anchor="middle" x="60" y="-259.3" font-family="Times,serif" font-size="14.00">⇊</text>
<polyline fill="none" stroke="#7f7542" points="16,-255.5 104,-255.5 "/>
<text text-anchor="middle" x="60" y="-244.3" font-family="Times,serif" font-size="14.00">C₂ ≤ 0</text>
<polyline fill="none" stroke="#7f7542" points="16,-240.5 104,-240.5 "/>
<text text-anchor="middle" x="60" y="-229.3" font-family="Times,serif" font-size="14.00">sk₆(R₁) ∈ ℕ</text>
</a>
</g>
</g>
<!-- c_0_135&#45;&gt;c_0_160 -->
<g id="edge3" class="edge">
<title>c_0_135&#45;&gt;c_0_160</title>
<path fill="none" stroke="black" d="M104.25,-240C109.48,-240 113,-240 113,-240 113,-240 113,-198.85 113,-198.85"/>
<polygon fill="black" stroke="black" points="116.5,-198.85 113,-188.85 109.5,-198.85 116.5,-198.85"/>
</g>
<!-- c_0_171 -->
<g id="node5" class="node">
<title>c_0_171</title>
<g id="a_node5"><a xlink:href="c_0_171.html" xlink:title="{R₁ \|^ C₂ ≤ 1|⇊|1 ≤ R₁ \|^ sk₆(R₁)|C₂ ≤ 0|sk₆(R₁) ≤ 0}" target="_parent">
<polygon fill="#f8edd1" stroke="#7f7542" points="130.5,-16.5 130.5,-91.5 249.5,-91.5 249.5,-16.5 130.5,-16.5"/>
<text text-anchor="middle" x="190" y="-80.3" font-family="Times,serif" font-size="14.00">R₁ |^ C₂ ≤ 1</text>
<polyline fill="none" stroke="#7f7542" points="130.5,-76.5 249.5,-76.5 "/>
<text text-anchor="middle" x="190" y="-65.3" font-family="Times,serif" font-size="14.00">⇊</text>
<polyline fill="none" stroke="#7f7542" points="130.5,-61.5 249.5,-61.5 "/>
<text text-anchor="middle" x="190" y="-50.3" font-family="Times,serif" font-size="14.00">1 ≤ R₁ |^ sk₆(R₁)</text>
<polyline fill="none" stroke="#7f7542" points="130.5,-46.5 249.5,-46.5 "/>
<text text-anchor="middle" x="190" y="-35.3" font-family="Times,serif" font-size="14.00">C₂ ≤ 0</text>
<polyline fill="none" stroke="#7f7542" points="130.5,-31.5 249.5,-31.5 "/>
<text text-anchor="middle" x="190" y="-20.3" font-family="Times,serif" font-size="14.00">sk₆(R₁) ≤ 0</text>
</a>
</g>
</g>
<!-- c_0_160&#45;&gt;c_0_171 -->
<g id="edge4" class="edge">
<title>c_0_160&#45;&gt;c_0_171</title>
<path fill="none" stroke="black" stroke-dasharray="5,2" d="M158.25,-128.27C158.25,-128.27 158.25,-101.59 158.25,-101.59"/>
<polygon fill="black" stroke="black" points="161.75,-101.59 158.25,-91.59 154.75,-101.59 161.75,-101.59"/>
</g>
<!-- c_0_167 -->
<g id="node6" class="node">
<title>c_0_167</title>
<g id="a_node6"><a xlink:href="c_0_167.html" xlink:title="{sk₆(sk₁) ∈ ℕ}" target="_parent">
<polygon fill="#fa6900" stroke="#7f7542" points="27.5,-46.5 27.5,-61.5 112.5,-61.5 112.5,-46.5 27.5,-46.5"/>
<text text-anchor="middle" x="70" y="-50.3" font-family="Times,serif" font-size="14.00">sk₆(sk₁) ∈ ℕ</text>
</a>
</g>
</g>
<!-- c_0_160&#45;&gt;c_0_167 -->
<g id="edge5" class="edge">
<title>c_0_160&#45;&gt;c_0_167</title>
<path fill="none" stroke="black" stroke-dasharray="5,2" d="M105.25,-128.27C105.25,-128.27 105.25,-71.7 105.25,-71.7"/>
<polygon fill="black" stroke="black" points="108.75,-71.7 105.25,-61.7 101.75,-71.7 108.75,-71.7"/>
</g>
</g>
</svg>
