<?xml version="1.0" encoding="UTF-8" standalone="no"?>
<!DOCTYPE svg PUBLIC "-//W3C//DTD SVG 1.1//EN"
 "http://www.w3.org/Graphics/SVG/1.1/DTD/svg11.dtd">
<!-- Generated by graphviz version 5.0.0 (0)
 -->
<!-- Title: proof Pages: 1 -->
<svg width="166pt" height="235pt"
 viewBox="0.00 0.00 166.00 235.00" xmlns="http://www.w3.org/2000/svg" xmlns:xlink="http://www.w3.org/1999/xlink">
<g id="graph0" class="graph" transform="scale(1 1) rotate(0) translate(4 231)">
<title>proof</title>
<g id="clust1" class="cluster">
<title>cluster_0</title>
<polygon fill="transparent" stroke="black" stroke-dasharray="1,5" points="46,-187 46,-219 112,-219 112,-187 46,-187"/>
</g>
<g id="clust2" class="cluster">
<title>cluster_1</title>
<polygon fill="transparent" stroke="black" stroke-width="2" points="27,-75 27,-167 131,-167 131,-75 27,-75"/>
</g>
<g id="clust3" class="cluster">
<title>cluster_2</title>
<polygon fill="transparent" stroke="black" stroke-dasharray="1,5" points="8,-8 8,-55 150,-55 150,-8 8,-8"/>
</g>
<!-- t6_real -->
<g id="node1" class="node">
<title>t6_real</title>
<g id="a_node1"><a xlink:href="t6_real.html" xlink:title="t6_real" target="_vizar">
<polygon fill="#69d2e7" stroke="#7f7542" points="54,-195.5 54,-210.5 104,-210.5 104,-195.5 54,-195.5"/>
<text text-anchor="middle" x="79" y="-199.3" font-family="Times,serif" font-size="14.00">t6_real</text>
</a>
</g>
</g>
<!-- c_0_176 -->
<g id="node2" class="node">
<title>c_0_176</title>
<g id="a_node2"><a xlink:href="c_0_176.html" xlink:title="{R₁ ≤ R₂|⇊|R₁ = Ø|negative(R₁)|positive(R₂)}" target="_vizar">
<polygon fill="#f8edd1" stroke="#7f7542" points="35,-83.5 35,-158.5 123,-158.5 123,-83.5 35,-83.5"/>
<text text-anchor="middle" x="79" y="-147.3" font-family="Times,serif" font-size="14.00">R₁ ≤ R₂</text>
<polyline fill="none" stroke="#7f7542" points="35,-143.5 123,-143.5 "/>
<text text-anchor="middle" x="79" y="-132.3" font-family="Times,serif" font-size="14.00">⇊</text>
<polyline fill="none" stroke="#7f7542" points="35,-128.5 123,-128.5 "/>
<text text-anchor="middle" x="79" y="-117.3" font-family="Times,serif" font-size="14.00">R₁ = Ø</text>
<polyline fill="none" stroke="#7f7542" points="35,-113.5 123,-113.5 "/>
<text text-anchor="middle" x="79" y="-102.3" font-family="Times,serif" font-size="14.00">negative(R₁)</text>
<polyline fill="none" stroke="#7f7542" points="35,-98.5 123,-98.5 "/>
<text text-anchor="middle" x="79" y="-87.3" font-family="Times,serif" font-size="14.00">positive(R₂)</text>
</a>
</g>
</g>
<!-- t6_real&#45;&gt;c_0_176 -->
<g id="edge1" class="edge">
<title>t6_real&#45;&gt;c_0_176</title>
<path fill="none" stroke="black" d="M79,-195.43C79,-195.43 79,-168.67 79,-168.67"/>
<polygon fill="black" stroke="black" points="82.5,-168.67 79,-158.67 75.5,-168.67 82.5,-168.67"/>
</g>
<!-- c_0_185 -->
<g id="node3" class="node">
<title>c_0_185</title>
<g id="a_node3"><a xlink:href="c_0_185.html" xlink:title="{negative(sk₆(sk₁))|sk₆(sk₁) = Ø}" target="_vizar">
<polygon fill="#fa6900" stroke="#7f7542" points="16.5,-16.5 16.5,-46.5 141.5,-46.5 141.5,-16.5 16.5,-16.5"/>
<text text-anchor="middle" x="79" y="-35.3" font-family="Times,serif" font-size="14.00">negative(sk₆(sk₁))</text>
<polyline fill="none" stroke="#7f7542" points="16.5,-31.5 141.5,-31.5 "/>
<text text-anchor="middle" x="79" y="-20.3" font-family="Times,serif" font-size="14.00">sk₆(sk₁) = Ø</text>
</a>
</g>
</g>
<!-- c_0_176&#45;&gt;c_0_185 -->
<g id="edge2" class="edge">
<title>c_0_176&#45;&gt;c_0_185</title>
<path fill="none" stroke="black" stroke-dasharray="5,2" d="M79,-83.3C79,-83.3 79,-56.86 79,-56.86"/>
<polygon fill="black" stroke="black" points="82.5,-56.86 79,-46.86 75.5,-56.86 82.5,-56.86"/>
</g>
</g>
</svg>
