<?xml version="1.0" encoding="UTF-8" standalone="no"?>
<!DOCTYPE svg PUBLIC "-//W3C//DTD SVG 1.1//EN"
 "http://www.w3.org/Graphics/SVG/1.1/DTD/svg11.dtd">
<!-- Generated by graphviz version 5.0.0 (0)
 -->
<!-- Title: proof Pages: 1 -->
<svg width="465pt" height="205pt"
 viewBox="0.00 0.00 465.00 205.00" xmlns="http://www.w3.org/2000/svg" xmlns:xlink="http://www.w3.org/1999/xlink">
<g id="graph0" class="graph" transform="scale(1 1) rotate(0) translate(4 201)">
<title>proof</title>
<g id="clust1" class="cluster">
<title>cluster_0</title>
<polygon fill="transparent" stroke="black" stroke-dasharray="1,5" points="198,-157 198,-189 296,-189 296,-157 198,-157"/>
</g>
<g id="clust2" class="cluster">
<title>cluster_1</title>
<polygon fill="transparent" stroke="black" stroke-width="2" points="193,-105 193,-137 301,-137 301,-105 193,-105"/>
</g>
<g id="clust3" class="cluster">
<title>cluster_2</title>
<polygon fill="transparent" stroke="black" stroke-dasharray="1,5" points="8,-8 8,-85 449,-85 449,-8 8,-8"/>
</g>
<!-- fc2_newton -->
<g id="node1" class="node">
<title>fc2_newton</title>
<g id="a_node1"><a xlink:href="fc2_newton.html" xlink:title="fc2_newton" target="_vizar">
<polygon fill="#69d2e7" stroke="#7f7542" points="206,-165.5 206,-180.5 288,-180.5 288,-165.5 206,-165.5"/>
<text text-anchor="middle" x="247" y="-169.3" font-family="Times,serif" font-size="14.00">fc2_newton</text>
</a>
</g>
</g>
<!-- c_0_110 -->
<g id="node2" class="node">
<title>c_0_110</title>
<g id="a_node2"><a xlink:href="c_0_110.html" xlink:title="{R₁ \|^ N₂ ∈ ℝ}" target="_vizar">
<polygon fill="#f8edd1" stroke="#7f7542" points="201.5,-113.5 201.5,-128.5 292.5,-128.5 292.5,-113.5 201.5,-113.5"/>
<text text-anchor="middle" x="247" y="-117.3" font-family="Times,serif" font-size="14.00">R₁ |^ N₂ ∈ ℝ</text>
</a>
</g>
</g>
<!-- fc2_newton&#45;&gt;c_0_110 -->
<g id="edge1" class="edge">
<title>fc2_newton&#45;&gt;c_0_110</title>
<path fill="none" stroke="black" d="M247,-165.33C247,-165.33 247,-138.7 247,-138.7"/>
<polygon fill="black" stroke="black" points="250.5,-138.7 247,-128.7 243.5,-138.7 250.5,-138.7"/>
</g>
<!-- c_0_173 -->
<g id="node3" class="node">
<title>c_0_173</title>
<g id="a_node3"><a xlink:href="c_0_173.html" xlink:title="{R₁ \|^ (N₂ + 1) ∈ ℝ}" target="_vizar">
<polygon fill="#f8edd1" stroke="#7f7542" points="309.5,-39 309.5,-54 440.5,-54 440.5,-39 309.5,-39"/>
<text text-anchor="middle" x="375" y="-42.8" font-family="Times,serif" font-size="14.00">R₁ |^ (N₂ + 1) ∈ ℝ</text>
</a>
</g>
</g>
<!-- c_0_110&#45;&gt;c_0_173 -->
<g id="edge2" class="edge">
<title>c_0_110&#45;&gt;c_0_173</title>
<path fill="none" stroke="black" stroke-dasharray="5,2" d="M292.85,-121C329.58,-121 375,-121 375,-121 375,-121 375,-64.19 375,-64.19"/>
<polygon fill="black" stroke="black" points="378.5,-64.19 375,-54.19 371.5,-64.19 378.5,-64.19"/>
</g>
<!-- c_0_163 -->
<g id="node4" class="node">
<title>c_0_163</title>
<g id="a_node4"><a xlink:href="c_0_163.html" xlink:title="{1 ≤ R₁ \|^ N₂|R₁ \|^ N₂ ≤ 1}" target="_vizar">
<polygon fill="#f8edd1" stroke="#7f7542" points="202.5,-31.5 202.5,-61.5 291.5,-61.5 291.5,-31.5 202.5,-31.5"/>
<text text-anchor="middle" x="247" y="-50.3" font-family="Times,serif" font-size="14.00">1 ≤ R₁ |^ N₂</text>
<polyline fill="none" stroke="#7f7542" points="202.5,-46.5 291.5,-46.5 "/>
<text text-anchor="middle" x="247" y="-35.3" font-family="Times,serif" font-size="14.00">R₁ |^ N₂ ≤ 1</text>
</a>
</g>
</g>
<!-- c_0_110&#45;&gt;c_0_163 -->
<g id="edge3" class="edge">
<title>c_0_110&#45;&gt;c_0_163</title>
<path fill="none" stroke="black" stroke-dasharray="5,2" d="M261.83,-113.31C261.83,-113.31 261.83,-71.75 261.83,-71.75"/>
<polygon fill="black" stroke="black" points="265.33,-71.75 261.83,-61.75 258.33,-71.75 265.33,-71.75"/>
</g>
<!-- c_0_143 -->
<g id="node5" class="node">
<title>c_0_143</title>
<g id="a_node5"><a xlink:href="c_0_143.html" xlink:title="{0 ≤ R₁|R₂ ≤ R₁ \|^ N₃|⇊|R₁ * R₂ ≤ R₁ \|^ (N₃ + 1)}" target="_vizar">
<polygon fill="#f8edd1" stroke="#7f7542" points="16,-16.5 16,-76.5 184,-76.5 184,-16.5 16,-16.5"/>
<text text-anchor="middle" x="100" y="-65.3" font-family="Times,serif" font-size="14.00">0 ≤ R₁</text>
<polyline fill="none" stroke="#7f7542" points="16,-61.5 184,-61.5 "/>
<text text-anchor="middle" x="100" y="-50.3" font-family="Times,serif" font-size="14.00">R₂ ≤ R₁ |^ N₃</text>
<polyline fill="none" stroke="#7f7542" points="16,-46.5 184,-46.5 "/>
<text text-anchor="middle" x="100" y="-35.3" font-family="Times,serif" font-size="14.00">⇊</text>
<polyline fill="none" stroke="#7f7542" points="16,-31.5 184,-31.5 "/>
<text text-anchor="middle" x="100" y="-20.3" font-family="Times,serif" font-size="14.00">R₁ * R₂ ≤ R₁ |^ (N₃ + 1)</text>
</a>
</g>
</g>
<!-- c_0_110&#45;&gt;c_0_143 -->
<g id="edge4" class="edge">
<title>c_0_110&#45;&gt;c_0_143</title>
<path fill="none" stroke="black" stroke-dasharray="5,2" d="M232.17,-113.33C232.17,-98.86 232.17,-69 232.17,-69 232.17,-69 194.08,-69 194.08,-69"/>
<polygon fill="black" stroke="black" points="194.08,-65.5 184.08,-69 194.08,-72.5 194.08,-65.5"/>
</g>
</g>
</svg>
