<?xml version="1.0" encoding="UTF-8" standalone="no"?>
<!DOCTYPE svg PUBLIC "-//W3C//DTD SVG 1.1//EN"
 "http://www.w3.org/Graphics/SVG/1.1/DTD/svg11.dtd">
<!-- Generated by graphviz version 5.0.0 (0)
 -->
<!-- Title: proof Pages: 1 -->
<svg width="222pt" height="265pt"
 viewBox="0.00 0.00 222.00 265.00" xmlns="http://www.w3.org/2000/svg" xmlns:xlink="http://www.w3.org/1999/xlink">
<g id="graph0" class="graph" transform="scale(1 1) rotate(0) translate(4 261)">
<title>proof</title>
<g id="clust1" class="cluster">
<title>cluster_0</title>
<polygon fill="transparent" stroke="black" stroke-dasharray="1,5" points="8,-217 8,-249 206,-249 206,-217 8,-217"/>
</g>
<g id="clust2" class="cluster">
<title>cluster_1</title>
<polygon fill="transparent" stroke="black" stroke-width="2" points="55,-105 55,-197 159,-197 159,-105 55,-105"/>
</g>
<g id="clust3" class="cluster">
<title>cluster_2</title>
<polygon fill="transparent" stroke="black" stroke-dasharray="1,5" points="55,-8 55,-85 159,-85 159,-8 55,-8"/>
</g>
<!-- s2_nat_1__e5_114__pepin -->
<g id="node1" class="node">
<title>s2_nat_1__e5_114__pepin</title>
<g id="a_node1"><a xlink:href="s2_nat_1__e5_114__pepin.html" xlink:title="s2_nat_1__e5_114__pepin" target="_parent">
<polygon fill="#69d2e7" stroke="#7f7542" points="16.5,-225.5 16.5,-240.5 197.5,-240.5 197.5,-225.5 16.5,-225.5"/>
<text text-anchor="middle" x="107" y="-229.3" font-family="Times,serif" font-size="14.00">s2_nat_1__e5_114__pepin</text>
</a>
</g>
</g>
<!-- c_0_135 -->
<g id="node2" class="node">
<title>c_0_135</title>
<g id="a_node2"><a xlink:href="c_0_135.html" xlink:title="{0 ≤ 0|R₁ \|^ C₂ ≤ 1|⇊|C₂ ≤ 0|sk₆(R₁) ∈ ℕ}" target="_parent">
<polygon fill="#f8edd1" stroke="#7f7542" points="63,-113.5 63,-188.5 151,-188.5 151,-113.5 63,-113.5"/>
<text text-anchor="middle" x="107" y="-177.3" font-family="Times,serif" font-size="14.00">0 ≤ 0</text>
<polyline fill="none" stroke="#7f7542" points="63,-173.5 151,-173.5 "/>
<text text-anchor="middle" x="107" y="-162.3" font-family="Times,serif" font-size="14.00">R₁ |^ C₂ ≤ 1</text>
<polyline fill="none" stroke="#7f7542" points="63,-158.5 151,-158.5 "/>
<text text-anchor="middle" x="107" y="-147.3" font-family="Times,serif" font-size="14.00">⇊</text>
<polyline fill="none" stroke="#7f7542" points="63,-143.5 151,-143.5 "/>
<text text-anchor="middle" x="107" y="-132.3" font-family="Times,serif" font-size="14.00">C₂ ≤ 0</text>
<polyline fill="none" stroke="#7f7542" points="63,-128.5 151,-128.5 "/>
<text text-anchor="middle" x="107" y="-117.3" font-family="Times,serif" font-size="14.00">sk₆(R₁) ∈ ℕ</text>
</a>
</g>
</g>
<!-- s2_nat_1__e5_114__pepin&#45;&gt;c_0_135 -->
<g id="edge1" class="edge">
<title>s2_nat_1__e5_114__pepin&#45;&gt;c_0_135</title>
<path fill="none" stroke="black" d="M107,-225.43C107,-225.43 107,-198.67 107,-198.67"/>
<polygon fill="black" stroke="black" points="110.5,-198.67 107,-188.67 103.5,-198.67 110.5,-198.67"/>
</g>
<!-- c_0_160 -->
<g id="node3" class="node">
<title>c_0_160</title>
<g id="a_node3"><a xlink:href="c_0_160.html" xlink:title="{R₂ \|^ C₁ ≤ 1|⇊|C₁ ≤ 0|sk₆(R₂) ∈ ℕ}" target="_parent">
<polygon fill="#f8edd1" stroke="#7f7542" points="63,-16.5 63,-76.5 151,-76.5 151,-16.5 63,-16.5"/>
<text text-anchor="middle" x="107" y="-65.3" font-family="Times,serif" font-size="14.00">R₂ |^ C₁ ≤ 1</text>
<polyline fill="none" stroke="#7f7542" points="63,-61.5 151,-61.5 "/>
<text text-anchor="middle" x="107" y="-50.3" font-family="Times,serif" font-size="14.00">⇊</text>
<polyline fill="none" stroke="#7f7542" points="63,-46.5 151,-46.5 "/>
<text text-anchor="middle" x="107" y="-35.3" font-family="Times,serif" font-size="14.00">C₁ ≤ 0</text>
<polyline fill="none" stroke="#7f7542" points="63,-31.5 151,-31.5 "/>
<text text-anchor="middle" x="107" y="-20.3" font-family="Times,serif" font-size="14.00">sk₆(R₂) ∈ ℕ</text>
</a>
</g>
</g>
<!-- c_0_135&#45;&gt;c_0_160 -->
<g id="edge2" class="edge">
<title>c_0_135&#45;&gt;c_0_160</title>
<path fill="none" stroke="black" stroke-dasharray="5,2" d="M107,-113.27C107,-113.27 107,-86.64 107,-86.64"/>
<polygon fill="black" stroke="black" points="110.5,-86.64 107,-76.64 103.5,-86.64 110.5,-86.64"/>
</g>
</g>
</svg>
