<?xml version="1.0" encoding="UTF-8" standalone="no"?>
<!DOCTYPE svg PUBLIC "-//W3C//DTD SVG 1.1//EN"
 "http://www.w3.org/Graphics/SVG/1.1/DTD/svg11.dtd">
<!-- Generated by graphviz version 5.0.0 (0)
 -->
<!-- Title: proof Pages: 1 -->
<svg width="185pt" height="265pt"
 viewBox="0.00 0.00 185.00 265.00" xmlns="http://www.w3.org/2000/svg" xmlns:xlink="http://www.w3.org/1999/xlink">
<g id="graph0" class="graph" transform="scale(1 1) rotate(0) translate(4 261)">
<title>proof</title>
<g id="clust1" class="cluster">
<title>cluster_0</title>
<polygon fill="transparent" stroke="black" stroke-dasharray="1,5" points="8,-187 8,-249 169,-249 169,-187 8,-187"/>
</g>
<g id="clust2" class="cluster">
<title>cluster_1</title>
<polygon fill="transparent" stroke="black" stroke-width="2" points="37,-105 37,-167 131,-167 131,-105 37,-105"/>
</g>
<g id="clust3" class="cluster">
<title>cluster_2</title>
<polygon fill="transparent" stroke="black" stroke-dasharray="1,5" points="49,-8 49,-85 119,-85 119,-8 49,-8"/>
</g>
<!-- c_0_82 -->
<g id="node1" class="node">
<title>c_0_82</title>
<g id="a_node1"><a xlink:href="c_0_82.html" xlink:title="{N₁ ≤ R₂|⇊|N₁ ≤ R₂ * 1}" target="_parent">
<polygon fill="#f8edd1" stroke="#7f7542" points="81.5,-195.5 81.5,-240.5 160.5,-240.5 160.5,-195.5 81.5,-195.5"/>
<text text-anchor="middle" x="121" y="-229.3" font-family="Times,serif" font-size="14.00">N₁ ≤ R₂</text>
<polyline fill="none" stroke="#7f7542" points="81.5,-225.5 160.5,-225.5 "/>
<text text-anchor="middle" x="121" y="-214.3" font-family="Times,serif" font-size="14.00">⇊</text>
<polyline fill="none" stroke="#7f7542" points="81.5,-210.5 160.5,-210.5 "/>
<text text-anchor="middle" x="121" y="-199.3" font-family="Times,serif" font-size="14.00">N₁ ≤ R₂ * 1</text>
</a>
</g>
</g>
<!-- c_0_88 -->
<g id="node3" class="node">
<title>c_0_88</title>
<g id="a_node3"><a xlink:href="c_0_88.html" xlink:title="{R₁ ≤ R₂|⇊|R₁ ≤ R₂ * 1}" target="_parent">
<polygon fill="#f8edd1" stroke="#7f7542" points="45,-113.5 45,-158.5 123,-158.5 123,-113.5 45,-113.5"/>
<text text-anchor="middle" x="84" y="-147.3" font-family="Times,serif" font-size="14.00">R₁ ≤ R₂</text>
<polyline fill="none" stroke="#7f7542" points="45,-143.5 123,-143.5 "/>
<text text-anchor="middle" x="84" y="-132.3" font-family="Times,serif" font-size="14.00">⇊</text>
<polyline fill="none" stroke="#7f7542" points="45,-128.5 123,-128.5 "/>
<text text-anchor="middle" x="84" y="-117.3" font-family="Times,serif" font-size="14.00">R₁ ≤ R₂ * 1</text>
</a>
</g>
</g>
<!-- c_0_82&#45;&gt;c_0_88 -->
<g id="edge1" class="edge">
<title>c_0_82&#45;&gt;c_0_88</title>
<path fill="none" stroke="black" d="M102.25,-195.16C102.25,-195.16 102.25,-168.72 102.25,-168.72"/>
<polygon fill="black" stroke="black" points="105.75,-168.72 102.25,-158.72 98.75,-168.72 105.75,-168.72"/>
</g>
<!-- c_0_77 -->
<g id="node2" class="node">
<title>c_0_77</title>
<g id="a_node2"><a xlink:href="c_0_77.html" xlink:title="{R₁ ∈ ℂ}" target="_parent">
<polygon fill="#f8edd1" stroke="#7f7542" points="16.5,-210.5 16.5,-225.5 63.5,-225.5 63.5,-210.5 16.5,-210.5"/>
<text text-anchor="middle" x="40" y="-214.3" font-family="Times,serif" font-size="14.00">R₁ ∈ ℂ</text>
</a>
</g>
</g>
<!-- c_0_77&#45;&gt;c_0_88 -->
<g id="edge2" class="edge">
<title>c_0_77&#45;&gt;c_0_88</title>
<path fill="none" stroke="black" d="M54.25,-210.43C54.25,-210.43 54.25,-168.65 54.25,-168.65"/>
<polygon fill="black" stroke="black" points="57.75,-168.65 54.25,-158.65 50.75,-168.65 57.75,-168.65"/>
</g>
<!-- c_0_94 -->
<g id="node4" class="node">
<title>c_0_94</title>
<g id="a_node4"><a xlink:href="c_0_94.html" xlink:title="{R₁ ≤ R₂|R₂ ≤ 1|⇊|R₁ ≤ 1}" target="_parent">
<polygon fill="#f8edd1" stroke="#7f7542" points="57.5,-16.5 57.5,-76.5 110.5,-76.5 110.5,-16.5 57.5,-16.5"/>
<text text-anchor="middle" x="84" y="-65.3" font-family="Times,serif" font-size="14.00">R₁ ≤ R₂</text>
<polyline fill="none" stroke="#7f7542" points="57.5,-61.5 110.5,-61.5 "/>
<text text-anchor="middle" x="84" y="-50.3" font-family="Times,serif" font-size="14.00">R₂ ≤ 1</text>
<polyline fill="none" stroke="#7f7542" points="57.5,-46.5 110.5,-46.5 "/>
<text text-anchor="middle" x="84" y="-35.3" font-family="Times,serif" font-size="14.00">⇊</text>
<polyline fill="none" stroke="#7f7542" points="57.5,-31.5 110.5,-31.5 "/>
<text text-anchor="middle" x="84" y="-20.3" font-family="Times,serif" font-size="14.00">R₁ ≤ 1</text>
</a>
</g>
</g>
<!-- c_0_88&#45;&gt;c_0_94 -->
<g id="edge3" class="edge">
<title>c_0_88&#45;&gt;c_0_94</title>
<path fill="none" stroke="black" stroke-dasharray="5,2" d="M84,-113.42C84,-113.42 84,-86.52 84,-86.52"/>
<polygon fill="black" stroke="black" points="87.5,-86.52 84,-76.52 80.5,-86.52 87.5,-86.52"/>
</g>
</g>
</svg>
