<?xml version="1.0" encoding="UTF-8" standalone="no"?>
<!DOCTYPE svg PUBLIC "-//W3C//DTD SVG 1.1//EN"
 "http://www.w3.org/Graphics/SVG/1.1/DTD/svg11.dtd">
<!-- Generated by graphviz version 5.0.0 (0)
 -->
<!-- Title: proof Pages: 1 -->
<svg width="206pt" height="220pt"
 viewBox="0.00 0.00 206.00 220.00" xmlns="http://www.w3.org/2000/svg" xmlns:xlink="http://www.w3.org/1999/xlink">
<g id="graph0" class="graph" transform="scale(1 1) rotate(0) translate(4 216)">
<title>proof</title>
<g id="clust1" class="cluster">
<title>cluster_0</title>
<polygon fill="transparent" stroke="black" stroke-dasharray="1,5" points="8,-142 8,-204 190,-204 190,-142 8,-142"/>
</g>
<g id="clust2" class="cluster">
<title>cluster_1</title>
<polygon fill="transparent" stroke="black" stroke-width="2" points="66,-60 66,-122 130,-122 130,-60 66,-60"/>
</g>
<g id="clust3" class="cluster">
<title>cluster_2</title>
<polygon fill="transparent" stroke="black" stroke-dasharray="1,5" points="48,-8 48,-40 148,-40 148,-8 48,-8"/>
</g>
<!-- c_0_47 -->
<g id="node1" class="node">
<title>c_0_47</title>
<g id="a_node1"><a xlink:href="c_0_47.html" xlink:title="{Ø = 0}" target="_vizar">
<polygon fill="#f8edd1" stroke="#7f7542" points="140,-165.5 140,-180.5 182,-180.5 182,-165.5 140,-165.5"/>
<text text-anchor="middle" x="161" y="-169.3" font-family="Times,serif" font-size="14.00">Ø = 0</text>
</a>
</g>
</g>
<!-- c_0_57 -->
<g id="node4" class="node">
<title>c_0_57</title>
<g id="a_node4"><a xlink:href="c_0_57.html" xlink:title="{X₁ = Ø|⇊|X₁ = 0}" target="_vizar">
<polygon fill="#f8edd1" stroke="#7f7542" points="74,-68.5 74,-113.5 122,-113.5 122,-68.5 74,-68.5"/>
<text text-anchor="middle" x="98" y="-102.3" font-family="Times,serif" font-size="14.00">X₁ = Ø</text>
<polyline fill="none" stroke="#7f7542" points="74,-98.5 122,-98.5 "/>
<text text-anchor="middle" x="98" y="-87.3" font-family="Times,serif" font-size="14.00">⇊</text>
<polyline fill="none" stroke="#7f7542" points="74,-83.5 122,-83.5 "/>
<text text-anchor="middle" x="98" y="-72.3" font-family="Times,serif" font-size="14.00">X₁ = 0</text>
</a>
</g>
</g>
<!-- c_0_47&#45;&gt;c_0_57 -->
<g id="edge1" class="edge">
<title>c_0_47&#45;&gt;c_0_57</title>
<path fill="none" stroke="black" d="M161,-165.43C161,-145.13 161,-91 161,-91 161,-91 132.18,-91 132.18,-91"/>
<polygon fill="black" stroke="black" points="132.18,-87.5 122.18,-91 132.18,-94.5 132.18,-87.5"/>
</g>
<!-- c_0_37 -->
<g id="node2" class="node">
<title>c_0_37</title>
<g id="a_node2"><a xlink:href="c_0_37.html" xlink:title="{X₁ = Ø|⇊|X₁ = Ø}" target="_vizar">
<polygon fill="#f8edd1" stroke="#7f7542" points="74,-150.5 74,-195.5 122,-195.5 122,-150.5 74,-150.5"/>
<text text-anchor="middle" x="98" y="-184.3" font-family="Times,serif" font-size="14.00">X₁ = Ø</text>
<polyline fill="none" stroke="#7f7542" points="74,-180.5 122,-180.5 "/>
<text text-anchor="middle" x="98" y="-169.3" font-family="Times,serif" font-size="14.00">⇊</text>
<polyline fill="none" stroke="#7f7542" points="74,-165.5 122,-165.5 "/>
<text text-anchor="middle" x="98" y="-154.3" font-family="Times,serif" font-size="14.00">X₁ = Ø</text>
</a>
</g>
</g>
<!-- c_0_37&#45;&gt;c_0_57 -->
<g id="edge2" class="edge">
<title>c_0_37&#45;&gt;c_0_57</title>
<path fill="none" stroke="black" d="M98,-150.16C98,-150.16 98,-123.72 98,-123.72"/>
<polygon fill="black" stroke="black" points="101.5,-123.72 98,-113.72 94.5,-123.72 101.5,-123.72"/>
</g>
<!-- c_0_66 -->
<g id="node3" class="node">
<title>c_0_66</title>
<g id="a_node3"><a xlink:href="c_0_66.html" xlink:title="{0 = 0}" target="_vizar">
<polygon fill="#f8edd1" stroke="#7f7542" points="16,-165.5 16,-180.5 56,-180.5 56,-165.5 16,-165.5"/>
<text text-anchor="middle" x="36" y="-169.3" font-family="Times,serif" font-size="14.00">0 = 0</text>
</a>
</g>
</g>
<!-- c_0_66&#45;&gt;c_0_57 -->
<g id="edge3" class="edge">
<title>c_0_66&#45;&gt;c_0_57</title>
<path fill="none" stroke="black" d="M36,-165.43C36,-145.13 36,-91 36,-91 36,-91 63.85,-91 63.85,-91"/>
<polygon fill="black" stroke="black" points="63.85,-94.5 73.85,-91 63.85,-87.5 63.85,-94.5"/>
</g>
<!-- c_0_191 -->
<g id="node5" class="node">
<title>c_0_191</title>
<g id="a_node5"><a xlink:href="c_0_191.html" xlink:title="{sk₆(sk₁) = 0}" target="_vizar">
<polygon fill="#fa6900" stroke="#7f7542" points="56.5,-16.5 56.5,-31.5 139.5,-31.5 139.5,-16.5 56.5,-16.5"/>
<text text-anchor="middle" x="98" y="-20.3" font-family="Times,serif" font-size="14.00">sk₆(sk₁) = 0</text>
</a>
</g>
</g>
<!-- c_0_57&#45;&gt;c_0_191 -->
<g id="edge4" class="edge">
<title>c_0_57&#45;&gt;c_0_191</title>
<path fill="none" stroke="black" stroke-dasharray="5,2" d="M98,-68.32C98,-68.32 98,-41.59 98,-41.59"/>
<polygon fill="black" stroke="black" points="101.5,-41.59 98,-31.59 94.5,-41.59 101.5,-41.59"/>
</g>
</g>
</svg>
