<?xml version="1.0" encoding="UTF-8" standalone="no"?>
<!DOCTYPE svg PUBLIC "-//W3C//DTD SVG 1.1//EN"
 "http://www.w3.org/Graphics/SVG/1.1/DTD/svg11.dtd">
<!-- Generated by graphviz version 5.0.0 (0)
 -->
<!-- Title: proof Pages: 1 -->
<svg width="192pt" height="190pt"
 viewBox="0.00 0.00 192.00 190.00" xmlns="http://www.w3.org/2000/svg" xmlns:xlink="http://www.w3.org/1999/xlink">
<g id="graph0" class="graph" transform="scale(1 1) rotate(0) translate(4 186)">
<title>proof</title>
<g id="clust1" class="cluster">
<title>cluster_0</title>
<polygon fill="transparent" stroke="black" stroke-dasharray="1,5" points="8,-112 8,-174 176,-174 176,-112 8,-112"/>
</g>
<g id="clust2" class="cluster">
<title>cluster_1</title>
<polygon fill="transparent" stroke="black" stroke-width="2" points="32,-60 32,-92 132,-92 132,-60 32,-60"/>
</g>
<g id="clust3" class="cluster">
<title>cluster_2</title>
<polygon fill="transparent" stroke="black" stroke-dasharray="1,5" points="10,-8 10,-40 154,-40 154,-8 10,-8"/>
</g>
<!-- c_0_188 -->
<g id="node1" class="node">
<title>c_0_188</title>
<g id="a_node1"><a xlink:href="c_0_188.html" xlink:title="{sk₆(sk₁) = Ø}" target="_vizar">
<polygon fill="#fa6900" stroke="#7f7542" points="82.5,-135.5 82.5,-150.5 167.5,-150.5 167.5,-135.5 82.5,-135.5"/>
<text text-anchor="middle" x="125" y="-139.3" font-family="Times,serif" font-size="14.00">sk₆(sk₁) = Ø</text>
</a>
</g>
</g>
<!-- c_0_191 -->
<g id="node3" class="node">
<title>c_0_191</title>
<g id="a_node3"><a xlink:href="c_0_191.html" xlink:title="{sk₆(sk₁) = 0}" target="_vizar">
<polygon fill="#fa6900" stroke="#7f7542" points="40.5,-68.5 40.5,-83.5 123.5,-83.5 123.5,-68.5 40.5,-68.5"/>
<text text-anchor="middle" x="82" y="-72.3" font-family="Times,serif" font-size="14.00">sk₆(sk₁) = 0</text>
</a>
</g>
</g>
<!-- c_0_188&#45;&gt;c_0_191 -->
<g id="edge1" class="edge">
<title>c_0_188&#45;&gt;c_0_191</title>
<path fill="none" stroke="black" d="M103,-135.31C103,-135.31 103,-93.6 103,-93.6"/>
<polygon fill="black" stroke="black" points="106.5,-93.6 103,-83.6 99.5,-93.6 106.5,-93.6"/>
</g>
<!-- c_0_57 -->
<g id="node2" class="node">
<title>c_0_57</title>
<g id="a_node2"><a xlink:href="c_0_57.html" xlink:title="{X₁ = Ø|⇊|X₁ = 0}" target="_vizar">
<polygon fill="#f8edd1" stroke="#7f7542" points="16,-120.5 16,-165.5 64,-165.5 64,-120.5 16,-120.5"/>
<text text-anchor="middle" x="40" y="-154.3" font-family="Times,serif" font-size="14.00">X₁ = Ø</text>
<polyline fill="none" stroke="#7f7542" points="16,-150.5 64,-150.5 "/>
<text text-anchor="middle" x="40" y="-139.3" font-family="Times,serif" font-size="14.00">⇊</text>
<polyline fill="none" stroke="#7f7542" points="16,-135.5 64,-135.5 "/>
<text text-anchor="middle" x="40" y="-124.3" font-family="Times,serif" font-size="14.00">X₁ = 0</text>
</a>
</g>
</g>
<!-- c_0_57&#45;&gt;c_0_191 -->
<g id="edge2" class="edge">
<title>c_0_57&#45;&gt;c_0_191</title>
<path fill="none" stroke="black" d="M52.25,-120.32C52.25,-120.32 52.25,-93.59 52.25,-93.59"/>
<polygon fill="black" stroke="black" points="55.75,-93.59 52.25,-83.59 48.75,-93.59 55.75,-93.59"/>
</g>
<!-- c_0_197 -->
<g id="node4" class="node">
<title>c_0_197</title>
<g id="a_node4"><a xlink:href="c_0_197.html" xlink:title="{sk₁ \|^ (0 + 1) ≤ 1}" target="_vizar">
<polygon fill="#fa6900" stroke="#7f7542" points="18.5,-16.5 18.5,-31.5 145.5,-31.5 145.5,-16.5 18.5,-16.5"/>
<text text-anchor="middle" x="82" y="-20.3" font-family="Times,serif" font-size="14.00">sk₁ |^ (0 + 1) ≤ 1</text>
</a>
</g>
</g>
<!-- c_0_191&#45;&gt;c_0_197 -->
<g id="edge3" class="edge">
<title>c_0_191&#45;&gt;c_0_197</title>
<path fill="none" stroke="black" stroke-dasharray="5,2" d="M82,-68.33C82,-68.33 82,-41.7 82,-41.7"/>
<polygon fill="black" stroke="black" points="85.5,-41.7 82,-31.7 78.5,-41.7 85.5,-41.7"/>
</g>
</g>
</svg>
