<?xml version="1.0" encoding="UTF-8" standalone="no"?>
<!DOCTYPE svg PUBLIC "-//W3C//DTD SVG 1.1//EN"
 "http://www.w3.org/Graphics/SVG/1.1/DTD/svg11.dtd">
<!-- Generated by graphviz version 5.0.0 (0)
 -->
<!-- Title: proof Pages: 1 -->
<svg width="862pt" height="205pt"
 viewBox="0.00 0.00 862.00 205.00" xmlns="http://www.w3.org/2000/svg" xmlns:xlink="http://www.w3.org/1999/xlink">
<g id="graph0" class="graph" transform="scale(1 1) rotate(0) translate(4 201)">
<title>proof</title>
<g id="clust1" class="cluster">
<title>cluster_0</title>
<polygon fill="transparent" stroke="black" stroke-dasharray="1,5" points="8,-112 8,-189 846,-189 846,-112 8,-112"/>
</g>
<g id="clust2" class="cluster">
<title>cluster_1</title>
<polygon fill="transparent" stroke="black" stroke-width="2" points="355,-60 355,-92 529,-92 529,-60 355,-60"/>
</g>
<g id="clust3" class="cluster">
<title>cluster_2</title>
<polygon fill="transparent" stroke="black" stroke-dasharray="1,5" points="392,-8 392,-40 492,-40 492,-8 392,-8"/>
</g>
<!-- c_0_167 -->
<g id="node1" class="node">
<title>c_0_167</title>
<g id="a_node1"><a xlink:href="c_0_167.html" xlink:title="{sk₆(sk₁) ∈ ℕ}" target="_parent">
<polygon fill="#fa6900" stroke="#7f7542" points="752.5,-143 752.5,-158 837.5,-158 837.5,-143 752.5,-143"/>
<text text-anchor="middle" x="795" y="-146.8" font-family="Times,serif" font-size="14.00">sk₆(sk₁) ∈ ℕ</text>
</a>
</g>
</g>
<!-- c_0_172 -->
<g id="node8" class="node">
<title>c_0_172</title>
<g id="a_node8"><a xlink:href="c_0_172.html" xlink:title="{¬ (1 ≤ sk₁ \|^ sk₆(sk₁))}" target="_parent">
<polygon fill="#fa6900" stroke="#7f7542" points="363.5,-68.5 363.5,-83.5 520.5,-83.5 520.5,-68.5 363.5,-68.5"/>
<text text-anchor="middle" x="442" y="-72.3" font-family="Times,serif" font-size="14.00">¬ (1 ≤ sk₁ |^ sk₆(sk₁))</text>
</a>
</g>
</g>
<!-- c_0_167&#45;&gt;c_0_172 -->
<g id="edge1" class="edge">
<title>c_0_167&#45;&gt;c_0_172</title>
<path fill="none" stroke="black" d="M795,-142.81C795,-123.77 795,-76 795,-76 795,-76 530.78,-76 530.78,-76"/>
<polygon fill="black" stroke="black" points="530.78,-72.5 520.78,-76 530.78,-79.5 530.78,-72.5"/>
</g>
<!-- c_0_164 -->
<g id="node2" class="node">
<title>c_0_164</title>
<g id="a_node2"><a xlink:href="c_0_164.html" xlink:title="{R₁ ≤ sk₁ \|^ (sk₆(sk₁) + 1)|⇊|R₁ ≤ 1}" target="_parent">
<polygon fill="#fa6900" stroke="#7f7542" points="557.5,-128 557.5,-173 734.5,-173 734.5,-128 557.5,-128"/>
<text text-anchor="middle" x="646" y="-161.8" font-family="Times,serif" font-size="14.00">R₁ ≤ sk₁ |^ (sk₆(sk₁) + 1)</text>
<polyline fill="none" stroke="#7f7542" points="557.5,-158 734.5,-158 "/>
<text text-anchor="middle" x="646" y="-146.8" font-family="Times,serif" font-size="14.00">⇊</text>
<polyline fill="none" stroke="#7f7542" points="557.5,-143 734.5,-143 "/>
<text text-anchor="middle" x="646" y="-131.8" font-family="Times,serif" font-size="14.00">R₁ ≤ 1</text>
</a>
</g>
</g>
<!-- c_0_164&#45;&gt;c_0_172 -->
<g id="edge2" class="edge">
<title>c_0_164&#45;&gt;c_0_172</title>
<path fill="none" stroke="black" d="M557.41,-135C531.1,-135 509.17,-135 509.17,-135 509.17,-135 509.17,-93.71 509.17,-93.71"/>
<polygon fill="black" stroke="black" points="512.67,-93.71 509.17,-83.71 505.67,-93.71 512.67,-93.71"/>
</g>
<!-- c_0_100 -->
<g id="node3" class="node">
<title>c_0_100</title>
<g id="a_node3"><a xlink:href="c_0_100.html" xlink:title="{sk₁ ∈ ℝ}" target="_parent">
<polygon fill="#fa6900" stroke="#7f7542" points="486.5,-143 486.5,-158 539.5,-158 539.5,-143 486.5,-143"/>
<text text-anchor="middle" x="513" y="-146.8" font-family="Times,serif" font-size="14.00">sk₁ ∈ ℝ</text>
</a>
</g>
</g>
<!-- c_0_100&#45;&gt;c_0_172 -->
<g id="edge3" class="edge">
<title>c_0_100&#45;&gt;c_0_172</title>
<path fill="none" stroke="black" d="M497.83,-142.81C497.83,-142.81 497.83,-93.76 497.83,-93.76"/>
<polygon fill="black" stroke="black" points="501.33,-93.76 497.83,-83.76 494.33,-93.76 501.33,-93.76"/>
</g>
<!-- c_0_166 -->
<g id="node4" class="node">
<title>c_0_166</title>
<g id="a_node4"><a xlink:href="c_0_166.html" xlink:title="{0 ≤ sk₁}" target="_parent">
<polygon fill="#fa6900" stroke="#7f7542" points="416,-143 416,-158 468,-158 468,-143 416,-143"/>
<text text-anchor="middle" x="442" y="-146.8" font-family="Times,serif" font-size="14.00">0 ≤ sk₁</text>
</a>
</g>
</g>
<!-- c_0_166&#45;&gt;c_0_172 -->
<g id="edge4" class="edge">
<title>c_0_166&#45;&gt;c_0_172</title>
<path fill="none" stroke="black" d="M442,-142.81C442,-142.81 442,-93.76 442,-93.76"/>
<polygon fill="black" stroke="black" points="445.5,-93.76 442,-83.76 438.5,-93.76 445.5,-93.76"/>
</g>
<!-- c_0_165 -->
<g id="node5" class="node">
<title>c_0_165</title>
<g id="a_node5"><a xlink:href="c_0_165.html" xlink:title="{0 ≤ R₁|1 ≤ R₁ \|^ C₂|⇊|R₁ ≤ R₁ \|^ (C₂ + 1)}" target="_parent">
<polygon fill="#f8edd1" stroke="#7f7542" points="262.5,-120.5 262.5,-180.5 397.5,-180.5 397.5,-120.5 262.5,-120.5"/>
<text text-anchor="middle" x="330" y="-169.3" font-family="Times,serif" font-size="14.00">0 ≤ R₁</text>
<polyline fill="none" stroke="#7f7542" points="262.5,-165.5 397.5,-165.5 "/>
<text text-anchor="middle" x="330" y="-154.3" font-family="Times,serif" font-size="14.00">1 ≤ R₁ |^ C₂</text>
<polyline fill="none" stroke="#7f7542" points="262.5,-150.5 397.5,-150.5 "/>
<text text-anchor="middle" x="330" y="-139.3" font-family="Times,serif" font-size="14.00">⇊</text>
<polyline fill="none" stroke="#7f7542" points="262.5,-135.5 397.5,-135.5 "/>
<text text-anchor="middle" x="330" y="-124.3" font-family="Times,serif" font-size="14.00">R₁ ≤ R₁ |^ (C₂ + 1)</text>
</a>
</g>
</g>
<!-- c_0_165&#45;&gt;c_0_172 -->
<g id="edge5" class="edge">
<title>c_0_165&#45;&gt;c_0_172</title>
<path fill="none" stroke="black" d="M380.5,-120.2C380.5,-120.2 380.5,-93.59 380.5,-93.59"/>
<polygon fill="black" stroke="black" points="384,-93.59 380.5,-83.59 377,-93.59 384,-93.59"/>
</g>
<!-- c_0_173 -->
<g id="node6" class="node">
<title>c_0_173</title>
<g id="a_node6"><a xlink:href="c_0_173.html" xlink:title="{R₁ \|^ (C₂ + 1) ∈ ℝ}" target="_parent">
<polygon fill="#f8edd1" stroke="#7f7542" points="114,-143 114,-158 244,-158 244,-143 114,-143"/>
<text text-anchor="middle" x="179" y="-146.8" font-family="Times,serif" font-size="14.00">R₁ |^ (C₂ + 1) ∈ ℝ</text>
</a>
</g>
</g>
<!-- c_0_173&#45;&gt;c_0_172 -->
<g id="edge6" class="edge">
<title>c_0_173&#45;&gt;c_0_172</title>
<path fill="none" stroke="black" d="M179,-142.74C179,-124.04 179,-78 179,-78 179,-78 353.45,-78 353.45,-78"/>
<polygon fill="black" stroke="black" points="353.45,-81.5 363.45,-78 353.45,-74.5 353.45,-81.5"/>
</g>
<!-- c_0_114 -->
<g id="node7" class="node">
<title>c_0_114</title>
<g id="a_node7"><a xlink:href="c_0_114.html" xlink:title="{¬ (sk₁ ≤ 1)}" target="_parent">
<polygon fill="#fa6900" stroke="#7f7542" points="16.5,-143 16.5,-158 95.5,-158 95.5,-143 16.5,-143"/>
<text text-anchor="middle" x="56" y="-146.8" font-family="Times,serif" font-size="14.00">¬ (sk₁ ≤ 1)</text>
</a>
</g>
</g>
<!-- c_0_114&#45;&gt;c_0_172 -->
<g id="edge7" class="edge">
<title>c_0_114&#45;&gt;c_0_172</title>
<path fill="none" stroke="black" d="M56,-142.79C56,-123.18 56,-73 56,-73 56,-73 353.42,-73 353.42,-73"/>
<polygon fill="black" stroke="black" points="353.42,-76.5 363.42,-73 353.42,-69.5 353.42,-76.5"/>
</g>
<!-- c_0_182 -->
<g id="node9" class="node">
<title>c_0_182</title>
<g id="a_node9"><a xlink:href="c_0_182.html" xlink:title="{sk₆(sk₁) ≤ 0}" target="_parent">
<polygon fill="#fa6900" stroke="#7f7542" points="400.5,-16.5 400.5,-31.5 483.5,-31.5 483.5,-16.5 400.5,-16.5"/>
<text text-anchor="middle" x="442" y="-20.3" font-family="Times,serif" font-size="14.00">sk₆(sk₁) ≤ 0</text>
</a>
</g>
</g>
<!-- c_0_172&#45;&gt;c_0_182 -->
<g id="edge8" class="edge">
<title>c_0_172&#45;&gt;c_0_182</title>
<path fill="none" stroke="black" stroke-dasharray="5,2" d="M442,-68.33C442,-68.33 442,-41.7 442,-41.7"/>
<polygon fill="black" stroke="black" points="445.5,-41.7 442,-31.7 438.5,-41.7 445.5,-41.7"/>
</g>
</g>
</svg>
