<?xml version="1.0" encoding="UTF-8" standalone="no"?>
<!DOCTYPE svg PUBLIC "-//W3C//DTD SVG 1.1//EN"
 "http://www.w3.org/Graphics/SVG/1.1/DTD/svg11.dtd">
<!-- Generated by graphviz version 5.0.0 (0)
 -->
<!-- Title: proof Pages: 1 -->
<svg width="736pt" height="235pt"
 viewBox="0.00 0.00 736.00 235.00" xmlns="http://www.w3.org/2000/svg" xmlns:xlink="http://www.w3.org/1999/xlink">
<g id="graph0" class="graph" transform="scale(1 1) rotate(0) translate(4 231)">
<title>proof</title>
<g id="clust1" class="cluster">
<title>cluster_0</title>
<polygon fill="transparent" stroke="black" stroke-dasharray="1,5" points="228,-157 228,-219 417,-219 417,-157 228,-157"/>
</g>
<g id="clust2" class="cluster">
<title>cluster_1</title>
<polygon fill="transparent" stroke="black" stroke-width="2" points="278,-105 278,-137 336,-137 336,-105 278,-105"/>
</g>
<g id="clust3" class="cluster">
<title>cluster_2</title>
<polygon fill="transparent" stroke="black" stroke-dasharray="1,5" points="8,-8 8,-85 720,-85 720,-8 8,-8"/>
</g>
<!-- spc1_numerals -->
<g id="node1" class="node">
<title>spc1_numerals</title>
<g id="a_node1"><a xlink:href="spc1_numerals.html" xlink:title="spc1_numerals" target="_parent">
<polygon fill="#69d2e7" stroke="#7f7542" points="301.5,-180.5 301.5,-195.5 408.5,-195.5 408.5,-180.5 301.5,-180.5"/>
<text text-anchor="middle" x="355" y="-184.3" font-family="Times,serif" font-size="14.00">spc1_numerals</text>
</a>
</g>
</g>
<!-- c_0_44 -->
<g id="node3" class="node">
<title>c_0_44</title>
<g id="a_node3"><a xlink:href="c_0_44.html" xlink:title="{1 ∈ ℝ}" target="_parent">
<polygon fill="#f8edd1" stroke="#7f7542" points="286.5,-113.5 286.5,-128.5 327.5,-128.5 327.5,-113.5 286.5,-113.5"/>
<text text-anchor="middle" x="307" y="-117.3" font-family="Times,serif" font-size="14.00">1 ∈ ℝ</text>
</a>
</g>
</g>
<!-- spc1_numerals&#45;&gt;c_0_44 -->
<g id="edge1" class="edge">
<title>spc1_numerals&#45;&gt;c_0_44</title>
<path fill="none" stroke="black" d="M314.5,-180.31C314.5,-180.31 314.5,-138.6 314.5,-138.6"/>
<polygon fill="black" stroke="black" points="318,-138.6 314.5,-128.6 311,-138.6 318,-138.6"/>
</g>
<!-- c_0_43 -->
<g id="node2" class="node">
<title>c_0_43</title>
<g id="a_node2"><a xlink:href="c_0_43.html" xlink:title="{X₁ ∈ ℝ|⇊|X₁ ∈ ℝ}" target="_parent">
<polygon fill="#f8edd1" stroke="#7f7542" points="236.5,-165.5 236.5,-210.5 283.5,-210.5 283.5,-165.5 236.5,-165.5"/>
<text text-anchor="middle" x="260" y="-199.3" font-family="Times,serif" font-size="14.00">X₁ ∈ ℝ</text>
<polyline fill="none" stroke="#7f7542" points="236.5,-195.5 283.5,-195.5 "/>
<text text-anchor="middle" x="260" y="-184.3" font-family="Times,serif" font-size="14.00">⇊</text>
<polyline fill="none" stroke="#7f7542" points="236.5,-180.5 283.5,-180.5 "/>
<text text-anchor="middle" x="260" y="-169.3" font-family="Times,serif" font-size="14.00">X₁ ∈ ℝ</text>
</a>
</g>
</g>
<!-- c_0_43&#45;&gt;c_0_44 -->
<g id="edge2" class="edge">
<title>c_0_43&#45;&gt;c_0_44</title>
<path fill="none" stroke="black" d="M283.61,-172C289.42,-172 294,-172 294,-172 294,-172 294,-138.53 294,-138.53"/>
<polygon fill="black" stroke="black" points="297.5,-138.53 294,-128.53 290.5,-138.53 297.5,-138.53"/>
</g>
<!-- c_0_81 -->
<g id="node4" class="node">
<title>c_0_81</title>
<g id="a_node4"><a xlink:href="c_0_81.html" xlink:title="{R₁ ≤ 1|⇊|R₁ * 1 ≤ 1}" target="_parent">
<polygon fill="#f8edd1" stroke="#7f7542" points="640.5,-24 640.5,-69 711.5,-69 711.5,-24 640.5,-24"/>
<text text-anchor="middle" x="676" y="-57.8" font-family="Times,serif" font-size="14.00">R₁ ≤ 1</text>
<polyline fill="none" stroke="#7f7542" points="640.5,-54 711.5,-54 "/>
<text text-anchor="middle" x="676" y="-42.8" font-family="Times,serif" font-size="14.00">⇊</text>
<polyline fill="none" stroke="#7f7542" points="640.5,-39 711.5,-39 "/>
<text text-anchor="middle" x="676" y="-27.8" font-family="Times,serif" font-size="14.00">R₁ * 1 ≤ 1</text>
</a>
</g>
</g>
<!-- c_0_44&#45;&gt;c_0_81 -->
<g id="edge3" class="edge">
<title>c_0_44&#45;&gt;c_0_81</title>
<path fill="none" stroke="black" stroke-dasharray="5,2" d="M327.63,-123C405.34,-123 676,-123 676,-123 676,-123 676,-79.04 676,-79.04"/>
<polygon fill="black" stroke="black" points="679.5,-79.04 676,-69.04 672.5,-79.04 679.5,-79.04"/>
</g>
<!-- c_0_156 -->
<g id="node5" class="node">
<title>c_0_156</title>
<g id="a_node5"><a xlink:href="c_0_156.html" xlink:title="{0 ≤ N₁|1 ≤ N₁ \|^ C₂|⇊|N₁ ≤ N₁ \|^ (C₂ + 1)}" target="_parent">
<polygon fill="#f8edd1" stroke="#7f7542" points="484,-16.5 484,-76.5 622,-76.5 622,-16.5 484,-16.5"/>
<text text-anchor="middle" x="553" y="-65.3" font-family="Times,serif" font-size="14.00">0 ≤ N₁</text>
<polyline fill="none" stroke="#7f7542" points="484,-61.5 622,-61.5 "/>
<text text-anchor="middle" x="553" y="-50.3" font-family="Times,serif" font-size="14.00">1 ≤ N₁ |^ C₂</text>
<polyline fill="none" stroke="#7f7542" points="484,-46.5 622,-46.5 "/>
<text text-anchor="middle" x="553" y="-35.3" font-family="Times,serif" font-size="14.00">⇊</text>
<polyline fill="none" stroke="#7f7542" points="484,-31.5 622,-31.5 "/>
<text text-anchor="middle" x="553" y="-20.3" font-family="Times,serif" font-size="14.00">N₁ ≤ N₁ |^ (C₂ + 1)</text>
</a>
</g>
</g>
<!-- c_0_44&#45;&gt;c_0_156 -->
<g id="edge4" class="edge">
<title>c_0_44&#45;&gt;c_0_156</title>
<path fill="none" stroke="black" stroke-dasharray="5,2" d="M325,-113.21C325,-97.83 325,-65 325,-65 325,-65 473.97,-65 473.97,-65"/>
<polygon fill="black" stroke="black" points="473.97,-68.5 483.97,-65 473.97,-61.5 473.97,-68.5"/>
</g>
<!-- c_0_158 -->
<g id="node6" class="node">
<title>c_0_158</title>
<g id="a_node6"><a xlink:href="c_0_158.html" xlink:title="{positive(sk₁)}" target="_parent">
<polygon fill="#fa6900" stroke="#7f7542" points="378,-39 378,-54 466,-54 466,-39 378,-39"/>
<text text-anchor="middle" x="422" y="-42.8" font-family="Times,serif" font-size="14.00">positive(sk₁)</text>
</a>
</g>
</g>
<!-- c_0_44&#45;&gt;c_0_158 -->
<g id="edge5" class="edge">
<title>c_0_44&#45;&gt;c_0_158</title>
<path fill="none" stroke="black" stroke-dasharray="5,2" d="M327.88,-118C353.4,-118 393.25,-118 393.25,-118 393.25,-118 393.25,-64.15 393.25,-64.15"/>
<polygon fill="black" stroke="black" points="396.75,-64.15 393.25,-54.15 389.75,-64.15 396.75,-64.15"/>
</g>
<!-- c_0_61 -->
<g id="node7" class="node">
<title>c_0_61</title>
<g id="a_node7"><a xlink:href="c_0_61.html" xlink:title="{1 ∈ ℂ}" target="_parent">
<polygon fill="#f8edd1" stroke="#7f7542" points="320,-39 320,-54 360,-54 360,-39 320,-39"/>
<text text-anchor="middle" x="340" y="-42.8" font-family="Times,serif" font-size="14.00">1 ∈ ℂ</text>
</a>
</g>
</g>
<!-- c_0_44&#45;&gt;c_0_61 -->
<g id="edge6" class="edge">
<title>c_0_44&#45;&gt;c_0_61</title>
<path fill="none" stroke="black" stroke-dasharray="5,2" d="M322.5,-113.31C322.5,-113.31 322.5,-64.26 322.5,-64.26"/>
<polygon fill="black" stroke="black" points="326,-64.26 322.5,-54.26 319,-64.26 326,-64.26"/>
</g>
<!-- c_0_138 -->
<g id="node8" class="node">
<title>c_0_138</title>
<g id="a_node8"><a xlink:href="c_0_138.html" xlink:title="{R₁ ≤ R₂|R₂ ≤ 1|⇊|R₁ ≤ 1}" target="_parent">
<polygon fill="#f8edd1" stroke="#7f7542" points="248.5,-16.5 248.5,-76.5 301.5,-76.5 301.5,-16.5 248.5,-16.5"/>
<text text-anchor="middle" x="275" y="-65.3" font-family="Times,serif" font-size="14.00">R₁ ≤ R₂</text>
<polyline fill="none" stroke="#7f7542" points="248.5,-61.5 301.5,-61.5 "/>
<text text-anchor="middle" x="275" y="-50.3" font-family="Times,serif" font-size="14.00">R₂ ≤ 1</text>
<polyline fill="none" stroke="#7f7542" points="248.5,-46.5 301.5,-46.5 "/>
<text text-anchor="middle" x="275" y="-35.3" font-family="Times,serif" font-size="14.00">⇊</text>
<polyline fill="none" stroke="#7f7542" points="248.5,-31.5 301.5,-31.5 "/>
<text text-anchor="middle" x="275" y="-20.3" font-family="Times,serif" font-size="14.00">R₁ ≤ 1</text>
</a>
</g>
</g>
<!-- c_0_44&#45;&gt;c_0_138 -->
<g id="edge7" class="edge">
<title>c_0_44&#45;&gt;c_0_138</title>
<path fill="none" stroke="black" stroke-dasharray="5,2" d="M294,-113.31C294,-113.31 294,-86.51 294,-86.51"/>
<polygon fill="black" stroke="black" points="297.5,-86.51 294,-76.51 290.5,-86.51 297.5,-86.51"/>
</g>
<!-- c_0_153 -->
<g id="node9" class="node">
<title>c_0_153</title>
<g id="a_node9"><a xlink:href="c_0_153.html" xlink:title="{1 ≤ R₁|R₁ ≤ 1}" target="_parent">
<polygon fill="#f8edd1" stroke="#7f7542" points="184,-31.5 184,-61.5 230,-61.5 230,-31.5 184,-31.5"/>
<text text-anchor="middle" x="207" y="-50.3" font-family="Times,serif" font-size="14.00">1 ≤ R₁</text>
<polyline fill="none" stroke="#7f7542" points="184,-46.5 230,-46.5 "/>
<text text-anchor="middle" x="207" y="-35.3" font-family="Times,serif" font-size="14.00">R₁ ≤ 1</text>
</a>
</g>
</g>
<!-- c_0_44&#45;&gt;c_0_153 -->
<g id="edge8" class="edge">
<title>c_0_44&#45;&gt;c_0_153</title>
<path fill="none" stroke="black" stroke-dasharray="5,2" d="M286.28,-117C256.99,-117 207,-117 207,-117 207,-117 207,-71.8 207,-71.8"/>
<polygon fill="black" stroke="black" points="210.5,-71.8 207,-61.8 203.5,-71.8 210.5,-71.8"/>
</g>
<!-- c_0_145 -->
<g id="node10" class="node">
<title>c_0_145</title>
<g id="a_node10"><a xlink:href="c_0_145.html" xlink:title="{1 ≤ sk₁}" target="_parent">
<polygon fill="#fa6900" stroke="#7f7542" points="114,-39 114,-54 166,-54 166,-39 114,-39"/>
<text text-anchor="middle" x="140" y="-42.8" font-family="Times,serif" font-size="14.00">1 ≤ sk₁</text>
</a>
</g>
</g>
<!-- c_0_44&#45;&gt;c_0_145 -->
<g id="edge9" class="edge">
<title>c_0_44&#45;&gt;c_0_145</title>
<path fill="none" stroke="black" stroke-dasharray="5,2" d="M286.19,-121C241.42,-121 140,-121 140,-121 140,-121 140,-64.19 140,-64.19"/>
<polygon fill="black" stroke="black" points="143.5,-64.19 140,-54.19 136.5,-64.19 143.5,-64.19"/>
</g>
<!-- c_0_82 -->
<g id="node11" class="node">
<title>c_0_82</title>
<g id="a_node11"><a xlink:href="c_0_82.html" xlink:title="{N₁ ≤ R₂|⇊|N₁ ≤ R₂ * 1}" target="_parent">
<polygon fill="#f8edd1" stroke="#7f7542" points="16.5,-24 16.5,-69 95.5,-69 95.5,-24 16.5,-24"/>
<text text-anchor="middle" x="56" y="-57.8" font-family="Times,serif" font-size="14.00">N₁ ≤ R₂</text>
<polyline fill="none" stroke="#7f7542" points="16.5,-54 95.5,-54 "/>
<text text-anchor="middle" x="56" y="-42.8" font-family="Times,serif" font-size="14.00">⇊</text>
<polyline fill="none" stroke="#7f7542" points="16.5,-39 95.5,-39 "/>
<text text-anchor="middle" x="56" y="-27.8" font-family="Times,serif" font-size="14.00">N₁ ≤ R₂ * 1</text>
</a>
</g>
</g>
<!-- c_0_44&#45;&gt;c_0_82 -->
<g id="edge10" class="edge">
<title>c_0_44&#45;&gt;c_0_82</title>
<path fill="none" stroke="black" stroke-dasharray="5,2" d="M286.46,-125C226.51,-125 56,-125 56,-125 56,-125 56,-79.21 56,-79.21"/>
<polygon fill="black" stroke="black" points="59.5,-79.21 56,-69.21 52.5,-79.21 59.5,-79.21"/>
</g>
</g>
</svg>
