<?xml version="1.0" encoding="UTF-8" standalone="no"?>
<!DOCTYPE svg PUBLIC "-//W3C//DTD SVG 1.1//EN"
 "http://www.w3.org/Graphics/SVG/1.1/DTD/svg11.dtd">
<!-- Generated by graphviz version 5.0.0 (0)
 -->
<!-- Title: proof Pages: 1 -->
<svg width="445pt" height="76pt"
 viewBox="0.00 0.00 444.50 76.00" xmlns="http://www.w3.org/2000/svg" xmlns:xlink="http://www.w3.org/1999/xlink">
<g id="graph0" class="graph" transform="scale(1 1) rotate(0) translate(4 72)">
<title>proof</title>
<!-- t65_pepin -->
<g id="node1" class="node">
<title>t65_pepin</title>
<g id="a_node1"><a xlink:href="t65_pepin.html" xlink:title="t65_pepin" target="_parent">
<polygon fill="#fa6900" stroke="#7f7542" points="182,-52.5 182,-67.5 253,-67.5 253,-52.5 182,-52.5"/>
<text text-anchor="middle" x="217.5" y="-56.3" font-family="Times,serif" font-size="14.00">t65_pepin</text>
</a>
</g>
</g>
<!-- c_0_107 -->
<g id="node2" class="node">
<title>c_0_107</title>
<g id="a_node2"><a xlink:href="c_0_107.html" xlink:title="{¬ (sk₂ ≤ 0)}" target="_parent">
<polygon fill="#fa6900" stroke="#7f7542" points="0,-0.5 0,-15.5 79,-15.5 79,-0.5 0,-0.5"/>
<text text-anchor="middle" x="39.5" y="-4.3" font-family="Times,serif" font-size="14.00">¬ (sk₂ ≤ 0)</text>
</a>
</g>
</g>
<!-- t65_pepin&#45;&gt;c_0_107 -->
<g id="edge1" class="edge">
<title>t65_pepin&#45;&gt;c_0_107</title>
<path fill="none" stroke="black" d="M181.91,-62C129.96,-62 39.5,-62 39.5,-62 39.5,-62 39.5,-25.51 39.5,-25.51"/>
<polygon fill="black" stroke="black" points="43,-25.51 39.5,-15.51 36,-25.51 43,-25.51"/>
</g>
<!-- c_0_100 -->
<g id="node3" class="node">
<title>c_0_100</title>
<g id="a_node3"><a xlink:href="c_0_100.html" xlink:title="{sk₁ ∈ ℝ}" target="_parent">
<polygon fill="#fa6900" stroke="#7f7542" points="97,-0.5 97,-15.5 150,-15.5 150,-0.5 97,-0.5"/>
<text text-anchor="middle" x="123.5" y="-4.3" font-family="Times,serif" font-size="14.00">sk₁ ∈ ℝ</text>
</a>
</g>
</g>
<!-- t65_pepin&#45;&gt;c_0_100 -->
<g id="edge2" class="edge">
<title>t65_pepin&#45;&gt;c_0_100</title>
<path fill="none" stroke="black" d="M181.96,-57C155.34,-57 123.5,-57 123.5,-57 123.5,-57 123.5,-25.66 123.5,-25.66"/>
<polygon fill="black" stroke="black" points="127,-25.66 123.5,-15.66 120,-25.66 127,-25.66"/>
</g>
<!-- c_0_122 -->
<g id="node4" class="node">
<title>c_0_122</title>
<g id="a_node4"><a xlink:href="c_0_122.html" xlink:title="{sk₁ \|^ sk₂ ≤ 1}" target="_parent">
<polygon fill="#fa6900" stroke="#7f7542" points="168.5,-0.5 168.5,-15.5 266.5,-15.5 266.5,-0.5 168.5,-0.5"/>
<text text-anchor="middle" x="217.5" y="-4.3" font-family="Times,serif" font-size="14.00">sk₁ |^ sk₂ ≤ 1</text>
</a>
</g>
</g>
<!-- t65_pepin&#45;&gt;c_0_122 -->
<g id="edge3" class="edge">
<title>t65_pepin&#45;&gt;c_0_122</title>
<path fill="none" stroke="black" d="M217.5,-52.33C217.5,-52.33 217.5,-25.7 217.5,-25.7"/>
<polygon fill="black" stroke="black" points="221,-25.7 217.5,-15.7 214,-25.7 221,-25.7"/>
</g>
<!-- c_0_114 -->
<g id="node5" class="node">
<title>c_0_114</title>
<g id="a_node5"><a xlink:href="c_0_114.html" xlink:title="{¬ (sk₁ ≤ 1)}" target="_parent">
<polygon fill="#fa6900" stroke="#7f7542" points="285,-0.5 285,-15.5 364,-15.5 364,-0.5 285,-0.5"/>
<text text-anchor="middle" x="324.5" y="-4.3" font-family="Times,serif" font-size="14.00">¬ (sk₁ ≤ 1)</text>
</a>
</g>
</g>
<!-- t65_pepin&#45;&gt;c_0_114 -->
<g id="edge4" class="edge">
<title>t65_pepin&#45;&gt;c_0_114</title>
<path fill="none" stroke="black" d="M253.13,-57C284.26,-57 324.5,-57 324.5,-57 324.5,-57 324.5,-25.66 324.5,-25.66"/>
<polygon fill="black" stroke="black" points="328,-25.66 324.5,-15.66 321,-25.66 328,-25.66"/>
</g>
<!-- c_0_123 -->
<g id="node6" class="node">
<title>c_0_123</title>
<g id="a_node6"><a xlink:href="c_0_123.html" xlink:title="{sk₂ ∈ ℕ}" target="_parent">
<polygon fill="#fa6900" stroke="#7f7542" points="382.5,-0.5 382.5,-15.5 436.5,-15.5 436.5,-0.5 382.5,-0.5"/>
<text text-anchor="middle" x="409.5" y="-4.3" font-family="Times,serif" font-size="14.00">sk₂ ∈ ℕ</text>
</a>
</g>
</g>
<!-- t65_pepin&#45;&gt;c_0_123 -->
<g id="edge5" class="edge">
<title>t65_pepin&#45;&gt;c_0_123</title>
<path fill="none" stroke="black" d="M253.16,-62C308.69,-62 409.5,-62 409.5,-62 409.5,-62 409.5,-25.51 409.5,-25.51"/>
<polygon fill="black" stroke="black" points="413,-25.51 409.5,-15.51 406,-25.51 413,-25.51"/>
</g>
</g>
</svg>
