<?xml version="1.0" encoding="UTF-8" standalone="no"?>
<!DOCTYPE svg PUBLIC "-//W3C//DTD SVG 1.1//EN"
 "http://www.w3.org/Graphics/SVG/1.1/DTD/svg11.dtd">
<!-- Generated by graphviz version 5.0.0 (0)
 -->
<!-- Title: proof Pages: 1 -->
<svg width="194pt" height="138pt"
 viewBox="0.00 0.00 194.00 138.00" xmlns="http://www.w3.org/2000/svg" xmlns:xlink="http://www.w3.org/1999/xlink">
<g id="graph0" class="graph" transform="scale(1 1) rotate(0) translate(4 134)">
<title>proof</title>
<g id="clust1" class="cluster">
<title>cluster_1</title>
<polygon fill="transparent" stroke="black" stroke-width="2" points="8,-90 8,-122 178,-122 178,-90 8,-90"/>
</g>
<g id="clust2" class="cluster">
<title>cluster_2</title>
<polygon fill="transparent" stroke="black" stroke-dasharray="1,5" points="21,-8 21,-70 165,-70 165,-8 21,-8"/>
</g>
<!-- redefinition_k1_nat_1 -->
<g id="node1" class="node">
<title>redefinition_k1_nat_1</title>
<g id="a_node1"><a xlink:href="redefinition_k1_nat_1.html" xlink:title="redefinition_k1_nat_1" target="_vizar">
<polygon fill="#69d2e7" stroke="#7f7542" points="16.5,-98.5 16.5,-113.5 169.5,-113.5 169.5,-98.5 16.5,-98.5"/>
<text text-anchor="middle" x="93" y="-102.3" font-family="Times,serif" font-size="14.00">redefinition_k1_nat_1</text>
</a>
</g>
</g>
<!-- c_0_192 -->
<g id="node2" class="node">
<title>c_0_192</title>
<g id="a_node2"><a xlink:href="c_0_192.html" xlink:title="{X₂ ∈ ℕ|⇊|N₁ + X₂ = N₁ + X₂}" target="_vizar">
<polygon fill="#f8edd1" stroke="#7f7542" points="29,-16.5 29,-61.5 157,-61.5 157,-16.5 29,-16.5"/>
<text text-anchor="middle" x="93" y="-50.3" font-family="Times,serif" font-size="14.00">X₂ ∈ ℕ</text>
<polyline fill="none" stroke="#7f7542" points="29,-46.5 157,-46.5 "/>
<text text-anchor="middle" x="93" y="-35.3" font-family="Times,serif" font-size="14.00">⇊</text>
<polyline fill="none" stroke="#7f7542" points="29,-31.5 157,-31.5 "/>
<text text-anchor="middle" x="93" y="-20.3" font-family="Times,serif" font-size="14.00">N₁ + X₂ = N₁ + X₂</text>
</a>
</g>
</g>
<!-- redefinition_k1_nat_1&#45;&gt;c_0_192 -->
<g id="edge1" class="edge">
<title>redefinition_k1_nat_1&#45;&gt;c_0_192</title>
<path fill="none" stroke="black" d="M93,-98.31C93,-98.31 93,-71.76 93,-71.76"/>
<polygon fill="black" stroke="black" points="96.5,-71.76 93,-61.76 89.5,-71.76 96.5,-71.76"/>
</g>
</g>
</svg>
