<?xml version="1.0" encoding="UTF-8" standalone="no"?>
<!DOCTYPE svg PUBLIC "-//W3C//DTD SVG 1.1//EN"
 "http://www.w3.org/Graphics/SVG/1.1/DTD/svg11.dtd">
<!-- Generated by graphviz version 5.0.0 (0)
 -->
<!-- Title: proof Pages: 1 -->
<svg width="208pt" height="75pt"
 viewBox="0.00 0.00 208.00 75.00" xmlns="http://www.w3.org/2000/svg" xmlns:xlink="http://www.w3.org/1999/xlink">
<g id="graph0" class="graph" transform="scale(1 1) rotate(0) translate(4 71)">
<title>proof</title>
<!-- claim -->
<g id="node1" class="node">
<title>claim</title>
<polygon fill="#f8edd1" stroke="#7f7542" points="0,-0.5 0,-66.5 200,-66.5 200,-0.5 0,-0.5"/>
<text text-anchor="middle" x="20.5" y="-50.5" font-family="Times,serif" font-size="20.00">ℕ</text>
<polyline fill="none" stroke="#7f7542" points="41,-44.5 41,-66.5 "/>
<text text-anchor="middle" x="60.5" y="-50.5" font-family="Times,serif" font-size="20.00">𝔼</text>
<polyline fill="none" stroke="#7f7542" points="80,-44.5 80,-66.5 "/>
<text text-anchor="middle" x="99.5" y="-50.5" font-family="Times,serif" font-size="20.00">ℂ</text>
<polyline fill="none" stroke="#7f7542" points="119,-44.5 119,-66.5 "/>
<text text-anchor="middle" x="139" y="-50.5" font-family="Times,serif" font-size="20.00">ℝ</text>
<polyline fill="none" stroke="#7f7542" points="159,-44.5 159,-66.5 "/>
<text text-anchor="middle" x="179.5" y="-50.5" font-family="Times,serif" font-size="20.00">𝒫</text>
<polyline fill="none" stroke="#7f7542" points="0,-44.5 200,-44.5 "/>
<text text-anchor="middle" x="10" y="-28.5" font-family="Times,serif" font-size="20.00">x₀</text>
<polyline fill="none" stroke="#7f7542" points="20,-22.5 20,-44.5 "/>
<text text-anchor="middle" x="30" y="-28.5" font-family="Times,serif" font-size="20.00">x₁</text>
<polyline fill="none" stroke="#7f7542" points="40,-22.5 40,-44.5 "/>
<text text-anchor="middle" x="50" y="-28.5" font-family="Times,serif" font-size="20.00">x₂</text>
<polyline fill="none" stroke="#7f7542" points="60,-22.5 60,-44.5 "/>
<text text-anchor="middle" x="70" y="-28.5" font-family="Times,serif" font-size="20.00">x₃</text>
<polyline fill="none" stroke="#7f7542" points="80,-22.5 80,-44.5 "/>
<text text-anchor="middle" x="90" y="-28.5" font-family="Times,serif" font-size="20.00">x₄</text>
<polyline fill="none" stroke="#7f7542" points="100,-22.5 100,-44.5 "/>
<text text-anchor="middle" x="110" y="-28.5" font-family="Times,serif" font-size="20.00">x₅</text>
<polyline fill="none" stroke="#7f7542" points="120,-22.5 120,-44.5 "/>
<text text-anchor="middle" x="130" y="-28.5" font-family="Times,serif" font-size="20.00">x₆</text>
<polyline fill="none" stroke="#7f7542" points="140,-22.5 140,-44.5 "/>
<text text-anchor="middle" x="150" y="-28.5" font-family="Times,serif" font-size="20.00">x₇</text>
<polyline fill="none" stroke="#7f7542" points="160,-22.5 160,-44.5 "/>
<text text-anchor="middle" x="170" y="-28.5" font-family="Times,serif" font-size="20.00">x₈</text>
<polyline fill="none" stroke="#7f7542" points="180,-22.5 180,-44.5 "/>
<text text-anchor="middle" x="190" y="-28.5" font-family="Times,serif" font-size="20.00">x₉</text>
<polyline fill="none" stroke="#7f7542" points="0,-22.5 200,-22.5 "/>
<text text-anchor="middle" x="14" y="-6.5" font-family="Times,serif" font-size="20.00">∪</text>
<polyline fill="none" stroke="#7f7542" points="28,-0.5 28,-22.5 "/>
<text text-anchor="middle" x="42.5" y="-6.5" font-family="Times,serif" font-size="20.00">∩</text>
<polyline fill="none" stroke="#7f7542" points="57,-0.5 57,-22.5 "/>
<text text-anchor="middle" x="71.5" y="-6.5" font-family="Times,serif" font-size="20.00">⊆</text>
<polyline fill="none" stroke="#7f7542" points="86,-0.5 86,-22.5 "/>
<text text-anchor="middle" x="99.5" y="-6.5" font-family="Times,serif" font-size="20.00">∈</text>
<polyline fill="none" stroke="#7f7542" points="113,-0.5 113,-22.5 "/>
<text text-anchor="middle" x="127.5" y="-6.5" font-family="Times,serif" font-size="20.00">Ø</text>
<polyline fill="none" stroke="#7f7542" points="142,-0.5 142,-22.5 "/>
<text text-anchor="middle" x="156.5" y="-6.5" font-family="Times,serif" font-size="20.00">ω</text>
<polyline fill="none" stroke="#7f7542" points="171,-0.5 171,-22.5 "/>
<text text-anchor="middle" x="185.5" y="-6.5" font-family="Times,serif" font-size="20.00">≠</text>
</g>
</g>
</svg>
