<?xml version="1.0" encoding="UTF-8" standalone="no"?>
<!DOCTYPE svg PUBLIC "-//W3C//DTD SVG 1.1//EN"
 "http://www.w3.org/Graphics/SVG/1.1/DTD/svg11.dtd">
<!-- Generated by graphviz version 5.0.0 (0)
 -->
<!-- Title: proof Pages: 1 -->
<svg width="234pt" height="460pt"
 viewBox="0.00 0.00 234.00 460.00" xmlns="http://www.w3.org/2000/svg" xmlns:xlink="http://www.w3.org/1999/xlink">
<g id="graph0" class="graph" transform="scale(1 1) rotate(0) translate(4 456)">
<title>proof</title>
<g id="clust1" class="cluster">
<title>cluster_0</title>
<polygon fill="transparent" stroke="black" stroke-dasharray="1,5" points="56,-412 56,-444 170,-444 170,-412 56,-412"/>
</g>
<g id="clust2" class="cluster">
<title>cluster_1</title>
<polygon fill="transparent" stroke="black" stroke-width="2" points="8,-210 8,-392 218,-392 218,-210 8,-210"/>
</g>
<g id="clust3" class="cluster">
<title>cluster_2</title>
<polygon fill="transparent" stroke="black" stroke-dasharray="1,5" points="8,-8 8,-190 218,-190 218,-8 8,-8"/>
</g>
<!-- l23_asympt_0 -->
<g id="node1" class="node">
<title>l23_asympt_0</title>
<g id="a_node1"><a xlink:href="l23_asympt_0.html" xlink:title="l23_asympt_0" target="_parent">
<polygon fill="#69d2e7" stroke="#7f7542" points="64,-420.5 64,-435.5 162,-435.5 162,-420.5 64,-420.5"/>
<text text-anchor="middle" x="113" y="-424.3" font-family="Times,serif" font-size="14.00">l23_asympt_0</text>
</a>
</g>
</g>
<!-- c_0_84 -->
<g id="node2" class="node">
<title>c_0_84</title>
<g id="a_node2"><a xlink:href="c_0_84.html" xlink:title="{Big_Oh(X₂) = Big_Oh(X₁)|X₁ ∈ bool(ℕ × ℝ)|X₂ ∈ bool(ℕ × ℝ)|eventually&#45;nonnegative(X₁)|eventually&#45;nonnegative(X₂)|function(X₁)|function(X₂)|quasi_total(X₁,ℕ,ℝ)|quasi_total(X₂,ℕ,ℝ)|⇊|X₁ ∈ Big_Oh(X₂)}" target="_parent">
<polygon fill="#f8edd1" stroke="#7f7542" points="16.5,-218.5 16.5,-383.5 209.5,-383.5 209.5,-218.5 16.5,-218.5"/>
<text text-anchor="middle" x="113" y="-372.3" font-family="Times,serif" font-size="14.00">Big_Oh(X₂) = Big_Oh(X₁)</text>
<polyline fill="none" stroke="#7f7542" points="16.5,-368.5 209.5,-368.5 "/>
<text text-anchor="middle" x="113" y="-357.3" font-family="Times,serif" font-size="14.00">X₁ ∈ bool(ℕ × ℝ)</text>
<polyline fill="none" stroke="#7f7542" points="16.5,-353.5 209.5,-353.5 "/>
<text text-anchor="middle" x="113" y="-342.3" font-family="Times,serif" font-size="14.00">X₂ ∈ bool(ℕ × ℝ)</text>
<polyline fill="none" stroke="#7f7542" points="16.5,-338.5 209.5,-338.5 "/>
<text text-anchor="middle" x="113" y="-327.3" font-family="Times,serif" font-size="14.00">eventually&#45;nonnegative(X₁)</text>
<polyline fill="none" stroke="#7f7542" points="16.5,-323.5 209.5,-323.5 "/>
<text text-anchor="middle" x="113" y="-312.3" font-family="Times,serif" font-size="14.00">eventually&#45;nonnegative(X₂)</text>
<polyline fill="none" stroke="#7f7542" points="16.5,-308.5 209.5,-308.5 "/>
<text text-anchor="middle" x="113" y="-297.3" font-family="Times,serif" font-size="14.00">function(X₁)</text>
<polyline fill="none" stroke="#7f7542" points="16.5,-293.5 209.5,-293.5 "/>
<text text-anchor="middle" x="113" y="-282.3" font-family="Times,serif" font-size="14.00">function(X₂)</text>
<polyline fill="none" stroke="#7f7542" points="16.5,-278.5 209.5,-278.5 "/>
<text text-anchor="middle" x="113" y="-267.3" font-family="Times,serif" font-size="14.00">quasi_total(X₁,ℕ,ℝ)</text>
<polyline fill="none" stroke="#7f7542" points="16.5,-263.5 209.5,-263.5 "/>
<text text-anchor="middle" x="113" y="-252.3" font-family="Times,serif" font-size="14.00">quasi_total(X₂,ℕ,ℝ)</text>
<polyline fill="none" stroke="#7f7542" points="16.5,-248.5 209.5,-248.5 "/>
<text text-anchor="middle" x="113" y="-237.3" font-family="Times,serif" font-size="14.00">⇊</text>
<polyline fill="none" stroke="#7f7542" points="16.5,-233.5 209.5,-233.5 "/>
<text text-anchor="middle" x="113" y="-222.3" font-family="Times,serif" font-size="14.00">X₁ ∈ Big_Oh(X₂)</text>
</a>
</g>
</g>
<!-- l23_asympt_0&#45;&gt;c_0_84 -->
<g id="edge1" class="edge">
<title>l23_asympt_0&#45;&gt;c_0_84</title>
<path fill="none" stroke="black" d="M113,-420.44C113,-420.44 113,-393.68 113,-393.68"/>
<polygon fill="black" stroke="black" points="116.5,-393.68 113,-383.68 109.5,-393.68 116.5,-393.68"/>
</g>
<!-- c_0_87 -->
<g id="node3" class="node">
<title>c_0_87</title>
<g id="a_node3"><a xlink:href="c_0_87.html" xlink:title="{Big_Oh(X₁) = Big_Oh(X₂)|X₁ ∈ bool(ℕ × ℝ)|X₂ ∈ bool(ℕ × ℝ)|eventually&#45;nonnegative(X₁)|eventually&#45;nonnegative(X₂)|function(X₁)|function(X₂)|quasi_total(X₁,ℕ,ℝ)|quasi_total(X₂,ℕ,ℝ)|⇊|X₁ ∈ Big_Oh(X₂)}" target="_parent">
<polygon fill="#f8edd1" stroke="#7f7542" points="16.5,-16.5 16.5,-181.5 209.5,-181.5 209.5,-16.5 16.5,-16.5"/>
<text text-anchor="middle" x="113" y="-170.3" font-family="Times,serif" font-size="14.00">Big_Oh(X₁) = Big_Oh(X₂)</text>
<polyline fill="none" stroke="#7f7542" points="16.5,-166.5 209.5,-166.5 "/>
<text text-anchor="middle" x="113" y="-155.3" font-family="Times,serif" font-size="14.00">X₁ ∈ bool(ℕ × ℝ)</text>
<polyline fill="none" stroke="#7f7542" points="16.5,-151.5 209.5,-151.5 "/>
<text text-anchor="middle" x="113" y="-140.3" font-family="Times,serif" font-size="14.00">X₂ ∈ bool(ℕ × ℝ)</text>
<polyline fill="none" stroke="#7f7542" points="16.5,-136.5 209.5,-136.5 "/>
<text text-anchor="middle" x="113" y="-125.3" font-family="Times,serif" font-size="14.00">eventually&#45;nonnegative(X₁)</text>
<polyline fill="none" stroke="#7f7542" points="16.5,-121.5 209.5,-121.5 "/>
<text text-anchor="middle" x="113" y="-110.3" font-family="Times,serif" font-size="14.00">eventually&#45;nonnegative(X₂)</text>
<polyline fill="none" stroke="#7f7542" points="16.5,-106.5 209.5,-106.5 "/>
<text text-anchor="middle" x="113" y="-95.3" font-family="Times,serif" font-size="14.00">function(X₁)</text>
<polyline fill="none" stroke="#7f7542" points="16.5,-91.5 209.5,-91.5 "/>
<text text-anchor="middle" x="113" y="-80.3" font-family="Times,serif" font-size="14.00">function(X₂)</text>
<polyline fill="none" stroke="#7f7542" points="16.5,-76.5 209.5,-76.5 "/>
<text text-anchor="middle" x="113" y="-65.3" font-family="Times,serif" font-size="14.00">quasi_total(X₁,ℕ,ℝ)</text>
<polyline fill="none" stroke="#7f7542" points="16.5,-61.5 209.5,-61.5 "/>
<text text-anchor="middle" x="113" y="-50.3" font-family="Times,serif" font-size="14.00">quasi_total(X₂,ℕ,ℝ)</text>
<polyline fill="none" stroke="#7f7542" points="16.5,-46.5 209.5,-46.5 "/>
<text text-anchor="middle" x="113" y="-35.3" font-family="Times,serif" font-size="14.00">⇊</text>
<polyline fill="none" stroke="#7f7542" points="16.5,-31.5 209.5,-31.5 "/>
<text text-anchor="middle" x="113" y="-20.3" font-family="Times,serif" font-size="14.00">X₁ ∈ Big_Oh(X₂)</text>
</a>
</g>
</g>
<!-- c_0_84&#45;&gt;c_0_87 -->
<g id="edge2" class="edge">
<title>c_0_84&#45;&gt;c_0_87</title>
<path fill="none" stroke="black" stroke-dasharray="5,2" d="M113,-218.26C113,-218.26 113,-191.62 113,-191.62"/>
<polygon fill="black" stroke="black" points="116.5,-191.62 113,-181.62 109.5,-191.62 116.5,-191.62"/>
</g>
</g>
</svg>
