<?xml version="1.0" encoding="UTF-8" standalone="no"?>
<!DOCTYPE svg PUBLIC "-//W3C//DTD SVG 1.1//EN"
 "http://www.w3.org/Graphics/SVG/1.1/DTD/svg11.dtd">
<!-- Generated by graphviz version 5.0.0 (0)
 -->
<!-- Title: proof Pages: 1 -->
<svg width="184pt" height="160pt"
 viewBox="0.00 0.00 184.00 160.00" xmlns="http://www.w3.org/2000/svg" xmlns:xlink="http://www.w3.org/1999/xlink">
<g id="graph0" class="graph" transform="scale(1 1) rotate(0) translate(4 156)">
<title>proof</title>
<g id="clust1" class="cluster">
<title>cluster_0</title>
<polygon fill="transparent" stroke="black" stroke-dasharray="1,5" points="30,-112 30,-144 146,-144 146,-112 30,-112"/>
</g>
<g id="clust2" class="cluster">
<title>cluster_1</title>
<polygon fill="transparent" stroke="black" stroke-width="2" points="8,-60 8,-92 168,-92 168,-60 8,-60"/>
</g>
<g id="clust3" class="cluster">
<title>cluster_2</title>
<polygon fill="transparent" stroke="black" stroke-dasharray="1,5" points="73,-8 73,-40 103,-40 103,-8 73,-8"/>
</g>
<!-- t26_asympt_0 -->
<g id="node1" class="node">
<title>t26_asympt_0</title>
<g id="a_node1"><a xlink:href="t26_asympt_0.html" xlink:title="t26_asympt_0" target="_parent">
<polygon fill="#fa6900" stroke="#7f7542" points="38,-120.5 38,-135.5 138,-135.5 138,-120.5 38,-120.5"/>
<text text-anchor="middle" x="88" y="-124.3" font-family="Times,serif" font-size="14.00">t26_asympt_0</text>
</a>
</g>
</g>
<!-- c_0_94 -->
<g id="node2" class="node">
<title>c_0_94</title>
<g id="a_node2"><a xlink:href="c_0_94.html" xlink:title="{quasi_total(sk₂,ℕ,ℝ)}" target="_parent">
<polygon fill="#fa6900" stroke="#7f7542" points="16,-68.5 16,-83.5 160,-83.5 160,-68.5 16,-68.5"/>
<text text-anchor="middle" x="88" y="-72.3" font-family="Times,serif" font-size="14.00">quasi_total(sk₂,ℕ,ℝ)</text>
</a>
</g>
</g>
<!-- t26_asympt_0&#45;&gt;c_0_94 -->
<g id="edge1" class="edge">
<title>t26_asympt_0&#45;&gt;c_0_94</title>
<path fill="none" stroke="black" d="M88,-120.33C88,-120.33 88,-93.7 88,-93.7"/>
<polygon fill="black" stroke="black" points="91.5,-93.7 88,-83.7 84.5,-93.7 91.5,-93.7"/>
</g>
<!-- c_0_108 -->
<g id="node3" class="node">
<title>c_0_108</title>
<g id="a_node3"><a xlink:href="c_0_108.html" xlink:title="⊥" target="_parent">
<polygon fill="#fa6900" stroke="#7f7542" points="81,-16.5 81,-31.5 95,-31.5 95,-16.5 81,-16.5"/>
<text text-anchor="middle" x="88" y="-20.3" font-family="Times,serif" font-size="14.00">⊥</text>
</a>
</g>
</g>
<!-- c_0_94&#45;&gt;c_0_108 -->
<g id="edge2" class="edge">
<title>c_0_94&#45;&gt;c_0_108</title>
<path fill="none" stroke="black" stroke-dasharray="5,2" d="M88,-68.33C88,-68.33 88,-41.7 88,-41.7"/>
<polygon fill="black" stroke="black" points="91.5,-41.7 88,-31.7 84.5,-41.7 91.5,-41.7"/>
</g>
</g>
</svg>
