<?xml version="1.0" encoding="UTF-8" standalone="no"?>
<!DOCTYPE svg PUBLIC "-//W3C//DTD SVG 1.1//EN"
 "http://www.w3.org/Graphics/SVG/1.1/DTD/svg11.dtd">
<!-- Generated by graphviz version 5.0.0 (0)
 -->
<!-- Title: proof Pages: 1 -->
<svg width="346pt" height="520pt"
 viewBox="0.00 0.00 346.00 520.00" xmlns="http://www.w3.org/2000/svg" xmlns:xlink="http://www.w3.org/1999/xlink">
<g id="graph0" class="graph" transform="scale(1 1) rotate(0) translate(4 516)">
<title>proof</title>
<g id="clust1" class="cluster">
<title>cluster_0</title>
<polygon fill="transparent" stroke="black" stroke-dasharray="1,5" points="8,-382 8,-504 330,-504 330,-382 8,-382"/>
</g>
<g id="clust2" class="cluster">
<title>cluster_1</title>
<polygon fill="transparent" stroke="black" stroke-width="2" points="43,-225 43,-362 295,-362 295,-225 43,-225"/>
</g>
<g id="clust3" class="cluster">
<title>cluster_2</title>
<polygon fill="transparent" stroke="black" stroke-dasharray="1,5" points="43,-8 43,-205 295,-205 295,-8 43,-8"/>
</g>
<!-- c_0_46 -->
<g id="node1" class="node">
<title>c_0_46</title>
<g id="a_node1"><a xlink:href="c_0_46.html" xlink:title="{X₁ ⊆ X₂|X₂ ⊆ X₁|⇊|X₁ = X₂}" target="_vizar">
<polygon fill="#f8edd1" stroke="#7f7542" points="270,-413 270,-473 322,-473 322,-413 270,-413"/>
<text text-anchor="middle" x="296" y="-461.8" font-family="Times,serif" font-size="14.00">X₁ ⊆ X₂</text>
<polyline fill="none" stroke="#7f7542" points="270,-458 322,-458 "/>
<text text-anchor="middle" x="296" y="-446.8" font-family="Times,serif" font-size="14.00">X₂ ⊆ X₁</text>
<polyline fill="none" stroke="#7f7542" points="270,-443 322,-443 "/>
<text text-anchor="middle" x="296" y="-431.8" font-family="Times,serif" font-size="14.00">⇊</text>
<polyline fill="none" stroke="#7f7542" points="270,-428 322,-428 "/>
<text text-anchor="middle" x="296" y="-416.8" font-family="Times,serif" font-size="14.00">X₁ = X₂</text>
</a>
</g>
</g>
<!-- c_0_56 -->
<g id="node3" class="node">
<title>c_0_56</title>
<g id="a_node3"><a xlink:href="c_0_56.html" xlink:title="{Big_Omega(X₁) ⊆ Big_Omega(X₂)|X₁ ∈ Big_Oh(X₂)|X₂ ∈ bool(ℕ × ℝ)|eventually&#45;nonnegative(X₂)|function(X₂)|quasi_total(X₂,ℕ,ℝ)|⇊|Big_Omega(X₁) = Big_Omega(X₂)}" target="_vizar">
<polygon fill="#f8edd1" stroke="#7f7542" points="51.5,-233.5 51.5,-353.5 286.5,-353.5 286.5,-233.5 51.5,-233.5"/>
<text text-anchor="middle" x="169" y="-342.3" font-family="Times,serif" font-size="14.00">Big_Omega(X₁) ⊆ Big_Omega(X₂)</text>
<polyline fill="none" stroke="#7f7542" points="51.5,-338.5 286.5,-338.5 "/>
<text text-anchor="middle" x="169" y="-327.3" font-family="Times,serif" font-size="14.00">X₁ ∈ Big_Oh(X₂)</text>
<polyline fill="none" stroke="#7f7542" points="51.5,-323.5 286.5,-323.5 "/>
<text text-anchor="middle" x="169" y="-312.3" font-family="Times,serif" font-size="14.00">X₂ ∈ bool(ℕ × ℝ)</text>
<polyline fill="none" stroke="#7f7542" points="51.5,-308.5 286.5,-308.5 "/>
<text text-anchor="middle" x="169" y="-297.3" font-family="Times,serif" font-size="14.00">eventually&#45;nonnegative(X₂)</text>
<polyline fill="none" stroke="#7f7542" points="51.5,-293.5 286.5,-293.5 "/>
<text text-anchor="middle" x="169" y="-282.3" font-family="Times,serif" font-size="14.00">function(X₂)</text>
<polyline fill="none" stroke="#7f7542" points="51.5,-278.5 286.5,-278.5 "/>
<text text-anchor="middle" x="169" y="-267.3" font-family="Times,serif" font-size="14.00">quasi_total(X₂,ℕ,ℝ)</text>
<polyline fill="none" stroke="#7f7542" points="51.5,-263.5 286.5,-263.5 "/>
<text text-anchor="middle" x="169" y="-252.3" font-family="Times,serif" font-size="14.00">⇊</text>
<polyline fill="none" stroke="#7f7542" points="51.5,-248.5 286.5,-248.5 "/>
<text text-anchor="middle" x="169" y="-237.3" font-family="Times,serif" font-size="14.00">Big_Omega(X₁) = Big_Omega(X₂)</text>
</a>
</g>
</g>
<!-- c_0_46&#45;&gt;c_0_56 -->
<g id="edge1" class="edge">
<title>c_0_46&#45;&gt;c_0_56</title>
<path fill="none" stroke="black" d="M278.25,-412.75C278.25,-412.75 278.25,-363.67 278.25,-363.67"/>
<polygon fill="black" stroke="black" points="281.75,-363.67 278.25,-353.67 274.75,-363.67 281.75,-363.67"/>
</g>
<!-- c_0_52 -->
<g id="node2" class="node">
<title>c_0_52</title>
<g id="a_node2"><a xlink:href="c_0_52.html" xlink:title="{X₁ ∈ bool(ℕ × ℝ)|X₂ ∈ Big_Oh(X₁)|eventually&#45;nonnegative(X₁)|function(X₁)|quasi_total(X₁,ℕ,ℝ)|⇊|Big_Omega(X₁) ⊆ Big_Omega(X₂)}" target="_vizar">
<polygon fill="#f8edd1" stroke="#7f7542" points="16.5,-390.5 16.5,-495.5 251.5,-495.5 251.5,-390.5 16.5,-390.5"/>
<text text-anchor="middle" x="134" y="-484.3" font-family="Times,serif" font-size="14.00">X₁ ∈ bool(ℕ × ℝ)</text>
<polyline fill="none" stroke="#7f7542" points="16.5,-480.5 251.5,-480.5 "/>
<text text-anchor="middle" x="134" y="-469.3" font-family="Times,serif" font-size="14.00">X₂ ∈ Big_Oh(X₁)</text>
<polyline fill="none" stroke="#7f7542" points="16.5,-465.5 251.5,-465.5 "/>
<text text-anchor="middle" x="134" y="-454.3" font-family="Times,serif" font-size="14.00">eventually&#45;nonnegative(X₁)</text>
<polyline fill="none" stroke="#7f7542" points="16.5,-450.5 251.5,-450.5 "/>
<text text-anchor="middle" x="134" y="-439.3" font-family="Times,serif" font-size="14.00">function(X₁)</text>
<polyline fill="none" stroke="#7f7542" points="16.5,-435.5 251.5,-435.5 "/>
<text text-anchor="middle" x="134" y="-424.3" font-family="Times,serif" font-size="14.00">quasi_total(X₁,ℕ,ℝ)</text>
<polyline fill="none" stroke="#7f7542" points="16.5,-420.5 251.5,-420.5 "/>
<text text-anchor="middle" x="134" y="-409.3" font-family="Times,serif" font-size="14.00">⇊</text>
<polyline fill="none" stroke="#7f7542" points="16.5,-405.5 251.5,-405.5 "/>
<text text-anchor="middle" x="134" y="-394.3" font-family="Times,serif" font-size="14.00">Big_Omega(X₁) ⊆ Big_Omega(X₂)</text>
</a>
</g>
</g>
<!-- c_0_52&#45;&gt;c_0_56 -->
<g id="edge2" class="edge">
<title>c_0_52&#45;&gt;c_0_56</title>
<path fill="none" stroke="black" d="M151.5,-390.29C151.5,-390.29 151.5,-363.64 151.5,-363.64"/>
<polygon fill="black" stroke="black" points="155,-363.64 151.5,-353.64 148,-363.64 155,-363.64"/>
</g>
<!-- c_0_63 -->
<g id="node4" class="node">
<title>c_0_63</title>
<g id="a_node4"><a xlink:href="c_0_63.html" xlink:title="{X₁ ∈ Big_Oh(X₂)|X₁ ∈ bool(ℕ × ℝ)|X₂ ∈ Big_Oh(X₁)|X₂ ∈ bool(ℕ × ℝ)|eventually&#45;nonnegative(X₁)|eventually&#45;nonnegative(X₂)|function(X₁)|function(X₂)|quasi_total(X₁,ℕ,ℝ)|quasi_total(X₂,ℕ,ℝ)|⇊|Big_Omega(X₁) = Big_Omega(X₂)}" target="_vizar">
<polygon fill="#f8edd1" stroke="#7f7542" points="51.5,-16.5 51.5,-196.5 286.5,-196.5 286.5,-16.5 51.5,-16.5"/>
<text text-anchor="middle" x="169" y="-185.3" font-family="Times,serif" font-size="14.00">X₁ ∈ Big_Oh(X₂)</text>
<polyline fill="none" stroke="#7f7542" points="51.5,-181.5 286.5,-181.5 "/>
<text text-anchor="middle" x="169" y="-170.3" font-family="Times,serif" font-size="14.00">X₁ ∈ bool(ℕ × ℝ)</text>
<polyline fill="none" stroke="#7f7542" points="51.5,-166.5 286.5,-166.5 "/>
<text text-anchor="middle" x="169" y="-155.3" font-family="Times,serif" font-size="14.00">X₂ ∈ Big_Oh(X₁)</text>
<polyline fill="none" stroke="#7f7542" points="51.5,-151.5 286.5,-151.5 "/>
<text text-anchor="middle" x="169" y="-140.3" font-family="Times,serif" font-size="14.00">X₂ ∈ bool(ℕ × ℝ)</text>
<polyline fill="none" stroke="#7f7542" points="51.5,-136.5 286.5,-136.5 "/>
<text text-anchor="middle" x="169" y="-125.3" font-family="Times,serif" font-size="14.00">eventually&#45;nonnegative(X₁)</text>
<polyline fill="none" stroke="#7f7542" points="51.5,-121.5 286.5,-121.5 "/>
<text text-anchor="middle" x="169" y="-110.3" font-family="Times,serif" font-size="14.00">eventually&#45;nonnegative(X₂)</text>
<polyline fill="none" stroke="#7f7542" points="51.5,-106.5 286.5,-106.5 "/>
<text text-anchor="middle" x="169" y="-95.3" font-family="Times,serif" font-size="14.00">function(X₁)</text>
<polyline fill="none" stroke="#7f7542" points="51.5,-91.5 286.5,-91.5 "/>
<text text-anchor="middle" x="169" y="-80.3" font-family="Times,serif" font-size="14.00">function(X₂)</text>
<polyline fill="none" stroke="#7f7542" points="51.5,-76.5 286.5,-76.5 "/>
<text text-anchor="middle" x="169" y="-65.3" font-family="Times,serif" font-size="14.00">quasi_total(X₁,ℕ,ℝ)</text>
<polyline fill="none" stroke="#7f7542" points="51.5,-61.5 286.5,-61.5 "/>
<text text-anchor="middle" x="169" y="-50.3" font-family="Times,serif" font-size="14.00">quasi_total(X₂,ℕ,ℝ)</text>
<polyline fill="none" stroke="#7f7542" points="51.5,-46.5 286.5,-46.5 "/>
<text text-anchor="middle" x="169" y="-35.3" font-family="Times,serif" font-size="14.00">⇊</text>
<polyline fill="none" stroke="#7f7542" points="51.5,-31.5 286.5,-31.5 "/>
<text text-anchor="middle" x="169" y="-20.3" font-family="Times,serif" font-size="14.00">Big_Omega(X₁) = Big_Omega(X₂)</text>
</a>
</g>
</g>
<!-- c_0_56&#45;&gt;c_0_63 -->
<g id="edge3" class="edge">
<title>c_0_56&#45;&gt;c_0_63</title>
<path fill="none" stroke="black" stroke-dasharray="5,2" d="M169,-233.3C169,-233.3 169,-206.54 169,-206.54"/>
<polygon fill="black" stroke="black" points="172.5,-206.54 169,-196.54 165.5,-206.54 172.5,-206.54"/>
</g>
</g>
</svg>
