<?xml version="1.0" encoding="UTF-8" standalone="no"?>
<!DOCTYPE svg PUBLIC "-//W3C//DTD SVG 1.1//EN"
 "http://www.w3.org/Graphics/SVG/1.1/DTD/svg11.dtd">
<!-- Generated by graphviz version 5.0.0 (0)
 -->
<!-- Title: proof Pages: 1 -->
<svg width="1663pt" height="108pt"
 viewBox="0.00 0.00 1663.00 108.00" xmlns="http://www.w3.org/2000/svg" xmlns:xlink="http://www.w3.org/1999/xlink">
<g id="graph0" class="graph" transform="scale(1 1) rotate(0) translate(4 104)">
<title>proof</title>
<g id="clust1" class="cluster">
<title>cluster_1</title>
<polygon fill="transparent" stroke="black" stroke-width="2" points="673,-60 673,-92 789,-92 789,-60 673,-60"/>
</g>
<g id="clust2" class="cluster">
<title>cluster_2</title>
<polygon fill="transparent" stroke="black" stroke-dasharray="1,5" points="8,-8 8,-40 1647,-40 1647,-8 8,-8"/>
</g>
<!-- t26_asympt_0 -->
<g id="node1" class="node">
<title>t26_asympt_0</title>
<g id="a_node1"><a xlink:href="t26_asympt_0.html" xlink:title="t26_asympt_0" target="_vizar">
<polygon fill="#fa6900" stroke="#7f7542" points="681,-68.5 681,-83.5 781,-83.5 781,-68.5 681,-68.5"/>
<text text-anchor="middle" x="731" y="-72.3" font-family="Times,serif" font-size="14.00">t26_asympt_0</text>
</a>
</g>
</g>
<!-- c_0_88 -->
<g id="node2" class="node">
<title>c_0_88</title>
<g id="a_node2"><a xlink:href="c_0_88.html" xlink:title="{Big_Omega(sk₁ + sk₂) ≠ Big_Omega(max(sk₁,sk₂))}" target="_vizar">
<polygon fill="#fa6900" stroke="#7f7542" points="1283.5,-16.5 1283.5,-31.5 1638.5,-31.5 1638.5,-16.5 1283.5,-16.5"/>
<text text-anchor="middle" x="1461" y="-20.3" font-family="Times,serif" font-size="14.00">Big_Omega(sk₁ + sk₂) ≠ Big_Omega(max(sk₁,sk₂))</text>
</a>
</g>
</g>
<!-- t26_asympt_0&#45;&gt;c_0_88 -->
<g id="edge1" class="edge">
<title>t26_asympt_0&#45;&gt;c_0_88</title>
<path fill="none" stroke="black" stroke-dasharray="5,2" d="M781.18,-80C946.1,-80 1461,-80 1461,-80 1461,-80 1461,-41.79 1461,-41.79"/>
<polygon fill="black" stroke="black" points="1464.5,-41.79 1461,-31.79 1457.5,-41.79 1464.5,-41.79"/>
</g>
<!-- c_0_97 -->
<g id="node3" class="node">
<title>c_0_97</title>
<g id="a_node3"><a xlink:href="c_0_97.html" xlink:title="{function(sk₁)}" target="_vizar">
<polygon fill="#fa6900" stroke="#7f7542" points="1174.5,-16.5 1174.5,-31.5 1265.5,-31.5 1265.5,-16.5 1174.5,-16.5"/>
<text text-anchor="middle" x="1220" y="-20.3" font-family="Times,serif" font-size="14.00">function(sk₁)</text>
</a>
</g>
</g>
<!-- t26_asympt_0&#45;&gt;c_0_97 -->
<g id="edge2" class="edge">
<title>t26_asympt_0&#45;&gt;c_0_97</title>
<path fill="none" stroke="black" stroke-dasharray="5,2" d="M781.03,-77C905.66,-77 1220,-77 1220,-77 1220,-77 1220,-41.82 1220,-41.82"/>
<polygon fill="black" stroke="black" points="1223.5,-41.82 1220,-31.82 1216.5,-41.82 1223.5,-41.82"/>
</g>
<!-- c_0_93 -->
<g id="node4" class="node">
<title>c_0_93</title>
<g id="a_node4"><a xlink:href="c_0_93.html" xlink:title="{eventually&#45;nonnegative(sk₁)}" target="_vizar">
<polygon fill="#fa6900" stroke="#7f7542" points="957.5,-16.5 957.5,-31.5 1156.5,-31.5 1156.5,-16.5 957.5,-16.5"/>
<text text-anchor="middle" x="1057" y="-20.3" font-family="Times,serif" font-size="14.00">eventually&#45;nonnegative(sk₁)</text>
</a>
</g>
</g>
<!-- t26_asympt_0&#45;&gt;c_0_93 -->
<g id="edge3" class="edge">
<title>t26_asympt_0&#45;&gt;c_0_93</title>
<path fill="none" stroke="black" stroke-dasharray="5,2" d="M781.22,-74C872.67,-74 1057,-74 1057,-74 1057,-74 1057,-41.81 1057,-41.81"/>
<polygon fill="black" stroke="black" points="1060.5,-41.81 1057,-31.81 1053.5,-41.81 1060.5,-41.81"/>
</g>
<!-- c_0_91 -->
<g id="node5" class="node">
<title>c_0_91</title>
<g id="a_node5"><a xlink:href="c_0_91.html" xlink:title="{sk₁ ∈ bool(ℕ × ℝ)}" target="_vizar">
<polygon fill="#fa6900" stroke="#7f7542" points="812.5,-16.5 812.5,-31.5 939.5,-31.5 939.5,-16.5 812.5,-16.5"/>
<text text-anchor="middle" x="876" y="-20.3" font-family="Times,serif" font-size="14.00">sk₁ ∈ bool(ℕ × ℝ)</text>
</a>
</g>
</g>
<!-- t26_asympt_0&#45;&gt;c_0_91 -->
<g id="edge4" class="edge">
<title>t26_asympt_0&#45;&gt;c_0_91</title>
<path fill="none" stroke="black" stroke-dasharray="5,2" d="M781.31,-71C823.19,-71 876,-71 876,-71 876,-71 876,-41.76 876,-41.76"/>
<polygon fill="black" stroke="black" points="879.5,-41.76 876,-31.76 872.5,-41.76 879.5,-41.76"/>
</g>
<!-- c_0_90 -->
<g id="node6" class="node">
<title>c_0_90</title>
<g id="a_node6"><a xlink:href="c_0_90.html" xlink:title="{sk₂ ∈ bool(ℕ × ℝ)}" target="_vizar">
<polygon fill="#fa6900" stroke="#7f7542" points="667.5,-16.5 667.5,-31.5 794.5,-31.5 794.5,-16.5 667.5,-16.5"/>
<text text-anchor="middle" x="731" y="-20.3" font-family="Times,serif" font-size="14.00">sk₂ ∈ bool(ℕ × ℝ)</text>
</a>
</g>
</g>
<!-- t26_asympt_0&#45;&gt;c_0_90 -->
<g id="edge5" class="edge">
<title>t26_asympt_0&#45;&gt;c_0_90</title>
<path fill="none" stroke="black" stroke-dasharray="5,2" d="M731,-68.33C731,-68.33 731,-41.7 731,-41.7"/>
<polygon fill="black" stroke="black" points="734.5,-41.7 731,-31.7 727.5,-41.7 734.5,-41.7"/>
</g>
<!-- c_0_96 -->
<g id="node7" class="node">
<title>c_0_96</title>
<g id="a_node7"><a xlink:href="c_0_96.html" xlink:title="{function(sk₂)}" target="_vizar">
<polygon fill="#fa6900" stroke="#7f7542" points="558.5,-16.5 558.5,-31.5 649.5,-31.5 649.5,-16.5 558.5,-16.5"/>
<text text-anchor="middle" x="604" y="-20.3" font-family="Times,serif" font-size="14.00">function(sk₂)</text>
</a>
</g>
</g>
<!-- t26_asympt_0&#45;&gt;c_0_96 -->
<g id="edge6" class="edge">
<title>t26_asympt_0&#45;&gt;c_0_96</title>
<path fill="none" stroke="black" stroke-dasharray="5,2" d="M680.81,-71C645.31,-71 604,-71 604,-71 604,-71 604,-41.76 604,-41.76"/>
<polygon fill="black" stroke="black" points="607.5,-41.76 604,-31.76 600.5,-41.76 607.5,-41.76"/>
</g>
<!-- c_0_95 -->
<g id="node8" class="node">
<title>c_0_95</title>
<g id="a_node8"><a xlink:href="c_0_95.html" xlink:title="{quasi_total(sk₁,ℕ,ℝ)}" target="_vizar">
<polygon fill="#fa6900" stroke="#7f7542" points="396,-16.5 396,-31.5 540,-31.5 540,-16.5 396,-16.5"/>
<text text-anchor="middle" x="468" y="-20.3" font-family="Times,serif" font-size="14.00">quasi_total(sk₁,ℕ,ℝ)</text>
</a>
</g>
</g>
<!-- t26_asympt_0&#45;&gt;c_0_95 -->
<g id="edge7" class="edge">
<title>t26_asympt_0&#45;&gt;c_0_95</title>
<path fill="none" stroke="black" stroke-dasharray="5,2" d="M680.91,-74C604.61,-74 468,-74 468,-74 468,-74 468,-41.81 468,-41.81"/>
<polygon fill="black" stroke="black" points="471.5,-41.81 468,-31.81 464.5,-41.81 471.5,-41.81"/>
</g>
<!-- c_0_92 -->
<g id="node9" class="node">
<title>c_0_92</title>
<g id="a_node9"><a xlink:href="c_0_92.html" xlink:title="{eventually&#45;nonnegative(sk₂)}" target="_vizar">
<polygon fill="#fa6900" stroke="#7f7542" points="178.5,-16.5 178.5,-31.5 377.5,-31.5 377.5,-16.5 178.5,-16.5"/>
<text text-anchor="middle" x="278" y="-20.3" font-family="Times,serif" font-size="14.00">eventually&#45;nonnegative(sk₂)</text>
</a>
</g>
</g>
<!-- t26_asympt_0&#45;&gt;c_0_92 -->
<g id="edge8" class="edge">
<title>t26_asympt_0&#45;&gt;c_0_92</title>
<path fill="none" stroke="black" stroke-dasharray="5,2" d="M680.79,-77C562.85,-77 278,-77 278,-77 278,-77 278,-41.82 278,-41.82"/>
<polygon fill="black" stroke="black" points="281.5,-41.82 278,-31.82 274.5,-41.82 281.5,-41.82"/>
</g>
<!-- c_0_94 -->
<g id="node10" class="node">
<title>c_0_94</title>
<g id="a_node10"><a xlink:href="c_0_94.html" xlink:title="{quasi_total(sk₂,ℕ,ℝ)}" target="_vizar">
<polygon fill="#fa6900" stroke="#7f7542" points="16,-16.5 16,-31.5 160,-31.5 160,-16.5 16,-16.5"/>
<text text-anchor="middle" x="88" y="-20.3" font-family="Times,serif" font-size="14.00">quasi_total(sk₂,ℕ,ℝ)</text>
</a>
</g>
</g>
<!-- t26_asympt_0&#45;&gt;c_0_94 -->
<g id="edge9" class="edge">
<title>t26_asympt_0&#45;&gt;c_0_94</title>
<path fill="none" stroke="black" stroke-dasharray="5,2" d="M680.81,-80C529.48,-80 88,-80 88,-80 88,-80 88,-41.79 88,-41.79"/>
<polygon fill="black" stroke="black" points="91.5,-41.79 88,-31.79 84.5,-41.79 91.5,-41.79"/>
</g>
</g>
</svg>
